<?xml version="1.0" encoding="UTF-8" standalone="no"?>
<svg
   width="1800"
   height="1800"
   version="1.1"
   id="svg4"
   sodipodi:docname="US11A1BVAR.svg"
   inkscape:version="1.2.2 (732a01da63, 2022-12-09)"
   xmlns:inkscape="http://www.inkscape.org/namespaces/inkscape"
   xmlns:sodipodi="http://sodipodi.sourceforge.net/DTD/sodipodi-0.dtd"
   xmlns="http://www.w3.org/2000/svg"
   xmlns:svg="http://www.w3.org/2000/svg">
  <defs
     id="defs8" />
  <sodipodi:namedview
     id="namedview6"
     pagecolor="#ffffff"
     bordercolor="#000000"
     borderopacity="0.25"
     inkscape:showpageshadow="2"
     inkscape:pageopacity="0.0"
     inkscape:pagecheckerboard="0"
     inkscape:deskcolor="#d1d1d1"
     showgrid="false"
     inkscape:zoom="0.29000719"
     inkscape:cx="1043.0776"
     inkscape:cy="382.74913"
     inkscape:window-width="1920"
     inkscape:window-height="1027"
     inkscape:window-x="1912"
     inkscape:window-y="-8"
     inkscape:window-maximized="1"
     inkscape:current-layer="svg4" />
  <path
     style="fill:#000000;stroke:none;stroke-width:98.6502"
     d="m 250.07736,117.58794 h 69.31102 c 5.31508,86.05504 74.38985,153.08528 98.74428,181.66372 79.64881,93.46302 369.81115,193.75347 538.75673,252.95659 V 17.214013 h 90.97071 V 563.03817 c 115.591,56.95513 110.0841,58.25442 193.8347,105.18374 83.7509,46.92927 141.6683,113.18037 189.3196,156.49983 47.6513,43.31933 97.7852,118.62879 122.2144,193.98256 29.613,91.3444 43.2148,228.9459 40.2247,352.173 -2.1635,89.1613 6.6164,106.5949 3.5997,219.5635 l -96.8869,-5.6014 c -3.58,-90.1755 5.0716,-150.087 5.8194,-219.5905 0.8681,-80.9189 -1.6199,-162.6063 -10.1088,-229.2166 -8.8391,-69.36 -44.8937,-149.49947 -84.3557,-198.89835 -43.4073,-54.33674 -120.9611,-155.21459 -216.2672,-210.34629 -102.6366,-59.37211 -33.5552,-21.44621 -147.3939,-81.4427 V 1706.6696 l -0.2614,2.6576 v 84.4729 H 231.02875 v -84.4729 H 540.84193 C 699.67967,1533.1618 779.09854,1284.7974 779.09854,964.23407 H 880.8991 c -1.44395,320.56333 -67.14505,568.92773 -197.10323,745.09313 l 273.09352,-2.6576 V 630.18311 C 777.12391,570.96013 533.92368,483.9211 409.65696,390.69735 318.17385,322.06756 250.07736,228.7743 250.07736,117.58794 Z"
     id="path2"
     sodipodi:nodetypes="ccsccccssssccssssccccccccccccsc"
     inkscape:label="path2" />
</svg>
