<?xml version="1.0" encoding="UTF-8" standalone="no"?>
<svg
   width="1800"
   height="1462"
   version="1.1"
   id="svg4"
   sodipodi:docname="US11W18VARC.svg"
   inkscape:version="1.3.2 (091e20e, 2023-11-25, custom)"
   xmlns:inkscape="http://www.inkscape.org/namespaces/inkscape"
   xmlns:sodipodi="http://sodipodi.sourceforge.net/DTD/sodipodi-0.dtd"
   xmlns="http://www.w3.org/2000/svg"
   xmlns:svg="http://www.w3.org/2000/svg">
  <sodipodi:namedview
     id="namedview1"
     pagecolor="#ffffff"
     bordercolor="#000000"
     borderopacity="0.25"
     inkscape:showpageshadow="2"
     inkscape:pageopacity="0.0"
     inkscape:pagecheckerboard="0"
     inkscape:deskcolor="#d1d1d1"
     inkscape:zoom="0.41722222"
     inkscape:cx="1278.6951"
     inkscape:cy="919.17443"
     inkscape:window-width="1192"
     inkscape:window-height="1020"
     inkscape:window-x="-3"
     inkscape:window-y="41"
     inkscape:window-maximized="0"
     inkscape:current-layer="svg4" />
  <defs
     id="defs8" />
  <path
     style="fill:#000000;stroke:none;stroke-width:99.3717"
     d="M 1609.7622,6.8956091 V 113.20745 l -176.6605,0.58322 1.3384,291.58559 c 86.1222,10.59965 167.2757,49.68586 243.4607,117.25864 76.1851,67.57278 114.2775,199.0747 114.2775,394.50578 v 540.45862 h -105.334 V 915.15324 c -1.3249,-165.61956 -32.7927,-273.27226 -94.4032,-322.95813 -62.2729,-49.02338 -114.94,-76.84747 -158.001,-83.47225 v 946.88904 h -105.334 l 1.219,-1344.60123 -212.4496,0.41829 0.1709,1341.65274 -105.1772,2.6471 -0.7331,-1344.71813 -218.79231,1.21898 V 1455.6119 H 688.00975 V 112.22965 H 479.25372 V 1455.6119 H 373.91969 V 508.72286 c -43.06109,6.62478 -95.39687,34.44887 -157.00734,83.47225 -62.27296,49.68587 -94.07191,157.33857 -95.39686,322.95813 V 1457.5993 H 16.18145 V 917.14068 c 0,-195.43108 38.09249,-326.933 114.27749,-394.50578 76.185,-67.57278 157.33857,-106.65899 243.46075,-117.25864 V 115.12901 L 202.61253,115.88423 201.27419,8.234045 Z"
     id="path2"
     sodipodi:nodetypes="ccccssccccccccccccccccccccccccssccccc" />
</svg>
