<?xml version="1.0" encoding="UTF-8" standalone="no"?>
<svg
   width="834.24701"
   height="831.72321"
   id="svg1472"
   version="1.0"
   xmlns="http://www.w3.org/2000/svg"
   xmlns:svg="http://www.w3.org/2000/svg"
   xmlns:rdf="http://www.w3.org/1999/02/22-rdf-syntax-ns#"
   xmlns:cc="http://creativecommons.org/ns#"
   xmlns:dc="http://purl.org/dc/elements/1.1/">
  <metadata
     id="metadata1479">
    <rdf:RDF>
      <cc:Work
         rdf:about="">
        <dc:format>image/svg+xml</dc:format>
        <dc:type
           rdf:resource="http://purl.org/dc/dcmitype/StillImage" />
      </cc:Work>
    </rdf:RDF>
  </metadata>
  <defs
     id="defs1477" />
  <path
     id="path1474"
     style="fill:#000000;stroke:none;stroke-width:99.4037"
     d="M 417.02644,0 C 358.94474,0 304.40249,11.00424 253.36104,33.00488 202.31956,55.00553 158.30254,85.05361 121.34149,122.89467 84.38045,160.73578 55.00554,204.55867 33.00488,254.72005 11.00433,304.88153 0,359.13895 0,417.22057 0,475.30224 11.00433,529.3655 33.00488,579.5271 c 22.00066,50.1614 51.37557,93.6994 88.33661,130.6604 36.96105,36.9611 80.97807,66.5301 132.01955,88.5308 51.04145,22.0006 105.5837,33.0049 163.6654,33.0049 58.08162,0 112.33914,-11.0043 162.50054,-33.0049 50.1614,-22.0007 94.1784,-51.5697 132.0195,-88.5308 37.841,-36.961 67.695,-80.499 89.6956,-130.6604 22.0007,-50.1616 33.0049,-104.22486 33.0049,-162.30653 0,-58.08162 -11.0042,-112.33904 -33.0049,-162.50052 -22.0006,-50.16138 -51.8546,-93.98427 -89.6956,-131.82538 C 673.70538,85.05361 629.68838,55.00553 579.52698,33.00488 529.36558,11.00424 475.10806,0 417.02644,0 Z m 5.43616,89.88978 c 47.52139,0 91.53838,8.80338 132.01958,26.40391 40.481,17.60052 75.9795,41.61572 106.7804,72.41659 30.8009,30.80089 55.0103,66.01454 72.6108,105.61564 17.6004,39.6011 26.4038,81.41726 26.4038,125.41856 0,45.76126 -8.8033,88.53541 -26.4038,128.13662 -17.6008,39.6012 -41.8099,74.3358 -72.6109,104.2567 -30.8008,29.9208 -66.2993,53.1721 -106.7804,69.8927 -40.4812,16.7205 -84.49813,25.239 -132.01954,25.239 -47.52134,0 -92.0174,-8.5185 -133.37857,-25.239 -41.36125,-16.7206 -77.05385,-39.9719 -106.97466,-69.8927 -29.92088,-29.9209 -53.65124,-64.6555 -71.25173,-104.2567 -17.60051,-39.60121 -26.4039,-82.37536 -26.4039,-128.13662 0,-44.0013 8.80338,-85.81746 26.4039,-125.41856 17.60049,-39.6011 41.33085,-74.81475 71.25173,-105.61564 29.92081,-30.80087 65.61341,-54.81607 106.97466,-72.41659 41.36117,-17.60053 85.85708,-26.40391 133.37863,-26.40391 z" />
</svg>
