<?xml version="1.0" encoding="UTF-8" standalone="no"?>
<svg
   width="1800"
   height="1800"
   version="1.1"
   id="svg274"
   sodipodi:docname="US11X4BEXTU.svg"
   inkscape:version="1.2.2 (732a01da63, 2022-12-09)"
   xmlns:inkscape="http://www.inkscape.org/namespaces/inkscape"
   xmlns:sodipodi="http://sodipodi.sourceforge.net/DTD/sodipodi-0.dtd"
   xmlns="http://www.w3.org/2000/svg"
   xmlns:svg="http://www.w3.org/2000/svg">
  <defs
     id="defs278" />
  <sodipodi:namedview
     id="namedview276"
     pagecolor="#ffffff"
     bordercolor="#000000"
     borderopacity="0.25"
     inkscape:showpageshadow="2"
     inkscape:pageopacity="0.0"
     inkscape:pagecheckerboard="0"
     inkscape:deskcolor="#d1d1d1"
     showgrid="false"
     inkscape:zoom="0.37120457"
     inkscape:cx="778.54646"
     inkscape:cy="641.1559"
     inkscape:window-width="1920"
     inkscape:window-height="1027"
     inkscape:window-x="1912"
     inkscape:window-y="-8"
     inkscape:window-maximized="1"
     inkscape:current-layer="svg274" />
  <path
     style="fill:#000000;stroke:none;stroke-width:90.2038"
     d="m 1437.135,1150.364 c 240.3446,-2.3908 274.5951,-103.4245 272.5001,-177.42207 -3.1883,-112.60477 -79.6763,-174.8831 -273.8426,-177.36963 -194.1662,-2.48653 -1071.68152,4.02724 -1071.68152,4.02724 -182.31447,0 -273.471707,58.47821 -273.471707,175.43462 0,118.67644 91.157797,178.47074 273.471707,178.01464 0,0 832.67932,-0.294 1073.02402,-2.6848 z m -2.3566,-423.00226 c 237.3528,1.71994 356.0291,85.13742 356.0291,250.25243 0,165.11493 -118.6763,247.67243 -356.0291,247.67243 H 364.11098 c -237.35279,0 -356.0291829,-82.5575 -356.0291829,-247.67243 0,-165.11501 118.6763929,-248.53249 356.0291829,-250.25243 z"
     id="path272"
     sodipodi:nodetypes="zszssszcsssscc" />
</svg>
