<?xml version="1.0" encoding="UTF-8" standalone="no"?>
<svg
   width="1800"
   height="1800"
   version="1.1"
   id="svg4"
   xmlns="http://www.w3.org/2000/svg"
   xmlns:svg="http://www.w3.org/2000/svg"
   xmlns:rdf="http://www.w3.org/1999/02/22-rdf-syntax-ns#"
   xmlns:cc="http://creativecommons.org/ns#"
   xmlns:dc="http://purl.org/dc/elements/1.1/">
  <title
     id="title1000">US11W17VARC</title>
  <defs
     id="defs8" />
  <path
     id="path2"
     style="fill:#000000;stroke:none;stroke-width:99.3717"
     d="M 1427.7617 6.8964844 L 371.27344 8.234375 L 372.61328 115.88477 L 543.91992 115.12891 L 543.91992 405.37695 C 457.79783 415.97659 376.64391 455.06205 300.45898 522.63477 C 224.27406 590.20748 186.18164 721.70974 186.18164 917.14062 L 186.18164 1793.5996 L 291.51562 1793.5996 L 291.51562 915.15234 C 292.84057 749.53295 324.63921 641.88113 386.91211 592.19531 C 448.52252 543.17198 500.85887 515.34743 543.91992 508.72266 L 543.91992 1791.6113 L 649.25391 1791.6113 L 649.25391 506.20703 L 846.00977 506.20703 L 846.00977 1791.6113 L 951.34375 1791.6113 L 951.34375 506.20703 L 1147.1055 506.20703 L 1147.1055 1791.6113 L 1252.4395 1791.6113 L 1252.4395 508.72266 C 1295.5004 515.34743 1348.1686 543.17198 1410.4414 592.19531 C 1472.0518 641.88113 1503.5189 749.53295 1504.8438 915.15234 L 1504.8438 1793.5996 L 1610.1777 1793.5996 L 1610.1777 917.14062 C 1610.1777 721.70974 1572.0854 590.20748 1495.9004 522.63477 C 1419.7155 455.06205 1338.5616 415.97659 1252.4395 405.37695 L 1251.1016 113.79102 L 1427.7617 113.20703 L 1427.7617 6.8964844 z M 649.25391 112.23047 L 846.00977 112.23047 L 846.00977 401.04883 L 649.25391 401.04883 L 649.25391 112.23047 z M 951.34375 112.23047 L 1147.1055 112.23047 L 1147.1055 401.04883 L 951.34375 401.04883 L 951.34375 112.23047 z " />
  <metadata
     id="metadata998">
    <rdf:RDF>
      <cc:Work
         rdf:about="">
        <dc:title>US11W17VARC</dc:title>
      </cc:Work>
    </rdf:RDF>
  </metadata>
</svg>
