<?xml version="1.0" encoding="UTF-8" standalone="no"?>
<svg
   width="1800"
   height="1455"
   version="1.1"
   id="svg4"
   sodipodi:docname="US11W17VARC.svg"
   inkscape:version="1.3.2 (091e20e, 2023-11-25, custom)"
   xmlns:inkscape="http://www.inkscape.org/namespaces/inkscape"
   xmlns:sodipodi="http://sodipodi.sourceforge.net/DTD/sodipodi-0.dtd"
   xmlns="http://www.w3.org/2000/svg"
   xmlns:svg="http://www.w3.org/2000/svg"
   xmlns:rdf="http://www.w3.org/1999/02/22-rdf-syntax-ns#"
   xmlns:cc="http://creativecommons.org/ns#"
   xmlns:dc="http://purl.org/dc/elements/1.1/">
  <sodipodi:namedview
     id="namedview1"
     pagecolor="#ffffff"
     bordercolor="#000000"
     borderopacity="0.25"
     inkscape:showpageshadow="2"
     inkscape:pageopacity="0.0"
     inkscape:pagecheckerboard="0"
     inkscape:deskcolor="#d1d1d1"
     inkscape:zoom="0.41722222"
     inkscape:cx="900"
     inkscape:cy="900"
     inkscape:window-width="1920"
     inkscape:window-height="986"
     inkscape:window-x="-11"
     inkscape:window-y="-11"
     inkscape:window-maximized="1"
     inkscape:current-layer="svg4" />
  <title
     id="title1000">US11W17VARC</title>
  <defs
     id="defs8" />
  <path
     id="path2"
     style="fill:#000000;stroke:none;stroke-width:99.3717"
     d="m 1427.3649,30.515656 -1056.48826,1.33789 1.33984,107.650404 171.30664,-0.75586 V 428.99613 C 457.40103,439.59577 376.24711,478.68123 300.06218,546.25395 223.87726,613.82666 185.78484,745.32894 185.78484,940.75988 V 1455.2188 H 291.11882 V 938.77158 c 1.32495,-165.61944 33.12359,-273.27124 95.39649,-322.95709 61.61041,-49.02333 113.94676,-76.84788 157.00781,-83.47265 V 1453.2305 H 648.85711 V 529.82621 H 845.61297 V 1453.2305 H 950.94695 V 529.82621 h 195.76175 v 923.40429 h 105.334 V 532.34184 c 43.0609,6.62477 95.7291,34.44932 158.0019,83.47265 61.6104,49.68585 93.0775,157.33765 94.4024,322.95709 v 516.44722 h 105.3339 V 940.75988 c 0,-195.43094 -38.0923,-326.93322 -114.2773,-394.50593 -76.1849,-67.57272 -157.3388,-106.65818 -243.4609,-117.25782 l -1.3379,-291.58593 176.6601,-0.58399 z M 648.85711,135.84965 H 845.61297 V 424.66801 H 648.85711 Z m 302.08984,0 H 1146.7087 V 424.66801 H 950.94695 Z"
     sodipodi:nodetypes="cccccssccccccccccccccccccccsscccccccccccccc" />
  <metadata
     id="metadata998">
    <rdf:RDF>
      <cc:Work
         rdf:about="">
        <dc:title>US11W17VARC</dc:title>
      </cc:Work>
    </rdf:RDF>
  </metadata>
</svg>
