<?xml version="1.0" encoding="UTF-8" standalone="no"?>
<svg
   width="1800"
   height="1800"
   version="1.1"
   id="svg4"
   xmlns="http://www.w3.org/2000/svg"
   xmlns:svg="http://www.w3.org/2000/svg"
   xmlns:rdf="http://www.w3.org/1999/02/22-rdf-syntax-ns#"
   xmlns:cc="http://creativecommons.org/ns#"
   xmlns:dc="http://purl.org/dc/elements/1.1/">
  <title
     id="title1135">US11W18VARD</title>
  <defs
     id="defs8" />
  <path
     id="path2"
     style="fill:#000000;stroke:none;stroke-width:99.3717"
     d="M 1609.7617 6.8964844 L 201.27344 8.234375 L 202.61328 115.88477 L 373.91992 115.12891 L 373.91992 405.37695 C 287.79783 415.97659 206.64391 455.06205 130.45898 522.63477 C 54.274061 590.20748 16.181641 721.70974 16.181641 917.14062 L 16.181641 1793.5996 L 121.51562 1793.5996 L 121.51562 915.15234 C 122.84057 749.53295 154.63921 641.88113 216.91211 592.19531 C 278.52252 543.17198 330.85887 515.34743 373.91992 508.72266 L 373.91992 1791.6113 L 479.25391 1791.6113 L 479.25391 502.02734 L 688.00977 502.02734 L 688.00977 1791.6113 L 793.34375 1791.6113 L 793.34375 502.02734 L 1012.3066 502.02734 L 1012.8691 1791.7285 L 1118.0469 1789.082 L 1117.9141 502.02734 L 1330.041 502.02734 L 1329.1055 1791.6113 L 1434.4395 1791.6113 L 1434.4395 508.72266 C 1477.5004 515.34743 1530.1686 543.17198 1592.4414 592.19531 C 1654.0518 641.88113 1685.5189 749.53295 1686.8438 915.15234 L 1686.8438 1793.5996 L 1792.1777 1793.5996 L 1792.1777 917.14062 C 1792.1777 721.70974 1754.0854 590.20748 1677.9004 522.63477 C 1601.7155 455.06205 1520.5616 415.97659 1434.4395 405.37695 L 1433.1016 113.79102 L 1609.7617 113.20703 L 1609.7617 6.8964844 z M 1012.1367 111.00977 L 1012.2617 399.22266 L 793.34375 399.22266 L 793.34375 112.23047 L 1012.1367 111.00977 z M 1330.3242 111.00977 L 1330.1152 399.22266 L 1117.9043 399.22266 L 1117.875 111.42969 L 1330.3242 111.00977 z M 479.25391 112.23047 L 688.00977 112.23047 L 688.00977 399.22266 L 479.25391 399.22266 L 479.25391 112.23047 z " />
  <metadata
     id="metadata1133">
    <rdf:RDF>
      <cc:Work
         rdf:about="">
        <dc:title>US11W18VARD</dc:title>
      </cc:Work>
    </rdf:RDF>
  </metadata>
</svg>
