<?xml version="1.0" encoding="UTF-8" standalone="no"?>
<svg
   xmlns:dc="http://purl.org/dc/elements/1.1/"
   xmlns:cc="http://creativecommons.org/ns#"
   xmlns:rdf="http://www.w3.org/1999/02/22-rdf-syntax-ns#"
   xmlns:svg="http://www.w3.org/2000/svg"
   xmlns="http://www.w3.org/2000/svg"
   xmlns:sodipodi="http://sodipodi.sourceforge.net/DTD/sodipodi-0.dtd"
   xmlns:inkscape="http://www.inkscape.org/namespaces/inkscape"
   id="svg2"
   version="1.1"
   inkscape:version="0.48.0 r9654"
   width="1800"
   height="1800"
   sodipodi:docname="US1D50DEXTU.svg">
  <metadata
     id="metadata12">
    <rdf:RDF>
      <cc:Work
         rdf:about="">
        <dc:format>image/svg+xml</dc:format>
        <dc:type
           rdf:resource="http://purl.org/dc/dcmitype/StillImage" />
        <dc:title></dc:title>
      </cc:Work>
    </rdf:RDF>
  </metadata>
  <defs
     id="defs10" />
  <sodipodi:namedview
     pagecolor="#ffffff"
     bordercolor="#666666"
     borderopacity="1"
     objecttolerance="10"
     gridtolerance="10"
     guidetolerance="10"
     inkscape:pageopacity="0"
     inkscape:pageshadow="2"
     inkscape:window-width="1920"
     inkscape:window-height="1032"
     id="namedview8"
     showgrid="false"
     inkscape:zoom="0.099198602"
     inkscape:cx="1435.93"
     inkscape:cy="1239.0004"
     inkscape:window-x="0"
     inkscape:window-y="22"
     inkscape:window-maximized="0"
     inkscape:current-layer="svg2"
     inkscape:snap-grids="true">
    <inkscape:grid
       type="xygrid"
       id="grid3065"
       empspacing="45"
       visible="true"
       enabled="true"
       snapvisiblegridlinesonly="true"
       spacingx="10px"
       spacingy="10px"
       empcolor="#ff0000"
       empopacity="0.83137255"
       dotted="false" />
  </sodipodi:namedview>
  <path
     d="m 806.87844,984.85866 q 9.8686,37.50044 36.5137,67.10634 l -22.6976,14.8024 q -23.6845,-22.6976 -36.5137,-69.07961 l 22.6976,-12.82913 z m -45.3951,27.63204 q 12.829,45.3952 57.2374,90.7903 l 35.5268,-26.6447 q 23.6844,28.6185 69.0798,77.9612 l 0,614.8098 -65.1324,0 0,-583.2306 q -129.2778,-109.5404 -96.7116,-173.686 z m 58.2242,-62.17185 q -74.0139,10.85534 -94.7379,71.54685 -20.7238,60.6915 103.6196,181.0877 l 0,597.0466 124.3436,0 0,-664.1525 q -91.7774,-84.8694 -133.2253,-185.52865 z"
     style="fill:#000000;stroke:none"
     id="path6-7-05"
     inkscape:connector-curvature="0" />
  <path
     d="m 398.07018,984.8586 q 9.8686,37.5005 36.5137,67.1064 l -22.6976,14.8024 q -23.6845,-22.6976 -36.5137,-69.0796 l 22.6976,-12.8292 z m -45.3951,27.6321 q 12.829,45.3951 57.2374,90.7903 l 35.5268,-26.6447 q 23.6844,28.6185 69.0798,77.9612 l 0,614.8098 -65.1324,0 0,-583.2306 q -129.2778,-109.5404 -96.7116,-173.686 z m 58.2242,-62.17187 q -74.0139,10.85534 -94.7379,71.54687 -20.7238,60.6915 103.6196,181.0876 l 0,597.0467 124.3436,0 0,-664.1525 q -91.7774,-84.8694 -133.2253,-185.52867 z"
     style="fill:#000000;stroke:none"
     id="path6-7-7"
     inkscape:connector-curvature="0" />
  <path
     d="M 81.9088,30.178212 Q 91.7774,67.6787 118.4225,97.284533 L 95.7249,112.08696 Q 72.0404,89.389386 59.2112,43.007342 L 81.9088,30.178212 z M 36.5137,57.810257 q 12.829,45.395143 57.2374,90.790293 l 35.5268,-26.64466 q 23.6844,28.61845 69.0798,77.96116 l 0,614.80982 -65.1324,0 0,-583.23063 Q 3.9475,121.95589 36.5137,57.810257 z M 94.7379,-4.3615965 Q 20.724,6.4937455 0,67.185254 -20.7238,127.87676 103.6196,248.2729 l 0,597.04665 124.3436,0 0,-664.15248 Q 136.1858,96.297637 94.7379,-4.3615965 z"
     style="fill:#000000;stroke:none"
     id="path6-7"
     inkscape:connector-curvature="0" />
  <path
     d="m 981.9088,30.178208 q 9.8686,37.500488 36.5137,67.106322 l -22.6976,14.80243 Q 972.0404,89.389382 959.2112,43.007338 l 22.6976,-12.82913 z m -45.3951,27.632045 q 12.829,45.395147 57.2374,90.790297 l 35.5268,-26.64466 q 23.6844,28.61845 69.0798,77.96116 l 0,614.80982 -65.1324,0 0,-583.23063 Q 903.9475,121.95589 936.5137,57.810253 z M 994.7379,-4.3616 Q 920.724,6.493742 900,67.18525 879.2762,127.87676 1003.6196,248.2729 l 0,597.04665 124.3436,0 0,-664.15248 Q 1036.1858,96.29763 994.7379,-4.3616 z"
     style="fill:#000000;stroke:none"
     id="path6-7-4"
     inkscape:connector-curvature="0" />
  <path
     d="m 531.9088,30.178208 q 9.8686,37.500488 36.5137,67.106322 l -22.6976,14.80243 Q 522.0404,89.389382 509.2112,43.007338 l 22.6976,-12.82913 z m -45.3951,27.632045 q 12.829,45.395147 57.2374,90.790297 l 35.5268,-26.64466 q 23.6844,28.61845 69.0798,77.96116 l 0,614.80982 -65.1324,0 0,-583.23063 Q 453.9475,121.95589 486.5137,57.810253 z M 544.7379,-4.3616 Q 470.724,6.493742 450,67.18525 429.2762,127.87676 553.6196,248.2729 l 0,597.04665 124.3436,0 0,-664.15248 Q 586.1858,96.29763 544.7379,-4.3616 z"
     style="fill:#000000;stroke:none"
     id="path6-7-00"
     inkscape:connector-curvature="0" />
</svg>
