<?xml version="1.0" encoding="UTF-8" standalone="no"?>
<svg
   xmlns:dc="http://purl.org/dc/elements/1.1/"
   xmlns:cc="http://creativecommons.org/ns#"
   xmlns:rdf="http://www.w3.org/1999/02/22-rdf-syntax-ns#"
   xmlns:svg="http://www.w3.org/2000/svg"
   xmlns="http://www.w3.org/2000/svg"
   xmlns:sodipodi="http://sodipodi.sourceforge.net/DTD/sodipodi-0.dtd"
   xmlns:inkscape="http://www.inkscape.org/namespaces/inkscape"
   id="svg2"
   version="1.1"
   inkscape:version="0.48.0 r9654"
   width="1800"
   height="1800"
   sodipodi:docname="US1D50AEXTU.svg">
  <metadata
     id="metadata12">
    <rdf:RDF>
      <cc:Work
         rdf:about="">
        <dc:format>image/svg+xml</dc:format>
        <dc:type
           rdf:resource="http://purl.org/dc/dcmitype/StillImage" />
      </cc:Work>
    </rdf:RDF>
  </metadata>
  <defs
     id="defs10" />
  <sodipodi:namedview
     pagecolor="#ffffff"
     bordercolor="#666666"
     borderopacity="1"
     objecttolerance="10"
     gridtolerance="10"
     guidetolerance="10"
     inkscape:pageopacity="0"
     inkscape:pageshadow="2"
     inkscape:window-width="1920"
     inkscape:window-height="1032"
     id="namedview8"
     showgrid="false"
     inkscape:zoom="0.28057602"
     inkscape:cx="372.04724"
     inkscape:cy="526.18109"
     inkscape:window-x="0"
     inkscape:window-y="22"
     inkscape:window-maximized="0"
     inkscape:current-layer="svg2" />
  <path
     d="m 180.31837,70.885126 q 20.96737,79.676094 77.57926,142.578654 l -48.22492,31.45027 Q 159.35099,196.68922 132.09343,98.142773 L 180.31837,70.885126 z M 83.86849,129.59405 q 27.25756,96.44963 121.61069,192.89927 l 75.48251,-56.61109 q 50.32169,60.80472 146.77158,165.64158 l 0,1306.26679 -138.38464,0 0,-1239.17148 Q 14.676182,265.88223 83.86849,129.59405 z M 207.57594,-2.5005018 Q 50.320718,20.563497 6.2892142,149.51281 -37.742189,278.46212 226.44655,534.26395 l 0,1268.52595 264.18882,0 0,-1411.10359 Q 295.63885,211.36696 207.57594,-2.5005018 z"
     style="fill:#000000;stroke:none"
     id="path4"
     inkscape:connector-curvature="0" />
  <path
     d="m 871.50889,70.885126 q 20.96739,79.676094 77.57928,142.578654 l -48.22494,31.45027 Q 850.54153,196.68922 823.28396,98.142773 l 48.22493,-27.257647 z m -96.44986,58.708924 q 27.25754,96.44963 121.61067,192.89927 l 75.48251,-56.61109 q 50.32169,60.80472 146.77159,165.64158 l 0,1306.26679 -138.38463,0 0,-1239.17148 Q 705.86671,265.88223 775.05903,129.59405 z M 898.76647,-2.5005018 Q 741.51125,20.563497 697.47975,149.51281 653.44834,278.46212 917.63708,534.26395 l 0,1268.52595 264.18882,0 0,-1411.10359 Q 986.82937,211.36696 898.76647,-2.5005018 z"
     style="fill:#000000;stroke:none"
     id="path6"
     inkscape:connector-curvature="0" />
</svg>
