<?xml version="1.0" encoding="UTF-8" standalone="no"?>
<svg
   xmlns:dc="http://purl.org/dc/elements/1.1/"
   xmlns:cc="http://creativecommons.org/ns#"
   xmlns:rdf="http://www.w3.org/1999/02/22-rdf-syntax-ns#"
   xmlns:svg="http://www.w3.org/2000/svg"
   xmlns="http://www.w3.org/2000/svg"
   xmlns:sodipodi="http://sodipodi.sourceforge.net/DTD/sodipodi-0.dtd"
   xmlns:inkscape="http://www.inkscape.org/namespaces/inkscape"
   id="svg2"
   version="1.1"
   inkscape:version="0.48.0 r9654"
   width="1800"
   height="1800"
   sodipodi:docname="US1D67CEXTU.svg">
  <metadata
     id="metadata12">
    <rdf:RDF>
      <cc:Work
         rdf:about="">
        <dc:format>image/svg+xml</dc:format>
        <dc:type
           rdf:resource="http://purl.org/dc/dcmitype/StillImage" />
        <dc:title></dc:title>
      </cc:Work>
    </rdf:RDF>
  </metadata>
  <defs
     id="defs10" />
  <sodipodi:namedview
     pagecolor="#ffffff"
     bordercolor="#666666"
     borderopacity="1"
     objecttolerance="10"
     gridtolerance="10"
     guidetolerance="10"
     inkscape:pageopacity="0"
     inkscape:pageshadow="2"
     inkscape:window-width="1280"
     inkscape:window-height="756"
     id="namedview8"
     showgrid="true"
     inkscape:zoom="0.24247495"
     inkscape:cx="1388.5649"
     inkscape:cy="361.2156"
     inkscape:window-x="0"
     inkscape:window-y="22"
     inkscape:window-maximized="0"
     inkscape:current-layer="svg2">
    <inkscape:grid
       type="xygrid"
       id="grid2989"
       empspacing="45"
       visible="true"
       enabled="true"
       snapvisiblegridlinesonly="true"
       spacingx="10px"
       spacingy="10px" />
  </sodipodi:namedview>
  <path
     d="m 454.76128,1366.3818 c -265.43128,141.2017 -164.51487,469.9967 96.24098,433.6183 300.9986,-42.0793 236.84504,-498.9883 -96.24098,-433.6183 m 48.46206,67.9539 c 197.66976,19.6833 215.96579,257.2327 47.37329,290.5157 -185.39412,36.6778 -253.24103,-216.2645 -47.37329,-290.5157 z"
     style="fill:#000000;stroke:none"
     id="path4-9"
     inkscape:connector-curvature="0" />
  <path
     d="m 1102.9618,1366.3818 c -265.4313,141.2016 -164.5149,469.9964 96.241,433.6182 300.9986,-42.0783 236.845,-498.9883 -96.241,-433.6182 m 48.462,67.9538 c 197.6698,19.6834 215.9658,257.2336 47.3733,290.5167 -185.3941,36.6768 -253.241,-216.2655 -47.3733,-290.5167 z"
     style="fill:#000000;stroke:none"
     id="path6-3-3"
     inkscape:connector-curvature="0" />
  <path
     d="M 155.76133,727.72274 C -109.66995,868.92443 -8.753545,1197.7195 252.00231,1161.3411 553.00091,1119.2618 488.84735,662.35274 155.76133,727.72274 m 48.46206,67.95397 C 401.89315,815.36 420.18918,1052.9094 251.59668,1086.1924 66.202555,1122.8702 -1.6443503,869.92786 204.22339,795.67671 z"
     style="fill:#000000;stroke:none"
     id="path4"
     inkscape:connector-curvature="0" />
  <path
     d="m 778.86157,727.72273 c -265.4313,141.2016 -164.5149,469.99647 96.241,433.61827 300.99863,-42.0783 236.84503,-498.98828 -96.241,-433.61827 m 48.462,67.9538 c 197.66983,19.6834 215.96583,257.23367 47.3733,290.51677 -185.3941,36.6768 -253.241,-216.26557 -47.3733,-290.51677 z"
     style="fill:#000000;stroke:none"
     id="path6-3"
     inkscape:connector-curvature="0" />
  <path
     d="m 1401.9618,727.72273 c -265.4313,141.2016 -164.5149,469.99647 96.241,433.61827 300.9986,-42.0783 236.845,-498.98828 -96.241,-433.61827 m 48.462,67.9538 c 197.6698,19.6834 215.9658,257.23367 47.3733,290.51677 -185.3941,36.6768 -253.241,-216.26557 -47.3733,-290.51677 z"
     style="fill:#000000;stroke:none"
     id="path6-3-8"
     inkscape:connector-curvature="0" />
</svg>
