<?xml version="1.0" encoding="UTF-8" standalone="no"?>
<svg
   xmlns:dc="http://purl.org/dc/elements/1.1/"
   xmlns:cc="http://creativecommons.org/ns#"
   xmlns:rdf="http://www.w3.org/1999/02/22-rdf-syntax-ns#"
   xmlns:svg="http://www.w3.org/2000/svg"
   xmlns="http://www.w3.org/2000/svg"
   xmlns:sodipodi="http://sodipodi.sourceforge.net/DTD/sodipodi-0.dtd"
   xmlns:inkscape="http://www.inkscape.org/namespaces/inkscape"
   id="svg2"
   version="1.1"
   inkscape:version="0.48.0 r9654"
   width="1800"
   height="1800"
   sodipodi:docname="US1D50FEXTU.svg">
  <metadata
     id="metadata12">
    <rdf:RDF>
      <cc:Work
         rdf:about="">
        <dc:format>image/svg+xml</dc:format>
        <dc:type
           rdf:resource="http://purl.org/dc/dcmitype/StillImage" />
        <dc:title></dc:title>
      </cc:Work>
    </rdf:RDF>
  </metadata>
  <defs
     id="defs10" />
  <sodipodi:namedview
     pagecolor="#ffffff"
     bordercolor="#666666"
     borderopacity="1"
     objecttolerance="10"
     gridtolerance="10"
     guidetolerance="10"
     inkscape:pageopacity="0"
     inkscape:pageshadow="2"
     inkscape:window-width="1920"
     inkscape:window-height="1032"
     id="namedview8"
     showgrid="false"
     inkscape:zoom="0.099198602"
     inkscape:cx="1435.93"
     inkscape:cy="1239.0004"
     inkscape:window-x="0"
     inkscape:window-y="22"
     inkscape:window-maximized="0"
     inkscape:current-layer="svg2"
     inkscape:snap-grids="true">
    <inkscape:grid
       type="xygrid"
       id="grid3065"
       empspacing="45"
       visible="true"
       enabled="true"
       snapvisiblegridlinesonly="true"
       spacingx="10px"
       spacingy="10px"
       empcolor="#ff0000"
       empopacity="0.83137255"
       dotted="false" />
  </sodipodi:namedview>
  <path
     d="M 81.9088,30.178212 Q 91.7774,67.6787 118.4225,97.284533 L 95.7249,112.08696 Q 72.0404,89.389386 59.2112,43.007342 L 81.9088,30.178212 z M 36.5137,57.810257 q 12.829,45.395143 57.2374,90.790293 l 35.5268,-26.64466 q 23.6844,28.61845 69.0798,77.96116 l 0,614.80982 -65.1324,0 0,-583.23063 Q 3.9475,121.95589 36.5137,57.810257 z M 94.7379,-4.3615965 Q 20.724,6.4937455 0,67.185254 -20.7238,127.87676 103.6196,248.2729 l 0,597.04665 124.3436,0 0,-664.15248 Q 136.1858,96.297637 94.7379,-4.3615965 z"
     style="fill:#000000;stroke:none"
     id="path6-7"
     inkscape:connector-curvature="0" />
  <path
     d="m 957.4503,30.178208 q 9.8686,37.500488 36.5137,67.106322 l -22.6976,14.80243 Q 947.5819,89.389382 934.7527,43.007338 l 22.6976,-12.82913 z m -45.3951,27.632045 q 12.829,45.395147 57.2374,90.790297 l 35.5268,-26.64466 q 23.6844,28.61845 69.0798,77.96116 l 0,614.80982 -65.1324,0 0,-583.23063 Q 879.489,121.95589 912.0552,57.810253 z M 970.2794,-4.3616 Q 896.2655,6.493742 875.5415,67.18525 854.8177,127.87676 979.1611,248.2729 l 0,597.04665 124.3436,0 0,-664.15248 Q 1011.7273,96.29763 970.2794,-4.3616 z"
     style="fill:#000000;stroke:none"
     id="path6-7-4"
     inkscape:connector-curvature="0" />
  <path
     d="m 519.67955,30.178208 q 9.8686,37.500488 36.5137,67.106322 l -22.6976,14.80243 q -23.6845,-22.697578 -36.5137,-69.079622 l 22.6976,-12.82913 z m -45.3951,27.632045 q 12.829,45.395147 57.2374,90.790297 l 35.5268,-26.64466 q 23.6844,28.61845 69.0798,77.96116 l 0,614.80982 -65.1324,0 0,-583.23063 Q 441.71825,121.95589 474.28445,57.810253 z M 532.50865,-4.3616 q -74.0139,10.855342 -94.7379,71.54685 -20.7238,60.69151 103.6196,181.08765 l 0,597.04665 124.3436,0 0,-664.15248 Q 573.95655,96.29763 532.50865,-4.3616 z"
     style="fill:#000000;stroke:none"
     id="path6-7-00"
     inkscape:connector-curvature="0" />
  <path
     d="m 1395.2211,30.178208 q 9.8686,37.500488 36.5137,67.106322 l -22.6976,14.80243 q -23.6845,-22.697578 -36.5137,-69.079622 l 22.6976,-12.82913 z m -45.3951,27.632045 q 12.829,45.395147 57.2374,90.790297 l 35.5268,-26.64466 q 23.6844,28.61845 69.0798,77.96116 l 0,614.80982 -65.1324,0 0,-583.23063 Q 1317.2598,121.95589 1349.826,57.810253 z M 1408.0502,-4.3616 q -74.0139,10.855342 -94.7379,71.54685 -20.7238,60.69151 103.6196,181.08765 l 0,597.04665 124.3436,0 0,-664.15248 Q 1449.4981,96.29763 1408.0502,-4.3616 z"
     style="fill:#000000;stroke:none"
     id="path6-7-4-6"
     inkscape:connector-curvature="0" />
  <path
     d="m 81.9088,1008.0146 q 9.8686,37.5005 36.5137,67.1063 l -22.6976,14.8024 q -23.6845,-22.6976 -36.5137,-69.0796 l 22.6976,-12.8291 z m -45.3951,27.632 q 12.829,45.3952 57.2374,90.7903 l 35.5268,-26.6446 q 23.6844,28.6184 69.0798,77.9611 l 0,614.8098 -65.1324,0 0,-583.2306 Q 3.9474999,1099.7923 36.5137,1035.6466 z M 94.7379,973.47476 Q 20.724,984.33011 -7.341851e-8,1045.0216 -20.7238,1105.7131 103.6196,1226.1093 l 0,597.0466 124.3436,0 0,-664.1525 Q 136.1858,1074.134 94.7379,973.47476 z"
     style="fill:#000000;stroke:none"
     id="path6-7-9"
     inkscape:connector-curvature="0" />
  <path
     d="m 957.4503,1008.0146 q 9.8686,37.5005 36.5137,67.1063 l -22.6976,14.8024 q -23.6845,-22.6976 -36.5137,-69.0796 l 22.6976,-12.8291 z m -45.3951,27.632 q 12.829,45.3952 57.2374,90.7903 l 35.5268,-26.6446 q 23.6844,28.6184 69.0798,77.9611 l 0,614.8098 -65.1324,0 0,-583.2306 Q 879.489,1099.7923 912.0552,1035.6466 z m 58.2242,-62.17184 q -74.0139,10.85534 -94.7379,71.54684 -20.7238,60.6915 103.6196,181.0877 l 0,597.0466 124.3436,0 0,-664.1525 Q 1011.7273,1074.134 970.2794,973.47476 z"
     style="fill:#000000;stroke:none"
     id="path6-7-4-8"
     inkscape:connector-curvature="0" />
  <path
     d="m 519.67955,1008.0146 q 9.8686,37.5005 36.5137,67.1063 l -22.6976,14.8024 q -23.6845,-22.6976 -36.5137,-69.0796 l 22.6976,-12.8291 z m -45.3951,27.632 q 12.829,45.3952 57.2374,90.7903 l 35.5268,-26.6446 q 23.6844,28.6184 69.0798,77.9611 l 0,614.8098 -65.1324,0 0,-583.2306 q -129.2778,-109.5403 -96.7116,-173.686 z m 58.2242,-62.17184 q -74.0139,10.85534 -94.7379,71.54684 -20.7238,60.6915 103.6196,181.0877 l 0,597.0466 124.3436,0 0,-664.1525 q -91.7774,-84.8694 -133.2253,-185.52864 z"
     style="fill:#000000;stroke:none"
     id="path6-7-00-1"
     inkscape:connector-curvature="0" />
  <path
     d="m 1395.2211,1008.0146 q 9.8686,37.5005 36.5137,67.1063 l -22.6976,14.8024 q -23.6845,-22.6976 -36.5137,-69.0796 l 22.6976,-12.8291 z m -45.3951,27.632 q 12.829,45.3952 57.2374,90.7903 l 35.5268,-26.6446 q 23.6844,28.6184 69.0798,77.9611 l 0,614.8098 -65.1324,0 0,-583.2306 q -129.2778,-109.5403 -96.7116,-173.686 z m 58.2242,-62.17184 q -74.0139,10.85534 -94.7379,71.54684 -20.7238,60.6915 103.6196,181.0877 l 0,597.0466 124.3436,0 0,-664.1525 q -91.7774,-84.8694 -133.2253,-185.52864 z"
     style="fill:#000000;stroke:none"
     id="path6-7-4-6-1"
     inkscape:connector-curvature="0" />
</svg>
