<?xml version="1.0" encoding="UTF-8" standalone="no"?>
<svg
   xmlns:dc="http://purl.org/dc/elements/1.1/"
   xmlns:cc="http://creativecommons.org/ns#"
   xmlns:rdf="http://www.w3.org/1999/02/22-rdf-syntax-ns#"
   xmlns:svg="http://www.w3.org/2000/svg"
   xmlns="http://www.w3.org/2000/svg"
   xmlns:sodipodi="http://sodipodi.sourceforge.net/DTD/sodipodi-0.dtd"
   xmlns:inkscape="http://www.inkscape.org/namespaces/inkscape"
   id="svg2"
   version="1.1"
   inkscape:version="0.48.0 r9654"
   width="1800"
   height="1800"
   sodipodi:docname="US1D67GEXTU.svg">
  <metadata
     id="metadata12">
    <rdf:RDF>
      <cc:Work
         rdf:about="">
        <dc:format>image/svg+xml</dc:format>
        <dc:type
           rdf:resource="http://purl.org/dc/dcmitype/StillImage" />
        <dc:title></dc:title>
      </cc:Work>
    </rdf:RDF>
  </metadata>
  <defs
     id="defs10" />
  <sodipodi:namedview
     pagecolor="#ffffff"
     bordercolor="#666666"
     borderopacity="1"
     objecttolerance="10"
     gridtolerance="10"
     guidetolerance="10"
     inkscape:pageopacity="0"
     inkscape:pageshadow="2"
     inkscape:window-width="1280"
     inkscape:window-height="756"
     id="namedview8"
     showgrid="true"
     inkscape:zoom="0.24247495"
     inkscape:cx="1388.5649"
     inkscape:cy="856.11208"
     inkscape:window-x="0"
     inkscape:window-y="22"
     inkscape:window-maximized="0"
     inkscape:current-layer="svg2">
    <inkscape:grid
       type="xygrid"
       id="grid2989"
       empspacing="45"
       visible="true"
       enabled="true"
       snapvisiblegridlinesonly="true"
       spacingx="10px"
       spacingy="10px" />
  </sodipodi:namedview>
  <path
     d="M 155.76133,683.19076 C -109.66995,824.39245 -8.753545,1153.1875 252.00231,1116.8091 553.00091,1074.7298 488.84735,617.82076 155.76133,683.19076 m 48.46206,67.95397 C 401.89315,770.82802 420.18918,1008.3774 251.59668,1041.6604 66.202555,1078.3382 -1.6443503,825.39588 204.22339,751.14473 z"
     style="fill:#000000;stroke:none"
     id="path4"
     inkscape:connector-curvature="0" />
  <path
     d="m 778.86157,683.19075 c -265.4313,141.2016 -164.5149,469.99645 96.241,433.61825 300.99863,-42.0783 236.84503,-498.98826 -96.241,-433.61825 m 48.462,67.9538 c 197.66983,19.6834 215.96583,257.23365 47.3733,290.51675 -185.3941,36.6768 -253.241,-216.26555 -47.3733,-290.51675 z"
     style="fill:#000000;stroke:none"
     id="path6-3"
     inkscape:connector-curvature="0" />
  <path
     d="m 1401.9618,683.19075 c -265.4313,141.2016 -164.5149,469.99645 96.241,433.61825 300.9986,-42.0783 236.845,-498.98826 -96.241,-433.61825 m 48.462,67.9538 c 197.6698,19.6834 215.9658,257.23365 47.3733,290.51675 -185.3941,36.6768 -253.241,-216.26555 -47.3733,-290.51675 z"
     style="fill:#000000;stroke:none"
     id="path6-3-8"
     inkscape:connector-curvature="0" />
  <path
     d="M 155.76133,1366.3817 C -109.66995,1507.5833 -8.7535446,1836.3784 252.00231,1800 c 300.9986,-42.0793 236.84504,-498.9883 -96.24098,-433.6183 m 48.46206,67.9539 c 197.66976,19.6833 215.96579,257.2327 47.37329,290.5157 -185.394124,36.6778 -253.2410299,-216.2645 -47.37329,-290.5157 z"
     style="fill:#000000;stroke:none"
     id="path4-9"
     inkscape:connector-curvature="0" />
  <path
     d="m 778.86157,1366.3816 c -265.4313,141.2017 -164.5149,469.9965 96.241,433.6183 300.99863,-42.0783 236.84503,-498.9883 -96.241,-433.6183 m 48.462,67.9538 c 197.66983,19.6835 215.96583,257.2337 47.3733,290.5168 -185.3941,36.6768 -253.241,-216.2656 -47.3733,-290.5168 z"
     style="fill:#000000;stroke:none"
     id="path6-3-7"
     inkscape:connector-curvature="0" />
  <path
     d="m 1401.9618,1366.3816 c -265.4313,141.2017 -164.5149,469.9965 96.241,433.6183 300.9986,-42.0783 236.845,-498.9883 -96.241,-433.6183 m 48.462,67.9538 c 197.6698,19.6835 215.9658,257.2337 47.3733,290.5168 -185.3941,36.6768 -253.241,-216.2656 -47.3733,-290.5168 z"
     style="fill:#000000;stroke:none"
     id="path6-3-8-3"
     inkscape:connector-curvature="0" />
  <path
     d="M 155.76133,0 C -109.66995,141.20169 -8.7535446,469.99674 252.00231,433.61834 553.00091,391.53904 488.84735,-65.37 155.76133,0 m 48.46206,67.95397 C 401.89315,87.63726 420.18918,325.18664 251.59668,358.46964 66.202556,395.14744 -1.6443499,142.20512 204.22339,67.95397 z"
     style="fill:#000000;stroke:none"
     id="path4-4"
     inkscape:connector-curvature="0" />
  <path
     d="m 778.86157,-1e-5 c -265.4313,141.2016 -164.5149,469.99645 96.241,433.61825 C 1176.1012,391.53994 1111.9476,-65.37002 778.86157,-1e-5 m 48.462,67.9538 c 197.66983,19.6834 215.96583,257.23365 47.3733,290.51675 -185.3941,36.6768 -253.241,-216.26555 -47.3733,-290.51675 z"
     style="fill:#000000;stroke:none"
     id="path6-3-4"
     inkscape:connector-curvature="0" />
  <path
     d="m 1401.9618,-1e-5 c -265.4313,141.2016 -164.5149,469.99645 96.241,433.61825 300.9986,-42.0783 236.845,-498.98826 -96.241,-433.61825 m 48.462,67.9538 c 197.6698,19.6834 215.9658,257.23365 47.3733,290.51675 -185.3941,36.6768 -253.241,-216.26555 -47.3733,-290.51675 z"
     style="fill:#000000;stroke:none"
     id="path6-3-8-5"
     inkscape:connector-curvature="0" />
</svg>
