<?xml version="1.0" encoding="UTF-8" standalone="no"?>
<svg
   xmlns:dc="http://purl.org/dc/elements/1.1/"
   xmlns:cc="http://creativecommons.org/ns#"
   xmlns:rdf="http://www.w3.org/1999/02/22-rdf-syntax-ns#"
   xmlns:svg="http://www.w3.org/2000/svg"
   xmlns="http://www.w3.org/2000/svg"
   xmlns:sodipodi="http://sodipodi.sourceforge.net/DTD/sodipodi-0.dtd"
   xmlns:inkscape="http://www.inkscape.org/namespaces/inkscape"
   id="svg2"
   version="1.1"
   inkscape:version="0.48.0 r9654"
   width="1800"
   height="1800"
   sodipodi:docname="US1D67BEXTU.svg">
  <metadata
     id="metadata12">
    <rdf:RDF>
      <cc:Work
         rdf:about="">
        <dc:format>image/svg+xml</dc:format>
        <dc:type
           rdf:resource="http://purl.org/dc/dcmitype/StillImage" />
        <dc:title></dc:title>
      </cc:Work>
    </rdf:RDF>
  </metadata>
  <defs
     id="defs10" />
  <sodipodi:namedview
     pagecolor="#ffffff"
     bordercolor="#666666"
     borderopacity="1"
     objecttolerance="10"
     gridtolerance="10"
     guidetolerance="10"
     inkscape:pageopacity="0"
     inkscape:pageshadow="2"
     inkscape:window-width="1280"
     inkscape:window-height="756"
     id="namedview8"
     showgrid="true"
     inkscape:zoom="0.24247495"
     inkscape:cx="-270.88887"
     inkscape:cy="526.18109"
     inkscape:window-x="0"
     inkscape:window-y="22"
     inkscape:window-maximized="0"
     inkscape:current-layer="svg2">
    <inkscape:grid
       type="xygrid"
       id="grid2989"
       empspacing="45"
       visible="true"
       enabled="true"
       snapvisiblegridlinesonly="true"
       spacingx="10px"
       spacingy="10px" />
  </sodipodi:namedview>
  <path
     d="M 155.96418,752.46754 C -109.4671,893.66923 -8.5506951,1222.4643 252.20516,1186.0859 553.20376,1144.0066 489.0502,687.09754 155.96418,752.46754 m 48.46206,67.95397 C 402.096,840.1048 420.39203,1077.6542 251.79953,1110.9372 66.405405,1147.615 -1.4415004,894.67266 204.42624,820.42151 z"
     style="fill:#000000;stroke:none"
     id="path4"
     inkscape:connector-curvature="0" />
  <path
     d="m 804.1647,752.46753 c -265.4313,141.2016 -164.5149,469.99647 96.241,433.61827 300.9986,-42.0783 236.845,-498.98828 -96.241,-433.61827 m 48.462,67.9538 C 1050.2965,840.10473 1068.5925,1077.655 900,1110.9381 714.6059,1147.6149 646.759,894.67253 852.6267,820.42133 z"
     style="fill:#000000;stroke:none"
     id="path6-3"
     inkscape:connector-curvature="0" />
  <path
     d="m 155.55848,1366.3818 c -265.43128,141.2017 -164.5148747,469.9967 96.24098,433.6183 300.9986,-42.0793 236.84504,-498.9883 -96.24098,-433.6183 m 48.46206,67.9539 c 197.66976,19.6833 215.96579,257.2327 47.37329,290.5157 C 65.999706,1761.5292 -1.8472,1508.5869 204.02054,1434.3357 z"
     style="fill:#000000;stroke:none"
     id="path4-9"
     inkscape:connector-curvature="0" />
  <path
     d="M 803.759,1366.3818 C 538.3277,1507.5834 639.2441,1836.3782 900,1800 c 300.9986,-42.0783 236.845,-498.9883 -96.241,-433.6182 m 48.462,67.9538 c 197.6698,19.6834 215.9658,257.2336 47.3733,290.5167 -185.3941,36.6768 -253.241,-216.2655 -47.3733,-290.5167 z"
     style="fill:#000000;stroke:none"
     id="path6-3-3"
     inkscape:connector-curvature="0" />
</svg>
