<?xml version="1.0" encoding="UTF-8" standalone="no"?>
<svg
   xmlns:dc="http://purl.org/dc/elements/1.1/"
   xmlns:cc="http://creativecommons.org/ns#"
   xmlns:rdf="http://www.w3.org/1999/02/22-rdf-syntax-ns#"
   xmlns:svg="http://www.w3.org/2000/svg"
   xmlns="http://www.w3.org/2000/svg"
   xmlns:sodipodi="http://sodipodi.sourceforge.net/DTD/sodipodi-0.dtd"
   xmlns:inkscape="http://www.inkscape.org/namespaces/inkscape"
   id="svg2"
   version="1.1"
   inkscape:version="0.48.0 r9654"
   width="1800"
   height="1800"
   sodipodi:docname="US1D50CEXTU.svg">
  <metadata
     id="metadata12">
    <rdf:RDF>
      <cc:Work
         rdf:about="">
        <dc:format>image/svg+xml</dc:format>
        <dc:type
           rdf:resource="http://purl.org/dc/dcmitype/StillImage" />
        <dc:title></dc:title>
      </cc:Work>
    </rdf:RDF>
  </metadata>
  <defs
     id="defs10" />
  <sodipodi:namedview
     pagecolor="#ffffff"
     bordercolor="#666666"
     borderopacity="1"
     objecttolerance="10"
     gridtolerance="10"
     guidetolerance="10"
     inkscape:pageopacity="0"
     inkscape:pageshadow="2"
     inkscape:window-width="1920"
     inkscape:window-height="1032"
     id="namedview8"
     showgrid="false"
     inkscape:zoom="0.28057602"
     inkscape:cx="1792.3397"
     inkscape:cy="668.74495"
     inkscape:window-x="0"
     inkscape:window-y="22"
     inkscape:window-maximized="0"
     inkscape:current-layer="svg2" />
  <path
     d="m 180.31837,72.588126 q 20.96737,79.676094 77.57926,142.578654 l -48.22492,31.45027 Q 159.35099,198.39222 132.09343,99.845773 L 180.31837,72.588126 z M 83.86849,131.29705 q 27.25756,96.44963 121.61069,192.89927 l 75.48251,-56.61109 q 50.32169,60.80472 146.77158,165.64158 l 0,1306.26679 -138.38464,0 0,-1239.17148 Q 14.676182,267.58523 83.86849,131.29705 z M 207.57594,-0.7975018 Q 50.320718,22.266497 6.2892142,151.21581 -37.742189,280.16512 226.44655,535.96695 l 0,1268.52595 264.18882,0 0,-1411.10359 Q 295.63885,213.06996 207.57594,-0.7975018 z"
     style="fill:#000000;stroke:none"
     id="path4"
     inkscape:connector-curvature="0" />
  <path
     d="m 887.29844,72.588126 q 20.96739,79.676094 77.57928,142.578654 l -48.22494,31.45027 Q 866.33108,198.39222 839.07351,99.845773 l 48.22493,-27.257647 z m -96.44986,58.708924 q 27.25754,96.44963 121.61067,192.89927 l 75.48251,-56.61109 q 50.32164,60.80472 146.77154,165.64158 l 0,1306.26679 -138.38458,0 0,-1239.17148 Q 721.65626,267.58523 790.84858,131.29705 z M 914.55602,-0.7975018 Q 757.3008,22.266497 713.2693,151.21581 669.23789,280.16512 933.42663,535.96695 l 0,1268.52595 264.18877,0 0,-1411.10359 Q 1002.6189,213.06996 914.55602,-0.7975018 z"
     style="fill:#000000;stroke:none"
     id="path6"
     inkscape:connector-curvature="0" />
  <path
     d="m 1594.2784,72.588111 q 20.9674,79.676089 77.5793,142.578649 l -48.225,31.45027 Q 1573.311,198.3922 1546.0535,99.845751 l 48.2249,-27.25764 z m -96.4499,58.708919 q 27.2576,96.44963 121.6107,192.89927 l 75.4825,-56.61109 q 50.3217,60.80472 146.7716,165.64158 l 0,1306.26681 -138.3846,0 0,-1239.1715 Q 1428.6362,267.58521 1497.8285,131.29703 z M 1621.536,-0.79751927 Q 1464.2808,22.266481 1420.2493,151.21579 1376.2179,280.1651 1640.4066,535.96693 l 0,1268.52597 264.1888,0 0,-1411.10361 Q 1709.5989,213.06994 1621.536,-0.79751927 z"
     style="fill:#000000;stroke:none"
     id="path6-9"
     inkscape:connector-curvature="0" />
  <path
     d="m 2301.2585,72.588128 q 20.9674,79.676092 77.5793,142.578652 l -48.2249,31.45027 q -50.3217,-48.22483 -77.5793,-146.77128 l 48.2249,-27.257642 z m -96.4498,58.708922 q 27.2575,96.44963 121.6106,192.89927 l 75.4826,-56.61109 q 50.3216,60.80472 146.7715,165.64158 l 0,1306.26679 -138.3846,0 0,-1239.17148 Q 2135.6164,267.58523 2204.8087,131.29705 z M 2328.5161,-0.7975 q -157.2552,23.063999 -201.2867,152.01331 -44.0314,128.94931 220.1573,384.75114 l 0,1268.52595 264.1888,0 0,-1411.10359 Q 2416.579,213.06996 2328.5161,-0.7975 z"
     style="fill:#000000;stroke:none"
     id="path6-7"
     inkscape:connector-curvature="0" />
</svg>
