<?xml version="1.0" encoding="UTF-8" standalone="no"?>
<svg
   xmlns:dc="http://purl.org/dc/elements/1.1/"
   xmlns:cc="http://creativecommons.org/ns#"
   xmlns:rdf="http://www.w3.org/1999/02/22-rdf-syntax-ns#"
   xmlns:svg="http://www.w3.org/2000/svg"
   xmlns="http://www.w3.org/2000/svg"
   xmlns:sodipodi="http://sodipodi.sourceforge.net/DTD/sodipodi-0.dtd"
   xmlns:inkscape="http://www.inkscape.org/namespaces/inkscape"
   id="svg2"
   version="1.1"
   inkscape:version="0.48.0 r9654"
   width="1800"
   height="1800"
   sodipodi:docname="US1D50GEXTU.svg">
  <metadata
     id="metadata12">
    <rdf:RDF>
      <cc:Work
         rdf:about="">
        <dc:format>image/svg+xml</dc:format>
        <dc:type
           rdf:resource="http://purl.org/dc/dcmitype/StillImage" />
        <dc:title></dc:title>
      </cc:Work>
    </rdf:RDF>
  </metadata>
  <defs
     id="defs10" />
  <sodipodi:namedview
     pagecolor="#ffffff"
     bordercolor="#666666"
     borderopacity="1"
     objecttolerance="10"
     gridtolerance="10"
     guidetolerance="10"
     inkscape:pageopacity="0"
     inkscape:pageshadow="2"
     inkscape:window-width="1920"
     inkscape:window-height="1032"
     id="namedview8"
     showgrid="false"
     inkscape:zoom="0.14028801"
     inkscape:cx="1435.93"
     inkscape:cy="1239.0004"
     inkscape:window-x="0"
     inkscape:window-y="22"
     inkscape:window-maximized="0"
     inkscape:current-layer="svg2"
     inkscape:snap-grids="true">
    <inkscape:grid
       type="xygrid"
       id="grid3065"
       empspacing="45"
       visible="true"
       enabled="true"
       snapvisiblegridlinesonly="true"
       spacingx="10px"
       spacingy="10px"
       empcolor="#ff0000"
       empopacity="0.83137255"
       dotted="false" />
  </sodipodi:namedview>
  <path
     style="fill:#000000;stroke:none"
     d="M 64.84375,-8.5625 C 38.142865,-5.6916721 11.180978,8.537208 -0.28125,33.75 -8.5864346,49.236974 -7.12022,68.35744 0.5625,83.8125 c 13.081585,29.74562 35.904853,53.95603 58.34375,76.90625 3.874749,3.74702 8.912517,7.62395 7,13.78125 0,132.75 0,265.5 0,398.25 30.614583,0 61.22917,0 91.84375,0 0,-151.23958 0,-302.47917 0,-453.71875 C 118.98486,83.594427 85.93035,40.374681 66.40625,-8.8125 L 65.418809,-8.6545095 64.84375,-8.5625 z m -11.6875,34.59375 c 4.23352,13.544612 11.664896,26.243808 20.40625,37.15625 -2.957022,1.452093 -5.383485,5.984994 -8.90625,5.375 -9.873094,-11.042909 -15.937702,-25.095214 -19.90625,-39 2.778057,-1.445872 5.203607,-3.432213 8.0625,-4.65625 l 0.292219,0.956352 0.05153,0.168648 z m -28.125,24.78125 c 8.456187,20.313359 22.36574,37.858823 37.84375,53.3125 7.859143,-5.996927 15.783572,-11.896892 23.6875,-17.84375 13.87065,16.57981 28.54955,32.63645 43.21875,48.65625 0,136.39583 0,272.79167 0,409.1875 -11.96875,0 -23.9375,0 -35.90625,0 0,-130.41667 0,-260.83333 0,-391.25 C 67.845271,130.15105 40.560491,106.1614 27.370563,73.343825 24.788064,65.951457 23.487645,57.863502 24.6875,50 l 0.34375,0.8125 z"
     id="path6-7"
     inkscape:connector-curvature="0" />
  <path
     style="fill:#000000;stroke:none"
     d="m 655.40625,-8.5625 c -26.53067,2.8573818 -53.33417,16.8978217 -64.91596,41.863177 -7.90785,14.676844 -7.51604,33.066949 -0.36529,48.074323 12.38367,30.12244 35.26676,54.49359 57.63066,77.63466 4.0722,4.47885 10.7289,8.39549 8.68184,15.49034 0,132.75 0,265.5 0,398.25 30.625,0 61.25,0 91.875,0 0,-151.23958 0,-302.47917 0,-453.71875 C 709.46489,83.528007 676.5582,40.446138 656.96875,-8.8125 l -0.98744,0.1579905 -0.57506,0.092009 z m -11.6875,34.59375 c 4.24631,13.552088 11.65816,26.231482 20.40625,37.15625 -2.95702,1.452093 -5.38348,5.984994 -8.90625,5.375 -9.83946,-10.988048 -15.93999,-25.046977 -19.90625,-39 2.77806,-1.445872 5.20361,-3.432213 8.0625,-4.65625 l 0.29222,0.956352 0.0515,0.168648 z m -28.125,24.78125 c 8.43431,20.292392 22.37566,37.831277 37.78125,53.3125 7.88221,-5.993267 15.8277,-11.903446 23.75,-17.84375 13.91009,16.64438 28.56323,32.62446 43.21875,48.65625 0,136.39583 0,272.79167 0,409.1875 -11.97917,0 -23.95833,0 -35.9375,0 0,-130.41667 0,-260.83333 0,-391.25 C 658.65343,130.3906 631.6823,106.60661 618.28125,74.28125 615.45091,66.646769 613.99514,58.139773 615.25,50 l 0.34375,0.8125 z"
     id="path6-7-4"
     inkscape:connector-curvature="0" />
  <path
     style="fill:#000000;stroke:none"
     d="M 360.125,-8.5625 C 333.43204,-5.6977321 306.56619,8.5096357 295,33.65625 c -7.95126,15.097127 -7.07016,33.501687 0.19975,48.653238 13.96325,33.010682 40.17172,58.922232 64.5815,84.378012 3.32543,4.62102 0.38666,11.39096 1.375,16.8125 0,129.75 0,259.5 0,389.25 30.625,0 61.25,0 91.875,0 0,-151.23958 0,-302.47917 0,-453.71875 C 414.10067,83.454002 381.23298,40.330644 361.6875,-8.8125 l -0.98744,0.1579905 -0.57506,0.092009 z m -11.6875,34.59375 c 4.25548,13.564156 11.65489,26.236016 20.40625,37.15625 -2.95548,1.435481 -5.38565,6.008316 -8.90625,5.375 -9.85821,-10.982633 -15.945,-25.080426 -19.90625,-39 2.77806,-1.445872 5.20361,-3.432213 8.0625,-4.65625 l 0.29222,0.956352 0.0515,0.168648 z m -28.125,24.78125 c 8.43431,20.292392 22.37566,37.831277 37.78125,53.3125 7.88221,-5.993267 15.8277,-11.903446 23.75,-17.84375 13.91009,16.64438 28.56323,32.62446 43.21875,48.65625 0,136.39583 0,272.79167 0,409.1875 -11.96875,0 -23.9375,0 -35.90625,0 0,-130.41667 0,-260.83333 0,-391.25 C 363.34441,130.36501 336.42109,106.61548 323,74.28125 320.16966,66.646769 318.71389,58.139773 319.96875,50 l 0.34375,0.8125 z"
     id="path6-7-00"
     inkscape:connector-curvature="0" />
  <path
     style="fill:#000000;stroke:none"
     d="m 64.84375,613.65625 c -26.671993,2.72591 -53.553736,17.04229 -65.09375,42.125 -7.9968848,15.08492 -7.1014136,33.52546 0.16849533,48.68449 12.57455867,29.71196 35.13949267,53.83673 57.27427967,76.73182 4.127024,4.4202 10.691196,8.38064 8.713475,15.45869 0,132.75 0,265.50005 0,398.24995 30.614583,1e-4 61.22917,0 91.84375,0 0,-151.2395 0,-302.47912 0,-453.7187 C 118.91163,705.70026 86.061308,662.64482 66.40625,613.40625 l -0.987441,0.15799 -0.575059,0.092 z m -11.6875,34.5625 c 4.263199,13.53865 11.664859,26.24281 20.40625,37.125 -2.991606,1.4273 -5.362691,5.98016 -8.90625,5.375 C 54.725178,679.65783 48.815472,665.68595 44.6875,651.75 c 2.810583,-1.43064 5.186655,-3.44389 8.125,-4.6875 l 0.28497,0.95854 0.05878,0.19771 z m -28.125,24.75 c 8.43474,20.33441 22.380976,37.87361 37.84375,53.3125 7.859143,-5.99693 15.783572,-11.89689 23.6875,-17.84375 13.91122,16.63491 28.56528,32.64641 43.21875,48.65625 0,136.39583 0,272.79165 0,409.18745 -11.96875,0 -23.9375,0 -35.90625,0 0,-130.4166 0,-260.83328 0,-391.24995 C 68.102849,752.58983 41.135229,728.77048 27.71875,696.4375 24.862451,688.71401 23.448563,680.41901 24.6875,672.15625 l 0.34375,0.8125 z"
     id="path6-7-9"
     inkscape:connector-curvature="0" />
  <path
     style="fill:#000000;stroke:none"
     d="m 655.40625,613.65625 c -26.49375,2.704 -53.3546,16.89455 -64.90625,41.78125 -8.18438,15.0734 -7.3646,33.81487 0,49.0625 12.74513,30.01742 35.44316,54.18307 57.82903,77.2795 4.08635,4.12939 10.07459,8.14816 8.10847,14.87675 0,132.75 0,265.50005 0,398.24995 30.625,1e-4 61.25,0 91.875,0 0,-151.2395 0,-302.47912 0,-453.7187 -38.75868,-35.42191 -71.72831,-78.55526 -91.34375,-127.78125 l -0.98744,0.15799 -0.57506,0.092 z m -11.6875,34.5625 c 4.2477,13.52179 11.68652,26.26982 20.40625,37.125 -2.99161,1.4273 -5.36269,5.98016 -8.90625,5.375 C 645.31977,679.69701 639.4041,665.78312 635.25,651.75 c 2.81058,-1.43064 5.18666,-3.44389 8.125,-4.6875 l 0.28497,0.95854 0.0588,0.19771 z M 615.59375,673 c 8.44208,20.27314 22.37978,37.81035 37.78125,53.28125 7.88221,-5.99327 15.8277,-11.90345 23.75,-17.84375 13.87244,16.67003 28.58328,32.62479 43.21875,48.65625 0,136.39583 0,272.79165 0,409.18745 -11.97917,0 -23.95833,1e-4 -35.9375,0 0,-130.4166 0,-260.83328 0,-391.24995 -26.077,-22.83868 -53.68486,-47.01849 -66.65625,-80.0625 -2.4453,-7.21582 -3.74067,-15.18281 -2.46875,-22.78125 l 0.3125,0.8125 z"
     id="path6-7-4-8"
     inkscape:connector-curvature="0" />
  <path
     style="fill:#000000;stroke:none"
     d="m 360.125,613.65625 c -26.56124,2.69129 -53.42143,16.99226 -65,41.90625 -8.60238,15.96173 -6.94231,35.7039 1.21875,51.5 13.20254,29.44258 36.03343,53.47232 58.35734,76.39969 3.90407,3.31241 8.12385,7.3693 6.45516,13.13156 0,132.77083 0,265.54165 0,398.31245 30.625,1e-4 61.25,0 91.875,0 0,-151.2395 0,-302.47912 0,-453.7187 -38.75342,-35.40932 -71.744,-78.58878 -91.34375,-127.78125 l -0.98744,0.15799 -0.57506,0.092 z m -11.6875,34.5625 c 4.25326,13.53409 11.66253,26.23308 20.40625,37.125 -2.98952,1.40792 -5.36547,6.00602 -8.90625,5.375 -9.93128,-11.02382 -15.83595,-25.03708 -19.96875,-38.96875 2.81058,-1.43064 5.18666,-3.44389 8.125,-4.6875 l 0.28497,0.95854 0.0588,0.19771 z M 320.3125,673 c 8.45651,20.29812 22.39109,37.80351 37.78125,53.28125 7.88221,-5.99327 15.8277,-11.90345 23.75,-17.84375 13.87244,16.67003 28.58328,32.62479 43.21875,48.65625 0,136.39583 0,272.79165 0,409.18745 -11.96875,0 -23.9375,0 -35.90625,0 0,-130.4166 0,-260.83328 0,-391.24995 -25.77589,-22.46324 -52.74813,-46.2701 -66.15625,-78.5625 -2.83291,-7.64177 -4.28456,-16.161 -3.03125,-24.3125 L 320.3125,673 z"
     id="path6-7-00-1"
     inkscape:connector-curvature="0" />
  <path
     style="fill:#000000;stroke:none"
     d="m 64.84375,1235.8125 c -26.524042,2.7021 -53.450049,16.9886 -64.95631665,41.8898 -8.44892415,15.5763 -7.09704365,34.7915 0.64381665,50.3602 12.744819,29.201 35.10731,52.9555 56.951922,75.6488 4.138047,4.2168 10.465888,8.2056 8.423078,15.1012 0,132.75 0,265.5 0,398.25 30.614583,0 61.22917,0 91.84375,0 0,-151.2396 0,-302.4792 0,-453.7187 -38.77141,-35.4418 -71.683232,-78.4928 -91.34375,-127.7813 l -0.987441,0.158 -0.575059,0.092 z m -11.6875,34.5625 c 4.234323,13.5239 11.693596,26.2574 20.40625,37.125 -2.991606,1.4273 -5.362691,5.9802 -8.90625,5.375 -9.828726,-10.904 -15.845622,-25.0136 -19.96875,-38.9688 2.810583,-1.4306 5.186655,-3.4438 8.125,-4.6874 l 0.28497,0.9585 0.05878,0.1977 z m -28.125,24.75 c 8.480483,20.3565 22.330773,37.8618 37.84375,53.3125 7.859143,-5.9969 15.783572,-11.8969 23.6875,-17.8437 13.87792,16.665 28.57477,32.6325 43.21875,48.6562 0,136.3958 0,272.7917 0,409.1875 -11.96875,0 -23.9375,0 -35.90625,0 0,-130.4167 0,-260.8333 0,-391.25 -25.934144,-22.5669 -52.726462,-46.2956 -66.1875,-78.625 -2.796735,-7.6332 -4.252023,-16.0883 -3,-24.25 l 0.34375,0.8125 z"
     id="path6-7-9-1"
     inkscape:connector-curvature="0" />
  <path
     style="fill:#000000;stroke:none"
     d="m 655.40625,1235.8125 c -27.04752,2.7505 -54.28401,17.5216 -65.56297,43.0865 -8.24925,16.0969 -5.97195,35.5964 2.18786,51.2336 13.32395,29.0979 35.82084,52.7426 57.9512,75.4858 3.86617,3.3298 8.27828,7.3489 6.45516,13.1628 0,132.7605 0,265.5209 0,398.2813 30.625,0 61.25,0 91.875,0 0,-151.2396 0,-302.4792 0,-453.7187 -38.76583,-35.448 -71.80157,-78.637 -91.34375,-127.7813 l -0.98744,0.158 -0.57506,0.092 z m -11.6875,34.5625 c 4.13393,13.5454 11.94256,26.3506 20.3125,37.1875 -2.92621,1.5507 -5.28551,5.7276 -8.75,5.375 -9.84365,-10.8233 -15.89292,-25.057 -20.03125,-39.0313 2.81058,-1.4306 5.18666,-3.4438 8.125,-4.6874 l 0.28497,0.9585 0.0588,0.1977 z m -28.125,24.7812 c 8.46162,20.2877 22.37801,37.816 37.78125,53.2813 7.88221,-5.9933 15.8277,-11.9034 23.75,-17.8437 13.87792,16.665 28.57477,32.6325 43.21875,48.6562 0,136.3958 0,272.7917 0,409.1875 -11.97917,0 -23.95833,0 -35.9375,0 0,-130.4167 0,-260.8333 0,-391.25 -25.98979,-22.7224 -53.26136,-46.6996 -66.40625,-79.375 -2.64664,-7.4666 -3.98365,-15.6039 -2.75,-23.4687 l 0.34375,0.8124 z"
     id="path6-7-4-8-3"
     inkscape:connector-curvature="0" />
  <path
     style="fill:#000000;stroke:none"
     d="m 360.125,1235.8125 c -26.54551,2.7058 -53.44161,16.9861 -64.96875,41.875 -8.65248,15.9679 -6.95778,35.8107 1.21875,51.6875 13.49514,29.6766 36.27449,53.6989 58.79677,76.6789 3.8531,3.23 7.59865,7.1258 5.98448,12.6961 0,132.7708 0,265.5417 0,398.3125 30.625,0 61.25,0 91.875,0 0,-151.2396 0,-302.4792 0,-453.7187 -38.70605,-35.3634 -71.7332,-78.5408 -91.34375,-127.7813 l -0.98744,0.158 -0.57506,0.092 z m -11.6875,34.5625 c 4.22679,13.5334 11.70214,26.2575 20.40625,37.125 -2.98952,1.4079 -5.36547,6.006 -8.90625,5.375 -9.82201,-10.8578 -15.86896,-25.0726 -19.96875,-38.9688 2.81058,-1.4306 5.18666,-3.4438 8.125,-4.6874 l 0.28497,0.9585 0.0588,0.1977 z m -28.125,24.7812 c 8.42331,20.2095 22.37017,37.8244 37.78125,53.2813 7.88221,-5.9933 15.8277,-11.9034 23.75,-17.8437 13.87792,16.665 28.57477,32.6325 43.21875,48.6562 0,136.3958 0,272.7917 0,409.1875 -11.96875,0 -23.9375,0 -35.90625,0 0,-130.4167 0,-260.8333 0,-391.25 -25.88952,-22.5266 -52.80099,-46.3819 -66.1875,-78.625 -2.79438,-7.6348 -4.26248,-16.086 -3,-24.25 l 0.34375,0.8437 z"
     id="path6-7-00-1-4"
     inkscape:connector-curvature="0" />
</svg>
