<?xml version="1.0" encoding="UTF-8" standalone="no"?>
<svg
   xmlns:dc="http://purl.org/dc/elements/1.1/"
   xmlns:cc="http://creativecommons.org/ns#"
   xmlns:rdf="http://www.w3.org/1999/02/22-rdf-syntax-ns#"
   xmlns:svg="http://www.w3.org/2000/svg"
   xmlns="http://www.w3.org/2000/svg"
   xmlns:sodipodi="http://sodipodi.sourceforge.net/DTD/sodipodi-0.dtd"
   xmlns:inkscape="http://www.inkscape.org/namespaces/inkscape"
   id="svg4140"
   version="1.1"
   inkscape:version="0.48.0 r9654"
   width="1800"
   height="1800"
   sodipodi:docname="US1M12EEXTU.svg">
  <metadata
     id="metadata4158">
    <rdf:RDF>
      <cc:Work
         rdf:about="">
        <dc:format>image/svg+xml</dc:format>
        <dc:type
           rdf:resource="http://purl.org/dc/dcmitype/StillImage" />
        <dc:title></dc:title>
      </cc:Work>
    </rdf:RDF>
  </metadata>
  <defs
     id="defs4156" />
  <sodipodi:namedview
     pagecolor="#ffffff"
     bordercolor="#666666"
     borderopacity="1"
     objecttolerance="10"
     gridtolerance="10"
     guidetolerance="10"
     inkscape:pageopacity="0"
     inkscape:pageshadow="2"
     inkscape:window-width="1290"
     inkscape:window-height="759"
     id="namedview4154"
     showgrid="false"
     inkscape:zoom="0.27480694"
     inkscape:cx="372.04724"
     inkscape:cy="856.45501"
     inkscape:window-x="0"
     inkscape:window-y="0"
     inkscape:window-maximized="0"
     inkscape:current-layer="svg4140" />
  <path
     d="m 326.01624,1042.2633 q 36.7849,0 58.5394,13.7777 l -62.9735,41.1426 62.1339,41.9823 q -25.1894,17.6328 -68.8511,17.6328 -93.2008,-4.198 -93.2008,-58.7755 0,-47.8598 92.3611,-55.4166 6.1829,-0.3539 11.991,-0.3539 z m 13.1985,666.1832 q 56.2563,0 67.1716,64.6525 l -135.1829,0 q 12.5946,-64.6525 68.0113,-64.6525 z m -17.3088,-701.9605 q -1.2108,0 -2.4228,0.016 -64.233,0.8405 -100.3378,20.9912 -36.1048,20.1515 -37.7841,69.6906 1.6792,50.3791 37.3643,70.5306 35.685,20.1511 100.3378,24.3495 l 0,461.8057 -74.7285,-70.5303 -23.5102,23.5099 83.1251,76.4078 q -67.1718,32.7464 -67.1718,119.2302 l 204.0341,0 q 0.8396,-86.4838 -66.332,-119.2302 l 83.125,-77.2472 -23.5101,-24.3496 -74.7285,73.0489 0,-462.6451 q 24.3497,-4.198 85.6438,-47.0203 l -61.2942,-47.8599 61.2941,-47.8599 q -60.1376,-42.8383 -123.1042,-42.8383 z"
     style="fill:#000000;stroke:none"
     id="path4148"
     inkscape:connector-curvature="0" />
  <path
     d="m 690.73114,1042.2633 q 36.785,0 58.5395,13.7777 l -62.9735,41.1426 62.1339,41.9823 q -25.1895,17.6328 -68.8511,17.6328 -93.2007,-4.198 -93.2007,-58.7755 0,-47.8598 92.3611,-55.4166 6.1828,-0.3539 11.9908,-0.3539 z m 13.1986,666.1832 q 56.2563,0 67.1717,64.6525 l -135.1831,0 q 12.5947,-64.6525 68.0114,-64.6525 z m -17.3088,-701.9605 q -1.2108,0 -2.4228,0.016 -64.233,0.8405 -100.3378,20.9912 -36.1047,20.1515 -37.7841,69.6906 1.6791,50.3791 37.3643,70.5306 35.685,20.1511 100.3378,24.3495 l 0,461.8057 -74.7285,-70.5303 -23.5102,23.5099 83.125,76.4078 q -67.1717,32.7463 -67.1717,119.2302 l 204.0341,0 q 0.8396,-86.4839 -66.3321,-119.2302 l 83.125,-77.2473 -23.51,-24.3496 -74.7286,73.049 0,-462.6452 q 24.3498,-4.1979 85.6439,-47.0203 l -61.2942,-47.8598 61.2942,-47.8599 q -60.1377,-42.8378 -123.1043,-42.8378 z"
     style="fill:#000000;stroke:none"
     id="path4150"
     inkscape:connector-curvature="0" />
  <path
     d="m 1055.4462,1042.2633 q 36.7849,0 58.5395,13.7777 l -62.9735,41.1426 62.1338,41.9823 q -25.1894,17.6328 -68.851,17.6328 -93.20076,-4.198 -93.20076,-58.7755 0,-47.8598 92.36106,-55.4166 6.1827,-0.3539 11.9909,-0.3539 z m 13.1985,666.1832 q 56.2563,0 67.1717,64.6525 l -135.183,0 q 12.5946,-64.6525 68.0113,-64.6525 z m -17.3088,-701.9605 q -1.2107,0 -2.4228,0.016 -64.23286,0.8405 -100.33776,20.9912 -36.1048,20.1515 -37.784,69.6906 1.6791,50.3791 37.3643,70.5306 35.6849,20.1511 100.33766,24.3495 l 0,461.8057 -74.72846,-70.5303 -23.5102,23.5099 83.12506,76.4078 q -67.17176,32.7464 -67.17176,119.2302 l 204.03416,0 q 0.8396,-86.4838 -66.3322,-119.2302 l 83.1251,-77.2472 -23.5102,-24.3496 -74.7285,73.0489 0,-462.6451 q 24.3498,-4.198 85.644,-47.0203 l -61.2943,-47.8599 61.2942,-47.8599 q -60.1377,-42.8378 -123.1043,-42.8378 z"
     style="fill:#000000;stroke:none"
     id="path4152"
     inkscape:connector-curvature="0" />
  <path
     d="m 144.07038,37.921861 q 36.78492,0 58.53943,13.77764 l -62.97349,41.142689 62.13387,41.98228 q -25.1894,17.63277 -68.85104,17.63277 -93.200775,-4.19795 -93.200775,-58.775472 0,-47.859867 92.361115,-55.416645 6.18279,-0.353891 11.99089,-0.353891 z M 157.2689,704.105 q 56.25633,0 67.1717,64.65256 l -135.183055,0 Q 101.85224,704.105 157.2689,704.105 z M 139.96009,2.144503 q -1.21091,0 -2.42288,0.016454 Q 73.304265,3.0014575 37.199435,23.152102 1.0946341,43.303091 -0.58465592,92.842158 1.0946341,143.22126 36.779625,163.3728 q 35.68496,20.1511 100.337735,24.34953 l 0,461.80561 -74.728525,-70.53024 -23.51013,23.50992 83.125035,76.40772 Q 54.831995,711.66171 54.831995,798.14559 l 204.034135,0 q 0.83965,-86.48388 -66.33211,-119.23025 l 83.12502,-77.24722 -23.51006,-24.3496 -74.72858,73.04892 0,-462.64511 q 24.34979,-4.19798 85.64394,-47.02029 L 201.77019,92.842157 263.06434,44.982289 Q 202.92671,2.1444696 139.96009,2.1444696 z"
     style="fill:#000000;stroke:none"
     id="path4142"
     inkscape:connector-curvature="0" />
  <path
     d="m 508.78535,37.921861 q 36.78496,0 58.53947,13.77764 l -62.97351,41.142689 62.13389,41.98228 q -25.18943,17.63277 -68.85102,17.63277 -93.20081,-4.19795 -93.20081,-58.775472 0,-47.859867 92.36111,-55.416645 6.18277,-0.353891 11.99087,-0.353891 z M 521.98392,704.105 q 56.25631,0 67.1717,64.65256 l -135.1831,0 Q 466.56725,704.105 521.98392,704.105 z M 504.67508,2.144503 q -1.21076,0 -2.42279,0.016454 -64.23304,0.8405005 -100.33787,20.991145 -36.1048,20.151555 -37.78409,69.690623 1.67929,50.379105 37.3643,70.530645 35.68495,20.1511 100.33771,24.34952 l 0,461.80562 -74.72852,-70.53025 -23.51011,23.50992 83.12502,76.40773 q -67.17174,32.74635 -67.17174,119.23023 l 204.03413,0 q 0.8396,-86.48388 -66.3321,-119.23023 l 83.12501,-77.24724 -23.51004,-24.34959 -74.72857,73.04893 0,-462.64512 q 24.34978,-4.19798 85.64393,-47.0203 L 566.4852,92.842724 627.77935,44.982856 Q 567.64174,2.1450366 504.67508,2.1450366 z"
     style="fill:#000000;stroke:none"
     id="path4144"
     inkscape:connector-curvature="0" />
  <path
     d="m 873.50037,37.921861 q 36.78493,0 58.53944,13.77764 l -62.97349,41.142689 62.13389,41.98228 q -25.18942,17.63277 -68.85107,17.63277 -93.20074,-4.19795 -93.20074,-58.775472 0,-47.859867 92.3611,-55.416645 6.18279,-0.353891 11.99087,-0.353891 z M 886.69889,704.105 q 56.25633,0 67.1717,64.65256 l -135.18306,0 Q 831.28224,704.105 886.69889,704.105 z M 869.39009,2.144503 q -1.21072,0 -2.42279,0.016454 -64.23294,0.8405005 -100.33778,20.991145 -36.10479,20.151555 -37.7841,69.690623 1.67919,50.379105 37.3643,70.530645 35.68494,20.1511 100.33773,24.34952 l 0,461.80562 -74.72852,-70.53025 -23.51013,23.50992 83.12503,76.40773 q -67.17175,32.74635 -67.17175,119.23023 l 204.03414,0 q 0.8396,-86.48388 -66.3321,-119.23023 l 83.12498,-77.24724 -23.51,-24.34959 -74.72863,73.04893 0,-462.64512 q 24.34984,-4.19798 85.64398,-47.0203 L 931.20021,92.842724 992.49436,44.982856 Q 932.3567,2.1450366 869.39009,2.1450366 z"
     style="fill:#000000;stroke:none"
     id="path4146"
     inkscape:connector-curvature="0" />
  <path
     d="m 1237.3922,37.921858 q 36.7849,0 58.5394,13.77764 l -62.9735,41.142689 62.1339,41.982283 q -25.1894,17.63277 -68.8511,17.63277 -93.2007,-4.19795 -93.2007,-58.775475 0,-47.859867 92.3611,-55.416645 6.1828,-0.353891 11.9909,-0.353891 z M 1250.5907,704.105 q 56.2563,0 67.1717,64.65256 l -135.1831,0 Q 1195.174,704.105 1250.5907,704.105 z M 1233.2819,2.1445 q -1.2107,0 -2.4228,0.016454 -64.2329,0.8405005 -100.3378,20.991145 -36.1048,20.151555 -37.7841,69.690623 1.6792,50.379108 37.3643,70.530648 35.685,20.1511 100.3377,24.34952 l 0,461.80562 -74.7285,-70.53025 -23.5101,23.50992 83.125,76.40773 q -67.1717,32.74635 -67.1717,119.23023 l 204.0341,0 q 0.8396,-86.48388 -66.3321,-119.23023 l 83.125,-77.24724 -23.51,-24.34959 -74.7286,73.04893 0,-462.64512 q 24.3498,-4.19798 85.6439,-47.0203 L 1295.092,92.842721 1356.3862,44.982853 Q 1296.2485,2.1450336 1233.2819,2.1450336 z"
     style="fill:#000000;stroke:none"
     id="path4146-3"
     inkscape:connector-curvature="0" />
</svg>
