<?xml version="1.0" encoding="UTF-8" standalone="no"?>
<svg
   xmlns:dc="http://purl.org/dc/elements/1.1/"
   xmlns:cc="http://creativecommons.org/ns#"
   xmlns:rdf="http://www.w3.org/1999/02/22-rdf-syntax-ns#"
   xmlns:svg="http://www.w3.org/2000/svg"
   xmlns="http://www.w3.org/2000/svg"
   xmlns:sodipodi="http://sodipodi.sourceforge.net/DTD/sodipodi-0.dtd"
   xmlns:inkscape="http://www.inkscape.org/namespaces/inkscape"
   id="svg4140"
   version="1.1"
   inkscape:version="0.48.0 r9654"
   width="1800"
   height="1800"
   sodipodi:docname="US1M12GEXTU.svg">
  <metadata
     id="metadata4158">
    <rdf:RDF>
      <cc:Work
         rdf:about="">
        <dc:format>image/svg+xml</dc:format>
        <dc:type
           rdf:resource="http://purl.org/dc/dcmitype/StillImage" />
        <dc:title></dc:title>
      </cc:Work>
    </rdf:RDF>
  </metadata>
  <defs
     id="defs4156" />
  <sodipodi:namedview
     pagecolor="#ffffff"
     bordercolor="#666666"
     borderopacity="1"
     objecttolerance="10"
     gridtolerance="10"
     guidetolerance="10"
     inkscape:pageopacity="0"
     inkscape:pageshadow="2"
     inkscape:window-width="1290"
     inkscape:window-height="759"
     id="namedview4154"
     showgrid="false"
     inkscape:zoom="0.19431785"
     inkscape:cx="372.04724"
     inkscape:cy="299.20166"
     inkscape:window-x="0"
     inkscape:window-y="0"
     inkscape:window-maximized="0"
     inkscape:current-layer="svg4140" />
  <path
     style="fill:#000000;stroke:none"
     d="m 87.15625,-1.875 c -25.969638,0.90512358 -54.339148,3.7325707 -75,20.96875 -21.8490478,20.820386 -22.1322714,59.543608 -1.96875,81.53125 17.113431,16.73146 42.271222,20.74729 65.106651,23.89379 5.196922,0.27128 11.049835,-0.21151 8.768349,6.82496 0,92.75 0,185.5 0,278.25 C 69.350833,395.70084 54.644711,381.80195 39.90625,367.9375 32.963127,374.90075 25.993502,381.83745 19,388.75 c 17.413702,16.06363 35.163305,31.94254 52.28125,48.1875 -23.9914,13.03393 -38.338482,39.40228 -39.75,66.3125 -0.416058,5.09264 -0.47166,10.20547 -0.4375,15.3125 46.427083,0 92.85417,0 139.28125,0 1.70423,-28.34621 -7.51071,-59.47021 -31.52463,-76.34208 -1.9068,-2.72838 -11.14451,-4.22763 -6.05944,-7.32557 16.70907,-15.5448 33.43858,-31.06767 50.14657,-46.6136 -6.90669,-7.19708 -13.84324,-14.36549 -20.75,-21.5625 -14.72783,14.3972 -29.45856,28.79143 -44.1875,43.1875 0,-95.0625 0,-190.125 0,-285.1875 21.40293,-6.79896 39.30823,-20.92411 57.90625,-33.15625 C 162.61837,81.254075 149.37055,70.894021 136.125,60.53125 149.33782,50.187395 162.56581,39.862938 175.8125,29.5625 150.37744,10.267866 119.40401,-2.7041027 87.15625,-1.875 z m 3.625,31.0625 c 10.73013,-0.08124 21.65754,0.885843 31.53125,5.21875 -13.29139,8.687926 -26.585084,17.372323 -39.875,26.0625 13.104397,8.964782 26.98508,18.022368 39.59375,26.9375 C 99.046939,98.551422 71.448367,96.238607 47.96875,87.75 36.819579,83.149291 28.038289,72.005557 29.28125,59.53125 30.088841,46.227614 42.908975,37.911498 54.71875,34.8125 c 11.529671,-3.77546 23.872758,-5.091528 36.0625,-5.625 z m 12,428.75 c 15.31154,-0.21277 29.87433,10.30687 34.125,25.0625 0.53627,2.69462 3.39543,7.44323 1.50001,8.65225 -25.40608,-0.0331 -50.813036,0.13966 -76.21876,-0.0897 3.274996,-15.48474 14.441163,-31.25623 31.28125,-33 3.035698,-0.44097 6.199438,-0.52874 9.3125,-0.625 z"
     id="path4142"
     inkscape:connector-curvature="0" />
  <path
     style="fill:#000000;stroke:none"
     d="m 321.9375,-1.875 c -25.96964,0.90512358 -54.33915,3.7325707 -75,20.96875 -21.84905,20.820386 -22.13227,59.543608 -1.96875,81.53125 17.11323,16.73231 42.27087,20.74832 65.10665,23.89379 5.19692,0.27128 11.04984,-0.21151 8.76835,6.82496 0,92.75 0,185.5 0,278.25 -14.71167,-13.89291 -29.41779,-27.7918 -44.15625,-41.65625 -6.94312,6.96325 -13.91275,13.89995 -20.90625,20.8125 17.4137,16.06363 35.16331,31.94254 52.28125,48.1875 -23.95102,12.95192 -38.37971,39.46945 -39.75,66.3125 -0.41606,5.09264 -0.47166,10.20547 -0.4375,15.3125 46.42708,0 92.85417,0 139.28125,0 1.77802,-28.77805 -7.86807,-60.36046 -32.5,-77.0625 -2.58866,-2.48907 -10.50625,-4.12178 -4.3203,-7.31714 16.45516,-15.30674 32.93001,-30.59235 49.3828,-45.90161 -6.90669,-7.19708 -13.84324,-14.36549 -20.75,-21.5625 -14.72783,14.3972 -29.45856,28.79143 -44.1875,43.1875 0,-95.0625 0,-190.125 0,-285.1875 21.41469,-6.78631 39.3275,-20.93231 57.90625,-33.15625 C 397.39962,81.254075 384.1518,70.894021 370.90625,60.53125 384.11907,50.187395 397.34706,39.862938 410.59375,29.5625 385.18568,10.325915 354.19854,-2.7268725 321.9375,-1.875 z m 3.625,31.0625 c 10.73013,-0.08124 21.65754,0.885843 31.53125,5.21875 -13.29139,8.687926 -26.58508,17.372323 -39.875,26.0625 13.1044,8.964782 26.98508,18.022368 39.59375,26.9375 C 333.82819,98.551422 306.22962,96.238607 282.75,87.75 271.60836,83.153269 262.8194,72.002116 264.0625,59.53125 264.87009,46.227614 277.69022,37.911498 289.5,34.8125 c 11.52967,-3.77546 23.87276,-5.091528 36.0625,-5.625 z m 10.75,428.78125 c 15.68002,-0.75587 31.04681,9.76678 35.34375,25 0.5769,2.68182 3.41656,7.46933 1.53126,8.6835 -25.40608,-0.0331 -50.81304,0.13966 -76.21876,-0.0897 3.275,-15.48474 14.44116,-31.25623 31.28125,-33 2.62642,-0.39636 5.36299,-0.47688 8.0625,-0.59375 z"
     id="path4144"
     inkscape:connector-curvature="0" />
  <path
     style="fill:#000000;stroke:none"
     d="m 556.71875,-1.875 c -25.96964,0.90512358 -54.33915,3.7325707 -75,20.96875 -21.84905,20.820386 -22.13227,59.543608 -1.96875,81.53125 17.11323,16.73231 42.27087,20.74832 65.10665,23.89379 5.19692,0.27128 11.04984,-0.21151 8.76835,6.82496 0,92.75 0,185.5 0,278.25 -14.71167,-13.89291 -29.41779,-27.7918 -44.15625,-41.65625 -6.94312,6.96325 -13.91275,13.89995 -20.90625,20.8125 17.4137,16.06363 35.16331,31.94254 52.28125,48.1875 -23.98823,13.01495 -38.35404,39.43169 -39.75,66.3125 -0.41606,5.09264 -0.47166,10.20547 -0.4375,15.3125 46.42708,0 92.85417,0 139.28125,0 1.77802,-28.77805 -7.86807,-60.36046 -32.5,-77.0625 -2.58866,-2.48907 -10.50625,-4.12178 -4.3203,-7.31714 16.45516,-15.30674 32.93001,-30.59235 49.3828,-45.90161 -6.90669,-7.19708 -13.84324,-14.36549 -20.75,-21.5625 -14.72783,14.3972 -29.45856,28.79143 -44.1875,43.1875 0,-95.0625 0,-190.125 0,-285.1875 21.41008,-6.77621 39.30902,-20.93602 57.90625,-33.15625 C 632.18087,81.254075 618.93305,70.894021 605.6875,60.53125 618.90032,50.187395 632.12831,39.862938 645.375,29.5625 619.96693,10.325915 588.97979,-2.7268725 556.71875,-1.875 z m 3.625,31.0625 c 10.73013,-0.08124 21.65754,0.885843 31.53125,5.21875 -13.29139,8.687926 -26.58508,17.372323 -39.875,26.0625 13.1044,8.964782 26.98508,18.022368 39.59375,26.9375 C 568.591,98.556869 541.04431,96.230565 517.5,87.75 506.54298,83.135941 497.85091,72.441529 498.8125,60.03125 c 0.54608,-13.644409 13.52512,-22.071981 25.46875,-25.21875 11.52967,-3.77546 23.87276,-5.091528 36.0625,-5.625 z m 12.0625,428.75 c 15.92341,-0.22233 30.6995,11.13554 34.59375,26.625 2.79732,5.43802 1.92451,8.85349 -4.99994,7.06586 -23.41658,0.0514 -46.83389,0.12508 -70.25006,-0.0659 3.275,-15.48474 14.44116,-31.25623 31.28125,-33 3.05609,-0.44348 6.24125,-0.53111 9.375,-0.625 z"
     id="path4146"
     inkscape:connector-curvature="0" />
  <path
     style="fill:#000000;stroke:none"
     d="m 87.15625,647 c -26.382767,1.01372 -55.423251,3.71406 -75.9375,21.90625 -20.9052034,20.99198 -20.9212014,58.90018 -1.03125,80.59375 16.797402,16.4991 41.61767,20.59617 64.112767,23.78336 4.472875,0.95356 12.099112,-1.14472 9.762233,5.93539 0,93.08333 0,186.16667 0,279.25005 -14.711667,-13.893 -29.417789,-27.7919 -44.15625,-41.6563 -6.943123,6.9632 -13.912748,13.9 -20.90625,20.8125 17.418883,16.0478 35.131827,31.9546 52.28125,48.1562 -23.727273,12.9597 -38.164908,38.9813 -39.6875,65.6876 -0.51346,5.3058 -0.522213,10.6429 -0.5,15.9687 46.427083,0 92.85417,0 139.28125,0 1.77788,-28.7628 -7.90103,-60.5013 -32.59375,-77.0937 -3.39166,-2.6534 -10.39504,-4.4847 -3.49412,-7.9668 16.211,-15.0798 32.44188,-30.1383 48.65037,-45.2208 -6.90669,-7.197 -13.84324,-14.3654 -20.75,-21.5624 -14.72783,14.3972 -29.45856,28.7914 -44.1875,43.1874 0,-95.06245 0,-190.12495 0,-285.18745 21.41469,-6.78631 39.3275,-20.93231 57.90625,-33.15625 C 162.61837,730.12907 149.37055,719.76902 136.125,709.40625 149.33782,699.0624 162.56581,688.73794 175.8125,678.4375 150.40855,659.18552 119.39598,646.15595 87.15625,647 z m 3.625,31.0625 c 10.73287,-0.0842 21.64763,0.88632 31.53125,5.21875 -13.29139,8.68793 -26.585084,17.37232 -39.875,26.0625 13.104397,8.96478 26.98508,18.02237 39.59375,26.9375 -23.011224,11.14403 -50.551791,8.8442 -74.0625,0.34375 C 36.979729,732.06169 28.199852,721.12978 29.25,708.84375 c 0.62821,-13.8506 14.087605,-22.42702 26.34375,-25.4375 11.397433,-3.54113 23.248432,-4.85017 35.1875,-5.34375 z M 101.5,1106.8438 c 15.36949,-0.7045 30.51539,9.2974 35.0625,24.125 1.19805,3.1114 2.13428,6.3203 2.84375,9.5624 -25.7394,-0.046 -51.479697,0.1413 -77.21875,-0.094 3.324036,-15.9181 15.16835,-32.077 32.53125,-33.125 2.24777,-0.3211 4.516523,-0.3642 6.78125,-0.4687 z"
     id="path4142-8"
     inkscape:connector-curvature="0" />
  <path
     style="fill:#000000;stroke:none"
     d="m 321.9375,647 c -26.38277,1.01372 -55.42325,3.71406 -75.9375,21.90625 -20.9052,20.99198 -20.9212,58.90018 -1.03125,80.59375 16.7974,16.4991 41.61767,20.59617 64.11277,23.78336 4.47287,0.95356 12.09911,-1.14472 9.76223,5.93539 0,93.08333 0,186.16667 0,279.25005 -14.71167,-13.893 -29.41779,-27.7919 -44.15625,-41.6563 -6.94312,6.9632 -13.91275,13.9 -20.90625,20.8125 17.41888,16.0478 35.13183,31.9546 52.28125,48.1562 -23.61384,12.9131 -38.04658,38.7444 -39.65304,65.3084 -0.54262,5.4308 -0.55995,10.8953 -0.53446,16.3479 46.42708,0 92.85417,0 139.28125,0 1.77788,-28.7628 -7.90103,-60.5013 -32.59375,-77.0937 -3.39166,-2.6534 -10.39504,-4.4847 -3.49412,-7.9668 16.211,-15.0798 32.44188,-30.1383 48.65037,-45.2208 -6.90669,-7.197 -13.84324,-14.3654 -20.75,-21.5624 -14.72783,14.3972 -29.45856,28.7914 -44.1875,43.1874 0,-95.06245 0,-190.12495 0,-285.18745 21.41469,-6.78631 39.3275,-20.93231 57.90625,-33.15625 -13.28788,-10.30843 -26.5357,-20.66848 -39.78125,-31.03125 13.21282,-10.34385 26.44081,-20.66831 39.6875,-30.96875 C 385.1898,659.18552 354.17723,646.15595 321.9375,647 z m 3.625,31.0625 c 10.73287,-0.0842 21.64763,0.88632 31.53125,5.21875 -13.29139,8.68793 -26.58508,17.37232 -39.875,26.0625 13.1044,8.96478 26.98508,18.02237 39.59375,26.9375 -23.0059,11.15226 -50.59154,8.83215 -74.0625,0.34375 -10.99737,-4.55776 -19.76557,-15.50173 -18.71875,-27.78125 0.62821,-13.8506 14.08761,-22.42702 26.34375,-25.4375 11.39743,-3.54113 23.24843,-4.85017 35.1875,-5.34375 z m 10.71875,428.7813 c 15.4359,-0.6983 30.50931,9.3154 35.0625,24.125 1.19805,3.1114 2.13428,6.3203 2.84375,9.5624 -25.7394,-0.046 -51.4797,0.1413 -77.21875,-0.094 3.32404,-15.9181 15.16835,-32.077 32.53125,-33.125 2.24777,-0.3211 4.51652,-0.3642 6.78125,-0.4687 z"
     id="path4144-7"
     inkscape:connector-curvature="0" />
  <path
     style="fill:#000000;stroke:none"
     d="m 556.71875,647 c -26.38277,1.01372 -55.42325,3.71406 -75.9375,21.90625 -20.9052,20.99198 -20.9212,58.90018 -1.03125,80.59375 16.7974,16.4991 41.61767,20.59617 64.11277,23.78336 4.47287,0.95356 12.09911,-1.14472 9.76223,5.93539 0,93.08333 0,186.16667 0,279.25005 -14.71167,-13.893 -29.41779,-27.7919 -44.15625,-41.6563 -6.94312,6.9632 -13.91275,13.9 -20.90625,20.8125 17.41888,16.0478 35.13183,31.9546 52.28125,48.1562 -23.73434,12.9632 -38.1617,39.0026 -39.6875,65.6876 -0.51346,5.3058 -0.52221,10.6429 -0.5,15.9687 46.42708,0 92.85417,0 139.28125,0 1.77788,-28.7628 -7.90103,-60.5013 -32.59375,-77.0937 -3.39166,-2.6534 -10.39504,-4.4847 -3.49412,-7.9668 16.211,-15.0798 32.44188,-30.1383 48.65037,-45.2208 -6.90669,-7.197 -13.84324,-14.3654 -20.75,-21.5624 -14.72783,14.3972 -29.45856,28.7914 -44.1875,43.1874 0,-95.06245 0,-190.12495 0,-285.18745 21.41008,-6.77621 39.30902,-20.93602 57.90625,-33.15625 C 632.18087,730.12907 618.93305,719.76902 605.6875,709.40625 618.90032,699.0624 632.12831,688.73794 645.375,678.4375 619.97105,659.18552 588.95848,646.15595 556.71875,647 z m 3.625,31.0625 c 10.73287,-0.0842 21.64763,0.88632 31.53125,5.21875 -13.29139,8.68793 -26.58508,17.37232 -39.875,26.0625 13.1044,8.96478 26.98508,18.02237 39.59375,26.9375 -23.00103,11.13826 -50.52931,8.85196 -74.03125,0.34375 -11.04952,-4.5485 -19.74005,-15.41264 -18.75,-27.78125 0.66021,-13.91721 14.06509,-22.37142 26.34375,-25.4375 11.39743,-3.54113 23.24843,-4.85017 35.1875,-5.34375 z m 10.71875,428.7813 c 15.43165,-0.6914 30.51126,9.3111 35.0625,24.125 1.19805,3.1114 2.13428,6.3203 2.84375,9.5624 -25.7394,-0.046 -51.4797,0.1413 -77.21875,-0.094 3.32404,-15.9181 15.16835,-32.077 32.53125,-33.125 2.24777,-0.3211 4.51652,-0.3642 6.78125,-0.4687 z"
     id="path4146-4"
     inkscape:connector-curvature="0" />
  <path
     style="fill:#000000;stroke:none"
     d="m 87.15625,1289.6875 c -26.382767,1.0137 -55.423251,3.7141 -75.9375,21.9063 -20.9250861,20.9882 -20.9013569,58.9186 -1.03125,80.5937 16.796436,16.5018 41.618472,20.5929 64.112767,23.7834 4.472875,0.9535 12.099112,-1.1448 9.762233,5.9353 0,93.0834 0,186.1667 0,279.25 -14.711667,-13.8929 -29.417789,-27.7918 -44.15625,-41.6562 -6.943123,6.9632 -13.912748,13.9 -20.90625,20.8125 17.413702,16.0636 35.163305,31.9425 52.28125,48.1875 -23.951023,12.9519 -38.379707,39.4694 -39.75,66.3125 -0.416058,5.0926 -0.47166,10.2055 -0.4375,15.3125 46.427083,0 92.85417,0 139.28125,0 1.7484,-28.8431 -7.82192,-60.3403 -32.5625,-77.0938 -4.52842,-2.7253 -9.97182,-4.9315 -2.79294,-8.6475 15.96683,-14.8529 31.95374,-29.6843 47.91794,-44.5399 -6.90669,-7.1971 -13.84324,-14.3655 -20.75,-21.5626 -14.72783,14.3973 -29.45856,28.7915 -44.1875,43.1876 0,-95.0625 0,-190.1251 0,-285.1876 21.41469,-6.7863 39.3275,-20.9323 57.90625,-33.1562 -13.28788,-10.3084 -26.5357,-20.6685 -39.78125,-31.0312 13.21282,-10.3439 26.44081,-20.6684 39.6875,-30.9688 -25.40395,-19.252 -56.41652,-32.2816 -88.65625,-31.4375 z m 3.625,31.0625 c 10.73855,-0.111 21.62392,0.9486 31.5625,5.1875 -13.30191,8.6982 -26.605253,17.3942 -39.90625,26.0937 13.104397,8.9648 26.98508,18.0224 39.59375,26.9376 -23.011224,11.144 -50.551791,8.8442 -74.0625,0.3437 -10.956484,-4.5708 -19.726351,-15.3904 -18.71875,-27.7187 0.507642,-13.5307 13.501008,-22.1095 25.46875,-25.2188 11.529671,-3.7755 23.872758,-5.0915 36.0625,-5.625 z M 101.5,1749.5312 c 15.36949,-0.7044 30.51539,9.2975 35.0625,24.125 1.19805,3.1115 2.13428,6.3204 2.84375,9.5626 -25.73944,-0.07 -51.479684,0.1351 -77.21875,-0.094 3.324036,-15.9181 15.16835,-32.077 32.53125,-33.125 2.24777,-0.3211 4.516523,-0.3642 6.78125,-0.4688 z"
     id="path4142-8-2"
     inkscape:connector-curvature="0" />
  <path
     style="fill:#000000;stroke:none"
     d="m 321.9375,1289.6875 c -26.38277,1.0137 -55.42325,3.7141 -75.9375,21.9063 -20.91306,20.9982 -20.9157,58.8954 -1.03125,80.5937 16.7974,16.4991 41.61767,20.5962 64.11277,23.7834 4.47287,0.9535 12.09911,-1.1448 9.76223,5.9353 0,93.0834 0,186.1667 0,279.25 -14.71167,-13.8929 -29.41779,-27.7918 -44.15625,-41.6562 -6.94312,6.9632 -13.91275,13.9 -20.90625,20.8125 17.41888,16.0478 35.13183,31.9546 52.28125,48.1563 -23.62094,12.9032 -38.0506,38.7611 -39.65304,65.3083 -0.54262,5.4308 -0.55995,10.8953 -0.53446,16.3479 46.42708,0 92.85417,0 139.28125,0 1.77459,-28.7582 -7.89464,-60.512 -32.59375,-77.0938 -3.39166,-2.6533 -10.39504,-4.4846 -3.49412,-7.9667 16.211,-15.0798 32.44188,-30.1383 48.65037,-45.2207 -6.90669,-7.1971 -13.84324,-14.3655 -20.75,-21.5626 -14.72783,14.3973 -29.45856,28.7915 -44.1875,43.1876 0,-95.0625 0,-190.1251 0,-285.1876 21.41469,-6.7863 39.3275,-20.9323 57.90625,-33.1562 -13.28788,-10.3084 -26.5357,-20.6685 -39.78125,-31.0312 13.21282,-10.3439 26.44081,-20.6684 39.6875,-30.9688 -25.40395,-19.252 -56.41652,-32.2816 -88.65625,-31.4375 z m 3.625,31.0625 c 10.73855,-0.111 21.62392,0.9486 31.5625,5.1875 -13.30191,8.6982 -26.60525,17.3942 -39.90625,26.0937 13.1044,8.9648 26.98508,18.0224 39.59375,26.9376 -23.0059,11.1522 -50.59154,8.8321 -74.0625,0.3437 -10.96483,-4.5652 -19.72304,-15.3969 -18.71875,-27.7187 0.50764,-13.5307 13.50101,-22.1095 25.46875,-25.2188 11.52967,-3.7755 23.87276,-5.0915 36.0625,-5.625 z m 10.71875,428.7812 c 15.4359,-0.6982 30.50931,9.3155 35.0625,24.125 1.19805,3.1115 2.13428,6.3204 2.84375,9.5626 -25.73944,-0.07 -51.47968,0.1351 -77.21875,-0.094 3.32404,-15.9181 15.16835,-32.077 32.53125,-33.125 2.24777,-0.3211 4.51652,-0.3642 6.78125,-0.4688 z"
     id="path4144-7-0"
     inkscape:connector-curvature="0" />
  <path
     style="fill:#000000;stroke:none"
     d="m 556.71875,1289.6875 c -26.38277,1.0137 -55.42325,3.7141 -75.9375,21.9063 -20.91306,20.9982 -20.9157,58.8954 -1.03125,80.5937 16.7974,16.4991 41.61767,20.5962 64.11277,23.7834 4.47287,0.9535 12.09911,-1.1448 9.76223,5.9353 0,93.0834 0,186.1667 0,279.25 -14.71167,-13.8929 -29.41779,-27.7918 -44.15625,-41.6562 -6.94312,6.9632 -13.91275,13.9 -20.90625,20.8125 17.41888,16.0478 35.13183,31.9546 52.28125,48.1563 -23.71309,12.9322 -38.18239,39.0016 -39.6875,65.6874 -0.51346,5.3059 -0.52221,10.643 -0.5,15.9688 46.42708,0 92.85417,0 139.28125,0 1.77459,-28.7582 -7.89464,-60.512 -32.59375,-77.0938 -3.39166,-2.6533 -10.39504,-4.4846 -3.49412,-7.9667 16.211,-15.0798 32.44188,-30.1383 48.65037,-45.2207 -6.90669,-7.1971 -13.84324,-14.3655 -20.75,-21.5626 -14.72783,14.3973 -29.45856,28.7915 -44.1875,43.1876 0,-95.0625 0,-190.1251 0,-285.1876 21.41008,-6.7762 39.30902,-20.936 57.90625,-33.1562 -13.28788,-10.3084 -26.5357,-20.6685 -39.78125,-31.0312 13.21282,-10.3439 26.44081,-20.6684 39.6875,-30.9688 -25.40395,-19.252 -56.41652,-32.2816 -88.65625,-31.4375 z m 3.625,31.0625 c 10.73855,-0.111 21.62392,0.9486 31.5625,5.1875 -13.30191,8.6982 -26.60525,17.3942 -39.90625,26.0937 13.1044,8.9648 26.98508,18.0224 39.59375,26.9376 -23.00103,11.1382 -50.52931,8.8519 -74.03125,0.3437 -11.19222,-4.5981 -19.90486,-15.6471 -18.71875,-28.2187 0.88665,-13.8474 14.30229,-21.8671 26.38385,-25.0419 11.25957,-3.4937 23.252,-4.7993 35.11615,-5.3019 z m 10.71875,428.7812 c 15.43165,-0.6913 30.51126,9.3112 35.0625,24.125 1.19805,3.1115 2.13428,6.3204 2.84375,9.5626 -25.73944,-0.07 -51.47968,0.1351 -77.21875,-0.094 3.32404,-15.9181 15.16835,-32.077 32.53125,-33.125 2.24777,-0.3211 4.51652,-0.3642 6.78125,-0.4688 z"
     id="path4146-4-1"
     inkscape:connector-curvature="0" />
</svg>
