<?xml version="1.0" encoding="UTF-8" standalone="no"?>
<svg
   xmlns:dc="http://purl.org/dc/elements/1.1/"
   xmlns:cc="http://creativecommons.org/ns#"
   xmlns:rdf="http://www.w3.org/1999/02/22-rdf-syntax-ns#"
   xmlns:svg="http://www.w3.org/2000/svg"
   xmlns="http://www.w3.org/2000/svg"
   xmlns:sodipodi="http://sodipodi.sourceforge.net/DTD/sodipodi-0.dtd"
   xmlns:inkscape="http://www.inkscape.org/namespaces/inkscape"
   id="svg4140"
   version="1.1"
   inkscape:version="0.48.0 r9654"
   width="1800"
   height="1800"
   sodipodi:docname="US1M12EEXTU.svg">
  <metadata
     id="metadata4158">
    <rdf:RDF>
      <cc:Work
         rdf:about="">
        <dc:format>image/svg+xml</dc:format>
        <dc:type
           rdf:resource="http://purl.org/dc/dcmitype/StillImage" />
        <dc:title></dc:title>
      </cc:Work>
    </rdf:RDF>
  </metadata>
  <defs
     id="defs4156" />
  <sodipodi:namedview
     pagecolor="#ffffff"
     bordercolor="#666666"
     borderopacity="1"
     objecttolerance="10"
     gridtolerance="10"
     guidetolerance="10"
     inkscape:pageopacity="0"
     inkscape:pageshadow="2"
     inkscape:window-width="1290"
     inkscape:window-height="759"
     id="namedview4154"
     showgrid="false"
     inkscape:zoom="0.27480694"
     inkscape:cx="372.04724"
     inkscape:cy="1059.0227"
     inkscape:window-x="0"
     inkscape:window-y="0"
     inkscape:window-maximized="0"
     inkscape:current-layer="svg4140" />
  <path
     d="m 144.65504,37.921861 q 36.78492,0 58.53943,13.77764 l -62.97349,41.142689 62.13387,41.98228 q -25.1894,17.63277 -68.85104,17.63277 -93.200777,-4.19795 -93.200777,-58.775472 0,-47.859867 92.361117,-55.416645 6.18279,-0.353891 11.99089,-0.353891 z M 157.85356,704.105 q 56.25633,0 67.1717,64.65256 l -135.183057,0 Q 102.4369,704.105 157.85356,704.105 z M 140.54475,2.144503 q -1.21091,0 -2.42288,0.016454 Q 73.888923,3.0014575 37.784093,23.152102 1.6792926,43.303091 2.5709866e-6,92.842158 1.6792926,143.22126 37.364283,163.3728 q 35.68496,20.1511 100.337737,24.34953 l 0,461.80561 -74.728527,-70.53024 -23.51013,23.50992 83.125037,76.40772 Q 55.416653,711.66171 55.416653,798.14559 l 204.034137,0 q 0.83965,-86.48388 -66.33211,-119.23025 l 83.12502,-77.24722 -23.51006,-24.3496 -74.72858,73.04892 0,-462.64511 q 24.34979,-4.19798 85.64394,-47.02029 L 202.35485,92.842157 263.649,44.982289 Q 203.51137,2.1444696 140.54475,2.1444696 z"
     style="fill:#000000;stroke:none"
     id="path4142"
     inkscape:connector-curvature="0" />
  <path
     d="m 509.37001,37.921861 q 36.78496,0 58.53947,13.77764 l -62.97351,41.142689 62.13389,41.98228 q -25.18943,17.63277 -68.85102,17.63277 -93.20081,-4.19795 -93.20081,-58.775472 0,-47.859867 92.36111,-55.416645 6.18277,-0.353891 11.99087,-0.353891 z M 522.56858,704.105 q 56.25631,0 67.1717,64.65256 l -135.1831,0 Q 467.15191,704.105 522.56858,704.105 z M 505.25974,2.144503 q -1.21076,0 -2.42279,0.016454 -64.23304,0.8405005 -100.33787,20.991145 -36.1048,20.151555 -37.78409,69.690623 1.67929,50.379105 37.3643,70.530645 35.68495,20.1511 100.33771,24.34952 l 0,461.80562 -74.72852,-70.53025 -23.51011,23.50992 83.12502,76.40773 q -67.17174,32.74635 -67.17174,119.23023 l 204.03413,0 q 0.8396,-86.48388 -66.3321,-119.23023 l 83.12501,-77.24724 -23.51004,-24.34959 -74.72857,73.04893 0,-462.64512 q 24.34978,-4.19798 85.64393,-47.0203 L 567.06986,92.842724 628.36401,44.982856 Q 568.2264,2.1450366 505.25974,2.1450366 z"
     style="fill:#000000;stroke:none"
     id="path4144"
     inkscape:connector-curvature="0" />
  <path
     d="m 874.08503,37.921861 q 36.78493,0 58.53944,13.77764 l -62.97349,41.142689 62.13389,41.98228 q -25.18942,17.63277 -68.85107,17.63277 -93.20074,-4.19795 -93.20074,-58.775472 0,-47.859867 92.3611,-55.416645 6.18279,-0.353891 11.99087,-0.353891 z M 887.28355,704.105 q 56.25633,0 67.1717,64.65256 l -135.18306,0 Q 831.8669,704.105 887.28355,704.105 z M 869.97475,2.144503 q -1.21072,0 -2.42279,0.016454 -64.23294,0.8405005 -100.33778,20.991145 -36.10479,20.151555 -37.7841,69.690623 1.67919,50.379105 37.3643,70.530645 35.68494,20.1511 100.33773,24.34952 l 0,461.80562 -74.72852,-70.53025 -23.51013,23.50992 83.12503,76.40773 q -67.17175,32.74635 -67.17175,119.23023 l 204.03414,0 q 0.8396,-86.48388 -66.3321,-119.23023 l 83.12502,-77.24724 -23.51004,-24.34959 -74.72863,73.04893 0,-462.64512 q 24.34984,-4.19798 85.64398,-47.0203 L 931.78487,92.842724 993.07902,44.982856 Q 932.94136,2.1450366 869.97475,2.1450366 z"
     style="fill:#000000;stroke:none"
     id="path4146"
     inkscape:connector-curvature="0" />
  <path
     d="m 143.48569,1042.2633 q 36.7849,0 58.5394,13.7777 l -62.9735,41.1426 62.1339,41.9823 q -25.1894,17.6328 -68.8511,17.6328 -93.200804,-4.198 -93.200804,-58.7755 0,-47.8598 92.361104,-55.4166 6.1829,-0.3539 11.991,-0.3539 z m 13.1985,666.1832 q 56.2563,0 67.1716,64.6525 l -135.182904,0 q 12.594604,-64.6525 68.011304,-64.6525 z m -17.3088,-701.9605 q -1.2108,0 -2.4228,0.016 -64.233004,0.8405 -100.337804,20.9912 -36.10480038,20.1515 -37.7841004,69.6906 1.67920002,50.3791 37.3643004,70.5306 35.685,20.1511 100.337804,24.3495 l 0,461.8057 -74.728504,-70.5303 -23.5102,23.5099 83.125104,76.4078 q -67.171804,32.7464 -67.171804,119.2302 l 204.034104,0 q 0.8396,-86.4838 -66.332,-119.2302 l 83.125,-77.2472 -23.5101,-24.3496 -74.7285,73.0489 0,-462.6451 q 24.3497,-4.198 85.6438,-47.0203 l -61.2942,-47.8599 61.2941,-47.8599 q -60.1376,-42.8383 -123.1042,-42.8383 z"
     style="fill:#000000;stroke:none"
     id="path4148"
     inkscape:connector-curvature="0" />
  <path
     d="m 508.20059,1042.2633 q 36.785,0 58.5395,13.7777 l -62.9735,41.1426 62.1339,41.9823 q -25.1895,17.6328 -68.8511,17.6328 -93.2007,-4.198 -93.2007,-58.7755 0,-47.8598 92.3611,-55.4166 6.1828,-0.3539 11.9908,-0.3539 z m 13.1986,666.1832 q 56.2563,0 67.1717,64.6525 l -135.1831,0 q 12.5947,-64.6525 68.0114,-64.6525 z m -17.3088,-701.9605 q -1.2108,0 -2.4228,0.016 -64.233,0.8405 -100.3378,20.9912 -36.1047,20.1515 -37.7841,69.6906 1.6791,50.3791 37.3643,70.5306 35.685,20.1511 100.3378,24.3495 l 0,461.8057 -74.7285,-70.5303 -23.5102,23.5099 83.125,76.4078 q -67.1717,32.7463 -67.1717,119.2302 l 204.0341,0 q 0.8396,-86.4839 -66.3321,-119.2302 l 83.125,-77.2473 -23.51,-24.3496 -74.7286,73.049 0,-462.6452 q 24.3498,-4.1979 85.6439,-47.0203 l -61.2942,-47.8598 61.2942,-47.8599 q -60.1377,-42.8378 -123.1043,-42.8378 z"
     style="fill:#000000;stroke:none"
     id="path4150"
     inkscape:connector-curvature="0" />
  <path
     d="m 872.91569,1042.2633 q 36.7849,0 58.5395,13.7777 l -62.9735,41.1426 62.1338,41.9823 q -25.1894,17.6328 -68.851,17.6328 -93.2008,-4.198 -93.2008,-58.7755 0,-47.8598 92.3611,-55.4166 6.1827,-0.3539 11.9909,-0.3539 z m 13.1985,666.1832 q 56.2563,0 67.1717,64.6525 l -135.183,0 q 12.5946,-64.6525 68.0113,-64.6525 z m -17.3088,-701.9605 q -1.2107,0 -2.4228,0.016 -64.2329,0.8405 -100.3378,20.9912 -36.1048,20.1515 -37.784,69.6906 1.6791,50.3791 37.3643,70.5306 35.6849,20.1511 100.3377,24.3495 l 0,461.8057 -74.7285,-70.5303 -23.5102,23.5099 83.1251,76.4078 q -67.1718,32.7464 -67.1718,119.2302 l 204.0342,0 q 0.8396,-86.4838 -66.3322,-119.2302 l 83.12511,-77.2472 -23.51021,-24.3496 -74.7285,73.0489 0,-462.6451 q 24.3498,-4.198 85.644,-47.0203 l -61.2943,-47.8599 61.2942,-47.8599 q -60.1377,-42.8378 -123.1043,-42.8378 z"
     style="fill:#000000;stroke:none"
     id="path4152"
     inkscape:connector-curvature="0" />
</svg>
