<?xml version="1.0" encoding="UTF-8" standalone="no"?>
<svg
   xmlns:dc="http://purl.org/dc/elements/1.1/"
   xmlns:cc="http://creativecommons.org/ns#"
   xmlns:rdf="http://www.w3.org/1999/02/22-rdf-syntax-ns#"
   xmlns:svg="http://www.w3.org/2000/svg"
   xmlns="http://www.w3.org/2000/svg"
   xmlns:sodipodi="http://sodipodi.sourceforge.net/DTD/sodipodi-0.dtd"
   xmlns:inkscape="http://www.inkscape.org/namespaces/inkscape"
   id="svg2"
   version="1.1"
   inkscape:version="0.48.0 r9654"
   width="1800"
   height="1800"
   sodipodi:docname="US1V20GEXTU.svg">
  <metadata
     id="metadata18">
    <rdf:RDF>
      <cc:Work
         rdf:about="">
        <dc:format>image/svg+xml</dc:format>
        <dc:type
           rdf:resource="http://purl.org/dc/dcmitype/StillImage" />
        <dc:title></dc:title>
      </cc:Work>
    </rdf:RDF>
  </metadata>
  <defs
     id="defs16" />
  <sodipodi:namedview
     pagecolor="#ffffff"
     bordercolor="#666666"
     borderopacity="1"
     objecttolerance="10"
     gridtolerance="10"
     guidetolerance="10"
     inkscape:pageopacity="0"
     inkscape:pageshadow="2"
     inkscape:window-width="991"
     inkscape:window-height="553"
     id="namedview14"
     showgrid="false"
     inkscape:zoom="0.069622013"
     inkscape:cx="876.02286"
     inkscape:cy="526.18109"
     inkscape:window-x="79"
     inkscape:window-y="70"
     inkscape:window-maximized="0"
     inkscape:current-layer="svg2" />
  <path
     style="fill:#000000;stroke:none"
     d="M 221.9375,-10.28125 C 162.55636,-9.7682791 100.74885,8.0767238 58.193126,51.076038 19.941632,89.045393 2.1603366,144.64841 5.3125,198.125 c 0,99.59375 0,199.1875 0,298.78125 19.21875,0 38.4375,0 57.65625,0 0.465752,-109.95559 -0.999425,-219.93618 0.84375,-329.875 3.58515,-41.26201 29.474321,-80.139521 66.5625,-98.40625 43.15895,-22.835367 94.33562,-25.162242 141.75,-17.53125 41.06845,7.582046 81.94328,29.459345 102.375,67.125 15.40945,27.51153 17.11623,60.02938 15.78125,90.96875 0,95.90625 0,191.8125 0,287.71875 19.21875,0 38.4375,0 57.65625,0 C 447.45154,385.71181 449.01823,274.48711 447.03125,163.3125 441.58921,101.65663 403.3147,43.990487 347.6485,16.498901 309.14221,-3.5223096 265.07072,-10.698752 221.9375,-10.28125 z"
     id="path4"
     inkscape:connector-curvature="0" />
  <path
     style="fill:#000000;stroke:none"
     d="M 720.3125,-10.28125 C 662.45669,-9.7345764 602.24593,7.0807503 559.86875,47.907499 519.01124,86.195632 500.28934,143.82773 503.6875,199.09375 c 0,99.27083 0,198.54167 0,297.8125 19.21875,0 38.4375,0 57.65625,0 0.46575,-109.95559 -0.99943,-219.93618 0.84375,-329.875 3.67198,-42.15067 30.4987,-81.613091 68.9375,-99.59375 44.65328,-22.675554 97.66001,-24.251599 146.15625,-14.96875 41.07102,8.986535 81.19517,33.339363 99.11559,72.62249 12.87369,27.17455 13.21539,57.89207 12.25941,87.37751 0,94.8125 0,189.625 0,284.4375 19.21875,0 38.4375,0 57.65625,0 -0.48548,-111.22572 1.08001,-222.48143 -0.90625,-333.6875 C 940.00952,101.91136 901.83109,44.349565 846.84375,16.90625 808.14402,-3.4031725 763.74189,-10.706446 720.3125,-10.28125 z"
     id="path6"
     inkscape:connector-curvature="0" />
  <path
     style="fill:#000000;stroke:none"
     d="m 1218.6875,-10.28125 c -57.8089,0.5158292 -117.9454,17.3954131 -160.375,58.0625 -40.4332,38.019851 -59.53223,95.20007 -56.2187,150.21875 0,99.63542 -10e-5,199.27083 0,298.90625 19.2187,0 38.4375,0 57.6562,0 0.4655,-110.12226 -0.999,-220.26951 0.8438,-330.375 3.9455,-42.28453 30.9153,-81.688574 69.7522,-99.530059 44.2279,-22.107028 96.1176,-23.683516 144.0059,-14.787494 41.0723,8.580753 81.7778,32.791899 99.9293,71.935543 13.2225,27.01428 13.7267,57.75322 12.75,87.31951 0,95.14583 1e-4,190.29167 0,285.4375 19.2188,0 38.4376,0 57.6563,0 -0.4862,-111.18399 1.0811,-222.39851 -0.9063,-333.5625 -5.3447,-61.0225 -42.9937,-118.246464 -97.6874,-146 -38.9014,-20.6240708 -83.6406,-28.042632 -127.4063,-27.625 z"
     id="path8"
     inkscape:connector-curvature="0" />
  <path
     style="fill:#000000;stroke:none"
     d="M 221.9375,651.9375 C 162.55636,652.45047 100.74885,670.29547 58.193126,713.29479 19.941632,751.26414 2.1603366,806.86716 5.3125,860.34375 c 0,99.59375 0,199.18745 0,298.78125 19.21875,0 38.4375,0 57.65625,0 0.465752,-109.9556 -0.999425,-219.93618 0.84375,-329.875 3.708177,-42.0424 30.207321,-81.2545 68.53125,-99.40625 43.86175,-22.39836 95.6062,-24.3097 143.38497,-15.79479 43.53995,8.60029 86.64335,34.68367 103.92753,77.07604 11.06068,25.56478 11.57038,53.87158 10.625,81.28125 0,95.57292 0,191.14585 0,286.71875 19.21875,0 38.4375,0 57.65625,0 -0.48596,-111.1944 1.08073,-222.41914 -0.90625,-333.59375 C 441.58921,763.87538 403.3147,706.20924 347.6485,678.71765 309.14221,658.69644 265.07072,651.52 221.9375,651.9375 z"
     id="path4-5"
     inkscape:connector-curvature="0" />
  <path
     style="fill:#000000;stroke:none"
     d="m 720.3125,651.9375 c -57.85581,0.54667 -118.06657,17.362 -160.44375,58.18875 -40.85751,38.28813 -59.57941,95.92023 -56.18125,151.18625 0,99.27083 0,198.5417 0,297.8125 19.21875,0 38.4375,0 57.65625,0 0.46575,-109.9556 -0.99943,-219.93618 0.84375,-329.875 3.61288,-41.65445 29.97251,-80.87525 67.63047,-98.9116 44.36171,-23.05815 96.91308,-24.87782 145.30703,-16.11965 40.3428,8.37394 80.06354,31.2366 99.3125,69.0625 14.42783,27.72357 15.37104,59.77328 14.21875,90.40625 0,95.14583 0,190.2917 0,285.4375 19.21875,0 38.4375,0 57.65625,0 -0.48548,-111.2257 1.08001,-222.48143 -0.90625,-333.6875 C 940.00952,764.13011 901.83109,706.56831 846.84375,679.125 808.14402,658.81558 763.74189,651.5123 720.3125,651.9375 z"
     id="path6-9"
     inkscape:connector-curvature="0" />
  <path
     style="fill:#000000;stroke:none"
     d="m 1218.6875,651.9375 c -57.8089,0.51583 -117.9454,17.39541 -160.375,58.0625 -40.4332,38.01985 -59.53223,95.20007 -56.2187,150.21875 0,99.63542 -10e-5,199.27085 0,298.90625 19.2187,0 38.4375,0 57.6562,0 0.4655,-110.1223 -0.999,-220.26951 0.8438,-330.375 3.9455,-42.28453 30.9153,-81.68857 69.7522,-99.53006 44.2279,-22.10703 96.1176,-23.68352 144.0059,-14.78749 41.0723,8.58075 81.7778,32.7919 99.9293,71.93554 13.2225,27.01428 13.7267,57.75322 12.75,87.31951 0,95.14583 1e-4,190.2917 0,285.4375 19.2188,0 38.4376,0 57.6563,0 -0.4862,-111.184 1.0811,-222.39851 -0.9063,-333.5625 -5.3447,-61.0225 -42.9937,-118.24646 -97.6874,-146 -38.9014,-20.62407 -83.6406,-28.04263 -127.4063,-27.625 z"
     id="path8-54"
     inkscape:connector-curvature="0" />
  <path
     style="fill:#000000;stroke:none"
     d="m 221.9375,1314.1562 c -59.38114,0.513 -121.18865,18.358 -163.744374,61.3573 -38.251494,37.9694 -56.0327894,93.5724 -52.880626,147.049 0,99.5937 0,199.1875 0,298.7813 19.21875,-1e-4 38.4375,0 57.65625,0 0.465752,-109.9556 -0.999425,-219.9362 0.84375,-329.875 3.586486,-41.4341 29.7697,-80.657 67.25589,-98.7234 45.21532,-23.5682 99.10013,-25.3251 148.52536,-15.6829 41.3018,9.1317 81.53691,34.0329 99.0625,73.8437 11.98728,26.4589 12.67386,56.3016 11.625,85 0,95.1459 0,190.2917 0,285.4376 19.21875,-1e-4 38.4375,0 57.65625,0 -0.48596,-111.1945 1.08073,-222.4192 -0.90625,-333.5938 -5.42178,-61.3046 -43.27581,-118.7 -98.46875,-146.3438 -38.66287,-20.3602 -83.1484,-27.6527 -126.625,-27.25 z"
     id="path4-5-8"
     inkscape:connector-curvature="0" />
  <path
     style="fill:#000000;stroke:none"
     d="m 720.3125,1314.1562 c -57.85581,0.5467 -118.06657,17.3621 -160.44375,58.1888 -40.85751,38.2881 -59.57941,95.9202 -56.18125,151.1862 0,99.2709 0,198.5417 0,297.8126 19.21875,-1e-4 38.4375,0 57.65625,0 0.46544,-109.9765 -0.99899,-219.9776 0.84375,-329.9376 3.75532,-42.5292 30.87571,-82.0217 69.75,-99.9687 43.8557,-21.908 95.48507,-23.689 143.16369,-14.9706 41.95371,8.4992 83.54236,33.4293 101.52381,73.5956 12.82987,27.3309 12.90172,58.1731 12.03125,87.8437 0,94.4792 0,188.9584 0,283.4376 19.21875,-1e-4 38.4375,0 57.65625,0 -0.48571,-111.2049 1.08038,-222.4398 -0.90625,-333.625 -5.46547,-62.3605 -44.64741,-120.4661 -101.09547,-147.6874 -38.09444,-19.2936 -81.49199,-26.3029 -123.99828,-25.8752 z"
     id="path6-9-3"
     inkscape:connector-curvature="0" />
  <path
     style="fill:#000000;stroke:none"
     d="m 1218.6875,1314.1562 c -57.8089,0.5159 -117.9454,17.3955 -160.375,58.0626 -40.4332,38.0198 -59.53223,95.2 -56.2187,150.2187 0,99.6354 -10e-5,199.2708 0,298.9063 19.2187,-1e-4 38.4375,0 57.6562,0 0.4655,-110.1327 -0.9991,-220.2904 0.8438,-330.4063 3.8862,-41.8518 30.5845,-81.1816 68.8235,-99.026 44.6606,-22.6828 97.364,-24.2353 145.8952,-15.099 40.3845,8.7939 80.1402,32.4313 98.5313,70.75 14.2577,28.4889 14.0221,61.1279 13.1874,92.3437 0,93.8126 1e-4,187.625 0,281.4376 19.2188,-1e-4 38.4376,0 57.6563,0 -0.4862,-111.184 1.0811,-222.3986 -0.9063,-333.5626 -5.3447,-61.0225 -42.9937,-118.2464 -97.6874,-146 -38.8869,-20.6334 -83.6301,-28.0335 -127.4063,-27.625 z"
     id="path8-54-5"
     inkscape:connector-curvature="0" />
</svg>
