<?xml version="1.0" encoding="UTF-8" standalone="no"?>
<svg
   xmlns:dc="http://purl.org/dc/elements/1.1/"
   xmlns:cc="http://creativecommons.org/ns#"
   xmlns:rdf="http://www.w3.org/1999/02/22-rdf-syntax-ns#"
   xmlns:svg="http://www.w3.org/2000/svg"
   xmlns="http://www.w3.org/2000/svg"
   xmlns:sodipodi="http://sodipodi.sourceforge.net/DTD/sodipodi-0.dtd"
   xmlns:inkscape="http://www.inkscape.org/namespaces/inkscape"
   id="svg2"
   version="1.1"
   inkscape:version="0.48.0 r9654"
   width="1800"
   height="1800"
   sodipodi:docname="US1V20DEXTU.svg">
  <metadata
     id="metadata18">
    <rdf:RDF>
      <cc:Work
         rdf:about="">
        <dc:format>image/svg+xml</dc:format>
        <dc:type
           rdf:resource="http://purl.org/dc/dcmitype/StillImage" />
        <dc:title></dc:title>
      </cc:Work>
    </rdf:RDF>
  </metadata>
  <defs
     id="defs16" />
  <sodipodi:namedview
     pagecolor="#ffffff"
     bordercolor="#666666"
     borderopacity="1"
     objecttolerance="10"
     gridtolerance="10"
     guidetolerance="10"
     inkscape:pageopacity="0"
     inkscape:pageshadow="2"
     inkscape:window-width="991"
     inkscape:window-height="553"
     id="namedview14"
     showgrid="false"
     inkscape:zoom="0.069622013"
     inkscape:cx="3195.6915"
     inkscape:cy="526.18109"
     inkscape:window-x="79"
     inkscape:window-y="70"
     inkscape:window-maximized="0"
     inkscape:current-layer="svg2" />
  <path
     d="M 343.64088,-2.3588676 C 256.15531,-1.238302 175.96022,20.073148 115.39328,69.423914 52.583127,119.33551 12.765978,196.72671 13.326782,291.50289 l 0,473.31955 65.053373,0 0,-473.88038 c 0,-77.3912 29.161855,-132.34983 77.391075,-171.04571 46.54681,-37.012786 112.161,-57.201985 186.18725,-57.201985 l 8.97288,0 c 73.46543,0 139.64043,20.189199 186.18725,57.201985 48.22918,38.69588 77.39108,93.65451 77.39108,171.04571 l 0,473.88038 65.0534,0 0,-473.31955 C 680.12392,196.72671 640.30669,119.33551 577.49656,69.423914 516.92959,20.073148 436.73452,-1.2371843 349.24893,-2.3588676 z"
     style="fill:#000000;stroke:none"
     id="path4"
     inkscape:connector-curvature="0" />
  <path
     d="M 1121.9335,-2.3588676 C 1034.448,-1.238302 954.25288,20.073148 893.68595,69.423914 830.87582,119.33551 791.05865,196.72671 791.61948,291.50289 l 0,473.31955 65.05335,0 0,-473.88038 c 0,-77.3912 29.16183,-132.34983 77.39108,-171.04571 46.54684,-37.012786 112.16099,-57.201985 186.18729,-57.201985 l 8.9728,0 c 73.4654,0 139.6405,20.189199 186.1873,57.201985 48.2292,38.69588 77.3911,93.65451 77.3911,171.04571 l 0,473.88038 65.0533,0 0,-473.31955 c 0.5609,-94.77618 -39.2563,-172.16738 -102.0664,-222.078976 -60.567,-49.350766 -140.7621,-70.6610983 -228.2477,-71.7827816 z"
     style="fill:#000000;stroke:none"
     id="path6"
     inkscape:connector-curvature="0" />
  <path
     d="M 1900.2263,-2.3588676 C 1812.7407,-1.238302 1732.5455,20.073148 1671.9786,69.423914 1609.1685,119.33551 1569.3514,196.72671 1569.9121,291.50289 l 0,473.31955 65.0534,0 0,-473.88038 c 0,-77.3912 29.1619,-132.34983 77.391,-171.04571 46.5469,-37.012786 112.161,-57.201985 186.1873,-57.201985 l 8.9728,0 c 73.4656,0 139.6406,20.189199 186.1873,57.201985 48.2293,38.69588 77.3912,93.65451 77.3912,171.04571 l 0,473.88038 65.0533,0 0,-473.31955 C 2236.7093,196.72671 2196.8921,119.33551 2134.082,69.423914 2073.5149,20.073148 1993.3199,-1.2371843 1905.8343,-2.3588676 z"
     style="fill:#000000;stroke:none"
     id="path8"
     inkscape:connector-curvature="0" />
  <path
     d="m 343.64088,1031.7968 c -87.48557,1.1205 -167.68066,22.432 -228.2476,71.7828 -62.810153,49.9116 -102.627302,127.3028 -102.066498,222.0789 l 0,473.3196 65.053373,0 0,-473.8804 c 0,-77.3912 29.161855,-132.3498 77.391075,-171.0457 46.54681,-37.0128 112.161,-57.202 186.18725,-57.202 l 8.97288,0 c 73.46543,0 139.64043,20.1892 186.18725,57.202 48.22918,38.6959 77.39108,93.6545 77.39108,171.0457 l 0,473.8804 65.0534,0 0,-473.3196 c 0.56083,-94.7761 -39.2564,-172.1673 -102.06653,-222.0789 -60.56697,-49.3508 -140.76204,-70.6611 -228.24763,-71.7828 z"
     style="fill:#000000;stroke:none"
     id="path4-9"
     inkscape:connector-curvature="0" />
  <path
     d="m 1121.9335,1031.7968 c -87.4855,1.1205 -167.68062,22.432 -228.24755,71.7828 -62.81013,49.9116 -102.6273,127.3028 -102.06647,222.0789 l 0,473.3196 65.05335,0 0,-473.8804 c 0,-77.3912 29.16183,-132.3498 77.39108,-171.0457 46.54684,-37.0128 112.16099,-57.202 186.18729,-57.202 l 8.9728,0 c 73.4654,0 139.6405,20.1892 186.1873,57.202 48.2292,38.6959 77.3911,93.6545 77.3911,171.0457 l 0,473.8804 65.0533,0 0,-473.3196 c 0.5609,-94.7761 -39.2563,-172.1673 -102.0664,-222.0789 -60.567,-49.3508 -140.7621,-70.6611 -228.2477,-71.7828 z"
     style="fill:#000000;stroke:none"
     id="path6-3"
     inkscape:connector-curvature="0" />
  <path
     d="m 1900.2263,1031.7968 c -87.4856,1.1205 -167.6808,22.432 -228.2477,71.7828 -62.8101,49.9116 -102.6272,127.3028 -102.0665,222.0789 l 0,473.3196 65.0534,0 0,-473.8804 c 0,-77.3912 29.1619,-132.3498 77.391,-171.0457 46.5469,-37.0128 112.161,-57.202 186.1873,-57.202 l 8.9728,0 c 73.4656,0 139.6406,20.1892 186.1873,57.202 48.2293,38.6959 77.3912,93.6545 77.3912,171.0457 l 0,473.8804 65.0533,0 0,-473.3196 c 0.5609,-94.7761 -39.2563,-172.1673 -102.0664,-222.0789 -60.5671,-49.3508 -140.7621,-70.6611 -228.2477,-71.7828 z"
     style="fill:#000000;stroke:none"
     id="path8-8"
     inkscape:connector-curvature="0" />
</svg>
