<?xml version="1.0" encoding="UTF-8" standalone="no"?>
<svg
   xmlns:dc="http://purl.org/dc/elements/1.1/"
   xmlns:cc="http://creativecommons.org/ns#"
   xmlns:rdf="http://www.w3.org/1999/02/22-rdf-syntax-ns#"
   xmlns:svg="http://www.w3.org/2000/svg"
   xmlns="http://www.w3.org/2000/svg"
   xmlns:sodipodi="http://sodipodi.sourceforge.net/DTD/sodipodi-0.dtd"
   xmlns:inkscape="http://www.inkscape.org/namespaces/inkscape"
   id="svg2"
   version="1.1"
   inkscape:version="0.48.0 r9654"
   width="1800"
   height="1800"
   sodipodi:docname="US1V1DEXTU.svg">
  <metadata
     id="metadata18">
    <rdf:RDF>
      <cc:Work
         rdf:about="">
        <dc:format>image/svg+xml</dc:format>
        <dc:type
           rdf:resource="http://purl.org/dc/dcmitype/StillImage" />
      </cc:Work>
    </rdf:RDF>
  </metadata>
  <defs
     id="defs16" />
  <sodipodi:namedview
     pagecolor="#ffffff"
     bordercolor="#666666"
     borderopacity="1"
     objecttolerance="10"
     gridtolerance="10"
     guidetolerance="10"
     inkscape:pageopacity="0"
     inkscape:pageshadow="2"
     inkscape:window-width="696"
     inkscape:window-height="480"
     id="namedview14"
     showgrid="false"
     inkscape:zoom="0.04044339"
     inkscape:cx="2368.6652"
     inkscape:cy="526.18109"
     inkscape:window-x="0"
     inkscape:window-y="0"
     inkscape:window-maximized="0"
     inkscape:current-layer="svg2" />
  <path
     d="m 216.30366,1.49533 c -29.66488,0 -60.92205,6.2519794 -93.77151,18.753686 C 54.256872,46.234033 16.552612,110.17864 9.4193979,212.08212 12.476508,308.89043 51.709317,400.09371 127.11781,485.69259 c 60.12303,74.38958 97.31776,122.79337 111.58418,145.21212 37.70437,56.04694 60.12316,110.56564 67.25636,163.55535 l 65.72772,0 C 361.49574,719.0516 331.43421,645.68105 281.50148,574.34855 237.68307,516.2637 190.80749,458.17871 140.87481,400.09371 87.88501,315.51378 67.249584,240.86967 78.96851,176.16058 90.687393,111.45225 126.35359,75.78603 185.9671,69.162679 c 10.19704,-1.13059 19.8574,-1.699633 28.98108,-1.699633 44.2147,0 75.82525,13.30435 94.83158,39.913064 22.92828,32.09923 27.76867,68.27533 14.52119,108.52683 -11.2532,34.1927 -32.43322,51.28867 -63.54004,51.28867 -5.51258,0 -11.33701,-0.52411 -17.47315,-1.60979 -40.76138,-7.13549 -56.55639,-32.09921 -47.38509,-74.89868 L 162.27455,126.4832 c -26.49493,28.53298 -38.46859,58.59414 -35.92099,90.1842 2.54759,31.59008 16.55928,59.61391 42.03515,84.07076 22.2335,21.34356 50.87024,32.0161 85.91022,32.0161 5.11,0 10.35612,-0.22462 15.73846,-0.67386 42.28993,-3.564 74.89901,-21.65505 97.82727,-54.26342 22.92823,-32.60911 32.09952,-76.17303 27.51392,-130.69177 C 390.79292,92.607965 361.24092,51.336695 306.72262,23.31361 278.43484,8.7730778 248.29519,1.502812 216.30366,1.502812 z"
     style="fill:#000000;stroke:none"
     id="path4"
     inkscape:connector-curvature="0" />
  <path
     d="m 753.08556,1.49533 c -29.66488,0 -60.92205,6.2519794 -93.77152,18.753686 -68.27528,25.985017 -105.97954,89.929624 -113.11276,191.833104 3.05711,96.80831 42.28993,188.01159 117.69843,273.61047 60.12302,74.38958 97.31774,122.79337 111.58415,145.21212 37.70436,56.04694 60.1232,110.56564 67.25637,163.55535 l 65.72775,0 C 898.27762,719.0516 868.21609,645.68105 818.28339,574.34855 774.46496,516.2637 727.58937,458.17871 677.6567,400.09371 624.6669,315.51378 604.03148,240.86967 615.75041,176.16058 627.46928,111.45225 663.13549,75.78603 722.74898,69.162679 c 10.19704,-1.13059 19.8574,-1.699633 28.9811,-1.699633 44.21467,0 75.82526,13.30435 94.83156,39.913064 22.9283,32.09923 27.76866,68.27533 14.52122,108.52683 -11.25319,34.1927 -32.43323,51.28867 -63.54008,51.28867 -5.51222,0 -11.33697,-0.52411 -17.47312,-1.60979 -40.7614,-7.13549 -56.55641,-32.09921 -47.38509,-74.89868 l -33.62814,-64.19919 c -26.49493,28.53297 -38.46859,58.59413 -35.92097,90.18421 2.54758,31.59008 16.55926,59.61391 42.03514,84.07074 22.2335,21.34358 50.87024,32.01611 85.91018,32.01611 5.11015,0 10.3562,-0.22463 15.73851,-0.67387 42.28986,-3.56399 74.89899,-21.65504 97.82726,-54.26341 22.92822,-32.6091 32.09952,-76.17304 27.51394,-130.69176 C 927.57446,92.60872 898.02283,51.337436 843.50455,23.31435 815.21671,8.7738334 785.07709,1.5035676 753.08556,1.5035676 z"
     style="fill:#000000;stroke:none"
     id="path6"
     inkscape:connector-curvature="0" />
  <path
     d="m 1289.8675,1.49533 c -29.665,0 -60.9221,6.2519794 -93.7715,18.753686 -68.2754,25.985017 -105.9796,89.929624 -113.1128,191.833104 3.0571,96.80831 42.2899,188.01159 117.6984,273.61047 60.123,74.38958 97.3177,122.79337 111.5842,145.21212 37.7043,56.04694 60.1231,110.56564 67.2564,163.55535 l 65.7276,0 c -10.1903,-75.40846 -40.2518,-148.77901 -90.1845,-220.11151 -43.8185,-58.08485 -90.6941,-116.16984 -140.6267,-174.25484 -52.9898,-84.57993 -73.6252,-159.22404 -61.9063,-223.93313 11.7189,-64.70833 47.3851,-100.37455 106.9985,-106.997901 10.1971,-1.13059 19.8574,-1.699633 28.9811,-1.699633 44.2148,0 75.8253,13.30435 94.8317,39.913064 22.9282,32.09923 27.7686,68.27533 14.5211,108.52683 -11.2532,34.1927 -32.4332,51.28867 -63.54,51.28867 -5.513,0 -11.337,-0.52411 -17.4732,-1.60979 -40.7614,-7.13549 -56.5563,-32.09921 -47.385,-74.89868 l -33.6282,-64.19919 c -26.4949,28.53297 -38.4686,58.59413 -35.921,90.18421 2.548,31.59008 16.5593,59.61391 42.0352,84.07074 22.2335,21.34432 50.8702,32.01611 85.9102,32.01611 5.1102,0 10.3561,-0.22463 15.7384,-0.67387 42.29,-3.56399 74.8991,-21.6543 97.8273,-54.26341 22.9283,-32.6091 32.0995,-76.17304 27.5139,-130.69102 C 1464.3571,92.60872 1434.8047,51.337436 1380.2864,23.31435 1351.9986,8.7738334 1321.8589,1.5035676 1289.8675,1.5035676 z"
     style="fill:#000000;stroke:none"
     id="path8"
     inkscape:connector-curvature="0" />
  <path
     d="m 595.96115,1034.2056 c -29.66483,0 -60.92191,6.2519 -93.77139,18.7536 -68.27527,25.9851 -105.97957,89.9297 -113.11276,191.8331 3.05708,96.8084 42.28992,188.0116 117.69838,273.6105 60.12305,74.3896 97.31769,122.7934 111.58422,145.2121 37.70431,56.047 60.1232,110.5657 67.25624,163.5554 l 65.72785,0 c -10.19042,-75.4085 -40.25187,-148.779 -90.18465,-220.1115 -43.81846,-58.0849 -90.69401,-116.1699 -140.62664,-174.2549 -52.98986,-84.5799 -73.62524,-159.224 -61.90628,-223.9331 11.71882,-64.7083 47.38506,-100.3745 106.9986,-106.9979 10.19694,-1.1306 19.8574,-1.6996 28.98109,-1.6996 44.21464,0 75.82523,13.3043 94.83146,39.913 22.92826,32.0993 27.76871,68.2754 14.52121,108.5269 -11.25315,34.1927 -32.43315,51.2886 -63.54,51.2886 -5.5122,0 -11.33702,-0.5241 -17.47311,-1.6098 -40.76138,-7.1354 -56.55645,-32.0992 -47.38521,-74.8986 l -33.62804,-64.1992 c -26.49501,28.5329 -38.4685,58.5941 -35.92094,90.1842 2.54713,31.5901 16.55927,59.6139 42.0351,84.0707 22.2334,21.3443 50.87017,32.0161 85.91016,32.0161 5.1101,0 10.35621,-0.2246 15.73847,-0.6738 42.28993,-3.564 74.8991,-21.6543 97.82736,-54.2634 22.92811,-32.6092 32.0995,-76.1731 27.51388,-130.6911 -4.58607,-54.518 -34.13771,-95.7892 -88.65596,-123.8123 -28.28786,-14.5405 -58.42739,-21.8108 -90.41904,-21.8108 z"
     style="fill:#000000;stroke:none"
     id="path10"
     inkscape:connector-curvature="0" />
  <path
     d="m 1132.7431,1034.2056 c -29.6649,0 -60.922,6.2519 -93.7715,18.7536 -68.27526,25.9851 -105.97956,89.9297 -113.11275,191.8331 3.05708,96.8084 42.28992,188.0116 117.69835,273.6105 60.1231,74.3896 97.3177,122.7934 111.5842,145.2121 37.7043,56.047 60.1232,110.5657 67.2564,163.5554 l 65.7277,0 c -10.1904,-75.4085 -40.2519,-148.779 -90.1846,-220.1115 -43.8185,-58.0849 -90.694,-116.1699 -140.6267,-174.2549 -52.9897,-84.5799 -73.62519,-159.224 -61.90623,-223.9331 11.71883,-64.7083 47.38503,-100.3745 106.99863,-106.9979 10.197,-1.1306 19.8573,-1.6996 28.981,-1.6996 44.2147,0 75.8252,13.3043 94.8315,39.913 22.9284,32.0993 27.7687,68.2754 14.5212,108.5269 -11.2532,34.1927 -32.4332,51.2886 -63.54,51.2886 -5.513,0 -11.337,-0.5241 -17.4731,-1.6098 -40.7614,-7.1354 -56.5564,-32.0992 -47.3851,-74.8986 l -33.6281,-64.1992 c -26.495,28.5329 -38.4685,58.5941 -35.921,90.1842 2.5472,31.5901 16.5593,59.6139 42.0351,84.0707 22.2336,21.3436 50.8703,32.0161 85.9103,32.0161 5.1101,0 10.3561,-0.2246 15.7383,-0.6738 42.2899,-3.564 74.8991,-21.6551 97.8274,-54.2634 22.9282,-32.6092 32.0995,-76.1731 27.5139,-130.6918 -4.5854,-54.5173 -34.1377,-95.7885 -88.656,-123.8116 -28.2877,-14.5405 -58.4274,-21.8108 -90.4189,-21.8108 z"
     style="fill:#000000;stroke:none"
     id="path12"
     inkscape:connector-curvature="0" />
</svg>
