<?xml version="1.0" encoding="UTF-8" standalone="no"?>
<svg
   xmlns:dc="http://purl.org/dc/elements/1.1/"
   xmlns:cc="http://creativecommons.org/ns#"
   xmlns:rdf="http://www.w3.org/1999/02/22-rdf-syntax-ns#"
   xmlns:svg="http://www.w3.org/2000/svg"
   xmlns="http://www.w3.org/2000/svg"
   xmlns:sodipodi="http://sodipodi.sourceforge.net/DTD/sodipodi-0.dtd"
   xmlns:inkscape="http://www.inkscape.org/namespaces/inkscape"
   id="svg2"
   version="1.1"
   inkscape:version="0.48.0 r9654"
   width="1800"
   height="1800"
   sodipodi:docname="US1V1HEXTU.svg">
  <metadata
     id="metadata18">
    <rdf:RDF>
      <cc:Work
         rdf:about="">
        <dc:format>image/svg+xml</dc:format>
        <dc:type
           rdf:resource="http://purl.org/dc/dcmitype/StillImage" />
        <dc:title></dc:title>
      </cc:Work>
    </rdf:RDF>
  </metadata>
  <defs
     id="defs16" />
  <sodipodi:namedview
     pagecolor="#ffffff"
     bordercolor="#666666"
     borderopacity="1"
     objecttolerance="10"
     gridtolerance="10"
     guidetolerance="10"
     inkscape:pageopacity="0"
     inkscape:pageshadow="2"
     inkscape:window-width="784"
     inkscape:window-height="555"
     id="namedview14"
     showgrid="false"
     inkscape:zoom="0.049470932"
     inkscape:cx="2368.6652"
     inkscape:cy="526.18109"
     inkscape:window-x="499"
     inkscape:window-y="18"
     inkscape:window-maximized="0"
     inkscape:current-layer="svg2" />
  <path
     style="fill:#000000;stroke:none"
     d="M 131.59375,-4.375 C 98.369113,-2.4230995 63.243385,7.2803092 39.59375,31.75 15.111237,58.003426 5.3282736,94.662406 3.7693461,129.84368 3.605729,168.02615 15.22157,205.51567 32.78125,239.0625 c 14.740948,28.61007 35.43743,53.39604 55.90625,78.03125 35.2619,44.09351 73.77807,88.44214 90.47818,143.30057 3.28108,10.86359 5.61901,22.13608 6.83432,33.44943 17.46875,0 34.9375,0 52.40625,0 C 231.54574,428.80134 199.86397,369.03695 158.32917,319.5893 136.74095,291.20689 112.62271,264.88254 91.251112,236.43835 69.300828,199.82901 51.727071,157.67295 57.21875,114.21875 60.11086,90.529458 71.836938,64.864352 95.03125,55.15625 117.6431,45.870608 143.83908,45.7039 166.96875,53 c 24.51691,9.87006 37.29558,38.135848 33.40625,63.4375 -1.98488,13.53606 -6.97224,28.24624 -18.3125,36.78125 -13.67649,8.4822 -32.56353,6.30999 -45.5625,-2.53125 -8.67015,-7.25912 -9.7757,-19.86153 -7.0625,-30.25 0.10976,-10.61412 -8.4205,-18.38073 -11.91456,-27.866251 C 113.21818,84.38371 108.95817,76.172516 104.625,68 c -19.404483,17.600099 -33.304901,44.04662 -29,70.875 5.227469,36.46028 36.58415,68.79412 74,71.28125 32.71498,3.92524 68.68066,-9.35994 86.1875,-38.1875 C 254.2376,143.35216 256.11656,106.78612 249.5,74.125 243.67779,49.06202 226.00577,28.07842 204.34375,15 182.77274,1.5483705 157.09576,-5.4966173 131.59375,-4.375 z"
     id="path4"
     inkscape:connector-curvature="0" />
  <path
     style="fill:#000000;stroke:none"
     d="m 458.4375,-4.46875 c -33.89989,1.9120608 -69.83874,11.5336123 -93.75,36.84375 -24.05992,26.10714 -33.6817,62.465278 -35.25,97.3125 -0.12168,48.93316 18.32284,96.43216 45.34129,136.59277 17.79741,26.34617 39.5492,49.6451 58.88743,74.89361 33.41275,41.60128 66.67731,86.80596 76.24003,140.45112 1.7153,3.75853 -0.33765,11.24915 3.53125,12.21875 16.88542,0 33.77083,0 50.65625,0 C 557.16004,428.83296 525.49177,368.99772 483.9389,319.5149 462.37941,291.24856 438.24464,264.86859 416.90736,236.43835 394.78739,199.64542 377.17137,157.1343 382.94642,113.44651 c 3.02145,-24.141555 15.66996,-50.161557 39.73807,-59.177505 22.24294,-8.269085 47.60401,-8.473309 70.03426,-1.175255 25.79412,10.276459 38.45503,41.266397 32.58924,67.54389 -2.88416,14.49376 -9.8253,31.6821 -25.43299,36.20611 -13.32148,3.83246 -29.11405,1.02263 -39.625,-7.9375 -7.87936,-8.27418 -6.94974,-20.5022 -5.125,-30.8125 -1.64053,-10.13515 -9.33587,-17.81805 -12.88295,-27.303939 -3.98041,-7.579226 -7.91573,-15.182212 -11.9608,-22.727311 -20.15345,18.049426 -34.2713,45.98487 -28.5,73.59375 6.24094,35.66066 37.71493,66.59095 74.53125,68.625 31.6567,3.3549 65.97236,-9.00621 83.7579,-36.19637 18.91069,-27.57556 21.53222,-63.46989 15.97795,-95.783087 C 571.63676,55.296334 557.93212,34.86217 539.01988,21.234039 516.13768,3.8470534 487.19238,-5.2282206 458.4375,-4.46875 z"
     id="path6"
     inkscape:connector-curvature="0" />
  <path
     style="fill:#000000;stroke:none"
     d="m 782.875,-4.375 c -33.01423,1.9599702 -67.80445,11.4729621 -91.52203,35.641053 -25.06978,26.492471 -34.98831,63.976381 -36.31516,99.733797 0.0915,37.4128 11.46107,74.25806 28.55594,107.18765 14.78968,28.81386 35.48359,53.87888 56.16164,78.64244 36.0879,45.19794 75.38899,90.09463 91.61961,146.79506 2.83212,9.87947 4.7674,20.00748 5.9375,30.21875 17.45833,0 34.91667,0 52.375,0 C 882.83083,428.80069 851.14481,369.03743 809.61042,319.5893 788.16602,291.51471 764.46389,265.29557 743.06231,237.28648 720.86696,200.61075 703.19963,158.42973 708.40625,114.75 711.25556,91.081655 722.6473,65.525377 745.6875,55.40625 768.86488,45.746883 795.86823,45.508407 819.46875,53.5 c 24.66693,10.766035 36.9222,40.236558 31.6875,66 -2.50215,13.07614 -7.74615,27.72298 -19.8125,34.90625 -13.53399,6.99023 -31.08268,4.74035 -43.53125,-3.71875 -8.75713,-7.16269 -9.78153,-20.03799 -7.15625,-30.4375 0.22746,-10.56006 -8.44156,-18.19891 -11.85731,-27.667653 -4.30033,-8.18772 -8.56672,-16.393401 -12.92394,-24.551097 -20.28827,18.354582 -34.57982,46.72552 -28.25,74.5 6.57144,35.6566 38.38526,66.16941 75.1875,67.8125 31.98063,3.21098 66.65129,-9.90699 83.875,-37.78125 19.08027,-29.19166 20.87063,-66.57197 13.75,-99.90625 C 892.00534,39.292744 863.39628,14.922832 832.00234,3.4540031 816.40295,-2.3122379 799.57595,-5.1236827 782.875,-4.375 z"
     id="path8"
     inkscape:connector-curvature="0" />
  <path
     style="fill:#000000;stroke:none"
     d="M 131.6875,647.75 C 99.738745,649.50548 66.4138,658.6125 42.59375,680.8125 16.176684,706.7619 5.6375984,744.66866 3.7895176,780.81224 3.3245068,818.99964 14.922899,856.70489 32.3125,890.28125 c 14.583036,28.56983 35.049747,53.306 55.480745,77.79346 35.317415,44.27159 74.035535,88.48539 91.091185,143.47589 3.4465,11.2475 5.84313,22.6947 7.17807,34.3869 17.44792,0 34.89583,0 52.34375,0 C 231.58603,1080.6189 199.4528,1020.5288 157.711,970.86569 136.45894,943.0984 112.85989,917.07946 91.665673,889.24949 69.502406,852.40384 51.6483,809.93091 57.21875,766.125 60.236709,741.45623 73.087191,714.81167 97.875,706.0625 c 21.97129,-7.97309 47.00855,-7.98827 69.09375,-0.96875 24.71452,9.94188 37.56123,38.70304 33.29851,64.27154 -2.16122,13.35903 -7.10118,27.71611 -18.32976,36.04096 -13.87452,8.43778 -32.78881,6.20926 -45.65625,-2.84375 -8.75011,-7.30104 -9.23236,-19.46551 -7,-29.78125 1.48009,-8.8514 -6.258,-15.18578 -9.03451,-22.92079 -5.21208,-9.91968 -10.38165,-19.86184 -15.62174,-29.76671 -20.375451,18.3037 -34.688599,47.08331 -28.25,74.90625 6.860915,36.0521 39.32843,66.50089 76.65393,67.56802 30.64103,2.52436 63.50242,-9.57962 80.90857,-35.69302 20.04917,-28.76251 22.39349,-66.64083 15.65625,-100.25 -5.853,-25.73262 -24.0874,-46.98992 -46.41416,-60.24285 C 181.90174,653.43104 156.696,646.63639 131.6875,647.75 z"
     id="path4-3"
     inkscape:connector-curvature="0" />
  <path
     style="fill:#000000;stroke:none"
     d="m 457.3125,647.75 c -32.32142,1.79042 -66.25705,11.1341 -90,33.9375 -26.01834,26.39585 -36.29918,64.12745 -37.91788,100.31243 -0.14452,38.24744 11.54629,75.90253 29.2064,109.5045 14.66195,28.27914 35.0364,52.8768 55.39898,77.24557 35.6778,44.8096 74.9356,89.6001 91.34985,145.5203 2.97126,10.3032 5.1295,20.9245 6.3689,31.6672 17.45833,0 34.91667,0 52.375,0 -6.89684,-64.9403 -38.66789,-124.8897 -80.08721,-174.27738 -21.53287,-27.97829 -45.23774,-54.36503 -66.69903,-82.40199 -21.51802,-35.91846 -39.17958,-76.94229 -34.77626,-119.85188 2.22374,-23.97302 12.98423,-49.72196 35.625,-61.0625 23.04319,-10.29808 50.21601,-10.83064 74.15625,-3.34375 24.71348,9.61926 37.42808,38.04391 33.75,63.4375 -1.93663,13.56982 -7.01534,27.86591 -18.03125,36.6875 -14.03677,8.85335 -33.6442,6.59061 -46.65625,-3.03125 -8.55434,-7.67781 -8.47665,-20.07776 -6.34375,-30.40625 0.84742,-8.32067 -6.53646,-14.35397 -9.12168,-21.83049 -5.19471,-9.91837 -10.38925,-19.83702 -15.62832,-29.73201 -19.80709,17.83115 -33.79329,45.04305 -28.78125,72.40625 5.82783,35.63293 36.61026,66.92538 73.15013,69.67293 31.90438,3.83559 66.87641,-8.07683 84.97487,-35.45418 19.81983,-28.31654 22.14126,-65.54018 15.93139,-98.69314 -5.43174,-25.91132 -23.42026,-47.52305 -45.72055,-61.04971 C 508.32399,653.60816 482.73312,646.67631 457.3125,647.75 z"
     id="path6-6"
     inkscape:connector-curvature="0" />
  <path
     style="fill:#000000;stroke:none"
     d="m 782.96875,647.75 c -31.94004,1.74596 -65.3269,10.88994 -89.09375,33.0625 -26.18861,25.69943 -36.83484,63.42814 -38.78125,99.28125 -0.67315,36.80186 10.08955,72.99126 26.15737,105.68858 14.89816,30.28917 36.18983,56.57198 57.80731,82.24967 36.54548,45.9078 76.96699,91.7501 92.82545,149.5187 2.58947,9.311 4.33142,18.7683 5.45987,28.3868 17.44792,0 34.89583,0 52.34375,0 -6.84019,-65.3142 -38.88959,-125.351 -80.67565,-175.00074 -21.20596,-27.76116 -44.795,-53.75687 -65.9737,-81.56077 -22.25406,-36.9264 -40.15523,-79.40906 -34.5069,-123.43849 3.07083,-24.95662 16.29781,-51.95191 41.75964,-60.25831 21.97539,-7.5751 46.87434,-7.71159 68.89661,-0.17919 24.45364,10.38176 36.74589,39.32158 32.22294,64.64462 -2.24252,13.42818 -7.47149,28.11787 -19.22294,35.91788 -13.90306,7.60132 -32.72154,5.4624 -45.25,-4.0625 -8.33962,-7.46335 -8.45027,-19.55783 -6.3125,-29.65625 1.1477,-8.73541 -6.45371,-14.88171 -9.14664,-22.58378 -5.16586,-9.90176 -10.37728,-19.77965 -15.57211,-29.66622 -20.44387,18.4966 -34.78723,47.16548 -28.1875,75.21875 6.9498,35.57573 38.73517,65.62341 75.43374,67.18038 31.31654,2.92129 64.9916,-9.44483 82.53501,-36.30538 19.53292,-28.4459 21.75891,-65.79604 15.30639,-98.97439 -5.89293,-26.9616 -25.44474,-49.03922 -49.05639,-62.30686 C 831.30188,652.91683 806.99504,646.7034 782.96875,647.75 z"
     id="path8-3"
     inkscape:connector-curvature="0" />
  <path
     style="fill:#000000;stroke:none"
     d="m 131.59375,1304.8125 c -33.224637,1.9519 -68.350365,11.6553 -92,36.125 -24.482513,26.2534 -34.2654764,62.9124 -35.8244039,98.0937 -0.1636171,38.1824 11.4522239,75.672 29.0119039,109.2188 14.740948,28.6101 35.43743,53.396 55.90625,78.0312 35.2619,44.0936 73.77807,88.4422 90.47818,143.3006 3.28108,10.8636 5.61901,22.1361 6.83432,33.4494 17.46875,0 34.9375,0 52.40625,0 -6.86051,-65.0424 -38.54228,-124.8067 -80.07708,-174.2544 -21.41932,-28.0739 -45.18657,-54.2982 -66.557596,-82.2971 -21.600432,-35.8874 -39.250289,-77.0807 -34.884855,-119.9429 2.300886,-25.8153 15.131997,-54.3121 41.08086,-63.3567 21.929171,-8.0749 46.861671,-8.0055 69.001171,-0.9926 24.51691,9.8701 37.29558,38.1358 33.40625,63.4375 -1.92774,13.3597 -6.85855,27.707 -17.75,36.4062 -13.80463,8.9906 -32.91556,6.7536 -46.09375,-2.1562 -8.7367,-7.1469 -9.78586,-19.9672 -7.15625,-30.4375 0.22837,-10.5605 -8.44365,-18.1978 -11.85555,-27.6686 -4.30382,-8.1908 -8.561,-16.4062 -12.89445,-24.5814 -19.404483,17.6001 -33.304901,44.0466 -29,70.875 5.227469,36.4603 36.58415,68.7941 74,71.2813 32.71498,3.9252 68.68066,-9.36 86.1875,-38.1876 18.4251,-28.6165 20.30406,-65.1826 13.6875,-97.8437 -5.82221,-25.063 -23.49423,-46.0466 -45.15625,-59.125 -21.57101,-13.4516 -47.24799,-20.4966 -72.75,-19.375 z"
     id="path4-3-5"
     inkscape:connector-curvature="0" />
  <path
     style="fill:#000000;stroke:none"
     d="m 458.4375,1304.7188 c -33.89989,1.912 -69.83874,11.5336 -93.75,36.8437 -24.05992,26.1071 -33.6817,62.4653 -35.25,97.3125 -0.12168,48.9332 18.32284,96.4322 45.34129,136.5928 17.79741,26.3461 39.5492,49.6451 58.88743,74.8936 33.41275,41.6013 66.67731,86.8059 76.24003,140.4511 1.7153,3.7585 -0.33765,11.2492 3.53125,12.2187 16.88542,0 33.77083,1e-4 50.65625,0 -6.92535,-65.0094 -38.65383,-124.9213 -80.14644,-174.3116 -21.39316,-27.9914 -45.12357,-54.2289 -66.51949,-82.2399 -22.38265,-37.0086 -40.29368,-79.8145 -34.4814,-123.8457 3.02145,-24.1415 15.66996,-50.1615 39.73807,-59.1775 22.24294,-8.2691 47.60401,-8.4733 70.03426,-1.1753 25.79412,10.2765 38.45503,41.2664 32.58924,67.5439 -2.61253,12.898 -8.12826,27.5489 -20.37049,34.1437 -14.28105,6.8054 -32.45687,4.1239 -44.5625,-5.7188 -8.04774,-8.278 -7.00844,-20.6977 -5.28125,-31.0938 -1.15232,-9.2879 -8.47888,-16.1073 -11.57497,-24.739 -4.42636,-8.3922 -8.79426,-16.8152 -13.23753,-25.1984 -20.1282,18.0689 -34.28711,46.0306 -28.5,73.625 6.24094,35.6606 37.71493,66.5909 74.53125,68.625 30.83328,3.2294 64.51879,-8.3818 82.40625,-34.3438 21.30045,-29.5119 23.55273,-69.1763 15.90625,-103.9688 -8.98956,-34.2046 -39.18517,-58.9017 -71.82368,-69.7849 -14.27281,-4.7506 -29.30996,-7.0488 -44.36382,-6.6525 z"
     id="path6-6-9"
     inkscape:connector-curvature="0" />
  <path
     style="fill:#000000;stroke:none"
     d="m 782.875,1304.8125 c -33.01423,1.96 -67.80445,11.473 -91.52203,35.6411 -25.06978,26.4924 -34.98831,63.9763 -36.31516,99.7337 0.0915,37.4128 11.46107,74.2581 28.55594,107.1877 14.78968,28.8139 35.48359,53.8789 56.16164,78.6424 36.0879,45.198 75.38899,90.0947 91.61961,146.7951 2.83212,9.8795 4.7674,20.0075 5.9375,30.2187 17.45833,1e-4 34.91667,0 52.375,0 -6.85667,-65.043 -38.54269,-124.8063 -80.07708,-174.2544 -21.41282,-28.0778 -45.19955,-54.2904 -66.54811,-82.3028 -22.19535,-36.6757 -39.86268,-78.8568 -34.65606,-122.5365 2.84931,-23.6683 14.24105,-49.2246 37.28125,-59.3437 23.17738,-9.6594 50.18073,-9.8979 73.78125,-1.9063 24.99791,10.9084 37.19428,40.9721 31.50321,66.9829 -2.54902,12.5514 -7.63747,26.2756 -18.90946,33.5171 -13.87366,7.631 -32.54368,5.2694 -45.03125,-3.9687 -8.5586,-7.7704 -8.57766,-20.2257 -6.34375,-30.6563 -0.35883,-10.1513 -8.54404,-17.5705 -11.88856,-26.7927 -4.30033,-8.1877 -8.56672,-16.3934 -12.92394,-24.551 -20.28827,18.3545 -34.57982,46.7255 -28.25,74.5 6.57312,35.6659 38.40358,66.1883 75.21875,67.8124 32.4068,3.2768 67.52818,-10.3044 84.58124,-38.9289 18.47659,-29.1796 20.13841,-66.423 12.82501,-99.4773 -8.52672,-32.5855 -36.46036,-56.5179 -67.08544,-68.0617 -15.971,-6.0387 -33.17023,-9.0167 -50.28956,-8.2508 z"
     id="path8-3-7"
     inkscape:connector-curvature="0" />
</svg>
