<?xml version="1.0" encoding="UTF-8" standalone="no"?>
<svg
   xmlns:dc="http://purl.org/dc/elements/1.1/"
   xmlns:cc="http://creativecommons.org/ns#"
   xmlns:rdf="http://www.w3.org/1999/02/22-rdf-syntax-ns#"
   xmlns:svg="http://www.w3.org/2000/svg"
   xmlns="http://www.w3.org/2000/svg"
   xmlns:sodipodi="http://sodipodi.sourceforge.net/DTD/sodipodi-0.dtd"
   xmlns:inkscape="http://www.inkscape.org/namespaces/inkscape"
   id="svg2"
   version="1.1"
   inkscape:version="0.48.0 r9654"
   width="1800"
   height="1800"
   sodipodi:docname="US1Z15GEXTU.svg">
  <metadata
     id="metadata18">
    <rdf:RDF>
      <cc:Work
         rdf:about="">
        <dc:format>image/svg+xml</dc:format>
        <dc:type
           rdf:resource="http://purl.org/dc/dcmitype/StillImage" />
        <dc:title></dc:title>
      </cc:Work>
    </rdf:RDF>
  </metadata>
  <defs
     id="defs16" />
  <sodipodi:namedview
     pagecolor="#ffffff"
     bordercolor="#666666"
     borderopacity="1"
     objecttolerance="10"
     gridtolerance="10"
     guidetolerance="10"
     inkscape:pageopacity="0"
     inkscape:pageshadow="2"
     inkscape:window-width="999"
     inkscape:window-height="759"
     id="namedview14"
     showgrid="false"
     inkscape:zoom="0.097158925"
     inkscape:cx="372.04724"
     inkscape:cy="1009.6374"
     inkscape:window-x="0"
     inkscape:window-y="0"
     inkscape:window-maximized="0"
     inkscape:current-layer="svg2" />
  <path
     style="fill:#000000;stroke:none"
     d="m -6.46875,-9.53125 c 0,181.4375 0,362.875 0,544.3125 36.03125,0 72.0625,0 108.09375,0 0,-182.10417 0,-364.20833 0,-546.3125 -36.03125,0 -72.0625,0 -108.09375,0 l 0,1 0,1 z"
     id="path4"
     inkscape:connector-curvature="0" />
  <path
     style="fill:#000000;stroke:none"
     d="m 290.78125,-9.53125 c 0,181.4375 0,362.875 0,544.3125 36.02083,0 72.04167,0 108.0625,0 0,-182.10417 0,-364.20833 0,-546.3125 -36.02083,0 -72.04167,0 -108.0625,0 l 0,1 0,1 z"
     id="path6"
     inkscape:connector-curvature="0" />
  <path
     style="fill:#000000;stroke:none"
     d="m 588,-9.53125 c 0,181.4375 0,362.875 0,544.3125 36.03125,0 72.0625,0 108.09375,0 0,-182.10417 0,-364.20833 0,-546.3125 -36.03125,0 -72.0625,0 -108.09375,0 l 0,1 0,1 z"
     id="path8"
     inkscape:connector-curvature="0" />
  <path
     style="fill:#000000;stroke:none"
     d="m -6.46875,643.53125 c 0,181.4375 0,362.87505 0,544.31255 36.03125,0 72.0625,-1e-4 108.09375,0 0,-182.1042 0,-364.20838 0,-546.31255 -36.03125,0 -72.0625,0 -108.09375,0 l 0,1 0,1 z"
     id="path4-1"
     inkscape:connector-curvature="0" />
  <path
     style="fill:#000000;stroke:none"
     d="m 290.78125,643.53125 c 0,181.4375 0,362.87505 0,544.31255 36.02083,0 72.04167,-1e-4 108.0625,0 0,-182.1042 0,-364.20838 0,-546.31255 -36.02083,0 -72.04167,0 -108.0625,0 l 0,1 0,1 z"
     id="path6-8"
     inkscape:connector-curvature="0" />
  <path
     style="fill:#000000;stroke:none"
     d="m 588,643.53125 c 0,181.4375 0,362.87505 0,544.31255 36.03125,0 72.0625,-1e-4 108.09375,0 0,-182.1042 0,-364.20838 0,-546.31255 -36.03125,0 -72.0625,0 -108.09375,0 l 0,1 0,1 z"
     id="path8-7"
     inkscape:connector-curvature="0" />
  <path
     style="fill:#000000;stroke:none"
     d="m -6.46875,1281.625 c 0,181.4375 0,362.875 0,544.3125 36.03125,0 72.0625,0 108.09375,0 0,-182.1042 0,-364.2083 0,-546.3125 -36.03125,0 -72.0625,0 -108.09375,0 l 0,1 0,1 z"
     id="path4-1-6"
     inkscape:connector-curvature="0" />
  <path
     style="fill:#000000;stroke:none"
     d="m 290.78125,1281.625 c 0,181.4375 0,362.875 0,544.3125 36.02083,0 72.04167,0 108.0625,0 0,-182.1042 0,-364.2083 0,-546.3125 -36.02083,0 -72.04167,0 -108.0625,0 l 0,1 0,1 z"
     id="path6-8-1"
     inkscape:connector-curvature="0" />
  <path
     style="fill:#000000;stroke:none"
     d="m 588,1281.625 c 0,181.4375 0,362.875 0,544.3125 36.03125,0 72.0625,0 108.09375,0 0,-182.1042 0,-364.2083 0,-546.3125 -36.03125,0 -72.0625,0 -108.09375,0 l 0,1 0,1 z"
     id="path8-7-2"
     inkscape:connector-curvature="0" />
</svg>
