<?xml version="1.0" encoding="UTF-8" standalone="no"?>
<svg
   version="1.1"
   viewBox="-10 -250 1800 1800"
   id="svg1"
   sodipodi:docname="US47IM14.006.svg"
   inkscape:version="1.3.2 (091e20e, 2023-11-25, custom)"
   width="1800"
   height="1800"
   xmlns:inkscape="http://www.inkscape.org/namespaces/inkscape"
   xmlns:sodipodi="http://sodipodi.sourceforge.net/DTD/sodipodi-0.dtd"
   xmlns="http://www.w3.org/2000/svg"
   xmlns:svg="http://www.w3.org/2000/svg">
  <defs
     id="defs1" />
  <sodipodi:namedview
     id="namedview1"
     pagecolor="#ffffff"
     bordercolor="#000000"
     borderopacity="0.25"
     inkscape:showpageshadow="2"
     inkscape:pageopacity="0.0"
     inkscape:pagecheckerboard="0"
     inkscape:deskcolor="#d1d1d1"
     inkscape:zoom="0.39697266"
     inkscape:cx="1131.0603"
     inkscape:cy="1024"
     inkscape:window-width="1920"
     inkscape:window-height="1009"
     inkscape:window-x="-8"
     inkscape:window-y="-8"
     inkscape:window-maximized="1"
     inkscape:current-layer="svg1" />
  <path
     fill="currentColor"
     d="M 150.17224,-78.389914 H 1621.1099 q 42.7967,0 42.7967,21.39834 V 1341.8258 q 0,3.9627 -3.9627,3.9627 H 131.94402 q -15.85062,0 -15.85062,-30.1162 V -44.311074 q 0,-32.49378 7.13278,-32.49378 13.47303,-1.58506 26.94606,-1.58506 z M 216.74485,26.224189 V 1225.3237 q 0,13.4731 26.94605,13.4731 H 920.51245 V 665.79677 q 1.58506,-3.96265 4.75518,-3.96265 H 1561.6701 V 146.68891 q 0,-41.21161 1.5851,-122.842315 0,-11.887966 -12.6805,-11.887966 H 231.01041 q -14.26556,0 -14.26556,14.26556 z M 1010.0685,742.67229 v 493.74691 h 544.4688 q 7.1328,0 7.1328,-25.361 V 742.67229 Z"
     id="path1"
     style="stroke-width:0.792531" />
</svg>
