<?xml version="1.0" encoding="UTF-8" standalone="no"?>
<svg
   width="484.18716"
   height="1800"
   version="1.1"
   id="svg1"
   xmlns="http://www.w3.org/2000/svg"
   xmlns:svg="http://www.w3.org/2000/svg">
  <defs
     id="defs1" />
  <path
     style="fill:#000000;stroke:none;stroke-width:87.8742"
     d="m 241.65422,1149.3952 c 211.47954,0 207.54499,300.53 0,300.53 -109.33894,-3.8276 -159.931154,-81.4636 -159.931154,-150.265 0,-86.9564 69.382314,-148.0477 159.931154,-150.265 z m 0,-52.7245 c -81.44087,0 -132.24178,39.9739 -132.69013,40.4223 -31.048924,-29.8774 -46.573366,-66.7847 -46.573366,-110.7216 0,-45.69468 23.140222,-160.51706 69.420666,-344.46716 46.28045,-183.95011 69.42067,-294.96459 69.42067,-333.04343 0,-107.79244 -44.23005,-167.54693 -132.690138,-179.26349 9.959084,-19.33234 27.533944,-28.99851 52.724568,-28.99851 24.60478,0 54.48203,11.13074 89.63173,33.39223 0,-36.9072 10.252,-70.29942 30.756,-100.176663 21.08982,29.877243 31.63473,63.269463 31.63473,100.176663 35.1497,-22.26149 65.02694,-33.39223 89.63173,-33.39223 24.6048,0 42.17966,9.66617 52.72457,28.99851 -88.46009,11.71656 -132.69013,71.47105 -132.69013,179.26349 0,38.07884 23.14022,149.09332 69.42066,333.04343 46.28044,183.9501 69.42066,298.77248 69.42066,344.46716 0,43.9369 -15.81735,81.723 -47.45209,113.3577 -8.72609,-11.106 -61.49225,-43.0584 -132.69013,-43.0584 z m 97.54042,382.2531 87.33429,268.9759 H 54.638384 l 89.475406,-267.2185 c 63.16448,23.2513 130.30771,28.4699 195.08085,-1.7574 z m 117.7515,-179.2636 c 0,-71.8954 -40.85133,-121.2181 -43.05838,-123.0239 38.66468,-40.4221 57.99702,-91.975 57.99702,-154.6587 0,-63.26945 -23.72606,-183.65719 -71.17816,-361.16319 -47.4521,-178.09183 -71.17815,-283.24802 -71.17815,-315.46857 0,-92.56089 51.5529,-138.84133 154.65869,-138.84133 C 458.99654,109.257 401.58537,74.986031 311.95362,103.69161 297.89374,59.168666 274.4606,24.604793 241.65422,0 210.60531,24.604793 188.05092,59.168666 173.99104,103.69161 83.773466,74.986031 25.776449,109.257 0,206.50451 c 102.51997,0 153.77996,46.28044 153.77996,138.84133 0,32.22055 -23.72605,137.37674 -71.178154,315.46857 -47.452102,177.506 -71.178152,297.89374 -71.178152,361.16319 0,62.6837 20.211079,114.2366 60.633238,154.6587 -5.758262,3.9866 -44.815871,50.0792 -44.815871,123.0239 0,39.1695 12.019829,101.43 76.450599,153.78 L 4.361816,1758.1803 v 41.8146 H 481.58284 v -41.8146 L 380.49555,1451.6827 c 20.17841,-14.7975 76.45059,-63.9592 76.45059,-152.0225 z"
     id="path1" />
</svg>
