<?xml version="1.0" encoding="UTF-8" standalone="no"?>
<svg
   width="13.32"
   height="17.977417"
   id="svg1333"
   sodipodi:version="0.32"
   inkscape:version="1.2.1 (9c6d41e410, 2022-07-14)"
   sodipodi:docname="US9A12VARA.svg"
   version="1.1"
   xmlns:inkscape="http://www.inkscape.org/namespaces/inkscape"
   xmlns:sodipodi="http://sodipodi.sourceforge.net/DTD/sodipodi-0.dtd"
   xmlns="http://www.w3.org/2000/svg"
   xmlns:svg="http://www.w3.org/2000/svg"
   xmlns:rdf="http://www.w3.org/1999/02/22-rdf-syntax-ns#"
   xmlns:cc="http://creativecommons.org/ns#"
   xmlns:dc="http://purl.org/dc/elements/1.1/">
  <metadata
     id="metadata1340">
    <rdf:RDF>
      <cc:Work
         rdf:about="">
        <dc:format>image/svg+xml</dc:format>
        <dc:type
           rdf:resource="http://purl.org/dc/dcmitype/StillImage" />
        <dc:date>03/04/06</dc:date>
        <dc:creator>
          <cc:Agent>
            <dc:title>Serge Thomas</dc:title>
          </cc:Agent>
        </dc:creator>
        <dc:publisher>
          <cc:Agent>
            <dc:title>Serge Rosmorduc</dc:title>
          </cc:Agent>
        </dc:publisher>
        <dc:description>variante optimisée du signe de Jsesh
valeur &quot;mSa&quot;</dc:description>
        <cc:license
           rdf:resource="http://creativecommons.org/licenses/GPL/2.0/" />
      </cc:Work>
      <cc:License
         rdf:about="http://creativecommons.org/licenses/GPL/2.0/">
        <cc:permits
           rdf:resource="http://web.resource.org/cc/Reproduction" />
        <cc:permits
           rdf:resource="http://web.resource.org/cc/Distribution" />
        <cc:requires
           rdf:resource="http://web.resource.org/cc/Notice" />
        <cc:permits
           rdf:resource="http://web.resource.org/cc/DerivativeWorks" />
        <cc:requires
           rdf:resource="http://web.resource.org/cc/ShareAlike" />
        <cc:requires
           rdf:resource="http://web.resource.org/cc/SourceCode" />
      </cc:License>
    </rdf:RDF>
  </metadata>
  <defs
     id="defs1338" />
  <sodipodi:namedview
     inkscape:window-height="1017"
     inkscape:window-width="1920"
     inkscape:pageshadow="2"
     inkscape:pageopacity="0.0"
     borderopacity="1.0"
     bordercolor="#666666"
     pagecolor="#ffffff"
     id="base"
     inkscape:zoom="36.920115"
     inkscape:cx="8.6673618"
     inkscape:cy="9.317414"
     inkscape:window-x="1072"
     inkscape:window-y="-8"
     inkscape:current-layer="svg1333"
     inkscape:showpageshadow="2"
     inkscape:pagecheckerboard="0"
     inkscape:deskcolor="#d1d1d1"
     showgrid="false"
     inkscape:window-maximized="1" />
  <path
     id="path1335"
     style="fill:#000000;stroke:none;stroke-width:0.9898"
     d="M 6.931376,0.0112652 C 6.8278927,0.00865242 6.7168872,0.03440728 6.5949986,0.08279373 6.1745418,0.2497042 6.1356863,0.50710742 6.2470221,0.79614568 6.3583578,1.0851833 6.5576692,1.2047912 6.8424486,1.1576547 L 7.3837454,2.969066 C 7.6857188,2.522773 7.9262287,2.3210448 8.1048302,2.3659066 l 0.067662,0.123725 C 8.1098559,2.5293745 8.0521908,2.5741945 8.0023704,2.6268891 7.6666817,2.9819441 7.3970027,3.2824509 7.1904252,3.5277618 6.7514477,4.1345832 6.5825705,4.4543526 6.6858592,4.4866305 c 0.1032893,0.032279 0.1803405,0.061173 0.2319844,0.086994 0.1032893,0.025822 0.1482357,0.1028731 0.1353241,0.2319844 -0.051643,0.154933 -0.013119,0.3238103 0.1159922,0.5045659 L 6.9178436,6.1027883 c 0.038733,0.1420212 0.13056,0.2145856 0.2725816,0.2145856 0.077467,0 0.2636737,-0.2074033 0.560629,-0.6205583 C 7.8026985,5.5806163 7.956801,5.5228274 8.2150229,5.5228274 8.3441339,5.6002934 8.3505552,5.786501 8.2343543,6.0834563 7.6146225,6.1351006 7.0283839,6.3938709 6.4732068,6.8586707 L 5.0986993,8.8537364 v 0.038664 C 4.1818877,8.0925895 3.557729,7.5748317 3.1152329,7.2317789 L 5.6496623,2.6713529 C 4.2225713,2.6610017 3.2458332,3.1288573 2.7189264,4.0767914 2.2881889,4.8517117 2.1225231,5.5186324 2.2240263,6.0776566 1.9492581,6.1084708 1.7751644,6.3830141 1.7020615,6.9012011 l -0.021265,0.077329 C 1.174116,7.1991272 0.72127434,7.6713988 0.31982118,8.3936346 -0.20708487,9.3415674 -0.08034087,10.401056 0.70066222,11.573753 1.8946401,9.0799988 2.8271858,7.7479441 2.8271858,7.7479441 c 0,0 1.243585,1.4634336 1.6316234,1.9969989 C 4.8203197,10.171009 5.226772,10.106799 5.6786604,9.5516226 6.2080155,8.9189795 6.582363,8.3629124 6.8018514,7.8852016 7.3730025,7.9364122 7.9344001,11.005952 7.7703861,12.281305 6.5696542,12.087638 5.3695606,11.875749 4.1688287,11.643349 3.4458078,11.501327 2.973213,11.549483 2.7537239,11.788339 2.5342355,12.027194 2.4957098,12.385489 2.6377318,12.8632 l 1.0845269,3.019663 C 3.4382144,16.205641 3.3675842,16.567147 3.5096064,16.96739 l -1.4904996,0.639891 v 0.386639 h 2.845675 l 5.1519862,-2.787678 -0.1353241,2.323709 -0.7558825,0.09666 v 0.367305 h 1.4731006 l 0.058,-0.618625 0.386641,-2.362373 c 0.03873,-0.529359 -0.02548,-0.858755 -0.19332,-0.987867 -0.167846,-0.12911 -0.400932,-0.08416 -0.697887,0.135324 0.657839,-0.438559 0.80032,-1.322692 0.427238,-2.650422 0.0025,-0.261265 0.07958,-0.737863 0.231985,-1.436369 l 1.821076,0.63989 c 0.568087,0.06455 0.773557,-0.200636 0.618625,-0.7945468 C 12.566729,7.9951783 12.076805,6.9042401 11.779849,6.6460185 11.504771,6.5108917 11.253303,6.3987658 11.014301,6.2961086 L 12.514467,3.6050899 12.011833,3.3344414 10.473004,6.0795899 C 10.289584,6.0126957 10.114685,5.9516068 9.9587721,5.909468 9.6359949,5.6641572 9.6680991,5.4137405 10.055432,5.1555188 10.442764,4.8972969 10.682273,4.5646861 10.77265,4.157986 10.863028,3.7512866 10.840555,3.4186749 10.704988,3.1604531 10.569422,2.9022313 10.455122,2.7397744 10.364745,2.6752191 l 0.195253,-0.2126523 c 0.206577,1e-7 0.412047,0.2844545 0.618625,0.8525426 L 12.26315,1.494032 C 12.560106,1.6231426 12.809243,1.546091 13.009367,1.2620476 13.209489,0.9780033 13.23755,0.68667526 12.825713,0.39017302 12.634688,0.25264576 12.45778,0.19052827 12.274749,0.21038513 c -0.18303,0.0198569 -0.37207,0.12144559 -0.59156,0.31511211 L 9.8814439,2.4432348 C 9.3608358,2.3112495 8.9369526,2.2775765 8.6035967,2.3349754 L 7.5538673,0.44623591 C 7.4061606,0.23113034 7.2650947,0.1029785 7.1111639,0.04606287 7.0534394,0.02471927 6.993466,0.01283289 6.931376,0.0112652 Z M 6.906244,0.34184294 c 0.015805,-1.0158e-4 0.030572,0.001787 0.044463,0.003866 0.09262,0.0138624 0.1518983,0.0768266 0.3131789,0.23198438 L 8.0371681,2.0295293 C 7.6938775,1.978901 7.6295135,2.0196661 7.5036042,2.2847122 L 7.0435017,0.85414177 C 6.719627,0.91519226 6.6392961,0.84644927 6.5640673,0.72075075 6.4888391,0.59505195 6.4606177,0.41454036 6.7187236,0.36697458 6.8000436,0.35198768 6.8588284,0.34214768 6.906244,0.34184294 Z m 5.461299,0.23778399 c 0.06273,0.006138 0.13301,0.035623 0.245517,0.0869941 0.267818,0.12228812 0.189661,0.31103757 0.07346,0.42723787 -0.1162,0.1161997 -0.223008,0.1684656 -0.558695,0.013532 L 11.236619,2.5379618 C 11.172063,2.2151847 11.113586,2.153324 10.726253,2.1145904 l 1.237251,-1.3667748 c 0.217874,-0.12473439 0.29948,-0.1784189 0.404039,-0.16818867 z M 9.1139623,2.6094904 c 0.1888244,-0.00148 0.3689302,0.036609 0.54323,0.1043928 L 9.4097423,2.978732 8.9225752,2.624956 c 0.064556,-0.00968 0.1284455,-0.01497 0.1913871,-0.015466 z M 8.4102764,2.7332154 C 9.1462089,3.1205477 9.7645525,3.6316681 10.268084,4.2643122 10.164796,4.5225339 10.007483,4.7215829 9.7944498,4.8636051 9.5814169,5.0056274 9.4433663,4.9478386 9.3788111,4.6896168 9.6360476,4.3697938 9.8166963,4.3887285 9.7809173,4.0071961 9.7556025,3.7372472 9.5965043,3.6180008 9.2995498,3.6050899 c -0.1162003,0 -0.2317769,0.044947 -0.3479765,0.1353242 C 9.0161285,3.2735362 8.7124113,3.1864138 8.0410346,3.083125 8.1185007,2.9281918 8.2424315,2.8106815 8.4102764,2.7332154 Z m 1.6528886,0.2435835 c 0.232399,0.1291112 0.346733,0.4728042 0.320911,0.9376035 L 9.7925167,3.2783785 Z M 4.7275243,3.3325082 2.9199795,6.5822226 2.8136533,6.0583247 C 2.7046743,5.5102867 2.8107909,4.9481028 3.1306986,4.3725716 3.4506065,3.7970401 3.9826001,3.4502217 4.7275243,3.3325082 Z m 2.9462017,0.079262 c 0.167844,0.025822 0.7220131,0.054253 0.9105386,0.1933204 0.045628,0.3108508 0.1079935,0.5687179 0.3673087,0.485234 0.1106088,-0.035609 0.2381974,-0.059721 0.3673085,-0.1759215 0.051643,0 0.1049446,0.032105 0.1565894,0.09666 1e-7,0.1420214 -0.1688772,0.3558458 -0.504566,0.6398904 v 0.019331 C 9.0096388,5.1350846 9.2106209,5.6121665 9.5721314,6.1027883 9.2235319,6.3093651 8.8812893,6.3434032 8.5456006,6.2013816 8.6876228,5.9431593 8.694043,5.69402 8.5649327,5.4551654 8.4358213,5.2163098 8.1385252,5.2066788 7.673726,5.4261672 7.5058812,5.4778116 7.4031461,5.4521283 7.3644135,5.3488386 7.403146,5.1809945 7.3774627,5.0570636 7.2870849,4.9795968 7.5840407,4.9408643 7.7317216,4.9023388 7.7317216,4.8636046 7.7317216,4.7732268 7.5776197,4.7218593 7.2677528,4.7089484 7.4097756,4.5281932 7.3307909,4.4061958 7.0338358,4.3416404 7.1113026,4.0705068 7.3251263,3.7603687 7.673726,3.4117702 Z M 7.8573802,3.6244219 C 7.7089027,3.6179665 7.6029573,3.6821759 7.5384017,3.8177422 7.667513,4.0888749 7.9648092,4.1017171 8.4296083,3.8564063 8.1972088,3.707929 8.005858,3.6308774 7.8573802,3.6244219 Z m 2.2367158,2.750948 c 0.06448,0.012896 0.125255,0.029354 0.187521,0.044463 l -0.9704681,1.73215 C 9.1533499,8.0574469 9.0325164,8.0168652 8.9612392,8.0398579 8.7611172,8.1044131 8.6166463,8.2155018 8.5262686,8.3704355 8.4358908,8.5253687 8.3845232,8.711576 8.3716123,8.9310645 8.3554736,9.0843837 8.4486779,9.2169206 8.6519267,9.3273711 L 8.3522802,9.8609351 8.8452471,10.187647 9.2144889,9.5245579 C 9.7132137,9.6542181 10.126978,9.7907024 10.347346,9.8764008 10.244056,10.521955 10.218028,10.96797 10.101829,11.355301 L 8.1976239,11.925597 C 8.2234466,11.02565 8.0169492,7.8471977 6.7999181,7.1409185 7.2518065,6.7664962 7.6277408,6.5881603 8.1183627,6.5106941 8.6864506,6.8334713 9.3452527,6.7885248 10.094096,6.3753699 Z m 0.752016,0.2203852 c 0.21042,0.084593 0.405589,0.1848036 0.583828,0.3015797 C 11.016783,7.3234006 10.766023,8.1204256 10.507801,9.1920469 10.238945,8.9142283 9.9956342,8.6868863 9.7828506,8.5057598 Z M 2.0539045,7.318773 C 2.1634542,7.4377735 2.2437699,7.4462521 2.4018811,7.5410914 L 0.7470591,10.493093 C 0.45375521,9.7982913 0.45417502,9.1850087 0.74899229,8.6546164 1.0438096,8.124225 1.5509762,7.5857711 2.0539045,7.318773 Z M 11.391275,7.8658695 12.359811,9.744943 10.907975,9.4356305 c 0.154933,-0.8908658 0.315456,-1.4148278 0.4833,-1.569761 z m -1.297179,4.1254555 c 0.400244,0.671379 0.122211,1.477861 -0.8332102,2.42037 -0.6971987,0.348601 -1.4844195,0.681213 -2.3623744,0.997533 -0.877954,0.316323 -1.5046513,0.764511 -1.8790733,1.34551 L 4.2268248,15.882863 c 1.2781987,-1.420221 2.5168178,-2.4707 3.7175495,-3.154987 0.7101102,-0.348601 1.4267011,-0.594529 2.1497217,-0.736551 z m -6.4298333,0.01933 c 1.3685765,0.206578 2.5834449,0.433243 3.6421546,0.678554 -0.8908656,0.542266 -1.7955964,1.244082 -2.712284,2.109124 -0.038734,-1.510599 -0.348871,-2.43908 -0.9298706,-2.787678 z" />
</svg>
