<?xml version="1.0" encoding="UTF-8" standalone="no"?>
<svg
   width="1794.3086"
   height="1798.636"
   version="1.1"
   id="svg1"
   xmlns="http://www.w3.org/2000/svg"
   xmlns:svg="http://www.w3.org/2000/svg">
  <defs
     id="defs1" />
  <path
     id="path1"
     style="fill:#000000;stroke:none;stroke-width:104.712"
     d="m 1206.9564,0.13492038 c -16.3277,0.42975351 -33.1145,1.88541222 -50.3633,4.36844072 -68.995,9.9321879 -117.5595,66.0871889 -145.6934,168.4645389 -17.41616,22.92029 -36.17384,55.00953 -56.26945,96.26609 -12.05732,25.97634 -12.72549,40.87345 -2.00782,44.69354 10.7176,3.82007 19.42447,8.78656 26.12305,14.89859 -8.03823,4.58409 -11.38652,9.55056 -10.04687,14.89858 1.33971,5.34811 5.35812,8.78605 12.05664,10.31407 9.37801,-1.52802 9.37801,0.76475 0,6.87679 -9.37788,6.11211 -10.048,11.45952 -2.00977,16.0436 8.03823,4.58402 12.05859,18.33598 12.05859,41.25626 0,22.92037 11.38713,33.61747 34.16203,32.08943 48.2296,-1.52801 61.2908,8.78593 39.1856,30.9422 -22.1052,22.15635 -48.5636,34.76293 -79.37692,37.81898 -45.55003,-1.52802 -81.05327,10.31438 -106.50782,35.52672 -25.4544,25.21233 -57.60741,41.638 -96.45898,49.27806 -38.8515,7.64014 -105.83575,32.85337 -200.95508,75.63795 -44.21043,-74.87304 -121.2455,-181.83558 -231.10156,-320.88547 4.01915,-55.00868 -29.472,-122.24194 -100.47656,-201.69899 -2.49405,1.8102 -4.25029,4.14697 -5.66992,6.72308 -2.68085,-3.7808 -5.36608,-7.56078 -8.39844,-11.30761 C 195.01513,100.38708 155.15949,66.771603 115.63806,51.491387 76.11669,36.211172 46.978001,36.975405 28.222041,53.783649 10.805863,69.063864 1.4269916,101.53411 0.08727535,151.19476 -1.2504589,200.78193 12.790657,258.3747 42.175166,323.95868 c -5.917818,-7.50778 -11.583164,-6.97654 -16.966797,2.57518 -6.028723,10.69612 0.333949,29.03348 19.089844,55.00982 64.306047,58.0648 115.214717,87.09705 152.726567,87.09705 37.51179,0 80.38376,-5.34749 128.61328,-16.04361 9.37795,64.17685 73.6839,182.59864 192.91797,355.26494 159.42531,-12.22415 300.76435,-51.18933 424.01758,-116.89421 29.47356,103.90538 50.72987,212.01328 66.33049,324.32275 0,0 13.5954,92.5873 30.0629,136.8117 -64.45457,-60.9958 -211.65036,-192.55089 -365.27302,-275.22045 -109.43592,-82.375 -162.00274,-51.10684 -189.78397,-8.75915 -52.00177,67.58114 -57.78844,225.547 128.42369,473.897 163.23318,174.8211 90.87798,268.2245 97.83355,286.8669 -23.43263,48.6332 -78.95266,81.4201 -141.44217,68.6529 -51.47903,-10.5178 -130.81635,75.3772 -98.13498,89.0117 53.88472,10.6175 182.30729,18.2822 223.46942,5.1239 84.27496,-18.8875 139.92603,4.8639 172.79113,-8.5401 32.8619,-13.4097 42.8746,-37.3234 30.0343,-71.7381 13.002,96.8381 204.66335,98.9199 338.92425,70.422 85.0996,-18.0631 118.5721,-182.2124 126.8477,-358.414 5.8837,-125.2749 -8.1786,-254.9976 6.9479,-350.0392 178.3598,36.1817 298.1541,54.9257 352.6797,54.2346 60.2868,-0.764 82.727,-38.965 67.3203,-114.602 -15.4067,-75.63702 -68.3255,-173.81192 -158.7558,-294.52554 -90.4303,-120.71362 -152.0561,-187.56581 -184.8789,-200.55398 -32.8229,-12.98809 -65.646,-21.39257 -98.4688,-25.21264 -32.823,-3.82007 -52.5847,-34.76178 -59.2832,-92.82658 32.1531,-12.22416 62.6319,-38.19947 91.4355,-77.928 28.8037,-39.72852 43.2071,-93.20983 43.2071,-160.44273 0,-68.760872 -27.1305,-114.601996 -81.3887,-137.522357 C 1300.7784,6.7962589 1255.9395,-1.1543402 1206.9564,0.13492038 Z m 12.4355,34.16561762 c 24.1148,1.528028 50.7403,6.494464 79.8789,14.898588 58.2774,16.808244 87.416,55.773424 87.416,116.894224 0,58.0648 -19.4258,108.10587 -58.2773,150.12645 -38.8516,42.02049 -63.6358,53.8629 -74.3535,35.5267 -13.3971,-19.86431 -4.0181,-46.98706 28.1348,-81.36749 32.153,-34.38043 40.1897,-68.37914 24.1132,-101.99563 -16.0764,-33.61641 -50.2376,-36.67112 -102.4863,-9.16682 -18.7559,-21.39225 -60.9578,-37.43692 -126.6035,-48.13305 13.3971,-36.67247 39.1875,-60.357228 77.3691,-71.053432 19.0909,-5.348065 40.6939,-7.25757 64.8086,-5.72954 z M 72.934932,84.151107 c 9.712893,1.146021 21.602967,4.776721 35.669928,10.8888 28.13384,12.224153 60.95689,39.727933 98.46875,82.512523 26.79419,27.50437 37.17716,57.68191 31.14843,90.53432 -6.02866,32.85247 -19.09189,56.92053 -39.1875,72.20068 -17.41625,18.33626 -39.52222,25.97644 -66.3164,22.92039 C 105.924,360.15177 85.830074,337.99539 72.432979,296.73891 48.31822,241.73016 36.595152,195.1248 37.26501,156.9243 37.934868,118.7238 42.289279,95.803266 50.32751,88.163122 55.686342,84.343086 63.222038,83.005085 72.934932,84.151107 Z M 1061.138,143.17295 c 53.5885,4.58409 97.1284,19.86444 130.6211,45.84079 -1.3397,22.92028 7.035,24.06551 25.1211,3.43728 18.0861,-20.62832 35.5018,-26.74002 52.2481,-18.33587 16.7462,8.40409 19.0904,26.73922 7.0332,55.00761 -12.0575,28.26838 -27.799,51.95321 -47.2247,71.05343 -19.4258,19.10028 -23.7801,38.19964 -13.0625,57.29986 10.7177,19.10029 17.4163,35.52811 20.0958,49.28028 6.6984,76.40101 44.88,124.15161 114.5449,143.2519 69.6649,19.10021 96.4593,53.86315 80.3828,104.28789 2.6794,-6.11212 -18.7565,59.97361 -64.3067,198.25948 -12.0237,36.50306 -21.033,83.28815 -27.7675,135.46621 -4.1209,-0.49084 -8.3822,-0.76681 -12.4219,-1.38114 h -2.0098 c -41.5309,-33.61649 -75.024,-61.88456 -100.4785,-84.80478 -25.4545,-22.92035 -79.0434,-23.68452 -160.7656,-2.29227 -1.3397,21.39234 5.3588,43.54864 20.0957,66.46892 29.4735,-15.28022 58.2782,-19.86562 86.4121,-13.75358 28.1339,6.11213 50.2379,22.92094 66.3145,50.42534 -21.4354,13.7522 -44.8796,12.2237 -70.334,-4.58455 -25.4543,-16.80817 -40.1917,-16.04394 -44.211,2.29225 45.5501,53.4807 110.5261,73.3465 194.9278,59.5944 l -2.0098,2.29 c 6.0336,1.2631 10.5718,2.0816 16.4824,3.3081 -10.4628,131.1619 -19.3661,88.0075 -11.1832,207.4719 l -225.8402,-100.6869 c -17.0593,-84.0025 -25.6148,-159.3712 -25.6148,-159.3712 -16.1516,-110.78146 -30.1589,-210.86591 -52.2641,-300.25507 -22.1052,-89.38925 -7.7039,-140.58001 43.2051,-153.56818 50.9086,-12.98817 77.0331,-40.10879 78.373,-81.36528 1.3397,-41.25664 -19.4263,-59.21291 -62.2969,-53.8648 -42.8707,5.34809 -60.9563,-11.07757 -54.2578,-49.27807 25.4545,-15.28022 34.1633,-26.35832 26.125,-33.23445 -8.0383,-6.87606 -21.4355,-11.84254 -40.1914,-14.89859 0,-10.69613 -10.04879,-21.3911 -30.14448,-32.08722 20.09569,-48.8967 39.52138,-82.51441 58.27728,-100.8506 18.7559,-12.22416 37.8477,-12.9884 57.2735,-2.29227 19.4257,10.69612 39.8557,18.33631 61.291,22.9204 v -13.75136 c -13.3971,-1.52801 -30.1426,-8.40396 -50.2383,-20.62812 -20.0956,-12.22415 -40.8616,-13.7527 -62.2969,-4.58452 8.0385,-13.75219 14.7371,-24.44706 20.0957,-32.08722 z m 191.9766,36.74303 c -2.7213,0.33424 -5.7562,1.07497 -9.1055,2.22097 -13.3971,4.58409 -25.4542,15.66219 -36.1719,33.23445 -10.7178,17.57219 -14.0681,30.94307 -10.0488,40.11124 -9.3781,4.58403 -15.4066,11.84098 -18.0859,21.77316 -2.6794,9.93211 0.6708,16.80806 10.0488,20.62813 9.3779,3.81999 23.1092,-3.43695 41.1953,-21.77315 18.0863,-18.33627 29.8094,-35.52832 35.168,-51.57256 5.3586,-16.04422 6.3629,-28.26765 3.0137,-36.67173 -2.512,-6.30306 -7.8499,-8.95326 -16.0137,-7.95051 z m -184.4102,15.75846 c -8.729,-0.42976 -16.6091,1.93357 -23.6426,7.09064 l -20.0957,16.04361 v 16.0436 h 10.0469 c 24.1148,13.75219 51.5793,13.75219 82.3926,0 l 30.1445,6.87679 v -18.33587 l -28.1347,-2.29226 c -19.2583,-16.23522 -36.1626,-24.71025 -50.711,-25.42651 z m 182.3379,5.9434 c 4.0191,0.76401 5.6935,4.20421 5.0235,10.31629 -1.3397,12.22415 -6.3642,23.68335 -15.0723,34.37947 -8.7081,10.69613 -17.0809,18.33631 -25.1192,22.92039 -8.0382,4.58409 -8.0382,1.14616 0,-10.31406 8.0383,-11.46013 8.0383,-15.66239 0,-12.60633 -8.0384,3.05606 -9.7127,-0.76519 -5.0234,-11.46131 4.689,-10.69613 11.7217,-19.86253 21.0996,-27.50269 8.7083,-4.58404 15.0727,-6.49578 19.0918,-5.73176 z m -191.914,5.73176 c -4.0193,7.64016 -4.0193,15.28031 0,22.92039 -6.6984,-3.05605 -12.0569,-6.11299 -16.0762,-9.16904 1.3397,-4.58401 6.6982,-9.16726 16.0762,-13.75135 z m 24.1152,4.58453 24.1152,16.04361 c -10.7176,1.52803 -20.7664,2.29225 -30.1445,2.29225 8.0386,-4.58408 10.0486,-10.69579 6.0293,-18.33586 z m -809.02927,42.69755 c 13.52876,32.05478 19.35926,68.96295 17.25977,110.8684 -46.59921,31.63647 -88.9967,42.77519 -127.32618,34.06314 20.81883,-4.29217 39.96193,-12.27069 56.99219,-24.89632 26.79419,-21.39233 43.87576,-53.86257 51.24414,-97.4111 1.28705,-7.60666 1.74882,-15.134 1.83008,-22.62412 z m 921.56437,16.89457 c 9.3779,4.58402 11.3879,9.55049 6.0293,14.89859 -5.3589,5.34811 -9.3793,5.34811 -12.0586,0 -2.6792,-5.3481 -0.6691,-10.31457 6.0293,-14.89859 z m -165.789,19.48089 c -2.0093,0.76402 -3.0137,3.44002 -3.0137,8.02402 0,4.58409 -1.6741,7.63881 -5.0234,9.16682 -3.3491,1.52804 -7.0335,-0.76466 -11.0528,-6.87677 -4.0193,-6.11206 -7.3695,-9.16682 -10.0488,-9.16682 -1.33991,0 -3.01408,1.14523 -5.02339,3.43727 -2.00997,2.29197 -2.34584,4.96576 -1.00586,8.0218 4.0194,-3.05604 8.70975,-1.14436 14.06835,5.73177 5.3589,6.87614 11.0515,8.78561 17.0801,5.72954 6.0285,-3.05605 8.709,-8.02246 8.039,-14.89858 -0.6699,-6.87606 -2.0102,-9.93307 -4.0195,-9.16905 z m -31.39842,46.12815 c 1.84202,-0.19101 4.26882,0.0959 7.28312,0.85987 6.0287,1.52803 13.7335,2.67328 23.1114,3.43729 9.3779,0.764 12.7261,1.14724 10.0468,1.14724 l -40.19132,2.29226 c -4.01927,-1.52803 -5.35755,-3.43973 -4.01757,-5.73177 0.66988,-1.14598 1.92548,-1.81389 3.76757,-2.00489 z m 38.43162,12.31896 c -1.3397,3.05605 -5.3581,6.11306 -12.0567,9.16904 -6.6982,3.05606 -12.0568,5.34876 -16.0761,6.87679 -5.3586,0 -8.373,-1.14746 -9.04296,-3.43951 -0.66999,-2.29203 0.33436,-4.96581 3.01366,-8.0218 z m 422.0078,380.4776 h 2.0117 c 30.8134,99.32128 99.8074,186.42029 206.9844,261.29335 -91.1001,-9.16818 -160.7647,-10.69665 -208.9942,-4.58453 -25.7484,3.26309 -50.2633,4.64965 -73.7207,4.42859 16.6121,-74.3333 41.037,-161.14407 73.7188,-261.13741 z M 634.07486,1004.8512 c 140.30505,21.233 148.45462,42.3471 199.44099,67.5631 50.98649,25.2158 107.00807,103.8277 222.94495,172.2309 104.85,61.8619 192.7631,32.9332 259.4529,136.056 0.4369,176.5801 -28.7621,296.7544 -88.1683,325.1151 -57.5836,27.4906 -120.2297,47.9624 -210.8723,12.7808 -57.20536,-22.2033 -118.64333,-60.007 -146.23105,-65.5937 -88.9988,-75.359 -5.50402,-216.4755 -70.24174,-350.1847 -64.73701,-133.7109 -50.20138,-237.4673 -166.32545,-297.9675 z" />
</svg>
