<?xml version="1.0" encoding="UTF-8" standalone="no"?>
<!-- Created with Inkscape (http://www.inkscape.org/) -->

<svg
   width="818.50146"
   height="1800"
   viewBox="0 0 818.50146 1800"
   version="1.1"
   id="svg1691"
   xmlns="http://www.w3.org/2000/svg"
   xmlns:svg="http://www.w3.org/2000/svg">
  <defs
     id="defs1688">
    <clipPath
       clipPathUnits="userSpaceOnUse"
       id="clipEmfPath1">
      <path
         d="M 0,0 H 124.43852 V 129.53846 H 0 Z"
         id="path1068" />
    </clipPath>
    <pattern
       id="EMFhbasepattern"
       patternUnits="userSpaceOnUse"
       width="6"
       height="6"
       x="0"
       y="0" />
  </defs>
  <path
     id="path8"
     style="display:inline;fill:#000000;stroke:none;stroke-width:105.293;stroke-dasharray:none"
     d="m 627.88507,0 0.15629,0.1295605 c -37.2842,0 -80.28242,9.4862412 -107.18353,24.9146875 -32.76097,18.797627 -66.30918,64.414004 -86.48061,117.575112 -5.76822,15.13542 -16.4542,39.60209 -23.82472,54.38045 -8.79015,17.58906 -12.96606,31.14775 -12.17869,39.28768 1.00728,10.84091 2.83795,12.57988 13.97196,13.65115 10.57547,1.00733 12.77508,2.84007 12.77508,10.8152 0,5.21909 1.92045,9.56692 4.20969,9.56692 2.28896,0 3.66301,3.11494 3.11355,6.86876 -1.55648,9.80629 16.49027,51.28337 23.50393,53.97531 h 3.66267 c 6.95873,0 21.73765,-1.83104 37.03784,-4.76085 15.41909,-2.92998 24.89662,-4.39681 30.88474,-4.39681 4.57794,0 7.04887,0.91865 8.697,2.38349 5.59224,5.59226 10.52814,21.77128 4.83693,30.21023 -33.05418,14.35395 -127.80882,80.06506 -80.19177,291.96145 11.52703,51.29507 17.96468,94.17345 19.11737,128.75433 L 175.62233,1548.4225 c 111.87835,13.825 142.76776,-16.1053 126.62994,30.0026 -17.29047,44.9553 -14.22664,38.9581 -34.97516,45.8746 -20.74857,6.9164 -55.94761,21.2054 -105.51365,43.1067 -34.58097,5.7632 -54.94431,16.4853 -61.28417,32.0466 -2.34959,5.7673 -1.85491,10.2918 1.41488,13.6019 H 42.11744 A 42.117441,42.117441 0 0 0 0,1755.1722 42.117441,42.117441 0 0 0 42.11744,1797.2897 H 818.50147 V 53.29049 a 42.117441,42.117441 0 0 0 -42.1175,-42.117439 42.117441,42.117441 0 0 0 -40.1349,34.718097 C 719.99297,23.616354 694.20497,9.0767247 658.75137,2.564475 649.32943,0.8247109 638.85444,0 627.88507,0 Z M 612.7409,31.131535 c 73.85407,0 107.61327,30.556262 101.86327,92.131905 -2.7471,29.07121 -13.7616,52.43759 -38.4835,81.36192 -12.6907,14.84228 -25.05128,25.1697 -29.35473,25.1697 -1.00713,0 -1.64934,-0.91457 -1.64934,-1.8303 0,-1.83127 6.31746,-17.98345 14.07277,-35.84711 28.6867,-66.19973 17.7549,-107.119804 -23.79596,-107.119804 -9.69647,0 -21.06956,2.197152 -33.97982,6.866713 -7.96575,2.9301 -18.07237,4.213799 -28.51975,4.213799 -24.7767,0 -51.59659,-7.324941 -57.43847,-18.239245 -5.03576,-9.476727 7.41716,-25.117532 28.86113,-36.095958 12.12282,-6.226003 25.99427,-8.87988 53.91156,-10.198261 h 14.47786 z m 16.47268,81.281725 0.0184,1.05089 c 7.14205,0 13.24891,2.38206 17.65312,7.23481 11.22547,12.40684 1.73849,41.17711 -27.76295,84.03745 -8.42358,12.19594 -13.25836,23.96079 -13.25836,32.05491 0,14.36625 11.74787,31.69911 24.14556,35.62709 10.64316,4.13222 13.85221,18.85454 9.98026,61.03532 -14.80353,-0.35336 -47.35136,4.07958 -66.87583,11.80646 -5.31035,-25.81132 -16.85922,-52.42264 -39.8964,-52.42264 -5.58521,0 -11.85724,0.91456 -18.98987,1.83029 -7.69122,1.28196 -14.56697,1.92285 -20.47262,1.92285 -25.45447,0 -33.41974,-11.26319 -16.94774,-28.7974 9.06473,-9.62298 8.69626,-9.99724 -13.36119,-14.83158 -5.95144,-1.28185 -10.80287,-4.94628 -10.80287,-8.05948 0,-3.20471 -4.21189,-8.51428 -9.41266,-11.89284 l -9.4024,-6.13252 8.05743,-19.13794 c 5.1274,-12.10453 7.04997,-16.52823 10.22705,-16.52823 1.73976,0 3.93559,1.37451 7.32325,3.57218 6.86737,4.48656 15.11046,6.68368 24.06534,6.68368 12.3701,0 26.10298,-4.21304 39.50773,-12.58178 11.29877,-7.05012 24.74965,-12.77095 29.87706,-12.77095 5.12762,0 10.56607,-2.01501 12.08615,-4.48731 1.28166,-2.10599 3.6e-4,-3.11357 -3.3871,-3.11357 -1.73975,0 -4.21133,-4.8e-4 -7.23276,0.91515 h -5.76852 c -8.33231,0 -20.45681,-1.55654 -30.30893,-4.02871 -9.44917,-2.38058 -17.5796,-3.57217 -24.72138,-3.57217 -13.57858,0 -23.55941,4.3967 -32.20297,13.58945 l -9.74172,10.36484 6.41017,-12.61672 c 6.77549,-13.2215 19.03357,-19.54924 38.94834,-19.54924 7.14202,0 15.22922,0.91628 24.4129,2.38144 10.19099,1.73956 17.94554,2.65496 22.98156,2.65496 7.96581,0 9.17428,-2.19636 2.47194,-6.40809 -8.69852,-5.40219 -39.66621,-11.18951 -57.64003,-11.18951 -2.01436,0 -3.93531,0.0737 -5.58344,0 h -7.32531 c -10.79512,0 -9.26602,-4.30457 3.66266,-17.27883 6.86715,-6.86714 12.4618,-10.08106 17.85467,-10.08106 0.91568,0 1.83,0.0916 2.74544,0 4.94442,1.00724 20.52006,3.93801 34.56593,6.59321 14.04556,2.65548 30.0962,7.04903 35.6723,9.86921 3.3879,1.73944 5.95135,2.65702 8.60653,2.65702 4.39497,0 9.16534,-2.65674 18.90759,-9.15766 11.25301,-7.50818 21.94046,-11.24298 30.91356,-11.24298 z m -1.74805,9.95971 c 0.059,0 0.10336,0.0288 0.16248,0.0288 0.0147,0 0.0326,-0.0104 0.0473,-0.0104 z m 0.16248,0.0288 c -11.08414,0.0273 -26.15163,10.43408 -34.10732,28.42105 -4.39496,9.85209 -7.04932,20.30739 -5.859,23.22834 1.09893,2.92979 -0.91562,7.41674 -3.66267,10.01729 -6.95852,5.76839 -7.41609,18.09544 -0.91514,20.78726 3.113,1.28195 5.76943,1.92284 8.33299,1.92284 6.50094,0 12.37897,-4.39786 22.73479,-15.25728 16.03252,-16.84738 26.8622,-38.16202 26.8622,-52.84835 0,-11.10446 -5.69228,-16.1945 -13.38585,-16.27115 z m -2.00716,14.92619 c 0.61198,3.79457 2.06736,15.00109 -3.72436,26.35014 -4.21163,8.14896 -10.64775,17.37987 -14.40177,20.47466 -2.56379,2.10597 -4.12085,3.20405 -4.85339,3.20405 -1.19022,0 -0.91404,-2.56444 0.91721,-8.69906 1.46496,-6.04311 1.46407,-9.06306 -0.0638,-9.06306 0,0 -0.91705,-0.002 -1.28327,0.9131 -0.91564,0.91572 -1.7374,0.91719 -2.28684,0.91719 -3.113,0 -1.6502,-7.32406 4.02665,-18.16519 5.22668,-10.11098 12.97662,-15.75411 21.66951,-15.93183 z m -120.53238,34.87442 h 0.0104 c 4.21171,0 10.18297,1.10015 13.45167,3.20612 3.66248,2.28897 2.19604,4.48565 -5.12895,7.78185 -6.68415,3.0215 -11.51628,4.57782 -14.10769,4.57782 -2.74682,0 -2.93067,-1.73787 -0.0843,-5.2174 2.38058,-2.92978 3.20586,-6.4115 1.83236,-7.87644 -1.7395,-1.64817 0.91336,-2.47195 4.02666,-2.47195 z m -31.28372,0.90693 -0.0556,0.46684 c 1.46491,0 2.47194,1.46604 2.47194,3.93822 0,3.29621 3.11262,7.68979 6.86669,9.93298 4.02874,2.38078 4.85342,3.57217 2.56448,3.57217 -1.73977,0 -5.21924,-0.91667 -10.38335,-2.01539 -7.50795,-1.92299 -9.25733,-11.0699 -2.93053,-14.97966 0.91572,0 1.00846,-0.91516 1.4663,-0.91516 z m 260.46182,13.84446 v 245.221 c -10.1052,-41.02828 -33.0023,-77.46675 -58.2262,-116.75868 -8.1848,-12.74978 -7.8763,-23.97234 -6.5026,-38.04554 1.6481,-17.5618 4.1186,-21.48785 29.5089,-46.84125 14.7288,-14.72894 26.2136,-29.16367 35.2199,-43.57553 z m -144.36946,5.22766 c 1.37329,0 2.92967,0.91536 4.5778,2.28892 2.8384,2.83838 2.92977,5.03757 0,6.68572 -0.91568,0 -1.5574,0.91309 -2.38144,0.91309 -1.64813,0 -3.29721,-0.91548 -4.30429,-2.47193 -2.56383,-4.12033 -0.53142,-5.65625 1.8303,-7.2307 z m 17.40017,183.28079 c 21.21868,0.53817 43.35743,12.11709 64.20039,41.78429 18.7423,26.67753 39.035,78.56508 22.8972,135.04728 -16.138,56.48222 12.2579,172.56287 -24.6268,179.72917 l -47.26902,9.1844 c -12.15287,2.36117 -3.15748,-23.7249 -5.62251,-33.3608 5.76357,-38.03909 13.2703,-97.88758 22.49211,-179.72918 9.2214,-81.84154 -6.32212,-122.22183 -46.66645,-121.06911 -40.34443,1.15268 -56.60884,34.02585 -48.53993,98.577 -6.91619,58.78762 -4.59237,125.07387 6.93456,198.84657 -3.3132,17.51268 12.69602,47.19613 -4.49965,53.97734 l -25.18615,9.93298 c -3.45805,-36.88636 -10.60157,-80.48541 -21.55228,-130.62782 -16.99337,-68.35382 -34.87193,-114.93012 4.31046,-180.53328 14.21457,-30.68412 56.44702,-82.94279 103.12807,-81.75884 z M 734.26657,521.74011 V 788.8856 c -1.7118,-11.65426 -3.2971,-23.1458 -4.1891,-34.01682 -4.6158,-56.25264 -19.0253,-131.74515 -2.8873,-207.82325 2.979,-8.74065 5.1971,-17.1041 7.0764,-25.30542 z m -55.8775,241.3938 c 31.1227,50.71879 31.6563,109.50006 1.6864,176.3565 l 26.6523,538.98599 H 249.3484 l 268.68789,-665.11624 30.99785,-14.43057 c 1.69506,13.81123 3.90052,27.66655 7.30887,41.98172 11.52702,48.41333 13.3172,90.58371 5.24822,126.31735 -27.66474,41.49724 -38.02507,92.77134 -31.10892,153.86444 14.98513,2.3047 25.34547,-3.943 31.10892,-18.9283 55.32956,2.305 82.30286,-4.13 81.1501,-19.1152 0,-54.177 -9.10782,-94.02369 -27.55113,-119.38282 v -1.68634 c 8.75463,-75.87095 11.98703,-137.45988 10.12217,-185.16661 z m 55.8775,161.07453 v 391.66536 l -10.8996,-374.5099 c 4.5101,-5.2252 8.0584,-10.99486 10.8996,-17.15546 z M 402.51152,1548.4225 h 234.94457 c 2.3054,43.8026 -8.55271,79.6483 -24.69053,94.0569 -16.13765,14.4086 -49.01501,23.8782 -98.58113,28.4889 -29.97018,16.1375 -45.5117,28.461 -46.6644,37.1057 -0.25055,1.879 0.11644,3.513 0.90282,4.9809 H 361.9488 c 8.89335,-5.3366 13.12399,-15.2522 12.53035,-30.0931 4.61081,-56.4821 -11.73576,-54.4266 28.03237,-134.5393 z m 317.15385,0 h 14.6012 v 164.6324 h -17.065 c 6.7132,-5.8424 7.0676,-16.1823 6.3257,-33.4679 -1.591,-44.0282 -1.9559,-89.3853 -3.8619,-131.1645 z" />
</svg>
