<?xml version="1.0" encoding="UTF-8" standalone="no"?>
<!-- Created with Inkscape (http://www.inkscape.org/) -->

<svg
   width="1800"
   height="1800"
   viewBox="0 0 1800 1800"
   version="1.1"
   id="svg5"
   xml:space="preserve"
   inkscape:export-filename="US9A14VARA.svg"
   inkscape:export-xdpi="96"
   inkscape:export-ydpi="96"
   inkscape:version="1.2.2 (732a01da63, 2022-12-09)"
   sodipodi:docname="US9A14VARA.svg"
   xmlns:inkscape="http://www.inkscape.org/namespaces/inkscape"
   xmlns:sodipodi="http://sodipodi.sourceforge.net/DTD/sodipodi-0.dtd"
   xmlns="http://www.w3.org/2000/svg"
   xmlns:svg="http://www.w3.org/2000/svg"><sodipodi:namedview
     id="namedview7"
     pagecolor="#ffffff"
     bordercolor="#666666"
     borderopacity="1.0"
     inkscape:showpageshadow="2"
     inkscape:pageopacity="0.0"
     inkscape:pagecheckerboard="0"
     inkscape:deskcolor="#d1d1d1"
     inkscape:document-units="mm"
     showgrid="false"
     inkscape:zoom="0.041627935"
     inkscape:cx="708.65874"
     inkscape:cy="768.71456"
     inkscape:window-width="1920"
     inkscape:window-height="1137"
     inkscape:window-x="-8"
     inkscape:window-y="-8"
     inkscape:window-maximized="1"
     inkscape:current-layer="svg5" /><defs
     id="defs2" /><path
     id="path1335-6-8-02"
     style="fill:#000000;stroke:none;stroke-width:125.81"
     d="m 715.67969,1.5878906 -0.002,0.00195 c -18.65197,0.053964 -38.36061,3.758892 -59.125,11.1171872 -29.41905,10.425047 -56.33123,25.220475 -80.73632,44.384766 l -5.39063,5.992187 C 442.31075,7.2956355 388.62564,22.095364 327.44141,159.05078 276.43959,262.34884 248.92073,343.79995 233.11719,378.61328 L 196.1582,462.54492 C 127.28591,450.29164 78.856023,533.7802 100.34375,570.82031 35.393005,585.27227 5.4962193,644.63571 1.0585938,717.27734 l 48.8261722,56.36914 c 9.917464,8.07089 19.685613,14.29597 29.40039,19.75196 -10.211954,36.36871 -29.854798,124.57902 -33.068359,236.77736 -3.496667,122.0924 -9.541087,304.9007 -7.542969,520.2324 l 69.195312,1.6074 c 0,0 1.92731,-382.8462 6.48633,-502.1074 4.46462,-116.79458 27.46809,-228.00118 28.42969,-232.61328 100.60384,54.60298 183.70289,180.92645 318.69922,266.65818 44.48673,28.252 77.33745,30.3 103.79687,-2.0683 95.39863,-71.0735 172.39422,-151.99697 246.22656,-232.29105 61.21355,-32.31285 56.80072,-82.95055 129.03125,-15.68555 72.23054,67.2651 146.96574,117.6172 224.20314,151.05664 15.4647,6.69538 29.5244,13.40749 42.1797,20.13476 -115.8036,-41.64074 -228.82699,-62.47265 -339.06448,-62.47265 -44.61392,8.21652 -71.7078,44.37411 -81.28125,108.47265 -19.13181,105.1844 -34.27291,259.6743 -45.42187,463.4668 -17.53228,83.8277 -54.98697,135.5988 -112.36133,155.3125 -39.84221,18.0742 -82.87248,37.7948 -129.0918,59.1641 -49.40553,9.856 -74.10949,27.9281 -74.10937,54.2343 14.34518,14.7774 39.84491,20.5268 76.5,17.2461 62.15214,10e-5 107.57352,-3.6952 136.26367,-11.0839 28.68727,-7.4809 74.90639,-7.9403 138.6582,-1.379 58.95905,11.5032 72.50155,-39.4464 40.62695,-152.8476 73.30426,-172.5666 104.38357,-305.6917 93.23438,-399.3731 38.25166,113.4011 82.87678,226.8046 133.877,340.209 4.7718,60.8148 -7.983,101.0794 -38.2637,120.793 -73.31037,24.6493 -124.30945,45.6043 -153.00002,62.8652 -28.69301,17.261 -19.13616,29.1734 28.67383,35.7344 55.78384,6.6837 101.20815,7.141 136.26949,1.377 35.0615,-5.8552 73.3114,-6.3126 114.75,-1.377 79.6844,-4.9297 91.6364,-55.0582 35.8555,-150.3828 -14.3451,-226.7991 -49.4086,-354.9941 -105.1894,-384.5801 81.2809,31.223 144.2351,61.629 188.8613,91.2149 125.9038,80.5317 219.1386,116.6893 279.7031,108.4726 124.3102,-18.0797 170.5285,-101.0767 138.6543,-248.9902 -2.8488,-30.1092 -14.5732,-53.7104 -36.75,-83.8496 13.6791,12.9291 35.6992,-91.0702 74.2793,14.3066 70.9419,193.7695 24.8272,549.9804 26.4476,546.945 l 61.4356,-3.0645 c 0,0 14.5354,-454.9525 -28.1879,-559.7379 -36.588,-89.7377 -128.4648,-182.26368 -128.4648,-182.26368 44.4549,-69.08458 39.1305,-116.18897 -15.9746,-141.3125 -39.3118,-14.61838 -85.0456,26.71179 -137.1973,123.99023 C 1360.2433,719.10372 1261.5575,575.94223 1190.5996,496.71094 1119.6417,417.47985 1029.5682,387.67551 920.38281,407.29688 L 867.22852,337.34375 C 887.5729,282.97046 893.29909,229.12282 884.4082,175.80273 875.51761,122.48233 850.08355,76.736719 808.10938,38.566406 780.89201,13.815194 750.08298,1.4887577 715.67969,1.5878906 Z M 703.16797,59.982422 h 0.002 v 0.002 c 29.49787,-0.04166 55.71265,12.292914 78.64453,37.005859 41.93207,45.189416 56.86637,105.734016 44.80078,181.630856 -12.06444,75.89629 -21.96293,77.31895 -29.69531,4.26953 -7.73227,-73.04933 -28.60045,-118.64151 -62.60547,-136.77734 -34.00501,-18.13575 -70.97372,3.72036 -110.90234,65.56641 -75.33558,37.01292 -110.19649,34.64433 -104.58203,-7.10547 5.61468,-41.74961 40.36638,-81.41516 104.2539,-118.996095 28.94893,-17.029169 55.64289,-25.56157 80.08399,-25.595703 z m -253.7832,86.378908 c 11.58139,-0.68711 24.6165,4.99875 39.65429,19.9414 -21.40556,51.4883 -25.12007,116.34983 -11.14062,194.58399 9.42722,30.61411 19.19453,84.51758 29.30468,161.71094 9.93523,25.82782 19.61543,34.18857 29.03907,25.08203 9.42409,-9.10625 17.74398,-14.46255 24.96093,-16.06836 -1.01852,9.57284 1.49348,17.97059 7.53711,25.19336 6.04349,7.22257 12.92707,7.63747 20.65235,1.24609 6.28212,-6.07161 6.87851,-5.03586 1.7793,3.10938 -5.09335,8.14268 0.63837,13.87754 17.19531,17.20312 16.55663,3.32538 28.91803,11.86888 37.08398,25.62891 8.16561,13.76017 19.40876,15.15408 33.72852,4.17969 14.3199,-10.97455 30.59195,-27.05837 48.8164,-48.24805 l 16.89844,26.61719 -111.92969,223.26367 C 531.29769,699.08267 331.84806,595.82357 269.04688,510.78906 l -10.4043,-7.88281 c 24.00469,-70.08019 78.88774,-203.11737 110.90234,-256.21289 23.43029,-38.85861 45.09565,-98.27072 79.83985,-100.33203 z m 262.77734,40.1289 0.002,0.002 c 0.10012,-5.1e-4 0.20343,-2.7e-4 0.30469,0 v 0.004 c 14.58912,0.11766 25.51844,13.10553 32.78711,38.96094 8.86119,31.51901 11.92547,62.38213 9.17773,92.58985 -2.74293,30.20663 4.68557,53.08673 22.29102,68.64062 17.60458,15.55413 38.52063,19.85812 62.74609,12.91016 l 39.1875,35.67382 c 32.83177,26.96405 75.74462,35.32946 128.7383,25.09571 52.9937,-10.2336 140.4819,70.38358 262.4609,241.84961 121.9784,171.46596 181.0019,271.26748 177.0703,299.4023 -3.9319,28.1342 -19.0503,38.8996 -45.3574,32.2911 -26.3066,-6.6087 -94.2611,-38.99897 -203.8633,-97.16997 -109.6067,-58.16988 -188.3688,-111.5222 -236.28708,-160.05273 -47.91825,-48.53073 -34.65603,-97.04402 39.78708,-145.54102 74.4432,-48.49703 80.7992,-93.91745 19.0703,-136.25976 -75.5093,-14.35273 -146.89793,5.42529 -214.16597,59.33594 -35.04183,-59.18415 -67.2855,-70.70265 -96.73047,-34.55469 -29.44483,36.14811 -55.63049,42.75442 -78.55664,19.81641 11.51678,-24.37032 11.67806,-38.03662 0.48437,-40.99805 -11.19355,-2.96076 -25.8033,3.01642 -43.83007,17.93164 -0.34231,-23.28953 -11.74782,-30.879 -34.21875,-22.76367 L 532.23828,393.1875 c 4.18645,-30.52779 40.60786,-54.98869 109.26563,-73.38086 7.61216,-14.15582 -5.10272,-17.16797 -38.14453,-9.03711 -33.04019,8.13585 -59.96196,23.85684 -80.76172,47.17774 -6.22866,-29.76815 -4.11288,-48.54174 6.34375,-56.32032 10.45731,-7.77825 46.50379,-23.20097 108.14257,-46.26172 15.17019,7.52863 24.90511,-0.0883 29.20508,-22.85351 4.29999,-22.76468 16.32061,-37.51136 36.06055,-44.24024 3.43585,-1.16968 6.70696,-1.76465 9.8125,-1.78125 z m -5.93359,10.92969 c -6.62055,0.0569 -12.56664,5.44385 -17.8418,16.1582 -6.89042,13.99524 -9.00606,32.76834 -6.34375,56.32032 2.66186,23.55221 9.35743,35.69316 20.08398,36.42187 -5.54587,16.81096 -6.22481,29.81319 -2.03515,39.00586 4.18961,9.19303 11.30883,10.72331 21.35547,4.59375 10.04676,-6.13029 16.31257,-23.10062 18.80078,-50.91406 2.48824,-27.81342 0.78348,-50.40984 -5.11914,-67.78906 -5.90256,-17.37907 -13.44658,-28.16227 -22.63086,-32.34961 -2.15194,-0.98092 -4.24191,-1.46407 -6.26758,-1.44727 z m 4.23632,26.68164 h 0.002 c 2.32154,-0.0195 4.66094,1.31887 7.02148,4.0293 7.95308,9.13458 12.12293,21.83669 12.50586,38.10742 0.38297,16.27058 -1.17504,28.69025 -4.66797,37.25586 -3.49406,8.56572 -6.3609,5.6984 -8.59765,-8.60156 -2.23204,-14.30153 -4.73576,-17.2497 -7.51172,-8.84375 -2.7723,8.4052 -5.97231,7.55938 -9.59571,-2.53711 -3.62366,-10.09786 -5.39769,-22.16597 -5.30859,-36.20508 5.27169,-15.4092 10.65588,-23.14335 16.15234,-23.20508 z m -47.77539,88.65625 -29.96875,30.03516 c -38.77275,2.39678 -64.77426,11.68635 -78.0039,27.87109 -13.22971,16.18405 -17.19861,36.92766 -11.9043,62.23047 28.9807,1.33992 51.09343,-6.69472 66.33203,-24.10547 15.23914,-17.40995 26.29468,-38.56365 33.16992,-63.45898 l 28.73828,-25.08594 z m 55.33008,9.46094 c 5.93623,0.0467 8.35808,2.76526 7.26758,8.1543 -1.48571,7.33992 -4.98959,10.45528 -10.50781,9.34765 -5.51958,-1.10871 -7.04565,-6.60838 -4.58008,-16.5039 3.06758,-0.68254 5.67388,-1.01475 7.82226,-0.9961 z m -98.58789,32.87695 h 0.002 c -5.23436,18.29943 -14.85508,33.67946 -28.86328,46.14258 7.81014,-20.42967 4.90657,-30.68729 -8.70703,-30.77344 12.36724,-5.8676 24.88978,-10.99018 37.56836,-15.36914 z m -56.41602,33.58399 c 0.22795,15.52453 9.41343,19.70989 27.55274,12.55859 -11.4329,10.33167 -22.66765,14.39025 -33.70508,12.17383 -2.49127,-11.90629 -0.43952,-20.14948 6.15234,-24.73242 z M 232.25977,634.69922 h 0.002 c 2.20891,0.004 4.47293,0.12896 6.79297,0.39258 82.27471,38.82715 196.71217,196.0032 286.51758,257.02148 2.80293,13.39577 -6.91902,31.91502 -29.16211,55.55664 -60.55922,-73.2741 -245.67825,-158.69393 -315.43946,-240.57617 -1.99297,-43.36691 18.16575,-72.39587 51.28907,-72.39453 z M 994.53711,1018.916 c 87.30379,7.8964 167.34109,27.6665 279.52929,84.6192 65.0309,44.8317 252.1184,-5.4754 277.3555,15.955 27.0089,22.9346 69.4745,110.7878 69.4746,145.9571 -10e-5,98.6143 -47.8134,141.3463 -143.4395,128.1933 -47.81,-14.7897 -125.1075,-55.0569 -231.8886,-120.7988 -178.5037,-96.9648 -275.72246,-170.922 -291.65824,-221.8711 -1.6056,-21.369 11.93658,-32.0547 40.62695,-32.0547 z"
     sodipodi:nodetypes="cccccccccccccccscsccssccccccccccccccccccccccccsccscccscccccsccccsscccsscccccsccscscccccsscccccccccsccscsscccccccccccccsccssccccsscsssscscccccscccccccccccccccccccccccssccccsccsscccc" /></svg>
