<?xml version="1.0" encoding="UTF-8" standalone="no"?>
<svg
   width="1654.0454"
   height="1797.0172"
   version="1.1"
   id="svg1"
   xmlns="http://www.w3.org/2000/svg"
   xmlns:svg="http://www.w3.org/2000/svg">
  <defs
     id="defs1" />
  <path
     id="path1"
     style="fill:#000000;stroke:none;stroke-width:100.073"
     d="m 32.614364,7.6374952 c -12.84785,0 -22.48431,8.3505838 -28.9082,25.0527338 -6.423884,16.702152 -4.49694996,25.695677 5.78125,26.980469 29.55,8.993471 55.88764,23.769717 79.01367,44.326172 23.126026,20.55652 41.113076,53.9608 53.960936,100.2129 0.37292,25.94304 -21.67706,21.03792 -44.943457,-4.72048 -20.219532,-22.38519 -41.386175,-53.14413 -56.803545,-46.72024 15.41737,70.66299 39.435486,97.69293 122.946222,178.63407 38.82696,197.27846 109.0336,296.99604 191.46819,455.77431 h 1.92578 c 34.68909,19.27174 91.54265,16.38143 170.55664,-8.67188 79.01404,-25.05321 146.14314,-47.21661 201.38867,-66.48828 55.24556,-19.27172 79.65825,-15.4179 73.23438,11.5625 -3.85432,74.51728 3.85334,127.51507 23.125,158.99219 19.27173,31.47712 64.23937,172.48334 134.90234,423.01554 L 463.0513,1525.2868 c -75.80206,33.404 -113.70312,87.0431 -113.70312,160.9179 0,73.8749 26.98058,110.1716 80.94141,108.8867 l 1223.75581,1.9258 c -33.404,-62.9541 -80.2987,-88.0078 -140.6836,-75.1601 -60.3846,12.8479 -101.1761,-14.1311 -122.375,-80.9395 -21.1986,-66.8086 -57.4953,-80.299 -108.8866,-40.4707 48.8217,-93.789 50.7505,-192.7182 5.7832,-296.7851 1.2848,-83.5112 6.4225,-164.4548 15.416,-242.8262 98.9281,23.1241 179.5492,34.367 241.8613,33.7265 62.3117,-0.6424 87.686,-27.9434 76.123,-81.9043 -11.5631,-53.96066 -64.881,-192.07662 -159.9551,-414.34365 -34.689,-62.95423 -111.7771,-94.43164 -231.2616,-94.43164 V 399.81415 c 34.689,-12.84785 68.0933,-38.86498 100.2129,-78.05078 32.1195,-39.18582 48.1796,-92.82459 48.1796,-160.91797 0,-68.093405 -30.1914,-113.704045 -90.5761,-136.830084 C 1227.4987,0.88927671 1159.4042,-5.5343632 1083.6021,4.7438316 1007.8,15.022094 953.83879,70.91019 921.71927,172.4079 c -17.98693,23.12601 -38.54388,54.60345 -61.66992,94.43164 -11.56306,26.9804 -11.88348,42.07707 -0.96289,45.28906 10.92066,3.21191 20.23468,8.02915 27.94336,14.45313 -8.99348,6.42388 -12.8473,12.20659 -11.5625,17.3457 1.28479,5.13915 5.78156,8.35006 13.49023,9.63476 3.85439,-1.2847 2.5685,0.96459 -3.85547,6.7461 -6.42388,5.78148 -5.46043,10.91926 2.89063,15.41601 8.35108,4.49671 12.52734,18.30951 12.52734,41.43555 0,23.12613 12.20638,34.04652 36.61719,32.76172 28.2652,0 48.82019,-1.28588 61.66797,-3.85547 v 53.96289 C 908.87058,496.1746 847.84465,514.15978 815.72513,553.98797 691.10142,575.82928 582.09289,614.49966 470.31693,681.30829 461.90597,597.2712 279.44866,470.04726 229.18663,342.96562 218.90839,246.60711 207.0225,177.87158 193.53234,136.75859 180.0421,95.645614 126.40331,52.604847 32.614364,7.6374952 Z M 1133.9791,35.487972 c 31.6176,-0.100354 67.501,5.068969 107.6504,15.507813 64.239,16.70215 96.3593,54.603205 96.3593,113.703125 0,59.09991 -21.5203,109.52783 -64.5605,151.28321 -43.0402,41.75535 -70.3413,52.99828 -81.9043,33.72656 -14.1326,-19.27174 -3.8551,-46.25231 30.834,-80.94141 34.689,-34.68901 43.3621,-68.73628 26.0176,-102.14062 -17.3445,-33.40432 -54.9251,-35.9742 -112.7403,-7.70899 -20.5564,-21.84125 -66.8082,-37.90143 -138.75587,-48.17969 14.13257,-35.973872 42.39717,-59.100645 84.79497,-69.378904 15.8992,-3.854323 33.3341,-5.810882 52.3047,-5.871094 z M 977.60794,143.49969 c 59.09996,3.85439 107.92146,19.27153 146.46486,46.25196 -2.5695,21.84125 6.1016,22.48424 26.0157,1.92773 19.9141,-20.55646 39.5076,-26.65966 58.7793,-18.30859 19.2717,8.35106 21.8415,26.66064 7.7089,54.92578 -14.1326,28.2652 -31.7973,51.71244 -52.9961,70.3418 -21.1989,18.62933 -26.0181,37.5799 -14.455,56.85156 11.563,19.27173 19.2726,35.97478 23.1269,50.10742 -3.8543,106.63678 3.8533,159.95508 23.125,159.95508 19.2718,0 59.7427,0.64294 121.4121,1.92773 61.6692,1.28473 68.0929,68.73631 19.2715,202.35352 -23.126,64.239 -48.8207,130.40456 -77.0859,198.49805 h -73.2324 C 1038.9506,837.40541 1006.7325,843.96786 969.89896,844.99188 c -6.42389,15.4173 3.21071,28.58715 28.90625,39.50781 25.69559,10.92066 48.82239,36.29486 69.37889,76.12305 -42.3978,-10.27826 -73.5546,-25.37306 -93.46873,-45.28711 -19.91406,-19.91413 -35.00884,-43.36342 -45.28711,-70.34375 -2.56959,-11.56307 -10.92214,-13.48993 -25.05469,-5.78125 -13.16473,7.18073 -19.93432,16.68811 -20.83594,28.32813 -2.65514,-5.38701 -5.1688,-10.2362 -7.10742,-12.91016 -18.62933,-25.69554 -24.0896,-80.29979 -16.38086,-163.81055 -2.56959,-82.22594 30.51428,-123.66027 99.25,-124.30273 68.73575,-0.64233 103.74645,-23.44672 105.03125,-68.41406 0,-56.53036 -23.7698,-82.227 -71.30664,-77.08789 -47.53687,5.13908 -67.45087,-10.27813 -59.74219,-46.25196 28.26512,-15.41735 38.22216,-26.98071 29.8711,-34.68945 -8.3511,-7.70862 -24.0888,-12.20547 -47.21485,-13.49023 1.28479,-12.84786 -8.99463,-23.76826 -30.83594,-32.76172 20.55653,-48.82166 41.75641,-82.8689 63.59766,-102.14063 20.55652,-10.2782 41.75441,-9.95574 63.59566,0.96485 21.8413,10.92063 44.3252,18.30781 67.4512,22.1621 v -15.41796 c -14.1326,-1.2848 -32.4401,-8.02892 -54.9238,-20.23438 -22.4837,-12.20538 -45.28804,-13.81183 -68.41408,-4.81836 7.70869,-14.13255 14.77533,-24.41196 21.19922,-30.83594 z m 212.04886,36.79688 c -2.9309,0.20074 -6.1621,0.78447 -9.6953,1.74805 -14.1326,3.85436 -27.3025,14.77485 -39.5078,32.76171 -12.2055,17.98697 -15.7388,31.47724 -10.5996,40.47071 -11.5631,5.13914 -18.6297,12.20575 -21.1992,21.19922 -2.5696,8.99347 1.6066,15.73769 12.5273,20.23437 10.9207,4.49671 26.0174,-2.56995 45.2891,-21.19922 19.2717,-18.62933 32.119,-35.65296 38.5429,-51.07031 6.4239,-15.41735 7.3873,-27.30128 2.8907,-35.65234 -3.3726,-6.26332 -9.4554,-9.09441 -18.2481,-8.49219 z m -204.31058,14.69531 c -9.81652,-0.60224 -18.82125,1.50627 -27.01171,6.32422 l -19.27149,17.34375 v 15.41797 h 9.63672 c 26.9804,14.13256 57.17186,14.13256 90.57616,0 l 34.6895,7.70898 v -17.3457 l -32.7617,-3.85352 c -20.8777,-16.05975 -39.4966,-24.59197 -55.85748,-25.5957 z m 202.32228,4.63672 c 4.4968,0.803 6.4256,4.25666 5.7832,10.35937 -1.2847,12.20538 -6.7469,24.08929 -16.3828,35.65235 -9.6358,11.56306 -18.6294,19.27266 -26.9804,23.12695 -8.3511,3.85439 -8.3511,-10e-4 0,-11.56445 8.351,-11.56299 8.351,-15.41681 0,-11.5625 -8.3511,3.85436 -9.9556,0.32106 -4.8164,-10.59961 5.139,-10.92066 12.2057,-20.87762 21.1992,-29.87109 9.6358,-4.49674 16.7005,-6.34402 21.1972,-5.54102 z m -211.98829,7.46875 c -5.13911,7.70868 -5.13911,15.41634 0,23.125 -7.70866,-3.85431 -14.13238,-7.06518 -19.27149,-9.63477 2.56958,-5.13908 8.99329,-9.63584 19.27149,-13.49023 z m 25.05269,3.85352 26.9805,15.41796 c -10.2782,3.85432 -20.5557,5.78125 -30.83397,5.78125 8.99337,-5.13908 10.27737,-12.20575 3.85347,-21.19921 z m 127.1934,59.74218 c 8.9935,5.13918 10.5999,9.9584 4.8184,14.45508 -5.7815,4.49672 -9.9578,4.17424 -12.5273,-0.96484 -2.5696,-5.13911 3e-4,-9.63585 7.7089,-13.49024 z m -183.26172,19.0918 c -0.52193,-0.20074 -1.10371,-0.13956 -1.74609,0.18164 -2.56959,1.28473 -3.53302,4.1751 -2.89062,8.67188 0.64236,4.49669 -0.964,7.38708 -4.81836,8.67187 -3.85432,1.28479 -8.03058,-0.96266 -12.52735,-6.74414 -4.49668,-5.78154 -8.03002,-8.67383 -10.59961,-8.67383 -2.56949,0 -4.81695,0.96344 -6.74414,2.89063 -1.92719,1.92717 -2.24963,4.81952 -0.96484,8.67383 5.13908,-3.85431 10.59929,-2.24987 16.38086,4.8164 5.78148,7.06628 11.8847,8.99513 18.30859,5.7832 6.42391,-3.21196 9.31427,-8.35169 8.67188,-15.41796 -0.4818,-5.29972 -1.50451,-8.25129 -3.07032,-8.85352 z m -36.43554,45.95117 c 2.24837,-0.3212 5.13875,-0.15997 8.67187,0.48242 7.06631,1.2848 15.41687,2.56879 25.05274,3.85352 9.63586,1.28487 13.81213,2.57075 12.52734,3.85547 h -46.25195 c -5.13918,-1.28472 -6.74555,-3.21364 -4.81836,-5.7832 0.9636,-1.2848 2.56998,-2.08701 4.81836,-2.40821 z m 44.32422,12.04492 c -2.56959,3.85433 -7.38686,7.06716 -14.45313,9.63672 -7.06628,2.56959 -13.16951,4.49646 -18.30859,5.78125 -5.13918,0 -8.34998,-0.64294 -9.63477,-1.92773 -1.28473,-1.2848 -0.64371,-3.85461 1.92578,-7.70899 z m 447.10544,416.26953 c 23.126,93.78895 55.8894,167.02321 98.2871,219.69922 l -179.2284,-15.41796 c 28.2652,-47.53697 55.2459,-115.63139 80.9413,-204.28126 z M 889.91654,881.7243 c 44.82166,78.47416 85.32967,122.7219 121.41606,131.8964 57.0713,14.5097 131.0427,26.3936 230.2969,39.5079 -7.7087,55.2455 -12.8465,140.0413 -15.416,254.3867 H 1031.5689 C 961.87985,1080.498 914.91466,939.52363 889.91654,881.7243 Z m 137.79686,487.4609 h 198.5001 c 35.9739,97.6434 22.4835,186.9357 -40.4707,267.8769 -93.7891,55.2457 -207.17178,63.596 -340.14658,25.0528 -132.97479,-38.5436 -259.84971,-30.1912 -380.61914,25.0547 37.25869,-118.1999 224.83903,-224.1953 562.73632,-317.9844 z" />
</svg>
