<?xml version="1.0" encoding="UTF-8" standalone="no"?>
<!-- Generator: Adobe Illustrator 25.2.3, SVG Export Plug-In . SVG Version: 6.00 Build 0)  -->

<svg
   version="1.1"
   id="Ebene_1"
   x="0px"
   y="0px"
   viewBox="0 0 1110 1800"
   xml:space="preserve"
   sodipodi:docname="US9A515XT.svg"
   width="1110"
   height="1800"
   inkscape:version="1.2.1 (9c6d41e410, 2022-07-14)"
   xmlns:inkscape="http://www.inkscape.org/namespaces/inkscape"
   xmlns:sodipodi="http://sodipodi.sourceforge.net/DTD/sodipodi-0.dtd"
   xmlns="http://www.w3.org/2000/svg"
   xmlns:svg="http://www.w3.org/2000/svg"><defs
   id="defs723" /><sodipodi:namedview
   id="namedview721"
   pagecolor="#ffffff"
   bordercolor="#000000"
   borderopacity="0.25"
   inkscape:showpageshadow="2"
   inkscape:pageopacity="0.0"
   inkscape:pagecheckerboard="0"
   inkscape:deskcolor="#d1d1d1"
   showgrid="false"
   inkscape:zoom="0.32153204"
   inkscape:cx="975.01948"
   inkscape:cy="898.82178"
   inkscape:window-width="1920"
   inkscape:window-height="1137"
   inkscape:window-x="-8"
   inkscape:window-y="-8"
   inkscape:window-maximized="1"
   inkscape:current-layer="Ebene_1" />

<path
   id="path686"
   class="st2"
   d="M 901.12908,5.3954592 C 874.48144,4.0051753 845.30811,15.922666 829.15261,35.383879 c -4.51707,13.043774 6.05954,24.645698 13.91955,33.630086 16.99375,14.655589 4.22814,42.085135 31.8579,35.787115 11.00415,-3.1341 24.53596,-7.052883 34.55502,1.10571 20.42632,13.47161 27.60956,38.434 38.23562,59.23839 15.76001,34.85305 31.68806,70.29316 55.5172,100.41028 19.4611,24.64488 9.0853,34.1264 -6.77426,43.37943 -73.02937,42.61367 -156.71561,65.55823 -228.30226,111.1468 -5.48217,-5.21354 16.03899,-23.27143 13.33272,-40.06618 -23.7693,-82.01365 -30.32668,-145.01476 -124.92643,-170.68445 -62.76139,-6.69601 -143.78913,18.88468 -177.4781,75.34803 -11.83989,25.80898 -9.9889,56.07565 0.14963,82.07367 -2.11925,30.72402 -16.22785,53.67679 5.73067,82.53032 6.23834,5.07423 15.29263,4.28894 22.12793,5.94055 18.59559,49.92654 36.22595,59.61699 86.07288,42.38448 0.61687,2.24859 5.2039,4.05908 1.56239,5.40227 -66.07456,75.77531 -82.33232,178.54322 -132.23896,263.5218 -0.29849,0.0199 -0.58763,0.0408 -0.88612,0.0607 -44.9319,3.1142 -73.64601,18.82515 -115.42392,34.21703 -23.64994,8.71566 -40.98248,20.47558 -64.65232,29.12169 -22.16747,8.10884 -48.62346,23.44072 -70.63173,11.86945 -6.94556,-3.64997 -12.79077,-6.10361 -18.04513,-7.93631 l 22.6118,-124.0831 -207.3071586,1.97049 28.0160006,148.18338 c -7.894311,1.88712 -12.855947,10.01447 -9.739625,17.76344 3.273375,8.11869 12.228721,12.64532 19.452049,16.68482 26.376094,14.74516 56.075874,22.5769 86.292474,22.90523 70.61154,0.77607 93.07666,-13.12418 114.20937,-16.71595 76.3325,-12.99405 169.24162,-27.88735 243.32553,-54.35302 37.20114,-16.93405 63.21959,-51.33962 79.82529,-87.715 10.94444,-17.54096 40.92232,-112.86812 67.90534,-93.31735 76.79017,51.96624 131.45268,124.19981 190.54266,193.42843 -57.61755,223.48549 -113.89308,447.31959 -173.24179,670.35729 -14.36707,52.2348 -23.99806,106.1918 -47.10078,155.4318 -3.52211,6.7557 -5.45249,15.1731 -13.34243,18.0684 -29.81862,18.8344 -60.75014,39.4586 -96.65785,42.5828 -15.35207,-1.383 -33.86935,-5.7207 -46.29627,6.2884 -8.56651,8.1188 -6.46583,25.2719 5.583,28.8438 31.58963,18.2076 69.90452,14.9638 104.49889,9.9592 24.22702,-2.746 49.33851,-9.2028 73.50583,-3.1734 19.08312,7.492 43.89821,8.806 59.73781,-6.2476 12.20801,-13.6406 9.00397,-34.1069 1.91993,-49.4093 -6.38757,-23.8987 5.82009,-47.4298 12.28725,-69.9555 37.36034,-113.9913 91.55614,-221.3672 136.1099,-332.5329 26.77411,0.4676 54.25443,-1.472 80.6007,0.4781 3.22364,20.0084 14.38738,37.2413 22.28729,55.4587 23.27188,101.246 42.5734,203.8948 51.2594,307.459 -8.21837,16.8842 -27.76008,22.6651 -43.41055,30.5053 -18.42647,8.079 -36.36422,20.9926 -57.42731,19.2714 -17.14299,-0.1493 -36.47537,-2.3365 -51.22053,8.1403 -7.0342,7.3029 -2.41733,19.2219 5.0448,24.3161 18.70496,18.7646 47.17017,20.7043 72.23296,19.0924 33.54962,-1.8406 66.41312,-10.645 100.15183,-9.8192 19.8095,8.3974 45.0816,12.0782 63.498,-1.473 14.3671,-12.2081 12.9043,-34.416 4.9845,-49.8874 -8.8451,-17.2027 -10.9151,-37.4104 -6.9452,-56.3741 5.9398,-74.1635 0.8762,-148.843 -7.9888,-222.519 -5.3926,-40.1064 -13.4513,-79.8558 -18.7544,-119.9322 -2.0496,-146.1879 17.9791,-286.7039 -1.1737,-432.93166 -18.3667,-78.4318 -66.02548,-147.18474 -111.91247,-212.18472 -36.30573,-53.61784 -67.34936,-112.3783 -80.79114,-176.16447 2.78586,-41.24064 87.56535,-71.80619 119.15501,-89.18794 27.8088,-15.41176 53.4991,-35.23176 76.9999,-56.77239 12.596,-11.55136 35.1522,-35.49968 39.6891,-45.8571 7.094,-16.22761 0.2675,-46.21427 -5.2545,-61.98422 -7.1537,-20.4263 -18.2467,-39.06196 -20.0973,-42.52439 C 1049.0462,161.296 1013.8642,109.82684 967.40987,69.859732 950.09774,52.895844 947.22253,25.374801 926.35843,11.435561 918.61275,7.8015164 910.0117,5.8593348 901.12908,5.3959064 Z M 629.47859,258.03308 c 26.04548,0.93248 50.61297,12.99922 70.03127,41.23214 15.34212,24.73443 21.41219,53.63685 29.9787,81.12729 -18.44635,17.30216 -36.88414,34.6043 -55.3305,51.90646 -8.46701,-12.4667 -17.1119,-24.84329 -26.08634,-36.92197 9.74055,-27.51034 13.34265,-60.36279 -2.33775,-86.43045 -24.3265,-26.09752 -46.08711,-25.06416 -66.70245,1.05325 -15.82965,-5.8702 -32.24542,-13.22251 -49.53764,-11.04357 30.56857,-24.916 66.49768,-42.12204 99.98471,-40.92315 z m -25.19439,100.1324 -0.2293,0.93471 -0.10883,0.51885 c -4.29817,16.85444 -12.58672,35.65863 -4.86592,52.83145 19.23237,25.11252 34.41495,53.42877 55.56757,77.02896 39.59897,17.69019 47.23979,-30.35553 78.62048,-29.45013 41.74809,11.12353 69.54788,14.31651 82.2136,57.32816 22.34657,89.38622 66.68155,161.57035 116.90662,236.45029 -24.12754,21.96849 -48.25507,43.92754 -72.38261,65.89594 -34.17653,-42.16588 -64.90109,-87.99419 -107.68393,-122.18057 -35.59927,-31.49017 -74.14347,-59.76744 -107.71306,-93.24746 -23.42109,-39.02189 -4.99447,-64.93986 12.09876,-98.4398 -15.50131,-45.60846 -45.95711,-66.62191 -89.61546,-51.81707 9.66095,-5.7309 14.74615,-20.73469 5.76176,-29.27135 -6.59651,-7.03429 -17.84917,-6.6856 -25.87841,-3.7505 -5.21353,-8.19838 -13.5726,-14.25787 -22.90522,-16.90444 1.32328,-6.48707 2.21967,-14.03827 5.43336,-19.42095 17.67029,-2.48738 34.96208,-11.28383 46.53334,-24.49676 9.10378,2.85551 19.76034,2.87586 28.24725,-2.00933 z m 354.00208,439.01195 0.46832,0.84532 0.15929,0.28953 c 19.63036,34.96254 43.31021,69.01978 49.58831,109.4445 14.1681,69.87534 8.2678,141.69092 5.8103,212.42182 -2.5272,52.6727 -5.4617,105.4038 -4.0886,158.166 -79.86468,0.9651 -159.73001,0.9952 -239.59455,1.234 36.12664,-135.4026 69.4483,-271.5309 104.76903,-407.14254 27.65961,-25.0428 55.08899,-50.48437 82.8879,-75.25863 z"
   style="clip-rule:evenodd;fill-rule:evenodd;stroke-width:0.99495" /></svg>
