<?xml version="1.0" encoding="UTF-8" standalone="no"?>
<svg
   width="1691.4252"
   height="1800"
   id="svg1333"
   sodipodi:version="0.32"
   inkscape:version="1.2.2 (732a01da63, 2022-12-09)"
   sodipodi:docname="US9A12VARA.svg"
   version="1.1"
   xml:space="preserve"
   xmlns:inkscape="http://www.inkscape.org/namespaces/inkscape"
   xmlns:sodipodi="http://sodipodi.sourceforge.net/DTD/sodipodi-0.dtd"
   xmlns="http://www.w3.org/2000/svg"
   xmlns:svg="http://www.w3.org/2000/svg"
   xmlns:rdf="http://www.w3.org/1999/02/22-rdf-syntax-ns#"
   xmlns:cc="http://creativecommons.org/ns#"
   xmlns:dc="http://purl.org/dc/elements/1.1/"><metadata
     id="metadata1340"><rdf:RDF><cc:Work
         rdf:about=""><dc:format>image/svg+xml</dc:format><dc:type
           rdf:resource="http://purl.org/dc/dcmitype/StillImage" /><dc:date>03/04/06</dc:date><dc:creator><cc:Agent><dc:title>Serge Thomas</dc:title></cc:Agent></dc:creator><dc:publisher><cc:Agent><dc:title>Serge Rosmorduc</dc:title></cc:Agent></dc:publisher><dc:description>variante optimisée du signe de Jsesh
valeur &quot;mSa&quot;</dc:description><cc:license
           rdf:resource="http://creativecommons.org/licenses/GPL/2.0/" /></cc:Work><cc:License
         rdf:about="http://creativecommons.org/licenses/GPL/2.0/"><cc:permits
           rdf:resource="http://web.resource.org/cc/Reproduction" /><cc:permits
           rdf:resource="http://web.resource.org/cc/Distribution" /><cc:requires
           rdf:resource="http://web.resource.org/cc/Notice" /><cc:permits
           rdf:resource="http://web.resource.org/cc/DerivativeWorks" /><cc:requires
           rdf:resource="http://web.resource.org/cc/ShareAlike" /><cc:requires
           rdf:resource="http://web.resource.org/cc/SourceCode" /></cc:License></rdf:RDF></metadata><defs
     id="defs1338" /><sodipodi:namedview
     inkscape:window-height="1017"
     inkscape:window-width="1920"
     inkscape:pageshadow="2"
     inkscape:pageopacity="0.0"
     borderopacity="1.0"
     bordercolor="#666666"
     pagecolor="#ffffff"
     id="base"
     inkscape:zoom="0.41799165"
     inkscape:cx="1128.013"
     inkscape:cy="918.67864"
     inkscape:window-x="1912"
     inkscape:window-y="-8"
     inkscape:current-layer="svg1333"
     inkscape:showpageshadow="2"
     inkscape:pagecheckerboard="0"
     inkscape:deskcolor="#d1d1d1"
     showgrid="false"
     inkscape:window-maximized="1" /><path
     id="path8912"
     style="display:inline;fill:#000000;stroke:none;stroke-width:91.3854"
     d="M 1016.3796,1356.9183 761.56739,1166.9307 c -46.39145,-40.132 -86.42392,-60.2124 -119.99662,-60.2124 -17.06269,0 -32.46656,1.203 -46.1387,3.7411 -40.18916,3.201 -78.19342,26.0798 -92.09869,50.2363 -55.31301,96.0916 -61.04156,199.7478 -185.91798,422.4768 -21.54889,51.0723 -69.42208,120.0363 -102.82873,122.2066 -33.40666,2.1702 -89.31176,13.7691 -167.74476,34.0253 -62.45588,0 -62.45588,18.6963 0,54.868 h 330.30341 c 14.52461,-13.0215 14.62714,-42.8153 5.18611,-86.2213 -9.44101,-43.406 92.84897,-104.9851 126.25562,-172.2647 73.43043,-102.959 85.64431,-170.5629 90.242,-243.9145 l 61.29271,41.7189 153.69558,143.9223 -142.49279,42.9493 c -37.68477,8.5288 -74.55092,21.1269 -104.25918,30.1064 -69.5871,18.85 -102.55683,73.6471 -98.89436,164.248 -1.82361,34.8224 62.05488,80.1645 62.05488,80.1645 H 1687.8077 c -30.5204,-57.7656 -73.0018,-80.8509 -127.3285,-69.2976 -54.3268,11.5532 -91.3428,-12.9453 -110.8762,-73.7513 -19.5332,-60.8062 -52.0402,-72.7204 -97.8212,-35.6288 44.5601,-83.9124 45.9787,-172.6827 4.4707,-266.3242 m -54.9056,3.5668 -164.8807,38.3009 m 174.8997,1.9592 c 24.4166,99.114 8.5883,183.8537 -47.5696,254.3887 -84.8471,52.293 -187.056,60.7421 -306.69721,25.4745 -119.03061,-35.2677 -232.91625,-28.232 -341.56973,21.0211 12.20831,-37.7 101.32195,-100.6632 267.35433,-188.8322 z M 322.35536,0 C 166.02917,84.879598 87.86482,194.58421 87.86482,329.11048 c 0,110.07583 22.58602,192.28955 67.64594,246.77978 -28.2425,19.86444 -30.69916,60.07849 -7.21058,120.76598 l 2.41856,9.60882 c -41.90189,54.45109 -62.85392,132.92467 -62.85392,235.4209 0,134.52624 78.16435,241.82744 234.49054,321.90274 V 843.19433 l 166.80188,201.79007 c 45.12507,52.8494 70.51701,19.3287 155.04853,-9.4461 129.84381,-44.19941 172.95349,-55.15927 236.00002,-76.86356 56.7233,-19.5274 118.6798,273.94906 124.05831,453.82006 l 49.8308,-7.0688 C 1049.2,1253.8213 1012.836,942.86314 880.03019,866.27532 c 56.4064,-46.44361 103.3201,-68.55176 164.56141,-78.16072 70.9106,40.03751 153.1027,34.43144 246.5761,-16.81663 7.9874,1.58744 15.8369,3.31446 23.5518,5.17236 l -121.4427,215.17962 c -19.7326,-11.75737 -34.619,-16.61301 -43.5269,-13.75755 -24.9796,8.00751 -43.1112,21.62056 -54.3924,40.8387 -11.2813,19.2181 -17.7274,42.4397 -19.339,69.6651 -2.0129,19.0037 9.6469,35.3525 34.9776,49.0465 l -37.3961,66.2617 61.7478,40.6359 46.2493,-82.458 c 62.2803,16.0877 113.6735,33.2241 141.1898,43.8576 -11.308,70.2309 -15.2228,121.3119 -25.7995,165.2252 l 58.6719,-8.3235 c 4.5261,-33.1802 12.8415,-77.3412 24.9546,-132.5118 l 227.2372,79.274 c 70.9103,8.0076 96.6973,-24.8225 77.3581,-98.4916 -85.4152,-238.62379 -146.6574,-373.95329 -183.7246,-405.98335 -33.9215,-16.5586 -65.6113,-31.12365 -95.1378,-43.75152 l 187,-333.40306 -62.8538,-33.63089 -191.9701,340.14859 c -23.1117,-8.39135 -44.654,-15.37935 -64.2755,-20.6493 -40.2904,-30.42855 -36.2629,-61.65714 12.0856,-93.68721 48.348,-32.03002 78.1647,-73.26915 89.4461,-123.71656 11.2813,-50.44734 8.4606,-91.68649 -8.4614,-123.71655 -16.9216,-32.03003 -31.0231,-52.04881 -42.3045,-60.05633 l 24.1737,-26.42544 c 25.7858,0 51.5723,35.23335 77.3581,105.69942 l 135.3749,-225.81207 c 37.0671,16.01496 68.0903,6.40651 93.0704,-28.82648 24.9801,-35.23309 28.4414,-71.324426 -22.9655,-108.102802 -20.864,-14.926617 -40.283,-22.7699504 -60.1173,-22.8474914 -25.5013,-0.099696 -51.6889,12.6387454 -82.511,39.6641114 L 1264.5778,283.63955 c -114.4242,-28.82709 -192.5886,-21.2198 -234.4905,22.82155 -41.90191,44.0413 -75.74601,81.27577 -101.53181,111.70434 -54.7947,75.27063 -75.7467,114.90837 -62.8539,118.91214 12.893,4.0038 22.5645,7.60641 29.0108,10.80934 12.893,3.20298 18.5321,12.81141 16.9204,28.82648 -6.4464,19.21801 -1.6119,40.03864 14.5042,62.4597 l -31.4246,98.49399 c 4.8349,17.61642 16.1155,26.42308 33.8431,26.42308 9.6697,0 33.0378,-25.62252 70.1049,-76.8706 6.44641,-14.41343 25.78711,-21.62101 58.01911,-21.62101 16.1162,9.60895 16.9208,32.83057 2.4162,69.66515 -77.35721,6.40598 -150.68471,38.43642 -219.98393,96.0906 L 568.93155,934.48052 v 4.80441 c -8.05805,0 -90.25001,-72.86985 -246.57619,-218.60664 z M 1571.0673,52.268321 c 8.8896,-0.238091 18.1594,3.483696 34.5432,10.917833 33.43,15.168717 23.614,38.614196 9.1093,53.027786 -14.5045,14.41349 -27.8205,20.88788 -69.7227,1.66987 l -111.2012,177.38586 c -8.0581,-40.03754 -15.4193,-47.66422 -63.7677,-52.4688 L 1524.3624,73.351601 c 24.4761,-13.92494 35.2752,-20.777156 46.7049,-21.08328 z M 261.92,127.32046 v 461.23532 l -43.51498,-50.44986 c -45.12508,-52.84953 -67.68628,-120.11103 -67.68628,-201.78765 0,-81.67665 37.06719,-151.34364 111.20126,-208.99781 z m 906.7772,176.98962 c 23.5699,-0.1845 46.2333,4.55247 67.9902,12.96036 l -31.0568,32.70868 -60.8056,-43.79633 c 8.0581,-1.20114 16.0157,-1.81121 23.8722,-1.87271 z m -87.844,15.36374 c 91.8616,48.04502 169.2191,111.30414 232.072,189.7778 -12.8928,32.03002 -32.6357,56.853 -59.2273,74.46957 -26.5916,17.61652 -43.9159,10.40899 -51.9739,-21.62103 32.1089,-39.67113 54.8639,-37.30945 50.3979,-84.63502 -3.1599,-33.48469 -23.0005,-48.28939 -60.0675,-49.89087 -14.5046,0 -29.0104,5.60608 -43.515,16.81662 8.0582,-57.91192 -29.8134,-68.86537 -113.6174,-81.67737 9.6697,-19.21801 24.9801,-33.63073 45.9312,-43.2397 z m 206.4102,30.11425 c 29.009,16.01507 43.3892,58.7674 40.166,116.42149 l -74.0116,-78.90603 z m -298.27251,53.96414 c 20.95091,3.20297 90.08721,6.772 113.61981,24.02206 5.6953,38.55819 13.5604,70.41173 45.9287,60.05632 13.8068,-4.417 29.8174,-7.20755 45.9337,-21.62103 6.4463,0 12.8924,4.00465 19.3388,12.0122 0,17.61649 -20.9523,44.04087 -62.8538,79.27399 v 2.40339 c 4.8348,57.65413 29.8146,116.91082 74.9395,177.76795 -43.5133,25.62394 -86.2221,29.62629 -128.1239,12.00985 17.7274,-32.03015 18.5346,-62.85897 2.4185,-92.48669 -16.1162,-29.62784 -53.1835,-30.82942 -111.20131,-3.60391 -20.951,6.4061 -33.8431,3.20327 -38.6779,-9.60882 4.8348,-20.8195 1.6095,-36.03403 -9.6718,-45.64311 37.0671,-4.80442 55.603,-9.60867 55.603,-14.41322 0,-11.21049 -19.3405,-17.6162 -58.0192,-19.21764 17.7277,-22.4211 8.0586,-37.63559 -29.0084,-45.6431 9.6697,-33.6316 36.2608,-72.06773 79.7743,-115.30824 z m 19.55251,26.37827 c -16.76141,0.28147 -28.92081,8.30447 -36.47531,24.06923 16.1162,33.63153 53.18341,35.23295 111.20131,4.80441 -29.009,-18.41726 -52.7794,-28.02572 -71.3129,-28.82647 -1.1584,-0.05 -2.2956,-0.0659 -3.4131,-0.0472 z M 208.73556,742.29932 c 14.50443,17.61656 32.23345,32.83108 53.18444,45.6431 v 355.53108 c -74.13407,-57.6538 -111.20126,-124.1134 -111.20126,-199.38417 0,-75.27056 19.33818,-142.53436 58.01682,-201.79001 z m 1176.50894,56.50196 c 26.2229,10.48384 50.5106,22.89279 72.7275,37.35742 -51.5717,52.84955 -83.0538,151.65587 -115.286,284.5806 -33.4291,-34.3267 -63.7228,-62.799 -90.2105,-85.2269 z m 82.8936,167.62307 22.9198,8.19907 59.5949,204.08388 -131.1067,-37.355 z"
     sodipodi:nodetypes="ccscccscccscccccccccsscccccccccccscccscccsscccccccsscccccccccccccccccsscccccsssccscsccccsccccccccsssccccscccscscccsccscsccccccccccsccccccscccscccsccssscccsccccccccccc" /></svg>
