<?xml version="1.0" encoding="UTF-8" standalone="no"?>
<!-- Created with Inkscape (http://www.inkscape.org/) -->

<svg
   width="1685.5117"
   height="1797.9375"
   viewBox="0 0 1685.5117 1797.9375"
   version="1.1"
   id="svg10448"
   xmlns="http://www.w3.org/2000/svg"
   xmlns:svg="http://www.w3.org/2000/svg">
  <defs
     id="defs10445" />
  <path
     id="path4283"
     style="fill:#000000;stroke:none;stroke-width:100.461"
     d="M 719.37891,0 C 470.58477,5.677339 92.9084,75.488559 0,257.05469 L 0.8262,1797.3652 H 102.0957 L 101.2715,300.92383 C 179.28051,158.02167 497.97524,107.78473 719.37891,103.18164 Z m 246.7539,2.621089 V 105.67578 c 221.40369,4.59744 540.09839,54.77348 618.10739,197.5 l -0.8242,1494.60152 h 101.2695 l 0.8262,-1538.41597 C 1592.6033,78.018349 1214.927,8.291449 966.13281,2.621089 Z M 831.42578,217.69336 c -8.6514,-0.0127 -17.34197,0.18097 -26.07226,0.58008 -69.84242,3.19412 -124.11834,38.33303 -162.82618,105.41992 -11.98044,18.92427 -12.39275,20.16024 -20.19531,35.93945 v 0.002 c -13.46373,52.7106 -36.60194,101.42778 -69.41992,146.15234 -32.81732,44.72393 -23.98495,66.29176 26.50391,64.69531 -11.78244,15.97471 -10.09955,25.55516 5.04687,28.74805 -13.46168,7.98389 -15.1445,15.1722 -5.04687,21.56445 10.09902,6.38892 13.46752,21.56598 10.10351,45.52539 -2.22005,12.18787 21.70456,13.18138 20.4082,22.32813 -3.7194,26.24306 -30.22425,51.08981 -34.30078,65.04883 -17.74337,33.79746 -35.71519,57.48571 -14.46484,69.91992 24.39642,14.27509 33.36479,-3.10864 68.41211,-54.47461 12.67748,-21.74589 25.98915,-48.21857 40.72656,-81.25781 l 42.91797,-11.98047 c 35.34169,25.55645 57.21793,65.48981 65.63281,119.79882 -10.23906,247.45144 -30.34648,458.54314 -29.69531,653.06444 -95.17556,20.846 -198.8931,55.8782 -311.15234,105.0976 -112.25822,49.2197 -167.77825,98.1506 -166.5586,146.791 0,41.6919 14.03096,74.119 42.09571,97.2813 H 1411.7305 c -29.285,-52.1149 -70.1621,-72.6739 -122.6309,-61.6719 -52.4691,11.002 -88.1608,-10.7114 -107.0742,-65.1426 -18.9127,-54.4307 -50.3321,-66.011 -94.2598,-34.7421 29.2849,-66.0121 35.3854,-146.502 18.3028,-241.4668 -2.0042,-97.9518 9.418,-200.8837 9.9336,-282.9453 l 102.0996,-11.9786 c 0,-132.57672 -43.7596,-263.5595 -131.2735,-392.94133 82.465,-121.39519 106.028,-222.42625 70.6856,-303.08985 -35.3418,-80.6646 -85.4114,-132.57783 -150.2051,-155.73832 -56.69472,-20.26428 -115.32292,-30.43883 -175.88282,-30.52734 z m 10.13867,46.41602 c 5.36199,-0.0982 10.7484,-0.063 16.16211,0.10546 36.09154,1.12321 73.33244,8.17408 111.72461,21.15235 61.42813,20.76455 106.86913,61.89646 136.32033,123.39258 29.452,61.49679 25.2448,126.98598 -12.6211,196.46875 -37.8669,69.48278 -74.8947,91.44575 -111.07813,65.88867 -36.18331,-25.55697 -54.27344,-56.70334 -54.27344,-93.44141 33.65887,-28.75114 54.69616,-56.70519 63.11133,-83.85937 8.41211,-27.15416 7.98895,-51.91115 -1.26758,-74.27344 -9.25601,-22.36163 -26.92616,-35.54082 -53.01172,-39.53516 -26.08568,-3.99301 -52.59394,3.59423 -79.52148,22.76172 -42.07272,-22.36169 -97.60862,-41.53148 -166.60743,-57.50391 13.46373,-41.53041 47.96429,-67.08616 103.50196,-76.66992 15.61998,-2.69542 31.47462,-4.1917 47.56054,-4.48632 z M 655.14844,383.59961 h 0.002 c 65.6353,11.1815 132.95563,33.54285 201.95703,67.08594 l 20.19336,-4.78711 c 21.87798,-19.16817 39.54998,-23.56423 53.01367,-13.18164 13.47004,10.38261 16.83843,25.9594 10.10352,46.72461 -6.73236,20.76456 -32.82037,48.71661 -78.25977,83.85742 l -0.01,-0.002 c 15.14634,84.65733 57.22012,142.16079 126.2207,172.50976 -30.29293,65.48913 -84.14882,83.85672 -161.56445,55.10547 -5.04876,-59.10021 -26.92819,-105.41916 -65.63672,-138.96289 -12.75723,-9.21354 -19.32106,-8.62169 -22.10938,-7.09375 -34.79091,10.16451 -51.9397,15.87941 -78.86718,19.07226 -30.29149,4.79185 -43.75462,5.5e-4 -40.39063,-14.375 3.36892,-14.3757 0.84462,-26.35512 -7.57031,-35.93945 56.14326,-5.66503 61.84088,5.72086 57.61719,-14.26953 -16.91885,-6.23778 -42.90824,-6.28697 -60.14063,-21.67187 6.73152,-23.95934 -6.73358,-35.93946 -40.39258,-35.93946 38.70782,-59.10019 67.32144,-111.81052 85.83399,-158.13281 z m 33.77148,27.55273 c -10.30802,0.39911 -19.45907,2.79472 -27.45312,7.1875 -15.98816,8.78488 -23.98047,17.16957 -23.98047,25.15625 40.39052,-12.77657 72.78442,-14.37474 97.1875,-4.79101 24.40309,9.58572 56.80077,15.9732 97.1914,19.16601 l -15.14648,-11.97656 c -37.02512,-12.77855 -68.16023,-22.7614 -93.4043,-29.94922 -12.62205,-3.59456 -24.08646,-5.19208 -34.39453,-4.79297 z m 0.94727,35.34375 c -22.299,-0.39911 -38.08001,7.38832 -47.33594,23.36133 l -22.71875,14.375 v 11.98047 l 20.19922,2.39844 c 30.2936,17.5704 76.57262,13.57595 138.8418,-11.98047 l 16.96484,4.77344 2.52148,-19.16992 -22.01367,0.0156 c -35.34203,-16.77113 -64.15998,-25.35484 -86.45898,-25.75391 z m 25.87304,16.16993 42.91602,16.77148 c -15.14644,6.38961 -30.29108,10.38013 -45.4375,11.97656 11.77965,-7.98604 12.61912,-17.56658 2.52148,-28.74804 z m -37.86328,0.008 c -6.73291,11.18148 -5.89149,21.56272 2.52344,31.14648 -11.78004,-3.19916 -21.87723,-6.39532 -30.29101,-9.58789 3.36726,-7.98121 12.62384,-15.16778 27.76757,-21.55859 z m 396.33595,318.65429 c 48.8053,83.06027 79.9405,172.51157 93.4043,268.34959 l -50.4902,9.5879 c -3.3661,-92.64392 -17.6701,-185.28768 -42.9141,-277.93163 z m -55.5371,4.79102 c 57.969,239.25967 42.2789,408.08007 37.9804,626.16607 -91.51523,6.9486 -166.12133,18.5287 -244.21479,34.7421 5.09314,-216.7649 18.21595,-443.8265 16.51562,-602.89059 98.69938,3.41241 145.4879,5.65574 189.71877,-58.01758 z m 39.8105,674.80857 c 17.0827,71.8027 -1.2192,140.7086 -54.9082,206.7207 -81.75366,44.0081 -180.89793,50.6683 -297.42771,19.9786 -116.52978,-30.6899 -226.65394,-24.0315 -330.37109,19.9765 0,-38.2174 10.9818,-68.3278 32.94531,-90.332 141.54365,-61.3797 263.87119,-101.3355 366.97851,-119.8653 103.10728,-18.5295 197.36839,-30.6879 282.78318,-36.4785 z" />
</svg>
