<?xml version="1.0" encoding="UTF-8" standalone="no"?>
<svg
   id="svg154"
   xml:space="preserve"
   viewBox="0 0 1439.6001 1798.0073"
   y="0px"
   x="0px"
   version="1.1"
   width="1439.6001"
   height="1798.0073"
   xmlns="http://www.w3.org/2000/svg"
   xmlns:svg="http://www.w3.org/2000/svg"
   xmlns:rdf="http://www.w3.org/1999/02/22-rdf-syntax-ns#"
   xmlns:cc="http://creativecommons.org/ns#"
   xmlns:dc="http://purl.org/dc/elements/1.1/"><metadata
     id="metadata160"><rdf:RDF><cc:Work
         rdf:about=""><dc:format>image/svg+xml</dc:format><dc:type
           rdf:resource="http://purl.org/dc/dcmitype/StillImage" /></cc:Work></rdf:RDF></metadata><defs
     id="defs158" /><style
     id="style145"
     type="text/css">
	.st0{fill:#010101;}
</style><path
     id="XMLID_7_"
     style="display:inline;stroke-width:1.06414"
     class="st0"
     d="M 760.54449,0.03928505 C 743.82586,0.27705445 727.007,1.5939306 710.08717,3.9882449 639.96038,11.011566 586.75157,59.962129 550.358,150.83965 c -0.10641,0.42565 -0.31758,0.85256 -0.42399,1.27821 -5.74635,25.32653 -17.23993,48.73766 -34.37258,70.23328 -17.87754,21.70845 -29.69036,45.01234 -35.43671,69.91321 -1.27697,15.96209 7.02376,23.94317 24.90131,23.94317 17.23905,0 19.47459,7.02417 6.70491,21.07081 -5.10786,0 -7.3434,2.23345 -6.70491,6.70284 0.63848,5.10787 2.87401,7.66306 6.70491,7.66306 -8.30028,9.57726 -8.61994,16.28177 -0.95814,20.11267 7.6618,3.19243 10.53458,9.89486 8.61912,20.1106 -1.91545,9.57726 -0.31924,21.70973 4.78864,36.39486 4.46939,14.57871 28.20018,22.55978 71.19142,23.94316 h 1.27614 l 51.50482,-4.68263 c 5.74635,-0.53207 10.00334,3.72492 10.00334,9.47126 0,5.00147 0.74448,10.21492 2.23428,15.64204 1.4898,5.74635 -2.55436,11.38631 -8.40713,11.70555 -107.37168,5.42711 -166.75085,27.56087 -178.24355,66.61479 -0.85132,2.87318 -2.87152,5.3207 -5.7447,6.38484 -97.26236,35.64868 -186.97126,76.51259 -269.33566,122.69625 -8.30029,4.68222 -17.34424,-5.00064 -12.02354,-12.98169 31.49853,-47.88627 64.16646,-98.96679 97.68686,-153.34432 1.4898,-2.44753 4.25781,-4.14974 7.13099,-4.36257 38.84109,-3.19242 72.78725,-7.12849 101.62543,-12.02354 29.26384,-5.53352 41.92631,-39.16044 37.98899,-101.09336 -0.31924,-4.89504 3.19201,-9.36527 8.08706,-9.89734 36.28715,-4.25656 54.48524,-13.19618 54.48524,-26.92359 0,-14.68513 -33.52049,-17.55789 -100.56129,-8.61912 -65.97666,8.83236 -114.28998,38.20395 -144.9372,88.00567 l -1.59621,1.91421 C 68.19606,598.84311 -13.423697,727.71121 1.7935034,827.4211 c 0.7448984,4.5758 5.0031317,7.87381 9.6853406,7.66098 107.797336,-5.3207 192.501446,-17.34427 254.221536,-35.96671 59.37898,-17.98396 122.37748,-42.9909 189.09904,-75.12791 5.95919,-2.87318 12.98293,1.16932 13.19576,7.76698 1.48979,45.65159 10.32218,81.83286 26.60351,108.43634 16.49417,28.09328 51.60923,135.25333 113.22291,352.55062 0.74489,2.7668 3.29925,11.3863 3.61849,17.0262 l -4.46856,21.6008 c -2.97959,10.7478 -3.83132,14.5796 -4.15056,17.3464 -0.7449,4.7886 -3.0856,9.3648 -3.8305,14.2599 -0.42565,2.8732 -2.34069,5.3194 -4.89463,6.7028 -205.16611,107.6909 -346.91117,196.9721 -425.33826,267.7373 -0.31924,0.2129 -0.63724,0.4274 -0.85006,0.6402 -99.709885,66.1895 -124.612478,136.8486 -74.597921,211.764 31.285701,66.2959 171.328131,59.4845 420.017551,-20.5387 0.31924,-0.1065 0.63724,-0.2137 0.85007,-0.3201 171.5393,-74.2769 271.3559,-114.6071 299.55559,-120.992 3.51166,-0.7449 7.13099,0.5312 9.25928,3.4044 23.62392,32.6691 23.09185,76.9383 -1.59622,132.8056 -1.06414,2.3411 -3.19367,4.2574 -5.53478,5.1088 -36.49999,13.0889 -51.82281,27.1351 -45.97004,42.1395 1.27696,3.2988 4.46939,5.4275 7.98105,5.7468 27.24197,1.9154 55.97465,0.5316 85.98342,-4.1506 31.92421,-5.0015 55.65455,-45.971 71.29742,-122.9082 15.64287,-76.9373 24.36797,-131.1017 26.28342,-162.3875 1.59621,-26.9227 -8.08789,-42.672 -29.15788,-47.3542 -5.63994,-1.277 -8.93878,-6.9186 -6.91691,-12.3458 18.30322,-50.7594 18.83656,-107.9031 1.81031,-171.5386 -0.10641,-0.9577 -0.21368,-1.9163 -0.32009,-2.9804 2.66035,-38.9475 5.63952,-76.5101 9.15118,-112.6908 l 1.91631,-10.2175 130.56922,-430.23074 c 4.4694,-14.79154 19.1541,-49.05689 32.5623,-64.91258 31.1793,-36.71281 199.2085,-45.97131 288.0641,-62.67829 49.2696,-10.53499 50.7595,-48.1001 46.8222,-158.34496 -2.4475,-69.16908 -16.813,-159.4075 -27.7736,-227.9381 -0.5321,-3.086 0.7432,-6.17284 3.0843,-8.30112 17.4519,-15.11079 26.3911,-27.13395 27.5616,-45.11791 1.8091,-28.73176 0.1065,-30.86093 -1.0641,-48.2064 v -1.06414 c 1.277,-25.11369 1.3834,-54.165591 -7.449,-65.764714 -7.5554,-9.896497 -29.6882,-11.066232 -48.2043,-11.385474 -17.9839,-0.319243 -51.292,4.363817 -68.5311,10.961478 -4.895,1.809039 -10.0037,-0.533741 -12.0256,-5.428777 -5.7464,-14.365886 -21.7076,-20.962735 -36.9248,-15.642038 -3.2989,1.170554 -5.7468,3.937321 -6.2789,7.448985 -9.1516,61.613679 -2.2338,139.19047 51.3989,186.01261 1.809,1.59621 3.086,3.93732 3.1924,6.38484 7.0233,95.45332 -9.4717,154.5129 -3.5125,253.90354 1.2769,15.32362 -150.8961,5.53231 -229.6424,29.0498 -18.5161,5.53352 -56.8239,-13.08769 -75.872,-14.6839 -37.45775,-7.44897 -76.19375,-15.53645 -126.84684,-11.70555 -3.19243,0.21283 -6.48998,-1.17014 -8.29902,-3.83049 -11.49272,-15.96209 -18.73016,-29.79678 -22.02899,-41.28948 -1.38338,-4.89505 1.91588,-9.79051 6.81092,-11.06748 40.863,-10.42857 74.70268,-31.49735 101.62544,-63.1023 28.73179,-33.83964 44.0567,-90.34644 45.97209,-169.51843 C 1003.6836,104.97609 972.71615,52.620697 908.22933,27.081343 859.94395,8.3258829 810.70037,-0.67402115 760.54449,0.03928505 Z M 754.31344,27.47416 c 30.97643,0.199526 66.81644,5.886038 107.51978,17.059504 65.1253,17.239068 97.04963,60.017176 95.77266,128.334936 -1.27697,67.67928 -21.70815,117.48158 -61.29408,149.40576 -38.94754,31.28571 -71.19143,35.11538 -96.73082,11.49148 -10.85422,-11.49271 -12.13077,-21.38965 -3.83049,-29.68994 15.85569,-5.53353 24.15434,-19.15455 24.89923,-40.96941 0.10642,-1.91546 0.74532,-3.93691 2.02228,-5.42671 19.79301,-24.47521 29.68995,-45.43882 29.68995,-62.78429 2.55393,-30.75364 -10.96023,-46.92736 -40.54335,-48.7364 -1.06414,-0.10641 -2.23469,-0.001 -3.19242,0.318 -10.42857,2.55393 -18.83655,6.59851 -25.22138,12.02562 -3.08601,2.66035 -7.76656,2.65952 -11.0654,0.21199 -52.99415,-37.98977 -99.81644,-57.676 -140.46657,-59.165795 -7.44897,-0.31924 -11.92003,-8.51271 -7.55705,-14.471897 19.36733,-26.603484 45.86573,-43.949434 79.49255,-52.036893 15.08418,-3.830906 31.91925,-5.685671 50.50511,-5.565955 z M 613.27116,149.4388 c 43.27681,-1.32684 88.44926,16.16583 135.65715,52.4796 3.40525,2.55394 4.46897,7.23657 2.76635,11.06748 l -1.81029,4.15056 c -2.12828,4.78863 0.10767,10.42816 5.00271,12.34362 1.38338,0.53207 2.65993,0.95897 3.83049,1.27821 4.5758,1.38338 9.36444,-0.95773 11.17348,-5.3207 10.64139,-24.79446 21.81447,-37.24493 33.62642,-37.24493 16.60058,0 24.26198,8.29865 22.98501,24.89924 -1.17056,17.66471 -10.32175,35.64997 -27.24157,53.95317 -1.48979,1.70263 -2.44794,3.93608 -2.55435,6.17077 -0.63848,17.23906 -6.06478,24.68848 -16.17411,22.24096 -2.87318,-0.7449 -5.32112,-1.80946 -7.34298,-3.08643 -5.85278,-3.72449 -13.62017,1.27781 -13.51376,8.30113 0.10641,11.27988 2.3407,25.85822 6.49084,43.73577 9.57726,38.9475 21.70765,79.49217 36.39278,121.6321 14.47231,41.60786 33.30929,65.4434 56.50755,71.61542 l 1.91418,0.32007 c 18.62246,1.27697 49.27014,2.12787 91.94218,2.76635 61.18796,0.85132 107.58466,63.20961 90.98406,126.20667 -32.4563,122.69529 -118.33333,417.35674 -132.80564,463.22124 -2.44753,7.6618 -12.34403,35.1166 -25.53938,39.9053 l -102.36948,27.6676 -99.39115,26.3915 C 621.76232,1024.1817 557.27657,830.93274 541.95295,810.92692 c -17.87754,-23.6239 -24.26239,-74.06344 -19.15453,-151.31997 0,-72.57432 41.28708,-113.11941 123.86431,-121.52611 h 1.17221 c 50.01456,1.17056 72.14707,-10.95984 66.40072,-36.39278 -4.89505,-23.6239 -10.53459,-50.75954 -17.13225,-81.40676 -0.63848,-2.97959 -2.65994,-5.64077 -5.4267,-6.70491 -13.51458,-5.00146 -31.49942,-4.46981 -54.05918,1.70221 -0.63848,0.10641 -1.27613,0.21365 -1.8082,0.32007 -42.88483,2.44752 -67.78494,-0.42484 -74.70185,-8.72512 -6.06559,-7.12974 -8.51312,-16.49502 -7.44898,-27.98773 0.31924,-3.40525 2.76593,-6.27843 6.06477,-7.44899 l 24.47523,-8.61912 c 8.30029,-4.46939 10.53583,-9.89735 6.70492,-16.28218 l -32.98836,-6.49085 c -5.53352,-1.06414 -8.51437,-6.91734 -6.59892,-12.13161 5.21428,-14.36589 3.72407,-25.1129 -4.68263,-32.13622 -1.59621,-1.38338 -3.83049,-1.81029 -5.95877,-1.81029 -14.36589,0.42566 -21.60081,-4.0425 -21.60081,-13.61975 2.55393,-9.57726 11.81156,-25.5394 27.77365,-47.88633 15.32362,-22.34693 32.24266,-36.71286 50.75868,-43.0977 19.15451,-6.38483 38.30909,-5.10828 57.4636,3.8305 15.74926,7.55538 30.9665,14.04624 45.75804,19.26053 4.46939,1.59621 9.36569,-0.53166 11.38755,-4.89464 l 2.23428,-4.89463 c -15.2172,-5.74635 -31.60541,-12.66287 -49.37654,-20.85674 -0.31924,-0.10641 -0.63931,-0.31924 -0.85214,-0.53207 -23.19824,-14.57872 -44.9051,-18.51687 -65.33657,-12.02562 -7.98105,2.55394 -15.11246,-6.06561 -10.74949,-13.30176 0,-0.10641 0.10808,-0.10556 0.10808,-0.212 1.4898,-2.3411 3.83008,-4.15097 6.59684,-4.57663 6.1055,-0.95773 12.24884,-1.53136 18.43125,-1.72092 z m 1.92668,51.84777 c -8.97868,0.11971 -15.62209,1.85642 -19.93186,5.20846 -5.10786,5.10788 -11.17307,8.3003 -18.19639,9.57727 l -2.87442,10.53541 h 15.32404 c 16.60057,19.79299 43.73622,23.30508 81.40676,10.5354 l 21.07081,4.78864 4.78863,-15.32404 -19.15453,-3.83049 c -21.06996,-12.76968 -38.62831,-19.79385 -52.67496,-21.07082 -3.51166,-0.31924 -6.76519,-0.45974 -9.75808,-0.41983 z M 887.86519,1210.1521 c 1.95536,0.094 3.28511,1.3169 3.2319,4.7221 l -7.0229,49.2706 c -0.21283,1.4898 0,2.9792 0.53207,4.3626 23.51751,63.6355 20.64433,121.5245 -9.0452,174.0929 -0.85131,1.4898 -2.1287,2.7672 -3.6185,3.6185 -87.15305,49.2698 -191.12062,80.4499 -312.11329,93.4324 -108.64865,11.7056 -203.25095,48.9501 -283.59348,111.8408 -7.55539,5.9592 -17.98273,-2.0231 -14.15183,-10.8555 42.672,-99.0714 80.34224,-164.4097 112.90491,-195.8019 36.28716,-35.0101 107.26465,-80.9803 213.04013,-138.0182 37.67053,-20.3251 62.67791,-31.072 99.49715,-47.0341 6.59766,-2.9796 9.89733,-2.9796 13.08976,-4.2566 l 165.57986,-38.6292 c 4.04374,-0.9577 10.9615,-2.98 14.686,-4.6826 2.44752,-1.1174 5.02806,-2.1549 6.98342,-2.0618 z" /></svg>
