<?xml version="1.0" encoding="UTF-8" standalone="no"?>
<svg
   width="1800"
   height="1800"
   version="1.1"
   id="svg293"
   sodipodi:docname="US9A409VARA.svg"
   inkscape:version="1.2.1 (9c6d41e410, 2022-07-14)"
   xmlns:inkscape="http://www.inkscape.org/namespaces/inkscape"
   xmlns:sodipodi="http://sodipodi.sourceforge.net/DTD/sodipodi-0.dtd"
   xmlns="http://www.w3.org/2000/svg"
   xmlns:svg="http://www.w3.org/2000/svg">
  <defs
     id="defs297" />
  <sodipodi:namedview
     id="namedview295"
     pagecolor="#ffffff"
     bordercolor="#000000"
     borderopacity="0.25"
     inkscape:showpageshadow="2"
     inkscape:pageopacity="0.0"
     inkscape:pagecheckerboard="0"
     inkscape:deskcolor="#d1d1d1"
     showgrid="false"
     inkscape:zoom="0.31723122"
     inkscape:cx="1189.9838"
     inkscape:cy="747.08915"
     inkscape:window-width="1920"
     inkscape:window-height="1137"
     inkscape:window-x="-8"
     inkscape:window-y="-8"
     inkscape:window-maximized="1"
     inkscape:current-layer="svg293" />
  <path
     id="path291"
     style="fill:#000000;stroke:none;stroke-width:82.3431"
     d="M 857.67383,10.113281 C 744.16784,11.846989 821.32828,195.46175 899.2207,105.33789 927.99385,74.0864 898.57949,8.9750825 857.67383,10.113281 Z m 307.59767,0 c -136.3248,15.225372 3.456,202.757199 53.5703,73.238281 4.3774,-32.491747 -19.2686,-73.6457044 -53.5703,-73.238281 z m 311.9844,115.191409 c -133.4085,10.79066 -2.318,203.29983 51.8496,77.01758 6.5863,-32.66201 -16.2173,-77.92395 -51.8496,-77.01758 z m -914.88676,4.91601 c -122.23627,3.658 -24.38155,196.69882 43.45703,85.03125 17.68432,-33.66106 -3.21813,-85.76407 -43.45703,-85.03125 z m 1157.30666,55.67578 c -68.606,38.03932 62.6193,131.79209 13.164,200.08008 -28.3449,55.49556 -24.4588,-145.86553 -56.4921,-53.77344 -11.9355,99.96687 52.7699,182.68716 14.1269,284.59766 -16.87,80.39854 35.0169,195.89607 -110.5859,199.14844 -87.7677,1.96049 -163.8955,4.92188 -250.0059,2.36523 -33.2861,-40.2564 -105.4911,-27.72671 -138.668,-51.08984 -8.6512,-12.70565 -14.3205,-24.33715 -17.0859,-34.92383 -0.09,-3.52043 -0.057,-7.16365 0.4082,-11.24414 35.7532,-8.75066 65.8528,-27.73162 90.2207,-57.08398 25.4584,-29.98405 37.9037,-78.63826 37.3379,-145.96094 -0.5658,-66.75694 -29.7011,-110.31902 -87.4062,-130.68555 -57.7052,-20.36653 -116.2597,-26.02445 -175.6622,-16.97265 -63.36242,7.35458 -109.75164,50.91664 -139.16988,130.68554 -3.96018,21.498 -13.57865,41.58262 -28.85351,60.25196 -15.27488,18.10357 -25.17528,38.18627 -29.70118,60.25 0,12.44613 7.92106,18.95373 23.76172,19.51953 15.84058,0.56574 17.81992,5.93978 5.93946,16.12304 -5.0916,1.13148 -7.07096,3.67659 -5.93946,7.63672 0.5657,3.96021 2.54506,6.50725 5.93946,7.63867 -7.3546,7.92032 -7.3546,13.29435 0,16.12305 7.92028,3.39442 10.74922,9.05233 8.48632,16.97266 -1.69728,8.48607 -0.28369,18.9522 4.24219,31.39843 4.5259,13.01196 27.15575,19.51758 67.88867,19.51758 l 52.61331,-7.63867 19.5058,2.66406 c -6.3651,13.6353 -12.795,28.35806 -19.3261,45.2793 -89.51845,-10.39783 -173.27693,37.43008 -203.96293,126.05078 -56.68408,70.55155 -97.30347,185.55423 -172.9414,220.09573 -118.89184,-4.5945 -237.90391,-0.4849 -356.80665,1.7011 -37.60389,-29.022 -184.514928,-24.3551 -150.86328,27.6172 42.14471,-12.2208 122.17772,1.6257 43.29883,29.8438 -49.68364,39.0953 -167.3723569,-71.7214 -162.15234188,23.541 78.35385788,53.6036 177.49124188,45.7082 257.57422188,1.7949 76.85999,-10.8993 160.04008,28.2267 239.97656,33.7266 76.30193,10.7501 153.62794,25.7638 230.8418,17.6035 61.75988,-62.6275 128.66046,-174.3141 187.22461,-206.4766 29.97049,112.4124 14.71175,231.8537 28.18164,346.9649 -140.50369,37.8376 -281.2549,88.4199 -402.91211,171.9609 -75.19438,36.281 -84.60881,177.5361 -4.0586,202.8438 H 1594.3926 c -29.9482,-103.8655 -139.0316,-43.7 -199.5528,-89.8242 -28.4934,-41.6783 -47.7307,-142.5298 -115.1699,-89.1739 32.6349,-106.4548 28.2967,-220.1605 -3.2969,-325.8789 -16.3163,-90.6277 -28.9428,-199.5787 30.3965,-276.2539 148.2171,-32.85917 305.9166,-41.28163 449.5606,-98.62304 58.777,-43.55619 39.004,-143.00484 46.0547,-210.60937 6.5057,-90.31063 -32.3742,-180.82767 -17.7422,-268.70703 24.7253,-86.90037 6.9234,-182.569 -54.7754,-248.64258 z M 301.17773,321.51172 c -119.90589,5.01261 -22.23811,191.38873 46.56446,89.94922 21.78102,-35.01444 -5.62975,-90.6803 -46.56446,-89.94922 z m 775.01757,83.64844 c 27.2703,-0.57458 59.2915,3.38113 96.0645,11.86718 58.2708,13.01196 87.6881,49.78451 88.2539,110.31836 0.5658,59.9681 -16.4062,103.81404 -50.916,131.53516 -13.7082,11.42343 -26.4771,18.47953 -38.3399,21.32226 -28.914,21.68299 -51.4696,9.85332 -57.5903,-15.12627 0.4911,-1.94696 -4.3098,-24.17396 -2.6459,-25.83782 18.3502,3.65554 31.8188,-16.84905 30.6874,-37.21559 17.5378,-21.498 26.3066,-39.88331 26.3066,-55.15821 1.1314,-27.72111 -12.1616,-41.01624 -39.8828,-39.88476 -11.3148,1.13148 -20.9332,4.80814 -28.8535,11.03125 -55.4421,-36.77289 -103.53066,-53.17892 -144.26368,-49.21875 16.40638,-28.85258 42.14888,-48.08755 77.22458,-57.70508 12.9412,-3.60658 27.5929,-5.58299 43.9551,-5.92773 z m -104.31249,92.16601 c 34.58069,1.06076 71.38809,16.44335 110.42379,46.14453 l -5.9394,16.97071 c 6.7889,3.96015 13.2946,5.09174 19.5176,3.39453 9.0519,-23.76095 19.2361,-35.64063 30.5507,-35.64063 13.5777,-1.69721 19.7995,5.09231 18.668,20.36719 0,14.14344 -7.6372,29.98365 -22.9121,47.52148 0,18.10361 -5.0922,25.74081 -15.2754,22.91211 -10.1833,-2.26293 -14.4258,-7.92086 -12.7285,-16.97265 -3.9361,14.75996 -15.1183,30.90337 -10.4969,50.22731 0.2554,39.41466 15.4539,71.92078 49.7352,114.22386 17.5496,51.43163 71.4858,70.85232 130.8711,71.25781 75.3633,39.1056 51.0922,130.47661 -9.1641,168.26958 -60.5593,113.9005 -46.4419,254.0796 -12.1191,374.3183 -79.1114,-1.5508 -181.7369,33.6665 -245.74417,19.2422 -13.80862,-132.516 -0.48911,-272.1731 -54.55078,-397.3223 -24.77308,-58.74167 -125.04157,-128.26685 -14.30469,-152.57809 58.68445,-18.50123 117.55994,12.09309 122.24284,-88.09961 0.1256,-12.02594 5.7515,-32.06889 -14.1745,-39.88477 -12.4463,-3.3944 -29.9836,-2.54674 -52.61326,2.54493 -38.47002,3.3944 -61.09979,1.6971 -67.88867,-5.0918 -6.78888,-6.78881 -9.05196,-16.1234 -6.78906,-28.00391 l 27.15429,-9.33398 c 6.2232,-3.39443 7.35473,-9.05234 3.39453,-16.97266 l -38.18554,-3.39453 c 9.05188,-19.23505 7.92023,-31.96439 -3.39453,-38.1875 -15.27488,1.13146 -22.91407,-2.82712 -22.91407,-11.8789 3.9601,-7.3546 11.88124,-20.93359 23.76172,-40.73438 11.88048,-19.80079 26.30724,-32.53014 43.2793,-38.1875 17.53786,-5.65736 34.79346,-4.80771 51.76562,2.54688 16.97217,6.78884 33.09427,12.16289 48.36917,16.12304 l 4.2441,-10.18359 c -14.1435,-3.39443 -28.8523,-9.05235 -44.1269,-16.97266 -29.41856,-15.27489 -54.87708,-15.27489 -76.37504,0 2.8287,-10.18326 6.78918,-17.82047 11.88086,-22.91211 11.03188,-2.82868 22.311,-4.06647 33.83789,-3.71289 z m -1.59179,43.59766 c -14.14348,0 -23.47803,2.26317 -28.00391,6.78906 -3.9602,4.5259 -9.33425,6.78906 -16.12305,6.78906 v 7.63672 l 11.88086,1.69727 c 15.27488,15.27489 39.31796,17.25614 72.13088,5.9414 l 21.2148,5.93946 1.6973,-15.27539 -18.6699,-1.69727 c -18.10376,-10.18327 -32.81232,-16.1231 -44.12698,-17.82031 z m -834.39258,23.82121 c -119.514352,4.69514 -25.955,191.38123 45.91992,92.13281 22.82258,-33.50241 -6.06218,-92.64333 -45.91992,-92.13281 z M 88.154297,882.68945 c -2.68634,-0.0563 -5.435258,0.10488 -8.238281,0.50391 -113.597983,6.04931 -13.924924,184.91264 52.224604,86.38867 22.3401,-36.0742 -3.69122,-86.04742 -43.986323,-86.89258 z M 1246.4961,1437.7734 c 16.6833,88.2408 -11.7611,213.5605 -106.207,238.377 -107.7286,41.514 -218.17871,-4.6943 -325.26371,-21.1524 -75.07393,-18.2081 -177.08117,25.3413 -228.5,27 -4.64881,-76.9198 68.17945,-100.8993 124.37891,-122.4082 169.41277,-74.9995 351.9888,-110.6275 535.5918,-121.8164 z"
     sodipodi:nodetypes="ccccccccccccccccsccccccsccccsccccccccccccccccccccccccccccccccccccsccccccccccccsscccccccccccccccccccsccccccscccccccscccccccccccccsccscccccc" />
</svg>
