<?xml version="1.0" encoding="UTF-8" standalone="no"?>
<svg
   width="14.637075"
   height="17.983217"
   version="1.1"
   id="svg7241"
   sodipodi:docname="US9A13VARA.svg"
   inkscape:version="1.2.1 (9c6d41e410, 2022-07-14)"
   xmlns:inkscape="http://www.inkscape.org/namespaces/inkscape"
   xmlns:sodipodi="http://sodipodi.sourceforge.net/DTD/sodipodi-0.dtd"
   xmlns="http://www.w3.org/2000/svg"
   xmlns:svg="http://www.w3.org/2000/svg">
  <defs
     id="defs7245" />
  <sodipodi:namedview
     id="namedview7243"
     pagecolor="#ffffff"
     bordercolor="#000000"
     borderopacity="0.25"
     inkscape:showpageshadow="2"
     inkscape:pageopacity="0.0"
     inkscape:pagecheckerboard="0"
     inkscape:deskcolor="#d1d1d1"
     showgrid="false"
     inkscape:zoom="26.236888"
     inkscape:cx="8.5185409"
     inkscape:cy="10.290855"
     inkscape:window-width="1920"
     inkscape:window-height="1137"
     inkscape:window-x="-8"
     inkscape:window-y="-8"
     inkscape:window-maximized="1"
     inkscape:current-layer="svg7241" />
  <path
     style="fill:#000000;stroke:none"
     d="m 8.784299,11.597501 c -1.1405407,0.52825 -2.2600717,1.053499 -3.358593,1.575747 -1.0985207,0.522248 -1.845875,0.963457 -2.242063,1.323628 -0.396188,0.360171 -0.86441,1.164552 -1.404666,2.413145 0.936444,-0.816387 2.0679807,-1.290612 3.39461,-1.422675 1.3266293,-0.132063 2.296089,-0.390185 2.908379,-0.774368 0.9844667,-1.188563 1.2185777,-2.227056 0.702333,-3.115477 z m 3.997897,-4.538152 c 0.576273,-0.33616 0.912432,-0.624297 1.008478,-0.864411 0.09605,-0.240114 0.04202,-0.4081937 -0.162077,-0.504239 -0.204097,-0.096045 -0.393186,-0.075035 -0.567269,0.06303 -0.174083,0.1380653 -0.267127,0.573272 -0.279132,1.30562 z M 4.534284,2.215051 4.498266,2.070982 c 0.3721767,-0.096045 0.642305,-0.108051 0.810385,-0.036017 0.16808,0.072035 0.366174,0.078038 0.594282,0.018009 L 5.93895,2.161025 C 5.6628187,2.233059 5.452719,2.2360603 5.308651,2.170029 5.1645823,2.1039977 4.90646,2.119005 4.534284,2.215051 Z m 0,0.270128 L 4.498266,2.46717 C 4.6183233,2.311096 4.7383803,2.2300577 4.858437,2.224055 c 0.1200573,-0.006 0.216103,3e-7 0.288137,0.018009 0.072034,0.018008 0.1740823,0.033015 0.306145,0.045021 L 5.434711,2.323102 C 5.3146537,2.311096 5.2036007,2.2960887 5.101552,2.27808 4.999504,2.260072 4.8974557,2.2630737 4.795407,2.287085 4.693359,2.3110963 4.606318,2.3771277 4.534284,2.485179 Z M 4.516275,2.755307 4.462249,2.683273 4.606318,2.503187 C 4.73838,2.3231017 4.9784937,2.2810817 5.326659,2.377127 L 5.956958,2.305093 5.974967,2.431153 5.344668,2.46717 C 5.11656,2.6592613 4.8704433,2.7372983 4.606318,2.701281 Z M 4.624326,2.611238 C 4.6843547,2.63525 4.750386,2.641253 4.82242,2.629247 4.750386,2.5932303 4.7263747,2.5392047 4.750386,2.46717 4.678352,2.5151927 4.636332,2.5632153 4.624326,2.611238 Z m 0.37818,-0.036016 c 0.084039,-0.036017 0.1620763,-0.08404 0.234111,-0.144069 L 4.966488,2.395136 c 0.072035,0.048023 0.084041,0.1080513 0.036018,0.180086 z M 4.462249,3.367597 C 4.4382377,3.3435857 4.432235,3.3195743 4.444241,3.295563 c 0.012005,-0.024011 0.030014,-0.036017 0.054025,-0.036017 0.024012,0 0.060029,0.018009 0.108052,0.054026 0.048023,0.036017 0.087041,0.045021 0.117055,0.027013 0.030014,-0.018009 0.036017,-0.045022 0.018009,-0.081039 -0.018009,-0.036017 -0.015007,-0.06303 0.009,-0.081038 0.024011,-0.018009 0.045021,0.003 0.06303,0.06303 0.018009,0.060028 0.003,0.1080507 -0.045022,0.144068 -0.048022,0.036017 -0.105049,0.033015 -0.171081,-0.009 C 4.5312817,3.334582 4.4862603,3.3315803 4.462249,3.367597 Z M 5.07454,3.655734 4.678352,3.781794 c -0.036017,0.036017 -0.045022,0.060028 -0.027013,0.072034 0.018009,0.012005 0.051024,0.012005 0.099047,0 C 4.7864027,3.841822 4.852434,3.8088063 4.94848,3.754781 5.0445253,3.7007557 5.0865453,3.66774 5.07454,3.655734 Z M 5.056531,3.637725 c 0.012006,-0.012005 -0.027012,-0.015007 -0.117055,-0.009 -0.090043,0.006 -0.165079,0.009 -0.225107,0.009 -0.060029,0 -0.093044,0.012006 -0.099047,0.036018 -0.006,0.024011 0.003,0.036017 0.027013,0.036017 z M 7.019462,3.097469 C 7.7998327,2.6892757 8.120985,2.1580237 7.982919,1.503713 7.8448537,0.849403 7.5086943,0.49823667 6.974441,0.450214 6.4401877,0.40219067 5.9509557,0.462219 5.506745,0.630299 5.0625343,0.798379 4.834426,1.0504987 4.82242,1.386658 c 0.7563587,-0.024011 1.182561,0.012006 1.278607,0.108051 0.096045,0.096045 0.237112,0.099047 0.4232,0.009 0.1860887,-0.090043 0.372177,0.018009 0.558265,0.324154 0.1860887,0.3061453 0.1650787,0.729346 -0.06303,1.269602 z M 8.53218,11.11127 C 7.7998327,9.6825927 7.6887797,8.253915 8.199021,6.825237 8.7092637,5.3965597 8.7002597,4.6702153 8.172009,4.646204 7.6437583,4.6221927 7.2565747,4.4030887 7.010458,3.988892 6.7643413,3.5746953 6.605266,3.1454917 6.533232,2.701281 6.8813973,2.4131443 6.9774427,2.1670277 6.821368,1.962931 6.665294,1.7588343 6.4912113,1.7828457 6.29912,2.034965 6.010984,1.7588343 5.428708,1.650783 4.552292,1.710811 L 4.462249,2.106999 4.534284,2.287085 C 4.438238,2.5752217 4.375208,2.8063313 4.345194,2.980414 4.3151793,3.1544967 4.300172,3.2655493 4.300172,3.313572 c 0,0.048023 0.08404,0.090042 0.25212,0.126059 0.060029,0.024012 0.08404,0.060029 0.072034,0.108052 0.096045,-0.024011 0.1560737,-0.018009 0.180085,0.018008 L 5.110557,3.5837 5.146574,3.70976 C 5.1225627,3.7217653 5.0835443,3.742775 5.029519,3.772789 4.975493,3.8028037 4.90646,3.8478253 4.82242,3.907854 4.90646,4.1239567 5.083544,4.1779823 5.353672,4.069931 5.6238,3.9618797 5.836901,3.8418227 5.992975,3.70976 6.089021,3.8418227 6.1970723,4.057925 6.317129,4.358067 6.3651517,4.754255 6.2270863,5.0604003 5.902933,5.276503 5.3146537,5.6846963 5.020514,6.3330037 5.020514,7.221425 c 0,0.720342 0.12606,1.2966153 0.37818,1.72882 0.2521193,0.4322053 0.4862303,0.876416 0.702333,1.332632 0.216102,0.456217 0.3001417,1.050499 0.252119,1.782846 z M 6.245095,0 C 7.349619,0 8.006931,0.23110967 8.217031,0.693329 8.4271303,1.1555483 8.49016,1.6537847 8.40612,2.188038 8.32208,2.7222913 7.9018807,3.151495 7.145522,3.475649 c 0.1920913,0.312148 0.522248,0.468222 0.99047,0.468222 0.4322047,0 1.044495,0.2971407 1.836871,0.891422 0.792376,0.594282 1.476701,1.167554 2.052974,1.719816 l 0.216103,0.342163 c 0.120057,-0.720342 0.29714,-1.1885643 0.531251,-1.404667 0.234111,-0.2161027 0.534254,-0.282134 0.900427,-0.198094 0.366174,0.08404 0.555264,0.345164 0.56727,0.783372 0.01201,0.438208 -0.37818,0.8554057 -1.170555,1.251593 l 1.566742,1.24259 -0.324153,0.450214 -1.296615,-1.332633 1.116529,1.836872 -0.522248,0.306145 -1.170555,-2.323102 c 0.25212,0.6723193 0.46222,1.5067153 0.6303,2.503188 0.720341,0.624295 1.128535,1.272603 1.22458,1.944922 -0.132063,0.07203 -0.243115,-0.02101 -0.333158,-0.279133 -0.09004,-0.258122 -0.291138,-0.483229 -0.603286,-0.67532 0.08404,0.432205 0.213101,0.73835 0.387183,0.918436 0.174083,0.180085 0.369176,0.300142 0.585278,0.36017 0.09605,0.01201 0.120057,0.102049 0.07203,0.270128 -0.04802,0.16808 -0.162078,0.270129 -0.342163,0.306146 C 13.400489,12.473916 13.02231,12.095737 12.926264,11.72356 12.830219,11.351384 12.68615,10.865154 12.494059,10.264869 L 11.809734,8.6441 c -0.01201,0.3481653 -0.108051,0.8464017 -0.288136,1.494709 0.204097,0.876415 0.156074,1.620768 -0.144069,2.233059 -0.144068,-0.012 -0.180085,-0.144068 -0.108051,-0.396188 0.07203,-0.252119 0.03602,-0.540256 -0.108051,-0.86441 -0.156074,0.408193 -0.213101,0.726344 -0.171081,0.954453 0.04202,0.228109 0.135063,0.432206 0.279132,0.612291 0.07203,0.02401 0.03902,0.09905 -0.09905,0.225106 -0.138065,0.12606 -0.279132,0.159076 -0.4232,0.09905 -0.312149,-0.648307 -0.411196,-1.152546 -0.297142,-1.512717 0.114055,-0.360171 0.261124,-0.840399 0.441209,-1.440684 v 0 c 0.01201,-1.3446373 0.12606,-2.29909 0.342163,-2.863358 C 10.441085,6.561112 9.9368457,6.1739283 9.720743,6.023857 9.504641,5.8737857 9.2705303,6.059874 9.018411,6.582122 8.766291,7.10437 8.625224,7.7376703 8.59521,8.482023 c -0.030015,0.7443533 0.066031,1.344638 0.288137,1.800854 0.2221047,0.456217 0.369174,0.762362 0.441208,0.918436 0.4442107,1.104524 0.390185,2.185036 -0.162077,3.241537 0.324154,0 0.4772267,0.165079 0.459218,0.495236 -0.018008,0.330156 -0.117055,0.897425 -0.297141,1.701807 -0.1800853,0.804381 -0.441209,1.233584 -0.783371,1.287611 -0.342162,0.05402 -0.669317,0.06903 -0.981465,0.04502 -0.1440687,-0.180086 0.030014,-0.354169 0.522247,-0.522248 0.3001427,-0.612291 0.3001427,-1.104524 0,-1.4767 -0.1800853,0 -1.290612,0.432205 -3.33158,1.296614 -2.7853213,0.828393 -4.31004467,0.894425 -4.57417,0.198094 C -0.21997133,16.555852 0.050157,15.823505 0.986601,15.271243 2.799461,13.782537 4.366204,12.75605 5.68683,12.191783 5.7828753,11.53147 5.7408557,10.964201 5.560771,10.489976 5.380685,10.015751 5.1465737,9.5475283 4.858437,9.085309 4.5703003,8.6230897 4.426232,8.1758777 4.426232,7.743673 4.426232,6.5310977 4.5582947,5.7867447 4.82242,5.510614 5.0865453,5.2344827 5.4287077,4.9583517 5.848907,4.682221 V 4.232008 C 5.596787,4.36407 5.3506703,4.4421067 5.110557,4.466118 4.8344263,4.5141413 4.6783523,4.4811257 4.642335,4.367071 4.6063177,4.253017 4.588309,4.1419643 4.588309,4.033913 L 4.534284,3.979888 c -0.1080513,0 -0.1440687,-0.060029 -0.108052,-0.180086 C 4.342192,3.7517793 4.3241837,3.685748 4.372207,3.601708 L 4.120087,3.511666 C 4.036047,3.4756487 4.015037,3.337583 4.057057,3.097469 4.099077,2.857355 4.1681097,2.6052353 4.264155,2.34111 L 4.174113,2.161025 4.33619,1.512717 c 0.012005,-0.3961873 0.558264,-1.008478 0.558264,-1.008478 0,0 0.6262259,-0.42860406 1.350641,-0.504239 z"
     id="path7239"
     sodipodi:nodetypes="csscscccssscccsccscccssccsscccccccccccccccccccssssssssscccscsccssscccssscsssccssscsccccsscccccscscccssscccsscssccssscccccccccscscscsccccscscscssscssssccssscccccccsssscccscccccsccccc" />
</svg>
