<?xml version="1.0" encoding="UTF-8" standalone="no"?>
<svg
   width="4.6999998"
   height="18"
   version="1.1"
   id="svg8036"
   sodipodi:docname="US9Aa32VARA.svg"
   inkscape:version="1.2.1 (9c6d41e410, 2022-07-14)"
   xmlns:inkscape="http://www.inkscape.org/namespaces/inkscape"
   xmlns:sodipodi="http://sodipodi.sourceforge.net/DTD/sodipodi-0.dtd"
   xmlns="http://www.w3.org/2000/svg"
   xmlns:svg="http://www.w3.org/2000/svg">
  <defs
     id="defs8040" />
  <sodipodi:namedview
     id="namedview8038"
     pagecolor="#ffffff"
     bordercolor="#000000"
     borderopacity="0.25"
     inkscape:showpageshadow="2"
     inkscape:pageopacity="0.0"
     inkscape:pagecheckerboard="0"
     inkscape:deskcolor="#d1d1d1"
     showgrid="false"
     inkscape:zoom="17.58"
     inkscape:cx="7.1956769"
     inkscape:cy="3.4698521"
     inkscape:window-width="1920"
     inkscape:window-height="1137"
     inkscape:window-x="-8"
     inkscape:window-y="-8"
     inkscape:window-maximized="1"
     inkscape:current-layer="svg8036" />
  <path
     id="path8034"
     style="fill:#000000;stroke:none;stroke-width:0.843053"
     d="M 1.5752931,0.05614275 C 1.1527134,0.07827286 0.81628203,0.23456722 0.5675818,0.52542008 0.23598145,0.91322381 0.03526901,1.6432066 0.03526901,2.4356752 0.05378612,3.3593939 -0.05188544,4.3516746 0.71248147,5.8916474 1.4768484,7.4316219 1.3579436,8.4707303 1.3579436,9.0102831 c 0,0.5451743 0.1189048,1.5885409 -0.64546213,3.1285159 -0.76436691,1.539975 -0.6762171,2.696071 -0.64216897,3.637311 0,0.792468 0.16566895,1.382277 0.4972693,1.770081 0.33160028,0.387805 1.152414,0.516392 1.7931334,0.426466 0.6407193,-0.08993 0.9919921,-0.478455 1.0538157,-1.164137 0.061824,-0.685682 -0.1793249,-1.027471 -0.7244983,-1.027471 -0.1725822,0.112895 -0.1780921,0.553105 -0.059277,0.597712 0.1517493,0 0.2272289,0.09967 0.2272289,0.296385 -0.1092394,0.599232 -0.154295,0.783426 -1.0796634,0.741628 -0.5277744,-0.02383 -0.79200839,-1.017046 -0.79200839,-1.961264 0,-0.32036 0.16859449,-1.3017 0.41254459,-2.019041 0.8404574,-1.530984 1.1341533,-2.591199 1.2115574,-3.6087666 0.4460715,0.07435 2.06212,0.04618 2.06212,0.04618 L 4.6301166,9.4473342 2.7108564,9.3732423 C 2.7397959,9.0864872 2.6810851,8.778644 2.6665328,8.2186008 l 1.9535768,0.031412 c 0,0 -0.00191,-0.3671756 -0.01668,-0.449561 l -1.8964275,-0.0848 C 2.6586744,6.9999139 2.2658823,5.6384384 1.5015153,4.475027 0.73714847,3.3059952 0.83762209,2.6024028 0.83762209,2.2708024 c 0,-0.9442179 0.46195001,-1.61431897 0.99026241,-1.61431897 0.5283124,0 1.0252262,0.18482032 1.0926703,0.70046317 -0.041795,0.3220947 -0.5254139,0.2082846 -0.5443964,0.4207116 -0.061003,0.122007 0.078571,0.4245415 0.3764445,0.4717385 0.5451735,0 0.7688656,-0.3404378 0.7244983,-1.0274703 C 3.4152774,0.26457447 2.6671773,0.1691205 2.026458,0.07919497 1.8662781,0.05671359 1.716153,0.04876605 1.5752931,0.05614275 Z M 0.48360587,2.2955012 h 0.0246988 c 0,0.6069973 -0.12687822,1.4342776 0.85106183,2.9068081 0.9779398,1.4725303 0.8926739,2.8693766 0.8926739,3.8079738 0,0.944218 -0.067824,2.3440359 -0.8438944,3.5556979 -0.65535306,1.023188 -0.66528727,2.232662 -0.89984133,3.210129 h -0.0246988 c -10e-9,-0.370943 -0.26578023,-1.607542 0.58289183,-3.321747 0.8430516,-1.714205 0.7640164,-2.7471562 0.7640164,-3.4440799 0,-0.6913021 -0.00961,-1.8491432 -0.85266358,-3.5633485 C 0.12917848,3.7327293 0.48360587,2.666444 0.48360587,2.2955012 Z"
     sodipodi:nodetypes="sscssscsssccccsccccccccccsscccsssccssscccscc" />
</svg>
