<?xml version="1.0" encoding="UTF-8" standalone="no"?>
<!-- Created with Inkscape (http://www.inkscape.org/) -->

<svg
   width="1800.324"
   height="1651.553"
   viewBox="0 0 1800.324 1651.553"
   version="1.1"
   id="svg570"
   xmlns="http://www.w3.org/2000/svg"
   xmlns:svg="http://www.w3.org/2000/svg">
  <defs
     id="defs567" />
  <g
     id="layer1"
     transform="translate(-0.61952112,-3.2868086)">
    <path
       id="path1335"
       style="fill:#000000;stroke:none;stroke-width:92.9379"
       d="M 905.55702 3.2868086 L 3.2835836 903.65595 L 149.47108 1050.1501 L 900.25429 300.95087 L 1649.4555 1051.736 L 1800.9437 900.56611 L 905.55702 3.2868086 z M 907.12733 91.42548 L 1714.4691 900.47626 L 1649.5453 965.26142 L 900.34608 214.47821 L 149.56093 963.67743 L 91.418349 905.41376 L 907.12733 91.42548 z M 902.89296 606.39228 L 0.61952112 1506.7614 L 146.80702 1653.2556 L 897.59022 904.05634 L 1646.7894 1654.8395 L 1798.2777 1503.6716 L 902.89296 606.39228 z M 904.46327 694.53095 L 1711.8051 1503.5798 L 1646.8812 1568.3669 L 897.68202 817.58173 L 146.89686 1566.7809 L 88.754287 1508.5173 L 904.46327 694.53095 z " />
  </g>
</svg>
