<?xml version="1.0" encoding="UTF-8" standalone="no"?>
<svg
   width="1033.3749"
   height="1800"
   version="1.1"
   id="svg1"
   xmlns="http://www.w3.org/2000/svg"
   xmlns:svg="http://www.w3.org/2000/svg">
  <defs
     id="defs1" />
  <path
     id="path1"
     style="fill:#000000;stroke:none;stroke-width:100.134"
     d="M 757.95946,0.22133894 C 721.0029,1.981178 692.95919,14.232756 673.82665,36.975245 643.21463,73.363228 628.48596,97.333712 629.6411,108.88541 c -40.43104,55.44836 -52.56107,88.37102 -36.38867,98.76757 16.17245,0 24.25781,7.50815 24.25781,22.52539 0,15.01725 2.31101,29.45625 6.93164,43.31836 4.62077,13.86204 14.43978,19.63848 29.45703,17.32813 15.01724,-2.31035 28.87905,-3.17725 41.58594,-2.59961 12.70689,0.57757 17.906,7.5085 15.5957,20.79297 -2.31029,13.28453 -11.55232,23.97044 -27.72461,32.05664 -43.89667,2.31035 -88.94735,19.06036 -135.15429,50.25 L 326.00154,416.00393 C 306.90966,346.70747 197.53173,208.98889 197.53173,208.98889 162.96822,184.50344 151.35653,175.39215 85.465355,179.09908 c 1.611867,13.93277 11.426822,17.13276 29.053295,19.48064 29.4386,3.92129 45.66819,13.51298 49.80044,24.78811 -28.53081,2.95002 -86.922931,-2.27276 -104.523482,-9.85831 -16.910815,0.0292 -36.563217,-18.11874 -52.8850539,-12.63188 -9.9175472,3.33395 -8.932117,16.07847 -3.991049,26.66563 48.8935309,32.21726 70.3319839,33.02413 96.2554429,32.24576 24.488662,-0.73531 67.791962,5.27813 77.472102,18.93975 21.83799,38.82919 74.42101,155.28649 114.93548,212.02021 100.50005,4.6207 205.79068,-0.65642 270.48045,-11.05304 32.34483,83.17252 62.95657,166.92235 91.83593,251.25 -28.87936,134.00011 -55.73604,245.18589 -80.57226,333.55665 -24.83623,88.3708 -44.76401,157.9714 -59.78125,208.7988 h 43.31836 c 0,41.5862 -8.66256,111.7619 -25.99024,210.5293 -17.32753,98.7674 -35.23398,169.5224 -53.71679,212.2637 -99.34491,21.9483 -155.36928,51.9828 -168.07618,90.1035 1.15515,5.7761 14.72732,9.2416 40.71875,10.3965 25.99137,1.1554 99.05725,0.578 219.19532,-1.7325 17.32759,-27.724 16.74843,-65.844 -1.73438,-114.3613 83.17246,-202.1554 114.36339,-337.8888 93.57031,-407.1992 h 129.95704 c -5.7759,34.6552 -1.15596,73.9315 13.86132,117.8281 11.55179,72.7759 20.2163,145.8399 25.99219,219.1934 5.77579,73.3534 -33.50051,119.2729 -117.82812,137.7558 -24.25868,2.3104 -36.9659,14.4385 -38.1211,36.3867 -9.24139,12.7069 9.24217,17.6167 55.44922,14.7286 46.20695,-2.8879 91.25764,-4.3321 135.1543,-4.3321 53.13784,5.776 69.31065,-23.6812 48.51758,-88.3711 18.48268,-198.6898 11.55179,-343.0858 -20.79297,-433.1894 v -76.2422 c 19.63788,-244.8967 22.81573,-383.51839 9.53125,-415.86325 -13.28449,-32.34485 -15.3077,-77.68519 -6.06641,-136.02148 9.24149,-58.33622 25.99338,-119.27209 50.25195,-182.80664 10.39669,88.94836 17.9047,156.52742 22.52539,202.73437 -16.17248,93.569 -15.59486,179.05262 1.73243,256.44922 v 1.73242 c -2.3103,12.7069 -8.37633,25.70179 -18.19532,38.98633 -9.81889,13.28447 -15.59347,28.88002 -17.32617,46.78513 -1.7327,17.9052 -6.065,42.4529 -12.99609,73.6426 11.55189,1.1553 19.34958,-7.7989 23.39258,-26.8594 4.04289,-19.0603 8.37519,-33.7871 12.99609,-44.1836 17.32778,-11.5518 15.59386,3.4645 -5.19922,45.0508 -20.79308,41.5862 -18.48223,68.1553 6.93164,79.707 12.70689,-15.0171 25.7019,-32.9216 38.98638,-53.7148 13.28439,-20.7931 15.88499,-78.5532 7.79879,-173.27734 3.4655,-20.79315 9.8191,-54.29303 19.0605,-100.5 9.2414,-46.20688 9.2414,-87.21497 0,-123.02539 11.5518,-120.13799 7.5071,-208.50977 -12.1308,-265.11328 -21.94829,-40.43111 -58.33644,-61.22376 -109.16409,-62.37891 -35.81036,-19.63795 -57.18033,-43.31874 -64.11132,-71.04296 71.62062,-1e-5 107.43164,-42.74182 107.43164,-128.22461 0,-83.17252 -38.12186,-133.422407 -114.36329,-150.7500086 C 805.51537,1.8875506 780.1334,-0.83456451 757.95946,0.22133894 Z M 779.3618,27.445948 c 14.11477,0.288794 29.18684,2.597788 45.21485,6.929688 64.11223,17.327602 96.74529,55.737086 97.90039,115.228524 1.1552,59.49142 -16.74928,96.16914 -53.71485,110.03125 -21.94827,4.6207 -36.38932,-0.28885 -43.32031,-14.72852 -6.93109,-14.43969 -2.88642,-36.38877 12.13086,-65.8457 15.01719,-29.45693 13.86069,-47.93865 -3.4668,-55.44727 -17.32768,-7.50863 -34.07751,-4.33282 -50.25,9.5293 C 775.76975,116.97076 740.53812,99.066325 678.15868,79.42837 703.28373,43.906795 737.01749,26.579567 779.3618,27.445948 Z M 676.53368,109.96744 c 24.47522,1.29957 59.67166,18.844 105.58984,52.63281 15.01729,-17.3276 26.8577,-23.10202 35.52149,-17.32617 8.66389,5.77591 5.77572,18.19359 -8.66407,37.2539 -14.43958,19.06038 -16.74867,50.8266 -6.92968,95.30078 9.81899,44.47418 31.76608,77.97412 65.84375,100.5 34.07746,22.52587 43.60713,53.13956 28.58984,91.8379 C 881.46767,508.865 862.40864,603.3008 839.30516,753.4733 l -157.68164,64.11132 c 17.32759,-60.069 11.55115,-127.06889 -17.32812,-201 -28.8794,-73.93103 -49.09473,-127.64642 -60.64649,-161.14648 -11.55175,-33.50007 8.37601,-55.15955 59.78125,-64.97852 51.40525,-9.81898 75.95103,-34.36673 73.64063,-73.64257 v -31.18946 c -1.1551,-20.79309 -25.41334,-28.30318 -72.77539,-22.52734 -11.5518,4.6207 -17.90533,-4.61921 -19.06055,-27.72266 -1.15514,-27.72421 -9.24057,-41.58789 -24.25781,-41.58789 -17.3276,-1.15515 -5.77675,-27.72422 34.65429,-79.70703 5.77586,-3.17672 12.74394,-4.54842 20.90235,-4.11523 z m -0.10938,15.8125 c -13.86209,-0.28881 -23.10192,6.20964 -27.72265,19.49414 9.24146,20.79317 36.96502,21.37037 83.17187,1.73242 -23.10342,-13.86211 -41.58713,-20.93776 -55.44922,-21.22656 z m 181.94141,667.54687 c 15.01718,35.81034 6.35268,175.00933 -25.99219,417.59569 H 593.25243 c 8.0862,-69.3105 35.80974,-184.8287 83.17187,-346.55272 53.13805,-13.86212 113.78618,-37.54291 181.94141,-71.04297 z" />
</svg>
