<?xml version="1.0" encoding="UTF-8" standalone="no"?>
<!-- Generator: Adobe Illustrator 19.0.0, SVG Export Plug-In . SVG Version: 6.00 Build 0)  -->

<svg
   version="1.1"
   id="Ebene_1"
   x="0px"
   y="0px"
   viewBox="0 0 941.85095 1799.5601"
   xml:space="preserve"
   width="941.85095"
   height="1799.5601"
   xmlns="http://www.w3.org/2000/svg"
   xmlns:svg="http://www.w3.org/2000/svg"><defs
   id="defs1866">
	
</defs>
<style
   type="text/css"
   id="style1859">
	.st0{fill:#010101;}
</style>
<path
   id="XMLID_2_"
   class="st0"
   d="m 873.7225,1184.8594 c 3.9,-46 3.9,-111 0,-195.00003 -14.4,-98.5 -28.9,-156.9 -43.3,-175.3 -9.2,-9.2 -19,-13.8 -29.6,-13.8 -7.9,0 -17.7,3.9 -29.6,11.8 -17.1,10.5 -26.9,16.4 -29.6,17.7 -38.1,30.2 -56.6,76.30051 -90,138.30051 -12.91522,15.77364 -77.60051,78.15942 -104.24365,103.80462 -5.7,12.6 -151.34928,131.7518 -137.54928,133.0518 77.9,7.2 350.09293,-0.4569 390.89293,0.1431 46.1,0.6 70.4,-6.3 73,-20.7 z m -120.2,-896.40003 c -18.4,-3.9 -29.9,-13.5 -34.5,-28.6 -4.6,-15.1 -0.3,-30.5 12.8,-46.3 13.1,-15.8 23,-34.5 29.6,-56.1 6.6,-21.6 2.6,-34.1 -11.8,-37.4 -14.4,-3.3 -27.6,0.7 -39.4,11.8 -11.8,11.2 -20.4,12.1 -25.6,3 -42,-10.5 -67.6,-15.4 -76.8,-14.8 -9.2,0.7 -17.7,10.8 -25.6,30.5 21,-5.3 42.7,-4.6 65,2 22.3,6.6 27.6,12.5 15.8,17.7 -43.3,-13.1 -71.6,-11.8 -84.7,3.9 l -25.6,63 c 15.8,5.3 20.4,13.8 13.8,25.6 13.1,0 23.3,2 30.5,5.9 7.2,3.9 3,11.2 -12.8,21.7 2.6,21 19,26.6 49.3,16.7 30.2,-9.9 48.6,12.8 55.2,68 l -2,-11.8 c 85.4,-2.6 109.7,19.7 72.9,67 -60.4,30.2 -102.8,51.2 -127.1,63 -24.3,11.8 -26.6,40.4 -6.9,85.7 19.7,45.3 36.1,115.9 49.3,211.8 76.2,-5.3 123.5,-21.7 141.8,-49.3 10.5,-31.5 24.3,-85.4 41.4,-161.5 17.1,-76.2 -3.9,-144.5 -63,-204.9 -25.2,-26.2 -38.9,-55.1 -41.6,-86.6 z m -185.2,-88.6 c 6.6,-17.1 16.4,-27.6 29.6,-31.5 13.1,-3.9 31.5,-0.7 55.2,9.9 l 27.6,-3.9 2,7.9 -27.6,3.9 c -13.1,11.8 -26.6,19.7 -40.4,23.6 -13.9,3.8 -29.3,0.6 -46.4,-9.9 z m 27.6,-19.7 c -3.9,-1.3 -8.5,2.6 -13.8,11.8 6.6,6.6 15.1,8.5 25.6,5.9 -13.1,0 -17,-5.9 -11.8,-17.7 z m 11.8,17.7 c 11.8,-1.3 23,-5.9 33.5,-13.8 -9.2,-2.6 -19,-4.6 -29.6,-5.9 10.6,6.6 9.3,13.1 -3.9,19.7 z m 96.6,-9.9 c -5.3,-6.6 -4.6,-16.7 2,-30.5 6.6,-13.8 14.8,-23.3 24.6,-28.6 9.9,-5.3 16.7,-4.9 20.7,1 3.9,5.9 4.6,14.8 2,26.6 -2.6,11.8 -9.9,25.3 -21.7,40.4 -11.8,15.1 -21.7,22 -29.6,20.7 -7.9,-1.3 -11.5,-5.6 -10.8,-12.8 0.6,-7.2 4.9,-12.8 12.8,-16.8 z m 19.7,-39.4 c -5.3,7.9 -9.2,15.8 -11.8,23.6 -2.6,7.9 -1.3,9.9 3.9,5.9 5.3,-3.9 5.9,-1.3 2,7.9 -3.9,9.2 -3.3,11.8 2,7.9 5.3,-3.9 10.5,-10.5 15.8,-19.7 5.3,-9.2 7.6,-18.1 6.9,-26.6 -0.8,-8.5 -7,-8.2 -18.8,1 z m -29.6,-45.3 c 46,-19.699995 75.2,-18.099995 87.7,4.9 12.5,23 8.2,55.8 -12.8,98.5 -21,42.7 -14.8,45.3 18.7,7.9 33.5,-37.4 46.3,-76.2 38.4,-116.199996 -7.9,-40.099999 -37.1,-61.699999 -87.7,-64.999999 -50.6,-3.3 -84.7,5.9 -102.4,27.6 -17.7,21.6 1.6,35.8 58.1,42.299995 z m 9.9,94.6 c -5.3,3.9 -6.6,7.6 -3.9,10.8 2.6,3.3 5.6,3.3 8.9,0 3.2,-3.3 1.5,-6.9 -5,-10.8 z m -417.7,455.1 c -63,-63 -117.5,-149.1 -163.5,-258.1 -7.9,-2.6 -18.1,-8.2 -30.5,-16.7 -12.5,-8.5 -24,-24.6 -34.5,-48.3 -10.5,-23.6 -21,-40.1 -31.5,-49.3 -6.6,-14.4 -3.3,-19 9.9,-13.8 10.5,2.6 24.3,21 41.4,55.2 11.8,7.9 16.4,6.6 13.8,-3.9 -2.6,-22.3 -30.9,-59.1 -84.7,-110.3 -5.3,-5.3 -7.6,-9.5 -6.9,-12.8 0.7,-3.3 4.3,-4.9 10.8,-4.9 0,-6.6 3.3,-9.9 9.9,-9.9 0,-6.6 3.9,-9.9 11.8,-9.9 1.3,-5.3 4.9,-6.9 10.8,-4.9 5.9,2 17.4,12.8 34.5,32.5 51.2,36.8 76.2,89.3 74.9,157.6 v -2 c 72.2,78.8 128.1,151 167.5,216.7 l 63,-29.6 c -75,-95.8 -121.6,-170 -140,-222.5 -7.9,-2.6 -18.1,-8.2 -30.5,-16.7 -12.5,-8.5 -24,-24.6 -34.5,-48.3 -10.5,-23.6 -21,-40.1 -31.5,-49.3 -5.3,-14.4 -1.3,-19 11.8,-13.8 9.2,2.6 23,21 41.4,55.2 10.5,7.9 14.4,6.6 11.8,-3.9 -2.6,-22.3 -30.9,-59.1 -84.7,-110.3 -5.3,-5.3 -7.6,-9.2 -6.9,-11.8 0.7,-2.6 4.9,-3.9 12.8,-3.9 0,-7.9 2.6,-11.8 7.9,-11.8 0,-6.599995 3.9,-9.899995 11.8,-9.899995 1.3,-5.3 4.9,-6.9 10.8,-4.9 5.9,2 18.1,12.799995 36.4,32.499995 49.9,36.8 74.2,89.3 72.9,157.6 78.8,84.1 139.2,160.9 181.2,230.5 63,-73.5 124.8,-117.5 185.2,-132 l -7.9,-39.4 c -18.4,5.3 -33.8,8.5 -46.3,9.9 -12.5,1.3 -20,-3.6 -22.7,-14.8 -2.7,-11.2 -6.6,-20.4 -11.8,-27.6 -5.3,-7.2 -5.6,-12.8 -1,-16.7 4.6,-3.9 4.3,-5.3 -1,-3.9 -3.9,1.3 -6.6,-0.7 -7.9,-5.9 -1.3,-5.3 0,-9.9 3.9,-13.8 -3.9,-3.9 -10.5,-4.9 -19.7,-3 -9.2,2 -12.5,-5.6 -9.9,-22.7 22.3,-47.3 36.1,-82.1 41.4,-104.4 25,-62.999995 58.1,-102.799995 99.5,-119.199995 41.4,-16.4 83.1,-20 125.1,-10.8 42,9.2 68.6,31.8 79.8,68 11.2,36.099995 9.9,70.899995 -3.9,104.399995 -13.8,33.5 -37.1,62.1 -69.9,85.7 3.9,36.8 17.1,65 39.4,84.7 61.7,47.3 88,105.7 78.8,175.3 -9.2,69.6 -25,147.8 -47.3,234.4 32.8,114.3 48.6,187.2 47.3,218.7 6.6,39.40003 10.5,106.40003 11.8,200.90003 0,82.7 2,145.1 5.9,187.2 23.6,39.4 25.79944,163.1871 3.49944,302.3871 0,25 1.3,48.6 3.9,70.9 9.2,30.2 0,48.6 -27.6,55.2 -27.6,6.6 -67.49944,-17.3871 -116.69944,-2.9871 -49.3,14.4 -91.6,7.2 -127.1,-21.7 -3.9,-15.8 18.4,-30.2 67,-43.3 49.9,-11.8 96.09944,-5.6129 135.49944,-50.2129 -5.3,-47.3 -17.29944,-167.7871 -32.99944,-292.5871 -18.4,-46 -30.9,-91.9 -37.4,-137.9 l -88.7,2 c -3.9,26.3 -16.4,66.3 -37.4,120.2 9.2,55.2 -19.39888,191.3855 -79.79888,330.5855 18.4,65.7 7.2,98.5 -33.5,98.5 -19.7,0 -54.89888,-7.2939 -99.49888,-2.3889 -50.69777,7.904 -87.39777,11.5028 -116.29777,-5.4972 -28.9,-17.1 -29.80503,-18.005 -29.80503,-29.805 15.8,-13.1 42.50336,-25.3 98.40336,-36.4 55.8,-11.2 96.79832,-3.3089 113.79832,-24.3089 10.5,-39.4 22.69888,-114.4855 30.59888,-147.3855 7.9,-32.8 11.2,-58.4 9.9,-76.8 -1.3,-40.7 -1,-76.2 1,-106.4 2,-30.2 4,-54 9.2,-123.6 -31,-4 -192.59293,-0.3431 -232.59293,-9.3431 -17.57258,-7.6858 276.19293,-263.65693 289.39293,-300.45693 l -63,-2 29.6,-76.8 c -19.7,-2.6 -28.2,-12.5 -25.6,-29.6 -2.6,-17.1 16.4,-28.2 57.1,-33.5 -7.9,-76.2 -17.1,-131 -27.6,-164.5 -10.5,-33.5 -25,-59.4 -43.3,-77.8 -26.3,18.4 -50.2,32.5 -71.9,42.4 -21.7,9.9 -54.2,24.3 -97.5,43.3 -43.6,18.8 -75.8,25 -96.8,18.5 z" />
</svg>
