<?xml version="1.0" encoding="UTF-8" standalone="no"?>
<svg
   width="1167.8536"
   height="1800"
   id="svg1663"
   version="1.1"
   xmlns="http://www.w3.org/2000/svg"
   xmlns:svg="http://www.w3.org/2000/svg"
   xmlns:rdf="http://www.w3.org/1999/02/22-rdf-syntax-ns#"
   xmlns:cc="http://creativecommons.org/ns#"
   xmlns:dc="http://purl.org/dc/elements/1.1/">
  <metadata
     id="metadata1670">
    <rdf:RDF>
      <cc:Work
         rdf:about="">
        <dc:format>image/svg+xml</dc:format>
        <dc:type
           rdf:resource="http://purl.org/dc/dcmitype/StillImage" />
        <dc:creator>
          <cc:Agent>
            <dc:title>Serge Thomas</dc:title>
          </cc:Agent>
        </dc:creator>
        <dc:publisher>
          <cc:Agent>
            <dc:title>Serge Rosmorduc</dc:title>
          </cc:Agent>
        </dc:publisher>
        <dc:date>17/04/06</dc:date>
        <dc:description>pour rendre le signe A199A de la classification de Bob Richmond</dc:description>
        <cc:license
           rdf:resource="http://creativecommons.org/licenses/GPL/2.0/" />
      </cc:Work>
      <cc:License
         rdf:about="http://creativecommons.org/licenses/GPL/2.0/">
        <cc:permits
           rdf:resource="http://web.resource.org/cc/Reproduction" />
        <cc:permits
           rdf:resource="http://web.resource.org/cc/Distribution" />
        <cc:requires
           rdf:resource="http://web.resource.org/cc/Notice" />
        <cc:permits
           rdf:resource="http://web.resource.org/cc/DerivativeWorks" />
        <cc:requires
           rdf:resource="http://web.resource.org/cc/ShareAlike" />
        <cc:requires
           rdf:resource="http://web.resource.org/cc/SourceCode" />
      </cc:License>
    </rdf:RDF>
  </metadata>
  <defs
     id="defs1668" />
  <path
     id="path1665"
     style="fill:#000000;stroke:none;stroke-width:97.3943"
     d="M 38.853436,0 C 35.037255,0 31.43053,1.1690004 28.902264,3.6972656 25.029216,7.5703119 1.9164975,412.9751 0.00187351,510.6211 c -0.09148,4.66457 3.17871899,11.82528 7.26757799,15.91406 2.7760995,2.77623 27.6800425,4.49023 30.8164065,4.49024 4.256879,0 -8.984698,-2.97573 5.8125,-9.06055 19.069724,-7.84181 33.300451,-11.79688 41.996094,-11.79688 6.528586,0 9.9375,2.22974 9.9375,6.7168 0,3.941 1.3796,10.76269 3.066406,15.1582 2.275842,5.93076 7.505432,6.60938 0,6.60938 -15.739674,0 -31.33623,19.67487 -35.935547,45.33398 -2.203043,12.29077 -3.175547,25.52337 -2.160156,29.40625 1.392209,5.32384 26.951953,14.51303 47.488505,34.95134 7.52179,7.48581 9.01861,42.9057 15.37456,51.8711 9.23009,13.01952 25.07532,7.56014 33.99401,3.60796 2.93301,-1.29972 7.51257,-31.8445 10.23568,-30.81167 19.06118,7.22975 12.12227,6.47376 22.94435,14.07854 56.18221,39.47992 78.44367,53.34536 116.68555,72.66992 68.87544,34.80457 140.81616,55.33789 184.18164,55.33789 18.34689,0 31.57901,-3.67512 37.30078,-11.5 9.68578,-13.24623 30.09649,-70.97845 38.49414,-108.87891 4.50291,-20.3227 10.02685,-63.62816 12.27344,-96.23437 3.22565,-46.81396 5.98261,-67.88086 10.49023,-67.88086 2.77787,0 6.21997,8.00025 10.84766,22.9043 27.03145,87.05755 57.48493,222.27494 51.35351,228.01758 -1.70631,1.59818 -6.8635,3.57494 -11.46093,4.39257 -11.40548,2.02793 -13.01967,20.30524 -2.89649,32.80664 l 7.97071,9.83985 -17.98047,23.27148 c -9.88915,12.79793 -19.91878,28.44041 -22.28711,34.76172 -4.05071,10.81184 -3.61823,11.49219 7.29297,11.49219 6.37944,0 13.85683,2.25727 16.61523,5.01562 -0.37253,35.75811 -2.88088,70.32963 -6.83594,104.09763 -99.65459,-2.9374 -170.05883,-19.59765 -269.33908,-17.46481 -10.70739,2.68933 -17.44505,16.37661 -12.64648,24.68751 1.75671,3.0428 125.80767,55.6728 264.57541,100.7695 -11.96721,61.2607 -26.38047,121.1629 -39.03907,182.0391 -3.92864,20.3479 -7.06446,62.3388 -12.99609,92.5586 -19.34897,98.5756 -63.8779,288.1357 -70.85351,301.625 -8.94876,17.3049 -22.90152,24.0168 -65.50391,31.5136 -62.55327,11.0071 -125.06641,38.5043 -125.06641,55.0098 0,12.3678 13.26691,15.9101 72.79297,15.9101 7.68111,0 16.13327,-0.061 25.42578,-0.1679 6.64032,-0.076 13.2492,-0.1172 19.71094,-0.1172 36.0399,0 67.50588,1.1335 74.32813,2.8203 10.55887,2.6112 19.92755,3.9336 28.19531,3.9336 22.81234,0 37.24735,-10.0657 45.20117,-30.8926 6.57756,-17.2232 6.92898,-23.3025 2.76172,-47.6035 -5.9307,-34.5862 -3.40759,-45.1162 36.35742,-151.7891 37.34311,-100.176 44.44067,-124.448 56.48828,-193.1562 5.43573,-31.0004 13.36219,-63.4833 17.61328,-72.1856 l 7.73047,-15.8242 71.41016,-1.1386 c 15.40042,-0.2435 27.54958,-0.4004 37.24804,-0.4004 31.76824,0 37.25568,1.6954 44.69532,7.5468 14.84703,11.6787 43.55394,72.9102 47.15234,100.5743 1.64461,12.6426 9.22848,63.4232 16.85156,112.8457 15.94492,103.3727 21.01085,158.6572 16.99414,185.4433 -2.61061,17.4092 -4.14461,19.3197 -20.36914,25.3711 -9.65033,3.5987 -32.11181,9.269 -49.91406,12.5977 -37.99431,7.1029 -64.386,18.0079 -87.08008,35.9824 -16.24357,12.8653 -21.21818,26.2716 -11.16015,30.0723 0.85025,0.3214 4.20785,0.4785 9.4375,0.4785 12.44249,0 35.48221,-0.8566 60.56836,-2.3535 22.45376,-1.3364 51.06818,-2.0606 75.88867,-2.0606 14.56516,0 27.82368,0.2514 37.76367,0.7676 15.16949,0.7986 25.7194,1.2832 33.33789,1.2832 15.28658,0 18.77654,-1.9606 24.13086,-7.3145 9.75522,-9.7554 11.02069,-29.0721 3.84766,-58.7519 -2.70112,-11.1765 -4.9464,-76.4755 -5.53125,-160.9102 -1.11106,-160.3818 -2.27219,-168.3639 -36.01172,-247.3847 -9.629,-22.5521 -22.27747,-54.7098 -28.10742,-71.4629 l -10.60157,-30.459 c 0.7445,-41.1181 4.62993,-37.653 5.94922,-78.4942 0,0 8.80202,-29.6328 10.16016,-58.6835 11.55631,-0.2739 22.92688,-0.6817 32.25195,-1.1915 l -0.0644,0.3731 c 5.38544,14.852 27.42346,20.9134 42.17383,21.7754 19.83535,-3.0434 40.53625,-11.5462 50.31455,-28.0645 45.9207,1.6299 57.2223,0.16 57.9023,-5.6035 l 3.1719,-26.8926 c 0.4423,-3.7498 -17.438,-4.3245 -59.5059,-4.4257 17.8201,-79.63213 68.4669,-193.73515 114.7442,-259.64065 14.833,-68.68404 -78.5792,-199.04492 -110.3028,-284.99414 -26.4944,-77.85493 -40.674,-102.05628 -64.78519,-121.94531 -17.54378,-14.47184 -30.81736,-19.43945 -62.96485,-19.43946 -8.78089,0 -18.97054,0.37109 -31.03906,1.01954 l -49.1914,2.64453 -8.87891,-20.07031 c -6.51921,-14.7378 -8.35863,-25.49211 -6.91992,-40.46485 1.79505,-18.68291 4.42484,-22.85839 31.39258,-49.82617 49.72204,-49.72184 68.22659,-96.32292 59.08593,-148.812505 C 913.69597,45.350968 879.57476,13.998682 820.72257,3.1914062 810.69746,1.3504733 799.55797,0.47851562 787.8925,0.47851562 c -39.66148,0 -85.39429,10.08784038 -114.01172,26.50585938 -34.84596,19.991295 -70.54057,68.516583 -91.99219,125.064455 -6.10411,16.091 -17.50406,42.11771 -25.33594,57.83594 -9.32465,18.71397 -13.79871,33.14063 -12.95898,41.79492 1.11925,11.53559 3.0091,13.38217 14.86523,14.52539 11.25004,1.08478 13.58399,3.05957 13.58399,11.49414 0,5.60114 2.00013,10.1836 4.44336,10.1836 2.44316,0 3.91399,3.2917 3.26953,7.31445 -1.67069,10.42617 17.54503,54.55267 25.00195,57.41406 0.69053,0.26491 2.02991,0.39258 3.89453,0.39258 7.41133,0 23.12282,-1.98888 39.40234,-5.12109 16.39349,-3.15471 26.47505,-4.66602 32.84376,-4.66602 4.84072,0 7.53629,0.87412 9.22656,2.56445 8.28653,8.28658 -2.04876,19.00383 -21.53321,22.33008 -30.06756,5.13296 -80.9871,24.27551 -103.18554,38.79297 -17.45149,11.41296 -24.3066,19.79039 -38.22461,46.70703 -20.39215,39.43727 -28.70958,77.04226 -34.83985,157.48828 -6.02065,79.00701 -8.79462,95.07403 -17.33203,100.44727 -1.61606,1.01716 -3.71997,1.55859 -6.67773,1.55859 -7.12248,0 -19.20272,-3.14433 -41.38672,-10.3789 -22.48985,-7.33427 -63.83884,-19.91085 -91.88672,-27.94727 -55.02461,-15.76613 -102.56054,-37.43934 -116.60156,-53.16016 -4.82732,-5.40455 -14.97916,-19.22913 -22.55859,-30.72265 -7.57941,-11.49362 -18.2214,-25.71744 -23.64844,-31.60938 -8.568,-9.30225 -12.75902,-42.47889 -58.88672,-274.72265 C 84.145797,137.46126 58.341514,13.691766 56.021405,9.5234375 52.666509,3.4956998 45.447957,1.16e-6 38.853436,0 Z M 771.61515,33.457032 c 78.55656,0 114.47147,32.504959 108.35547,98.000008 -2.88773,30.92524 -14.64494,55.77486 -40.94141,86.53906 -13.49833,15.79178 -26.64349,26.77929 -31.22656,26.7793 -1.09996,0 -1.70703,-0.63372 -1.70703,-1.98438 0,-1.97484 6.73628,-19.13368 14.96875,-38.13086 30.51496,-70.41556 18.87643,-113.945316 -25.31836,-113.945316 -10.31535,0 -22.40395,2.371761 -36.14453,7.326172 -8.50634,3.067144 -19.2276,4.451174 -30.33203,4.451174 -26.36159,0 -54.88706,-7.8013 -61.09375,-19.39844 -5.39513,-10.080915 7.90743,-26.720062 30.69336,-38.394531 12.90038,-6.609514 27.64841,-9.403232 57.3418,-10.855469 5.30414,-0.259453 10.44074,-0.386718 15.40429,-0.386718 z m 17.53711,87.578128 c 7.62542,0 14.09124,2.56596 18.7793,7.74609 11.94075,13.19452 1.83241,43.79496 -29.5293,89.38672 -8.92348,12.97246 -14.10156,25.48981 -14.10156,34.09375 0,15.27882 12.49152,33.71657 25.67969,37.90235 7.63449,2.42302 8.4736,5.17676 6.61132,21.69922 -1.17316,10.40815 -0.58564,24.3172 1.30469,30.9082 1.89032,6.59101 3.09791,12.13164 2.6836,12.31445 -0.41422,0.1828 -16.34232,1.63093 -35.39649,3.21485 -11.88116,0.98753 -19.68856,1.63281 -24.90625,1.63281 -9.98537,0 -10.48906,-2.37264 -11.92187,-9.28125 -5.69531,-27.46098 -16.84067,-38.82031 -41.34961,-38.82031 -5.91661,0 -12.61169,0.66529 -20.19727,1.92187 -8.20256,1.35923 -15.4952,2.00391 -21.7832,2.00391 -27.07385,0 -35.54424,-11.98068 -18.02344,-30.63086 9.61585,-10.23558 9.25294,-10.64274 -14.20703,-15.78321 -6.32143,-1.38507 -11.49609,-5.26004 -11.49609,-8.61132 0,-3.35124 -4.5034,-9.04374 -10.00782,-12.65039 l -10.00781,-6.5586 8.59961,-20.35547 c 5.44292,-12.88296 7.49562,-17.57812 10.87891,-17.57812 1.89144,0 4.20042,1.46846 7.74804,3.79297 7.31421,4.7924 16.07216,7.15625 25.5918,7.15625 13.15507,0 27.7651,-4.51484 42.0293,-13.38086 12.0192,-7.47092 26.31904,-13.58399 31.77734,-13.58399 5.45835,0 11.24387,-2.1326 12.85547,-4.74023 1.38104,-2.23461 0.31168,-3.31445 -3.55859,-3.31445 -1.88487,0 -4.43475,0.2572 -7.68946,0.75976 -1.66544,0.25712 -3.76436,0.37695 -6.16406,0.37695 -8.83515,0 -21.75774,-1.65084 -32.23438,-4.28711 -10.05504,-2.53005 -18.70664,-3.82421 -26.30273,-3.82421 -14.43683,0 -25.0617,4.67812 -34.25195,14.45507 l -10.35938,11.02344 6.83985,-13.42187 c 7.1662,-14.05889 20.24959,-20.79492 41.42968,-20.79493 7.58368,0 16.20679,0.86531 25.9668,2.56446 10.84253,1.88808 19.08993,2.80859 24.45313,2.80859 8.51006,0 9.75841,-2.32232 2.59375,-6.79883 -9.22779,-5.76549 -42.1879,-11.9082 -61.30469,-11.9082 -2.16878,0 -4.15854,0.0808 -5.91602,0.24805 -3.06239,0.29218 -5.66361,0.45117 -7.80664,0.45117 -11.48905,0 -9.8587,-4.61785 3.9043,-18.38086 7.35816,-7.35805 13.2555,-10.72852 18.99219,-10.72852 0.98612,0 1.96789,0.0992 2.95117,0.29493 5.27832,1.05245 21.82005,4.21621 36.76172,7.02929 14.9415,2.81323 32.01885,7.53298 37.94726,10.49024 3.63807,1.81466 6.32824,2.84961 9.15039,2.84961 4.6899,0 9.7426,-2.85567 20.10547,-9.73047 11.96958,-7.94097 23.33444,-11.96094 32.88086,-11.96094 z m -1.6582,9.49609 c -11.79135,0 -27.8498,11.085 -36.32227,30.23829 -4.636,10.48071 -7.45215,21.60232 -6.25781,24.71484 1.19435,3.11251 -0.5381,7.90603 -3.84961,10.6543 -7.40482,6.14543 -7.87731,19.24645 -0.79687,22.10351 3.29003,1.32748 6.14002,2.06446 8.88867,2.06445 6.89691,0 13.16214,-4.63865 24.18164,-16.22265 17.05077,-17.924 28.57812,-40.59828 28.57812,-56.21289 0,-11.90402 -6.16516,-17.33985 -14.42187,-17.33985 z m -1.95508,15.24805 c 6.16801,0 4.45045,11.66712 -4.2168,28.65625 -4.42932,8.68243 -11.32298,18.48298 -15.32031,21.77735 -2.67727,2.20622 -4.3355,3.45312 -5.18945,3.45312 -1.27654,0 -0.75346,-2.78459 0.87109,-9.30664 1.59044,-6.38247 1.55935,-9.63867 -0.0742,-9.63867 -0.36229,0 -0.80178,0.16004 -1.32031,0.48047 -1.01229,0.62527 -1.83794,0.92382 -2.47852,0.92382 -3.27229,0 -1.72872,-7.77412 4.2461,-19.32812 5.65096,-10.92785 14.05287,-17.01758 23.48242,-17.01758 z M 52.503827,171.87696 c 0.142108,0 0.286844,0.0725 0.435547,0.2207 1.4186,1.41862 15.828453,68.6466 32.019531,149.39453 l 29.437495,146.81445 -28.230464,5.62305 c -15.52547,3.09234 -33.335942,6.989 -39.580078,8.66016 -2.390163,0.63931 -4.276824,1.11719 -5.738281,1.11719 -5.375364,0 -5.01898,-6.48204 -2.97461,-35.29688 3.095166,-43.624 12.486328,-242.13157 12.486328,-263.92383 0,-7.36993 0.931966,-12.60937 2.144532,-12.60937 z m 604.611323,11.63086 c 4.45472,0 10.83582,1.2005 14.3086,3.40429 3.86727,2.45412 2.3712,4.74696 -5.41993,8.29688 -7.11955,3.24389 -12.26169,4.85547 -15.01367,4.85547 -2.95696,0 -3.15619,-1.86125 -0.0859,-5.56055 2.56018,-3.08487 3.41886,-6.84687 1.90625,-8.35937 -1.79687,-1.79692 0.58022,-2.63672 4.30469,-2.63672 z m -33.3457,1.4707 c 1.52518,0 2.60742,1.59936 2.60742,4.23047 0,3.46945 3.29173,8.22719 7.31445,10.57031 4.30678,2.50846 5.1455,3.77734 2.67578,3.77734 -1.84771,0 -5.54726,-0.71265 -11.03515,-2.14648 -7.94685,-2.07674 -9.85531,-11.77223 -3.13477,-15.92578 0.55513,-0.3438 1.08616,-0.50586 1.57227,-0.50586 z m 123.54687,19.79102 c 1.42439,0 3.15553,0.74174 4.87891,2.46484 3.00148,3.00158 3.07326,5.33922 0.21875,7.10352 -0.77234,0.47718 -1.63641,0.70312 -2.50195,0.70312 -1.75571,0 -3.5184,-0.93213 -4.54883,-2.59961 -2.69548,-4.3613 -1.0562,-7.67187 1.95312,-7.67187 z m 99.05274,196.04882 c 0.21719,0 0.43318,7.5e-4 0.64648,0.002 22.54885,0.0867 55.1632,10.59134 60.69922,19.54882 1.28921,2.08512 -3.00406,24.37894 -9.54101,49.54297 -16.38728,63.08416 -40.05175,171.09867 -48.48047,221.29102 -3.86022,22.98714 -9.64491,46.9491 -12.85547,53.24805 -7.90395,15.50706 -30.85134,26.36483 -67.79883,32.07812 -16.93331,2.61852 -34.22224,6.5993 -38.41602,8.84375 -2.03335,1.08829 -3.73537,1.66602 -5.30273,1.66602 -3.02399,0 -5.54095,-2.16026 -8.95508,-7.00586 -10.48442,-14.88088 -25.03516,-65.55436 -43.82226,-152.61914 -9.55489,-44.2798 -21.18712,-91.30025 -25.84961,-104.48828 -4.66265,-13.18806 -11.24026,-31.59121 -14.61524,-40.89649 -7.71199,-21.26218 -2.80284,-36.30858 15.47461,-47.42383 19.52166,-11.8717 148.68531,-33.78711 198.81641,-33.78711 z m 103.7168,104.50586 c 4.56392,0 8.89611,4.67379 12.85156,14.14063 16.40587,93.59565 58.39998,152.46918 106.76368,230.08594 -45.6274,67.50348 -42.1938,106.76 -50.6035,138.21289 -6.5118,24.35396 -1.2928,75.44316 -22.44143,98.61523 -19.72435,21.61149 -24.2933,27.96229 -30.66016,48.64839 -9.26155,-0.096 -28.2945,-1.6721 -47.81445,-3.3515 1.4844,-37.97434 2.8186,-103.00042 2.80469,-123.13673 l -0.0469,-66.87305 -13.60351,-27.17773 c -16.67258,-33.31301 -23.36172,-80.84062 -17.35352,-123.26758 3.96771,-28.01712 17.01004,-82.50827 32.88867,-137.39844 9.27635,-32.0674 18.65653,-48.49805 27.21485,-48.49805 z m -96.01563,299.55469 c 1.67731,0 2.76489,0.1768 3.14648,0.55859 8.59307,8.59287 12.35815,40.37461 14.50782,122.42383 l -8.56055,98.99417 c -48.39154,-4.5117 -115.12647,-10.2551 -193.11133,-16.0977 l 29.13672,-173.93358 c 23.03522,-9.50638 139.31017,-31.94531 154.88086,-31.94531 z m -48.6532,247.21479 c -3.67863,23.7401 -0.0667,52.1234 -4.16016,75.0293 -121.32846,-39.2568 -326.44267,-86.929 -325.09289,-91.9668 100.37584,4.9801 228.57207,11.1702 329.25305,16.9375 z m 39.11132,30.3575 c 13.2869,1.7489 0.24068,0.9428 13.75672,0.8242 l -12.12109,140.1562 c -4.32859,4.3283 -27.61342,5.9892 -99.13867,7.0723 -23.78744,0.3603 -42.60956,0.584 -57.48242,0.584 -47.77927,0 -54.80664,-2.2753 -54.80664,-9.5078 l 15.38671,-91.8496 c 59.58988,19.1964 139.43792,35.9722 166.55969,43.8125 4.4821,1.2952 13.0655,1.0864 17.25195,-2.9024 13.28066,-12.6537 7.151,-25.2357 5.06641,-36.5625 -2.639,-20.4495 -2.77599,-35.2197 -0.52539,-43.6191 1.26727,-4.7296 3.29119,-7.4384 6.05273,-8.0078 z" />
</svg>
