<?xml version="1.0" encoding="UTF-8" standalone="no"?>
<svg
   width="10.580191"
   height="17.983217"
   version="1.1"
   id="svg354"
   sodipodi:docname="US9A240VARB.svg"
   inkscape:version="1.2.1 (9c6d41e410, 2022-07-14)"
   xmlns:inkscape="http://www.inkscape.org/namespaces/inkscape"
   xmlns:sodipodi="http://sodipodi.sourceforge.net/DTD/sodipodi-0.dtd"
   xmlns="http://www.w3.org/2000/svg"
   xmlns:svg="http://www.w3.org/2000/svg">
  <defs
     id="defs358" />
  <sodipodi:namedview
     id="namedview356"
     pagecolor="#ffffff"
     bordercolor="#000000"
     borderopacity="0.25"
     inkscape:showpageshadow="2"
     inkscape:pageopacity="0.0"
     inkscape:pagecheckerboard="0"
     inkscape:deskcolor="#d1d1d1"
     showgrid="false"
     inkscape:zoom="84.412878"
     inkscape:cx="6.6577519"
     inkscape:cy="0.90625983"
     inkscape:window-width="1346"
     inkscape:window-height="1006"
     inkscape:window-x="1397"
     inkscape:window-y="0"
     inkscape:window-maximized="0"
     inkscape:current-layer="svg354" />
  <path
     id="path352"
     style="fill:#000000;stroke:none"
     d="M 10.039062,0 C 9.3658282,1.5743343 8.9498674,2.1059933 8.8152198,2.2095682 8.8255771,1.6813373 8.8493134,1.6106764 9.0253906,1.3828125 9.2739698,1.1756633 9.4096536,0.99783965 9.4355469,0.84765625 9.4614412,0.69747285 9.665044,0.28401271 9.3690129,0.09311108 9.2018304,-0.06373293 8.9090376,0.02770731 8.7629052,0.10482983 8.4913572,0.24814137 8.4193888,0.54061436 8.3261719,0.80990795 8.0226923,1.2706744 7.7467637,1.5046249 7.2985361,1.8153839 6.9670977,1.4943028 6.7998086,1.1920109 6.7946299,0.90718083 6.7894506,0.62235007 6.869144,0.43925925 7.0348643,0.35639961 c 0.1657192,-0.0828596 0.3007229,-0.0749588 0.4042968,0.0234375 0.1035749,0.0983956 0.1253273,0.19915944 0.068359,0.30273437 -0.056966,0.10357427 -0.1234912,0.10357427 -0.2011718,0 -0.077681,-0.1035749 -0.1468398,-0.15625 -0.2089844,-0.15625 -0.072503,0.051788 -0.08567,0.14201622 -0.039063,0.27148437 0.046609,0.12946828 0.1526401,0.19531248 0.3183593,0.19531248 0.2796519,0 0.4172881,-0.12183398 0.4121094,-0.36523435 C 7.7835945,0.38448361 7.6835087,0.2047068 7.4918955,0.09077461 7.3002823,-0.02315762 7.0855851,-0.01262287 6.8473643,0.12202461 6.6091418,0.25667138 6.4925756,0.51614258 6.4977549,0.89936835 6.5029336,1.2825947 6.6327014,1.6020329 7.0262851,1.9749013 6.8191352,2.1924085 6.6564836,2.276804 6.5632667,2.5357401 H 6.0652198 c 0.08286,0.3210815 0.06709,0.8622238 0.092983,1.0072287 0.025893,0.1450039 0.033798,0.2642042 0.023437,0.3574218 -0.093217,0.1242896 -0.1966149,0.2994799 -0.3105468,0.5273438 -0.051787,0.1346472 -0.049145,0.2090734 0.00781,0.2246094 0.056966,0.015536 0.1050541,0.044507 0.1464844,0.085937 -0.051788,0.031073 -0.070225,0.05741 -0.054687,0.078125 0.015536,0.020715 0.044511,0.036518 0.085937,0.046875 0.010357,-0.010357 -1.78e-4,0.00281 -0.03125,0.039063 -0.031073,0.036251 -0.023168,0.06327 0.023437,0.083984 0.046609,0.020715 0.062411,0.07339 0.046875,0.15625 -0.015537,0.08286 0.015734,0.1163307 0.054687,0.15625 0.1202346,0.1232141 0.2152741,0.069899 0.2949219,0.082031 L 6.6484375,5.34375 6.6328125,5.6699219 C 6.2458657,5.7921944 6.0523131,5.7348987 5.7089844,5.8515625 5.5049254,5.9209022 5.5323445,5.9826689 5.1972656,6.2773438 4.7311796,6.4948502 4.2286328,6.9193303 3.6796875,7.2714844 3.3896787,7.0332625 3.0347121,6.8350487 2.6152344,6.6796875 2.1957573,6.524325 1.8934661,6.3754727 1.7070312,6.2304688 1.4717436,6.0023107 1.2033908,5.851396 0.90429688,5.7753906 L 0.8984375,5.5 C 1.0123697,5.4482124 1.1377555,5.2764551 1.2050781,5.1210938 1.3300826,4.7880452 1.2977923,4.4620874 1.3183594,4.1484375 L 1.0976562,4.15625 1.2714844,3.3261719 C 1.3533521,2.7085256 1.4745767,2.4159722 1.5,1.9414062 c 0,0 -0.3233905,-0.1874999 -0.74804688,-0.1875 -0.43501349,0 -0.69335937,0.1621094 -0.69335937,0.1621094 0.04684415,0.6441969 0.15411913,1.0826428 0.19726563,1.3105469 0.0137421,0.1850184 0.0753138,0.7390134 0.1171875,0.9296875 L 0.16796875,4.1484375 C 0.10004606,4.7651869 0.17863971,4.9171902 0.29882812,5.1386719 0.36097318,5.2940329 0.47395843,5.4482124 0.58789062,5.5 l -0.003906,0.2246094 c -0.034738,-0.00255 -0.0680308,-0.00704 -0.10351563,-0.00781 L 0.13867188,5.7011719 c -0.0207147,0.1346472 0.0300073,0.2294627 0.15429687,0.28125 0.0310726,0.497158 0.10813239,0.7441406 0.23242187,0.7441406 0.0134267,-0.00112 0.0275285,-0.00261 0.0410156,-0.00391 l -0.009766,0.5175782 c 0,0.072503 0.0632105,0.109375 0.1875,0.109375 0.12428958,0 0.18554688,-0.036872 0.18554688,-0.109375 L 0.91992188,6.6679688 C 1.0450629,6.6424538 1.172768,6.6122556 1.3027344,6.5722656 2.2556204,7.3490757 3.0215442,7.8364112 3.6015625,8.0332031 4.5544533,7.6810529 5.3065228,7.3076462 5.8554688,6.9140625 5.9558938,7.0912838 6.0942292,7.4796128 6.1660156,7.6972656 5.9725935,8.1333754 5.7375301,8.3640852 5.5761719,8.7617188 5.0997286,8.9067233 4.5965897,9.134589 4.0683594,9.4453125 3.5401287,9.7560366 3.2194007,9.9068417 3.1054688,9.8964844 3.0232117,9.8734523 2.9299669,9.8581455 2.8320312,9.8476562 l -0.171875,-0.890625 -0.265625,0.089844 c 0,0 -0.3051658,-0.7215425 -0.8300781,-0.9023438 C 1.1586413,8.0047531 0.81699354,8.0964126 0.55664062,8.2421875 0.13612577,8.4776393 0.07506345,8.900301 0.05273437,9.3964844 0.03466739,9.7979562 0.22829892,10.516184 0.45507812,11.023438 0.55776021,11.253112 1.090587,11.477417 1.3828125,11.025391 1.71745,10.50765 1.2752551,9.4725944 1.3027344,9.1621094 c 0.047648,-0.5383791 0.7539062,0.033203 0.7539062,0.033203 l -0.2480468,0.080078 0.4550781,0.5742188 c -0.055841,0.00485 -0.1089774,0.00825 -0.1679688,0.015625 0,0.1242896 0.050722,0.1980348 0.1542969,0.2187498 0.020715,0.435015 0.083925,0.641809 0.1875,0.621094 0.067545,-0.0022 0.1361581,-0.01383 0.2050781,-0.0293 l 0.1054688,0.230469 c -0.062145,0.103575 -0.095348,0.281546 -0.033203,0.447266 0.1242893,0.258914 0.3432173,0.303563 0.5917968,0.220703 C 3.5655762,11.44984 3.7076823,11.184541 3.59375,10.894531 3.5212483,10.739168 3.349491,10.704898 3.2148438,10.673828 L 3.1210938,10.46875 C 3.2281071,10.400981 3.3372175,10.319758 3.4472656,10.222656 4.5865865,9.9119331 5.4104528,9.6175414 5.9179688,9.3378906 6.0719677,9.1500118 6.2158811,8.953449 6.3515625,8.75 c 0.020904,0.2430265 -0.077062,0.9134338 -0.1345085,1.365434 -0.061736,0.48575 -0.082706,0.722977 -0.2299841,1.437799 -0.117679,0.57116 -0.1884767,0.796453 -0.3640226,1.82372 -0.2796515,1.636477 -0.493667,2.656605 -0.6386719,3.060547 -0.1553619,0.4143 -0.3252845,0.650061 -0.5117188,0.707031 -0.1864345,0.05697 -0.5018945,0.184067 -0.9472656,0.38086 -0.3107241,0.06214 -0.4984022,0.160276 -0.5605468,0.294921 -0.062145,0.134642 0.067589,0.185367 0.3886718,0.154297 h 0.8710938 c 0.1967919,-0.06218 0.4622106,-0.06481 0.7988281,-0.0078 0.3366178,0.05697 0.479521,-0.162999 0.4277344,-0.660156 0.031073,-0.269295 0.2246988,-0.762579 0.5820312,-1.482422 0.3573328,-0.719883 0.5328361,-1.390083 0.5889812,-1.739614 0.058468,-0.363995 0.4085379,-1.135793 0.5239133,-1.351154 l 0.2602675,0.890424 c 0.1139316,0.849311 0.8560634,1.648853 0.9803537,2.89175 0.051787,0.258938 0.024767,0.447295 -0.083984,0.566406 -0.1087536,0.119111 -0.418266,0.283085 -0.9257813,0.490235 -0.4039411,0.145001 -0.496803,0.278051 -0.2792969,0.402343 h 1.1660157 c 0.1760772,-0.05179 0.3881399,-0.05179 0.6367187,0 0.3728688,0.03107 0.4709984,-0.180992 0.2949219,-0.636718 C 9.0503074,16.88216 9.0450402,16.267047 9.1796875,15.490234 9.3143344,14.713425 9.2688803,14.008756 9.0410156,13.376953 v -0.01563 L 8.6835938,11 C 8.849313,10.399269 8.8308774,9.8401389 8.6289062,9.3222656 8.4269367,8.8043923 8.4084992,8.1952223 8.5742188,7.4960938 8.739938,6.7969642 9.1159176,5.6966768 8.7480469,5.5234375 8.4683952,5.3917426 7.9369676,5.4169619 7.84375,5.1269531 8.1130441,4.754084 8.3040365,4.4675955 8.4179688,4.265625 8.5319007,4.0636551 9.3226228,2.6411536 10.410156,0 Z M 9.08424,0.31368642 C 9.5098774,0.48830054 8.9589013,0.94415894 8.7636719,1.21875 8.4840204,1.6641211 8.4734229,1.7527748 8.473423,2.3638651 8.4009203,2.4467247 8.2975226,2.5046674 8.1628761,2.5357401 H 6.9363136 C 7.1331048,2.1007264 7.3320317,2.0965905 7.6738281,1.9101562 8.0156242,1.7237217 8.3416197,1.4082617 8.6523438,0.96289062 8.7135173,0.76577493 8.8335467,0.21084162 9.08424,0.31368642 Z M 0.75195312,2.0683594 c 0.26929438,0 0.37109378,0.076172 0.37109378,0.076172 C 1.0905699,2.4897337 1.0526869,2.750298 1.0214844,3.1015627 0.9713405,3.4501793 0.91408375,3.7860799 0.8671875,4.1328127 H 0.61914062 C 0.51111608,3.4650605 0.44122323,2.7876841 0.37695312,2.1289062 c 0,0 0.0746339,-0.060547 0.375,-0.060547 z M 8.8054542,2.6646463 C 8.5775897,3.3275243 8.1539411,4.3454089 7.75,4.8632812 L 7.658203,4.6445312 C 7.9482132,4.2405905 8.0279058,3.9514671 7.8984375,3.7753906 7.7689686,3.5993134 7.5490053,3.6098487 7.2382812,3.8066406 7.1036347,3.6719944 6.8388956,3.6087836 6.4453125,3.6191406 6.4038815,3.4223487 6.4433567,2.9391489 6.4226417,2.783787 c 0,0 1.3823299,0.1193075 1.9667969,0.046875 C 8.6019426,2.804326 8.8054542,2.6646464 8.8054542,2.6646463 Z M 6.3984375,3.7753906 C 6.9680978,3.7650326 7.2012311,3.900036 7.0976562,4.1796875 l 0.09375,0.015625 C 7.3260531,3.9053037 7.4907081,3.7703003 7.6875,3.7910156 c 0.2278645,0.072503 0.1613402,0.3267057 -0.2011719,0.7617188 -0.1035743,0.1242896 -0.09304,0.3205496 0.03125,0.5898437 0.1213344,0.4764433 0.092149,0.5530596 0.8652344,0.7402344 0.2634678,0.063789 -0.03119,0.866744 -0.1347656,1.4726563 -0.192626,0.7443987 -0.1166939,1.3610739 -0.015625,1.9980468 0.3003668,0.4971587 0.1627088,0.9901514 0.05066,1.6346444 0.00756,0.753003 0.202466,2.123726 0.3455819,2.504968 0.3446876,0.918201 0.080869,2.120101 0.080869,2.120101 0,0 -0.9406033,-1.957458 -1.1650598,-2.972912 C 7.393509,11.957346 7.2284599,11.475109 7.4386411,10.618292 7.5322941,10.236509 7.9220679,9.8612912 7.9220679,9.8612912 L 7.7837875,9.5327933 c 0,0 -0.5699773,0.390098 -0.6829166,0.8554937 -0.2792175,1.150589 -0.102272,1.572733 -0.102272,1.572733 0,0 -0.6586241,1.165784 -0.8083431,2.029793 -0.149719,0.864009 -0.3552914,1.078065 -0.5980098,1.711501 0.133689,-0.641686 0.3707281,-1.699257 0.7130235,-3.567843 0.2804351,-1.530891 0.332433,-1.73 0.3876052,-2.2709791 0.1731994,-0.9722494 0.038133,-1.3529622 0.0028,-1.7022338 C 6.884349,7.8244398 7.4051021,7.4366417 7.6601563,7.0722626 7.8966922,6.7343423 8.6452409,6.3243958 8.4277344,6.0136719 8.3411795,5.927117 7.9513023,5.5100185 7.2265625,6.2402344 7.0925751,6.375234 6.531498,7.0888992 6.4550781,7.2558594 6.3135294,6.9344837 6.1106831,6.3874351 6.0097656,6.2773438 5.895834,6.1530542 6.030837,6.0898437 6.4140625,6.0898438 6.7662162,6.0898437 6.9433594,5.9251895 6.9433594,5.59375 c 0,-0.3314388 -0.1192,-0.4664415 -0.3574219,-0.4042969 C 6.3477153,5.2515981 6.249586,5.1778529 6.2910156,4.9707031 6.4256632,4.8774865 6.468484,4.8162292 6.421875,4.7851562 6.3752663,4.7540836 6.2903052,4.7330132 6.1660156,4.7226562 6.1763729,4.6605116 6.1184302,4.60979 5.9941406,4.5683594 6.0977155,4.2990655 6.197799,4.1061198 6.2910156,3.9921875 c 0.1139323,-0.051787 0.2331323,-0.051787 0.3574219,0 0.1242896,0.051787 0.2468045,0.083392 0.3710937,0.09375 l -0.015625,-0.078125 c -0.072503,0 -0.1706322,-0.027018 -0.2949218,-0.083984 C 6.5846948,3.8668613 6.4602278,3.858961 6.3359375,3.9003906 Z M 7.578125,3.8789062 c -0.01586,0.00227 -0.033314,0.0072 -0.052734,0.013672 -0.077681,0.025894 -0.1442062,0.084517 -0.2011718,0.1777344 -0.056967,0.093218 -0.075403,0.1650096 -0.054688,0.2167969 -0.051787,0.031073 -0.083393,0.073213 -0.09375,0.125 -0.010358,0.051787 0.013346,0.08866 0.070313,0.109375 0.056966,0.020715 0.1340255,-0.021425 0.2324218,-0.125 C 7.576912,4.2929102 7.6401224,4.1974134 7.666016,4.1093751 7.691909,4.0213361 7.694549,3.9574457 7.673826,3.9160157 7.658296,3.8849427 7.625703,3.8721097 7.578123,3.8789067 Z m -0.011719,0.099609 c 0.027188,0.00129 0.039699,0.019072 0.037109,0.052734 -0.00518,0.067323 -0.034149,0.1331676 -0.085937,0.1953125 -0.051787,0.062145 -0.096563,0.1049654 -0.1328125,0.1308594 -0.036251,0.025893 -0.036251,0.00746 0,-0.054687 0.036249,-0.062145 0.033612,-0.081262 -0.00781,-0.060547 -0.04143,0.020715 -0.051965,-3.554e-4 -0.03125,-0.0625 0.020715,-0.062145 0.05232,-0.114819 0.09375,-0.15625 0.056966,-0.031072 0.099765,-0.046217 0.1269531,-0.044922 z m -1.0429687,0.039062 c -0.027227,-0.00252 -0.053364,-0.00242 -0.078125,0.00195 -0.033015,0.00583 -0.065267,0.017031 -0.09375,0.035156 l -0.091797,0.09375 v 0.09375 l 0.060547,-0.03125 c 0.1450043,0.08286 0.3063454,0.077593 0.4824219,-0.015625 l 0.171875,0.03125 V 4.1484375 L 6.8027344,4.1328125 C 6.6978653,4.0628997 6.6051189,4.0251346 6.5234373,4.0175772 Z m -0.0625,0.068359 c -0.031073,0.031072 -0.031073,0.067945 0,0.109375 -0.04143,-0.010357 -0.078302,-0.02616 -0.109375,-0.046875 0.020715,-0.031072 0.057587,-0.052143 0.109375,-0.0625 z m 0.125,0 0.1542969,0.09375 c -0.062145,0.010356 -0.1181353,0.015625 -0.1699219,0.015625 0.041429,-0.031073 0.046697,-0.067946 0.015625,-0.109375 z M 6.3066406,4.5214844 c -0.010356,0 -0.015625,0.01317 -0.015625,0.039063 0,0.025894 -0.0079,0.044331 -0.023437,0.054687 -0.015537,0.010358 -0.036606,-1.774e-4 -0.0625,-0.03125 -0.025893,-0.031073 -0.044331,-0.046875 -0.054687,-0.046875 -0.020715,0 -0.036518,0.00527 -0.046875,0.015625 -0.010358,0.010357 -0.010358,0.02616 0,0.046875 0.020715,-0.020715 0.049689,-0.014767 0.085937,0.021484 0.036251,0.036251 0.073124,0.046786 0.109375,0.03125 0.03625,-0.015536 0.047467,-0.039921 0.037109,-0.076172 -0.010357,-0.036251 -0.018939,-0.054687 -0.029297,-0.054687 z m -0.125,0.2480468 c 0.04143,0.010356 0.086884,0.015625 0.1386719,0.015625 0.051788,0 0.06759,0.00527 0.046875,0.015625 l -0.2324219,0.015625 c -0.020714,-0.010357 -0.028617,-0.020892 -0.023437,-0.03125 0.00518,-0.010356 0.028886,-0.015625 0.070312,-0.015625 z m 0.1855469,0.0625 c -0.010357,0.010357 -0.032108,0.02616 -0.068359,0.046875 -0.036251,0.020715 -0.075757,0.03125 -0.1171875,0.03125 -0.010357,0.010358 -0.020893,0.010358 -0.03125,0 -0.010358,-0.010357 -0.00509,-0.02616 0.015625,-0.046875 z M 1.2949219,8.5058594 C 1.4944472,8.512043 1.7306686,8.6010819 1.9960938,8.8203125 1.3836733,8.4621794 0.90435097,8.692171 0.90429688,9.1035156 0.94301844,9.691626 1.0893183,10.711383 0.91992188,10.738281 0.67349002,10.777411 0.51273931,9.332335 0.64648438,8.9589844 0.73318639,8.7169548 0.96237975,8.4955534 1.2949219,8.5058594 Z"
     sodipodi:nodetypes="cccscsccsssssccscscscccscccccccssscccsccsccccccccscccccccccccccscccccccsccccsssscsccccccccccccccccssscscscccccscccscccccscccssscsccsccccscsscccccscccscccscccccscscccscssccsczcsccscscsssscscccsccsccccscssssccccssscsccscccccccccsccccccscssssssccssscsscsccscsccsccssssc" />
</svg>
