<?xml version="1.0" encoding="UTF-8" standalone="no"?>
<svg
   width="9.6999998"
   height="18.363008"
   id="svg2279"
   sodipodi:version="0.32"
   inkscape:version="1.2.1 (9c6d41e410, 2022-07-14)"
   sodipodi:docname="US9A515XT.svg"
   version="1.1"
   xmlns:inkscape="http://www.inkscape.org/namespaces/inkscape"
   xmlns:sodipodi="http://sodipodi.sourceforge.net/DTD/sodipodi-0.dtd"
   xmlns="http://www.w3.org/2000/svg"
   xmlns:svg="http://www.w3.org/2000/svg"
   xmlns:rdf="http://www.w3.org/1999/02/22-rdf-syntax-ns#"
   xmlns:cc="http://creativecommons.org/ns#"
   xmlns:dc="http://purl.org/dc/elements/1.1/">
  <metadata
     id="metadata2286">
    <rdf:RDF>
      <cc:Work
         rdf:about="">
        <dc:format>image/svg+xml</dc:format>
        <dc:type
           rdf:resource="http://purl.org/dc/dcmitype/StillImage" />
        <dc:creator>
          <cc:Agent>
            <dc:title>Serge Thomas</dc:title>
          </cc:Agent>
        </dc:creator>
        <dc:publisher>
          <cc:Agent>
            <dc:title>Serge Rosmorduc</dc:title>
          </cc:Agent>
        </dc:publisher>
        <dc:date>17/04/06</dc:date>
        <dc:description>pour rendre le signe A359 de la classification de Bob Richmond</dc:description>
        <cc:license
           rdf:resource="http://creativecommons.org/licenses/GPL/2.0/" />
      </cc:Work>
      <cc:License
         rdf:about="http://creativecommons.org/licenses/GPL/2.0/">
        <cc:permits
           rdf:resource="http://web.resource.org/cc/Reproduction" />
        <cc:permits
           rdf:resource="http://web.resource.org/cc/Distribution" />
        <cc:requires
           rdf:resource="http://web.resource.org/cc/Notice" />
        <cc:permits
           rdf:resource="http://web.resource.org/cc/DerivativeWorks" />
        <cc:requires
           rdf:resource="http://web.resource.org/cc/ShareAlike" />
        <cc:requires
           rdf:resource="http://web.resource.org/cc/SourceCode" />
      </cc:License>
    </rdf:RDF>
  </metadata>
  <defs
     id="defs2284" />
  <sodipodi:namedview
     inkscape:window-height="1137"
     inkscape:window-width="1920"
     inkscape:pageshadow="2"
     inkscape:pageopacity="0.0"
     borderopacity="1.0"
     bordercolor="#666666"
     pagecolor="#ffffff"
     id="base"
     inkscape:zoom="35.36195"
     inkscape:cx="4.6660322"
     inkscape:cy="7.4939305"
     inkscape:window-x="-8"
     inkscape:window-y="-8"
     inkscape:current-layer="svg2279"
     inkscape:showpageshadow="2"
     inkscape:pagecheckerboard="0"
     inkscape:deskcolor="#d1d1d1"
     showgrid="false"
     inkscape:window-maximized="1" />
  <path
     id="path2281"
     style="fill:#000000;stroke:none"
     d="M 6.6035156,0.05859375 C 6.5281664,0.06002442 6.451935,0.06413184 6.375,0.07226562 5.8877435,0.12377083 5.4190579,0.4283465 4.9707031,0.98632812 4.8727734,1.1859545 4.6352102,1.4914982 4.2558594,1.9023438 c -0.05594,0.1604453 -0.048682,0.2504492 0.023437,0.2695312 0.0083,0.00219 0.017324,0.00359 0.027344,0.00391 0.04153,0.00132 0.078644,0.00502 0.1113282,0.013672 0.04359,0.011533 0.079553,0.030133 0.1074218,0.054687 -0.05704,0.045051 -0.08776,0.093489 -0.09375,0.1445313 -0.0047,0.039686 0.00652,0.063246 0.033203,0.070312 0.0077,0.00202 0.015201,0.00258 0.025391,0.00195 0.07026,0.018591 0.076068,0.038432 0.017578,0.060547 -0.05847,0.022118 -0.06887,0.076977 -0.03125,0.1621094 0.03762,0.085132 0.053592,0.1866946 0.044922,0.3046874 -0.0077,0.1048822 0.045091,0.1712432 0.1582031,0.2011719 0.01415,0.00374 0.028902,0.0072 0.044922,0.00977 C 4.8688489,3.222351 5.0761292,3.231856 5.3476563,3.22852 5.502539,3.2695 5.5194816,3.355926 5.3964843,3.4882856 5.1273182,3.4386197 4.8986852,3.3958873 4.7734375,3.3671875 4.2157883,3.3550975 4.299148,3.2720145 3.7929688,3.5371094 3.1040656,3.8120046 2.7772109,4.5479216 2.3769531,5.0136719 2.1882647,5.2332322 1.2254629,6.5161484 1.492652,6.8610431 1.7798794,7.2318038 3.0150262,7.2032852 4.0431211,7.2264254 4.0958073,7.3726391 3.8464403,7.9444569 3.9238281,8.0292969 3.6176547,8.1368905 3.4894798,8.3490836 3.5390625,8.375 c 0.022876,0.026075 0.051135,0.050773 0.087891,0.072266 -0.1752894,0.1635797 -0.4463326,0.5540903 -0.4589843,0.671875 -0.00436,0.040623 0.023087,0.048828 0.0625,0.048828 0.026621,0 0.058691,-0.00195 0.091797,-0.00195 0.059995,0 0.1212688,0.011074 0.1523438,0.080078 0.2124928,0.4718573 -0.6364789,3.491473 -0.6699219,3.609375 0.1792744,0.423992 -0.7136268,3.781954 -0.7890625,4.277343 -0.2173654,0.558078 -0.7005327,0.319373 -1.27929688,0.560547 -0.68457793,0.189916 -1.03171691,0.562949 -0.41796874,0.601563 l 0.10546874,0.03516 c 0.026438,6.03e-4 0.0540164,0 0.0800781,0 0.37266189,0 0.70738308,-0.05664 1.03320318,-0.05664 0.1736344,0 0.3449997,0.01617 0.5175781,0.06641 0.077693,0.01603 0.1478238,0.02344 0.2109375,0.02344 0.5656212,0 0.5691742,-0.602928 0.4296875,-1.066406 0.077603,-0.601974 0.7502005,-1.927264 0.9355469,-2.894531 0.054847,-0.293149 0.1263651,-1.296875 0.4257812,-1.296875 h 0.00195 l 1.3183593,0.03125 c 0.2711344,0.0065 0.4663496,0.690165 0.59375,0.884765 0.00689,0.646467 0.5546264,2.888015 0.3164063,3.44336 -0.4528288,0.234433 -0.7772313,0.137013 -1.0839844,0.287109 -0.3760068,0.119479 -0.8478517,0.502983 -0.5722656,0.591797 0.046044,0.0019 0.092597,0.002 0.140625,0.002 0.4347105,0 0.9439732,-0.06836 1.390625,-0.06836 0.1086537,0 0.2131173,0.0036 0.3125,0.01367 0.1357744,0.0305 0.2477419,0.04492 0.3378906,0.04492 0.4815045,0 0.3672541,-0.405763 0.2558594,-0.902344 -0.059515,-0.633926 0.036232,-1.257227 -0.029297,-1.890625 C 7.1682612,14.993204 6.9962155,14.197124 6.7832031,13.683594 6.6100047,13.178192 6.2426388,12.714703 6.3085938,12.119141 6.3033376,11.480839 6.4855017,9.6738759 6.4140625,8.7753906 c 0.00259,-0.1663496 0.076019,-0.9638594 0.048828,-1.1289062 0.09635,0.01711 0.3721942,0.3829414 0.4824219,0.4121094 0.3048297,0.2564223 0.538368,0.4984184 0.8945313,0.6621093 0.433376,0.1991777 0.7465105,0.2688382 0.8300781,-0.125 C 9.0735183,7.715432 8.7465022,6.2339394 8.5585938,5.1171875 8.5992514,4.6840742 8.3408557,4.2410898 8.1706023,4.130223 8.5384395,3.8543376 9.2571721,3.5406845 9.7212584,3.2829492 L 9.4481188,2.8517758 C 8.8665623,3.1180135 7.9794188,3.5417851 7.4956707,3.9124919 7.4277648,3.8972031 7.0308585,3.7998479 7.0175781,3.796875 7.0099781,3.790065 6.998855,3.7839346 6.984375,3.7753906 6.8686253,3.4741167 6.9145922,3.1913173 7.1191406,2.9296875 7.5195954,2.7800354 7.840178,2.5580697 8.0839844,2.2617188 8.3277895,1.9653685 8.4386935,1.622352 8.4140625,1.2324219 8.3894325,0.8424906 8.1638732,0.53765467 7.7402344,0.3203125 7.5841577,0.24023924 7.4244783,0.17834702 7.2597656,0.13476562 7.0479917,0.07873245 6.8295634,0.05430175 6.6035156,0.05859375 Z M 6.453125,0.34570312 c 0.1674036,-0.007312 0.3618215,0.0193428 0.5839844,0.078125 0.05733,0.01517 0.1167544,0.0312123 0.1777344,0.0507813 C 7.748412,0.64585686 8.0012401,0.94508692 7.9707031,1.3730469 7.9401734,1.8010047 7.6977793,2.1588571 7.2460938,2.4453125 7.0358284,2.5786615 6.9117326,2.6410953 6.8730469,2.6308594 6.8286369,2.6191134 6.8982607,2.5115697 7.0800781,2.3105469 7.4201682,1.9344225 7.5526165,1.6128845 7.4804688,1.3457031 7.4426788,1.2057518 7.3381133,1.1138948 7.1660156,1.0683594 7.0095622,1.0269634 6.7987001,1.0239099 6.53125,1.0605469 5.9456018,0.83041105 5.778845,0.63255047 6.0332031,0.46679688 6.1458478,0.39339127 6.2857214,0.35301478 6.453125,0.34570312 Z m -0.9199219,0.640625 c 0.01247,-0.001399 0.023274,-0.001264 0.035156,0 0.01057,0.00112 0.02431,0.003913 0.039063,0.007813 0.1179677,0.031213 0.3701065,0.15233968 0.7558593,0.36132818 0.01363,0.051139 0.040368,0.081289 0.080078,0.091797 0.04822,0.012757 0.1144871,-0.00559 0.2011718,-0.052734 C 6.7666789,1.3280873 6.8854923,1.3114989 7,1.3417969 7.03368,1.3507069 7.066595,1.3635829 7.099609,1.3808599 7.2448876,1.4568861 7.2528917,1.5937515 7.125,1.7929688 6.9971123,1.9921852 6.8434349,2.1548776 6.6601562,2.2792969 6.4768788,2.4037151 6.3902486,2.5464721 6.4003906,2.7070312 c 0.01015,0.1605618 0.099962,0.2845092 0.2714844,0.375 C 6.5574333,3.320853 6.4913265,3.4492003 6.5195312,3.6972656 6.3000681,3.6552209 6.0557365,3.60979 5.8183594,3.5664062 5.8713491,3.1768851 5.7663868,3.0094277 5.5683594,2.9570312 5.5064794,2.9406615 5.4353306,2.934632 5.3574219,2.9375 5.2463062,2.94159 5.1525087,2.9337385 5.078125,2.9140625 4.9187326,2.8718885 4.8442326,2.776319 4.8535156,2.625 5.051884,2.5572003 5.1215116,2.4951265 5.0605469,2.4414062 4.9995769,2.3876845 4.8983332,2.3438216 4.7578125,2.3066406 4.8615352,2.1987626 4.8277804,2.0983045 4.65625,2.0078125 L 5.0976562,1.4492188 C 5.2114809,1.3762328 5.363462,1.3639828 5.5527344,1.4140625 5.6946898,1.4516225 5.8566192,1.5240743 6.0410156,1.6308594 6.1645843,1.6184474 6.1194243,1.5503644 5.9042969,1.4257812 5.7752202,1.3510325 5.6424458,1.2939521 5.5058594,1.2578125 5.4148097,1.2337195 5.3209572,1.2198226 5.2265625,1.2128906 5.3426257,1.0725679 5.4459164,0.99612407 5.5332031,0.98632812 Z M 6.9316406,1.4199219 c -0.024022,2.212e-4 -0.050477,0.00249 -0.080078,0.00781 -0.1184038,0.0213 -0.2296634,0.093008 -0.3300781,0.2167968 -0.1004128,0.1237926 -0.1292206,0.221889 -0.087891,0.2929688 -0.09547,0.019848 -0.1560247,0.064411 -0.1816407,0.1328125 -0.02565,0.068393 0.00136,0.1198874 0.082031,0.15625 0.007,0.00316 0.015788,0.00578 0.023437,0.00781 0.08033,0.021253 0.1945867,-0.020835 0.3457031,-0.125 C 6.8686323,1.9952823 6.9786623,1.8786993 7.033202,1.7578075 7.087742,1.6369151 7.101395,1.5466578 7.072265,1.4863231 7.057695,1.4561561 7.03102,1.4355381 6.99414,1.4257761 6.975695,1.4208961 6.955662,1.4196961 6.93164,1.4199161 Z m -1.5996094,0.035156 c -0.1568414,-0.00391 -0.285896,0.070856 -0.3867187,0.2246094 0.1010027,0.1142046 0.2090153,0.1863151 0.3242187,0.2167969 0.04321,0.011427 0.087622,0.015968 0.1328126,0.015625 0.1657254,-0.00126 0.3357829,-0.045477 0.5097656,-0.1347656 l 0.2851562,0.029297 0.017578,-0.0625 -0.3066407,-0.037109 C 5.7410081,1.5852418 5.5920443,1.5087822 5.4628906,1.4746094 5.4167709,1.4624104 5.3733132,1.4561065 5.3320312,1.4550779 Z m -0.1074218,0.097656 c 0.010228,-0.00213 0.018309,-4.309e-4 0.027344,0.00195 0.006,0.00158 0.012088,0.00422 0.017578,0.00781 -0.08223,0.083498 -0.047364,0.1520735 0.1035157,0.2070312 0.1591104,-0.033079 0.1914803,-0.099214 0.097656,-0.1992187 0.1049817,0.057849 0.2039932,0.1138388 0.2949219,0.1679687 -0.1310067,0.040517 -0.2623917,0.050662 -0.3925781,0.03125 -0.03424,-4.602e-4 -0.06508,-0.00414 -0.09375,-0.011719 -0.0717,-0.018969 -0.1271548,-0.061535 -0.1640625,-0.125 0.041445,-0.04703 0.078689,-0.073698 0.109375,-0.080078 z m 1.6582031,0.011719 c 0.010578,-2.04e-5 0.019439,-1.322e-4 0.027344,0.00195 0.03162,0.00837 0.040447,0.034014 0.029297,0.076172 -0.02231,0.084313 -0.074019,0.1684597 -0.15625,0.2519531 -0.08223,0.083492 -0.1552004,0.1359922 -0.2207031,0.15625 -0.0182,0.00563 -0.03158,0.00588 -0.039063,0.00391 -0.01945,-0.00515 -0.0022,-0.035226 0.050781,-0.091797 0.05298,-0.056569 0.068288,-0.086649 0.048828,-0.091797 -0.0075,-0.00197 -0.018899,-0.00172 -0.037109,0.00391 -0.02048,0.00633 -0.036845,0.00851 -0.046875,0.00586 C 6.5170224,1.875034 6.5202404,1.84813 6.5488324,1.798833 6.5903495,1.7271076 6.6574383,1.6575202 6.75,1.5917969 6.8057922,1.5727281 6.8510801,1.5645148 6.8828125,1.5644529 Z M 6.40625,2.0429688 C 6.46536,2.1037158 6.472164,2.1460395 6.427734,2.171875 6.405514,2.184792 6.386903,2.18973 6.371093,2.185547 6.355293,2.181367 6.343374,2.167773 6.333984,2.146484 6.315174,2.103917 6.338914,2.070252 6.40625,2.0429688 Z M 4.9824219,4.0371094 c 0.2658639,-0.010969 0.5905016,0.068086 0.8242187,0.046875 0.01026,0.003 0.02078,0.00504 0.03125,0.00781 0.2652848,0.070191 0.8229889,0.086575 1.1266147,0.1469515 C 6.7948666,4.3876694 6.2564307,4.6967272 6.0491665,4.8873992 5.5642298,5.2863476 5.0538455,5.748603 4.6589439,6.471354 c 0,0 0.1158051,-0.1009616 -0.033494,0.048333 C 4.514824,6.526597 4.7518311,5.2006084 4.513672,4.5273391 4.510372,4.1486005 4.7165579,4.048074 4.982422,4.0371047 Z m -1.1582031,0.390625 c 0.017686,-0.00161 0.03555,-0.00116 0.054687,0.00391 0.01992,0.00527 0.038811,0.015919 0.056641,0.029297 C 4.200953,4.9696465 4.1964926,5.6801252 4.1054903,6.5662584 3.5212696,6.462079 2.8303489,6.6768327 2.6054688,6.3886719 2.4309041,6.1649853 2.4349313,6.1310624 3.0351562,5.4375 3.4429975,5.186902 3.5589311,4.4518421 3.8242188,4.4277344 Z M 7.4277344,4.6464846 C 7.170317,5.0383727 6.3415565,6.3439018 6.1582031,6.8691406 6.0108584,6.7727008 5.4150177,6.5502644 5.2056263,6.6034425 5.4335148,6.0595177 6.1822821,5.5290095 6.5788459,5.1892839 6.9477115,4.8683999 7.4064055,4.6588184 7.4277344,4.6464846 Z M 7.5664062,5.546875 c 0.016071,-0.00376 0.029828,-0.00348 0.042969,0 0.2122514,0.05616 0.3451075,0.7827684 0.4414062,1.1835938 0.1024617,0.8821302 -0.07915,0.7493984 0.00586,1.2519531 C 7.8850308,7.9758928 7.735027,7.7219298 7.5761719,7.6347656 7.3281319,7.4258765 7.1082791,7.3702795 6.671875,7.0527344 6.9238543,6.4441663 7.0982844,6.1470545 7.3769531,5.6914062 7.4552776,5.6028071 7.518192,5.5581533 7.5664062,5.546875 Z M 4.5362572,7.2195816 C 5.0379579,7.7032317 5.4133764,7.3323985 5.9761196,7.4931823 5.8573855,7.7042652 5.8705782,8.376692 5.8705782,8.376692 5.7254587,8.4162701 4.5220755,8.0550723 4.4297267,7.9495309 c 0,0 -0.031284,-0.4313508 0.1065305,-0.7299493 z M 4.6367188,8.4960938 C 5.0576005,8.6877394 5.5440824,8.8647285 5.90625,8.9140625 5.9938585,10.138853 5.8479056,12.507813 5.6191406,12.507812 h -0.00195 c -0.1142647,0.02904 -0.8012644,0.05664 -1.3691406,0.05664 -0.3736431,0 -0.6954644,-0.01102 -0.7675781,-0.04297 C 3.5469713,12.089169 3.9724396,9.5955052 4.203125,9 4.2105912,8.7512215 4.393615,8.5990849 4.6367188,8.4960938 Z"
     sodipodi:nodetypes="scccccccccccsccccccccscccccssscccccsscsccsccccccsscscccccccscccccccccsssssssccsccsscsssccccccscscccccsccccccscsccsccccccccsccsccccccccccccccccccccsccsscscccccscccccscccsccccccccsccccccccccccccscccccccccsccccsc" />
</svg>
