<?xml version="1.0" encoding="UTF-8" standalone="no"?>
<svg
   width="921.36035"
   height="1799.745"
   version="1.1"
   id="svg1"
   xml:space="preserve"
   xmlns="http://www.w3.org/2000/svg"
   xmlns:svg="http://www.w3.org/2000/svg"><defs
     id="defs1" /><path
     id="path1-54"
     style="fill:#000000;stroke:none;stroke-width:93.1953"
     d="m 871.08947,0.0304046 c -4.5385,0.18522781 -8.6593,1.2036974 -12.3643,3.0560641 -9.8792,4.9397086 -18.7713,16.7960953 -26.6747,35.5669333 -9.8792,29.638176 -26.6755,52.359728 -50.3859,68.166778 -23.7105,15.80698 -47.4197,35.31899 -71.1302,58.53554 -23.71063,23.21661 -41.00044,45.93998 -51.86783,68.1686 -10.86725,22.22863 -19.2653,46.1865 -25.19296,71.87291 0,0 -3.9675,21.99804 -1.48177,28.15649 -7.90349,10.86733 -17.28902,27.16785 -28.15643,48.90248 -5.92756,12.8432 -5.92756,20.25372 0,22.22956 5.92765,1.97592 10.37355,4.44484 13.33736,7.40864 -3.95173,2.96385 -5.43313,5.68154 -4.44523,8.15133 0.98792,2.46985 3.45695,3.70432 7.4087,3.70432 1.97591,0 1.48196,1.48133 -1.48177,4.44519 -2.96383,2.96377 -2.46998,5.43453 1.48177,7.41046 3.95183,1.97586 5.18797,6.9156 3.70612,14.8191 -1.48196,7.90353 0.74014,13.33703 6.66779,16.30083 l -6.85486,32.20761 29.45843,3.21768 5.55285,-30.9801 26.84005,0.84255 c 0,0 6.198,21.13659 8.59614,32.76689 -0.28984,0.0515 -0.61205,0.1161 -0.90065,0.16707 0.90518,3.67138 -2.06627,8.11728 -9.06832,13.37006 h 1.05317 c -13.81254,10.90479 -33.0763,16.35711 -57.79097,16.35711 -30.53742,4.36225 -51.43928,14.35851 -62.70472,29.98866 -11.26958,15.63064 -27.62758,25.80997 -49.07502,30.53524 -1.65265,0.36416 -3.51878,1.01013 -5.32039,1.57071 4.59419,-56.07551 0.43986,-94.01151 -12.68191,-113.34861 -13.81301,-20.35588 -25.08299,-43.62012 -33.80917,-69.79195 -15.24811,0.72704 -14.87585,23.44576 1.11678,68.15587 16.00481,44.71012 14.55751,62.70367 -4.34166,53.97959 -3.63527,-10.90481 -7.81684,-23.80852 -12.54388,-38.71197 -4.72291,-14.90438 -11.4478,-21.99321 -20.17409,-21.26536 8.0025,31.26113 10.1837,55.07086 6.54434,71.42805 -3.42609,15.41674 7.21335,39.82924 31.55573,73.00417 -15.30538,10.11546 -32.41767,22.61437 -52.30541,38.7737 -42.16644,2.18119 -109.77966,5.45283 -202.83518,9.81467 h -2.17173 c -40.17024,-16.49104 -49.5845,-20.95547 -55.45769,-18.41448 7.88182,-17.12828 13.59731,-27.18209 17.12882,-30.09943 8.77947,-8.29156 13.29145,-14.26621 13.53532,-17.92419 0,-4.15862 -4.04954,-6.23744 -12.14799,-6.23744 -0.44989,0 -0.91235,0.006 -1.38733,0.0181 l -46.43474,-0.65007 c -6.25826,-44.22145 0.73475,-55.62087 -7.80995,-80.09324 -4.49451,-12.87251 -1.56926,-20.10124 -29.042628,-43.18621 -20.40123,-17.39409 -51.81574,-39.09512 -57.18092,-39.09512 -5.36527,0 11.97116,35.60322 21.86097,50.22988 14.92533,22.07377 20.30836,38.49854 20.28296,52.11108 l -0.11258,60.68368 h -45.32708 c -0.47499,-0.0129 -0.93734,-0.0181 -1.38732,-0.0181 -8.09843,0 -12.14799,2.07944 -12.14799,6.23744 0,4.14578 4.51199,10.12022 13.53531,17.92419 5.60905,4.63359 16.70469,27.19163 33.28807,67.67469 0.28997,0.65899 0.59882,1.26619 0.91158,1.85397 -9.64604,-2.60601 -18.9916,-5.63017 -27.67716,-12.38586 -5.09102,-5.08883 -27.2572104,-18.15015 -31.9842404,-9.42606 -4.72294,8.724 6.47432,28.49961 21.2490404,37.53167 44.66252,27.30318 79.069408,35.05745 100.152858,28.15103 21.08299,-6.90653 47.25569,-15.44925 78.51708,-25.62701 76.33501,21.08294 145.03739,29.80696 206.10366,26.17175 41.15742,-19.05434 78.26754,-36.64871 112.23372,-53.10614 27.26697,26.34979 61.1097,54.07789 101.73813,83.22738 1.95016,7.25928 4.04172,14.65532 6.31179,22.2223 17.16101,57.2018 23.92173,117.73803 17.22516,181.9657 -0.0558,0.45508 -0.0754,0.93563 -0.11985,1.40003 -0.065,0.60667 -0.0869,1.20124 -0.15432,1.80857 l 0.0509,0.006 c -0.0713,1.14281 -0.1943,2.24658 -0.1943,3.43922 l -99.03613,365.2842 c -27.63532,161.7184 -48.10581,263.0528 -61.41185,303.9939 -15.3529,39.9182 -32.24196,62.6923 -50.6657,68.3212 -18.42354,5.6294 -50.15452,18.6787 -95.19014,39.1496 -29.68245,5.1176 -47.59502,14.5855 -53.73625,28.4033 -6.1412,13.818 6.14281,19.7026 36.84895,17.6554 39.91785,0 69.3436,-2.0455 88.27906,-6.1392 18.93544,-4.0942 43.50169,-3.0707 73.69604,3.0705 30.19425,6.1414 44.77995,-3.5828 43.75633,-29.1715 5.11778,-51.1765 25.33355,-112.0791 60.64559,-182.7029 35.31195,-70.6239 51.17561,-123.5923 47.59325,-158.9046 -3.58236,-35.3115 7.93279,-63.7164 34.54463,-85.2102 l 113.61356,1.5363 c 24.5645,160.6948 39.4067,264.074 44.5244,310.1334 2.047,39.9176 -4.3503,66.2748 -19.1916,79.069 -14.8413,12.7943 -44.2687,21.2384 -88.2809,25.3328 -25.58812,14.3295 -39.15033,25.3319 -40.68563,33.0085 -1.53538,7.6765 7.4218,11.5142 26.86893,11.5142 18.4237,0 40.9409,-0.5108 67.553,-1.5344 26.6118,-1.0236 58.5991,-1.0236 95.9583,0 37.359,1.0236 49.3851,-10.7481 36.079,-35.3126 -11.259,-75.7417 -12.2824,-149.1826 -3.0705,-220.3183 9.2117,-71.1361 3.0706,-138.4337 -18.4236,-201.8926 l -35.3128,-233.3688 c 16.3766,-60.3885 11.0146,-143.2921 -22.0371,-186.81572 l -4.1655,0.15979 c 8.8313,-25.7178 -16.8849,-19.4489 33.9872,-170.41332 22.1628,-65.79307 34.3392,-117.59221 36.5311,-155.39626 2.0831,-36.13271 -27.412,-66.21826 -87.7543,-90.39634 0.084,-0.58582 0.08,-1.16048 -0.109,-1.696 -23.6514,-22.20417 -3.4773,-55.8614 13.0959,-86.21992 30.626,-71.13163 49.1506,-123.49147 55.5721,-157.08137 6.4217,-33.58991 8.6436,-65.94582 6.6677,-97.06594 -1.9758,-31.12011 5.9286,-59.52388 23.7114,-85.210292 12.8433,-18.770839 18.2767,-32.600608 16.3008,-41.492031 -0.9878,-9.879408 -8.8921,-19.758851 -23.7114,-29.6382042 -9.8793,-4.3222265 -18.6005,-6.33005165 -26.1643,-6.02133629 z m 9.6783,21.9807884 c 2.0374,0.104136 4.0747,0.711675 6.1122,1.823107 10.8673,5.927636 9.8798,19.759224 -2.9634,41.493849 -20.7467,30.626113 -30.1324,59.768801 -28.1565,87.431071 1.9759,27.66231 0.7415,59.03065 -3.7043,94.10247 -4.4458,35.07183 -27.9099,97.06425 -70.3912,185.97874 l -14.8191,-23.70949 c 31.6139,-50.38486 37.7899,-81.25757 18.5252,-92.61892 -19.2647,-11.36128 -38.2831,-8.15167 -57.0537,9.63125 -16.7951,-12.84322 -39.51842,-18.27671 -68.16874,-16.30083 5.92757,-29.63814 13.58503,-53.34916 22.97043,-71.13207 9.38543,-17.7829 25.93271,-38.03553 49.64341,-60.75813 23.7104,-22.72264 46.4339,-41.24704 68.1687,-55.57208 21.7346,-14.32514 39.5164,-38.776774 53.3475,-73.354657 8.1505,-17.041916 16.3015,-26.024573 24.4522,-26.950755 0.6792,-0.07718 1.3584,-0.09827 2.0373,-0.06354 z M 662.71406,321.50196 c 47.87261,-0.11574 65.78751,12.79307 53.74711,38.7265 l 8.8922,2.96346 13.3356,-29.6382 c 9.8793,-10.86737 21.9829,-12.35051 36.3078,-4.447 14.3251,7.90355 3.2112,37.04799 -33.3425,87.43287 4.9398,12.8432 23.7575,24.31161 32.6489,30.23925 -5.9448,24.95188 -6.0194,41.23111 -3.0924,51.55908 0.5487,2.92804 1.2716,5.69522 2.295,8.18219 5.819,15.26701 16.3603,28.35371 31.6251,39.25854 -24.7188,34.89583 -58.5231,97.78093 -101.4131,188.65528 -21.79866,-15.91589 -42.80403,-30.15393 -63.12065,-42.94107 -2.29992,-20.3381 -3.80688,-39.82981 -3.97665,-57.89819 -0.36399,-43.98356 12.53982,-69.42978 38.71009,-76.33626 26.17391,-6.90647 39.26201,-22.71938 39.26201,-47.4371 0,-2.5141 -0.2393,-4.77547 -0.5265,-6.98738 l 0.2434,-0.0272 -0.3378,-1.21662 c -0.014,-0.0898 -0.01,-0.20127 -0.023,-0.29054 -0.02,0.004 -0.037,0.008 -0.056,0.0109 l -13.7349,-49.47085 -28.15471,3.23038 c -22.7226,5.92764 -32.60195,-0.98898 -29.63823,-20.74783 13.83119,-7.90348 18.52399,-13.58389 14.07822,-17.04169 -4.44579,-3.45779 -12.59689,-5.18606 -24.45211,-5.18606 0.98791,-6.91556 -4.44561,-12.34904 -16.30084,-16.30082 9.8794,-25.68639 19.26511,-43.47014 28.15652,-53.34948 10.86735,-5.92758 21.98109,-6.17451 33.34246,-0.74089 11.36137,5.43371 23.46459,8.64514 36.30779,9.63307 l -1.4817,-7.41047 c -7.9035,-0.98794 -17.53601,-4.19752 -28.89738,-9.63123 -11.36127,-5.43365 -22.97074,-6.17436 -34.82608,-2.2226 l 4.44701,-10.3739 c 3.45787,-0.12351 6.78296,-0.18841 9.97446,-0.19612 z m 100.98281,10.01437 c -2.3464,-0.37049 -5.2493,0.0615 -8.707,1.29651 -6.9156,2.46986 -13.0897,8.15022 -18.5235,17.0417 -5.4337,8.89143 -7.1619,15.80631 -5.1861,20.74601 -4.9396,2.96379 -7.9043,6.91595 -8.8921,11.85565 -0.988,4.93971 1.2358,8.39807 6.6695,10.37392 5.4338,1.97586 12.8426,-2.22317 22.2279,-12.59651 9.3854,-10.37336 15.3128,-19.51213 17.7825,-27.41561 2.4698,-7.9035 2.4698,-13.83078 0,-17.78255 -1.2347,-1.97589 -3.0249,-3.14863 -5.3712,-3.51912 z m -4.0749,9.63124 c 2.5933,0.1235 3.7662,1.79183 3.5191,5.00265 -0.4939,6.42158 -3.2116,12.59579 -8.1512,18.52342 -4.9398,5.92763 -9.3838,10.12666 -13.3356,12.59651 -3.9518,2.46984 -3.9518,0.73977 0,-5.18787 3.9518,-5.92764 3.9518,-7.90275 0,-5.92691 -3.9518,1.97591 -4.9413,7.1e-4 -2.9653,-5.92691 1.9758,-5.92765 4.9403,-10.86732 8.8921,-14.8191 5.4338,-2.96381 9.4475,-4.38529 12.0409,-4.26179 z m -96.16162,2.12998 c -5.04777,-0.18523 -9.61068,1.0202 -13.686,3.61354 l -8.8903,8.89036 v 8.89219 l 4.44512,-1.48172 c 13.83113,6.91556 29.63799,6.42176 47.42071,-1.48174 l 16.30079,2.96346 -1.4815,-8.89219 h -14.81929 c -11.11415,-8.027 -20.87651,-12.19516 -29.28953,-12.5039 z m -4.79381,6.57699 c -1.97577,2.96379 -1.4821,6.42213 1.48169,10.37392 -3.95169,-0.98793 -7.41003,-1.97728 -10.37388,-2.96527 0.98802,-3.95172 3.95259,-6.42073 8.89219,-7.40865 z m 13.3374,1.48174 14.81903,7.40864 c -5.92748,0.98792 -11.36109,1.97735 -16.30082,2.96526 3.9518,-2.96384 4.44557,-6.42219 1.48179,-10.3739 z m -27.41556,40.75298 c -1.48188,0.49394 -1.97573,1.72847 -1.48178,3.70432 0.49397,1.97593 -0.24674,3.45725 -2.22255,4.44518 -1.97594,0.98794 -4.19971,3.5e-4 -6.66958,-2.96345 l -3.70435,-4.44519 c -1.9759,0.98799 -3.45732,1.72866 -4.44523,2.22259 -0.98801,0.49393 -0.98801,2.2222 0,5.18605 1.97583,-2.96385 4.44486,-2.47004 7.40869,1.48173 2.96383,3.95177 6.17524,4.94119 9.63302,2.96527 3.45765,-1.97584 4.93914,-4.69354 4.4452,-8.15132 -0.49395,-3.45773 -1.4815,-4.93911 -2.96342,-4.44518 z m -16.30083,23.89469 c 0.98791,-0.12349 2.22229,0.0616 3.70426,0.55564 3.95173,0 8.39772,0.24694 13.33736,0.74087 4.93961,0.49394 6.91478,0.74085 5.92688,0.74085 l -22.22772,1.48356 c -2.9638,0 -3.95145,-0.74248 -2.96344,-2.22441 0.49395,-0.74096 1.23475,-1.17304 2.22266,-1.29651 z m 22.9685,5.00264 c -1.97574,1.97546 -4.44524,3.70435 -7.40856,5.18606 -2.96383,1.48191 -6.42217,2.71638 -10.37391,3.70433 -1.97592,0 -3.21039,-0.24693 -3.70435,-0.74088 -0.49395,-0.49392 -0.24711,-1.7284 0.74089,-3.70432 z M 54.359202,458.36392 c 8.59649,13.96076 22.53658,22.60879 31.42315,31.52668 9.55669,9.59034 18.874738,18.06785 19.309758,40.95091 l 1.24562,65.50839 -18.683228,-0.65008 -1.52164,-60.57109 c -0.72863,-28.9967 -7.55122,-35.14782 -31.77366,-76.76481 z M 859.63327,611.3524 c 2.1402,18.93067 -5.4902,55.23572 -22.9069,108.9361 -24.7058,84.33136 -38.156,145.03573 -40.348,182.1128 -23.1255,9.39476 -63.6467,27.48938 -121.25658,54.12667 -0.27118,-0.89237 -0.54132,-1.78475 -0.848,-2.58031 1.14472,-54.32509 -4.38773,-108.9857 -16.57692,-163.97797 17.03757,11.47857 34.69454,23.08706 53.6945,34.97679 56.677,-50.13573 106.0902,-121.33733 148.2419,-213.59408 z m -810.761518,3.6553 h 99.134178 l -23.77663,54.87116 c -2.6826,8.53557 -8.53598,12.80352 -17.55929,12.80352 H 90.574362 c -9.26718,0 -15.24327,-4.39095 -17.92597,-13.17032 z m 554.535118,24.55565 c -0.34547,9.51484 -0.1165,19.58267 0.60822,30.12666 -9.45851,-5.29658 -18.78426,-10.30756 -27.89135,-14.86086 -0.61743,-0.30876 -1.04156,-0.58082 -1.65053,-0.88794 9.27462,-4.65905 20.36051,-9.97235 28.93366,-14.37786 z m 202.7697,317.29329 c 28.6591,39.91779 30.1933,89.56146 4.6051,148.92646 l 35.3126,201.1264 H 592.76782 l 76.04027,-284.6391 z" /></svg>
