<?xml version="1.0" encoding="UTF-8" standalone="no"?>
<!-- Generator: Adobe Illustrator 19.0.0, SVG Export Plug-In . SVG Version: 6.00 Build 0)  -->

<svg
   version="1.1"
   id="Ebene_1"
   x="0px"
   y="0px"
   viewBox="0 0 1436.073 1796.4883"
   xml:space="preserve"
   width="1436.073"
   height="1796.4883"
   xmlns="http://www.w3.org/2000/svg"
   xmlns:svg="http://www.w3.org/2000/svg"><defs
   id="defs885">
	
	
	
	
	
</defs>
<style
   type="text/css"
   id="style874">
	.st0{fill:#010101;}
</style>
<path
   id="XMLID_25_"
   style="stroke-width:1.01947"
   class="st0"
   d="m 1288.0453,0.04054605 c -6.8814,-0.2803532 -12.9722,0.8923597 -18.2734,3.54296875 -10.6025,5.30122 -19.5736,17.4320942 -27.0156,36.4960942 -10.6025,32.826781 -28.8512,57.703446 -54.8477,74.728511 -25.9964,16.92312 -51.6875,37.82194 -77.0723,62.79883 -25.3846,24.87496 -43.9382,49.03549 -55.6621,72.2793 -11.6219,23.34576 -20.6949,48.73031 -27.0156,76.25586 -9.583,-9.58297 -10.6023,-20.69457 -3.1602,-33.33594 7.4421,-12.74332 9.5826,-25.38559 6.3203,-38.12891 -3.1603,-12.74331 -9.788,-20.08177 -19.8808,-22.22265 -10.0927,-2.14088 -20.69442,0.3063 -31.8066,7.13672 -11.11219,6.93236 -15.08807,12.43504 -11.92773,16.71679 3.16034,4.28176 9.58341,4.48649 19.06445,0.81641 9.58298,-3.67008 9.58298,0.30584 0,11.92773 -9.58299,11.62191 -10.09439,28.34204 -1.63281,50.05665 8.35962,21.40876 21.81869,34.25459 40.37299,38.74023 -8.2577,12.64138 -18.0456,30.17489 -29.25971,52.70508 -6.3207,13.76278 -6.3207,21.40791 0,23.03906 6.32071,1.63115 11.11111,3.97637 14.27141,7.13672 -4.2818,4.28177 -5.6077,7.44311 -3.9765,9.58398 1.6311,2.14088 4.4878,3.66961 8.7695,4.79102 1.0195,-1.01946 -2e-4,0.30649 -3.1621,3.97656 -3.1604,3.67009 -2.6489,6.62475 1.6328,8.76563 4.2818,2.14088 5.6058,7.4447 3.9746,15.90625 -1.6311,8.46156 0.816,13.76146 7.1367,15.90234 l -20.2871,52.60547 c -3.2623,0 -6.52435,3.8e-4 -9.88861,-0.10156 -41.28834,8.46156 -67.28623,34.45749 -77.88867,77.88672 -25.3847,84.71756 -41.79619,151.49221 -49.23828,200.22265 -49.69288,28.61414 -119.54443,82.47519 -209.41407,161.84375 l 0.0156,-0.46094 c -13.55893,-11.418 -31.91122,-18.65839 -54.95114,-21.71679 L 369.07271,429.31398 c -12.23359,-32.21509 -35.27484,-40.67946 -69.1211,-25.18359 L 10.523876,863.70852 c -15.4958716,27.42361 -13.863245,45.46813 4.792969,53.92968 18.656213,8.56351 33.948824,1.83609 45.978515,-19.98047 -11.214118,21.81656 -7.443321,37.00485 11.212891,45.56836 18.656212,8.5635 33.948829,1.83609 45.978519,-19.98047 -10.39854,22.63214 -5.30181,38.32987 15.18945,47.19922 20.79709,9.07324 36.39637,-1.0183 46.79492,-30.3789 L 342.36177,476.92141 556.24653,969.12062 c -9.99076,0.71363 -20.49172,1.83527 -31.50195,3.56836 -4.28175,10.60244 3.16061,16.92358 22.22461,19.06446 l 3.16016,44.44726 c 7.34015,13.5589 22.02174,20.3918 44.24609,20.5957 l 25.28125,58.3125 37.51758,-20.3907 -19.16797,-44.3457 c 6.42262,-2.1408 12.64375,-4.6893 18.55664,-7.8496 l 1.32422,-41.3066 v 40.3887 c 60.35234,-29.6665 111.22532,-56.37498 152.51367,-80.23047 41.28834,-23.8555 73.60542,-43.73735 96.95117,-59.53906 44.44869,-99.60175 73.09457,-179.01868 85.83789,-238.35156 37.10851,64.6341 55.66211,153.63584 55.66211,266.89843 L 904.39497,1325.3237 h 66.77539 c -29.66644,167.3961 -51.38174,271.6882 -65.14453,312.9766 -15.90366,42.4097 -33.33834,66.4664 -52.40234,72.2773 -19.064,5.811 -51.89092,18.7599 -98.48047,38.9453 -30.68591,6.3207 -49.23986,16.413 -55.56055,30.1758 -6.32068,13.7629 6.32159,19.0647 38.12891,15.9043 h 90.52929 c 20.08347,-6.3207 47.10064,-6.6254 81.04883,-0.8144 33.84626,5.8108 48.72903,-17.2304 44.44727,-69.1211 3.16036,-26.5062 23.04021,-76.5626 59.53703,-150.168 36.4968,-73.6053 53.0123,-128.4523 49.2403,-164.4395 -3.6701,-35.9871 8.2555,-64.6349 35.7812,-85.8398 h 117.5469 c 25.3847,166.2748 40.7768,273.3206 46.0781,320.9297 5.3012,26.5062 1.0206,45.7742 -12.7422,58.0078 -13.7628,12.1317 -46.5896,28.8497 -98.4804,50.0547 -42.4098,14.7822 -52.4002,28.6477 -30.1758,41.289 h 120.8066 c 18.0446,-5.3012 39.7599,-5.3012 65.1445,0 38.1281,3.1603 48.2204,-18.5548 30.1758,-65.1445 -14.7823,-46.5894 -15.5987,-109.593 -2.3457,-189.1113 13.2531,-79.5182 8.7674,-151.4929 -13.457,-216.127 v -1.6308 l -36.4981,-241.5117 c 2.4959,-15.5205 12.0431,-54.3827 9.2793,-83.90236 3.1604,-20.08343 -2.1415,-49.24113 -15.9043,-87.36913 -20.0834,-53.0122 -10.601,-135.5889 28.6485,-247.83203 13.7628,58.21146 35.9875,111.22457 66.7754,158.93554 -8.4616,38.12801 -7.9522,79.21145 1.6308,123.1504 9.583,43.93895 13.2523,73.91268 11.1114,89.81638 -24.3653,47.7109 -30.6864,92.6703 -19.0645,135.0801 10.6025,1.0195 15.0882,-6.9324 13.457,-23.8555 -1.6311,-16.9232 1.8353,-30.6867 10.2969,-41.2891 9.5829,21.2049 13.4569,39.7585 11.9278,55.6621 -1.5292,15.9037 -7.1378,32.319 -16.7208,49.2422 -5.3011,6.3207 -6.3205,12.1305 -3.1601,17.4317 3.1603,5.3013 10.6047,7.4417 22.2266,6.3203 20.0834,-29.6665 30.1757,-57.1935 30.1757,-82.5781 0,-26.5062 -2.1404,-59.331 -6.3203,-98.4786 22.2607,-146.94232 -9.8238,-300.41264 -44.4511,-429.29876 -11.6219,-44.44869 -38.1259,-70.95445 -79.4141,-79.41602 -75.2365,8.46157 -107.5556,-15.39425 -96.9531,-71.46484 1.9297,-5.96555 14.9187,-19.78057 19.0644,-25.18164 32.8268,-77.37742 52.7067,-133.75504 59.5371,-169.23242 6.9324,-35.47741 9.2776,-69.93302 7.1367,-103.26953 -2.1409,-33.33652 6.9322,-63.81819 27.0157,-91.343754 12.7433,-20.083465 18.555,-35.479592 17.4336,-46.082031 -2.1409,-10.602438 -11.112,-21.204203 -27.0157,-31.8066408 -8.4616,-3.1603424 -16.1342,-4.89347585 -23.0156,-5.17382815 z m 3.1699,22.16210995 c 2.9151,-0.332919 5.827,0.292874 8.7325,1.873046 11.6218,7.442096 11.1124,22.222923 -1.6309,44.447266 -23.3458,33.846252 -33.8476,65.653872 -31.8086,95.320312 2.1408,29.66643 0.8169,63.0028 -3.9746,100.11133 -4.7915,37.10853 -29.9714,103.27374 -75.4395,198.59375 l -15.9062,-23.85742 c 33.8463,-54.03167 40.4721,-87.36606 19.8789,-100.10938 -20.6952,-12.74333 -41.0845,-9.58392 -61.168,9.58203 -18.0445,-13.76278 -42.4079,-19.57447 -73.0937,-17.43359 6.4226,-31.80731 14.6792,-56.98871 24.6699,-75.54297 10.0928,-18.55427 27.832,-39.9629 53.2168,-64.32812 25.3847,-24.36523 49.7498,-44.4479 73.0957,-60.35157 23.3458,-15.90365 42.4091,-42.409425 57.1914,-79.416012 8.7164,-18.273915 17.4912,-27.889914 26.2363,-28.888672 z m -221.623,321.111324 c 43.9116,1.60566 59.812,15.38757 47.7695,41.34571 l 9.584,3.16015 15.9023,-30.17578 c 9.583,-11.62191 22.0206,-13.4573 37.3125,-5.60742 15.394,7.95182 3.4663,39.45474 -35.7832,94.50586 5.3012,12.74332 12.7416,22.22386 22.2227,28.64648 6.3207,63.51269 30.6879,95.32032 73.0977,95.32032 42.4096,0 50.3616,38.63625 23.8554,116.01367 -26.506,77.3774 -35.9886,140.38088 -28.6484,189.11133 l -149.3516,49.24218 c -4.2817,-123.96697 -15.0882,-206.03386 -32.623,-246.30273 -17.4329,-40.16693 -31.8078,-66.67504 -42.9199,-79.31641 -11.11215,-12.74332 2.9579,-19.0625 42.1054,-19.0625 35.9872,0 54.0313,-16.92485 54.0313,-50.87304 0,-33.84626 -12.1328,-47.91447 -36.4981,-42.10352 -24.3651,5.81095 -34.967,-1.32669 -31.8066,-21.41016 14.7822,-9.58297 19.8794,-16.10688 15.0879,-19.8789 -4.7915,-3.67008 -13.456,-5.60742 -26.1992,-5.60742 1.0194,-7.4421 -4.7922,-12.74201 -17.4336,-15.90235 10.6024,-27.52556 20.6948,-47.09841 30.1757,-58.82226 11.6219,-5.30122 23.5497,-5.30122 35.7833,0 12.1316,5.30122 25.1825,8.46061 38.9453,9.58203 l -1.6329,-7.95117 c -8.4615,0 -18.7566,-2.95664 -30.9902,-8.76758 -12.1316,-5.81096 -24.6731,-6.62746 -37.3144,-2.34571 l 4.7929,-12.74414 c 7.4166,-0.26761 14.2621,-0.28607 20.5352,-0.0566 z m 97.5762,10.53516 c -2.1559,0.037 -4.7232,0.55876 -7.7051,1.55273 -7.9519,2.65061 -14.7805,8.96979 -20.6934,19.0625 -5.8109,10.0927 -7.6464,17.23035 -5.6074,21.41016 -5.3013,3.16035 -8.4606,7.64609 -9.582,13.45703 -1.0195,5.81097 1.4253,9.58212 7.2363,11.11133 5.8109,1.63114 13.7647,-2.95653 23.8574,-13.45703 10.0927,-10.60244 16.4119,-20.39004 19.0625,-29.36133 2.6507,-8.97129 2.9573,-15.59716 0.8164,-19.87891 -1.338,-2.67609 -3.7917,-3.9582 -7.3847,-3.89648 z m -4.6797,11.29492 c 3.5659,-0.11088 5.2143,1.63141 4.9277,5.24414 -0.5098,6.32069 -3.4663,12.94655 -8.7676,19.87891 -5.3012,6.93236 -10.0917,11.4181 -14.2715,13.45703 -4.2818,2.14088 -4.2818,5.7e-4 0,-6.32031 4.2818,-6.32068 4.2818,-8.46119 0,-6.32031 -4.2818,2.14087 -5.4045,0.20352 -3.2636,-5.60743 2.1409,-5.81094 5.3022,-11.41753 9.584,-16.71875 5.0846,-2.31928 9.0176,-3.52704 11.791,-3.61328 z m -102.0352,2.6582 c -5.4137,-0.0478 -10.3019,1.3225 -14.6601,4.11329 l -9.5821,9.58398 v 9.58399 l 6.3203,-3.16016 c 14.7823,8.46156 31.2996,7.95016 49.2422,-1.63281 l 17.4317,3.16211 v -7.95313 h 0.1015 l -17.4316,-1.63086 c -11.915,-7.96457 -22.397,-11.98676 -31.4199,-12.06641 z m -5.0762,5.74415 c -2.1409,4.28174 -1.6314,8.46238 1.6309,12.74414 -4.3837,-1.01947 -8.0545,-2.65014 -11.2148,-4.79102 2.1409,-3.16035 5.3021,-5.81225 9.5839,-7.95312 z m 14.2715,1.63281 15.9043,9.58203 c -6.4226,1.01947 -12.2339,1.5293 -17.5351,1.5293 4.2818,-3.16035 4.7912,-6.93153 1.6308,-11.11133 z m -28.8789,43.625 c -0.1851,-0.003 -0.3801,0.0329 -0.584,0.10937 -1.6311,0.50974 -2.1406,2.14236 -1.6308,4.79297 0.5097,2.65062 -0.3048,4.48601 -2.3438,5.60742 -2.0389,1.12142 -4.2814,1.9e-4 -6.3203,-3.16015 -2.0389,-3.16035 -3.6696,-4.79297 -4.791,-4.79297 -2.1409,0 -3.6716,0.50945 -4.793,1.63086 -1.1214,1.12142 -1.0195,2.65209 0,4.79297 2.1409,-2.14088 4.7928,-1.32634 7.9532,2.34375 3.1603,3.67007 6.6248,4.79325 10.2949,3.16211 3.6701,-1.63114 5.3026,-4.48779 4.7929,-8.76953 -0.446,-3.74655 -1.2833,-5.69728 -2.5781,-5.7168 z m -724.93938,18.5293 c 7.49306,-0.19593 11.54457,8.59724 12.15625,26.33593 L 269.57271,628.72023 204.83638,599.56398 307.18989,440.52687 c 3.2623,-2.06441 6.14293,-3.12806 8.64063,-3.19335 z m 710.90038,7.67968 c 4.2817,1.01947 8.9702,1.63086 14.2714,1.63086 5.3012,0 7.4418,0.50944 6.3204,1.63086 l -23.8536,1.63086 c -2.0389,-1.12142 -2.8554,-2.14031 -2.3457,-3.26172 0.5097,-1.01947 2.3452,-1.63086 5.6075,-1.63086 z m 20.6953,6.42188 c -2.1409,1.01947 -4.7928,2.65209 -7.9532,4.79297 -3.1602,2.14087 -6.9315,3.16015 -11.1113,3.16015 -1.0195,1.01947 -2.1407,1.01947 -3.1601,0 -1.1214,-1.01947 -0.6116,-2.65209 1.5293,-4.79297 z m 7.8496,52.50195 h 20.6953 l -1.6328,33.33789 c -7.8499,4.89344 -17.8395,8.56305 -29.8692,11.00977 z m -863.69137,117.64649 14.37304,6.01562 -156.589844,252.92969 c -7.951827,14.6803 -15.49537,19.98176 -22.427734,16.00586 -6.932363,-4.28176 -6.831954,-12.43749 0.40625,-24.36524 z m 25.58789,11.21484 14.37304,6.01562 -123.86523,267.30274 c -6.42263,14.68029 -14.271699,19.98373 -23.548832,16.00781 -9.277134,-4.28175 -10.807393,-13.55913 -4.384766,-27.93359 z m 28.03515,11.92773 15.5957,6.01563 -97.15429,280.96289 c -5.60706,17.84064 -13.35571,24.47003 -23.14258,19.98437 -9.58297,-4.48564 -10.80656,-15.29291 -3.56836,-32.41992 z m 992.85933,269.13867 c 30.6859,50.87132 32.8265,106.94424 6.3203,168.41794 l 36.4981,206.543 H 961.58638 L 1080.7621,966.26516 Z" />
</svg>
