<?xml version="1.0" encoding="UTF-8" standalone="no"?>
<svg
   width="1567.9342"
   height="1797.8184"
   version="1.1"
   id="svg1"
   xmlns="http://www.w3.org/2000/svg"
   xmlns:svg="http://www.w3.org/2000/svg">
  <defs
     id="defs1" />
  <path
     id="path1"
     style="fill:#000000;stroke:none;stroke-width:104.863"
     d="m 1146.4748,0.12650592 c -17.3283,0.4029823 -35.126,1.77007228 -53.3947,4.09842098 -73.0744,9.3134651 -124.6577,61.9683851 -154.74714,157.9681431 -18.62686,22.9253 -38.68578,53.01475 -60.17825,90.26838 -12.89549,24.35816 -13.61194,38.33018 -2.14929,41.91227 11.46265,3.58211 20.06019,8.23813 25.79154,13.96941 -7.16414,5.7313 -10.02996,11.10377 -8.59718,16.1187 1.43282,5.01495 5.73163,7.52355 12.89578,7.52355 10.02988,0 10.02988,2.50666 0,7.52153 -10.02975,5.01494 -10.74627,10.03011 -2.14931,15.04506 8.59699,5.01487 12.89578,17.55201 12.89578,37.61165 0,21.49254 12.17786,31.52299 36.53599,30.09014 50.14918,-1.43284 63.76198,8.23842 40.83662,29.01448 -22.92532,20.7761 -57.3136,31.16376 -103.16416,31.16376 -45.85067,0 -82.02897,11.82063 -108.53638,35.46236 -26.50741,23.64173 -59.82195,35.46236 -99.94121,35.46236 -41.55216,0 -111.04499,24.35975 -208.4776,73.07604 C 429.67744,563.38813 353.73646,465.95524 246.27404,334.13467 227.64718,276.82133 212.24428,229.53687 200.0652,192.2832 187.88611,155.02957 138.81146,114.90964 52.841503,71.924696 28.483352,74.790308 12.363924,84.463595 4.4833704,100.94119 c -7.8805542,16.4776 -5.37188124,25.43234 7.5235446,26.86518 28.656673,7.16414 54.447296,20.05844 77.372608,38.68529 22.925387,18.62679 39.403987,49.43267 49.433797,92.41768 C 104.42529,235.98402 83.290668,210.90986 75.410114,183.68602 67.529561,156.46219 54.276021,145.7173 35.649162,151.44862 37.082003,220.22461 81.49865,288.99896 168.90143,357.7749 196.12528,488.16268 277.0815,622.13308 411.76775,759.68503 582.27481,746.78953 726.2737,712.40139 843.76599,656.52087 c -1.43284,81.6715 12.53717,177.67141 41.91025,287.9995 26.13284,98.15743 39.68907,138.84433 46.40698,248.43873 -130.84817,-125.0636 -298.8993,-266.70367 -497.99353,-260.09506 -89.36884,-3.70143 -181.324,60.49624 -154.02744,124.41036 172.98898,243.7381 305.18038,459.3433 333.36115,511.9306 31.24685,74.76 -92.92852,107.6646 -156.22929,122.882 -25.3532,5.8559 -87.72342,101.274 -47.58374,101.0653 41.30352,-0.2148 187.46223,5.0113 203.20444,-1.7489 40.11865,-17.2271 101.51187,-18.9695 139.46764,3.0753 39.19241,7.1472 64.09548,-1.6024 74.70771,-26.2485 14.29251,-61.6855 11.47032,-44.3386 11.47032,-44.3386 38.81581,50.6011 95.96569,74.7949 235.43582,73.903 217.1664,-11.018 240.7291,-376.2749 217.0605,-527.7197 L 1419.767,720.99973 c 8.597,143.28323 21.4913,239.99966 38.6852,290.14877 -10.0297,80.2386 -15.045,199.1632 -15.045,356.7749 -30.0895,42.9849 -45.1332,98.8651 -45.1332,167.641 0,68.7759 6.8054,102.4476 20.4174,101.0148 13.6119,-1.4328 24.716,-28.6564 33.313,-81.6712 67.343,0 101.0148,-18.626 101.0148,-55.8796 0,-37.2536 -8.5956,-81.6723 -25.7895,-133.2543 35.8207,-141.8504 47.9988,-285.1328 36.536,-429.84888 -8.5969,-219.22336 -35.1041,-351.04439 -79.5218,-395.46224 -44.4179,-44.41779 -97.0749,-69.49404 -157.9703,-75.22534 -60.8953,-5.73136 -91.344,-35.10425 -91.344,-88.11908 32.9552,-12.89549 64.8365,-37.61246 95.6426,-74.14968 30.8059,-36.53723 46.2088,-87.04278 46.2088,-151.52026 0,-64.477412 -29.0155,-107.463155 -87.0454,-128.955694 C 1246.2133,6.3735727 1198.4599,-1.0824407 1146.4748,0.12650592 Z M 1142.059,31.69466 c 30.8395,-0.223871 65.7376,4.589777 104.6928,14.440514 62.3281,15.761175 93.4913,52.296737 93.4913,109.610016 0,54.44766 -20.7753,101.37492 -62.3275,140.77782 -41.5521,39.40284 -68.7759,50.50701 -81.6713,33.31308 -12.8954,-18.62686 -2.5078,-44.06026 31.1638,-76.29898 33.6715,-32.23869 42.269,-64.12026 25.7915,-95.64262 -16.4776,-31.52228 -52.6578,-34.38609 -108.5383,-8.59516 -20.0598,-20.05962 -65.1928,-35.10539 -135.4016,-45.1352 12.8955,-34.387968 40.119,-56.596252 81.6712,-66.626138 15.582,-3.761179 32.6245,-5.70901 51.1281,-5.843332 z M 992.06535,134.25425 c 57.31335,4.29851 103.87945,18.62575 139.70005,42.98389 -1.4328,21.49247 7.5241,22.56815 26.8672,3.22496 19.3433,-19.34329 37.9692,-25.075 55.8797,-17.19436 17.9104,7.88054 20.4189,25.07364 7.5236,51.58106 -12.8957,26.5074 -29.7315,48.71778 -50.5075,66.62815 -20.7761,17.91045 -25.7914,35.81998 -15.045,53.73036 10.7462,17.91043 18.268,33.31333 22.5665,46.20884 7.1643,71.64162 49.4336,113.91089 126.8065,126.8064 77.3729,12.8955 81.3124,121.07528 11.82,324.53751 -60.8777,178.23984 -83.4509,301.66194 -96.7183,403.00394 l -231.08451,-0.5074 c -8.56875,-133.3923 -16.42098,-195.394 -40.79415,-292.88653 -27.22376,-108.89525 -40.83459,-202.74579 -40.83459,-281.55161 0,-78.80582 27.2236,-124.29813 81.6712,-136.47721 54.44755,-12.17908 82.03025,-37.61054 82.74675,-76.29695 0.7165,-38.68656 -21.494,-55.52237 -66.6281,-50.50742 -45.13423,5.01493 -64.11939,-9.67361 -56.95526,-44.06157 27.22382,-14.32835 36.53789,-25.07321 27.94084,-32.23741 -8.59699,-7.16413 -23.64274,-11.46292 -45.1352,-12.89577 1.43283,-11.46264 -8.59566,-21.49316 -30.08812,-30.09014 20.05963,-47.28353 40.83508,-79.5223 62.32754,-96.71626 18.62686,-10.02982 38.6878,-10.02982 60.1803,0 21.4924,10.02982 42.9843,17.19444 64.4768,21.49296 v -15.04507 c -12.8954,-1.43285 -30.0905,-7.88101 -51.5831,-19.34366 -21.4925,-11.46266 -43.7008,-12.89563 -66.62611,-4.29859 8.59698,-12.8955 15.76158,-22.92391 21.49296,-30.08812 z m 204.71675,35.93145 c -3.0448,0.22387 -6.4494,0.78471 -10.2107,1.68022 -15.0446,3.58209 -27.9391,13.61254 -38.6852,30.09012 -10.7462,16.47754 -13.9713,29.01462 -9.6728,37.61166 -11.4626,5.7313 -18.2681,12.89395 -20.4173,21.49093 -2.1494,8.59705 1.7905,14.68791 11.8201,18.27002 10.03,3.58203 24.7183,-3.22536 44.0615,-20.41931 19.3433,-17.19402 31.8803,-33.31338 37.6117,-48.35813 5.7313,-15.04475 6.805,-26.14893 3.2229,-33.31307 -2.6866,-5.3731 -8.5958,-7.72405 -17.7302,-7.05244 z m -196.92632,14.30707 c -9.1343,-0.53731 -17.46243,1.34265 -24.9848,5.64115 l -21.49296,15.04506 v 15.04507 h 10.74648 c 25.791,12.89549 55.164,12.89549 88.119,0 l 32.2394,6.44788 v -15.04507 l -32.2394,-4.2986 c -19.7014,-14.3283 -37.1639,-21.93996 -52.38772,-22.83549 z m 195.04402,4.5675 c 4.1194,0.71643 5.6421,3.93949 4.5675,9.67083 -2.1494,11.46265 -7.5218,22.56683 -16.1187,33.31305 -8.5971,10.74624 -17.1947,17.91087 -25.7916,21.49296 -8.5971,3.58211 -8.5971,-1.7e-4 0,-10.74648 8.5969,-10.74622 8.5969,-14.6858 0,-11.8201 -8.5971,2.86566 -10.3871,-0.71666 -5.3722,-10.74648 5.0148,-10.0298 12.5367,-18.62735 22.5666,-25.79155 9.3134,-4.29848 16.0289,-6.08865 20.1484,-5.37223 z m -204.98375,7.52153 c -4.29852,5.73135 -4.29852,12.17952 0,19.34365 -8.59705,-2.86567 -15.0452,-5.73149 -19.34366,-8.59719 2.86569,-4.29843 9.31385,-7.8808 19.34366,-10.74646 z m 23.64225,2.1493 27.9387,15.04506 c -11.4626,2.86567 -22.2074,4.29859 -32.2373,4.29859 8.597,-4.29852 10.0299,-10.74668 4.2986,-19.34365 z m 122.5057,55.87965 c 8.597,5.73131 10.3892,10.74653 5.3743,15.04507 -5.015,4.2985 -8.9562,3.9413 -11.8221,-1.07364 -2.8656,-5.01496 -0.7164,-9.67297 6.4478,-13.97143 z m -178.38738,18.27002 c -2.86567,0.71643 -3.93935,3.22308 -3.22293,7.52153 0.71642,4.29851 -0.71649,7.16433 -4.2986,8.59717 -3.58209,1.43285 -7.52368,-0.71652 -11.82213,-6.44788 -4.29851,-5.73131 -7.87877,-8.59719 -10.74445,-8.59719 -2.86569,0 -5.01512,1.07569 -6.44789,3.22496 -1.43285,2.14917 -1.43285,4.65583 0,7.52153 4.29845,-2.8657 9.31169,-0.71633 15.04304,6.44788 5.73131,7.16413 11.82224,8.95627 18.27003,5.37424 6.44773,-3.5821 9.31353,-8.5973 8.59717,-15.04506 -0.7164,-6.44773 -2.50856,-9.3136 -5.37424,-8.59718 z m -32.77524,43.52171 c 2.14924,-0.35821 4.83546,-0.17856 8.05936,0.53784 6.44777,1.43283 14.32886,2.86574 23.64224,4.29858 9.31341,1.43284 13.25295,2.14929 11.82011,2.14929 h -45.13318 c -4.29845,0 -5.37421,-1.43289 -3.22494,-4.29859 1.0746,-1.43279 2.68717,-2.3289 4.83641,-2.68712 z m 41.37242,11.28431 c -1.43285,2.86566 -5.73164,5.73156 -12.89578,8.59717 -7.16411,2.86568 -12.89582,5.01505 -17.19436,6.4479 -5.73135,0 -9.31168,-0.71646 -10.74445,-2.1493 -1.43293,-1.43285 0,-4.29873 4.2986,-8.59718 z M 437.16502,998.09702 c 213.72358,5.32168 471.00839,246.43658 534.83281,307.88908 l 273.61357,0.2993 c 0.6981,31.7157 37.1954,418.0021 -186.9523,424.3513 -203.84316,5.7741 -256.32606,-170.5531 -310.3659,-306.1725 -54.3938,-136.5076 -149.55423,-255.3476 -183.6323,-282.148 -28.74591,-22.6072 -93.91996,-36.3277 -93.91996,-36.3277 51.16598,63.5428 111.14644,160.8492 161.39933,268.579 61.54953,131.9471 95.79654,162.3881 112.46496,236.7338 37.48309,70.5904 43.74144,133.7755 7.27081,129.5845 -37.84279,-7.1568 -107.76414,-4.7999 -161.66219,6.0294 -40.08604,-6.2248 -79.05803,-7.0723 -119.66701,-8.025 85.62832,-36.555 248.79636,-68.2494 197.26002,-185.3571 -37.77364,-71.9019 -184.52928,-281.3646 -311.58515,-492.3179 -17.08286,-61.1628 31.71338,-63.37158 80.94331,-63.11818 z" />
</svg>
