<?xml version="1.0" encoding="UTF-8" standalone="no"?>
<svg
   xml:space="preserve"
   viewBox="0 0 919.29639 1795.8094"
   y="0px"
   x="0px"
   id="Ebene_1"
   version="1.1"
   width="919.29639"
   height="1795.8094"
   xmlns="http://www.w3.org/2000/svg"
   xmlns:svg="http://www.w3.org/2000/svg"
   xmlns:rdf="http://www.w3.org/1999/02/22-rdf-syntax-ns#"
   xmlns:cc="http://creativecommons.org/ns#"
   xmlns:dc="http://purl.org/dc/elements/1.1/"><metadata
     id="metadata126"><rdf:RDF><cc:Work
         rdf:about=""><dc:format>image/svg+xml</dc:format><dc:type
           rdf:resource="http://purl.org/dc/dcmitype/StillImage" /></cc:Work></rdf:RDF></metadata><defs
     id="defs124"><defs
       id="defs113" /></defs><style
     id="style110"
     type="text/css">
	.st0{fill:#010101;}
</style><path
     id="XMLID_18_"
     class="st0"
     d="M 514.67097,0.14098619 C 496.73303,0.76311199 486.77778,5.118001 484.91141,13.101941 c 0.8295,7.361815 5.23034,17.269479 36.66189,18.93585 -12.9983,29.143052 -26.01984,38.868966 -16.96218,81.335609 9.80558,29.34305 32.80204,23.14417 52.71005,28.43224 -4.76963,9.43556 -9.33148,19.49409 -13.58268,30.38128 -5.08069,21.77439 -18.5601,55.78441 -40.43817,102.02904 -2.5922,16.69369 0.62294,24.05432 9.64375,22.08426 9.02082,-1.97007 15.34537,-0.93238 19.2855,2.90406 -3.83644,3.83644 -5.08191,8.29501 -3.83766,13.47939 1.24426,5.08069 3.83685,7.05036 7.67329,5.8061 5.08069,-1.24425 5.49585,10e-4 0.9336,3.83766 -4.45857,3.83644 -4.14709,9.33068 0.93359,16.38143 5.08069,7.05075 9.02042,16.0716 11.50892,26.95879 2.59219,10.88719 9.95484,15.76092 22.08628,14.41298 12.23516,-1.24425 27.26945,-4.45938 45.20741,-9.64375 l 7.6733,38.46973 C 565.41008,423.00811 505.06335,466.03735 443.57664,537.78912 402.51638,469.7701 343.51678,394.8042 266.58063,312.68367 267.82488,246.01258 244.18486,194.68711 195.34804,158.70753 177.4101,139.42165 165.48518,128.8459 159.78237,126.97952 c -5.80651,-1.97007 -9.33108,-0.31147 -10.57533,4.76923 -7.67288,0 -11.50893,3.21513 -11.50893,9.64375 -5.08068,0 -7.67329,3.83605 -7.67329,11.50893 -7.67287,0 -11.81998,1.24344 -12.54579,3.83563 -0.62213,2.59219 1.55532,6.42823 6.73969,11.50892 52.56958,49.97739 80.14933,85.95748 82.74152,107.73186 2.59219,10.26507 -1.24386,11.51053 -11.50892,3.83766 -17.93794,-33.38739 -31.41737,-51.32538 -40.43818,-53.91757 -12.85726,-5.08069 -16.6933,-0.62212 -11.50892,13.47939 10.26506,9.02081 20.52935,24.98712 30.79442,48.10945 10.26506,23.12232 21.46335,38.77918 33.69848,47.17787 12.23513,8.295 22.08628,13.79127 29.86285,16.38346 17.93794,51.32532 63.45771,123.80232 136.66111,217.43216 l -61.59086,28.82597 C 274.25477,533.22734 219.71456,462.71961 149.20704,385.78345 150.03654,320.04556 125.66989,269.34261 76.107251,233.77778 59.413562,214.4919 48.215266,203.91615 42.408769,202.04977 c -5.806497,-1.97006 -9.331079,-0.31146 -10.57533,4.76923 -7.672875,0 -11.510945,3.2131 -11.510945,9.64174 -6.428634,0 -9.641737,3.21513 -9.641737,9.64375 -6.4286232,0 -9.95522629,1.55491 -10.57735209,4.76923 -0.6221258,3.21432 1.55531449,7.36142 6.73969629,12.5458 52.5695798,49.97739 80.1513508,85.95748 82.7435418,107.73186 2.592191,10.26506 -1.970075,11.51053 -13.479392,3.83765 -16.693689,-33.38738 -30.173113,-51.32537 -40.438178,-53.91757 -12.857257,-5.08068 -16.072393,-0.62211 -9.643759,13.4794 10.265065,9.02081 20.531375,24.98712 30.796441,48.10944 10.265065,23.12232 21.463351,38.77919 33.698482,47.17788 12.235133,8.295 22.084263,13.79126 29.860833,16.38345 44.8967,106.4871 98.08856,190.47385 159.67896,252.06424 20.53013,6.42862 51.94795,0.31145 94.25246,-18.24862 42.30452,-18.56006 74.0334,-32.66242 95.28934,-42.30536 21.15226,-9.64294 44.5849,-23.43181 70.19572,-41.36975 17.93794,17.93794 32.0403,43.34025 42.30537,76.00182 10.26507,32.66158 19.2859,86.26859 26.95878,160.61256 -39.81601,5.08069 -58.37694,16.0716 -55.78475,32.6616 -2.59219,16.69369 5.80814,26.33747 24.99036,28.82597 l -28.826,75.06823 61.59087,1.97047 c -12.85726,35.87588 -24.98955,76.62601 -36.60255,122.14481 -11.61301,45.5188 -17.31503,97.1558 -17.31503,154.9098 -5.08068,68.019 -8.71097,116.7522 -10.57735,146.1995 -1.86638,29.4473 -2.27951,64.1819 -0.93157,103.8942 1.24425,17.938 -1.97088,42.9271 -9.64376,75.0703 -7.67287,32.0395 -17.80501,106.1883 -28.07008,144.7601 -16.69369,20.5301 -51.14733,-2.7085 -105.68697,8.2824 -54.53965,10.8872 -89.48204,22.8121 -104.8278,35.5657 0,11.5093 1.87608,24.4983 30.07908,41.192 28.20301,16.6937 47.51365,11.626 92.17371,11.3651 62.54449,-16.8266 101.7414,-0.2876 120.92359,-0.2876 39.81605,0 50.70325,-32.0384 32.6616,-96.2209 58.99816,-135.9344 85.0987,-269.8075 76.18156,-323.6213 20.53015,-52.5696 32.66036,-91.7648 36.60049,-117.3756 l 86.57918,-1.9705 c 6.42863,44.8968 18.56091,89.794 36.60256,134.6907 15.34577,121.8328 25.61002,242.679 30.7944,288.8199 -38.46801,43.6525 -82.11978,34.4785 -130.85297,45.9879 -47.48893,12.8572 -69.26292,26.9596 -65.42648,42.3053 34.63167,28.2031 76.00231,35.2522 124.11327,21.1507 48.11106,-14.1016 85.64557,12.3899 112.60436,5.9613 26.95878,-6.4287 35.87592,-24.3666 26.95878,-53.9176 -2.69587,-21.6707 -3.93888,-44.7922 -3.93888,-69.1588 21.7744,-135.9344 21.15186,-259.9956 -1.97048,-298.4637 -3.83644,-41.0603 -5.80609,-102.0296 -5.80609,-182.8022 -1.24426,-92.3856 -5.08028,-157.8114 -11.50892,-196.27941 1.24425,-30.79521 -14.10152,-102.02876 -46.141,-213.59655 21.77441,-84.60902 37.22387,-161.02778 46.141,-228.94311 9.02083,-68.01901 -16.69495,-125.04652 -76.93747,-171.29116 -21.7744,-19.28588 -34.63125,-46.86765 -38.4677,-82.74354 32.03948,-23.12233 54.85118,-51.01354 68.33057,-83.67512 13.47939,-32.66157 14.72282,-66.67158 3.83561,-102.02904 C 830.01964,76.172601 803.99487,53.983407 762.93457,45.06628 721.87427,36.045464 681.1242,39.570041 640.78971,55.641608 615.07517,65.802987 592.67823,85.192212 573.49604,113.80998 564.26785,109.97353 549.75946,98.450248 556.18809,82.067622 564.3794,60.915365 564.98721,28.410449 560.83971,15.242132 556.6922,1.8664408 532.50522,-0.68851387 514.67097,0.14098619 Z M 703.80224,72.430099 c 5.67016,0.0196 11.59113,0.230052 17.76055,0.631842 49.35531,3.214316 77.97269,24.365827 85.64557,63.456029 7.67289,39.0902 -4.7688,76.93626 -37.53409,113.53796 -32.66161,36.6017 -38.77876,34.0091 -18.24861,-7.67329 20.53015,-41.68238 24.67724,-73.72071 12.54579,-96.22091 -12.23514,-22.39651 -40.74893,-24.05511 -85.64558,-4.76923 -55.16182,-6.42862 -74.13748,-20.21951 -56.82165,-41.37177 15.15136,-18.508226 42.60649,-27.728141 82.29802,-27.590631 z m 17.99551,84.047741 c 3.36818,-0.0778 6.81497,0.28595 10.34035,1.08953 14.10152,3.21432 17.93962,15.34458 11.51099,36.60052 -6.42864,21.15226 -16.07242,39.40172 -28.826,54.85117 -12.85726,15.34575 -17.00435,30.48377 -12.54579,45.2074 4.45857,14.72363 15.76052,24.05594 33.69849,27.89238 2.59219,30.7952 16.07158,58.99788 40.43817,84.60871 57.75391,58.9982 78.28458,125.66949 61.59087,200.11714 -16.69371,74.44765 -30.1731,127.01859 -40.43817,157.81379 -17.93796,26.95876 -64.18441,42.9271 -138.52834,48.11147 -12.85727,-93.62984 -28.82351,-162.58226 -48.10941,-206.85684 -19.18221,-44.0672 -17.00477,-71.96084 6.7397,-83.57385 23.74447,-11.50931 65.11511,-32.03789 124.11327,-61.58884 35.87592,-46.14094 12.23462,-67.91702 -70.92276,-65.42851 -7.5692,-45.41515 -24.98913,-63.76627 -52.25898,-54.84914 -29.55098,9.64294 -45.51724,4.14667 -48.10943,-16.38346 15.34579,-10.26506 19.59657,-17.31624 12.54581,-21.15268 -7.05076,-3.83644 -17.0056,-5.8061 -29.86286,-5.8061 6.42863,-11.50932 1.97005,-19.90763 -13.47939,-24.98832 l 24.98832,-61.59086 c 12.85724,-15.34576 40.43898,-16.69289 82.74354,-3.83563 11.50933,-5.08069 6.4278,-10.88843 -15.3466,-17.31705 -21.7744,-6.42863 -42.92585,-7.05117 -63.456,-1.97047 7.67287,-19.28588 16.07116,-29.13502 24.9883,-29.86083 9.02083,-0.62212 34.00996,4.14792 75.07026,14.41299 5.0807,9.02081 13.47898,7.98313 24.98831,-2.90407 8.632,-8.16539 18.02267,-12.36515 28.12735,-12.59845 z m 4.27504,6.24759 c -3.36985,-0.15553 -7.4651,1.0632 -12.28657,3.65539 -9.64295,5.08069 -17.62607,14.413 -24.05471,27.89238 -6.42863,13.47938 -7.05117,23.4322 -1.97048,29.86082 -7.67288,3.83645 -11.81997,9.33271 -12.54578,16.38346 -0.62213,7.05075 2.90242,11.19786 10.5753,12.5458 7.88027,1.24425 17.52322,-5.49505 29.03254,-20.32237 11.50933,-14.72364 18.5605,-27.89199 21.1527,-39.4013 2.59219,-11.50932 1.96965,-20.21869 -1.97048,-26.0252 -1.91823,-2.90325 -4.56268,-4.43345 -7.93252,-4.58898 z m -5.71495,15.83869 c 3.04582,-0.15553 4.7295,1.86597 5.04056,6.06532 0.62213,8.295 -1.55531,17.00438 -6.73969,26.02519 -5.0807,9.02082 -10.26384,15.34537 -15.34453,19.2855 -5.08069,3.83644 -5.80734,1.24424 -1.86721,-7.77657 3.83645,-9.02082 3.21391,-11.50771 -1.97048,-7.67127 -5.08069,3.83644 -6.4278,1.96844 -3.83561,-5.80813 2.59219,-7.67287 6.42822,-15.34456 11.50891,-23.12113 5.75467,-4.51041 10.16222,-6.84338 13.20805,-6.99891 z m -125.79219,24.72909 c -3.85095,0.0778 -7.38121,0.59621 -10.59552,1.55532 -12.85728,3.83644 -22.39737,14.10072 -28.826,30.79442 16.69369,10.26506 31.72801,13.4802 45.2074,9.64376 13.47939,-3.83645 26.64772,-11.51015 39.4013,-23.12315 l 26.95878,-3.83564 -1.97047,-7.67329 -26.85344,3.83766 c -17.34176,-7.6988 -31.76896,-11.43237 -43.32205,-11.19908 z m 2.88387,11.19908 c 10.26507,1.24425 19.90678,3.21391 28.82392,5.8061 -10.16139,7.67288 -21.04859,12.13145 -32.66161,13.47939 -10.26507,2.59219 -18.55968,0.62253 -24.9883,-5.8061 5.08069,-9.02081 9.64295,-12.85888 13.47939,-11.51094 -5.0807,11.50931 -1.24467,17.31704 11.50891,17.31704 12.85727,-6.42862 14.10276,-12.85686 3.83769,-19.28549 z m 90.41479,19.28549 c 6.42863,3.83645 8.0868,7.36102 4.87249,10.57533 -3.21432,3.21432 -6.11591,3.21432 -8.70811,0 -2.59219,-3.21431 -1.24508,-6.73888 3.83562,-10.57533 z m 94.25247,588.73719 c 10.26508,0 19.90679,4.45858 28.82392,13.47939 14.10152,17.93794 28.20387,75.07116 42.30539,171.29324 4.04382,82.0168 4.04299,145.5767 0.20654,190.4733 -2.59219,14.1015 -26.33583,20.8412 -71.23257,20.2191 -44.89675,-0.6221 -100.68122,0.9328 -167.35226,4.7692 2.59219,-84.609 12.23597,-160.3011 28.82599,-227.0759 16.59002,-66.77475 43.65291,-114.78141 80.77308,-144.33236 2.59219,-1.24425 12.2339,-7.04996 28.82392,-17.31503 11.50933,-7.67287 21.15311,-11.51094 28.82599,-11.51094 z"
     style="stroke-width:1.03688" /></svg>
