<?xml version="1.0" encoding="UTF-8" standalone="no"?>
<svg
   width="943.39551"
   height="1801.627"
   version="1.1"
   id="svg1125"
   xml:space="preserve"
   xmlns="http://www.w3.org/2000/svg"
   xmlns:svg="http://www.w3.org/2000/svg"><defs
     id="defs1129" /><path
     id="path1123"
     style="fill:#000000;stroke:none;stroke-width:101.257"
     d="M 655.86376,0 C 641.26155,0 627.18039,1.0780779 616.67649,3.7336302 581.36399,12.661243 535.7069,54.306876 512.17712,100.76786 c -3.5701,7.04941 -14.222,24.37185 -24.25698,39.18727 -14.17069,20.92099 -17.45508,28.73279 -16.79604,35.45364 0.69759,7.11544 2.30484,9.95498 9.3309,11.19666 7.57799,1.33911 8.21585,1.50042 7.46514,9.3288 -0.60757,6.33456 0.11313,9.80899 3.7294,11.19666 4.07627,1.56423 5.04365,1.76875 1.86787,3.73152 -3.17658,1.9633 -4.44413,4.91787 -1.86787,14.93029 1.75108,6.8056 4.65502,17.40823 5.59938,22.3912 2.58714,13.65106 7.3164,16.79395 31.72213,16.79395 0.84427,1e-5 2.84207,0.005 3.73364,0 7.40471,0.0912 25.99025,1.20559 41.82637,1.63755 -1.10811,4.922 1.95417,16.33906 -10.87338,31.6186 -4.01607,4.78373 -42.80602,8.74889 -78.40833,14.37035 -35.60224,5.62138 -61.83784,24.04748 -78.70206,55.27758 -16.86422,31.23001 -48.40491,73.70313 -94.62544,127.41884 -46.22046,53.71573 -74.32889,101.18467 -84.32256,142.40829 32.47929,23.73486 64.96063,34.66509 97.43992,32.79129 31.4475,-1.81427 86.23613,-12.90531 163.35635,-32.87159 2.41317,5.61297 4.54928,11.5877 7.15877,16.94396 23.73482,48.71898 35.60154,90.56909 35.60154,125.54674 L 384.99915,1197.9838 c -22.48567,59.9617 -31.85441,113.0537 -28.10681,159.2741 -28.73162,104.9331 -49.34423,181.7584 -61.83627,230.4771 -13.74126,43.7222 -30.29229,70.5807 -49.65495,80.5742 -19.36264,9.9937 -57.77634,25.6083 -115.23964,46.8447 -29.98087,7.4951 -47.15696,15.3026 -51.529162,23.4224 -0.970428,1.8022 -1.297305,3.5156 -1.160026,5.1641 H 0 l 0.93303299,56.2382 907.84521701,1.6488 -0.93303,-56.0622 -106.30862,-1.8248 c 3.27589,-6.8135 2.6051,-15.6486 -2.4257,-26.7164 -11.24285,-42.4729 -13.11787,-85.5709 -5.62262,-129.2932 31.23005,-148.6549 27.48424,-246.0929 -11.24104,-292.3134 v -95.5657 L 769.13199,974.9951 c 9.99346,-19.98741 14.67572,-48.72068 14.05129,-86.19678 -0.62461,-37.47606 -7.80689,-68.08032 -21.54813,-91.81518 -13.74121,-23.73484 -20.60997,-43.72244 -20.60997,-59.96206 0,-29.98084 7.49372,-70.89242 22.48418,-122.73437 14.99042,-51.84193 30.60508,-93.37846 46.84469,-124.60857 v -1.87422 c 7.49524,68.70616 29.35794,130.54181 65.58469,185.50669 -24.98387,77.45061 -36.22785,136.47683 -33.72945,177.0759 2.4984,40.5991 -4.99748,80.26053 -22.4863,118.98595 h 1.87421 c -22.48566,31.22994 -27.48365,72.45524 -14.99157,123.67244 13.74119,1.2492 19.67775,-8.1196 17.80395,-28.1067 -1.87378,-19.9874 2.1856,-36.8521 12.17918,-50.5931 11.24289,26.233 15.61375,48.7186 13.11526,67.4568 -2.49831,18.7381 -8.7443,37.4775 -18.73788,56.2156 -6.24607,7.4952 -7.49393,14.6777 -3.7463,21.5481 3.74758,6.8708 11.86639,9.0572 24.35838,6.5588 24.98416,-34.9778 37.47577,-67.4591 37.47577,-97.4399 0,-29.9808 -6.86872,-63.0852 -20.60998,-99.31204 C 912.16613,904.41375 937.14944,810.724 943.39552,688.30218 935.90023,630.83887 916.5357,547.7657 885.30556,439.08503 874.06269,352.89003 833.11295,297.0444 778.14806,297.0444 c -23.11351,0.37479 -65.42671,-11.4684 -74.35566,-34.6951 -3.10033,-8.69496 -11.07832,-21.58221 -11.07832,-26.66787 0,-2.42261 13.90893,-12.34398 24.72816,-21.0854 C 761.97757,178.613 782.90306,140.21001 782.75435,93.302716 782.60769,47.003022 760.47968,21.950902 708.11133,5.5972752 694.34825,1.2993224 675.20337,0 655.86376,0 Z m 1.86364,22.393328 c 53.89311,-2e-6 96.23694,42.256516 100.76575,61.578486 8.36621,35.695506 -11.35968,73.350096 -52.24757,104.499376 -15.61831,11.89868 -26.16759,18.6597 -29.85637,18.6597 -2.16198,1e-5 -0.51435,-1.33501 1.86576,-5.59938 1.93457,-3.46547 10.3411,-17.63993 18.6597,-29.85638 14.74117,-21.64782 24.25909,-43.77783 24.25909,-57.84484 0,-3.82942 -3.10931,-12.95365 -5.59728,-18.661818 -5.65507,-12.974946 -16.52504,-16.793936 -39.18727,-16.793936 -4.56486,0 -9.34339,-0.419127 -14.92818,0 -0.74296,0.05585 -1.04668,0 -1.86787,0 -24.18698,0 -80.37498,-23.444842 -74.64091,-27.9906 24.79063,-19.651395 50.08259,-27.990608 72.77515,-27.990608 z M 566.17846,82.01308 c 0.58338,-0.03077 1.20472,-0.03002 1.97987,0.09295 12.54148,1.990188 58.00306,20.67942 63.44634,26.12274 1.89283,1.89269 3.22639,1.86786 5.59728,1.86786 3.5743,0 8.50499,-2.46465 16.79393,-7.46514 5.49108,-3.312686 11.36857,-3.731513 16.79607,-3.731513 11.75555,0 22.30948,7.194393 22.3912,18.659693 0.0747,10.48376 -17.82846,37.13768 -35.45575,55.98121 -11.00085,11.75988 -17.49206,21.76652 -18.65969,27.9906 -2.3509,12.53107 6.47367,30.02708 21.54602,33.58999 20.7391,39.87092 23.33396,47.94438 42.29333,75.44596 42.47291,0 75.28063,35.45171 85.89886,59.18658 10.61822,23.73484 15.30266,46.84538 14.05341,69.331 -29.98086,57.46336 -52.77998,114.30315 -68.39495,170.51722 -15.61504,56.21413 -23.42235,95.56421 -23.42235,118.0499 l -148.03093,26.2326 c 0,-24.98403 -11.55527,-61.52272 -34.66549,-109.61701 -0.85257,-1.7742 -1.6514,-3.85052 -2.4912,-5.6987 14.44167,0.10743 32.28996,-0.75637 54.02248,-2.73207 16.2396,0 23.73337,-23.11266 22.48418,-69.33311 17.48885,-7.49527 24.3597,-19.98691 20.61209,-37.47576 -54.51007,-3.14479 -95.64729,7.08476 -123.7676,30.32967 -10.04017,-39.26193 -18.77981,-86.05237 -26.13542,-140.88485 -14.99043,-41.22371 -1.56226,-65.58203 40.28601,-73.07729 41.84831,-7.49517 71.87095,-16.13199 78.12098,-26.95736 14.04934,-24.33417 12.22654,-45.17439 0.94027,-62.79132 -8.53256,-13.50328 -8.33802,-15.41122 -39.18725,-16.79395 -15.06554,-0.67542 -21.76996,-1.65807 -26.12274,-5.59727 -8.23199,-7.44982 -7.14375,-16.42358 1.86364,-20.52757 10.77954,-4.91147 7.06375,-12.18824 -7.46303,-16.79393 -9.304,-2.9499 -11.61978,-4.70522 -9.3309,-7.46304 3.80225,-4.58156 1.3038,-13.10269 -5.59728,-16.79606 -4.94674,-2.6474 -4.13605,-4.38934 9.32879,-26.12484 7.97793,-12.87833 16.17571,-24.16457 18.66181,-26.12272 2.93408,-2.31098 9.54572,-3.73364 16.79394,-3.73364 9.71791,0 21.27987,1.79192 31.72212,5.59939 15.39641,5.61372 21.65276,7.46304 24.25909,7.46303 1.71666,0 2.40361,-0.0895 1.86576,-1.86575 -2.01926,-6.66923 -34.85634,-22.08591 -52.24969,-24.25909 l -16.79394,-1.86365 9.3309,-11.198776 c 6.4257,-6.673923 9.98987,-7.463034 14.92818,-7.463034 0.62405,0 1.16827,-0.06218 1.75166,-0.09295 z m 106.47923,22.48629 c -14.23837,0 -37.3215,21.8001 -37.3215,39.18516 0,4.39014 -1.77341,9.94395 -3.73152,11.19667 -8.32755,5.32757 -11.15711,10.48171 -7.46514,14.93029 2.23073,2.68788 4.00441,5.59728 7.46514,5.59728 5.41466,1e-5 13.70622,-4.56507 22.39121,-11.19667 23.17511,-17.69543 36.44561,-45.6626 26.12485,-55.98331 -1.96906,-1.96914 -4.54998,-3.72942 -7.46304,-3.72942 z m -3.73362,13.06033 c 3.73667,0 7.03299,2.81738 5.59938,7.46515 -3.71656,12.0479 -11.0961,20.17529 -18.65969,26.12482 -4.86169,3.82422 -8.98574,5.59728 -11.19666,5.59728 -2.78679,0 -2.99937,-2.306 1.86575,-7.46303 2.8482,-3.01916 2.84827,-4.55508 0,-5.59939 -5.75018,-2.10834 -3.24118,-7.33231 5.59728,-16.79393 5.66548,-6.06486 12.27676,-9.3309 16.79394,-9.3309 z m -115.69392,3.73362 c -8.43553,0 -14.93948,1.87714 -20.52546,7.46303 -10.5732,10.57307 -11.381,13.58856 0,20.52757 6.00974,3.66422 14.42292,5.59728 22.39121,5.59728 9.01059,0 18.02483,-2.82588 27.9906,-7.46515 8.37984,-3.90101 20.79743,-7.46092 26.12485,-7.46092 5.3272,0 9.3309,-0.30135 9.3309,-1.86788 0,-1.56655 -5.08608,-3.73362 -11.19666,-3.73362 -6.11061,0 -17.74284,-1.69622 -26.12273,-5.59728 -10.31251,-4.80073 -20.17159,-7.46303 -27.99271,-7.46303 z m -9.32881,7.46303 c 1.39337,0 2.9246,2.83802 1.86576,5.59728 -0.90927,2.36977 -0.068,5.13747 1.86577,7.46726 2.15233,2.59347 2.85176,3.7294 1.86575,3.7294 -0.83819,0 -3.41105,-0.23706 -7.46303,-1.86576 -7.20584,-2.89639 -8.73819,-6.19 -3.73364,-11.19454 2.21399,-2.214 4.38675,-3.73364 5.59939,-3.73364 z m 23.04413,1.63333 c 0.3672,0.0258 0.76848,0.0958 1.21286,0.23455 3.51489,1.09669 8.2806,3.58032 11.19664,5.59727 4.85755,3.35982 4.47724,4.66512 -5.59938,7.46303 -6.77713,1.88176 -11.06275,1.86576 -13.0603,1.86576 -2.31497,2e-5 -2.24028,-1.03001 0,-3.7294 1.93356,-2.32978 2.81445,-6.85869 1.86576,-9.3309 -0.89183,-2.32393 0.29523,-1.86575 1.86575,-1.86576 0.42243,0 0.90978,-0.13986 1.51501,-0.20919 0.30263,-0.0346 0.63647,-0.0511 1.00366,-0.0253 z m 66.52496,30.09091 c 2.34976,0 5.59728,1.38168 5.59728,3.73151 0,2.34981 -3.24752,5.59939 -5.59728,5.59939 -2.34983,0 -3.73363,-3.24958 -3.73363,-5.59939 0,-2.34983 1.3838,-3.73151 3.73363,-3.73151 z m -184.76079,316.0823 c 3.84568,35.8934 9.90482,68.89104 18.0258,99.1937 l -132.3294,13.23356 c 56.21414,-38.72527 94.31633,-76.20031 114.3036,-112.42726 z m 264.20661,290.43922 c 3.74759,17.48885 12.49139,38.09929 26.2326,61.83415 13.74127,23.73487 12.49331,73.0788 -3.74632,148.03092 l 11.24106,183.63452 -92.04763,-0.3063 -31.16851,-29.0915 c 14.70519,-13.3304 28.03178,-27.8762 36.44885,-43.352 28.07752,-51.6233 38.38835,-131.18972 43.26742,-199.25363 4.37189,-60.98819 3.6076,-110.17037 3.39555,-120.21993 z m -38.72876,7.74618 c 0.19752,18.55013 0.14459,61.74779 -3.41668,111.42782 -4.75296,66.30449 -16.75681,144.42389 -39.40703,186.06869 -9.21031,16.9342 -36.40767,41.7962 -60.98683,60.3297 -18.91886,14.2654 -32.93055,23.2755 -39.84863,27.6378 l -85.56711,0.2894 118.04989,-363.51856 z m -75.87488,377.30991 34.15838,31.8807 -12.14117,105.6128 -58.016,-1.8594 -6.14453,-105.3868 c 8.94236,-5.9216 20.94378,-14.1603 33.74846,-23.8152 2.76334,-2.0838 5.57757,-4.2459 8.39486,-6.4321 z m -69.02884,47.7935 9.22948,115.2903 105.21568,1.701 9.22525,-116.9913 c 3.74761,26.2333 14.99139,58.0895 33.72946,95.5657 14.99042,143.6583 24.98423,240.471 29.98103,290.4392 2.49841,46.2204 -3.74955,77.1396 -18.74,92.7555 -14.99042,15.615 -45.59682,25.9202 -91.81729,30.9171 -21.66566,14.4436 -34.31363,25.7318 -38.93794,34.2112 H 327.15007 c 2.01602,-4.8467 2.6519,-10.5712 1.63545,-17.3476 2.49843,-32.4793 13.74007,-63.0835 33.72734,-91.8151 68.70609,-127.4187 101.18751,-227.9815 97.43992,-301.6846 0,-19.9871 8.43234,-41.8476 25.29657,-65.5826 16.86423,-23.7347 31.54234,-46.2223 44.03442,-67.4588 z" /></svg>
