<?xml version="1.0" encoding="UTF-8" standalone="no"?>
<svg
   version="1.1"
   id="Ebene_1"
   x="0px"
   y="0px"
   viewBox="0 0 1772.922 1794.9652"
   xml:space="preserve"
   width="1772.922"
   height="1794.9652"
   xmlns="http://www.w3.org/2000/svg"
   xmlns:svg="http://www.w3.org/2000/svg"
   xmlns:rdf="http://www.w3.org/1999/02/22-rdf-syntax-ns#"
   xmlns:cc="http://creativecommons.org/ns#"
   xmlns:dc="http://purl.org/dc/elements/1.1/"><metadata
     id="metadata3997"><rdf:RDF><cc:Work
         rdf:about=""><dc:format>image/svg+xml</dc:format><dc:type
           rdf:resource="http://purl.org/dc/dcmitype/StillImage" /></cc:Work></rdf:RDF></metadata><defs
     id="defs3995" /><style
     type="text/css"
     id="style3983">
	.st0{fill:#010101;}
</style><path
     id="XMLID_3_"
     style="stroke-width:1.01948"
     d="M 497.9144,0.08289068 C 483.10563,0.15130908 471.94722,4.6179924 457.46713,9.4969531 402.52652,29.566687 360.93592,57.836654 321.16245,89.219609 238.38083,153.75257 190.97506,227.25726 140.81674,305.14539 99.175862,376.27261 50.48509,454.25126 29.693698,524.63953 c -7.136346,25.38501 -10.501155,47.4068 -10.195312,65.34961 l 6.832031,369.96875 7.033203,362.22071 3.160156,205.9336 c 0.940605,24.8053 -0.161754,51.7818 3.058594,76.0547 l -38.3320315,102.252 c -7.0142257,21.8288 17.1610595,58.1656 30.7890625,67.481 12.947372,8.5636 39.317408,15.8402 59.503074,19.2043 237.943095,0.5165 1386.077125,2.1973 1498.973425,0.7873 32.5834,2.4784 67.3765,-0.1112 96.7481,-0.1015 46.1823,-10.9219 88.2298,-84.8955 85.5351,-129.168 -8.7897,-33.6957 -25.0948,-74.9184 -55.459,-84.7187 -12.5395,-3.7721 -25.5893,-5.913 -38.6386,-6.2188 h -0.5098 c -172.6578,0.488 -882.147,-1.5703 -981.14644,-2.5488 -56.68298,0.1019 -174.8412,0.204 -275.76953,-4.6895 -79.82513,-3.874 -143.54244,-66.8784 -148.33399,-146.6015 L 270.80112,1254.79 V 679.90711 C 277.82864,574.44648 314.75763,464.83028 367.0394,393.94227 L 560.9437,137.64539 C 572.75091,117.53963 587.84605,84.49876 582.96518,63.325078 572.52827,21.934268 540.08018,-1.5827214 497.9144,0.08289068 Z m 8.64844,51.10156232 c 13.84419,1.156471 22.59991,8.879265 26.65234,23.253906 -0.81559,7.136347 -9.17678,26.200381 -13.56055,33.642581 L 326.36166,363.25672 c -33.84667,44.65313 -60.14821,93.99611 -78.29492,146.70312 -16.79843,59.0017 -28.24023,116.91775 -28.24023,170.04883 v 574.98643 c 0.70691,55.3574 1.42577,110.7148 2.14062,166.0722 v 1.1211 c 2.95649,51.1778 24.56947,99.2972 60.96485,135.3867 36.39536,36.0895 84.61712,57.2951 135.79492,59.8438 102.25366,4.9955 221.2272,4.8948 278.41992,4.7929 106.0768,0.6736 830.47758,-1.7164 980.53508,2.5469 27.2239,-0.5111 42.192,21.5846 44.3477,44.043 0.7262,36.3671 -22.7951,62.3367 -46.6934,74.2168 -29.0321,0.9189 -57.8562,0.1344 -84.8203,-0.1016 -14.1283,3.9588 -1474.16395,2.9353 -1500.775327,-1.6401 -25.283055,-4.1799 -34.152915,-12.1331 -37.61914,-18.25 l 37.61914,-107.5454 c 2.534494,-28.5749 -2.192945,-61.4613 -2.242187,-88.1836 L 84.33823,1321.2607 C 81.996442,1200.4866 79.648783,1079.7125 77.303073,958.93836 L 70.574558,589.2743 C 70.370663,576.42888 73.224855,558.89433 78.933933,538.50477 106.64723,461.18141 143.72122,395.45465 183.73666,332.97742 231.55019,258.86137 276.71329,188.9259 352.6644,129.69422 389.88146,99.16569 434.16239,71.613354 473.8812,58.024297 484.35086,53.9135 495.93666,50.364765 506.56284,51.184453 Z M 1182.1351,222.72742 c -44.2611,-0.34765 -86.4892,8.60319 -126.7149,26.72071 -49.5687,20.33652 -77.13273,65.95476 -82.92963,137.13281 1.6255,18.28344 -1.59378,36.65454 -9.73047,55.23633 -8.27379,18.09091 -11.68856,36.5161 -10.31836,55.40039 2.8037,10.0135 10.66608,13.52789 23.66407,10.41797 12.89948,-3.08239 15.77889,0.77078 8.46679,11.71093 -3.87529,2.03801 -4.86862,4.53896 -3.07812,7.53125 1.3979,3.10228 3.54697,4.72396 6.54297,4.83789 -4.2019,8.05783 -2.99205,12.37718 3.65625,13.05664 7.15074,0.96212 10.7011,4.94438 10.7207,11.82032 0.5495,7.25679 4.0912,15.37076 10.5273,24.36718 6.5734,9.48732 26.4155,9.6495 59.3027,0.44141 l 40.7754,-18.08789 c 0.059,7.39429 3.5465,15.3095 10.336,23.67773 -31.9922,9.38084 -58.4604,19.96757 -79.5,31.78711 -57.19922,30.51878 -103.49115,95.46306 -147.38281,185.98828 -4.27659,8.9256 -16.03584,11.15988 -23.39453,4.53907 -56.17824,-63.82639 -78.87765,-152.71891 -165.91797,-217.20508 0.211,-0.78767 0.45626,-1.56728 0.78516,-2.31445 32.61907,-73.86005 30.69584,-142.87699 -5.82813,-207.18165 -0.4477,-0.75392 -0.76277,-1.559 -1.07617,-2.36523 -10.72039,-30.55947 -18.89913,-48.41856 -24.48633,-53.43945 -1.98369,-1.81988 -3.86745,-2.98314 -5.65625,-3.50586 v -0.002 c -1.78869,-0.52269 -3.48675,-0.40477 -5.09375,0.33594 -2.94509,1.37702 -6.19156,2.17505 -9.50586,1.60742 -3.82219,-0.67977 -6.93397,0.0677 -9.29687,2.14649 -2.4041,2.17207 -5.34891,3.5479 -8.56641,4.02539 -1.67589,0.26483 -3.27744,1.12204 -4.71093,2.60742 -3.703,3.60526 -8.76963,5.4956 -13.88672,4.46875 -3.6877,-0.73197 -6.08914,-0.33903 -7.33594,1.22852 -2.0608,2.65722 -1.37725,8.19086 1.87305,16.75 35.23006,84.45261 48.81334,139.88833 40.75195,166.30273 -2.0579,12.01489 -6.45318,12.6411 -13.23047,1.97266 -1.3323,-2.03436 -2.0861,-4.37002 -2.25,-6.78125 -3.82869,-45.45917 -10.14493,-71.85573 -18.94922,-79.1836 -11.14789,-11.36682 -17.72455,-9.58262 -19.68945,5.25782 -0.3324,2.52688 -0.065,5.20771 0.91601,7.5332 6.4221,15.52434 9.58992,38.19155 9.72852,67.99219 0.1461,31.80885 5.10656,55.71528 14.87305,71.48632 7.93419,12.84827 15.26984,22.75795 21.68164,29.70118 2.7954,3.01235 8.05716,4.35876 10.03515,8.10742 26.83638,35.92744 109.26631,182.94068 141.17188,244.06055 7.62989,5.69799 8.04603,17.01649 0.77344,23.18164 l -40.66797,35.10156 c -5.6979,4.98319 -14.21314,4.82568 -19.77344,-0.28711 C 649.87032,821.90463 535.94056,685.04866 520.09018,664.2782 c -0.3683,-3.7027 -0.60153,-8.01025 0.73047,-11.15039 32.61907,-73.86012 30.69594,-142.87692 -5.82813,-207.18164 -0.4477,-0.75395 -0.76277,-1.559 -1.07617,-2.36523 -10.72039,-30.5595 -18.90108,-48.41854 -24.48828,-53.43946 -1.9837,-1.81986 -3.86745,-2.98118 -5.65625,-3.5039 v -0.004 c -1.7887,-0.5227 -3.4848,-0.40477 -5.0918,0.33594 -2.94509,1.37702 -6.19156,2.1731 -9.50586,1.60547 -3.82219,-0.67978 -6.93397,0.0676 -9.29687,2.14648 -2.4041,2.17207 -5.35086,3.54986 -8.56836,4.02735 -1.6759,0.26483 -3.27744,1.12009 -4.71094,2.60546 -3.70299,3.60525 -8.76767,5.4956 -13.88476,4.46876 -3.6877,-0.73197 -6.08914,-0.33904 -7.33594,1.22851 -2.0608,2.65725 -1.37725,8.19087 1.87305,16.75 35.23016,84.45272 48.81334,139.88829 40.75195,166.30273 -2.0579,12.0149 -6.45318,12.64111 -13.23047,1.97266 -1.3323,-2.03435 -2.0861,-4.37 -2.25,-6.78125 -3.82869,-45.45919 -10.14688,-71.85574 -18.95117,-79.18359 -11.14809,-11.36684 -17.7226,-9.58263 -19.6875,5.25781 -0.3324,2.52691 -0.065,5.20772 0.91601,7.5332 6.4221,15.52437 9.58992,38.19152 9.72852,67.99219 0.1461,31.8089 5.10656,55.71526 14.87305,71.48633 7.93419,12.84828 15.26984,22.75796 21.68164,29.70117 14.76008,30.49577 35.41889,64.9573 55.16797,89.55469 88.29751,110.04728 124.39374,220.3745 217.37695,273.42391 2.3874,1.343 5.12635,2.0592 7.84375,1.9336 26.55747,-1.1897 61.10543,-19.2237 103.83398,-54.16025 45.02166,-36.95516 78.82171,-64.84274 101.27149,-83.72656 22.45008,-18.88411 46.14756,-43.51593 71.16599,-74.02344 5.0028,-5.95305 11.3826,-9.6447 16.2715,-12.60156 8.4186,25.90957 20.8526,46.88316 37.3769,62.79492 17.5343,16.85566 133.9054,178.61149 160.6426,244.89849 9.3049,20.4827 18.7021,42.9883 24.1738,60.4805 -3.8195,-4.972 -12.5009,-6.895 -15.8515,-11.8457 l -218.4024,-125.6875 c -29.27229,-17.0279 -68.71807,-54.2458 -92.57025,-47.7129 -58.51184,16.0253 -107.55383,31.8079 -98.99023,92.5683 l 41.26562,247.6407 c -56.47884,13.7628 -82.57672,56.2763 -78.29492,127.4355 -25.58878,5.1993 -49.13985,12.54 -70.54883,22.123 -20.89888,9.0734 -42.00128,12.6397 -63.41016,10.8047 -21.40887,-1.4273 -36.29423,8.9724 -44.85742,31.2989 H 1746.1683 c -23.2436,-45.5702 -56.4798,-63.6139 -99.7051,-54.1329 -42.7159,9.4812 -71.6694,-9.2775 -86.8594,-56.2753 -14.6805,-46.4876 -39.6589,-56.4795 -74.7285,-29.8711 34.1521,-65.9598 23.6786,-131.1997 2.8555,-207.9746 -9.8257,-36.2269 -19.91,-84.9299 -26.3321,-119.7461 -15.1484,-82.12428 -42.7234,-204.89888 -43.8183,-242.12313 -1.3891,-47.23175 12.6699,-228.99803 12.6699,-228.99804 0.9332,-15.60858 -3.9393,-31.0824 -13.7051,-43.27539 -0.1533,-0.16884 -0.1789,-0.26732 -0.3047,-0.3379 -27.2363,-29.21607 -69.5267,-32.41129 -141.4824,-15.65234 -16.9875,-13.02949 -27.5783,-25.52053 -32.0234,-37.61523 27.8214,-15.20043 48.4143,-37.69306 61.6523,-67.54883 13.8269,-30.02059 12.8473,-72.09559 -2.8984,-126.44336 -15.6085,-53.85699 -48.9126,-82.43262 -100.2598,-85.8418 -6.4062,-0.42958 -12.7706,-0.66909 -19.0937,-0.71875 z m -7.2442,33.71094 c 50.0637,-2.6893 82.1531,20.40811 96.3321,69.16016 14.0693,48.35937 10.2485,87.64659 -11.3653,117.83593 -20.9857,30.54278 -43.422,38.51773 -67.2773,24.02344 -10.5553,-5.93752 -13.9663,-12.07526 -10.3887,-18.58203 12.0986,-7.83384 15.3958,-19.87229 9.9219,-36.01953 9.2716,-21.33449 12.2895,-38.16749 8.8261,-50.53711 -5.3833,-22.63053 -19.1102,-30.43427 -41.2187,-23.18555 -8.8826,3.43983 -15.7859,8.65767 -20.8633,15.47852 -53.0946,-17.21209 -95.681,-19.58067 -127.7597,-7.10547 6.5857,-27.14626 23.054,-48.4883 49.2539,-64.1875 9.6409,-5.83573 21.0306,-10.74263 34.1738,-14.72461 21.9048,-6.63663 48.6828,-10.69634 80.3652,-12.15625 z m -4.6347,98.55273 c 6.4385,-0.13537 10.6062,4.53337 12.541,13.9961 3.1885,11.38793 0.603,25.97998 -7.8086,43.58008 4.0955,14.62755 1.7048,21.9686 -7.1739,22.01953 -8.7686,0.44364 -13.4692,-3.11169 -14.1562,-10.85938 0.2745,22.15531 12.3691,46.82531 36.3105,74.10547 23.5885,27.90831 41.6259,49.22149 54.1094,63.93555 12.4834,14.7141 27.3535,20.18198 44.4863,16.33789 17.1327,-3.84418 37.2848,-6.73375 60.4297,-8.76758 23.1453,-2.03388 33.1872,11.14187 30.3477,39.56836 -2.8042,27.04026 -2.2736,72.41744 -8.7734,162.63672 0.3829,28.8512 1.9126,56.82976 2.83,86.86523 13.311,73.34396 31.3402,146.53744 47.5157,219.42974 5.7778,35.6765 22.942,80.682 25.3222,116.3496 l -128.1484,28.4434 c -4.2676,-13.62 -7.4566,-23.3667 -11.5039,-36.1953 -4.6585,-17.9323 -16.9786,-49.8409 -26.961,-66.6934 -27.8046,-41.6328 -102.0935,-192.40128 -179.2226,-262.71099 -10.6378,-8.87877 -21.4291,-31.1579 -32.4004,-66.93945 18.6575,-16.48083 35.4274,-44.42837 43.5566,-67.14258 2.7372,-17.07009 -12.8339,-45.84727 -28.1875,-71.19141 6.6521,-2.70947 14.1714,-5.34525 22.5157,-7.68164 51.2456,-14.34805 71.4379,-32.59848 60.8984,-54.73828 l -17.4824,-25.38281 c -9.8718,-15.97454 -14.9282,-26.10013 -15.1992,-30.47071 -10.7828,0.0549 -24.826,4.72518 -41.9317,13.96094 -30.3511,11.46221 -48.9964,15.2045 -56.0332,11.2461 -7.0369,-3.95838 -11.0192,-10.99755 -11.8476,-21.14063 l 19.875,-13.7168 c 4.2372,-4.15058 3.9284,-9.03955 -1.0977,-14.51367 l -31.5977,5.88281 c 3.0198,-17.57257 -0.8491,-27.60422 -11.3808,-30.05468 -12.12234,4.34688 -19.18642,2.93511 -21.24802,-4.42774 1.5629,-6.89551 4.89271,-19.57971 10.0332,-38.27539 5.1406,-18.69568 13.93672,-32.27477 26.31832,-40.61133 12.845,-8.57218 26.9796,-11.78682 42.4004,-9.64648 15.2833,1.64948 29.4516,2.33892 42.7285,2.11523 l 1.127,-9.20898 c -12.1572,0.43971 -25.4282,-0.82031 -39.4864,-3.76563 -27.2211,-5.71777 -47.8368,0.0541 -61.75,17.28907 -0.051,-8.8786 1.459,-15.97041 4.4278,-21.24805 8.2697,-4.77696 17.1005,-8.32838 26.4941,-10.65234 28.1802,-6.97207 61.4173,-2.9014 99.7246,12.25781 l -0.959,15.0918 c 6.4047,1.70035 11.8542,1.12795 16.5743,-1.67579 1.9756,-21.30312 7.4559,-33.10778 16.5859,-35.66406 2.6526,-1.11324 5.0511,-1.69121 7.1973,-1.73633 z m -122.7813,46.81055 c -2.8424,-0.0377 -5.4532,0.0912 -7.832,0.38672 -11.388,3.18848 -18.4271,7.16887 -21.1406,11.8457 -2.2226,4.53944 -6.0201,7.61313 -11.5176,9.15235 l 1.7324,6.1875 10.0078,-1.32032 c 15.833,8.9063 35.708,5.03574 59.6582,-11.51562 h 18.5254 l -2.0879,-12.75586 -15.5019,2.85937 c -12.702,-3.11312 -23.3166,-4.72678 -31.8438,-4.83984 z M 925.61362,1091.7236 h 57.70117 c 87.62951,48.4661 175.61381,96.8254 263.41011,145.1816 l -292.69136,88.2871 c 6.62659,-135.2838 -3.74895,-188.816 -28.41992,-233.4687 z m 526.94528,134.4765 c 19.9817,76.4602 8.0533,142.9297 -35.5801,199.4082 -65.9597,39.4536 -145.9912,45.5748 -239.9863,18.5586 -93.9951,-27.5259 -183.30227,-22.1238 -267.81638,16.4121 8.56369,-29.9723 78.40019,-78.9079 209.40228,-146.8047 z" /></svg>
