<?xml version="1.0" encoding="UTF-8" standalone="no"?>
<svg
   width="1443.8302"
   height="1800"
   version="1.1"
   id="svg4228"
   sodipodi:docname="US9A196VARA.svg"
   inkscape:version="1.2.2 (732a01da63, 2022-12-09)"
   xmlns:inkscape="http://www.inkscape.org/namespaces/inkscape"
   xmlns:sodipodi="http://sodipodi.sourceforge.net/DTD/sodipodi-0.dtd"
   xmlns="http://www.w3.org/2000/svg"
   xmlns:svg="http://www.w3.org/2000/svg">
  <defs
     id="defs4232">
    <inkscape:path-effect
       effect="bspline"
       id="path-effect7306"
       is_visible="true"
       lpeversion="1"
       weight="33.333333"
       steps="2"
       helper_size="0"
       apply_no_weight="true"
       apply_with_weight="true"
       only_selected="false" />
    <inkscape:path-effect
       effect="bspline"
       id="path-effect7302"
       is_visible="true"
       lpeversion="1"
       weight="33.333333"
       steps="2"
       helper_size="0"
       apply_no_weight="true"
       apply_with_weight="true"
       only_selected="false" />
  </defs>
  <sodipodi:namedview
     id="namedview4230"
     pagecolor="#ffffff"
     bordercolor="#000000"
     borderopacity="0.25"
     inkscape:showpageshadow="2"
     inkscape:pageopacity="0.0"
     inkscape:pagecheckerboard="0"
     inkscape:deskcolor="#d1d1d1"
     showgrid="false"
     inkscape:zoom="0.42888889"
     inkscape:cx="721.63212"
     inkscape:cy="900"
     inkscape:window-width="1920"
     inkscape:window-height="1017"
     inkscape:window-x="1912"
     inkscape:window-y="-8"
     inkscape:window-maximized="1"
     inkscape:current-layer="svg4228" />
  <path
     id="path11532"
     style="color:#000000;display:inline;fill:#000000;stroke-width:1.02006;stroke-linecap:round;stroke-linejoin:round;-inkscape-stroke:none"
     d="m 811.29304,951.14264 c -12.42641,0 -32.26562,10.48179 -32.26562,23.41174 0,12.92996 19.83921,23.41175 32.26562,23.41175 h 594.41216 c 12.4264,0 38.125,-10.48179 38.125,-23.41175 0,-12.92995 -25.6986,-23.41174 -38.125,-23.41174 z M 6.8448674,176.39899 C 1.7832874,179.6453 -0.00419262,194.19368 7.3817459e-6,198.31685 0.00600738,204.20016 0.37772738,795.93228 0.75458738,1094.8603 c 0.0942,74.732 0.18796,130.7715 0.27652002,154.2181 0.83521,88.8217 110.5468326,-32.1257 157.2073426,-92.0323 46.66051,-59.9065 131.58968,-223.39632 131.58968,-426.59052 0,-194.38854 -85.26117,-367.05813 -130.5036,-428.30462 C 114.0821,240.90447 39.950967,154.04214 6.8448674,176.39899 Z m 19.3883296,46.84549 c -6.37284,-23.92116 48.29247,34.69646 94.840433,105.86556 46.54796,71.16909 121.35858,215.18115 121.35858,401.3455 0,195.29367 -65.38175,336.09486 -114.74877,400.36456 -49.367023,64.2697 -103.068133,104.2884 -101.731753,99.0989 12.85126,-49.905 8.02837,-977.59582 0.28151,-1006.67452 z M 875.89705,0.39729501 c -20.76,-1.19178251 -42.1643,0.29767041 -64.2129,4.46896009 -44.097,8.3425129 -73.5904,47.6736699 -88.4804,117.9894949 -10.3084,14.30152 -21.7622,34.56168 -34.3613,60.7811 -5.7269,16.68515 -5.1536,26.21858 1.7187,28.60216 6.8723,2.38356 12.0267,5.36255 15.4629,8.93791 -5.7269,3.57539 -7.7317,6.85465 -6.0137,9.83416 1.7181,2.97943 4.8676,4.46896 9.4492,4.46896 1.1453,0 6e-4,2.08401 -3.4355,6.25533 -3.4362,4.17126 -2.578,7.45059 2.5762,9.83415 5.1543,2.38363 8.0191,9.83102 8.5918,22.3448 0.5727,12.51383 5.4385,19.36661 14.6015,20.55843 9.1631,1.19182 24.055,1.19182 44.6719,0 l 6.8711,28.60418 c -18.3261,11.91789 -39.8021,17.28128 -64.4277,16.08948 -24.6257,-1.19175 -48.9646,16.0874 -73.0176,51.84116 -24.05302,35.75383 -27.47055,74.48957 -36.23574,97.62048 -68.34962,180.37126 -7.76853,521.66965 89.49544,-11.81197 30.9253,76.27475 46.3868,179.96189 46.3868,311.05912 l -84.1836,457.6488 v -1.7864 c -32.07072,194.2622 -55.55152,316.4196 -70.44142,366.4751 -18.3261,47.6718 -37.7992,75.083 -58.416,82.2336 -20.6169,7.1508 -56.1229,22.6443 -106.51958,46.4802 -34.36143,7.1507 -54.97733,18.7723 -61.84961,34.8615 -6.87228,16.0889 7.44434,22.9415 42.95117,20.5584 44.66979,0 77.59955,-2.3844 98.78902,-7.1516 21.1896,-4.7669 48.9648,-3.574 83.3262,3.5768 34.3615,7.1507 50.96962,-4.7671 49.82422,-35.7537 4.5816,-60.7816 26.9157,-133.7802 67.0039,-218.9932 40.0883,-85.2133 58.4148,-148.6764 54.9786,-190.3891 -3.4361,-41.7127 9.7357,-75.6785 39.5156,-101.898 l 128.8555,1.7864 c 27.4891,193.0704 44.0973,317.0178 49.8242,371.8402 2.2907,47.6717 -4.8666,79.5514 -21.4746,95.6407 -16.608,16.0891 -49.5379,25.9228 -98.7891,29.4984 -29.7799,17.8768 -45.53,31.2842 -47.2481,40.2226 -1.718,8.9384 8.3042,13.4069 30.0665,13.4069 21.7621,0 47.5326,-0.5948 77.3125,-1.7864 29.7798,-1.1915 65.8611,-1.1915 108.24015,0 42.379,1.1918 56.1223,-13.1105 41.2324,-42.9053 -12.5989,-90.5764 -13.7439,-178.77 -3.4355,-264.5791 10.3085,-85.809 3.4359,-166.255 -20.6172,-241.338 v -1.7864 l -41.2324,-278.8802 c 25.1984,-70.31574 24.9117,-136.45955 -0.8594,-198.43279 -25.77105,-61.97325 -17.46695,-155.5303 24.9121,-280.66859 49.4259,89.07711 101.7055,95.50792 144.0845,141.98788 -9.1631,78.65832 -5.1534,157.91119 12.0274,237.76127 6.6395,123.85983 28.7253,-88.2258 -4.584,35.24361 -26.2214,35.75177 -37.7255,74.13337 -34.5098,115.14432 2.1819,39.7131 7.8503,36.0206 17.6016,36.1825 20.0045,0.3321 19.0908,-10.2069 21.1035,-25.2327 48.2171,1.1018 71.005,-9.2501 68.3634,-31.05299 -0.2526,-22.62338 -6.3798,-55.88632 -18.3535,-99.74176 15.8677,-84.41178 17.1929,-173.21808 3.6386,-266.5179 -17.1808,-53.63065 -55.8796,-113.80979 -133.776,-208.13009 -25.1984,-60.78149 -65.2874,-91.1737 -120.26555,-91.1737 -36.6522,0 -57.5548,-7.4474 -62.709,-22.3448 -5.1542,-14.8974 -8.8772,-31.28572 -11.168,-49.16262 21.7623,-9.53434 42.6648,-27.11379 62.709,-52.73739 20.0441,-25.62354 28.3483,-59.88766 24.9121,-102.79217 -1.1453,-47.671715 -21.1899,-78.061893 -60.1328,-91.171669 -19.4715,-6.5548551 -39.5876,-10.4287335 -60.3477,-11.62051599 z m -20.83,28.60418999 c 15.7489,0.297937 33.0719,2.680296 51.9707,7.149523 37.7974,8.938454 57.8421,31.881299 60.1328,68.826862 1.1454,38.13745 -10.3084,70.91197 -34.3614,98.32322 -24.0529,27.41123 -39.5163,35.75353 -46.3886,25.02739 -9.163,-13.10972 -4.0086,-30.98749 15.4629,-53.63158 19.4714,-22.64405 23.4812,-44.39365 12.0273,-65.25007 -11.4538,-20.856352 -33.7898,-21.15468 -67.0058,-0.8942 -12.5992,-13.109712 -40.6611,-22.046556 -84.1856,-26.813759 8.0177,-23.835856 24.6259,-39.627589 49.8242,-47.374228 12.5992,-3.873352 26.7745,-5.661096 42.5235,-5.363158 z m -100.9375,74.187995 c 35.5067,0 64.7134,8.34433 87.6211,25.02942 -1.1454,13.10971 3.7224,13.10971 14.6035,0 10.8811,-13.1097 22.05,-17.28192 33.5039,-12.51471 11.4538,4.76713 13.7434,16.0884 6.8711,33.96532 -6.8723,17.8769 -16.3212,33.07402 -28.3477,45.58786 -12.0265,12.51383 -14.3179,24.72798 -6.873,36.64588 7.445,11.91796 11.7413,22.64461 12.8867,32.17895 8.0176,71.50755 34.9328,107.26113 80.748,107.26113 58.41435,1.19182 70.15475,46.48086 35.2207,135.86533 -34.934,89.38448 -48.9641,167.44607 -42.0918,234.18651 l -161.5,39.33051 c -4.5815,-143.01521 -16.3199,-238.06176 -35.2187,-285.13754 -18.8988,-47.07583 -33.2174,-79.5521 -42.9531,-97.42901 -9.7357,-17.87692 6.5858,-26.8158 48.9648,-26.8158 42.3791,0 61.5655,-17.87581 57.5567,-53.62955 -4.0089,-35.75382 -19.1857,-50.05603 -45.5293,-42.90527 -26.3438,7.15078 -37.7976,-1.19152 -34.3614,-25.02739 16.0353,-10.72614 21.1898,-18.1755 15.4629,-22.34683 -5.7269,-4.17126 -14.891,-6.25737 -27.4902,-6.25737 1.1454,-8.3425 -5.7272,-14.89703 -20.6172,-19.66423 11.4539,-32.17842 22.9095,-54.82296 34.3633,-67.93266 12.5992,-5.95895 25.771,-5.95895 39.5156,0 13.7446,5.95894 27.4879,10.13107 41.2324,12.51471 l -1.7168,-10.72631 c -9.163,0 -20.332,-3.27724 -33.5039,-9.83212 -13.1719,-6.55483 -26.6304,-7.4477 -40.375,-2.68056 4.5815,-8.3426 8.5913,-14.89914 12.0274,-19.66627 z m 130.3593,17.20721 c -2.7202,-0.44691 -6.0849,0.0751 -10.0937,1.56485 -8.0177,2.97944 -15.177,10.13055 -21.4766,21.45264 -6.2995,11.32202 -8.3043,19.96264 -6.0136,25.92159 -6.8722,2.38357 -10.8799,6.85199 -12.0254,13.40688 -1.1453,6.55489 1.4307,11.02332 7.7304,13.40688 6.2995,2.38358 15.177,-2.68143 26.6309,-15.19528 11.4537,-12.51376 18.6111,-23.83504 21.4746,-33.96531 2.8635,-10.13027 2.8635,-17.5797 0,-22.34684 -1.4317,-2.38359 -3.5063,-3.79848 -6.2266,-4.24541 z m -4.9394,11.62052 c 2.8634,0.14899 4.0082,2.16045 3.4355,6.03381 -1.1455,7.74663 -4.2951,15.49235 -9.4492,23.239 -5.1542,7.74664 -10.0218,12.81164 -14.6035,15.19527 -4.5815,2.38358 -4.5815,0.001 0,-7.14952 4.5817,-7.15076 4.2949,-9.53519 -0.8594,-7.15155 -5.1541,2.38356 -6.299,0.29752 -3.4355,-6.25736 2.8634,-6.55482 6.5863,-12.81103 11.1679,-18.77004 6.2996,-3.57537 10.8807,-5.28859 13.7442,-5.13961 z m -119.8633,4.35718 c -5.8522,-0.22345 -11.1405,1.22872 -15.8652,4.35719 l -10.3086,10.72632 v 10.72632 l 5.1543,-1.7884 c 16.0353,8.34251 34.3616,7.74796 54.9785,-1.78637 l 18.8984,3.57477 V 151.4579 h -18.8984 c -12.8856,-9.68334 -24.2054,-14.71107 -33.959,-15.08351 z m -5.5566,7.93195 c -2.2907,3.57538 -1.7174,7.74752 1.7187,12.51471 -4.5815,-1.19181 -8.5912,-2.38294 -12.0273,-3.57475 1.1454,-4.76714 4.5817,-7.74814 10.3086,-8.93996 z m 15.4629,1.7884 17.1796,8.93792 c -6.8723,1.19182 -13.1715,2.38505 -18.8984,3.57679 4.5815,-3.57538 5.1548,-7.74757 1.7188,-12.51471 z m 75.5957,32.17895 c 6.8722,3.57539 8.5903,6.85261 5.1543,9.83212 -3.4361,2.9795 -6.0144,2.9795 -7.7325,0 -1.7181,-2.97951 -0.8579,-6.25673 2.5782,-9.83212 z m -107.3809,17.87584 c -1.7181,0 -2.2895,1.48945 -1.7168,4.46896 0.5727,2.97944 -0.2874,5.06554 -2.5781,6.25736 -2.2908,1.19181 -4.867,6.1e-4 -7.7305,-3.57476 -2.8634,-3.57539 -4.8683,-5.36316 -6.0137,-5.36316 -1.1454,0 -2.2902,0.59663 -3.4355,1.7884 -1.1454,1.1918 -1.1454,2.97958 0,5.36316 2.2907,-2.38358 5.1537,-1.19244 8.5898,3.57475 3.4361,4.76714 7.1591,5.95833 11.168,3.57477 4.0087,-2.38358 5.7269,-5.66081 5.1543,-9.83212 -0.5727,-4.17126 -1.7194,-6.25736 -3.4375,-6.25736 z m -18.8984,29.72194 c 1.1453,-0.14896 2.5768,0.0727 4.2949,0.66862 4.5815,1.19182 9.736,1.78839 15.4629,1.78839 h 6.873 l -27.4902,1.7884 c -2.2907,0 -2.8622,-0.89489 -1.7168,-2.68259 0.5726,-0.89381 1.4308,-1.41385 2.5762,-1.56282 z m 24.9121,6.03178 c -1.1454,2.38357 -3.7217,4.76793 -7.7305,7.15155 -4.0089,2.38357 -7.7319,3.57476 -11.168,3.57476 -2.2907,1.1918 -4.0089,1.1918 -5.1543,0 -1.1454,-1.19182 -0.572,-2.97959 1.7188,-5.36316 z m 211.3222,554.18558 c 38.9429,48.86353 40.6611,108.45283 5.1543,178.76857 l 41.23435,239.5517 H 712.89515 l 72.1601,-375.41703 z M 588.34249,678.64536 c -89.12323,25.2599 -126.09165,66.60581 -244.31394,129.04357 -36.65216,-23.83584 -74.44966,-32.18018 -113.39257,-25.02942 -37.79751,5.95895 -33.73564,11.48759 -32.98243,21.60506 1.5452,20.75551 11.54415,18.82595 26.10938,19.51181 3.43609,50.05532 15.46323,72.69992 36.08008,67.93266 21.76226,-2.38349 53.26049,-11.91706 94.49414,-28.60215 v -0.002 C 466.58447,817.81665 560.96916,804.25158 618.23809,756.57988" />
</svg>
