<?xml version="1.0" encoding="UTF-8" standalone="no"?>
<svg
   width="1792.0602"
   height="1800.4"
   id="svg3556"
   version="1.1"
   xml:space="preserve"
   xmlns="http://www.w3.org/2000/svg"
   xmlns:svg="http://www.w3.org/2000/svg"
   xmlns:rdf="http://www.w3.org/1999/02/22-rdf-syntax-ns#"
   xmlns:cc="http://creativecommons.org/ns#"
   xmlns:dc="http://purl.org/dc/elements/1.1/"><metadata
     id="metadata3563"><rdf:RDF><cc:Work
         rdf:about=""><dc:format>image/svg+xml</dc:format><dc:type
           rdf:resource="http://purl.org/dc/dcmitype/StillImage" /></cc:Work></rdf:RDF></metadata><defs
     id="defs3561" /><path
     id="path3558"
     style="fill:#000000;stroke:none;stroke-width:84.9405"
     d="M 899.15409,0 C 792.25603,0 677.23545,49.383937 609.82565,116.79375 540.68469,185.93461 532.84947,276.95848 532.84947,345.07142 v 26.54301 h 9.61974 c 0.90324,0.81211 1.88443,1.36903 3.00985,1.36903 l 164.96547,-1.36903 H 852.44065 L 853.28641,992.8711 0,995.9961 l 1.353754,804.404 55.557466,-6.6344 c 276.90564,-65.404 842.24287,-557.3799 842.24287,-557.3799 0,0 559.08961,495.1009 836.84471,560.5049 l 56.0614,1.8301 V 999.1211 l -846.18862,-6.25 V 371.61443 h 142.17462 l 165.1764,1.36903 c 1.1256,0 2.1147,-0.55667 3.0261,-1.36903 h 9.212 v -26.54301 c 0,-68.11303 -5.1826,-159.13681 -74.3233,-228.27767 C 1123.7276,49.383937 1006.0521,0 899.15409,0 Z m 2.44397,83.959259 c 83.88794,0 188.89104,43.094071 239.70044,93.903511 44.453,44.45297 50.264,74.01707 51.8935,128.78039 H 612.47449 c 1.62897,-54.76323 7.44275,-84.32742 51.89548,-128.78039 C 715.1794,127.05333 817.71009,83.959259 901.59806,83.959259 Z M 80.69386,1072.443 l 1629.82264,3.125 0.8497,624.4905 C 1466.738,1633.8051 939.92694,1159.0911 939.92694,1159.0911 l -40.77285,-60.3083 -39.92101,60.3083 c 0,0 -533.0611,471.589 -777.68941,537.8424 z" /></svg>
