<?xml version="1.0" encoding="UTF-8" standalone="no"?>
<svg
   width="1413.7751"
   height="1799.9955"
   version="1.1"
   id="svg1"
   xmlns="http://www.w3.org/2000/svg"
   xmlns:svg="http://www.w3.org/2000/svg">
  <defs
     id="defs1" />
  <path
     id="path1"
     style="fill:#000000;stroke:none;stroke-width:100.185"
     d="M 1124.6718,0.00528253 C 1105.5265,0.10036581 1085.9781,1.4778344 1066.0253,4.1400481 986.21394,14.788902 934.90665,77.162563 912.10339,191.25723 c -19.76276,24.34025 -41.80542,57.807 -66.12891,100.40235 -12.16174,28.90397 -12.54222,44.87739 -1.14062,47.91992 11.40166,3.04254 21.6619,8.36634 30.7832,15.97265 -9.1213,6.08505 -12.9206,11.79085 -11.40039,17.11524 1.52023,5.32445 4.94098,8.74631 10.26172,10.26758 5.32077,1.52126 4.55974,4.56512 -2.28125,9.1289 -6.84096,4.5638 -5.70138,9.50764 3.41992,14.83203 9.12124,5.32439 12.92257,16.73401 11.40234,34.22852 -1.52021,17.49458 3.0401,30.04405 13.68164,37.65039 -6.08086,42.59535 -17.1022,75.68411 -33.06445,99.26367 -15.96224,23.57958 4.94078,30.80534 62.70898,21.67774 l 27.36329,-114.09571 c 57.76814,0 78.29274,23.58104 61.57034,70.74024 C 946.30882,734.34846 910.58317,999.04868 912.10339,1350.4603 L 581.45495,919.18301 C 589.58331,832.14256 515.76474,775.37273 451.90211,797.51597 L 502.93276,321.50695 26.96374,264.31034 0,478.94108 l 60.67838,7.94748 19.046868,-153.92368 80.156512,8.44081 -18.29969,156.07912 59.18221,3.63727 18.38762,-148.86631 79.40934,6.28539 -18.29969,156.07911 59.93122,5.79206 19.04501,-153.92305 78.00295,9.18735 -53.69637,427.40569 c 0,0 -35.42925,18.01866 -43.80425,47.64366 -9.76467,34.54069 -9.88116,74.5403 34.20507,136.91211 -16.72232,50.20171 4.56124,125.12471 63.84961,224.76751 59.28842,99.6429 114.01648,238.4598 164.1836,416.4473 l -216.63086,59.3281 11.40234,111.8145 H 1413.7752 l -91.2129,-162.0156 c 24.3233,-208.413 37.2454,-426.7149 38.7657,-654.90431 0,-181.03032 -38.7658,-331.63667 -116.2969,-451.8164 121.6175,0 175.5842,-75.30316 161.9023,-225.90821 C 1393.2513,154.74597 1352.9674,64.231361 1286.078,33.806064 1235.9108,10.987139 1182.1073,-0.27996734 1124.6718,0.00528253 Z m 7.9824,45.45898447 c 33.0171,1.069618 67.8162,8.973705 104.3964,23.710937 58.5285,23.579573 93.4931,87.091216 104.8945,190.537106 11.4016,103.44589 7.2219,166.19953 -12.541,188.25781 -19.763,22.05839 -41.0464,33.08789 -63.8496,33.08789 h -59.289 c -16.7224,0 -25.084,-30.04483 -25.084,-90.13476 0,-60.08987 12.1628,-98.88245 36.4863,-116.37695 24.3236,-17.49452 30.7845,-43.73745 19.3828,-78.72657 -11.4016,-34.98899 -45.9876,-38.79286 -103.7558,-11.41015 -12.1617,-27.38271 -63.0885,-47.15801 -152.78126,-59.32813 13.68196,-38.031562 45.22576,-62.752654 94.63286,-74.162105 18.5276,-4.278571 37.6975,-6.09685 57.5078,-5.455078 z M 966.8319,159.30997 c 69.9299,4.56378 122.3769,28.14293 157.3418,70.73828 l 25.084,2.2832 c 25.8436,-27.38277 41.0445,-33.0885 45.6054,-17.11523 4.5605,15.9733 -4.5601,33.46861 -27.3632,52.48437 -22.8033,19.01578 -34.2051,67.31603 -34.2051,144.90039 0,79.10572 17.4822,118.65821 52.4472,118.65821 -30.4043,27.38269 -65.3689,30.42458 -104.8945,9.12695 0,-69.97813 -27.364,-100.40299 -82.09177,-91.27539 -54.72776,9.12759 -78.29054,-5.32383 -70.68945,-43.35547 30.4043,-16.73384 41.04508,-28.9054 31.92383,-36.51172 -9.12132,-7.60633 -25.8445,-12.17016 -50.16797,-13.69141 1.52023,-13.69138 -9.12062,-25.86097 -31.92383,-36.50976 21.28298,-51.72294 43.32564,-87.47161 66.12891,-107.24805 22.80319,-10.64887 45.98737,-10.26883 69.55078,1.14063 23.5633,11.40951 47.5066,18.63518 71.8301,21.67773 v -13.6914 c -16.7224,-1.52127 -36.8644,-8.74701 -60.4278,-21.67774 -23.5633,-12.93079 -47.50859,-15.59265 -71.83199,-7.98633 0,-15.21258 4.56228,-25.86222 13.68359,-31.94726 z m 17.13672,55.76367 c -10.47523,-0.28524 -19.98786,2.42417 -28.53906,8.1289 l -20.52344,18.25586 v 15.97266 l 9.1211,-2.28125 c 30.40426,15.21258 63.08978,15.21258 98.05468,0 l 36.4844,9.12695 v -18.2539 l -34.2051,-4.56446 c -22.8032,-17.11423 -42.9339,-25.90937 -60.39258,-26.38476 z M 973.67175,227.767 c -6.08081,7.60631 -6.08081,15.21204 0,22.81836 -7.60103,-1.52127 -14.44257,-4.56315 -20.52344,-9.12696 3.04044,-6.08505 9.88199,-10.64887 20.52344,-13.6914 z m 27.36325,4.56445 27.3653,15.97266 c -10.6415,3.04251 -21.2843,4.56445 -31.92582,4.56445 9.12132,-4.56379 10.64142,-11.40952 4.56052,-20.53711 z m -61.06833,84.07227 c -0.52258,-0.14262 -1.07053,-0.0229 -1.64063,0.35742 -2.28028,1.52127 -3.03935,4.18319 -2.27929,7.98633 0.76015,3.80311 -0.75994,6.46505 -4.56055,7.98633 -3.8005,1.52125 -8.36093,-0.38069 -13.68164,-5.70508 -5.3208,-5.32441 -9.50253,-7.98633 -12.54297,-7.98633 -3.04044,0 -5.31964,0.75998 -6.83984,2.28125 -1.52022,1.52127 -1.52022,3.80324 0,6.8457 4.56063,-3.04246 10.26055,-0.76056 17.10156,6.8457 6.84094,7.60632 13.68249,9.50821 20.52344,5.70508 6.84102,-3.80318 9.50067,-9.12699 7.98047,-15.97265 -1.14018,-5.13425 -2.49281,-7.9159 -4.06055,-8.34375 z m -38.98047,49.41797 c 3.61051,-0.38032 7.31664,-0.38034 11.11719,0 7.6011,0.7606 16.34128,1.90061 26.22265,3.42187 9.88146,1.52126 14.0632,3.04319 12.54297,4.56445 h -50.16797 c -13.68189,-1.52126 -17.10267,-3.42322 -10.26172,-5.70507 3.42048,-1.14097 6.93637,-1.90094 10.54688,-2.28125 z m 47.60156,12.55078 c -3.04045,3.04251 -8.35984,6.08441 -15.96094,9.12695 -7.60109,3.04254 -13.68347,4.56445 -18.24414,4.56445 -6.08087,1.52128 -9.88017,1.52128 -11.40039,0 -1.52021,-1.52125 -1.1e-4,-4.56513 4.56055,-9.1289 z m 257.67774,219.0625 c 59.2884,63.89305 88.9335,200.80602 88.9336,410.74023 0,211.4556 -16.7234,430.5191 -50.168,657.1875 l 29.6445,68.457 H 456.03698 l 218.91211,-68.457 C 618.70112,1438.6943 557.89253,1272.8768 492.52331,1167.9096 427.154,1062.9425 412.71196,997.90696 449.19714,972.80606 c 36.48515,-25.10084 78.29128,-0.37975 125.41797,74.16214 l 332.92773,417.5878 h 79.81055 c -3.04044,-425.9534 27.36381,-714.23475 91.21291,-864.83978 44.0862,16.73384 86.6535,15.97387 127.6992,-2.28125 z M 479.34167,855.94278 c 31.92451,10.64886 35.98485,23.6861 13.18164,54.11133 l -75.25195,9.1289 c -34.96501,-12.1701 -29.54988,-48.53712 -7.02764,-55.66916 28.5068,-9.02717 64.01657,-8.37298 69.09795,-7.57107 z" />
</svg>
