<?xml version="1.0" encoding="UTF-8" standalone="no"?>
<svg
   width="10"
   height="18"
   version="1.1"
   id="svg274"
   sodipodi:docname="US9A21VARA.svg"
   inkscape:version="1.2.1 (9c6d41e410, 2022-07-14)"
   xmlns:inkscape="http://www.inkscape.org/namespaces/inkscape"
   xmlns:sodipodi="http://sodipodi.sourceforge.net/DTD/sodipodi-0.dtd"
   xmlns="http://www.w3.org/2000/svg"
   xmlns:svg="http://www.w3.org/2000/svg">
  <defs
     id="defs278" />
  <sodipodi:namedview
     id="namedview276"
     pagecolor="#ffffff"
     bordercolor="#000000"
     borderopacity="0.25"
     inkscape:showpageshadow="2"
     inkscape:pageopacity="0.0"
     inkscape:pagecheckerboard="0"
     inkscape:deskcolor="#d1d1d1"
     showgrid="false"
     inkscape:zoom="30.508122"
     inkscape:cx="5.2936723"
     inkscape:cy="9.2762183"
     inkscape:window-width="1920"
     inkscape:window-height="1137"
     inkscape:window-x="-8"
     inkscape:window-y="-8"
     inkscape:window-maximized="1"
     inkscape:current-layer="svg274" />
  <path
     id="path272"
     style="fill:#000000;stroke:none"
     d="M 7.4480499,0.03810073 C 7.3366662,0.03547561 7.222215,0.04022458 7.1082061,0.05372573 6.6521713,0.10772968 6.2268933,0.45283262 5.8308624,1.0888819 5.6268473,1.3048984 5.4402818,1.5567189 5.2722686,1.8447413 c -0.048004,0.1680132 0.013628,0.2650612 0.1816407,0.2890625 -0.072005,0.1080086 -0.066428,0.197526 0.017578,0.2695313 0.072006,0 0.077583,0.014919 0.017578,0.044922 -0.060005,0.030002 -0.071159,0.082291 -0.035156,0.1542969 0.036003,0.072005 0.058311,0.1671002 0.070312,0.2871094 0.012001,0.1200092 0.084787,0.1946067 0.2167969,0.2246094 0.1320106,0.030003 0.3297296,0.039345 0.59375,0.027344 L 6.3171905,3.5009913 C 5.9811648,3.5969985 5.3451045,3.6443272 4.9753936,3.9345851 4.6542099,4.1867446 4.0060529,5.1283673 4.0060529,5.1283673 c 0,0 -0.584261,0.7529958 -1.0150343,1.231999 C 2.867071,6.0846445 2.5840646,5.7090505 2.1433624,5.2314601 1.707251,4.7587937 1.4531414,4.4120068 1.3796905,4.1904445 1.2281992,3.7079308 0.90477744,3.248722 0.40898744,2.8154445 c -0.1101756,0.088625 -0.1101756,0.232743 0,0.4296874 l -0.3105469,0.53125 c -0.059679,0.2314097 -0.00257,0.426429 0.171875,0.5839844 0.2662579,0.1723264 0.5402828,0.3529011 0.82031246,0.5449219 0.771229,1.4672355 1.3352887,2.2607397 1.6933594,2.3789063 0.270848,0.044312 0.6995065,-0.2140991 1.2871093,-0.7753907 0,0 1.0984543,-1.0528921 1.2382813,-1.7832031 0.2760217,0.8280639 0.4084851,1.9212391 0.3964844,3.2773438 -0.4200323,0.072005 -0.4816636,0.25104 -0.1816407,0.5390624 L 5.0398467,9.6767726 5.5242217,9.5869286 2.663153,15.86756 4.2747185,15.89125 C 4.1447683,16.395701 3.9992445,17.061062 3.6967527,17.237976 3.287639,17.397004 2.915239,17.483103 2.4832061,17.57911 2.051172,17.675117 1.8236144,17.818735 1.7996124,18.01075 l 2.4501342,-0.01159 c 0.1560118,-0.144009 0.292488,-0.388063 0.256897,-0.714971 0.2962384,-0.537756 0.385054,-0.76451 0.5407194,-1.391374 l 2.9839003,-0.01601 c 0.039546,0.423721 0.102598,0.58542 0.1433491,0.798014 0,0.51604 -0.4285982,0.633006 -1.3886719,0.957031 -0.1920145,0.036 -0.2946393,0.151734 -0.3066406,0.34375 h 0.5585937 c 0.708054,-0.06001 1.3067899,0.02958 1.7988281,0.01758 0.3120244,-0.180015 0.3418635,-0.59978 0.089844,-1.007812 0.040026,-0.8653 0.022625,-1.156948 -0.076172,-1.96289 C 8.7183832,13.582365 8.3187423,10.080847 8.2527374,9.3427882 8.1867321,8.6047316 8.0393489,8.1104322 7.8113311,7.8584132 8.0873521,6.9343414 8.3876968,5.9867382 8.7117217,5.0146632 8.7957284,5.3506896 8.98034,6.0389423 9.2683624,7.0830226 L 9.1257843,9.2256007 C 9.0777803,9.3576113 8.9900747,9.4789202 8.8640655,9.5869288 8.7380549,9.6949374 8.654115,9.8534755 8.6121124,10.063492 c -0.042003,0.210015 -0.017741,0.377895 0.072266,0.503906 0.090007,0.126009 0.1851015,0.243553 0.2871094,0.351562 0.1020079,0.108008 0.2139752,0.04638 0.3339843,-0.18164 C 9.4254806,10.509302 9.4851593,10.143702 9.4851593,9.6396632 9.8811935,8.3795658 10.032342,7.5159019 9.9363315,7.0478663 9.8883285,6.3158098 9.7017635,5.5472413 9.3777374,4.7431788 9.3537361,4.3951525 9.2025872,4.1266002 8.9265655,3.9345851 8.3985247,3.7185686 8.0571867,3.5916818 7.9011749,3.5556788 7.745163,3.5196762 7.7694247,3.2921174 7.9734405,2.8720851 8.3454694,2.68007 8.6327067,2.4394037 8.8367217,2.1513819 9.0407375,1.8633595 9.1246775,1.531364 9.0886749,1.1533351 9.0526722,0.77530548 8.8288783,0.48430403 8.4148467,0.28028823 8.1043225,0.12727638 7.7822009,0.0459761 7.4480499,0.03810073 Z M 7.2664093,0.32911635 c 0.1830141,-0.003 0.400324,0.0352753 0.6523437,0.11328126 C 8.4227912,0.59840945 8.6783773,0.88006914 8.684378,1.2881007 8.6903787,1.6961323 8.4833165,2.043047 8.0632843,2.3310695 7.643252,2.6190919 7.5835738,2.5799103 7.8835967,2.2138819 8.1836197,1.8478536 8.2936346,1.5401204 8.215628,1.2881007 8.1376221,1.0360816 7.8410425,0.9446111 7.325003,1.0166163 6.7609596,0.81260056 6.593079,0.62798889 6.8210967,0.45997573 6.9351053,0.37596948 7.0833951,0.33211652 7.2664093,0.32911635 Z m -0.859375,0.6171875 c 0.096008,0.0120013 0.3534052,0.12578035 0.7734374,0.34179685 0.024002,0.1200092 0.107942,0.136741 0.2519532,0.052734 C 7.5764354,1.2568287 7.7182418,1.2512517 7.856253,1.3232567 7.9942636,1.3952617 8.0129484,1.523961 7.91094,1.7099755 7.8089321,1.89599 7.6727025,2.0527156 7.50469,2.1787255 7.3366769,2.3047347 7.265845,2.4465411 7.2898462,2.6025536 c 0.024002,0.1560119 0.107942,0.262261 0.2519532,0.3222657 -0.2160165,0.5760447 -0.1376534,0.8894967 0.234375,0.9375 0.3720289,0.048004 0.6107414,0.2214613 0.71875,0.5214843 L 7.4695343,7.7685695 6.0828155,8.0029445 c 0,-1.3561047 -0.1249341,-2.563059 -0.3769531,-3.6191407 C 5.5498498,4.2157913 5.8669262,3.9938099 6.6589874,3.7177882 6.6829894,3.1177421 6.5505254,2.82674 6.262503,2.8447413 5.9744806,2.8627426 5.8308624,2.7694602 5.8308624,2.5654445 6.0108769,2.4814378 6.0705548,2.4124171 6.0105499,2.3584132 5.9505459,2.3044093 5.8498735,2.2652277 5.7058624,2.2412257 5.8138703,2.1332171 5.7522388,2.0250155 5.5242217,1.9170069 L 5.9578155,1.3603663 C 6.1498306,1.2643591 6.455752,1.3296149 6.8757843,1.5576319 7.0077948,1.5456313 6.9648482,1.4803755 6.7488311,1.3603663 6.5328146,1.2403574 6.3108333,1.1787257 6.0828155,1.1787257 6.2028247,1.0107126 6.311027,0.9343032 6.4070343,0.94630385 Z M 7.7175811,1.3486476 c -0.023252,7.501e-4 -0.049623,0.00572 -0.078125,0.011719 -0.1140079,0.024002 -0.2128684,0.094835 -0.296875,0.2148438 -0.084007,0.1200092 -0.1082683,0.2170572 -0.072266,0.2890625 -0.096007,0.024002 -0.1519206,0.06876 -0.1699219,0.1347656 -0.018001,0.066005 0.011838,0.1163411 0.089844,0.1523437 0.078006,0.036003 0.1917857,-0.00499 0.3417969,-0.125 C 7.6820461,1.9063728 7.7809053,1.7888286 7.8289093,1.6748195 7.8769125,1.5608109 7.886255,1.4731053 7.856253,1.4131007 7.833751,1.3680972 7.7873368,1.3463973 7.7175811,1.3486476 Z m -1.5078125,0.046875 c -0.1440111,0 -0.2577899,0.078363 -0.3417969,0.234375 0.1320106,0.1560118 0.2756288,0.2306093 0.4316407,0.2246093 0.1560118,-0.006 0.3107843,-0.050759 0.4667969,-0.1347656 l 0.2890624,0.017578 V 1.6650538 L 6.7664093,1.6298976 C 6.5383915,1.4738857 6.3537798,1.3955226 6.2097686,1.3955226 Z m 1.4257813,0.1015625 c 0.078756,-0.011251 0.1125161,0.01512 0.1035156,0.078125 -0.012001,0.084006 -0.05676,0.162369 -0.1347656,0.234375 -0.078006,0.072005 -0.1470276,0.1205292 -0.2070313,0.1445312 -0.060006,0.024002 -0.056239,-2.607e-4 0.00977,-0.072266 0.066005,-0.072007 0.066005,-0.1000322 0,-0.082031 -0.066005,0.018001 -0.079112,-0.00807 -0.037109,-0.080078 0.042003,-0.072006 0.09987,-0.1372607 0.171875,-0.1972656 0.036003,-0.012001 0.067498,-0.02164 0.09375,-0.025391 z m -1.4921875,0.00586 c 0.011251,-0.00225 0.020296,-0.003 0.029297,0 -0.072005,0.096007 -0.047744,0.1687929 0.072266,0.2167968 0.1440108,-0.036003 0.1738506,-0.095681 0.089844,-0.1796875 0.1080086,0.036003 0.2106337,0.076996 0.3066407,0.125 -0.1320106,0.048004 -0.2644746,0.066689 -0.3964844,0.054687 -0.1080086,0 -0.1863711,-0.042947 -0.234375,-0.1269531 0.054004,-0.054004 0.09906,-0.083093 0.1328125,-0.089844 z m 1.0917969,0.46875 c 0.072006,0.048003 0.086925,0.087185 0.044922,0.1171874 -0.042003,0.030002 -0.071843,0.020659 -0.089844,-0.027344 -0.018002,-0.048004 -0.00308,-0.077843 0.044922,-0.089843 z M 7.2175811,8.2353663 C 7.7216199,8.3673762 7.9380239,8.8057615 7.8660186,9.5498195 L 8.3748762,15.41912 3.1730484,15.477065 C 3.5624146,14.807045 4.7930607,11.758069 5.3933624,10.510757 5.993664,9.263446 5.9999157,9.075268 6.1199249,8.3252101 Z"
     sodipodi:nodetypes="ssccccssssccscccccccccccccccccccsccccccccccccsccccsssssccccscsssssssssscssscssssscscccccscsccccscsssscssssssscsccccsssssssscssscccccscsccccccscccc" />
</svg>
