<?xml version="1.0" encoding="UTF-8" standalone="no"?>
<svg
   width="819.71075"
   height="1800"
   version="1.1"
   id="svg1"
   xml:space="preserve"
   xmlns="http://www.w3.org/2000/svg"
   xmlns:svg="http://www.w3.org/2000/svg"><defs
     id="defs1" /><path
     id="path1"
     style="display:inline;fill:#000000;stroke:none;stroke-width:105.449;stroke-dasharray:none"
     d="m 608.33867,0 0.15448,0.12975189 c -37.33931,0 -80.40102,9.50022451 -107.34188,24.95149611 -32.80938,18.825405 -66.40713,64.509074 -86.60836,117.748822 -5.77676,15.15773 -16.47646,39.66064 -23.85787,54.46078 -8.80313,17.61508 -12.98521,31.19582 -12.19668,39.34779 1.00876,10.85695 2.84215,12.59841 13.99261,13.6713 10.59109,1.00882 12.79189,2.84219 12.79189,10.82913 0,5.22671 1.92533,9.58312 4.21795,9.58312 2.29236,0 3.66845,3.11743 3.11817,6.87685 -1.55879,9.82076 16.51462,51.35918 23.53865,54.05505 h 3.66807 c 6.96902,0 21.76977,-1.83169 37.09256,-4.7658 15.44188,-2.93434 24.93136,-4.40333 30.92832,-4.40333 4.58471,0 7.06133,0.91791 8.71191,2.38494 5.6005,5.60052 10.54163,21.80345 4.84201,30.25486 -36.29605,17.88908 -73.84188,86.42818 -72.73727,137.24044 1.15443,53.10248 1.13877,103.78359 12.68274,155.15443 11.54404,51.37085 17.98916,94.31052 19.14355,128.9425 l -84.83508,429.43767 c -31.16885,182.3953 -54.97327,296.7354 -71.13492,342.9115 -17.31602,45.0217 -36.27871,70.9635 -57.0579,77.8903 -20.77921,6.9266 -56.03231,21.2345 -105.6716,43.1682 -34.63204,5.7716 -55.02341,16.5118 -61.37263,32.096 -2.35307,5.7757 -1.8597,10.305 1.41492,13.6199 H 42.17968 A 42.179664,42.179664 0 0 0 0,1757.7655 42.179664,42.179664 0 0 0 42.17968,1799.945 h 777.5311 V 53.36922 a 42.179664,42.179664 0 0 0 -42.1798,-42.179664 42.179664,42.179664 0 0 0 -42.1797,42.179664 v 38.50542 c -0.062,-0.374299 -0.056,-0.735167 -0.1214,-1.1101 -8.436,-48.49889 -40.5664,-78.017853 -95.9793,-88.1962763 C 629.81468,0.82594057 619.32428,0 608.33867,0 Z m -15.16654,31.177527 c 73.96325,0 107.77225,30.601308 102.01375,92.268013 -2.7512,29.11409 -13.784,52.51505 -38.5425,81.48214 -12.7093,14.86425 -25.0883,25.20894 -29.398,25.20894 -1.0087,0 -1.6497,-0.91802 -1.6496,-1.83506 0,-1.83407 6.3267,-18.00792 14.0935,-35.89803 28.7291,-66.29754 17.7811,-107.280107 -23.8311,-107.280107 -9.71085,0 -21.1008,2.202466 -34.03007,6.87891 -7.97757,2.934375 -18.10115,4.217967 -28.56395,4.217967 -24.81331,0 -51.67077,-7.335722 -57.52128,-18.266185 -5.04318,-9.490771 7.42813,-25.152644 28.90377,-36.147231 12.14075,-6.235255 26.03063,-8.895083 53.98915,-10.215386 h 14.49927 z m 16.49499,81.401803 0.0186,1.0545 c 7.15266,0 13.26856,2.38349 17.67916,7.24345 11.2421,12.42511 1.7432,41.23795 -27.80191,84.1616 -8.4361,12.21402 -13.27795,23.99618 -13.27795,32.10227 0,14.38749 11.76518,31.74798 24.18124,35.68178 10.65882,4.13829 13.87262,18.88236 9.99502,61.12551 -14.82544,-0.35387 -47.42132,4.08355 -66.97465,11.82183 -5.3182,-25.84944 -16.88412,-52.49803 -39.95536,-52.49803 -5.59343,0 -11.87473,0.91596 -19.0179,1.833 -7.7026,1.28382 -14.59057,1.92569 -20.50492,1.92569 -25.49209,0 -33.46912,-11.27983 -16.97279,-28.83995 9.0781,-9.63727 8.71117,-10.01408 -13.37885,-14.85555 -5.96024,-1.28381 -10.81885,-4.95145 -10.81884,-8.06934 0,-3.20938 -4.22017,-8.52893 -9.42864,-11.91245 l -9.41629,-6.1416 8.06932,-19.16619 c 5.13498,-12.12251 7.06041,-16.55059 10.24219,-16.55059 1.74232,0 3.94346,1.37455 7.33613,3.57539 6.87751,4.4932 15.1307,6.69561 24.09882,6.69561 12.38836,0 26.14153,-4.21927 39.5661,-12.60034 11.31548,-7.06057 24.7862,-12.7919 29.92121,-12.7919 5.13517,0 10.58167,-2.01807 12.10397,-4.49395 1.28358,-2.10908 0.002,-3.11816 -3.39,-3.11816 -1.74233,0 -4.21963,0.002 -7.24551,0.91856 h -5.77705 c -8.34461,0 -20.48497,-1.56088 -30.35165,-4.03673 -9.46313,-2.3841 -17.60558,-3.57538 -24.75791,-3.57538 -13.59865,0 -23.5942,4.40109 -32.25054,13.60748 l -9.75612,10.38015 6.41758,-12.63537 c 6.7855,-13.24106 19.06376,-19.57606 39.00795,-19.57606 7.15255,0 15.24966,0.91557 24.4469,2.38291 10.20604,1.74207 17.97205,2.65888 23.01551,2.65888 7.97759,0 9.18784,-2.19966 2.47558,-6.41757 -8.71136,-5.41022 -39.72272,-11.20604 -57.7231,-11.20604 -2.01734,0 -3.94318,0.0736 -5.59375,0 h -7.33613 c -10.81106,0 -9.27971,-4.30887 3.66805,-17.30231 6.87731,-6.87728 12.48022,-10.098 17.88106,-10.098 0.91702,0 1.83476,0.0913 2.75155,0 4.95173,1.00883 20.55039,3.94381 34.61699,6.60294 14.06631,2.65933 30.14069,7.05946 35.72502,9.8838 3.3929,1.74207 5.96015,2.66093 8.61924,2.66093 4.40145,0 9.17888,-2.6586 18.93554,-9.16911 11.26958,-7.51931 21.97076,-11.26166 30.95717,-11.26166 z m -1.75067,9.97648 c 0.0591,0 0.10566,0.0282 0.16483,0.0289 0.0147,-4e-5 0.0305,-0.0103 0.0452,-0.0103 z m 0.16483,0.0289 c -11.10058,0.027 -26.19023,10.44951 -34.15774,28.46303 -4.40143,9.86668 -7.06181,20.33741 -5.86973,23.26268 1.10055,2.93409 -0.9149,7.42771 -3.66601,10.03207 -6.96882,5.777 -7.4291,18.12005 -0.91855,20.81591 3.11761,1.2838 5.77795,1.9257 8.34531,1.9257 6.51052,0 12.3973,-4.40231 22.76837,-15.27779 16.05623,-16.87219 26.90395,-38.22037 26.90395,-52.92847 0,-11.12083 -5.7007,-16.21637 -13.4056,-16.29313 z m 127.27,12.54886 v 328.99314 c -9.8745,-54.62323 -47.3028,-99.19882 -78.7881,-148.24463 -8.1971,-12.76859 -7.8879,-24.00569 -6.5124,-38.09969 1.6507,-17.58772 4.1267,-21.52161 29.5547,-46.9125 32.3696,-32.36998 50.3712,-63.37083 55.7458,-95.73632 z m -129.06802,1.8083 c 5.77672,0 4.21712,10.98615 -3.94401,26.97808 -4.21794,8.16109 -10.66348,17.40553 -14.4231,20.50492 -2.56762,2.10907 -4.12495,3.20878 -4.85847,3.20878 -1.19203,0 -0.91754,-2.56611 0.91648,-8.70983 1.46707,-6.05203 1.46836,-9.07853 -0.0618,-9.07853 0,0 -0.9184,-1.4e-4 -1.28516,0.9165 -0.91701,0.91703 -1.74201,0.91651 -2.29228,0.91651 -3.11759,0 -1.6506,-7.33483 4.03467,-18.19204 5.31844,-10.28844 13.23301,-16.02128 22.10926,-16.02128 z m -120.92259,35.51697 h 0.0103 c 4.21794,0 10.19802,1.09968 13.47154,3.20879 3.66789,2.29235 2.1993,4.49221 -5.13652,7.79334 -6.69402,3.02589 -11.53537,4.58662 -14.13061,4.58662 -2.75087,0 -2.93497,-1.74247 -0.0844,-5.22713 2.38411,-2.93413 3.2106,-6.41899 1.83507,-7.88604 -1.74207,-1.65057 0.91677,-2.47558 4.03467,-2.47558 z m -31.332,0.9062 -0.0556,0.46753 c 1.46706,0 2.47558,1.46816 2.47558,3.94404 0,3.30109 3.1193,7.70324 6.87892,9.9497 4.03467,2.38437 4.86057,3.57539 2.56825,3.57539 -1.74232,0 -5.229,-0.916 -10.40074,-2.01631 -7.51905,-1.92584 -9.26894,-11.08623 -2.93281,-15.00179 0.91707,0 1.0079,-0.91856 1.46641,-0.91856 z m 116.26388,19.10029 c 1.37532,0 2.934,0.9188 4.58457,2.29436 2.84258,2.8426 2.93409,5.04297 0,6.69354 -0.91706,0 -1.55764,0.91651 -2.38291,0.91651 -1.65056,0 -3.30209,-0.91677 -4.31065,-2.47558 -2.56761,-4.12644 -1.00962,-7.24345 1.83301,-7.24345 z m 23.85582,169.38597 c 32.24831,-0.32141 67.59041,14.41825 96.81341,56.01368 18.7702,26.71694 20.3981,78.6791 4.2364,135.24474 -16.1615,56.56566 -20.2794,116.5047 -12.1987,179.99677 l -41.1065,9.1959 c -1.4652,-12.31153 -3.1622,-23.75995 -5.6309,-33.41007 5.7721,-38.0953 13.2899,-98.03222 22.5254,-179.99471 9.235,-81.96245 -6.3335,-122.40241 -46.7375,-121.248 -40.404,1.15438 -56.69244,34.0782 -48.61163,98.72469 -6.9264,58.87447 -4.59914,125.25865 6.94482,199.14033 -3.31808,17.53858 -4.49499,35.54328 -4.50425,54.05506 l -43.91999,9.94765 c -3.46316,-36.94086 -10.61722,-80.60431 -21.58411,-130.82081 -10.96676,-50.21639 -17.41195,-93.51805 -19.14357,-129.88165 -1.73157,-36.36367 6.14432,-68.39104 23.46039,-96.09671 11.64729,-25.14229 47.99449,-50.45363 89.45673,-50.86687 z M 735.35128,518.62039 V 755.7018 c -0.4697,-1.45537 -0.8089,-2.94085 -1.3016,-4.39096 -20.202,-59.45163 -22.1674,-127.26666 -6.0056,-203.45714 3.456,-10.13971 5.7079,-19.81145 7.3072,-29.23331 z m -43.7179,245.64092 c 31.1685,50.79373 31.703,109.6639 1.6886,176.61912 l -10.6972,226.91547 H 447.44634 l 71.13493,-353.23409 49.73822,-14.44982 c 1.69756,13.83162 3.90628,27.70536 7.31966,42.04166 11.54406,48.48487 13.33689,90.71755 5.25597,126.50399 -27.7056,41.55836 -38.08329,92.91046 -31.15691,154.09366 15.00724,2.3083 25.38494,-3.9488 31.15691,-18.956 55.41126,2.3084 82.42436,-4.1362 81.27006,-19.1435 0,-54.257 -9.1214,-94.16266 -27.5918,-119.55925 v -1.6909 c 8.7676,-75.98303 12.0046,-137.66088 10.137,-185.43811 z m 43.7179,196.21165 v 314.20974 c -4.4068,-23.3363 -10.3921,-46.2964 -18.371,-68.7829 z M 534.15974,1205.8977 h 70.39352 c 26.55092,182.3953 42.65242,299.599 48.42422,351.5473 2.3088,43.8671 -4.6729,73.031 -20.8345,87.461 -16.1615,14.43 -49.08534,23.9133 -98.72468,28.5309 -30.01445,16.1614 -45.57894,28.5052 -46.73334,37.1627 -0.2509,1.8814 0.11679,3.5162 0.90415,4.9861 H 362.64626 c 8.65535,-5.4626 12.74969,-15.4887 12.16374,-30.1373 4.61759,-56.5658 26.8038,-124.9151 66.63069,-205.1461 39.82681,-80.2309 58.08055,-139.9934 54.6173,-179.243 -3.46318,-39.2498 9.24171,-70.9191 38.10175,-95.1616 z m 201.19154,256.7687 v 158.9603 c -5.1043,-54.0537 -5.1235,-107.049 0,-158.9603 z" /></svg>
