<?xml version="1.0" encoding="UTF-8" standalone="no"?>
<svg
   width="1800"
   height="1798"
   version="1.1"
   id="svg650"
   xmlns="http://www.w3.org/2000/svg"
   xmlns:svg="http://www.w3.org/2000/svg">
  <defs
     id="defs654" />
  <path
     id="path648"
     style="fill:#000000;stroke:none;stroke-width:98.7788"
     d="M 905.89844,0.33789062 C 705.19686,-1.6059261 619.87592,155.53205 619.87592,294.86523 c 0,32.94143 8.99649,75.8976 23.41407,119.56055 L 422.07319,165.86719 369.78413,212.40625 709.85444,594.50781 3.6152344,592.64648 v 597.00002 l 588.1035156,1.9433 -47.81445,606.7481 h 725.9395 l -58.1368,-608.0254 588.9414,1.2773 V 594.58984 h -710.259 L 1430.534,212.40625 1378.2449,165.86719 1148.3387,424.1875 c 19.7705,-48.57341 33.3457,-97.19106 33.3457,-133.20898 0,-139.3332 -75.0844,-288.6968126 -275.78596,-290.64062938 z m 0,75.00000038 c 158.39726,1.943817 202.60816,126.307379 202.60816,215.640629 0,87.33324 -130.51916,248.94472 -207.27613,303.61132 -76.75697,-54.6666 -210.12603,-212.39136 -210.12603,-299.72461 0,-89.33324 56.39672,-221.471156 214.794,-219.527339 z M 76.794922,670.64648 1724.543,672.58984 v 443.99996 l -594.6602,-1.2773 58.1367,608.0254 H 628.28516 l 47.81445,-606.7481 -599.304688,-1.9433 z" />
</svg>
