<?xml version="1.0" encoding="UTF-8" standalone="no"?>
<svg
   xml:space="preserve"
   viewBox="0 0 1182.6324 1793.1952"
   y="0px"
   x="0px"
   id="Ebene_1"
   version="1.1"
   width="1182.6324"
   height="1793.1952"
   xmlns="http://www.w3.org/2000/svg"
   xmlns:svg="http://www.w3.org/2000/svg"
   xmlns:rdf="http://www.w3.org/1999/02/22-rdf-syntax-ns#"
   xmlns:cc="http://creativecommons.org/ns#"
   xmlns:dc="http://purl.org/dc/elements/1.1/"><metadata
     id="metadata82"><rdf:RDF><cc:Work
         rdf:about=""><dc:format>image/svg+xml</dc:format><dc:type
           rdf:resource="http://purl.org/dc/dcmitype/StillImage" /></cc:Work></rdf:RDF></metadata><defs
     id="defs80" /><style
     id="style73"
     type="text/css">
	.st0{fill:#010101;}
</style><path
     id="path2216_1_"
     class="st0"
     d="M 42.754169,0 C -7.3183899,59.422209 -13.44762,145.12798 24.57428,257.53153 c 26.075125,76.97878 71.161749,147.82935 135.46655,212.23804 25.98614,25.98614 55.04085,50.71593 86.9997,74.58219 -10.07019,2.27995 -19.71623,5.12706 -28.4081,8.94182 3.4282,13.81671 16.30957,18.90587 36.98268,15.37378 4.14369,22.19327 13.1203,55.55653 31.95886,66.71168 -0.67117,3.06149 -1.45835,6.11013 -2.5606,9.12443 -1.89076,8.11451 -5.64312,16.72094 -10.3885,25.33417 -22.79631,9.45311 -43.8561,20.72475 -59.109,34.39975 6.06971,10.20814 17.78889,13.81431 33.8844,8.22559 l 17.61582,17.61583 c 12.26278,19.34249 23.91302,31.05318 34.87252,34.87252 l 16.26451,16.26451 c 33.65929,-30.70672 47.51279,-50.31968 53.99184,-71.27288 1.20902,-1.89507 2.78439,-3.87044 3.76786,-5.70557 66.69415,12.67397 127.67604,23.37537 178.89133,30.85509 51.2153,7.47972 81.34163,0.72637 89.44466,-15.3758 C 712.08569,613.754 760.39236,539.68296 789.1685,491.37645 c 35.63258,74.79719 52.46197,177.2285 52.46197,308.43522 l -89.44465,450.23843 c -33.34709,192.0833 -57.86483,312.4871 -74.07088,360.7937 -18.38764,48.3064 -37.91848,76.5629 -58.59159,86.3281 -20.67311,9.7652 -58.90168,25.5557 -114.06461,46.2288 -34.48982,0 -54.22843,6.8552 -61.70815,24.7234 -7.47971,17.8683 6.33662,27.011 43.21579,24.7255 h 178.89134 c 68.97962,0 93.18367,-26.4899 67.83574,-77.0819 4.57093,-34.4898 25.86824,-94.329 67.83778,-178.8913 41.96958,-84.5624 62.64312,-146.6854 58.5916,-188.1355 -4.05151,-41.4502 7.06377,-74.4856 36.98268,-98.6908 h 138.78998 c 28.7762,190.9405 43.6318,312.9027 49.3454,367.0268 2.2855,46.021 -6.2339,75.4201 -24.7254,86.3281 -18.3877,10.9079 -52.3581,25.1398 -101.80737,40.0992 -32.20438,0 -49.96707,7.3767 -58.58953,24.7255 -8.62246,17.3488 3.32391,24.7234 40.09923,24.7234 h 169.64307 c 70.1224,1.1427 88.8221,-25.3472 55.475,-77.0819 -3.4282,-66.6941 1.4548,-140.5579 12.3628,-225.1202 10.9079,-84.5624 3.739,-165.8003 -21.609,-240.5975 L 1112.874,972.57338 c 25.3479,-68.97962 23.3741,-132.7652 -3.1166,-194.26511 -26.4907,-61.49991 -29.3999,-137.75293 -9.2462,-225.12019 20.1537,-87.36728 11.9476,-144.29519 -27.7365,-169.64313 -39.6841,-25.34793 -61.7081,-59.6305 -61.7081,-107.93701 v -3.11655 c 22.9586,-8.10303 46.5413,-23.47805 67.8378,-49.34542 21.2964,-25.86736 28.1516,-62.3315 24.7234,-104.82045 -1.1428,-47.163784 -20.8794,-77.393998 -61.7061,-89.444655 -20.4653,-6.025329 -39.7884,-8.207329 -61.70811,-9.246179 -21.81587,-1.03885 -44.56754,-0.934961 -67.83779,3.116553 -46.54042,8.103029 -79.47209,48.20356 -95.57428,117.183181 -9.24578,13.81671 -20.15288,35.21748 -33.9696,61.70815 -6.85641,16.10218 -7.47972,22.33408 0,24.72343 7.47973,2.28548 11.94554,5.81797 15.37375,9.24618 -5.71368,4.57095 -7.8936,10.07726 -6.12756,12.36273 1.76605,2.28547 7.68584,1.97382 12.36067,3.11656 2.28547,-1.14274 0.93496,2.182 -3.11656,6.12962 -4.05151,4.05152 -2.70101,6.33537 3.11656,9.24415 5.71368,2.90878 8.72676,9.55825 9.24618,21.60891 0.51943,12.05066 3.11697,20.46617 12.36275,21.60891 9.24577,1.14273 27.52954,1.14273 49.34541,0 v 33.96961 c -47.16383,10.3885 -83.0046,19.73737 -104.82045,27.73651 -21.81585,8.10302 -42.90335,29.08866 -64.7192,64.72122 -21.81584,35.63255 -56.09798,88.3028 -98.69083,157.28242 -41.45011,-18.38764 -122.89617,-35.21706 -243.61052,-52.46197 -4.53359,-0.62699 -8.41418,-0.70268 -12.61229,-1.06116 -2.00555,-4.50605 -3.97398,-8.99705 -6.19253,-13.58623 z M 955.69712,47.267714 c 16.51773,0.311654 35.63092,1.87034 55.47298,6.129625 39.684,8.622453 59.4226,31.062493 61.7081,67.837771 1.1427,36.77529 -8.6216,71.05743 -33.9696,98.69083 -25.3479,27.6334 -42.48897,36.15078 -49.34536,24.72343 -10.3885,-11.53123 -5.29938,-30.02281 15.37376,-52.46196 20.6731,-22.43916 24.4134,-44.04608 12.3627,-64.7192 -12.0507,-20.67311 -33.34594,-22.64692 -67.83568,-3.11655 -13.81672,-12.67397 -44.56837,-18.9079 -89.44672,-24.725462 8.10303,-22.958577 25.97127,-38.74914 52.46197,-46.228859 13.29729,-3.739859 26.70012,-6.441281 43.21785,-6.129625 z M 43.377075,65.553111 316.80586,538.56504 c -2.01694,0.0171 -3.97398,-0.0488 -6.02817,-0.0243 -8.62246,1.14273 -19.21795,0.20777 -27.73651,0 -1.0796,0.11777 -2.11045,0.37008 -3.1896,0.49507 -1.87905,-1.84069 -3.80069,-3.66352 -5.84962,-5.27338 C 251.77057,515.58251 231.30598,496.88356 211.98337,477.56095 159.62534,425.20292 117.75998,369.31141 86.698371,309.57755 44.209413,228.54727 29.560369,147.2067 43.377075,65.553111 Z M 850.87666,118.22204 c 37.91805,0 66.38215,8.5194 89.44464,24.72546 0,14.95944 7.58444,16.93326 18.49238,3.11655 0.50425,-0.70597 2.34385,0.49459 3.02315,-0.002 -3.77767,3.39563 -6.06605,6.80596 -9.15279,12.25925 -6.33699,10.90793 -8.51899,18.90791 -6.12964,24.72546 -5.71368,3.42821 -8.10345,9.6601 -9.24618,15.37378 -1.14274,5.71367 -0.72678,9.45395 6.12963,12.36273 6.85642,2.90878 16.20524,-2.80369 27.73649,-15.37378 11.53124,-12.67397 18.70014,-21.08989 21.60893,-30.85508 2.90876,-9.76519 2.90876,-17.03594 0,-21.60688 -2.90879,-4.57094 -6.23394,-5.92145 -15.37583,-3.11656 -4.61738,1.43653 -11.4233,2.7008 -15.29458,6.03427 10.30872,-12.13471 19.20856,-20.13346 30.67041,-15.17697 12.05063,5.19426 13.08993,19.21836 6.12966,36.98269 -6.96033,17.76433 -14.54519,30.54182 -27.73859,43.21579 -13.19341,12.67397 -17.34715,25.55736 -9.24411,36.98471 8.10303,11.53123 16.62036,37.39786 24.7234,77.08192 8.103,39.68406 27.32217,67.73228 55.47497,83.31503 28.1529,15.47886 32.3091,62.54053 18.4924,141.90865 -13.8167,79.36812 -15.3754,147.20359 -6.1296,203.50926 L 884.84625,790.67103 C 879.13257,648.03695 861.78376,547.06004 832.38428,488.46891 803.08869,429.7739 810.25759,395.90729 853.99321,386.66153 c 44.87825,0 66.2791,-19.32306 61.70815,-55.47504 -4.57094,-36.25586 -21.19255,-50.69551 -49.34541,-43.21579 -28.15286,7.47971 -38.54261,1.45356 -33.97167,-21.60891 16.10219,-11.53123 21.19339,-20.67192 15.37582,-24.72343 -5.71368,-4.05151 -17.0384,-6.12963 -30.85511,-6.12963 0,-4.98647 -1.34885,-8.72675 -6.12756,-12.36273 -3.01267,-2.28547 -7.48014,-4.36358 -12.36274,-6.12962 11.53124,-31.06161 22.43835,-52.14911 33.96959,-64.7192 13.81672,-6.8564 29.39906,-8.83022 43.21578,-3.11655 13.81672,5.71368 28.25841,10.07523 43.21786,12.3607 l -3.11656,-9.24415 c -9.24577,0 -20.15495,-2.38977 -33.97166,-9.24617 -13.81672,-6.85641 -28.25633,-8.83023 -43.21578,-3.11656 5.81756,-8.20691 10.07726,-15.99872 12.36274,-21.71239 z m 129.54387,30.85306 c 3.11655,0.31165 6.12963,2.18199 6.12963,6.12962 0,8.10303 -2.9092,14.64862 -9.24619,21.60891 -6.33699,6.8564 -13.91935,12.56888 -18.49029,15.37378 -4.57095,2.80489 -4.57095,0.7288 0,-6.1276 4.57094,-6.85641 5.19425,-8.51898 0,-6.12963 -5.19426,2.28547 -5.92145,0.72678 -3.11656,-6.12962 2.90878,-6.85641 7.68584,-15.79136 12.36067,-21.60891 6.33699,-3.53209 9.1423,-3.42821 12.36274,-3.11655 z m -123.70439,2.58292 c -6.53499,0.40418 -12.982,3.13157 -18.20222,6.55977 l -9.24619,9.24618 v 9.24618 h 6.12963 c 17.24493,9.24576 34.80192,9.24576 55.47505,0 h 21.60686 v -9.24618 h -21.50339 c -10.3885,-7.99914 -19.11402,-13.60975 -27.73648,-15.3758 -2.15562,-0.44151 -4.34489,-0.56488 -6.52326,-0.43015 z m -5.83948,9.67633 c -2.28548,4.57094 -1.55828,7.68791 3.11655,12.36273 -4.57094,-2.28547 -10.80488,-4.98689 -15.37582,-6.12963 1.03885,-3.42821 6.54559,-3.84375 12.25927,-6.2331 z m 15.37374,0 18.49238,9.24617 c -6.85642,2.28548 -12.7787,4.98689 -18.49238,6.12963 4.67483,-4.46705 4.67483,-10.70097 0,-15.3758 z m 80.20053,33.96961 c 6.85642,3.42821 7.06419,6.33739 3.11656,9.24618 -4.05152,2.90878 -4.46748,3.4282 -6.12964,0 -1.76605,-3.42821 -1.55786,-6.96071 3.01308,-9.24618 z m -114.06665,15.3758 c -1.76605,0.62331 -0.62331,3.32473 0,6.12963 0.62331,2.80489 -0.83108,4.98689 -3.11655,6.12962 -2.28547,1.14274 -6.33741,0.41554 -9.24619,-3.11655 0.83108,0.62331 -0.83108,1.97382 0,3.11655 3.42821,4.57095 8.31122,5.40203 12.36274,3.11656 4.05152,-2.28548 3.63598,-4.67524 3.11655,-9.24618 -0.62331,-4.46706 -1.3505,-6.64905 -3.11655,-6.12963 z m -18.59585,3.11655 c -2.28547,1.14274 -1.97381,2.49325 -3.11655,3.11656 -1.03885,0.51942 -2.17992,2.70141 0.10555,6.12962 1.14274,-1.76604 4.77705,-3.32432 6.12756,-3.11655 -1.86993,-1.97382 -2.18159,-6.12963 -3.11656,-6.12963 z m 3.11656,27.73651 c 5.71368,1.14274 12.77869,3.11655 18.49237,3.11655 l -21.60893,3.11656 c -2.28547,0 -3.63597,-1.35051 -3.11655,-3.11656 0.51943,-1.76604 2.8049,-3.11655 6.23311,-3.11655 z m 24.72548,6.23311 c -2.28547,1.14273 -5.81798,3.84415 -9.24619,6.12962 -3.42821,2.28547 -7.68791,4.98689 -12.36274,6.12963 -2.28547,0 -4.98482,-2.49324 -6.12756,-3.11656 -1.14273,-0.62331 0.83108,-2.70141 3.11655,-6.12962 z m -468.8342,351.54753 c 74.79719,18.38764 147.20604,38.64568 212.75746,61.70814 -30.01455,-0.99446 -109.8565,-5.31671 -206.66639,-10.75778 -0.32687,-16.04894 -2.61473,-32.82622 -6.90065,-50.36195 0.17346,-0.15316 0.64621,-0.44024 0.80958,-0.58841 z m -27.7568,19.44801 c 0.13441,0.95436 0.32383,1.94913 0.43624,2.88728 1.10943,9.2595 1.64277,18.2148 1.88494,26.99795 -10.77877,-1.51491 -21.64352,3.9149 -32.01162,6.55775 -0.93197,0.27727 -1.84759,0.64184 -2.77973,0.92523 1.76591,-7.09085 3.04882,-14.02863 3.75163,-20.78311 1.85927,-0.86318 3.70954,-1.69874 5.67715,-2.89336 7.09618,-3.7568 15.24717,-8.79178 23.04139,-13.69174 z M 1060.621,796.69512 c 39.0607,49.44925 43.0068,106.79516 6.1276,175.77478 l 43.2178,237.4809 H 807.76435 l 74.06882,-370.14337 z"
     style="stroke-width:1.03885" /></svg>
