<?xml version="1.0" encoding="UTF-8" standalone="no"?>
<svg
   width="18"
   height="7.7529998"
   id="svg1909"
   sodipodi:version="0.32"
   inkscape:version="1.2.1 (9c6d41e410, 2022-07-14)"
   sodipodi:docname="US9A15VARB.svg"
   version="1.0"
   xmlns:inkscape="http://www.inkscape.org/namespaces/inkscape"
   xmlns:sodipodi="http://sodipodi.sourceforge.net/DTD/sodipodi-0.dtd"
   xmlns="http://www.w3.org/2000/svg"
   xmlns:svg="http://www.w3.org/2000/svg"
   xmlns:rdf="http://www.w3.org/1999/02/22-rdf-syntax-ns#"
   xmlns:cc="http://creativecommons.org/ns#"
   xmlns:dc="http://purl.org/dc/elements/1.1/">
  <metadata
     id="metadata1916">
    <rdf:RDF>
      <cc:Work
         rdf:about="">
        <dc:format>image/svg+xml</dc:format>
        <dc:type
           rdf:resource="http://purl.org/dc/dcmitype/StillImage" />
      </cc:Work>
    </rdf:RDF>
  </metadata>
  <defs
     id="defs1914" />
  <sodipodi:namedview
     inkscape:window-height="1017"
     inkscape:window-width="1920"
     inkscape:pageshadow="2"
     inkscape:pageopacity="0.0"
     guidetolerance="10.0"
     gridtolerance="10.0"
     objecttolerance="10.0"
     borderopacity="1.0"
     bordercolor="#666666"
     pagecolor="#ffffff"
     id="base"
     inkscape:zoom="24.660062"
     inkscape:cx="11.638251"
     inkscape:cy="1.013785"
     inkscape:window-x="1072"
     inkscape:window-y="-8"
     inkscape:current-layer="svg1909"
     inkscape:showpageshadow="2"
     inkscape:pagecheckerboard="0"
     inkscape:deskcolor="#d1d1d1"
     showgrid="false"
     inkscape:window-maximized="1" />
  <g
     id="g499"
     transform="rotate(5.793789,4.918989,4.2185397)">
    <path
       id="path1911"
       style="fill:#000000;stroke:none;stroke-width:0.938281"
       d="M 5.9574763,-0.09759304 C 5.4580806,-0.04130421 5.0383414,0.22973618 4.6991933,0.71530344 4.5237302,0.93268444 4.2664251,1.0663153 3.9217546,1.1203096 3.6841181,0.8253327 3.4037559,0.62213361 3.0819662,0.50930479 2.7601772,0.39647655 2.4313409,0.40036785 2.0961376,0.52139063 1.7609351,0.64241334 1.5590465,0.90118245 1.4915186,1.2972763 1.423991,1.6933708 1.4783519,2.079301 1.6518107,2.4572496 1.8252693,2.8351982 2.212908,3.1270734 2.8181726,3.3300935 c 0.2127372,0.03849 0.5488887,0.1500291 1.0044768,0.3359619 0.16205,0.016469 0.2309352,-0.016963 0.2081993,-0.1017397 -0.022736,-0.084777 -0.017072,-0.1464889 0.01826,-0.1850673 0.038911,0.034879 0.081996,0.0454 0.1308941,0.03069 0.048895,-0.014709 0.067477,-0.040751 0.053313,-0.076863 -0.014759,-0.048355 -0.00328,-0.051962 0.035924,-0.010974 0.039209,0.041002 0.093805,0.036193 0.1594723,-0.016181 C 4.4943791,3.2535818 4.5787465,3.210938 4.6827287,3.1812105 4.786712,3.1514829 4.8268012,3.0789139 4.8087617,2.9632218 4.7907211,2.8475292 4.7548078,2.7056198 4.6969624,2.5366828 L 5.3436566,2.4662917 C 5.4123388,2.706072 5.01975,3.2095341 4.242282,3.7682161 3.6832835,4.094879 3.2666733,4.3742844 2.9550459,4.6060362 2.6885709,4.7675678 2.4143042,4.9412131 2.1290783,5.1350559 1.4942984,5.0272603 0.9672761,5.1791079 0.55279973,5.5881392 0.34274639,5.730216 0.22579386,5.8269329 0.19894298,5.8787122 c -0.0268514,0.051778 -0.0158876,0.087281 0.0312036,0.1067625 -0.0113137,0.072719 0.0143509,0.1150471 0.075571,0.1242467 -0.007546,0.048478 0.0226283,0.078145 0.096088,0.089186 -0.0113137,0.072719 -0.003701,0.11283 0.0198446,0.1225724 0.0235446,0.00974 0.0644479,-0.00781 0.12096476,-0.048917 C 1.0974288,5.8474106 1.4803568,5.6413671 1.6922686,5.6484069 1.7939891,5.6388898 1.8015735,5.6758078 1.7130263,5.7617259 1.3682934,5.8835636 1.1741414,5.9845782 1.1364548,6.0657363 1.0686251,6.1795734 1.1055494,6.2237552 1.2477731,6.1955165 1.3485645,6.1114373 1.5192482,6.0356958 1.7547183,5.9718566 1.990187,5.9080186 2.1560913,5.8265435 2.2535883,5.7233662 2.351086,5.6201882 2.4174933,5.5339615 2.4532949,5.4649236 2.63894,5.430366 2.8571516,5.362718 3.1056143,5.2686525 2.8718994,5.5578986 2.6327073,5.8746366 2.389429,6.2225836 1.7684749,6.3556227 1.3430315,6.6922846 1.1138066,7.2296148 0.96818355,7.4259909 0.89153372,7.5521488 0.88573406,7.6100251 c -0.0058,0.057875 0.0173477,0.089154 0.0684088,0.090163 0.0164297,0.071695 0.0556588,0.099005 0.11606714,0.085326 0.013692,0.059749 0.048688,0.085055 0.1090961,0.071377 0.013692,0.059749 0.038484,0.089025 0.070057,0.088163 0.031579,-8.34e-4 0.064695,-0.030403 0.1020685,-0.089139 0.3589031,-0.5966155 0.639074,-0.932631 0.8389832,-1.003034 0.091174,-0.045785 0.111864,-0.00404 0.06402,0.1199221 C 1.9759174,7.1992713 1.8358198,7.3596525 1.8335649,7.4607196 1.8126224,7.5911553 1.8615817,7.6144007 1.9807862,7.5245637 2.043449,7.4098189 2.1733236,7.2782488 2.3688829,7.1334128 2.5644423,6.9885769 2.6892418,6.8512893 2.7417564,6.7199886 2.7942706,6.588687 2.824458,6.4838439 2.83219,6.4066763 3.7235592,5.7724576 4.4738664,5.1569692 5.0225435,4.5043505 5.4279227,4.1427772 5.5676575,3.8624911 5.7990554,3.5974304 L 6.4477813,2.6751019 C 6.6700131,2.5717831 7.1255294,2.5446226 7.436284,2.4309544 7.7467626,2.317387 8.2550895,2.5068669 8.9681808,2.3982714 9.0106591,2.69765 9.2316163,2.9343453 9.2528989,2.977654 9.4130591,3.0069565 9.4974999,2.6757655 9.5282554,2.4927084 L 10.24364,2.7902141 10.28209,2.201858 c 0.278738,0.064059 0.47791,0.1061222 0.498276,0.1106705 0.447717,0.1444137 0.75,0.1130177 1.28601,0.263424 0.617685,0.2243215 1.22499,0.6157697 1.493841,0.7103351 0.268857,0.094565 0.588909,0.1862039 0.96156,0.2780234 0.170161,0.034999 0.39421,0.1311384 0.671569,0.2854623 0.277365,0.1543233 0.582235,0.3284044 0.912345,0.5230283 0.146337,0.206801 0.196148,0.5742809 0.152755,1.1039416 -0.04339,0.5296594 -0.02654,0.8824409 0.05173,1.0573953 0.107202,0.030081 0.275372,-0.062415 0.505092,-0.278436 0.229719,-0.21602 0.320492,-0.5469204 0.269446,-0.9947129 -0.05105,-0.4477923 -0.04995,-0.7612593 0.0011,-0.9381708 C 17.191326,3.9572016 16.921346,3.774682 16.278137,3.7726823 15.172088,2.8758624 14.356712,2.3967317 13.832616,2.3389116 13.398704,2.0131686 13.067771,1.7998645 12.839754,1.6976351 l -0.01199,-0.1911589 c 0.43391,0.058011 0.883335,0.063439 1.347873,0.015303 1.172413,0.1759941 1.978681,0.2986236 2.421099,0.3717722 0.302885,0.4674631 0.443911,0.9409964 0.42179,1.4192547 -0.0068,0.4698055 0.0671,0.7057849 0.220243,0.7105109 0.353929,-0.24491 0.528528,-0.605736 0.525128,-1.0847811 -0.0034,-0.4790457 8.57e-4,-0.8508521 0.01277,-1.1152403 C 17.788579,1.5589077 17.646091,1.4286896 17.348308,1.434374 17.139009,1.4011418 16.921072,1.3534953 16.694757,1.2899909 15.49002,0.73520138 14.677477,0.51455147 14.258881,0.62657488 13.86751,0.55500181 13.285411,0.15931042 12.535001,-0.05125809 12.388454,-0.0902098 12.258631,-0.12282979 12.126182,-0.15634826 11.609321,-0.33133233 11.195296,-0.45611311 10.715137,-0.46571412 10.075111,-0.47851159 9.2316407,0.10799136 8.7101665,0.23870137 8.6612562,0.25862685 8.5901588,0.23077596 8.5461012,0.22786636 7.7193051,0.06043114 6.9761836,-0.04982528 6.316209,-0.10284602 c -0.1237453,-0.009941 -0.2434876,-0.007736 -0.3587327,0.005253 z M 6.3499035,0.28398218 C 6.5198162,0.27091275 6.6953876,0.28029087 6.8767427,0.31113994 7.6021644,0.434536 8.1156494,0.53703499 8.4173865,0.62018083 8.6855825,0.77863432 8.8613589,1.2110932 8.945449,1.9187237 8.0481435,2.0861671 7.5538123,1.922727 7.1047143,2.0468684 6.6824764,2.1635851 6.5591787,2.2023241 6.6237602,2.0941143 6.7547539,1.8746271 6.9886208,1.7180151 6.7350915,1.2509154 6.2733289,0.93057661 5.8639579,1.3265533 5.4424225,2.0432058 4.5087308,2.1378872 4.311293,2.2774348 4.4095331,2.5328687 4.5160543,2.8098343 4.470299,2.9648585 4.2735146,2.9992101 4.1673681,2.8572263 4.0963246,2.8213538 4.0624847,2.8905403 4.0286451,2.9597265 4.0153864,3.0562659 4.0213513,3.1786965 3.9070063,3.1230305 3.8298399,3.1702985 3.787504,3.3196816 L 3.1810387,3.1100602 C 3.0265912,2.9950282 3.0007941,2.7328264 3.1048454,2.3226399 3.0499831,2.2149185 2.9964214,2.2669185 2.9446937,2.4781331 2.8929656,2.6893486 2.8970709,2.8899924 2.9561088,3.0834151 2.7669264,3.0192054 2.6659449,2.9446333 2.6555798,2.8592406 2.6452171,2.7738476 2.6800691,2.5326547 2.7599701,2.1359436 2.8441996,2.0826555 2.8317454,2.004813 2.721201,1.8998663 2.6106609,1.79492 2.5674556,1.6736188 2.5918288,1.5374034 2.6162011,1.4011882 2.7327356,1.357607 2.9398821,1.4086481 c 0.2071464,0.051041 0.3876916,0.1359285 0.54214,0.2509591 0.1544474,0.115032 0.3028855,0.1460584 0.4430937,0.096116 C 4.065324,1.7057817 4.1495498,1.5954832 4.1783197,1.4222309 4.4740924,1.3829458 4.7395923,1.2399948 4.9757304,0.99504463 5.3824873,0.56056874 5.8401651,0.3231908 6.3499035,0.28398218 Z M 2.4934766,0.80536375 c 0.040805,-0.004799 0.082422,-0.008673 0.1231799,-0.008834 C 2.9019614,0.79535575 3.1840477,0.90803541 3.4656882,1.133607 3.8335452,1.4282319 3.8103509,1.4884783 3.3986662,1.3126291 2.9869817,1.1367796 2.6762857,1.1134975 2.4654149,1.2405976 2.2545443,1.3676975 2.2530172,1.6390771 2.4594975,2.058335 2.4232789,2.5878695 2.2990812,2.7752454 2.0868646,2.6201386 1.8746482,2.4650317 1.7722242,2.1512856 1.7801931,1.678386 1.7881656,1.2054872 1.9779749,0.92482986 2.3517896,0.83256529 c 0.046726,-0.0115329 0.095053,-0.0217135 0.141687,-0.0272015 z m 8.1954104,-0.89099232 c 0.04857,-0.004842 0.09681,-0.0101381 0.146826,-0.0130657 0.182893,-0.0107054 0.421649,0.0909737 0.558955,0.124667 0.478045,0.22788151 1.220065,0.3800441 1.220065,0.3800441 C 12.540245,0.74851381 12.455537,1.1039915 12.396427,1.3937086 12.33214,1.6177608 12.278311,1.8265481 12.180456,2.2584096 11.876517,2.1631791 11.616131,2.1063591 11.330922,2.0441371 11.042627,1.9812417 10.90324,1.9208046 10.764258,1.8982663 10.31935,1.8261163 10.014084,1.6375732 9.8714117,1.5491456 9.6564713,1.4173312 9.4834311,1.2632077 9.3524715,1.0888 9.3408925,1.0639245 9.2863723,0.97046321 9.1925183,0.80822231 9.1141165,0.72960989 9.1220098,0.61694578 9.0903086,0.53094629 9.0935086,0.43292269 9.5288992,0.25405856 9.6459452,0.21440293 9.8148651,0.12341438 10.045623,0.01739102 10.23522,-0.03043569 c 0.163191,-0.0198641 0.30796,-0.040667 0.453667,-0.05519288 z M 2.7873951,1.4754205 c -0.041612,0.00514 -0.076608,0.018237 -0.1035547,0.03799 -0.053892,0.039503 -0.052782,0.1047309 0.00118,0.1940882 0.053968,0.089356 0.1463569,0.160598 0.2792618,0.2153396 0.1329051,0.054741 0.2281307,0.057683 0.2876132,0.00563 0.040699,0.071609 0.096667,0.1087762 0.1650207,0.1115062 0.068353,0.00274 0.1060975,-0.034686 0.1148925,-0.1087616 C 3.5406083,1.8571361 3.4711271,1.7696319 3.3234629,1.666535 3.1757986,1.5634388 3.0453171,1.503425 2.9327623,1.4844884 2.876485,1.4750199 2.8290067,1.4702787 2.7873951,1.4754205 Z m 0.068784,0.1121102 c 0.08013,-0.010133 0.1645355,0.0084 0.2535361,0.053057 0.089002,0.044656 0.1521042,0.089169 0.19161,0.1362903 0.039507,0.047123 0.014723,0.054546 -0.073682,0.022134 C 3.1392382,1.7666 3.1144554,1.774024 3.1539612,1.821145 3.1934682,1.868268 3.1760672,1.882153 3.1006332,1.861367 3.0252017,1.8405787 2.9504711,1.8068971 2.8738438,1.7616244 2.7818602,1.6557538 2.7760538,1.5976629 2.8561791,1.5875307 Z m 0.5461811,0.2725349 c 0.00612,-0.00209 0.012171,-0.00299 0.018331,-0.00186 0.00821,0.0015 0.015545,0.00683 0.023652,0.014089 0.032426,0.029066 0.034352,0.055951 0.00462,0.081978 -0.029741,0.026027 -0.063708,0.015457 -0.1032149,-0.031666 0.019203,-0.035475 0.038241,-0.056282 0.056618,-0.062541 z M 3.2059585,2.13283 3.13411,2.1547774 3.1840683,2.409873 C 3.0958159,2.6351812 3.0733588,2.8091552 3.1164446,2.9297354 3.1595294,3.0503165 3.262314,3.1364223 3.4261528,3.1896215 3.51739,3.0255287 3.5401257,2.8804391 3.4967419,2.753737 3.4533582,2.6270342 3.3732436,2.5048067 3.2559168,2.3879256 Z m 0.037177,0.3846427 c 0.079013,0.094245 0.1281059,0.1962555 0.1458482,0.3058268 0.029519,0.096711 0.01664,0.1763348 -0.042252,0.2406339 C 3.2577307,3.0192774 3.2164009,2.9796834 3.2269844,2.9423372 3.3407329,2.9857602 3.3949481,2.9457272 3.3889833,2.8232995 3.3211503,2.7039522 3.259827,2.6935351 3.2027305,2.7945625 c 0.0076,-0.098561 0.019833,-0.1901542 0.040405,-0.2770898 z"
       sodipodi:nodetypes="sccsscsccscscccssccccccscccccccccssccccscccccccccssccccscccccccscccccssccccccccccscccccsccssssccssccscsccccscccccscsccsccssscscscssccccssccccccscccccccsscscscsccscccccccccccscccccccccc" />
  </g>
  <g
     id="g254"
     transform="rotate(14.097494,20.16841,-48.277029)" />
  <g
     id="g442"
     transform="rotate(-10.011131,-24.29067,8.2784687)" />
  <g
     id="g468"
     transform="translate(0.71729967,-2.1736354)" />
  <g
     id="g496"
     transform="rotate(7.58059,42.775755,-109.71463)" />
</svg>
