<?xml version="1.0" encoding="UTF-8" standalone="no"?>
<svg
   width="1628.252"
   height="1791.9906"
   version="1.1"
   id="svg859"
   xmlns="http://www.w3.org/2000/svg"
   xmlns:svg="http://www.w3.org/2000/svg">
  <defs
     id="defs863" />
  <path
     id="path857"
     style="fill:#000000;stroke:none;stroke-width:100"
     d="M 894.0039,0.10958394 C 877.14787,0.49110254 859.91546,1.8685637 842.30469,4.2423964 771.86141,13.737708 721.20857,68.676017 690.34765,169.05489 c -17.44301,23.06 -37.5707,53.57936 -60.38086,91.56055 -10.73416,27.12943 -10.73416,42.39207 0,45.7832 10.73417,3.39124 19.45718,7.79874 26.16602,13.22461 -8.05065,5.42588 -11.40616,10.85148 -10.06445,16.27735 1.34181,5.42595 6.03723,8.8174 14.08789,10.17383 2.68351,-1.35643 0.67183,0.67762 -6.03711,6.10351 -6.70885,5.42587 -5.70203,10.51404 3.01953,15.26172 8.72156,4.74765 13.08203,18.65093 13.08203,41.71094 0,21.70356 12.07655,31.87604 36.22852,30.51953 26.83559,0 46.29121,-1.35542 58.36718,-4.06836 l 2.01172,24.41602 c -64.40523,14.92118 -121.43043,38.65946 -171.07617,71.21484 -67.08876,47.47651 -120.76029,193.298 -161.01367,437.46289 -52.32926,77.31878 -126.12848,166.84668 -221.39453,268.58198 -52.32937,33.9119 -95.93602,61.7222 -130.822266,83.4258 C 47.635346,1342.4067 20.126638,1400.7347 0,1495.6877 c 9.392466,23.0601 23.145842,36.2847 41.259765,39.6758 18.114027,3.3912 26.501966,-1.0165 25.160156,-13.2246 0,-31.1991 6.037299,-60.3628 18.113282,-87.4922 12.075988,-27.1295 38.912727,-50.868 80.507817,-71.2149 -14.7595,39.3376 -34.55224,66.4656 -59.375,81.3868 -24.822985,14.9211 -31.867094,31.1997 -21.132817,48.8339 67.088767,-18.9907 124.115997,-80.7116 171.078127,-185.1601 142.22838,-89.5271 230.78573,-174.3079 265.67187,-254.3399 24.15207,-58.32809 49.64704,-160.06256 76.48242,-305.20503 -1.34171,32.55532 17.40709,91.34756 45.28321,180.07227 26.36055,83.90096 45.72175,279.58656 31.5996,418.35936 -0.0318,0 -0.0639,0 -0.0957,0.01 0.002,0.4505 -0.005,0.8719 -0.01,1.2949 -0.0312,0.3011 -0.0427,0.6311 -0.0742,0.9316 -114.43107,26.4135 -239.13054,70.7927 -374.09571,133.1406 -134.99178,62.3605 -201.754432,124.354 -200.2871,185.9805 0,52.8231 16.87508,93.9081 50.62304,123.2539 H 1471.2851 c -35.2151,-66.0285 -84.3709,-92.0722 -147.4648,-78.1328 -63.0939,13.9394 -106.0126,-13.574 -128.7559,-82.5371 -22.743,-68.9631 -60.5267,-83.6368 -113.3496,-44.0195 33.0502,-78.4941 41.0973,-173.4373 25.0235,-284.25 0.03,-0.1548 0.1833,-0.2482 0.207,-0.4063 -0.2083,-1.1556 -0.5375,-2.6686 -0.75,-3.8359 -0.1575,-1.049 -0.2366,-2.0458 -0.3984,-3.0977 -0.069,-0.01 -0.1418,-0.01 -0.211,-0.017 -23.1848,-126.3799 -69.5491,-317.38756 -55.9765,-378.87895 18.1141,-82.06648 39.2485,-140.73364 63.4004,-176.00195 17.4429,123.43893 34.885,215.00086 52.3281,274.6855 24.1521,85.4578 101.3046,180.4129 231.457,284.8614 34.8863,109.8741 84.5324,178.3746 148.9375,205.5039 13.4178,-16.2774 8.3853,-33.2331 -15.0957,-50.8672 -23.4812,-17.6341 -39.9161,-47.4748 -49.3086,-89.5254 38.9116,27.1294 62.7259,54.9358 71.4473,83.4219 8.7219,28.4856 11.0724,57.6497 7.0469,87.4922 -2.6836,12.2082 5.3655,17.6337 24.1503,16.2773 18.7849,-1.3565 33.5452,-12.8865 44.2793,-34.5898 -8.0506,-97.6659 -27.8432,-159.046 -59.375,-184.1407 -31.5316,-25.0947 -71.45,-57.3126 -119.7539,-96.6504 -83.1901,-113.9434 -146.2546,-212.2884 -189.1914,-295.03315 -10.7343,-248.23426 -44.9503,-386.5961 -102.6465,-415.08203 -55.0129,-24.41644 -114.0497,-47.47613 -177.11323,-69.17969 V 390.8427 c 33.54443,-13.56469 65.74843,-39.33709 96.60943,-77.31836 30.8607,-37.98117 46.289,-90.20679 46.289,-156.67383 0,-66.467127 -29.1817,-110.891662 -87.5488,-133.273436 C 991.74609,6.785717 944.57213,-1.034941 894.0039,0.10958394 Z M 886.83398,33.984584 c 6.12188,-0.03162 12.41185,0.143882 18.86914,0.52539 25.82919,1.526043 54.34276,6.357246 85.53907,14.496094 62.39251,16.277623 93.58791,53.581842 93.58791,111.910152 0,56.97183 -20.7975,105.80588 -62.3926,146.5 -41.59493,40.69413 -68.42977,52.22396 -80.50586,34.58985 -13.41769,-18.99063 -3.02003,-45.44372 31.19531,-79.35547 34.21525,-33.91181 42.93825,-67.14586 26.16602,-99.70117 -16.77222,-32.55531 -53.33672,-35.2681 -109.69141,-8.13868 -20.12664,-20.34706 -65.74714,-35.94512 -136.86133,-46.79687 14.7596,-35.268328 42.60121,-57.990528 83.52539,-68.164062 15.34653,-3.815071 32.20271,-5.77036 50.56836,-5.865234 z M 734.62695,140.56857 c 57.6965,4.06944 104.65681,18.99074 140.88477,44.76367 0,21.70358 9.39485,22.38027 28.17968,2.0332 18.78493,-20.34706 37.23374,-26.11195 55.34766,-17.29492 18.11392,8.8171 20.46272,26.79049 7.04492,53.91992 -13.41758,27.12945 -30.52472,49.85173 -51.32226,68.16406 -20.79755,18.31235 -25.49698,36.96446 -14.0918,55.95508 11.40508,18.99058 19.12311,35.26729 23.14844,48.83203 v 99.70118 c 80.50654,23.06006 128.13884,42.05148 142.89844,56.97265 41.595,29.84238 39.9183,85.45755 -5.0313,166.8457 -23.8806,43.23965 -56.7301,114.77833 -61.5086,222.74146 -3.87273,87.4972 42.2045,279.9102 48.1424,360.3992 -109.11018,8.8249 -216.74501,23.4015 -309.95407,43.791 0,-3.0965 0.094,-6.6298 0.10156,-9.7617 -0.27725,0.098 -0.56039,0.1406 -0.83789,0.2363 -0.36479,-133.6488 -10.01047,-354.31369 -42.52539,-439.19727 -30.23105,-78.92127 -47.02135,-151.7568 -38.9707,-253.49219 -45.62031,-75.96235 8.72122,-125.47509 163.02539,-148.53515 0,-62.39769 -23.14629,-90.88299 -69.4375,-85.45704 -46.29142,5.42587 -65.41003,-9.49541 -57.35937,-44.76367 28.1773,-14.92119 37.90309,-26.11167 29.18164,-33.57226 -8.72168,-7.46061 -23.81671,-11.87006 -45.28516,-13.22657 1.34181,-12.20824 -8.721,-22.38265 -30.18945,-30.52148 20.12664,-48.83299 40.25422,-82.06703 60.38086,-99.70117 20.12664,-10.85174 40.92413,-11.19111 62.39257,-1.01758 21.46845,10.17353 42.93585,17.2958 64.4043,21.36523 v -14.24218 c -13.4177,-1.35651 -30.85968,-8.1394 -52.32812,-20.34766 -21.46845,-12.20817 -43.60782,-14.24232 -66.41797,-6.10352 8.05065,-12.20824 14.75992,-21.70394 20.12695,-28.48632 z m 207.24024,34.77929 c -2.97701,0.21196 -6.30813,0.82834 -9.99805,1.84571 -14.7595,4.06943 -27.84297,14.92057 -39.24805,32.55468 -11.40518,17.63415 -14.42574,30.51939 -9.05859,38.65821 -12.07588,5.42586 -19.11825,12.54814 -21.13086,21.36523 -2.01272,8.81703 2.01085,15.60195 12.07422,20.34961 10.06327,4.74765 24.4885,-2.03727 43.27343,-20.34961 18.78494,-18.31241 31.19644,-34.9284 37.23438,-49.84961 6.03804,-14.92117 7.37982,-26.79039 4.02539,-35.60742 -2.51587,-6.61283 -8.24065,-9.60265 -17.17187,-8.9668 z m -198.15235,16.1836 c -9.24572,-0.57226 -17.64195,1.42975 -25.18945,6.00781 l -20.12696,16.27734 v 16.2793 l 8.05079,-2.03516 c 26.83559,13.56469 57.02403,13.56469 90.56836,0 l 32.20507,8.13868 v -18.3125 l -32.20507,-2.03516 c -20.12664,-15.26028 -37.89333,-23.36653 -53.30274,-24.32031 z m 194.69531,5.24609 c 4.36074,0.84779 6.20412,4.15295 5.53321,9.91797 -1.34181,11.53002 -6.7091,22.72053 -16.10157,33.57227 -9.39247,10.85174 -18.11351,18.31336 -26.16406,22.38281 -8.05076,4.06944 -8.05076,0.67799 0,-10.17383 8.05055,-10.85174 8.05055,-14.58256 0,-11.19141 -8.05076,3.39122 -9.72748,-0.33763 -5.03125,-11.18945 4.69624,-10.85174 11.74034,-20.34753 21.13281,-28.48633 9.39246,-4.06944 16.27004,-5.67982 20.63086,-4.83203 z m -203.7832,6.86719 c -5.36703,6.78237 -5.36703,13.56333 0,20.3457 -8.05055,-2.71299 -14.75982,-5.42573 -20.12695,-8.13867 2.68351,-5.42588 9.39278,-9.49409 20.12695,-12.20703 z m 24.15234,2.0332 26.16407,16.27735 c -10.73418,2.71293 -20.79894,4.07031 -30.19141,4.07031 8.05065,-5.42588 9.39449,-12.20886 4.02734,-20.34766 z m 122.77344,59.00781 c 9.39247,5.42589 11.06734,10.51406 5.0293,15.26172 -6.03805,4.7476 -10.39645,4.40832 -13.08008,-1.01758 -2.68352,-5.42586 2.3e-4,-10.17475 8.05078,-14.24414 z m -179.13086,19.33008 c -2.68362,0.67823 -3.68858,3.05174 -3.01758,7.1211 0.6708,4.06944 -1.00787,6.78412 -5.0332,8.14062 -4.02532,1.35644 -8.04878,-0.67957 -12.07422,-6.10547 -4.02532,-5.42586 -7.37888,-8.13867 -10.0625,-8.13867 -2.68351,0 -4.69725,1.01801 -6.03906,3.05273 -1.34181,2.03464 -2.01172,5.08681 -2.01172,9.15625 5.36714,-4.06944 10.73258,-2.71401 16.09961,4.06836 5.36714,6.78239 11.40639,8.47913 18.11523,5.08789 6.70896,-3.39113 9.72744,-8.14004 9.05665,-14.24414 -0.67091,-6.10417 -2.34969,-8.81695 -5.03321,-8.13867 z m -34.21484,45.27149 c 2.01261,-0.3391 4.69635,-0.16849 8.05078,0.50976 6.70884,1.35644 14.76194,2.37445 24.1543,3.05274 9.39247,0.67822 13.41602,1.69435 12.07422,3.05078 h -44.2793 c -4.02533,0 -5.36515,-1.35541 -4.02344,-4.06836 0.67091,-1.35647 2.01072,-2.20581 4.02344,-2.54492 z m 42.26758,10.68359 c -2.68352,4.06943 -7.38089,7.45924 -14.08985,10.17188 -6.70895,2.71294 -12.74614,4.07031 -18.11328,4.07031 -4.02532,1.35677 -6.70907,1.01714 -8.05078,-1.01758 -1.34181,-2.03472 -0.66984,-4.40815 2.01367,-7.12109 z M 1046.498,1365.0002 c 20.5423,90.9727 -1.466,178.2777 -66.0273,261.9141 -98.30931,55.7573 -217.52894,64.1958 -357.65625,25.3125 -140.12738,-38.8836 -272.55273,-30.4468 -397.27344,25.3105 0,-48.4208 13.20574,-86.5723 39.61719,-114.4512 170.20702,-77.767 317.30594,-128.3884 441.29297,-151.8652 123.98704,-23.4769 237.33566,-38.8842 340.04683,-46.2207 z" />
</svg>
