<?xml version="1.0" encoding="UTF-8" standalone="no"?>
<!-- Generator: Adobe Illustrator 19.0.0, SVG Export Plug-In . SVG Version: 6.00 Build 0)  -->

<svg
   version="1.1"
   id="Ebene_1"
   x="0px"
   y="0px"
   viewBox="0 0 1194.947 1797.2433"
   xml:space="preserve"
   width="1194.947"
   height="1797.2433"
   xmlns="http://www.w3.org/2000/svg"
   xmlns:svg="http://www.w3.org/2000/svg"><defs
   id="defs678">
	
	
</defs>
<style
   type="text/css"
   id="style669">
	.st0{fill:#010101;}
</style>
<path
   id="XMLID_28_"
   class="st0"
   d="M 561.72309,0.00343151 C 551.21301,0.07830131 540.10755,1.3789205 528.40915,3.9021043 481.61558,13.994837 440.83673,36.423201 406.07287,71.187059 371.30901,105.95093 355.81345,158.14784 359.58548,227.67556 c 0.20389,0.61168 0.30584,1.12062 0.50974,1.7323 v 0.10154 c 0.10194,0.50973 0.30425,1.12301 0.40619,1.63274 5.60707,23.03998 7.84991,59.84209 6.62655,110.30575 0.2039,0.40779 0.30584,0.81478 0.50974,1.22257 v 0.40819 c 6.32069,17.63679 13.55974,23.95711 21.71548,18.96172 7.74796,-4.7915 14.78271,-7.33858 20.79757,-7.54248 -1.12142,3.36425 -1.22376,6.52381 -0.40819,9.37832 0.40779,2.44673 1.42646,4.68916 3.26151,6.7281 3.77203,4.38372 7.54566,5.40398 11.31769,2.85531 2.14089,-1.52921 3.4658,-2.34597 4.17943,-2.24403 -0.30584,0.81558 -0.81518,2.03894 -1.63075,3.56815 -1.22337,2.24283 -1.53,4.28336 -0.81637,6.22035 0.30584,3.67009 3.87439,6.82885 10.60287,9.58142 9.48105,3.77203 17.63643,10.39859 24.56881,19.87964 6.93238,9.48105 17.02434,11.01186 30.27743,4.69115 13.25309,-6.3207 27.42452,-16.41466 42.6146,-30.27942 l 22.12168,29.5646 c -17.33095,23.9575 -26.70849,55.25605 -27.93186,94.09778 -36.70084,77.17373 -68.30444,156.79482 -94.81062,238.96394 -54.2357,-36.59889 -238.31756,-74.32052 -285.00919,-113.36614 -8.76742,-30.0743 -20.69483,-60.75919 -35.78296,-92.05686 V 440.94768 137.51875 l -54.746684,0.2031 -0.203098,300.67716 h -0.816371 v 123.2542 C 27.883841,537.59376 8.9228695,547.78927 0.05349947,592.03418 c -0.7136283,30.99183 5.70863913,53.42019 19.47145953,67.28496 9.073264,9.68494 21.611959,15.29124 37.413718,17.02434 V 1796.3317 h 54.949783 v -1.4276 h 0.71283 V 683.7864 c 40.37093,42.9196 161.50296,69.23169 198.71354,99.50989 37.21057,30.2782 118.00076,56.36652 139.40959,57.58988 67.08099,-89.61123 114.99693,-174.84021 144.05177,-255.58207 20.18546,23.9575 53.01243,54.54163 98.37876,91.75221 45.06049,36.90474 64.02344,69.83445 56.88717,98.6854 -15.59786,4.38371 -25.58987,11.41885 -29.76969,21.20575 -2.14089,4.48566 -2.95646,9.68456 -2.54868,15.39358 1.22337,17.63679 13.86441,24.5696 37.82191,20.79757 l -71.17126,89.1195 47.30378,-5.71062 -31.40046,56.88717 -263.27127,238.61624 c -2.75257,6.0149 2.54868,20.1855 8.15575,22.4284 l 64.125,1.0194 c 8.66548,-2.0389 200.79093,-11.5984 199.66952,-4.0543 -33.7444,137.0165 -59.23077,230.909 -78.09093,308.5924 -7.54406,54.3377 -26.91521,100.8267 -57.80509,139.3627 -30.99182,38.5359 -69.52783,60.658 -115.70973,66.367 -46.18191,5.709 -70.44491,22.4291 -72.99358,50.2606 58.10967,0 100.51926,-1.9386 127.02544,-5.7106 26.50616,-3.7721 52.9697,4.453 92.11727,4.453 17.73874,-15.19 31.13772,-54.4062 27.36569,-97.4278 74.62506,-126.4141 124.57914,-236.4142 149.86196,-330.0013 3.77203,-87.2665 22.12288,-135.8965 54.94978,-145.9892 h 166.88627 c 11.418,70.7511 32.6034,214.1961 69.3042,398.8218 0,40.4729 -15.1897,73.299 -45.4679,98.5818 -55.66287,13.8648 -91.03773,25.2828 -106.22782,34.1522 -15.19009,8.8694 -22.73497,18.963 -22.73497,30.381 0,11.4181 18.35085,15.8018 54.94979,13.2531 61.9836,-6.3207 115.3976,0.3812 162.1912,-2.1675 37.9243,-17.7387 43.6325,-48.0178 17.0243,-91.0394 6.3207,-197.267 4.9202,-345.0676 -11.4932,-389.9241 -16.4135,-44.8567 -24.6724,-77.4805 -24.6724,-97.666 -13.8648,-151.6968 -24.3645,-266.48885 -31.2969,-344.17231 -6.9324,-77.68345 -37.6196,-144.45961 -91.9573,-200.12256 -36.0891,-93.38327 -57.49642,-166.5801 -64.12297,-219.49049 99.09227,99.60202 166.27497,232.33636 201.44667,398.30575 -7.5441,71.8725 0,143.23631 22.7329,213.88541 0.4078,-0.1019 0.7136,-0.3062 1.0195,-0.4082 0,0.102 0.1036,0.2043 0.1036,0.4082 10.0927,-3.772 24.3692,-7.0535 30.6899,-24.6903 -2.689,-59.15278 -12.4908,-107.32074 -9.9422,-117.51542 23.6172,-14.60741 21.832,71.16198 32.3662,60.0639 24.2382,-12.76295 -9.3215,-100.33846 -28.4436,-122.77146 C 1142.8427,708.76314 1118.8859,613.95233 1085.9572,574.80476 988.59799,406.69449 911.52593,325.13681 854.53771,330.1322 809.06939,311.17009 767.88244,304.54353 731.28349,310.25255 c -36.39501,5.60708 -60.35258,-14.57845 -71.87257,-60.65841 13.45698,-28.85094 21.50961,-56.8868 24.26217,-84.00464 1.22336,-11.3161 1.63115,-22.53068 1.01947,-33.54093 -1.93699,-37.312532 -16.71853,-70.444549 -44.55,-99.601333 C 619.42187,10.579648 593.25333,-0.22116969 561.72309,0.00343151 Z M 550.90119,41.793696 c 26.79489,0.191151 48.64183,10.736305 65.59048,31.635399 18.65627,22.938033 27.11748,49.852865 25.58828,80.844695 -0.91752,13.55893 -3.67129,27.93267 -8.36084,43.0208 -15.80176,50.56561 -23.34465,50.87185 -22.73297,0.91792 0.61168,-49.95393 -10.70444,-82.7801 -34.15221,-98.581865 -23.34582,-15.801753 -53.42061,-3.46735 -90.12146,37.005535 -49.54614,15.49591 -76.35903,15.19007 -80.33495,-1.01947 -0.40779,-3.16035 -0.10195,-6.83085 1.01947,-11.11261 7.54406,-28.341213 37.5177,-52.400733 89.91836,-71.872571 19.65024,-7.34017 37.5089,-10.952523 53.58584,-10.837833 z m 4.36659,87.256194 c 12.9791,0.51711 21.11894,10.35281 24.41947,29.70996 1.42726,8.25769 2.14208,16.41346 2.24403,24.46726 0,12.8453 -1.7331,25.58749 -5.09735,38.025 -1.93699,7.03432 -2.8557,13.66169 -2.75376,19.67655 -0.20389,12.6414 3.87439,23.03881 12.13208,31.39845 12.02973,12.02972 25.58908,15.49712 40.67721,10.39978 21.40883,50.46366 48.93375,71.87215 82.27036,64.32809 33.43855,-7.54406 77.88792,-1.22374 133.44888,18.96173 8.86938,76.76594 40.37179,185.84974 94.60754,327.14801 -46.38584,47.5072 -84.10701,71.26128 -112.95798,71.26128 -11.41806,0 -22.12207,-8.25892 -32.21482,-24.67235 C 756.6679,676.54664 692.74667,612.72934 600.48482,548.19702 586.722,539.53154 579.68844,525.05425 579.3826,504.56295 c 0,-9.17521 1.32571,-19.47267 3.97633,-30.89071 l 17.02434,-87.06106 c -0.10195,-0.10195 -0.10113,-0.20469 -0.2031,-0.30664 l 0.2031,-1.22257 c -26.50617,-44.24491 -52.80772,-54.95095 -78.70222,-32.21681 -25.48669,22.4283 -44.55239,25.79255 -57.1938,10.19469 4.99539,-10.90831 7.03513,-18.75664 5.91372,-23.34425 -0.30584,-4.17981 -2.44713,-6.52619 -6.525,-6.73008 -8.66548,-0.61169 -19.26758,2.75297 -31.70509,10.09314 0.30584,-2.65062 0.2031,-5.09735 -0.30664,-7.13629 -1.32531,-9.68494 -10.19471,-13.55774 -26.50619,-11.5188 l -3.66969,-68.30443 c 6.3207,-21.40883 34.05151,-35.98846 83.29181,-43.53252 3.56814,-3.56814 4.89186,-6.21757 3.97434,-7.95066 1.01947,-4.99539 -8.25653,-5.81137 -27.83031,-2.44713 -25.79254,4.38372 -47.60923,13.55776 -65.24602,27.32058 -2.03894,-19.06405 1.12143,-31.29731 9.68496,-36.80243 8.86937,-5.70903 37.82275,-12.94608 87.06305,-21.7135 8.86937,7.54406 16.41227,3.16034 22.73296,-13.2531 6.3207,-16.41343 17.63724,-25.89531 34.05067,-28.34203 2.05168,-0.30584 4.00381,-0.42233 5.85796,-0.34846 z m -6.56283,4.01019 c -4.61516,0.25105 -9.53363,3.68443 -14.79027,10.20265 -7.54406,9.48105 -11.1134,22.12369 -10.39977,37.92544 0.20389,1.22336 0.30663,2.24164 0.30663,3.36305 0.81558,14.17061 4.48607,22.73536 11.11261,25.69182 -4.07786,6.11681 -5.81256,11.62156 -5.20088,16.41305 0,2.34478 0.50973,4.58721 1.5292,6.7281 3.16036,6.3207 9.17683,8.56354 17.94425,6.62655 8.76742,-1.93699 15.49594,-12.64104 19.87964,-32.21483 2.54868,-11.31609 3.77204,-21.40846 3.56815,-30.17588 0,-7.23822 -0.81717,-13.55975 -2.65221,-19.16682 -3.77204,-12.02972 -8.86779,-19.88045 -15.1885,-23.75442 -1.97522,-1.21062 -4.01105,-1.75283 -6.10885,-1.63871 z m 1.352,20.27189 c 2.27468,0.005 4.23397,1.43762 5.87787,4.30487 3.16035,5.30123 4.7915,11.62196 5.09734,18.86018 0,2.44673 -0.10234,4.89385 -0.40818,7.54447 -1.22337,11.41804 -3.4662,19.87925 -6.62655,25.58827 -2.34478,4.17982 -3.56894,4.07828 -3.87478,-0.10153 0,-1.32531 10e-4,-2.75257 0.20509,-4.58762 0.10194,-2.14088 0.10154,-3.97473 0.10154,-5.40199 0,-7.13627 -1.9362,-8.56353 -5.81018,-4.07787 -4.38371,5.09734 -7.23863,3.46499 -8.56394,-4.7927 -0.40779,-2.54867 -0.61248,-5.1981 -0.81637,-7.95067 -0.20389,-5.40317 0.10274,-11.21536 0.81637,-17.53606 5.54336,-7.90087 10.21062,-11.8583 14.00178,-11.84934 z m -44.38275,53.44447 -24.67036,17.02434 c -29.05483,1.22336 -49.64815,6.62736 -61.67787,16.10841 -12.02973,9.48105 -16.71929,23.75404 -14.27257,42.71615 h 0.2031 c 0.10195,0.61168 0.10314,1.12062 0.20509,1.7323 21.40883,3.77203 38.43359,0.30662 51.075,-10.39779 12.6414,-10.60247 22.12288,-24.87626 28.44358,-42.51305 l 26.50619,-15.19049 -1.01946,-1.42566 0.91593,-0.50974 z m 39.2396,14.86593 c 4.43947,0.043 6.94274,1.19071 7.55442,3.48452 -0.10194,0.50973 -0.20429,1.01907 -0.40818,1.63075 -1.93699,5.70902 -5.09615,7.54367 -9.47987,5.70863 -2.34478,-1.01947 -3.67009,-2.75297 -4.07788,-4.9958 0.10195,-1.63115 0.50855,-3.36266 1.32412,-5.50354 1.91151,-0.22938 3.60757,-0.33889 5.08739,-0.32456 z m -74.92102,15.81969 c -6.52459,9.37911 -14.47527,17.43254 -23.75243,24.05908 3.0584,-4.58762 4.07748,-8.15536 3.15995,-10.80598 -0.10194,-3.56814 -2.75337,-6.01487 -7.95265,-7.13628 9.48105,-2.95646 19.06408,-4.9954 28.54513,-6.11682 z m -47.50686,16.71969 c 0.10195,0.61168 0.20469,1.12102 0.30664,1.63076 1.42726,9.68494 6.72692,13.35504 15.69823,11.21416 -7.34016,4.58761 -15.08656,5.40318 -23.34425,2.54867 1.32531,-8.97132 3.77124,-14.06828 7.33938,-15.39359 z m 512.89446,501.47721 c 44.14301,0 71.97572,24.56767 83.29182,73.80797 l 0.9159,72.99557 v 263.9389 l -487.77103,22.2018 c -11.01026,3.772 -19.06407,-8.1558 -14.27257,-18.3505 251.17922,-206.20272 277.64319,-270.86151 306.71376,-324.26918 0,-11.21415 5.09775,-22.32678 15.19049,-33.54093 17.43292,-18.9621 49.44394,-37.82153 95.93163,-56.78363 z"
   style="stroke-width:1.01947" />

</svg>
