<?xml version="1.0" encoding="UTF-8" standalone="no"?>
<!-- Generator: Adobe Illustrator 19.0.0, SVG Export Plug-In . SVG Version: 6.00 Build 0)  -->

<svg
   version="1.1"
   id="Ebene_1"
   x="0px"
   y="0px"
   viewBox="0 0 1740.5142 1796.2263"
   xml:space="preserve"
   sodipodi:docname="US9A35XT.svg"
   inkscape:version="1.2.2 (732a01da63, 2022-12-09)"
   width="1740.514"
   height="1796.2263"
   xmlns:inkscape="http://www.inkscape.org/namespaces/inkscape"
   xmlns:sodipodi="http://sodipodi.sourceforge.net/DTD/sodipodi-0.dtd"
   xmlns="http://www.w3.org/2000/svg"
   xmlns:svg="http://www.w3.org/2000/svg"
   xmlns:rdf="http://www.w3.org/1999/02/22-rdf-syntax-ns#"
   xmlns:cc="http://creativecommons.org/ns#"
   xmlns:dc="http://purl.org/dc/elements/1.1/"><metadata
     id="metadata3737"><rdf:RDF><cc:Work
         rdf:about=""><dc:format>image/svg+xml</dc:format><dc:type
           rdf:resource="http://purl.org/dc/dcmitype/StillImage" /></cc:Work></rdf:RDF></metadata><defs
     id="defs3735"><sodipodi:namedview
       id="namedview3728"
       inkscape:window-x="-8"
       inkscape:pageopacity="0.0"
       inkscape:window-width="1920"
       inkscape:pageshadow="2"
       inkscape:window-y="-8"
       inkscape:window-height="1137"
       inkscape:current-layer="Ebene_1"
       pagecolor="#ffffff"
       borderopacity="1.0"
       bordercolor="#666666"
       inkscape:cy="898.11316"
       inkscape:cx="860.85959"
       inkscape:zoom="0.49659667"
       inkscape:showpageshadow="2"
       inkscape:pagecheckerboard="0"
       inkscape:deskcolor="#d1d1d1"
       showgrid="false"
       inkscape:window-maximized="1" /></defs><style
     type="text/css"
     id="style3725">
	.st0{fill:#010101;}
</style><sodipodi:namedview
     id="base"
     inkscape:window-x="-8"
     inkscape:pageopacity="0.0"
     inkscape:window-width="1920"
     inkscape:pageshadow="2"
     inkscape:window-y="-8"
     inkscape:window-height="1137"
     inkscape:current-layer="Ebene_1"
     pagecolor="#ffffff"
     borderopacity="1.0"
     bordercolor="#666666"
     inkscape:cy="898.8282"
     inkscape:cx="907.35367"
     inkscape:zoom="0.41053452"
     showgrid="false"
     inkscape:window-maximized="1"
     inkscape:showpageshadow="2"
     inkscape:pagecheckerboard="0"
     inkscape:deskcolor="#d1d1d1" /><path
     id="XMLID_5_"
     class="st0"
     d="M 1429.2656,0.05141961 C 1382.7958,1.364696 1340.0635,13.487315 1300.9684,36.41913 c -43.1361,22.931814 -63.9465,67.68448 -62.6332,134.35848 3.3337,18.18381 2.3235,36.06468 -3.0307,53.54135 -4.748,16.87053 -6.3643,34.04426 -5.0511,51.52092 4.0409,10.10212 11.4155,13.13278 22.2248,9.09193 10.8093,-4.74801 14.143,-1.31326 10.1021,10.10214 -2.7276,1.31328 -3.3337,3.73779 -2.0204,7.0715 1.3133,2.72758 4.0408,3.3337 8.0817,2.02043 -4.0409,10.10212 -2.7276,14.85014 4.0408,14.14299 6.0613,-0.70715 9.395,2.32352 10.1022,9.09193 0.7071,7.37454 4.748,15.15323 12.1226,23.23493 7.3745,7.37454 24.5482,5.35411 51.5209,-6.06129 l 36.3677,-19.19407 c 2.0204,6.06127 6.3643,13.13281 13.1328,21.2145 -57.1782,17.47667 -98.9004,49.80445 -125.166,96.77931 -52.127,8.5868 -233.2361,-8.7085 -289.39085,-0.57219 C 886.9244,396.81629 827.92279,312.08881 752.79304,273.24332 l 1.12268,-0.89183 c 1.83062,-17.23875 -4.52886,-35.05877 -18.92375,-53.20001 l -24.79169,-23.28425 -9.20242,-6.89985 -20.61666,-14.37187 c -9.5952,6.80253 5.28961,26.17879 12.34948,39.60553 -17.19637,-13.33454 -45.70105,-37.95414 -61.79669,-25.46253 l -14.04238,22.17933 c -2.04927,3.2142 -3.41704,6.68319 -4.13754,10.23039 L 591.65796,175.26832 0,447.32768 l 36.38349,79.12818 80.92763,-37.21219 255.52104,555.69083 -80.92565,37.2121 36.38546,79.1263 80.92566,-37.2103 255.52104,555.6909 -80.92565,37.2101 36.38546,79.1282 591.65602,-272.0593 -36.3835,-79.1283 -80.9257,37.2123 -255.52298,-555.69081 80.92565,-37.21218 -36.38349,-79.12819 -80.92565,37.21219 -49.08221,-106.73939 c 4.42637,-1.26717 8.87422,-2.64194 13.20973,-3.45485 138.50008,5.05105 228.91461,-5.15095 271.24255,-30.60831 -0.2021,-0.20204 -0.3031,-0.40526 -0.5052,-0.70833 90.111,-5.35413 304.3772,-61.62308 344.0786,-75.26095 v -0.10063 c 21.8206,48.28813 41.1169,113.24517 57.7855,194.97133 -35.6606,-1.31328 -51.824,10.10218 -48.4903,34.34728 3.3337,24.2451 17.1736,33.03399 41.4188,26.26557 l -68.6946,415.19797 c -40.4085,179.8177 -69.7048,291.2448 -87.8886,334.3809 -10.1022,34.3473 -26.8567,55.272 -50.5107,61.6231 -24.1365,6.4806 -62.9365,24.2451 -116.1747,54.5515 -29.5992,6.0613 -46.1668,14.143 -49.5005,24.2452 -2.7276,10.1021 4.344,16.1634 21.2145,18.1838 16.1634,2.0205 40.0397,-0.9954 71.7252,-8.0817 31.5565,-7.0573 70.715,-5.0511 117.1849,5.0511 47.1768,9.395 66.9772,-15.8606 59.6026,-75.7661 -2.7275,-37.681 19.1941,-91.2225 65.664,-160.624 46.4696,-69.4015 72.0282,-151.5324 76.7762,-246.4923 l 32.3269,-32.3268 103.0418,-2.0205 2.0205,49.5005 c 18.891,129.3072 28.9931,214.4685 30.3064,255.5842 8.7888,66.6739 0.7071,105.0623 -24.2452,115.1644 -25.5584,9.395 -63.9467,29.2962 -115.1644,59.6027 -30.3064,4.748 -47.48,12.1225 -51.5209,22.2247 -3.3337,10.1021 3.7378,16.4665 21.2145,19.194 16.8706,2.7276 41.1157,0 72.7354,-8.0817 31.6195,-7.3745 75.463,-5.3541 131.3279,6.0613 56.5718,11.4154 67.9872,-18.184 34.3472,-88.8988 2.0205,-63.3403 9.092,-129.0046 21.2145,-196.9918 12.1226,-67.9872 5.0511,-136.6822 -21.2145,-206.0837 l 20.2043,-27.2758 12.1226,-278.81904 c 2.0204,-80.10982 -25.9627,-169.71618 -83.8478,-268.71697 -2.7276,-36.36762 -7.0715,-100.31444 -13.1328,-191.94069 -5.3541,-92.23237 -30.3066,-158.90676 -74.7558,-200.0224 -44.4494,-41.72176 -68.9976,-66.97722 -73.7456,-75.76606 24.9522,-17.47667 41.4187,-40.40863 49.5005,-68.69456 8.7888,-28.99309 3.3337,-68.3916 -16.1635,-118.195055 -18.891,-49.19733 -51.8242,-73.0384818 -99.001,-71.72520539 z m -4.9485,34.22100439 c 36.3989,0 61.912,18.56276 76.6737,55.688056 16.1635,41.72176 16.4665,77.48348 1.0103,107.0827 -16.1635,29.59921 -35.0545,40.71161 -56.572,33.33706 -11.4155,-4.04085 -14.8502,-9.79909 -10.1022,-17.17364 9.395,-8.78884 10.8093,-20.2043 4.0409,-34.34728 6.7684,-21.51752 7.3745,-37.37794 2.0204,-47.48006 -7.3746,-20.20425 -20.2043,-26.56862 -38.3881,-19.19407 -8.7889,5.35411 -14.4461,11.11237 -17.1737,17.17364 -50.5107,-11.4154 -89.606,-10.10212 -117.1848,4.04085 3.3337,-26.97265 16.1634,-48.490311 38.3881,-64.653697 22.2247,-15.456247 55.8649,-26.568647 101.0214,-33.337068 5.6446,-0.757658 11.0662,-1.136491 16.266,-1.136491 z m -10.4001,93.381666 c 6.1797,-0.37883 10.2723,3.22008 12.318,10.79666 4.0409,11.4154 3.3337,25.55846 -2.0204,42.429 4.0408,12.8297 2.3235,19.49713 -5.0511,20.20428 -8.0817,1.31328 -12.8297,-1.71738 -14.143,-9.09193 -3.3337,7.37455 7.0715,26.26563 31.3166,56.572 23.538,31.01351 58.5925,68.99771 105.0623,114.1542 46.4697,45.7626 72.0283,173.45419 76.7763,382.87116 l -140.4198,70.71499 c -18.891,-124.55916 -62.6335,-231.33922 -131.3278,-320.23788 -16.8706,-18.89097 -21.2145,-36.67082 -13.1328,-53.54135 8.7889,-16.16339 37.681,-37.37799 86.8784,-63.6435 24.2451,-10.10212 27.5789,-22.22473 10.1022,-36.36771 -16.8706,-14.14297 -27.5789,-29.29625 -32.3269,-45.45963 -11.4154,0 -23.538,5.05109 -36.3677,15.15321 -25.5584,12.8297 -42.1259,17.88079 -49.5005,15.15321 -7.3746,-2.72758 -11.8195,-9.09195 -13.1328,-19.19407 l 15.1532,-15.15321 c 4.748,-4.04086 4.748,-7.77865 0,-11.11236 l -30.3064,7.0715 c 3.3337,-17.47666 -1.0102,-26.97271 -13.1328,-28.28599 -9.395,6.06126 -15.1532,5.35411 -17.1736,-2.02043 -2.7276,-8.78884 -0.3031,-21.5176 7.0715,-38.38814 4.0408,-16.16338 10.4052,-28.58908 19.194,-37.37792 8.7889,-8.0817 20.2043,-11.81951 34.3473,-11.11236 14.143,0.70715 27.983,0.30307 41.4188,-1.01021 l -2.0204,-11.11236 c -10.1022,1.31328 -21.9217,1.31328 -35.3575,0 -24.2452,-2.72758 -42.126,5.05111 -53.5414,23.23493 -1.3132,-10.10212 -1.3132,-17.17364 0,-21.2145 28.9932,-20.20424 67.6844,-23.23491 116.1747,-9.09193 v 13.13279 c 6.0612,1.31328 11.1123,1.31328 15.1532,0 0,-21.51752 3.7378,-33.64013 11.1123,-36.36771 2.5256,-1.01022 4.8163,-1.57846 6.8761,-1.70474 z m -63.4481,51.20523 -15.1532,4.04086 c -14.143,-2.72758 -26.2655,-2.72758 -36.3677,0 -10.1021,3.3337 -16.1634,7.0715 -18.1838,11.11235 -2.0205,4.04086 -5.3542,7.77865 -10.1022,11.11236 l 5.0511,6.06128 8.0817,-4.04085 c 14.8501,6.76842 33.034,1.71734 54.5516,-15.15322 l 15.1532,-2.02042 z m -722.58529,75.60822 47.0302,38.94849 10.58357,7.25696 c 8.31429,3.78844 17.25529,5.45208 26.72136,4.81628 l 1.2312,-0.97864 c 1.74789,0.58118 3.07584,1.31808 5.25626,1.72643 63.71905,73.55241 134.6829,152.90666 236.84788,207.13929 l 135.34102,16.24038 c 0,0 140.0653,22.71835 201.082,13.52542 -80.9179,24.34612 -214.57,72.53381 -259.0193,89.80843 -0.101,-0.20204 -0.3035,-0.30306 -0.4045,-0.5051 -0.3031,-0.10102 -35.86301,10.80929 -40.30793,12.12257 -33.64007,7.07148 -102.43474,19.09387 -206.38557,36.16645 -9.69804,-11.71846 -24.14495,-19.8002 -43.23796,-24.24514 L 712.73371,651.77766 547.1158,291.60672 Z m -138.31449,63.60205 178.91642,389.09425 c -0.0794,1.64473 -0.44925,3.54048 -0.41632,5.08856 0.302,3.80463 3.49687,7.98236 8.29086,12.03773 L 1037.8234,1510.3768 724.91153,1654.2632 176.65528,461.95408 Z M 1641.4106,791.0491 c 38.9941,68.69442 58.1883,129.61058 57.5822,182.84876 -0.7071,53.23804 -6.0613,138.70254 -16.1634,256.59434 l -256.5944,-2.0204 58.5924,-368.72814 z"
     style="stroke-width:1.01021" /></svg>
