<?xml version="1.0" encoding="UTF-8" standalone="no"?>
<svg
   width="1212.2898"
   height="1800.0238"
   version="1.1"
   id="svg115"
   xml:space="preserve"
   xmlns="http://www.w3.org/2000/svg"
   xmlns:svg="http://www.w3.org/2000/svg"><defs
     id="defs119" /><path
     id="path113"
     style="fill:#000000;stroke:none;stroke-width:127.713"
     d="M 71.781037,0.05776913 C 14.862981,0.87066783 11.715263,11.011998 11.921821,35.630267 12.247019,74.341602 38.486034,121.97591 49.26208,161.38377 H 28.282198 v 22.69048 c 7.451504,0 13.019415,6.53572 16.744571,19.42023 -3.725165,-2.3431 -6.263401,-1.03308 -7.505557,3.65216 -7.451504,-2.34313 -17.905964,-3.65216 -31.565872,-3.65216 -4.96484879,0 -6.82443479,4.10623 -5.58228739,12.30572 3.72516429,17.56995 13.00736139,26.34264 27.90914539,26.34264 h 5.582286 c 1.240966,7.02825 5.636889,19.34962 13.087842,36.91947 7.45033,17.56995 17.90355,29.32926 31.563586,35.18601 l -0.384196,25.38214 c -4.195118,-0.29611 -8.417534,-0.86407 -12.703645,-0.96278 l -40.996988,-1.7289 c -2.484198,15.22731 3.960455,25.67736 18.862228,31.53387 3.725165,56.22383 11.46829,113.77252 26.370071,113.77252 1.625772,-0.1279 3.177354,-0.23713 4.811605,-0.38418 l -1.154877,58.64488 c 0,8.1988 7.423169,12.11362 22.324572,12.11362 14.902368,0 22.518948,-3.91405 22.518948,-12.11362 l -1.15487,-64.79889 c 14.9941,-2.88461 30.23697,-6.24981 45.80859,-10.76895 150.14855,25.27792 209.68105,66.96961 286.77996,79.79857 h 0.19208 l 0.5763,-0.57631 0.1921,-0.19208 c 41.69382,3.06696 143.37632,2.01951 178.4182,-6.9224 24.66536,-10.21212 55.28101,-5.05406 73.74746,0.26985 3.30851,42.01173 28.50932,83.40154 46.35516,92.08828 24.35648,24.6988 38.29352,72.19759 41.89344,142.17565 -39.30513,17.6319 -87.22111,51.17208 -132.73538,53.78981 -9.6517,-2.70222 -19.50058,5.32665 -30.99186,4.09582 l -20.16805,-104.5015 -31.16795,10.54026 c 0,0 -35.80559,-84.66161 -97.39614,-105.87592 -47.61582,-16.4009 -87.70407,-5.64722 -118.25254,11.45729 -49.34111,27.62672 -56.50515,77.22103 -59.12511,135.44076 -2.1199,47.10658 20.59902,131.37913 47.20817,190.89768 12.04826,26.94887 74.56747,53.26861 108.85573,0.23558 39.26471,-60.74903 -12.6188,-182.19773 -9.39453,-218.62848 5.59082,-63.17073 88.45899,3.89457 88.45899,3.89458 l -29.10518,9.3968 53.39647,67.3762 c -6.55213,0.57511 -12.78672,0.97405 -19.70837,1.83409 0,14.58358 5.95221,23.23516 18.10526,25.66575 2.43065,51.04239 17.48967,81.85857 29.64261,79.42805 7.92536,-0.25783 13.79193,3.83452 21.87862,2.01931 l 6.91783,15.03404 c -7.2918,12.15273 -11.18863,33.03466 -3.89685,52.47949 14.58347,30.3794 40.27192,35.6189 69.43898,25.8966 30.38217,-14.5937 47.0563,-45.72221 33.6881,-79.75059 -8.50704,-18.22951 -28.66048,-22.25103 -44.45933,-25.8967 L 661.16161,902.346 c 12.55631,-7.95172 26.44937,-5.47471 39.36186,-16.86811 25.47661,-6.94816 45.90161,-10.52885 68.68887,-17.33917 -52.97454,115.52385 -73.50635,192.44518 -65.55584,260.81698 -28.55335,52.1206 -40.19201,102.0114 -34.8384,149.7887 8.92297,83.9724 -24.35997,206.3621 -99.31256,367.0679 -14.27665,36.1948 -35.08414,57.5148 -62.74527,64.0304 -27.66103,6.5154 -55.74806,17.0559 -84.30143,31.5339 -60.67585,0 -91.03861,6.5815 -91.03861,19.6123 7.13835,23.1651 25.86232,36.1391 56.2002,39.0349 l 313.14773,-2.3074 c 32.12253,-27.5085 33.94372,-67.9543 5.3902,-121.5229 64.24504,-107.1368 109.23718,-185.7898 135.11373,-235.7389 25.87693,-49.9487 34.32798,-113.0507 25.40501,-189.7841 l 40.22629,-76.1442 c 10.70745,36.1954 31.4445,79.0281 61.7825,128.2531 5.35359,30.4039 18.61908,52.8204 40.03411,67.2986 23.1995,56.4641 33.0176,148.3279 29.4484,275.7343 -8.9238,28.9559 -28.5585,48.2739 -58.89653,57.6843 -30.33796,9.4112 -60.50861,21.0948 -90.8465,35.5726 -51.75301,1.4474 -76.84702,8.0311 -75.06242,19.6145 10.70756,27.5082 30.34316,41.3401 58.89644,41.3401 h 278.30941 c 62.4604,-21.7173 68.6384,-63.8821 18.67,-126.1377 51.7531,-198.3483 48.3054,-334.8561 -10.5859,-410.1415 -28.5533,-41.9864 -42.0108,-89.8738 -40.2263,-143.4426 V 996.66162 c 7.1394,-49.22483 3.5008,-89.19569 -10.7758,-119.59948 -28.5533,-72.3899 -42.9225,-118.75054 -42.9226,-139.01972 0,-33.63065 29.3153,-61.43034 43.643,-102.74288 25.6299,-37.24242 57.7974,-92.07689 85.3831,-131.48675 10.83,-15.47204 17.2762,-45.10365 18.4665,-74.05619 0.878,-21.35334 -5.2643,-82.62746 -99.3742,-82.62744 h -42.5361 c -17.8459,0 -26.944,-14.49946 -26.944,-43.4554 0,-23.1648 11.6199,-33.34713 24.2501,-43.26328 98.8785,-77.63039 73.9837,-159.1084 43.1123,-182.285316 C 1062.58,41.976978 1019.4087,33.628837 970.61145,35.053969 963.64037,35.257574 956.74121,35.688658 949.82596,36.59305 894.50378,43.832059 842.68674,77.888038 794.50301,138.6956 v 28.07151 c -44.61471,39.09056 -65.28112,64.10988 -51.0044,68.45332 l 21.55617,9.80618 -7.89203,6.53819 c -8.09556,8.85679 0.32505,25.17223 0.38648,28.26591 l 10.3939,4.23074 v 23.84305 c 7.13854,11.58244 19.49212,18.16453 37.33797,19.61232 h 32.14216 v 21.7277 c -56.51971,0 -96.78575,10.12397 -125.10404,21.1514 -11.29983,4.40018 -25.03347,3.30547 -37.14816,15.18949 -55.87435,24.59811 -124.14763,22.95176 -214.60359,43.84188 -45.55475,-17.19617 -94.93289,-21.72889 -146.46811,-28.07381 -53.50632,-6.5872 -107.75741,-8.98369 -130.11002,-25.38213 -28.20994,-25.80244 -31.6968,-21.97574 -67.55688,-30.57108 l -0.5763,-31.15195 c 13.66004,-5.85675 24.45503,-17.61606 32.52637,-35.18601 8.07138,-17.56985 12.12506,-29.89153 12.12506,-36.91947 h 5.5823 c 14.90174,0 24.18362,-8.77228 27.90914,-26.34264 1.24176,-8.1988 -0.61605,-12.30572 -5.58229,-12.30572 -12.41816,0 -22.87328,1.30903 -31.56588,3.65216 -1.24213,-4.68514 -3.78025,-5.99516 -7.50554,-3.65216 3.72519,-12.88465 9.29365,-19.42024 16.74457,-19.42023 V 161.38377 H 146.26488 C 157.07821,135.70293 179.40799,86.212246 178.40704,40.053098 177.59702,2.6593939 183.31359,2.263787 99.495793,0.24986457 89.018556,-0.00186401 79.912178,-0.05838266 71.781037,0.05776913 Z M 69.85548,48.898772 h 51.58069 L 119.51289,158.50002 H 74.859184 Z m 891.51694,18.651836 c 15.39202,-0.362388 33.13186,0.841504 52.73788,3.84425 33.3173,5.102425 49.9395,16.921866 73.1391,41.534412 23.1996,24.6126 32.262,72.19604 -73.9098,153.63293 0,0 -20.1421,-19.55808 -20.78549,-19.03603 24.45169,-26.59005 32.65479,-50.42655 1.34696,-72.87389 -25.40685,-18.21649 -76.21729,-1.21636 -76.21729,7.4987 -17.84581,-23.1648 -46.38986,-37.66431 -85.65071,-43.45538 37.47625,-36.19503 67.19218,-57.754329 89.49952,-64.993278 11.15368,-3.61951 24.44784,-5.78977 39.83983,-6.151714 z m -132.2254,89.218232 c 10.37296,-0.54288 20.27123,1.42652 29.64031,5.76982 12.49205,5.79122 25.04021,15.90094 37.53236,30.37898 l -2.69623,8.84567 c -10.70762,-14.47803 -22.34411,-24.35117 -34.83613,-29.41849 -12.49215,-5.06696 -25.04036,-7.02543 -37.53235,-5.57771 l -2.69395,-8.45918 c 3.56918,-0.72418 7.12842,-1.35815 10.58599,-1.53909 z m 0.77069,16.15228 c 10.76016,0.27194 19.67556,2.57919 26.36778,6.92239 8.92289,5.79135 19.65005,15.23574 32.14218,28.26591 0,10.13452 3.25548,15.38158 10.39389,15.38158 0,0 54.06336,-57.57777 82.37587,-31.91806 28.31257,25.65969 -11.59667,37.7291 -24.63432,57.4923 13.98808,14.54287 57.31329,52.01418 55.04529,53.06946 4.1073,-3.02299 -0.766,19.22812 -0.766,19.22812 l 8.4683,47.49402 c 1.669,43.65135 -32.19019,57.17987 -76.05041,59.80205 -29.69753,-1.09936 -74.16435,-22.48592 -73.69486,-55.57131 0,-20.04138 -3.08044,-32.49664 -3.08044,-32.49664 0,0 -1.3478,-25.64476 -2.30974,-26.15052 -51.75269,-1.44791 -77.75639,-6.31071 -77.75639,-14.99739 V 273.2925 c -10.70759,0 -15.06451,-3.52761 -13.27992,-10.76665 -1.78464,-5.79129 3.48161,-10.18086 15.97388,-13.07641 2.89227,-9.93504 -8.43439,-14.47685 -22.71105,-24.61146 8.92297,-11.58235 27.33304,-25.42608 46.96346,-38.45626 0,15.92579 12.35382,24.70274 37.33798,26.15052 h 18.86222 v -6.53819 c -14.27664,-14.47793 -26.10751,-21.49079 -35.0305,-20.7672 -8.92277,0.72316 -14.1893,-0.1806 -15.9739,-3.07587 v -8.84567 c 4.01537,-0.36259 7.76986,-0.47384 11.35668,-0.38419 z m 276.96239,202.47392 h 12.5115 c 0,0 -12.5409,52.62711 -30.0084,76.64496 -68.5487,69.06684 -155.27929,225.67495 -157.62136,231.44649 -55.13189,24.56372 -101.73437,67.2893 -101.73437,67.2893 -3.76691,-51.2115 -12.89186,-88.30659 -27.44032,-111.37587 -19.63037,-31.12749 -33.97045,-44.14681 -39.60656,-52.5732 -11.93614,-17.84525 -19.60556,-65.91367 -27.53183,-90.07582 -1.06678,-23.39923 5.78387,-73.69533 5.82471,-100.11527 0.11053,-10.96773 45.12665,-14.31951 49.09257,-17.17221 5.46905,101.37086 93.81268,128.72545 150.6051,126.87638 56.79235,-1.84907 160.42776,-28.02765 165.90896,-130.94476 z M 446.88734,672.02461 c 23.41123,0.72519 51.12927,11.17326 82.27297,36.8966 -71.85836,-42.02153 -128.10041,-15.03669 -128.10673,33.22844 4.54339,69.00585 21.71029,188.66092 1.83409,191.81704 -28.91504,4.59129 -47.77798,-164.96729 -32.08499,-208.77428 10.17309,-28.3986 37.06581,-54.37702 76.08466,-53.1678 z m 591.13686,56.19105 c -0.066,0.76125 -0.3629,1.08676 -0.766,1.20977 0.3061,-0.49919 0.4552,-0.70196 0.766,-1.20977 z m -10.1812,16.07681 c 1.226,39.40537 10.3942,77.59526 28.8034,114.30998 21.4151,42.71002 30.0608,86.68624 25.5993,132.29174 -4.4608,45.60551 -6.7371,86.86681 -6.7371,123.06171 0,30.404 9.1006,78.7673 26.9464,145.3659 44.6146,46.3296 64.5105,108.288 60.049,185.7454 -4.4609,77.4573 -16.3606,154.391 -35.991,231.124 41.0455,47.7776 46.3138,80.3057 15.9762,97.6796 H 869.56543 l -16.16827,-12.8819 66.98057,-6.5382 144.35047,-54.4164 c 24.9842,-208.4832 9.9002,-334.2105 -45.4221,-377.6447 -62.4604,-118.7191 -97.89745,-226.8019 -106.82041,-323.80471 10e-6,-44.88141 -17.09732,-67.10632 -51.0044,-67.10632 -1.78453,-15.92627 -10.88503,-23.36806 -26.94636,-21.9198 l -15.9739,19.61233 V 900.90523 H 805.2811 c -1.78464,23.16479 -7.24533,38.33173 -16.16828,45.57074 -8.92298,11.58251 -13.27994,22.36214 -13.27994,32.49662 0,23.16451 10.7271,34.99621 32.14217,34.99621 32.12257,0 52.66755,-10.9712 61.59038,-32.68875 0,55.01635 7.08732,103.57165 21.36408,145.55795 l -61.59039,119.4074 c 8.92287,75.2853 -9.34637,153.0809 -54.85321,233.4338 -45.507,80.3527 -80.68132,145.8393 -105.66553,196.512 33.9072,49.2254 34.81659,81.7541 2.69396,97.6796 H 395.70685 l -13.28223,-10.7666 61.3983,-4.4227 136.65279,-49.8015 c 96.36759,-199.797 137.45752,-337.3555 123.18079,-412.641 -7.13822,-53.5684 4.30616,-99.0695 34.64402,-136.7124 -10.95682,-90.089 19.45469,-192.06873 87.09374,-303.904 73.40141,-23.64324 139.24433,-55.20483 179.22084,-77.23268 5.328,-6.50013 13.2509,-18.34972 23.2279,-34.09745 z m -190.41974,178.34041 10.7781,8.84569 c -5.35382,7.2391 -13.80508,17.15896 -25.40502,30.18915 -11.59988,13.02962 -21.8724,20.94774 -30.79519,23.84309 l -5.58229,-1.9233 c 1.78464,-10.13447 18.88175,-30.55073 51.0044,-60.95463 z m 13.27995,19.61466 h 10.77808 c 0,31.85183 -7.99667,47.92198 -24.05803,48.64665 -16.0612,0.72923 -25.16175,1.15485 -26.94636,1.15485 z" /></svg>
