<?xml version="1.0" encoding="UTF-8" standalone="no"?>
<svg
   xml:space="preserve"
   viewBox="0 0 1325.5039 1799.3584"
   y="0px"
   x="0px"
   id="Ebene_1"
   version="1.1"
   sodipodi:docname="US9A6VARA.svg"
   width="1325.5039"
   height="1799.3584"
   inkscape:version="1.2.2 (732a01da63, 2022-12-09)"
   xmlns:inkscape="http://www.inkscape.org/namespaces/inkscape"
   xmlns:sodipodi="http://sodipodi.sourceforge.net/DTD/sodipodi-0.dtd"
   xmlns="http://www.w3.org/2000/svg"
   xmlns:svg="http://www.w3.org/2000/svg"
   xmlns:rdf="http://www.w3.org/1999/02/22-rdf-syntax-ns#"
   xmlns:cc="http://creativecommons.org/ns#"
   xmlns:dc="http://purl.org/dc/elements/1.1/"><sodipodi:namedview
     id="namedview6249"
     pagecolor="#ffffff"
     bordercolor="#000000"
     borderopacity="0.25"
     inkscape:showpageshadow="2"
     inkscape:pageopacity="0.0"
     inkscape:pagecheckerboard="0"
     inkscape:deskcolor="#d1d1d1"
     showgrid="false"
     inkscape:zoom="0.49555556"
     inkscape:cx="896.97309"
     inkscape:cy="897.98206"
     inkscape:window-width="1920"
     inkscape:window-height="1137"
     inkscape:window-x="-8"
     inkscape:window-y="-8"
     inkscape:window-maximized="1"
     inkscape:current-layer="Ebene_1" /><metadata
     id="metadata96"><rdf:RDF><cc:Work
         rdf:about=""><dc:format>image/svg+xml</dc:format><dc:type
           rdf:resource="http://purl.org/dc/dcmitype/StillImage" /></cc:Work></rdf:RDF></metadata><defs
     id="defs94" /><style
     id="style82"
     type="text/css">
	.st0{fill:#010101;}
	.st1{fill:#020202;}
</style><path
     id="XMLID_16_"
     style="display:inline"
     class="st0"
     d="m 1156.414,0 c -30.363,0 -58.3176,7.3290751 -83.2363,22.091797 -24.4998,14.44862 -42.2995,30.677121 -53.293,48.685547 -0.4188,0.6282 -1.1518,1.046875 -1.8847,1.046875 h -55.17579 c -1.25639,0 -2.30391,1.046332 -2.19921,2.302734 l 1.46484,57.376947 c 0,1.25641 -1.04633,2.30274 -2.30273,2.30274 -20.62593,-0.6282 -36.7498,-9.10859 -48.16211,-25.23242 -11.93581,-16.856719 -29.94359,-25.337892 -53.91993,-25.337892 -23.97633,0 -41.98641,8.481101 -54.23632,25.861332 -11.93582,16.85672 -29.41951,26.9074 -52.24414,30.2578 -22.82463,3.24571 -42.19419,-1.67536 -58.00391,-14.65819 -15.70503,-13.08752 -35.07457,-16.64683 -58.00391,-10.57422 -22.82463,6.07261 -38.11079,19.05579 -45.7539,39.15821 -7.64312,20.10241 -22.09276,34.55011 -43.24219,43.24023 -21.25413,8.69011 -41.35669,8.69011 -60.41211,0 -18.95073,-8.69012 -38.84359,-7.01394 -59.57422,4.92187 -20.73063,11.93582 -32.14233,28.58181 -34.23633,49.83594 -2.09401,21.25413 -12.25133,38.84477 -30.25976,53.08399 -18.00843,14.13452 -37.06359,19.2653 -57.16602,15.49608 -20.10243,-3.7692 -38.63351,2.72141 -55.49023,19.57813 -16.85673,16.85672 -23.66173,35.91188 -20.41602,57.16602 3.24571,21.25412 -1.98978,41.14699 -15.49609,59.57421 -13.61102,18.42723 -30.67757,28.58456 -51.40821,30.25977 -20.73062,1.6752 -37.06419,12.77327 -49,33.50391 -11.93581,20.62593 -13.402286,40.83317 -4.08398,60.41211 9.31831,19.57892 9.31831,39.99585 0,61.25 -9.318306,21.25413 -23.766771,35.38742 -43.345699,42.40233 -19.578928,7.01492 -32.352405,22.09138 -38.320313,44.91602 -6.072609,22.82463 -2.09421,42.40507 11.41211,58.73829 13.506319,16.33322 19.056187,35.91169 16.333984,58.73632 C 52.035608,869.22111 42.194614,886.70677 25.33789,898.64257 8.4811664,910.57839 0,928.37648 0,951.7246 c 0,23.34814 8.6889024,41.35595 26.173828,53.92 17.484925,12.4593 26.175781,30.469 26.175781,53.9218 0,23.4528 -8.481166,40.8338 -25.337891,52.2461 -16.856724,11.4123 -25.3359367,29.1058 -25.3359367,53.0821 0,23.9763 8.6889017,42.1949 26.1738277,54.6543 17.380225,12.5639 26.175718,30.4679 26.699219,53.5019 0,23.3482 -8.690856,40.8319 -26.175782,52.2441 -17.484924,11.4124 -26.1738272,29.1077 -26.1738272,53.084 0,23.9763 9.0025232,42.1931 26.9062492,54.6524 18.008426,12.4593 26.908204,30.4691 26.908204,53.9218 0,23.4529 -8.688904,40.8318 -26.173829,52.2442 -17.484925,11.4123 -26.1757805,29.1076 -26.1757805,53.084 0,23.9763 9.0044765,42.195 26.9082025,54.6543 18.008426,12.4594 26.908203,30.467 26.908203,53.9199 0,23.4528 -8.690855,40.8338 -26.175781,52.2461 -16.647323,10.8888 -25.3374109,25.1275 -26.070312,42.5078 -0.1047002,1.2564 0.9435856,2.4082 2.3046875,2.4082 H 74.861328 c 1.151702,0 2.197265,-0.942 2.197265,-2.0937 0.628202,-17.485 9.108601,-31.83 25.232417,-42.7188 16.85672,-11.4123 25.65228,-28.8961 26.17578,-52.2441 0.5235,-23.3482 -7.85297,-41.3578 -25.33789,-53.9219 -17.484915,-12.4593 -26.173822,-30.6761 -26.173822,-54.6524 0,-23.9763 8.479216,-41.6717 25.335932,-53.0839 16.85672,-11.4124 25.33789,-28.898 25.33789,-52.2461 0,-23.3481 -8.6889,-41.356 -26.17383,-53.92 -17.484917,-12.4592 -26.175774,-30.678 -26.175774,-54.6543 0,-23.9763 8.481165,-41.6696 25.337884,-53.082 16.85673,-11.4123 25.33789,-28.8979 25.33789,-52.2461 0,-23.3481 -8.69085,-41.3559 -26.175776,-53.9199 -17.484926,-12.4594 -26.175779,-30.6779 -26.175779,-54.6543 0,-23.9763 8.481171,-41.6697 25.337889,-53.082 16.856726,-11.4123 25.337886,-28.898 25.337886,-52.2461 0,-23.3482 -8.69086,-41.3559 -26.175776,-53.9199 -17.484921,-12.45935 -26.173827,-30.46911 -26.173827,-53.92195 0,-23.45284 8.479213,-41.14621 25.335938,-53.08203 16.856715,-11.93582 26.385275,-26.17577 28.583985,-42.4043 2.09399,-16.33322 -3.56086,-32.98115 -17.17188,-49.83789 -13.611017,-16.85672 -17.484713,-36.74957 -11.412105,-59.57422 6.072595,-22.82462 18.741375,-37.9011 38.320305,-44.91601 19.57893,-7.0149 32.66679,-18.42661 39.15821,-34.23633 6.4914,-15.80971 5.23432,-33.19065 -4.08399,-52.24608 -9.31832,-18.95073 -7.85183,-39.15797 4.08399,-60.41211 11.93581,-21.25414 28.26937,-32.66584 49,-34.23633 20.73063,-1.6752 36.2257,-9.00428 46.48632,-22.0918 10.26061,-13.08753 13.61101,-30.25877 9.8418,-51.4082 -3.7692,-21.25413 2.72336,-40.30929 19.58008,-57.16602 16.85672,-16.85672 35.3878,-23.34928 55.49023,-19.58007 20.10243,3.7692 36.75038,0.52351 49.83789,-9.8418 13.08752,-10.26062 20.73023,-26.17478 22.82422,-47.32422 2.09401,-21.25413 13.6104,-37.90012 34.23633,-49.83594 20.73063,-11.93582 40.52075,-13.61198 59.57617,-4.92187 19.05543,8.69011 36.22473,10.05189 51.40625,4.08398 15.18153,-6.0726 26.59517,-19.26546 34.23828,-39.99609 7.64312,-20.73063 23.1382,-34.02819 46.48633,-39.9961 23.34813,-6.07261 42.92661,-2.0942 58.73633,11.41211 15.80972,13.61103 31.82889,19.26589 48.16211,17.17188 16.33322,-2.094 30.67817,-11.93499 43.24219,-29.41992 12.45932,-17.48493 30.67601,-26.17579 54.65234,-26.17579 23.97633,0 41.67168,8.48117 53.08399,25.3379 11.09821,16.22852 26.90804,25.23222 47.63867,26.80273 1.2564,0.1047 2.09375,1.04634 2.09375,2.30273 l -1.46485,52.66407 c 0,1.2564 0.94086,2.30468 2.19727,2.30468 h 55.28316 c 0.7329,0 1.464,0.41868 1.8828,1.04688 2.3034,3.45511 4.8177,6.90937 7.6446,10.25977 59.6791,88.05283 195.2661,90.14636 258.9238,13.50585 19.3696,-27.01264 30.0477,-69.9384 33.084,-97.99804 0.2094,-1.98931 0.7332,-21.04585 0.8379,-23.03516 v -0.10351 c 0,-0.1047 0.2094,3.87236 0,-0.21094 C 1316.9192,111.71387 1298.4922,69.415461 1262.58,41.669922 1226.6679,13.924382 1191.2792,0 1156.414,0 Z m 3.8731,35.806641 c 34.9698,0 65.4394,13.611945 91.5097,40.833984 26.175,27.222035 39.1563,59.365065 39.1563,96.324215 0,112.65737 -116.1116,167.83352 -207.4102,113.49414 -28.2689,-16.85672 -42.4043,-54.65265 -42.4043,-113.49414 0,-52.24538 14.1354,-88.157396 42.4043,-107.736324 28.2691,-19.578929 53.9196,-29.421875 76.7442,-29.421875 z M 984.39062,102.81445 h 26.17578 v 124.17578 h -26.17578 z m 174.50388,329.63477 c -12.2594,0.27344 -24.7899,1.26094 -37.5898,2.96094 -51.2,6.79998 -88.1001,46.39968 -110.5,118.59961 -13.59999,15.59999 -28.30042,37.60041 -43.90041,65.90039 -8.79999,19.49998 -9.29999,30.19921 -1.5,32.19921 7.79999,1.9 14.60001,5.29922 20.5,10.19922 -5.79999,3.89999 -8.29882,7.80117 -7.29883,11.70118 1,3.89999 3.89884,5.90039 8.79883,5.90039 3,0 1.99961,1.99843 -2.90039,5.89844 -4.79999,3.89999 -4.39999,7.6 1.5,11 5.9,3.4 8.80078,13.40002 8.80078,30 0,15.69998 9.30082,23 27.80072,22 37,-1.9 53.4,3.90157 49,17.60156 -4.4,13.69998 -22.5012,18.79844 -54.2011,15.39844 -31.79997,-3.4 -118.40054,19.30161 -259.9004,68.10156 C 726.30393,812.8102 679.90423,749.40928 618.40429,659.60937 598.90431,610.80943 582.70545,571.00856 570.10546,540.30859 557.50548,509.60863 522.80502,480.50896 466.20507,453.20898 c -13.59998,2.9 -21.40039,12.40002 -23.40039,28.5 -1.99999,16.09998 0.50079,23.20117 7.30078,21.20117 19.49998,4 37.09924,12.69845 52.69922,26.39844 15.69999,13.69999 29.80002,38.60121 42.5,74.70118 -27.29997,-13.69999 -45.79962,-31.20119 -55.59961,-52.70118 -9.79999,-21.49998 -19.50079,-28.79999 -29.30078,-22 14.69999,58.49994 54.69968,111.30161 120.09961,158.10157 18.59998,47.89995 36.60119,87.89963 54.20117,120.09961 -37.99996,-21.49999 -79.50043,-44.90081 -124.40039,-70.30079 -37.09996,-40.99996 -66.9008,-74.60003 -89.30078,-101 -22.39998,-26.29997 -66.79928,-42.39883 -133.19922,-48.29882 -12.59998,8.79998 -17.4996,20.99963 -14.59961,36.59961 2.9,15.59999 7.79962,21.89999 14.59961,19 20.49998,-2.9 41.00002,-0.70038 61.5,6.5996 20.49998,7.29999 42.50042,27.10082 65.90039,59.30079 -32.19996,-2.9 -56.60118,-13.10119 -73.20117,-30.70118 -16.59998,-17.49998 -28.79962,-20.89921 -36.59961,-10.19921 33.19997,50.79994 89.80086,87.39885 169.80078,109.79882 94.69991,109.29989 180.0993,163 256.19922,161 42.89996,-4.9 121.50129,-19.10002 235.70117,-42.5 -6.79999,78.09992 1.49847,156.40011 24.89844,235.00001 23.3999,78.5999 30.3,161.3013 20.5,248.2012 C 852.40407,1195.51 749.50542,1098.9094 703.60546,1090.1094 c -51.79994,8.8 -85.00157,26.8992 -99.60156,54.1992 -43.89995,98.5999 -148.09118,262.5006 -179.29115,491.9004 -11.69999,46.9 -34.10081,73.1996 -67.30078,79.0996 -33.19996,5.9 -79.59967,17.1012 -139.09961,33.7012 -55.59994,-1.9 -60.99956,14.6989 -16.09961,49.7988 h 316.30078 c 14.69999,-12.7 16.7996,-32.4988 6.59961,-59.2988 -10.29999,-26.9 -5.59959,-74.0009 13.90039,-141.3008 34.30167,-75.1273 123.53807,-139.571 134.79701,-193.6309 l -0.90625,193.6309 c -49.79995,40 -72.29921,78.5004 -67.69922,115.4004 l 42.5,76.0996 c 25.39998,22.4 124.9994,5.8011 298.69922,-49.7988 146.39981,-63.5 225.89961,-95.2012 238.59961,-95.2012 21.5,27.3 21.5,63.9008 0,109.8008 -35.2,11.7 -47.8996,24.3996 -38.0996,38.0996 22.3999,2 46.1,0.9996 71,-2.9004 24.8999,-3.9 43.7004,-35.9004 56.4004,-95.9004 12.6999,-59.9999 19.6992,-102.1996 21.1992,-126.5996 1.5,-24.4 -9.4985,-37.0996 -32.8985,-38.0996 21.4,-34.2 22.3985,-90.3005 2.8985,-168.4004 12.7,-110.2999 25.1008,-216.6993 37.3008,-319.1992 12.1999,-102.49998 2.3991,-172.49968 -29.3008,-210.09964 -31.7,-37.59996 -49.4985,-76.90044 -53.3985,-117.90039 25.3,-9.69999 49.2993,-28.29964 71.6993,-55.59961 22.4999,-27.29998 33.6992,-64.90122 33.6992,-112.70118 0,-47.79995 -21.1993,-79.80041 -63.6992,-95.90039 -31.8,-12.07499 -66.1321,-17.67969 -102.9102,-16.85937 z m -5.2324,24.75586 c 22.4619,-0.10938 47.8672,3.4922 76.2422,10.80469 45.3999,11.69999 68.0996,38.50004 68.0996,80.5 0,40.99995 -15.0985,76.10041 -45.3985,105.40039 -30.1999,29.29997 -50.2,37.59843 -60,24.89844 -8.8,-13.69999 -1.0015,-32.69964 23.3985,-57.09961 24.3999,-24.39998 30.5007,-48.29924 18.3008,-71.69922 -12.2,-23.49998 -38.8009,-25.40037 -79.8008,-5.90039 -13.6,-14.69999 -46.2997,-25.89923 -98.0996,-33.69922 9.7,-25.29997 29.7,-41.70001 60,-49 11.3625,-2.7375 23.7806,-4.13945 37.2578,-4.20508 z m -110.4571,75.0039 c 42,3 76.1001,14.20119 102.5,33.70118 -0.9,15.69998 5.5989,16.19998 19.7989,1.5 14.2,-14.69998 27.8,-19.10117 41,-13.20118 13.2,5.89999 14.9015,18.8008 5.1015,38.80079 -9.7,19.99998 -22.2008,36.59883 -37.3007,49.79882 -15.1,13.19999 -18.4993,26.60079 -10.1993,40.30078 8.3,13.6 13.8989,25.29962 16.7989,35.09961 4.8,52.69995 21.2,94.50121 49,125.20118 27.7999,30.79997 39.8003,76.19928 35.9004,136.19921 -3.9,60.00003 -14.0993,162.79943 -30.6993,308.19923 -41.9999,12.7 -102.0016,37.1012 -180.1015,73.2012 1.9,-77.0999 -6.0997,-154.4001 -23.5996,-231.5 -17.5,-77.0999 -24.5993,-144.9001 -21.1993,-203.50003 3.4,-58.59994 19.4989,-92.5008 48.2989,-101.80079 28.7999,-9.19998 43.7011,-28.49886 44.7011,-57.79882 1,-29.29998 -15.3,-42.00157 -49,-38.10156 -33.5999,3.89999 -47.6011,-6.79925 -41.7011,-32.19922 19.5,-10.79999 26.4,-18.79922 20.5,-24.19922 -5.8,-5.39999 -16.5993,-8.5 -32.1992,-9.5 0,-8.79999 -7.80042,-16.6004 -23.40041,-23.40039 15.59999,-34.09997 30.80041,-58.00118 45.40041,-71.70117 14.6999,-6.89999 29.8004,-6.59882 45.4003,0.70117 15.6,7.29999 31.1989,12.50039 46.7989,15.40039 v -10.20117 c -9.8,-0.9 -22.4997,-5.79962 -38.0996,-14.59961 -15.6,-8.79999 -31.6989,-10.30038 -48.2989,-4.40039 5.8,-8.79999 10.6996,-16.10001 14.5996,-22.00001 z m 149.7754,26.63477 c -2.1,0.18437 -4.4265,0.64023 -6.9765,1.36523 -10.2,2.9 -19.4989,10.7004 -27.7989,23.40039 -8.2999,12.69999 -10.4996,21.9008 -6.5996,27.80079 -8.8,3.89999 -13.9004,8.99845 -15.4004,15.39844 -1.4,6.29999 1.4989,10.90039 8.7989,13.90039 7.3,3 17.8,-1.89962 31.5,-14.59961 13.7,-12.69999 22.7015,-24.7004 27.1015,-35.90039 4.4,-11.19999 5.0993,-19.69962 2.1993,-25.59961 -2.25,-4.425 -6.5243,-6.31875 -12.8243,-5.76563 z m -143.7754,11.63477 c -6.9521,-0.41251 -13.3511,1.03008 -19.2011,4.33007 l -14.5996,11.70118 v 11.69921 l 7.4004,-1.40039 c 19.4999,9.79999 41.0004,9.79999 64.4003,0 l 23.4004,5.90039 v -13.19921 l -22,-1.5 c -14.6875,-11 -27.8135,-16.84375 -39.4004,-17.53125 z m 142.0743,2.88085 c 3.05,0.5 4.2254,2.94961 3.5254,7.34961 -1.5,8.79999 -5.3993,17.10041 -11.6993,24.90039 -6.3,7.79999 -12.4008,13.19961 -18.3007,16.09961 -5.9,2.9 -5.9,0.50116 0,-7.29882 5.8999,-7.79999 5.8999,-10.80079 0,-8.80079 -5.9,1.9 -7.0993,-0.79962 -3.6993,-8.0996 3.4,-7.39999 8.5985,-13.9008 15.3985,-19.80079 6.8,-3.4 11.7254,-4.84961 14.7754,-4.34961 z m -149.4746,4.44922 c -2.9,5.89999 -2.9,11.20157 0,16.10156 -4.9,-2 -9.2993,-3.90039 -13.1993,-5.90039 2,-3.9 6.3993,-7.30117 13.1993,-10.20117 z m 17.5,2.90039 20.5,11.70118 c -7.8,1.89999 -15.6004,2.89844 -23.4004,2.89844 5.9,-3.9 6.9003,-8.79962 2.9004,-14.59962 z m 89.4003,42.40039 c 6.8,3.9 8.3004,7.60039 4.4004,10.9004 -3.9,3.39999 -6.8007,3.19881 -8.8007,-0.70118 -1.9,-3.9 -0.4997,-7.29922 4.4003,-10.19922 z m -128.4296,13.01172 c -0.3391,-0.12344 -0.6954,-0.0625 -1.0704,0.1875 -1.5,1 -2.2011,3.00039 -2.2011,5.90039 0,3 -1.1992,4.90039 -3.6992,5.90039 -2.5,1 -5.4008,-0.50039 -8.8008,-4.40039 -3.4,-3.9 -5.59957,-5.90039 -6.59957,-5.90039 -3.00002,0 -4.90043,0.70118 -5.90043,2.20118 -1,1.39999 -1,3.0996 0,5.0996 3.9,-2 7.80083,-0.49959 11.8008,4.4004 3.8999,4.89999 8.2992,6.19921 13.1992,3.69921 4.9,-2.5 6.9004,-6.10001 5.9004,-11 -0.75,-3.67499 -1.6118,-5.71758 -2.6289,-6.08789 z m -19.5704,33.1875 c 4.9,0.5 10.7997,1.20118 17.5997,2.20118 6.7999,0.89999 9.8007,1.90039 8.8007,2.90039 h -33.70111 c -2.89999,0 -3.69921,-0.90039 -2.19922,-2.90039 1.4,-2 4.60002,-2.70118 9.49993,-2.20118 z m 25,8 c -2,2 -5.4011,4.1 -10.2011,6.5 -4.9,2.5 -9.2993,3.70118 -13.1992,3.70118 -2.89997,1 -5.09963,0.79882 -6.59963,-0.70118 -1.49999,-1.4 -0.70076,-3.09961 2.19926,-5.09961 z M 720.68945,1151.5157 c 29.96481,4.4296 113.10365,89.8946 249.41601,256.3945 -102.49989,44.8999 -187.40123,100.9989 -254.70117,168.2988 v -424.5 c 1.525,-0.425 3.2875,-0.4887 5.28516,-0.1933 z m 512.91595,180.1933 -5.9004,33.8008 c 20.5,70.2999 18.4996,126.4004 -5.9003,168.4004 -68.3,38.9999 -149.9994,63.6984 -245.19924,73.8984 -95.1999,10.2 -176.50084,45.6016 -243.80078,106.1016 38.09997,-92.6999 71.29964,-152.7016 99.59961,-180.1016 28.29997,-27.4 83.70127,-62.9985 166.20114,-106.8984 82.49997,-44 160.80007,-75.7012 234.99997,-95.2012 z"
     sodipodi:nodetypes="sccssccccsccccsccsscssscscssscsssscsssccsscssscsccssccscssscssscssscsscsssscscscsscccscsccscsccccsssccccscssscscssscccccssccccsscsscscccscscccsccccccscsccccccsccccscccccccccccccsssccssccscssssccscccssccsscscccsccsscsccccccsccsccsssccssscssccccccccsscssscccsccccccccccccsssssscccssssccscsccccccccccccccscscc" /></svg>
