<?xml version="1.0" encoding="UTF-8" standalone="no"?>
<svg
   width="1800"
   height="1797.7"
   version="1.1"
   id="svg252"
   sodipodi:docname="US9A4BVARA.svg"
   inkscape:version="1.2.2 (732a01da63, 2022-12-09)"
   xmlns:inkscape="http://www.inkscape.org/namespaces/inkscape"
   xmlns:sodipodi="http://sodipodi.sourceforge.net/DTD/sodipodi-0.dtd"
   xmlns="http://www.w3.org/2000/svg"
   xmlns:svg="http://www.w3.org/2000/svg">
  <defs
     id="defs256" />
  <sodipodi:namedview
     id="namedview254"
     pagecolor="#ffffff"
     bordercolor="#000000"
     borderopacity="0.25"
     inkscape:showpageshadow="2"
     inkscape:pageopacity="0.0"
     inkscape:pagecheckerboard="0"
     inkscape:deskcolor="#d1d1d1"
     showgrid="false"
     inkscape:zoom="0.31723122"
     inkscape:cx="1517.8204"
     inkscape:cy="810.13465"
     inkscape:window-width="1920"
     inkscape:window-height="1017"
     inkscape:window-x="1912"
     inkscape:window-y="-8"
     inkscape:window-maximized="1"
     inkscape:current-layer="svg252" />
  <path
     id="path250"
     style="fill:#000000;stroke:none;stroke-width:99.7647"
     d="M 581.30149,2.0703026 C 567.6188,1.6540234 553.36221,2.2543942 538.53196,3.8690719 419.88982,16.786425 347.65501,57.555942 321.82816,126.17955 c -25.82684,68.62365 -35.51262,111.81821 -29.05593,129.57959 -32.28354,100.10977 -32.28354,154.20175 0,162.27511 22.59851,-6.45866 37.93462,0.80693 46.00555,21.79767 8.0709,20.99072 19.36968,40.36631 33.89729,58.12773 14.52759,17.76139 32.28426,23.01062 53.26855,15.74458 20.98437,-7.26602 46.80989,-17.35964 77.47924,-30.27701 53.26793,30.67876 73.84974,61.35853 61.74337,92.03736 -12.10636,30.67882 -25.02011,58.53253 -38.74059,83.55995 -13.72051,25.02742 -33.49484,124.73326 -59.32172,299.118 -54.88205,82.34837 -133.97747,181.65327 -237.28492,297.90967 -56.49626,41.9817 -103.30634,76.6963 -140.432449,104.1454 -37.126113,27.4497 -66.181546,88.0014 -87.1658479,181.6525 9.6850459,19.3759 24.2117909,29.0648 43.5819489,29.0648 19.370162,0 28.248489,-5.6522 26.63428,-16.9548 0,-29.0642 6.455861,-57.7255 19.369323,-85.9824 12.913395,-28.2568 41.968815,-56.1107 87.165855,-83.5599 -16.14183,40.3667 -37.52919,69.836 -64.16308,88.4047 -26.633964,18.5687 -34.30203,35.1184 -23.002775,49.6503 72.638015,-30.6786 133.978735,-100.1097 184.018305,-208.2928 153.34695,-111.4124 248.58406,-209.1018 285.71017,-293.065 12.83961,-30.82436 24.95017,-66.99753 36.42804,-107.81113 -11.47787,52.90568 -23.58843,114.24853 -36.42804,185.31603 -54.88206,83.9631 -133.97748,183.266 -237.28492,297.9078 -56.49626,41.9814 -103.30828,76.6982 -140.43441,104.1474 -37.1261,27.4496 -66.18154,88.0013 -87.16584,181.6524 9.68505,19.3761 24.21179,29.0629 43.58194,29.0629 19.37019,0 28.2485,-5.6502 26.63429,-16.9529 0,-29.0641 6.4578,-57.7256 19.37127,-85.9823 12.9134,-28.257 41.96884,-56.1107 87.16584,-83.5599 -16.1418,40.3666 -37.53111,69.8359 -64.16502,88.4046 -26.63394,18.5688 -34.30008,35.1185 -23.00082,49.6503 72.63802,-30.6785 133.97685,-100.1096 184.01635,-208.2928 153.34703,-111.4125 248.58407,-209.1019 285.71018,-293.0649 22.59851,-51.6696 36.22687,-94.2426 94.33729,-252.48056 53.91379,17.15966 353.33552,283.66606 404.72572,400.48826 -169.6314,62.3166 -299.51843,125.297 -389.65031,188.939 -88.83819,55.7067 -122.64969,123.3506 -101.43469,202.9316 21.21509,82.2336 86.85061,110.0869 196.9039,83.56 168.3947,-34.4852 306.2921,-50.4011 413.6935,-47.7484 123.3128,15.9163 213.1463,28.5171 269.4989,37.8015 56.3526,9.2844 120.3291,14.59 191.9301,15.9162 l 59.6684,5.9673 c 0,-39.7903 -27.8448,-62.669 -83.5343,-68.6378 -55.6896,-5.9685 -83.5344,-23.5421 -83.5344,-52.7217 0,-29.1798 -11.2705,-56.7022 -33.8115,-82.566 -22.541,-25.8638 -63.6458,-13.5958 -123.3134,36.8056 64.9713,-115.3925 102.4678,-252.5762 45.7445,-389.9472 C 1435.3481,1041.7041 1305.7144,826.00076 1163.367,660.76484 1070.5517,559.84779 945.81736,449.11991 859.44473,444.90472 781.78951,441.11496 747.16533,429.33541 721.33846,408.34469 808.50407,359.90438 829.48862,277.15297 784.29168,160.08917 744.74429,57.658344 677.0803,4.9842562 581.30149,2.0703026 Z m -7.47147,45.1290384 c 81.38994,4.415086 136.20995,44.064352 164.45806,118.944839 32.28356,85.57773 25.82574,148.55073 -19.37127,188.91756 -33.89771,14.53204 -67.79607,4.84333 -101.69382,-29.06484 19.37017,-50.05484 25.82803,-84.77129 19.37127,-104.14737 -11.29926,-32.29346 -29.86334,-46.82466 -55.69021,-43.59532 -25.82685,3.22934 -42.77601,14.53157 -50.84691,33.90768 -19.37009,-19.37611 -79.9014,-27.44937 -181.5947,-24.22005 24.21273,-87.19233 87.16643,-134.01878 188.85967,-140.477458 12.71164,-0.807343 24.8808,-0.895767 36.50791,-0.265041 z m 12.52323,173.135939 c 4.43907,-0.20164 8.27207,3.93702 11.50042,12.41404 6.45669,16.95413 -1.61411,50.45797 -24.21263,100.51282 58.11049,95.26571 118.47967,155.90972 277.95036,171.07213 75.87818,7.21445 177.7982,88.61299 270.6133,197.60348 61.877,72.66036 313.042,469.00635 331.0066,555.45145 -90.64,-2.8606 -173.9579,8.9554 -255.9275,33.2763 -54.7605,-130.9739 -356.73315,-406.34118 -422.7703,-434.8365 22.5985,-51.66955 43.27311,-156.43844 8.56833,-189.53923 -34.70488,-33.10088 -59.72482,-41.98187 -75.05954,-26.64244 -15.3347,15.33939 -34.30155,49.6529 -56.90006,102.93715 -9.68505,-12.91742 -21.79135,-33.10069 -36.31894,-60.55012 -14.52762,-27.44947 -11.29972,-65.39487 9.68466,-113.83501 -9.68512,-37.13758 -29.05666,-71.85393 -58.11186,-104.14739 -29.05521,-32.29344 -75.86528,-32.29344 -140.43247,0 -14.52759,11.30273 -29.8638,1.61398 -46.00554,-29.06484 -14.52769,-41.98146 -33.08982,-59.74163 -55.68827,-53.28293 -24.2127,8.07337 -20.17724,-36.33181 12.10631,-133.21223 24.21273,-29.06411 89.58689,-25.83522 196.12268,9.68763 14.52759,1.61464 27.44133,-6.45863 38.74059,-24.22005 5.64962,-8.8807 10.69479,-13.42263 15.13386,-13.62426 z m -193.01718,31.73278 c -34.75847,1.85447 -52.13858,17.61675 -52.13858,47.2864 22.59844,25.83476 62.9546,12.91708 121.06508,-38.75247 -20.17724,-4.84404 -37.83367,-7.67007 -52.96658,-8.47742 -5.67484,-0.30274 -10.99443,-0.32147 -15.95992,-0.0565 z M 1394.3727,1313.0166 c 25.856,0.3315 50.2194,3.1506 73.0918,8.4559 19.8892,92.8444 1.9885,189.0051 -53.701,288.4813 -84.8603,18.5688 -177.0121,16.2461 -276.4581,-6.9651 -99.4457,-23.2111 -228.72719,9.6166 -387.84031,98.4821 42.43008,-102.1289 80.22095,-167.1191 113.36956,-194.9725 33.14861,-27.8533 119.3336,-70.9612 258.55765,-129.3205 104.418,-43.7695 195.4128,-65.1561 272.9804,-64.1612 z"
     sodipodi:nodetypes="sssccssscssccccscscsccccccccscscscccccccccsccssscscscsssscccsccsssscsscccsscscscccccsssccscsccscsssc" />
</svg>
