<?xml version="1.0" encoding="UTF-8" standalone="no"?>
<!-- Generator: Adobe Illustrator 25.2.3, SVG Export Plug-In . SVG Version: 6.00 Build 0)  -->

<svg
   version="1.1"
   id="Ebene_1"
   x="0px"
   y="0px"
   viewBox="0 0 1430 1800"
   xml:space="preserve"
   sodipodi:docname="US9A51BVARA.svg"
   width="1430"
   height="1800"
   inkscape:version="1.2.1 (9c6d41e410, 2022-07-14)"
   xmlns:inkscape="http://www.inkscape.org/namespaces/inkscape"
   xmlns:sodipodi="http://sodipodi.sourceforge.net/DTD/sodipodi-0.dtd"
   xmlns="http://www.w3.org/2000/svg"
   xmlns:svg="http://www.w3.org/2000/svg"><defs
   id="defs655" /><sodipodi:namedview
   id="namedview653"
   pagecolor="#ffffff"
   bordercolor="#000000"
   borderopacity="0.25"
   inkscape:showpageshadow="2"
   inkscape:pageopacity="0.0"
   inkscape:pagecheckerboard="0"
   inkscape:deskcolor="#d1d1d1"
   showgrid="false"
   inkscape:zoom="0.36440298"
   inkscape:cx="981.05675"
   inkscape:cy="900.10242"
   inkscape:window-width="1920"
   inkscape:window-height="1137"
   inkscape:window-x="-8"
   inkscape:window-y="-8"
   inkscape:window-maximized="1"
   inkscape:current-layer="Ebene_1" />

<path
   id="path611"
   d="m 928.7259,3.7494504 c -14.92522,-0.019004 -36.35921,0.4425297 -42.58344,5.2529922 -5.28447,4.2612284 -8.55069,15.1544014 -8.20974,22.2008864 -2.50252,19.9116 41.03189,13.849749 38.24548,25.089646 -1.03215,22.726598 -0.7646,45.685785 3.17631,68.149035 1.97736,9.31648 4.65018,20.21342 13.68609,25.17705 5.20916,2.6906 11.88565,1.59565 16.17667,-2.23018 -0.93825,2.21032 1.26121,-0.96759 4.82366,-6.58374 -1.83634,5.28858 -3.98676,10.65572 -5.51911,15.86779 -12.40329,16.12324 -26.04053,37.82772 -40.92049,65.10096 -6.2066,17.35662 -5.89857,27.28317 0.92472,29.75984 6.81326,2.47668 15.18851,6.19544 25.10517,11.15872 -9.91666,3.71999 -14.26318,7.12296 -13.01986,10.22626 1.24331,3.09336 6.82339,5.26076 16.74004,6.50407 1.24331,-1.24331 -1.5418,0.30827 -8.36509,4.64493 -6.8233,4.33668 -7.43918,8.05736 -1.85921,11.16067 5.57998,3.09336 8.3652,9.60919 8.3652,19.52582 -1.24331,14.87995 3.71901,24.17877 14.87896,27.89876 l 3.37824,0.30694 c -16.0841,43.02188 -51.11285,125.13808 -62.91736,147.56754 -13.10948,1.02447 -26.68625,6.32606 -32.83319,17.23734 -5.00308,8.87227 -4.01937,19.39693 2.69451,28.87593 5.40095,7.61901 13.12967,12.43163 22.36988,13.90372 1.97934,0.31828 4.01927,0.4779 6.09809,0.4779 11.94573,0 25.39369,-5.16271 38.53292,-14.90032 10.45377,-7.74832 26.04977,-37.79542 82.31705,-180.58718 l 1.3132,-3.33167 c 5.477,12.65319 1.3195,28.05359 -12.59234,46.23953 -40.91992,100.42967 -66.03532,183.50351 -75.32534,249.21993 -9.29003,65.71643 -11.4693,160.56625 -6.50601,284.55916 -81.82973,7.43998 -174.82821,21.70306 -278.97784,42.77957 l -39.06135,7.44049 c -3.71999,1.24331 -9.30007,2.47686 -16.74005,3.72018 L 371.95339,493.29379 c -21.07661,-55.78982 -49.59302,-45.87323 -85.54957,29.75984 L 1.833026,1010.331 l 31.620922,11.1607 29.759835,-55.79956 40.920507,14.87886 -22.321338,55.8015 29.759848,11.1586 22.32131,-53.94024 40.91858,13.02174 -16.74002,57.6586 31.6209,11.1607 150.64862,-570.97938 210.16049,492.85855 c -4.96328,1.2434 -14.87988,4.96413 -29.75983,11.16073 -57.03313,22.3198 -86.7931,71.2974 -89.26979,146.9304 -21.08655,111.5896 -37.20098,215.1224 -48.36095,310.5986 -11.15996,95.4663 -32.54474,158.3969 -64.16461,188.7735 -31.60994,30.3766 -80.8953,56.11 -147.85504,77.1864 -37.19984,9.9266 -55.18168,30.3856 -53.93836,61.3788 h 329.18819 c 37.19986,-3.72 57.66077,-14.5623 61.38075,-32.5456 3.72,-17.9833 0.93481,-37.8164 -8.36515,-59.5195 -9.29997,-21.7034 -14.56228,-44.9475 -15.8056,-69.7442 -1.23337,-24.7964 14.88108,-82.4567 48.36095,-172.9699 37.19984,-73.1563 57.96685,-134.2177 62.30351,-183.1942 4.33668,-48.9764 16.42263,-78.4285 36.26586,-88.3451 h 9.2996 v 606.3185 h 727.19759 v -656.5289 h 59.5196 V 852.25154 c 0,-45.88313 -29.7499,-68.81927 -89.2697,-68.81927 -59.5098,0 -89.2698,23.56385 -89.2698,70.68035 0,197.14938 -7.4394,295.71798 -22.3194,295.71798 v -0.01 h -53.6061 c 28.1534,-35.4065 46.6967,-96.0214 55.4672,-182.25991 V 926.64248 543.51204 h 35.3392 c 8.6733,-114.07623 13.3279,-218.84265 13.9446,-314.31896 0.6167,-95.46637 -25.7304,-152.816965 -79.0437,-172.033575 -53.3131,-19.216609 -101.0569,-23.861165 -143.2099,-13.944518 -42.1534,9.926592 -68.81039,26.039087 -79.97036,48.358997 -0.73714,1.474254 -1.25047,2.89246 -1.96603,4.361317 3.76594,-14.12469 6.89433,-28.421683 9.19086,-42.845703 2.10509,-12.378522 -5.29302,-23.74649 -12.74206,-32.959423 -7.07494,-8.559216 -17.01715,-15.3995524 -28.3669,-16.3456621 -2.72475,0.029949 -6.97628,-0.028643 -11.95141,-0.035024 z M 946.59079,60.07147 c 7.63972,0.155056 1.67848,8.336208 1.69399,12.980963 -1.01096,3.898458 -2.54698,11.936498 -3.40746,13.181048 -0.25822,-8.644312 -0.21027,-17.299325 0.19038,-25.938603 l 0.78488,-0.110724 z m 145.25961,8.413731 c 27.6654,-0.582805 57.0724,4.940772 88.2248,16.563237 41.5364,15.506572 62.3052,61.688802 62.3052,138.565172 0,76.8764 -3.7206,171.72621 -11.1606,284.55913 h -94.849 c -8.6833,-131.42289 -9.9169,-207.68308 -3.7204,-228.75967 18.6,-23.55329 28.2089,-48.97672 28.8255,-76.24999 0.6167,-27.28321 -6.1969,-44.02343 -20.4603,-50.22009 -14.2533,-6.19666 -30.0679,-6.19666 -47.4245,0 -4.9533,-22.31991 -36.5727,-34.09588 -94.84924,-35.3392 8.68334,-24.796591 30.68404,-40.293254 66.02384,-46.499866 8.8348,-1.551654 17.863,-2.424459 27.0847,-2.618723 z m -84.1411,74.859039 c 51.6685,1.89933 75.334,21.83718 70.9913,59.80912 h 18.601 c 0,-19.84324 4.9623,-29.75982 14.879,-29.75982 14.8798,0 22.3213,10.53435 22.3213,31.62091 0,21.08654 -10.5443,44.6385 -31.621,70.6784 -1.2334,50.83647 -1.8592,89.89747 -1.8493,117.16077 -19.8432,7.43998 -37.817,3.71927 -53.9404,-11.16066 1.2434,-6.19667 1.2434,-18.28067 0,-36.26392 -1.2433,-17.98325 -17.6657,-24.79691 -49.28574,-20.46025 -31.61976,4.34663 -44.32164,-5.88795 -38.12498,-30.68455 18.59994,-11.15995 25.10585,-19.21717 19.52588,-24.18048 -5.57999,-4.96329 -15.80459,-7.44044 -30.68454,-7.44044 0,-8.68329 -6.8236,-16.74049 -20.46025,-24.18047 13.6466,-32.2465 27.28384,-54.5549 40.92048,-66.95817 13.63665,-8.68328 27.58011,-9.30107 41.84335,-1.86108 14.2532,7.43996 29.4421,12.40421 45.5654,14.88087 v -9.30152 c -9.9266,0 -22.3204,-4.64455 -37.2003,-13.94451 -14.88,-9.29003 -30.37662,-10.84161 -46.4999,-4.64495 l 11.16067,-13.0198 c 8.52409,-0.465 16.47693,-0.56078 23.85803,-0.28945 z m -14.12334,29.49757 c -6.33557,-0.40739 -12.06137,1.01571 -17.17508,4.27193 l -13.01986,13.01981 v 9.2996 l 5.58129,-1.85915 c 18.59994,9.91664 39.05889,9.91664 61.37889,0 l 20.4603,5.57936 v -13.01981 h -20.4603 c -13.95,-10.84789 -26.2056,-16.61279 -36.76524,-17.29174 z m -6.0144,8.00187 c -3.72,4.9633 -3.72,9.9176 0,14.8809 -4.96332,-2.47668 -9.29987,-4.338 -13.01987,-5.5813 1.24331,-3.72001 5.57989,-6.82293 13.01987,-9.2996 z m 14.87884,1.84943 20.4604,13.01981 c -7.4399,1.24331 -14.2637,1.86108 -20.4604,1.86108 4.9633,-4.95334 4.9633,-9.9176 0,-14.88089 z m -57.64877,53.95003 c -1.24331,0 -2.47697,0.9258 -3.72029,2.78579 -1.2433,1.85999 -1.8591,4.02741 -1.8591,6.50409 3.71005,-2.47668 7.74673,-1.23314 12.0834,3.72022 4.33667,4.96328 8.68319,6.19689 13.01986,3.72022 4.33667,-2.47669 5.89012,-5.88764 4.64681,-10.22431 -1.24332,-4.33667 -2.47688,-6.50601 -3.72019,-6.50601 -1.24332,0 -1.8611,1.86132 -1.8611,5.58131 0,3.71997 -0.92382,5.88738 -2.78383,6.50407 -1.85997,0.61667 -4.6452,-1.2427 -8.36519,-5.57937 -3.71999,-4.33667 -6.19706,-6.50601 -7.44037,-6.50601 z m 4.6449,30.68454 c 4.33668,0.6167 9.60891,1.54248 15.80559,2.78579 6.19666,1.24331 8.6818,1.85915 7.43848,1.85915 l -29.75982,1.86107 c -3.71004,-1.23335 -4.64381,-2.78493 -2.78383,-4.64492 1.86001,-1.86001 4.96291,-2.47777 9.29958,-1.86109 z m 23.24407,10.22625 c -2.47667,1.24332 -6.19537,2.78471 -11.15867,4.65464 -4.96331,1.86 -8.68399,3.40162 -11.16067,4.64493 -3.71998,0 -5.88743,-0.61581 -6.50411,-1.85912 -0.62664,-1.24331 -0.31858,-2.47693 0.92473,-3.72025 z m 61.3711,132.04943 c 21.0866,22.31991 43.4068,29.75935 66.9602,22.3194 1.2432,7.43995 3.7184,36.57416 7.4384,87.41065 -54.5565,-3.72 -88.6527,-14.88014 -102.2994,-33.48006 z M 993.15076,528.633 c 26.04004,16.12325 56.72564,24.7963 92.06554,26.03961 35.3397,1.2433 61.6888,-2.47739 79.0455,-11.16067 h 27.8986 v 267.80939 c 4.9633,223.18907 -35.9567,336.02287 -122.7498,338.49947 H 636.06199 c -42.16316,4.9633 -66.34284,27.2836 -72.53949,66.9603 -11.15996,69.4362 -28.20821,132.6768 -51.1448,189.7098 -21.57393,53.6315 -42.86989,114.9419 -63.8868,183.9208 -2.65572,8.7131 -3.86833,17.803 -3.59978,26.9042 l 0.9247,31.3917 c 0.32825,11.1201 2.96345,22.0316 7.56867,32.157 19.78355,43.5555 10.00636,69.2779 -29.35187,77.1457 H 187.83248 l -1.85913,-1.8614 c 70.66978,-19.8431 124.30162,-44.0227 160.87485,-72.5393 36.57324,-28.5167 60.4451,-95.1581 71.60505,-199.9343 11.15995,-104.7663 27.90019,-212.9536 50.22009,-324.5431 2.47668,-64.4732 27.27241,-102.2903 74.38891,-113.4505 40.90989,-16.1232 93.2982,-30.3763 157.15463,-42.7795 63.85643,-12.4034 151.58451,-22.31996 263.17414,-29.75996 -9.91665,-194.66265 0,-342.83628 29.75974,-444.50924 z M 223.16391,701.60293 115.29301,948.96182 83.674029,937.80118 Z m 27.89875,11.15874 -68.80952,260.38057 -33.48007,-14.88083 z M 1335.3707,822.49171 c 33.4796,0 50.8358,10.54432 52.0792,31.62091 v 251.07908 h -35.3392 V 973.14224 h -37.2002 v 435.20786 h -299.4383 v 336.6403 H 691.85171 v -557.9595 h 557.95959 c 23.5631,2.4766 35.957,-9.927 37.2003,-37.2003 V 854.11262 c -1.2335,-21.07659 14.8791,-31.62091 48.3591,-31.62091 z m -284.5592,617.47939 h 264.099 v 18.5991 h -247.3591 v 286.4202 h -16.7399 z m 53.9305,52.0791 h 210.1685 v 252.9402 h -212.0296 z"
   style="stroke-width:0.994649" /></svg>
