<?xml version="1.0" encoding="UTF-8" standalone="no"?>
<!-- Generator: Adobe Illustrator 19.0.0, SVG Export Plug-In . SVG Version: 6.00 Build 0)  -->

<svg
   version="1.1"
   id="Ebene_1"
   x="0px"
   y="0px"
   viewBox="0 0 1280.806 1798.958"
   xml:space="preserve"
   width="1280.806"
   height="1798.958"
   xmlns="http://www.w3.org/2000/svg"
   xmlns:svg="http://www.w3.org/2000/svg"
   xmlns:rdf="http://www.w3.org/1999/02/22-rdf-syntax-ns#"
   xmlns:cc="http://creativecommons.org/ns#"
   xmlns:dc="http://purl.org/dc/elements/1.1/"><metadata
     id="metadata3723"><rdf:RDF><cc:Work
         rdf:about=""><dc:format>image/svg+xml</dc:format><dc:type
           rdf:resource="http://purl.org/dc/dcmitype/StillImage" /></cc:Work></rdf:RDF></metadata><defs
     id="defs3721" /><style
     type="text/css"
     id="style3709">
	.st0{fill:#010101;}
</style><path
     id="XMLID_10_"
     class="st0"
     d="m 1230.3754,0.00391598 c -7.6828,-0.11718726 -12.932,2.39610392 -15.707,7.49609372 -3.7,6.7999863 -2.5008,15.8000223 3.6992,27.0000003 11.2,21.099958 18,42.500825 20.5,64.300781 2.5,21.699959 -1.9,47.498889 -13,77.298829 -11.2,-14.89998 -15.8,-33.79887 -14,-56.79883 1.9,-22.999952 -3.9992,-33.801559 -17.6992,-32.601561 -13.7,58.399881 -8.7016,106.200471 14.8984,143.400391 -17.4,98.0998 -32.8996,177.60051 -46.5996,238.40039 -101.7998,-1.2 -161.1004,-8.10002 -177.90039,-20.5 -16.8,-12.39998 -46.8989,-19.2 -90.29881,-20.5 -42.19992,-1.2 -58.40037,-25.49971 -48.40039,-72.59961 22.39996,-7.49998 43.80082,-22.99965 64.30078,-46.59961 20.50002,-23.59996 31.39962,-56.50125 32.59962,-98.70117 1.2,-42.19992 -17.10048,-70.79924 -54.9004,-85.69922 -37.89992,-14.89996 -80.09932,-19.59998 -126.69922,-14 -46.5999,5.6 -80.40004,38.79973 -101.5,99.59961 -12.39998,14.89998 -26.10002,34.09926 -41,57.69922 -7.49998,16.09996 -7.49998,25.50039 0,27.90039 7.49998,2.5 12.99883,5.60078 16.79883,9.30078 -6.19998,3.7 -9.00039,7.09922 -8.40039,10.19922 0.6,3.1 5.9008,5.3 15.80078,6.5 2.5,-1.2 0.29998,10e-4 -6.5,3.70117 -6.79998,3.7 -7.80078,7.09922 -2.80078,10.19922 4.99998,3.1 7.5,12.10002 7.5,27 0,14.89998 5.6008,23.59961 16.80078,26.09961 11.19998,2.5 23.89924,2.19961 38.19922,-0.90039 14.29996,-3.1 20.50156,2.5008 18.60156,16.80078 -1.9,14.29998 -20.80086,20.79961 -56.80078,19.59961 -40.99992,-1.2 -63.09926,10.30084 -86.69922,41.30078 -23.59996,30.99994 -60.00123,77.7001 -92.20117,123 -16.11232,22.56774 -32.2849,47.76102 -48.17188,76.33594 -16.69361,-1.51333 -39.79069,-3.02658 -47.58984,-3.33008 -66.2984,2.73479 -128.63143,5.8853 -183.91016,13.37305 -38.72202,-9.39405 -75.22052,-13.30909 -109.539061,-11.83399 -27.0158,0.25442 -51.76038,9.96837 -74.279295,29.27735 -8.0537524,7.64531 -16.17180736,21.4738 -15.42968736,29.98437 7.79271196,11.3482 28.33606236,0.84744 35.42187236,-4.45898 8.0249,-6.13276 22.43012,-10.81442 43.17188,-14.13086 20.78553,-3.22656 46.694601,-0.26969 77.814451,9.04492 -13.59496,12.7384 -31.72557,18.67425 -54.25781,17.85742 -22.532231,-0.81683 -32.287831,4.045 -29.089851,14.72266 57.070211,12.58218 98.941161,7.42814 125.658211,-15.59375 43.55215,-4.93423 126.58653,8.75625 193.40625,14.4707 24.25902,9.33943 66.54834,2.48479 77.14885,0.35803 47.58706,-48.00661 93.62653,-130.77009 140.64607,-178.77795 16.86287,57.43362 40.99002,125.01631 48.20117,175.70117 7.09998,45.8999 10.1,89.29969 9,130.09961 -53.3999,150.19959 -91.3016,284.99939 -113.60156,404.19919 -19.89996,93.0998 -2.49871,146.5012 52.20117,160.2012 54.6999,13.7 122.90055,30.4994 199.90039,75.1992 28.39994,89.4998 19.39957,179.0996 -5.40039,192.0996 -24.79994,13 -70.30045,27.9012 -101.40039,34.7012 -30.99994,6.8 -52.2008,6.8004 -63.30078,17.4004 -11.19998,10.6 -13.29998,19.1996 -6.5,26.0996 6.79998,6.8 14.6008,12.0988 23.30078,15.7988 h 149 c 22.39996,-7.5 39.39924,-8.6992 51.19922,-3.6992 11.79998,5 26.70121,6.7996 44.70117,5.5996 17.99996,-1.2 27,-14.9 27,-41 -18.59996,-55.8998 -30.10074,-147.299 -7.80078,-195.7988 26.09999,22.4 74.89959,68.5986 60.59959,129.8984 -6.9,76.1998 -40.4992,30.5006 -48.1992,89.4004 1.43829,21.7468 22.4994,21.7996 58.6992,8.5996 38.49999,-14 57.70119,-62.9996 57.70119,-80.5996 0,-55.8998 5.2988,-92.5004 15.7988,-109.9004 10.6,-17.4 14.9,-37.2996 13,-59.5996 -1.9,-22.3 -26.3996,-23.0988 -73.5996,-26.7988 -27.29999,-2.5 -67.19959,-48.2016 -84.59959,-60.6016 8.69998,-42.1998 4.60074,-57.2986 -12.69922,-126.8984 3.3,-24.1 -5.70072,-48.2012 24.69922,-50.2012 v -266.2988 c 11.2,-70.79989 -1.20086,-137.20091 -37.30078,-199.30079 -1.2,-37.29992 4.70119,-85.99934 17.70117,-146.19922 12.99998,-60.19988 64.60001,-108.90039 77.00001,-108.90039 148.99959,8.69998 210.19979,6.80037 261.09959,-5.59961 16.1,-64.59986 24.4996,-98.80086 25.0996,-139.80078 0.6,-40.99992 -2.7992,-101.80016 -10.1992,-182.5 13.6,-39.89992 20.1,-77.40086 19.5,-112.80078 -0.6,-35.399932 -14.6004,-72.8993 -41.9004,-112.6992203 -3.1,-0.62499873 -5.9313,-0.9570313 -8.4922,-0.99609372 z M 781.018,129.67579 c 22.12496,-1.05 48.07467,2.62346 77.84961,11.02344 39.69992,11.19998 59.59961,34.80086 59.59961,70.80078 -1.2,35.99992 -15.49889,66.69926 -42.79883,92.19922 -27.29994,25.49994 -44.70119,32.00154 -52.20117,19.60156 -8.69998,-11.19998 -1.89996,-27.30043 20.5,-48.40039 22.39996,-21.09996 28.20115,-41.90043 17.70117,-62.40039 -10.59998,-20.49996 -33.20006,-22.69996 -68,-6.5 -12.39998,-13.69998 -41.60008,-24.19924 -87.5,-31.69922 9.89998,-22.39996 27.90006,-36.4 54,-42 6.52498,-1.4 13.47463,-2.275 20.84961,-2.625 z m -84.34961,63.125 c 35.99994,3.7 64.59926,13.69887 85.69922,29.79883 0,14.89996 6.49963,15.80076 19.59961,2.80078 12.99998,-12.99998 25.1008,-16.50115 36.30078,-10.20117 11.19998,6.19998 12.3992,17.70004 3.69922,34.5 -8.69998,16.79996 -20.20002,31.0008 -34.5,42.80078 -14.29998,11.79998 -17.6992,23.60041 -10.19922,35.40039 7.49998,11.79998 11.8,21.99924 13,30.69922 -4.99998,60.79988 14.89969,92.5 59.59961,95 44.69992,1.2 76.0996,8.40041 94.0996,21.40039 14.8,21.99996 5.7004,47.50004 -20.0996,69.5 -17.09996,13.79998 -35.29926,37.49932 -51.69922,84.69922 -14.68663,43.38533 -30.92642,132.59674 -37,183.90039 l -154.60156,31.70117 c -3.03384,-8.64152 -17.10155,-167.91002 -27.89844,-186.20117 l -60.80078,-180.5 c 18.59996,-22.39996 41.50016,-30.19922 118.5,-30.19922 l 13,-41 c -2.5,-34.79992 -17.69967,-49.99959 -45.59961,-45.59961 -27.89994,4.4 -39.39998,-4.0016 -34.5,-25.10156 18.59996,-9.89998 25.5,-17.09844 20.5,-21.39844 -4.99998,-4.29998 -14.90082,-7.80117 -29.80078,-10.20117 0.8,-4.1 -1.59883,-8.49961 -7.29883,-13.09961 3.7,-2.4 7.4,-1.39961 11,2.90039 3.7,4.3 7.49922,5.59922 11.19922,3.69922 3.7,-1.9 5.29922,-4.99883 4.69922,-9.29883 -0.6,-4.29998 -1.59883,-6.20156 -2.79883,-5.60156 -1.2,0.6 -1.90039,2.20117 -1.90039,4.70117 0,2.5 -0.90078,4.29961 -2.80078,5.59961 -1.9,1.2 -4.3,7.8e-4 -7.5,-3.69922 -3.2,-3.7 -5.3,-5.60156 -6.5,-5.60156 -2.5,0 -3.99922,0.60039 -4.69922,1.90039 -0.6,1.2 -0.90039,3.00039 -0.90039,5.40039 -2.9,-2.4 -6.59922,-4.80078 -11.19922,-7.30078 13.69998,-28.59994 27.30002,-49.00002 41,-61.5 13.69998,-6.2 27.00002,-5.89959 40,0.90039 12.99998,6.79998 26.40002,12.10078 40,15.80078 v -9.30078 c -8.69998,-1.2 -19.90002,-5.90002 -33.5,-14 -13.69998,-8.09998 -27.30002,-9.5992 -41,-4.69922 5,-7.49998 9.90041,-13.69961 14.90039,-18.59961 z m 128.59375,26.27149 c -1.9375,0.0344 -4.06953,0.27851 -6.39453,0.72851 -9.29998,1.9 -17.69963,8.70002 -25.09961,20.5 -7.49998,11.79998 -9.9,20.19963 -7.5,25.09961 -6.19998,2.5 -10.19961,6.49963 -12.09961,12.09961 -1.9,5.59998 0.60002,9.9 7.5,13 6.89998,3.1 16.49846,-1.20002 28.89844,-13 12.29998,-11.69998 20.7,-22.29963 25,-31.59961 4.29998,-9.29998 5.00039,-16.50039 1.90039,-21.40039 -2.325,-3.75 -6.39258,-5.53086 -12.20508,-5.42773 z m -127.2832,6.66796 c -5.55539,-0.0857 -10.88986,1.36876 -16.01172,4.35938 l -13,9.30078 v 9.29883 h 5.59961 c 17.39996,9.89998 36.60121,10.60037 57.70117,1.90039 l 20.5,5.59961 v -11.19922 l -20.5,-1.90039 c -12.27185,-11.41873 -23.68334,-17.19576 -34.28906,-17.35938 z m 124.24219,4.98243 c 4.06443,-0.18946 5.69726,2.05275 4.94726,6.67773 -1.2,7.49998 -4.70119,14.90041 -10.20117,22.40039 -5.6,7.49998 -11.19883,12.1 -16.79883,14 -5.59998,1.9 -5.59998,-0.3 0,-6.5 5.6,-6.19998 5.6,-8.7 0,-7.5 -5.59998,1.2 -6.50078,-1.20002 -2.80078,-7.5 3.7,-6.19998 8.70041,-12.40158 14.90039,-18.60156 4.2,-1.875 7.51446,-2.86289 9.95313,-2.97656 z m -129.1543,1.27734 c -3.7,4.9 -3.7,9.3 0,13 -6.2,-1.2 -10.6,-2.49922 -13,-3.69922 2.5,-2.5 6.8,-5.60078 13,-9.30078 z m 16.80078,3.59961 14.90039,9.30078 c -7.39998,1.3 -14.30002,1.90039 -20.5,1.90039 6.19998,-2.5 8.09961,-6.20119 5.59961,-11.20117 z m 76.40039,39.09961 c 4.9,3.79998 5.59881,6.90039 1.79883,9.40039 -3.7,2.5 -5.9,1.89959 -6.5,-1.90039 -0.6,-3.7 0.90117,-6.2 4.70117,-7.5 z m -132.20117,36.40039 c 4.99998,0.6 10.6008,1.60078 16.80078,2.80078 6.19998,1.2 8.70039,1.90039 7.40039,1.90039 h -29.80078 c -1.3,0 -1.90039,-1.00078 -1.90039,-2.80078 0,-1.9 2.5,-2.50039 7.5,-1.90039 z m 22.30078,8.30078 c -2.5,2.5 -5.89922,4.29961 -10.19922,5.59961 -4.39998,1.3 -8.40117,1.90039 -12.20117,1.90039 -1.2,1.2 -2.49922,1.2 -3.69922,0 -1.2,-1.2 -0.59961,-3.09961 1.90039,-5.59961 z m 188.09961,523.29883 c 26.09994,44.8999 36.00076,101.30168 29.80078,169.60157 V 1239.5 H 603.66839 c 17.39996,-99.2998 49.0001,-219.2002 95,-359.49999 z M 710.86761,1274.9004 h 60.5 c -3.7,31 10.99924,77.9996 19.69922,99.0996 -4.9,-4.9 -54.79885,-28.3008 -67.29883,-28.3008 -55.69988,0 -50.10031,-23.599 -12.90039,-70.7988 z" /></svg>
