<?xml version="1.0" encoding="UTF-8" standalone="no"?>
<svg
   xml:space="preserve"
   viewBox="0 0 1798.6095 1795.9255"
   y="0px"
   x="0px"
   id="Ebene_1"
   version="1.1"
   width="1798.6095"
   height="1795.9255"
   xmlns="http://www.w3.org/2000/svg"
   xmlns:svg="http://www.w3.org/2000/svg"
   xmlns:rdf="http://www.w3.org/1999/02/22-rdf-syntax-ns#"
   xmlns:cc="http://creativecommons.org/ns#"
   xmlns:dc="http://purl.org/dc/elements/1.1/"><metadata
     id="metadata4061"><rdf:RDF><cc:Work
         rdf:about=""><dc:format>image/svg+xml</dc:format><dc:type
           rdf:resource="http://purl.org/dc/dcmitype/StillImage" /></cc:Work></rdf:RDF></metadata><defs
     id="defs4059" /><style
     id="style4047"
     type="text/css">
	.st0{fill:#010101;}
</style><path
     id="XMLID_3_"
     style="display:inline;stroke-width:0.978232"
     class="st0"
     d="m 1270.558,0.17795136 c -16.1319,0.5101472 -32.322,2.11871194 -48.5712,4.82249444 -69.3108,8.7745402 -120.0521,60.6057022 -152.2221,155.5952142 -4.4082,25.60942 -14.9119,49.4832 -31.6066,71.72564 -16.6946,21.52824 -27.4801,45.50605 -32.451,71.72764 0,14.79429 8.628,22.54736 25.9791,23.26156 17.3512,0.71421 19.5088,7.04086 6.4719,19.18237 -5.5336,1.32639 -7.6911,4.38769 -6.4719,9.08104 0.5628,4.69336 2.7203,7.75465 6.4719,9.08104 -8.0659,9.38671 -8.0659,15.8134 0,19.18038 8.6287,4.08118 11.7242,10.81594 9.2856,20.20266 -1.782,10.10093 -0.2813,22.54816 4.6896,37.34245 4.9708,15.50849 29.7308,23.26356 74.281,23.26356 l 57.5875,-9.08104 c -2.4385,10.10093 -0.8441,22.14005 4.6895,36.32216 -111.4226,1.32638 -180.8281,27.54725 -208.02731,78.76608 C 887.24908,655.43776 798.43,745.32684 714.20652,840.31635 697.51189,802.56542 659.43411,751.04035 599.97121,685.74144 541.16484,621.05471 506.83721,573.61123 496.89547,543.30845 491.79858,526.87799 485.25581,510.65028 477.27831,494.62716 L 795.15182,148.82838 711.77201,58.123615 c -2.7369,3.147448 -157.34039,171.904625 -307.04002,335.123545 -11.97958,-12.72767 -24.74232,-25.34247 -38.76721,-37.77488 -14.81883,12.14152 -14.81883,31.62763 0,58.56342 l -33.10683,57.57501 C 166.64531,652.69245 5.6291865,827.73573 0,832.42699 l 83.37798,90.70475 303.31406,-329.96029 c 23.54688,15.82375 46.8338,31.29222 71.18709,48.18709 103.91939,200.69211 180.07714,309.15064 228.37902,325.2713 36.48434,6.12178 94.35262,-29.28297 173.60521,-106.00919 98.47961,-93.5611 142.74834,-123.86356 132.80652,-90.90802 0,43.77068 8.34662,81.11201 25.04122,112.12899 16.6947,30.91495 57.5884,171.71688 122.5849,422.19948 L 836.6961,1057.5379 c -45.76955,-45.0971 -86.00488,-67.64649 -120.7072,-67.64649 -97.1665,1.32638 -140.2159,45.09839 -129.05488,131.31339 l 51.96011,403.0171 c -73.6252,19.4876 -107.67146,79.7864 -102.13785,180.7957 -33.38925,7.4481 -64.0587,17.8543 -91.91435,31.3223 -27.19911,12.7537 -54.77311,17.7539 -82.62876,15.1012 -27.85564,-1.9386 -47.3644,12.8553 -58.52542,44.4845 H 1779.1004 c -30.2943,-64.5847 -73.625,-90.1934 -129.9928,-76.7255 -55.7113,13.4679 -93.5096,-13.163 -113.2993,-79.7884 -19.227,-66.0131 -51.7721,-80.1949 -97.5417,-42.4439 44.6441,-93.6631 45.8633,-191.9175 3.7516,-294.9673 1.8758,-111.7224 6.1905,-211.4055 13.0372,-298.9469 145.4683,49.8925 241.6976,74.7886 288.7802,74.7886 36.4844,-4.0812 54.7739,-21.2222 54.7739,-51.525 -32.1701,-136.0054 -106.4535,-287.92783 -222.8469,-455.56237 -23.4476,-51.21883 -83.8485,-79.17621 -181.015,-83.86956 -16.6947,-24.28304 -25.6974,-45.50564 -27.0105,-63.6669 40.2359,-10.10092 74.0008,-32.95441 101.2,-68.66476 27.8556,-35.71033 41.5486,-93.66409 40.8921,-173.75728 -0.6565,-79.48101 -32.5453,-131.312179 -95.666,-155.595211 C 1366.8227,6.9888464 1318.9538,-1.3524922 1270.558,0.17795136 Z m -7.9153,46.19631164 c 29.8351,-0.680529 64.8819,4.053298 105.0944,14.128715 63.7772,15.50849 95.9473,59.280492 96.6039,131.313352 0.6565,71.42068 -17.9143,123.65996 -55.7117,156.6155 -37.1409,33.66976 -68.0917,36.01684 -92.8523,7.04045 -11.161,-12.14152 -13.3186,-21.83555 -6.4719,-29.2837 17.9139,-6.12177 26.2624,-21.22179 25.0431,-45.50483 19.227,-25.50739 28.7928,-47.4446 28.7928,-65.60585 1.3131,-32.95555 -13.3182,-48.77017 -43.6124,-47.44379 -12.3803,1.42842 -22.884,5.71447 -31.6065,13.06059 -60.6823,-43.77067 -113.2993,-63.25877 -157.8496,-58.56541 17.9139,-34.281938 46.1445,-57.237455 84.5045,-68.664764 14.1389,-4.323502 30.1646,-6.681946 48.0657,-7.090263 z m -550.87069,63.375967 35.92236,39.07815 -51.67801,56.21793 -35.92236,-39.07815 z m 436.57859,46.52711 c 37.8442,1.26261 78.1155,19.57139 120.8134,54.92462 l -6.4719,20.20068 c 7.4095,4.79538 14.5364,6.12178 21.3831,4.08119 9.8479,-28.26219 21.0105,-42.44394 33.3908,-42.44394 14.9126,-1.93856 21.6644,6.1226 20.4451,24.28385 0,16.83487 -8.3466,35.60877 -25.0412,56.52482 0,21.52824 -5.5344,30.6081 -16.6954,27.24112 -11.0673,-2.65277 -15.7556,-9.38753 -13.8798,-20.20266 -7.4095,30.30277 -0.9391,68.76842 19.5072,115.19186 19.7897,47.13765 34.9837,83.15458 45.4882,108.04979 10.5983,24.89522 27.293,38.05666 50.1777,39.38305 22.9786,1.32638 49.3348,5.10189 78.9725,11.12163 29.6376,6.01974 37.7029,27.85493 24.1033,65.60585 -13.5996,37.75093 -42.1115,122.23165 -85.4425,253.54367 l -43.6124,-22.24326 c -30.2942,-66.62529 -82.9113,-123.25266 -157.8496,-169.67609 -14.2561,14.79427 -11.442,34.28237 8.3477,58.56541 l -33.3889,79.78837 c -4.4081,31.73119 6.7525,56.62528 33.3889,74.78654 37.1409,18.16126 78.0328,27.24311 122.583,27.24311 l 58.5255,51.52497 -16.6936,333.33008 -167.1351,40.4033 c -87.2248,-303.7419 -139.2773,-468.72381 -155.9719,-494.94539 -16.7885,-26.32362 -21.3846,-101.41839 -13.9752,-225.28225 -3.095,-42.44429 28.7937,-63.66491 95.666,-63.66491 69.4046,0 101.1996,-17.14101 95.666,-51.52497 l -13.0372,-41.42563 c -6.8467,-25.50739 -9.5659,-41.42285 -8.628,-47.23853 -13.5996,-3.97915 -32.8269,-2.95885 -57.5875,3.06089 -42.1118,4.08119 -66.8735,2.04019 -74.2829,-6.02014 -7.4095,-8.06034 -9.8465,-19.18079 -7.408,-33.3629 l 29.7308,-11.12163 c 6.8466,-4.08119 8.0659,-10.81595 3.7516,-20.20267 l -41.7366,-4.08118 c 9.8479,-22.95665 8.6286,-38.05667 -3.7517,-45.50483 -16.6946,1.32639 -25.0412,-3.36738 -25.0412,-14.18251 4.3144,-8.77454 12.9423,-24.89526 25.9791,-48.46408 13.0369,-23.67086 28.7936,-38.77088 47.3641,-45.50483 19.227,-6.73394 38.0792,-5.71365 56.6496,3.06089 18.5705,8.06033 36.2034,14.48902 52.898,19.18237 l 4.5942,-12.14193 c -15.4753,-4.08118 -31.6072,-10.81594 -48.3019,-20.20266 -32.1699,-18.16126 -60.0253,-18.16126 -83.5666,0 3.095,-12.14152 7.5035,-21.22138 13.0372,-27.24112 12.0754,-3.36698 24.4213,-4.84083 37.0361,-4.41995 z m -500.16722,22.54815 35.92054,39.07616 -224.96815,244.93491 c -9.30973,-14.80634 -19.82906,-29.44099 -31.68898,-43.88271 z m 498.58452,29.31558 c -15.4754,0 -25.6996,2.65318 -30.6705,8.06074 -4.3144,5.40758 -10.222,8.05875 -17.6314,8.05875 v 9.08104 l 13.0353,2.04059 c 16.7884,18.16126 43.0512,20.50795 78.879,7.14208 l 23.2588,7.04044 1.8759,-18.16207 -20.4452,-2.04059 c -19.7897,-12.14152 -35.9216,-19.18038 -48.3019,-21.22098 z M 324.2593,531.30602 c 3.95169,12.96182 11.61758,24.7321 23.1343,35.264 3.2656,2.14262 6.76427,4.63324 10.04397,6.79932 L 144.24815,805.2875 108.32763,766.20935 Z m 1205.0771,193.92009 c 24.1979,53.87161 71.562,132.33375 142.0921,235.38359 -26.6364,-19.48765 -91.9129,-40.09807 -195.9261,-61.62631 z M 96.508599,779.06469 132.43096,818.14284 83.37798,871.60677 47.364027,832.42699 Z M 709.51701,1110.0831 h 75.2208 l 341.67649,257.6249 -381.63255,125.1895 c 8.72247,-191.9175 -3.09474,-319.5561 -35.26474,-382.8144 z m 685.23059,242.4221 c 25.9798,108.4574 10.5047,202.7321 -46.5196,282.8253 -86.0055,55.8102 -190.2999,64.586 -312.8836,26.2229 -122.48985,-38.9754 -238.88293,-31.3243 -349.08625,23.2615 11.16102,-42.3422 102.13728,-111.7209 273.02281,-208.0368 z" /></svg>
