<?xml version="1.0" encoding="UTF-8" standalone="no"?>
<!-- Generator: Adobe Illustrator 19.0.0, SVG Export Plug-In . SVG Version: 6.00 Build 0)  -->

<svg
   version="1.1"
   id="Ebene_1"
   x="0px"
   y="0px"
   viewBox="0 0 857.14178 1798.3182"
   xml:space="preserve"
   width="857.14178"
   height="1798.3182"
   xmlns="http://www.w3.org/2000/svg"
   xmlns:svg="http://www.w3.org/2000/svg"><defs
   id="defs12">
		
		
	
	
	
</defs>
<style
   type="text/css"
   id="style2">
	.st0{fill:#010101;}
</style>
<path
   id="XMLID_36_"
   class="st0"
   d="M 468.24487,0.03218756 C 384.33849,-1.2915773 336.07142,38.216658 323.24108,118.45722 c 0,0.30548 -0.20445,0.50994 -0.30628,0.81542 -11.40475,13.84863 -24.03147,34.41718 -37.67644,61.80894 -8.04442,16.08884 -8.6546,25.55888 -1.73029,28.5119 6.10968,2.54571 11.40516,5.80421 15.68194,9.67368 0.81463,0.7128 0.71161,2.03617 -0.20484,2.64714 -4.37862,3.05484 -5.80342,6.11128 -4.27599,9.26795 1.42559,2.74937 3.36112,4.78593 5.90683,6.1097 0.91645,0.50914 1.22154,1.62766 0.61057,2.44229 -3.36033,4.88774 -2.95381,8.65698 1.22114,11.30452 4.58226,2.85119 6.92512,10.89483 6.92512,24.13249 0,13.23766 4.88816,20.67113 14.66366,22.40221 9.47001,1.62925 24.23394,2.03696 44.09043,0.91685 0.91645,0 1.73227,0.61097 1.73227,1.52743 l 1.52742,25.96619 c 0.10183,0.91646 -0.61097,1.73029 -1.52742,1.73029 -19.44917,1.32377 -46.53672,6.51662 -81.15829,15.37566 -35.63984,9.16453 -64.96523,39.61243 -87.87656,91.34111 0,0.10183 -0.10342,0.20286 -0.10342,0.20286 -27.59542,101.11533 -44.19306,178.09841 -49.99726,230.94721 v 0.10142 c -9.16453,43.68427 -9.16453,124.73889 0,243.06317 v 0.30628 c -4.58227,49.38664 -6.92313,88.4884 -6.92313,117.20387 0,27.3918 11.30137,57.1256 34.00904,89.0997 0.30549,0.4073 0.71399,0.714 1.22313,0.714 11.09927,1.0183 18.22606,-1.3246 21.68822,-6.9251 3.46216,-5.7024 2.34324,-12.0158 -3.35914,-18.8383 -0.10183,-0.1018 -0.10302,-0.2028 -0.20485,-0.2028 -10.28464,-18.3291 -16.29172,-36.1494 -18.0228,-53.3584 -1.62925,-16.598 2.23984,-35.8448 11.81168,-57.73777 0.50914,-1.22194 2.13919,-1.32258 2.85198,-0.30429 7.94259,11.20109 11.09809,25.35396 9.46884,42.56296 -1.62925,17.7181 2.85239,26.3735 13.44251,25.9662 0.7128,0 1.32377,-0.5083 1.52743,-1.2211 12.3212,-45.5173 10.48789,-82.78718 -5.49912,-111.80819 -16.08884,-29.3265 -17.81954,-73.31598 -5.19285,-131.96898 12.62669,-58.34751 14.35698,-108.14082 5.29428,-149.38121 -0.10183,-0.40731 0.001,-0.81582 0.20485,-1.22313 32.38134,-50.50675 54.98685,-112.41803 67.81719,-185.93794 0.30549,-1.62925 2.44348,-1.93473 3.15628,-0.50914 32.99232,67.30839 49.48812,181.25559 49.48812,341.83854 0,0.20365 4e-4,0.40691 -0.10142,0.61057 -10.99744,27.49359 -21.69021,54.88425 -31.87303,82.27601 l -74.02833,230.84577 c -41.03673,0 -81.97256,-0.1018 -123.00929,-0.1018 -17.208952,0 -37.268756,-3.3612 -53.561251,0.7119 -24.336925,6.1097 -28.612539,27.9018 -32.889325,50.7113 -2.342049,12.2194 -3.564385,24.6408 -4.480839,37.0639 -0.305484,4.3786 -0.917248,10.0814 0.712004,1.9351 -5.0914121,25.1516 -8.1458617,53.0525 -10.2842544,78.4077 l -3.05484674,37.4736 c -2.74936196,18.3291 1.12011054,38.5929 3.05484674,57.0238 2.7493621,24.8461 7.6375144,48.6739 10.5905334,61.6061 8.960873,38.6947 38.489897,94.0889 59.364662,143.6792 47.77568,92.0449 122.73599,207.3459 351.90472,209.0542 229.16873,1.7083 301.4694,-108.8182 356.00629,-208.6465 21.584,-47.552 37.21352,-97.8887 58.44981,-145.6143 4.70767,-10.962 6.53925,-21.2752 9.36738,-33.1952 5.70238,-24.3369 8.24768,-49.4893 7.2294,-74.6409 -0.52249,-16.5847 -3.99382,-32.1511 -8.04484,-48.5712 -9.16454,-35.3344 -19.55102,-67.4116 -24.94791,-103.5606 -3.36033,-22.7077 -4.78593,-54.1718 -30.54847,-62.318 -12.32121,-3.8695 -30.85395,-0.6106 -43.27699,-0.6106 -56.92188,-0.1018 -113.84324,-0.103 -170.76512,-0.2049 l 27.29078,-214.34834 c 0.7128,-0.10183 1.32377,-0.50835 1.52742,-1.22115 16.80166,-59.46762 12.21776,-112.21515 -13.85027,-158.24145 -0.10182,-0.30549 -0.20284,-0.61177 -0.20284,-0.81542 3.36033,-116.79686 14.25555,-204.46994 32.68646,-263.02111 0.50914,-1.62925 2.85241,-1.52782 3.25972,0.10142 14.96875,59.67128 37.98111,113.8444 68.93689,162.82373 0.20366,0.40731 0.30467,0.81383 0.20284,1.22114 -9.06271,42.46233 -7.02451,92.76597 6.21316,151.11348 13.23766,58.653 11.50496,102.64248 -5.19487,131.96898 -16.49618,29.12284 -18.63375,66.39285 -6.31254,111.80822 0.20366,0.7128 0.81422,1.2211 1.62885,1.2211 11.71024,0.5091 16.80247,-8.1463 15.07139,-25.9662 -1.62925,-17.1072 1.01747,-31.26087 7.83996,-42.36013 0.71279,-1.12011 2.34245,-1.01868 2.95342,0.10142 10.59014,21.89304 14.76591,41.13981 12.52569,57.73781 -2.34205,17.209 -8.04484,34.9254 -17.20938,53.3564 -0.10183,0.1018 -0.10305,0.2044 -0.20488,0.3063 -5.60055,6.8224 -6.71944,13.1358 -3.35911,18.8382 3.36033,5.6005 10.59055,7.4326 21.79165,5.2942 0.40731,-0.1018 0.81422,-0.3046 1.1197,-0.712 22.7077,-31.974 34.11246,-61.7079 34.11246,-89.0997 0,-27.59536 -2.85119,-66.0873 -8.6554,-115.37211 v -0.3043 c 10.28465,-119.44438 10.28465,-200.39758 0,-242.96174 V 662.2199 C 755.70595,609.37111 735.03482,532.28659 699.39494,431.17127 v -0.10142 c -13.84864,-51.72869 -44.29609,-82.1746 -91.44256,-91.33913 -45.82259,-8.96087 -76.98094,-14.66445 -93.4771,-17.0065 -0.81463,-0.10183 -1.426,-0.81423 -1.426,-1.62886 v -42.25871 c 0,-0.7128 0.40732,-1.22194 1.01829,-1.52742 65.98459,-27.69725 99.07765,-78.20335 99.07765,-151.41778 0,-55.190839 -12.01492,-84.720693 -34.82444,-97.347381 C 552.96555,14.491799 529.74868,4.6136491 500.42219,1.2533208 490.03572,0.03138316 478.42768,0.23583386 468.24487,0.03217736 Z m -3.9717,28.44825944 c 16.39432,1.005552 34.52018,4.085862 54.37667,9.228183 39.71301,10.386468 59.4681,40.831975 59.4681,91.44055 0,39.102 -13.23767,69.54949 -39.71301,91.44254 -26.47533,21.89305 -43.17679,26.47493 -49.99927,13.84824 -8.04442,-11.50658 -1.42557,-29.02027 19.85651,-52.64439 21.28207,-23.62413 26.47652,-46.33226 15.47908,-68.12348 -10.89561,-21.893052 -34.21392,-23.623734 -69.85377,-5.19284 -12.62669,-12.626696 -41.44532,-23.013195 -86.24969,-31.057613 9.16453,-24.133265 26.78204,-39.407927 52.64638,-45.72127 12.93217,-3.156672 27.59467,-4.225473 43.989,-3.21992 z M 357.65981,98.193006 c 36.75996,3.462164 66.69711,13.238484 89.71027,29.327324 -1.12011,16.08884 4.2764,17.20936 16.39395,3.46256 12.11755,-13.84863 24.1329,-17.82033 36.25045,-12.11796 12.11755,5.70237 13.54433,17.81956 4.27797,36.25045 -9.16453,18.43089 -20.36565,33.91 -33.60331,46.53669 -13.23766,12.62669 -16.08885,25.04816 -8.6554,37.06388 7.43345,12.11755 12.31963,23.31868 14.66168,33.60332 v 51.72953 c 1.12011,21.89305 12.62711,31.66937 34.52016,29.32732 50.60862,2.34205 83.3969,14.96758 98.36565,37.98074 -34.51967,125.35042 -51.72752,240.92568 -51.72752,346.7251 l -188.07793,46.53669 c 1.93474,-151.7239 -22.30043,-277.58424 -72.80718,-377.68128 25.25337,-25.25337 48.2674,-40.22215 69.04033,-44.80442 26.47531,0 39.71301,-15.27466 39.71301,-45.72127 0,-30.4466 -14.05233,-42.87007 -42.25871,-37.06587 -28.20639,5.70237 -41.13821,-5.70281 -38.79616,-34.52016 h 27.59505 v -12.11597 h -31.05761 l -1.73028,-13.85023 c 0,-5.19324 -2.64834,-9.87575 -7.9434,-14.15253 4.27679,-1.83291 8.04404,-0.91805 11.30254,2.95143 3.46216,4.07312 6.92551,4.88775 10.38767,2.5457 3.46216,-2.34205 5.19284,-5.49753 5.19284,-9.46883 0,-4.07313 -0.81462,-5.70198 -2.5457,-5.19284 -1.73108,0.61097 -2.54571,2.34165 -2.54571,5.19284 0,2.85119 -0.81463,4.58187 -2.54571,5.19284 -1.73108,0.61097 -4.07392,-0.81383 -6.92511,-4.27599 -2.85119,-3.46216 -4.88815,-5.19483 -6.00826,-5.19483 -3.46216,0 -5.49714,0.61216 -6.00628,1.73227 -0.50914,1.01829 -0.81542,3.05525 -0.81542,6.00827 -2.74936,-2.1384 -6.21073,-4.17536 -10.38568,-6.00827 12.62669,-31.05757 25.25222,-53.45943 37.98073,-67.30806 12.62669,-6.9243 25.86438,-6.9243 39.71301,0 13.84863,6.92431 26.98449,11.5062 39.71301,13.84825 v -8.6554 c -8.04442,0 -18.93927,-4.27799 -32.7879,-12.93338 -13.84862,-8.65539 -27.59665,-10.08019 -41.44527,-4.27599 5.70237,-8.04442 10.38806,-14.96955 13.85022,-20.671924 z m 130.21483,24.928024 c -2.12978,-0.0756 -4.53453,0.23667 -7.20753,0.93674 -8.65537,2.34205 -16.69905,9.47124 -24.13249,21.58878 -7.43344,12.11754 -9.47042,20.97544 -6.00826,26.77963 -8.04441,3.46216 -12.6263,8.04403 -13.84824,13.84824 -1.12011,5.70236 1.42521,10.38807 7.73854,13.85023 6.31333,3.2585 15.47752,-1.32498 27.59506,-13.95166 12.11753,-12.62668 20.1632,-23.82783 24.13448,-33.60331 4.07312,-9.77549 4.58147,-17.51488 1.73028,-23.31907 -1.96019,-3.92038 -5.3163,-5.96331 -10.00184,-6.12958 z m -127.42052,10.11123 c -5.41919,-0.10259 -10.49309,1.42201 -15.21854,4.57232 l -13.84824,12.11796 v 8.6554 h 6.92511 c 17.20893,9.16452 36.2493,9.16452 56.92039,0 l 20.67192,5.19284 V 153.3851 l -20.67192,-1.73228 C 382.4025,139.55757 370.79987,133.42809 360.45412,133.23226 Z m 124.11906,2.64316 c 3.50448,0.16131 5.093,2.49558 4.74933,7.02057 -0.61097,8.04441 -3.76645,15.7838 -9.46883,23.31906 -5.70236,7.43344 -11.50699,12.62591 -17.20937,15.4771 -5.90601,2.95302 -5.90563,0.71357 -0.10142,-6.8217 5.70238,-7.43344 5.70238,-10.38648 0,-8.6554 -5.70236,1.73108 -6.92471,-0.61178 -3.46255,-6.92511 3.46216,-6.31335 8.04405,-12.9322 13.84824,-19.8565 5.03413,-2.49479 8.9189,-3.6835 11.64461,-3.55802 z m -128.94993,3.66143 c -2.34205,4.58227 -2.34205,9.77434 0,15.57853 -5.70236,-1.12011 -9.77591,-2.85079 -12.11796,-5.19284 1.12011,-3.46216 5.19366,-6.92353 12.11796,-10.38569 z m 15.47709,3.46057 17.20937,10.38768 c -8.04441,2.24022 -14.86773,3.46255 -20.67192,3.46255 5.70236,-2.34205 6.92471,-6.92593 3.46255,-13.85023 z m 185.53021,635.20526 c 0.7128,-0.20366 1.42641,0.10142 1.83372,0.61057 21.18027,30.03929 24.9471,72.80843 11.40395,128.50841 l -38.28699,213.73584 c -83.80455,-0.1019 -167.71117,-0.1008 -251.51572,-0.2029 H 279.6578 L 348.901,891.02914 c 8.14624,-23.11498 13.44173,-38.39045 22.30077,-62.32006 0.20366,-0.50914 0.61058,-0.91646 1.11972,-1.01828 z M 108.89267,1167.2879 c 25.86434,0.5091 51.72956,1.0179 77.69573,1.1197 120.36083,0.8146 240.72164,1.5282 361.08249,2.3428 46.33174,0.3055 92.56226,0.6114 138.8941,0.9169 20.16199,0.1018 89.60762,-0.611 76.67543,11.7103 -11.2011,10.6919 -276.15814,5.8033 -285.62815,5.8033 -109.66889,-0.7127 -219.43914,-1.5266 -329.10803,-2.2394 -8.65538,-0.1018 -17.41223,-0.103 -26.06762,-0.2048 -6.21152,-0.1019 -50.406169,2.6487 -47.045837,-11.5054 1.934736,-8.0444 26.781237,-8.1471 33.501887,-7.9434 z m 628.66199,53.4101 c 15.42698,0.28 29.70839,2.9009 33.22146,12.2691 9.67368,26.1698 14.86692,57.3297 11.2011,84.9251 -6.10969,45.8227 -18.43009,105.6978 -47.04382,182.7817 -56.93197,151.2799 -123.40463,235.7648 -308.13057,236.9521 -184.72594,1.1873 -258.04487,-104.1076 -311.39276,-219.0307 -39.916624,-107.5306 -65.169657,-192.455 -53.052108,-238.8887 7.738934,-26.8826 9.468863,-54.0716 39.508158,-57.8392 15.37605,-1.9347 32.27997,0 47.75784,0 125.96139,0.1018 252.02418,0.2041 377.98557,0.4077 56.61647,0.1018 113.23388,0.1031 169.85027,0.2049 8.09534,0 24.66789,-2.062 40.09486,-1.782 z"
   style="stroke-width:1.01828" />
</svg>
