<?xml version="1.0" encoding="UTF-8" standalone="no"?>
<svg
   width="1050"
   height="1800"
   version="1.1"
   id="svg4"
   sodipodi:docname="US9A21VARA.svg"
   inkscape:version="1.2.1 (9c6d41e410, 2022-07-14)"
   xmlns:inkscape="http://www.inkscape.org/namespaces/inkscape"
   xmlns:sodipodi="http://sodipodi.sourceforge.net/DTD/sodipodi-0.dtd"
   xmlns="http://www.w3.org/2000/svg"
   xmlns:svg="http://www.w3.org/2000/svg">
  <defs
     id="defs8" />
  <sodipodi:namedview
     id="namedview6"
     pagecolor="#ffffff"
     bordercolor="#000000"
     borderopacity="0.25"
     inkscape:showpageshadow="2"
     inkscape:pageopacity="0.0"
     inkscape:pagecheckerboard="0"
     inkscape:deskcolor="#d1d1d1"
     showgrid="false"
     inkscape:zoom="0.36388287"
     inkscape:cx="475.42772"
     inkscape:cy="945.35916"
     inkscape:window-width="1920"
     inkscape:window-height="1017"
     inkscape:window-x="1912"
     inkscape:window-y="-8"
     inkscape:window-maximized="1"
     inkscape:current-layer="svg4" />
  <path
     style="fill:#000000;stroke:none;stroke-width:99.9876"
     d="M 848.77323,1218.3483 836.17385,951.15625 c 7.19962,-74.39699 -14.39954,-118.19523 -64.79747,-131.39472 l -109.79556,8.9997 c -7.37039,46.06499 -51.16026,86.42987 -69.65408,126.74096 -28.88713,62.96551 -165.22966,192.19401 -222.67358,272.84291 z M 803.77507,288.78303 c -14.39946,-5.99977 -22.79914,-16.79932 -25.19903,-32.39867 -2.39985,-15.59941 4.7999,-29.69884 21.59925,-42.29829 16.79927,-12.5995 30.29871,-28.19888 40.49833,-46.79814 10.19957,-18.59926 8.39964,-31.49873 -5.3998,-38.69841 -13.79951,-7.19968 -27.89893,-6.59972 -42.29828,1.79988 -14.39944,8.39967 -22.79911,6.59976 -25.199,-5.39975 -41.99832,-21.59911 -67.7973,-32.998661 -77.39695,-34.198654 -9.5996,-1.199926 -20.39915,6.599785 -32.39865,23.399134 22.79911,0 44.99822,5.99975 66.59732,17.99926 21.59917,11.99951 25.799,18.59923 12.59949,19.79916 -41.9983,-22.79903 -72.59708,-29.39875 -91.79635,-19.79916 l -43.19818,55.79769 c 22.79905,10.79959 28.79882,21.59917 17.99931,32.39875 14.39939,2.39992 24.59895,6.29976 30.59866,11.69952 5.99981,5.39975 5e-5,12.29947 -17.99928,20.69914 0,20.39919 14.39943,29.69882 43.19828,27.8989 28.79885,-1.79993 41.99832,27.29889 39.5984,87.29646 -79.1968,27.59893 -110.99549,49.79802 -95.39606,66.59729 25.19894,105.59574 37.79841,226.19088 37.79841,361.78541 l 138.59447,-23.39901 102.59585,-338.3864 c -10.79961,-29.99877 -34.79865,-47.39808 -71.99712,-52.19791 -37.19851,-4.79977 -44.9982,-35.99851 -23.39907,-93.5962 z M 636.38179,159.18829 c 8.3997,-15.59935 19.79925,-23.39902 34.19864,-23.39902 14.39945,0 32.99872,7.79967 55.79779,23.39902 l 28.79877,3.59987 v 7.19965 l -28.79877,-1.79988 c -15.59943,8.39967 -31.19881,12.89949 -46.79816,13.49948 -15.59936,0.59993 -29.99878,-6.89977 -43.19827,-22.49912 z m 30.59879,-12.59951 c -3.59984,-1.19992 -8.99964,1.79996 -16.19939,8.99964 4.79983,8.39967 12.59954,12.59951 23.39911,12.59951 -11.99952,-4.79984 -14.39943,-11.99956 -7.19972,-21.59915 z m 7.19972,21.59915 c 13.19945,1.19992 26.39892,-0.6 39.59843,-5.39977 -9.5996,-4.79983 -19.7992,-8.99966 -30.59879,-12.5995 8.39968,8.39967 5.3998,14.39942 -8.99964,17.99927 z m 102.59585,14.39938 c -3.59985,-7.19967 -1.19994,-16.79927 7.19971,-28.79878 8.3997,-11.99951 18.29928,-19.19922 29.69874,-21.59914 11.39955,-2.39991 18.59929,-0.59999 21.59922,5.39976 2.99985,5.99975 2.0999,14.69939 -2.69985,26.0989 -4.79985,11.39959 -14.6995,23.09914 -29.69893,35.09865 -14.99937,11.99951 -26.39888,16.19934 -34.19854,12.59951 -7.79966,-3.59985 -10.79953,-8.69964 -8.99961,-15.29939 1.7999,-6.59975 7.49965,-11.09958 17.09926,-13.49951 z m 26.99892,-34.19864 c -7.19969,5.99976 -12.89945,12.59951 -17.09929,19.79926 -4.19986,7.19967 -2.9999,9.89955 3.59987,8.09963 6.59976,-1.79991 6.59976,0.90001 0,8.09974 -6.59977,7.19968 -6.89969,9.59956 -0.89976,7.19965 5.99967,-2.39991 12.89935,-7.19971 20.69903,-14.39939 7.7997,-7.19975 12.29955,-14.99942 13.49954,-23.39903 1.19982,-8.39967 -5.39993,-10.19962 -19.79926,-5.39986 z M 782.17588,97.990743 c 51.59787,-7.199677 81.29666,1.799959 89.09637,26.998907 7.79973,25.19901 -3.29979,56.09778 -33.29855,92.69631 -29.99877,36.59853 -23.99901,40.49836 17.99928,11.69951 41.9983,-28.79885 62.69744,-63.59745 62.09742,-104.39582 -0.60006,-40.798367 -26.099,-68.997225 -76.49682,-84.596574 -50.39802,-15.59935 -86.99654,-14.999388 -109.79557,1.799886 -22.79911,16.79934 -5.99982,35.3986 50.39787,55.797781 z m -8.99961,95.396187 c -4.79981,1.19993 -6.29974,4.19981 -4.49977,8.99964 1.79992,4.79977 4.79981,5.69973 8.99967,2.69988 4.19979,-2.99991 2.69983,-6.89975 -4.4999,-11.69952 z M 98.203602,556.97222 V 1791.7223 H 47.805578 V 571.37162 C 27.406396,572.57163 12.407007,551.87244 2.8074125,509.27404 -6.7921825,466.67579 8.207206,445.37667 47.805578,445.37667 V 153.78853 h 50.398024 v 295.18811 c 10.799518,5.99967 26.398868,19.19914 46.798058,39.5984 57.59769,8.39959 128.39483,11.39943 212.3914,8.99951 L 569.78447,389.57898 c 40.79837,-19.19927 77.99687,-33.5987 111.59552,-43.19828 l 1.80005,-35.99854 c -26.39896,1.20002 -46.1982,0.30006 -59.39773,-2.69987 -13.19941,-2.99991 -20.39907,-10.49963 -21.599,-22.49914 -1.20003,-11.99951 -3.59996,-21.59911 -7.19978,-28.79879 -3.59982,-7.19974 -2.39986,-12.29953 3.59988,-15.29937 5.99978,-2.99991 5.39977,-4.49987 -1.80002,-4.49987 -8.39961,-7.19969 -8.99954,-16.19932 -1.79979,-26.9989 -16.79935,-2.39985 -22.79911,-11.99945 -17.99928,-28.79879 16.79937,-28.79885 35.3986,-53.99783 55.79769,-75.59694 39.59847,-63.597457 82.19676,-98.0960658 127.79488,-103.4958259 45.59818,-5.3998267 89.09645,2.0998506 130.49482,22.4990319 41.39828,20.399183 63.89733,49.498034 67.49715,87.296554 3.59987,37.79845 -4.79978,71.09711 -25.19893,99.89596 -20.39911,28.79879 -49.19795,52.79781 -86.39652,71.99706 -20.39915,41.99829 -22.79906,64.79735 -7.19972,68.39719 15.59932,3.59991 49.79791,16.19942 102.59578,37.79852 27.59901,19.19925 42.59841,46.19814 44.9982,80.99669 32.39873,80.39681 50.99803,157.19375 55.79783,230.39082 9.5996,46.79802 -5.3998,133.1945 -44.99824,259.18943 0,50.39798 -5.99974,86.99648 -17.99921,109.79558 -11.9995,22.7991 -23.09906,28.7988 -33.29868,17.9993 -10.19955,-10.7995 -19.79918,-22.4991 -28.79887,-35.0986 -8.99959,-12.5996 -11.39945,-29.3989 -7.19959,-50.398 4.19971,-20.99915 12.59935,-36.89848 25.19893,-47.69801 12.59949,-10.79957 21.29915,-22.79914 26.09896,-35.99869 L 976.56817,704.56627 C 947.76934,600.17048 929.17008,531.17324 920.77038,497.57455 c -32.39869,97.19609 -62.39748,191.99229 -89.99636,284.3886 22.79913,25.19892 37.49857,74.69688 44.0983,148.49387 6.59969,73.79708 16.49929,182.69278 29.6988,326.68688 0,19.1992 7.7997,50.098 23.39911,92.6963 15.59929,42.5983 20.39904,157.4936 14.39924,344.6859 25.19905,40.7985 22.19921,70.1973 -8.99954,88.1966 -49.19803,1.1999 -109.19559,4.7997 -179.9927,10.7995 h -55.79779 c 1.20003,-19.1993 11.39963,-30.5988 30.5988,-34.1985 95.99607,-32.3987 143.9941,-74.397 143.9941,-125.995 L 812.7749,1356.1399 c -15.59943,-27.5989 -20.39927,-58.7976 -14.39953,-93.5961 H 674.1804 c -28.79883,8.3996 -46.19813,54.5977 -52.19789,138.5942 -15.59936,61.1975 -61.19752,165.5934 -136.79448,313.1876 2.39992,40.7983 -4.1998,68.3971 -19.79917,82.7965 H 229.59822 c 2.39992,-19.1992 25.19902,-33.5986 68.39731,-43.1981 43.19819,-9.5996 79.79672,-30.5988 109.79559,-62.9976 29.99875,-32.3987 48.59797,-74.397 55.79766,-125.9949 21.5991,-88.7964 44.3982,-188.3924 68.39731,-298.788 l 6.6729,-14.3915 -253.37477,5.8856 277.3637,-309.20706 -48.59808,8.99961 88.13338,-107.06983 c -29.99876,-28.79885 -23.99899,-46.7981 17.99931,-53.99777 1.19986,-135.59453 -11.99965,-244.79012 -39.59853,-327.58677 -46.79807,43.19827 -119.39513,74.39701 -217.79118,93.59624 -19.19918,11.99947 -94.19612,6.5997 -224.99081,-16.19933 z"
     id="path2"
     sodipodi:nodetypes="ccccscccssssscscsccccscscccccsccsccccsccccccccccssssssscsssssscsscssssssccsscccccscccccccccssssccccsssscsccccsssssccccscscccccccccccccsscccccccccccc" />
</svg>
