<?xml version="1.0" encoding="UTF-8" standalone="no"?>
<svg
   width="1701.4893"
   height="1800.5756"
   version="1.1"
   id="svg4618"
   xmlns="http://www.w3.org/2000/svg"
   xmlns:svg="http://www.w3.org/2000/svg">
  <defs
     id="defs4622" />
  <path
     style="fill:#000000;stroke:none;stroke-width:93.2122"
     d="M 815.86035,1396.4485 477.53377,1149.5836 h -75.77101 c 31.71812,60.9544 43.46557,182.2534 35.24235,363.8973 z m 269.60395,-18.2863 -433.48089,118.8609 c -170.33803,91.4315 -260.79337,157.8718 -271.36604,199.3207 109.25129,-52.4207 224.66995,-60.3449 346.25598,-23.7722 121.58615,36.5725 225.25747,28.6484 311.01385,-23.7724 57.5625,-76.8024 73.4215,-167.0147 47.5771,-270.637 z M 941.91573,337.67235 c -4.69889,-8.53361 -1.76201,-21.33399 8.81066,-38.40113 10.57269,-17.06722 22.61389,-27.42948 36.12339,-31.08675 13.50962,-3.65724 22.02652,-1.52382 25.55082,6.40025 3.524,7.92405 2.6428,19.20059 -2.6435,33.82962 -5.2863,14.62902 -17.03382,30.78193 -35.24232,48.45868 -18.2086,17.67676 -32.01182,24.38172 -41.40979,20.11489 -9.39785,-4.26678 -13.21571,-10.66697 -11.45358,-19.20057 1.76207,-8.53361 8.51684,-15.2386 20.26432,-20.11499 z m 31.71805,-47.54436 c -8.2232,8.53361 -14.6843,17.98155 -19.3832,28.3438 -4.69891,10.36225 -3.23061,13.71473 4.4049,10.05745 7.6358,-3.65724 7.6358,2e-5 0,10.97176 -7.63587,10.9718 -7.63587,14.62906 0,10.97177 7.6358,-3.65722 15.859,-10.97173 24.6696,-21.94353 8.8106,-10.97174 14.0969,-22.24828 15.859,-33.82964 1.76232,-11.58135 -6.7546,-13.10521 -25.5507,-4.57161 z m -26.43174,-43.88707 c 52.86356,-26.81992 87.22476,-24.38176 103.08386,7.31449 15.8591,31.69624 7.9295,64.00202 -23.7886,96.91736 -31.71812,32.91533 -41.70342,58.51616 -29.95592,76.80247 11.74752,18.2863 37.29812,7.61928 76.65202,-32.00109 39.354,-39.62029 59.031,-87.46939 59.031,-143.54729 0,-56.07797 -29.6623,-92.04102 -88.987,-107.88914 -59.32452,-15.84812 -108.37012,-19.2006 -147.13672,-10.05745 -38.76659,9.14309 -64.61097,30.78185 -77.53314,64.91629 66.96045,10.97181 109.83861,26.81992 128.6345,47.54436 z m -8.81066,106.06049 c -7.04847,3.65729 -9.39791,7.92409 -7.04834,12.80041 2.34975,4.87632 6.46133,5.18112 12.33473,0.91442 5.87377,-4.26684 4.11177,-8.83842 -5.28602,-13.71474 z M 765.70397,317.55746 v -14.62905 l 19.38335,-16.45761 c 19.97064,-12.19089 45.22761,-6.09548 75.77092,18.28625 l 28.19392,3.65729 v 16.4576 l -29.95596,-7.31448 c -31.71812,13.40993 -59.91201,13.40993 -84.58167,0 z m 15.85909,-12.80041 c 4.69895,2.43819 10.57266,5.4859 17.62113,9.14313 -3.52427,-8.53361 -3.52427,-15.84813 0,-21.94355 -9.39791,3.6573 -15.27162,7.92411 -17.62113,12.80042 z m 37.00448,9.14313 c 9.39791,0 19.38323,-1.21906 29.95596,-3.65719 l -24.66966,-14.62906 c 4.69896,8.5336 2.93686,14.62902 -5.2863,18.28625 z m -82.81953,69.48798 c -1.17476,-3.65728 -1.17476,-6.40025 0,-8.2289 1.17469,-1.82864 2.93679,-2.74296 5.2863,-2.74296 2.34945,0 5.57999,2.74296 9.69163,8.2289 4.11164,5.48587 7.92959,7.61925 11.45385,6.40015 3.52421,-1.21909 5.28631,-3.96203 5.28631,-8.2288 0,-4.26684 0.88106,-7.00978 2.64319,-8.2288 1.76207,-1.21909 2.9368,1.52383 3.52418,8.2288 0.58743,6.70497 -2.05573,11.58132 -7.9295,14.62906 -5.87371,3.04768 -11.45374,1.21903 -16.74007,-5.48593 -5.28639,-6.70497 -9.69169,-8.2288 -13.21589,-4.57152 z m 42.29069,42.05844 -35.24226,5.48591 c -3.52426,3.65724 -4.69898,6.09541 -3.52417,7.3145 1.17469,1.21908 4.11152,1.82863 8.81047,1.82863 4.69902,-1.21909 10.27907,-3.3525 16.74016,-6.40024 6.46109,-3.04768 10.86635,-5.79061 13.2158,-8.2288 z m 1.76222,-3.65729 c 1.17476,-1.21909 -2.34947,-2.43816 -10.57269,-3.65719 -8.22322,-1.2191 -15.85906,-2.4382 -22.90753,-3.6573 -7.04846,-1.21909 -11.16007,-0.60955 -12.33483,1.82865 -1.17475,2.43813 -3e-5,4.26675 3.52418,5.48584 z M 934.86721,275.49903 c -34.06763,-25.60081 -78.70793,-40.22987 -133.92089,-43.88716 -4.69902,6.09548 -11.16011,15.84819 -19.38326,29.25811 21.14539,-8.53361 41.9971,-7.00977 62.55511,4.57152 20.55808,11.58134 37.29818,17.98157 50.22029,19.20066 v 14.62906 c -19.97064,-3.6573 -40.23497,-10.66706 -60.79298,-21.02931 -20.55802,-10.36219 -40.235,-10.66697 -59.03095,-0.91432 -18.79589,18.2863 -38.17918,50.59209 -58.14988,96.91736 19.9707,8.53359 29.95605,18.89585 29.95605,31.08676 19.97064,1.21902 33.77388,5.48583 41.40972,12.80041 7.63585,7.31451 -1.46844,18.28627 -27.31285,32.9153 -7.04847,34.13442 11.1601,48.76345 54.62571,43.88706 43.46554,-4.87631 65.19831,19.50542 65.19831,73.14518 0,43.88708 -31.71809,65.52586 -95.15427,64.91638 -63.43625,-0.60955 -93.97964,19.20057 -91.63019,59.43036 -7.04847,118.2514 21.26027,180.41354 38.29408,204.18565 17.03381,23.77218 91.74498,188.96955 177.50137,477.89295 l 165.63902,-38.4013 c 5.8737,-213.3399 -15.5014,-383.70721 29.139,-511.10168 44.6403,-127.3945 43.1718,-191.3965 -4.4055,-192.00598 -47.5771,-0.60955 -79.5888,-1.82864 -96.0353,-3.65728 -16.44652,-1.82864 -24.66972,-51.50643 -24.66972,-149.03334 -3.5242,-13.40992 -10.5726,-29.25804 -21.1453,-47.54435 -10.5727,-18.28625 -5.87373,-36.26775 14.0969,-53.94452 19.9707,-17.67676 36.12342,-39.92506 48.45822,-66.74492 12.3349,-26.81992 9.9854,-44.19191 -7.0485,-52.11596 -17.03372,-7.92407 -34.65492,-2.13343 -52.86342,17.37192 -18.2086,19.5054 -26.72552,18.89588 -25.55077,-1.82856 z M 1476.4896,629.6492 c 30.6372,-129.0095 13.7462,-133.62875 79.6096,-298.92326 13.0897,-19.11444 -3.3303,-55.4453 -12.7403,-81.20072 -9.4101,-25.75527 -6.1326,-49.71514 9.8324,-71.87963 15.9651,-22.16437 33.6238,-60.94305 52.9759,-116.336134 14.9875,3.27777 19.3043,18.74597 12.9508,46.404724 -6.3537,27.65865 -10.261,50.97916 -11.722,69.96145 18.5651,27.37528 33.6675,2.2033 45.3076,-75.51583 11.6399,-77.719274 27.9019,-111.0941429 48.7857,-100.1246534 -6.1533,46.6220494 -6.5425,88.4371394 -1.1673,125.4452134 5.3752,37.00821 -14.166,121.78393 -68.9527,204.30423 -41.4178,133.43421 18.3954,219.23348 -75.5843,442.32624 -78.7079,-8.5336 -217.5572,6.53794 -305.0757,-41.00635 -87.5185,-47.54443 -76.1941,62.33469 -93.8153,78.18282 v 1.82863 c -44.6403,135.31853 -22.0905,308.42857 -25.6147,519.33057 41.1161,97.527 39.3541,191.3966 -5.286,281.6089 46.9898,-37.7917 80.1764,-24.9913 99.5597,38.4012 19.3833,63.3925 56.6814,88.9933 111.8944,76.8024 55.213,-12.1909 98.6786,11.5813 130.3967,71.3165 H 0 c 8.223219,-29.2581 26.431757,-42.9727 54.62562,-41.1441 28.193916,1.8286 56.09412,-3.6573 83.7006,-16.4577 27.60648,-12.8004 58.44354,-21.6388 92.51117,-26.5151 -4.69902,-96.3076 29.36858,-154.2143 102.20279,-173.7198 l -51.10144,-382.1834 c -12.92217,-81.6788 29.36864,-123.1277 126.87245,-124.3468 34.06763,0 74.00898,21.3339 119.82403,64.002 l 304.84626,234.0646 C 767.69573,1096.5534 702.96991,953.90907 685.93616,924.04152 668.90235,894.17393 636.482,863.09849 635.30725,813.11593 c -17.62119,-17.06721 -12.77534,-58.94026 -44.05666,-58.19166 -99.3487,2.37755 -300.1875,6.4201 -380.07012,14.95377 C 118.37562,545.56611 174.31854,472.20796 132.28979,319.20412 95.748452,225.36277 84.61591,161.18746 98.892172,126.67819 113.16846,92.168971 122.20122,50.97399 125.99044,3.0933016 c 22.76121,-5.66475 31.15149,30.7064084 25.17082,109.1134784 -5.98071,78.40709 3.108,106.51933 27.26617,84.33673 2.80531,-18.81886 4.09611,-42.02694 3.8724,-69.62421 -0.22378,-27.597257 7.52103,-42.029929 23.23443,-43.298029 7.09948,59.579229 15.79673,101.804099 26.0916,126.674619 10.2949,24.8706 7.74556,48.86379 -7.64803,71.97958 -15.39351,23.11581 -18.8507,45.54175 -10.37154,67.27783 75.63822,226.39269 59.13026,174.74192 78.63159,274.03437 79.32706,-9.69038 250.7649,42.62282 356.49193,-7.35974 46.34948,-21.88121 73.50864,-39.00514 180.41043,-39.00514 l -8.81066,-58.51612 c -11.74742,2.43819 -29.95596,3.65728 -54.62561,3.65728 -23.49491,1.21903 -35.24236,-9.14322 -35.24236,-31.08676 0,-21.94353 -3.81792,-35.04869 -11.45376,-39.31546 -7.63584,-4.26683 -8.51691,-9.14318 -2.6432,-14.62905 5.87377,-5.48586 10.57276,-8.2288 14.09696,-8.2288 -12.92223,0 -19.9707,-2.43819 -21.14539,-7.31457 -1.17475,-4.87632 1.7621,-10.36219 8.81056,-16.4576 -7.04846,-6.09542 -15.56534,-10.667 -25.55063,-13.71475 -9.98535,-3.04774 -9.10431,-17.37203 2.64311,-42.97283 19.9707,-37.79167 38.17924,-67.65927 54.62561,-89.60279 29.36861,-96.30783 79.00162,-149.33809 148.89901,-159.090787 69.8973,-9.752638 132.15872,-3.657181 186.78442,18.286347 54.6256,21.94353 81.9384,65.22108 81.9384,129.83267 0,64.61157 -14.6843,115.20364 -44.0529,151.77619 -29.3687,36.57263 -59.912,61.56391 -91.6301,74.97383 l 1.7623,89.60279 c 44.2459,2.0611 91.3017,4.28213 124.6524,22.05139 90.5052,26.27986 246.9705,26.49686 318.2912,43.17543 z"
     id="path4616" />
</svg>
