<?xml version="1.0" encoding="UTF-8" standalone="no"?>
<!-- Generator: Adobe Illustrator 19.0.0, SVG Export Plug-In . SVG Version: 6.00 Build 0)  -->

<svg
   version="1.1"
   id="Ebene_1"
   x="0px"
   y="0px"
   viewBox="0 0 1579.5778 1794.3768"
   xml:space="preserve"
   sodipodi:docname="US9A1G.svg"
   width="1579.5778"
   height="1794.3768"
   inkscape:version="1.2.2 (732a01da63, 2022-12-09)"
   xmlns:inkscape="http://www.inkscape.org/namespaces/inkscape"
   xmlns:sodipodi="http://sodipodi.sourceforge.net/DTD/sodipodi-0.dtd"
   xmlns="http://www.w3.org/2000/svg"
   xmlns:svg="http://www.w3.org/2000/svg"><defs
   id="defs1366" /><sodipodi:namedview
   id="namedview1364"
   pagecolor="#ffffff"
   bordercolor="#000000"
   borderopacity="0.25"
   inkscape:showpageshadow="2"
   inkscape:pageopacity="0.0"
   inkscape:pagecheckerboard="0"
   inkscape:deskcolor="#d1d1d1"
   showgrid="false"
   inkscape:zoom="0.49555556"
   inkscape:cx="896.97309"
   inkscape:cy="883.8565"
   inkscape:window-width="1920"
   inkscape:window-height="1137"
   inkscape:window-x="-8"
   inkscape:window-y="-8"
   inkscape:window-maximized="1"
   inkscape:current-layer="Ebene_1" />
<style
   type="text/css"
   id="style1357">
	.st0{fill:#010101;}
</style>
<g
   id="XMLID_2_"
   transform="matrix(1.0770534,0,0,1.0770534,-292.66411,-66.807993)">
	<path
   id="XMLID_6_"
   style="display:inline"
   class="st0"
   d="M 1214.2486 62.189879 C 1198.2314 62.655504 1182.1496 64.125063 1165.9996 66.60006 C 1097.4996 74.600052 1047.1993 121.49925 1015.1993 207.49916 C 1014.9993 208.19916 1014.8009 208.89934 1014.6009 209.49934 C 1010.2009 232.49932 999.79931 253.90033 983.49933 273.90031 C 966.89935 293.60029 956.1991 315.40048 951.19911 339.30046 C 951.19911 352.80044 959.80013 359.90088 977.00012 360.50088 C 993.0001 361.10088 996.00026 366.20051 985.90027 375.80051 C 984.40027 376.7005 982.89942 377.60039 981.39942 378.60039 C 977.39942 380.00039 976.00012 382.60008 977.00012 386.30007 C 977.20012 387.80007 977.60059 389.20043 978.20059 390.30042 C 978.20059 394.30042 978.30032 397.69944 978.30032 401.69944 C 976.10032 406.49943 977.7996 409.99927 983.39959 412.09927 C 991.79958 415.69926 994.90024 421.69931 992.80024 429.9993 C 992.70024 430.2993 992.60077 430.7003 992.60077 431.0003 C 990.90077 440.10029 992.49928 451.30074 997.29928 464.60072 C 1002.1993 478.60071 1026.3999 485.69933 1070.0999 485.79933 C 1070.6999 485.79933 1071.3003 485.79959 1072.0003 485.69959 L 1128.1993 477.49941 C 1126.6993 482.99941 1126.6996 489.19943 1128.0996 496.09942 C 1122.9996 502.39942 1121.2003 504.79985 1116.1003 511.09984 C 1015.3004 514.49984 951.99907 538.3003 926.3991 582.60026 C 837.99919 656.40018 753.80012 734.29975 673.8002 816.39967 C 668.00021 822.29966 658.19972 821.10054 653.99972 814.00055 C 634.69974 781.30058 599.49988 739.1995 548.49993 687.59955 C 490.09999 628.59961 456.00078 585.30048 446.20079 557.70051 C 427.00081 500.60056 387.00076 446.19967 326.30082 394.69972 C 317.60083 397.29972 314.79957 398.10026 306.09958 400.70025 C 303.39958 410.80024 306.69945 423.49921 315.79944 438.99919 C 316.09944 439.39919 316.09944 439.99913 315.79944 440.39913 C 311.89944 446.69913 281.69953 495.0009 275.79954 504.50089 C 275.09954 505.60089 274.59986 506.70075 274.29986 508.00075 C 267.19986 535.70072 274.79998 559.20071 296.99996 578.30069 C 297.49996 578.80069 298.09911 579.19935 298.69911 579.49935 C 333.19907 600.29933 368.59917 622.30002 404.79913 645.39999 L 409.00077 649.90085 C 510.70067 829.90067 585.30038 927.70065 633.10033 943.50064 C 633.80033 943.70064 634.49998 943.89932 635.29998 943.99932 C 671.59994 948.69932 728.6992 916.40041 806.49913 847.10047 C 902.39903 763.30056 946.4991 735.09985 938.7991 762.59982 C 938.5991 763.79982 938.50042 764.99968 938.30042 766.09967 C 938.60042 805.19963 946.90018 838.70022 963.20017 866.50019 C 978.10015 891.90017 1038.6995 1001.7004 1081.2994 1186.9002 L 1096.0006 1259.5992 C 1081.4007 1267.7992 980.40083 1199.1995 965.70084 1189.8995 C 826.90098 1102.0996 729.40028 1047.8002 683.40032 1028.4002 C 609.5004 997.30027 567.10038 1073.9997 582.10036 1136.7997 C 599.50034 1209.8996 663.10056 1272.7006 710.20051 1328.0006 C 740.80048 1363.9005 766.20025 1399.9008 786.10023 1443.0007 C 800.30021 1473.7007 857.10074 1590.8993 842.40075 1621.9993 C 823.10077 1662.5993 629.79949 1642.0008 640.99948 1694.5007 C 651.59947 1744.1007 762.89947 1724.2993 792.59944 1723.2993 C 887.89935 1719.9993 983.00017 1722.7004 1078.3001 1726.3004 L 1060.3003 1726.6994 C 1164.6002 1730.5994 1165.2995 1719.2007 1230.7995 1706.2008 C 1382.7993 1676.0008 1394.7995 1478.1992 1405.7995 1422.1993 C 1411.2995 1359.2993 1411.2994 1343.6995 1388.5994 1238.7996 C 1388.4994 1238.3996 1388.4005 1237.8994 1388.2005 1237.4994 L 1385.8993 1231.0002 C 1387.6993 1140.2003 1390.3997 1064.7998 1396.0997 992.6999 C 1402.7996 988.19991 1405.7003 986.19983 1412.4003 981.69984 C 1547.7001 1023.7998 1638 1044.9995 1683.3 1045.1995 C 1683.8 1045.1995 1684.1999 1045.1998 1684.6999 1045.0998 C 1719.6999 1041.3998 1737.6003 1026.3009 1738.3003 999.9009 C 1738.3003 998.8009 1738.1995 997.60078 1737.8995 996.50078 C 1705.6996 872.80091 1632.2 734.8001 1517.2001 582.60026 C 1494.3001 536.9003 1436.4004 511.49951 1343.4005 506.39952 C 1340.0005 504.49952 1337.2004 502.90077 1333.8004 501.10077 C 1323.3004 486.30079 1316.3007 472.80062 1313.0008 460.50063 C 1311.2008 453.90064 1315.1996 447.09919 1321.6996 445.19919 C 1356.7996 434.8992 1386.6998 414.9006 1411.1998 385.40063 C 1438.7998 352.80066 1452.4002 300.00062 1451.7002 226.90069 C 1451.1002 154.40077 1419.3997 107.10057 1356.7997 85.000596 C 1309.7748 68.425612 1262.3001 60.793006 1214.2486 62.189879 z M 1227.5517 89.98381 C 1257.1679 89.360763 1291.9253 93.650643 1331.8002 102.90063 C 1395.1002 117.00062 1427.0002 157.00093 1427.6002 222.70087 C 1428.2002 287.8008 1409.8006 335.40044 1372.3006 365.50041 C 1335.4007 396.20038 1304.7 398.3996 1280.2 371.99963 C 1269.1 360.89964 1267.0008 351.99917 1273.7008 345.29917 C 1291.5008 339.79918 1299.8006 325.99957 1298.6006 303.79959 C 1317.6005 280.49962 1327.1996 260.49946 1327.1996 243.89947 C 1328.3996 213.7995 1313.9993 199.39919 1283.8994 200.59919 C 1271.5994 201.79919 1261.2001 205.80026 1252.6001 212.60025 C 1194.1002 183.80028 1140.2009 154.89935 1095.9009 159.19935 C 1113.8009 127.69938 1141.7996 106.7996 1179.7995 96.399607 C 1193.862 92.499611 1209.782 90.357637 1227.5517 89.98381 z M 1102.2333 192.06716 C 1139.7754 193.22497 1179.7504 209.95035 1222.2004 242.20032 L 1215.6993 260.60086 C 1223.0993 264.90085 1230.0998 266.10019 1236.8997 264.30019 C 1246.6997 238.50021 1257.7994 225.60049 1270.0994 225.60049 C 1284.7994 223.80049 1291.6004 231.10037 1290.4004 247.70035 C 1290.4004 263.10034 1282.1006 280.30057 1265.5006 299.30056 C 1265.5006 319.00054 1260.0008 327.2003 1248.9008 324.2003 C 1237.8008 321.70031 1233.2009 315.59976 1235.1009 305.79977 C 1227.7009 333.39974 1234.2006 368.50065 1254.5006 410.90061 C 1274.2006 453.90057 1289.1995 486.80045 1299.6995 509.50042 C 1310.0995 532.2004 1326.7008 544.20024 1349.5008 545.40024 C 1372.2008 546.60024 1398.2997 550.00086 1427.7996 555.50086 C 1457.2996 561.00085 1465.2999 580.9992 1451.7999 615.39916 C 1438.1 649.69913 1409.9003 726.8001 1366.9003 846.59998 L 1323.6001 826.30082 C 1293.5001 765.50088 1241.3008 713.90017 1166.9008 671.50021 C 1152.8008 685.0002 1155.5008 702.79932 1175.2007 724.8993 L 1141.9993 797.69992 C 1137.6993 826.59989 1148.8008 849.29997 1175.2007 865.89996 C 1212.1007 882.49994 1252.5999 890.79971 1296.7999 890.79971 L 1354.8993 937.79932 L 1340.1999 1197.4995 L 1159.0996 1232.1009 C 1072.4997 955.00118 1034.2002 851.29997 1017.6003 827.3 C 1001.0003 803.30002 996.40031 734.80034 1003.8003 621.80045 C 1000.7003 583.10049 1032.4009 563.69922 1098.7008 563.69922 C 1167.5007 563.69922 1199.0995 547.99958 1193.5995 516.69961 L 1180.7008 478.89936 C 1173.9008 455.59938 1171.2009 441.10088 1172.4009 435.60089 C 1158.9009 431.90089 1139.8006 432.80078 1115.3006 438.40077 C 1073.5007 442.10077 1049.0006 440.20073 1041.6006 432.90074 C 1034.2006 425.50075 1031.8001 415.39913 1034.2001 402.49914 L 1063.7004 392.40034 C 1070.5004 388.70034 1071.6997 382.59979 1067.3998 373.9998 L 1025.9002 370.30047 C 1035.7002 349.40049 1034.5008 335.60088 1022.2008 328.80089 C 1005.6009 330.00089 997.29928 325.70038 997.29928 315.90039 C 1001.5993 307.9004 1010.2003 293.20064 1023.1003 271.70066 C 1036.0003 250.20068 1051.6999 236.39926 1070.0999 230.19926 C 1089.0999 224.09927 1107.9007 224.99916 1126.3007 232.99915 C 1144.7007 240.39914 1162.2003 246.20024 1178.8003 250.50024 L 1183.3991 239.40044 C 1167.9991 235.70044 1152.1 229.59989 1135.5 220.9999 C 1103.6001 204.39992 1075.9006 204.39992 1052.6006 220.9999 C 1055.7006 209.89991 1059.9993 201.70015 1065.4993 196.10015 C 1077.4743 193.02516 1089.7192 191.68122 1102.2333 192.06716 z M 1089.2004 255.8008 C 1073.8004 255.8008 1063.7006 258.29946 1058.8006 263.19946 C 1054.5006 268.09945 1048.6995 270.59993 1041.2995 270.59993 L 1041.2995 278.89984 L 1054.2 280.70055 C 1070.8 297.30053 1096.9007 299.39975 1132.5007 287.19976 L 1155.5 293.70079 L 1157.3007 277.09914 L 1136.9997 275.30025 C 1117.4997 264.10026 1101.5004 257.6008 1089.2004 255.8008 z M 1502.1997 711.2009 C 1526.1996 760.30086 1573.2004 831.89991 1643.2003 925.89981 C 1616.8004 908.09983 1552.0005 889.30082 1448.8006 869.70084 L 1502.1997 711.2009 z M 679.34375 1078.5951 C 683.35877 1078.6863 687.76844 1079.2062 692.59968 1080.1999 C 738.49964 1089.6999 786.70011 1129.8 827.50007 1153.2 C 867.60003 1176.2 909.39985 1196.8002 946.79981 1224.1002 C 964.09979 1236.7002 986.20062 1254.1002 1009.2006 1275.1002 C 1032.2006 1296.1001 1098.4998 1308.6008 1161.7997 1323.8007 C 1214.0997 1336.3007 1294.3001 1317.8005 1330.5 1322.5005 C 1339.9 1323.7005 1352.5996 1328.5994 1359.5996 1343.5994 L 1362.6008 1358.0993 C 1364.6008 1370.0993 1355.8998 1419.5002 1353.9998 1431.5002 C 1349.0998 1462.0001 1337.2998 1500.8991 1329.1998 1526.2991 C 1324.5998 1540.5991 1313.0995 1559.0996 1306.5995 1571.5996 L 1291.6009 1589.5993 C 1277.6009 1603.0993 1244.1996 1629.4997 1226.5997 1630.0997 C 1148.0997 1631.7997 1052.8998 1637.9 976.39988 1616.9 C 907.19995 1597.9001 872.70049 1486.6003 841.80052 1427.3004 C 789.40057 1354.2004 719.09945 1287.3006 671.9995 1211.5007 C 647.62452 1172.3133 619.1186 1077.2265 679.34375 1078.5951 z " />
	
	
</g>
</svg>
