<?xml version="1.0" encoding="UTF-8" standalone="no"?>
<svg
   width="18.17"
   height="17.98"
   version="1.1"
   id="svg4"
   sodipodi:docname="US9Aa82EXT.svg"
   xml:space="preserve"
   inkscape:version="1.2.1 (9c6d41e410, 2022-07-14)"
   xmlns:inkscape="http://www.inkscape.org/namespaces/inkscape"
   xmlns:sodipodi="http://sodipodi.sourceforge.net/DTD/sodipodi-0.dtd"
   xmlns="http://www.w3.org/2000/svg"
   xmlns:svg="http://www.w3.org/2000/svg"><defs
     id="defs8" /><sodipodi:namedview
     id="namedview6"
     pagecolor="#ffffff"
     bordercolor="#000000"
     borderopacity="0.25"
     inkscape:showpageshadow="2"
     inkscape:pageopacity="0.0"
     inkscape:pagecheckerboard="0"
     inkscape:deskcolor="#d1d1d1"
     showgrid="false"
     inkscape:zoom="24.479306"
     inkscape:cx="6.3931551"
     inkscape:cy="9.0280338"
     inkscape:window-width="1920"
     inkscape:window-height="1137"
     inkscape:window-x="-8"
     inkscape:window-y="-8"
     inkscape:window-maximized="1"
     inkscape:current-layer="svg4" /><path
     style="fill:#000000;stroke:none"
     d="m 2.6537905,1.9000843 c 0.951391,1.3375478 1.238771,3.0614713 2.591718,4.2811164 1.352948,1.219645 2.693823,-0.4724164 3.8803461,0.7969855 1.1865234,1.2694018 1.1392294,3.3413378 1.8747704,4.2041908 0.735541,0.862854 4.037378,0.985958 4.037378,0.985958 C 16.012624,10.809874 15.12847,9.2071333 14.389749,7.620408 13.588969,5.9003829 13.31596,5.5863947 12.238544,3.825803 11.124459,2.0052915 10.042582,0.89455104 10.524522,0.50168085 c 0.48194,-0.39287018 1.550333,1.12211675 3.050661,3.37919395 0.645412,0.9709499 1.552078,2.7922698 2.043417,3.8921219 0.491339,1.0998521 1.327867,3.0465333 0.887883,4.2079353 -0.448364,1.183522 -1.229842,2.036687 -2.127681,2.867127 -1.028163,0.950983 -2.244719,1.390425 -3.658162,1.809628 -1.2681859,0.376122 -2.9719325,0.951658 -2.9719325,0.951658 0,0 -1.470788,0.08505 -1.39238,-0.289408 0.07841,-0.374455 1.3785223,-0.632824 1.9669573,-0.783288 0.588435,-0.150464 0.7013065,-0.243501 2.5301352,-0.861796 1.692215,-0.572109 2.375019,-1.218066 3.487455,-2.492818 0,0 -3.01864,-0.211023 -3.927014,-0.893548 C 9.505487,11.605962 9.8582239,9.1438847 8.519746,8.0331362 7.1812685,6.9223877 5.9819715,8.4770981 4.6916605,7.1924288 3.4013495,5.9077595 2.2546885,3.0039749 1.4908135,1.7996871 1.2406435,1.4052817 0.26333252,0.49493687 0.78163752,0.08988881 1.2999425,-0.31515925 1.9786485,0.95091117 2.6537905,1.9000843 Z"
     id="path2"
     sodipodi:nodetypes="sssscsszszsssszzscsssszs" /></svg>
