<?xml version="1.0" encoding="UTF-8" standalone="no"?>
<!-- Generator: Adobe Illustrator 19.0.0, SVG Export Plug-In . SVG Version: 6.00 Build 0)  -->

<svg
   version="1.1"
   id="Ebene_1"
   x="0px"
   y="0px"
   viewBox="0 0 1954.3984 1789.9053"
   xml:space="preserve"
   width="1954.3984"
   height="1789.9053"
   xmlns="http://www.w3.org/2000/svg"
   xmlns:svg="http://www.w3.org/2000/svg"><defs
   id="defs2759">
		
	
	
	
</defs>
<style
   type="text/css"
   id="style2750">
	.st0{fill:#010101;}
</style>
<path
   id="XMLID_2_"
   class="st0"
   d="M 859.31055,0.04040983 C 854.33712,-0.09552717 849.4,0.11149983 844.5,0.66150383 824.90002,3.9614998 806.29842,12.660737 788.89844,26.860722 770.39846,38.86071 751.2992,45.961506 731.69922,48.161504 c -19.59998,2.199997 -40.29963,-7e-6 -62.09961,-6.5 v -1.59961 c -20.69998,-8.699991 -40.90002,-12.000779 -60.5,-9.800781 -19.59998,2.199998 -39.80002,10.899234 -60.5,26.199219 C 530.09963,75.060313 511.49998,88.161121 493,95.761113 474.40002,103.3611 452.09841,107.1615 425.89844,107.1615 c -25.09998,7.69999 -45.20002,17.99962 -60.5,31.09961 -14.19999,13.09999 -26.20001,31.59963 -36,55.59961 -6.59999,22.89998 -16.89962,41.39962 -31.09961,55.59961 -13.09999,15.29998 -31.10002,28.40079 -54,39.30078 -21.79998,20.69998 -36.00001,40.40041 -42.5,58.90039 -6.49999,19.59998 -8.20039,40.89885 -4.90039,63.79883 4.39999,26.09997 4.39999,49.6008 0,70.30078 -3.3,19.59998 -11.99923,38.19963 -26.19922,55.59961 h -1.59961 c -13.09999,22.89998 -20.70039,44.2008 -22.90039,63.80078 -2.2,20.69998 1.6004,41.99885 11.40039,63.79883 9.79999,22.89998 14.69922,44.70041 14.69922,65.40039 0,19.59998 -4.89923,39.80002 -14.69922,60.5 -10.89999,20.69998 -16.40039,40.90002 -16.40039,60.5 0,20.69998 5.5004,41.39963 16.40039,62.09961 9.79999,19.59998 14.69922,39.80002 14.69922,60.5 0,20.69998 -4.89923,40.89997 -14.69922,60.49997 -11.99999,20.7 -18,41.4016 -18,62.1016 0,19.6 6.00001,39.8 18,60.5 h 42.5 c -10.89999,-20.7 -16.40039,-40.9 -16.40039,-60.5 0,-20.7 5.5004,-41.4016 16.40039,-62.1016 10.89999,-19.6 16.40039,-39.79999 16.40039,-60.49997 0,-20.69998 -5.5004,-40.90002 -16.40039,-60.5 -9.79999,-20.69998 -14.70117,-41.39963 -14.70117,-62.09961 0,-19.59998 4.90118,-39.80002 14.70117,-60.5 10.89999,-20.69998 16.40039,-40.90002 16.40039,-60.5 0,-20.69998 -5.5004,-41.39963 -16.40039,-62.09961 -7.69999,-20.69998 -10.40117,-41.39963 -8.20117,-62.09961 1.1,-19.59998 7.60157,-39.30041 19.60156,-58.90039 15.19999,-17.39998 24.99844,-35.99963 29.39844,-55.59961 3.3,-20.69998 1.60155,-42.0008 -4.89844,-63.80078 -2.2,-22.79998 1e-5,-43.59963 6.5,-62.09961 7.59999,-19.59998 18.99884,-37.0008 34.29883,-52.30078 22.89998,-6.49999 40.90001,-17.39924 54,-32.69922 14.19999,-15.19998 23.40079,-34.29924 27.80078,-57.19922 8.69999,-20.69998 20.70002,-37.60118 36,-50.70117 15.29999,-13.09999 33.79963,-22.29883 55.59961,-27.79883 v 1.59961 c 21.79998,2.2 42.00002,-0.60118 60.5,-8.20117 17.39998,-7.69999 33.2004,-20.79885 47.40039,-39.298827 17.39998,-13.099986 35.99963,-20.700392 55.59961,-22.90039 20.69998,-2.199998 41.39963,0.599226 62.09961,8.199219 h -1.59961 c 21.79998,9.799991 42.49963,13.100781 62.09961,9.800781 19.59998,-2.1 38.19963,-10.300014 55.59961,-24.5 18.49998,-13.099987 37.60119,-20.700393 57.20117,-22.900391 20.69998,-2.199997 40.90002,0.60118 60.5,8.201172 21.79998,8.699992 42.49963,11.998826 62.09961,9.798828 19.59998,2.199998 39.30038,-1.098836 58.90038,-9.798828 20.7,-7.699992 41.3996,-10.401169 62.0996,-8.201172 18.5,2.199998 37.5992,9.800404 57.1992,22.900391 18.5,14.099986 37.1016,22.3 55.6016,24.5 19.6,3.3 39.8,-7.9e-4 60.5,-9.800781 20.7,-7.699993 41.3996,-10.399217 62.0996,-8.199219 18.5,2.199998 37.0996,9.800404 55.5996,22.90039 14.1,18.599977 30.0004,31.698837 47.4004,39.298827 18.5,7.69999 39.1996,10.40117 62.0996,8.20117 v -1.59961 c 20.7,5.4 38.7,14.69884 54,27.79883 15.3,13.09999 27.3,30.00119 36,50.70117 4.4,22.89998 13.6008,41.89924 27.8008,57.19922 13.1,15.29998 31.1,26.19923 54,32.69922 15.2,15.19998 26.6988,32.7008 34.2988,52.30078 6.5,18.49998 8.7,39.19963 6.5,62.09961 -7.6,21.79998 -9.3004,43.1008 -4.9004,63.80078 4.3,19.59998 14.1004,38.19963 29.4004,55.59961 12,19.59998 19.1008,39.30041 21.3008,58.90039 1.1,20.69998 -2.2008,41.39963 -9.8008,62.09961 -12,20.69998 -18,41.39963 -18,62.09961 0,19.59998 6,39.80002 18,60.5 9.8,20.69998 14.7012,40.90002 14.7012,60.5 0,20.69998 -4.9012,41.39963 -14.7012,62.09961 -12,19.59998 -18,39.80002 -18,60.5 0,20.69998 6,40.89997 18,60.49997 h 1.5996 c 8.7,20.7 13.1016,41.4016 13.1016,62.1016 0,19.6 -4.4016,39.8 -13.1016,60.5 h 40.9004 c 12,-20.7 18,-40.9 18,-60.5 0,-20.7 -6,-41.4016 -18,-62.1016 -9.8,-19.6 -14.6992,-39.79999 -14.6992,-60.49997 0,-20.69998 4.8992,-40.90002 14.6992,-60.5 10.9,-20.69998 16.4004,-41.39963 16.4004,-62.09961 0,-19.59998 -5.5004,-39.80002 -16.4004,-60.5 -9.8,-20.69998 -14.6992,-40.90002 -14.6992,-60.5 0,-20.69998 4.8992,-42.50041 14.6992,-65.40039 8.7,-21.79998 12.5004,-43.09885 11.4004,-63.79883 -2.2,-19.59998 -9.8004,-40.9008 -22.9004,-63.80078 h -1.5996 c -13.1,-17.39998 -21.7992,-35.99963 -26.1992,-55.59961 -4.4,-20.69998 -4.4,-44.10081 0,-70.30078 4.4,-22.89998 2.6996,-44.19885 -4.9004,-63.79883 -7.6,-18.59998 -21.8,-38.20041 -42.5,-58.90039 -22.9,-10.99999 -40.9,-24.0008 -54,-39.30078 -14.2,-14.19999 -24.5996,-32.69963 -31.0996,-55.59961 -9.8,-23.99998 -22.3016,-42.49962 -37.6016,-55.59961 -14.2,-13.09999 -33.7984,-23.49962 -58.8984,-31.09961 -27.3,0 -49.7016,-3.8004 -67.1016,-11.400387 -18.5,-7.699992 -37.0996,-20.8008 -55.5996,-39.300781 -20.7,-15.299985 -40.9,-23.999221 -60.5,-26.199219 -19.6,-2.199998 -40.2996,1.10079 -62.0996,9.800781 v 1.59961 c -20.7,6.499993 -40.4004,8.699997 -58.9004,6.5 -20.7,-2.199998 -39.7992,-9.300794 -57.1992,-21.300782 -18.5,-14.199985 -37.6012,-22.8992222 -57.2012,-26.19921817 -19.6,-2.19999823 -39.8,1.09883597 -60.5,9.79882817 C 1015.0985,18.160324 993.29998,20.861501 971.5,18.661504 948.60002,20.861501 926.19998,18.160324 905,10.460332 889.47502,3.9353378 874.23085,0.44822183 859.31055,0.04040983 Z M 1307.1523,239.36658 c -13.9093,0.31406 -28.1273,1.44453 -42.6523,3.39453 -58.1,7.69999 -99.9004,52.60008 -125.4004,134.5 -15.5,17.69998 -32.1008,42.59925 -49.8008,74.69922 -10,22.09998 -10.5992,34.3 -1.6992,36.5 8.9,2.2 16.6988,6.10157 23.2988,11.60156 -6.6,4.4 -9.3988,8.89883 -8.2988,13.29883 1.1,4.39999 4.5,6.59961 10,6.59961 3.3,0 2.1992,2.20157 -3.3008,6.60156 -5.5,4.5 -4.8988,8.60001 1.7012,12.5 6.7,3.8 10,15.20002 10,34 0,17.69998 10.5996,25.99844 31.5996,24.89844 41.9999,-2.2 60.5996,4.4004 55.5996,19.90039 -4.9,15.49998 -25.4004,21.30039 -61.4004,17.40039 -36,-3.9 -134.299,21.79927 -294.7988,77.19922 C 816.50004,670.36037 763.99915,598.46179 694.19922,496.56189 672.09924,441.16195 653.79842,396.06147 639.39844,361.1615 624.99845,326.26154 585.69994,293.36069 521.5,262.36072 c -15.49998,3.3 -24.40156,14.10041 -26.60156,32.40039 -2.2,18.29998 0.50079,26.29961 8.30078,24.09961 22.19998,4.39999 42.1008,14.40041 59.80078,29.90039 17.79998,15.49998 33.79923,43.69926 48.19922,84.69922 -30.99997,-15.49999 -51.99962,-35.39885 -63.09961,-59.79883 -11.09999,-24.29998 -22.10118,-32.70038 -33.20117,-24.90039 16.59998,66.49993 62.00124,126.30044 136.20117,179.40039 20.99998,54.29995 41.50041,99.69926 61.40039,136.19922 C 669.30004,640.06074 622.19878,613.46147 571.29883,584.6615 529.19887,538.16155 495.49998,499.96186 470,470.06189 444.60003,440.16192 394.19836,421.8611 318.89844,415.26111 c -14.39999,9.89999 -19.89961,23.80002 -16.59961,41.5 3.3,17.69998 8.79962,24.89961 16.59961,21.59961 23.29998,-3.3 46.5008,-0.79999 69.80078,7.5 23.19998,8.29999 48.09925,30.80082 74.69922,67.30078 -36.49996,-3.3 -64.20002,-15.00041 -83,-34.90039 -18.79998,-19.89998 -32.60001,-23.7996 -41.5,-11.59961 37.59996,57.59994 101.80165,99.09964 192.60156,124.59961 107.39989,123.99988 204.1997,184.89922 290.59961,182.69922 48.69995,-5.6 137.90052,-21.59925 267.40039,-48.19922 -7.8,88.59991 1.5992,177.4997 28.1992,266.59959 26.6,89.0999 34.4008,183.0001 23.3008,281.5 C 959.40018,1104.6609 842.59956,995.06191 790.59961,985.06189 c -58.59994,9.90002 -96.30041,30.39841 -112.90039,61.39841 -49.79995,111.7999 -92.50043,297.8003 -127.90039,558 -13.29999,53.2 -38.70043,83.1012 -76.40039,89.7012 -37.69996,6.6 -90.2989,19.3992 -157.79883,38.1992 -63.09994,-2.2 -69.20073,16.6 -18.30078,56.5 h 358.59961 c 16.59998,-14.4 19.09999,-36.8988 7.5,-67.2988 -11.59999,-30.5 -6.2992,-83.9009 15.80078,-160.3008 38.94428,-85.2289 64.64955,-158.3504 77.42773,-219.6875 l -1.02734,219.6875 c -56.39994,45.4 -81.89999,89.1008 -76.5,131.3008 l 48.19922,86.3984 c 28.79997,25.4 141.70098,6.6 338.80077,-56.5 166.0998,-71.8999 256.2992,-107.8984 270.6992,-107.8984 24.4,31 24.4,72.5996 0,124.5996 -39.9,13.3 -54.2992,27.6992 -43.1992,43.1992 25.4,2.2 52.3,1.1012 80.5,-3.2988 28.2,-4.4 49.5004,-40.7009 63.9004,-108.8008 14.4,-68.0999 22.3996,-115.9992 24.0996,-143.6992 1.6,-27.7 -10.8004,-42.1012 -37.4004,-43.2012 24.3,-38.8 25.4008,-102.4001 3.3008,-191 14.3,-125.0999 28.4988,-245.7001 42.2988,-361.99998 13.9,-116.19988 2.8008,-195.69887 -33.1992,-238.29883 -36,-42.59996 -56.1996,-87.20122 -60.5996,-133.70117 28.8,-11.09999 55.8984,-32.09964 81.3984,-63.09961 25.5,-30.99997 38.2012,-73.60044 38.2012,-127.90039 0,-54.29995 -24.1012,-90.49885 -72.2012,-108.79883 -36.0749,-13.72499 -75.018,-20.1375 -116.7461,-19.19531 z m -6.1367,27.51367 c 25.4687,-0.125 54.2969,3.96876 86.4844,12.28125 51.4999,13.19999 77.1992,43.69888 77.1992,91.29883 0,46.49995 -17.2,86.40159 -51.5,119.60156 -34.3,33.19997 -56.9996,42.59921 -68.0996,28.19922 -9.9,-15.49998 -1.1004,-37.10081 26.5996,-64.80078 27.7,-27.69997 34.6008,-54.79847 20.8008,-81.39844 -13.8,-26.49997 -44.0001,-28.70154 -90.5,-6.60156 -15.5,-16.59998 -52.6009,-29.29923 -111.3008,-38.19922 11.1,-28.79997 33.7996,-47.29962 68.0996,-55.59961 12.8625,-3.1125 26.9356,-4.70625 42.2168,-4.78125 z m -125.2168,85.18164 c 47.7,3.3 86.4008,16.09924 116.3008,38.19922 -1.1,17.79998 6.3004,18.2992 22.4004,1.69922 16.1,-16.59998 31.6,-21.49843 46.5,-14.89844 14.9,6.59999 16.8988,21.30002 5.7988,44 -11,22.69998 -25.0988,41.60002 -42.2988,56.5 -17.1,14.99999 -21.0016,30.19924 -11.6016,45.69922 9.4,15.49998 15.8016,28.8004 19.1016,39.90039 5.5,59.79994 23.9996,107.10004 55.5996,142 31.6,34.89997 45.1992,86.40007 40.6992,154.5 -4.5,68.09993 -16.1004,184.5998 -34.9004,349.5996 -47.5999,14.4 -115.6989,42 -204.2988,83 2.2,-87.4999 -6.7012,-174.9997 -26.7012,-262.5996 -19.9,-87.39991 -27.9996,-164.40085 -24.0996,-230.80078 3.9,-66.39993 22.1008,-104.9004 54.8008,-115.40039 32.7,-10.49999 49.5992,-32.39964 50.6992,-65.59961 1.1,-33.19997 -17.3996,-47.69921 -55.5996,-43.19922 -38.2,4.5 -53.9008,-7.70003 -47.3008,-36.5 22.2,-12.19999 29.9008,-21.3004 23.3008,-27.40039 -6.6,-6.09999 -18.8,-9.70078 -36.5,-10.80078 0,-9.99999 -8.8996,-18.79962 -26.5996,-26.59961 17.7,-38.79996 34.9,-65.90041 51.5,-81.40039 16.6,-7.79999 33.8,-7.49921 51.5,0.80078 17.7,8.29999 35.3996,14.10039 53.0996,17.40039 v -11.59961 c -11.1,-1.1 -25.4992,-6.60157 -43.1992,-16.60156 -17.7,-9.99999 -36.0008,-11.59999 -54.8008,-5 6.6,-9.99999 12.1996,-18.29845 16.5996,-24.89844 z m 169.9297,30.04688 c -2.3859,0.20937 -5.0297,0.72773 -7.9297,1.55273 -11.7,3.3 -22.1996,12.19962 -31.5996,26.59961 -9.4,14.39999 -11.9,24.99962 -7.5,31.59961 -10,4.49999 -15.8004,10.3004 -17.4004,17.40039 -1.6,7.19999 1.7,12.50078 10,15.80078 8.3,3.3 20.2012,-2.20158 35.7012,-16.60156 15.5,-14.39999 25.6992,-27.89923 30.6992,-40.69922 5,-12.79999 5.8,-22.49962 2.5,-29.09961 -2.475,-5.02499 -7.3129,-7.18086 -14.4707,-6.55273 z m -163.0293,13.32422 c -7.8926,-0.46348 -15.1633,1.17773 -21.8008,4.92773 l -16.5996,13.30078 v 13.29883 l 8.2012,-1.69922 c 22.2,11.09999 46.4996,11.09999 73.0996,0 l 26.5996,6.59961 v -14.90039 l -24.9004,-1.69922 c -16.5625,-12.43749 -31.4453,-19.05566 -44.5996,-19.82812 z m 161.0625,3.27734 c 3.4875,0.55 4.8371,3.3 4.0371,8.25 -1.7,9.89999 -6.0988,19.30118 -13.2988,28.20117 -7.2,8.89999 -14.2008,14.99883 -20.8008,18.29883 -6.6,3.3 -6.6,0.60116 0,-8.29883 6.6,-8.89999 6.6,-12.2 0,-10 -6.7,2.2 -8.0992,-0.79962 -4.1992,-9.09961 3.8,-8.29999 9.5984,-15.8004 17.3984,-22.40039 7.75,-3.85 13.3758,-5.50117 16.8633,-4.95117 z m -169.6621,4.95117 c -3.3,6.69999 -3.3,12.79883 0,18.29883 -5.5,-2.2 -10.5004,-4.39961 -14.9004,-6.59961 2.2,-4.5 7.2004,-8.29922 14.9004,-11.69922 z m 20,3.40039 23.2988,13.29883 c -8.9,2.2 -17.6996,3.30078 -26.5996,3.30078 6.6,-4.49999 7.7008,-9.99962 3.3008,-16.59961 z m 101.2988,48.09961 c 7.7,4.5 9.4,8.6004 5,12.40039 -4.5,3.9 -7.8,3.59922 -10,-0.80078 -2.2,-4.4 -0.5,-8.29961 5,-11.59961 z m -145.6953,14.79297 c -0.3797,-0.1375 -0.7781,-0.068 -1.2031,0.20703 -1.7,1.1 -2.5,3.29961 -2.5,6.59961 0,3.3 -1.4012,5.49961 -4.2012,6.59961 -2.8,1.1 -6.1,-0.60001 -10,-5 -3.9,-4.4 -6.4,-6.59961 -7.5,-6.59961 -3.3,0 -5.4996,0.8 -6.5996,2.5 -1.1,1.6 -1.1,3.60078 0,5.80078 4.4,-2.2 9.1,-0.59999 13.5,5 4.4,5.6 9.4004,6.99922 14.9004,4.19922 5.5,-2.8 7.6996,-7.00001 6.5996,-12.5 -0.9,-4.125 -1.857,-6.39414 -2.9961,-6.80664 z m -22.1035,37.60742 c 5.5,0.6 12.1004,1.4 19.9004,2.5 7.8,1.1 11.1,2.19883 10,3.29883 h -38.2012 c -3.3,0 -4.2,-1.09883 -2.5,-3.29883 1.7,-2.2 5.3008,-3.1 10.8008,-2.5 z m 28.2988,9.09961 c -2.2,2.2 -6.0992,4.70039 -11.6992,7.40039 -5.5,2.8 -10.5004,4.19922 -14.9004,4.19922 -3.3,1.1 -5.8,0.89922 -7.5,-0.80078 -1.7,-1.6 -0.8,-3.59883 2.5,-5.79883 z m -346.10152,537.8633 c 34.00814,4.9566 128.3146,101.9298 283.00192,290.8359 -116.29985,50.9 -212.60005,114.6001 -288.99997,191 v -481.5996 c 1.73125,-0.4875 3.73084,-0.5668 5.99805,-0.2363 z M 0,1189.6615 v 124.2988 h 116.19922 v 91.6016 h 145.5 v -91.6016 h 114.5 v -124.2988 z m 1576.5996,0 v 124.2988 h 116.0996 v 91.6016 h 145.5996 v -91.6016 h 116.0996 V 1189.6615 Z M 29.5,1217.4603 h 318.89844 v 67.1016 H 232.29883 v 91.5996 h -86.69922 v -91.5996 H 29.5 Z m 1576.5,0 h 319 v 67.1016 h -116.1016 v 91.5996 h -86.6992 v -91.5996 H 1606 Z m -214.3008,41.5 -6.6992,38.1016 c 23.3,79.6999 21.0984,143.4 -6.6016,191 -77.4999,44.2999 -170.2993,72.2984 -278.1992,83.8984 -107.89987,11.6 -200.10006,51.8005 -276.49998,120.4004 43.09996,-105.1999 80.80042,-173.2988 112.90039,-204.2988 32.09997,-31 94.90009,-71.4012 188.49999,-121.2012 93.5999,-49.7999 182.4997,-85.8004 266.5996,-107.9004 z" />
</svg>
