<?xml version="1.0" encoding="UTF-8" standalone="no"?>
<!-- Created with Inkscape (http://www.inkscape.org/) -->

<svg
   width="1798.583"
   height="1643.0208"
   viewBox="0 0 1798.583 1643.0208"
   version="1.1"
   id="svg10448"
   xmlns="http://www.w3.org/2000/svg"
   xmlns:svg="http://www.w3.org/2000/svg">
  <defs
     id="defs10445" />
  <path
     id="path1592"
     style="display:inline;fill:#000000;stroke:none;stroke-width:71.9518"
     d="m 1356.0747,0.15994056 c -13.5199,0.46205 -27.0899,1.92441004 -40.707,4.38874004 -58.0999,8.0090804 -100.6357,55.4477504 -127.6105,142.3153094 -3.6313,23.4112 -12.4501,45.28256 -26.4564,65.61326 -14.0062,19.71465 -23.0859,41.58602 -27.2358,65.61326 0,13.55381 7.2628,20.63747 21.7877,21.25352 14.525,0.61604 16.3419,6.47006 5.4481,17.55954 -4.6686,1.23222 -6.4855,4.00401 -5.4481,8.31659 0.5188,4.3126 2.3357,7.0845 5.4481,8.3166 -6.7437,8.62516 -6.7437,14.47918 0,17.55954 7.2625,3.69653 9.8551,9.85614 7.7801,18.48132 -1.5563,9.24122 -0.259,20.63892 3.8911,34.19273 4.15,14.16986 24.8996,21.25581 62.2496,21.25581 l 48.244,-8.31889 c -2.0751,9.24122 -0.7777,20.3309 3.8912,33.26866 -93.3749,1.23209 -151.475,25.25948 -174.3,72.08173 -78.331,77.6264 -152.77145,159.874 -223.32127,246.74163 C 875.7294,734.29875 843.82473,687.16805 794.0248,627.40804 744.7437,568.26405 715.9532,524.83151 707.6533,497.10788 694.913,452.17424 671.3583,408.95269 637.0689,367.43141 l 1.8366,-335.500109 c -33.389,0 -15.7593,1.66927 -43.5411,1.66927 l -1.9399,353.795699 -30.501,57.95934 c -6.7437,28.95588 -0.2589,53.29113 19.4535,73.00578 3.3432,2.39598 6.9262,5.1725 10.2886,7.5989 l -0.4472,81.3453 c -64.6149,25.85143 -121.4214,71.99214 -154.1011,129.82094 -5.1184,-12.37085 -0.7546,-68.73118 -2.2036,-98.12065 -1.0642,-97.27618 2.2449,-194.68624 -1.871,-291.86954 -3.943,-61.98908 -35.0452,-135.17598 -107.2605,-150.20541 -18.4822,-4.6502 -37.6953,-4.93046 -56.7027,-4.87485 -60.7659,-3.08233 -116.1563,37.29714 -131.9878,91.17067 -25.6788,75.61804 -13.9863,155.53502 -16.6653,233.46765 V 702.01432 H 0 V 1255.0506 H 281.5833 V 702.01432 H 160.1638 c 0.7627,-112.10059 -1.5429,-224.31463 1.1808,-336.34392 3.4194,-53.71739 30.3898,-119.59272 95.5159,-128.34426 59.6005,-11.32055 121.3501,28.59122 131.7975,84.18858 12.9187,59.51141 5.3254,120.70882 7.3833,181.04584 v 323.46661 h -69.2224 c -14.2887,36.08944 62.1311,34.42652 24.0968,70.94211 -18.467,47.10521 -6.9476,105.17712 34.805,138.39202 48.7546,35.7397 119.4879,1.8446 130.2566,-51.52983 24.6209,-38.56246 -10.0085,-87.95308 -6.7849,-117.85852 28.3633,-6.45431 46.763,-48.29893 6.0374,-39.94578 -23.6958,2.11589 -45.2686,1.42154 -19.6531,-22.46191 24.467,-34.82585 60.0905,-58.5825 96.0158,-82.0676 l -3.0015,547.46894 h 43.5434 l 3.1597,-577.26146 c 10.4923,-7.69218 20.7266,-15.64176 30.1136,-24.44074 33.1661,-27.38703 7.7884,-73.76471 -29.5793,-73.2007 l 0.1972,-36.07983 c 13.0342,9.67003 25.6365,18.65699 38.946,28.76298 87.1498,183.59253 150.95677,282.78152 191.41924,297.56755 30.60621,5.54466 79.10963,-26.79814 145.50936,-97.0315 82.4811,-85.63554 119.5708,-113.36095 111.2709,-83.17281 0,40.04532 7.0043,74.2385 21.0104,102.57819 14.0064,28.33989 48.2427,157.10207 102.7113,386.28472 L 992.44671,967.4872 C 954.05916,926.20982 920.34003,905.57021 891.29012,905.57021 809.84655,906.80229 773.7934,946.84703 783.1309,1025.7056 l 43.57554,368.7253 c -61.73114,17.8664 -90.26284,73.007 -85.59414,165.4193 -28.0124,6.7768 -53.6885,16.3267 -77.0323,28.6484 -22.8249,11.7054 -45.9108,16.3253 -69.2545,13.861 -23.3437,-1.8483 -39.6838,11.7052 -49.0213,40.6612 h 1236.4391 c -25.4185,-59.1439 -61.7304,-82.5552 -108.9366,-70.2337 -46.6874,12.3217 -78.3311,-12.0135 -94.9311,-73.0057 -16.0813,-60.376 -43.3156,-73.3138 -81.7031,-38.8131 37.35,-85.6357 38.3866,-175.5829 3.1116,-269.8434 1.5562,-102.2697 5.1877,-193.45113 10.8939,-273.54184 121.906,45.59017 202.5725,68.38546 241.9975,68.38546 30.6062,-3.6966 45.9075,-19.40603 45.9075,-47.12965 -26.9749,-124.44869 -89.2236,-263.37669 -186.7484,-416.78121 -19.7125,-46.82225 -70.2912,-72.38946 -151.7349,-76.70205 -14.0061,-22.17883 -21.5276,-41.58416 -22.565,-58.21845 33.7186,-9.24123 61.9896,-30.18865 84.8145,-62.84107 23.3438,-32.65227 34.7574,-85.63698 34.2386,-158.95078 C 1556.069,92.647571 1529.3517,45.211251 1476.4395,23.032291 1436.7551,6.3980606 1396.6344,-1.2262494 1356.0747,0.15994056 Z m -6.6266,42.29148044 c 25.0052,-0.62571 54.3679,3.68194 88.0866,12.92317 53.4311,14.16988 80.4046,54.216909 80.9234,120.137729 0.5187,65.3047 -15.0435,113.05129 -46.6872,143.23938 -31.1249,30.80414 -57.0618,32.96001 -77.8118,6.46846 -9.3375,-11.08947 -11.1521,-20.0233 -5.4458,-26.8002 15.0437,-5.5448 22.0458,-19.40629 21.0082,-41.58526 16.0813,-23.41106 24.1219,-43.43457 24.1219,-60.06886 1.0375,-30.18796 -11.154,-44.66549 -36.5727,-43.4334 -10.375,1.23223 -19.1939,5.23597 -26.4563,12.01287 -50.8373,-40.04535 -94.929,-57.91069 -132.279,-53.59812 15.0437,-31.420199 38.6468,-52.367659 70.8092,-62.841059 11.8663,-3.92752 25.3002,-6.07928 40.3035,-6.45471 z m -95.6489,100.370069 c 31.7085,1.15519 65.4591,17.90379 101.2529,50.24808 l -5.4459,18.48361 c 6.2249,4.31258 12.1904,5.54453 17.8967,3.69627 8.2998,-25.87551 17.6382,-38.81306 28.0132,-38.81306 12.45,-1.84827 18.1546,5.54328 17.117,22.17758 0,15.40207 -7.0021,32.65378 -21.0083,51.75227 0,19.71466 -4.668,28.03014 -14.0054,24.94978 -9.3374,-2.46431 -13.2297,-8.62392 -11.6735,-18.48132 -6.2249,27.72379 -0.7767,62.84072 16.342,105.35039 16.6,43.12572 29.3089,76.08691 38.1275,98.88193 8.8187,22.79501 22.8249,34.80863 42.0186,36.04086 19.1937,1.23222 41.2407,4.62005 66.1407,10.16472 24.9,5.54468 31.6434,25.5682 20.2308,60.06887 -11.4125,34.50056 -35.2739,111.81819 -71.5865,231.95429 l -36.5728,-20.33175 c -25.4187,-60.99218 -69.5127,-112.74259 -132.2813,-155.25223 -11.9313,13.55376 -9.5972,31.42136 7.0028,53.6004 l -28.0109,73.00579 c -3.6313,28.95589 5.7047,51.75128 28.0109,68.38546 31.1248,16.63409 65.3635,24.94978 102.7134,24.94978 l 49.0213,47.12965 -14.0053,304.96234 -140.0637,36.965 c -73.1436,-277.85312 -116.7181,-428.79483 -130.7243,-452.82212 -14.0063,-24.02712 -17.8964,-92.71898 -11.6713,-206.07815 -2.5938,-38.81328 24.1212,-58.22073 80.1461,-58.22073 58.0999,-10e-6 84.8172,-15.70947 80.1485,-47.12966 l -10.8939,-37.88898 c -5.7063,-23.41106 -8.0425,-37.8886 -7.0051,-43.4334 -11.4125,-3.69654 -27.4917,-2.7726 -48.2417,2.7722 -35.275,3.69654 -56.0269,1.84638 -62.2518,-5.54669 -6.2249,-7.39294 -8.2982,-17.55642 -6.2231,-30.49417 l 24.8993,-10.16702 c 5.7063,-3.69641 6.7429,-9.85614 3.1116,-18.48132 l -35.0159,-3.69626 c 8.3,-20.94688 7.2634,-34.80836 -3.1116,-41.58526 -14.0063,1.23222 -21.0105,-3.08182 -21.0105,-12.93921 3.6313,-8.009 10.8941,-22.79453 21.7878,-44.35746 10.8938,-21.56292 24.1219,-35.42453 39.6845,-41.58525 16.0811,-6.16086 31.9042,-5.2368 47.4666,2.7722 15.5626,7.39308 30.3467,13.24466 44.3529,17.55724 l 3.8911,-11.08879 c -12.9685,-3.6964 -26.4577,-9.85613 -40.4639,-18.48132 -26.975,-16.63429 -50.3171,-16.63429 -70.0295,0 2.5938,-11.08947 6.2252,-19.40725 10.8939,-24.95206 10.1155,-3.0804 20.4566,-4.42756 31.0261,-4.0425 z m -1.4583,47.47588 c -12.9688,0 -21.529,2.46378 -25.6789,7.39253 -3.6313,4.92864 -8.5577,7.39483 -14.7828,7.39483 v 8.31658 l 10.8939,1.84814 c 14.0062,16.63417 36.0532,18.79003 66.1405,6.46845 l 19.4513,6.46847 1.557,-16.63319 -17.1193,-1.84813 c -16.6,-11.08948 -30.0868,-17.5594 -40.4617,-19.40768 z M 635.6381,628.93516 c 12.9527,8.65186 9.9252,17.71478 -0.1468,26.67408 z m -43.5916,10.02027 -0.2431,44.09376 c -8.6722,4.97787 -16.4469,9.74649 -20.6963,14.08799 -49.6639,33.35135 -91.3617,75.66998 -130.3506,119.28475 24.7781,-66.51227 64.6272,-132.2432 133.2007,-167.10688 5.8894,-3.45475 11.9352,-6.9901 18.0893,-10.35962 z m 980.881,24.49348 c 20.2312,49.28658 59.9158,121.06055 119.0532,215.32109 -22.3062,-17.86635 -77.0336,-36.65569 -164.1833,-56.3703 z M 39.8632,751.45757 h 201.8316 v 461.61333 c -67.2771,-0.4064 -134.5544,-0.8136 -201.8316,-1.2199 z m 99.4025,65.80129 c -75.8338,3.24263 -90.3538,120.34609 -20.3203,142.95275 58.5952,19.17235 105.2477,-49.22513 82.783,-96.61417 -9.8462,-24.22881 -32.1889,-47.90933 -62.4627,-46.33858 z m -3.522,44.37809 c 2.1386,-0.24063 4.4122,-0.22427 6.8101,0.0849 76.142,16.4213 -25.6895,105.14777 -28.9258,29.78564 -1.2537,-13.95008 7.1453,-28.18602 22.1157,-29.87048 z m 284.5389,12.30406 c 3.7914,-0.2446 8.0321,0.21858 12.7695,1.52941 h 27.6188 c 23.5728,35.93062 24.1985,88.77444 -4.9987,121.86204 -42.6157,30.61464 -70.7751,-29.60396 -65.9755,-62.28616 -0.5255,-23.00603 4.0457,-59.3931 30.5859,-61.10529 z M 139.1923,1002.6567 c -69.8017,4.0889 -86.3811,101.9459 -30.7028,134.8609 51.4604,31.4621 111.7416,-28.3474 95.6213,-77.7109 -5.5894,-28.6968 -30.7759,-58.6972 -64.9185,-57.15 z m 746.65207,12.8842 h 63.02912 l 286.34811,235.6506 -319.80944,114.5933 c 7.26248,-175.5834 -2.59301,-292.3321 -29.56779,-350.2439 z m 574.25533,221.7895 c 21.7876,99.1894 8.818,185.441 -38.907,258.7548 -72.1061,51.1349 -159.5137,59.1445 -262.226,24.028 -102.7124,-35.7328 -200.23866,-28.6493 -292.57586,21.2535 9.33747,-38.8132 85.59481,-102.2692 228.76926,-190.3693 z" />
</svg>
