<?xml version="1.0" encoding="UTF-8" standalone="no"?>
<svg
   width="13.35"
   height="18"
   version="1.1"
   id="svg115"
   sodipodi:docname="US9A239.svg"
   inkscape:version="1.2.1 (9c6d41e410, 2022-07-14)"
   xmlns:inkscape="http://www.inkscape.org/namespaces/inkscape"
   xmlns:sodipodi="http://sodipodi.sourceforge.net/DTD/sodipodi-0.dtd"
   xmlns="http://www.w3.org/2000/svg"
   xmlns:svg="http://www.w3.org/2000/svg">
  <defs
     id="defs119" />
  <sodipodi:namedview
     id="namedview117"
     pagecolor="#ffffff"
     bordercolor="#000000"
     borderopacity="0.25"
     inkscape:showpageshadow="2"
     inkscape:pageopacity="0.0"
     inkscape:pagecheckerboard="0"
     inkscape:deskcolor="#d1d1d1"
     showgrid="false"
     inkscape:zoom="24.268188"
     inkscape:cx="6.9638491"
     inkscape:cy="6.3045498"
     inkscape:window-width="1920"
     inkscape:window-height="1017"
     inkscape:window-x="1072"
     inkscape:window-y="-8"
     inkscape:window-maximized="1"
     inkscape:current-layer="svg115" />
  <path
     id="path113"
     style="fill:#000000;stroke:none;stroke-width:1.26802"
     d="M 0.76962263,0.06029577 C 0.20450393,0.06836669 0.17326491,0.16905477 0.17531575,0.41348065 0.1785445,0.79783132 0.43904954,1.2707706 0.54604098,1.6620369 H 0.33774686 v 0.2252747 c 0.0739833,0 0.12926736,0.064894 0.16625307,0.1928199 -0.0369858,-0.023264 -0.0621945,-0.010245 -0.0745274,0.036273 -0.0739833,-0.023264 -0.17777226,-0.036273 -0.31339655,-0.036273 -0.04929418,0 -0.06775088,0.040773 -0.05541804,0.1221828 0.0369858,0.1744457 0.129134,0.2615477 0.27708838,0.2615477 h 0.055418 c 0.0123211,0.069781 0.055967,0.192104 0.12994481,0.3665487 0.0739716,0.1744456 0.17777109,0.2912173 0.31339664,0.3493666 l -0.003825,0.2520021 c -0.0416518,-0.00294 -0.0835678,-0.00857 -0.12612305,-0.00955 l -0.40703356,-0.01718 c -0.0246647,0.1511861 0.0393193,0.2549464 0.1872736,0.3130936 0.0369858,0.5582258 0.11384637,1.1295969 0.26180074,1.1295969 0.0161417,-0.00127 0.0315478,-0.00236 0.0477737,-0.00382 l -0.011466,0.5822779 c 0,0.081403 0.0737201,0.1202737 0.2216707,0.1202737 0.1479603,0 0.2235817,-0.038863 0.2235817,-0.1202737 L 1.2186928,4.7828249 C 1.3675638,4.7541848 1.518895,4.7207838 1.6735,4.6759149 3.1642705,4.92689 3.7553352,5.3408204 4.5208222,5.4681945 h 0.0019 l 0.00573,-0.00572 0.0019,-0.0019 c 0.4139626,0.030451 1.4235368,0.020054 1.7714548,-0.068727 0.2448934,-0.1013924 0.5488554,-0.050189 0.732202,0.00267 0.032849,0.4171194 0.2830587,0.8280522 0.4602435,0.9142996 0.2835049,0.2874896 0.4261516,0.8832258 0.4261516,1.7888297 -0.6733028,1.3512186 -0.9657195,2.4091702 -0.877128,3.1710272 -0.2834958,0.517487 -0.399037,1.012833 -0.3458829,1.487195 0.088593,0.833733 -0.2418755,2.048899 -0.9860525,3.644486 -0.1417476,0.359365 -0.3483339,0.571042 -0.6229712,0.635733 -0.2746364,0.06469 -0.5535019,0.169346 -0.8369981,0.313093 -0.6024285,0 -0.9038814,0.06535 -0.9038814,0.194729 0.070874,0.229996 0.2567849,0.358798 0.5579986,0.387549 l 3.1091231,-0.02291 c 0.3189329,-0.27312 0.3370037,-0.674691 0.053506,-1.206556 0.6378658,-1.063724 1.0845712,-1.844638 1.34149,-2.340566 0.2569225,-0.495921 0.3408395,-1.12243 0.2522466,-1.884286 l 0.3993895,-0.756003 c 0.1063101,0.359368 0.3122016,0.784636 0.6134164,1.273374 0.053154,0.301867 0.1848556,0.52444 0.3974788,0.668188 0.230339,0.560611 0.327813,1.472689 0.292375,2.73766 -0.0886,0.287493 -0.283536,0.479299 -0.5847512,0.572732 -0.3012148,0.09344 -0.6007569,0.209441 -0.9019706,0.353186 -0.5138369,0.01437 -0.7629909,0.07972 -0.7452723,0.194728 0.1063116,0.273118 0.3012568,0.410458 0.584752,0.410458 h 2.7632411 c 0.620147,-0.215623 0.68148,-0.634262 0.185362,-1.252375 0.513837,-1.969327 0.479609,-3.324644 -0.105103,-4.072126 -0.283495,-0.416867 -0.417107,-0.89233 -0.399389,-1.424194 V 9.9551993 C 11.232269,9.4664624 11.196127,9.0696023 11.054379,8.7677345 10.770884,8.0490013 10.628237,7.5886953 10.628236,7.38745 c 0,-0.5606121 0.204658,-1.3241969 0.600008,-1.9701623 0.124031,0.675609 0.424408,1.4848914 0.743341,2.0598781 -0.159467,0.6899837 -0.195605,1.2180038 -0.107013,1.5845591 0.0886,0.3665527 0.14089,0.6634674 0.158609,0.8934626 -0.230342,0.2012445 -0.357524,0.4977105 -0.384102,0.8858265 -0.02658,0.388116 -0.033,0.558503 -0.01529,0.788497 l 0.120442,0.09162 c 0.141748,-0.158121 0.241132,-0.321963 0.294288,-0.49446 0.442962,0.01438 0.710186,-0.07276 0.798779,-0.259639 0.0886,-0.186871 0.0021,-0.522948 -0.06878,-0.796068 L 13.127766,7.3454495 13.101011,7.0209013 C 12.693487,5.4253137 12.410104,4.4762899 12.250638,4.1744222 12.091171,3.7288073 11.708404,3.5062346 11.105976,3.5062347 h -0.422322 c -0.177185,0 -0.267532,-0.1439654 -0.267532,-0.4314583 0,-0.2299949 0.115379,-0.3310953 0.240779,-0.4295492 C 11.63863,1.8744632 11.391465,1.0655086 11.084955,0.83539339 10.606903,0.47649122 10.17827,0.39360379 9.6937802,0.40775332 9.624567,0.40977488 9.5560563,0.41404682 9.4873971,0.42302618 8.9381234,0.49489972 8.4236555,0.83302601 7.9452568,1.4367622 V 1.7154919 C 7.5022936,2.103608 7.2971055,2.3520098 7.4388538,2.3951342 l 0.2140269,0.097364 -0.078349,0.06491 c -0.080378,0.087936 0.00322,0.2499231 0.00383,0.2806389 l 0.1031916,0.042001 v 0.2367283 c 0.070876,0.1149978 0.1935404,0.1803543 0.3707252,0.194729 h 0.3191266 v 0.2157291 c -0.5611638,0 -0.9609582,0.1005147 -1.2421204,0.2100019 C 7.0170927,3.7809242 6.8807473,3.7700641 6.7604649,3.8880561 6.2057088,4.1322818 5.5278549,4.115922 4.6297507,4.3233325 4.1774539,4.1525983 3.6871888,4.1075993 3.1755144,4.0446029 2.6442696,3.979201 2.1056402,3.9554147 1.8837091,3.7926008 1.603623,3.5364178 1.5690057,3.5743928 1.2129641,3.4890527 L 1.2072306,3.1797773 C 1.342856,3.121628 1.4500443,3.0048563 1.5301818,2.8304107 1.6103194,2.655966 1.6505721,2.53364 1.6505721,2.463862 h 0.055418 c 0.147954,0 0.2400992,-0.087098 0.2770884,-0.2615477 0.012329,-0.081403 -0.00611,-0.1221828 -0.055418,-0.1221828 -0.1232954,0 -0.2270911,0.013009 -0.3133966,0.036273 -0.012333,-0.046517 -0.037541,-0.059536 -0.074528,-0.036273 0.036986,-0.1279273 0.092276,-0.19282 0.1662535,-0.1928199 V 1.6620369 H 1.509162 C 1.6165237,1.4070611 1.8382292,0.91568755 1.8282912,0.45739011 1.8202487,0.08612143 1.8769964,0.08220034 1.0448,0.06220489 0.94077528,0.05970551 0.85035377,0.05914249 0.76962263,0.06029577 Z M 0.75051333,0.54520906 H 1.2626491 L 1.2435398,1.6334003 H 0.8001984 Z M 9.6020544,0.73039247 c 0.1528218,-0.003598 0.3289407,0.008369 0.5236016,0.0381821 0.330795,0.05066 0.495822,0.16799833 0.726163,0.41236723 0.23034,0.2443697 0.320334,0.7168197 -0.733807,1.5253769 0,0 -0.1999946,-0.1941848 -0.2063825,-0.1890017 C 10.154401,2.253314 10.235849,2.0166368 9.9250053,1.7937653 9.6727496,1.6129003 9.1682677,1.7816917 9.1682678,1.8682205 8.9910831,1.6382256 8.7076995,1.4942599 8.3178929,1.4367622 8.6899809,1.0773949 8.985005,0.86335666 9.2064867,0.79148391 9.3172274,0.755547 9.4492327,0.73398602 9.6020544,0.73039247 Z M 8.2892286,1.6162183 c 0.1029893,-0.00539 0.2012647,0.01415 0.294287,0.057273 0.1240289,0.057499 0.2486062,0.1578917 0.3726362,0.3016389 l -0.026753,0.08782 C 8.8230869,1.9192032 8.7075442,1.8211677 8.5835156,1.770856 8.4594856,1.720548 8.334908,1.7011182 8.2108795,1.7154919 l -0.026754,-0.084 c 0.035437,-0.00719 0.070774,-0.013477 0.1051031,-0.015274 z m 0.00765,0.160365 c 0.1068338,0.0027 0.195356,0.025606 0.2618007,0.068728 0.088592,0.0575 0.1950996,0.1512669 0.3191295,0.2806387 0,0.1006221 0.032317,0.1527287 0.1031915,0.1527287 0,0 0.5367841,-0.571678 0.8178889,-0.3169119 0.2811058,0.2547656 -0.1151564,0.3746016 -0.2446025,0.5708231 0.1388825,0.1443909 0.5690513,0.5164362 0.5465333,0.5269136 0.04078,-0.030014 -0.0076,0.1909108 -0.0076,0.1909108 L 10.1773,3.7219638 C 10.193871,4.1553622 9.8576781,4.2896611 9.4222061,4.3156957 9.1273498,4.3047806 8.685868,4.0924569 8.6905294,3.7639641 c 0,-0.1989837 -0.030576,-0.3226391 -0.030576,-0.3226391 0,0 -0.01338,-0.2546172 -0.022931,-0.2596386 C 8.1231888,3.1673109 7.8649968,3.1190232 7.8649968,3.0327761 V 2.7731374 c -0.1063118,0 -0.1495745,-0.035036 -0.1318559,-0.10691 C 7.7154219,2.6087281 7.7677189,2.5651568 7.89175,2.536408 7.9204663,2.4377665 7.8080051,2.3926652 7.6662574,2.2920423 7.7548504,2.1770453 7.937627,2.0395926 8.1325304,1.9102208 c 0,0.1581214 0.1226663,0.2452639 0.3707251,0.2596387 H 8.690529 v -0.06491 C 8.5487815,1.9612036 8.4313285,1.8915822 8.3427354,1.8987662 c -0.088591,0.00718 -0.1408906,-0.0018 -0.1586093,-0.030546 v -0.08782 c 0.039867,-0.0036 0.077134,-0.00471 0.1127464,-0.00382 z M 11.3353,3.7849644 c 0.165647,0.024739 0.265649,0.031495 0.461017,0.1519962 -0.243576,0.5928593 -0.284299,0.862522 -0.68103,1.0407947 -0.506201,0.7256535 -0.875484,1.791138 -0.857766,2.2798754 -0.01772,0.4599896 0.07784,0.9027772 0.290464,1.3268296 0.212623,0.4240535 0.298454,0.8606657 0.254158,1.3134655 -0.04429,0.4528032 -0.06688,0.8624642 -0.06688,1.2218292 0,0.301869 0.09035,0.78205 0.267534,1.443285 0.442962,0.45999 0.640514,1.075151 0.596217,1.844198 -0.04429,0.769045 -0.162445,1.532891 -0.357348,2.294747 0.407525,0.474365 0.459822,0.797327 0.158609,0.969826 H 8.690529 l -0.1605201,-0.12791 0.6650122,-0.06491 1.4332149,-0.540278 C 10.876295,14.86876 10.726526,13.620467 10.177251,13.189226 9.5571046,12.010507 9.2052649,10.937394 9.116672,9.9742902 9.1166721,9.5286765 8.94692,9.3080119 8.6102689,9.3080119 8.5925507,9.1498863 8.5022025,9.0759944 8.3427354,9.0903737 L 8.1841261,9.2851027 V 9.004464 H 8.0522703 C 8.0345514,9.2344589 7.9803426,9.3850486 7.89175,9.4569224 7.803157,9.5719204 7.7598942,9.6789405 7.7598942,9.7795619 c 0,0.2299921 0.106507,0.3474571 0.3191295,0.3474571 0.3189333,0 0.5229137,-0.108924 0.6115053,-0.3245483 0,0.5462373 0.070367,1.0283283 0.212116,1.4451943 l -0.6115054,1.185556 c 0.088592,0.74748 -0.092801,1.519863 -0.544622,2.317656 -0.4518222,0.797794 -0.8010549,1.447997 -1.0491141,1.951108 0.336652,0.48874 0.3456871,0.811707 0.026753,0.969826 H 3.9857591 L 3.8539033,17.564901 4.4634977,17.52099 5.8202754,17.026531 C 6.7770742,15.04282 7.1850348,13.67707 7.0432864,12.929586 6.9724137,12.397723 7.0860446,11.945953 7.387258,11.572212 7.3518211,10.609108 7.6623079,9.4488545 8.3178929,8.0976359 c 0,-0.8193554 -0.097472,-1.3805039 -0.292376,-1.68956 C 7.8306143,6.0990225 7.6882483,5.9697577 7.6322893,5.8860953 7.5137798,5.7089162 7.4376395,5.2316674 7.3589427,4.9917699 7.3483509,4.7594474 7.4163631,4.2600733 7.4167686,3.9977594 7.4178656,3.8888646 7.864802,3.8555797 7.904178,3.8272563 7.9584784,4.8337306 8.8356223,5.1053342 9.3994933,5.0869756 9.9633638,5.0686169 10.992315,4.8086998 11.046736,3.7868734 h 0.124212 c 0.05947,-0.00507 0.113311,-0.00544 0.164342,-0.0019 z M 8.740214,7.2767217 C 8.715851,7.2713317 8.68844,7.2733617 8.661865,7.2805417 8.4846799,7.4242886 8.4530578,7.5180564 8.568228,7.5611804 c 0.1151709,0.043124 0.1829315,0.02134 0.2006502,-0.06491 0.070874,-0.086248 0.084426,-0.1473378 0.04013,-0.1832743 -0.022149,-0.017968 -0.044431,-0.030882 -0.068793,-0.036273 z M 8.3713997,9.2201931 8.4784131,9.3080122 C 8.4252571,9.3798861 8.3413386,9.4783694 8.2261671,9.6077421 8.1109961,9.7371078 8.0090056,9.8157242 7.9204144,9.8444713 L 7.8649963,9.8253805 C 7.8827153,9.7247596 8.0524655,9.5220623 8.3713997,9.2201931 Z m 0.1318558,0.1947288 h 0.1070134 c 0,0.3162436 -0.079402,0.4758088 -0.2388692,0.4830039 -0.1594658,0.00724 -0.2498151,0.011456 -0.2675337,0.011456 z"
     sodipodi:nodetypes="sccccccscsccccccccccsccccccccccccccscccccccccccsccsccccccsccscscccsccccssscssccccccccccccsccccccscscsccccccsscccccccsccsccsccsccccccsccccccccccccsccccccccscccscccssscsccccccccccccccsscccscccccccccscsccsccsccscscccccccccscccs" />
</svg>
