<?xml version="1.0" encoding="UTF-8" standalone="no"?>
<!-- Created with Inkscape (http://www.inkscape.org/) -->

<svg
   width="1799.226"
   height="1028.1141"
   viewBox="0 0 1799.2259 1028.1141"
   version="1.1"
   id="svg570"
   xmlns="http://www.w3.org/2000/svg"
   xmlns:svg="http://www.w3.org/2000/svg">
  <defs
     id="defs567" />
  <path
     id="path1766"
     style="display:inline;fill:#000000;stroke:none;stroke-width:100.247"
     d="m 394.12702,0.02480131 c -25.98856,0.42397 -51.59096,6.27923999 -76.80908,17.56444969 -36.68112,16.41432 -65.00931,53.43774 -84.98205,111.072269 -3.83782,20.26769 -14.87586,52.08776 -33.11585,95.45898 -1.67957,15.44299 1.5887,22.09303 9.80796,19.95313 8.21925,-2.14034 14.18813,-1.51897 17.90439,1.86133 -3.3971,3.69809 -4.39626,7.88146 -2.99912,12.54687 1.39825,4.66604 3.84937,6.33021 7.35254,4.99219 4.6891,-1.39162 5.03778,-0.22664 1.04812,3.49805 -3.99002,3.72447 -3.46478,8.72515 1.57022,15.00195 5.03519,6.27731 8.96324,14.37845 11.78643,24.30078 2.82352,9.92218 9.83876,14.04194 21.04875,12.35938 11.20984,-1.68274 25.00928,-5.25458 41.39481,-10.71485 2.68699,19.40453 32.20157,40.36109 36.14257,54.96091 3.06377,8.31252 -17.66129,63.84417 -23.92236,90.6973 -16.21428,42.38683 -19.98299,89.46939 -44.07597,128.63476 -12.39484,15.87028 -34.48859,18.64827 -50.95939,29.22266 -39.02315,19.1162 -74.91554,43.90992 -112.48634,65.40822 -37.441697,12.9089 -68.652159,10.01434 -89.299288,47.95094 -11.344737,20.0672 -31.8024888,58.12686 -19.9641963,79.24826 21.7325023,21.3128 27.3157473,-17.861 37.1159853,-30.0234 3.733381,-36.51119 68.205789,-71.00913 37.991367,-27.793 -14.615168,15.9818 -28.29375,41.92418 10.28262,24.79763 19.943532,-17.2467 39.356112,-37.07523 54.055022,-58.71173 50.16075,-22.1731 101.41024,-42.0984 151.28049,-64.7773 10.23254,-1.2693 33.18895,-40.7898 25.08224,-24.36915 -5.01574,9.52896 -7.52775,20.98255 -17.84355,26.44135 -47.26314,38.4078 -93.32656,78.5366 -143.2979,113.4551 -35.77565,15.3355 -79.741871,25.5288 -98.75088,63.3184 -8.547763,19.1018 -22.046304,36.6971 -25.068495,57.7617 10.724841,29.6623 43.825777,1.3142 48.770907,-18.6426 19.545168,-42.05767 79.306188,-73.81988 34.754768,-20.4492 -11.41465,15.5332 -12.76708,51.7957 13.36842,27.2871 18.19695,-19.9603 31.11893,-44.1095 42.53715,-68.3789 45.43606,-19.5183 66.93164,-43.8646 107.89935,-66.3789 24.52797,-13.4796 58.84437,-30.6082 79.31946,-60.0117 15.46842,-27.8617 82.77482,-137.3998 99.25139,-164.68165 8.74502,2.28088 17.48567,4.63908 26.22849,6.77734 76.16859,26.34088 153.07353,53.80175 234.22519,59.26758 59.33109,9.91461 119.12809,2.00057 178.31568,-4.70898 98.34005,45.3983 195.10113,94.70331 296.04453,134.19921 13.4696,8.5374 55.3549,16.1687 64.8304,20.9063 74.0395,26.266 148.2767,52.3342 224.953,70.0566 44.0158,13.1211 90.9501,18.8472 132.1003,40.041 20.1104,12.2189 23.5149,37.8353 34.8117,56.7832 13.606,28.5603 32.5078,56.68 39.8442,87.6504 3.464,21.10892 28.0794,65.19232 48.4412,32.66602 -0.8787,-26.87392 -7.4319,-57.62212 -11.4822,-87.61912 -11.3085,-48.8822 -26.3165,-97.0003 -37.1337,-145.8965 -19.2461,-25.2921 -54.4841,-27.8781 -82.8564,-37.209 -125.4006,-34.3871 -247.4419,-92.1477 -372.832,-126.57225 2.5769,-15.31419 -0.3257,-3.03977 4.8264,-16.90039 126.6307,18.5643 253.8908,18.92839 384.2947,33.36523 11.7779,2.02381 26.635,2.99641 38.7529,14.34961 12.9083,11.3671 18.6438,29.2918 32.2522,54.332 22.1782,40.8092 49.1417,74.066 75.0112,127.5664 34.6906,22.1613 32.9025,-7.8154 18.8504,-52.6543 -25.4901,-65.1326 -40.145,-133.811 -60.2825,-200.64058 -17.0819,-21.20308 -48.8907,-22.70252 -74.4675,-22.56836 -107.1973,-0.9653 -208.0408,-21.89276 -307.4483,-34.10743 -25.0375,-3.07649 -56.7427,-8.16856 -85.2077,-12.8457 -37.7811,-12.22898 -68.6754,-39.89348 -105.4283,-54.92773 -44.429,-23.6844 -93.8934,-33.74658 -143.0152,-42.35352 -46.21176,-11.59151 -93.86777,-16.5115 -141.39991,-12.46289 -71.99566,-0.24494 -143.29394,-14.13364 -210.46388,-39.75781 -54.63807,-16.04822 -80.29094,-45.79026 -129.51142,-74.02209 -28.14901,-16.14567 -54.207,-8.74293 -68.3418,-21.93667 -12.13349,-7.83948 -15.32194,-7.68498 -18.63442,-29.2639 28.68231,-22.55919 48.57042,-49.15874 59.66232,-79.79883 5.54624,-15.31987 8.26364,-30.81041 8.15138,-46.46875 C 513.29622,92.473471 510.35411,76.646341 504.58386,60.649801 493.04346,28.656361 468.11754,9.3779513 429.80625,2.8138613 417.8339,0.76248131 405.94,-0.16790869 394.12702,0.02480131 Z M 384.32495,30.134181 c 2.74141,-0.0254 5.54147,-0.0101 8.40262,0.0469 45.77819,0.91157 73.037,19.20001 81.77291,54.86524 2.18414,8.91615 3.19741,17.810239 3.04033,26.683589 -0.47031,26.61893 -11.47444,53.04155 -33.01182,79.27148 -28.71636,34.97329 -34.45414,32.867 -17.21349,-6.32226 17.24051,-39.18951 19.7625,-68.85706 7.56844,-88.999999 -12.19416,-20.14319 -38.63964,-20.4394 -79.33713,-0.89063 -51.24636,-3.62257 -69.30602,-15.52452 -54.17834,-35.70507 14.18223,-18.9195 41.83525,-28.56784 82.95648,-28.94922 z m 16.82289,76.888669 c 1.6006,0.0948 3.2248,0.29006 4.8716,0.58594 13.17484,2.36721 17.2367,13.41619 12.18684,33.14648 -5.05032,19.73071 -13.18378,36.94025 -24.40116,51.62695 -11.21757,14.68637 -14.44556,28.71979 -9.68431,42.10157 4.76135,13.38227 15.52186,21.4715 32.27972,24.26953 10.09421,33.61966 1.16945,22.80256 22.48937,51.08764 19.25606,13.37486 41.4864,-2.00737 87.72358,21.51839 19.09797,9.71716 63.34567,40.30543 96.95209,52.70534 79.09795,27.27655 122.42534,50.6732 207.15214,53.94058 11.80026,1.06664 23.6427,1.28417 35.49473,1.2129 7.39739,11.09405 14.36618,41.07854 16.91908,66.78124 1.10579,11.13324 1.66489,21.35633 1.96276,29.54492 -53.46023,6.10043 -107.28174,12.74699 -160.76459,3.40235 -83.00088,-5.369 -171.58646,-35.1464 -249.56227,-61.41016 55.54336,-106.63633 -40.52473,-127.83306 -86.44364,-29.04416 -11.39719,-1.67742 -13.40265,-5.03383 -22.97293,-10.41482 5.86983,-25.74409 23.30177,-59.50844 23.56013,-68.43949 -2.24769,-19.5596 -16.62263,-30.42243 -23.01756,-41.56872 -31.52659,-45.30107 -35.83646,-54.92328 -57.21756,-47.65781 -26.86971,10.06573 -41.91554,5.71155 -45.13781,-13.05859 13.8014,-10.07351 17.36142,-16.73238 10.6814,-19.98047 -6.68032,-3.24888 -15.94859,-4.60768 -27.8046,-4.07813 5.44984,-10.88216 0.95366,-18.36719 -13.4862,-22.45117 L 253.49456,163.183 c 11.21775,-14.68648 36.65612,-17.0059 76.31249,-6.95507 10.45765,-5.19562 5.47584,-10.29246 -14.94453,-15.29102 -20.42117,-4.99915 -40.01273,-4.71615 -58.76926,0.84961 6.31533,-18.01395 13.61033,-27.50017 21.88293,-28.46093 8.2726,-0.96056 31.59064,2.4316 69.95507,10.17577 5.1148,8.04667 12.78128,6.81698 22.99974,-3.6875 8.94076,-9.19124 19.01272,-13.45433 30.21684,-12.79101 z m -0.47695,5.47851 c -3.11895,-0.008 -6.84657,1.26678 -11.18583,3.82422 -8.67886,5.11603 -15.7028,14.00025 -21.07229,26.65235 -5.36923,12.65203 -5.55235,21.82083 -0.54369,27.50781 -6.95397,3.8568 -10.57933,9.04331 -10.87963,15.55859 -0.3001,6.51518 3.13193,10.20445 10.29865,11.06641 7.16681,0.86224 15.77949,-5.72963 25.8379,-19.77344 10.0586,-14.0437 16.0357,-26.42676 17.92794,-37.15039 0.9462,-5.36186 1.18075,-10.02754 0.70464,-13.99609 -0.4761,-3.96857 -1.66263,-7.23968 -3.56046,-9.81446 -1.89813,-2.57501 -4.40828,-3.86676 -7.52723,-3.875 z m -4.67531,14.83789 c 2.80887,-0.27351 4.44736,1.49922 4.91674,5.32032 0.93873,7.64197 -0.77645,15.70014 -5.14639,24.16992 -4.37089,8.46972 -8.84639,14.57938 -13.42927,18.33008 -4.58294,3.75108 -5.28254,1.41881 -2.0982,-6.99805 3.18443,-8.41726 2.48635,-10.74913 -2.09624,-6.99805 -4.58305,3.75126 -5.8481,2.03423 -3.796,-5.15039 2.05219,-7.18435 5.28851,-14.42267 9.71179,-21.71289 5.14894,-4.3674 9.12869,-6.68742 11.93757,-6.96094 z m -109.6737,27.81055 c -5.80224,-0.23955 -10.89611,0.40396 -15.28213,1.92969 -11.69689,4.06862 -20.16375,13.90242 -25.4002,29.50391 15.83866,8.75005 29.90272,11.07742 42.1917,6.98242 12.28926,-4.09529 24.1216,-11.71616 35.49866,-22.86328 l 24.73875,-4.65235 -2.0982,-6.99805 -24.73679,4.6504 c -13.60408,-5.30314 -25.2414,-8.15348 -34.91179,-8.55274 z m -2.43579,10.2207 c 9.53781,0.7563 18.51157,2.12805 26.91742,4.11719 -9.16546,7.50198 -19.05778,12.082 -29.67511,13.73828 -9.37824,2.78301 -17.16491,1.35847 -23.35893,-4.27539 4.3708,-8.46976 8.361,-12.19432 11.97093,-11.17383 -4.26359,10.82979 -0.46765,15.97854 11.388,15.44922 11.58988,-6.4283 12.50835,-12.38014 2.75769,-17.85547 z m 84.37947,13.96485 c 4.56449,2.45753 6.62389,4.85572 6.17292,7.20312 l 0.002,0.002 c -0.14967,0.78225 -0.57825,1.55967 -1.28954,2.32812 -2.8306,3.08228 -5.49797,3.20118 -8.00221,0.35742 -2.5037,-2.84367 -1.46592,-6.13944 3.11687,-9.89062 z m 542.37025,259.41797 c 22.3687,-0.0553 44.65781,0.9001 66.63408,6.80859 56.10911,12.03036 114.58151,17.7188 165.54001,46.32813 20.3694,15.5243 65.2535,32.52419 79.3135,40.96289 -2.6857,7.66561 -7.6664,22.30226 -11.9336,35.66601 -10.7376,30.05362 -22.544,59.71438 -33.475,89.69724 -84.5501,-36.83004 -167.8574,-76.39947 -251.20905,-115.82614 -0.19879,-9.60732 -0.76127,-24.11905 -2.37102,-40.32618 -2.02593,-20.3973 -4.8789,-43.09485 -12.49892,-63.31054 z" />
</svg>
