<?xml version="1.0" encoding="UTF-8" standalone="no"?>
<svg
   xml:space="preserve"
   viewBox="0 0 1010.2762 1794.7775"
   y="0px"
   x="0px"
   id="Ebene_1"
   version="1.1"
   width="1010.2762"
   height="1794.7775"
   xmlns="http://www.w3.org/2000/svg"
   xmlns:svg="http://www.w3.org/2000/svg"
   xmlns:rdf="http://www.w3.org/1999/02/22-rdf-syntax-ns#"
   xmlns:cc="http://creativecommons.org/ns#"
   xmlns:dc="http://purl.org/dc/elements/1.1/"><metadata
     id="metadata4015"><rdf:RDF><cc:Work
         rdf:about=""><dc:format>image/svg+xml</dc:format><dc:type
           rdf:resource="http://purl.org/dc/dcmitype/StillImage" /></cc:Work></rdf:RDF></metadata><defs
     id="defs4013" /><style
     id="style4002"
     type="text/css">
	.st0{fill:#010101;}
</style><path
     id="XMLID_23_"
     class="st0"
     d="m 520.55161,0 28.50942,108.31385 c -9.91173,-9.298633 -34.53825,-1.63571 -73.9808,23.19471 l -64.06787,64.06986 -242.88989,170.33805 c -65.19261,42.71241 -102.283461,83.79 -111.275544,123.13037 97.788914,121.29095 173.607954,193.53438 227.560454,216.62769 53.95251,23.09331 98.40254,64.88659 133.24687,125.58315 58.24418,40.66875 83.58599,266.49312 80.62269,509.38162 -22.48022,-0.7153 -109.54085,-59.88 -122.9268,-68.259 -134.77908,-85.2204 -229.3998,-137.9452 -274.05367,-156.7469 -71.732299,-30.1439 -112.912856,44.2452 -98.4028983,105.2484 16.9623363,71.017 78.5778743,131.9177 124.3557483,185.5637 29.63301,34.8444 54.36291,69.7902 73.67545,111.5829 13.79468,29.7352 68.86964,143.5665 54.56406,173.8126 -18.69944,39.4426 -206.407792,19.4153 -195.576417,70.4044 10.32046,48.1282 118.327787,28.9186 147.143327,27.8968 86.95755,-3.0655 173.6088,-0.8187 260.56633,2.349 l 16.45105,-0.2036 c 101.26313,3.7808 84.81149,-5.9258 148.26695,-18.5964 147.55197,-29.3265 159.20174,-221.3291 169.93094,-275.6903 5.31351,-61.1052 5.3131,-76.1255 -16.7584,-178.0017 -3.5764,-16.4515 -1.1236,-34.3339 -1.63452,-49.9678 0.40873,-96.9715 18.18733,-216.7312 53.44042,-359.37842 8.99209,-33.72032 21.35704,-26.15797 37.0932,22.78758 15.73616,48.94554 27.58856,147.55184 35.45664,295.92124 10.1161,107.905 6.23356,197.3156 -11.85281,268.1282 -16.86017,28.1003 -26.97546,52.8282 -30.34749,74.1844 -3.37204,21.3562 6.74325,45.5735 30.34749,72.5498 41.58843,-8.9921 67.44111,-30.6548 77.55721,-64.8861 10.11611,-34.3334 12.67109,-58.7539 7.56195,-73.3661 -5.10915,-14.6121 -8.68677,-32.0866 -10.9348,-52.3188 6.74407,-53.9525 16.34885,-105.3506 28.7129,-154.2962 12.4664,-49.1498 12.468,-119.0427 0.1039,-210.0876 -19.1082,-152.86538 -47.20859,-271.49914 -84.30087,-355.79993 -24.72826,-31.47229 -72.55076,-61.30976 -143.36339,-89.41002 -32.59634,-13.48812 -44.96128,-45.5752 -37.0932,-96.15567 47.20848,-28.10026 82.66594,-60.69588 106.27019,-97.78822 23.60424,-37.09234 32.90411,-78.37511 27.79496,-123.94862 -4.80259,-43.12113 -29.22552,-74.79709 -73.26634,-95.23364 h 13.38759 L 881.35892,0 Z m 480.46509,1089.2694 c 12.3641,91.0449 -19.1082,-152.96757 0,0 z M 577.77401,40.464019 H 825.66925 L 781.83443,192.20559 H 614.86721 Z m -20.7419,98.197341 24.21652,92.27194 h 10.11652 c -36.17274,19.92564 -69.89313,54.77087 -101.16106,104.53387 -10.11609,25.85225 -34.33349,64.06792 -72.54984,114.64839 -5.62005,21.3562 -3.06508,32.08582 7.56193,32.08582 10.62701,0 18.80006,2.24763 24.42011,6.74367 -5.62005,4.49605 -8.47998,9.80876 -8.47998,16.04192 0,6.23314 2.85993,9.30023 8.47998,9.30023 6.74406,0 7.86888,2.55298 3.37284,7.55994 -4.49605,5.10914 -5.31351,11.85402 -2.55458,20.23301 2.86112,8.48117 4.49605,19.41396 5.10915,32.90209 0.61309,13.48813 8.68596,21.05047 24.4221,22.78758 15.73616,1.7371 35.45629,1.42976 59.06051,-0.81826 10.11609,24.72822 0.30811,39.64816 -29.52926,44.65511 -29.73518,5.00696 -72.14116,4.18949 -127.21768,-2.55457 C 306.88849,600.83574 236.68792,546.27037 171.49531,475.45771 224.3238,436.11735 268.977,398.41019 305.55844,362.44186 c 36.58143,-35.96834 86.24241,-61.30854 149.187,-75.92068 32.5963,1.12401 68.05383,-34.84403 106.27017,-107.90472 -0.71528,-13.18158 -2.04203,-26.56915 -3.9835,-39.9551 z m 114.31903,105.14857 c 17.66609,0.12873 37.66481,2.82122 60.00454,8.07086 59.47034,14.2034 90.12571,46.28809 91.86282,96.25547 1.63492,50.06955 -21.97014,94.11046 -70.81355,132.32682 -48.84342,38.21635 -55.89363,33.72109 -21.04927,-13.48734 34.84436,-47.20844 47.20727,-86.03841 37.09116,-116.3867 -10.1161,-30.34828 -44.95934,-37.70547 -104.53185,-21.96931 -67.4406,-20.23219 -87.98068,-41.58766 -61.51532,-64.06787 16.54085,-14.05013 39.50809,-20.95647 68.95147,-20.74193 z M 555.192,328.41616 c 10.7292,0 41.28229,11.24013 91.86281,33.72035 3.37204,13.48812 13.182,14.30559 29.53126,2.55457 16.34926,-11.85321 32.90207,-14.10083 49.76225,-6.74367 16.86017,7.35715 19.10778,23.29772 6.74366,48.02595 -12.36413,24.72823 -28.09948,45.26623 -47.20767,61.51329 -19.1082,16.34924 -27.28324,33.71957 -24.42212,52.31684 2.86112,18.59726 13.79387,32.29019 32.90207,41.28228 -1.12401,34.84432 4.19072,64.06948 16.04394,87.6737 11.85321,23.60422 35.1509,41.89459 69.99526,54.76962 34.84436,12.97722 56.81409,35.15014 65.80618,66.62244 l -50.58052,75.92267 c -40.36223,147.65411 -62.12719,291.3228 -65.39704,430.9044 -0.30655,13.6925 4.90314,37.5023 -4.70205,43.6333 -10.83138,6.8462 -45.06183,2.5541 -57.42595,3.1672 -37.80767,2.4524 -75.41096,4.5983 -112.91208,6.6419 l -0.92005,-35.5604 v -69.0752 C 547.5279,1042.5717 533.42782,926.79782 512.07162,878.46537 490.71542,830.13293 463.7379,790.18014 431.14159,758.70784 c 0,-33.72031 24.21739,-55.89324 72.54984,-66.62243 48.33249,-10.7292 75.00263,-36.27656 80.11178,-76.74094 5.10914,-40.46437 -9.29824,-58.4474 -43.0186,-53.95136 -33.72031,4.49605 -52.82814,-5.10876 -57.32419,-28.71299 25.85225,-12.36412 35.1501,-21.97092 27.79294,-28.71498 -7.35715,-6.74406 -19.41476,-10.7288 -36.27492,-11.85282 12.36412,-13.48812 8.99168,-24.72826 -10.1165,-33.72034 l 29.47537,-48.78035 c -0.25261,0.45885 -0.51384,0.89764 -0.76238,1.36709 15.73614,16.86016 32.59636,24.42251 50.58052,22.78758 17.98417,-1.73711 36.58145,-8.68515 55.68965,-21.04927 h 33.72035 v -10.1165 H 599.8451 c -26.97628,-16.86016 -48.94396,-24.42251 -65.80416,-22.78758 -14.47078,1.49093 -26.45082,9.32588 -35.9536,23.59187 l 10.61145,-17.56268 c 19.10818,-15.73616 53.44093,-11.23889 102.89734,13.48933 15.73616,-3.37203 10.93357,-11.24172 -14.3056,-23.60584 -25.34136,-12.36412 -51.3972,-17.47168 -78.37345,-15.22365 13.48813,-21.3562 25.54573,-32.08582 36.27492,-32.08582 z m 156.25795,30.38144 c -3.03177,0.0129 -6.47625,0.54684 -10.33999,1.6006 -12.36413,3.37204 -23.91161,12.97884 -34.53863,28.71498 -10.7292,15.73616 -13.79428,27.58859 -9.29823,35.45666 -10.1161,4.49605 -16.04353,10.72842 -17.67845,18.59649 -1.8393,7.76589 1.83888,13.59152 10.83097,17.57665 8.99209,3.98513 21.96932,-2.24924 38.82949,-18.59848 16.86018,-16.34925 28.10029,-31.16499 33.72035,-44.65312 5.62006,-13.48813 6.43752,-23.9108 2.55457,-31.16578 -2.73972,-5.05805 -7.41009,-7.55627 -14.08008,-7.528 z m -7.01904,17.79219 c 6.32256,-0.26942 9.13259,2.76414 8.43008,9.15056 -1.12401,10.1161 -5.9266,20.23142 -14.3056,30.34752 -8.48118,10.11609 -16.35089,16.86097 -23.60588,20.233 -7.35717,3.37204 -7.35717,-4e-4 0,-10.1165 7.35717,-10.11609 7.35717,-13.48854 0,-10.1165 -7.35717,3.37203 -8.78691,0.5121 -4.29086,-8.47999 4.49604,-8.99208 10.72838,-17.98459 18.59646,-26.97667 6.32257,-2.52903 11.38226,-3.87976 15.1758,-4.04142 z m -178.10957,16.85818 c 0.96448,0.0264 1.86923,0.24908 2.71224,0.67058 -8.99208,11.24011 -5.61964,19.1098 10.11651,23.60584 16.86019,-5.62005 19.72009,-13.48975 8.47998,-23.60584 12.36412,3.37203 24.21856,8.48159 35.45867,15.22565 -14.71433,5.62004 -29.32648,8.38019 -43.93865,8.38019 -13.48813,1.12401 -23.09494,-3.37324 -28.71499,-13.48934 6.39281,-7.30606 11.70686,-10.90123 15.88624,-10.78708 z m 129.21343,44.50743 c 7.86808,4.49604 9.30027,8.9933 4.19113,13.48934 -5.10915,4.49604 -8.68677,4.1887 -10.9348,-0.81826 -2.24802,-5.10915 -4e-4,-9.29904 6.74367,-12.67108 z M 93.956078,1175.5141 c 3.754219,0.1308 7.959082,0.6619 12.653102,1.6326 44.55169,9.1965 94.41662,47.2089 133.96135,69.8935 38.93164,22.2759 70.30146,41.3828 110.9702,64.6805 29.01991,16.5537 53.64684,37.1958 85.11914,50.2752 14.91869,6.2332 30.55229,11.7515 46.08407,16.2475 29.01991,8.379 57.12146,0.6119 86.55011,-2.2492 56.20048,-5.5179 112.29827,-9.2987 168.29438,-13.7947 9.09428,1.2262 10.62661,20.8465 17.47286,35.4587 l 5.62006,38.113 c 1.94148,11.6488 -6.4367,59.5738 -8.37818,71.2227 -4.70041,29.633 -16.24666,67.3385 -24.11475,91.9645 -4.49604,13.8969 -15.63398,31.8807 -21.96931,44.0404 l -14.61297,17.4729 c -13.59032,13.0794 -46.0853,38.7273 -63.14984,39.3404 -33.20933,0.7153 -69.48312,2.248 -106.0646,2.0437 l -18.39292,0.5109 -16.14569,-1.3292 c -35.6618,-1.5327 -70.608,-5.4145 -102.28466,-14.1 -67.33844,-18.4951 -88.79615,-128.9549 -118.7357,-186.4838 C 215.94571,1429.5389 152.38707,1373.0304 106.60918,1299.4588 82.947488,1261.4277 37.642789,1173.5522 93.956078,1175.5141 Z"
     style="display:inline;stroke-width:1.02183" /></svg>
