<?xml version="1.0" encoding="UTF-8" standalone="no"?>
<svg
   width="1799.406"
   height="1579.4767"
   id="svg1909"
   version="1.0"
   xml:space="preserve"
   xmlns="http://www.w3.org/2000/svg"
   xmlns:svg="http://www.w3.org/2000/svg"
   xmlns:rdf="http://www.w3.org/1999/02/22-rdf-syntax-ns#"
   xmlns:cc="http://creativecommons.org/ns#"
   xmlns:dc="http://purl.org/dc/elements/1.1/"><metadata
     id="metadata1916"><rdf:RDF><cc:Work
         rdf:about=""><dc:format>image/svg+xml</dc:format><dc:type
           rdf:resource="http://purl.org/dc/dcmitype/StillImage" /></cc:Work></rdf:RDF></metadata><defs
     id="defs1914" /><path
     id="path1911"
     style="display:inline;opacity:1;fill:#000000;stroke:none;stroke-width:95.2496"
     d="M 359.37563,0.08565221 C 329.05669,0.95432721 299.6932,9.2018912 271.19527,24.827852 233.19804,45.662471 205.2965,89.616364 187.85216,156.72735 c -2.73957,23.4234 -12.28745,60.56783 -28.83552,111.24876 -0.76105,17.77809 3.10364,25.23006 11.72018,22.32266 8.61674,-2.9074 15.16313,-2.5471 19.34891,1.11771 -3.37394,4.42367 -4.40668,9.05792 -2.60552,14.32385 1.80116,5.26567 4.54221,7.1226 8.18665,5.39516 4.90448,-1.85394 5.30516,-0.5795 1.30182,3.90734 -4.00409,4.48691 -2.99495,10.20673 2.78964,17.11533 5.78326,6.90872 10.6557,15.95406 14.32571,27.15988 3.67005,11.20584 11.23417,15.57143 23.06841,13.02202 11.83433,-2.54964 26.43314,-7.347 43.53132,-14.50982 l 25.4861,-0.55793 c 58.80629,0.66008 82.33187,31.7653 127.80618,35.34653 3.14018,0.41148 7.17599,17.64717 7.81283,18.04522 l -21.57876,122.22505 c -16.53406,100.01955 -14.2505,156.95832 -14.3257,205.00837 -47.13718,51.9736 -103.4156,216.46753 -141.20014,282.21432 -46.67909,29.638 -65.47485,63.6094 -56.36735,101.7602 -0.76961,16.7773 0.29814,26.8624 2.9756,30.3252 2.67738,3.4633 6.19332,4.3525 10.60435,2.6037 5.33101,3.4547 10.29471,3.6538 14.69764,0.742 3.55385,2.3031 7.92442,1.8125 13.208,-1.6737 5.33101,3.4547 9.14258,4.7808 11.34823,3.9073 2.20769,-0.8763 3.19301,-3.7453 3.16159,-8.3726 -2.08664,-46.2692 3.55026,-74.9179 16.74338,-85.9469 5.26758,-5.7997 8.7798,-4.5578 10.60433,3.5356 -10.45607,23.1683 -13.57516,37.4086 -9.11652,42.6014 5.36293,8.0828 11.16873,7.775 17.30131,-0.9337 -0.94392,-8.6743 2.97771,-20.6532 11.72018,-35.7185 8.74247,-15.0541 11.83374,-27.2152 9.11652,-36.4624 -2.71727,-9.2382 19.99052,-25.485 23.2544,-30.3232 12.18343,-18.06008 48.94403,-24.38118 93.01757,-100.64445 44.07353,-76.26339 86.94109,-154.36741 93.75962,-191.98637 l -4.83536,62.88209 c -2.27826,28.84861 -9.22373,49.00566 -27.71968,98.59869 -18.84485,50.5285 -6.43085,74.93709 -24.92816,101.01636 -24.11268,25.84408 -55.47751,107.87458 -45.57892,146.22338 -1.6581,16.2013 -1.18965,26.1165 1.48781,29.5794 2.67738,3.4633 6.37956,4.1655 10.79031,2.4176 5.33101,3.4548 9.92084,3.8188 14.32384,0.9337 4.44282,2.8794 8.99283,2.9051 13.39582,0 4.44282,2.8794 7.95829,3.5826 10.60433,2.4175 2.64793,-1.1629 3.93683,-3.9294 3.9055,-8.5565 -2.08664,-46.2696 3.55016,-74.9195 16.74337,-85.9488 5.2675,-5.7997 9.19318,-4.3893 11.90618,4.2794 -11.3446,22.5922 -14.4619,36.6466 -9.11468,42.4155 5.36293,8.0828 10.7538,7.5968 15.99762,-1.6738 -0.94391,-8.6743 2.97773,-20.6535 11.72019,-35.7185 8.74238,-15.0795 11.83377,-27.219 9.11653,-36.466 -2.71728,-9.2565 -5.73265,-16.0339 -9.30251,-20.651 24.24146,-64.70488 77.62169,-149.39064 98.5987,-224.91506 20.97704,-75.52439 13.94069,-141.24971 14.32384,-159.24535 0.70326,-33.02561 -23.71317,-110.35564 8.18666,-120.36342 31.89971,-10.00779 44.80079,-6.74832 117.20184,-15.62755 48.45182,-5.94208 94.2318,-13.54343 115.71218,-16.37143 35.05987,-4.61574 59.29565,-9.66731 105.10973,-9.67259 45.06604,-0.005 121.32434,0.42794 138.44944,9.32483 0,0 -209.7891,181.5952 -215.46755,207.21963 3.70159,32.29403 89.07595,147.13042 113.48055,180.0802 17.313,31.82841 48.1148,98.06418 59.1565,114.28927 8.3088,16.9275 29.7258,64.68117 -9.3005,102.32007 -39.026,37.6392 -50.4799,51.6223 -71.6249,68.6454 6.0751,9.4793 18.7198,30.3926 50.0443,23.9984 37.715,-7.6972 65.355,-31.6941 91.7157,-69.3894 26.3612,-37.6944 73.3115,-36.9421 89.1102,-47.0668 32.6514,-20.9244 -4.2697,-53.5024 -45.393,-105.29557 -11.0066,-13.7209 -129.5141,-209.13268 -137.8485,-223.86429 7.4923,-47.41167 280.7354,-205.73348 299.5137,-258.21601 14.4686,55.20837 145.8469,369.36267 169.4778,394.20698 33.5844,55.91891 84.9699,154.00009 103.2401,198.73599 16.028,38.2092 -61.7923,55.5374 -108.1918,75.7416 -20.3932,15.4914 -2.8058,22.7863 4.4542,36.4511 25.3967,1.5088 59.3443,7.5162 105.3178,-9.1115 43.3708,-8.6355 65.1751,6.62 94.4814,-0.012 26.3374,-5.9646 39.5957,-48.048 24.162,-73.8615 -3.9624,-10.5121 -18.3665,-31.5898 -31.9971,-52.6459 -0.9678,-4.1902 -1.7737,-8.1311 -3.1634,-12.838 -8.7138,-70.31823 -62.0028,-239.91829 -76.6824,-281.14934 -30.5664,-85.8526 -35.5661,-138.29204 -53.2059,-202.03277 -8.7981,-31.79138 -26.9223,-77.24024 -46.8807,-120.92322 -19.9586,-43.68296 -30.0666,-90.2925 -50.7881,-120.54941 -11.3589,-16.58644 -65.7477,-78.94938 -160.5471,-103.06398 -109.0609,-27.74225 -215.1613,16.17582 -291.701,29.95138 -49.01924,3.84437 -180.04907,-30.56158 -265.09893,-30.13734 -37.32975,0.18619 -118.61777,-12.36043 -184.91928,-11.53421 -66.87203,0.83343 -79.57442,10.03789 -93.94558,74.04248 -1.19775,5.3343 2.902,6.15828 -16.6612,17.7878 l -45.28916,-14.25427 c 29.06334,-27.42715 48.44975,-58.98723 58.22897,-94.69135 5.50075,-20.08354 7.18261,-40.09831 5.0232,-60.27471 C 483.8283,95.269764 479.72921,79.458674 473.41588,63.709777 458.98528,27.7123 431.15248,6.9652272 389.88679,1.5753172 379.57034,0.22785221 369.48196,-0.20386779 359.37563,0.08565221 Z m 1.67564,34.78860279 c 43.63048,1.056506 71.08512,20.579433 82.04129,58.414949 2.19121,7.567076 3.49107,15.270076 4.27744,22.882436 3.40783,32.98694 -6.23591,66.24973 -29.20747,100.08651 -28.27263,41.64526 -34.36493,39.6972 -18.60314,-6.13906 15.76181,-45.8362 16.38514,-80.11403 2.04758,-102.50418 -14.33742,-22.390126 -42.57803,-21.113986 -84.6468,3.53353 -54.85466,-1.30256 -75.05151,-13.999496 -60.27471,-37.950186 14.77681,-23.950697 46.58869,-36.639408 95.43527,-38.138024 3.05292,-0.09365 6.02181,-0.25646 8.93054,-0.185975 z m 5.39515,87.622415 c 1.71591,0.0169 3.43263,0.12431 5.20732,0.37195 14.19776,1.97919 19.13685,14.51836 15.0696,37.39412 -4.06715,22.87547 -11.53469,43.01897 -22.51049,60.46068 -10.97549,17.44165 -13.59282,33.68012 -7.62685,48.7405 5.96594,15.06037 8.10283,1.42174 24.4543,13.85814 30.01437,21.95835 72.34734,22.93497 107.34143,29.7654 15.06343,-7.12866 15.03217,-25.54001 21.76658,-37.02032 14.93345,-25.45732 -1.43061,-38.24052 43.0753,-49.20466 17.87168,-4.40282 42.76703,-6.65632 69.39123,-6.32504 44.37368,0.55246 92.932,6.17598 117.94576,8.1848 116.65019,8.88287 283.5699,43.7299 327.0473,30.88124 26.2705,17.51356 71.587,150.74882 60.6282,181.8377 -71.2171,-3.04237 -205.37746,0.8412 -243.49976,4.75538 -38.12226,3.91406 -84.39642,13.71815 -113.2945,15.99949 -46.16342,3.64434 -183.83091,22.46177 -198.68335,25.67207 -25.15531,5.4372 -69.95933,9.62248 -94.87918,-0.18598 -20.26831,-9.0068 -9.0135,-44.01607 -7.99881,-63.99607 0.63065,-12.41787 7.49772,-27.85267 -2.60367,-48.36855 -7.84319,-9.13688 -61.95035,-21.20865 -61.95035,-21.20865 -23.48774,-9.96192 -50.39183,-20 -77.01808,-22.88245 -19.41042,-2.1013 -33.3098,-16.9226 -58.41494,4.2793 -32.57522,18.76787 -35.78111,-5.12724 -39.43799,-21.76658 14.03657,-12.30222 17.19422,-20.09166 9.85856,-23.44037 -7.3356,-3.34869 -17.16585,-4.42622 -29.7654,-3.16158 5.08203,-12.76516 -0.15296,-21.05336 -15.81351,-24.92818 l 17.85924,-67.15953 c 10.97592,-17.44167 37.99393,-21.39976 80.92543,-12.09212 10.79842,-6.53048 5.35235,-12.15278 -16.74338,-16.74339 -22.09584,-4.59064 -43.07432,-3.3225 -62.69238,4.09331 5.53018,-20.98007 12.64078,-32.11314 21.39277,-33.67274 8.752,-1.56 33.94326,1.07665 75.34431,7.81469 5.987,8.93089 13.99477,7.20187 24.18426,-5.39515 8.91583,-11.02193 19.42968,-16.67592 31.44105,-16.55741 z m -0.18597,6.32503 c -3.31725,0.13767 -7.26595,1.85283 -11.72019,5.02321 -8.90839,6.34081 -15.77163,17.02394 -20.65073,31.81113 -4.87906,14.78728 -4.41457,25.2064 1.30182,31.44104 -7.15381,4.80304 -10.90236,10.93939 -10.78845,18.41717 0.11431,7.47775 4.21115,11.50277 11.90618,12.09213 7.6951,0.58959 16.4464,-7.35707 26.23,-23.9983 9.78348,-16.64116 15.2553,-31.33347 16.5574,-43.71915 0.6515,-6.19293 0.58555,-11.47943 -0.18597,-15.99762 -0.77153,-4.51816 -2.27082,-8.13267 -4.46527,-10.97629 -2.19436,-2.84347 -4.86793,-4.23095 -8.18479,-4.09332 z m -4.09333,17.30131 c 2.97779,-0.44767 4.82628,1.41783 5.58113,5.76711 1.50971,8.69932 0.18514,17.96318 -3.90735,27.90564 -4.09268,9.94258 -8.38806,17.40063 -13.02201,21.9507 -4.63388,4.55007 -5.62226,1.81713 -2.78963,-7.9988 2.83271,-9.81602 2.02845,-12.54897 -2.60553,-7.99882 -4.63387,4.55006 -5.98731,2.76025 -4.27929,-5.58112 1.70801,-8.34177 4.51655,-16.89177 8.74456,-25.48611 5.19625,-5.28739 9.30026,-8.11108 12.27812,-8.5586 z M 247.19697,184.0732 c -6.20111,0.0684 -11.61098,1.17264 -16.18358,3.16345 -12.19371,5.30892 -20.57521,16.81711 -25.11602,34.97458 17.46192,9.14108 32.56937,11.13913 45.39295,5.7671 12.82365,-5.37216 24.89461,-14.69426 36.27639,-28.09161 l 26.04589,-6.697 -2.60551,-7.99881 -26.04402,6.69699 c -14.85107,-5.31782 -27.43091,-7.92868 -37.7661,-7.8147 z m -1.85974,11.72018 c 10.21488,0.33624 19.74524,1.53864 28.83553,3.34944 -9.26787,9.10032 -19.49097,15.001 -30.69529,17.48727 -9.80898,3.70778 -18.13967,2.38689 -25.11601,-3.72136 4.09268,-9.94239 7.99094,-14.54857 11.90616,-13.57994 -3.82207,12.63866 0.61102,18.56593 13.20985,17.3013 11.92295,-8.00504 12.6158,-15.10798 1.85976,-20.83671 z m 90.784,11.53421 c 4.19108,2.13256 6.59751,4.08535 7.0708,6.32504 0.28384,1.34378 -0.24909,2.89675 -1.30369,4.2793 -2.81158,3.68652 -5.6985,4.04877 -8.55674,0.93174 -2.85815,-3.11742 -1.84435,-6.98404 2.78963,-11.53421 z M 50.04049,1166.9079 c -44.7292055,32.9141 -85.644731,66.5819 0,125.2677 H 1763.9751 c 47.9728,-45.6881 46.5038,-87.3236 0,-125.2677 z m 23.303441,38.1362 H 1732.1915 c 39.671,19.0735 32.9971,36.1755 0,52.1568 H 73.343931 c -14.044865,-13.6676 -36.415475,-25.1322 0,-52.1568 z m 360.118209,126.0947 c -9.55729,0 -20.16528,0.5473 -31.84462,2.7375 -73.96935,12.6512 -194.17022,35.5246 -360.601177,68.6194 -11.67721,4.8647 -14.11026,15.0828 -7.29769,30.6562 l 46.71895,125.5597 c 5.8397,15.5848 15.572353,22.3963 29.198167,20.4368 154.75154,-60.3454 265.70665,-105.1186 332.86292,-134.3172 43.79785,-17.5215 59.8565,-42.8261 48.17699,-75.9152 -9.48971,-24.0906 -28.53989,-37.7772 -57.21168,-37.7772 z m 934.05726,-6.0267 c -28.6979,0 -47.7203,14.5104 -57.2099,38.6011 -11.6789,33.0891 4.3796,58.3938 48.177,75.9153 67.1563,29.1986 178.1095,73.4841 332.861,132.8554 13.6259,2.9163 23.3603,-3.4128 29.2001,-18.9863 l 46.7171,-125.5485 c 6.8149,-16.5762 4.3815,-26.7945 -7.2977,-30.656 -165.4575,-33.0949 -285.6564,-56.4561 -360.5994,-70.0813 -11.6792,-1.9467 -22.2805,-2.0997 -31.8464,-2.0997 z m -954.22075,50.0377 c 9.73277,0.735 15.57183,3.5351 17.51705,8.4024 1.94649,9.729 -12.65407,22.8683 -43.79913,39.4157 -166.43264,65.2156 -252.08123,97.3338 -256.9458,96.354 -4.86446,1.9018 -7.29582,0.4319 -7.29582,-4.4095 l -29.203747,-68.6101 c -3.89162,-4.853 -2.9162,-8.2597 2.923523,-10.2194 3.893324,-1.9481 95.867844,-20.9288 275.924624,-56.9402 17.52034,-3.3975 31.14654,-4.7277 40.8793,-3.9929 z m 982.41455,-6.073 c 8.7595,0.3165 19.7096,1.934 32.849,4.854 181.028,35.9996 273.0023,54.9805 275.9245,56.9401 5.8385,1.9713 6.8121,5.3761 2.9217,10.2174 l -27.7402,68.6121 c -0.9751,4.8992 -3.8968,6.3672 -8.7613,4.4076 -3.8927,0.974 -89.5412,-31.1422 -256.9458,-96.3521 -30.1718,-16.5474 -44.771,-29.6866 -43.7973,-39.4157 1.9465,-5.3631 7.7862,-8.4114 17.519,-9.1463 2.4332,-0.1836 5.1106,-0.2227 8.0304,-0.1171 z m -500.46366,-2.9239 c -14.59928,0 -26.7652,4.6234 -36.49772,13.8681 -9.73303,9.2451 -14.60095,20.1921 -14.60095,32.8435 0,12.651 4.86792,23.3572 14.60095,32.1179 9.73252,8.7609 21.89844,13.141 36.49772,13.141 14.59936,0 27.00731,-4.3801 37.22674,-13.141 10.21953,-8.7607 15.32998,-19.4669 15.32998,-32.1179 0,-12.6514 -5.11045,-23.5984 -15.32998,-32.8435 -10.21943,-9.2447 -22.62738,-13.8681 -37.22674,-13.8681 z m -166.43331,1.4524 c -14.5987,0 -26.76284,4.3804 -36.49586,13.1411 -9.73251,8.7608 -14.59908,19.4667 -14.59908,32.1181 0,12.651 4.86657,23.6019 14.59908,32.8525 9.73302,9.2449 21.89716,13.8682 36.49586,13.8682 14.59927,0 26.76646,-4.6233 36.49958,-13.8682 9.73242,-9.2506 14.59908,-20.2015 14.59908,-32.8525 0,-12.6514 -4.86666,-23.3573 -14.59908,-32.1181 -9.73312,-8.7607 -21.90031,-13.1411 -36.49958,-13.1411 z m 334.32277,0 c -14.5994,0 -26.7653,4.3804 -36.4977,13.1411 -9.7332,8.7608 -14.5991,19.4667 -14.5991,32.1181 0,12.651 4.8659,23.6019 14.5991,32.8525 9.7324,9.2449 21.8983,13.8682 36.4977,13.8682 14.5992,0 27.0093,-4.6233 37.2287,-13.8682 10.2194,-9.2506 15.3298,-20.2015 15.3298,-32.8525 0,-12.6514 -5.1104,-23.3573 -15.3298,-32.1181 -10.2194,-8.7607 -22.6295,-13.1411 -37.2287,-13.1411 z" /></svg>
