<?xml version="1.0" encoding="UTF-8" standalone="no"?>
<!-- Generator: Adobe Illustrator 19.0.0, SVG Export Plug-In . SVG Version: 6.00 Build 0)  -->

<svg
   version="1.1"
   id="Ebene_1"
   x="0px"
   y="0px"
   viewBox="0 0 844.36784 1798.4004"
   xml:space="preserve"
   width="844.36786"
   height="1798.4004"
   xmlns="http://www.w3.org/2000/svg"
   xmlns:svg="http://www.w3.org/2000/svg"><defs
   id="defs2025">
	
	
	
	
	
	
</defs>
<style
   type="text/css"
   id="style2014">
	.st0{fill:#010101;}
</style>

<path
   id="XMLID_21_"
   class="st0"
   d="M 342.64046,0 C 312.64049,0 293.33967,6.3007937 284.83968,18.800781 276.63969,30.900769 272.34046,40.000006 272.14046,46 c 0,0.4 -0.10078,0.69961 -0.30078,1.099609 l -17.79883,34 c -4.79999,7.699993 -2.69999,13.599614 6.5,17.599611 0.7,0.3 1.19844,0.8 1.39844,1.5 0.5,1.6 -0.7,3.30117 -2.5,3.20117 -30.89997,-1.6 -49.69845,0.39923 -56.39844,6.19922 -10.99999,8.99999 -21.50001,28.00003 -31.5,57 -15.99998,42.99996 -22.5,70.09962 -19.5,81.09961 3,10.99999 5.29883,19.80079 6.79883,26.30078 1.5,6.49999 7.50001,7.80078 18,3.80078 10.49999,-3.99999 24.3008,-12.50001 41.30078,-25.5 15.89998,-12.19999 30.10001,-25.6004 42.5,-40.40039 1.2,-1.4 3.39922,-1.10039 4.19922,0.59961 12.99999,30.29997 19.70117,54.6008 20.20117,72.80078 0.5,18.59998 -1.2,41.99925 -5,70.19922 -0.1,1.1 -1.00156,1.99961 -2.10156,2.09961 -52.79995,8.09999 -93.49925,25.3012 -122.19922,51.70117 -0.4,0.3 -0.59922,0.79883 -0.69922,1.29883 -10.89999,44.69995 -17.60156,83.00081 -20.10156,114.80078 -2.5,31.99997 -8.79884,57.99963 -18.79883,78.09961 -9.99999,19.99998 -32.000417,32.5 -65.900387,37.5 h -0.19922 c -16.89998,1 -22.40038,5.00001 -16.40039,12 5.89999,7.09999 11.29883,10.09922 16.29883,9.19922 h 0.40039 53.499997 c 11.34667,-1.91335 22.77533,-4.81935 32.59961,-1.49999 8.49999,3 16.30079,2.30117 23.30078,-2.29883 6.99999,-4.49999 6.79921,-15.00002 -0.80078,-31.5 -7.59999,-16.49998 -3.49999,-37.80081 12,-63.80078 15.49998,-25.99998 23.30078,-51.99965 23.30078,-78.09962 0,-19.79998 1.89922,-31.80039 5.69922,-35.90039 1.3,-1.4 3.60117,-0.79961 4.20117,0.90039 11.69999,35.89996 22.7004,66.10002 32.90039,90.5 10.39999,24.79998 15.19883,46.69963 14.29883,65.59961 0,0.3 -0.0992,0.60039 -0.19922,0.90039 -8.99999,19.69998 -25.0008,29.59961 -47.80078,29.59961 -13.99999,0 -19.29883,4.00001 -15.79883,12 3.5,7.99999 8.79884,12 15.79883,12 h 32.40039 c 19.69673,-9.05773 39.87114,-21.3721 59.90039,-25.5 15.49999,-3 16.49999,-14.00002 3,-33 -13.49999,-18.99998 -19.5,-43.29886 -18,-72.79883 1.5,-28.99997 -5.50041,-52.9008 -20.90039,-71.80078 -0.5,-0.7 -0.70039,-1.50078 -0.40039,-2.30078 L 261.54085,448.5 c 0.2,-0.7 0.69844,-1.2 1.39844,-1.5 22.79998,-9.69999 50.50003,-14.59961 83,-14.59961 33.99996,0 51.80078,-9.3008 53.30078,-27.80078 1.5,-18.49998 -5.19923,-56.60006 -20.19922,-114.5 -0.1,-0.2 -0.10156,-0.39922 -0.10156,-0.69922 0.1,-18.99998 8.10001,-45.90121 24,-80.70117 4.69999,0.5 25.50155,-0.8 16.60156,-2 L 429.33968,208 c 0.4,0 0.79961,-7.8e-4 1.09961,0.19922 l 60.80078,26.10156 c 6.7,2.9 11.4992,4.39884 15.1992,10.29883 14.3,22.29998 35.9,44.29963 65,66.09961 0.8,23.99997 8.6016,42.2004 23.1016,54.40039 5.6,-1.6 5.7996,-6.19884 0.5996,-13.79883 -5.2,-7.59999 -6.2004,-15.40079 -2.9004,-23.30078 15.2,8.69999 24.8996,23.19963 29.0996,43.59961 10.4,-5.3 12.9004,-15.30002 7.4004,-30 -5.5,-14.69999 -21.9996,-32.20041 -49.5996,-52.40039 -8.6,-23.09998 -28.2004,-47.49846 -58.9004,-73.39844 l 0.6992,0.39844 c -24.1,-18.69998 -49.09844,-34.29845 -74.89842,-46.89844 -8.99999,-4.39999 -16.90079,-7.70156 -23.80078,-10.10156 -11.49999,-3.9 -22.20079,-11.39844 -34.80078,-11.39844 -18.99998,0 -18.29883,-4.80079 -19.29883,-15.80078 l -1.30078,-9 c -0.1,-0.9 0.3,-1.80078 1,-2.30078 C 398.93965,97.899242 410.04045,72.199971 401.14046,43.5 392.14047,14.500029 372.64043,0 342.64046,0 Z m -48.38867,48.904297 c 7.16308,-0.04492 15.60157,1.970707 25.28906,6.095703 15.49999,6.499994 25.50001,7.800777 30,3.800781 4.5,-3.999996 8,-0.801161 10.5,9.798828 2.5,10.49999 0.29921,16.800784 -6.80078,18.800782 -7.09999,1.999998 -6.49999,13.500019 1.5,34.499999 -2,24.99998 1.80079,37.5 11.30078,37.5 9.49999,0 17.29884,4.79884 23.29883,14.29883 5.99999,9.49999 5.49999,18.30079 -1.5,26.30078 -15.99998,38.99996 -24,68.09963 -24,87.09961 13.99999,56.99994 21,93.09962 21,108.09961 -3,6.99999 -10.00001,13.5 -21,19.5 -57.99994,1 -91.09962,5.00001 -99.09961,12 1,-10.99999 -22.99966,-17.5 -72.09961,-19.5 19.09998,-16.19999 50.59965,-27.19923 94.59961,-33.19922 8.99999,0 14,-9.8008 15,-29.30078 1,-19.49998 1.5,-39.29885 1.5,-59.29883 0,-20.99998 -10.50002,-54.49965 -31.5,-100.59961 4,-16.99998 10.50001,-25.5 19.5,-25.5 h 28.5 v -37.5 l -30,3 c -7.99999,-3.99999 -10.5,-8.30078 -7.5,-12.80078 3,-4.5 1.49999,-7.5 -4.5,-9 -5.99999,-1.5 -8,-4 -6,-7.5 2,-3.499996 -0.50001,-5.800782 -7.5,-6.800781 l 18,-37.5 c 3.375,-1.499999 7.21387,-2.267969 11.51172,-2.294922 z m -1.36524,6.837891 c -3.03097,-0.04465 -5.14257,0.710939 -6.3457,2.257812 -3.5,4.499995 -3.5,8.800785 0,12.800781 3.5,3.999996 14.79885,1.999992 33.79883,-6 -12.53436,-5.971869 -21.66672,-8.973358 -27.45313,-9.058593 z m -26.74609,56.957032 c 0,3 2.50001,5 7.5,6 0,8.99999 2.29883,14.30078 6.79883,15.80078 4.49999,1.5 9.5,1.5 15,0 5.49999,-1.5 9,-0.29921 10.5,3.80078 1.5,4.1 0.30117,6 -3.79883,6 h -25.5 c -11.89999,0 -21.4004,6.00001 -28.40039,18 -6.99999,11.99999 -15.80079,23.29884 -26.30078,33.79883 -10.49999,10.49999 -22.29884,22.80079 -35.29883,36.80078 8.99999,-31.99997 15.5,-59.99963 19.5,-84.09961 14.99999,0 25.00001,-2.30078 30,-6.80078 5,-4.5 5.5,-13.8008 1.5,-27.80078 z m 376.40041,190 c -8.4,3.3 -12.7008,7.60118 -12.8008,12.70117 -0.1,5.2 3.0004,9.40039 9.4004,12.90039 13.6,8.59999 24.3988,18.79845 32.2988,30.39844 7.9,11.69999 12.8016,27.8008 14.6016,48.30078 -10.4,-4.7 -18.7004,-13.89962 -24.9004,-27.59961 -6.2,-13.69999 -13,-18.00038 -20.5,-12.90039 8.5,37.39996 22.8004,63.20001 42.9004,77.5 20.1,14.29999 31.0996,25.4004 33.0996,33.40039 16.3,60.49994 41.3989,115.10005 75.2988,164 l -0.8984,-1.09961 c -47.3,8.99999 -93.8008,29.79847 -139.8008,62.39844 -49.9,9.79999 -43.7,-11.7 -77.5,-12 -30,-0.3 -46.8008,-5.50001 -50.3008,-16.5 -3.5,-10.99999 -6.2988,-23.50002 -8.2988,-37.5 16,-6.99999 32,-20.29885 48,-39.79883 16,-19.49998 23,-45.80081 21,-78.80078 -1,-35.99996 -16.8008,-58.79884 -47.3008,-68.29883 -30.5,-9.49999 -63.29885,-11.30077 -98.29882,-5.30078 -34.99996,5.99999 -58.00157,35.49966 -69.10156,88.59961 -8.99999,10.99999 -18.00001,26.50002 -27,46.5 -5,12.99999 -5,20.30078 0,21.80078 4.99999,1.5 9.5,3.79883 13.5,6.79883 -4,3 -5.5,5.5 -4.5,7.5 1,2 3,3.5 6,4.5 2,-1 1.5,0 -1.5,3 -3,3 -2.5,5.5 1.5,7.5 3.99999,2 6.5,7.80079 7.5,17.30078 1,9.49999 5.00001,14.5 12,15 6.99999,0.5 18.50001,0.80078 34.5,0.80078 l 4.5,21 c -16.99998,8.99999 -35.29885,13 -54.79883,12 -19.49998,-1 -42.00002,10.29885 -67.5,33.79883 -25.49997,23.49998 -30.19372,34.74353 -43.77487,47.20941 -12.35497,11.34039 -37.79023,72.86559 -69.8902,110.86555 -22.84581,-64.08588 -43.38529,-146.13358 -59.11105,-170.20995 -1.27329,-12.03104 6.23623,-16.44407 -13.28049,-31.04204 -4.99999,-3.99999 -32.991147,-15.37351 -42.491137,-6.37352 -9.49999,8.99999 41.233147,13.12614 33.23316,21.12613 -10.427,13.41882 -39.83727,8.48963 -69.33724,-21.11034 -9.13627,-27.35642 -23.7935497,-22.72417 -27.7935397,-11.72418 -3.14839,11.49757 -0.86609997,26.28229 16.4927597,37.9234 17.28227,11.58975 23.85324,16.99518 69.95319,29.99517 15.279017,34.21621 20.784847,194.16572 89.435947,228.90985 28.99997,3 56.6628,-89.36996 163.76269,-176.46987 30.99997,64.99993 46.5,147.10127 46.5,246.20118 l -67.5,346.7988 v -1.5 c -24.99998,147.0999 -43.50001,239.2012 -55.5,276.2012 -13.99999,37 -29.29885,58 -45.79883,63 -16.49998,5 -44.30082,16.5 -83.30078,34.5 -26.99997,5 -43.300787,13.5 -48.800777,25.5 -5.5,12 5.80081,17.5 33.800777,16.5 34.99996,0 60.99963,-2 78.09961,-6 16.99998,-4 38.80081,-3 65.30078,3 26.49997,6 39.79883,-3 39.79883,-27 3,-45 20.30081,-99.8005 51.80078,-164.4004 31.49997,-64.4999 46,-112.5996 43.5,-144.0996 -2.5,-31.5 7.8008,-57.3008 30.80078,-77.3008 l 102.09962,1.5 c 22,146.0999 35,239.7012 39,280.7012 2,35.9999 -3.5,59.9996 -16.5,72.0996 -13,12 -38.9997,19.5 -78.09962,22.5 -23.99997,13 -36.5,23 -37.5,30 -1,7 7.00002,10.5 24,10.5 15.99999,0 35.79882,-0.5 59.29882,-1.5 23.5,-1 51.9997,-1 85.5996,0 33.5,1 44.8008,-10 33.8008,-33 -11,-67.9999 -12.3008,-134.3005 -3.8008,-198.9004 8.5,-64.5999 3.3012,-125.3004 -15.7988,-182.4004 v -1.5 l -31.5,-210.1992 c 19,-53 18.2992,-103.0997 -2.3008,-150.0996 -20.5,-46.99997 9.5001,-148.4005 52.5,-235.40041 v -0.20117 c 3.3,-1.2 6.9,-2.5 8.5,-3.5 70.2999,-38.89996 130.1012,-67.79885 165.7012,-92.29883 12,-8.29999 26.99922,-19.0004 29.69922,-33.40039 v -18.5 c 1,-2.4 -4.19922,-14.29922 -4.19922,-16.69922 0,-0.3 -4.6012,-12.40117 -4.7012,-12.70117 -25.6,-73.69993 -60.5996,-129.19927 -107.0996,-182.69922 -7,-27.99997 -16,-51.90002 -27,-71.5 -11,-19.59998 -30.5992,-36.70119 -58.6992,-51.20117 z M 392.33968,518 c 27.99997,0 51.49963,6.50001 70.59961,19.5 -1,9.99999 2.80079,9.99999 11.30078,0 8.49999,-9.99999 17.3008,-13 26.3008,-9 9,4 10.7988,12.50001 5.2988,25.5 -5.5,12.99999 -13,24.50001 -22.49999,34.5 -9.49999,9.99999 -11.29882,19.50001 -5.29883,28.5 6.00002,8.99999 9.50002,16.50001 10.50002,22.5 6,53.99995 27,81.09961 63,81.09961 45.9999,1.1 55.1992,35.60124 27.6992,103.70117 -27.5,67.99993 -38.3008,127.09966 -32.3008,177.09962 l -127.59959,30 c -4,-108.0999 -13.29884,-179.90044 -27.79883,-215.4004 -14.49998,-35.49996 -25.80079,-60.3008 -33.80078,-74.30078 -7.99999,-13.99999 5.00003,-21 39,-21 32.99997,0 48,-13.50003 45,-40.5 -3,-26.99997 -15.00002,-37.79882 -36,-32.29883 -20.99998,5.5 -30,-0.8008 -27,-18.80078 11.99999,-7.99999 16,-13.5 12,-16.5 -4,-3 -11.50001,-4.5 -22.5,-4.5 1,-6.99999 -4.00001,-12 -15,-15 8.99999,-23.99998 18.00001,-41.00001 27,-51 9.99999,-5 20.30079,-5 30.80078,0 10.49999,4.99999 21.29884,8 32.29883,9 l -1.5,-7.5 c -5.99999,0 -14.50001,-2.79883 -25.5,-8.29883 -10.99999,-5.49999 -21.50001,-5.80077 -31.5,-0.80078 3,-6.99999 5.5,-12.5 7.5,-16.5 z m 101.67969,14.02539 c -1.8135,-0.0322 -3.9414,0.32422 -6.3789,1.07422 -6.5,2 -12.3008,7.30079 -17.30079,15.80078 -5,8.49999 -6.5,15.29883 -4.5,20.29883 -5,2 -8,5.30078 -9,9.80078 -1,4.5 1.30079,7.80078 6.80078,9.80078 5.5,1.8 12.50001,-1.9004 21.00001,-11.40039 8.5,-9.49999 13.7988,-18.00001 15.7988,-25.5 2,-7.49999 2,-13 0,-16.5 -1.25,-2.1875 -3.3974,-3.32129 -6.4199,-3.375 z m -2.0918,9.29883 c 2.3875,0.125 3.4629,1.575 3.2129,4.375 -0.5,5.49999 -3,11.30079 -7.5,17.30078 -4.5,6.09999 -8.50001,10.09961 -12.00001,12.09961 -3.5,2 -3.5,0.30117 0,-5.29883 3.5,-5.49999 3.5,-7.30078 0,-5.30078 -3.5,2 -4.30078,0.29921 -2.30078,-5.30078 2,-5.5 4.5,-10.29883 7.5,-14.29883 4.99999,-2.5 8.70039,-3.70117 11.08789,-3.57617 z m -94.36133,2.9082 c -4.73437,-0.0469 -8.97656,1.24219 -12.72656,3.86719 l -7.5,7.5 v 7.5 l 4.5,-1.5 c 12.99999,6.99999 27.00001,6.49999 42,-1.5 l 16.5,3 -1.5,-7.5 h -13.5 c -10.62499,-7.49999 -19.88282,-11.28906 -27.77344,-11.36719 z m -3.72656,5.36719 c -2,3 -1.5,6.5 1.5,10.5 -4,-1 -7.5,-2.5 -10.5,-4.5 2,-3 5,-5 9,-6 z m 12,1.5 13.5,7.5 c -5,1 -10.00001,1.5 -15,1.5 3,-3 3.5,-6 1.5,-9 z m 60.09961,24 c 4.99999,3 6,5.80078 3,8.30078 -3,2.5 -5,2.5 -6,0 -1,-2.5 0,-5.30078 3,-8.30078 z m -85.22461,14.20703 c -0.125,-3.9e-4 -0.25,0.0312 -0.375,0.0937 -1,0.5 -1.29883,1.79883 -0.79883,3.79883 0.5,2 -0.30078,3.5 -2.30078,4.5 -2,1 -4,0 -6,-3 -2,-3 -3.5,-4.5 -4.5,-4.5 -1,1 -2,1.80078 -3,2.30078 -1,0.5 -1,1.80078 0,3.80078 2,-2 4.30078,-1.30117 6.80078,2.29883 2.5,3.5 5.5,4.5 9,3 3.5,-1.5 4.79883,-4 3.79883,-7.5 -0.875,-3.2375 -1.75,-4.79024 -2.625,-4.79297 z m -10.875,21.79297 c 3,1 6.80079,1.80078 11.30078,2.30078 4.5,0.5 6.29883,0.79883 5.29883,0.79883 l -19.5,1.5 c -3.1,-0.1 -4.09961,-0.79883 -3.09961,-2.29883 1,-1.5 3,-2.30078 6,-2.30078 z m 16.5,4.5 c -1,2 -3,4 -6,6 -3,2 -6,3 -9,3 -2,1 -3.29883,1 -3.79883,0 -0.5,-1 -0.30117,-2.5 0.79883,-4.5 z M 551.43927,1034.5 c 31,38 32.5,83.0997 4.5,135.0996 l 31.5,181.5996 H 360.83968 l 57,-283.6992 z" />
</svg>
