<?xml version="1.0" encoding="UTF-8" standalone="no"?>
<svg
   width="1133.7552"
   height="1797.8621"
   id="svg1996"
   version="1.1"
   xmlns="http://www.w3.org/2000/svg"
   xmlns:svg="http://www.w3.org/2000/svg"
   xmlns:rdf="http://www.w3.org/1999/02/22-rdf-syntax-ns#"
   xmlns:cc="http://creativecommons.org/ns#"
   xmlns:dc="http://purl.org/dc/elements/1.1/">
  <metadata
     id="metadata2003">
    <rdf:RDF>
      <cc:Work
         rdf:about="">
        <dc:format>image/svg+xml</dc:format>
        <dc:type
           rdf:resource="http://purl.org/dc/dcmitype/StillImage" />
        <dc:date>29/01/2006</dc:date>
        <dc:creator>
          <cc:Agent>
            <dc:title>Serge Thomas</dc:title>
          </cc:Agent>
        </dc:creator>
        <dc:publisher>
          <cc:Agent>
            <dc:title>Serge Rosmorduc</dc:title>
          </cc:Agent>
        </dc:publisher>
        <dc:description>Original by SJP Thomas, from  KV57. Simplified to match the Pashed font style (60px wide lines) by S. Rosmorduc.</dc:description>
        <cc:license
           rdf:resource="http://creativecommons.org/licenses/GPL/2.0/" />
      </cc:Work>
      <cc:License
         rdf:about="http://creativecommons.org/licenses/GPL/2.0/">
        <cc:permits
           rdf:resource="http://web.resource.org/cc/Reproduction" />
        <cc:permits
           rdf:resource="http://web.resource.org/cc/Distribution" />
        <cc:requires
           rdf:resource="http://web.resource.org/cc/Notice" />
        <cc:permits
           rdf:resource="http://web.resource.org/cc/DerivativeWorks" />
        <cc:requires
           rdf:resource="http://web.resource.org/cc/ShareAlike" />
        <cc:requires
           rdf:resource="http://web.resource.org/cc/SourceCode" />
      </cc:License>
    </rdf:RDF>
  </metadata>
  <defs
     id="defs2001" />
  <path
     style="display:inline;fill:#000000;fill-opacity:1;stroke:none;stroke-width:0.996927"
     d="M 733.78968,0.23142002 C 648.54916,2.5699762 553.73786,25.401558 502.9383,99.694167 480.48672,132.2461 463.49409,171.66956 471.0682,211.89155 c -20.42191,47.07642 -64.77837,83.28479 -71.7449,135.96449 -6.65258,42.64609 57.73529,33.89481 42.00278,75.17561 0.94129,30.99798 35.29058,61.53233 23.89703,81.32591 -19.83199,84.45817 -43.2355,173.69328 -103.14104,239.40429 -23.91237,41.45548 -63.35194,13.72886 -97.15232,13.10947 -41.48617,24.32703 15.43698,63.88828 45.33493,60.60585 66.66055,5.41677 116.90729,-50.0539 146.90885,-103.07195 36.82097,-60.18774 63.80605,-127.88711 85.89152,-193.49736 36.19277,-14.26465 72.7615,-27.16962 81.27766,22.49566 27.04766,71.49943 1.37198,147.39318 -6.04538,220.05674 C 591.24125,948.98144 564.00392,1134.4785 535.74386,1319.8205 432.80109,1191.8558 330.28531,1063.5361 227.07561,935.79338 187.81066,896.05922 123.78525,896.47227 73.916833,913.04597 32.399227,930.19835 -11.919505,973.58626 2.9323091,1022.5273 93.88749,1210.6237 175.50826,1404.0116 232.08603,1605.4713 c -69.28171,26.4336 -139.224547,51.3259 -208.089095,78.7321 -27.8119395,16.2829 -14.290774,48.7026 -8.40009,72.97 1.811995,25.0382 23.786576,44.6021 49.223874,40.0195 H 977.03994 c 12.67175,-7.5529 43.97606,-13.6452 48.27436,-16.8784 -17.2143,-14.1986 -10.038,-39.1327 -28.39792,-53.176 -18.28743,-21.6141 -36.57487,-43.2283 -54.8623,-64.8424 35.99206,-199.4011 55.93236,-409.3309 57.82164,-611.9771 39.05858,0.2403 143.77018,13.5588 133.12378,-46.4867 2.2,-212.00169 -15.9831,-416.1549 -49.9314,-635.86463 C 1066.1073,258.19902 1043.2701,138.00108 954.93109,63.050337 894.11065,10.181919 811.85258,-1.9102183 733.78968,0.23142002 Z m 5.23387,73.39877298 c 66.53921,-2.014717 141.31405,8.342824 187.01469,62.278327 67.7456,79.95277 71.68561,190.05751 87.38856,290.0173 28.8486,183.64177 48.1736,369.61002 46.4076,553.48204 h -80.98753 c 0,0 -6.21484,-280.43024 -6.21484,-372.0822 0,-30.53508 -45.51551,-41.32292 -70.35904,-42.29831 -26.18848,-1.0282 -81.64227,9.76317 -80.9517,42.29831 1.89187,89.1389 0,313.34273 0,372.0822 h -58.44456 c 0,-41.14646 12.74093,-563.82967 11.04855,-574.76699 14.26603,-30.98082 78.96631,-95.53041 91.58153,-133.31468 13.56,-40.61438 -4.55407,-101.27995 -53.94005,-99.2082 -33.4199,1.40198 -59.01431,18.99483 -92.21099,-1.22356 C 678.67678,146.11899 624.17179,141.60995 577.13321,131.26019 615.92078,74.612112 675.38334,75.557133 739.02355,73.630193 Z M 543.40774,184.13335 c 57.7786,10.25393 118.75503,21.35897 164.36363,61.29258 15.95453,21.52213 45.35601,29.29704 57.16461,-1.26658 31.12038,-43.69948 63.48962,17.823 41.10342,48.00169 -13.05267,32.59307 -84.40675,73.91951 -98.44947,100.52452 13.53429,53.0777 -9.49533,581.91508 -9.49533,643.96164 0,38.896 171.74336,33.2746 171.74336,0 0,-146.28986 -3.95272,-406.83422 11.25331,-411.90288 46.87503,-15.62502 38.96122,16.72594 38.96122,16.72594 -1.44126,190.05148 8.84244,311.79399 4.72075,501.80684 -6.02503,175.4768 -26.01791,350.38 -57.92487,523.0067 -4.45596,24.6999 18.16432,39.9228 31.06047,57.4791 H 125.78866 c 56.03486,-21.2604 112.42457,-41.6668 168.23476,-63.468 30.09883,-15.7648 16.1803,-52.5036 8.05406,-77.3012 -56.80703,-200.3338 -136.70844,-393.3734 -227.724042,-580.4142 21.66332,-28.73056 65.284472,-33.24964 96.336982,-18.7265 52.33583,62.1007 102.12106,126.7185 153.4733,189.7899 70.21548,87.0128 139.63206,174.7166 210.34837,261.2959 25.34392,24.5551 67.36417,-0.6982 63.13542,-34.1843 37.21885,-251.096 89.01318,-494.4807 117.92532,-746.72568 10.98444,-77.84344 -25.05186,-167.15005 -80.07935,-222.9542 -35.27019,-32.08775 -95.17773,44.5154 -114.8067,-0.10421 -25.52857,-25.96632 57.85819,-12.00732 19.41864,-34.83423 -45.16241,7.56608 -23.0551,-52.82238 -64.7825,-62.93815 9.49332,-26.36395 39.2922,-45.99586 64.51548,-26.33088 39.13497,9.58143 78.90639,-4.80988 114.57096,-20.08144 -31.635,-31.635 -42.97659,-38.33649 -64.13332,-38.33649 -25.87578,0 -64.4704,9.41706 -64.61536,17.80137 16.6283,-24.21386 21.88068,-53.23769 17.74706,-82.11724 z"
     id="path1998" />
</svg>
