<?xml version="1.0" encoding="UTF-8" standalone="no"?>
<svg
   xml:space="preserve"
   viewBox="0 0 1298.7802 1797.4548"
   y="0px"
   x="0px"
   id="Ebene_1"
   version="1.1"
   width="1298.7802"
   height="1797.4548"
   xmlns="http://www.w3.org/2000/svg"
   xmlns:svg="http://www.w3.org/2000/svg"
   xmlns:rdf="http://www.w3.org/1999/02/22-rdf-syntax-ns#"
   xmlns:cc="http://creativecommons.org/ns#"
   xmlns:dc="http://purl.org/dc/elements/1.1/"><metadata
     id="metadata62"><rdf:RDF><cc:Work
         rdf:about=""><dc:format>image/svg+xml</dc:format><dc:type
           rdf:resource="http://purl.org/dc/dcmitype/StillImage" /></cc:Work></rdf:RDF></metadata><defs
     id="defs60" /><style
     id="style52"
     type="text/css">
	.st0{fill:#010101;}
</style><path
     d="m 1145.8893,1169.9004 c 0,-30.4033 -2.63,-91.841 -7.8901,-184.31321 -5.2601,-92.47223 -12.2034,-153.90998 -20.8299,-184.31325 -8.6266,-30.40327 -16.8323,-53.86323 -24.7224,-70.37988 -7.8901,-16.51666 -27.0368,-20.82993 -57.4402,-12.8346 -52.81121,21.14552 -79.65687,44.28937 -112.69018,103.72829 -0.5976,49.01602 -150.80139,199.15945 -280.72795,339.61105 z M 862.47604,278.10625 c -17.14786,0 -30.08766,-6.6277 -38.609,-19.7779 -8.62653,-13.25541 -9.25774,-29.03565 -1.99883,-47.55114 7.25891,-18.51548 10.94097,-38.9246 10.94097,-61.43775 0,-21.14552 -6.94331,-31.35008 -20.82992,-30.71887 -13.88662,0.63121 -24.40678,7.57452 -31.66569,20.82992 -7.25891,13.25541 -14.83343,15.88545 -22.82875,7.89012 -44.9211,2.63004 -71.32671,5.57569 -79.21683,8.94214 -7.89012,3.26125 -12.51899,14.83343 -13.88661,34.71654 17.14786,-10.52017 37.03097,-15.14904 59.43892,-13.88662 22.40794,1.36762 30.40327,5.26008 23.77556,11.88779 -47.55113,-2.63004 -75.32436,6.6277 -83.21448,27.77323 l -3.99766,65.43541 c 15.88544,0 21.14552,7.25891 15.88544,21.77673 15.88545,-5.26008 27.03682,-6.31209 33.66452,-2.94564 6.6277,3.26125 3.99766,11.57218 -7.89012,24.72238 10.52016,18.51549 28.08883,20.82992 52.49561,6.94331 24.40678,-13.88662 43.97428,-0.94682 58.49211,38.609 0,26.4056 -9.88896,46.60432 -29.77206,60.49093 -19.77791,13.88662 -25.7744,38.609 -17.88428,74.27235 5.26008,31.66569 49.60231,95.44405 149.96466,199.80407 3.99766,18.51548 30.98214,22.17136 64.01545,2.28825 48.91875,-25.14318 73.00995,-58.1765 72.37875,-99.09993 -0.6312,-40.92343 -0.9468,-79.95323 -0.9468,-116.87901 0,-37.03097 -0.3156,-68.06545 -0.9468,-93.10343 -0.6312,-25.14319 -25.4588,-35.66336 -74.27241,-31.66569 -49.02396,3.78725 -86.68614,-25.8796 -113.09175,-89.31619 z M 662.27734,242.4429 c 2.63005,-17.14786 9.57335,-29.77206 20.82993,-37.66218 11.25657,-7.89012 29.35125,-9.25774 54.49444,-3.99766 l 25.7744,-11.88778 3.99766,5.99649 -23.77557,11.88778 c -7.89012,14.51783 -18.51548,25.7744 -31.66569,33.66452 -13.2554,7.89012 -29.77206,8.62654 -49.65517,1.99883 z m 21.88194,-25.7744 c -3.99766,2.63005 -6.6277,7.89013 -7.89012,15.88545 6.6277,3.99766 14.51783,3.26125 23.77557,-1.99883 -13.25541,1.36762 -18.62069,-3.26125 -15.88545,-13.88662 z m 15.78025,13.88662 c 10.52016,-5.26008 19.7779,-12.51899 27.77323,-21.77674 -9.25775,-1.36762 -17.88428,-0.63121 -25.7744,1.99883 9.25774,2.63004 8.62653,9.15254 -1.99883,19.77791 z m 89.21098,-37.66218 c -6.62771,-2.63004 -8.62654,-11.57218 -5.9965,-26.72122 2.63004,-15.14903 7.57452,-26.72121 14.83343,-34.71653 7.25892,-7.89013 13.57101,-9.57335 18.83109,-4.94448 5.26009,4.62887 8.20573,12.8346 8.94214,24.72238 0.63121,11.88779 -2.63004,26.72122 -9.88895,44.60549 -7.25891,17.88428 -14.20222,27.45763 -20.82992,28.72005 -6.6277,1.36762 -10.94097,-1.68323 -12.8346,-8.94214 -1.99883,-7.15371 0.3156,-14.83343 6.94331,-22.72355 z m 7.89012,-39.66102 c -3.99766,9.25775 -5.57569,17.14787 -4.94448,23.77557 0.63121,6.6277 2.94565,7.89012 6.94331,3.99766 3.99766,-3.99766 5.26008,-1.36762 3.99766,7.89013 -1.36762,9.25774 -0.3156,11.57217 2.94565,6.9433 3.26125,-4.62887 6.31209,-12.20339 8.94214,-22.82875 2.63004,-10.52016 2.63004,-19.77791 0,-27.77323 -2.63005,-7.78492 -8.62654,-5.15488 -17.88428,7.99532 z m -41.55464,-35.66335 c 38.29339,-31.665695 67.01343,-38.609002 86.16013,-20.829923 19.14669,17.779083 24.40678,50.496783 15.88544,98.047923 -8.62653,47.55113 -2.31443,48.60315 18.8311,2.94564 21.14552,-45.6575 22.09234,-86.58094 2.94564,-122.875505 -19.1467,-36.294562 -52.81122,-48.603152 -101.09876,-36.610167 -48.18235,11.887784 -77.6388,30.403271 -88.15897,55.441258 -10.52016,25.248394 11.25658,33.138524 65.43542,23.880774 z m 37.66218,87.21215 c -3.99766,5.26008 -4.31327,8.94214 -0.94682,10.94097 3.26125,1.99883 6.3121,0.94681 8.94214,-2.94565 2.52484,-3.99766 -0.1052,-6.6277 -7.99532,-7.99532 z m 395.45303,999.20498 h -29.6669 v 53.5476 53.5477 c 17.1479,23.7755 25.7744,59.7545 25.7744,108.042 0,48.2876 -4.0658,161.1218 -21.2137,233.8161 -6.5948,39.0428 -11.0519,69.3995 -1.1488,95.0313 6.6277,14.5179 -0.7878,31.0394 -7.5208,38.0879 -5.4937,20.6972 -92.365,3.4568 -137.1315,6.5176 -25.17285,1.5907 -49.50631,2.9263 -73.32562,2.9457 -10.38626,0.022 -31.33311,-1.764 -29.66686,-14.8334 0.63121,-4.9445 4.83928,-10.8358 12.41379,-17.5687 25.34551,-27.1101 60.82485,-24.2846 92.89309,-35.453 15.9907,-5.5757 28.1941,-12.7294 36.3998,-21.2507 22.3893,-28.0049 34.7898,-79.1082 33.3035,-109.8176 -2.63,-25.7744 -6.7329,-62.2794 -12.4138,-109.5149 -5.5756,-47.2356 -12.7294,-105.2017 -21.2507,-173.8983 -9.889,-20.5143 -17.8843,-39.3454 -23.7756,-56.4933 -5.9965,-17.1479 -9.8889,-32.7177 -11.8878,-46.6043 l -48.60317,-1.9988 -48.60315,-1.9989 c -5.99649,11.8878 -12.7294,23.986 -20.30392,36.1894 -15.20765,25.7412 -35.28764,46.8083 -46.07831,73.3255 -4.62887,11.5722 -6.9433,22.6184 -6.9433,33.2437 1.99883,38.9246 -7.04851,84.6873 -27.24723,137.183 -20.19871,52.4956 -51.33839,111.8293 -93.62944,177.8959 -7.25892,7.8901 -12.20339,18.8311 -14.83343,32.7177 -2.63004,13.8866 -0.8021,41.4366 1.19673,61.2145 1.36762,15.8854 -2.52484,26.616 -11.67738,32.1917 -9.15254,5.5757 -23.35476,6.1017 -42.81706,1.4728 -19.4623,-4.6289 -41.61391,-7.6994 -59.919,-7.0682 -18.30508,0.6312 -35.01239,-5.6483 -52.16025,0.243 -17.14787,5.9965 -32.4021,9.4681 -45.86791,10.6253 -13.36061,1.1573 -24.82758,-0.1052 -34.40093,-3.682 -9.57335,-3.6821 -16.20105,-7.3641 -19.77791,-11.1514 -3.57685,-3.7872 -4.31326,-7.6797 -1.99883,-11.6774 2.31444,-3.9976 7.99533,-7.8901 17.04267,-11.8878 9.04734,-3.9976 21.56633,-7.8901 37.45177,-11.8877 42.32204,-20.5195 87.16124,-23.7282 128.23437,-44.4342 10.52017,-5.26 14.83985,-30.0486 23.36118,-44.2508 8.62653,-14.2022 16.20105,-32.8229 22.82875,-55.9673 6.6277,-25.1432 15.88545,-56.4932 27.77323,-94.1554 11.88778,-37.6622 26.40561,-81.5313 43.55347,-131.8177 -1.36762,-24.4067 0.73642,-50.9176 5.9965,-79.322 5.26008,-28.2992 13.67621,-58.4921 24.82758,-90.1578 l -225.89815,-4.6289 315.74034,-339.16993 c -13.88661,-1.33255 -27.77323,-2.66511 -41.65984,-3.99766 5.99649,-17.88428 11.25657,-33.03331 15.88544,-45.55231 4.62887,-12.51899 8.62653,-22.40794 11.88779,-29.77206 -17.88428,-11.25657 -26.72122,-21.67153 -26.72122,-31.24488 0,-9.57335 8.94214,-18.30508 26.72122,-26.30041 -1.36763,-12.51899 -5.26009,-25.8796 -11.88779,-40.08182 -6.6277,-14.20222 -15.88544,-29.24605 -27.77323,-45.13149 -25.14319,-23.14436 -45.1315,-43.55348 -59.96493,-61.43775 -14.83342,-17.88428 -24.61718,-33.03332 -29.24605,-45.55231 -29.03565,23.14436 -59.64932,46.60432 -91.63061,70.37989 -49.90106,21.21453 -78.1713,75.09321 -124.34833,90.6838 -7.25891,2.31444 -13.88661,0.84161 -19.7779,-4.41847 -39.66102,-13.2554 -78.48042,-30.40327 -116.4582,-51.54879 -37.97779,-21.14553 -75.11397,-46.28872 -111.51373,-75.32437 -14.46922,2.6948 -27.23473,-4.41551 -35.66335,-13.88661 l -28.72004,472.67087 -28.72005,472.6709 c -3.26125,31.6657 -3.99766,60.5961 -1.99883,86.6861 1.99883,26.09 6.6277,49.3396 13.88662,69.8539 15.14903,34.4009 27.77323,61.7533 37.66218,82.2677 9.88895,20.5143 19.29141,57.5591 23.92029,64.1868 -11.78784,0.1225 -31.442,-0.4986 -37.91211,1.1701 -7.25891,-16.5167 -13.67621,-43.8958 -19.04149,-56.4148 -5.47049,-12.519 -9.99416,-23.1444 -13.67621,-31.6657 -3.68206,-8.6265 -9.04734,-15.5698 -16.09585,-20.8299 -7.04851,-5.2601 -15.88545,-8.9421 -26.51081,-10.941 -7.25891,0 -14.30742,2.2093 -21.04033,6.7329 -6.73291,4.5237 -13.255408,11.1514 -19.567505,20.0935 -6.312098,8.9422 -13.150204,20.1987 -20.514318,33.9802 -7.469315,13.6762 -17.608186,37.2744 -26.129518,55.7899 C 27.372692,1793.0228 7.8347862,1801.7244 0,1791.1758 c 13.886616,-22.408 34.539233,-63.812 47.163428,-83.2743 12.518994,-19.4623 24.406778,-37.4518 35.663352,-53.9684 11.887784,-21.7768 21.67154,-46.0784 29.24606,-72.7996 7.57451,-26.7212 13.045,-55.9672 16.30625,-87.7381 l 29.77206,-482.5598 29.77206,-482.55988 c -15.88545,-29.77206 -23.24956,-55.33605 -22.30274,-76.79718 0.94681,-21.46114 10.41496,-38.8194 28.19403,-51.96961 4.62887,-69.32787 8.62653,-132.76445 11.88778,-190.20454 3.26126,-57.44009 5.9965,-108.98889 7.89013,-154.541196 7.25891,-6.627703 14.20222,-9.783751 20.82992,-9.362945 6.6277,0.315605 12.8346,4.102864 18.83109,11.361776 l -9.88895,187.258905 -9.88896,187.25889 c 12.519,13.25541 21.98714,26.93162 28.19404,41.13384 6.3121,14.20222 9.36295,28.93045 9.36295,44.07948 41.65984,19.77791 82.05726,38.5038 121.40267,55.96727 39.34541,17.46347 77.4284,33.87492 114.45937,49.02395 30.40327,-35.66335 58.1765,-65.54061 83.21449,-89.63178 25.14319,-24.09117 47.55113,-42.39626 67.32904,-55.02045 5.26008,-11.25658 17.67387,-24.40678 37.13617,-39.66102 19.46231,-15.25423 46.07832,-32.4021 79.74284,-51.54879 -4.62887,-9.88895 -9.25775,-19.77791 -13.88662,-29.66686 -14.02038,9.18703 -28.02018,17.65733 -42.60666,23.77557 -6.31209,2.63004 -11.46697,3.15604 -15.56984,1.47282 -4.10286,-1.68323 -7.15371,-5.47049 -9.15254,-11.36178 -1.99883,-5.99649 -4.41847,-10.94097 -7.15371,-15.14903 -3.21024,-7.73554 -13.54507,-9.32724 -16.41145,-16.41145 -1.30857,-4.69992 3.05089,-6.30249 4.20806,-9.67855 -3.71164,0.36905 -7.39369,3.78919 -11.15137,2.20923 -1.89363,-0.84161 -3.26125,-2.73524 -4.20807,-5.68089 -1.78689,-5.60003 -2.9286,-11.33318 -2.94564,-16.83226 -1.99883,0 -4.41847,0.42081 -7.46932,1.26242 -6.47668,1.82886 -15.38113,7.2225 -19.7779,1.47282 -2.31444,-3.15605 -3.78726,-8.62653 -4.41847,-16.62185 3.99766,-25.7744 6.7329,-47.76154 8.41613,-65.85622 1.68323,-18.09468 2.10403,-32.5073 1.47282,-43.13267 3.26125,-33.03331 10.20456,-61.22735 20.51432,-84.68731 10.41496,-23.459968 24.40678,-42.080656 41.87025,-55.967271 17.46347,-13.886614 35.97895,-24.511979 55.44125,-31.981294 19.46231,-7.4693153 39.97662,-11.6773803 61.43775,-12.62419504 21.46114,-0.9468146 40.08182,2.20923424 55.75687,9.67854924 15.67504,7.4693158 28.50964,19.0414948 38.39859,34.9269398 9.88895,15.885446 16.83226,32.086496 20.82992,48.813555 3.99766,16.727066 4.94448,33.769726 2.94565,51.233196 -1.99883,17.46347 -6.4173,34.40094 -13.36061,50.81239 -6.94331,16.30625 -16.30625,32.0865 -28.19403,47.34073 7.89012,31.03448 19.14669,53.86323 33.66452,68.38106 14.51782,14.51782 32.4021,20.82992 53.54762,18.83109 43.5535,-9.25774 79.7429,-7.99532 108.463,3.68206 28.72,11.67738 50.0759,33.98012 63.8574,66.59263 13.7814,32.6125 30.0876,68.90706 48.6031,108.77848 18.5155,39.76621 39.3454,83.10928 62.3846,130.02921 8.6265,21.77674 15.3594,51.9696 20.3039,90.6838 4.9445,38.7142 8.1005,85.73933 9.3629,141.18058 5.9965,17.88428 8.837,35.66336 8.6266,53.54763 -0.2104,17.88428 3.0641,35.66335 -3.248,53.54763 -6.7772,10.49561 -15.2065,38.52322 -25.9373,20.36914 -8.1679,-13.81826 4.5953,-22.55862 9.5398,-39.07528 4.9445,-16.51665 -1.8873,-29.77206 -9.7774,-39.66101 -48.7157,31.47504 -8.4831,131.55527 -43.468,136.20557 -11.6519,1.5488 -26.0038,-57.60888 -24.9437,-71.76479 3.4577,-46.17115 22.5017,-80.82214 43.6557,-105.17356 -3.2612,-16.51666 -7.1537,-33.24372 -11.3618,-50.28638 -9.3704,-36.5608 -21.2318,-72.00403 -27.2472,-106.46405 -3.2612,-19.04149 -5.5757,-38.71419 -6.9433,-59.22851 -22.4079,-33.66452 -42.9222,-68.06545 -61.4377,-103.0976 -18.5155,-35.03214 -35.0322,-70.69549 -49.55,-106.99005 -3.9977,7.89012 -6.3121,17.88428 -6.9433,29.77206 -5.4938,41.98706 6.5103,70.12009 4.9445,102.15078 -1.3677,24.40678 -4.6289,53.12682 -9.889,86.16013 11.2566,5.99649 21.6716,14.83343 31.4553,26.72122 28.5558,35.87202 40.8492,80.22789 47.5511,119.40384 5.4705,32.0865 9.4682,71.2215 12.0982,117.40502 l 10.941,134.76319 z"
     class="st0"
     id="path1591_1_"
     style="stroke-width:1.05202" /></svg>
