<?xml version="1.0" encoding="UTF-8" standalone="no"?>
<svg
   width="1421.5927"
   height="1792.0931"
   version="1.1"
   id="svg3154"
   xmlns="http://www.w3.org/2000/svg"
   xmlns:svg="http://www.w3.org/2000/svg">
  <defs
     id="defs3158" />
  <path
     id="path3152"
     style="fill:#000000;stroke:none;stroke-width:99.7101"
     d="m 1064.7128,0.03054509 c 9.8876,-0.14557691 20.2051,0.22917223 30.955,1.12500001 137.5988,14.3331779 225.39,54.4656699 263.3731,120.3984449 37.983,65.93269 58.7663,163.39957 62.3496,292.39843 3.5836,128.99889 -40.49,191.3488 -132.2227,187.04883 41.5662,47.29957 55.898,148.34779 42.9981,303.14649 -20.0665,293.83056 -43.3567,482.67216 -69.8731,566.52146 -26.5164,83.8493 -2.5093,170.9236 72.0235,261.2227 28.6663,25.7999 28.6663,45.8679 0,60.2012 H 480.77325 c -18.6331,-21.4999 -8.9595,-43.3597 29.0235,-65.5762 37.9829,-22.2164 59.1258,-49.807 63.4258,-82.7735 4.3,-28.6663 -63.7847,-252.2652 -204.24997,-670.79488 -18.6332,-54.46619 -19.3484,-90.30016 -2.1485,-107.5 -22.8196,-23.81093 -53.7088,-48.44419 -27.1351,-100.1119 -68.3221,-99.37482 -140.4202,-221.13719 -188.9196,-342.59513 103.0717,438.00424 26.0019,924.24051 117.8711,1317.72661 14.8929,65.4726 -28.9252,58.323 -43.0761,7.5585 C 72.653685,1146.6988 220.78308,1030.5924 0.7264849,66.141873 -4.3201151,39.711597 17.641685,15.936282 44.388585,18.874295 c 35.2749,3.574847 35.486,203.271095 380.023265,713.169665 40.9166,9.1096 46.2035,36.85986 63.2051,71.92573 29.2944,-1.7232 81.3048,61.47883 81.3048,61.47883 L 850.57017,1278.2454 C 910.76971,879.78225 963.08664,633.96786 1007.5194,540.80203 h -2.1504 c 8.5997,-27.23305 7.1657,-54.46803 -4.3008,-81.70117 -32.96635,4.29997 -60.19932,12.90091 -81.6992,25.80078 l -23.64844,75.25 c -42.99965,7.16657 -73.1009,-0.71729 -90.30078,-23.65039 l 45.15039,-96.75 c 0,-18.63314 -7.16681,-35.83306 -21.5,-51.59961 l -2.15039,-19.34961 2.15039,-8.59961 c 0,-18.63321 -10.03313,-31.53266 -30.09961,-38.69921 -5.73329,-7.16664 -8.59961,-14.33339 -8.59961,-21.5 10.03319,-20.06651 28.66537,-50.1659 55.89844,-90.29883 C 864.90267,182.47126 889.6287,139.11295 920.44517,79.630154 947.40949,27.582713 995.49922,1.0495834 1064.7128,0.03054509 Z m 1.9316,35.52343791 c -56.6161,-1.433299 -98.54233,30.100201 -125.7754,94.599617 -7.16669,2.86664 20.78357,10.7505 83.8496,23.65039 48.7331,10.03322 75.966,30.81652 81.6992,62.34961 15.7665,-14.33325 32.9666,-21.5 51.5996,-21.5 41.5664,4.29994 64.501,32.25002 68.8008,83.84961 -42.9995,74.5326 -70.9497,150.49908 -83.8496,227.89843 37.2665,25.79977 89.5832,37.26706 156.9492,34.40039 48.7329,7.16664 69.5162,-55.9004 62.3496,-189.19921 C 1355.1008,202.53751 1318.1922,112.9545 1251.5428,82.854764 1184.8934,52.754978 1123.2606,36.98728 1066.6444,35.553983 Z M 919.369,168.85282 844.12095,300.00321 c 17.19989,21.49978 25.08184,36.54851 23.64844,45.14843 42.99966,4.29997 64.5,12.18383 64.5,23.65039 0,5.73327 -20.78335,10.75082 -62.34961,15.05079 l 10.75,15.04882 v 34.40039 c 4.3,15.76655 19.35062,19.34993 45.15039,10.75 65.93274,-30.09972 110.36583,-24.36709 133.29883,17.19922 l -6.4512,120.40039 c 45.8662,27.23307 103.9158,27.23307 174.1485,0 -42.9997,2.86667 -88.8648,-12.90103 -137.5977,-47.30078 18.6331,-94.59911 37.9822,-161.96464 58.0488,-202.09765 31.533,-48.73288 39.0595,-79.19179 22.5762,-91.375 -16.4831,-12.18324 -37.626,-4.65884 -63.4258,22.57421 -15.7665,0 -33.6836,-21.49843 -53.75,-64.49804 C 992.46819,183.18783 948.03547,173.15277 919.369,168.85282 Z m 30.09961,36.55078 c 11.46659,0 38.70161,9.31607 81.70119,27.94922 v 6.45117 h -40.85158 l -55.89844,8.59961 c -22.93308,-2.86667 -34.40039,-6.45005 -34.40039,-10.75 8.59989,-20.0665 25.08284,-30.8167 49.44922,-32.25 z m 285.94919,432.14648 c -75.966,31.53302 -141.1821,32.25011 -195.6484,2.15039 -17.1999,40.133 -37.6256,120.04043 -61.2754,239.72266 -23.64968,119.68231 -45.50774,259.79047 -65.57422,420.32227 -12.89989,58.7661 -40.84995,73.8169 -83.84961,45.1504 l -83.84961,-103.1992 c 0,0 -185.34781,-286.13682 -218.36691,-317.05095 -45.9026,-42.97641 -96.6983,-27.41782 -90.0825,41.49493 2.6037,27.12154 151.5002,479.80402 151.5002,479.80402 38.6997,90.2992 55.542,153.7238 50.5254,190.2735 -5.0166,36.5496 -15.4092,62.7081 -31.1758,78.4746 h 636.39645 c -54.4662,-54.4662 -70.2319,-124.6982 -47.2988,-210.6973 22.9332,-85.9993 43.7146,-207.8328 62.3477,-365.4981 18.6333,-157.66516 25.4423,-274.12367 20.4258,-349.373 -5.0167,-75.24932 -19.708,-125.77445 -44.0743,-151.57422 z" />
</svg>
