<?xml version="1.0" encoding="UTF-8" standalone="no"?>
<svg
   width="1330"
   height="1800"
   id="svg1904"
   sodipodi:version="0.32"
   inkscape:version="1.2.1 (9c6d41e410, 2022-07-14)"
   sodipodi:docname="US9A8VARA.svg"
   version="1.0"
   inkscape:output_extension="org.inkscape.output.svg.inkscape"
   xmlns:inkscape="http://www.inkscape.org/namespaces/inkscape"
   xmlns:sodipodi="http://sodipodi.sourceforge.net/DTD/sodipodi-0.dtd"
   xmlns="http://www.w3.org/2000/svg"
   xmlns:svg="http://www.w3.org/2000/svg"
   xmlns:rdf="http://www.w3.org/1999/02/22-rdf-syntax-ns#"
   xmlns:cc="http://creativecommons.org/ns#"
   xmlns:dc="http://purl.org/dc/elements/1.1/">
  <metadata
     id="metadata1911">
    <rdf:RDF>
      <cc:Work
         rdf:about="">
        <dc:format>image/svg+xml</dc:format>
        <dc:type
           rdf:resource="http://purl.org/dc/dcmitype/StillImage" />
        <dc:creator>
          <cc:Agent>
            <dc:title>S. Thomas</dc:title>
          </cc:Agent>
        </dc:creator>
        <dc:description>Sign modified. The fists in the Henu sign are normally closed.
</dc:description>
      </cc:Work>
    </rdf:RDF>
  </metadata>
  <defs
     id="defs1909" />
  <sodipodi:namedview
     inkscape:window-height="1137"
     inkscape:window-width="1920"
     inkscape:pageshadow="2"
     inkscape:pageopacity="0.0"
     guidetolerance="10.0"
     gridtolerance="10.0"
     objecttolerance="10.0"
     borderopacity="1.0"
     bordercolor="#666666"
     pagecolor="#ffffff"
     id="base"
     inkscape:zoom="0.34"
     inkscape:cx="369.11765"
     inkscape:cy="1070.5882"
     inkscape:window-x="-8"
     inkscape:window-y="-8"
     inkscape:current-layer="svg1904"
     width="1800px"
     height="1800px"
     inkscape:showpageshadow="2"
     inkscape:pagecheckerboard="0"
     inkscape:deskcolor="#d1d1d1"
     showgrid="false"
     showguides="false"
     inkscape:window-maximized="1" />
  <path
     id="path1906"
     style="fill:#000000;stroke:none"
     d="m 1171.1209,0.46875 c -4.8712,0.12418782 -9.913,1.4607212 -14.7109,4.1621094 -10.0025,60.7845386 -4.0124,139.4844606 51.3281,185.1601606 7.4372,93.62808 -8.8274,150.4223 -3.0899,246.83398 1.1982,14.80475 -147.0561,5.16684 -221.90234,28.42188 -37.55729,-8.2521 -74.5346,-10.51038 -112.37696,-12.1504 -9.6241,2e-5 -18.94921,-35.15281 -18.94921,-47.37304 0,-4.10009 13.26948,-16.78587 31.58007,-31.58008 C 958.37267,313.04473 993.78656,248.05312 993.53492,168.66602 993.28667,90.307212 955.84,47.911679 867.2107,20.234375 c -23.29315,-7.273971 -55.69695,-9.474609 -88.42773,-9.474609 -24.71313,0 -48.54331,1.822081 -66.32032,6.316406 -59.76393,15.109327 -137.03311,85.590878 -176.85546,164.222658 -6.04208,11.9306 -24.07122,41.24631 -41.05469,66.32031 -23.98287,35.40725 -29.53923,48.62935 -28.42383,60.00391 1.18068,12.04235 3.89994,16.84779 15.79102,18.94922 12.82518,2.26637 13.90333,2.54014 12.63281,15.78906 -1.02828,10.72081 0.19613,16.60069 6.3164,18.94922 6.89875,2.64734 8.53296,2.99458 3.15821,6.3164 -5.37617,3.32276 -7.51832,8.32035 -3.15821,25.26563 2.96358,11.51797 7.87636,29.46316 9.47461,37.89648 4.37854,23.10337 12.38262,28.42383 53.6875,28.42383 1.4289,2e-5 4.80749,0.0106 6.31641,0 45.17657,0 57.88048,25.16995 22.10547,34.73828 -55.90146,14.95145 -144.15716,25.50276 -186.32813,110.53516 -28.53833,57.54387 -41.61004,78.27685 -56.8457,120.00781 -7.4106,20.29795 -62.35476,153.32642 -59.63281,236.27344 1.59115,42.67092 17.31348,65.18202 59.54297,69.77342 42.21259,2.8904 97.5325,-16.3081 125.7207,-30.3398 41.03733,-20.42792 119.03516,-71.43948 119.03516,-71.43948 0,0 0.84228,174.70758 1.66601,237.86918 -2.19319,20.7443 -3.68258,33.5154 -3.68258,33.5154 -237.18677,124.3089 -380.06918,219.073 -471.51468,301.9455 -112.8780646,75.7284 -140.739383,155.7436 -83.585934,240.0449 34.292065,75.7282 194.322524,67.8693 480.089834,-23.5762 214.32549,-92.8743 330.77473,-139.3105 349.34961,-139.3105 31.43447,40.0075 31.43447,93.5886 0,160.7441 -50.00935,18.5749 -68.58399,37.8635 -55.72461,57.8672 34.29207,1.4297 69.65654,-0.3565 106.0918,-5.3574 36.43536,-5.0009 63.58308,-51.4391 81.44336,-139.3125 17.86051,-87.8734 27.86241,-150.0274 30.00591,-186.4629 2.1432,-36.4352 -13.2168,-55.3684 -46.08013,-56.7969 25.71903,-61.4399 27.86233,-131.4531 6.42969,-210.039 -6.99721,-27.2284 -16.9948,-48.317 -29.0293,-64.8067 -21.51099,-72.0305 -24.02487,-107.1194 -25.87305,-151.62692 -8.68969,-209.25204 -6.48214,-255.77171 37.89649,-344.23437 80.9448,-53.50347 216.9114,-67.86671 309.3203,-85.26953 47.1831,-10.07389 48.6317,-46.07849 44.8692,-151.58985 -2.3651,-67.78505 -16.7342,-156.87893 -27.3496,-223.02148 19.1853,-15.93373 28.9271,-27.79798 30.1133,-46.33789 1.753,-27.76444 0.081,-29.64079 -1.0235,-46.734376 1.2775,-24.172263 1.4462,-52.330165 -7.0879,-63.488281 -7.2371,-9.462163 -28.4084,-10.547016 -46.1445,-10.857422 -21.868,-0.391661 -67.7056,7.024903 -74.9824,15.917969 -0.3327,-17.221537 -13.408,-27.74756346 -28.0215,-27.375 z m -389.17973,48.1875 c 91.21009,-3e-6 162.87234,71.51776 170.53711,104.21875 14.15911,60.41203 -19.2262,124.13566 -88.42578,176.85352 -26.43304,20.13766 -44.28829,31.58203 -50.53125,31.58203 -3.65895,1e-5 -0.87033,-2.25744 3.1582,-9.47461 3.27405,-5.865 17.50352,-29.85391 31.58203,-50.5293 24.94827,-36.63736 41.05469,-74.09492 41.05469,-97.90234 0,-6.48096 -5.26396,-21.91949 -9.47461,-31.58008 -9.57084,-21.95915 -27.96626,-28.42383 -66.32031,-28.42383 -7.72598,0 -15.81187,-0.70934 -25.26367,0 -1.2574,0.0943 -1.76844,0 -3.15821,0 -40.93492,0 -136.02868,-39.67772 -126.32422,-47.371093 C 700.73129,62.770767 743.53548,48.65625 781.94117,48.65625 Z M 624.03492,149.7168 c 2.11227,0 3.6927,-0.41627 6.31641,0 21.22574,3.36822 98.16271,35.00049 107.375,44.21289 3.20347,3.20328 5.46193,3.1582 9.47461,3.1582 6.0492,0 14.39543,-4.16987 28.42382,-12.63281 9.29325,-5.60649 19.23627,-6.31446 28.42188,-6.31446 19.8953,0 37.76009,12.17592 37.89844,31.58008 0.12643,17.74296 -30.1712,62.85285 -60.00391,94.74414 -18.6181,19.90277 -29.60591,36.83735 -31.58203,47.3711 -3.97865,21.20797 9.29952,49.57103 25.26562,56.8457 10.13165,4.61623 12.63282,9.76125 12.63282,25.26563 2e-5,26.63141 -21.10007,41.45607 53.6875,75.79492 53.22972,24.44046 88.36896,41.59884 47.37109,129.48242 -45.57779,97.70059 -25.44878,278.35737 -25.35742,447.76169 -46.66057,12.353 -138.68919,40.0887 -197.08789,69.8711 -18.29008,-92.9652 -15.33774,-178.71943 -6.69336,-271.62888 33.61344,-14.09372 91.78889,-35.20686 124.19336,-72.16993 24.26722,-34.10089 -20.82134,-99.39625 -45.86133,-114.09179 9.38602,-9.6997 10.05408,-26.59429 -5.06641,-42.82422 -60.3763,23.23905 -96.77965,75.14133 -107.00195,104.5664 -5.11369,14.71986 5.075,40.78819 0.75195,45.89649 C 587.51378,737.956 544.84074,665.70323 551.3982,585.53711 c 2.85502,-34.90314 94.20296,-40.39428 113.69141,-63.16211 19.48845,-22.76783 18.01355,-54.0684 6.3164,-78.95312 -11.50006,-24.46543 -14.11037,-26.0836 -66.32031,-28.42383 -25.49743,-1.14308 -36.84615,-2.80781 -44.21289,-9.47461 -13.93206,-12.60831 -12.08614,-27.79256 3.1582,-34.73828 18.2435,-8.31227 11.95268,-20.629 -12.63281,-28.42383 -15.74632,-4.99244 -19.66473,-7.96538 -15.79101,-12.63281 6.43507,-7.75392 2.20494,-22.17114 -9.47461,-28.42188 -8.37198,-4.48057 -6.99723,-7.42913 15.79101,-44.21484 13.50207,-21.79563 27.37452,-40.89885 31.58203,-44.21289 4.96568,-3.91113 16.15496,-6.31641 28.42188,-6.31641 16.44684,0 36.01685,3.03075 53.68945,9.47461 26.05722,9.50082 36.64373,12.63281 41.05469,12.63281 2.90536,0 4.06854,-0.15187 3.1582,-3.1582 -3.41735,-11.28715 -58.99057,-37.37868 -88.42773,-41.05664 l -28.42188,-3.15625 15.78906,-18.94922 c 10.87504,-11.29514 16.908,-12.63281 25.26563,-12.63281 z m 183.16992,37.89648 c -24.09767,0 -63.16211,36.89936 -63.16211,66.32227 0,7.43001 -3.00236,16.82712 -6.3164,18.94726 -14.09366,9.01654 -18.87928,17.73669 -12.63086,25.26563 3.77527,4.549 6.77384,9.47461 12.63086,9.47461 9.16388,1e-5 23.19972,-7.72574 37.89843,-18.94922 39.22206,-29.94821 61.67994,-77.2771 44.21289,-94.74414 -3.33252,-3.33264 -7.70271,-6.31641 -12.63281,-6.31641 z m -6.31445,22.10742 c 6.32399,0 11.89899,4.76683 9.47266,12.63282 -6.28996,20.39019 -18.77927,34.14371 -31.58008,44.21289 -8.22797,6.47217 -15.2074,9.47461 -18.94922,9.47461 -4.71636,0 -5.07563,-3.90491 3.1582,-12.63282 4.82043,-5.10969 4.82045,-7.70522 0,-9.47265 -9.73166,-3.56823 -5.48372,-12.41073 9.47461,-28.42383 9.58846,-10.26432 20.77877,-15.79102 28.42383,-15.79102 z m -195.80469,6.31641 c -14.27668,10e-6 -25.28445,3.17909 -34.73828,12.63281 -17.89424,17.89412 -19.26136,22.99454 0,34.73828 10.17103,6.20143 24.41048,9.47461 37.89648,9.47461 15.24969,0 30.5068,-4.78119 47.37305,-12.63281 14.1822,-6.60222 35.19675,-12.63086 44.21289,-12.63086 9.01591,1e-5 15.79102,-0.507 15.79102,-3.1582 -2e-5,-2.65129 -8.60749,-6.31641 -18.94922,-6.31641 -10.34166,0 -30.03069,-2.87238 -44.21289,-9.47461 -17.45312,-8.12488 -34.13636,-12.63281 -47.37305,-12.63281 z m -15.79101,12.63281 c 2.35824,1e-5 4.95019,4.80475 3.1582,9.47461 -1.53892,4.01066 -0.11421,8.68977 3.1582,12.63281 3.64271,4.38924 4.82699,6.31446 3.1582,6.31446 -1.41855,-10e-6 -5.77315,-0.39976 -12.63085,-3.15625 -12.19529,-4.90192 -14.78621,-10.47941 -6.31641,-18.94922 3.747,-3.747 7.42034,-6.31641 9.47266,-6.31641 z m 37.30664,2.80664 c 1.02431,-0.11733 2.24593,-0.11776 3.75,0.35156 5.94868,1.85607 14.01396,6.06102 18.94922,9.47461 8.22099,5.68622 7.57931,7.89756 -9.47461,12.63282 -11.46977,3.18477 -18.72668,3.15625 -22.10743,3.15625 -3.91787,1e-5 -3.79145,-1.74595 0,-6.31446 3.27249,-3.94303 4.76385,-11.60694 3.15821,-15.79101 -1.50931,-3.93304 0.50023,-3.1582 3.1582,-3.15821 0.7149,0 1.54209,-0.23423 2.56641,-0.35156 z m 114.2832,50.88086 c 3.97681,0 9.47461,2.33951 9.47461,6.31641 0,3.97689 -5.4978,9.47461 -9.47461,9.47461 -3.9769,1e-5 -6.31641,-5.49772 -6.31641,-9.47461 -10e-6,-3.9769 2.33951,-6.31641 6.31641,-6.31641 z M 501.29469,718.67773 572.1189,838.44531 c -35.91723,16.91516 -128.39968,55.57545 -156.60156,67.40039 42.53968,-63.9388 64.15808,-118.58018 85.77735,-187.16797 z m 372.40969,425.25917 c 63.39246,35.9067 59.08974,82.0164 68.12546,104.1744 15.48721,60.6044 8.93486,116.6989 -19.83789,168.25 -100.0186,58.5824 -220.04035,95.0182 -360.0664,109.3067 -140.02596,14.2884 -258.62035,65.7265 -355.78126,154.3144 55.72475,-135.7394 104.30593,-223.6137 145.74219,-263.6211 41.43626,-40.0074 122.16512,-92.1593 242.1875,-156.457 37.17725,-19.9164 236.69724,-114.7457 279.6304,-115.9674 z"
     sodipodi:nodetypes="scccccscsssssccccssssscsssccscccccccccsssccccccccccsccssccsccscssscssccssssssssscccccccscssscssscsssscsccccssscsscssscsssscsssssssssssssssssssssssssssssssscccccccscssc" />
</svg>
