<?xml version="1.0" encoding="UTF-8" standalone="no"?>
<svg
   width="1400"
   height="1800"
   id="svg3128"
   sodipodi:version="0.32"
   inkscape:version="1.2.2 (732a01da63, 2022-12-09)"
   sodipodi:docname="US9A9VARB.svg"
   version="1.1"
   xmlns:inkscape="http://www.inkscape.org/namespaces/inkscape"
   xmlns:sodipodi="http://sodipodi.sourceforge.net/DTD/sodipodi-0.dtd"
   xmlns="http://www.w3.org/2000/svg"
   xmlns:svg="http://www.w3.org/2000/svg"
   xmlns:rdf="http://www.w3.org/1999/02/22-rdf-syntax-ns#"
   xmlns:cc="http://creativecommons.org/ns#"
   xmlns:dc="http://purl.org/dc/elements/1.1/">
  <metadata
     id="metadata3135">
    <rdf:RDF>
      <cc:Work
         rdf:about="">
        <dc:format>image/svg+xml</dc:format>
        <dc:type
           rdf:resource="http://purl.org/dc/dcmitype/StillImage" />
        <dc:date>03/04/06</dc:date>
        <dc:creator>
          <cc:Agent>
            <dc:title>Serge Thomas</dc:title>
          </cc:Agent>
        </dc:creator>
        <dc:publisher>
          <cc:Agent>
            <dc:title>Serge Rosmorduc</dc:title>
          </cc:Agent>
        </dc:publisher>
        <dc:description>variante optimisée du signe de Jsesh</dc:description>
        <cc:license
           rdf:resource="http://creativecommons.org/licenses/GPL/2.0/" />
      </cc:Work>
      <cc:License
         rdf:about="http://creativecommons.org/licenses/GPL/2.0/">
        <cc:permits
           rdf:resource="http://web.resource.org/cc/Reproduction" />
        <cc:permits
           rdf:resource="http://web.resource.org/cc/Distribution" />
        <cc:requires
           rdf:resource="http://web.resource.org/cc/Notice" />
        <cc:permits
           rdf:resource="http://web.resource.org/cc/DerivativeWorks" />
        <cc:requires
           rdf:resource="http://web.resource.org/cc/ShareAlike" />
        <cc:requires
           rdf:resource="http://web.resource.org/cc/SourceCode" />
      </cc:License>
    </rdf:RDF>
  </metadata>
  <defs
     id="defs3133" />
  <sodipodi:namedview
     inkscape:window-height="1137"
     inkscape:window-width="1920"
     inkscape:pageshadow="2"
     inkscape:pageopacity="0.0"
     borderopacity="1.0"
     bordercolor="#666666"
     pagecolor="#ffffff"
     id="base"
     inkscape:zoom="0.29291808"
     inkscape:cx="892.74107"
     inkscape:cy="686.19868"
     inkscape:window-x="-8"
     inkscape:window-y="-8"
     inkscape:current-layer="svg3128"
     inkscape:showpageshadow="2"
     inkscape:pagecheckerboard="0"
     inkscape:deskcolor="#d1d1d1"
     showgrid="false"
     inkscape:window-maximized="1" />
  <path
     id="path3130"
     style="fill:#000000;stroke:none;stroke-width:99.6827"
     d="m 823.96067,7.514249 29.83365,90.676244 c -9.96334,-10.09583 -35.50556,-2.6231 -77.24823,22.830467 L 709.7673,185.86921 496.271,359.77838 c -67.93663,43.22483 -105.00421,107.38981 -114.37479,147.20212 29.98365,48.98428 173.76545,231.26262 224.66818,264.63529 50.3919,33.03776 87.89913,70.51548 137.81678,128.05247 57.6098,39.05673 78.78417,256.30934 78.35817,485.74454 L 635.1719,1243.7402 c -38.23616,-33.5642 -71.23237,-50.3569 -98.90336,-50.3569 -14.06278,0 -26.75845,0.9832 -38.02719,3.1042 -33.12393,2.6511 -64.44739,21.8155 -75.90806,42.0178 -45.58931,80.354 -52.28231,197.0526 -155.2063,383.3258 -17.76083,42.7072 -57.21901,100.3834 -84.7534,102.2014 -27.53362,1.8179 -73.61065,11.5125 -138.255596,28.4498 -51.4768698,0 -51.4768698,15.6348 0,45.8887 H 316.35711 c 11.97161,-10.8928 12.05563,-35.8066 4.27423,-72.1054 -7.7845,-36.2986 76.52523,-87.8006 104.05955,-144.0666 13.38119,-27.3451 26.11842,-52.6592 35.66957,-78.5122 6.19335,-30.9738 46.04025,-76.2407 50.54013,-161.4804 l 46.5735,38.8886 194.56285,129.7507 -193.21626,58.5374 c -31.06007,7.1203 -61.44396,17.672 -85.93006,25.1785 -57.35422,15.7631 -84.52824,61.5918 -81.50953,137.363 -1.50546,29.1178 51.14673,67.0376 51.14673,67.0376 h 954.08678 c -25.1553,-48.3049 -60.1691,-67.6127 -104.9458,-57.9547 -44.7765,9.6655 -75.2858,-10.8249 -91.3852,-61.6751 -16.0995,-50.8499 -42.8924,-60.8182 -80.6255,-29.7993 34.5532,-66.0202 37.2207,-135.6818 8.9722,-208.9086 0.081,0 0.1844,0.012 0.2647,0.012 l -8.6474,-49.8974 c -3.4979,-102.8201 22.2792,-253.2222 62.6143,-411.91164 9.3704,-34.12465 22.3255,-26.45831 38.724,23.02264 16.3984,49.481 26.1557,86.6148 34.3548,236.7641 10.542,109.1996 38.7878,187.7798 20.0467,259.4419 -17.5697,28.4374 -28.0964,53.4051 -31.6105,75.0174 -3.5138,21.6126 7.0129,46.1824 31.6105,73.482 41.6644,-0.9687 70.2621,-31.1135 80.804,-65.807 10.5419,-34.6938 13.1736,-59.2711 7.9032,-74.0586 -5.2711,-14.7874 -9.1161,-32.4786 -11.459,-52.9537 7.0282,-54.5996 6.4701,-151.1676 7.3041,-202.1999 0.9225,-56.4507 3.3149,-87.1077 -9.5696,-179.2449 -19.9134,-154.69928 -46.8717,-187.15865 -85.5253,-272.47075 -25.7691,-31.84991 -75.5665,-62.11996 -149.3596,-90.55734 -33.9684,-13.64986 -46.9233,-46.08606 -38.7243,-97.27341 49.1956,-28.43735 86.2379,-61.46161 110.8357,-98.99891 24.5977,-37.53733 34.115,-79.21603 28.8441,-125.28456 -5.0103,-43.79067 -30.7641,-75.8414 -77.0503,-96.50677 h 14.8167 L 1223.1426,5.7293447 Z M 883.62582,48.37889 1165.2563,46.593176 1124.9757,252.05899 H 950.91915 Z m -22.1284,78.39931 54.25553,164.41994 h 11.261 c -37.9046,20.15016 -73.31383,55.30268 -106.09229,105.90717 -10.54185,26.16244 -35.64431,64.69697 -75.46924,115.88417 -5.85658,21.61243 -3.22443,32.42307 7.90315,32.42307 11.12754,0 19.62751,2.35833 25.4841,6.90825 -5.85659,4.54992 -8.89051,10.05241 -8.89051,16.30868 0,6.25622 3.03392,9.20824 8.89051,9.20824 7.02803,0 8.04536,2.55622 3.36002,7.67491 -4.68533,5.11877 -5.49671,11.99716 -2.56842,20.52842 2.92829,8.53117 4.74906,19.73405 5.33473,33.38401 0.58569,13.64988 9.08561,21.3164 25.4841,23.02266 16.3985,1.7062 36.84636,1.31662 61.44407,-0.95885 10.54198,25.02534 0.21908,40.15994 -30.82098,45.27868 -31.03996,5.11878 -75.17123,4.33073 -132.56595,-2.49424 -78.47842,-38.67485 -139.14627,-141.19676 -207.0829,-212.85887 55.05206,-39.81231 92.0371,-87.52139 130.10499,-123.92123 38.06796,-36.39981 58.28181,-74.7417 123.87574,-89.52916 33.96828,1.13752 71.01057,-35.23301 110.83555,-109.17018 -0.7907,-13.8198 -2.6185,-27.9367 -4.7432,-42.01567 z M 1009.597,304.43811 c 18.4209,0.1336 39.3472,2.91742 62.6272,8.24939 62.08,14.21873 93.8659,46.46271 95.6228,97.08123 1.757,50.6185 -22.7398,95.43572 -73.6923,134.1105 -50.9525,38.67484 -58.2415,33.96038 -21.9305,-13.81444 36.3109,-47.77472 49.0681,-86.89729 38.5262,-117.60964 -10.5417,-30.71235 -46.7786,-38.18094 -108.8586,-22.25601 -70.27915,-20.47491 -91.73435,-42.09832 -64.20835,-64.84825 17.2038,-14.21869 41.2121,-21.13495 71.91355,-20.91278 z m -121.10705,85.76103 c 11.1275,0 43.1093,11.40083 95.8187,34.15068 3.5139,13.64994 13.8369,14.43786 30.82095,2.49424 16.9842,-11.94377 34.1922,-14.10973 51.762,-6.71609 17.5698,7.39375 19.9961,23.51678 7.1116,48.54167 -12.8844,25.02484 -29.2811,45.86029 -49.1936,62.35401 -19.9125,16.49362 -28.41475,34.18488 -25.48625,52.95358 2.92825,18.76862 14.26655,32.53335 34.17885,41.63339 -1.1713,35.26231 4.4947,64.94447 16.7937,88.83185 12.2988,23.88736 36.5899,42.36662 72.9007,55.44782 36.311,13.08121 58.9873,35.49265 68.3578,67.34249 l -52.5514,76.74291 c -42.954,152.58311 -68.4986,365.91031 -71.2337,513.17911 l -180.07095,1.1197 v -130.3858 c -7.028,-185.4117 -21.60377,-302.57545 -43.85884,-351.48788 -22.25515,-48.91217 -50.39149,-89.21279 -84.35976,-121.0627 0,-34.12475 25.10249,-56.5384 75.46925,-67.34457 50.36685,-10.80623 78.29935,-36.75188 83.57035,-77.70175 5.2709,-40.94976 -9.7088,-59.23115 -44.84837,-54.68118 -35.13963,4.54998 -55.17556,-5.08255 -59.86086,-28.96998 26.94036,-12.51241 36.65564,-22.14713 29.04203,-28.97209 -7.61352,-6.82499 -20.16485,-10.75714 -37.73463,-11.89466 12.88451,-13.64988 9.44086,-25.0507 -10.47156,-34.15067 l 45.63777,-73.28981 c 19.91236,-15.92493 55.54152,-11.40474 107.07962,13.62015 16.3986,-3.41252 11.5381,-11.4691 -14.8167,-23.9815 -26.3547,-12.51242 -53.67964,-17.62481 -81.79136,-15.34985 14.05587,-21.61237 26.60709,-32.42307 37.73466,-32.42307 z m 160.81855,36.06836 c -2.672,0.17781 -5.4737,0.68224 -8.6948,1.53539 -12.8845,3.41252 -25.0259,13.04722 -36.1535,28.97208 -11.12745,15.92495 -14.36535,27.91367 -9.67995,35.87617 -10.542,4.54999 -16.6178,10.84049 -18.3748,18.80291 -1.757,7.96244 2.0883,13.86286 11.4589,17.8441 9.3705,3.98127 22.73325,-2.30924 40.30315,-18.80293 17.5698,-16.49364 29.3096,-31.62872 35.1662,-45.27866 5.8567,-13.64994 6.8659,-24.07267 2.7663,-31.46633 -3.0748,-5.5453 -8.7752,-8.01591 -16.7915,-7.48273 z m -1.7789,18.22845 c 4.0997,0.85265 5.9205,3.70507 5.3348,8.82385 -1.1713,10.2375 -6.23,20.46015 -15.0149,30.69759 -8.7847,10.23749 -16.8852,17.11804 -24.4988,20.53049 -7.6136,3.41251 -7.6136,0.0683 0,-10.16914 7.6135,-10.23742 7.6135,-13.77382 0,-10.36135 -7.6136,3.41248 -9.0327,0.65835 -4.3474,-8.44158 4.6853,-9.09994 10.9649,-18.14244 19.1642,-27.2424 8.7849,-3.41249 15.2624,-4.69049 19.3621,-3.83746 z m -180.97016,2.87653 c -17.56971,1.7063 -31.54009,12.32111 -42.082,31.6585 16.39848,17.06241 34.01032,24.7289 52.75147,23.02267 18.74104,-1.70624 37.97364,-8.78468 57.88614,-21.29717 h 35.1662 v -10.35925 h -35.1662 c -28.1117,-17.06241 -50.9858,-24.73097 -68.55561,-23.02475 z m -9.0884,13.81442 c 1.39096,-0.14243 2.78021,0.19789 3.95157,0.76666 -9.37055,11.37521 -5.92685,19.24142 10.47156,23.79141 17.56988,-5.68754 20.40588,-13.55398 8.69258,-23.79141 12.8845,3.41249 25.232,8.52486 36.9452,15.34984 -15.2271,5.68751 -30.4106,8.44157 -45.63778,8.44157 -14.05585,1.13746 -23.97703,-3.38482 -29.83362,-13.62224 6.14941,-6.82498 11.23768,-10.50926 15.41049,-10.93583 z m 135.72801,45.08649 c 8.19925,4.55002 9.61605,9.07224 4.3453,13.62225 -5.2709,4.55002 -9.1141,4.35174 -11.4568,-0.76666 -2.3425,-5.11877 0.083,-9.44307 7.1115,-12.85559 z m 93.14705,957.19011 c 20.1244,82.8839 7.0737,153.7541 -39.2081,212.7397 -69.93195,43.7371 -154.17335,50.8063 -252.78243,21.3097 -98.10589,-29.4964 -191.97244,-23.6113 -281.52545,17.5808 10.06214,-31.5341 83.51162,-84.187 220.35672,-157.9207 z"
     sodipodi:nodetypes="ccccccscccscccscccccccccccccccscccccsccscsccsccccssccccccccccccccscsssssscsccsccccssssscscscssssccsscccccscssscsccccscsssscsssssscssssssccscsccccscccccccccscccccccc" />
</svg>
