<?xml version="1.0" encoding="UTF-8" standalone="no"?>
<svg
   width="1533.6444"
   height="1797.3812"
   version="1.1"
   id="svg1"
   xmlns="http://www.w3.org/2000/svg"
   xmlns:svg="http://www.w3.org/2000/svg">
  <defs
     id="defs1" />
  <path
     id="path1"
     style="fill:#000000;stroke:none;stroke-width:104.921"
     d="M 40.622007,0 C -23.579772,70.873909 5.1113328,145.12516 14.870054,210.36719 c 16.77144,112.12565 80.031247,274.24609 80.031247,274.24609 71.817069,-0.0754 132.336229,16.65274 181.748049,49.91211 -17.43993,63.86278 -18.83748,97.82964 -3.64063,100.86914 17.15338,9.80756 25.24531,10.80698 39.58594,14.19727 5.86064,1.38553 19.07067,56.58886 24.86133,57.17187 1.72391,0.17355 47.12947,5.5599 49.58203,-1.50781 3.87065,-11.15431 -7.78711,-48.16211 -7.78711,-48.16211 19.78858,0.2451 11.83434,-1.74118 38.53711,-5.35351 106.88537,53.46149 157.28482,89.39302 228.18164,111.7832 63.52618,20.06241 112.47526,26.0763 164.62696,-22.1836 52.15169,-48.25973 100.80088,-104.30145 145.94728,-168.1289 37.3623,84.06551 56.4346,152.17267 57.2129,204.32422 0.7784,52.15171 -4.2824,113.25398 -15.1797,183.30859 -143.2228,31.13533 -253.75541,82.51175 -331.59377,154.12305 -83.90954,323.0517 -38.19861,387.7514 -106.24804,521.9063 -27.24344,53.7085 -86.01029,87.5672 -176.30274,101.5781 -43.58948,1.5568 -51.79071,8.0672 -40.86718,30.3574 9.69787,19.7894 19.15018,21.8296 40.86718,25.6856 75.95726,13.4868 158.18599,-25.8452 230.01172,-4.6699 22.57311,7.7838 43.5892,5.4501 63.04883,-7.0039 19.45958,-12.4542 19.07198,-40.8664 -1.16602,-85.2344 -20.23797,-44.368 -9.73088,-101.5804 31.52344,-171.6348 41.25432,-70.0546 61.88281,-138.5513 61.88281,-205.4922 0,-68.4978 24.08662,-130.8593 39.6543,-130.8593 118.85878,-8.586 245.53167,-19.304 366.66017,-11.586 94.9628,0 143.2241,-25.2977 144.7812,-75.8926 1.5567,-50.5948 -17.9029,-154.5107 -58.3789,-311.74415 0,-49.81656 21.016,-122.20322 63.0489,-217.16601 l 123.7617,163.45898 c -15.5682,68.49778 -24.8969,194.39261 -17.1132,292.46908 l -9.0664,18.3965 c -47.7429,79.0199 -65.7262,96.7995 -64.8282,138.5622 0.8976,41.7642 16.676,63.0127 47.332,63.7461 -8.8243,-54.127 1.0135,-98.5559 29.5137,-133.291 17.0344,14.9537 22.3369,34.6841 15.9004,59.1953 -6.4369,24.5115 -0.6221,35.8771 17.4453,34.0957 24.7949,-45.1013 26.7808,-98.4184 5.959,-159.9473 l -0.2403,-0.2363 24.1367,-84.14262 c 17.6005,-85.09074 38.1432,-144.78234 35.0293,-252.19922 -32.6921,-74.72492 -71.2237,-144.00066 -115.5918,-207.82812 -44.3679,-63.82746 -79.0056,-95.74219 -103.914,-95.74219 -49.8165,-1.55674 -76.2812,-15.56815 -79.3946,-42.03321 -3.1136,-23.3515 3.8893,-38.9193 21.0137,-46.70312 91.8493,-51.3733 128.0474,-116.36959 108.5879,-194.98633 -44.2766,-178.877635 -314.7997,-120.2170872 -352.6113,-66.548828 -24.13,34.248873 -35.4141,59.156998 -33.8574,74.724608 0,18.68124 -14.0135,52.15234 -42.0352,100.41211 -12.45418,21.79473 -4.67024,33.46858 23.3516,35.02539 v 21.01758 c -4.6703,9.34063 2.3365,14.78899 21.0175,16.3457 -10.8971,17.12445 -8.5637,25.6875 7.004,25.6875 0,21.79479 5.4502,35.41466 16.3476,40.86329 10.8973,5.44872 23.3544,5.83824 37.3652,1.16796 14.0109,-4.67034 22.9618,-1.94517 26.8536,8.17383 10.2553,25.90235 -58.4911,15.17774 -72.3907,15.17774 -30.3568,0 -54.48761,19.84937 -72.39059,59.54687 -41.09996,91.13481 -78.81558,82.31977 -192.65039,213.66797 C 664.70507,636.85525 607.7236,644.90894 462.15716,605.03711 420.9715,576.20717 378.2895,550.36634 334.37982,526.98438 253.87916,337.60329 107.59888,31.933836 40.622007,0 Z M 1169.9501,40.138671 c 63.1822,-0.582776 126.8405,20.847859 146.209,66.041019 51.5102,120.19079 -78.8324,182.84932 -82.9004,184.47656 -27.2435,10.89735 -33.8567,9.34099 -19.8457,-4.66992 27.9084,-27.90825 32.1431,-107.41992 -7.0078,-107.41992 -18.6812,0 -26.0755,-6.22358 -22.1836,-18.67774 7.165,-22.92768 -82.3598,-67.39334 -157.623,-53.70898 17.4624,-42.862053 80.1693,-65.458242 143.3515,-66.041019 z M 43.93646,49.136718 c 39.827111,33.936956 173.63828,303.474552 235.64062,445.548832 -42.31175,-31.95309 -94.9625,-48.1716 -157.94726,-48.6543 0,0 -114.7303602,-291.33908 -77.69336,-396.894532 z M 1021.829,136.06055 c 21.9872,-1.35426 47.2184,1.91967 75.9922,12.15039 35.0273,12.45415 50.9846,25.68834 47.8711,39.69922 -3.1136,14.01093 5.4494,21.01562 25.6875,21.01562 46.8532,0 39.4399,40.83253 8.1719,57.21094 -16.3461,8.56223 -13.621,38.53097 8.1738,89.9043 4.6703,57.60036 17.9025,85.62126 39.6973,84.06445 21.7947,-1.55673 40.8668,10.12109 57.2129,35.0293 16.3461,24.90836 15.1754,49.03714 -3.5059,72.38867 -38.9191,98.07629 -58.3769,175.91528 -58.3769,233.51562 31.1353,155.67679 46.7031,254.53184 46.7031,296.56454 -6.2272,21.7947 -24.1303,39.6962 -53.709,53.707 -159.4087,2.7883 -326.62201,47.0488 -471.69921,-21.0176 65.3842,-46.7029 152.56133,-78.614 261.53511,-95.7383 34.2489,0 52.1503,-25.68914 53.7071,-77.06251 1.5566,-51.37337 2.3359,-104.3022 2.3359,-158.78906 0,-56.04352 -27.2435,-146.3355 -81.7305,-270.87696 10.8975,-46.70296 28.0216,-70.05664 51.3731,-70.05664 h 79.3945 V 337.35938 l -84.0644,9.33984 c -12.4541,-1.5568 -19.4589,-12.45345 -21.0157,-32.69141 h 28.0215 v -18.68164 h -39.6972 c -7.7838,-7.78382 -14.0115,-15.56959 -18.6817,-23.35351 14.0109,-12.45409 7.7834,-21.79437 -18.6816,-28.02149 24.9083,-49.81659 39.6988,-84.8421 44.3691,-105.08008 6.6193,-1.39353 13.587,-2.35912 20.916,-2.81054 z m 9.8184,21.54101 c -6.7375,0.17646 -12.1827,1.89836 -15.5547,5.78907 -10.1189,11.67581 -10.1189,23.73927 0,36.19335 10.1191,12.45414 40.0837,6.22858 89.9004,-18.67968 -22.3014,-10.45378 -54.1333,-23.8321 -74.3457,-23.30274 z" />
</svg>
