<?xml version="1.0" encoding="UTF-8" standalone="no"?>
<svg
   width="1525.9767"
   height="1801.9301"
   version="1.1"
   id="svg1"
   xml:space="preserve"
   xmlns="http://www.w3.org/2000/svg"
   xmlns:svg="http://www.w3.org/2000/svg"><defs
     id="defs1"><clipPath
       clipPathUnits="userSpaceOnUse"
       id="clipEmfPath1"><path
         d="M 0,0 H 199.91763 V 193.7977 H 0 Z"
         id="path1-9" /></clipPath><pattern
       id="EMFhbasepattern"
       patternUnits="userSpaceOnUse"
       width="6"
       height="6"
       x="0"
       y="0" /></defs><path
     id="path1"
     style="display:inline;fill:#000000;stroke:none;stroke-width:100.092"
     d="M 1043.8327,0.50459804 C 1028.4769,1.2184201 1012.0243,2.6893839 994.47483,4.9178984 942.10484,8.2606494 842.1015,22.468553 694.46253,47.539286 647.06612,55.58777 601.12433,61.826206 555.85235,67.233466 543.16791,53.801324 502.84105,53.039012 434.56011,65.088575 426.76032,47.260459 412.83247,39.460346 392.7759,41.688868 v 39.754994 c -12.39184,0.623182 -24.55654,0.962423 -36.76902,1.362614 V 41.688868 C 335.95025,39.460346 322.5786,47.260459 315.89309,65.088575 246.58475,55.187382 207.80369,60.329525 199.20238,80.342007 118.99842,72.515382 64.74342,52.994992 36.77097,21.631976 H 0 V 223.86936 h 36.77097 c 28.708859,-32.18863 85.31978,-51.80346 169.04646,-59.20018 10.20652,32.87968 16.37892,62.73316 18.14924,89.28553 -66.85535,232.87947 -89.14141,371.04719 -66.85631,414.50322 20.05665,27.85637 81.61947,51.53481 184.6881,71.03433 103.06868,19.49947 177.72506,35.37784 223.96666,47.63463 46.24161,12.25684 81.06115,35.65523 104.46054,70.19716 v -1.67042 c -1.06596,70.35472 73.91277,179.12207 163.32348,426.32547 l -31.66558,-27.6639 c -43.91867,-61.62 -221.34329,-194.773 -338.74167,-293.62115 -38.96663,-61.19387 -165.57962,-65.73585 -198.43371,-39.73677 -59.12647,39.71701 1.89546,165.32242 114.14574,398.57862 107.09764,171.6353 161.79326,336.1028 164.08616,351.9875 -30.33125,31.8184 -61.45248,37.0143 -114.85169,32.5596 -47.08798,-3.9284 -152.14908,64.1862 -126.37214,82.1881 44.90724,20.5982 155.51323,6.7297 194.13228,6.1779 77.43467,5.0366 131.86175,6.2181 163.28429,3.5586 31.42086,-2.6649 48.65789,-1.1245 44.42513,-30.4482 15.23425,10.5115 32.90942,32.2818 66.76637,32.7639 158.79637,2.261 210.25714,12.1577 239.15058,-15.1331 48.9632,-46.2473 68.258,-132.0564 73.811,-208.4315 64.2621,-190.7518 101.2808,-557.8808 102.3274,-610.84882 -4.1319,-122.74458 -61.3675,-201.80701 -141.0002,-295.45195 v -80.22561 c 28.9706,-12.25677 57.3843,-35.09904 85.2407,-68.52674 27.8565,-33.42764 41.7844,-79.67031 41.7844,-138.72585 0,-59.05555 -25.9072,-98.61232 -77.72,-118.66896 -51.8131,-20.05663 -109.47476,-25.90627 -172.98728,-17.54931 -63.51253,8.35693 -109.19899,57.10627 -137.05542,146.24673 -15.59961,20.05662 -33.42645,47.35603 -53.48309,81.89798 -10.02498,23.39933 -10.30244,36.49099 -0.8313,39.27661 9.47121,2.78569 17.54944,6.96477 24.23492,12.53605 -7.79986,5.57127 -10.86281,10.30661 -9.19126,14.20648 1.67133,3.89992 5.84851,6.40857 12.53409,7.5228 2.22806,-1.11423 0.55592,1.11238 -5.01521,6.68368 -5.57116,5.57126 -4.73508,10.30855 2.5076,14.20842 7.24261,3.89993 10.86366,15.87723 10.86366,35.9338 0,18.94235 11.14305,28.41295 33.42815,28.41295 23.39939,0 40.67004,-1.11435 51.81265,-3.34282 l 8.35803,40.11379 c -33.42771,-1.1143 -77.44172,1.67244 -132.04023,8.35803 -31.19919,-17.82815 -121.45382,-42.89896 -270.76413,-75.21237 15.60287,-43.45597 23.68108,-98.05486 24.23493,-163.796 0.55716,-65.74112 3.62209,-119.78389 9.19323,-162.12557 h -1.67238 c 22.2083,-34.10572 40.27493,-67.02745 54.57905,-98.87479 49.4874,5.65334 99.78886,12.3182 151.83832,21.1568 147.63897,25.07072 247.64231,39.2766 300.0123,42.61941 140.39627,17.82806 210.59527,-12.81431 210.59527,-91.92643 15.5996,0 30.0856,23.40041 43.4567,70.19911 h 26.7405 v -58.49829 c 38.9989,13.37114 66.2985,13.64917 81.898,0.83522 15.5996,-12.81396 33.1503,-12.81396 52.6498,0 19.4995,12.81395 28.9701,30.92093 28.413,54.32025 -0.5571,23.39939 -10.3079,43.7349 -29.2501,61.0059 -18.9424,17.27094 -28.4129,38.16271 -28.4129,62.67632 0,23.39938 8.9143,41.5063 26.7424,54.32025 17.8281,12.81397 26.7426,31.47708 26.7426,55.9907 0,23.39937 -8.9145,41.22825 -26.7426,53.48504 -17.8281,12.25684 -26.7424,30.0837 -26.7424,53.48307 0,24.51363 9.1923,43.17876 27.5776,55.99266 18.3853,12.81396 27.5778,30.92088 27.5778,54.32026 0,24.51362 -8.9145,42.62054 -26.7425,54.32025 -17.8281,11.69967 -26.7406,29.8047 -26.7406,54.3183 0,24.51363 9.1926,43.17871 27.5777,55.99265 18.3852,12.81397 27.5778,30.92087 27.5778,54.32027 0,24.51361 -8.9146,42.62059 -26.7426,54.32025 -17.8281,11.69973 -26.7425,29.80664 -26.7425,54.32027 0,24.51351 9.1926,43.17661 27.5777,55.99061 18.3853,12.8139 27.5778,30.9208 27.5778,54.3203 0,24.5136 -8.9146,42.6204 -26.7426,54.3202 -17.828,11.6997 -26.7404,29.8067 -26.7404,54.3204 0,24.5136 8.9124,42.8986 26.7404,55.1554 17.828,12.2568 26.7426,30.6419 26.7426,55.1555 0,23.3994 -8.6344,41.2262 -25.9054,53.483 -17.2709,12.2569 -25.9072,30.644 -25.9072,55.1574 0,24.5136 8.9143,42.8987 26.7423,55.1554 17.8282,12.257 26.7427,30.642 26.7427,55.1556 0,23.3994 -8.6363,41.2263 -25.9073,53.4831 -17.2709,12.2567 -25.9054,30.6436 -25.9054,55.1574 0,23.3994 8.9126,41.5043 26.7406,54.3183 17.8282,12.8139 26.7424,28.9724 26.7424,48.4718 0,19.4993 3.9011,34.8196 11.701,45.9622 h 71.8696 c -6.6856,-11.1426 -10.0285,-26.4629 -10.0285,-45.9622 0,-19.4994 -8.9145,-35.6579 -26.7426,-48.4718 -17.8281,-12.814 -26.7424,-30.9189 -26.7424,-54.3183 0,-24.5138 8.6362,-42.9007 25.9072,-55.1574 17.271,-12.2568 25.9053,-30.3618 25.9053,-54.3184 0,-23.9564 -8.9142,-42.0633 -26.7424,-54.3203 -17.828,-12.2567 -26.7407,-30.6418 -26.7407,-55.1554 0,-24.5134 8.6345,-42.9005 25.9055,-55.1574 17.2709,-12.2568 26.1852,-30.3617 26.7424,-54.3183 0.5572,-23.9563 -8.3572,-42.0634 -26.7424,-54.3202 -18.3851,-12.2568 -27.5778,-30.6418 -27.5778,-55.1554 0,-24.5137 8.6364,-42.6207 25.9073,-54.3204 17.2709,-11.6998 26.1853,-29.5286 26.7425,-53.485 0.5572,-23.9566 -8.3573,-42.3416 -26.7425,-55.1555 -18.3852,-12.814 -27.5777,-31.4771 -27.5777,-55.99061 0,-24.51363 8.6345,-42.62054 25.9054,-54.32027 17.2708,-11.69966 26.1852,-29.5286 26.7424,-53.48504 0.5572,-23.95656 -8.3572,-42.34151 -26.7424,-55.15548 -18.3852,-12.81394 -27.5778,-31.47902 -27.5778,-55.99265 10e-5,-24.5136 8.9145,-42.61863 26.7426,-54.3183 17.828,-11.69971 26.7424,-29.52853 26.7424,-53.48503 0,-23.9565 -8.9144,-42.34152 -26.7424,-55.15548 -17.8281,-12.8139 -26.7426,-31.47903 -26.7426,-55.99266 10e-5,-23.39937 8.6365,-41.22623 25.9073,-53.48307 17.2709,-12.25679 25.9053,-30.36374 25.9053,-54.32026 0,-23.95649 -8.9144,-42.34151 -26.7424,-55.15548 -17.828,-12.81395 -26.7406,-30.92087 -26.7406,-54.32025 0,-24.51361 8.9126,-45.68545 26.7406,-63.5135 17.828,-17.8281 26.4644,-36.76926 25.9072,-56.8259 -0.5571,-20.05657 -5.2923,-40.67024 -14.2065,-61.8411 -8.9139,-21.17086 -25.9065,-39.55587 -50.9774,-55.15548 -25.0707,-15.599586 -53.4844,-16.993942 -85.2407,-4.179986 -31.7563,12.813956 -58.7776,9.751086 -81.0629,-9.191272 V 26.647179 h -26.7405 c -13.3711,46.79878 -27.8571,70.197162 -43.4567,70.197162 0,-69.22317 -53.7465,-101.3364983 -161.2374,-96.33974296 z m -4.2034,39.61775296 c 94.6943,-3.412404 142.0412,22.180306 142.0412,76.778889 h 50.1422 l 21.7274,-16.71408 v 46.79942 l -21.7274,-18.38647 h -50.1422 c 0,62.39829 -61.841,86.913 -185.52337,73.54194 -51.25569,-3.34274 -151.53909,-16.43629 -300.84938,-39.27856 -46.82121,-7.16294 -93.34481,-12.72055 -139.72773,-17.52774 0.83264,-2.21884 1.88188,-4.49984 2.67427,-6.70719 V 99.914632 c 45.49811,-4.759124 91.13377,-10.25173 137.05346,-17.276767 149.31029,-22.84221 249.59369,-35.935753 300.84938,-39.27857 15.46037,-1.671384 29.95437,-2.749457 43.48217,-3.236944 z M 36.77097,66.759003 c 44.793,24.980698 98.34603,40.191557 160.45317,45.860287 v 20.26277 C 135.117,138.55079 81.56397,153.76164 36.77097,178.74234 Z m 360.37118,45.232897 4.35056,21.75085 c -18.39635,-0.87568 -36.79818,-1.77905 -55.12411,-2.27625 l 4.07804,-17.4846 c 15.52444,-0.44489 31.12058,-1.27364 46.69551,-1.99 z m -59.37272,50.33045 c 22.32105,0.53043 44.84079,1.30546 67.76993,2.59191 1.31683,16.87949 2.63357,40.11233 3.95061,75.66918 -54.59852,210.59437 -77.99695,334.2782 -70.19716,371.04858 -28.97066,-4.45697 -55.71394,-8.35801 -80.22756,-11.70082 24.51335,-50.14147 38.16309,-111.9824 40.949,-185.52332 2.78561,-73.54085 8.07905,-135.93988 15.87884,-187.1957 10.48771,-30.15231 17.17261,-50.16166 21.87634,-64.88983 z m 607.0337,110.01686 c 31.44287,-2.08923 68.05777,2.08991 109.84237,12.53604 55.7128,13.9282 83.5683,47.07723 83.5683,99.44729 0,51.25577 -18.6631,94.71168 -55.9906,130.36783 -37.3276,35.65624 -61.5622,45.68494 -72.7048,30.08535 -11.14247,-16.71389 -1.672,-40.11226 28.4129,-70.19716 30.085,-30.0849 37.6051,-59.61296 22.5626,-88.58363 -15.0425,-28.97066 -47.6333,-31.19926 -97.77485,-6.68563 -17.82805,-18.94235 -58.49918,-33.42829 -122.01177,-43.4566 12.25684,-31.19911 37.04956,-50.9766 74.37715,-59.3335 9.33187,-2.08922 19.23775,-3.48357 29.7187,-4.17999 z m -120.80992,91.92643 c 52.36997,3.34276 94.71349,16.71441 127.02697,40.11379 -1.11429,20.05658 6.96399,21.17093 24.23491,3.34282 17.271,-17.82803 33.98551,-23.12147 50.14221,-15.87885 16.1564,7.24266 18.3833,22.8429 6.6837,46.7994 -11.6998,23.95652 -27.0198,44.29208 -45.96224,61.00588 -18.94234,16.7139 -23.39957,33.42843 -13.37126,50.14224 10.02852,16.71382 17.27055,31.19781 21.72733,43.45463 -7.79981,75.7694 8.91467,135.38172 50.14217,178.8377 41.2276,43.45602 92.0839,110.9193 92.0166,187.56233 -0.08,90.91872 -26.8817,290.97072 -82.2665,480.72232 L 903.46594,1299.3912 C 798.72609,990.74251 724.26899,893.5373 722.04026,785.4545 c -2.22858,-35.65616 27.85568,-56.82597 90.25406,-63.51154 57.94118,6.68557 87.46926,-11.1433 88.58362,-53.48503 0,-45.68455 -20.89169,-66.29816 -62.67631,-61.8411 -41.78453,4.45704 -59.33534,-8.9146 -52.64983,-40.11379 25.62792,-14.4853 34.54231,-24.79209 26.74252,-30.92056 -7.7998,-6.12839 -21.17143,-9.74943 -40.11378,-10.86365 0,-11.14263 -9.4706,-20.61322 -28.41296,-28.41295 18.94236,-42.34174 37.32745,-71.86974 55.15548,-88.58363 17.82818,-8.91401 36.49123,-8.91401 55.9907,0 19.49944,8.91409 38.72071,15.59985 57.66306,20.0569 v -13.37127 c -12.25678,-1.11423 -28.13511,-6.96386 -47.63462,-17.5493 -19.49946,-10.58544 -39.27688,-11.97781 -59.33351,-4.17802 7.80007,-12.25684 13.92772,-21.7294 18.38452,-28.41492 z m 185.05469,32.4361 c -2.6116,0.24373 -5.5192,0.8523 -8.7227,1.82727 -12.81393,3.89994 -24.23508,13.65053 -34.26334,29.25014 -10.02791,15.59953 -12.8148,27.29878 -8.35801,35.09857 -11.14235,3.34284 -17.54819,9.19238 -19.21972,17.5493 -1.6714,8.3569 1.94964,14.20654 10.86366,17.54928 8.91403,3.34276 22.00562,-2.7849 39.2766,-18.3845 17.27111,-15.59953 28.41421,-30.08546 33.42811,-43.45659 5.0146,-13.37101 5.8507,-23.95598 2.5076,-31.75578 -2.5071,-5.84985 -7.6776,-8.4089 -15.5122,-7.67769 z m -176.6712,13.89279 c -8.51361,-0.52231 -16.32181,1.30531 -23.4252,5.48378 l -18.3845,15.04365 v 13.37126 h 8.35606 c 24.51367,12.25676 51.25501,12.25676 80.22561,0 l 28.41491,6.68563 V 434.46477 L 880.82106,432.7924 C 862.71441,418.86416 846.56604,411.46503 832.3767,410.59453 Z m 174.8439,4.02118 c 4.0391,0.6964 5.6393,3.69269 4.8035,8.98541 -1.6714,10.5855 -6.6847,20.61224 -15.04177,30.08337 -8.35682,9.47121 -16.157,16.15702 -23.39962,20.05688 -7.24275,3.89988 -7.24275,0.83707 0,-9.19126 7.24262,-10.02824 7.24262,-13.65126 0,-10.86562 -7.24268,2.78564 -8.63482,-0.27724 -4.17802,-9.19127 4.45703,-8.91409 10.5847,-17.2723 18.38449,-25.0721 8.91405,-3.89989 15.39232,-5.50183 19.43142,-4.80541 z m -183.22739,6.4778 c -4.4568,5.57127 -4.4568,11.69895 0,18.3845 -7.79953,-2.22858 -13.37101,-4.45717 -16.71409,-6.68561 1.1143,-4.45706 6.68577,-8.35613 16.71409,-11.69889 z m 21.72927,3.34282 23.3997,13.37126 c -10.02831,2.22852 -18.94272,3.34281 -26.74252,3.34281 6.6855,-4.45705 7.79959,-10.0285 3.34282,-16.71407 z M 954.363,474.57856 c 8.91348,5.57127 10.86241,10.30655 5.84846,14.20646 -5.0139,3.89989 -8.91297,3.61989 -11.69887,-0.83716 -2.78532,-4.45698 -0.83516,-8.91225 5.85041,-13.3693 z m -158.41614,18.22765 c -0.38305,-0.1741 -0.78395,-0.12172 -1.20183,0.15685 -1.67153,1.11423 -2.5076,3.34288 -2.5076,6.68562 0,3.34284 -1.39213,5.84953 -4.17804,7.52086 -2.78529,1.6714 -6.12817,9.1e-4 -10.02843,-5.01324 -3.9002,-5.01417 -7.52124,-7.52281 -10.86366,-7.52281 -2.22874,0 -3.90085,0.55809 -5.01521,1.67239 -1.11435,1.11423 -1.11435,3.34286 0,6.68563 h 0.002 c 3.34291,-2.22853 7.80013,-0.27804 13.37128,5.8504 5.5714,6.12841 11.14292,7.79889 16.71406,5.01325 5.57116,-2.78563 7.8,-7.2428 6.68564,-13.37125 -0.83576,-4.59629 -1.82895,-7.15542 -2.97816,-7.6777 z m -31.70478,39.85107 c 1.94995,-0.27856 4.5957,-0.13757 7.93846,0.41957 6.68549,1.11424 14.20758,2.22853 22.56449,3.34282 8.35705,1.11422 11.42195,1.67042 9.19323,1.67042 l -40.11378,1.67238 c -3.34308,-1.11429 -4.45716,-2.78667 -3.34281,-5.01521 0.55714,-1.11425 1.81047,-1.81143 3.76041,-2.08998 z m 38.02381,10.44803 c -2.22867,2.22851 -6.40774,4.73519 -12.53607,7.52082 -6.12865,2.78563 -11.42208,4.73417 -15.87886,5.84845 -4.45678,0 -7.24169,-0.83422 -8.35605,-2.50563 -1.11435,-1.67134 -2.7e-4,-3.62183 3.3428,-5.8504 z M 373.21917,1047.1895 c 122.95298,30.8971 150.42413,69.1041 189.83858,100.2101 39.41457,31.1059 147.95306,102.6217 235.33203,181.826 79.02305,71.6299 179.29159,187.3456 216.61632,281.7413 -19.94747,61.9804 -19.49787,113.6875 -49.69811,131.6649 -49.32613,29.3625 -211.9632,-4.4635 -276.46432,-45.3932 -62.44103,-78.2974 -108.36975,-246.8413 -137.78476,-364.2061 -29.41401,-117.3659 -88.69405,-212.6474 -177.83974,-285.843 z" /></svg>
