<?xml version="1.0" encoding="UTF-8" standalone="no"?>
<svg
   width="1065.6477"
   height="1799.3809"
   version="1.1"
   id="svg1"
   xmlns="http://www.w3.org/2000/svg"
   xmlns:svg="http://www.w3.org/2000/svg">
  <defs
     id="defs1" />
  <path
     style="fill:#000000;stroke:none;stroke-width:100.081"
     d="m 603.06151,1265.6971 h 269.17023 l -38.68312,-215.981 c 33.31055,-62.32296 31.69875,-116.04959 -4.8354,-161.17994 l -159.56798,40.29492 z m 82.64034,-931.15791 c -2.14907,-5.37267 -0.26866,-13.16302 5.64124,-23.37106 5.90997,-10.20803 12.89445,-16.65524 20.95342,-19.34161 8.05904,-2.6863 13.16306,-1.88038 15.31206,2.41776 2.14907,4.29813 1.88045,11.2826 -0.80586,20.95341 -2.68637,9.67081 -9.13357,19.87884 -19.34161,30.62411 -10.20803,10.74534 -18.53565,15.04347 -24.98286,12.8944 -6.4472,-2.14906 -8.86489,-5.90992 -7.25306,-11.28259 1.61178,-5.37267 5.104,-9.67081 10.47667,-12.89442 z m 17.7298,-27.4005 c -4.29813,4.29813 -7.52173,9.6708 -9.67079,16.118 -2.14907,6.44713 -1.07454,8.5962 3.22359,6.44721 4.29813,-2.14914 4.29813,-1.1e-4 0,6.44709 -4.29813,6.44721 -4.29813,8.32766 0,5.64137 4.29813,-2.68637 9.13354,-7.25316 14.50621,-13.70037 5.3726,-6.44714 8.32755,-13.16296 8.86486,-20.14746 0.53729,-6.98443 -5.104,-7.25305 -16.92387,-0.80584 z m -16.11801,-25.78881 c 31.16142,-18.26702 52.1148,-17.99837 62.86014,0.80594 10.74534,18.80431 6.71586,38.4145 -12.08845,58.83057 -18.80431,20.41615 -23.90837,35.99686 -15.31217,46.74213 7.52174,10.74535 22.56521,3.76091 45.13042,-20.95331 22.56515,-24.71421 32.77319,-54.26385 30.62412,-88.64894 -2.14907,-33.31048 -20.68476,-54.26386 -55.60708,-62.86014 -34.92225,-8.59627 -64.47186,-9.13353 -88.64884,-1.6118 -24.17698,7.52175 -39.48907,22.02792 -45.93627,43.51853 39.75769,4.29813 66.08373,12.35714 78.97813,24.17702 z m -3.2236,61.24832 c -3.2236,3.22361 -4.02951,6.44721 -2.41774,9.6708 1.61183,3.2236 4.29816,3.49222 8.059,0.80585 3.7609,-2.6863 1.88048,-6.17852 -5.64126,-10.47665 z M 579.32319,329.7039 v -9.67081 l 9.67082,-11.28261 c 11.81981,-7.52173 27.93778,-4.29813 48.35392,9.6708 l 16.1179,1.61181 1.6119,8.0589 -19.34161,-3.2235 c -18.26707,9.67074 -34.92231,10.20797 -49.96572,1.6117 z m 9.67082,-9.67081 c 3.22359,1.07453 6.98442,2.68633 11.28249,4.8354 -3.2236,-4.29814 -3.2236,-8.59627 0,-12.8944 -5.37267,2.14907 -9.1335,4.8354 -11.28249,8.059 z m 22.5651,4.8354 c 6.44721,0 12.35714,-1.07453 17.72981,-3.2236 l -16.11801,-8.059 c 3.2236,4.29813 2.68633,8.059 -1.6118,11.2826 z m -48.35392,43.51853 c -1.07454,-2.14907 -1.07454,-3.76087 0,-4.8354 1.07453,-1.07454 2.68633,-2.14908 4.8354,-3.22361 1.07453,0 2.95495,1.88042 5.64125,5.64125 2.68637,3.7609 4.83543,4.83543 6.4472,3.2236 1.61184,-1.61177 2.41776,-3.49218 2.41776,-5.64124 0,-2.14907 0.53723,-3.49226 1.61169,-4.02955 1.07461,-0.53711 2.14914,1.34334 3.22361,5.64134 1.07461,4.29813 -0.26854,7.25309 -4.02945,8.86486 -3.76084,1.61183 -7.52171,0.5373 -11.28261,-3.22361 -3.76083,-3.76083 -6.71578,-4.56671 -8.86485,-2.41764 z m 27.40062,24.177 -20.95342,3.22351 c -2.14907,3.2236 -2.68633,5.10405 -1.6118,5.64134 1.07453,0.53724 2.14907,0.80586 3.2236,0.80586 4.29813,-1.07453 8.32762,-2.68634 12.08846,-4.83541 3.76091,-2.14906 6.17863,-3.76083 7.25316,-4.8353 z m 0,-3.2237 c 2.14906,-1.07453 0.53726,-1.6118 -4.83541,-1.6118 -5.37267,0 -10.20808,-0.53723 -14.50621,-1.61169 -4.29813,0 -6.71585,0.53723 -7.25315,1.61169 -0.5371,1.07453 0.26882,2.1491 2.41775,3.2237 z m 91.87243,-91.87244 c -22.56521,-15.04347 -50.50302,-22.56521 -83.81343,-22.56521 -3.22361,4.29814 -6.44721,10.74534 -9.6708,19.34161 11.81981,-5.37267 24.17691,-5.10402 37.07131,0.80595 12.89434,5.9099 23.10238,9.40212 30.62411,10.47665 l 1.61181,8.05901 c -12.89435,-1.07453 -25.78872,-4.56678 -38.68312,-10.47675 -12.89441,-5.90991 -25.25152,-5.64126 -37.07132,0.80594 -9.67081,10.74534 -19.87888,30.62419 -30.62422,59.63654 12.89441,4.29813 18.80434,10.20806 17.72981,17.7298 12.89441,1.07453 21.7593,3.22357 26.59466,6.4471 4.83537,3.22367 0.26862,9.67087 -13.70025,19.34161 -4.29814,21.49067 5.9099,29.01241 30.62411,22.56521 24.71428,-6.44719 39.22045,6.71583 43.51852,39.48907 4.2982,32.77325 -13.43157,49.15987 -53.18932,49.15987 -39.75769,0 -55.06975,8.05897 -45.93618,24.17692 9.13351,16.118 22.2965,45.13038 39.48897,87.03714 17.19254,41.90675 69.94327,125.79591 75.31594,255.81432 l 151.50909,-35.45963 c -7.52174,-61.24829 -39.85637,-130.09398 -14.06762,-210.68389 25.78881,-80.58991 18.26707,-120.88486 -22.56522,-120.88486 -42.98129,0 -67.6955,-32.77324 -74.14263,-98.31973 -2.14907,-7.52175 -6.71585,-16.65526 -13.70036,-27.40053 -6.98443,-10.74533 -4.83536,-21.75932 6.44722,-33.04195 11.28256,-11.28258 20.41609,-24.98284 27.4006,-41.10079 6.98443,-16.118 5.10398,-26.59468 -5.64135,-31.43005 -10.74527,-4.83544 -21.22193,-1.07461 -31.42997,11.28249 -10.20811,12.35717 -14.77489,12.08856 -13.70036,-0.80584 z M 0,1789.1051 110.30866,282.1049 h 41.90672 L 41.906719,1789.1051 Z M 1010.8464,1012.6448 C 996.87754,912.71321 992.04218,830.51146 996.34031,766.0395 956.58262,724.13281 881.80397,677.31502 854.94062,621.43933 c -39.75768,112.82585 -6.0799,195.10322 18.09708,250.97893 24.17698,55.87562 24.9829,115.51218 2.41775,178.90974 l 37.07132,251.4403 v 0 c 23.63968,68.7701 30.3555,141.8383 20.14745,219.2046 -10.20803,77.3664 -8.86485,156.3445 4.02955,236.9344 12.89441,26.8633 -0.53726,39.7576 -40.29502,38.6831 -39.75768,-1.0742 -73.60543,-1.0742 -101.54325,0 -27.93781,1.0742 -51.57752,1.6113 -70.91913,1.6113 -20.41607,1.075 -29.81823,-2.6857 -28.20646,-11.2821 1.61177,-8.5963 15.84932,-20.4161 42.71267,-35.4596 47.27942,-4.298 78.70949,-13.7001 94.2902,-28.2063 15.58071,-14.5063 22.29653,-42.7128 20.14746,-84.6195 -5.37267,-49.4284 -20.95338,-161.717 -46.74212,-336.8659 H 683.65146 c -27.93789,23.6397 -40.02638,54.2639 -36.26548,91.8725 3.76084,37.6086 -13.16305,94.8275 -50.77166,171.6567 -37.60862,76.829 -58.562,142.6441 -62.86014,197.4452 0,27.9379 -15.84936,38.4146 -47.54808,31.4301 -31.69864,-6.9845 -57.75603,-8.059 -78.17218,-3.2237 -20.41608,4.8353 -51.57749,7.2529 -93.48424,7.2529 -32.23602,1.0749 -45.13043,-5.6409 -38.68322,-20.1475 6.4472,-14.5062 25.25151,-24.9829 56.41293,-31.4301 47.27942,-21.4905 80.85855,-35.1908 100.7374,-41.1009 19.87884,-5.9101 37.87726,-30.8929 53.99527,-74.9485 15.04348,-44.0557 37.07139,-153.658 66.08373,-328.8069 v 0 l 80.58984,-411.00825 c 0,-119.27311 -57.58611,-210.14675 -89.82206,-276.76772 -78.44083,125.72027 -131.63016,191.26673 -159.56798,196.6394 -38.68314,3.2236 -76.19311,-39.14476 -195.46617,-122.95827 -34.38508,-4.29814 -67.15834,-8.59628 -98.319752,-12.89441 -21.49061,-6.44721 -33.310449,-18.80431 -35.459517,-37.07131 L 71.168058,587.12991 C 53.975584,576.38457 49.677482,565.63926 58.273753,554.89399 c 61.248297,15.04347 106.915887,38.68319 137.002767,70.91915 12.89441,13.96893 14.33402,23.05937 71.28424,44.01268 56.95016,20.95338 88.18516,49.93316 109.67583,66.05117 39.75769,-73.06817 84.35078,-144.52453 133.77927,-214.3691 21.49061,-21.49067 41.90672,-32.23601 61.24833,-32.23601 19.34154,0 37.60858,-5.37267 54.80113,-16.11801 l -4.8354,-25.78872 c -19.34161,1.07453 -33.31052,1.07453 -41.90673,0 -8.59627,-1.07453 -13.16302,-7.25312 -13.70025,-18.53575 -0.5373,-11.28257 -3.49228,-17.9984 -8.86495,-20.14747 -5.37267,-2.14907 -6.17856,-5.10402 -2.41765,-8.86485 3.76083,-3.7609 4.56671,-5.10408 2.41765,-4.02955 -4.29813,-1.07453 -6.98447,-2.6863 -8.05901,-4.83531 -1.07453,-2.14913 0.53727,-4.83547 4.8354,-8.059 -3.2236,-4.29813 -8.059,-7.25312 -14.5062,-8.86495 -6.44714,-1.61177 -6.98441,-9.9394 -1.6118,-24.98287 11.81987,-23.63967 23.10248,-42.44398 33.84781,-56.41293 4.29813,-63.39737 41.90675,-100.46872 112.82585,-111.21405 L 722.04765,71.957058 C 731.9977,43.26329 751.86389,28.537626 767.31115,18.268257 779.62387,10.082741 812.27717,-5.4668137 843.43865,6.3529916 854.35486,16.27682 839.46912,29.29774 839.46912,29.29774 800.78591,27.148672 769.11727,69.061904 764.45384,93.543029 l -17.11756,89.860161 c 12.89441,1.07453 6.0611,4.19378 35.07352,13.32729 29.01234,9.13351 44.05578,35.1909 45.13032,78.17219 2.14899,38.68315 -6.17863,69.8446 -24.98287,93.48435 -18.80431,23.63968 -37.87726,39.22038 -57.21887,46.74211 v 1.61181 c 1.07453,16.118 4.02949,30.89282 8.86486,44.32447 4.83543,13.43164 24.98292,20.14746 60.44247,20.14746 50.50302,0 87.5744,26.86331 111.21415,80.58993 45.13031,89.18618 116.68534,156.42007 131.72884,205.8485 10.7454,62.32289 10.7454,150.43454 0,264.335 1.7596,35.7413 1.4663,76.5448 1.4663,76.5448 -1.0748,23.3346 -8.8948,84.6615 -16.171,90.2082 -5.4886,4.1839 -30.3505,4.7013 -35.1987,-22.7215 -2.8663,-16.2124 8.0699,-53.7549 -10.87729,-71.9164 -1.07454,10.7453 -14.43681,41.2481 -29.48022,45.5462 -0.48483,-110.6287 22.02068,-121.6327 43.51861,-137.0028 z"
     id="path1" />
</svg>
