<?xml version="1.0" encoding="UTF-8" standalone="no"?>
<svg
   width="17.982"
   height="10.43"
   id="svg1909"
   sodipodi:version="0.32"
   inkscape:version="1.2.1 (9c6d41e410, 2022-07-14)"
   sodipodi:docname="US9A15VARA.svg"
   version="1.0"
   xml:space="preserve"
   xmlns:inkscape="http://www.inkscape.org/namespaces/inkscape"
   xmlns:sodipodi="http://sodipodi.sourceforge.net/DTD/sodipodi-0.dtd"
   xmlns="http://www.w3.org/2000/svg"
   xmlns:svg="http://www.w3.org/2000/svg"
   xmlns:rdf="http://www.w3.org/1999/02/22-rdf-syntax-ns#"
   xmlns:cc="http://creativecommons.org/ns#"
   xmlns:dc="http://purl.org/dc/elements/1.1/"><metadata
     id="metadata1916"><rdf:RDF><cc:Work
         rdf:about=""><dc:format>image/svg+xml</dc:format><dc:type
           rdf:resource="http://purl.org/dc/dcmitype/StillImage" /></cc:Work></rdf:RDF></metadata><defs
     id="defs1914" /><sodipodi:namedview
     inkscape:window-height="1017"
     inkscape:window-width="1920"
     inkscape:pageshadow="2"
     inkscape:pageopacity="0.0"
     guidetolerance="10.0"
     gridtolerance="10.0"
     objecttolerance="10.0"
     borderopacity="1.0"
     bordercolor="#666666"
     pagecolor="#ffffff"
     id="base"
     inkscape:zoom="48.95"
     inkscape:cx="8.6618999"
     inkscape:cy="4.5556691"
     inkscape:window-x="1072"
     inkscape:window-y="-8"
     inkscape:current-layer="svg1909"
     inkscape:showpageshadow="2"
     inkscape:pagecheckerboard="0"
     inkscape:deskcolor="#d1d1d1"
     showgrid="false"
     inkscape:window-maximized="1" /><path
     id="path1911"
     style="display:inline;opacity:1;fill:#000000;stroke:none"
     d="M 1.3941106,0.05418348 C 1.2284186,0.05527668 1.0593887,0.08091658 0.8882512,0.13035528 0.49708061,0.24335818 0.25149477,0.51157328 0.15192304,0.93699598 0.05235229,1.3624193 0.09130522,1.7838453 0.26911049,2.2026209 c 0.17780462,0.4187757 0.60824439,0.755218 1.29101561,1.0078125 0.2418154,0.053178 0.6187816,0.1919641 1.1308594,0.4179688 0.1849176,0.026588 0.2674308,-0.00655 0.2460937,-0.099609 -0.021337,-0.093061 -0.011423,-0.1593355 0.03125,-0.1992187 0.042673,0.039883 0.09154,0.05431 0.1484375,0.041016 0.056895,-0.013294 0.078678,-0.040195 0.064453,-0.080078 -0.014224,-0.053177 2.957e-4,-0.056294 0.042969,-0.00977 0.042673,0.046532 0.103406,0.043414 0.1816406,-0.00977 0.078234,-0.05317 0.1779208,-0.094497 0.2988281,-0.1210859 C 3.825565,3.1232981 3.8790372,3.0476678 3.8648136,2.9213709 3.8505889,2.7950733 3.8142895,2.6387439 3.7573918,2.4526209 l 0.021484,-0.2695312 c -0.034859,0.00551 0.1807872,0.017914 0.3183593,0.025391 0.032968,0.00432 0.075345,0.00754 0.082031,0.011719 L 3.9077823,3.7963709 C 3.7341944,4.8464553 3.758181,5.4442474 3.7573916,5.9487147 3.2625082,6.4943747 2.6716615,8.2213431 2.2749696,8.9116053 1.7848956,9.2227668 1.5875553,9.5794278 1.6831727,9.9799648 c -0.00808,0.1761402 0.00314,0.2820042 0.03125,0.3183592 0.028109,0.03636 0.065018,0.0457 0.1113281,0.02734 0.055969,0.03627 0.1080717,0.03833 0.1542969,0.0078 0.037311,0.02418 0.083201,0.01902 0.1386719,-0.01758 0.055969,0.03627 0.095984,0.05019 0.1191406,0.04102 0.023178,-0.0092 0.033533,-0.03931 0.033203,-0.08789 -0.021907,-0.4857712 0.03727,-0.7865532 0.1757813,-0.9023432 0.055303,-0.06089 0.092173,-0.04786 0.1113281,0.03711 -0.109776,0.243242 -0.1425127,0.392747 -0.095703,0.447266 0.056304,0.08486 0.1172558,0.08158 0.1816406,-0.0098 -0.00991,-0.09107 0.031262,-0.216833 0.1230469,-0.375 0.091785,-0.158122 0.1242302,-0.28573 0.095703,-0.382813 C 2.8343321,8.9864408 3.073553,8.8170034 3.1078197,8.7662081 3.2357313,8.5765986 3.6208448,8.5091535 4.0835634,7.7084803 4.5462822,6.9078071 4.9963525,6.0878089 5.0679385,5.6928553 L 5.0171572,6.3530115 C 4.9932384,6.6558871 4.9203267,6.8675011 4.7261416,7.3881678 4.5282934,7.9186561 4.6586222,8.1749145 4.4644228,8.4487147 4.2112691,8.7200458 3.8819839,9.5812548 3.9859071,9.9838708 c -0.017408,0.1700942 -0.012485,0.2741912 0.015625,0.3105472 0.028109,0.03636 0.066974,0.04374 0.1132812,0.02539 0.055969,0.03627 0.1041646,0.04021 0.1503906,0.0098 0.046644,0.03023 0.094399,0.0305 0.140625,0 0.046644,0.03023 0.083548,0.03762 0.1113282,0.02539 0.0278,-0.01221 0.041345,-0.04126 0.041016,-0.08984 -0.021907,-0.4857742 0.037269,-0.7865512 0.1757813,-0.9023442 0.055302,-0.06089 0.096517,-0.04609 0.125,0.04492 -0.1191044,0.237191 -0.1518417,0.384748 -0.095703,0.445313 0.056304,0.08486 0.1129148,0.07975 0.1679688,-0.01758 -0.00991,-0.09107 0.031262,-0.216835 0.1230469,-0.375 0.091786,-0.158167 0.124231,-0.28573 0.095703,-0.382813 C 5.1214419,8.9804748 5.0897932,8.9092971 5.0523134,8.860824 5.30682,8.1814953 5.8672364,7.2924107 6.0874697,6.4994959 6.3077031,5.7065812 6.2338373,5.0165533 6.2378604,4.8276209 6.2452436,4.4808921 5.9888885,3.6690187 6.323798,3.5639491 6.6587066,3.4588795 6.7941431,3.4931078 7.5542667,3.3998866 8.0629521,3.3375016 8.5435922,3.257702 8.7691105,3.2280116 9.1371963,3.1795515 9.3916338,3.1265045 9.8726261,3.1264491 c 0.4731379,-5.44e-5 1.0096599,0.029641 1.1894529,0.1230468 1.24923,0.2817362 2.062017,0.765719 2.095703,1.1132813 0.0292,0.3013119 0.06026,1.6409384 0.232422,2.1347656 0.114314,0.3138972 0.181559,0.8025047 0.261719,1.1484375 0.0061,0.3409388 0.07337,0.7110565 0.08398,1.1484375 -0.0224,0.196699 -0.103956,0.739786 -0.662109,0.851562 -0.558153,0.111777 -0.738152,0.170405 -1.021485,0.201172 2.8e-5,0.118203 -0.0065,0.3752492 0.306641,0.4960942 0.377017,0.145513 0.756625,0.08829 1.203125,-0.0957 0.446497,-0.18398 0.857683,0.08989 1.054687,0.08984 0.407146,-1.02e-4 0.265598,-0.4967422 0.195313,-1.1875002 -0.04796,-0.471361 0.171633,-0.7862993 0.230469,-1.3378909 0.07866,-0.4977652 -0.427618,-1.493919 -0.230469,-2.0449219 0.151901,0.5796209 0.390578,1.2586964 0.638672,1.5195313 0.409442,0.6817294 1.144606,1.441261 1.197265,1.9140625 -0.15495,0.547251 -0.640668,0.502763 -1.353515,0.621094 -0.246965,0.106306 -0.01987,0.3502162 0.01957,0.5078122 0.254978,0.07957 0.630084,0.111797 1.140584,0.05859 0.571677,-0.157694 0.694374,-0.02603 1.009766,-0.01953 0.283456,0.0058 0.480687,-0.27412 0.388671,-0.5761722 -0.02632,-0.223269 -0.34173,-0.9360041 -0.34179,-1.185543 C 17.419816,7.8686615 16.776744,6.4733874 16.622626,6.0405115 16.301718,5.1391632 16.249228,4.5886184 16.064032,3.9194178 15.971663,3.585647 15.781387,3.1085047 15.571845,2.6498866 15.362304,2.1912683 15.256191,1.7019225 15.038642,1.3842616 14.919383,1.210124 14.348375,0.55540418 13.353095,0.30223028 12.208088,0.01097018 11.09417,0.47205668 10.290595,0.61668348 9.7759536,0.65704458 8.4003122,0.29582338 7.5073918,0.30027718 7.1154744,0.30223208 6.2620708,0.17050918 5.5659856,0.17918348 4.8639098,0.18793348 4.7305371,0.28455678 4.5796574,0.95652718 4.5670826,1.0125312 4.5897348,1.2660721 4.3843449,1.3881678 4.1849683,1.5066889 3.3451282,0.83656588 2.946845,0.87644908 2.6908057,0.54408748 2.3818332,0.30901008 2.0191106,0.16941778 1.8150795,0.09089748 1.6071433,0.05278128 1.3941106,0.05418348 Z m 0.013672,0.4023437 c 0.3481645,-0.001012 0.6862413,0.1347118 1.0156249,0.4101563 C 2.8288026,1.2056928 2.8017167,1.2688483 2.3394231,1.0561366 1.8771304,0.84342488 1.519991,0.80093268 1.2710637,0.92723028 1.022137,1.053528 1.0049633,1.3486429 1.2183293,1.8139491 1.1472073,2.3856114 0.99404753,2.583268 0.75934486,2.4037928 0.52464186,2.2243177 0.42495619,1.8785208 0.46051677,1.3666835 0.49607855,0.85484668 0.731751,0.55777798 1.165595,0.47801158 1.246941,0.46305578 1.3274363,0.45676058 1.4077826,0.45652718 Z m 4.625,0.060547 c 0.4658696,0.0058 0.9756674,0.064847 1.2382812,0.085937 0.7756291,0.06229 1.4955289,0.1178248 2.0371094,0.2480469 C 9.5839807,1.0349291 9.9321519,2.0172833 10.093329,2.757308 9.6139501,2.8229772 9.1849735,2.8451226 8.7847355,2.8862147 8.3844974,2.9273066 7.8986772,3.0302322 7.5952824,3.0541834 7.1106224,3.0924445 5.6652772,3.2900105 5.5093448,3.3237147 5.2452442,3.3807988 4.7762601,3.4251035 4.5146316,3.3221266 4.301839,3.2275661 4.4198308,2.8594919 4.4304838,2.6497262 4.4371049,2.5193533 4.522111,2.080926 4.4373671,2.0809187 4.1715906,1.9456426 3.7374678,1.9256545 3.5848465,1.9146952 3.5659943,2.038905 3.3176844,2.2575685 3.5128388,2.542054 3.6747386,2.9020228 3.4233269,2.910382 3.245673,2.9311366 3.1318777,2.7716076 3.0539709,2.7291112 3.011298,2.8022303 2.968625,2.8753496 2.9468449,2.9778795 2.9468449,3.1108241 2.8188248,3.0443518 2.7263988,3.0899625 2.6695011,3.2494959 L 1.9859074,2.9916834 C 1.8152147,2.8587382 1.8026478,2.5729784 1.9448918,2.1342616 1.8879945,2.014611 1.8226548,2.066459 1.7515324,2.2924647 1.6804101,2.5184711 1.6731504,2.7379561 1.730048,2.9506678 1.5166821,2.8709008 1.4070855,2.7859164 1.3999699,2.6928553 1.3928543,2.5997941 1.4463308,2.3389818 1.5601262,1.9135584 1.659698,1.8603805 1.649784,1.7753964 1.5288762,1.655746 1.4079728,1.5360961 1.3644083,1.4015947 1.39997,1.2553553 1.4355306,1.1091164 1.5715173,1.0697421 1.80622,1.1362147 2.0409226,1.2026874 2.2429485,1.3020988 2.4136418,1.4350428 2.5843344,1.567984 2.7520143,1.6124338 2.9155949,1.5659022 3.0791756,1.5193716 3.1815157,1.402415 3.2241887,1.2162928 l 0.5550375,0.3422633 c 0.196579,0.1426212 0.5067868,0.228328 0.8238687,0.2260961 0.1581476,-0.074842 0.1578124,-0.2681427 0.2285157,-0.3886719 0.1567829,-0.2672708 0.0054,-0.69738972 0.4726562,-0.81250002 0.1876311,-0.046224 0.4489939,-0.069884 0.7285158,-0.0664061 z m 6.2421874,0.03125 c 0.121963,-0.00126 0.230575,0.00577 0.326172,0.011719 0.483159,0.093486 1.346947,0.1583528 1.845703,0.74804692 0.256217,0.3029329 0.615376,1.0409092 0.816406,1.5996094 0.07739,0.2150736 0.562859,1.0918632 0.619141,2.4570312 -0.497075,0.01951 -1.600786,-0.015555 -2.265625,-0.011719 C 13.557856,4.7059119 13.516029,4.3393593 13.448798,4.1127772 13.32493,3.6953148 12.98671,3.4991746 12.599188,3.3373866 12.211669,3.1755984 11.624543,2.9755547 11.296454,2.9252772 10.968366,2.8749996 10.57325,2.7985588 10.495673,2.7807459 10.364055,2.6447736 10.211181,1.6381234 9.7730168,0.90769908 c 0.3914872,0.0817008 1.0743512,0.0246595 1.4570312,-0.1484375 0.437674,-0.1684935 0.776602,-0.2081682 1.044922,-0.2109374 z M 1.6265325,1.2006678 c -0.048007,0.00332 -0.087135,0.015214 -0.1191407,0.035156 -0.06401,0.039883 -0.068616,0.1092759 -0.011719,0.2089844 0.056898,0.099708 0.1611909,0.1835273 0.3105468,0.25 0.1493568,0.066472 0.2589558,0.072709 0.3300782,0.019531 0.042673,0.079767 0.1034059,0.124209 0.1816406,0.1308594 0.078234,0.00665 0.1244471,-0.031562 0.1386719,-0.1113281 C 2.4708342,1.6541035 2.3955819,1.5546933 2.2320012,1.4350428 2.0684205,1.3153933 1.9225205,1.2428812 1.7945012,1.2162928 1.7304911,1.2029981 1.67454,1.1973435 1.6265325,1.2006678 Z m 0.072266,0.125 c 0.092458,-0.00665 0.1875386,0.017135 0.2871093,0.070312 0.099572,0.053178 0.1721709,0.1069783 0.2148438,0.1601563 0.042673,0.053178 0.013633,0.059414 -0.085937,0.019531 -0.099571,-0.039883 -0.1286105,-0.033647 -0.085937,0.019531 0.042673,0.053178 0.022846,0.065651 -0.0625,0.039063 C 1.8810291,1.6076721 1.7939096,1.5682989 1.7085637,1.515121 1.608993,1.3954714 1.6063429,1.3323182 1.6987985,1.3256678 Z m 0.6191406,0.3222657 c 0.014335,-0.00156 0.029633,0.00511 0.042969,0.017578 0.035562,0.033236 0.035562,0.063255 0,0.089844 -0.035562,0.026588 -0.074515,0.012162 -0.1171875,-0.041016 0.026671,-0.041545 0.050326,-0.06381 0.074218,-0.066406 z m -0.2460942,0.2871093 -0.085937,0.019531 0.042969,0.2792968 C 1.9150808,2.4731714 1.8807344,2.6595208 1.9234074,2.7924647 1.9660804,2.92541 2.0783338,3.0248204 2.2632511,3.0912928 2.3770497,2.9184646 2.413346,2.7621345 2.370673,2.6225428 2.328,2.4829505 2.2428329,2.3472842 2.1148137,2.2143397 Z m 0.021484,0.4179688 c 0.085347,0.1063558 0.1361659,0.2201931 0.1503906,0.3398437 0.028448,0.1063551 0.00667,0.1913398 -0.064453,0.2578125 C 2.079696,2.8974898 2.0361369,2.8518793 2.0503605,2.8119959 2.1783805,2.8651739 2.2437199,2.8257997 2.2437199,2.6928553 2.1725975,2.5599111 2.0999985,2.545485 2.0288761,2.6518397 2.0430998,2.5454846 2.0648811,2.4460733 2.0933289,2.3530116 Z"
     sodipodi:nodetypes="cccsccscscccssccccccccccccccccccccssccsccccccccccccsccsssssscccccscccssccccccccccssssscsssscsccssscscccssccssscsccccsccccscscccscccccsssscssccssscccscssccsccscsssssscsccscccccscsccccccccc"
     inkscape:label="path1911" /></svg>
