<?xml version="1.0" encoding="UTF-8" standalone="no"?>
<svg
   width="1260"
   height="1800"
   id="svg2"
   sodipodi:version="0.32"
   inkscape:version="1.2.1 (9c6d41e410, 2022-07-14)"
   sodipodi:docname="US9A12VARB.svg"
   inkscape:output_extension="org.inkscape.output.svg.inkscape"
   version="1.0"
   xmlns:inkscape="http://www.inkscape.org/namespaces/inkscape"
   xmlns:sodipodi="http://sodipodi.sourceforge.net/DTD/sodipodi-0.dtd"
   xmlns="http://www.w3.org/2000/svg"
   xmlns:svg="http://www.w3.org/2000/svg"
   xmlns:rdf="http://www.w3.org/1999/02/22-rdf-syntax-ns#"
   xmlns:cc="http://creativecommons.org/ns#"
   xmlns:dc="http://purl.org/dc/elements/1.1/">
  <metadata
     id="metadata9">
    <rdf:RDF>
      <cc:Work
         rdf:about="">
        <dc:format>image/svg+xml</dc:format>
        <dc:type
           rdf:resource="http://purl.org/dc/dcmitype/StillImage" />
      </cc:Work>
    </rdf:RDF>
  </metadata>
  <defs
     id="defs7">
    <inkscape:perspective
       sodipodi:type="inkscape:persp3d"
       inkscape:vp_x="0 : 1179.1895 : 1"
       inkscape:vp_y="0 : 1000 : 0"
       inkscape:vp_z="5.8304138 : 1179.1895 : 1"
       inkscape:persp3d-origin="2.9152069 : 1178.1585 : 1"
       id="perspective11" />
  </defs>
  <sodipodi:namedview
     inkscape:window-height="1137"
     inkscape:window-width="1920"
     inkscape:pageshadow="2"
     inkscape:pageopacity="0.0"
     guidetolerance="10.0"
     gridtolerance="10.0"
     objecttolerance="10.0"
     borderopacity="1.0"
     bordercolor="#666666"
     pagecolor="#ffffff"
     id="base"
     showgrid="false"
     inkscape:zoom="0.49555556"
     inkscape:cx="898.99103"
     inkscape:cy="900"
     inkscape:window-x="-8"
     inkscape:window-y="-8"
     inkscape:current-layer="svg2"
     inkscape:showpageshadow="2"
     inkscape:pagecheckerboard="0"
     inkscape:deskcolor="#d1d1d1"
     inkscape:window-maximized="1" />
  <path
     id="path9"
     d="m 769.06042,12.075064 c 44.4031,0.98974 79.0431,32.22607 79.0431,69.90994 0,22.918006 -24.7264,22.351846 -28.6281,3.52597 -9.5431,-45.83594 -91.9527,-62.57987 -113.6333,4.41038 -7.6939,22.595926 -6.9049,66.866696 -1.0615,315.576806 17.267,2.76988 34.2428,7.30195 49.6433,13.20217 8.6781,2.64553 16.4814,6.17221 23.4299,9.68967 23.4203,12.34569 37.2963,29.97164 49.4436,52.88964 11.2827,22.9179 13.8879,52.89232 5.2097,89.02795 -7.8133,36.13572 -28.6299,66.10816 -62.4582,89.02606 -33.8379,22.918 -37.3073,44.95356 -8.6782,66.98971 19.5341,5.26381 41.5504,13.02135 65.6484,22.6692 l 204.58328,-368.73937 44.6045,25.15401 -201.82878,363.77361 c 6.2737,2.8433 13.1713,6.20084 19.7119,9.26777 l 232.34178,-330.88832 41.7136,29.76952 -231.65648,329.91106 c 3.0276,3.55372 6.7231,8.31131 10.2715,12.79375 l 275.40488,-290.30672 36.934,35.61207 -281.45528,296.6871 c 41.52288,60.67205 95.18858,153.67436 132.42748,260.06496 13.0123,52.8906 -5.1987,76.6905 -54.6437,70.5176 l -219.46158,-49.3618 c -6.9386,21.1543 -13.8765,49.3627 -13.8765,72.2807 32.9634,116.3435 20.8147,195.6787 -37.2987,234.46 26.0248,-19.3906 45.977,-23.7891 60.7191,-12.3352 14.7422,11.464 20.8163,41.4278 17.347,88.1456 l -33.8281,210.6607 -5.2097,55.5254 h -130.0838 v -32.6182 l 65.9268,-8.8168 12.1469,-207.1347 -451.0587,248.5697 H 70.929456 v -34.3715 l 130.978264,-57.2903 c -12.1376,-36.1457 -6.0718,-67.8717 19.0879,-96.9625 l -95.4225,-268.8431 c -12.1474,-43.1905 -8.6763,-74.9276 10.4097,-96.0819 19.0861,-21.1543 60.7169,-25.5535 124.0391,-13.2176 104.9538,21.1542 210.7825,39.6634 315.7364,57.2904 14.752,-113.7081 -40.7668,-374.61396 -91.0766,-379.02317 -19.0763,42.30862 -52.0402,91.67129 -98.0159,148.07937 -39.902,49.3633 -68.5202,42.3097 -100.6187,4.4104 L 168.94532,911.42171 V 1212.8733 C 58.782556,1155.5833 4.1388561,1078.9022 4.1388561,981.93929 c 0,-74.03504 14.7418999,-130.45404 44.2359999,-169.23529 l -1.7391,-7.05385 c -16.1333,-44.00384 -14.6777,-72.7092 5.7202,-87.13149 -32.1035,-38.82039 -48.2265999,-98.14828 -48.2265999,-177.30325 0,-96.95304 54.6435999,-175.4076 164.8062639,-236.225 v 517.41485 c 109.2979,104.88962 160.4717,170.11584 166.5455,170.11584 v -3.52796 l 120.5725,-178.05213 c 48.5702,-41.42678 99.7545,-64.34538 154.3986,-68.75459 10.4079,-26.44537 9.5336,-43.18947 -1.7392,-50.24421 -22.5553,0 -26.8896,5.29145 -42.5064,8.81882 -44.2459,17.62694 -48.5817,-28.20975 -48.5817,-28.20975 -11.2728,-15.86325 -14.7419,-30.85567 -10.4078,-44.95524 0.8649,-11.45404 -3.4687,-17.62595 -12.1469,-20.27148 -4.3341,-2.64553 -11.2735,-5.29085 -19.9517,-7.93638 -9.5431,-2.64553 5.1988,-30.85557 44.2359,-85.50008 17.3465,-21.15432 41.6328,-48.47082 71.1269,-80.20725 20.1381,-21.35277 48.2364,-30.08024 77.9258,-30.93255 -0.3751,-73.08463 -4.2057,-137.4203 -4.2057,-137.4203 0,0 -42.7613,7.83829 -60.7172,-4.40842 -15.9018,-13.07901 -21.6717,-37.04838 -2.5856,-51.14795 19.0762,-14.99133 65.9076,-11.44295 65.9076,-11.44295 0,0 0.8649,-24.67346 0,-56.40978 -1.7298,-66.980366 13.0127,-100.479086 55.519,-119.869696 16.0492,-7.27272 31.9341,-10.30406 46.7352,-9.97414 z M 126.41002,396.66388 c -52.039504,41.42678 -78.065864,91.6706 -78.065864,149.84238 0,58.17188 15.608,106.6541 47.70636,144.55351 l 30.359504,36.14603 z m 551.4643,35.48039 c -24.7213,0 -48.7937,5.50933 -66.5776,20.05478 -1.7296,1.76369 -18.2118,22.03635 -17.3468,22.03635 58.1231,9.69036 85.0139,17.62655 79.805,59.05333 10.408,-7.92667 19.9497,-12.33509 30.3577,-12.33509 26.0247,1.76368 39.9019,12.33658 42.5064,36.13642 2.5946,34.37194 -13.0119,32.60726 -35.5673,60.81632 5.2089,22.91799 17.3469,28.19884 36.433,15.86305 12.1474,-8.80851 34.703,-20.27266 42.5065,-32.60855 17.3464,-28.20905 23.4206,-65.22662 17.3469,-97.84489 -3.4693,-17.62694 -15.6085,-31.72572 -31.2253,-42.30783 -8.6781,-7.05474 -18.2212,-12.34559 -27.7643,-15.86306 -20.3834,-7.4907 -45.7529,-13.00083 -70.4742,-13.00083 z m -116.8581,72.04455 c -30.3589,30.84457 -48.5803,58.17099 -55.519,82.85267 26.0247,5.29106 32.9641,16.7563 19.9517,31.73761 26.8896,1.76369 40.7673,6.1616 40.7673,14.09819 0,3.52737 -13.013,7.05632 -39.0377,10.58369 7.8034,7.05474 10.4084,17.63675 6.9392,32.61817 3.4692,9.70027 12.1468,11.46316 26.8889,7.05394 40.7668,-19.39062 66.7913,-18.50888 78.0641,2.64543 11.2728,21.15432 11.2733,43.18988 -1.7391,66.98971 29.494,12.33589 59.8521,9.69185 90.2109,-8.81693 -31.2335,-44.07221 -49.4439,-86.38252 -52.0484,-126.92736 v -1.76299 c 29.494,-25.55362 44.2359,-44.95455 44.2359,-57.29034 -5.1991,-6.1729 -9.5422,-8.81882 -13.8764,-8.81882 -11.2826,9.69036 -22.5556,12.33698 -32.0987,14.9825 -23.4202,7.93659 -28.6301,-14.98131 -32.9643,-43.19036 -16.4817,-12.33589 -65.0519,-14.98152 -79.7744,-16.75511 z m 16.6693,18.73678 c 13.0112,0.66138 29.7091,7.71255 50.0925,20.93523 -40.7668,22.03616 -66.7913,20.27386 -78.0641,-3.52598 5.6364,-12.34084 14.9605,-18.07064 27.9716,-17.40925 z m 195.8244,244.82514 c -65.9266,37.01747 -123.1767,40.54553 -173.4867,12.3564 -42.5063,7.04483 -75.4692,22.9171 -116.2361,55.52536 106.6935,62.58109 131.8533,333.1886 129.2488,413.3966 l 166.5474,-51.1287 c 10.408,-34.3719 4.3345,-7.0542 13.0126,-64.3441 -20.8158,-8.8185 -69.3874,22.9188 -117.9675,20.2733 -24.2852,-0.8818 -52.913,-7.9267 -49.4437,-37.8994 -3.4693,-42.3085 48.5803,-39.6628 65.9268,-45.8357 2.9877,-0.8719 -33.653,5.8839 -35.1469,-19.0059 -0.5012,-8.4122 32.5617,-7.6383 40.8959,-7.1429 10.634,0.6341 22.0344,8.5315 41.5333,14.9322 26.3195,8.64 55.3811,14.2382 70.6834,12.9699 22.5456,-95.18936 45.1,-219.47952 81.5327,-257.37893 -32.9634,-22.03605 -71.999,-37.01796 -117.1,-46.71813 z M 89.111316,838.26832 c -26.88946,42.30852 -40.76716,90.78093 -40.76716,144.5534 0,53.76258 26.01656,101.36178 78.065864,142.78858 V 870.87677 C 111.66792,862.06825 99.519316,850.6042 89.111316,838.26832 Z m 798.030004,62.58119 c -14.752,13.21773 -29.4931,95.19014 -43.3702,174.52619 l 186.49718,39.6624 z m -106.6942,354.33169 c -63.3222,12.3358 -125.7694,34.3721 -188.2268,65.2267 -105.8285,60.8173 -214.2613,155.1343 -326.1537,281.1782 l 69.3953,78.4462 c 32.9634,-51.9989 87.607,-91.6626 164.8064,-119.8716 77.1995,-28.209 146.597,-58.1715 207.3148,-89.026 83.2732,-84.6173 107.5571,-156.0181 72.864,-215.9535 z m -563.8165,1.7648 c 51.1748,30.8546 78.0653,113.7075 81.5346,248.5698 79.8038,-77.5723 159.5982,-140.1544 237.6723,-188.6359 -92.8064,-21.1543 -199.5012,-41.4251 -319.2069,-59.9339 z"
     style="stroke-width:0.986813" />
</svg>
