<?xml version="1.0" encoding="UTF-8" standalone="no"?>
<!-- Generator: Adobe Illustrator 19.0.0, SVG Export Plug-In . SVG Version: 6.00 Build 0)  -->

<svg
   version="1.1"
   id="Ebene_1"
   x="0px"
   y="0px"
   viewBox="0 0 1435.7949 1795.6415"
   xml:space="preserve"
   sodipodi:docname="US9A13VARQ.svg"
   width="1435.7949"
   height="1795.6415"
   inkscape:version="1.2.2 (732a01da63, 2022-12-09)"
   xmlns:inkscape="http://www.inkscape.org/namespaces/inkscape"
   xmlns:sodipodi="http://sodipodi.sourceforge.net/DTD/sodipodi-0.dtd"
   xmlns="http://www.w3.org/2000/svg"
   xmlns:svg="http://www.w3.org/2000/svg"><defs
   id="defs2385">
	
	
<pattern
   id="EMFhbasepattern"
   patternUnits="userSpaceOnUse"
   width="6"
   height="6"
   x="0"
   y="0" /></defs><sodipodi:namedview
   id="namedview2383"
   pagecolor="#ffffff"
   bordercolor="#000000"
   borderopacity="0.25"
   inkscape:showpageshadow="2"
   inkscape:pageopacity="0.0"
   inkscape:pagecheckerboard="0"
   inkscape:deskcolor="#d1d1d1"
   showgrid="false"
   inkscape:zoom="0.25681242"
   inkscape:cx="990.9957"
   inkscape:cy="576.29612"
   inkscape:window-width="1920"
   inkscape:window-height="1137"
   inkscape:window-x="-8"
   inkscape:window-y="-8"
   inkscape:window-maximized="1"
   inkscape:current-layer="Ebene_1" />
<style
   type="text/css"
   id="style2377">
	.st0{fill:#010101;}
</style>
<path
   id="XMLID_9_"
   style="stroke-width:1.07183"
   class="st0"
   d="M 642.59722,5.0674322 C 573.48585,4.7724691 483.74138,7.6654049 416.46267,24.992766 c -39.35383,11.508312 -78.36315,54.252392 -59.25435,96.226194 13.91785,28.31959 70.31106,36.75406 94.47891,51.59611 -2.34365,34.54263 -26.50594,48.85967 -41.05288,80.39651 -13.43152,31.61475 -50.7511,54.20739 -46.77119,91.52289 7.97133,36.08215 50.43419,40.72268 79.41212,52.66802 0.0919,37.8145 -6.82392,75.45195 -6.90756,113.24499 -9.48812,29.98102 3.51451,73.28865 40.7853,72.83938 32.47122,-6.22521 28.46638,-47.28533 51.22295,-65.21935 29.87915,-31.5652 52.26241,-73.10364 94.78712,-90.02326 25.33868,-0.91771 32.74396,23.96281 34.66764,41.98024 -9.00776,33.57495 -35.48202,71.71702 -67.3046,110.1432 -42.30078,50.59101 -77.49858,114.31404 -105.59145,191.16111 32.8288,148.14411 75.66835,284.8683 128.30214,410.2786 l 0.64814,1.9223 -59.09379,20.1733 c -0.75338,11.4197 -2.04516,23.2681 -3.87497,35.3289 -127.97866,54.2195 -279.74844,152.841 -455.30206,295.8622 -90.7367698,53.0456 -116.89255,123.3852 -78.46666,211.0121 25.61727,66.9214 173.29569,60.5154 443.13802,-18.9999 197.72657,-83.0373 305.25788,-124.5561 322.69484,-124.5561 29.06162,35.7555 29.06162,83.0383 0,141.8481 -47.68258,16.1167 -64.58127,32.8732 -50.58868,50.164 30.24562,2.3482 61.88903,0.853 95.04083,-4.377 33.15174,-5.2299 58.44705,-46.4273 75.88401,-123.7012 17.43695,-77.2738 27.01801,-131.7107 28.74019,-163.5171 1.72218,-31.8064 -13.13215,-47.6011 -44.45414,-47.6011 53.49495,-101.5022 58.76824,-205.2484 15.71395,-311.3402 -3.98255,-8.5386 -10.33191,-21.6686 -18.94276,-39.5998 -9.25666,-41.4115 -13.88646,-83.4648 -13.88646,-126.15789 0,-59.34302 6.99902,-119.54156 21.09925,-180.69904 33.47472,-111.74851 68.67246,-177.17741 105.59146,-196.38918 28.20071,45.36118 59.41451,95.6352 93.75061,150.60219 34.3353,54.96704 51.4508,94.67219 51.4508,119.1138 0,22.73396 -6.9988,41.94709 -21.0992,57.63666 -36.9192,54.11315 -58.9838,175.46966 -65.9795,363.95906 -10.5484,26.1489 -17.6511,51.019 -21.0954,74.6062 -3.552,23.5881 -4.4138,44.9344 -2.6916,64.1463 0,13.982 6.5637,32.3401 19.803,54.9675 13.2392,22.7342 23.3591,44.5068 30.3555,65.4258 1.7222,5.2298 5.2726,8.7524 10.5467,10.4601 3.5521,3.5222 6.9965,0.855 10.5486,-7.8972 8.8262,8.7522 14.1008,7.8976 15.823,-2.669 8.8261,5.23 13.2403,3.522 13.2403,-5.2301 5.2742,1.7077 9.6883,1.7077 13.2403,0 3.552,-1.7078 4.4118,-6.0829 2.6897,-13.1272 -14.1003,-29.6718 -24.6496,-52.8326 -31.646,-69.3763 -6.9963,-16.5435 -11.4104,-42.3744 -13.2402,-77.2753 0,-8.752 1.7242,-13.1292 5.2763,-13.1292 3.552,0 6.9966,2.6691 10.5486,7.8991 3.552,10.4598 5.2723,23.1601 5.2723,37.996 0,14.8358 2.6917,26.1518 7.966,34.0493 5.2741,7.8982 11.4107,10.0318 18.5147,6.5096 6.9964,-1.7077 7.9639,-10.0316 2.6897,-24.8667 -5.2742,-14.8359 -6.9966,-36.1823 -5.2744,-64.1463 1.7222,-27.9641 -9.6869,-54.9696 -34.3356,-81.226 35.1971,-127.4383 58.1248,-218.2683 68.6732,-272.3811 -15.8226,101.2887 -23.7909,193.8266 -23.7909,277.6112 8.8261,24.4418 15.8251,47.1771 21.0992,68.0967 5.2742,20.9198 13.2393,39.278 23.787,54.9676 6.9963,10.4592 19.8042,22.7332 38.3177,36.6085 18.5127,13.9813 34.7678,29.6723 48.8682,47.1765 3.5513,1.7076 6.9945,2.6691 10.5466,2.6691 5.2741,0 6.9965,-3.5245 5.2743,-10.4621 10.5484,3.5222 14.1027,4e-4 10.5507,-10.4581 10.5484,3.5221 14.9584,0.8529 13.2362,-7.8991 3.552,0 6.5694,-1.2823 9.2603,-3.9506 2.6909,-2.6683 1.2903,-6.5097 -3.9839,-11.7396 -21.0968,-20.9196 -38.3173,-36.181 -51.4489,-45.787 -13.2393,-9.606 -26.8019,-29.2471 -40.9023,-58.9181 -1.7221,-6.9376 -1.2929,-10.8857 1.2904,-11.7396 2.5833,-0.8538 5.7043,0.4283 9.2563,3.9504 5.2742,5.23 11.4105,13.9808 18.5146,26.1484 6.9963,12.2742 14.1009,20.9203 21.0973,26.1501 6.9963,5.2301 13.2385,5.2301 18.5127,0 3.552,-5.2298 0.431,-12.7017 -9.2564,-22.3076 -9.6872,-9.606 -18.9454,-26.1497 -27.7709,-49.7376 -8.8261,-23.5879 -28.2024,-43.2291 -58.1245,-58.9181 26.3701,-113.4563 44.8844,-201.6166 55.4328,-264.482 0,19.2118 2.6917,113.4575 7.966,282.8411 l 58.1226,-15.6901 -10.5467,-34.0473 108.2812,-44.5076 v -4.8034 h -0.4301 L 1308.5691,923.51466 c 40.4713,-24.44161 61.1377,-55.82149 62.1065,-94.24502 0.8611,-38.42354 -17.6532,-64.14733 -55.4328,-77.2754 -37.8881,-13.12807 -68.2406,7.47206 -91.0588,61.58524 C 1151.9599,624.98393 1103.6292,520.27941 1078.9805,499.35993 1064.8801,474.91824 1004.1721,447.8055 896.75185,418.134 l -26.99528,-9.62622 c 20.2801,-14.71527 107.7611,-13.08236 126.44361,-14.01366 69.05742,9.17921 78.03972,24.41061 96.05322,-14.12638 7.8328,-37.36532 13.4043,-83.59824 -14.0514,-127.67847 C 1053.5999,195.11459 982.60469,146.09756 938.78982,102.31458 901.88003,62.64932 848.62553,47.81608 798.17696,28.789264 746.5932,9.3343054 689.76094,5.2687242 642.59722,5.0674322 Z m -5.52983,50.4184648 c 70.77943,-0.09016 117.83035,6.284712 176.71453,24.878422 52.11504,17.031736 109.44515,63.390741 145.56606,101.802341 28.31605,32.73227 77.93462,66.8025 86.59612,110.06072 14.2848,28.77783 19.3939,71.4314 -27.8345,60.62807 -59.10983,-9.12748 -135.14501,2.24734 -178.98412,6.4376 -37.39806,11.03578 -60.38974,5.04626 -108.88636,-52.34352 19.37442,-41.94572 27.33897,-75.70449 23.78696,-93.10188 -8.82611,-29.67151 -24.21887,-43.65423 -46.17656,-41.94651 -21.95765,1.70772 -37.45809,10.46058 -46.17656,26.15025 -48.08284,-34.92792 -110.16665,-27.92627 -154.18693,-48.98207 -14.31346,-6.84643 -24.58152,-6.86097 -38.07502,-13.90036 -28.60049,-14.92052 -79.41563,-20.61748 -74.08329,-45.483581 19.67404,-34.336815 92.15431,-26.335317 126.5231,-31.04011 58.00383,-5.611654 78.22677,-2.969239 115.21657,-3.159372 z M 490.66091,188.40105 c 11.07723,3.81195 28.20864,4.26965 39.83985,12.7459 31.96009,7.85342 74.68032,11.51038 131.1722,36.28997 12.27041,1.70774 23.78929,-4.37932 34.33758,-18.36117 10.54829,-13.98194 18.08156,-13.55236 22.49466,1.28343 4.41309,14.83573 -6.56485,44.08007 -33.0433,87.73351 15.82248,43.65346 31.05497,47.72485 76.90763,91.37829 12.27112,2.57486 46.62435,44.18686 57.35663,46.10063 51.06774,11.66326 96.18431,37.28285 135.14826,77.26948 -96.97967,162.44624 -145.41545,309.09748 -145.41545,439.95102 0,23.69456 5.70596,72.58029 17.11528,146.54539 l -152.63022,53.1516 C 582.34616,914.76373 545.21181,769.71158 562.54111,727.12547 c 18.5133,-45.3611 52.4194,-96.91342 101.71648,-154.5488 43.07805,-66.4127 65.04757,-106.97192 6.10283,-170.95043 -22.44347,-28.47479 -67.94202,-13.96498 -92.46808,5.5681 -34.81107,23.1139 -56.0774,59.81261 -84.34353,89.5771 -11.3379,12.54705 -21.37194,38.64156 -15.42655,6.97734 -3.106,-41.68134 13.01603,-84.11859 2.28732,-125.15952 -11.20115,-31.04714 -66.52336,-19.23308 -73.30334,-45.52756 14.47642,-25.91353 35.35778,-48.02009 47.78404,-75.39248 15.92433,-21.20582 30.06295,-43.44983 35.77063,-69.26817 z m 48.29343,34.45621 c -30.36113,-0.30644 -46.73743,13.27114 -49.06843,40.72794 17.65228,22.73396 53.70995,13.12831 108.28114,-28.81734 -23.56877,-7.77815 -43.30929,-11.75008 -59.21271,-11.9106 z m 761.20876,578.01955 c 8.7434,1.44152 14.2173,10.9154 16.37,28.39283 3.552,27.96379 -13.2374,52.40534 -50.1566,73.32483 -10.5483,-50.59101 -5.7051,-82.50457 14.5306,-95.63264 7.5884,-4.92305 14.01,-6.94993 19.256,-6.08502 z m 3.1316,203.86179 c 56.4014,94.2444 79.3272,149.3198 68.6713,165.0089 -10.5485,15.6896 -23.7854,19.2122 -39.608,10.4601 -15.8226,-8.7521 -25.5113,-67.2427 -29.0633,-175.469 z m -471.98526,175.1486 c 50.05048,85.3854 27.33803,185.0768 -68.02703,299.2802 -59.30718,36.9294 -153.27378,61.6909 -281.79061,74.3921 -128.51684,12.7012 -238.0926,58.2769 -328.82938,136.618 52.31089,-119.967 97.73186,-197.2415 136.05011,-231.8222 38.42587,-34.5815 110.76085,-76.9573 217.21239,-127.1209 106.4516,-50.1645 214.84281,-100.6491 325.38452,-151.3472 z"
   sodipodi:nodetypes="scccccccccccccccccccccccssscccscccsccccccccccscscscsccsscccscccscccssccsscscsccccccccccccccccccccssccccccccscssccccccssccccsccccccccccccsccssccssccscccscccc" />
</svg>
