<?xml version="1.0" encoding="UTF-8" standalone="no"?>
<svg
   xml:space="preserve"
   viewBox="0 0 1662.8777 1794.1088"
   y="0px"
   x="0px"
   id="Ebene_1"
   version="1.1"
   width="1662.8777"
   height="1794.1088"
   xmlns="http://www.w3.org/2000/svg"
   xmlns:svg="http://www.w3.org/2000/svg"
   xmlns:rdf="http://www.w3.org/1999/02/22-rdf-syntax-ns#"
   xmlns:cc="http://creativecommons.org/ns#"
   xmlns:dc="http://purl.org/dc/elements/1.1/"><metadata
     id="metadata4103"><rdf:RDF><cc:Work
         rdf:about=""><dc:format>image/svg+xml</dc:format><dc:type
           rdf:resource="http://purl.org/dc/dcmitype/StillImage" /></cc:Work></rdf:RDF></metadata><defs
     id="defs4101" /><style
     id="style4088"
     type="text/css">
	.st0{fill:#010101;}
</style><path
     id="XMLID_20_"
     class="st0"
     d="m 1512.8708,2.4322282e-8 c -1.0409,0 -1.9761,-4.06000002282e-4 -3.0171,0.103691995677718 -27.0655,1.45736948 -54.1318,11.24341198 -74.7432,28.94004998 -31.0212,24.671195 -58.8149,53.194502 -88.587,79.531258 -60.4809,55.58827 -120.9623,111.07218 -181.5472,166.66045 -37.163,0.41639 -71.5149,8.95285 -103.1607,25.40031 -50.7998,26.44087 -77.76163,56.31744 -81.09276,89.42057 l -18.21715,34.7671 1.66515,19.88433 c -15.4065,23.21383 -28.10603,45.80232 -38.09944,67.87107 -9.88931,22.06875 -11.03355,35.91462 -3.3303,41.43181 l 21.54745,16.54995 c -6.66227,7.70324 -6.66227,14.88724 0,21.5495 -5.5172,9.8893 -3.33072,16.03109 6.66268,18.21714 l 3.3303,6.66268 c 0,20.92367 6.87089,35.08062 20.71592,42.26337 13.84503,7.18275 44.44915,5.2053 91.81355,-5.82908 l 4.9976,18.21715 c -75.78326,12.59584 -131.268,28.10606 -166.4531,46.42729 l -0.10368,-0.4168 c -8.64013,4.9967 -17.59338,10.30652 -26.85809,15.9278 C 736.61242,847.9832 640.32323,922.1007 589.62757,955.41202 584.73498,957.91037 556.62846,948.64441 505.30821,927.61664 454.09206,906.58887 402.45774,885.04177 350.617,862.76482 304.60574,843.09032 264.94596,812.17357 231.53054,770.01393 227.26253,764.70495 223.0986,759.08365 219.03878,753.35826 200.50936,712.55189 183.85202,671.8495 168.96603,631.04314 186.24628,481.55859 193.63766,353.72562 191.24341,247.54579 H 35.720622 c -3.747527,106.17983 3.747954,234.1169 22.277373,383.49735 l 1.874575,59.33584 c -12.387648,8.64012 -23.734754,23.73396 -34.248639,45.38631 -10.513885,21.65236 2.811499,58.39942 39.870336,110.24016 l 7.39055,292.72275 c 4.892605,72.8684 0.624577,126.5839 -13.012247,161.1445 -50.5915633,93.8962 -69.1214505,176.0289 -55.5887242,246.399 13.6368242,70.3701 35.1859582,140.8451 64.8538502,211.2152 29.667896,49.4465 59.334244,48.8211 88.898044,-1.8746 28.41871,-69.1209 49.44654,-138.9705 62.97927,-209.3406 13.63682,-70.3701 -4.89103,-152.5028 -55.58669,-246.399 -13.63683,-34.5606 -17.90485,-88.2761 -13.01225,-161.1445 l 7.39055,-292.72275 32.79086,19.77862 222.87336,134.077 c 81.50863,64.22833 145.7368,83.38373 192.68494,57.46333 93.89628,-44.4498 166.45231,-84.94567 217.66846,-121.37992 22.17285,-15.71878 41.84862,-28.20894 59.02477,-37.36955 l 6.97375,-2.81186 c 9.26471,-0.62459 12.38847,5.30982 16.44829,11.24339 13.22046,19.15401 37.5798,59.0228 70.16246,122.52254 32.58259,63.4996 49.96659,139.5959 52.15269,228.3913 2.186,88.7955 -1.6652,144.8007 -11.5545,168.0146 L 737.65407,1205.7677 c -42.99242,-44.1376 -80.57146,-66.2059 -112.52951,-66.2059 -79.42667,7.7032 -121.37905,44.658 -125.75116,110.8643 l 52.98627,288.0383 c -69.53737,52.9857 -109.19878,93.1677 -119.19218,120.7536 0,36.4343 -20.40405,54.6515 -61.21042,54.6515 -87.12992,0 -130.74665,26.4417 -130.74665,79.4275 H 1581.8886 c 38.6204,-6.6622 57.8781,-16.031 57.8781,-28.1064 0,-44.1375 -67.8716,-64.0215 -203.6152,-59.5453 h -6.6627 l -130.7467,-81.0927 c 8.8484,-47.4686 6.6619,-221.8331 -6.6626,-523.0924 169.8876,68.3924 276.3805,102.6423 319.4771,102.6423 34.2482,-5.4131 51.3211,-20.9237 51.3211,-46.3236 -5.5172,-38.6203 -52.154,-127.209 -139.8044,-265.65926 -87.7545,-138.45017 -181.7548,-211.0062 -282.2092,-217.66846 -27.586,-5.51718 -41.9519,-29.77247 -43.097,-72.76489 100.4545,-37.47523 148.1314,-96.28949 143.1347,-176.23665 -4.9967,-79.94716 -39.9737,-127.41715 -105.1389,-142.30315 -0.2082,-0.1041 -0.4156,-0.10368 -0.7279,-0.10368 l 14.5737,-14.57372 c 36.8506,-0.1041 71.9305,16.23849 100.2451,39.24413 48.5097,-51.42435 88.483,-110.23819 134.3901,-163.84859 6.6623,-7.39095 13.534,-14.26184 21.029,-20.7159 22.4852,8.53602 49.863,4.37128 67.1432,-12.80487 15.4065,-13.220425 27.6897,-34.247032 21.4438,-54.962507 -5.9336,-18.945813 -22.0688,-32.478579 -37.9958,-43.20066 C 1542.956,4.3733537 1527.9651,1.0424322e-5 1512.8708,1.0424322e-5 Z M 1510.8947,39.453539 h 2.0819 c 16.5516,-0.104098 34.2474,8.849157 41.3261,24.255641 2.0819,7.390949 -3.5389,13.531518 -9.4725,16.966751 -11.4508,8.119632 -26.9622,6.455292 -38.8294,0.209414 -6.8705,-2.914743 -11.7627,3.642211 -16.7594,7.077444 -36.0179,28.210521 -63.2907,65.582981 -91.8135,101.184451 -15.8229,20.61138 -31.8553,41.32691 -49.1355,60.89731 -20.4032,-11.55486 -41.6388,-21.75811 -64.124,-28.73266 56.421,-51.73664 111.6968,-104.61852 169.7834,-154.065005 16.6557,-13.012234 34.9782,-27.376954 56.9429,-27.793346 z M 1156.1279,312.29392 c 21.3401,0.2082 43.8244,4.78933 67.3506,13.84584 50.1752,19.25811 74.7436,57.15026 73.5985,113.3631 -1.1451,56.31696 -35.811,92.64559 -104.3074,109.19716 40.8064,-29.77199 56.8391,-59.02237 47.9908,-87.75338 -8.8483,-28.73101 -24.0479,-42.15968 -45.4921,-40.59821 -21.5482,1.66557 -54.8589,-8.01638 -100.1414,-28.94005 -45.1785,-20.92367 -47.6764,-41.84619 -7.3905,-62.76986 21.4442,-11.13847 44.2408,-16.65689 68.3915,-16.3446 z M 91.205654,329.15901 h 44.449016 c 4.8926,51.84074 -2.49675,166.13933 -22.27534,342.79341 C 93.704839,495.29834 86.31305,381.10385 91.205654,329.15901 Z m 911.377746,60.37683 c 73.9095,17.69663 125.7508,42.4716 155.5228,74.53374 24.2548,-22.06875 42.2629,-22.38186 53.8178,-0.8336 11.5549,21.54826 -4.1628,44.96994 -47.1551,70.36983 -6.6623,94.93726 4.3709,150.10929 33.1019,165.51578 28.731,15.40648 54.3391,25.08842 77.0325,28.94005 22.5893,3.85162 30.9179,23.21306 24.7761,57.98176 -6.1417,34.97688 -25.1921,99.20587 -57.1502,192.99805 -82.7577,-26.44087 -139.283,-37.78716 -169.6797,-33.93554 -30.3966,3.85163 -44.4494,24.56676 -42.2633,62.04199 -64.02017,-94.93726 -95.45744,-167.70229 -94.31237,-218.50205 -1.14507,-33.10313 29.25154,-55.17153 91.08577,-66.20591 61.8341,-11.03437 88.7939,-27.06509 81.0906,-47.98876 -7.7032,-20.92367 -14.3651,-39.14085 -19.8823,-54.65144 -17.6966,8.84832 -40.8051,15.19912 -69.5362,19.05074 -28.73102,3.85163 -43.61744,-5.83031 -44.65842,-28.94004 8.84832,-3.33114 16.03025,-5.82868 21.54744,-7.49425 5.51718,-1.66556 9.99468,-3.01884 13.22168,-4.16391 v -11.5565 l -28.10644,-9.993 c -2.18605,-4.37212 -7.70366,-4.9963 -16.55199,-1.66517 v -8.32783 l -11.55446,-8.32784 c -11.03438,-7.70324 -16.03192,-13.74093 -14.88684,-18.21715 1.14507,-4.37211 5.20531,-14.88521 12.38807,-31.43677 7.18276,-16.55156 19.0491,-37.5798 35.60068,-62.87558 l -3.33031,-19.88231 z m 9.7856,36.74536 c -12.1794,0 -19.57038,0.52009 -22.38103,1.66517 -2.81064,1.14507 -3.01967,4.47784 -0.83361,9.99503 27.58594,0 48.30104,3.85122 62.04194,11.55446 13.8451,7.70324 23.1098,12.69874 28.1065,14.8848 4.9967,2.18605 19.0516,3.33235 42.2654,3.33235 v -8.32784 c -17.6966,0 -29.2519,-0.83319 -34.7691,-2.49876 -5.4131,-1.66556 -16.1356,-7.18317 -32.1667,-16.55198 -16.0311,-9.36881 -30.0839,-14.05323 -42.2634,-14.05323 z m -2.6024,20.4028 c -6.5582,0.1041 -12.90941,2.08318 -18.94709,5.9348 -8.84833,5.5172 -12.17905,9.36842 -9.99299,11.55447 10.0975,-7.59914 19.98768,-11.76388 29.98108,-12.28437 9.8893,-0.52049 19.5691,1.66597 28.938,6.66268 9.3688,4.99669 17.0733,8.22374 23.111,9.8893 6.0376,1.66557 9.3684,1.97868 9.9929,0.8336 0.5205,-1.14508 -2.4991,-2.70736 -9.1614,-4.99752 -6.6623,-2.18605 -13.22,-4.9967 -19.8823,-8.32783 -6.6623,-3.33114 -14.8864,-6.03769 -24.8798,-8.32784 -3.123,-0.72869 -6.1406,-1.04139 -9.1594,-0.93729 z m 3.1229,12.07699 c -10.3057,0.1041 -19.25851,3.01885 -26.96176,8.84833 l -16.552,14.88479 3.33239,6.66268 8.22207,-1.66517 c 25.3999,9.8893 51.3211,8.32702 77.8661,-4.99751 l 59.5432,11.55447 1.6673,-11.55447 -61.2105,-9.993 c -17.3843,-9.26471 -32.6863,-13.84422 -45.9068,-13.74012 z m -10.4098,8.84833 c -3.3311,6.66226 -2.811,12.69996 1.6652,18.21714 -6.6623,-1.04098 -12.69997,-2.70736 -18.21716,-4.99751 2.18605,-4.37212 7.70366,-8.84752 16.55196,-13.21963 z m 21.5475,0 24.7761,9.88931 c -8.7442,3.33113 -17.5929,6.14178 -26.4413,8.32783 6.6623,-5.51718 7.1824,-11.55488 1.6652,-18.21714 z m -41.95026,73.59645 c -0.10409,0 -0.20903,-4e-4 -0.31312,0.10368 -1.66557,0.52049 -2.49877,2.70696 -2.49877,6.66268 0,3.85163 -1.66432,6.34917 -4.99545,7.49424 -3.33114,1.14508 -6.8713,-0.83238 -10.72293,-5.82908 -3.85162,-4.9967 -6.8713,-7.49424 -9.16145,-7.49424 -2.29016,0 -3.85038,0.83319 -4.99546,2.49876 -1.14507,1.66557 -1.14507,4.16311 0,7.49424 3.33114,-3.33113 7.39138,-1.97785 12.38808,4.16392 4.9967,6.03767 10.20118,7.70406 15.71838,4.99751 5.51719,-2.70654 8.01471,-6.87087 7.49422,-12.38806 -0.41639,-5.30899 -1.35203,-7.80776 -2.9135,-7.70366 z m -16.13518,37.26789 c 1.56147,0 3.53808,0.52008 6.03643,1.66516 4.9967,2.18606 11.03439,4.16351 18.21715,5.82908 7.07866,1.66557 11.13936,3.01925 12.28436,4.06023 l -34.45598,-1.56147 c -0.4164,-0.62459 -1.04182,-1.1463 -1.8746,-1.77088 -3.43523,-2.08196 -4.47538,-4.2668 -3.3303,-6.55696 0.52049,-1.14508 1.56147,-1.66516 3.12294,-1.66516 z m 36.84904,14.98848 c -0.9369,0.72869 -2.3934,1.56229 -4.3713,2.39507 -6.03769,2.70655 -11.34627,4.684 -15.71839,5.82908 -4.37211,1.14508 -8.84957,1.66516 -13.22169,1.66516 -4.37211,0 -6.97373,-0.83116 -7.49422,-2.49673 -0.52049,-1.45737 0.62417,-3.43685 3.22662,-5.83111 z m 332.3856,258.16298 c 83.9029,68.3923 145.1126,143.96839 183.733,226.72618 l -223.4976,-81.09273 z m -276.3801,188.73048 c 48.5097,44.1375 104.3059,56.837 167.1809,38.0994 l 18.2172,453.4504 h -4.9955 c -6.6622,0 -32.7909,-10.7221 -78.5939,-32.2704 -45.8031,-21.5483 -68.7047,-43.3035 -68.7047,-65.3723 z m -440.8549,182.2751 c 5.93357,-0.1041 12.17947,0.4168 18.73763,1.4578 l 299.5948,216.8369 -324.37093,72.7628 -51.31908,-258.163 c 12.59584,-21.5482 31.6454,-32.4781 57.35758,-32.8945 z m -504.92804,173.7135 c 9.57701,0 18.9983,10.4875 28.26301,31.4632 7.39094,27.2737 10.5143,59.3375 9.26512,96.3964 1.24918,44.4497 -4.89342,87.1287 -18.53025,127.831 -4.8926,12.3877 -11.76267,18.5303 -20.40279,18.5303 -8.64013,0 -14.780693,-6.1426 -18.52822,-18.5303 -16.031067,-39.5572 -24.048256,-82.1321 -24.048256,-127.831 0,-34.5605 4.893833,-66.7285 14.78313,-96.3964 9.889297,-20.9757 19.621256,-31.4632 29.198256,-31.4632 z m 919.44534,102.4593 230.0565,94.3123 c -7.9114,40.8064 -41.5347,81.0919 -101.0787,120.8573 H 535.80769 c -5.51719,0 -9.36841,-9.8888 -11.55447,-29.7716 0,-27.5859 24.25488,-62.3539 72.86858,-104.3053 z"
     style="stroke-width:1.04098" /></svg>
