<?xml version="1.0" encoding="UTF-8" standalone="no"?>
<!-- Generator: Adobe Illustrator 19.0.0, SVG Export Plug-In . SVG Version: 6.00 Build 0)  -->

<svg
   version="1.1"
   id="Ebene_1"
   x="0px"
   y="0px"
   viewBox="0 0 1603.9659 1792.0635"
   xml:space="preserve"
   sodipodi:docname="A1E.svg"
   width="1603.9659"
   height="1792.0635"
   inkscape:version="1.2.2 (732a01da63, 2022-12-09)"
   xmlns:inkscape="http://www.inkscape.org/namespaces/inkscape"
   xmlns:sodipodi="http://sodipodi.sourceforge.net/DTD/sodipodi-0.dtd"
   xmlns="http://www.w3.org/2000/svg"
   xmlns:svg="http://www.w3.org/2000/svg"><defs
   id="defs983" /><sodipodi:namedview
   id="namedview981"
   pagecolor="#ffffff"
   bordercolor="#000000"
   borderopacity="0.25"
   inkscape:showpageshadow="2"
   inkscape:pageopacity="0.0"
   inkscape:pagecheckerboard="0"
   inkscape:deskcolor="#d1d1d1"
   showgrid="false"
   inkscape:zoom="0.49555556"
   inkscape:cx="894.95516"
   inkscape:cy="895.96413"
   inkscape:window-width="1920"
   inkscape:window-height="1137"
   inkscape:window-x="-8"
   inkscape:window-y="-8"
   inkscape:window-maximized="1"
   inkscape:current-layer="Ebene_1" />
<style
   type="text/css"
   id="style976">
	.st0{fill:#010101;}
</style>
<g
   id="XMLID_1_"
   transform="translate(-3.2240486,-4.3083638)">
	<path
   id="XMLID_2_"
   class="st0"
   d="m 1168.734,490.07514 c 105.5318,4.73734 171.0482,32.55662 196.5492,83.65943 126.2955,167.31886 206.9311,318.81298 241.9068,454.58313 0,30.2384 -19.8565,47.3734 -59.4687,51.4052 -51.1028,0 -155.5259,-24.8962 -313.4709,-74.5879 -7.358,87.3888 -12.0953,186.7722 -14.1112,298.3517 45.6599,102.8104 44.3496,200.8834 -4.0318,294.3199 49.6917,-37.5963 84.9698,-23.4851 105.8342,42.3337 21.4692,66.5244 62.4926,93.0333 122.9693,79.6276 61.1822,-13.4056 108.1525,12.0954 141.1123,76.6039 l -1291.07667,-1.7135 c -27.21451,-16.6311 -53.42108,-55.437 -57.55365,-89.0016 -6.04767,-100.7945 30.94391,-160.9688 110.87394,-180.4221 l 544.29025,-219.732 C 822.00093,1055.5322 777.65135,915.12551 759.50834,884.1816 741.36533,853.2377 732.29383,815.94373 732.29383,772.29972 743.07884,739.33992 694.99987,769.57827 588.15771,863.01476 502.18,939.61857 439.28424,974.89665 399.67201,968.84898 347.25887,952.72186 264.60739,844.56937 151.71756,644.29072 110.6942,618.08415 70.779577,593.18791 31.772109,569.70279 6.271103,548.23357 -2.1956343,521.62382 6.5734864,490.07514 L 51.931007,417.50311 c -16.127118,-26.91213 -16.127118,-46.36547 0,-58.4608 72.572043,59.16636 119.945453,121.65895 142.120233,187.47775 10.78502,30.23835 48.07898,77.61176 111.88189,142.12023 64.50847,65.21404 105.83422,116.61923 123.97722,154.21557 91.42061,-94.74682 187.78014,-184.45392 289.28019,-269.12129 29.53279,-51.10281 104.82628,-77.30937 225.77966,-78.6197 -6.04766,-14.11123 -7.76117,-26.20657 -5.03972,-36.28602 l -62.49258,9.07151 c -48.38136,0 -75.29349,-7.76118 -80.6356,-23.18274 -5.34211,-14.81679 -7.05561,-27.21451 -5.03972,-37.29396 2.72145,-9.37389 -0.70556,-16.12712 -10.07945,-20.1589 -8.76912,-3.32622 -8.76912,-9.77706 0,-19.15095 -4.03178,-1.31033 -6.35005,-4.33416 -7.05562,-9.0715 -1.31032,-4.73735 1.00795,-7.76118 7.05562,-9.07151 14.11123,-12.09534 11.79295,-18.44539 -7.05562,-19.15095 -18.84857,-0.70556 -28.22245,-8.36595 -28.22245,-23.18274 5.34211,-26.20656 17.13506,-50.09486 35.27807,-71.56408 18.14301,-22.17479 29.53278,-46.06309 34.27013,-71.56409 C 850.92894,69.762113 905.96274,18.054539 981.25622,9.2854189 1051.8124,-1.4995917 1121.3606,5.2536392 1189.9008,29.444317 c 68.5403,24.190678 103.1128,75.898253 103.8184,155.223523 0.7055,79.93003 -14.1113,137.78606 -44.3496,173.36652 -29.5328,35.58046 -66.222,58.46081 -109.866,68.54025 1.4111,18.14301 11.0874,39.30986 29.2304,63.50053 z m -181.43011,-16.12711 14.11121,41.32574 c 6.0477,34.27012 -28.52482,51.40519 -103.81831,51.40519 -72.57203,0 -107.14454,21.16684 -103.81832,63.50053 -8.06356,123.67484 -3.02384,198.56514 15.11917,224.77171 18.14301,26.20657 74.58793,190.804 169.33475,493.893 l 181.43011,-40.3178 18.143,-332.62181 -63.5005,-51.40519 c -48.3814,0 -92.731,-9.0715 -133.04878,-27.21451 -28.92802,-18.14301 -41.02336,-43.03925 -36.28602,-74.58793 l 36.28602,-79.62764 c -21.46922,-24.19068 -24.49306,-43.64402 -9.0715,-58.46081 81.34118,46.36547 138.39088,102.81038 171.35068,169.33475 l 47.3734,22.17479 c 47.071,-131.03284 77.9141,-215.39783 92.7309,-252.99418 14.8168,-37.59634 6.0477,-59.46875 -26.2066,-65.51642 -32.2542,-6.04767 -60.779,-9.77706 -85.6753,-11.08739 -24.8962,-1.31033 -43.0392,-14.41361 -54.429,-39.30985 -11.3898,-24.89624 -27.9201,-60.77908 -49.3893,-107.85011 -22.1748,-46.36546 -29.2304,-84.66737 -21.1668,-114.90572 -2.0159,10.78501 3.0238,17.43745 15.1191,20.1589 12.0954,3.32622 18.143,-5.74529 18.143,-27.21451 18.143,-20.86446 27.2145,-39.61224 27.2145,-56.44492 1.3104,-18.14301 -6.0476,-26.20657 -22.1747,-24.19068 -13.4057,0 -25.501,14.11123 -36.2861,42.33369 -7.358,2.01589 -15.1191,0.70556 -23.1827,-4.03178 l 7.0556,-20.1589 c -61.78701,-47.07102 -118.93749,-63.80291 -171.35062,-50.39724 -6.04767,6.04767 -10.78501,15.11917 -14.11123,27.21451 25.501,-18.14301 55.73935,-18.14301 90.71504,0 18.14301,9.37389 35.58046,16.12712 52.41314,20.1589 l -5.03973,12.09534 c -18.14301,-4.73734 -37.29396,-11.0874 -57.45286,-19.15096 -20.1589,-8.76912 -40.62018,-9.77706 -61.48464,-3.02383 -20.1589,6.75323 -37.29396,21.8724 -51.40519,45.35752 -14.11123,23.48512 -23.48512,39.61224 -28.22246,48.38136 0,10.78501 9.07151,15.42155 27.21452,14.11122 13.40566,7.358 14.81679,22.47718 4.03178,45.35753 l 45.35752,4.03178 c 4.73734,9.37388 3.32622,16.12711 -4.03178,20.15889 l -32.25424,11.0874 c -2.72145,14.11123 0,25.19862 8.06356,33.26218 8.06356,8.06356 34.97569,10.07945 80.63559,6.04767 26.91213,-6.04767 47.6758,-7.05562 62.49259,-3.02384 -1.31033,6.04767 1.7135,21.87241 9.0715,47.37342 z M 1168.734,1353.8839 696.00781,1477.8612 c -185.46186,96.0571 -284.24046,165.3029 -296.3358,207.6366 119.64306,-54.429 245.93856,-62.1902 378.98728,-23.1827 133.04873,38.3019 246.24091,29.5328 339.67741,-26.2066 61.8879,-79.93 78.6197,-174.0721 50.3973,-282.2246 z M 1087.0904,171.56455 c 32.9598,-1.31033 48.6838,14.41361 47.3735,47.37341 0,18.14301 -10.3819,40.01542 -31.2463,65.51642 1.3103,24.19068 -7.7612,39.30985 -27.2145,45.35752 -7.358,7.358 -5.0398,17.13507 7.0556,29.23041 26.9121,28.92801 60.4767,26.50895 100.7945,-7.05562 41.0233,-32.9598 61.1822,-84.96976 60.4767,-156.23146 C 1243.6243,123.88876 1208.7494,80.143946 1139.5036,64.722389 1069.653,48.59527 1014.216,46.276997 973.19266,57.666774 c -41.62812,11.389778 -72.26965,34.270127 -91.72298,68.540256 48.38135,-4.73734 105.53183,14.81679 171.35062,58.46081 9.4747,-7.358 20.8645,-11.79296 34.2701,-13.10329 z m 227.7956,556.38559 -58.4608,173.36653 c 112.8898,21.46922 183.7484,42.0313 212.6764,61.48464 -76.6038,-102.81038 -128.009,-181.1277 -154.2156,-234.85117 z M 861.31078,239.09686 847.19955,237.08097 v -9.0715 c 8.06356,0 14.41361,-2.72145 19.15095,-8.06356 5.34211,-5.34211 16.4295,-8.06356 33.26218,-8.06356 13.40567,2.01589 30.94391,9.0715 52.41314,21.16684 l 22.17479,2.01589 -2.01589,18.14301 -25.19863,-7.05561 c -38.90667,13.40566 -67.5323,11.08739 -85.67531,-7.05562 z"
   style="stroke-width:1.00794" />
</g>
</svg>
