<?xml version="1.0" encoding="UTF-8" standalone="no"?>
<svg
   width="1087.889pt"
   height="1800.678pt"
   id="svg1744"
   version="1.0"
   xml:space="preserve"
   xmlns="http://www.w3.org/2000/svg"
   xmlns:svg="http://www.w3.org/2000/svg"
   xmlns:rdf="http://www.w3.org/1999/02/22-rdf-syntax-ns#"
   xmlns:cc="http://creativecommons.org/ns#"
   xmlns:dc="http://purl.org/dc/elements/1.1/"><metadata
     id="metadata1751"><rdf:RDF><cc:Work
         rdf:about=""><dc:format>image/svg+xml</dc:format><dc:type
           rdf:resource="http://purl.org/dc/dcmitype/StillImage" /></cc:Work></rdf:RDF></metadata><defs
     id="defs1749" /><path
     id="path1746"
     style="fill:#000000;stroke:none;stroke-width:129.368"
     d="M 176.49024,0.0518921 C 137.92301,1.2339688 96.856108,22.624483 89.023438,63.143689 c 0.81408,15.773169 -7.48114,54.065061 -20.4082,23.248047 11.36183,-33.524233 -42.100299,-38.08406 -30.117191,-2.494141 -5.909044,35.539205 31.955781,41.315055 50.167971,47.207035 -1.21887,16.28311 22.659202,69.10507 -2.48047,55.33203 5.65942,-21.38322 -19.44493,-54.34618 -32.61328,-23.57813 -8.540254,36.82595 24.61036,62.13825 52.451172,61.51172 l 6.94336,50.63086 c -24.612412,1.82709 -6.45753,-61.83806 -42.367192,-33.05664 -6.33503,27.38773 7.00804,69.9554 42.302742,63.76367 10.27396,2.0071 19.78596,45.9315 9.54492,48.49805 H 82.277348 c -8.07828,23.75107 17.2398,28.57675 19.113282,49.73242 C 71.605768,415.20373 30.0174,398.00725 0,407.98549 c 7.464352,35.27458 17.35212,92.42236 65.794918,85.68164 14.53815,19.67345 33.12559,57.59111 60.152352,76.72656 28.86124,19.45115 35.43904,54.89785 35.37304,87.4414 -0.24913,14.39325 -0.49891,28.78645 -0.74804,43.17969 -3.89888,0.44257 -7.77547,1.2826 -11.58399,3.10156 -24.37349,0.51672 -40.21897,25.56723 -42.55859,30.42383 -21.014162,43.62157 -18.968482,58.79861 -11.853522,85.01758 1.35183,4.98157 24.241172,39.81469 43.150392,44.25586 6.45699,6.09256 13.06034,10.64513 19.77735,14.49219 -0.21226,12.26368 -0.42447,24.52733 -0.63672,36.79101 h 58.58008 c -0.0684,-6.37614 -0.22108,-12.75599 -0.30469,-19.13281 9.12788,1.58185 18.5713,3.15445 28.47266,5.32813 14.22419,7.29632 56.00697,31.42389 68.04687,36.50195 158.09124,66.67792 219.44634,101.46972 315.53711,120.71872 52.26387,10.4695 182.22147,-347.48825 188.20898,-347.48825 3.68982,0 8.26327,10.62686 14.41016,30.42383 35.90578,115.63819 76.35721,295.24712 68.21289,302.87502 -2.26653,2.1229 -9.11976,4.748 -15.22656,5.8339 -15.14982,2.6937 -17.29032,26.9687 -3.84375,43.5743 l 10.58398,13.0742 -23.88086,30.9082 c -13.13572,16.9995 -26.45963,37.7771 -29.60546,46.1738 -5.38052,14.3612 -4.80383,15.2676 9.68945,15.2676 8.47383,0 18.40443,2.9962 22.06836,6.6602 18.34741,18.3473 1.25221,138.6718 -48.34961,340.3144 -22.39156,91.0263 -33.70432,149.0663 -35.71094,183.2012 -1.61568,27.4805 -9.38467,82.8085 -17.26367,122.9492 -25.70117,130.9376 -84.84761,382.7268 -94.11328,400.6445 -11.88654,22.9864 -110.25905,67.3857 -166.84766,77.3438 -83.08926,14.6205 -86.28515,37.8373 -86.28515,59.7617 0,16.428 281.84416,7.5527 292.82617,7.5527 30.3016,0 49.47401,-13.3689 60.03906,-41.0332 8.73695,-22.8773 9.20529,-30.9519 3.66992,-63.2304 -7.87771,-45.9404 -4.64584,-65.6859 61.59961,-201.6211 54.03819,-110.8861 59.03045,-134.2564 75.0332,-225.5215 7.22027,-41.1776 4.44114,-115.3707 10.0879,-126.9297 l 10.26953,-21.0176 c 0,0 193.81531,0.1944 203.69731,7.9746 19.7213,15.5128 57.8531,96.844 62.6328,133.5899 2.1845,16.7934 12.2571,84.2471 22.3828,149.8945 21.1796,137.3095 25.8803,216.8267 20.5449,252.4063 -3.4677,23.1241 -5.5038,25.6651 -27.0547,33.7031 -12.8186,4.7802 -151.8242,40.65 -181.9687,64.5254 -21.5762,17.0887 -28.1882,34.8968 -14.8281,39.9453 1.1293,0.4269 5.5906,0.6347 12.5371,0.6347 16.5273,0 265.5814,-3.1367 275.7011,-3.1367 20.3051,0 24.9387,-2.6054 32.0508,-9.7168 12.9579,-12.9579 14.6392,-38.6139 5.1113,-78.0371 -3.5878,-14.8488 -4.5395,-107.6736 -5.3164,-219.8281 -1.4758,-213.0345 28.0287,-165.9694 -30.0937,-315.2871 -11.8151,-30.3534 -47.3324,-85.9776 -55.0762,-108.2305 l -14.082,-40.4609 7.8769,-162.1719 c 4.3317,-89.195 17.9059,-284.0161 -10.3144,-420.2812 -22.1461,-44.24946 -31.0353,-63.02338 -23.0547,-119.37894 5.2704,-37.21502 22.5979,-109.59552 43.6895,-182.50586 12.3216,-42.595 24.7825,-64.42188 36.1503,-64.42188 6.0624,0 11.8144,6.20844 17.0684,18.78321 13.6228,32.60384 18.9902,66.25251 29.9688,187.83398 5.8611,64.90495 13.5282,125.94329 17.039,135.64059 5.1521,14.231 -13.6078,44.131 -23.0254,99.3555 -18.1934,106.6861 0.5238,198.7981 7.5938,241.4629 5.474,33.0349 -2.8126,30.5509 -16.2285,70.0039 -32.8531,96.6122 -12.5981,201.4468 -1.1036,211.3086 29.9615,25.7055 36.9199,-3.5648 75.9668,-23.6309 21.2585,-10.9252 -11.64,-44.1499 8.3653,-65.0351 8.0454,-16.2066 20.797,-32.4147 -11.9297,-130.166 0,0 -3.5646,-27.2052 22.6133,-160.004 15.5159,-78.7142 21.6297,-135.4336 29.914,-277.58197 4.458,-76.49251 -7.3342,-185.18717 -34.6172,-319.11329 -21.8058,-107.04004 -35.0141,-139.78459 -67.041,-166.20312 -23.3033,-19.22284 -40.9353,-25.82227 -83.6367,-25.82227 -11.6637,0 -25.196,0.49414 -41.2266,1.35547 l -18.125,0.97461 c 4.1508,-19.11734 3.2162,-38.85141 -3.7753,-60.8789 -6.3683,-20.06309 -37.3923,-67.57906 -44.0782,-35.72266 -3.5856,17.08453 -2.0236,52.56283 -9.3613,76.53125 -8.0657,-18.22708 -11.6841,-33.45684 -10.9844,-57.80078 2.3844,-24.81643 5.8782,-30.3624 41.6992,-66.1836 66.0453,-66.04532 90.622,-127.94627 78.4805,-197.66796 -11.9148,-68.419599 -57.237,-110.06076 -135.4101,-124.416019 -4.6308,-0.8503485 -9.6398,-1.3460092 -14.5957,-1.8906251 -5.5292,-1.8207947 -11.4896,-2.7094861 -17.7872,-2.3925781 -7.1119,-0.3246784 -14.2184,0.2178254 -21.25,1.28125 C 1017.64,9.0040631 962.13528,21.611492 926.47266,42.071423 c -46.28573,26.55435 -93.69342,91.010747 -122.1875,166.123047 -8.1081,21.37359 -23.25511,55.9438 -33.6582,76.82226 -12.3859,24.85771 -18.32636,44.02016 -17.21094,55.51563 1.4867,15.32265 3.99767,17.77836 19.74609,19.29687 14.94336,1.44091 18.04102,4.06007 18.04102,15.26368 0,7.43991 2.65702,13.52929 5.90234,13.52929 3.2453,0 5.19978,4.37145 4.34375,9.71485 -2.21918,13.84903 23.30592,72.46285 33.21094,76.26367 0.9172,0.35189 2.69709,0.51953 5.17383,0.51953 9.84447,0 30.70995,-2.64213 52.33398,-6.80273 21.77538,-4.19034 35.16944,-6.19727 43.62891,-6.19727 6.42993,0 10.01065,1.16094 12.2559,3.40625 11.0069,11.00697 -2.72245,25.24383 -28.60356,29.66211 -39.93858,6.81806 -107.57448,32.24579 -137.06055,51.5293 C 685.30661,718.8028 641.12824,752.65481 596.01758,898.12806 512.27865,882.7379 322.38491,858.16062 309.42383,829.16713 c -28.56168,-62.53415 -30.21954,-87.50011 -85.3418,-111.39649 -3.77114,-0.7069 -7.79208,-2.28897 -11.75781,-3.67969 -0.26957,-23.48603 -0.44172,-46.96841 -0.41797,-70.4414 0.13156,-31.97557 13.89252,-59.53325 39.5586,-78.31836 26.747,-16.58454 38.63302,-57.62053 55.81054,-71.64649 49.23148,6.45542 57.62831,-51.924 65.92578,-87.26953 -31.90925,-9.12023 -81.04595,13.97612 -101.55664,-6.95508 1.98435,-22.08839 27.22233,-18.94226 18.9043,-44.3496 -13.87489,-2.11311 -31.67856,-0.29829 -47.06055,-0.9043 l 9.52539,-48.4961 c 31.92194,-10.26154 9.94441,62.50729 48.52344,32.97071 6.04804,-25.74756 -4.95608,-66.86571 -38.24219,-63.67383 -5.31873,-6.92045 -1.8869,-71.89844 22.27149,-50.26953 -5.39401,21.56926 19.86769,53.73166 32.7207,23.14258 3.14088,-27.26194 -12.35131,-63.24454 -45.03125,-57.11914 7.94621,-19.02295 -2.8111,-66.89361 25.8086,-63.58789 1.47893,18.49261 14.14431,58.46675 36.1289,29.82421 4.38351,-29.33899 -12.82254,-67.792427 -48.2207,-59.560542 C 288.40097,58.520379 268.3916,15.237871 227.36524,5.8956421 213.41605,1.5544315 198.73289,-0.07943861 184.16016,0.08509523 181.62182,-0.01605155 179.06138,-0.02691301 176.49024,0.0518921 Z m 16.30273,33.5507809 c 33.6883,-2.823747 73.66317,41.110052 54.05469,63.833985 H 118.0918 c -2.2152,-38.965638 30.13928,-65.908823 68.0664,-62.625 2.17049,-0.624004 4.38888,-1.020735 6.63477,-1.208985 z m 797.58401,22.083985 c -1.0091,2.815397 -1.8427,5.738706 -2.3262,8.861328 -0.1147,20.634358 10.8755,39.611524 14.78712,59.710934 1.9203,5.84034 3.062,11.73921 3.8067,17.66797 -2.2367,0.0885 -4.328,0.44141 -6.5977,0.44141 -35.01602,0 -72.90609,-10.3612 -81.15041,-25.76563 -7.1663,-13.39043 10.50303,-35.49285 40.76949,-50.999997 8.777,-4.49697 18.3076,-7.637918 30.711,-9.916015 z m 154.07812,11.126953 c 42.2498,19.67224 61.0539,57.400609 55.7656,114.031249 -3.8358,41.07792 -19.4513,74.08332 -54.3808,114.94727 -7.6873,8.99342 -14.9382,15.99625 -21.5938,21.99609 1.4222,-19.97461 3.0038,-39.5733 4.7285,-58.24219 13.9216,-37.52738 18.4511,-68.67844 13.5137,-91.11328 5.3564,-33.62325 6.9789,-67.83106 1.9668,-101.619139 z M 128.21875,127.12806 h 121.34571 l -10.31055,63.63282 H 133.04492 c 0.70764,-19.25331 -17.07582,-54.13432 -4.82617,-63.63282 z m 765.67774,41.23828 c 1.30984,0 2.61384,0.1306 3.91992,0.39063 7.0112,1.39782 28.98707,5.59735 48.83398,9.33398 19.84679,3.73678 42.52769,10.0094 50.40239,13.9375 3.43752,1.71464 6.20122,2.67035 8.88082,3.21485 -0.2037,3.45623 -0.4833,6.92153 -0.5703,10.36523 -0.55,83.89165 -2.2165,167.92332 2.7773,251.71875 3.1139,29.32771 3.8138,38.64105 13.7989,66.58399 16.7679,35.47021 60.0632,50.09032 96.8945,42.4082 21.1602,-1.14 40.4897,-10.70549 54.2539,-26.00977 27.4013,3.64575 57.895,14.43823 63.9844,24.29102 1.7125,2.76962 -3.9889,32.38524 -12.6719,65.81055 -21.7671,83.79439 -53.2006,227.26918 -64.3965,293.93945 -5.1275,30.5337 -12.8114,62.36168 -17.0761,70.72851 -10.4988,20.59787 -40.9794,35.01847 -90.0567,42.60737 -22.4925,3.4781 -45.4548,8.7649 -51.0254,11.7461 -2.70082,1.4456 -4.96092,2.2149 -7.04292,2.2149 -4.0167,0 -7.3635,-2.8703 -11.8985,-9.3067 -13.9264,-19.7661 -33.2522,-87.07483 -58.20701,-202.7226 -12.69172,-58.81665 -49.26704,-180.75509 -53.75,-193.11524 -10.24383,-28.24247 -3.72124,-48.22395 20.55664,-62.98828 24.39024,-9.66309 101.14127,-27.41634 113.56249,-27.93359 -1.5094,-9.17845 -4.331,-74.40732 -6.23432,-83.58399 -7.565,-36.4763 -22.3687,-51.56054 -54.92388,-51.56054 -7.85895,0 -16.75221,0.87973 -26.82812,2.54883 -10.89547,1.80545 -20.58125,2.6621 -28.93359,2.6621 -35.96208,0 -47.21227,-15.91453 -23.93946,-40.6875 12.77271,-13.59586 12.28874,-14.13487 -18.87304,-20.96289 -8.39673,-1.83986 -16.83789,2.42224 -16.83789,-2.02929 0,-4.4514 -4.41316,-21.42411 -11.72461,-26.21485 l -21.91797,-3.2207 15.34375,-33.31055 c 7.22983,-17.11248 14.66032,-25.70117 19.15429,-25.70117 2.51244,0 5.57866,5.08426 10.29102,8.17188 9.71535,6.36579 25.39026,6.98242 38.03516,6.98242 17.47379,0 32.83617,-3.47136 51.7832,-15.24805 15.96511,-9.92352 34.96074,-18.04297 42.21094,-18.04297 7.2504,0 14.9335,-2.83514 17.0742,-6.29883 1.8345,-2.9682 0.4163,-4.39843 -4.7246,-4.39843 -2.5037,0 -15.213,1.50976 -18.4004,1.50976 -11.7358,0 -28.9023,-2.19359 -42.81834,-5.69531 -13.35616,-3.36071 -24.84958,-5.08008 -34.93946,-5.08008 -19.1764,0 -33.28677,6.21449 -45.49414,19.20117 l -13.75976,14.64063 9.08593,-17.83008 c 9.51886,-18.67432 26.89785,-27.62109 55.03125,-27.62109 10.07333,0 72.98552,7.64453 80.10942,7.64453 11.3038,0 5.3819,-3.08514 -4.1348,-9.03125 -12.2573,-7.65825 -38.12268,-9.54944 -63.23829,-13.29102 -27.13714,-4.04272 -40.1618,-4.29503 -41.97851,-2.10351 -28.90505,34.86856 -13.09576,-2.59733 5.18554,-24.41602 8.87711,-10.59483 17.60657,-14.24805 25.22657,-14.24805 z M 150.4082,218.18275 c 2.88446,-0.31214 6.57003,0.0592 11.22852,1.26172 h 70.32227 l -8.38086,55.5625 h -74.86328 c 0.5691,-18.93778 -18.4978,-54.63927 1.69335,-56.82422 z m 724.4004,29.04688 c 2.02587,0 -8.53787,4.70183 -7.39063,17.40234 0.73092,8.08755 12.50902,11.98047 9.22852,11.98047 -2.45436,0 -7.37057,-0.94505 -14.66016,-2.84961 -10.55578,-2.75858 -13.08899,-15.63912 -4.16211,-21.15625 0.73804,-0.45615 16.3387,-5.37695 16.98438,-5.37695 z m 21.2207,2.17773 c 1.45351,0.0102 4.00625,0.23117 8.17578,0.57422 5.91715,0 14.39497,-0.42394 19.00781,2.50391 5.13693,3.2598 20.32933,1.24836 -7.20117,16.07031 -9.15029,4.92644 -16.286,3.41797 -19.94141,3.41797 -3.92773,0 2.46105,-4.04883 2.91797,-10.41797 0.68321,-9.51801 -8.15011,-12.18464 -2.95898,-12.14844 z m -743.41797,54.28125 h 66.97461 c -7.32255,21.02538 -0.1673,59.82952 -32.19336,50.51758 -11.26501,-1.47546 -30.02571,6.02332 -27.74609,-11.66992 -2.34503,-12.94919 -4.69013,-25.89847 -7.03516,-38.84766 z m 69.55273,74.62109 c -0.2164,-0.27786 0.29583,-0.15765 1.76368,0.54493 h 31.67187 c 5.27654,22.81636 -31.92069,1.4001 -33.43555,-0.54493 z m -101.65429,0.54493 h 32.10742 c -13.04145,2.11316 -42.94079,19.77735 -32.10742,0 z m 65.6582,19.67382 c 28.5985,-1.68084 84.4082,29.89768 83.20117,40.61133 -25.59126,-11.96664 -74.22219,-37.85648 -83.14648,7.03906 -8.95327,-43.80914 -58.08553,-20.45673 -83.03516,-7.08789 -16.369912,-6.34483 -3.564202,35.13323 -17.185542,18.71289 13.28205,-18.29533 -38.802583,-14.47032 -41.330083,-16.68164 -18.164682,33.28995 63.126175,18.75766 20.451173,28.69336 -29.763521,6.50846 -40.586014,-55.50436 -3.65625,-37.72265 40.465982,18.60295 66.763052,-27.7788 106.785162,-31.6211 5.88913,-1.23219 11.89704,-1.93184 17.91601,-1.94336 z M 44.671875,441.1222 c 0.12062,-0.22105 0.138112,-0.39188 0.267578,-0.61718 -0.440608,0.25302 -0.461189,0.44779 -0.267578,0.61718 z M 332.76172,430.58314 c 0.86952,-0.0918 1.35817,0.23162 1.07031,1.39649 8.38102,25.81559 -21.96362,51.11871 -42.67187,31.60546 21.09141,12.58704 53.44354,-15.02609 30.95703,-26.3457 -15.20945,6.94592 -50.38405,0.0579 -33.94922,24.78711 -33.43769,-12.69008 14.8238,-34.69975 37.11328,-30.84375 -1.16976,3.69558 4.8719,-0.32415 7.48047,-0.59961 z m -117.02734,10.3125 c 1.54483,-0.0694 3.20355,0.0879 4.97461,0.50586 17.61215,-0.21329 47.40893,22.27588 16.45507,5.23438 -17.46893,-13.91375 -37.42557,12.24808 -36.40234,16.88671 -1.06323,-10.57614 4.15884,-22.14132 14.97266,-22.62695 z m -64.15821,0.51367 c 43.36131,7.19877 7.06276,52.49446 -0.57812,72.66992 10.60567,6.66944 40.5167,13.3636 9.41406,18.13477 -36.31064,16.95196 33.05974,56.99373 51.56445,27.24023 26.11865,-12.97325 5.12728,-32.39718 -15.16015,-30.69726 4.59809,-13.59885 39.16444,-5.86843 20.94922,-29.66016 -12.1396,-5.04608 -25.81588,-38.67596 -8.59375,-22.64062 22.42652,-0.84432 53.31078,-5.04786 68.76562,-6.93555 1.0402,-11.9766 4.04374,38.34934 -8.92187,44.42188 -19.55914,27.33823 -44.43533,55.26087 -74.6836,69.28906 -39.21985,2.57687 -63.89627,-38.69314 -88.02343,-64.50781 -12.316842,-17.58059 -26.351682,-59.29972 2.36718,-47.45508 20.93862,-0.95411 81.49665,22.025 55.85742,-21.01953 -6.86366,-11.81886 -26.516,-5.01108 -36.29687,-0.49805 2.15083,-1.18926 4.31545,-2.38038 8.05664,-4.59961 4.85712,-1.98322 9.95579,-3.77948 15.2832,-3.74219 z m 73.39453,19.18164 c 10.77502,0.63118 -11.94536,0.95475 0,0 z m -76.47656,0.01 c 9.27414,1.34699 -12.85894,0.22286 0,0 z m 37.9336,21.98828 c 0.0915,0.18375 0.18197,0.63415 0.27148,1.42773 4.23825,18.67207 21.23736,20.14166 -0.78125,30.6504 -13.49474,-11.28011 -13.50907,-8.0901 -2.13477,-22.80079 1.28029,1.22769 2.00382,-10.56358 2.64454,-9.27734 z m 979.39066,592.75187 c 2.2279,0 3.6748,0.2371 4.1816,0.7442 11.4141,11.4139 16.4142,53.6276 19.2696,162.6133 4.5332,173.0229 -12.6097,371.2598 -33.9532,392.6035 -5.7496,5.7491 -188.28352,10.166 -208.03905,10.166 -63.46496,0 -72.79883,-3.024 -72.79883,-12.6309 0,-14.7628 44.59891,-259.0205 60.71679,-332.5293 31.73647,-144.7403 43.09007,-168.1394 91.23249,-188.0078 30.5975,-12.6273 118.7081,-32.959 139.3906,-32.959 z" /></svg>
