<?xml version="1.0" encoding="UTF-8" standalone="no"?>
<svg
   width="1873.7689"
   height="1796.5814"
   id="svg1324"
   version="1.1"
   xml:space="preserve"
   xmlns="http://www.w3.org/2000/svg"
   xmlns:svg="http://www.w3.org/2000/svg"
   xmlns:rdf="http://www.w3.org/1999/02/22-rdf-syntax-ns#"
   xmlns:cc="http://creativecommons.org/ns#"
   xmlns:dc="http://purl.org/dc/elements/1.1/"><metadata
     id="metadata1331"><rdf:RDF><cc:Work
         rdf:about=""><dc:format>image/svg+xml</dc:format><dc:type
           rdf:resource="http://purl.org/dc/dcmitype/StillImage" /><dc:date>7/12/2006</dc:date><dc:creator><cc:Agent><dc:title>Serge Thomas</dc:title></cc:Agent></dc:creator><dc:publisher><cc:Agent><dc:title>Serge Rosmorduc</dc:title></cc:Agent></dc:publisher><dc:identifier>US22</dc:identifier><dc:description>optimisation définitive du porte-enseigne que j'utiliserai pour tous les autres signes combinés</dc:description><cc:license
           rdf:resource="http://creativecommons.org/licenses/GPL/2.0/" /></cc:Work><cc:License
         rdf:about="http://creativecommons.org/licenses/GPL/2.0/"><cc:permits
           rdf:resource="http://web.resource.org/cc/Reproduction" /><cc:permits
           rdf:resource="http://web.resource.org/cc/Distribution" /><cc:requires
           rdf:resource="http://web.resource.org/cc/Notice" /><cc:permits
           rdf:resource="http://web.resource.org/cc/DerivativeWorks" /><cc:requires
           rdf:resource="http://web.resource.org/cc/ShareAlike" /><cc:requires
           rdf:resource="http://web.resource.org/cc/SourceCode" /></cc:License></rdf:RDF></metadata><defs
     id="defs1329" /><path
     id="path2267"
     style="fill:#000000;stroke:none;stroke-width:0.527286"
     d="m 817.26185,0.16702003 c -10.7651,0.3548528 -21.7496,1.03207137 -32.93469,3.09702977 -32.53838,6.0070811 -61.82217,29.5232702 -87.85297,70.5717392 -6.00687,15.017776 -20.52194,37.044861 -43.54915,66.079161 -4.00476,13.01533 -2.49331,19.27184 4.51498,18.77121 7.00828,-0.50055 12.00902,0.75518 15.01244,3.75871 -3.33475,2.50127 -5.11374,5.1778 -5.32437,8.02619 l -37.14716,-0.1134 c -28.26277,1.00936 -59.69678,13.67644 -90.98775,37.90164 -78.73192,67.62871 -116.64272,147.09455 -115.63336,236.92971 0,14.13139 9.37493,19.09196 26.53444,17.07321 58.01279,-25.26359 176.76414,-73.75572 217.12039,-96.78478 22.65238,38.73762 33.97282,99.22125 33.97282,181.4272 l -63.07492,12.01003 c -152.17969,15.01782 -240.28486,39.04521 -264.31318,72.0842 -33.039,19.02249 -57.57595,85.61177 -73.59484,199.74646 -24.0284,120.14178 -69.08108,182.70987 -135.15912,187.71577 l -111.120144,42.0556 -10.51823,19.5087 c 8.00949,7.0084 15.52171,10.5194 22.52996,10.5194 l 204.240774,-10.5194 c 14.01651,-46.0544 41.78887,-103.36605 83.33797,-171.94713 41.54904,-68.58092 57.82929,-129.40442 48.81856,-182.46701 19.02254,68.08043 36.5379,156.18724 52.55674,264.31488 3.00355,26.03066 -28.53605,49.56596 -94.6141,70.59056 -30.03546,2.0021 -45.0599,11.5149 -45.0599,28.5348 l 154.68651,-6.0236 c 34.04022,0 51.06491,-13.5133 51.06491,-40.5451 -11.01298,-24.0281 -12.26703,-73.08343 -3.757,-147.17074 8.51011,-74.08751 -0.74854,-134.16459 -27.78045,-180.21901 l 264.31324,-10.49932 c 86.1015,0 129.154,-22.02708 129.1541,-66.07911 l -7.5158,-147.16912 c 0,-56.06616 15.0244,-104.13995 45.0599,-144.18724 l 31.5375,133.6673 -45.06,207.24325 c -9.0106,14.01657 -15.2672,27.27573 -18.7712,39.79047 -3.5041,12.51482 -5.7601,23.79254 -6.7613,33.8044 -10e-5,8.00956 2.2561,18.75872 6.7613,32.27477 4.5057,13.51595 7.271,26.2845 8.2721,38.29868 2.0025,3.00357 4.0025,5.00383 6.0048,6.00499 2.0023,1.00124 3.4934,-0.48954 4.4943,-4.49427 5.0058,5.00597 8.0081,4.49642 9.0091,-1.51072 5.0061,5.00586 8.0251,4.51536 9.0265,-1.4918 2.0024,2.00239 4.0028,2.74691 6.0051,2.2463 2.0026,-0.5005 3.0026,-3.24705 3.0026,-8.25307 -5.006,-16.01889 -8.7716,-28.78748 -11.2744,-38.29863 -2.503,-9.5112 -2.738,-23.78929 -0.7355,-42.81192 1.0008,-5.00597 2.0008,-7.49689 3.0022,-7.49681 2.0024,0 4.0028,1.49088 6.0051,4.4943 0,5.00592 -0.5096,12.02761 -1.5106,21.03818 -1.0011,9.01077 -0.255,16.01326 2.248,21.01923 2.503,5.00585 5.759,6.00601 9.7635,3.00251 3.0037,-1.00119 3.7672,-5.51313 2.2654,-13.52243 -1.5021,-8.00954 -0.5018,-19.52224 3.0023,-34.53998 3.5043,-15.0177 -0.2613,-31.02346 -11.2742,-48.04352 46.0542,-61.07209 69.59095,-138.17392 70.59225,-231.2839 -5.0059,-66.07796 -18.02975,-121.64336 -39.05505,-166.69654 -29.0341,-28.03307 -64.0649,-46.54855 -105.1134,-55.55924 -26.0304,-22.02597 -22.0282,-44.30703 12.0119,-66.83362 34.04,-22.52657 50.2998,-51.55644 48.7981,-87.098401 -1.5016,-35.54199 -16.7562,-59.0898 -45.7957,-70.590637 C 851.30935,1.4641343 842.86395,-0.67691287 817.26185,0.16702003 Z M 803.17395,20.108671 c 11.3376,-0.177947 24.3372,1.471894 38.9792,4.929134 36.0429,8.510002 54.3021,27.025506 54.8029,55.559207 0.5007,28.533738 -14.0122,54.070758 -43.5472,76.597358 -29.5349,22.52661 -33.5371,20.0168 -12.0117,-7.51573 21.5255,-27.53247 29.0374,-50.050252 22.5298,-67.570933 -6.5076,-17.520692 -27.7882,-21.776859 -63.8312,-12.766224 -40.04696,-11.013004 -52.05056,-23.272034 -36.03167,-36.787989 9.5113,-8.02511 22.53956,-12.184754 39.10987,-12.444823 z m -69.00592,49.951202 c 0,0.204007 0.40161,0.02198 0.60493,0.03776 6.50757,0.500556 24.78823,6.757057 54.82374,18.771237 3.00345,8.009488 9.49485,8.755698 19.50675,2.248012 10.0116,-6.507713 19.7801,-7.763435 29.2912,-3.758721 9.5112,4.004753 10.7667,13.026609 3.7585,27.043169 -7.008,14.01651 -16.2668,25.76603 -27.7804,35.27725 -11.5137,9.51124 -16.5332,19.76996 -15.0313,30.78299 1.5018,11.01298 8.2676,19.03475 20.2818,24.04064 3.0036,18.0213 11.2603,33.04401 24.7764,45.05819 13.516,12.0142 36.797,25.529 69.8359,40.54669 -52.0614,88.10404 -78.0889,151.67225 -78.0889,190.71832 0,0 2.7294,13.49434 6.2385,32.31773 5.5376,29.70462 13.0178,72.68008 14.7809,96.83635 0.8736,11.97266 -1.809,21.64114 -6.0054,28.53498 -9.8202,16.13343 -63.06732,23.53109 -159.18079,22.52994 -79.09325,8.00936 -171.20072,9.00953 -276.32481,3.00249 11.01294,-33.03902 68.58036,-55.57397 172.70327,-67.58813 103.12182,0 154.6676,-30.53949 154.6676,-91.61164 0,-42.04956 -22.51782,-109.62006 -67.57093,-202.73001 58.06867,-16.01888 82.09596,-33.53427 72.08422,-52.55672 4.00475,-28.03311 -2.99804,-43.05579 -21.01933,-45.05819 -20.02358,2.0024 -31.5363,-4.00016 -34.54002,-18.01673 15.01793,-6.0071 20.51092,-11.02842 16.50609,-15.03314 -4.00465,-4.00473 -11.0074,-6.49566 -21.01925,-7.49681 7.00835,-7.00826 4.49838,-13.52038 -7.51564,-19.52745 l 27.04321,-42.05569 c 12.01422,-9.010622 32.52966,-6.500869 61.56417,7.5157 10.01174,-1.00115 7.2654,-5.25735 -8.2531,-12.766212 -15.51838,-7.508869 -30.79656,-10.764904 -45.81425,-9.763722 6.78926,-11.638722 19.67694,-23.618799 19.67694,-17.298348 z m 96.20062,19.714785 c -2.1591,-0.04699 -4.7393,0.403677 -7.7429,1.342293 -8.0092,2.502949 -15.0122,8.249847 -21.0192,17.260549 -6.0069,9.0106 -7.5168,15.52266 -4.5131,19.52743 -6.0073,3.00353 -9.7538,6.76737 -11.2555,11.27269 -1.50179,4.50534 0.4985,7.9981 6.005,10.50102 5.5066,2.50302 13.5092,-1.2437 24.0216,-11.25547 10.5125,-10.01185 17.2783,-18.77984 20.2821,-26.2887 3.0036,-7.50886 3.4956,-13.509672 1.4932,-18.015024 -1.2512,-2.815827 -3.6733,-4.266553 -7.2712,-4.344788 z m -5.4021,10.311982 c 4.0674,-0.0392 5.8007,1.97552 5.1751,6.04283 -1.0011,6.50772 -4.0016,12.51026 -9.0076,18.01674 -5.0059,5.5065 -9.7715,9.27209 -14.277,11.27441 -4.5051,2.00236 -4.5051,0.23713 0,-5.2694 4.5055,-5.5065 4.5055,-7.50678 0,-6.00501 -4.5051,1.50177 -5.2515,-0.49851 -2.248,-6.00501 3.0035,-5.5065 6.4963,-10.7628 10.5011,-15.76875 4.1299,-1.50172 7.416,-2.26236 9.8564,-2.28581 z m -100.05191,2.15347 c -1.00009,-0.004 -1.96925,0.0386 -2.90794,0.13234 -10.01183,1.00124 -18.01448,7.51158 -24.0217,19.52575 10.01177,9.01064 20.27063,13.01291 30.78282,12.01174 10.51251,-1.0012 21.77136,-5.00348 33.7857,-12.01174 h 19.52557 v -6.00501 h -19.52557 c -15.42448,-9.0732 -27.97013,-13.62467 -37.63888,-13.65308 z m -7.06195,7.4401 c 0.39123,0.0155 0.77606,0.0827 1.15146,0.20794 -5.00587,8.00948 -3.00559,12.51959 6.00503,13.52075 11.01298,-3.00356 13.01346,-7.51361 6.00503,-13.52075 7.00843,3.00356 14.02972,6.00398 21.03817,9.00753 -9.01081,3.00355 -18.03262,4.51322 -27.0432,4.51322 -7.00826,1.00117 -12.5184,-0.99912 -16.52323,-6.00502 3.50426,-5.25622 6.62911,-7.83319 9.36674,-7.72367 z m 77.74896,25.74041 c 5.0057,3.00358 6.0061,5.75012 3.0025,8.25303 -3.0035,2.50298 -5.2594,2.24734 -6.7612,-0.75621 -1.50177,-3.00353 -0.2462,-5.49446 3.7587,-7.49682 z m -124.31951,52.38657 c 0.10068,1.41513 0.48815,2.97769 1.17032,4.68337 2.0025,5.00591 3.00253,11.26233 3.00253,18.77123 0,7.50885 4.7469,12.00176 14.25798,13.50353 9.5113,1.50175 21.2799,1.26507 35.29621,-0.73729 5.00585,21.02481 1.74974,30.77401 -9.7637,29.27226 -11.51353,-1.50182 -31.13872,1.08159 -56.31367,12.7662 L 484.01833,394.01238 c 24.22518,-56.52551 45.38769,-104.68889 62.54723,-144.05491 27.25339,-9.08443 53.35627,-22.57418 79.61885,-26.53271 10.4747,-1.57882 5.51763,-20.55449 7.57235,-32.36926 2.68843,-0.0327 23.71202,-2.08621 37.52538,-3.24831 z M 1694.1905,330.72632 c -20.7456,9.22012 -31.118,27.27724 -31.118,54.16963 2.306,20.74574 6.1476,41.10707 11.5245,61.08421 5.3798,19.97718 21.7082,58.97072 48.9856,116.98142 27.277,58.01099 47.4454,100.46313 60.5053,127.35551 13.0625,26.89244 19.5935,59.16405 19.5935,96.81342 -1.5354,19.2095 -11.5238,27.4691 -29.9663,24.7793 -18.4397,-2.6893 -33.4227,-34.76932 -44.9472,-96.23765 -11.5245,-61.46832 -55.3201,-119.86203 -131.3879,-175.18343 -76.0677,-55.32167 -133.3108,-101.23125 -171.7284,-137.72819 -38.4175,-36.49669 -75.6826,-46.10091 -111.7943,-28.8131 -36.1118,17.2881 -53.0175,43.4115 -50.7128,78.37149 2.3048,34.96019 9.03,64.92569 20.1708,89.89734 11.1405,24.97137 24.0102,51.28787 38.6086,78.94883 14.5981,27.66071 24.0105,58.20288 28.2384,91.62635 4.2253,33.42323 27.4686,75.49076 69.7279,126.20246 -92.204,-5.3788 -148.6792,-14.4063 -169.4249,-27.0841 -20.743,-12.6779 -57.6241,-15.1755 -110.6427,-7.4921 -36.1117,10.757 -58.3933,28.8142 -66.844,54.1697 -8.4536,25.3567 28.8115,34.5762 28.8115,34.5762 v 0 c 0,0 400.6959,-0.7681 434.5041,-2.3035 59.1637,3.8419 148.2924,-3.8428 267.3872,-23.0519 16.9042,-3.0731 31.1194,-12.4859 42.6439,-28.237 11.5272,-15.7512 18.0582,-41.6828 19.5936,-77.79567 1.5353,-36.11252 -6.341,-66.46298 -23.6291,-91.05049 -17.2854,-24.58722 -39.3749,-60.31476 -66.2683,-107.18458 -26.893,-46.86957 -43.0284,-95.08395 -48.4052,-144.6428 -5.3797,-49.5589 -16.5217,-78.9497 -33.4258,-88.16982 z m -335.8329,91.59036 c 16.1938,0.79232 32.4782,11.75454 48.8522,32.88447 23.8194,30.73417 57.6271,58.77889 101.4246,84.1344 43.7949,25.35581 87.2082,63.77277 130.2378,115.25238 43.0269,51.47988 54.9346,98.35094 35.7248,140.61048 -31.5028,33.8076 -71.2649,48.2138 -119.2851,43.2197 -48.0226,-4.9947 -83.7518,-22.4752 -107.1875,-52.4408 -23.4354,-29.96581 -39.3786,-61.08426 -47.8294,-93.35532 -8.4507,-32.27105 -27.0831,-81.44507 -55.8984,-147.52353 -28.8128,-66.0784 -31.5021,-105.26511 -8.0665,-117.55871 7.3238,-3.84186 14.6668,-5.58324 22.0275,-5.22307 z M 0,1120.2802 v 53.8157 h 50.060753 l 51.311417,95.1143 h 166.4498 l 50.06076,-95.1143 h 508.24809 l 226.52168,329.1448 v 293.3407 h 53.8143 v -622.4855 h 767.3021 v -53.8157 H 234.03177 Z m 101.37217,53.8157 h 166.4498 l -25.02962,43.8014 H 125.14964 Z m 789.83624,0 h 162.69479 v 236.5345 z" /></svg>
