<?xml version="1.0" encoding="UTF-8" standalone="no"?>
<svg
   width="1241.0449"
   height="1797.3367"
   version="1.1"
   id="svg4330"
   sodipodi:docname="US9A51AVARA.svg"
   inkscape:version="1.2.1 (9c6d41e410, 2022-07-14)"
   xmlns:inkscape="http://www.inkscape.org/namespaces/inkscape"
   xmlns:sodipodi="http://sodipodi.sourceforge.net/DTD/sodipodi-0.dtd"
   xmlns="http://www.w3.org/2000/svg"
   xmlns:svg="http://www.w3.org/2000/svg">
  <defs
     id="defs4334" />
  <sodipodi:namedview
     id="namedview4332"
     pagecolor="#ffffff"
     bordercolor="#000000"
     borderopacity="0.25"
     inkscape:showpageshadow="2"
     inkscape:pageopacity="0.0"
     inkscape:pagecheckerboard="0"
     inkscape:deskcolor="#d1d1d1"
     showgrid="false"
     inkscape:zoom="0.25862355"
     inkscape:cx="618.65982"
     inkscape:cy="897.05674"
     inkscape:window-width="1920"
     inkscape:window-height="1017"
     inkscape:window-x="1072"
     inkscape:window-y="-8"
     inkscape:window-maximized="1"
     inkscape:current-layer="svg4330" />
  <path
     id="path4328"
     style="fill:#000000;stroke:none;stroke-width:95.411"
     d="M 917.35938,0.13946328 C 869.74899,1.7853284 838.71196,17.969504 824.24805,48.692198 807.71787,83.80385 790.00682,113.54188 771.11524,137.90508 c -17.31738,24.36321 -29.12468,42.2772 -35.42188,53.74219 0,5.7325 2.36113,10.03213 7.08399,12.89844 12.59445,5.73249 19.67964,13.61458 21.2539,23.64648 4.723,30.0957 7.87105,49.44227 9.44532,58.04102 1.57426,8.59881 10.23351,15.04831 25.97656,19.34766 L 768.75391,410.9168 c -25.18884,7.16566 -30.30546,17.55516 -15.34961,31.16992 14.95585,13.6147 30.30578,10.38998 46.04883,-9.67382 l 59.03711,-126.83203 c 7.87152,-8.59875 21.25281,-8.59875 40.14453,0 3.14853,30.09569 -9.44577,58.75882 -37.7832,85.98828 -42.50623,45.8601 -66.90789,106.76875 -73.20508,182.72461 -88.16091,-4.29941 -205.44717,-2.14959 -351.85742,6.44921 -40.93183,-15.76445 -74.7798,-32.2458 -101.54297,-49.44336 L 197.28125,204.54571 c -6.29726,0 -70.84306,197.05572 -193.6386718,591.16601 40.9318918,22.93005 93.6703968,32.24466 158.2168018,27.94532 l 40.14453,-490.12891 h 2.36133 l 80.29101,195.62109 c -20.46591,12.89821 -26.36959,32.96196 -17.71093,60.19141 8.65865,27.22939 27.94376,42.27822 57.85547,45.14453 l 18.89062,53.74219 c -26.76317,4.2994 -39.35753,14.3313 -37.7832,30.0957 11.02012,47.2932 36.99584,70.93946 77.92773,70.93946 l 28.33789,73.08984 44.86719,-12.89844 -30.69727,-66.64062 c 23.61458,-8.59881 55.09947,-12.89844 94.45704,-12.89844 l 247.95312,-21.49609 c -12.59445,91.72025 -29.12393,136.86284 -49.58984,135.42968 -229.84824,12.89815 -355.79374,44.42839 -377.83399,94.58789 -17.31738,27.22937 -24.40055,73.08927 -21.25195,137.58007 l -35.42188,339.6524 c -9.44579,67.357 -73.99354,114.6494 -193.640625,141.8789 -24.254194,1.3799 -38.182716,13.5026 -42.001953,36.1425 H 0 v 163.6465 h 1238.9375 v -163.6465 h -92.3496 v -573.5664 h 94.457 V 858.05352 c -9.4458,-57.32515 -40.9307,-86.34595 -94.457,-87.0625 -53.5264,-0.71661 -80.291,11.10555 -80.291,35.46875 V 655.98126 h 75.5664 V 327.07891 c 0,-80.2552 -0.7874,-137.93913 -2.3614,-173.05078 -1.5743,-35.11164 -10.6261,-66.641885 -27.1562,-94.587885 C 1095.8154,31.494246 1037.9603,11.790065 938.7793,0.32501015 931.30136,-0.03327091 924.16086,-0.09566032 917.35938,0.13946328 Z M 928.15235,35.793761 c 33.8475,-0.716608 70.0565,6.450197 108.62695,21.498046 38.5704,15.047851 58.6441,51.233443 60.2187,108.558593 1.574,63.05765 2.3594,119.66666 2.3594,169.82617 v 266.5625 h -33.0605 V 342.12579 c -36.2089,-28.66255 -55.8865,-68.79016 -59.0352,-120.38282 18.8914,-25.7963 27.5506,-48.72721 25.9766,-68.79101 -3.1487,-18.63071 -14.1689,-28.66261 -33.0606,-30.0957 -18.89163,-1.43316 -33.84905,2.15119 -44.8691,10.75 -3.14867,-18.63071 -19.67814,-30.81243 -49.58985,-36.544921 -39.35756,-7.16565 -56.67598,-11.465344 -51.95312,-12.898438 15.74305,-31.528854 40.53922,-47.652593 74.38672,-48.36914 z M 832.51368,114.2586 c 18.89164,2.86624 47.22842,8.59851 85.01171,17.19727 12.59439,25.79629 24.40176,38.69531 35.42188,38.69531 11.02019,0 19.67943,-3.58441 25.97656,-10.75 9.44586,-7.16565 14.95503,-5.37345 16.5293,5.375 1.57433,10.74845 -7.08303,26.87219 -25.97461,48.36914 0,55.892 15.74246,98.16753 47.22848,126.83008 -23.61456,24.36321 -51.16432,25.79768 -82.65036,4.30078 v -60.19141 c -22.04031,-21.49695 -47.22896,-27.22916 -75.5664,-17.19726 -28.33744,10.0319 -43.29481,6.44755 -44.86914,-10.75 -6.29713,-12.89815 -7.87119,-25.07993 -4.72266,-36.54493 -3.14853,-14.3313 -11.01883,-23.64591 -23.61328,-27.94531 z m 14.16796,20.42187 c -11.02012,-0.71654 -18.10335,3.94076 -21.25195,13.97266 1.57427,11.46499 9.44456,16.48192 23.61328,15.04883 14.16872,-1.43315 33.06121,-5.0175 56.67578,-10.75 -28.3375,-11.46506 -48.01705,-17.55494 -59.03711,-18.27149 z M 178.39063,339.9754 131.16016,776.36407 c -29.91177,0 -59.822609,-3.5824 -89.734379,-10.74805 z m 729.68945,45.14453 c 17.31738,15.76446 36.99687,23.64648 59.03711,23.64648 22.0402,0 38.56961,-7.88202 49.58981,-23.64648 l -2.3613,326.7539 c 9.4458,187.73986 -28.3372,296.65827 -113.3496,326.75397 H 454.67969 c -4.72293,-5.7324 -16.53023,-24.3638 -35.42187,-55.89264 0,-17.19755 92.88453,-34.3943 278.65234,-51.59179 77.14079,-10.03196 115.71094,-73.80773 115.71094,-191.32422 l 49.59179,-8.59766 c 36.20903,-42.99386 81.86428,-117.51687 136.96481,-223.56836 14.1687,-34.3951 10.6261,-60.19118 -10.62691,-77.38867 -21.25312,-17.19762 -51.55853,-11.46534 -90.91602,17.19726 -49.43748,105.00965 -76.08646,166.88962 -80.00391,185.75196 -0.049,1.88484 -0.25581,3.67351 -0.28515,5.57031 -0.40209,-0.91507 -0.28835,-2.80891 0.28515,-5.57031 2.58172,-99.22614 32.28586,-181.99233 89.44922,-248.09375 z M 367.30664,632.33477 c 83.43805,7.16565 215.67979,15.04774 396.72461,23.64649 h 2.36133 v 17.19726 c -78.71512,4.29934 -177.89595,20.06351 -297.54297,47.29297 -29.91183,-10.0319 -56.67455,-22.92896 -80.28906,-38.69336 z m 761.57026,182.72461 c 40.1448,0 60.2168,17.91399 60.2168,53.74219 v 144.02933 h -40.1445 V 875.25079 c -17.3174,-24.36315 -35.4228,-23.64786 -54.3144,2.14843 V 1251.4461 H 704.99414 V 1588.95 H 539.69336 v -507.3281 h 368.38672 c 51.95202,-7.1657 90.52208,-36.1865 115.71092,-87.06252 25.189,-50.87605 38.9649,-93.51316 41.3262,-127.9082 2.3614,-34.39517 23.6151,-51.5918 63.7597,-51.5918 z M 471.21094,1081.6219 h 14.16797 v 552.0683 h -95.8418 c 21.60934,-10.9295 16.79129,-47.1202 -15.14648,-109.2324 83.43805,-212.103 115.71196,-359.7144 96.82031,-442.8359 z m 290.45899,221.418 H 1094.6348 V 1588.95 H 761.66993 Z M 42.300781,1677.3621 H 1202.125 v 77.6739 H 42.300781 Z" />
</svg>
