<?xml version="1.0" encoding="UTF-8" standalone="no"?>
<svg
   width="1210"
   height="1798"
   version="1.1"
   id="svg730"
   xmlns="http://www.w3.org/2000/svg"
   xmlns:svg="http://www.w3.org/2000/svg">
  <defs
     id="defs734" />
  <path
     id="path728"
     style="fill:#000000;stroke:none;stroke-width:97.0068"
     d="m 451.84069,1.1979022 c -127.33307,0 -168.3943,141.9044478 -124.34881,255.4030978 29.73255,76.61636 133.8255,193.04196 195.82536,244.48494 H -0.35351562 L 1.8554688,1129.3965 H 234.85547 l -2.20899,666.5488 h 744 l 2.20899,-666.5488 h 233.00003 l -2.209,-628.31056 H 703.64648 c -26.33597,-0.5242 -50.89038,0.3832 -75.7027,0 C 613.33378,471.73141 471.10225,331.52565 417.40884,258.80985 375.24842,201.71293 373.17418,82.818298 451.84069,71.774082 500.09492,64.999533 534.16696,87.941462 552.71179,120.19595 575.9056,108.64174 600.93514,97.255904 622.69616,87.744782 593.93355,30.169912 537.10202,1.1979022 451.84069,1.1979022 Z M 74.646484,574.48633 H 1131.6465 l 2.209,484.33397 H 902.85547 l -2.20899,666.5488 h -592 l 2.20899,-666.5488 H 76.855469 Z" />
</svg>
