<?xml version="1.0" encoding="UTF-8" standalone="no"?>
<svg
   width="10.456567"
   height="17.972717"
   version="1.1"
   id="svg836"
   sodipodi:docname="US9A21VARB.svg"
   inkscape:version="1.2.1 (9c6d41e410, 2022-07-14)"
   xmlns:inkscape="http://www.inkscape.org/namespaces/inkscape"
   xmlns:sodipodi="http://sodipodi.sourceforge.net/DTD/sodipodi-0.dtd"
   xmlns="http://www.w3.org/2000/svg"
   xmlns:svg="http://www.w3.org/2000/svg">
  <defs
     id="defs840" />
  <sodipodi:namedview
     id="namedview838"
     pagecolor="#ffffff"
     bordercolor="#000000"
     borderopacity="0.25"
     inkscape:showpageshadow="2"
     inkscape:pageopacity="0.0"
     inkscape:pagecheckerboard="0"
     inkscape:deskcolor="#d1d1d1"
     showgrid="false"
     inkscape:zoom="37.61989"
     inkscape:cx="5.5156992"
     inkscape:cy="8.0010866"
     inkscape:window-width="1920"
     inkscape:window-height="1137"
     inkscape:window-x="-8"
     inkscape:window-y="-8"
     inkscape:window-maximized="1"
     inkscape:current-layer="svg836" />
  <path
     style="fill:#000000;stroke:none"
     d="M 9.0472807,15.646049 C 9.1601681,14.424574 8.7195347,13.172694 8.7040733,12.756331 8.6762016,12.005765 8.4045214,10.17182 8.3839838,9.3244174 8.3648727,8.5358704 8.2165173,8.329963 7.712478,8.197953 L 6.614392,8.28796 C 6.5385571,9.694258 5.6144902,11.409375 3.0633507,15.716413 Z M 8.036503,2.887538 C 7.8924917,2.8275333 7.808485,2.719525 7.784483,2.563513 7.7604817,2.4075003 7.8324877,2.2664893 8.000501,2.14048 8.1685137,2.01447 8.303524,1.8584577 8.405532,1.672443 8.50754,1.4864283 8.4895387,1.3574183 8.351528,1.285413 8.2135167,1.2134077 8.0725057,1.219408 7.928495,1.303414 7.7844837,1.3874207 7.700477,1.3694193 7.676475,1.24941 7.2564423,1.0333933 6.998422,0.91938433 6.902414,0.907383 6.8064067,0.89538233 6.6983983,0.97338867 6.578389,1.141402 c 0.228018,0 0.4500353,0.060005 0.666052,0.180014 0.2160173,0.1200093 0.2580207,0.1860143 0.12601,0.198015 C 6.9504183,1.2914137 6.6443943,1.2254087 6.452379,1.321416 L 6.020346,1.879459 c 0.2280173,0.1080087 0.288022,0.2160173 0.180014,0.324026 0.1440113,0.024002 0.246019,0.063005 0.306023,0.117009 0.060005,0.054004 7e-7,0.1230093 -0.180014,0.207016 0,0.204016 0.1440113,0.2970233 0.432034,0.279022 C 7.0464257,2.7885307 7.178436,3.0795533 7.154434,3.6796 6.362372,3.955622 6.0443473,4.1776393 6.20036,4.345652 6.4523793,5.4017347 6.578389,6.607829 6.578389,7.963935 L 7.964498,7.729917 8.990578,4.345652 C 8.8825693,4.0456287 8.6425503,3.871615 8.270521,3.823611 7.8984923,3.7756077 7.8204863,3.4635833 8.036503,2.887538 Z M 6.362372,1.591437 C 6.446379,1.435425 6.5603877,1.357419 6.704399,1.357419 c 0.1440113,0 0.330026,0.078006 0.558044,0.234018 L 7.550465,1.62744 V 1.699445 L 7.262443,1.681444 C 7.1064303,1.7654507 6.950418,1.8104543 6.794406,1.816455 6.638394,1.822455 6.4943827,1.747449 6.362372,1.591437 Z M 6.668396,1.465427 C 6.6323933,1.4534263 6.578389,1.4834287 6.506383,1.555434 6.554387,1.6394407 6.6323933,1.681444 6.740402,1.681444 6.6203927,1.63344 6.5963907,1.5614343 6.668396,1.465427 Z M 6.740402,1.681444 C 6.872412,1.693445 7.0044223,1.675444 7.136433,1.62744 7.040426,1.579436 6.9384177,1.537433 6.830409,1.50143 6.914416,1.585437 6.884413,1.6454413 6.740402,1.681444 Z m 1.02608,0.144011 C 7.7304793,1.7534497 7.7544813,1.6574423 7.838488,1.537433 7.9224947,1.4174237 8.021502,1.345418 8.13551,1.321416 8.2495193,1.297414 8.3215253,1.3154153 8.351528,1.37542 8.38153,1.4354247 8.3725293,1.5224313 8.324526,1.63644 8.276522,1.7504493 8.177514,1.8674587 8.027502,1.987468 7.8774907,2.1074773 7.763482,2.1494807 7.685476,2.113478 7.60747,2.0774753 7.5774677,2.0264713 7.595469,1.960466 7.6134703,1.8944607 7.6704747,1.849457 7.766482,1.825455 Z M 8.036503,1.483428 C 7.964498,1.543433 7.9074933,1.609438 7.86549,1.681444 7.823487,1.753449 7.835488,1.780451 7.901493,1.76245 c 0.066005,-0.018001 0.066005,0.009 0,0.081007 C 7.835488,1.915462 7.832487,1.939464 7.892493,1.915462 7.9524967,1.89146 8.021502,1.8434563 8.099508,1.771451 8.177514,1.699445 8.2225177,1.621439 8.234519,1.537433 8.2465197,1.4534263 8.1805143,1.4354247 8.036503,1.483428 Z M 7.820486,0.979389 C 8.336526,0.90738367 8.633549,0.99739067 8.711555,1.24941 8.7895617,1.50143 8.6785533,1.8104543 8.37853,2.176483 8.0785067,2.5425117 8.1385113,2.5815147 8.558544,2.293492 8.9785767,2.0054693 9.1855927,1.657442 9.179592,1.24941 9.1735913,0.841378 8.9185717,0.559356 8.414533,0.403344 7.910493,0.247332 7.5444643,0.25333233 7.316447,0.421345 7.088429,0.58935833 7.256442,0.775373 7.820486,0.979389 Z M 7.730479,1.933464 C 7.682475,1.9454647 7.667474,1.975467 7.685476,2.023471 7.7034773,2.0714743 7.7334797,2.080475 7.775483,2.050473 7.8174863,2.0204703 7.802485,1.9814673 7.730479,1.933464 Z M 1.3786841,5.171016 0.5343103,17.965623 h -0.50404 L 0.87464405,5.315027 c -0.204016,0.012001 -0.35402767,-0.195015 -0.450035,-0.621049 -0.0960073,-0.4260333 0.0540043,-0.63905 0.450035,-0.63905 L 1.156102,1.1152462 h 0.50404 L 1.3786841,4.090932 c 0.108008,0.060004 0.223187,0.3145132 0.427203,0.5185299 0.5699686,0.086192 0.9965661,0.5075152 1.8366314,1.187158 L 5.69632,3.895617 C 6.104352,3.7036017 6.476381,3.5595903 6.812407,3.463583 L 6.830409,3.103555 C 6.5663883,3.1155563 6.3683727,3.1065557 6.236362,3.076553 6.104352,3.0465503 6.0323467,2.9715443 6.020346,2.851535 6.0083447,2.7315257 5.9843427,2.6355183 5.94834,2.563513 5.9123373,2.491507 5.9243383,2.440503 5.984343,2.410501 6.0443477,2.3804983 6.038347,2.365497 5.966341,2.365497 5.882335,2.2934917 5.8763347,2.2034847 5.94834,2.095476 5.7803267,2.0714747 5.720322,1.9754673 5.768326,1.807454 5.9363393,1.5194313 6.1223537,1.2674117 6.326369,1.051395 6.7224003,0.415345 7.1484337,0.070318 7.604469,0.016314 8.060505,-0.03769067 8.4955393,0.037315 8.909572,0.241331 9.323604,0.445347 9.5486213,0.73637 9.584624,1.1144 9.6206267,1.4924293 9.53662,1.8254553 9.332604,2.113478 9.1285887,2.4015 8.8405663,2.6415187 8.468537,2.833534 8.264521,3.2535667 8.240519,3.4815843 8.396531,3.517587 c 0.156012,0.036003 0.4980387,0.1620133 1.02608,0.37803 0.276022,0.1920153 0.4260337,0.4620363 0.450035,0.810063 0.324026,0.8040633 0.510041,1.5721237 0.558044,2.304181 0.09601,0.468036 -0.054,1.3321033 -0.450035,2.592202 0,0.504039 -0.060005,0.870068 -0.180014,1.098086 C 9.6806317,10.928166 9.569623,10.988171 9.467615,10.880163 9.365607,10.772154 9.2695993,10.655145 9.179592,10.529136 9.0895853,10.403125 9.0655837,10.235112 9.107587,10.025096 9.1495897,9.81508 9.2335963,9.6560677 9.359607,9.548059 9.4856163,9.4400503 9.572623,9.3200407 9.620627,9.18803 L 9.764638,7.045863 C 9.4766153,6.0017817 9.2906007,5.3117277 9.206594,4.975701 8.8825687,5.947777 8.5825453,6.8958513 8.306524,7.819924 c 0.228018,0.2520193 0.3750297,0.7470577 0.441035,1.485115 0.066005,0.738059 0.1650123,1.827144 0.297023,3.267256 0,0.192015 0.078006,0.501039 0.234019,0.927073 0.1560113,0.426033 0.2040147,1.575122 0.14401,3.447268 0.25202,0.408033 0.175108,0.795875 -0.1369167,0.97589 -0.4920387,0.012 -1.0451756,-0.04582 -1.7532303,0.01419 H 6.97442 C 6.986421,17.744699 7.0884293,17.63069 7.280444,17.594688 8.2405187,17.270663 8.6838063,17.264282 8.6838063,16.748241 l -0.012113,-0.699059 c -0.6421385,0.02967 -2.6956606,0.04458 -3.1652401,0.04839 -0.2261425,0.500005 -0.43215,0.784106 -0.5858343,1.070538 -0.015883,0.208609 -0.00601,0.647303 -0.1620207,0.791314 l -2.4645438,0.01329 c 0.024002,-0.192015 0.25202,-0.336026 0.684054,-0.432033 0.4320333,-0.09601 0.798062,-0.06672 1.098086,-0.390742 0.3000233,-0.324025 0.3871341,-0.509327 0.4591394,-1.025367 0.135188,-0.0259 -2.1428595,0.09314 -2.1992122,-0.01405 L 6.020346,9.548059 5.534307,9.638066 6.020346,8.503977 C 5.7203227,8.2159543 5.7803273,8.0359403 6.20036,7.963935 6.2123607,6.607829 6.08035,5.5157437 5.804328,4.687679 5.336292,5.119713 4.7010163,6.4364045 3.716939,6.6284192 3.5249243,6.7484285 2.4087038,5.9295303 1.7338821,5.1855069 Z"
     id="path834"
     sodipodi:nodetypes="csscccccssssscscsccccscscccccsccsccccsccccccccccsssssssccssssssccssssssccsscccccscccccccccssssccccsssscsccccsssssccccscscccccccccccsscccccccccc" />
</svg>
