<?xml version="1.0" encoding="UTF-8" standalone="no"?>
<svg
   width="750"
   height="1800"
   id="svg2241"
   sodipodi:version="0.32"
   inkscape:version="1.2.2 (732a01da63, 2022-12-09)"
   sodipodi:docname="US9A32VARA.svg"
   inkscape:output_extension="org.inkscape.output.svg.inkscape"
   sodipodi:modified="true"
   version="1.1"
   xmlns:inkscape="http://www.inkscape.org/namespaces/inkscape"
   xmlns:sodipodi="http://sodipodi.sourceforge.net/DTD/sodipodi-0.dtd"
   xmlns="http://www.w3.org/2000/svg"
   xmlns:svg="http://www.w3.org/2000/svg"
   xmlns:rdf="http://www.w3.org/1999/02/22-rdf-syntax-ns#"
   xmlns:cc="http://creativecommons.org/ns#"
   xmlns:dc="http://purl.org/dc/elements/1.1/">
  <metadata
     id="metadata2248">
    <rdf:RDF>
      <cc:Work
         rdf:about="">
        <dc:format>image/svg+xml</dc:format>
        <dc:type
           rdf:resource="http://purl.org/dc/dcmitype/StillImage" />
      </cc:Work>
    </rdf:RDF>
  </metadata>
  <defs
     id="defs2246" />
  <sodipodi:namedview
     inkscape:window-height="1137"
     inkscape:window-width="1920"
     inkscape:pageshadow="2"
     inkscape:pageopacity="0.0"
     guidetolerance="10.0"
     gridtolerance="10.0"
     objecttolerance="10.0"
     borderopacity="1.0"
     bordercolor="#666666"
     pagecolor="#ffffff"
     id="base"
     inkscape:showpageshadow="2"
     inkscape:pagecheckerboard="0"
     inkscape:deskcolor="#d1d1d1"
     showgrid="false"
     inkscape:zoom="0.43852551"
     inkscape:cx="486.8588"
     inkscape:cy="848.29729"
     inkscape:window-x="-8"
     inkscape:window-y="-8"
     inkscape:window-maximized="1"
     inkscape:current-layer="svg2241"
     showguides="true" />
  <path
     id="path2243"
     style="fill:#000000;stroke:none;stroke-width:94.734"
     d="m 523.78676,3.3022262 c -24.6912,0.3555568 -37.9929,0.7393229 -56.24417,5.3890857 -9.2889,2.3664851 -20.07992,6.5617841 -26.44983,11.2879241 l -32.60922,24.192819 c -4.2449,3.1495 -30.30307,32.789099 -34.44144,40.926488 -7.91898,15.571177 -56.13511,84.925257 -52.17757,111.321587 -2.16536,0.2146 -4.29375,0.34375 -6.47937,0.60603 -44.11074,5.29323 -76.16559,36.75737 -96.16249,94.39537 -11.76287,14.11545 -24.70417,32.34855 -38.81952,54.69794 -7.0578,15.29172 -7.0578,24.11422 0,26.46686 7.05768,2.35255 12.35238,5.29525 15.88123,8.82417 -5.88142,3.52891 -8.52875,6.76421 -7.94062,9.70488 0.58818,2.94073 5.58743,4.99724 14.99768,6.17352 2.35263,-1.17628 0.29322,0.002 -6.17635,3.53137 -6.46951,3.52891 -7.35008,6.76132 -2.64499,9.70204 4.70514,2.94076 7.05708,11.47076 7.05708,25.58614 0,14.11549 5.29183,22.35008 15.87839,24.70258 10.58662,2.35262 22.64447,2.05718 36.17175,-0.88356 13.52731,-2.94067 19.40995,2.35399 17.64549,15.88124 -1.76438,13.52726 -19.70496,19.70251 -53.81724,18.52623 -5.38004,-0.16304 -10.32764,-0.008 -15.07413,0.31717 -24.05965,0.49346 -48.82113,0.85556 -52.76094,2.14657 -24.78984,8.12322 -39.70562,42.5406 -59.217654,77.25395 -19.51206,34.71336 -34.94016,62.96055 -46.28442,84.74146 -11.34423,21.78094 -28.241926,61.3126 -35.9559868,84.9086 -7.26037999,11.79803 -2.6562883,23.8506 1.3621404,40.8387 11.9408754,50.48063 44.6434994,89.30379 60.4603364,123.03422 19.51204,42.88119 30.854474,77.93609 34.030824,105.16209 0.90751,17.697 2.72313,31.6484 5.44572,41.8582 2.72269,10.2099 6.35092,19.4007 10.88863,27.5685 4.44034,7.9925 18.58806,19.5137 42.14702,34.4583 -18.41603,65.1521 -33.06375,126.5402 -43.84899,184.0617 -18.820624,88.2215 -2.35147,138.8018 49.40515,151.7411 51.75654,12.9392 116.43589,28.9069 189.36563,71.2531 26.932,84.7977 18.41134,169.6495 -5.11439,182 -23.5257,12.3511 -66.62223,26.4339 -96.02939,32.9036 -29.40721,6.4696 -49.40421,6.4463 -59.99074,16.4449 -10.58659,9.9983 -12.64587,18.2329 -6.17636,24.7025 6.4696,6.4695 13.8208,11.4692 22.05475,14.9978 h 141.15556 c 21.17311,-7.0578 37.34967,-8.2341 48.52442,-3.5286 11.17472,4.7057 25.28907,6.4696 42.34525,5.2929 17.05614,-1.1763 25.58329,-14.1146 25.58329,-38.8168 -17.64425,-52.9328 -28.52193,-139.5821 -7.34875,-185.4576 24.70204,21.1734 70.92162,65.0273 57.38542,123.023 -6.508,72.1577 -38.38486,28.9384 -45.62458,84.7301 -1.06296,30.2653 21.30848,20.6635 55.57868,8.1899 36.4651,-13.2727 54.698,-59.6982 54.698,-76.3619 0,-52.9331 4.9992,-87.6352 14.9977,-104.1032 9.9986,-16.4681 14.1171,-35.2862 12.3526,-56.4593 -1.7644,-21.1732 -24.997,-21.8506 -69.6956,-25.3795 -25.8785,-2.3526 -63.68015,-45.6847 -80.14815,-57.4477 8.23403,-39.9934 4.39849,-54.3186 -12.06952,-120.191 3.13089,-22.8495 -5.41377,-45.6983 23.40274,-47.5333 v -252.3158 c 10.58653,-67.04823 -1.17586,-129.97916 -35.28817,-188.79347 -1.17629,-35.28859 4.41096,-81.46075 16.76195,-138.5106 12.34842,-57.03804 47.05729,-95.10081 58.83839,-95.12454 16.01496,64.30827 50.60799,88.03255 84.76702,158.29914 -18.01209,49.31517 -32.01302,83.89463 -40.7223,132.76002 -4.3108,24.27667 -1.59916,60.59206 -12.03586,83.73435 -17.2432,14.9743 -28.8143,27.6803 -34.7133,38.1172 -7.7141,19.5119 -15.88,35.169 -24.50152,46.9669 7.26022,7.714 14.29382,7.4852 21.10042,-0.6824 25.4111,-32.2176 37.6626,-41.4057 36.7551,-27.5658 -0.9076,13.84 -4.3129,24.9566 -10.2118,33.3513 -5.899,8.3948 -14.7453,17.3568 -26.5433,26.886 -8.1679,14.9742 -6.581,21.5533 4.7632,19.7381 24.5037,-15.4281 39.0252,-27.2248 43.563,-35.3929 4.5377,-8.1679 8.1659,-17.3587 10.8886,-27.5684 2.7226,-10.21 4.5411,-24.1612 5.4486,-41.8582 3.1764,-27.2261 14.5187,-62.28095 34.0309,-105.16226 19.512,-42.88107 31.1961,-73.05679 35.0531,-90.52697 3.8571,-17.47011 9.8684,-33.9175 18.0363,-49.34568 8.1679,-15.42815 8.6224,-29.04352 1.3621,-40.84151 -7.714,-23.59601 -17.2436,-46.28353 -28.5879,-68.06447 -11.3444,-21.78091 -26.7725,-50.02809 -46.2844,-84.74147 -19.3091,-34.35214 -38.8412,-59.89676 -58.5947,-76.69607 -0.023,-0.0178 -0.046,-0.0559 -0.068,-0.0736 -0.014,-0.01 -0.034,-0.0209 -0.048,-0.0312 -0.1693,-0.14368 -0.3375,-0.3107 -0.5069,-0.45309 -0.056,-0.0209 -0.273,-0.0607 -0.3342,-0.082 -16.0323,-11.38666 -44.21344,-17.68704 -84.68479,-18.8434 -39.99373,-1.1763 -55.28693,-24.11322 -45.8766,-68.81209 21.17315,-7.05775 41.46558,-21.76289 60.87429,-44.11235 19.40867,-22.34934 29.69977,-53.52368 30.8761,-93.51749 1.1445,-38.91393 -15.39956,-65.4735 -49.33436,-79.88761 26.3308,-24.42435 62.55556,-60.637 84.82416,-43.98706 18.0657,13.50754 56.426,214.57708 62.9552,223.72145 13.4936,18.89837 31.2,20.1718 43.7668,0.53522 10.7381,-16.77899 -34.1143,-176.00942 -43.0454,-207.34911 -10.9517,-38.43021 -7.1511,-54.58243 -27.4338,-68.49201 -18.5546,-12.72451 -47.4466,-4.84394 -67.4907,-0.83831 -19.84688,3.93018 -100.29125,42.21764 -112.95532,79.58556 -15.72043,-28.58926 71.82178,-120.081278 96.7685,-128.230805 18.14062,-5.926144 226.16502,-14.745619 247.15602,-6.552991 26.5915,10.378539 28.0997,-12.657822 22.5559,-29.162797 C 739.81766,14.786784 552.20266,2.8931379 523.78686,3.3023104 Z M 334.23988,215.71662 c 20.95261,-0.99252 45.54551,2.48144 73.77641,10.42135 37.64117,10.5866 56.4622,32.93834 56.4622,67.05066 -1.17634,34.11227 -14.70274,63.22447 -40.58097,87.33831 -25.87836,24.11386 -42.34741,30.29194 -49.40516,18.52907 -8.23395,-10.58659 -1.76625,-25.8798 19.40695,-45.87663 21.17311,-19.9969 26.76321,-39.70137 16.76478,-59.11003 -9.99841,-19.40869 -31.46683,-21.46524 -64.40284,-6.17352 -11.76285,-12.93916 -39.40647,-22.93762 -82.92905,-29.99538 9.41031,-21.17312 26.46744,-34.40703 51.16941,-39.70026 6.17552,-1.32333 12.7541,-2.15274 19.73827,-2.48357 z m -79.72902,59.82651 c 34.11223,3.52879 61.16788,12.93938 81.16479,28.23112 0,14.11541 6.17247,14.9959 18.5234,2.64497 12.35104,-12.35105 23.82086,-15.58347 34.40745,-9.70205 10.58659,5.88146 11.76546,16.76331 3.53137,32.64319 -8.23397,15.87989 -19.11594,29.40629 -32.64319,40.58098 -13.52734,11.17476 -16.76265,22.34921 -9.70489,33.52391 7.05769,11.17471 11.17642,20.87788 12.35269,29.11183 -4.70511,57.63802 14.11317,87.63634 56.45941,89.98895 42.34634,1.17629 72.04947,7.93952 89.10537,20.29049 13.8437,20.87905 5.3163,44.95388 -19.1917,65.83295 -60.23737,61.61289 -73.31734,165.24291 -84.02782,254.41416 l -146.44834,29.9954 c -4.13585,-126.45292 -42.90767,-225.23115 -84.0335,-347.26335 17.64427,-21.17304 39.33488,-28.56245 112.26461,-28.56245 l 12.34986,-38.81952 c -2.35261,-32.936 -16.75955,-47.34581 -43.22595,-43.22881 -26.46644,4.11701 -37.35118,-3.82221 -32.64605,-23.81903 17.64428,-9.41033 24.11488,-16.17344 19.40979,-20.29049 -4.70518,-4.11699 -14.11567,-7.35236 -28.23111,-9.70488 1.17628,-5.88142 -4.7035,-12.35207 -17.64267,-19.40977 12.93917,-27.0546 25.87754,-46.46361 38.8167,-58.22648 12.93922,-5.88143 25.58509,-5.58604 37.93601,0.88353 12.35106,6.46953 24.99689,11.46879 37.93599,14.9977 v -8.82418 c -8.23396,-1.17628 -18.82044,-5.58755 -31.75965,-13.23341 -12.93915,-7.64585 -25.87755,-9.11444 -38.81671,-4.40926 4.70512,-7.05772 9.4089,-12.94037 14.11414,-17.6455 z m 121.63533,24.86682 c -1.8379,0.0367 -3.86037,0.27537 -6.06591,0.71647 -8.82213,1.76445 -16.7613,8.23506 -23.81903,19.40977 -7.05775,11.1747 -9.4096,19.11671 -7.05706,23.82186 -5.88147,2.35257 -9.70477,6.17298 -11.46915,11.46632 -1.76441,5.29325 0.5875,9.41198 7.05705,12.35269 6.46959,2.94076 15.58752,-1.17798 27.35039,-12.35269 11.76289,-11.17475 19.70209,-21.17323 23.81904,-29.99538 4.11705,-8.8222 4.70498,-15.5854 1.76428,-20.29049 -2.20557,-3.52858 -6.06574,-5.23874 -11.57961,-5.12855 z m -119.12628,6.36893 c -5.7895,-0.38596 -11.3299,0.96468 -16.62319,4.05242 l -12.35269,8.82418 v 8.82134 h 5.2928 c 16.46799,9.4103 34.70111,9.99831 54.69794,1.76426 l 19.40978,5.2928 v -10.5856 l -19.40978,-1.76427 c -11.0277,-10.2925 -21.36564,-15.76187 -31.01486,-16.40513 z m 118.35601,4.93598 c 2.35259,0.58815 3.23312,2.64747 2.64498,6.17634 -1.17628,7.05769 -4.41154,14.11627 -9.70488,21.17405 -5.29324,7.05768 -10.58513,11.46619 -15.87841,13.23058 -5.29328,1.76442 -5.29328,-0.29488 0,-6.17636 5.29328,-5.88139 5.29328,-8.23055 0,-7.05422 -5.29328,1.17631 -6.17671,-1.1785 -2.64782,-7.0599 3.52883,-5.88147 8.23266,-11.76127 14.11414,-17.64267 5.29326,-2.35261 9.11941,-3.23597 11.47199,-2.64782 z m -124.3936,0.88072 c -3.52893,4.70509 -3.52893,8.82386 0,12.3527 -5.88146,-1.17632 -10.00022,-2.35222 -12.35269,-3.52854 2.35251,-2.3525 6.47123,-5.29531 12.35269,-8.82416 z m 15.87841,3.52852 14.11698,8.82418 c -7.05771,1.1762 -13.52838,1.76426 -19.40978,1.76426 5.88158,-2.35261 7.64532,-5.88328 5.2928,-10.58844 z m 72.34346,37.05528 c 4.70511,3.52885 5.29317,6.46872 1.76426,8.82135 -3.52879,2.35253 -5.58804,1.76455 -6.17636,-1.76428 -0.5881,-3.52887 0.88325,-5.88075 4.4121,-7.05707 z m -109.39591,7.94063 c -1.17621,0.5882 -1.76425,2.05677 -1.76425,4.40925 0,2.35253 -0.88346,4.11654 -2.64784,5.2928 -1.7644,1.17631 -4.11632,4.1e-4 -7.05706,-3.52853 -2.94074,-3.52885 -5.00004,-5.2928 -6.17636,-5.2928 -2.35252,0 -3.82379,0.58796 -4.41208,1.76426 -0.58829,1.1763 -0.88071,2.9431 -0.88071,5.29563 3.52877,-2.35255 7.05697,-1.47203 10.58559,2.64499 3.52889,4.11718 7.05961,5.29296 10.58846,3.52853 3.5291,-1.76442 4.99753,-4.70429 4.40924,-8.82133 -0.58811,-4.11698 -1.46868,-5.8811 -2.64499,-5.2928 z m -21.17404,26.46401 c 1.17632,-0.2941 2.94029,-0.29415 5.29281,0 4.70519,0.58821 9.99979,1.47155 15.88123,2.64781 5.88142,1.17612 8.23338,1.76427 7.05707,1.76427 h -28.23111 c -1.17611,0 -1.76426,-0.88057 -1.76426,-2.64499 0,-0.8822 0.58798,-1.47301 1.76426,-1.76709 z m 26.46684,7.94061 c -2.35252,2.35248 -5.58789,4.11933 -9.70489,5.29564 -4.11702,1.17613 -7.94029,1.76144 -11.46914,1.76144 -1.17625,1.17627 -2.35223,1.17627 -3.52853,0 -1.17631,-1.17631 -0.58827,-2.94027 1.76425,-5.29281 z m -67.38333,217.36412 c 38.74608,121.6661 60.19544,198.14822 58.562,304.91004 -16.57335,46.63669 -31.40681,91.53361 -44.82315,135.01321 -5.59268,-9.6278 -10.99851,-20.8392 -16.18142,-33.9488 -5.89903,-10.4368 -29.23402,-15.9465 -34.71329,-38.11724 -6.65419,-26.92475 -5.24126,-47.42682 -12.0359,-71.12858 -15.40146,-53.72491 -15.55994,-98.05972 -36.939685,-139.06145 0,-19.05834 20.666035,-55.96882 36.933995,-84.01448 22.88528,-39.45381 26.82605,-40.18096 49.19745,-73.6527 z m 245.59134,278.44314 c 24.70195,42.34624 34.11534,95.86959 28.23392,160.56521 v 215.2634 H 166.28899 c 16.46801,-94.1029 46.46349,-207.6172 89.98613,-340.53757 z M 134.92582,1031.3519 c 5.03057,0.3803 16.28318,11.6461 33.7533,33.7957 2.3741,2.849 4.77495,4.6706 7.20433,5.5873 -2.71173,8.9906 -5.19388,17.7529 -7.76788,26.6056 -11.4994,-9.3487 -20.18374,-18.155 -25.9826,-26.4074 -5.89903,-8.3948 -9.30146,-19.514 -10.20896,-33.354 -0.28358,-4.325 0.71518,-6.4001 3.00181,-6.2272 z m 132.92041,269.3325 h 57.33728 c -3.52893,29.4073 10.37998,73.9227 18.614,93.9195 -4.70518,-4.7049 -51.96879,-26.8718 -63.73168,-26.8718 -52.7752,0 -47.50823,-22.3492 -12.2196,-67.0477 z"
     sodipodi:nodetypes="ssccscsccscscssssssccssscsccssccsccsssccscccccssssccccccscccccccssccsscssscsscccccccsscssssaccsssssccscssccsscsssssscccccccccscscccsccsccssscsssssssscccccccsscssssscscccccccccsscsssssscssssscssssscccscccccccsscscsccccscccssscccscc" />
</svg>
