<?xml version="1.0" encoding="UTF-8" standalone="no"?>
<svg
   width="1800.0000px"
   height="1800.0000px"
   id="svg1996"
   sodipodi:version="0.32"
   inkscape:version="1.2.1 (9c6d41e410, 2022-07-14)"
   sodipodi:docname="US9A40VARA.svg"
   version="1.1"
   xmlns:inkscape="http://www.inkscape.org/namespaces/inkscape"
   xmlns:sodipodi="http://sodipodi.sourceforge.net/DTD/sodipodi-0.dtd"
   xmlns="http://www.w3.org/2000/svg"
   xmlns:svg="http://www.w3.org/2000/svg"
   xmlns:rdf="http://www.w3.org/1999/02/22-rdf-syntax-ns#"
   xmlns:cc="http://creativecommons.org/ns#"
   xmlns:dc="http://purl.org/dc/elements/1.1/">
  <metadata
     id="metadata2003">
    <rdf:RDF>
      <cc:Work
         rdf:about="">
        <dc:format>image/svg+xml</dc:format>
        <dc:type
           rdf:resource="http://purl.org/dc/dcmitype/StillImage" />
        <dc:date>29/01/2006</dc:date>
        <dc:creator>
          <cc:Agent>
            <dc:title>Serge Thomas</dc:title>
          </cc:Agent>
        </dc:creator>
        <dc:publisher>
          <cc:Agent>
            <dc:title>Serge Rosmorduc</dc:title>
          </cc:Agent>
        </dc:publisher>
        <dc:description>Original by SJP Thomas, from  KV57. Simplified to match the Pashed font style (60px wide lines) by S. Rosmorduc.</dc:description>
        <cc:license
           rdf:resource="http://creativecommons.org/licenses/GPL/2.0/" />
      </cc:Work>
      <cc:License
         rdf:about="http://creativecommons.org/licenses/GPL/2.0/">
        <cc:permits
           rdf:resource="http://web.resource.org/cc/Reproduction" />
        <cc:permits
           rdf:resource="http://web.resource.org/cc/Distribution" />
        <cc:requires
           rdf:resource="http://web.resource.org/cc/Notice" />
        <cc:permits
           rdf:resource="http://web.resource.org/cc/DerivativeWorks" />
        <cc:requires
           rdf:resource="http://web.resource.org/cc/ShareAlike" />
        <cc:requires
           rdf:resource="http://web.resource.org/cc/SourceCode" />
      </cc:License>
    </rdf:RDF>
  </metadata>
  <defs
     id="defs2001" />
  <sodipodi:namedview
     inkscape:window-height="1137"
     inkscape:window-width="1920"
     inkscape:pageshadow="2"
     inkscape:pageopacity="0.0"
     borderopacity="1.0"
     bordercolor="#666666"
     pagecolor="#ffffff"
     id="base"
     inkscape:zoom="0.27057957"
     inkscape:cx="663.39082"
     inkscape:cy="487.84171"
     inkscape:window-x="-8"
     inkscape:window-y="-8"
     inkscape:current-layer="svg1996"
     inkscape:showpageshadow="2"
     inkscape:pagecheckerboard="0"
     inkscape:deskcolor="#d1d1d1"
     showgrid="false"
     inkscape:window-maximized="1" />
  <path
     style="display:inline;fill:#000000;fill-opacity:1;stroke:none"
     d="M 736.375,0.1875 C 650.87173,2.533264 555.76821,25.435217 504.81208,99.956803 482.2913,132.60907 465.24629,172.15404 472.84375,212.5 c -20.48485,47.22152 -64.97803,83.54149 -71.96603,136.38356 -6.67309,42.77753 57.91324,33.99927 42.13224,75.40731 0.94419,31.09352 18.74638,69.1856 23.97068,81.57657 17.5383,41.59723 42.64033,43.06424 78.08186,16.60131 36.30433,-14.30862 72.98577,-27.25336 81.52818,22.56499 27.13102,71.71981 1.3762,147.84747 -6.06402,220.735 C 593.38719,951.86172 566.06591,1137.9305 537.71875,1323.8438 434.45869,1195.4847 331.62694,1066.7695 228.09913,938.63301 188.71316,898.77639 124.49042,899.19071 74.468298,915.81549 32.82273,933.02074 -11.632604,976.54238 3.2649835,1025.6343 94.500508,1214.3104 176.37284,1408.2944 233.125,1610.375 c -69.49525,26.5151 -139.653663,51.4841 -208.730464,78.9748 -27.8976568,16.3331 -14.334816,48.8527 -8.425979,73.1949 1.817576,25.1154 23.859892,44.7396 49.375587,40.1428 H 980.375 c 12.71078,-7.5761 44.1116,-13.6872 48.4232,-16.9304 -17.2674,-14.2423 -10.069,-39.2533 -28.4855,-53.3399 -18.34379,-21.6807 -36.68762,-43.3615 -55.03145,-65.0422 36.10304,-200.0157 56.10485,-403.0105 57.99995,-606.2812 39.179,0.2411 108.1948,6.0184 97.5156,-54.2121 2.2068,-212.65517 1.9769,-425.74957 -14.0668,-637.82453 C 1078.3254,257.96103 1046.8093,138.38179 958.19795,63.200035 897.19008,10.168668 814.67848,-1.9607392 736.375,0.1875 Z m 5.25,73.625 c 66.74428,-2.020927 141.74958,8.368538 187.59109,62.47028 67.95442,80.1992 82.40681,189.54957 87.65791,290.91118 9.543,184.20778 12.3036,368.74231 10.5322,553.18104 H 982.1875 V 526.75 C 863.49222,522.83171 813.93221,435.33111 803.3892,367.19352 c 14.31001,-31.07631 52.45478,-57.17496 65.10884,-95.07569 13.60187,-40.73956 -4.56809,-101.59211 -54.10624,-99.51398 -33.52294,1.4063 -59.19618,19.05338 -92.49522,-1.22733 -40.80437,-24.8518 -95.47735,-29.37474 -142.66091,-39.7564 C 618.14279,74.797445 677.78862,75.745379 741.625,73.8125 Z M 545.40625,184.65625 c 57.95668,10.28553 119.12105,21.4248 164.87018,61.48149 16.00374,21.58846 45.49589,29.38734 57.34081,-1.27048 31.21638,-43.83417 63.68536,17.87793 41.23016,48.14963 -13.09295,32.69353 -52.8044,51.98214 -66.89045,78.66915 13.576,53.24129 37.40018,104.47124 77.75093,143.08865 31.13357,29.79617 68.80536,56.67719 112.86522,60.05792 -1.44568,190.63725 -0.49151,381.32512 -4.62595,571.92369 -6.04355,176.0176 -26.0981,351.4599 -58.1034,524.6187 -4.46968,24.776 18.22036,40.0458 31.15625,57.6562 H 126.5 c 56.20757,-21.3259 112.77108,-41.7952 168.75329,-63.6636 30.1916,-15.8134 16.23017,-52.6654 8.07888,-77.5395 -56.98212,-200.9512 -137.1298,-394.5858 -228.42592,-582.2031 21.730091,-28.81913 65.48569,-33.35214 96.63391,-18.78424 52.49713,62.29214 102.43581,127.10914 153.94633,190.37494 70.43189,87.2809 140.06242,175.2551 210.99669,262.1012 25.42204,24.6308 67.5718,-0.7003 63.33002,-34.2896 37.33356,-251.87 80.97558,-502.93148 109.97679,-755.95392 11.0183,-78.08337 -16.81708,-160.7386 -72.01418,-216.71475 -35.37889,-32.18665 -95.47108,44.6526 -115.16055,-0.10453 -25.60725,-26.04635 58.03652,-12.04433 19.47849,-34.9416 -45.30161,7.5894 -13.30023,-56.91555 -55.15625,-67.0625 9.52258,-26.44521 29.58739,-42.20726 54.88841,-22.48167 39.25559,9.61096 79.14959,-4.8247 114.92409,-20.14333 -31.73251,-31.73251 -43.10905,-38.45465 -64.33099,-38.45465 -25.95554,0 -64.66911,9.44608 -64.81452,17.85623 16.67955,-24.28849 21.94812,-53.40177 17.80176,-82.37033 z"
     id="path1998"
     sodipodi:nodetypes="sccccscccccccccccccccccscssssccccssscscccccscccccccccccccccccccscc" />
</svg>
