<?xml version="1.0" encoding="UTF-8" standalone="no"?>
<svg
   width="11.37254"
   height="17.983217"
   version="1.1"
   id="svg4"
   sodipodi:docname="US9A240VARB2.svg"
   xml:space="preserve"
   inkscape:version="1.2.1 (9c6d41e410, 2022-07-14)"
   xmlns:inkscape="http://www.inkscape.org/namespaces/inkscape"
   xmlns:sodipodi="http://sodipodi.sourceforge.net/DTD/sodipodi-0.dtd"
   xmlns="http://www.w3.org/2000/svg"
   xmlns:svg="http://www.w3.org/2000/svg"><defs
     id="defs8" /><sodipodi:namedview
     id="namedview6"
     pagecolor="#ffffff"
     bordercolor="#000000"
     borderopacity="0.25"
     inkscape:showpageshadow="2"
     inkscape:pageopacity="0.0"
     inkscape:pagecheckerboard="0"
     inkscape:deskcolor="#d1d1d1"
     showgrid="false"
     inkscape:zoom="103.5226"
     inkscape:cx="6.8294267"
     inkscape:cy="3.5499495"
     inkscape:window-width="1346"
     inkscape:window-height="1000"
     inkscape:window-x="1469"
     inkscape:window-y="0"
     inkscape:window-maximized="0"
     inkscape:current-layer="svg4" /><path
     id="path2"
     style="fill:#000000;stroke:none"
     d="M 10.067294,0.0292808 C 9.3940651,1.6036071 8.905284,2.1531911 8.7706372,2.2567655 8.7809972,1.7285376 8.8081923,1.5430573 8.9842691,1.3151944 9.2328468,1.1080462 9.3685324,0.78381676 9.3944253,0.63363411 9.4203153,0.48345146 9.395077,0.24216854 9.2293621,0.08680731 8.9911414,-0.0581961 8.8054143,0.06450367 8.6707684,0.16289886 8.5361215,0.26129466 8.3782662,0.53223029 8.2850503,0.80152253 8.0364716,1.1743897 7.7778746,1.4988468 7.5292969,1.6386719 7.2807201,1.7784968 7.241437,1.7817896 7.200007,1.8232187 6.8685703,1.5021396 6.7012797,1.1998442 6.6961008,0.91501556 c -0.0052,-0.28482921 0.074511,-0.46792203 0.2402343,-0.55078122 0.1657189,-0.0828591 0.300724,-0.0749583 0.4042969,0.0234375 0.1035749,0.0983951 0.1253283,0.19915994 0.068359,0.30273437 -0.05697,0.10357377 -0.123491,0.10357377 -0.2011719,0 -0.07768,-0.1035744 -0.1468404,-0.15625 -0.2089844,-0.15625 -0.0725,0.0517878 -0.085672,0.14201687 -0.039063,0.27148437 0.04661,0.12946778 0.1526416,0.19531252 0.3183594,0.19531252 0.2796507,0 0.4172874,-0.12183522 0.4121094,-0.36523439 C 7.6850414,0.39231954 7.5849782,0.21254093 7.3933664,0.09860934 7.2017536,-0.01532234 6.9870549,-0.00478749 6.7488351,0.12985934 6.5106144,0.26450541 6.3940468,0.52397926 6.3992258,0.90720308 6.4044257,1.2904275 6.5472951,1.6111439 6.9408767,1.9840103 6.7337279,2.2015165 6.611901,2.3240028 6.518684,2.5829374 H 6.0206372 c 0.08286,0.32108 0.060892,0.815027 0.086785,0.9600314 0.02589,0.1450029 0.033797,0.2642047 0.023437,0.3574218 -0.09322,0.1242891 -0.196616,0.2994809 -0.3105469,0.5273438 -0.05179,0.1346462 -0.049127,0.2090734 0.00781,0.2246094 0.05697,0.015536 0.1050544,0.044511 0.1464844,0.085937 -0.05179,0.031073 -0.070218,0.05741 -0.054687,0.078125 0.01554,0.020715 0.044507,0.036518 0.085937,0.046875 0.01036,-0.010357 -1.781e-4,0.00281 -0.03125,0.039063 -0.03107,0.036251 -0.023163,0.06327 0.023437,0.083984 0.04661,0.020715 0.062415,0.07339 0.046875,0.15625 -0.0132,0.07038 -2.897e-4,0.1168408 0.035156,0.1425781 0.09262,0.052826 0.1504579,0.1055989 0.2773438,0.095703 L 6.5976562,5.34375 6.5820312,5.6699219 C 6.5086913,5.7188148 6.4085634,5.7554369 6.2890625,5.78125 6.1269027,5.754522 5.864231,5.7905203 5.7832031,5.8632812 5.6651572,5.9692847 5.4112795,6.146723 5.1523438,6.4160156 4.6862602,6.6335211 4.1778497,6.9193318 3.6289062,7.2714844 3.3596205,7.0021912 3.0099107,6.7980282 2.5800781,6.6582031 2.1502466,6.5183782 1.8426848,6.3754717 1.65625,6.2304688 1.4209642,6.0023117 1.1526083,5.8513955 0.85351562,5.7753906 L 0.84765625,5.5 C 0.96158714,5.4482131 1.0537718,5.3448142 1.1210938,5.1894531 1.2096337,4.8957231 1.2288142,4.6354447 1.2675781,4.3496094 V 4.1484375 l -0.1640625,0.00977 c 0.04409,-0.3776737 0.056561,-0.7427284 0.1171875,-1.1132812 0.03243,-0.1982057 0.171875,-1.03125 0.171875,-1.03125 0,0 -0.2530798,-0.1855469 -0.67773435,-0.1855469 C 0.44627802,1.828125 0,2.0019531 0,2.0019531 c 0,0 0.2426465,1.4860863 0.2421875,2.125 l -0.125,0.021484 V 4.349609 c 0.0018,0.1955652 0.0401501,0.4655917 0.15625,0.8398437 C 0.33558744,5.3448112 0.42317749,5.4482129 0.53710938,5.5 l -0.003906,0.2246094 c -0.03474,-0.00255 -0.0680297,-0.00704 -0.10351562,-0.00781 L 0.08789062,5.7011719 c -0.02070997,0.1346462 0.03001,0.2294627 0.15429688,0.28125 0.03107,0.4971555 0.108133,0.7441406 0.23242188,0.7441406 0.01343,-0.00112 0.0275256,-0.00261 0.0410156,-0.00391 l -0.009766,0.5175782 c 0,0.072503 0.0632101,0.109375 0.1875,0.109375 0.12428887,0 0.18554687,-0.036872 0.18554687,-0.109375 L 0.86914062,6.6679688 C 0.9942805,6.6424538 1.1219873,6.6122556 1.2519531,6.5722656 2.2048342,7.3490717 2.9707658,7.8364122 3.5507812,8.0332031 3.6459212,8.113374 3.9547312,7.9115104 4.0175781,7.8925781 4.6597495,7.6336463 5.255744,7.3076442 5.8046875,6.9140625 6.1568381,7.5355071 6.3320313,8.4048361 6.3320312,9.5234375 L 5.921875,11.703125 5.5722656,13.376953 c -0.0537,0.314264 -0.1036058,0.584705 -0.1523437,0.853516 0,0 -0.062634,0.283953 -0.083984,0.458984 -0.1651238,0.871671 -0.3018679,1.46815 -0.4023437,1.748047 -0.1553609,0.4143 -0.325286,0.650061 -0.5117188,0.707031 -0.1864338,0.05697 -0.5018971,0.184067 -0.9472656,0.38086 -0.3107227,0.06214 -0.498403,0.160281 -0.5605469,0.294921 -0.06215,0.134642 0.06759,0.185367 0.3886719,0.154297 h 0.8710937 c 0.1967908,-0.06218 0.4622125,-0.06485 0.7988281,-0.0078 0.3366157,0.05697 0.4795204,-0.163004 0.4277344,-0.660156 0.03107,-0.269295 0.2247016,-0.762584 0.5820313,-1.482422 0.1051329,-0.21179 0.1926099,-0.405976 0.2636719,-0.585938 0.05124,-0.128588 0.1237541,-0.356031 0.1269531,-0.365234 0.3602676,-0.980925 0.4486066,-1.645538 0.7402343,-2.496094 l 0.5546876,0.976563 c 0.4232206,0.745108 0.5140269,1.524746 0.5761718,1.980468 0.02875,0.141745 0.05487,0.354926 0.0625,0.404297 0.05179,0.321083 0.08671,0.580551 0.1074219,0.777344 0.05179,0.258938 0.0116,0.447295 -0.1230469,0.566406 -0.1346468,0.119111 -0.4573302,0.283085 -0.9648437,0.490235 -0.4039386,0.144996 -0.4968017,0.278051 -0.2792969,0.402343 H 8.212891 c 0.1760768,-0.05179 0.388141,-0.05179 0.6367188,0 0.3728676,0.03107 0.4709977,-0.180997 0.2949218,-0.636718 C 8.9995314,16.88214 8.9942644,16.267047 9.1289062,15.490234 9.2635531,14.71343 9.4622358,14.008751 9.234375,13.376953 v -0.01563 L 9.136719,12.980464 c 0.1989717,0.0823 0.6024963,0.278595 0.7621149,0.30565 1.2802691,0.216996 1.4393291,-0.154559 1.4401601,-0.471949 8.16e-4,-0.311689 -0.225133,-0.516138 -1.010869,-0.571982 -0.3383327,-0.02404 -0.9386431,-0.09043 -1.4257812,-0.185542 l -0.143833,-0.563613 c 0.1551765,-0.0094 0.3218608,2.19e-4 0.4153173,0.0088 0.0044,0.03491 -0.017719,0.299153 -0.011719,0.328273 -0.0031,0.04781 0.5304886,-0.153374 0.5878906,-0.152344 -0.0093,0.07045 0.021484,0.220703 0.021484,0.220704 -0.0011,0.114403 0.093716,-0.01717 0.140625,-0.04688 0.3093703,0.007 0.5440883,0.0045 0.6386713,-0.04101 0.04619,-0.05565 -0.0092,-0.25552 0.01172,-0.242188 7.7e-5,-0.01272 0.353516,-0.02148 0.353516,-0.02148 0,0 0.353995,0.306748 0.464843,-0.109375 0.0035,-0.462402 -0.426897,-0.264153 -0.480468,-0.177734 -0.155994,-0.0013 -0.40625,-0.07813 -0.40625,-0.07813 0,0 -0.01264,-0.30363 -0.142579,-0.507813 0.08797,-1.1388773 0.06742,-1.711973 -0.04687,-2.1171874 C 10.263129,7.6215366 9.9326398,7.3589097 9.6113281,6.5097656 9.5077572,6.0747548 9.253548,5.815281 8.8496094,5.7324219 8.248879,5.6806349 7.9255152,5.5930398 7.8789062,5.46875 7.8322963,5.3444609 7.8033287,5.2305269 7.7929688,5.1269531 8.0622615,4.754086 8.2532556,4.4675945 8.3671875,4.265625 8.4811714,4.0636561 9.4044835,2.655781 10.49201,0.01464041 Z M 9.0159785,0.37005779 C 9.2086237,0.60435373 8.87661,0.91671887 8.8543459,1.0056321 8.5746954,1.4510012 8.4288403,1.7999751 8.4288403,2.4110624 c -0.0725,0.082859 -0.175901,0.1408023 -0.3105469,0.171875 H 6.8917309 C 7.0885217,2.1479257 7.2812522,2.09659 7.6230469,1.9101562 7.9648415,1.7237227 8.4476667,1.3217299 8.6350089,0.81201911 8.7746544,0.43207898 8.9169356,0.36811567 9.0159785,0.37005779 Z M 0.73822097,2.1972053 c 0.26929373,0 0.29440613,0.035058 0.29440613,0.035058 C 0.9670003,2.7809638 0.91441778,2.6704375 0.86328125,3.6252869 l -0.046875,0.507526 H 0.56835938 l -0.0625,-0.7011719 C 0.43963944,2.9120548 0.45469008,2.8008195 0.36518917,2.2792215 c 0,0 0.0726671,-0.082016 0.3730318,-0.082016 z M 6.378059,2.8309843 c 0,0 1.1284549,0.09571 1.7223666,0.063393 0.3566314,-0.019406 0.7184378,-0.1617155 0.656339,-0.280738 0,0 -0.6536073,1.7317731 -1.0575458,2.2496424 l -0.091797,-0.21875 C 7.8974306,4.240593 7.9771241,3.9514661 7.8476562,3.7753906 7.7181884,3.5993144 7.4982227,3.6098497 7.1875,3.8066406 7.0528541,3.6719954 6.7881129,3.6087836 6.3945312,3.6191406 6.3531013,3.4223497 6.398779,2.9863452 6.378059,2.8309843 Z M 6.3476562,3.7753906 C 6.9173137,3.7650326 7.1504499,3.9000375 7.046875,4.1796875 l 0.09375,0.015625 C 7.2752719,3.9053052 7.4399279,3.7703003 7.6367188,3.7910156 7.8645825,3.8635186 7.7980575,4.1177233 7.4355469,4.5527344 7.331973,4.6770235 7.3082664,4.7777875 7.3652344,4.8554688 c 0.05697,0.077681 0.09647,0.1573752 0.1171875,0.2402343 0.06214,0.6007299 0.3005471,0.9003906 0.7148437,0.9003907 0.4142966,-10e-8 0.4913566,0.3786739 0.2324219,1.1347656 -0.2589357,0.7560901 -0.3517988,1.373167 -0.2792969,1.8496094 0.0029,0.017248 -0.01176,0.2559094 0.03125,0.3730468 C 8.3335765,9.7673223 8.5030754,10.399274 8.2441406,11 l 0.055312,0.112861 c -0.123917,0.02526 -0.4198799,0.135791 -0.4838971,0.184172 -0.2180416,0.07604 -0.3457456,0.347829 -0.1474274,0.654682 0.1111568,0.171991 0.5830996,0.490846 0.9488468,0.715625 0.0422,0.177238 0.2430605,0.593468 0.3102501,0.919096 0.1027363,0.497902 0.081388,0.958936 -0.2409739,2.032704 C 8.5237342,15.29413 8.5692415,14.57708 8.1890911,13.596198 7.8354795,12.758086 7.0685184,12.015017 7.0683594,11.253906 7.0682024,10.50405 7.8046875,9.8945313 7.8046875,9.8945312 l -0.1503906,-0.28125 c 0,0 -0.3909689,0.2514901 -0.5585938,0.5566408 -0.3751926,0.683014 -0.3851925,1.137458 -0.2441406,1.912109 -0.2156838,0.729684 -0.6077147,1.869514 -0.7285156,2.341797 -0.2415998,0.94457 -0.5234375,1.140625 -0.5234375,1.140625 l 0.5,-2.617187 0.5429687,-3.0820316 C 6.6631481,9.8505794 6.6903331,9.5966023 6.6894531,9.4609375 6.6842531,8.6515793 6.5446251,7.4463155 6.3789062,7.0527344 6.2131884,6.6591527 6.0729153,6.401632 5.9589844,6.2773438 5.8450525,6.1530547 5.9800556,6.0898437 6.3632812,6.0898438 6.7154339,6.0898437 6.8925781,5.925188 6.8925781,5.59375 6.8925781,5.2623127 6.773378,5.127309 6.5351562,5.1894531 6.2969355,5.2515981 6.1988044,5.1778519 6.2402344,4.9707031 6.3748812,4.8774872 6.4177027,4.8162292 6.3710938,4.7851562 c -0.04661,-0.031072 -0.1315705,-0.052143 -0.2558594,-0.0625 0.01036,-0.062144 -0.04759,-0.1128667 -0.171875,-0.1542968 0.1035739,-0.2692929 0.2036581,-0.4622401 0.296875,-0.5761719 0.1139309,-0.051787 0.233133,-0.051787 0.3574218,0 0.1242899,0.051787 0.2468059,0.083392 0.3710938,0.09375 L 6.953125,4.0078125 c -0.0725,0 -0.170632,-0.027018 -0.2949219,-0.083984 -0.1242889,-0.056968 -0.248757,-0.064866 -0.3730469,-0.023437 z m 1.1796876,0.1035156 c -0.01586,0.00227 -0.033314,0.0072 -0.052734,0.013672 -0.07768,0.025894 -0.144207,0.084517 -0.2011719,0.1777344 -0.05697,0.093218 -0.075398,0.1650096 -0.054687,0.2167969 -0.05179,0.031073 -0.08339,0.073213 -0.09375,0.125 -0.01036,0.051787 0.013353,0.08866 0.070312,0.109375 0.05697,0.020715 0.134026,-0.021425 0.2324219,-0.125 0.0984,-0.1035738 0.161607,-0.1990716 0.1875,-0.2871094 0.02589,-0.088039 0.028552,-0.1519294 0.00781,-0.1933594 -0.01552,-0.031073 -0.048123,-0.043905 -0.095703,-0.037109 z m -0.011719,0.099609 c 0.02719,0.00129 0.039699,0.019072 0.037109,0.052734 -0.0052,0.067323 -0.034148,0.1331681 -0.085937,0.1953125 -0.05179,0.062145 -0.09656,0.1049654 -0.1328125,0.1308594 -0.03625,0.025893 -0.03625,0.00746 0,-0.054687 0.03625,-0.062145 0.033597,-0.081262 -0.00781,-0.060547 -0.04143,0.020715 -0.05197,-3.559e-4 -0.03125,-0.0625 0.02071,-0.062145 0.05232,-0.114819 0.09375,-0.15625 0.05697,-0.031072 0.099759,-0.046217 0.1269531,-0.044922 z M 6.472656,4.0175772 c -0.02723,-0.00252 -0.053355,-0.00242 -0.078125,0.00195 -0.03301,0.00583 -0.06527,0.017031 -0.09375,0.035156 l -0.091797,0.09375 v 0.09375 l 0.060547,-0.03125 c 0.1450039,0.08286 0.3063461,0.077593 0.4824219,-0.015625 l 0.171875,0.03125 V 4.1484375 L 6.7519531,4.1328125 C 6.6470852,4.0629006 6.5543372,4.0251342 6.472656,4.0175772 Z m -0.0625,0.068359 c -0.03107,0.031072 -0.03107,0.067945 0,0.109375 -0.04143,-0.010357 -0.0783,-0.02616 -0.109375,-0.046875 0.02072,-0.031072 0.05759,-0.052143 0.109375,-0.0625 z m 0.125,0 0.1542969,0.09375 c -0.06214,0.010356 -0.1181359,0.015625 -0.1699219,0.015625 0.04143,-0.031073 0.046695,-0.067946 0.015625,-0.109375 z M 6.2558594,4.5214844 c -0.01036,0 -0.015625,0.01317 -0.015625,0.039063 0,0.025894 -0.0079,0.044331 -0.023437,0.054687 -0.01554,0.010358 -0.03661,-1.779e-4 -0.0625,-0.03125 -0.02589,-0.031073 -0.044328,-0.046875 -0.054687,-0.046875 -0.02072,0 -0.036525,0.00527 -0.046875,0.015625 -0.01036,0.010357 -0.01036,0.02616 0,0.046875 0.02071,-0.020715 0.049688,-0.014767 0.085937,0.021484 0.03625,0.036251 0.07312,0.046786 0.109375,0.03125 0.03625,-0.015536 0.047469,-0.039921 0.037109,-0.076172 -0.01036,-0.036251 -0.018937,-0.054687 -0.029297,-0.054687 z m -0.125,0.2480468 c 0.04143,0.010356 0.086881,0.015625 0.1386718,0.015625 0.05179,10e-8 0.067595,0.00527 0.046875,0.015625 l -0.2324218,0.015625 c -0.02071,-0.010357 -0.028618,-0.020892 -0.023437,-0.03125 0.0052,-0.010356 0.028892,-0.015625 0.070312,-0.015625 z m 0.1855468,0.0625 c -0.01036,0.010357 -0.032109,0.02616 -0.068359,0.046875 -0.03625,0.020715 -0.075761,0.03125 -0.1171875,0.03125 -0.01036,0.010358 -0.02089,0.010358 -0.03125,0 -0.01036,-0.010357 -0.00511,-0.02616 0.015625,-0.046875 z m 2.5332032,2.0664063 v 0.015625 C 8.9946132,7.4733624 9.456087,8.0272284 9.7460938,8.5761719 9.6632338,8.9490383 9.6790389,9.3995062 9.7929688,9.9277344 9.9069006,10.455959 9.9703431,10.636067 9.9082031,10.75 c -0.04835,0.130543 -0.084836,0.02554 -0.095666,0.198959 0,0 -0.618535,-0.232825 -0.623084,-0.205115 -0.0036,0.02211 -0.017698,0.330006 -0.017578,0.361476 5.3e-5,0.01561 -0.2523909,-0.02455 -0.5125283,-0.0031 L 8.6328125,11 C 8.7985303,10.399274 8.7800978,9.8401364 8.578125,9.3222656 8.3761572,8.8043948 8.4663848,7.9963229 8.8496094,6.8984375 Z m -0.4917419,4.6169435 0.052289,0.420166 C 8.253644,11.882369 8.0227854,11.75084 8.0177499,11.688988 c -0.00528,-0.06489 0.3401176,-0.173607 0.3401176,-0.173607 z m 2.4996675,1.315801 c -0.0048,0.146398 -0.447684,0.03394 -0.677777,0.03412 -0.4932732,-0.06694 -0.8642081,-0.265467 -0.8639318,-0.354052 0.2130105,0.02776 0.5695533,0.07108 0.9608808,0.130684 0.280371,0.0427 0.621192,-0.02051 0.580828,0.189244 z"
     sodipodi:nodetypes="cccccscsccccsscsscsscccccccccccscscccccsccscccccccccscccccccccccccsccccccccccccsccccccscccscccsccccccccccsscccccccccccccccccscccccccccsscsccccccscscccscccccccsccsscccccscsccsccscsccccssssscscccscccccccccscccccccsssccccscccccccccsccccccscsssssccscsscssccccscscccccscccccccccccccccccscc" /></svg>
