<?xml version="1.0" encoding="UTF-8" standalone="no"?>
<!-- Generator: Adobe Illustrator 19.0.0, SVG Export Plug-In . SVG Version: 6.00 Build 0)  -->

<svg
   version="1.1"
   id="Ebene_1"
   x="0px"
   y="0px"
   viewBox="0 0 1425.2141 1797.327"
   xml:space="preserve"
   width="1425.2141"
   height="1797.327"
   xmlns="http://www.w3.org/2000/svg"
   xmlns:svg="http://www.w3.org/2000/svg"><defs
   id="defs969">
	
	
</defs>
<style
   type="text/css"
   id="style961">
	.st0{fill:#010101;}
</style>
<path
   id="XMLID_3_"
   class="st0"
   d="M 1115.5592,0.04385658 C 1046.3276,1.2866288 997.8639,28.915004 970.3014,82.727451 c -31.5,61.599939 -56.6012,105.999249 -75.20118,133.199219 -27.19997,40.09996 -45.79845,70.20119 -55.89844,90.20117 0,7.19999 2.89962,14.30001 8.59961,21.5 20.09998,7.19999 30.09961,20.09924 30.09961,38.69922 l -6.40039,12.90039 6.40039,15 c 14.29999,15.79998 22.19961,35.10002 23.59961,58 1.4,22.89998 5.7004,37.20001 12.90039,43 l -51.5,174.09961 c -37.19996,11.49999 -46.60037,28.99963 -27.90039,52.59961 18.59998,23.59998 40.79963,18.30036 66.59961,-16.09961 l 92.40038,-210.59961 53.7012,-23.59961 c 12.9,22.89998 14.9984,47.99925 6.3984,75.19922 h 2.1016 c -44.4,93.09991 -96.7009,338.8004 -156.8008,737.00004 L 618.00061,871.32706 H 615.901 C 584.40103,806.82712 542.80134,771.02666 491.30139,763.92667 L 562.401,406.32706 c 27.69997,-49.39995 41.89922,-93.89965 42.19922,-132.09961 0.3,-36.89996 -12.70003,-67.20119 -36.5,-85.20117 -30.99997,-23.39998 -73.39847,-20.39919 -100.89844,7.30078 -20.99998,21.09998 -29.80117,52.70082 -24.70117,88.80078 4.49999,31.69997 19.29963,66.19887 44.09961,102.79883 l -70.5,358.90039 -250.5,-293.09961 c 8.09999,-45.59995 7.50038,-84.70042 -1.59961,-116.40039 -10.19999,-35.49996 -31.29925,-60.80079 -59.19922,-71.30078 -36.299956,-13.59999 -76.099623,1.30121 -94.599605,35.70117 -14.0999863,26.19997 -13.6003753,58.99964 1.59961,92.09961 15.599984,34.19997 45.998869,67.99964 90.298825,100.59961 0.1,1.7 0.20039,3.39961 0.40039,5.09961 l 249.20117,294.40039 -45.10156,30.09961 c 65.89993,60.19994 101.00078,103.80159 105.30078,131.10156 144.69986,433.99956 214.89961,665.30006 210.59961,694.00006 -4.3,32.8999 -25.40043,60.4992 -63.40039,82.6992 -37.99996,22.2 -47.59998,44 -29,65.5 h 852.99998 c 28.6,-14.3 28.6,-34.3992 0,-60.1992 -74.4999,-90.1999 -98.5,-177.3017 -72,-261.1016 26.5,-83.7999 49.8008,-272.4999 69.8008,-566.09963 15.8,-176.19982 -5.7001,-299.39968 -64.5,-369.59961 62.8999,-45.69995 98.3992,-115.60048 106.1992,-209.40039 7.9,-93.79991 -2.0996,-168.70006 -30.0996,-224.5 -27.9,-55.899945 -109.9001,-90.998843 -246,-105.2988291 -10.7375,-0.89999912 -21.0512,-1.26152322 -30.9414,-1.08398432 z m 3.1426,44.08398442 c 52.9999,0 109.5993,12.499635 169.6992,37.59961 60.1999,25.099979 90.1992,84.900489 90.1992,179.400389 -12.9,140.39986 -38.6988,210.5 -77.2988,210.5 -34.4,0 -58.0004,-38.00047 -70.9004,-113.90039 25.8,-42.99996 38.6992,-78.80042 38.6992,-107.40039 0,-28.59997 -14.9996,-43.99922 -45.0996,-46.19922 -30.1,-2.1 -52.9988,3.89884 -68.7988,18.29883 -5.7,-31.49997 -32.9016,-52.29884 -81.6016,-62.29883 -60.1999,-12.89999 -86.7,-20.1 -79.5,-21.5 30.1,-62.999936 71.6016,-94.499999 124.6016,-94.499999 z M 968.3014,175.12784 c 28.6,4.3 73.0993,14.29963 133.1992,30.09961 20.1,42.99996 38.0012,64.5 53.7012,64.5 15.7,0 30.7996,-6.40079 45.0996,-19.30078 11.5,-9.99999 18.9996,-6.79881 22.5996,9.70117 3.6,16.49998 -10.4004,42.59847 -41.9004,78.39844 20.1,117.49988 52.3012,199.10044 96.7012,244.90039 -71.5999,30.09997 -132.5016,32.20036 -182.6016,6.40039 15.8,-48.69995 20.1004,-89.50003 12.9004,-122.5 -23,-41.49996 -57.3993,-52.60076 -103.1992,-33.30078 -45.8,19.29998 -67.9996,16.10075 -66.5996,-9.69922 L 918.901,389.92667 c 41.5,-4.3 62.3008,-9.30001 62.3008,-15 0,-11.49999 -21.5001,-19.29961 -64.50002,-23.59961 1.4,-8.59999 -6.40158,-23.59963 -23.60156,-45.09961 z m 18.2422,35.38086 c -15.4461,0.38709 -25.8047,7.90041 -31.2422,22.61914 1.4,18.59998 13.9996,26.89922 37.5996,24.69922 23.6,-2.1 52.6,-8.20079 87,-18.30078 -43,-18.59998 -73.0992,-28.3 -90.1992,-29 -1.075,-0.0375 -2.1285,-0.0434 -3.1582,-0.0176 z m -464.74221,26.71875 c 2.6,0 5.29922,0.89922 7.69922,2.69922 11.89999,8.99999 18.30115,39.89966 -2.29883,92.09961 -14.19998,-24.79998 -19.50078,-43.40001 -21.30078,-56 -2.2,-15.49999 0.19923,-28.19923 6.69922,-34.69922 2.7,-2.7 5.90117,-4.09961 9.20117,-4.09961 z M 77.401004,325.12784 c 1.6,0 3.20078,0.29844 4.80078,0.89844 13.99999,5.29999 28.899996,33.00045 23.999996,88.90039 -20.599976,-19.69998 -31.100786,-36.09962 -36.300776,-47.59961 -6.49999,-14.29999 -7.8,-27.09923 -3.5,-35.19922 2.4,-4.49999 6.5,-7 11,-7 z M 1305.6002,630.72745 c 15.7,27.09997 24.7008,80.10047 26.8008,158.90039 2.1,78.79992 -6.0992,197.00016 -24.6992,354.50006 -18.6,157.5998 -39.4008,279.2989 -62.3008,365.2988 -22.9,85.8999 -7.1992,156.0997 47.3008,210.5996 H 656.70178 c 15.79999,-15.8 26.09923,-41.8985 31.19922,-78.3984 5,-36.5 -11.80004,-99.9017 -50.5,-190.1016 L 476.20178,965.82706 c 9.99999,-62.99994 43.70006,-78.09958 101,-45.09961 l 217,326.59965 83.79883,103.0996 c 42.99996,28.6 70.90079,13.6003 83.80079,-45.0996 20.1,-160.3998 41.2004,-300.4001 63.4004,-420.00004 22.2,-119.59988 40.4988,-199.49965 54.7988,-239.59961 60.1999,30.09997 135.3997,25.09996 225.5996,-15 z M 464.91272,808.4794 c 21.89529,1.07813 37.13751,7.02306 45.6875,17.74805 11.49999,14.29999 -10.69967,28.60002 -66.59961,43 -37.29996,-37.29996 -38.29918,-57.40117 -3.19922,-60.20117 8.77499,-0.725 16.8129,-0.90625 24.11133,-0.54688 z" />
</svg>
