<?xml version="1.0" encoding="UTF-8" standalone="no"?>
<svg
   width="1197.8151"
   height="1800"
   version="1.1"
   id="svg1"
   xmlns="http://www.w3.org/2000/svg"
   xmlns:svg="http://www.w3.org/2000/svg">
  <defs
     id="defs1" />
  <path
     id="path1"
     style="fill:#000000;stroke:none;stroke-width:100.094"
     d="m 1139.6479,0 c -8.1964,-1.2507976e-5 -13.4489,2.771213 -15.7578,8.3125 -3.0785,7.388384 -1.5378,16.008244 4.6192,25.859375 11.0825,20.93374 18.4699,42.175235 22.164,63.724609 3.6943,21.549396 0.6167,47.717086 -9.2344,78.501956 -12.3139,-14.7768 -17.8563,-33.55715 -16.625,-56.33789 1.2314,-22.780795 -4.9255,-33.555631 -18.4707,-32.324222 -11.0825,59.106922 -4.3095,105.901802 20.3184,140.380862 -13.5454,99.74293 -22.1652,179.78477 -25.8594,240.12304 -119.44512,-4.92554 -189.02038,-10.77427 -208.72263,-17.54687 -19.70233,-6.77272 -45.87006,-10.16016 -78.50195,-10.16016 -32.632,0 -48.33299,-23.39655 -47.10157,-70.18945 20.93365,-8.61978 41.56087,-24.62888 61.87891,-48.02539 20.31804,-23.3965 30.47656,-56.0291 30.47656,-97.89648 0,-41.86735 -18.77837,-69.57377 -56.33594,-83.11915 -37.55755,-13.54533 -78.50186,-17.23899 -122.83203,-11.08203 -44.33022,6.15701 -76.34655,40.02018 -96.04882,101.58985 -11.08254,14.77674 -24.01424,33.8633 -38.79102,57.25976 -7.38831,17.23955 -7.38831,26.78373 0,28.63086 7.38836,1.84705 13.54707,4.61831 18.47266,8.3125 -6.15701,3.69419 -8.92821,7.07968 -8.3125,10.15821 0.61571,3.07842 3.38691,5.23343 8.3125,6.46484 2.4628,-1.23141 1.84659,10e-4 -1.84766,3.69531 -3.69415,3.69425 -3.07793,6.77162 1.84766,9.23438 4.92553,2.46278 7.38672,12.00702 7.38671,28.63086 0,16.62379 4.92615,25.55178 14.77735,26.7832 9.85114,1.23141 24.62775,1.23141 44.33008,0 12.31393,6.15696 14.16275,17.23992 5.54297,33.24805 -50.48714,-1.23135 -87.73784,3.69291 -111.75,14.77539 -24.01222,11.08262 -123.67113,22.65491 -261.58727,22.65491 l -14.71743,-20.0807 c -26.95971,-54.06373 -68.69223,-133.433 -117.77539,-219.6289 l 0.29493,-0.1582 C 127.71453,200.17539 118.887,163.25158 103.31785,131.01953 87.748643,98.787591 59.719027,70.21964 19.229957,45.320312 c -3.08663,0.57358 -5.80133,1.351615 -8.14453,2.332032 -7.0296004,2.941261 -10.71387038,7.713507 -11.05274038,14.316406 -0.45189,8.803903 3.78168998,16.062389 12.70313038,21.773438 19.21706,14.851284 34.54938,31.589712 45.99414,50.218752 11.44482,18.62901 18.32032,44.06441 20.626953,76.30468 C 62.888157,202.27255 50.875627,187.18941 43.315897,165.01367 35.756217,142.8379 25.915667,134.84 13.800267,141.02148 c 11.52505,58.11344 34.93868,99.20667 70.189456,123.34961 19.386067,86.86515 37.777007,151.29394 52.320307,185.95703 14.2115,33.87227 40.46141,72.23051 78.49219,114.97852 61.22258,27.42771 346.64649,22.99414 346.64649,22.99414 -1.23135,56.64408 6.15788,112.05885 22.16602,166.24024 16.00808,54.18133 32.01532,108.97793 48.02343,164.39062 -104.66842,97.28006 -236.41849,210.36946 -272.1289,290.41016 -35.71047,80.0405 -29.1151,115.75 43.53711,144.0723 19.70235,7.3884 152.24629,-6.5707 250.75781,-29.9668 3.69417,20.9333 10.15905,42.1751 19.39453,63.7246 9.23542,21.5495 18.77771,76.3475 28.62891,164.3926 9.85113,88.0446 2.46383,138.5336 -22.16407,151.4628 -24.6279,12.9297 -52.33434,22.7801 -83.11914,29.5528 -30.78486,6.7727 -51.72019,15.3925 -62.80273,25.8594 -11.08254,10.4666 -13.23755,19.0866 -6.46484,25.8593 6.77259,6.7726 14.47006,12.007 23.08984,15.7012 h 147.76758 c 12.31393,-1.2311 24.93558,-1.5391 37.86523,-0.9219 12.9296,0.6139 28.01431,0.9219 45.25391,0.9219 17.23943,0 25.85937,-17.2396 25.85937,-51.7188 -13.54526,-39.4043 -16.93087,-76.9632 -10.1582,-112.6738 6.77259,-35.71 14.77623,-80.3486 24.01172,-133.914 9.23542,-53.5659 -0.9231,-118.5228 -30.47656,-194.8692 49.25579,-8.6198 76.34591,4.0016 81.27148,37.8653 4.92559,33.8628 16.31664,64.955 34.17187,93.2773 17.85524,28.3221 32.32371,42.4844 43.40626,42.4844 11.08251,0 18.4718,-12.3139 22.16601,-36.9414 3.69418,-24.6279 -0.61575,-48.9486 -12.92969,-72.961 -12.31393,-24.0117 -15.70144,-56.6446 -10.16015,-97.8965 5.54124,-41.2515 0.30886,-68.65 -15.69922,-82.1953 -16.00812,-13.5455 -34.17221,-16.3167 -54.49024,-8.3125 -20.31797,8.004 -42.79007,13.2365 -67.41797,15.6993 l 40.63477,-166.2383 c 29.55353,-23.3966 32.32471,-65.87956 8.3125,-127.44925 -24.0122,-61.56975 -33.86261,-124.67991 -29.55273,-189.32813 4.30985,-64.64818 20.00887,-112.36558 47.09961,-143.15039 150.23007,7.38835 246.28097,3.07841 288.14847,-12.92968 20.9338,-56.64414 31.7085,-104.05328 32.3242,-142.22657 0.6157,-38.17318 -5.8492,-102.8221 -19.3945,-193.94531 12.3141,-39.40459 17.5483,-76.65524 15.7012,-111.75 C 1192.2344,75.731464 1177.1475,39.097016 1148.8257,0.92382812 1145.4393,0.30812404 1142.3801,4.1694386e-6 1139.6479,0 Z M 719.83738,149.1543 c 16.316,0.92354 34.32505,3.84788 54.02735,8.77343 39.40466,9.85112 59.10742,33.24757 59.10742,70.18946 0,35.71041 -12.92976,66.18807 -38.78907,91.43164 -25.85931,25.24358 -43.09902,31.70849 -51.71874,19.39453 -7.38842,-9.85114 -0.30719,-25.55218 21.24218,-47.10156 21.54945,-21.54945 26.78183,-42.48281 15.69922,-62.80078 -11.08248,-20.31805 -34.47904,-21.85869 -70.18945,-4.61914 -12.31396,-13.5453 -41.25088,-23.39579 -86.8125,-29.55274 9.8512,-22.16509 27.70524,-36.32546 53.56445,-42.48242 12.92967,-3.0785 27.55319,-4.15597 43.86914,-3.23242 z m -106.66992,64.18554 c 35.7105,3.69419 64.64941,12.93032 86.81445,27.70704 0,14.77673 6.15675,15.69915 18.47071,2.76953 12.31387,-12.92967 24.31928,-16.62334 36.01757,-11.08203 11.69824,5.54125 13.23699,16.93231 4.61719,34.17187 -8.61978,17.23951 -19.70081,31.39988 -33.24609,42.48242 -13.54537,11.08254 -16.62469,22.47362 -9.23633,34.17188 7.38831,11.69824 12.31455,22.47308 14.77734,32.32422 3.69416,61.56963 26.47438,92.66352 68.3418,93.27929 41.86742,0.61565 72.0369,4.30937 90.50781,11.08203 18.47094,6.77271 95.4353,13.23758 230.88869,19.39453 7.3883,-77.57783 17.855,-168.08637 31.4004,-271.52343 6.1569,27.09063 10.7749,71.11432 13.8535,132.06836 3.0785,60.95398 -4.0026,117.9055 -21.2422,170.85547 -24.628,16.00809 -116.9833,17.85491 -277.06445,5.54101 -39.40466,38.17318 -62.49494,94.20222 -69.26758,168.08594 -6.77273,73.88353 3.0797,141.92002 29.55469,204.10547 26.47501,62.18544 6.77216,106.20896 -59.10742,132.06836 -65.87961,25.8594 -103.31164,72.2679 -185.27539,110.7148 -70.8967,33.256 -135.71653,46.3461 -94.11133,92.8789 54.18136,-8.6196 182.10527,-17.9603 236.90234,-16.1132 54.79699,1.847 100.97564,-4.3101 138.53321,-18.4707 37.55747,-14.1611 56.33593,2.1545 56.33593,48.9472 -1.23134,64.0328 4.31107,105.9015 16.625,125.6035 12.31387,19.7023 13.54448,40.0193 3.69336,60.9532 -27.09066,-35.7106 -41.251,-75.7301 -42.48242,-120.0606 -1.23141,-44.3299 -52.95056,-58.7987 -155.15625,-43.4062 -102.20573,15.3924 -243.36955,32.4286 -276.61719,39.2011 -33.24758,6.7727 -60.64584,-0.6145 -82.19531,-22.164 -21.54938,-21.5495 -4.13389,-45.5617 28.49805,-108.9785 32.63198,-63.4169 159.14955,-165.1151 256.42969,-256.23832 C 651.95628,868.44517 635.0247,806.87557 619.6323,749 604.2399,691.12449 596.54441,624.01237 596.54441,547.66602 c -198.62045,9.02818 -309.85155,6.96338 -347.54102,-2.34375 -8.85689,-2.18714 -16.82698,-3.99482 -21.23046,-8.27344 -35.69817,-42.73813 -63.16834,-93.0847 -82.41211,-151.03906 -19.24371,-57.95442 -31.61834,-100.4214 -37.12305,-127.40039 50.48523,89.97253 93.63842,169.80456 129.57422,239.6582 1.98721,3.57698 9.85905,9.40339 9.85905,9.40339 10.39466,9.91425 256.20995,-7.41554 281.45345,-17.26667 25.24363,-9.85112 71.11404,-16.62216 137.60938,-20.31641 4.92554,-59.10692 -8.62043,-87.12151 -40.63672,-84.04297 -32.01622,3.07846 -45.56229,-7.08205 -40.63672,-30.47851 17.23951,-9.85112 23.39629,-16.93035 18.4707,-21.24024 -4.92554,-4.30984 -14.77599,-7.08109 -29.55273,-8.3125 1.23142,-6.15696 -4.92535,-12.92995 -18.47071,-20.31836 12.31394,-29.55346 25.24369,-49.87253 38.78907,-60.95508 12.31387,-6.15695 25.24369,-6.15695 38.78906,0 13.54538,6.15701 27.09135,10.46686 40.63672,12.92969 v -9.23437 c -8.6198,0 -19.70269,-4.00178 -33.24805,-12.00586 -13.54528,-8.00408 -27.09134,-8.92845 -40.63672,-2.77149 3.69423,-8.61971 8.00418,-15.39277 12.92969,-20.31836 z m 129.12305,24.18555 c -1.88558,0.0385 -3.98215,0.28822 -6.29102,0.75 -9.2355,1.84705 -17.54722,8.62011 -24.93555,20.31836 -7.38839,11.69833 -9.23519,19.39573 -5.54101,23.08984 -7.38838,3.69419 -11.69835,8.31028 -12.92969,13.85157 -1.23141,5.54125 1.53794,9.85119 8.31055,12.92968 6.77274,3.07847 16.00885,-1.23147 27.70703,-12.92968 11.69826,-11.69825 19.39564,-22.16497 23.08984,-31.40039 3.69416,-9.23555 4.30845,-16.31465 1.84571,-21.24024 -1.84711,-3.69419 -5.59917,-5.4846 -11.25586,-5.36914 z m -124.39063,8.25391 c -6.23391,-0.2309 -12.12082,1.26954 -17.66211,4.50195 l -12.92969,11.08398 v 9.23438 h 7.38868 c 17.23951,7.38836 35.70986,7.38836 55.41211,0 l 20.31836,3.69531 v -11.08398 l -18.47071,-1.84571 C 639.64257,251.36017 628.28977,246.16412 617.89988,245.7793 Z m 123.64063,3.58008 c 2.46276,0.61566 3.38716,2.77063 2.77148,6.46484 -1.23141,7.38836 -4.6189,14.46763 -10.16015,21.24023 -5.54129,6.77272 -10.77368,11.3907 -15.69922,13.85352 -4.92559,2.46277 -4.92559,0.30786 0,-6.46485 4.92554,-6.77259 4.92554,-9.23572 0,-7.38867 -4.92559,1.84712 -6.15805,-0.30789 -3.69532,-6.46484 2.46281,-6.15696 7.38895,-12.31375 14.77735,-18.4707 5.54122,-2.4628 9.54307,-3.38524 12.00586,-2.76953 z m -130.22071,4.61718 c -3.69416,3.69418 -3.69416,8.00404 0,12.92969 -6.15697,-2.46283 -9.85061,-4.30961 -11.08203,-5.54102 1.23142,-2.46271 4.92506,-4.92584 11.08203,-7.38867 z m 16.625,1.84766 14.77539,9.23437 c -6.15697,1.23141 -12.31376,1.84766 -18.4707,1.84766 4.92553,-2.46283 6.15805,-6.15649 3.69531,-11.08203 z m 77.57813,36.9414 c 4.92556,3.69417 5.53988,6.77155 1.8457,9.23438 -3.69412,2.46277 -6.15531,2.15666 -7.38672,-0.92188 -1.2314,-3.07841 0.61544,-5.84973 5.54102,-8.3125 z m -113.6543,10.73633 c -0.26937,-0.077 -0.55934,0.0379 -0.86719,0.34571 -1.23139,1.23141 -1.8457,3.07818 -1.8457,5.54101 0,2.46277 -0.92443,4.30961 -2.77148,5.54102 -1.84712,1.23141 -4.31023,8.3e-4 -7.38868,-3.69336 -3.07851,-3.69417 -5.23343,-5.54102 -6.46484,-5.54102 -2.46274,0 -4.00148,0.30792 -4.61719,0.92383 -0.61591,0.61591 -0.92382,2.77092 -0.92382,6.46484 3.69412,-2.46272 7.38778,-1.84846 11.08203,1.84571 3.69414,3.69413 7.38983,4.92666 11.08398,3.69531 3.69425,-1.23141 5.2329,-4.31074 4.61719,-9.23633 -0.46177,-3.69415 -1.09618,-5.6558 -1.9043,-5.88672 z m -21.87695,28.97657 c 1.38532,-0.30786 3.15561,-0.30785 5.31055,0 4.30984,0.61591 9.54223,1.53832 15.69921,2.76953 6.15699,1.23135 8.6201,1.84765 7.38868,1.84765 h -29.55274 c -2.46281,0 -3.07906,-0.92248 -1.84765,-2.76953 0.6157,-0.92355 1.61663,-1.5398 3.00195,-1.84765 z m 26.55273,6.46484 c -1.23139,2.46283 -4.00262,4.61772 -8.3125,6.46484 -4.3099,1.84706 -8.31171,2.76953 -12.00586,2.76953 -2.4628,1.23141 -4.31155,1.23141 -5.54297,0 -1.23131,-1.23138 -0.61508,-3.07826 1.84766,-5.54101 z m 217.95703,712.98044 -36.9414,145.92 c -23.39651,1.2307 -54.18222,7e-4 -92.35547,-3.6934 l 11.08203,-75.7305 c 59.10693,-33.2473 98.51251,-55.4134 118.21484,-66.4961 z m -166.23828,101.5899 -1.84765,42.4843 -128.84961,13.3418 z m 107.13086,157.0039 c 6.15701,22.1652 15.3931,48.9488 27.70703,80.3496 12.31394,31.4007 6.15723,133.9147 -18.4707,307.541 11.08262,24.6281 11.08262,48.0244 0,70.1895 -49.25572,2.463 -110.82722,3.6953 -184.71094,3.6953 v -3.6953 c 46.79301,-9.8511 85.89044,-20.9321 117.29102,-33.2461 31.40058,-12.314 43.40595,-68.0369 36.01758,-167.1641 -7.3884,-99.1272 -16.62254,-161.9291 -27.70508,-188.4043 -11.08255,-26.4751 -17.85553,-45.8697 -20.31836,-58.1836 z" />
</svg>
