<?xml version="1.0" encoding="UTF-8" standalone="no"?>
<svg
   width="1251.5929"
   height="1798.4989"
   version="1.1"
   id="svg150"
   xmlns="http://www.w3.org/2000/svg"
   xmlns:svg="http://www.w3.org/2000/svg">
  <defs
     id="defs154" />
  <path
     style="fill:#000000;stroke:none;stroke-width:100"
     d="m 1074.3612,1286.2505 c -22.2887,-89.7772 -32.5944,-334.98079 -32.5944,-334.98079 7.2005,-74.40587 -14.4012,-118.2093 -64.80512,-131.4103 l -109.8086,9.0007 c -24.00187,150.01173 -49.80386,283.22209 -77.40599,399.63119 l -71.75547,303.125 394.59808,0.232 c -7.2917,-150 -15.0482,-152.2295 -38.2285,-245.5978 z m -64.997,-997.43259 c -14.40115,-6.00047 -22.80182,-16.8013 -25.20202,-32.4025 -2.40013,-15.60127 4.80047,-29.70237 21.60182,-42.3033 16.8012,-12.601 30.3023,-28.20223 40.5031,-46.8037 10.2008,-18.60147 8.4006,-31.50247 -5.4004,-38.703 -13.8012,-7.20053 -27.9023,-6.6005 -42.30332,1.8001 -14.40113,8.40067 -22.8018,6.60053 -25.202,-5.4004 -42.00327,-21.60167 -67.8053,-33.002571 -77.4061,-34.202704 -9.60073,-1.200067 -20.40157,6.600568 -32.4025,23.401904 22.8018,0 45.00353,6.00047 66.6052,18.0014 21.60173,12.00093 25.80207,18.60143 12.601,19.8015 -42.00327,-22.80173 -72.60567,-29.40223 -91.8072,-19.8015 l -43.20329,55.8043 c 22.80173,10.80087 28.80219,21.60173 18.00139,32.4026 14.40113,2.4002 24.6019,6.3005 30.6023,11.7009 6.00053,5.4004 7e-5,12.30093 -18.0014,20.7016 0,20.4016 14.40113,29.70233 43.2034,27.9022 28.80227,-1.80013 42.0033,27.30213 39.6031,87.3068 -79.20619,27.6022 -117.19197,33.31511 -101.59071,50.11638 25.20193,105.60827 43.98621,242.70652 43.98621,378.31712 l 138.61092,-23.4018 102.608,-338.4265 c -10.8009,-30.00233 -34.8028,-47.4037 -72.0057,-52.2041 -37.20289,-4.80033 -45.00349,-36.00277 -23.4018,-93.6073 z M 841.95108,159.20781 c 8.40067,-15.6012 19.80157,-23.4018 34.2027,-23.4018 14.40113,0 33.0026,7.8006 55.8044,23.4018 l 28.8022,3.6003 v 7.2005 l -28.8022,-1.8001 c -15.60127,8.40067 -31.2025,12.90103 -46.8037,13.5011 -15.6012,0.6 -30.00233,-6.9006 -43.2034,-22.5018 z m 30.6024,-12.601 c -3.60027,-1.20007 -9.0007,1.80017 -16.2013,9.0007 4.8004,8.40067 12.60103,12.601 23.4019,12.601 -12.00093,-4.8004 -14.40113,-12.00097 -7.2006,-21.6017 z m 7.2006,21.6017 c 13.201,1.20007 26.40203,-0.60007 39.6031,-5.4004 -9.60073,-4.8004 -19.80153,-9.00073 -30.6024,-12.601 8.40067,8.40067 5.40043,14.40113 -9.0007,18.0014 z m 102.608,14.4011 c -3.60027,-7.20053 -1.20007,-16.80127 7.2006,-28.8022 8.40067,-12.00093 18.30142,-19.2015 29.70222,-21.6017 11.4009,-2.4002 18.6015,-0.60007 21.6018,5.4004 3.0002,6.00047 2.1001,14.70113 -2.7002,26.102 -4.8004,11.40093 -14.7012,23.10187 -29.7024,35.1028 -15.00115,12.00093 -26.40202,16.20127 -34.20262,12.601 -7.8006,-3.60027 -10.80083,-8.70067 -9.0007,-15.3012 1.80013,-6.60053 7.50057,-11.1009 17.1013,-13.5011 z m 27.00212,-34.2027 c -7.2006,6.00047 -12.90099,12.601 -17.10132,19.8016 -4.20033,7.20053 -3.00023,9.90073 3.6003,8.1006 6.60052,-1.80013 6.60052,0.9001 0,8.1007 -6.60053,7.20053 -6.90053,9.6007 -0.9,7.2005 6.00042,-2.4002 12.90092,-7.20057 20.70152,-14.4011 7.8006,-7.2006 12.3009,-15.0012 13.5011,-23.4018 1.2,-8.40067 -5.4005,-10.20083 -19.8016,-5.4005 z M 987.76248,98.003006 c 51.60402,-7.200533 81.30632,1.800168 89.10692,27.002104 7.8006,25.202 -3.3002,56.10443 -33.3025,92.7073 -30.0024,36.60287 -24.0019,40.50317 18.0014,11.7009 42.0032,-28.80227 62.7048,-63.605 62.1048,-104.4082 -0.6001,-40.803203 -26.1021,-69.005404 -76.5059,-84.606604 -50.40402,-15.6012 -87.00689,-15.001167 -109.80862,1.8001 -22.8018,16.801333 -6.0005,35.4028 50.4039,55.8044 z m -9.0007,95.407504 c -4.8004,1.20007 -6.3005,4.2003 -4.5003,9.0007 1.80013,4.80033 4.80037,5.7004 9.0007,2.7002 4.20033,-3.00027 2.7002,-6.90057 -4.5004,-11.7009 z M 376.56764,490.59239 50.404,1797.8336 H 0 L 333.6881,486.93479 c -20.4016,1.20013 -35.40277,-19.5015 -45.0035,-62.1049 -9.60074,-42.60333 35.49827,-48.85608 75.10134,-48.85608 l 76.74949,-287.10802 48.8991,10.534243 -78.25437,293.718207 c 5.0865,4.85754 3.16129,12.72394 16.70575,24.55418 53.48232,35.19494 106.68662,129.76735 137.10447,158.2837 L 758.85707,375.19809 c 40.80319,-19.20153 94.49491,-19.17495 128.09751,-28.77568 l 1.8002,-36.0028 c -26.40207,1.20013 -46.20363,0.30007 -59.4047,-2.7002 -13.20099,-3.00027 -20.40152,-10.50087 -21.60159,-22.5018 -1.20013,-12.00093 -3.60033,-21.60167 -7.2006,-28.8022 -3.60027,-7.2006 -2.40017,-12.301 3.6003,-15.3012 6.00047,-3.00027 5.4004,-4.5004 -1.8002,-4.5004 -8.4006,-7.20053 -9.00063,-16.20123 -1.8001,-27.0021 -16.80133,-2.40013 -22.8018,-12.00087 -18.0014,-28.8022 16.80133,-28.80227 35.40276,-54.00423 55.80429,-75.6059 39.60313,-63.605003 82.20647,-98.107704 127.81,-103.5081039 45.60362,-5.4004667 89.10702,2.1000999 130.51032,22.5016999 41.4032,20.4016 63.9049,49.503901 67.5052,87.306904 3.6002,37.80293 -4.8004,71.10553 -25.202,99.9078 -20.4016,28.8022 -49.2038,52.80407 -86.4067,72.0056 -20.4016,42.00327 -22.8018,64.80503 -7.2006,68.4053 15.6012,3.60033 49.8038,16.20133 102.608,37.803 27.6022,19.20153 42.6033,46.20363 45.0035,81.0063 32.4026,80.40633 51.0041,157.21237 55.8044,230.4181 9.6007,46.8036 -5.4004,133.21033 -45.0035,259.2202 0,50.40389 -6.0005,87.00679 -18.0014,109.80859 -12.001,22.8017 -23.1018,28.8022 -33.3026,18.0014 -10.2008,-10.8009 -19.8016,-22.5018 -28.8023,-35.1027 -9.0007,-12.6011 -11.4009,-29.4024 -7.2005,-50.404 4.2002,-21.00159 12.6009,-36.90282 25.202,-47.70369 12.6009,-10.80087 21.3016,-22.80183 26.102,-36.0029 l 14.4011,-214.2167 c -28.8023,-104.40813 -47.4038,-173.41353 -55.8044,-207.0162 -32.4026,97.2076 -62.4049,192.01503 -90.007,284.4223 22.8018,25.20193 37.5029,74.70577 44.1035,148.5115 6.6004,73.80589 16.5012,182.71439 29.7023,326.72559 0,19.2015 7.8006,50.1039 23.4019,92.7073 15.6011,42.6033 20.4014,169.4208 14.401,356.6354 25.202,40.8033 22.2017,70.2056 -9.0007,88.2071 -49.2039,1.2 -115.1629,-2.3449 -185.96832,3.6555 l -49.8501,-4.7634 c 1.20013,-19.2015 11.40093,-30.6024 30.6024,-34.2026 96.00742,-32.4025 145.20202,-54.1612 145.20202,-105.7653 -5.8013,-32.565 -11.7601,-60.001 -17.8859,-86.6248 0,0 -271.49091,-0.1067 -292.57048,0.3289 -24.56351,43.9756 -50.45168,93.5172 -77.76463,147.0577 2.4002,40.8032 -4.2003,68.4053 -19.8015,82.8064 H 435.11928 c 2.4002,-19.2015 25.202,-33.6026 68.4054,-43.2033 43.20333,-9.6007 79.8062,-30.6024 109.8086,-63.0049 30.00234,-32.4025 48.60378,-74.4058 55.80431,-126.0099 21.60167,-88.8069 44.40347,-188.4147 68.4054,-298.8234 l 70.2055,-311.42429 -48.6039,9.0007 48.6039,-113.4089 c -30.00233,-28.80227 -24.00187,-46.80367 18.00139,-54.0042 1.20007,-135.6106 -12.001,-244.81913 -39.60319,-327.6256 C 739.34309,512.03541 664.67631,656.5985 566.26857,675.79997 547.0671,687.8009 421.25365,575.05941 401.74301,486.30239 Z"
     id="path148" />
</svg>
