<?xml version="1.0" encoding="UTF-8" standalone="no"?>
<svg
   width="1378.6217"
   height="1800.0031"
   version="1.1"
   id="svg1"
   xmlns="http://www.w3.org/2000/svg"
   xmlns:svg="http://www.w3.org/2000/svg">
  <defs
     id="defs1" />
  <path
     id="path1"
     style="fill:#000000;stroke:none;stroke-width:100.058"
     d="M 688.74929,0.43421945 C 666.5978,-0.79643149 643.83062,0.58897122 620.44851,4.5885163 573.68425,12.587673 542.30228,52.275914 526.30398,123.65297 c -11.0757,14.76762 -22.7678,35.07265 -35.07422,60.91602 -7.3839,17.22895 -7.3839,26.76729 0,28.61328 7.3838,1.84592 12.92328,4.61466 16.61523,8.30664 -4.92259,3.69183 -6.7697,7.07572 -5.53906,10.15234 1.23071,3.07662 4.30799,4.61524 9.23047,4.61524 2.46128,0 1.84612,2.15367 -1.8457,6.46094 -3.69191,4.3072 -3.07678,7.69109 1.8457,10.15234 4.92259,2.46134 7.99984,9.846 9.23047,22.15234 1.23065,12.30642 6.45967,18.7672 15.68945,19.38282 9.22978,0.61501 24.92077,0.92187 47.07227,0.92187 l 5.53711,27.68945 c -18.45961,12.30634 -43.07191,18.1524 -73.83789,17.53711 -39.30399,0.78453 -66.97296,21.3893 -98.16602,43.97266 -96.85457,70.12143 -130.91546,90.75034 -149.375,144.89844 -14.76766,103.37356 -13.69067,234.59489 7.23047,325.66211 -3.22,12.07502 -5.17008,24.40652 -6.66016,36.67383 l -28.1582,3.17968 a 35.0035,35.0035 0 0 0 -29.1582,23.36328 L 176.44656,1018.2604 45.223901,978.17446 a 35,35 0 0 0 -13.58789,-1.36524 35,35 0 0 0 -30.1093749,24.61328 35,35 0 0 0 23.2480469,43.6972 l 128.822267,39.3516 -97.218752,281.7207 a 35,35 0 0 0 21.667969,44.5039 35,35 0 0 0 44.501953,-21.668 l 98.03711,-284.0918 63.58789,19.4239 a 35,35 0 0 0 43.69726,-23.2481 35,35 0 0 0 -23.24609,-43.6972 l -61.18945,-18.6914 25.31445,-73.35939 c 16.5678,15.7888 35.09654,10.01869 53.00781,11.0293 2.86285,-1.76176 3.81942,-6.51528 4.19922,-11.36719 1.54161,9.89731 6.58205,14.62369 15.41602,13.74023 3.11378,-11.32269 5.38767,-22.04451 7.0039,-32.29296 a 35,35 0 0 0 11.27344,-29.8086 35,35 0 0 0 -9.83203,-20.39648 c -1.67447,-12.83323 -5.04592,-24.4491 -10.29102,-34.7207 -14.76762,-28.92001 -16.9214,-66.14609 -6.46093,-111.67969 10.46035,-45.53361 11.38208,-108.29756 2.76757,-188.28907 48.50658,-19.57616 77.48736,-76.18778 157.74024,-96.81445 33.72161,75.67172 56.72851,197.28309 56.72851,325.28125 L 459.8489,1247.8444 c -33.22728,194.4409 -57.83966,316.2745 -73.83789,365.5 -18.45958,47.9949 -39.073,75.6846 -61.83984,83.0683 -22.76675,7.3839 -60.60987,22.7664 -113.52735,46.1484 -35.68845,7.3839 -57.22356,19.076 -64.60742,35.0743 -7.38381,15.9981 7.38356,23.3811 44.30273,22.1504 47.99487,0 83.06727,-2.7688 105.21875,-8.3067 22.15148,-5.5377 51.68826,-4.3057 88.60743,3.6934 36.91911,7.9993 54.76377,-4.0013 53.5332,-35.9981 4.92246,-60.3011 28.91978,-133.2169 71.99219,-218.7461 43.07232,-85.5293 62.45375,-149.2149 58.14648,-191.0566 -4.30727,-41.8417 8.92352,-75.6839 39.68945,-101.5273 H 745.9739 c 29.53529,194.4409 47.37997,319.3518 53.5332,374.7304 2.46121,46.7643 -5.23194,78.1442 -23.07617,94.1426 -17.84423,15.9981 -53.22509,26.4601 -106.14258,31.3828 -30.76592,17.2289 -47.07204,30.4576 -48.91797,39.6875 -1.84598,9.2299 8.3075,13.2288 30.45899,11.9981 23.3821,10e-5 50.76325,-0.615 82.14453,-1.8457 31.38122,-1.2307 69.83938,-1.2307 115.37305,0 45.53361,1.2307 60.30103,-12.9218 44.30273,-42.4571 -14.76769,-91.0674 -16.30442,-179.3654 -4.61328,-264.8945 11.69106,-85.5293 4.61489,-166.4443 -21.22852,-242.7441 L 825.3489,967.25844 c 25.84337,-70.14642 24.92178,-136.29427 -2.76758,-198.4414 -27.68937,-62.14727 -4.76804,-185.98471 40.76563,-311.50977 40.76591,58.76249 112.30047,86.9117 156.60355,132.44531 -8.6145,79.9915 -7.6909,142.75349 2.7695,188.28711 10.4605,45.53359 8.3068,82.76164 -6.4609,111.68164 -14.7677,28.91994 -15.3828,67.99148 -1.8457,117.21677 12.3062,1.2307 18.2439,-9.41258 17.4589,-16.37497 0,0 -1.5033,7.99806 9.4024,10.89447 18.7383,5.6568 58.0332,-19.0058 58.0332,-19.0058 0.011,-0.56137 -0.097,-1.15209 -0.092,-1.71484 l 8.3594,1.51953 25.039,87.17381 -60.9004,14.207 a 35,35 0 0 0 -26.1347,42.0371 35,35 0 0 0 42.0371,26.1328 l 64.3476,-15.0117 77.4141,269.5235 a 35,35 0 0 0 43.3027,23.9785 35,35 0 0 0 23.9766,-43.3028 l -76.4375,-266.1211 131.3535,-30.6425 a 35,35 0 0 0 26.1328,-42.0371 35,35 0 0 0 -28.3867,-26.5821 35,35 0 0 0 -13.6504,0.4492 l -134.7988,31.4454 -32.0156,-111.46485 a 35.0035,35.0035 0 0 0 -27.3848,-24.77344 l -54.5254,-9.90625 c -2.0943,-8.05602 -3.8005,-15.56779 -6.0762,-24.10156 20.9211,-91.06722 21.9982,-216.28855 7.2305,-319.66211 -18.4596,-54.14812 -75.451,-105.19132 -153.37305,-160.90039 -53.36932,-38.15549 -69.37801,-70.45118 -118.60351,-70.45118 -49.22552,0 -76.30007,-7.38465 -81.22266,-22.15234 -4.92254,-14.7676 -8.61489,-31.38025 -11.07617,-49.83984 v -1.84766 c 22.15149,-8.6145 43.99506,-25.84216 65.53125,-51.68555 21.53614,-25.84339 31.07454,-60.30267 28.61328,-103.375 C 816.73551,55.351447 795.19842,24.893023 753.35671,11.971329 732.43586,5.5104817 710.90078,1.6648705 688.74929,0.43421945 Z M 666.13601,29.969376 c 16.61359,0.307658 34.91816,2.616574 54.91601,6.923828 39.99572,8.614441 61.2262,31.996685 63.6875,70.146486 2.46128,36.91918 -9.23082,69.22273 -35.07421,96.91211 -25.84339,27.6893 -42.45794,35.99563 -49.8418,24.91992 -9.84507,-12.30642 -4.30562,-29.8426 16.61523,-52.60937 20.92086,-22.76681 25.22828,-44.61039 12.92188,-65.53125 -12.30636,-20.920848 -35.68859,-21.535921 -70.14649,-1.8457 -13.53703,-13.53705 -43.6889,-22.766924 -90.45312,-27.689462 8.6145,-23.382117 26.15065,-38.766585 52.60937,-46.15039 13.22934,-3.691937 28.15203,-5.383831 44.76563,-5.076172 z M 559.53054,103.34633 c 36.91916,0 67.68606,7.99976 92.29883,23.99805 0,14.76763 5.53756,15.07616 16.61328,0.92383 11.07578,-14.15232 22.76788,-18.45978 35.07422,-12.92188 12.30641,5.53788 14.76662,17.22804 7.38281,35.07227 -7.38386,17.84423 -17.53533,32.92017 -30.45703,45.22656 -12.9217,12.30636 -15.38393,24.61352 -7.38477,36.91992 7.99915,12.30633 13.23014,22.76634 15.69141,31.38086 7.3838,72.60762 35.68855,108.91211 84.91406,108.91211 49.22557,0 58.45544,44.91734 27.68946,134.75391 -30.76592,89.83658 -42.45805,168.59812 -35.07422,236.2832 l -171.67383,38.76563 c -4.92255,-143.9847 -17.53622,-239.3588 -37.8418,-286.12305 -20.3055,-46.76423 -35.38142,-79.06977 -45.22656,-96.91406 -9.84507,-17.84424 7.38453,-26.76563 51.6875,-26.76563 45.5336,0 66.14704,-18.1532 61.83984,-54.45703 -4.30724,-36.3038 -20.61324,-50.76271 -48.91797,-43.37891 -28.30466,7.38381 -40.61189,-1.23101 -36.91992,-25.84375 17.2289,-9.84508 23.07503,-16.92125 17.53711,-21.22851 -5.5378,-4.30717 -15.69131,-6.46095 -30.45898,-6.46094 1.23064,-8.61453 -5.53898,-15.38409 -20.30664,-20.30664 11.07576,-31.99661 22.7679,-54.14678 35.07422,-66.45312 13.53705,-6.15318 27.38086,-6.15318 41.5332,0 14.15232,6.15316 28.61317,9.84358 43.38086,11.07421 v -9.22851 c -9.84508,-1.23063 -21.84376,-5.23146 -35.9961,-12 -14.15237,-6.76851 -28.61322,-7.07512 -43.38085,-0.92188 4.92254,-8.6145 9.22996,-15.38411 12.92187,-20.30664 z m 138.2168,17.76758 c -2.92278,-0.4615 -6.53654,0.0769 -10.84375,1.61524 -8.61452,3.07662 -16.30771,10.15281 -23.07618,21.22851 -6.7685,11.07578 -8.9222,19.69057 -6.46093,25.84375 -6.15319,2.46125 -9.84359,6.76871 -11.07422,12.92188 -1.23065,6.15322 1.53818,10.46062 8.30664,12.92187 6.76852,2.46128 15.99839,-2.46118 27.68945,-14.76758 11.69106,-12.30633 19.07377,-23.38337 22.15039,-33.22851 3.07656,-9.84508 3.07656,-17.22785 0,-22.15039 -1.53831,-2.4613 -3.76865,-3.92329 -6.6914,-4.38477 z m -5.07617,12 c 3.23042,0.15381 4.6924,2.22896 4.38476,6.22852 -0.61535,7.99914 -3.99918,15.69229 -10.15234,23.07617 -6.15319,7.38381 -11.69262,12.3063 -16.61524,14.76758 -4.92252,2.46126 -4.92252,-9.7e-4 0,-7.38477 4.92262,-7.38382 4.92262,-9.8441 0,-7.38281 -4.92252,2.46127 -6.15265,0.3076 -3.6914,-6.46094 2.46126,-6.7685 6.15355,-12.61457 11.07617,-17.53711 6.76848,-3.69191 11.76763,-5.46047 14.99805,-5.30664 z m -127.16993,2.65234 c -6.28777,-0.23073 -11.96855,1.26959 -17.04492,4.5 l -11.07617,12.92188 v 9.23047 l 5.53711,-1.84766 c 17.22888,8.61444 36.30376,7.99938 57.22461,-1.8457 l 22.15234,3.69336 -1.8457,-9.23047 -18.46094,-1.8457 c -13.84467,-9.9989 -26.00669,-15.19161 -36.48633,-15.57618 z m -5.9707,8.19141 c -2.46127,4.92255 -1.84618,9.84498 1.8457,14.76758 -4.92252,-2.46131 -9.22801,-4.30647 -12.91992,-5.53711 1.23063,-4.92253 4.92104,-7.99983 11.07422,-9.23047 z m 16.61523,1.8457 18.45899,9.23047 c -7.38382,2.46131 -14.15348,3.69141 -20.30664,3.69141 4.92252,-3.69195 5.53964,-7.99935 1.84765,-12.92188 z m 79.375,33.22852 c 7.38383,3.69191 9.23095,7.07572 5.53907,10.15234 -3.69191,3.07661 -6.46068,3.07661 -8.30664,0 -1.84593,-3.07662 -0.92431,-6.46043 2.76757,-10.15234 z m -113.52539,17.53711 c -1.84592,0.61535 -2.46294,2.15202 -1.84765,4.61328 0.61528,2.46127 -0.30631,4.61495 -2.76758,6.46094 -2.46128,1.84592 -5.23011,0.61576 -8.30664,-3.69141 -3.07663,-4.30726 -5.23031,-6.46094 -6.46094,-6.46094 -1.23065,1.23064 -2.46273,2.46079 -3.69336,3.69141 -1.23063,1.23063 -1.23063,3.07779 0,5.53906 2.46128,-2.46127 5.53856,-1.53961 9.23047,2.76758 3.69191,4.30725 7.69078,5.53928 11.99805,3.69336 4.30723,-1.84599 6.15441,-5.23177 5.53906,-10.1543 -0.61528,-4.92254 -1.84542,-7.07427 -3.69141,-6.45898 z m -20.30664,29.76562 c 1.23064,-0.15384 2.76928,0.0761 4.61524,0.69141 4.92252,1.2307 10.46002,1.8457 16.61328,1.8457 6.15316,0 8.61541,0.61508 7.38476,1.84571 h -27.68945 c -3.69191,0 -4.92399,-0.92159 -3.69336,-2.76758 0.61532,-0.92296 1.5389,-1.46141 2.76953,-1.61524 z m 26.76758,6.23047 c -1.23064,2.46125 -3.69306,4.92181 -7.38476,7.38282 -3.69189,2.46126 -7.99935,3.6914 -12.92188,3.6914 -2.46154,0 -4.00021,-0.30685 -4.61523,-0.92187 -0.61559,-0.61535 -0.3068,-2.15398 0.92382,-4.61524 z m 225.20703,555.63477 c 40.61107,49.22544 42.4562,108.91217 5.53711,179.05859 L 821.65749,1207.233 H 517.07351 l 75.68555,-376.57612 z" />
</svg>
