<?xml version="1.0" encoding="UTF-8" standalone="no"?>
<svg
   xml:space="preserve"
   viewBox="0 0 1640.1064 1798.3188"
   y="0px"
   x="0px"
   id="Ebene_1"
   version="1.1"
   sodipodi:docname="US9A25VARA.svg"
   width="1640.1064"
   height="1798.3188"
   inkscape:version="1.2.2 (732a01da63, 2022-12-09)"
   xmlns:inkscape="http://www.inkscape.org/namespaces/inkscape"
   xmlns:sodipodi="http://sodipodi.sourceforge.net/DTD/sodipodi-0.dtd"
   xmlns="http://www.w3.org/2000/svg"
   xmlns:svg="http://www.w3.org/2000/svg"
   xmlns:rdf="http://www.w3.org/1999/02/22-rdf-syntax-ns#"
   xmlns:cc="http://creativecommons.org/ns#"
   xmlns:dc="http://purl.org/dc/elements/1.1/"><sodipodi:namedview
     id="namedview1092"
     pagecolor="#ffffff"
     bordercolor="#000000"
     borderopacity="0.25"
     inkscape:showpageshadow="2"
     inkscape:pageopacity="0.0"
     inkscape:pagecheckerboard="0"
     inkscape:deskcolor="#d1d1d1"
     showgrid="false"
     inkscape:zoom="0.2799099"
     inkscape:cx="630.56005"
     inkscape:cy="543.03189"
     inkscape:window-width="1920"
     inkscape:window-height="1137"
     inkscape:window-x="-8"
     inkscape:window-y="-8"
     inkscape:window-maximized="1"
     inkscape:current-layer="Ebene_1" /><metadata
     id="metadata150"><rdf:RDF><cc:Work
         rdf:about=""><dc:format>image/svg+xml</dc:format><dc:type
           rdf:resource="http://purl.org/dc/dcmitype/StillImage" /></cc:Work></rdf:RDF></metadata><defs
     id="defs148" /><style
     id="style137"
     type="text/css">
	.st0{fill:#010101;}
</style><path
     id="XMLID_2_"
     class="st0"
     d="M 104.08984 3.7949219 C 69.322351 22.952891 39.630344 51.519063 20.783203 86.601562 C 3.5345907 118.16629 -4.9799517 156.03231 3.9433594 191.33984 C 11.113382 215.49185 21.29141 238.74402 31.662109 261.63281 C 51.52841 304.30653 80.898766 343.16681 119.69727 370.25781 C 142.55433 386.46902 168.36847 398.26289 195.17383 406.49219 C 200.34136 408.91429 200.05491 415.85131 202.87109 420.26367 C 236.31672 501.04113 270.77241 581.43972 301.86523 663.14062 C 300.42576 663.32182 298.9893 663.48733 297.54492 663.69727 L 298.88867 666.18555 C 298.18016 672.38603 301.71745 677.90716 309.35352 682.69141 C 310.26552 685.14173 311.25336 687.56253 312.1582 690.01562 C 315.79954 695.25209 306.74881 689.80181 304.46875 689.43945 C 268.08037 676.65653 231.52252 664.55199 195.52148 650.62891 C 192.84212 670.88231 190.13898 691.23413 187.55664 711.51172 C 224.96577 727.64099 267.0733 734.42962 300.31641 759.41406 C 328.8056 784.0377 341.4168 820.67531 358.09961 853.38281 C 362.13063 861.18991 366.04062 869.0706 369.97461 876.85352 C 392.20944 867.86568 414.54175 858.90127 436.80078 849.81641 C 424.85693 820.47916 412.62033 791.2492 400.3457 762.03125 C 413.34014 759.99917 427.41227 755.24284 442.58594 747.67969 C 467.57233 745.43089 506.09852 754.11123 557.94531 773.75781 C 609.79211 793.40439 666.69778 794.00127 728.53711 775.61719 L 727.82031 774.16406 C 728.34762 774.00681 729.26909 773.81525 729.77344 773.66016 C 793.07324 714.36034 864.13296 608.80763 914.13281 549.50781 C 920.8328 532.80787 936.43282 525.80783 961.13281 528.50781 C 1117.1324 653.20745 1202.1328 760.80808 1216.1328 851.50781 C 1137.4331 1072.2072 1095.8328 1199.2078 1091.1328 1232.5078 C 1102.4328 1253.2078 1108.1328 1275.8078 1108.1328 1300.5078 C 1108.1328 1335.2078 1090.1328 1406.8081 1054.1328 1515.5078 C 1033.4328 1606.2075 1001.8328 1664.2078 959.13281 1689.5078 C 916.43296 1714.2078 876.13269 1727.2078 838.13281 1728.5078 C 800.13293 1729.8078 772.83277 1748.5078 756.13281 1784.5078 C 754.83281 1788.5078 770.83292 1792.5078 804.13281 1796.5078 C 849.49862 1796.5078 887.4654 1796.9879 940.62695 1791.0215 C 957.32683 1781.0215 983.63283 1780.7195 1001.6328 1796.0195 C 1018.9328 1797.3195 1036.3328 1797.0195 1053.6328 1795.0195 C 1070.9328 1793.0195 1075.8328 1748.8116 1065.1328 1689.5117 C 1198.4325 1476.8123 1250.8328 1329.8114 1222.1328 1248.5117 L 1404.1328 1248.5117 C 1401.4328 1274.5117 1408.1328 1302.2117 1424.1328 1331.5117 C 1449.4328 1429.5114 1466.1328 1514.212 1474.1328 1585.5117 C 1484.1328 1658.8114 1468.8328 1703.5117 1428.1328 1719.5117 C 1387.4331 1734.8117 1353.1328 1743.5117 1325.1328 1745.5117 C 1303.1328 1748.2117 1285.1328 1763.8117 1271.1328 1792.5117 C 1330.4277 1801.0673 1399.1388 1799.3969 1466.6406 1792.5117 C 1492.6406 1784.5117 1510.9387 1788.2137 1527.6387 1797.5137 C 1586.3384 1802.8137 1589.8328 1744.2075 1553.1328 1639.5078 C 1561.1328 1460.2084 1551.4328 1327.8075 1524.1328 1242.5078 C 1522.8328 1203.808 1518.4835 1113.2234 1512.1328 970.50781 C 1505.7835 827.82336 1473.4328 732.50766 1414.1328 684.50781 C 1408.8328 601.20807 1391.4328 530.80765 1362.1328 473.50781 C 1346.1328 440.20792 1351.1328 438.5079 1377.1328 468.50781 C 1411.8328 529.20763 1451.1331 586.50798 1495.1328 640.50781 C 1497.8328 684.50769 1506.8328 725.20793 1522.1328 762.50781 C 1536.8328 812.50766 1545.8328 865.50799 1549.1328 921.50781 C 1544.4328 960.20769 1550.4328 997.50795 1567.1328 1033.5078 L 1569.1328 1031.5078 C 1576.4328 1030.2078 1581.1328 1023.5078 1583.1328 1011.5078 C 1585.1328 1000.2078 1603.1328 982.80775 1637.1328 959.50781 C 1645.8328 931.5079 1635.4328 901.80772 1606.1328 870.50781 C 1596.8328 847.20789 1594.1328 807.80765 1598.1328 752.50781 C 1602.1328 697.20799 1586.4328 642.50766 1551.1328 588.50781 C 1459.8331 401.20838 1378.4325 313.50784 1307.1328 325.50781 C 1235.1331 336.80778 1188.8328 337.80778 1168.1328 328.50781 C 1147.4328 318.50784 1129.4328 303.20775 1114.1328 282.50781 C 1140.1328 264.50787 1161.1328 241.20772 1177.1328 212.50781 C 1193.1328 183.8079 1193.1328 145.50766 1177.1328 97.507812 C 1161.1328 50.207955 1128.4328 24.807804 1079.1328 21.507812 C 1066.8078 20.682815 1054.6625 20.601953 1042.7031 21.267578 C 1006.8251 23.264454 972.60779 31.98286 940.13281 47.507812 C 893.43297 66.807756 867.4328 110.80802 862.13281 179.50781 C 863.43281 197.50775 860.4328 215.80787 853.13281 234.50781 C 845.13284 253.20775 841.83281 271.50787 843.13281 289.50781 C 845.83281 300.20778 853.13284 304.20781 865.13281 301.50781 C 877.13278 298.80783 880.8328 300.80784 876.13281 307.50781 C 872.13283 311.50781 871.13281 315.50783 873.13281 319.50781 C 875.13281 322.80781 877.43283 323.80781 880.13281 322.50781 C 874.83283 330.50778 876.43284 334.80781 885.13281 335.50781 C 893.13278 336.20781 896.43281 340.20784 895.13281 347.50781 C 893.83281 355.50778 896.43284 363.80784 903.13281 372.50781 C 910.4328 381.80778 929.13291 381.50778 959.13281 371.50781 L 1000.1328 355.50781 C 1004.8328 362.2078 1011.8328 371.20784 1021.1328 382.50781 L 1009.1328 386.50781 C 916.43304 408.50775 857.83274 442.20796 833.13281 487.50781 C 794.43293 532.80768 762.6745 597.3451 723.97461 654.04492 C 715.39638 673.68419 703.07158 690.96409 695.37305 705.01953 C 695.35875 706.31085 695.22974 706.88325 695.19336 708.04102 L 694.72266 707.08594 C 651.78802 697.09098 610.21323 694.0775 570.0957 698.07227 C 517.98012 697.8604 464.61871 691.32812 410.01367 678.47656 C 393.53145 671.29593 376.67953 666.41163 359.45703 663.75977 C 344.97594 628.50225 330.73078 593.15292 317.4082 557.44336 C 312.49273 544.26803 406.43869 407.62072 362.97852 377.4707 C 351.89493 398.61514 300.34361 516.27429 296.94531 508.11523 C 284.67296 478.65028 272.32052 449.2207 259.86523 419.83984 C 228.38716 347.68116 211.67606 270.44345 185.72656 196.36523 C 178.12186 175.19669 169.33046 154.24783 158.35547 134.60938 C 149.17956 121.80929 131.91028 122.03854 117.8418 119.76758 C 110.56511 118.77777 103.45726 117.52051 96.277344 116.14258 C 95.651984 124.43769 105.01559 126.97884 109.62695 132.04492 C 122.36642 142.12636 135.81118 153.51681 139.84766 169.98242 C 160.54561 223.78798 174.25987 279.9757 190.78711 335.21484 C 162.57938 333.85019 139.57474 314.50947 121.22656 294.68164 C 88.146818 259.53486 62.386981 217.76274 43.5625 173.39062 C 35.567338 148.41452 45.518374 121.729 58.650391 100.47461 C 75.004414 73.324592 99.440041 52.621559 123.58398 32.669922 L 123.36523 31.892578 C 116.93216 22.55902 110.52292 13.12848 104.08984 3.7949219 z M 1071.5801 52.316406 C 1110.3875 54.307025 1135.8828 73.370427 1148.1328 109.50781 C 1162.8328 150.80769 1159.4328 186.2079 1138.1328 215.50781 C 1116.8328 245.50772 1095.8328 261.20781 1075.1328 262.50781 C 1063.8328 257.80783 1059.4328 251.50778 1062.1328 243.50781 C 1074.8328 236.80784 1078.4328 224.50775 1073.1328 206.50781 C 1082.4328 185.80787 1084.4328 169.20778 1079.1328 156.50781 C 1075.1328 135.80787 1062.1328 128.20784 1040.1328 133.50781 C 1030.1328 138.20781 1023.8328 143.80784 1021.1328 150.50781 C 969.13299 132.50787 927.13272 130.50786 895.13281 144.50781 C 901.8328 116.5079 918.13291 95.207769 944.13281 80.507812 C 969.43282 65.20786 1006.1331 55.807804 1054.1328 52.507812 C 1060.2203 52.095314 1066.0361 52.032034 1071.5801 52.316406 z M 1044.1328 150.50781 C 1054.8328 149.20781 1061.8328 153.80784 1065.1328 164.50781 C 1069.1328 177.20778 1066.1328 192.50787 1056.1328 210.50781 C 1058.8328 223.20778 1056.1328 229.80781 1048.1328 230.50781 C 1040.1328 231.20781 1036.1328 227.20778 1036.1328 218.50781 C 1031.4328 225.8078 1032.1328 238.50787 1038.1328 256.50781 C 1043.4328 275.20775 1053.1328 288.50784 1067.1328 296.50781 C 1080.4328 303.8078 1097.8328 317.20787 1119.1328 336.50781 C 1140.4328 355.80775 1166.1328 366.80783 1196.1328 369.50781 C 1225.4328 372.20781 1254.1328 371.50781 1282.1328 367.50781 C 1300.1328 417.50766 1319.1328 465.50796 1339.1328 511.50781 C 1359.1328 557.50768 1371.8328 621.20805 1377.1328 702.50781 L 1255.1328 791.50781 C 1169.8331 656.20823 1104.1328 573.50772 1058.1328 543.50781 C 1011.4331 511.5079 977.83282 486.50775 957.13281 468.50781 C 959.83281 442.5079 986.13299 424.20778 1036.1328 413.50781 C 1063.4328 406.20784 1067.8328 394.80777 1049.1328 379.50781 C 1030.4328 363.50787 1020.4328 348.50778 1019.1328 334.50781 C 1008.4328 329.20784 994.83279 330.50784 978.13281 338.50781 C 948.83282 351.20778 931.1328 355.50781 925.13281 351.50781 C 919.13284 346.80783 914.83281 339.20778 912.13281 328.50781 L 930.13281 318.50781 C 934.13281 312.50784 934.13281 307.50781 930.13281 303.50781 L 899.13281 305.50781 C 901.83281 288.80787 897.83278 279.80781 887.13281 278.50781 C 875.83284 281.20781 869.43281 279.2078 868.13281 272.50781 C 866.83281 264.50784 870.13284 251.50775 878.13281 233.50781 C 884.1328 215.50787 892.43284 202.50778 903.13281 194.50781 C 914.43278 187.20784 927.43287 184.80783 942.13281 187.50781 C 956.13279 190.20781 970.13285 190.80781 984.13281 189.50781 L 986.13281 179.50781 C 973.43285 180.80781 959.83279 180.20781 945.13281 177.50781 C 919.8329 172.20784 900.43278 176.80786 887.13281 191.50781 C 887.13281 183.50784 887.83281 176.2078 889.13281 169.50781 C 921.83272 154.20787 963.83299 156.20787 1015.1328 175.50781 L 1013.1328 189.50781 C 1018.4328 190.80781 1023.8328 190.80781 1029.1328 189.50781 C 1030.4328 166.20789 1035.4328 153.20781 1044.1328 150.50781 z M 931.80273 196.89648 C 929.01525 197.14492 926.45781 197.68281 924.13281 198.50781 C 914.13284 199.80781 907.43281 202.80783 904.13281 207.50781 C 900.83283 212.20781 897.13281 215.80783 893.13281 218.50781 L 895.13281 222.50781 L 905.13281 220.50781 C 920.43277 231.80778 939.83282 229.20777 963.13281 212.50781 L 980.13281 210.50781 L 978.13281 198.50781 L 963.13281 202.50781 C 950.6078 198.00783 940.1652 196.15119 931.80273 196.89648 z M 1404.1328 741.50781 C 1452.1328 770.80772 1473.4328 917.80863 1468.1328 1182.5078 L 1162.1328 1182.5078 C 1196.1328 1079.2081 1229.1328 964.80744 1261.1328 839.50781 L 1404.1328 741.50781 z " /></svg>
