<?xml version="1.0" encoding="utf-8"?>
<!-- Generator: Adobe Illustrator 25.2.3, SVG Export Plug-In . SVG Version: 6.00 Build 0)  -->
<svg version="1.1" id="Ebene_1" xmlns="http://www.w3.org/2000/svg" xmlns:xlink="http://www.w3.org/1999/xlink" x="0px" y="0px"
	 viewBox="0 0 1800 1800" style="enable-background:new 0 0 1800 1800;" xml:space="preserve">
<g>
	<path d="M982.51,490.57c-37.41,102.15-54.67,233.79-51.79,394.93c23.02,69.06,34.53,132.36,34.53,189.91
		c0,57.55-38.85,118.69-116.54,183.44c-23.02,67.62-50,128.41-80.93,182.36s-39.21,80.93-24.82,80.93
		c15.83,0,34.17-24.82,55.03-74.45c20.86-49.64,74.81-98.19,161.86-145.67c87.04-47.48,134.52-89.2,142.43-125.17
		c7.91-35.97,25.18-51.79,51.79-47.48c26.62,4.32,49.28,14.39,67.98,30.21c14.39-57.55,28.06-99.27,41-125.17
		c-30.21-158.26-40.28-266.16-30.21-323.71C1123.5,620.06,1040.05,546.68,982.51,490.57z M1329.96,1245.9l-8.63,10.79l43.16,6.47
		h2.16v-4.32L1329.96,1245.9z M619.36,40.49L714.9,324.4c-109.34,0-151.79,25.54-127.33,76.61c24.46,51.07,29.49,96.39,15.11,135.96
		s-14.75,131.28-1.08,275.16c13.67,143.87,7.55,276.6-18.34,398.17c-25.9,121.57-31.65,232.35-17.26,332.35
		c14.39,99.99,31.29,158.98,50.72,176.96c19.42,17.98,51.43,25.54,96.03,22.66c44.6-2.88,87.04-27.7,127.33-74.45
		s101.43-129.13,183.44-247.1c82.01-117.98,151.79-176.24,209.33-174.81l19.42-30.21c-70.5-38.85-106.47-49.64-107.9-32.37
		c-1.44,17.26-10.79,37.77-28.06,61.51s-65.46,58.63-144.59,104.67s-129.49,96.39-151.07,151.07
		c-21.58,54.67-58.99,82.01-112.22,82.01c-50.36,0-17.98-119.41,97.11-358.24c66.18-50.36,99.27-99.99,99.27-148.91
		c0-47.48-10.07-99.99-30.21-157.54c-7.19-198.54,14.39-357.52,64.74-476.94h56.11c76.25,80.57,169.77,165.45,280.55,254.65
		c-11.51,69.06-4.32,184.88,21.58,347.45c-18.7,30.21-33.09,74.09-43.16,131.64c35.97,18.7,27.34,58.99-25.9,120.85
		c25.9,4.32,47.84-13.31,65.82-52.87c17.98-39.56,24.82-88.84,20.5-147.83c10.07-80.57,17.62-157.18,22.66-229.84
		c5.04-72.66,1.08-141.35-11.87-206.1c-33.09-37.41-87.4-90.64-162.94-159.7c-75.53-69.06-130.56-115.82-165.09-140.28
		c-34.53-24.46-71.94-36.69-112.22-36.69c-41.72,0-151.66-234.27-177.55-281.75H619.36z M554.61,1.64h200.7H554.61h200.7
		c12.95,46.04,117.13,279.59,160.29,279.59s81.65,14.39,115.46,43.16c33.81,28.77,95.68,85.6,185.6,170.49
		c89.92,84.88,139.92,141.71,149.99,170.49c21.58,38.85,22.3,120.49,2.16,244.94c-20.14,124.45-28.41,202.5-24.82,234.15
		c3.6,31.65,3.24,56.11-1.08,73.38l110.06,45.32c1.44,17.26-9.35,28.77-32.37,34.53c-21.58,0-60.43-4.32-116.54-12.95
		c-14.39,15.83-31.65,30.93-51.79,45.32l-53.95-15.11l21.58-41c-64.74,43.16-146.03,141.35-243.86,294.58
		s-179.84,229.84-246.02,229.84c-64.74,0-112.94-8.27-144.59-24.82s-57.55-84.17-77.69-202.86
		c-20.14-118.69-15.83-238.83,12.95-360.4C549.45,1088.72,557,956,543.33,812.13s-12.23-235.59,4.32-275.16s9.35-91-21.58-154.3
		s11.87-95.68,128.41-97.11C641.53,266.85,557.49,31.86,554.61,1.64z"/>
</g>
<g>
	<path d="M572,328.44l-4.7-1.94c-18.42-7.61-42.43-17.48-67.85-27.92C461.55,283,418.61,265.36,386,251.82
		c-17.78-7.38-30.91-12.88-40.16-16.82c-5.23-2.23-9.11-3.92-11.85-5.15c-1.67-0.75-2.9-1.33-3.88-1.81
		c-6.54-3.25-11.01-9.53-13.62-15.99c-3.13-7.75-2.62-16.49,1.25-23.9l22.49-42.93l-86.84-70.77l13.64-18.67
		c5.21-7.12,18.18-24.43,26.21-31.31l14.6-12.51l15.57,11.28c12.51,9.07,51.02,40.22,99.78,79.65
		c79.44,64.25,188.24,152.24,228.39,179.77l62.64,42.95L572,328.44z M372.18,193.24c32.41,13.66,96,39.79,145.79,60.25
		c10.73,4.41,21.2,8.71,31.12,12.79c-46.78-36.73-104.05-83.04-154.33-123.69L372.18,193.24z"/>
</g>
</svg>
