<?xml version="1.0" encoding="UTF-8" standalone="no"?>
<svg
   width="1104.8098"
   height="1796.2463"
   version="1.1"
   id="svg1203"
   xml:space="preserve"
   xmlns="http://www.w3.org/2000/svg"
   xmlns:svg="http://www.w3.org/2000/svg"><defs
     id="defs1207" /><path
     id="path2369"
     style="color:#000000;display:inline;opacity:1;fill:#000000;-inkscape-stroke:none"
     d="M 702.22023,0.00806907 C 618.5615,-0.35779653 561.0437,11.493226 519.3901,81.644807 c 3.61338,10.367719 0.59166,22.530353 -2.88276,30.390603 -6.0337,13.19983 -11.53826,21.57164 -15.17383,33.03516 -6.43147,23.57663 -7.80424,48.41209 -16.48046,70.88086 -4.17118,10.19673 -17.41207,30.63289 -29.23047,46.79687 -14.57677,19.06748 -20.98464,21.98189 -24.92383,43.94922 8.24553,15.11682 38.68555,32.87305 38.68555,32.87305 -6.28957,9.33653 -12.39967,22.24249 -9.9043,31.86328 2.49537,9.62079 9.6381,15.45241 15.58008,21.76563 -3.40708,5.70335 -9.41004,23.43449 -4.3125,32.26367 5.09752,8.82918 12.23754,6.80272 18.81836,10.30859 -8.02353,49.7889 -30.59175,103.31303 -44.47043,148.90172 2.62612,11.90807 11.07742,10.86902 27.78907,7.67969 58.89914,-11.23371 132.06122,-77.60397 168.12276,-109.40172 9.48172,24.3554 10.30716,47.80668 23.03998,78.30508 C 559.72097,812.87587 523.24698,1057.2997 488.24562,1282.3011 L 206.5425,869.42408 C 182.19945,833.74574 108.39668,804.69873 66.597183,828.61158 9.3482959,861.36279 -12.080586,922.46705 6.5561677,976.94362 147.04835,1395.5532 215.14408,1619.1978 210.84328,1647.8694 c -4.30079,32.9728 -25.44728,60.5704 -63.4375,82.7911 -37.99024,22.2206 -47.666045,44.0819 -29.0293,65.5859 h 853.70899 c 28.67183,-14.336 28.67183,-34.4064 0,-60.2109 -74.54719,-90.3166 -98.5606,-177.4083 -72.03906,-261.2735 26.52151,-83.8651 89.85015,-268.0732 80.88281,-562.50784 C 968.1225,491.7571 896.98845,513.2599 896.98845,513.2599 c 16.92168,34.77235 106.39495,-3.4915 149.53835,-37.08972 31.2148,-25.28404 54.4625,-63.80044 57.875,-105.24414 4.2571,-51.7001 -25.7685,-95.02193 -45,-131.4707 -15.0542,-28.53227 -45.2731,-66.4946 -60.71672,-85.21485 6.02392,-4.30792 -1.68446,-7.5133 5.46872,-10.57722 -1.2719,-19.67835 -8.25782,-49.375685 -11.04202,-68.730228 -16.4135,0.143832 -13.4986,-2.244735 -24.62343,-4.566776 C 963.76917,58.272211 945.20976,40.694199 936.18508,34.763929 876.70726,-2.588154 805.45649,3.1534276 739.53859,0.83424087 726.6057,0.37922367 714.17148,0.06033557 702.22023,0.00806907 Z M 742.20265,47.066663 c 41.4362,0.401442 170.51731,2.038702 180.39063,29.697266 L 561.05812,87.261976 C 588.97442,54.009509 685.2558,46.514952 742.20265,47.066663 Z M 920.80226,106.1194 c 16.48866,0.20601 32.8986,0.75319 49.24024,1.75195 0.76693,7.28409 0.95264,9.48964 -0.0117,16.46094 l -426.21674,10.88086 c 0.31977,-9.02704 0.66254,-9.41299 2.33422,-20.92967 127.15292,4.90433 259.2334,-9.60618 374.654,-8.16408 z m -31.76953,49.42968 c 38.22243,-0.3722 63.21731,0.5896 61.97657,4.09766 24.11225,32.54849 53.9277,63.72825 73.0136,98.47461 20.5455,38.93912 43.2516,76.27288 40.5137,109.52344 -2.2985,27.9142 -20.3243,58.92418 -43.1875,77.44336 -68.73558,33.94785 -173.95202,26.77831 -205.47322,-38.93908 -4.73863,-13.26676 -10.92992,-35.20181 -14.88036,-58.23802 19.99644,-17.38501 21.85942,-34.96477 34.31065,-61.24868 13.0557,-25.31466 27.28057,-65.51219 11.88086,-89.20703 -30.67385,-39.31136 -79.56525,-41.97454 -113.89258,-11.28516 -28.20812,26.41507 -12.32208,59.30304 0.73633,83.69336 1.63338,2.72036 3.26572,5.44135 4.89844,8.16211 -1.86057,2.43415 -3.97669,5.22904 -6.34375,8.69531 -25.69078,39.62672 -14.87116,84.31011 34.15625,73.69336 1.40769,17.78547 2.34933,41.63467 11.34179,62.42187 9.89038,19.03098 21.75754,33.43838 35.73633,48.67774 -17.52194,12.39206 -41.32711,24.8607 -64.56445,32.56641 -23.4547,7.77777 -45.93442,9.75573 -59.80078,6.61132 l -34.75196,-85.08008 c -54.2934,36.44034 -102.26489,102.81133 -153.61885,114.80016 9.60154,-39.49606 17.13082,-74.73843 17.68917,-112.46031 15.59698,-3.98199 51.24783,-31.55544 55.35937,-30.3125 7.98077,2.41261 8.02959,-26.18534 -1.33398,-24.27344 -6.77663,1.38368 -68.14639,-25.51957 -74.83008,-27.32812 -0.80256,-5.63539 -0.0527,-9.18748 -0.95313,-14.26758 l 8.31055,-3.32422 c 2.31101,1.457 5.18375,3.21794 8.5586,5.04101 7.38631,3.99013 15.63387,8.74152 26.06054,8.16797 10.84089,-0.59632 23.8823,-4.70515 29.81641,-17.44531 4.32637,-11.12962 -4.17169,-23.82296 -10.31445,-28.83398 -11.44509,-9.33645 -30.32032,-18.99024 -30.32032,-18.99024 -21.63255,-4.56493 21.89192,21.15894 21.09766,33.97266 3.17444,8.17141 -5.49259,12.44749 -11.37695,11.32617 -11.56243,-2.20333 -22.98886,-8.0563 -32.11328,-14.27539 l -17.77735,6.04297 c -4.21389,-4.23469 -11.93015,-10.38973 -12.97851,-11.35742 16.11841,-21.91028 35.90114,-47.24363 45.89843,-70.99805 3.14477,-7.68759 5.81316,-16.60124 8.18946,-25.63867 l 2.8125,6.92383 c 15.65588,-5.11612 30.41103,-12.69664 48.24218,-13.85352 41.3609,0.76175 68.15819,5.53784 97.26953,30.94336 26.61139,26.61607 36.68338,5.69133 13.19922,-15.02539 -29.69533,-27.6739 -76.2292,-37.30391 -111.47265,-35.89258 -17.00077,1.87397 -31.6071,6.63696 -46.54688,12.16016 2.64289,-11.96452 4.49644,-21.85707 5.56641,-28.52149 1.51673,7.59723 235.2292,-5.52596 349.89648,-6.64258 z m -96.0957,29.81446 c 16.52394,1.40133 31.6628,9.32114 37.84375,23.53125 10.70784,27.41405 -3.09003,47.34606 -13.49609,69.0957 -8.61609,17.90629 -20.52323,38.6402 -29.97071,47.91797 -8.27744,8.12875 -19.20539,14.59709 -29.1875,15.75391 -31.24561,3.6655 -20.51675,-26.47426 -9.02539,-43.66211 4.26118,-6.44676 9.21736,-12.36725 14.16602,-18.28321 -4.42248,-7.6761 -9.42509,-15.02464 -13.44531,-22.92382 1.19898,-1.43419 4.25889,-4.97844 8.10351,-8.53516 10.01641,-10.59435 27.59321,-2.37801 27.94727,8.56055 0.85638,26.45771 -13.17742,46.48557 -28.88282,60.3164 -5.34459,9.23158 -2.15793,15.34037 8.53125,7.56641 21.08571,-10.06801 41.70446,-50.65236 54.02149,-75.74805 7.51125,-15.30401 5.02595,-35.73845 -3.95899,-43.35937 -12.3298,-10.45804 -31.7936,-12.43131 -46.85742,-8.74024 -12.35629,3.02767 -25.68098,23.60757 -28.60937,40.86524 -9.23601,-13.98445 -3.64953,-25.85995 6.66211,-36.77735 11.72504,-11.86233 29.63426,-16.97946 46.1582,-15.57812 z m -12.80273,26.44531 c 3.09563,-0.0262 6.72992,0.56629 11.15234,1.89453 21.01469,6.3116 12.27942,31.45529 10.84766,32.27344 -8.74104,-16.69058 -25.82384,-18.6406 -42.02735,-20.40625 6.30465,-8.03825 10.74045,-13.68308 20.02735,-13.76172 z m -186.5293,9.77539 c -27.50362,3.54684 -46.64206,12.49013 -56.67383,36.2832 21.78901,7.80533 45.35238,15.34976 64.61524,15.08399 16.54542,-0.51198 53.57617,-7.00586 53.57617,-7.00586 12.60533,-3.6431 12.04908,-8.8593 4.05273,-18.06445 -19.93974,-13.87947 -42.18508,-24.74297 -65.57031,-26.29688 z m -0.56836,18.99024 c 7.12923,0.26919 18.43839,2.53585 30.86328,9.21875 -3.46632,1.06544 -16.06523,2.90626 -22.97266,3.16796 -9.22592,0.28549 -28.75113,0.0168 -37.80273,-2.40625 8.50472,-10.09187 22.25485,-9.7027 29.91211,-9.98046 z M 490.98586,361.78737 c 21.99554,5.63823 48.71694,16.03883 58.89062,21.79882 1.26039,2.08038 -39.48025,-2.37831 -53.84961,-3.48242 -4.27078,-1.77795 -10.43627,-5.39621 -12.71093,-9.3457 1.35278,-4.56928 4.41249,-6.83044 7.66992,-8.9707 z M 550.98,393.79908 c 2.5909,0 -43.28928,22.70228 -55.82227,20.0879 -5.18668,-4.63795 -7.01527,-14.52235 -3.22656,-19.72657 19.80327,1.22663 39.00022,-0.94283 59.04883,-0.36133 z m 297.27907,143.91809 c 129.63234,294.49958 46.88899,716.36653 -19.4684,962.13133 -22.93764,86.0158 -1.49823,164.5074 52.97839,218.9838 H 245.24953 c 15.76948,-15.7695 26.16397,-41.9314 31.18164,-78.4883 5.01759,-36.5565 -11.82812,-99.9942 -50.53516,-190.3105 L 64.616715,964.04127 C 46.615459,891.02405 110.42888,859.45173 165.68508,918.88307 l 217.18945,326.86133 83.86719,103.2188 c 43.00779,28.6721 76.92225,36.414 89.82458,-22.3634 21.64196,-270.7246 53.72649,-514.07637 162.44419,-762.39282 22.19569,-11.80231 81.291,-8.13801 129.24858,-26.48981 z" /></svg>
