<?xml version="1.0" encoding="UTF-8" standalone="no"?>
<svg
   width="1797.981"
   height="1798.5914"
   version="1.1"
   id="svg1"
   xmlns="http://www.w3.org/2000/svg"
   xmlns:svg="http://www.w3.org/2000/svg">
  <defs
     id="defs1" />
  <path
     id="path1"
     style="fill:#000000;stroke:none;stroke-width:100.094"
     d="m 1187.4459,0 260.8105,397.14453 4.9108,164.01048 H 983.06363 C 977.69794,506.35884 977.51939,499.25782 961.48688,478.18945 945.94555,449.27694 877.83325,397.68948 767.82867,321.74023 657.82402,245.7909 595.47194,196.03736 580.77594,172.48047 566.07984,148.92361 523.53985,142.70083 453.15289,153.81055 382.76594,164.92026 338.15061,140.59675 319.30914,80.839844 L 101.26227,115.25586 c 14.41318,41.6366 31.48506,70.30654 51.21484,86.01172 -134.170168,24.31357 -179.794109,65.62488 -136.873052,123.93359 42.921158,58.30871 58.904308,109.89152 47.949219,154.74805 -10.955089,44.85652 2.85081,142.26321 41.417973,292.21875 38.56726,149.95552 52.43109,292.44113 41.5918,427.45503 -10.83939,135.014 4.41446,263.9484 45.76172,386.8047 41.34705,122.8563 80.6242,190.3666 117.83007,202.5293 37.20582,12.1625 90.23701,12.8096 159.09375,1.9414 70.38694,-11.1098 144.74533,-106.356 223.07422,-285.7402 78.32891,-179.3839 147.41227,-298.1086 207.25196,-356.1699 l -13.41211,49.166 59.55468,4.7148 c 17.71831,-16.911 32.78027,-35.7561 45.1836,-56.5332 62.65506,-0.4797 105.45776,-2.5296 128.41016,-6.1523 23.7578,-8.4547 32.6577,-21.6231 26.6992,-39.502 l -122.3691,-30.0859 c 1.4507,-20.6166 -1.0496,-54.7632 -10.0675,-87.05754 l 436.2452,0.0409 -1.5625,814.4404 h 88.9141 l 1.5625,-1106.53122 1.9746,-98.79297 h -1.9746 L 1537.1705,397.14453 1797.981,0 h -81.0098 L 1491.7252,349.72461 1266.4791,0 Z M 285.24078,133.26562 c 30.59968,54.76457 76.50291,77.31493 137.70899,67.6543 67.08515,-12.15679 108.94135,-7.7842 125.57031,13.11524 16.62901,20.89931 70.90641,61.73239 162.83203,122.5 91.92571,60.7677 163.19986,107.54505 203.14258,142.01562 25.92823,64.91154 37.03442,137.65027 43.99609,216.5332 6.96177,78.88301 11.8503,162.01546 14.66406,249.39454 14.49265,62.01158 15.49498,115.56588 3.00977,160.66408 -12.48524,45.098 -32.98145,66.7616 -61.49023,64.9883 46.47192,-73.2024 48.8908,-117.4969 7.25585,-132.8809 C 923.22219,975.88325 930.39152,926.91888 943.44,890.35742 888.84752,723.32775 862.52045,601.23697 864.45758,524.08594 731.90349,449.34352 617.55002,375.64867 521.39703,303.00195 l -57.38086,9.05664 c -35.03956,135.69712 -31.30492,308.40343 11.20508,518.11524 30.84116,56.29452 50.3666,110.45342 58.57813,162.47851 8.21151,52.02516 -18.64814,110.37016 -80.58204,175.03516 -83.85068,273.5678 -98.99872,406.1269 -45.44336,397.6738 56.61558,-8.9361 92.19272,-44.349 106.73243,-106.2383 14.53977,-61.889 59.581,-124.2812 135.125,-187.1738 75.54399,-62.8925 120.56493,-108.0275 135.0625,-135.4082 14.49755,-27.3806 21.44483,-50.4342 20.84179,-69.1582 -0.60287,-18.724 38.96089,-13.9899 118.6875,14.2012 l -12.92968,37.3262 c -61.68905,6.6002 -126.56246,79.9632 -194.6211,220.0878 -68.05868,140.1245 -119.58514,238.4334 -154.58008,294.9258 -34.995,56.4924 -75.9683,90.0115 -122.91992,100.5586 -46.95166,10.5473 -81.88402,7.829 -104.79492,-8.1582 -22.91089,-15.9871 -50.40933,-75.9466 -82.49609,-179.8769 -32.08687,-103.9304 -44.62337,-223.1017 -37.60938,-357.5118 7.01379,-134.4102 -8.76292,-276.59326 -47.33008,-426.54878 C 128.37479,612.43117 113.42083,515.20517 122.08062,470.71094 130.74042,426.21669 117.95899,380.01124 83.734918,332.0918 49.510852,284.17237 97.429862,249.94678 227.49273,229.41797 192.62347,197.28318 172.85394,171.39067 168.18414,151.74023 Z m 233.01172,224.3379 c 69.09496,50.25679 170.16023,114.28707 303.19727,192.08984 -2.82206,61.60801 25.88337,173.91481 86.11328,336.91797 -9.18251,31.24655 -16.59539,78.67963 -22.23633,142.30077 -22.54868,-13.692 -48.39968,-20.9817 -77.55274,-21.8691 -29.15303,-0.8875 -45.23938,18.9032 -48.26171,59.3711 -3.02223,40.4678 -46.45388,93.1955 -130.29297,158.1816 -83.83908,64.9857 -132.68613,125.6238 -146.54102,181.916 -13.85487,56.2923 -29.19764,85.7672 -46.0293,88.4238 -16.83167,2.6567 -13.00523,-27.7438 11.48047,-91.2031 24.48578,-63.4589 42.52986,-132.9581 54.13086,-208.498 73.29013,-82.1402 105.16486,-153.4321 95.625,-213.87307 C 588.34546,920.92041 564.77388,856.02898 527.16852,786.6875 498.58863,615.55206 495.61609,472.52366 518.2525,357.60352 Z m 274.68945,175.41796 34.18164,112.22657 z m 204.76758,105.16274 h 452.10937 v 98.72789 l -445.2147,-2.04297 c -0.055,-15.05023 -6.61696,-82.84926 -6.89467,-96.68492 z m 9.41687,175.83553 442.6925,1.5957 v 97.63099 l -440.1994,-0.0625 c -0.4027,-10.9292 -2.1993,-86.9269 -2.4931,-99.16419 z m 7.4542,288.58765 41.1914,7.6114 0.7246,4.5898 -4.5898,0.7246 h -44.6973 z" />
</svg>
