<?xml version="1.0" encoding="UTF-8" standalone="no"?>
<!-- Generator: Adobe Illustrator 19.0.0, SVG Export Plug-In . SVG Version: 6.00 Build 0)  -->

<svg
   version="1.1"
   id="Ebene_1"
   x="0px"
   y="0px"
   viewBox="0 0 1804.1595 1790.0195"
   xml:space="preserve"
   sodipodi:docname="US9A6N.svg"
   width="1804.1595"
   height="1790.0195"
   inkscape:version="1.2.2 (732a01da63, 2022-12-09)"
   xmlns:inkscape="http://www.inkscape.org/namespaces/inkscape"
   xmlns:sodipodi="http://sodipodi.sourceforge.net/DTD/sodipodi-0.dtd"
   xmlns="http://www.w3.org/2000/svg"
   xmlns:svg="http://www.w3.org/2000/svg"><defs
   id="defs5960">
	
	
</defs><sodipodi:namedview
   id="namedview5958"
   pagecolor="#ffffff"
   bordercolor="#000000"
   borderopacity="0.25"
   inkscape:showpageshadow="2"
   inkscape:pageopacity="0.0"
   inkscape:pagecheckerboard="0"
   inkscape:deskcolor="#d1d1d1"
   showgrid="false"
   inkscape:zoom="0.49831859"
   inkscape:cx="902.03338"
   inkscape:cy="895.00977"
   inkscape:window-width="1920"
   inkscape:window-height="1137"
   inkscape:window-x="-8"
   inkscape:window-y="-8"
   inkscape:window-maximized="1"
   inkscape:current-layer="Ebene_1" />
<style
   type="text/css"
   id="style5952">
	.st0{fill:#010101;}
</style>
<path
   id="XMLID_20_"
   style="stroke-width:0.961607"
   class="st0"
   d="M 896.90598,0 C 825.46382,0 776.87587,22.737915 751.14231,68.3125 L 734.13645,27.566407 710.56223,28.773438 V 83.90625 C 694.81617,73.543818 680.68825,65.896458 668.18137,61.167969 c -12.50688,-4.728489 -25.91232,-4.223868 -40.21875,1.8125 -14.30642,6.036369 -23.03425,17.001665 -26.27344,32.998047 -3.23919,15.996374 -11.78785,27.566904 -25.73437,34.810554 -13.94653,7.14303 -26.99367,6.84146 -39.14063,-1.20703 -12.14696,-7.94789 -25.01301,-8.35203 -38.5996,-1.20899 -13.58662,7.14303 -21.59391,18.61308 -24.11329,34.20703 -2.51935,15.59396 -10.34752,27.96789 -23.57421,37.12305 -13.2267,9.15516 -26.45496,10.96693 -39.68165,5.43359 -13.2267,-5.63394 -25.91357,-3.41999 -38.06054,6.64063 -12.14696,9.96001 -18.26367,22.53504 -18.26367,37.72656 0,15.99638 -5.76036,29.7799 -17.1875,41.34961 -11.42715,11.56971 -24.11404,15.99665 -38.06055,13.17969 -13.94653,-2.81698 -26.4523,1.80912 -37.51953,13.78125 -11.06724,11.97214 -15.20741,25.95675 -12.32813,41.95312 2.15947,15.19153 -1.43934,29.57833 -10.70703,43.16016 -9.26768,13.58183 -21.0549,20.42383 -35.36133,20.42383 -14.30642,0 -25.73339,6.94152 -34.28125,20.92578 -8.54786,13.98425 -10.3472,28.57214 -5.39843,43.76367 5.03874,15.19152 3.77881,30.1816 -3.7793,44.9707 -7.55811,14.78911 -18.08541,23.5424 -31.58203,26.35938 -13.58661,2.81697 -23.75351,11.97245 -30.591803,27.5664 -6.748315,15.59396 -6.388057,30.18184 1.080078,43.76368 7.468135,13.58182 8.728065,28.5719 3.779295,44.9707 -5.03874,16.3988 -14.126818,27.16302 -27.353514,32.39453 -13.226697,5.23153 -21.775365,16.19878 -25.734375,33 -3.959011,16.80123 -1.259872,31.18803 8.007813,43.16016 9.267685,11.97213 12.687339,26.56002 10.167968,43.76367 -2.51937,17.20365 -9.808111,29.57758 -21.955078,37.12305 -12.146965,7.54546 -18.715192,20.02 -19.794922,37.12304 -1.07973,17.20366 3.779004,30.7861 14.486328,40.7461 10.707327,9.96001 16.286574,23.74353 16.646485,41.34961 0.35991,17.60606 -5.038233,31.38956 -16.105469,41.34956 -11.067236,9.9601 -15.925969,23.3395 -14.486328,40.1406 1.43964,16.8013 8.368123,29.1772 20.875,37.125 11.247191,7.2437 18.355228,18.21 21.144531,32.8985 -0.35991,4.7285 -1.259846,9.6582 -2.519531,14.7891 -4.228945,16.7005 -12.867456,27.9685 -25.824219,33.9042 -12.956764,5.9358 -21.054044,17.4039 -24.113281,34.4063 -3.149213,17.0025 0.178644,31.1891 10.076172,42.6582 9.807549,11.4691 13.947853,25.7543 12.238281,43.0586 -1.709573,17.3042 -8.459039,30.0812 -20.246094,38.4316 -11.7870561,8.2497 -17.81405151,21.0269 -18.08398451,38.2305 -0.2699331,17.2037 5.21778701,30.4835 16.37500051,39.8398 11.157213,9.3564 17.365448,22.8383 18.535156,40.3438 1.169708,17.5055 -3.3285,31.5897 -13.585937,42.2539 -10.257439,10.5637 -14.2161019,24.2466 -12.0566414,40.9473 2.2494384,16.7006 9.5360924,28.6724 22.0429694,35.916 12.506875,7.2437 20.424738,19.4174 23.753906,36.4199 3.329169,17.0024 0.180062,31.3892 -9.267578,43.1602 -9.447641,11.7709 -12.415641,25.9566 -8.726563,42.5566 3.599102,16.6 12.056641,27.6668 25.19336,33.3008 13.136718,5.6339 21.864539,16.9018 26.273437,33.9043 1.07973,4.2254 1.439855,8.8535 1.169922,13.9844 l 46.517586,2.6152 c 1.25968,-8.6521 0.36001,-19.1148 -2.69922,-31.1875 -3.95901,-15.3928 -12.50586,-25.8562 -25.64258,-31.4902 -13.136722,-5.6339 -21.506238,-16.9019 -25.195317,-33.9043 -3.689077,-17.0025 -0.719124,-31.1882 8.728515,-42.5567 9.447642,-11.3685 12.777722,-24.7499 9.898442,-40.1426 -2.879285,-15.3927 -10.528284,-26.5601 -23.03516,-33.5019 -12.506876,-6.8412 -20.064479,-19.2152 -22.673828,-37.1231 -2.609349,-17.8072 1.349448,-31.6914 11.966796,-41.5507 10.617348,-9.8594 15.386238,-22.1338 14.396485,-36.8223 -1.079731,-14.7891 -7.198255,-26.7609 -18.355469,-36.1172 -11.157213,-9.3564 -16.646887,-22.8374 -16.376953,-40.4434 0.269932,-17.606 6.298881,-30.3831 18.085937,-38.2304 11.787056,-7.8473 18.265973,-18.9142 19.345704,-32.8985 1.169706,-14.0847 -3.060172,-26.8619 -12.507813,-38.2304 -9.447638,-11.4691 -12.686323,-25.8549 -9.537109,-43.2598 3.149213,-17.4049 10.977365,-28.8748 23.574218,-34.4082 12.596854,-5.5333 20.785532,-14.9895 24.474612,-28.4707 0.98975,-3.4206 1.43919,-6.9427 1.61914,-10.3633 l 2.78907,-0.5019 c 1.9795,-6.64 2.42934,-13.7847 1.3496,-21.5313 -2.15945,-15.594 -9.26709,-27.1625 -21.414062,-34.8086 -12.146966,-7.5455 -19.07545,-20.4241 -20.875,-38.332 -1.79955,-18.0085 2.698925,-31.589 13.40625,-40.7442 10.707325,-9.1551 16.105472,-21.12878 16.105472,-35.9179 0,-14.78909 -5.398147,-27.16304 -16.105472,-37.12305 -10.707325,-9.96001 -15.566058,-23.74353 -14.486328,-41.34961 1.07973,-17.60607 7.468804,-29.98 19.255859,-37.12304 11.787051,-7.14303 18.715551,-17.80676 20.875001,-31.79102 2.15946,-13.98425 -1.26019,-26.96342 -10.16797,-38.93554 -8.907775,-11.97213 -11.427761,-26.56002 -7.46875,-43.76368 3.959011,-17.20365 12.32658,-28.16895 25.19336,-32.99804 12.86679,-4.8291 21.41545,-13.78349 25.73438,-26.96289 4.31891,-13.17941 2.87984,-26.56076 -4.31836,-40.14258 -7.10822,-13.58184 -7.46848,-28.5719 -1.08008,-44.97071 6.3884,-16.3988 16.46613,-25.75537 30.05274,-28.16992 13.5866,-2.41454 23.39325,-9.55717 29.51171,-21.52929 6.11848,-11.97214 6.92817,-25.55456 2.69922,-40.7461 -5.03874,-14.38667 -3.05829,-28.97457 5.93946,-43.76367 8.90778,-14.7891 20.15558,-21.93173 33.74218,-21.5293 13.58661,0.40242 24.29306,-5.02997 32.1211,-16.19726 7.82804,-11.16728 10.52718,-24.54863 8.00781,-40.14258 -2.51938,-15.59395 1.79995,-29.77966 12.86719,-42.55664 11.06724,-12.77699 23.21471,-17.60612 36.4414,-14.38672 13.22669,3.2194 24.65365,0.20204 34.28125,-8.95312 9.6276,-9.15517 14.48633,-21.73214 14.48633,-37.72852 0,-15.99637 6.38908,-28.97359 19.25586,-38.93359 12.86679,-9.96001 25.73283,-12.17396 38.59961,-6.64063 12.86679,5.53335 24.654,4.82958 35.36133,-2.41406 10.70732,-7.24364 17.18637,-18.61308 19.25586,-34.20703 2.15946,-15.59396 10.52702,-27.36462 25.19336,-35.3125 14.66633,-7.94789 27.71347,-7.94789 39.14062,0 11.42715,7.94788 23.57268,8.95529 36.43946,3.01953 12.86678,-6.03637 20.87603,-17.00362 24.11523,-33 3.23919,-15.99638 12.68558,-26.76059 28.43164,-32.39453 14.30643,-6.4388 27.17441,-5.23225 38.60156,3.62109 11.42715,8.85334 19.61557,15.59473 24.6543,20.42383 v 49.0957 h 23.57422 l 17.18555,-39.53906 c 25.73356,44.76974 74.32151,67.10547 145.76367,67.10547 71.44216,0 120.03006,-22.33573 145.76366,-67.10547 l 16.1055,39.53906 h 24.6543 v -49.0957 c 5.7586,-4.8291 14.3052,-11.57049 25.7324,-20.42383 11.4271,-8.85334 24.2952,-9.95928 38.6016,-3.62109 15.746,5.63394 25.0132,16.39815 27.8925,32.39453 2.8793,15.99638 10.8866,26.96363 24.1133,33 13.2266,6.03637 25.5534,5.02895 36.9805,-3.01953 11.4272,-7.94789 24.2951,-7.94789 38.6016,0 14.3063,7.94788 22.6739,19.81915 25.1933,35.3125 2.5194,15.59395 9.0875,26.96339 19.7949,34.20703 10.7074,7.24364 22.4946,7.94741 35.3614,2.41406 12.8668,-5.63394 25.7347,-3.41999 38.6015,6.64063 12.8668,10.06061 19.0749,22.93722 18.7149,38.93359 -0.3599,15.99638 4.4988,28.57335 14.4863,37.72852 9.9875,9.15516 21.4146,12.17252 34.2812,8.95312 12.8669,-3.2194 25.0144,1.60973 36.4415,14.38672 11.4271,12.77698 15.9256,26.96269 13.4062,42.55664 -2.5194,15.59395 0.1797,28.9753 8.0078,40.14258 7.828,11.16729 18.6245,16.59968 32.1211,16.19726 13.5867,-0.40243 24.8344,6.8408 33.7422,21.5293 8.9078,14.7891 10.8882,29.377 5.9394,43.76367 -4.3188,15.19154 -3.4192,28.77396 2.6993,40.7461 6.1186,11.97212 15.9251,19.21536 29.5117,21.52929 13.5866,2.41455 23.5743,11.77112 30.0527,28.16992 6.4784,16.39881 6.1181,31.38887 -1.0801,44.97071 -7.1082,13.58182 -8.5472,26.96317 -4.3183,40.14258 4.3189,13.1794 12.8676,22.13379 25.7344,26.96289 12.8668,4.82909 21.2343,15.79439 25.1933,32.99804 3.959,17.20366 1.4391,31.79155 -7.4687,43.76368 -8.9078,11.97212 -12.5066,24.95129 -10.7071,38.93554 1.7996,13.98426 8.7281,24.54738 20.875,31.79102 12.147,7.14304 18.7151,19.61757 19.795,37.12304 1.0797,17.60608 -3.7791,31.3896 -14.4864,41.34961 -10.7073,9.96001 -16.2866,22.33396 -16.6465,37.12305 -0.36,14.78912 5.0383,26.7628 16.1055,35.9179 11.0673,9.1552 15.7469,22.7357 13.9473,40.7442 -1.2596,12.777 -5.489,25.9577 -10.3477,37.125 -3.7791,7.6461 -7.7373,18.0076 -10.9765,23.9434 -7.3782,13.4811 -9.8083,26.4592 -6.1192,39.8398 3.6891,13.3806 11.7878,22.9393 24.4746,28.4726 12.5969,5.5333 20.515,17.0014 23.5742,34.4063 3.1491,17.4049 -0.09,31.7926 -9.5371,43.2617 -9.4477,11.4691 -13.6775,24.2463 -12.5078,38.2305 1.1696,14.0849 7.5587,25.0511 19.3457,32.8984 11.7871,7.8473 17.816,20.6225 18.086,38.2285 0.2699,17.6061 -5.2198,31.089 -16.377,40.4454 -11.1572,9.3563 -17.2758,21.4287 -18.3555,36.1171 -1.0797,14.7891 3.7791,27.0635 14.3965,36.8223 10.6173,9.8594 14.6661,23.641 11.9668,41.5488 -2.6094,17.8073 -10.1669,30.1832 -22.6738,37.125 -12.5069,6.8412 -20.1559,18.0086 -23.0352,33.502 -2.8793,15.4933 0.4509,28.8727 9.8985,40.1406 9.4477,11.3685 12.4175,25.5543 8.7285,42.5567 -3.6891,17.0024 -12.0585,28.2704 -25.1953,33.9043 -13.1367,5.6339 -21.6836,16.0974 -25.6426,31.4902 -3.1492,12.1733 -4.0489,22.5354 -2.6992,31.1875 l 46.5176,-2.6153 c -0.3599,-5.1309 2e-4,-9.7589 1.1699,-13.9843 4.4089,-16.9019 13.1367,-28.2704 26.2734,-33.9043 13.1368,-5.634 21.5043,-16.7008 25.1934,-33.3008 3.5991,-16.6 0.7212,-30.7858 -8.7266,-42.5566 -9.4476,-11.771 -12.5068,-26.1578 -9.2676,-43.1602 3.2392,-17.0025 11.2471,-29.1743 23.7539,-36.418 12.5069,-7.2436 19.8835,-19.2174 22.043,-35.9179 2.5194,-17.0025 -1.4378,-30.6844 -11.6953,-41.2481 -10.2575,-10.5636 -14.7577,-24.6478 -13.5879,-42.2539 1.1697,-17.5055 7.378,-30.9873 18.5352,-40.3437 11.1572,-9.3564 16.6468,-22.6362 16.3769,-39.8399 -0.2699,-17.2036 -6.2988,-29.9807 -18.0859,-38.2305 -11.7871,-8.2496 -18.5346,-21.1274 -20.2442,-38.4316 -1.7096,-17.3043 2.3388,-31.6901 12.2364,-43.0586 9.8075,-11.4691 13.2274,-25.6557 10.0781,-42.6582 -3.1491,-17.0024 -11.1586,-28.4704 -24.1152,-34.4062 -12.9568,-5.9358 -21.5934,-17.3044 -25.8223,-33.9043 -4.139,-16.1976 -4.4095,-30.6856 5.668,-40.545 1.0797,-0.8049 2.1583,-1.6091 3.3281,-2.414 12.147,-7.9479 18.8962,-20.4243 20.3359,-37.125 1.4396,-16.8012 -3.2399,-30.1807 -13.9472,-40.1406 -10.7073,-9.96 -15.9264,-23.7435 -15.5664,-41.34964 0.3599,-17.60607 5.9392,-31.3896 16.6464,-41.34961 10.7073,-9.96001 15.5662,-23.54244 14.4864,-40.74609 -1.0798,-17.20365 -7.648,-29.57759 -19.795,-37.12305 -12.1468,-7.54546 -19.4356,-20.02 -21.955,-37.12304 -2.5194,-17.20366 0.9002,-31.79155 10.1679,-43.76367 9.2676,-11.97213 11.9668,-26.35894 8.0078,-43.16016 -3.959,-16.80122 -12.5057,-27.76848 -25.7324,-33 -13.2268,-5.23152 -22.3148,-15.99573 -27.3535,-32.39453 -5.0388,-16.39881 -3.9599,-31.38888 3.2383,-44.97071 7.1083,-13.58183 7.4685,-28.16971 1.0801,-43.76367 -6.3885,-15.59395 -16.4663,-24.74944 -30.0528,-27.5664 -13.5865,-2.81698 -24.1139,-11.57027 -31.582,-26.35938 -7.4681,-14.7891 -8.7281,-29.77917 -3.7793,-44.9707 5.0387,-15.19153 3.0603,-29.77942 -5.9375,-43.76367 -8.9077,-13.98426 -20.1557,-20.92579 -33.7422,-20.92578 -14.3065,0 -26.2727,-6.84201 -35.9004,-20.42383 -9.6275,-13.58184 -13.0472,-27.96863 -10.1679,-43.16016 2.1595,-15.99638 -2.1598,-29.98099 -12.8672,-41.95312 -10.7074,-11.97213 -23.034,-16.59823 -36.9805,-13.78125 -13.9466,2.81696 -26.6334,-1.60998 -38.0605,-13.17969 -11.4271,-11.56971 -17.1856,-25.35324 -17.1856,-41.34961 0,-15.19153 -6.1186,-27.76656 -18.2656,-37.72656 -12.147,-9.96001 -24.8339,-12.17396 -38.0606,-6.64063 -13.2267,5.63395 -26.4529,3.82217 -39.6796,-5.43359 -13.2267,-9.15516 -21.055,-21.52909 -23.5743,-37.12305 -2.5194,-15.59395 -10.5286,-26.96339 -24.1152,-34.20703 -13.5867,-7.14304 -26.4527,-6.83951 -38.5996,1.20898 -12.147,7.94789 -25.194,8.35007 -39.1406,1.20704 -13.9465,-7.14305 -22.6745,-18.81417 -26.2735,-34.810554 -3.5991,-15.996376 -12.3269,-26.96168 -26.2734,-32.998049 -13.9465,-6.036369 -27.1727,-6.641594 -39.6797,-1.8125 -12.5068,4.829095 -26.9931,12.375848 -43.459,22.738281 V 28.773438 L 1058.7751,27.566407 1042.6697,68.3125 C 1016.9361,22.737915 968.34813,0 896.90598,0 Z m 0.17969,28.773438 c 63.61412,0 105.45273,21.529415 125.42773,64.689453 h 38.6016 v 26.359379 h -38.6016 c -19.975,43.16004 -61.81361,64.68945 -125.42773,64.68945 -63.61411,0 -105.81495,-21.52941 -126.50977,-64.68945 H 731.97629 V 93.462891 H 770.5759 C 791.27072,50.302853 833.47156,28.773438 897.08567,28.773438 Z M 779.37473,354.82227 c -37.21413,10.19302 -70.87049,14.42426 -100.96875,12.69336 -30.09825,-1.73089 -75.29281,24.61655 -135.68164,78.94727 -103.46876,74.90907 -181.84079,206.55414 -235.01758,395.125 56.06161,36.54101 124.33542,62.60018 204.91797,78.08203 64.52374,12.4047 101.83439,29.23252 119.81641,38.65625 82.60191,32.30994 75.96785,52.11942 108.18164,135.39452 10.09686,25.9634 98.89747,131.3562 153.70898,322.1387 L 640.46653,1227.9609 c -38.17574,-34.2331 -71.44709,-51.3496 -99.81445,-51.3496 -81.25568,0.9616 -116.44968,34.233 -105.67969,99.8145 l 42.59961,306.7539 c -60.67732,15.6742 -89.0461,62.1185 -85.10352,139.4316 -28.36737,3.8464 -54.04106,11.059 -77.02344,21.252 -22.98236,10.193 -46.25362,14.6162 -69.71679,13.1738 -23.46318,-1.5386 -38.65697,9.5192 -45.48438,32.9824 H 1422.7341 c -26.348,-47.8879 -62.5997,-67.0232 -108.5644,-57.2148 -45.9648,9.8084 -77.0248,-10.7698 -93.1797,-61.6387 -16.1549,-50.8689 -43.7534,-61.0621 -82.8907,-30.7715 37.2141,-72.4089 38.655,-147.7038 4.4219,-225.9785 2.9809,-169.2426 -27.2571,-308.1945 9.957,-416.75978 11.1547,-8.75062 26.2516,-13.75037 41.5411,-16.53903 l 86.2558,-15.77148 c 20.4823,-10.86614 55.1977,-21.25022 103.9512,-31.0586 80.6787,-16.15497 148.567,-42.21564 203.8594,-78.17968 -51.8306,-188.4747 -129.8157,-320.50374 -233.8614,-396.08594 -60.485,-52.88831 -105.7771,-78.85027 -135.7793,-77.88867 -30.002,0.96161 -63.371,-3.17393 -99.9121,-12.59766 -10.77,16.25113 14.232,32.79104 75.1016,49.61914 60.8696,16.82809 79.5246,31.73213 55.8691,44.52149 -15.0009,-2.98098 -33.1753,-8.3653 -54.6191,-16.1543 -21.4439,-7.789 -34.2327,-5.67287 -38.2715,6.44336 42.2146,21.15533 71.4485,39.32961 87.6035,54.61914 16.155,15.28953 34.9059,20.19359 56.3496,14.80859 21.3477,-5.38498 39.1368,-1.8275 53.0801,10.76953 19.8091,16.63578 38.4641,56.35019 55.8692,119.04688 17.4049,62.69668 35.483,114.23847 54.2343,154.43359 -64.9084,8.46213 -140.2024,22.69395 -238.4785,44.33008 -17.8858,-4.32723 -27.8851,-3.5571 -43.8476,-14.13476 -42.9838,-26.54032 -69.4282,-39.71485 -131.7403,-39.71485 l -1.4433,-71.92773 c 26.4441,-10.76998 51.9268,-30.8683 76.3515,-60.19727 24.521,-29.42513 36.7344,-69.90924 36.7344,-121.83594 0,-51.9267 -22.7914,-86.6409 -68.2754,-104.23828 -45.4839,-17.69354 -97.41074,-22.49995 -155.58788,-14.71093 -58.27327,7.88516 -99.62209,50.38807 -124.04687,127.70117 -13.6548,17.59737 -28.84859,41.63716 -45.48438,71.92773 -9.80837,20.57836 -10.48075,32.11747 -2.21094,34.52149 8.26982,2.40401 15.38616,6.0587 21.25196,10.96289 -5.8658,4.90419 -8.2702,9.23125 -7.3086,13.17382 0.96161,3.94259 6.82768,5.86524 17.59766,5.86524 -2.88482,0 -6.82823,2.21138 -11.73242,6.63476 -4.90419,4.42339 -4.1337,8.27065 2.21289,11.73243 6.34659,3.36561 9.51953,13.94363 9.51953,31.54101 0,17.59738 9.80753,25.86591 29.32813,24.9043 20.57835,0 35.676,-1.05725 45.48437,-2.98047 l 7.30859,46.92578 c -71.35112,0 -117.99015,6.53956 -166.45507,33.94531 -13.46248,7.59669 -27.50042,2.59576 -40.96289,-0.28906 -93.66039,-24.23245 -172.89827,-40.57889 -237.80665,-49.04101 17.98204,-40.86824 35.67698,-92.60215 53.08204,-155.29883 17.40506,-62.69669 36.06007,-102.31494 55.86914,-119.04688 13.94328,-12.69319 31.8278,-16.06019 53.65625,-10.38672 21.82844,5.67348 40.58078,1.15489 56.44726,-13.75 15.77034,-14.90489 45.19443,-33.27161 88.08203,-55.0039 -5.38498,-12.02007 -18.46174,-14.13666 -39.23242,-6.34766 -20.77069,7.69284 -38.65716,13.07957 -53.6582,16.06055 -23.55934,-12.88552 -5.00049,-27.69535 55.86914,-44.52344 60.77347,-16.8281 85.87155,-33.36801 75.10156,-49.61914 z m 181.5625,93.99805 c 27.40128,-1.73089 59.65667,2.16369 96.72657,11.68359 49.4265,12.69319 74.1406,41.53982 74.1406,86.54297 0,45.00313 -16.3479,83.37202 -49.1387,115.20117 -32.7907,31.82915 -54.0431,40.38835 -63.8515,25.67578 -9.8084,-14.71256 -1.5379,-35.19647 24.9062,-61.64062 26.4442,-26.44416 32.9826,-52.31043 19.8086,-77.79297 -13.2702,-25.3864 -41.8296,-27.4052 -85.87107,-5.86524 -15.57808,-16.63578 -51.34995,-29.42562 -107.12304,-38.08007 10.76999,-27.40577 32.31118,-44.81094 64.62109,-52.11914 8.05347,-1.82706 16.64749,-3.02851 25.78125,-3.60547 z m -105.01758,82.07226 c 45.96473,2.88482 83.17755,14.61696 111.54493,35.19532 -1.0577,16.63578 6.05896,17.11603 21.15624,1.3457 15.19338,-15.67417 29.90548,-20.28995 44.04098,-13.94336 14.1357,6.34659 16.1545,20.29012 5.8653,41.83008 -10.2891,21.53997 -23.7509,39.33073 -40.38674,53.5625 -16.63579,14.13559 -20.57726,28.55892 -11.73047,43.27148 8.75059,14.71257 14.61471,27.4058 17.59571,38.17578 0,78.27469 6.9252,118.18064 20.5801,119.62305 13.7509,1.53857 40.3857,2.50161 80.0039,2.98242 39.6181,0.4808 40.8684,51.8302 3.6543,154.04885 -37.118,102.3149 -7.9357,238.9587 -12.8399,410.2207 l -137.99216,30.7714 c -71.3511,-231.9392 -175.09637,-391.3567 -189.32812,-410.3964 -14.23177,-19.0398 -7.65291,-42.13448 -1.78711,-137.04494 -1.92321,-32.30995 23.55941,-48.17807 76.35156,-47.69726 52.79215,0.48079 79.23633,-16.92438 79.23633,-52.11915 0,-42.98376 -18.17374,-62.59882 -54.33008,-58.65625 -36.15637,3.94259 -51.35017,-7.78955 -45.48438,-35.19531 21.53997,-11.73159 29.13761,-20.57952 22.79102,-26.44531 -6.3466,-5.86579 -17.8857,-9.32745 -34.52148,-10.28906 -10e-6,-9.71221 -8.27047,-18.0769 -24.90626,-24.9043 16.63579,-37.21413 32.79068,-63.08236 48.46485,-77.79492 15.67417,-7.789 32.02209,-7.50028 49.13867,0.76953 17.21271,8.36597 34.04004,13.94285 50.67578,16.92383 v -11.73047 c -10.76995,-0.9616 -24.71353,-6.05915 -41.83008,-15.38672 -17.11658,-9.32757 -34.52175,-10.4817 -52.11914,-3.6543 6.82741,-10.76999 12.21368,-18.5587 16.15625,-23.46289 z m 111.54493,35.19532 c -10.63777,-7.71689 -13.44507,-7.30612 -12.74415,-4.65626 0.46729,1.76658 2.49443,4.52803 4.80079,6.54102 3.45952,3.01948 7.54672,4.35365 7.94336,-1.88476 z m 50.93362,-7.12305 c -2.2944,0.15776 -4.8475,0.60827 -7.6602,1.35351 -11.25083,2.88482 -21.25281,11.24949 -30.0996,24.9043 -8.75059,13.6548 -11.24923,23.94409 -7.30664,30.77148 -9.80839,3.84643 -15.48328,9.2327 -16.92578,16.15626 -1.4424,6.8274 1.73239,11.92298 9.52149,15.38476 7.88509,3.36562 19.3281,-1.92253 34.52143,-16.1543 15.0973,-14.1356 24.9048,-27.11802 29.3282,-38.84961 4.4234,-11.73158 5.0977,-20.77059 2.2129,-27.11718 -2.1636,-4.75995 -6.7088,-6.92251 -13.5918,-6.44922 z m -155.17386,11.14258 c -7.47742,-0.45977 -14.33775,1.14803 -20.57617,4.82617 l -16.1543,13.17383 v 11.73242 0.0957 h 7.3086 c 20.57836,10.76998 44.04025,10.76998 70.48437,0 l 24.90625,5.86719 V 592.62696 L 905.7302,589.64649 C 889.86373,577.38601 875.68671,570.8737 863.22434,570.10743 Z m 153.53516,3.5039 c 3.5459,0.62505 4.9412,3.29474 4.1719,8.05469 -1.4424,9.23141 -5.8657,18.27042 -13.1739,27.11719 -7.4043,8.7506 -14.23344,14.71284 -20.58003,17.59765 -6.3466,2.88481 -6.3466,-8.7e-4 0,-8.84765 6.34659,-8.84677 6.34659,-11.73051 0,-8.84571 -6.3466,2.88482 -7.59494,0.19169 -3.65235,-8.07812 3.9425,-8.36597 9.32691,-15.96361 16.1543,-22.79102 7.83708,-3.41369 13.53418,-4.83207 17.08008,-4.20703 z m -162.28321,5.65039 c -2.98097,4.9042 -2.98097,10.77027 0,17.59766 -5.86579,-2.88482 -10.7703,-5.38538 -14.71289,-7.30859 1.92322,-3.94258 6.82773,-7.30809 14.71289,-10.28907 z m 20.38672,2.88477 20.57813,11.73242 c -8.75061,2.01938 -17.11724,2.98047 -24.90625,2.98047 6.92356,-2.88482 8.36687,-7.78933 4.32812,-14.71289 z m 95.48633,45.58008 c 7.88519,3.94258 9.32802,7.59681 4.42383,11.05859 -4.9042,3.36562 -8.36577,3.17306 -10.28906,-0.76953 -1.9232,-3.94258 -5.6e-4,-7.30809 5.86523,-10.28906 z M 831.23801,642.1211 c -0.302,-0.15626 -0.63354,-0.1154 -0.99414,0.125 -1.44241,0.96161 -2.21094,3.17493 -2.21094,6.63672 0,3.46177 -1.53901,5.577 -4.42382,6.63476 -2.88482,1.05777 -6.05776,-0.67427 -9.51953,-5.09765 -3.46179,-4.42339 -6.15491,-6.63477 -8.07813,-6.63477 -2.01937,0 -3.46222,0.76853 -4.42383,2.21094 -0.9616,1.53857 -0.9616,3.65574 0,6.63672 2.98098,-2.88482 6.63521,-1.7322 11.0586,3.55664 4.42338,5.38498 9.03917,6.82783 13.94336,4.42383 4.90419,-2.40402 7.11556,-6.34549 6.63476,-11.73047 -0.43273,-4.03875 -1.08032,-6.29294 -1.98633,-6.76172 z m -27.78711,35.05664 c 1.71887,-0.2404 4.05148,-0.12143 6.98438,0.35937 5.86579,1.05777 12.21167,2.02083 19.03906,2.98243 6.69434,1.02274 9.53097,1.9549 8.84766,2.88476 h -35.19532 c -2.98097,-0.9616 -3.94206,-2.50061 -2.98046,-4.42383 0.4808,-0.9616 1.58581,-1.56233 3.30468,-1.80273 z m 33.33203,9.20703 c -1.9232,2.01938 -5.57744,4.23075 -11.05859,6.63477 -5.38499,2.404 -10.00077,4.1341 -13.94336,5.0957 -3.84641,0 -6.34698,-0.4798 -7.30859,-1.44141 -0.9616,-0.9616 10e-4,-2.88425 2.98242,-5.86523 z M 534.88254,1267.5801 h 63.08204 l 281.75,198.0898 -315.50196,93.9492 c 6.8274,-145.7794 -2.88592,-243.0934 -29.33008,-292.039 z m 569.36716,183.4746 c 21.54,83.1789 8.3665,155.491 -39.5215,217.3222 -71.44729,42.0222 -157.79953,48.37 -259.05659,19.0411 -101.25707,-29.4252 -197.41883,-23.0793 -288.38672,19.039 8.75061,-33.2716 84.14169,-86.6413 225.97851,-160.0117 z" />
</svg>
