<?xml version="1.0" encoding="UTF-8" standalone="no"?>
<svg
   width="1073.9961"
   height="1797.2715"
   version="1.1"
   id="svg4864"
   xmlns="http://www.w3.org/2000/svg"
   xmlns:svg="http://www.w3.org/2000/svg">
  <defs
     id="defs4868" />
  <path
     id="path4862"
     style="fill:#000000;stroke:none;stroke-width:100"
     d="m 750.73828,0 c -28.24354,0 -44.81089,12.220559 -49.69922,36.662109 -4.88825,24.441552 4.07463,39.921734 26.88672,46.439453 L 685.56055,311.22265 c -26.07103,-8.69031 -46.16729,-10.04684 -60.28907,-4.07226 -14.12176,5.97465 -36.93503,4.07352 -68.4375,-5.70313 l -6.51757,6.51758 c 15.20803,29.32981 33.67456,41.82168 55.40039,37.47657 21.72581,-4.3452 36.93467,-2.9867 45.625,4.07421 8.69031,7.06087 25.52704,8.41935 50.51171,4.07422 h 30.96094 c -18.46696,14.12178 -29.33099,31.50114 -32.58984,52.14063 l -37.47656,61.91992 c -1.08633,5.43145 3.2585,9.77623 13.03515,13.03516 -4.34518,5.43145 0.54223,19.55314 14.66406,42.36523 1.08627,11.94918 -0.5416,23.89848 -4.88671,35.84766 -14.12185,14.12183 -15.20902,23.35604 -3.25977,27.70117 11.94918,4.34511 20.63886,-0.54431 26.07031,-14.66602 l 13.03711,-40.73633 c 21.72583,-1.08631 32.04532,11.95014 30.95899,39.10743 h 1.6289 c -79.29924,24.98467 -125.4665,56.48762 -138.50195,94.50781 -19.55329,54.31455 -45.62422,125.46551 -78.21289,213.45508 -44.60876,-39.18837 -150.55623,-115.59584 -202.15234,-140.09961 -0.15256,-6.11121 -5.79799,-12.44336 -9.58985,-20.78516 l 74.7168,-285.18555 -44.04883,-15.75976 -84.50391,292.93555 c -41.27905,0 -48.88149,12.49193 -22.81054,37.47656 0,24.98467 -8.07139,30.96909 7.13672,53.78125 L 0,1796.5254 H 45.625 L 300.90625,810.4707 323.1875,793.91797 c 98.01635,86.16232 208.53772,199.44953 242.75586,174.46484 34.21819,-24.98467 39.77314,-63.77172 52.80859,-99.07617 13.03551,-35.30454 26.07193,-81.74304 39.10742,-139.31641 24.98469,22.81209 27.59859,102.49174 54.75586,236.10547 -23.89841,11.94924 -25.52823,27.15802 -4.88867,45.625 l -55.55664,48.0683 27.69922,6.5176 -78.96875,87.6387 H 320 l -89.6836,420.3301 c -6.51769,41.2786 1.62943,61.9199 24.44141,61.9199 14.12169,0 21.1836,-8.6916 21.1836,-26.0723 0,-18.4669 2.17238,-27.6992 6.51757,-27.6992 4.3451,0 6.51758,9.2323 6.51758,27.6992 0,17.3807 6.5174,26.0723 19.55274,26.0723 13.03548,0 19.55468,-8.6916 19.55468,-26.0723 0,-18.4669 2.17239,-27.6992 6.51758,-27.6992 5.4313,0 8.14649,9.2323 8.14649,27.6992 0,17.3807 5.97454,26.0723 17.92382,26.0723 22.81198,0 32.04637,-20.6413 27.70118,-61.9199 l -3.19727,-387.7422 h 186.35937 l -144.01757,159.8281 189.86914,1.6269 c -12.56998,32.7818 -20.78207,61.4644 -19.71875,85.92 -13.03551,80.3855 -66.83563,171.0902 -91.82032,272.1152 -2.17259,21.726 -46.71201,41.2795 -133.61523,58.6602 -27.15728,0 -35.30431,10.8621 -24.44141,32.5879 h 200.42188 c 14.1217,-13.0355 17.38133,-39.6491 9.77734,-79.8418 61.91855,-127.0961 106.15144,-134.8593 129.50977,-259.0801 16.47138,-28.2436 31.57307,-79.6268 53.29883,-110.043 h 55.79687 c -1.08627,22.8121 15.51649,71.4785 30.72461,101.8945 l 57.03125,254.1934 c -1.08633,22.8121 -45.62373,42.9084 -133.61328,60.2891 -27.15727,0 -35.30627,10.8621 -24.44336,32.5879 H 926.7168 c 27.15727,-4.3452 33.13193,-30.9589 17.92382,-79.8418 -1.08627,-158.5986 -14.66531,-254.7351 -40.73632,-288.4102 l 1.63671,-83.4375 c 1.97749,-60.0041 2.71015,-112.7721 2.32618,-159.0488 0.047,-10e-5 2.43554,0 2.43554,0 h 29.33008 c 5.4314,19.5532 17.65203,26.07 36.66211,19.5527 13.027,-1.8045 30.84398,-12.6838 34.78708,-19.5527 h 62.9141 v -32.5879 h -62.668 c 1.249,-11.865 -0.1002,-22.9883 -3.8769,-33.418 -1.9623,-8.2258 -5.871,-16.5242 -11.73245,-24.8945 1.23134,-11.6171 1.71461,-26.9605 3.71484,-39.1582 2.85101,-14.2553 6.04081,-31.5612 9.57031,-51.9238 7.0609,-40.73593 4.0727,-82.28699 -8.9629,-124.65236 4.3452,-55.40083 5.4324,-110.8023 3.2598,-166.20313 h 47.2539 C 1049.4684,644.17272 1028.2849,572.20585 987.00586,497.79492 945.72681,423.38401 911.50883,375.31567 884.35156,353.58984 h 17.92383 c 24.98467,5.43147 41.82141,4.6156 50.51172,-2.44531 8.69031,-7.06085 23.89917,-8.41933 45.625,-4.07422 21.72579,4.3452 40.19229,-8.68933 55.40039,-39.10547 l -6.5176,-6.51758 c -31.5024,10.86291 -54.04251,13.30662 -67.62107,7.33204 -13.57865,-5.9746 -28.51619,-5.16063 -44.81055,2.44335 L 897.38672,83.101562 C 920.19879,76.583843 928.88848,61.103661 923.45703,36.662109 918.02558,12.220559 901.73149,0 874.57422,0 844.15808,0 825.14897,16.296031 817.54492,48.884765 V 304.70508 h -9.77734 V 48.884765 C 800.16351,16.296031 781.15442,0 750.73828,0 Z m 3.25781,26.072265 c 17.38065,0 26.07031,12.49188 26.07032,37.476563 V 304.70508 c -24.98469,-2.1726 -45.08102,1.08703 -60.28907,9.77734 L 753.99609,63.548828 C 735.52913,61.376299 727.11076,54.587751 728.74023,43.18164 730.3697,31.775597 738.78806,26.072265 753.99609,26.072265 Z m 114.06055,0 c 17.38063,0 26.6149,5.703332 27.70117,17.109375 1.08633,11.406111 -8.14794,18.194659 -27.70117,20.367188 L 903.9043,314.48242 c -14.12178,-8.69031 -33.67549,-11.94994 -58.66016,-9.77734 V 63.548828 c 0,-24.984683 7.60439,-37.476563 22.8125,-37.476563 z M 804.50976,353.58984 c 36.93394,0 68.97951,18.19522 96.13672,54.58594 27.15736,36.39072 51.8698,77.66855 74.13867,123.83594 22.26896,46.1673 38.29175,96.95263 48.06835,152.35351 h -14.664 c -9.77663,-41.27905 -23.35573,-69.52236 -40.73638,-84.73047 -17.38063,-15.20803 -49.97074,-24.4423 -97.76757,-27.70117 -8.69033,0 -13.03516,3.80227 -13.03516,11.40625 v 61.91797 H 827.32031 V 496.98047 c 19.55323,-10.86285 26.34374,-30.41655 20.36914,-58.66016 -5.97458,-28.24354 -24.71433,-33.67555 -56.2168,-16.29492 -17.38063,-14.12178 -37.47697,-21.18359 -60.28906,-21.18359 11.94918,-31.50241 36.39232,-47.25196 73.32617,-47.25196 z m -79.84375,65.17578 h 16.29493 c 15.20803,0 32.04475,10.86402 50.51171,32.58985 17.38065,-15.20805 28.24465,-17.38049 32.58985,-6.51758 4.34518,10.86291 2.44407,19.5526 -5.70313,26.07031 -8.14725,6.5178 -13.8505,15.20942 -17.10937,26.07227 v 175.97851 h 78.21289 v -65.17773 c 34.76125,0 57.8459,7.60439 69.25195,22.8125 11.40605,15.20803 2.17184,31.50212 -27.70117,48.88281 -29.87294,17.38063 -56.75782,102.11266 -80.65625,254.19336 l -91.89453,21.01953 C 718.04675,810.21282 714.6189,724.01404 691.26367,699.0293 c -23.35529,-24.98469 -27.97341,-43.45123 -13.85156,-55.40039 14.12176,-11.94918 41.82257,-23.89841 83.10156,-35.84766 16.29443,-10.86291 21.99769,-30.68794 17.10938,-59.47461 -4.88833,-28.78674 -24.71329,-41.00731 -59.47461,-36.66211 -11.94918,-13.03551 -19.55365,-27.1572 -22.8125,-42.36523 z m 4.88868,9.3711 c -7.60405,0.81471 -11.94886,6.38139 -13.03516,16.70117 4.3452,14.12178 19.55209,14.12178 45.62305,0 14.12176,-2.1726 14.12176,-3.8024 0,-4.88867 -14.12178,-8.69035 -24.98386,-12.62722 -32.58789,-11.8125 z m 206.93945,283.92969 c 0,47.79683 3.8022,105.91327 11.40625,174.3496 0,40.19272 2.71503,100.48158 8.14648,180.86719 -4.12605,14.4411 -7.40165,26.6824 -10.05859,37.3281 -8.98331,21.9547 -12.79626,38.4687 -11.24414,49.334 h -24.44141 -3.07226 C 904.71544,1043.1765 894.50364,977.14186 876.20508,958.11133 893.58571,819.06608 913.68205,737.05108 936.49414,712.06641 Z m -92.87891,260.70898 c 16.53376,20.29137 25.34527,81.32781 26.80078,181.16991 H 643.32812 c 24.7755,-29.0197 46.14772,-55.0879 53.83399,-68.2149 14.10516,-24.0893 62.70703,-82.1582 62.70703,-82.1582 z m -492.65625,212.12891 -0.0645,368.1894 h -84.73047 z m 264.00782,1.6289 h 63.35351 c 13.66582,0.1827 141.4299,0.046 192.4082,0 -0.0492,36.7396 -0.88699,77.6404 -2.67187,123.5371 l -363.74219,-0.793 c 0,0 57.54361,-62.2912 110.65235,-122.7441 z" />
</svg>
