<?xml version="1.0" encoding="UTF-8" standalone="no"?>
<svg
   width="1279.2692"
   height="1799.9952"
   version="1.1"
   id="svg1"
   xml:space="preserve"
   xmlns="http://www.w3.org/2000/svg"
   xmlns:svg="http://www.w3.org/2000/svg"><defs
     id="defs1" /><path
     id="path1"
     style="display:inline;fill:#000000;stroke:none;stroke-width:98.653"
     d="m 1058.4738,0.07328632 c -7.0603,-0.40732158 -13.3061,0.88332368 -18.737,3.87037068 -10.862,5.9740941 -20.6386,19.279491 -29.3282,39.917229 -11.94817,33.672027 -31.49945,59.469014 -58.65427,77.391274 -27.15502,17.92222 -54.03904,40.18842 -80.65085,66.80017 -26.61162,26.61185 -46.1629,52.41084 -58.65416,77.39331 -12.49125,24.98254 -21.99459,51.59339 -28.51182,79.83447 0.017,12.64455 -1.17321,24.92691 -1.63081,32.58569 -9.77574,13.03435 -20.63749,31.50037 -32.58564,55.39669 -6.51723,15.20676 -6.24593,23.62489 0.81441,25.25417 7.06023,1.62929 12.22085,4.61556 15.47946,8.96031 -5.43092,3.25864 -7.33203,6.24687 -5.70282,8.96233 1.6294,2.71552 4.61562,4.07195 8.96034,4.07195 2.17241,0 1.3585,1.62979 -2.44321,4.88834 -3.80162,3.25859 -3.25912,6.24481 1.6288,8.96033 4.88792,2.71545 6.51763,8.4187 4.88842,17.10825 -1.6293,8.68955 0.81431,14.66399 7.33154,17.92263 l -52.13713,81.46525 h 48.87951 l 40.73168,-76.57688 h 16.29387 l -3.25961,35.84325 c -24.98261,62.99938 -41.54758,123.28475 -49.69402,180.85315 -8.14644,57.56834 -10.59005,147.17956 -7.33153,268.83343 -59.44706,5.4875 -102.34385,10.3364 -162.70671,17.1183 L 478.42817,623.00135 c -56.18254,-14.08919 -87.94858,-32.57461 -95.30381,-55.4612 -10.03384,-31.22098 3.71342,-56.30357 41.24568,-75.24645 26.03011,-8.36553 43.04829,-8.09441 51.05462,0.8144 8.13024,8.86203 13.55296,18.59772 16.26767,29.20717 2.83851,10.56268 6.19123,28.99802 10.05885,55.30599 9.03773,28.12159 24.4936,36.93046 46.3679,26.42536 -15.52577,-34.03624 -23.60181,-61.00213 -24.22611,-80.89478 -0.6475,-19.87824 -9.69794,-37.34293 -27.15712,-52.39514 -17.46347,-15.04387 -44.40229,-16.71336 -80.81415,-5.01131 -29.13582,9.36365 -50.61392,30.03802 -64.43768,62.0247 -3.93771,12.7474 -2.73061,29.00445 3.62252,48.77271 9.69564,30.16897 41.76108,53.15431 96.19882,68.95106 L 576.8545,1036.9354 275.80219,566.48992 c -32.49364,-55.82119 -59.23645,-39.2406 -80.22954,49.74433 l 1.6026,-0.29833 L 0,1194.5987 l 34.71845,8.4503 19.097883,-66.5341 44.630194,8.2608 -12.989956,63.7401 34.422149,6.8478 11.68565,-61.8393 44.32989,6.6582 -6.28333,64.1495 36.02266,6.5493 38.62107,-646.91424 295.08148,466.36544 c -22.858,5.6659 -81.91836,21.4985 -113.41799,33.4466 -51.05123,19.5514 -74.28733,65.2862 -75.37343,131.5442 -19.55159,97.7577 -33.94425,188.456 -43.17679,272.093 -9.23274,83.6373 -27.97012,138.762 -56.21114,165.3737 -28.24112,26.6119 -71.14561,49.1513 -128.71396,67.6167 -24.195804,6.4521 -39.063768,18.0189 -44.694793,34.6518 H 5.9717448 v 44.9367 H 1279.2692 v -44.9367 h -115.7069 v -559.2867 h 50.5085 V 946.48975 c 0,-39.10307 -25.5258,-58.65425 -76.577,-58.65425 -53.2234,0 -79.8344,20.09582 -79.8344,60.28505 0,174.87765 -5.9744,262.31625 -17.9226,262.31625 h -41.01797 c 25.04507,-31.0166 41.48057,-84.1175 49.16387,-159.6709 V 659.73359 c 0,-70.60276 -19.0086,-110.24775 -57.0255,-118.93729 l -24.43981,-32.58569 6.51713,-8.14794 c 0,0 13.77717,-15.10879 21.18219,-27.69733 34.75839,-80.37856 55.66599,-139.57675 62.72629,-177.59357 7.0603,-38.01691 9.5058,-74.67569 7.3335,-109.97698 -2.1723,-35.30139 7.0597,-67.61543 27.6973,-96.942708 14.1205,-20.637737 20.0951,-36.388821 17.9227,-47.250774 -1.0863,-11.948189 -10.3202,-23.352527 -27.6993,-34.2144797 -8.6896,-3.8016901 -16.5632,-5.90622039 -23.6234,-6.31354198 z m 3.2576,24.94776368 c 2.987,-0.203661 5.9752,0.645133 8.9622,2.545977 11.9478,6.517146 11.4056,21.723668 -1.6288,45.619978 -23.896,35.844485 -35.0311,69.516975 -33.4021,101.016665 1.6292,31.49963 -4e-4,66.80196 -4.8882,105.90502 -4.8879,39.10308 -31.22746,109.16307 -79.02017,210.17928 l -16.29387,-26.06856 c 34.75835,-57.56834 41.54868,-92.87068 20.36789,-105.90504 -21.1808,-13.03435 -43.17769,-9.23223 -65.98789,11.4055 -18.46518,-15.20675 -43.99089,-21.18121 -76.57683,-17.92264 6.51713,-34.75826 15.20666,-61.91374 26.06851,-81.46525 10.86195,-19.55156 29.87063,-42.08898 57.02555,-67.61456 27.15492,-25.52561 52.95193,-46.70657 77.39133,-63.54263 24.43931,-16.83603 44.80648,-44.805399 61.09938,-83.908407 8.9611,-19.551534 17.9219,-29.63435 26.883,-30.245333 z M 828.15649,364.80733 c 45.739,1.78207 61.95567,16.45321 48.64971,44.01538 l 9.77675,1.62878 16.29187,-32.58569 c 10.86184,-11.94819 24.4407,-13.57791 40.73357,-4.88837 16.29297,8.68961 6.51633,39.64717 -29.32812,92.87077 8.68953,31.49969 21.18109,53.22327 37.47406,65.17139 -48.87871,0 -78.20654,3.25951 -87.98238,9.77671 1.0862,-22.81014 -11.13405,-30.957 -36.65966,-24.43977 -25.52561,6.51714 -36.65866,-1.6297 -33.40005,-24.43979 15.20677,-8.68961 20.09599,-14.93533 14.66497,-18.73703 -5.43083,-3.80169 -14.12236,-6.24536 -26.07052,-7.33151 1.08621,-6.51715 -5.43082,-11.94906 -19.55138,-16.29386 10.86185,-29.3273 21.72569,-49.96363 32.58764,-61.91183 11.94815,-5.43096 24.43771,-5.43096 37.47216,0 13.03426,5.43097 26.61292,9.23308 40.73358,11.4055 l -1.63081,-9.77672 c -8.68954,-1.08624 -19.27808,-4.61707 -31.76934,-10.5911 -12.49105,-5.97409 -25.79851,-6.78792 -39.91917,-2.44317 l 6.51713,-11.4055 c 7.73913,-0.27155 14.87586,-0.27878 21.40999,-0.0241 z m 103.63925,10.81889 c -2.71551,-0.40732 -6.11062,0.0673 -10.18394,1.42518 -8.14654,2.71547 -15.20627,9.23252 -21.18009,19.55143 -5.97413,10.31883 -7.87524,18.19434 -5.70283,23.62538 -5.43092,3.25857 -8.68834,7.6033 -9.77464,13.03428 -1.08621,5.43096 1.3574,9.23316 7.33153,11.4055 5.97403,2.17241 14.39216,-2.44561 25.25411,-13.85068 10.86185,-11.40501 17.65018,-21.72226 20.36579,-30.95492 2.71551,-9.23265 2.71551,-16.02301 0,-20.36782 -1.35771,-2.1724 -3.39452,-3.46103 -6.10993,-3.86835 z m -4.27752,10.7947 c 2.85122,0.27156 4.14192,2.30625 3.87032,6.10793 -0.5431,7.60339 -3.53132,14.66501 -8.96234,21.18222 -5.43102,6.51715 -10.58964,11.13314 -15.47747,13.84867 -4.88792,2.71547 -4.88792,0.54313 0,-6.51714 4.88783,-7.06026 4.88783,-9.50394 0,-7.33153 -4.88792,2.1724 -6.24642,0.27134 -4.07391,-5.70274 2.17241,-5.9741 5.97452,-11.67729 11.40545,-17.10825 5.97422,-3.25861 10.38664,-4.7507 13.23795,-4.47916 z m -115.2726,2.54398 c -3.66591,0.4752 -7.12693,1.6631 -10.38544,3.56395 l -9.77674,11.40549 v 9.77673 l 4.88842,-3.25958 c 16.29287,8.68956 34.21435,8.68956 53.76583,0 l 17.92258,1.6308 v -8.14795 H 850.73769 C 836.07413,392.52927 823.24337,387.53925 812.24562,388.9649 Z m -0.6108,6.82354 c -2.17241,4.3448 -1.62981,8.68953 1.62881,13.03427 -4.34482,-1.08617 -8.14494,-2.71596 -11.40345,-4.88837 2.17221,-3.25855 5.42982,-5.9735 9.77464,-8.1459 z m 16.29387,3.25957 14.66306,8.14592 c -5.43102,1.08618 -10.86284,2.17133 -16.29387,3.25756 4.34482,-4.34481 4.88943,-8.14491 1.63081,-11.40348 z m -31.77134,44.80558 c -1.6293,0.54306 -2.17391,2.17083 -1.6308,4.88635 0.5432,2.71553 -0.2707,4.61658 -2.44311,5.70274 -2.17251,1.08623 -4.61612,-0.27017 -7.33154,-4.07195 -2.71551,-3.80169 -4.61652,-5.70274 -5.70272,-5.70274 -1.08611,1.08623 -2.17341,2.17139 -3.25962,3.25755 -1.0862,1.08625 -1.0862,2.71597 0,4.88837 2.17231,-2.1724 4.88933,-1.35851 8.14794,2.44317 3.25861,3.80169 6.78733,4.88887 10.58905,3.25958 3.80181,-1.62928 5.43152,-4.61752 4.88842,-8.96232 -0.5431,-4.34482 -1.62841,-6.24386 -3.25762,-5.70075 z m -17.92257,27.90095 c 1.0862,-0.13577 2.44261,0.0677 4.07191,0.6108 4.34472,0 9.50534,0.27145 15.47947,0.81437 5.97413,0.54325 7.87513,0.81439 5.70273,0.81439 l -26.06852,1.6308 c -2.17251,0 -2.71701,-0.81583 -1.63081,-2.44519 0.54311,-0.81464 1.35901,-1.28941 2.44522,-1.42517 z m 25.25411,5.49915 c -2.17241,2.17241 -5.16053,4.07347 -8.96234,5.70275 -3.80172,1.62929 -7.33044,2.98578 -10.58905,4.07195 -2.17241,0 -3.80212,-0.27126 -4.88832,-0.81439 -1.08611,-0.54304 -0.5436,-1.89955 1.62881,-4.07196 z m 135.23118,87.98239 c 45.6201,0 71.14573,21.72351 76.57683,65.17139 l -71.68851,8.14593 c -47.7926,-3.25858 -77.66303,-13.03521 -89.61119,-29.32815 6.51723,-29.32728 34.75796,-43.98917 84.72287,-43.98917 z m -97.75712,83.09403 c 22.8101,13.03436 49.69231,20.09403 80.64885,21.1802 30.95653,1.08623 62.72807,-2.17333 95.3139,-9.77672 v 234.61905 c 4.3448,208.54976 -31.49993,313.91186 -107.53376,316.08416 H 526.50748 v 0.3004 c -34.81025,4.7537 -55.49884,24.1511 -61.91187,58.354 -8.68953,60.8269 -23.0821,116.4943 -43.17678,167.0024 -20.09459,50.5081 -39.91718,107.8054 -59.46866,171.8908 v 55.3967 c 26.06871,45.6203 20.09429,72.2312 -17.92258,79.8346 h -208.5505 l -1.62881,-1.6288 c 61.91327,-17.3791 108.89117,-38.5603 140.93391,-63.5426 32.04284,-24.9825 52.95243,-83.3668 62.72827,-175.1506 9.77565,-91.7834 24.98221,-186.5531 45.6199,-284.3109 1.08631,-56.4822 22.8098,-89.6121 65.17138,-99.3879 34.75835,-14.1206 80.37985,-26.6121 136.862,-37.474 56.48214,-10.862 133.60178,-19.5515 231.3594,-26.0685 -8.68954,-183.56725 -0.5427,-319.34042 24.43981,-407.32229 z m -676.86734,172.64474 -60.70226,288.07655 -34.720452,-8.4503 z m 30.92063,5.84184 -17.97497,295.03521 -36.61936,-9.7527 z m 940.84886,94.41889 c 29.3274,0.54305 43.9911,9.50581 43.9911,26.88497 v 219.95405 h -30.9568 v -115.6797 h -30.9571 v 381.2556 H 855.62601 v 294.9021 H 572.12948 V 1243.0227 H 933.83175 1060.917 c 20.6377,0 30.9568,-11.4064 30.9568,-34.2166 V 948.12055 c 0,-18.46546 14.6641,-27.42822 43.9913,-26.88497 z M 524.87868,1243.0227 h 1.6288 v 512.0358 h -115.0911 c 2.07001,-2.8514 3.58572,-5.9485 4.29972,-9.3997 3.25862,-15.7499 0.81501,-33.1289 -7.33153,-52.1371 -8.14634,-19.0085 -12.49105,-39.3736 -13.03426,-61.0974 -0.5431,-21.7241 13.84946,-72.2328 43.17679,-151.525 32.58584,-64.0856 50.77862,-117.5807 54.58024,-160.4854 3.80171,-42.9048 14.39216,-68.7018 31.77134,-77.3912 z m 361.70427,218.3251 h 231.35935 v 16.2919 H 901.24601 v 250.9129 h -14.66306 z m 47.2488,47.2487 h 184.11055 v 219.9561 H 933.83175 Z" /></svg>
