<?xml version="1.0" encoding="UTF-8" standalone="no"?>
<svg
   xml:space="preserve"
   viewBox="0 0 1615.0961 1797.6349"
   y="0px"
   x="0px"
   id="Ebene_1"
   version="1.1"
   width="1615.0961"
   height="1797.6349"
   xmlns="http://www.w3.org/2000/svg"
   xmlns:svg="http://www.w3.org/2000/svg"
   xmlns:rdf="http://www.w3.org/1999/02/22-rdf-syntax-ns#"
   xmlns:cc="http://creativecommons.org/ns#"
   xmlns:dc="http://purl.org/dc/elements/1.1/"><metadata
     id="metadata3981"><rdf:RDF><cc:Work
         rdf:about=""><dc:format>image/svg+xml</dc:format><dc:type
           rdf:resource="http://purl.org/dc/dcmitype/StillImage" /></cc:Work></rdf:RDF></metadata><defs
     id="defs3979" /><style
     id="style3966"
     type="text/css">
	.st0{fill:#010101;}
	.st1{fill:#FFFFFF;}
</style><path
     id="path2216_1_"
     class="st0"
     d="M 899.39482,0 C 820.695,11.899976 779.19481,53.400141 774.39483,125 c -10.69998,14.29996 -21.30041,36.30004 -34.40039,62.5 -7.19998,16.69996 -7.19998,25.70156 0,28.10156 7.19998,2.4 12.00156,5.79844 15.60156,9.39844 -4.79998,3.6 -4.90156,6.40039 -3.10156,9.40039 1.8,3 4.60039,3.09961 9.40039,3.09961 1.2,0 0.50039,2.10078 -3.09961,6.30078 -3.6,4.2 -5.39998,7.60039 0,9.40039 5.39998,1.8 8.80039,9.30041 9.40039,21.90039 0.6,12.49998 6.09963,17.59883 15.59961,18.79883 9.49998,1.2 25.40043,1.2 46.90039,0 l 3.09961,12.5 H 330.69561 c -1.5,-22.29996 -6.49963,-43.69887 -15.59961,-68.79883 -15.49996,-3.6 -21.90039,4.29965 -21.90039,28.09961 l -59.40039,3.09961 c -16.69996,9.49998 -21.59959,23.20002 -15.59961,37.5 h -96.90039 v 8.74609 l -3.80078,0.0547 c -0.4,1.9 -43.898838,187.89968 -58.298828,260.09961 C 44.995622,645.90111 5.596002,876.3005 0.59600202,975.9004 -4.203988,1072.9002 21.095242,1147.6003 36.795222,1176.4003 c 13.89999,25.6 42.00003,47.1996 76.999998,59.0996 18.09998,6.2 36.39963,9.3008 53.59961,9.3008 15.29998,0 29.70118,-2.4 42.20117,-7.5 62.59994,-24.5 94.00001,-89.4004 102.5,-141.9004 15.09999,-92.7999 -5.20041,-184.40038 -24.90039,-272.90029 l -2.20117,-9.89844 C 251.79447,662.90171 211.79596,512.39985 173.096,367 c -2.57585,-9.79942 -5.17976,-19.59902 -7.7832,-29.39844 h 59.08203 c 12.89998,37.59992 46.4009,84.79895 106.30078,143.79883 77.49984,76.29984 139.8001,123.50082 187.5,143.80078 26.19994,-5.99998 104.09985,-53.10096 228.09961,-143.80078 35.79992,75.19984 53.09961,178.20065 53.09961,309.40039 l -87.5,456.19912 c -33.39994,194.3996 -58.30004,316.7016 -75,365.6016 -17.89996,48.8998 -40.40004,77.7984 -62.5,84.3984 -22.09996,6.6 -58.10049,19.9008 -109.40039,43.8008 -35.79994,7.2 -55.30002,18.3004 -62.5,34.4004 -7.19998,16.1 6.80086,23.1004 43.80078,21.9004 46.4999,0 81.09965,-0.9008 103.09961,-6.3008 22.09996,-5.4 51.70008,-4.6004 87.5,3.0996 35.79992,7.8 51.2,-3.4004 50,-34.4004 4.79998,-60.7998 30.10047,-133.499 71.90039,-218.7988 41.79992,-85.2998 59.80078,-148.8998 56.30078,-190.5996 -3.6,-41.8 10.79967,-76.9016 40.59961,-103.1016 h 134.40041 c 28.59998,194.3996 47.19958,320.1002 53.09958,375 2.4,46.5 -7.7,77.6008 -25,93.8008 -17.3,16.1 -48.70018,26.5008 -99.99998,31.3008 -30.99996,17.9 -48.20001,31.6996 -50.00001,40.5996 -1.8,8.9 8.59889,10.6004 31.29881,9.4004 21.5,0 47.1016,1.2 78.1016,0 30.99998,-1.2 68.39998,-1.2 112.49998,0 44.0998,1.2 58.0988,-13.9008 43.7988,-43.8008 -14.3,-89.4998 -14.4996,-176.6002 -3.0996,-262.5 11.3,-85.8998 3.1996,-167.401 -21.9004,-243.8008 l -40.5996,-278.09951 c 25.1,-70.39986 18.1992,-149.70057 -18.8008,-234.40039 -13.1,-35.79994 1.3016,-119.49987 40.6016,-253.09961 10.7,67.99986 32.9988,140.00094 68.7988,218.80078 -9.5,42.89992 -6.0996,98.70012 9.4004,162.5 15.5,63.79988 12.7992,110.10006 -6.3008,137.49993 -19.1,27.4 -22.4984,64.8 -9.3984,112.5 11.9,1.2 17.3996,-8.9996 15.5996,-28.0996 -1.8,-19.1 3,-34.9004 12.5,-46.9004 10.7,23.9 14.3,44.6 12.5,62.5 -1.8,17.9 -8.0008,37.1988 -18.8008,56.2988 -6,7.2 -6.6996,12.8008 -3.0996,18.8008 3.6,6 9.9004,7.4008 21.9004,6.3008 23.9,-33.4 37.5,-62.0016 37.5,-90.6016 0,-29.8 -4.6004,-70.5986 -9.4004,-121.89834 9.5,-124.09974 9.5,-209.00166 0,-253.10156 -6,-54.8999 -23.2996,-148.09987 -53.0996,-278.09961 -13.1,-58.49988 -61.7002,-90.50002 -150,-100 h 328.0996 c -6.4,21.49996 -12.5,46.49967 -12.5,78.09961 0,81.57563 23.8485,173.50928 70.7188,278.54101 3.3679,5.29248 6.7047,21.45546 9.3007,36.2168 h -71.2422 c -13.1818,9.66515 -13.1818,19.33036 0,28.99805 19.3329,0 31.1979,2.63699 35.5918,7.9082 0.8773,29.00051 -9.6675,54.92451 -31.6347,77.77149 -21.9697,22.84697 -32.9551,44.37525 -32.9551,64.58789 6.151,51.84495 18.8918,108.96496 38.2246,171.35736 10.5449,21.0899 25.4855,31.6347 44.8184,31.6347 h 77.7695 c 16.696,0 30.3164,-10.1057 40.8613,-30.3183 23.7193,-65.0268 36.0215,-118.19016 36.9063,-159.49017 7.0308,-34.27172 -2.8547,-61.51393 -29.6582,-81.72656 -26.801,-20.21011 -38.4438,-45.25503 -34.9297,-75.13281 4.3939,-4.39394 16.6955,-6.5918 36.9082,-6.5918 13.1818,-9.66769 13.1818,-19.3329 0,-28.99805 h -74.3692 c 5.5025,-24.31447 15.6486,-51.30063 21.209,-71.81445 35.0562,-90.35348 53.1797,-170.62223 53.1797,-242.94336 0,-31.59994 -6.1,-56.59965 -12.5,-78.09961 h 103.1016 v -31.59961 h -115.6016 c -15.8,-26.19994 -39.3986,-40.59961 -71.8984,-40.59961 -32.5,0 -53.0008,14.39967 -68.8008,40.59961 H 980.69562 c -8.1,-12.49998 -13.1,-27.00082 -12.5,-43.80078 21.5,-9.49998 44.69958,-29.99889 65.59958,-56.29883 20.9,-26.19994 27.4,-60.19969 25,-103.0996 -1.2,-47.699912 -17.8,-77.400028 -50,-87.500008 C 976.59522,5.5015825 939.99482,1.199998 899.39482,0 Z m 12.5,31.300781 c 16.3,0.3 33.6996,1.800791 53.0996,6.300781 38.79998,8.899982 62.00158,31.798902 65.60158,68.798828 1.2,38.19992 -12.4,72.60006 -37.49998,100 -25.1,27.39994 -41.6,33.80037 -50,21.90039 -9.5,-11.89998 -2.1012,-27.30004 18.7988,-50 20.9,-22.69996 24.4,-44.69965 12.5,-65.5996 -11.9,-20.899966 -34.199,-20.299968 -68.7988,0 C 892.496,99.601196 863.39592,89.301554 818.096,84.601562 c 8.39998,-23.899952 23.80006,-39.100406 50,-46.90039 13.19998,-3.999992 27.59882,-6.700391 43.79882,-6.400391 z M 805.69561,103.20118 c 36.99992,0 68.69889,8.30003 93.79881,24.99999 -1.2,14.29998 4.3016,16.79959 15.6016,3.09961 0.6,-0.7 2.5996,0.6 3.0996,0 10.8,-12.09998 19.8988,-17.59999 31.2988,-12.5 11.9,5.39998 14.0008,16.50043 6.3008,34.40039 -7.8,17.89996 -18.7008,31.19885 -31.3008,43.79883 -12.5,12.49998 -13.9988,25.60002 -6.2988,37.5 7.8,11.89998 13.1996,22.9008 15.5996,31.30078 2.6,15.09996 4.6004,27.79963 9.4004,40.59961 h -75.00001 c -6.49998,-25.89994 -19.70082,-37.89881 -43.80078,-31.29883 -27.99994,7.79998 -42.3,0.1 -37.5,-25 15.49996,-10.69998 20.99959,-18.30039 15.59961,-21.90039 -5.4,-3.6 -13.79963,-5.10078 -28.09961,-6.30078 0.7,-5.2 -4.10041,-11.79961 -9.40039,-15.59961 -3.2,-2.3 -7.10002,-1.29961 -12.5,-3.09961 11.89998,-30.99994 25.60002,-52.49963 37.5,-65.59961 13.09998,-7.19998 26.90158,-9.70154 40.60156,-3.10156 13.69998,6.59998 28.19885,11.3 43.79883,12.5 l -3.09961,-9.39844 c -9.49998,0 -20.70041,-2.20041 -34.40039,-9.40039 -13.69998,-7.19998 -26.29963,-9.09959 -40.59961,-3.09961 4.8,-8.39998 7.00039,-15.9004 9.40039,-21.90038 z m 112.50001,28.0996 c -3.9,3.7 -6.1004,6.50002 -9.4004,12.5 -6.6,11.89998 -6.6996,20.2 -3.0996,25 -7.2,3.6 -11.3,9.69963 -12.50001,15.59961 -1.2,5.89998 -0.30113,10.1 6.29881,12.5 6.6,2.4 16.8016,-3.69963 28.1016,-15.59961 11.3,-11.89998 18.2984,-20.5008 21.8984,-31.30078 3.6,-10.79998 3,-20.20002 0,-25 -3,-4.8 -9.7988,-6.09961 -18.7988,-3.09961 -4.5,1.6 -8.6,5.70039 -12.5,9.40039 z m 18.6992,3.19922 c 2.8,0.1 3.3996,2.40078 3.0996,6.30078 -0.6,7.79998 -3.9984,14.10041 -9.3984,21.90039 -5.4,7.79998 -7.7,13.19961 -12.5,15.59961 -4.8,2.4 -4.8,0.8992 0,-6.30078 4.8,-7.19998 2.1984,-8.59883 -3.1016,-6.29883 -5.4,2.4 -6.0996,-2.20041 -3.0996,-9.40039 3,-7.19998 7.7,-10.89961 12.5,-15.59961 6,-3.6 9.7,-6.40117 12.5,-6.20117 z m -122.20507,2.77734 c -6.69373,0.43594 -13.44453,3.02305 -18.39453,6.62305 l -9.40039,9.40039 v 12.5 l 3.09961,-3.09961 c 16.69996,8.39998 37.90043,7.60037 59.40039,-3.09961 l 18.80078,3.09961 v -9.40039 h -18.80078 c -10.69998,-7.79998 -19.39963,-14.19922 -28.09961,-15.69922 -2.15,-0.375 -4.37422,-0.46953 -6.60547,-0.32422 z m -5.89453,6.52344 c -2.4,4.8 -3.6,10.89961 0,15.59961 -4.8,-2.4 -8.9,-5.09883 -12.5,-6.29883 1.2,-3.5 6.50002,-6.90078 12.5,-9.30078 z M 824.39483,147 l 18.80078,9.40039 c -7.19998,2.4 -15.90041,3.09961 -21.90039,3.09961 4.8,-3.6 6.69961,-7.80002 3.09961,-12.5 z m 78.20119,34.30078 c 7.2,3.6 7.2996,6.40039 3.0996,9.40039 -4.2,3 -5.1008,3.6 -6.3008,0 -1.2,-3.6 -0.3988,-7.00039 3.2012,-9.40039 z M 790.096,196.90039 c -1.2,0.6 -0.6,3.90078 0,6.30078 0.6,2.4 -0.70156,4.49883 -3.10156,6.29883 -2.4,1.8 -6.39844,0.50039 -9.39844,-3.09961 -3,-3.6 -5.10078,-6.29883 -6.30078,-6.29883 -2.4,0 -2.49961,1.89961 -3.09961,3.09961 -0.6,1.2 -3.09961,0.69961 -3.09961,3.09961 3.6,-2.4 8.9,1.5008 12.5,6.30078 3.6,4.8 8.30002,5.49961 12.5,3.09961 4.2,-2.4 4.29961,-7.7 3.09961,-12.5 -1.2,-4.79998 -1.89961,-6.80078 -3.09961,-6.30078 z M 769.76983,227.75 c 0.9,0.15 2.32461,0.45117 4.72461,0.45117 4.79998,1.2 9.70158,2.49961 15.60156,3.09961 h -18.80078 c -2.4,-1.2 -3.69961,-1.89961 -3.09961,-3.09961 0.3,-0.6 0.67422,-0.60117 1.57422,-0.45117 z m 26.52539,6.75 c -1.2,2.4 -2.1008,4.50078 -6.30078,6.30078 -4.2,1.8 -8.9,1.89961 -12.5,3.09961 -2.4,0 -5.09883,0.6 -6.29883,0 -1.2,-0.6 0.69961,-2.69883 3.09961,-6.29883 z M 330.69561,337.60156 H 815.096 c -11.49998,4.4 -25.20002,6.29883 -37.5,6.29883 -20.29996,0 -43.20045,13.19967 -71.90039,40.59961 -51.2999,32.19994 -111.29975,80.5009 -178.09961,143.80078 -16.69996,-25.09994 -85.80102,-76.79977 -206.30078,-153.09961 4.2,-12.09998 8.10039,-24.59963 9.40039,-37.59961 z m 540.59961,0 h 87.5 c 12.4,20.09996 26.9004,34.59846 46.90038,46.89844 40,24.49994 48.9,78.10094 25,156.30078 -23.9,78.09984 -31.40038,144.69973 -21.9004,203.09961 L 843.19561,784.5 c -4.79998,-143.19972 -17.80004,-240.4001 -37.5,-287.5 -19.69996,-47.0999 -36.70041,-78.99848 -46.90039,-96.89844 -10.09998,-17.89996 8.99969,-25 53.09961,-25 35.89992,0 55.40039,-13.50004 59.40039,-37.5 z m 512.49998,0 h 90.5996 c 9.3,18.19996 15.5996,43.19969 15.5996,78.09961 0,78.69984 -21.9,159.80057 -62.5,246.90039 -40.5998,-87.09982 -59.3984,-168.10055 -59.3984,-246.90039 0.1,-34.89992 6.3992,-59.99965 15.6992,-78.09961 z M 139.79522,409.30078 C 175.79518,544.60064 212.29486,683.80014 242.89483,822 l 2.20117,9.90039 c 18.79998,84.59991 38.29999,172.00121 24.5,256.70111 -6.59999,40.8999 -30.00122,90.8988 -75.70117,108.7988 -16.79998,6.6 -42.29885,5.6004 -66.29883,-2.5996 -24.59997,-8.4 -44.501178,-23 -53.201168,-39 -12.59999,-23.1 -35.4,-90.0993 -31,-177.69914 4.89999,-97.3999 43.80079,-324.50046 57.800778,-394.40039 7.99999,-39.89996 24.99962,-115.30045 38.59961,-174.40039 z M 1405.8499,759.75586 h 55.3633 l -1.3262,17.13867 c 1.7571,47.45102 21.9671,81.72065 60.6328,102.81055 l -168.7129,-2.63477 c 32.5147,-19.33283 50.5289,-52.72476 54.043,-100.17578 z m -387.6543,30.94531 c 39.4,48.8999 38.8996,105.80014 3.0996,175 l 43.8008,243.69913 h -300 l 75,-378.09952 z m 329.6484,120.63867 h 176.6309 c -20.2127,113.35996 -39.1045,170.04096 -56.6777,170.04096 h -67.2247 c -14.0615,0 -31.6386,-56.681 -52.7285,-170.04096 z" /></svg>
