<?xml version="1.0" encoding="UTF-8" standalone="no"?>
<svg
   width="18"
   height="18"
   version="1.1"
   id="svg9196"
   sodipodi:docname="US9A1VARA.svg"
   inkscape:version="1.2.1 (9c6d41e410, 2022-07-14)"
   xmlns:inkscape="http://www.inkscape.org/namespaces/inkscape"
   xmlns:sodipodi="http://sodipodi.sourceforge.net/DTD/sodipodi-0.dtd"
   xmlns="http://www.w3.org/2000/svg"
   xmlns:svg="http://www.w3.org/2000/svg">
  <defs
     id="defs9200" />
  <sodipodi:namedview
     id="namedview9198"
     pagecolor="#ffffff"
     bordercolor="#000000"
     borderopacity="0.25"
     inkscape:showpageshadow="2"
     inkscape:pageopacity="0.0"
     inkscape:pagecheckerboard="0"
     inkscape:deskcolor="#d1d1d1"
     showgrid="false"
     inkscape:zoom="32.674815"
     inkscape:cx="8.7376163"
     inkscape:cy="10.344358"
     inkscape:window-width="1920"
     inkscape:window-height="1137"
     inkscape:window-x="-8"
     inkscape:window-y="-8"
     inkscape:window-maximized="1"
     inkscape:current-layer="svg9196" />
  <path
     id="path9194"
     style="fill:#000000;stroke:none;stroke-width:0.99071"
     d="m 12.355483,0.00195313 c -0.170536,0.00499999 -0.341993,0.02216148 -0.513757,0.04882812 -0.732858,0.08666658 -1.270029,0.59906344 -1.610284,1.53906255 -0.0458,0.253333 -0.156889,0.4909377 -0.3335597,0.7109374 -0.176671,0.2133331 -0.290797,0.4489847 -0.3431439,0.7089844 0,0.1466666 0.090917,0.2238021 0.2741318,0.2304688 0.1832148,0.00667 0.2064228,0.069453 0.069012,0.1894531 -0.05889,0.013333 -0.082099,0.043177 -0.069012,0.089844 0.00655,0.046667 0.029751,0.07651 0.069012,0.089844 -0.085064,0.093333 -0.085064,0.158073 0,0.1914062 0.091607,0.04 0.1239408,0.1058856 0.097767,0.1992188 -0.01963,0.1 -0.0025,0.2224741 0.049842,0.3691406 0.05235,0.1533332 0.312932,0.2304688 0.784055,0.2304688 l 0.609607,-0.089844 c -0.02618,0.1 -0.01096,0.2193752 0.04793,0.359375 -1.17781,0.013333 -1.9109,0.2745835 -2.1988083,0.7812497 C 8.3002256,6.4903898 7.3620926,7.3803134 6.472194,8.3203125 6.295523,7.9469796 5.8926444,7.4357286 5.2644807,6.7890625 4.6428605,6.1490631 4.2803157,5.6808591 4.1756217,5.3808594 3.9596904,4.7275267 3.4982281,4.1061974 2.791544,3.5195312 c -0.1570409,0.1199999 -0.1570409,0.3134117 0,0.5800782 L 2.3506328,4.8203125 C 2.2655686,5.1336455 2.3473644,5.3960419 2.5960095,5.609375 2.975525,5.8427081 3.36432,6.0896096 3.7634656,6.3496094 4.862752,8.3362741 5.6665922,9.4103127 6.1769752,9.5703125 c 0.3860588,0.06 0.9989395,-0.290782 1.836491,-1.0507813 1.040396,-0.9266657 1.5079418,-1.2270569 1.4032479,-0.9003906 0,0.4333329 0.087875,0.8046618 0.2645466,1.1113282 0.6329873,1.8265352 0.9371193,2.8427752 1.3859943,4.3418432 L 7.9904622,10.636765 C 7.5093291,10.193644 7.0945145,9.9707031 6.7463258,9.9707031 c -0.1769616,0 -0.3355372,0.012996 -0.4773344,0.041016 -0.4168082,0.03534 -0.8123719,0.287989 -0.9565856,0.554687 -0.5736616,1.060889 -0.6563949,2.601531 -1.9515113,5.060547 -0.2234869,0.563857 -0.7213052,1.32565 -1.0677719,1.349609 -0.3464665,0.02396 -0.9252802,0.151365 -1.7387237,0.375 -0.6477417,0 -0.6477417,0.208074 0,0.607422 h 3.4256883 c 0.1506376,-0.143763 0.1515902,-0.473905 0.053676,-0.953125 -0.097915,-0.47922 0.9628479,-1.159553 1.3093145,-1.902343 0.1683783,-0.360987 0.3283939,-0.693869 0.4485793,-1.035157 0.077961,-0.408921 0.5798315,-1.007507 0.6364457,-2.132812 l 0.5846866,0.513672 2.4499327,1.71289 -2.4326797,0.773438 c -0.3908362,0.09416 -0.7730806,0.232892 -1.0811909,0.332031 -0.7217011,0.208111 -1.0635821,0.812228 -1.0255978,1.8125 -0.018914,0.384452 0.6441138,0.886719 0.6441138,0.886719 H 17.573572 c -0.316534,-0.637756 -0.757383,-0.893178 -1.320817,-0.765625 -0.563432,0.127552 -0.947621,-0.143131 -1.150203,-0.814453 -0.202583,-0.671326 -0.539291,-0.802085 -1.014095,-0.392578 0.446308,-0.894685 0.470622,-1.841079 0.08435,-2.835938 0.0075,-0.07977 0.0071,-0.167127 -0.0058,-0.267578 0.01963,-1.106666 0.06605,-2.094271 0.138025,-2.9609373 1.537692,0.4933323 2.554575,0.7402343 3.051872,0.7402343 0.386058,-0.04 0.578935,-0.209766 0.578935,-0.509766 C 17.59563,8.8134909 16.810039,7.310389 15.579886,5.6503906 15.331238,5.1437244 14.694025,4.8669795 13.666715,4.8203125 13.490044,4.5803127 13.396081,4.3694529 13.382999,4.1894531 c 0.425318,-0.1 0.781781,-0.3263545 1.069688,-0.6796875 C 14.747139,3.1564327 14.890589,2.582395 14.884013,1.7890625 14.877469,1.0023966 14.541176,0.48999976 13.873752,0.25 13.373184,0.07000018 12.867093,-0.01304686 12.355483,0.00195313 Z m -0.08435,0.45898437 c 0.315411,-0.006771 0.686545,0.038672 1.111864,0.13867188 0.67397,0.15333317 1.013305,0.58744862 1.019849,1.30078122 0.0066,0.706666 -0.189375,1.2221618 -0.58852,1.5488282 -0.392603,0.3333329 -0.719772,0.3569789 -0.981507,0.070312 -0.117781,-0.1199998 -0.140986,-0.2157295 -0.06901,-0.2890624 0.189755,-0.06 0.27763,-0.2111722 0.264547,-0.4511719 0.202841,-0.2533327 0.3048,-0.4684373 0.3048,-0.6484371 C 13.346242,1.804193 13.191784,1.6468233 12.871158,1.6601562 12.74029,1.6734895 12.629203,1.7157296 12.537599,1.7890625 11.896348,1.3557296 11.340927,1.1642705 10.869804,1.2109375 11.059561,0.87093784 11.35744,0.64263009 11.763129,0.52929688 11.912808,0.48679692 12.081889,0.465 12.271135,0.4609375 Z M 11.065339,1.546875 c 0.399964,0.0125 0.825233,0.1929691 1.276726,0.5429688 l -0.06901,0.1992187 c 0.07852,0.04667 0.154233,0.061016 0.226207,0.041016 0.104694,-0.2799997 0.221862,-0.4199219 0.352729,-0.4199219 0.157041,-0.02 0.229705,0.060235 0.216621,0.2402344 0,0.1666666 -0.0898,0.3538804 -0.266463,0.5605469 0,0.2133328 -0.05859,0.3028642 -0.176365,0.2695313 -0.117781,-0.026667 -0.167239,-0.094505 -0.14761,-0.2011719 -0.07852,0.2999997 -0.0089,0.6806254 0.207037,1.140625 0.209388,0.4666662 0.369931,0.823646 0.481168,1.0703125 0.111237,0.2466664 0.286989,0.3772917 0.529094,0.390625 0.242105,0.013333 0.521733,0.049375 0.835814,0.109375 0.314082,0.06 0.398917,0.2770577 0.254962,0.6503906 -0.143955,0.3733329 -0.444873,1.2097669 -0.90291,2.5097656 L 13.421338,8.4296875 C 13.100713,7.7696882 12.545292,7.2099995 11.753544,6.75 c -0.150498,0.1466666 -0.121206,0.3400784 0.08818,0.5800781 l -0.354646,0.7890625 c -0.04581,0.313333 0.07328,0.5602346 0.354646,0.7402344 0.392603,0.1799998 0.824773,0.2714844 1.295896,0.2714844 l 0.617276,0.5097656 -0.176365,3.298828 -0.529093,0.121094 -1.333358,0.321661 C 10.849282,10.567811 10.333099,8.6906214 10.162429,8.4394531 9.9857581,8.1794534 9.9362993,7.437603 10.01482,6.2109375 9.9821028,5.7909379 10.320314,5.5800781 11.026999,5.5800781 c 0.732857,0 1.069152,-0.1697659 1.010262,-0.5097656 L 11.899235,4.6601562 c -0.07197,-0.253333 -0.101267,-0.4107031 -0.08818,-0.4707031 -0.143955,-0.04 -0.345957,-0.02875 -0.607691,0.03125 -0.444949,0.04 -0.707451,0.019453 -0.785972,-0.060547 -0.07852,-0.08 -0.104771,-0.1900782 -0.0786,-0.3300781 L 10.65318,3.720703 c 0.07197,-0.04 0.08606,-0.1078389 0.04026,-0.2011719 L 10.250611,3.4804691 C 10.355305,3.2538026 10.343141,3.1026301 10.212271,3.0292972 10.0356,3.0426302 9.9477243,2.9972922 9.9477243,2.8906253 9.9935283,2.8039583 10.084445,2.6434896 10.221856,2.4101565 c 0.137411,-0.233333 0.304038,-0.3825521 0.500339,-0.4492187 0.202844,-0.066667 0.401804,-0.05737 0.598105,0.029297 0.196301,0.08 0.383094,0.1427864 0.559766,0.1894531 l 0.04984,-0.1191407 c -0.163583,-0.04 -0.333252,-0.107839 -0.509923,-0.2011719 -0.340255,-0.1799998 -0.63509,-0.1799998 -0.883739,0 0.03271,-0.1199999 0.07722,-0.2095313 0.136107,-0.2695312 0.127596,-0.033333 0.259665,-0.047135 0.392986,-0.042969 z m -0.01917,0.5136719 c -0.163584,0 -0.271627,0.026745 -0.323974,0.080078 -0.04581,0.053333 -0.107429,0.080078 -0.185949,0.080078 v 0.089844 l 0.136107,0.019531 c 0.176671,0.1799998 0.456299,0.2036457 0.835814,0.070312 l 0.245377,0.070312 0.01917,-0.1816406 -0.216621,-0.019531 C 11.346704,2.1495314 11.177036,2.0805469 11.046169,2.0605469 Z m 4.042964,5.1191406 c 0.255191,0.5333328 0.756988,1.3100791 1.502932,2.3300781 C 16.310701,9.3164325 15.61907,9.1137237 14.519784,8.9003906 Z m -1.391746,6.5156245 c 0.201806,1.025697 0.03239,1.909903 -0.521425,2.650391 -0.879966,0.577338 -1.94141,0.670616 -3.1822294,0.28125 -1.2344888,-0.389369 -2.4157603,-0.311351 -3.5426257,0.232422 0.1266143,-0.416221 1.051954,-1.112518 2.7739066,-2.085937 1.4793275,-0.338938 2.9936195,-1.01797 4.4723735,-1.078126 z"
     sodipodi:nodetypes="sccccsccccccccccccccccccccccccscscscccsscccccccccsscccccccccccssscccccccccccsscccccccccsssscccccccccccccsccccsccccccscccccccsccccccccccccccccccccc" />
</svg>
