<?xml version="1.0" encoding="UTF-8" standalone="no"?>
<!-- Generator: Adobe Illustrator 19.0.0, SVG Export Plug-In . SVG Version: 6.00 Build 0)  -->

<svg
   version="1.1"
   id="Ebene_1"
   x="0px"
   y="0px"
   viewBox="0 0 1475.5466 1799.7644"
   xml:space="preserve"
   width="1475.5466"
   height="1799.7644"
   xmlns="http://www.w3.org/2000/svg"
   xmlns:svg="http://www.w3.org/2000/svg"><defs
   id="defs1230">
	
	
</defs>
<style
   type="text/css"
   id="style1222">
	.st0{fill:#010101;}
</style>
<path
   id="XMLID_7_"
   style="display:inline;stroke-width:1.01827"
   class="st0"
   d="M 1386.0274,0.35491922 C 1347.0691,4.3184014 1294.6239,41.485032 1228.6912,111.78359 l -210.5785,223.20339 c -22.30009,-5.09133 -47.45129,-9.06337 -75.35182,-12.01635 -70.66764,-5.90595 -118.93243,16.49638 -144.89823,67.10421 -25.86396,50.60784 -46.53603,87.16331 -61.81001,109.56517 -22.40186,32.99182 -37.67551,57.73617 -45.92346,74.23208 0,5.90594 2.34242,11.8127 7.02644,17.61681 16.49591,5.90594 24.7427,16.49515 24.7427,31.76915 l -5.29419,10.59038 5.29419,12.32063 c 11.81189,12.93199 18.22858,28.81778 19.4505,47.65571 1.22192,18.83792 4.68244,30.64905 10.58839,35.33308 L 709.57769,872.2244 c -30.64982,9.46987 -38.28645,23.82747 -23.01245,43.27636 15.274,19.44888 33.60364,14.9685 54.78358,-13.23748 l 75.96234,-173.10543 44.19322,-19.44851 c 10.58998,18.83792 12.32022,39.40617 5.29417,61.80803 h 1.73024 C 831.97305,848.09099 789.00288,1050.0154 739.51514,1377.4899 L 508.0622,1038.3034 h -1.73026 C 480.46798,985.35355 446.25452,955.82453 403.89465,950.02042 l 58.44893,-294.07639 c 22.80917,-40.62882 34.51887,-77.18389 34.72252,-108.64832 0.20365,-30.34434 -10.38635,-55.1909 -30.03888,-70.05758 -25.45666,-19.24524 -60.28184,-16.69917 -82.88736,6.00817 -17.31052,17.41235 -24.54024,43.27758 -20.36534,73.01095 3.66576,26.06763 15.88459,54.37551 36.24992,84.51619 L 341.9832,935.8661 136.19178,695.14732 c 6.61873,-37.47219 6.21063,-69.64951 -1.32454,-95.71712 -8.45161,-29.12242 -25.65916,-49.99654 -48.671988,-58.6518 -29.835201,-11.20093 -62.623845,1.12092 -77.7960173,29.32689 -11.6082367,21.58725 -11.2001356,48.46995 1.3245412,75.75948 12.8301581,28.10415 37.7761581,55.90211 74.2300961,82.68251 0.101827,1.32375 0.204448,2.74893 0.306275,4.1745 L 289.23815,974.7651 252.17282,999.50781 c 54.17177,49.48779 82.98878,85.43349 86.55272,107.73349 118.93349,356.9023 176.66937,547.1154 173.10544,570.6374 -3.56394,27.0859 -20.8757,49.7921 -52.13648,68.019 -31.26077,18.227 -39.20168,36.2508 -23.82587,53.8668 H 1137.25 c 23.5219,-11.8119 23.5219,-28.3074 0,-49.4874 -61.1978,-74.2316 -80.9519,-145.715 -59.1609,-214.6515 21.7909,-68.9366 40.9347,-224.1201 57.4306,-465.551 12.932,-144.89937 -4.6841,-246.11573 -52.9499,-303.85143 51.8297,-37.67585 80.9527,-95.10544 87.4696,-172.29003 6.5169,-77.18457 -1.7319,-138.68884 -24.7447,-184.61265 -12.8302,-25.55848 -39.4074,-45.92467 -79.8326,-60.89317 5.295,-3.66577 20.8745,-7.73764 46.8403,-12.01437 26.3731,-4.37855 62.7265,5.29422 109.1595,29.22348 l 114.8593,-199.47896 c 8.7571,-16.29226 28.2068,-21.38241 58.3476,-15.06916 42.6653,7.53517 68.4263,-9.3685 77.1834,-50.81194 13.4411,-55.088202 -9.7747,-88.284576 -69.9542,-99.58733183 -5.0149,-0.78915635 -10.3051,-0.90033068 -15.8706,-0.33411895 z m 1.9988,39.94113578 c 3.5927,-0.468164 6.9612,-0.46697 10.1051,0.004 32.5844,4.887679 44.4978,21.893571 35.7407,50.710507 -3.7675,23.827428 -21.9942,30.140698 -54.5787,18.837938 -32.5845,-10.08083 -57.7361,1.83252 -75.2503,35.74079 l -99.7902,169.44007 c -25.0494,-17.616 -54.5796,-24.43921 -88.4879,-20.67162 L 1279.5031,119.3172 c 47.2221,-49.449557 83.3736,-75.743976 108.5231,-79.021122 z M 919.74845,358.40713 c 43.58184,0 90.11635,10.28492 139.60405,30.95572 49.4878,20.56898 74.2321,69.64837 74.2321,147.44391 -10.59,115.4714 -31.7699,173.10544 -63.6417,173.10544 -28.3078,0 -47.6557,-31.26087 -58.3476,-93.68059 21.18,-35.33385 31.7712,-64.76103 31.7712,-88.28298 0,-23.52195 -12.3214,-36.25111 -37.0653,-37.98216 -24.74393,-1.73106 -43.58187,3.25965 -56.51387,14.96972 -4.68403,-25.86396 -27.08631,-42.97169 -67.10422,-51.21964 -49.48768,-10.58997 -71.27789,-16.49474 -65.37195,-17.61483 24.7439,-51.82976 58.85545,-77.69459 102.43729,-77.69459 z M 796.1304,466.24203 c 23.52196,3.56394 60.07746,11.81072 109.56515,24.7427 16.49593,35.33384 31.26121,52.9499 44.1932,52.9499 12.932,0 25.35527,-5.2946 37.06534,-15.88457 9.46988,-8.24796 15.57871,-5.59967 18.53161,7.94328 2.953,13.54294 -8.55218,35.02723 -34.41617,64.45513 16.49593,96.53163 42.97047,163.73821 79.52627,201.41406 -58.85575,24.74387 -108.9546,26.47413 -150.19443,5.29419 12.932,-40.01786 16.49634,-73.61916 10.59039,-100.70504 -18.83795,-34.21375 -47.14659,-43.37857 -84.82247,-27.39179 -37.67585,15.88496 -55.90168,13.23666 -54.78159,-7.94328 l -15.88656,-28.30664 c 34.11193,-3.56393 51.21964,-7.6386 51.21964,-12.32262 0,-9.46988 -17.61605,-15.88457 -52.9499,-19.44851 1.22192,-7.02603 -5.2946,-19.44932 -19.4485,-37.06532 z m 15.12088,29.07034 c -12.70919,0.14244 -21.22452,6.35821 -25.71125,18.48195 1.22192,15.27399 11.50684,22.0964 30.95572,20.36534 19.4489,-1.73105 43.27716,-6.8216 71.58499,-14.96773 -35.33387,-15.27399 -60.07818,-23.21689 -74.23209,-23.82785 -0.88462,-0.0445 -1.75009,-0.0612 -2.59737,-0.0517 z m -382.20623,21.84302 c 2.13836,0 4.37974,0.712 6.31445,2.2394 9.77536,7.43334 15.06954,32.78904 -1.83367,75.65805 -11.60824,-20.36532 -16.08783,-35.74238 -17.51341,-46.02687 -1.83288,-12.72833 0.20207,-23.11468 5.49706,-28.51149 2.24019,-2.24018 4.88808,-3.35909 7.53557,-3.35909 z M 63.793371,589.35094 c 1.323748,0 2.647893,0.20286 3.97164,0.71199 11.404583,4.48038 23.622609,27.29001 19.651367,73.21382 C 70.411335,647.08632 61.859061,633.64516 57.582338,624.07346 52.185532,612.36339 51.16646,601.773 54.730396,595.15427 c 2.036534,-3.76759 5.295387,-5.80333 9.062975,-5.80333 z M 1073.6083,840.86296 c 12.932,22.1982 20.2631,65.77933 21.9941,130.54107 1.7311,64.76177 -4.9895,161.90547 -20.3653,291.53077 -15.274,129.5235 -32.3797,229.6177 -51.2176,300.2854 -18.838,70.6676 -5.9067,128.4036 38.897,173.1054 H 540.03619 c 12.93198,-12.932 21.48664,-34.4162 25.66152,-64.4551 4.07307,-30.0389 -9.67436,-82.1742 -41.5461,-156.304 L 391.67544,1116.3043 c 8.24795,-51.8298 35.94488,-64.1512 82.98878,-37.0653 l 178.39963,268.5162 68.93789,84.8225 c 35.33384,23.522 58.34593,11.2006 68.9359,-37.0653 16.49591,-131.8655 33.90753,-247.0309 52.13447,-345.3955 18.22698,-98.36453 33.29856,-164.0433 45.00863,-196.93331 49.48769,24.74388 111.29587,20.56937 185.52756,-12.32063 z m -691.3578,145.9881 c 17.98512,0.88303 30.52774,5.73294 37.63015,14.59194 9.46987,11.8118 -8.85778,23.5211 -54.78159,35.333 -30.64982,-30.6498 -31.46602,-47.14539 -2.64908,-49.4874 7.20423,-0.5855 13.80548,-0.73188 19.80052,-0.43754 z" />
</svg>
