<?xml version="1.0" encoding="UTF-8" standalone="no"?>
<svg
   xml:space="preserve"
   viewBox="0 0 1250.1614 1796.9519"
   y="0px"
   x="0px"
   id="Ebene_1"
   version="1.1"
   sodipodi:docname="US9A2VARC.svg"
   width="1250.1614"
   height="1796.9519"
   inkscape:version="1.2.2 (732a01da63, 2022-12-09)"
   xmlns:inkscape="http://www.inkscape.org/namespaces/inkscape"
   xmlns:sodipodi="http://sodipodi.sourceforge.net/DTD/sodipodi-0.dtd"
   xmlns="http://www.w3.org/2000/svg"
   xmlns:svg="http://www.w3.org/2000/svg"
   xmlns:rdf="http://www.w3.org/1999/02/22-rdf-syntax-ns#"
   xmlns:cc="http://creativecommons.org/ns#"
   xmlns:dc="http://purl.org/dc/elements/1.1/"><sodipodi:namedview
     id="namedview273"
     pagecolor="#ffffff"
     bordercolor="#000000"
     borderopacity="0.25"
     inkscape:showpageshadow="2"
     inkscape:pageopacity="0.0"
     inkscape:pagecheckerboard="0"
     inkscape:deskcolor="#d1d1d1"
     showgrid="false"
     inkscape:zoom="0.49555556"
     inkscape:cx="894.95516"
     inkscape:cy="897.98206"
     inkscape:window-width="1920"
     inkscape:window-height="1137"
     inkscape:window-x="-8"
     inkscape:window-y="-8"
     inkscape:window-maximized="1"
     inkscape:current-layer="Ebene_1" /><metadata
     id="metadata64"><rdf:RDF><cc:Work
         rdf:about=""><dc:format>image/svg+xml</dc:format><dc:type
           rdf:resource="http://purl.org/dc/dcmitype/StillImage" /></cc:Work></rdf:RDF></metadata><defs
     id="defs62" /><style
     id="style52"
     type="text/css">
	.st0{fill:#010101;}
</style><g
     id="XMLID_1_"
     transform="matrix(1.0324642,0,0,1.0324642,-382.37015,-23.385314)"><path
       id="XMLID_2_"
       class="st0"
       d="m 1085.0195,22.6875 c -15.7125,0.225 -31.5199,1.462893 -47.4199,3.712891 C 971.59968,33.000384 921.50075,79.200086 887.30078,165 c -5.39999,23.99998 -16.20041,46.19963 -32.40039,66.59961 -16.79998,20.39998 -27.90079,42.30119 -33.30078,65.70117 -1.2,14.99999 6.60041,22.5 23.40039,22.5 16.19998,0 18.30077,6.59884 6.30078,19.79883 -4.79999,0 -6.90078,2.10078 -6.30078,6.30078 0.6,4.8 2.70078,7.19922 6.30078,7.19922 C 843.50079,362.0996 843.2004,368.4 850.40039,372 c 7.19999,3 9.89961,9.3004 8.09961,18.90039 -1.8,8.99999 -0.3,20.39923 4.5,34.19922 4.2,13.79999 26.70004,21.3 67.5,22.5 l 59.40039,-5.40039 c -2.4,10.19999 -0.89999,21.90157 4.5,35.10156 -112.19989,4.2 -172.20001,26.70004 -180,67.5 -105.59989,38.39996 -201.90048,83.40005 -288.90039,135 36.59996,-54.59994 74.70082,-114.00123 114.30078,-178.20117 38.39996,-3 71.69847,-6.89922 99.89844,-11.69922 28.79997,-5.39999 40.50156,-39.90006 35.10156,-103.5 39.59996,-3.6 59.39844,-12.29962 59.39844,-26.09961 0,-13.79998 -31.50006,-16.50155 -94.5,-8.10156 -62.39994,8.39999 -107.99886,36.30122 -136.79883,83.70117 -172.79983,152.99985 -249.29998,276.89931 -229.5,371.69922 104.9999,-4.8 187.19967,-16.19924 246.59961,-34.19922 59.39994,-17.99998 122.70046,-43.50003 189.90039,-76.5 0,49.19995 8.39924,87.59925 25.19922,115.19922 15.89998,26.99997 53.89967,147.10021 114.09961,359.99999 l -25,-4.6992 -53.5,-9.5 c -32.79997,-3.3 -217.2997,-81.5 -304.09961,-112 -7.79999,-2.7 -15.79884,-4.0996 -23.79883,-4.0996 -49.99995,0 -99.70037,51.7993 -82.40039,140.1992 14.59999,74.9999 98.40039,315.4004 98.40039,315.4004 -40.99996,42.3999 -89.30078,87.2004 -89.30078,147.4004 0,12 -5.89964,20.7984 -32.09961,47.8984 -17.69998,18.2 -32.39961,36.9004 -32.09961,41.4004 1.6,23.8 12.19885,29 32.29883,29 8.29999,0 18.20118,-0.8992 29.70117,-1.6992 64.99994,-4.6 139.69926,-15.4 176.19922,-25.5 36.59996,-10.2 100.89922,-50.4004 104.19922,-50.4004 19.59998,0 309.70078,-134.2992 318.30078,-137.1992 10.3,-3.4 21.5996,-5.1016 32.5996,-5.1016 15.1,0 29.4008,3.2008 39.3008,9.3008 27.5,17 46.9,51.5001 10.5,111.5 -35.8,58.9999 -32,91.6992 -1,91.6992 6.2,0 13.4988,-1.3 21.7988,-4 35.9,-11.6 85.6,18.2003 81.5,-99.0996 -3.4,-96.4999 69.6008,-204.8988 59.8008,-222.7988 -18.7,-34 -37.7996,-38.8008 -51.5996,-38.8008 -5.4,0 -9.9008,0.6992 -13.3008,0.6992 -2.9,0 -5,-0.5 -6,-2.5 -8.1,-15.5 42.4008,-72.2001 22.3008,-144 l -1.7012,-5.7988 -16.2988,-55.9004 c 3.6,-196.1998 29.9993,-357.59935 79.1992,-484.19922 39,64.19994 84.9012,132.59929 137.7012,205.19922 -11.4,77.99992 -13.8012,194.1009 -7.2012,348.3008 -26.4,36.5999 -39.5996,84.6 -39.5996,144 0,60.5999 5.6996,90.6 17.0996,90 12,-0.6 21.3004,-23.1001 27.9004,-67.5 58.1999,0 87.3008,-17.4012 87.3008,-52.2012 0,-33 -7.8004,-71.6996 -23.4004,-116.0996 32.2,-113.0999 51.6988,-235.8009 58.2988,-367.80078 -11.4,-59.39994 -73.1985,-167.6986 -185.3984,-324.89844 -35.4,-69.59993 -104.1017,-99.90038 -206.1016,-90.90039 -15.6,-20.99998 -23.9992,-38.10079 -25.1992,-51.30078 42,-8.99999 76.5,-29.39925 103.5,-61.19922 27,-31.79997 41.3992,-84.90086 43.1992,-159.30078 2.4,-74.39993 -26.6989,-123.599634 -87.2988,-147.59961 -45.45,-17.549982 -91.7434,-25.987499 -138.8809,-25.3125 z m -1.7578,34.480469 c 29.1094,0.1875 62.7891,5.53126 101.0391,16.03125 61.1999,16.199984 91.2,56.401631 90,120.601561 -1.2,63.59994 -20.4016,110.39847 -57.6016,140.39844 -36.5999,29.39997 -66.8984,33.00076 -90.8984,10.80078 -10.2,-10.79999 -11.4016,-20.1004 -3.6016,-27.90039 15.6,-5.4 23.4004,-19.20041 23.4004,-41.40039 19.8,-23.99998 29.7012,-44.39924 29.7012,-61.19922 2.4,-29.39997 -10.8016,-44.70039 -39.6016,-45.90039 -13.2,3 -23.0992,8.40118 -29.6992,16.20117 -59.3999,-43.79995 -110.70043,-63.60039 -153.90039,-59.40039 18.59998,-32.999966 46.50121,-54.000008 83.70119,-62.999999 14.175,-3.599997 29.9953,-5.344922 47.4609,-5.232422 z M 946.15234,155.64844 c 43.11559,-2.16563 88.29696,15.65121 135.54686,53.45117 l -8.0996,18 c 8.4,4.2 15.0008,6.30078 19.8008,6.30078 10.8,-27.59997 22.1992,-41.40039 34.1992,-41.40039 15.6,0 22.7996,7.80041 21.5996,23.40039 -1.2,17.39998 -10.4984,35.09963 -27.8984,53.09961 0,18.59998 -5.1008,26.70078 -15.3008,24.30078 -10.8,-3 -14.9996,-9.60079 -12.5996,-19.80078 -9,7.79999 -9.3004,29.69925 -0.9004,65.69922 9,36.59996 20.3992,74.70082 34.1992,114.30078 13.8,39.59996 31.8,62.10001 54,67.5 17.4,1.2 46.5008,2.09922 87.3008,2.69922 40.8,0.6 40.1992,60.30168 -1.8008,179.10156 -42.5999,118.79988 -67.1988,277.49981 -73.7988,476.09962 l -1.5,0.2988 -169.9004,6.5 C 945.00008,934.99947 898.70037,798.99998 881.90039,777 c -16.79998,-22.19998 -22.79999,-69.59929 -18,-142.19922 0,-68.39993 39.00008,-106.50079 117,-114.30078 47.39991,1.2 68.40001,-10.19924 63.00001,-34.19922 -4.8,-23.39998 -10.4996,-50.40003 -17.0996,-81 -13.2,-6.59999 -31.80082,-6.59999 -55.8008,0 -40.79996,2.4 -64.49962,-0.30157 -71.09961,-8.10156 -6.59999,-7.79999 -8.70078,-18.30001 -6.30078,-31.5 L 921.5,355.80078 c 7.79999,-4.19999 9.90078,-9.30079 6.30078,-15.30078 l -41.40039,-8.09961 c 10.19999,-19.79998 9.29882,-33.6004 -2.70117,-41.40039 -15.59999,1.2 -23.39844,-2.99962 -23.39844,-12.59961 2.4,-8.99999 11.09963,-24.00002 26.09961,-45 14.39999,-20.99998 30.29924,-34.50001 47.69922,-40.5 17.99998,-5.99999 36.00002,-4.80038 54,3.59961 17.39999,8.39999 34.20039,15.29922 50.40039,20.69922 L 1043.9004,205.5 c -14.4,-5.39999 -30.0008,-12.00079 -46.80079,-19.80078 -29.39997,-18.59998 -56.40003,-19.19881 -81,-1.79883 3.6,-11.99999 7.50118,-20.69961 11.70117,-26.09961 6.075,-1.125 12.19219,-1.84297 18.35156,-2.15234 z m -4.95312,57.42383 c -9.37968,0.12187 -16.29883,1.90273 -20.79883,5.42773 -5.29999,5.29999 -11.70001,8.7 -19,10 l -3,11 h 16 c 17.29998,20.69998 45.70004,24.29999 85,11 l 22.00001,5 5,-16 -20,-4 c -21.99999,-13.29999 -40.40002,-20.7 -55.00001,-22 -3.675,-0.325 -7.07461,-0.46836 -10.20117,-0.42773 z M 525.40039,1074.5996 c 12.39999,0 30.59885,9.7996 47.29883,18.5996 42.49996,22.5 190.40082,74.1016 227.80078,98.6016 L 595.09961,1380 c -0.1,0 -0.0992,0.1 -0.19922,0.1 -5.59999,-0.1 -58.60002,-173.7001 -80.5,-261.5 -8.39999,-33.4 -1.89999,-44 11,-44 z M 1087,1229.0996 c 1.1,0 2.1992,-4e-4 3.1992,0.1 11.7,0.4 59.2004,-1.9983 68.9004,80.6016 5.9,50.7999 -31.1,76.2996 -57.5,128.5996 -29.3,57.7999 -215.99902,71.9997 -416.29882,180.0996 -0.4,0.2 -123.50117,63.4004 -123.70117,62.9004 -7.19999,-19.8 46.80078,-124.2012 46.80078,-124.2012 25.29998,-63.5003 348.39974,-328.1 478.59961,-328.1 z" /></g></svg>
