<?xml version="1.0" encoding="UTF-8" standalone="no"?>
<svg
   xml:space="preserve"
   viewBox="0 0 1645.1699 1797.9457"
   y="0px"
   x="0px"
   id="Ebene_1"
   version="1.1"
   width="1645.1699"
   height="1797.9457"
   xmlns="http://www.w3.org/2000/svg"
   xmlns:svg="http://www.w3.org/2000/svg"
   xmlns:rdf="http://www.w3.org/1999/02/22-rdf-syntax-ns#"
   xmlns:cc="http://creativecommons.org/ns#"
   xmlns:dc="http://purl.org/dc/elements/1.1/"><metadata
     id="metadata3799"><rdf:RDF><cc:Work
         rdf:about=""><dc:format>image/svg+xml</dc:format><dc:type
           rdf:resource="http://purl.org/dc/dcmitype/StillImage" /></cc:Work></rdf:RDF></metadata><defs
     id="defs3797" /><style
     id="style3788"
     type="text/css">
	.st0{fill:#010101;}
</style><path
     id="XMLID_4_"
     class="st0"
     d="M 271.54319,0.03274119 C 250.22283,-1.1340449 230.28216,28.885097 211.9318,89.982252 194.53609,28.779026 170.88166,2.8975113 140.96952,12.019656 c -28.85144,17.289643 -18.9876,50.172314 29.38099,98.540894 -38.07966,21.95679 -57.06526,48.47473 -57.06526,79.55367 0,16.75928 8.37926,29.4879 25.03248,38.18576 -8.80393,5.62179 -9.86423,17.60831 -3.28781,35.95867 8.06143,22.69929 21.53214,44.76222 40.41285,66.29473 18.88072,21.5325 46.14116,46.35247 81.6751,74.4614 -9.75857,129.40718 -3.81772,250.75246 17.82085,364.03677 55.05109,21.5325 129.4074,39.35338 223.28063,53.35482 93.87324,14.00143 146.16662,35.00365 156.98591,63.11258 l -1.59107,-1.59108 c 6.47036,71.17395 16.22896,119.96693 29.16968,146.37873 12.94072,26.4118 40.41206,144.7887 82.52243,355.1284 L 485.38304,1178.382 c -42.11037,-37.7614 -78.7043,-56.6426 -109.99538,-56.6426 -89.52431,1.0607 -128.3474,37.7629 -116.4674,109.9975 l 46.88487,336.5638 c -66.82502,17.2896 -98.11619,68.5227 -93.87333,153.6981 -30.23036,5.4096 -58.23414,13.7889 -84.11557,25.0324 -25.88144,11.3497 -51.762116,16.2303 -77.643555,14.5331 C 24.291246,1759.9733 7.5310701,1772.0641 0,1797.9456 h 1347.7448 c -28.0029,-53.8842 -67.4603,-75.2039 -118.0564,-63.8542 -50.7022,11.3496 -85.175,-11.0323 -103.5254,-67.1442 -18.3504,-56.1117 -49.1115,-67.9914 -92.1766,-35.6396 40.9436,-78.705 43.1707,-161.2293 6.4699,-247.5714 2.1215,-187.6404 21.533,-355.4443 58.2338,-503.20179 v -1.59107 c 9.7585,-25.88143 59.8248,-44.23227 150.5159,-55.05156 90.585,-10.81928 163.4547,-29.17011 218.3997,-55.05155 21.5325,-107.87467 27.4733,-226.99285 17.8208,-357.56681 35.6401,-26.94214 62.7944,-51.55121 81.6751,-73.61408 16.0168,-18.77464 28.1098,-38.50441 36.3834,-59.29441 27.6847,-4.77322 41.6849,-10.60593 41.6849,-17.28842 -9.9707,-5.94 -21.2131,-11.24359 -33.7295,-15.91074 -0.1061,-11.34964 -4.9858,-18.45645 -14.7444,-21.21431 -2.3335,4.87929 -4.8797,9.54479 -7.3193,14.21193 -18.4565,-5.09143 -39.0352,-9.01608 -61.8406,-11.66787 -108.405,-10.395 -135.0275,-25.98755 -215.7479,-46.67148 -80.7203,-20.79001 -326.48897,-1.69713 -599.729,25.98753 C 582.97024,224.268 458.5481,212.60011 378.99451,166.56509 341.76343,138.13795 306.65407,123.60734 251.60298,116.39449 290.84941,88.709838 309.19901,47.872235 306.97151,29.415805 304.63793,10.959373 292.86355,1.1995273 271.54319,0.03274119 Z M 149.9856,233.39017 c 13.04679,4.56107 29.70047,7.42625 49.74797,8.69911 48.79287,-12.41036 95.88873,-7.74361 141.07518,13.89496 -15.06215,6.57643 -25.66891,22.27505 -31.92713,47.20185 -11.88,33.51858 -36.06603,39.67033 -72.76674,18.66818 -34.36716,-19.72929 -63.11177,-49.21766 -86.12928,-88.4641 z m 1095.5825,22.65 c 17.9722,0.45268 34.2383,1.46885 48.5049,3.12622 43.7015,5.09144 74.5683,11.56222 100.768,17.39615 9.8647,49.74751 20.6844,92.06932 32.2462,126.96683 -23.9722,126.22503 -40.0955,226.46409 -48.6873,300.92625 -114.345,6.47037 -204.3991,17.82005 -270.1634,33.9429 -23.76,-21.5325 -69.5826,-42.11043 -137.46833,-61.5215 V 623.5222 c 26.94218,-9.75858 52.82283,-29.70049 77.64353,-59.82478 24.8208,-30.23036 37.2307,-71.70484 37.2307,-124.52842 0,-52.82358 -23.2292,-88.46288 -69.5825,-106.81323 -46.35329,-18.35036 -98.96404,-23.44181 -157.72758,-15.38038 -58.7636,8.06143 -100.02677,51.55169 -123.78677,130.2567 -15.06215,18.35036 -31.28989,43.17033 -48.57954,74.46141 -9.75857,20.47179 -10.28893,32.14051 -1.59107,34.7923 8.59179,2.65179 15.59128,6.78692 21.00093,12.0905 -6.47036,4.34892 -8.91043,8.38007 -7.31935,12.09257 1.59107,3.81858 5.09185,6.15257 10.50149,7.31935 2.12144,-1.06071 0.84982,0.52995 -4.02947,4.87888 -4.87928,4.34894 -4.03195,8.38007 2.4384,12.09257 6.47036,3.81858 9.75983,14.85087 9.75983,33.20123 0,17.28964 11.34967,25.34945 33.94289,24.28873 18.35036,1.06072 32.35101,4.1e-4 42.10959,-3.2878 l 3.2878,21.00299 C 746.42561,687.69589 697.4217,706.57709 648.84097,736.80745 589.54703,720.57852 495.14274,707.6361 365.73556,697.9836 355.97699,623.52144 339.3229,522.75409 315.56289,395.46834 c 13.365,-37.125 24.82158,-82.09861 34.26194,-134.92219 6.25821,3.28822 12.51604,6.99948 18.66818,10.92413 53.56608,34.57929 170.35028,44.97516 350.24746,31.07979 191.65782,-25.24501 401.02163,-49.67857 526.82763,-46.5099 z m 176.7459,26.56762 c 29.5939,6.04607 56.6417,9.54686 96.6307,6.25864 14.0015,-1.16679 26.837,-2.33399 38.5048,-3.60685 -15.3803,17.82 -32.4583,32.24535 -51.339,43.06464 -36.7008,21.00215 -60.9907,14.84999 -72.7647,-18.56252 -2.7578,-10.71322 -6.4708,-19.83498 -11.0318,-27.15391 z m -511.26497,57.62462 c 20.8961,1.21982 44.02013,5.06492 69.37123,11.53528 50.70214,12.94072 76.05244,42.63915 76.05244,88.99238 0,46.35323 -16.9714,85.70668 -50.9143,118.05847 -33.94293,32.3518 -55.7924,40.94403 -65.55098,25.88188 -9.75858,-14.00144 -1.06241,-34.47328 25.87976,-61.52151 26.83611,-26.83607 33.62471,-53.35526 20.1536,-79.23669 -13.47109,-25.88144 -42.85249,-28.00246 -88.14504,-6.46995 -15.06216,-17.28965 -51.23182,-30.22999 -108.4043,-38.82178 10.81929,-28.00286 32.66883,-46.14072 65.55096,-54.20215 16.44109,-4.03072 35.11054,-5.43576 56.00663,-4.21593 z m -136.30195,84.1943 c 46.35323,3.28821 84.1156,15.06177 113.28527,35.63963 -1.06071,17.28964 5.93874,18.0309 21.0009,2.4384 15.06216,-15.59251 30.23167,-20.25967 45.29383,-13.7893 15.06216,6.47035 17.28924,20.47307 6.46994,42.11165 -10.8193,21.5325 -24.50295,39.88334 -41.26226,55.05155 -16.75931,15.06215 -20.79045,29.91054 -12.09258,44.44233 8.59179,14.53179 15.06301,27.26123 19.41194,37.97445 v 79.23462 c 64.70355,19.41108 104.58698,34.47451 119.75518,45.2938 15.1683,10.81929 11.9844,70.85591 -9.6542,179.79129 -21.5325,108.93537 -37.76021,260.51147 -48.57947,454.62227 l -152.10704,33.9429 c -61.52145,-255.6323 -98.43442,-394.268 -110.84478,-415.8005 -12.41037,-21.53252 -22.69933,-71.70485 -30.76076,-150.51595 -8.06142,-78.70502 40.73159,-127.81501 146.37876,-147.22608 0,-48.58072 -18.35084,-70.64365 -55.05156,-66.29473 -36.70072,4.34894 -52.29244,-8.06312 -46.8828,-37.23277 22.69929,-11.88 30.76117,-20.78921 24.2908,-26.7292 -6.47035,-5.94 -18.35205,-9.44078 -35.6417,-10.5015 0,-9.75857 -8.59016,-17.82045 -25.8798,-24.2908 17.28964,-38.82215 33.94167,-65.23319 50.1706,-79.23463 16.22893,-8.59178 32.88304,-8.91083 50.17268,-0.8494 17.28964,8.06143 34.47204,13.7893 51.76166,16.97145 v -11.34883 c -11.88002,-1.06071 -26.41099,-6.15216 -43.70064,-15.38037 -17.28964,-9.12215 -35.00446,-10.50192 -53.35482,-4.03155 7.53107,-10.81929 13.47192,-18.87908 17.82085,-24.28873 z m 167.26986,29.28362 c -2.74523,0.0589 -5.88782,0.58837 -9.43453,1.58279 -11.34966,3.28821 -21.85201,11.56139 -31.50453,25.03247 -9.75858,13.47108 -12.40994,23.97136 -8.06101,31.50243 -8.5918,4.34892 -13.7893,9.97073 -15.38038,16.97145 -1.59107,7.00071 1.37936,12.09215 8.91044,15.38037 7.53108,3.28822 19.09161,-2.43965 34.7902,-16.97145 15.59252,-14.42572 25.88188,-27.68344 30.6551,-39.56345 4.87929,-11.88 5.62264,-21.00259 2.4405,-27.47295 -2.26071,-4.44837 -6.37618,-6.59127 -12.41579,-6.46166 z m -162.36198,11.3074 c -6.94602,-0.11192 -13.38988,1.48832 -19.3332,4.80636 l -16.22977,14.53305 v 11.34883 h 8.06102 c 21.53251,10.81929 45.29424,10.81929 71.17567,0 l 25.87979,4.87888 v -12.93991 l -24.28871,-3.2878 c -16.91509,-12.66891 -32.00421,-19.12577 -45.2648,-19.33941 z m 157.54114,4.10198 c 4.38892,0.21233 6.14472,2.89252 5.24969,8.02373 -1.59107,9.12215 -5.93916,18.35081 -12.93988,27.47295 -7.00072,9.12215 -14.00229,15.06092 -21.00302,17.81878 -7.21286,2.75786 -7.21244,-0.2105 -0.10607,-8.90835 7.00072,-8.59179 7.00072,-11.56222 0,-8.91043 -7.00072,2.65179 -8.3805,4e-4 -4.03157,-8.06102 4.34894,-8.06143 10.28979,-15.9124 17.82087,-23.44347 6.5897,-2.83079 11.59596,-4.15733 15.00955,-3.99219 z m -163.93443,5.58326 c -3.28822,5.40964 -3.28822,10.82014 0,16.22978 -6.47036,-1.06072 -11.34883,-3.28781 -14.53098,-6.46995 2.12143,-4.34894 6.99991,-7.53233 14.53098,-9.75983 z m 19.41192,3.28987 21.00093,11.34883 c -7.53107,2.12143 -15.59088,3.18215 -24.28874,3.18215 6.47037,-3.28822 7.53067,-8.06061 3.28781,-14.53098 z m 98.75221,45.18607 c 7.53108,4.34894 8.80478,8.48573 4.03156,12.19823 -4.87929,3.81858 -8.38007,3.49954 -10.5015,-0.8494 -2.12144,-4.34893 -4.3e-4,-8.06061 6.46994,-11.34883 z M 749.01023,539.1228 c -0.27276,-0.01 -0.56848,0.085 -0.8867,0.28382 -1.59107,1.06072 -2.44047,3.28988 -2.44047,6.47202 0,3.18215 -1.37769,5.0902 -4.02948,5.62055 -2.65179,0.53036 -5.94125,-1.0603 -9.75982,-4.87887 -3.81858,-3.81858 -6.789,-5.62262 -8.91043,-5.62262 -2.12143,0 -3.81816,0.53035 -4.87888,1.59107 -1.06071,1.06071 -1.06071,3.28987 0,6.47202 3.28822,-3.28822 7.31936,-1.91053 12.09258,4.02948 4.87929,5.93999 9.75775,7.31976 14.53097,4.03154 4.87928,-3.28821 7.00238,-7.31935 6.47202,-12.09257 -0.25855,-3.87824 -1.0078,-5.86638 -2.18979,-5.90644 z m -28.96873,35.52775 c 1.75018,-0.26518 4.10903,-0.13259 7.07904,0.39777 5.93999,1.06072 12.62211,2.12102 20.25925,3.28781 7.63714,1.16678 10.82054,1.59107 9.75983,1.59107 h -37.23071 c -3.28822,0 -4.35059,-1.0603 -3.28987,-3.28781 0.53036,-1.06071 1.67228,-1.72366 3.42246,-1.98884 z m 35.40138,10.04987 c -2.12143,2.12143 -6.15256,4.34852 -12.09257,6.46995 -5.93999,2.12143 -10.50108,3.81816 -13.7893,4.87888 -4.34893,0 -7.00031,-0.84733 -8.06102,-2.43841 -1.06072,-1.59107 0,-3.50119 3.18214,-5.62262 z M 370.40313,1222.1904 h 69.58252 l 310.68401,216.8107 -349.50578,105.1165 c 7.53107,-161.759 -2.65182,-269.1036 -30.76075,-321.9272 z m 626.03351,202.2777 c 23.86616,91.6457 9.22856,171.4129 -43.59499,239.4047 -77.64427,45.2925 -172.57855,52.0808 -284.80214,20.2593 -112.2236,-31.8215 -218.40144,-25.0333 -318.74504,20.2592 9.75857,-35.64 92.81319,-94.4046 249.16251,-176.3978 z"
     style="stroke-width:1.06072" /></svg>
