<?xml version="1.0" encoding="UTF-8" standalone="no"?>
<svg
   width="13.451796"
   height="17.985638"
   version="1.1"
   id="svg4"
   sodipodi:docname="US9A151VARA.svg"
   inkscape:version="1.2.1 (9c6d41e410, 2022-07-14)"
   xmlns:inkscape="http://www.inkscape.org/namespaces/inkscape"
   xmlns:sodipodi="http://sodipodi.sourceforge.net/DTD/sodipodi-0.dtd"
   xmlns="http://www.w3.org/2000/svg"
   xmlns:svg="http://www.w3.org/2000/svg">
  <defs
     id="defs8" />
  <sodipodi:namedview
     id="namedview6"
     pagecolor="#ffffff"
     bordercolor="#000000"
     borderopacity="0.25"
     inkscape:showpageshadow="2"
     inkscape:pageopacity="0.0"
     inkscape:pagecheckerboard="0"
     inkscape:deskcolor="#d1d1d1"
     showgrid="false"
     inkscape:zoom="28.121614"
     inkscape:cx="9.761175"
     inkscape:cy="7.0764074"
     inkscape:window-width="1920"
     inkscape:window-height="1137"
     inkscape:window-x="-8"
     inkscape:window-y="-8"
     inkscape:window-maximized="1"
     inkscape:current-layer="svg4" />
  <path
     id="path2"
     style="fill:#000000;stroke:none"
     d="M 11.791016,0.00195313 C 11.551149,-0.00867385 11.30757,0.01001318 11.058594,0.05859375 10.560641,0.15575488 10.237539,0.56273228 10.091797,1.2792969 9.9824903,1.4250385 9.8621121,1.6258111 9.7285156,1.8808594 c -0.060726,0.1700323 -0.055293,0.2612922 0.017578,0.2734375 0.072871,0.012145 0.140446,0.043216 0.2011718,0.091797 -0.060726,0.036435 -0.082671,0.07294 -0.064453,0.109375 0.018217,0.036436 0.051028,0.054687 0.099609,0.054687 0.085017,-0.012145 0.088703,-0.00128 0.00977,0.035156 -0.078944,0.036435 -0.088069,0.067506 -0.027344,0.091797 0.060727,0.02429 0.1009236,0.1101169 0.1191406,0.2558594 0.01822,0.1457416 0.09297,0.2241828 0.226563,0.2363281 0.133597,0.012145 0.310684,-6.738e-4 0.529297,-0.037109 0.109306,0.1335971 0.06737,0.2120381 -0.126953,0.2363281 -0.497953,0.072871 -0.8940642,0.1988957 -1.1855476,0.375 C 9.2358566,3.7796206 8.4238547,5.053327 7.9664098,5.6949844 7.5308626,5.8549074 6.7289185,5.4403923 6.1528922,5.4123299 5.8696971,5.3985334 5.6271456,5.3640796 5.0198875,5.3883694 4.3154689,5.2912084 3.7333571,5.4446104 3.2718406,5.8454007 c 0.060726,0.1093068 0.1811037,0.1329912 0.3632813,0.072266 0.1578869,0.4372252 0.3167229,0.6379975 0.4746094,0.6015625 0.063762,-0.030363 0.1972656,-0.109375 0.1972656,-0.109375 l 0.234375,-0.1640625 c 0,0 0.2759694,-0.2230623 0.4238281,-0.3652343 0.5829675,0.218612 2.5283216,0.8537229 3.293466,0.7201264 C 8.4165538,6.5156668 9.2556657,5.798084 9.9472656,4.9238285 L 10.474609,6.890625 c 0.01041,0.047867 0.01758,0.15625 0.01758,0.15625 0,0 -0.273093,0.9833803 -0.242188,1.0136719 -0.0047,0.011534 -0.01172,0.033203 -0.01172,0.033203 L 8.9257812,12.265625 C 8.7071688,12.80001 8.623294,13.309115 8.671875,13.794922 8.3561009,14.802971 8.1516357,15.551304 8.0605469,16.037109 7.969458,16.522917 7.8071428,16.825815 7.5703125,16.947266 7.3334816,17.068718 6.9775674,17.232985 6.5039062,17.439453 6.0180999,17.536613 5.751706,17.63874 5.703125,17.748047 c -0.048581,0.109306 0.026167,0.176882 0.2265625,0.201172 0.2003956,0.02429 1.0289098,0.03711 2.4863281,0.03711 0.2064686,-0.194323 0.2831696,-0.453545 0.2285156,-0.77539 -0.054653,-0.321847 0.1461187,-0.849203 0.6015626,-1.583985 0.455443,-0.734781 0.6214509,-1.442917 0.5,-2.123047 -0.012145,-0.206469 0.073682,-0.436357 0.2558592,-0.691406 0.182178,-0.255049 0.328193,-0.437569 0.4375,-0.546875 h 1.201172 c 0.03644,0.182178 0.158768,0.47421 0.365234,0.875 0.09716,1.1295 0.19016,2.01451 0.28125,2.658203 0.09109,0.643693 0.0309,1.054365 -0.18164,1.230469 -0.212541,0.176106 -0.555637,0.312996 -1.029297,0.410156 -0.485807,0.09716 -0.752201,0.199287 -0.800781,0.308594 -0.04858,0.109306 0.02986,0.176882 0.236328,0.201172 0.206468,0.02429 1.033242,0.03711 2.478515,0.03711 0.206466,-0.194323 0.268392,-0.453545 0.189454,-0.77539 -0.07894,-0.321847 -0.0935,-0.639304 -0.04492,-0.955079 0.04858,-0.279337 0.112466,-0.744766 0.191406,-1.394531 0.07894,-0.649765 -0.0032,-1.22275 -0.246094,-1.720703 L 12.861328,9.7695312 C 13.128521,8.882935 13.044646,8.0452945 12.607422,7.2558594 12.692438,6.7093271 12.904076,6.0066243 13.244141,5.1503906 13.584204,4.2941571 13.507504,3.7704942 13.015625,3.5761719 12.523745,3.381849 12.235411,3.0478798 12.150391,2.5742188 12.514744,2.4163317 12.7794,2.2355511 12.943359,2.0351562 c 0.163959,-0.2003947 0.246094,-0.5252383 0.246094,-0.9746093 0,-0.48580575 -0.229891,-0.7978303 -0.691406,-0.93750002 C 12.267289,0.05321234 12.030882,0.01258009 11.791016,0.00195313 Z m -0.21875,0.30273437 c 0.176104,0 0.377748,0.0219453 0.605468,0.0644531 0.455445,0.0850165 0.683594,0.31490696 0.683594,0.6914063 0,0.3886452 -0.120377,0.7080551 -0.363281,0.9570312 -0.242903,0.2489756 -0.414559,0.3128581 -0.511719,0.1914063 -0.09716,-0.1093065 -0.03871,-0.2790075 0.173828,-0.5097656 0.212541,-0.2307576 0.249044,-0.444349 0.109375,-0.6386719 -0.13967,-0.19432235 -0.391504,-0.19432235 -0.755859,0 C 11.36793,0.95124106 11.09415,0.8782328 10.693359,0.84179688 c 0.03644,-0.23075754 0.178759,-0.38763972 0.427735,-0.47265626 0.124488,-0.0425078 0.275067,-0.0644531 0.451172,-0.0644531 z m -1.097657,0.7558594 c 0.388645,-0.012145 0.71175,0.049997 0.966797,0.1835937 0.01214,0.1578871 0.07603,0.1670125 0.191406,0.027344 0.115379,-0.1396698 0.239452,-0.1889931 0.373047,-0.1464844 0.133597,0.042508 0.160978,0.1520201 0.08203,0.328125 -0.07894,0.1761043 -0.184763,0.3329866 -0.31836,0.4726562 -0.133597,0.1396691 -0.137254,0.4225758 -0.0098,0.8476563 0.127523,0.4250805 0.428683,0.740798 0.902343,0.9472656 0.430838,0.1878006 0.384766,0.8671875 0.384766,0.8671875 L 12.790981,5.224614 c 0,0 -0.515336,1.4686448 -0.585938,1.9023437 l -1.360327,0.1542652 -0.09862,-0.658176 c 0,0 -0.09709,-0.4190696 -0.169922,-0.6699219 C 10.412211,5.3883755 10.25707,4.9266419 10.111328,4.5683594 9.9655896,4.2100773 9.9473337,3.9673674 10.056641,3.8398438 10.165948,3.7123193 10.390404,3.6356191 10.730469,3.6113281 11.070532,3.5870381 11.221977,3.4136436 11.185547,3.0917969 11.149111,2.7699505 10.984844,2.6532654 10.693359,2.7382812 10.401878,2.8232979 10.274107,2.7502895 10.310547,2.5195312 10.492734,2.4102249 10.556603,2.3335236 10.501953,2.2910156 10.4473,2.2485078 10.341481,2.2265625 10.183594,2.2265625 10.171449,2.1536914 10.093007,2.0935027 9.9472656,2.0449219 10.056573,1.7291478 10.17695,1.5101237 10.310547,1.3886719 c 0.121452,-0.072871 0.258341,-0.083737 0.410156,-0.035156 0.151815,0.048581 0.301523,0.077699 0.447266,0.089844 v -0.089844 c -0.09716,0.012145 -0.221232,-0.015232 -0.373047,-0.082031 -0.151815,-0.0668 -0.306957,-0.070488 -0.464844,-0.00977 0.06072,-0.085016 0.108091,-0.1525911 0.144531,-0.2011719 z m 1.455079,0.1054687 c -0.03188,-0.00304 -0.06969,0.00522 -0.115235,0.023437 -0.09109,0.036435 -0.169528,0.1111834 -0.236328,0.2265625 -0.0668,0.1153791 -0.0833,0.1975128 -0.04687,0.2460938 -0.08501,0.036435 -0.130619,0.085758 -0.136719,0.1464844 -0.0061,0.060726 0.02869,0.09897 0.101563,0.1171874 0.07287,0.018217 0.169563,-0.034586 0.291015,-0.1621093 0.121451,-0.1275245 0.196203,-0.2407297 0.226563,-0.3378907 0.03037,-0.097161 0.02861,-0.170169 -0.0078,-0.21875 -0.01822,-0.02429 -0.04429,-0.037979 -0.07617,-0.041016 z m -0.04492,0.1269532 c 0.02885,0.00304 0.04211,0.024111 0.03906,0.060547 -0.0061,0.072871 -0.03715,0.1476197 -0.0918,0.2265625 -0.05465,0.078943 -0.105717,0.1336997 -0.154297,0.1640625 -0.04858,0.030363 -0.04858,0.00668 0,-0.072266 0.04859,-0.078941 0.04493,-0.1026282 -0.0098,-0.072266 -0.05465,0.030363 -0.06921,0.01211 -0.04492,-0.054687 0.02429,-0.066798 0.06622,-0.1380667 0.126953,-0.2109375 0.06072,-0.030363 0.105917,-0.044052 0.134766,-0.041016 z m -1.333985,0.083984 c -0.06832,0.00342 -0.130893,0.025416 -0.185547,0.066406 l -0.126953,0.1289062 0.01758,0.072266 h 0.05469 c 0.194323,0.060726 0.400528,0.042472 0.619141,-0.054687 l 0.21875,0.017578 V 1.517578 H 10.949225 C 10.797411,1.418899 10.664648,1.37126 10.550787,1.376953 Z m -0.05664,0.066406 c -0.02429,0.048581 -0.01886,0.097903 0.01758,0.1464844 -0.06072,-0.012145 -0.110045,-0.024964 -0.146485,-0.037109 0.01215,-0.036435 0.05604,-0.07294 0.128907,-0.109375 z m 0.18164,0.019531 0.181641,0.089844 c -0.08502,0.012145 -0.15802,0.024964 -0.21875,0.037109 0.06073,-0.024291 0.07355,-0.066228 0.03711,-0.1269532 z m 0.855469,0.3085938 c 0.06073,0.02429 0.07355,0.051668 0.03711,0.082031 -0.03644,0.030363 -0.06011,0.030363 -0.07226,0 -0.01215,-0.030363 -0.0013,-0.057741 0.03516,-0.082031 z m -1.210938,0.21875 c -0.01822,0.012145 -0.02368,0.026704 -0.01758,0.044922 0.0061,0.018218 -0.0031,0.036471 -0.02734,0.054688 -0.02429,0.018218 -0.05167,0.00909 -0.08203,-0.027344 l -0.04687,-0.054687 c -0.04858,0 -0.07593,0.00739 -0.08203,0.019531 -0.0061,0.012145 -0.0024,0.030396 0.0098,0.054687 0.04858,-0.024291 0.09051,-0.015164 0.126953,0.027344 0.03644,0.042508 0.07294,0.051634 0.109375,0.027344 0.03644,-0.02429 0.05297,-0.059054 0.04687,-0.1015626 -0.0061,-0.042504 -0.01889,-0.057067 -0.03711,-0.044922 z M 10.166016,2.28125 c 0.04858,0 0.105075,0.0037 0.171875,0.00977 0.0668,0.00607 0.101562,0.015199 0.101562,0.027344 l -0.310547,0.017578 c -0.03644,0 -0.05102,-0.00913 -0.04492,-0.027344 0.0061,-0.018217 0.03345,-0.027344 0.08203,-0.027344 z m 0.253906,0.054687 c -0.01215,0.036436 -0.04126,0.063814 -0.08984,0.082031 -0.04858,0.018218 -0.09248,0.03473 -0.128906,0.046875 -0.01215,0 -0.0267,-0.00739 -0.04492,-0.019531 -0.01821,-0.012145 -0.0091,-0.023011 0.02734,-0.035156 z M 4.2230125,5.5797752 c 0.1062702,-0.00607 0.1838414,0.039558 0.2324219,0.1367187 0.097161,0.1943231 -0.017784,0.37141 -0.3457031,0.5292969 C 3.9639895,6.1729202 3.8672966,6.0086521 3.8187156,5.7536038 3.9826754,5.6442974 4.1167424,5.5858484 4.2230125,5.5797752 Z M 0.78125,6.7070312 0.765625,8.2910156 H 0 V 9.9667969 H 0.765625 V 11.5 H 0 v 1.695312 h 0.765625 l -0.003906,4.791016 h 4.1425779 l -0.00391,-4.791016 H 5.6484375 V 11.5 H 4.9003906 V 9.9492188 H 5.6484375 V 8.2714844 H 4.9003906 l 0.00391,-1.5253906 z M 1.1835938,7.1953125 H 4.4257812 L 4.4648438,17.5 H 1.2207031 Z M 12.1875,7.65625 c 0.412936,0.4007899 0.498762,1.1106661 0.255859,2.1308594 l 0.109375,1.9863286 H 9.6191406 L 10.712891,7.8027344 Z M 4.9003906,8.9277344 H 5.2832031 V 9.2734375 H 4.9003906 Z M 0.36523438,8.9472656 H 0.765625 V 9.2929688 H 0.36523438 Z m 0,3.2265624 H 0.765625 v 0.345703 H 0.36523438 Z m 4.53515622,0 h 0.3828125 v 0.345703 H 4.9003906 Z"
     sodipodi:nodetypes="ssccscsccscsccscscccccccccccccccsscsscsscscccsscsscscscccsscsssssssscssccsscccscscscccccscsscscscccsccscccsscsssccccscsccscccccccccccccccccccccsscsscccscscssssccsscsccccssccsccccccccccccccccccccccccccccccccccccccccccccccccccccccccccccc" />
</svg>
