<?xml version="1.0" encoding="UTF-8" standalone="no"?>
<!-- Generator: Adobe Illustrator 19.0.0, SVG Export Plug-In . SVG Version: 6.00 Build 0)  -->

<svg
   version="1.1"
   id="Ebene_1"
   x="0px"
   y="0px"
   viewBox="0 0 1777.6624 1791.4126"
   xml:space="preserve"
   width="1777.6624"
   height="1791.4126"
   xmlns="http://www.w3.org/2000/svg"
   xmlns:svg="http://www.w3.org/2000/svg"><defs
   id="defs2896">
	
	
	
	
</defs>
<style
   type="text/css"
   id="style2886">
	.st0{fill:#010101;}
</style>
<path
   id="XMLID_31_"
   class="st0"
   d="m 1370.2748,0.02012973 c -51.1574,0.484659 -90.2875,9.70851857 -117.3908,27.62677027 -36.2381,23.891001 -60.7318,55.310086 -73.6812,94.05768 -12.9493,38.74758 -14.8554,64.64717 -5.8209,77.5965 v 19.37266 c -7.7295,24.59366 -14.8575,56.21548 -21.3823,95.06345 -1.305,23.28872 3.2122,34.93196 13.5516,34.93196 10.3394,0 19.3738,1.30536 27.1033,3.91531 0.6023,0.90344 -0.1004,2.30997 -2.0076,4.21724 5.4206,2.50956 9.5367,6.82564 12.4478,12.1459 l -5.4211,-5.01913 -66.5799,73.54395 c -3.5134,-2.71032 -7.2275,-5.32067 -11.0421,-7.93062 -0.803,-0.70267 -1.7061,-1.40496 -2.6095,-2.10764 -0.1004,0.10038 -0.1015,0.20155 -0.2019,0.30193 -3.5134,-2.30879 -7.226,-4.61838 -10.9402,-6.8268 -22.6865,-13.35085 -50.1925,-25.09526 -82.5157,-35.23388 -13.7522,14.65583 -7.9296,30.11441 17.467,46.27597 l -32.3224,72.67736 c -2.2084,16.46271 1.304,31.52054 10.3382,45.07216 1.0039,1.50574 2.0074,2.91149 3.1116,4.41722 l -199.13194,211.7425 c -3.94934,4.19947 -9.63714,-6.52643 -14.95739,-9.63829 -26.50094,-15.45889 -60.42921,-28.10635 -101.68636,-37.84344 -12.34703,15.76002 -6.12368,30.51632 18.67077,44.16833 l -23.08799,75.68884 c -1.80689,16.66346 2.3096,31.41937 12.34784,44.26831 l -236.9597,251.83483 31.41857,29.3109 240.07116,-255.04626 c 6.02293,2.20841 12.44902,3.91492 19.17463,5.01913 -0.10038,0.20076 -0.30153,0.40113 -0.40192,0.6019 21.88336,2.71033 47.68217,-0.40194 77.19458,-9.43635 188.21685,86.42916 308.57595,122.76788 361.37715,108.91508 32.1222,-42.0602 57.7184,-99.57925 67.6563,-167.23696 l 22.888,-55.71232 c 1.2046,8.23135 3.6142,16.86429 6.4249,30.61668 l 10.8401,47.58173 c 0.3011,1.10421 0.5027,2.30919 0.8038,3.4134 25.8987,109.91868 32.9263,221.04147 21.3823,333.57007 L 964.08428,990.71757 C 912.38735,963.6143 871.6307,953.27449 841.91753,959.69895 757.89749,977.76777 728.18571,1019.828 752.679,1085.7791 l 133.80877,438.2698 c -41.35753,53.002 -58.82337,104.0966 -52.39891,153.1834 -46.57741,9.0345 -83.01604,19.3743 -109.51698,31.0186 -26.50093,11.6444 -53.60591,16.7639 -81.41182,15.5593 -27.80591,-1.3049 -36.48437,22.9156 -45.61916,63.0685 l 247.72729,3.8937 39.31192,-8.7403 c 33.6281,21.9838 155.09259,-5.822 364.59059,-83.4175 237.9062,-74.9856 365.1913,-112.4284 382.0556,-112.4284 28.4083,34.9331 28.4083,83.4185 0,145.4547 -45.2725,15.5593 -66.8822,40.398 -55.2378,58.4669 31.0181,2.6099 74.3485,1.3046 107.274,-3.9153 32.9255,-5.2199 51.0575,-55.5569 67.2191,-135.0596 16.1616,-79.5028 25.196,-135.4157 27.1033,-167.7389 1.9072,-32.7247 -31.4214,-46.879 -99.9827,-43.0645 20.6788,-50.3918 18.7728,-127.9868 -5.8209,-232.6856 37.4426,-323.23123 53.3019,-516.16844 47.4797,-578.90742 -5.8222,-62.73897 -18.7711,-105.00019 -38.7473,-126.98393 -20.0765,-21.98374 -36.538,-44.56951 -49.4874,-67.85822 C 1572.8045,153.32564 1504.3425,9.4780353 1425.4421,2.4512698 1405.7169,0.66948343 1387.3273,-0.14142297 1370.2748,0.02012973 Z m 2.3508,32.10281227 c 13.5359,0.0031 27.8973,0.819534 43.0802,2.450746 60.7312,6.424472 120.2577,131.901992 178.379,376.232652 -71.0707,23.28872 -119.5561,-19.0729 -145.4548,-126.98393 -25.8987,-107.91103 -47.4801,-162.21704 -64.9467,-162.91972 -17.4666,-0.6023 -34.6332,7.42796 -51.3971,24.1918 -16.7638,-21.98374 -58.8239,-21.38105 -126.0801,1.90766 10.4398,-42.6625 32.726,-73.682009 66.9564,-93.055805 25.6729,-14.530345 58.8552,-21.832813 99.4631,-21.823403 z m -7.9837,131.014928 c 11.1398,1.97628 28.8915,50.53652 53.1715,145.68019 25.8987,101.48656 76.8928,151.57687 153.1834,150.2719 18.6711,16.66347 35.7354,33.32783 51.395,49.9913 8.6329,3.413 16.3636,11.644 23.29,24.69372 6.5249,12.34703 10.1378,25.09683 10.7401,38.34731 6.1234,28.80973 9.034,68.35944 8.6325,118.75139 -0.6023,88.53723 -12.6474,229.17491 -35.8358,421.80872 -55.6117,16.7639 -135.1147,48.484 -238.5085,95.0615 10.3394,-120.2581 4.2157,-227.16517 -18.4708,-320.92229 -3.3126,-13.65201 -6.5241,-27.00332 -9.7363,-40.05304 L 1328.9748,710.8502 c -5.521,-22.08412 -10.8421,-42.96456 -15.8612,-62.53912 -16.7639,-65.24854 -6.123,-111.22315 32.0224,-137.72408 38.1454,-26.50094 48.7863,-57.21893 32.0224,-92.15197 -16.7638,-34.93307 -42.9649,-42.36062 -78.5003,-22.28415 -35.5352,20.07647 -55.9115,16.46307 -61.1314,-10.64016 11.6444,-19.37379 14.2535,-31.72208 7.7287,-36.84157 -6.4245,-5.2199 -18.0697,-5.8206 -34.934,-1.90571 -3.9149,-10.33938 -16.1608,-16.16198 -36.8396,-17.46695 2.61,-43.96748 8.4326,-77.59576 17.467,-100.88447 14.2543,-15.55926 31.7201,-22.28571 52.3989,-20.37844 20.6788,1.90726 40.7557,0.30232 60.1295,-4.81719 l -3.9153,-11.64595 c -11.6443,3.9149 -28.4074,4.51761 -50.3912,1.90766 -21.9838,-2.60994 -41.3576,3.21266 -58.2219,17.46696 l 7.7287,-21.38227 c 76.2905,-36.23804 121.5644,-26.50089 135.7184,29.11095 l 25.1956,-5.82102 c -9.0344,-28.4082 -8.0302,-44.97219 2.9115,-49.48938 0.6838,-0.28233 1.3963,-0.35722 2.1389,-0.22547 z m -62.8704,48.61103 -27.1032,9.73633 c -34.9332,-10.33938 -59.4269,-6.42484 -73.6812,11.64399 l -7.7307,19.37461 3.9153,11.64399 1.0038,-0.7019 0.6019,1.80571 5.823,-3.91531 c 25.8987,2.60995 51.0956,-7.72793 75.5889,-31.01664 l 29.1109,-3.91531 -5.823,-13.55165 -1.1038,0.29997 z m -67.3583,15.25737 29.111,3.91531 c -9.0344,5.11951 -17.4662,9.63673 -25.1956,13.55165 5.2199,-6.42447 3.9145,-12.24709 -3.9154,-17.46696 z m -16.1611,5.62103 c -2.61,6.42447 -0.6015,11.64438 5.8229,15.5593 -6.4244,0 -12.9501,0.60269 -19.3746,1.90766 1.305,-6.42446 5.8222,-12.24708 13.5517,-17.46696 z m 2.7056,75.34378 c -0.6714,-0.0313 -1.3058,0.25095 -1.9018,0.84698 -1.9072,1.90726 -1.9072,4.21685 0,6.82679 1.9073,2.60995 1.6061,5.21911 -1.0038,7.72868 -2.61,2.60994 -6.4241,2.60994 -11.644,0 -5.2199,-2.60995 -9.7371,-3.91532 -13.5516,-3.91532 -1.305,0 -2.3092,1.00422 -2.9115,2.91149 -0.6023,1.90727 0.3015,4.81758 2.9115,8.7325 1.3049,-5.21989 5.5206,-5.8206 12.6478,-1.9057 7.1271,3.91492 12.9497,3.21185 17.4669,-1.90766 4.5173,-5.21988 5.5195,-10.03826 2.9095,-14.55547 -1.7943,-3.10559 -3.446,-4.69328 -4.923,-4.76229 z m 2.2135,91.69319 c 1.7065,3.11186 3.2118,6.82601 4.6172,11.04208 1.305,20.67877 10.6406,30.41592 28.1071,29.11094 17.4666,-1.30497 38.4473,-10.33944 63.0411,-27.10329 12.9493,7.72944 20.3768,18.77236 22.2841,32.92626 1.9073,14.15392 -13.9536,27.10331 -47.5817,38.64729 -33.628,11.64436 -60.8311,23.99112 -72.4754,60.83144 -11.6444,36.84032 -31.1186,111.72547 -37.6435,154.68913 -0.4015,3.01147 -1.9065,19.57503 -3.7134,39.55112 -53.5913,-52.58426 -31.1225,-206.53134 -31.8656,-214.31872 -1.2502,-13.10083 4.3107,-28.06143 0.086,-38.98844 21.7986,-24.45855 52.9073,-61.86957 75.1438,-86.38781 z m -161.4414,175.13227 c 0.6087,31.21007 9.0774,76.01977 14.9417,105.19779 10.9465,54.4658 -1.6088,76.12134 24.1683,150.49541 27.6012,19.38711 42.2257,26.30854 64.2095,35.75344 -1.0038,7.72944 -1.5045,15.65931 -0.8019,23.68989 -34.6319,-22.38527 -86.3296,-35.73738 -154.991,-39.85305 -68.66151,-4.11568 -119.15413,-19.07196 -151.57764,-44.87022 -1.60612,-2.60994 -3.41379,-5.11912 -5.32106,-7.62868 z M 869.54233,1013.8213 c 7.99295,0.2415 18.12535,2.1417 30.3971,5.7053 l 374.22687,217.2283 -296.73234,197.7536 c 0.20076,-180.9893 -40.5543,-306.9713 -122.06478,-378.1423 -14.53035,-29.0607 -9.80569,-43.2696 14.17315,-42.5449 z m -623.90504,55.8789 C 141.74145,1072.009 46.8786,1116.5798 0,1221.0779 c 12.949337,179.5842 21.984639,321.8258 92.65389,421.8067 35.53538,50.2917 86.42984,88.6382 156.99871,112.3285 87.5335,20.3777 175.06608,32.7243 264.30609,32.7243 18.06885,0 36.74161,-0.6015 55.31236,-1.7057 -64.44554,-97.6721 -131.09962,-196.4495 -125.98011,-319.5185 11.84513,-86.4292 28.80826,-170.5503 62.13523,-251.8602 -72.27536,-83.0163 -145.15212,-140.0333 -259.78888,-145.1528 z m -1.10381,46.376 h 1.10381 c 66.05166,0.6023 133.30731,30.5176 186.91153,87.5348 H 64.948695 c 47.480895,-58.2218 112.930825,-87.5348 179.584785,-87.5348 z m 1384.68512,54.7261 -7.7286,44.5703 c 27.1033,93.1548 23.7895,171.354 -9.7383,234.6952 -78.9005,50.3918 -176.1708,77.5953 -291.8113,81.4099 -115.7409,3.9149 -233.6904,52.4003 -353.94845,145.4547 18.06886,-112.4283 59.12465,-195.5464 123.16855,-249.1507 64.0439,-53.6041 145.1538,-103.7948 243.3277,-150.2719 98.174,-46.4771 197.1512,-82.1137 296.7304,-106.7075 z M 46.979826,1234.6296 H 450.11577 c -29.41206,86.4293 -50.79397,160.4114 -53.10276,230.3779 0,99.3787 23.69034,189.1197 81.30987,269.3252 -84.72279,-1.7065 -163.72282,-6.2233 -215.11864,-23.6898 -62.63865,-20.8796 -103.89676,-52.5001 -133.81074,-94.8616 -57.017228,-81.3097 -70.066639,-210.1001 -82.413674,-381.1517 z"
   style="stroke-width:1.00383" />
</svg>
