<?xml version="1.0" encoding="UTF-8" standalone="no"?>
<svg
   width="10.612"
   height="17.98188"
   version="1.1"
   id="svg615"
   sodipodi:docname="US9A30VARA.svg"
   inkscape:version="1.2.1 (9c6d41e410, 2022-07-14)"
   xmlns:inkscape="http://www.inkscape.org/namespaces/inkscape"
   xmlns:sodipodi="http://sodipodi.sourceforge.net/DTD/sodipodi-0.dtd"
   xmlns="http://www.w3.org/2000/svg"
   xmlns:svg="http://www.w3.org/2000/svg">
  <defs
     id="defs619" />
  <sodipodi:namedview
     id="namedview617"
     pagecolor="#ffffff"
     bordercolor="#000000"
     borderopacity="0.25"
     inkscape:showpageshadow="2"
     inkscape:pageopacity="0.0"
     inkscape:pagecheckerboard="0"
     inkscape:deskcolor="#d1d1d1"
     showgrid="false"
     inkscape:zoom="32.301602"
     inkscape:cx="7.8169497"
     inkscape:cy="8.7302171"
     inkscape:window-width="1920"
     inkscape:window-height="1137"
     inkscape:window-x="-8"
     inkscape:window-y="-8"
     inkscape:window-maximized="1"
     inkscape:current-layer="svg615" />
  <path
     id="path613"
     style="fill:#000000;stroke:none"
     d="m 5.4409595,0.48886482 c -0.094487,0.003905 -0.1929489,0.019176 -0.296875,0.046875 -0.4157051,0.1107974 -0.7699494,0.33447556 -1.0625,0.66992188 -0.2925509,0.3354458 -0.4068042,0.8409298 -0.3398438,1.515625 0.055578,0.2225357 0.093213,0.594622 0.1113281,1.1171875 0.05486,0.1638055 0.1187044,0.215878 0.1914063,0.15625 0.072698,-0.059626 0.1363814,-0.081429 0.1894531,-0.064453 -0.016974,0.053072 -0.00839,0.099941 0.027344,0.140625 0.035735,0.040682 0.06865,0.045348 0.097656,0.015625 0.040723,-0.03576 0.048205,-0.024832 0.025391,0.03125 -0.02277,0.056059 0.00615,0.1043826 0.085938,0.1445313 0.079787,0.040146 0.157932,0.1042048 0.2324218,0.1914062 0.074487,0.087203 0.1626847,0.096172 0.2675782,0.027344 0.1048938,-0.06883 0.2278059,-0.1698545 0.3671874,-0.3007813 l 0.25,0.3144531 C 5.1165845,4.8998932 4.7699042,5.5736443 4.5464282,6.5162086 c -0.00714,-0.0036 -0.012468,-0.00624 -0.019531,-0.00977 C 4.1095607,5.8343669 3.5251414,5.095977 2.7710376,4.2915992 2.7841709,3.6086459 2.5416035,3.0831717 2.042522,2.7154274 1.8586501,2.5184215 1.7363895,2.4109093 1.6772876,2.3912086 c -0.059102,-0.019701 -0.096242,-0.00371 -0.109375,0.048828 -0.078803,0 -0.1171875,0.033941 -0.1171875,0.099609 -0.052535,0 -0.078125,0.038386 -0.078125,0.1171875 -0.078803,0 -0.1223363,0.012796 -0.1289063,0.039063 -0.00657,0.026268 0.015824,0.066606 0.068359,0.1191406 C 1.850536,3.3272522 2.1334425,3.6952793 2.1597095,3.9185524 2.1859767,4.0236222 2.1475919,4.0364178 2.042522,3.9576148 1.8586501,3.6161379 1.7203954,3.4331006 1.6284595,3.4068336 1.4971226,3.354299 1.4567839,3.3990818 1.5093188,3.5435524 c 0.1050699,0.091937 0.2113364,0.2557804 0.3164063,0.4921874 0.1050699,0.2364065 0.2189801,0.397053 0.34375,0.4824219 0.1247706,0.085369 0.2258846,0.1417008 0.3046875,0.1679688 0.4653032,0.9780997 0.8437512,1.5888964 1.5226406,2.3721781 L 3.5296079,7.5888336 C 3.1355963,6.932147 2.2902672,5.8296224 1.5679126,5.0415992 1.5759167,4.3682145 1.3271554,3.8491669 0.8198657,3.4849586 0.64912718,3.2879528 0.53521765,3.1784877 0.4761157,3.1587867 c -0.0591009,-0.019701 -0.096241,-0.00175 -0.109375,0.050781 -0.0788029,0 -0.1171875,0.031987 -0.1171875,0.097656 -0.0656689,0 -0.0996094,0.03394 -0.0996094,0.099609 -0.0656689,0 -0.10085182,0.015993 -0.10742182,0.048828 -0.00657,0.032834 0.015824,0.074418 0.0683593,0.1269531 C 0.64936404,4.0948286 0.93227056,4.4628557 0.95853753,4.6861295 0.9848048,4.7911984 0.93806883,4.8039939 0.81986565,4.7251925 0.64912713,4.3837155 0.51087305,4.2006782 0.40580315,4.1744112 0.27446629,4.1218762 0.24247797,4.1666612 0.30814695,4.31113 0.41321684,4.403066 0.51753018,4.5688635 0.62260007,4.8052706 0.72766996,5.0416777 0.84353332,5.2023236 0.96830319,5.2876925 1.0930738,5.3730615 1.1941878,5.4293943 1.2729907,5.4556612 c 0.4384839,1.0398334 0.9549886,1.868666 1.5488281,2.4902344 9.618e-4,0.00101 9.91e-4,0.0029 0.00195,0.00391 0.1096083,0.202071 0.3974313,0.4381048 0.8925813,0.613278 C 3.9332272,8.5251973 4.1917582,8.3215289 4.4897876,7.9537086 4.7878174,7.5858892 5.0102437,7.3085034 5.1577564,7.1216774 5.3052676,6.9348486 5.4538017,6.7003702 5.6030688,6.4165992 5.8507421,6.4958176 6.0984441,6.6592118 6.3452564,6.9087867 6.5423688,7.1081057 6.7406007,7.3656258 7.1030688,7.8873024 7.3709447,8.2728386 7.6371943,8.3207809 7.5257331,8.6746406 L 7.339397,9.2662086 C 7.2080599,9.6339525 6.9185393,10.051953 6.8003345,10.518162 c -0.1182028,0.466247 -0.376985,1.045094 -0.5527344,1.609375 -0.1666,0.670695 -0.3349992,1.466493 -0.7050781,2.185547 -0.064595,0.214324 -0.2083066,0.76736 -0.2871094,1.095703 -0.078802,0.328344 -0.1937583,0.854034 -0.2988281,1.248047 -0.1707385,0.210139 -0.5355672,0.253597 -1.09375,0.365234 -0.5581823,0.111637 -0.9146606,0.233898 -1.0722657,0.365235 10e-8,0.118203 0.1426986,0.262859 0.4316407,0.433593 0.2889414,0.17074 0.6224238,0.02246 1.1035156,-0.01953 0.4934795,-0.04306 0.7697913,-0.08984 0.9667969,-0.08984 0.4071448,0 0.5412943,-0.374566 0.3574218,-1.03125 0.6041508,-1.392175 1.0475173,-1.687365 1.107803,-2.243331 0.062313,-0.574663 1.1223273,-1.82212 1.1617283,-2.084795 l 1.0742187,0.02734 c 0.065669,0.459681 0.1891753,0.919228 0.3730469,1.378906 0.1576051,1.247703 0.2404341,2.388514 0.2929688,2.861329 -0.3940112,0.446543 -0.8173253,0.448201 -1.3164063,0.566406 -0.4859477,0.131336 -0.7093231,0.275989 -0.6699218,0.433594 0.3546099,0.28894 0.7789696,0.36127 1.2714843,0.216797 0.4925143,-0.14447 0.8999739,-0.01441 1.1757813,-0.08008 0.275808,-0.06567 0.367326,-0.250657 0.275391,-0.552733 -0.02627,-0.223274 -0.0625,-0.69382 -0.0625,-0.943359 0.223272,-1.392174 0.317472,-2.486869 0.08106,-2.880881 -0.0394,-0.420277 0.09035,-0.817327 0.09035,-1.644752 -0.01313,-0.945627 0.01879,-1.8501297 -0.04687,-2.2441405 C 10.465015,8.1981794 10.398724,8.067541 10.336982,7.7835452 10.225358,7.2701064 9.2493604,6.1173338 9.1834951,5.923586 9.0144557,5.4263438 9.000793,5.4380229 8.7636562,4.7771481 8.5265196,4.1162737 7.8820369,3.5131094 7.1167407,3.3755836 6.8280272,3.302739 6.5819377,3.112162 6.3784595,2.803318 6.5620345,2.4427668 6.6378046,2.0821635 6.6069751,1.7212867 6.5761415,1.360413 6.4282982,1.0439378 6.1636157,0.77402107 5.9651042,0.571584 5.7244211,0.47715119 5.4409595,0.48886482 Z M 5.3765064,0.86581795 C 5.617383,0.86173581 5.815699,0.96075087 5.9741626,1.1607398 6.2277072,1.4807213 6.2918108,1.8835806 6.1655688,2.3697242 6.0393261,2.8558683 5.9711765,2.8610379 5.9624438,2.3853492 5.9537152,1.9096593 5.8427011,1.5969555 5.6265064,1.4498024 5.4103118,1.3026497 5.1421436,1.4234876 4.823772,1.8091774 4.2916802,2.0095013 4.0544943,1.9717014 4.1128345,1.6978492 4.1711744,1.4239969 4.4334735,1.1854448 4.8979907,0.98300547 5.0721849,0.90709091 5.2319803,0.86826722 5.3765064,0.86581795 Z M 5.4429126,1.6958961 C 5.5572253,1.6919361 5.6317402,1.7881301 5.667522,1.9830055 5.708416,2.2057198 5.706215,2.4175117 5.661662,2.6177711 5.617095,2.8180377 5.651222,2.9752727 5.761271,3.0884742 5.8713194,3.2016767 6.0153234,3.2333809 6.1968178,3.1841772 6.364558,3.4523379 6.6202982,3.6450697 6.9624428,3.7642553 7.7645556,4.030561 8.2789649,4.3959918 8.4869358,5.1484342 8.932986,6.7622515 9.8000074,7.3473723 9.8643259,7.6780765 9.4107678,7.5283747 8.1037779,7.8551806 7.8686938,8.2505836 7.5030559,7.7764906 6.6658865,6.5792689 6.3901782,6.3540992 6.0074954,6.0415668 5.8982644,5.7755507 6.0601001,5.5591774 6.2219361,5.3428045 6.5012806,4.9638186 6.8999438,4.4185524 7.0101689,3.8302456 6.6924488,3.7434837 5.9468188,4.1568336 h -0.00195 C 5.6640671,3.7809996 5.420546,3.6924835 5.214397,3.9009742 4.9910004,4.1269087 4.8203369,4.1519081 4.7007251,3.9771461 4.7926909,3.8115536 4.7966516,3.7271301 4.714397,3.725193 4.6321379,3.7232581 4.5342688,3.7529213 4.417522,3.8130836 4.4217494,3.6779294 4.3414494,3.6235249 4.1772876,3.6490211 l -0.0625,-0.6777344 C 4.1593404,2.7710274 4.4056879,2.6292477 4.8511157,2.5474586 4.9321236,2.4466135 4.8570106,2.4195721 4.6284595,2.4634742 4.3999074,2.5073769 4.2052526,2.599812 4.042522,2.7427711 4.022327,2.5315526 4.0516957,2.4020549 4.1304126,2.3540992 c 0.078715,-0.047952 0.3282785,-0.1215806 0.75,-0.2207031 0.088813,0.057659 0.1609093,0.010804 0.2148438,-0.1425781 0.053936,-0.1533778 0.1514591,-0.250118 0.2949218,-0.2871094 0.017933,-0.00462 0.036404,-0.00725 0.052734,-0.00781 z m -0.035156,0.072266 c -0.046836,-0.00218 -0.094959,0.032698 -0.1425782,0.1015625 -0.063496,0.091821 -0.092686,0.2125682 -0.087891,0.3652344 0.0048,0.1526668 0.046262,0.2469434 0.1230469,0.28125 -0.052001,0.071122 -0.064332,0.1397966 -0.037109,0.2070312 0.027252,0.067219 0.078234,0.088875 0.1542969,0.064453 C 5.4935866,2.7632693 5.5496049,2.6577393 5.5854907,2.4693336 5.6213784,2.280927 5.6240977,2.1274551 5.5933032,2.0103492 5.5625089,1.8932434 5.5167276,1.818275 5.4546314,1.7837867 5.439107,1.7751648 5.4233679,1.7688888 5.4077566,1.7681621 Z m -0.00586,0.1757813 c 0.019386,-0.00203 0.037824,0.00979 0.054687,0.037109 0.044946,0.072876 0.065128,0.1617924 0.060547,0.2675781 -0.00458,0.1057885 -0.022136,0.1889601 -0.050781,0.2480469 -0.028646,0.059087 -0.045644,0.039224 -0.052734,-0.060547 -0.00709,-0.099771 -0.026042,-0.1196335 -0.054687,-0.060547 -0.028646,0.059087 -0.047801,0.046925 -0.060547,-0.035156 -0.012751,-0.08208 -0.0145,-0.1695612 -0.00391,-0.2636719 0.039351,-0.084919 0.075112,-0.1294369 0.1074219,-0.1328125 z m -0.375,0.5585937 L 4.798381,2.6626934 C 4.5401055,2.6775845 4.3619233,2.7335223 4.2632251,2.8287086 4.1645259,2.9238951 4.126201,3.0628709 4.1460376,3.2447242 4.3459408,3.2599133 4.49658,3.2179187 4.6011157,3.1197242 4.7056522,3.021529 4.7904682,2.8904275 4.8530688,2.725193 L 5.0796314,2.5630836 Z M 5.345256,2.6040996 c 0.076424,0.00494 0.1079008,0.029988 0.09375,0.074219 -0.014142,0.044226 -0.041685,0.056215 -0.080078,0.039063 -0.038392,-0.017155 -0.042326,-0.05419 -0.013672,-0.113282 z m -0.625,0.1660156 c -0.0573,0.118179 -0.1353186,0.2095692 -0.234375,0.2753907 -0.081365,0.071479 -0.1654501,0.092745 -0.2539063,0.064453 0.00459,-0.1057879 0.02732,-0.1615946 0.068359,-0.1679688 0.00745,0.1291379 0.0688,0.163678 0.1855469,0.1035157 0.086659,-0.1185328 0.068791,-0.1831151 -0.054688,-0.1933594 0.099413,-0.036456 0.1953029,-0.063265 0.2890634,-0.082031 z m 5.1538351,5.3396023 c 0.1444719,0.1838716 0.052795,0.7688782 0.1972659,1.7539062 0.0394,0.8405573 0.0394,1.4895393 0,1.9492183 -0.02627,0.144467 -0.5203276,0.188483 -0.9800073,0.181883 C 8.63167,11.988125 7.4500843,11.886965 6.767131,11.926365 6.7933989,11.05954 7.5260805,10.121037 7.6968188,9.4380836 7.8675573,8.7551303 7.933129,8.7323465 8.3140064,8.4302711 8.6090117,8.0817292 9.5491025,8.1374139 9.8740911,8.1097175 Z"
     sodipodi:nodetypes="scsccscccccccccccccscccccccccsscccccscccccccccsscsccsccsssccccscscccscsccccccsscccccssscccssscscscssscsccccscccscccsccccccscccccccccccccssccccssscccccccscccccccccccccccccscscccc" />
  <g
     id="g645"
     transform="rotate(-27.263101,5.6450431,43.933399)" />
  <g
     id="g671"
     transform="translate(8.7526005,2.0220529)" />
</svg>
