<?xml version="1.0" encoding="UTF-8" standalone="no"?>
<!-- Generator: Adobe Illustrator 19.0.0, SVG Export Plug-In . SVG Version: 6.00 Build 0)  -->

<svg
   version="1.1"
   id="Ebene_1"
   x="0px"
   y="0px"
   viewBox="0 0 1343.6616 1798.1271"
   xml:space="preserve"
   width="1343.6616"
   height="1798.1271"
   xmlns="http://www.w3.org/2000/svg"
   xmlns:svg="http://www.w3.org/2000/svg"><defs
   id="defs1501">
	
	
	
	
</defs>
<style
   type="text/css"
   id="style1491">
	.st0{fill:#010101;}
</style>
<path
   id="XMLID_24_"
   class="st0"
   d="M 915.27835,3.3907513 C 861.50858,11.056282 824.1824,51.94012 803.18548,125.92917 c -13.99794,18.10843 -28.66423,41.88234 -43.99531,71.21133 -9.77634,19.55266 -10.44113,30.77456 -2.10902,33.55193 8.33211,2.77737 14.66451,6.33067 18.88611,10.44117 -5.55474,4.22159 -8.0006,7.99926 -7.33403,11.5543 0.66657,3.11065 5.55607,5.44494 14.66584,6.88917 -2.33299,0.33329 -5.11036,1.88775 -8.33211,4.66512 -4.88817,4.2216 -4.22115,7.99925 2.11125,11.55429 6.3324,3.44394 9.44306,14.33038 9.44306,32.43881 0,16.77529 8.33166,24.44215 25.10697,22.99792 20.99692,0 35.66099,-0.667 43.9931,-2.11123 l 6.33151,43.9931 h -77.54283 c -40.5496,0 -85.87594,29.99522 -136.20179,90.09744 -64.21272,55.88063 -139.64754,151.53386 -226.30139,287.06938 23.77426,30.77322 59.76861,41.88185 107.87261,33.54976 48.21509,-8.3321 94.31952,-18.88483 138.31301,-31.43853 43.99352,-12.5537 72.99015,-20.99648 86.98809,-25.10699 14.22014,34.77264 25.32917,68.32246 33.43909,100.76211 -36.328,17.77514 -59.43482,29.66275 -69.10007,35.43967 -51.65903,4.2216 -92.54287,8.77519 -122.53843,13.66336 -29.99556,4.88816 -63.21254,32.43972 -99.5405,82.76562 1.44423,15.33106 8.77736,25.44157 21.99763,30.32974 13.22027,4.88817 19.88424,3.88744 19.88424,-3.11152 8.3321,-16.7753 20.221,-31.77312 35.66316,-44.99339 15.33107,-13.22027 40.5479,-21.32933 75.43163,-24.1067 -18.10843,23.77426 -37.65986,38.10465 -58.65675,42.99282 -20.99689,4.88816 -28.66376,13.6664 -22.99792,26.2201 53.10325,-2.77737 113.09586,-26.55343 180.19706,-71.21349 18.33064,-6.11022 35.88228,-11.99694 52.5465,-17.55168 3.11065,27.77367 3.77856,54.65909 1.88995,80.43306 -160.64292,50.32586 -260.51864,80.32116 -299.62397,90.09746 -46.10429,13.998 -88.43004,63.6564 -147.19912,150.8657 -58.76909,87.2093 -57.09542,132.8625 -89.20178,244.6237 l -13.0069,55 -22.99576,87.9862 c -33.55059,68.4343 -94.98613,111.0948 -184.417341,127.759 -54.4363915,6.999 -61.435808,27.8845 -20.997348,62.8792 h 148.756349 167.64247 100.54079 48.21557 10.44118 c 0,-19.5527 13.22117,-19.5527 39.7728,0 h 180.19486 c 6.99897,-25.1074 10.44336,-60.7679 10.44336,-106.8723 0.058,-66.3495 0,-132.5749 0,-199.081 L 700.4228,1288.981 h 393.9417 c 4.2216,30.7733 35.6618,87.9863 94.3199,171.8628 v 266.072 h -27.2182 c -18.1085,-23.7743 -41.8846,-35.661 -71.2136,-35.661 -50.3258,0 -75.4316,35.6607 -75.4316,106.8723 h 58.6568 c 0,-19.5527 13.2211,-19.5527 39.7728,0 h 171.8627 c 8.3321,0 12.5546,-36.3277 12.5546,-108.9835 -1.1986,-108.3252 17.3649,-216.9391 29.3295,-324.6181 l -62.8814,-73.3226 48.2155,27.2182 h 31.3301 v -144.6472 h -31.4407 l -87.9862,20.9974 c -5.5547,-19.5527 -7.6669,-41.8832 -6.3337,-67.1017 V 987.24795 h -123.6472 v 222.07675 h -71.2135 c 15.3311,-9.7763 31.107,-30.7728 47.1046,-62.8792 16.1088,-32.1064 12.887,-104.762 -9.443,-217.85647 -2.7774,-41.88269 -2.1104,-83.09981 2.1112,-123.64936 27.8848,-1.44424 59.3251,-47.88021 94.3199,-139.31114 34.8838,-91.54202 49.2141,-152.64427 42.9928,-183.3064 -6.3324,-30.77323 -22.662,-56.54814 -49.2137,-77.54503 -26.5516,-20.9969 -70.5461,-31.4407 -131.9814,-31.4407 v -79.65409 c 25.1074,-9.77633 48.8812,-28.99621 71.2113,-57.65863 22.33,-28.66243 33.5519,-68.10073 33.5519,-118.42662 0,-50.325881 -21.3303,-83.76549 -63.8795,-100.540782 C 1009.5035,-0.65808308 963.5841,-3.3485544 915.27835,3.3907513 Z M 1028.3737,36.053054 c 45.4378,12.553701 68.102,40.550077 68.102,83.765906 0,44.66006 -15.3311,82.43323 -46.1043,113.09536 -30.7733,30.77323 -50.3269,38.43792 -58.65894,22.99576 -9.77635,-12.5537 -2.11169,-31.77357 22.99574,-57.65863 25.1074,-25.88507 31.4398,-50.99297 18.8861,-75.4338 -12.5537,-24.440829 -39.77149,-26.217479 -81.76532,-5.22059 -13.99794,-16.77529 -46.77046,-29.329465 -98.42954,-37.661563 9.77634,-26.440538 29.99471,-43.548736 60.76796,-51.214266 39.3521,-8.550513 79.25707,-2.205469 114.2063,7.331823 z M 841.06836,103.59955 c 41.88274,4.2216 76.10038,16.10834 102.65204,35.661 -1.44424,16.77529 5.21967,17.4423 19.88419,2.11123 14.66451,-15.33107 28.66378,-19.88683 41.88401,-13.66552 13.2203,6.33239 14.9969,19.88685 5.2206,40.88375 -9.7763,20.99689 -22.33048,38.43794 -37.66156,52.43587 -15.33108,13.99793 -19.21762,27.8861 -11.55208,41.88404 7.66554,13.99793 13.66466,26.54993 17.77517,37.6594 -1.44423,75.43328 8.33033,113.09536 29.32727,113.09536 h 64.9904 c 32.1064,37.6611 39.1058,78.21121 20.9974,121.53813 -18.1085,43.32693 -39.105,103.31737 -62.8792,180.19489 -54.43647,23.77426 -116.65011,52.43764 -186.52862,85.87714 -7.66554,3.66613 -15.10933,7.22073 -22.10831,10.66466 -7.88773,-30.99541 -17.88448,-61.7683 -30.43819,-92.87481 11.22057,2.77737 26.55165,4.88731 46.10434,6.33154 29.32902,0 48.54664,-15.66483 57.65642,-47.10463 9.10977,-31.43979 2.44586,-47.10245 -19.88419,-47.10245 22.33005,0 33.54973,-7.66685 33.54973,-22.99792 H 861.8422 c -40.5496,9.77633 -71.98987,25.10744 -94.31992,46.10433 -15.33108,-51.65902 -22.99573,-99.87382 -22.99573,-144.53389 0,-64.21272 25.88597,-95.98676 77.54505,-95.32019 51.65897,0.66657 78.20984,-14.9961 79.65408,-47.10246 0,-41.88269 -16.77621,-60.76928 -50.32683,-56.54768 -33.55063,4.2216 -47.43659,-7.00031 -41.88185,-33.55193 19.55268,-12.5537 26.5521,-21.66349 20.99736,-27.21822 -5.55474,-5.55474 -16.10963,-9.10804 -31.44072,-10.44118 0,-8.3321 -8.33166,-16.11006 -25.10697,-22.99792 16.77531,-36.32796 32.10639,-61.43587 46.10433,-75.4338 15.33109,-8.3321 30.77326,-8.3321 46.10434,0 15.33108,8.3321 30.77326,13.99968 46.10434,16.77705 V 147.482 c -9.77634,-1.44424 -22.3305,-6.66527 -37.66158,-15.66394 -15.33108,-8.99866 -32.10506,-10.77749 -50.3246,-5.22275 6.99897,-9.77633 12.55326,-17.44102 16.77486,-22.99576 z m 143.20163,29.88493 c -10.44291,3.44394 -19.88596,11.88673 -28.32917,25.10699 -8.33211,13.22027 -10.44424,22.66335 -6.33373,28.32918 -9.77635,4.2216 -15.33064,9.77592 -16.77487,16.77488 -1.22205,6.99896 1.88816,11.88627 9.5537,14.66364 7.66554,2.77737 18.55417,-2.77695 32.44102,-16.77488 13.99794,-13.99793 22.99662,-26.5521 27.21816,-37.66157 4.2216,-11.22056 4.8864,-19.88554 2.1091,-26.21793 -4.63758,-7.94946 -13.11938,-6.41841 -19.88421,-4.22031 z m -140.56312,9.65353 c -5.48531,0.0347 -10.62344,1.37133 -15.41441,4.00983 l -14.66584,14.66582 v 10.44117 h 6.33373 c 19.55269,9.77633 41.21617,9.77633 64.99046,0 l 22.99573,4.22247 v -12.55458 l -22.99573,-2.10906 c -15.42829,-12.52593 -29.17627,-18.75203 -41.24394,-18.67565 z m 144.45788,3.5737 c 4.52278,0.0308 6.40884,2.59554 5.65895,7.6573 -1.33314,8.99866 -5.55563,17.77474 -12.5546,26.21793 -6.99897,8.3321 -13.22028,13.99968 -18.88611,16.77705 -5.55474,2.77737 -5.55474,-1e-5 0,-8.33211 5.55474,-8.3321 5.55474,-11.55386 0,-9.44306 -5.66584,2.1108 -6.66614,-0.33503 -3.2222,-7.33399 3.44394,-6.99896 7.99972,-13.99622 13.66555,-20.99518 6.70735,-3.06205 11.82071,-4.57186 15.33841,-4.54794 z m -149.42893,6.65701 c -2.77737,4.22159 -2.77737,9.11108 0,14.66581 -4.2216,-1.44423 -8.333,-3.44524 -12.5546,-6.3337 1.44423,-2.77737 5.55563,-5.55474 12.5546,-8.33211 z m 18.88611,2.11123 18.88612,10.44335 c -7.11007,2.77737 -14.7765,4.22247 -23.10861,4.22247 6.99897,-4.2216 8.333,-9.11109 4.22249,-14.66582 z m 90.09743,43.99311 c 5.55474,4.22159 6.33285,7.99926 2.11125,11.55429 -4.2216,3.44394 -7.33226,3.11022 -9.44306,-1.00029 -2.1108,-4.2216 0.33284,-7.77663 7.33181,-10.554 z m -131.567,13.50496 c -5.73341,4.93369 -1.13318,8.25096 -5.74571,11.71485 -2.1108,1.44424 -4.88817,-8.6e-4 -8.33211,-4.22246 -3.44394,-4.22161 -5.8898,-6.33154 -7.33404,-6.33154 -4.92046,0.30512 -6.18062,4.06709 -6.22086,8.33211 4.2216,-1.44423 8.333,0.33242 12.5546,5.22059 4.2216,4.88816 8.33078,5.88889 12.55238,3.11152 4.2216,-2.77737 5.88935,-6.66612 5.22279,-11.55429 -0.58325,-4.27715 -1.50778,-6.34217 -2.69705,-6.27078 z m -24.31287,33.8774 c 1.56921,-0.16664 3.56847,0.11109 6.01256,0.83321 4.88817,1.44423 10.77619,2.44495 17.77516,3.11152 6.99897,0.66657 9.77634,1.77622 8.33211,3.10935 h -33.54974 c -2.66627,-1.33313 -3.33373,-3.10978 -2.00059,-5.22058 0.72212,-1.0554 1.86128,-1.66686 3.4305,-1.8335 z m 32.23048,9.16532 c -2.77737,2.77737 -6.66613,5.22102 -11.5543,7.33182 -4.88817,2.1108 -8.77471,3.11152 -11.55208,3.11152 -4.11051,1.44423 -6.99897,1.4438 -8.33211,0.11065 -1.44423,-1.44423 -0.66835,-3.44307 2.10902,-6.33153 z M 706.75432,545.20135 c 0,43.32692 7.66465,83.76595 22.99573,121.53813 -80.988,4.2216 -133.42311,10.44292 -157.08628,18.88611 z m 316.28598,276.51536 c -2.7774,22.33003 -4.8873,58.65767 -6.3315,108.98356 l -175.97461,41.88187 c 0.99985,-28.44025 -0.33328,-57.21342 -3.88832,-86.20913 89.87558,-30.10665 151.86614,-51.65822 186.19443,-64.6563 z m 2.1112,142.53332 c 23.7743,83.76537 23.4406,144.86767 -1.0003,183.30647 -24.44078,38.4388 -49.21495,57.6586 -74.43346,57.6586 H 555.77606 l -63,279.7357 -188.06777,2 c 27.98905,-182.8567 124.75396,-347.3936 228.07202,-386.499 z m 96.5418,54.43647 h 64.9905 v 108.9836 c -1.4443,30.7732 3.443,66.3249 14.6636,106.8745 l 111.0948,-27.2183 v 73.3226 l -85.8749,-27.2182 v 31.4385 l 66.7675,83.7659 c -8.0209,99.2671 -29.3295,197.885 -29.3295,297.5127 0,69.8785 -3.4444,104.7611 -10.4433,104.7611 h -115.2045 c -11.2205,-16.7753 -25.8846,-25.107 -43.993,-25.107 -18.1085,0 -34.2177,8.3317 -48.2156,25.107 0,-32.1064 17.4411,-48.2134 52.4358,-48.2134 26.5517,0 39.7728,10.4416 39.7728,31.4385 h 81.7654 v -305.9555 c -65.6569,-101.9849 -98.4296,-165.5308 -98.4296,-190.6382 H 664.75962 v 31.4407 l 35.66318,203.1928 v 175.9724 c 0,68.4344 -4.22249,102.652 -12.5546,102.652 H 566.33007 c -11.22056,-16.7753 -25.88468,-25.1069 -43.9931,-25.1069 -17.33077,0 -32.77211,7.6646 -46.32567,22.9957 -0.44437,-2.4441 -0.89049,-5.1099 -1.22377,-7.8873 3.44394,-25.4407 20.6654,-38.217 51.7719,-38.217 26.55164,0 39.77064,10.4438 39.77064,31.4407 H 648.0954 V 1590.714 l -56.54551,-274.5148 c -5.55473,-50.3259 4.21989,-75.4338 29.32729,-75.4338 h 500.81612 z m -530.25624,450.4894 25.10915,119.4269 v 138.313 h -27.21822 c -18.10843,-23.7743 -41.8845,-35.661 -71.21349,-35.661 -18.44172,0 -33.54977,4.7771 -45.21472,14.4423 0,-1.6664 0.11065,-3.3328 0.11065,-4.9992 2.11081,-57.9914 17.77564,-118.4267 47.10463,-181.1952 l 42.322,-182.1112 z m -219.85486,50.2162 h 31.43853 l -25.21765,88.0968 c -12.77589,27.1071 -29.99519,50.2157 -51.76974,69.2129 4.99926,-50.5481 20.21927,-102.9845 45.54886,-157.3097 z"
   style="stroke-width:1.11095" />
</svg>
