<?xml version="1.0" encoding="UTF-8" standalone="no"?>
<svg
   width="1300"
   height="1800"
   id="svg2"
   sodipodi:version="0.32"
   inkscape:version="1.2.1 (9c6d41e410, 2022-07-14)"
   sodipodi:docname="US9A6VARB.svg"
   inkscape:output_extension="org.inkscape.output.svg.inkscape"
   version="1.0"
   xmlns:inkscape="http://www.inkscape.org/namespaces/inkscape"
   xmlns:sodipodi="http://sodipodi.sourceforge.net/DTD/sodipodi-0.dtd"
   xmlns="http://www.w3.org/2000/svg"
   xmlns:svg="http://www.w3.org/2000/svg"
   xmlns:rdf="http://www.w3.org/1999/02/22-rdf-syntax-ns#"
   xmlns:cc="http://creativecommons.org/ns#"
   xmlns:dc="http://purl.org/dc/elements/1.1/">
  <metadata
     id="metadata9">
    <rdf:RDF>
      <cc:Work
         rdf:about="">
        <dc:format>image/svg+xml</dc:format>
        <dc:type
           rdf:resource="http://purl.org/dc/dcmitype/StillImage" />
      </cc:Work>
    </rdf:RDF>
  </metadata>
  <defs
     id="defs7"><inkscape:perspective
   sodipodi:type="inkscape:persp3d"
   inkscape:vp_x="0 : 1179.1895 : 1"
   inkscape:vp_y="0 : 1000 : 0"
   inkscape:vp_z="5.8304138 : 1179.1895 : 1"
   inkscape:persp3d-origin="2.9152069 : 1178.1585 : 1"
   id="perspective11" />

	
	
</defs>
  <sodipodi:namedview
     inkscape:window-height="1137"
     inkscape:window-width="1920"
     inkscape:pageshadow="2"
     inkscape:pageopacity="0.0"
     guidetolerance="10.0"
     gridtolerance="10.0"
     objecttolerance="10.0"
     borderopacity="1.0"
     bordercolor="#666666"
     pagecolor="#ffffff"
     id="base"
     showgrid="false"
     inkscape:zoom="0.49555556"
     inkscape:cx="898.99103"
     inkscape:cy="900"
     inkscape:window-x="-8"
     inkscape:window-y="-8"
     inkscape:current-layer="svg2"
     inkscape:showpageshadow="2"
     inkscape:pagecheckerboard="0"
     inkscape:deskcolor="#d1d1d1"
     inkscape:window-maximized="1" />
  <path
     id="path1308_1_"
     style="display:inline"
     d="m 1030.4673,4.3622197 c -9.4377,-0.1734569 -17.5907,-0.095859 -24.0019,0.1503906 C 931.50546,7.4726073 880.21654,41.991505 864.41656,109.06144 l 0.99023,-83.839845 H 792.41656 V 119.88175 L 658.26617,54.782142 597.11578,163.28214 485.6568,129.74308 455.0767,240.21183 335.7271,226.40129 l -8.8809,120.34179 -123.3007,3.94922 5.9199,117.38086 -112.4492,31.55859 30.58,111.46094 c 0,0 -104.5593,68.05993 -100.6093,77.91992 l 33.539,105.53907 -44.3886,92.7207 39.4492,115.41012 -42.4102,90.75 26.6309,94.6895 -32.5508,97.6504 39.4492,119.3496 -35.5097,103.5703 35.5097,103.5703 -37.4785,106.5293 33.5391,76.9395 62.3593,-1.2598 -37.6992,-82.5801 41.4297,-88.7695 -38.4687,-108.5 41.4296,-97.6504 -35.5097,-117.3789 33.539,-101.5996 -22.6894,-105.541 33.5391,-83.8399 L 92.0962,903.07316 140.4263,806.413 110.8365,698.90129 221.3072,642.68254 c 0,0 -47.3506,-98.64063 -44.3906,-98.64063 l 96.6601,-9.85937 -7.8906,-122.31055 123.3008,11.83984 5.9199,-127.24023 115.4101,21.70117 24.6602,-94.69141 113.42969,26.63086 42.41016,-89.75976 101.59961,55.24023 v 103.58985 h 72 l 0.99023,-76.93946 c 0,0 7.89017,22.67924 24.66016,39.44922 40.43996,38.46996 72.98989,48.33008 120.33985,48.33008 0,0 185.4391,11.82914 250.5391,-69.05078 49.3199,-62.13994 33.5399,-137.10849 0,-188.398443 C 1225.5609,19.058211 1096.5318,5.5764177 1030.4673,4.3622197 Z m -23.0117,68.2109373 c 62.14,0.979999 214.0398,-1.97007 216.0098,83.839843 1.97,108.4999 -134.1392,103.56836 -214.0391,103.56836 -61.14992,-0.99 -98.63943,-50.30973 -94.68943,-95.67968 4.92999,-55.22995 33.53881,-91.728523 92.71873,-91.728523 z m 86.791,273.179693 c -24.6599,0 -48.3305,2.95961 -68.0605,10.84961 -53.25996,20.70998 -100.60895,68.05921 -135.12892,136.11914 -7.89999,14.79998 -23.68001,41.43119 -36.5,58.20117 -26.62997,36.49996 -29.59131,57.20992 -9.86133,60.16992 8.87999,0.99 13.81055,5.9186 13.81055,13.8086 0,6.90999 0.9807,12.83078 1.9707,14.80078 0.99,1.96999 2.95899,9.86 2.95899,17.75 4.92999,43.39995 11.83087,60.16985 26.63086,66.08984 5.91999,2.96 16.76891,3.95117 26.6289,3.95117 3.95,0 7.88962,-0.99023 10.84961,-0.99023 3.95,-0.99 7.89157,-0.99024 10.85157,-0.99024 7.88999,0 10.8496,1.96993 10.8496,5.91993 0,3.94999 -80.8797,30.57977 -95.67968,35.50976 -44.38996,14.78999 -80.88003,94.69029 -108.5,67.07031 C 697.72699,785.68266 611.90685,717.62174 588.23687,698.88175 542.8669,663.37179 509.3261,631.81283 501.4361,618.00285 c -10.85,-18.74998 -16.7606,-32.55158 -31.5606,-47.35156 -6.9,-6.91 -31.5594,-18.73852 -40.4394,-19.72852 -16.77,-2.96 -9.8595,19.72908 19.7305,33.53906 4.93,1.98 18.7389,16.76946 8.8789,22.68946 -3.95,0.98999 -54.2489,4.931 -69.0489,-2.95899 -65.0999,-35.50996 -73.9701,-53.25976 -96.6601,-53.25976 -18.74,7.88999 -2.9597,22.68876 12.8203,38.46875 21.7,22.68997 49.3199,34.53157 77.9199,47.35156 22.69,10.84999 57.2102,14.79915 78.9102,27.61914 19.7299,11.83999 86.8003,79.90033 103.57028,103.57031 39.44996,55.23995 77.91927,86.8002 130.19922,133.16016 0,0 -22.68056,38.47032 -31.56055,49.32031 0,0 -23.67918,-40.44108 -142.03905,-105.54102 -50.3,-27.60997 -97.651,-58.19001 -105.541,-72 -10.85,-18.74998 -16.7586,-32.54962 -31.5586,-47.34961 -6.9,-6.90999 -31.5614,-18.74047 -40.4414,-19.73046 -16.77,-2.96 -9.8595,19.73103 19.7304,33.54101 4.93,1.98 18.7409,16.76946 8.8809,22.68945 -3.95,0.99 -54.2508,4.93101 -69.0508,-2.95898 -65.0999,-35.50996 -73.9702,-53.26172 -96.6601,-53.26172 -18.74,7.88999 -2.9597,22.69072 12.8203,38.4707 21.7,22.68998 49.3199,34.52963 77.9199,47.34961 21.7,9.85999 61.1496,5.92025 82.8496,18.74024 19.73,11.83999 92.7206,78.90963 122.3106,101.59961 48.32991,38.46996 108.49963,128.2302 172.59957,123.2402 14.79998,-1.98 52.27962,-33.5397 65.09961,-41.42966 31.56996,-18.73998 41.43042,-30.58078 79.90039,-32.55078 28.60997,-0.98 55.24079,13.81073 69.05078,38.47073 23.66997,45.36991 50.29969,102.58111 59.17968,136.12111 19.71998,72.9899 13.80039,132.1787 6.9004,152.8886 -0.98,1.97 -2.96165,4.931 -4.93165,2.961 -54.24994,-48.33 -76.93968,-72.9904 -155.8496,-121.3203 -43.39996,-26.63 -100.60925,-27.61 -130.19922,-17.75 0,0 -59.18094,10.8499 -57.21094,66.0898 0.99,44.39 4.93106,67.0807 51.29101,152.8906 134.14987,247.5798 151.89918,274.2091 112.44922,304.7891 -22.68997,17.76 -55.24043,33.5397 -97.65039,41.4297 -56.21994,9.86 -56.21974,31.561 -35.50976,51.291 12.81998,12.82 25.65041,16.7695 43.40039,16.7695 20.70998,0 177.55045,1.9707 320.57031,1.9707 74.9599,0 171.6297,-9.8611 227.8496,-105.541 55.24,-95.6799 33.5401,-301.8288 30.5801,-400.4687 -2.96,-121.3199 -4.9304,-361.01091 -67.0703,-526.72074 -3.94,-9.86999 -49.31,-73.98065 -17.75,-98.64063 33.5399,-26.63997 67.0711,-66.0887 81.8711,-98.63867 8.88,-19.72998 11.8398,-38.4705 11.8398,-73.98047 0,-63.12994 -14.8008,-87.78995 -69.0508,-114.41992 -31.5699,-15.77998 -70.0293,-23.66992 -106.5293,-23.66992 z m 0.01,36.53906 c 82.85,3.95 124.2793,34.52975 130.1992,95.67969 3.95,43.39995 -15.7784,85.81027 -61.1484,127.24023 -21.7,19.72998 -35.5114,29.58985 -40.4414,29.58985 -1.97,0 -2.959,-1.96922 -2.959,-3.94922 0,-1.98 10.8502,-21.70065 24.6602,-44.39063 31.56,-52.27995 37.48,-96.65869 17.75,-116.38867 -10.85,-10.84999 -19.7312,-12.82031 -58.2012,-12.82031 -83.8399,0 -128.21987,-37.48159 -77.9199,-65.10156 12.82,-7.89 59.1805,-9.85938 68.0605,-9.85938 z m -125.2695,82.83984 c 14.79998,0 34.5196,6.90119 65.0996,21.70118 21.7,10.84998 30.5807,14.79882 38.4707,14.79882 4.93,0 9.8696,-2.95039 16.7695,-6.90039 7.89,-4.92999 15.78,-6.89843 23.67,-6.89843 15.78,0 27.6198,8.86993 29.5898,23.66992 1.97,20.71998 -10.8504,44.38918 -43.4004,81.86914 -31.5599,35.50996 -35.5096,61.15057 -10.8496,85.81055 10.85,10.84998 16.7596,59.17986 28.5996,83.83984 45.38,89.75991 65.1005,191.3608 73.9805,369.89062 5.92,119.3599 5.9189,237.7185 8.8789,357.0684 0,21.7 -6.9085,94.6916 -19.7285,119.3515 -28.6,53.26 -64.1115,81.8696 -88.7715,88.7696 -72.9899,21.6999 -145.97917,-1.9703 -170.61915,-19.7403 -78.90992,-53.2699 -139.07908,-199.2498 -159.78906,-234.7597 -49.31995,-83.8499 -84.83095,-161.7706 -93.71094,-213.0606 -12.81999,-72.9899 110.48029,-13.8095 163.74024,19.7305 38.46996,24.65 63.12997,69.0402 114.41992,96.6601 32.54997,17.76 59.17939,-11.8308 64.10939,-50.3007 7.89,-52.28 17.7504,-82.849 6.9004,-135.1289 -14.79,-71.02 -42.41029,-139.0798 -72.99026,-204.17974 -25.64997,-54.24995 -46.35938,-103.57071 -46.35938,-110.4707 0,-6.9 32.56062,-47.34026 104.56054,-72.99024 11.83,-4.92999 8.8698,-74.95961 -0.9902,-82.84961 -3.94002,-3.94999 -29.59113,-3.95117 -45.37112,-3.95117 h -3.94922 c -21.69997,0 -31.55946,-2.95985 -40.43945,-11.83984 -10.84999,-12.81999 -10.85077,-12.81994 3.94922,-23.66992 13.80999,-10.84999 13.80897,-10.84853 2.95898,-19.72852 -5.91999,-4.92999 -14.78828,-8.88086 -18.73828,-8.88086 -4.93999,0 -5.93117,-3.93938 -3.95117,-9.85937 1.98,-5.92 -0.9804,-12.82149 -6.90039,-16.77149 -10.84999,-6.89999 -9.86928,-8.86963 1.9707,-28.59961 l 12.82032,-20.70898 22.68945,12.82031 c 12.81999,6.89999 18.74087,9.85938 26.63086,9.85938 5.91999,0 11.83923,-1.9697 21.69922,-4.92969 13.80998,-3.95 32.54948,-8.88157 40.43948,-10.85156 29.5899,-5.92 32.5508,-9.8586 8.8808,-13.8086 -12.82,-2.96 -36.491,-9.86125 -51.29099,-15.78125 -12.82998,-4.92999 -19.73844,-7.88867 -25.64843,-7.88867 -5.91,0 -10.85095,3.94962 -20.71094,10.84961 -8.87999,6.89999 -13.80883,9.85937 -14.79883,9.85937 -0.99,0 -10e-4,-2.95867 2.95899,-7.88867 5.90999,-11.83999 20.70923,-18.74023 39.44921,-18.74023 12.82999,0 26.63166,2.95891 41.43165,8.8789 13.80994,5.92 22.67894,8.88086 26.62894,8.88086 3.94,0 3.9407,-1.96992 1.9707,-5.91992 -6.91,-10.84999 -39.45991,-24.64961 -66.08988,-28.59961 l -25.65039,-3.95117 12.82031,-13.81055 c 6.91,-6.89999 13.81017,-10.84961 24.66016,-10.84961 z m 145,33.54102 c -15.78,0 -46.3613,31.56009 -46.3613,48.33008 0,6.90999 -4.9294,16.76946 -9.8594,22.68945 -4.93,5.91999 -7.8899,14.80047 -5.9199,19.73047 1.97,5.91999 4.9294,8.87891 9.8593,8.87891 7.89,0 20.7105,-7.89018 37.4805,-24.66016 36.49,-34.51997 44.3908,-74.95875 14.8008,-74.96875 z m -4.9414,17.75977 c 9.86,0 10.8506,2.96032 7.8906,12.82031 -1.97,7.88999 -9.8593,19.72915 -15.7793,27.61914 -7.89,7.88999 -15.7802,12.82031 -18.7402,12.82031 -2.96,0 -2.96,-1.97039 0,-6.90039 1.97,-3.95 0.989,-7.88961 -2.961,-10.84961 -9.8599,-5.90999 14.7999,-35.50976 29.5899,-35.50976 z m -179.50977,17.75 c 2.95999,0 7.89133,2.95891 9.86133,8.8789 1.96999,4.93 1.96976,8.88086 -0.99024,8.88086 -5.91999,0 -12.82031,-6.90032 -12.82031,-12.82031 0,-3.94 1.96922,-4.92945 3.94922,-4.93945 z m 44.37109,1.98046 c 0.99,0 1.96899,0.98829 2.95899,0.98829 4.93999,1.96999 9.86984,2.96093 11.83984,2.96093 1.97,0 0.97976,2.9504 -0.99024,6.90039 -2.95999,3.95 -7.88836,5.91993 -12.81835,5.91993 -5.91,0 -11.83133,-3.93939 -9.86133,-9.85938 1.97999,-3.95 4.93109,-6.91016 8.87109,-6.91016 z m 90.75978,41.42969 c 1.97,0 2.959,1.97922 2.959,3.94922 0,2.96 -2.96,5.91992 -5.92,5.91992 -2.96,0 -5.9199,-1.96898 -5.9199,-2.95898 0,-0.99 2.9599,-3.94993 5.9199,-5.91992 0.98,-0.99 1.971,-0.99024 2.961,-0.99024 z" />
</svg>
