<?xml version="1.0" encoding="UTF-8" standalone="no"?>
<svg
   width="1567.545"
   height="1799.0546"
   version="1.1"
   id="svg1"
   xml:space="preserve"
   xmlns="http://www.w3.org/2000/svg"
   xmlns:svg="http://www.w3.org/2000/svg"><defs
     id="defs1" /><path
     id="path1"
     style="fill:#000000;stroke:none;stroke-width:119.16"
     d="M 859.35281,29.641612 C 829.71119,11.856511 785.24799,1.9761461 725.96444,0 607.3973,3.952285 532.79673,39.028772 502.1669,105.22877 c -30.6299,66.19996 -42.97984,108.19356 -37.05144,125.9786 -41.49854,96.82986 -45.44975,151.17326 -11.8557,163.03005 21.73728,-5.92847 36.0629,1.97637 42.97927,23.71374 6.91645,21.7372 16.30298,42.48585 28.15965,62.24714 7.90447,27.66561 -5.92719,68.17744 -41.49731,121.53272 l 68.17501,20.74986 c 21.73735,-84.97317 60.27353,-127.4606 115.60484,-127.4606 17.78508,39.52243 2.96331,87.93896 -44.4636,145.24647 -47.42679,57.30748 -103.74879,122.324 -101.23125,214.80925 4.91708,180.6353 46.25426,275.1173 87.41802,423.0555 -16.12222,28.021 -312.39887,-344.57417 -347.4984,-402.95479 -28.19666,-28.53376 -67.50622,-39.04957 -107.01226,-38.27396 -23.70349,0.46545 -47.47826,4.99743 -68.96506,12.13857 C 37.2256,868.74919 -13.69532,918.60031 3.3692215,974.83293 107.8753,1190.9529 201.65614,1361.3005 266.66321,1592.7742 c -79.60361,30.3721 -159.96749,58.9716 -239.091689,90.4608 -31.9555026,18.709 -16.419904,55.9602 -9.651477,83.8431 12.154864,29.0936 56.557751,31.9363 56.557751,31.9363 H 988.64611 c 19.58589,0 45.09349,1.8403 55.46619,-19.3917 6.9147,-14.1544 -58.24813,-77.3341 -86.44962,-110.665 129.46192,-142.2349 30.94682,-322.9163 18.7629,-337.9698 -21.86809,-102.6 -40.00136,-141.3584 -40.00136,-240.1643 0,-67.188 7.90481,-135.36569 23.71393,-204.52985 37.54592,-126.47152 77.06765,-200.57814 118.56645,-222.31558 31.6174,51.37911 66.6948,108.19438 105.2288,170.4422 38.5346,62.24769 57.8012,107.20458 57.8012,134.87038 0,25.68956 -7.9024,47.42625 -23.7115,65.21125 -41.498,61.2595 -66.2007,198.6022 -74.1051,412.0231 -11.8565,29.642 -19.7614,57.8038 -23.7138,84.4813 -3.9513,26.6778 -4.9399,50.8836 -2.964,72.6209 0,15.8091 7.4109,36.5598 22.2322,62.2496 14.82,25.6896 26.1827,50.3915 34.0871,74.105 1.9761,5.9287 5.9274,9.8803 11.8556,11.8559 3.9521,3.9514 7.9058,0.9864 11.8582,-8.8942 9.8809,9.8807 15.8101,8.8928 17.7861,-2.964 9.8806,5.9287 14.8195,3.9529 14.8195,-5.928 5.9286,1.9768 10.8701,1.9768 14.8219,0 3.9518,-1.9761 4.9399,-6.9152 2.964,-14.8193 -15.8092,-33.5944 -27.6674,-59.778 -35.5719,-78.5514 -7.9036,-18.7725 -12.8429,-47.9226 -14.8196,-87.4449 0,-9.8807 1.9755,-14.8199 5.9281,-14.8199 3.9516,0 7.9054,2.9635 11.858,8.8919 3.9517,11.8567 5.9276,26.1844 5.9276,42.9817 0,16.797 2.9634,29.6414 8.8919,38.5333 5.9284,8.8923 12.8453,11.3611 20.7499,7.4101 7.9043,-1.9762 8.8924,-11.3634 2.9638,-28.1596 -5.9285,-16.7973 -7.9062,-41.0036 -5.9303,-72.6212 1.9763,-31.618 -10.8676,-62.249 -38.5332,-91.8911 39.5217,-144.2567 65.2124,-247.0171 77.069,-308.2766 -17.7849,114.6151 -26.6775,219.3511 -26.6776,314.2043 9.8805,27.6659 17.7853,53.3557 23.7137,77.0692 5.9285,23.7137 14.8211,44.4643 26.6777,62.2496 7.9045,11.8568 22.2321,25.6886 42.9818,41.4974 20.7491,15.809 39.0281,33.5939 54.8371,53.3553 3.9526,1.9759 7.9037,2.9639 11.8558,2.9639 5.9283,0 7.9044,-3.9513 5.9279,-11.8556 11.8563,3.9525 15.8075,0 11.8557,-11.8558 11.857,3.9521 16.7985,0.9865 14.822,-8.8942 3.9522,0 7.4101,-1.4799 10.3736,-4.4435 2.965,-2.9641 1.4827,-7.4115 -4.4458,-13.34 -23.7136,-23.7135 -42.9804,-41.0052 -57.8014,-51.8733 -14.8208,-10.8688 -30.1365,-33.1014 -45.9453,-66.6954 -1.9756,-7.9045 -1.4817,-12.3495 1.4819,-13.3376 2.9647,-0.9877 6.424,0.4938 10.376,4.4457 5.9285,5.9279 12.8455,15.8089 20.7498,29.6415 7.9047,13.833 15.8095,23.7133 23.7139,29.6418 7.9037,5.9284 14.8189,5.9284 20.7474,0 3.9519,-5.9282 0.4948,-14.3271 -10.3738,-25.1957 -10.8686,-10.8687 -21.2429,-29.6417 -31.1234,-56.3194 -9.8809,-26.6776 -31.6196,-48.9077 -65.2136,-66.6929 29.6419,-128.4477 50.3926,-270.0534 62.2495,-341.1933 l 146.7955,279.3503 33.7685,-26.8321 -145.0205,-289.9577 c 45.4506,-27.6656 74.6249,-75.87692 75.6132,-119.35154 0.9879,-43.47462 -19.7604,-72.6243 -62.2471,-87.44519 -42.4868,-14.82091 -76.5753,8.39957 -102.2648,69.65929 -81.0216,-213.42083 -135.3673,-331.99056 -163.0324,-355.70402 -15.8093,-27.66559 -83.9865,-58.2947 -204.5297,-91.88875 l -118.56648,-32.60786 32.60557,-17.78357 c 57.30714,-23.71344 84.97297,-79.04702 82.99697,-165.99631 0,0 5.82974,-91.77009 -35.56952,-145.244127 C 909.05972,71.06706 888.91309,51.420844 859.35281,29.641612 Z m -136.3523,11.85571 c 100.78207,1.976144 164.01802,46.935423 189.70775,134.872718 25.68972,87.93725 13.83311,150.67946 -35.56932,188.22575 -33.59433,11.85675 -66.20122,-0.98945 -97.81915,-38.53572 21.73722,-47.4269 30.63018,-81.01934 26.67777,-100.78053 -9.88071,-33.59409 -27.17215,-49.40369 -51.87345,-47.42754 -24.70154,1.97614 -41.9928,11.85657 -51.87342,29.64162 C 684.4657,185.75626 625.18084,172.91005 524.39868,168.95788 556.01659,82.008667 622.21851,39.521264 723.00051,41.497322 Z M 553.57748,210.73572 c 34.89083,-0.92632 84.44931,12.81474 148.67321,41.22149 13.83282,1.97605 26.67896,-4.94085 38.53574,-20.74984 11.85668,-15.80899 20.25539,-15.31508 25.19585,1.48196 4.94025,16.79707 -7.41206,49.89796 -37.0539,99.30093 17.78498,49.40304 52.36761,98.8051 103.74676,148.20804 77.06856,5.92833 143.27019,37.54758 198.60196,94.85503 -108.68661,183.77909 -163.03021,349.77526 -163.03021,497.98417 4.72916,94.6814 19.65211,186.878 41.49732,278.6349 8.31622,3.4528 116.12429,203.3128 -36.24185,305.1847 l 24.22265,71.8327 H 144.52979 c 64.38335,-24.4282 129.17538,-47.8756 193.30041,-72.9249 34.58311,-18.1135 18.58871,-60.3251 9.25176,-88.8173 C 281.81147,1336.7673 190.00683,1166.8211 85.431216,951.91389 110.32205,918.90298 160.44143,913.71056 196.12036,930.39736 256.2534,1001.7503 313.45707,1075.9952 372.46,1148.4634 c 53.05377,65.7456 245.84091,264.0955 300.16456,218.7243 23.62335,-19.7306 24.23559,-50.6489 14.65116,-79.4071 C 581.56463,970.59304 570.45434,857.36873 591.09405,806.26071 c 20.74929,-51.37906 58.78922,-109.67605 114.12056,-174.88807 51.37915,-69.16411 59.77778,-123.50766 25.19573,-163.03004 -34.58212,-39.52241 -84.48041,-39.52241 -149.69236,0 -17.785,-1.97614 -31.61669,-18.77362 -41.49733,-50.39144 -13.83282,-43.47465 -32.60584,-62.24766 -56.31928,-56.31929 -23.71344,5.92836 -15.80862,-38.53472 23.71374,-133.38844 10.37469,-11.11565 26.02787,-16.95193 46.96237,-17.50771 z m 6.25277,24.77964 c -31.0313,1.08068 -47.78111,16.4416 -50.2512,46.08345 19.76116,25.68951 60.27065,14.81896 121.53037,-32.60788 -28.90073,-9.63358 -52.66046,-14.12398 -71.27917,-13.47557 z m 854.47135,654.1584 c 1.6355,-0.16513 3.1879,-0.12629 4.6585,0.11693 9.8035,1.62101 15.9418,12.31369 18.4126,32.07494 3.9519,31.61796 -2.0478,51.07089 -43.5464,74.78431 -41.0574,-50.91993 -19.1971,-85.15926 3.5286,-99.98003 6.3912,-4.16838 12.0405,-6.5007 16.9467,-6.9961 z" /></svg>
