<?xml version="1.0" encoding="UTF-8" standalone="no"?>
<svg
   width="940"
   height="1800"
   version="1.1"
   id="svg2155"
   sodipodi:docname="US9A2VARA.svg"
   inkscape:version="1.2.2 (732a01da63, 2022-12-09)"
   xmlns:inkscape="http://www.inkscape.org/namespaces/inkscape"
   xmlns:sodipodi="http://sodipodi.sourceforge.net/DTD/sodipodi-0.dtd"
   xmlns="http://www.w3.org/2000/svg"
   xmlns:svg="http://www.w3.org/2000/svg">
  <defs
     id="defs2159" />
  <sodipodi:namedview
     id="namedview2157"
     pagecolor="#ffffff"
     bordercolor="#000000"
     borderopacity="0.25"
     inkscape:showpageshadow="2"
     inkscape:pageopacity="0.0"
     inkscape:pagecheckerboard="0"
     inkscape:deskcolor="#d1d1d1"
     showgrid="false"
     inkscape:zoom="0.49820179"
     inkscape:cx="460.65671"
     inkscape:cy="895.21958"
     inkscape:window-width="1920"
     inkscape:window-height="1137"
     inkscape:window-x="-8"
     inkscape:window-y="-8"
     inkscape:window-maximized="1"
     inkscape:current-layer="svg2155" />
  <path
     id="path2153"
     style="fill:#000000;stroke:none;stroke-width:99.6174"
     d="m 626.70588,4.0593594 c 9.85448,-0.1783616 20.13424,0.1785052 30.83593,1.0703126 135.55484,14.268916 217.24396,49.226189 245.06836,104.874998 27.82441,55.64882 37.8128,130.20454 29.96485,223.66602 -7.84785,93.46148 -43.16396,163.02308 -105.94727,208.68359 58.50266,69.9178 79.90684,192.63092 64.21094,368.13868 -19.97646,292.51294 -43.16306,480.50724 -69.56055,563.98044 -26.39748,83.4732 -2.49757,170.1566 71.70118,260.0508 28.53786,25.6839 28.53786,45.6607 0,59.9297 H 43.262515 c -18.54962,-21.4033 -8.91814,-43.1645 28.89453,-65.2813 37.812615,-22.1169 58.859935,-49.5839 63.140625,-82.4023 4.28069,-28.538 -112.067275,-503.2812 -126.7265651,-565.5098 -12.14939,-51.5741 76.3864201,-184.59949 213.8943051,-87.40089 22.48227,15.89179 16.52114,19.55339 188.93578,289.05319 32.79687,-217.0839 54.91224,-397.97663 83.00836,-524.03695 C 325.84488,810.99938 140.83566,867.45209 8.8240449,879.20156 3.7734749,782.88721 20.574765,703.34602 162.94807,516.1453 c 19.10445,-52.45426 59.30982,-89.74708 120.61523,-111.87891 61.91203,-22.26604 94.32622,-26.70358 97.24023,-13.31054 2.91373,13.39312 -15.2663,26.27317 -54.53711,38.63867 18.88859,60.51469 14.34621,96.61772 -13.62695,108.31054 -27.49341,10.97597 -60.33097,22.22233 -98.51562,33.73633 -39.10723,65.34793 -32.55688,126.16143 -75.51737,183.4639 101.53269,-32.42444 201.03329,-94.55992 330.67429,-115.5016 36.45405,-14.04085 60.60844,-19.95469 78.05152,-27.20609 9.82905,-32.22241 15.92116,-42.80943 20.31499,-63.62144 4.85449,-22.99398 2.43174,-54.6524 -8.5625,-74.91211 -44.23366,15.69583 -79.90465,25.68422 -107.01562,29.96484 -27.11092,4.28065 -40.66797,-8.56256 -40.66797,-38.52734 0,-29.96476 -7.13347,-52.79447 -21.40234,-68.49023 0,0 -6.58152,-9.5512 -6.42188,-14.98243 0.14062,-4.78393 6.42188,-12.84179 6.42188,-12.84179 0,-18.54961 -9.98832,-31.39288 -29.96485,-38.52735 -5.7076,-7.13446 -8.5625,-14.26789 -8.5625,-21.40234 9.9883,-19.97646 28.53942,-49.94149 55.65039,-89.89453 C 425.67144,192.05196 450.64233,147.81813 482.034,86.461704 509.50166,32.774894 557.72453,5.3078909 626.70588,4.0593594 Z m 3.01172,43.8769536 c -52.7951,0 -94.17595,31.390553 -124.14063,94.173827 -7.13449,1.42692 19.26391,8.56233 79.19336,21.4043 48.51434,9.98831 75.62443,30.6787 81.33203,62.07031 15.69583,-14.26891 38.52555,-20.33366 68.49024,-18.19336 29.96478,2.14039 44.94726,17.47975 44.94726,46.01758 0,28.53784 -12.84126,64.2088 -38.52539,107.01563 12.84206,75.62533 36.38542,113.43945 70.63086,113.43945 38.52609,0 64.21067,-69.91838 77.05274,-209.75391 0,-94.17486 -29.96507,-153.74808 -89.89454,-178.718749 C 738.87407,60.420787 682.51258,47.936313 629.7176,47.936313 Z M 479.89338,178.49686 404.98127,309.05741 c 17.12269,21.40337 24.96981,36.38589 23.54297,44.94726 42.80673,4.28066 64.21093,12.12781 64.21093,23.54297 0,5.70757 -20.69041,10.70175 -62.07031,14.98242 10.79945,92.08874 44.4481,60.80336 85.61328,43.87696 45.66051,-19.26307 79.90603,-8.20412 102.73633,33.17578 7.13452,32.81859 2.85411,73.48571 -12.8418,122 49.94127,25.68413 110.58508,23.54294 181.92969,-6.42188 -44.23365,-45.66051 -76.33984,-126.9928 -96.3164,-243.99804 31.3917,-35.67228 45.30351,-61.71382 41.73632,-78.12305 -3.56729,-16.40929 -11.0576,-19.61909 -22.47265,-9.63086 -14.26889,12.84207 -29.25144,19.26172 -44.94727,19.26172 -15.69582,0 -33.53128,-21.40217 -53.50781,-64.20898 -59.92944,-15.69584 -104.16329,-25.68422 -132.70117,-29.96485 z m 21.40234,35.31446 c 17.12269,0.71346 47.08779,8.91941 89.89453,24.61523 v 4.2793 c -34.24536,9.98829 -63.13984,16.05304 -86.68359,18.19336 -23.54375,2.14027 -36.02817,-6.06364 -37.45508,-24.61329 5.7076,-15.69583 17.1214,-23.18806 34.24414,-22.4746 z m 314.63086,418.4375 c -89.89424,39.95297 -164.80683,44.9471 -224.73633,14.98242 -14.2689,39.95298 -32.46128,119.50288 -54.57812,238.64843 -22.11683,119.14543 -43.1641,258.62353 -63.14063,418.43553 -12.84199,58.5025 -40.66591,73.4851 -83.47265,44.9472 -76.3616,-96.2419 -174.96807,-293.6478 -203.71313,-313.9985 -88.178035,-62.42753 -122.145695,16.5406 -119.148205,60.065 2.99749,43.5242 77.735945,282.8219 94.136725,349.7207 23.28734,94.9891 44.29878,157.8448 39.30468,194.2304 -4.9941,36.3858 -15.33932,62.4252 -31.03515,78.1211 h 633.54101 c -54.22188,-54.222 -69.91808,-124.1403 -47.08789,-209.7539 22.8303,-85.6135 43.52067,-206.8993 62.07032,-363.8574 18.54963,-156.95823 26.75366,-274.67711 24.61328,-353.15622 -2.14028,-78.4791 -11.05811,-131.27379 -26.75391,-158.38476 z"
     sodipodi:nodetypes="scscccscccscssccccccccccccscsscsccccsssccccscsccscccsccccccccsccsccscsccsccssssccsssc" />
</svg>
