<?xml version="1.0" encoding="UTF-8" standalone="no"?>
<svg
   width="1526.6372"
   height="1795.1842"
   version="1.1"
   id="svg7241"
   xmlns="http://www.w3.org/2000/svg"
   xmlns:svg="http://www.w3.org/2000/svg">
  <defs
     id="defs7245" />
  <path
     id="path7239"
     style="fill:#000000;stroke:none;stroke-width:100"
     d="m 687.43986,0 c -72.4413,7.5634772 -135.06445,50.423828 -135.06445,50.423828 0,0 -54.6257,61.229042 -55.82617,100.847652 l -16.20899,64.83008 9.00391,18.00977 c -9.6045,26.41244 -16.50699,51.62345 -20.70899,75.63476 -4.20197,24.01134 -2.10123,37.8182 6.30274,41.41993 l 25.21289,9.0039 c -4.80233,8.40397 -3.00163,15.00828 5.40234,19.81055 -3.60164,12.00567 -4.1e-4,18.00781 10.80469,18.00781 l 5.40234,5.40234 c 0,10.8051 1.80062,21.91104 5.40235,33.31641 3.6017,11.40544 19.20928,14.7066 46.82226,9.9043 24.01127,-2.40113 48.62403,-10.20399 73.83594,-23.41016 l 7.36605,53.61521 c 4.63184,22.70228 -30.58878,48.75163 -57.00125,76.3647 -26.41244,27.61298 -53.55649,102.85311 -39.61914,223.30664 23.87587,206.34724 31.52127,324.39068 -1.63915,562.63198 0,9.3602 -0.22638,17.81 -0.1914,27.3321 -110.91581,25.596 -231.78565,68.612 -362.60938,129.0468 -130.823828,60.435 -195.5256028,120.5146 -194.10351188,180.2383 0,51.1921 16.35263688,91.0075 49.05859388,119.4473 H 1328.8824 c -34.1279,-63.9897 -81.7644,-89.2277 -142.9102,-75.7188 -61.1458,13.509 -102.7403,-13.1564 -124.7812,-79.9902 -22.0409,-66.8338 -58.6578,-81.0542 -109.8497,-42.6602 33.41541,-79.3616 40.75274,-175.8796 22.36523,-289.3222 -23.26109,-126.4624 -56.52174,-304.9468 -51.2569,-459.28968 3.00137,-74.43503 17.10837,-137.76558 42.32031,-189.99023 25.21184,-52.22465 48.62426,-70.83522 70.23436,-55.82812 21.6103,15.00707 72.0346,53.72653 151.2716,116.15625 -21.6103,56.42662 -33.0158,151.87252 -34.2168,286.33598 -18.0085,60.0282 -32.7156,108.0512 -44.1211,144.0683 -11.4054,36.0171 -1.4998,86.4411 29.7148,151.2715 14.4068,6.0026 28.5141,2.7017 42.3203,-9.9043 13.807,-12.6056 17.1073,-20.1107 9.9043,-22.5117 -14.4066,-18.0085 -23.712,-38.4179 -27.914,-61.2285 -4.202,-22.8109 1.502,-54.6263 17.1094,-95.4453 14.4068,32.4151 18.0076,61.2295 10.8046,86.4414 -7.2034,25.2117 -3.6021,38.4191 10.8047,39.6191 30.0143,-61.2288 34.816,-135.6654 14.4063,-223.3066 18.0085,-64.83067 27.6134,-114.65433 28.8144,-149.47074 l 68.4317,162.07614 c 19.2091,60.0285 33.6162,108.6516 43.2207,145.8692 9.6046,37.2174 47.4226,75.037 113.4531,113.455 18.0085,-3.6014 29.4148,-13.8072 34.2168,-30.6152 4.8027,-16.8079 2.4019,-25.8127 -7.2031,-27.0137 -21.6102,-6.0028 -41.1191,-18.0071 -58.5274,-36.0156 -17.4082,-18.0086 -30.3147,-48.6235 -38.7187,-91.8437 31.2145,19.2088 51.3261,41.719 60.3301,67.5312 9.004,25.8123 20.1081,35.1171 33.3144,27.9141 -9.6045,-67.2319 -50.4232,-132.063 -122.457,-194.4922 -16.808,-99.647 -37.8193,-183.08665 -63.0313,-250.31837 l 117.0567,232.30859 52.2246,-30.61328 -111.6524,-183.6875 129.6602,133.26368 32.416,-45.02149 -156.6738,-124.25976 c 79.2372,-39.61861 118.2557,-81.33753 117.0547,-125.15821 -1.2006,-43.82065 -20.1092,-69.93392 -56.7266,-78.33789 -36.6173,-8.40397 -66.6319,-1.80161 -90.043,19.8086 -23.4108,21.61018 -41.1193,68.4328 -53.125,140.46679 l -21.6093,-34.21484 C 1207.8869,600.28567 1139.4526,542.95732 1060.2153,483.5293 980.97787,424.10135 919.7481,394.38672 876.52775,394.38672 c -46.82205,0 -79.8378,-15.60756 -99.04687,-46.82227 75.63563,-32.41528 117.65657,-75.33461 126.06054,-128.75976 8.40397,-53.42518 2.10167,-103.25087 -18.9082,-149.472659 C 863.62328,23.110239 797.89193,0 687.43986,0 Z m 33.70898,43.445312 c 12.79354,-0.150059 25.86834,0.375596 39.22461,1.576172 53.42518,4.802259 87.04116,39.918813 100.84766,105.349606 13.80657,65.43089 -18.30887,118.55579 -96.3457,159.375 22.81078,-54.02542 24.91154,-96.34454 6.30273,-126.95898 -18.60874,-30.61441 -37.21736,-41.42029 -55.82617,-32.41602 -18.60874,9.00467 -32.71584,8.70408 -42.32031,-0.90039 -9.60457,-9.60447 -52.22372,-13.20578 -127.85938,-10.80468 1.2006,-33.61584 24.01072,-58.828773 68.43164,-75.636722 C 646.91963,50.423333 682.76826,43.8955 721.14884,43.445312 Z M 549.64494,169.61914 c 70.25209,-1.57595 117.98544,9.71559 143.19726,33.87695 19.2091,-25.21184 36.61727,-27.61273 52.22461,-7.20312 15.60744,20.40961 6.00199,45.02236 -28.81445,73.83594 7.20337,44.42092 23.11105,87.34021 47.72266,128.75976 24.61158,41.41955 63.33133,63.33132 116.15625,65.73242 52.82489,2.40113 53.72529,75.03504 2.70117,217.90235 -34.30871,236.00638 5.0441,421.08366 32.24909,639.13536 -106.64983,8.532 -205.48037,22.7521 -296.48828,42.6602 10.67142,-295.2444 16.47809,-384.16394 -14.10356,-624.09612 -11.23286,-88.12887 13.23144,-173.87381 72.05919,-214.69302 32.41524,-21.61021 22.89635,-50.10454 18.09411,-89.72322 -12.00564,-30.01411 -22.81145,-51.62384 -32.41602,-64.83008 -15.60734,13.20624 -36.91695,25.21053 -63.92969,36.01563 -27.01271,10.8051 -44.72103,5.40315 -53.125,-16.20703 8.40397,-6.00287 15.30639,-10.50442 20.70899,-13.50586 5.4025,-3.0014 9.30397,-5.10221 11.70507,-6.30274 l -3.60156,-12.60742 -30.61523,-1.80078 c -2.40113,-3.6017 -8.40334,-4.20188 -18.00781,-1.80078 1.20057,-4.8023 -1.20026,-8.40349 -7.20313,-10.80469 -16.80794,-3.6017 -25.21289,-7.80317 -25.21289,-12.60547 0,-4.80224 1.50244,-15.90819 4.50391,-33.3164 3.00137,-17.40824 9.30363,-40.51843 18.9082,-69.33204 l -7.20313,-18.00976 9.00391,-39.61719 c 10.95517,-0.75035 21.45032,-1.23775 31.48633,-1.46289 z m 11.2832,29.375 c -13.50636,0.60029 -29.5631,3.30127 -48.17187,8.10352 l 3.60156,14.4082 c 37.21748,-9.60457 63.03066,-11.10701 77.4375,-4.50391 14.40674,6.60313 35.41623,6.30301 63.0293,-0.90039 l -3.60157,-10.80468 c -22.81071,6.00287 -42.61979,5.40271 -59.42773,-1.80079 -8.40397,-3.60167 -19.36081,-5.10224 -32.86719,-4.50195 z m -12.1543,23.41211 c -12.00561,0.60027 -24.0119,8.70318 -36.01757,24.31055 l 3.60156,1.80078 c 7.20337,-10.8051 15.90656,-17.40747 26.11133,-19.8086 10.20484,-2.4011 20.41046,-2.70116 30.61523,-0.90039 10.20484,1.80087 21.31071,3.30136 33.31641,4.50196 l 1.80078,-3.60157 c -13.20624,-1.20057 -23.41184,-2.70115 -30.61524,-4.50195 -7.20337,-1.80087 -16.8068,-2.40078 -28.8125,-1.80078 z m 109.85157,8.10352 -63.0293,7.20312 c -34.81641,-9.6045 -58.82899,-5.403 -72.03516,12.60547 l -14.40625,18.00976 5.40235,7.20313 9.0039,-5.40234 c 26.41247,3.6017 51.0252,-4.20304 73.83594,-23.41211 l 63.0293,-3.60157 z m -99.04688,9.0039 27.01172,3.60156 c -7.20344,6.0029 -15.00628,10.80458 -23.41015,14.40625 4.80227,-7.20344 3.60193,-13.20551 -3.60157,-18.00781 z m -21.61133,7.20313 c -2.4011,7.20344 0.002,12.60536 7.20508,16.20703 -7.20337,1.2006 -13.8077,0.60039 -19.81054,-1.80078 1.20057,-4.80227 5.40209,-9.60401 12.60546,-14.40625 z m 1.74414,70.51562 c -0.56274,-0.0375 -1.14386,0.16892 -1.74414,0.61914 -2.40067,1.8008 -2.70126,4.50182 -0.90039,8.10352 1.8008,3.60167 1.20062,6.30264 -1.80078,8.10351 -3.00137,1.8008 -6.90278,0.90053 -11.70508,-2.70117 -4.80227,-3.60167 -8.40351,-5.40234 -10.80468,-5.40234 -2.4011,0 -4.20185,1.20046 -5.40235,3.60156 -1.2006,2.40113 -0.60032,4.802 1.80078,7.20313 2.40113,-3.60167 6.90316,-3.30201 13.50586,0.90039 6.6032,4.20147 12.30523,4.50206 17.10743,0.90039 4.80217,-3.60173 6.30285,-8.40348 4.50195,-14.40625 -1.35067,-4.50225 -2.87031,-6.80936 -4.5586,-6.92188 z m 26.84571,45.41406 c 1.95091,0.15003 2.62569,0.52671 2.02539,1.12696 l -41.41992,7.20312 c -2.4013,0 -3.30115,-1.20046 -2.70118,-3.60156 0.6003,-2.4012 3.90143,-3.60156 9.9043,-3.60156 6.0028,0 13.50745,-0.30039 22.51172,-0.90039 4.50215,-0.30035 7.72878,-0.37659 9.67969,-0.22657 z m 3.82617,2.92774 c 1.20053,1.2006 -3.00097,4.50177 -12.60547,9.9043 -9.60457,5.4025 -16.20888,8.70369 -19.81055,9.90429 -4.80227,1.2005 -8.10339,1.2005 -9.90429,0 -1.8009,-1.2006 -0.90053,-3.60145 2.70117,-7.20312 z m 833.07818,197.6289 c 7.2319,0.30988 14.6746,2.26552 22.3281,5.86719 20.4097,9.6045 25.8121,26.41249 16.2071,50.42383 -9.6046,24.01134 -43.2204,52.8255 -100.8477,86.44141 1.2005,-73.23459 10.5058,-116.75603 27.9141,-130.5625 8.7041,-6.90325 17.7819,-10.88114 27.2363,-11.93164 2.3636,-0.26263 4.7515,-0.34158 7.1621,-0.23829 z M 917.21434,1381.3815 c 19.90792,88.1638 -1.4224,172.7741 -63.99023,253.8281 -95.27389,54.0357 -210.81252,62.2141 -346.61328,24.5312 -135.80075,-37.6829 -264.13599,-29.5065 -385.00586,24.5293 0,-46.9258 12.79854,-83.8999 38.39453,-110.9179 164.95169,-75.3661 307.50537,-124.4239 427.66406,-147.1758 120.15883,-22.752 230.01082,-37.685 329.55078,-44.7949 z" />
</svg>
