<?xml version="1.0" encoding="UTF-8" standalone="no"?>
<svg
   width="1565.8389"
   height="1799.9908"
   id="svg2"
   version="1.0"
   xml:space="preserve"
   xmlns="http://www.w3.org/2000/svg"
   xmlns:svg="http://www.w3.org/2000/svg"
   xmlns:rdf="http://www.w3.org/1999/02/22-rdf-syntax-ns#"
   xmlns:cc="http://creativecommons.org/ns#"
   xmlns:dc="http://purl.org/dc/elements/1.1/"><metadata
     id="metadata9"><rdf:RDF><cc:Work
         rdf:about=""><dc:format>image/svg+xml</dc:format><dc:type
           rdf:resource="http://purl.org/dc/dcmitype/StillImage" /></cc:Work></rdf:RDF></metadata><defs
     id="defs7"><clipPath
       clipPathUnits="userSpaceOnUse"
       id="clipEmfPath1"><path
         d="M 0,0 H 124.43852 V 129.53846 H 0 Z"
         id="path1068" /></clipPath><pattern
       id="EMFhbasepattern"
       patternUnits="userSpaceOnUse"
       width="6"
       height="6"
       x="0"
       y="0" /></defs><path
     id="path2-5"
     style="display:inline;fill:#000000;stroke:none;stroke-width:110.937"
     d="m 937.08772,0.00482484 c -21.9211,-0.09911607 -44.6085,1.32876506 -68.0969,4.29277386 -75.1631,9.4848343 -128.07096,63.1111533 -158.7151,160.8967713 -17.51705,21.89629 -37.94452,52.56885 -61.29345,91.97151 -11.67449,24.81221 -12.06159,38.65177 -1.12412,41.5784 10.94819,2.91595 20.08294,8.02914 27.37819,15.32435 -7.29525,4.37927 -10.21531,9.11726 -8.75201,14.23352 1.45262,5.10555 5.84944,8.37755 13.14466,9.84087 10.2218,-1.46333 10.22182,0.72977 0,6.57233 -10.21117,5.83189 -11.33595,10.97642 -3.30379,15.35568 8.02155,4.36857 12.0558,17.50243 12.0558,39.39873 0,21.88561 12.41562,32.11003 37.21711,30.64672 52.54041,-1.45263 67.14051,8.36334 43.79137,29.52261 -35.56239,19.58263 -81.90881,24.79578 -114.94331,40.92627 -23.06794,11.26391 -37.46855,25.90955 -55.43007,50.65161 -115.72834,44.09618 -300.58987,94.40063 -409.43701,150.88748 81.28956,-75.78027 150.8451,-154.33905 208.71459,-235.62865 38.57611,-2.75466 75.80061,-5.50187 111.62191,-8.25653 35.82152,-2.75466 53.73018,-36.50142 53.73018,-101.25228 56.49766,-4.13736 85.44031,-14.14469 86.82291,-29.98675 1.37193,-15.85274 -36.17985,-23.0689 -112.64614,-21.69692 -76.46627,1.38272 -135.38379,31.67444 -176.71462,90.91594 C 104.83785,580.82654 -15.03495,726.9034 1.50391,834.3677 c 143.2965,-2.75463 262.82014,-22.74484 358.57977,-59.93824 85.76927,-33.3227 233.8097,-46.68246 296.4932,-51.09028 27.07996,102.89956 67.93984,444.54872 71.91962,491.62052 l -13.3405,-0.425 C 573.2298,1076.2172 463.22179,891.68258 231.91148,899.36053 138.75637,895.50228 42.90637,962.42068 71.35938,1029.0427 c 180.31797,254.0644 318.1089,478.8024 347.48361,533.6179 32.57065,77.9276 -96.86472,112.2259 -162.84732,128.0881 -26.42733,6.1039 -91.44023,105.5648 -49.59995,105.3473 43.05339,-0.2241 195.40554,5.2251 211.81471,-1.8214 41.81835,-17.9566 105.81081,-19.7748 145.37462,3.2038 40.85288,7.4502 66.81126,-1.6683 77.87311,-27.3584 5.1457,-22.2086 6.01117,-35.2971 5.12705,-43.433 27.15146,26.6604 103.64245,71.8261 249.94831,72.0606 231.49528,0.3708 232.41818,-404.6657 202.01888,-551.5745 -7.8139,-66.177 -21.6197,-89.1522 3.5583,-221.824 195.5129,35.0615 323.7516,52.3119 384.2386,51.6504 66.4045,-0.7371 91.1955,-37.2077 74.4047,-109.44419 C 1543.9742,895.30826 1486.3507,801.52262 1387.8387,686.22 1289.316,570.92803 1222.1814,507.07925 1186.4211,494.67847 c -35.7498,-12.41145 -71.5021,-20.42145 -107.2625,-24.0744 -35.7497,-3.65293 -57.3001,-33.21528 -64.5954,-88.67162 33.5708,-11.67447 66.0406,-36.46354 97.4218,-74.40286 31.3704,-37.95 47.0598,-89.04136 47.0599,-153.26692 0,-65.667489 -29.5623,-109.453295 -88.6716,-131.338898 C 1029.7429,7.870072 985.31422,0.22288626 937.08772,0.00482484 Z M 919.98122,32.271131 c 31.411,-0.230314 66.9557,4.695425 106.63588,14.728992 63.4887,16.05372 95.2086,53.282897 95.2086,111.655207 0,55.46703 -21.1439,103.26183 -63.473,143.39079 -42.3187,40.13961 -70.05048,50.70721 -83.18818,31.73754 -13.1378,-17.51704 -2.5616,-42.69323 31.73558,-75.52697 34.2972,-32.83375 43.0781,-65.31426 26.2874,-97.42168 -16.7801,-32.10743 -53.64468,-35.01688 -110.56438,-8.75201 -20.433,-20.4223 -66.3904,-36.5076 -137.9113,-48.18208 13.1378,-33.560067 40.8608,-55.441667 83.1902,-65.652807 15.8693,-3.833187 33.2328,-5.838796 52.0792,-5.976982 z M 764.99683,136.75866 c 59.83559,4.37926 107.99479,18.97916 144.48169,43.79138 -1.4634,21.8963 7.6715,22.97521 27.3781,3.26855 19.7067,-19.69597 38.6575,-25.53426 56.9008,-17.50206 18.24328,8.02153 20.43648,25.15442 6.57228,51.41928 -13.86408,26.27556 -31.01978,48.92745 -51.45258,67.8971 -20.433,18.96967 -25.1484,37.56859 -14.2003,55.81194 10.9483,18.24334 18.6066,33.92216 22.9857,47.05993 7.2951,72.97338 48.51248,118.57706 123.67568,136.82041 75.1629,18.24333 104.7233,51.46286 88.6697,99.63466 2.9159,-5.84258 -20.4521,57.27914 -70.0768,189.36184 -15.1883,40.43161 -27.3537,83.43226 -36.5258,128.99473 -2.429,-0.29252 -4.8382,-0.59451 -7.2322,-0.92435 h -2.213 c -45.245,-32.10744 -81.71398,-59.11419 -109.44228,-81.01044 -27.7282,-21.88561 -86.8613,-22.64398 -177.34132,-2.21101 -1.46311,20.43297 5.84101,41.60819 21.89482,63.50445 33.5707,-14.5904 65.6887,-19.3498 96.3327,-14.23352 30.6549,5.10557 54.7416,21.51145 72.2585,49.23959 -23.349,13.13779 -49.2752,11.69435 -77.74,-4.35934 -28.4547,-16.05374 -44.1333,-15.32667 -47.0599,2.17968 83.2205,88.25832 188.63188,49.03042 212.98188,59.65432 -9.607,76.4929 -20.7799,126.1992 -16.9714,209.3588 l -242.77868,-7.7238 c 3.8965,-138.4198 -53.23193,-483.11431 -68.15751,-536.01902 -24.07529,-85.37418 -8.40719,-134.29381 47.05992,-146.69457 55.45619,-12.41146 83.54189,-38.65783 84.27909,-78.79747 0.7262,-40.12896 -22.2461,-57.64701 -68.9548,-52.54144 -46.69777,5.10558 -65.68385,-9.85688 -56.936,-44.88025 27.73883,-14.60106 37.22545,-25.16671 28.46704,-31.73558 -8.75859,-6.56887 -24.08354,-11.30688 -45.96909,-14.23353 1.45261,-10.21113 -8.75046,-20.42488 -30.64673,-30.64671 20.43296,-46.69786 41.58754,-78.81579 63.47313,-96.33283 18.98044,-11.67446 39.43055,-12.40149 61.32665,-2.17967 21.8963,10.21113 43.7566,17.52613 65.653,21.89471 v -13.14271 c -13.1379,-1.4633 -30.6577,-8.04253 -52.5434,-19.71699 -21.896,-11.67444 -44.51501,-13.86557 -67.86392,-6.57037 7.29528,-11.67446 13.87239,-21.14051 19.71503,-28.43571 z m 211.38969,34.90816 c -3.5634,0.15679 -7.6274,0.94238 -12.1869,2.31089 -14.5903,4.37927 -27.3598,14.9575 -38.308,31.73755 -10.9483,16.78004 -14.22,29.54938 -9.8408,38.30792 -11.6743,4.37924 -18.6163,11.32102 -20.8058,20.80585 -2.1897,9.48484 1.8427,16.03949 12.0537,19.68174 10.2218,3.65293 24.8217,-3.28881 43.7914,-20.80585 18.9805,-17.50633 31.7389,-33.9229 38.308,-49.23962 6.5688,-15.32739 7.6478,-27.00524 3.2685,-35.03741 -3.0035,-5.51479 -8.4405,-8.106 -16.2801,-7.76107 z M 772.82449,186.858 c -8.40295,0.0327 -16.12619,2.28733 -23.15004,6.80342 l -21.89668,15.32237 v 15.32435 h 10.9317 c 26.27546,13.13775 56.22295,13.13775 89.79375,0 l 32.8264,6.57036 v -17.50206 l -32.8264,-2.17968 c -21.0775,-16.28303 -39.6365,-24.40101 -55.67873,-24.33876 z m 196.13203,4.78823 c 6.4989,-0.11513 9.2957,3.49532 8.3878,10.79853 -1.4632,11.67446 -6.5659,22.60457 -15.3244,32.82639 -8.7585,10.21115 -17.5061,17.52614 -26.2541,21.89473 -8.7584,4.37925 -8.7583,1.07398 0,-9.87418 8.7479,-10.94814 8.748,-14.9365 0,-12.02055 -8.7584,2.91596 -10.587,-0.74119 -5.4815,-10.96301 5.1056,-10.21115 12.7743,-19.6859 22.9855,-28.43376 6.569,-2.7397 11.7872,-4.15904 15.6867,-4.22815 z m -203.95969,6.40588 c -5.84254,7.2952 -5.84264,14.60147 0,21.89666 -8.75847,-2.91594 -15.33578,-5.82538 -19.71503,-8.75201 2.91602,-4.37924 9.49325,-8.76539 19.71503,-13.14465 z m 24.07449,4.39265 28.467,15.29105 c -11.6747,1.46331 -22.6047,2.21297 -32.8265,2.21296 8.7585,-4.37926 10.2019,-10.20881 4.3595,-17.50401 z m 124.7998,54.72112 c 8.7586,5.84257 10.1912,11.29693 4.3594,16.4132 -5.8429,5.10556 -9.831,5.10555 -12.0207,0 -2.1897,-5.11626 0.3658,-10.57063 7.6613,-16.4132 z m -180.67645,20.67463 c -0.33118,-0.0222 -0.65842,0.039 -1.02425,0.13122 -2.916,0.7263 -4.02813,3.28195 -3.30181,7.66118 0.72628,4.37927 -0.70645,7.28871 -4.35937,8.75203 -3.65294,1.45262 -7.67452,-0.74047 -12.05385,-6.57234 -4.37924,-5.84258 -8.01575,-8.75004 -10.93169,-8.75005 -2.91592,0 -5.10903,1.07891 -6.57233,3.26854 -1.46332,2.17892 -1.46334,4.74522 0,7.66119 4.37925,-2.91596 9.48177,-1.0854 15.32435,5.48347 5.83194,6.56888 12.02401,8.39746 18.59289,5.4815 6.56897,-2.92662 9.4764,-7.66462 8.75005,-14.23351 -0.64484,-5.73842 -2.10571,-8.72712 -4.42399,-8.88323 z m -34.27953,44.12039 c 1.9156,0.0335 4.23222,0.31306 6.96793,0.85778 7.29524,1.46332 15.71373,2.56678 25.1985,3.30379 9.48491,0.72632 13.48388,1.08885 12.02055,1.08886 l -45.97107,2.17968 c -4.37932,-1.46331 -5.85594,-3.2586 -4.39265,-5.44823 0.91457,-1.36853 2.98408,-2.03768 6.17674,-1.98188 z m 42.00731,11.82276 c -1.45261,2.91594 -5.83873,5.83608 -13.14468,8.75201 -7.29515,2.91595 -13.12283,5.10706 -17.50205,6.57038 -5.84257,0 -9.50167,-1.11223 -10.96498,-3.30184 -1.46333,-2.18963 0.0134,-4.74524 4.39265,-7.66119 z m 457.55245,374.33301 c 59.8357,78.81595 135.7286,158.35552 227.6718,238.63476 -97.7856,-8.75853 -173.3143,-10.20194 -226.5809,-4.35936 -28.0072,3.06634 -54.5075,4.48421 -79.4908,4.32606 17.9446,-68.30711 44.0855,-147.83744 78.3999,-238.60146 z M 235.11734,967.35752 c 222.77835,5.547 409.44459,256.87798 475.97307,320.93378 l 349.73179,5.9848 c 0.7277,33.0595 47.8238,450.1731 -185.87588,454.3916 -228.24158,4.1201 -259.18959,-195.5137 -315.51891,-336.879 -56.6983,-142.2905 -155.89042,-266.1661 -191.41228,-294.102 -29.96376,-23.565 -97.89757,-37.8651 -97.89757,-37.8651 53.33372,66.2347 115.85483,167.6628 168.23679,279.9565 64.15719,137.5374 94.31295,160.3988 127.2067,245.6536 39.07114,73.581 35.61678,140.5546 -2.39901,136.1859 -39.44606,-7.46 -112.32941,-5.0037 -168.51095,6.2845 -41.78435,-6.4885 -82.40774,-7.3733 -124.7372,-8.3663 89.25612,-38.1034 259.33815,-71.1409 205.61838,-193.21 -39.37396,-74.9481 -192.34713,-293.2838 -324.78594,-513.1745 -17.80662,-63.75399 33.05536,-66.05806 84.37101,-65.79378 z" /></svg>
