<?xml version="1.0" encoding="UTF-8" standalone="no"?>
<!-- Generator: Adobe Illustrator 19.0.0, SVG Export Plug-In . SVG Version: 6.00 Build 0)  -->

<svg
   version="1.1"
   id="Ebene_1"
   x="0px"
   y="0px"
   viewBox="0 0 890.29053 1799.8295"
   xml:space="preserve"
   width="890.29053"
   height="1799.8295"
   xmlns="http://www.w3.org/2000/svg"
   xmlns:svg="http://www.w3.org/2000/svg"><defs
   id="defs1050">
	
	
	
	
</defs>
<style
   type="text/css"
   id="style1040">
	.st0{fill:#010101;}
</style>
<path
   id="XMLID_6_"
   style="display:inline"
   class="st0"
   d="m 590.59133,0 c -11.7,0 -20.2992,3.8000077 -25.6992,11.5 H 452.69094 c -5.5,-6.4999935 -13.60001,-9.8007812 -24.5,-9.8007812 -5.2,3.2999967 -10.2004,6.6007844 -14.90039,9.8007812 h -9.39844 l 1.19922,5.798828 c -30.49997,22.299977 -47.90079,42.800018 -52.30078,61.5 -5.3,23.099982 -11.49962,52.300822 -18.59961,87.800782 -83.89992,41.39996 -152.49927,91.59928 -205.69922,150.69922 10.59999,54.39994 69.79894,140.70051 177.29883,258.90039 16.59998,67.39993 35.20041,125.00044 55.90039,172.90039 20.69998,47.89995 30.40078,87.79925 29.30078,119.69922 L 275.69094,1278.4004 c -17.69998,48.4999 -24.2,94.5989 -19.5,138.2988 -28.39997,90.9999 -47.29923,159.6012 -56.69922,205.7012 -5.89999,40.1999 -18.90002,65.8996 -39,77.0996 -20.09998,11.2 -57.30123,28.6988 -111.701171,52.2988 -28.39997,8.3 -44.2984403,16.3004 -47.89844034,23.9004 -3.49999996,7.7 3.29846004,14.2 20.39844034,19.5 17.09998,5.3 41.70159,3.7996 73.60156,-4.4004 31.899971,-8.3 64.698471,-6.7996 98.398441,4.4004 33.69997,11.2 48.80117,2.1 45.20117,-27.5 0,-28.4 23.09927,-85.3997 69.19922,-171.0996 46.09995,-85.6999 59.09998,-154.5997 39,-206.5996 -1.2,-18.9 6.20119,-39.5996 22.20117,-62.0996 15.99999,-22.5 28.69962,-39.0012 38.09961,-49.7012 h 101.09961 c 3.5,16.6 14.20041,43.2008 31.90039,79.8008 14.19999,135.9999 23.60041,226.9996 28.40041,273.0996 3.5,44.9 -2.1008,74.7996 -16.8008,89.5996 -14.79999,14.8 -43.40004,24.5008 -86,29.3008 -25.99997,16.6 -39.60078,28.9992 -40.80078,37.1992 -1.2,8.3 7.1008,12.4004 24.80078,12.4004 18.89998,0 41.40042,-0.8992 67.40039,-2.6992 25.99997,-1.8 56.99961,-2.4008 93.09961,-1.8008 36.1,0.6 48.2004,-12.0996 36.4004,-38.0996 -10.6,-41.4 -6.8,-107.3013 11.5,-197.7012 18.3,-90.3999 9.2,-157.4989 -27.5,-201.2988 v -81.5996 l -16,-221.7012 c 11.8,-18.9 17.3988,-46.4 16.7988,-82.49998 -0.6,-36.09996 -7.3984,-65.00041 -20.3984,-86.90039 -13,-21.89998 -19.5,-40.49845 -19.5,-55.89844 0,-28.39997 9.3996,-78.40085 20.5996,-148.80078 11.2,-70.29993 34,-92.7008 44,-107.30078 16,-7.29999 21.5,-12.99883 32,-17.29883 l 21.2988,-12 c 6.7,-3.5 21.8,-13.80001 28,-20 107.5999,-118.19988 142.4,-154.30123 153,-208.70117 C 837.19063,256.59889 768.69083,206.39996 684.69093,165 c -7.1,-35.49996 -13.2996,-64.7008 -18.5996,-87.800782 -3.9,-16.999983 -18.7008,-35.50002 -44.3008,-55.5 l 2,-10.199218 h -15.8984 c -5.4,-3.7999962 -11.1008,-7.6000039 -17.3008,-11.5 z M 446.49172,47 h 130.00001 c -0.1,6.199993 0.1996,12.399615 1.0996,18.599609 L 554.69094,183.59961 h -79.79883 z m -33,10.298828 5,23.800781 C 413.29173,93.399597 403.59053,105.40001 389.29055,117 c 3.5,-27.199973 11.20001,-46.700012 23,-58.5 z m 199.69921,7.5 c 8.2,11.899988 13.6996,28.701584 16.5996,50.601562 -9.3,-7.49999 -16.5996,-15.20001 -22.0996,-23 z m -187.79882,49.400392 18.69922,89.5 c -29.29997,12.29999 -51.1004,41.29965 -65.40039,87.09961 -10.59999,11.79999 -22.50001,29.00041 -35.5,51.40039 -7.09999,15.39998 -7.40038,23.90117 -0.90039,25.70117 6.49999,1.8 12.10078,4.99883 16.80078,9.79883 -5.89999,2.4 -8.29961,5 -7.09961,8 1.2,2.9 4.09922,4.99961 8.69922,6.09961 -0.6,0.5 -1.69883,1.40117 -3.29883,2.70117 -3.5,3 -3.00117,5.6 1.79883,8 4.69999,2.4 7.4,9.2004 8,20.40039 0.6,11.19999 5.30118,17.99844 14.20117,20.39844 8.89999,2.4 22.19846,3.00078 39.89844,1.80078 8.29999,16.59998 2.10037,29.60001 -18.59961,39 -20.69998,9.49999 -44.59886,6.49959 -71.79883,-8.90039 -30.89997,-31.89997 -71.70005,-80.99929 -122.5,-147.19922 34.29997,-24.79997 90.40008,-75.10125 168.5,-150.70117 21.39998,-21.39998 37.60001,-42.49963 48.5,-63.09961 z m 174.89842,11.59961 c 10.4,16.49998 24.1016,33.20119 41.1016,50.20117 77.9999,75.69992 134.2,125.89924 168.5,150.69922 -50.8,66.19993 -91.6004,115.3012 -122.4004,147.20117 -22.3,12.59999 -20.2,14.5 -43,17.5 l -10.9004,0.5 -10.6992,0.59961 c -1.4,0.2 -4.8001,0.6 -37.5,2.5 -40.19998,2.3 -56.30001,-20.00083 -48.00002,-70.80078 24.80002,-11.79999 46.39922,-28.70002 64.69922,-50.5 18.3,-21.89998 27.5,-51.69965 27.5,-89.59961 0,-35.89996 -15.4008,-60.3004 -46.3008,-73.40039 z M 466.99172,215.5 h 53.40039 c 9.99999,1.4 20.59884,3.49922 31.79883,6.19922 36.09999,8.89999 54.09959,29.90003 54.09959,63 0,33.09997 -11.8,61.20119 -35.5,84.20117 -23.59996,23.09998 -38.9996,29.2996 -46.09959,18.59961 -8.29999,-9.49999 -2.39881,-23.90041 17.70117,-43.40039 20.00002,-19.49998 24.69962,-38.79924 14.09961,-57.69922 -10.59999,-18.89998 -31.90081,-20.09998 -63.80078,-3.5 -11.79999,-11.79999 -38.39887,-21.3004 -79.79883,-28.40039 9.49999,-20.09998 25.99924,-32.79961 49.69922,-38.09961 1.4,-0.3 2.90039,-0.60039 4.40039,-0.90039 z m -62.90039,56.90039 c 33.09997,3.5 60.29963,11.79884 81.59961,24.79883 -1.2,14.19999 3.79962,15.39999 15.09961,3.5 11.19999,-11.79999 22.50118,-15.39961 33.70117,-10.59961 11.19999,4.7 12.70038,15.10002 4.40039,31 -8.29999,15.99998 -18.60001,29.3004 -31,39.90039 -12.39999,10.59999 -15.09999,21.00001 -8,31 7.09999,9.99999 8.3,19.20001 3.5,27.5 -2.4,55.59995 11.79964,90.70002 42.59961,105.5 30.70001,14.79999 42.90041,48.49966 36.40041,101.09961 -6.5,52.59995 -16.8,116.70047 -31.00002,192.40039 l -120.60156,26.59961 c 1.2,-23.59998 -9.49846,-59.10044 -31.89844,-106.40039 -22.69998,-47.39995 -40.40001,-92.59926 -53.5,-135.69922 -12.99999,-43.19996 -9.80115,-67.69961 9.79883,-73.59961 19.49998,-5.89999 40.50002,-12.10157 63,-18.60156 22.49998,-6.49999 34.60039,-22.20003 36.40039,-47 1.8,-24.79998 -11.50042,-36.39961 -39.90039,-34.59961 -28.39997,1.8 -40.2,-7.40002 -35.5,-27.5 15.39998,-8.29999 21.00078,-14.49961 16.80078,-18.59961 -4.1,-4.1 -13.30001,-6.8 -27.5,-8 0,-7.09999 -5.90118,-12.99922 -17.70117,-17.69922 11.79999,-27.19997 23.60001,-46.10118 35.5,-56.70117 11.79999,-5.89999 23.9004,-5.89999 36.40039,0 12.39999,5.89999 25.09962,10.00039 38.09961,12.40039 v -8.90039 c -8.29999,0 -18.60001,-3.49962 -31,-10.59961 -12.39999,-7.09999 -25.09962,-8.3 -38.09961,-3.5 4.69999,-7.09999 8.90039,-12.99922 12.40039,-17.69922 z m 117.12695,21.26563 c -1.62656,0.0391 -3.40117,0.28437 -5.32617,0.73437 -7.69999,1.8 -14.80079,7.99962 -21.30078,18.59961 -6.49999,10.59999 -8.59922,17.69883 -6.19922,21.29883 -7.09999,3.5 -11.20039,8.00079 -12.40039,13.30078 -1.1,5.29999 1.50001,9.2 8,11.5 6.49999,2.4 15.09923,-1.8004 25.69922,-12.40039 10.59999,-10.59999 17.70078,-20.1004 21.30078,-28.40039 3.5,-8.29999 3.80039,-14.80001 0.90039,-19.5 -2.25,-3.525 -5.79414,-5.25 -10.67383,-5.13281 z m -115.86133,8.67382 c -5.17366,-0.0685 -9.99609,1.11993 -14.46484,3.56055 L 380.29055,316.5 v 7.09961 h 5.30078 c 16.59998,7.09999 34.29924,7.09999 53.19922,0 l 17.70117,3.5 v -8.80078 L 438.79055,316.5 c -12.40311,-9.31874 -23.55659,-14.02935 -33.4336,-14.16016 z m 115.07227,2.50586 c 3.23393,0.1125 4.69883,1.99805 4.36133,5.6543 -0.6,6.49999 -3.49844,13.00001 -8.89844,19.5 -5.29999,6.49999 -10.30157,10.89883 -15.10156,13.29883 -4.7,2.4 -4.7,0.30077 0,-6.19922 4.69999,-6.49999 4.69999,-8.89961 0,-7.09961 -4.7,1.6 -5.8,-0.1004 -3.5,-5.40039 2.4,-5.29999 6.5004,-10.90079 12.40039,-16.80078 4.63749,-2.05625 8.223,-3.04063 10.73828,-2.95313 z m -118.83789,2.85352 c -2.4,4.69999 -2.4,8.90039 0,12.40039 -4.7,-1.2 -8.29961,-2.4 -10.59961,-3.5 1.2,-3.5 4.69962,-6.50039 10.59961,-8.90039 z m 14.19922,3.59961 16,8.90039 c -7.19999,1.1 -13.09883,1.70117 -17.79883,1.70117 4.7,-2.4 5.29883,-5.90157 1.79883,-10.60156 z m 72.70117,33.60156 c 4.7,2.4 5.29883,5 1.79883,8 -3.5,3 -5.89961,2.69961 -7.09961,-0.90039 -1.2,-3.6 0.50079,-5.89961 5.30078,-7.09961 z m -104.9668,9.67188 c -0.19668,0.009 -0.40781,0.0519 -0.63281,0.12695 -1.8,0.6 -2.40078,2.10039 -1.80078,4.40039 0.6,2.4 -7.8e-4,3.80039 -1.80078,4.40039 -1.8,0.6 -4.09961,-0.6 -7.09961,-3.5 -3,-3 -4.99922,-4.40039 -6.19922,-4.40039 -2.4,0 -3.80039,0.60078 -4.40039,1.80078 -0.6,1.2 -0.90039,2.99883 -0.90039,5.29883 3.5,-2.4 7.09961,-1.79922 10.59961,1.80078 3.5,3.5 6.80078,4.39922 9.80078,2.69922 3,-1.8 4.40039,-4.4 4.40039,-8 0.0875,-3.15 -0.59004,-4.69258 -1.9668,-4.62695 z m -18.99609,25.15234 c 1.1875,-0.15 2.81328,0.0758 4.86328,0.67578 4.1,1.2 8.89923,2.09922 14.19922,2.69922 5.29999,0.6 7.39922,0.90039 6.19922,0.90039 h -26.59961 c -1.2,0 -1.50039,-0.90117 -0.90039,-2.70117 0.3,-0.9 1.05078,-1.42422 2.23828,-1.57422 z M 389.79055,387.5 c -2.4,2.4 -5.59883,4.09883 -9.79883,5.29883 -4.1,1.2 -7.40078,1.80078 -9.80078,1.80078 -2.4,1.2 -4.09883,1.2 -5.29883,0 -1.2,-1.2 0,-2.4 3.5,-3.5 z m 163.10156,468.19922 c 5.90002,17.69998 16.30002,39.3012 31.00002,64.70117 14.8,25.39998 12.1996,70.59929 -7.9004,135.69921 l 8.9004,177.3008 H 327.69094 L 432.29055,885.79883 Z" />
</svg>
