<?xml version="1.0" encoding="UTF-8" standalone="no"?>
<svg
   width="1111.2731"
   height="1795.2754"
   id="svg3128"
   version="1.1"
   xmlns="http://www.w3.org/2000/svg"
   xmlns:svg="http://www.w3.org/2000/svg"
   xmlns:rdf="http://www.w3.org/1999/02/22-rdf-syntax-ns#"
   xmlns:cc="http://creativecommons.org/ns#"
   xmlns:dc="http://purl.org/dc/elements/1.1/">
  <metadata
     id="metadata3135">
    <rdf:RDF>
      <cc:Work
         rdf:about="">
        <dc:format>image/svg+xml</dc:format>
        <dc:type
           rdf:resource="http://purl.org/dc/dcmitype/StillImage" />
        <dc:date>03/04/06</dc:date>
        <dc:creator>
          <cc:Agent>
            <dc:title>Serge Thomas</dc:title>
          </cc:Agent>
        </dc:creator>
        <dc:publisher>
          <cc:Agent>
            <dc:title>Serge Rosmorduc</dc:title>
          </cc:Agent>
        </dc:publisher>
        <dc:description>variante optimisée du signe de Jsesh</dc:description>
        <cc:license
           rdf:resource="http://creativecommons.org/licenses/GPL/2.0/" />
      </cc:Work>
      <cc:License
         rdf:about="http://creativecommons.org/licenses/GPL/2.0/">
        <cc:permits
           rdf:resource="http://web.resource.org/cc/Reproduction" />
        <cc:permits
           rdf:resource="http://web.resource.org/cc/Distribution" />
        <cc:requires
           rdf:resource="http://web.resource.org/cc/Notice" />
        <cc:permits
           rdf:resource="http://web.resource.org/cc/DerivativeWorks" />
        <cc:requires
           rdf:resource="http://web.resource.org/cc/ShareAlike" />
        <cc:requires
           rdf:resource="http://web.resource.org/cc/SourceCode" />
      </cc:License>
    </rdf:RDF>
  </metadata>
  <defs
     id="defs3133" />
  <path
     id="path3130"
     style="fill:#000000;stroke:none;stroke-width:100"
     d="m 553.06997,0 62.52929,237.96093 h 10.92969 c -37.42078,20.52537 -72.35924,56.23879 -104.72461,107.69141 -10.42163,26.63315 -35.31875,66.00313 -74.68945,118.11133 -5.7898,22.00132 -3.18422,33.00195 7.8164,33.00195 11.00063,0 19.39579,2.31736 25.18555,6.94922 -5.78976,4.63176 -8.68359,10.13117 -8.68359,16.5 0,6.36876 2.89383,9.55273 8.68359,9.55273 6.94783,0 8.10654,2.60565 3.47461,7.81641 -4.63186,5.21083 -5.5004,12.15899 -2.60547,20.84375 2.89493,8.68469 4.63194,19.97557 5.21094,33.87109 0.57893,13.89549 8.97406,21.71222 25.18555,23.44922 16.21145,1.73693 36.47581,1.44679 60.79296,-0.86914 10.4217,25.47512 0.28953,40.81844 -30.39648,46.0293 -30.68595,5.21083 -74.39858,4.34229 -131.13867,-2.60547 -77.58335,-39.37071 -149.95735,-95.53286 -217.11914,-168.48438 54.42416,-40.5286 100.45418,-79.32019 138.08789,-116.375 37.63377,-37.0547 149.90187,-150.29113 194.72609,-188.87964 7.28865,-6.27469 38.25925,-74.83058 19.04197,-86.772456 -10.84252,-6.737691 -20.80419,59.735366 -29.38085,17.582236 -2.55093,-23.003731 8.52334,-47.180582 15.65351,-56.894784 1.74504,-9.633089 15.88008,-25.780786 9.88656,-38.869983 C 540.94855,18.316658 527.95528,10.790054 527.44744,9.466629 514.50492,7.331893 494.8764,26.899049 481.01164,39.40533 474.79142,59.196939 462.36383,164.47537 462.36383,164.47537 416.45675,178.38661 190.04653,376.91601 190.04653,376.91601 122.88474,420.91858 84.671547,463.1862 75.407857,503.71484 176.15052,628.77459 254.31401,703.17392 309.89614,726.91211 c 55.5821,23.73821 101.32194,66.87245 137.21875,129.40234 58.61204,40.91784 76.46639,190.54255 72.16601,429.98435 -0.65019,36.2023 0.19012,98.0018 -4.2207,112.7285 -98.96505,24.6388 -243.32231,75.2946 -352.72266,129.1563 -109.400543,53.8615 -163.507552,107.407 -162.31835902,160.6347 0,45.6241 13.67715802,81.1104 41.02734602,106.4571 H 1111.2731 c -28.5395,-57.0301 -68.3752,-79.5261 -119.5078,-67.4864 -51.133,12.0397 -85.91609,-11.7224 -104.34768,-71.2871 -18.43168,-59.5644 -49.05254,-72.2375 -91.86133,-38.0195 70.86009,-43.7269 21.7643,-258.0108 29.34571,-301.3438 -0.73117,-101.4983 17.30479,-227.629 54.71484,-379.18743 9.26369,-34.73881 21.99952,-26.92205 38.21094,23.44922 16.21152,50.37111 59.47172,79.88531 94.43752,203.04881 -0.8878,111.1644 -34.6273,215.9476 -61.6367,240.834 -17.3693,28.9489 -29.2058,86.9381 -32.67973,108.9394 -3.47376,22.0014 11.18874,52.5509 35.50583,66.2051 28.7079,0.6321 65.2386,-23.0709 75.6602,-58.3887 10.4214,-35.3178 13.025,-60.5051 7.8144,-75.5586 -5.2107,-15.0535 -8.973,-33.0023 -11.289,-53.8457 6.9478,-55.582 46.4772,-136.8316 59.2148,-187.2031 12.7375,-50.3711 5.669,-33.3926 -7.0683,-127.1875 -19.6854,-157.48251 -78.3224,-235.82473 -116.5352,-322.67184 -25.4752,-32.42294 -74.6891,-63.10958 -147.64062,-92.05859 -33.58094,-13.89549 -46.31865,-46.89753 -38.21289,-99.00586 48.63434,-28.94902 85.11244,-62.53143 109.42969,-100.74414 24.31715,-38.21271 33.86906,-80.76666 28.6582,-127.66406 -4.94221,-44.48041 -30.45371,-77.09607 -76.02148,-98.13868 h 14.35937 L 924.777,0 Z m 59.05664,41.685546 H 867.45668 L 822.29653,198.01171 H 650.3395 Z m 96.22265,209.642574 c 18.21073,0.1357 38.82346,2.91776 61.83789,8.3457 61.37196,14.47456 92.92707,47.4766 94.66407,99.00586 1.7369,51.52927 -22.57984,96.97897 -72.95118,136.34961 -50.37133,39.37071 -57.60966,34.73987 -21.71289,-13.89453 35.89681,-48.63433 48.63452,-88.58466 38.21289,-119.84961 -10.42162,-31.26494 -46.31749,-38.79153 -107.68945,-22.58008 -69.47765,-20.84332 -90.61052,-42.84661 -63.39844,-66.00586 17.00758,-14.4745 40.68588,-21.59726 71.03711,-21.37109 z m -119.67187,87.37695 c 11.00062,0 42.5558,11.57913 94.66406,34.73828 3.47393,13.89556 13.60609,14.76403 30.39648,2.60547 16.79049,-12.15859 33.87085,-14.47396 51.24024,-6.94726 17.36939,7.52676 19.68482,24.0268 6.94726,49.50195 -12.73752,25.47512 -28.94937,46.60798 -48.63476,63.39844 -19.68532,16.79039 -28.08048,34.73931 -25.18555,53.8457 2.89493,19.10632 14.18578,33.29093 33.8711,42.55469 -1.158,35.89678 4.34137,66.00508 16.5,90.32227 12.15859,24.31715 36.1872,43.13461 72.08398,56.45117 35.89678,13.31652 58.47661,36.18643 67.74023,68.60937 l -52.10742,78.16211 c -41.3586,151.28514 -63.54272,298.42574 -67.05078,441.52734 -1.80938,30.1716 -3.54574,41.3442 -3.9082,59.7773 -56.85236,2.0612 -138.97046,8.9035 -191.98047,17.4082 1.2991,-43.8689 1.54102,-76.5218 1.54102,-119.6816 -6.9478,-188.7476 -8.40891,-316.23689 -30.41016,-366.02929 -22.00132,-49.79226 -49.79217,-90.9013 -83.37305,-123.32421 0,-34.73881 24.89712,-57.60875 74.68945,-68.60938 49.79237,-11.00063 77.29308,-37.34266 82.50391,-79.0293 5.2108,-41.68654 -9.55224,-60.21584 -44.29101,-55.58398 -34.73888,4.63183 -54.42481,-5.21013 -59.05664,-29.52734 26.63308,-12.73756 36.18691,-22.57959 28.66015,-29.52735 -7.52669,-6.94776 -19.97631,-11.00219 -37.3457,-12.16015 12.73756,-13.89549 9.26344,-25.47456 -10.42188,-34.73829 l 45.16211,-74.68945 c 19.68526,-16.21146 55.0028,-11.5787 105.95313,13.89649 16.21145,-3.47393 11.29048,-11.58084 -14.76367,-24.31836 -26.05412,-12.73756 -52.97842,-17.94679 -80.76954,-15.63086 13.89556,-22.00125 26.34508,-33.00196 37.34571,-33.00196 z m 158.98437,36.63868 c -2.64157,0.18092 -5.55388,0.7038 -8.73828,1.57226 -12.73762,3.47393 -24.60679,13.31788 -35.60742,29.5293 -11.00063,16.21146 -14.18457,28.3708 -9.55274,36.47656 -10.42159,4.63186 -16.50134,10.99977 -18.23828,19.10547 -1.73696,8.10569 2.02537,14.18542 11.28907,18.23828 9.26369,4.05293 22.58178,-2.31696 39.95117,-19.10742 17.36945,-16.79039 28.94852,-32.13374 34.73828,-46.0293 5.78976,-13.89552 6.6583,-24.60611 2.60547,-32.13281 -3.03965,-5.64506 -8.52249,-8.19512 -16.44727,-7.65234 z m -1.79101,18.50781 c 4.05285,0.86846 5.78993,3.90831 5.21093,9.11914 -1.15796,10.42169 -6.07897,20.844 -14.76367,31.26562 -8.68469,10.4217 -16.79163,17.36992 -24.31836,20.84375 -7.52676,3.47387 -7.52676,-2.5e-4 0,-10.42187 7.52673,-10.42163 7.52673,-13.89571 0,-10.42188 -7.52676,3.47393 -8.97366,0.57815 -4.34179,-8.68554 4.63183,-9.2637 11.00172,-18.52732 19.10742,-27.79102 8.68473,-3.4739 15.05259,-4.77667 19.10547,-3.9082 z m -178.90625,3.04101 c -17.36936,1.737 -31.26386,12.4475 -41.68555,32.13282 16.21146,17.36939 33.58003,25.18612 52.10742,23.44922 18.52732,-1.73694 37.63493,-8.97527 57.32031,-21.7129 h 34.73829 V 420.33984 H 634.70668 C 606.9156,402.97045 584.33395,395.15567 566.9645,396.89257 Z m -9.00977,14.11133 c 1.37508,-0.14474 2.64086,0.0734 3.79883,0.65235 -9.26363,11.57959 -5.78952,19.68457 10.42187,24.3164 17.36949,-5.78983 20.26518,-13.89478 8.68555,-24.3164 12.73756,3.47383 24.89697,8.68505 36.47656,15.63281 -15.05345,5.78983 -30.10855,8.68359 -45.16211,8.68359 -13.89552,1.15793 -23.73758,-3.4729 -29.52734,-13.89453 6.07926,-6.94776 11.18143,-10.63998 15.30664,-11.07422 z m 134.07031,45.8125 c 8.10573,4.63186 9.55266,9.26462 4.3418,13.89649 -5.21076,4.63183 -8.97313,4.34162 -11.28906,-0.86914 -2.31593,-5.21087 -5e-4,-9.55342 6.94726,-13.02735 z m 74.99219,969.664 c 16.64779,78.5748 -1.18983,153.9811 -53.51172,226.2188 -79.67224,48.1584 -176.2911,55.4455 -289.85351,21.8613 -113.56246,-33.5844 -220.8844,-26.2953 -321.96094,21.8633 0,-41.822 10.70302,-74.774 32.10742,-98.8535 137.93972,-67.1687 257.15282,-110.8929 357.63477,-131.1699 100.48195,-20.2774 192.34432,-33.5834 275.58398,-39.92 z" />
</svg>
