<?xml version="1.0" encoding="UTF-8" standalone="no"?>
<svg
   width="1113.6195"
   height="1800"
   version="1.1"
   id="svg1741"
   sodipodi:docname="US9A19VARA.svg"
   inkscape:version="1.2.2 (732a01da63, 2022-12-09)"
   xmlns:inkscape="http://www.inkscape.org/namespaces/inkscape"
   xmlns:sodipodi="http://sodipodi.sourceforge.net/DTD/sodipodi-0.dtd"
   xmlns="http://www.w3.org/2000/svg"
   xmlns:svg="http://www.w3.org/2000/svg">
  <defs
     id="defs1745" />
  <sodipodi:namedview
     id="namedview1743"
     pagecolor="#ffffff"
     bordercolor="#000000"
     borderopacity="0.25"
     inkscape:showpageshadow="2"
     inkscape:pageopacity="0.0"
     inkscape:pagecheckerboard="0"
     inkscape:deskcolor="#d1d1d1"
     showgrid="false"
     inkscape:zoom="0.28798615"
     inkscape:cx="689.26926"
     inkscape:cy="909.76598"
     inkscape:window-width="1920"
     inkscape:window-height="1017"
     inkscape:window-x="1912"
     inkscape:window-y="-8"
     inkscape:window-maximized="1"
     inkscape:current-layer="svg1741" />
  <path
     style="fill:#000000;stroke:none;stroke-width:100.254"
     d="M 888.78412,1170.4988 V 831.75587 c -11.4183,-49.47929 -39.3297,-74.21894 -83.7342,-74.21894 -74.8534,30.44882 -112.28006,60.89762 -112.28006,91.34643 C 677.54548,952.91673 661.0524,1061.3906 643.2906,1174.305 Z M 770.47132,393.40336 c -8.587,1.48606 34.806,156.80649 71.5983,251.95903 54.5541,55.82283 84.4583,151.18708 91.4361,229.21216 6.9778,78.02507 17.4446,193.15965 31.4004,345.40365 0,20.2991 8.2465,52.9682 24.7396,98.007 16.49308,45.0389 56.17148,199.9899 29.69358,396.2305 -8.9711,55.3767 15.3979,72.9335 -24.27482,86.7243 -46.95611,-2.2591 -111.72498,-0.9996 -174.2141,-1.0236 -36.85935,-1.2249 -46.73269,-7.5166 -45.56916,-18.8757 1.16351,-11.3589 9.77032,-20.6799 25.82041,-27.9632 16.05007,-7.2829 52.55232,-15.0225 109.50651,-23.2171 51.76751,-35.5462 33.36438,-79.1585 33.36438,-119.7569 -36.7923,-185.2302 -60.8975,-313.369 -72.3159,-384.4162 H 704.18818 c -32.98617,10.1496 -51.38234,58.9946 -55.18852,146.5349 -25.37395,93.8839 -75.48757,204.2608 -150.34088,331.1307 3.80604,43.1359 -8.49689,89.9848 -23.17009,94.2498 -26.61933,7.7374 -69.282,-4.0091 -95.9247,-0.2024 -26.6427,3.8056 -107.25869,2.5646 -127.18366,0.439 -6.3354,-13.3535 25.8417,-40.2488 72.14929,-45.9579 46.30752,-5.7095 85.00288,-27.9115 116.0861,-66.6069 31.08315,-38.6952 50.43084,-85.3199 58.04306,-139.8742 22.83658,-93.8837 56.45713,-230.9033 100.86163,-411.0589 l 36.158,-205.53004 -47.57633,5.70926 36.15801,-98.95861 c -24.10534,3.80604 -36.79235,-3.17184 -38.06103,-20.93364 -1.26869,-17.76179 9.51528,-29.81443 32.35186,-36.1579 7.61222,-29.18013 -11.4183,-62.48353 -57.09154,-99.91022 C 515.7862,641.13363 482.8,610.36768 462.50077,586.26241 433.32064,667.45919 385.11003,753.09645 317.86894,843.1742 296.30103,841.90545 266.80374,826.04667 229.37705,795.59786 191.95043,765.14905 152.93789,728.35678 112.33944,685.22102 L 111.22121,1798.9569 H 56.032781 L 57.151008,677.60884 C 17.821298,673.80266 -1.2092115,645.89125 0.05946847,593.8746 8.9403685,549.47003 27.970878,539.32041 57.151008,563.42575 V 439.72746 h 55.188432 v 102.76466 c 15.22444,31.71755 27.2771,62.80073 36.158,93.24955 46.94193,39.32971 97.68993,77.39069 152.24401,114.18298 26.6427,-82.46553 58.36023,-162.39363 95.15257,-239.78429 1.26869,-39.32972 10.78392,-71.04723 28.54572,-95.15257 l -22.83655,-30.44885 c -15.22445,13.95576 -29.49734,24.10538 -42.81869,30.44885 -13.32135,6.34354 -23.47096,4.75765 -30.44884,-4.75766 -6.97781,-9.51523 -15.22434,-16.17591 -24.73958,-19.98202 -9.51523,-3.80611 -12.68701,-8.56373 -9.5153,-14.27286 3.17176,-5.70914 2.22025,-6.66065 -2.85453,-2.85453 -3.80612,2.53735 -7.61222,1.58581 -11.41833,-2.85464 -3.80612,-4.44045 -4.44045,-9.83241 -1.90302,-16.17588 -6.34358,0 -13.63859,2.53743 -21.88515,7.61219 -8.24656,5.07478 -15.54157,-1.26872 -21.88505,-19.03052 1.26869,-53.28539 -1.26871,-91.34639 -7.61218,-114.18298 -3.80611,-69.77858 11.73546,-122.1125 46.62472,-157.001764 34.88926,-34.889258 75.80485,-57.408677 122.74678,-67.5582581 46.94186,-10.1495809 84.36852,-0.634337 112.27996,28.5457201 27.91139,29.180128 42.81861,62.483535 44.7217,99.910222 1.90313,37.42662 -6.66067,76.43916 -25.69118,117.03762 11.41832,46.94192 37.24727,61.5255 74.03956,55.8163 36.79234,-5.70916 54.84698,-23.73492 103.87626,-17.07655 56.7953,7.71303 257.8057,85.97852 408.37818,223.71033 1.7584,51.3013 -14.9554,186.92794 -95.962,315.23717 -2.1645,19.24454 -6.0003,39.59749 -11.5088,61.05881 -17.97478,22.98671 -31.08758,37.69623 -39.33848,44.12859 -8.2509,6.43236 -26.8606,16.84359 -55.829,31.2337 -15.9382,10.08432 -2.0768,-9.45089 -12.4166,-12.70473 25.7749,-70.03478 36.9332,-108.2407 87.4759,-160.51861 C 1016.156,672.19511 1007.4111,607.12239 1033.1322,553.43853 1003.9483,509.91046 770.47132,393.40336 770.47132,393.40336 Z m -302.26139,-6.96129 -17.12749,87.54028 c -8.8809,38.06103 -3.17173,63.43504 17.12749,76.12205 92.61511,64.70373 156.68446,128.77308 192.20806,192.20806 10.14965,16.49312 20.93361,24.73968 32.35187,24.73968 29.18012,0 67.24116,-24.1053 114.18296,-72.31591 -54.5541,-142.09447 -94.88983,-271.65906 -103.77073,-349.04973 -55.82283,-20.29923 -91.92622,-6.8207 -125.54673,0.79152 -33.62058,7.61215 -61.21482,-13.95576 -82.78273,-64.70373 -15.22444,5.07479 -28.86295,1.58585 -40.91556,-10.46682 -12.05266,-12.05266 -15.22444,-28.54579 -9.5153,-49.47935 5.70919,-20.93351 6.66074,-42.50141 2.85463,-64.70373 -3.80611,-22.20225 -13.95573,-32.03466 -30.44884,-29.49723 -16.49312,2.53743 -27.91142,12.05266 -34.25489,28.54572 -6.34354,16.49311 -13.95576,20.93356 -22.83666,13.32135 -49.47928,8.8809 -78.65938,16.17595 -87.54028,21.88515 -8.8809,5.70913 -12.05266,18.71331 -9.51531,39.01253 17.76187,-13.95575 39.64695,-23.15386 65.65524,-27.59431 26.00836,-4.44045 33.93775,-1.58584 23.78817,8.5638 -49.47929,7.61222 -77.3907,22.20228 -83.73424,43.77019 l 3.80614,70.41279 c 20.29916,-2.53733 29.18006,3.80614 26.6427,19.03052 12.68701,-7.61219 23.47096,-11.10113 32.35186,-10.46672 8.8809,0.63461 8.8809,10.46675 0,29.49723 12.68702,16.49311 32.03469,13.32138 58.04306,-9.51521 26.00836,-22.83658 52.33388,-12.05263 78.97658,32.35187 z M 272.19573,283.67731 c -2.53743,-19.03048 2.2202,-33.30337 14.27286,-42.81868 12.05267,-9.51524 32.66904,-14.9072 61.8491,-16.17588 l 24.73967,-17.12749 5.70917,7.61218 -26.6427,15.22447 c -6.34347,17.7618 -15.85871,32.03466 -28.54572,42.81858 -12.68701,10.784 -29.81447,14.27293 -51.38238,10.46682 z m 17.12749,-30.44884 c -3.80611,1.26874 -6.34354,6.97791 -7.61228,17.12749 10.14964,3.80611 19.66492,1.90305 28.54582,-5.70916 -12.68701,5.07478 -19.66485,1.26868 -20.93354,-11.41833 z m 20.93354,11.41833 c 11.41826,-7.61222 20.9335,-17.12746 28.54572,-28.54572 -11.41833,1.26868 -22.83663,3.80607 -34.25488,7.61218 13.95568,1.26869 15.85874,8.24653 5.70916,20.93354 z m 93.24945,-55.18852 c -7.61222,-2.53736 -11.73551,-11.73543 -12.36984,-27.59421 -0.63434,-15.85871 2.8546,-28.54572 10.46682,-38.06103 7.61215,-9.51524 14.58999,-12.36981 20.93353,-8.5637 6.34347,3.80612 11.41826,11.73551 15.22437,23.78817 3.80611,12.05267 3.48894,27.91142 -0.95151,47.57624 -4.44045,19.66489 -11.10112,30.44884 -19.98202,32.35186 -8.8809,1.90302 -14.90724,-0.3172 -18.07901,-6.66068 -3.17176,-6.34347 -1.58588,-13.95568 4.75766,-22.83665 z m 0,-45.67311 c -1.26872,10.14958 -1.26872,19.34764 0,27.59421 1.26871,8.24659 4.12324,9.83241 8.56369,4.75755 4.44045,-5.07476 6.34347,-2.53733 5.70917,7.61228 -0.63461,10.14959 0.6346,12.36981 3.80614,6.66068 3.17171,-5.7092 5.39193,-14.27293 6.66067,-25.69119 1.26869,-11.41833 -0.3172,-20.9336 -4.75765,-28.54582 -4.44045,-7.61216 -11.10112,-5.07473 -19.98202,7.61229 z m -49.47936,-26.6428 c 36.79234,-40.598395 66.92398,-52.968201 90.39492,-37.10942 23.47093,15.85871 34.88922,48.84492 34.25488,98.95861 -0.63434,50.11369 6.97788,49.79653 22.83666,-0.95151 15.85871,-50.74804 10.14954,-92.93234 -17.1275,-126.552924 -27.27703,-33.62051 -67.24108,-40.598355 -119.89214,-20.933535 -52.65106,19.664888 -82.7827,43.770192 -90.39492,72.315919 -7.61221,28.54579 19.03049,33.3034 79.9281,14.27286 z m 53.2855,83.73424 c -2.53743,6.34357 -1.58592,10.46681 2.85453,12.36984 4.44045,1.90312 7.61219,3e-5 9.51531,-5.70917 1.90302,-5.70916 -2.22023,-7.92939 -12.36984,-6.66067 z"
     id="path1739"
     sodipodi:nodetypes="ccccccccscscccssccccccsscsscccccscsccsccccccccccccccsssscscsccsssscsscccscccccccccsccscssssscscsccccscsccsccccsccccccccccsssssssccssssssccssssssccssc" />
</svg>
