<?xml version="1.0" encoding="UTF-8" standalone="no"?>
<svg
   width="18"
   height="18"
   version="1.1"
   id="svg8746"
   sodipodi:docname="US9A2VARA.svg"
   inkscape:version="1.2.1 (9c6d41e410, 2022-07-14)"
   xmlns:inkscape="http://www.inkscape.org/namespaces/inkscape"
   xmlns:sodipodi="http://sodipodi.sourceforge.net/DTD/sodipodi-0.dtd"
   xmlns="http://www.w3.org/2000/svg"
   xmlns:svg="http://www.w3.org/2000/svg">
  <defs
     id="defs8750" />
  <sodipodi:namedview
     id="namedview8748"
     pagecolor="#ffffff"
     bordercolor="#000000"
     borderopacity="0.25"
     inkscape:showpageshadow="2"
     inkscape:pageopacity="0.0"
     inkscape:pagecheckerboard="0"
     inkscape:deskcolor="#d1d1d1"
     showgrid="false"
     inkscape:zoom="25.087572"
     inkscape:cx="9.5066991"
     inkscape:cy="8.8888634"
     inkscape:window-width="1920"
     inkscape:window-height="1137"
     inkscape:window-x="-8"
     inkscape:window-y="-8"
     inkscape:window-maximized="1"
     inkscape:current-layer="svg8746" />
  <path
     id="path8744"
     style="fill:#000000;stroke:none;stroke-width:0.987048"
     d="m 12.636965,0.05130975 c -0.16891,0.0025175 -0.337391,0.01612761 -0.508317,0.04130227 -0.7095,0.07384566 -1.248001,0.59179119 -1.615652,1.55178488 -0.05805,0.2685299 -0.175435,0.5171571 -0.349585,0.7454074 -0.1806,0.2282503 -0.2990942,0.4737572 -0.3571441,0.7355735 -0.0129,0.1678312 0.070723,0.2517471 0.2513231,0.2517471 0.17415,10e-8 0.197028,0.072588 0.06803,0.2202787 -0.0516,1e-7 -0.07448,0.023811 -0.06803,0.070805 0.0065,0.053706 0.02933,0.080638 0.06803,0.080638 -0.08385,0.1006992 -0.08684,0.1721321 -0.0095,0.2124116 0.0774,0.033566 0.106274,0.103033 0.08692,0.2104449 -0.01935,0.1006991 -0.0044,0.2291165 0.04724,0.3835209 0.04515,0.1544047 0.287027,0.2383206 0.725626,0.2517471 l 0.638707,-0.06097 c -0.0258,0.1141251 -0.0089,0.2456636 0.04913,0.3933549 C 10.457593,5.186349 9.8125901,5.4380969 9.7287399,5.8945972 8.5935405,6.3242437 7.5574026,6.82774 6.622153,7.4050787 7.0156537,6.7941738 7.4266673,6.1290867 7.852367,5.4107696 8.2651669,5.3772037 8.6225392,5.332702 8.9256891,5.2789958 9.235289,5.2185765 9.3616694,4.8321695 9.3036193,4.1205658 9.7293192,4.0802863 9.9423216,3.9838874 9.9423216,3.8294831 9.9423216,3.6750786 9.6029388,3.6450262 8.9256891,3.7390111 8.2548898,3.8329969 7.7651404,4.1448498 7.4555405,4.675196 5.5979412,6.3870728 4.7748057,7.7742312 4.9876556,8.8349233 6.1164053,8.7812176 7.000287,8.6527996 7.6388366,8.4514025 8.2773863,8.250005 8.9572604,7.965084 9.6796602,7.5958557 c 0,0.5504858 0.091509,0.979428 0.2721098,1.288237 0.17415,0.3088092 0.595267,1.7022063 1.266066,4.1793953 L 8.0847944,10.626654 C 7.5945945,10.183579 7.1715882,9.961885 6.8168382,9.961885 c -0.1802958,0 -0.3430611,0.013281 -0.48753,0.041303 -0.4246622,0.03534 -0.8262396,0.28793 -0.9731705,0.554629 -0.5844704,1.06089 -0.670283,2.60149 -1.989803,5.060509 -0.2276979,0.563857 -0.7335547,1.325248 -1.0865496,1.349208 -0.3529955,0.02396 -0.943722,0.152018 -1.77249307,0.375654 -0.65994741,0 -0.65994741,0.206417 0,0.605766 H 3.9974783 c 0.153476,-0.143764 0.1545588,-0.472699 0.0548,-0.951919 -0.09976,-0.479221 0.9810991,-1.159079 1.3340939,-1.90187 0.1715505,-0.360987 0.3348462,-0.695202 0.4572956,-1.03649 0.079434,-0.408922 0.590251,-1.006552 0.647932,-2.131858 l 0.5970971,0.513418 2.4943344,1.712877 -2.4770762,0.772869 c -0.3982013,0.09416 -0.7877506,0.233247 -1.1016666,0.332386 -0.7352998,0.208111 -1.0836773,0.813093 -1.0449772,1.813366 -0.019268,0.384452 0.655709,0.885048 0.655709,0.885048 H 17.846733 c -0.322498,-0.637757 -0.771381,-0.892628 -1.345432,-0.765075 -0.574048,0.127552 -0.965183,-0.142921 -1.171583,-0.814244 -0.2064,-0.671326 -0.549889,-0.802863 -1.03364,-0.393356 0.470851,-0.926427 0.48584,-1.906487 0.04724,-2.940327 0.0387,-2.19523 0.323331,-4.001968 0.852233,-5.4184622 0.419248,0.7183169 0.911996,1.4848901 1.479597,2.2971923 -0.122554,0.8727209 -0.148421,2.1708769 -0.07748,3.8961799 -0.2838,0.409506 -0.425171,0.946177 -0.425172,1.610787 1e-6,0.678039 0.06075,1.013735 0.183297,1.006988 0.128998,-0.0068 0.229509,-0.258461 0.300454,-0.755241 0.625651,0 0.937267,-0.194762 0.937267,-0.584132 0,-0.369229 -0.08362,-0.801292 -0.251323,-1.29807 0.3483,-1.268804 0.558307,-2.641512 0.629254,-4.1184251 C 17.848901,9.0160252 17.184017,7.8029403 15.977869,6.0440708 15.597318,5.2653345 14.859696,4.9265498 13.763197,5.0272484 13.595497,4.7922852 13.505873,4.6006419 13.492976,4.4529505 13.944477,4.3522516 14.313841,4.124315 14.604092,3.768513 14.89434,3.4127113 15.049596,2.8190576 15.068946,1.9866156 15.09475,1.1541735 14.783128,0.60305494 14.131679,0.33452525 13.643091,0.13816289 13.143692,0.04375736 12.636965,0.05130975 Z m -0.09637,0.47792613 c 0.312926,0.002098 0.675363,0.0614946 1.08655,0.17897646 C 14.285044,0.8894699 14.607543,1.3391025 14.594646,2.0574195 14.581746,2.7690233 14.37663,3.29321 13.97673,3.628872 13.583281,3.957821 13.255891,3.9972353 12.99789,3.7488453 12.888245,3.6280069 12.876244,3.5234007 12.9601,3.4361282 13.127797,3.3757089 13.211424,3.2223263 13.211424,2.9739363 13.424269,2.7054065 13.530772,2.4774696 13.530772,2.2894988 13.556575,1.96055 13.415199,1.789597 13.1056,1.7761708 12.9637,1.8097367 12.857198,1.8698419 12.786248,1.957114 12.1477,1.4670473 11.595314,1.2453515 11.130914,1.2923444 c 0.199951,-0.36922851 0.499574,-0.60537342 0.899475,-0.70607205 0.15238,-0.0402796 0.32245,-0.0582951 0.510205,-0.0570364 z m -1.4248,1.11122752 c 0.463493,-0.024231 0.948985,0.174965 1.456921,0.5978994 l -0.08692,0.2006108 c 0.0903,0.046993 0.161933,0.070804 0.21353,0.070804 0.1161,-0.3088093 0.237592,-0.4621919 0.366592,-0.4621919 0.167697,0 0.245324,0.087036 0.232427,0.2615809 -0.0129,0.1946839 -0.113405,0.3925685 -0.300455,0.5939658 10e-7,0.2081108 -0.05475,0.298268 -0.164399,0.2714149 -0.1161,-0.033566 -0.159968,-0.1061536 -0.134165,-0.2202788 -0.09675,0.087273 -0.09971,0.3308123 -0.0095,0.7336068 0.09675,0.4095078 0.218244,0.837296 0.366592,1.28037 0.14835,0.4430739 0.341473,0.694822 0.580123,0.7552413 0.18705,0.013426 0.500557,0.022788 0.939157,0.029501 0.438598,0.00672 0.432602,0.6749208 -0.01889,2.0041429 -0.457951,1.329222 -0.722705,3.1039405 -0.793654,5.3260245 l -1.74223,0.422857 C 11.143738,10.485052 10.613123,8.8481133 10.426073,8.5930102 10.245472,8.3446201 10.179839,7.8141922 10.231438,7.0018898 c 0,-0.7653096 0.420009,-1.1911308 1.258508,-1.2784032 0.50955,0.013426 0.734546,-0.1149913 0.676496,-0.383521 -0.0516,-0.2618163 -0.112347,-0.5643076 -0.183296,-0.9066829 -0.141901,-0.073845 -0.34291,-0.073845 -0.60091,0 -0.438599,0.026852 -0.69247,-0.0032 -0.763419,-0.090472 -0.07095,-0.087272 -0.09383,-0.2043611 -0.06803,-0.3520526 l 0.300454,-0.1101394 c 0.08385,-0.046992 0.106727,-0.1039765 0.06803,-0.1711093 l -0.445957,-0.092438 c 0.10965,-0.2215371 0.100655,-0.3749196 -0.02835,-0.462192 -0.1677,0.013426 -0.251324,-0.034196 -0.251324,-0.1416078 0.0258,-0.1006991 0.118419,-0.2685306 0.279669,-0.5034941 0.154799,-0.2349634 0.326935,-0.3852258 0.513985,-0.4523581 0.1935,-0.067133 0.386624,-0.05465 0.580123,0.039335 0.18705,0.093985 0.36629,0.1716602 0.54044,0.2320793 l 0.05858,-0.1298066 C 12.011636,2.1386076 11.844389,2.0640538 11.66379,1.9767813 11.34774,1.768671 11.05711,1.7624297 10.79266,1.9571139 c 0.0387,-0.1342649 0.08145,-0.2326302 0.126606,-0.2930493 0.06531,-0.012587 0.130311,-0.02014 0.196524,-0.023601 z m 0.06236,0.5329958 c -0.0907,0.00126 -0.158654,0.019825 -0.202192,0.055069 -0.0516,0.053706 -0.112346,0.086879 -0.183296,0.1003051 l -0.02835,0.1101393 h 0.154951 c 0.1677,0.2081122 0.441449,0.2463717 0.821999,0.112107 l 0.213531,0.04917 0.04724,-0.1612756 -0.192745,-0.039336 C 11.596448,2.2653738 11.418315,2.1908188 11.276416,2.1773927 c -0.03548,-0.00335 -0.06802,-0.00435 -0.09826,-0.00394 z m 2.690864,11.3541858 c 0.258001,1.094259 0.09075,2.029819 -0.502647,2.808554 -0.896547,0.577338 -1.976549,0.670616 -3.240749,0.28125 -1.2577496,-0.38937 -2.4611347,-0.311695 -3.6092343,0.232079 0.1289998,-0.416221 1.0706296,-1.111361 2.8250289,-2.084781 z"
     sodipodi:nodetypes="sccccsccccccccccccccscccsccccscscccccsscccccccccsscccccsccscccccsccsscccccccccccsscccscccccsccccccccccccccccccccccccccssccccccccssccccccccc" />
</svg>
