<?xml version="1.0" encoding="UTF-8" standalone="no"?>
<svg
   width="1176.6456"
   height="1800"
   version="1.1"
   id="svg1"
   xmlns="http://www.w3.org/2000/svg"
   xmlns:svg="http://www.w3.org/2000/svg">
  <defs
     id="defs1" />
  <path
     style="fill:#000000;stroke:none;stroke-width:100.115"
     d="m 1097.3633,890.1631 c -76.961,16.9575 -127.83349,42.39373 -152.61754,76.30868 L 872.35034,1263.8803 H 1105.19 l 13.6963,-221.0998 c 18.2619,-75.65652 11.0875,-126.529 -21.523,-152.6174 z M 524.06938,743.4154 C 447.10838,716.02251 384.49605,680.8031 336.23244,637.75719 l -29.34952,17.60961 v 138.92115 c 75.65652,0 148.05199,-16.95752 217.18646,-50.87255 z m -290.12814,1021.2003 -3.06221,-575.719 -195.731274,-2.7381 3.06221,575.719 z M 903.65652,371.65483 c -11.73982,-7.82654 -20.21857,-20.87078 -25.43626,-39.13272 -18.26194,5.21769 -33.91503,8.47875 -46.95927,9.78317 -13.04423,1.30443 -21.19687,-3.26105 -24.45794,-13.69644 -3.26107,-10.43539 -7.82655,-19.24025 -13.69646,-26.41458 -5.8699,-7.17433 -6.52211,-12.7181 -1.95664,-16.6313 4.56549,-3.91327 4.23939,-5.2177 -0.9783,-3.91327 -3.91327,0 -6.84819,-2.28275 -8.80476,-6.84824 -1.95664,-4.56548 -0.97836,-9.45707 2.93485,-14.67476 -5.2177,-2.60885 -12.392,-2.93495 -21.52291,-0.97832 -9.13096,1.95663 -13.04423,-5.54381 -11.7398,-22.50132 C 771.90974,189.6878 784.30174,155.77278 788.21501,134.902 810.39021,72.289723 842.6747,32.830937 885.06847,16.52564 927.46218,0.22034206 970.50817,-4.0190356 1014.2064,3.8075073 c 43.6981,7.8265417 72.0693,29.6756407 85.1136,65.5472967 13.0442,35.871596 13.6963,70.112676 1.9562,102.723266 -11.7398,32.61061 -33.2628,62.61236 -64.569,90.00525 -15.6531,48.26361 1.9567,76.3087 52.8292,84.13525 69.1344,43.04598 86.7441,205.44667 52.8292,487.20208 33.9149,73.04773 37.8282,150.00872 11.7398,230.88295 5.2173,100.4405 3.9128,183.2714 -3.9134,248.4925 33.9149,66.5257 35.2194,191.7502 3.9134,375.6737 22.1751,44.3505 22.8272,77.6133 1.9562,99.7885 H 925.1795 c 13.04417,-36.5239 52.17685,-56.7424 117.398,-60.6557 24.784,-15.6531 41.7416,-35.8717 50.8726,-60.6558 l -17.6098,-277.8419 c -13.0442,-20.8708 -19.5663,-45.0027 -19.5663,-72.3956 H 903.65652 c -6.52213,20.8708 -17.60974,43.6982 -33.26281,68.4823 5.2177,74.3521 -26.74069,180.6626 -95.87516,318.9314 16.95758,52.1769 4.56559,80.8742 -37.17598,86.092 -37.82829,-3.9131 -102.39724,-0.6521 -193.70685,9.7831 -5.21769,-37.8282 32.61057,-62.6123 113.48478,-74.3522 43.04599,-32.6105 67.17783,-61.3078 72.39553,-86.092 31.3061,-165.6615 46.95915,-255.0144 46.95915,-268.0587 0,-23.4796 7.82659,-52.1769 23.47974,-86.0918 L 886.04679,933.20898 C 850.82735,921.46923 848.87067,847.1171 880.17678,710.1526 861.91491,634.49608 846.91408,590.79792 835.17425,579.05812 780.38846,644.27923 730.82038,697.10836 686.47005,737.54551 647.33734,775.3738 597.76922,805.04944 537.76572,826.57243 477.76229,848.09536 404.06674,864.07455 310.1483,874.51 v 925.488 H 0 V 1148.9211 H 232.53075 V 874.51 c -20.87078,9.13097 -36.84997,-5.5438 -47.93758,-44.0243 -11.08753,-38.4805 4.89166,-66.19951 47.93758,-83.15702 V 641.67036 C 215.57324,622.104 203.83343,608.40758 197.3113,600.5811 c -6.52211,-7.82654 -7.50043,-26.41458 -2.93494,-55.76411 4.56548,-29.34954 17.28361,-51.85085 38.15439,-67.50394 V 271.8665 h 74.35217 v 244.57927 l 45.00252,62.61235 c 106.96275,53.48137 187.18479,90.65742 240.6661,111.52813 60.00348,-60.00343 122.6158,-124.57238 187.83693,-193.70684 28.69732,-54.78573 69.78667,-96.52726 123.26805,-125.22458 z m 93.9184,-91.96178 c -15.65301,-2.60885 -26.41448,-11.41372 -32.28439,-26.41459 -5.86997,-15.00087 -2.60893,-30.32785 9.78309,-45.98093 12.39202,-15.65309 21.19691,-33.58892 26.41468,-53.80749 5.2176,-20.21857 0.326,-32.28446 -14.67477,-36.19767 -15.00088,-3.91327 -28.04516,-2e-5 -39.13283,11.73973 -11.08753,11.73981 -19.24018,12.39202 -24.45794,1.95663 -45.65477,-9.13091 -73.37374,-13.04418 -83.15691,-11.73981 -9.78319,1.30442 -17.28362,11.0876 -22.50131,29.34953 20.87077,-5.21769 43.04598,-4.89159 66.52562,0.97832 23.47962,5.86991 28.69731,10.7615 15.65307,14.67477 -44.35041,-10.43539 -73.04773,-8.47876 -86.09196,5.8699 l -23.47963,64.56899 c 18.26193,3.91327 24.13184,12.39202 17.60972,25.43626 13.04423,-1.30443 23.47961,0 31.30616,3.91327 7.82655,3.91327 3.26106,11.73981 -13.69645,23.47964 5.21769,19.56628 20.21857,25.11008 45.00263,16.6314 24.78398,-8.47883 43.04591,5.5437 54.7858,42.06757 23.47955,28.69731 24.13176,48.26367 1.95663,58.69906 -16.95758,16.95751 -34.5673,43.69816 -52.82916,80.22197 7.82655,66.52562 20.87078,115.44151 39.13271,146.74768 18.26194,31.3061 27.39291,63.91666 27.39291,97.83169 -24.78405,104.35383 -15.00091,154.57411 29.34943,150.66083 l 123.26808,-31.30607 c -9.131,-16.9575 -5.87,-56.09021 9.7831,-117.39813 -3.9133,-133.05117 -8.4787,-215.22983 -13.6964,-246.536 -9.1309,-50.87246 -27.3929,-86.41798 -54.7858,-106.63655 -27.3929,-20.21857 -39.78493,-53.15523 -37.17608,-98.81 z M 805.82473,197.51434 c 3.91328,-16.95751 12.71813,-27.3929 26.41458,-31.30617 13.69645,-3.91326 33.58892,-0.6522 59.67738,9.78318 l 29.34953,-5.86991 v 7.82654 l -27.3929,5.86991 c -13.04423,11.73982 -26.74068,19.56637 -41.08934,23.47964 -14.34867,3.91327 -30.00175,0.6522 -46.95925,-9.78319 z m 25.43625,-19.56636 c -3.91327,0 -7.82654,3.91327 -11.73981,11.73982 6.52211,6.52213 15.00087,8.47876 25.43627,5.86991 -13.04425,0 -17.60973,-5.86991 -13.69646,-17.60973 z m 13.69646,17.60973 c 13.04423,-1.30442 24.78401,-5.86991 35.21934,-13.69646 -10.43533,-2.60885 -20.87068,-4.56548 -31.30607,-5.8699 10.43539,6.52212 9.13097,13.04424 -3.91327,19.56636 z m 99.78832,-11.73982 c -5.21762,-5.21769 -4.89148,-14.67477 0.9784,-28.37122 5.86986,-13.69645 13.37029,-23.15351 22.50132,-28.3712 9.1309,-5.2177 15.9791,-5.2177 20.54459,0 4.56553,5.21769 5.86999,13.69644 3.91336,25.43626 -1.95663,11.73981 -8.15265,25.11015 -18.58804,40.11103 -10.43539,15.00087 -19.89246,21.84909 -28.37123,20.54467 -8.4788,-1.30443 -12.71822,-5.2177 -12.71822,-11.73981 0,-6.52212 3.91327,-12.39203 11.73982,-17.60973 z m 15.65307,-39.13271 c -3.91327,7.82655 -6.84822,15.65309 -8.80485,23.47963 -1.95663,7.82654 0,10.10928 5.86991,6.84822 5.8699,-3.26106 6.52211,-0.65221 1.95663,7.82655 -4.56541,8.47875 -4.23931,10.76149 0.97831,6.84822 5.21777,-3.91327 10.43546,-10.43539 15.65309,-19.56636 5.21771,-9.13096 7.17434,-17.60971 5.86991,-25.43626 -1.30435,-7.82654 -8.47869,-7.82654 -21.523,0 z m -31.30617,-43.04589 c 46.95927,-19.566357 77.61324,-18.261933 91.96194,3.91327 14.3486,22.17514 11.7398,54.4596 -7.8266,96.85338 -19.56635,42.39377 -13.0442,44.67651 19.5664,6.84822 32.6105,-37.82829 43.372,-76.30876 32.2845,-115.44141 -11.0877,-39.132714 -42.7199,-59.677389 -94.89687,-61.634025 -52.17689,-1.956636 -86.74409,7.826543 -103.7016,29.349536 -16.95751,21.522993 3.91324,34.893335 62.61223,40.111029 z m 15.6531,93.91842 c -5.21762,2.60885 -6.19595,5.86991 -2.93496,9.78317 3.26113,3.91327 6.52219,3.58717 9.78318,-0.97831 3.26107,-4.56549 0.97833,-7.50044 -6.84822,-8.80486 z"
     id="path1" />
</svg>
