<?xml version="1.0" encoding="UTF-8" standalone="no"?>
<svg
   width="1256.2578"
   height="1799.996"
   version="1.1"
   id="svg1"
   xmlns="http://www.w3.org/2000/svg"
   xmlns:svg="http://www.w3.org/2000/svg">
  <defs
     id="defs1" />
  <path
     id="path1"
     style="fill:#000000;stroke:none;stroke-width:100.085"
     d="m 1197.8542,0.14838016 c -7.6143,0.69219834 -12.8055,3.80811664 -15.5742,9.34570314 -3.6922,7.3835157 -2.4599,15.9971327 3.6933,25.8417967 12.306,20.919972 19.9959,42.148367 23.0723,63.683594 3.0766,21.535236 0.3096,47.069516 -8.3066,76.603516 -13.5364,-13.53637 -19.6876,-31.99582 -18.4571,-55.37695 1.23,-23.38111 -4.3071,-33.840125 -16.6133,-31.37891 -11.0752,57.83742 -4.9219,104.59823 18.459,140.28516 -13.5364,98.44678 -22.1521,177.82052 -25.8437,238.11914 -119.3677,-3.69179 -188.89474,-8.92127 -208.58399,-15.68945 -19.68939,-6.76822 -46.14727,-10.15235 -79.37304,-10.15235 -31.99522,0 -47.37713,-23.38235 -46.14649,-70.14453 22.15048,-8.61409 43.07045,-24.61107 62.75977,-47.99218 19.6894,-23.38112 29.5332,-55.99217 29.5332,-97.83204 0,-41.83988 -18.76599,-69.52806 -56.29883,-83.06445 -37.53283,-13.53646 -78.44898,-17.22715 -122.75,-11.07422 -44.30102,6.15296 -76.29698,39.99424 -95.98632,101.52344 -11.0753,13.5364 -23.38152,32.609 -36.91797,57.2207 -7.38345,17.22819 -7.69007,26.76544 -0.92188,28.61133 6.76824,1.84585 12.61279,4.61493 17.53516,8.30664 -6.15292,3.69184 -8.92185,7.07594 -8.30664,10.15235 0.61553,3.0765 3.99944,4.61523 10.15234,4.61523 1.23054,0 3.1e-4,1.84527 -3.69141,5.53711 -3.69184,3.69173 -3.07666,6.7693 1.84571,9.23047 4.92226,2.46119 7.38281,9.84457 7.38281,22.15039 0,12.3059 4.92285,19.07411 14.76758,20.30469 9.84463,1.23054 25.22658,1.23054 46.14648,0 11.07524,14.76696 12.92252,30.14887 5.53906,46.14648 -79.98804,4.92237 -127.05922,22.4581 -141.21093,52.60742 -14.1517,30.14931 -59.99078,97.52342 -137.51758,202.12305 -39.37872,13.53642 -63.01858,50.22255 -94.98633,77.99023 -47.22374,41.80393 -80.50291,75.24942 -101.85937,100.66016 -4.68782,-2.08246 -9.16749,-3.84304 -15.42774,-5.45703 -34.64241,-8.93135 -76.61286,-6.50262 -120.046874,8.89062 1.715803,13.32892 14.152855,17.48397 37.308594,12.46485 23.15578,-5.019 42.60874,-2.24682 58.35742,8.3164 -29.14161,13.94329 -54.84729,21.05772 -77.11328,21.34571 -22.265875,0.288 -45.658335,-3.98363 -70.177734,-12.81836 -10.153362,-5.28801 -18.830975,-5.39986 -26.0332036,-0.33594 -7.20216388,5.06385 -8.1926468,13.91337 -2.96875,26.55078 42.7136256,22.56051 82.3996456,32.0531 119.0507776,28.47461 26.21574,-2.55969 63.05666,-13.66071 95.57227,-26.78906 L 243.80412,925.1556 C 288.3282,911.85467 360.76251,860.44548 504.84249,753.38276 l 132.9043,-142.13281 c -1.23055,38.14807 3.07528,84.91077 12.91992,140.28711 9.84462,55.37632 22.76607,110.75264 38.76367,166.1289 -103.36906,98.44674 -173.2036,187.66424 -209.50586,267.65234 -36.30218,79.9878 -18.15131,134.134 54.45313,162.4375 19.68934,7.3832 78.75633,-0.6102 177.20312,-23.9961 3.69173,20.92 10.46005,42.1465 20.30469,63.6817 9.84474,21.5352 19.38199,76.2964 28.61133,164.2832 9.2294,87.9868 1.53947,138.4401 -23.07227,151.3613 -24.61169,12.9211 -52.30176,22.4585 -83.0664,28.6113 -30.76456,6.1533 -51.68452,14.7685 -62.75977,25.8438 -11.07529,11.0752 -12.92064,19.9956 -5.53711,26.7636 7.38354,6.7678 14.76688,11.9997 22.15039,15.6914 h 147.66992 c 12.30589,-2.4609 24.92065,-3.3849 37.8418,-2.7695 12.92108,0.6106 27.99442,1.2304 45.22266,1.8457 17.22818,0.6106 25.84375,-16.9206 25.84375,-52.6074 -13.53648,-38.1482 -16.92054,-75.0649 -10.15235,-110.752 6.76823,-35.6868 14.76677,-80.2956 23.9961,-133.8261 9.2293,-53.5306 -0.92283,-119.0591 -30.45703,-196.586 49.22339,-7.3833 76.29639,5.8444 81.21875,39.6856 4.92227,33.8412 16.30493,64.6065 34.14843,92.2949 17.84342,27.6882 32.30369,42.1466 43.37884,43.3769 12.3059,0 19.9958,-12.3043 23.0723,-36.916 3.0766,-24.6117 -1.2293,-49.2241 -12.9199,-73.8359 -11.6906,-24.6116 -15.0746,-57.2227 -10.1524,-97.832 4.9224,-40.6094 -0.6157,-67.989 -16.61321,-82.1407 -15.99754,-14.1516 -34.14848,-16.9211 -54.45313,-8.3066 -20.30465,8.6143 -42.76328,14.152 -67.375,16.6133 l 40.60938,-166.1309 c 29.53404,-23.3811 32.60963,-65.83601 9.22851,-127.36521 -23.38112,-61.52921 -32.91837,-124.5955 -28.61132,-189.20117 4.30705,-64.60576 23.69013,-111.06188 58.14648,-139.36524 141.51729,4.92227 233.19529,-1.2308 275.03509,-18.45898 20.9199,-55.37625 31.9961,-102.137 33.2266,-140.28516 1.2302,-38.14809 -5.5378,-102.75509 -20.3047,-193.81836 12.3058,-39.37871 17.5353,-76.91072 15.6895,-112.59766 -1.8455,-35.686931 -16.9211,-72.605819 -45.2246,-110.75390547 -3.0765,-0.30764361 -5.8838,-0.34596716 -8.4219,-0.11523437 z M 754.90109,148.56831 c 21.57369,-1.49977 47.12812,1.6726 76.66211,9.51757 39.37867,10.45998 59.06835,33.53378 59.06835,69.22071 0,36.91758 -12.92147,67.98985 -38.76367,93.21679 -25.84234,25.22704 -43.06958,31.6887 -51.68359,19.38282 -7.3835,-11.07524 -0.30866,-27.07416 21.22656,-47.99414 21.53524,-20.9199 26.76474,-41.5313 15.68945,-61.83594 -11.07524,-20.30466 -34.45564,-21.84343 -70.14257,-4.61524 -12.30582,-13.53639 -40.60908,-23.99539 -84.91016,-31.3789 9.84474,-22.15055 27.38045,-36.30214 52.60742,-42.45508 6.30675,-1.53823 13.05487,-2.55867 20.2461,-3.05859 z m -83.92969,65.81836 c 35.68692,3.69179 65.22247,12.92053 88.60351,27.6875 -1.23057,14.76704 4.30543,15.69066 16.61133,2.76953 12.3058,-12.92114 24.30553,-16.61379 35.9961,-11.07618 11.69054,5.53763 13.22736,16.61364 4.61328,33.22657 -8.61409,16.61287 -19.68817,30.76451 -33.22461,42.45508 -13.5364,11.69055 -16.30542,23.37975 -8.30664,35.07031 7.99877,11.69057 12.61312,21.84292 13.84375,30.45703 3.69174,62.75978 30.76478,94.75577 81.21875,95.98633 34.45634,0 60.60571,3.38413 78.44922,10.15234 17.84343,6.76824 95.06321,13.22988 231.65821,19.38281 7.3833,-78.75744 17.2293,-169.82232 29.5351,-273.1914 6.1532,28.30349 10.7673,72.91228 13.8438,133.82617 3.0766,60.91394 -3.385,117.21389 -19.3828,168.89844 -24.6117,17.22818 -116.9049,19.68869 -276.88088,7.38281 -40.60925,38.14815 -64.29815,93.83297 -71.0664,167.05273 -6.76822,73.21978 3.38421,140.9024 30.45703,203.04688 27.07284,62.14452 7.38317,106.13808 -59.06836,131.98048 -66.45156,25.8421 -124.29028,62.1439 -173.51367,108.9062 -49.22332,46.7621 -60.29746,76.9109 -33.22461,90.4473 54.14568,-8.6143 108.90694,-11.9982 164.2832,-10.1523 55.37634,1.8456 101.52389,-4.305 138.44141,-18.4571 36.91751,-14.1516 55.375,2.1523 55.375,48.9141 -1.23055,63.9905 4.30745,105.8321 16.61328,125.5215 12.3059,19.6893 13.536,39.9922 3.69142,60.9121 -27.07291,-35.6868 -41.2245,-75.6795 -42.45509,-119.9805 -1.23056,-44.301 -52.60761,-58.7612 -154.13086,-43.3789 -101.5232,15.3824 -169.20583,26.4583 -203.04688,33.2266 -33.8411,6.7682 -61.52923,-0.9238 -83.06445,-23.0742 -21.53523,-22.1505 -15.99718,-64.6055 16.61328,-127.3653 32.61054,-62.7597 97.52408,-140.2881 194.74023,-232.58201 C 709.73529,867.21073 694.66,806.91338 682.96944,751.53706 671.27888,696.16072 665.43429,630.9386 665.43429,555.87299 h -27.6875 L 479.0007,734.92378 c -94.7206,67.12183 -365.45879,283.47602 -180.58985,96.5996 49.53216,-42.67065 91.37189,-89.83146 145.51758,-116.90429 76.29624,-102.13852 119.67477,-166.43693 130.13477,-192.89453 10.45991,-26.45753 60.60677,-43.37821 150.43945,-50.76172 4.9223,-60.29862 -8.61423,-88.91046 -40.60938,-85.83399 -31.99521,3.07647 -45.53174,-6.45882 -40.60937,-28.60937 18.45874,-9.84466 24.91854,-16.92148 19.38086,-21.22852 -5.53762,-4.30703 -15.69007,-7.07606 -30.45703,-8.30664 1.23057,-7.38352 -4.92057,-14.15174 -18.45703,-20.30469 12.30587,-29.53398 25.22533,-49.8388 38.76171,-60.91406 12.30589,-6.1529 25.22729,-6.1529 38.76368,0 13.53645,6.15291 27.07299,10.46066 40.60937,12.92188 v -9.23047 c -8.61397,0 -19.68817,-3.99928 -33.22461,-11.99805 -13.53647,-7.99883 -27.07298,-9.53566 -40.60937,-4.61328 3.69171,-7.38351 7.99756,-13.53661 12.91992,-18.45898 z m 129.09765,22.90039 c -1.92278,0.11536 -4.03836,0.48041 -6.3457,1.0957 -9.22942,2.46116 -17.5364,9.53598 -24.91992,21.22656 -7.38351,11.69055 -9.2289,19.38242 -5.53711,23.07422 -7.38354,3.69173 -11.69129,7.99951 -12.92188,12.92188 -1.23053,4.92227 1.53841,8.92155 8.30665,11.99804 6.76824,3.07651 15.99693,-1.23125 27.6875,-12.92187 11.69054,-11.69055 19.69101,-21.84293 23.99804,-30.45703 4.30706,-8.61409 4.92218,-15.68894 1.84571,-21.22657 -2.30736,-4.1532 -6.34494,-6.05703 -12.11329,-5.71093 z m -124.36718,9.51757 c -6.22983,-0.23073 -12.11278,1.26776 -17.65039,4.49805 l -12.92188,11.07617 v 9.22852 h 7.38281 c 17.22819,7.38355 36.30269,7.38355 57.22266,0 l 18.45898,3.69336 v -11.07617 l -18.45898,-1.84571 c -12.30588,-9.99849 -23.65015,-15.18966 -34.0332,-15.57422 z m 118.71289,2.71094 c 5.99913,-0.80757 8.53816,1.32617 7.61523,6.40235 -1.23055,6.76822 -4.61476,13.845 -10.15234,21.22851 -5.53769,7.38354 -10.76913,12.30449 -15.69141,14.76563 -4.92236,2.46119 -4.92236,0.30884 0,-6.45899 4.92225,-6.76822 4.92225,-9.23061 0,-7.38476 -4.92236,1.84583 -5.84405,-0.30808 -2.76758,-6.46094 3.07648,-6.15295 7.69087,-12.92118 13.84375,-20.30469 2.76883,-0.92294 5.15264,-1.51792 7.15235,-1.78711 z m -123.44336,3.63477 c -4.92236,4.92235 -4.92236,9.22819 0,12.91992 -6.15294,-1.23058 -10.45876,-2.46083 -12.91992,-3.69141 1.23054,-2.46118 5.53638,-5.53669 12.91992,-9.22851 z m 14.76758,3.6914 14.76757,7.38282 c -6.15292,2.46116 -12.30605,3.6914 -18.45898,3.6914 4.92237,-2.46116 6.15255,-6.15186 3.69141,-11.07422 z m 77.52734,35.07032 c 4.92227,3.69183 5.53743,7.07584 1.8457,10.15234 -3.69181,3.0764 -6.15226,3.0764 -7.38281,0 -1.23055,-3.0765 0.61493,-6.46051 5.53711,-10.15234 z m -114.44531,12 c -1.23053,0.61553 -1.84571,2.4606 -1.84571,5.53711 0,3.0765 -0.92151,4.92178 -2.76757,5.53711 -1.84587,0.6155 -4.30826,-0.9233 -7.38477,-4.61524 -3.0764,-3.69184 -5.2303,-5.53711 -6.46094,-5.53711 -2.46118,0 -3.99808,0.61538 -4.61328,1.8457 -0.61553,1.23065 -0.92383,3.07593 -0.92383,5.53711 3.69173,-1.23054 7.38436,0.002 11.07618,3.69336 3.69183,3.69183 7.38249,4.61343 11.07421,2.76758 3.69174,-1.84589 5.23048,-4.92147 4.61524,-9.22851 -0.61532,-4.30706 -1.53895,-6.15243 -2.76953,-5.53711 z m -20.76563,28.14843 c 1.23054,-0.30764 2.92265,-0.15438 5.07617,0.46094 4.30703,1.23055 9.53656,2.15431 15.68946,2.76953 6.1529,0.61551 8.61541,1.53899 7.38476,2.76953 h -29.53515 c -1.23055,0 -1.53732,-1.23217 -0.92188,-3.69336 0.30777,-1.23058 1.0761,-1.99899 2.30664,-2.30664 z m 28.15039,7.84571 c -2.46113,1.23058 -5.8453,3.07591 -10.15234,5.53711 -4.30706,2.46117 -8.30631,3.6914 -11.99805,3.6914 -2.46119,0 -4.30852,-0.30633 -5.53906,-0.92187 -1.23053,-0.61551 -3.9e-4,-2.15405 3.69141,-4.61524 z m 215.9668,712.5078 -36.91797,145.8242 c -23.38106,1.23 -54.14483,7e-4 -92.29297,-3.6914 l 11.07422,-75.6797 c 59.06806,-34.4563 98.44739,-56.6084 118.13672,-66.4531 z m -164.2832,99.6777 -3.69141,44.3008 -55.37695,5.5391 z m 105.21484,158.7461 c 7.38355,22.1505 16.92077,48.9152 28.61133,80.295 11.6905,31.3799 5.84593,133.8276 -17.53516,307.3398 9.84464,24.6119 9.84464,47.9922 0,70.1426 -50.45397,2.4611 -112.59852,3.077 -186.43359,1.8457 v -3.6914 c 47.99281,-9.8442 87.37021,-20.9207 118.13476,-33.2266 30.76464,-12.3058 42.4558,-67.6823 35.07227,-166.1289 -7.38352,-98.4468 -16.61225,-160.898 -27.6875,-187.3555 -11.07524,-26.4573 -17.84347,-45.8407 -20.30469,-58.1464 z" />
</svg>
