<?xml version="1.0" encoding="UTF-8" standalone="no"?>
<svg
   width="1532.8887"
   height="1799.3611"
   id="svg2265"
   version="1.0"
   xml:space="preserve"
   xmlns="http://www.w3.org/2000/svg"
   xmlns:svg="http://www.w3.org/2000/svg"
   xmlns:rdf="http://www.w3.org/1999/02/22-rdf-syntax-ns#"
   xmlns:cc="http://creativecommons.org/ns#"
   xmlns:dc="http://purl.org/dc/elements/1.1/"><metadata
     id="metadata2272"><rdf:RDF><cc:Work
         rdf:about=""><dc:format>image/svg+xml</dc:format><dc:type
           rdf:resource="http://purl.org/dc/dcmitype/StillImage" /><dc:creator><cc:Agent><dc:title>S. Thomas, mod. S. Romorduc</dc:title></cc:Agent></dc:creator><dc:description>A17 sign based on S. Thomas A17A, with added &quot;areas&quot; for ligatures.&#10;</dc:description></cc:Work></rdf:RDF></metadata><defs
     id="defs2270" /><path
     id="path2267"
     style="fill:#000000;stroke:none;stroke-width:1.44958"
     d="M 1076.8657,4.9921246e-5 C 1051.0292,-0.01285426 1024.6932,2.4759825 997.86349,7.4291545 919.81351,21.83838 849.57089,78.250019 787.13059,176.71306 c -14.40898,36.0232 -49.22488,88.85807 -104.46044,158.50269 -9.60623,31.21995 -5.98419,46.2284 10.82661,45.02761 16.81052,-1.20073 28.80856,1.80997 36.01297,9.01457 -7.99937,5.99976 -12.26925,12.41986 -12.77441,19.25228 l -89.10396,-0.2718 c -67.79398,2.42123 -143.19499,32.80686 -218.25259,90.9159 C 207.92166,603.40379 96.811512,633.59276 83.786352,729.07437 c 1e-5,33.897 32.201598,57.48723 70.222578,60.24823 154.3097,11.20567 413.92517,14.94436 542.80883,22.67802 37.27832,63.74895 104.37502,358.43948 121.88104,490.26808 C 690.16111,1150.3074 593.47013,943.83442 424.90053,836.85674 387.52413,816.78163 333.40275,824.52617 263.65442,859.464 c -69.74763,34.94243 -56.25461,209.6898 7.85138,470.6294 64.10599,260.9409 80.59563,262.7227 49.40848,286.1596 -91.93166,58.8562 -327.4087859,119.6391 -320.73813688,157.8907 -4.92317302,29.5726 94.62697188,27.5731 139.17707688,21.5551 37.82714,-5.1098 41.24657,-16.0406 130.96718,-22.0635 96.65977,-6.4888 153.23154,5.9367 189.76124,12.4372 80.44775,14.3191 84.22965,-77.6088 64.84042,-92.4336 -53.4165,-102.753 -74.20434,-115.8856 -61.68363,-212.7832 17.96707,-139.044 -20.40163,-235.5871 -34.24638,-264.8959 132.22406,197.0288 190.17081,368.9218 358.48677,517.3725 94.46198,83.3132 316.68398,89.9377 412.90648,-76.7237 53.1332,-92.0288 10.2909,-456.2176 10.2909,-456.2176 0,-134.4864 41.1609,-271.99788 113.2074,-368.05943 l 101.2917,269.34553 -76.9477,321.2855 c -21.6138,33.6216 -36.622,65.427 -45.0278,95.4458 -8.4047,30.0194 -13.8161,57.0706 -16.2169,81.0861 -10e-5,19.2121 5.4108,44.9956 16.2169,77.4167 10.8076,32.4207 17.4398,63.0488 19.8413,91.8671 4.8026,7.2047 9.6026,12.0037 14.4051,14.4052 4.8034,2.4016 8.3798,-1.175 10.7814,-10.7813 12.0076,12.0079 19.2066,10.7855 21.6078,-3.6239 12.0079,12.0076 19.2513,10.8306 21.6529,-3.5787 4.8032,4.803 9.6026,6.5915 14.4053,5.3906 4.8036,-1.2004 7.2028,-7.7884 7.2028,-19.7957 -12.0079,-38.4247 -21.0399,-69.0532 -27.0438,-91.8672 -6.0035,-22.8146 -6.5695,-57.0642 -1.7666,-102.6939 2.4012,-12.0079 4.8007,-17.9838 7.2023,-17.9836 4.8032,0 9.6026,3.5769 14.4053,10.7809 0,12.0078 -1.2223,28.85 -3.6238,50.4638 -2.4016,21.6137 -0.6133,38.4102 5.3907,50.4182 6.0034,12.0075 13.8137,14.4068 23.4199,7.2027 7.2046,-2.4016 9.0379,-13.2229 5.4357,-32.4345 -3.6025,-19.2124 -1.2029,-46.8295 7.2026,-82.8528 8.405,-36.0231 -0.6269,-74.4155 -27.0438,-115.2417 81.1656,-157.4831 88.1706,-206.8921 116.2138,-358.8044 -12.0076,-158.50145 -46.9096,-260.65204 -97.3422,-368.72133 -69.6448,-67.24303 -153.6738,-111.657 -252.1366,-133.27089 -62.4402,-52.8338 -52.8416,-106.28006 28.8104,-160.31464 81.6523,-54.03458 120.6563,-123.66628 117.0538,-208.92094 C 1325.6721,111.2996 1289.0677,54.842636 1219.4228,27.225001 1173.7191,9.1008627 1126.1899,0.02468634 1076.8657,4.9921246e-5 Z M 1043.0723,47.836236 c 27.1956,-0.426835 58.3755,3.530321 93.4981,11.823148 86.4551,20.413024 130.2581,64.827006 131.4588,133.270886 1.2009,68.44386 -33.6147,129.69989 -104.4605,183.73443 -70.8454,54.03463 -80.4435,48.01317 -28.8103,-18.02916 51.6333,-66.04223 69.6521,-120.05436 54.0421,-162.08134 -15.6096,-42.02694 -66.6564,-52.23624 -153.112,-30.62238 C 939.62714,139.51488 910.83267,110.10926 949.25721,77.688553 972.07178,58.438695 1003.3249,48.460072 1043.0723,47.836236 Z M 877.5482,167.6532 c 0.48902,0.009 0.96184,0.0529 1.44963,0.0907 15.60984,1.2007 59.45831,16.20919 131.50417,45.02762 7.2046,19.21241 22.7787,21.00069 46.7943,5.39062 24.0154,-15.61004 47.4452,-18.6207 70.2595,-9.01458 22.8147,9.60621 25.8253,31.24722 9.0146,64.86877 -16.8109,33.62153 -39.0179,61.80478 -66.6356,84.6193 -27.6176,22.81464 -39.6604,47.42115 -36.0583,73.83806 3.6025,26.41691 19.833,45.65848 48.6517,57.66616 7.2041,43.22766 27.0119,79.26594 59.4326,108.08439 32.4204,28.81847 88.2667,61.23476 167.5172,97.25787 -124.8802,211.33538 -187.3129,363.81899 -187.3129,457.47899 0,0 -5.1223,32.4482 8.428,76.3333 28.1937,91.3103 34.8414,321.636 9.5739,361.8799 -73.6719,117.338 -215.61263,131.8627 -309.36557,77.7344 -91.66553,-52.9231 -331.64001,-562.5091 -455.81049,-564.6298 -24.92399,18.6493 -24.01667,59.5536 -1.74264,123.5128 20.27358,58.2148 38.9286,88.2471 38.72251,265.3997 -0.14103,121.2246 -39.81843,60.4201 -58.63726,-42.8901 -36.71624,-201.5589 -54.8465,-265.2415 -57.50197,-340.0675 -2.65529,-74.8257 -14.63969,-173.15974 37.97657,-197.49165 C 445.7393,860.98062 887.96133,1493.089 896.60199,1503.2265 L 892.23632,1337.66 c 0,-100.8647 -47.45456,-390.02442 -155.52406,-613.36756 139.28976,-38.42459 196.92359,-80.43905 172.90786,-126.06828 9.60639,-67.24304 -7.19021,-103.28131 -50.41826,-108.08439 -48.03039,4.80308 -75.64782,-9.59411 -82.85253,-43.21566 36.02326,-14.40923 49.19779,-26.45222 39.59171,-36.05834 -9.60624,-9.60613 -26.40283,-15.5823 -50.41833,-17.98387 16.81094,-16.81077 10.78895,-32.43038 -18.02903,-46.83961 l 64.86877,-100.88178 c 28.81825,-21.61387 78.03094,-15.59248 147.67616,18.02916 24.01462,-2.40154 17.42784,-12.61081 -19.79587,-30.62239 C 903.01849,214.55569 866.3695,206.74592 830.34625,209.14747 846.6317,181.2296 862.3895,167.39868 877.5482,167.65321 Z m 230.7553,47.29258 c -5.1785,-0.11265 -11.3683,0.96481 -18.5727,3.21626 -19.2124,6.00385 -36.0092,19.78974 -50.4184,41.40367 -14.4085,21.61388 -18.0312,37.23345 -10.8265,46.83959 -14.4092,7.20466 -23.3959,16.23688 -26.9985,27.04376 -3.60201,10.80696 1.1971,19.18266 14.4052,25.18648 13.2088,6.00392 32.4047,-2.9831 57.6208,-26.99845 25.2166,-24.01537 41.447,-45.04522 48.6517,-63.05679 7.2049,-18.0115 8.3817,-32.4087 3.5786,-43.21565 -3.0014,-6.75435 -8.8097,-10.23125 -17.4402,-10.41887 z m -12.9557,24.73349 c 9.7563,-0.0937 13.9131,4.73961 12.4122,14.49581 -2.4014,15.61007 -9.6004,30.00727 -21.6079,43.21565 -12.0077,13.20848 -23.4397,22.24067 -34.2465,27.04375 -10.8066,4.8031 -10.8066,0.56994 0,-12.63853 10.8068,-13.20844 10.8068,-18.00751 0,-14.40522 -10.8066,3.60235 -12.5952,-1.19677 -5.3907,-14.40522 7.2046,-13.20842 15.5804,-25.81724 25.1866,-37.82501 9.9063,-3.60228 17.7925,-5.42496 23.6463,-5.48123 z m -239.99622,5.16413 c -2.39926,-0.006 -4.72468,0.092 -6.97618,0.3171 -24.01551,2.40162 -43.21144,18.02115 -57.62085,46.83959 24.01551,21.61387 48.62185,31.21197 73.83808,28.81044 25.21632,-2.40156 52.2225,-11.99966 81.04054,-28.81044 h 46.8398 v -14.4052 h -46.8398 C 908.63493,255.83097 878.54378,244.9115 855.35158,244.8434 Z m -16.94204,17.84798 c 0.93817,0.0376 1.86269,0.1981 2.76333,0.49828 -12.00775,19.21232 -7.20817,30.03285 14.40506,32.43439 26.41693,-7.20464 31.21588,-18.02516 14.40544,-32.43439 16.81044,7.20465 33.65285,14.4032 50.46328,21.60783 -21.61351,7.20463 -43.25453,10.82656 -64.86872,10.82656 -16.81032,2.40155 -30.03081,-2.39753 -39.63689,-14.40521 8.4054,-12.60807 15.90175,-18.79013 22.4685,-18.52746 z m 186.49776,61.7431 c 12.0071,7.20465 14.4072,13.79202 7.2025,19.79584 -7.2044,6.00392 -12.6147,5.39267 -16.2172,-1.81197 -3.6019,-7.2046 -0.5916,-13.18077 9.0147,-17.98387 z M 726.70117,450.09505 c 0.24252,3.39442 1.17199,7.1428 2.80856,11.23428 4.80336,12.00768 7.20253,27.01599 7.20253,45.02762 0,18.0115 11.38676,28.78672 34.20115,32.38908 22.81495,3.60226 51.04354,3.0364 84.66452,-1.76668 12.0077,50.43232 4.1982,73.81638 -23.41973,70.2141 -27.61769,-3.60237 -74.69532,2.59446 -135.08285,30.62242 l -434.51769,38.2157 c 84.22432,-42.07993 104.11856,-54.32099 164.98615,-76.85613 65.37266,-21.79085 127.98617,-54.15036 190.98236,-63.64567 25.12569,-3.78719 13.23628,-49.30299 18.16507,-77.6432 6.44871,-0.0784 56.87569,-5.00405 90.00993,-7.79152 z" /></svg>
