<?xml version="1.0" encoding="UTF-8" standalone="no"?>
<svg
   xml:space="preserve"
   viewBox="0 0 1799.2969 1794.5866"
   y="0px"
   x="0px"
   id="Ebene_1"
   version="1.1"
   width="1799.297"
   height="1794.5865"
   xmlns="http://www.w3.org/2000/svg"
   xmlns:svg="http://www.w3.org/2000/svg"
   xmlns:rdf="http://www.w3.org/1999/02/22-rdf-syntax-ns#"
   xmlns:cc="http://creativecommons.org/ns#"
   xmlns:dc="http://purl.org/dc/elements/1.1/"><metadata
     id="metadata65"><rdf:RDF><cc:Work
         rdf:about=""><dc:format>image/svg+xml</dc:format><dc:type
           rdf:resource="http://purl.org/dc/dcmitype/StillImage" /></cc:Work></rdf:RDF></metadata><defs
     id="defs63" /><style
     id="style44"
     type="text/css">
	.st0{fill:#010101;}
</style><path
     id="XMLID_48_"
     style="display:inline"
     class="st0"
     d="M 0 0 L 0 169 L 1630.7461 173.57031 L 1633.2969 1794.5859 L 1799.2969 1794.5859 L 1797.123 0.703125 L 0 0 z M 317.10938 305.91992 C 297.56957 306.09635 274.64684 326.24191 277.64062 343.69141 C 282.54475 372.54581 312.54017 410.18101 331.81445 431.16602 C 369.45066 472.10961 432.52071 486.25249 482.24609 507.35156 C 492.39645 511.57137 520.79217 517.84524 527.29297 527.19727 C 532.65326 534.95259 532.19712 557.1906 534.25 566.88477 C 541.89128 604.86311 549.64973 642.72871 557.29102 680.70703 C 524.55894 646.03613 487.71961 611.3659 448.71484 583.99414 C 437.65209 576.23881 425.67603 569.73775 414.61328 561.98242 C 393.51421 547.15605 377.43403 522.86264 357.93164 504.38672 C 338.54333 486.02482 317.33045 469.48868 294.06445 456.37305 C 283.91409 450.67059 231.45002 420.67631 221.75586 428.43164 C 206.0171 441.0911 242.05576 457.85622 247.98633 460.93555 C 275.70024 475.07762 295.3174 494.69311 310.25781 522.29297 C 265.89275 508.37899 223.2404 488.98859 201.45703 445.42188 C 193.13146 428.88476 196.8925 410.86621 176.5918 409.26953 C 166.66952 408.47119 152.5296 412.80704 145.23047 419.42188 C 132.79913 430.71273 136.21766 440.40465 143.63086 453.40625 C 166.3266 493.43745 194.95596 534.61 238.63672 553.08594 C 260.07794 562.20987 282.544 569.28218 304.44141 577.26562 C 327.7074 585.70526 365.91545 591.74804 384.27734 608.28516 C 400.47231 622.76938 413.81531 648.20405 427.61523 665.76758 C 444.38043 687.2088 461.37541 708.42207 478.14062 729.86328 C 502.09091 760.42841 522.96171 795.89945 549.53516 824.18359 C 568.69539 844.71242 590.59246 866.26514 616.02539 878.81055 C 643.73929 892.49642 679.09427 897.40168 709.77344 901.84961 C 763.71879 909.71898 817.89214 917.36186 871.95117 925.11719 C 885.1809 928.1965 898.52595 931.84556 912.09766 933.89844 C 919.3969 935.03894 925.21395 943.93446 924.75781 950.77734 C 921.10825 1004.2664 923.72949 1058.0968 932.2832 1111.0156 C 941.63524 1168.4965 961.709 1223.3547 971.85938 1280.6074 C 978.36018 1317.5593 982.92461 1356.4533 983.38086 1395.002 L 953.38281 1360.5586 C 816.63794 1222.7872 727.44943 1153.9004 685.93555 1153.9004 C 646.47458 1152.874 622.06923 1176.7118 612.94531 1225.2969 C 624.12212 1361.0151 629.71094 1460.353 629.71094 1523.0801 C 629.71094 1579.7624 612.03372 1622.301 576.56445 1650.6992 C 545.20098 1672.9387 523.87211 1698.8291 512.69531 1728.2539 C 487.37645 1741.3695 461.48594 1761.6731 435.14062 1789.0449 L 435.14062 1792.1191 C 927.49032 1792.1191 1204.2159 1791.2413 1262.9512 1780.0645 L 1396.7324 1792.2676 C 1447.3701 1792.2676 1453.413 1779.154 1414.9785 1752.8086 L 1332.9785 1701.1426 C 1317.8099 1673.7707 1316.2128 1637.8452 1328.416 1593.252 C 1324.3102 1556.7564 1309.7116 1546.6051 1284.3926 1562.9141 C 1294.543 1494.0285 1293.3652 1430.5837 1283.2148 1381.8848 C 1285.8328 1301.9497 1294.7994 1222.4714 1304.3145 1143.4062 C 1313.0961 1069.5024 1324.9556 989.78096 1302.8301 917.01758 C 1294.3905 889.07558 1278.9933 869.80159 1262 846.76367 C 1236.6812 812.32087 1226.8733 804.79343 1219.5742 762.36719 C 1215.5824 738.98714 1215.012 742.40826 1214.6699 729.63477 C 1296.4431 698.15724 1339.3264 613.53105 1334.6504 529.13477 C 1330.2025 447.36163 1258.5796 417.59642 1185.8164 410.52539 C 1109.2896 402.99816 1041.203 416.79701 1001.1719 487.2793 C 990.33722 506.32548 986.45818 529.25063 975.85156 547.72656 C 967.86806 561.64056 955.32208 573.95669 946.6543 587.64258 C 937.07435 602.69706 917.57042 626.64684 918.14062 646.03516 C 918.71093 664.0549 934.90893 660.86492 947.56836 671.35742 C 928.40813 684.13091 951.67333 691.54275 950.875 693.02539 C 942.66347 709.44846 944.37274 698.50062 951.10156 713.7832 C 956.00571 724.84595 955.55149 733.05568 957.49023 744.80273 C 961.71 769.77947 976.87795 769.43945 999.3457 769.43945 C 1010.2944 769.43945 1035.9558 767.27359 1043.3691 778.56445 C 1051.1243 790.19744 1038.9199 800.57434 1028.7695 804.9082 C 1002.1963 816.31309 966.15573 811.86419 938.09961 809.69727 C 898.75292 806.73198 859.97745 803.76522 820.40234 803.53711 C 776.03729 803.19497 701.5622 821.32963 672.59375 777.87695 C 652.86328 748.33825 647.04629 702.37611 635.52734 668.8457 C 605.19032 581.02794 572.00264 486.59529 508.36328 417.02539 C 488.40471 395.24203 466.16425 375.28131 441.1875 359.31445 C 431.60739 353.15579 380.05802 319.96964 368.53906 327.38281 C 348.5805 340.15631 391.576 361.82498 396.82227 364.9043 C 423.28163 380.41497 440.96045 402.6537 453.50586 430.5957 C 424.7655 421.81393 393.5146 410.29626 371.61719 388.62695 C 360.89659 378.02041 352.34182 364.67807 345.95508 350.99219 C 341.8493 342.09638 340.13995 319.62893 334.4375 313.24219 C 329.76149 308.02445 323.62264 305.86113 317.10938 305.91992 z M 1152.8223 433.84766 C 1211.7837 433.65519 1280.9629 452.06737 1300.5508 503.13281 C 1314.1226 538.60205 1305.2261 583.42378 1287.8906 615.92773 C 1273.5203 642.84332 1237.2524 690.74449 1203.8359 693.5957 C 1162.2083 697.13123 1193.8002 643.86914 1205.2051 630.52539 C 1228.5852 603.38172 1261.7723 561.63986 1224.8203 528.67969 C 1214.0998 519.09957 1200.4124 517.84472 1186.7266 519.44141 C 1174.6375 520.80999 1164.261 527.08348 1152.7422 529.47852 C 1140.767 531.98759 1146.5843 531.87333 1136.0918 527.76758 C 1100.5084 513.85359 1070.1677 501.30673 1031.0488 495.49023 C 1042.6819 465.49535 1068.7993 447.1339 1099.4785 439.7207 C 1114.647 436.04263 1133.1683 433.91181 1152.8223 433.84766 z M 1026.0352 521.49609 C 1037.7821 520.69774 1052.4923 525.02962 1063.7832 527.88086 C 1083.8559 532.78497 1119.2133 541.90947 1132.7852 559.13086 C 1138.4877 566.31594 1129.1358 572.58934 1142.0234 571.79102 C 1150.9192 571.22077 1162.8912 552.51431 1171.2168 548.06641 C 1190.377 537.91604 1215.4689 544.64779 1214.5566 568.82617 C 1212.6177 620.94659 1130.8447 646.38023 1156.2773 697.24609 C 1179.2013 743.43594 1178.2888 795.67064 1204.1777 841.4043 C 1228.3562 884.05863 1259.0366 910.85832 1267.248 962.06641 C 1274.1494 1050.0043 1260.91 1139.7526 1252.4219 1221.0742 C 1248.7365 1270.7246 1240.7779 1313.4098 1237.3652 1359.7578 C 1153.8814 1394.7712 1084.5397 1414.5032 1029.3398 1418.9512 C 1026.3746 1322.3518 1005.3889 1230.8817 989.42188 1135.3086 C 977.10454 1061.6329 959.99759 957.39013 996.60742 887.82031 C 1012.6885 857.36921 1040.5198 858.39749 1063.6719 837.07031 C 1083.6303 818.82247 1095.7189 774.79829 1073.3652 753.69922 C 1049.1869 730.88941 1008.2429 759.97345 986.11719 736.93555 C 974.14203 724.50422 979.73009 711.73057 989.65234 702.7207 C 1000.6011 692.68439 1012.8032 689.14737 999.6875 676.83008 C 991.24786 668.9607 975.27999 675.11923 967.63867 669.30273 C 964.10317 666.6796 961.13763 655.04479 955.77734 650.71094 C 943.00386 640.33248 939.583 644.66748 948.13672 627.33203 C 953.95325 615.58498 960.11248 603.95338 967.18359 592.89062 C 978.58854 575.09897 989.99395 556.96464 1012.918 555.25391 C 1041.5443 553.08697 1069.8275 573.84359 1097.7695 579.08984 C 1104.7265 556.166 1016.7959 539.51322 999.23242 545.67188 C 1008.1284 532.32814 1010.6386 522.52253 1026.0352 521.49609 z M 1185.4336 550.56445 C 1162.7175 550.29465 1144.6813 580.25988 1138.373 597.79492 C 1137.4606 600.304 1139.3991 607.37437 1138.7148 608.62891 C 1137.1182 611.59418 1130.6169 614.21692 1127.7656 618.55078 C 1121.3789 628.24494 1118.4156 638.85183 1132.1016 644.32617 C 1165.8601 657.78396 1229.8384 558.67645 1190.0352 551.03516 C 1188.4814 550.73579 1186.948 550.58244 1185.4336 550.56445 z M 1020.2148 564.15039 C 1002.7652 564.49254 981.21243 576.80929 984.17773 595.85547 C 992.38926 592.89019 997.40592 597.22327 1005.2754 599.16211 C 1019.1894 602.46954 1032.1919 603.49535 1046.334 600.41602 C 1066.6349 596.08216 1072.2218 595.74082 1092.6367 600.87305 C 1092.8647 595.85488 1092.8672 590.83847 1092.8672 585.82031 C 1085.5681 585.3641 1075.4179 586.38958 1068.4609 584.22266 C 1051.1256 578.74829 1040.4015 563.80825 1020.2148 564.15039 z M 1181.7832 567.23047 C 1185.21 567.37838 1187.8396 569.85187 1188.8945 575.89648 C 1190.9473 587.87165 1163.5762 628.3561 1150.2324 623.9082 C 1146.2408 622.5396 1163.3487 606.68912 1159.1289 603.83789 C 1153.4265 600.07427 1143.5039 609.88499 1150.4609 595.05859 C 1154.0535 587.27476 1171.5027 566.78675 1181.7832 567.23047 z M 1014.3984 572.47266 C 1010.9769 578.63129 1010.9769 584.79134 1014.3984 590.83594 C 1011.0839 585.42218 1008.9479 588.4654 1013.8984 590.63086 C 1008.9413 588.63774 1004.0892 586.53628 999.3457 584.10938 C 1002.1969 578.52095 1008.924 574.75362 1014.3984 572.47266 z M 1034.3574 575.89648 C 1042.1128 580.3444 1049.9848 584.79429 1057.7402 589.24219 C 1049.4147 591.29507 1040.5194 592.43282 1031.8516 592.54688 C 1039.8351 592.20473 1037.5496 588.21301 1031.0488 592.54688 C 1037.2075 588.44111 1038.5771 582.05515 1034.3574 575.89648 z M 1135.7344 624.55469 C 1131.6448 627.47503 1142.6629 628.46476 1137.1797 624.84375 C 1163.0038 640.32896 1110.4743 640.1276 1135.7344 624.55469 z M 988.83789 639.08008 C 988.73829 639.08608 988.63891 639.17818 988.53906 639.27734 C 988.64294 639.19154 988.74636 639.18344 988.84961 639.08008 C 988.84961 639.08008 988.85076 639.08 988.83984 639.08008 L 988.83789 639.08008 z M 988.97266 639.19531 C 988.81408 639.16631 988.65738 639.19884 988.50781 639.30664 C 988.29389 639.41356 988.08119 639.52009 988.05469 639.62695 C 977.76842 646.87532 991.67393 652.16182 974.47852 649.91406 C 976.18924 650.14216 948.24952 630.63972 957.60156 649.34375 C 969.34859 643.41321 972.76637 664.85471 985.99609 658.58203 C 994.336 654.51903 991.35206 639.63093 988.97266 639.19531 z M 967.63672 676.83008 C 971.40034 676.14578 995.2387 682.41643 997.51953 682.64453 L 959.3125 682.64453 C 948.24984 682.64453 967.29453 676.94412 967.63672 676.83008 z M 995.92188 686.06836 C 991.47388 690.51626 968.77814 703.85934 961.70703 696.90234 C 955.89049 691.08584 992.72846 686.52456 995.92188 686.06836 z M 704.18555 1220.8457 C 723.45984 1220.8457 801.47008 1288.2533 938.21484 1422.9453 C 938.21484 1433.0957 935.70648 1445.1852 930.57422 1459.4414 C 890.0869 1485.7866 810.47939 1515.6659 691.98242 1549.082 L 676.81445 1260.3086 C 676.81445 1233.9633 685.93772 1220.8457 704.18555 1220.8457 z M 1239.0781 1419.8613 L 1240.2559 1552.1934 C 1218.9287 1649.4772 1165.7817 1698.0645 1080.7012 1698.0645 C 877.12365 1657.577 727.45344 1660.9642 634.27539 1717.6465 C 604.85076 1720.7258 596.29557 1710.0034 608.38477 1685.7109 C 625.60616 1663.4713 661.07394 1639.6353 714.79102 1614.3164 C 1038.006 1484.6425 1212.7328 1419.8613 1239.0781 1419.8613 z " /></svg>
