<?xml version="1.0" encoding="UTF-8" standalone="no"?>
<svg
   xml:space="preserve"
   viewBox="0 0 1280.4884 1795.9193"
   y="0px"
   x="0px"
   id="Ebene_1"
   version="1.1"
   sodipodi:docname="US9A5G.svg"
   width="1280.4884"
   height="1795.9193"
   inkscape:version="1.2.2 (732a01da63, 2022-12-09)"
   xmlns:inkscape="http://www.inkscape.org/namespaces/inkscape"
   xmlns:sodipodi="http://sodipodi.sourceforge.net/DTD/sodipodi-0.dtd"
   xmlns="http://www.w3.org/2000/svg"
   xmlns:svg="http://www.w3.org/2000/svg"
   xmlns:rdf="http://www.w3.org/1999/02/22-rdf-syntax-ns#"
   xmlns:cc="http://creativecommons.org/ns#"
   xmlns:dc="http://purl.org/dc/elements/1.1/"><sodipodi:namedview
     id="namedview5783"
     pagecolor="#ffffff"
     bordercolor="#000000"
     borderopacity="0.25"
     inkscape:showpageshadow="2"
     inkscape:pageopacity="0.0"
     inkscape:pagecheckerboard="0"
     inkscape:deskcolor="#d1d1d1"
     showgrid="false"
     inkscape:zoom="0.28624108"
     inkscape:cx="924.04627"
     inkscape:cy="765.08935"
     inkscape:window-width="1920"
     inkscape:window-height="1137"
     inkscape:window-x="-8"
     inkscape:window-y="-8"
     inkscape:window-maximized="1"
     inkscape:current-layer="Ebene_1" /><metadata
     id="metadata76"><rdf:RDF><cc:Work
         rdf:about=""><dc:format>image/svg+xml</dc:format><dc:type
           rdf:resource="http://purl.org/dc/dcmitype/StillImage" /></cc:Work></rdf:RDF></metadata><style
     id="style67"
     type="text/css">
	.st0{fill:#010101;}
</style><defs
     id="defs70" /><path
     id="path2279_1_"
     class="st0"
     inkscape:label="path2279_1_"
     d="m 0,0 v 1213.1055 h 137.90039 v 453 L 0.08398437,1671.916 0.1484375,1795.043 418.13477,1794.375 413.47461,1666.1016 H 279.69922 V 275.69922 H 1276.1992 V 130 H 886.30078 V 0 Z M 70.900391,70.900391 H 807.5 V 208.80078 H 208.80078 V 1138.3066 H 70.900391 Z M 723.93164,360.33789 c -2.18646,0.1672 -4.29505,0.68205 -6.25,1.55664 -3.9099,1.64628 -7.2032,4.62969 -9.4668,8.95117 -2.26369,4.32148 -3.29235,7.8216 -3.18945,10.29102 0.1029,2.57231 1.23446,4.11445 3.18945,4.6289 5.0417,3.60124 9.67337,8.02664 13.78907,13.06836 4.11569,5.04173 7.81873,10.8024 11.11132,16.87305 3.2925,6.07066 5.66035,13.68438 6.99805,22.8418 1.3376,9.15742 1.54257,19.8587 0.51367,32 -6.07059,-8.1285 -10.80372,-16.46267 -14.19922,-24.48828 -3.29249,-8.02561 -5.24731,-15.84573 -5.76171,-22.94532 -0.5145,-7.09957 -1.85236,-12.34674 -3.91016,-15.74218 -2.0579,-3.29256 -4.93982,-4.73322 -8.54102,-4.21875 -2.05789,18.82931 0.10458,38.37988 6.07227,58.85547 5.96779,20.47559 15.63902,41.56767 28.91211,63.38085 0,15.74255 1.74964,33.13163 5.55664,51.96094 3.7042,18.82931 9.36247,38.9962 16.97656,60.29492 -14.71358,-20.88715 -28.70739,-39.81961 -41.67187,-56.79687 -12.96439,-17.08014 -24.89882,-32.20477 -35.59961,-45.375 -6.0706,-16.77146 -11.21623,-32.10305 -15.64063,-45.89063 -4.42429,-13.78758 -8.23083,-25.9288 -11.83203,-36.42382 -3.6012,-10.39214 -11.00932,-20.68147 -22.22461,-30.97071 -11.21529,-10.28924 -26.34002,-20.68004 -45.0664,-31.38086 -5.0417,0.51447 -9.57007,2.36511 -13.06836,5.2461 -3.4984,2.98387 -5.86564,7.10085 -6.89453,12.14258 -1.029,5.04172 -1.02828,8.84893 -0.20508,11.31835 0.8231,2.46942 2.57223,3.70313 5.14453,3.70313 6.58509,1.54338 12.75825,3.49925 18.62305,6.27734 5.76199,2.7781 11.21663,6.37891 16.36132,11.21485 5.0417,4.83594 10.18621,11.52367 14.81641,20.26953 4.73299,8.74585 9.05434,19.3429 12.55273,32.10156 -8.64299,-5.55618 -15.84542,-11.21513 -21.60742,-17.38867 -5.76189,-6.07065 -10.18664,-12.65425 -13.27344,-20.0625 -3.08679,-7.40825 -6.27576,-12.76025 -9.56836,-15.74414 -3.29259,-2.98388 -6.79128,-3.70433 -10.39257,-1.64649 4.11579,19.34379 12.34698,38.48257 24.79687,57.20899 12.44999,18.82931 29.11868,37.14493 50.00586,54.94531 15.22809,43.72928 31.89739,78.81509 50.41797,105.36133 18.52068,26.54624 38.99581,44.65562 61.83789,54.22461 56.38504,21.8132 101.452,38.07066 134.78906,48.77148 33.33717,10.70081 55.04686,16.05078 64.71875,16.05078 6.0707,17.80039 12.86196,36.6288 20.37305,56.28125 7.5113,19.65245 15.6401,40.02691 24.5918,60.91407 8.8487,20.88716 15.4331,40.12805 19.5488,57.72265 4.1157,17.59461 5.9676,33.33678 5.4532,47.02149 L 920.29614,1131.7622 c -69.11644,83.452 -108.94393,130.0652 -181.90458,210.878 -7.61409,20.8871 199.68649,-2.5465 197.42289,16.7973 -2.26359,19.3438 -9.67179,87.4592 -7.71679,106.1855 -12.24419,38.5847 -22.63703,72.9517 -31.07422,102.6875 -8.43719,29.6331 -14.81728,54.6354 -18.83008,74.3907 -2.5723,17.8004 -6.27656,32.3087 -11.62695,43.6269 -5.3505,11.2152 -12.14032,19.1375 -20.78321,23.7676 -8.64299,4.5273 -21.29965,10.4942 -37.55664,17.9023 -16.35988,7.4083 -36.32116,16.3617 -59.67773,27.0625 -12.24419,3.0867 -21.40124,6.2758 -27.98633,9.5684 -6.58509,3.2925 -10.39215,6.7914 -11.93555,10.3926 -1.5433,3.6012 -0.8224,6.7909 2.0586,9.6719 2.88099,2.881 8.0253,5.4518 15.43359,7.8183 7.40819,2.2637 16.05127,2.7795 26.44336,1.8535 10.28929,-0.926 22.22547,-3.2933 35.91016,-6.8945 13.68468,-3.6012 27.67776,-4.6306 41.87695,-3.6016 14.19919,1.0289 28.49993,4.0125 43.00781,8.6426 14.50779,4.5273 24.59152,4.425 30.66211,0.1035 6.0707,-4.3215 8.23285,-12.8605 6.68945,-25.0019 0,-12.6557 5.041,-31.0735 15.02149,-55.459 9.98059,-24.3856 25.00243,-54.8422 44.75781,-91.6777 19.85818,-36.8355 32.82322,-70.1737 38.79102,-99.8067 5.9677,-29.6329 4.7327,-55.4583 -3.9102,-77.2715 -0.5145,-8.1285 0.4114,-16.2574 3.1895,-24.9004 2.7781,-8.6428 7.4089,-17.5949 14.3027,-27.4726 6.8938,-9.8776 13.5811,-18.5196 19.5489,-25.6192 5.9677,-7.0995 11.3192,-12.7586 15.332,-16.7714 h 42.3906 42.3926 c 1.5434,7.0996 4.526,16.0498 9.1562,27.1621 4.6302,11.1124 10.7024,24.3864 18.3164,40.1289 6.0706,58.4429 11.3167,107.1118 15.5352,146.2109 4.2186,39.0991 7.4089,68.423 9.4668,88.2813 1.5433,18.8292 0.9264,34.7783 -1.543,47.8457 -2.5723,12.9644 -6.9975,22.9442 -13.3769,29.5293 -6.3793,6.5852 -15.3294,11.8335 -27.1621,15.9492 -11.9355,4.1157 -26.8551,6.9969 -45.17,9.0547 -11.2152,6.5851 -19.6541,12.7582 -25.416,18.3144 -5.762,5.4533 -8.9503,10.2886 -9.4648,14.0957 -0.5144,3.807 0.6175,6.2769 3.9101,7.8203 3.1896,1.5434 8.4367,2.1602 16.0508,2.1602 8.1285,0 16.8744,0.4114 26.4434,0.6172 9.4661,0.2058 19.7554,0.206 30.9707,-0.6172 11.2153,-0.7202 23.9747,-1.3372 37.8652,-1.8516 13.8904,-0.5145 28.9119,-0.7207 44.3457,-0.7207 15.4339,0 25.5176,-2.7771 30.3535,-8.2304 4.836,-5.4533 4.631,-13.5818 -0.5136,-24.1797 -4.5273,-17.8004 -5.9686,-40.747 -4.3223,-68.9395 1.6463,-28.1925 6.4829,-61.7355 14.3027,-100.6289 7.9228,-38.8933 10.1846,-72.8482 6.4805,-101.9668 -3.6013,-29.1185 -13.1696,-53.2968 -28.9121,-72.6406 v -34.8809 -35.1894 l -7.5117,-94.7637 -7.5098,-94.7637 c 5.0417,-8.1285 8.9512,-18.4179 11.5235,-30.6621 2.5722,-12.2442 3.7038,-26.2381 3.498,-41.6718 -0.2058,-15.5368 -1.8514,-29.4283 -4.7324,-41.7754 -2.881,-12.45 -7.1007,-23.3555 -12.7598,-33.0274 -5.5562,-9.67187 -9.979,-18.83037 -12.9629,-27.26756 -2.9839,-8.43718 -4.5273,-16.04965 -4.5273,-22.63476 0,-11.72974 0.5127,-29.42904 1.6445,-53.50586 1.1318,-24.07683 3.0871,-54.32663 5.8652,-91.16211 2.7781,-36.83548 2.2648,-66.36579 -1.748,-88.38477 -4.0128,-22.01896 -11.7314,-36.62955 -23.1523,-43.83203 -11.4211,-7.09957 -19.3432,-16.77081 -23.7676,-28.91211 -4.5273,-12.1413 -5.6595,-26.65041 -3.6016,-43.42187 10.7008,-5.04173 20.4768,-11.11267 29.5313,-18.10938 9.0546,-6.99668 17.4906,-15.12383 25.3105,-24.28125 7.9227,-9.15743 14.0966,-19.75641 18.418,-32.10351 4.2186,-12.34709 6.5859,-26.44222 6.5859,-42.69922 0,-16.77146 -3.8079,-30.97091 -11.4219,-42.28906 -7.5112,-11.31817 -18.7263,-19.75507 -33.5429,-25.10547 -14.7136,-5.35041 -30.2509,-8.33498 -46.5078,-9.4668 -16.257,-1.13182 -33.233,-0.30856 -50.7247,1.95508 -17.4916,2.26364 -32.4113,9.77508 -44.8613,22.94531 -12.45,13.17023 -22.3273,31.99847 -29.9414,56.89844 -4.5272,5.04172 -9.2604,11.524 -14.1992,19.03515 -4.9389,7.51115 -10.188,16.25718 -15.7441,25.82618 -3.08685,6.07065 -5.04085,11.21642 -5.65825,15.02343 -0.5144,3.80703 0.30778,6.37928 3.08595,7.40821 2.7781,1.02892 5.5579,2.15982 8.0273,3.39453 2.5723,1.23471 4.8348,2.57184 6.8926,4.11523 -2.5723,1.02892 -4.0122,2.16178 -4.7324,3.39649 -0.7203,1.23471 -0.7215,2.57184 -0.207,4.11523 0.5144,1.54339 1.3395,2.16141 2.5742,2.36719 1.2347,0.20579 2.8791,0.10351 4.834,0.10351 0.5145,0 2e-4,0.61694 -0.9258,1.54297 -1.0289,0.92603 -2.4683,2.15983 -4.0117,3.39453 -1.5434,1.23471 -1.9559,2.67545 -1.4414,3.91016 0.5145,1.3376 1.8523,2.57263 3.9101,3.60156 2.0579,1.02892 3.8082,2.98425 5.043,5.86524 1.2347,2.88099 2.1594,6.79101 2.3652,11.62695 0.2058,4.83594 0.9273,8.33465 2.4707,10.70117 1.5434,2.36652 3.9085,3.70234 7.5098,4.2168 3.6012,0.51446 8.5405,0.7207 14.9199,0.7207 6.2764,0 13.8903,-0.20624 22.5332,-0.7207 3.0868,7.61404 3.4987,14.3031 1.3379,20.16797 -2.0578,5.76197 -6.791,10.70071 -13.8906,14.81641 -11.2152,0.51446 -23.665,3.29233 -37.3496,8.02539 -13.6847,4.73305 -28.7078,11.31876 -44.96488,19.44726 -13.68469,-3.08678 -30.55825,-7.20303 -50.82813,-12.34765 -20.26978,-5.04173 -43.93593,-11.00863 -71.4082,-17.59376 -16.25698,-21.81318 -31.17613,-44.34723 -44.44922,-67.49804 -13.37608,-23.25368 -25.20948,-47.22699 -35.29297,-72.12696 0,-16.77146 0.10413,-32.10303 0.20703,-45.89062 0.1029,-13.78759 0.10167,-25.9288 -0.20703,-36.42383 -0.3086,-10.49503 -4.01173,-22.12149 -11.11132,-35.08594 -7.0995,-12.96443 -17.90321,-26.95942 -31.5879,-42.1875 -2.26359,-0.51446 -4.52838,-0.69454 -6.71484,-0.52734 z m 415.71286,72.86133 c 12.8615,0.72025 26.8539,3.7047 42.3907,7.51172 30.9705,7.61404 47.4336,23.8699 47.4336,52.37109 0,28.5012 -12.1404,52.47576 -32.4102,72.33399 -20.2698,19.85824 -33.8512,26.6496 -39.9219,17.49218 -7.0996,-9.15743 0.2044,-23.15041 17.4903,-39.92187 17.2859,-16.77147 19.1378,-31.58816 9.9804,-47.4336 -9.1574,-15.74253 -27.4724,-18.21257 -54.8418,-4.93945 -10.1864,-9.15742 -31.7931,-17.80081 -67.291,-24.90039 8.1285,-16.25699 22.0199,-25.31124 42.3926,-29.94141 9.9806,-2.36652 21.9157,-3.3954 34.7773,-2.57226 z M 1054.8613,483 c 28.5012,2.05785 51.5484,10.28839 69.8633,22.42969 -1.029,11.21528 2.7773,12.14064 12.4492,2.46875 9.6719,-9.67188 20.2715,-13.99328 29.9434,-9.98047 9.6719,4.11569 9.5683,14.19954 2.4687,27.47265 -7.0996,13.17023 -14.3025,23.25469 -24.9004,32.41211 -10.7007,9.15744 -13.5824,18.31523 -7.5117,27.47266 6.0706,9.15742 6.4826,17.79887 8.4375,24.89844 -3.0867,47.74208 3.6024,75.62577 22.4317,84.7832 18.8292,9.15742 26.0309,50.00586 22.4297,122.23633 -3.6013,72.12759 -4.9395,116.37266 -4.9395,134.6875 l -109.373,22.42969 c 1.0289,-19.34377 -5.968,-49.07883 -25.8262,-89.82422 -19.8583,-40.64251 -33.3374,-81.0794 -37.4531,-119.66406 -4.1157,-38.58466 2.2641,-62.25121 14.9199,-69.86524 12.6558,-7.61404 26.3393,-9.98047 56.8984,-9.98047 l 12.4512,-34.8789 c -3.0868,-27.47228 -15.5371,-38.99656 -37.4531,-34.88086 -21.8132,4.11569 -31.4855,-2.675 -27.4727,-19.96094 13.1702,-7.09957 18.5212,-13.89095 14.9199,-17.49219 -3.6012,-3.60123 -10.2902,-4.01342 -22.4316,-4.93945 0,-3.90991 -3.2931,-9.36245 -7.5117,-12.44922 -2.3665,-1.74918 -3.8056,-3.49896 -7.5098,-4.93945 10.1864,-23.35658 19.755,-38.27618 29.9414,-47.4336 10.1863,-5.04173 19.2406,-5.04173 29.9414,0 10.7008,5.04173 21.1968,8.95155 32.4121,9.98047 v -7.51172 c -7.0996,0 -14.3024,-3.90981 -24.9004,-9.98047 -10.7008,-6.07064 -21.1968,-6.58444 -32.4121,-2.46875 4.2186,-6.17354 7.1007,-10.90578 10.1875,-15.02148 z m 101.6114,16.83203 c -1.2846,-0.0547 -2.7327,0.14374 -4.3789,0.6582 -6.5851,2.05785 -14.4048,8.84923 -19.961,17.49219 -5.5562,8.64296 -6.9973,15.84524 -4.9394,19.96094 -6.0707,3.08677 -8.9516,5.86477 -9.9805,9.98047 -1.0289,4.11569 1.8526,5.45387 7.5117,7.51172 5.5562,2.05784 13.2723,-1.33751 22.4297,-9.98047 9.1575,-8.64296 14.4054,-14.81565 17.4922,-22.42969 3.0867,-7.61403 2.5723,-13.37649 0,-17.49219 -1.9292,-3.08677 -4.3202,-5.53718 -8.1738,-5.70117 z m -98.9473,7.39844 c -4.5626,-0.2508 -8.4002,1.00232 -12.6445,3.24023 l -9.9805,9.98242 v 7.50977 h 4.9375 c 14.1992,6.07064 28.6043,6.07064 44.8613,0 l 14.9199,2.4707 v -7.51171 l -14.9199,-2.46876 c -8.0256,-6.58511 -15.5372,-10.702 -22.3281,-12.45117 -1.7235,-0.43729 -3.3248,-0.68788 -4.8457,-0.77148 z m 99.6113,3.24023 c 2.1608,0.41157 2.7775,2.16136 2.4688,4.93946 -0.5144,5.55618 -2.8817,11.8331 -7.5117,17.49218 -4.5273,5.55619 -8.4365,10.39137 -12.4493,12.44922 -4.1157,2.05785 -4.1157,-1.85069 0,-7.50976 4.1157,-5.5562 4.1157,-6.48284 0,-4.93946 -4.1157,1.54338 -6.9972,0.10228 -4.9394,-4.93945 2.0579,-5.04173 7.4075,-10.90516 12.4492,-14.91797 4.5273,-2.16074 7.8217,-2.98579 9.9824,-2.57422 z m -104.7461,2.47071 c -2.0578,3.08676 -2.0578,8.43641 0,12.44921 -4.1157,-1.02891 -5.4519,-2.98254 -7.5097,-4.9375 1.0289,-2.05784 2.3651,-5.45387 7.5097,-7.51171 z m 12.4512,2.46875 14.918,7.51172 c -6.0706,2.05784 -10.9052,2.46875 -14.918,2.46874 4.0128,-1.95495 2.9839,-4.83585 0,-9.98046 z m 62.3516,29.9414 c 4.1157,3.08678 5.5575,5.45387 2.4707,7.51172 -3.0868,2.05785 -6.4829,6.7e-4 -7.5118,-2.46875 -1.029,-2.57231 0.9254,-2.98512 5.0411,-5.04297 z m -106.5567,9.69922 c -0.2958,-0.12861 -0.399,-0.1297 -0.6562,0.38477 -0.5145,1.02892 -2.5723,3.91052 -2.5723,4.93945 3.0868,-1.02893 6.8937,-0.51514 9.9805,2.46875 3.0867,3.08677 4.9394,4.01214 7.5117,2.46875 0.6174,-0.30868 -0.4116,-2.05718 0,-2.46875 -1.5434,0.51446 -4.9394,-2.47004 -7.5117,-4.93945 -2.5724,-2.57232 -4.0135,-2.46875 -4.9395,-2.46875 -1.0289,0 -1.5167,-0.25615 -1.8125,-0.38477 z m 14.2637,7.79297 c 1.5434,-1.4405 4.9375,-2.67583 4.9375,-4.93945 0,-3.08678 -0.9254,-2.98322 -2.4688,-2.46875 -1.5434,0.51446 -2.9832,0.4109 -2.4687,2.46875 0.5145,1.95494 1.5434,4.42499 0,4.93945 z m -9.9824,12.44922 c 3.6013,0.51446 7.9239,1.44178 12.4511,2.4707 4.5273,1.02893 5.9684,2.46875 4.9395,2.46875 h -22.4316 c -1.0289,0 -0.5145,-0.92536 0,-2.46875 0.5145,-1.54339 1.4398,-2.98516 5.041,-2.4707 z m 0,7.51172 h 17.4922 c -2.0579,1.02892 -3.9086,0.92731 -7.5098,2.4707 -3.6012,1.54338 -7.9245,2.46875 -9.9824,2.46875 -2.0578,1.02892 -4.0115,1.02892 -4.9375,0 -0.926,-1.02893 1.8508,-2.8816 4.9375,-4.93945 z m 163.0859,401.48633 c 4.1157,15.22809 12.2446,33.54308 24.9004,54.84178 12.6557,21.2988 9.7742,61.3248 -7.5117,117.1953 l 9.9804,152.1778 -272.04878,9.6718 c -6.1736,0.2058 -136.75837,4.5435 -134.18607,-1.0127 l 269.38725,-307.9736 z"
     sodipodi:nodetypes="ccccccccccccccccccccccscsccsssccsccscccccscsccssccccccsscccscscscscccscccccccsssccsscscscscssscccscsccscccscsccssscscccccccscccssssscccsccsccssscsccsccsssscscsssssscccscccccssscsccsscscccccccscccscsccccssccccsccccscccccssscscssssscccccccccssccccsscscccccccccsccsscccccsscssccssssssccscsccscccccc" /></svg>
