<?xml version="1.0" encoding="UTF-8" standalone="no"?>
<svg
   width="487.0293"
   height="1797.1442"
   version="1.1"
   id="svg1"
   xml:space="preserve"
   xmlns="http://www.w3.org/2000/svg"
   xmlns:svg="http://www.w3.org/2000/svg"><defs
     id="defs1" /><path
     id="path1"
     style="display:inline;fill:#000000;stroke:none;stroke-width:97.159"
     d="m 186.15039,0.01787231 c -2.56044,0.083437 -5.1442,0.4592378 -7.74805,1.12698999 -10.41609,2.671003 -19.79285,6.0102023 -28.125,10.0170627 -8.33288,4.006504 -11.1092,9.349812 -8.33398,16.027676 2.77739,6.677861 10.76427,9.346877 23.95703,8.01102 13.18984,-1.335501 12.1439,2.335313 -3.13281,11.016327 -15.27815,8.681073 -26.4166,32.346689 -25.02539,67.070932 1.03966,26.00483 14.48281,45.82022 31.59765,56.92802 0.57046,-1.08401 2.29206,-4.01062 4.47071,-7.67105 l -4.36914,7.74055 c -0.0343,-0.0222 -0.0673,-0.0473 -0.10157,-0.0695 -0.2898,0.5507 -0.30228,0.65625 -0.004,0.25733 l -16.43555,29.11766 c -4.05991,5.80041 -8.17286,11.36022 -12.37305,16.5536 -16.68342,23.44962 -27.59317,40.72825 -32.72656,51.8359 0,4.93678 1.92536,9.25783 5.77539,12.9604 11.55011,4.93674 18.6091,11.72347 21.17578,20.36282 3.84997,29.62053 6.73707,48.75077 8.66211,57.39009 1.92501,8.63935 9.9457,14.81206 24.0625,18.51457 l -28.87695,98.11762 c -23.10015,7.40514 -27.59143,17.89511 -13.47461,31.4712 14.11674,13.57611 28.23476,9.87289 42.35156,-11.10837 l 55.82617,-118.48045 c 6.41674,-8.63926 18.60745,-8.63926 36.57422,0 l -5.77539,79.60493 h -1.92383 c -21.8168,29.62052 -32.72656,53.06991 -32.72656,70.34859 -48.76707,140.69751 -62.88314,280.46923 -42.34961,419.31541 20.53347,138.8461 40.42559,270.2902 59.67578,394.3262 19.25011,124.036 26.30917,207.6525 21.17578,250.8493 -19.25011,53.07 -81.49438,102.4365 -186.728511,148.1015 C 23.740877,1750.8619 0,1769.9921 0,1797.1442 h 392.70312 c 30.80027,-18.5128 32.72557,-62.942 5.7754,-133.291 v -535.0215 c 0,-70.349 6.41866,-112.9303 19.25195,-127.7406 24.38357,-66.64617 20.53299,-134.52497 -11.55078,-203.63954 l 15.39843,-88.86317 H 487.0293 V 397.5711 c 0,-77.75391 -0.64033,-133.2911 -1.92383,-166.6142 -1.2832,-33.32309 -9.9465,-63.25224 -25.98828,-89.78729 C 443.0755,114.63456 389.4943,95.811375 298.37695,84.703655 249.02226,83.624919 215.36243,95.753813 197.38086,121.07538 190.76051,110.9411 190.37897,98.574051 200.27344,86.28332 216.93775,65.582371 225.27148,47.222641 225.27148,31.19605 223.88314,23.182767 218.32668,15.16877 208.60547,7.1554756 201.31458,2.1470758 193.83176,-0.23246539 186.15039,0.01787231 Z M 287.78906,119.87889 c 31.4419,0 65.13075,7.09752 101.06446,21.29072 35.93356,14.1932 54.54257,47.82368 55.82617,100.89378 1.2832,60.47523 1.92578,114.78053 1.92578,162.91391 V 656.75249 H 415.80273 V 434.59835 c -34.65006,-43.19662 -52.61703,-88.8617 -53.90039,-136.99502 17.96684,-24.68377 25.66816,-46.89938 23.10157,-66.64643 -2.5669,-18.51313 -12.83402,-28.08017 -30.80079,-28.69693 -17.96683,-0.61711 -31.44236,2.77912 -40.42578,10.18424 -3.85002,-17.27865 -19.89145,-29.00429 -48.125,-35.17523 -35.93361,-7.40515 -51.97502,-11.72621 -48.125,-12.96039 15.40016,-29.62053 38.81982,-44.4297 70.26172,-44.4297 z m -89.51172,74.05075 c 17.96683,2.46838 44.27552,8.02323 78.92578,16.66255 12.83338,24.68376 23.74119,37.02538 32.72461,37.02538 10.26677,0 18.60867,-3.70135 25.02539,-11.10649 8.98342,-6.17097 14.43826,-4.32122 16.36329,5.55231 1.92501,9.87352 -6.73811,25.30055 -25.98829,46.28172 1.28335,53.07017 14.75894,100.58683 40.42579,142.5492 -17.96678,-11.10765 -32.40601,-16.66067 -43.31446,-16.66067 -10.90844,0 -19.56959,3.08538 -25.98633,9.25635 0,-19.74706 -1.28492,-41.96269 -3.85156,-66.64643 -20.53353,-20.98126 -43.9532,-26.84499 -70.26172,-17.58856 -26.30852,9.25644 -40.10338,5.864 -41.38672,-10.18047 -6.41671,-12.34186 -8.34208,-24.06752 -5.77539,-35.17524 -2.56669,-12.34189 -9.62567,-20.98212 -21.17578,-25.9189 z m 13.47461,19.4387 c -10.26677,-0.61709 -16.68338,4.01106 -19.25,13.88451 0,11.10771 7.0571,15.73582 21.17383,13.88452 14.11681,-1.85128 31.4431,-5.24371 51.97656,-10.18047 -25.66684,-11.10766 -43.63362,-16.97145 -53.90039,-17.58856 z M 322.25977,487.5913 c 3.97035,0 8.20165,0.23028 12.69335,0.6931 21.81681,4.93676 32.08414,17.89613 30.80079,38.87739 5.13339,96.26671 1.92319,186.36495 -9.62696,270.28977 28.23357,69.11457 31.44381,131.43848 9.62696,186.97703 -14.11674,82.69061 -19.25037,209.19761 -15.40039,379.51571 -1.28329,193.7676 -1.92579,294.9718 -1.92579,303.6111 17.96676,49.3676 16.68382,75.9024 -3.84961,79.6049 H 154.00195 c 59.03376,-24.6839 107.15799,-59.8589 144.375,-105.5237 10.2667,-46.8993 12.83456,-107.9912 7.70117,-183.2768 -5.13332,-75.2854 -25.34666,-214.134 -60.63867,-416.5412 -35.29186,-202.40676 -24.70341,-375.81089 31.76367,-520.21099 2.24585,-22.67821 17.26425,-34.01626 45.05665,-34.01631 z" /></svg>
