<?xml version="1.0" encoding="UTF-8" standalone="no"?>
<svg
   width="1019.9379"
   height="1800"
   id="svg1331"
   sodipodi:version="0.32"
   inkscape:version="1.2.2 (732a01da63, 2022-12-09)"
   sodipodi:docname="US9A21VARA.svg"
   version="1.1"
   xml:space="preserve"
   xmlns:inkscape="http://www.inkscape.org/namespaces/inkscape"
   xmlns:sodipodi="http://sodipodi.sourceforge.net/DTD/sodipodi-0.dtd"
   xmlns="http://www.w3.org/2000/svg"
   xmlns:svg="http://www.w3.org/2000/svg"
   xmlns:rdf="http://www.w3.org/1999/02/22-rdf-syntax-ns#"
   xmlns:cc="http://creativecommons.org/ns#"
   xmlns:dc="http://purl.org/dc/elements/1.1/"><metadata
     id="metadata1338"><rdf:RDF><cc:Work
         rdf:about=""><dc:format>image/svg+xml</dc:format><dc:type
           rdf:resource="http://purl.org/dc/dcmitype/StillImage" /></cc:Work></rdf:RDF></metadata><defs
     id="defs1336" /><sodipodi:namedview
     inkscape:window-height="1017"
     inkscape:window-width="1920"
     inkscape:pageshadow="2"
     inkscape:pageopacity="0.0"
     borderopacity="1.0"
     bordercolor="#666666"
     pagecolor="#ffffff"
     id="base"
     inkscape:zoom="0.26124924"
     inkscape:cx="644.97796"
     inkscape:cy="945.4573"
     inkscape:window-x="1912"
     inkscape:window-y="-8"
     inkscape:current-layer="svg1331"
     inkscape:showpageshadow="2"
     inkscape:pagecheckerboard="0"
     inkscape:deskcolor="#d1d1d1"
     showgrid="false"
     inkscape:window-maximized="1" /><path
     id="path1769"
     style="display:inline;fill:#000000;stroke:none;stroke-width:33.5183"
     d="M 747.11212,0 C 743.65588,0 740.15949,0.14185086 736.79504,0.38932367 672.6758,5.1066458 654.18223,11.355491 618.82997,72.024878 c -10.3733,17.80206 -31.59095,49.373922 -47.10817,70.078252 -29.3601,39.1745 -32.87093,48.57912 -22.3861,60.15052 3.86857,4.26953 20.68717,12.8623 8.17577,32.1192 -7.67365,11.8111 3.35738,32.17647 4.47724,40.48966 1.46341,10.86287 7.60797,19.33621 -4.86654,35.81778 -16.52594,21.83437 -8.65706,29.45134 0.58405,35.42845 7.32512,4.73806 12.5821,7.39717 17.9089,7.39717 7.55744,0 3.40472,-16.09672 20.43949,-21.60747 19.89771,-6.43688 32.71935,-13.82098 42.04696,-13.82099 11.02104,0 25.78695,37.67022 27.05798,40.87899 1.96962,4.97328 -75.05004,22.03989 -102.19746,36.40177 -30.51242,16.14218 -53.81889,39.89912 -101.80821,103.94939 -47.65708,88.35367 -88.3865,165.68237 -116.21311,186.48604 -45.21872,33.80632 -89.4212,104.39729 -103.17077,119.71702 -50.95011,56.76827 -62.4697,62.64341 -86.23519,55.86795 -9.83436,-2.80373 -19.84229,-4.80402 -29.78326,-7.20248 V 229.5063 c -0.5399,-0.53989 -45.745536,-5.64519 -45.745536,-5.64519 -2.082721,2.5597 -4.986461,60.87337 -12.263698,226.78104 0,125.69229 -8.954439,255.89849 -8.954439,384.84644 -6.110854,-3.16014 -15.044579,5.83988 -21.023478,5.83988 -7.131443,0 -10.137341,2.38433 -15.767609,6.81313 -11.163265,8.78105 -11.13486,17.67487 0,25.30604 23.768305,16.28931 12.169937,19.53366 9.733096,43.79891 -2.160578,21.51505 -1.882477,22.8222 7.981133,35.23379 12.422351,15.63154 -4.87347,779.42156 -8.565121,814.47006 l 0.605069,30.4831 c 16.320132,0.1788 42.566613,0.878 58.288213,-0.9623 6.026063,-4.3553 5.436055,-24.688 7.291742,-36.4074 3.869858,-24.4405 18.298208,-796.0984 18.298208,-796.0984 44.76881,-4.03331 64.43813,-17.88329 143.66043,-62.48645 75.34887,-53.22934 106.66035,-107.49295 155.72947,-158.84405 59.78709,-81.95175 45.64819,-66.92932 102.19746,-127.50351 29.66231,-31.78768 34.58147,-57.6199 38.15373,-57.6199 0.13754,0 0.30199,-0.0588 0.3897,0 57.66739,38.76643 64.96498,149.79057 61.31848,216.65862 -12.37123,0.27707 -26.67486,0.88305 -36.59643,0.7784 l -60.15089,-7.78623 c -90.23016,0.80394 -133.3967,49.74169 -140.35118,58.78788 -12.86509,16.73454 9.18516,20.43949 21.41281,20.43949 24.87658,-14.39928 53.67642,-24.61576 86.04052,-28.42063 32.46609,-3.81687 47.59753,-12.03937 56.45194,8.75979 -17.95615,6.77595 -50.6753,6.17069 -70.46759,13.82099 -12.35346,4.775 -20.16775,16.56388 -18.10355,22.97009 3.78475,11.74607 2.40247,6.86994 9.34377,12.06903 6.26087,4.68953 28.70851,-5.44051 65.60104,-0.38969 37.20539,-1.04382 48.47025,-30.59026 71.24623,-41.65764 1.96015,0.18737 16.84651,3.96493 18.77417,4.15031 -23.0014,163.5736 -56.96832,274.694 -85.7164,476.9532 0.49335,0.4884 -17.98331,116.3204 -33.50327,198.6564 -18.01937,80.5024 -41.73381,164.3209 -64.85402,190.6533 -13.83294,15.7546 -27.41626,3.3813 -75.50771,22.0017 -44.44685,17.2095 -76.15583,36.5232 -77.67007,47.1082 -0.5402,3.7743 13.04234,24.7216 13.04234,24.7216 l 256.17498,-1.7521 c 1.33972,-17.2483 10.86745,-24.3607 3.89328,-51.5854 -11.16635,-43.589 15.61244,-154.5128 38.55358,-228.812 43.53526,-2.3342 53.74048,-1.3624 63.2651,-1.7521 l 105.50672,4.2827 c 66.63905,0 41.65763,0.3089 53.72666,1.1681 4.47724,39.8985 -2.12321,140.5446 -15.83089,174.7858 -14.41966,36.0196 -36.58958,10.498 -95.00551,39.0372 -53.29137,26.035 -54.47421,38.7041 -54.50531,57.0359 -0.008,4.9156 92.86653,8.1757 165.07324,8.1757 41.34452,0 75.94467,-0.9987 82.53661,-3.5043 9.95543,-3.7854 29.43318,-37.8549 12.45836,-73.7768 -19.95237,-42.223 -12.44527,-131.8068 -3.23547,-263.2671 3.14289,-14.0767 -0.12558,-56.4701 -0.19435,-42.047 2.33509,-96.0987 -5.5942,-350.852 -9.92772,-565.88193 29.18794,-2.37576 62.34473,-6.32077 107.06411,-12.45835 9.3607,-40.34926 9.7962,-53.49136 11.0957,-87.59783 1.3325,-96.96681 11.4587,-198.35949 -12.8479,-289.07283 -11.22677,-41.89888 -60.99366,-62.17989 -62.292,-67.3524 -1.61411,-6.43108 16.93655,-70.13597 16.54625,-116.99176 C 957.1529,159.67836 924.65427,75.568876 852.03484,29.588599 835.52327,19.134001 789.2783,0 747.11212,0 Z m 3.89329,38.932367 c 18.81593,0.200757 40.90946,4.469191 66.37963,14.98896 39.03625,16.12287 75.55556,77.499333 91.68573,134.900643 11.15968,39.7123 17.65111,108.69582 2.72526,175.77964 -5.60577,25.19505 -47.99587,45.90008 -68.3263,3.69858 -9.89355,-20.53677 -73.58641,-112.13224 -65.99036,-118.54905 60.93625,-51.47627 42.32701,-139.32556 -13.04235,-105.70138 -14.77042,8.96963 -15.17206,-13.08675 -15.18362,-20.05017 -0.0289,-17.41964 -81.75796,-43.070827 -81.75796,-44.966886 0,-5.691834 27.06176,-40.702606 83.50997,-40.100337 z M 643.74669,102.97611 c 3.06714,0 72.80353,29.19928 72.80352,29.19928 9.90638,16.40722 10.61727,49.24944 29.78327,49.24944 3.68368,0 20.32146,-18.66962 27.64197,-11.48505 19.57736,19.21382 -37.18041,71.07695 -37.18041,76.5021 0,9.66987 57.87349,103.0525 70.07826,132.37004 15.1617,27.64596 22.23831,38.98818 49.44411,47.88682 13.61746,4.45401 22.46067,7.77185 19.46618,14.21031 -15.40756,33.12781 -40.15708,322.72784 -40.68432,323.33331 -58.0931,4.94285 -119.3112,6.38616 -171.49713,8.75982 l 1.94659,-26.47401 c 3.49988,-93.33019 -5.9072,-132.01518 -47.49741,-194.46721 -14.16971,-21.27724 -26.71275,-44.50203 -29.97791,-50.80674 -31.55766,-60.9348 52.50502,-71.06542 80.39533,-81.56331 53.55298,-20.15738 56.82206,-23.00638 46.9135,-41.07365 -2.66908,-4.86701 -38.22407,-78.15978 -41.07365,-81.36864 -3.40111,-3.8301 -10.81631,-5.6452 -21.02348,-5.6452 -8.29397,0 -42.70759,6.61848 -47.49748,6.61848 -10.44617,0 -14.95106,-6.02596 -10.12242,-27.83665 3.89259,-17.58308 -0.49136,-18.88219 7.00778,-18.88219 11.35741,0 20.82882,-5.92011 20.82882,-13.04235 0,-7.88833 -5.64972,-12.42226 -19.46619,-15.37828 -6.08314,-1.30127 -11.3403,-3.91537 -11.87432,-6.03448 -0.53401,-2.11912 -2.86515,-9.51736 -5.06121,-16.3516 -3.99104,-12.41996 -3.97415,-12.42364 25.11137,-54.31065 16.00479,-23.04882 30.24574,-42.61266 31.53523,-43.40959 z m -1.36265,26.66867 c -1.32756,0 -2.56871,0.28803 -3.50389,0.58404 -7.03229,2.23224 -14.97891,10.45169 -15.18362,15.57295 -0.0584,1.45853 1.51513,19.60527 19.46618,21.21814 13.80645,1.24045 53.1719,-7.23183 54.69997,-8.75982 6.37428,-6.37441 -38.67112,-28.6153 -55.47864,-28.61531 z m 275.83583,403.14466 c 3.22302,35.93622 2.28097,76.80408 5.45048,111.54122 3.47548,38.09002 5.57168,75.37512 14.59964,102.00281 -29.27564,15.71353 -23.60349,10.57688 -41.26826,18.49256 -0.27209,-18.2952 -0.81229,-39.6989 -0.97375,-56.64658 -0.0514,-45.87718 6.9733,-109.51418 14.40499,-129.0608 1.03713,-2.72768 4.46407,-35.08191 7.78647,-46.32952 z M 767.94093,849.11491 c 24.92463,1.92726 47.02844,2.9615 67.54766,3.11459 16.78454,44.89857 29.96735,452.4777 20.34759,606.4288 0,0 -191.06845,-6.7682 -289.52297,-9.8011 18.67377,-88.572 44.61127,-309.6889 63.75139,-384.8355 9.68062,-38.0074 30.06365,-218.22352 30.06365,-218.22352 0,0 79.27761,5.97656 107.81268,3.31673 z"
     sodipodi:nodetypes="scsssssssssscccssscccccscssscccsccccsccccscscssscccccsssccsccccscsscscccccsscsssscsssssssccssscsscccsssssssssscssscscsscscscccsccccccscc" /></svg>
