<?xml version="1.0" encoding="UTF-8" standalone="no"?>
<svg
   width="2150"
   height="1798.3"
   version="1.1"
   id="svg907"
   xmlns="http://www.w3.org/2000/svg"
   xmlns:svg="http://www.w3.org/2000/svg">
  <defs
     id="defs911" />
  <path
     id="path905"
     style="fill:#000000;stroke:none;stroke-width:99.148"
     d="m 1436.1582,3.2597656 c -44.3159,0.5036966 -89.7471,10.0743014 -136.291,28.7109374 -62.0585,24.84885 -95.7283,86.299297 -101.0098,184.351567 -11.8835,25.52053 -23.1067,58.42919 -33.6699,98.72461 -5.2816,26.86367 -2.6413,40.63113 7.9219,41.30273 10.5628,0.6716 19.8041,3.02319 27.7265,7.05273 -6.6021,6.71593 -8.5804,12.08767 -5.9394,16.11719 2.6407,4.0296 7.2613,6.04492 13.8633,6.04492 2.6411,-2.68639 1.6528,-0.67095 -2.9688,6.04493 -4.6213,6.71599 -2.6431,11.0809 5.9395,13.0957 8.5826,2.01469 16.1754,17.79763 22.7773,47.34765 l -13.8652,84.6211 h 53.4785 v -66.48828 c 44.8934,-20.1477 68.66,-22.16308 71.3008,-6.04493 2.6408,16.1182 -22.1182,48.35637 -74.2735,96.71094 -16.5598,15.35296 -29.9646,32.25405 -40.8672,50.38282 L 674.86328,612.37891 359.5,611.42578 V 434.12305 C 358.56938,397.77598 326.60475,376.10258 315.17578,361.5918 L 83.474609,4.9746094 H 2.8828125 L 268.83398,434.12305 V 1798.1328 H 359.5 V 687.98633 l 313.89453,0.96094 c 174.08084,1.67866 352.69077,0.84961 528.37497,0.84961 -2.8985,18.19472 -3.963,37.28929 -2.9121,57.42187 3.9612,75.88979 19.1448,150.43723 45.5528,223.64063 30.2771,145.71952 34.4975,244.49372 39.1953,337.69532 l -321.45118,-244 C 913.65853,1019.8883 871.05918,997.55469 834.3594,997.55469 731.46934,998.88792 685.92241,1042.2221 697.71877,1127.5547 l 55.04883,399 c -77.98656,19.333 -114.03099,79.0007 -108.13281,179 -35.3888,7.3334 -67.82941,17.6667 -97.32032,31 -28.83524,12.6667 -57.99932,17.6667 -87.49023,15 -29.49062,-2 -50.13527,12.6669 -61.93164,44 h 1562.039 c -32.112,-63.9996 -77.9881,-89.3333 -137.625,-76 -58.9815,13.3333 -98.9586,-13.0004 -119.9296,-79 -20.3157,-65.3329 -54.7228,-79.3331 -103.2188,-42 47.1854,-92.6659 48.4975,-190.0007 3.9336,-292 -2.1992,-70.4196 -14.7782,-141.9591 -5.2441,-204.8945 13.3404,-109.5332 49.668,-243.1006 110.0234,-401.78911 47.5343,81.93412 52.1359,120.8612 95.709,175.93164 -23.7674,80.5909 -34.9886,189.39187 -33.668,326.39647 -17.1651,61.7863 -31.3606,110.8121 -42.584,147.0781 -11.2234,36.2661 0.3302,87.3074 34.6602,153.1231 14.5244,5.3728 29.0498,1.6797 43.5742,-11.0801 14.5244,-12.7606 17.8247,-21.1562 9.9023,-25.1855 -17.1648,-16.1182 -28.0581,-35.9303 -32.6796,-59.4356 -4.6215,-23.5059 0.9892,-55.4074 16.8339,-95.7031 17.1653,30.8933 21.7878,59.4371 13.8653,85.6289 -7.9223,26.1922 -3.9595,39.2891 11.8847,39.2891 30.3691,-61.7863 34.3296,-137.0065 11.8829,-225.6563 17.1649,-67.1594 23.1058,-117.5296 17.8242,-151.1094 l 23.7676,179.3164 c 7.9223,63.1295 12.8749,114.5068 14.8554,154.1309 1.9806,39.6236 32.6801,86.3003 92.0977,140.0273 18.4856,1.3433 32.0189,-6.38 40.6015,-23.1699 8.5829,-16.7895 8.2526,-26.5281 -0.9902,-29.2148 -21.1263,-10.7456 -38.6201,-26.8626 -52.4844,-48.3535 -13.8641,-21.491 -20.7967,-55.0722 -20.7968,-100.7403 29.0487,26.8638 45.2242,54.0643 48.5253,81.5996 3.301,27.5352 12.874,39.2871 28.7188,35.2579 3.9611,-69.8455 -24.4284,-143.7221 -85.166,-221.627 3.9609,-103.4246 4.2912,-178.979 0.9902,-226.66211 -1.9916,-28.76777 -7.362,-59.875 -15.3613,-92.79883 l 129.2461,254.98824 57.4375,-32.2363 -122.7988,-205.5078 142.6035,149.0938 35.6523,-50.3692 -172.3125,-139.02147 c 87.1459,-45.66822 130.0588,-92.67864 128.7383,-141.03321 -1.3204,-48.35455 -22.1165,-77.23444 -62.3887,-86.63671 -40.2716,-9.40228 -73.2835,-2.01517 -99.0312,22.16211 -25.7478,24.17729 -45.2219,76.56337 -58.4258,157.15429 l 0.5215,1.8086 c -100.6846,-151.70975 -119.1054,-218.2512 -136.836,-258.33203 -17.8252,-40.29549 -58.7581,-68.50294 -122.7968,-84.6211 -64.039,-16.11815 -113.8865,-59.10174 -149.5372,-128.94726 44.8935,-22.83403 75.2627,-50.70527 91.1075,-83.61329 15.8451,-32.9079 17.1669,-80.25464 3.9629,-142.04101 C 1576.4913,57.827596 1538.201,13.164835 1480.1035,5.7773438 1465.579,3.9304713 1450.9301,3.0918663 1436.1582,3.2597656 Z M 1422.293,50.041016 c 11.3059,-0.461716 22.9846,-0.4412 35.0332,0.0625 48.1944,2.014721 80.8739,35.257735 98.039,99.730464 13.2039,55.0705 4.9503,100.06945 -24.7578,134.99219 -29.709,34.92275 -51.8253,45.66809 -66.3496,32.23633 -15.8449,-13.43187 -12.2143,-39.28969 10.8926,-77.57031 23.1067,-38.28074 23.437,-70.51691 0.9902,-96.70899 -22.4463,-26.19202 -56.1163,-20.48409 -101.0097,17.125 -22.4468,-14.77502 -62.7193,-19.47631 -120.8164,-14.10351 14.5242,-38.95234 39.9413,-65.144324 76.2519,-78.576174 27.2332,-10.07384 57.8088,-15.802362 91.7266,-17.1875 z m 6.8086,106.783204 c 4.2914,-0.79757 8.7477,-0.777 13.3691,0.0625 18.4859,3.35789 24.7586,18.80462 18.8164,46.33984 -5.9418,27.53522 -16.505,52.38433 -31.6894,74.54688 -15.1845,22.1625 -5.6112,64.13757 28.7187,125.92383 34.3303,61.78643 80.215,103.76129 137.6524,125.92382 57.4367,22.16248 62.0572,111.48609 13.8632,267.9668 -40.4441,131.31642 -59.9192,230.75651 -58.9843,299.16991 -1.8859,77.9339 -3.1206,146.4957 -6.7383,214.7969 l -176.9453,40 c -37.0137,-127.157 -28.3184,-276.1348 -70.2657,-415.95314 -25.7472,-83.27731 -38.623,-153.12542 -38.623,-209.53906 0,-56.41369 22.7767,-105.77572 68.3301,-148.08594 45.5533,-42.31029 65.3593,-82.26983 59.4179,-119.8789 -5.9418,-37.6091 -31.0288,-48.6907 -75.2617,-33.24414 -44.2331,15.44666 -67.0114,5.70797 -68.332,-29.21485 22.4467,-20.14775 29.0494,-32.57231 19.8066,-37.27344 -9.2429,-4.70114 -23.7668,-5.0374 -43.5722,-1.00781 -2.6408,-10.74547 -14.5261,-17.46204 -35.6524,-20.14844 7.9223,-49.6977 19.1457,-85.29226 33.6699,-106.7832 17.1652,-13.4318 36.3131,-17.79683 57.4395,-13.0957 21.1263,4.70114 42.2522,6.38026 63.3789,5.03711 l -3.9609,-14.10352 c -13.204,2.6864 -30.6998,0.67102 -52.4864,-6.04492 -21.7864,-6.71592 -41.9245,-3.35765 -60.4101,10.07422 3.9614,-13.43187 7.9236,-24.17726 11.8847,-32.23633 52.8155,-9.40228 99.0287,-6.04397 138.6407,10.07422 2.6408,20.14774 10.5637,18.80478 23.7675,-4.0293 9.9029,-17.1256 21.2921,-26.88465 34.1661,-29.27734 z m 4.9511,8.37305 c -4.2914,0.1679 -9.4077,2.09925 -15.3496,5.79296 -11.8831,7.38753 -21.1264,20.1483 -27.7285,38.28125 -6.6019,18.13296 -6.6019,30.55756 0,37.27344 -9.2426,8.05908 -13.8633,16.11866 -13.8633,24.17774 0,8.05919 4.9507,12.76038 14.8535,14.10351 9.9031,1.3432 21.4563,-8.39556 34.6602,-29.21484 13.2041,-20.81935 20.7967,-38.61755 22.7773,-53.39258 1.9804,-14.775 0.3323,-25.52044 -4.9492,-32.23633 -2.6408,-3.35795 -6.1092,-4.95305 -10.4004,-4.78515 z m -4.455,19.64453 c 3.9612,-0.1679 6.2713,2.60203 6.9316,8.31054 1.3198,11.41707 -0.9902,23.1711 -6.9316,35.25977 -5.9419,12.0886 -12.2145,20.81866 -18.8165,26.19141 -6.6015,5.37272 -7.2619,2.0144 -1.9804,-10.07422 5.2817,-12.08861 4.2916,-15.78121 -2.9707,-11.08008 -7.2619,4.70114 -9.9024,2.01332 -7.9219,-8.06055 1.9806,-10.07387 6.9312,-20.48303 14.8535,-31.22851 7.2621,-6.04432 12.8748,-9.15051 16.836,-9.31836 z m -169.3438,39.54101 c -12.5433,0 -23.107,4.02882 -31.6894,12.08789 l -13.8633,20.14844 3.9629,14.10352 7.9218,-4.0293 c 26.408,6.71587 52.8172,-6.9e-4 79.2246,-20.14844 H 1337.5 l -3.9629,-16.11914 -29.709,6.04492 c -16.5049,-8.05907 -31.0304,-12.08789 -43.5742,-12.08789 z m 7.9238,10.07227 27.7285,10.07422 c -9.2425,4.02954 -18.4857,7.38787 -27.7285,10.07422 6.602,-6.71595 6.602,-13.43257 0,-20.14844 z m -23.7675,4.03125 c -2.6404,6.71587 -1.3206,12.76009 3.9609,18.13281 -6.6021,0 -12.5427,-1.34297 -17.8242,-4.0293 1.3204,-5.37274 5.9408,-10.07403 13.8633,-14.10351 z m 148.5468,22.16211 c 9.2425,2.68634 11.8829,6.71516 7.9219,12.08789 -3.9614,5.37274 -7.9238,6.04522 -11.8848,2.01562 -3.9609,-4.02948 -2.639,-8.73077 3.9629,-14.10351 z m -159.4394,58.42773 c -1.9804,1.3432 -2.3109,4.03102 -0.9903,8.06055 1.3205,4.02954 0.3303,6.71539 -2.9707,8.05859 -3.3007,1.34313 -7.2612,0.3364 -11.8828,-3.02148 -4.6212,-3.358 -8.2534,-5.03711 -10.8945,-5.03711 -2.6411,1.3432 -4.2913,3.02231 -4.9512,5.03711 -0.6604,2.01421 -0.3293,4.36346 0.9903,7.04883 2.6412,-4.02665 7.5928,-3.35397 14.8535,2.01757 7.262,5.3728 13.2027,5.3728 17.8242,0 4.6216,-5.37268 5.9435,-10.74634 3.9629,-16.11914 -1.98,-5.37268 -3.9609,-7.38812 -5.9414,-6.04492 z m 19.0625,43.31836 c 1.8155,0 2.3946,0.33621 1.7344,1.00781 l -39.6133,12.08789 c -3.961,0 -5.6111,-1.34295 -4.9512,-4.02929 0.6604,-2.6864 4.2907,-4.36551 10.8926,-5.03711 6.6021,-0.6716 14.1951,-1.67836 22.7773,-3.02149 4.2914,-0.6716 7.3446,-1.00781 9.1602,-1.00781 z m 1.7344,7.05274 c -1.3208,2.68639 -4.9511,6.04274 -10.8926,10.07226 -5.9419,4.0296 -10.8945,7.38782 -14.8555,10.07422 -3.9616,1.34313 -6.9317,1.34313 -8.9121,0 -1.9812,-1.3432 -1.6527,-3.35657 0.9883,-6.04297 z m 774.3144,324.52148 c 10.3981,-1.34318 21.2083,0.50405 32.4316,5.54102 22.4467,10.07387 28.3876,28.54257 17.8243,55.40625 -10.5632,26.86355 -47.5335,59.09982 -110.9121,96.70898 1.3203,-80.59099 11.5513,-128.61009 30.6972,-144.05664 9.5728,-7.72328 19.5608,-12.25643 29.959,-13.59961 z M 827.47852,1116.5547 h 79.625 l 361.75588,255 -404.02542,124 c 9.17493,-189.9986 -3.27713,-316.3338 -37.35546,-379 z m 725.47848,240 c 27.5247,107.3327 11.14,200.6671 -49.1523,280 -91.0938,55.3329 -201.5219,63.9996 -331.2813,26 -129.7593,-38.6664 -252.96849,-30.9997 -369.62106,23 11.79637,-41.9997 108.13503,-110.6673 289.01176,-206 z" />
</svg>
