<?xml version="1.0" encoding="UTF-8" standalone="no"?>
<svg
   width="1158.0178"
   height="1800"
   version="1.1"
   id="svg1"
   xmlns="http://www.w3.org/2000/svg"
   xmlns:svg="http://www.w3.org/2000/svg">
  <defs
     id="defs1" />
  <path
     id="path1"
     style="fill:#000000;stroke:none;stroke-width:98.7122"
     d="m 687.52817,0.19407746 c -2.55238,-0.33584523 -5.17139,-0.23605925 -7.85811,0.30127666 -4.35183,3.85244308 -8.18942,7.52779338 -12.25947,11.28314988 h -5.47281 l 0.80869,4.292627 c -54.22574,50.8812 -82.36309,92.773199 -83.82741,125.476059 -1.61201,36.00206 -5.10553,76.03623 -10.47898,120.09839 -111.76759,39.76349 -231.05819,99.94467 -357.87136,180.54626 -1.07471,33.31539 22.29911,75.2285 70.1227,125.73884 47.82368,50.51033 89.2009,92.96165 124.12824,127.35167 34.92735,34.39003 63.67368,77.37724 86.24216,128.96227 -2.14935,97.79663 4.56857,159.85907 20.15156,186.18908 13.26682,22.4162 49.2679,106.5697 96.11857,260.2056 C 487.3582,1154.6306 330.60609,1014.9443 143.09181,1021.1686 62.621457,1017.8356 -20.178302,1075.6412 4.4003347,1133.1914 160.16474,1352.6602 279.19223,1546.7979 304.56703,1594.1491 c 28.13558,67.316 -83.67339,96.9435 -140.67127,110.6457 -22.82877,5.2727 -78.989953,91.1893 -42.84698,91.0014 37.19089,-0.1935 168.79756,4.5149 182.97232,-1.5722 36.12403,-15.5117 91.40379,-17.0818 125.58028,2.7682 35.29002,6.4355 57.71293,-1.4434 67.26851,-23.6356 12.86939,-55.5433 10.32948,-39.9225 10.32948,-39.9224 34.9509,45.5626 86.40928,67.3465 211.99229,66.5436 202.32057,-10.265 218.04797,-361.9436 193.10247,-488.5553 -2.322,-50.1105 -7.94463,-93.9649 -2.1021,-137.3662 65.5561,18.2693 125.20107,24.7181 178.93567,19.3452 53.7343,-5.3735 76.034,-30.6308 66.8992,-75.7678 -9.135,-45.1369 -55.0773,-160.12673 -137.8283,-344.97307 -27.94197,-58.03314 -84.36497,-87.05084 -169.26542,-87.05084 v -78.98884 c 29.01649,-11.82156 56.96014,-33.85443 83.82745,-66.09512 26.8671,-32.24062 40.3008,-76.84006 40.3008,-133.79854 0,-56.95851 -25.2552,-95.10906 -75.76542,-114.45343 -6.15798,-2.35838 -12.39889,-4.49807 -18.70861,-6.44912 h 13.87231 L 945.65653,11.778504 H 705.84941 C 700.17118,5.1327607 694.09592,1.0582677 687.52817,0.19407746 Z M 715.13462,60.141336 H 890.84687 L 855.38231,243.9133 H 752.21203 Z m -42.21044,10.003291 9.98064,53.022413 c -7.56979,20.54468 -23.0621,40.91397 -46.75904,61.10028 0,-39.76342 6.7157,-70.39335 20.14928,-91.887116 4.93597,-7.897562 10.60497,-15.208563 16.62912,-22.235577 z m 20.41658,108.461853 18.93288,100.57431 c -51.33966,14.42758 -89.1049,60.09785 -113.20528,137.21906 -15.04562,19.34442 -32.23956,45.67353 -51.584,78.98885 -9.67216,22.56846 -9.94126,35.19712 -0.80643,37.88384 9.13483,2.68673 16.92684,6.71616 23.375,12.08957 -7.52279,5.37347 -10.7472,9.94101 -9.67258,13.70243 1.07472,3.76136 4.83505,6.18084 11.28316,7.25555 3.22412,-1.07471 2.15002,1.0734 -3.22343,6.44687 -5.37346,5.37347 -4.56622,9.94099 2.41926,13.70243 6.98549,3.76137 10.47673,15.31372 10.47673,34.65814 0,18.26966 10.20922,27.40485 30.62829,27.40485 23.64318,0 40.83941,-1.07409 51.58626,-3.22344 l 6.44688,49.97341 C 638.83152,683.46082 593.15799,676.47379 532.97551,674.32437 478.16635,611.99248 412.61039,541.6021 336.30754,463.14982 c 44.06224,-7.5228 142.93439,-69.31848 296.6148,-185.3848 26.75046,-34.67657 46.68367,-67.67883 60.41842,-99.15854 z m 75.21723,122.8348 c 26.44741,0 56.46371,4.1987 90.04775,12.59473 53.73429,13.43357 80.60169,45.40658 80.60169,95.91696 0,49.43563 -18.0012,91.34656 -54.00327,125.73658 -36.00209,34.39004 -58.83765,44.06337 -68.50986,29.0177 -11.82148,-16.12031 -2.95546,-38.68913 26.59842,-67.70571 29.55386,-29.01654 36.80768,-57.49605 21.76216,-85.43798 -15.04576,-27.94186 -46.74962,-30.08996 -95.11055,-6.44686 -16.12031,-18.26972 -54.80902,-32.24156 -116.06628,-41.91371 11.82158,-30.09126 35.46443,-49.16652 70.92915,-57.2267 13.29924,-3.02258 27.88236,-4.53501 43.75079,-4.53501 z m -130.79936,89.16657 c 50.5104,3.2241 91.34721,16.11954 122.51312,38.688 -1.07463,19.34436 6.71738,20.41845 23.375,3.22343 16.65771,-17.19501 32.77764,-22.29848 48.36056,-15.31301 15.58302,6.98541 17.46426,22.03127 5.64271,45.13713 -11.82155,23.10578 -26.59837,42.71925 -44.3307,58.83956 -17.7324,16.12032 -21.76178,32.2402 -12.08958,48.36057 9.67222,16.12033 16.11881,30.09215 19.34287,41.9137 -1.07466,85.97508 5.91238,129.76724 20.95798,131.37927 15.04567,1.61202 44.59928,2.68605 88.66144,3.22343 44.0623,0.53733 45.6744,56.69138 4.8363,168.45896 -20.41906,54.80918 -33.85256,105.31951 -40.30089,151.53081 l -41.9137,-8.0597 c -27.94193,-55.8838 -75.76578,-103.70764 -143.47111,-143.47111 -12.89627,12.89625 -10.21,29.55435 8.05971,49.97342 l -30.62828,66.09279 c -3.22405,25.7926 6.98516,46.211 30.62828,61.2565 34.39001,15.0457 71.46649,24.1809 111.22998,27.405 l 51.58626,32.2411 c -6.10857,37.5241 0.94817,77.2323 2.70243,142.4472 L 661.8902,1293.4931 C 597.24405,1086.2545 567.37025,1005.0968 553.1248,985.44802 537.54181,963.95426 532.97649,901.08449 539.42464,796.83978 c 0,-59.10791 28.21046,-82.48165 84.63156,-70.12271 56.42112,12.35889 85.16743,-0.26977 86.24213,-37.88383 0,-47.28629 -19.88029,-68.77875 -59.64371,-64.48001 -39.76349,4.29876 -56.42149,-8.599 -49.97341,-38.69027 23.64318,-13.97095 31.97112,-23.91109 24.98557,-29.82185 -6.9854,-5.91079 -19.61186,-9.40429 -37.88158,-10.479 0,-10.74685 -9.13512,-19.88204 -27.40485,-27.40486 18.26973,-40.83818 36.00185,-69.31766 53.19686,-85.43797 17.19501,-8.59749 35.19622,-8.59749 54.00327,0 18.8071,8.59751 37.34422,15.04638 55.61386,19.34514 v -12.896 c -11.82155,-1.0747 -27.13418,-6.71635 -45.94128,-16.92587 -18.80704,-10.20954 -37.88236,-11.55266 -57.22672,-4.02984 6.44816,-11.82156 12.35889,-20.95669 17.73229,-27.40486 z m 178.48036,31.28294 c -2.51878,0.23509 -5.32111,0.82199 -8.41083,1.76236 -12.359,3.76141 -23.64445,13.16565 -33.85397,28.21127 -10.20947,15.04559 -13.16491,26.33112 -8.86614,33.85397 -9.67222,3.22407 -15.31386,8.86575 -16.92588,16.92587 -1.61199,8.06019 1.8815,13.7018 10.47899,16.92585 8.59746,3.22405 20.95479,-2.68669 37.07516,-17.73227 16.12032,-15.0456 26.86767,-29.01745 32.24114,-41.91371 5.37339,-12.89625 6.44748,-23.10548 3.22343,-30.62828 -2.41804,-5.64214 -7.40552,-8.11034 -14.9619,-7.40506 z m -170.62225,13.40114 c -8.06018,-0.50374 -15.51579,1.25924 -22.36696,5.28933 l -17.73229,14.50659 v 12.89826 h 8.05972 c 22.56846,11.82162 48.36169,11.82162 77.37827,0 l 27.40484,6.44687 v -16.11944 l -27.40484,-1.61285 c -16.79199,-13.4336 -31.90513,-20.56917 -45.33874,-21.40876 z m 167.85186,3.87809 c 3.76141,0.67168 5.37364,3.55978 4.83629,8.66453 -1.0747,10.20955 -5.64232,19.88289 -13.70243,29.01771 -8.06012,9.1349 -15.58302,15.5815 -22.56856,19.34286 -6.9855,3.76144 -6.9855,0.80606 0,-8.86615 6.98554,-9.67221 6.98554,-13.16344 0,-10.47671 -6.9855,2.68679 -8.3286,-0.26858 -4.02986,-8.86615 4.29875,-8.59746 10.20941,-16.65854 17.73228,-24.18141 8.06015,-3.7614 13.97088,-5.30637 17.73228,-4.63468 z m -177.32282,6.24753 c -4.29876,5.37345 -4.29876,11.28417 0,17.73227 -6.44817,-2.14933 -11.8207,-4.29971 -16.11944,-6.44913 2.14934,-4.29875 7.52185,-8.0591 16.11944,-11.28314 z m 20.95572,3.22343 22.56856,12.896 c -8.59752,2.14942 -17.19451,3.22344 -25.79201,3.22344 7.5228,-4.29876 8.5969,-9.67128 3.22345,-16.11944 z m 106.39595,48.36056 c 7.5228,5.37347 8.86595,9.94106 4.02986,13.70244 -4.83613,3.76142 -8.32964,3.49233 -10.47898,-0.80644 -2.14942,-4.29873 9.6e-4,-8.59723 6.44912,-12.896 z m -153.29544,17.58052 c -0.4366,-0.16792 -0.92374,-0.1169 -1.46109,0.15177 -2.1494,1.0747 -2.95437,3.22509 -2.417,6.44913 0.53731,3.22404 -0.80582,5.64129 -4.02986,7.25329 -3.22412,1.61211 -6.71763,-1.4e-4 -10.479,-4.83629 -3.76144,-4.83606 -6.71678,-7.25328 -8.86613,-7.25328 -2.1494,0 -3.76158,0.53586 -4.83628,1.61057 -1.07465,1.07466 -1.07465,3.22509 0,6.44914 3.22409,-2.14935 7.25349,-0.26807 12.08956,5.64271 4.83608,5.91077 9.94182,7.52295 15.31528,4.83628 5.37345,-2.68671 7.79061,-6.98741 7.25329,-12.89826 -0.40305,-4.43308 -1.259,-6.90131 -2.56877,-7.40506 z m -30.47652,38.43883 c 1.88073,-0.26868 4.29788,-0.13641 7.2533,0.40094 5.91076,1.07471 12.89552,2.15099 20.95571,3.2257 8.06013,1.07471 11.55369,1.61059 10.47898,1.61059 l -38.68799,1.61284 c -4.29876,-1.07463 -5.64415,-2.68686 -4.03212,-4.83629 0.806,-1.0747 2.15141,-1.74512 4.03212,-2.01378 z m 37.07515,10.0735 c -2.1494,2.14934 -6.17879,4.56882 -12.08957,7.25555 -5.91076,2.68675 -11.01653,4.56581 -15.31528,5.64045 -4.29875,0 -6.98502,-0.80499 -8.05972,-2.417 -1.0747,-1.61203 -0.53654,-3.49338 1.61286,-5.64271 z m 343.36479,369.15678 c 23.6431,56.95843 54.27077,111.22893 91.88477,162.81393 l -128.96227,-12.896 c 7.5229,-40.8382 19.8825,-90.81004 37.0775,-149.91793 z M 145.85992,1079.9062 c 192.44304,4.7918 424.11115,221.8998 481.58055,277.2334 l 246.36728,0.2695 c 0.62864,28.5578 33.49248,376.3811 -168.33664,382.0982 -183.54643,5.1991 -230.80334,-153.573 -279.46241,-275.6886 -48.97779,-122.9154 -134.6616,-229.9212 -165.34651,-254.0532 -25.88366,-20.3563 -84.56813,-32.7101 -84.56813,-32.7101 46.07134,57.216 100.07715,144.8316 145.32634,241.8346 55.42102,118.8091 86.25872,146.2203 101.26747,213.1634 33.75087,63.5617 39.38578,120.4562 6.54653,116.6824 -34.07477,-6.4442 -97.03279,-4.3211 -145.56419,5.4299 -36.09466,-5.6051 -71.1873,-6.3706 -107.75284,-7.2285 77.10228,-32.915 224.02441,-61.4533 177.61957,-166.9005 -34.01248,-64.7426 -166.15619,-253.3472 -280.561053,-443.2957 -15.38191,-55.0728 28.555953,-57.063 72.884033,-56.8348 z" />
</svg>
