<?xml version="1.0" encoding="UTF-8" standalone="no"?>
<svg
   width="1800.0957"
   height="473.79568"
   version="1.1"
   id="svg1"
   xmlns="http://www.w3.org/2000/svg"
   xmlns:svg="http://www.w3.org/2000/svg">
  <defs
     id="defs1" />
  <path
     id="path1"
     style="fill:#000000;stroke:none;stroke-width:40.6116"
     d="m 1608.9023,0.0059884 c -31.7811,0.4128417 -55.7432,22.1745996 -71.8828,65.2851566 -116.0709,-23.509946 -191.3626,-1.921588 -225.8769,64.763675 -27.8311,69.37424 5.0697,140.47619 98.7012,213.30468 -29.0036,53.72001 -20.4547,93.0006 25.6484,117.8418 46.2362,25.24268 83.2515,12.54007 111.0449,-38.10547 101.0332,50.77024 179.8786,25.10923 236.5371,-76.98242 40.6215,-110.15044 8.5362,-186.86806 -96.2578,-230.1543 19.9079,-54.273379 5.3976,-90.690654 -43.5273,-109.2499966 -12.3317,-4.6065704 -23.793,-6.840739 -34.3868,-6.703125 z M 407.31446,34.404426 c -1.87295,-0.04411 -3.80684,0.11881 -5.79883,0.488282 -40.36951,13.422034 -58.2478,32.56369 -53.63671,57.423828 5.5569,29.959664 20.44726,42.692064 44.66992,38.199214 35.90747,-12.59438 51.02286,-34.190001 45.34765,-64.787105 -7.27784,-20.574124 -17.47138,-31.01547 -30.58203,-31.324219 z m 170.53125,1.423828 c -1.81503,-0.06515 -3.67949,0.07889 -5.59179,0.433594 -40.25123,14.059449 -58.06995,33.520724 -53.45899,58.38086 5.55693,29.959632 20.12759,42.751522 43.71289,38.376952 36.54471,-12.71262 51.97968,-34.36776 46.30469,-64.964843 -7.9391,-21.028463 -18.26153,-31.770537 -30.9668,-32.226563 z m 171.32618,0.328125 c -1.87296,-0.04411 -3.80488,0.118811 -5.79688,0.488282 -40.36953,13.422064 -58.24781,32.561757 -53.63672,57.421875 5.55694,29.959654 20.4454,42.693984 44.66797,38.201174 C 770.31371,119.67332 785.43094,98.0777 779.75587,67.480598 772.47812,46.906456 762.2826,36.465135 749.17189,36.156379 Z m 172.35351,0.572266 c -1.8748,-0.05406 -3.80683,0.105132 -5.79883,0.474609 -40.36968,13.421994 -58.24972,32.56174 -53.63867,57.421875 5.67519,30.597121 20.62504,43.651051 44.84766,39.158201 35.78921,-13.23181 50.90453,-34.82941 45.34765,-64.78906 C 944.90214,47.862346 934.64903,37.107087 921.5254,36.728645 Z m 690.9551,5.248047 c 5.176,-0.265533 10.7368,0.679671 16.6855,2.832031 24.0609,9.412661 31.1154,28.020663 21.1602,55.826177 -23.9281,-9.011003 -48.5959,-16.885222 -74,-23.625005 8.5735,-22.55763 20.6262,-34.236604 36.1543,-35.033203 z m -537.0293,11.958984 c -1.8748,-0.05406 -3.8088,0.103181 -5.8008,0.472656 -40.3698,13.422005 -58.2479,32.56368 -53.6367,57.423828 5.6751,30.59709 20.6232,43.6491 44.8457,39.15625 35.7892,-13.23179 50.9066,-34.82745 45.3496,-64.787109 -7.3811,-21.131908 -17.6341,-31.887177 -30.7578,-32.265625 z m -850.77541,7.191406 c -1.87481,-0.05406 -3.80683,0.103182 -5.79883,0.472657 -40.25122,14.059459 -58.13148,33.201149 -53.63867,57.423831 5.6752,30.59713 20.62509,43.64905 44.84766,39.15625 35.90758,-12.59443 51.02274,-34.19 45.34765,-64.787112 -7.38134,-21.131872 -17.63415,-31.887174 -30.75781,-32.265626 z m 1020.63871,8.951172 c -1.8132,-0.05519 -3.6756,0.09453 -5.5879,0.449219 -40.3694,13.422035 -58.2478,32.563727 -53.6368,57.423827 5.557,29.95966 20.1278,42.75156 43.7129,38.37695 36.5448,-12.71263 51.9798,-34.36774 46.3047,-64.96484 -7.8355,-20.470669 -18.1007,-30.898812 -30.7929,-31.285156 z M 60.146491,82.945442 c -1.874807,-0.05406 -3.806828,0.103181 -5.798828,0.472656 C 13.978151,96.840091 -3.9020079,115.98178 0.70899094,140.84193 6.3841923,171.43904 21.333886,184.49098 45.556648,179.99818 81.345611,166.76634 96.461016,145.1707 90.904304,115.21107 83.523062,94.07917 73.270145,83.323892 60.146491,82.945442 Z M 1447.7949,93.017708 c 15.0667,-0.04503 31.2076,1.788562 48.4239,5.501952 68.8652,14.85359 132.9332,36.75538 192.205,65.70313 59.2719,28.94779 79.1281,83.86811 59.5684,164.76367 -48.6981,68.26218 -103.3876,89.49043 -164.0703,63.68359 -60.683,-25.80685 -119.1094,-59.93571 -175.2774,-102.38867 -56.1676,-42.45301 -78.6451,-91.15947 -67.4316,-146.11914 25.8537,-33.96085 61.382,-51.009453 106.582,-51.144532 z m -2.8789,271.480472 c 21.9092,15.02695 44.0235,28.6507 66.3399,40.86914 -14.6335,25.78953 -33.1095,32.57586 -55.4258,20.35742 -22.7177,-12.08549 -26.356,-32.49556 -10.9141,-61.22656 z" />
</svg>
