<?xml version="1.0" encoding="UTF-8" standalone="no"?>
<svg
   width="12.078"
   height="17.969126"
   id="svg2214"
   sodipodi:version="0.32"
   inkscape:version="1.2.1 (9c6d41e410, 2022-07-14)"
   sodipodi:docname="US9A241VARA.svg"
   inkscape:output_extension="org.inkscape.output.svg.inkscape"
   sodipodi:modified="true"
   version="1.0"
   xmlns:inkscape="http://www.inkscape.org/namespaces/inkscape"
   xmlns:sodipodi="http://sodipodi.sourceforge.net/DTD/sodipodi-0.dtd"
   xmlns="http://www.w3.org/2000/svg"
   xmlns:svg="http://www.w3.org/2000/svg"
   xmlns:rdf="http://www.w3.org/1999/02/22-rdf-syntax-ns#"
   xmlns:cc="http://creativecommons.org/ns#"
   xmlns:dc="http://purl.org/dc/elements/1.1/">
  <metadata
     id="metadata2221">
    <rdf:RDF>
      <cc:Work
         rdf:about="">
        <dc:format>image/svg+xml</dc:format>
        <dc:type
           rdf:resource="http://purl.org/dc/dcmitype/StillImage" />
      </cc:Work>
    </rdf:RDF>
  </metadata>
  <defs
     id="defs2219" />
  <sodipodi:namedview
     inkscape:window-height="1017"
     inkscape:window-width="1920"
     inkscape:pageshadow="2"
     inkscape:pageopacity="0.0"
     guidetolerance="10.0"
     gridtolerance="10.0"
     objecttolerance="10.0"
     borderopacity="1.0"
     bordercolor="#666666"
     pagecolor="#ffffff"
     id="base"
     inkscape:showpageshadow="2"
     inkscape:pagecheckerboard="0"
     inkscape:deskcolor="#d1d1d1"
     showgrid="false"
     inkscape:zoom="22.63"
     inkscape:cx="5.4794521"
     inkscape:cy="8.3517455"
     inkscape:window-x="1072"
     inkscape:window-y="-8"
     inkscape:window-maximized="1"
     inkscape:current-layer="svg2214" />
  <path
     id="path2216"
     style="fill:#000000;stroke:none;stroke-width:0.891928"
     d="m 3.5378861,0.01965365 c -0.2061101,0 -0.4003398,0.08678399 -0.5413625,0.21310613 C 2.850077,0.36457421 2.7412716,0.54662694 2.7141519,0.75533312 2.6924556,0.95854702 2.7636055,1.1948087 2.9371716,1.3705613 L 3.1637884,1.7170904 1.1332296,8.9923488 0.85085781,8.9867895 h -0.016187 c -0.2549257,0 -0.4830729,0.00565 -0.6240956,0.1649256 -0.1464467,0.1537835 -0.165438,0.1692586 -0.1708619,0.3724725 -0.00542,0.1977216 0.055047,0.3948002 0.190646,0.5540764 0.1247508,0.153783 0.3315419,0.259433 0.5593478,0.259433 0.010848,0 0.57932559,-0.0097 0.31127379,-0.0056 0,0 -0.38740981,0.788993 0.1432121,0.774898 0.530622,-0.01409 0.1720639,-0.763859 0.1720639,-0.763859 l 0.6625427,-0.02333 c 0,0 -0.3108206,0.731882 0.2009156,0.736429 0.5117361,0.0045 0.2297672,-0.754242 0.2297672,-0.754242 l 0.8452702,0.0055 c 0,0 -0.2853663,0.682646 0.2201501,0.697961 0.5055163,0.01531 0.2009155,-0.715773 0.2009155,-0.715773 l 0.6817772,-0.0041 c 0,0 -0.255444,0.678013 0.1816811,0.69796 0.4371251,0.01995 0.2490017,-0.706156 0.2490017,-0.706156 l 0.6433083,-0.01372 c 0,0 -0.2519948,0.698498 0.1912983,0.69796 0.4432931,-5.37e-4 0.1624466,-0.686921 0.1624466,-0.686921 l 0.6817773,-0.0041 c 0,0 -0.3102851,0.652109 0.1822042,0.642306 0.4924894,-0.0098 0.1822043,-0.646403 0.1822043,-0.646403 0.4051238,-0.0043 0.6190771,0.01985 1.3311501,-0.0049 -0.241466,0.848155 -0.47983,1.687789 -0.724814,2.523918 -0.311401,1.062792 -0.630932,2.201645 -0.920856,3.400433 0.730175,0 1.176836,0.0076 1.294954,0.0278 l -0.201437,0.837599 c 0,0.181331 -0.694041,0.334404 -2.1007028,0.485512 -0.1181164,0.09067 -0.1906992,0.230293 -0.2014372,0.431771 h 2.503577 c 0.311395,-0.01008 0.460427,-0.136258 0.460428,-0.378032 l -0.05755,-0.296496 0.460428,-1.052558 c 0.440251,0 1.184971,0.05806 2.2158087,0.189015 l 0.08633,0.457715 c 0,0.241775 -0.183604,0.409959 -0.575534,0.485512 -0.391936,0.07556 -0.9058087,0.146296 -1.4963907,0.216812 -0.06442,0.120886 -0.08633,0.247069 -0.08633,0.378032 h 2.7913437 c 0.300656,-0.04029 0.398578,-0.206052 0.25899,-0.513308 -0.04468,-0.307252 -0.08806,-0.683196 -0.08633,-1.106298 L 11.048616,10.788002 C 11.306321,10.052611 11.237176,9.4216824 10.818402,8.8978428 10.753979,8.0919353 10.735939,7.4610067 10.789625,7.007684 10.84332,6.5543606 10.779542,6.1758038 10.559411,5.8735887 10.339294,5.5713563 10.072359,5.3736881 9.7824393,5.2528012 L 9.7248853,4.8488261 C 10.336944,4.5667583 10.641878,4.116701 10.588188,3.4719751 10.545239,2.9884308 10.312884,2.6787622 9.9263233,2.5528391 9.7330403,2.4898776 9.5273693,2.4491372 9.3220113,2.4453595 c -0.205364,-0.00378 -0.41565,0.02613 -0.633088,0.081536 -0.434888,0.1108123 -0.687637,0.4582024 -0.805749,1.052559 -0.10738,0.1410337 -0.237942,0.3252753 -0.345321,0.5670476 -0.06442,0.1511076 -0.04102,0.2504047 0.02878,0.2705522 0.06979,0.020148 0.118971,0.049462 0.17266,0.079683 -0.05369,0.040296 -0.07366,0.079112 -0.05755,0.1093328 0.01611,0.030222 0.04338,0.025944 0.08633,0.025944 -0.04295,0.060443 -0.03758,0.1100914 0,0.1352761 0.03758,0.025185 0.07022,0.1041469 0.08633,0.2149592 0.01611,0.1108124 0.05261,0.1529982 0.143884,0.1630726 0.09128,0.010074 0.249106,0.00243 0.431651,-0.027797 l 0.02878,0.2705522 c -0.483535,0.038441 -0.856407,0.1723273 -1.1259,0.4076808 L 4.1619817,0.32170844 C 3.9884153,0.12398681 3.7656354,0.02514591 3.5486774,0.01965365 Z m 0,0.47809899 h 0.0054 c 0.081359,0 0.1685537,0.0273508 0.2661848,0.14268846 l 4.5880914,8.0869148 c 8.86e-4,0.00252 0.0028,0.00686 0.0036,0.00927 0.01314,0.1188752 0.02216,0.2405064 0.03057,0.3669133 L 8.3040343,9.1016815 3.2734997,1.0351507 C 3.1921403,0.94727447 3.1745231,0.8823255 3.1853711,0.81092601 3.1962188,0.73952658 3.2407863,0.65082243 3.3058737,0.59040749 3.3763855,0.52999252 3.4565269,0.4977526 3.5378861,0.49775264 Z M 3.4155849,2.1284779 4.0486732,3.2347767 2.2681124,9.0182921 1.4749534,8.9979084 Z m 5.7337664,0.5874317 c 0.151668,-0.00126 0.303974,0.021 0.489204,0.05374 0.3704537,0.06548 0.5720977,0.2950916 0.6043117,0.728267 0.03221,0.3425105 -0.06227,0.6310858 -0.2877667,0.8375998 -0.225498,0.2065138 -0.356486,0.261958 -0.431652,0.1612194 -0.08591,-0.090664 -0.03867,-0.263887 0.143884,-0.4855114 0.18254,-0.2216243 0.204442,-0.4135148 0.08633,-0.594844 -0.118118,-0.1813292 -0.339732,-0.1813293 -0.661865,0 -0.128856,-0.1007387 -0.386974,-0.1746641 -0.805748,-0.2149593 0.07517,-0.2216245 0.224192,-0.3612546 0.460427,-0.4317715 0.118112,-0.035259 0.251202,-0.052481 0.402875,-0.05374 z m -0.978409,0.6745273 c 0.354347,0.010074 0.637805,0.068129 0.863302,0.1890159 0,0.1410337 0.07065,0.151867 0.17266,0.025944 0.0051,-0.0063 0.02364,0.00586 0.02878,0 -0.0349,0.033999 -0.0568,0.082389 -0.08633,0.135276 -0.05906,0.1057758 -0.06099,0.1765169 -0.02878,0.2168124 -0.06442,0.040295 -0.10437,0.07987 -0.115107,0.1352761 -0.01074,0.055407 0.0219,0.1100915 0.08633,0.135276 0.06442,0.025185 0.128204,-0.014389 0.230214,-0.135276 0.102011,-0.1208861 0.169223,-0.2386643 0.201437,-0.324292 0.03221,-0.085628 0.03221,-0.1664435 0,-0.2168123 -0.03221,-0.05037 -0.09212,-0.056166 -0.17266,-0.025944 0.0588,-0.046874 0.09972,-0.081733 0.17266,-0.05374 0.118112,0.045333 0.156128,0.1612577 0.08633,0.3224389 -0.06979,0.1611812 -0.169655,0.312738 -0.287768,0.4336247 -0.118117,0.1208861 -0.132719,0.2217001 -0.05755,0.3224389 0.07517,0.1007386 0.111669,0.1899615 0.143883,0.2705521 l 0.05755,0.459568 C 9.3263023,5.6029584 9.1119883,5.6399211 8.8328073,5.3880751 8.7898583,5.0354903 8.6300853,4.8857865 8.3723793,4.9563034 8.1146683,5.026821 7.9982813,4.9275239 7.9982813,4.6857513 l 0.258991,-0.025944 -0.02878,-0.1093326 -0.287767,0.055593 V 4.4707924 c -0.0075,-0.04874 -0.05126,-0.075031 -0.115107,-0.1093328 -0.02853,-0.015327 -0.04654,-0.041296 -0.08633,-0.05374 0.107381,-0.2921417 0.209165,-0.4999014 0.316545,-0.6207875 0.10738,-0.070518 0.216465,-0.081351 0.345321,-0.025944 0.12885,0.055406 0.245242,0.097406 0.374097,0.1074796 v -0.081536 c -0.07517,0 -0.153549,-0.042 -0.287767,-0.1074796 -0.134225,-0.06548 -0.274025,-0.060443 -0.402875,0 0.04295,-0.080592 0.06486,-0.1386456 0.08633,-0.1890157 z m -0.345321,0.9710227 c 0.03221,-0.020148 0.07753,-0.035259 0.115107,0 0.03758,0.035259 0.08289,0.052981 0.115107,0.027797 0.03221,-0.025185 0.03415,-0.046278 0.02878,-0.081536 -0.0053,-0.035259 -0.01267,-0.058777 -0.02878,-0.05374 -0.01611,0.00504 -0.03415,0.028555 -0.02878,0.05374 0.0053,0.025185 0.01611,0.043666 0,0.05374 -0.01611,0.010074 -0.05412,-0.023518 -0.08633,-0.05374 -0.03221,-0.030222 -0.04682,-0.025944 -0.05755,-0.025944 -0.02147,0 -0.04682,-0.010074 -0.05755,0 -0.01074,0.010074 -0.01074,0.049461 0,0.079683 z m -3.503569,-0.78386 0.658268,1.1303892 -1.4532255,4.3121565 -0.9226542,0.00927 z m 5.086289,0.055593 c 0.02819,0.00252 0.06023,0.018481 0.05755,0.05374 -0.0053,0.070518 -0.03801,0.1462955 -0.08633,0.2168123 -0.04832,0.070518 -0.09556,0.1050543 -0.143884,0.1352762 0.0047,-0.012088 -0.01288,-0.034438 0,-0.055593 0.04295,-0.070517 0.01954,-0.099831 -0.02878,-0.079683 -0.04832,0.020148 -0.05562,0.00671 -0.02878,-0.05374 0.02684,-0.060443 0.07216,-0.1285734 0.115107,-0.1890159 0.05906,-0.030222 0.08692,-0.030315 0.115106,-0.027797 z m -1.120494,0.050033 c -0.03101,-0.00324 -0.06044,-0.00243 -0.08813,0.00371 -0.03691,0.00818 -0.08289,0.031074 -0.115107,0.05374 l -0.08633,0.1093328 v 0.079683 h 0.05755 c 0.161064,0.060443 0.335437,0.054648 0.517982,-0.025944 h 0.201437 V 3.8222121 H 8.6025953 C 8.4878193,3.7428784 8.3808643,3.6929458 8.2878473,3.6832256 Z m -0.08813,0.057446 c -0.03221,0.050369 -0.01417,0.1127031 0.02878,0.1630725 -0.05369,-0.020148 -0.11167,-0.043666 -0.143884,-0.05374 0.01074,-0.040295 0.05068,-0.079111 0.115107,-0.1093323 z m 0.143884,0.027797 0.17266,0.081536 c -0.06442,0.020148 -0.118971,0.043666 -0.17266,0.05374 0.05369,-0.030222 0.04295,-0.084907 0,-0.135276 z M 5.2105342,5.0674896 5.7123287,5.8958239 4.6583805,9.03497 3.8634229,9.0257046 Z m 4.5719051,0.4818051 c 0.5368917,0.4231018 0.7604377,0.9143994 0.6906417,1.4583873 -0.06979,0.5439872 -0.06787,1.1513975 0.02878,1.836419 L 9.3417983,9.1887771 c -0.02851,-0.025291 -0.0586,-0.052229 -0.08273,-0.070418 L 8.6295703,8.0324446 c -0.01659,-0.1013457 -0.03406,-0.2019874 -0.05576,-0.2964955 0.06875,-0.068794 0.09799,-0.113165 0.172661,-0.1890159 0.676898,-0.6875835 0.974605,-1.167991 0.863302,-1.4565341 -0.219919,-0.2815366 -0.456948,-0.2813604 -0.690642,-0.027797 -0.233699,0.2535638 -0.381692,0.4284158 -0.460428,0.5670476 -0.05478,0.073166 -0.137762,0.1644068 -0.201437,0.2427557 -0.09655,-0.2202837 -0.186867,-0.4359631 -0.316544,-0.6207874 -0.0071,-0.010096 -0.0216,-0.015949 -0.02878,-0.025944 l -0.02877,-0.109332 c 0.21235,-0.2218237 0.480916,-0.3826192 0.805749,-0.4317715 0.397299,0.2014773 0.760639,0.1568655 1.093516,-0.1352762 z m -3.850688,0.6986176 0.5017945,0.7949786 -0.7787706,2.008757 -0.654671,-0.011119 z m 0.723016,1.0951802 0.338127,0.5596353 -0.478414,1.1600386 -0.5179813,-0.00556 z m 0.532369,0.8950458 0.508989,0.8524246 -0.845317,-0.016678 z M 10.559411,9.168393 c 0.322133,0.3324366 0.369375,0.866493 0.143884,1.59181 l 0.719418,5.318388 c -1.095266,-0.171256 -2.5194187,-0.258625 -4.2589567,-0.268699 0.214753,-0.936868 0.492416,-1.868149 0.776972,-2.835238 0.238941,-0.812078 0.483212,-1.738524 0.744597,-2.735171 0.133514,-0.0073 0.260263,-0.01136 0.399278,-0.02224 0.325437,-0.01648 0.580902,-0.2573591 0.586326,-0.5429571 0,-0.085679 -0.01239,-0.1617702 -0.04496,-0.229784 z M 0.82927531,9.4648885 c 2.53770329,0.054828 5.07554819,0.1096231 7.61324699,0.1649256 -0.0132,0.046172 -0.02641,0.091048 -0.03957,0.1371292 -0.636525,0.021168 -5.7644751,0.1873468 -7.59705899,0.087096 -0.1099935,-0.00602 -0.2761361,-0.033242 -0.2751777,-0.2001345 9.761e-4,-0.166893 0.1650595,-0.1897128 0.2985588,-0.1890158 z"
     sodipodi:nodetypes="sccccccscccsczcczcczcczcczcczcccccccccccccccccccccccccccsscccccscssscccccsssccccccscsccccccscscccccscccccscscscscsccccccscccccsccscccccccscscsssscccccccccccsscccccccccccccccccccccccccccccccccccccccccccccccccccccccccccccccccccccccccccccsc" />
  <g
     id="g338"
     transform="matrix(0.58901257,0,0,0.57887398,11.486298,-0.29985548)" />
</svg>
