<?xml version="1.0" encoding="UTF-8" standalone="no"?>
<svg
   width="838"
   height="1797.3"
   version="1.1"
   id="svg4864"
   xmlns="http://www.w3.org/2000/svg"
   xmlns:svg="http://www.w3.org/2000/svg">
  <defs
     id="defs4868" />
  <path
     id="path4862"
     style="fill:#000000;stroke:none;stroke-width:100"
     d="m 535.21875,0.16796875 c -28.24357,0 -44.81089,12.22053425 -49.69922,36.66210925 -4.88826,24.441576 4.07461,39.921727 26.88672,46.439453 L 470.04102,311.39062 c -26.07105,-8.69032 -46.16728,-10.04685 -60.28907,-4.07226 -14.12178,5.97466 -36.935,4.07353 -68.4375,-5.70313 l -6.51757,6.51758 c 15.20805,29.32984 33.67454,41.82169 55.40039,37.47657 21.72584,-4.3452 36.93467,-2.98671 45.625,4.07421 8.69032,7.06087 25.52701,8.41935 50.51171,4.07422 h 30.96094 c -18.46698,14.12179 -29.33098,31.50112 -32.58984,52.14063 l -37.47656,61.91992 c -1.08633,5.43146 3.25849,9.77623 13.03515,13.03516 -4.34519,5.43146 0.54221,19.55312 14.66406,42.36523 1.08627,11.94919 -0.54159,23.89847 -4.88671,35.84766 -14.12186,14.12185 -15.20903,23.35604 -3.25977,27.70117 11.94919,4.34512 20.63885,-0.5443 26.07031,-14.66602 l 13.03711,-40.73633 c 21.72585,-1.08632 32.04532,11.95012 30.95899,39.10743 h 1.6289 c -79.29932,24.9847 -125.46649,56.48758 -138.50195,94.50781 -19.55331,54.31461 -45.62419,125.46543 -78.21289,213.45508 -44.6088,-39.18841 -150.55617,-115.59581 -202.15234,-140.09961 -0.15256,-6.11121 -5.79799,-12.44335 -9.58985,-20.78516 L 184.73633,432.36523 140.6875,416.60547 56.183594,709.54102 c -41.279093,0 -48.8815215,12.49191 -22.810547,37.47656 0,24.9847 -8.0714,30.96907 7.136719,53.78125 L -215.51953,1796.6934 h 45.625 L 85.386719,810.63867 107.66797,794.08594 c 98.01645,86.16241 208.53769,199.44955 242.75586,174.46484 34.21823,-24.9847 39.77313,-63.77168 52.80859,-99.07617 13.03552,-35.30457 26.07191,-81.74299 39.10742,-139.31641 24.98471,22.81211 27.59767,102.49093 54.75497,236.1048 -23.89844,11.94925 -25.52825,27.158 -4.88867,45.625 l -55.5555,48.0698 27.69922,6.5175 -252.35132,280.0533 189.86946,1.6276 c -12.56999,32.7818 -20.78207,61.4644 -19.71875,85.92 -13.03552,80.3856 -66.83565,171.0901 -91.82036,272.1152 -2.1726,21.726 -46.71192,41.2795 -133.61523,58.6602 -27.15731,0 -35.30433,10.8621 -24.44141,32.5879 h 200.42188 c 14.12171,-13.0355 17.38133,-39.649 9.77734,-79.8418 61.91861,-127.0962 106.15132,-134.8592 129.50967,-259.0801 16.4714,-28.2436 31.57201,-79.6268 53.29779,-110.043 h 55.79654 c -1.08627,22.8121 15.51717,71.4784 30.72531,101.8945 l 57.03125,254.1934 c -1.08633,22.8121 -45.62364,42.9084 -133.61328,60.2891 -27.1573,0 -35.30628,10.8621 -24.44336,32.5879 h 200.42188 c 27.1573,-4.3452 33.13194,-30.9588 17.92382,-79.8418 -1.08627,-158.5987 -14.66528,-254.7351 -40.73632,-288.4102 l 1.63671,-83.4375 c 7.58221,-230.0715 -2.19266,-359.24165 -29.33593,-387.4707 17.38065,-139.04539 37.47695,-221.06022 60.28906,-246.04492 0,47.79688 3.80219,105.9132 11.40625,174.3496 0,40.19276 2.71502,100.48153 8.14648,180.86722 -8.69032,30.416 -14.12232,52.4135 -16.29492,65.9922 -2.1726,13.5786 -3.25781,25.2565 -3.25781,35.0332 1.08633,8.6904 5.15984,19.8257 12.2207,33.4043 7.06093,13.5786 12.21965,25.7996 15.47852,36.666 1.08627,4.3453 3.25865,6.5195 6.51758,6.5195 2.17252,1.086 3.80234,0 4.88867,-3.2598 5.43146,4.3453 8.69107,3.8024 9.77734,-1.6289 5.43147,3.2587 8.68912,2.1716 9.77539,-3.2597 2.1726,1.08 4.34694,1.3505 6.51953,0.8105 2.1726,-0.5433 3.25782,-2.9867 3.25782,-7.332 -7.60407,-17.3807 -13.57871,-30.6884 -17.92383,-39.9219 -4.3452,-9.2335 -5.97494,-24.1711 -4.88867,-44.8105 0,-4.3453 0.81584,-6.5176 2.44531,-6.5176 1.62947,0 4.07316,1.63 7.33203,4.8887 1.08627,5.4315 1.62891,12.7645 1.62891,21.998 0,9.2333 1.35849,16.0219 4.07421,20.3672 2.71573,4.3453 6.24668,5.4325 10.5918,3.2598 4.3452,-2.1726 5.15909,-7.3333 2.44336,-15.4805 -2.71573,-8.1471 -3.25837,-20.0964 -1.6289,-35.8477 1.62939,-15.7513 -4.07392,-31.7739 -17.10938,-48.0683 4.34513,-16.2944 10.04845,-44.809 17.10938,-85.5449 7.06092,-40.73595 4.07269,-82.28697 -8.9629,-124.65239 4.3452,-55.40088 5.43237,-110.80225 3.25977,-166.20313 h 47.25391 C 833.94883,644.34062 812.76536,572.37389 771.48633,497.96289 730.20724,423.5519 695.98933,375.48366 668.83203,353.75781 h 17.92383 c 24.9847,5.43147 41.8214,4.61561 50.51172,-2.44531 8.69032,-7.06086 23.89915,-8.41934 45.625,-4.07422 21.72585,4.3452 40.19227,-8.6893 55.40039,-39.10547 l -6.51758,-6.51758 c -31.5025,10.86292 -54.04251,13.30663 -67.62109,7.33204 -13.57866,-5.9746 -28.51617,-5.16064 -44.81055,2.44335 L 681.86719,83.269531 C 704.67929,76.751805 713.36896,61.271654 707.9375,36.830078 702.50604,12.388503 686.21199,0.16796875 659.05469,0.16796875 c -30.41617,0 -49.42524,16.29599825 -57.0293,48.88476525 V 304.87305 h -9.77734 V 49.052734 C 584.64398,16.463967 565.63492,0.16796875 535.21875,0.16796875 Z m 3.25781,26.07226525 c 17.38066,0 26.07032,12.491855 26.07032,37.476563 V 304.87305 c -24.98471,-2.1726 -45.08101,1.08702 -60.28907,9.77734 L 538.47656,63.716797 C 520.00958,61.544266 511.59123,54.755731 513.2207,43.349609 514.85017,31.943554 523.26851,26.240234 538.47656,26.240234 Z m 114.06055,0 c 17.38065,0 26.6149,5.70332 27.70117,17.109375 1.08633,11.406122 -8.14792,18.194657 -27.70117,20.367188 l 35.84766,250.933593 c -14.12179,-8.69032 -33.67546,-11.94994 -58.66016,-9.77734 V 63.716797 c 0,-24.984708 7.60438,-37.476563 22.8125,-37.476563 z M 588.99023,353.75781 c 36.93397,0 68.97948,18.19518 96.13672,54.58594 27.15738,36.39076 51.86977,77.66851 74.13867,123.83594 22.26898,46.16735 38.2917,96.95257 48.06836,152.35351 h -14.66406 c -9.77659,-41.27909 -23.35567,-69.52235 -40.73633,-84.73047 -17.38065,-15.20805 -49.97069,-24.4423 -97.76757,-27.70117 -8.69033,0 -13.03516,3.80226 -13.03516,11.40625 v 61.91797 H 611.80078 V 497.14844 c 19.55325,-10.86286 26.34374,-30.41652 20.36914,-58.66016 -5.97459,-28.24357 -24.7143,-33.67557 -56.2168,-16.29492 -17.38065,-14.12179 -37.47695,-21.18359 -60.28906,-21.18359 11.94919,-31.50244 36.39228,-47.25196 73.32617,-47.25196 z m -79.84375,65.17578 h 16.29493 c 15.20805,0 32.04473,10.864 50.51171,32.58985 17.38066,-15.20806 28.24465,-17.3805 32.58985,-6.51758 4.34519,10.86292 2.44407,19.55259 -5.70313,26.07031 -8.14726,6.5178 -13.8505,15.20941 -17.10937,26.07227 v 175.97851 h 78.21289 v -65.17773 c 34.76129,0 57.84589,7.60438 69.25195,22.8125 11.40606,15.20805 2.17187,31.5021 -27.70117,48.88281 -29.87297,17.38065 -56.7578,102.11251 -80.65625,254.19336 l -91.89542,21.01885 C 502.5263,810.37996 499.09939,724.18204 475.74414,699.19727 c -23.35531,-24.98471 -27.97342,-43.45121 -13.85156,-55.40039 14.12178,-11.94919 41.82253,-23.8984 83.10156,-35.84766 16.29445,-10.86292 21.9977,-30.68791 17.10938,-59.47461 -4.88833,-28.78677 -24.71325,-41.00731 -59.47461,-36.66211 -11.94919,-13.03552 -19.55364,-27.15718 -22.8125,-42.36523 z m 4.88868,9.3711 c -7.60405,0.81471 -11.94886,6.38138 -13.03516,16.70117 4.3452,14.12179 19.55207,14.12179 45.62305,0 14.12178,-2.1726 14.12178,-3.8024 0,-4.88867 -14.12179,-8.69036 -24.98385,-12.62722 -32.58789,-11.8125 z M 628.0957,972.94336 c 23.89845,29.32984 32.04547,141.76244 24.44141,337.29494 L 288.794,1309.4455 c 0,0 167.18026,-179.7089 192.84884,-223.5468 14.10518,-24.0894 62.70588,-82.1592 62.70588,-82.1592 z" />
</svg>
