<?xml version="1.0" encoding="UTF-8" standalone="no"?>
<svg
   width="897.49011"
   height="1800"
   id="svg2241"
   version="1.1"
   xmlns="http://www.w3.org/2000/svg"
   xmlns:svg="http://www.w3.org/2000/svg"
   xmlns:rdf="http://www.w3.org/1999/02/22-rdf-syntax-ns#"
   xmlns:cc="http://creativecommons.org/ns#"
   xmlns:dc="http://purl.org/dc/elements/1.1/">
  <metadata
     id="metadata2248">
    <rdf:RDF>
      <cc:Work
         rdf:about="">
        <dc:format>image/svg+xml</dc:format>
        <dc:type
           rdf:resource="http://purl.org/dc/dcmitype/StillImage" />
      </cc:Work>
    </rdf:RDF>
  </metadata>
  <defs
     id="defs2246" />
  <path
     id="path2243"
     style="fill:#000000;stroke:none;stroke-width:100.072"
     d="m 847.00914,0.00388569 c -7.68843,-0.11650884 -12.93112,2.38702581 -15.72693,7.51266081 -3.72769,6.8341125 -2.48404,15.8442755 3.72874,27.0274475 11.18324,21.123785 18.01703,42.557984 20.50216,64.303016 2.48518,21.74503 -1.86341,47.52789 -13.04666,77.34966 -11.1831,-14.91092 -15.8427,-33.85992 -13.97881,-56.84751 1.8638,-22.987593 -4.03928,-33.859172 -17.70758,-32.616611 -13.66829,58.400971 -8.69789,106.239841 14.91101,143.517041 -17.39603,98.1633 -32.92911,177.68817 -46.59741,238.57428 -101.89104,-1.24257 -161.2233,-8.07643 -177.99804,-20.50216 -16.77478,-12.42573 -46.90819,-19.26151 -90.39827,-20.50412 -42.2475,-1.24257 -58.40044,-25.47296 -48.45982,-72.69071 22.36635,-7.45549 43.80055,-22.98654 64.30302,-46.59545 20.5024,-23.60884 31.37597,-56.53642 32.61858,-98.78399 1.24256,-42.24745 -17.0866,-70.82841 -54.9851,-85.73933 -37.89852,-14.91086 -80.14518,-19.57038 -126.74166,-13.97883 -46.59651,5.59155 -80.45677,38.83205 -101.58056,99.71816 -12.42573,14.91092 -26.09346,34.17079 -41.0043,57.77969 -7.45547,16.15341 -7.45547,25.47247 0,27.95767 7.45542,2.48511 13.04566,5.59016 16.77341,9.31789 -6.21287,3.72776 -9.00894,7.14564 -8.3877,10.25207 0.62131,3.10644 5.90265,5.28075 15.84321,6.52332 2.48518,-1.24257 0.31087,10e-4 -6.52333,3.72874 -6.8341,3.72776 -7.7668,7.14366 -2.79655,10.25009 4.9703,3.10643 7.45551,12.11463 7.45551,27.02547 0,14.91094 5.59221,23.61015 16.77539,26.09527 11.18317,2.48519 23.92011,2.17425 38.20972,-0.93219 14.28959,-3.10643 20.50166,2.4858 18.63778,16.7754 -1.86387,14.28954 -20.81288,20.81251 -56.8475,19.56996 -41.00495,-1.24257 -63.18282,10.29275 -86.79173,41.35708 -23.60885,31.06434 -60.00693,77.7122 -92.313889,123.06613 C 62.57494,633.86798 29.821771,688.759 0,763.31347 c 38.519759,12.42572 77.661376,14.91101 117.42375,7.45551 36.03464,-6.21287 87.60035,-20.50241 154.69932,-42.86868 8.69799,50.94548 12.42681,98.78435 11.18425,143.51704 -53.43068,150.35136 -91.32875,285.17066 -113.69501,404.45776 -19.88123,93.193 -13.51718,130.5031 41.15605,144.1714 54.67324,13.6683 117.05865,11.0198 207.67423,3.1454 28.44965,89.5764 22.84125,267.4538 -2.01021,280.5008 -24.85147,13.0471 -70.37432,27.9208 -101.43867,34.755 -31.06439,6.8341 -52.18969,6.8107 -63.37279,17.3726 -11.18317,10.5619 -13.35743,19.259 -6.52332,26.0933 6.83417,6.834 14.60071,12.1159 23.2987,15.8431 h 149.10819 c 22.36628,-7.4554 39.45189,-8.6993 51.25636,-3.7287 11.80443,4.9716 26.7157,6.8361 44.73305,5.5931 18.01726,-1.2425 27.02548,-14.9104 27.02548,-41.0043 -44.09358,-105.1287 35.22987,-289.4495 4.80115,-355.3648 34.33315,-1.5471 126.24132,-5.8466 157.73799,48.6111 47.14767,60.2867 -8.64696,50.0389 26.10709,98.2477 21.05907,24.0811 31.35101,0.5133 48.73178,-33.8679 18.49386,-36.5832 -1.02042,-85.5244 -13.06635,-98.3603 -38.26379,-40.7732 -59.49717,-71.1162 -63.69996,-91.0289 -4.20269,-19.9126 -14.63743,-37.3853 -31.30209,-52.4191 -16.66498,-15.0342 -35.04695,1.2393 -72.02853,30.833 l -51.97193,11.4879 -1.58041,-40.8804 v -266.5319 c 11.18317,-70.82654 -1.2429,-137.30359 -37.27754,-199.43232 -1.24257,-37.27719 4.66059,-86.0488 17.70757,-146.3136 13.04706,-60.26484 64.60662,-108.9651 77.03237,-108.9651 149.10886,8.69805 210.31267,6.83262 261.25809,-5.59312 16.15354,-64.61385 24.53987,-98.85431 25.16111,-139.85925 0.62132,-41.00489 -2.7946,-101.89164 -10.25008,-182.65897 13.66828,-39.76231 20.19121,-77.34949 19.56996,-112.76283 C 896.82829,78.344629 882.84968,40.755541 855.51311,0.99322348 852.40668,0.37192684 849.57195,0.04272197 847.00914,0.00388569 Z M 397.35116,129.77465 c 22.13334,-1.04843 48.11123,2.62147 77.93302,11.00885 39.76239,11.18317 59.64406,34.7917 59.64406,70.82633 -1.24262,36.03464 -15.53209,66.78993 -42.86868,92.26266 -27.33664,25.47277 -44.73311,31.9957 -52.18855,19.56996 -8.69799,-11.18317 -1.86418,-27.3361 20.50215,-48.45981 22.36629,-21.12378 28.26944,-41.93815 17.70758,-62.44062 -10.56187,-20.50241 -33.23968,-22.67674 -68.03175,-6.52332 -12.42574,-13.6683 -41.62648,-24.23098 -87.60174,-31.68641 9.94062,-22.36635 27.95891,-36.34494 54.05293,-41.93649 6.52351,-1.3979 13.4732,-2.27167 20.85098,-2.62115 z m -84.2218,63.1974 c 36.03457,3.72767 64.61356,13.66855 85.73735,29.82203 0,14.91085 6.52298,15.84157 19.56997,2.79459 13.04704,-13.04705 25.16219,-16.46296 36.34535,-10.2501 11.18317,6.21288 12.42679,17.70619 3.72874,34.481 -8.69799,16.77472 -20.19335,31.06424 -34.48296,42.86866 -14.28959,11.80449 -17.70557,23.60876 -10.25009,35.41318 7.45543,11.80448 11.80409,22.05623 13.04665,30.7542 -4.97031,60.88611 14.91143,92.57205 59.64406,95.05725 44.73269,1.24255 76.10777,8.38735 94.12504,21.43433 14.62365,22.0557 5.61531,47.48767 -20.27354,69.54335 -17.05835,13.79476 -35.17948,38.28582 -51.63279,85.36291 -2.53433,-3.50419 -6.12467,-4.98622 -11.03644,-3.93371 -8.69798,1.86388 -16.4646,6.52341 -23.2987,13.97883 -6.83417,7.45544 -20.19095,14.60016 -40.07213,21.43435 -19.88122,6.8341 -45.97494,8.38664 -78.28185,4.65895 11.18318,-14.91092 27.95784,-23.91905 50.3242,-27.02547 22.36627,-3.10644 31.06359,-9.62944 26.09329,-19.56998 -58.40093,-2.48518 -98.78419,9.94088 -121.15053,37.27753 l -22.36652,1.86241 -60.80881,-180.44181 c 18.6386,-22.36627 41.54893,-30.17284 118.5885,-30.17284 l 13.04664,-41.00628 c -2.48518,-34.792 -17.70535,-50.01229 -45.66326,-45.66325 -27.9579,4.34899 -39.45323,-4.03936 -34.48295,-25.16308 18.6386,-9.94061 25.47439,-17.08531 20.50413,-21.43434 -4.97031,-4.34903 -14.91117,-7.76698 -29.82203,-10.25207 1.24256,-6.21285 -4.97147,-13.04668 -18.63976,-20.50215 13.66829,-28.57922 27.33798,-49.08072 41.00629,-61.50646 13.66834,-6.21286 27.02513,-5.902 40.07211,0.93219 13.04705,6.83411 26.40579,12.11348 40.07409,15.84123 v -9.31791 c -8.69798,-1.24255 -19.88241,-5.9021 -33.55077,-13.97883 -13.6683,-8.07674 -27.33601,-9.63123 -41.00431,-4.66093 4.97025,-7.45543 9.94064,-13.66748 14.91103,-18.63778 z m 128.48975,26.26869 c -1.94152,0.0388 -4.07723,0.29083 -6.40705,0.75679 -9.3193,1.86388 -17.70761,8.69766 -25.16307,20.50215 -7.45544,11.80442 -9.9406,20.1928 -7.45551,25.16308 -6.21287,2.48512 -10.2506,6.52284 -12.11447,12.11446 -1.8638,5.59154 0.62139,9.94022 7.45551,13.04665 6.83418,3.10643 16.46411,-1.24222 28.88985,-13.04665 12.42572,-11.80448 20.81407,-22.36512 25.16308,-31.68442 4.34902,-9.3193 4.96883,-16.46606 1.86239,-21.43632 -2.32982,-3.72741 -6.40618,-5.53212 -12.23073,-5.41574 z m -125.84101,6.72632 c -6.11579,-0.40771 -11.96821,1.0208 -17.55977,4.28253 l -13.04664,9.31791 v 9.31987 h 5.59114 c 17.39602,9.94063 36.65597,10.56242 57.77969,1.86438 l 20.50216,5.59113 V 245.1606 l -20.50216,-1.86437 c -11.64913,-10.8725 -22.57146,-16.64965 -32.76442,-17.32917 z m 125.0251,5.21472 c 2.48515,0.62129 3.41783,2.79557 2.79656,6.52332 -1.24257,7.45542 -4.66046,14.91109 -10.25207,22.36651 -5.59155,7.45544 -11.18376,12.11497 -16.77539,13.97884 -5.59151,1.86384 -5.59151,-0.31045 0,-6.52332 5.59163,-6.21286 5.59163,-8.69809 0,-7.45552 -5.59151,1.24261 -6.52236,-1.24262 -2.79458,-7.4555 3.72769,-6.21286 8.69815,-12.42688 14.91102,-18.63975 5.59158,-2.48516 9.6293,-3.41588 12.11446,-2.79458 z m -131.40259,0.93021 c -3.72778,4.97027 -3.72778,9.32092 0,13.04861 -6.21286,-1.24259 -10.56156,-2.48613 -13.04664,-3.72873 2.48511,-2.48512 6.83378,-5.59213 13.04664,-9.31988 z m 16.77538,3.72874 14.91102,9.31987 c -7.45544,1.24249 -14.28929,1.8624 -20.50215,1.8624 6.21307,-2.48518 8.07622,-6.21199 5.59113,-11.18227 z m 76.41749,39.14191 c 4.97029,3.72767 5.59211,6.83272 1.86436,9.3179 -3.72769,2.48509 -5.90187,1.86528 -6.52332,-1.8624 -0.62124,-3.72779 0.93128,-6.2129 4.65896,-7.4555 z m -115.55939,8.38571 c -1.24249,0.62135 -1.86437,2.17584 -1.86437,4.66094 0,2.48507 -0.93075,4.34854 -2.79458,5.59113 -1.86385,1.2426 -4.34907,-9.6e-4 -7.45551,-3.72874 -3.10644,-3.72769 -5.28073,-5.59114 -6.52333,-5.59114 -2.48508,0 -4.03947,0.62178 -4.66092,1.86437 -0.62144,1.2426 -0.93021,3.10605 -0.93021,5.59114 3.72769,-2.48512 7.45482,-1.55244 11.18228,2.79655 3.72778,4.34923 7.45458,5.59062 11.18227,3.72677 3.72798,-1.86384 5.28238,-4.96887 4.66092,-9.31791 -0.62124,-4.34901 -1.55395,-6.21453 -2.79655,-5.59311 z m -22.36653,27.95768 c 1.24258,-0.31068 3.10797,-0.31074 5.59312,0 4.97031,0.62134 10.56054,1.55395 16.77341,2.79655 6.21286,1.24238 8.69811,1.86437 7.45551,1.86437 h -29.82204 c -1.2424,0 -1.86239,-0.93272 -1.86239,-2.79657 0,-0.9319 0.61981,-1.55369 1.86239,-1.86435 z m 27.95965,8.38769 c -2.4851,2.48507 -5.90304,4.35052 -10.25207,5.5931 -4.34903,1.24239 -8.38678,1.8624 -12.11446,1.8624 -1.2426,1.24259 -2.48616,1.24259 -3.72874,0 -1.2426,-1.2426 -0.62072,-3.10605 1.86436,-5.59114 z m -66.57339,245.74992 29.29585,95.33708 c -53.4307,4.97031 -107.41229,15.45108 -124.80833,17.93618 26.0941,-32.30688 66.93333,-84.69405 95.51248,-113.27326 z m 272.95673,95.7746 c -10.44089,38.03125 -19.90621,87.14055 -27.45314,152.39941 l -154.7013,31.6864 c -2.4851,-34.79201 -6.83368,-77.66244 -13.04664,-128.608 -1.24256,0 4.34966,-1.86345 16.77539,-5.59113 39.76238,2.48511 76.41871,-9e-5 109.96824,-7.45551 26.81059,-4.96493 49.58217,-19.21501 68.45745,-42.43117 z m -18.13326,182.22145 c 26.09402,44.73262 36.03293,101.27071 29.82006,169.61221 V 1240.462 H 219.93648 c 17.39605,-99.4059 49.082,-219.314 95.05723,-359.72477 z m -153.66269,432.41541 74.9926,0.8495 c -1.67545,13.9618 0.90746,33.2167 3.11667,45.3415 -11.33227,0.8163 -38.63597,0.01 -110.3337,0.6213 6.9721,-13.8848 17.74639,-28.9934 32.22443,-46.8123 z" />
</svg>
