<?xml version="1.0" encoding="UTF-8" standalone="no"?>
<svg
   width="1335.5986"
   height="1793.5226"
   version="1.1"
   id="svg856"
   xmlns="http://www.w3.org/2000/svg"
   xmlns:svg="http://www.w3.org/2000/svg">
  <defs
     id="defs860" />
  <path
     id="path854"
     style="fill:#000000;stroke:none;stroke-width:99.8878"
     d="m 1031.8789,0.07927835 c -69.36596,0 -131.02516,32.68336365 -184.97652,98.04883265 C 763.40622,228.85914 721.65824,300.63367 721.65824,313.45037 c 0,11.53512 10.2772,17.94296 30.83008,19.22461 l 9.63281,53.83008 c 0,56.39377 14.77358,84.5918 44.31836,84.5918 l 59.73242,7.68945 c 0,32.04184 -27.61949,55.11245 -82.85547,69.21094 -53.95145,0 -120.7482,35.8882 -200.39062,107.66211 -7.70733,-8.97177 -29.86673,-33.96487 -66.47657,-74.97852 -36.60988,-41.01372 -68.40319,-88.43729 -95.3789,-142.26758 0,-89.7174 -32.11398,-159.56935 -96.3418,-209.55469 -26.97565,-30.76023 -43.03168,-46.14062 -48.16992,-46.14062 -6.4228,0 -10.91924,4.48724 -13.48828,13.45898 h -3.85352 l -1.92773,-3.8457 c -5.1382,0 -7.70703,4.48535 -7.70703,13.45703 -8.99193,0 -13.48829,4.48718 -13.48829,13.45899 -8.9919,0 -13.48632,1.92257 -13.48632,5.76757 v 11.53516 c 74.5043,71.77392 111.75586,121.11804 111.75586,148.0332 v 13.45704 l -9.63477,-3.84376 C 299.0375,346.77444 281.05388,319.85874 270.77738,313.45037 h -7.70703 l -9.63477,9.61133 v 7.69141 c 23.122,37.16856 38.53684,70.49209 46.24414,99.9707 93.77266,119.19587 153.50613,217.88614 179.19727,296.06836 v 3.84375 l -80.92774,63.44336 C 381.24998,764.60074 316.37884,680.65074 203.33793,542.22967 198.19973,488.39925 191.13452,446.74531 182.14261,417.26678 175.71984,387.78824 133.97184,338.44217 56.898467,269.23162 46.62203,264.1049 41.484404,267.30978 41.484404,278.8449 c -8.991906,-1.28166 -13.488281,2.56347 -13.488281,11.53516 -8.991906,0 -13.488281,4.48529 -13.488281,13.45703 -10.276436,0 -15.09343656,2.56466 -14.45117176,7.69141 0.6422648,5.12672 2.89048556,10.25225 6.74414056,15.3789 69.3660602,67.92889 104.0488292,114.7103 104.0488292,140.34375 2.56913,14.09849 -1.92724,17.94353 -13.488285,11.53516 -19.268335,-44.85874 -33.076203,-69.85184 -41.425779,-74.97852 -8.34964,-5.12672 -17.021765,-3.84441 -26.013672,3.84571 0,12.81674 5.780766,23.71185 17.341797,32.68359 29.544779,78.18222 55.236749,119.83624 77.074229,124.96289 57.80502,103.81582 106.29761,182.32011 145.47656,235.50977 39.17894,53.18944 84.45957,99.00877 135.84179,137.45898 17.98383,0 71.93654,-26.91583 161.85547,-80.74609 l 80.92578,61.52148 c 52.66679,-12.8167 118.82235,-33.96475 198.46485,-63.44336 8.9919,17.94342 14.45213,65.36504 16.3789,142.26558 1.86409,28.95956 20.83692,151.04146 9.91602,159.41606 -34.32667,0 -228.365,-84.9225 -319.56641,-116.9453 -8.14119,-2.8588 -16.56327,-4.2559 -24.97656,-4.2559 -52.48285,0 -104.64881,54.3531 -86.51953,147.2422 15.37288,78.7654 103.31055,331.164 103.31055,331.164 -43.04596,44.5434 -93.80664,91.5198 -93.80664,154.8282 0,12.6121 -6.21848,21.8742 -33.75196,50.2695 -18.56318,19.1452 -34.06775,38.7092 -33.75195,43.4512 1.6676,25.0438 12.79338,30.4863 33.88086,30.4863 8.69769,0 19.0908,-0.9301 31.21289,-1.7852 68.27413,-4.8351 146.691,-16.2027 185.00586,-26.8203 38.47686,-10.6623 105.94659,-52.8906 109.46289,-52.8906 20.61568,0 325.2705,-141.0286 334.2851,-144.0254 10.8206,-3.5977 22.7344,-5.3535 34.2422,-5.3535 15.8424,0 30.9155,3.3269 41.3105,9.7519 28.8805,17.8491 49.2481,54.1118 11.0196,117.0684 -37.6298,61.9706 -33.6287,96.3379 -1.0528,96.3379 6.5086,0 14.1579,-1.3699 22.8438,-4.168 37.684,-12.1381 89.8668,19.0746 85.5488,-104.0703 -3.5531,-101.325 73.0525,-215.1975 62.75,-233.9394 -19.6537,-35.7544 -39.7065,-40.7774 -54.1582,-40.7774 -5.6468,0 -10.4387,0.7696 -14.0176,0.7696 -3.0373,0 -5.2003,-0.5559 -6.2715,-2.5938 -8.9091,-16.9877 46.622,-87.7435 17.4083,-167.543 -29.5942,-80.8383 -33.1559,-130.4553 -34.7168,-168.7461 l 22.1386,-370.62883 c 20.5531,-85.8723 1.2851,-139.38167 -57.8047,-160.52929 -59.0896,-21.14769 -89.5987,-43.57803 -91.5254,-67.28906 -1.9264,-23.71093 0.3215,-43.25661 6.7442,-58.63672 92.488,-73.05556 138.7324,-149.31536 138.7324,-228.7793 C 1252.1819,57.114965 1175.7491,-2.4840873 1031.8789,0.07927835 Z M 1006.8301,47.180841 c 44.9594,-1.922541 88.9572,4.485307 131.9902,19.224609 43.0326,14.739238 64.5488,49.02505 64.5488,102.85547 0,73.05557 -41.1069,135.85755 -123.3183,188.40625 h -7.7071 c 47.5287,-73.0555 71.293,-124.9624 71.293,-155.72266 0,-26.91516 -7.7086,-46.14066 -23.123,-57.67578 C 994.62714,139.14208 931.68363,121.19891 931.68363,90.438653 936.8218,63.523414 961.87059,49.103316 1006.8301,47.180841 Z M 877.73246,148.11248 c 26.97571,0 73.22001,16.66277 138.73234,49.98633 19.2683,-20.50679 35.9676,-29.47937 50.0977,-26.91602 14.1302,2.56331 24.4072,8.01088 30.8301,16.3418 6.4226,8.33092 8.9917,17.94367 7.707,28.83789 -1.2845,10.89422 -8.9929,26.5947 -23.1231,47.10156 -44.9592,56.3938 -67.4394,92.60217 -67.4394,108.62305 0,16.02094 13.4894,38.7714 40.4648,68.25 -6.4228,43.57696 5.4597,74.9779 35.6465,94.20313 30.1873,19.22514 45.2813,30.76053 45.2813,34.60546 -152.86224,71.77391 -244.70966,112.1474 -275.53904,121.11914 -24.40647,-10.25339 -48.1709,-30.76122 -71.29297,-61.52148 0,-5.12672 25.36946,-16.66205 76.10938,-34.60547 50.73989,-17.94349 76.11132,-50.30669 76.11132,-97.08789 0,-46.78113 -16.05803,-70.17187 -48.17187,-70.17187 -53.95138,0 -82.21212,-16.02062 -84.78125,-48.0625 h 36.61133 c 0,-19.22517 -12.84593,-26.27512 -38.53711,-21.14844 -3.8536,-32.04191 -10.27756,-48.70272 -19.26953,-49.98438 -21.83741,1.28166 -14.77226,-24.99386 21.19531,-78.82422 16.69921,-15.38018 37.25362,-23.07031 61.66016,-23.07031 23.12198,0 52.02399,7.69013 86.70703,23.07031 2.56911,0 3.85351,-1.92257 3.85351,-5.76757 -33.39842,-29.47861 -70.00886,-44.2168 -109.83008,-44.2168 0,-6.40837 8.9928,-16.6633 26.97657,-30.76172 z m 187.86714,36.5293 c -21.1953,-3.84503 -41.4269,24.35105 -60.6953,84.58984 -16.69914,11.53506 -23.76428,22.75024 -21.19528,33.64453 2.56926,10.89429 12.84431,13.13696 30.82808,6.72852 47.528,-32.04192 73.2202,-59.91792 77.0742,-83.62891 3.8536,-23.71097 -4.8167,-37.48891 -26.0117,-41.33398 z m 3.5527,17.54297 c 1.6459,0.16022 3.0303,0.72036 4.1543,1.68164 4.496,3.84493 5.46,11.85531 2.8906,24.03125 -2.5689,12.17592 -19.2682,30.43921 -50.0976,54.79101 l 5.7793,-19.22461 -5.7793,-7.68945 c 1.2846,-20.50679 8.3499,-35.24701 21.1953,-44.21875 9.6343,-6.7288 16.9199,-9.85175 21.8574,-9.37109 z m -204.90813,13.21679 c -15.41467,0 -29.54519,9.61275 -42.39062,28.83789 17.98368,28.19685 47.52895,35.24687 88.63477,21.14844 14.13014,-6.40837 35.96707,-10.8957 65.51171,-13.45898 v -5.76758 c -30.82915,-5.12668 -52.98679,-11.53452 -66.4746,-19.22461 -13.48797,-7.69003 -28.58203,-11.53516 -45.28126,-11.53516 z m 0,13.45703 c -10.27641,10.2534 -10.91768,19.86615 -1.92578,28.83789 l -25.04882,-15.3789 z m 21.19532,3.84571 c 12.84554,3.84507 23.12262,9.61271 30.83008,17.30273 l -32.75782,5.76758 c 6.42286,-6.40837 7.06605,-14.09857 1.92774,-23.07031 z m 115.61131,51.9082 c 14.1306,3.84502 16.6989,8.0102 7.707,12.49609 -8.99225,4.48585 -11.56069,0.32068 -7.707,-12.49609 z M 775.60941,713.33514 h 3.85352 v 3.84375 c -21.83734,14.0984 -57.80457,32.04158 -107.90235,53.83007 v -7.68945 c 53.95138,-33.32354 88.63406,-49.98437 104.04883,-49.98437 z m 425.83199,7.68945 c -4.5495,110.3015 -17.9029,227.29089 -18.943,313.82421 -0.1841,3.5111 -0.4473,7.8582 -0.625,11.3007 -2.0597,18.1721 -9.7594,35.4859 -36.955,39.4708 l -192.64257,81.4355 c -0.1172,0.05 -0.24351,0.026 -0.34961,0.074 -20.11978,9.0746 -19.68703,-26.5519 -24.07813,-117.5058 -3.69546,-76.46797 -3.61322,-157.74044 -17.35937,-228.62891 124.60178,-35.88704 221.58698,-69.21051 290.95308,-99.9707 z M 545.34183,1121.4191 c 12.98199,0 32.14944,10.2856 49.64063,19.5527 44.63325,23.6474 199.89364,77.8564 239.25,103.502 L 618.5391,1442.173 c -0.055,0.051 -0.1177,0.076 -0.1875,0.076 -5.8921,0 -61.48173,-182.3521 -84.5625,-274.5918 -8.77819,-35.0811 -1.96786,-46.2383 11.55273,-46.2383 z m 590.50387,60.9609 v 0 c 1.1382,0 2.2645,0.023 3.3769,0.062 12.2957,0.4448 62.2051,-2.1329 72.3008,84.6465 6.2163,53.4332 -16.177,123.5008 -56.1992,170.2422 -46.6881,54.5262 -306.51741,5.66 -441.39448,153.9394 -0.3083,0.3437 -0.74803,0.4942 -1.30273,0.4942 -10.46949,0 -62.39453,-57.2793 -62.39453,-57.2793 26.57927,-66.6671 348.87779,-352.1094 485.61324,-352.1094 z m -557.57809,405.9531 c 12.06229,0 24.33938,11.634 47.81446,36.0079 27.60057,28.6571 25.9375,16.651 25.9375,25.9394 0,35.7184 -127.75834,82.0586 -154.69141,82.0586 -2.7319,0 -4.4271,-0.4754 -4.8457,-1.4883 -11.69269,-28.2943 7.49382,-77.8029 46.02148,-115.3301 18.33628,-17.8598 28.96338,-27.1875 39.76367,-27.1875 z" />
</svg>
