<?xml version="1.0" encoding="UTF-8" standalone="no"?>
<svg
   width="1363.5048"
   height="1798.3344"
   version="1.1"
   id="svg4"
   xmlns="http://www.w3.org/2000/svg"
   xmlns:svg="http://www.w3.org/2000/svg">
  <defs
     id="defs8" />
  <path
     id="path2"
     style="fill:#000000;stroke:none;stroke-width:100"
     d="M 1074.8486,0.01208306 C 1055.7329,0.15439121 1036.214,1.5550212 1016.2919,4.2113018 936.60372,14.836359 885.37442,77.068345 862.60642,190.90857 c -19.7323,24.28591 -41.7414,57.67933 -66.0274,100.17969 -12.143,27.3217 -12.5227,42.87916 -1.1386,46.67383 11.384,3.79466 21.631,9.48685 30.7382,17.07617 -10.6251,6.07146 -14.8002,11.76358 -12.5234,17.07617 2.2768,5.31252 6.0722,8.72823 11.3848,10.24609 5.3125,1.51787 4.553,4.55383 -2.2774,9.10743 -6.8304,4.55366 -5.6912,9.4863 3.416,14.79882 9.1073,5.31253 12.9007,16.69683 11.3829,34.15235 -1.518,17.45551 3.037,29.21955 13.6621,35.29101 -6.0715,42.50036 -17.076,75.89378 -33.0137,100.17969 -15.9376,24.28591 4.9323,31.87477 62.6113,22.76758 l 27.3223,-113.83984 c 57.6791,0 78.1692,23.52612 61.4726,70.58007 -74.3755,177.59076 -110.0454,440.9426 -107.0097,790.05277 L 532.46968,917.2113 C 529.48746,836.69096 480.09225,795.21635 384.82515,792.3324 L 123.51005,292.04549 84.32346,304.11249 0,1050.6602 c 26.34041,25.5226 90.66428,20.7634 114.0998,18.1545 L 133.76646,435.84036 318.1064,792.37927 c -67.66274,1.98292 -77.1653,20.67961 -26.97851,56.52735 -21.25018,27.32164 -9.86594,72.85688 34.15234,136.60742 -16.69658,50.08966 4.55306,124.84506 63.75,224.26566 59.19687,99.4204 113.84196,237.9268 163.93164,415.5176 l -216.29687,59.1972 11.38281,111.5625 1015.45699,2.2774 -91.0722,-163.9297 c 24.2858,-209.4661 37.1871,-428.0403 38.7051,-655.72074 0,-179.10869 -38.7059,-328.61957 -116.1172,-448.53125 121.4295,0 175.3151,-75.51297 161.6543,-226.54101 C 1343.014,152.58365 1302.7892,62.26879 1236.0029,32.670286 1185.9132,10.471459 1132.1956,-0.41484133 1074.8486,0.01208306 Z m 7.8086,45.42968794 c 32.7883,1.067264 67.2064,8.953843 103.2558,23.658203 57.6791,23.526979 92.5914,86.898186 104.7344,190.113286 12.1429,103.21516 8.3475,165.82683 -11.3847,187.83594 -19.7323,22.0091 -40.982,33.01367 -63.75,33.01367 h -59.1973 c -16.6969,0 -25.4249,-29.97773 -26.1836,-89.9336 -0.7589,-59.95581 11.3848,-98.66167 36.4297,-116.11718 25.0449,-17.45552 31.8743,-44.01754 20.4902,-79.6875 -11.384,-35.6699 -45.9147,-39.84508 -103.5937,-12.52344 -12.143,-27.32164 -62.9926,-46.2948 -152.54688,-56.91992 13.6608,-37.946704 45.1575,-62.612044 94.48828,-73.9961 18.499,-4.268996 37.5848,-6.083718 57.2578,-5.443359 z M 917.25092,159.03357 c 69.8221,4.55367 122.18858,28.08174 157.09958,70.58203 l 25.045,2.27539 c 25.804,-27.3217 40.9818,-33.39356 45.5351,-18.21484 4.5537,15.17871 -4.932,32.25513 -28.459,51.22851 -23.5269,18.97332 -35.291,67.92622 -35.291,146.85547 0,78.92925 18.2137,118.39258 54.6426,118.39258 -30.3574,27.32164 -65.2678,30.3576 -104.7324,9.10742 0,-69.822 -27.3216,-100.17945 -81.96488,-91.07226 -54.6433,9.10726 -78.1713,-5.31301 -70.582,-43.25977 30.3574,-16.69658 40.9822,-28.83841 31.875,-36.42773 -9.1072,-7.58939 -25.802,-12.14424 -50.0879,-13.66211 1.5179,-13.66079 -9.8664,-25.80262 -34.1524,-36.42774 22.7681,-51.60754 45.5347,-87.27745 68.3028,-107.00976 22.768,-10.62506 45.9164,-10.24532 69.4433,1.13867 23.527,11.38399 46.67538,18.59311 69.44338,21.62891 v -13.66016 c -15.1787,-1.51787 -34.53168,-8.729 -58.05858,-21.63086 -23.527,-12.90192 -47.4348,-15.55807 -71.7207,-7.96875 0,-15.17865 4.5549,-25.80348 13.6621,-31.875 z m 17.1113,54.75 c -10.459,-0.64036 -19.958,1.60182 -28.4961,6.72461 l -20.4902,20.49023 v 15.9375 l 9.1055,-2.27539 c 28.8395,15.17872 61.4754,15.17872 97.9043,0 l 36.42768,9.10547 V 245.5531 l -34.15228,-4.55469 c -22.7681,-17.07602 -42.8671,-26.14758 -60.2989,-27.21484 z m -10.2812,13.55469 c -6.0715,7.58939 -6.0715,15.17825 0,22.76758 -7.5893,-3.03573 -14.4207,-6.0717 -20.4922,-9.10743 1.5179,-6.07146 8.3493,-10.62435 20.4922,-13.66015 z m 27.3223,4.55273 27.3203,15.9375 c -10.6251,3.03573 -21.25,4.55469 -31.875,4.55469 9.1072,-4.5536 10.6261,-11.385 4.5547,-20.49219 z m -62.6133,83.10352 c -2.2768,0.75893 -3.0363,3.41515 -2.2774,7.96875 0.759,4.55359 -1.1377,7.58949 -5.6914,9.10742 -4.5536,1.51787 -9.1065,-0.75855 -13.6601,-6.83008 -4.5536,-6.07146 -8.3491,-9.10742 -11.3848,-9.10742 -3.0357,0 -5.3122,1.13922 -6.8301,3.41602 -1.5178,2.27679 -1.5178,4.93302 0,7.96875 4.5536,-3.03573 9.8661,-0.75932 15.9375,6.83007 6.0715,7.58933 12.9028,9.48608 20.4922,5.69141 7.5893,-3.79467 10.6233,-9.10704 9.1055,-15.9375 -1.5179,-6.83039 -3.4146,-9.86635 -5.6914,-9.10742 z m -37.2832,50.08984 c 3.6049,-0.37948 7.3049,-0.37946 11.0996,0 7.5893,0.759 16.3174,1.89815 26.1836,3.41602 9.8661,1.51787 14.0413,3.03486 12.5234,4.55273 h -50.0898 c -13.6609,-1.51787 -17.0766,-3.41461 -10.2461,-5.6914 3.4152,-1.13844 6.9243,-1.89787 10.5293,-2.27735 z m 47.5293,12.52344 -15.9375,7.96875 c -7.5894,3.79467 -13.6613,5.69141 -18.2149,5.69141 -6.0714,1.51786 -9.8669,1.51786 -11.3847,0 -1.5179,-1.51787 10e-4,-4.55383 4.5546,-9.10743 z m 129.77728,218.57227 v 2.27734 c 44.0183,16.69651 86.5195,15.93704 127.502,-2.27734 59.1969,63.75046 88.7949,200.36009 88.7949,409.82614 0,209.466 -16.6967,428.0403 -50.0898,655.7208 l 29.5996,68.3027 H 407.24508 L 625.81929,1661.727 C 569.65809,1435.5644 508.94317,1270.1162 443.67476,1165.3832 378.40636,1060.6502 363.9861,995.76008 400.415,970.71521 c 36.42889,-25.04484 78.17065,-1.139 125.22461,71.71879 l 332.41401,418.9336 h 79.6875 c -3.0357,-425.0036 27.3218,-713.40063 91.07228,-865.18754 z M 343.49508,846.62927 h 86.51757 c 30.35737,10.62506 34.91229,31.11724 13.66211,61.47461 L 368.54,917.2113 c -34.91104,-12.14291 -43.25938,-35.67106 -25.04492,-70.58203 z" />
</svg>
