<?xml version="1.0" encoding="UTF-8" standalone="no"?>
<!-- Generator: Adobe Illustrator 19.0.0, SVG Export Plug-In . SVG Version: 6.00 Build 0)  -->

<svg
   version="1.1"
   id="Ebene_1"
   x="0px"
   y="0px"
   viewBox="0 0 1422.2354 1795.4602"
   xml:space="preserve"
   width="1422.2354"
   height="1795.4602"
   xmlns="http://www.w3.org/2000/svg"
   xmlns:svg="http://www.w3.org/2000/svg"
   xmlns:rdf="http://www.w3.org/1999/02/22-rdf-syntax-ns#"
   xmlns:cc="http://creativecommons.org/ns#"
   xmlns:dc="http://purl.org/dc/elements/1.1/"><metadata
     id="metadata32"><rdf:RDF><cc:Work
         rdf:about=""><dc:format>image/svg+xml</dc:format><dc:type
           rdf:resource="http://purl.org/dc/dcmitype/StillImage" /></cc:Work></rdf:RDF></metadata><defs
     id="defs30" /><style
     type="text/css"
     id="style22">
	.st0{fill:#010101;}
</style><path
     id="XMLID_26_"
     class="st0"
     d="M 996.22488,0 381.05365,363.68682 c -57.88546,-11.21342 -100.11189,6.86953 -126.47857,54.5518 -53.13745,-10.30422 -94.05217,23.23586 -120.01476,74.55492 L 0,569.16567 21.617105,623.00913 153.55322,549.36578 c 14.44612,26.56871 31.92253,44.14656 51.62178,56.06713 61.82531,71.32136 110.18162,185.18277 186.55407,293.57911 24.54829,34.85251 48.59273,46.87413 78.49517,31.82189 93.64717,-21.01253 277.48696,-115.48773 357.79926,-150.13819 55.96605,-3.83883 100.51714,30.30742 133.75333,102.33593 33.23619,72.02851 73.54477,132.64205 121.02507,181.73875 47.4801,49.0965 36.8717,112.032 31.6186,139.2069 -4.1419,21.1135 -2.829,41.6218 -16.0629,59.4016 -11.2134,14.9513 -40.8124,30.8113 -43.54,50.6116 -141.2285,-166.4838 -246.89711,-252.4532 -296.0947,-261.7473 -51.92518,9.2941 -77.92662,17.43 -93.88806,46.7263 -45.25775,102.5371 -227.12071,282.598 -259.04359,514.4429 -9.294,58.5926 -31.01453,89.3033 -64.95784,91.9299 -33.94331,2.6266 -90.2122,13.9406 -168.80712,33.9429 -63.94677,0 -63.94677,17.9823 0,53.9461 h 331.65554 c 14.64815,-13.3349 23.13018,-43.5218 6.96893,-84.959 -10.00116,-25.6428 -3.71053,-44.8182 21.48725,-81.6294 70.75316,-103.3626 151.14889,-241.3392 200.52046,-295.1748 l -1.91784,252.2507 c -29.2963,26.6698 -47.27863,47.2791 -53.94606,61.9272 -15.96143,29.2964 -11.9867,61.6003 12.02199,96.8804 23.97667,35.233 54.65287,52.9338 91.92989,52.9338 41.3179,0 122.53842,-27.2755 243.76455,-81.9283 121.2261,-54.6527 210.5293,-88.5966 267.8085,-101.9314 46.6721,51.9252 31.9229,96.577 -43.9445,133.8539 -49.2985,0 -49.2985,13.941 0,41.9241 h 53.9461 c 42.6312,-5.3542 63.9477,-16.6682 63.9477,-33.943 14.6481,-57.2792 33.3376,-131.8336 55.9665,-223.7634 0,-35.9637 -17.9823,-53.946 -53.9461,-53.946 10.1022,-26.2657 22.9324,-51.722 25.1548,-80.1092 -0.455,-89.4818 -41.36,-199.7808 -51.016,-270.334 -30.3066,-191.13321 -59.7043,-326.80741 -88.2935,-407.22073 -28.5892,-80.41332 -86.7779,-130.92356 -174.7678,-151.73404 l -18.0833,-67.8859 c 32.1249,-33.03412 53.2385,-70.31204 63.1386,-111.933 9.9002,-41.62097 5.0503,-83.04001 -14.4469,-124.25689 -19.5982,-41.21687 -54.7538,-63.74557 -105.5678,-67.48338 -25.25552,-1.8184 -50.10649,0.30386 -74.35174,6.36516 L 904.39561,112.74 1014.5095,47.681526 Z m -198.30471,182.84956 53.84347,53.33836 c -43.03527,29.29631 -72.83639,80.71653 -89.50497,154.56344 -2.42453,25.25543 -11.92021,67.58486 -28.38675,126.98565 -0.60613,21.92172 4.0397,31.11355 13.93983,27.57779 9.90013,-3.63679 17.77985,-4.84866 23.74014,-3.6364 -3.73781,6.66744 -4.44418,13.53694 -2.22169,20.70948 2.3235,7.17255 7.27397,9.6981 15.05265,7.57664 6.56641,-2.42452 6.76884,-1.41351 0.40448,2.8294 -6.36437,4.24292 -3.83882,10.30306 7.57664,17.98071 11.41546,7.67765 17.98149,17.88206 19.79989,30.50978 1.81839,12.62773 9.79834,17.27395 23.94139,13.83921 14.14305,-3.33372 31.3164,-9.89936 51.62177,-19.39541 l 4.34473,24.75036 -312.61078,122.34521 C 537.73899,649.67941 420.35113,510.67393 399.7427,428.74529 Z m 180.16613,53.05226 c 47.534,-0.13121 78.9045,20.01223 94.1083,60.4967 17.3757,46.26797 9.6968,95.06004 -22.9332,146.37909 -32.6301,51.31906 -40.5102,49.19917 -23.6395,-6.46382 16.9716,-55.56196 15.4575,-95.46646 -4.3428,-119.50964 -19.8002,-24.14421 -54.34985,-20.10293 -103.54739,12.02199 -67.98765,2.72759 -93.34458,-10.20402 -76.17089,-38.69216 17.1737,-28.48813 55.56208,-46.16739 115.16492,-52.93584 7.45036,-0.84606 14.57008,-1.27758 21.36056,-1.29632 z m 6.11657,101.30795 c 16.87073,1.41431 23.74053,15.05267 20.60893,40.81323 -3.1317,25.76054 -10.50553,49.19766 -21.921,70.21019 -11.41547,21.11354 -13.03141,40.10569 -4.6466,57.07735 8.38482,16.97165 22.7296,26.77197 43.0349,29.49956 l 18.2846,38.48893 c 16.2645,30.10449 45.7637,50.00583 88.698,59.6029 42.9342,9.59706 83.4428,96.27438 121.528,260.03065 38.0853,163.75622 48.4918,253.86712 39.6018,274.47562 -10.0011,23.134 16.2644,72.6343 -85.8685,75.3619 -57.5825,1.5153 -37.8833,-77.2819 -89.4044,-198.508 -39.4995,-92.53589 -97.9928,-145.4707 -118.80332,-196.18362 -20.8105,-50.6119 4.24339,-81.62527 75.16072,-93.04073 70.9172,-11.41546 89.808,-42.32821 56.6728,-92.94011 -52.1271,-34.65046 -111.8305,-43.23812 -179.00992,-25.55932 -7.8797,-54.24869 -28.38674,-72.93737 -61.72396,-56.16776 -33.33718,16.87063 -54.95629,13.23265 -65.05847,-10.81052 16.2645,-14.04203 20.60845,-23.941 13.13284,-29.59822 -7.47561,-5.75824 -20.30541,-6.0613 -38.3883,-1.01022 6.97049,-17.07267 0.80776,-26.16584 -18.58842,-27.47912 l 15.55776,-79.80727 c 12.42568,-20.91151 47.37931,-26.97204 104.55762,-18.38519 10.10219,-7.8797 1.5153,-14.14267 -25.76057,-18.78967 -27.27587,-4.647 -52.32934,-1.92059 -75.26128,8.38363 4.54598,-23.63909 12.02121,-36.56991 22.32543,-38.89341 10.30422,-2.32351 42.12617,-1.91784 95.46565,1.11281 8.99094,10.30422 18.69025,7.8785 28.99448,-7.27475 10.30423,-15.15327 23.94056,-22.02316 40.81121,-20.60886 z m -3.79619,6.9492 c -4.10887,0.0502 -8.84295,2.3022 -14.18448,6.79135 -9.49606,7.98072 -16.97127,20.91155 -22.32543,38.89342 -5.35416,17.98187 -4.1427,28.99288 3.737,32.93273 -9.39503,10.40524 -13.94102,19.69966 -13.63795,27.68038 0.30307,7.98072 5.15252,11.41508 14.54755,10.20281 9.39503,-1.21226 19.39579,-11.51769 29.90207,-31.01489 10.50627,-19.29515 16.26411,-36.26567 17.27433,-50.81281 1.01022,-14.54713 -1.31207,-24.75036 -6.86827,-30.81167 -2.43089,-2.60762 -5.249,-3.90034 -8.44482,-3.86132 z m -2.49393,21.23038 c 2.4813,0.25985 4.30878,2.11475 5.48316,5.56212 3.13168,9.19298 2.3235,19.80069 -2.52554,31.72125 -4.74803,11.92057 -9.79953,20.50824 -15.05266,25.55932 -5.25314,5.05109 -6.4646,2.02043 -3.73701,-9.09197 2.72759,-11.11239 1.81799,-14.04322 -2.93003,-8.79008 -4.64701,5.25313 -6.8703,3.53536 -6.36519,-4.95046 0.40409,-8.48583 2.82983,-17.88009 7.27479,-27.98227 7.76605,-8.46057 13.71685,-12.46101 17.85248,-12.02791 z m -61.89963,49.50662 -31.82186,12.12263 c -29.80142,-10.70831 -52.22832,-12.32387 -67.17954,-4.74724 -14.95122,7.47561 -24.34627,21.31563 -28.28612,41.41896 21.31559,10.30422 40.41034,11.51569 57.17995,3.73702 16.87063,-7.77867 31.72008,-19.59787 44.65087,-35.45828 l 29.39696,-8.99134 z m -597.20235,88.59957 c 6.42751,0.22098 13.0709,2.1262 19.71308,5.864 49.60168,54.65277 86.47515,205.57955 134.76355,278.82033 -2.02044,10.7083 11.17972,12.94199 -12.86346,22.94314 -22.62888,-72.73567 -160.99637,-186.09313 -187.86815,-268.02177 9.62232,-25.76055 26.97246,-40.26866 46.25498,-39.6057 z m 527.02375,-72.75176 c 8.29167,0 16.51117,0.34213 24.61816,1.02403 -9.59707,11.6175 -21.61829,19.69927 -35.96339,24.24524 -11.81954,3.83883 -21.51845,3.23231 -29.09508,-1.91981 1.81839,-9.49604 5.96148,-14.74998 12.32585,-15.96224 -4.647,11.21342 0.90882,17.27592 16.76923,17.88205 12.22364,-12.32465 13.23386,-20.70987 3.03066,-25.15483 2.7781,-0.0758 5.55067,-0.11444 8.31457,-0.11444 z m 102.60823,6.98274 c 9.39504,1.81839 12.42569,5.15251 9.09197,10.00156 -3.43474,4.84904 -6.97172,5.96068 -10.81055,3.43514 -3.83883,-2.62657 -3.23149,-7.07233 1.71858,-13.4367 z M 766.70402,1106.0887 c 57.27933,26.6698 143.2483,106.5766 257.80698,239.8243 -81.32249,50.6119 -167.29149,117.1862 -257.80698,199.822 z m 543.07738,145.8681 c 1.9637,-0.1701 3.7401,-0.1192 5.2681,0.2091 15.9614,3.5358 23.6391,57.8843 27.2759,76.0683 10.6967,54.1898 21.1789,136.1911 -36.9993,167.4832 7.4249,-3.9691 14.7026,-7.8527 -0.1756,0.1124 -14.5662,7.7753 -7.6781,4.0882 -0.3966,0.1954 -30.0657,15.9515 -83.4345,38.5042 -160.4314,67.7931 -114.5586,-17.2747 -221.84408,28.6903 -321.75457,137.8949 7.37458,-57.7845 97.48698,-165.6768 209.92427,-299.3286 31.9229,-37.9842 88.3941,-92.3332 136.8846,-108.7997 30.1045,-10.3043 62.7349,-15.8605 93.3446,-25.2555 10.4305,-3.1822 33.3133,-15.1821 47.06,-16.3726 z m -5.0275,244.0684 c 0.1112,-0.059 0.286,-0.1366 0.3966,-0.1954 0.064,-0.034 0.1125,-0.079 0.1756,-0.1124 -0.2544,0.136 -0.3181,0.1719 -0.5722,0.3078 z"
     style="stroke-width:1.01022" /></svg>
