<?xml version="1.0" encoding="UTF-8" standalone="no"?>
<svg
   width="1594.5275"
   height="1799.9773"
   version="1.1"
   id="svg1"
   xmlns="http://www.w3.org/2000/svg"
   xmlns:svg="http://www.w3.org/2000/svg">
  <defs
     id="defs1" />
  <path
     style="fill:#000000;stroke:none;stroke-width:100.354"
     d="m 658.8681,1300.1716 h 237.24961 l -9.48989,-159.7481 c 18.97996,-59.0488 21.35244,-98.5905 7.11744,-118.6247 -14.235,-20.0345 -23.46136,-37.96008 -27.67909,-53.77667 L 730.04301,987.00209 Z M 804.38128,452.39964 c -20.03444,-11.59894 -45.86831,-16.87116 -77.50161,-15.81672 -3.16323,4.21775 -6.85383,9.49002 -11.07169,15.81672 11.59892,-4.21776 23.72504,-3.69061 36.37834,1.58165 12.65329,5.27216 22.67053,7.38099 30.05166,6.32659 v 7.90836 c -10.54448,-1.05444 -22.14337,-3.69056 -34.79668,-7.90834 -12.6533,-4.21774 -24.25216,-3.16328 -34.79658,3.16333 -10.5444,10.54449 -20.56161,27.94281 -30.05165,52.19496 11.59893,4.21776 17.92557,9.49002 18.97996,15.81662 13.70782,-1.05441 22.67058,0.26353 26.88831,3.95422 4.21775,3.69049 -0.52705,9.75354 -14.23494,18.18907 -3.16334,18.97999 7.11746,25.30664 30.84245,18.97996 23.72497,-6.32659 36.9055,3.16333 39.54159,28.46999 2.63608,25.30661 -7.11745,37.9599 -29.26078,37.9599 -22.14328,0 -40.596,5.53579 -55.35821,16.60751 -14.76226,11.07167 -18.71642,34.2694 -11.86248,69.59324 6.85382,35.32383 14.76216,74.33818 23.72487,117.04309 8.96276,42.70496 13.97139,76.18353 15.02583,100.43569 L 864.48449,925.3172 c 6.32662,-37.96 17.13467,-89.36408 32.42411,-154.21233 15.28938,-64.84821 13.44413,-104.1262 -5.53579,-117.83396 -18.97998,-13.70768 -37.96,-47.44984 -56.93999,-101.22648 2.10891,-2.10882 -0.52718,-7.38103 -7.90826,-15.8166 -7.38112,-8.43552 -5.53586,-18.18911 5.53582,-29.26077 11.07159,-11.07167 19.77073,-23.9886 26.09744,-38.75082 6.32667,-14.7622 3.95418,-23.72493 -7.11749,-26.8882 -11.07168,-3.16341 -21.35248,0.79071 -30.84244,11.86237 -9.48996,11.07168 -14.76218,10.80807 -15.81661,-0.79077 z m 7.90823,33.2149 c -3.16323,-4.21775 -2.10883,-11.0716 3.16334,-20.56164 5.27227,-9.4899 11.86249,-15.55301 19.77074,-18.18917 7.90835,-2.63608 13.18055,-1.8452 15.81672,2.37255 2.63607,4.21775 2.63607,10.28085 0,18.18917 -2.6362,7.90835 -8.69924,16.87107 -18.18917,26.88821 -9.48991,10.01716 -17.13466,14.23502 -22.93409,12.65339 -5.79941,-1.58167 -8.43549,-4.745 -7.90835,-9.49001 0.52706,-4.745 3.95423,-8.69913 10.28081,-11.8625 z m 17.39841,-26.88833 c -4.21775,6.32668 -7.38108,12.12616 -9.49001,17.3984 -2.10893,5.27216 -1.05442,6.5902 3.16334,3.95411 4.21775,-2.63607 4.48138,-0.52704 0.79057,6.32668 -3.69048,6.85383 -3.42696,8.69914 0.7906,5.5358 4.21773,-3.16334 8.43559,-7.64472 12.65336,-13.44415 4.21775,-5.79943 6.59031,-11.59888 7.11745,-17.39831 0.52707,-5.7994 -4.48127,-6.5903 -15.02571,-2.37255 z M 810.70786,438.1646 c 29.52439,-16.87103 49.82244,-17.39826 60.8941,-1.58168 11.07167,15.81665 8.17195,33.21498 -8.69913,52.19497 -16.87112,18.97998 -21.61613,32.68773 -14.23506,41.12325 8.43561,9.48991 22.40697,4.21775 41.91415,-15.81661 19.50717,-20.03445 29.26076,-45.86832 29.26076,-77.50161 0,-29.52439 -18.18913,-47.7135 -54.56739,-54.56732 -36.3783,-6.85382 -64.84824,-6.85382 -85.40987,0 -20.56163,6.85384 -32.42412,19.24349 -35.58746,37.16905 32.68774,3.16333 54.83104,9.49001 66.4299,18.97995 z m 1.58166,55.35829 c -3.16323,2.10894 -4.21775,4.48139 -3.16333,7.11747 1.0544,2.63607 3.16333,2.63607 6.32667,0 3.16334,-2.63608 2.10893,-5.00853 -3.16334,-7.11747 z m -102.80813,-9.49001 -1.58168,-6.32659 9.48992,-11.07171 c 12.65338,-7.3811 28.47003,-5.27217 47.44995,6.32668 h 15.81671 l 1.58169,7.90825 -18.98006,-1.58157 c -16.87103,7.38109 -33.21488,8.96271 -49.03152,4.74494 z m 7.90823,-7.90825 c 3.16345,1.0544 6.85394,2.10892 11.07171,3.16334 -2.10893,-3.16334 -2.63608,-6.85394 -1.58167,-11.07172 -5.27217,3.16336 -8.43549,5.79944 -9.49004,7.90838 z m 22.14332,3.16334 c 5.27226,0 11.0717,-1.05442 17.39838,-3.16334 l -14.23502,-7.90839 c 3.16333,5.27228 2.10892,8.96276 -3.16336,11.07173 z m -45.86816,39.54147 v -4.7449 c 0,-1.05442 2.10891,-1.58168 6.32666,-1.58168 l 3.95412,4.74502 c 2.63609,3.16333 5.00853,4.21774 7.11746,3.16323 2.10893,-1.0544 2.63609,-2.63609 1.58167,-4.74491 -1.05441,-2.10893 -0.79058,-3.42696 0.79058,-3.95412 1.58167,-0.52705 2.63608,0.79058 3.16334,3.95412 0.52705,3.16324 -0.52705,5.79942 -3.16334,7.90834 -2.63607,2.10882 -5.53578,1.58158 -8.69911,-1.58166 -3.16324,-3.16334 -6.85385,-4.21786 -11.0716,-3.16344 z m 28.46996,22.14341 -18.98005,4.74491 c -3.16323,1.05439 -4.21764,2.10891 -3.16323,3.16342 1.05442,1.05442 2.63599,1.05442 4.74492,0 3.16332,-1.05451 6.59029,-2.10903 10.2808,-3.16342 3.69061,-1.05443 6.06315,-2.63609 7.11756,-4.74491 z m 0,-3.16335 c 1.05443,-1.05441 -1.0545,-1.58166 -6.32675,-1.58166 -5.27216,0 -10.01717,-0.26353 -14.23495,-0.79059 -4.21775,-0.52706 -6.59022,0.26353 -7.11746,2.37245 -0.52706,2.10892 0.79057,2.63609 3.95421,1.58167 z m 140.76809,22.14331 c 17.92552,37.95991 42.96856,56.93987 75.12903,56.93987 32.16049,0 56.4127,5.27227 72.75654,15.8167 16.3439,10.54443 66.1662,21.08884 149.4673,31.63325 26.3609,-40.06882 51.1405,-76.71073 74.3382,-109.92573 23.1977,-33.21494 37.9598,-86.25791 44.2865,-103.12894 1.0552,-13.70782 30.483,-61.54678 41.631,-70.02844 11.1476,-8.48359 25.2796,-10.99867 42.3965,-7.54341 17.117,3.45543 40.9202,0.93588 71.4102,-7.55694 1.8447,9.36907 -4.8568,16.17629 -20.1015,20.42285 -15.2464,4.24208 -27.7375,8.45843 -37.479,12.62973 -8.6421,18.19716 9.6023,19.08671 54.7311,2.66864 45.1299,-16.4186 67.5831,-17.95936 67.3595,-4.62325 -24.5112,9.92779 -46.8014,21.64248 -66.8707,35.14583 -20.069,13.50362 -53.7021,15.52438 -100.8992,6.06184 -32.0546,95.89847 -61.6679,200.04393 -128.0978,290.72603 -56.9398,11.59886 -111.7709,8.17191 -164.493,-10.28082 -52.72213,-18.45272 -81.71931,-20.298 -86.99148,-5.53579 -16.8711,32.68767 -27.94276,66.95704 -33.215,102.80814 -5.27217,35.85108 -11.59883,75.9199 -18.97995,120.20644 0,13.70781 6.32667,30.57892 18.97995,50.61328 12.65337,20.03441 19.24365,46.13201 19.77084,78.29231 0.52704,32.1604 -5.00863,56.6762 -16.60751,73.5474 l 15.81672,272.0463 c 34.79658,39.0143 45.341,84.619 31.63323,136.814 -13.70776,52.1949 -22.1433,89.8912 -25.30665,113.089 -4.21775,25.3066 -3.16323,50.8767 3.16334,76.7107 6.32657,25.8337 1.05441,46.6591 -15.81661,62.4755 -118.0976,0 -185.31835,-0.7916 -201.66227,-2.3727 -16.34384,-1.5812 -22.67045,-6.8537 -18.97985,-15.8167 3.69049,-8.963 25.57013,-17.1346 65.63901,-24.5157 37.95993,-8.4358 65.63903,-19.7707 83.03732,-34.0056 17.39835,-14.2352 23.98862,-39.5418 19.77083,-75.9203 -4.21778,-36.3777 -13.18054,-115.1973 -26.88831,-236.4582 -16.87102,-32.6877 -26.8882,-56.4127 -30.05156,-71.1749 h -98.06322 c -8.4355,9.489 -20.03437,24.2521 -34.79657,44.2866 -14.7622,20.0343 -22.14331,38.487 -22.14331,55.3583 18.97999,46.3953 7.64472,101.2264 -34.00576,164.4929 -41.65055,63.2666 -60.10327,107.8168 -55.35822,133.6508 4.74501,25.8337 -1.31804,46.6591 -18.18917,62.4755 -118.09762,0 -185.58196,-0.7916 -202.45304,-2.3727 -16.87103,-1.5812 -23.19769,-6.8537 -18.97996,-15.8167 4.21774,-8.963 25.83386,-17.1346 64.84823,-24.5157 39.01443,-16.8711 68.0116,-30.3152 86.99152,-40.3324 18.98,-10.017 32.16052,-34.5329 39.54159,-73.5475 7.3811,-39.0144 24.25223,-99.1174 50.61328,-180.3097 -4.21775,-39.0143 2.63608,-80.1376 20.56163,-123.3697 v 0 l 88.57321,-366.94586 c 2.1089,-35.85101 -2.10886,-75.91983 -12.65328,-120.20643 -10.54447,-44.28659 -21.61615,-85.40985 -33.21499,-123.36977 0,-16.87109 -29.78801,-17.66192 -89.36399,-2.37245 -59.57606,15.28938 -113.08904,17.13465 -160.5389,5.5358 C 331.39933,648.0616 295.95967,571.25851 273.37832,469.63017 228.9537,460.4325 196.43256,467.74711 165.08879,436.66962 148.0387,419.76436 127.37098,404.92924 103.08564,392.16426 c 3.05211,-13.73293 25.30603,-8.94892 66.76164,14.35201 41.45567,23.30089 88.18012,25.3036 83.12283,6.52989 -8.60655,-6.44669 -34.91614,-12.50318 -49.89195,-19.07006 -14.97588,-6.56688 -20.41917,-14.13225 -16.32992,-22.69597 29.00018,12.67938 51.98913,18.98288 68.96684,18.91051 16.97767,-0.0724 30.50482,4.6341 40.58147,14.11982 10.07659,9.48565 5.90162,21.6897 11.49306,33.79885 8.15392,16.06781 31.84602,86.25601 54.51654,119.47092 22.67046,33.21502 47.18625,69.85691 73.54738,109.92572 62.21206,-10.54448 126.00585,-20.03447 191.38135,-28.46999 29.5244,-14.76218 69.06602,-22.14329 118.62485,-22.14329 15.81659,-5.27218 19.50712,-13.70772 11.0716,-25.30664 -18.97999,3.16334 -33.74219,4.48142 -44.28661,3.95423 -10.5444,-0.52726 -16.34382,-6.85394 -17.39829,-18.98007 -1.05443,-12.12603 -4.21777,-19.24351 -9.49002,-21.35241 -5.27225,-2.10893 -4.745,-4.48137 1.58168,-7.11746 6.32668,-2.63617 5.79941,-3.42697 -1.58168,-2.37255 -4.21775,0 -6.85393,-1.58168 -7.90833,-4.7449 -1.05443,-3.16335 1.0545,-5.79943 6.32667,-7.90835 -5.27218,-4.21783 -10.80799,-6.85391 -16.6075,-7.90829 -5.79943,-1.05444 -6.06303,-8.43555 -0.7908,-22.1433 10.54442,-21.08888 20.03441,-37.43276 28.46998,-49.03163 11.59886,-56.93989 37.6963,-89.62762 78.2923,-98.06321 40.59607,-8.4355 79.61045,-6.85385 117.04319,4.74501 37.43273,11.59885 56.14908,36.90547 56.14908,75.91982 0,36.90554 -6.59019,63.53024 -19.77074,79.87405 -13.18055,16.34391 -34.53304,30.84252 -64.05743,43.49584 z M 220.40017,197.91038 56.22451,386.82469 H 0 V 0 h 1587.7806 l 6.7469,386.82469 H 1540.552 L 1392.1192,197.91038 Z M 1421.356,155.1797 1531.5561,278.87366 V 42.730696 H 56.22451 V 278.87366 L 193.41242,155.1797 Z"
     id="path1" />
</svg>
