<?xml version="1.0" encoding="UTF-8" standalone="no"?>
<svg
   width="1260"
   height="1800"
   id="svg3128"
   sodipodi:version="0.32"
   inkscape:version="1.2.2 (732a01da63, 2022-12-09)"
   sodipodi:docname="US9A9VARA.svg"
   version="1.1"
   xmlns:inkscape="http://www.inkscape.org/namespaces/inkscape"
   xmlns:sodipodi="http://sodipodi.sourceforge.net/DTD/sodipodi-0.dtd"
   xmlns="http://www.w3.org/2000/svg"
   xmlns:svg="http://www.w3.org/2000/svg"
   xmlns:rdf="http://www.w3.org/1999/02/22-rdf-syntax-ns#"
   xmlns:cc="http://creativecommons.org/ns#"
   xmlns:dc="http://purl.org/dc/elements/1.1/">
  <metadata
     id="metadata3135">
    <rdf:RDF>
      <cc:Work
         rdf:about="">
        <dc:format>image/svg+xml</dc:format>
        <dc:type
           rdf:resource="http://purl.org/dc/dcmitype/StillImage" />
        <dc:date>03/04/06</dc:date>
        <dc:creator>
          <cc:Agent>
            <dc:title>Serge Thomas</dc:title>
          </cc:Agent>
        </dc:creator>
        <dc:publisher>
          <cc:Agent>
            <dc:title>Serge Rosmorduc</dc:title>
          </cc:Agent>
        </dc:publisher>
        <dc:description>variante optimisée du signe de Jsesh</dc:description>
        <cc:license
           rdf:resource="http://creativecommons.org/licenses/GPL/2.0/" />
      </cc:Work>
      <cc:License
         rdf:about="http://creativecommons.org/licenses/GPL/2.0/">
        <cc:permits
           rdf:resource="http://web.resource.org/cc/Reproduction" />
        <cc:permits
           rdf:resource="http://web.resource.org/cc/Distribution" />
        <cc:requires
           rdf:resource="http://web.resource.org/cc/Notice" />
        <cc:permits
           rdf:resource="http://web.resource.org/cc/DerivativeWorks" />
        <cc:requires
           rdf:resource="http://web.resource.org/cc/ShareAlike" />
        <cc:requires
           rdf:resource="http://web.resource.org/cc/SourceCode" />
      </cc:License>
    </rdf:RDF>
  </metadata>
  <defs
     id="defs3133" />
  <sodipodi:namedview
     inkscape:window-height="1137"
     inkscape:window-width="1920"
     inkscape:pageshadow="2"
     inkscape:pageopacity="0.0"
     borderopacity="1.0"
     bordercolor="#666666"
     pagecolor="#ffffff"
     id="base"
     inkscape:zoom="0.29857056"
     inkscape:cx="785.40899"
     inkscape:cy="860.76806"
     inkscape:window-x="-8"
     inkscape:window-y="-8"
     inkscape:current-layer="svg3128"
     inkscape:showpageshadow="2"
     inkscape:pagecheckerboard="0"
     inkscape:deskcolor="#d1d1d1"
     showgrid="false"
     inkscape:window-maximized="1"
     showguides="true" />
  <path
     id="path3130"
     style="fill:#000000;stroke:none;stroke-width:95.8416"
     d="m 449.98987,4.8738892 33.3914,81.8999228 c -9.09109,-10.21516 -32.41773,-2.70867 -70.43945,23.095698 l -60.8457,65.76758 -168.31086,166.7574 C 121.8705,386.23912 86.643577,428.35311 78.103617,468.73629 170.97573,593.34724 232.59035,713.23807 273.35878,752.26251 c 43.19636,41.34851 86.1338,93.98152 136.9216,151.46095 56.57725,42.69081 154.52868,153.10404 150.25868,412.71014 -150.51675,-111.9191 -250.86288,-157.5371 -301.03515,-188.6898 -62.98223,0 -94.47266,24.8063 -94.47266,74.4199 l 59.24609,313.2598 c -7.47244,24.2299 -15.47956,43.8443 -24.01953,58.8437 -49.10475,48.4599 -60.84639,93.4572 -35.22656,134.9942 -93.939513,12.6918 -145.712825,32.3081 -155.3203127,58.8457 -9.60743398,26.5376 -5.603874,39.2281 12.0097657,38.0742 17.613694,-1.1538 62.180994,-7.499 133.703127,-19.0371 151.58429,-9.2305 281.2865,-39.7633 389.10351,-39.7633 91.80456,0 176.67053,4.6152 254.59766,13.8457 64.04968,26.5374 112.0866,39.8066 144.11137,39.8066 33.0924,0 65.11693,-3.4619 96.07413,-10.3848 13.8775,-20.7684 -4.0019,-36.9209 -53.64053,-48.4589 -49.6384,-11.5381 -81.39599,-36.0579 -95.27349,-73.5567 -13.87737,-37.4985 -34.69434,-48.1708 -62.44921,-32.0176 18.14743,-77.305 22.33947,-198.3942 7.39449,-290.6986 -9.60745,-109.6115 -39.27405,-216.5234 -27.12193,-360.85135 21.54344,-77.52907 30.98632,-124.56599 66.18164,-154.91601 8.72009,-7.5196 44.01699,-37.31892 64.2222,-46.13754 91.89923,-40.10979 207.86583,-185.87222 308.83573,-319.07685 -8.54,-40.38317 -14.1221,-68.81496 -66.9153,-124.06143 L 993.19714,172.17026 932.34953,106.40463 C 898.11836,83.172721 875.62901,74.557871 864.84757,80.521821 L 892.42912,2.9300705 Z M 504.43323,46.410998 839.58928,44.467179 755.37804,247.784 H 596.8546 Z M 853.81632,119.4144 c -1.45246,11.90471 -2.52644,23.72828 -3.1289,35.44921 31.46889,36.38911 28.27661,40.43213 73.53141,57.67927 33.79111,12.8782 91.12977,87.94788 125.82327,124.8696 34.6936,36.9218 72.831,78.38481 93.3586,123.32873 -61.9149,72.68969 -164.48893,218.69621 -236.01095,257.92561 -34.25495,18.86921 -65.98166,37.38717 -84.53932,33.98567 -29.29998,-5.3705 -43.81577,-19.97976 -75.47825,-41.03841 -30.95747,-13.84562 -42.70103,-46.7291 -35.22852,-98.65039 44.83479,-28.84514 78.46142,-62.30531 100.87891,-100.38086 22.41734,-38.07557 31.22371,-80.47989 26.41992,-127.20898 -4.55613,-44.32144 -28.07499,-76.81811 -70.08399,-97.78516 h 13.24024 z m -363.4995,-4.11129 74.51239,172.28558 h 10.07617 c -34.49758,20.45162 -66.70595,56.03634 -96.54297,107.30469 -9.60744,26.53757 -32.55866,65.76827 -68.85352,117.68945 -5.33744,21.92236 -2.93609,32.88281 7.20508,32.88282 10.1412,0 17.88129,2.30666 23.21875,6.92187 -5.33746,4.61518 -8.00586,10.09738 -8.00586,16.44336 0,6.34591 2.6684,9.51758 8.00586,9.51758 6.40502,0 7.47316,2.59699 3.20313,7.78906 -4.26997,5.19215 -5.07109,12.114 -2.40235,20.76758 2.66874,8.65355 4.26897,19.90431 4.80274,33.75 0.5337,13.84557 8.27381,21.63446 23.21875,23.36523 14.94496,1.73068 33.62558,1.44042 56.04297,-0.86718 9.60747,25.38366 0.26714,40.67306 -28.02149,45.86523 -28.28859,5.19211 -68.58725,4.32714 -120.89453,-2.5957 -71.52213,-39.2294 -117.32673,-170.79903 -179.24148,-243.4887 48.56358,-48.42657 82.95318,-87.07862 117.64675,-124.00042 34.69363,-36.92173 37.35552,-78.96812 97.13522,-93.96764 29.3487,-18.15029 46.88859,-11.63811 83.18345,-86.63547 -0.72943,-14.19085 -2.31365,-28.56711 -4.28906,-43.02734 z m 160.01629,185.60394 c 16.78803,0.13522 35.79135,2.90793 57.00782,8.31641 56.57721,14.42258 85.66631,47.30606 87.26757,98.65039 1.60127,51.34432 -20.81591,96.63199 -67.25195,135.86133 -46.4361,39.2294 -53.10803,34.61412 -20.01562,-13.84571 33.09233,-48.4598 44.83401,-88.26719 35.22656,-119.41992 -9.60745,-31.15273 -42.70013,-38.65133 -99.27734,-22.49805 -64.04974,-20.7685 -83.53145,-42.69145 -58.44532,-65.76757 15.67884,-14.42258 37.50823,-21.52224 65.48828,-21.29688 z M 540.01085,387.9715 c 10.1412,0 39.23032,11.53724 87.26758,34.61329 3.20259,13.84567 12.54285,14.71061 28.02148,2.5957 15.47871,-12.11498 31.22389,-14.42156 47.23633,-6.92188 16.01237,7.49976 18.1487,23.94049 6.40625,49.32422 -11.74238,25.38367 -26.68844,46.44167 -44.83594,63.17188 -18.14736,16.73014 -25.88747,34.61451 -23.21875,53.65234 2.66873,19.03775 13.07718,33.17185 31.22461,42.40234 -1.06753,35.76796 4.00419,65.76619 15.21289,89.9961 11.20878,24.2299 33.35884,42.9793 66.45117,56.24805 39.4621,22.6544 54.94737,35.57529 14.41211,146.24609 -40.56479,160.37897 11.18748,275.40737 10.12001,426.55587 l -166.52929,27.6914 v -105.5723 c -6.40496,-188.0702 -63.80875,-266.1784 -84.09114,-302.83337 -25.95043,-46.8984 -74.4114,-103.53306 -105.36872,-135.83965 0,-34.61409 22.95122,-57.40213 68.85352,-68.36328 45.90228,-10.96112 71.25486,-37.20907 76.05859,-78.74609 4.80369,-41.53695 -8.80723,-59.99801 -40.83203,-55.38282 -32.02488,4.61525 -50.17144,-5.19191 -54.44141,-29.42187 24.55237,-12.69183 33.35867,-22.49903 26.41993,-29.42187 -6.9387,-6.92284 -18.41533,-10.96139 -34.42774,-12.11524 11.74243,-13.8456 8.53996,-25.38475 -9.60742,-34.61523 l 41.63281,-74.41993 c 18.14733,-16.15327 50.70596,-11.53804 97.67578,13.84571 14.94496,-3.46146 10.40929,-11.53864 -13.60937,-24.23047 -24.01861,-12.69184 -48.83907,-17.88379 -74.45899,-15.57617 12.80997,-21.92229 24.28657,-32.88282 34.42774,-32.88282 z m 146.56445,36.50586 c -2.43522,0.18028 -5.12102,0.70301 -8.05664,1.56836 -11.7425,3.46146 -22.68499,13.26865 -32.82617,29.42188 -10.14118,16.15327 -13.07663,28.26903 -8.80664,36.3457 -9.60747,4.61523 -15.21127,10.96052 -16.8125,19.03711 -1.60129,8.07662 1.86821,14.1355 10.4082,18.17383 8.53999,4.03835 20.81576,-2.30886 36.82813,-19.03906 16.01249,-16.73015 26.688,-32.0176 32.02539,-45.86329 5.33751,-13.84566 6.13665,-24.51788 2.40039,-32.01757 -2.80215,-5.62483 -7.8545,-8.16778 -15.16016,-7.62696 z m -1.65234,18.44336 c 3.73624,0.86535 5.33844,3.89383 4.80469,9.08594 -1.06753,10.38429 -5.60515,20.76812 -13.61133,31.15234 -8.00626,10.38429 -15.47932,17.30815 -22.41797,20.76954 -6.93871,3.46138 -6.93871,-5.4e-4 0,-10.38477 6.93865,-10.38423 6.93865,-13.84614 0,-10.38477 -6.93871,3.46145 -8.27195,0.5781 -4.00196,-8.65234 4.26992,-9.23045 10.14083,-18.46095 17.61329,-27.69141 8.00625,-3.46141 13.87703,-4.75988 17.61328,-3.89453 z m -164.92774,3.0293 c -16.01234,1.73077 -28.82219,12.40291 -38.42968,32.01758 14.94492,17.30706 30.95716,25.09594 48.03711,23.36523 17.07986,-1.73069 34.69237,-8.94286 52.83984,-21.63476 h 32.02539 V 469.3133 h -32.02539 c -25.6199,-17.30705 -46.43479,-25.09397 -62.44727,-23.36328 z m -8.30664,14.0625 c 1.26764,-0.14423 2.43446,0.0715 3.50196,0.64844 -8.53992,11.53805 -5.33748,19.61524 9.60742,24.23047 16.01245,-5.76907 18.68082,-13.84625 8.00586,-24.23047 11.74243,3.46137 22.95198,8.65333 33.62695,15.57617 -13.87741,5.76906 -27.75534,8.6543 -41.63281,8.6543 -12.80998,1.15376 -21.88327,-3.4615 -27.22071,-13.84571 5.60434,-6.92283 10.30839,-10.60053 14.11133,-11.0332 z M 635.28429,505.659 c 7.47245,4.61525 8.80763,9.23047 4.0039,13.84571 -4.80365,4.6152 -8.27313,4.32685 -10.4082,-0.86524 -2.13497,-5.19215 -6.6e-4,-9.51902 6.4043,-12.98047 z m -384.63585,691.2586 c 13.11016,0.7572 32.07527,11.7364 56.89453,32.9375 61.9147,44.9985 145.17845,80.8092 249.79297,159.268 L 281.92188,1524.0758 233.88477,1278.316 c -10.67496,-55.5269 -5.08661,-82.6603 16.76367,-81.3984 z m 529.26172,209.514 c 12.8099,128.0724 1.06628,208.262 -35.22852,240.5684 -343.73344,25.3839 -524.14084,47.8394 -541.2207,15.5328 -8.53997,-41.5369 59.77967,-85.0926 204.95898,-130.6679 145.17931,-45.5755 269.01069,-104.6648 371.49024,-125.4333 z"
     sodipodi:nodetypes="ccccccscccccccsscscscsscccssccccccccccccccssccsccssccccccccscsssssscsccscccsssssscssscssssscscccccscssscsccccscsssscssssssssssssscsscsccccssccccccscsscsccccscccsc" />
</svg>
