<?xml version="1.0" encoding="UTF-8" standalone="no"?>
<svg
   width="1240.504"
   height="1800"
   version="1.1"
   id="svg1"
   xmlns="http://www.w3.org/2000/svg"
   xmlns:svg="http://www.w3.org/2000/svg">
  <defs
     id="defs1" />
  <path
     id="path1"
     style="fill:#000000;stroke:none;stroke-width:100.086"
     d="m 1196.5126,0.118525 c -7.9407,-0.71114125 -13.5718,1.7778165 -16.8906,7.4667969 -4.4231,7.5853051 -4.1058,16.4350401 0.9512,26.5488281 10.1135,22.755854 15.802,45.511661 17.0664,68.26757 1.2643,22.75593 -4.4242,48.67304 -17.0664,77.75 -11.3779,-15.17053 -15.1714,-34.76504 -11.3789,-58.78515 3.7927,-24.020125 -1.2635,-35.398972 -15.17,-34.134764 -17.6987,58.153974 -15.8022,106.826844 5.6895,146.017574 -27.813,134.007 -43.6157,215.54994 -47.4082,244.62695 -94.8163,-24.0201 -156.4477,-42.03484 -184.89258,-54.04492 -28.44488,-12.01007 -61.6321,-18.01562 -99.5586,-18.01562 -36.66231,0 -51.83283,-25.28478 -45.51171,-75.85352 22.75589,-8.84944 44.24716,-25.28447 64.47461,-49.30469 20.22744,-24.02003 30.34179,-57.52241 30.34179,-100.50586 0,-42.98334 -19.27928,-71.42756 -57.83789,-85.333977 -38.55861,-13.90634 -80.27851,-17.700008 -125.1582,-11.378906 -44.87972,6.321035 -77.43272,41.087933 -97.66016,104.298823 -12.64217,15.17064 -25.91786,34.76503 -39.82422,58.78516 -7.58529,17.69903 -7.58529,27.49818 0,29.39453 7.58534,1.89628 13.27379,4.74054 17.06641,8.5332 -5.0568,3.79263 -7.26878,7.26912 -6.63672,10.42969 0.63214,3.16056 3.47639,5.37252 8.5332,6.63672 2.5285,-1.2642 1.58109,2.7e-4 -2.84375,3.79297 -4.42467,3.79259 -4.10953,6.954 0.94727,9.48242 5.05689,2.52849 7.90302,10.11371 8.53516,22.75586 0.63207,12.64219 5.68828,19.59515 15.16992,20.85937 9.48158,1.26421 24.96921,1.26421 46.46094,0 l 5.6875,26.54883 v 20.85938 c -84.70255,0 -137.79929,32.2378 -159.29102,96.71289 L 400.2467,673.87311 c -63.13466,29.53923 -86.71052,45.67234 -184.62665,134.929 -8.55155,-2.0524 -17.40102,-3.51258 -26.69922,-3.85742 -35.75067,-1.32588 -76.23312,10.01095 -115.376948,34.32617 4.523168,12.65485 17.560031,14.05625 39.109378,4.20704 21.5494,-9.84908 41.1456,-11.2955 58.7871,-4.33985 -25.49095,19.84597 -49.08277,32.28702 -70.77343,37.32422 -21.690545,5.03719 -45.456262,5.86049 -71.296876,2.4668 -11.048549,-2.99729 -19.5494921,-1.25299 -25.5039061,5.23242 -5.954354,6.48534 -5.031128,15.34227 2.771484,26.57227 46.5467131,12.91657 87.3437401,13.713 122.3847681,2.38867 25.06404,-8.10011 58.68337,-26.81348 87.64452,-46.58399 37.1407,-18.78545 108.94784,-44.61254 219.48243,-105.52929 89.75942,-74.58882 123.68966,-122.57649 141.38867,-180.73047 0,59.41819 13.27559,105.87915 39.82422,139.38086 26.54852,33.50176 36.03061,86.91563 28.44531,160.24023 -77.11727,25.28436 -157.08053,57.20693 -239.88672,95.76563 -82.80618,38.5587 -118.52051,85.65 -107.14258,141.2754 11.37793,55.6258 20.22576,117.889 26.54688,186.7891 6.32109,68.8996 10.11473,117.8897 11.3789,146.9668 1.26421,29.0768 -24.6529,54.3618 -77.75,75.8535 -63.21085,22.7561 -94.18413,40.4557 -92.91992,53.0976 0,10.1137 13.59105,17.699 40.77149,22.7559 27.18066,5.0569 52.78064,0.6309 76.80078,-13.2754 24.02004,-13.9063 51.20174,-18.9625 81.54297,-15.1699 30.34123,3.7926 55.62607,0.3162 75.85351,-10.4297 20.22751,-10.7458 22.75459,-36.348 7.58399,-76.8027 -15.17037,-40.4552 -15.48573,-94.1842 -0.94727,-161.1875 14.53849,-67.0038 12.00937,-120.7345 -7.58594,-161.1895 -19.59537,-40.4551 8.53372,-64.4751 84.38672,-72.0605 75.85303,-7.5852 123.89554,-11.377 144.12305,-11.377 -6.32108,55.6256 -8.85015,108.407 -7.58594,158.3438 1.2642,49.9363 8.53425,90.3918 21.8086,121.3652 13.27425,30.9735 24.96831,91.6573 35.08203,182.0488 10.11372,90.3914 2.21138,142.2236 -23.70508,155.4981 -25.91643,13.2744 -54.6778,23.3887 -86.2832,30.3418 -31.60545,6.9533 -53.09672,15.8029 -64.47461,26.5488 -11.378,10.7458 -13.27477,19.5955 -5.68946,26.5488 7.58534,6.9531 15.80285,12.3267 24.65235,16.1192 h 149.81054 c 22.75592,-7.5851 38.24162,-8.8499 46.45899,-3.793 8.21744,5.0571 21.49307,6.9538 39.82422,5.6894 18.33115,-1.2641 27.49609,-15.17 27.49609,-41.7187 -15.17059,-49.3046 -18.96225,-92.9211 -11.37695,-130.8477 7.58529,-37.9263 14.22119,-83.7552 19.91015,-137.4843 5.68898,-53.7294 -2.84368,-118.5221 -25.59961,-194.375 l 51.20118,-261.6934 c 25.28424,-46.77603 34.13409,-93.86915 26.54882,-141.27736 -7.58529,-47.40811 -16.11991,-117.88938 -25.60156,-211.4414 -9.48164,-93.55203 6.00599,-140.32813 46.46094,-140.32813 24.02015,-1.26428 62.26353,5.3716 114.72849,19.91016 52.4635,14.538 98.9228,22.4405 139.377,23.70508 26.5484,-27.81277 42.9833,-69.8497 49.3047,-126.10743 6.3214,-56.25761 6.9531,-131.16279 1.8965,-224.71484 16.4345,-39.19073 25.6017,-77.11701 27.498,-113.7793 1.8963,-36.662309 -9.798,-75.855056 -35.082,-117.5742112 -3.1605,-0.94817181 -6.0641,-1.54029668 -8.711,-1.7773438 z M 734.9345,102.87633 c 16.7509,0.94818 35.3979,3.95094 55.94141,9.00782 41.0871,10.11372 61.63086,34.13401 61.63086,72.06054 0,36.66229 -13.59079,67.95269 -40.77149,93.86914 -27.18066,25.91649 -44.56313,32.55237 -52.14843,19.91016 -8.8495,-10.11372 -2.21169,-26.2316 19.91211,-48.35547 22.12375,-22.12379 27.49708,-43.61698 16.11914,-64.47656 -11.37793,-20.85958 -34.76795,-22.43927 -70.16602,-4.74024 -12.64222,-13.90632 -42.3509,-24.0207 -89.12695,-30.34179 10.11372,-22.75592 28.12846,-37.29412 54.04492,-43.61524 12.95825,-3.16049 27.81359,-4.26654 44.56445,-3.31836 z m -109.98828,65.89844 c 37.92653,3.7927 68.26956,13.27276 91.02539,28.44336 0,15.17058 6.32072,16.11998 18.96289,2.8457 12.64221,-13.27431 24.65331,-17.06794 36.03125,-11.3789 11.378,5.68896 12.64059,17.38302 3.79102,35.08203 -8.84952,17.69902 -19.91128,32.23925 -33.18555,43.61719 -13.27426,11.37796 -16.1185,23.07196 -8.5332,35.08203 7.5853,12.01004 12.6415,23.07182 15.16992,33.18554 v 63.52735 c 0,23.38797 19.91345,35.08203 59.73633,35.08203 39.82281,0 74.58778,6.63783 104.29687,19.91211 29.70916,13.27424 103.98396,31.9213 222.82036,55.9414 5.0569,-49.30446 22.1245,-140.96175 51.2011,-274.96875 2.5285,27.81279 2.8437,81.8589 0.9473,162.13672 -1.8963,80.27776 -15.4871,131.16264 -40.7715,152.6543 -26.5488,0 -65.4223,-6.95302 -116.623,-20.85938 -51.20086,-13.90637 -98.29394,-21.49168 -141.27738,-22.75585 -44.24758,0 -65.10856,53.72904 -62.58008,161.1875 3.79264,92.2878 11.06276,168.45951 21.80859,228.50976 10.74586,60.05039 -1.89755,98.29387 -37.92773,114.72849 -36.03017,16.4349 -117.57315,31.2886 -244.62695,44.5625 -127.05384,13.2743 -181.41515,45.8291 -163.08399,97.6622 18.33109,51.8328 22.43989,113.1472 12.32617,183.9433 -10.11373,70.796 -9.48145,123.8948 1.89649,159.293 11.378,35.3977 2.21104,51.2007 -27.49805,47.4082 -29.70909,-3.7927 -61.94688,1.2655 -96.71289,15.1719 -34.76596,13.906 -62.26278,18.9624 -82.49023,15.1699 l 56.89062,-20.8594 c 64.47508,-29.0772 98.60971,-60.0502 102.40235,-92.9199 -11.37793,-176.9903 -22.43969,-295.514 -33.18555,-355.5645 -10.74586,-60.0502 121.68189,-129.89926 397.28125,-209.54491 l -5.68945,-34.13281 -45.51172,9.48047 C 684.36524,803.41379 673.93578,753.1613 650.54778,719.65954 627.15975,686.15783 612.30436,627.05541 605.98333,542.3529 h -45.51172 c -22.6245,66.61659 -33.73946,77.04417 -121.66406,181.46484 -345.373728,210.35009 -194.16082,51.49485 -24.5332,-26.33789 0,0 68.47255,-99.38436 131.02734,-223.39649 29.07695,-26.54852 73.9562,-39.82226 134.63867,-39.82226 v -49.30469 c -2.52845,-35.39804 -18.33124,-49.93628 -47.4082,-43.61523 -29.07702,6.32109 -41.08619,-2.52873 -36.0293,-26.54883 18.96323,-10.11372 25.91619,-17.38385 20.85938,-21.80859 -5.05691,-4.42477 -15.17115,-7.269 -30.3418,-8.53321 0,-6.32108 -6.32075,-13.27406 -18.96289,-20.85937 12.64214,-30.34124 25.28357,-51.20216 37.92578,-62.58008 13.90636,-6.32109 27.81235,-6.32109 41.71875,0 13.90641,6.32109 27.81431,10.74698 41.7207,13.27539 v -9.48242 c -8.84957,0 -20.54353,-4.1088 -35.08203,-12.32617 -14.53846,-8.21747 -28.76156,-9.16487 -42.66797,-2.84375 5.0569,-8.84954 9.48084,-15.80246 13.27344,-20.85938 z m 133.1582,24.83008 c -1.85679,0.0395 -3.89112,0.29544 -6.10351,0.76953 -8.84957,1.89635 -17.0671,8.84932 -24.65234,20.85938 -7.5854,12.01004 -9.48212,19.91246 -5.68946,23.70507 -8.8495,3.79271 -13.58863,8.53371 -14.2207,14.22266 -0.63214,5.68894 2.21217,10.11288 8.5332,13.27344 6.32119,3.16053 15.48609,-1.26337 27.4961,-13.27344 12.01002,-12.01008 20.2275,-22.75663 24.65234,-32.23828 4.42471,-9.48165 5.05697,-16.75175 1.89648,-21.8086 -2.37039,-3.79264 -6.34163,-5.62829 -11.91211,-5.50976 z m -127.55664,8.47265 c -6.10379,-0.237 -11.76363,1.30451 -16.97851,4.62305 l -13.27539,11.37891 v 9.48047 h 5.68945 c 17.69902,7.58531 37.2954,7.58531 58.78711,0 l 20.85938,3.79297 v -11.37696 l -20.85938,-1.89648 C 652.12824,207.8077 640.72079,202.47257 630.54778,202.0775 Z m 126.43164,3.67579 c 2.68647,0.63211 3.87072,2.84408 3.55469,6.63671 -0.63214,7.58533 -3.79149,14.85346 -9.48047,21.80665 -5.68894,6.95324 -11.3793,11.69424 -17.06836,14.22265 -5.68888,2.52843 -5.68888,0.31647 0,-6.63672 5.68906,-6.95316 5.68906,-9.48222 0,-7.58593 -5.68888,1.89632 -6.95149,-0.31563 -3.79101,-6.63672 3.16057,-6.32113 7.90157,-12.64187 14.22265,-18.96289 5.68898,-2.52845 9.87607,-3.47585 12.5625,-2.84375 z m -132.0332,4.74023 c -3.7926,3.79262 -3.7926,8.21652 0,13.27344 -6.32109,-2.52842 -10.74501,-4.42322 -13.27344,-5.6875 1.26421,-2.52842 5.68814,-5.05754 13.27344,-7.58594 z m 15.17188,1.89648 15.16992,9.48047 c -6.32107,1.26422 -12.64179,1.89649 -18.96289,1.89649 6.3211,-2.52842 7.58558,-6.32005 3.79297,-11.37696 z m 79.64648,37.92579 c 6.32108,3.79267 7.26853,6.95399 2.84375,9.48242 -4.42479,2.52842 -6.95387,2.21134 -7.58594,-0.94922 -0.63214,-3.1605 0.94953,-6.00475 4.74219,-8.5332 z m -115.38086,11.02343 c -0.35557,-0.079 -0.77006,0.0394 -1.24414,0.35547 -1.89635,1.26422 -2.52861,3.16104 -1.89648,5.68946 0.63214,2.52845 -0.31723,4.42329 -2.84571,5.6875 -2.52839,1.26417 -5.37263,9.9e-4 -8.5332,-3.79102 -3.16056,-3.79271 -5.37253,-5.68945 -6.63672,-5.68945 -1.26421,0 -2.52876,0.31539 -3.79297,0.94726 -1.26428,0.63207 -1.26428,2.84405 0,6.63672 2.52842,-2.52849 5.68983,-1.89621 9.48242,1.89649 3.7927,3.7926 7.58433,5.05717 11.37696,3.79296 3.79267,-1.26418 5.68945,-4.42358 5.68945,-9.48046 0,-3.79263 -0.53292,-5.80789 -1.59961,-6.04493 z m -23.28906,29.74805 c 1.42225,-0.31605 3.39737,-0.31608 5.92578,0 5.05693,0.63207 10.43019,1.58147 16.11914,2.8457 5.68898,1.26421 7.90093,1.89453 6.63672,1.89453 h -28.44531 c -2.52849,0 -3.47589,-0.94743 -2.84375,-2.84374 0.31607,-0.94817 1.18518,-1.58044 2.60742,-1.89649 z m 28.68164,6.63672 c -2.52842,2.52842 -6.00492,4.74231 -10.42969,6.63867 -4.42481,1.89635 -7.90126,2.84375 -10.42969,2.84375 -3.79279,1.26421 -6.00484,1.26421 -6.63671,0 -0.63214,-1.26421 0.31534,-3.16095 2.84375,-5.68945 z m 212.38867,754.74221 c -26.54854,131.4787 -42.03424,209.8604 -46.45898,235.1445 -4.42476,25.2844 1.26373,51.5188 17.0664,78.6992 15.80277,27.1808 9.79718,133.0594 -18.01562,317.6348 22.75593,59.4182 24.33756,87.2321 4.74219,83.4395 -19.59538,-3.7925 -48.6738,-3.7925 -87.23243,0 -38.5586,3.7926 -72.3761,4.4245 -101.45312,1.8964 v -3.7929 c 49.30452,-10.1137 89.75989,-21.4904 121.36523,-34.1328 31.60544,-12.6423 43.6146,-69.8498 36.0293,-171.6192 -7.5853,-101.7695 -19.59446,-172.8829 -36.0293,-213.3379 -16.43482,-40.4548 -17.69939,-130.2154 -3.79296,-269.2793 35.39803,-1.2643 73.32433,-9.4817 113.77929,-24.6523 z" />
</svg>
