<?xml version="1.0" encoding="UTF-8" standalone="no"?>
<!-- Generator: Adobe Illustrator 19.0.0, SVG Export Plug-In . SVG Version: 6.00 Build 0)  -->

<svg
   version="1.1"
   id="Ebene_1"
   x="0px"
   y="0px"
   viewBox="0 0 1517.4951 1795.4159"
   xml:space="preserve"
   width="1517.4951"
   height="1795.4159"
   xmlns="http://www.w3.org/2000/svg"
   xmlns:svg="http://www.w3.org/2000/svg"><defs
   id="defs2624">
	
	
	
	
	
</defs>
<style
   type="text/css"
   id="style2613">
	.st0{fill:#010101;}
</style>
<path
   id="XMLID_9_"
   class="st0"
   d="M 1394.5908,0.01701852 C 1313.5061,-0.59187718 1252.9204,15.137589 1213.0377,47.3076 c -39.8828,32.170011 -69.5153,42.521278 -88.8985,30.952249 -19.2818,-11.569025 -29.0257,-20.600614 -29.0257,-26.994024 0,-7.712683 -14.206,-11.569434 -42.5197,-11.569434 l 1.9265,63.731979 c -12.8883,23.13806 -29.9358,26.38551 -51.1457,9.64087 -21.20992,-16.744644 -43.13142,-21.921461 -65.6606,-15.426574 -22.52918,6.393404 -36.73717,21.617044 -42.52169,45.363994 -5.78452,23.84843 -19.99053,38.96861 -42.51968,45.36201 -22.52916,6.39341 -43.1306,1.6249 -61.80342,-14.51085 -18.67281,-16.13574 -38.36011,-18.6744 -58.9611,-7.71427 -20.60098,10.96013 -31.56154,28.61895 -32.88082,53.07629 -1.31927,24.45733 -12.88912,41.50686 -34.80938,51.14771 -21.92027,9.64086 -43.12902,10.35163 -63.73001,1.92857 -20.60098,-8.32157 -40.59313,-5.7849 -59.87484,7.7123 -19.28171,13.4972 -28.01044,32.47372 -26.08226,57.03253 1.92817,24.55882 -7.10342,42.82654 -26.99403,55.10595 -19.8906,12.2794 -39.57791,17.65721 -58.9611,16.43942 -19.28171,-1.31928 -37.04203,6.80016 -53.07629,24.15369 -16.13574,17.35354 -19.68765,37.95498 -10.65569,61.80341 9.03196,23.84844 5.7845,44.4479 -9.64087,61.80144 -15.42537,17.35353 -33.48815,28.00964 -54.08913,31.86599 -20.60099,3.85634 -36.02759,16.13697 -46.37882,36.73795 -10.35124,20.60099 -8.32038,40.89759 5.7857,60.88967 14.20758,19.99209 15.72864,40.59156 4.86999,61.80144 -10.96013,21.20988 -25.77546,35.72274 -44.44827,43.43542 -18.67282,7.71268 -30.54752,23.1373 -35.72313,46.37684 -5.17562,23.13806 2.53788,43.43466 23.13887,60.88967 20.60098,17.35354 30.54631,37.95498 29.93742,61.80342 -0.6089,23.84843 -11.56946,41.81174 -32.88082,54.09114 -21.20988,12.2794 -31.86599,29.9362 -31.86599,53.0743 0,23.1381 11.2654,40.8984 33.79456,53.0763 22.52916,12.2794 33.48971,29.9382 32.88082,53.0763 -0.6089,23.1381 -11.8743,40.8964 -33.79456,53.0743 -21.92026,12.1779 -32.88082,30.2427 -32.88082,54.0911 0,23.8485 11.2654,41.5053 33.79456,53.0743 22.52916,11.569 33.48971,29.0245 32.88082,52.1626 -0.6089,23.138 -11.8743,40.8983 -33.79456,53.0763 -21.92026,12.2794 -32.88082,30.5451 -32.88082,55.1039 L 0,1492.8238 c 0,0 141.31189,190.4256 131.53573,301.6293 l 212.62203,-0.3698 c 9.77616,-139.3102 133.66625,-298.8155 133.66625,-298.8155 l -242.26979,-1.222 c 0,-24.4573 10.65611,-42.8245 31.866,-55.1039 21.20988,-12.2794 32.17043,-29.9383 32.88081,-53.0763 0.6089,-23.1381 -9.94573,-40.5936 -31.86599,-52.1626 -21.92026,-11.569 -32.88082,-29.3273 -32.88082,-53.0743 0,-23.8484 10.65611,-41.8117 31.866,-54.0911 21.20988,-12.2794 32.17043,-29.9362 32.88081,-53.0743 0.6089,-23.1381 -9.94573,-40.8984 -31.86599,-53.0763 -21.92026,-12.2794 -32.88082,-29.9382 -32.88082,-53.0763 0,-23.1381 10.65611,-40.8964 31.866,-53.0743 21.20988,-12.2794 31.86599,-30.24271 31.86599,-54.09114 0,-23.84844 -9.94534,-41.80973 -29.93743,-54.08914 -19.99208,-12.27941 -27.70559,-30.24268 -23.13886,-54.09112 4.46523,-23.84843 15.4258,-37.65051 32.88082,-41.50685 17.35353,-3.85635 31.56155,-16.13499 42.52168,-36.73598 10.96013,-20.60098 9.3356,-40.59313 -4.87197,-59.87484 -14.20758,-19.28171 -16.43941,-39.57831 -6.79855,-60.88967 9.64085,-21.20989 23.54442,-31.86599 41.50685,-31.86599 18.06392,0 34.80862,-8.72675 50.23398,-26.08029 15.42538,-17.35353 18.36798,-37.04282 8.72713,-58.96308 -9.64086,-21.92026 -6.3934,-41.81093 9.64086,-59.87484 16.03426,-18.06392 31.86521,-24.7618 47.29058,-20.29656 15.42537,4.46523 33.49013,0.30602 54.09112,-12.58228 20.60098,-12.88831 29.93702,-31.56236 28.00885,-56.01969 -1.92817,-24.45733 6.79858,-43.43385 26.08029,-57.03253 19.28171,-13.4972 37.65092,-15.42656 55.10594,-5.78571 17.35354,9.64086 37.04084,9.9453 58.9611,1.01483 21.92026,-8.93047 33.79496,-25.77666 35.72313,-50.23398 1.92817,-24.45733 13.49604,-42.21566 34.80741,-53.07431 21.20988,-10.96013 38.97019,-8.01751 53.07629,8.72713 14.20758,16.74463 32.87965,21.91948 56.0177,15.42459 23.13807,-6.39341 37.34606,-21.20874 42.52169,-44.44828 5.17562,-23.13805 16.74547,-37.65091 34.8094,-43.43542 18.06394,-5.78451 37.34526,0.30407 57.94628,18.36799 20.6011,18.06391 37.3457,18.06391 50.234,0 l -1.9286,71.44428 c 28.3137,0 42.5217,-3.85676 42.5217,-11.56944 0,-6.3934 9.6405,-15.72944 29.0237,-28.00885 19.2817,-12.27941 48.9143,-1.92814 88.8985,30.95225 39.9842,32.88039 100.7729,49.21915 182.568,49.21915 81.795,0 122.3886,-48.00026 121.6782,-143.9014 C 1516.7756,49.034093 1475.6754,0.72739692 1394.5908,0.01701852 Z m -13.498,33.99673348 c 66.9785,0 100.4679,34.809458 100.4679,104.325098 -0.1015,68.09487 -33.8953,102.49682 -101.4828,103.2072 -67.5874,0.60889 -120.0537,-16.44064 -157.3994,-51.14772 -37.3456,-34.80857 -77.9391,-41.81128 -121.6782,-21.2103 V 107.3866 c 43.7391,20.60098 84.3326,13.49678 121.6782,-21.2103 37.3457,-34.808561 90.1164,-52.162548 158.4143,-52.162548 z m -98.7495,288.143718 c -13.3323,0.36471 -26.9619,1.53929 -40.8904,3.5182 -55.7141,7.91565 -95.8002,50.63881 -120.1561,128.17157 -13.8016,18.06392 -29.734,42.42103 -47.798,73.27176 -8.5245,20.19506 -8.5245,31.56036 0,34.19891 8.5246,2.63855 15.4258,6.59718 20.7029,11.97576 -6.3934,4.26228 -9.0327,8.21892 -7.9164,11.97378 1.0148,3.75486 4.7697,6.09055 11.1631,7.20686 2.1311,-1.01483 0.5082,0.50662 -4.7689,4.7689 -5.2771,4.26228 -4.4669,8.2209 2.434,11.97576 6.9008,3.75486 10.3524,14.61275 10.3524,32.67667 0,16.9476 9.5386,24.96476 28.6174,23.84845 21.2099,1.01483 36.6352,0.50781 46.1746,-1.62333 l 1.6233,19.07758 c -50.9442,10.65568 -96.0015,29.22747 -135.2753,55.71444 -53.07555,37.14266 -109.80494,151.81884 -170.39006,343.92562 v -1.6233 c -66.87708,27.6033 -153.84881,54.0907 -261.116,79.5629 -49.92948,-2.1312 -90.72445,-3.7561 -122.59002,-4.7709 -31.86556,-1.0149 -75.40136,25.4726 -130.50646,79.5629 -4.26227,18.0639 -1.0164,32.3734 9.5378,43.0291 10.5542,10.6557 18.06393,11.6701 22.32621,3.1455 13.80165,-21.2099 30.54673,-37.9549 50.13289,-50.1329 19.58616,-12.1779 47.49438,-15.6275 83.62221,-10.3504 -26.48697,19.0788 -51.24922,28.1099 -73.98134,27.0951 -22.83361,-1.0148 -34.19891,5.8864 -34.19891,20.7029 51.95913,16.9476 116.19667,2.1307 192.61314,-44.5514 80.67873,3.146 147.55721,-1.6233 200.63265,-14.3086 -14.81646,22.3262 -59.97719,73.2702 -135.27734,152.8326 -37.14266,-5.2771 -69.21169,-9.3352 -96.30756,-11.9737 -27.09587,-2.6386 -75.09733,18.8758 -144.10556,64.4416 -6.3934,18.0639 -4.76849,32.677 4.77088,43.7386 9.53937,11.1631 16.94764,12.4828 22.32622,3.9583 14.81647,-19.0788 32.87925,-33.6939 54.08913,-43.7407 21.20988,-10.0468 49.93076,-10.8571 85.95711,-2.434 -28.61812,16.9476 -54.3944,23.6451 -77.22801,19.8902 -22.8336,-3.7548 -35.3164,2.4356 -37.44754,18.2669 50.94431,22.3262 124.72205,10.0471 221.33356,-36.6349 112.5443,-69.0083 194.74476,-153.341 246.80532,-253.0984 37.1427,-63.7311 67.38508,-149.0779 90.72608,-256.3452 10.6557,25.47216 25.4726,72.45759 44.5513,140.8569 17.7595,63.7311 18.9765,152.8328 3.7541,267.5083 -0.8119,6.0889 -3.3481,7.7143 -4.2615,13.8032 -181.34956,95.0893 -307.08701,174.2453 -377.00857,237.6719 -86.36176,57.9466 -107.6732,119.1413 -63.93416,183.5828 26.18253,57.9465 148.57181,51.8568 367.16563,-18.0648 163.8945,-71.0378 252.9953,-106.5569 267.2029,-106.5569 24.0514,30.5463 24.0514,71.5451 0,122.8953 -38.259,14.2075 -52.4666,28.9242 -42.6228,44.2481 26.1826,1.1163 53.2785,-0.3045 81.1863,-4.0593 27.9077,-3.8564 48.6106,-39.3755 62.3108,-106.557 13.7002,-67.1816 21.311,-114.777 22.9347,-142.5833 1.6237,-27.9077 -10.1475,-42.3191 -35.2137,-43.4354 19.6877,-46.9866 21.3102,-100.5703 4.87,-160.6481 1.0148,-17.658 1.9298,-34.2995 2.6401,-50.6383 l 0.9118,0.3033 c 1.0148,-118.8363 13.8032,-232.9035 38.1591,-345.95527 24.3559,-113.05171 1.0147,-200.32669 -70.0231,-261.92668 v -52.56689 c 25.9796,-9.13344 51.4505,-28.82233 75.9079,-58.55676 24.4573,-29.73442 36.6349,-70.5294 36.6349,-122.59001 0,-52.06062 -23.0358,-87.07225 -69.2105,-105.03469 -34.631,-13.54794 -71.9454,-19.73364 -111.9422,-18.63953 z m -5.752,25.9574 c 24.2201,0 51.7562,4.12274 82.5816,12.36821 49.3205,13.29424 73.9813,42.21688 73.9813,86.76778 0,45.66721 -16.4418,84.33223 -49.3222,116.19779 -32.8803,32.06853 -54.0895,40.5939 -63.6289,25.67594 -10.6557,-13.80165 -2.4348,-33.99637 24.6611,-60.48335 27.0959,-26.48697 33.9951,-52.56851 20.7009,-78.04065 -13.2943,-25.47215 -42.2169,-27.60409 -86.7678,-6.39421 -15.9328,-16.94761 -51.9585,-29.73368 -108.2813,-38.25822 11.6705,-27.60329 33.6919,-45.36242 66.0649,-53.37955 12.1398,-2.96837 25.4783,-4.45374 40.0104,-4.45374 z m -118.6596,83.61031 c 44.551,3.14597 81.6945,14.81651 111.4289,35.01156 -1.0148,16.94761 5.8864,17.75988 20.7029,2.43599 14.8165,-15.42537 29.4296,-19.89141 43.7387,-13.498 14.3091,6.3934 16.439,20.19588 6.3922,41.40576 -10.0468,21.20989 -23.6455,39.27266 -40.5931,54.08914 -16.9477,14.81647 -21.0057,29.42962 -11.9738,43.73869 9.032,14.30905 15.121,26.79186 18.2669,37.44754 v 78.04066 c 69.0082,31.56111 93.0601,103.51334 72.4591,215.44874 -18.3683,99.14864 -29.6337,198.09454 -37.3464,317.64114 l -4.5668,1.4192 c -32.4745,5.3786 -76.8221,18.7755 -133.0435,40.2898 l -71.3432,21.6147 c 14.0046,-108.891 12.7872,-194.9485 -3.653,-258.2737 -17.5565,-67.38453 -28.9218,-141.46593 -34.1989,-222.04318 -6.3934,-66.87709 36.635,-105.64359 128.9843,-116.19779 0,-47.79834 -18.2666,-69.5165 -54.9018,-65.25422 -36.6353,4.26227 -51.7575,-7.91529 -45.3641,-36.63489 22.3263,-11.67051 29.9387,-20.19468 23.0379,-25.47179 -6.9009,-5.27709 -18.8767,-9.03196 -35.8243,-11.1631 1.0148,-8.52455 -6.9008,-16.44022 -23.8484,-23.84846 15.9328,-37.14266 32.3726,-63.1227 49.3202,-78.04065 14.8165,-8.52455 30.7489,-8.72831 47.798,-0.81266 16.9476,7.91565 34.5049,13.49721 52.5689,16.74466 v -11.16311 c -11.6705,0 -25.98,-4.7693 -43.0291,-14.30867 -17.0491,-9.53937 -34.503,-11.16231 -52.5669,-4.7689 6.3934,-10.65568 12.1767,-18.57135 17.5553,-23.84846 z m 163.9859,28.46276 c -2.7719,0.0652 -5.9839,0.59264 -9.631,1.57575 -11.6705,3.14597 -22.0213,11.67014 -31.0533,25.47179 -9.032,13.80164 -11.3657,23.84925 -7.2049,30.24266 -9.5394,4.26227 -15.1209,9.84384 -16.7446,16.74466 -1.6238,6.90082 1.6241,11.97536 9.5397,15.12133 7.9157,3.14596 19.5862,-2.4356 35.0116,-16.74466 15.4254,-14.30905 25.2688,-27.29928 29.5311,-38.96979 4.2623,-11.67051 5.0745,-20.70368 2.436,-27.09709 -1.814,-4.39547 -5.7866,-6.48801 -11.8846,-6.34465 z m -161.4112,11.3395 c -6.0263,0.0886 -11.6884,1.63325 -16.9844,4.64602 l -15.9341,14.31065 v 11.16311 h 7.9165 c 20.1951,10.65568 43.5361,10.65568 70.0231,0 l 25.4718,4.7689 v -12.78644 l -25.4718,-1.62333 c -16.7446,-13.81433 -31.763,-20.67376 -45.0211,-20.47891 z m 157.009,3.93246 c 4.3165,0.1998 6.037,2.83995 5.1237,7.92042 -1.6237,9.03196 -6.0898,18.06315 -13.498,27.09511 -7.4083,9.03196 -14.3095,14.81728 -20.7029,17.55731 -6.4949,2.53707 -6.4945,-0.40673 -0.1015,-8.93127 6.3934,-8.52455 6.3934,-11.36568 0,-8.72713 -6.3934,2.63855 -7.4079,-8e-4 -3.1456,-7.91645 4.2623,-7.91564 10.0476,-15.62756 17.5574,-23.0358 6.4822,-2.79712 11.4092,-4.11758 14.7665,-3.96219 z m -161.3081,5.38335 c -4.2623,5.37859 -4.2623,10.65491 0,15.932 -6.3934,-1.01482 -11.6717,-3.14675 -15.934,-6.3942 2.1311,-3.14597 7.4095,-6.39184 15.934,-9.5378 z m 19.0776,3.24666 20.7029,12.78643 c -8.4231,1.01483 -16.4403,1.52224 -23.8485,1.52224 6.3934,-3.14596 7.4078,-7.91527 3.1456,-14.30867 z m 97.1202,44.55133 c 7.4082,4.26228 8.8294,8.21892 3.9582,11.97379 -4.7697,3.75486 -8.2213,3.4516 -10.3524,-0.81068 -2.1312,-4.26228 8e-4,-7.91566 6.3942,-11.16311 z m -140.5557,15.69415 c -0.3431,-0.0309 -0.7143,0.0476 -1.1139,0.23786 -2.1311,1.01483 -2.9434,3.14676 -2.436,6.39421 0.5075,3.14596 -0.8122,5.27591 -3.9582,6.39222 -3.146,1.01483 -6.3938,-0.50662 -9.5398,-4.76889 -3.1459,-4.26228 -5.8848,-6.39421 -7.9144,-6.39421 -2.1312,0 -3.7561,0.509 -4.7709,1.62531 -1.0149,1.01482 -1.0149,3.14478 0,6.39222 3.1459,-3.14596 6.9008,-1.82628 11.1631,3.95823 4.2623,5.88599 9.0315,7.40745 14.3086,4.7689 5.2772,-2.63855 7.7144,-6.5952 7.207,-11.97378 -0.4948,-4.28765 -1.4584,-6.49807 -2.9455,-6.63207 z m -28.1852,34.88273 c 1.5983,-0.26639 3.7299,-0.14072 6.3684,0.36669 5.2771,1.01483 11.6693,2.13074 19.0776,3.14557 7.4082,1.01483 10.6561,1.62531 9.5398,1.62531 l -35.0116,1.62333 c -3.1459,-1.01483 -4.1604,-2.63974 -3.1455,-4.77088 0.5074,-1.06557 1.5729,-1.72362 3.1713,-1.99002 z m 33.4635,9.90647 c -1.0148,2.13114 -4.4644,4.26307 -10.3504,6.39421 -5.886,2.13113 -10.3521,3.75407 -13.498,4.76889 -4.2623,0 -6.9013,-0.50701 -8.0176,-1.62332 -1.0148,-1.01483 -0.5058,-3.14676 1.6254,-6.39421 z m 208.9535,689.88081 -11.4684,68.8041 c 21.8188,56.8304 19.5862,108.7897 -6.5963,155.7761 -76.518,44.7539 -168.2574,72.6621 -275.3216,83.6222 -107.06433,10.9602 -197.78972,50.2348 -272.07505,118.0253 42.62273,-103.8168 79.76431,-170.9997 111.4269,-201.6475 31.66263,-30.5463 93.46575,-70.531 185.20615,-119.6486 91.7403,-49.1176 181.3502,-84.1276 268.8283,-104.9316 z M 77.666462,1542.6447 399.13697,1543.497 c 0,0 -83.04896,114.0853 -90.38108,209.4028 l -128.17463,-0.8522 C 161.02895,1644.5099 77.666462,1542.6447 77.666462,1542.6447 Z"
   style="stroke-width:1.01483" />
</svg>
