<?xml version="1.0" encoding="UTF-8" standalone="no"?>
<svg
   width="1465.8905"
   height="1799.9265"
   id="svg1306"
   version="1.1"
   xmlns="http://www.w3.org/2000/svg"
   xmlns:svg="http://www.w3.org/2000/svg"
   xmlns:rdf="http://www.w3.org/1999/02/22-rdf-syntax-ns#"
   xmlns:cc="http://creativecommons.org/ns#"
   xmlns:dc="http://purl.org/dc/elements/1.1/">
  <metadata
     id="metadata1313">
    <rdf:RDF>
      <cc:Work
         rdf:about="">
        <dc:format>image/svg+xml</dc:format>
        <dc:type
           rdf:resource="http://purl.org/dc/dcmitype/StillImage" />
        <dc:creator>
          <cc:Agent>
            <dc:title>Serge Thomas</dc:title>
          </cc:Agent>
        </dc:creator>
        <dc:date>03/04/06</dc:date>
        <dc:publisher>
          <cc:Agent>
            <dc:title>Serge Rosmorduc</dc:title>
          </cc:Agent>
        </dc:publisher>
        <dc:description>variante optimisée du signe de Jsesh</dc:description>
        <cc:license
           rdf:resource="http://creativecommons.org/licenses/GPL/2.0/" />
      </cc:Work>
      <cc:License
         rdf:about="http://creativecommons.org/licenses/GPL/2.0/">
        <cc:permits
           rdf:resource="http://web.resource.org/cc/Reproduction" />
        <cc:permits
           rdf:resource="http://web.resource.org/cc/Distribution" />
        <cc:requires
           rdf:resource="http://web.resource.org/cc/Notice" />
        <cc:permits
           rdf:resource="http://web.resource.org/cc/DerivativeWorks" />
        <cc:requires
           rdf:resource="http://web.resource.org/cc/ShareAlike" />
        <cc:requires
           rdf:resource="http://web.resource.org/cc/SourceCode" />
      </cc:License>
    </rdf:RDF>
  </metadata>
  <defs
     id="defs1311" />
  <path
     id="path1308"
     style="fill:#000000;stroke:none;stroke-width:98.5783"
     d="M 1057.0195 0.48046875 C 981.26775 -4.9723671 929.36291 35.924576 901.30664 123.16992 L 899.20117 145.66211 C 873.95062 178.3791 858.8708 197.8069 853.96094 203.94141 C 849.05115 210.07584 856.41735 217.23091 876.05664 225.41016 L 873.95117 235.63477 L 880.26367 239.72461 C 870.44396 246.5407 871.84736 251.9944 884.47266 256.08398 C 877.45857 262.90003 877.45857 269.71518 884.47266 276.53125 C 876.0558 288.80013 876.75646 300.38729 886.57617 311.29297 L 876.05664 341.96484 L 932.86914 341.96484 L 930.76562 323.5625 C 960.2247 318.10973 981.96799 317.08615 995.99609 320.49414 C 1010.0243 323.9022 1019.1432 335.14944 1023.3516 354.23438 C 1003.7123 366.50318 984.42241 399.56145 965.48438 453.4082 C 946.54648 507.25497 931.46665 560.76061 920.24414 613.92578 L 710.54688 607.11523 C 672.67088 570.30853 629.18242 551.9043 580.08398 551.9043 L 436.99805 167.48047 C 420.16435 100.6833 386.49537 109.54359 335.99414 194.0625 L 54.029297 625.51953 C 98.919275 666.41582 156.43558 699.81396 226.57617 725.71484 L 409.64258 212.46484 L 538 558.03906 C 518.36064 594.84571 522.56878 619.38348 550.625 631.65234 C 547.8194 672.54863 563.95318 694.3615 599.02344 697.08789 L 599.02344 705.26562 C 566.75878 702.53925 549.57294 713.10477 547.46875 736.96094 C 545.36455 760.81703 552.73076 777.51611 569.56445 787.05859 C 568.16165 819.77558 581.48669 842.27018 609.54297 854.53906 L 903.41016 853.16992 L 903.41016 867.48438 C 838.88082 874.30035 667.11325 884.18229 596.97266 897.13281 C 526.83207 910.08329 462.30285 926.78236 403.38477 947.23047 C 327.63292 970.40498 289.17405 1026.9794 306.00781 1116.9512 C 289.17405 1236.9136 286.9511 1371.1895 281.33984 1519.7793 C 282.74271 1570.2179 257.90822 1609.0695 222.83789 1636.334 C 187.76756 1671.7772 133.75868 1701.087 60.8125 1724.2617 C 13.116926 1733.8042 -6.5223203 1764.6523 1.8945312 1797.3691 L 369.7168 1797.3691 C 408.99559 1794.6427 430.73888 1774.7003 434.94727 1756.9785 C 439.15576 1739.2566 443.35093 1718.8092 433.53125 1695.6348 C 423.71157 1672.4602 418.80078 1647.5806 418.80078 1620.998 C 418.80078 1594.4157 434.93456 1529.3224 467.19922 1425.7188 C 498.06106 1343.9261 509.98479 1260.7689 502.9707 1176.25 L 505.3125 1176.25 C 508.37892 1230.6619 509.27447 1351.2141 517.26953 1406.9746 C 526.62171 1472.1997 525.85631 1540.9172 520.66602 1640.4316 C 463.15073 1659.5164 438.60255 1701.7748 447.01953 1767.209 L 505.625 1767.209 L 499.625 1799.9258 L 591.89844 1799.9258 L 591.89844 1765.1641 L 641.19141 1765.1641 L 641.19141 1664.9688 C 643.07348 1603.9768 643.71408 1540.197 644.01172 1477.543 L 1196.4961 1475.3203 C 1210.2062 1519.9218 1212.2571 1573.5611 1202.5234 1636.334 C 1145.0082 1655.4188 1120.458 1697.6791 1128.875 1763.1133 L 1187.4805 1763.1133 L 1181.4805 1795.8301 L 1273.7539 1795.8301 L 1273.7539 1761.0684 L 1323.0469 1761.0684 L 1323.0469 1660.873 C 1356.7142 1460.4814 1338.4766 1337.1087 1268.3359 1290.7598 L 1318.8379 1100.5918 C 1337.6471 1008.2561 1465.8906 818.11133 1465.8906 818.11133 L 1422.7266 728.05664 C 1422.7266 728.05664 1260.8937 868.39249 1227.1289 963.68945 C 1228.7639 959.05442 1238.7546 894.07309 1239.8691 879.24609 C 1247.1722 782.07917 1244.2949 501.46094 1244.2949 501.46094 C 1247.1006 437.39015 1235.1769 395.1317 1208.5234 374.68359 L 1259.0234 374.68359 C 1274.4543 209.73533 1263.5827 107.49396 1226.4082 67.960938 C 1189.2336 28.427911 1132.7715 5.9333143 1057.0195 0.48046875 z M 1055.4902 33.261719 C 1061.6823 33.559925 1068.1532 34.219776 1074.9043 35.242188 C 1128.9125 43.421421 1169.5944 63.870903 1196.9492 96.587891 C 1224.3041 129.30487 1234.475 210.4151 1227.4609 339.91992 L 1153.8125 339.91992 C 1096.2972 284.02838 1084.3735 239.7248 1118.041 207.00781 C 1147.5 182.47006 1160.127 160.3173 1155.918 140.55078 C 1151.7096 120.78427 1141.1872 109.87888 1124.3535 107.83398 C 1107.5196 105.78921 1094.1926 111.24288 1084.373 124.19336 C 1074.5534 137.14384 1068.2411 135.43854 1065.4355 119.08008 C 1062.6299 102.72154 1029.6637 89.771002 966.53711 80.228516 C 982.49409 46.829913 1012.1455 31.174272 1055.4902 33.261719 z M 939.18164 106.8125 C 1000.9054 112.26533 1037.3792 126.91922 1048.6016 150.77539 C 1059.8243 174.63156 1075.2553 174.97143 1094.8945 151.79688 C 1104.7141 131.34877 1113.8331 126.91858 1122.25 138.50586 C 1130.6669 150.09308 1120.1446 168.83734 1090.6855 194.73828 C 1050.0041 236.99777 1063.3309 292.20872 1130.666 360.36914 C 1102.6097 383.54372 1076.6584 382.86197 1052.8105 358.32422 C 1047.1994 324.24403 1033.8723 303.79656 1012.8301 296.98047 C 991.7879 290.16443 968.2899 288.45913 942.33789 291.86719 C 916.38587 295.27516 904.81347 292.89017 907.61914 284.71094 C 910.42473 276.53171 909.72409 269.71456 905.51562 264.26172 C 901.30717 258.80887 906.56731 256.42387 921.29688 257.10547 C 936.02645 257.78707 942.68997 253.35688 941.28711 243.81445 L 918.14062 243.81445 C 913.93217 238.36159 907.61805 234.27141 899.20117 231.54492 C 906.21528 222.00249 900.6057 213.8239 882.36914 207.00781 L 928.66211 151.79688 L 922.34766 135.43945 L 939.18164 106.8125 z M 955.22656 127.00391 C 950.49208 126.83351 946.19563 127.25881 942.33789 128.28125 C 934.6224 130.32605 929.71367 133.05295 927.60938 136.46094 C 925.50525 139.86899 925.85651 144.29911 928.66211 149.75195 C 942.69015 142.93592 954.61388 140.89274 964.43359 143.61914 C 974.25324 146.34553 983.37019 149.75214 991.78711 153.8418 C 1000.204 157.93144 1013.5311 160.65831 1031.7676 162.02148 L 1033.873 151.79688 C 1021.2479 150.43368 1010.3761 147.02709 1001.2578 141.57422 C 992.13954 136.12134 981.96867 132.03106 970.74609 129.30469 C 965.13484 127.94144 959.96105 127.17431 955.22656 127.00391 z M 955.49023 149.75195 C 946.02123 149.07036 937.77968 151.79721 930.76562 157.93164 L 916.03516 170.20117 L 920.24414 176.33594 L 928.66211 172.24609 C 946.89867 183.15177 967.23857 182.47005 989.68359 170.20117 L 1025.4551 176.33594 L 1038.0801 178.38086 L 1038.0801 166.11133 L 1012.8301 166.11133 L 987.58008 162.02148 C 975.65614 154.52386 964.95923 150.43355 955.49023 149.75195 z M 943.39062 157.93164 C 940.58503 163.3845 941.28574 168.15652 945.49414 172.24609 C 939.88288 172.24609 934.97409 170.88264 930.76562 168.15625 C 933.57122 164.06659 937.77931 160.65804 943.39062 157.93164 z M 962.32812 157.93164 L 981.26758 166.11133 C 974.25353 168.83773 967.23866 170.88291 960.22461 172.24609 C 965.83579 168.15652 966.53652 163.3845 962.32812 157.93164 z M 382.28711 181.79297 L 201.32422 674.59375 L 108.73828 621.42969 L 382.28711 181.79297 z M 1031.7676 386.95117 C 1066.8379 422.39462 1108.2224 422.39462 1155.918 386.95117 C 1188.1826 399.22005 1204.3145 424.43953 1204.3145 462.60938 C 1174.8554 493.96312 1137.3297 507.59546 1091.7383 503.50586 C 1046.1469 499.41621 1016.3367 487.82905 1002.3086 468.74414 L 1031.7676 386.95117 z M 1204.3145 507.5957 L 1204.3145 818.4082 C 1209.9256 976.54039 1165.0357 1048.2245 1069.6445 1050.9512 L 529.63867 1050.9512 C 466.51213 1059.1305 441.96213 1102.6382 455.99023 1163.9824 C 458.7959 1240.3221 451.43165 1310.5268 433.89648 1374.5977 C 416.36132 1438.6684 394.96742 1510.2387 369.7168 1589.3047 L 369.7168 1658.8281 C 400.57867 1711.9935 392.16238 1742.6644 344.4668 1750.8438 L 85.646484 1750.8438 L 85.646484 1748.7988 C 161.39833 1728.3504 213.30316 1703.8129 241.35938 1675.1855 C 294.6662 1643.8319 321.32031 1603.6183 321.32031 1554.543 C 324.12598 1431.8541 335.34892 1285.3075 354.98828 1114.9062 C 347.97422 1041.2931 372.52228 999.03261 428.63477 988.12695 C 472.12188 970.40518 529.28692 955.06949 600.12891 942.11914 C 670.97097 929.16853 856.41686 918.60306 947.59961 910.42383 C 937.7799 756.3813 951.10688 624.8321 987.58008 515.77539 C 1015.6362 532.13391 1053.162 540.99422 1100.1562 542.35742 C 1147.1505 543.72062 1181.8694 532.13347 1204.3145 507.5957 z M 583.50391 587.625 C 588.5891 587.6676 594.4636 588.03128 601.12695 588.71289 C 627.78043 591.43929 648.12034 598.59633 662.14844 610.18359 C 676.17654 621.77087 688.10216 630.97108 697.92188 637.78711 L 911.82812 644.59766 L 909.72266 683.44922 L 605.33594 670.50391 C 584.29378 660.96148 577.27898 643.92252 584.29297 619.38477 C 566.0565 611.20552 557.64017 603.36681 559.04297 595.86914 C 560.09506 590.24587 568.24834 587.49719 583.50391 587.625 z M 653.73242 709.35547 L 907.61914 716.16797 L 905.51562 744.79492 C 866.23697 746.15812 707.39032 736.27882 696.86914 728.78125 C 686.34809 721.28356 671.96898 714.80824 653.73242 709.35547 z M 609.54297 731.84961 C 644.61322 741.39203 667.0592 749.91245 676.87891 757.41016 C 686.69856 764.9078 850.80541 776.83024 901.30664 779.55664 L 903.41016 820.45312 L 624.27344 823.86523 C 606.03688 812.95957 601.12605 795.23894 609.54297 770.70117 C 588.50074 762.52194 578.33173 754.3414 579.0332 746.16211 C 579.73453 737.98288 589.90353 733.2128 609.54297 731.84961 z M 1399.832 798.47266 L 1412.3281 823.32617 C 1412.3281 823.32617 1302.8226 978.51736 1273.7539 1096.502 L 1219.0449 1300.9844 C 1284.9772 1360.9655 1311.6293 1434.9207 1299.0039 1522.8477 C 1286.3788 1610.7747 1280.0664 1679.2762 1280.0664 1728.3516 L 1172.752 1728.3516 C 1171.3491 1698.361 1196.6 1677.2318 1248.5039 1664.9629 C 1263.9348 1508.1938 1237.9814 1399.8172 1170.6465 1339.8359 C 1152.41 1319.3878 1141.89 1300.9853 1139.084 1284.627 C 1136.2783 1268.2686 1146.0979 1220.5544 1168.543 1141.4883 L 1168.543 1139.4434 L 495.9707 1139.4434 C 495.9707 1113.5422 505.08773 1099.2307 523.32422 1096.5039 L 1101.207 1096.5039 C 1136.0404 1096.5039 1172.792 1094.4851 1189.0742 1054.3945 C 1198.1044 1035.3207 1227.5459 1048.1935 1234 1035.1504 C 1273.7587 924.01738 1399.832 798.47266 1399.832 798.47266 z M 643.85742 1176.25 L 862.82422 1176.25 L 865.97461 1436.6484 L 644.15234 1437.541 C 644.31726 1331.0482 643.41291 1233.3158 643.85742 1176.25 z M 902.82617 1176.25 L 1107.832 1176.25 C 1088.1928 1237.5942 1081.1798 1277.1278 1086.791 1294.8496 C 1092.4023 1315.2978 1116.9503 1352.4463 1160.4375 1406.293 C 1167.6924 1415.2761 1173.8184 1425.1346 1179.4336 1435.3887 L 905.97461 1436.4883 L 902.82617 1176.25 z M 598.63086 1184.4688 C 599.70605 1255.8283 605.88243 1436.978 605.76953 1525.8066 C 605.66073 1611.4581 598.21094 1683.3719 598.21094 1732.4473 L 490.89453 1732.4473 C 489.49163 1702.4567 514.74249 1681.3275 566.64648 1669.0586 C 568.42328 1513.4273 565.22882 1424.394 555.92383 1335.9668 C 553.61714 1313.2428 553.33724 1201.5362 550.53125 1185.1777 L 598.63086 1184.4688 z " />
</svg>
