<?xml version="1.0" encoding="UTF-8" standalone="no"?>
<svg
   width="1025"
   height="1800"
   version="1.1"
   id="svg3750"
   sodipodi:docname="US9A24VARA.svg"
   xml:space="preserve"
   inkscape:version="1.2.2 (732a01da63, 2022-12-09)"
   xmlns:inkscape="http://www.inkscape.org/namespaces/inkscape"
   xmlns:sodipodi="http://sodipodi.sourceforge.net/DTD/sodipodi-0.dtd"
   xmlns="http://www.w3.org/2000/svg"
   xmlns:svg="http://www.w3.org/2000/svg"><defs
     id="defs3754"><inkscape:path-effect
       effect="simplify"
       id="path-effect4572"
       is_visible="true"
       lpeversion="1"
       steps="1"
       threshold="0.00172414"
       smooth_angles="360"
       helper_size="0"
       simplify_individual_paths="false"
       simplify_just_coalesce="false" /><inkscape:path-effect
       effect="simplify"
       id="path-effect4557"
       is_visible="true"
       lpeversion="1"
       steps="1"
       threshold="0.00172414"
       smooth_angles="360"
       helper_size="0"
       simplify_individual_paths="false"
       simplify_just_coalesce="false" /><inkscape:path-effect
       effect="simplify"
       id="path-effect4548"
       is_visible="true"
       lpeversion="1"
       steps="1"
       threshold="0.00172414"
       smooth_angles="360"
       helper_size="0"
       simplify_individual_paths="false"
       simplify_just_coalesce="false" /><inkscape:path-effect
       effect="simplify"
       id="path-effect4544"
       is_visible="true"
       lpeversion="1"
       steps="1"
       threshold="0.00172414"
       smooth_angles="360"
       helper_size="0"
       simplify_individual_paths="false"
       simplify_just_coalesce="false" /><inkscape:path-effect
       effect="simplify"
       id="path-effect4540"
       is_visible="true"
       lpeversion="1"
       steps="1"
       threshold="0.00172414"
       smooth_angles="360"
       helper_size="0"
       simplify_individual_paths="false"
       simplify_just_coalesce="false" /><inkscape:path-effect
       effect="simplify"
       id="path-effect4532"
       is_visible="true"
       lpeversion="1"
       steps="1"
       threshold="0.00172414"
       smooth_angles="360"
       helper_size="0"
       simplify_individual_paths="false"
       simplify_just_coalesce="false" /><inkscape:path-effect
       effect="simplify"
       id="path-effect4524"
       is_visible="true"
       lpeversion="1"
       steps="1"
       threshold="0.00172414"
       smooth_angles="360"
       helper_size="0"
       simplify_individual_paths="false"
       simplify_just_coalesce="false" /></defs><sodipodi:namedview
     id="namedview3752"
     pagecolor="#ffffff"
     bordercolor="#000000"
     borderopacity="0.25"
     inkscape:showpageshadow="2"
     inkscape:pageopacity="0.0"
     inkscape:pagecheckerboard="0"
     inkscape:deskcolor="#d1d1d1"
     showgrid="false"
     inkscape:zoom="0.42888889"
     inkscape:cx="509.45596"
     inkscape:cy="900"
     inkscape:window-width="1920"
     inkscape:window-height="1017"
     inkscape:window-x="1912"
     inkscape:window-y="-8"
     inkscape:window-maximized="1"
     inkscape:current-layer="svg3750" /><path
     id="path3748"
     style="display:inline;fill:#000000;stroke:none;stroke-width:101.163"
     d="M 707.42944,0.05392047 C 660.89466,1.4027536 618.0696,13.543198 578.9534,36.473389 535.79069,59.403575 514.88261,104.25275 516.23146,171.02006 c 3.37208,18.20925 2.36105,36.08011 -3.03427,53.61497 -4.72092,16.86043 -6.40733,34.058 -5.05849,51.59284 4.0465,10.11625 11.46544,13.15136 22.25611,9.10486 10.79069,-4.72092 14.16349,-1.34809 10.11698,10.117 -2.69767,1.34883 -3.37306,3.70852 -2.02424,7.08062 1.34884,2.69767 4.04625,3.37307 8.09275,2.02424 -4.0465,10.11625 -2.69779,14.83777 4.04637,14.16335 6.06977,-0.6744 9.44258,2.36069 10.11699,9.10488 0.67442,7.41858 4.72054,15.17312 12.13913,23.26612 7.41859,7.41859 24.61614,5.39657 51.59284,-6.06852 l 36.41946,-19.22184 c 2.02325,6.06975 6.40707,13.15097 13.15125,21.24399 -57.32546,17.53483 -99.13952,49.90796 -125.4418,97.11717 -38.44179,46.53478 -69.80179,94.75466 -94.08082,144.66154 -57.99985,-16.86043 -143.65211,-49.23146 -256.95419,-97.11507 -16.51895,-8.57817 -36.12491,-15.95932 -49.88432,-21.52232 1.23623,-46.17286 19.2036,-102.87324 24.45343,-159.7258 1.98429,-21.48858 2.41855,-40.7954 10.981,-63.73709 3.89601,-10.43874 17.65756,-37.7916 7.60264,-42.5921 -10.05595,-4.80151 -28.28171,21.80951 -33.08223,31.86592 -11.34743,23.77119 -23.32125,45.18959 -25.68188,70.7539 -3.1209,33.79726 -6.44479,67.83633 -8.96345,102.07339 -3.22471,-5.35825 -6.46884,-10.69557 -9.59655,-15.90406 C 97.275634,366.06971 83.587924,340.98579 79.475294,312.83031 69.704634,245.93988 75.520374,175.98725 100.48366,114.09256 111.86982,85.861399 125.36903,60.257632 142.33233,40.025983 162.65846,15.783537 175.92969,15.289062 169.49059,6.1950356 160.58374,-1.6176361 143.73075,3.8388346 126.14715,11.372926 94.457724,33.809948 75.905744,67.151434 63.061584,98.997646 56.518614,115.22046 51.283304,131.87102 47.060314,148.74841 36.826174,117.64917 29.596254,85.194554 28.975804,52.499141 c 1.27452,-11.068471 6.25284,-32.465013 -4.41867,-35.667237 -5.83751,-1.751689 -12.2432,8.227363 -19.0249697,33.89924 -11.89968,45.045392 11.8592597,120.779576 30.6495997,165.526786 -2.7169,34.22468 -1.55553,68.71665 3.36524,102.40439 5.44415,37.27119 22.71594,67.48268 39.25838,95.03032 11.49862,19.14831 11.76873,35.0003 18.49635,50.09938 -13.22756,-0.39991 -10.54162,-1.09399 -29.22038,2.62172 -2.69766,11.46508 3.03486,19.89713 17.19762,25.29247 -2.69767,44.51154 8.76738,67.77721 34.395226,69.80046 l 0.52927,2.8972 c -16.51539,1.51688 -35.670536,0.30993 -55.622356,-14.84865 -7.12124,-5.41013 -25.26657,-14.46635 -28.35836,-10.39743 -3.09177,4.06893 2.45287,15.12268 15.78276,30.78955 19.21178,14.59632 38.52051,36.08238 73.427236,32.48274 0.55923,-0.0576 1.13659,-0.0601 1.72693,-0.0189 l 20.84124,113.87621 c -14.83717,2.69767 -29.33734,5.05737 -43.50009,7.08062 -1.34884,12.81393 6.74339,21.24386 24.27825,25.29036 -6.06976,44.51153 6.74399,66.09291 38.4416,64.74408 13.48834,-3.70929 27.76126,-3.69951 40.46583,-11.127 7.41858,-4.04649 14.83753,-7.41932 22.25611,-10.11698 144.99969,-17.53485 234.69592,-43.50006 269.09122,-77.89532 46.53478,-72.16265 80.59432,-128.13916 102.17567,-167.92977 47.20921,38.44178 85.98814,131.84852 116.33691,280.22031 -35.74411,-1.34884 -51.93066,10.11625 -48.55858,34.39523 3.37209,24.27904 17.19684,33.04665 41.47586,26.30248 l -68.79046,415.779 c -40.46504,180.0694 -69.80094,291.6847 -88.0102,334.8474 -10.11625,34.3953 -26.97824,54.9654 -50.58284,61.7099 -24.27901,6.0698 -63.05795,24.2783 -116.33691,54.6271 -29.67437,6.0698 -46.19656,14.1641 -49.5686,24.2803 -2.69768,10.1163 4.38355,16.1865 21.24397,18.2098 16.18603,2.0232 40.12712,-0.6766 71.82472,-8.095 31.6976,-6.744 70.81425,-5.0577 117.34904,5.0586 47.20921,9.4418 67.10415,-15.8481 59.68559,-75.871 -2.69767,-37.7676 19.22143,-91.3842 65.7562,-160.8493 46.53481,-69.4649 72.16221,-151.7443 76.88321,-246.8372 l 32.3731,-32.3709 103.1856,-2.0242 2.0243,49.5707 c 18.8836,129.4881 28.9978,214.8004 30.3467,255.9399 8.7674,66.7672 0.6753,105.2107 -24.2782,115.3269 -25.6278,9.4418 -64.0691,29.3368 -115.3248,59.6856 -30.3486,4.721 -47.5464,12.1399 -51.5928,22.2561 -3.3721,10.1163 3.7091,16.5222 21.2441,19.2198 16.8602,2.6976 41.1391,2e-4 72.8367,-8.0928 31.6976,-7.4185 75.5357,-5.3944 131.5124,6.0706 56.65088,11.4651 68.11618,-18.2105 34.3952,-89.0244 2.0232,-63.3951 9.1046,-129.1504 21.24408,-197.2665 12.1394,-68.1161 5.0583,-136.9065 -21.24408,-206.3714 l 20.23188,-27.3145 12.1391,-279.2082 c 2.0232,-80.25567 -25.96398,-169.95404 -83.96368,-269.09336 -2.6977,-36.41853 -7.0816,-100.48726 -13.1514,-192.208 -5.3953,-92.39515 -30.3495,-159.16341 -74.8611,-200.30287 -44.5113,-41.81385 -69.128,-67.10572 -73.8489,-75.87319 24.9535,-17.53484 41.4757,-40.46493 49.5686,-68.79045 8.7675,-28.99995 3.3727,-68.45219 -16.1855,-118.359063 C 787.68512,22.648315 754.63862,-1.2948839 707.42944,0.05395047 Z M 702.46583,34.322633 c 36.43959,0 62.03759,18.590599 76.79049,55.767841 16.186,41.813856 16.5216,77.557726 1.01,107.232066 -16.1862,29.67432 -35.0701,40.80165 -56.6514,33.38309 -11.46505,-4.04651 -14.83582,-9.77906 -10.11486,-17.1976 9.44186,-8.76743 10.79056,-20.23248 4.04636,-34.39524 6.7442,-21.58134 7.4174,-37.4302 2.0221,-47.54646 -7.41853,-20.23251 -20.2323,-26.64044 -38.44156,-19.22185 -8.76743,5.39532 -14.49993,11.12785 -17.19762,17.19761 -50.58127,-11.46509 -89.69793,-10.11638 -117.34904,4.04637 3.37209,-26.97669 16.18795,-48.55807 38.44371,-64.744085 22.25576,-15.511601 55.97549,-26.638935 101.16144,-33.383106 5.64824,-0.758719 11.07473,-1.138636 16.28038,-1.138636 z M 692.0663,127.83625 c 6.1962,-0.37938 10.30564,3.22351 12.32889,10.81071 4.0465,11.46509 3.3711,25.62753 -2.02424,42.48798 4.04651,12.81395 2.36216,19.55921 -5.05639,20.23397 -8.09302,1.34882 -12.81455,-1.68631 -14.16335,-9.10487 -3.37209,7.41858 7.08195,26.30256 31.36101,56.65133 23.6046,31.0232 58.673,69.12674 105.2077,114.31268 46.5349,45.86038 72.1624,173.66439 76.8833,383.40811 l -140.6152,70.81259 C 737.10432,692.68159 693.26617,585.78565 624.47563,496.7626 c -16.86044,-18.88369 -21.24426,-36.75454 -13.15125,-53.61498 8.76743,-16.186 37.76774,-37.42969 87.00019,-63.73196 24.27905,-10.11624 27.65185,-22.2567 10.11699,-36.41947 -16.86044,-14.16275 -27.65217,-29.33622 -32.37309,-45.52222 -11.46509,0 -23.60344,5.0571 -36.41736,15.17337 -25.62786,12.81394 -42.15216,17.87316 -49.57071,15.17548 -7.41856,-2.69768 -11.80243,-9.1056 -13.15125,-19.22186 l 15.17548,-15.17548 c 4.72097,-4.0465 4.72097,-7.75495 0,-11.127 l -30.34885,7.08063 c 3.37209,-17.53484 -1.01173,-26.97583 -13.15124,-28.32462 -9.44181,6.06976 -15.17436,5.39433 -17.19761,-2.02424 -2.69766,-8.76743 -0.33795,-21.58117 7.08062,-38.4416 4.04651,-16.186 10.45444,-28.66206 19.22186,-37.42948 8.76743,-8.09299 20.23247,-11.80142 34.39522,-11.12699 14.16277,0.67441 27.98753,0.3367 41.47586,-1.01212 l -2.02213,-11.12911 c -10.11626,1.34878 -21.919,1.34878 -35.40734,0 -24.27903,-2.69768 -42.15199,5.05897 -53.61708,23.26822 -1.34881,-10.11625 -1.34881,-17.19749 0,-21.24397 28.99993,-20.23254 67.77888,-23.26765 116.33691,-9.10489 v 13.15125 c 6.06977,1.34883 11.12899,1.34883 15.17549,0 0,-21.58135 3.70841,-33.72181 11.12699,-36.41947 2.52907,-1.01163 4.82756,-1.5794 6.89297,-1.70584 z m -63.54431,51.27654 -15.17336,4.04638 c -14.16276,-2.69769 -26.30322,-2.69769 -36.41948,0 -10.11625,3.37206 -16.18437,7.08049 -18.20762,11.127 -2.02326,4.0465 -5.39604,7.75705 -10.11699,11.1291 l 5.0585,6.06852 8.09274,-4.04638 c 14.83719,6.74418 33.04575,1.68707 54.62709,-15.17337 l 15.17549,-2.02424 z M 188.46466,544.30907 c 83.62776,52.60455 154.7798,88.35047 213.4541,107.23415 l 43.5001,11.12701 c -28.99993,11.46509 -97.45459,35.07059 -205.36135,70.81469 -11.46509,-10.11626 -26.97626,-15.84878 -46.53435,-17.1976 L 165.19854,558.47243 c 8.76743,-2.69768 16.52196,-7.41918 23.26612,-14.16336 z m 731.40676,247.84932 c 39.1162,68.79053 58.3379,129.82627 57.6634,183.10525 -0.6743,53.27896 -6.0713,138.92916 -16.1875,256.95206 l -256.95213,-2.022 58.67343,-369.24485 z"
     sodipodi:nodetypes="sccccccccccccccccccsscsscssssccsccsscssccccccscsccccccccccsccccccccccsccccccccccccscccccccccssscccccccccccssccccccccccccccsccccccccscccccccccscccsccccccccccccccscccc" /></svg>
