<?xml version="1.0" encoding="UTF-8" standalone="no"?>
<!-- Generator: Adobe Illustrator 25.2.3, SVG Export Plug-In . SVG Version: 6.00 Build 0)  -->

<svg
   version="1.1"
   id="Ebene_1"
   x="0px"
   y="0px"
   viewBox="0 0 1190 1800"
   xml:space="preserve"
   sodipodi:docname="US9A17BVARB.svg"
   width="1190"
   height="1800"
   inkscape:version="1.2.1 (9c6d41e410, 2022-07-14)"
   xmlns:inkscape="http://www.inkscape.org/namespaces/inkscape"
   xmlns:sodipodi="http://sodipodi.sourceforge.net/DTD/sodipodi-0.dtd"
   xmlns="http://www.w3.org/2000/svg"
   xmlns:svg="http://www.w3.org/2000/svg"><defs
   id="defs434" /><sodipodi:namedview
   id="namedview432"
   pagecolor="#ffffff"
   bordercolor="#000000"
   borderopacity="0.25"
   inkscape:showpageshadow="2"
   inkscape:pageopacity="0.0"
   inkscape:pagecheckerboard="0"
   inkscape:deskcolor="#d1d1d1"
   showgrid="false"
   inkscape:zoom="1.6719666"
   inkscape:cx="655.81454"
   inkscape:cy="71.173671"
   inkscape:window-width="1920"
   inkscape:window-height="1137"
   inkscape:window-x="-8"
   inkscape:window-y="-8"
   inkscape:window-maximized="1"
   inkscape:current-layer="Ebene_1" />

<path
   id="path364"
   d="m 635.41368,3.9260546 c -10.95729,0.120514 -46.48403,-1.2028306 -54.82753,5.2456124 -5.31299,4.284159 -8.59779,15.236191 -8.25498,22.320587 -2.51598,20.018727 41.25299,13.923926 38.45162,25.2243 -1.0377,22.84888 -0.7687,45.931926 3.19341,68.516036 1.98798,9.36661 4.67529,20.32116 13.7598,25.31151 5.2372,2.70506 11.94949,1.60514 16.2636,-2.24128 -4.12631,9.7209 -6.6425,18.16195 -6.6425,24.60324 l -45.8399,91.08752 c -12.22001,21.2514 -4.58002,37.18637 22.91989,47.81704 v 20.49722 c -53.4799,-4.55032 -93.9805,-0.37814 -121.4804,12.52759 -27.50001,12.90583 -59.5898,62.62258 -96.2598,149.15809 -51.9499,91.08584 -79.8402,162.43013 -83.66021,214.0435 -3.81999,51.61328 -1.90948,88.42341 5.73052,110.43981 7.63999,22.01641 25.5894,27.70879 53.85939,17.07812 28.27001,-10.62073 64.5611,-33.01408 108.8711,-67.17131 44.31991,-34.15722 88.62951,-90.69856 132.9394,-169.64358 39.72,83.49534 59.5901,150.66675 59.58011,201.54492 0,50.8582 -4.58001,111.9596 -13.75,183.31412 -218.49982,59.2039 -326.99091,107.7886 -325.4609,145.7409 -30.56001,116.8876 -48.89981,217.8375 -55.00981,302.853 -6.11001,85.0154 -22.9199,153.7092 -50.41989,206.0875 -27.50001,52.3685 -84.80051,85.3923 -171.900409,99.0532 -42.790001,1.52 -56.53979978,11.3865 -41.2598,29.6077 15.280001,18.2112 29.0398,26.5657 41.2598,25.0456 H 197.2867 c 35.15,-10.6207 66.0901,-12.1409 92.8301,-4.5504 26.74,7.5905 50.05019,5.3065 69.9102,-6.8343 19.85999,-12.1508 19.85999,-39.8503 0,-83.1181 -19.87,-43.2677 -9.5505,-99.055 30.9394,-167.3693 40.48998,-68.3144 60.7403,-135.1181 60.7403,-200.3923 0,-66.7942 7.6399,-100.1961 22.91989,-100.1961 154.3298,6.0704 275.8098,5.3144 364.42971,-2.2761 82.50989,-24.2916 126.06059,-61.1017 130.64059,-110.44 4.59001,-49.3381 -12.22,-150.66794 -50.4199,-303.99782 0,-48.58304 20.6209,-119.17107 61.8808,-211.77699 l 119.17971,159.39989 c -15.2801,66.79427 -18.3399,148.01494 -9.1699,243.65112 -45.8401,45.543 -67.2416,93.3696 -64.1816,143.4629 15.2799,9.1105 25.2208,1.5201 29.8006,-22.7715 4.5901,-24.2915 18.3399,-39.4724 41.2599,-45.5428 9.17,42.5028 -1.5299,85.7713 -32.0898,129.7941 27.4999,12.1507 50.4297,0.01 68.7596,-36.4323 18.33,-36.4423 22.9201,-99.4417 13.7501,-189.00753 25.97,-59.21381 38.2,-141.18837 36.67,-245.93511 -32.0901,-72.87461 -70.2897,-140.42445 -114.5998,-202.66839 -44.3098,-62.24405 -77.92952,-93.3618 -100.8495,-93.3618 -48.89991,-1.52008 -74.8697,-15.18079 -77.92971,-40.99244 -3.05,-22.77149 3.819,-37.95238 20.629,-45.54277 67.2299,-50.09329 89.39061,-113.48088 66.47071,-190.1408 C 955.93709,88.278308 904.75639,49.948198 825.29649,49.948198 c -79.4499,0 -130.6406,16.69114 -153.5605,50.093182 -3.58189,5.21837 -6.38031,9.81469 -9.4024,14.58846 6.1538,-20.02132 11.11741,-40.453062 14.4102,-61.134477 2.11651,-12.445133 -5.3215,-23.873 -12.8106,-33.13549 C 656.82019,11.754597 646.8245,4.8772514 635.41368,3.9260546 Z M 641.359,60.515974 c 7.68079,0.155884 1.6875,8.379946 1.70309,13.04969 -1.0164,3.919437 -2.56059,12.000234 -3.4257,13.251474 -0.25959,-8.690819 -0.2114,-17.392268 0.1914,-26.078019 l 0.789,-0.110579 z m 161.02738,22.447398 c 59.58991,-0.755075 101.62051,20.108148 126.06052,62.620878 24.44,42.51263 29.78899,78.94661 16.0391,109.30859 -13.75,30.36188 -29.78901,51.23514 -48.12891,62.62079 -18.34,11.38574 -30.94039,-6.83522 -37.8204,-54.65325 -6.8799,-47.81813 -29.0307,-80.83212 -66.4707,-99.05318 -37.43989,-18.22116 -72.9601,-24.29336 -106.58,-18.22295 18.3299,-40.98271 57.30041,-61.855867 116.90039,-62.620878 z m -104.834,94.987878 c 18.50151,-0.4138 39.68591,4.36215 63.55471,14.32845 38.19991,15.93597 57.6892,42.5035 58.44921,79.70089 0.77,37.1973 8.79028,76.28348 24.0703,117.27613 4.58999,56.1636 19.1008,83.49524 43.5508,81.97515 24.44989,-1.52008 44.30979,9.86457 59.58979,34.15603 15.28,24.29158 13.75989,47.81903 -4.5801,70.59041 -36.67989,95.6461 -58.06969,174.58059 -64.1797,236.82463 38.20001,145.72935 53.87031,237.19276 46.9903,274.39016 -6.87999,37.1973 -25.2118,63.7648 -55.01171,79.7009 -29.78998,15.9459 -106.95838,22.7723 -231.48828,20.4971 -124.53991,-2.2751 -201.32161,-23.1503 -230.35162,-62.6228 65.70991,-45.5429 152.04011,-76.6588 259.00001,-93.3599 21.39,0 34.7614,-25.0572 40.1113,-75.15048 5.35,-50.10322 8.01959,-101.716 8.01959,-154.84947 0,-54.65344 -24.43988,-142.7005 -73.33989,-264.14832 l 32.0899,-59.20367 h 93.9707 V 371.03565 l -82.5117,9.11058 C 668.686,364.96525 667.1579,352.06836 680.90779,341.43769 l -6.8808,-20.49711 c -25.97999,6.0704 -36.66989,1.89822 -32.0899,-12.5277 4.58,-14.42591 -3.05989,-23.14842 -22.9199,-26.1886 l 48.1289,-97.92185 c 9.1688,-3.9865 19.30529,-6.10289 30.40629,-6.35118 z m -2.98639,17.82515 c -9.20299,-0.53372 -15.6649,1.3344 -19.3886,5.60405 -9.93,11.38574 -9.93,23.16025 0,35.30106 9.92999,12.14082 39.3403,6.07051 88.2402,-18.22106 -30.5625,-14.23217 -53.51319,-21.79455 -68.8516,-22.68405 z m -64.08,159.30282 c 4.58001,4.56026 9.931,6.83433 16.041,6.83433 -1.52999,24.29157 3.8191,38.33041 16.039,42.12565 12.22,3.79525 25.21101,4.18312 38.96101,1.14295 13.74998,-3.04017 24.4498,5.31434 32.08979,25.04565 -32.0899,0 -60.73919,0.37814 -85.9492,1.13321 -25.20999,0.75508 -46.9803,16.70197 -65.3203,47.81902 -18.33999,31.12689 -45.08079,69.457 -80.22069,114.99997 -35.14001,45.54287 -70.2897,86.53512 -105.42971,122.96751 36.67,-80.45518 66.47041,-170.78623 89.4004,-270.98265 38.1999,6.08034 64.5503,4.56016 79.0703,-4.55042 14.52,-9.11058 16.42851,-34.15792 5.72851,-75.15047 z"
   style="stroke-width:0.996757"
   sodipodi:nodetypes="cccccccccccscssccccccscccccsccsscccccccccccscccccccsccccccccccccsssssccscccssccscccccscccccccsccsssscsccsscscsccscc" /></svg>
