<?xml version="1.0" encoding="UTF-8" standalone="no"?>
<svg
   xml:space="preserve"
   viewBox="0 0 1655.9304 1799.4805"
   y="0px"
   x="0px"
   id="Ebene_1"
   version="1.1"
   sodipodi:docname="US9A5AVARC.svg"
   inkscape:version="1.2.2 (732a01da63, 2022-12-09)"
   width="1655.9304"
   height="1799.4805"
   xmlns:inkscape="http://www.inkscape.org/namespaces/inkscape"
   xmlns:sodipodi="http://sodipodi.sourceforge.net/DTD/sodipodi-0.dtd"
   xmlns="http://www.w3.org/2000/svg"
   xmlns:svg="http://www.w3.org/2000/svg"
   xmlns:rdf="http://www.w3.org/1999/02/22-rdf-syntax-ns#"
   xmlns:cc="http://creativecommons.org/ns#"
   xmlns:dc="http://purl.org/dc/elements/1.1/"><sodipodi:namedview
     id="namedview5647"
     pagecolor="#ffffff"
     bordercolor="#000000"
     borderopacity="0.25"
     inkscape:showpageshadow="2"
     inkscape:pageopacity="0.0"
     inkscape:pagecheckerboard="0"
     inkscape:deskcolor="#d1d1d1"
     showgrid="false"
     inkscape:zoom="0.49555556"
     inkscape:cx="896.97309"
     inkscape:cy="900"
     inkscape:window-width="1920"
     inkscape:window-height="1137"
     inkscape:window-x="-8"
     inkscape:window-y="-8"
     inkscape:window-maximized="1"
     inkscape:current-layer="Ebene_1" /><metadata
     id="metadata65"><rdf:RDF><cc:Work
         rdf:about=""><dc:format>image/svg+xml</dc:format><dc:type
           rdf:resource="http://purl.org/dc/dcmitype/StillImage" /></cc:Work></rdf:RDF></metadata><defs
     id="defs63" /><style
     id="style44"
     type="text/css">
	.st0{fill:#010101;}
</style><path
     id="XMLID_48_"
     style="display:inline"
     class="st0"
     d="M 1148.6407,0 0,2.0175781 V 1196.9708 h 160.09961 v 524.5996 h 166 V 325.11719 l 1276.04109,-2.01758 v -169 h -453.5 z m -91.9004,86 v 157.09961 l -813.64069,2.01758 V 1108.0704 H 86 V 88.017578 Z M 597.88477,397.48437 c -18.43279,0.16643 -40.05856,19.16995 -37.23438,35.63086 4.62628,27.21968 32.92316,62.72342 51.10547,82.51954 35.50394,38.62397 94.99998,51.96543 141.9082,71.86914 9.5753,3.98074 36.3636,9.89852 42.4961,18.7207 5.05662,7.31595 4.62592,28.2945 6.5625,37.43945 7.20837,35.8267 14.526,71.54637 21.73437,107.37305 -30.87766,-32.70665 -65.62884,-65.41334 -102.42383,-91.23438 -10.436,-7.31595 -21.73392,-13.4477 -32.16992,-20.76367 -19.90372,-13.98639 -35.07321,-36.90284 -53.4707,-54.33203 -18.28989,-17.32161 -38.30017,-32.92233 -60.24805,-45.29492 -9.5753,-5.37938 -59.06599,-33.67338 -68.21094,-26.35742 -14.8471,11.94224 19.14958,27.75723 24.74415,30.66211 26.1438,13.34086 44.6482,31.84464 58.74218,57.88086 -41.8516,-13.1257 -82.08747,-31.41715 -102.63672,-72.51563 -7.85389,-15.60021 -4.30447,-32.59729 -23.45507,-34.10351 -9.36013,-0.75311 -22.70033,3.33609 -29.58594,9.57617 -11.72705,10.65118 -8.50101,19.79359 -1.50781,32.05859 21.40994,37.76326 48.41697,76.604 89.62304,94.0332 20.22648,8.60702 41.41935,15.27941 62.07617,22.81055 21.94789,7.96148 57.9909,13.66151 75.3125,29.26172 15.27746,13.66364 27.86471,37.65612 40.88282,54.22461 15.81538,20.22648 31.84672,40.23836 47.66211,60.46484 22.5934,28.83348 42.28167,62.29484 67.34961,88.97657 18.07472,19.36578 38.73256,39.6966 62.72461,51.53125 26.1438,12.91051 59.49447,17.53844 88.43554,21.73437 50.88912,7.42354 101.99382,14.63327 152.99022,21.94922 12.4802,2.90487 25.0683,6.34662 37.8711,8.2832 6.8857,1.07588 12.3737,9.46861 11.9434,15.92379 -3.4428,50.4586 -0.9695,101.2394 7.0996,151.1601 8.8222,54.2243 27.7587,105.9735 37.334,159.9825 6.1325,34.8585 10.4368,71.5474 10.8672,107.9122 l -28.2969,-32.4922 C 1069.1117,1262.4033 984.97639,1197.42 945.81445,1197.42 c -37.22533,-0.9683 -60.24845,21.5172 -68.85546,67.3496 10.54359,128.0293 15.8164,221.7389 15.8164,280.9121 0,53.4711 -16.67695,93.6012 -50.13672,120.3906 -29.5866,20.9795 -49.70641,45.4024 -60.25,73.1602 -23.88445,12.3725 -48.3074,31.5246 -73.16015,57.3457 v 2.9023 c 464.45598,0 724.39128,-5.2708 779.79888,-15.8144 l 126.2011,11.5117 c 47.7689,0 53.4699,-12.3718 17.2129,-37.2246 l -77.3554,-48.7383 c -14.3092,-25.8211 -15.8147,-59.7106 -4.3028,-101.7774 -3.8732,-34.428 -17.6448,-44.0041 -41.5293,-28.6191 9.5753,-64.9828 9.5753,-120.3902 0,-166.3301 l 2.5801,-42.7129 -2.9023,0.3243 c 5.8097,-59.7113 13.1257,-122.9746 20.2265,-182.5782 8.2842,-69.7168 19.4716,-144.9215 -1.4004,-213.56252 -7.9614,-26.35897 -22.487,-44.54072 -38.5175,-66.27343 -23.8845,-32.49147 -33.1359,-39.59263 -40.0215,-79.61524 -3.7656,-22.05547 -4.3043,-18.82713 -4.627,-30.87695 77.1404,-29.69419 117.5947,-109.52577 113.1836,-189.14063 -4.1959,-77.14035 -71.7614,-105.22019 -140.4023,-111.89062 -72.1912,-7.10078 -136.4203,5.91708 -174.1836,72.40625 -10.2208,17.96713 -13.8791,39.59228 -23.8848,57.02148 -7.5312,13.1257 -19.3663,24.74574 -27.543,37.65625 -9.0373,14.20158 -27.4363,36.7941 -26.8984,55.08399 0.538,16.99884 15.8176,13.98866 27.7598,23.88672 -18.0747,12.04981 3.8722,19.04276 3.1191,20.4414 -7.7463,15.49264 -6.1327,5.16333 0.2149,19.58008 4.6263,10.436 4.1964,18.18214 6.0254,29.26367 3.9807,23.5617 18.2895,23.24024 39.4843,23.24024 10.3284,0 34.536,-2.04376 41.5293,8.60742 7.3159,10.97394 -4.1961,20.76323 -13.7715,24.85156 -25.0678,10.75876 -59.0666,6.56175 -85.5332,4.51758 -37.1176,-2.79729 -73.6963,-5.59537 -111.0293,-5.81055 -41.8516,-0.32276 -112.10632,16.78387 -139.43358,-24.20703 -18.61266,-27.86521 -24.10045,-71.22275 -34.9668,-102.85351 -28.61831,-82.8425 -59.92507,-171.92427 -119.95898,-237.55274 -18.82784,-20.54924 -39.8094,-39.37914 -63.3711,-54.4414 -9.03736,-5.80975 -57.66489,-37.11624 -68.53125,-30.12305 -18.82783,12.04982 21.73064,32.49162 26.67969,35.39648 24.96033,14.63193 41.63801,35.60977 53.47266,61.96875 -27.11209,-8.28425 -56.59318,-19.14819 -77.25,-39.58984 -10.11324,-10.00565 -18.18213,-22.59339 -24.20704,-35.50391 -3.87316,-8.39183 -5.48585,-29.5864 -10.86523,-35.61132 -4.4111,-4.92213 -10.20144,-6.96172 -16.3457,-6.90626 z m 788.36333,120.67969 c 55.6211,-0.18156 120.8812,17.18701 139.3594,65.35938 12.8029,33.45975 4.4099,75.74182 -11.9434,106.40429 -13.5561,25.3907 -47.7697,70.5779 -79.293,73.26758 -39.2693,3.33523 -9.4658,-46.90833 1.293,-59.49609 22.0555,-25.60587 53.3624,-64.98333 18.5039,-96.07617 -10.1132,-9.03736 -23.025,-10.22108 -35.9355,-8.71485 -11.4043,1.29105 -21.1924,7.20941 -32.0586,9.46875 -11.2968,2.36693 -5.8091,2.25792 -15.7071,-1.61523 -33.5674,-13.1257 -62.1892,-24.9603 -99.0918,-30.44727 10.974,-28.29554 35.6117,-45.61812 64.5528,-52.61132 14.3092,-3.4697 31.7799,-5.47855 50.3203,-5.53907 z m -119.6035,82.68164 c 11.0815,-0.75312 24.9581,3.33374 35.6093,6.02344 18.9355,4.62628 52.2888,13.23475 65.0918,29.48047 5.3794,6.77802 -3.4426,12.69451 8.7149,11.94141 8.3918,-0.53794 19.6871,-18.18299 27.541,-22.37891 18.0748,-9.5753 41.7435,-3.22655 40.8828,19.58203 -1.829,49.16756 -78.9685,73.16043 -54.9766,121.14453 21.6252,43.573 20.7651,92.84759 45.1875,135.99024 22.8086,40.23778 51.7498,65.51926 59.4961,113.82619 6.2401,38.8392 1.6126,78.649 -1.7226,117.5957 -3.658,42.2821 -7.8526,84.564 -12.2637,126.7383 -2.6897,25.9287 -5.4878,51.8567 -8.3926,77.6777 -1.2911,11.8347 -2.6894,23.7767 -3.9804,35.6114 h -0.2149 v 1.8301 c -0.4303,3.6578 -0.7533,7.2091 -1.1836,10.867 -0.2152,1.7214 -0.324,3.3337 -0.4316,4.8399 -78.7541,33.0296 -144.1678,51.6438 -196.2403,55.8398 -2.7972,-91.1267 -22.5939,-177.4137 -37.6562,-267.5722 -11.6195,-69.5016 -27.7564,-167.8384 6.7793,-233.46678 15.1699,-28.72591 41.4233,-27.75611 63.2637,-47.875 18.8277,-17.21403 30.2317,-58.74277 9.1445,-78.64649 -22.8086,-21.51753 -61.4326,5.91826 -82.3047,-15.81445 -11.2967,-11.72705 -6.0261,-23.77792 3.334,-32.27735 10.3284,-9.46771 21.8394,-12.80436 9.4668,-24.42382 -7.9615,-7.42355 -23.024,-1.61265 -30.2324,-7.09961 -3.3352,-2.47452 -6.1329,-13.45075 -11.1895,-17.53907 -12.0498,-9.79048 -15.2761,-5.70136 -7.207,-22.05468 5.487,-11.08153 11.2963,-22.05423 17.9668,-32.49024 10.7588,-16.78366 21.5193,-33.89009 43.1445,-35.5039 27.0045,-2.04417 53.684,17.5373 80.043,22.48632 6.5629,-21.62511 -76.3847,-37.33513 -92.9531,-31.52539 8.3919,-12.58775 10.7588,-21.83835 25.2832,-22.80664 z m 150.3671,27.42188 c -21.4291,-0.25452 -38.4436,28.01309 -44.3945,44.55469 -0.8607,2.36693 0.9678,9.03723 0.3223,10.2207 -1.5062,2.79728 -7.6384,5.27104 -10.3281,9.35937 -6.0249,9.14494 -8.8208,19.15025 4.0898,24.31446 31.846,12.69534 92.2005,-80.79749 54.6523,-88.00586 -1.4659,-0.28241 -2.9132,-0.42639 -4.3418,-0.44336 z m -155.8574,12.8164 c -16.461,0.32276 -36.7934,11.94108 -33.9961,29.90821 7.7463,-2.79729 12.4788,1.29014 19.9024,3.11914 13.1257,3.12005 25.3915,4.08847 38.7324,1.18359 19.1507,-4.08832 24.4214,-4.40981 43.6797,0.43164 0.2151,-4.73386 0.2168,-9.46731 0.2168,-14.20117 -6.8856,-0.43036 -16.4607,0.53831 -23.0235,-1.50586 -16.3533,-5.1642 -26.4687,-19.25831 -45.5117,-18.93555 z m 152.4141,2.90625 c 3.2327,0.13953 5.7139,2.47168 6.709,8.17383 1.9366,11.29671 -23.8849,49.48888 -36.4727,45.29297 -3.7655,-1.29106 12.3734,-16.2439 8.3926,-18.93359 -5.3793,-3.5504 -14.7387,5.7032 -8.1758,-8.28321 3.389,-7.34285 19.8489,-26.66858 29.5469,-26.25 z m -157.9004,4.94532 c -3.2276,5.80972 -3.2276,11.62012 0,17.32226 -3.1267,-5.10704 -5.1427,-2.23613 -0.4727,-0.19336 -4.6762,-1.8802 -9.2537,-3.86292 -13.7285,-6.15234 2.6897,-5.2718 9.037,-8.82482 14.2012,-10.97656 z m 18.8281,3.22851 c 7.316,4.19593 14.7407,8.39394 22.0567,12.58985 -7.8539,1.93657 -16.2452,3.00959 -24.4219,3.11718 7.5312,-0.32276 5.3766,-4.08833 -0.7559,0 5.8098,-3.87315 7.1018,-9.89729 3.1211,-15.70703 z m 95.6328,45.90235 c -3.8579,2.75489 6.5358,3.68735 1.3633,0.27148 24.361,14.60792 -25.1923,14.41916 -1.3633,-0.27148 z m -138.5742,13.70117 c -0.094,0.006 -0.187,0.094 -0.2812,0.1875 0.098,-0.0809 0.1955,-0.09 0.2929,-0.1875 0,0 0,-7e-5 -0.01,0 z m 0.127,0.10937 c -0.1496,-0.0274 -0.2964,0.004 -0.4375,0.10547 -0.2018,0.10086 -0.4028,0.20193 -0.4278,0.30274 -9.7035,6.8377 3.4146,11.82354 -12.8066,9.70312 1.6138,0.21518 -24.7441,-18.18148 -15.9219,-0.53711 11.0815,-5.59455 14.3069,14.63216 26.7871,8.71485 7.8674,-3.83282 5.0513,-17.87813 2.8067,-18.28907 z m -20.127,35.50196 c 3.5504,-0.64553 26.0378,5.27114 28.1895,5.48632 h -36.041 c -10.436,0 7.5287,-5.37874 7.8515,-5.48632 z m 26.6836,8.71484 c -4.196,4.19592 -25.6068,16.78355 -32.2773,10.2207 -5.487,-5.48697 29.2648,-9.79034 32.2773,-10.2207 z m -275.209,504.48045 c 18.18232,0 91.7739,63.5855 220.7715,190.6466 0,9.5753 -2.3675,20.9792 -7.209,34.4277 -38.1936,24.8527 -113.2906,53.0413 -225.07422,84.5643 l -14.30859,-272.4139 c 0,-24.8528 8.60629,-37.2247 25.82031,-37.2247 z m 504.5879,187.7402 v 120.3906 c -20.1189,91.7723 -70.2553,137.6055 -150.5156,137.6055 -192.044,-38.1937 -332.1224,-30.555 -420.02152,22.916 -27.75761,2.9049 -35.82813,-7.2088 -24.42383,-30.125 16.24573,-20.9797 49.70513,-43.4651 100.37891,-67.3496 304.90344,-122.3272 469.72924,-183.4375 494.58204,-183.4375 z" /></svg>
