<?xml version="1.0" encoding="UTF-8" standalone="no"?>
<svg
   width="1486.3601"
   height="1800.4987"
   id="svg2277"
   version="1.1"
   xml:space="preserve"
   xmlns="http://www.w3.org/2000/svg"
   xmlns:svg="http://www.w3.org/2000/svg"
   xmlns:rdf="http://www.w3.org/1999/02/22-rdf-syntax-ns#"
   xmlns:cc="http://creativecommons.org/ns#"
   xmlns:dc="http://purl.org/dc/elements/1.1/"><metadata
     id="metadata2284"><rdf:RDF><cc:Work
         rdf:about=""><dc:format>image/svg+xml</dc:format><dc:type
           rdf:resource="http://purl.org/dc/dcmitype/StillImage" /></cc:Work></rdf:RDF></metadata><defs
     id="defs2282" /><path
     id="path2279"
     style="fill:#000000;stroke:none;stroke-width:100.018"
     d="m 1310.7356,0.12375426 c -11.7964,0.32996791 -23.8821,1.31891884 -36.2559,2.96875004 -49.4949,6.5993247 -85.4607,42.8954267 -107.8984,108.8886757 -11.8788,14.51849 -23.4278,32.99783 -34.6465,55.43555 -11.2191,22.43771 -12.8687,34.64514 -4.9492,36.625 7.9192,1.97975 13.8587,4.95054 17.8183,8.91015 -5.2799,3.95962 -7.5898,7.58898 -6.9297,10.88867 0.6599,3.29969 6.2693,5.60986 16.8282,6.92969 2.6394,-1.31983 0.3297,-6.4e-4 -6.9297,3.95899 -7.2593,3.9596 -8.2487,7.25866 -2.9688,9.89843 5.28,2.63975 7.918,10.55917 7.918,23.75782 0,13.19865 5.6112,22.43928 16.8301,27.71875 11.2188,5.27945 25.0759,6.59876 41.5742,3.95898 16.4979,-2.63967 23.7587,3.95855 21.7793,19.79688 -1.9799,15.83839 -14.1892,25.07897 -36.627,27.71874 -22.4377,2.63974 -51.4749,18.47663 -87.1113,47.51368 l -186.10157,61.375 c -25.0774,-63.35357 -82.4004,-166.38506 -111.4375,-265.375 -27.71708,-34.31647 -57.74529,-61.37391 -90.082,-81.17188 -189.89007,-23.98377 -55.20973,3.37207 12.86914,71.27344 7.25924,15.83836 6.49467,39.14962 21.77735,47.51562 3.95964,73.91248 36.86571,149.22602 38.18554,182.22266 1.31991,32.99663 19.79917,89.09123 55.43557,168.2832 112.1885,-13.1987 222.39787,-42.23595 330.62687,-87.11132 3.9596,51.47475 6.5982,91.06998 7.918,118.7871 -71.2727,10.55891 -167.8824,22.57284 -268.83977,7.6875 -41.7177,-12.79422 -81.3688,-17.28043 -118.9532,-13.46093 -37.58427,3.81948 -75.93439,22.05056 -115.05075,54.69336 -4.38249,12.51965 -2.23912,20.50641 6.43164,23.95898 8.67075,3.45265 18.58215,1.77201 29.73243,-5.03906 22.61063,-14.90513 45.26398,-24.36723 67.96093,-28.38867 22.69685,-4.02153 44.79465,-2.75715 66.29495,3.79492 -15.5759,13.88885 -36.326,21.09724 -62.25198,21.62305 -25.92585,0.52571 -37.23128,7.97805 -33.91601,22.35742 58.97289,8.81584 109.47639,-0.70818 151.51169,-28.57227 76.5301,42.92992 170.83167,57.82419 215.70707,57.16406 44.8753,-0.65991 77.8724,-4.28927 98.9902,-10.88867 6.5992,39.59602 9.8984,79.19116 9.8984,118.78711 -97.6699,17.15822 -190.7212,42.56604 -279.15227,76.22266 -88.431,33.65654 -130.6667,81.83186 -126.707,144.52541 3.9595,62.6936 6.6004,124.7278 7.9199,186.1015 1.3199,61.3739 6.0757,41.7089 4.7558,81.3047 0,30.357 -29.3675,56.4254 -88.10153,78.2031 -58.73401,21.7779 -90.41172,41.2462 -95.03125,58.4043 -4.61951,17.1579 -0.32945,25.7364 12.86914,25.7364 h 102.94922 c 42.23572,-11.8781 75.23272,-15.1785 98.99022,-9.8985 23.7576,5.2791 46.525,2.639 68.3028,-7.9199 21.7778,-10.559 26.3981,-37.2859 13.8593,-80.1816 -12.5387,-42.8957 -13.3348,-28.5096 7.1231,-97.1426 20.4579,-68.6329 22.1074,-124.7277 4.9492,-168.2832 -17.1582,-43.5556 9.2384,-64.3437 79.19137,-62.3633 69.9529,1.9804 135.2881,2.3105 196.002,0.9902 -1.3203,47.5153 -1.6504,97.3399 -0.9903,149.4746 0.6599,52.1347 8.249,94.3704 22.7676,126.7071 14.5186,32.3367 27.0563,95.6901 37.6152,190.0605 10.5589,94.3702 2.3092,148.4851 -24.748,162.3438 -27.0573,13.8585 -57.0835,24.0883 -90.0801,30.6875 -32.9967,6.5993 -55.4337,15.838 -67.3125,27.7168 -11.8782,11.8789 -13.8588,21.4477 -5.9395,28.707 7.9192,7.2596 15.8384,12.8684 23.7579,16.8281 h 158.3828 c 23.7575,-7.9195 39.9262,-9.2389 48.5058,-3.959 8.5791,5.2789 22.4381,7.2577 41.5762,5.9375 19.1384,-1.3199 28.707,-16.4982 28.707,-45.5351 -15.8385,-50.155 -19.7984,-95.031 -11.8789,-134.627 7.9192,-39.5958 14.848,-87.4408 20.7871,-143.5351 5.9393,-56.0942 -2.9689,-123.7378 -26.7265,-202.9297 l 51.4746,-247.4746 c 34.3166,-31.67674 44.5462,-86.45014 30.6875,-164.32227 -13.8583,-77.87206 -21.1191,-150.79646 -21.7793,-218.76953 -0.66,-67.97301 1.9808,-129.67699 7.9199,-185.11133 5.9393,-55.43435 -7.5893,-93.04969 -40.5859,-112.84766 -32.9967,-19.79805 -56.7549,-46.85541 -71.2735,-81.17187 34.3165,-7.91923 62.0344,-24.41675 83.1524,-49.49414 21.1178,-25.07747 31.6777,-60.05426 31.6777,-104.92969 0,-44.875376 -20.1289,-74.573246 -60.3848,-89.0918 -30.1918,-10.8888663 -62.9821,-15.83755949 -98.371,-14.84765574 z M 101.20527,3.696398 V 102.81164 L 0,104.42454 v 99.49609 H 101.76562 V 371.27024 H 0 V 470.7761 H 101.76562 V 638.12376 H 0 v 97.24218 H 101.76562 V 902.70383 H 0 v 99.50387 h 101.76562 v 167.3496 H 0 v 99.5059 H 101.76562 V 1436.403 H 0 v 97.25 h 101.76562 v 167.3399 H 0 v 99.5058 h 744.01367 v -99.5058 H 642.24805 V 1533.653 h 101.76562 v -97.25 H 642.24805 v -167.3398 h 101.76562 v -99.5059 H 642.24805 V 1002.2077 H 744.01367 V 902.70383 H 642.24805 V 735.36594 H 744.01367 V 638.12376 H 642.24805 V 470.7761 H 744.01367 V 371.27024 H 642.24805 V 203.92063 H 744.01367 V 104.42454 H 639.49257 V 5.3093012 H 556.77042 V 104.42454 L 404.85761,103.72123 408.07683,2.0100174 317.74067,1.9046576 319.34008,103.39114 186.195,102.81164 V 3.696398 Z M 1321.0051,23.385473 c 17.4882,0.989912 36.9565,4.12481 58.4043,9.404296 42.8956,10.558908 64.3437,34.975838 64.3437,73.251961 0,39.59594 -14.1892,72.92325 -42.5664,99.98046 -28.3769,27.05719 -46.5239,33.98576 -54.4433,20.78711 -9.2391,-10.55891 -2.3107,-27.38673 20.7871,-50.48437 23.0974,-23.09764 28.7069,-45.53469 16.8281,-67.3125 -11.8788,-21.777731 -36.2958,-23.427296 -73.252,-4.94922 -13.1986,-14.518494 -44.2157,-25.078415 -93.0507,-31.677737 10.5591,-23.757557 29.3667,-38.935765 56.4238,-45.535157 13.5286,-3.299662 29.0372,-4.454755 46.5254,-3.464843 z M 1206.177,92.184301 c 38.2762,3.959583 69.9537,13.858879 95.0312,29.697269 -1.3199,15.83838 4.6197,16.82732 17.8184,2.96875 13.1987,-13.85865 26.0667,-17.81831 38.6054,-11.87891 12.5387,5.93941 14.1883,17.81857 4.9493,35.63672 -9.239,17.81821 -21.1183,32.99642 -35.6368,45.53516 -14.5185,12.53866 -16.4983,35.30606 -5.9394,68.30273 10.559,32.99664 32.3378,63.02471 65.334,90.08203 32.9964,27.05723 46.525,57.74403 40.5859,92.06055 -5.9391,34.31648 -8.9082,92.06063 -8.9082,173.23242 0,81.17166 7.589,160.36403 22.7676,237.57617 15.1784,77.21215 -5.9394,124.39646 -63.3535,141.55469 -57.4142,17.15782 -149.8069,25.73832 -277.1739,25.73832 -127.36697,0 -183.78987,27.718 -169.27137,83.1523 14.5185,55.4343 13.8579,119.7768 -1.9805,193.0293 -15.8383,73.2526 -14.7119,58.538 -6.1328,96.1543 8.5791,37.6167 -2.6394,53.1246 -33.6563,46.5254 -31.0167,-6.5992 -63.0248,-5.2798 -96.02146,3.959 -32.99663,9.2387 -62.03387,12.538 -87.11133,9.8984 106.90909,-34.3165 163.66439,-68.6326 170.26369,-102.9492 2.6398,-184.7812 -0.1364,-242.6589 1.1836,-313.9317 1.3198,-71.27267 148.48597,-127.3673 441.49607,-168.28315 v -35.63672 h -43.5567 c 0,-76.55223 -5.9395,-122.74761 -17.8183,-138.58594 59.3939,-75.23231 107.2389,-145.84457 143.5351,-211.83789 36.2964,-65.99325 30.6871,-103.28022 -16.8281,-111.85937 -47.5151,-8.57907 -102.9491,60.38557 -166.3027,206.89062 -2.6394,-42.23568 -3.2988,-88.43101 -1.9785,-138.58593 -134.6264,54.11449 -248.79547,87.10953 -342.50587,98.98828 -30.357,-71.27268 -47.515,-130.33615 -51.4746,-177.19141 -3.9596,-46.85519 -38.84557,-108.64008 -44.12502,-141.63672 l 9.89844,-13.85937 c 26.39728,95.03028 83.72028,203.34083 111.43748,281.21289 22.4378,6.59932 104.27057,-18.47817 245.49607,-75.23242 21.1179,-27.71714 60.713,-42.23484 118.7871,-43.55469 v -51.47461 c -3.9595,-36.95617 -20.7874,-52.46477 -50.4844,-46.52539 -29.697,5.9394 -41.9069,-2.97096 -36.6269,-26.72852 19.7978,-10.55891 26.7282,-18.14803 20.7891,-22.76757 -5.9393,-4.61953 -16.169,-7.58827 -30.6875,-8.90821 0,-6.59925 -7.2588,-13.85812 -21.7774,-21.77734 14.5186,-31.67679 28.3774,-53.45524 41.5762,-65.33399 14.5184,-6.59928 28.7059,-6.59928 42.5644,0 13.8587,6.5993 28.048,11.21959 42.5664,13.85938 v -9.90039 c -9.239,0 -21.1181,-4.28804 -35.6367,-12.86719 -14.5185,-8.57915 -29.0361,-9.56999 -43.5547,-2.9707 5.28,-9.23906 9.8979,-16.497926 13.8575,-21.777349 z m 139.0195,24.560549 c -1.9385,0.12376 -4.0634,0.51584 -6.3731,1.17578 -9.239,2.63975 -18.1468,10.22885 -26.7265,22.76758 -8.5785,12.53874 -10.8894,20.78843 -6.9297,24.74805 -7.9187,3.95958 -12.2072,8.91023 -12.8672,14.84961 -0.6602,5.93937 2.309,10.22741 8.9082,12.86718 6.5993,2.63968 16.1683,-1.97867 28.707,-13.85742 12.5388,-11.87882 21.1185,-22.76897 25.7383,-32.66797 4.6189,-9.89898 5.2781,-17.81844 1.9785,-23.75781 -2.4747,-4.45475 -6.6199,-6.49628 -12.4355,-6.125 z m -133.1719,10.20898 c -6.3724,-0.24747 -12.2821,1.36153 -17.7265,4.82618 l -13.8575,11.8789 v 9.89844 h 5.9395 c 18.478,7.91922 38.9354,7.91922 61.373,0 l 21.7774,3.95898 v -11.87695 l -21.7774,-1.98047 c -13.1985,-10.72387 -25.1077,-16.29262 -35.7285,-16.70508 z m 131.9961,3.5879 c 2.8048,0.49496 4.043,2.55789 3.7129,6.1875 -0.66,7.25924 -4.2914,14.84833 -10.8906,22.76757 -6.5992,7.91913 -12.5365,13.19812 -17.8164,15.83789 -5.28,2.63977 -5.28,0.33158 0,-6.92773 5.2799,-7.25901 5.2799,-9.89978 0,-7.91992 -5.2789,1.97976 -6.2703,-0.3304 -2.9707,-6.92969 3.2997,-6.59932 8.2503,-13.19759 14.8496,-19.79687 5.9392,-2.63973 10.3104,-3.71372 13.1152,-3.21875 z m -137.8437,3.21875 c -3.9596,5.27945 -3.9596,9.89779 0,13.85742 -6.5992,-1.31985 -11.218,-2.63904 -13.8575,-3.95899 1.3199,-2.63966 5.9381,-5.93882 13.8575,-9.89843 z m 15.8379,3.95898 15.8398,9.89844 c -6.5993,1.31973 -13.1995,1.98047 -19.7988,1.98047 6.5993,-2.63977 7.9186,-6.59947 3.959,-11.87891 z m 83.1523,37.61523 v 0.002 c 5.3322,5.22553 5.9383,9.23717 1.9785,11.87695 -3.9596,2.63947 -6.5997,2.31141 -7.92,-0.98828 -1.3202,-3.2997 0.6605,-6.93101 5.9395,-10.89063 z m -121.7578,12.86914 c -1.9794,0.66002 -2.9688,2.63976 -2.9688,5.93946 0,3.29969 -0.9913,5.60985 -2.9707,6.92969 -1.9803,1.31993 -4.6184,-0.32969 -7.9179,-4.94922 -3.2996,-4.61953 -5.6094,-6.92969 -6.9297,-6.92969 -2.6404,0 -4.291,0.66062 -4.9512,1.98047 -0.6601,1.31993 -0.3301,3.29977 0.9902,5.93945 v 0 c 2.6395,-1.31985 5.9387,-6.2e-4 9.8984,3.95899 3.9594,3.95958 7.9191,5.27882 11.8789,3.95898 3.9587,-1.31984 5.9395,-4.61897 5.9395,-9.89844 0,-5.27945 -0.9904,-7.58981 -2.9707,-6.92969 z M 176.39258,203.92063 H 569.88086 V 1703.2566 H 176.39258 Z m 983.75312,14.47461 c 1.3199,-0.32995 3.1354,-0.16387 5.4453,0.49609 4.6194,1.31984 10.2291,2.63904 16.8282,3.95899 6.5991,1.31964 9.2402,1.98047 7.9199,1.98047 h -31.6778 c -1.3204,0 -1.6503,-1.31921 -0.9902,-3.95899 0.3301,-1.31993 1.1548,-2.14661 2.4746,-2.47656 z m 30.1934,8.41406 c -2.6394,2.63978 -6.2689,4.94984 -10.8887,6.92969 -4.6192,1.97957 -8.9093,2.9707 -12.8691,2.9707 -2.6395,1.31985 -4.6192,1.31985 -5.9395,0 -1.3202,-1.31992 -8e-4,-3.29967 3.959,-5.93945 z m 186.1015,179.17383 c 25.0777,0.65991 21.7765,24.74654 -9.9004,72.26172 -31.6766,47.51517 -73.9123,110.86866 -126.707,190.06055 -39.5959,18.47814 -95.3603,25.4086 -167.293,20.78906 -71.9328,-4.6195 -137.81187,-29.49849 -157.14247,-45.03125 103.21307,16.78815 214.22777,5.76446 298.69917,-3.47461 15.8384,-13.19866 40.5856,-55.76461 74.2422,-127.69727 33.6566,-71.93265 63.0242,-107.56832 88.1015,-106.9082 z m 33.6563,622.64457 c -26.3973,128.0268 -41.9056,204.9091 -46.5254,230.6464 -4.6195,25.7373 1.32,53.1253 17.8184,82.1621 16.4981,29.0372 10.2283,139.9073 -18.8086,332.6075 23.7571,62.0335 25.4072,91.0711 4.9492,87.1113 -20.458,-3.9597 -51.1448,-3.9597 -92.0606,0 -40.9158,3.9598 -75.8928,4.6199 -104.9297,1.9805 v -5.9395 c 51.4747,-9.2391 93.7104,-20.7879 126.7071,-34.6465 32.9962,-13.8585 45.5367,-73.5827 37.6172,-179.1718 -7.9191,-105.5892 -20.7874,-179.833 -38.6055,-222.7286 -17.8186,-42.8957 -12.8691,-130.0128 -12.8691,-262.3222 v 0 c 50.1547,-7.9192 92.3905,-17.8186 126.707,-29.6972 z" /></svg>
