<?xml version="1.0" encoding="UTF-8" standalone="no"?>
<!-- Generator: Adobe Illustrator 19.0.0, SVG Export Plug-In . SVG Version: 6.00 Build 0)  -->

<svg
   version="1.1"
   id="Ebene_1"
   x="0px"
   y="0px"
   viewBox="0 0 1444.645 1795.8539"
   xml:space="preserve"
   width="1444.645"
   height="1795.8539"
   xmlns="http://www.w3.org/2000/svg"
   xmlns:svg="http://www.w3.org/2000/svg"><defs
   id="defs411">
	
	
</defs>
<style
   type="text/css"
   id="style403">
	.st0{fill:#010101;}
</style>
<path
   id="XMLID_12_"
   class="st0"
   d="M 1223.9449,0 188.91677,437.16411 c -11.71283,-28.80978 -27.77152,-58.28011 -47.9856,-88.50677 -16.90803,6.13979 -21.91396,22.66931 -15.20743,49.77883 l -57.525522,49.96886 c -15.680073,24.65361 -15.395962,49.40287 0.756404,74.33985 27.015068,30.1322 54.596608,61.77471 82.745178,94.74066 44.01756,199.87374 86.24017,313.50778 126.66833,340.90068 32.21028,15.49116 94.83594,1.79466 188.06627,-41.0894 115.23912,-51.66869 152.92814,-56.48685 166.71905,-51.76393 l 14.35878,7.46258 c 9.25692,4.81737 15.39635,14.07468 16.15202,24.46509 2.55038,32.58812 12.46889,62.53074 26.35426,86.14531 16.15236,27.48743 55.63458,152.55203 118.44934,375.09573 L 514.98638,1139.7463 c -44.30093,-40.0503 -83.12342,-60.0751 -116.6561,-60.0751 -93.89155,1.2279 -135.45332,40.0504 -124.68507,116.6561 l 50.25112,358.0913 c -71.22156,17.3804 -104.09314,70.9384 -98.70901,160.5793 -32.30474,6.6121 -61.87027,15.869 -88.79088,27.8652 -26.35387,11.335 -52.990819,15.8698 -79.911431,13.5083 C 29.564398,1754.5767 10.768247,1767.7053 0,1795.8539 h 1425.9434 c -29.2821,-57.4306 -71.2217,-80.1944 -125.6296,-68.1982 -53.8413,11.9962 -90.3026,-11.7126 -109.4777,-70.9379 -18.5138,-58.6586 -49.9692,-71.222 -94.2702,-37.6892 43.073,-83.1233 44.3017,-170.4979 3.5902,-262.028 1.7947,-99.2757 5.9516,-187.877 12.5637,-265.6162 140.4594,44.112 233.5001,66.309 278.9345,66.309 35.3274,-3.5894 52.9907,-18.8917 52.9907,-45.8123 -31.0767,-120.81216 -102.8652,-255.69937 -215.3651,-404.6601 -22.7645,-45.43443 -81.0442,-70.27741 -175.0302,-74.52803 -16.1524,-21.53649 -24.8422,-40.33264 -26.0702,-56.48501 38.9168,-8.97354 71.5046,-29.28176 97.8585,-61.01975 26.9207,-31.73799 40.0493,-83.12381 39.4825,-154.34537 -0.5667,-70.56034 -31.4532,-116.65686 -92.4732,-138.19335 -61.0202,-21.5365 -122.89188,-27.48738 -185.70672,-17.9471 -11.14609,1.32242 -21.81837,3.68388 -32.01988,7.08438 L 1247.2773,54.879954 Z M 832.1784,221.79899 c -39.48359,21.44204 -70.18299,61.77732 -92.00286,121.00267 -4.15616,22.76445 -14.35843,43.92169 -30.51079,63.66348 -16.15237,19.17503 -26.63616,40.4282 -31.45354,63.75941 0,13.12969 8.40645,20.02554 25.12556,20.68675 16.71912,0.56675 18.89093,6.32872 6.32798,17.00251 -5.38412,1.22796 -7.46148,3.87279 -6.32798,8.02896 0.56675,4.15616 2.73856,6.89547 6.32798,8.02897 -7.74558,8.40678 -7.74558,14.0743 0,17.00251 8.40678,3.58941 11.335,9.5403 8.97354,17.94709 -1.79471,8.97354 -0.28263,20.0263 4.53474,33.25046 4.81738,13.79091 28.7154,20.59082 71.78838,20.59082 l 55.63637,-8.02896 c -2.36146,8.97353 -0.85126,19.74291 4.53287,32.30587 -107.7769,1.32242 -173.23559,21.8192 -199.58945,67.25363 l -2.55149,1.03868 C 544.55159,751.04965 439.32548,802.05691 336.83823,858.9208 331.17074,822.17653 309.3497,767.67466 271.47193,695.31962 233.87753,623.81469 214.51426,573.75128 213.19184,545.22487 212.71955,528.50576 210.6422,511.5973 206.86386,494.31144 Z m 94.48049,19.65731 c 28.82275,-0.59682 62.7097,3.58094 101.61471,12.55448 61.5868,13.79091 92.757,52.61338 93.3238,116.6561 0.5667,63.38151 -17.3804,109.75957 -53.8413,139.1361 -35.8941,29.94328 -65.8375,32.02099 -89.73546,6.23388 -10.76825,-10.76824 -12.84558,-19.45843 -6.32795,-25.97605 17.38034,-5.38413 25.40855,-18.89059 24.27505,-40.42709 18.51376,-22.76445 27.77106,-42.12919 27.77106,-58.37602 1.228,-29.28207 -12.8459,-43.35566 -42.12798,-42.22216 -11.99622,1.22796 -22.10402,5.10113 -30.51082,11.71321 -58.65857,-38.91682 -109.47728,-56.20421 -152.55028,-52.04804 17.38032,-30.51003 44.58443,-50.81826 81.70648,-61.01975 13.63743,-3.79014 29.10906,-5.86657 46.40269,-6.22466 z m -110.27831,97.5043 c 36.55977,1.12464 75.47048,17.41911 116.77232,48.80288 l -6.32796,17.94709 c 7.17884,4.15617 14.07506,5.38303 20.5927,3.58832 9.54029,-25.1259 20.30779,-37.68742 32.30401,-37.68742 14.35767,-1.79471 20.97015,5.38304 19.74218,21.5354 0,14.92441 -8.12456,31.73914 -24.27694,50.25297 0,19.17503 -5.38375,27.20328 -16.15201,24.27507 -10.76825,-2.36146 -15.30113,-8.40681 -13.50641,-17.9471 -7.17885,26.92062 -0.9461,61.0209 18.79571,102.29917 19.17505,41.84503 33.81761,73.86611 44.01912,95.96935 10.2015,22.10325 26.3527,33.81574 48.456,35.0437 22.1032,1.22796 47.5133,4.53438 76.3231,9.82404 28.7154,5.38412 36.4602,24.84148 23.3305,58.37417 -13.1297,33.53269 -40.6161,108.53317 -82.4611,225.18916 l -42.224,-19.74217 c -29.2821,-59.22535 -80.19522,-109.47694 -152.55026,-150.75521 -13.79093,13.1297 -11.05201,30.50971 8.12304,52.0462 l -32.30401,70.84379 c -4.15617,28.14857 6.61133,50.25262 32.30401,66.40498 35.89419,16.15241 75.37828,24.27511 118.45122,24.27511 l 56.5809,45.8123 -16.152,296.127 -161.52382,35.8942 C 800.34562,1127.5607 750.09402,980.96101 733.94166,957.62982 717.78929,934.29861 713.25454,867.61197 720.43337,757.56806 c -3.02267,-37.68886 27.86566,-56.48685 92.47513,-56.48685 66.97091,0 97.76481,-15.30229 92.47515,-45.81232 l -12.56373,-36.83877 c -6.61208,-22.76445 -9.25654,-36.83841 -8.12304,-42.12807 -13.12971,-3.58942 -31.73839,-2.73855 -55.63637,2.64557 -40.71152,3.58942 -64.60954,1.7936 -71.78837,-5.38523 -7.17883,-7.17883 -9.53993,-17.00141 -7.17847,-29.56437 l 28.71572,-9.91813 c 6.61208,-3.58941 7.74447,-9.54031 3.58831,-17.94709 l -40.42708,-3.59016 c 9.54029,-20.30853 8.40605,-33.81685 -3.59016,-40.42893 -16.15236,1.22796 -24.18097,-3.02157 -24.18097,-12.56186 4.15616,-7.74557 12.5626,-22.10291 25.12556,-43.07265 12.56295,-20.96974 27.86524,-34.3836 45.81231,-40.42893 18.51383,-5.95087 36.83916,-5.10037 54.69179,2.73966 17.94709,7.17883 35.0433,12.84635 51.19569,17.00251 l 4.44067,-10.76862 c -14.92442,-3.58942 -30.51043,-9.54031 -46.66282,-17.94709 -31.07679,-16.15237 -57.99747,-16.15237 -80.76192,0 3.02266,-10.76825 7.17773,-18.89131 12.56186,-24.18098 11.6656,-2.99906 23.59135,-4.31003 35.77795,-3.93515 z m -1.677,46.06322 c -14.92441,0 -24.84331,2.36109 -29.56622,7.17847 -4.15616,4.81737 -9.82368,7.17847 -17.0025,7.17847 v 8.02896 l 12.5637,1.79508 c 16.15236,16.15236 41.56062,18.23156 76.32126,6.32982 l 22.48185,6.23388 1.79509,-16.15202 -19.74218,-1.79507 c -19.36397,-10.67379 -34.94923,-17.00288 -46.851,-18.79759 z m 369.61452,459.44596 c 23.4257,47.89035 69.144,117.60115 137.3429,209.13122 -25.6927,-17.3803 -88.791,-35.6108 -189.3891,-54.78582 z M 464.73526,1186.4092 794.96141,1415.2807 426.1955,1526.5534 c 8.40679,-170.4972 -3.02233,-283.8475 -34.09911,-340.0502 h 72.63887 z m 589.51444,215.3651 c 25.1259,96.253 10.2014,180.0377 -44.8678,251.2593 -83.12323,49.685 -184.00464,57.4299 -302.36088,23.3304 -118.4507,-34.6662 -230.95197,-27.8644 -337.40646,20.5927 10.76824,-37.6889 98.70992,-99.277 263.82301,-184.8562 z"
   style="stroke-width:0.944584" />
</svg>
