<?xml version="1.0" encoding="UTF-8" standalone="no"?>
<svg
   xml:space="preserve"
   viewBox="0 0 1529.6804 1795.5205"
   y="0px"
   x="0px"
   id="Ebene_1"
   version="1.1"
   width="1529.6804"
   height="1795.5205"
   xmlns="http://www.w3.org/2000/svg"
   xmlns:svg="http://www.w3.org/2000/svg"
   xmlns:rdf="http://www.w3.org/1999/02/22-rdf-syntax-ns#"
   xmlns:cc="http://creativecommons.org/ns#"
   xmlns:dc="http://purl.org/dc/elements/1.1/"><metadata
     id="metadata4133"><rdf:RDF><cc:Work
         rdf:about=""><dc:format>image/svg+xml</dc:format><dc:type
           rdf:resource="http://purl.org/dc/dcmitype/StillImage" /></cc:Work></rdf:RDF></metadata><defs
     id="defs4131" /><style
     id="style4120"
     type="text/css">
	.st0{fill:#010101;}
</style><path
     id="XMLID_5_"
     class="st0"
     d="M 1426.2,0.36115798 C 1407.7219,2.3618815 1388.5298,12.708808 1366.4072,32.231793 L 1184.6334,225.7295 c -92.5685,-23.44797 -155.7762,-17.22993 -189.62291,18.55371 -33.84656,35.78363 -61.27062,66.16334 -82.06797,90.93664 -44.34719,61.27056 -61.269,93.48653 -50.87032,96.74886 10.39867,3.26233 18.24865,6.21841 23.44799,8.76711 10.39868,2.65064 14.98469,10.39869 13.65937,23.44799 -5.19933,15.598 -1.32532,32.62372 11.724,50.87235 l -25.38337,80.13057 c 3.87402,14.37462 13.04809,21.51258 27.32079,21.51258 7.84998,0 26.70991,-20.89974 56.68256,-62.59635 5.19934,-11.72398 20.8993,-17.63776 46.89606,-17.63776 13.0493,7.84997 13.6614,26.70996 1.9374,56.68258 -62.5959,5.19933 -121.82767,31.29922 -177.89896,78.19515 L 701.70749,872.79139 v 3.87481 c -6.52465,0 -72.99435,-59.33374 -199.40949,-177.89891 V 112.36236 c -126.41515,69.12053 -189.62291,158.32623 -189.62291,267.81806 0,89.51007 18.2483,156.48991 54.64362,200.83716 -22.83628,16.20969 -24.77289,48.9334 -5.70868,98.27609 l 1.93741,7.85117 c -33.84664,44.34725 -50.87235,108.16709 -50.87235,191.56031 0,109.49183 63.20776,196.75775 189.62291,261.90235 V 798.57259 l 134.87574,164.2395 c 36.49727,43.02191 77.58311,36.49608 123.15374,-19.57517 53.42059,-63.81926 91.24246,-119.89106 113.36513,-168.11232 57.60051,5.19933 114.28389,315.0196 97.76835,443.7796 -121.21583,-19.574 -242.43118,-41.0858 -363.64699,-64.5338 -45.67256,-8.9714 -81.45752,-10.3978 -107.25028,-4.281 -7.95192,0.8156 -16.00581,3.9764 -23.95773,9.5835 -4.38376,2.7526 -8.25658,5.8102 -11.51891,9.3784 -0.71363,0.8156 -1.42727,1.53 -2.03896,2.3456 -36.39532,37.9246 -69.83545,124.783 -85.84124,251.606 -35.88559,179.224 -103.06813,272.6096 -201.65155,280.0518 l -106.433897,14.7824 c -1.529217,0.2039 -3.058832,0.5085 -4.486101,0.8144 -23.040182,5.811 -43.123531,19.7783 -56.6825786,39.1483 -4.4857031,6.4228 -7.13714101,13.7626 -7.9527234,21.5106 11.927882,10.5006 30.483595,13.9681 40.984208,13.9681 l 291.469152,1.6308 c 20.89928,-68.7128 62.39212,-154.2464 124.37632,-256.6018 35.07001,-57.8044 67.28517,-135.9989 86.24744,-207.3623 l 128.45422,101.6412 c -53.0128,51.1778 -114.18117,142.7274 -145.8869,233.8686 -3.26233,9.2773 -5.50677,18.9615 -6.73015,28.7485 -16.71941,132.0223 160.05931,90.9387 229.0779,54.7472 l 450.30261,-235.9076 -13.6614,234.5814 -76.2557,9.7866 v 37.1094 h 148.4356 l 5.9138,-62.5963 39.0447,-238.4543 c 3.8741,-53.4206 -2.6498,-86.6564 -19.5731,-99.7058 -15.7,-12.1317 -37.1094,-8.9718 -64.1256,9.2769 61.0666,-45.6725 73.3005,-133.4486 36.7012,-263.33 0.4078,-26.5064 8.1558,-74.7278 23.448,-144.76588 l 183.7091,64.53178 c 57.4986,6.5247 78.3979,-20.1854 62.6979,-80.13059 -20.5443,-57.80946 -25.5863,-70.62261 -25.5904,-69.08755 -55.3493,-148.99124 -96.9597,-238.68357 -122.9467,-261.22331 -27.424,-13.4571 -53.0129,-25.38541 -76.9706,-35.58018 l 151.1894,-271.2827 -50.8723,-27.3228 -155.0622,276.58517 c -18.7584,-6.83049 -36.0896,-12.43803 -51.9934,-16.71984 -32.6233,-24.77329 -29.3614,-50.15714 9.7866,-76.25576 39.046,-26.0986 63.208,-59.6403 72.2814,-100.72522 9.0733,-41.08492 6.8292,-74.62661 -6.8318,-100.72522 -13.661,-26.09861 -25.0787,-42.30675 -34.254,-48.8314 l 19.5731,-21.51258 c 20.8993,0 41.6971,28.64779 62.5964,86.04434 l 109.4923,-183.70914 c 29.9727,13.04931 55.0527,5.19931 75.2383,-23.44799 20.1857,-28.647296 23.039,-58.009118 -18.5557,-87.981741 C 1462.4416,4.7055024 1444.678,-1.6395655 1426.2,0.36115798 Z m 9.2947,37.23882302 c 6.326,0.626023 13.4515,3.603622 24.806,8.802954 27.0161,12.335672 19.0654,31.398739 7.3414,43.122725 -11.724,11.72398 -22.5312,17.02605 -56.3779,1.326117 L 1321.347,235.20945 c -6.5246,-32.62326 -12.4392,-38.74057 -51.5872,-42.71652 L 1394.6459,54.660308 c 21.9825,-12.616028 30.3056,-18.103697 40.8488,-17.060327 z M 453.4646,215.94092 v 375.37299 l -35.17199,-41.08576 c -36.49727,-43.02193 -54.74517,-97.76761 -54.74517,-164.2375 0,-66.4699 29.97192,-123.15379 89.91716,-170.04973 z m 653.585,26.64581 c 19.034,-0.11947 37.3662,3.76013 54.9522,10.56514 l -25.0787,26.60997 -49.1401,-35.68173 c 6.4992,-0.96851 12.9219,-1.45356 19.2666,-1.49338 z m -71.0548,12.50255 c 74.3198,39.04596 136.8135,90.5297 187.6854,154.45091 -10.3986,26.09861 -26.4044,46.28471 -47.9154,60.55739 -21.511,14.37463 -35.477,8.46084 -42.0017,-17.63776 25.9967,-32.31743 44.3473,-30.38009 40.7791,-68.91632 -2.5487,-27.22003 -18.5561,-39.24871 -48.5288,-40.57403 -11.724,0 -23.448,4.58607 -35.172,13.65942 6.5247,-47.09985 -24.0593,-56.07051 -91.85453,-66.46917 7.64613,-15.49605 19.98263,-27.22047 37.00793,-35.07044 z m 166.8877,24.56902 c 23.448,13.04931 35.0704,47.81396 32.5217,94.7099 l -59.8425,-64.22711 z m -241.20812,43.94109 c 16.92333,2.65064 72.89232,5.5044 91.85462,19.57318 4.5876,31.39989 11.0107,57.29505 37.1094,48.83339 11.2142,-3.56817 24.0601,-5.91377 37.1094,-17.63776 5.1993,0 10.3974,3.26194 15.5968,9.78659 0,14.37462 -16.9218,35.88645 -50.8704,64.53375 v 1.93741 c 3.8741,46.89594 24.0582,95.11774 60.5554,144.66432 -35.1719,20.89928 -69.7319,24.05928 -103.5786,9.78659 14.3747,-26.0986 14.9868,-51.17861 1.9375,-75.23827 -12.8455,-24.1616 -42.8181,-25.18108 -89.71412,-3.05843 -16.92333,5.19933 -27.32119,2.65143 -31.29716,-7.84919 3.87402,-16.92331 1.3241,-29.36137 -7.8512,-37.10939 29.97265,-3.87402 44.95857,-7.84998 44.95857,-11.724 0,-9.07334 -15.59801,-14.37543 -46.89599,-15.59881 14.37464,-18.24863 6.52466,-30.58276 -23.44799,-37.10741 7.84998,-27.32198 29.36178,-58.62001 64.53377,-93.79197 z m 12.78731,20.41346 c -13.55386,0.22853 -23.39029,6.7421 -29.50716,19.54928 13.04932,27.32198 43.0232,28.64811 89.91917,3.87481 -24.9135,-15.86879 -45.05102,-23.6831 -60.41201,-23.42409 z m 231.47921,278.59824 c 6.4227,1.32532 12.8467,2.65024 19.0655,4.17946 l -98.1766,175.04556 c -16.0058,-9.58308 -28.0352,-13.4575 -35.2735,-11.1127 -20.1857,6.52465 -34.8657,17.63658 -43.9391,33.23458 -9.0733,15.59799 -14.3754,34.55993 -15.5988,56.68258 -1.6312,15.49605 7.8491,28.75088 28.2387,39.86318 l -30.2777,53.9288 49.9544,33.03145 37.4141,-67.08043 c 50.3622,13.04931 91.8549,27.01618 114.1815,35.68173 -10.3987,65.2465 -13.0481,110.1021 -24.7721,149.25 l -192.1716,57.6005 c 2.6507,-90.8354 -18.24917,-411.6641 -141.09617,-483.02748 45.57067,-37.8226 83.5972,-55.76586 133.04187,-63.61583 57.2946,32.62327 123.7644,28.03521 199.4095,-13.6614 z m 76.2578,22.32697 c 21.2051,8.5636 40.7783,18.65685 58.8231,30.48278 -41.7985,43.02193 -67.2856,123.35656 -93.2823,231.52306 -27.0162,-27.93367 -51.4836,-51.17742 -72.8927,-69.42606 z m -871.75527,71.465 c 11.72398,14.37463 26.09786,26.71074 43.02117,37.1094 v 289.43024 c -59.94524,-46.89598 -89.91716,-101.03156 -89.91716,-162.30213 0,-61.27057 15.59804,-116.01625 46.89599,-164.23751 z m 926.50037,56.78612 97.7684,189.62291 -146.6018,-31.29917 c 15.598,-89.91787 31.9101,-142.72574 48.8334,-158.32374 z m -130.9013,416.35322 c 40.3713,67.7953 12.3355,149.151 -84.107,244.3701 -70.3439,35.172 -149.86173,68.7117 -238.45427,100.7232 -88.59256,31.9097 -151.80033,77.1754 -189.62292,135.8972 l -80.13256,-87.9817 c 129.06578,-143.3384 254.15716,-249.5679 375.373,-318.6884 71.66925,-35.172 144.05115,-59.9458 216.94375,-74.3204 z m -640.53687,4.283 c 137.4255,20.7974 252.5244,41.3896 358.9578,66.061 -87.47111,45.5707 -103.37595,44.451 -198.08536,139.7721 -79.7231,-56.9889 -147.21225,-92.8753 -169.84464,-137.9362 -3.16038,-31.4 8.87025,-49.6482 8.9722,-67.8969 z"
     style="stroke-width:1.01948" /></svg>
