<?xml version="1.0" encoding="UTF-8" standalone="no"?>
<!-- Generator: Adobe Illustrator 19.0.0, SVG Export Plug-In . SVG Version: 6.00 Build 0)  -->

<svg
   version="1.1"
   id="Ebene_1"
   x="0px"
   y="0px"
   viewBox="0 0 1686.9818 1794.0464"
   xml:space="preserve"
   width="1686.9818"
   height="1794.0464"
   xmlns="http://www.w3.org/2000/svg"
   xmlns:svg="http://www.w3.org/2000/svg"><defs
   id="defs1365">
	
	
	
</defs>
<style
   type="text/css"
   id="style1356">
	.st0{fill:#010101;}
</style>
<path
   id="XMLID_19_"
   class="st0"
   d="M 32.386828,0.04760216 C 18.952589,-0.41611694 6.5689446,2.5038773 1.1134112,8.995954 -9.579422,21.761889 59.727448,101.99942 81.440447,117.71133 56.78146,144.77075 45.870373,183.72206 48.70725,234.78579 c 3.055099,50.7364 24.441256,95.25406 64.2666,133.55187 40.48001,38.73423 86.08878,58.48331 136.82518,58.91975 51.06374,0.43644 77.91586,0.8816 102.57484,-25.08671 111.29276,141.07993 145.84817,233.01151 209.45962,434.42957 h -20.84184 c -72.23119,0 -83.03188,18.00286 -32.5137,54.11846 -20.18545,27.38675 -9.38475,70.81244 32.5137,129.95027 -15.93015,47.6814 4.69351,118.8212 61.75833,213.4201 57.06482,94.5988 108.67426,226.4056 154.93713,395.3087 l -205.7844,56.3007 10.80238,106.1655 968.24841,2.1823 -88.8165,-155.9196 c 23.1315,-197.8174 35.3527,-405.1289 36.8803,-621.7134 0,-171.84906 -36.1166,-314.78387 -108.3478,-428.91351 0.1091,-44.73532 13.0942,-79.43343 39.0625,-103.9833 31.7512,21.713 116.2017,60.66685 253.4628,116.9679 l 23.787,-38.95378 C 1607.5493,385.31707 1553.4299,255.04039 1524.5156,170.47972 1495.6012,86.028162 1435.3734,39.763444 1343.6114,31.798378 c -91.6528,-7.965072 -162.1402,-3.927547 -211.24,11.893486 -49.0997,15.930134 -128.5307,23.131885 -238.29597,21.713446 l -21.71345,41.13387 203.60002,110.52994 c -10.1472,8.61973 -18.0041,24.54907 -23.7869,47.68051 -18.7671,23.13143 -38.9521,54.88312 -60.66514,95.36313 -12.98417,27.38675 -13.74795,42.55444 -2.18222,45.50042 11.56576,2.83688 20.95016,7.96339 28.15146,15.16468 -8.6198,5.78286 -12.33,11.23882 -10.8024,16.25791 1.5275,5.01908 4.6922,8.29284 9.7113,9.71128 5.0191,1.41844 4.3644,4.36485 -2.1822,8.62017 -6.5467,4.36442 -5.4556,9.05662 3.2733,14.0757 8.6197,5.01909 12.3299,15.92889 10.8024,32.51369 -1.4185,16.5848 3.5989,28.47875 15.1646,35.78915 -7.2013,40.48001 -18.4384,71.79526 -33.6048,94.27203 -15.16636,22.36766 4.6915,29.23994 59.574,20.62021 l 28.1515,-108.3456 c 53.4641,0 72.2308,22.36773 56.3006,67.10305 -69.2852,169.01224 -103.2196,420.29495 -101.8011,753.84595 L 740.33809,955.74825 C 736.301,882.31686 698.87469,842.81915 628.28017,837.25451 514.47787,482.09969 334.22755,203.43009 69.961809,11.395536 60.305527,4.3579063 45.821066,0.51132246 32.386828,0.04760216 Z M 1256.3442,73.978593 c 24.4386,-0.403404 51.0147,1.029306 79.7381,4.302625 76.4865,8.619731 128.205,53.027432 154.9372,133.223682 26.7321,80.19626 73.322,190.94251 139.7703,332.568 -116.9665,-53.46417 -190.6163,-91.65212 -220.9491,-114.78356 -30.4419,-23.02232 -35.8974,-40.69786 -16.3666,-53.02735 19.5308,-12.32949 27.0603,-40.48052 22.6959,-84.45207 -4.3644,-44.08066 -21.7148,-66.12063 -51.9384,-66.12063 -30.3328,0 -57.0649,7.96381 -80.1964,23.78484 -23.1314,15.93014 -124.9301,-29.56867 -305.39899,-136.497 69.28519,2.83688 127.11279,-4.36487 173.26649,-21.713446 28.9143,-10.84286 63.7104,-16.612741 104.4415,-17.285091 z M 116.35585,147.2799 c 88.48866,66.77565 141.87474,136.92269 209.41417,222.68358 -20.94922,21.82211 -34.29161,19.21474 -78.48138,15.17764 -44.18977,-4.03709 -75.72283,-22.2586 -104.74623,-50.1909 C 113.30079,307.8908 96.061259,280.61307 90.169299,236.75063 84.277334,192.88819 93.006198,170.95689 116.35585,147.2799 Z m 990.15725,89.32045 51.9362,30.33149 c 20.1855,11.45661 38.9521,19.96896 56.3007,25.75182 -14.0753,-1.85489 -31.7508,-8.62146 -53.0274,-20.29629 -22.3677,-12.32949 -45.8264,-14.83904 -70.3763,-7.63774 0,-14.4026 5.0195,-23.78485 15.1668,-28.14928 z m 237.7823,35.92767 c 14.6693,-1.70272 23.1413,7.58023 25.3917,27.90207 3.6007,32.51494 -7.9638,57.06489 -34.6959,73.64969 -26.7321,16.58481 -14.8402,43.6443 35.787,81.28744 -2.946,4.36442 -11.2366,15.49245 -24.9846,33.6048 -13.7479,18.00324 -22.0412,50.95557 -24.8781,98.52777 -34.6972,25.96832 -70.8137,28.91473 -108.3477,8.62017 0,-66.44832 -25.9684,-95.36313 -78.0142,-86.63429 -51.9366,8.61974 -74.4135,-5.01827 -67.1031,-41.13386 28.9144,-15.93013 38.9535,-27.38764 30.3337,-34.69804 -8.6197,-7.20129 -23.7853,-11.56615 -45.4983,-12.98459 0,-12.98416 -10.8028,-24.54863 -32.5158,-34.69591 21.713,-49.09974 42.5527,-83.03409 62.8473,-101.8011 21.713,-10.14728 43.6438,-9.71083 66.1206,1.09111 22.3677,10.80194 45.1718,17.67635 68.1942,20.62234 v -12.54773 c 38.6252,12.3295 70.0495,10.36508 94.272,-5.8924 13.257,-8.91978 24.2897,-13.89584 33.0912,-14.91747 z m -225.2431,14.77896 c -9.1376,0.19665 -17.6811,2.78786 -25.6325,7.77626 l -19.5313,17.34902 v 15.16681 l 8.6202,-2.18222 c 28.9144,14.4026 59.9022,14.4026 93.181,0 l 34.6958,8.61804 V 316.688 l -32.5136,-4.36443 c -21.7676,-17.04169 -41.3751,-25.39203 -58.8196,-25.01659 z m -8.2835,12.14069 c -4.2553,7.20129 -4.2553,14.40346 0,21.60476 -7.2013,-1.41844 -13.7484,-4.36486 -19.5312,-8.62017 2.8369,-5.78286 9.3839,-10.14772 19.5312,-12.98459 z m 26.0779,4.25574 28.1492,15.1668 c -11.5657,2.94599 -22.4754,4.36443 -32.5136,4.36443 8.6197,-4.36442 10.1473,-10.80239 4.3644,-19.53123 z m -56.3561,79.81274 c -3.3172,0.84076 -4.3941,5.71144 -4.4199,7.91265 0,3.60065 -1.8549,6.10849 -5.4555,7.52693 -3.6007,1.41844 -7.5291,-0.32734 -11.8935,-5.45553 -5.6735,-5.96183 -11.9848,-9.48894 -18.438,-5.34472 -2.1822,1.41844 -2.5095,3.60065 -1.0911,6.54664 4.3645,-2.83688 9.7091,-0.76377 16.2558,6.54664 6.5466,7.20129 12.9846,9.05618 19.5312,5.45553 6.5467,-3.60065 9.384,-8.62018 8.6202,-15.16681 -0.5319,-5.31913 -1.5689,-7.97389 -3.1092,-8.02133 z m -28.096,46.8643 c 7.2013,0.76377 15.4924,1.85488 24.8759,3.27332 9.3836,1.41844 13.312,2.83688 11.8935,4.36443 h -45.4983 c -14.5117,-1.41844 -18.4401,-3.27332 -11.8935,-5.45554 6.5467,-2.18221 13.312,-2.83687 20.6224,-2.18221 z m 34.5872,12.00217 c -2.8369,2.83688 -7.9655,5.78329 -15.1668,8.62017 -3.6128,1.5522 -25.2993,7.54496 -27.0582,4.36443 -0.7637,-1.41844 0.3274,-4.36486 3.2734,-8.62017 z m 244.9534,207.96448 c 56.0829,60.66546 84.3435,190.61736 84.3435,389.8532 0,200.7634 -15.9315,408.7274 -47.6827,623.8934 l 28.1514,65.0317 H 619.11658 l 207.96448,-65.0317 c -51.93662,-215.166 -109.4389,-372.6117 -172.17746,-472.2296 -62.84767,-99.6179 -76.92213,-161.376 -42.22497,-185.1621 34.69715,-23.78603 74.41265,-0.3272 119.14798,70.3764 l 316.31219,396.3999 h 75.832 c -1.4185,-404.3637 27.3872,-678.01417 86.6343,-820.94898 41.8985,15.93013 82.2685,15.16636 121.3301,-2.18222 z M 560.52288,888.6452 h 80.19633 c 30.33273,10.14728 34.69759,29.56859 12.9846,58.48288 l -71.46748,8.62017 C 549.06672,944.18253 541.75587,921.8148 560.52288,888.6452 Z"
   style="stroke-width:1.09111" />
</svg>
