<?xml version="1.0" encoding="UTF-8" standalone="no"?>
<svg
   width="1798.7131"
   height="1797.0959"
   id="svg1507"
   version="1.1"
   xml:space="preserve"
   xmlns="http://www.w3.org/2000/svg"
   xmlns:svg="http://www.w3.org/2000/svg"
   xmlns:rdf="http://www.w3.org/1999/02/22-rdf-syntax-ns#"
   xmlns:cc="http://creativecommons.org/ns#"
   xmlns:dc="http://purl.org/dc/elements/1.1/"><metadata
     id="metadata1514"><rdf:RDF><cc:Work
         rdf:about=""><dc:format>image/svg+xml</dc:format><dc:type
           rdf:resource="http://purl.org/dc/dcmitype/StillImage" /><dc:date>14/001/2006</dc:date><dc:creator><cc:Agent><dc:title>Serge Thomas</dc:title></cc:Agent></dc:creator><dc:publisher><cc:Agent><dc:title>Serge Rosmorduc</dc:title></cc:Agent></dc:publisher><dc:identifier>US22</dc:identifier><dc:description>optimisation A7 et greffe de tête</dc:description><cc:license
           rdf:resource="http://creativecommons.org/licenses/GPL/2.0/" /></cc:Work><cc:License
         rdf:about="http://creativecommons.org/licenses/GPL/2.0/"><cc:permits
           rdf:resource="http://web.resource.org/cc/Reproduction" /><cc:permits
           rdf:resource="http://web.resource.org/cc/Distribution" /><cc:requires
           rdf:resource="http://web.resource.org/cc/Notice" /><cc:permits
           rdf:resource="http://web.resource.org/cc/DerivativeWorks" /><cc:requires
           rdf:resource="http://web.resource.org/cc/ShareAlike" /><cc:requires
           rdf:resource="http://web.resource.org/cc/SourceCode" /></cc:License></rdf:RDF></metadata><defs
     id="defs1512" /><path
     id="path1528"
     style="fill:#000000;stroke:none;stroke-width:99.1895"
     d="M 1169.9924,0.01838142 C 1149.0115,-0.23897223 1127.6884,2.2060381 1106.0232,7.3530597 1048.2487,21.078399 995.64286,70.489307 948.20717,155.58662 c -10.9467,31.56835 -36.48933,78.23599 -76.62722,140.00008 -7.29783,26.07816 -4.8649,39.11628 7.2981,39.11628 12.16304,0 20.6773,2.74531 25.5424,8.23551 -6.08145,5.49011 -8.81777,12.01016 -8.20966,19.55916 0.60824,7.5489 3.34456,11.32362 8.20966,11.32362 7.29783,0 7.60118,2.05854 0.91157,6.17613 -6.68967,4.11763 -7.29649,12.3538 -1.82314,24.70662 5.47338,12.35282 8.20966,26.76453 8.20966,43.23506 0,16.47035 8.51419,25.73376 25.54241,27.79262 17.02823,2.05875 38.31364,1.71637 63.85605,-1.02867 7.2977,34.31345 -9.12179,52.84231 -49.25985,55.58734 -40.13799,2.74507 -75.10865,10.98128 -104.90803,24.70663 -29.79939,13.7254 -52.83714,27.67024 -103.56578,75.26196 -72.50476,68.02124 -103.41624,125.17754 -183.90598,176.49205 -68.28964,13.56627 -152.0222,32.86623 -327.8449,143.3926 -56.16606,14.45965 -107.38787,44.43315 -164.20036,69.11269 -43.954007,43.7035 -74.7106702,86.548 -65.9319173,110.6979 -1.21332743,19.9378 115.9274773,-86.1748 159.1360473,-71.5472 27.95837,9.4647 -49.14062,58.3827 -31.91617,69.6047 27.70849,18.0523 59.86519,-18.2727 106.65117,-63.4833 12.73909,-12.3102 27.55578,-26.4509 45.46331,-42.4611 75.9054,-18.9482 164.87534,-53.4292 307.58491,-114.17067 132.65421,-74.51156 206.82992,-127.8679 241.19875,-149.07668 19.4608,-1.37252 37.70474,13.72403 54.73296,45.29238 9.73042,24.70563 23.71906,74.11869 41.96357,148.23559 33.64691,103.70068 34.59376,212.76868 39.61065,314.17518 L 675.25853,1021.7739 c -46.36832,-47.37484 -87.09824,-71.06277 -122.18778,-71.06277 -98.37596,1.41409 -141.92476,47.37576 -130.64592,137.88297 l 52.63396,423.1915 c -74.56519,20.5056 -109.02938,83.7894 -103.38994,189.8525 -33.83641,7.7779 -64.85326,18.7385 -93.05023,32.8801 -27.5703,13.4348 -55.45259,18.7388 -83.64947,15.9105 -28.19697,-2.1213 -47.93526,13.4345 -59.21411,46.6674 H 1629.2571 c -30.7033,-67.8803 -74.5662,-94.7489 -131.5867,-80.6073 -56.3939,14.1416 -94.6156,-13.7885 -114.6669,-83.7903 -19.4245,-69.2945 -52.3211,-84.1449 -98.6895,-44.5482 62.6567,-115.7927 0.3217,-236.4015 9.8886,-322.7446 0,-72.6048 4.7887,-143.8494 5.2136,-221.4401 -3.0407,-104.999 9.4255,-191.12738 37.4003,-258.38169 17.0281,100.19513 38.3136,222.35199 63.856,366.46809 72.2583,236.8676 96.5485,306.9783 265.316,519.6442 58.8358,35.3471 111.584,55.1749 130.867,34.9618 19.3046,-6.5178 -117.9142,-106.7056 -131.1987,-162.6522 -3.8426,-16.1835 51.2295,47.9154 85.6088,28.6497 19.3797,-10.8601 -44.1296,-80.3566 -105.5209,-118.5045 -100.4722,-6.4528 -85.3784,-189.994 -148.3758,-289.7465 -12.1629,-75.4897 -23.4134,-146.1748 -33.752,-212.05658 -10.3387,-65.88172 -15.5078,-122.15716 -15.5078,-168.82341 -6.0815,-75.48946 -12.7714,-124.21562 -20.0692,-146.17623 -29.1914,-54.90147 -80.2764,-89.21377 -153.2545,-102.93911 -34.0565,-30.19583 -54.7331,-69.31407 -62.031,-117.35286 52.3008,-35.68592 91.5269,-76.17591 117.6773,-121.46961 26.1506,-45.29365 36.1857,-95.73591 30.1039,-151.32368 C 1354.4541,88.675222 1324.9581,48.527724 1272.0488,23.822087 1238.9808,8.3810212 1204.9612,0.44729382 1169.9924,0.01838142 Z M 1144.5085,43.783234 c 19.2706,0.160851 41.1073,3.459175 65.5092,9.892945 65.072,17.156726 98.2167,56.274971 99.4331,117.352861 1.2161,61.0778 -24.3262,114.95034 -76.6271,161.61659 -52.301,46.66625 -59.5995,41.17549 -21.8943,-16.4711 37.7054,-57.64649 50.7799,-104.99896 39.2252,-142.05741 -11.555,-37.05854 -49.5635,-45.98155 -114.0276,-26.76604 -72.9777,-24.70561 -95.1756,-50.783808 -66.5924,-78.234551 17.8642,-17.1567 42.8558,-25.60138 74.9739,-25.333295 z M 1019.3613,147.35108 c 12.1631,0 45.0041,13.72698 98.5215,41.17773 3.649,16.47042 14.5944,17.49966 32.8388,3.08806 18.2444,-14.41166 36.1867,-16.81462 53.823,-7.20689 17.6364,9.60782 20.0676,29.16794 7.2964,58.67747 -12.7709,29.50954 -29.7996,54.21401 -51.0849,74.11575 -21.2851,19.90181 -30.4064,41.17809 -27.3655,63.82493 3.0408,22.64682 14.9001,39.45955 35.577,50.43986 14.5957,68.62681 45.6109,122.8417 93.0465,162.64525 l 65.6811,28.82335 c -52.3011,134.5086 -78.4523,257.00973 -78.4523,367.49894 0,110.48937 1.2173,236.86537 3.65,268.43357 -40.4914,35.837 -179.359,20.3434 -236.1457,20.7383 -7.9939,-96.9467 -20.85174,-194.4778 -28.40139,-276.8196 -8.51419,-94.01877 -29.191,-170.88162 -62.03108,-230.58691 -32.84018,-59.70529 -49.8686,-106.71531 -51.08482,-141.02874 12.16298,-27.45074 43.78681,-42.54728 94.87155,-45.2924 51.08434,-2.74499 78.45144,-28.82524 82.10044,-78.23661 3.6489,-49.41128 -12.7711,-73.08649 -49.2599,-71.02768 -36.48919,2.0588 -54.73483,-12.69744 -54.73483,-44.26578 23.10976,-12.35283 30.71188,-22.64549 22.80587,-30.8807 -7.90603,-8.23524 -20.98069,-13.03916 -39.22519,-14.41167 13.3793,-16.47046 9.72908,-30.1974 -10.94805,-41.17771 l 47.43668,-88.52745 c 20.67731,-19.21549 57.77532,-13.72679 111.29272,16.46904 17.0283,-4.1176 11.8573,-13.72545 -15.5096,-28.82337 -27.3665,-15.09793 -55.037,-21.27352 -83.01192,-18.52841 13.3793,-26.07822 26.15062,-39.11833 38.31362,-39.11833 z m 167.3373,43.42882 c -2.8508,0.21446 -6.0245,0.83626 -9.5214,1.86563 -13.9873,4.11763 -26.7586,15.78399 -38.3136,34.99952 -11.555,19.21545 -14.9,33.62724 -10.0346,43.23504 -10.9467,5.49013 -17.3331,13.03943 -19.1576,22.64722 -1.8247,9.60773 2.1291,16.81466 11.8595,21.61855 9.7302,4.8039 24.0224,-2.7454 42.8751,-22.64722 18.8526,-19.9018 31.015,-38.08823 36.4886,-54.55866 5.4737,-16.47044 6.3856,-29.16615 2.7366,-38.08758 -2.7367,-6.69112 -8.3805,-9.71586 -16.9326,-9.0725 z m -2.0004,21.94016 v 0 c 4.409,1.02937 6.1569,4.63184 5.2448,10.80824 -1.8245,12.35282 -7.2971,24.70607 -16.4193,37.0589 -9.1224,12.35283 -17.6385,20.58696 -25.5443,24.70457 -7.9061,4.11759 -7.9061,0.34292 0,-11.32361 7.9058,-11.66661 7.9058,-15.78368 0,-12.35228 -7.9063,3.4313 -9.4251,-0.34337 -4.5597,-11.32361 4.8651,-10.98032 11.5533,-21.95979 20.0674,-32.94012 9.7305,-4.11759 16.8,-5.6615 21.2092,-4.63209 z m -189.0543,3.60136 c -18.24465,2.05881 -32.84012,15.44136 -43.78675,40.14699 17.02822,19.21553 35.57552,27.79407 55.64455,25.73529 20.0691,-2.05881 39.8354,-10.63737 59.2963,-25.73529 h 36.4885 v -12.35229 h -36.4885 c -29.1914,-20.58805 -52.9099,-29.85347 -71.1541,-27.7947 z m -9.46477,16.72877 c 1.44445,-0.17156 2.77519,0.0848 3.99159,0.771 -9.73042,15.09785 -6.08211,24.70574 10.94628,28.82336 18.2446,-6.86266 21.8931,-16.47054 10.9462,-28.82336 12.1631,5.49012 24.3255,11.66778 36.4886,18.53047 -14.5957,6.86266 -30.4066,10.29289 -47.4348,10.29289 -13.3794,1.37257 -23.71768,-4.11621 -31.01554,-16.46903 6.38546,-8.23524 11.74456,-12.61063 16.07767,-13.12533 z m 140.82487,54.30098 c 9.7308,5.4901 11.5548,10.98096 5.4731,16.47108 -6.0814,5.49012 -10.3385,5.14568 -12.7712,-1.03074 -2.4325,-6.17642 2e-4,-11.32272 7.2981,-15.44034 z M 546.49059,1076.9263 c 0,0 19.8727,-35.8128 76.13216,0 l 345.88391,270.4618 -386.29836,131.5171 c 8.77239,-201.5196 -3.13466,-335.5129 -35.71771,-401.9789 z m 693.64771,254.5513 c 26.3169,113.8411 10.6522,212.8351 -46.9947,296.9785 -87.0972,58.6881 -192.6798,67.8798 -316.74636,27.5762 -124.06659,-41.0112 -241.8685,-32.8808 -353.40305,24.3932 11.27879,-44.5464 103.38879,-117.3771 276.33008,-218.4901 z" /></svg>
