<?xml version="1.0" encoding="UTF-8" standalone="no"?>
<!-- Generator: Adobe Illustrator 19.0.0, SVG Export Plug-In . SVG Version: 6.00 Build 0)  -->

<svg
   version="1.1"
   id="Ebene_1"
   x="0px"
   y="0px"
   viewBox="0 0 1380.861 1793.3232"
   xml:space="preserve"
   width="1380.861"
   height="1793.3232"
   xmlns="http://www.w3.org/2000/svg"
   xmlns:svg="http://www.w3.org/2000/svg"
   xmlns:rdf="http://www.w3.org/1999/02/22-rdf-syntax-ns#"
   xmlns:cc="http://creativecommons.org/ns#"
   xmlns:dc="http://purl.org/dc/elements/1.1/"><metadata
     id="metadata3753"><rdf:RDF><cc:Work
         rdf:about=""><dc:format>image/svg+xml</dc:format><dc:type
           rdf:resource="http://purl.org/dc/dcmitype/StillImage" /></cc:Work></rdf:RDF></metadata><defs
     id="defs3751" /><style
     type="text/css"
     id="style3743">
	.st0{fill:#010101;}
</style><path
     id="XMLID_23_"
     class="st0"
     d="m 473.52536,0 8.62473,37.913618 C 470.43926,42.903445 456.38542,50.541368 440.0921,60.7247 L 368.91015,131.90665 117.0715,373.53341 C 44.668004,420.98772 9.9796647,502.64975 0,546.33624 c 108.65615,134.92913 192.97279,215.17442 252.95261,240.73457 32.28116,13.7475 76.98609,56.51677 107.94341,75.5596 l -0.20287,0.40773 c 5.39716,2.64767 11.40496,6.10921 20.46812,9.87705 9.06316,3.76783 37.37405,19.75608 37.37405,19.75608 0,44.80665 7.63753,79.83701 22.91252,104.98987 14.56217,24.84726 32.58635,136.55916 88.18733,333.40296 h 0.40773 c -0.20366,3.2587 -0.61259,6.721 -0.61259,9.6742 -14.46033,-0.5092 -115.27423,-63.5429 -122.50439,-68.0235 -134.31814,-84.929 -228.61724,-137.4755 -273.1184,-156.2129 -71.48699,-30.0409 -112.524723,44.094 -98.06439,104.8884 16.904326,70.7741 78.30915,131.4666 123.93047,184.9291 29.53166,34.7252 54.175,69.5515 73.42149,111.2012 13.7475,29.6336 68.63611,143.0776 54.37944,173.2203 -18.63549,39.3076 -205.70388,19.3468 -194.909549,70.1616 10.285169,47.9635 117.923129,28.8197 146.640119,27.8013 86.66014,-3.055 173.01504,-0.8138 259.67519,2.343 l 16.39677,-0.2049 c 100.91681,3.7679 84.52139,-5.9055 147.75988,-18.5328 147.04725,-29.2262 158.65524,-220.572 169.34775,-274.7474 5.29533,-60.8963 5.29696,-75.8652 -16.69905,-177.393 -0.611,-2.8513 -1.01915,-5.7026 -1.32465,-8.6558 h -0.10184 c 5.19391,-161.5077 31.36469,-300.6128 71.38522,-408.75973 57.23028,-38.28932 212.11933,-114.76666 242.26203,-127.69949 59.9798,-25.56017 144.2985,-105.90728 252.9546,-240.73458 -9.9796,-43.89016 -60.9499,-123.91321 -133.4552,-171.36753 L 1016.9648,134.43017 934.31575,73.077258 C 915.47657,61.264593 899.59097,52.91464 886.86179,48.026637 L 903.05748,0 Z m 68.22839,48.167998 H 836.86576 L 784.62645,228.81888 H 585.94786 Z M 854.17367,153.52565 c 36.5582,62.22015 70.67198,92.77023 102.44401,91.65006 69.95942,16.1915 107.23592,108.18705 147.76562,148.20754 40.6314,40.02049 90.2233,81.77108 148.9811,125.5594 -72.3016,78.92082 -155.2953,126.68041 -239.0022,169.1449 -43.68652,6.92466 -90.42887,14.66441 -113.34139,18.22858 l -0.40774,2.54583 c -1.32383,-0.611 -2.74909,-1.22081 -4.17476,-1.83181 1.42567,-0.20366 2.95317,-0.40852 4.5825,-0.71402 l 0.20489,-1.42607 c -2.54584,0.50917 -4.68474,1.01913 -6.51775,1.32463 -32.28119,-13.1365 -83.40197,-25.76306 -130.24533,-22.60622 -14.25668,-19.14466 -21.89419,-34.7256 -22.91252,-46.74193 38.28936,-8.2485 69.65364,-26.78301 94.29733,-55.80551 24.64368,-29.02249 37.67958,-77.39346 39.41075,-145.1126 2.1385,-67.82098 -24.33981,-112.62738 -79.53352,-134.52154 -55.19361,-21.28316 -111.81233,-27.90314 -169.75548,-19.65464 -60.08165,6.00816 -105.80494,48.06545 -136.96593,126.27343 -4.88801,21.89416 -14.76586,42.0588 -29.53169,60.6943 -15.275,18.63549 -25.45916,38.49185 -30.34715,59.87685 -1.12017,13.64567 6.00858,20.46812 21.28358,20.46812 14.76582,0 16.70027,6.00937 5.70227,18.0257 -4.37884,0 -6.31327,1.93444 -5.70227,5.70228 0.50916,4.37883 2.4436,6.51773 5.70227,6.51773 -7.12833,8.2485 -7.3308,13.95157 -0.81348,17.21024 6.51733,2.74951 9.06238,8.4506 7.33122,17.20826 -1.62934,8.2485 -0.3055,18.63711 4.07333,31.16261 3.86967,12.5255 24.33862,19.44979 61.50778,20.46812 l 54.07314,-4.8888 c -2.1385,9.26683 -0.81467,19.95976 4.07334,31.97609 -99.28747,3.76784 -138.49268,26.06858 -166.19133,45.51874 -18.02449,-5.09167 -43.28041,-18.8384 -58.75907,-25.15206 -83.70698,-42.46449 -161.71152,-103.05549 -234.21684,-181.77263 58.75782,-43.68649 90.3317,-108.4753 130.96319,-148.49579 40.63149,-40.02049 89.27342,-133.65223 159.2329,-149.84372 29.53166,1.01834 61.20112,-25.4588 94.90794,-79.32862 l 33.22841,121.35423 H 818.53575 Z M 645.54029,317.78587 c 29.82443,-2.05735 65.66427,2.65842 107.5178,14.19104 55.80461,14.76584 83.09606,51.42633 81.97589,109.87865 -1.12016,57.94315 -18.63561,100.61104 -52.4442,127.90236 -33.29953,26.78216 -60.99903,30.04004 -82.79138,9.87705 -9.26684,-9.87783 -10.3862,-18.33002 -3.25785,-25.45835 14.25667,-4.88801 21.28155,-17.51537 21.28155,-37.67836 18.02451,-21.89417 27.08932,-40.42669 27.08932,-55.80352 2.1385,-26.78216 -9.87784,-40.73297 -36.15086,-41.85313 -12.01635,2.7495 -21.08114,7.63751 -27.0893,14.76584 -54.07349,-39.91866 -100.81432,-57.9448 -140.22381,-54.07513 16.90433,-30.04082 42.36313,-49.18396 76.27362,-57.43245 8.60491,-2.18942 17.87774,-3.62822 27.81922,-4.314 z M 540.35354,407.6996 c 39.29492,-2.00484 80.45957,14.23364 123.49687,48.71694 l -7.33121,16.39677 c 7.6375,3.86967 13.64489,5.70228 18.02372,5.70228 9.87783,-25.15283 20.26646,-37.67837 31.16263,-37.67837 14.25668,0 20.7728,7.12876 19.65263,21.28358 -1.12017,15.88601 -9.57234,31.97571 -25.45835,48.37087 0,16.90433 -4.68352,24.33739 -13.95037,22.09706 -9.87783,-2.7495 -13.64648,-8.75689 -11.50797,-18.02372 -8.2485,7.12833 -8.45098,27.08653 -0.81348,59.87685 8.2485,33.2995 18.63513,68.02555 31.16064,104.17637 12.52551,36.049 37.98345,56.21206 58.14647,61.10005 15.88601,1.12017 33.40217,2.23914 70.57136,2.85014 37.1691,0.611 36.45514,55.09239 -1.73239,163.34119 -36.96552,103.05529 -59.06297,239.10589 -66.29314,408.14909 l -175.45976,9.4693 C 521.38555,1096.7452 496.8436,993.89445 481.56861,973.93512 c -15.275,-20.26483 -20.77362,-63.44348 -16.39478,-129.53329 0,-62.32198 35.54112,-97.04605 106.62077,-104.17438 43.17733,1.12016 62.32045,-9.26647 57.43246,-31.16063 -4.37884,-21.28316 -9.57116,-45.9269 -15.57932,-73.82922 -12.01634,-6.00816 -29.02294,-6.00816 -50.81527,0 -37.16916,2.1385 -58.75749,-0.3067 -64.76565,-7.3332 -6.00816,-7.02649 -7.94261,-16.69989 -5.70228,-28.71622 l 25.45835,-9.06358 c 7.12833,-3.86966 9.06278,-8.45137 5.70228,-13.95038 l -37.67836,-7.33319 c 9.26683,-18.0245 8.45176,-30.65187 -2.4444,-37.67837 -14.25667,1.12017 -21.28358,-2.74832 -21.28358,-11.50598 2.1385,-8.2485 10.08191,-21.895 23.82941,-41.03966 13.1365,-19.14466 27.59607,-31.46573 43.48207,-36.8629 16.39516,-5.49899 32.79118,-4.37962 49.18634,3.25788 15.88599,7.63749 31.16063,13.95117 45.92647,18.83918 l 4.88879,-10.69251 c -13.1365,-4.888 -27.29177,-10.89539 -42.66859,-18.02372 -26.78216,-16.90432 -51.42589,-17.51692 -73.82922,-1.63092 3.25867,-10.89617 6.82284,-18.83759 10.6925,-23.82743 5.53719,-1.03106 11.11338,-1.6906 16.72694,-1.977 z m 5.06979,43.5656 c -7.68046,0.10502 -13.37041,1.61343 -17.11279,4.43931 -4.37883,4.37883 -9.57114,7.12794 -15.57932,8.2481 l -2.44439,9.06357 h 13.1369 c 14.25667,16.90433 37.47314,19.95974 69.65247,9.06358 l 18.0257,4.07333 4.07334,-13.13691 -16.39479,-3.25787 c -17.92265,-10.998 -32.99522,-17.00697 -45.01155,-18.12714 -3.00409,-0.28004 -5.78541,-0.40097 -8.34557,-0.36597 z m -419.03254,725.0161 c 3.74138,0.1303 7.93386,0.6575 12.61182,1.6249 44.39933,9.165 94.09372,47.0475 133.50321,69.6545 38.79848,22.1997 70.06102,41.2433 110.59068,64.4613 28.92066,16.4971 53.46336,37.0666 84.82802,50.1013 14.86767,6.2118 30.44782,11.7112 45.92647,16.1919 28.92066,8.3503 56.92412,0.6118 86.25211,-2.2395 55.70281,-5.3972 111.71175,-9.165 167.41452,-13.7475 9.06317,1.222 10.6921,20.7732 17.4131,35.3353 l 5.60084,37.9847 c 2.24034,11.5072 -6.11041,59.2662 -8.04524,70.9771 -4.68434,29.5317 -16.19111,67.1082 -24.03228,91.6501 -4.48067,13.8493 -15.58051,31.7716 -21.89418,43.8897 l -14.56096,17.4132 c -13.54384,13.0346 -45.9277,38.5948 -62.93386,39.2058 -33.09583,0.7128 -69.24755,2.2403 -105.70387,2.0367 l -18.33002,0.5091 -16.08849,-1.3226 c -35.53981,-1.5275 -70.36651,-5.3979 -101.93484,-14.0538 -67.10815,-18.4318 -88.49445,-128.5138 -118.33161,-185.846 -50.71299,-70.6722 -114.05227,-126.9855 -159.6736,-200.3055 -23.58078,-37.901 -68.732526,-125.4759 -12.61182,-123.5207 z"
     style="stroke-width:1.01833" /></svg>
