<?xml version="1.0" encoding="UTF-8" standalone="no"?>
<svg
   width="14.2"
   height="17.976807"
   id="svg1333"
   sodipodi:version="0.32"
   inkscape:version="1.2.1 (9c6d41e410, 2022-07-14)"
   sodipodi:docname="US9A5AVARA.svg"
   version="1.1"
   xmlns:inkscape="http://www.inkscape.org/namespaces/inkscape"
   xmlns:sodipodi="http://sodipodi.sourceforge.net/DTD/sodipodi-0.dtd"
   xmlns="http://www.w3.org/2000/svg"
   xmlns:svg="http://www.w3.org/2000/svg"
   xmlns:rdf="http://www.w3.org/1999/02/22-rdf-syntax-ns#"
   xmlns:cc="http://creativecommons.org/ns#"
   xmlns:dc="http://purl.org/dc/elements/1.1/">
  <metadata
     id="metadata1340">
    <rdf:RDF>
      <cc:Work
         rdf:about="">
        <dc:format>image/svg+xml</dc:format>
        <dc:type
           rdf:resource="http://purl.org/dc/dcmitype/StillImage" />
        <dc:date>17/04/06</dc:date>
        <dc:creator>
          <cc:Agent>
            <dc:title>Serge Thomas</dc:title>
          </cc:Agent>
        </dc:creator>
        <dc:publisher>
          <cc:Agent>
            <dc:title>Serge Rosmorduc</dc:title>
          </cc:Agent>
        </dc:publisher>
        <dc:description>pour rendre le signe A5A de la classification de Bob Richmond</dc:description>
        <cc:license
           rdf:resource="http://creativecommons.org/licenses/GPL/2.0/" />
      </cc:Work>
      <cc:License
         rdf:about="http://creativecommons.org/licenses/GPL/2.0/">
        <cc:permits
           rdf:resource="http://web.resource.org/cc/Reproduction" />
        <cc:permits
           rdf:resource="http://web.resource.org/cc/Distribution" />
        <cc:requires
           rdf:resource="http://web.resource.org/cc/Notice" />
        <cc:permits
           rdf:resource="http://web.resource.org/cc/DerivativeWorks" />
        <cc:requires
           rdf:resource="http://web.resource.org/cc/ShareAlike" />
        <cc:requires
           rdf:resource="http://web.resource.org/cc/SourceCode" />
      </cc:License>
    </rdf:RDF>
  </metadata>
  <defs
     id="defs1338">
    <pattern
       id="EMFhbasepattern"
       patternUnits="userSpaceOnUse"
       width="6"
       height="6"
       x="0"
       y="0" />
  </defs>
  <sodipodi:namedview
     inkscape:window-height="1017"
     inkscape:window-width="1920"
     inkscape:pageshadow="2"
     inkscape:pageopacity="0.0"
     borderopacity="1.0"
     bordercolor="#666666"
     pagecolor="#ffffff"
     id="base"
     inkscape:zoom="19.323113"
     inkscape:cx="9.5222751"
     inkscape:cy="6.6759429"
     inkscape:window-x="1072"
     inkscape:window-y="-8"
     inkscape:current-layer="svg1333"
     inkscape:showpageshadow="2"
     inkscape:pagecheckerboard="0"
     inkscape:deskcolor="#d1d1d1"
     showgrid="false"
     inkscape:window-maximized="1" />
  <g
     id="g1379">
    <path
       id="path1335"
       style="fill:#000000;stroke:none"
       d="m 10.876953,3.5800781 c -0.299711,0 -0.589311,0.053182 -0.818359,0.1640625 C 9.698042,3.9186805 9.1587362,4.5051836 8.9785156,4.9179688 8.9493661,4.9847367 8.7871805,5.250104 8.6191406,5.5078125 8.2709882,6.0417456 8.2389626,6.2003664 8.4707031,6.2402344 c 0.1162815,0.020004 0.1278456,0.034626 0.1152344,0.1601562 -0.00812,0.080861 0.00588,0.140625 0.033203,0.140625 0.027398,0 0.037589,0.041276 0.023437,0.097656 -0.031806,0.1267254 0.087895,0.637761 0.1601563,0.6835937 0.048472,0.030746 0.1573373,0.046875 0.3144531,0.046875 0.055278,0 0.1167818,-0.0019 0.1835937,-0.00586 0.036935,-0.00219 0.066388,-0.00391 0.089844,-0.00391 0.08841,0 0.091587,0.022362 0.085937,0.1152344 -0.015803,0.2597835 -1.7223755,0.8483252 -1.7223755,0.8483252 0,0 -0.2805388,-0.8865122 -0.6389526,-1.3659034 -0.020108,0 -0.095604,-0.086228 -0.1679688,-0.1914062 C 6.8749017,6.6604483 6.6616028,6.4015721 6.4746094,6.1894531 6.1365281,5.8059463 6.1333856,5.8002751 5.953125,5.2285156 5.8534219,4.9122727 5.7144712,4.5408932 5.6445312,4.4023438 5.5019034,4.1198 5.2231682,3.795367 5.0410156,3.7011719 c -0.048141,-0.024894 -0.078304,-0.041016 -0.095703,-0.041016 -0.026028,0 -0.025391,0.03451 -0.025391,0.1171876 0,0.078305 0.091596,0.3254775 0.2109375,0.5703124 0.1964414,0.4030132 0.3275616,0.7578126 0.2792968,0.7578126 -0.011374,0 -0.1791803,-0.1366218 -0.3710937,-0.3027344 C 4.8106547,4.6050346 4.729054,4.5390625 4.6757812,4.5390625 c -0.023563,0 -0.041683,0.012597 -0.064453,0.033203 -0.075811,0.068607 -0.074466,0.078866 0.039063,0.2910156 0.064774,0.1210439 0.2813602,0.3883575 0.4804688,0.59375 0.3797852,0.3917741 0.4556028,0.7288805 0.8945312,1.7089844 L 6.703125,8.6796875 C 6.4102722,8.9637646 6.1450074,8.9603423 5.7832031,9.0917969 5.7273672,9.0917969 5.668977,8.8597547 5.6074219,8.7382812 5.440552,8.4089792 4.9928865,7.089872 4.4746094,6.5371094 4.1147585,6.1533138 4.0119832,6.0173457 3.9902344,5.890625 3.8361081,4.9925971 3.3052841,3.9814543 2.9355469,3.8847656 c -0.00932,-0.00244 -0.017636,-0.00391 -0.025391,-0.00391 -0.1054214,0 -0.066362,0.2241227 0.109375,0.6152344 0.1786615,0.3976212 0.3635905,0.9960937 0.3085938,0.9960937 -0.074801,0 -0.3760834,-0.2528908 -0.4765625,-0.4003906 C 2.7794676,4.985961 2.7028456,4.9296875 2.6542969,4.9296875 c -0.040824,0 -0.062252,0.039003 -0.042969,0.1210937 0.07587,0.3230093 0.2882609,0.653631 0.5566407,0.8671876 0.148623,0.1182638 0.3006738,0.2787867 0.3378906,0.3574218 0.5797082,1.2248652 0.539433,2.3667527 1.2304687,3.2949219 0.2815082,0.3781096 0.5226655,0.9843755 0.5996094,0.9843755 0.2671492,0.13839 0.5781753,0.135898 1.28125,-0.19336 0.2179463,-0.102066 0.5742187,-0.287109 0.5742187,-0.287109 0,0 0.1028063,0.219079 0.5820313,0.77539 0.1923156,0.22325 1.4823321,-0.412109 1.5292969,-0.412109 0.00329,0 0.00649,0.0012 0.00781,0.002 0.057012,0.03524 0.1852727,0.405384 0.15625,0.847656 -0.023124,0.352378 0.1417606,0.904666 -0.1116688,1.126081 -0.3114892,0.272139 -1.1000492,0.580303 -1.8497427,0.930593 -0.7822314,0.365494 -1.3333918,0.480267 -2.4171146,0.991532 -0.3077785,0.1452 -1.0284936,0.379755 -1.305724,1.399201 -0.1224472,0.450269 -0.085968,0.627229 -0.088913,0.969856 -0.00403,0.469139 0.3373246,0.847393 1.026014,0.857762 0.7210107,0.09013 2.8225977,0.09616 3.7257147,-0.223223 0.9825473,-0.347472 2.1608172,-0.445603 2.8273882,-0.514297 0.367331,-0.03786 0.945724,0.514119 1.068995,0.598491 0.26198,0.17931 0.330026,0.318287 0.802021,0.411498 0.143037,0 0.792249,0.111458 0.855352,0.01514 0.206242,-0.18417 0.175908,-0.422462 0.168329,-0.605752 -0.108455,-0.165867 -0.598853,0.05082 -1.258013,-0.72372 -0.393335,-0.462181 -0.504636,-0.886245 -0.650313,-1.052869 0.2955,-0.04907 0.357667,-0.410804 0.322317,-0.776972 -0.02836,-0.29378 -0.0048,-0.599842 0.01159,-0.909342 0.04092,-0.773168 -0.0966,-2.012972 0.01438,-2.845549 0.137118,-1.0286015 0.670525,-0.9919912 0.9307,-1.4914613 0.400767,-0.7693725 0.440665,-1.698687 -0.577858,-1.628127 -0.293644,0.020343 -0.930479,3.851e-4 -1.220016,-0.2652165 -0.202442,-0.1857061 -0.275799,-0.155192 -0.27539,-0.4648437 2.73e-4,-0.2061646 0.01234,-0.2288708 0.152344,-0.3242187 0.27941,-0.1902879 0.654175,-0.6366307 0.82422,-0.9804688 0.149468,-0.3021471 0.167986,-0.3731651 0.181641,-0.7402344 0.01724,-0.4634515 -0.04966,-0.6954425 -0.265625,-0.9414062 -0.286995,-0.3268701 -0.90221,-0.5195313 -1.480469,-0.5195313 z m -0.08984,0.3457031 c 0.265999,0 0.557977,0.056795 0.816407,0.1679688 0.840355,0.3615108 0.757972,1.4996877 -0.158204,2.1914062 -0.148262,0.1119399 -0.255512,0.171875 -0.300781,0.171875 -0.01522,0 -0.02344,-0.00716 -0.02344,-0.021484 0,-0.00997 0.09241,-0.169953 0.207031,-0.3554688 0.286187,-0.463199 0.367868,-0.6935219 0.341796,-0.964844 C 11.63559,4.7579291 11.558982,4.7109733 11.001953,4.7050781 10.604167,4.7008685 10.504875,4.6839009 10.291016,4.5878906 9.9056459,4.414882 9.879835,4.2129599 10.220703,4.0390625 10.371139,3.9623146 10.570116,3.9257812 10.787109,3.9257812 Z M 9.5917969,4.7519531 c 0.1682278,0 0.7727311,0.2278662 0.9726561,0.3730469 0.02114,0.015355 0.04373,0.023437 0.07031,0.023437 0.04248,0 0.09792,-0.021149 0.191406,-0.066406 0.122978,-0.059532 0.210113,-0.087891 0.283203,-0.087891 0.06243,0 0.114517,0.020958 0.173828,0.0625 0.204235,0.1430511 0.08398,0.4989778 -0.326172,0.9648438 -0.125526,0.1425758 -0.248796,0.3179847 -0.273437,0.3886718 -0.06039,0.1732407 0.0175,0.3976643 0.185547,0.5390626 0.126599,0.1065278 0.128299,0.1149015 0.09961,0.3828124 -0.03828,0.3574517 0.02232,0.4518827 0.412109,0.6347657 0.223415,0.1048231 0.286946,0.153549 0.253907,0.1933593 C 11.610526,8.1893632 11.353758,8.3142241 11.064453,8.4375 10.775148,8.5607751 10.304365,8.7647183 10.017578,8.8925781 9.7307891,9.020438 9.4542074,9.1841837 9.4076578,9.1841837 c -0.091722,0 -0.4591077,-0.5934341 -0.4037516,-0.7017618 0.028682,-0.056129 0.021305,-0.0532 0.2421876,-0.140625 C 9.3408757,8.3042829 9.5066526,8.2397776 9.6132812,8.1972656 9.7199119,8.1547531 9.8730067,8.0721902 9.953125,8.0136719 L 10.097656,7.90625 10.068359,7.5566406 C 10.029148,7.0813827 9.9690698,7.0219915 9.5136719,7.0019531 9.1687082,6.9867747 9.0873029,6.9471716 9.0371094,6.7773438 9.0178734,6.7122574 9.0438802,6.6727079 9.1445312,6.6152344 9.2527951,6.5534136 9.2681849,6.5286684 9.2265625,6.4785156 9.1983857,6.4445661 9.1117566,6.3950662 9.0332031,6.3691406 8.9208784,6.3320703 8.8944774,6.3037505 8.9121094,6.2363281 8.9248246,6.1877034 8.9019854,6.113491 8.859375,6.0664062 8.7875551,5.9870473 8.7888556,5.9760503 8.8984375,5.7890625 8.9614854,5.6814802 9.0214532,5.59375 9.03125,5.59375 c 0.0098,0 0.088489,0.048184 0.1757812,0.1074219 0.1018847,0.069141 0.2074114,0.1035156 0.3222657,0.1035156 0.1029735,0 0.214044,-0.028673 0.3359375,-0.083984 0.1032935,-0.04687 0.2530836,-0.083984 0.3320316,-0.083984 0.07895,0 0.155279,-0.019273 0.169922,-0.042969 0.01579,-0.025548 -0.03471,-0.042969 -0.123047,-0.042969 -0.08321,0 -0.2595543,-0.06052 -0.400391,-0.1347656 C 9.7032615,5.3419511 9.5896155,5.3046875 9.4882812,5.3046875 c -0.1150862,0 -0.2155198,0.048911 -0.3203124,0.1464844 L 9.0390625,5.5722656 9.1191406,5.4335938 C 9.2014273,5.2901811 9.3303535,5.21875 9.5078125,5.21875 c 0.1335015,0 0.2954232,0.040101 0.484375,0.1210938 0.1194105,0.051186 0.1749535,0.074219 0.2011715,0.074219 0.02346,0 0.02344,-0.018142 0.02344,-0.054687 0,-0.087389 -0.4112932,-0.2746882 -0.6777345,-0.3085938 L 9.3125,5.0214844 9.4003906,4.9003906 C 9.4478866,4.8336897 9.520068,4.7693266 9.5625,4.7558594 c 0.00716,-0.00227 0.017704,-0.00391 0.029297,-0.00391 z m 1.5292971,0.3476563 c -0.05626,0 -0.129494,0.027964 -0.220703,0.083984 -0.111534,0.068503 -0.296875,0.3676592 -0.296875,0.4804687 0,0.056676 -0.02786,0.1156135 -0.0625,0.1289063 -0.08898,0.034146 -0.126033,0.1797031 -0.06445,0.2539062 0.03115,0.037535 0.05844,0.058594 0.0957,0.058594 0.05272,0 0.123394,-0.0409 0.242187,-0.1269532 C 11.053127,5.8056198 11.25,5.493366 11.25,5.2871094 c 0,-0.1248423 -0.04437,-0.1875 -0.128906,-0.1875 z m -0.06836,0.1542968 c 0.04107,0 0.06836,0.026821 0.06836,0.083984 0,0.1153615 -0.0693,0.2468506 -0.207032,0.3945313 -0.07575,0.08122 -0.133031,0.1210937 -0.160156,0.1210937 -0.02884,0 -0.02451,-0.045164 0.02344,-0.1347656 0.03524,-0.065844 0.03166,-0.082031 -0.02149,-0.082031 -0.06054,0 -0.06087,-0.012949 -0.002,-0.1269532 0.07856,-0.1519158 0.216109,-0.2558594 0.298828,-0.2558594 z M 9.3300781,5.4394531 c 0.015842,0 0.022072,0.027721 0.033203,0.085937 0.014058,0.073543 0.012831,0.1054688 -0.013672,0.1054688 -0.016667,0 -0.043103,-0.012492 -0.082031,-0.037109 -0.056972,-0.036026 -0.055582,-0.049865 0.00586,-0.1113281 0.027738,-0.027744 0.044595,-0.042969 0.056641,-0.042969 z m 0.3046875,0 c 0.018118,0 0.050934,0.015645 0.1113282,0.046875 0.073287,0.037898 0.1235017,0.079624 0.1113281,0.091797 -0.012172,0.012172 -0.093932,0.038813 -0.1816407,0.058594 -0.051546,0.011626 -0.085898,0.017578 -0.1054687,0.017578 -0.025194,0 -0.025973,-0.00918 -0.00586,-0.029297 0.026592,-0.026593 0.048828,-0.085647 0.048828,-0.1289062 0,-0.038402 0.00197,-0.056641 0.021484,-0.056641 z m 0.9472654,0.4550781 c 0.03554,0 0.06445,0.018718 0.06445,0.041016 0,0.040106 -0.03727,0.072266 -0.07031,0.072266 -0.01172,0 -0.02224,-0.00466 -0.03125,-0.013672 -0.04852,-0.048519 -0.02951,-0.099609 0.03711,-0.099609 z M 8.5851003,9.1346318 8.8577027,9.4374462 8.4273634,9.6997975 8.2365562,9.3140468 Z M 12.32339,9.4485467 12.818592,9.2536568 c 0.06093,-0.02398 -0.702455,0.8082542 -0.748285,1.4006402 -0.07669,0.970427 -0.02135,0.362623 -0.05246,1.334898 -0.315442,0.180253 -2.1062238,0.07615 -2.1062238,0.07615 0.013913,-0.108719 0.054681,-1.140171 -0.063977,-1.756746 l -0.025391,-0.128906 0.4609378,-0.142579 c 0.433413,-0.1326573 1.259853,-0.3248424 1.624438,-0.4820156 z m -0.275593,4.5924453 c 0.0097,0.404119 0.183509,0.779638 -0.116219,1.014338 -0.0072,0.01403 -0.194534,-0.165177 -0.393128,0.01034 -0.197894,0.174895 -0.400731,0.426681 -0.814186,0.440929 -0.413669,0.01426 -1.7653978,0.05482 -2.0547117,0.06524 -0.9078252,0.03269 -0.4280204,-0.01418 -1.4036742,0.02359 -0.2910346,0.01127 -1.1165216,0.166233 -1.8150007,0.169251 -0.1309238,5.66e-4 -0.168431,0.06611 -0.1641286,-0.411048 0.00203,-0.224872 -0.1726177,-0.59044 0.469214,-0.755224 0.6418316,-0.164783 1.5345502,-0.641175 2.2873588,-0.921713 0.7831445,-0.291843 1.4752761,-0.572168 1.7841373,-0.903166 0.7691821,-0.02707 1.7718031,-0.01895 2.1865021,-0.14069 z"
       sodipodi:nodetypes="ssssscsssssssccsssssssssssssccccssscssscscscscscsscsssssscssscccscsssssssccssssssssssssssssscscsscsssssscsscccssssssssssssssscscccssssccccsssssssssssssscscsscsscsssssssssssscscccccccccccssccccccssscsssscsssccs" />
    <path
       sodipodi:nodetypes="cccccccccccccccccc"
       id="path1371"
       d="M 10.340012,1.8529987 10.318988,0.71385737 0.62075263,0.69283364 0.57870518,11.023044 H 1.8650127 L 1.8019415,1.8740224 Z M 2.4259659,11.746977 H 1.1779169 L 5.8820405e-4,11.733689 -0.02555787,7.8022524 V 0.04652314 H 7.7301715 l 3.4058435,-0.01842704 0.004,1.1773287 v 1.270335 H 2.4259659 Z"
       style="fill:#000000;stroke:none" />
  </g>
</svg>
