<?xml version="1.0" encoding="UTF-8" standalone="no"?>
<svg
   width="12.55"
   height="18"
   version="1.1"
   id="svg8674"
   sodipodi:docname="US9A13VARB.svg"
   inkscape:version="1.2.1 (9c6d41e410, 2022-07-14)"
   xmlns:inkscape="http://www.inkscape.org/namespaces/inkscape"
   xmlns:sodipodi="http://sodipodi.sourceforge.net/DTD/sodipodi-0.dtd"
   xmlns="http://www.w3.org/2000/svg"
   xmlns:svg="http://www.w3.org/2000/svg">
  <defs
     id="defs8678" />
  <sodipodi:namedview
     id="namedview8676"
     pagecolor="#ffffff"
     bordercolor="#000000"
     borderopacity="0.25"
     inkscape:showpageshadow="2"
     inkscape:pageopacity="0.0"
     inkscape:pagecheckerboard="0"
     inkscape:deskcolor="#d1d1d1"
     showgrid="false"
     inkscape:zoom="32.749458"
     inkscape:cx="6.3970524"
     inkscape:cy="7.3589004"
     inkscape:window-width="1920"
     inkscape:window-height="1137"
     inkscape:window-x="-8"
     inkscape:window-y="-8"
     inkscape:window-maximized="1"
     inkscape:current-layer="svg8674" />
  <path
     style="fill:#000000;stroke:none;stroke-width:1.05669"
     d="M 10.956641,7.5512036 C 11.304901,7.3289956 11.462447,7.0697528 11.42928,6.7734754 11.396113,6.477198 11.284172,6.3984996 11.093458,6.5373803 10.902744,6.6762595 10.857138,7.0142007 10.956641,7.5512036 Z m 0.348261,1.0832641 c 0.03317,1.1480743 0.124378,1.7684033 0.273633,1.8609903 0.149254,0.09259 0.273632,0.05555 0.373135,-0.111101 C 12.05117,10.2177 11.835584,9.6344051 11.304902,8.6344699 Z M 1.4043597,16.745057 c 0.049751,0.351829 0.2155893,0.541632 0.497514,0.569407 0.2819253,0.02778 0.7379807,-0.226837 1.368166,-0.763839 1.276954,-0.962901 2.6368273,-2.148011 4.07962,-3.555327 0.199006,-0.240726 0.298509,-0.49071 0.298509,-0.749953 0,-0.27776 -0.2155897,-0.75921 -0.646769,-1.444351 -0.580434,0.148139 -1.6542367,1.060117 -3.221408,2.735936 -1.5671713,1.675818 -2.3590487,2.745194 -2.375632,3.208127 z M 0.65808771,11.467619 C 1.984793,13.11566 2.6813134,13.958198 2.7476487,13.995233 3.36125,13.310093 4.09923,12.569399 4.9615887,11.773155 4.3479874,11.25467 3.1373684,10.930615 1.3297317,10.800994 0.78246571,10.745442 0.55858438,10.96765 0.65808771,11.467619 Z m 3.05971499,5.499645 c 0.066335,0.129621 0.2529033,0.189803 0.559704,0.180544 0.3068007,-0.0093 0.9038183,-0.41664 1.791053,-1.222143 0.887234,-0.805505 1.3723107,-1.300843 1.45523,-1.486016 -1.47596,0.666623 -2.7446223,1.509162 -3.805987,2.527615 z M 4.4416805,1.2638651 c 0,0 0.7645199,0.8895373 1.0547372,1.2598841 0.2902167,0.3703468 0.2197353,0.8795731 -0.211444,1.527679 -0.4643473,0.6110725 -0.783586,1.1573339 -0.957716,1.6387843 -0.17413,0.4814504 0.2363197,2.2035617 1.231349,5.1663335 0.199006,0 0.6384773,-0.212949 1.318414,-0.638848 v -0.02778 C 6.727766,9.1529528 6.6531387,8.4863289 6.6531387,8.1900515 c 0,-1.3887995 0.4560553,-2.9442548 1.368166,-4.666366 C 7.5569574,2.9866825 7.0013994,2.690405 6.3546307,2.6348532 5.9234507,2.1719203 5.3108531,1.2365305 5.1615991,0.77359689 Z m 0.819951,-1.19073926 1.2173772,2.03398346 0.99503,0.3055358 c 1.0116127,0.314795 1.5837547,0.6018137 1.716426,0.861056 0.2321727,0.2222081 0.6882277,1.3332476 1.3681653,3.3331188 0.215589,-0.5740374 0.50166,-0.791616 0.858212,-0.6527361 0.356552,0.13888 0.530682,0.4120105 0.52239,0.8193916 -0.0083,0.4073811 -0.203151,0.7406932 -0.584579,0.9999363 l 1.194035,2.8053733 v 0.05555 l -1.019905,0.47219 0.0995,0.36109 -0.547266,0.166654 c -0.04975,-1.7961799 -0.07463,-2.7961151 -0.07463,-2.9998057 -0.0995,0.6666231 -0.273633,1.6017477 -0.52239,2.8053737 v 0 c 0.281924,0.166657 0.464346,0.374977 0.547266,0.624961 0.08292,0.249983 0.169984,0.425897 0.261195,0.527743 0.09121,0.101844 0.120232,0.180545 0.08707,0.236096 -0.04975,0.05555 -0.107795,0.05555 -0.174131,0 -0.06634,-0.05555 -0.13267,-0.148139 -0.199005,-0.277761 -0.06634,-0.12962 -0.124379,-0.222207 -0.17413,-0.277759 -0.03317,-0.03704 -0.06219,-0.05093 -0.08707,-0.04166 -0.02488,0.0093 -0.02902,0.05092 -0.01244,0.124992 0.13267,0.314795 0.261194,0.523115 0.385573,0.62496 0.124379,0.101844 0.286072,0.263871 0.485077,0.486078 0.04975,0.05555 0.06219,0.09722 0.03731,0.124993 -0.02488,0.02778 -0.0539,0.04166 -0.08706,0.04166 0.01658,0.09259 -0.02488,0.120363 -0.124379,0.08333 0.03317,0.111101 0,0.14814 -0.0995,0.111101 0.01658,0.07407 0,0.111101 -0.04975,0.111101 -0.03317,0 -0.06634,-0.0093 -0.0995,-0.02777 -0.13267,-0.185174 -0.28607,-0.351829 -0.4602,-0.499968 -0.174131,-0.148138 -0.294364,-0.27776 -0.360699,-0.388864 -0.0995,-0.166655 -0.174129,-0.361087 -0.223881,-0.583295 -0.04975,-0.222208 -0.116087,-0.462934 -0.1990063,-0.722177 0,-0.888831 0.074627,-1.8702489 0.2238813,-2.9442542 -0.0995,0.5740377 -0.3150916,1.5369382 -0.6467683,2.8887022 0.2321733,0.277761 0.339968,0.564779 0.323384,0.861056 -0.016584,0.296277 -3e-7,0.523115 0.049751,0.680513 0.049752,0.157396 0.04146,0.245354 -0.024875,0.26387 -0.066335,0.03704 -0.124379,0.01389 -0.174131,-0.06944 -0.049751,-0.08333 -0.074627,-0.203689 -0.074627,-0.361087 0,-0.157398 -0.016584,-0.291648 -0.049751,-0.402752 -0.033167,-0.05555 -0.066335,-0.08333 -0.099502,-0.08333 -0.033169,0 -0.049753,0.04629 -0.049753,0.138882 0.016585,0.370346 0.058044,0.643476 0.124379,0.819391 0.066335,0.175914 0.1658383,0.421268 0.298509,0.736063 0.016584,0.07407 0.00829,0.120364 -0.024876,0.13888 -0.033167,0.01851 -0.074627,0.01851 -0.124379,0 0,0.09259 -0.041459,0.111101 -0.124378,0.05555 -0.016584,0.1111 -0.066336,0.120361 -0.149255,0.02777 -0.033167,0.09259 -0.066335,0.120363 -0.099502,0.08333 -0.049752,-0.0185 -0.08292,-0.05554 -0.099504,-0.111089 C 9.1490047,14.21744 9.0536474,13.985973 8.9292687,13.745248 8.80489,13.504523 8.7427007,13.31009 8.7427007,13.161951 c -0.016584,-0.20369 -0.00829,-0.430528 0.024876,-0.680511 0.033167,-0.249983 0.099503,-0.513856 0.199006,-0.791615 0.066335,-1.9998717 0.2736323,-3.2868255 0.621893,-3.8608628 0.1326707,-0.1666555 0.199006,-0.3703461 0.199006,-0.6110717 0,-0.2592431 -0.1616923,-0.6805123 -0.485077,-1.2638077 C 8.97902,5.3707877 8.6846574,4.8384145 8.4193167,4.3569641 8.071056,4.5606554 7.7393794,5.2550551 7.4242867,6.4401633 7.291616,7.08827 7.2252807,7.7271179 7.2252807,8.356707 c 0,0.9258662 0.182422,1.823957 0.547266,2.694271 0.3316767,0.388863 0.497515,1.03697 0.497515,1.94432 0.2819253,0.240724 0.422888,0.490709 0.422888,0.749951 l -0.049752,0.666624 c 0.2653413,0.499968 0.398012,0.879572 0.398012,1.138815 0,0.648107 -0.3482603,1.379542 -1.044781,2.194304 -0.2653413,0.1111 -0.398012,0.04629 -0.398012,-0.194433 0.3316767,-0.611071 0.497515,-1.268436 0.497515,-1.972094 -0.033168,-0.388865 -0.1658387,-0.583297 -0.398012,-0.583297 -2.056394,1.925803 -3.275305,2.897963 -3.656733,2.916479 h -2.288567 c -0.4975147,0 -0.84577499,-0.305536 -1.04478099,-0.916608 0,-0.462933 0.52239029,-1.305471 1.56717099,-2.527615 -0.066335,-0.277759 -0.746272,-1.120298 -2.03980999,-2.527615 -0.21558933,-0.277759 -0.232173,-0.675882 -0.049751,-1.194367 0.182422,-0.518485 0.51409833,-0.731434 0.99502899,-0.638848 l 3.73136,0.6944 C 4.3645717,9.3936773 3.7084478,6.7612121 3.7344652,5.8249348 3.7514868,5.2123842 4.1904414,4.6717594 4.5884527,4.1347571 4.9864647,3.5977541 5.1108434,3.1440792 4.9615887,2.7737324 4.8395916,2.5266093 3.646661,1.2174837 3.646661,1.2174837 Z"
     id="path8672"
     sodipodi:nodetypes="cssccsscccccscsccccccccscccccscccscccccccccsscccccccsssscsssscssscccscssscccsscsscscscsccccsscsccssccsccccscccccscccscccscccc" />
</svg>
