<?xml version="1.0" encoding="UTF-8" standalone="no"?>
<svg
   width="17.982"
   height="13.7"
   id="svg1909"
   sodipodi:version="0.32"
   inkscape:version="1.2.1 (9c6d41e410, 2022-07-14)"
   sodipodi:docname="US9A87VARA.svg"
   version="1.0"
   xml:space="preserve"
   xmlns:inkscape="http://www.inkscape.org/namespaces/inkscape"
   xmlns:sodipodi="http://sodipodi.sourceforge.net/DTD/sodipodi-0.dtd"
   xmlns="http://www.w3.org/2000/svg"
   xmlns:svg="http://www.w3.org/2000/svg"
   xmlns:rdf="http://www.w3.org/1999/02/22-rdf-syntax-ns#"
   xmlns:cc="http://creativecommons.org/ns#"
   xmlns:dc="http://purl.org/dc/elements/1.1/"><metadata
     id="metadata1916"><rdf:RDF><cc:Work
         rdf:about=""><dc:format>image/svg+xml</dc:format><dc:type
           rdf:resource="http://purl.org/dc/dcmitype/StillImage" /></cc:Work></rdf:RDF></metadata><defs
     id="defs1914" /><sodipodi:namedview
     inkscape:window-height="1017"
     inkscape:window-width="1920"
     inkscape:pageshadow="2"
     inkscape:pageopacity="0.0"
     guidetolerance="10.0"
     gridtolerance="10.0"
     objecttolerance="10.0"
     borderopacity="1.0"
     bordercolor="#666666"
     pagecolor="#ffffff"
     id="base"
     inkscape:zoom="52.46"
     inkscape:cx="12.80976"
     inkscape:cy="6.8433092"
     inkscape:window-x="1072"
     inkscape:window-y="-8"
     inkscape:current-layer="svg1909"
     inkscape:showpageshadow="2"
     inkscape:pagecheckerboard="0"
     inkscape:deskcolor="#d1d1d1"
     showgrid="false"
     inkscape:window-maximized="1" /><g
     id="g760"><path
       id="rect680"
       style="font-variation-settings:normal;opacity:1;vector-effect:none;fill:#ffffff;fill-opacity:1;fill-rule:evenodd;stroke:none;stroke-width:1;stroke-linecap:butt;stroke-linejoin:miter;stroke-miterlimit:4;stroke-dasharray:none;stroke-dashoffset:0;stroke-opacity:1;-inkscape-stroke:none;stop-color:#000000;stop-opacity:1"
       d="m 0.62890625,12.714844 v 0.33789 H 17.404297 v -0.33789 z" /><g
       id="g772"><path
         id="path1911"
         style="display:inline;opacity:1;fill:#000000;stroke:none"
         inkscape:label="path1911"
         d="m 3.247635,0.06430302 c -0.3183108,0.00912 -0.6265888,0.0957126 -0.9257812,0.2597656 -0.3989234,0.2187374 -0.6918564,0.68018438 -0.875,1.38476568 -0.028762,0.2459163 -0.1290004,0.6358824 -0.3027344,1.1679687 -0.00799,0.1866476 0.032584,0.2648991 0.1230469,0.234375 0.090465,-0.030524 0.1591796,-0.026757 0.203125,0.011719 -0.035422,0.046443 -0.046254,0.095105 -0.027344,0.1503906 0.01891,0.055283 0.047675,0.074777 0.085937,0.056641 0.051491,-0.019464 0.055702,-0.00609 0.013672,0.041016 -0.042038,0.047107 -0.031434,0.1071558 0.029297,0.1796875 0.060717,0.072533 0.1118602,0.1675092 0.1503906,0.2851563 0.038531,0.1176473 0.1179429,0.1634843 0.2421875,0.1367187 0.1242457,-0.026768 0.2775224,-0.077144 0.4570318,-0.1523447 l 0.2675781,-0.00586 c 0.6173924,0.00693 0.8643737,0.3334954 1.3417969,0.3710938 0.032968,0.00432 0.075345,0.1852741 0.082031,0.1894531 L 3.8863069,5.658053 C 3.7127198,6.708133 3.7367057,7.3059315 3.7359163,7.8103968 3.2410349,8.3560544 2.6501847,10.083028 2.2534944,10.773287 c -0.490072,0.311161 -0.6874142,0.667824 -0.5917968,1.06836 -0.00808,0.17614 0.00314,0.282004 0.03125,0.318359 0.028109,0.03636 0.065018,0.0457 0.1113281,0.02734 0.055969,0.03627 0.1080717,0.03837 0.1542969,0.0078 0.037311,0.02418 0.083201,0.01902 0.1386718,-0.01758 0.055969,0.03627 0.095984,0.05019 0.1191406,0.04102 0.023178,-0.0092 0.033533,-0.03931 0.033203,-0.08789 -0.021907,-0.485768 0.03727,-0.786554 0.1757812,-0.902343 0.055303,-0.06089 0.092173,-0.04786 0.1113282,0.03711 -0.1097756,0.24324 -0.1425131,0.392747 -0.095703,0.447265 0.056304,0.08486 0.1172562,0.08163 0.1816406,-0.0098 -0.00991,-0.09107 0.031262,-0.216834 0.1230469,-0.375 0.091785,-0.15805 0.1242303,-0.285712 0.095703,-0.382795 -0.028528,-0.09699 0.209874,-0.267564 0.2441407,-0.318359 0.1279108,-0.189609 0.5138455,-0.255971 0.9765625,-1.0566406 0.4627168,-0.80067 0.912789,-1.620673 0.984375,-2.015625 L 4.9956819,8.2146936 C 4.9717631,8.517568 4.8988506,8.7291852 4.7046663,9.2498499 4.5068189,9.7803358 4.6371462,10.036597 4.4429476,10.310397 c -0.2531529,0.27133 -0.5824385,1.132542 -0.4785157,1.535156 -0.017408,0.170094 -0.012485,0.274191 0.015625,0.310547 0.028109,0.03636 0.066974,0.04374 0.1132813,0.02539 0.055969,0.03627 0.1041646,0.04009 0.1503906,0.0098 0.046644,0.03023 0.094399,0.0305 0.140625,0 0.046644,0.03023 0.083548,0.03762 0.1113281,0.02539 0.0278,-0.01221 0.041345,-0.04126 0.041016,-0.08984 -0.021907,-0.485772 0.037269,-0.786551 0.1757812,-0.902344 0.055302,-0.06089 0.096517,-0.04609 0.125,0.04492 -0.119104,0.23719 -0.1518421,0.384748 -0.095703,0.445313 0.056304,0.08486 0.1129151,0.07975 0.1679687,-0.01758 -0.00991,-0.09107 0.031262,-0.216836 0.1230469,-0.375 0.091784,-0.158315 0.1242307,-0.285767 0.095703,-0.38285 -0.028528,-0.09718 -0.060177,-0.168324 -0.097656,-0.216797 C 5.2853436,10.04318 5.8457619,9.1540896 6.0659944,8.361178 6.286227,7.5682665 6.2123623,6.8782346 6.216385,6.689303 6.2237682,6.3425754 5.9674143,5.5307003 6.3023226,5.4256311 6.6372296,5.3205619 6.7726709,5.3547894 7.5327913,5.2615686 8.0414747,5.199184 8.5221179,5.119384 8.747635,5.0896936 9.1157196,5.0412339 9.3701604,4.9881865 9.8511507,4.9881311 c 0.4731373,-5.44e-5 1.2737453,0.00449 1.4535383,0.097896 0,0 -2.2025156,1.9065172 -2.2621321,2.1755415 0.038862,0.3390469 0.9351898,1.5446936 1.1914061,1.890625 0.181766,0.3341584 0.579387,0.9058294 0.695313,1.0761724 0.08723,0.177717 0.312069,0.679056 -0.09766,1.074218 -0.409723,0.395165 -0.529959,0.541981 -0.751954,0.720703 0.06378,0.09952 0.196523,0.319084 0.525391,0.251953 0.395961,-0.08081 0.686137,-0.332761 0.962891,-0.728515 0.276759,-0.395744 0.769685,-0.387845 0.935551,-0.494141 0.342799,-0.219681 -0.04482,-0.561705 -0.476563,-1.1054685 -0.115556,-0.1440523 -1.433983,-2.0718991 -1.521484,-2.2265625 0.07866,-0.4977632 2.947382,-2.1599367 3.144531,-2.7109375 0.151901,0.5796185 1.531203,3.8778378 1.779297,4.1386719 0.352594,0.5870784 0.944905,1.2315006 1.136719,1.7011716 0.168274,0.401148 -0.602595,0.84465 -1.08973,1.056769 -0.214103,0.162641 -0.02946,0.239221 0.04676,0.382684 0.266635,0.01584 0.638429,-0.04418 1.121094,-0.21875 0.516889,-0.290699 0.668883,-0.192089 0.976562,-0.261718 0.27651,-0.06262 0.400316,-0.381334 0.238281,-0.652344 -0.0416,-0.110364 -0.192833,-0.33167 -0.335937,-0.552734 -0.01016,-0.04399 -0.01861,-0.08535 -0.0332,-0.134766 C 17.398341,9.7303464 16.755269,8.3350679 16.601151,7.9021936 16.280243,7.0008489 16.227753,6.4502977 16.042557,5.7810999 15.950188,5.4473303 15.759908,4.9701851 15.55037,4.5115686 15.340829,4.0529523 15.234715,3.5636033 15.017166,3.2459436 14.897911,3.0718068 14.326896,2.4170853 13.33162,2.1639124 12.186617,1.8726535 11.072691,2.3337393 10.26912,2.4783655 9.7544788,2.5187265 8.3788331,2.1575055 7.4859163,2.1619593 7.0940005,2.1639142 6.2405928,2.0321913 5.54451,2.0408655 4.8424374,2.0496155 4.7090612,2.1462415 4.5581819,2.8182093 4.5456071,2.8742129 4.5682585,3.1277546 4.3628694,3.2498499 4.1572494,3.1855635 4.0002766,3.1681635 3.8765413,3.1795374 3.9089943,3.0557018 3.9254152,2.9423312 3.9077913,2.8553186 4.2129199,2.567368 4.4164499,2.2360266 4.5191194,1.861178 4.5768704,1.6503261 4.5945248,1.4401924 4.5718538,1.2283655 4.5542188,1.0636117 4.5111827,0.8976155 4.4449007,0.73227182 4.2933975,0.35434342 4.0011855,0.13651532 3.5679476,0.07992802 3.4596378,0.06578132 3.3537388,0.06126342 3.247635,0.06430302 Z m 0.017578,0.3652344 c 0.4580654,0.011092 0.746302,0.2160557 0.8613281,0.61328118 0.023005,0.079445 0.036666,0.1603142 0.044922,0.2402344 C 4.2072411,1.6293745 4.1059951,1.9785906 3.8648225,2.3338343 3.5679954,2.7710573 3.504031,2.7506044 3.66951,2.2693811 3.8349894,1.7881584 3.8415207,1.428278 3.6909944,1.1932093 3.5404694,0.95814114 3.243992,0.97155056 2.8023226,1.2303186 2.2264174,1.2166433 2.0143722,1.0833334 2.16951,0.83188112 c 0.155138,-0.2514523 0.4891254,-0.384657 1.0019532,-0.4003906 0.032052,-9.832e-4 0.063212,-0.00269 0.09375,-0.00195 z M 3.321854,1.3494593 c 0.018015,1.777e-4 0.036055,0.00131 0.054687,0.00391 0.1490588,0.020779 0.200904,0.1524113 0.1582031,0.3925781 C 3.4920441,1.986111 3.4136481,2.1975929 3.298416,2.380709 3.183187,2.5638244 3.1557028,2.7343129 3.218338,2.892428 c 0.062635,0.1581151 0.064658,0.3108396 0.2363281,0.4414062 0.3151132,0.2305351 0.7595591,0.240789 1.1269531,0.3125 0.1581472,-0.074842 0.1578127,-0.268143 0.2285156,-0.3886718 0.1567825,-0.26727 0.0054,-0.6973902 0.4726563,-0.8125 0.1876303,-0.046224 0.4489949,-0.069884 0.7285156,-0.066406 0.465868,0.0058 0.9756683,0.064847 1.2382813,0.085937 1.2246809,0.093259 2.977135,0.4591135 3.433594,0.3242188 0.275806,0.1838703 0.751569,1.5826657 0.636514,1.9090599 -0.747689,-0.031941 -2.1561998,0.00883 -2.5564362,0.049924 C 8.3630239,4.7889888 7.8772005,4.8919143 7.5738069,4.9158655 7.0891489,4.9541266 5.6438014,5.1516926 5.4878694,5.1853968 5.22377,5.2424805 4.753403,5.2864201 4.4917757,5.1834436 4.2789839,5.0888835 4.3971383,4.7213335 4.4077913,4.5115686 4.4144124,4.3811965 4.4864995,4.219147 4.3804476,4.0037561 4.2981039,3.9078303 3.7300569,3.7810999 3.7300569,3.7810999 3.483465,3.6765122 3.1787622,3.6373203 2.9214632,3.5408655 2.7959921,3.5345155 2.5717546,3.363194 2.3081819,3.5857874 1.966183,3.7828265 1.9325122,3.5319641 1.8941194,3.3572718 2.0414859,3.2281139 2.0746502,3.1463353 1.997635,3.111178 1.9206204,3.076021 1.8174146,3.0646979 1.685135,3.0779749 1.73849,2.9439569 1.6835354,2.8569369 1.5191194,2.8162561 l 0.1875,-0.7050781 C 1.8218527,1.9280623 2.1055017,1.8865064 2.5562288,1.9842249 2.6695986,1.9156631 2.6124251,1.8566394 2.3804476,1.8084436 2.1484691,1.7602478 1.9282095,1.7735557 1.7222444,1.8514124 1.7803044,1.6311479 1.8549689,1.5142706 1.9468538,1.4978968 c 0.091885,-0.016378 0.3563564,0.01129 0.7910156,0.082031 0.062856,0.093763 0.1469293,0.075612 0.2539063,-0.056641 C 3.0853807,1.4075703 3.1957497,1.348215 3.321854,1.3494593 Z m -0.00195,0.066406 C 3.285077,1.4173106 3.243621,1.435315 3.1968571,1.4686 3.1033301,1.5351706 3.0312846,1.6473373 2.9800602,1.8025843 c -0.051224,0.155248 -0.046343,0.2646223 0.013672,0.3300782 -0.075106,0.050426 -0.1144772,0.114852 -0.1132812,0.1933593 0.0012,0.078507 0.044212,0.1207656 0.125,0.1269532 C 3.08624,2.459165 3.1781262,2.3757338 3.2808416,2.2010218 3.383556,2.0263104 3.4409993,1.8720715 3.4546697,1.7420375 c 0.00684,-0.065018 0.00615,-0.1205335 -0.00195,-0.1679688 -0.0081,-0.047435 -0.023836,-0.08538 -0.046875,-0.1152344 -0.023038,-0.029853 -0.051114,-0.044414 -0.085937,-0.042969 z M 3.276935,1.5975062 c 0.031263,-0.0047 0.050669,0.014885 0.058594,0.060547 0.01585,0.091332 0.00195,0.1885854 -0.041016,0.2929687 -0.042968,0.1043846 -0.088068,0.1826987 -0.1367187,0.2304688 -0.04865,0.04777 -0.059036,0.019071 -0.029297,-0.083984 0.02974,-0.1030559 0.021307,-0.1317549 -0.027344,-0.083984 -0.04865,0.04777 -0.062854,0.02898 -0.044922,-0.058594 0.017932,-0.087578 0.047408,-0.1773484 0.091797,-0.2675781 0.054554,-0.055511 0.097643,-0.085146 0.1289067,-0.089844 z M 2.0699007,1.9959436 c -0.065104,7.181e-4 -0.1219153,0.012302 -0.1699219,0.033203 -0.1280186,0.055737 -0.2159992,0.1765569 -0.2636719,0.3671875 0.1833283,0.09597 0.3419312,0.1169466 0.4765625,0.060547 0.1346324,-0.056401 0.261365,-0.1542663 0.3808594,-0.2949218 L 2.7671663,2.0916468 2.7398226,2.0076624 2.466385,2.0779749 C 2.3104676,2.0221445 2.1784071,1.9947469 2.0699007,1.9959436 Z m -0.019531,0.1230469 c 0.1072435,0.00353 0.2072978,0.016145 0.3027344,0.035156 -0.097301,0.095542 -0.2046342,0.1574909 -0.3222656,0.1835937 -0.1029819,0.038927 -0.190429,0.025066 -0.2636719,-0.039063 0.042968,-0.1043826 0.083895,-0.1527475 0.125,-0.1425781 -0.040127,0.1326902 0.0064,0.1949176 0.1386719,0.1816406 0.125176,-0.084043 0.1324562,-0.1586048 0.019531,-0.2187492 z m 0.953125,0.1210938 c 0.044001,0.022389 0.06925,0.042892 0.074219,0.066406 0.00298,0.014108 -0.0026,0.030407 -0.013672,0.044922 -0.029518,0.038704 -0.059836,0.042495 -0.089844,0.00977 -0.030007,-0.032729 -0.019354,-0.073323 0.029297,-0.1210942 z"
         sodipodi:nodetypes="csccccccccscccccccccccccccccccccssccscccccccccccccccssssssccccccccsccccccccccccssssscssscccsccscsscssccsscssccsccssccccssscscccccsccccsccccsscccccscsssscsscsccsssccccccsccccccccccscscc" /><path
         id="path685"
         style="font-variation-settings:normal;opacity:1;vector-effect:none;fill:#000000;fill-opacity:1;fill-rule:evenodd;stroke:none;stroke-width:1;stroke-linecap:butt;stroke-linejoin:miter;stroke-miterlimit:4;stroke-dasharray:none;stroke-dashoffset:0;stroke-opacity:1;-inkscape-stroke:none;stop-color:#000000;stop-opacity:1"
         d="m 0,12.314453 v 1.315153 h 17.994141 v -1.315153 z m 0.62890625,0.400391 H 17.404297 v 0.547574 H 0.62890625 Z"
         sodipodi:nodetypes="cccccccccc" /></g></g></svg>
