<?xml version="1.0" encoding="UTF-8" standalone="no"?>
<svg
   width="1800"
   height="1360"
   id="svg2"
   sodipodi:version="0.32"
   inkscape:version="1.2.1 (9c6d41e410, 2022-07-14)"
   sodipodi:docname="US9A15VARC.svg"
   inkscape:output_extension="org.inkscape.output.svg.inkscape"
   version="1.0"
   xmlns:inkscape="http://www.inkscape.org/namespaces/inkscape"
   xmlns:sodipodi="http://sodipodi.sourceforge.net/DTD/sodipodi-0.dtd"
   xmlns="http://www.w3.org/2000/svg"
   xmlns:svg="http://www.w3.org/2000/svg"
   xmlns:rdf="http://www.w3.org/1999/02/22-rdf-syntax-ns#"
   xmlns:cc="http://creativecommons.org/ns#"
   xmlns:dc="http://purl.org/dc/elements/1.1/">
  <metadata
     id="metadata9">
    <rdf:RDF>
      <cc:Work
         rdf:about="">
        <dc:format>image/svg+xml</dc:format>
        <dc:type
           rdf:resource="http://purl.org/dc/dcmitype/StillImage" />
      </cc:Work>
    </rdf:RDF>
  </metadata>
  <defs
     id="defs7">
    <inkscape:perspective
       sodipodi:type="inkscape:persp3d"
       inkscape:vp_x="0 : 739.1895 : 1"
       inkscape:vp_y="0 : 1000 : 0"
       inkscape:vp_z="5.8304138 : 739.1895 : 1"
       inkscape:persp3d-origin="2.9152069 : 738.1585 : 1"
       id="perspective11" />
  </defs>
  <sodipodi:namedview
     inkscape:window-height="1137"
     inkscape:window-width="1920"
     inkscape:pageshadow="2"
     inkscape:pageopacity="0.0"
     guidetolerance="10.0"
     gridtolerance="10.0"
     objecttolerance="10.0"
     borderopacity="1.0"
     bordercolor="#666666"
     pagecolor="#ffffff"
     id="base"
     showgrid="false"
     inkscape:zoom="0.26124924"
     inkscape:cx="1640.1962"
     inkscape:cy="903.35192"
     inkscape:window-x="-8"
     inkscape:window-y="-8"
     inkscape:current-layer="svg2"
     inkscape:showpageshadow="2"
     inkscape:pagecheckerboard="0"
     inkscape:deskcolor="#d1d1d1"
     inkscape:window-maximized="1" />
  <path
     id="path9346"
     style="fill:#000000;stroke:none;stroke-width:74.6628"
     d="M 280.44727,0.2734375 C 194.15181,3.2124177 134.91568,88.831422 138.00195,172.41406 c -2.52158,97.31488 95.87572,145.95368 154.02149,206.79883 36.62443,-16.08722 52.5211,-28.19364 95.44531,-8.01562 33.12948,-0.15193 41.18509,-89.17671 53.75391,-38.78907 -40.55869,61.81631 -57.32773,148.03623 -124.28125,185.08203 -68.00673,52.23796 -104.96606,137.13003 -184.21875,176.54493 -51.461145,35.82264 -155.182202,97.16398 -116.599613,165.8457 46.245072,-0.42531 45.489348,-92.9079 108.671873,-88.91211 -21.30386,17.37511 -74.611818,83.23651 -9.45312,55.89844 72.60469,-34.66253 68.9254,-134.29372 155.65234,-159.37305 49.54717,-37.49714 98.59577,-75.98158 143.375,-119.1543 C 373.66195,652.12974 302.05672,740.08497 242.98242,833.43555 196.34521,855.41916 152.31849,1016.598 226.91211,973.38086 205.31866,924.64148 319.56446,833.41777 265.93555,911 c -13.65365,81.90574 93.49786,-42.71502 72.6289,-93.84961 48.65001,-75.03505 119.73545,-137.40094 157.82617,-220.5 51.15914,-43.31524 58.74626,-159.59129 127.3711,-162.41992 83.71839,51.41786 182.40823,51.30076 276.84375,51.06055 50.01875,9.79386 -64.24852,51.59117 -87.96289,70.2246 -77.26223,40.6599 -178.47245,84.32683 -195.64649,179.81446 -2.689,126.49526 80.04958,231.29718 127.38672,343.19332 55.12733,62.4957 26.14973,120.6418 -34.87695,164.6426 -28.38867,35.151 -155.37612,72.0918 -65.82617,108.3906 98.39956,30.8395 156.56601,-84.1561 245.58789,-76.8007 106.62236,-36.3233 2.62403,-124.554 -11.87891,-187.5293 C 848.51076,990.93363 844.17398,885.72513 789.93164,798.28516 870.68462,732.26942 980.08572,725.50186 1066.0742,670.5 c 63.003,-29.21996 154.2495,28.37578 228.6778,37.13281 87.733,36.50264 161.6574,99.71586 241.8437,150.00196 34.9687,23.06663 61.9387,44.21675 88.2734,66.79492 11.4804,27.08661 9.5833,61.60329 -1.1386,98.34961 -0.7756,45.1765 -78.2087,152.3888 14.7324,125.9551 96.5635,-36.1807 71.7285,-162.63514 146.457,-211.57034 61.7529,-94.20351 -74.5133,-99.84047 -124.6719,-140.58789 C 1593.5034,748.46499 1535.8481,671.19921 1472.2754,633.80664 1385.6044,566.87078 1292.2224,508.14767 1210.8379,434.66797 1173.6255,332.277 1051.5765,317.15857 962.65625,281.07422 881.06503,253.21866 803.76188,214.716 733.0625,165.57227 661.76727,130.46715 573.15417,111.66805 496.86914,138.61523 462.4967,164.88892 415.55878,184.93769 433.72852,119.96875 435.00328,46.287708 366.87163,-1.187666 298.05664,0.8125 292.07352,0.24839985 286.20029,0.0775055 280.44727,0.2734375 Z m 29.35156,37.2343745 c 58.13913,-0.692883 101.10746,93.806418 79.85937,111.249998 -40.63217,-58.796734 -105.68639,-25.29124 -126.76953,26.19531 -36.3885,29.43752 -53.04878,119.8533 -78.05078,33.16211 -22.50932,-72.33477 28.95875,-174.481608 113.14453,-169.148433 3.99626,-0.94337 7.94046,-1.412792 11.81641,-1.458985 z m 23.02734,123.816408 c 34.95856,59.60278 105.43315,64.75718 164.35352,26.74219 60.96607,-38.42826 141.83758,-7.19618 203.77343,14.66601 90.69446,57.13443 188.58758,101.63822 291.07227,133.64453 65.84721,23.63029 157.69801,45.23921 176.13281,123.58594 1.5481,62.88376 -50.7624,112.73046 -92.5937,153.31641 -85.01631,71.3119 -205.42819,73.454 -291.25591,144.58984 -56.61156,26.60536 -56.67829,52.97384 -17.63476,93.30469 37.92793,96.11281 50.72119,199.88167 82.42969,298.08597 55.19261,36.4188 59.52313,96.6546 -18.08985,85.5195 -41.4689,18.7114 -115.65535,92.0428 -131.37109,72.5664 40.70987,-49.5939 151.23579,-107.4244 110.63867,-177.2207 C 758.26321,1010.1334 688.54206,895.56405 659.91016,766.98242 642.82291,689.98646 728.2917,650.59138 781.05469,615 845.44965,570.65512 939.2983,551.24955 979.94922,482.7168 c 29.38718,-26.97606 33.25208,-88.66461 -11.08203,-61.12696 -29.82023,56.79162 -118.23831,-0.59779 -176.98828,19.85743 -74.43335,4.86473 -135.49087,-66.44783 -208.76563,-44.70704 -49.51869,-3.8314 -118.6315,-33.37626 -99.43164,-95.03711 -45.34881,-39.49006 -98.66249,-31.66278 -103.45117,31.55469 -17.25251,-1.76465 3.62027,-86.05817 -33.17969,-32.95117 -24.71296,70.30901 -147.11595,-2.36961 -83.89258,-65.5625 19.81247,-27.18821 47.64507,-55.82199 69.66797,-73.41992 z m -42.94922,57.47461 c -42.39928,10.80862 -51.30792,104.80526 -0.97656,63.0039 5.02899,-19.40592 7.58132,-45.10956 0.97656,-63.0039 z m 925.05075,274.41406 c 137.4522,103.0128 285.2164,196.22812 405.3731,320.68791 12.8928,10.56985 56.8684,40.165 83.8559,46.58675 47.8869,11.39487 68.5387,47.61249 10.2437,80.96753 -21.1992,40.25402 -34.619,143.69882 -58.9883,138.00192 1.1072,-44.0564 25.7966,-111.42664 16.8731,-159.0488 3.0435,-29.76406 -66.7589,-70.32014 -80.4278,-77.35937 -1.8917,-1.57065 -3.6474,-2.89376 -5.6308,-4.63477 -86.4277,-59.91944 -169.3942,-128.05732 -265.0196,-172.39648 -52.2714,-27.65722 -171.3191,-14.14499 -184.9765,-55.70508 40.3248,-27.00624 58.0872,-97.22052 78.6972,-117.09961 z"
     sodipodi:nodetypes="scccccccccccccccccccccccccccccccccccccccccssccccsccccccccccccccccccccccccccccscccccccc" />
</svg>
