<?xml version="1.0" encoding="UTF-8" standalone="no"?>
<!-- Created with Inkscape (http://www.inkscape.org/) -->

<svg
   width="1636.8599"
   height="1792.2408"
   viewBox="0 0 1636.8599 1792.2408"
   version="1.1"
   id="svg10448"
   sodipodi:docname="US9A1VARC.svg"
   inkscape:version="1.2.2 (732a01da63, 2022-12-09)"
   xmlns:inkscape="http://www.inkscape.org/namespaces/inkscape"
   xmlns:sodipodi="http://sodipodi.sourceforge.net/DTD/sodipodi-0.dtd"
   xmlns="http://www.w3.org/2000/svg"
   xmlns:svg="http://www.w3.org/2000/svg">
  <sodipodi:namedview
     id="namedview568"
     pagecolor="#ffffff"
     bordercolor="#000000"
     borderopacity="0.25"
     inkscape:showpageshadow="2"
     inkscape:pageopacity="0.0"
     inkscape:pagecheckerboard="0"
     inkscape:deskcolor="#d1d1d1"
     showgrid="false"
     inkscape:zoom="0.575"
     inkscape:cx="221.73913"
     inkscape:cy="686.95652"
     inkscape:window-width="1920"
     inkscape:window-height="1137"
     inkscape:window-x="-8"
     inkscape:window-y="-8"
     inkscape:window-maximized="1"
     inkscape:current-layer="svg10448" />
  <defs
     id="defs10445" />
  <g
     id="layer1"
     transform="translate(0.03462287,-4.5260462)">
    <path
       id="XMLID_37_"
       style="display:inline;stroke-width:1.0087"
       d="m 1063.5476,4.6936698 c -17.52,0.4933192 -35.0727,2.0749401 -52.6242,4.7480048 -74.54318,8.6748514 -129.92,60.5235614 -164.72028,154.0303954 -0.20174,0.60522 -0.40348,1.31132 -0.50435,2.01741 -4.84178,25.11673 -16.34143,48.92181 -34.19549,70.70981 -17.65232,20.98104 -29.35292,44.4847 -34.90079,69.90403 -0.20174,1.10958 -0.3034,2.21758 -0.3034,3.42803 0.80696,13.31489 9.88532,20.07322 27.73939,20.67844 9.78442,0.30261 15.13175,2.22074 16.34219,5.65032 1.21045,3.4296 -1.7152,8.16974 -8.97786,14.32283 v 0.30339 h -0.10047 c -3.22785,0.7061 -5.34692,1.91616 -6.35563,3.63095 -0.80696,1.31131 -0.90862,2.92406 -0.3034,4.8406 0.70609,4.64004 2.82556,7.46561 6.75951,8.77691 l 0.7053,0.20096 -0.50435,0.60483 c -4.94265,5.24526 -7.06014,9.58388 -6.25318,12.81173 0.50435,2.32002 2.62263,4.1357 6.05223,5.54787 9.48181,4.03482 13.01268,10.89363 10.49092,20.27458 -0.10087,0.30261 -0.20292,0.60561 -0.20292,0.90822 -1.81567,9.78443 -0.10126,22.08987 5.14399,36.51433 5.24527,15.02969 31.8767,22.79791 79.28578,22.89878 0.60522,0 1.20927,-0.002 1.81449,-0.10245 l 62.33874,-9.07834 -0.20292,0.70728 c -2.62263,9.88529 -1.0087,21.98899 5.04352,36.00997 l 0.3034,0.70727 h -0.7053 C 914.4929,496.44592 865.06548,503.406 827.64257,516.41827 790.32052,529.43055 763.8932,548.89742 749.267,574.21588 645.04649,664.41943 541.93853,758.71613 459.66627,843.64052 l -0.50436,0.50435 c -39.423,-64.06636 -83.39187,-113.26791 -124.27164,-154.83617 -28.04197,-28.34458 -41.76,-42.06301 -61.12712,-63.5484 -1.21044,-1.31132 -26.73186,-26.72911 -31.97713,-31.16741 l -0.10046,-0.10244 v -0.10047 C 227.26109,542.13911 212.83618,501.69116 198.91607,474.05267 l -0.30142,-0.6068 C 186.91368,445.60565 136.98309,403.94724 50.234574,349.57811 c -1.109576,-0.7061 -2.422082,-1.21045 -3.733388,-1.51306 -4.23656,-0.90784 -7.262685,-0.60521 -9.078343,1.0087 -2.11828,1.91654 -2.722717,5.64837 -1.714012,11.19623 l 0.100477,0.60483 h -0.604829 c -4.438301,0.10087 -7.566083,1.31132 -9.381742,3.53047 -1.815668,2.21915 -2.320021,5.44662 -1.513057,9.68317 l 0.100467,0.50435 -0.504352,0.10245 c -4.337421,0.80696 -7.363152,2.41932 -9.17881,4.94108 -1.714798,2.52176 -2.219151,5.95255 -1.513057,10.28997 l 0.100467,0.50435 -0.504353,0.10047 c -6.6574419,1.21044 -10.6918778,3.02651 -12.20492487,5.4474 -0.70609336,1.21044 -0.80735723,2.52177 -0.4038854,4.03481 1.41218677,4.64005 4.23696357,9.07796 8.47352417,13.21364 0.5043524,0.50436 1.0083114,0.90863 1.6135241,1.31211 79.082385,54.36914 121.85154,94.8171 127.0968,120.3373 0.10087,0.60522 0.30262,1.21162 0.50435,1.71598 4.59404,14.39217 1.06744,13.62097 -10.66969,16.11936 -32.447514,6.90687 -49.015739,-36.65648 -72.28015,-45.9742 -5.951358,-2.42088 -11.701379,-1.9181 -17.047504,1.41061 -5.144395,3.22786 -7.161018,9.78602 -4.740126,15.23302 25.409725,45.68409 91.38941,99.56248 134.39379,107.02074 h 0.20292 l 0.10047,0.20096 c 9.18441,14.6005 15.32317,20.08673 25.51904,35.90949 60.08793,93.24918 129.17618,260.2007 234.62632,302.00661 0.70609,0.20174 1.4114,0.40348 2.21836,0.50435 39.33945,5.1444 102.28314,-30.46256 187.01427,-106.01448 86.95026,-76.05626 134.15696,-109.6462 144.44573,-102.88789 4.03511,5.27339 0.74274,9.21002 0.70728,14.4233 0.30261,42.5673 9.37939,79.48676 27.13257,109.74787 18.05581,30.86634 62.94484,172.6902 133.25149,421.7392 l 0.40191,1.4126 -1.20966,-0.9083 -329.44259,-245.8206 c -0.30261,-0.2018 -0.60562,-0.5055 -0.90823,-0.7072 -49.32561,-44.5847 -93.20515,-67.07898 -130.42633,-67.07898 -57.49611,0.70609 -97.94446,14.32408 -120.23681,40.24778 -18.35842,21.3845 -24.91579,51.7466 -19.4688,90.2791 l 56.58992,402.8771 -0.40387,0.1009 c -79.38499,19.367 -116.60588,79.8895 -110.55365,180.0538 v 0.4039 l -0.40388,0.1008 c -36.1116,7.3636 -69.70192,17.8541 -99.7613,31.2699 -29.55502,12.7096 -59.81543,17.854 -89.97567,15.1305 -22.393226,-1.513 -39.944719,6.4553 -52.452649,23.8051 -5.850487,8.1705 0.100881,19.5692 10.087048,19.5692 H 1593.9548 c 9.7844,0 15.7362,-10.7935 10.4909,-19.0649 -31.9758,-49.4265 -75.3494,-68.4906 -129.3151,-56.5879 -30.2612,6.7583 -55.9835,3.4307 -76.5611,-9.8842 -20.4767,-13.3149 -36.4134,-36.9186 -47.1057,-70.105 -10.894,-34.2959 -25.8245,-54.6733 -44.4855,-60.6247 -16.8453,-5.3461 -37.2208,0.9083 -60.6228,18.5606 l -1.8144,1.312 1.0087,-2.0174 c 48.1152,-92.9016 49.4265,-191.8553 4.0348,-294.1379 v -0.1024 -0.1008 c 2.0174,-111.1592 6.7583,-211.6265 14.1219,-298.5767 l 0.1008,-0.6049 0.6049,0.201 c 156.5508,49.3256 261.7585,74.3416 312.7989,74.6442 0.5044,0 1.0091,4e-4 1.4126,-0.1009 37.8264,-3.9339 57.3945,-20.4764 58.2015,-49.0227 0,-1.1096 -0.099,-2.2199 -0.4019,-3.3294 -35.0021,-134.46032 -116.0016,-286.57213 -240.98,-452.20129 -0.4035,-0.50436 -0.8065,-1.11037 -1.1092,-1.81646 -12.8105,-24.91498 -35.508,-44.4831 -67.6857,-58.20148 -32.581,-13.81923 -75.6524,-22.09181 -128.2059,-24.41184 h -0.201 l -0.1008,-0.20095 c -18.1567,-24.20888 -28.0436,-45.69513 -29.355,-63.8518 v -0.40191 l 0.4039,-0.10244 c 43.3743,-9.98617 80.2941,-33.08437 109.6474,-68.38901 30.0594,-35.40549 44.8858,-93.60906 44.2806,-173.19579 C 1322.4115,105.67217 1287.612,53.6229 1219.5244,29.61575 1168.3832,11.534755 1116.1073,3.2137122 1063.5476,4.6936698 Z m -12.4571,38.2953192 c 32.5463,-0.663932 70.7669,4.04074 114.2673,14.064734 34.5985,7.767018 61.0254,22.695091 78.476,44.583967 17.4506,21.88887 26.5285,51.14215 26.8311,87.052 0.7061,71.11362 -19.7698,123.86938 -60.7232,156.75312 -21.6872,18.0558 -41.6591,27.13258 -59.6141,27.13258 -15.4331,0 -29.4537,-6.65746 -41.9617,-20.17409 -12.3062,-12.30619 -14.6262,-22.39246 -7.0609,-29.95775 l 0.1009,-0.10046 h 0.1008 c 19.1654,-5.95135 28.2434,-21.08195 26.8312,-44.88737 v -0.20292 l 0.1009,-0.10046 c 20.6784,-25.31846 31.1693,-47.30748 31.1693,-65.26242 0.7061,-16.24013 -2.9248,-28.44587 -10.6918,-36.21289 -7.7671,-7.76702 -19.9728,-11.39797 -36.2129,-10.69188 -13.3149,1.31132 -24.7125,5.75002 -33.9926,13.01268 l -0.3034,0.20096 -0.3014,-0.20096 C 1012.6399,134.52269 955.04153,114.85251 906.92636,119.59342 l -1.0087,0.10047 0.70727,-0.90823 c 19.46799,-34.295932 50.4341,-57.394529 92.09357,-68.792881 15.3575,-4.274383 32.844,-6.605441 52.372,-7.003801 z M 927.13002,152.64229 c 41.25913,1.30974 85.38258,19.6552 131.60638,54.90939 l 0.3035,0.20293 -7.061,20.17409 c 7.6662,4.4383 15.1306,5.64757 22.1915,3.8319 10.7932,-28.14283 23.0998,-42.46608 36.7173,-42.46608 7.6661,-1.0087 13.5158,0.40349 17.3489,4.03482 4.2366,4.03482 6.053,10.9945 5.347,20.77893 0,16.74448 -9.1793,35.80864 -27.2351,56.58794 0,13.61751 -2.5221,22.39365 -7.4648,26.12585 -2.9252,2.21915 -6.7591,2.72389 -11.3992,1.41258 -9.8853,-2.21914 -15.2306,-7.16181 -15.8358,-14.62622 -5.6488,29.15154 1.9154,65.66752 22.4929,108.73916 21.2837,46.60212 37.9274,82.91557 49.4265,107.93141 11.2975,24.61238 29.4558,37.72478 54.0682,39.03609 24.8141,1.31132 53.6627,5.04354 85.8404,11.09576 14.5253,2.7235 24.5103,8.77495 29.5538,17.85328 6.254,11.19662 5.2469,27.53806 -2.9236,48.31736 -14.828,37.42291 -46.0994,122.55815 -92.9033,253.08442 l -0.201,0.50435 -48.1144,-22.4949 -0.1025,-0.20095 c -32.6819,-66.0701 -90.1782,-122.96076 -170.97543,-169.05853 -14.82795,14.42447 -11.70017,33.79164 9.38173,57.49617 l 0.2009,0.20095 -0.1008,0.3034 -36.31338,79.5872 c -4.64005,31.16895 7.5661,56.08244 36.11238,74.03736 40.0456,18.0558 84.7306,27.13455 132.8457,27.13455 h 0.2029 l 63.8498,51.74735 v 0.30143 l -18.1567,333.27652 -0.4038,0.1009 -181.9688,40.4505 -0.1025,-0.4038 C 909.04434,1040.8439 852.05398,874.60854 833.99819,848.4831 815.84152,822.25681 810.69553,746.50214 818.76516,623.23853 c -1.21043,-15.6349 2.72431,-28.64643 11.90352,-38.53173 15.6349,-16.84535 46.70228,-25.41858 92.49744,-25.41858 51.14128,0 83.72368,-8.07082 97.03858,-23.90748 6.0523,-7.26266 8.2702,-16.34024 6.3537,-26.93163 l -14.1219,-41.25642 c -7.2627,-25.21759 -10.2884,-40.65159 -9.1788,-47.20817 -14.62624,-3.83307 -35.40442,-2.82279 -61.83245,3.12856 -46.40037,4.13569 -72.92937,2.11669 -81.20074,-6.15467 -8.1705,-8.1705 -10.89558,-19.46644 -8.17209,-33.68917 l 0.10245,-0.3034 32.57999,-11.19623 c 7.06092,-3.83307 8.37304,-10.18752 3.83386,-19.26587 l -45.79559,-4.03482 0.3034,-0.60679 c 10.49052,-22.39323 9.27889,-37.42177 -3.73339,-44.68444 -11.39835,0.80696 -19.36714,-0.80815 -23.70456,-4.7421 -2.62263,-2.42089 -3.93434,-5.74843 -3.93435,-9.88412 V 288.451 l 0.10245,-0.10245 c 4.74091,-8.67485 14.22275,-25.01589 28.24374,-48.41783 14.12184,-23.50279 31.47043,-38.83434 51.74537,-45.59266 20.88017,-6.75832 41.65992,-5.74961 61.93487,3.02611 19.87146,7.96877 39.0369,14.32401 56.99184,19.06491 l 4.6396,-11.19623 c -16.64358,-4.03481 -34.09421,-10.79354 -51.94827,-20.07362 -34.59854,-17.95492 -64.96062,-17.95492 -90.27908,0 l -1.10918,0.80579 0.40388,-1.41061 c 3.32871,-12.10444 8.17011,-21.38573 14.22234,-27.43796 l 0.10047,-0.10046 h 0.10047 c 13.08793,-3.35394 26.52421,-4.81026 40.27727,-4.37368 z m -3.05567,51.98376 c -16.54274,0 -27.63813,2.62303 -32.88339,7.96916 -4.64004,5.34613 -11.09615,8.06924 -19.06491,8.17011 v 8.17209 l 13.82044,2.01741 0.10046,0.10046 c 17.95493,17.95494 46.6022,20.27535 85.23556,6.96046 l 0.10046,-0.10244 24.81375,6.96045 1.91693,-17.0475 -21.88811,-2.01741 c -21.18278,-12.10445 -38.83632,-19.16539 -52.15121,-21.1828 z m 416.59505,515.34767 0.5044,1.10918 c 26.1254,53.56217 77.973,132.5443 154.3318,234.92774 l 1.8165,2.42128 -2.5218,-1.71401 C 1466.0522,937.3508 1394.5342,916.67192 1282.1646,895.2874 l -0.6049,-0.10047 0.201,-0.50435 z m -808.67782,385.02378 0.10047,0.1009 372.11159,257.8246 -1.00871,0.3033 -415.28495,125.2805 v -0.7054 c 9.38096,-190.645 -3.52892,-319.1554 -38.22833,-381.9976 l -0.40387,-0.7054 h 82.71379 z m 662.92002,242.0892 0.1009,0.5043 c 14.021,53.8648 16.9462,105.0059 8.574,151.9105 -8.3723,46.9048 -28.2434,90.9845 -59.1097,130.8284 l -0.1009,0.1008 c -46.6021,27.8402 -98.8531,44.1828 -155.34057,48.5202 -56.48741,4.3375 -118.72502,-3.1269 -184.99685,-22.1915 -132.44281,-38.835 -259.94256,-30.9671 -378.96961,23.2002 l -1.0087,0.402 0.30142,-1.0087 c 6.05223,-21.1828 34.09546,-49.4254 83.42108,-84.024 49.22474,-34.4976 121.04427,-76.2581 213.44154,-124.0707 h 0.10046 z"
       sodipodi:nodetypes="scccccccscccccccccccccccccccccccccccccccccccccscccccccccccccsccccccsccccccccccccccccccccccssccccccccccccccccccccccccccccccsscsccsccccccccsccccccccssscccccccccccccccccccccccccccsccccccccccscccccsccccccccscccccccccccsccsssccccscccccsscccccccccccccccccccccsccscccccccc" />
  </g>
</svg>
