<?xml version="1.0" encoding="UTF-8" standalone="no"?>
<svg
   xml:space="preserve"
   viewBox="0 0 1115.3236 1797.7822"
   y="0px"
   x="0px"
   id="Ebene_1"
   version="1.1"
   width="1115.3236"
   height="1797.7822"
   xmlns="http://www.w3.org/2000/svg"
   xmlns:svg="http://www.w3.org/2000/svg"
   xmlns:rdf="http://www.w3.org/1999/02/22-rdf-syntax-ns#"
   xmlns:cc="http://creativecommons.org/ns#"
   xmlns:dc="http://purl.org/dc/elements/1.1/"><metadata
     id="metadata162"><rdf:RDF><cc:Work
         rdf:about=""><dc:format>image/svg+xml</dc:format><dc:type
           rdf:resource="http://purl.org/dc/dcmitype/StillImage" /></cc:Work></rdf:RDF></metadata><defs
     id="defs160" /><style
     id="style152"
     type="text/css">
	.st0{fill:#010101;}
</style><path
     id="path1911_1_"
     style="stroke-width:1.0148"
     class="st0"
     d="m 38.711593,0.05994434 c -0.80895,-0.1198462 -1.63178,-0.06000500484 -2.4707,0.1796875 C 32.885223,1.1984 29.769543,4.0746883 26.893233,8.8685377 24.016993,23.24998 17.783673,38.34969 8.1959725,54.16932 c -9.58765,15.819678 -4.84028,32.228764 -6.75781,41.816406 -1.91755,14.381504 -1.91755,26.365474 0,35.953124 1.91753,23.01037 5.27255,41.22768 10.0664005,54.65039 6.40129,0 37.11752,333.29214 96.355467,343.71875 56.508,14.1272 119.60182,21.55067 174.53516,24.62891 54.79897,3.04441 80.6775,15.52685 97.11718,41.20117 10.75684,16.84562 40.28682,132.73647 47.08594,185.50586 3.85624,29.73352 -3.75445,44.7528 -23.54297,52.97266 -24.45657,10.14796 -21.81765,48.60798 2.94336,58.85742 7.81396,3.24734 11.77149,6.90002 11.77149,8.82812 0,1.92812 -7.71321,12.17921 -17.65821,23.54493 -9.94501,11.3657 -22.12272,26.89165 -26.48632,35.31445 -9.13316,17.65744 -6.59601,18.57001 26.48632,20.59961 l 20.60157,2.94336 v 20.60162 c -5.17548,16.4395 -70.80514,69.8837 -78.51758,82.9746 -54.42487,58.8931 -240.85081,185.7187 -244.707027,207.4355 18.567707,9.5523 216.453047,6.0408 279.259757,16.0586 -13.2938,118.3253 -43.81674,263.1372 -56.19726,308.9043 -5.5814,20.7019 -16.27997,81.2686 -21.86133,89.5898 -11.46721,16.9472 -82.92247,13.2017 -112.35156,25.5821 -62.61292,26.4862 -69.00766,29.1251 -73.57422,41.2012 -2.63848,6.799 -1.62368,15.1212 0,17.6582 1.31924,2.131 8.01764,2.9414 17.6582,2.9414 28.41428,0 72.31473,0.8218 120.32617,-1.6602 49.94474,-13.3595 83.26343,3.7507 98.32813,-0.3086 21.19976,-5.7125 21.25265,-13.3397 20.24414,-47.1543 -0.81184,-28.313 4.71112,-75.5869 33.63281,-148.5508 54.59604,-137.6063 58.55346,-155.6703 61.80078,-220.8203 3.75476,-74.9935 4.16261,-73.1668 76.51758,-76.5156 17.55596,-0.8119 32.5739,-2.9434 44.14258,-2.9434 8.32133,0 13.29413,-0.5074 14.71483,0 4.4652,1.4207 8.0178,7.8133 5.8867,20.5996 -1.7252,10.2495 -1.3208,34.9097 2.9414,55.9161 19.3827,96.6085 33.7929,243.9574 26.4864,270.8496 -6.4274,23.8892 2.1903,49.6733 -20.3985,65.1328 -17.7123,12.1221 -60.93445,13.5199 -103.30466,31.9844 -65.04841,28.4142 -81.99689,48.7106 -47.08789,52.9726 6.9006,0.8118 35.82382,0 73.57422,0 44.24508,0 100.56763,1.1162 147.24803,0 29.7337,-0.7102 31.5594,-8.4227 20.5996,-50.0293 -8.4229,-32.0675 -6.292,-64.2374 8.8281,-209.0488 11.5687,-110.6128 12.1776,-135.2728 0,-179.6191 -5.4795,-19.8901 -10.0459,-42.0143 -8.8281,-50.0313 1.2177,-8.0169 2.131,-97.9275 0,-200.2187 -2.8415,-135.98286 -6.6975,-192.6101 -11.7715,-214.93562 -8.9303,-39.06964 -5.1752,-94.27419 14.7149,-188.44726 19.0782,-90.51981 23.0357,-98.64022 38.2578,-114.87696 33.4884,-35.51787 12.0482,-40.46848 126.1113,-54.47265 67.2964,-8.31699 113.1096,-6.31111 134.07425,-5.5625 v 1.42578 c 59.238,-10.42662 89.9542,-343.7168 96.3555,-343.7168 4.7939,-13.42273 8.1509,-31.64 10.0684,-54.65039 1.9176,-9.58766 1.9176,-21.57356 0,-35.955077 -1.9175,-9.587651 2.8279,-25.996712 -6.7598,-41.816406 -9.5877,-15.819645 -15.819,-30.919326 -18.6953,-45.3007823 -2.8763,-4.7938551 -5.992,-7.670137 -9.3477,-8.628906 -3.3556,-0.95876896 -6.4733,0.9580979 -9.3496,5.7519531 -1.9176,-1.9175381 -4.0738,-2.396269 -6.4707,-1.4375 -2.397,0.9587691 -4.0745,2.8756359 -5.0332,5.7519532 -1.9176,-1.9175483 -4.3151,-2.1568783 -7.1914,-0.71875 -2.8763,1.438139 -3.8357,3.115665 -2.8769,5.033203 -1.9176,-1.917538 -5.0333,-2.156938 -9.3477,-0.71875 -4.3145,1.438129 -5.5132,5.034486 -3.5957,10.78711 10.5465,19.175311 18.5582,28.099161 25.2695,39.125 6.7114,11.025779 1.1449,38.884572 3.0625,63.812502 0,6.71134 -0.9594,10.06641 -2.8769,10.06641 -8.4267,-6.71758 -23.0012,-23.87735 -23.2481,-31.42774 -0.9588,-10.54643 -3.3544,-18.455301 -7.1894,-23.728516 -3.8351,-5.273215 -8.1496,-6.47202 -12.9434,-3.595703 -4.7938,3.835086 -4.7938,11.025846 0,21.572269 0.9587,10.54643 11.217,26.64188 13.4844,44.58203 2.4111,19.0774 8.8049,34.78338 27.0215,53 -13.4227,56.56718 -32.1134,101.45386 -45.2062,140.9676 l -34.44285,103.94733 c -45.5999,11.68201 -92.9045,8.94387 -133.6557,13.47765 -41.4038,4.66807 -69.1074,8.82812 -88.2871,8.82812 -22.9345,0 -33.2848,-4.56643 -47.086,-11.77148 -7.8136,-4.16066 -27.2989,-7.30788 -44.1445,-8.83008 l -29.4297,-2.94141 c -14.8161,-15.32342 -24.1506,-30.64819 -14.7129,-47.08789 l 38.2579,-29.42773 c 38.2576,-35.41639 55.914,-71.03731 55.914,-111.9336 0,-49.31908 -14.4096,-71.44193 -58.8574,-91.23046 -19.1797,-8.5243 -44.8551,-14.71485 -70.63087,-14.71485 -17.25152,0 -34.2995,1.62456 -47.08594,5.88672 -32.169,10.65534 -61.90239,38.96711 -88.28711,82.40039 -12.07604,19.89 -29.83696,45.66702 -38.25976,58.85938 -19.99148,31.15424 -23.44118,47.99971 -8.82813,50.02929 8.1184,1.11628 10.85773,2.33343 8.82813,8.82813 -1.5222,4.76954 0.2034,10.04828 2.94336,11.77344 2.73996,1.72514 4.36408,6.59558 2.94336,8.82812 -4.97252,8.0169 8.32208,45.0568 17.6582,50.0293 5.17548,2.73994 45.46226,3.04422 47.08594,11.77148 1.82664,9.4376 -0.81245,11.87341 -29.42969,14.71485 -17.04856,1.72514 -49.41966,6.59603 -70.62891,11.77148 -19.68704,4.76956 -29.73397,8.82813 -41.20117,8.82812 -9.84352,0 -20.29593,-2.84036 -38.25781,-5.88476 -22.73145,-3.85622 -55.71382,-7.30593 -73.57422,-8.82813 -26.53136,-3.29343 -51.55136,-8.53386 -78.18555,-10.33789 C 143.0265,441.45254 114.63915,377.39365 100.80925,344.00526 80.675192,307.57212 70.948762,254.66224 57.526052,198.0951 c 18.21657,-18.2166 24.60845,-33.92262 27.01953,-53 2.26735,-17.94013 12.52756,-34.03756 13.48633,-44.58398 4.793778,-10.546415 4.793778,-17.737187 0,-21.572269 -4.79387,-2.876314 -9.10829,-1.677507 -12.94336,3.595703 -3.83503,5.27321 -6.23264,13.184053 -7.19141,23.730466 -0.24691,7.5504 -14.82137,24.71016 -23.24805,31.42774 -1.91753,0 -2.87695,-3.35703 -2.87695,-10.06836 1.91755,-24.92791 -3.64889,-52.784781 3.0625,-63.810549 6.71133,-11.025828 14.72311,-19.951661 25.26953,-39.126953 1.91755,-5.752618 0.71873,-9.347029 -3.5957,-10.785157 -4.31445,-1.438186 -7.43011,-1.198786 -9.34766,0.71875 0.95877,-1.917536 -6.4e-4,-3.595065 -2.87695,-5.0332033 -2.87632,-1.438126 -5.27193,-1.198796 -7.18945,0.7187503 -0.95872,-2.8763135 -2.63625,-4.7931849 -5.03321,-5.7519531 -2.39689,-0.958768 -4.55513,-0.480036 -6.47265,1.4375 -2.15724,-3.5953878 -4.45008,-5.57210196 -6.876959,-5.93164056 z M 579.83464,172.25526 c 20.19451,0 40.18511,5.37872 58.85741,14.71484 26.5878,13.3953 41.1001,31.3584 44.1445,58.85938 3.5518,31.76313 -10.6561,61.39547 -41.2011,91.23047 -16.6428,16.3382 -30.4434,23.54296 -35.3145,23.54296 -3.4503,0 -3.0459,-2.53682 2.9414,-11.77148 36.1269,-55.1034 43.3335,-89.10023 23.5449,-108.99023 -8.4224,-8.42282 -12.9902,-11.77149 -29.4296,-11.77149 -3.9577,0 -9.235,2.74042 -14.71488,2.94336 -2.02961,0.10148 -3.95864,1e-5 -5.88672,0 -34.70604,0 -62.30866,-12.78703 -64.74414,-29.42969 -1.21776,-8.32132 2.5382,-12.58271 20.60156,-20.59961 11.4672,-4.9725 26.68961,-8.72851 41.20117,-8.72851 z m -91.33203,58.85937 35.31445,14.71485 c 19.48408,7.10356 37.24305,14.61185 38.25781,17.65625 0.60888,1.62369 1.11676,2.94336 2.94336,2.94336 2.63848,0 5.78417,-2.43446 11.77149,-5.88477 9.23464,-5.27694 19.78863,-8.83008 26.48633,-8.83008 11.9747,0 17.6562,8.52398 17.6562,23.54297 0,13.49678 -5.7833,25.26918 -32.37105,55.91602 -22.12253,25.47138 -29.53144,57.945 -5.88672,64.74414 15.32347,4.36362 0.40636,61.80123 41.20117,64.74414 10.9598,0.81184 29.3289,12.38065 47.0879,26.48633 26.1818,20.80332 29.4277,27.50143 29.4277,41.20117 0,20.29592 -24.8624,169.97843 -38.2578,229.64844 -11.1628,49.82648 -15.1202,55.40846 -50.0293,67.6875 -17.0487,5.98728 -62.00477,11.77148 -94.17381,11.77148 -5.07396,0 -10.45268,0.30444 -14.71484,0 -26.68913,-1.72514 -26.28306,4.06014 -50.0293,-120.75977 -28.3128,-148.76909 -31.35748,-207.12101 -14.71484,-223.76367 3.95772,-3.9577 20.70185,-11.56942 38.25781,-17.6582 17.55597,-6.19024 36.12869,-14.3074 38.25977,-17.65625 5.98728,-9.4376 4.97204,-25.97923 -2.94336,-41.20117 -5.78436,-11.26424 -10.55356,-14.71485 -23.54297,-14.71485 -23.34032,0 -41.20117,-7.10434 -41.20117,-17.6582 0,-4.9725 2.02856,-10.2493 5.88476,-11.77148 10.65536,-4.0592 10.249,-12.68571 -2.94336,-17.65821 -7.00208,-2.63846 -11.77148,-6.39306 -11.77148,-11.77148 0,-5.07398 -2.53593,-11.56853 -5.88477,-11.77149 -16.94708,-0.9133 -2.23315,-16.74369 8.82813,-35.31445 15.52636,-26.18174 20.09297,-28.11045 38.25781,-29.42969 10.65537,0 26.18325,8.21971 35.31641,11.77149 17.8604,6.90062 26.48481,8.83008 29.42773,8.83008 1.5222,0 4.2626,-1.62412 2.94336,-2.94336 -18.06336,-17.9619 -63.52682,-26.38477 -67.6875,-26.38477 h -14.71484 l 11.77148,-14.71484 z m 114.87504,29.42969 c -11.8732,0 -38.25785,23.94875 -38.25785,35.31445 0,4.56658 -4.56796,12.98819 -8.83008,17.65625 -6.29172,6.90062 -4.76956,8.93051 0,14.71485 2.537,3.04438 3.34972,5.88672 5.88672,5.88672 2.8414,0 8.22016,-2.13198 14.71484,-5.88672 29.93657,-17.35302 49.52197,-67.68556 26.48637,-67.68555 z m -117.8184,14.71289 c -8.62576,0 -15.62757,2.13244 -23.54297,8.83008 l -11.77344,11.77148 11.77344,8.82813 c 7.9154,3.45032 16.23689,5.88672 26.48633,5.88672 6.79913,0 12.78569,-0.50784 20.59961,-2.94336 8.01688,-2.53698 19.68717,-8.52369 26.48633,-8.82813 12.07604,-0.5074 13.8012,-2.53788 0,-5.88672 -7.81396,-1.9281 -21.10837,-7.50932 -29.42969,-11.77148 -8.21984,-4.26214 -14.40936,-5.88672 -20.59961,-5.88672 z m 108.9883,0 c 1.3193,-0.30444 1.9285,0 2.9433,0 9.0317,0 5.684,11.77179 -5.8847,26.48633 -6.19035,7.81394 -9.13303,11.77148 -11.77151,11.77148 -2.73996,0 -3.45076,-6.29009 -2.94336,-14.71289 1.0148,-16.9471 5.88458,-20.39906 17.65627,-23.54492 z m -117.81838,8.83008 c 0.60888,0 -2.73844,3.9571 -2.9414,8.82812 0,4.9725 3.75324,8.82813 2.9414,8.82813 -0.5074,0 -3.04424,-1.41967 -11.77148,-5.88477 -2.537,-1.31922 -4.26172,-1.72605 2.94336,-5.88671 6.59616,-3.75476 8.4222,-5.88477 8.82812,-5.88477 z m 17.6582,0 c 1.0148,0 2.03052,1.01526 5.88672,2.94336 4.97252,2.537 14.71485,7.9148 14.71485,8.82812 4.26212,0.91332 -11.56941,4.56555 -17.65821,5.88477 -5.3784,1.11628 -8.11775,0 -8.82812,0 -1.62368,0 5.17444,-0.10043 5.88476,-5.88477 0.60888,-4.9725 -2.53696,-11.77148 0,-11.77148 z m 74.66407,34.89648 c 1.14165,-0.13954 1.95312,-0.14017 1.95312,0.41797 0,1.11628 -3.3478,4.26304 -5.88476,5.88672 -0.81184,0.5074 -2.233,0 -2.94336,0 -1.42072,0 -2.94336,-1.11674 -2.94336,-2.94336 0,-2.73996 3.24824,-2.94336 5.88672,-2.94336 1.31924,0 2.78999,-0.27844 3.93164,-0.41797 z m 43.15431,553.99219 c 23.9492,0 42.1149,2.63741 44.1445,5.88477 1.7251,2.84142 4.2611,88.18735 5.8848,188.44927 l 2.9433,179.6191 c -71.8869,3.4907 -148.36669,18.767 -220.82027,17.6582 l -249.64063,1.5313 c 88.43423,-62.7779 188.30805,-163.9642 254.33789,-238.5684 14.86247,-27.2228 14.38015,-38.3813 15.90235,-60.40236 4.66804,-68.39727 13.29533,-79.55987 73.57422,-88.28711 21.51364,-3.14588 50.63788,-5.88477 73.67384,-5.88477 z" /></svg>
