<?xml version="1.0" encoding="UTF-8" standalone="no"?>
<svg
   width="1420.771"
   height="1800"
   id="svg2265"
   version="1.0"
   xml:space="preserve"
   xmlns="http://www.w3.org/2000/svg"
   xmlns:svg="http://www.w3.org/2000/svg"
   xmlns:rdf="http://www.w3.org/1999/02/22-rdf-syntax-ns#"
   xmlns:cc="http://creativecommons.org/ns#"
   xmlns:dc="http://purl.org/dc/elements/1.1/"><metadata
     id="metadata2272"><rdf:RDF><cc:Work
         rdf:about=""><dc:format>image/svg+xml</dc:format><dc:type
           rdf:resource="http://purl.org/dc/dcmitype/StillImage" /><dc:creator><cc:Agent><dc:title>S. Thomas, mod. S. Romorduc</dc:title></cc:Agent></dc:creator><dc:description>A17 sign based on S. Thomas A17A, with added &quot;areas&quot; for ligatures.&#10;</dc:description></cc:Work></rdf:RDF></metadata><defs
     id="defs2270" /><path
     id="path2356"
     style="fill:#000000;stroke:none;stroke-width:0.976172"
     d="M 938.25657,0.04492724 C 906.97311,8.4501236 888.83749,29.560821 883.85029,63.375924 c 5.78889,72.789746 27.63041,109.730436 60.39487,145.607726 8.7172,8.79659 14.69067,27.70468 17.92189,56.72276 l -0.21546,1.46808 c -1.95146,13.23182 8.43391,23.95279 -20.45574,29.70647 l -0.0247,0.0896 -84.39493,-10.73407 c 13.06192,127.58206 4.47838,189.58618 -68.06125,283.58339 -5.1824,16.84271 -3.22738,24.93961 5.84178,24.29179 9.06907,-0.64779 15.54141,0.975 19.42808,4.86179 -4.31553,3.23675 -6.61975,6.70109 -6.8923,10.38706 l -48.06877,-0.1468 c -36.5739,1.30622 -77.25244,17.69978 -117.74492,49.04877 C 539.69452,745.7785 490.6363,848.6134 491.94249,964.86596 c 0,18.28691 12.13015,24.70407 34.33569,22.09162 75.07236,-32.69275 228.74388,-95.44619 280.96754,-125.24733 29.31377,50.12902 43.96583,128.40066 43.96583,234.78055 l -81.62468,15.5425 c -196.93049,19.4341 -310.94499,50.5268 -342.03923,93.2814 -42.75464,24.6165 -74.50624,110.7856 -95.23579,258.4832 -31.09425,155.4715 -89.39499,236.4402 -174.90428,242.9179 L 13.611104,1761.1392 0,1786.3845 c 10.364768,9.069 20.084411,13.6109 29.153577,13.6109 l 264.302113,-13.6109 c 18.13833,-59.5976 54.07871,-133.7634 107.84593,-222.5119 53.76722,-88.7483 74.83317,-167.4562 63.17275,-236.1227 24.61638,88.1005 47.28222,202.1149 68.01167,342.0393 3.88684,33.6854 -36.92575,64.1426 -122.43509,91.35 -38.86786,2.5913 -58.31099,14.9019 -58.31097,36.9267 l 200.17415,-7.7958 c 44.05025,0 66.08217,-17.488 66.08219,-52.4692 -14.25155,-31.0943 -15.87626,-94.5748 -4.8637,-190.4488 11.01258,-95.874 -0.96755,-173.6177 -35.94864,-233.2153 l 342.03922,-13.5863 c 111.4212,0 167.133,-28.5039 167.1331,-85.5102 l -9.7255,-190.4487 c 0,-72.55335 19.441,-134.7621 58.3089,-186.58594 l 40.8123,172.97474 -58.3089,268.186 c -11.6604,18.1384 -19.7571,35.2961 -24.2918,51.4911 -4.5344,16.1949 -7.4539,30.7886 -8.7493,43.7447 -10e-5,10.3648 2.9194,24.2749 8.7493,41.7655 5.8305,17.4907 9.4078,34.0146 10.7035,49.5617 2.5912,3.8867 5.1801,6.4756 7.7712,7.7713 2.5913,1.2955 4.5214,-0.6347 5.8171,-5.817 6.478,6.4779 10.3613,5.8194 11.6568,-1.9543 6.478,6.4779 10.3857,5.8421 11.6817,-1.9315 2.5912,2.5914 5.1802,3.5554 7.7711,2.9077 2.5914,-0.6477 3.8856,-4.201 3.8856,-10.6789 -6.478,-20.7295 -11.3519,-37.2535 -14.5911,-49.5617 -3.2386,-12.308 -3.5425,-30.7849 -0.9513,-55.4015 1.2956,-6.4779 2.5897,-9.7006 3.8857,-9.7005 2.5912,0 5.1802,1.9284 7.7711,5.8149 0,6.478 -0.6606,15.5637 -1.9561,27.2243 -1.2956,11.6604 -0.3296,20.7232 2.9093,27.2011 3.2391,6.4779 7.4509,7.7724 12.6331,3.8855 3.8869,-1.2955 4.8775,-7.1341 2.9343,-17.4985 -1.9435,-10.3648 -0.649,-25.264 3.8855,-44.698 4.5347,-19.4339 -0.3396,-40.1465 -14.591,-62.1717 59.5973,-79.0313 90.0547,-178.8052 91.3502,-299.29555 -6.478,-85.50931 -23.3302,-157.41485 -50.538,-215.71667 -37.572,-36.27666 -82.9038,-60.23691 -136.0231,-71.89728 -5.9286,-5.01655 -10.6513,-10.01991 -14.1735,-15.05439 125.267,-211.40504 250.5216,-422.81747 375.7876,-634.223201 -6.6634,-14.019451 -20.1001,-24.869382 -35.7772,-26.320391 -2.8701,-0.152934 -6.5251,-1.581543 -7.6738,2.12584 -47.7491,64.726486 -95.4594,129.484802 -143.1769,194.237042 17.0661,-37.10222 29.5636,-61.86533 36.9075,-72.7133 8.323,-12.2926 19.9147,-27.23128 34.7762,-44.818067 14.8619,-17.587133 24.3471,-30.961236 28.4501,-40.120236 4.1049,-9.15877 -0.6716,-21.75576 -14.33,-37.7904 -17.9563,-10.6602787 -34.2102,-10.8031566 -48.7589,-0.430888 -14.7093,14.855434 -27.5325,30.489832 -38.4654,46.903869 -10.9333,16.41352 -30.9327,31.492058 -59.9982,45.231792 -21.3216,5.36759 -57.1081,25.62691 -107.3577,60.7781 -30.5433,30.5466 -50.7156,45.09679 -60.5169,43.65123 -5.39076,-0.79505 -16.87474,-9.4997 -34.4539,-26.11258 -42.08409,-50.77184 -60.20499,-94.253246 -54.36816,-130.44656 7.57466,-17.409949 18.37511,-27.836349 32.4024,-31.275602 17.57003,3.091911 26.28016,13.641458 26.12783,31.645479 -2.07959,10.706806 -17.50514,13.441532 -46.2747,8.196405 l -1.46998,-0.215444 c 6.09084,16.420823 20.898,26.364886 44.42151,29.834238 23.35502,-5.568764 33.7243,-21.565358 31.1116,-47.988732 C 996.82548,15.442695 975.46346,-0.97724442 938.25848,0.04492724 Z M 1289.3082,46.24908 c 2.3324,-0.178263 4.3742,0.473234 6.1279,1.952343 10.2592,8.523446 -1.9856,28.750255 -36.738,60.678937 -16.9907,23.53223 -30.7318,48.79383 -41.2222,75.78862 -10.4912,26.99427 -19.8038,49.40622 -27.9411,67.23378 -7.5654,16.57471 -27.9253,39.59621 -60.7399,68.8944 l -145.04151,-18.4481 c 18.93801,-20.07482 38.82251,-41.25004 60.66941,-64.71137 24.3935,-26.19587 68.4096,-58.13679 132.0519,-95.81918 21.4821,-9.85075 43.552,-25.37369 66.2061,-46.568316 20.9777,-31.895013 36.52,-48.228659 46.6274,-49.001114 z m 43.7122,89.1366 -295.7359,498.82908 c -11.8519,-8.99707 -24.9127,-17.05297 -34.2384,-28.88666 2.1749,-8.22412 10.0675,-13.04324 15.2984,-19.30605 12.3784,-13.33974 28.0065,-26.13436 31.6226,-44.94199 2.6087,-15.83579 -5.3985,-31.58392 -16.3737,-42.37574 -10.9707,-10.94243 -28.3644,-12.40653 -42.37574,-6.91709 -3.74347,0.69987 -7.47521,4.00085 -10.85036,3.93519 -22.0873,-17.62306 -57.07086,-28.93667 -84.91163,-32.38713 -5.43538,0.72245 -2.41686,-5.88057 -3.17635,-9.23739 0.33016,-44.07127 5.3482,-86.38978 2.89609,-130.37222 91.04151,11.28473 182.07909,22.61442 273.12369,33.87045 z M 874.50042,492.9369 c 37.63319,3.87691 72.888,20.31062 102.81253,42.93816 -4.22645,8.15769 -4.81,14.30235 -1.73498,18.40237 -7.77356,3.88679 -12.62283,8.75903 -14.56632,14.58918 -1.94325,5.8302 0.64558,10.34927 7.77123,13.58822 3.75625,1.70739 8.42155,1.15483 13.97909,-1.63776 -7.84745,17.12633 -15.27351,34.57677 -3.10393,46.9954 l 25.07536,25.58634 c 3.8868,23.32072 14.5725,42.76191 32.0631,58.30906 17.4904,15.54714 47.6175,33.03526 90.3721,52.46918 -67.3711,114.01241 -101.0528,196.27532 -101.0528,246.80335 0,0 3.5237,17.4546 8.0648,41.8133 7.1662,38.4398 16.8533,94.0599 19.1345,125.3199 1.1306,15.4932 -2.3409,28.0056 -7.7712,36.9267 -12.7081,20.8775 -81.6121,30.4511 -205.98927,29.1555 -102.35198,10.3645 -221.54426,11.659 -357.58171,3.8855 14.25148,-42.7547 88.74596,-71.9175 223.48784,-87.4644 133.4463,0 200.14921,-39.5201 200.14938,-118.5514 0,-54.4149 -29.13798,-141.85557 -87.43976,-262.34598 75.14465,-20.72949 106.23751,-43.39535 93.28154,-68.01165 5.18241,-36.27667 -3.88037,-55.71787 -27.20124,-58.30906 -25.91186,2.59119 -40.80922,-5.17538 -44.69605,-23.31371 19.43396,-7.77355 26.5399,-14.27049 21.35756,-19.45286 -5.18241,-5.18239 -14.24319,-8.407 -27.19933,-9.70261 9.06924,-9.06918 5.82143,-17.49629 -9.72549,-25.26987 l 34.99535,-54.42343 c 15.54724,-11.66037 42.09593,-8.41291 79.66852,9.72548 12.95575,-1.29559 9.40288,-6.80356 -10.67878,-16.52055 -20.08179,-9.71699 -39.85316,-13.92862 -59.28712,-12.63302 1.95075,-3.34421 3.89271,-6.28042 5.81508,-8.87134 z m 7.67399,28.12784 c -1.29433,-0.004 -2.54895,0.0502 -3.76359,0.17159 -12.95599,1.29563 -23.31129,9.7208 -31.08495,25.26796 12.95596,11.66035 26.23051,16.83996 39.83425,15.54437 13.60383,-1.2956 28.17281,-6.47521 43.71989,-15.54437 h 25.26986 v -7.77124 H 930.88002 C 910.9198,526.99172 894.68628,521.10146 882.17441,521.06474 Z m 122.92509,5.13252 c 2.5266,-0.0451 5.0982,0.37847 7.6492,1.39181 1.9024,0.73033 3.3673,2.10451 4.3985,3.78837 -1.8847,6.41399 -5.3579,12.42441 -10.4595,18.0363 -6.478,7.12578 -12.64466,11.99798 -18.47481,14.58918 -5.83007,2.59118 -5.83015,0.30784 0,-6.81796 5.83024,-7.12575 5.83015,-9.71461 0,-7.77122 -5.83007,1.9434 -6.79629,-0.64547 -2.90945,-7.77124 2.13878,-3.92102 4.4851,-7.73799 7.01432,-11.46239 3.97973,-2.34528 8.31704,-3.90305 12.78174,-3.98285 z m -132.06525,4.49571 c 0.50612,0.0202 1.00492,0.10688 1.49095,0.26884 -6.47799,10.36476 -3.88886,16.20301 7.77124,17.49863 14.25156,-3.88678 16.84039,-9.72505 7.77123,-17.49863 9.06922,3.88678 18.15495,7.77007 27.22411,11.65685 -11.6604,3.88678 -23.33488,5.84178 -34.99535,5.84178 -9.06916,1.29559 -16.20191,-1.29325 -21.38424,-7.77123 4.53457,-6.80189 8.57939,-10.13794 12.12206,-9.99624 z m 100.61231,33.30995 c 6.47794,3.88677 7.77247,7.4398 3.88564,10.67877 -3.88667,3.23902 -6.80582,2.91061 -8.74933,-0.97617 -1.94317,-3.88677 -0.31877,-7.11142 4.86369,-9.7026 z m -160.87752,67.7924 c 0.13084,1.83124 0.6328,3.85375 1.51572,6.06103 2.59133,6.47799 3.88562,14.57477 3.88562,24.29178 0,9.71692 6.14202,15.52852 18.45002,17.47193 12.30831,1.94337 27.53787,1.63981 45.67603,-0.95138 6.47799,27.2075 2.26445,39.82146 -12.63493,37.8781 -14.89931,-1.94341 -40.29725,1.39987 -72.87536,16.52055 L 570.4384,898.63698 c 31.34903,-73.14771 58.73461,-135.47406 80.94022,-186.41623 35.2676,-11.75589 69.04627,-29.21309 103.03178,-34.33568 13.55498,-2.04312 7.14086,-26.59659 9.79987,-41.88573 3.47897,-0.0422 30.68338,-2.70025 48.55877,-4.20402 z" /></svg>
