<?xml version="1.0" encoding="UTF-8" standalone="no"?>
<!-- Created with Inkscape (http://www.inkscape.org/) -->

<svg
   width="1801.8409"
   height="1798.3336"
   viewBox="0 0 1801.841 1798.3336"
   version="1.1"
   id="svg570"
   xmlns="http://www.w3.org/2000/svg"
   xmlns:svg="http://www.w3.org/2000/svg">
  <defs
     id="defs567" />
  <path
     id="path6229"
     style="color:#000000;fill:#000000;stroke-width:0.992117;stroke-linejoin:round"
     d="m 662.81848,0.03892475 c -1.25832,0.1606456 -2.40699,0.8085436 -3.20664,1.80859375 L 281.0307,475.01549 c -19.15628,-7.62436 -33.70093,-9.88634 -51.7543,-7.4707 -63.80317,9.24475 -60.34534,68.67083 -35.55771,116.59766 l -50.58367,63.2207 C 78.622163,591.58417 -8.4235925,668.32981 41.981239,741.7362 c 3.881474,6.80429 8.10381,11.99526 12.509422,16.41992 L 1.1022307,824.88268 c -1.74358251,2.18004 -1.37801485,5.39119 0.8093869,7.10937 l 52.1118964,40.91211 c 2.120273,1.66409 5.161257,1.2995 6.842041,-0.82031 L 125.9618,789.97643 c 32.57755,8.29906 64.36914,18.27606 89.13453,43.45312 121.72133,87.77414 251.47305,163.83791 373.55198,250.80085 90.72712,19.1398 139.38177,-88.65816 176.27369,-154.94733 42.52692,-68.98326 61.11231,-151.77366 108.95695,-217.00391 13.06045,14.08181 20.52588,31.7991 32.71632,44.45118 50.18749,71.00046 89.26459,153.08506 158.31983,207.84375 30.3369,29.85217 62.2377,58.23061 88.2368,91.24611 2.8056,6.9886 4.0413,14.2516 2.9952,21.8828 -29.8348,38.8429 -88.3523,28.7598 -131.319,44.2852 -89.10665,21.9405 -187.66022,36.9337 -267.66708,53.707 -24.35966,6.5196 -69.12093,14.4419 -88.83658,36.0215 -53.05712,43.1427 -49.18539,127.6098 -89.90356,183.2246 -46.30996,88.3151 -75.97252,194.1198 -160.75941,253.8476 -85.32088,34.2011 -173.96424,61.8644 -258.25672,97.8672 -11.21468,82.1208 112.14885,39.4587 162.81452,47.2539 62.55784,-13.5146 164.22246,38.4364 193.07396,-40.7148 59.78114,-116.7332 164.13584,-208.5296 201.78075,-337.4707 4.3502,-14.6322 12.29741,-24.6901 22.52346,-31.793 18.86965,-16.3032 68.06517,-16.1038 88.17149,-16.1152 30.4245,-0.2486 64.95542,1.1867 91.72793,-5.5625 10.46715,-2.9364 24.60345,-8.1743 33.84095,-1.1563 2.29013,4.2086 0.17343,12.0533 -8.30115,25.0313 -17.85477,45.662 -35.80946,91.4038 -58.05041,135.0879 -17.40424,33.9 -36.51639,66.7809 -59.1116,97.4414 -29.41846,79.1269 14.5035,186.9033 109.38376,178.6914 100.72019,1.0375 175.83929,-78.7927 255.42689,-130.3106 56.1736,-35.7412 112.5476,-86.841 181.8083,-87.1191 67.2149,30.1379 92.1386,132.0381 61.582,200.0977 57.8441,62.7655 136.9664,-68.168 94.5078,-129.7852 -24.0941,-59.939 -13.5453,-124.88 -26.7317,-186.7285 -4.0908,-64.5061 -135.7575,-6.1922 -188.6927,13.7734 -50.798,31.7349 -80.602,14.4632 -165.4406,102.8145 59.7346,-48.347 118.737,-97.661 178.7843,-145.3887 50.136,-33.0771 101.6588,-66.8481 145.6585,-108.3808 24.4834,-19.9515 38.6833,-39.3812 54.5439,-62.084 28.6786,-54.7707 -2.2189,-152.6881 -21.9086,-208.4482 10.0192,-17.1194 58.542,-4.7671 72.5442,4.3993 21.7599,14.8801 28.8257,39.8941 37.4359,63.3477 18.7774,46.595 41.384,91.4416 63.7871,136.2598 26.3503,66.3554 49.771,134.4868 63.5466,204.7695 -6.2914,36.0144 51.1313,31.144 53.2424,-0.4063 11.7783,-49.7184 -1.7796,-101.5001 -15.841,-149.2695 -35.8573,-96.2585 -73.4479,-191.915 -112.0579,-287.084 -14.2741,-21.6647 -19.2596,-47.52614 8.4319,-60.9453 16.5878,-12.87011 37.8076,-34.01472 24.2325,-56.78516 -16.6166,-32.87216 -50.2209,-60.87547 -87.6178,-62.28516 -31.7611,-0.68286 -47.6218,33.18181 -52.5618,60.4336 -1.6041,23.0065 -7.7616,42.34245 -32.9028,45.13086 -16.9131,10.03194 -41.8511,14.21811 -56.1991,26.66211 -17.1568,-34.06766 -37.6869,-66.26605 -62.7393,-95.31836 C 1335.4899,791.8006 1289.39,677.7117 1208.6281,589.91784 c -20.068,-22.63887 -50.7002,-40.39829 -62.7989,-65.61524 -11.2672,-28.83383 -7.1986,-55.55374 -6.9304,-87.50781 32.1857,-10.35072 72.4303,-9.53709 93.8792,-40.63281 20.6596,-30.52412 8.1196,-69.61808 4.6543,-103.3711 -11.3424,-60.68835 -19.1725,-127.07174 -61.9473,-174.71679 -43.111,-50.317254 -108.0342,-82.082384 -173.9666,-81.955087 -44.40358,1.697393 -89.34361,10.91754 -130.15209,28.96875 -22.0533,12.169215 -41.73972,28.043843 -60.93605,44.490237 L 666.36353,0.98423725 c -1.01787,-0.7670024 -2.28761,-1.1056094 -3.54505,-0.9453125 z M 1002.1489,74.029159 c 26.0773,0.08754 51.9247,5.052966 75.91,16.972656 56.4312,24.363695 99.5116,77.728155 109.1742,139.531255 9.228,44.76053 20.3992,90.1514 18.9861,136.14648 -12.5219,29.25105 -51.5289,22.49054 -76.406,33.16602 -16.2949,2.64952 -38.3245,-2.41965 -46.9501,-12.46875 -5.8104,-14.86351 12.8746,-28.76277 16.0198,-43.87891 12.3338,-25.66514 21.4114,-54.25442 16.7562,-83.10546 -0.8123,-24.95557 -15.401,-48.12633 -37.3207,-59.39258 -17.0452,-11.3676 -39.0385,-12.46956 -57.5947,-4.26367 -15.5805,5.8211 -29.23373,17.91386 -46.02358,8.83007 -51.36126,-10.94195 -103.68977,-19.28473 -156.28968,-19.13476 -10.2356,0.11588 -20.48124,0.65677 -30.6689,1.72851 9.6025,-18.77891 25.77301,-34.28762 42.99947,-46.40625 28.04265,-23.57688 56.75324,-49.617277 94.11949,-55.435549 24.90324,-7.58716 51.21105,-12.3766 77.2884,-12.289062 z m -384.83483,96.187501 105.35426,58.17188 c 7.18526,2.71393 16.06165,-13.79961 20.27227,-19.14649 -3.75617,28.54193 -6.02212,72.28134 -19.89548,95.93555 -17.62088,30.42572 -36.0034,61.96215 -43.57047,96.67969 -0.99139,32.4089 37.38466,35.53564 61.05521,33.73828 7.63036,28.91062 -4.61084,57.53473 -22.56765,79.66992 -22.82071,29.30325 -32.75335,66.32095 -40.90411,102.06836 -3.09502,34.47151 36.0595,26.20283 47.88838,6.08985 41.28808,-16.05294 54.6877,-63.25362 88.78274,-88.22852 9.66264,-5.86961 26.0563,1.8657 39.35453,5.3125 C 739.84331,632.42546 688.17337,777.1299 601.26541,891.72838 560.7627,971.04725 500.39846,862.59162 473.00313,836.90221 416.84775,751.09011 366.69746,660.01259 339.96928,560.06237 337.267,550.4845 333.86891,541.32983 330.08409,532.50963 Z m 207.27706,56.40821 c 30.67579,0.077 61.47136,4.06114 91.69523,8.51562 25.14504,4.09769 50.15486,9.12064 74.86413,15.39453 18.36431,1.38871 31.77601,-16.10913 50.15301,-17.48047 15.6064,-3.82771 33.5412,9.62157 34.3581,26.16407 5.3365,24.09929 -4.2335,47.78665 -13.4706,69.55078 -6.3545,14.96801 -15.4523,28.55577 -22.0736,43.32422 -2.3888,33.8961 27.5171,61.86959 58.8059,67.03515 4.2881,27.1659 1.173,69.25379 1.9205,99.33399 20.3129,49.50024 74.3294,70.83415 101.4537,115.55469 66.443,85.18447 110.6868,185.73283 179.4861,269.30273 17.6424,20.80681 32.2556,43.61839 45.068,67.48633 l -223.8697,54.15239 c -4.3637,-14.2997 -13.6808,-27.44 -28.9407,-37.3145 -45.4681,-55.52817 -107.7476,-93.99818 -147.8309,-154.31641 -38.09922,-54.54277 -73.50653,-111.02465 -110.6564,-166.29297 9.23688,-36.15669 1.0516,-104.87068 -0.42678,-123.54492 0.50146,-18.16549 -9.18817,-32.19039 -19.16687,-44.91015 -4.69419,-4.41869 -28.11106,-17.67259 -40.48879,-17.77149 -28.90859,-9.3284 -65.17666,-3.81904 -83.97475,21.44336 -16.98029,16.84476 -27.54347,39.15715 -44.60093,55.79297 8.56476,-29.32892 34.40451,-49.25681 43.51092,-78.52149 3.48904,-6.54592 2.49686,-13.68587 5.1964,-22.90039 69.96358,10.06318 82.96301,-29.11722 3.33164,-33.81445 -0.12796,-13.3426 -1.41414,-13.26529 -5.73854,-25.36523 -6.25472,-26.41009 -45.00617,-14.66343 -52.59066,-24.3418 10.30971,-29.12843 27.43854,-54.68451 42.45162,-81.27539 10.15636,-25.96882 7.64306,-54.68506 14.3031,-81.71484 15.65031,-2.50457 31.42366,-3.52598 47.23087,-3.48633 z m 0.20375,16.21679 c -3.36324,-0.0566 -6.55364,0.2637 -9.57002,0.96094 -16.06293,3.62064 -28.34153,14.766 -36.90914,33.31055 17.88939,15.17253 35.83213,20.98471 53.7037,17.51172 17.96803,-3.44847 34.97226,-11.30766 51.11038,-23.55274 l 30.21905,-1.58203 -1.83018,-8.79687 -33.28344,4.03125 C 857.19526,250.4038 839.36877,243.08689 824.79488,242.84166 Z m 7.95892,14.27149 c 2.67069,0.60117 5.3277,1.23694 7.9667,1.9082 7.91719,2.01377 15.68397,4.34226 23.26166,6.97266 -11.94068,8.93885 -25.35122,13.85923 -40.13506,14.78515 -12.2033,0.85332 -21.31917,-2.08977 -27.3219,-8.92773 4.00628,-8.77009 9.21872,-12.86192 15.58535,-12.49219 -7.11765,9.74907 -3.26245,16.97998 11.73655,21.41992 14.61769,-8.98693 17.58642,-16.87613 8.9067,-23.66601 z m 204.4165,2.9043 c -4.0444,0.0502 -8.7052,2.30187 -13.9629,6.79101 -9.3468,7.98071 -16.7036,20.91073 -21.9736,38.89258 -5.2701,17.98185 -4.07831,28.99375 3.6776,32.93359 -9.24742,10.40523 -13.72272,19.69898 -13.42448,27.67969 0.29834,7.98071 5.07297,11.41539 14.32048,10.20313 9.2474,-1.21226 19.0915,-11.51845 29.4327,-31.01563 10.3413,-19.29513 16.0078,-36.26537 17.0022,-50.8125 0.9944,-14.54712 -1.2904,-24.74924 -6.7593,-30.81055 -2.3928,-2.60761 -5.1671,-3.90034 -8.3127,-3.86132 z m -3.2394,21.20117 c 0.2684,-0.008 0.5299,0.002 0.7843,0.0293 2.4424,0.25985 4.2405,2.11318 5.3964,5.56055 3.0825,9.19297 2.2872,19.80211 -2.4858,31.72266 -4.6734,11.92056 -9.6457,20.50752 -14.8163,25.55859 -5.1706,5.05109 -6.3624,2.02059 -3.6776,-9.0918 2.6847,-11.11237 1.7897,-14.04415 -2.8837,-8.79101 -4.574,5.25312 -6.7624,3.53659 -6.2653,-4.94922 0.3978,-8.48582 2.784,-17.88025 7.1592,-27.98242 7.1664,-7.93178 12.7632,-11.94302 16.7888,-12.05664 z m -28.2236,72.36523 c 9.2475,1.81839 12.2304,5.15291 8.9491,10.00195 -3.3808,4.84904 -6.8622,5.96109 -10.6408,3.43555 -3.7786,-2.62657 -3.1805,-7.07313 1.6917,-13.4375 z M 241.39161,644.38073 c 45.3235,56.53392 81.20701,120.16199 122.21811,179.9375 -50.2438,-30.39151 -103.22847,-57.58849 -151.75655,-89.98047 -6.88367,-8.90622 -13.63713,-17.93988 -20.41647,-26.94727 z M 1449.3501,1037.7889 c 17.0217,40.8368 29.8608,83.7475 41.5846,125.9571 22.4024,55.8222 -14.0492,106.129 -57.4294,137.2695 -60.7509,57.5819 -138.7794,91.5412 -198.4454,150.4707 -52.9617,43.8326 -106.6103,86.8028 -160.3211,129.6817 -39.103,-25.5592 -115.6197,-43.3148 -125.64769,-84.8575 22.52208,-53.8581 46.0695,-107.8328 63.32939,-163.5371 -21.79946,-57.2625 -98.51852,-9.4488 -144.49347,-11.1054 -34.11107,-0.8323 -93.72232,-1.2722 -121.93934,4.3652 -9.4714,-6.3158 -30.14703,-50.9143 -33.46992,-80 25.05871,-18.8006 53.00662,-21.5247 89.8824,-32.8223 79.77684,-13.8654 159.37207,-28.1202 238.04393,-47.416 43.8629,-12.3291 93.0178,-11.6561 132.5513,-35.8105 12.9433,-10.4093 22.4231,-23.813 27.8257,-38.1778 z" />
</svg>
