<?xml version="1.0" encoding="UTF-8" standalone="no"?>
<!-- Created with Inkscape (http://www.inkscape.org/) -->

<svg
   width="1796.1376"
   height="1795.3301"
   viewBox="0 0 1796.1376 1795.3301"
   version="1.1"
   id="svg10448"
   inkscape:version="1.2.2 (732a01da63, 2022-12-09)"
   sodipodi:docname="US9A4Dils.svg"
   xmlns:inkscape="http://www.inkscape.org/namespaces/inkscape"
   xmlns:sodipodi="http://sodipodi.sourceforge.net/DTD/sodipodi-0.dtd"
   xmlns="http://www.w3.org/2000/svg"
   xmlns:svg="http://www.w3.org/2000/svg">
  <sodipodi:namedview
     id="namedview10450"
     pagecolor="#ffffff"
     bordercolor="#000000"
     borderopacity="0.25"
     inkscape:showpageshadow="2"
     inkscape:pageopacity="0.0"
     inkscape:pagecheckerboard="0"
     inkscape:deskcolor="#d1d1d1"
     inkscape:document-units="px"
     showgrid="false"
     inkscape:zoom="0.3077861"
     inkscape:cx="908.09818"
     inkscape:cy="896.72665"
     inkscape:window-width="1920"
     inkscape:window-height="1137"
     inkscape:window-x="-8"
     inkscape:window-y="-8"
     inkscape:window-maximized="1"
     inkscape:current-layer="layer1"
     showguides="true" />
  <defs
     id="defs10445" />
  <g
     inkscape:label="Ebene 1"
     inkscape:groupmode="layer"
     id="layer1"
     transform="translate(-2.0214844,-2.2773438)">
    <path
       id="path2234"
       style="color:#000000;fill:#000000;stroke-linecap:round;-inkscape-stroke:none"
       d="M 1017.375,2.2773438 982.49023,2.3515625 2.0214844,4.4433594 V 1021.4121 l 160.8574256,-2.875 -0.23633,661.0742 H 319.28711 L 324.69336,312.4707 1661.7031,311.89062 V 163.78516 H 1018.248 Z m -69.62305,70.1484372 3.89063,169.496099 -696.67188,0.58007 -2.66601,706.28516 -180.283206,1.36328 V 74.294922 Z M 1424.5469,397.06445 c -63.0794,-1.39845 -118.0465,16.37816 -152.1192,76.36914 -10.5394,18.52706 -14.3113,40.82651 -24.6289,58.79883 -7.7658,13.53474 -19.9708,25.51722 -28.4023,38.83008 -9.3191,14.64416 -28.2891,37.94093 -27.7344,56.80078 0.5547,17.52856 16.3086,14.42044 28.6231,24.62695 -18.6381,12.42533 3.9934,19.63785 3.2168,21.08008 -7.9877,15.97543 -6.3229,5.32537 0.2226,20.19141 4.7705,10.76121 4.3249,18.74892 6.2109,30.17578 4.1048,24.29596 18.8619,23.96289 40.7168,23.96289 10.6504,0 35.6132,-2.1081 42.8243,8.875 7.544,11.31592 -4.3295,21.41318 -14.2032,25.62891 -23.8519,10.20652 -59.1311,1.10962 -85.5351,5.6582 -36.8324,6.21266 -111.2461,-9.22957 -153.1115,-10.83899 -41.3881,-1.59107 -69.27611,-14.03883 -98.59652,-26.19546 -26.7367,-21.9662 -45.15306,-63.01532 -65.45508,-90.86133 C 843.32383,587.05703 785.63313,508.7324 706.64356,462.13742 681.9039,447.4933 655.49971,435.28995 627.76465,427.52414 c -10.76124,-2.9954 -68.00679,-19.19479 -76.66015,-8.98828 -14.86606,17.52856 31.17485,25.51831 37.05468,26.84961 29.06636,6.87828 51.69762,22.51973 71.33399,44.92969 -29.17726,0 -61.6822,-1.88635 -88.08594,-15.75391 -12.98005,-6.87831 -24.74152,-16.86417 -34.61523,-27.73633 -6.43458,-7.10016 -14.31032,-27.51119 -21.52149,-31.83789 -23.29738,-14.0894 -54.47176,23.96237 -44.15429,44.48633 12.75814,25.40537 51.36693,51.92032 75.33007,66.00977 46.70589,27.40224 109.38772,22.63227 161.64063,28.06836 10.6503,1.10937 38.82906,-1.22008 47.48242,5.6582 7.21113,5.65793 13.20341,26.5158 17.75195,34.94726 17.9724,33.06023 35.94327,66.23117 53.80469,99.40235 -40.27132,-22.96467 -84.42583,-44.70824 -128.58008,-59.01953 -12.53626,-4.10482 -25.51842,-6.65889 -38.05468,-10.76367 -23.85224,-7.76584 -45.70637,-25.84736 -69.00391,-37.4961 -23.29753,-11.53781 -47.70557,-20.85769 -73,-26.51562 -10.98312,-2.4407 -68.33846,-15.42018 -75.2168,-5.43555 -11.09406,16.30821 27.28968,21.63278 33.61328,22.74219 29.84301,5.32511 53.58572,17.97292 75.33008,39.27343 -45.26362,-0.33282 -90.41716,-6.21355 -123.14453,-40.49414 -12.42535,-13.09094 -14.08904,-30.84072 -33.39258,-26.625 -9.42995,2.10788 -21.30258,10.09551 -26.29492,18.41602 -8.43148,14.08945 -2.32841,22.07787 8.21094,32.0625 32.5056,30.84142 70.78205,61.01866 116.82226,65.78906 22.52095,2.32976 45.48531,2.66012 68.11719,3.76953 24.07401,1.22035 61.23856,-3.994 83.09375,6.10157 19.19272,8.87522 38.8296,28.73677 56.58008,41.16211 21.74436,15.08787 43.49005,30.0629 65.23437,45.26171 31.06325,21.63338 60.46209,48.59328 93.18946,67.45313 23.74126,13.64568 50.14585,27.51158 77.32617,31.94922 37.78289,14.94486 70.52944,31.61244 99.78224,39.06656 55.595,14.16657 104.7773,44.86506 161.1347,36.10078 -4.881,56.02487 -2.6619,88.4536 6.3243,144.0351 9.0972,55.9136 28.6223,109.277 38.4961,164.9687 7.3055,41.0623 11.9819,84.5998 11.1894,127.1563 -4.5148,28.0392 -15.5952,67.6211 -23.3125,98.4121 -84.5094,18.4216 -176.3362,50.6547 -275.48046,96.7012 -99.14927,46.0512 -148.17925,91.8312 -147.08593,137.3359 0,40.0882 11.91969,70.969 35.75781,92.6406 h 953.39738 c -26.0049,-48.7546 -39.1846,-67.987 -86.3193,-57.6953 -47.1297,10.2916 -79.092,-10.295 -95.8886,-61.7578 -16.7964,-51.4681 -44.7002,-62.0336 -83.7051,-31.6953 26.0049,-62.8431 31.4235,-138.1478 16.2519,-225.9121 l -3.9296,-100.5625 c 6.1641,-67.371 14.4364,-139.8467 22.5175,-208.3086 8.5424,-71.8893 20.0811,-149.43687 -1.4414,-220.21682 -8.2097,-27.18039 -23.1866,-45.92988 -39.7168,-68.33984 -24.4066,-33.504 -41.8265,-72.33292 -45.8203,-113.93555 79.544,-30.61953 121.2615,-112.93928 116.7129,-195.03515 -4.3267,-79.54424 -73.9995,-108.50063 -144.7793,-115.37891 -9.3052,-0.91527 -18.4828,-1.50529 -27.4941,-1.70508 z m -7.9278,26.16797 c 57.3547,-0.18721 124.6471,17.72491 143.7012,67.39844 13.202,34.50243 4.5482,78.10075 -12.3144,109.71875 -13.9786,26.18192 -49.26,72.77924 -81.7657,75.55273 -40.4928,3.43917 -9.762,-48.37152 1.3321,-61.35156 22.7425,-26.4038 55.0269,-67.01053 19.082,-99.07226 -10.4284,-9.31902 -23.7418,-10.53755 -37.0547,-8.98438 -11.7598,1.3313 -21.8536,7.43391 -33.0586,9.76367 -11.6488,2.4407 -5.991,2.32783 -16.1972,-1.66601 -34.6136,-13.53474 -64.1273,-25.73852 -102.1797,-31.39649 11.2897,-29.10945 36.6084,-46.94569 66.3613,-54.18945 -8.2762,1.99714 -16.3278,3.93569 0.2051,-0.0605 16.7128,-4.02649 8.4901,-2.03844 0.1484,-0.0254 14.7298,-3.55756 32.6811,-5.62528 51.7402,-5.6875 z m -51.7402,5.6875 c -0.045,0.0111 -0.1031,0.0144 -0.1484,0.0254 -0.069,0.0168 -0.1358,0.0437 -0.2051,0.0605 0.157,-0.0379 0.1965,-0.0481 0.3535,-0.0859 z m -71.5937,79.57031 c 11.4265,-0.77655 25.7375,3.43941 36.7207,6.21289 19.5252,4.77047 53.9171,13.64647 67.1191,30.39844 5.5471,6.98927 -3.55,13.09101 8.9863,12.31446 8.6534,-0.5547 20.3017,-18.74951 28.4004,-23.07618 18.6381,-9.87369 43.0458,-3.32796 42.1582,20.19141 -1.886,50.69973 -81.4312,75.44052 -56.6914,124.91992 22.2992,44.93087 21.4121,95.74142 46.5957,140.22852 23.5195,41.49169 53.3639,67.56277 61.3516,117.375 6.4346,40.04946 1.6618,81.09911 -1.7774,121.25981 -3.772,43.5994 -8.0959,87.2005 -12.6445,130.6894 -2.7735,26.7368 -5.6589,53.4718 -8.6543,80.0977 -9.1041,55.3838 -5.9225,120.0749 -6.6367,167.666 -76.9261,5.4167 -150.0644,16.2528 -219.4121,32.5078 1.2069,-30.9592 13.3094,-63.1223 16.2265,-93.7695 9.6486,-69.9047 -25.5549,-200.2781 -37.3554,-269.9317 -11.9816,-71.6674 -28.6219,-173.06856 6.9902,-240.74217 15.6427,-29.62106 42.7134,-28.62135 65.2344,-49.36719 19.4147,-17.75044 31.1741,-60.57369 9.4297,-81.09765 -23.5195,-22.18808 -63.3485,6.10136 -84.8711,-16.3086 -11.6488,-12.09247 -6.2124,-24.51697 3.4394,-33.28125 10.6504,-9.76275 22.5199,-13.20401 9.7617,-25.18554 -8.2092,-7.65491 -23.7407,-1.6643 -31.1738,-7.32227 -3.4391,-2.55164 -6.3248,-13.86828 -11.539,-18.08398 -12.4254,-10.09557 -15.7523,-5.87928 -7.4317,-22.74219 5.6579,-11.42686 11.6471,-22.74269 18.5254,-33.50391 11.0941,-17.30667 22.1915,-34.94526 44.4902,-36.60937 27.8462,-2.10788 55.3566,18.08232 82.5372,23.18554 6.767,-22.29898 -78.7648,-38.49667 -95.8497,-32.50585 8.6534,-12.98004 11.0933,-22.52107 26.0704,-23.51954 z m 155.0546,28.27735 c -22.0967,-0.26245 -39.641,28.88626 -45.7773,45.94336 -0.8876,2.4407 0.9976,9.31871 0.332,10.53906 -1.5532,2.88446 -7.8769,5.43662 -10.6504,9.65234 -6.2127,9.42993 -9.0957,19.74515 4.2168,25.07032 32.8385,13.09094 95.0739,-83.31506 56.3555,-90.74805 -1.5116,-0.29122 -3.0035,-0.43953 -4.4766,-0.45703 z m -160.7148,13.21484 c -16.974,0.33282 -37.9411,12.31477 -35.0566,30.8418 7.9877,-2.88447 12.8684,1.3308 20.5234,3.2168 13.5348,3.21725 26.1831,4.2161 39.9394,1.2207 19.7475,-4.21576 25.1827,-4.54898 45.0411,0.44336 0.2219,-4.8814 0.2246,-9.76117 0.2246,-14.64258 -7.1003,-0.44376 -16.9748,0.55319 -23.7422,-1.55469 -16.863,-5.32511 -27.2931,-19.85821 -46.9297,-19.52539 z m 157.1641,2.99805 c 3.3334,0.14388 5.8917,2.54789 6.9179,8.42773 1.9969,11.64874 -24.6296,51.03371 -37.6093,46.70703 -3.883,-1.33125 12.7588,-16.75187 8.6543,-19.52539 -5.547,-3.66102 -15.1971,5.88122 -8.4297,-8.54101 3.4946,-7.57166 20.4665,-27.49999 30.4668,-27.06836 z m -162.8203,5.09961 c -3.3282,5.99075 -3.3282,11.98145 0,17.86133 -4.9923,-1.99694 -9.8741,-4.10227 -14.6446,-6.54297 2.7735,-5.43609 9.3195,-9.09954 14.6446,-11.31836 z m 0,17.86133 c -3.3282,-5.43611 -5.4361,-2.10788 0,0 z m 19.414,-14.53321 c 7.544,4.3267 15.1982,8.65579 22.7422,12.98242 -8.4315,2.10788 -17.3075,3.21485 -25.9609,3.21485 5.9908,-3.99387 7.3235,-10.20648 3.2187,-16.19727 z m -3.2187,16.19727 c 8.6534,0 6.5455,-4.3267 0,0 z m 102.289,30.84375 c 27.6244,15.75352 -26.0707,15.64258 0,0 z m 0,0 c -5.3251,3.21729 7.655,4.32666 0,0 z m -143.6679,14.64258 c -10.8722,7.21112 3.3275,12.53714 -13.6465,10.31836 1.6641,0.22188 -25.5151,-18.74892 -16.418,-0.55469 11.427,-5.76893 14.7539,15.08803 27.6231,8.98633 8.653,-4.21576 4.8821,-20.41411 2.4414,-18.75 z m -20.3028,36.5 c 3.772,-0.66565 28.9563,5.99102 29.2891,5.6582 h -37.3867 c -10.7613,0 7.8757,-5.6582 8.0976,-5.6582 z m 27.625,8.98632 c -4.4377,4.32668 -26.5158,17.30641 -33.2832,10.53907 -5.658,-5.658 30.1768,-10.09531 33.2832,-10.53907 z m 234.1055,813.69528 c 21.6715,67.1764 8.1267,131.6466 -40.6328,193.4063 -72.5929,41.1762 -160.358,47.4085 -263.2891,18.6953 -102.9359,-28.7131 -200.99276,-23.0273 -294.17381,17.0605 0,-34.6713 10.29267,-62.2985 30.88086,-82.8867 125.68575,-57.4214 234.30735,-94.8023 325.86325,-112.1406 91.556,-17.3383 172.0088,-28.7182 241.3516,-34.1348 z"
       sodipodi:nodetypes="cccccccccccccccccccsccccccccscccsccccccccccccccccccccccccccccccccccsccccccccccccccccccccscccccccccccccscccccsccccccccccccccccccccccccccccscccccscsccccccsccccscccccccccccccccccccccccscccccccccscc" />
  </g>
</svg>
