<?xml version="1.0" encoding="UTF-8" standalone="no"?>
<svg
   width="1128.9491"
   height="1800.942"
   id="svg3128"
   sodipodi:version="0.32"
   inkscape:version="1.3 (0e150ed6c4, 2023-07-21)"
   sodipodi:docname="US9A9VARE.svg"
   version="1.1"
   xml:space="preserve"
   xmlns:inkscape="http://www.inkscape.org/namespaces/inkscape"
   xmlns:sodipodi="http://sodipodi.sourceforge.net/DTD/sodipodi-0.dtd"
   xmlns="http://www.w3.org/2000/svg"
   xmlns:svg="http://www.w3.org/2000/svg"
   xmlns:rdf="http://www.w3.org/1999/02/22-rdf-syntax-ns#"
   xmlns:cc="http://creativecommons.org/ns#"
   xmlns:dc="http://purl.org/dc/elements/1.1/"><metadata
     id="metadata3135"><rdf:RDF><cc:Work
         rdf:about=""><dc:format>image/svg+xml</dc:format><dc:type
           rdf:resource="http://purl.org/dc/dcmitype/StillImage" /><dc:date>03/04/06</dc:date><dc:creator><cc:Agent><dc:title>Serge Thomas</dc:title></cc:Agent></dc:creator><dc:publisher><cc:Agent><dc:title>Serge Rosmorduc</dc:title></cc:Agent></dc:publisher><dc:description>variante optimisée du signe de Jsesh</dc:description><cc:license
           rdf:resource="http://creativecommons.org/licenses/GPL/2.0/" /></cc:Work><cc:License
         rdf:about="http://creativecommons.org/licenses/GPL/2.0/"><cc:permits
           rdf:resource="http://web.resource.org/cc/Reproduction" /><cc:permits
           rdf:resource="http://web.resource.org/cc/Distribution" /><cc:requires
           rdf:resource="http://web.resource.org/cc/Notice" /><cc:permits
           rdf:resource="http://web.resource.org/cc/DerivativeWorks" /><cc:requires
           rdf:resource="http://web.resource.org/cc/ShareAlike" /><cc:requires
           rdf:resource="http://web.resource.org/cc/SourceCode" /></cc:License></rdf:RDF></metadata><defs
     id="defs3133"><clipPath
       clipPathUnits="userSpaceOnUse"
       id="clipEmfPath1"><path
         d="M 0,0 H 124.43852 V 129.53846 H 0 Z"
         id="path1068" /></clipPath><pattern
       id="EMFhbasepattern"
       patternUnits="userSpaceOnUse"
       width="6"
       height="6"
       x="0"
       y="0" /></defs><sodipodi:namedview
     inkscape:window-height="1137"
     inkscape:window-width="1920"
     inkscape:pageshadow="2"
     inkscape:pageopacity="0.0"
     borderopacity="1.0"
     bordercolor="#666666"
     pagecolor="#ffffff"
     id="base"
     inkscape:zoom="0.19559866"
     inkscape:cx="327.20061"
     inkscape:cy="1321.5837"
     inkscape:window-x="-8"
     inkscape:window-y="-8"
     inkscape:current-layer="svg3128"
     inkscape:showpageshadow="2"
     inkscape:pagecheckerboard="0"
     inkscape:deskcolor="#d1d1d1"
     inkscape:window-maximized="1" /><path
     id="path3130"
     style="fill:#000000;stroke:none;stroke-width:110.146"
     d="m 590.79679,0 -19.7124,19.262569 c -10.8618,-11.29215 -38.731,-2.99457 -84.159,25.52999 0,0 -77.4221,23.114566 -103.3953,101.034131 l -236.0944,240.31818 c -43.2793,53.18873 -89.0791,140.55646 -82.7541,168.66809 110.9623,137.74628 197.053,219.69331 258.2735,245.83956 61.2206,26.14636 111.6017,73.65614 151.14,142.5293 49.1388,34.30448 96.5818,171.10058 107.2189,332.39338 -116.4524,-155.8848 -325.1729,-375.06696 -388.7237,-406.07647 -34.8829,-11.30941 -64.6747,-17.34432 -89.5436,-17.23633 -54.7116,0.23747 -85.5928,30.21067 -94.4172002,99.19365 C 114.84819,1236.3082 250.67129,1552.2554 269.03639,1610.0948 c 17.2937,80.5821 -140.6596,65.3928 -205.3645,79.4804 -25.9101,5.3991 -91.4259,110.6335 -50.6028,111.301 42.0066,0.6868 189.4639,-4.1889 206.6788,-6.8933 45.0023,-7.0698 115.474,-5.8275 140.3828,0.6846 39.6985,8.127 66.5896,5.2746 77.9213,-19.5555 11.3316,-24.8296 1.5163,-44.599 -0.7393,-68.8762 44.0192,95.6941 120.6215,92.2614 159.0827,93.012 74.5428,1.4548 169.6161,9.2953 215.14,-41.1404 95.9384,-106.2897 79.2339,-332.2025 80.5104,-373.226 3.0912,-99.3448 24.9399,-216.1376 58.4221,-351.7829 10.2034,-38.26282 24.2332,-29.6535 42.0891,25.8276 17.85601,55.4811 31.24851,167.402 40.17651,335.7584 11.4789,122.4411 7.0154,157.8892 -13.3916,238.2413 -52.10321,86.8396 -39.02851,121.8403 0,166.4442 68.1942,-12.6375 115.3458,-88.9239 96.6126,-156.8783 -5.7394,-16.5805 -9.8829,-36.3505 -12.434,-59.3083 7.6525,-61.2205 0.8767,-60.8763 14.9062,-116.3574 14.0299,-55.4811 14.0299,-134.8766 0,-238.1865 -21.6821,-173.4583 -35.951,-300.76393 -78.0401,-396.42115 -28.0594,-35.71204 -82.26651,-69.50966 -162.61851,-101.39536 -36.9875,-15.30509 -51.0173,-51.65631 -42.0892,-109.0507 53.568,-31.88572 93.7453,-68.87215 120.5294,-110.96132 26.7838,-42.08911 37.3053,-88.96166 31.5659,-140.61651 -5.4439,-48.99356 -33.5443,-84.91604 -83.7365,-108.09325 h 15.8196 L 1000.2102,0 Z m 65.0466,45.914723 h 281.233 l -49.7424,172.184527 h -189.4014 z m -76.4718,4.892136 80.2973,211.294351 h 12.0372 c -41.2161,22.60775 -79.6974,61.94336 -115.3454,118.61449 -11.4788,29.3349 -38.901,72.70107 -82.2656,130.09527 -6.3772,24.23323 -3.5081,36.34882 8.6084,36.34882 12.1166,0 21.3632,2.55145 27.7403,7.65317 -6.3771,5.10163 -9.5659,11.15945 -9.5659,18.17441 0,7.01484 3.1888,10.52337 9.5659,10.52337 7.6527,0 8.9295,2.86909 3.8277,8.60847 -5.1017,5.73945 -6.0588,13.39157 -2.8702,22.95736 3.1886,9.5657 5.1005,22.00109 5.7383,37.30624 0.6376,15.30511 9.8843,23.9144 27.7403,25.82758 17.856,1.91315 40.1775,1.59556 66.9615,-0.95529 11.4789,28.05937 0.3181,44.95823 -33.4808,50.69768 -33.7988,5.73945 -81.946,4.78236 -144.442,-2.8702 -85.4537,-43.36462 -165.1689,-105.22399 -239.1439,-185.57596 33.972,-42.27882 89.0683,-155.99672 127.4713,-199.69099 29.6455,-33.73009 96.2712,-137.85042 125.1937,-147.34742 59.139,-20.51424 107.6644,-71.12418 105.139,-91.63351 -1.8477,-15.005367 -69.7982,50.32775 -87.0204,41.03928 25.1018,-65.269185 116.1728,-75.085491 113.8133,-91.067121 z m 182.4582,226.016301 c 20.0581,0.14947 42.7617,3.21429 68.1108,9.19286 67.5978,15.9429 102.3524,52.29199 104.2656,109.04856 1.9131,56.75657 -24.8717,106.81792 -80.3529,150.18247 -55.4812,43.36461 -63.4509,38.26171 -23.9127,-15.30636 39.5383,-53.56801 53.5681,-97.56933 42.0892,-132.00591 -11.4788,-34.43656 -51.0188,-42.72614 -118.6166,-24.87011 -76.5257,-22.95773 -99.8021,-47.19116 -69.8295,-72.69975 18.7328,-15.94288 44.8159,-23.79087 78.2461,-23.54176 z m -131.814,96.24151 c 12.1165,0 46.8734,12.75301 104.2677,38.26155 3.8263,15.30516 14.9849,16.26217 33.4786,2.87019 18.4937,-13.39202 37.3067,-15.94339 56.4381,-7.65316 19.1314,8.29033 21.6829,26.46588 7.6532,54.52536 -14.0297,28.05937 -31.8856,51.33579 -53.5679,69.82953 -21.6823,18.49368 -30.9289,38.26371 -27.7403,59.30832 3.1885,21.04453 15.6239,36.66867 37.3062,46.87216 -1.2755,39.5383 4.7824,72.69863 18.1744,99.48264 13.392,26.78399 39.8572,47.51107 79.3955,62.17852 39.5383,14.6674 64.4091,39.85575 74.6125,75.5678 l -57.3934,86.09119 c -38.2083,139.76153 -61.3447,276.26673 -70.2048,409.68293 l -206.2018,-62.7878 c -8.4825,-165.6426 -23.7795,-262.512 -45.003,-310.54419 -24.2332,-54.84337 -54.8441,-100.12155 -91.8316,-135.83357 0,-38.26283 27.4223,-63.4534 82.2657,-75.56995 54.8435,-12.11657 85.1347,-41.13101 90.8742,-87.04649 5.7394,-45.91539 -10.5221,-66.32277 -48.785,-61.22108 -38.2629,5.10174 -59.9448,-5.73921 -65.0465,-32.52327 29.3348,-14.02968 39.8561,-24.87287 31.5658,-32.52545 -8.2903,-7.65257 -22.0004,-12.11597 -41.1318,-13.39143 14.0297,-15.30508 10.2036,-28.05811 -11.4786,-38.26155 l 49.7423,-82.26567 c 21.6822,-17.85601 60.5828,-12.75528 116.7018,15.30419 17.856,-3.82634 12.4355,-12.75319 -16.2617,-26.78287 -28.6971,-14.02969 -58.3511,-19.76997 -88.9614,-17.21911 15.3052,-24.23311 29.0152,-36.34879 41.1318,-36.34879 z m 175.1129,40.35544 c -2.9095,0.19928 -6.1189,0.7772 -9.6263,1.73377 -14.0297,3.82633 -27.1024,14.66735 -39.219,32.52329 -12.1165,17.85601 -15.6229,31.24627 -10.5212,40.1743 -11.4788,5.10174 -18.1762,12.11664 -20.0893,21.04461 -1.9132,8.92796 2.2327,15.62533 12.4361,20.08931 10.2035,4.46406 24.8706,-2.55085 44.002,-21.04462 19.1315,-18.49366 31.8866,-35.39253 38.2637,-50.69767 6.3771,-15.30516 7.332,-27.10325 2.868,-35.3935 -3.348,-6.21773 -9.3853,-9.02733 -18.114,-8.42949 z m -1.9731,20.38689 c 4.464,0.95656 6.3782,4.30309 5.7404,10.04252 -1.2754,11.47889 -6.6959,22.95934 -16.2616,34.43819 -9.5657,11.4789 -18.4948,19.1311 -26.785,22.95735 -8.2904,3.82626 -8.2904,1.6e-4 0,-11.47867 8.2902,-11.47883 8.2902,-15.30493 0,-11.47868 -8.2904,3.82632 -9.8847,0.63752 -4.783,-9.56593 5.1017,-10.20344 12.1166,-20.40711 21.0446,-30.61053 9.5658,-3.8263 16.5806,-5.26081 21.0446,-4.30425 z m -197.0546,3.34679 c -19.1314,1.9132 -34.4359,13.71122 -45.9147,35.39349 17.856,19.13143 36.9865,27.7407 57.3933,25.82757 20.4068,-1.91312 41.4515,-9.88506 63.1339,-23.9148 h 38.2637 v -11.47869 h -38.2637 c -30.6103,-19.13139 -55.4811,-27.7407 -74.6125,-25.82757 z m -9.9239,15.54356 c 1.5145,-0.15943 2.9102,0.0802 4.1856,0.71809 -10.2033,12.7543 -6.3773,21.6833 11.4787,26.785 19.1315,-6.37717 22.3202,-15.30617 9.5659,-26.785 14.0297,3.82625 27.4222,9.56652 40.1765,17.21908 -16.5806,6.3772 -33.1618,9.56592 -49.7424,9.56592 -15.3052,1.27542 -26.1462,-3.82749 -32.5233,-15.30632 6.696,-7.65256 12.3153,-11.7185 16.859,-12.19677 z m 147.6702,50.46047 c 8.928,5.10173 10.5224,10.20248 4.7829,15.30419 -5.7393,5.10172 -9.8831,4.78406 -12.4339,-0.95529 -2.5509,-5.73947 -10e-4,-10.52258 7.651,-14.3489 z m -637.0269,421.36439 c 15.6103,-0.72439 37.2318,6.00284 66.252,16.92584 128.4564,45.6035 351.4072,319.23835 394.6096,414.39475 l 254.9634,86.0612 c -5.0373,20.7367 32.1175,177.4227 -32.77,257.4301 -33.2272,40.9697 -113.0318,41.484 -170.5555,38.9715 -66.9437,-2.9239 -193.1458,-131.3145 -214.6597,-279.2236 -21.5139,-147.9087 -112.0875,-314.2729 -138.5658,-349.5358 -22.3353,-29.7458 -82.8027,-60.2917 -82.8027,-60.2917 33.655,75.8496 116.8694,175.0699 138.0591,294.1112 25.9531,145.8013 57.1562,216.0759 59.9504,293.5234 24.3073,77.576 17.9607,113.8316 -19.0348,108.7704 -38.3259,-8.1072 -108.6303,1.0556 -164.527,2.5878 -41.2467,1.1306 -80.24,-8.9257 -121.5149,-10.7845 87.8775,-35.2965 265.3861,-2.5752 245.39,-131.1698 -18.3035,-80.5595 -178.4994,-394.4976 -248.1541,-635.10129 3.1553,-32.48735 13.2896,-45.73798 33.36,-46.6695 z"
     sodipodi:nodetypes="ccccccscccscccsscscssscscccscsccccssccccccccccccccscsssssscsccscsccsssssscssscssssscssccccscssscsccccscsssscssssssssssssscsscsccccssccccccscsscscccsssscsccscccs" /></svg>
