<?xml version="1.0" encoding="UTF-8" standalone="no"?>
<!-- Generator: Adobe Illustrator 19.0.0, SVG Export Plug-In . SVG Version: 6.00 Build 0)  -->

<svg
   version="1.1"
   id="Ebene_1"
   x="0px"
   y="0px"
   viewBox="0 0 1085.7817 1798.057"
   xml:space="preserve"
   width="1085.7817"
   height="1798.057"
   xmlns="http://www.w3.org/2000/svg"
   xmlns:svg="http://www.w3.org/2000/svg"><defs
   id="defs415">
	
	
</defs>
<style
   type="text/css"
   id="style407">
	.st0{fill:#010101;}
</style>
<path
   id="XMLID_12_"
   class="st0"
   d="M 1000.0722,0.08241369 C 983.28467,0.88241291 968.66087,7.5074262 956.21087,19.957414 c -24.9,24.899975 -60.8001,53.100422 -107.5,84.400386 -46.7,31.29997 -91.8008,65.89965 -135.3008,103.59961 -43.49996,37.69996 -74.19963,70.40042 -92.09961,97.90039 -17.89998,27.49997 -31.30079,59.20004 -40.30078,95 l -22.5,39.59961 c -2.5,8.49999 -4.00001,10.50001 -9.5,24 -4,9.99999 -14.10042,39.40004 -40.90039,76.5 -26.89997,37.09996 -29.3992,58.79923 -7.69922,65.19922 21.69998,6.39999 30.70039,22.70042 26.90039,48.90039 -1.3,9.09999 0.99883,16.8004 6.79883,23.40039 -0.6,0.8 -1.09961,1.69961 -1.59961,2.59961 l -33.69922,67.30078 c -4.39999,7.29999 -8.00117,14.49884 -11.20117,20.79883 -10.29999,20.29998 -14.69923,26.9 -23.69922,28.5 l -26.30078,-7 c -10.69999,-2.8 -21.6,3.50118 -24.5,14.20117 -2.8,10.69999 3.50118,21.6 14.20117,24.5 l 30,8 c 1.7,0.4 3.39922,0.69922 5.19922,0.69922 0.5,0 0.90039,3.9e-4 1.40039,-0.0996 34.89997,-2.5 48.00001,-28.09963 59.5,-50.59961 3.2,-6.19999 6.50079,-12.70001 10.30078,-19 0.3,-0.4 0.49922,-0.90078 0.69922,-1.30078 l 34,-68 c 0.2,-0.4 0.4,-0.79922 0.5,-1.19922 10.09999,1.6 27.59962,3.49883 37.09961,4.29883 34.49996,-3.8 35.80075,25.60084 3.80078,88.30078 C 543.31053,913.25729 504.91084,1121.7573 494.71085,1416.057 L 214.50968,1057.2562 c -51.19995,-40.8999 -98.50004,-49.2984 -142.000003,-24.8984 -43.49996,24.3 -67.5000099,49.8988 -71.99999992,76.7988 -4.49999998,26.9 20.80083992,87.9009 75.80077992,183.3008 54.999953,95.2999 101.099263,216.4997 138.199223,363.5996 l -163.099613,65.1992 7.69922,76.8008 H 916.81047 l -90.2012,-120.9004 c 43,-184.1998 66.2016,-384.2995 57.6016,-717.69919 h 86.2988 c 12.8,-193.19981 -33.8997,-300.00002 -140.0996,-320.5 0,-38.39996 13.4008,-80.59965 40.3008,-126.59961 81.8999,-124.09987 130.79883,-214.90006 146.79883,-272.5 16,-57.59994 34.4996,-100.40159 55.5996,-128.60156 21.2,-28.29997 15.8008,-60.299643 -16.1992,-96.099608 -21.1,-10.8499887 -40.0504,-15.87421751 -56.8379,-15.07421831 z m 6.7793,45.48242131 c 6.8719,1.035937 13.6594,4.266412 20.3594,9.691407 24.2,17.899982 15.8999,46.700428 -25,86.400388 -28.10003,106.19989 -74.80163,207.20127 -140.10163,303.20117 -43.4999,70.39993 -68.3988,133.00006 -74.7988,188 -26.9,-29.39997 -30.7,-53.70041 -11.5,-72.90039 19.2,-19.19998 28.1004,-39.30041 26.9004,-60.40039 -1.3,-21.09998 -10.2004,-34.90079 -26.9004,-41.30078 -16.6,-6.39999 -33.3004,-5.7996 -49.9004,1.90039 -15.4,-28.09997 -46.70005,-46.69962 -94,-55.59961 2.6,-25.59997 19.20042,-58.20043 49.90039,-97.90039 83.19991,-89.49991 170.10011,-159.89966 261.00001,-211.099607 22.05,-36.449964 43.4254,-53.099997 64.04103,-49.992188 z M 605.96085,449.87733 c 34.2986,-2.6455 71.03598,16.69262 110.14842,58.08008 21.7,-15.39998 37.1016,-17.30077 46.1016,-5.80078 9,11.49999 -4.5008,34.49964 -40.3008,69.09961 0,29.39997 15.3996,67.20122 46.0996,113.20117 -34.5,1.3 -59.4988,10.20041 -74.7988,26.90039 -17.9,-30.49997 -45.40006,-44.30156 -82.50002,-41.10156 -8.49999,0.7 -25.20079,-3.79961 -32.30078,-6.09961 0,-0.1 0.0996,-0.20039 0.0996,-0.40039 -15.69998,-9.99999 -23.5,-31.19964 -23.5,-63.59961 l -36.5,-17.29883 c 12.8,-25.59997 25.60041,-44.80157 38.4004,-57.60156 12.79999,-12.79999 24.30001,-37.09847 34.5,-72.89844 4.8,-1.275 9.65098,-2.10254 14.55078,-2.48047 z m 5.95703,45.79102 c -15.27244,0.33842 -25.90821,7.69728 -31.9082,22.08789 7.69999,31.99997 41.60123,33.30075 101.70117,3.80078 -29.21872,-17.63748 -52.4842,-26.27222 -69.79297,-25.88867 z m 200.29299,192.88867 c 53.6999,10.19999 86.9988,35.79926 99.7988,76.69922 12.8,40.89996 19.2012,90.80123 19.2012,149.70117 h -48 c 3.8,-118.99988 -19.8001,-194.40042 -71,-226.40039 z m -46.1016,44.90039 c 55,-1.8 77.1012,111.09906 66.2012,338.79879 -10.9,227.6998 -38.7001,440.7002 -83.5,639 l 49.9004,34.5 h -688.8008 l 184.19922,-57.5996 c -47.29995,-190.5998 -98.80006,-330.3989 -154.5,-419.2988 -55.599953,-88.8999 -67.799973,-143.6016 -36.5,-164.1016 31.29997,-20.5 66.2016,5e-4 104.60156,61.4004 l 274.39844,351.2012 h 69.10156 c 8.99999,-304.4997 37.09849,-527.00092 84.39844,-667.80078 31.99997,-75.49992 75.50008,-114.19961 130.49998,-116.09961 z" />
</svg>
