<?xml version="1.0" encoding="UTF-8" standalone="no"?>
<!-- Created with Inkscape (http://www.inkscape.org/) -->

<svg
   width="1611.373"
   height="1797.7947"
   viewBox="0 0 1611.373 1797.7947"
   version="1.1"
   id="svg10448"
   xmlns="http://www.w3.org/2000/svg"
   xmlns:svg="http://www.w3.org/2000/svg">
  <defs
     id="defs10445" />
  <path
     id="path1906"
     style="fill:#000000;stroke:none;stroke-width:40;stroke-dasharray:none"
     d="m 1453.3514,0.00957481 c -4.8712,0.1242 -9.913,1.46069999 -14.7109,4.16209999 -10.0025,60.7844002 -4.0124,139.4844952 51.3281,185.1600952 7.4372,93.6279 -8.8274,150.4225 -3.0899,246.834 1.1982,14.8047 -147.0563,5.1669 -221.9023,28.4219 -37.5573,-8.2521 -74.5346,-10.5104 -112.377,-12.1504 -9.6238,0 -18.9492,-35.1528 -18.9492,-47.373 0,-4.1001 13.2714,-16.786 31.5821,-31.5801 75.3726,-60.8985 110.7849,-125.8904 110.5332,-205.2774 -0.2482,-78.358595 -37.6949,-120.754395 -126.3243,-148.431595 -23.2929,-7.274 -55.6969,-9.4746 -88.4277,-9.4746 -24.7131,0 -48.5433,1.8221 -66.32033,6.3164 -59.7637,15.1093 -137.0331,85.590995 -176.85547,164.222595 -6.04208,11.9306 -24.07126,41.2464 -41.05469,66.3204 -23.98281,35.4071 -29.53921,48.6293 -28.42381,60.0039 1.1807,12.0423 3.8999,16.8478 15.791,18.9492 12.82517,2.2663 13.90333,2.5401 12.63281,15.789 -1.02828,10.7208 0.19613,16.6007 6.31641,18.9493 6.89872,2.6473 8.53293,2.9946 3.1582,6.3164 -5.37614,3.3227 -7.51832,8.3204 -3.1582,25.2656 2.96355,11.5179 7.87635,29.4632 9.47461,37.8965 4.37851,23.1033 12.38269,28.4238 53.6875,28.4238 1.42887,0 4.80754,0.011 6.31644,0 45.1763,0 57.8822,25.17 22.1074,34.7383 -55.90138,14.9514 -144.15927,25.5029 -186.33007,110.5351 -28.5383,57.5438 -41.6101,78.277 -56.8457,120.0079 -7.4106,20.2979 -62.3548,153.32654 -59.6328,236.2734 1.5911,42.67093 17.3135,65.18203 59.5429,69.77343 42.2125,2.8904 97.5345,-16.3081 125.72269,-30.33978 41.03722,-20.42797 119.03318,-71.43951 119.03318,-71.43951 0,0 0.8443,174.70759 1.668,237.86919 -131.94917,-0.9915 -217.01847,-116.8647 -377.00197,-118.418 -65.0556,-0.641 -79.3732,96.0304 -100.6601,146.8398 -13.564,32.3757 -96.5813,304.3605 -118.7774,457.2676 -44.8571,43.8258 -114.0701,40.9479 -163.2851,49.7051 -68.954999,12.7118 -131.853299,19.7966 -115.501999,63.2558 21.3123,33.3518 27.0155,27.1633 164.744099,24.2383 101.3377,-2.1522 196.7561,15.6049 212.2598,0.8809 27.0955,-38.8906 -21.9992,-97.4644 -9.7949,-140.3692 47.1807,-165.866 163.1525,-188.1853 155.5508,-374.7714 83.3886,115.0563 82.1262,90.7499 147.4687,134.205 l -53.9687,44.5547 c -35.085,35.085 -48.8839,48.884 -72.6368,72.6367 -43.0341,44.5312 -96.7118,116.0083 -98.2304,150.0977 -3.2041,71.9249 -3.9816,122.7208 179.6855,93.582 39.4229,-6.2545 113.9905,-47.8769 117.5059,-47.8769 20.61004,0 325.7496,-139.1195 334.7617,-142.1152 24.7138,-8.9876 52.0131,-8.4551 75.795,3.1582 28.8724,17.8439 47.6924,53.9101 9.4746,116.8496 -37.6197,61.9536 -32.5672,97.9023 0,97.9023 6.5068,0 13.4218,-3.5193 22.1054,-6.3164 37.6738,-12.1349 89.5865,22.0505 85.2696,-101.0605 -3.5522,-101.2983 73.4618,-218.1204 63.1621,-236.8575 -19.6483,-35.7443 -39.301,-37.1598 -53.6875,-37.8984 -6.4733,-0.3323 -17.6539,3.2215 -22.1075,-3.1582 -8.9064,-16.9824 48.1549,-87.6013 18.9493,-167.3789 -57.3985,-156.7861 -60.5542,-199.3234 -63.1621,-262.12503 -8.6897,-209.25162 -6.4819,-255.7719 37.8964,-344.2344 80.9449,-53.5033 216.9114,-67.8667 309.3204,-85.2695 47.1828,-10.0739 48.6335,-46.0787 44.871,-151.5899 -2.3651,-67.7849 -16.7342,-156.879 -27.3496,-223.0214 19.1853,-15.9337 28.9252,-27.7981 30.1114,-46.3379 1.753,-27.7644 0.081,-29.6409 -1.0235,-46.734395 1.2775,-24.1722 1.4462,-52.3302 -7.0879,-63.4883 -7.2371,-9.4621 -28.4084,-10.547 -46.1445,-10.8574 -21.868,-0.3917 -67.7056,7.0249 -74.9824,15.918 -0.3327,-17.2215 -13.408,-27.74760019 -28.0215,-27.37500019 z M 1064.1717,48.197075 c 91.2099,0 162.8744,71.517795 170.5391,104.218695 14.1592,60.4119 -19.2282,124.1358 -88.4278,176.8535 -26.4328,20.1377 -44.2863,31.5821 -50.5293,31.5821 -3.659,0 -0.87,-2.2575 3.1582,-9.4746 3.2741,-5.865 17.5015,-29.854 31.5801,-50.5293 24.9483,-36.6373 41.0567,-74.095 41.0567,-97.9024 0,-6.4809 -5.2639,-21.9195 -9.4746,-31.5801 -9.5708,-21.9591 -27.9663,-28.4238 -66.3204,-28.4238 -7.7257,0 -15.8138,-0.7093 -25.2656,0 -1.2574,0.094 -1.7684,0 -3.1582,0 -40.9346,0 -136.02873,-39.6777 -126.32423,-47.371097 41.9562,-33.258398 84.76063,-47.372998 123.16603,-47.372998 z M 906.26547,149.25757 c 2.1123,0 3.6927,-0.4163 6.3164,0 21.2255,3.3682 98.16463,35.0005 107.37693,44.2129 3.2035,3.2033 5.4601,3.1582 9.4727,3.1582 6.0492,0 14.3954,-4.1699 28.4238,-12.6328 9.2932,-5.6065 19.2382,-6.3145 28.4238,-6.3145 19.8954,0 37.7582,12.176 37.8965,31.5801 0.1265,17.743 -30.1711,62.8529 -60.0039,94.7442 -18.6181,19.9027 -29.6059,36.8373 -31.582,47.3711 -3.9787,21.2079 9.2995,49.571 25.2656,56.8457 10.1316,4.6162 12.6328,9.7612 12.6328,25.2656 0,26.6313 -21.0998,41.4561 53.6875,75.7949 53.2298,24.4404 88.3707,41.599 47.3731,129.4824 -46.4859,99.6469 -24.5053,285.64652 -25.2657,457.92773 l -192.64453,82.1114 c -23.5958,-101.7835 -20.5678,-193.67861 -11.2305,-294.03519 33.6134,-14.0937 91.78893,-35.20692 124.19343,-72.16993 24.2672,-34.10081 -20.8216,-99.39631 -45.8613,-114.09181 9.3861,-9.6997 10.0541,-26.5943 -5.0664,-42.8242 -60.37633,23.239 -96.77773,75.1414 -107.00003,104.5664 -5.1137,14.71984 5.0731,40.78819 0.75,45.89649 -39.6794,-68.64929 -82.3524,-140.90239 -75.79496,-221.06839 2.85502,-34.9031 94.20486,-40.3943 113.69336,-63.1621 19.4885,-22.7678 18.0136,-54.0684 6.3164,-78.9531 -11.5,-24.4654 -14.1123,-26.0836 -66.3223,-28.4238 -25.4972,-1.1431 -36.8461,-2.8079 -44.21285,-9.4746 -13.93201,-12.6083 -12.08612,-27.7926 3.15821,-34.7383 18.24354,-8.3123 11.95264,-20.629 -12.63282,-28.4239 -15.74628,-4.9924 -19.66473,-7.9654 -15.79101,-12.6328 6.43505,-7.7539 2.20688,-22.1711 -9.47266,-28.4218 -8.37195,-4.4806 -6.99911,-7.4293 15.78906,-44.2149 13.50205,-21.7956 27.37457,-40.8989 31.58207,-44.2129 4.9657,-3.9111 16.1568,-6.3164 28.4238,-6.3164 16.4468,0 36.0148,3.0308 53.6875,9.4746 26.0572,9.5008 36.6437,12.6328 41.0547,12.6328 2.9053,0 4.0685,-0.1518 3.1582,-3.1582 -3.4174,-11.2871 -58.9908,-37.3787 -88.4277,-41.0566 l -28.4219,-3.1563 15.791,-18.9492 c 10.875,-11.2951 16.906,-12.6328 25.2637,-12.6328 z m 183.17183,37.8965 c -24.0974,0 -63.1621,36.8994 -63.1621,66.3223 0,7.43 -3.0024,16.8271 -6.3164,18.9472 -14.0937,9.0165 -18.8812,17.7367 -12.6328,25.2657 3.7753,4.5489 6.7758,9.4746 12.6328,9.4746 9.1639,0 23.1978,-7.7258 37.8965,-18.9493 39.2221,-29.9481 61.68,-77.2771 44.2129,-94.7441 -3.3325,-3.3326 -7.7008,-6.3164 -12.6309,-6.3164 z m -6.3164,22.1074 c 6.324,0 11.9009,4.7668 9.4746,12.6328 -6.29,20.3902 -18.7812,34.1438 -31.582,44.2129 -8.228,6.4722 -15.2074,9.4746 -18.9492,9.4746 -4.7164,0 -5.0756,-3.9049 3.1582,-12.6328 4.8204,-5.1097 4.8205,-7.7052 0,-9.4726 -9.7317,-3.5683 -5.4838,-12.4108 9.4746,-28.4239 9.5884,-10.2643 20.7788,-15.791 28.4238,-15.791 z m -195.80473,6.3164 c -14.2764,0 -25.2844,3.1791 -34.7382,12.6328 -17.89433,17.8941 -19.26145,22.9946 0,34.7383 10.171,6.2014 24.4107,9.4746 37.8964,9.4746 15.2497,0 30.5068,-4.7812 47.3731,-12.6328 14.1822,-6.6022 35.1967,-12.6308 44.2129,-12.6308 9.0159,0 15.79096,-0.5071 15.79096,-3.1582 0,-2.6513 -8.60746,-6.3165 -18.94916,-6.3165 -10.3417,0 -30.0306,-2.8723 -44.2129,-9.4746 -17.4531,-8.1248 -34.1364,-12.6328 -47.3731,-12.6328 z m -15.789,12.6328 c 2.3582,0 4.9502,4.8048 3.1582,9.4746 -1.5389,4.0107 -0.1142,8.6898 3.1582,12.6329 3.6427,4.3892 4.8269,6.3144 3.1582,6.3144 -1.4186,0 -5.7751,-0.3998 -12.6328,-3.1562 -12.1953,-4.902 -14.7862,-10.4795 -6.3164,-18.9493 3.747,-3.747 7.4223,-6.3164 9.4746,-6.3164 z m 37.3047,2.8067 c 1.0243,-0.1174 2.2459,-0.1178 3.75,0.3515 5.9487,1.8561 14.014,6.0611 18.9492,9.4746 8.221,5.6863 7.5793,7.8976 -9.4746,12.6329 -11.4698,3.1847 -18.7267,3.1562 -22.1074,3.1562 -3.9179,0 -3.7915,-1.7459 0,-6.3144 3.2724,-3.9431 4.7638,-11.607 3.1582,-15.7911 -1.5093,-3.933 0.5002,-3.1582 3.1582,-3.1582 0.7149,0 1.5421,-0.2342 2.5664,-0.3515 z m 114.28513,50.8808 c 3.9768,0 9.4727,2.3395 9.4727,6.3164 0,3.9769 -5.4959,9.4747 -9.4727,9.4747 -3.9769,0 -6.3164,-5.4978 -6.3164,-9.4747 0,-3.9769 2.3395,-6.3164 6.3164,-6.3164 z m -239.5918,436.3203 70.82617,119.76763 c -35.91718,16.91514 -128.40167,55.57547 -156.60347,67.40039 42.5395,-63.93866 64.15807,-118.5803 85.7773,-187.16802 z M 580.285,1105.7478 c 57.1865,-1.4317 206.49257,94.7591 260.95699,127.0157 19.09348,11.308 -105.94079,109.4623 -122.46879,125.9902 -23.0112,26.2987 -165.9414,-91.962 -165.9414,-134.6973 -1.5407,-19.4123 9.9194,-117.8696 27.4532,-118.3086 z m 559.6816,88.8457 c 37.274,0 72.6368,14.7683 72.6368,85.2696 0,53.7788 -16.8347,123.8105 -56.8457,170.539 -46.6754,54.5114 -223.34593,40.7843 -411.9184,108.5868 -108.8163,39.1256 -149.118,172.9041 -220.5637,131.6549 -23.6104,-53.1642 135.2646,-171.2295 200.4047,-239.6414 117.01577,-122.8932 269.23227,-256.4089 416.2863,-256.4089 z" />
</svg>
