<?xml version="1.0" encoding="UTF-8" standalone="no"?>
<!-- Generator: Adobe Illustrator 19.0.0, SVG Export Plug-In . SVG Version: 6.00 Build 0)  -->

<svg
   version="1.1"
   id="Ebene_1"
   x="0px"
   y="0px"
   viewBox="0 0 1800 1797.0753"
   xml:space="preserve"
   width="1800"
   height="1797.0753"
   xmlns="http://www.w3.org/2000/svg"
   xmlns:svg="http://www.w3.org/2000/svg"><defs
   id="defs810">
	
	
</defs>
<path
   id="XMLID_3_"
   style="stroke-width:1.03493"
   d="M 1384.0824,0.03039666 C 1317.6846,1.0489371 1271.5212,27.670338 1245.6613,79.893678 c -29.5544,59.683812 -53.2396,103.178292 -71.1544,130.480462 -26.113,40.2125 -44.0278,70.47578 -53.6431,90.58203 0,7.19593 2.7349,14.39393 8.3017,21.58985 19.2305,7.19592 28.8464,20.10537 28.8464,38.83593 l -2.0249,8.67579 2.0249,19.36718 c 13.7651,15.76755 20.6477,33.01554 20.6477,51.7461 l -43.3202,97.03906 c 16.4977,22.96346 45.3436,30.901 86.6385,23.70508 l 22.6709,-75.45313 c 20.6474,-12.91033 46.7621,-21.58706 78.3407,-25.92578 11.0323,27.30217 12.3472,54.60408 4.1489,81.90625 h 2.0249 c -42.6108,93.44115 -92.8121,340.01037 -150.5037,739.5957 L 908.51983,868.05969 848.70277,801.17883 c -16.90262,-36.29707 -37.75243,-64.65672 -62.6509,-84.97461 -8.60313,-6.98427 -18.62485,-11.63976 -29.15103,-13.65039 l 1.9241,-2.01172 c 0,0 -80.46467,-105.61115 -89.97872,-118.52148 C 659.23097,569.00448 521.5797,397.04359 514.89963,389.0011 c -6.68008,-8.04251 -79.55514,-107.09213 -92.9153,-118.09766 -13.36016,-11.00553 -71.75848,-93.96945 -79.34947,-106.0332 -7.59099,-12.06375 -9.61658,-40.00301 -21.96461,-51.96094 -12.44924,-11.95794 -43.01548,-22.963027 -59.31082,-19.999997 -16.29533,2.963029 -37.34699,6.985071 -44.93799,19.048827 -7.6922,11.95792 -17.20598,28.04278 -16.29506,40.95312 0.91091,13.01615 13.35915,31.00705 24.89746,40.00196 11.43711,8.9949 34.4133,26.03168 54.55475,44.02148 59.58829,58.46206 110.46678,129.3695 157.79292,194.92383 6.12442,4.92153 53.5131,71.58859 86.45556,111.17578 -32.78107,11.24347 -68.287,10.16421 -102.26119,15.63281 C 365.4821,484.22531 308.24003,410.72945 251.21027,337.0968 c -14.29934,-21.04841 -39.96003,-11.37602 -50.94939,-5.99805 -38.1864,25.97276 136.72182,234.33375 129.88229,250.79883 -0.74932,1.80385 -28.76458,5.75254 -34.26018,7.6582 -47.57716,-51.19204 -139.54192,-212.7557 -137.59736,-205.38086 -22.46858,-25.64933 -49.19442,-20.04745 -69.547768,3.09766 -35.863563,18.50338 98.010798,163.43631 138.779848,236.36914 0,0 -22.84211,12.71942 -23.18633,17.00781 -0.48562,6.05 -138.540009,-180.07202 -144.415772,-191.0332 C 36.165249,427.16507 4.7487047,429.14365 0.38622861,464.21008 -4.5708151,521.53593 39.261675,563.7956 70.223548,605.08703 c 23.951145,28.99297 45.796942,60.19042 73.125102,85.90039 -23.1736,35.83807 -31.68702,83.36448 -17.43832,124.64453 9.19457,37.59644 28.73817,74.32691 62.98155,92.42969 41.40647,27.01748 94.54928,44.0809 141.49599,22.10742 53.67499,-21.39427 104.57128,-54.13304 140.06694,-102.16796 40.37378,-49.81055 81.45742,-100.07547 107.96437,-159.78321 9.113,-15.46829 18.54172,-31.10819 16.09704,-45.08008 9.01424,10.53672 58.96015,78.5865 61.77853,81.53321 1.72062,1.79899 15.78983,21.48141 27.22693,37.5664 -6.07279,13.96856 -7.89299,30.26586 -3.84446,46.5625 5.66795,22.64599 17.30661,48.99333 34.91772,79.04688 -16.49776,17.24904 -15.78856,53.22965 2.02498,107.83398 134.71492,419.79732 200.09774,644.03502 195.94799,672.71282 -4.14976,33.0166 -24.39087,60.7442 -60.82768,82.9668 -36.43679,22.3286 -45.74881,44.2329 -27.83405,65.7149 h 818.71342 c 27.5301,-14.3918 27.5301,-34.4974 0,-60.4238 -71.4566,-90.5841 -94.532,-177.8889 -69.1274,-262.0176 25.1009,-83.0706 47.2674,-268.8951 66.2955,-557.47265 10.3238,4.12707 28.3403,8.46592 60.7286,9.3125 1.8219,0 5.1619,0.10547 9.5141,0.10547 15.5869,0 44.0263,-0.84613 59.1071,-6.56055 14.2712,-5.39693 23.1789,-19.0493 26.519,-40.53125 1.923,-11.85209 2.125,-27.61799 0.708,-46.66601 -2.4291,-31.95836 -9.3119,-72.0657 -18.9272,-110.26758 -12.5504,-49.73651 -27.0245,-114.71202 -35.6276,-153.54883 -3.0363,-13.7569 -5.2626,-23.70426 -6.2748,-28.04297 -3.846,-15.97918 -10.5265,-31.21847 -12.7532,-35.98047 3.4413,-26.4556 4.3537,-56.61358 3.4428,-89.84179 C 1722.7832,285.719 1702.8424,188.04242 1666.4057,121.90344 1629.9688,55.764449 1545.7593,15.553099 1413.777,1.1612561 1403.466,0.26176606 1393.5679,-0.11510924 1384.0824,0.03039666 Z m 1.8606,35.73632834 c 54.3515,1.481514 113.4615,17.246875 177.3271,47.40625 63.9668,30.159375 99.2886,120.004235 106.1711,269.531245 3.1376,60.74204 8.4009,100.42552 0.5063,132.06641 -0.5062,1.90479 -0.4037,3.81003 0.2036,5.71484 l 13.3603,57.99024 c 0.2025,0.5291 3.8463,21.26964 3.8463,15.97851 l 1.9241,8.67773 c 0.4049,-0.5291 2.7309,11.64047 2.8321,12.2754 0.506,2.43391 3.239,15.34467 3.8462,17.99023 8.7044,39.15427 19.6354,82.32937 32.3884,132.80664 7.4897,29.52444 13.3598,61.69481 16.295,88.15039 2.834,26.13814 2.0247,40.10824 1.0125,46.88086 -0.1011,0.31747 -0.3033,0.63477 -0.607,0.63477 -8.1983,1.16405 -22.4686,2.32722 -40.4846,2.00976 -16.9026,-0.31747 -29.5539,-1.79938 -37.5498,-3.38672 -0.4048,-0.10582 -0.6089,-0.42241 -0.6089,-0.8457 1.5181,-30.47684 2.531,-83.91734 0.9115,-115.66406 l -0.1009,-1.26953 v -0.10743 l -28.542,-126.14062 -14.7782,-54.60352 c -1.0121,-3.70378 -2.5301,-7.30153 -4.5543,-10.58203 -2.3279,-3.8096 -4.7573,-7.72682 -7.1864,-12.91211 -2.0243,-4.44454 -4.4537,-8.67603 -7.1864,-12.69726 -23.7852,-34.18064 -32.2867,-49.94884 -37.0436,-61.16602 -7.6923,-17.9898 -17.0052,-40.74155 -21.9646,-59.04883 -15.6881,-56.93243 -19.1285,-67.93863 -6.3757,-135.98242 v -0.21094 c -4.1497,-51.64131 -26.1116,-79.68507 -65.8883,-83.91796 h -0.1027 c -17.4086,0 -33.6018,6.87786 -48.379,20.63476 -0.506,0.42329 -1.2157,0.21307 -1.3169,-0.42187 -6.0729,-30.79431 -32.0832,-51.21872 -78.1353,-61.16602 -59.6146,-12.69869 -86.5383,-20.63462 -80.7692,-23.59766 0.2025,-0.10582 0.3023,-0.21217 0.4035,-0.42382 26.1132,-64.445827 66.2954,-95.979208 120.5458,-94.603515 z M 1244.6488,169.3136 c 27.53,4.33871 70.1432,14.39066 127.8348,30.1582 19.2306,43.17554 36.4346,64.6582 51.5154,64.6582 24.7973,-27.30216 45.0422,-34.81605 60.8314,-22.64648 11.5384,8.88908 14.6748,17.88501 9.3105,48.78515 -5.7692,33.01658 0.6072,50.05532 0,82.01368 -0.1012,6.6668 9.5142,51.10982 10.5264,57.98828 6.4776,41.90565 28.6429,55.13475 48.7844,91.96093 15.2832,28.04294 16.1944,33.86287 20.0405,55.02735 -67.408,27.30216 -157.0836,33.22794 -201.1113,5.92578 l 6.1739,-120.74219 c -21.862,-41.48237 -64.4738,-47.30231 -127.7322,-17.03711 -24.7973,8.67743 -39.1686,5.07843 -43.3183,-10.79492 v -34.49805 l -10.3248,-15.13281 c 39.8781,-4.33871 59.8171,-9.31258 59.8171,-15.13281 0,-11.53464 -20.6463,-19.36635 -61.8402,-23.70508 1.4171,-8.67743 -6.1749,-23.70325 -22.6726,-45.29101 z m 28.9474,36.71875 c -23.4815,1.48151 -39.2709,12.17269 -47.4693,32.38476 0,4.33873 11.0341,7.93576 32.9974,10.79297 l 53.6432,-8.67773 h 39.1675 v -6.45704 c -41.2951,-18.73055 -67.4077,-28.04296 -78.3388,-28.04296 z m 274.2887,433.34375 c 23.3804,25.92647 37.4496,76.51118 42.3078,152.06835 4.757,75.45136 -1.8213,192.28026 -19.7361,350.37885 -17.9148,158.0988 -37.8537,280.3232 -59.8171,366.5684 -21.9633,86.2452 -6.8845,156.7239 45.3415,211.3281 H 945.56341 c 15.08078,-15.7675 25.10012,-42.012 29.85719,-78.7324 4.75698,-36.7203 -11.33646,-100.3188 -48.48172,-190.7969 L 772.38703,962.87805 c 1.41699,-79.04931 33.70318,-94.1829 96.96151,-45.29297 l 208.29766,327.73242 80.4647,103.4941 c 41.2951,28.7837 68.0174,13.652 80.4666,-45.291 19.2305,-160.9559 40.1809,-301.4892 62.8527,-421.59763 22.6717,-120.1084 42.3068,-200.21719 58.8046,-240.42969 52.226,30.15938 114.7766,29.41788 187.6501,-2.11718 z m -1095.64925,10.62304 -0.977,3.08985 c -13.66806,40.12036 -26.0549,84.44273 -59.68256,111.66211 -34.99301,34.65186 -79.50074,73.17207 -131.09278,61.92578 -39.61847,-9.37049 -57.22198,-69.89973 -25.2057,-98.3711 33.17329,-37.06876 79.36807,-60.65834 127.83302,-64.27343 29.70843,-4.678 59.41657,-9.35531 89.12502,-14.03321 z" />
</svg>
