<?xml version="1.0" encoding="UTF-8" standalone="no"?>
<!-- Generator: Adobe Illustrator 25.2.3, SVG Export Plug-In . SVG Version: 6.00 Build 0)  -->

<svg
   version="1.1"
   id="Ebene_1"
   x="0px"
   y="0px"
   viewBox="0 0 1585 1800"
   xml:space="preserve"
   sodipodi:docname="US9A202VARA.svg"
   width="1585"
   height="1800"
   inkscape:version="1.2.1 (9c6d41e410, 2022-07-14)"
   xmlns:inkscape="http://www.inkscape.org/namespaces/inkscape"
   xmlns:sodipodi="http://sodipodi.sourceforge.net/DTD/sodipodi-0.dtd"
   xmlns="http://www.w3.org/2000/svg"
   xmlns:svg="http://www.w3.org/2000/svg"><defs
   id="defs543" /><sodipodi:namedview
   id="namedview541"
   pagecolor="#ffffff"
   bordercolor="#000000"
   borderopacity="0.25"
   inkscape:showpageshadow="2"
   inkscape:pageopacity="0.0"
   inkscape:pagecheckerboard="0"
   inkscape:deskcolor="#d1d1d1"
   showgrid="false"
   inkscape:zoom="0.30009657"
   inkscape:cx="971.35399"
   inkscape:cy="899.71038"
   inkscape:window-width="1920"
   inkscape:window-height="1137"
   inkscape:window-x="-8"
   inkscape:window-y="-8"
   inkscape:window-maximized="1"
   inkscape:current-layer="Ebene_1" />

<path
   d="m 1195.6535,1178.7493 h 293 l -10.92,-195.45829 c 24.26,-102.5572 15.77,-173.73968 -25.48,-213.54734 l -147.41,14.47913 z m 189.27,-1002.61024 c -2.43,-6.03629 -0.3,-14.77747 6.37,-26.24343 6.67,-11.46596 14.56,-18.70553 23.66,-21.7187 9.1,-3.01317 15.47,-2.10822 19.11,2.71484 3.64,4.82306 3.64,12.06263 0,21.7187 -3.64,9.65607 -11.22,20.51542 -22.75,32.57804 -11.53,12.06263 -20.93,17.19397 -28.21,15.38408 -7.28,-1.80989 -10.62,-5.42967 -10.01,-10.85935 0.61,-5.42967 4.55,-9.9544 11.83,-13.57418 z m 21.84,-32.57805 c -4.85,6.03629 -8.49,12.37091 -10.92,19.00386 -2.43,6.63295 -1.21,8.75112 3.64,6.33462 4.85,-2.4165 5.16,0.29833 0.91,8.14451 -4.25,7.84618 -3.94,9.95441 0.91,6.33462 4.85,-3.61978 10.01,-9.04945 15.47,-16.28902 5.46,-7.23957 8.49,-14.47913 9.1,-21.7187 0.6,-7.23956 -5.77,-7.83623 -19.11,-1.80989 z m -21.84,-27.13843 c 36.4,-19.30219 61.27,-19.610468 74.61,-0.90494 13.35,18.70552 9.71,39.81761 -10.92,63.3462 -20.63,23.52859 -26.08,40.72256 -16.38,51.5819 8.49,10.85935 24.87,3.91812 49.14,-20.81375 24.26,-24.73187 36.4,-56.40497 36.4,-95.00935 0,-36.197831 -22.44,-58.513196 -67.34,-66.965986 -44.89,-8.442845 -79.77,-8.442845 -104.64,0 -24.87,8.442845 -39.13,23.528589 -42.77,45.247286 40.04,4.813118 67.34,12.6593 81.9,23.51864 z m 1.82,68.76593 c -3.64,2.41651 -4.85,5.13134 -3.64,8.14452 1.21,3.01317 3.34,3.01317 6.37,0 3.03,-3.01318 2.12,-5.72801 -2.73,-8.14452 z m -127.39,-10.85934 -1.82,-9.04946 12.74,-12.66924 c 14.56,-9.65607 33.36,-7.23957 56.42,7.23956 h 20.02 l 1.82,10.85935 -21.84,-3.61978 c -21.84,9.65607 -42.46,11.46596 -61.88,5.42967 z m 10.92,-9.04946 c 3.64,0 7.89,0.60661 12.74,1.80989 -2.43,-4.82306 -3.03,-9.04946 -1.82,-12.66924 -7.28,3.61978 -10.92,7.23957 -10.92,10.85935 z m 27.3,1.80989 c 6.07,0 12.74,-1.20328 20.02,-3.61978 l -18.2,-9.04946 c 3.64,6.03629 3.03,10.26268 -1.82,12.66924 z m -56.42,48.86707 c -1.21,-2.41651 -1.52,-3.91812 -0.91,-4.52473 0.61,-0.60661 3.34,-0.90495 8.19,-0.90495 0,0 1.52,1.51156 4.55,4.52473 3.03,3.01317 5.76,3.91812 8.19,2.71484 2.43,-1.20328 3.34,-3.01317 2.73,-5.42967 -0.61,-2.41651 -0.3,-3.91812 0.91,-4.52473 1.21,-0.60662 2.12,1.20328 2.73,5.42967 0.61,4.2264 -0.61,7.23957 -3.64,9.04946 -3.03,1.80989 -6.37,0.90494 -10.01,-2.71484 -3.64,-3.61978 -7.89,-4.82306 -12.74,-3.61978 z m 34.58,27.14837 -23.66,5.42967 c -4.85,2.41651 -6.37,3.91812 -4.55,4.52473 1.82,0.60661 3.94,0.90495 6.37,0.90495 3.64,-1.20328 7.89,-2.71484 12.74,-4.52473 4.85,-1.80989 7.88,-3.92806 9.1,-6.33462 z m 0,-3.61978 c 1.21,0 -1.52,-0.29834 -8.19,-0.90495 -6.67,-0.60661 -12.44,-1.20328 -17.29,-1.80989 -4.85,-0.60661 -7.58,0.29833 -8.19,2.71484 -0.61,2.4165 0.3,3.01317 2.73,1.80989 z m 41.85,490.4408 136.49,-10.85935 c 7.28,-53.08352 33.36,-133.92202 78.25,-242.50556 24.26,-43.4374 12.74,-75.70717 -34.58,-96.81925 -47.32,-21.11209 -77.04,-52.78519 -89.17,-95.00936 -12.13,-42.22417 -11.53,-69.97915 1.82,-83.24506 13.35,-13.27585 23.96,-28.95826 31.85,-47.05718 7.89,-18.09891 5.16,-29.25659 -8.19,-33.48299 -13.35,-4.22639 -26.08,0.60661 -38.22,14.47913 -12.13,13.87252 -18.2,13.57419 -18.2,-0.90494 -25.48,-13.27585 -58.24,-19.90881 -98.27,-19.90881 -2.43,6.03629 -6.67,12.66924 -12.74,19.90881 14.56,-6.03629 29.72,-5.72801 45.5,0.90494 15.77,6.63296 28.51,9.95441 38.22,9.95441 v 7.23956 c -14.56,0 -29.42,-2.71483 -44.59,-8.14451 -15.17,-5.42967 -29.42,-4.52473 -42.77,2.71484 -13.35,13.27585 -24.87,34.9846 -34.58,65.15609 13.35,6.03629 20.63,12.66924 21.84,19.90881 15.77,-1.20328 26.69,0.29833 32.76,4.52472 6.07,4.2264 0,11.7643 -18.2,22.62365 -3.64,22.92197 9.1,30.45987 38.22,22.62364 29.12,-7.84618 45.19,3.91812 48.23,35.29288 3.03,31.36482 -12.13,48.55879 -45.5,51.58191 -33.36,3.01317 -55.51,10.85935 -66.43,23.52859 -10.92,12.66924 -9.1,36.49616 5.46,71.48076 14.56,34.98461 29.72,80.53023 45.5,136.63686 15.78,56.08675 24.88,99.21586 27.3,129.37741 z m 0,-423.48476 c -23.05,3.61978 -41.25,5.13134 -54.6,4.52472 -13.35,-0.60661 -20.63,-8.44284 -21.84,-23.52858 -1.21,-15.08575 -4.85,-23.82693 -10.92,-26.24343 -6.07,-2.4165 -5.46,-5.42967 1.82,-9.04946 7.28,-3.61978 6.67,-4.22639 -1.82,-1.80989 -4.85,-1.20328 -8.19,-3.32145 -10.01,-6.33462 -1.82,-3.01317 0.91,-6.33462 8.19,-9.9544 -6.07,-4.82306 -12.74,-7.84618 -20.02,-9.04946 -7.28,-1.20328 -7.89,-10.25274 -1.82,-27.14837 13.35,-26.54176 24.87,-47.05718 34.58,-61.53631 15.77,-69.979153 48.53,-110.095098 98.27,-120.347835 49.74,-10.2527364 97.36,-8.1445112 142.86,6.33462 45.5,14.479132 68.24,45.247286 68.25,92.294515 0,45.84396 -7.89,78.72034 -23.66,98.62914 -15.77,19.90881 -42.46,37.10278 -80.07,51.58191 9.71,47.05718 39.13,80.53022 88.26,100.43903 49.14,19.9088 56.72,72.38571 22.75,157.45061 -33.97,85.05495 -55.81,154.73577 -65.52,209.03251 44.89,77.21872 53.99,160.46382 27.3,249.74517 l 21.84,333.00013 c 24.27,49.4637 32.45,106.4753 24.57,171.0248 -7.89,64.5495 -14.26,110.7017 -19.11,138.4467 -4.85,32.5781 -3.34,64.5495 4.55,95.9143 7.89,31.3648 1.52,56.7033 -19.11,76.0055 -145.59,0 -228.39,-0.9049 -248.41,-2.7148 -20.02,-1.8099 -27.9,-8.4429 -23.66,-19.9088 4.24,-11.466 31.24,-21.4204 80.98,-29.8632 46.1,-10.8594 80.07,-25.0302 101.91,-42.5325 21.84,-17.5022 27.9,-57.9165 18.2,-121.2528 -9.71,-63.3462 -18.81,-151.116 -27.3,-263.3193 -20.62,-39.8176 -33.36,-69.3725 -38.22,-88.6747 h -118.29 c -10.92,12.0626 -25.48,30.4599 -43.68,55.2017 -18.2,24.7318 -26.69,47.3555 -25.48,67.8709 12.13,67.5627 -4.85,138.1484 -50.96,211.7374 -46.1,73.5989 -66.12,126.0759 -60.06,157.4506 6.06,31.3748 -1.21,56.7033 -21.84,76.0055 -145.59,0 -228.7,-0.9049 -249.32,-2.7148 -20.63,-1.8099 -28.51,-8.4429 -23.66,-19.9088 4.85,-11.466 32.15,-21.4204 81.89,-29.8632 47.32,-21.7187 82.50003,-38.6044 105.55003,-50.677 23.04997,-12.0626 39.12997,-41.9258 48.22997,-89.5797 9.1,-47.6538 30.03,-121.5511 62.79,-221.6918 -6.07,-48.2604 2.43,-98.9374 25.48,-152.0209 v -1.8099 l 129.21,-414.43533 c 21.84,-51.88024 30.33,-91.09124 25.48,-117.633 l -52.78,-197.26822 c 8.49,145.98465 4.85,223.20337 -10.92,231.64622 -111.62,14.47913 -196.55,10.25273 -254.77997,-12.66924 -31.54003,31.36482 -59.45003,53.08352 -83.71003,65.15609 -16.99,3.61978 -33.36,-16.89564 -49.14,-61.53631 -18.2,6.03629 -29.72,3.61978 -34.58,-7.23957 44.89,-39.81761 102.52,-54.89341 172.89003,-45.24728 60.65997,-2.4165 122.53997,-5.42968 185.62997,-9.04946 -2.43,-96.52091 -4.85,-164.98851 -7.28,-205.41273 -2.43,-40.42422 10.92,-69.07421 40.04,-85.9599 29.12,-16.89563 68.55,-29.55493 118.29,-38.00772 18.22,-1.17345 22.47,-9.01962 12.76,-23.49875 z m -469.52,399.95617 c 4.85,24.12525 15.17,39.81761 30.94,47.05717 31.54,-15.68241 43.07,-32.26976 34.58,-49.77201 -8.5,-17.4923 -30.34,-16.58736 -65.52,2.71484 z m 189.26,179.16934 c -15.77,18.09892 -34.58,35.59122 -56.41997,52.48686 -20.63,13.27585 -40.04003,-1.20328 -58.24003,-43.4374 -16.99,6.03629 -27.9,3.61978 -32.76,-7.23956 36.4,-28.95827 73.40003,-47.35555 111.01,-55.20173 37.61,-7.84618 79.16,-22.62365 124.66,-44.34234 45.5,-21.7187 98.58,-47.65385 159.24,-77.81539 43.68,-82.04178 103.73,-175.54952 180.17,-280.51328 21.84,-15.68241 40.95,-16.28902 57.33,-1.80989 16.38,14.47913 18.5,39.211 6.37,74.1956 -32.76,47.05718 -61.88,89.88796 -87.35,128.49235 -25.48,38.60439 -58.84,80.23189 -100.09,124.87256 -98.27,72.4056 -199.58,115.83309 -303.92,130.31222 z m -487.72,-3.61978 c -104.34,-13.27585 -205.65,-56.70334 -303.92,-130.30228 -42.46,-44.64067 -76.43,-85.95989 -101.91,-123.96762 -25.48,-38.00772 -54.600001,-80.53022 -87.350001,-127.5874 -12.129999,-36.19782 -9.71,-61.22803 7.28,-75.10055 16.99,-13.87252 35.79,-13.57418 56.420001,0.90495 77.65,104.96376 137.7,198.4715 180.17,280.51328 61.88,30.16154 115.56,56.10664 161.06,77.81539 45.5,21.7187 86.75,36.49616 123.75,44.34234 37,7.84618 74.31,26.84013 111.92,57.01162 -6.07,9.65607 -17.59,11.46596 -34.58,5.42967 -18.2,43.4374 -37,58.5132 -56.42,45.24729 -21.84,-18.10886 -40.65,-36.20777 -56.42,-54.30669 z m 189.27,-179.16935 c -36.4,-19.30219 -58.84,-20.20713 -67.34,-2.71483 -8.49,17.4923 3.64,34.07966 36.4,49.77201 14.56,-7.23956 24.87,-22.92197 30.94,-47.05718 z M 267.5235,304.6314 c -9.71,13.27586 -4.85,21.11209 14.56,23.52859 49.74,7.23957 89.17,19.61047 118.29,37.10278 29.12,17.4923 42.16,46.15223 39.13,85.9599 -3.03,39.81761 -5.16,107.98687 -6.37,204.50778 61.88,3.61979 123.14,7.23957 183.81,10.85935 71.58,-9.65607 129.82,4.82306 174.71,43.4374 -6.07,10.85934 -17.59,13.27585 -34.58,7.23956 -16.99,44.64067 -33.36,65.15609 -49.14,61.53631 -25.48,-12.06263 -53.99,-33.17471 -85.53,-63.3462 -58.24,21.7187 -142.56,25.33848 -252.96,10.85935 -16.99,-7.23957 -20.63,-84.45829 -10.92,-231.64622 l -52.78,197.24834 c -6.07,27.74504 1.82,67.56265 23.66,119.44289 l 131.03,412.62537 v 1.8099 c 21.84,53.0836 29.72,103.7605 23.66,152.021 32.76,100.1407 53.69,174.0379 62.79,221.6918 9.1,47.6538 25.48,77.517 49.14,89.5797 23.66,12.0626 59.15,28.9582 106.46,50.6769 48.53,9.6561 75.22,19.9088 80.07,30.7682 4.85,10.8593 -3.03,17.4923 -23.66,19.9088 -20.63,2.4165 -103.13,3.6198 -247.5,3.6198 -20.63,-20.5154 -28.21,-46.4506 -22.75,-77.8154 5.46,-31.3648 -14.56,-83.8517 -60.06,-157.4506 -45.5,-73.599 -62.18,-143.5781 -50.05,-209.9275 1.21,-20.5155 -7.58,-43.4374 -26.39,-68.766 -18.81,-25.3385 -33.67,-44.034 -44.59,-56.1066 h -118.29 c -3.64,19.3022 -15.77,48.8671 -36.4,88.6747 -9.71,112.2034 -19.41,199.9831 -29.12,263.3193 -9.71,63.3462 -3.64,104.0589 18.2,122.1578 21.84,18.0989 56.42,31.9714 103.73,41.6275 48.53,9.656 75.22,19.9088 80.07,30.7681 4.85,10.8594 -3.03,17.4923 -23.66,19.9088 -20.63,2.4165 -103.13,3.6198 -247.500001,3.6198 C 33.9535,1773.5572 27.2835,1747.6221 34.5635,1716.2572 c 7.28,-31.3648 8.49,-62.7396 3.64,-94.1044 -4.85,-28.9582 -11.22,-75.7071 -19.11,-140.2566 -7.89,-64.5495 0.91,-120.9545 26.39,-169.2149 L 65.503499,977.87128 c -26.689999,-89.28135 -17.59,-172.52645 27.3,-249.74517 -9.71,-54.29674 -31.24,-123.96762 -64.609999,-209.03252 C -5.1664999,434.03864 2.7135001,381.55179 51.853499,361.64298 100.9935,341.73418 129.8035,308.25119 138.2935,261.20395 101.8935,246.72482 75.503499,229.53085 59.133499,209.62205 42.7535,189.71324 34.5635,156.83686 34.5635,110.99291 c 0,-47.057177 22.749999,-77.815387 68.25,-92.294519 45.5,-14.4791312 93.42,-16.5873564 143.77,-6.33462 50.35,10.252737 82.8,50.975294 97.36,122.157729 10.92,13.27585 23.05,33.17471 36.4,59.72642 4.85,16.89563 3.94,25.93514 -2.73,27.14837 -6.67,1.20328 -13.65,4.22639 -20.93,9.04945 7.28,3.61979 10.01,6.94124 8.19,9.95441 -1.82,3.01317 -5.16,5.13134 -10.01,6.33462 -8.49,-2.41651 -8.8,-1.80989 -0.91,1.80989 7.89,3.61978 8.49,6.63295 1.82,9.04946 -6.67,2.4165 -10.62,11.15768 -11.83,26.24342 -1.21,15.08574 -8.49,22.92198 -21.84,23.52859 -13.33,0.58672 -31.53,-0.31822 -54.58,-2.73473 z m 0,423.48476 c 2.43,-31.36482 11.53,-74.80221 27.3,-130.30223 15.77,-55.50003 31.24,-101.04565 46.41,-136.63686 15.17,-35.59122 17.29,-59.72642 6.37,-72.38571 -10.92,-12.66924 -33.36,-20.20714 -67.34,-22.62365 -33.97,-2.4165 -49.14,-19.61047 -45.5,-51.5819 3.64,-31.97144 20.02,-43.73573 49.14,-35.29289 29.12,8.44285 41.25,0.60662 36.4,-23.52858 -16.99,-9.65607 -22.75,-16.58736 -17.29,-20.81376 5.46,-4.22639 16.08,-6.33462 31.85,-6.33462 1.21,-7.23956 9.1,-13.27585 23.66,-18.09891 -10.92,-31.36482 -23.05,-53.69013 -36.4,-66.96598 -12.13,-6.03629 -26.08,-6.63296 -41.86,-1.80989 -15.77,4.82306 -30.94,7.84617 -45.5,9.04945 v -9.04945 c 10.92,0 23.96,-3.32145 39.13,-9.95441 15.17,-6.63295 30.03,-6.33462 44.59,0.90495 -4.85,-8.44285 -9.1,-15.08575 -12.74,-19.90881 -38.82,-1.20328 -70.97,4.82306 -96.45,18.09892 -1.21,14.47913 -7.89,14.77746 -20.02,0.90494 -12.13,-13.87252 -24.57,-18.70552 -37.31,-14.47913 -12.74,4.2264 -15.47,15.38408 -8.19,33.48299 7.28,18.09892 17.9,33.78133 31.85,47.05718 13.95,13.27585 14.56,41.02089 1.82,83.24506 -12.74,42.22417 -42.77,73.89727 -90.080001,95.00936 -47.319999,21.11208 -58.839999,53.98846 -34.58,98.62913 44.89,107.38027 71.580001,187.61216 80.070001,240.69568 z m 72.79,-488.6309 c 2.43,0 3.64,-1.20328 3.64,-3.61979 0,-2.4165 -2.43,-3.32145 -7.28,-2.71483 -4.85,0.60661 -10.92,1.20328 -18.2,1.80989 -7.28,0.60661 -10.31,0.90494 -9.1,0.90494 z m -29.11,0 c 0,2.4165 2.73,4.52473 8.19,6.33462 5.46,1.80989 10.01,3.32145 13.65,4.52473 1.21,1.20327 2.73,1.20327 4.55,0 1.82,-1.20328 0.91,-3.01318 -2.73,-5.42968 z m 32.75,-25.33848 c -3.64,-2.41651 -7.28,-1.51156 -10.92,2.71483 -3.64,4.2264 -7.28,5.13134 -10.92,2.71484 -3.64,-2.4165 -5.16,-5.72801 -4.55,-9.9544 0.61,-4.2264 1.82,-6.03629 3.64,-5.42968 1.82,0.60662 2.12,2.10823 0.91,4.52473 -1.21,2.41651 -0.3,4.2264 2.73,5.42968 3.03,1.20328 5.76,0.29833 8.19,-2.71484 2.43,-3.01317 4.25,-4.52473 5.46,-4.52473 3.64,0 5.76,0.60661 6.37,1.80989 0.61,1.20328 0.31,3.01317 -0.91,5.42968 z m -54.59,-48.86707 c -6.07,-3.61978 -7.28,-7.84618 -3.64,-12.66924 l -18.2,7.23956 c 8.49,2.41651 15.77,4.2264 21.84,5.42968 z m 27.3,-3.61978 c -1.21,-3.61979 -5.46,-7.23957 -12.74,-10.85935 2.43,4.82306 1.82,9.65607 -1.82,14.47913 6.06,-1.20328 10.92,-2.40656 14.56,-3.61978 z m 3.64,9.04945 c -18.2,4.82306 -38.22,3.01317 -60.06,-5.42967 l -21.84,1.80989 v -10.85935 h 20.02 c 23.05,-14.47913 42.46,-16.89563 58.24,-7.23956 l 12.74,12.66924 -1.82,9.04945 z m -121.94,12.66924 c -4.85,1.20328 -5.46,3.61979 -1.82,7.23957 3.64,3.61978 6.07,3.61978 7.28,0 1.22,-3.61978 -0.6,-6.03629 -5.46,-7.23957 z m 3.64,-70.57582 c 13.35,-10.85935 40.64,-18.705525 81.89,-23.528587 -3.64,-21.718698 -17.9,-36.794496 -42.77,-45.247286 -24.87,-8.442845 -60.06,-8.442845 -105.55,0 -45.500001,8.442845 -68.250001,31.364822 -68.250001,68.775873 0,38.60439 12.13,69.97915 36.400001,94.10441 24.26,24.12526 41.25,30.76816 50.96,19.90881 9.71,-10.85935 3.94,-28.05332 -17.29,-51.58191 -21.23,-23.52859 -25.17,-44.64067 -11.83,-63.3462 13.36,-18.695581 38.83,-18.397247 76.44,0.91489 z m -23.65,27.13843 c -13.35,-6.03629 -19.72,-5.42968 -19.11,1.80989 0.61,7.23957 3.94,14.47913 10.01,21.7187 6.07,7.23956 11.53,12.66924 16.38,16.28902 4.85,3.61978 4.85,1.51156 0,-6.33462 -4.85,-7.84618 -4.85,-10.25274 0,-7.23957 4.85,3.01317 6.07,1.20328 3.64,-5.42967 -2.43,-6.63295 -6.07,-13.57419 -10.92,-20.81375 z m 21.83,32.57804 c 8.49,3.61979 13.04,8.44285 13.65,14.47914 0.61,6.03628 -3.03,9.9544 -10.92,11.76429 -7.89,1.80989 -17.59,-3.61978 -29.12,-16.28902 -11.53,-12.66924 -19.11,-23.82693 -22.75,-33.48299 -3.64,-9.65607 -3.34,-16.89564 0.91,-21.7187 4.25,-4.82306 10.92,-5.72801 20.02,-2.71484 9.1,3.01317 16.99,10.56102 23.66,22.62364 6.68,12.07258 8.19,20.51542 4.55,25.33848 z m 80.08,608.08375 -145.59,-12.66924 c -42.460001,38.60438 -51.560001,109.19019 -27.3,211.73744 L 96.453499,1176.9394 H 391.2735 Z m 221.07,399.16058 -53.3,-33.5227 207.11,-403.78483 46.32,23.49876 -1.68,3.27173 9.78,4.96228 z m 246.63,-482.58465 -9.81,-4.97222 -0.04,0.0696 -46.34,-23.45898 293.50003,-573.496917 56.08997,29.097487 z m 336.34,488.44195 -209.55,-409.5625 9.78,-4.95234 -0.5,-0.97456 46.36,-23.42914 207.22,405.38584 z m -250.59,-489.76456 -289.39,-565.60101 56.09,-29.09749 289.5,566.36674 -46.36,23.42914 -0.03,-0.0497 z"
   id="path484"
   style="stroke-width:0.997219" /></svg>
