<?xml version="1.0" encoding="UTF-8" standalone="no"?>
<svg
   width="1462.9279"
   height="1801.6857"
   version="1.1"
   id="svg4"
   xmlns="http://www.w3.org/2000/svg"
   xmlns:svg="http://www.w3.org/2000/svg">
  <defs
     id="defs8" />
  <path
     id="path2"
     style="fill:#000000;stroke:none;stroke-width:100.05"
     d="m 838.31539,0.0038349 c -10.507,0.07926132 -21.6053,1.3881536 -33.2973,3.9246587 C 758.25049,14.074506 717.48479,36.586005 682.72489,71.462983 647.96511,106.34 632.48123,158.65529 636.27323,228.40934 c 6.31993,22.82858 8.84794,60.87614 7.58396,114.14281 6.31992,17.75555 13.5879,24.09881 21.8038,19.02581 8.216,-5.07301 15.4839,-7.60953 21.8039,-7.60952 -2.528,6.34123 -1.896,11.73136 1.896,16.17023 3.7919,4.4389 7.5839,5.39005 11.3759,2.85356 5.0559,-3.80475 6.004,-2.85356 2.844,2.85358 -3.16,5.70712 -2e-4,10.46307 9.4799,14.26785 9.4799,3.80479 17.6959,10.4631 24.6478,19.97499 6.952,9.51196 17.0642,11.09725 30.3358,4.75596 13.2721,-6.34128 27.4938,-16.48727 42.6617,-30.43808 l 22.7519,30.43808 c -17.6959,24.09684 -27.1759,55.80312 -28.4398,95.11899 -44.7277,32.96888 -122.7417,74.41229 -191.66235,140.65091 -54.3516,-36.77937 -104.91123,-74.82694 -151.67901,-114.14281 -7.7229,-26.56786 -21.02344,-61.3748 -33.73942,-89.35792 l 63.84483,-210.22543 -53.10957,-14.27983 -72.16368,239.08085 c -0.51984,-0.53145 -1.04262,-1.05996 -1.56538,-1.58865 -25.78374,-18.06506 -42.91315,-6.82367 -51.15384,34.5186 -0.83141,34.2037 7.36614,57.64903 24.07825,70.9496 L 0,1800.7734 57.17084,1800.4078 392.25609,575.05884 c 7.94937,-1.29695 15.45801,-2.27569 21.55492,-5.40939 4.7531,5.46335 6.6636,10.4298 11.18274,15.16308 37.90825,39.70452 79.19126,79.94955 117.26247,111.4611 37.28782,30.4381 66.67552,46.29119 88.16347,47.55949 69.0094,-33.35334 175.5635,-96.78539 240.958,-157.77431 20.224,24.09682 53.0878,54.85198 98.5913,92.26544 45.50401,37.41356 64.46371,70.70709 56.87971,99.87695 -22.7519,6.34126 -33.49581,18.38967 -32.23181,36.14523 1.2639,17.75554 13.90381,24.7309 37.91981,20.92617 l -36.02381,98.92378 47.39971,-5.70714 -36.0238,205.45906 c -44.23961,180.0924 -77.73581,317.0653 -100.48731,410.9161 -7.5841,54.5349 -26.8598,101.1435 -57.8277,139.8249 -30.968,38.6821 -69.5217,60.8762 -115.6572,66.5834 -46.1358,5.7072 -70.4675,22.5114 -72.99552,50.413 58.14352,0 100.48952,-1.9022 127.03312,-5.7071 26.5439,-3.8049 59.4151,8.3838 97.2757,-1.7464 22.52,-6.0257 25.9635,-48.3494 22.1716,-91.4703 74.5755,-126.8253 124.50321,-237.1653 149.78301,-331.0161 3.7922,-87.5096 22.1199,-136.3371 54.9837,-146.4833 h 166.8488 c 11.376,71.0225 35.3917,199.1177 72.0476,384.2828 0,40.5844 -15.1681,85.4409 -45.5037,110.8058 -55.6159,13.9509 -91.0078,25.365 -106.1754,34.2429 -15.168,8.8777 -22.7518,19.0237 -22.7518,30.4381 0,11.414 18.3279,15.8528 54.9836,13.3166 61.9358,-6.3408 99.1817,2.4225 145.9497,-0.1144 30.0247,6.0085 48.8707,-36.3117 30.2218,-75.4715 6.3199,-197.8477 5.2111,-360.2115 -11.2205,-405.2348 -16.4319,-45.0228 -24.6479,-77.6805 -24.6479,-97.9726 -13.904,-152.1904 -24.3318,-267.28637 -31.2838,-345.284 -6.9519,-77.99765 -37.6036,-144.89991 -91.9554,-200.7031 -36.656,-95.11911 -58.1437,-169.3118 -64.4636,-222.57848 99.8554,100.19211 167.4788,233.99463 202.8707,401.40421 -7.584,72.29054 -4e-4,143.94658 22.7519,214.96897 10.1119,-3.8048 18.3279,-14.5849 24.6478,-32.3404 13.9039,-29.17 22.1202,-48.82775 24.6478,-58.97387 2.5278,-10.146 3.792,-29.80391 3.792,-58.97377 -8.8479,-20.29211 -18.3282,-38.68168 -28.4398,-55.16904 C 1419.3199,710.98369 1395.3043,615.8628 1362.4405,576.54691 1265.113,407.86902 1188.0078,326.06487 1131.128,331.13788 c -45.5035,-19.02379 -86.5833,-25.6821 -123.2392,-19.975 -36.65571,5.70722 -60.67151,-14.90193 -72.04751,-61.82734 18.96,-40.58419 27.4919,-79.58291 25.5958,-116.99639 -1.896,-37.413521 -16.7478,-70.705083 -44.5557,-99.874955 -20.8557,-21.877356 -47.0451,-32.6981516 -78.566,-32.4603601 z m -10.9019,39.6522371 c 26.8599,0.198167 48.7834,10.801497 65.768,31.806911 27.176,33.608767 32.8638,75.778077 17.0639,126.508287 -15.8,50.7302 -23.3838,51.04727 -22.7518,0.95119 0.632,-50.09608 -10.7442,-83.07064 -34.1278,-98.923768 -23.3839,-15.853218 -53.4038,-3.487719 -90.0594,37.096408 -60.6718,19.02385 -87.2175,14.2679 -79.6335,-14.26785 7.584,-28.535675 37.6058,-52.632466 90.0614,-72.290444 19.6709,-7.371714 37.5633,-10.999635 53.6792,-10.880734 z m 4.3257,87.555448 c 12.9955,0.48548 21.1526,10.43844 24.4705,29.85858 3.7921,22.19451 2.8442,43.75478 -2.8439,64.68092 -5.688,20.92622 -2.5278,37.41344 9.4799,49.46189 12.008,12.04843 25.5959,15.5361 40.7638,10.46308 21.4879,50.73013 48.9798,72.29239 82.4754,64.68293 33.49601,-7.60957 78.05141,-1.2683 133.66731,19.0238 8.8477,77.36349 40.4494,187.06724 94.8012,329.11176 -46.7679,48.19366 -84.6893,72.29244 -113.7612,72.29244 -11.3759,0 -22.1197,-8.24563 -32.2318,-24.73293 -35.3915,-63.41271 -99.22331,-127.4594 -191.49471,-192.1404 -20.2239,-12.68256 -25.9119,-38.04756 -17.0639,-76.0952 l 17.0639,-87.50949 c -26.544,-44.3889 -52.7716,-55.16904 -78.6835,-32.34046 -25.912,22.82855 -45.1897,25.99921 -57.8297,9.51189 8.848,-19.02386 8.848,-28.85483 0,-29.48889 -8.8479,-0.63417 -19.5918,2.85353 -32.2318,10.46311 2.528,-15.21905 -6.3199,-21.56029 -26.5438,-19.02381 l -3.792,-70.38807 c 6.32,-21.56033 34.1279,-36.14521 83.4235,-43.75474 10.1119,-10.14608 2.212,-12.99962 -23.6999,-8.56071 -25.9116,4.43891 -47.7155,13.63365 -65.4115,27.58452 -2.5279,-20.2921 0.632,-33.29169 9.4799,-38.9988 8.848,-5.70721 37.9199,-12.9996 87.2154,-21.87737 8.8481,7.60953 16.4339,3.17069 22.7539,-13.31667 6.32,-16.48724 17.6958,-25.99919 34.1277,-28.53569 2.0541,-0.31708 4.0088,-0.44104 5.8653,-0.37169 z m -5.0368,6.37658 c -4.9769,-0.35671 -10.3083,3.03142 -15.9964,10.16533 -7.5839,9.51199 -11.0598,22.19449 -10.4278,38.04761 0.632,15.85322 4.7399,25.04803 12.3239,27.5845 -6.3201,8.87785 -7.9,16.48734 -4.74,22.82857 3.16,6.34126 9.1639,8.56069 18.0118,6.65833 8.8481,-1.90233 15.4839,-12.68249 19.908,-32.34046 4.4239,-19.65791 4.7399,-35.51107 0.948,-47.55951 -3.792,-12.0484 -8.848,-19.975 -15.1679,-23.77974 -1.58,-0.9512 -3.2005,-1.48574 -4.8596,-1.60463 z m -2.4874,18.72605 c 3.318,-1.26827 6.083,4e-5 8.2949,3.80475 4.424,7.60954 6.004,17.1214 4.74,28.53571 -1.2641,11.41425 -3.4761,19.97492 -6.6359,25.68213 -3.16,5.70712 -4.424,3.4877 -3.7921,-6.65832 0.6321,-10.14609 -1.264,-12.68255 -5.6879,-7.60953 -4.424,5.07306 -7.268,3.48771 -8.5319,-4.75595 -1.2641,-8.24365 -1.2641,-17.4385 0,-27.58452 4.424,-6.34126 8.2949,-10.14601 11.6129,-11.41427 z m -41.9488,55.16902 -24.6498,17.12142 c -29.0719,1.26824 -49.6117,6.65833 -61.6196,16.17023 -12.0079,9.51196 -16.7479,23.77977 -14.2199,42.80356 21.4879,3.80475 38.5517,0.3171 51.1917,-10.4631 12.64,-10.78012 22.1198,-25.04799 28.4398,-42.80354 l 26.5458,-15.21905 z m 40.5846,13.01892 c 5.3324,0.3567 7.2891,2.67575 5.8672,6.95607 -1.8961,5.7072 -5.056,7.60957 -9.48,5.70714 -4.4239,-1.90236 -5.3719,-6.02414 -2.8439,-12.36547 2.5279,-0.31706 4.6791,-0.41665 6.4567,-0.29774 z m -74.7143,15.51678 c -7.584,11.41426 -17.0639,20.92614 -28.4398,28.53571 -8.848,7.60952 -18.3279,9.51192 -28.4398,5.70713 1.264,-10.14602 3.7919,-15.85312 7.5839,-17.12142 1.264,12.68253 8.2158,16.48728 20.8559,11.41429 10.1118,-12.68257 8.2156,-19.65795 -5.688,-20.92619 11.3756,-3.80475 22.7518,-6.34128 34.1278,-7.60952 z m 464.52091,521.25616 c 44.2396,0 72.0475,24.73092 83.4235,74.19282 v 338.62365 l -244.5843,3.8068 c 17.6955,-112.8748 34.1277,-221.31222 49.2956,-325.30903 0,-30.43811 37.2898,-60.87613 111.8652,-91.31424 z" />
</svg>
