<?xml version="1.0" encoding="UTF-8" standalone="no"?>
<!-- Generator: Adobe Illustrator 19.0.0, SVG Export Plug-In . SVG Version: 6.00 Build 0)  -->

<svg
   version="1.1"
   id="Ebene_1"
   x="0px"
   y="0px"
   viewBox="0 0 1599.0162 1798.7303"
   xml:space="preserve"
   width="1599.0162"
   height="1798.7303"
   sodipodi:docname="US9A43BVARA.svg"
   inkscape:version="1.2.2 (732a01da63, 2022-12-09)"
   xmlns:inkscape="http://www.inkscape.org/namespaces/inkscape"
   xmlns:sodipodi="http://sodipodi.sourceforge.net/DTD/sodipodi-0.dtd"
   xmlns="http://www.w3.org/2000/svg"
   xmlns:svg="http://www.w3.org/2000/svg"><sodipodi:namedview
   id="namedview680"
   pagecolor="#ffffff"
   bordercolor="#000000"
   borderopacity="0.25"
   inkscape:showpageshadow="2"
   inkscape:pageopacity="0.0"
   inkscape:pagecheckerboard="0"
   inkscape:deskcolor="#d1d1d1"
   showgrid="false"
   inkscape:zoom="0.32019967"
   inkscape:cx="1013.4302"
   inkscape:cy="755.77843"
   inkscape:window-width="1920"
   inkscape:window-height="1137"
   inkscape:window-x="-8"
   inkscape:window-y="-8"
   inkscape:window-maximized="1"
   inkscape:current-layer="Ebene_1" /><defs
   id="defs550">
	
	
</defs>
<style
   type="text/css"
   id="style541">
	.st0{fill:#010101;}
</style>

<path
   id="XMLID_6_"
   class="st0"
   d="m 1508.0708,0.00576921 c -9.8854,0.1499999 -19.1426,3.22461539 -27.7676,9.22460939 -23,15.9999844 -38.3,42.4996464 -46,79.5996094 -106.0999,44.699952 -180.2005,85.601212 -222.4004,122.701172 -42.2,37.09996 -72.4996,69.29886 -91.0996,96.79883 -18.5,27.49997 -34.2,61.69965 -47,102.59961 -1,1.7 -1.1012,1.90039 -2.2012,3.40039 l -22.4004,30.90039 c -0.6,1.2 -1.1988,2.49961 -2.2988,4.09961 -3.8,5.09999 -5.1008,12.09962 -3.8008,21.09961 1.3,11.49999 -11.2004,36.70121 -37.4004,75.70117 -26.2,38.99996 -28.3992,60.69922 -6.6992,65.19922 21.7,4.49999 32.5996,11.80001 32.5996,22 -6.2,19.99998 -3.8996,37.49962 6.9004,52.59961 -14.5285,28.35928 -42.91035,71.57106 -56.99762,98.86084 -10.3,19.79998 -14.6992,26.20078 -23.69921,27.80078 l -26.30078,-6.90039 c -10.69999,-2.8 -21.6,3.39884 -24.5,13.79883 -2.8,10.39999 3.50118,21.10039 14.20117,23.90039 l 30,7.80078 c 50.07384,15.68585 62.87024,-25.77065 73.72534,-46.4583 15.2936,-27.05782 38.8139,-71.43722 53.6707,-100.40254 h 24.0996 c 35.8,0 37.7008,29.40123 5.8008,88.20117 -67.6999,122.69988 -106.7004,330.99874 -116.9004,624.89844 l -306.69921,-370 c 0,-67.69993 -37.10125,-101.59961 -111.20117,-101.59961 l -232,-529.09961 -70.89844,122.69922 -256.999994,463.8008 c -15.2999844,33.2 -17.9011614,52.4 -7.7011724,57.5 25.5999754,8.9 49.2004134,-1.2992 70.9003914,-30.6992 -3.799996,10.2 -5.800781,21.7 -5.800781,34.5 0,12.8 5.800791,21.0984 17.300781,24.8984 8.89999,3.8 18.200785,1.0004 27.800775,-8.5996 9.59999,-9.6 16.90001,-19.4992 22,-29.6992 -5.09999,35.8 5.09925,58.8 30.69922,69 8.89999,3.8 19.79962,-11.5 32.59961,-46 l 147.59961,-527.2012 174.5,398.80078 c -70.29993,0 -83.09878,16.00042 -38.29883,47.90039 -14.09999,35.80003 -1.89957,72.19893 36.40039,109.29883 -24.29997,25.6 -7.70111,87.5005 49.79883,185.9004 57.49994,98.3999 104.80043,221.0998 141.90039,368.0996 l -164.90039,46 9.59961,95.8008 H 1415.102 l -90.0996,-122.6992 c 29.4,-186.5998 47.2992,-384.001 53.6992,-592.3008 6.4,-208.19981 -10.1988,-336.00085 -49.7988,-383.3008 -0.7,0 -1.3,-0.0996 -2,-0.0996 h 1.9004 c 0,0 -4e-4,0.0996 0.1,0.0996 35.7,2.6 53.5996,75.40014 53.5996,218.5 h 120.8008 c 0,-190.39981 -52.4013,-285.59961 -157.2012,-285.59961 10.2,-48.59995 25.9,-85.59924 47,-111.19922 21.1,-25.59997 44.7004,-63.29966 70.9004,-113.09961 26.2,-49.79995 47.5992,-132.3009 64.1992,-247.30078 34.5,-15.29998 56.9016,-36.10081 67.1016,-62.300781 10.2,-26.199975 -0.6016,-51.498854 -32.6016,-75.798829 -19.9379,-15.9999848 -38.1557,-23.87500049 -54.6312,-23.62500079 z m 10.8613,45.50195379 c 6.314,0.321874 12.6703,3.198052 19.0703,8.623047 26.6,20.599979 13.8999,49.40043 -38.5,86.40039 -16.6,113.69989 -56.2005,219.79932 -118.9004,318.19922 -54.9999,65.19993 -86.8988,123.30044 -95.7988,174.40039 -33.2,-22.99998 -37.7004,-47.00041 -13.4004,-71.90039 24.3,-24.89998 32.6004,-45.7008 24.9004,-62.30078 -7.7,-16.59998 -20.4008,-26.19883 -38.3008,-28.79883 -17.9,-2.6 -30.0004,-0.60116 -36.4004,5.79883 -35.8,-30.69997 -69.5996,-48.59923 -101.5996,-53.69922 3.8,-29.39997 24.9008,-69.00044 63.3008,-118.90039 79.1999,-84.29992 172.4985,-148.19926 279.8984,-191.69922 18.225,-45.074955 36.7883,-67.088671 55.7305,-66.123047 z M 1091.7739,460.33976 c 37.6058,-2.22989 77.6039,18.97895 120.1289,63.6914 20.4,-25.59997 37.3988,-32.30155 50.7988,-20.10156 13.4,12.09999 -4.1992,38.7016 -52.6992,79.60156 7.7,24.29998 29.9996,58.09965 67.0996,101.59961 -40.8999,0 -74.7996,8.89885 -101.5996,26.79883 0,-24.39998 -20.5004,-36.5 -61.4004,-36.5 -40.8999,0 -61.2988,-28.09889 -61.2988,-84.29883 h -38.3008 c 15.3,-31.89997 29.0992,-55.60041 41.1992,-70.90039 12.1,-15.29998 18.9016,-34.50002 20.1016,-57.5 5.275,-1.275 10.5984,-2.07207 15.9707,-2.39062 z m 19.7265,32.93164 c -15.2621,0.37651 -25.8984,8.0586 -31.8984,23.05859 7.7,31.89997 41.4997,33.20075 101.5996,3.80078 -29.1656,-18.32811 -52.4041,-27.28609 -69.7012,-26.85937 z M 307.10201,558.4296 174.80318,1026.2304 69.402796,985.9296 Z m 1023.70119,105.5 c 91.9999,1.2 137.2996,72.80131 136.0996,214.70117 h -47.9004 c 0,-118.89988 -29.3993,-190.4012 -88.1992,-214.70117 z m -88.3008,80.40039 c 69.0999,0.1 98.5008,111.29983 88.3008,333.59961 -10.2,222.3998 -37.7005,432.6014 -82.4004,630.7012 l 47.9004,34.5 -688.20119,-1.9004 184,-55.5996 C 746.10206,1495.231 695.60156,1355.6303 640.70162,1266.7304 585.70167,1177.9305 573.30321,1123.23 603.30318,1102.83 c 29.99997,-20.4 64.90004,9e-4 104.5,61.3008 l 274.09962,350.7988 h 69 c 7.7,-304.1997 35.7989,-526.49975 84.2988,-667.09961 30.7,-68.99993 66.5008,-103.5 107.3008,-103.5 z M 531.40279,991.73038 h 70.90039 c 26.79997,8.90002 30.69998,26.20082 11.5,51.80082 l -63.20117,7.5996 c -29.39997,-11.5 -35.7992,-31.3004 -19.19922,-59.40042 z"
   sodipodi:nodetypes="sscsccccccssccccccccccscccccccccscscccccccscccccccccccccsscscssccccsssccccsscccccsccscssccscccccccccccccccscccccccccc" />
</svg>
