<?xml version="1.0" encoding="UTF-8" standalone="no"?>
<!-- Generator: Adobe Illustrator 19.0.0, SVG Export Plug-In . SVG Version: 6.00 Build 0)  -->

<svg
   version="1.1"
   id="Ebene_1"
   x="0px"
   y="0px"
   viewBox="0 0 1127.4885 1796.5878"
   xml:space="preserve"
   width="1127.4885"
   height="1796.5878"
   xmlns="http://www.w3.org/2000/svg"
   xmlns:svg="http://www.w3.org/2000/svg"><defs
   id="defs957">
	
	
	
	
</defs>
<style
   type="text/css"
   id="style947">
	.st0{fill:#010101;}
</style>
<path
   id="XMLID_7_"
   class="st0"
   d="M 723.4596,0.41103492 C 711.29273,1.0188009 698.58903,2.3016376 685.35028,4.257061 c -52.95496,7.71599 -84.87642,47.881135 -95.55197,120.601719 -10.67555,14.2693 -22.61828,35.09156 -35.7249,62.46747 -5.91911,15.43198 -5.70895,24.41721 0.84436,26.74258 6.5533,2.43107 12.15493,5.39104 17.01706,8.87909 -5.91912,3.59376 -8.03144,6.86918 -6.23457,9.82874 1.79688,2.95956 5.0723,4.44058 9.82874,4.44058 1.16268,0 -4.2e-4,2.11232 -3.59417,6.23457 -3.59375,4.12223 -2.64246,7.39973 2.64247,9.83079 5.39062,2.43107 8.3506,9.82957 8.87909,22.302 0.6342,12.47243 5.70815,19.34326 15.22102,20.50594 9.51286,1.16269 25.051,1.16269 46.4021,0 l 7.18627,28.53863 c -19.02573,11.94394 -39.84799,17.86348 -62.46747,17.86348 -19.97702,0 -42.17295,10.99185 -66.8007,32.97715 L 383.4098,623.21924 C 343.62868,611.60464 280.94308,564.39587 227.45613,511.9022 207.05632,491.50239 191.51736,484.30919 180.7361,478.39008 l 32.10436,-296.90569 h -50.31213 l -32.10436,287.50459 c -39.531243,0 -54.540483,21.24587 -44.921913,63.84237 9.61856,42.59651 18.502533,43.14173 38.902343,41.97904 L 0,1794.9126 H 50.312131 L 180.7361,580.50102 l 29.49908,1.2587 c 74.46074,92.95347 175.4856,144.59859 198.63007,146.59462 61.12173,-26.20623 95.00014,-206.06879 144.46704,-244.64874 1.90257,-0.5285 3.91208,-1.16228 6.02605,-1.69077 35.72611,73.77756 53.58838,176.1989 53.58838,307.26507 l -87.51928,457.2518 v -1.796 c -33.29504,195.3308 -57.71022,317.3077 -73.24791,366.1405 -19.02573,47.6699 -39.31991,75.0451 -60.77671,82.1269 -21.45679,7.1875 -58.34651,22.62 -110.77298,46.4022 -35.7261,7.1875 -57.18172,18.7086 -64.26352,34.8805 -7.1875,16.0662 7.71521,22.937 44.60399,20.506 46.40166,0 80.64725,-2.432 102.73824,-7.1884 21.98529,-4.7564 50.94677,-3.5933 86.67287,3.5942 35.72609,7.1875 52.95501,-4.7573 51.79232,-35.727 4.75643,-60.7766 28.01059,-133.7089 69.65581,-218.7961 41.64521,-85.193 60.77629,-148.5066 57.18254,-190.2576 -3.59376,-41.6451 10.14751,-75.5732 41.11717,-101.7865 l 133.92141,1.7961 c 28.53863,192.8997 45.8732,317.3085 51.79233,373.3288 2.43107,46.4016 -5.07523,77.6876 -22.3041,93.7538 -17.22888,16.0662 -51.47439,26.5299 -102.73822,31.2864 -30.96969,16.7003 -47.35298,29.4907 -49.14986,38.3694 -1.79687,8.8787 8.66687,13.4229 31.28637,13.4229 22.61951,0 49.46696,-0.6334 80.33096,-1.796 30.96969,-1.1627 68.49281,-1.1627 112.56903,0 44.07632,1.1626 58.3452,-13.1063 42.91321,-42.9133 -14.26931,-90.4779 -15.74824,-178.6324 -4.43849,-264.3539 11.30978,-85.7215 4.43892,-166.1579 -20.50596,-241.0981 v -1.7961 L 880.89273,966.00923 c 26.21325,-69.02113 25.89531,-134.87274 -0.84644,-197.34056 -8.87868,-20.61121 -13.7404,-44.60444 -14.90308,-71.98035 133.60297,18.49724 221.01719,15.96088 262.34529,-7.50419 -11.9439,-59.50826 -59.5097,-148.29611 -142.90582,-266.14995 -10.6756,-24.83916 -23.9928,-44.49913 -39.84756,-59.19123 l 9.51286,-15.85479 c 7.6103,-16.38328 127.25992,-208.43773 153.05042,-250.505742 2.5368,-4.122245 1.057,-9.512463 -3.171,-11.732134 l -24.7318,-13.212328 c -4.0165,-2.113972 -8.9856,-0.73989 -11.311,3.170959 C 1044.3024,115.34586 940.0848,300.42504 920.31916,330.23202 l -7.5063,12.4712 c -15.96049,-7.08179 -33.71617,-10.67514 -53.27041,-10.67514 -38.1572,0 -59.82669,-7.39851 -65.21732,-22.302 -5.39063,-14.9035 -9.19578,-31.28681 -11.62685,-49.14986 21.45682,-9.51286 42.59655,-27.05928 63.41918,-52.74402 20.82262,-25.57905 30.01967,-59.82464 27.6943,-102.73824 C 872.64908,57.423927 854.1514,26.771265 818.42526,13.136157 791.63066,2.8305524 759.96029,-1.4122653 723.4596,0.41103492 Z m 3.57557,30.50808908 c 16.37007,0.290672 34.36526,2.669308 53.97236,7.161495 39.31989,8.878675 60.14209,31.814904 62.46746,68.809391 1.16269,38.15716 -10.67429,70.81852 -35.72486,98.19443 -25.05058,27.37592 -41.11846,35.7253 -48.20027,25.04975 -9.51287,-11.94393 -4.12097,-29.49035 16.06746,-52.74402 20.29414,-23.25368 24.41511,-45.23903 12.47117,-66.06164 -11.94394,-20.822611 -35.09036,-21.138471 -69.6537,-0.84435 -13.10663,-13.106622 -42.28029,-21.986155 -87.5193,-26.742582 8.35018,-23.887865 25.68437,-39.637405 51.8976,-47.459094 13.10663,-3.857997 27.85201,-5.654051 44.22208,-5.36338 z M 621.9311,105.09396 c 36.88879,0 67.32918,8.34939 91.11137,25.04975 -1.16269,13.10662 3.91127,13.10662 15.22102,0 11.30976,-13.10662 22.9366,-17.2297 34.88055,-12.47326 11.94394,4.75643 14.27016,16.06786 7.18835,33.9309 -7.08181,17.86305 -17.0179,33.08327 -29.49034,45.5557 -12.47243,12.47242 -14.90435,24.73307 -7.18835,36.57131 7.716,11.94393 12.15661,22.61993 13.42499,32.13279 8.3502,71.4522 36.36075,107.17882 83.92513,107.17882 23.88789,0 37.52259,12.57774 40.79925,37.62829 L 743.80246,623.12249 c -21.24542,-2.85386 -43.44298,-4.01696 -66.37958,-3.59417 -3.59375,11.94394 3.5946,20.82347 21.45767,26.74258 v 51.36912 l -19.66164,32.55394 33.93095,19.66159 15.85479,-26.532 c 9.72428,3.59375 21.66822,6.44885 35.93753,8.66852 21.87962,2.64247 40.90368,-3.80475 56.96987,-19.13104 0.3171,10.25276 0.95171,20.18721 2.0087,29.91147 L 655.96524,782.09363 C 651.2088,639.18924 638.94815,544.27169 619.39392,497.23584 599.734,450.09431 584.8317,417.64353 574.68464,399.78048 c -10.14705,-17.86305 6.86963,-26.74051 50.94592,-26.74051 44.07628,0 64.05294,-17.86434 59.82499,-53.59044 -4.12224,-35.7261 -19.97581,-49.99503 -47.35173,-42.91323 -27.37591,7.1875 -39.32071,-1.16188 -35.72696,-25.04975 16.70036,-10.67555 21.98448,-18.18182 16.06537,-22.30406 -5.91913,-4.12224 -15.43201,-6.23457 -28.53863,-6.23457 0,-8.35018 -7.18628,-14.90516 -21.45559,-19.66159 11.94394,-32.13235 23.78097,-54.2234 35.7249,-66.06164 13.10662,-7.18749 26.53037,-7.71516 40.16548,-1.79605 13.74081,5.91911 28.32765,10.14789 43.75963,12.47326 l -1.79603,-10.67721 c -9.51288,0 -21.13975,-3.27543 -34.88056,-9.82873 -13.74081,-6.55331 -27.69428,-7.39889 -41.96359,-2.64247 4.75643,-8.35018 8.87951,-14.90309 12.47326,-19.65953 z M 755.2456,122.142 c -2.38255,0.031 -5.14086,0.61561 -8.27218,1.76508 -8.35019,3.06526 -15.75079,10.1479 -22.3041,21.45764 -6.55332,11.30975 -8.6656,19.97705 -6.23453,25.89617 -7.18751,2.43106 -11.3106,6.86959 -12.47328,13.4229 -1.16269,6.4476 1.47936,10.88654 8.03267,13.31761 6.55331,2.43107 15.75036,-2.64083 27.69431,-15.21895 11.94394,-12.47243 19.34242,-23.78385 22.30198,-33.93091 2.95956,-10.14706 2.95956,-17.54557 0,-22.302 -1.84972,-2.97277 -4.77398,-4.45916 -8.74487,-4.40754 z m -2.76433,11.8209 c 2.97277,0.14533 4.16315,2.15361 3.58181,6.01161 -1.16269,7.71598 -4.44019,15.43201 -9.83082,23.25369 -5.39063,7.71599 -10.46459,12.78789 -15.22102,15.21896 -4.75644,2.43106 -4.75644,0.001 0,-7.18627 4.75643,-7.1875 4.44061,-9.5137 -0.84433,-7.18833 -5.39063,2.32536 -6.65943,0.31667 -3.59417,-6.23664 2.95956,-6.55331 6.87041,-12.78872 11.62685,-18.70783 6.55331,-3.59375 11.3089,-5.31053 14.28168,-5.16519 z m -126.18184,4.2713 c -5.48893,0.052 -10.46912,1.5124 -14.93819,4.38277 l -10.67515,10.67515 v 10.67515 l 5.39022,-1.79605 c 16.70036,8.35018 35.72574,7.71475 57.18254,-1.79812 l 19.65951,3.59417 V 153.29212 H 663.25885 C 649.10846,143.16488 636.7783,138.13496 626.29943,138.2342 Z m -4.26304,7.97488 c -2.43107,3.59375 -1.79564,7.71682 1.79811,12.47326 -4.75642,-1.16269 -8.9852,-2.32578 -12.47326,-3.59417 1.16269,-4.75644 4.75603,-7.71641 10.67515,-8.87909 z m 16.06743,1.79811 17.86142,8.8791 c -7.1875,1.16268 -13.74042,2.42941 -19.65954,3.5921 4.75643,-3.59375 5.39187,-7.71476 1.79812,-12.4712 z m 78.6381,32.13279 c 7.18751,3.59376 8.66856,6.86918 4.44061,9.82874 -4.12224,2.95956 -6.86999,2.95956 -8.03267,0 -1.16269,-2.95956 0,-6.23498 3.59206,-9.82874 z m -111.07437,18.61907 c -0.20767,-0.006 -0.42362,0.0227 -0.64823,0.0888 -1.79687,0.6342 -2.43024,2.11315 -1.79605,4.43852 0.63419,2.43107 -0.31709,4.1239 -2.64246,5.39228 -2.43107,1.16269 -5.07519,-4.1e-4 -8.03475,-3.59416 -2.95956,-3.59376 -5.07188,-5.39022 -6.23457,-5.39022 -1.16268,0 -2.43148,0.63337 -3.59416,1.79605 -1.16269,1.16269 -1.16269,2.95915 0,5.39022 2.43107,-2.43107 5.39104,-1.16227 8.87909,3.59416 3.59376,4.75644 7.39892,5.91954 11.62685,3.59417 4.12225,-2.43107 5.91871,-5.70855 5.39022,-9.8308 -0.46243,-3.60696 -1.49217,-5.43274 -2.94594,-5.47898 z m -20.26853,28.9577 c 1.20232,-0.14534 2.7077,0.0925 4.50458,0.72668 4.75642,1.16268 10.14831,1.79605 16.06742,1.79605 h 7.18627 l -28.53862,1.79811 c -2.43107,-0.1057 -3.06403,-1.05657 -1.90134,-2.74775 0.58134,-0.89844 1.47937,-1.42775 2.68169,-1.57309 z m 25.96222,5.90632 c -1.16268,2.43107 -3.91043,4.7552 -8.03268,7.18627 -4.22795,2.43107 -8.13879,3.59417 -11.62685,3.59417 -2.43107,1.16268 -4.12183,1.16268 -5.39022,0 -1.26838,-1.16269 -0.63501,-2.95915 1.79606,-5.39022 z m 294.6886,253.78198 c 35.72603,61.93933 75.04604,110.13841 117.85406,144.70182 -42.91372,2.43107 -76.84384,5.39104 -101.78871,8.8791 -20.08274,2.85386 -38.47346,4.86131 -55.17384,6.024 4.75644,-45.87316 17.75737,-99.03967 39.10849,-159.60492 z m -52.63876,28.53863 c -13.95221,45.66176 -23.35897,88.15351 -28.11541,127.68475 -13.21232,-5.07352 -26.74132,-9.30312 -40.79924,-12.79118 z m -22.40726,271.43488 c 39.31978,49.99539 41.11634,109.50384 5.39021,178.63067 l 41.11718,239.30007 h -298.3674 l 75.02537,-375.01751 z"
   style="stroke-width:1.05699" />
</svg>
