<?xml version="1.0" encoding="UTF-8" standalone="no"?>
<svg
   width="1101.2185"
   height="1800"
   version="1.1"
   id="svg8256"
   sodipodi:docname="US9A22VARA.svg"
   inkscape:version="1.2.2 (732a01da63, 2022-12-09)"
   xmlns:inkscape="http://www.inkscape.org/namespaces/inkscape"
   xmlns:sodipodi="http://sodipodi.sourceforge.net/DTD/sodipodi-0.dtd"
   xmlns="http://www.w3.org/2000/svg"
   xmlns:svg="http://www.w3.org/2000/svg">
  <defs
     id="defs8260" />
  <sodipodi:namedview
     id="namedview8258"
     pagecolor="#ffffff"
     bordercolor="#000000"
     borderopacity="0.25"
     inkscape:showpageshadow="2"
     inkscape:pageopacity="0.0"
     inkscape:pagecheckerboard="0"
     inkscape:deskcolor="#d1d1d1"
     showgrid="false"
     inkscape:zoom="0.49555556"
     inkscape:cx="549.88789"
     inkscape:cy="900"
     inkscape:window-width="1920"
     inkscape:window-height="1137"
     inkscape:window-x="-8"
     inkscape:window-y="-8"
     inkscape:window-maximized="1"
     inkscape:current-layer="svg8256" />
  <path
     style="display:inline;fill:#000000;stroke:none;stroke-width:96.0781"
     d="m 989.62289,1000.6548 c -1.4038,-46.427 -7.3696,-92.50224 -17.8975,-138.22573 -10.528,-45.72356 -8.0714,-97.42632 7.3695,-155.1083 -8.4224,-83.00582 -11.2298,-158.27377 -8.4224,-225.80384 -29.478,47.83381 -47.0246,130.83957 -52.6394,249.01728 9.8259,42.20636 16.8445,149.83252 21.0558,322.87859 21.0557,-19.6964 37.9004,-37.2824 50.534,-52.758 z m -90.54,52.758 c 2.8075,-97.07464 2.8075,-162.49447 0,-196.25953 -2.8074,-33.76513 -12.6335,-54.16487 -29.4781,-61.19922 l -164.2353,78.08168 c -42.1117,61.90262 -77.9066,121.69494 -107.3846,179.37707 z m -2.1056,52.7578 h -315.837 l -42.1117,132.9498 h 345.3152 c 11.2298,1.407 15.441,-42.9098 12.6335,-132.9498 z M 667.46909,859.26349 c -11.2298,-43.61316 -17.5465,-97.77794 -18.9503,-162.49432 -4.2112,-70.34389 -23.1615,-145.61184 -56.8507,-225.80384 -18.2484,35.17196 -47.0246,79.84031 -86.3287,134.00509 -39.3042,54.16476 -73.6954,88.985 -103.1736,104.46068 -35.093,-7.0344 -96.8567,-43.61324 -185.29104,-109.73649 -19.65206,-11.25504 -37.19856,-21.10317 -52.63952,-29.5444 L 54.74511,1798.3544 h 265.30308 c 0,-19.6962 21.7577,-32.3581 65.2731,-37.9858 77.2045,-12.6618 129.1423,-45.7233 155.8129,-99.1848 28.0744,-123.8052 40.006,-220.1763 35.795,-289.1133 -7.0188,-29.5444 -5.615,-59.0889 4.2111,-88.6333 h -96.8569 c 21.056,-75.9714 37.1988,-135.0603 48.4284,-177.2666 h -50.5338 c -39.3042,4.2205 -61.7637,10.038 -67.3786,25.5136 0,8.4415 -5.15557,13.4141 -7.96297,13.4141 -2.8075,0 -13.53936,-4.9726 -13.53936,-13.4141 l -161.68321,-21.2931 c -3.82322,-22.6071 -5.32393,-41.4541 0,-63.3094 l 160.1825,-18.2307 c 0,-7.0344 12.23257,-12.0557 15.04007,-12.0557 2.8074,0 7.96297,2.7651 7.96297,9.7995 5.6149,14.0688 28.0744,19.7835 67.3786,26.818 h 75.8008 c 33.6893,-67.53029 70.1861,-132.24669 109.4903,-194.14931 z m 14.739,-772.375773 c 56.1487,15.475613 87.7324,30.951273 94.7511,46.426973 8.4223,-9.84818 21.7576,-12.66194 40.006,-8.44129 18.2484,4.22063 25.267,18.99286 21.0557,44.31664 0,14.0688 -10.5278,33.06165 -31.5835,56.97856 7.0185,26.73067 21.7576,39.39256 44.2171,37.98568 35.0931,-15.47562 51.9377,-52.40613 50.534,-110.79155 -1.4037,-58.385481 -32.2856,-96.019473 -92.6455,-112.901975 -60.36,-16.882502 -102.4717,-1.406849 -126.3349,46.426962 z m -35.7948,65.419853 c 8.4223,-26.73073 34.3911,-26.73073 77.9064,0 -44.919,19.69626 -70.8878,19.69626 -77.9064,0 z m 225.2971,580.33695 c 7.0186,-52.05445 14.388,-105.16406 22.1085,-159.32882 7.7205,-54.16484 25.6179,-103.75729 53.6923,-148.77734 22.4596,-37.98571 11.2298,-54.51652 -33.6893,-49.59243 -44.9191,4.92409 -78.6084,-3.5172 -101.0678,-25.32386 -22.4595,-21.80659 -36.4967,-46.42692 -42.1116,-73.86103 -5.6149,-27.4341 -6.3167,-46.07525 -2.1057,-55.92341 26.6708,-25.32378 39.6552,-43.6132 38.9533,-54.86823 -0.7018,-11.25498 -5.9657,-12.66186 -15.7919,-4.22065 -9.826,8.44129 -18.9502,10.5516 -27.3724,6.33096 -54.7452,-43.61317 -91.9438,-59.79226 -111.5958,-48.53728 -39.3042,52.05451 -50.534,78.08177 -33.6894,78.08177 14.0372,1.40688 21.7577,16.1791 23.1614,44.31665 1.4038,21.10314 7.0187,30.24783 16.8448,27.43407 54.745,-19.69627 83.5213,-4.22061 86.3287,46.42696 1.4037,21.10315 -7.7204,40.096 -27.3725,56.97856 -64.5711,5.62753 -96.5058,14.06877 -95.804,25.32375 0.7019,11.25504 4.5621,30.24791 11.5807,56.97857 18.2485,54.86822 35.795,134.35681 52.6395,238.46577 -2.8074,60.49581 4.913,105.51592 23.1613,135.06034 58.9564,-11.25504 112.9997,-42.90983 162.1299,-94.96435 z m -246.353,1065.70988 c 2.8074,-19.6962 22.4595,-33.0615 58.9563,-40.0961 71.5897,-7.0344 115.8069,-39.3926 132.6515,-97.0745 8.4223,-126.619 4.2112,-222.9901 -12.6335,-289.1133 -12.6335,-29.5444 -16.8446,-59.0889 -12.6335,-88.6333 h -82.1177 c -12.6334,30.9513 -21.0557,61.9026 -25.2668,92.8539 7.0185,52.0545 3.8601,97.0746 -9.4752,135.0603 -13.3353,37.9856 -33.3383,86.5229 -60.0091,145.6118 -9.8259,22.5101 -19.652,47.1304 -29.4779,73.861 11.2297,37.9857 6.3166,60.4957 -14.7392,67.5302 z M 0,1798.3544 109.49012,561.70893 C 84.22317,544.82636 72.99341,517.04054 75.80086,478.35146 78.60831,439.6623 94.04924,419.61429 122.12364,418.20741 l 6.31674,-80.19199 58.95628,6.33094 -10.52792,105.51576 c 26.67068,5.62752 47.72649,37.28226 63.16745,94.96424 74.3971,33.76508 128.4404,54.86825 162.1296,63.30953 54.7451,-74.56454 96.1548,-139.98434 124.2294,-196.25945 15.4408,-40.79947 40.0059,-66.12326 73.6953,-75.97136 78.6083,-2.81376 116.5087,-16.88256 113.7013,-42.2064 v 0 c -29.4781,-1.40683 -50.8849,-1.40683 -64.2202,0 -13.3354,1.40688 -22.1087,-4.57234 -26.3198,-17.93764 -4.2111,-13.36536 -6.6676,-27.43414 -7.3694,-42.20632 -0.702,-14.77225 -8.0716,-22.15837 -22.1087,-22.15837 -16.8446,-11.25498 -5.6149,-43.61317 33.6892,-97.07457 -1.4036,-11.25498 12.2826,-36.227034 41.0589,-74.916185 28.7763,-38.68915036 81.0649,-48.8890021 156.8657,-30.5995549 75.8009,18.2893829 113.7014,75.9713559 113.7014,173.0459199 0,98.48145 -40.0061,135.76368 -120.0181,111.84672 26.6707,30.95136 54.3942,42.90986 83.1704,35.87545 28.7763,-7.0344 63.5184,-1.40692 104.22621,16.88247 43.5154,18.28944 55.447,137.87406 35.7948,358.75386 7.0187,54.8682 7.0187,112.55021 0,173.04602 -7.0185,60.49567 -2.1055,118.88108 14.7392,175.15632 h 44.2171 v 52.7578 h -37.9004 c -8.4223,12.6619 -22.4595,21.4549 -42.1116,26.379 -19.6521,4.924 -36.14581,4.2206 -49.48111,-2.1104 -13.3353,-6.3309 -24.2141,-14.4205 -32.6365,-24.2686 v 177.2666 h -23.1614 c -4.2112,18.2893 -6.3168,42.9098 -6.3168,73.861 16.8447,49.2408 22.1086,93.9091 15.7918,134.0052 -6.3167,40.096 -18.5993,91.7987 -36.8476,155.1082 -4.2112,23.9171 -9.1242,49.2407 -14.739,75.9714 18.2483,36.5788 13.5736,65.8844 -2.1055,75.9714 z m 391.046,-741.6319 -134.79297,14.7621 v 16.6141 l 134.79297,16.4661 z m 30.07009,7.3975 -0.75035,32.9014 c 14.0372,-8.4413 29.4781,-8.6312 46.3228,-8.6312 l 0.75035,-16.445 c -16.8447,0 -32.2856,0.6161 -46.3228,-7.8252 z"
     id="path8254"
     sodipodi:nodetypes="csccccccsccccccccccccscccccccccccccsccccsccccccscccsscccccscssscsscccccccscccccccccccsccccccsccccccccsssssccssscsccsccccssccccscccccccccccccc" />
</svg>
