<?xml version="1.0" encoding="UTF-8" standalone="no"?>
<svg
   width="1155"
   height="1800"
   version="1.1"
   id="svg4"
   sodipodi:docname="US9A17DVARA.svg"
   inkscape:version="1.2.2 (732a01da63, 2022-12-09)"
   xmlns:inkscape="http://www.inkscape.org/namespaces/inkscape"
   xmlns:sodipodi="http://sodipodi.sourceforge.net/DTD/sodipodi-0.dtd"
   xmlns="http://www.w3.org/2000/svg"
   xmlns:svg="http://www.w3.org/2000/svg">
  <defs
     id="defs8" />
  <sodipodi:namedview
     id="namedview6"
     pagecolor="#ffffff"
     bordercolor="#000000"
     borderopacity="0.25"
     inkscape:showpageshadow="2"
     inkscape:pageopacity="0.0"
     inkscape:pagecheckerboard="0"
     inkscape:deskcolor="#d1d1d1"
     showgrid="false"
     inkscape:zoom="0.29"
     inkscape:cx="1091.3793"
     inkscape:cy="641.37931"
     inkscape:window-width="1920"
     inkscape:window-height="1137"
     inkscape:window-x="-8"
     inkscape:window-y="-8"
     inkscape:window-maximized="1"
     inkscape:current-layer="svg4" />
  <path
     id="path2"
     style="fill:#000000;stroke:none;stroke-width:93.4611"
     d="m 985.36673,12.357752 c -1.97191,-0.03496 -3.90635,0.0074 -5.79562,0.11191 -26.55331,1.480957 -148.76226,54.526117 -171.97304,103.935788 -17.57195,-2.14277 -33.91545,-3.20919 -48.70237,-2.91515 -48.17516,0.95802 -81.57079,14.8481 -100.18393,41.67291 -24.81748,35.76645 -35.0367,60.21996 -30.65711,73.35861 l -52.55546,85.40294 c -13.13865,18.97816 -3.64997,35.03608 28.46676,48.17474 v 15.32723 c -81.7518,-4.37955 -132.11719,0.73139 -151.09529,15.32989 -29.19706,23.35775 -54.74366,72.26206 -76.64148,146.71455 -42.33577,108.02917 -59.48949,175.91353 -51.46028,203.65074 8.02925,27.73723 13.5054,50.00182 16.42508,66.79018 2.91971,16.7883 17.88187,20.07297 44.88918,9.85398 27.00729,-10.21897 61.68,-31.7531 104.01573,-64.5998 42.33578,-32.84673 74.45164,-68.24995 96.34947,-106.20612 40.87586,78.83216 61.31424,142.70134 61.31424,191.6064 0,48.9051 -6.56931,109.85492 -19.70795,182.84765 -135.76638,21.8979 -239.41649,66.4245 -310.94937,133.5777 -29.19704,112.4087 -46.71607,209.4897 -52.55545,291.2413 -5.83943,81.752 -21.89738,147.8128 -48.17473,198.1775 -26.27736,50.3653 -81.02316,82.1158 -164.234806,95.2544 -40.875938,1.4598 -54.0145084,10.9483 -39.415939,28.4667 14.598511,17.5182 27.737081,25.5488 39.415939,24.0888 H 185.71799 c 33.57659,-10.219 60.94949,-11.68 82.1174,-4.3808 21.16788,7.2993 40.87573,5.1103 59.12388,-6.5684 18.24817,-11.679 17.88289,-38.3212 -1.09517,-79.927 -18.97809,-41.6059 -9.12421,-95.2558 29.56194,-160.9494 38.6861,-65.6935 58.02872,-129.928 58.02872,-192.7014 0,-64.2338 7.29977,-96.3495 21.89832,-96.3495 30.65689,91.9706 59.12549,169.7064 85.40297,233.2099 26.27734,63.5037 38.6854,118.6147 37.22555,165.33 -21.89785,52.5546 -62.77455,78.8319 -122.62852,78.8319 -36.49635,0 -49.63491,9.8541 -39.41593,29.562 10.21895,19.7082 23.3575,29.5619 39.41593,29.5619 h 83.2126 c 59.85397,-35.0362 108.75836,-56.2026 146.71454,-63.5021 37.95621,-7.2989 40.87826,-35.4024 8.76145,-84.3076 -32.11678,-48.9054 -46.71637,-110.5853 -43.79665,-185.0381 2.91972,-74.4524 -15.32977,-135.765 -54.74582,-183.94 l 8.7588,-19.7079 c 56.93431,-24.8175 127.01021,-37.2283 210.22179,-37.2283 83.21175,0 126.64252,-23.7229 130.29215,-71.1683 3.64972,-47.4451 -12.7736,-144.8914 -49.26988,-292.3366 0,-46.71538 19.70789,-114.59965 59.12397,-203.65075 L 1050.6834,802.2458 c -16.0585,64.23357 -22.6277,154.74519 -19.7079,271.5336 -37.95632,18.978 -56.93359,49.6355 -56.93359,91.9714 l 48.17479,-45.9844 -26.27643,105.1082 c 30.65703,24.8177 58.39223,21.533 83.20993,-9.8539 24.8176,-31.3869 27.7368,-90.8758 8.7587,-178.4669 30.657,-70.07309 44.5261,-155.47638 41.6063,-256.20633 -30.6566,-70.07295 -66.7878,-135.03525 -108.3938,-194.88927 -41.60584,-59.85399 -74.08693,-89.78102 -97.44465,-89.78102 l -54.7458,-13.13954 c 0.17774,-0.0522 0.28974,-0.13629 0.46639,-0.18919 -9.38109,-10.04229 14.06115,-61.5409 20.76047,-68.19712 49.86674,-49.54618 73.55413,-119.48341 59.79537,-174.68034 -10.77747,-43.23678 -31.11644,-75.41991 -62.80651,-96.37612 35.42847,-32.78084 72.06284,-61.919038 102.00659,-39.53049 24.50974,18.32561 59.66004,281.69274 73.27874,288.54207 25.4419,12.79583 65.1624,17.38062 83.6389,-3.55202 17.8847,-20.26234 -62.1523,-239.17159 -77.6594,-282.02427 -26.3923,-72.933281 -53.4679,-93.6487 -83.04477,-94.172408 z M 763.15387,146.93469 c 6.92288,-0.0798 14.08146,0.47396 21.47198,1.66009 59.12416,9.48906 97.44406,36.13145 114.96227,79.92704 17.51821,43.79563 21.5334,75.91419 12.04437,96.3521 -10.61991,21.93415 -25.9173,38.59405 -37.23629,55.2921 -26.69596,39.38291 -46.43607,65.80462 -53.63193,106.98418 -4.49827,25.74169 6.62172,38.44865 24.08062,36.99374 23.35772,-1.45979 42.33509,9.48993 56.9335,32.84749 14.59861,23.35771 13.13757,45.98489 -4.38064,67.8827 -35.03652,91.97077 -52.55286,164.9634 -52.55286,218.97796 30.65697,145.98542 45.98432,241.60801 45.98432,286.86341 -5.8393,20.4381 -22.62779,37.2265 -50.36505,50.3651 -145.98532,7.2994 -229.19711,20.4378 -249.63507,39.4159 1.45987,-29.1969 -66.4245,-51.8269 -203.65074,-67.8853 62.77368,-43.7956 145.25497,-73.7227 247.44474,-89.781 21.8978,0 35.40162,-24.0856 40.5111,-72.26088 5.10952,-48.17518 7.66628,-97.81274 7.66628,-148.90758 0,-52.55476 -17.51895,-124.81684 -52.55545,-216.78761 H 599.5879 c 16.05833,-68.61308 35.03573,-102.92055 56.93351,-102.92055 h 74.4538 l -15.3299,-107.29863 -56.93354,17.51761 c -16.05836,-14.59857 -17.51937,-27.73708 -4.38072,-39.41594 l -4.37807,-19.70796 c -26.27734,-2.91972 -36.49648,-9.48903 -30.65712,-19.70796 5.83942,-10.21902 -0.72989,-17.51877 -19.70796,-21.89832 l 52.55545,-89.78102 c 25.54737,-62.59122 62.5502,-94.16782 111.01052,-94.72667 z m -91.30256,108.00208 c -4.7445,0.27374 -8.3944,1.68743 -10.94917,4.24217 -10.21897,10.21894 -11.31477,21.53387 -3.28553,33.94269 8.0292,12.4087 36.86313,9.1241 86.49813,-9.85398 -33.9416,-19.70804 -58.02983,-29.15205 -72.26343,-28.33088 z m -61.31425,146.57865 c -1.45987,35.03652 11.31345,51.82496 38.32075,50.3651 27.00727,-1.45987 43.43052,6.57039 49.2699,24.0887 0,5.83936 -5.10827,8.75879 -15.32724,8.75879 -10.21898,0 -27.37266,0.36526 -51.46027,1.09519 -24.08756,0.72995 -43.06754,9.85329 -56.93619,27.37158 -13.86858,17.5182 -36.49584,45.25637 -67.88268,83.21258 -31.38688,37.95619 -63.13747,74.45248 -95.25428,109.489 21.89782,-81.7518 37.95575,-154.01656 48.17472,-216.79027 37.95623,1.45986 63.1376,-3.64844 75.54631,-15.32724 12.40878,-11.67884 13.50454,-34.30604 3.28555,-67.8827 z" />
</svg>
