<?xml version="1.0" encoding="UTF-8" standalone="no"?>
<svg
   xml:space="preserve"
   viewBox="0 0 1358.312 1792.9824"
   y="0px"
   x="0px"
   id="Ebene_1"
   version="1.1"
   width="1358.312"
   height="1792.9824"
   xmlns="http://www.w3.org/2000/svg"
   xmlns:svg="http://www.w3.org/2000/svg"
   xmlns:rdf="http://www.w3.org/1999/02/22-rdf-syntax-ns#"
   xmlns:cc="http://creativecommons.org/ns#"
   xmlns:dc="http://purl.org/dc/elements/1.1/"><metadata
     id="metadata3831"><rdf:RDF><cc:Work
         rdf:about=""><dc:format>image/svg+xml</dc:format><dc:type
           rdf:resource="http://purl.org/dc/dcmitype/StillImage" /></cc:Work></rdf:RDF></metadata><defs
     id="defs3829" /><style
     id="style3817"
     type="text/css">
	.st0{fill:#010101;}
</style><path
     id="XMLID_31_"
     style="stroke-width:1.04468"
     class="st0"
     d="m 674.44336,0 c -9.40208,0 -18.90857,0.94280058 -28.72852,2.71875 -28.31073,5.2233816 -53.90278,25.696899 -76.57226,61.529297 -5.22338,13.058458 -17.86605,32.281341 -37.92383,57.562503 -3.44744,11.38698 -2.19288,16.81826 3.9707,16.40039 6.05913,-0.41787 10.44691,0.62658 13.0586,3.23828 -2.9251,2.19382 -4.49319,4.49473 -4.59766,7.00195 l -32.38477,-0.10742 c -24.65436,0.83574 -52.02497,11.91121 -79.29101,33.01367 -68.63523,58.91974 -101.64724,128.18148 -100.70703,206.42774 0,12.32718 8.14902,16.60994 23.08789,14.83398 50.56234,-22.04267 153.98581,-64.24691 189.19141,-84.30469 19.74438,33.74305 29.5625,86.49827 29.5625,158.0586 l -54.94922,10.44726 c -132.56943,13.05846 -209.35453,34.05851 -230.24805,62.78711 -28.83307,16.61037 -50.14196,74.58979 -64.14063,174.04297 -20.89352,104.67657 -60.17466,159.20806 -117.73632,163.5957 L 9.1933594,923.91406 0,940.94336 c 6.999328,6.05911 13.477039,9.19141 19.640625,9.19141 l 177.908205,-9.19141 c 12.22272,-40.11557 36.45966,-90.05116 72.60547,-149.80664 36.25026,-59.75549 50.3546,-112.72083 42.51953,-159 16.61034,59.33762 31.86166,136.12076 45.75586,230.24609 2.61169,22.66948 -24.86216,43.14495 -82.42383,61.53125 -26.1169,1.77595 -39.28125,10.02887 -39.28125,24.86328 l 134.76172,-5.22265 c 29.66881,0 44.50586,-11.80533 44.50586,-35.31055 -9.61102,-20.89353 -10.65744,-63.7251 -3.24024,-128.18164 7.4172,-64.561 -0.62664,-116.90006 -24.23633,-157.01562 l 230.24805,-9.19141 c 75.00776,0 112.51172,-19.22483 112.51172,-57.56445 l -6.26953,-128.18164 c 0,-48.89086 13.05987,-90.78359 39.28125,-125.67579 l 27.47461,116.48243 -39.2793,180.52148 c -7.83506,12.22272 -13.26831,23.71254 -16.40234,34.68164 -3.02957,10.86464 -5.01387,20.68566 -5.84961,29.46094 0,6.99932 1.9843,16.29868 5.84961,28.10351 2.9251,8.77528 5.01491,17.13273 6.16406,25.07227 3.64015,8.97294 15.92655,-0.15955 23.33008,-2.04102 16.19313,-4.58547 4.68369,-14.66713 0.69726,-29.50976 -2.19381,-8.25294 -2.4029,-20.68457 -0.62695,-37.29492 0.83575,-4.38765 1.77754,-6.58204 2.61328,-6.58204 1.77595,0 3.44671,1.25551 5.22266,3.86719 0,4.38765 -0.41917,10.44618 -1.35938,18.28125 -0.83575,7.83506 -0.20749,13.99809 1.98633,18.28125 2.19383,4.38765 5.0135,5.22497 8.46094,2.61328 2.6117,-0.83575 3.23798,-4.8073 1.98437,-11.80664 -1.35808,-6.99932 -0.41627,-17.02943 2.61329,-30.08789 3.02956,-13.05845 -0.2093,-27.05621 -9.82032,-41.89062 40.11557,-53.17403 60.59104,-120.34818 61.53125,-201.51953 -4.38764,-57.56168 -15.67032,-106.03363 -34.05664,-145.20899 -25.28117,-24.44543 -55.78478,-40.53211 -91.61719,-48.36719 -22.66947,-19.22204 -19.22154,-38.65596 10.44727,-58.1914 29.6688,-19.63992 43.87567,-44.91938 42.51758,-75.841799 C 764.80989,40.534611 751.54289,19.952721 726.26172,9.9238281 709.65138,3.3423674 692.41179,0 674.44336,0 Z m -12.2207,17.447266 c 9.92443,-0.104468 21.20611,1.253642 33.95117,4.283203 31.44476,7.417202 47.32432,23.505844 47.74219,48.36914 0.41787,24.863302 -12.22284,47.114001 -37.92188,66.753911 -25.69902,19.63992 -29.25144,17.44747 -10.44726,-6.58008 18.80417,-24.02756 25.27991,-43.56513 19.63867,-58.921878 C 709.54429,56.308224 690.95163,52.547739 659.61133,60.382812 624.71914,50.77179 614.27182,40.117343 628.16602,28.3125 c 8.25294,-6.999331 19.6401,-10.656301 34.05664,-10.865234 z m -60.17383,43.773437 h 0.52344 c 5.64125,0.417872 21.62332,5.849159 47.74023,16.400391 2.6117,6.999328 8.25402,7.625633 17.0293,1.984375 8.67081,-5.641248 17.23729,-6.790185 25.49023,-3.238281 8.25294,3.447434 9.40187,11.386661 3.23828,23.609374 -6.05912,12.222708 -14.20939,22.461898 -24.23828,30.714848 -10.0289,8.25294 -14.41667,17.23663 -13.05859,26.84765 1.35808,9.61102 7.20949,16.6094 17.65625,20.89258 2.61169,15.67015 9.82015,28.83254 21.625,39.2793 11.80484,10.44676 32.07219,22.25209 60.80078,35.31054 -45.13002,76.47031 -67.80078,131.83808 -67.80078,165.89454 0,0 2.40402,11.80559 5.43359,28.20703 4.80552,25.90796 11.38511,63.30768 12.84766,84.41015 0.73128,10.44676 -1.56629,18.80416 -5.22266,24.86328 -8.56634,14.10314 -54.94938,20.47442 -138.73242,19.63868 -68.94864,6.99933 -149.18072,7.83665 -240.79883,2.61328 9.61102,-28.83307 59.7557,-48.37065 150.43359,-58.92188 89.84218,0 134.76368,-26.63652 134.76368,-79.81054 0,-36.66814 -19.6401,-95.48491 -58.91992,-176.65625 50.56232,-13.99867 71.56043,-29.24998 62.78515,-45.75586 3.44744,-24.44543 -2.61109,-37.50335 -18.28125,-39.2793 -17.44609,1.77595 -27.4762,-3.44916 -30.08789,-15.67188 13.05846,-5.22337 17.8654,-9.61115 14.41797,-13.05859 -3.44744,-3.44744 -9.61239,-5.64182 -18.2832,-6.58203 6.05912,-6.05911 3.9692,-11.80592 -6.58204,-17.0293 l 23.61133,-36.666013 c 10.44676,-7.83507 28.31063,-5.640684 53.5918,6.582031 8.67081,-0.835742 6.37181,-4.597219 -7.20898,-11.074219 -13.47633,-6.581458 -26.8478,-9.403101 -39.90625,-8.46289 5.95464,-10.133362 11.59603,-15.145483 17.13281,-15.041016 z m 83.88672,17.025391 c -1.88043,0 -4.17933,0.314648 -6.79102,1.15039 -6.99933,2.193823 -13.05786,7.207898 -18.28125,15.042969 -5.22338,7.835067 -6.58045,13.477387 -3.96875,17.029297 -5.22337,2.6117 -8.46222,5.85056 -9.82031,9.82031 -1.35808,3.96978 0.41713,6.99759 5.22266,9.19141 4.80551,2.19383 11.80585,-1.04503 20.89453,-9.82031 9.29762,-8.77528 15.25158,-16.40097 17.86328,-22.982426 2.61168,-6.58146 3.03182,-11.804614 1.25586,-15.669922 -1.04467,-2.402757 -3.24098,-3.761718 -6.375,-3.761718 z m -4.70117,8.880859 c 3.5519,0 5.01451,1.670754 4.49218,5.222656 -0.83575,5.641251 -3.44634,10.864411 -7.83398,15.669921 -4.38765,4.80551 -8.46188,8.04437 -12.43164,9.82031 -3.86531,1.88042 -3.86531,0.31332 0,-4.49218 3.96976,-4.80552 3.96976,-6.58075 0,-5.22266 -3.96978,1.35808 -4.59803,-0.4191 -1.98633,-5.22461 2.6117,-4.805508 5.64146,-9.401416 9.19336,-13.789062 3.55191,-1.35808 6.47706,-1.984375 8.56641,-1.984375 z m -87.125,1.984375 c -0.83574,0 -1.67208,0.001 -2.50782,0.105469 -8.67081,0.835741 -15.66919,6.580579 -20.89258,17.027343 8.67082,7.83507 17.65451,11.38748 26.84766,10.44727 9.19315,-0.83574 19.01418,-4.38816 29.46094,-10.44727 h 16.92187 v -5.22266 H 626.91016 C 613.43382,93.081953 602.57126,89.111328 594.10938,89.111328 Z m -6.16407,6.476563 c 0.31341,0 0.62705,0.106468 1.04492,0.210937 -4.38764,6.894862 -2.61046,10.863472 5.22461,11.699222 9.61102,-2.6117 11.38625,-6.5813 5.22266,-11.804691 6.05912,2.611691 12.22213,5.224251 18.28125,7.835941 -7.83507,2.71616 -15.66883,3.96875 -23.50391,3.96875 -6.05911,0.83574 -10.86607,-0.83502 -14.41796,-5.22266 3.02955,-4.596588 5.74567,-6.791966 8.14843,-6.687499 z m 623.16409,6.529299 c -22.526,-0.99224 -45.6135,0.94108 -69.2754,5.79883 -47.3238,9.71548 -77.8275,48.15939 -91.6172,115.54101 -10.2379,12.53612 -21.7315,31.34087 -34.2676,56.51758 -4.5966,15.98354 -3.6567,24.55007 2.6113,25.69922 6.2681,1.14914 12.8522,3.96983 19.6426,8.5664 -6.8949,3.44744 -9.4038,6.58172 -7.7324,9.40235 1.6715,2.82063 4.8058,4.80398 9.4023,5.95312 7.9395,-2.29828 8.2532,-1.46291 0.836,2.61133 -7.4172,3.96977 -7.94,7.10406 -1.6719,9.40235 6.268,2.29829 10.0295,10.23856 11.0742,23.92382 1.1492,13.68526 7.9395,20.78921 20.5801,21.41602 12.5362,0.52233 29.6672,-0.31304 51.3965,-2.61133 9.0887,12.53612 4.5983,21.72984 -13.6836,27.37109 -55.8901,2.29829 -98.0955,14.51988 -126.61524,36.77149 -1.77595,1.46255 -4.17832,5.64165 -6.68554,10.0293 -22.14716,25.49009 -26.534,42.51791 -46.5918,68.84375 -23.92312,31.44475 -45.96759,74.48647 -66.02539,129.12304 l -11.59571,15.98438 c -62.69277,34.44683 -60.91174,42.9143 -95.96601,64.21374 -55.36785,31.9671 -86.37894,45.02649 -108.1082,45.02649 -53.5919,-19.43098 -62.00346,-13.31706 -102.70477,-3.53601 -1.14915,13.68527 65.1311,2.34729 66.60373,25.43751 -7.48449,45.07904 -124.38365,14.77646 -148.0181,5.56139 -10.04475,0.006 -23.1718,11.80151 -18.84571,22.09766 18.29697,15.46121 90.85447,35.35239 121.41378,38.26452 37.60834,1.14914 84.04225,-17.49814 117.15849,-39.22741 62.13474,-11.92856 170.87065,-16.38967 277.00976,-74.57813 23.08738,-13.37185 47.32341,-30.71204 72.91801,-52.02343 9.4021,44.92108 13.6852,86.18562 12.6406,123.89843 l -104.36329,427.9004 c -20.58014,50.2489 -27.99768,98.0938 -22.25196,143.7461 -30.81798,94.7521 -50.45903,164.6424 -59.02539,209.668 -8.56635,45.0254 -23.9222,73.3376 -46.17383,84.7246 -22.2516,11.387 -55.57687,27.371 -100.08007,47.9511 -45.65237,9.0887 -70.7257,18.8023 -75.32227,29.1446 -4.59658,10.2379 2.82294,16.5044 22.25391,18.8027 19.43098,2.2983 96.94405,3.4492 232.75195,3.4492 19.431,-18.2819 26.53494,-42.5178 21.41602,-72.709 -5.11892,-30.1911 13.68775,-80.1267 56.51953,-149.8066 42.8317,-69.5754 58.5021,-135.8097 47.1152,-198.4902 -1.1492,-19.431 7.1019,-41.0564 24.8614,-65.084 17.7594,-24.0276 31.6546,-41.0542 41.8925,-51.3965 h 111.2579 c 3.4474,17.1327 15.3553,44.5029 35.9355,82.1113 7.9396,106.1391 16.508,189.0865 25.7012,249.0508 9.0887,59.8599 3.4473,98.4083 -17.1328,115.541 -20.5801,17.1328 -53.071,30.1935 -97.5743,39.3867 -45.6523,9.0887 -70.7237,18.8023 -75.3203,29.1446 -4.5965,10.2379 2.819,16.5044 22.25,18.8027 19.4311,2.2983 96.9479,3.4492 232.7559,3.4492 19.4311,-18.2819 25.6996,-42.5178 18.8047,-72.709 -6.8948,-30.1911 -7.9413,-60.173 -3.4492,-89.8418 4.492,-26.4303 10.5525,-70.3092 17.8652,-131.9453 7.4173,-61.6358 -0.8357,-115.2265 -24.8633,-160.8789 l -18.8047,-316.6426 c 25.0723,-83.26072 16.5058,-162.0291 -25.6992,-236.20113 9.0887,-51.39807 18.8061,-114.07993 29.1484,-188.25195 10.2379,-74.17202 2.8184,-126.61369 -22.2539,-157.43164 -25.0721,-30.81796 -41.6815,-62.15986 -49.6211,-94.12696 34.2655,-14.83441 59.0252,-31.65286 74.4864,-50.45703 15.3568,-18.80418 23.0859,-49.93498 23.0859,-93.28906 0,-44.50321 -21.4152,-73.54816 -64.1426,-87.33789 -21.4159,-6.84263 -43.3803,-10.75971 -65.9062,-11.75195 z m -555.46878,15.82812 c 4.38764,2.6117 5.32749,5.01322 2.61133,7.20703 -2.61169,2.19382 -4.596,1.9867 -5.84961,-0.625 -1.35808,-2.61169 -0.20915,-4.80608 3.23828,-6.58203 z m 534.91598,13.89453 c 16.5451,0 35.3741,1.98335 56.4766,5.95313 42.2049,7.93954 63.3086,29.66945 63.3086,65.08398 0,36.56369 -11.3891,66.12745 -34.2676,89.00586 -22.8785,22.87842 -38.758,29.14699 -47.9512,18.80469 -9.0886,-10.23783 -3.6545,-26.2219 16.2989,-47.95117 19.9533,-21.72927 23.7148,-41.68201 11.0742,-59.85938 -12.5362,-18.28183 -36.5649,-18.28183 -71.875,0 -12.5362,-10.23783 -38.2346,-17.13264 -76.9922,-20.58007 3.4474,-21.6248 17.2371,-36.45991 41.1602,-44.50391 11.9616,-3.96978 26.2225,-5.95313 42.7675,-5.95313 z m -643.14449,31.86328 c 0.10447,1.25362 0.41812,2.61168 1.04492,4.07422 1.77596,4.38765 2.61133,9.81894 2.61133,16.40039 0,6.58146 4.1787,10.44661 12.43164,11.80469 8.25294,1.35808 18.49214,1.149 30.71484,-0.62695 4.38765,18.28183 1.56601,26.84831 -8.46289,25.49023 -10.13336,-1.46255 -27.16141,0.73092 -49.09961,10.96875 L 384.23438,343.2832 c 21.10245,-49.20425 39.59237,-91.20141 54.53124,-125.46679 23.71416,-7.93954 46.48879,-19.64047 69.36719,-23.08789 9.08868,-1.35809 4.80609,-17.86475 6.58203,-28.20704 2.29829,0 20.68349,-1.77368 32.69727,-2.81836 z m 538.94919,39.2793 c 36.5638,-1.14914 66.7566,4.5967 90.6797,17.13281 1.1492,14.83441 7.4158,15.35519 18.8028,1.66993 11.3869,-13.68526 23.0877,-18.49126 35.1015,-14.52149 12.0138,3.96977 14.5209,14.52356 7.7305,31.65625 -6.8949,17.13268 -16.8195,31.96584 -29.9824,44.50196 -13.1629,12.53611 -13.6857,37.08767 -1.6719,73.54687 12.0138,36.45921 29.9831,70.41071 53.9062,101.85547 23.9231,31.34029 29.9826,78.97597 17.9688,142.91016 -12.0138,63.93419 -21.9384,120.97468 -29.9824,171.11914 l -160.8809,20.58007 c -2.2983,-29.6688 -8.5669,-69.0535 -18.8047,-118.04882 l -0.6269,-3.13477 c 43.1451,-40.11557 89.5312,-90.36285 139.2578,-150.84961 18.073,-27.57945 15.5648,-49.30941 -7.836,-65.29297 -23.4007,-15.98354 -47.1158,-11.38669 -71.039,13.68555 -23.9231,27.68392 -51.5034,58.71022 -82.6348,93.08008 -1.567,-8.04401 -3.1332,-15.9833 -4.5957,-23.81836 -7.9395,-41.68259 -3.447,-69.05287 13.6856,-82.11133 17.1327,-13.16293 38.5499,-19.4315 64.1445,-18.80469 25.6991,0.52234 36.7696,-14.31275 33.3222,-44.5039 -3.4473,-30.19114 -18.8032,-41.36824 -46.1738,-33.32422 -27.3705,7.93953 -38.7578,0.52199 -34.2656,-22.25196 15.9835,-9.08868 21.4177,-15.67085 16.2988,-19.64062 -5.1189,-3.96978 -15.15,-5.95313 -29.9844,-5.95313 -1.1491,-6.89486 -8.5647,-12.53622 -22.25,-17.13281 10.2378,-29.6688 21.7275,-50.77052 34.2637,-63.30664 11.387,-5.74571 24.5524,-6.2704 39.3867,-1.67383 14.8344,4.59658 29.1468,7.41921 42.8321,8.56836 v -8.56836 c -10.2378,0 -22.5678,-2.82068 -36.7754,-8.5664 -14.3121,-5.74572 -28.2054,-5.74572 -41.8906,0 4.5966,-7.93954 8.5662,-14.31062 12.0136,-18.80274 z m 134.3438,9.34375 c -2.5661,0.0239 -5.4557,0.56726 -8.668,1.625 -8.5664,2.82063 -15.984,10.02905 -22.2519,21.41602 -6.2681,11.38698 -7.7306,19.43171 -4.2832,23.92383 -7.9395,3.44743 -12.2229,7.93788 -12.8497,13.68359 -0.5223,5.74571 2.8211,9.40274 10.2383,11.07422 7.4172,1.77595 16.5045,-3.34264 27.3692,-15.25195 10.8646,-12.01378 17.9685,-22.56562 21.416,-31.6543 3.4474,-9.08868 3.1357,-15.98349 -0.834,-20.58008 -2.4811,-2.87286 -5.8601,-4.27611 -10.1367,-4.23633 z m -2.1485,12.35156 c 3.8235,-0.11799 5.577,1.75072 5.2832,5.57032 -0.5224,6.89486 -3.4454,13.68521 -8.5644,20.58007 -5.1189,6.89487 -10.2385,12.01446 -15.3574,15.35743 -5.1189,3.44743 -5.3281,1.46211 -0.836,-5.95508 4.5966,-7.4172 4.5966,-9.71711 0,-6.89649 -4.5966,2.82063 -5.7455,1.15088 -3.4472,-5.11718 2.2982,-6.26806 5.7462,-12.85023 10.2382,-19.64063 5.4846,-2.51375 9.7098,-3.80668 12.6836,-3.89844 z m -122.8554,6.92188 c -7.1644,-0.0663 -13.7606,1.74522 -19.7871,5.4375 l -12.0137,12.01367 1.6719,8.56836 h 6.8945 c 18.2818,5.74572 37.0866,3.96954 56.5176,-5.11914 l 20.5801,1.67188 v -10.24024 h -18.8047 c -12.9017,-8.12562 -24.5876,-12.23512 -35.0586,-12.33203 z m -7.7735,7.21484 c -2.2983,4.59658 -1.6711,9.08897 1.6719,13.68555 -5.7457,-1.14915 -10.238,-2.30007 -13.6855,-3.44922 1.1492,-3.44744 5.1187,-6.89336 12.0136,-10.23633 z m 17.1348,1.67188 17.1328,8.56445 c -6.8949,1.14915 -13.7916,2.30007 -20.582,3.44922 5.7457,-2.2983 6.8966,-6.26795 3.4492,-12.01367 z m 82.0059,29.04101 c 4.5966,2.40276 5.2228,4.90985 1.7754,7.73047 -3.4474,2.82063 -5.7455,2.82063 -6.8946,0 -1.1492,-2.82062 0.5226,-5.43217 5.1192,-7.73047 z m -114.834,19.65235 c -0.1924,-0.003 -0.3927,0.0265 -0.6016,0.0918 -1.6715,0.52234 -1.9871,1.98491 -0.8379,4.28321 1.1491,2.29829 0.3138,4.28359 -2.6113,5.95508 -2.8206,1.67147 -5.4322,0.8361 -7.7305,-2.61133 -2.2982,-3.44744 -3.9681,-5.11914 -5.1172,-5.11914 -3.4474,0 -5.4347,0.52272 -5.957,1.67187 -0.5224,1.14914 -0.3113,2.82085 0.8379,5.11914 3.4474,-2.29829 6.8934,-1.46291 10.2363,2.61133 3.4475,3.96978 6.8954,4.80516 10.2383,2.61133 3.4475,-2.29829 4.8055,-5.43258 4.2832,-9.40235 -0.457,-3.47355 -1.3934,-5.18666 -2.7402,-5.21093 z m -14.2871,27.46484 c 3.9698,0.52234 9.4019,1.14758 16.2968,1.66992 6.8948,0.52234 9.7136,1.46219 8.5645,2.61133 l -29.1465,1.67188 c -2.2983,0.10447 -3.1336,-1.04351 -2.6113,-3.3418 0.5224,-2.2983 2.8222,-3.13367 6.8965,-2.61133 z m 23.0859,6.05664 c 0,2.2983 -2.6115,4.59625 -7.7305,6.89453 -5.1189,2.19383 -9.4021,3.34375 -12.8496,3.34375 -1.1491,1.14914 -2.6117,1.14914 -4.2832,0 -1.6715,-1.14915 -0.8361,-2.82084 2.6113,-5.11914 z m -74.0664,265.76758 c 0.9402,4.70105 1.9846,9.50604 3.0293,14.41602 C 992.02757,622.31575 973.22192,642.6886 953.37305,664 968.103,644.15115 985.44639,619.70457 1006.9668,588.46875 Z m 240.0664,233.9043 c 39.9066,36.56367 48.4731,103.21326 25.6992,200.26365 l 10.2364,186.5781 h -273.8086 l 82.1113,-364.59175 z" /></svg>
