<?xml version="1.0" encoding="UTF-8" standalone="no"?>
<svg
   width="1800"
   height="1800"
   version="1.1"
   id="svg4"
   sodipodi:docname="US9B3VARA.svg"
   inkscape:version="1.2.1 (9c6d41e410, 2022-07-14)"
   xmlns:inkscape="http://www.inkscape.org/namespaces/inkscape"
   xmlns:sodipodi="http://sodipodi.sourceforge.net/DTD/sodipodi-0.dtd"
   xmlns="http://www.w3.org/2000/svg"
   xmlns:svg="http://www.w3.org/2000/svg">
  <defs
     id="defs8" />
  <sodipodi:namedview
     id="namedview6"
     pagecolor="#ffffff"
     bordercolor="#666666"
     borderopacity="1.0"
     inkscape:showpageshadow="2"
     inkscape:pageopacity="0.0"
     inkscape:pagecheckerboard="0"
     inkscape:deskcolor="#d1d1d1"
     showgrid="false"
     inkscape:zoom="0.40735962"
     inkscape:cx="844.46269"
     inkscape:cy="896.01419"
     inkscape:window-width="1920"
     inkscape:window-height="1017"
     inkscape:window-x="-8"
     inkscape:window-y="-8"
     inkscape:window-maximized="1"
     inkscape:current-layer="svg4" />
  <path
     id="path6275"
     style="fill:#000000;stroke:none;stroke-width:86.2253"
     d="m 1087.5027,-4.8752395 c -89.33776,0 -145.80806,25.9933825 -169.58779,77.6365045 -4.17756,-5.564205 -4.7414,-13.949982 -1.85249,-25.092926 3.20575,-12.364804 2.77437,-22.144228 -1.34727,-29.471559 -4.12163,-7.327329 -15.79493,-9.2211155 -35.02905,-5.557493 -4.57961,0 -18.36239,5.944445 -41.26019,17.851343 -10.99094,3.663649 -16.50407,9.176742 -16.50407,16.504074 V 60.804233 L 835.73137,52.5522 c 16.48643,2.748088 28.80674,2.963392 37.04996,0.673682 8.24323,-2.28974 10.99978,1.113816 8.25202,10.272943 -2.74772,9.159078 -2.10065,18.291479 2.02092,27.450603 3.76607,8.369023 11.6133,15.235692 23.40884,20.545882 -6.70357,22.46557 -10.27294,50.80326 -10.27294,85.55172 -16.83268,32.46291 -25.09293,54.835 -25.09293,66.85834 0,6.01172 7.77848,9.57584 23.40885,10.77817 L 889.117,289.1667 c 2.40465,4.80939 5.96877,7.07315 10.77816,7.07315 -3.60706,6.01173 -4.25719,12.65827 -1.85246,19.87225 l 9.09407,1.85246 c -7.21403,32.46298 5.91085,48.67018 39.5761,48.67018 h 34.35538 c 1.20233,26.45122 11.41316,58.38399 30.65045,95.65627 -49.29563,0 -77.01399,16.85737 -83.02562,50.52265 -6.01171,33.66539 -9.57578,71.42601 -10.77817,113.50761 -10.82093,26.45138 -26.37805,55.71088 -46.81767,87.5727 -20.43959,31.86173 -1.31836,76.51 57.59584,134.22189 -9.61869,192.37304 -28.25818,288.65294 -55.91175,288.65294 -84.1632,18.035 -246.40385,84.8143 -486.87015,200.2382 -107.00747,57.7118 -122.0828,126.7551 -45.13358,207.3113 h 927.091 c 68.5329,2.4048 106.9439,-0.028 115.3602,-7.2412 h 27.1138 c 2.4048,-20.4395 -7.324,-33.0827 -28.9663,-37.8919 -3.6068,-10.8208 -19.8143,-15.5171 -48.6703,-14.3148 -51.7,-36.07 -72.1216,-67.3524 -61.3008,-93.8038 20.4396,-21.6421 30.0003,-43.6046 28.7979,-65.8478 -1.2019,-22.243 -19.8417,-29.1307 -55.9118,-20.7143 15.6304,-288.5596 21.6268,-480.95086 18.0199,-577.1374 h 61.4692 V 462.29106 c 0,-54.10488 -0.6463,-94.46628 -1.8522,-120.91759 l 86.5619,-18.01976 -16.3357,-54.05925 32.5029,-16.33566 c -27.6535,-68.53291 -55.8537,-114.72235 -84.7097,-138.76894 27.6537,-46.890955 20.3571,-70.394926 -21.7247,-70.394926 -37.2721,0 -48.615,18.639449 -34.187,55.911747 C 1257.5845,29.971469 1192.1056,-4.8752395 1087.5027,-4.8752395 Z M 879.6861,18.19678 c 10.99094,0.915946 15.90436,4.966519 14.98839,12.29385 -0.91591,7.32733 -4.75093,11.76207 -11.62022,13.135896 -6.86941,1.373828 -14.27637,2.667985 -22.06156,4.041813 -7.78529,1.374432 -15.23947,1.589565 -22.5668,0.673679 l 17.85135,-4.041857 -6.90477,-11.114987 c 0,-1.831858 0.86271,-2.694544 2.69454,-2.694544 10e-6,3.66363 1.03108,5.988878 2.86294,6.904764 1.83186,0.915974 2.69454,0.484591 2.69454,-1.347271 0.91591,-2.747744 -0.37848,-5.072915 -4.04182,-6.904763 14.65463,-7.327331 23.35567,-10.946579 26.10341,-10.94658 z m -23.40884,26.103381 c 17.40237,-1.831857 26.10338,-3.294248 26.10338,-4.210221 0,-1.831857 -1.46246,-2.694542 -4.21022,-2.694542 -1.83185,0 -3.9886,0.215654 -6.73634,0.673683 -2.74775,0.457944 -4.6416,1.105021 -5.55749,2.020906 v 1.347272 c 4.57952,-1.831772 7.98318,-2.263157 10.27294,-1.347272 2.2898,0.915973 -4.3017,2.378407 -19.87227,4.210174 z m 20.54588,-22.061567 c -2.74774,1e-6 -4.4732,1.893879 -5.38908,5.557492 0.9159,3.663629 3.07264,5.389085 6.73635,5.389085 3.66363,0 5.55748,-1.725456 5.55748,-5.389085 0,-3.66363 -2.32515,-5.557492 -6.90475,-5.557492 z m 23.40884,2.862949 c 8.24323,0 9.92137,9.563783 4.88389,28.797923 -3.50342,13.37672 -0.7019,23.182889 8.42042,29.471561 -1.38908,3.944379 -2.65212,7.916694 -3.70501,12.125444 -13.86281,-5.636654 -18.92199,-15.497377 -15.15679,-29.303152 5.49546,-20.150025 7.38935,-33.76444 5.55749,-41.091776 z m 177.33462,3.873407 c 106.1036,2.030996 163.3854,24.683691 181.208,105.08715 18.035,64.9259 27.1138,174.33056 27.1138,328.22896 V 685.93809 H 1087.5027 V 276.53604 c 7.214,-12.02335 17.4247,-28.88072 30.6504,-50.52267 13.2256,-21.64198 19.8722,-43.36387 19.8722,-65.00584 0,-16.38873 -8.3309,-26.66123 -24.9245,-30.65042 z m -35.3659,3.704997 35.1974,100.203293 c -8.9622,5.21261 -14.6591,15.09228 -17.0093,29.97679 0,-24.04666 -10.4516,-39.36281 -31.4924,-45.97563 -21.0408,-6.61282 -51.43228,-9.28602 -91.10923,-8.08363 17.93735,-48.436203 38.09188,-70.344877 104.41353,-76.120823 z m 276.0222,36.376323 c 14.4281,-10e-7 13.9463,13.293193 -1.684,39.7445 -13.2257,-26.451307 -12.7438,-39.744501 1.684,-39.7445 z m -344.39623,66.52151 c 13.22565,0.45098 25.86869,2.66031 37.89203,6.56796 24.0466,7.81521 36.0395,24.2633 36.0395,49.51223 h 30.6504 c 0,-21.64198 5.3462,-32.33451 16.1672,-32.33451 9.6187,0 14.4832,5.99636 14.4832,18.01974 0,10.82096 -7.5376,25.72786 -22.5668,44.96518 -15.029,19.23732 -26.7811,35.4445 -35.1974,48.67017 v 456.38812 h 162.3462 c 3.6068,97.38887 -1.7392,295.77673 -16.1673,595.15713 -13.2257,98.5911 -63.7979,144.7806 -151.568,138.7689 -93.78185,-6.0116 -190.78436,-22.2188 -291.17901,-48.6702 -100.39465,-26.4513 -214.42293,-2.9472 -341.87008,70.3949 -22.84428,10.8211 -40.42431,3.9336 -53.0488,-20.7142 -12.6245,-24.6479 8.68812,-53.2571 63.99538,-85.7202 222.43128,-111.8166 388.88636,-179.728 499.5008,-203.7747 21.64198,0 41.58177,-115.4012 59.61676,-346.24878 -30.05834,-13.22565 -54.2125,-40.944 -72.24741,-83.02559 25.24897,-39.6769 42.75653,-76.9559 52.37516,-111.82351 2.40465,-45.68858 5.07781,-78.3439 8.08363,-98.18239 3.0059,-19.83846 16.53991,-30.45855 40.58657,-31.66088 20.4396,0 30.6504,-10.86097 30.6504,-32.50291 0,-24.0466 -4.8646,-42.51769 -14.4832,-55.74336 -9.6187,-13.22564 -15.6151,-36.07945 -18.0197,-68.54241 h -54.05928 c -18.03492,0 -27.11384,-5.51472 -27.11384,-16.33567 0,-16.83261 8.42871,-26.39322 25.26134,-28.79793 0,-9.6186 -2.91398,-14.48316 -8.92568,-14.48316 h -32.50291 c 7.21403,-14.42796 0.5673,-23.98857 -19.87225,-28.79792 1.20233,-8.41637 10.28116,-28.35617 27.11383,-59.61676 0,-22.8443 4.21435,-41.96549 12.63067,-57.59584 14.42796,-3.00582 28.20296,-4.32429 41.42859,-3.87341 z m 358.87933,3.87341 61.301,100.87694 -14.3149,7.24158 z m -30.6503,1.68406 c 36.07,55.30719 58.9237,107.6615 68.5424,156.95711 l -37.8921,5.38908 z m -335.47061,11.28343 c -15.63029,0.30056 -28.27337,4.96044 -37.89201,13.97793 v 16.33566 c 22.8443,-19.23723 54.12685,-21.01937 93.80372,-5.38908 h 14.4832 v -12.63067 h -14.4832 c -21.6419,-8.41633 -40.2814,-12.59442 -55.91171,-12.29384 z m 3.70501,23.07202 c -22.84427,0 -37.26943,9.07889 -43.28108,27.11383 l 1.68406,7.07315 10.94658,-1.68406 c 6.01172,4.8093 13.79021,6.59141 23.40884,5.38908 9.61863,0 28.73988,-5.99645 57.5958,-18.01975 l 16.3357,1.68407 v -8.92566 h -16.3357 C 995.39543,179.70505 978.70641,175.4907 970.2901,175.4907 Z m 3.53662,10.77817 c 10.82102,0 20.38168,2.43233 28.79788,7.24155 -6.01167,2.40473 -16.22244,5.96886 -30.65038,10.77817 3.60698,-3.60698 5.38909,-7.1711 5.38909,-10.77817 0,-2.40465 -1.13198,-4.8369 -3.53659,-7.24155 z m -18.01976,1.85247 c -1.20232,1.20232 -1.85246,3.63465 -1.85246,7.24154 0,2.40466 2.43224,5.31873 7.24155,8.92567 -6.01163,1e-5 -13.79014,-1.13196 -23.40883,-3.53662 7.21404,-8.41637 13.21047,-12.63078 18.01974,-12.63059 z M 493.46868,1554.7597 c -16.32823,0.7764 -25.05224,10.4315 -25.93497,28.9663 -1.00875,21.1825 8.62405,32.843 28.79792,34.8606 20.17387,1.0088 31.3273,-9.131 33.34496,-30.3136 1.00866,-21.1824 -8.62406,-32.1677 -28.79791,-33.1765 -2.64781,-0.2501 -5.07739,-0.4487 -7.40995,-0.3363 z m 473.90265,0.3362 c -15.66628,1.5443 -24.50654,11.6105 -26.27178,30.1452 -1.00876,21.1826 9.13099,32.336 30.3136,33.345 20.17385,2.0176 30.82055,-7.6155 31.82925,-28.798 1.0088,-21.1825 -8.624,-32.6746 -28.79788,-34.6922 -2.52175,-0.1292 -4.83518,-0.2238 -7.07319,0 z m 306.05477,0 c -16.4385,1.5443 -25.5167,11.6105 -27.2823,30.1452 -1.0088,21.1826 9.1311,32.336 30.3136,33.345 20.174,2.0176 30.6522,-7.6155 31.661,-28.798 2.0177,-21.1825 -6.9402,-32.6746 -27.1139,-34.6922 -2.6479,-0.1292 -5.2304,-0.2238 -7.5784,0 z m -545.19541,1.5158 c -15.66629,1.5443 -24.33814,11.6106 -26.10339,30.1452 -1.00866,21.1827 9.13106,32.3361 30.31362,33.345 20.17383,2.0176 30.65212,-7.6155 31.66087,-28.7979 1.00874,-21.1826 -8.62403,-32.6746 -28.79792,-34.6923 -2.52175,-0.1292 -4.83518,-0.2238 -7.07318,0 z m -227.35201,87.7411 c -21.18263,-1.0088 -32.33614,8.9626 -33.34497,30.1451 -1.00875,21.1827 8.62405,32.3362 28.79792,33.345 20.17387,2.0177 31.3273,-7.6154 33.34496,-28.7979 1.00866,-21.1825 -8.62406,-32.6746 -28.79791,-34.6922 z m 466.49265,1.5158 c -15.66628,1.5443 -24.50654,11.6105 -26.27178,30.1452 -1.00876,21.1825 9.13099,32.3361 30.3136,33.3449 20.17385,2.0178 30.82055,-7.6154 31.82925,-28.7978 1.0088,-21.1826 -8.624,-32.6746 -28.79788,-34.6923 -2.52175,-0.1293 -4.83518,-0.2239 -7.07319,0 z m 306.05477,0 c -16.4385,1.5443 -25.5167,11.6105 -27.2823,30.1452 -1.0088,21.1825 9.1311,32.3361 30.3136,33.3449 20.174,2.0178 30.6522,-7.6154 31.661,-28.7978 2.0177,-21.1826 -6.9402,-32.6746 -27.1139,-34.6923 -2.6479,-0.1293 -5.2304,-0.2239 -7.5784,0 z m -545.19541,1.5159 c -15.66629,1.5443 -24.33814,11.6104 -26.10339,30.1451 -1.00866,21.1826 9.13106,32.3362 30.31362,33.345 20.17383,2.0178 30.65212,-7.6153 31.66087,-28.7979 1.00874,-21.1826 -8.62403,-32.6746 -28.79792,-34.6922 -2.52175,-0.1293 -4.83518,-0.2239 -7.07318,0 z m -227.35201,87.741 c -21.18263,-1.0088 -32.33614,8.9627 -33.34497,30.1452 -1.00875,21.1826 8.62405,32.3362 28.79792,33.345 20.17387,2.0177 31.3273,-7.6154 33.34496,-28.798 1.00866,-21.1826 -8.62406,-32.6745 -28.79791,-34.6922 z m 473.56584,1.5159 c -20.1739,-1.0089 -31.32756,8.9626 -33.34497,30.1452 -1.00876,21.1825 9.13099,32.3361 30.3136,33.345 20.17385,2.0176 30.82055,-7.6155 31.82925,-28.7981 1.0088,-21.1825 -8.624,-32.6744 -28.79788,-34.6921 z m 306.55998,0 c -21.1825,-1.0089 -32.8429,8.9626 -34.8607,30.1452 -1.0088,21.1825 9.1311,32.3361 30.3136,33.345 20.174,2.0176 30.6522,-7.6155 31.661,-28.7981 2.0177,-21.1825 -6.9402,-32.6744 -27.1139,-34.6921 z m -545.70063,1.5158 c -20.17389,-1.0088 -31.15915,8.9626 -33.17657,30.1452 -1.00866,21.1826 9.13106,32.3362 30.31362,33.345 20.17383,1.0088 30.65212,-9.1311 31.66087,-30.3137 1.00874,-21.1825 -8.62403,-32.1676 -28.79792,-33.1765 z"
     sodipodi:nodetypes="scssccsccsssccscccccsccscsccccccccccccccscccccscscsscccccsccccsssccscscssscsccscccscccsscccccsccscsssccssscccccscscccccscsscsscsccccsccccccccsccccccssccccccccscccsccsccccsccccccccscccccccccccscccsccccccscccccccccccscccsccccccsccccccsccss" />
</svg>
