<?xml version="1.0" encoding="UTF-8" standalone="no"?>
<!-- Created with Inkscape (http://www.inkscape.org/) -->

<svg
   width="1076.2064"
   height="1797.7889"
   viewBox="0 0 1076.2064 1797.7889"
   version="1.1"
   id="svg10448"
   xmlns="http://www.w3.org/2000/svg"
   xmlns:svg="http://www.w3.org/2000/svg">
  <defs
     id="defs10445" />
  <path
     style="fill:#000000;stroke:none;stroke-width:103.08"
     d="M 975.43712,638.41939 V 420.50558 c 0,-143.00591 -16.1733,-243.45056 -48.52,-301.33394 C 894.57057,61.28826 837.25473,32.06282 754.96958,31.49533 672.68444,30.92784 627.56947,58.4508 619.62466,114.06422 c 36.319,-5.67484 64.12574,-3.97237 83.42023,5.10742 19.29441,9.07971 29.50911,22.13183 30.64409,39.15635 4.53986,-22.69936 15.88954,-33.48155 34.04904,-32.34656 26.10431,-4.53986 39.44017,4.82364 40.00759,28.09049 0.56749,23.26685 -5.39109,44.83122 -17.87575,64.69313 -12.48466,19.86191 -22.69936,35.4677 -30.6441,46.81738 V 638.41939 Z M 682.61542,331.97814 c 6.80983,36.31893 19.29446,59.01826 37.45389,68.09797 h 5.10741 v -139.601 l 47.66862,-74.90786 c 5.67491,-20.4294 3.40498,-30.6441 -6.80979,-30.6441 -10.2147,0 -17.02452,10.2147 -20.42946,30.6441 h -23.83431 c 0,-22.69936 -11.34965,-37.7377 -34.04894,-45.11501 -22.69936,-7.37725 -38.58893,-9.64718 -47.66871,-6.80979 -9.07972,2.83745 -20.4294,5.95862 -34.04904,9.3635 -3.40488,10.21469 -5.10732,26.10423 -5.10732,47.66861 -15.88954,29.50918 -23.83431,48.23617 -23.83431,56.18098 18.15943,4.53986 23.83427,13.61958 17.02452,27.23915 h 32.34657 c 4.53986,1.13498 6.80979,5.67487 6.80979,13.61968 -14.75463,2.26989 -22.6994,11.34964 -23.83431,27.23925 0,11.34968 8.51226,17.02452 25.53678,17.02452 z m 28.94163,-170.2452 v 10.21473 h -13.61958 c -37.45391,-13.61964 -66.3956,-11.9172 -86.82507,5.10732 l -1.70237,-15.32205 c 19.29441,-17.02452 48.80356,-17.59201 88.52744,-1.70247 z m 1.70257,20.42936 v 8.51226 l -15.32215,-1.70237 c -28.3742,11.34968 -47.10116,17.02452 -56.18087,17.02452 -7.94481,1.13491 -15.32212,-0.56756 -22.13194,-5.10742 l -10.21463,1.70248 -1.70247,-6.80979 c 6.80982,-17.02452 20.99692,-25.53678 42.5613,-25.53678 7.94473,0 23.83427,3.97237 47.66861,11.9171 z m -34.04914,5.10742 c -7.94473,-3.40495 -16.45696,-5.67491 -25.53668,-6.80989 1.13491,2.26996 1.70237,5.10741 1.70237,8.51236 0,2.26989 -1.70244,5.10731 -5.10731,8.51226 14.75455,-3.40495 24.40176,-6.80986 28.94162,-10.21473 z m -42.5613,-5.10742 c -5.67477,0 -11.91707,3.9724 -18.72689,11.91721 9.07972,3.40487 16.457,4.53985 22.13184,3.40494 -4.53986,-2.26996 -6.80979,-5.10738 -6.80979,-8.51226 0,-3.40495 1.13495,-5.67491 3.40484,-6.80989 z m 88.52754,277.49963 c -37.45391,0 -69.80048,8.51226 -97.0397,25.53678 v 69.80056 c 32.91406,57.88338 29.50915,103.84959 -10.21473,137.89863 5.67484,28.3742 26.67173,57.31586 62.99066,86.82497 3.40488,69.23302 -9.07975,125.69772 -37.45388,169.39392 -28.3742,43.6963 -57.31589,105.83581 -86.82507,186.41851 -177.05495,54.4785 -317.79097,106.1195 -422.20805,154.9231 -53.343449,30.6441 -72.637899,57.0321 -57.883349,79.164 14.75455,22.1319 30.644089,29.2254 47.668609,21.2806 120.30663,-69.233 227.84484,-91.3648 322.61465,-66.3955 94.76981,24.9693 186.41845,40.2913 274.94592,45.9661 81.71772,5.6749 128.81891,-38.5888 141.30358,-132.7912 3.40487,-228.1286 24.96923,-415.39821 64.69306,-561.80902 H 725.17672 Z M 362.55449,1447.084 v 205.9966 c -38.58889,71.503 -35.18398,107.2545 10.21473,107.2545 44.26374,0 47.66865,-35.7515 10.21474,-107.2545 V 1447.084 Z m 199.18682,0 v 205.9966 c -37.45391,71.503 -34.049,107.2545 10.21474,107.2545 45.39872,0 48.80363,-35.7515 10.21473,-107.2545 V 1447.084 Z m 246.85554,0 v 173.6501 c 36.31901,82.8526 45.6825,133.0749 28.09049,150.6669 -17.59201,17.5919 -38.87268,26.3879 -63.842,26.3879 -26.10424,0 -47.95236,-8.796 -65.54437,-26.3879 -17.59201,-17.592 -8.22852,-67.2468 28.09049,-148.9645 V 1447.084 H 609.41003 v 173.6501 c 36.31893,82.8526 45.6824,133.0749 28.09039,150.6669 -17.59201,17.5919 -39.44014,26.3879 -65.54437,26.3879 -24.96926,0 -46.24989,-8.796 -63.8419,-26.3879 -17.59201,-17.592 -8.79601,-67.2468 26.38801,-148.9645 V 1447.084 H 408.52074 v 173.6501 c 36.31893,82.8526 45.68239,133.0749 28.09038,150.6669 -17.59201,17.5919 -38.87264,26.3879 -63.8419,26.3879 -26.10423,0 -47.95236,-8.796 -65.54437,-26.3879 -17.59201,-17.592 -8.22854,-67.2468 28.09039,-148.9645 V 1447.084 H 54.410771 c -85.1226,-70.3681 -70.36805,-135.0612 44.26366,-194.0795 145.275949,-69.233 282.607049,-120.3065 411.993319,-153.2206 30.64417,-63.5582 59.30211,-115.76671 85.97384,-156.62561 26.67173,-40.8589 38.30515,-90.7975 34.90028,-149.8158 -55.61342,-46.53365 -66.39561,-99.87714 -32.34657,-160.03041 0,-82.26409 -33.18778,-55.28798 -7.33493,-151.5945 7.08666,-26.39906 63.51584,-57.80713 107.77957,-61.212 -14.75455,-13.61965 -24.96925,-25.53682 -30.64409,-35.75151 -5.67491,-10.2147 -9.07982,-21.56438 -10.21473,-34.04904 h -32.34657 c -31.77915,0 -43.69632,-15.32205 -35.75151,-45.96614 l -10.21473,-1.70248 c -1.13499,-5.67484 -0.5675,-11.91717 1.70247,-18.72699 -4.53986,0 -7.94477,-2.26993 -10.21473,-6.80979 l 6.80978,-11.9172 c -15.88953,-1.13491 -23.8343,-5.10728 -23.8343,-11.9171 0,-11.34968 8.51226,-31.77911 25.53678,-61.2883 -2.2699,-15.88953 -1.70241,-32.91405 1.70247,-51.07356 C 594.65544,47.10116 650.26886,0 749.01103,0 c 98.74217,0 167.40774,33.48155 205.99669,100.44465 38.5889,66.96309 57.31588,173.65007 56.18088,320.06093 v 134.49369 l 1.7029,120.87411 h -39.15648 c -39.7239,145.27591 -59.5858,322.89831 -59.5858,532.86732 30.6441,3.4051 44.2638,15.3222 40.8589,35.7515 -3.4049,20.4295 -10.2147,39.7239 -20.4294,57.8834 -11.3497,24.9692 11.3496,54.4783 68.09798,88.5274 27.2393,0 41.9938,5.1074 44.2637,15.3222 21.5645,3.4051 31.2117,14.7547 28.9417,34.0489 h -25.5367 c -7.9447,7.9449 -47.6686,10.2147 -119.17158,6.8095 z m -47.66861,0 v 205.9966 c -37.45399,71.503 -33.48162,107.2545 11.9171,107.2545 44.26374,0 47.66865,-35.7515 10.21473,-107.2545 V 1447.084 Z"
     id="path1624" />
</svg>
