<?xml version="1.0" encoding="UTF-8" standalone="no"?>
<!-- Created with Inkscape (http://www.inkscape.org/) -->

<svg
   width="1255.6975"
   height="1799.6738"
   viewBox="0 0 1255.6975 1799.6738"
   version="1.1"
   id="svg10448"
   xmlns="http://www.w3.org/2000/svg"
   xmlns:svg="http://www.w3.org/2000/svg">
  <defs
     id="defs10445" />
  <path
     id="path5379"
     style="fill:#000000;stroke:none;stroke-width:100.03"
     d="M 966.03033,0 C 881.6856,0 834.95339,33.10613 825.83502,99.31641 c -5.69896,21.68961 -8.54883,47.37423 -8.54883,77.05468 -12.53776,29.68044 -18.80664,49.65957 -18.80664,59.9336 0,6.84932 6.26888,10.27343 18.80664,10.27343 l -5.12891,11.98438 c 1.13979,4.56622 3.98971,6.85156 8.54883,6.85156 -2.27958,6.84937 -2.84877,12.55488 -1.70898,17.1211 l 6.83789,1.71484 c -5.69896,28.53889 4.56017,42.80859 30.77539,42.80859 h 27.35547 c 0,23.97272 10.25711,46.23125 30.77343,66.7793 -34.19381,54.79468 -53.00047,119.29303 -56.41992,193.49414 -0.51203,14.53004 -0.73629,26.6742 -1.05664,39.61719 -29.41724,-4.3401 -74.63223,-5.23426 -136.85742,-2.42188 -65.27515,2.94797 -108.70504,1.71137 -130.28516,-3.70898 -18.84125,-4.97047 -39.77355,-7.86121 -61.91601,-9.54688 L 364.82135,177.72461 c -10.25809,-22.83116 -23.93431,-24.54517 -41.03125,-5.13867 l -206.875,575.34765 141.90625,49.65823 104.29101,-496.5801 117.4707,309.03125 c -19.03554,0.43573 -38.70878,1.5061 -59.7539,3.94141 -0.97627,9.41595 9.67263,15.36848 31.94531,17.85546 l 18.32227,38.25782 c 13.1486,12.74488 31.60316,17.8695 55.36328,15.37695 31.18287,-6.6452 63.57399,-13.23776 97.17383,-19.77734 121.68977,15.80143 191.41751,21.31421 232.83203,17.35156 -0.05,40.03833 1.21774,69.1776 4.00976,85.68555 -39.53251,-9.82596 -87.52227,1.41967 -120.85547,7.01757 -36.21039,6.08107 -78.56437,13.97448 -136.14257,10 -9.45312,-9.53796 -21.05479,-19.47195 -34.80469,-29.80468 -6.01567,-5.56394 -13.75002,-10.33412 -23.20313,-14.3086 -7.73421,-2.38574 -18.69151,-3.97361 -32.87109,-4.76758 -14.18,-0.79477 -26.42591,-3.18022 -36.73828,-7.15429 -4.29717,0 -7.51975,0.59427 -9.66797,1.78711 -2.1482,1.19249 -2.36539,3.7759 -0.64844,7.75 -2.57947,0 -3.86914,0.9956 -3.86914,2.98242 0,1.98682 0.43054,3.77541 1.28906,5.36719 -2.57941,0.79396 -3.86914,2.18305 -3.86914,4.16992 0,1.98687 0.85727,3.37985 2.57422,4.17383 -2.57538,0 -4.07851,1.58783 -4.50976,4.76757 -0.43167,3.18001 1.50211,5.16693 5.79882,5.96094 17.18787,1.58801 30.93763,2.58354 41.25,2.98242 10.31245,0.39735 24.06267,5.3644 41.25,14.90235 3.43789,2.38574 4.94103,4.17628 4.50977,5.36914 -0.42718,1.19284 -2.35901,1.39161 -5.79687,0.59765 -4.29683,-1.5895 -10.74398,-5.16657 -19.3379,-10.73046 -6.87495,-3.17971 -13.10541,-4.76954 -18.6914,-4.76954 -5.58603,0 -8.37891,1.98492 -8.37891,5.95899 0,3.97221 4.72657,6.75599 14.17969,8.34765 6.87537,3.97404 16.32847,10.13454 28.35937,18.48044 12.03138,8.3463 27.93169,10.9298 47.69727,7.75 l 56.71875,9.5371 c 82.89159,5.421 143.19634,-8.0876 220.62891,6.9004 0.24376,21.7702 -0.31953,47.2063 -1.89844,77.252 -540.26817,110.18788 -534.53377,110.33718 -541.97461,263.70118 -13.67753,111.8726 -37.0436,246.0094 -70.09766,402.4023 -6.83871,36.5301 -16.81224,68.2069 -29.91992,95.0332 -13.1076,26.8266 -69.24223,50.5143 -168.4043,71.0625 -36.47341,12.5572 -54.1397904,31.9652 -53.00000038,58.2207 H 316.34478 c 35.33365,-3.4247 54.99507,-13.9855 58.98438,-31.6797 3.98925,-17.6941 1.14142,-36.2439 -8.54688,-55.6503 -9.68822,-19.4064 -7.69506,-64.499 5.98242,-135.2754 75.22643,-151.8269 111.70147,-263.701 109.42188,-335.6192 4.51803,-33.4577 11.76037,-33.4211 15.38672,-58.4453 l 521.1504,-1.459 c 4.1372,13.3625 0.863,46.7186 3.5879,68.4668 0,59.3609 16.528,119.2924 49.582,179.7949 33.054,60.5025 52.4299,99.8874 58.1289,118.1524 -1.1398,30.8217 -12.5371,81.6216 -34.1933,152.3984 v 15.4121 c -27.3552,14.8403 -41.0332,27.3978 -41.0332,37.6719 0,7.991 4.5594,23.3992 13.6777,46.2305 h 99.1621 c 0,-23.9729 10.259,-45.6618 30.7754,-65.0684 v -22.2597 c 4.5592,5.7077 10.5426,10.8439 17.9512,15.4101 7.4085,4.5662 13.1082,5.4221 17.0976,2.5684 3.9894,-2.8539 5.1279,-8.2767 3.418,-16.2676 -1.7099,-7.9909 -4.2744,-15.9823 -7.6934,-23.9727 h 3.42 c -19.3764,-29.6806 -29.0645,-70.2063 -29.0645,-121.5761 0,-33.1053 3.9881,-73.0573 11.9668,-119.8614 h -25.6445 c -11.3981,-31.9632 -17.0977,-65.6408 -17.0977,-101.0293 0,-46.6488 0.6127,-84.4331 10.5938,-111.0625 6.9724,-18.6023 19.086,-36.6167 28.3222,-54.7791 15.6217,-0.9272 17.4053,3.2552 32.4887,-1.7597 14.9584,-10.6715 8.6361,-29.4843 10,-44.9199 l 1.5215,-287.34578 c 0.2937,-10.6855 -9.3145,-20.2937 -20,-20 -38.2155,1.2692 -40.6434,-3.1516 -77.3813,8.9317 -25.5696,11.5162 -16.502,45.6055 -19.9179,68.0898 -2.3082,56.1179 1.7229,113.87278 -15.5547,168.08788 -6.4538,19.1717 -21.6697,35.9896 -42.834,37.0078 -2.855,0.4844 -5.7169,0.8685 -8.584,1.2012 6.5981,-5.8974 13.8706,-16.8257 16.7949,-17.6602 27.6189,-33.7622 34.4451,-85.7931 19.7227,-156.75388 6.8385,-106.1648 11.967,-203.19777 15.3867,-291.09763 h 66.6778 v -234.5918 c 0,-143.8361 -16.8115,-248.29064 -50.4356,-313.35937 C 1105.9414,32.53479 1048.0955,0 966.03033,0 Z m 3.41992,28.25391 c 72.94675,0.57074 123.09795,32.24755 150.45315,95.0332 27.3552,62.78558 40.4641,158.67988 39.3242,287.67578 v 196.91992 h -37.6133 c 0,-158.67653 -19.3781,-238.30242 -58.1308,-238.87304 -38.7532,-0.57081 -58.1289,16.26892 -58.1289,50.51562 V 607.88281 H 966.03033 V 248.28906 c 6.83878,-10.27396 17.9527,-25.11303 33.33984,-44.51953 15.38733,-19.40642 23.08013,-38.8142 23.08013,-58.2207 0,-19.40643 -13.107,-29.10938 -39.32231,-29.10938 -13.67753,0 -22.22703,10.27234 -25.64649,30.82032 0,-21.68953 -10.25726,-35.3859 -30.77344,-41.09375 -20.51632,-5.70774 -46.16303,-7.99116 -76.9375,-6.84961 6.83883,-47.9454 46.73292,-71.63332 119.67969,-71.0625 z m -90.1875,95.89062 c 11.11301,0.5708 22.36963,2.56946 33.76758,5.99414 22.79583,6.8493 34.19336,21.119 34.19336,42.8086 h 22.22656 c 0,-19.4065 4.55937,-29.10938 13.67774,-29.10938 10.25816,0 15.38672,5.13612 15.38671,15.41016 0,10.27402 -8.264,23.68763 -24.79101,40.24023 -16.527,16.55251 -28.7793,31.67827 -36.75781,45.37695 V 371.57812 C 918.72915,359.02098 909.61041,338.47249 909.61041,309.93359 H 863.4483 c -13.6776,0 -20.51563,-5.13612 -20.51563,-15.41015 0,-14.84026 6.83803,-23.40242 20.51563,-25.68555 0,-7.99089 -2.27871,-12.55571 -6.83789,-13.69727 h -25.64649 c 5.69898,-12.55709 0.5704,-21.12132 -15.38672,-25.6875 0,-6.84936 6.83809,-24.54313 20.51563,-53.08203 0,-19.4065 3.42101,-35.95954 10.25977,-49.6582 10.82801,-2.2831 21.79715,-3.13912 32.91015,-2.56836 z m -6.41015,14.12695 c -11.96787,0.28541 -21.94131,4.42315 -29.91993,12.41407 v 13.69922 c 17.09699,-15.98177 41.03222,-17.12448 71.80664,-3.42579 h 13.67774 v -11.98437 h -13.67774 c -15.95711,-7.4201 -29.91889,-10.98853 -41.88671,-10.70313 z m 2.56445,19.26563 c -17.09687,0 -28.49437,7.99085 -34.19336,23.97266 l 1.70898,6.84765 h 8.54883 c 4.55918,3.42469 10.25691,4.56733 17.0957,3.42578 7.97862,0 23.36624,-5.1381 46.16211,-15.41211 h 13.67774 v -6.84961 h -13.67774 c -19.37653,-7.99089 -32.48349,-11.98437 -39.32226,-11.98437 z m 3.41992,10.27344 c 6.83871,0 14.24605,2.28141 22.22461,6.84765 -4.55917,1.14156 -12.5376,3.42691 -23.93555,6.85157 2.27958,-2.28311 3.41992,-4.56846 3.41993,-6.85157 0,-2.2831 -0.5692,-4.56448 -1.70899,-6.84765 z m -13.67773,1.71093 c -1.13979,0 -1.71094,2.28333 -1.71094,6.84961 0,1.14156 1.14033,2.85557 3.41992,5.13868 -3.41939,1.1415 -9.11904,0.56826 -17.09766,-1.71485 5.69897,-6.8494 10.82943,-10.27344 15.38868,-10.27344 z M 334.04791,253.06641 231.46588,747.93359 163.0772,727.38477 c 1e-5,1.14149 56.9913,-156.9657 170.97071,-474.31836 z m 720.18949,158.32421 c 2.8845,-0.28538 6.2496,0.71491 10.0957,2.99805 15.3873,9.1324 23.082,86.18641 23.082,231.16406 -2.2796,87.89987 -5.6986,152.97129 -10.2578,195.20899 -4.5558,44.5207 -4.2696,98.1735 0.8594,160.95898 5.1291,62.7858 -35.0507,100.4564 -120.5352,113.0137 H 506.12213 c -36.47344,0 -54.71094,18.8362 -54.71094,56.5078 2.27959,116.4388 -30.77452,239.7278 -99.16211,369.8652 -22.79591,81.0504 -29.0648,139.5565 -18.80664,175.5156 10.25816,35.9589 -2.85082,53.9395 -39.32422,53.9395 l -205.16211,1.7129 c -35.33362,1.1415 -28.49554,-4.5661 20.51563,-17.1231 68.3876,-13.6987 113.97949,-35.1031 136.77539,-64.2128 22.79579,-29.1095 36.47397,-67.6363 41.0332,-115.5821 21.65612,-119.8635 45.59147,-254.5716 71.80664,-404.1152 -5.69892,-67.3518 21.08813,-109.0185 80.35742,-125 181.22715,-58.21958 335.10008,-91.32558 461.61719,-99.31638 2.2796,-91.3246 0.85567,-149.8307 -4.27344,-175.51566 -5.12905,-25.68505 -5.41466,-77.6257 -0.85547,-155.82227 4.55917,-78.19667 18.23731,-142.41219 41.03321,-192.64062 V 645.55273 H 1041.2569 V 448.63477 c 0,-23.97274 4.3269,-36.38799 12.9805,-37.24415 z m 161.4535,456.7598 -1.5215,274.54298 c -15.753,2.2447 -28.3372,12.6365 -41.0726,36.5019 -19.516,49.4801 -29.3965,105.5642 -29.3965,168.418 0,42.2377 8.5495,83.3345 25.6465,123.289 h 13.6777 c -5.6993,30.8218 -8.5488,64.4994 -8.5488,101.0293 0,35.3885 5.6977,70.7777 17.0957,106.1661 l -61.5489,11.9843 c 17.0971,-63.9274 25.6465,-113.0133 25.6465,-147.2597 0,-15.9819 -16.8135,-53.9391 -50.4375,-113.8711 -33.5755,-59.8451 -50.3773,-169.8981 -50.4258,-247.5059 l 22.1875,-0.062 c 76.715,-15.6492 82.9147,-76.8706 91.6192,-124.416 11.7743,-61.00418 7.2228,-123.52458 11.6894,-185.18168 23.6893,-5.4314 11.2008,-2.6993 35.3891,-3.6347 z" />
</svg>
