<?xml version="1.0" encoding="UTF-8" standalone="no"?>
<svg
   width="1012.9434"
   height="1799.8329"
   version="1.1"
   id="svg5116"
   xml:space="preserve"
   xmlns="http://www.w3.org/2000/svg"
   xmlns:svg="http://www.w3.org/2000/svg"><defs
     id="defs5120" /><path
     style="fill:#000000;stroke:none;stroke-width:96.0509"
     d="M 663.03912,909.5438 V 673.51365 c -33.127,104.90232 -50.7257,211.18488 -52.7962,318.84769 -2.0705,107.66296 -27.2608,218.77646 -75.571,333.34086 -13.803,57.9723 -41.40887,72.4653 -82.81762,43.4792 L 373.17761,1269.8002 161.9927,955.09347 c -13.80293,-23.46494 -35.54254,-29.67626 -65.218829,-18.63394 -29.67628,11.04231 -40.37354,31.74669 -32.09179,62.11312 L 222.03545,1468.5624 c 35.88763,85.5782 51.41593,145.9662 46.5849,181.1636 -4.83103,35.1975 -14.83814,60.3879 -30.02133,75.5711 h 612.8501 c -52.4511,-52.4513 -67.6343,-120.0856 -45.5496,-202.9031 22.0846,-82.8176 40.3735,-184.6143 54.8666,-305.3899 14.493,-120.7756 22.4297,-223.2624 23.81,-307.4603 z m -6.2113,-322.98862 h 6.2113 V 389.86346 c 11.0423,-15.18325 25.1904,-33.81722 42.4441,-55.90191 17.2537,-22.08468 25.8805,-39.33834 25.8805,-51.76097 0,-15.18325 -5.5213,-22.77487 -16.5636,-22.77487 -13.8029,0 -20.7044,13.11278 -20.7044,39.33834 h -33.127 c 0,-28.98612 -13.803,-47.96514 -41.4088,-56.93704 -27.6058,-8.97191 -57.9723,-10.00714 -91.0994,-3.10571 -11.04231,17.94382 -15.87335,40.0285 -14.4931,66.25406 -20.70438,35.88762 -31.05656,58.66247 -31.05656,68.32454 23.46501,5.52118 31.05663,16.56353 22.77488,33.12703 h 37.26787 c 6.90151,0 10.35226,5.52118 10.35226,16.56356 -19.32413,2.76057 -28.9862,13.80291 -28.9862,33.12704 0,12.42262 10.35219,18.63393 31.05656,18.63393 h 55.90199 c 9.6621,45.54969 24.8453,82.8176 45.5496,111.80372 z m -8.2817,-318.84769 v 14.49309 h -16.5636 c -45.5497,-17.9438 -81.43728,-15.87337 -107.66285,6.21131 v -18.63393 c 22.0847,-20.70444 57.97235,-21.39459 107.66285,-2.07047 z m 0,26.91572 v 10.35215 l -18.6341,-2.07037 c -34.5073,13.80287 -56.5919,20.70431 -66.254,20.70431 -11.04231,1.38031 -20.01422,-0.69012 -26.91572,-6.21131 h -12.42263 l -2.07037,-6.21131 c 6.90144,-20.70438 23.46494,-31.05656 49.69052,-31.05656 9.662,0 28.9861,4.83102 57.9722,14.49309 z m -39.3384,6.21131 c -11.0424,-5.52119 -22.0847,-8.28178 -33.1271,-8.28178 2.7607,2.76063 4.141,5.52122 4.141,8.28178 0,4.14088 -2.0705,7.59159 -6.2114,10.35216 16.5635,-4.14088 28.2961,-7.59159 35.1975,-10.35216 z m -53.83149,-6.21131 c -5.52111,0 -12.42256,4.83103 -20.70431,14.49309 9.66201,2.76057 18.63388,3.45068 26.9156,2.07038 -5.52109,-2.76057 -8.28165,-5.52113 -8.28165,-8.28169 0,-4.14087 0.69012,-6.90147 2.07036,-8.28178 z m 412.01739,312.63637 c 2.7607,-175.29725 -12.4225,-301.93914 -45.5495,-379.92567 -33.1271,-77.98659 -103.522,-116.97989 -211.1849,-116.97989 -107.6629,0 -166.32529,30.36647 -175.9873,91.09941 45.5496,0 80.402,3.79579 104.5572,11.38738 24.1551,7.5916 36.2327,25.19033 36.2327,52.79621 4.1409,-27.60588 17.2537,-41.40881 39.3383,-41.40881 33.1271,0 49.6905,13.11282 49.6905,39.33844 0,24.84524 -7.5916,49.69049 -22.7747,74.53574 -15.1833,24.84532 -26.9158,44.16945 -35.1975,57.97238 v 467.91938 h 260.8752 z M 584.36252,499.59671 h -39.33844 c -38.64818,0 -53.83141,-19.32409 -45.54966,-57.97229 h -10.35215 c -2.76062,-8.28174 -2.0705,-15.87336 2.07038,-22.77487 -5.5212,0 -10.35223,-2.76059 -14.4931,-8.28178 l 8.28178,-16.56346 c -17.94381,-1.38032 -26.91572,-5.5212 -26.91572,-12.42263 0,-13.80294 9.66206,-39.33838 28.98619,-76.60632 0,-41.40874 3.45073,-75.2259 10.35216,-101.45146 15.18325,-86.95851 84.88806,-130.437754 209.11446,-130.437754 120.0855,0 201.1777,40.718654 243.2767,122.155964 42.0989,81.43726 63.14828,218.77642 63.14828,412.01747 V 909.5438 h -76.60608 c -19.3241,306.425 -41.754,500.0112 -67.2894,580.7583 -25.5355,80.7473 -1.7254,164.6001 71.4301,251.5584 26.2256,24.8453 26.2256,44.1694 0,57.9724 H 116.44305 c -17.943819,-20.7044 -8.62683,-41.7539 27.95095,-63.1483 36.57779,-21.3947 56.93711,-47.2751 61.07798,-77.6415 4.14088,-28.9862 -62.80334,-247.0726 -200.8326489,-654.259 C -10.543919,950.95256 11.540771,911.95927 70.893391,887.80417 130.24601,863.64901 173.72523,870.89556 201.33104,909.5438 v 0 l 273.29814,395.454 c 51.07081,-117.325 79.02173,-233.9597 83.85276,-349.90433 4.83098,-115.94464 27.26078,-236.72029 67.28938,-362.32698 -17.9439,-24.84525 -31.7467,-55.90185 -41.4088,-93.16978 z M 505.16946,198.40423 c -23.7514,-11.08403 -38.00229,-35.62719 -42.75259,-73.6295 -4.75021,-38.00238 1.18767,-61.753848 17.81362,-71.254406 16.62594,-9.500627 17.4176,-13.459212 2.37486,-11.875754 -15.04265,1.583199 -24.14742,-1.187889 -27.31431,-8.313263 -3.16709,-7.125437 0,-13.459144 9.50117,-19.001121 9.5005,-5.5421761 20.18867,-9.8966261 32.06442,-13.063348 11.87574,-3.1670511 22.95974,-0.39596347 33.25208,8.3132619 10.29225,8.7088321 13.85498,19.3969891 10.68817,32.0644701 11.084,23.751438 7.52128,44.336051 -10.68817,61.75384 -18.20944,17.41773 -20.18867,37.21062 -5.93749,59.37867"
     id="path5114" /></svg>
