<?xml version="1.0" encoding="UTF-8" standalone="no"?>
<svg
   width="1245.3021"
   height="1797.7446"
   version="1.1"
   id="svg11702"
   xmlns="http://www.w3.org/2000/svg"
   xmlns:svg="http://www.w3.org/2000/svg">
  <defs
     id="defs11706" />
  <path
     id="path11700"
     style="fill:#000000;stroke:none;stroke-width:100"
     d="m 965.67773,1.8144531 c -84.34441,0 -131.07692,33.1063269 -140.19531,99.3164069 -5.69889,21.68956 -8.54883,47.37433 -8.54883,77.05469 -12.53778,29.68035 -18.80664,49.65959 -18.80664,59.93359 0,6.84929 6.26886,10.27344 18.80664,10.27344 l -5.1289,11.98437 c 1.1398,4.5662 3.98973,6.85157 8.54883,6.85157 -2.2796,6.84936 -2.84879,12.55487 -1.70899,17.12109 l 6.83789,1.71484 c -5.69889,28.5388 4.56042,42.8086 30.77539,42.8086 h 27.35547 c 0,23.97265 10.25736,46.2313 30.77344,66.77929 -34.19357,54.79453 -53.00053,119.29325 -56.41992,193.49414 -0.512,14.53001 -0.73624,26.67423 -1.05664,39.61719 -29.41717,-4.34009 -74.63229,-5.23423 -136.85743,-2.42187 -65.27483,2.94796 -108.70507,1.71134 -130.28515,-3.70899 -18.84128,-4.97046 -39.77364,-7.8612 -61.91602,-9.54687 L 364.46875,179.53906 c -10.25799,-22.83109 -23.93437,-24.54511 -41.03125,-5.13867 l -206.875,575.34766 141.90625,49.6582 104.29102,-496.58008 117.4707,309.03125 c -19.03558,0.43573 -38.70883,1.50612 -59.75391,3.94141 -0.9763,9.41592 9.67264,15.36851 31.94532,17.85547 l 18.32226,38.25781 c 13.14839,12.74483 31.60341,17.8695 55.36328,15.37695 31.18287,-6.64517 63.57406,-13.23779 97.17383,-19.77734 121.68928,15.80137 191.41757,21.31419 232.83203,17.35156 -0.05,40.03821 1.21777,69.17765 4.00977,85.68555 -39.53246,-9.82593 -87.52231,1.4197 -120.85547,7.01758 -36.21037,6.08106 -78.56444,13.97447 -136.14258,10 -9.45309,-9.53793 -21.0548,-19.47201 -34.80469,-29.80469 -6.01569,-5.56394 -13.75003,-10.33412 -23.20312,-14.3086 -7.73419,-2.38573 -18.69151,-3.9736 -32.8711,-4.76757 -14.17998,-0.79477 -26.42589,-3.18025 -36.73828,-7.1543 -4.29719,0 -7.51967,0.59427 -9.66797,1.78711 -2.14819,1.19247 -2.36543,3.7759 -0.64843,7.75 -2.5795,0 -3.86914,0.9956 -3.86914,2.98242 0,1.98682 0.43056,3.77543 1.28906,5.36719 -2.5794,0.79396 -3.86914,2.18305 -3.86914,4.16992 0,1.98685 0.85722,3.37985 2.57422,4.17383 -2.5754,0 -4.07847,1.58786 -4.50977,4.76758 -0.4316,3.18 1.50203,5.16693 5.79883,5.96093 17.18778,1.58801 30.93761,2.58355 41.25,2.98243 10.31239,0.39735 24.06262,5.36442 41.25,14.90234 3.4379,2.38572 4.94106,4.17628 4.50976,5.36914 -0.4272,1.19284 -2.35907,1.39162 -5.79687,0.59766 -4.2969,-1.5895 -10.744,-5.16659 -19.33789,-10.73047 -6.87499,-3.17969 -13.10551,-4.76953 -18.69141,-4.76953 -5.58609,0 -8.3789,1.98492 -8.3789,5.95898 0,3.97219 4.72659,6.75602 14.17968,8.34766 6.8752,3.97403 16.32849,10.13459 28.35938,18.48047 12.03139,8.34627 27.93168,10.92979 47.69726,7.75 l 56.71875,9.53711 c 82.89152,5.42099 143.19649,-8.08756 220.62891,6.90039 3.13898,31.01865 0.26149,47.53628 -1.13476,74.46288 -103.7703,4.56128 -158.01736,15.0807 -364.27344,69.03711 -12.24465,4.9731 -42.41977,12.4357 -54.47071,14.73242 -47.98702,12.53138 -85.6926,49.72678 -88.73828,51.90628 -27.26929,19.5136 -38.85302,62.0952 -34.75,127.7441 -13.68397,111.7528 -37.06121,245.7429 -70.13086,401.9688 -6.84202,36.4904 -16.81977,68.1356 -29.93359,94.9336 -13.11388,26.7974 -69.27541,50.4602 -168.484375,70.9863 -36.490687,12.5437 -54.1657184,31.9288 -53.02539063,58.1562 H 316.49609 c 35.35038,-3.4211 55.02064,-13.9692 59.01172,-31.6445 3.9912,-17.6753 1.14009,-36.206 -8.55273,-55.5918 -9.69282,-19.3856 -7.69574,-64.4283 5.98828,-135.1289 75.26193,-151.6641 111.75328,-263.4185 109.47266,-335.2598 3.42095,17.105 7.4113,66.7105 11.97265,148.8145 -2.28067,37.6312 -18.37504,66.438 -10.96289,89.8144 7.41195,23.377 10.83367,53.5978 10.26367,90.6582 -0.57013,37.0611 -17.39126,79.5375 -50.46093,127.4317 v 15.3945 c -26.22763,14.8244 -39.3418,26.7992 -39.3418,35.9219 0,9.1227 3.99233,25.0882 11.97461,47.8945 h 100.91992 c 0,-23.9467 10.26303,-45.6143 30.78906,-65 v -22.2363 c 4.56133,6.8419 10.26152,12.2587 17.10352,16.25 6.84202,3.9913 12.2588,4.8452 16.25,2.5645 3.99115,-2.2807 5.41774,-7.698 4.27734,-16.25 -1.14033,-8.5525 -3.42084,-16.248 -6.84179,-23.0899 h 1.70898 l -1.70898,-94.0781 c 0,-17.1051 1.7099,-37.0625 5.13085,-59.8692 l 6.85938,-80.7734 h 447.28319 c 23.6381,44.2999 40.1229,77.5702 44.8613,92.7324 -1.1403,30.7891 -12.5444,81.5354 -34.2109,152.2364 v 15.3945 c -27.3681,14.8244 -41.0508,27.3682 -41.0508,37.6308 0,7.9824 4.5609,23.3773 13.6836,46.1836 h 99.209 c 0,-23.9467 10.263,-45.6143 30.7891,-65 v -22.2363 c 4.5614,5.7017 10.5487,10.8332 17.9609,15.3945 7.412,4.5613 13.1122,5.4167 17.1035,2.5665 3.9913,-2.8509 5.1326,-8.2681 3.4219,-16.25 -1.7107,-7.9823 -4.2766,-15.965 -7.6973,-23.9473 h 3.4219 c -19.3857,-29.6489 -29.0801,-70.1305 -29.0801,-121.4453 0,-33.0698 3.9923,-72.9825 11.9746,-119.7364 h -25.6582 c -11.4034,-31.929 -17.1054,-65.5694 -17.1054,-100.9199 0,-79.8232 -27.0574,-131.7096 -6.5313,-155.6562 51.001,-34.0083 94.2266,-142.8339 86.9219,-211.58793 -2.8756,-27.06593 -35.0806,-35.37675 -35.5215,-16.81445 -1.779,74.89398 -36.719,140.09678 -51.4004,151.42968 h -53.0254 c 46.754,-30.7892 46.5766,-88.2927 42.7617,-177.89257 -4.0156,-94.31488 9.7604,-192.17544 14.5098,-288.2793 h 66.6777 v -234.5918 c 0,-143.83567 -16.8114,-248.29084 -50.4355,-313.359371 C 1105.5888,34.349234 1047.7428,1.8144531 965.67773,1.8144531 Z m 3.41993,28.2539059 c 72.94644,0.570738 123.09794,32.247734 150.45314,95.033201 27.3552,62.7854 40.4641,158.68027 39.3242,287.67578 v 196.91993 h -37.6133 c 0,-158.67606 -19.3784,-238.30245 -58.1308,-238.87305 -38.7532,-0.57081 -58.1289,16.26902 -58.1289,50.51562 V 609.69727 H 965.67773 V 250.10352 c 6.8388,-10.27393 17.95266,-25.1131 33.33985,-44.51954 15.38732,-19.40636 23.08012,-38.81426 23.08012,-58.2207 0,-19.40637 -13.107,-29.10937 -39.32231,-29.10937 -13.67749,0 -22.22699,10.27239 -25.64648,30.82031 0,-21.68947 -10.25736,-35.38591 -30.77344,-41.09375 -20.51638,-5.70772 -46.16313,-7.991155 -76.9375,-6.84961 6.83879,-47.945255 46.73296,-71.63332 119.67969,-71.062501 z m -90.1875,95.890621 c 11.11299,0.5708 22.36989,2.56947 33.76757,5.99414 22.79588,6.84928 34.19336,21.11906 34.19336,42.8086 h 22.22657 c 0,-19.40646 4.55934,-29.10938 13.67773,-29.10938 10.25809,0 15.38672,5.13615 15.38672,15.41016 0,10.27399 -8.26403,23.68769 -24.79102,40.24023 -16.52698,16.55246 -28.77932,31.67833 -36.75781,45.37696 V 373.39258 C 918.3766,360.83549 909.25781,340.28686 909.25781,311.74805 H 863.0957 c -13.67758,0 -20.51562,-5.13616 -20.51562,-15.41016 0,-14.84022 6.83804,-23.40242 20.51562,-25.68555 0,-7.99086 -2.27869,-12.5557 -6.83789,-13.69726 h -25.64648 c 5.69899,-12.55704 0.57036,-21.12133 -15.38672,-25.6875 0,-6.84934 6.83834,-24.54322 20.51562,-53.08203 0,-19.40644 3.42098,-35.95958 10.25977,-49.65821 10.82799,-2.28309 21.79717,-3.13912 32.91016,-2.56836 z M 872.5,140.08594 c -11.96789,0.28541 -21.94133,4.42315 -29.91992,12.41406 v 13.69922 c 17.09698,-15.98174 41.03247,-17.12442 71.80664,-3.42578 h 13.67773 V 150.78906 H 914.38672 C 898.42963,143.36899 884.46779,139.80054 872.5,140.08594 Z m 2.56445,19.26562 c -17.09688,0 -28.49436,7.99088 -34.19336,23.97266 l 1.70899,6.84766 h 8.54883 c 4.55919,3.42468 10.25691,4.56733 17.0957,3.42578 7.97859,0 23.36643,-5.13813 46.16211,-15.41211 h 13.67773 v -6.84961 h -13.67773 c -19.37628,-7.99086 -32.48357,-11.98438 -39.32227,-11.98438 z m 3.41993,10.27344 c 6.83869,0 14.24601,2.28144 22.2246,6.84766 -4.55919,1.14156 -12.53775,3.4269 -23.93554,6.85156 2.2794,-2.28311 3.41992,-4.56846 3.41992,-6.85156 0,-2.2831 -0.56919,-4.56451 -1.70898,-6.84766 z m -13.67774,1.71094 c -1.1397,0 -1.71094,2.28335 -1.71094,6.84961 0,1.14156 1.14033,2.85556 3.41992,5.13867 -3.41939,1.14148 -9.11906,0.56826 -17.09765,-1.71484 5.69889,-6.84938 10.82948,-10.27344 15.38867,-10.27344 z M 333.69531,254.88086 231.11328,749.74805 162.72461,729.19922 c 0,1.14147 56.99162,-156.96666 170.9707,-474.31836 z m 720.18949,158.32422 c 2.8845,-0.28538 6.2496,0.71491 10.0957,2.99804 15.3873,9.13238 23.082,86.18686 23.082,231.16407 -2.2796,87.89962 -5.6986,152.9714 -10.2578,195.20898 0.038,11.08233 -2.8805,25.75474 -1.7871,40.10547 -1.1528,34.949 -0.08,74.08799 3.5097,117.96676 5.1315,62.7187 -35.0648,100.3489 -120.5898,112.8926 H 506.36328 c -36.49067,0 -54.73633,18.8161 -54.73633,56.4473 2.28067,116.3141 -30.79095,239.471 -99.21093,369.4687 -22.8067,63.859 -29.07748,118.025 -18.81446,162.4981 10.26302,44.4728 -2.85112,66.7109 -39.34179,66.7109 l -205.261723,1.711 c -35.350292,1.1403 -28.50891,-4.5618 20.525393,-17.1055 68.42005,-13.6841 114.03521,-35.0664 136.84179,-64.1445 22.8067,-29.0787 36.48946,-67.5652 41.05079,-115.459 21.66632,-119.7351 45.61414,-254.2963 71.84179,-403.6797 -5.70162,-67.28 21.09723,-108.9025 80.39453,-124.8672 181.31303,-58.15708 335.26094,-91.22671 461.83789,-99.20899 1.30715,-60.17945 3.61556,-121.08316 -5.05468,-172.6875 -5.129,-25.68498 -5.41467,-77.62593 -0.85547,-155.82227 4.55909,-78.19643 18.23732,-142.41236 41.0332,-192.64062 V 647.36719 H 1040.9043 V 450.44922 c 0,-23.97268 4.3269,-36.38798 12.9805,-37.24414 z M 497.80859,1152.8828 h 0.002 593.54491 v 17.1055 c -21.6665,51.3148 4.8203,110.0424 4.8203,176.1816 0,42.1925 8.5532,83.2444 25.6582,123.1563 h 13.6836 c -5.702,30.7887 -8.5528,64.4291 -8.5528,100.9199 0,35.3505 5.7021,70.7027 17.1055,106.0527 l -61.5781,11.9727 c 17.1051,-63.8591 25.6582,-112.8939 25.6582,-147.1035 0,-15.9647 -16.8213,-53.8803 -50.4609,-113.7481 -33.64,-59.8673 -52.1563,-160.807 -52.1563,-238.3496 l -435.25386,1.6973 c -7.98229,80.9636 -0.0996,167.3769 -0.0996,198.166 4.90827,103.6606 -17.48047,174.4858 -17.48047,218.959 l 5.13086,68.4199 c -2.28067,2.2807 -29.07756,7.9828 -80.39258,17.1055 30.78898,-45.6136 46.18359,-104.3428 46.18359,-176.1836 -15.96464,-49.0346 -4.14596,-90.6696 -1.86523,-128.3008 -1.1404,-82.104 -9.12293,-160.789 -23.94727,-236.0508 z m 475.22657,63.5567 c 0,57.8443 17.45956,146.6945 49.00784,207.1269 H 802.14062 v -206.3516 z m -200.89454,0.9121 v 206.2148 H 592.89844 l 2.9414,-34.6328 c 0,-30.7891 -6.74348,-108.0806 3.51954,-170.7988 z" />
</svg>
