<?xml version="1.0" encoding="UTF-8" standalone="no"?>
<svg
   width="977.73737"
   height="1799.3567"
   version="1.1"
   id="svg1"
   xmlns="http://www.w3.org/2000/svg"
   xmlns:svg="http://www.w3.org/2000/svg">
  <defs
     id="defs1" />
  <path
     id="path1"
     style="fill:#000000;stroke:none;stroke-width:100.082"
     d="m 696.55268,0.03664485 c -13.9718,0.2826652 -28.7104,2.20037545 -44.2167,5.75390625 -82.7005,20.6750879 -121.4656,59.4402499 -116.2969,116.2968789 0,16.79851 3.2304,38.76622 9.6914,65.90234 -6.461,27.13605 -9.0461,44.58077 -7.7539,52.33399 1.2922,5.16877 8.3984,6.46134 21.3203,3.87695 l -3.875,11.62891 c 2.5844,2.58439 5.8147,3.87695 9.6914,3.87695 -1.2923,3.87659 -1.2923,8.3996 0,13.56836 h 7.752 c 1.2922,24.55167 14.2139,34.24292 38.7656,29.07422 l 42.6426,-13.56836 c 2.5844,15.50638 7.7547,26.49021 15.5078,32.95117 -71.0708,24.55168 -109.838,54.91814 -116.2989,91.09961 -6.461,41.35024 -11.6292,115.65215 -15.5058,222.9043 -32.3049,5.16884 -62.994,16.79797 -92.0684,34.88867 -29.0744,18.09077 -67.5188,36.18274 -115.3301,54.27344 -37.4736,-6.46098 -64.6097,-5.17036 -81.40816,3.875 -16.79858,9.04534 -31.01284,16.15349 -42.64258,21.32226 -9.04536,0 -14.21367,2.58506 -15.50586,7.75391 -1.2922,3.87651 1.61563,5.81445 8.72266,5.81445 7.1071,0 15.82847,-1.29256 26.16601,-3.87695 10.33754,-5.16871 19.3835,-8.39914 27.13672,-9.69141 h 6.78516 c 0.64613,0 -1.61639,2.58506 -6.78516,7.75391 -21.96735,9.04535 -39.73468,13.24378 -53.30273,12.59766 -13.56799,-0.64607 -31.98264,-0.32345 -55.24219,0.96875 -42.97247,25.25314 -90.83686,50.48221 -83.64844,108.81054 l -26.27734,33.31641 27.24414,31.45898 -28.86719,36.58203 22.92969,31.85348 -27.06055,37.2891 25.4375,30.7539 -28.86523,36.582 27.24414,31.4609 -31.37696,37.6817 27.24415,31.459 -29.57032,38.3886 29.29102,25.9453 -32.58594,43.1504 27.24609,31.461 -28.86718,36.582 22.92968,31.8535 -27.0625,37.2891 25.43946,30.7539 -28.86524,36.582 27.24414,31.459 -31.37695,37.6836 27.24414,31.459 L 0,1669.6577 l 70.42578,75.3926 1.39258,-51.4824 -29.75586,-30.3614 33.88867,-38.7812 -32.26563,-29.2598 33.88672,-38.7832 -29.75586,-30.3594 33.88867,-38.7812 -29.75586,-30.3613 32.08399,-39.4864 -30.46094,-28.5547 33.88672,-38.7832 -30.46094,-28.5527 34.59375,-40.5879 -30.5957,-30.3144 33.88867,-38.7832 -32.26562,-29.2598 33.88672,-38.7813 -29.75391,-30.3613 33.88672,-38.7812 -29.75586,-30.3594 32.08398,-39.4883 -30.46093,-28.55464 33.88671,-38.78125 -30.46093,-28.55469 20.33984,-29.27539 -1.23633,-0.36523 1.48047,-0.5 c -9.59667,-32.35603 25.25871,-54.09835 49.05859,-68.19531 2.14733,4.7329 8.16242,4.44259 12.4961,3.49804 14.21419,-3.87664 31.01359,-5.16719 50.39648,-3.875 19.38289,1.29226 33.59716,-3e-4 42.64258,-3.87695 12.92191,-3.87659 23.25851,-9.0449 31.01171,-15.50586 20.6751,-10.33755 37.4746,-21.32143 50.3965,-32.95117 93.038,-9.04542 169.9231,-29.07526 230.6562,-60.08789 30.1622,-8.93698 46.2531,-56.20577 48.4082,-141.4375 11.845,25.49172 31.1829,36.57663 58.1993,32.89258 19.3829,16.79851 32.3046,39.41153 38.7656,67.83984 -32.3049,23.25948 -64.6112,41.99674 -96.916,56.21094 -11.6297,-2.58439 -22.6117,-3.55231 -32.9492,-2.90625 -10.3376,0.64613 -24.5519,7.42962 -42.6426,20.35156 -18.0908,12.92193 -32.9524,20.67538 -44.5821,23.25977 -10.3374,6.46096 -9.6902,10.33664 1.9395,11.6289 7.7533,2.58439 25.1979,-4.52174 52.334,-21.32031 11.6297,-1.2922 14.2128,1.29091 7.7519,7.75195 -12.9219,12.92193 -48.4567,27.78353 -106.6054,44.58203 -6.4609,1.2922 -10.3386,2.90738 -11.6309,4.84571 -0.3442,0.51636 -0.3681,1.11171 -0.1621,1.76562 -37.5387,19.28172 -76.939,46.71845 -76.2109,93.32422 l -18.8184,33.47656 27.2441,31.45899 -28.8671,36.58203 22.9296,31.8535 -27.0605,37.289 25.4375,30.7539 -28.8652,36.5821 27.2441,31.4609 -31.3769,37.6817 27.2441,31.4589 -29.5703,38.3887 29.291,25.9453 -32.5859,43.1504 27.2461,31.461 -28.8672,36.58 22.9296,31.8535 -27.0624,37.2911 25.4394,30.7539 -28.8652,36.58 27.2441,31.459 -31.3769,37.6856 27.2441,31.459 -29.5723,38.3847 70.4258,75.3946 1.3926,-51.4825 -29.7559,-30.3613 33.8887,-38.7812 -32.2656,-29.2618 33.8867,-38.7832 -29.7559,-30.3574 33.8887,-38.7812 -29.7559,-30.3614 32.084,-39.4863 -30.4609,-28.5547 33.8867,-38.7832 -30.4609,-28.5547 34.5937,-40.5879 -30.5957,-30.3125 33.8887,-38.7832 -32.2656,-29.2597 33.8867,-38.7813 -29.7539,-30.3633 33.8867,-38.7793 -29.7559,-30.3593 32.084,-39.4903 -30.4609,-28.55266 33.8867,-38.78125 -30.4609,-28.55469 13.3261,-22.94141 -0.1328,-0.14843 0.7637,-0.25782 c -5.6726,-16.79959 -4.1397,-34.69246 52.3398,-65.82226 0.5302,1.05973 1.8384,1.76514 4.0157,2.07617 4.5227,0.64613 17.7671,-2.90693 39.7343,-10.66016 50.3957,-7.75316 90.4534,-34.24199 120.1739,-79.46875 43.9346,-11.6298 80.1166,-23.26088 108.5449,-34.89062 1.2922,27.13604 -1.9383,60.41027 -9.6914,99.82226 -7.7532,39.41199 -11.6289,86.25524 -11.6289,140.52735 0,69.77847 8.3988,127.60357 25.1972,173.47657 16.7985,45.8729 24.8747,125.3431 24.2286,238.4101 -0.6461,113.0671 -3.5539,197.3829 -8.7227,252.9473 -1.2922,55.5644 -58.7946,100.1443 -172.5078,133.7402 h -32.9512 c 0,27.1361 7.7535,40.7051 23.2598,40.7051 14.2142,0 26.8132,1.615 37.7969,4.8457 10.9836,3.23 36.5044,1.615 76.5625,-4.8457 20.6751,6.4607 50.0737,6.4607 88.1933,0 38.1198,-6.4598 69.4542,-6.1364 94.0059,0.9707 24.5518,7.1071 40.3813,4.1992 47.4883,-8.7227 7.1071,-12.9221 8.7223,-36.1822 4.8457,-69.7793 v -94.9746 h 9.6933 c 5.1687,-121.4663 3.8762,-211.5977 -3.8769,-270.3926 -7.7532,-58.7948 -8.3985,-181.8777 -1.9375,-369.24601 20.6751,-58.14881 31.0136,-105.95999 31.0136,-143.43359 0,-36.18146 -6.1381,-67.84044 -18.414,-94.97656 -12.2759,-27.13605 -24.2297,-73.00936 -35.8594,-137.61914 38.7659,-63.31753 67.1945,-133.74173 85.2852,-211.27344 7.752,-36.18148 7.4285,-63.64012 -0.9707,-82.37695 -8.3993,-18.73684 -31.3369,-30.04335 -68.8106,-33.91993 C 872.65448,158.26992 839.05768,79.767699 801.58398,41.647973 773.47878,13.058178 738.46828,-0.81135072 696.55268,0.03664485 Z m -4.9667,25.68164015 c 41.1887,-1.33258 73.6563,12.052955 97.4003,40.158203 31.6588,37.473672 60.4101,108.545132 86.254,213.212892 -63.3175,2.58439 -94.9766,29.72043 -94.9766,81.40821 v 46.51953 h -89.1621 V 213.18704 c 2.5844,-10.33754 7.43,-24.55182 14.5371,-42.64258 7.1071,-18.0907 8.7222,-34.88821 4.8457,-50.39453 -3.8767,-16.79857 -16.7984,-22.614092 -38.7656,-17.44531 -11.6297,3.87657 -17.4453,14.2151 -17.4453,31.01367 -3.8766,-18.09077 -13.8905,-27.13672 -30.043,-27.13672 -16.1524,0 -37.7974,3.23037 -64.9336,9.69141 -3.8765,-41.350253 25.5219,-69.456162 88.1934,-84.316414 15.6678,-3.715063 30.3661,-5.794088 44.0957,-6.238281 z m -8.7227,99.398445 c 4.8458,0.24228 8.2395,3.75504 10.1777,10.53906 1.2921,7.75315 -1.6156,20.02961 -8.7226,36.82813 -7.1071,16.79857 -12.6,31.01283 -16.4766,42.64257 v 54.27149 l -54.2715,15.50586 c -12.9219,2.58438 -20.03,10e-4 -21.3222,-7.75196 -3.8766,-12.92193 0,-21.32263 11.6308,-25.19922 -1.2922,-6.46096 -3.8774,-9.6914 -7.7539,-9.6914 l -23.2597,5.8164 c 1.2922,-10.3376 -5.1687,-16.15312 -19.3829,-17.44531 -1.2922,-6.46096 1.293,-21.96786 7.7539,-46.51953 -3.8767,-16.79857 -3.8767,-31.65815 0,-44.58008 19.3829,-9.04536 38.1203,-12.92305 56.211,-11.63086 18.0908,1.29219 29.72,10.98352 34.8887,29.07422 l 19.3828,-3.875 c -3.8765,-16.7985 -1.9387,-25.84452 5.8144,-27.13672 1.9383,-0.64609 3.7148,-0.92841 5.3301,-0.84765 z m -44.0957,14.41601 -9.6914,1.9375 c -33.5971,-3.87656 -55.5648,1.939 -65.9024,17.44532 l 1.9395,11.6289 c 12.9219,-16.79851 34.8877,-23.2594 65.9004,-19.38281 l 9.6933,-1.9375 z m 3.8769,17.44336 -9.6914,3.87696 c -19.3829,-2.58439 -32.9519,-3.22969 -40.705,-1.9375 -15.5063,3.87657 -23.905,12.92253 -25.1973,27.13671 l 3.8769,3.875 7.754,-1.9375 c 5.1688,2.58439 10.337,2.58439 15.5058,0 7.7531,-1.29219 20.6749,-9.04558 38.7656,-23.25976 l 11.6289,-1.9375 z m -34.4042,7.26953 c 3.5535,-0.32305 7.2679,-0.16172 11.1445,0.48438 -3.8766,3.87658 -10.3375,8.39952 -19.3828,13.56836 2.5843,-2.58445 3.2297,-5.16952 1.9375,-7.75391 0,-1.2922 -1.2907,-2.58281 -3.875,-3.875 3.2304,-1.29219 6.6222,-2.10078 10.1758,-2.42383 z m -21.8067,6.29883 c -1.2922,1.29219 -1.9375,2.58477 -1.9375,3.87696 1.2922,3.87664 3.8754,5.81445 7.752,5.81445 -3.8766,1.29219 -9.6903,1.93945 -17.4434,1.93945 2.5843,-6.46102 6.4601,-10.33867 11.6289,-11.63086 z m 255.8555,131.80469 h 54.2715 c 2.5845,52.97998 -14.2131,96.91547 -50.3946,131.80469 -72.363,24.55173 -129.22,30.36528 -170.5703,17.44336 -41.3502,-12.92194 -65.903,-38.12009 -73.6562,-75.59375 l 48.459,-25.19727 c 2.5844,7.75316 8.398,13.56867 17.4433,17.44531 v 60.08594 h 135.6817 v -81.4082 c 5.1686,-23.25948 18.0904,-38.11912 38.7656,-44.58008 z m -174.4473,36.82812 v 15.50586 c -2.5843,-5.16876 -4.5222,-9.69177 -5.8144,-13.56836 z m 199.6445,110.48243 -31.0117,96.91406 -110.4843,25.19922 -79.4688,-114.35938 c 16.7985,15.50632 41.6721,22.93512 74.623,22.28906 32.9511,-0.64612 81.7321,-10.66006 146.3418,-30.04296 z m -238.4101,48.45703 44.5801,73.65625 c -16.7985,3.87664 -31.6582,-2.58618 -44.5801,-19.38477 z m 188.0156,79.4707 c -27.1361,21.96728 -52.9815,41.34992 -77.5332,58.14844 l -17.4433,-34.88867 z m 40.7031,63.96289 c 10.3376,46.51901 20.9988,81.73111 31.9825,105.63672 10.9836,23.90561 16.4746,53.9494 16.4746,90.13086 0,37.4736 -6.1382,71.71771 -18.4141,102.73047 -12.2759,31.01264 -18.4121,103.37463 -18.4121,217.08783 0,113.7131 3.5531,198.9988 10.6602,255.8555 7.107,56.8565 6.1372,114.3591 -2.9083,172.5078 h -100.791 c 5.1688,-59.4409 7.7539,-143.4341 7.7539,-251.9785 0,-85.2849 -7.7533,-151.1861 -23.2597,-197.7051 -15.5063,-46.519 -24.2297,-97.2379 -26.168,-152.1562 -1.9383,-54.91824 1.9394,-111.45281 11.6309,-169.60157 9.6914,-58.14881 13.2444,-97.55922 10.6601,-118.23437 29.7205,-10.33754 63.3174,-28.42957 100.791,-54.27344 z m -102.7285,978.83978 h 36.8262 v 79.4688 c -23.2595,19.383 -67.193,36.8286 -131.8027,52.334 h -34.8907 c 2.5844,12.9219 5.8148,21.3207 9.6914,25.1972 -15.5063,3.8779 -28.7507,4.2014 -39.7343,0.9707 -10.9837,-3.2307 -20.9977,-4.8457 -30.043,-4.8457 -9.0454,0 -13.5684,-1.9379 -13.5684,-5.8144 h 15.5059 l 73.6562,-29.0762 c 76.2396,-24.5517 114.3594,-63.9621 114.3594,-118.2344 z m 54.2715,0 h 15.5059 v 46.5176 c 0,14.2142 -5.1683,23.2601 -15.5059,27.1367 z m 31.0117,0 h 50.3965 v 96.9141 c 3.8765,36.1813 0.6461,55.8866 -9.6914,59.1172 -10.3376,3.2305 -31.658,0.3246 -63.9629,-8.7207 -21.9673,1.2924 -46.1975,4.1984 -72.6875,8.7207 -26.4901,4.5231 -44.9027,5.1701 -55.2402,1.9394 -10.3377,-3.2307 -20.6762,-4.8457 -31.0137,-4.8457 -9.0453,0 -13.5684,-1.9379 -13.5684,-5.8144 h 15.5079 l 93.0371,-29.0762 c 14.2141,-6.4609 27.1359,-13.567 38.7656,-21.3203 32.3049,-12.922 48.457,-29.7215 48.457,-50.3965 z" />
</svg>
