<?xml version="1.0" encoding="UTF-8" standalone="no"?>
<svg
   width="1245.3021"
   height="1797.7446"
   version="1.1"
   id="svg11702"
   xmlns="http://www.w3.org/2000/svg"
   xmlns:svg="http://www.w3.org/2000/svg">
  <defs
     id="defs11706" />
  <path
     id="path11700"
     style="fill:#000000;stroke:none;stroke-width:100"
     d="m 966.48828,0 c -84.38491,0 -131.13704,33.069382 -140.25976,99.208984 -5.70173,21.666446 -8.55274,47.323886 -8.55274,76.972656 -12.54372,29.64877 -18.8164,49.60608 -18.8164,59.86914 -10e-6,6.84199 6.27268,10.26172 18.8164,10.26172 l -5.13281,11.97461 c 1.14033,4.56132 3.99134,6.8418 8.55273,6.8418 -2.28072,6.84206 -2.85126,12.54414 -1.71093,17.10547 l 6.84375,1.71093 c -5.70173,28.50844 4.56128,42.76172 30.78906,42.76172 h 27.36719 c 0,23.94711 10.26295,46.18483 30.78906,66.71094 -34.21017,54.73621 -53.02627,119.16518 -56.44727,193.28711 -3.42099,96.92877 -2.56512,158.5066 2.56641,184.73437 5.13152,26.22778 5.98747,71.84058 2.56641,136.83985 -103.7707,4.56132 -158.01718,15.08124 -364.2741,69.03785 C 261.25464,725.30247 153.4281,550.21339 364.39062,381.44336 l 157.36719,15.39453 c -3.42106,7.98239 -5.13281,14.82373 -5.13281,20.52539 0,5.70167 2.85107,10.83314 8.55273,15.39453 5.70173,4.56133 13.11361,-1.7094 22.23633,-18.81445 21.66638,-38.77149 20.52719,-84.95491 -3.41992,-138.55078 -23.94705,-52.45555 -57.58703,-83.81507 -100.91992,-94.07813 -18.24538,-4.56132 -27.93975,-3.1368 -29.08008,4.27539 -1.14033,7.4122 5.13235,15.68002 18.81641,24.80274 -6.842,30.7891 -36.49165,74.1215 -88.94727,129.99804 h 1.71094 c -240.6113,198.41881 -154.7544,384.81818 99.54094,651.65732 -47.98722,12.53136 -85.69194,49.72696 -88.73762,51.90646 -27.26941,19.5136 -38.85365,62.0955 -34.75059,127.7448 -13.68405,111.7532 -37.06109,245.7425 -70.13086,401.9688 -6.84206,36.4908 -16.81973,68.1356 -29.93359,94.9336 -13.11392,26.7978 -69.27501,50.4602 -168.484375,70.9863 -36.490831,12.5437 -54.1657228,31.9284 -53.02539063,58.1562 H 316.49609 c 35.3505,-3.4211 55.0206,-13.9692 59.01172,-31.6445 3.9912,-17.6753 1.14013,-36.206 -8.55273,-55.5918 -9.69286,-19.3856 -7.69578,-64.4279 5.98828,-135.1289 75.26225,-151.6649 111.75332,-263.4185 109.47266,-335.2598 3.42099,17.105 7.41126,66.7101 11.97265,148.8145 -2.28067,37.6312 -18.37508,66.4376 -10.96289,89.8144 7.41199,23.377 10.83367,53.5974 10.26367,90.6582 -0.57013,37.0611 -17.3911,79.5375 -50.46093,127.4317 v 15.3945 c -26.22771,14.8244 -39.3418,26.7992 -39.3418,35.9219 0,9.1227 3.99229,25.0878 11.97461,47.8945 h 100.91992 c 0,-23.9471 10.26295,-45.6143 30.78906,-65 v -22.2363 c 4.56133,6.8419 10.26152,12.2587 17.10352,16.25 6.84206,3.9913 12.2588,4.8452 16.25,2.5645 3.99119,-2.2807 5.41774,-7.6976 4.27734,-16.25 -1.14033,-8.5525 -3.4208,-16.248 -6.84179,-23.0899 h 1.70898 l -1.70898,-94.0781 c 0,-17.1051 1.70986,-37.0625 5.13085,-59.8692 l 6.85938,-80.7734 h 447.28319 c 23.6381,44.2999 40.1229,77.5702 44.8613,92.7324 -1.1403,30.7891 -12.5444,81.5354 -34.2109,152.2364 v 15.3945 c -27.3681,14.8244 -41.0508,27.3678 -41.0508,37.6308 0,7.9824 4.5609,23.3769 13.6836,46.1836 h 99.209 c 0,-23.9471 10.263,-45.6143 30.7891,-65 v -22.2363 c 4.5614,5.7017 10.5487,10.8332 17.9609,15.3945 7.412,4.5613 13.1122,5.4171 17.1035,2.5665 3.9913,-2.8509 5.1326,-8.2677 3.4219,-16.25 -1.7107,-7.9823 -4.2766,-15.965 -7.6973,-23.9473 h 3.4219 c -19.3857,-29.6489 -29.0801,-70.1301 -29.0801,-121.4453 0,-33.0698 3.9923,-72.9825 11.9746,-119.7364 h -25.6582 c -11.4034,-31.9294 -17.1054,-65.5694 -17.1054,-100.9199 0,-79.8236 -27.0574,-131.7092 -6.5313,-155.6562 51.001,-34.0083 94.2266,-142.8335 86.9219,-211.58792 -2.8756,-27.06605 -35.0806,-35.37683 -35.5215,-16.81445 -1.779,74.89437 -36.719,140.09677 -51.4004,151.42967 h -53.0254 c 46.754,-30.7892 61.0072,-90.0867 42.7617,-177.89256 6.8417,-106.0515 11.9733,-202.98107 15.3946,-290.78711 h 66.7109 V 410.52148 c 0,-143.68258 -16.821,-248.02417 -50.4609,-313.023433 C 1106.4655,32.498779 1048.5927,0 966.48828,0 Z m 3.42188,28.222656 c 72.98154,0.570133 123.15724,32.21499 150.52534,94.933594 27.3681,62.71861 40.4821,158.50703 39.3418,287.36523 v 196.70899 h -37.6328 c 0,-158.50717 -19.3847,-238.04524 -58.1562,-238.61524 -38.7715,-0.5702 -58.1582,16.24882 -58.1582,50.45899 V 607.23047 H 966.48828 V 248.02344 c 6.84206,-10.26299 17.96092,-25.08688 33.35547,-44.47266 15.39455,-19.38571 23.09175,-38.77242 23.09175,-58.1582 0,-19.38571 -13.1139,-29.07813 -39.34175,-29.07813 -13.68406,0 -22.23525,10.26302 -25.65625,30.78907 0,-21.66638 -10.26301,-35.35101 -30.78906,-41.05274 -20.52611,-5.70166 -46.18544,-7.98213 -76.97461,-6.841796 6.84206,-47.894221 46.75467,-71.556527 119.73633,-70.986328 z m -90.22852,95.789064 c 11.11829,0.57018 22.37786,2.5653 33.78125,5.98633 22.80678,6.84199 34.21094,21.09722 34.21094,42.76367 h 22.23633 c 0,-19.38578 4.56093,-29.07813 13.68359,-29.07813 10.26303,0 15.39453,5.13148 15.39453,15.39453 0,10.26306 -8.26784,23.6604 -24.80273,40.19532 -16.53492,16.53485 -28.79313,31.64602 -36.77539,45.33008 V 371.17969 C 919.1647,358.63597 910.04297,338.11 910.04297,309.60156 h -46.18359 c -13.68399,0 -20.52735,-5.13147 -20.52735,-15.39453 0,-14.82438 6.84336,-23.37747 20.52735,-25.6582 0,-7.98232 -2.28048,-12.54327 -6.8418,-13.6836 h -25.6582 c 5.70172,-12.54371 0.57025,-21.09492 -15.39454,-25.65625 0,-6.84206 6.84128,-24.5189 20.52539,-53.02734 0,-19.38578 3.42168,-35.91946 10.26368,-49.60352 10.83319,-2.28066 21.80944,-3.13658 32.92773,-2.5664 z m -6.41602,14.11133 c -11.97353,0.2851 -21.95126,4.41995 -29.93359,12.40234 v 13.68359 c 17.10505,-15.96471 41.0527,-17.10593 71.8418,-3.42187 h 13.68359 v -11.97266 h -13.68359 c -15.96475,-7.41219 -29.93467,-10.9765 -41.90821,-10.6914 z m 2.56641,19.24414 c -17.10511,0 -28.50739,7.98255 -34.20898,23.94726 l 1.70898,6.8418 h 8.55274 c 4.56139,3.42107 10.2634,4.56025 17.10546,3.41992 7.98233,0 23.37682,-5.13147 46.1836,-15.39453 h 13.68359 v -6.8418 h -13.68359 c -19.38571,-7.98232 -32.49974,-11.97265 -39.3418,-11.97265 z m 3.42188,10.26172 c 6.84206,0 14.254,2.28235 22.23632,6.84375 -4.56132,1.14033 -12.54387,3.4208 -23.94726,6.84179 2.28067,-2.28066 3.41992,-4.56113 3.41992,-6.84179 0,-2.28067 -0.56865,-4.56303 -1.70898,-6.84375 z m -13.68555,1.71093 c -1.14033,0 -1.70898,2.28041 -1.70898,6.8418 0,1.14033 1.13925,2.85215 3.41992,5.13281 -3.421,1.14033 -9.12308,0.56973 -17.10547,-1.71093 5.70172,-6.84207 10.8332,-10.26368 15.39453,-10.26368 z m -401.96875,54.73633 c 19.38578,15.96472 35.35081,37.6319 47.89453,65 12.54372,28.5085 18.24587,55.30709 17.10547,80.39453 -42.19243,-12.54371 -94.64858,-17.6752 -157.36719,-15.39453 43.33283,-46.75388 74.12181,-90.08817 92.36719,-130 z m 591.13869,186.87305 c 2.8859,-0.28508 6.2517,0.71346 10.0996,2.99414 15.3946,9.12266 23.0918,86.09504 23.0918,230.91797 -2.2807,87.80604 -5.7004,152.80549 -10.2617,194.99805 -4.558,44.47315 -4.272,98.07052 0.8593,160.78902 5.1315,62.7187 -35.0644,100.3489 -120.5898,112.8926 H 506.36328 c -36.49083,0 -54.73633,18.8161 -54.73633,56.4473 2.28067,116.3145 -30.79067,239.4702 -99.21093,369.4687 -22.80678,63.859 -29.07752,118.025 -18.81446,162.4981 10.26306,44.4732 -2.85096,66.7109 -39.34179,66.7109 l -205.261723,1.711 c -35.350432,1.1403 -28.509098,-4.5618 20.525393,-17.1055 68.42033,-13.6841 114.03509,-35.066 136.84179,-64.1445 22.80678,-29.0787 36.48946,-67.5648 41.05079,-115.459 21.66644,-119.7355 45.61402,-254.2955 71.84179,-403.6797 -5.70166,-67.28 21.09699,-108.9025 80.39453,-124.8672 181.31375,-58.15728 335.26042,-91.22667 461.83789,-99.20899 2.28073,-91.22704 0.85419,-149.67055 -4.27734,-175.32813 -5.13132,-25.65764 -5.41679,-77.54312 -0.85547,-155.65625 4.5614,-78.11319 18.24596,-142.25682 41.05274,-192.43164 V 644.86133 H 1041.752 V 448.15234 c 0,-23.94712 4.3286,-36.34787 12.9863,-37.20312 z M 497.81055,1152.8828 h 593.54495 v 17.1055 0 c -21.6665,51.3152 4.8203,110.042 4.8203,176.1816 0,42.1925 8.5532,83.2444 25.6582,123.1563 h 13.6836 c -5.702,30.7891 -8.5527,64.4291 -8.5527,100.9199 0,35.3505 5.7021,70.7023 17.1055,106.0527 l -61.5782,11.9727 c 17.1051,-63.8591 25.6582,-112.8935 25.6582,-147.1035 0,-15.9647 -16.8209,-53.8803 -50.4609,-113.7481 -33.64,-59.8677 -52.1562,-160.8066 -52.1562,-238.3496 l -435.25395,1.6973 c -7.98229,80.964 -0.0996,167.3769 -0.0996,198.166 4.90831,103.661 -17.48047,174.4858 -17.48047,218.959 l 5.13086,68.4199 c -2.28067,2.2807 -29.07736,7.9828 -80.39258,17.1055 30.7891,-45.6136 46.1836,-104.3424 46.1836,-176.1836 -15.96472,-49.0346 -4.14597,-90.6696 -1.86524,-128.3008 -1.1404,-82.1044 -9.12288,-160.7886 -23.94726,-236.0508 z m 475.22461,63.5567 c 0,57.8447 17.45956,146.6941 49.00784,207.1269 H 802.14062 v -206.3516 z m -200.89454,0.9121 v 206.2148 H 592.89844 l 2.9414,-34.6328 c 0,-30.7891 -6.74352,-108.0802 3.51954,-170.7988 z" />
</svg>
