<?xml version="1.0" encoding="UTF-8" standalone="no"?>
<svg
   width="1326.0817"
   height="1794.7988"
   version="1.1"
   id="svg5269"
   xml:space="preserve"
   xmlns="http://www.w3.org/2000/svg"
   xmlns:svg="http://www.w3.org/2000/svg"><defs
     id="defs5273" /><path
     id="path5267"
     style="fill:#000000;stroke:none;stroke-width:99.8361"
     d="m 898.37657,0 c 15.28595,49.385301 28.33087,109.40918 39.36914,178.9707 -34.0516,10.83427 -59.3987,28.52301 -76.11133,53.01172 -9.85889,-19.51887 -6.70818,-37.13503 9.6836,-52.81445 18.25642,-17.46309 21.83121,-38.10086 10.72461,-61.91406 3.1733,-12.70043 -0.40147,-23.41696 -10.72461,-32.148441 -10.31656,-8.731882 -21.42491,-11.511225 -33.32813,-8.335938 -11.9098,3.174957 -22.62973,7.541072 -32.15625,13.097657 -9.48044,5.556394 -12.63866,11.906812 -9.47851,19.050782 3.1733,7.1439 12.29969,9.92325 27.38281,8.33594 15.0831,-1.58758 14.29404,2.38091 -2.36914,11.90625 -16.65001,9.52527 -22.60545,33.33824 -17.86524,71.43945 4.5442,36.37397 17.87421,60.30304 39.78321,72.08008 -1.39595,5.27354 -2.60084,10.69852 -3.5,16.36328 -6.50998,24.73783 -9.76563,56.63554 -9.76563,95.69531 -18.22793,35.1538 -27.34179,59.24177 -27.34179,72.26172 0,6.50997 8.46273,10.41487 25.38867,11.7168 l -7.8125,13.67187 c 2.60398,5.20798 7.16197,8.46363 13.67187,9.76563 -3.90591,6.50997 -5.20824,13.67046 -3.90625,21.48242 h 11.71875 c -7.8119,36.45579 6.50905,54.68359 42.96485,54.68359 h 35.15429 c 9.11396,35.1538 26.03945,73.5628 50.77735,115.22657 -1.3019,1.30198 -13.6715,17.25083 -37.10742,47.84765 -23.43591,30.59681 -46.87081,67.05242 -70.30665,109.36719 -23.43584,42.31477 -18.87987,83.65391 13.66993,124.01562 9.1139,131.50136 -11.06535,252.58646 -60.54102,363.25586 L 568.31993,966.73047 C 543.5821,896.42289 500.61708,861.26953 439.42345,861.26953 v 1.95313 C 408.17564,693.96366 332.6599,609.33398 212.87657,609.33398 c -104.15939,0 -156.24023,75.51581 -156.24023,226.54688 0,151.03116 -13.66984,235.66074 -41.011722,253.88864 -6.5099073,3.906 -9.7656253,11.0666 -9.7656253,21.4825 0,10.4158 6.1838503,22.7854 18.5527353,37.1074 12.368947,14.3219 13.671212,40.3613 3.90625,78.1191 -9.764895,37.7578 -17.902135,84.3039 -24.4121103,139.6387 -6.509974,55.3345 -4.88214905,100.9041 4.882813,136.709 9.7648953,35.8047 34.1765493,53.707 73.2363293,53.707 37.75779,0 61.52019,-17.9023 71.28515,-53.707 9.76497,-35.8049 11.71836,-81.3745 5.85938,-136.709 -5.85897,-55.3348 -13.99615,-101.8809 -24.41211,-139.6387 -10.4159,-37.7578 -9.44115,-63.7972 2.92773,-78.1191 12.36895,-14.322 18.55469,-26.6916 18.55469,-37.1074 0,-10.4157 -3.25565,-17.5762 -9.76562,-21.4825 -26.03983,-18.2279 -39.0586,-104.81094 -39.0586,-259.74802 -1.30199,-117.17933 34.50249,-175.76953 107.41407,-175.76953 87.23345,0 147.77508,69.65753 181.62695,208.97071 -80.72355,-1.30199 -98.95136,16.27461 -54.68359,52.73046 -1.302,42.96577 9.76532,72.91211 33.20117,89.83788 v 39.0586 c 130.19928,384.0877 192.69626,589.8027 187.48828,617.1445 -2.60399,28.6439 -21.15926,53.383 -55.66211,74.2149 -34.5028,20.8319 -43.29117,40.3619 -26.36524,58.5898 H 1255.773 c 26.0399,-13.0199 26.0399,-31.2477 0,-54.6836 -67.7036,-82.0254 -89.5126,-160.7968 -65.4258,-236.3125 24.0869,-75.5156 45.2448,-258.4467 63.4727,-548.79098 h 72.2617 v -283.1836 c 0,-184.88294 -20.1813,-315.40765 -60.543,-391.57421 -22.7892,-43.00552 -57.2145,-73.85459 -103.248,-92.57813 C 1173.6794,114.30121 1187.841,51.464055 1204.9957,0 Z m 41.01177,31.248047 H 1163.982 c -9.0692,33.686052 -18.7879,82.957513 -29.1465,147.585933 -29.4193,-8.27849 -62.4059,-12.83007 -99.75,-12.83007 -25.7906,0 -48.90546,2.10661 -69.65036,6.08007 -9.8458,-60.90449 -18.5799,-108.479452 -26.0468,-140.835933 z M 1038.9918,201.1582 c 101.5554,0 168.2827,36.78118 200.1816,110.34375 31.8989,73.56258 47.8477,193.01997 47.8477,358.37305 v 246.07812 l -59.0139,0.69773 -1.458,-280.92903 c 0,0 -7.8897,-63.47839 -57.2376,-64.2362 -49.3478,-0.75781 -61.4721,64.7222 -61.4721,64.7222 v 279.7453 h -72.754 V 468.7168 c 9.114,-11.71789 20.8324,-29.29457 35.1543,-52.73047 14.3219,-23.43584 21.4824,-47.19636 21.4824,-71.28321 0,-24.08683 -14.9722,-36.13085 -44.9179,-36.13085 -22.1336,0 -35.1543,12.36958 -39.0606,37.10742 0,-26.03984 -11.39276,-42.31425 -34.17766,-48.82422 -22.7849,-6.50997 -55.65929,-9.76563 -98.62502,-9.76563 7.81198,-57.2877 62.49537,-85.93164 164.05078,-85.93164 z M 913.99962,318.09375 c 14.32191,0.48825 27.99372,2.8486 41.01372,7.08008 26.0398,8.46296 39.0585,26.36521 39.0585,53.70703 h 31.24806 c 0,-24.73784 5.8602,-37.10742 17.5781,-37.10742 11.7175,0 15.6224,12.36958 11.7168,37.10742 l -58.58976,85.93164 v 185.5332 h -5.8594 c -20.8319,-28.64382 -35.1529,-63.79717 -42.9649,-105.46093 H 892.5172 c -19.52985,0 -29.29493,-5.86024 -29.29493,-17.57813 1.30206,-19.52992 10.41601,-30.59523 27.3418,-33.19922 0,-9.11396 -2.60452,-13.67187 -7.8125,-13.67187 h -35.15234 c 6.50997,-15.62388 -0.65239,-26.6912 -21.48438,-33.20117 0,-9.11397 9.76493,-29.94629 29.29492,-62.4961 -1.30206,-24.73783 3.25592,-45.56821 13.67188,-62.49414 15.6239,-3.25499 30.59606,-4.63864 44.91797,-4.15039 z m -8.30078,18.30859 c -17.2514,0.3255 -31.40961,5.37176 -42.47657,15.13672 l 1.95313,15.62305 c 23.43578,-19.52986 57.28692,-20.83212 101.55464,-3.90625 h 13.6719 v -13.66992 h -13.6719 c -23.4358,-9.11397 -43.7798,-13.50909 -61.0312,-13.1836 z m 4.39453,22.94727 c -24.73784,0 -40.36112,9.765 -46.8711,29.29492 v 7.8125 h 13.66993 c 6.50998,3.90599 14.3236,5.85938 23.4375,5.85938 10.41596,0 31.89744,-6.50935 64.44724,-19.5293 l 17.5781,1.95117 v -11.7168 l -17.5781,1.95313 c -27.34181,-10.41596 -45.56961,-15.625 -54.68357,-15.625 z m 3.90625,11.71875 c 10.4159,1.302 20.83212,3.90651 31.24802,7.8125 -6.51,3.90599 -17.57727,7.81081 -33.20115,11.7168 3.90592,-3.90599 5.85938,-7.15969 5.85938,-9.76368 0,-2.60398 -1.30232,-5.85963 -3.90625,-9.76562 z m -19.5293,1.95312 c -2.60406,1.30199 -3.90625,3.90652 -3.90625,7.8125 0,3.90599 2.60452,7.15969 7.8125,9.76368 -6.5099,1.30198 -14.97271,-2.7e-4 -25.38867,-3.90625 7.81196,-7.81198 14.97245,-12.36794 21.48242,-13.66993 z M 996.02504,732.37109 V 955.01172 H 1142.67 V 676.55303 c 0,0 1.7097,-61.41738 24.5797,-61.53331 22.87,-0.11593 25.11,61.53331 25.11,61.53331 -1.302,80.72358 3.8479,456.18137 -9.823,569.45477 -13.6709,113.2734 -30.922,208.9703 -51.7539,287.0899 -20.8319,78.1195 -6.5108,142.568 42.9648,193.3457 H 595.66173 c 14.32193,-14.3219 23.76144,-38.408 28.31836,-72.2598 4.55704,-33.8519 -10.74068,-91.1397 -45.89453,-171.8633 L 433.56407,1040.9434 c -7.81196,-23.4359 7.16019,-35.1524 44.91797,-35.1524 37.75778,0 61.84576,9.1139 72.26172,27.3418 l 244.12305,355.4434 c 40.36184,27.3418 66.4032,13.6719 78.12109,-41.0117 46.87171,-108.0654 64.44839,-238.9177 52.73047,-392.55278 -45.56969,-48.17374 -22.13474,-122.38723 70.30667,-222.64063 z M 382.78673,902.28125 h 72.25976 c 24.73791,0 46.22136,21.48352 64.44922,64.44922 h -80.07226 c -37.7578,0 -56.63672,-21.48352 -56.63672,-64.44922 z M 70.30821,1185.4648 h 21.48242 c 22.13392,118.4814 30.59666,214.1783 25.38868,287.0899 -5.20799,26.0399 -16.92637,39.7118 -35.1543,41.0137 -19.52985,-1.3019 -31.89749,-14.9738 -37.10547,-41.0137 -5.20798,-72.9116 3.25476,-168.6085 25.38867,-287.0899 z" /></svg>
