<?xml version="1.0" encoding="UTF-8" standalone="no"?>
<svg
   width="1205.7957"
   height="1800"
   version="1.1"
   id="svg1"
   xml:space="preserve"
   xmlns="http://www.w3.org/2000/svg"
   xmlns:svg="http://www.w3.org/2000/svg"><defs
     id="defs1" /><path
     id="path1-8"
     style="fill:#000000;stroke:none;stroke-width:109.488"
     d="M 82.871094 0.421875 C 81.195861 -0.13797539 79.979351 -0.16945155 79.511719 0.5078125 C 77.577011 3.3098203 84.876696 15.104602 92.419922 25.966797 C 99.963063 36.82898 108.13716 65.977451 112.36133 84.986328 C 116.58135 103.9762 130.60588 107.28444 140.24609 116.93945 C 124.14804 131.30298 120.62969 149.71658 114.53125 168.21094 C 106.61828 174.49671 107.88886 182.45225 101.94922 194.64258 C 95.966694 207.20657 95.074469 211.67847 98.394531 212.4375 C 102.08817 213.23935 102.28994 215.38279 104.69141 217.55078 C 102.19255 219.53578 101.00436 221.67036 101.12109 223.95508 C 101.28065 225.86618 102.27227 227.11732 104.09766 227.70508 C 105.92311 228.29285 105.79133 229.41226 103.70898 231.06641 C 101.62665 232.72061 101.97292 234.65439 104.74805 236.86523 C 107.10665 239.40682 108.00979 243.10541 107.45312 247.96289 C 106.81082 253.56767 108.60319 257.74813 112.83008 260.50391 C 119.67258 263.55935 129.53279 265.068 142.4082 265.0293 C 155.28359 264.9906 158.83074 265.22729 159.10938 271.51758 C 144.1572 274.52986 135.66011 284.94182 133.61914 302.75195 C 131.38375 322.25823 144.45409 331.91753 172.83008 331.73242 L 178.54102 331.90039 L 82.824219 1046.957 C 60.396972 1042.3418 42.770092 1043.3092 37.875 1060.0059 C 24.893986 1104.2827 76.130269 1121.2864 135.59375 1130.1191 L 0 1130.1191 L 25.693359 1235.9277 L 12.929688 1798.3105 L 53.238281 1798.3105 L 75.78125 1798.3105 L 119.00586 1798.3105 L 121.13281 1588.2324 L 405.67578 1589.0469 L 409.61719 1798.3105 L 447.86133 1798.3105 L 470.4043 1798.3105 L 513.10156 1798.3105 L 502.4668 1236.1973 L 529.16992 1130.1211 L 429.56055 1130.1211 C 589.6248 1078.8273 654.56222 918.15861 655.72266 763.45312 C 655.85653 745.60409 652.04333 714.09439 646.31836 678.05078 C 737.05711 638.7401 825.54193 596.41395 860.03711 578.95312 C 871.91134 567.47526 880.5735 565.16229 893.27734 558.81055 C 903.44018 574.05541 919.32144 582.31389 940.91797 583.58398 C 952.35132 601.36935 958.06836 637.57694 958.06836 692.20312 C 958.06836 745.55895 953.94104 791.61281 945.68359 830.35938 C 937.42613 869.10571 933.29492 915.79444 933.29492 970.41992 C 933.29492 1037.7511 941.86939 1093.9693 959.01953 1139.0684 C 976.1701 1184.1652 984.11093 1262.2971 982.83984 1373.4551 C 981.56947 1484.6131 978.39385 1567.5119 973.3125 1622.1387 C 973.3125 1676.764 917.41229 1720.5909 805.61914 1753.6211 L 771.31836 1753.6211 C 771.31836 1780.2997 778.93929 1793.6406 794.18359 1793.6406 C 808.15787 1793.6406 820.54558 1795.2304 831.34375 1798.4062 C 842.14201 1801.582 867.23348 1799.9922 906.61523 1793.6406 C 926.94123 1799.9921 955.84425 1799.9921 993.32031 1793.6406 C 1030.7965 1787.2902 1061.923 1787.6101 1086.6953 1794.5977 C 1111.468 1801.5847 1127.0312 1798.7252 1133.3828 1786.0215 C 1139.7345 1773.3175 1141.6386 1750.4484 1139.0977 1717.4199 L 1139.0977 1624.0449 L 1146.7207 1624.0449 C 1151.8023 1504.6292 1150.8509 1416.0179 1143.8633 1358.2148 C 1136.8767 1300.4135 1135.921 1180.0371 1141.002 997.10352 C 1162.5986 938.66506 1173.4022 891.02259 1173.4023 854.18164 C 1173.4023 818.61107 1167.0495 787.48455 1154.3457 760.80664 C 1141.6417 734.12879 1136.5569 701.09839 1139.0977 661.7168 C 1141.6386 622.33506 1155.6159 574.69163 1181.0234 518.79492 L 1205.7949 518.79492 L 1205.7949 326.33008 C 1205.7949 219.61844 1194.6767 140.53221 1172.4453 89.082031 C 1150.2135 37.631642 1098.445 11.904297 1017.1406 11.904297 C 942.18849 11.904297 900.26574 37.949618 891.37305 90.035156 C 886.29115 106.55 883.74805 127.51237 883.74805 152.91992 C 872.3147 175.78671 866.5957 191.03195 866.5957 198.6543 C 866.5957 203.73575 872.3147 206.27734 883.74805 206.27734 L 878.03125 215.80469 C 879.30166 219.61568 881.84151 221.52148 885.65234 221.52148 C 884.38151 225.33268 884.38151 229.77779 885.65234 234.85938 L 893.27734 234.85938 C 886.92524 257.72619 895.81596 269.16211 919.95312 269.16211 L 942.82227 269.16211 C 949.17402 293.29933 957.43277 312.99171 967.5957 328.23633 C 938.37692 328.23633 909.79205 335.85719 881.84375 351.10156 C 825.20651 383.76285 793.46667 395.22456 730.4707 434.25195 C 676.78632 431.34405 623.96461 424.43058 571.08203 416.92578 C 508.99521 335.77228 445.06263 302.462 384.32617 275.07227 C 381.00292 246.13318 314.65204 234.34959 298.22852 192.97656 C 284.68698 151.99783 269.23968 130.10103 235.4707 107.50977 C 243.36348 106.26859 253.68147 98.212335 257.52344 80.923828 C 261.7476 61.915015 267.37678 37.336794 274.91992 26.474609 C 282.46312 15.612415 293.25449 4.742027 290.61133 1.7773438 C 288.00469 -1.1463911 270.58336 8.9657202 263.3418 17.414062 C 256.10037 25.862459 242.9936 60.207927 238.76953 69.259766 C 238.76953 69.259766 234.18031 56.06771 232.25586 50.869141 C 227.34996 37.616665 215.06245 24.554111 207.5332 22.326172 C 187.80576 16.48871 180.06926 18.42025 173.66211 18.611328 C 153.73208 19.205693 124.61604 43.504916 131.0293 73.298828 C 126.45311 51.487891 116.47941 31.935981 102.48047 14.873047 C 97.049413 8.5367894 87.896791 2.1014262 82.871094 0.421875 z M 183.61719 28.564453 C 196.28968 28.564453 206.40015 32.791893 213.94336 41.240234 C 221.4865 49.68863 225.25781 59.342877 225.25781 70.205078 C 225.25781 82.274111 217.65949 99.205685 211.625 105.24023 C 192.78153 102.60162 173.73403 98.87719 156.85156 106.69727 C 155.12465 105.23244 151.56822 98.808454 149.67578 96.916016 C 143.94291 91.183198 141.06841 82.274111 141.06836 70.205078 C 141.06836 59.342877 144.83967 49.68863 152.38281 41.240234 C 159.92605 32.791903 170.3412 28.564453 183.61719 28.564453 z M 1019.0449 34.771484 C 1085.1046 34.771484 1128.6188 59.545191 1149.5801 109.08984 C 1170.5413 158.63461 1179.7519 234.2273 1177.2109 335.85742 L 1177.2109 490.21094 L 1017.1406 490.21094 L 1017.1406 206.27734 C 1023.4924 198.65497 1031.1137 187.21918 1040.0059 171.97461 C 1048.8991 156.73022 1053.3457 141.48679 1053.3457 126.24219 C 1053.3457 110.99757 1043.1837 103.375 1022.8574 103.375 C 1010.1533 103.375 1001.8952 111.63164 998.08398 128.14648 C 998.08398 111.63164 990.77936 101.14931 976.16992 96.703125 C 961.56082 92.256711 940.91607 90.035156 914.23828 90.035156 C 918.04926 53.194169 952.98536 34.771483 1019.0449 34.771484 z M 939.48633 108.85156 C 948.69659 109.32795 957.4321 110.9953 965.68945 113.85352 C 982.20441 119.57034 990.46094 131.32207 990.46094 149.10742 L 1011.4238 149.10742 C 1011.4238 132.59237 1015.2351 124.33398 1022.8574 124.33398 C 1030.4798 124.33398 1034.291 128.78124 1034.291 137.67383 C 1034.291 145.29624 1029.5279 155.7763 1020 169.11523 C 1010.4719 182.45426 1002.5292 194.20809 996.17773 204.37109 L 996.17773 328.23633 L 988.55664 328.23633 C 974.58242 306.63988 965.05205 282.50025 959.9707 255.82227 L 925.66992 255.82227 C 912.96605 255.82227 906.61328 252.0089 906.61328 244.38672 C 906.61328 231.68292 912.33219 224.69621 923.76562 223.42578 C 923.76562 217.07379 921.85968 213.89844 918.04883 213.89844 L 895.18164 213.89844 C 900.26326 203.73544 895.81792 196.74869 881.84375 192.9375 C 881.84375 187.85599 888.19469 173.88056 900.89844 151.01367 C 900.89844 135.76916 904.074 122.42756 910.42578 110.99414 C 920.58871 109.08855 930.27619 108.37514 939.48633 108.85156 z M 189.9707 117.55273 C 203.34268 117.31063 217.13343 120.84352 231.34375 128.15039 C 250.2909 137.89285 269.03231 162.36432 275.80469 188.21875 C 285.0725 223.5999 355.77671 260.90492 356.54297 267.01367 C 346.02407 265.63099 235.3017 259.75777 228.84375 259.87695 C 225.71972 259.79145 208.06791 232.08686 208.52734 223.20508 C 209.15028 211.16255 213.79291 202.03999 222.45312 195.83984 C 231.1134 189.63968 233.49155 180.45026 229.58789 168.26758 C 226.01493 156.5014 214.42943 155.17183 194.83594 164.2832 C 190.34445 153.92601 170.09232 146.95247 141.0332 142.86523 C 145.47824 130.50366 159.69818 122.39783 176.73828 119.05078 C 181.10248 118.1313 185.51342 117.63342 189.9707 117.55273 z M 933.29102 120.52539 C 922.49287 120.52539 913.60044 123.70282 906.61328 130.05469 L 906.61328 141.48633 C 921.85792 128.78255 943.45785 127.51088 971.40625 137.67383 L 982.83984 137.67383 L 982.83984 130.05469 L 971.40625 130.05469 C 956.79678 123.70282 944.08913 120.52539 933.29102 120.52539 z M 937.10547 135.76953 C 920.5911 135.76953 910.42675 142.12043 906.61523 154.82422 L 906.61523 160.54102 L 914.23828 160.54102 C 918.04949 163.08176 923.13068 163.71762 929.48242 162.44727 C 937.10468 162.44727 951.08022 158.63593 971.40625 151.01367 L 982.83984 151.01367 L 982.83984 145.29688 L 971.40625 145.29688 C 953.62058 138.94493 942.18682 135.76953 937.10547 135.76953 z M 939.01367 143.39258 C 945.36579 144.66298 951.71486 146.56657 958.06641 149.10742 C 954.25496 151.64773 947.2673 154.19187 937.10547 156.73242 C 939.64617 154.19159 940.91797 151.648 940.91797 149.10742 C 940.91797 147.83701 940.28475 145.9334 939.01367 143.39258 z M 925.66992 145.29688 C 924.39897 146.5671 923.76563 148.47292 923.76562 151.01367 C 923.76562 152.28409 925.67133 154.19159 929.48242 156.73242 C 924.40062 156.73242 918.6855 156.09462 912.33398 154.82422 C 917.41567 148.47239 921.85884 145.29687 925.66992 145.29688 z M 135.95117 154.63281 C 157.33494 156.32625 179.61303 165.00014 190.86133 179.16016 L 200.38672 180.25 C 207.72364 172.38394 212.25823 170.82371 213.98633 175.56445 C 215.75723 179.93155 212.64507 185.62899 204.64648 192.66211 C 196.64791 199.69519 192.7942 208.53055 193.08984 219.16406 L 211.20703 259.69141 L 181.53906 267 C 181.53906 260.22915 163.24506 250.00269 145.62891 251.76953 C 127.59628 253.86719 120.38593 249.06714 123.99805 237.36719 C 132.61549 231.54072 135.95387 227.18892 134.01172 224.31641 C 132.11238 221.07029 126.67662 218.93582 117.70898 217.9082 C 117.9451 215.8477 116.55243 214.93676 113.20117 213.17578 C 115.57059 212.01555 117.56939 211.2933 119.96875 213.05469 C 122.0394 214.80615 124.44932 215.27238 127.19336 214.45117 C 129.93738 213.62995 131.04107 212.241 130.50781 210.28711 C 129.97465 208.3332 129.31165 207.50105 128.52148 207.78906 C 127.73136 208.07707 127.41855 209.1768 127.57812 211.08789 C 127.73765 212.99895 127.07074 213.87052 125.57617 213.69922 C 124.08152 213.52796 122.48408 212.58758 120.78711 210.87891 C 118.71645 209.12738 117.30786 208.20679 116.56055 208.12109 C 115.06594 207.94981 113.90328 208.19568 113.07031 208.85742 C 112.25882 209.50207 112.14016 210.60064 112.66602 212.11719 C 110.56446 211.03263 110.05503 209.10907 106.58594 208.13867 C 116.70207 189.23437 117.48368 178.39499 125.97266 173.68945 C 131.38675 169.38863 144.91819 168.78508 153.62891 172.05469 C 162.29683 175.69791 169.76681 178.25523 176.0332 179.73047 L 176.16016 178.61133 C 173.25655 177.52151 167.93095 174.44866 160.18164 169.39648 C 152.38953 164.71798 137.81495 163.46495 130.37305 165.64062 C 130.97252 160.40945 133.49518 156.24417 135.95117 154.63281 z M 146.11328 173.75586 C 140.06838 173.37638 137.27051 174.48101 135.79688 175.42188 L 128.37305 179.37891 L 127.60156 186.10547 L 130.9668 186.49023 C 139.83709 191.67086 150.98584 191.81418 164.41797 186.91797 L 173.68945 190.25195 L 173.33789 183.39844 L 165.06055 181.3125 C 157.85536 177.29267 151.34154 174.08405 146.11328 173.75586 z M 139.4082 177.23828 C 138.48961 178.64724 138.22999 180.88803 138.63477 183.96289 C 137.22582 183.0443 135.79927 182.3965 134.84961 180.77344 C 135.48016 178.57433 137.16629 176.9814 139.4082 177.23828 z M 149 177.76953 L 159.07031 184.0332 C 155.53617 185.14244 151.52675 185.43962 147.04297 184.92578 C 150.28908 183.02641 150.94219 180.642 149 177.76953 z M 113.18164 221.50586 C 114.42812 221.36479 115.78657 221.4719 117.25977 221.83008 C 119.8325 222.50346 123.34022 223.2844 127.78125 224.17188 C 131.84854 225.01648 133.50905 225.39624 132.76172 225.31055 L 114.56836 225.49609 C 108.96355 224.85379 107.36807 223.91542 109.78125 222.67773 C 110.80104 222.03752 111.93513 221.64694 113.18164 221.50586 z M 131.38477 227.42383 C 130.13533 228.41634 128.11686 229.50821 125.33008 230.70312 C 122.54321 231.89793 120.2159 232.38987 118.34766 232.17578 C 116.02016 232.66616 114.71185 232.51667 114.42383 231.72656 C 114.13582 230.93647 114.45247 229.83673 115.37109 228.42773 L 131.38477 227.42383 z M 233.39258 290.8457 C 260.92822 291.14158 296.2926 291.28319 339.89062 297.58789 C 412.5796 308.0994 487.15478 350.64357 531.97461 411.40625 C 523.31771 410.13873 514.71665 409.00627 506.03516 407.74219 C 497.75692 402.14469 489.92331 397.30673 482.36133 392.93164 C 447.94313 361.23693 398.78485 330.7165 337.29102 319.04102 C 291.09576 310.27018 250.80017 309.30833 215.82031 310.88477 C 181.2161 312.93387 163.95019 309.8807 164.02539 301.72656 C 164.3761 293.97996 187.4998 290.35256 233.39258 290.8457 z M 200.65039 332.55078 L 240.91016 333.73438 L 140.82812 1063.5742 C 128.57004 1059.8681 116.15597 1055.811 104.30078 1052.3438 L 200.65039 332.55078 z M 261.55664 333.52539 L 298.10547 335.13281 L 199.10352 1077.7266 C 186.68899 1075.4155 173.91013 1072.6179 160.6582 1069.1816 L 261.55664 333.52539 z M 318.16992 340.01172 L 359.51562 349.7168 L 354.84766 383.71484 C 353.56257 384.50497 352.90988 384.70253 351.5332 385.57812 L 345.02344 390.93164 L 321.71289 410.10547 L 312.67969 417.53711 C 316.69402 420.90139 320.39885 421.99373 323.79492 420.82031 C 325.25664 420.31517 327.91585 418.54867 330.99023 416.3418 C 338.08231 408.6496 345.4107 403.04852 352.83789 398.35156 L 350.25586 417.14258 L 343.57031 424.80078 C 337.02303 433.42549 334.26557 439.49483 336.8125 441.98633 C 338.76765 442.93719 342.46006 441.60166 347.28516 438.77734 L 258.5293 1085.0684 C 246.20065 1084.4341 233.40098 1083.2042 220.08594 1081.3105 L 318.16992 340.01172 z M 380.01562 356.73633 C 395.6697 357.77914 406.46276 366.33967 412.95898 371.56836 L 381.21484 372.46289 L 381.21484 372.46484 C 380.45379 372.09471 379.25426 372.13607 377.85547 372.36133 L 380.01562 356.73633 z M 996.17773 375.875 L 996.17773 412.08203 L 965.68945 436.85352 C 972.04146 420.33849 982.20358 400.01224 996.17773 375.875 z M 394.14062 385.10938 L 374.75781 394.76758 L 375.69922 387.95703 C 381.7721 386.34746 387.90822 385.29333 394.14062 385.10938 z M 398.54102 397.84375 C 384.92985 402.42592 377.55784 410.87701 371.26953 419.99805 L 372.97461 407.67578 C 379.99458 401.44942 388.10269 397.35873 398.54102 397.84375 z M 408.86914 407.10352 L 391.9668 420.07227 C 391.46274 420.63445 391.25308 421.30191 390.78516 421.87695 L 380.76172 449.80078 C 379.83692 457.13685 378.49205 465.02109 376.36719 473.93555 C 380.93699 476.158 385.4438 472.70194 389.88867 463.5625 C 390.29981 461.11735 390.88085 459.16507 391.36328 456.92578 L 402.1875 429.58789 C 404.28573 426.84533 406.56142 424.62032 409.06445 423.04883 L 405.50977 449.20312 C 404.77232 450.65119 404.23426 452.19138 404.07227 453.94141 L 404.87109 453.89453 L 319.35742 1082.9375 C 306.63475 1084.557 293.31182 1085.474 279.27539 1085.5293 L 365.90625 458.8125 C 367.19292 457.13338 368.41963 455.42453 369.32617 453.56055 C 369.95939 449.96546 371.12772 447.12867 372.05078 443.94336 C 383.60394 418.77373 390.44509 411.32554 408.86914 407.10352 z M 431.85938 420.05078 C 442.02369 421.03765 454.85576 423.85859 470.46875 428.58594 C 466.51682 430.90223 460.57303 432.95467 452.63867 434.74609 C 443.31019 435.64329 435.75868 436.63944 429.46875 437.78516 L 431.85938 420.05078 z M 935.19727 421.60938 L 925.66992 455.91211 C 902.80312 469.88628 861.45596 495.08132 824.35547 519.26367 C 790.05629 532.71035 670.0618 596.58154 638.64258 623.55469 C 638.10727 624.01425 637.53694 624.40882 637 624.86523 C 627.13242 572.82471 614.97452 519.02717 603.89453 481.96289 L 667.30859 503.125 C 699.75872 509.01833 737.24253 507.46995 779.75586 498.48047 C 826.98975 476.07456 824.33242 466.34955 935.19727 421.60938 z M 486.81836 442.89648 L 491.75977 444.54492 C 530.61556 517.04482 545.79954 611.90524 555.13281 678.97266 C 548.79942 682.14025 542.49062 685.35346 535.98438 688.18555 C 510.44305 676.98197 487.79447 663.71642 469.5 668.4043 C 430.98392 678.27391 413.36788 691.41205 396.34375 736.2168 C 392.13937 747.28206 397.84415 759.13794 404.57812 750.12109 C 445.97596 694.68921 461.87272 695.46035 494.58789 710.95898 C 495.71464 712.49584 490.68145 724.15713 486.95898 727.67383 C 483.23647 731.19046 476.28579 733.52769 466.10938 734.6875 C 444.45225 741.99809 428.30615 749.74687 437.01758 755.98047 L 464.36523 754.86719 C 469.48788 751.11149 480.61961 749.64329 497.76172 750.46484 C 514.90408 751.28647 530.06855 741.35241 543.25195 720.66016 C 548.61671 718.59082 554.60238 715.92818 560.0918 713.75586 C 561.3864 722.77958 562.65682 731.73519 563.90039 738.34961 C 570.28703 772.31945 554.16167 1034.0143 343.07031 1078.9785 L 427.47656 452.58008 L 435.49805 452.11133 C 447.1106 452.20033 459.77795 452.33814 464.33398 452.08984 C 470.86401 451.73398 478.35929 448.67098 486.81836 442.89648 z M 533.45508 458.45898 L 562.93945 468.29883 C 582.21255 516.54063 598.28222 584.25165 609.28516 646.36523 C 601.13215 652.19807 592.81473 657.70829 584.32227 662.88281 C 569.51964 591.32109 545.84991 505.20009 537.9082 470.62305 C 537.10501 467.12617 535.49291 462.94423 533.45508 458.45898 z M 996.17773 503.55078 L 996.17773 518.79492 L 1116.2324 518.79492 L 1093.3652 577.86914 L 994.27344 577.86914 L 971.4082 518.79492 C 975.21939 517.52461 983.47386 512.4434 996.17773 503.55078 z M 1150.5332 518.79492 L 1160.0605 518.79492 L 1135.2852 577.86914 L 1125.7598 577.86914 L 1150.5332 518.79492 z M 946.63477 534.03906 L 954.25586 562.625 C 933.92975 565.16583 919.31832 561.35463 910.42578 551.19141 C 923.12929 546.10974 935.20131 540.39079 946.63477 534.03906 z M 980.93359 602.64258 L 1114.3262 602.64258 C 1106.7041 621.69813 1102.8926 646.47197 1102.8926 676.96094 C 1104.163 712.53161 1110.5138 742.07031 1121.9473 765.57227 C 1133.3809 789.07424 1139.0957 818.61107 1139.0957 854.18164 C 1137.8251 891.0226 1131.1565 924.68819 1119.0879 955.17773 C 1107.0191 985.66724 1100.9883 1056.8125 1100.9883 1168.6055 C 1100.9883 1280.3986 1104.4815 1364.2489 1111.4688 1420.1465 C 1118.4556 1476.0422 1117.5003 1532.5796 1108.6074 1589.7461 L 1009.5176 1589.7461 C 1015.8692 1531.3093 1019.0449 1448.7253 1019.0449 1342.0137 C 1019.0449 1258.1691 1011.4222 1193.3809 996.17773 1147.6465 C 980.93306 1101.9139 972.35657 1052.0468 970.45117 998.05469 C 968.54582 944.06471 972.04081 888.47954 980.93359 831.3125 C 989.82622 774.14548 994.27344 732.2229 994.27344 705.54492 C 994.27344 672.51511 989.82622 638.2131 980.93359 602.64258 z M 616.43164 690.66211 C 620.35724 717.70002 623.12466 742.24719 624.41211 761.39648 C 631.44303 865.97308 545.62778 1222.3943 145.82812 1107.7793 L 65.478516 1084.6328 C 49.204205 1072.6126 56.863622 1070.0178 71.265625 1070.082 C 566.3769 1245.2977 594.66421 815.27186 596.75586 753.08789 C 597.17988 740.48205 594.90802 721.87801 591.44141 700.90625 C 599.83132 697.45303 607.94302 694.24637 616.43164 690.66211 z M 48.65625 1170.4277 L 479.4375 1170.4277 L 470.87109 1194.4277 L 57.746094 1192.9707 L 48.65625 1170.4277 z M 66 1236.1973 L 459.76758 1236.1973 L 470.4043 1763.7168 C 464.91658 1762.4534 458.07541 1765.2759 447.86133 1763.7168 L 443.91797 1555.4336 C 327.69642 1558.1133 194.13222 1551.7574 77.908203 1554.6191 L 75.78125 1763.7129 L 53.238281 1763.7129 L 66 1236.1973 z M 88.544922 1258.0977 L 77.908203 1537.0078 C 193.97483 1538.9438 327.91401 1533.9117 443.91797 1537.8223 L 437.22461 1258.0977 L 88.544922 1258.0977 z M 131.76953 1299.5078 L 221.29688 1299.5078 L 218.66992 1502.0605 L 121.13281 1501.748 L 131.76953 1299.5078 z M 251.80859 1299.5078 L 278.31641 1299.5078 L 275.6875 1503.8965 L 249.17969 1503.4512 L 251.80859 1299.5078 z M 307.7832 1299.5078 L 398.98047 1299.5078 L 405.67578 1502.5605 L 305.1543 1502.0605 L 307.7832 1299.5078 z M 1041.9121 1624.0449 L 1064.7793 1624.0449 L 1064.7793 1681.2129 C 1064.7793 1695.1872 1057.1566 1704.0812 1041.9121 1707.8926 L 1041.9121 1624.0449 z " /></svg>
