<?xml version="1.0" encoding="UTF-8" standalone="no"?>
<svg
   width="815.19269"
   height="1800"
   version="1.1"
   id="svg1"
   xml:space="preserve"
   xmlns="http://www.w3.org/2000/svg"
   xmlns:svg="http://www.w3.org/2000/svg"><defs
     id="defs1" /><path
     id="path1"
     style="fill:#000000;stroke:none;stroke-width:100.511"
     d="m 530.78457,0.02909532 c -24.0563,0.60139344 -36.3852,13.23122868 -36.9865,37.88909768 -0.6014,24.657869 8.7203,38.79118 27.9654,42.399609 l -27.0629,120.883308 c -16.8395,-4.8113 -36.6856,-1.50327 -59.5393,9.92351 -22.8537,11.42681 -39.0925,14.73482 -48.7151,9.92353 -9.6226,-4.81125 -16.2385,-7.21602 -19.847,-7.21602 -6.0142,-2.40561 -8.4187,-9e-4 -7.216,7.21602 7.217,20.44792 21.0492,31.27323 41.4972,32.47608 20.4479,1.20286 36.9879,-0.90077 49.6176,-6.3135 12.6296,-5.41269 27.9653,-6.31596 46.0075,-2.70752 16.3235,3.26471 27.7882,5.8806 36.7273,8.16073 -36.8065,8.54395 -57.5315,29.23226 -61.9873,62.20445 -4.8115,13.23099 -7.216,30.6723 -7.216,52.32313 -10.8255,19.24512 -16.2391,32.47719 -16.2391,39.69412 0,4.81127 5.4136,7.216 16.2391,7.216 l -5.4131,7.21803 c 1.2029,3.6085 3.6078,5.41101 7.2161,5.41101 -1.2029,3.60848 -1.2029,7.21758 0,10.82603 h 5.413 c -4.8115,20.44799 2.4049,30.67309 21.6499,30.67309 h 28.8681 c 9.6226,10.82541 13.5329,20.44635 11.7287,28.86606 -1.8041,8.41978 -11.7285,15.03578 -29.7706,19.84706 -63.7498,0 -93.2186,29.46897 -88.4071,88.40723 -8.4197,54.12697 -10.8245,100.43703 -7.2162,138.92734 -36.0846,21.65077 -90.8131,59.54035 -164.1855,113.6673 -12.028,-10.82537 -10.98034,-5.10287 -22.89327,-13.42841 l 97.54394,-563.44601 -44.92872,-5.59194 -97.54395,563.44601 -35.0212,-6.23973 c -2.4057,14.4339 1.2033,22.85444 10.826,25.26008 -1.2028,28.86776 4.2108,49.91615 16.2391,63.14714 l -8.16121,4.75816 L 0,1788.6365 44.928727,1794.2284 204.90219,931.44203 c 17.87299,-4.02598 34.19788,-24.18309 49.83468,-30.19714 104.6455,-39.69312 170.8017,-76.98046 198.4665,-111.8623 8.4198,-28.86776 13.8314,-52.32283 16.237,-70.36517 7.217,3.60849 17.4421,6.61537 30.6731,9.02102 -9.6225,60.14108 -24.0568,137.12253 -43.3021,230.9426 -7.0599,34.41711 -11.6391,67.63566 -13.843,99.70566 h -108.1156 c -44.9233,-5.2233 -66.8632,9.4047 -65.8185,43.885 l -48.5784,420.5607 23.5052,1.5779 3.1336,-28.7935 h 28.2089 l -1.5678,28.7935 21.9394,1.5757 1.5659,-28.7933 h 28.2088 l 3.1355,28.7933 h 25.0732 l -53.2819,-436.2407 141.1685,1.3887 c -0.7322,43.181 3.1254,84.1448 11.6582,122.8472 16.8398,76.3793 25.2601,149.4503 25.2601,219.2142 0,70.9663 -11.4276,152.7591 -34.2811,245.3765 -10e-5,24.0563 -6.9171,37.5875 -20.7496,40.5947 -13.8322,3.007 -29.1682,9.0208 -46.0075,18.0419 -16.8395,9.0214 -37.2877,15.9385 -61.3444,20.7496 h -39.6919 c -1.2027,27.6649 9.0201,41.4972 30.6711,41.4972 h 306.7207 c 24.0564,-9.6227 31.2727,-34.2803 21.6501,-73.9733 v -48.7151 c 19.2451,-98.6315 28.266,-172.9052 27.063,-222.8221 -1.2028,-49.9172 -6.0143,-93.8204 -14.4341,-131.7093 -8.4195,-37.889 -1.8037,-95.9255 19.8473,-174.109 5.4058,-19.5213 10.1346,-37.7256 14.1907,-54.6225 l 55.8206,0.5848 c -1.1297,5.9323 3.0516,10.0082 6.0362,11.003 3.6084,2.4057 6.6151,0.9025 9.0209,-4.5104 13.1747,4.0388 38.9185,12.068 46.4862,-11.7267 7.5584,-23.7663 0.3827,-49.5434 -1.6506,-74.2425 20.4482,-92.6173 22.8549,-162.38053 7.2182,-209.29055 -3.6085,-78.18336 -10.8247,-149.15096 -21.65,-212.90055 -4.8114,-54.12693 -28.2665,-79.38662 -70.3651,-75.77818 0,-92.61727 -9.0229,-160.57591 -27.0653,-203.87753 -12.8628,-30.87079 -35.0714,-50.52616 -66.2747,-59.38839 0.152,-0.0413 0.2673,-0.11202 0.4202,-0.15277 9.0211,-2.40562 22.2531,-5.41254 39.694,-9.02102 17.4409,-3.60844 32.7766,-2.70517 46.0078,2.70752 13.231,5.41273 30.0701,7.51636 50.5179,6.3135 20.4481,-1.20285 34.2804,-12.02816 41.497,-32.47608 1.203,-7.21692 -1.2017,-9.62163 -7.2158,-7.21602 -3.6086,0 -10.2244,2.40477 -19.847,7.21602 -9.6227,4.81129 -26.1605,1.80439 -49.6157,-9.02102 -23.4549,-10.82542 -43.6023,-14.43453 -60.4415,-10.82602 L 635.43087,80.317802 c 19.2451,-3.608429 28.5671,-17.74174 27.9656,-42.399609 -0.6015,-24.657869 -13.2314,-37.28770424 -37.8891,-37.88909768 -24.6579,-0.60139344 -40.5957,8.12023318 -47.8126,26.16257268 -7.217,-18.0423395 -22.8538,-26.76396612 -46.9102,-26.16257268 z m 8.1206,16.23904768 c 21.0492,0.601394 31.5736,21.3507 31.5736,62.24666 V 222.85315 c -15.6367,-13.23105 -34.8824,-19.84704 -57.7362,-19.84704 l 27.0631,-138.925344 c -21.6509,1.202853 -32.4762,-6.615576 -32.4762,-23.455061 0,-16.839551 10.5264,-24.959024 31.5757,-24.357562 z m 79.3861,0 c 21.0494,-0.601462 31.5737,7.518011 31.5737,24.357562 0,18.042341 -10.8253,25.860769 -32.4762,23.455061 l 27.0632,138.925344 c -22.8537,0 -42.0977,6.61599 -57.7341,19.84704 V 78.514803 c 0,-40.89596 10.5242,-61.645266 31.5734,-62.24666 z m -38.7915,249.887137 c 40.8956,0 70.0637,18.64366 87.5047,55.93114 17.4407,37.28746 26.1624,102.23923 26.1624,194.8565 V 670.3043 H 574.08667 V 414.10164 c 4.8112,-7.21691 11.1262,-15.33637 18.9445,-24.35756 7.8184,-9.02117 11.7286,-20.14758 11.7286,-33.37858 0,-18.04233 -7.8184,-27.06307 -23.455,-27.06307 -10.8255,0 -17.4415,5.41362 -19.8471,16.23904 0,-13.23104 -6.3149,-21.65155 -18.9446,-25.26006 -12.6295,-3.60844 -30.3718,-5.41302 -53.2256,-5.41302 3.6085,-32.47617 33.6795,-48.71311 90.2123,-48.71311 z m -69.4627,64.4999 c 7.8185,0.30069 15.3357,1.65462 22.5526,4.06025 14.4338,4.8113 21.65,14.43418 21.65,28.8681 h 18.0441 c 0,-13.23105 3.0069,-19.84705 9.021,-19.84705 7.2169,0 10.824,4.20924 10.824,12.62902 0,6.01405 -4.8116,14.73576 -14.434,26.16258 -9.6227,11.42679 -16.8388,21.3508 -21.65,29.77056 v 276.04772 h 111.8623 l -3.6081,16.23703 h -164.1855 c -21.6508,0 -36.6854,-10.22309 -45.1051,-30.67108 13.2312,-22.85363 18.6427,-51.12025 16.2371,-84.79923 -2.4058,-33.67901 7.8194,-51.72248 30.6731,-54.12812 26.4622,-1.20279 41.7976,-9.92248 46.0076,-26.16057 4.2099,-16.2381 1.5021,-33.98046 -8.1205,-53.22563 h -41.4971 c -9.6225,0 -14.4341,-3.00696 -14.4341,-9.02103 0,-10.82541 4.8116,-16.8392 14.4341,-18.04204 0,-4.81128 -1.8046,-7.81824 -5.4132,-9.02103 h -19.8449 c 3.6084,-8.41977 -5e-4,-13.83341 -10.8259,-16.23904 0,-4.81127 5.4135,-16.83898 16.2389,-36.0841 0,-13.23106 2.4047,-24.65852 7.216,-34.28107 8.4198,-1.80426 16.5393,-2.55597 24.3576,-2.25527 z m -4.5105,9.92352 c -9.0212,0.30073 -16.2394,3.15808 -21.6521,8.57078 v 9.02104 c 13.231,-10.82542 31.2744,-11.42765 54.1281,-1.80502 h 10.826 v -9.02102 h -10.826 c -12.6295,-4.81129 -23.4548,-7.06649 -32.476,-6.76578 z m 3.6081,13.9838 c -14.434,0 -23.4547,5.41161 -27.0633,16.23703 l 1.8031,3.61003 h 5.413 c 3.6085,2.40563 8.42,3.608 14.4341,3.608 6.0142,0 17.4415,-4.20925 34.281,-12.62904 l 10.826,1.803 v -5.41301 h -10.826 c -14.4341,-4.81128 -24.0568,-7.21601 -28.8679,-7.21601 z m 1.8048,5.41301 c 6.0143,1.20278 11.4259,3.00737 16.2371,5.41301 -3.6086,1.20288 -9.6222,3.00539 -18.0419,5.41101 2.4055,-1.20285 3.6079,-3.00535 3.6079,-5.41101 0,-1.20277 -0.6002,-3.00736 -1.8031,-5.41301 z m -10.826,1.803 c -1.2028,1.20286 -1.8049,2.40724 -1.8049,3.61001 0,2.40566 1.2043,4.20816 3.61,5.41101 -3.6084,0 -8.42,-0.60014 -14.4342,-1.803 4.8114,-4.81128 9.0207,-7.21802 12.6291,-7.21802 z m 187.6404,326.56785 h 25.2603 l 14.4339,1.803 c 6.0141,39.6931 15.0348,71.56883 27.0631,95.62523 -3.6084,27.66491 -2.105,60.14077 4.5104,97.42826 6.6157,37.28753 9.3213,77.58178 8.1187,120.88335 -16.7537,22.6669 -25.9089,40.8165 -27.7245,54.6005 h -49.7 c 6.8569,-33.6401 10.6673,-61.35645 10.6673,-81.66362 0,-45.70719 -12.0277,-92.01532 -36.0841,-138.92534 4.8113,-56.53265 12.6296,-106.44986 23.4549,-149.75138 z m -155.1642,34.27908 h 113.6672 c -4.8111,14.43389 -10.2249,53.52579 -16.2389,117.27528 25.259,45.70726 37.8891,91.41517 37.8891,137.12236 0,20.30712 -4.0205,48.02362 -11.2584,81.66362 h -182.9128 c 2.0439,-33.4765 6.8558,-67.88991 14.649,-103.31368 19.8467,-90.21161 34.5823,-167.79523 44.2048,-232.74758 z m -59.913,369.11616 176.0083,1.7327 c -4.301,16.9944 -9.3138,35.2973 -15.0591,54.9522 -22.8533,78.1835 -29.1664,136.22 -18.9424,174.109 10.2239,37.8889 15.3345,81.7921 15.3345,131.7093 0,49.9169 -7.8185,112.7634 -23.4552,188.541 h -120.8833 c 16.8394,-64.9522 25.26,-134.1133 25.26,-207.4856 0,-74.575 -8.7218,-150.655 -26.1625,-228.2369 -8.3157,-36.9904 -12.2612,-75.4602 -12.1003,-115.3217 z m -187.9963,71.7318 36.068,307.3823 -68.9524,-1.5678 z m 228.0622,513.5935 h 59.5412 v 28.868 c -2.4057,4.8114 -23.4561,15.6366 -63.1491,32.4762 3.6083,-24.0565 4.8106,-44.5046 3.6079,-61.3442 z" /></svg>
