<?xml version="1.0" encoding="UTF-8" standalone="no"?>
<svg
   width="1795.4396"
   height="1801.1945"
   version="1.1"
   id="svg5211"
   xmlns="http://www.w3.org/2000/svg"
   xmlns:svg="http://www.w3.org/2000/svg">
  <defs
     id="defs5215" />
  <path
     id="path5209"
     style="fill:#000000;stroke:none;stroke-width:100.215"
     d="m 982.44248,0 c -122.7748,0 -192.62931,58.565161 -209.5637,175.69516 -2.82246,22.57926 -3.52801,43.74671 -2.11679,63.50357 -19.75686,36.69132 -29.63499,62.09416 -29.63499,76.20624 0,8.46724 9.17259,13.40634 27.51821,14.8175 l -8.46714,14.8175 c 4.23362,5.64484 9.17264,8.46714 14.8175,8.46714 -4.23363,8.46718 -4.93925,16.22857 -2.11679,23.28464 l 10.58393,2.11679 c -8.46726,38.10256 7.05549,57.15518 46.56928,57.15518 h 40.21891 c 1.41123,15.52323 5.64479,29.63485 12.70072,42.3357 7.05607,12.70086 19.75847,27.51808 38.10411,44.4525 -56.44813,4.23367 -95.96256,19.05282 -118.54196,44.45447 -77.61621,90.31713 -174.5798,256.64171 -235.26162,376.59409 -68.59348,44.4684 -142.33622,108.56382 -178.30927,151.16112 -36.10606,42.7551 -75.15084,87.5634 -152.93429,141.7792 -22.72956,-3.3339 -48.64132,-4.9881 -77.73404,-4.9628 -13.89728,-1.4252 -29.0935,0.025 -45.58698,4.3522 -12.52275,4.7344 -28.258114,13.9053 -47.207667,27.5102 -18.949519,13.605 -37.219201,23.0156 -54.807154,28.2337 -5.4723075,4.4542 -8.9073948,8.6165 -10.30722183,12.4853 -1.39987647,3.8689 1.22103403,7.6484 7.86432143,11.339 -3.2833966,2.6726 -3.8102413,5.3771 -1.583142,8.1133 2.2271905,2.7361 4.7785754,4.7538 7.6548184,6.0519 -2.392552,3.7669 -2.476226,7.0176 -0.24903,9.7538 2.227172,2.7361 4.881425,3.7607 7.961161,3.0735 -3.28338,2.6725 -3.417493,6.4205 -0.401217,11.2439 3.016237,4.8232 7.707193,5.5556 14.0704,2.1959 23.670998,-15.6283 42.295382,-28.5144 55.874434,-38.6575 13.579007,-10.1432 36.657577,-17.5576 69.237257,-22.241 7.05042,-0.2803 10.97079,0.6225 11.75992,2.7097 0.78903,2.087 -1.45123,4.3655 -6.71996,6.8345 -7.25406,2.2654 -19.47073,4.0217 -36.65141,5.2692 -12.3192,2.7491 -22.03676,7.0189 -29.15077,12.8094 -7.114044,5.7908 -8.442808,11.4225 -3.988487,16.8948 4.454347,5.4723 13.592577,4.403 27.413467,-3.2078 13.21006,-1.6545 32.15245,-2.9707 56.82906,-3.9509 24.67659,-0.9803 47.81973,-13.9044 69.42898,-38.7721 l 82.9262,-45.664 c 127.02788,-68.0951 205.25625,-131.9088 298.11616,-215.4495 64.91544,-71.97141 132.24264,-183.96436 146.35466,-213.59968 -22.57931,50.80341 -2.82311,106.5462 59.26999,167.22805 -71.70213,28.01373 -121.49606,97.77663 -149.82498,154.29343 -27.18638,54.2374 -25.43934,144.9232 -0.46875,226.732 -162.28851,40.9251 -333.75051,104.4311 -514.38478,190.5145 -141.12048,73.3828 -158.760004,153.8209 -52.91964,241.3155 H 1206.8237 c 90.3172,4.2336 139.7098,1.4113 148.1769,-8.4672 h 33.8706 c 1.4112,-23.99 -10.5855,-38.1018 -35.9873,-42.3355 -2.8224,-12.701 -21.1677,-19.0512 -55.0364,-19.0512 -70.5605,-42.336 -99.4909,-79.0282 -86.7903,-110.0748 12.7009,-22.5791 21.5216,-46.5689 26.4609,-71.9707 4.9392,-25.4014 -12.3487,-40.2206 -51.8622,-44.4544 0,-261.073 24.6975,-481.9277 74.0894,-662.56183 h 48.686 V 690.07993 c 49.3922,105.84032 63.7282,323.45677 124.7105,403.75467 35.6001,178.9263 78.875,278.5148 137.1261,327.9044 7.3136,15.3725 15.5672,31.5379 25.8085,49.3818 6.0655,12.5054 15.6518,25.2149 28.7614,38.1258 9.8743,10.1803 27.3328,21.2202 52.3742,33.1217 25.0415,11.901 45.2797,26.2129 60.7147,42.9324 7.3807,4.383 13.5154,5.8662 18.4027,4.4511 4.888,-1.4149 7.5345,-5.6447 7.9396,-12.6888 3.2354,2.7305 6.2186,2.4785 8.9493,-0.7571 2.7305,-3.2353 3.0168,-5.763 0.8598,-7.5836 3.0671,0.7422 6.237,-0.2773 9.5067,-3.0577 3.2697,-2.7804 3.7405,-6.0751 1.4153,-9.8842 0.1681,1.9884 2.6554,1.7787 7.4591,-0.6305 4.803,-2.4095 3.8008,-8.3341 -3.0062,-17.7722 -29.5236,-17.5307 -52.9299,-30.8229 -70.2196,-39.8751 -17.2898,-9.0519 -38.136,-27.5678 -62.5351,-55.5463 1.0123,-4.1966 3.6261,-4.392 7.0797,-5.1052 14.0889,0.8107 26.2388,8.2951 36.4498,22.4526 8.9638,11.2589 17.9038,19.2646 26.8185,24.0179 8.9143,4.7536 15.5615,3.442 19.9445,-3.9391 3.4726,-6.3022 -2.7108,-14.2928 -18.551,-23.9686 -8.9641,-11.2591 -22.3263,-27.1534 -40.0866,-47.6819 -17.7599,-20.529 -34.3932,-32.3437 -77.0954,-51.7634 0.4116,-86.0434 -44.634,-284.447 -66.7405,-299.3231 -43.5675,-116.01869 -79.441,-369.38695 -155.6461,-468.17126 -28.2241,-43.74739 -55.0382,-65.62232 -80.4399,-65.62232 V 393.72603 C 1303.8244,283.78244 1271.7851,181.60026 1249.1614,141.82659 1194.1243,47.275853 1105.2173,0 982.44248,0 Z m 5.29298,39.161515 c 102.31224,0.705582 173.57804,37.044012 213.79734,109.015435 40.2194,71.97143 60.3292,196.86314 60.3292,374.67497 V 793.8044 H 995.14322 V 330.22247 c 8.46728,-14.11202 20.81578,-33.86829 37.04468,-59.26999 16.2287,-25.40171 23.9902,-52.21573 23.2847,-80.43983 -0.7055,-28.22409 -17.2876,-39.5134 -49.7454,-33.86856 -23.99045,-1.41122 -38.10203,11.99483 -42.33576,40.21892 -1.41123,-21.16802 -14.11165,-37.39637 -38.10214,-48.68606 -23.99048,-11.2896 -58.56597,-13.40643 -103.72446,-6.35036 C 830.03207,72.677553 885.42309,38.455933 987.73546,39.161515 Z M 856.42559,163.25929 c 12.03936,-0.52921 28.64457,2.91028 49.81265,10.3191 28.22409,9.87846 42.33569,28.9291 42.33571,57.15319 h 27.51817 c 4.23367,-25.4017 13.40616,-38.10214 27.51828,-38.10214 11.2897,0 13.4064,12.70044 6.3503,38.10214 l -59.26998,93.14053 v 173.57838 h -6.35035 c -21.1681,-11.28967 -36.69081,-40.21846 -46.56927,-86.7882 h -57.15519 c -21.16803,0 -31.75178,-6.35218 -31.75178,-19.05304 0,-19.75686 9.87819,-31.04617 29.63499,-33.86857 0,-9.87846 -3.52798,-15.52312 -10.58392,-16.93429 h -38.10214 c 8.46717,-16.93446 0.70585,-28.22371 -23.28463,-33.86856 1.41123,-9.87839 11.99491,-33.16455 31.75177,-69.85589 0,-26.81293 2.11675,-46.5692 6.35035,-59.27 15.52333,-4.23362 29.2831,-8.46708 41.27832,-12.7007 2.99882,-1.05841 6.5036,-1.67554 10.51672,-1.85195 z m -3.10897,21.4327 c -18.34565,0.35281 -33.16286,5.82055 -44.45249,16.4046 v 19.05107 c 26.81286,-21.16809 63.50508,-23.28484 110.07481,-6.35036 h 16.93428 v -12.70071 l -16.93428,-2.11679 c -25.40168,-9.87843 -47.27667,-14.6406 -65.62232,-14.28781 z m 4.23358,26.98852 c -26.81296,0 -43.74685,10.58566 -50.80286,31.75376 l 2.11679,8.46713 12.70071,-2.11677 c 7.05601,5.64476 16.22859,7.76158 27.51822,6.35035 9.87846,0 32.45901,-7.05782 67.7391,-21.16982 l 21.16785,2.11678 -2.11679,-10.58393 h -19.05106 c -29.63525,-9.87839 -49.39349,-14.8175 -59.27196,-14.8175 z m 4.23356,12.70071 c 11.28963,1.41116 22.58092,4.23352 33.87055,8.46715 -7.056,4.23362 -19.05284,8.46908 -35.98733,12.70268 4.2337,-4.2336 6.35035,-8.46906 6.35035,-12.70268 0,-2.8224 -1.4111,-5.64476 -4.23357,-8.46715 z m -21.16785,2.11679 c -1.41123,1.41123 -2.11679,4.23352 -2.11679,8.46715 0,4.2336 2.82231,7.76353 8.46715,10.58589 -8.46717,1.41123 -17.63975,-0.002 -27.51822,-4.23553 8.46724,-9.87848 15.5231,-14.81751 21.16786,-14.81751 z m 69.8559,345.04195 h 40.21891 v 268.83371 h 254.01618 c -50.803,182.04543 -78.3208,414.89683 -82.5546,698.54923 -14.1121,117.1297 -72.6771,172.1672 -175.69514,165.1111 -110.074,-7.0561 -224.03021,-26.1087 -341.86578,-57.1552 -117.83558,-31.0466 -251.54806,-3.5268 -401.13577,82.5566 -19.75686,9.8785 -38.80749,1.0578 -57.15321,-26.4608 -18.34563,-27.5185 4.93848,-60.3291 69.85392,-98.4315 129.83085,-60.6818 304.82276,-124.8915 524.97068,-192.6295 -13.84518,-101.5861 -23.5304,-174.1067 -5.20726,-236.2425 22.84709,-77.477 62.33919,-104.7561 165.29727,-178.35807 -43.76781,-46.42595 -76.12409,-100.49133 -81.76896,-135.7715 25.40171,-46.56973 46.56917,-82.90815 63.50357,-109.01544 16.93453,-26.10729 26.10901,-86.43538 27.52019,-180.98613 z" />
</svg>
