<?xml version="1.0" encoding="UTF-8" standalone="no"?>
<svg
   width="1341.6162"
   height="1795.293"
   version="1.1"
   id="svg1416"
   sodipodi:docname="US9B23AVARA.svg"
   inkscape:version="1.2.1 (9c6d41e410, 2022-07-14)"
   xmlns:inkscape="http://www.inkscape.org/namespaces/inkscape"
   xmlns:sodipodi="http://sodipodi.sourceforge.net/DTD/sodipodi-0.dtd"
   xmlns="http://www.w3.org/2000/svg"
   xmlns:svg="http://www.w3.org/2000/svg">
  <defs
     id="defs1420" />
  <sodipodi:namedview
     id="namedview1418"
     pagecolor="#ffffff"
     bordercolor="#000000"
     borderopacity="0.25"
     inkscape:showpageshadow="2"
     inkscape:pageopacity="0.0"
     inkscape:pagecheckerboard="0"
     inkscape:deskcolor="#d1d1d1"
     showgrid="false"
     inkscape:zoom="0.20526726"
     inkscape:cx="484.73391"
     inkscape:cy="813.57349"
     inkscape:window-width="1920"
     inkscape:window-height="1017"
     inkscape:window-x="1072"
     inkscape:window-y="-8"
     inkscape:window-maximized="1"
     inkscape:current-layer="svg1416" />
  <path
     id="path1414"
     style="fill:#000000;stroke:none;stroke-width:98.9601"
     d="m 887.11616,0 16.62111,61.396484 c -11.5377,7.547274 -20.05347,16.278395 -25.18752,26.333984 -11.43369,22.394182 -20.32577,44.166352 -26.67773,65.316412 -12.70409,16.17355 -26.67897,37.94573 -41.92383,65.3164 -6.35196,17.41769 -6.03411,27.37115 0.95312,29.85938 6.9872,2.48829 15.56327,6.22084 25.72657,11.19726 -10.1633,3.73241 -14.61031,7.15339 -13.33985,10.26368 1.27033,3.11032 6.9871,5.28713 17.15039,6.53125 1.2704,-1.24412 -1.58894,0.31165 -8.57617,4.66601 -6.98723,4.35446 -7.62113,8.08698 -1.9043,11.19727 5.7168,3.11032 8.57422,9.64275 8.57422,19.5957 -1.27033,14.92946 3.81247,24.25979 15.2461,27.99219 6.84497,5.18132 31.71585,5.88548 39.0684,4.99023 7.1871,-0.87516 12.328,-1.38699 20.0058,-1.25781 10.1633,13.68535 6.986,31.10384 -9.5293,52.25391 -41.92337,100.77374 -67.64962,184.12993 -77.17772,250.06836 -9.52796,65.93839 -11.75148,161.11524 -6.66992,285.52734 -0.89618,0.0716 -1.75465,0.193 -2.65039,0.26562 L 584.43061,421.08399 c -3.39721,-26.03218 -11.19322,-40.14637 -23.38672,-42.33985 -15.67733,-2.82017 -38.62532,14.06471 -68.84375,50.65235 C 373.32491,558.76051 224.60805,703.53454 93.424754,835.65625 l 28.833986,18.53125 42.84765,-47.20117 37.21289,24.4082 -35.4414,49 26.98437,18.08204 35,-47.18946 37.6543,22.59375 -30.32813,52.16797 28.83399,18.5293 285.28515,-520.26367 232.08008,510.65234 c -116.50702,11.16698 -227.0011,29.85482 -305.92187,50.40039 -27.59762,7.18452 -40.14149,13.13742 -62.88672,22.39451 -58.4387,22.3943 -88.92795,71.5384 -91.46875,147.4297 -21.59692,111.9709 -38.11325,215.855 -49.54688,311.6524 -11.43369,95.7972 -33.34687,158.9373 -65.74218,189.4179 -32.39542,30.4811 -82.89613,56.2972 -151.498046,77.4473 -38.11218,9.953 -56.5321204,30.4809 -55.26172041,61.584 H 337.35444 c 38.11224,-3.7324 59.07552,-14.6184 62.88672,-32.6582 3.81123,-18.0397 0.95192,-37.9465 -8.57617,-59.7188 -9.52803,-21.7722 -14.92687,-45.0984 -16.19727,-69.9804 -1.2704,-24.8826 15.24596,-82.7359 49.54687,-173.5567 38.11221,-73.4031 59.39143,-134.6757 63.8379,-183.8183 4.44636,-49.1429 16.83168,-78.6916 37.1582,-88.6446 h 9.5293 v 608.377 h 745.09571 v -658.7637 h 60.9805 V 851.00196 c 0,-46.03254 -30.4913,-69.04883 -91.4707,-69.04883 -60.9797,0 -91.4688,23.63744 -91.4688,70.91406 0,197.81531 -7.6223,296.72461 -22.8672,296.72461 h -54.9335 c 28.8509,-35.5264 47.8517,-96.3484 56.8378,-182.88672 V 925.64844 541.21485 h 36.2071 c 8.8948,-114.45917 13.6596,-219.58944 14.2929,-315.38672 0.5412,-81.61045 -19.1669,-135.184771 -58.7324,-161.26563 L 1143.0303,0 Z m 39.20311,30 H 1106.081 l -4.4961,21.421875 c -31.9946,-10.774121 -62.0733,-16.645767 -90.0879,-17.242188 -17.80533,-0.379078 -34.80813,1.296945 -51.00583,5.029297 -10.7726,2.482285 -20.5506,5.353184 -29.3477,8.609375 z m 72.4043,34.578125 c 28.34613,-0.583191 58.47973,4.957467 90.39843,16.621093 42.5587,15.551506 63.8379,61.895742 63.8379,139.031252 0,77.13545 -3.8112,172.31044 -11.4336,285.52539 h -97.1875 c -8.8923,-131.87676 -10.1625,-208.39095 -3.8105,-229.54101 19.058,-23.63829 28.9038,-49.14298 29.5371,-76.51368 0.6352,-27.37066 -6.3532,-44.16611 -20.9629,-50.38671 -14.6097,-6.22064 -30.806,-6.22064 -48.5918,0 -5.08163,-22.39418 -37.47833,-34.21292 -97.18753,-35.45704 8.8929,-24.882378 31.4438,-40.433682 67.6504,-46.654294 9.0517,-1.555156 18.3013,-2.430607 27.75,-2.625001 z m -86.1992,75.113285 c 52.9401,1.90509 77.1866,21.90857 72.7402,60.00976 h 19.05673 c 0,-19.90595 5.0808,-29.85742 15.2441,-29.85742 15.2449,0 22.8672,10.57455 22.8672,31.72461 0,21.15007 -10.7979,44.78757 -32.3945,70.91406 -1.2707,51.00897 -1.9063,90.19962 -1.9063,117.57032 -20.32663,7.46472 -38.74643,3.7322 -55.26173,-11.19727 1.2707,-6.2206 1.2707,-18.35091 0,-36.39062 -1.2704,-18.03982 -18.1045,-24.88178 -50.5,-20.52735 -32.39536,4.35446 -45.41649,-5.9105 -39.06446,-30.79297 19.05593,-11.19706 25.72646,-19.28327 20.00977,-24.25976 -5.71686,-4.97652 -16.19851,-7.46485 -31.44336,-7.46485 0,-8.70883 -6.98843,-16.79505 -20.96289,-24.25976 13.97446,-32.34712 27.94943,-54.74239 41.92382,-67.18359 13.97457,-8.70886 28.26752,-9.32996 42.87692,-1.86524 14.6097,7.46472 30.1725,12.43951 46.6875,14.92774 v -9.33008 c -10.1633,0 -22.8664,-4.66521 -38.1113,-13.9961 -15.2449,-9.33088 -31.1253,-10.88665 -47.64062,-4.66601 l 11.4336,-13.0625 c 8.73402,-0.46654 16.88242,-0.56513 24.44532,-0.29297 z m -14.4707,29.59766 c -6.491,-0.40824 -12.35724,1.02131 -17.59767,4.2871 l -13.33984,13.0625 v 9.33008 l 5.71679,-1.86523 c 19.05622,9.95301 40.01932,9.95301 62.88672,0 l 20.9609,5.59765 v -13.0625 h -20.9609 c -14.2921,-10.88605 -26.8477,-16.66924 -37.666,-17.3496 z m -6.1641,8.01953 c -3.81123,4.97642 -3.81123,9.95125 0,14.92773 -5.08156,-2.48822 -9.52856,-4.35354 -13.33982,-5.59766 1.27047,-3.73238 5.71746,-6.84188 13.33982,-9.33007 z m 15.2461,1.86523 20.961,13.0625 c -7.6226,1.24411 -14.609,1.86719 -20.961,1.86719 5.0813,-4.97645 5.0813,-9.95317 0,-14.92969 z m -59.0742,54.11914 c -1.2704,0 -2.54203,0.93266 -3.8125,2.79883 -1.2704,1.86617 -1.9043,4.04491 -1.9043,6.5332 3.81127,-2.48829 7.93837,-1.24406 12.38477,3.73242 4.44636,4.97653 8.89341,6.22062 13.33984,3.73243 4.44646,-2.4883 6.03414,-5.91117 4.76367,-10.26563 -1.2703,-4.35436 -2.54014,-6.53125 -3.81054,-6.53125 -1.27047,0 -1.90625,1.86727 -1.90625,5.59961 0,3.73228 -0.95186,5.90906 -2.85742,6.53125 -1.90567,0.62205 -4.76498,-1.24515 -8.57618,-5.59961 -3.81123,-4.35436 -6.35076,-6.53125 -7.62109,-6.53125 z m -0.95312,30.79297 c 1.58798,-0.31103 3.49359,-0.31103 5.71679,0 4.44646,0.62205 9.84521,1.55472 16.19727,2.79883 6.35196,1.24412 8.89344,1.86523 7.62304,1.86523 l -30.49023,1.86719 c -3.81126,-1.24411 -4.76497,-2.79984 -2.85937,-4.66602 0.9528,-0.93305 2.22448,-1.5542 3.8125,-1.86523 z m 29.5371,10.26367 c -2.54083,1.24411 -6.35199,2.79985 -11.43359,4.66602 -5.08156,1.86617 -8.89276,3.41995 -11.43359,4.66406 -3.8112,0 -6.03476,-0.62115 -6.66992,-1.86523 -0.6352,-1.24412 -0.31728,-2.48831 0.95312,-3.73243 z m 62.88482,132.5 c 21.5966,22.39411 44.4637,29.8573 68.60153,22.39258 1.2704,7.46472 3.8117,36.70197 7.6231,87.71094 -55.89823,-3.73235 -90.83413,-14.92798 -104.80863,-33.58985 z m -41.9239,119.43555 c 26.6786,16.17354 58.1217,24.88284 94.3281,26.12695 36.20673,1.24411 63.20253,-2.48844 80.98833,-11.19726 h 28.584 v 268.73046 c 5.0817,223.94179 -36.8411,337.15819 -125.76953,339.64649 H 531.72749 c -43.19384,4.9764 -67.96633,27.3716 -74.31836,67.1836 -11.4337,69.6707 -28.90178,133.1218 -52.4043,190.3516 -23.50252,57.2294 -46.68737,123.1673 -69.55469,197.8144 l 1.9043,63.4512 c 29.21935,52.253 21.59705,82.7342 -22.86719,91.4434 H 72.473584 l -1.9043,-1.8672 c 72.413116,-19.9062 127.358956,-44.1665 164.835936,-72.7813 37.47698,-28.6149 61.93157,-95.487 73.36523,-200.6152 11.43363,-105.1282 28.58581,-213.6775 51.45313,-325.6485 2.54086,-64.6941 27.94921,-102.641 76.22461,-113.8378 41.92344,-16.1737 95.59755,-30.4826 161.02344,-42.9239 65.42592,-12.44108 155.30797,-22.39269 269.64453,-29.85741 -10.16323,-195.32698 5.3e-4,-344.00167 30.49021,-446.01953 z M 386.93452,588.1836 220.92085,803.26563 192.08686,784.73438 Z M 412.06538,605.81446 281.85444,843.04102 252.0478,820.4336 Z m 836.17382,215.32812 c 34.3009,0 52.0868,10.57454 53.3575,31.72461 v 251.93551 h -36.2051 V 972.30469 h -38.1133 V 1408.9922 H 920.47357 v 337.7793 H 588.89741 V 1186.916 h 417.33009 154.3535 c 24.1382,2.4882 36.8433,-9.9536 38.1133,-37.3242 V 852.86719 c -1.2703,-21.15007 15.2442,-31.72461 49.5449,-31.72461 z M 956.68057,1440.7168 h 270.59773 v 18.6621 H 973.83097 v 287.3926 h -17.1504 z m 55.26373,52.2539 h 215.334 v 253.8008 h -217.2402 z" />
</svg>
