<?xml version="1.0" encoding="UTF-8" standalone="no"?>
<svg
   width="1191.2031"
   height="1798.3912"
   version="1.1"
   id="svg5335"
   xmlns="http://www.w3.org/2000/svg"
   xmlns:svg="http://www.w3.org/2000/svg">
  <defs
     id="defs5339" />
  <path
     id="path5333"
     style="fill:#000000;stroke:none;stroke-width:100.26"
     d="m 760.71875,0 c 15.38508,49.483481 28.51702,109.62642 39.62695,179.32599 -28.43283,9.00573 -50.87931,22.70578 -67.32422,41.1104 -8.51586,-18.54325 -5.12593,-35.35345 10.63477,-50.36185 18.25638,-17.38502 21.83119,-35.996 10.72461,-59.70273 3.17329,-12.643663 -0.40149,-25.247024 -10.72461,-33.939472 -7.7374,-6.519635 -15.92132,-9.706572 -24.55078,-9.55866 -2.8765,0.04931 -5.80155,0.469696 -8.77735,1.25997 -11.90977,3.160767 -22.62974,7.507382 -32.15624,13.039132 -9.48043,5.531553 -12.63867,11.85363 -9.47852,18.96566 3.17329,7.11196 12.29972,9.87891 27.38281,8.29869 15.08307,-1.58049 14.294,2.37029 -2.36914,11.85305 -16.64997,9.48269 -22.60543,33.18936 -17.86523,71.12024 4.12995,32.91036 15.59727,55.47514 34.08593,68.13754 -3.54294,9.38448 -6.45602,19.26339 -8.17968,30.074 -6.55229,24.78732 -9.82813,56.75006 -9.82813,95.88798 -18.34637,35.22413 -27.51953,59.35952 -27.51953,72.40549 0,6.52301 8.51878,10.43574 25.55469,11.74028 l -7.86328,13.69828 c 2.6209,5.21839 7.20756,8.47962 13.75976,9.78421 -3.93129,6.52301 -5.2421,13.69884 -3.93164,21.52643 h 11.79492 c -7.86265,36.52872 6.55148,54.79313 43.24414,54.79313 h 35.38282 c 9.17318,35.22414 26.20883,73.70929 51.10742,115.45641 -1.31046,1.3046 -13.75953,17.28694 -37.34766,47.94497 -23.58817,30.65802 -47.17554,67.18686 -70.76367,109.58626 -23.58813,42.39943 -19.00154,83.82014 13.75977,124.26259 9.17311,131.76441 -11.14035,253.09271 -60.9375,363.98351 L 428.51953,968.66599 C 403.62096,898.21775 366.27183,862.99185 316.47461,862.99185 L 214.25977,581.19998 343.99414,534.23305 328.26953,489.22413 196.56836,536.19106 C 222.77745,333.97854 180.84168,253.09156 70.763672,293.53409 -39.314342,332.672 -19.657227,422.03774 129.73438,561.62962 L 0,608.59655 17.691406,653.60353 145.46094,606.63854 239.8125,864.94986 c -70.76443,0 -83.86784,17.61289 -39.3125,52.83707 -1.31045,43.05172 9.82783,73.05618 33.41602,90.01597 v 39.1387 c 131.04521,384.856 193.9469,590.9842 188.70507,618.3808 -2.62089,28.701 -21.2945,53.4879 -56.02148,74.3615 -34.727,20.8737 -43.57302,40.4429 -26.53711,58.7073 h 780.377 c 26.2089,-13.046 26.2089,-31.3103 0,-54.7932 -68.1437,-82.1894 -90.095,-161.1182 -65.8516,-236.7849 24.2435,-75.6667 45.5385,-258.9642 63.8848,-549.88933 h 72.7304 V 673.17389 c 0,-185.25278 -20.3116,-316.03916 -60.9355,-392.35811 -22.9372,-43.0912 -57.5858,-74.00424 -103.918,-92.76528 C 1037.8123,114.52936 1052.066,51.566899 1069.332,0 Z m 41.2793,31.31064 h 226.05465 c -9.1281,33.7534 -18.912,83.12359 -29.33786,147.88118 -29.61046,-8.29503 -62.81179,-12.85441 -100.39843,-12.85441 -25.95758,0 -49.22222,2.11057 -70.10157,6.09179 C 818.30499,111.40255 809.51348,63.73197 801.99805,31.31064 Z m 100.25,170.24953 c 102.21525,0 169.37635,36.85652 201.48245,110.56625 32.1059,73.70975 48.1601,193.40559 48.1601,359.08947 V 917.78693 H 898.31641 V 469.65571 c 9.17325,-11.74133 20.96786,-29.35428 35.38281,-52.83707 14.41493,-23.48272 21.62305,-47.29049 21.62305,-71.42551 0,-24.13504 -15.07061,-36.20275 -45.21094,-36.20275 -22.27774,0 -35.38316,12.39346 -39.31445,37.18078 -10e-6,-26.09192 -11.46549,-42.39999 -34.39844,-48.923 -22.9329,-6.52299 -56.02263,-9.78421 -99.26758,-9.78421 7.86273,-57.40231 62.9019,-86.10378 165.11719,-86.10378 z M 776.44531,318.7296 c 14.41498,0.48922 28.17478,2.85516 41.2793,7.09511 26.20903,8.47989 39.3125,26.41661 39.3125,53.81316 h 31.45117 c 0,-24.78734 5.89738,-37.18079 17.69141,-37.18079 11.7941,0 15.72623,12.39345 11.79492,37.18079 l -58.9707,86.10376 v 185.90584 h -5.89844 C 832.13819,622.94633 817.72406,587.7224 809.86133,545.97527 h -55.03906 c -19.65683,0 -29.48438,-5.87104 -29.48438,-17.61235 1.31046,-19.56902 10.48369,-30.65751 27.51953,-33.26671 0,-9.13219 -2.62152,-13.69829 -7.86328,-13.69829 h -35.38281 c 6.55227,-15.65512 -0.65584,-26.74563 -21.62305,-33.26865 0,-9.1322 9.82957,-30.00441 29.48633,-62.61933 -1.31046,-24.78732 3.27613,-45.66149 13.75977,-62.62128 15.72541,-3.2615 30.79597,-4.64829 45.21093,-4.15906 z m -666.67383,6.20651 c 53.60576,-2.99649 70.08889,67.42315 49.44922,211.25495 C 36.038144,425.30031 11.138095,356.80874 84.523438,330.71681 c 9.173175,-3.42456 17.590082,-5.35263 25.248042,-5.7807 z m 658.31836,12.13888 c -17.36349,0.32616 -31.61308,5.38181 -42.75195,15.16631 l 1.96484,15.65629 c 23.58813,-19.56893 57.65944,-20.87382 102.21485,-3.91407 h 13.75976 v -13.69829 h -13.75976 c -23.58813,-9.13219 -44.06423,-13.53639 -61.42774,-13.21024 z m 4.42383,22.99445 c -24.89857,0 -40.62351,9.78363 -47.17578,29.35263 v 7.82815 h 13.75977 c 6.55227,3.9138 14.41478,5.87208 23.58789,5.87208 10.48364,0 32.10589,-6.52439 64.86718,-19.57036 l 17.69141,1.958 v -11.74222 l -17.69141,1.95607 C 800.03325,365.287 781.68686,360.06944 772.51367,360.06944 Z m 3.93164,11.74222 c 10.48364,1.30461 20.96753,3.9124 31.45117,7.82621 -6.55227,3.91378 -17.69251,7.82841 -33.41796,11.74221 3.93135,-3.9138 5.89843,-7.175 5.89843,-9.78421 0,-2.60918 -1.31073,-5.87042 -3.93164,-9.78421 z m -19.6582,1.95606 c -2.62091,1.3046 -3.92969,3.91436 -3.92969,7.82815 0,3.9138 2.61952,7.17501 7.86133,9.78421 -6.5522,1.30461 -15.06908,-2.9e-4 -25.55273,-3.91407 7.86273,-7.8276 15.06889,-12.39369 21.62109,-13.69829 z m 102.2168,360.06945 v 223.0866 H 1069.332 c -1.3104,80.88513 -8.8458,178.07813 -22.6054,291.57803 -13.7597,113.5 -31.1245,209.3881 -52.09183,287.6639 -20.96735,78.276 -6.55118,142.8547 43.24613,193.7341 H 456.03906 c 14.41495,-14.3505 23.91536,-38.486 28.50196,-72.4056 4.58658,-33.9196 -10.81115,-91.3225 -46.19336,-172.2075 L 292.88672,1043.0276 c -7.86273,-23.4828 7.20779,-35.2247 45.21094,-35.2247 38.00312,0 62.24691,9.1321 72.73046,27.3965 l 245.70899,356.1554 c 40.62404,27.3965 66.83482,13.6983 78.62891,-41.0949 47.17631,-108.2817 64.86635,-239.3937 53.07226,-393.33613 -45.86585,-48.27011 -22.27648,-122.63264 70.76563,-223.0866 z M 241.7793,904.0867 h 72.73047 c 24.89863,0 46.52088,21.52765 64.86718,64.57929 H 298.7832 c -38.00312,0 -57.0039,-21.52763 -57.0039,-64.57929 z" />
</svg>
