<?xml version="1.0" encoding="UTF-8" standalone="no"?>
<svg
   width="979.69678"
   height="1800"
   id="svg2214"
   version="1.0"
   xml:space="preserve"
   xmlns="http://www.w3.org/2000/svg"
   xmlns:svg="http://www.w3.org/2000/svg"
   xmlns:rdf="http://www.w3.org/1999/02/22-rdf-syntax-ns#"
   xmlns:cc="http://creativecommons.org/ns#"
   xmlns:dc="http://purl.org/dc/elements/1.1/"><metadata
     id="metadata2221"><rdf:RDF><cc:Work
         rdf:about=""><dc:format>image/svg+xml</dc:format><dc:type
           rdf:resource="http://purl.org/dc/dcmitype/StillImage" /></cc:Work></rdf:RDF></metadata><defs
     id="defs2219" /><path
     id="path2216"
     style="fill:#000000;stroke:none;stroke-width:67.1301"
     d="m 263.3125,0 c -15.51264,0 -30.13219,6.5317043 -40.74609,16.039062 -11.02212,9.920743 -19.21274,23.622252 -21.25391,39.330079 -1.63293,15.294456 3.7249,33.077074 16.78711,46.304689 l 17.05664,26.08203 -151.234375,598.61719 -21.25,-0.41797 h -1.21875 c -19.185591,0 -36.358722,0.42451 -46.972656,12.41211 -11.0221335,11.57414 -12.4510957,12.74067 -12.8593752,28.03515 -0.4079226,14.88108 4.1419104,29.71529 14.3476562,41.70313 9.38927,11.57433 24.952086,19.52539 42.097656,19.52539 0.816498,0 43.603244,-0.72857 23.429688,-0.41992 0,0 -29.156314,59.38111 10.779297,58.32031 39.936679,-1.06057 12.949219,-57.49219 12.949219,-57.49219 l 49.86523,-1.75586 c 0,0 -23.39312,55.08556 15.1211,55.42774 38.51527,0.33877 17.29492,-56.76758 17.29492,-56.76758 l 63.61719,0.41406 c 0,0 -21.47678,51.37853 16.57031,52.53125 38.04613,1.15221 15.12109,-53.87305 15.12109,-53.87305 l 51.31446,-0.30859 c 0,0 -19.22788,51.02993 13.67187,52.53125 31.282,1.42777 20.25866,-46.61999 19.07617,-51.47266 1.71784,-0.65605 3.41006,-1.17985 5.11328,-1.79101 l 34.17969,-0.73047 c 1.76747,0.74016 3.27699,1.21474 5.2207,2.13672 0.76078,0.66033 1.498,1.42152 2.25586,2.09375 -3.29862,10.59066 -13.16617,48.15025 15.71094,48.11523 27.50724,-0.0332 18.37647,-33.70196 14.17969,-46.03125 4.39946,-1.21252 8.98572,-3.14317 13.75195,-5.76171 l 35.60938,-0.21485 c 0,0 -23.3538,49.07959 13.71289,48.3418 36.3923,-0.72414 14.74332,-46.42916 13.9375,-48.10742 47.35337,1.44465 87.07309,0.29118 118.20898,-3.54493 l 11.97071,-0.62695 c 10.0488,-0.54931 19.58995,-0.85498 30.05273,-1.67383 17.33121,-0.87767 31.87255,-34.85461 39.12891,-62.33593 8.5206,9.15871 20.21511,14.43721 35.49414,15.33593 9.68157,15.06033 14.52343,45.72003 14.52343,91.97657 0,45.18087 -3.49601,84.17831 -10.48828,116.98828 -6.9922,32.80985 -10.48828,72.34255 -10.48828,118.59965 0,57.0134 7.26087,104.6165 21.78321,142.8046 14.52245,38.1888 21.24569,104.3498 20.16992,198.4766 -1.07561,94.1267 -3.76342,164.3198 -8.06641,210.5762 0,46.2566 -47.33539,83.3704 -142,111.3398 h -29.04492 c 0,22.5907 6.4545,33.8867 19.36328,33.8867 11.8331,0 22.32111,1.3439 31.46484,4.0332 9.14371,2.6892 30.39062,1.3454 63.73829,-4.0332 17.21177,5.3786 41.68577,5.3786 73.41992,0 31.73407,-5.379 58.09146,-5.1121 79.06836,0.8047 20.9768,5.9168 34.15453,3.4957 39.5332,-7.2617 5.37859,-10.7574 6.99129,-30.1208 4.83984,-58.0898 v -79.0664 h 6.45508 c 4.30298,-101.119 3.49462,-176.1541 -2.42187,-225.0997 -5.91645,-48.9454 -6.72079,-150.8738 -2.41797,-305.7792 18.2875,-49.4835 27.42968,-89.8254 27.42968,-121.02153 0,-30.12054 -5.37932,-56.476 -16.13671,-79.06641 -10.75733,-22.59035 -15.05973,-50.56049 -12.90821,-83.9082 2.15145,-33.34773 13.98532,-73.68912 35.5,-121.02148 h 20.97657 V 552.13281 c 0,-90.36172 -9.41293,-157.32736 -28.23829,-200.89453 -18.82531,-43.56717 -62.66274,-65.35156 -131.50976,-65.35156 -63.46824,0 -98.96793,22.05309 -106.49805,66.1582 -4.30296,13.98453 -6.45508,31.73533 -6.45508,53.25 -9.68166,19.36321 -14.52343,32.27221 -14.52343,38.72656 0,4.303 4.84177,6.45313 14.52343,6.45313 l -4.84179,8.06836 c 1.0756,3.22721 3.2278,4.8418 6.45508,4.8418 -1.07576,3.22712 -1.07576,6.99203 0,11.29492 h 6.45507 c -5.37865,19.36321 2.15282,29.04492 22.5918,29.04492 h 19.36133 c 5.37873,20.43889 12.37073,37.11264 20.97656,50.02148 -24.74182,0 -48.94512,6.45644 -72.61133,19.36524 -29.38871,6.25291 -49.11032,8.06259 -70.35351,10.10742 L 310.2832,22.732422 C 297.21993,7.8513237 280.45213,0.41336718 264.12305,0 Z m 0,35.982422 h 0.40625 c 6.12339,0 12.6851,2.057631 20.0332,10.738281 L 591.17969,588.58789 c -3.16989,0.47672 -5.57344,0.68234 -8.99414,1.25 -15.73864,-11.97765 -23.31269,-17.25161 -34.48633,-25.48047 L 243.41211,76.429688 c -6.12336,-6.613837 -7.44924,-11.501292 -6.63281,-16.875 0.81643,-5.373718 4.17157,-12.050656 9.07031,-16.597657 5.30702,-4.546999 11.3395,-6.974609 17.46289,-6.974609 z m -9.20703,122.736328 47.65039,83.26172 -132.41602,486.34765 -59.69726,-1.53515 z m 68.22461,109.06445 49.54492,85.07813 -10.6543,37.13281 c -0.89933,-0.2751 -1.51308,-0.54678 -2.48632,-0.82812 -1.71831,-2.73164 -10.78747,-4.01323 -27.20704,-3.85157 l -42.23242,5.5918 c 1.38082,4.21493 3.55672,6.66239 6.52344,7.33789 2.96669,0.67556 11.11585,-0.006 24.45117,-2.03906 11.92372,-1.8189 24.43729,0.28697 37.47656,5.89453 l -0.41797,1.45898 -21.30859,-2.00976 c -5.69837,1.04282 -14.04231,3.43215 -25.03515,7.16992 -10.99318,3.73783 -16.08735,7.26012 -15.2793,10.56445 1.14554,1.82109 4.85407,2.66338 11.125,2.53125 16.3079,-10.25838 32.15527,-12.68619 47.5918,-8.1289 l -0.30665,1.06836 c -8.49762,-0.67256 -14.86986,-0.8604 -17.54296,-0.20703 -3.87733,-0.10262 -8.09382,1.27485 -12.64649,4.13867 -5.46336,3.4367 -11.43342,9.10161 -17.91016,16.98828 -4.65533,6.74102 -6.24086,10.28113 -4.75781,10.61914 4.78777,-0.47007 9.0022,-1.85335 12.64453,-4.14453 12.12188,-13.51812 24.68001,-19.62993 37.66211,-18.50782 l -1.16211,4.05079 -5.23828,0.51367 c -7.51957,2.18819 -13.52313,6.27983 -18.00976,12.2793 -4.48673,5.99945 -10.25517,12.48866 -17.30469,19.46484 2.29111,3.64221 7.07879,3.17407 14.36328,-1.4082 8.27273,-9.37076 15.74424,-15.22682 22.56445,-18.21875 l -3.34961,11.67968 c -0.78536,-0.0283 -1.80193,-0.24748 -2.47265,-0.18164 -5.69831,1.04277 -8.0252,4.41286 -6.98242,10.11133 2.06876,0.71906 4.10545,1.11088 6.15039,1.58789 L 264.0957,728.4668 194.65039,729.16406 Z M 821.5625,305.25 c 55.93817,0 92.78367,20.97793 110.5332,62.93164 17.74962,41.95354 25.54991,105.96097 23.39844,192.01953 V 690.9043 H 819.94922 V 450.47461 c 5.37874,-6.45435 11.83318,-16.13607 19.36328,-29.04492 7.53011,-12.9088 11.29492,-25.81779 11.29492,-38.72657 0,-12.90885 -8.60464,-19.36328 -25.8164,-19.36328 -10.75733,0 -17.74934,6.99386 -20.97657,20.97852 0,-13.98466 -6.18763,-22.86191 -18.55859,-26.62695 -12.37093,-3.76505 -29.85098,-5.64649 -52.44141,-5.64649 C 736.04167,320.8486 765.62439,305.25 821.5625,305.25 Z m -67.36719,62.72852 c 7.79913,0.40339 15.19323,1.81591 22.18555,4.23632 13.98448,4.84081 20.97851,14.79134 20.97852,29.85157 h 17.74804 c 0,-13.98453 3.22923,-20.97657 9.6836,-20.97657 6.45441,0 9.68164,3.76678 9.68164,11.29688 0,6.4545 -4.03551,15.32786 -12.10352,26.62305 -8.06798,11.29525 -14.79134,21.24568 -20.16992,29.85156 v 104.88476 h -6.45313 c -11.83308,-18.28752 -19.90223,-38.72598 -24.20507,-61.3164 h -29.04493 c -10.75734,0 -16.13671,-3.2273 -16.13671,-9.68164 0,-10.75734 4.84179,-16.67424 14.52343,-17.75 0,-5.37866 -1.61458,-8.06836 -4.84179,-8.06836 h -19.36329 c 4.303,-8.60587 0.53819,-14.52278 -11.29492,-17.75 0,-4.30283 5.37948,-16.13673 16.13672,-35.5 0,-12.90871 2.68971,-24.20312 8.06836,-33.88477 8.6059,-1.61361 16.80837,-2.2198 24.60742,-1.8164 z m -5.24414,9.88281 c -9.14376,0 -16.67521,2.68969 -22.59179,8.06836 v 9.68164 c 12.90884,-10.75734 31.19708,-11.83042 54.86328,-3.22461 h 9.68164 v -6.45703 h -9.68164 c -12.37097,-5.37867 -23.12776,-8.06836 -32.27149,-8.06836 z m -359.75,2.05859 37.76758,62.34375 -2.81055,10.39063 c -9.63636,-18.70541 -19.3925,-32.91006 -29.27343,-42.38282 -4.60486,-4.10798 -8.19578,-7.0518 -11.61524,-9.60937 z m 362.97656,10.85156 c -13.98446,0 -22.59107,5.37939 -25.81835,16.13672 v 4.83985 h 6.45507 c 3.22722,2.15145 7.52953,2.69094 12.90821,1.61523 6.45442,0 18.28829,-3.22909 35.5,-9.68359 h 9.68164 v -4.83985 h -9.68164 c -15.06032,-5.37867 -24.74194,-8.06836 -29.04493,-8.06836 z m 1.61329,6.45508 c 5.37867,1.07576 10.75798,2.68832 16.13671,4.83985 -3.22722,2.15146 -9.14411,4.3016 -17.75,6.45312 2.15152,-2.15152 3.22657,-4.30165 3.22657,-6.45312 0,-1.07575 -0.53752,-2.68832 -1.61328,-4.83985 z m -11.29493,1.61328 c -1.07576,1.07576 -1.61328,2.68848 -1.61328,4.83985 0,1.07577 1.61263,2.68832 4.83985,4.83984 -4.30299,0 -9.14486,-0.53558 -14.52344,-1.61133 4.30298,-5.37866 8.06974,-8.06836 11.29687,-8.06836 z M 370.8457,444.10938 c 7.53978,5.14944 16.39856,13.31255 26.94727,25.33593 -3.87723,-0.1029 -9.07004,-1.28526 -15.57617,-3.54687 -6.22719,-3.09103 -10.66672,-4.71488 -15.66016,-6.79297 z m 72.63868,24.65429 22.19726,35.16797 c -6.64717,-5.03732 -15.08964,-13.48453 -24.95898,-24.64062 z m -80.41407,2.53321 c 7.71753,4.87251 16.56635,10.52752 19.79883,12.30273 4.85388,2.66558 11.61226,3.81251 20.27734,3.44531 l 8.6875,11.16406 -62.59179,231.37305 -59.83399,-0.69726 z m 66.65821,49.9082 39.3496,50.5664 -44.8457,159.06641 -49.27344,-0.83594 z m 57.35156,70.61914 18.88281,19.27344 c 3.324,3.01254 7.12612,5.81144 10.80859,8.66406 l -27.83398,111.91406 -38.98438,-0.41992 z m 315.11914,2.26367 v 30.6582 l -25.81836,20.97657 c 5.37866,-13.98462 13.98526,-31.19579 25.81836,-51.63477 z m -267.10938,38.29883 c 5.29615,3.25875 10.89135,6.38389 16.74805,9.39258 l 43.15491,82.61367 -80.7428,8.11875 z m 215.47461,0.42773 -8.06836,29.04493 c -12.31708,7.5271 -30.14267,14.01292 -47.90429,23.52539 -0.20876,-0.16457 -0.48289,-0.43028 -0.68164,-0.58008 l -20.92578,-36.09961 c 19.79435,-2.89519 43.0753,-7.08088 77.58007,-15.89063 z m -122.41797,20.93164 0.92383,1.62891 c 0.0667,0.18966 0.2113,0.51782 0.27149,0.69922 l 32.36212,50.76338 -19.3023,13.75022 -37.50514,-64.5136 c 7.29812,-0.80328 15.4632,-1.79247 23.25,-2.32813 z m 174.05274,48.45313 v 12.91016 h 101.6582 l -19.36328,50.02148 h -83.9082 l -19.36328,-50.02148 c 3.22713,-1.0757 10.21913,-5.38004 20.97656,-12.91016 z m 130.70312,12.91016 h 8.06641 l -20.97656,50.02148 h -8.06641 z m -172.65625,12.9082 6.45508,24.20508 c -17.21176,2.1515 -29.58316,-1.07774 -37.11328,-9.6836 10.75734,-4.30298 20.97657,-9.14276 30.6582,-14.52148 z M 61.046875,761.93945 c 142.746255,3.08406 357.160655,-0.13333 506.124625,2.51447 -16.91206,7.16678 -52.69024,25.13287 -64.50063,29.68729 -141.49824,3.71138 -360.07295,1.6448 -443.383761,-2.91269 -8.278523,-0.45313 -20.785076,-2.50368 -20.71289,-15.06446 0.07358,-12.5608 12.425007,-14.27705 22.472656,-14.22461 z m 728.244145,24.16797 h 112.95312 c -6.45435,16.13601 -9.68164,37.1141 -9.68164,62.93164 1.07569,30.12055 6.45508,55.13204 16.13672,75.03321 9.68165,19.90101 14.52148,44.91266 14.52148,75.0332 -1.07577,31.19643 -6.72387,59.70353 -16.94336,85.52153 -10.21948,25.8177 -15.33007,86.0603 -15.33007,180.7246 0,94.6644 2.96044,165.6633 8.87695,212.9961 5.91652,47.3319 5.10826,95.2054 -2.42188,143.6132 h -83.9082 c 5.37865,-49.4833 8.06836,-119.4097 8.06836,-209.7714 0,-70.9983 -6.45459,-125.8611 -19.36328,-164.5879 -12.90888,-38.726 -20.1696,-80.9497 -21.7832,-126.668 -1.61368,-45.719 1.34481,-92.7834 8.875,-141.19141 7.5302,-48.40805 11.29492,-83.90767 11.29492,-106.49805 0,-27.96904 -3.76472,-57.0163 -11.29492,-87.13672 z m 51.63671,864.89848 h 19.36133 v 48.4082 c 0,11.8334 -6.45254,19.363 -19.36133,22.5898 z" /></svg>
