<?xml version="1.0" encoding="UTF-8" standalone="no"?>
<svg
   width="1798.7129"
   height="1799.5031"
   version="1.1"
   id="svg1"
   xmlns="http://www.w3.org/2000/svg"
   xmlns:svg="http://www.w3.org/2000/svg">
  <defs
     id="defs1" />
  <path
     id="path1"
     style="fill:#000000;stroke:none;stroke-width:100.317"
     d="m 656.68555,0 c -35.81214,0 -64.87799,37.69593 -66.70313,70.054688 l -19.78906,350.853512 -35.37695,-0.32031 -1.03711,36.70508 54.16992,0.49023 c -7.45241,12.22404 -42.84593,12.87144 -53.32617,28.5918 -2.12424,-0.16996 -4.15421,-0.25586 -6.08789,-0.25586 -22.22026,0 -31.86469,11.22199 -28.93555,33.67774 -36.08446,11.67439 -54.12305,47.24458 -54.12305,106.67773 12.16027,-7.81736 23.98205,-11.73047 35.4375,-11.73047 2.54162,0 5.0631,0.19257 7.56836,0.57813 15.91959,0 28.64356,18.30876 38.19532,54.92382 9.55175,36.61493 33.95243,72.42028 73.2207,107.44336 -1.06122,55.18787 31.33005,125.78804 97.13086,211.75391 l -36.63086,20.69924 H 431.15235 c -32.90058,0 -49.34766,10.0871 -49.34766,30.2519 -17.41487,32.1087 -25.40636,55.9044 -24.4043,71.8262 H 324.32617 L 193.39649,509.70703 h -22.2793 L 20.951172,1112.2207 H 0 v 73.2988 h 57.324219 l 58.976561,117.7051 h 191.66016 l 58.97851,-117.7051 h 129.40626 l 368.56054,364.6934 -4.11632,249.2904 h 68.80664 l 4.11632,-230.0072 c 108.11331,0 151.24711,-35.379 129.40621,-106.127 123.4022,-36.017 151.2447,-94.5511 83.5371,-175.5898 l -83.5371,-102.2598 h 735.5938 v -68.6504 l -4.3868,-0.017 c 0.7048,-4.5758 1.1543,-9.7651 1.1543,-15.9922 0,-65.801 -22.0318,-100.0165 -66.0761,-102.66995 -44.0435,-2.65323 -98.9726,-16.96659 -164.7735,-42.96875 -65.801,-26.0019 -157.0788,-66.07458 -273.8222,-120.20117 -116.7437,-54.12719 -195.0227,-97.10861 -234.8223,-128.94776 -39.799,-31.83931 -82.50825,-85.4479 -128.1445,-160.80079 -20.75427,-35.35922 -68.45627,-69.06279 -93.52149,-85.26171 l 25.93555,0.23242 1.03906,-36.70313 -18.99609,-0.17187 1.58203,-1.7168 L 827.54102,75.662109 C 824.75334,38.052337 818.85927,0.634766 770.83203,0.634766 c -17.66034,0 -42.05263,9.051356 -54.70508,24.076172 C 704.24001,7.729734 675.70454,0 656.68555,0 Z m 0.85351,31.089844 c 23.9914,0.530629 43.72125,14.832631 42.66016,41.365234 l -6.37891,183.070312 c -42.45212,2.12264 -65.80555,27.60563 -70.05078,76.42578 0.97432,50.68906 22.35065,80.51378 63.61524,90.01563 l -86.14258,-0.7793 16.67969,-350.363281 c 0,0 15.62578,-40.265015 39.61718,-39.734375 z m 112.05665,2.416015 c 24.21783,0 25.8339,34.627208 29.30078,42.15625 l 14.47265,347.445311 -91.62304,-0.83008 c 42.53596,-7.10642 66.2336,-34.95671 70.76953,-83.94726 -4.24499,-47.75873 -27.05245,-74.83335 -68.44336,-81.20117 L 730.44922,74.058594 C 731.48988,48.04651 745.37798,33.505859 769.59571,33.505859 Z M 709.75,276.22656 c 36.08448,3.18392 56.25478,23.89651 60.5,62.10352 -4.24522,39.2684 -27.05636,61.03202 -68.44726,65.27734 -38.20703,-7.42922 -55.74065,-30.78238 -52.55664,-70.05078 3.18388,-38.20701 23.35821,-57.33008 60.5039,-57.33008 z m -28.64844,205.375 c 56.24915,0 88.87347,25.9901 97.89454,77.99414 9.02117,52.00395 -28.3756,95.52771 -112.21875,130.55078 141.15362,-23.34881 190.49729,-87.04462 148.04492,-191.05273 20.16503,0 47.24132,29.71332 81.20312,89.14648 33.9618,59.43328 63.91015,101.90952 89.91211,127.38086 26.0019,25.47134 94.1963,65.27175 204.5722,119.39844 110.3759,54.12647 239.3183,113.55325 386.8399,178.29297 57.3107,14.8583 108.2826,25.4876 152.8574,31.8555 23.7494,37.1729 24.8682,55.7343 3.4082,55.7343 l -1302.46285,-0.043 c -30.77804,0 -30.77804,-18.5456 0,-55.6914 h 267.4414 l 66.88086,-57.33011 C 684.81546,913.54636 646.06209,837.1265 649.2461,758.58984 607.85506,735.24104 580.00525,700.48516 565.67774,654.31836 551.35,608.15159 528.80915,585.07031 498.03125,585.07031 h 33.42188 c -13.79707,-22.28741 -19.11165,-39.7819 -15.92774,-52.51758 2.58495,0.59652 5.00318,0.89454 7.25391,0.89454 9.76183,0 16.37824,-5.60833 19.82812,-16.82032 23.34879,-23.3488 69.50909,-35.02539 138.49414,-35.02539 z m -84.37304,33.41992 c -25.47139,0 -38.23242,11.67672 -38.23242,35.0254 0,25.47134 12.76103,38.73561 38.23242,39.79687 25.47134,-1.06126 38.73956,-14.3254 39.80078,-39.79687 -1.06122,-23.3488 -14.32944,-35.0254 -39.80078,-35.0254 z M 179.74024,648.98242 283.04102,1108.7871 H 65.605469 Z m -63.43946,536.53708 h 191.66016 l -27.83399,55.9512 H 144.16602 Z m 473.41016,0 h 275.19531 v 266.2715 z m 380.04492,0 h 27.83397 l 114.67767,138.9258 c 30.5775,39.8763 9.8218,70.0985 -62.2539,90.6797 z m -36.04297,40.5352 80.25971,233.4766 c 13.1046,42.4484 -13.6443,63.6562 -80.25971,63.6562 z" />
</svg>
