<?xml version="1.0" encoding="UTF-8" standalone="no"?>
<svg
   width="1036.337"
   height="1799.063"
   version="1.1"
   id="svg1"
   sodipodi:docname="US9C17BVARA.svg"
   xml:space="preserve"
   inkscape:version="1.3 (0e150ed6c4, 2023-07-21)"
   xmlns:inkscape="http://www.inkscape.org/namespaces/inkscape"
   xmlns:sodipodi="http://sodipodi.sourceforge.net/DTD/sodipodi-0.dtd"
   xmlns="http://www.w3.org/2000/svg"
   xmlns:svg="http://www.w3.org/2000/svg"><defs
     id="defs1"><clipPath
       clipPathUnits="userSpaceOnUse"
       id="clipEmfPath1"><path
         d="M 0,0 H 124.43852 V 129.53846 H 0 Z"
         id="path1068" /></clipPath><pattern
       id="EMFhbasepattern"
       patternUnits="userSpaceOnUse"
       width="6"
       height="6"
       x="0"
       y="0" /></defs><sodipodi:namedview
     id="namedview1"
     pagecolor="#ffffff"
     bordercolor="#000000"
     borderopacity="0.25"
     inkscape:showpageshadow="2"
     inkscape:pageopacity="0.0"
     inkscape:pagecheckerboard="0"
     inkscape:deskcolor="#d1d1d1"
     inkscape:zoom="0.31775096"
     inkscape:cx="662.4685"
     inkscape:cy="967.73903"
     inkscape:window-width="1920"
     inkscape:window-height="1137"
     inkscape:window-x="-8"
     inkscape:window-y="-8"
     inkscape:window-maximized="1"
     inkscape:current-layer="svg1" /><path
     id="path1"
     style="fill:#000000;stroke:none;stroke-width:100.3"
     d="m 683.71667,0.11501796 c -40.2221,1.84826354 -65.8491,23.77826504 -71.3066,83.81019404 -2.147,75.969068 -4.2632,151.939258 -6.4156,227.908178 -26.0501,27.45111 -37.2377,57.41738 -37.7558,95.71752 -0.7326,54.07451 30.1037,83.82202 12.0759,83.82195 -22.9687,5e-5 -28.0393,-44.3475 -29.1671,-63.38868 -1.9156,-32.34621 -21.031,-59.92991 -43.6987,-81.79393 -5.282,-5.09483 -11.0248,-10.70174 -18.6073,-11.50721 -48.0728,-5.1066 -55.4332,4.318 -50.7459,17.50696 7.8357,24.09758 39.5404,3.00551 48.8591,12.6899 -5.1083,9.51833 -12.1185,18.77218 -13.2391,29.96345 -0.4668,4.66265 26.7369,131.45909 104.577,131.45909 10.9892,-3e-5 17.8921,0.17255 21.7434,-2.73215 l -0.359,12.73304 -12.8056,0.49034 v -1.70244 c -24.9694,19.29505 -36.3189,31.78078 -34.0489,37.45578 -4.5401,-5.675 -10.5008,-6.52618 -17.8776,-2.55367 -7.3776,3.97249 -10.4985,11.06748 -9.3636,21.28255 -32.9144,11.34992 -49.3728,46.53542 -49.3728,105.55562 18.1601,-10.21501 30.0782,-14.18714 35.7533,-11.91714 22.7002,0 53.9138,45.96868 93.6385,137.90406 -7.9451,5.67501 -19.012,18.1587 -33.1996,37.45384 -14.1878,19.29505 -21.2806,52.78011 -21.2806,100.45022 v 112.36541 l 42.563,-1.7024 c 0,45.4433 -2.8739,136.877 -7.0647,249.3693 C 487.76357,1188.8882 326.40634,1035.3464 271.52259,1007.9773 241.08576,939.9984 187.73606,912.20495 160.03783,901.55659 V 530.40753 c 0,-52.21023 -18.72956,-78.31647 -56.18466,-78.31647 21.56507,-32.91503 49.37372,-63.56092 83.42381,-91.93604 9.93131,-17.73449 9.44313,-26.37979 -1.46317,-25.93681 -6.54376,0.2658 -16.83768,3.8028 -30.88332,10.61283 -36.3202,30.64514 -60.72407,52.77932 -73.20913,66.39934 -29.51007,28.3751 -46.25157,49.6561 -50.22414,63.84371 C 27.52474,489.26162 17.02505,526.43505 0,586.59023 c 1.13495,32.91513 9.64853,36.31976 25.53866,10.21468 4.53992,-14.75505 11.06557,-33.19892 19.57814,-55.33148 8.51248,-22.1326 23.55177,-38.87414 45.11679,-50.22414 20.43008,1.135 30.646,14.18814 30.64601,39.15824 v 371.14906 c -34.39568,12.5271 -54.48465,38.80527 -49.37292,81.71941 1.00141,34.0464 29.02143,74.845 45.51887,101.7251 89.70729,239.4474 173.14028,467.4266 188.68523,516.0984 14.83256,68.5478 -110.14472,89.681 -165.18636,101.7623 -22.04095,4.6319 -77.65451,86.135 -42.91422,86.6443 35.74733,0.5239 162.14225,7.5585 175.88157,1.9791 35.01442,-14.2189 88.17261,-14.6714 120.6403,5.0583 33.794,6.8586 55.4958,-0.2856 65.1029,-21.4316 9.607,-21.1457 6.064,-65.6505 -10.6285,-133.5126 -0.3554,-1.8944 -0.6289,-4.174 -0.9768,-6.1214 14.96787,35.4036 15.39379,75.8125 39.54628,102.7444 31.73403,35.386 88.49976,52.8154 113.75632,58.1465 134.8224,5.1735 182.67979,3.8499 235.16393,-25.4095 87.2539,-48.6434 82.67946,-225.1456 88.62657,-334.5912 5.83133,-107.3149 17.3327,-227.6166 17.9757,-363.2802 h 93.63853 c 0,-194.36947 -57.10403,-371.13238 -170.79193,-530.43961 9.2538,6.9876 18.7835,13.34868 27.0586,18.89557 20.8632,13.98477 47.2518,16.30799 71.7754,13.31165 8.2719,-1.0107 3.5881,-4.88939 -1.9357,-5.79969 -19.1805,-3.16052 -38.2407,-10.23819 -54.547,-21.69247 -14.9318,-10.48884 -30.0142,-20.6111 -40.9215,-32.84075 l 12.7312,-420.382708 c -1.1351,-52.210174 -18.7275,-81.721131 -52.7779,-88.5311493 -34.0497,-6.8100195 -60.1563,1.1341454 -78.3165,23.8342533 -14.8963,-20.8557125 -36.5286,-30.6314676 -64.895,-29.32797804 z m 7.0099,36.13776404 c 24.9695,1.135061 37.4538,18.729671 37.4538,52.77977 l -12.2153,178.764738 c -13.3077,-0.6778 -43.3667,-1.81701 -74.7977,15.96338 5.4033,-64.84528 5.0886,-133.92222 6.9961,-199.835458 3.405,-31.78012 17.5928,-47.67243 42.5631,-47.67243 z m 114.0679,5.960525 c 26.1051,1.702493 39.1581,18.444026 39.1581,50.224137 l -7.3766,257.130236 c -9.9197,-21.0726 -38.182,-61.03096 -83.8769,-75.5392 l 11.2347,-184.995928 c 1.1343,-32.915105 14.7553,-48.52173 40.8607,-46.819245 z m -88.9314,269.066983 c 63.3319,4.03997 112.5412,68.78191 84.9243,134.0304 -30.6097,72.31882 -142.6789,83.99847 -182.4265,0 -27.8708,-58.8994 21.0948,-138.90449 97.5022,-134.0304 z m 93.6974,192.147 c 5.3122,6.47225 12.4693,14.37924 21.9142,24.01862 l -55.0726,2.10451 c 11.5549,-6.67672 23.0301,-15.91346 33.1584,-26.12313 z m -174.7754,23.4616 c 4.5464,2.85004 9.2123,5.34086 13.9903,7.5394 l -14.2805,0.54525 c 0.352,-2.66766 0.4665,-5.35989 0.2902,-8.08465 z m 57.644,26.93121 c 44.2646,0 69.2343,27.24124 74.9096,81.72136 5.675,54.48019 -38.5916,90.80045 -132.7969,108.96051 15.8903,7.94506 28.9432,20.99823 39.1583,39.15823 10.2152,18.16007 15.8914,36.88756 17.0265,56.18271 -14.7553,4.53999 -27.8081,1.98648 -39.1583,-7.66101 -11.3502,-9.64756 -24.9712,-34.33524 -40.8606,-74.06036 -24.9703,-66.96518 -55.0483,-99.88083 -90.2337,-98.74583 h -15.3219 c 3.405,-13.62006 10.2141,-16.4573 20.4292,-8.51223 5.6751,-9.08014 17.5932,-10.21489 35.7535,-3.4049 -15.8902,-17.02499 -23.8363,-33.48284 -23.8363,-49.37291 9.0801,1.13493 15.3238,-2.83902 18.7288,-11.91909 3.4051,1.13499 16.1744,-3.97202 38.3071,-15.32202 22.1328,-11.35006 54.7642,-17.02446 97.8947,-17.02446 z m 97.0433,13.61957 c 39.7254,2.27 83.4244,42.56435 131.0942,120.87959 47.6705,78.31533 71.5048,193.51995 71.5048,345.61044 l -60.69378,4.1222 C 930.96815,994.65126 917.04175,939.84159 896.4688,916.21919 860.45541,874.86767 850.39134,853.46248 784.36507,853.46248 l -35.85542,0.92698 1.80442,-72.43171 c 64.6958,-48.80511 77.7488,-120.31277 39.1583,-214.51808 z m -144.5687,4.16393 c -8.0426,-0.0798 -16.6037,0.23409 -25.6838,0.94341 10.2151,6.81006 12.4848,14.75621 6.8097,23.83621 -5.675,-9.08 -13.6191,-13.62153 -23.8342,-13.62153 -19.2952,0 -28.9436,11.91822 -28.9436,35.75334 11.3502,6.80992 16.4564,13.62118 15.3221,20.43133 -1.1351,6.80992 -2.8373,11.91694 -5.1073,15.32201 7.945,6.81 15.3236,26.67248 22.1337,59.58759 4.5401,0 7.3772,-1.70233 8.5123,-5.10734 -1.1351,-34.05004 -2e-4,-57.3172 3.4049,-69.80226 10.215,-20.43014 24.4029,-30.92974 42.5631,-31.49724 18.1601,-0.5675 32.6316,5.3907 43.4143,17.87569 10.7827,12.48507 14.471,26.67315 11.0659,42.56314 -3.405,15.89007 -27.8067,33.48274 -73.2072,52.7778 v 5.1093 c 70.3708,-18.16006 102.4348,-49.65904 96.1922,-94.49167 -5.4623,-39.22856 -36.3444,-59.12115 -92.6421,-59.67978 z m -42.7083,19.67229 c 11.35,0 17.0245,5.10701 17.0245,15.32201 0,9.08006 -5.6745,15.32199 -17.0245,18.72691 -6.8101,-1.13492 -13.6213,-3.97216 -20.4313,-8.51223 3.405,-17.025 10.2162,-25.5367 20.4313,-25.53669 z m 0,3.40489 c -6.8101,1.135 -10.7841,5.10705 -11.9191,11.91712 0,6.81 3.9742,10.78206 11.9191,11.91713 6.8101,-1.13507 10.7821,-5.10713 11.9172,-11.91713 -1.1351,-6.81007 -5.1071,-10.78212 -11.9172,-11.91712 z m 31.7091,276.06114 c 6.3845,0.39902 47.75981,0.40353 55.42041,5.51108 -29.5095,20.43005 -71.98604,110.54723 -75.21231,157.6767 h -20.4295 c -2.2699,-77.18025 2.2704,-125.70248 13.6196,-145.56511 7.0939,-12.41404 15.961,-18.28771 26.6018,-17.62267 z m 131.82517,25.28368 c 0,0 38.88901,-1.97431 54.71506,9.61848 29.38078,21.52181 62.66617,42.59366 62.66617,167.44382 -5.7205,141.4483 -19.0169,257.2086 -22.628,351.1061 -4.17742,108.6232 -5.47679,240.9174 -60.12892,296.4607 -45.64415,46.3883 -140.67725,25.407 -190.46608,23.3169 -21.4253,-0.8994 -56.89342,-9.2629 -80.76609,-35.1637 -39.60668,-42.9716 -65.59768,-121.4047 -77.15361,-199.9171 -18.52114,-125.8349 -95.8368,-267.2742 -118.42004,-297.2437 -19.04965,-25.2806 -70.54955,-51.1891 -70.54955,-51.189 28.74876,64.497 99.70667,148.8129 117.91013,250.083 22.29556,124.0351 27.34456,181.128 29.83406,247.0293 20.7967,65.9802 15.4475,96.8408 -16.0419,92.5873 -32.62585,-6.8437 -93.17572,-6.0055 -140.00466,2.44 -34.58318,-6.0758 -68.29527,-7.4806 -103.42167,-9.0027 74.73027,-30.163 216.3742,-36.4051 199.17252,-145.8063 -15.69189,-68.5276 -121.40311,-298.9543 -181.0242,-503.6005 2.63818,-27.6504 11.2439,-38.9409 28.32181,-39.7624 13.28291,-0.6391 31.69122,5.0547 56.40237,14.308 115.34275,40.7281 337.84023,328.6602 371.85503,387.6184 l 7.31,-69.4217 c 20.99543,-84.501 0.16624,-258.2644 35.99155,-374.8363 16.32521,-53.12058 56.39101,-120.49495 96.42602,-116.0686 z m -631.23047,42.98482 c 37.45517,0 67.53355,10.78364 90.23359,32.34844 -55.61512,-17.02467 -91.36799,0.56727 -107.25806,52.77794 -27.2401,-56.75067 -21.56568,-85.12638 17.02447,-85.12638 z"
     sodipodi:nodetypes="scccscssccssccccccccccsscccccsccsccsccscscccccsscsccscsscccssssccscsccccccsccccsssssccccccccsscscscccccccssccccsccccsccsccccccsssccssssccscccccsccccscscsssssscsccccccscccscsccs" /></svg>
