<?xml version="1.0" encoding="UTF-8" standalone="no"?>
<svg
   width="851.69849"
   height="1803.1445"
   id="svg2237"
   version="1.0"
   xmlns="http://www.w3.org/2000/svg"
   xmlns:svg="http://www.w3.org/2000/svg"
   xmlns:rdf="http://www.w3.org/1999/02/22-rdf-syntax-ns#"
   xmlns:cc="http://creativecommons.org/ns#"
   xmlns:dc="http://purl.org/dc/elements/1.1/">
  <metadata
     id="metadata2244">
    <rdf:RDF>
      <cc:Work
         rdf:about="">
        <dc:format>image/svg+xml</dc:format>
        <dc:type
           rdf:resource="http://purl.org/dc/dcmitype/StillImage" />
      </cc:Work>
    </rdf:RDF>
  </metadata>
  <defs
     id="defs2242" />
  <path
     style="fill:#000000;stroke:none;stroke-width:0.953118"
     d="m 582.69845,0 c -30.36167,0 -48.56247,11.57911 -48.5625,34.74761 L 475.9924,445.09674 c -15.27666,-1.78985 -21.14438,41.29205 1.21875,43.86034 15.78808,1.36064 53.94643,1.82138 53.94643,1.82138 l 24.70535,2.75928 -32.36201,7.44783 c -42.61513,1.12306 -79.66068,33.41563 -110.02232,97.40483 -8.50128,36.40765 -24.89814,70.05832 -49.1875,100.94975 -24.28928,30.89135 -18.21523,45.78688 18.21875,44.68361 -8.50128,11.03264 -7.30522,17.63711 3.625,19.84361 -9.7157,5.51629 -10.91181,10.49095 -3.625,14.904 7.2868,4.41306 9.71016,14.33396 7.28125,29.77961 -3.64346,49.64684 -17.61697,89.93042 -41.90625,120.82175 -24.28929,30.89135 -46.46128,42.74207 -66.5,35.57087 -20.03864,-7.17121 -32.15552,-6.35626 -36.40625,2.46981 -4.25056,8.82607 2.12251,17.38877 19.125,25.66326 17.00249,8.27453 43.72221,4.41481 80.15625,-11.58253 36.43396,-15.99729 68.59851,-64.81523 96.53125,-146.45663 h 51 c 17.00248,12.13586 29.77999,38.61046 38.28125,79.43122 -43.72084,126.87517 -79.56734,314.42727 -107.5,562.66147 L 210.26049,1204.2674 c -33.18412,-55.3576 -99.98388,-68.3959 -156.350809,-43.7288 -94.814,44.5317 -45.0812496,156.9809 1.60017,230.5458 43.11357,66.1957 82.280509,163.2881 117.499999,291.2667 l -140.281249,54.5913 10.9375,66.2021 H 821.5411 l -80.15625,-87.7207 c 38.86294,-343.1147 52.5062,-562.3877 40.96875,-657.8199 -11.53743,-95.43214 -37.9269,-148.10974 -79.21875,-158.03917 l -5.46875,-21.51854 c 17.00249,-4.41306 35.82281,-13.21899 56.46875,-26.45814 55.86543,-92.67406 71.33403,-166.87999 46.4375,-222.59477 -24.89661,-55.71471 -61.01086,-91.02369 -108.375,-105.91775 -11.38062,-7.81167 -4.56706,-24.60655 8.47661,-31.82851 0,0 15.14791,-5.87073 37.94344,-5.61141 12.18191,0.13858 37.58695,0.6821 52.80357,-1.24996 4.94009,0.27283 13.21851,-38.9512 2.13393,-39.28891 L 851.6985,34.74761 C 851.6985,11.57911 833.49758,0 803.13595,0 786.13353,0 773.38729,3.31643 764.88595,9.9360002 757.59923,3.31643 745.45103,0 728.44845,0 711.44596,0 699.89585,3.31643 693.82345,9.9360002 685.32223,3.31643 672.576,0 655.57345,0 639.78538,0 627.63726,3.31643 619.13595,9.9360002 611.84916,3.31643 599.70094,0 582.69845,0 Z m 0,17.6293 c 18.21698,0 24.31251,6.63286 24.3125,19.872 L 548.8674,445.09674 500.2424,443.4502 558.38595,37.5013 c 0,-13.23914 6.09551,-19.872 24.3125,-19.872 z m 72.875,0 c 18.21698,0 24.31248,6.63286 24.3125,19.872 L 626.5549,446.26181 c -0.93019,-1.72279 -47.71927,-0.32726 -53.4375,-2.84361 L 631.26095,37.5013 c 0,-13.23914 6.0955,-19.872 24.3125,-19.872 z m 72.875,0 c 18.21699,0 24.31253,6.63286 24.3125,19.872 L 695.6174,444.4182 650.8049,446.26181 705.94845,37.5013 c 0,-13.23914 5.49753,-19.872 22.5,-19.872 z m 74.6875,0 c 18.21704,0 24.31252,6.63286 24.3125,19.872 L 769.3049,441.77527 c -2.21705,2.89672 -50.4375,3.32147 -50.4375,3.32147 L 777.01095,37.5013 c 0,-13.23914 6.69357,-19.872 26.125,-19.872 z m -226.1886,513.53697 c 28.75346,-0.18963 58.36825,4.83469 88.84375,15.07433 44.328,14.89406 76.79162,43.59847 97.4375,86.07414 20.64596,42.47557 17.02651,91.56513 -10.90625,147.2799 -27.93268,55.71477 -54.98273,74.74163 -81.09375,57.08941 -26.11102,-17.65221 -39.15628,-39.15215 -39.15625,-64.52722 25.50378,-36.40764 41.30272,-63.72561 47.375,-81.92941 6.07237,-18.20386 5.77334,-35.02918 -0.90625,-50.47487 -6.67955,-15.44565 -19.45703,-24.55166 -38.28125,-27.3098 -18.82422,-2.7582 -37.3455,2.48805 -55.5625,15.72726 -31.57614,-15.4457 -72.23821,-29.22629 -122.03125,-41.36214 9.71571,-27.58157 34.90919,-44.9786 75.59375,-52.1498 12.71396,-2.24101 25.61775,-3.4056 38.6875,-3.4918 z M 438.9786,614.94094 c 47.36414,7.72285 95.32761,22.61833 143.90625,44.68361 -13.35909,68.40221 -31.28241,110.31563 -53.75,125.76136 -22.46762,15.44563 -51.31172,23.70833 -86.53125,24.8116 -23.07488,1.10323 -33.39775,-3.02816 -30.96875,-12.4058 2.42891,-9.37777 0.63483,-17.36875 -5.4375,-23.98834 41.29183,1.10327 53.10983,-4.14297 35.5,-15.72727 -17.60974,-11.58421 -30.05695,-14.60064 -37.34375,-9.08434 4.85789,-16.54893 -4.83563,-25.38325 -29.125,-26.48653 20.66378,-29.38172 37.64714,-56.66051 51,-81.81586 v 13.96718 c 27.93275,-7.72286 50.70275,-8.29452 68.3125,-1.67493 17.6098,6.61964 40.97782,11.05092 70.125,13.25746 l -10.9375,-9.936 c -26.71827,-7.72284 -47.66293,-14.35572 -62.84375,-19.87199 -14.8993,-5.41399 -35.94239,-4.94166 -63.125,1.33426 4.08854,-7.8186 7.84581,-15.41949 11.21875,-22.82441 z m 184.03125,30.14866 c 4.83889,-0.18101 9.07535,1.08648 12.71875,3.77568 9.71576,7.17121 12.4382,17.90704 8.1875,32.24941 -4.25057,14.34243 -23.9992,41.38871 -59.21875,81.10614 21.86037,68.40227 47.9821,104.79775 78.34375,109.21083 l 7.28125,24.83999 c -25.50378,-2.2065 -46.44842,-2.47817 -62.84375,-0.82326 -16.39531,1.65486 -30.06985,5.21456 -41,10.73087 -10.93027,-45.23371 -24.8725,-78.3128 -41.875,-99.27482 34.00505,-24.27178 57.07416,-73.93299 69.21875,-148.95482 11.38566,-8.27446 21.12268,-12.55835 29.1875,-12.86002 z m -160.8125,12.86002 c -16.09168,0 -27.47668,5.51794 -34.15625,16.55054 l -16.40625,8.28946 v 8.26107 l 14.59375,1.64654 c 21.86045,13.23914 55.25231,11.03766 100.1875,-6.61454 h 40.0625 v -11.58253 h -41.875 c -25.50378,-11.03261 -46.31457,-16.55054 -62.40625,-16.55054 z m 18.6875,9.936 30.96875,11.58254 c -10.93019,4.413 -21.88231,7.72941 -32.8125,9.93599 8.50127,-6.61957 9.13056,-13.7957 1.84375,-21.51853 z m -27.34375,1.64654 c -4.85782,6.61957 -3.63051,13.79575 3.65625,21.51853 -9.71576,-2.2065 -17.61519,-4.40799 -23.6875,-6.61453 2.42898,-5.51629 9.10113,-10.49099 20.03125,-14.904 z m 191.28125,264.78018 c 47.36423,0 77.13657,23.72988 89.28125,71.17016 15.78807,67.299 18.21149,172.1109 7.28125,314.4318 -14.57359,164.3861 -32.19786,299.5324 -52.84375,405.4455 l 23.6875,29.7796 H 107.4161 l 125.71875,-46.3302 C 196.70082,1547.7331 151.1608,1429.1407 96.509851,1353.0154 c -54.65094,-76.1251 -63.7777,-125.2146 -27.34375,-147.2799 36.433959,-22.0653 72.249229,-9.3714 107.468749,38.069 l 245.9375,317.7248 43.71875,-3.3214 c 26.71826,-246.0275 54.66535,-430.2632 83.8125,-552.7254 15.78808,-47.4403 47.35463,-71.17019 94.71875,-71.17016 z"
     id="path2239" />
</svg>
