<?xml version="1.0" encoding="UTF-8" standalone="no"?>
<svg
   width="1800"
   height="1570.9788"
   version="1.1"
   id="svg1"
   xmlns="http://www.w3.org/2000/svg"
   xmlns:svg="http://www.w3.org/2000/svg">
  <defs
     id="defs1" />
  <path
     id="path1"
     style="fill:#000000;stroke:none;stroke-width:86.9856"
     d="M 23.547552,134.05213 C 9.3106788,314.28652 2.7310127,529.1896 0,709.90469 c 89.427443,41.26687 178.24346,21.29923 270.24495,2.74415 L 230.79589,323.78655 c 9.02212,3.6048 18.21705,5.8579 27.60246,6.44452 23.62461,23.62489 39.84259,36.85905 48.929,39.58512 6.36073,1.81738 11.93721,-3.58812 16.48023,-16.30967 l 12.23178,5.43655 c 2.72604,-0.90865 4.97974,-2.71051 6.79713,-5.43655 2.72604,3.63469 5.42783,5.43655 8.15388,5.43655 8.17813,-6.36099 11.78176,-8.61261 10.87311,-6.79521 26.35061,13.62949 43.64066,6.70222 51.81878,-20.55812 l 9.51446,-28.54144 c 18.17253,3.63469 33.20919,4.5347 45.02167,2.71732 -39.07545,39.9798 -54.10998,88.97481 -45.02358,147.12812 -19.99023,78.1432 -36.37653,201.42032 -49.09765,369.51912 -25.44198,48.15777 -46.78641,116.46917 -64.05056,205.06174 -17.26421,88.5927 -34.15816,151.0466 -50.96796,187.3936 -16.80986,36.3437 -33.64835,61.5177 -50.45822,75.6021 -16.80984,14.0846 -37.25435,27.0938 -61.33325,38.9067 -24.07919,11.8128 -42.49348,30.4517 -55.214478,55.8948 -11.812337,26.3515 -28.650863,61.8311 -50.458219,106.353 -5.451876,11.8127 4.008117,24.4257 28.541442,38.0557 21.807415,8.1786 39.997865,8.6259 54.536115,1.3607 l 19.19755,-54.5361 c 13.62983,8.1784 39.4798,-4.4371 77.6429,-38.0578 -5.45208,16.3562 -16.43404,48.0634 -32.78988,95.3112 -3.6347,10.9042 7.34694,22.3358 32.78988,34.1485 22.71589,5.4523 40.9047,3.65 54.53421,-5.4364 l 12.23369,-57.2535 c 14.53813,7.2693 36.78288,-5.064 66.76789,-36.8678 23.62487,-27.2603 45.86895,-62.1193 66.76788,-104.8238 73.59977,-149.9249 114.48488,-327.1528 122.66266,-531.59818 29.98534,-160.82973 43.22173,-296.27087 39.58702,-406.21635 39.07176,12.72083 72.74845,21.28075 100.91643,25.82412 39.07146,-13.62984 69.87614,-33.17206 92.59202,-58.61402 139.92945,-22.71623 243.26842,-37.58206 310.05622,-44.85111 66.7844,-7.26947 127.4398,-2.98971 181.9569,12.91206 54.5207,15.90157 123.6746,12.52122 207.2694,-10.19474 -3.6351,39.07145 -2.0572,95.72645 4.7583,170.23492 6.8152,74.50843 18.4707,140.28965 34.8269,197.07661 16.3563,56.78997 24.2375,143.29171 23.7851,259.59802 -0.4523,116.30727 -4.2818,227.24797 -11.5514,332.65117 0,62.6955 -71.4111,116.1988 -214.0665,160.7205 h -43.6631 c 0.9091,43.6132 11.4385,64.9577 31.4293,64.0487 17.2615,0 32.7522,1.8014 46.3822,5.4365 13.6303,3.6344 46.2341,1.3849 98.0286,-6.7952 26.3517,8.1809 63.4057,7.9201 111.1112,-0.6784 47.7021,-8.6325 87.4649,-8.6325 119.2651,0 31.8036,8.6324 52.0185,4.1266 60.651,-13.5923 8.6324,-17.7192 10.2002,-48.7505 4.7582,-93.2722 l -1.3586,-117.2262 h 10.873 c 5.4524,-155.377 2.9751,-269.6976 -7.4754,-342.84597 -10.4771,-73.169 -14.5058,-154.69135 -12.2337,-244.647 2.2715,-89.95562 7.4563,-169.02342 15.6312,-237.17145 32.7122,-54.5186 49.9998,-104.5838 51.8171,-150.01601 1.8172,-45.43213 -17.0478,-93.75286 -56.5753,-145.09108 -39.5272,-51.33824 -107.1609,-72.23076 -203.0229,-62.69 -95.8619,9.54049 -193.5694,0.13626 -293.0661,-28.03171 -37.1702,-10.5228 -84.7372,-16.14674 -142.5406,-16.98995 -96.3397,-1.40533 -221.25308,10.55228 -374.78702,35.84831 l -241.20527,5.88689 C 451.35699,64.81045 399.83445,12.89978 310.0121,3.1809797 171.65913,-11.7888 32.15123,25.13225 23.547552,134.05213 Z M 304.5698,42.0475 c 65.77101,3.86505 107.13397,36.6042 140.99978,86.97541 -18.9132,46.00817 -35.15092,55.21761 -83.18295,70.52769 -7.16319,-8.85099 -16.39256,-19.75655 -29.0646,-34.11789 -13.62943,-15.44687 -29.56802,-25.07731 -47.74089,-28.71199 -18.17287,-3.63439 -30.05548,4.02557 -35.50721,23.1068 -5.45204,15.44714 1.02473,27.77941 19.19753,36.86587 -15.44679,-3.63472 -29.35757,1.09717 -41.62405,14.27263 -12.26676,13.17514 -23.18333,32.81199 -22.42652,59.29239 3.91662,137.04118 14.93587,273.90176 22.37478,410.83273 C 163.73928,694.05557 99.838158,705.96898 35.361595,683.43286 36.008092,645.19154 51.144506,270.75034 62.368053,140.05784 69.601927,55.82304 204.82197,36.18579 304.5698,42.0475 Z m 802.4546,84.39225 c 56.607,0.9636 103.3409,6.6556 140.1566,17.0781 99.4967,28.16798 192.9245,37.57246 280.1541,28.03169 87.2296,-9.54075 147.6558,5.32559 181.2767,44.85304 33.6178,39.52577 49.3322,80.41088 47.0605,122.66266 -2.2719,42.25183 -19.7875,90.74114 -52.4971,145.25974 -8.1784,66.33066 -13.5277,144.94846 -15.7999,235.81279 -2.2721,90.86431 1.9529,172.86056 12.4023,246.00566 10.4495,73.14837 13.374,172.43027 8.8342,297.82437 h -130.8185 c 5.4522,-74.5118 8.1559,-169.9637 8.1559,-286.27097 0,-116.30631 -8.0539,-203.03403 -23.9558,-260.2783 -15.902,-57.24427 -27.3888,-123.02248 -34.6583,-197.07662 -7.2694,-74.05411 -7.9453,-128.22914 -2.0389,-162.75749 5.9062,-34.52871 -8.4529,-52.26872 -42.9828,-53.17746 -87.229,23.62495 -158.1871,27.45455 -212.7079,11.5534 -54.5168,-15.90124 -115.1706,-20.1812 -181.955,-12.91206 -66.7878,7.26905 -175.53229,23.20539 -326.3659,47.73898 -22.71589,24.53332 -49.46659,44.07551 -80.36023,58.61401 -29.98535,-12.72112 -62.7621,-30.00963 -98.19911,-51.81687 l -36.86588,51.81687 c 1.81736,129.93572 -11.24849,268.98088 -39.41646,417.08945 -2.72603,198.08466 -37.30309,374.24006 -103.63376,528.70846 -29.07669,55.426 -57.79939,99.1853 -85.96734,130.989 l -6.79522,-4.0779 c 17.26415,-19.0864 30.72456,-39.3004 40.26539,-60.6511 9.54075,-21.3539 16.07292,-40.6689 19.70728,-57.9337 -55.42697,37.2523 -93.16024,98.1318 -113.15013,182.6354 -19.99017,6.3604 -34.85599,2.1362 -44.85112,-12.4024 l 35.33667,-100.7459 c 9.99511,-29.0858 26.6096,-51.0964 49.77984,-66.0895 23.17026,-14.9898 41.81099,-28.2265 55.89478,-39.585 14.0842,-11.3586 28.22056,-35.1824 42.30434,-71.5263 14.08419,-36.3469 25.79624,-103.6991 35.33666,-201.8327 9.54075,-98.13357 22.55124,-169.82607 38.90674,-215.25658 2.72603,-179.00257 8.13164,-303.461 16.30967,-373.42645 -15.11447,-80.90558 0.91977,-136.87395 47.57034,-168.19406 0.1183,-0.22268 0.22786,-0.45239 0.33918,-0.6803 -3.85345,-1.39376 -7.73181,-2.78865 -11.55147,-4.24653 -6.8861,-2.56783 -13.76047,-4.80784 -20.72866,-7.1363 -5.40485,-2.13334 -10.76952,-4.34444 -16.30967,-6.11686 -2.91921,-1.18369 -5.91105,-2.34368 -8.83419,-3.56624 -14.12385,10.14107 -34.94952,9.00686 -62.68999,-3.73871 l -14.951,47.7409 c -5.45207,14.5385 -12.83037,20.39435 -21.91678,17.66833 -14.53817,-5.45196 -20.39403,-14.91166 -17.66832,-28.54144 -7.26948,-1.81739 -11.77505,-0.46772 -13.59235,4.07598 l -9.51445,27.1847 c -9.99511,-8.17776 -19.6256,-4.40539 -28.71201,11.04174 -7.2691,-2.726 -21.2349,-15.51022 -42.13379,-38.22644 l -21.91485,-6.79522 6.79522,-2.71732 c -2.72605,-12.72085 -3.17606,-22.80353 -1.35867,-30.07257 2.72596,-7.26937 8.30027,-17.63124 16.4783,-31.26067 l 8.15579,-24.6341 -10.8731,-1.35866 -8.32443,24.63409 c -9.08647,9.99511 -14.94456,19.90691 -17.67024,29.90202 -3.6347,9.08641 -2.73284,20.51904 2.71924,34.14855 -5.45208,-1.81739 -8.60581,-4.06917 -9.51446,-6.79522 -4.54342,-29.0763 -0.93954,-51.54697 10.8731,-67.44818 11.81193,-15.90115 27.29883,-20.80199 46.38034,-14.44126 l 8.15579,-23.10489 c -17.26424,-7.26939 -24.0223,-14.92905 -20.38757,-23.1068 0.90865,-4.08903 3.49847,-5.89088 7.81469,-5.43656 4.31623,0.45407 10.28601,3.15804 18.00944,8.1558 l 44.38353,50.3624 c 0,0 11.84501,13.99974 20.78233,11.66453 53.6205,-14.22358 87.16231,-39.67582 103.44212,-71.54522 l 264.3025,-3.00286 z m -828.23849,91.99987 -10.8731,34.15046 c -8.17769,9.0865 -13.75455,19.84318 -16.48022,32.1096 -2.72604,12.26682 5.10189,22.85265 23.27543,31.93906 8.17813,-6.36076 13.13364,-14.46844 14.951,-24.46356 4.54336,-12.72077 0.93963,-23.70349 -10.87311,-32.78988 l 12.23179,-36.8678 z m -5.43656,42.30433 c 6.36075,5.45209 9.96448,12.2098 10.87313,20.38757 -3.63469,-3.6347 -7.68835,-5.66277 -12.23177,-6.11685 -4.54335,-0.45406 -8.599,1.57681 -12.2337,6.11685 3.6347,-8.17813 8.14028,-14.93582 13.59234,-20.38757 z m -13.59234,35.50721 c 3.6347,4.54335 7.46425,6.79714 11.5534,6.79714 4.08903,0 7.46673,-1.80187 10.19282,-5.43656 l -6.79521,10.87312 c -6.36072,-2.72605 -11.31631,-6.7817 -14.95101,-12.2337 z m 193.51037,178.55936 c -9.08646,76.32584 -14.66326,194.92837 -16.48022,355.75813 -19.08158,50.88248 -31.69551,126.62658 -38.0559,227.48645 -19.08151,63.6039 -60.41818,157.2576 -124.02324,280.8344 -35.43701,51.7912 -68.66378,91.7762 -99.55777,119.9454 l -6.79521,-5.4366 c 19.08158,-16.3561 34.34382,-34.7692 45.70193,-55.2145 11.35778,-20.4419 19.69177,-38.4102 25.14385,-53.8577 -59.06163,30.8916 -102.65049,86.8173 -130.81847,167.6862 -20.898752,4.5432 -35.485203,-0.8611 -43.662992,-16.3097 l 46.380322,-96.8403 c 12.72104,-27.2604 31.58711,-47.0253 56.57506,-59.2926 24.98756,-12.2672 44.97983,-23.5281 59.97267,-33.9778 14.9925,-10.45 31.60698,-32.8632 49.77984,-66.9385 18.17288,-34.0755 38.61545,-99.2311 61.33133,-195.5473 22.71631,-96.31647 44.51037,-166.20687 65.40924,-209.82012 18.17252,-178.09393 34.56108,-297.59648 49.09956,-358.47546 z m -61.33133,671.92918 c -3.63469,32.7124 -10.78894,65.0367 -21.23842,96.8406 -10.44938,31.8003 -22.83706,55.3982 -37.3756,70.8456 -13.62943,14.5389 -27.31427,26.25 -40.94375,35.3367 37.25438,-59.064 70.48108,-126.6973 99.55777,-203.0229 z m 1323.47275,162.2497 v 121.3041 c 6.3606,46.339 4.1004,71.5128 -6.797,75.602 -10.9041,4.0892 -37.371,0.2604 -79.1703,-11.5534 -28.1656,3.6351 -58.9709,7.914 -92.5919,12.912 -33.6177,4.9982 -53.8358,5.8994 -60.6511,2.7193 -6.8153,-3.1802 -17.121,-4.7581 -30.7509,-4.7581 -10.9041,0 -16.3097,-2.7018 -16.3097,-8.1541 h 20.3876 l 98.1972,-36.8678 c 18.1735,-8.1784 35.0106,-17.187 50.4582,-27.1826 43.6163,-17.2649 65.4092,-39.0576 65.4092,-65.4094 l -1.3587,-57.2534 z m -160.8909,1.3586 h 36.8677 v 91.2335 c -24.5308,26.3515 -77.3028,49.0443 -158.1717,68.1264 l -45.5315,1.3606 19.7074,-9.5144 c 98.1338,-31.8047 147.1281,-82.1498 147.1281,-151.2061 z m 62.6919,0 h 20.5562 v 57.2553 c 0,17.2649 -6.9258,28.5259 -20.5562,33.9782 z m -1405.19178,69.4872 c -9.9951,19.9909 -20.5274,36.1556 -31.43122,48.4193 -10.90343,12.2671 -20.81369,21.9522 -29.90011,29.2217 14.5385,-28.1689 34.98073,-54.0153 61.33133,-77.641 z m 1174.81548,91.5725 c 3.6238,21.5696 8.3425,34.7305 13.7611,39.246 -20.8996,3.6316 -35.2593,3.8925 -42.9827,0.6782 -7.7235,-3.1801 -18.033,-4.7581 -30.751,-4.7581 -11.8129,0 -17.6682,-2.7016 -17.6682,-8.1538 h 21.7461 z" />
</svg>
