<?xml version="1.0" encoding="UTF-8" standalone="no"?>
<svg
   width="1009.4307"
   height="1797.2734"
   version="1.1"
   id="svg3133"
   xmlns="http://www.w3.org/2000/svg"
   xmlns:svg="http://www.w3.org/2000/svg">
  <defs
     id="defs3137" />
  <path
     style="fill:#000000;stroke:none;stroke-width:100"
     d="m 108.73755,355.7532 c -5.48367,28.78927 -1.0282,51.4094 13.3664,67.8604 14.39467,16.45107 34.61573,24.6766 60.6632,24.6766 h 49.353 c 0,-6.8546 -26.04743,-12.33827 -78.1423,-16.451 -27.41833,-15.08013 -41.1275,-29.4748 -41.1275,-43.184 l 2.0563,-2.0563 h 2.0564 c 12.33827,27.41833 37.0148,41.1275 74.0296,41.1275 28.78927,0 50.72393,10.2819 65.804,30.8457 21.93473,13.70913 39.7567,20.5637 53.4659,20.5637 13.70913,0 36.672,-5.48367 68.8886,-16.451 32.21653,-10.96733 61.34853,-8.2255 87.396,8.2255 l 14.3946,-6.1691 c -10.96733,-19.19287 -42.84117,-24.67653 -95.6215,-16.451 -52.78033,8.22547 -89.4524,3.76997 -110.0162,-13.3665 -20.56373,-17.13647 -47.9821,-25.7047 -82.2551,-25.7047 -32.902,0 -54.1512,-8.2255 -63.7476,-24.6765 -9.59647,-16.451 -14.3947,-26.04743 -14.3947,-28.7893 z m 876.0166,2.0564 c -1.3709,20.56373 -8.911,39.41387 -22.6202,56.5504 -13.7091,17.13647 -40.442,27.76107 -80.1987,31.8738 v 2.0564 c 43.8694,0 72.3159,-9.93917 85.3396,-29.8175 13.0238,-19.87833 18.8502,-40.09937 17.4793,-60.6631 z m -10.2819,0 c -10.9674,35.64387 -28.1039,53.80853 -51.4094,54.494 -23.3057,0.6854 -45.2404,-1.7137 -65.8041,-7.1973 -20.5638,-5.48373 -46.954,0.68537 -79.1705,18.5073 -32.2166,17.822 -70.94503,26.733 -116.1853,26.733 -30.1602,0 -62.37677,19.8783 -96.6497,59.6349 h 2.0563 c 30.1602,-30.1602 60.32043,-45.2403 90.4807,-45.2403 34.27293,0 61.34857,2.3991 81.2269,7.1973 19.87827,4.7982 43.18383,-0.34273 69.9167,-15.4228 26.7329,-15.08013 61.0059,-25.70477 102.8189,-31.8739 41.813,-6.16907 62.7195,-28.44647 62.7195,-66.8322 z m -481.1922,355.7532 c 0,-26.04747 15.76557,-52.0949 47.2967,-78.1423 16.451,-1.37093 23.30557,-18.50743 20.5637,-51.4095 -16.451,1.37093 -35.3011,6.85463 -56.5503,16.4511 -21.24927,9.5964 -39.41393,14.3946 -54.494,14.3946 -34.27293,0 -51.4094,-8.2255 -51.4094,-24.6765 v 0 c 0,-15.08007 21.2492,-28.78927 63.7476,-41.1276 26.04747,-19.1928 57.5786,-29.47467 94.5934,-30.8456 l -8.2255,-10.2819 c 4.11273,-6.8546 16.45097,-20.22107 37.0147,-40.0994 20.5638,-19.87827 56.89313,-29.8174 108.988,-29.8174 v -4.1128 c -30.1602,-12.3382 -54.15127,-18.5073 -71.9732,-18.5073 -26.0474,0 -55.52213,14.39463 -88.4242,43.1839 -27.41833,19.1928 -50.03847,29.47467 -67.8604,30.8456 -6.8546,5.48367 -13.02373,8.91097 -18.5074,10.2819 v 2.0564 l 24.6765,-2.0564 c 4.11273,1.37093 5.48367,4.11277 4.1128,8.2255 -1.37093,1.37093 -15.76557,3.42733 -43.1839,6.1692 -15.08013,1.37087 -28.78933,10.96727 -41.1276,28.7892 h -9.2537 c -3.42727,0 -4.45547,-2.05637 -3.0846,-6.1691 10.9674,-20.5638 27.41843,-31.53113 49.3531,-32.902 h -10.2819 c -17.82193,0 -34.27293,9.5964 -49.353,28.7892 -21.93473,4.1128 -54.15133,24.67657 -96.6498,61.6913 -5.4836,1.37093 -9.59633,4.79823 -12.3382,10.2819 h 20.5638 c 4.11273,0 5.82637,2.39913 5.1409,7.1974 -0.68547,4.79813 -3.08457,7.1972 -7.1973,7.1972 h -20.5638 c -4.11273,0 -6.1691,2.0564 -6.1691,6.1692 0,5.48367 2.05637,10.28187 6.1691,14.3946 l 34.9584,-22.6201 c 5.48367,0 7.54007,2.74183 6.1692,8.2255 l -32.9021,22.6201 v 2.0564 h 121.3263 c 30.1602,0 49.69577,11.99553 58.6067,35.9866 8.91093,23.99107 24.33377,33.24477 46.2685,27.7611 z M 341.10815,431.8392 v 0 c 13.70913,4.11273 39.0711,3.77 76.0859,-1.0282 37.0148,-4.79827 63.06227,3.76997 78.1424,25.7047 l 20.5638,-10.2819 c -19.19287,-17.82193 -41.81303,-28.1038 -67.8605,-30.8456 -26.04747,-2.74187 -61.69133,2.7418 -106.9316,16.451 z m 261.1599,427.7263 c 0,-41.12747 23.64833,-61.6912 70.945,-61.6912 47.2966,0 70.9449,19.87827 70.9449,59.6348 l 16.4511,111.0444 h 92.5369 V 857.5091 c 0,-98.706 -20.5637,-182.33197 -61.6912,-250.8779 -41.1276,-68.54587 -85.68243,-102.8188 -133.6645,-102.8188 -23.30567,0 -44.5549,6.85457 -63.7477,20.5637 v 80.1987 c 0,30.1602 -9.59643,45.2403 -28.7893,45.2403 -21.93473,17.82193 -33.58753,34.9584 -34.9584,51.4094 l -32.9021,267.329 h 82.2551 z M 431.58875,520.2634 c 8.22547,0 13.70913,4.7982 16.451,14.3946 0,9.5964 -10.96737,16.451 -32.9021,20.5638 -8.22547,0 -12.3382,-2.74183 -12.3382,-8.2255 0,-13.7092 9.59643,-22.62017 28.7893,-26.7329 z m 133.6645,8.2255 v 39.0712 h 4.1127 v -43.184 z m -10.2819,2.0563 v 37.0149 h 2.0564 v -39.0712 z m -139.8337,57.5786 c 6.8546,9.59647 19.5356,13.3665 38.043,11.3101 18.5074,-2.0564 47.63943,-11.3101 87.3961,-27.7611 v 0 -37.0148 c -24.6766,0 -48.6677,8.91097 -71.9733,26.7329 -35.64387,13.7092 -53.4658,22.62017 -53.4658,26.7329 z m -143.9463,96.6497 h 30.8456 l -4.1127,-20.5638 h -24.6766 z m 191.243,283.78 30.8457,-207.694 c -6.8546,-15.08013 -17.82197,-15.08013 -32.9021,0 l -32.902,207.694 z m 263.2163,34.9584 -16.451,-143.9464 c -1.37093,-16.451 -13.7092,-24.6765 -37.0148,-24.6765 -23.3056,0 -34.9584,8.2255 -34.9584,24.6765 l -24.6766,143.9464 h -113.1007 c -31.53107,116.5281 -48.66753,288.5783 -51.4094,516.1507 l -45.2403,24.6765 -265.2726,-355.7532 c -67.175001,-37.0148 -93.222431,-13.7092 -78.142301,69.9168 l 160.397301,435.9519 -119.2698,51.4095 h 565.5037 l -43.184,-26.733 c 74.0296,-345.4713 108.30257,-584.0111 102.8189,-715.6192 z m -250.878,-602.5184 c -71.28773,-43.8694 -106.9316,-107.6171 -106.9316,-191.2431 0,-60.32033 17.82193,-110.358833 53.4658,-150.1155 C 456.95072,19.8783 508.36015,0 575.53515,0 c 65.804,0 116.87067,19.8783 153.2,59.6349 36.32933,39.756667 54.494,90.48063 54.494,152.1719 0,83.626 -37.70023,147.3737 -113.1007,191.2431 37.0148,13.70913 71.28777,10.9673 102.8189,-8.2255 31.5311,-19.19287 60.3203,-25.362 86.3678,-18.5074 26.0475,6.8546 46.954,11.99553 62.7195,15.4228 15.7655,3.42727 28.4465,-11.3101 38.0429,-44.2121 4.1127,-15.08007 12.3382,-22.6201 24.6766,-22.6201 16.45095,0 24.67645,13.70917 24.67645,41.1275 0,21.93467 -9.59635,47.29663 -28.78925,76.0859 -16.451,20.5638 -52.7803,27.4184 -108.988,20.5638 -30.1602,5.48367 -51.4094,13.02373 -63.7477,22.6202 -12.3382,9.5964 -33.58743,14.3946 -63.7477,14.3946 50.724,34.27293 87.7388,86.0251 111.0445,155.2565 23.3055,69.23133 34.9583,136.749 34.9583,202.553 v 146.0028 h -106.9316 c -12.33827,200.1541 -45.24027,427.7265 -98.706,682.7172 l 104.8752,111.0443 H 24.426049 l -10.2818,-69.9167 133.664501,-57.5786 h 2.0563 C 56.642649,1410.6746 19.416529,1293.3899 2.0161693,1236.9708 c -2.91817004,-27.8749 -5.74383,-84.5087 15.1751597,-98.995 28.89156,-20.0074 107.026291,-35.7315 151.954171,8.2517 l 227.48485,305.5747 v 0 c 12.3382,-196.0413 29.47467,-345.4714 51.4094,-448.2903 h -57.5786 l 34.9584,-203.5813 c 0,-28.78927 6.8546,-52.09487 20.5638,-69.9168 -17.82193,-12.33827 -28.10383,-26.39017 -30.8457,-42.1557 -2.7418,-15.7656 -37.70017,-21.592 -104.8751,-17.4792 l 8.2254,26.7329 h -67.8604 l 8.2255,-32.9021 c -5.48367,-1.37087 -8.2255,-6.16907 -8.2255,-14.3946 -10.96733,-6.8546 -16.451,-13.7092 -16.451,-20.5638 -1.37093,-6.8546 1.3709,-13.0237 8.2255,-18.5073 -1.37093,-16.45107 8.2255,-28.78933 28.7893,-37.0148 30.1602,-28.78933 58.94947,-47.29673 86.3678,-55.5222 13.7092,-24.67653 41.12757,-34.95843 82.2551,-30.8457 l 10.2819,-2.0563 c -10.96733,-2.74187 -23.3056,-4.1128 -37.0148,-4.1128 -12.33827,0 -29.13203,3.77003 -50.3813,11.3101 -21.2492,7.54007 -40.44203,10.96737 -57.5785,10.2819 -17.13647,-0.68547 -39.4139,-11.3101 -66.8323,-31.8739 h -53.4658 c -35.64387,0 -60.32037,-9.93913 -74.0295,-29.8174 -13.709201,-19.87833 -20.563801,-40.0994 -20.563801,-60.6632 0,-32.902 6.16913,-50.72393 18.507401,-53.4658 9.5964,-1.37087 18.50737,8.22557 26.7329,28.7893 8.22553,20.5638 30.50297,30.16023 66.8323,28.7893 36.32927,-1.37093 75.74313,6.85457 118.2416,24.6765 60.3204,-28.78927 111.72983,-31.5311 154.2283,-8.2255 z m -55.5222,-195.3558 c 0,50.72393 15.0801,91.166 45.2403,121.3262 30.1602,30.1602 67.175,45.2403 111.0444,45.2403 43.86933,0 80.54137,-15.0801 110.0161,-45.2403 29.47473,-30.1602 44.2121,-69.23137 44.2121,-117.2135 0,-47.98207 -13.70917,-86.02503 -41.1275,-114.128899 -27.4184,-28.1038 -65.11863,-42.1557 -113.1007,-42.1557 -47.9822,0 -86.02517,14.0519 -114.1289,42.1557 -28.10387,28.103869 -42.1558,64.775929 -42.1558,110.016199 z"
     id="path3131" />
</svg>
