<?xml version="1.0" encoding="UTF-8" standalone="no"?>
<svg
   width="1148.9451"
   height="1800"
   version="1.1"
   id="svg1"
   xmlns="http://www.w3.org/2000/svg"
   xmlns:svg="http://www.w3.org/2000/svg">
  <defs
     id="defs1" />
  <path
     id="path1"
     style="fill:#000000;stroke:none;stroke-width:100.359"
     d="m 861.73553,0 c -26.6072,0 -53.0328,8.0180441 -79.2754,24.055259 -10.2054,5.831676 -10.2054,11.663602 0,17.495272 30.6166,16.037219 50.2983,40.093378 59.0458,72.167749 0,8.74758 0.2375,14.32601 4.6114,24.53146 4.3738,55.40119 2.9081,122.52473 -0.7009,283.72782 -10.8272,28.87218 -13.1741,35.03091 -16.7831,14.57978 7.218,-8.42103 19.9684,-29.47452 18.7653,-63.15874 L 738.66953,169.75821 c -4.6526,-37.73224 5.0765,-79.393017 27.2414,-105.222197 6.0201,-8.741395 3.4358,-14.169143 -7.7534,-16.282203 -58.9249,-11.887553 -108.3042,6.144596 -148.1337,54.09342 -5.0928,9.86633 -3.0693,15.7565 6.0673,17.67193 33.7648,4.28665 72.9933,30.70257 95.9796,60.87916 44.7229,62.19416 73.5264,127.92715 107.541,192.50096 -28.8198,-18.91687 -59.6884,-73.11348 -71.1941,-85.0404 -9.6241,-2.40601 -17.1819,-2.0053 -77.4067,53.15319 -24.4152,6.99762 -46.3897,23.03811 -65.9198,48.1223 -19.53014,25.08425 -24.10427,43.84928 -13.7226,56.29579 12.179,9.54042 31.2694,6.28085 57.2713,-9.77914 26.002,-16.06005 43.2866,-37.51231 51.8518,-64.35542 31.1829,-30.93471 31.5549,-30.30806 42.742,-44.2613 8.8087,10.82006 50.0394,45.73622 65.5508,89.1723 -8.4211,-14.43609 -13.234,-17.74397 -14.4371,-9.92438 -1.2029,7.81948 -3.0076,18.34591 -5.4137,31.57902 l -9.0215,30.6761 c -45.7141,8.42111 -76.9938,34.58834 -93.836,78.49807 -16.8421,43.90982 -22.2557,76.08981 -16.2411,96.541 -14.4358,21.65412 -25.2618,40.9023 -32.4799,57.7444 -2.406,10.82705 5.4133,17.44472 23.4586,19.85074 l -3.6098,10.82535 c -7.2181,3.60905 -6.6152,7.21831 1.8059,10.82733 -6.015,13.23312 -4.2124,20.45168 5.4116,21.65464 3.609,3.60902 4.8127,11.72991 3.6098,24.36148 -1.2031,12.63156 6.3173,19.85011 22.5576,21.65463 16.2407,1.80452 30.3744,2.70684 42.4044,2.70684 0,25.26318 6.6176,48.1206 19.8509,68.57172 l -25.2645,16.23902 c -46.9174,-24.06011 -89.624,-28.87121 -128.12,-14.43511 -51.7295,-20.45114 -127.52024,-43.30856 -227.3699,-68.57173 -25.26314,-51.72936 -46.61537,-99.2488 -64.05903,-142.55711 -17.44363,-43.30826 -31.57931,-106.46659 -42.40635,-189.47419 -13.23313,-42.10529 -36.99283,-61.65487 -71.27856,-58.64734 -34.2857,3.00751 -64.66117,2.1052 -91.12733,-2.70682 -13.233121,-7.21807 -21.054511,-7.21807 -23.460501,0 -2.40599,7.21803 -0.29993,12.63193 6.31659,16.24098 6.6165,3.60905 15.338261,5.41366 26.165381,5.41366 14.43606,-1.20304 25.26396,-0.60217 32.48195,1.8039 4.81209,0 7.21756,1.20375 7.21756,3.60976 0,2.406 -2.40547,4.81156 -7.21756,7.21755 -30.0752,2.4061 -53.234031,-0.30087 -69.474651,-8.12048 -16.2406,-7.81948 -32.78184,-18.34593 -49.62391,-31.57903 -7.21807,-2.406 -11.72962,-0.90088 -13.53415,4.51269 -1.8045,5.41348 -1.50316,9.32228 0.90292,11.72829 -2.40608,-1.20297 -4.2106904,7.1e-4 -5.4136604,3.60976 -1.20303,3.60896 -1.20303,6.61539 0,9.02146 -2.40601,1.20297 -4.21062,3.61049 -5.41367,7.21952 -1.20302004,3.60905 7.2e-4,6.01455 3.60978,7.21755 -4.81199004,3.60899 -6.61665004,7.81917 -5.41366004,12.63122 2.40607004,6.01507 10.22548044,11.429 23.45854044,16.24098 13.23312,4.8121 28.57058,11.72921 46.01414,20.75172 17.44366,9.0226 44.211721,11.12868 80.301981,6.31659 25.26319,-3.60902 45.11223,-5.41366 59.5483,-5.41366 -3.60902,152.78205 24.66232,280.90342 84.81271,384.36204 66.16542,33.68425 145.56546,58.0449 238.19713,73.08245 92.63155,15.03764 136.53985,29.77422 131.72775,44.21019 -18.0452,21.6542 -33.6839,44.8129 -46.917,69.4746 -13.2329,24.6619 2.4059,62.8567 46.917,114.5859 -6.0151,54.1355 -21.6539,99.8501 -46.917,137.1435 -25.263,37.2933 -52.33079,85.4155 -81.20295,144.3629 -123.90984,30.0753 -253.23492,74.5862 -387.9718,133.5338 -104.661741,55.3382 -117.895041,117.896 -39.69952,187.6702 h 806.61967 c 54.1355,2.4059 84.81227,0.6012 92.03027,-5.4136 h 23.4586 c 2.4061,-18.0452 -6.6154,-28.8731 -27.0664,-32.482 -1.2031,-9.6241 -14.43627,-14.435 -39.69957,-14.435 -39.6993,-31.2783 -54.7373,-58.3478 -45.1131,-81.2051 9.6239,-16.8421 16.2397,-34.5869 19.8488,-53.2337 3.609,-18.6463 -9.0214,-29.1711 -37.8937,-31.5769 6.015,-169.6241 19.8492,-285.1151 41.5034,-346.4684 21.654,-61.3536 54.1355,-147.3691 97.44387,-258.04591 h 30.6761 V 808.28816 c 0,-185.26321 -41.5027,-292.93464 -124.51027,-323.00984 -3.6736,-23.35798 -7.3472,-37.48134 -11.0209,-70.08455 -4.4282,-3.75418 -13.8683,-0.69757 -17.0347,4.38159 19.548,-35.48029 46.9518,-59.3395 73.8028,-82.19321 11.18727,13.95321 11.55917,13.32656 42.74197,44.26128 8.5654,26.84313 25.85,48.29539 51.8519,64.35543 26.0019,16.05997 45.0922,19.31955 57.2713,9.77914 10.3816,-12.44651 5.8075,-31.21153 -13.7225,-56.2958 -19.5303,-25.08416 -41.503,-41.12667 -65.9179,-48.12425 -55.5758,-50.90035 -66.41297,-55.89966 -77.40667,-53.15123 -26.1816,30.7972 -47.4585,58.35359 -82.1572,78.20026 l 98.74357,-182.59284 c 24.0351,-27.43922 68.6075,-53.50897 102.5454,-56.08379 10.2512,-1.09086 12.2143,-7.00189 5.8888,-17.73279 -35.5102,-51.167852 -83.9101,-72.4544 -145.19907,-63.858804 -11.1672,2.225013 -13.1303,8.136006 -5.8887,17.732781 19.4563,26.957903 23.893,65.149683 16.6529,104.279223 l -100.6434,196.27699 c 1.203,30.0752 11.1447,53.70856 17.1598,62.12959 -3.609,20.45113 -7.9029,17.21522 -18.7298,-11.65693 -4.8122,-161.20311 -6.3874,-226.37807 -0.5556,-281.77927 4.3738,-10.20545 6.5599,-20.65528 6.5599,-29.40286 10.2056,-32.07437 30.6161,-56.130529 61.2326,-72.167749 8.7476,-5.83167 8.7476,-11.663596 0,-17.495271 C 915.13053,8.0180441 888.34253,0 861.73553,0 Z m 0,17.493307 c 19.3173,0 38.8161,4.374396 58.4982,13.121943 2.9158,1.457959 2.9158,2.915367 0,4.373328 -26.2428,16.037135 -44.4669,37.907101 -54.6725,65.607752 h -6.5599 c -11.6636,-27.700651 -29.8881,-49.570616 -54.6726,-65.607752 -2.9159,-1.457961 -2.9159,-2.915369 0,-4.373328 18.9528,-8.747547 38.0891,-13.121943 57.4068,-13.121943 z m -135.9795,44.318209 c 5.0788,-0.142108 10.2552,-0.02477 15.5264,0.353322 2.0523,0.19762 2.5148,0.760765 1.3899,1.688089 -16.9353,25.297041 -25.9571,54.463043 -27.0664,87.497943 l -5.0624,4.17311 c -20.2044,-26.80173 -45.0372,-43.17568 -74.4995,-49.11945 -4.1047,-0.39525 -5.0314,-1.51951 -2.7815,-3.37421 26.1118,-26.484758 56.9421,-40.22404 92.4935,-41.218804 z m 257.8987,11.143348 c 42.35697,-1.397202 77.12447,13.563587 104.30217,44.883536 2.2686,1.83203 2.3782,2.85771 0.3278,3.07584 -29.401,6.239 -55.3132,20.91893 -77.7344,44.03949 l -6.4775,-2.42222 c 2.6599,-33.45825 -5.06197,-62.18323 -23.16617,-86.174951 -1.3522,-2.966303 -0.4365,-4.099499 2.7481,-3.401695 z M 725.78553,321.14901 c -13.1348,17.99103 -31.421,37.81767 -54.861,59.47961 -4.9709,21.03095 -26.4417,37.88623 -64.4123,50.56217 14.8555,-37.01451 33.5914,-57.56897 56.2094,-61.66037 23.4399,-21.66197 44.461,-37.78945 63.0639,-48.38141 z m 283.33767,9.84784 c 18.6028,10.59195 39.624,26.71945 63.0638,48.3814 22.6178,4.09141 41.356,24.64389 56.2114,61.65841 -37.9705,-12.67596 -59.4414,-29.52928 -64.4123,-50.5602 -23.44,-21.66195 -41.7284,-41.48862 -54.8629,-59.47961 z M 806.97853,438.36124 c 7.2181,13.23312 13.8358,21.354 19.8507,24.36146 0.7565,0.37821 1.4654,0.2842 2.2123,0.56729 -10.5115,0.52776 -20.8729,1.84109 -31.0844,3.94345 z m 108.2713,0 12.6313,41.50341 c -29.2783,-10.78667 -57.5574,-16.32731 -84.8619,-16.75132 0.315,-0.15376 0.6392,-0.21677 0.9521,-0.39063 5.4135,-3.00746 11.1288,-9.32373 17.1439,-18.9478 7.2181,13.23313 15.339,21.05253 24.3614,23.45854 9.0227,2.40598 18.946,-7.21804 29.7732,-28.8722 z m -84.5301,52.6134 c 37.5566,1.01503 78.6669,12.34908 123.3287,34.00321 59.54867,28.87222 89.32347,128.72417 89.32347,299.55129 v 115.4888 h -21.6548 c 0,-62.55641 -40.30097,-93.83612 -120.90237,-93.83612 v 207.52098 h -46.9171 V 880.46767 732.4969 c 16.8421,-6.01503 29.7744,-14.73677 38.7966,-26.16536 9.0226,-11.42854 18.046,-28.87208 27.0683,-52.33074 9.0226,-23.45868 3.6088,-39.9999 -16.241,-49.62393 -19.8496,-9.62407 -33.3844,-9.62407 -40.6024,0 -37.2934,-43.30828 -88.422,-58.94715 -153.3844,-46.91707 9.624,-34.88727 37.8955,-56.24151 84.8126,-64.061 11.7294,-1.95488 23.8537,-2.76251 36.3724,-2.42416 z m -85.5448,84.30432 c 15.9399,0.45111 32.9312,3.23346 50.9763,8.34622 36.0902,10.22563 49.9266,29.77516 41.5054,58.64732 l 25.2625,12.63122 c 10.827,-24.06013 20.7529,-33.98573 29.7751,-29.77512 9.0226,4.21053 9.9248,14.13609 2.7069,29.77512 -7.2181,15.63914 -17.7445,29.47335 -31.5791,41.50343 -13.8347,12.03009 -27.3694,19.84949 -40.6025,23.45855 v 160.60197 h -39.6995 c -13.2331,-32.4812 -20.4496,-62.55521 -21.6526,-90.2244 -19.2483,2.40608 -35.7915,1.8032 -49.6259,-1.80586 -13.8345,-3.60902 -21.6539,-7.81922 -23.4586,-12.63121 -1.8044,-4.81208 -2.7068,-9.02228 -2.7068,-12.63123 13.2332,-4.81208 21.6554,-11.42971 25.2645,-19.85074 v -7.21756 l -32.482,-9.02146 c 4.812,-14.43616 -0.6019,-21.65465 -16.241,-21.65465 -3.6091,-1.20293 -3.9086,-5.71458 -0.901,-13.53414 3.0075,-7.81955 8.1203,-18.3459 15.338,-31.57903 8.4211,-7.21807 12.9327,-18.64682 13.5342,-34.28586 0.6015,-15.63913 3.9093,-30.6771 9.9243,-45.11318 13.8347,-4.21054 28.7219,-6.09051 44.6618,-5.63939 z m -12.1817,25.48816 c -16.8422,0 -28.2708,4.21215 -34.2858,12.63319 v 16.24099 c 12.03,-8.42108 24.6624,-12.6332 37.8956,-12.6332 12.03,0 31.8792,4.81302 59.5482,14.43709 h 27.0683 v -9.02343 h -27.0683 c -25.2631,-14.43606 -46.316,-21.65464 -63.158,-21.65464 z m 0,25.26441 c -10.827,0 -21.0519,7.21857 -30.6761,21.65464 h -7.2176 v 10.82732 h 7.2176 c 20.451,14.4361 51.7288,9.62306 93.8341,-14.43708 h 27.0683 v -5.41366 h -27.0683 c -4.812,0 -12.6317,-2.10411 -23.4584,-6.31463 -10.8272,-4.21051 -24.0605,-6.31659 -39.6996,-6.31659 z m 18.0468,12.63122 c 9.6241,0 18.6453,1.80461 27.0664,5.41366 -30.0754,15.6391 -53.5334,18.64748 -70.3756,9.02341 3.6091,-6.01502 7.2183,-10.22715 10.8272,-12.63317 1.2031,10.82705 6.9164,16.24099 17.142,16.24099 10.2253,0 15.34,-6.0148 15.34,-18.04489 z m -62.9323,106.12777 c 3.158,-0.0751 6.6899,0.0388 10.5997,0.33958 -18.0452,9.62407 -27.6692,11.42868 -28.8724,5.41366 2.7069,-3.60902 8.799,-5.52767 18.2727,-5.75324 z m 241.5792,130.26349 c 43.3084,0 64.9619,33.6853 64.9619,101.05368 -40.9021,108.27091 -72.1798,193.38421 -93.8341,255.33901 -21.6543,61.9551 -37.8961,186.7685 -48.7229,374.4377 -9.6242,86.6167 -52.3303,127.5182 -128.1201,122.7064 -83.0076,-6.0151 -167.82153,-20.4502 -254.43808,-43.3074 -86.61661,-22.8569 -185.86566,-2.4054 -297.74543,61.3543 -14.43609,7.218 -28.56978,0.6003 -42.40439,-19.8509 -13.83458,-20.4512 3.90838,-44.5122 53.23171,-72.1814 95.03767,-45.7143 223.76182,-93.8348 386.16789,-144.361 39.6995,-73.3834 71.2786,-131.4292 94.7371,-174.1362 23.4587,-42.7066 37.5944,-91.1284 42.4064,-145.2639 -21.6543,-21.6539 -37.8959,-48.7217 -48.723,-81.203 14.4361,-54.1351 56.5417,-118.49542 126.3161,-193.0819 h 39.6995 v 169.6235 h 106.4674 z" />
</svg>
