<?xml version="1.0" encoding="UTF-8" standalone="no"?>
<svg
   width="12.7"
   height="17.983"
   version="1.1"
   id="svg446"
   sodipodi:docname="US9C22VARA.svg"
   inkscape:version="1.2.1 (9c6d41e410, 2022-07-14)"
   xmlns:inkscape="http://www.inkscape.org/namespaces/inkscape"
   xmlns:sodipodi="http://sodipodi.sourceforge.net/DTD/sodipodi-0.dtd"
   xmlns="http://www.w3.org/2000/svg"
   xmlns:svg="http://www.w3.org/2000/svg">
  <defs
     id="defs450" />
  <sodipodi:namedview
     id="namedview448"
     pagecolor="#ffffff"
     bordercolor="#000000"
     borderopacity="0.25"
     inkscape:showpageshadow="2"
     inkscape:pageopacity="0.0"
     inkscape:pagecheckerboard="0"
     inkscape:deskcolor="#d1d1d1"
     showgrid="false"
     inkscape:zoom="31.639149"
     inkscape:cx="4.2984722"
     inkscape:cy="8.4389123"
     inkscape:window-width="1920"
     inkscape:window-height="1017"
     inkscape:window-x="1072"
     inkscape:window-y="-8"
     inkscape:window-maximized="1"
     inkscape:current-layer="svg446" />
  <path
     id="path444"
     style="fill:#000000;stroke:none"
     d="M 7.5964717,0.03125 C 7.014391,0.03019152 6.3614784,0.036361 5.6413936,0.04882812 6.9755698,0.9896052 8.6552315,1.5642205 10.67655,1.7734375 l 0.179687,-0.83007812 c 0.264566,0.27307822 0.52316,0.48433332 0.773438,0.63281252 0.03201,0.061442 0.06094,0.112968 0.05859,0.1425781 0.02343,0.1810745 0.02234,0.4400733 -0.0078,0.7890625 -0.03637,0.4208692 0.05348,1.3786957 0.105469,1.8359375 C 11.142501,4.9378502 10.697097,5.3925781 10.032019,5.3925781 10.052803,4.5820144 9.7146,3.9075638 9.0183467,3.3671875 9.0287387,3.0762154 8.9973397,2.785112 8.9245967,2.4941406 8.8518539,2.2031692 8.7995217,1.9800964 8.7683467,1.8242188 c -0.083135,-0.083135 -0.154446,-0.072669 -0.2167968,0.03125 0.03117,0.1454863 0.028556,0.3711749 -0.00781,0.6777343 -0.036371,0.3065594 -0.065155,0.4799174 -0.085937,0.5214844 0.010392,-0.2597961 -7.42e-5,-0.503801 -0.03125,-0.7324219 -0.031175,-0.2286201 -0.067807,-0.3941285 -0.109375,-0.4980468 -0.083135,-0.1039185 -0.1511662,-0.1039185 -0.203125,0 -0.051959,0.5195921 -0.1147569,0.8977064 -0.1875,1.1367187 -0.072743,0.2390129 -0.1492868,0.4169395 -0.2324219,0.53125 -0.1039185,0.020783 -0.1850324,0.041717 -0.2421875,0.0625 -0.057158,0.020784 -0.12257,0.039099 -0.1953125,0.054687 -0.072746,0.015589 -0.1597564,0.068583 -0.2636749,0.1621099 l -1.2949219,0.28125 v 0.09375 c 0.010392,0.1766616 0.078423,0.3003043 0.203125,0.3730468 0.2494043,0.062351 0.7426475,0.2036463 1.4804688,0.421875 C 7.1841831,5.2739456 7.0448406,5.7828887 6.9617061,6.46875 6.2446688,6.8844239 6.0155235,6.8875843 5.2019405,6.9863281 L 3.6938765,5.6243906 c 0,0 0.292398,-0.6035908 0.4623554,-1.1423811 0.1699575,-0.5387903 0.8700039,-1.2914092 0.7527398,-1.5952907 0,0 -0.6346849,-0.1349108 -1.3085937,-0.087891 C 2.9058132,2.8472901 2.2127605,3.1429654 1.8601436,3.3417969 1.5075261,3.5406282 0.64501693,4.6016713 0.44608113,5.1640625 0.24712233,5.7264466 0.03554531,6.8023658 0.21170613,7.546875 0.38786695,8.2913843 0.85523152,8.7039837 1.3542842,9.1132812 1.8533369,9.5225788 2.6140499,9.859375 2.6140499,9.859375 2.8691749,9.5935133 2.8852004,8.6197578 3.0170434,8.0089591 3.1488865,7.3981604 3.2071949,6.8882079 3.404814,6.4779062 3.8262492,6.7559221 4.8636703,7.7169731 5.2678967,7.9238281 5.998818,7.8947404 6.2828018,7.8858006 6.9773311,7.4980469 v 0.21875 H 7.194128 c 0.1662696,0.1870536 0.2761657,0.6488983 0.328125,1.3867187 0.051959,0.7482133 -0.2025124,1.2152914 -0.7636719,1.4023434 -1.4236832,0.945657 -2.2603615,1.642995 -2.5097656,2.089844 -0.2182289,0.155878 -0.3595242,0.893126 -0.421875,2.212891 -0.1454858,1.132711 -0.3580918,1.80193 -0.6386719,2.009765 -0.2805801,0.207837 -0.7371911,0.422397 -1.3710937,0.640625 -0.3117554,-0.01039 -0.46875,0.160351 -0.46875,0.513672 h 0.9355468 c 0.5923355,-0.270184 1.0195008,-0.37485 1.2792969,-0.3125 0.5819438,-0.01039 0.747451,-0.320473 0.4980469,-0.933594 0.8625232,-1.486033 1.1640931,-2.558205 0.9042968,-3.21289 h 0.9199219 c 0.6442941,0.73782 1.2317345,1.59543 1.7617188,2.572266 0.1558776,0.259794 -0.027283,0.697427 -0.546875,1.310546 -0.4364579,0.01039 -0.6542969,0.202067 -0.6542969,0.576172 H 7.287878 C 7.8178621,17.442673 8.2868924,17.094004 8.6921749,16.927734 9.0870648,16.667939 8.9562358,16.350669 8.3015499,15.976562 7.9482265,14.241124 7.444517,13.27557 6.7898311,13.078125 c 0.3533225,-0.509199 1.1167367,-1.101873 2.2910156,-1.777344 0.2909714,-0.176662 0.4721791,-0.363102 0.5449219,-0.560547 0.5819434,0.342932 0.9593934,0.81001 1.1308594,1.402344 0.171469,0.592337 0.24473,1.064646 0.21875,1.417969 -0.02597,0.353323 -0.01551,0.864218 0.03125,1.529297 0.04676,0.665078 0.131156,1.074593 0.255859,1.230468 0.415674,0.135095 0.520337,-0.01471 0.3125,-0.451171 C 11.471068,13.447839 11.25323,11.994938 10.92069,11.511719 10.588152,11.028497 10.192385,10.666747 9.7351436,10.427734 9.7974947,10.199115 9.7104846,9.8053003 9.4714717,9.2441406 9.4506884,8.4543602 9.6475947,7.4920861 10.063269,6.359375 11.493212,6.1478669 12.416236,4.8068875 12.63944,4.6054688 12.663662,4.4106461 12.303354,2.5324584 12.078894,1.5761719 c 0.03782,-0.053652 0.05364,-0.1536304 0.05469,-0.2070313 0.0022,-0.1104026 -0.0101,-0.2203232 -0.0625,-0.40624998 L 12.018347,0.7890625 C 12.340304,1.049182 12.527074,1.0761916 12.578894,0.8691406 12.654083,0.50728592 12.399403,0.32137274 11.817175,0.31054688 11.751474,0.18308922 11.672062,0.17338893 11.578894,0.28125 11.55406,0.16144814 11.488009,0.1522689 11.379675,0.25390625 11.339685,0.12787481 11.270412,0.1140978 11.172644,0.2109375 11.123465,0.06286838 11.056832,0.06591446 10.971472,0.22265625 10.467267,0.09774366 9.3427141,0.03442545 7.5964717,0.03125 Z M 6.5808467,0.31054688 C 8.0479036,0.36515738 9.4006786,0.4650687 10.641394,0.609375 10.551442,0.75509652 10.475553,1.0062226 10.410925,1.3632812 9.3685875,1.2730606 8.0916991,0.92202329 6.5808467,0.31054688 Z M 4.2859249,3.296875 c 0,0 -0.2583284,0.2903705 -0.7477726,1.429829 C 3.0487082,5.8661625 3.0024974,6.2149643 2.7562168,7.1719513 2.5099361,8.1289383 2.3757686,9.1367188 2.3757686,9.1367188 c 0,0 -0.6329885,-0.3326808 -1,-0.7089844 C 1.0087571,8.0514318 0.80707854,7.5906834 0.71951863,7.09375 0.63195872,6.5968163 0.77920688,5.9484856 1.0320186,5.2617188 1.28483,4.5749514 2.0110392,3.9457664 2.256628,3.8203125 2.5022167,3.6948584 2.8679866,3.4359914 3.3523311,3.3730469 3.8456969,3.3089299 4.2859249,3.296875 4.2859249,3.296875 Z M 7.397253,3.6640625 c 0.029552,-0.00162 0.05866,0.00132 0.085937,0.00781 0.1091145,0.02598 0.216394,0.068509 0.3203125,0.1308594 h 0.2167969 v 0.0625 H 7.803503 C 7.6788005,3.7924934 7.5689045,3.7480099 7.475378,3.7324219 7.3818511,3.7168349 7.2667216,3.756083 7.131628,3.8496094 l -0.03125,-0.0625 C 7.2094923,3.7091705 7.3085975,3.6689339 7.397253,3.6640625 Z m 1.6210937,0.076172 C 9.4651959,4.1455168 9.6882686,4.7015578 9.6882686,5.4082031 9.5427821,5.4289871 9.3694251,5.4473033 9.1667842,5.4628906 8.9641439,5.4784786 8.8620967,5.6904212 8.8620967,6.0957031 V 7.4824219 H 8.3327999 V 6.46875 c 0,-0.6131188 -0.094197,-1.1482276 -0.28125,-1.6054688 C 8.4568316,4.7801461 8.5981265,4.5256744 8.4734249,4.0996094 8.691653,4.0788254 8.8728604,3.9584632 9.0183467,3.7402345 Z M 7.3601436,3.8125 c 0.022083,-6.495e-4 0.044978,6.63e-4 0.068359,0.00586 0.093527,0.020784 0.1877235,0.062649 0.28125,0.125 l 0.3261719,0.015625 -0.015625,0.125 -0.3261719,-0.03125 C 7.5070747,4.12548 7.3710124,4.149027 7.2878776,4.123047 7.2047426,4.097066 7.1419444,4.089216 7.1003776,4.09961 l -0.015625,-0.046875 0.09375,-0.15625 C 7.2330602,3.8419268 7.2938958,3.8144486 7.3601436,3.8125 Z m 0.083984,0.068359 c 0.051959,0.051959 0.057192,0.1095237 0.015625,0.171875 l 0.1875,-0.0625 z m -0.15625,0.015625 -0.140625,0.140625 0.15625,0.03125 C 7.2515441,4.0164005 7.2463111,3.9588359 7.2878776,3.896484 Z m 0.28125,1.2167968 C 7.8185321,5.3211181 7.8577811,5.494476 7.6863155,5.6347656 7.5148497,5.7750554 7.428503,6.0530761 7.428503,6.46875 V 7.4824219 H 7.194128 V 6.359375 C 7.2980465,5.7254722 7.4236415,5.3107263 7.5691276,5.1132808 Z m 0.3125,0.9980469 c 0.1454856,0 0.2167969,0.1184096 0.2167969,0.3574219 V 7.7167969 H 9.0964717 V 6.171875 c 0.1558771,0.1247028 0.3632508,0.1875 0.6230469,0.1875 -0.4052819,1.2470216 -0.6100384,2.0549176 -0.6152344,2.4238281 -0.0052,0.3689101 0.068068,0.7699094 0.21875,1.2011719 0.1506811,0.431262 -0.171821,0.861706 -0.9667969,1.292969 -0.7949764,0.43126 -1.5453072,1.000386 -2.2519531,1.707031 H 4.6999873 C 4.6895955,12.558308 5.3450664,11.92377 6.6648311,11.082031 7.5273546,10.62479 7.9335868,9.9660393 7.881628,9.1035156 7.8296687,8.4800055 7.7354723,8.018161 7.600378,7.7167969 H 7.678503 V 6.46875 c 0,-0.2390123 0.06803,-0.3574219 0.2031246,-0.3574223 z"
     sodipodi:nodetypes="scccccccccsccccsccscsscccccccczcsscssczcccccccccsccccccccccccccccscscccccccccccccccccsccccczzcssssscccccccscccccssccscccscccccscccscccccccccssccccsscccccscccccccss" />
</svg>
