<?xml version="1.0" encoding="UTF-8" standalone="no"?>
<svg
   width="540"
   height="1800"
   version="1.1"
   id="svg4"
   sodipodi:docname="US9C175VARA.svg"
   inkscape:version="1.2.1 (9c6d41e410, 2022-07-14)"
   xmlns:inkscape="http://www.inkscape.org/namespaces/inkscape"
   xmlns:sodipodi="http://sodipodi.sourceforge.net/DTD/sodipodi-0.dtd"
   xmlns="http://www.w3.org/2000/svg"
   xmlns:svg="http://www.w3.org/2000/svg">
  <defs
     id="defs8" />
  <sodipodi:namedview
     id="namedview6"
     pagecolor="#ffffff"
     bordercolor="#000000"
     borderopacity="0.25"
     inkscape:showpageshadow="2"
     inkscape:pageopacity="0.0"
     inkscape:pagecheckerboard="0"
     inkscape:deskcolor="#d1d1d1"
     showgrid="false"
     inkscape:zoom="0.79311236"
     inkscape:cx="269.82305"
     inkscape:cy="340.43096"
     inkscape:window-width="1920"
     inkscape:window-height="1017"
     inkscape:window-x="1912"
     inkscape:window-y="-8"
     inkscape:window-maximized="1"
     inkscape:current-layer="svg4" />
  <path
     id="path2"
     style="fill:#000000;stroke:none;stroke-width:98.4052"
     d="m 387.16021,3.8993008 c -24.04526,-4.71022928 -44.13533,5.22297 -55.23078,12.1475742 -18.28954,12.787569 -13.60715,49.008441 -13.60715,108.675785 l 9.28293,147.98437 c -11.39281,1.12709 -22.90266,3.13388 -34.38867,6.19336 -39.52163,10.14669 -64.10479,36.35581 -73.55274,78.8418 -6.77037,37.21092 -15.79816,64.57103 -27.08203,82.08203 -2.2567,8.75544 1.12722,12.58854 10.1543,11.49414 4.5135,2.18891 5.0785,4.64866 1.69336,7.38476 -3.38517,2.73605 -1.69216,6.29409 5.07812,10.67188 -4.5135,8.75546 -2.25757,13.13282 6.76954,13.13281 -2.25685,6.56666 -1.41032,12.85953 2.53906,18.87891 3.94934,6.01936 12.13066,8.20996 24.54297,6.56836 12.41229,-1.64167 23.69605,-3.01107 33.85156,-4.10547 3.38517,17.51101 10.15503,31.73923 20.31055,42.68359 h -45.69922 c -47.39239,10.94435 -73.34585,33.38105 -77.85938,67.3086 -11.79273,34.75887 -22.60398,64.45477 -28.69336,99.71093 -10.62858,31.59909 -19.90806,74.44671 -27.80078,128.83985 -14.73012,24.9951 -24.453377,55.6657 -29.171867,92.00976 -4.71851,36.34404 -15.1663,74.94996 -31.34571,115.81836 -0.32622,0.897 -0.19357,1.806 -0.24804,2.7129 l -0.45313,-0.065 c -9.06739,10.6913 -18.41687,23.6226 -28.04883,38.793 -4.53368,5.3455 -8.82432,13.1267 -12.86914,23.3438 -2.83141,7.152 -4.243,18.3499 -4.23437,33.5937 0.009,15.2438 -1.4810804,28.1698 -4.4726604,38.7793 -0.56449,4.4792 0.005,7.6214 1.70703,9.4277 1.7022804,1.8063 4.0100404,2.081 6.9257804,0.8223 -0.40442,1.0216 0.44789,1.9244 2.55469,2.709 2.10681,0.7846 3.88784,0.8637 5.34571,0.2344 -0.40452,1.0216 0.44788,1.9243 2.55468,2.7089 1.8322,0.6823 3.57141,0.4392 5.21875,-0.7207 -0.32931,0.6317 0.39513,1.498 2.19336,2.6016 2.4306,1.4935 4.65841,-0.3153 6.68164,-5.4258 2.66265,-18.9382 3.8695,-33.4366 3.62305,-43.4941 -0.24886,-10.0575 3.79478,-24.0858 12.12891,-42.084 2.67128,-3.6948 4.16968,-5.1875 4.49414,-4.4805 0.32371,0.7088 0.60642,2.2809 0.85156,4.7149 -1.37364,6.5224 -4.20495,13.6717 -8.49414,21.4531 -2.83144,7.152 -4.46808,13.5783 -4.91016,19.2754 -0.44241,5.6972 1.31985,8.1127 5.28906,7.2461 3.56468,0.1554 5.9139,-4.2447 7.04297,-13.2031 4.28932,-7.7813 10.21779,-18.1773 17.78516,-31.1856 7.38097,-12.688 10.56341,-32.2517 9.57422,-58.6523 43.740617,-77.49328 66.893827,-139.81268 69.062497,-186.66214 24.91792,-59.88836 43.23471,-119.89087 54.94726,-180.00781 7.1622,-13.96862 26.96598,-38.04444 30.46485,-42.69727 5.64193,14.2277 1.12811,31.1908 -13.54102,50.89063 5.64196,14.22772 13.54175,23.80358 23.69727,28.72851 10.15552,4.92501 14.66936,11.21785 13.54101,18.87891 -27.08142,201.37653 -39.49507,323.40877 -37.23828,366.09177 21.43948,119.2937 32.72516,187.4229 33.85352,204.3867 1.12837,16.9638 -1.12953,64.2989 -6.77149,142.004 -5.64194,77.705 -11.28384,132.4274 -16.92578,164.166 -4.51358,27.361 -9.02745,45.9664 -13.54101,55.8164 -18.05427,28.4554 -55.00802,49.5247 -110.86329,63.2051 -55.855307,13.6804 -83.220167,25.993 -82.091787,36.9375 v 11.4902 l 67.70312,1.6406 c 45.135597,-8.7554 84.065787,-9.3016 116.789067,-1.6406 34.98013,3.2833 63.19147,1.3695 84.63086,-5.7442 21.43938,-7.1139 49.08387,-4.1059 82.93554,9.0274 37.23687,-3.2832 46.82963,-24.0775 28.77539,-62.3828 -2.25687,-27.3609 -1.6938,-47.882 1.69141,-61.5625 3.38516,-13.6805 6.20608,-29.2759 8.46289,-46.7871 11.28389,-133.5214 14.38826,-235.5786 9.31055,-306.17 -5.07781,-70.5912 -0.84732,-164.44 12.69336,-281.5449 14.66909,-51.43848 19.18304,-91.38636 13.54101,-119.84177 -20.31097,-51.43856 -31.59477,-92.48074 -33.85156,-123.125 l 6.76953,-57.45703 16.92578,-32.83399 c 1.12842,33.92756 8.46322,79.34701 22.00391,136.25781 -4.51359,28.45537 -2.25572,60.46976 6.77148,96.03907 9.02715,35.56927 13.54102,75.24191 13.54102,119.01951 0.0269,0.9509 0.48801,1.7533 0.77148,2.6192 l -0.44726,0.096 c -4.5135,13.1332 -8.46246,28.4558 -11.84766,45.9668 -2.2568,6.5667 -3.38672,15.3231 -3.38672,26.2675 0,7.6611 2.82102,18.6044 8.46289,32.8321 5.642,14.2277 9.02795,26.8153 10.15625,37.7597 1.1284,4.3778 2.82133,7.1127 5.07813,8.2071 2.25677,1.0944 4.51273,0.5481 6.76953,-1.6407 0,1.0944 1.12992,1.6407 3.38672,1.6407 2.25677,0 3.94777,-0.5463 5.07617,-1.6407 0,1.0944 1.12992,1.6407 3.38672,1.6407 1.96266,0 3.49624,-0.8287 4.60547,-2.4844 -0.0743,0.7043 0.92307,1.2591 3.00976,1.6641 2.821,0.5491 4.23242,-1.9126 4.23242,-7.3868 -4.51347,-18.6055 -8.74591,-32.5605 -12.69531,-41.8632 -3.94937,-9.3025 -5.35887,-23.8042 -4.23047,-43.504 1.1283,-4.3778 1.97487,-6.2932 2.53907,-5.746 0.56417,0.5492 1.40873,1.9183 2.5371,4.1054 1.1283,6.5665 1.1283,14.2269 0,22.9824 0,7.6611 0.84627,14.2291 2.53907,19.7012 1.6925,5.4724 4.23201,7.1128 7.61718,4.9238 3.3851,-1.0943 3.95016,-6.0197 1.69336,-14.7753 1.1284,-8.7555 2.82123,-20.5202 5.07813,-35.295 2.20121,-14.411 -2.05759,-33.7835 -12.73828,-58.0859 12.19372,-87.55093 10.77638,-153.77559 -4.51367,-198.26563 1.12834,-64.57184 -3.94854,-126.95637 -15.23243,-187.15039 l 6.76954,-1.64258 v -83.72461 c 0,-121.48262 -16.36068,-208.49047 -49.08399,-261.02344 -12.34223,-17.95631 -30.63409,-30.65221 -54.45117,-38.46093 -17.83302,-7.69686 -37.59385,-11.25738 -58.13281,-11.39454 -0.38994,-5.1744 -0.99528,-26.3909 0.74804,-29.04627 11.27434,-15.62659 46.30085,-5.60534 74.48078,-12.70287 L 393.06841,106.41687 C 387.52794,90.110357 395.88462,87.252882 409.97466,78.711801 429.69584,64.504678 433.99041,48.167648 422.6563,29.702036 413.85008,11.943186 401.7516,6.75761 387.16021,3.8993008 Z M 334.75951,297.00195 c 48.52074,0 83.50004,12.03759 104.93945,36.11524 32.72328,52.53304 49.08594,135.7117 49.08594,249.5332 v 64.02539 H 373.68919 v -193.7168 c 14.66911,-18.60547 22.00196,-35.02231 22.00196,-49.25 0,-31.7387 -10.71884,-47.60742 -32.1582,-47.60742 -16.92592,0 -25.38868,6.56598 -25.38868,19.69922 -6.77036,1.09448 -13.8237,-4.65221 -21.1582,-17.23828 -7.3345,-12.58601 -30.74853,-17.23643 -70.24219,-13.95312 10.15552,-31.73874 39.49483,-47.60743 88.01563,-47.60743 z m -68.97461,64.79493 c 22.84992,-0.92342 36.8148,2.92232 41.89258,11.54101 6.7703,11.4916 21.44006,21.61554 44.00781,30.37109 0,-18.60549 4.51198,-27.9082 13.53906,-27.9082 6.77037,0 10.15625,9.30271 10.15625,27.9082 0,14.22769 -7.33479,30.09839 -22.00391,47.60938 v 95.21484 h -28.77343 c -12.41231,-10.94436 -23.69605,-30.64417 -33.85157,-59.09961 -10.15549,-2.18891 -22.00424,-1.9158 -35.54492,0.82032 -13.54071,2.73612 -21.15708,1.09558 -22.84961,-4.92383 -1.69254,-6.01943 3.10285,-10.39671 14.38672,-13.13281 11.2839,-2.73607 5.64199,-6.84221 -16.92578,-12.31446 l -1.69336,4.92578 -1.6914,-9.84961 c 3.38512,-3.28337 3.9482,-6.56632 1.6914,-9.8496 -2.25679,-3.28329 -7.3337,-3.83147 -15.23242,-1.64258 L 233.20287,395.5 c 14.66901,-14.22766 41.18745,-15.32195 79.55273,-3.2832 v -4.92383 c -39.49363,-13.13324 -65.44708,-15.32188 -77.85937,-6.56641 l 5.07812,-16.41601 c 9.59132,-1.36805 18.19391,-2.20587 25.81055,-2.51367 z m -1.69141,28.57421 c -2.53887,-0.13681 -4.93658,-0.0705 -7.19336,0.20313 -6.77038,1.0944 -11.56573,3.28501 -14.38672,6.56836 -2.821,3.28338 -4.79742,5.47203 -5.92578,6.5664 l -6.76953,3.28321 v 8.20703 l 6.76953,-1.64063 c 2.2568,0 5.36116,0.54623 9.31055,1.64063 3.94936,1.0944 8.74476,1.64258 14.38672,1.64258 6.77036,-1.09442 16.92614,-4.92358 30.46679,-11.49024 h 22.00391 v -8.20898 h -22.00391 c -10.15548,-4.10412 -19.04159,-6.36106 -26.6582,-6.77149 z M 263.66966,395.5 c 2.25679,0 9.5916,2.18865 22.00391,6.56641 -10.15551,4.37779 -18.61831,7.11653 -25.38867,8.21093 h -8.46289 c -3.38517,0 -7.33407,-1.09624 -11.84766,-3.28515 1.12844,0 2.82134,-1.36747 5.07813,-4.10352 2.2567,-2.73615 5.07765,-4.65168 8.46289,-5.74609 -2.2568,1.09443 -3.38672,2.73496 -3.38672,4.92383 1.12835,4.37777 3.9493,6.56836 8.46289,6.56836 5.64193,-1.09449 8.46289,-3.83123 8.46289,-8.20899 -1.12844,-2.18889 -2.25642,-3.83138 -3.38477,-4.92578 z m -5.07812,3.2832 c 1.12833,0 1.97487,0.27504 2.53906,0.82227 0.5642,0.54719 0.84766,1.36656 0.84766,2.46094 l -0.84766,1.64257 c -0.56417,1.0944 -1.41071,1.64258 -2.53906,1.64258 -1.12833,0 -1.97291,-0.27504 -2.53711,-0.82226 -0.5642,-0.5472 -0.84766,-1.36849 -0.84766,-2.46289 l 0.84766,-1.64063 c 0.56417,-1.0944 1.40876,-1.64258 2.53711,-1.64258 z m -18.61719,172.375 h 113.40234 v 96.85938 h 81.24415 l -24.05274,52.11719 -128.16015,-0.87891 c -16.92592,1.09447 -27.20118,-9.65062 -27.20118,-21.68945 28.20976,-52.53298 23.13287,-94.66949 -15.23242,-126.40821 z m 66.00977,182.22461 h 88.01562 c -3.38513,52.53295 2.53823,97.40628 17.77149,134.61719 15.23329,37.21085 17.49122,74.69492 6.77148,112.4531 -10.71968,37.7582 -16.36158,80.4426 -16.92578,128.0508 -0.56422,47.6079 -2.54065,92.7524 -5.92578,135.4356 10.15551,87.555 6.20658,207.3967 -11.84766,359.5234 H 277.21068 c 21.43941,-178.3933 24.54185,-307.5377 9.30859,-387.4317 -15.23329,-79.8941 -22.84961,-128.0502 -22.84961,-144.4667 2.25679,-76.6108 16.36145,-189.33818 42.31446,-338.18169 z m 3.38672,893.06449 h 38.92968 c 5.64196,22.9832 3.10247,42.4081 -7.61718,58.2773 -10.71974,15.8692 -27.92882,26.5413 -51.625,32.0137 -3.38515,-18.6055 3.38667,-48.7024 20.3125,-90.291 z"
     sodipodi:nodetypes="scccccccsccssccccccsccccsccscscscccccccccccscccccsccssccsccccsccscsccccccsccccsscscscscccscccccccsccccsccccccccsscscccsscscssscssccccssscccsccccccsscsccccscccccscccscccccccssccssccsccccccccccssscccsccccscc" />
</svg>
