<?xml version="1.0" encoding="UTF-8" standalone="no"?>
<!-- Created with Inkscape (http://www.inkscape.org/) -->

<svg
   width="1137.61"
   height="1797.127"
   viewBox="0 0 1137.61 1797.127"
   version="1.1"
   id="svg10448"
   xmlns="http://www.w3.org/2000/svg"
   xmlns:svg="http://www.w3.org/2000/svg">
  <defs
     id="defs10445" />
  <path
     id="path11464"
     style="fill:#000000;stroke:none;stroke-width:98.7242"
     d="m 693.91069,0 c 5.73251,10.197154 16.62472,25.494428 32.67578,45.888672 16.05107,20.394249 28.37587,48.946577 36.97461,85.656248 8.59885,36.70967 20.35134,61.18338 35.25586,73.41992 14.90457,12.23653 28.08963,20.39377 39.55468,24.47266 h -17.19726 c -6.87906,4.07887 -6.87906,8.15751 0,12.23633 h 8.59765 l 6.87891,26.00195 c -9.2395,5.4785 -19.04403,12.35025 -25.19531,18.4375 -5.26081,-2.29226 -13.26196,-4.31402 -21.35938,-18.61523 -7.38021,-13.03455 -15.13979,-7.74486 -28.02929,-7.95703 -16.6851,-0.27464 -33.73469,25.98215 -34.32813,28 -4.46552,15.18384 7.64715,9.05106 18.06836,-1.76954 5.61201,-5.82708 20.95754,-7.19782 27.79688,2.4629 5.84228,8.25232 27.70986,17.36519 26.93164,19.21093 -6.87908,16.31545 -10.89063,27.02253 -12.03711,32.1211 -8.0255,14.27593 -12.03907,30.08281 -12.03907,47.41797 -22.93006,24.47308 -32.67578,38.74925 -29.23632,42.82812 4.58604,4.07888 9.74603,7.13833 15.47851,9.17773 l -3.43945,4.58789 c -6.87899,3.0592 -6.87899,7.13781 0,12.23633 -4.58598,9.17741 -1.71892,14.27712 8.59961,15.29688 0,22.43362 10.31804,33.65039 30.95508,33.65039 h 37.83398 c 8.0255,19.37455 16.62483,32.62951 25.79688,39.76758 h 1.7207 c -75.66923,0 -125.54448,20.90465 -149.62109,62.71289 l -25.79493,44.35742 C 675.88669,669.5261 651.8609,663.37859 589.68217,623.25 c -35.58584,-22.96622 -61.60688,-34.10127 -93.70898,-79.98828 5.73251,-13.25629 4.39449,-16.32284 5.54101,-34.67774 2.29304,-9.1774 2.86725,-19.37494 1.72071,-30.59179 -1.14648,-8.15764 -6.02041,-18.86475 -14.61915,-32.1211 -8.59881,-13.25619 -14.04489,-26.00168 -16.33789,-38.23828 -2.29301,-4.07886 -4.87204,-6.37491 -7.73828,-6.88476 -2.86626,-0.50984 -6.01944,0.76509 -9.45898,3.82422 -1.14648,-2.03944 -2.86519,-2.54906 -5.1582,-1.5293 -2.29303,1.01966 -3.43946,2.5504 -3.43946,4.58984 -3.43946,-2.03944 -6.30659,-2.54903 -8.59961,-1.52929 -2.293,1.01967 -3.43945,2.54846 -3.43945,4.58789 -1.14647,-2.03943 -4.01164,-2.29523 -8.59766,-0.76563 -4.58604,1.52952 -5.73441,4.3352 -3.4414,8.41406 10.31853,16.31546 18.05752,29.31667 23.21679,39.00391 5.15925,9.68725 8.31251,25.23837 9.45899,46.65234 0,4.07888 -0.85844,6.37297 -2.57813,6.88282 -1.71979,0.50984 -3.1543,-0.76511 -4.30078,-3.82422 -1.14652,-6.11829 -1.71875,-14.27558 -1.71875,-24.47266 -1.14645,-8.15773 -3.15326,-14.78622 -6.01953,-19.88476 -2.8663,-5.09861 -7.16595,-6.11779 -12.89844,-3.0586 -3.4395,1.01968 -2.86533,6.62707 1.72071,16.82422 -1.14655,8.15772 -2.58101,20.13979 -4.30078,35.94531 -1.71972,15.80554 5.44704,31.86628 21.49804,48.18164 5.57427,21.50076 59.02149,73.04297 59.02149,73.04297 21.27001,27.9027 79.42343,55.91635 141.97265,83.74024 l -27.51562,41.29687 c -42.42065,0 -178.85781,4.59024 -274.01758,13.76758 -30.95557,-16.3153 -62.48578,-31.10118 -94.58789,-44.35742 l 1.17187,-246.05078 139.73828,-0.57422 v -28.31055 l -139.60351,0.56836 0.64062,-134.63672 c 18.34404,-46.90677 36.68918,-76.47834 55.03321,-88.71484 11.46506,4.07883 19.49012,5.09803 24.07617,3.05859 4.586,-2.03944 2.29313,-8.15831 -6.87891,-18.35547 -19.49057,-23.45341 -51.02078,-35.17968 -94.58789,-35.17968 -42.42064,0 -73.94889,11.72627 -94.58593,35.17968 -9.17206,10.19716 -11.1788,16.31603 -6.01954,18.35547 5.15927,2.03944 12.89827,1.02024 23.2168,-3.05859 18.34409,12.2365 37.26145,41.80807 56.75195,88.71484 l -0.64843,134.8125 -41.99024,0.16992 V 386.3418 h -21.56836 v 2 64.54687 C 114.37326,438.38212 81.169063,423.48896 45.678263,423.01172 c -17.80073,-0.47862 -36.7277199,9.05679 -42.3105399,26.875 -7.6806198,18.94738 -2.0061098,43.28408 14.8007799,55.45117 20.66952,13.35072 47.01621,7.67925 69.16601,1.63281 20.216347,-5.90893 39.634737,-14.23367 58.599607,-23.33008 0.39435,22.09382 0.0556,44.30589 0.16797,66.44532 h 23.52149 v -67.7168 l 39.90039,-0.16406 -1.16211,241.28515 c -12.61154,1.01976 -17.77152,4.58872 -15.47852,10.70704 2.29302,6.1182 7.45301,10.19692 15.47852,12.23632 -19.4905,-3.05909 -27.51567,8.41341 -24.07617,34.41602 3.43946,26.00274 10.89235,39.00391 22.35742,39.00391 l -0.29688,704.19918 c 12.59325,48.0817 27.40988,44.7191 39.91211,-0.3789 L 251.356,815.26562 c 19.49057,7.138 48.72789,6.62836 87.70898,-1.52929 126.1154,18.35474 279.17696,24.47177 323.89063,18.35351 l 82.54883,-91.77343 c 19.49058,-3.05913 32.67573,-5.60901 39.55468,-7.64844 5.73252,73.41933 7.45123,145.8193 5.15821,217.19922 -77.96222,13.25626 -197.20048,41.29917 -357.71094,84.12691 -56.17865,20.3944 -81.9746,63.7341 -77.38867,130.0157 -12.61151,90.7543 -21.21091,199.864 -25.79688,327.3281 v 1.5293 c 0,19.3862 -3.66653,36.8404 -10.31836,52.7207 -4.58951,10.111 -16.09281,33.3435 -44.71289,46.3633 -26.96648,12.6603 -68.72596,24.5058 -125.54297,35.5195 -33.036,9.7942 -49.498397,24.3435 -49.746087,43.5449 h -79.18945 v 17.0449 109.0665 H 1133.774 v -126.1114 h -63.2343 V 940.69141 h 1.7187 c 0,-8.15768 4.0136,-12.23828 12.0391,-12.23829 9.1721,0 13.7578,4.08061 13.7578,12.23829 v 126.95309 h 37.8359 V 928.45312 c 0,-21.41399 -16.6243,-32.12109 -49.873,-32.12109 -34.3951,0 -51.5938,10.7071 -51.5938,32.12109 v 12.23829 h -20.6367 c 6.8789,-68.32084 12.0371,-139.70362 15.4766,-214.14258 h 56.7539 v -99.42188 c 14.9046,-12.23649 21.2091,-28.29724 18.916,-48.18164 -2.2929,-19.88441 -8.5974,-29.82617 -18.916,-29.82617 0,-75.01573 -7.995,-149.89085 -20.0742,-195.3125 -1.0739,-4.03816 40.9867,5.87955 54.705,2.97266 3.9,-6.10044 -1.447,-54.28518 -2.5,-57.32422 -2.3028,-6.64621 -63.3945,20.32672 -66.0214,14.47461 -14.678,-32.69972 -32.4609,-38.34749 -57.25793,-46.25391 l 6.87883,-26.00195 h 8.5997 c 4.5861,-4.07882 4.5861,-8.15746 0,-12.23633 h -17.19728 c 12.61148,-4.07889 26.08288,-12.23613 40.41418,-24.47266 14.3312,-12.23654 26.0818,-36.71025 35.2539,-73.41992 9.1721,-36.709671 21.785,-65.261999 37.8359,-85.656248 C 1122.7061,25.494428 1133.024,10.197154 1137.61,0 c -12.6116,4.078861 -30.0963,16.826304 -52.4532,38.240234 -22.3568,21.41399 -42.7066,65.261636 -61.0507,131.542966 4.586,-11.21685 6.8789,-23.4527 6.8789,-36.70898 0,-27.53221 -10.0319,-51.240601 -30.0958,-71.125001 -20.06386,-19.884406 -48.44082,-29.828125 -85.1289,-29.828125 -36.68812,0 -65.06511,9.943719 -85.12891,29.828125 -20.06382,19.8844 -30.0957,43.592791 -30.0957,71.125001 0,13.25628 2.29286,25.49213 6.8789,36.70898 C 789.07056,103.50187 769.00678,59.654224 747.22319,38.240234 725.43963,16.826304 707.6687,4.078861 693.91069,0 Z M 915.7603,53.535156 c 27.51617,0 49.30058,7.649608 65.35156,22.945313 16.05107,15.29569 24.07614,33.650461 24.07614,55.064451 1.1466,23.45339 -7.16465,42.5735 -24.93552,57.35938 -17.77071,14.78578 -39.26903,22.17773 -64.49218,22.17773 -25.22306,0 -46.71946,-7.39195 -64.49024,-22.17773 -17.77079,-14.78588 -26.08398,-33.90599 -24.9375,-57.35938 0,-21.41399 8.02509,-39.768761 24.07617,-55.064451 16.05101,-15.295705 37.83549,-22.945313 65.35157,-22.945313 z M 232.66655,202.82812 c 22.93013,0 41.84748,4.07862 56.75195,12.23633 -20.63702,22.43369 -39.5544,53.02634 -56.75195,91.77539 h -1.72071 c -17.19755,-38.74905 -36.11493,-69.3417 -56.75195,-91.77539 17.19755,-8.15771 36.68914,-12.23633 58.47266,-12.23633 z m 612.58398,38.84571 h 141.01953 l -5.1582,26.00195 H 850.40873 Z m 12.03906,52.00586 h 116.94336 c 37.83465,0 64.20495,61.18329 79.10945,183.54883 V 697.48828 H 957.03569 V 402.2793 c 0,-27.53231 -11.46636,-41.29883 -34.39649,-41.29883 -21.7836,0 -32.67578,-4.58822 -32.67578,-13.76563 0,-9.17739 -22.35669,-17.33469 -67.07031,-24.47265 4.586,-19.37456 16.05239,-29.0625 34.39648,-29.0625 z m -31.73633,49.92578 c 39.50064,1.00378 59.25197,18.01212 59.25196,51.02539 h 6.8789 c 5.73252,-16.31543 13.75766,-24.47266 24.07618,-24.47266 11.46506,0 13.47183,11.21675 6.01953,33.65039 -7.45226,22.43369 -14.61903,33.65039 -21.49805,33.65039 -5.73251,0 -8.59766,-3.05946 -8.59766,-9.17773 v -10.70508 h -6.8789 v 10.70508 c 1e-5,11.21691 5.15803,16.82617 15.47656,16.82617 10.31852,0 18.91785,-8.66682 25.79687,-26.00195 v 107.07031 c -9.17205,8.15773 -24.07584,9.68653 -44.71289,4.58789 -11.46506,-11.21683 -18.91792,-26.00261 -22.35742,-44.35742 H 809.1353 c -17.19756,3.05912 -24.65037,-3.05981 -22.35743,-18.35547 l 24.07618,-12.23633 c 0,-3.05915 -9.74388,-7.64742 -29.23438,-13.76562 l -10.31836,3.05859 5.1582,-9.17773 -6.01953,-3.0586 c -4.01307,-2.0394 -6.30594,-4.58929 -6.8789,-7.64843 -0.57324,-3.05913 6.59352,-13.7663 21.49804,-32.1211 5.73288,-6.11827 8.88603,-11.47186 9.45899,-16.06054 0.57324,-4.58873 5.73127,-8.66741 15.47656,-12.23633 9.74528,-3.56904 20.35137,-3.56904 31.81641,0 11.465,3.56892 22.35725,5.35351 32.67578,5.35351 v -4.58789 c -12.61155,-3.05914 -25.51053,-6.62821 -38.69531,-10.70703 -13.18482,-4.07883 -26.65605,-2.55007 -40.41407,4.58789 3.4395,-6.11827 7.45107,-11.21603 12.03711,-15.29492 6.44908,-0.50986 12.49574,-0.69418 18.13867,-0.55078 z m 3.68165,24.92773 c -2.22136,-0.19119 -4.33543,-0.15919 -6.3418,0.0957 -8.02553,1.01968 -13.47164,3.5696 -16.33789,7.64843 -2.86623,4.07889 -6.5917,7.1383 -11.17774,9.17774 v 3.05859 c 5.73248,1.01969 10.60438,2.29464 14.61719,3.82422 4.0127,1.5296 9.745,1.78342 17.19727,0.76367 7.45236,-1.01968 15.76552,-4.58871 24.9375,-10.70703 h 22.35742 v -6.11719 h -22.35742 c -8.59875,-4.58869 -16.23044,-7.17057 -22.89453,-7.74414 z m -56.21485,56.68946 c 0,6.11827 5.16,9.17773 15.47852,9.17773 6.87905,-6.11827 1.71902,-9.17773 -15.47852,-9.17773 z M 51.984913,440.69727 c 29.2552,1.33728 56.122367,14.82764 81.945307,27.49218 -26.14359,12.40708 -53.335397,25.73047 -82.794917,26.66407 -15.54755,1.42838 -29.96456,-10.90176 -29.85547,-26.7461 0.0448,-15.31301 13.14855,-28.30003 28.57812,-27.36914 z M 926.07865,552.17773 v 47.41797 c -43.56714,14.27598 -87.13405,30.59041 -130.70117,48.94532 18.34402,-20.39431 22.35563,-39.51442 12.03711,-57.35938 -10.31853,-17.84496 20.63745,-28.80592 92.86719,-32.88476 z m 0,133.07422 v 41.29688 h 70.51172 c -3.43956,75.45872 -7.45304,131.29046 -12.03906,167.49023 -4.58638,36.1999 -4.29994,82.3418 0.85938,138.42574 5.15927,56.0845 -25.5106,84.127 -92.00782,84.127 H 532.25248 c -33.24865,0 -49.87304,15.2952 -49.87304,45.8867 v 299.7969 H 361.99662 c 2.29303,-72.3995 11.46451,-172.3327 27.51563,-299.7969 -5.73259,-54.0446 18.919,-87.6948 73.95117,-100.9512 141.01996,-38.7488 261.40458,-65.77264 361.15039,-81.06834 2.29302,-82.59676 1.14655,-168.25368 -3.43945,-256.96873 38.98106,-7.13796 73.94866,-19.88348 104.90429,-38.23828 z m 85.98825,286.0293 h 22.3575 V 1370.502 H 840.09037 v 269.205 h -321.5957 v -477.2285 c 0,-9.1774 4.58576,-13.7656 13.75781,-13.7656 h 359.43164 c 106.62477,0 146.75248,-59.1448 120.38278,-177.43165 z m -134.14059,431.34175 156.49809,1.5293 V 1639.707 H 877.92631 Z m -438.54101,88.7149 h 42.99414 v 179.6777 h -78.86719 c 22.99628,-4.0792 36.48342,-11.5734 39.3125,-22.8965 3.43947,-13.7657 0.86045,-28.5517 -7.73828,-44.3574 -8.59885,-15.8055 -7.16624,-52.771 4.29883,-110.8945 z m -77.38868,1.5293 h 46.4336 c -9.17205,61.1827 -9.74428,102.7366 -1.71875,124.6601 8.0255,21.924 -4.58737,32.8868 -37.83594,32.8868 l -33.36719,0.2714 c -19.84196,0.76 -41.59736,-0.8565 -64.06836,0.5235 l -90.01757,0.7344 c -32.1021,1.0197 -26.36991,-3.5683 17.19726,-13.7657 22.50676,-3.932 42.28802,-8.6619 59.65234,-14.0976 26.99211,-10.1916 51.74288,-18.6705 70.18946,-37.9082 22.35679,-23.4535 33.53515,-54.5558 33.53515,-93.3047 z M 53.902873,1705.1074 H 1099.6822 v 57.9278 H 53.902873 Z" />
</svg>
