<?xml version="1.0" encoding="UTF-8" standalone="no"?>
<svg
   width="1262.2288"
   height="1799.4661"
   version="1.1"
   id="svg1"
   xmlns="http://www.w3.org/2000/svg"
   xmlns:svg="http://www.w3.org/2000/svg">
  <defs
     id="defs1" />
  <path
     id="path1"
     style="fill:#000000;stroke:none;stroke-width:100.595"
     d="M 866.8961,0.00496053 C 801.95849,0.14720246 729.86867,3.3324894 650.62861,9.5605268 784.40326,85.079384 936.59247,131.12475 1107.1942,147.69906 l 9.9706,-43.07285 c 5.2389,11.79816 11.9832,23.79692 20.6324,36.04983 -2.2851,98.25256 -4.8073,245.34306 0.9051,294.46926 -118.817,-6.85479 -180.29119,10.28734 -202.77235,10.49026 -16.87737,0.15235 -30.56043,-9.14068 -45.41255,-6.85576 2.28497,-77.68805 -28.56261,-142.80808 -92.54101,-195.36175 0,-27.41935 -3.14209,-55.12478 -9.4257,-83.11532 -6.28362,-27.99052 -11.13816,-49.41181 -14.56555,-64.263937 -6.8548,-6.854857 -13.13902,-5.711881 -18.85138,3.427888 2.28491,13.709699 2.00017,35.415659 -0.85599,65.119919 -2.85622,29.70426 -5.42684,46.84252 -7.71175,51.41234 1.14242,-25.13432 -5.5e-4,-48.84149 -3.42788,-71.1197 -3.42747,-22.27817 -6.85428,-38.5582 -10.28168,-48.840447 -6.85485,-9.139763 -13.13901,-9.139763 -18.85139,0 -4.56988,50.268757 -10.28266,86.827087 -17.13744,109.676497 -6.85486,22.84939 -13.7085,39.9876 -20.56336,51.41232 -10.28225,2.28492 -17.70945,4.56883 -22.27927,6.85381 -4.56994,2.28497 -10.28265,3.9994 -17.13745,5.14181 -6.85485,1.14249 -15.42293,6.28375 -25.70518,15.42351 l -119.96013,25.70518 v 10.28168 c 1.14249,15.99462 7.9981,27.42004 20.56533,34.27489 21.70691,6.85479 66.83535,20.56419 135.38364,41.12869 -18.27953,30.84673 -25.56711,3.54122 -32.42196,69.80454 C 542.13807,449.42334 565.82243,586.48714 435.78282,772.7172 401.12376,837.92677 242.87566,890.3879 188.78838,900.38633 178.50619,879.82189 157.36966,863.25517 125.38042,850.68794 139.09006,738.72575 125.38066,578.77919 84.251736,370.84935 24.84321,512.51582 -3.1469691,669.03555 0.28042484,840.40626 L 77.397938,848.974 c -22.849474,2.28498 -33.41869,17.42201 -31.70496,45.41256 1.713665,27.99059 8.854089,45.41352 21.421313,52.26831 -18.279526,38.84403 -18.849011,61.12343 -1.711973,66.83583 19.422013,5.7124 33.702863,-6.2846 42.842632,-35.98882 4.56987,-18.2796 6.85379,-30.27451 6.85379,-35.98686 l 37.70277,-1.71394 c 113.78448,52.37481 247.78033,-52.47906 297.51242,-78.57949 81.11544,-30.84668 118.29948,-196.5611 159.15451,-253.3052 v 53.64624 h 20.56532 c 14.8522,18.27953 16.56459,97.68041 5.13986,238.20437 -1.1425,30.84675 -9.13911,84.54316 -23.99125,161.0888 l -53.12429,255.3438 h 15.42349 c -12.56715,23.9921 -17.70847,43.6989 -15.42349,59.1222 2.28491,15.4234 -1.42863,51.4121 -11.13964,107.9644 -9.71101,56.5524 -24.2766,112.8195 -43.69861,168.8007 -10.28226,22.8494 -20.56477,39.7007 -30.84701,50.5543 -10.28225,10.8536 -29.70436,21.1358 -58.26613,30.847 -28.56177,9.7111 -55.98246,15.7086 -82.25933,17.9935 -26.27681,2.2849 -39.41475,15.9943 -39.41475,41.1287 -2.28496,4.5695 16.56568,6.8557 56.55219,6.8557 23.99189,0 46.55607,-4.2852 67.69182,-12.8536 21.13575,-8.5687 46.27056,-7.4256 75.40357,3.4279 29.13302,10.8536 54.55265,7.1399 76.25957,-11.1397 -5.71237,-45.6988 -1.71403,-85.6859 11.99562,-119.9601 57.12361,-110.8197 82.54513,-183.9384 76.26151,-219.3549 -6.28361,-35.4167 0.28537,-76.5447 19.70738,-123.3861 h 70.26175 c 0,2.2849 4.56979,8.5692 13.70957,18.8515 3.42738,31.9891 13.13844,55.4096 29.13305,70.2616 31.98917,116.5321 49.1254,195.933 51.41036,238.2044 -3.42738,39.9865 -36.55888,73.6898 -99.3948,101.1088 -31.98924,6.8549 -55.12488,10.2817 -69.40576,10.2817 -14.2809,0 -21.42132,12.5684 -21.42132,37.7028 h 107.96452 c 27.41936,-14.8522 66.54831,-16.2799 117.38825,-4.2839 50.84,11.996 63.12168,-13.4256 36.84481,-76.2616 -5.71231,-23.9917 -6.28186,-50.2677 -1.71197,-78.8294 3.4274,-116.5321 -2.85677,-188.7945 -18.85139,-216.7851 -15.99462,-27.9904 -25.13421,-60.8372 -27.41912,-98.5388 l 13.70956,1.7159 c -3.42747,-33.1317 -6.85626,-145.0943 -10.28365,-335.88722 0,-45.69881 -7.42523,-81.68765 -22.2773,-107.96452 10.28219,-27.41929 7.99637,-50.83973 -6.85577,-70.26174 -2.28491,-73.11824 15.99619,-164.51598 54.84022,-274.1932 151.94872,12.56715 254.46832,-13.34712 304.73712,-15.63209 28.5619,-18.27953 25.3712,-191.07432 -18.0427,-371.58481 4.4813,-7.84234 11.29,-22.08486 20.1659,-42.01222 34.6543,15.19219 54.6707,14.73573 60.0411,-1.37548 5.7124,-19.422022 -6.2826,-33.702858 -35.9869,-42.842625 -17.4841,-4.371007 -29.1538,-6.626188 -35.1407,-6.816408 -3.7933,-4.379638 -8.1225,-8.776683 -13.3652,-13.203841 -20.8707,-17.624127 -37.141,-22.218719 -48.9743,-14.236928 C 1059.5255,7.6724622 972.7657,-0.22694049 866.8961,0.00496053 Z M 741.73904,27.156464 c 135.49062,2.100133 253.52965,10.777859 354.11676,26.03577 -9.9407,16.087859 -16.8778,35.979935 -20.8094,59.675066 C 992.81663,107.81641 881.71469,79.246597 741.73904,27.156464 Z M 77.397938,463.39037 C 91.107582,598.20197 96.248902,716.44698 92.821441,818.127 75.684403,810.12965 55.119325,805.55993 31.12743,804.41744 26.55755,722.1595 41.981309,608.48423 77.397938,463.39037 Z M 647.81271,273.6216 c 2.71336,-0.14281 5.35567,0.0722 7.92623,0.64346 10.28226,2.28492 20.56476,6.28325 30.84701,11.99562 h 18.85139 v 6.85379 h -18.85139 c -12.56723,-6.85485 -23.13448,-11.13794 -31.703,-12.85159 -8.56851,-1.71374 -19.13779,1.99789 -31.70496,11.13766 l -1.71393,-6.8538 c 9.42537,-6.85483 18.20853,-10.49674 26.34865,-10.92514 z m 150.16368,7.49725 c 41.129,38.84404 61.694,91.96909 61.694,159.37489 -13.7097,1.14248 -29.70492,2.5702 -47.98444,4.28387 -18.27952,1.71374 -27.41912,22.56349 -27.41912,62.54999 V 639.28337 H 734.5704 v -97.68088 c 0,-58.26603 -8.57004,-109.67666 -25.70715,-154.23305 36.55912,-7.99727 49.69902,-31.98918 39.4167,-71.97569 19.42202,-2.28497 35.98672,-13.71046 49.69644,-34.2749 z m -152.78674,5.99782 c 2.03503,0 4.12328,0.28671 6.26543,0.85795 8.56851,2.28491 16.85192,6.28326 24.84919,11.99562 l 30.84701,1.71394 v 13.70957 l -30.84701,-5.14183 c -18.27952,6.85479 -31.13272,9.42542 -38.55875,7.71176 -7.42611,-1.71373 -13.42356,-2.56993 -17.99344,-2.56993 v -5.14183 l 8.56774,-15.4235 c 5.14109,-5.14114 10.76472,-7.71176 16.86983,-7.71175 z m 7.12141,5.9978 c 4.56988,5.71237 5.14134,11.42509 1.71394,17.13745 l 17.13745,-6.85379 z m -13.70956,1.71395 -11.99562,13.70956 11.99562,3.42788 c -3.4274,-5.7123 -3.4274,-11.42508 0,-17.13744 z m 25.70518,116.53226 c 22.84941,20.5645 26.563,37.41598 11.13964,50.55437 -15.42332,13.13847 -23.13526,39.70099 -23.13526,79.68744 v 97.68088 h -22.2773 V 531.32082 c 9.13984,-60.55101 20.56327,-100.53813 34.27292,-119.96014 z m 29.13306,97.68086 c 12.56723,0 18.85139,10.85403 18.85139,32.56095 v 119.96014 h 92.54101 V 514.18337 c 14.85213,11.42474 33.70279,17.13745 56.55219,17.13745 -36.55904,119.95947 -51.98286,214.78409 -46.27051,284.47487 l -149.0932,77.11751 c 12.56716,-125.6719 12.56716,-202.78879 0,-231.35057 h 8.56971 V 541.60249 c 0,-21.70692 6.28226,-32.56095 18.84941,-32.56095 z M 821.96959,831.2192 c 11.42474,10.28224 11.99612,26.27745 1.71394,47.98444 l -152.52108,59.98007 c 14.85212,-14.85212 14.85212,-26.27762 0,-34.27489 z m 5.13985,66.83583 c 12.56723,18.27953 18.85139,49.69659 18.85139,94.25299 V 1280.2108 H 815.11382 C 719.14619,1176.2459 671.16245,1068.2834 671.16245,956.32116 Z M 654.7216,913.15581 c 6.53352,-0.64264 10.0146,2.89277 10.44304,10.6044 0.57124,10.28225 -5.42621,17.70741 -17.99343,22.2773 V 915.1905 c 2.85618,-1.14247 5.37255,-1.82047 7.55039,-2.03469 z m -2.41054,58.58885 c 0,102.82254 42.27307,205.64364 126.8159,308.46614 H 595.75888 Z m -58.26612,320.46184 h 253.62983 l 3.42789,8.5696 H 592.331 Z" />
</svg>
