<?xml version="1.0" encoding="UTF-8" standalone="no"?>
<!-- Created with Inkscape (http://www.inkscape.org/) -->

<svg
   width="1054.3761"
   height="1795.4629"
   viewBox="0 0 1054.3761 1795.4629"
   version="1.1"
   id="svg10448"
   xmlns="http://www.w3.org/2000/svg"
   xmlns:svg="http://www.w3.org/2000/svg">
  <defs
     id="defs10445" />
  <path
     id="path140"
     style="fill:#000000;stroke:none;stroke-width:103.071"
     d="m 452.07138,0 c -3.29725,0 -6.44391,2.39733 -9.44141,7.19336 -4.79604,52.756377 -10.79227,91.125336 -17.98633,115.10547 -7.19409,23.98015 -14.38803,41.96504 -21.58203,53.95508 -10.79105,2.39805 -18.58484,4.79734 -23.38086,7.19531 -4.79603,2.39805 -10.7903,4.19553 -17.98437,5.39453 -7.19401,1.19898 -16.1874,6.59544 -26.97852,16.1875 l -125.89453,26.97852 v 10.79101 c 1.19898,16.78606 8.39293,28.77467 21.58203,35.96875 22.78114,7.19407 70.14152,21.58392 142.08203,43.16602 -8.87291,17.3309 -16.73516,25.06209 -23.78125,64.83593 l -7.49414,-0.88476 c -34.6381,6.1854 -77.6306,29.07184 -81.3418,68.6582 -4.94829,69.27609 -9.89752,143.5011 -14.8457,222.67383 -14.84496,40.82335 -32.47313,87.2147 -52.88477,139.17187 -20.41173,51.95695 -42.36861,82.26426 -65.87304,90.92383 -7.46065,13.7063 -23.20267,28.6564 -25.62305,44.66602 -1.898095,17.12545 2.58891,31.89278 2.97656,44.21094 0.38752,12.31819 7.12995,20.32219 20.22852,24.00979 5.95393,1.6763 10.94197,-4.6306 14.96484,-18.92 25.4918,0.7509 56.90787,-15.99351 56.16797,-42.01948 -0.39533,-5.41326 2.29398,-28.52331 -1.79297,-31.34961 40.25568,-53.40139 74.42712,-110.85956 101.9375,-172.75781 18.93616,-45.61893 31.43539,-95.47195 37.79493,-154.86524 7.12356,-0.0478 15.86102,0.41602 21.58203,0.41602 15.58708,19.18411 17.38464,102.51625 5.39453,249.99414 -1.19893,32.37328 -9.59256,88.72695 -25.17969,169.06058 l -55.75391,267.9784 h 16.1875 c -13.18909,25.1792 -18.58547,45.8622 -16.1875,62.0488 2.39798,16.1866 -1.49793,53.9557 -11.68945,113.3067 -10.19158,59.3508 -25.48018,118.4027 -45.86328,177.1542 -10.79105,23.9799 -21.58194,41.6643 -32.37305,53.0547 -10.79105,11.3907 -31.17326,22.1816 -61.14844,32.3731 -29.975205,10.1916 -58.752877,16.4866 -86.330067,18.8847 -27.57718,2.398 -41.3652403,16.7861 -41.3652403,43.1641 -2.3979798,4.7962 17.3863003,7.1953 59.3515603,7.1953 25.17914,0 48.859387,-4.4961 71.041017,-13.4883 22.18167,-8.9926 48.56008,-7.795 79.13477,3.5957 30.57468,11.3904 57.25211,7.4948 80.0332,-11.6894 -5.99496,-47.9604 -1.79825,-89.9261 12.58984,-125.8965 59.95031,-116.3037 86.6297,-193.0397 80.03516,-230.209 -6.59449,-37.1691 0.29853,-80.3349 20.68164,-129.4941 h 73.74023 c 0,2.3981 4.79656,8.9922 14.38868,19.7832 3.59697,33.5723 13.78808,58.153 30.57421,73.7402 33.5722,122.2987 51.55711,205.6291 53.95508,249.9922 -3.59697,41.9656 -38.36906,85.0756 -104.31445,113.8516 -33.57221,7.194 -57.85222,10.791 -72.83984,10.791 -14.98761,0 -22.48047,13.1883 -22.48047,39.5664 h 113.30664 c 28.77618,-15.5868 69.84142,-17.0837 123.19726,-4.4941 53.35585,12.5895 66.24515,-14.0898 38.66797,-80.0352 -5.99502,-25.1791 -6.59483,-60.4937 -1.79883,-90.4688 3.59706,-122.2987 -2.99715,-198.1379 -19.7832,-227.5136 -16.78622,-29.3757 -26.37749,-63.8467 -28.77539,-103.4141 l 14.38867,1.7988 c -3.59711,-34.7713 -7.19592,-152.2755 -10.79297,-352.50963 0,-47.96027 -7.79181,-85.72947 -23.3789,-113.30664 10.79112,-28.77616 8.39184,-53.35712 -7.19531,-73.74023 -2.39799,-76.73652 16.78652,-172.65703 57.55273,-287.76172 159.46787,13.18903 265.58164,18.58548 318.33789,16.1875 29.97507,-19.18418 49.48999,-194.04821 58.54689,-299.28711 4.7961,-8.39306 11.9899,-23.38079 21.582,-44.96289 2.9679,-6.67789 3.9707,-13.41997 3.4375,-20.21289 13.0722,-2.40338 20.9981,-3.50586 20.9981,-3.50586 L 1042.6983,76.6875 c 0,0 -11.0583,1.688789 -26.7734,4.380859 -3.5505,-3.870933 -7.4369,-7.754063 -12.0625,-11.660156 -26.97743,-22.781151 -46.76198,-25.178481 -59.35157,-7.193359 -8.15455,11.649453 -12.12934,23.577983 -12.73828,35.730468 -64.78097,14.948838 -140.45478,37.450358 -175.79102,66.722658 -41.12816,34.07034 -72.27666,74.14716 -87.75781,126.54492 6.04023,1.52725 13.61548,1.31187 18.31641,-4.35547 65.43344,-78.88513 172.72784,-124.13747 254.60156,-148.7168 5.56288,12.81248 12.84832,25.855 22.2539,39.17969 -36.53486,96.28728 -57.49472,162.24461 -76.5332,218.35352 -124.69647,-7.19407 -195.13754,-14.38794 -211.32422,-21.58203 -16.1866,-7.19401 -32.07503,-9.5914 -47.66211,-7.19336 2.39799,-81.53255 -29.97473,-149.87688 -97.11914,-205.03125 0,-28.77616 -3.29803,-57.85282 -9.89258,-87.228518 C 514.2698,45.26304 509.17421,22.7805 505.57723,7.19336 c -7.19407,-7.19401 -13.78819,-5.9944 -19.7832,3.59766 2.39798,14.38808 2.09908,37.169526 -0.89844,68.343746 -2.99751,31.174144 -5.69569,49.159044 -8.09375,53.955074 1.19906,-26.37812 -6.1e-4,-51.257985 -3.59765,-74.638668 C 469.60716,35.070557 466.01022,17.98447 462.41317,7.19336 458.81617,2.39733 455.36863,0 452.07138,0 Z m -78.91016,193.56641 c 2.84763,-0.14987 5.62061,0.0743 8.31836,0.67382 10.79105,2.39799 21.58201,6.59476 32.37305,12.58985 h 19.78515 v 7.19336 h -19.78515 c -13.18902,-7.19408 -24.2789,-11.68977 -33.27149,-13.48828 -8.99253,-1.79852 -20.08434,2.09739 -33.27344,11.68945 l -1.79882,-7.19336 c 9.89182,-7.19405 19.10941,-11.01523 27.65234,-11.46484 z m 157.5957,7.86718 c 43.16427,40.76628 64.7461,96.52028 64.7461,167.26172 -14.38808,1.199 -31.17337,2.69953 -50.35743,4.49805 -19.18418,1.7985 -28.77734,23.67926 -28.77734,65.64453 V 577.32422 H 464.212 V 474.80859 c 0,-61.14938 -8.99339,-115.10588 -26.97851,-161.86718 38.36822,-8.39308 52.15823,-33.57185 41.36718,-75.53711 20.38311,-2.39798 37.76816,-14.38855 52.15625,-35.97071 z m -160.34961,6.29493 c 2.13575,0 4.32803,0.30088 6.57618,0.90039 8.99252,2.39798 17.68503,6.59474 26.07812,12.58984 l 32.37305,1.79687 v 14.38868 l -32.37305,-5.39453 c -19.18411,7.19406 -32.67326,9.89031 -40.4668,8.09179 -7.79353,-1.79853 -14.08672,-2.69726 -18.88281,-2.69726 v -5.39453 l 8.99219,-16.1875 c 5.39556,-5.39556 11.2959,-8.09376 17.70312,-8.09375 z m 7.47657,6.29492 c 4.79603,5.99502 5.39383,11.99131 1.79687,17.98633 l 17.98633,-7.19532 z m -14.38868,1.79883 -12.58984,14.38867 12.58984,3.5957 c -3.59697,-5.9951 -3.59697,-11.98935 0,-17.98437 z m 26.97657,122.29882 c 23.98015,21.58216 27.878,39.26801 11.6914,53.05664 -16.18661,13.78856 -24.27929,41.6656 -24.27929,83.63086 V 577.32422 H 354.50302 V 464.01758 c 9.59206,-63.54742 21.58067,-105.51331 35.96875,-125.89649 z m 30.57617,102.51563 c 13.18903,0 19.7832,11.39072 19.7832,34.17187 v 125.89649 h 97.11914 V 446.0332 c 15.58707,11.99011 35.37136,17.98438 59.35156,17.98438 -38.36828,125.8958 -54.55555,225.41526 -48.56054,298.55469 l -156.47071,80.93164 c 13.1891,-131.8909 13.1891,-212.82367 0,-242.79883 h 8.99219 V 474.80859 c 0,-22.78115 6.59608,-34.17187 19.78516,-34.17187 z m 134.88867,338.12109 c 11.99002,10.79105 12.58988,27.57816 1.79883,50.35938 l -160.06836,62.94726 c 15.58715,-15.58708 15.58715,-27.57771 0,-35.9707 z m 5.39453,70.14258 c 13.18908,19.1841 19.78516,52.15666 19.78516,98.91797 v 302.15034 h -32.375 C 448.0247,1140.8589 397.66708,1027.5516 397.66708,910.04883 Z M 380.41122,864.75 c 6.8568,-0.67445 10.51129,3.03367 10.96094,11.12695 0.59946,10.79105 -5.69575,18.58476 -18.88477,23.38086 v -32.37304 c 2.9975,-1.19901 5.63822,-1.90996 7.92383,-2.13477 z m -2.52734,61.48633 c 0,107.91067 44.36326,215.82157 133.08984,323.73237 H 318.53231 Z m -61.15039,336.32217 h 266.17968 l 3.59766,8.9922 H 314.93466 Z" />
</svg>
