<?xml version="1.0" encoding="UTF-8" standalone="no"?>
<!-- Created with Inkscape (http://www.inkscape.org/) -->

<svg
   width="1798.4375"
   height="1800.3652"
   viewBox="0 0 1798.4375 1800.3652"
   version="1.1"
   id="svg10448"
   xmlns="http://www.w3.org/2000/svg"
   xmlns:svg="http://www.w3.org/2000/svg">
  <defs
     id="defs10445" />
  <path
     id="path6238"
     style="fill:#000000;stroke:none;stroke-width:92.8384"
     d="M 357.8125,0 C 165.10536,0 68.75,65.091933 68.75,195.27344 H 1.5625 L 68.75,247.79492 v 25.58789 H 1.5625 L 68.75,331.29102 v 25.58789 H 1.5625 L 68.75,412.09375 v 26.93359 H 0 l 68.75,52.52344 v 24.24024 l -67.1875,1.3457 67.1875,52.52344 v 25.58593 H 3.125 l 51.888672,51.11133 c 0.647395,19.07125 3.01404,32.55606 7.511719,39.11914 H 1.5625 L 68.75,739.3457 v 25.58789 H 1.5625 L 68.75,822.8418 v 25.58593 H 1.5625 l 67.1875,55.2168 v 25.58789 H 0 l 68.75,53.86719 v 24.24219 H 1.5625 L 68.75,1061.209 v 25.5879 H 3.125 l 65.625,64.6426 v 202.1152 l -66.4375,-0.1094 c -0.3787981,16.3658 -0.2558594,446.9199 -0.2558594,446.9199 L 70.800781,1800 c 0,0 0.04399,-371.2066 7.310547,-363.7305 131.875992,135.6782 327.907272,205.3765 558.212892,233.3243 l -18.59375,95.5722 24.84961,4.5625 c 0,0 162.98149,30.6922 259.82812,28.3301 93.03288,-2.2692 235.8164,-19.2559 235.8164,-19.2559 l 25.6719,-3.0312 -15.7559,-103.543 c 233.9682,-24.9779 436.2111,-90.3753 570.9336,-223.2012 12.3142,-12.1403 13.7129,348.7598 13.7129,348.7598 l 63.7695,0.3184 -2.0117,-441.6934 -63.2949,-0.1055 v -204.8671 l 65.625,-64.6426 h -65.625 v -25.5879 l 65.625,-53.8672 h -65.625 v -24.24219 l 67.1875,-53.86719 H 1731.25 v -25.58789 l 67.1875,-55.2168 H 1731.25 V 822.8418 l 67.1875,-57.90821 H 1731.25 V 739.3457 l 65.625,-53.86914 h -65.625 v -25.58789 l 65.625,-64.64258 h -65.625 v -25.58593 l 65.625,-52.52344 -65.625,-1.3457 v -24.24024 l 67.1875,-52.52344 H 1731.25 v -26.93359 l 67.1875,-55.21484 H 1731.25 v -25.58789 l 67.1875,-57.90821 H 1731.25 v -25.58789 l 65.625,-52.52148 H 1731.25 C 1731.25,65.091933 1637.4989,0 1450,0 v 32.320312 c 148.9577,0 223.4375,54.766812 223.4375,164.298828 v 409.40039 h -3.125 c -28.1249,9.87582 -51.0417,25.58748 -68.75,47.13477 -53.1244,16.16044 -99.2189,24.24218 -138.2813,24.24218 -39.0621,0 -84.6358,3.14311 -136.7187,9.42774 -72.9161,-39.50334 -140.6254,-88.43381 -203.125,-146.79102 -17.7082,-26.03627 -66.6672,-39.50645 -146.875,-40.40429 v -21.54493 l 53.125,-30.9746 c 37.5,-61.05064 46.0934,-113.79893 25.7813,-158.24024 -20.3125,-44.44121 -48.1771,-70.92793 -83.5938,-79.45703 -16.751,-4.03409 -34.50979,-6.7647 -53.125,-8.38867 V 68.681641 c 0,-17.956074 4.68755,-26.933594 14.0625,-26.933594 9.37495,0 14.0625,8.97752 14.0625,26.933594 h 32.8125 C 979.6875,22.893665 961.45811,0 925,0 887.5003,0 868.75,22.893665 868.75,68.681641 v 37.708979 h -26.5625 c -10.41665,0 -15.625,6.28425 -15.625,18.85352 0,12.56924 5.20845,18.85547 15.625,18.85547 H 868.75 v 55.55664 c -5.21135,0.11349 -10.28964,0.0565 -15.625,0.33008 -43.74969,2.24455 -75.5209,25.81298 -95.3125,70.70312 -7.29155,26.93414 -20.05214,51.62326 -38.28125,74.06836 -18.229,22.44511 -13.281,33.66797 14.84375,33.66797 -6.24995,8.08022 -5.72905,13.01888 1.5625,14.81445 -7.29155,3.59123 -8.0729,6.9592 -2.34375,10.10157 5.72906,3.14225 8.07295,10.54729 7.03125,22.21875 5.20836,8.97805 4.68746,19.52809 -1.5625,31.64843 -6.24995,12.12033 -14.06255,19.30427 -23.4375,21.54883 -9.37495,2.24447 -15.1041,7.18121 -17.1875,14.8125 -2.08329,7.63135 2.08345,12.34501 12.5,14.14063 10.41665,1.79561 24.4793,-6.28614 42.1875,-24.24219 17.70821,-17.95604 26.5625,-30.97251 26.5625,-39.05273 H 812.5 c 12.49995,9.87583 19.2709,28.72864 20.3125,56.56054 -91.66614,0 -147.3959,14.81389 -167.1875,44.44141 C 595.83375,586.71693 521.3537,634.30175 442.1875,688.16992 375.52125,682.78312 322.3956,678.06939 282.8125,674.0293 243.2294,669.98918 209.37486,662.1324 181.25,650.46094 166.63636,632.67916 148.2702,619.10271 126.5625,609.26953 V 196.61914 c 0,-109.532016 77.08426,-164.298827 231.25,-164.298828 z m 519.48242,223.30078 c 23.73039,-0.84171 48.48653,2.60991 74.26758,10.35352 34.37485,10.3247 59.6354,31.19996 75.7813,62.62304 16.1454,31.42311 13.2812,67.33519 -8.5938,107.73633 -21.8748,40.40117 -42.7084,54.31729 -62.5,41.74805 -19.7916,-12.56927 -29.6875,-28.28091 -29.6875,-47.13477 19.7916,-26.03627 32.03146,-46.01184 36.71875,-59.92773 4.6877,-13.91601 4.42701,-26.48647 -0.78125,-37.70899 -5.20825,-11.22256 -15.10425,-17.73175 -29.6875,-19.52734 -14.58324,-1.79562 -29.16675,2.24526 -43.75,12.12109 -23.95819,-11.67142 -53.64599,-21.54867 -89.0625,-29.6289 5.20826,-20.64947 23.1773,-33.44298 53.90625,-38.38086 7.68226,-1.23449 15.47861,-1.99288 23.38867,-2.27344 z M 776.5625,284.15625 c 36.45811,5.38679 73.9586,16.15987 112.5,32.32031 -11.45824,50.27698 -25.78144,81.02743 -42.96875,92.25 -17.1874,11.22253 -39.32309,17.28382 -66.40625,18.18164 -18.7499,0.8978 -26.82294,-2.24338 -24.21875,-9.42578 2.6041,-7.18241 1.30201,-13.01884 -3.90625,-17.50781 32.29155,0.89782 41.66665,-2.91803 28.125,-11.44727 -13.54154,-8.5291 -22.91674,-10.54956 -28.125,-6.06054 3.125,-12.56924 -4.68759,-18.85547 -23.4375,-18.85547 20.8332,-30.52532 36.97926,-57.00999 48.4375,-79.45508 z m 19.92188,12.625 c -8.07289,0.1122 -17.31773,1.29065 -27.73438,3.53516 v 12.12109 c 20.8332,-5.38679 38.02096,-5.83473 51.5625,-1.3457 13.54165,4.48899 31.25011,7.62993 53.125,9.42578 l -6.25,-5.38672 c -21.87489,-6.2846 -38.54175,-11.44819 -50,-15.48828 -5.72905,-2.0202 -12.63027,-2.97354 -20.70312,-2.86133 z m 121.53906,8.92773 c 1.96534,-0.24194 3.80272,-0.21634 5.51172,0.0781 2.27856,0.3928 4.32945,1.2627 6.15234,2.60937 7.29166,5.38685 9.11455,13.24364 5.46875,23.56836 -3.64579,10.32477 -19.01059,30.30023 -46.09375,59.92774 8.33326,42.19676 27.60435,67.78564 57.8125,76.76367 l -1.5625,30.97266 c 0,10.77364 -14.06264,16.16211 -42.1875,16.16211 -26.04145,0 -39.0625,-5.38847 -39.0625,-16.16211 0,-31.42312 -9.8959,-55.66241 -29.6875,-72.72071 32.29155,-19.75169 53.12505,-57.01331 62.5,-111.77929 8.20308,-5.55518 15.25243,-8.69409 21.14844,-9.41993 z m -122.71094,9.41993 c -12.49994,0 -21.35424,4.04282 -26.5625,12.12304 l -12.5,6.73243 v 6.73437 h 12.5 c 16.66661,9.87583 42.18776,8.52823 76.5625,-4.04102 H 875 v -9.42578 h -31.25 c -19.7915,-8.08022 -35.93755,-12.12304 -48.4375,-12.12304 z m -6.25,8.08203 c -4.16659,5.38678 -3.64575,10.77336 1.5625,16.16015 -7.29155,-1.79556 -13.0208,-3.14125 -17.1875,-4.03906 1.0417,-4.48898 6.25005,-8.52992 15.625,-12.12109 z m 20.3125,0 25,8.08008 c -9.37495,3.59119 -18.22924,5.83655 -26.5625,6.73437 6.24996,-4.489 6.77076,-9.42767 1.5625,-14.81445 z M 825,521.17773 c 24.9999,15.26267 50.52105,22.89258 76.5625,22.89258 24.9999,0 50.00011,-7.62991 75,-22.89258 l 81.25,12.11915 c -13.5416,31.42307 -45.0522,52.52323 -94.53125,63.29687 -49.47885,10.77391 -91.14605,10.54875 -125,-0.67383 -33.85394,-11.22252 -66.4064,-32.09578 -97.65625,-62.62109 z m -82.8125,64.64258 c 46.87476,22.44511 83.0731,35.91141 108.59375,40.40039 25.52066,4.48903 50.78136,5.16381 75.78125,2.02149 24.9999,-3.14229 65.6254,-15.03999 121.875,-35.68946 -9.3749,24.24072 -19.0104,60.37773 -28.9063,108.41016 -8.7114,42.28506 -16.7121,100.32494 -24.21284,169.39844 -2.73117,29.25832 5.42524,134.58777 7.33004,170.58787 l -117.02145,26.0059 C 883.84689,1045.7409 834.26879,918.73875 830.625,906.82617 812.875,844.91163 797.55459,793.34001 785.9375,757.52539 772.39596,715.77752 757.81241,658.5424 742.1875,585.82031 Z m -57.80078,40.25391 c 11.18975,-1.19239 20.04043,7.61047 26.55078,26.4082 10.41665,30.07646 22.39596,65.54051 35.9375,106.39063 11.02085,33.24573 26.84095,84.72796 45.45117,146.81445 4.59986,14.66078 29.46932,102.2587 38.04102,133.3125 L 617.77734,880.36914 c -32.07266,-29.03867 -60.24445,-43.55664 -84.51562,-43.55664 -68.04573,0.86683 -98.16868,29.03875 -90.36719,84.51562 l 36.40625,259.39848 c -51.57615,12.5689 -75.41437,51.3591 -71.51367,116.3711 -23.40418,4.7676 -44.85775,11.486 -64.36133,20.1543 -19.07018,8.2348 -38.35775,11.4855 -57.86133,9.7519 -18.90209,-1.2602 -32.25751,7.7514 -40.16797,26.8457 L 126.5625,1353.6523 V 685.47656 L 150,678.74414 c 72.91625,56.56158 171.87571,83.04626 296.875,79.45508 120.8326,-58.35724 192.44796,-98.08519 214.84375,-119.1836 8.39836,-7.91187 15.95422,-12.22596 22.66797,-12.9414 z m 401.16018,10.24805 c 6.25,0 14.4533,3.81594 24.6093,11.44726 20.3125,15.26267 84.6362,55.66536 192.9688,121.20508 103.1244,-1.79566 213.0215,-30.97746 329.6875,-87.53906 l 40.625,12.9707 v 661.80465 l -395.8184,-0.6543 c -21.2357,-41.5653 -51.5638,-58.0217 -90.9863,-49.3574 -39.0071,8.6683 -65.4453,-8.4514 -79.3144,-51.3594 -13.4358,-42.4745 -36.1892,-51.5758 -68.2618,-27.3046 31.2057,-60.2444 32.0717,-123.5239 2.5996,-189.836 -3.0773,-26.5131 -12.4253,-139.63845 -8.4648,-167.33787 9.6102,-66.75584 17.5276,-118.3311 23.0586,-148.52344 6.25,-34.11654 11.7191,-58.80569 16.4062,-74.06836 2.3438,-7.63132 6.6406,-11.44726 12.8907,-11.44726 z M 528.71094,914.17578 h 52.66015 l 239.24414,165.78122 -267.19921,80.6153 c 6.06779,-123.5227 -2.16771,-205.65569 -24.70508,-246.39652 z M 1008.5,1070.2051 c 18.2034,69.7796 7.3681,130.4571 -32.50586,182.0332 -60.2444,35.9733 -133.27603,41.6089 -219.0918,16.9043 -85.81579,-25.1378 -167.29779,-20.1534 -244.44531,14.9531 7.80139,-27.3051 71.51466,-71.9478 191.13672,-133.9258 z m 636.0059,342.4961 c -158.0554,166.6989 -448.7041,205.4775 -746.07426,210.0781 -295.2348,-4.5978 -571.17798,-41.9001 -730.26758,-208.5938 z M 686.22656,1674.916 c 68.79487,6.4612 140.18487,9.6922 213.77344,9.8613 67.78238,-0.1562 134.032,-2.7278 198.2617,-7.9628 l 8.4004,55.1894 c -45.022,4.8746 -140.12963,14.4765 -205.47265,16.0703 -64.94862,1.5841 -176.20282,-15.3338 -224.66211,-23.3105 z" />
</svg>
