<?xml version="1.0" encoding="UTF-8" standalone="no"?>
<svg
   width="1220.3607"
   height="1800.2773"
   version="1.1"
   id="svg1"
   xml:space="preserve"
   xmlns="http://www.w3.org/2000/svg"
   xmlns:svg="http://www.w3.org/2000/svg"><defs
     id="defs1" /><path
     id="path1"
     style="display:inline;fill:#000000;stroke:none;stroke-width:96.826"
     d="m 968.8487,0 c -42.77061,1.0965968 -77.31867,15.901732 -103.63976,44.415885 -26.31995,28.514244 -39.48055,60.320595 -39.48055,95.414885 0,30.70757 7.12783,54.83488 21.38504,72.38204 -4.38677,17.54718 -10.69308,25.49879 -18.9184,23.85372 -8.22532,-1.64509 -12.88641,-6.85328 -13.98308,-15.62683 -1.09677,-8.77356 -1.09677,-24.12968 0,-46.06368 3.29011,-32.90098 -6.57893,-53.73784 -29.60991,-62.5114 -17.5464,-3.29021 -30.15981,-2.19409 -37.83679,3.28954 -7.6769,4.38673 -10.42022,9.87151 -8.2269,16.45176 4.38689,5.48345 10.96774,7.67578 19.7413,6.57907 -3.29021,17.54717 -1.096,36.74081 6.5811,57.57809 7.67689,18.64395 15.90094,37.28833 24.6746,55.93231 14.2571,23.0306 32.35434,29.61162 54.28854,19.7413 -12.06388,5.48359 -23.58015,27.41854 -34.54725,65.80294 1.09667,7.67687 -7.95094,25.22333 -27.14327,52.64077 -19.19274,27.4175 -21.1122,43.5951 -5.75821,48.53032 15.35285,4.93508 22.48183,23.85429 21.38505,56.7552 l -25.86053,65.47823 c -6.54482,16.57176 32.34739,28.97683 40.58583,14.75959 l 37.91746,-65.43388 c 25.22318,-3.29008 37.8368,14.25834 37.8368,52.64278 2.01227,5.57685 5.18804,10.66374 8.61413,15.17707 l -24.21609,15.90907 c -23.70927,-10.77696 -44.72503,-10.77696 -63.04587,0 -62.50656,34.48644 -180.98214,110.54141 -234.86716,149.3385 L 395.28437,607.24635 c -5.38855,-31.2533 -16.70506,-64.12537 -33.94824,-98.61165 l -40.41438,-33.94825 c -8.62156,-5.38856 -13.47007,-2.96324 -14.54781,7.27492 -1.07775,10.2381 2.15533,18.05162 9.69921,23.44025 l -124.47621,14.54983 c -1.07773,-33.40876 3.77279,-67.35837 14.54982,-101.84473 -9.69929,-3.23308 -19.39803,-4.58068 -29.09763,-4.04183 -9.69959,0.53882 -19.40029,2.9641 -29.09965,7.2749 7.54404,33.40869 11.31476,65.74082 11.31476,96.9941 C 95.679877,474.14832 49.875912,466.60454 21.855729,495.70241 c -28.0201713,29.09788 -29.0978683,57.92718 -3.233069,86.48613 25.864801,28.55901 71.668846,18.05219 137.4085,-31.52193 2.15533,33.4087 -3.23292,65.74084 -16.16536,96.99413 19.39859,7.5438 39.87635,7.00393 61.43035,-1.61755 C 190.51912,618.02298 186.74624,584.6131 189.9794,545.81601 l 82.44631,6.46612 c -8.62157,10.77704 -5.92837,22.09369 8.08166,33.94824 15.08785,9.69931 46.34224,30.17708 93.76104,61.43037 43.10798,56.04026 99.15094,118.0094 168.12366,185.90453 75.439,-30.17555 158.42573,-68.43386 248.95242,-114.775 31.25322,22.63167 54.42612,95.37954 69.51403,218.23726 -30.17562,28.02026 -81.90786,49.03558 -155.19139,63.04587 -25.86466,-16.16562 -56.58134,-31.25497 -92.14551,-45.26499 l -46.88053,-25.86456 c -9.69928,-3.23314 -14.00986,0.53971 -12.93227,11.31675 1.07774,10.77703 3.77286,17.24302 8.08369,19.39841 -18.32086,-3.23313 -50.65313,11.85388 -96.99411,45.26299 -1.07775,-33.40911 4.84843,-65.74082 17.78087,-96.99411 -19.39874,-7.54403 -39.87433,-7.00402 -61.42833,1.61754 10.77703,28.02034 14.00995,60.89066 9.69922,98.60957 l -126.09377,-9.69912 1.61755,50.11362 124.47622,-12.9324 c 0,33.4091 -5.9282,67.3578 -17.7829,101.8448 20.47626,5.3886 40.41421,4.3095 59.8128,-3.233 -7.54396,-33.4092 -10.77689,-65.7406 -9.69921,-96.9943 62.50657,45.264 106.15536,53.8851 130.94234,25.8647 h 37.18131 l 85.67737,-16.1654 c 64.66191,-12.9327 114.77862,-27.4817 150.34279,-43.6475 l 1.61553,40.4143 c -74.36127,12.9326 -138.48573,24.2489 -192.37068,33.9483 -53.88501,9.6995 -97.53567,22.0933 -130.94437,37.1814 h 1.61754 c -51.72955,17.2435 -79.48105,50.1125 -83.25306,98.6096 -3.77186,48.4956 -11.04776,109.1205 -21.82473,181.8648 -10.77703,72.7441 -28.01985,144.6836 -51.72912,215.813 -10.77703,30.1744 -22.36344,51.7308 -34.75701,64.6632 -12.39336,12.9326 -35.02658,25.5944 -67.89649,37.9882 -32.86966,12.3941 -64.66215,20.4773 -95.37656,24.249 -30.71441,3.772 -46.07377,21.824 -46.07377,54.1554 -2.15547,5.3887 19.93997,8.0837 66.28096,8.0837 28.02028,0 54.15432,-5.658 78.40245,-16.9741 24.24833,-11.3159 53.07945,-9.9683 86.48815,4.0418 33.40868,14.0104 63.04556,9.16 88.91042,-14.5497 -7.54388,-57.1175 -2.69336,-108.3115 14.54982,-153.574 73.28353,-140.1015 104.2681,-233.0559 92.95227,-278.8587 -11.31575,-45.8015 -9.43048,-78.9455 5.65737,-99.4204 v 554.4845 h 551.25152 v -792.1203 c 0,-8.62171 4.3106,-12.93219 12.9322,-12.93219 8.6203,0 12.9343,4.31048 12.9343,12.93219 v 134.1755 h 33.9483 V 990.37421 c 0,-22.63196 -15.0904,-33.94826 -45.265,-33.94826 -32.3313,0 -48.4981,11.3163 -48.4981,33.94826 v 30.71509 h -30.7131 c 4.3109,-28.02051 11.3161,-67.09027 21.0139,-117.20326 11.0016,-56.84091 43.6531,-103.31972 44.2363,-120.83372 h 48.4074 V 434.29828 c 0,-77.91381 -95.3194,-162.80587 -138.072,-174.35583 24.1276,-10.96698 32.3833,-18.11698 42.2538,-34.56743 14.2572,27.41743 59.2225,64.15754 134.8954,110.21884 4.3868,-8.77355 -1.0958,-24.12766 -16.4497,-46.06167 -19.7407,-15.35374 -39.483,-32.35315 -59.2239,-50.99698 -17.5473,-15.35385 -29.0617,-35.64362 -34.5453,-60.86763 4.387,-13.1604 5.4831,-25.77308 3.2897,-37.83681 0,-39.4811 -14.2568,-72.383693 -42.7702,-98.704427 C 1040.6843,14.805508 1007.2333,1.0965968 968.8487,0 Z m 0,41.126343 c 24.12765,0 46.8838,9.596813 68.2696,28.789048 21.3849,19.192285 32.0786,42.497959 32.0786,69.915379 0,24.12742 -9.0486,46.60943 -27.1433,67.44672 -18.0957,20.83718 -43.04718,31.25772 -74.85068,31.25772 -28.51453,0 -52.09418,-10.69295 -70.73828,-32.07859 -18.644,-21.38563 -27.96615,-43.59513 -27.96615,-66.62585 0,-25.224 9.32215,-47.980706 27.96615,-68.269599 18.6441,-20.288936 42.77399,-30.434828 72.38406,-30.434828 z M 943.63761,273.15709 c 11.18806,0.11298 22.66647,0.54719 28.97258,1.84949 157.64011,32.5567 169.93941,152.91855 171.84281,191.37029 2.7415,55.38326 2.4673,149.42768 -0.823,282.12819 h -24.6766 L 1115.664,608.6743 c -6.0263,-65.7256 -32.696,-72.26712 -64.957,-71.31064 -30.1659,0.89437 -64.98134,44.66663 -70.46491,128.01574 l -37.71378,-0.7728 c 0,-115.1534 9.59461,-182.60163 28.78703,-202.34215 19.19243,-19.74058 32.62976,-40.3049 40.30546,-61.69053 7.6772,-21.38558 4.1121,-38.65944 -10.6935,-51.81989 -14.80546,-13.1604 -32.62611,-15.35464 -53.46365,-6.58109 -24.12651,-17.54713 -54.83705,-29.06178 -92.12534,-34.54525 9.87042,-23.03067 30.22947,-34.49476 61.07334,-34.39194 5.14087,0.0172 16.0379,-0.19165 27.22596,-0.0787 z m -106.39482,62.43677 c 41.67508,3.29012 77.31933,17.5481 106.9293,42.77211 16.45065,-16.45046 29.33768,-18.37027 38.65969,-5.75821 9.3221,12.61206 1.91768,31.25665 -22.20997,55.93232 -24.12651,24.67576 -38.93223,66.07691 -44.41588,124.20191 -4.38637,-21.93398 -9.04755,-39.20786 -13.98309,-51.81987 -4.93521,-12.61211 -20.28889,-18.09487 -46.06165,-16.44973 -25.77266,1.64489 -39.20679,-15.62891 -40.30346,-51.81988 l -24.67661,-13.16019 c 8.77367,-17.54717 17.54671,-31.25607 26.32038,-41.12635 8.77366,-9.87031 15.3545,-24.12828 19.74129,-42.77211 z m 17.87567,20.13256 c -9.65628,0.62956 -16.1628,5.98251 -19.52145,16.05845 4.38677,21.93379 28.51553,23.57916 72.38405,4.93533 -20.2892,-13.16028 -36.46654,-20.15119 -48.53033,-20.97361 -1.50797,-0.10285 -2.95281,-0.11011 -4.33227,-0.0202 z M 65.819832,508.29384 c 17.302112,0.63149 41.446588,9.36639 72.430448,26.20541 -51.729602,29.09781 -84.331623,36.91157 -97.802886,23.44026 -13.471197,-13.47124 -12.933393,-27.48101 1.615526,-42.02991 5.45585,-5.45591 13.375643,-7.99467 23.756912,-7.61576 z m 848.740308,90.59049 v 96.97998 h 70.77459 v 16.45781 25.86657 c -11.85455,37.71949 -23.71109,77.59543 -35.56578,119.6256 l -61.43035,50.1136 c -4.31087,-25.86488 -8.88949,-54.96395 -13.73904,-87.29491 -4.84975,-32.33102 -18.40285,-60.10467 -28.29086,-82.44429 -35.50689,-75.80917 17.32443,-103.53692 68.25144,-139.30436 z m 165.67126,147.00484 -0.078,38.98038 h 17.2525 c -10.7771,43.10798 -21.0041,44.11653 -36.0921,99.61807 -15.088,55.50157 -25.3265,110.7359 -30.7152,165.69938 l -129.32478,-8.0838 -3.23308,-53.34652 c 43.10798,-20.47677 86.21683,-50.1133 129.32486,-88.91046 l 25.8641,-72.7471 z M 558.35572,988.05076 c 2.55958,-0.33686 3.16637,0.43742 1.81924,2.32345 -5.38847,7.54397 -5.92642,14.00979 -1.61553,19.39829 4.31083,5.3887 5.11843,10.7768 2.42431,16.1655 -2.69429,5.3886 -0.26898,12.3941 7.27491,21.0159 7.5438,8.6216 -21.01756,6e-4 -85.67938,-25.8646 42.83843,-21.0153 68.09787,-32.02821 75.77645,-33.03854 z m 514.27398,66.98484 h 24.2469 v 421.9267 H 914.20518 v 284.5162 H 613.52162 v -504.371 c -3.23315,-10.7771 0.53979,-16.1653 11.31676,-16.1653 h 339.48038 c 67.89534,0 104.00024,-50.6547 108.31094,-151.9584 z m -172.97435,25.8666 130.94235,8.0816 c 6.4664,77.5941 -27.4834,117.4722 -101.84472,119.6277 H 644.2368 c -20.47625,-21.5543 -36.10356,-45.8043 -46.88053,-72.7472 108.84762,-20.4765 209.61697,-38.7965 302.29908,-54.9621 z m 50.1136,430.0083 h 147.10765 v 250.568 H 949.76895 Z" /></svg>
