<?xml version="1.0" encoding="UTF-8" standalone="no"?>
<svg
   width="18"
   height="18"
   version="1.1"
   id="svg192"
   sodipodi:docname="US9C11EVARA.svg"
   inkscape:version="1.2.1 (9c6d41e410, 2022-07-14)"
   xmlns:inkscape="http://www.inkscape.org/namespaces/inkscape"
   xmlns:sodipodi="http://sodipodi.sourceforge.net/DTD/sodipodi-0.dtd"
   xmlns="http://www.w3.org/2000/svg"
   xmlns:svg="http://www.w3.org/2000/svg">
  <defs
     id="defs196" />
  <sodipodi:namedview
     id="namedview194"
     pagecolor="#ffffff"
     bordercolor="#000000"
     borderopacity="0.25"
     inkscape:showpageshadow="2"
     inkscape:pageopacity="0.0"
     inkscape:pagecheckerboard="0"
     inkscape:deskcolor="#d1d1d1"
     showgrid="false"
     inkscape:zoom="35.240656"
     inkscape:cx="14.642179"
     inkscape:cy="10.527613"
     inkscape:window-width="1920"
     inkscape:window-height="1137"
     inkscape:window-x="-8"
     inkscape:window-y="-8"
     inkscape:window-maximized="1"
     inkscape:current-layer="svg192" />
  <path
     id="path190"
     style="fill:#000000;stroke:none;stroke-width:1.05254"
     d="m 15.009442,0.09088012 c -0.04905,-6.7286e-4 -0.09769,0.0020548 -0.146394,0.0074124 -1.363744,0.15001196 -2.658257,0.61260046 -3.858119,1.84196468 l 0.01297,0.027797 c -0.1669,0.085885 0.09565,0.5029528 0.205693,0.4113845 1.007342,-0.8075983 2.241084,-1.71110523 3.402259,-1.74931051 0.170792,-0.002462 0.345347,0.00857 0.518863,0.0296493 1.388131,0.16859834 1.849716,0.71145591 1.849716,2.83579731 v 0.5763089 c -0.262747,0.2350309 -0.439862,0.4967688 -0.522568,0.789413 l -0.01668,-0.014825 C 16.095477,5.4309462 15.736369,5.8825912 15.376691,6.2029286 15.017015,6.5232655 14.817113,6.8848649 14.266356,7.3457009 13.378405,7.1321427 12.438781,6.9525726 11.449669,6.8064537 V 4.4808343 c 0,-1.1239906 -0.316777,-1.7508632 -0.863536,-2.0365384 C 10.297121,2.2932909 9.9350769,2.2709372 9.6632964,2.1922766 9.140472,2.1501569 8.8232787,2.2502889 8.5588592,2.3794379 8.2257156,2.5226085 7.9598026,2.8467647 7.7583272,3.3504535 7.6684079,3.7213708 7.5123813,4.0641974 7.2932033,4.3789146 7.0740249,4.6936323 7.1339018,4.8441603 7.4710993,4.8329201 c -0.078679,0.1123992 -0.073242,0.1795061 0.016678,0.201986 -0.07868,0.056201 -0.084118,0.106993 -0.016678,0.1519529 0.067439,0.044959 0.089193,0.151984 0.06671,0.3205834 0.078679,0.1123991 0.078679,0.2539053 0,0.4225029 C 7.4591321,6.0985442 7.3611891,6.2001313 7.24317,6.233851 7.1251516,6.2675704 7.0543978,6.3364704 7.0319186,6.4432493 7.0094379,6.5500288 7.0602319,6.6189892 7.1838714,6.6470885 7.3075095,6.6751882 7.4762044,6.5627254 7.6897631,6.3098273 7.9033212,6.0569298 8.0157839,5.8737127 8.0270242,5.7613148 H 8.4161717 C 8.5622912,5.8849532 8.6402729,6.1425066 8.6515132,6.5359036 7.9883583,6.5246634 7.3988547,6.6371265 6.8818189,6.8731647 5.8589875,6.9968042 4.9628673,7.1491853 4.1985544,7.3290231 3.7152384,6.7782674 3.2817598,6.3574578 2.8939838,6.0652204 2.5062065,5.7729833 2.1035032,5.3521735 1.6876267,4.8014177 h 0.01853 C 1.548799,4.3855419 1.3565,4.0807789 1.1317017,3.8897007 L 0.75923196,3.6988331 0.77961581,3.381956 C 0.90290684,1.3963171 1.5051881,0.85592859 2.9551356,0.7098099 3.1363792,0.6915454 3.3204122,0.68556219 3.5092074,0.68942599 c 1.3215667,0.0270456 2.829918,0.59719731 4.521523,1.70854271 0,0 0.3567695,-0.3826975 0.289081,-0.4984793 C 6.1900803,0.51245277 4.3016565,-0.07221543 2.653083,0.14647261 1.0008168,0.36565049 0.22924454,1.0842547 0.17365762,3.3652782 l -0.020384,0.8079442 c -0.144133,0.4994266 -0.17113707,0.7952312 -0.06671093,0.8616837 0.02421242,0.013836 0.04299743,0.023743 0.066711,0.037062 L 0.09941051,17.743977 0.72019343,17.72174 0.75923196,5.3777265 C 1.0530149,5.5080926 1.2948601,5.5859876 1.4689628,5.5926842 2.0084781,6.5817963 2.6487763,7.4470206 3.39061,8.1888537 4.3347617,8.2787721 5.1600686,8.2588135 5.8681823,8.129555 6.5762961,8.0002928 7.0008126,8.0220481 7.1356913,8.1962661 7.2705704,8.370484 7.364867,8.599059 7.4210661,8.8800538 c 0.3596766,0.9553918 0.6102596,1.8853402 0.8462983,3.2116492 0.00297,0.422799 0.210177,1.227029 0.2477524,1.521905 L 8.0696452,13.625799 5.1547453,11.45028 c -0.4398097,-0.398206 -0.8253486,-0.596693 -1.158177,-0.596693 -0.9331114,0.01189 -1.346693,0.397426 -1.2397127,1.158177 l 0.4984794,3.55792 C 2.5480735,15.742041 2.221562,16.273681 2.275054,17.165188 1.9541119,17.230566 1.6604383,17.322432 1.3929864,17.441297 1.1314786,17.554227 0.86731862,17.598496 0.59986676,17.57472 0.33241488,17.55689 0.14536292,17.688235 0.03838255,17.967573 H 14.203351 c -0.291226,-0.570565 -0.706277,-0.797096 -1.247125,-0.678228 -0.534905,0.118866 -0.897572,-0.115776 -1.08776,-0.704171 -0.184245,-0.582451 -0.495997,-0.707152 -0.935807,-0.374324 0.427928,-0.826129 0.439357,-1.692394 0.03521,-2.601728 0.01782,-0.986603 -0.01163,-1.328758 0.05374,-2.101397 l -0.0019,0.0019 c 0.09962,-1.036986 0.21465,-1.9208718 0.346527,-2.6462014 h 0.08338 V 8.1202897 c 0.07868,-0.1348787 0.477735,-0.1312187 1.197091,0.00927 0.719353,0.1404986 1.27296,0.1942699 2.172152,0.1043533 0.831756,-0.7081141 1.501095,-1.5842139 2.00689,-2.6295251 0.05181,-0.011697 0.111863,-0.032872 0.168629,-0.050033 V 17.982 l 0.592987,0.0056 c 0,0 -0.0545,-8.2960379 -0.02224,-12.6574346 0.04018,-0.057188 0.01253,-0.058168 0.247796,-0.1919478 0.134879,-0.078679 0.390324,-0.5449463 -0.02543,-1.118182 0.101158,-0.1461183 0.08843,-0.2930619 -0.03521,-0.4391807 -0.06026,0.028696 -0.114292,0.058951 -0.170483,0.088948 0.0094,-0.6101064 -0.05815,-0.7022033 -0.04261,-1.1507646 C 17.475221,1.0148465 17.050247,0.33952566 15.454182,0.13720719 15.304519,0.11812194 15.156585,0.09289872 15.009442,0.09088012 Z M 9.3371538,2.6092202 c 0.3350887,-0.021075 0.6799672,0.041999 1.0340212,0.1853083 0.472078,0.1910789 0.707878,0.7860217 0.707878,1.7863723 V 8.4927594 H 9.7318609 V 5.1386788 C 10.001614,4.7677618 10.163017,4.4866041 10.219222,4.2955259 10.275428,4.1044477 10.271774,3.9284621 10.209924,3.7711033 10.148124,3.6137445 10.030236,3.5212398 9.8560171,3.493141 9.6817977,3.4650419 9.5058742,3.5194809 9.326036,3.6543592 9.0450361,3.4970004 8.6913351,3.3609332 8.2642189,3.248534 8.3204189,2.9562969 8.5670982,2.7604127 9.0054522,2.6592534 9.1150427,2.6339637 9.2254569,2.6162453 9.3371538,2.6092202 Z M 7.976991,3.517231 C 8.4153475,3.5959103 8.8651978,3.7555822 9.326036,3.9916202 9.1911566,4.6772544 9.0224621,5.0998561 8.8201438,5.2628354 8.6178257,5.4258135 8.3475441,5.5074424 8.0103466,5.5074424 7.7967882,5.518682 7.7042847,5.4788245 7.732384,5.3832858 7.7604844,5.2877463 7.7459625,5.2061182 7.6897631,5.1386788 8.071919,5.1611588 8.1825902,5.1103648 8.019612,4.9867259 7.8566337,4.8630868 7.7405258,4.828607 7.6730853,4.8848065 7.7180456,4.7162079 7.6291868,4.6327871 7.4043883,4.6327871 7.6516666,4.2169106 7.8421127,3.8431884 7.976991,3.517231 Z m 0.2316354,0.1816021 c -0.09835,0.00281 -0.2099159,0.021874 -0.3335549,0.055592 v 0.1686306 c 0.2472782,-0.078679 0.4558908,-0.084117 0.624489,-0.016678 0.1685987,0.067439 0.3826512,0.110942 0.6411666,0.1334219 L 9.0554855,3.9564118 C 8.8082115,3.8664924 8.6104713,3.7939473 8.4643519,3.7377479 8.3912928,3.709648 8.3069755,3.696023 8.2086264,3.6988331 Z m 1.4657888,0.1297158 c 0.023264,-0.0033 0.044317,-0.00395 0.064859,0 0.027401,0.00527 0.053492,0.016943 0.075978,0.035208 0.089915,0.073059 0.1116683,0.1818769 0.066708,0.3279957 -0.044962,0.146119 -0.2245284,0.4218395 -0.5392469,0.8264752 v 1.7381919 c -0.2023204,0 -0.303906,-0.079835 -0.303906,-0.2371946 C 9.027553,6.0808709 8.9096671,5.7434803 8.6848688,5.5074424 9.0670266,5.237684 9.3137018,4.7207247 9.4261017,3.9564118 9.5209389,3.8805424 9.6046117,3.8384637 9.6744152,3.8285489 Z M 8.1956549,3.9619709 C 8.0495363,3.9591625 7.9498017,4.0144953 7.8936022,4.1268954 L 7.7416495,4.2269619 v 0.085242 l 0.133422,0.016677 c 0.2023183,0.1236392 0.5052277,0.094596 0.9098637,-0.085242 H 9.1740824 V 4.1435732 H 8.7682575 C 8.5322196,4.0255541 8.3417738,3.964781 8.1956549,3.9619709 Z M 8.1270904,4.0750091 C 8.0821316,4.1536885 8.089422,4.2280867 8.145621,4.2955259 8.0669427,4.2730465 7.9998342,4.2494419 7.9436349,4.2269615 7.9548732,4.1707624 8.0146909,4.1199687 8.1270904,4.0750091 Z m 0.2371947,0 0.3039055,0.1167442 c -0.1011594,0.044959 -0.202746,0.074002 -0.3039055,0.085242 0.078679,-0.056199 0.078679,-0.1233066 0,-0.2019862 z M 8.5681246,6.8231314 C 8.8716028,7.0254489 9.1291543,7.125184 9.3427136,7.125184 V 7.9868677 C 9.1516343,7.975628 8.8995204,7.912105 8.5848023,7.7997063 8.270085,7.6873071 7.9272583,7.4188782 7.5563411,6.991762 Z M 7.6897631,7.7163176 c 0.5732344,0.3259572 0.9668563,0.5109643 1.180414,0.5559249 0.2135592,0.044959 0.3713768,0.074002 0.4725365,0.085242 v 0.5058919 h 1.6010634 c -0.09953,0.4670641 -0.485359,3.3151766 -0.477363,4.5936796 L 8.9733036,13.837878 C 8.7047361,12.495504 8.2239386,9.6873843 7.976991,8.8800538 7.8308722,8.599059 7.7347226,8.2108734 7.6897631,7.7163176 Z M 3.9335635,11.913551 h 0.7227024 l 3.2799573,2.273733 -3.6635455,1.106291 C 4.3558845,13.59971 4.2426192,12.472228 3.9335635,11.913551 Z m 6.5802995,2.140311 c 0.24962,0.956884 0.100197,1.788841 -0.446594,2.496103 C 9.2411393,17.043264 8.2402099,17.120373 7.063421,16.7816 5.8866321,16.436883 4.7691147,16.50588 3.7111935,16.987292 3.8181739,16.61286 4.6910811,16.00079 6.3314531,15.150887 Z"
     sodipodi:nodetypes="sscccccscccsccsscccsccscssssscccccscccccscccsccccccccccscccccccccccccccccccccccccccccccccccsscscccscsccssccscscscccsccsccssccccccccccsccccccccscccccccccccscccscccccccccccccccccc" />
</svg>
