<?xml version="1.0" encoding="UTF-8" standalone="no"?>
<svg
   width="1108.0625"
   height="1799.9878"
   version="1.1"
   id="svg1"
   xmlns="http://www.w3.org/2000/svg"
   xmlns:svg="http://www.w3.org/2000/svg">
  <defs
     id="defs1" />
  <path
     id="path1"
     style="fill:#000000;stroke:none;stroke-width:98.6608"
     d="M 2.9448255,0 C -10.140056,146.19779 20.382374,304.97303 94.47594,476.15448 l 69.56362,-24.47255 c -1.71846,58.00874 42.39338,71.87602 42.39338,71.87602 0,0 2.31774,8.03268 0,34.87818 -2.51853,39.12724 6.56865,57.70719 27.55568,55.88214 22.59308,-2.81038 32.24432,-25.90837 28.90455,-69.17824 -0.4745,-15.18369 -1.97854,-25.68131 -4.62472,-31.79502 22.16447,0.27314 48.36697,41.23718 48.36697,41.23718 90.964,166.15185 102.33258,189.64908 214.66454,222.75782 29.31166,-62.62041 126.34888,-186.23945 137.00762,-224.87751 10.65873,38.63806 23.10009,89.42524 17.92084,151.84532 -4.15702,50.10012 -10.07207,100.98154 -16.95733,152.23071 -24.10451,8.4242 -44.53648,16.65558 -57.80913,24.47252 -36.46642,-3.68191 -79.73875,-4.71257 -112.34239,2.89047 -68.6755,-61.92396 -192.22552,-151.92269 -370.55651,-269.96863 50.4447,137.84173 145.61724,268.44785 285.57707,391.75321 l 52.60631,-51.64285 c 23.15801,53.21345 68.98557,46.82545 68.98557,46.82545 0,0 5.49806,6.3282 14.83765,31.6023 14.39033,36.4718 30.54261,49.5169 48.75238,38.9248 19.24324,-12.1671 18.17937,-37.2351 -3.27583,-74.95915 -6.89788,-13.53479 -12.72959,-22.38111 -17.72814,-26.78496 20.17019,-9.19251 21.18623,-14.36787 43.16414,-32.75848 5.27372,-8.38189 27.06796,-8.38147 37.96131,-11.75451 -15.40134,101.7661 -34.21938,204.3075 -53.18438,304.8466 h 12.13991 c -10.65872,22.6501 -15.39912,40.6318 -14.0669,53.9553 1.33243,13.3228 -0.94123,24.2908 -6.93705,32.9512 -5.9956,8.6605 -12.71264,41.5632 -20.04047,98.8536 -7.32807,57.2907 -18.88988,112.6179 -34.87818,165.9123 -15.98827,53.2935 -30.80418,87.2808 -44.12762,101.9367 -13.32356,14.6559 -46.82048,27.897 -100.78062,39.8883 -53.96006,11.9912 -91.60293,18.1135 -112.92048,18.1135 v 23.8945 c 0,18.6531 23.31694,29.323 69.94905,31.9878 27.97944,2.6648 55.24928,-1.2887 81.89628,-11.9473 26.64677,-10.6589 62.90789,-8.0873 108.87382,7.9008 45.96603,15.9883 66.71178,2.7476 62.04849,-39.8884 -4.66325,-42.6344 1.56365,-83.9342 18.88428,-123.9042 61.28803,-107.9202 91.02466,-183.7999 89.02606,-227.7679 -1.99858,-43.9678 15.68597,-101.2707 52.9917,-171.886 h 41.81528 c 0,2.6649 6.12231,9.1895 18.11351,19.848 0,26.6471 7.90608,49.3691 23.89445,68.0221 39.97049,183.864 57.06042,291.4571 51.06473,322.7677 -5.99564,31.3104 -31.77894,56.3059 -77.07883,74.9591 -45.29973,18.6521 -87.78758,29.323 -127.75819,31.9877 v 31.9876 c 3.99708,6.6617 12.49788,11.2095 25.82143,13.8743 13.32351,2.6648 44.7393,1.4759 94.03616,-3.8538 33.30869,-17.3211 62.25786,-20.679 86.90639,-10.0203 24.64844,10.6593 50.23946,14.9095 76.88606,12.9107 26.64732,-1.9988 40.0811,-13.5603 40.0811,-34.8781 1.332,-14.656 -2.6205,-39.0572 -11.9472,-73.0322 -9.32638,-33.9743 -11.49591,-64.3058 -6.16625,-90.9531 10.65795,-135.8988 5.32372,-222.4504 -15.99401,-259.7555 -21.31775,-37.3062 -31.98776,-71.8872 -31.98776,-103.864 h 8.09317 c 51.96115,126.5736 92.66545,288.4085 121.97735,485.5969 l 31.9877,-2.1192 c -30.6438,-201.1875 -75.3016,-370.3329 -133.92457,-507.5642 l -12.13991,-33.9145 -1.92684,-119.8577 c -1.02313,-63.61115 0.62154,-123.33228 -3.85372,-183.25499 15.79779,-5.27028 30.47142,-11.11198 42.97157,-17.92083 9.32637,-46.63217 74.21647,-299.25393 60.89227,-376.53007 h 5.9739 C 1060.7255,273.2352 1029.31,147.95777 972.0184,98.66091 914.72766,49.364031 858.21097,25.452522 802.25232,26.784895 c -43.96743,0 -70.04827,9.288231 -78.04234,27.941077 -21.31765,2.664743 -57.28116,22.028434 -107.91036,58.001828 -41.30282,21.31759 -61.85576,38.70467 -61.85576,52.02819 0,13.32346 2.86849,20.33777 8.8641,21.00398 5.99562,0.66596 17.75036,17.5634 35.07087,50.87204 0,27.97928 9.88293,43.98458 29.86805,47.98157 6.66175,0 18.71382,-5.33498 36.03433,-15.99386 1.33242,13.32336 9.4312,26.56478 24.08715,39.88829 -74.6117,2.66463 -116.69748,59.96862 -126.02393,171.88581 -11.99121,49.29697 -54.20316,103.63325 -74.18837,178.24479 -46.44984,-29.00269 -43.7871,-70.09809 -144.90819,-166.87568 0,0 -100.72392,-95.93675 -120.05029,-89.60413 C 187.44653,316.87832 113.99394,182.77001 2.9448255,0 Z M 797.24219,53.762488 c 8.66033,0 19.03307,1.084618 31.02423,3.08315 -18.65286,2.664694 -30.70488,7.212437 -36.03435,13.874191 -9.32651,-2.664764 -14.66144,-7.212508 -15.99387,-13.874191 5.32945,-1.998532 12.34375,-3.08315 21.00399,-3.08315 z M 854.08782,66.67319 C 968.66997,90.655502 1029.3325,194.59311 1035.994,378.45707 1014.6762,331.8249 960.1363,308.50804 872.20134,308.50804 V 450.52578 H 830.19336 V 326.62157 c 0,-39.97044 -4.74032,-66.05118 -14.06688,-78.04234 15.98823,-17.32051 30.80411,-37.27888 44.12766,-59.92879 13.32345,-22.64997 19.84779,-49.32532 19.84779,-79.96929 0,-18.652903 -8.69339,-32.681513 -26.01411,-42.00796 z m -109.83733,2.11967 c 6.6619,0 17.92655,5.33503 33.91469,15.993858 -23.9823,26.646912 -35.84166,51.345792 -35.84166,73.995662 1.33232,21.31754 7.26195,31.79504 17.92083,31.79503 10.65876,0 19.35232,-6.52425 26.01411,-19.8478 18.6529,-50.62928 31.29952,-74.733374 37.9613,-72.0687 6.66169,2.66473 1.92133,11.3583 -14.06688,26.01411 l 10.02027,11.94722 c 14.65579,-11.99109 21.96744,-23.25594 21.96744,-33.91468 0,-11.991144 -6.71693,-17.920846 -20.04048,-17.920846 -15.98813,0 -28.93231,14.920562 -38.9248,44.898436 -9.99262,29.97771 -17.30428,42.62442 -21.96749,37.96131 -4.6632,-4.66331 -4.6632,-14.54609 0,-29.86805 4.66324,-15.32194 15.33337,-30.73258 31.9877,-46.0546 16.65442,-15.322011 29.8957,-20.657114 39.88832,-15.993858 9.99262,4.663194 15.03039,15.630666 15.03039,32.951198 0,22.64991 -8.99094,49.32523 -26.97761,79.96929 -17.98667,30.64399 -39.32708,51.38974 -63.97544,62.04845 -24.6485,10.65878 -41.54559,23.90018 -50.87202,39.88831 -7.99406,-6.66169 -13.92379,-16.24731 -17.92084,-28.90456 -3.99696,-12.6573 -10.71396,-19.07702 -20.04047,-19.07702 -7.9942,0 -15.60303,3.06115 -22.93096,9.05677 -7.32806,5.99563 -13.74766,8.26987 -19.07701,6.93705 -5.32948,-1.33232 -7.90056,-6.6673 -7.90056,-15.99384 0,-2.66474 15.81243,-6.61788 47.78887,-11.94723 l -3.85401,-10.02019 -52.02822,4.04666 c 0,-9.32651 -5.33486,-20.78386 -15.99384,-34.10739 0,-2.66473 5.92961,-8.59437 17.92083,-17.92084 l -15.99381,-11.94725 c -5.32932,-5.32947 17.39288,-22.71662 68.02204,-52.02821 l 1.92698,15.99387 c -22.64999,18.65281 -33.12734,32.08685 -31.79507,40.08097 2.66476,10.65878 6.61779,18.8624 11.94724,24.85794 5.32948,5.99561 15.21219,11.62797 29.86805,16.95733 -27.97901,-34.64104 -19.88033,-60.5291 24.08719,-77.84961 15.98819,-1.33232 23.89441,-8.04935 23.89441,-20.04049 0,-13.323498 -9.28803,-21.229762 -27.94105,-23.894446 C 720.2511,79.457319 736.2564,74.122246 744.25049,68.79286 Z M 25.683082,85.557504 C 87.62244,204.5086 138.83969,314.19956 179.26265,414.29872 l -61.85577,17.92083 C 76.472929,345.69809 45.86725,230.13114 25.683082,85.557504 Z m 656.518928,11.176433 28.1338,10.020253 -28.1338,13.8742 c -5.32934,-7.9941 -5.32934,-15.90037 0,-23.894453 z M 794.15904,260.52647 c 13.32344,6.66178 18.06394,26.81283 14.06688,60.12148 h -33.91469 c -63.9527,0 -57.42833,-20.15106 19.84781,-60.12148 z m -91.91651,78.0423 h 42.00796 v 111.95701 h -42.00796 z m 69.94905,1.92696 h 36.03434 v 123.90421 c -3.99704,2.66472 -10.71408,4.04668 -20.04049,4.04668 -9.32651,0 -18.61466,-1.38196 -27.94108,-4.04668 V 348.58902 Z m -85.9429,2.11966 v 61.85579 c -7.99401,-19.98519 -12.5418,-39.34903 -13.8742,-58.00186 z m 218.32576,0.96393 c 15.98818,0 30.55895,3.06116 43.54956,9.05678 -9.32676,34.63739 -29.28475,61.91062 -59.92878,81.89579 v -89.9895 c 5.66253,-0.66598 11.04988,-0.96393 16.37922,-0.96393 z m -248.19381,5.01009 c 5.32937,35.97295 15.21219,63.83801 29.86805,83.82324 v 42.00754 L 640.38676,352.63564 Z m 295.78997,42.00757 -20.04045,83.82321 h -11.94722 l 1.92697,-35.84164 z m -42.00792,51.83551 -4.04664,31.9877 h -23.89445 z m -207.92015,18.11352 h 42.00796 v 5.97362 h -42.00796 z m 127.95083,0 h 42.00798 v 5.97362 h -42.00798 z m 133.92447,13.87418 h 1.92685 c 0.93955,41.31507 -24.33492,131.84354 -33.52915,202.91002 -1.00416,-11.22132 -2.96864,-22.21502 -6.35899,-32.95117 -1.33239,-67.94979 11.3145,-124.65905 37.96129,-169.95885 z m -285.76972,24.08715 h 239.71513 l -5.97359,17.92083 H 684.3217 Z m 7.90057,37.96131 h 219.86736 c -7.99406,33.30874 -10.56531,66.50835 -7.90059,99.81709 L 704.36218,740.34217 c 3.99707,-73.27917 -2.1253,-141.25311 -18.1135,-203.87352 z m 209.84711,125.83122 c 11.99112,13.3235 13.9676,32.68714 5.97363,58.00181 l -175.73975,65.90238 c 6.66176,-15.98813 7.25642,-28.04016 1.92697,-36.03432 z M 175.6014,681.76225 c 106.71269,81.22964 199.81015,158.47428 279.02537,231.81459 l -48.36698,42.58607 C 332.36662,895.32425 255.45319,803.96138 175.6014,681.76225 Z m 722.61405,64.55354 c 5.94917,3.96605 10.75274,11.57118 14.64498,22.54554 -41.25801,24.06797 -136.5635,50.01835 -214.08648,74.57382 -0.77499,-5.11766 -1.77467,-10.02787 -2.50502,-15.22309 107.92014,-38.63812 175.29971,-65.90813 201.94652,-81.89627 z m -196.93642,13.68149 c 6.12052,-0.62454 9.52059,3.80298 10.02026,13.2961 0.66594,12.65737 -6.34804,21.6482 -21.004,26.97761 l 4.0467,-37.96137 c 2.66472,-1.33231 4.89691,-2.10414 6.93704,-2.31234 z m 223.52862,118.12333 c 0.83171,27.0652 1.34889,56.83055 1.34889,91.91646 l 1.92696,40.08103 2.11961,49.9085 c 0,0 1.69805,49.4571 3.85398,129.8779 H 846.18724 C 770.76092,1100.6321 733.6311,1013.84 711.68468,914.34767 781.01847,903.94229 860.08848,894.82445 924.80765,878.12061 Z M 684.3217,918.58697 C 695.26,1022.3373 747.10415,1112.9355 812.27254,1187.9775 H 632.29349 c 15.7008,-89.2351 29.43401,-178.7368 44.32033,-268.04165 2.56931,-0.44298 5.09357,-0.91458 7.70788,-1.34888 z m -58.00182,283.26473 h 319.6844 l 2.12022,10.0203 H 624.3929 Z" />
</svg>
