<?xml version="1.0" encoding="UTF-8" standalone="no"?>
<svg
   width="2056.0664"
   height="1797.3979"
   version="1.1"
   id="svg528"
   xmlns="http://www.w3.org/2000/svg"
   xmlns:svg="http://www.w3.org/2000/svg">
  <defs
     id="defs532" />
  <path
     id="path526"
     style="fill:#000000;stroke:none;stroke-width:100"
     d="M 358.74023,0 C 171.9338,0 78.53125,86.26475 78.53125,258.79297 H 1.7851562 L 78.53125,330.18359 V 364.0957 H 1.7851562 L 78.53125,440.83984 v 33.91211 H 1.7851562 L 78.53125,547.92773 v 33.91016 H 0 l 78.53125,71.39258 v 32.125 L 1.7851562,687.14062 78.53125,756.74609 V 790.6582 H 3.5703125 l 59.2695315,67.73438 c 0.739484,25.27406 3.440979,43.14738 8.578125,51.8457 H 1.7851562 L 78.53125,981.62891 v 33.91019 H 1.7851562 l 76.7460938,76.7461 v 33.9101 H 1.7851562 L 78.53125,1199.373 v 33.9102 H 0 l 78.53125,71.3906 v 32.127 H 1.7851562 l 76.7460938,71.3906 v 33.9102 H 3.5703125 l 74.9609375,85.6699 v 267.7168 h 66.03516 V 910.36523 c 18.10865,-6.48229 29.40812,-10.83593 26.77343,-10.83593 83.28949,76.15037 196.32545,111.8453 339.10743,107.0859 139.21238,-77.34007 221.31198,-129.99158 246.29882,-157.95309 24.98687,-27.96151 43.72727,-22.30805 56.22071,16.95703 12.49341,39.26501 26.17761,86.26306 41.05078,140.99606 11.23407,41.3417 33.30048,139.9687 42.62401,181.2132 9.32648,41.2575 24.10144,138.5487 36.60841,190.9509 L 659.05859,1169.0391 c -41.36615,-38.3948 -77.70189,-57.5918 -109.00586,-57.5918 -87.76321,1.1461 -126.61287,38.3949 -116.55078,111.7461 l 46.95508,342.9746 c -66.52113,16.6187 -97.26537,67.9086 -92.23437,153.8672 -30.18607,6.3035 -57.8587,15.1854 -83.01368,26.6464 -24.59607,10.8882 -49.47197,15.187 -74.62695,12.8946 -25.15507,-1.7192 -42.76223,10.8887 -52.82422,37.8222 H 1510.1406 c -27.3911,-55.0134 -66.5216,-76.7911 -117.3906,-65.33 -50.3102,11.4611 -84.4089,-11.1735 -102.2969,-67.9063 -17.3291,-56.1594 -46.677,-68.1946 -88.0429,-36.1035 40.2479,-79.6549 20.8793,-157.0578 3.3535,-251 -12.3551,-66.2261 -30.459,-150.6753 -26.1953,-216.9434 5.9737,-92.8439 20.8477,-162.61856 27.8359,-203.47262 7.7337,-45.21428 14.2781,-77.63895 19.6328,-97.27149 5.3543,-19.63274 19.6319,-19.33482 42.834,0.89258 23.2021,20.22754 96.0801,73.77198 218.6348,160.63083 117.7949,-2.3796 243.9199,-41.05116 378.373,-116.01169 l 44.6211,15.44727 v 875.15822 h 66.0371 v -267.7168 l 74.959,-85.6699 h -74.959 v -33.9102 l 76.7441,-71.3906 h -76.7441 v -32.127 l 78.5293,-71.3906 h -78.5293 v -33.9102 l 76.7441,-73.1777 h -76.7441 v -33.9101 l 76.7441,-76.7461 h -76.7441 v -33.91019 l 76.7441,-71.39063 h -76.7441 v -33.91211 l 74.959,-85.66797 h -74.959 v -33.91211 l 76.7441,-69.60547 -76.7441,-1.78515 v -32.125 l 78.5293,-71.39258 h -78.5293 v -33.91016 l 76.7441,-73.17578 h -76.7441 v -33.91211 l 76.7441,-76.74414 h -76.7441 v -33.91211 l 76.7441,-71.39062 h -76.7441 C 1977.5371,86.26475 1884.1326,0 1697.3262,0 v 44.619141 c 142.7819,0 214.1738,72.582519 214.1738,217.744139 v 542.57227 h -3.5703 c -32.126,13.08841 -57.7084,33.91048 -76.7461,62.46679 -61.8721,21.41734 -114.8193,32.12696 -158.8438,32.12696 -44.0242,0 -96.3799,4.16517 -157.0625,12.49414 -83.2894,-53.54325 -160.6305,-118.39064 -232.0214,-194.54102 -20.2275,-35.69555 -75.5558,-53.54492 -165.9844,-53.54492 v -28.55664 l 58.8984,-41.04883 c 42.8347,-82.09962 52.6514,-152.59854 29.4492,-211.49609 -23.2019,-58.89756 -55.0313,-93.70152 -95.4863,-104.41016 -19.1339,-5.06486 -39.4184,-8.54658 -60.6816,-10.68359 V 92.808594 c 0,-23.796995 5.3538,-35.695313 16.0625,-35.695313 10.7086,0 16.0625,11.898318 16.0625,35.695313 h 37.4804 C 1119.0566,30.93638 1098.2347,0 1056.5898,0 1014.9451,0 994.12305,30.93638 994.12305,92.808594 V 142.7832 h -32.12696 c -11.89848,0 -17.84765,8.32845 -17.84765,24.98633 0,16.65788 5.94917,24.98633 17.84765,24.98633 h 32.12696 v 72.87695 c -6.5326,0.0837 -12.92892,-0.0204 -19.63282,0.29883 -49.97371,2.37973 -86.26395,33.9114 -108.87109,94.59375 -8.32897,35.69542 -22.90618,68.41587 -43.72852,98.16211 -20.82238,29.74631 -15.17087,44.62109 16.95508,44.62109 -7.1391,10.70864 -6.54381,16.65786 1.78516,17.84766 -7.13911,5.94931 -7.7344,11.00548 -1.78516,15.16992 5.94926,4.16446 8.33049,13.98114 7.14063,29.44922 7.1391,10.70864 6.84146,24.39291 -0.89258,41.05078 -7.73397,16.6579 -16.95543,26.4726 -27.66406,29.44727 -10.70871,2.97457 -17.2531,9.51911 -19.63281,19.63281 -2.37967,10.11377 2.37884,16.36052 14.27734,18.74023 11.8985,2.37967 27.96205,-8.32799 48.18945,-32.125 20.22754,-23.79698 30.93718,-41.05113 32.12695,-51.75976 h 35.69532 c 14.27814,11.8985 22.0113,36.2905 23.20117,73.17578 -104.70676,0 -167.76821,20.22865 -189.18555,60.68359 C 681.1918,779.35413 595.52039,842.41559 505.0918,913.80664 428.94141,905.47767 368.2592,898.9332 323.04492,894.17383 277.8306,889.41443 239.16104,878.70677 207.03516,862.04883 190.34253,838.48287 169.36219,820.91686 144.56641,808.69531 V 262.36328 c 0,-145.16162 71.39187,-217.744139 214.17382,-217.744139 z m 643.35747,295.99414 c 27.1061,-1.00391 55.3853,3.84802 84.8339,14.55664 39.2651,14.27823 68.1181,42.24002 86.5606,83.88477 18.4429,41.64474 15.1705,89.23995 -9.8164,142.7832 -24.9869,53.54325 -48.7836,71.98607 -71.3906,55.32813 -22.6072,-16.65784 -33.9102,-37.47995 -33.9102,-62.4668 22.6069,-35.69551 36.5867,-62.4686 41.9414,-80.31641 5.3547,-17.84774 5.3547,-34.20698 0,-49.08008 -5.3544,-14.87307 -16.3597,-23.49917 -33.0176,-25.8789 -16.6579,-2.37973 -33.9122,2.37884 -51.7597,14.27734 -27.36664,-14.27814 -61.27758,-27.36714 -101.73246,-39.26562 5.94917,-27.3666 26.47562,-44.32104 61.57617,-50.86524 8.77516,-1.63603 17.67933,-2.62239 26.71489,-2.95703 z m -115.06254,80.59375 c 41.64465,7.13904 84.47935,22.01391 128.50394,44.62109 -11.8986,65.44175 -27.96013,105.89525 -48.18754,121.36329 -20.22747,15.46807 -45.81005,23.79841 -76.74609,24.98828 -20.22754,1.1898 -29.1512,-2.97537 -26.77149,-12.49414 2.37967,-9.51884 1.18909,-17.25198 -3.57031,-23.20118 35.69557,1.1898 45.80981,-3.8683 30.3418,-15.17187 -15.46817,-11.30357 -26.17778,-14.57578 -32.12695,-9.81641 3.56951,-15.46801 -5.35422,-23.79646 -26.77149,-24.98633 24.9868,-39.26508 43.42956,-74.36669 55.32813,-105.30273 z m 22.98046,18.51758 c -9.37007,0.14867 -20.00576,1.71092 -31.90429,4.68555 v 16.0625 c 23.79705,-7.13906 43.4304,-7.73433 58.89844,-1.78516 15.46807,5.94924 36.29015,10.11441 62.46679,12.49414 l -8.92383,-7.13867 c -23.79698,-8.32897 -42.5374,-15.17108 -56.2207,-20.52539 -6.84161,-2.6773 -14.94631,-3.94164 -24.31641,-3.79297 z m 144.90038,11.43359 c 2.6028,0.40901 4.9451,1.43231 7.0274,3.06836 8.3289,6.5442 10.4124,16.95421 6.248,31.23242 -4.1645,14.27817 -21.1209,40.45604 -50.8672,78.53125 9.5189,57.11278 30.9361,91.61908 64.252,103.51758 v 41.04883 c 0,14.27823 -16.6569,21.41797 -49.9727,21.41797 -29.7464,0 -44.62108,-7.13974 -44.62108,-21.41797 0,-42.83454 -10.70773,-74.95968 -32.125,-96.37695 35.69552,-26.17674 58.89678,-75.55587 69.60548,-148.13672 12.4934,-9.81627 22.6447,-14.1118 30.4531,-12.88477 z m -146.01756,12.4375 c -13.98075,-0.29746 -23.64759,4.61091 -29.00196,14.72461 l -16.0625,10.70899 v 7.13867 l 14.27735,1.78515 c 19.03761,13.08837 48.19,10.70907 87.45508,-7.13867 h 33.91015 v -10.70898 h -35.69531 c -22.60714,-10.70864 -40.90208,-16.2123 -54.88281,-16.50977 z m -7.58399,11.15625 c -4.75937,7.13913 -4.16408,13.68169 1.78516,19.63086 -7.13911,-1.1898 -13.68357,-2.9738 -19.63281,-5.35351 2.37971,-4.7594 8.32888,-9.51795 17.84765,-14.27735 z m 23.20117,0 28.55665,10.70703 c -10.70864,4.7594 -20.22765,7.73403 -28.55665,8.92383 7.13913,-5.94917 7.13913,-12.49173 0,-19.63086 z m 19.63282,262.36133 c 28.55638,19.03761 57.11336,28.55664 85.66996,28.55664 29.746,0 58.3032,-9.51903 85.6699,-28.55664 l 94.5918,14.2793 c -16.6579,41.64474 -53.246,69.60662 -109.7637,83.88476 -56.5178,14.27824 -104.11115,14.27824 -142.78124,0 -38.67017,-14.27814 -75.25999,-42.24002 -109.76563,-83.88476 z m -96.37891,85.66992 c 54.73311,29.74624 96.37917,47.59373 124.93555,53.54297 28.55642,5.94926 57.11352,6.84224 85.66992,2.67774 28.5565,-4.16447 75.5564,-19.93037 140.998,-47.29688 -11.8983,30.9361 -23.2033,78.53134 -33.9121,142.7832 -9.5517,57.31024 -21.3751,120.30991 -29.5945,213.71931 -6.2671,71.2236 -0.1808,160.8946 19.5867,237.767 l -150.9297,34.3828 C 973.59171,1344.2375 963.56393,1264.5348 947.88086,1195.3496 930.05901,1116.7292 910.15881,1049.7159 897.74414,1004.832 882.27606,948.90919 865.61727,873.35205 847.76953,778.16406 Z M 544.18359,1213.7383 h 67.91797 l 308.57032,219.1933 -344.625,106.5899 c 7.82599,-163.3212 -2.79522,-271.9159 -31.86329,-325.7832 z M 1163,1420.0391 c 23.4781,92.2621 9.5022,172.4898 -41.9258,240.6836 -77.7013,47.5637 -171.89386,55.0138 -282.57615,22.3496 -110.68229,-33.2372 -215.77505,-26.6461 -315.27735,19.7715 10.06199,-36.1026 92.23704,-95.129 246.52149,-177.0762 z" />
</svg>
