<?xml version="1.0" encoding="UTF-8" standalone="no"?>
<svg
   width="1302.6494"
   height="1798.6591"
   version="1.1"
   id="svg534"
   xmlns="http://www.w3.org/2000/svg"
   xmlns:svg="http://www.w3.org/2000/svg">
  <defs
     id="defs538" />
  <path
     id="path532"
     style="fill:#000000;stroke:none;stroke-width:98.7904"
     d="m 1125.2988,0 -30.2734,0.38085938 -0.9785,52.49609362 -30.6641,0.380859 c 0,0 1.5206,51.674588 -2.1484,52.113278 -13.776,1.647 -41.6052,18.86666 -50.9746,29.35547 -18.73882,20.97762 -24.4805,26.62395 -24.4805,55.66992 0,13.98508 -3.36027,18.39455 1.04882,29.15235 C 969.19201,150.69919 949.5355,104.6722 928.04102,81.542969 906.54653,58.413812 889.77544,45.313284 877.65039,42.085938 c 4.40907,10.757799 14.45084,26.900487 29.88281,48.416015 15.43197,21.515517 27.50995,51.399787 36.32813,89.589847 8.81829,38.19006 20.01056,63.71763 33.78906,76.62695 13.77851,12.90931 26.74011,22.07035 38.86521,27.44922 h -16.4043 c -6.61366,4.30309 -6.61366,8.65785 0,12.96094 h 6.4434 l 5.4687,22.49414 c -9.3398,2.69513 -17.992,5.88716 -25.19332,9.7207 -9.92051,9.68204 -16.84514,20.60519 -20.70313,32.97656 -3.85799,12.37144 -6.3196,21.30662 -7.42187,26.68555 -7.71598,15.06082 -11.52344,31.84457 -11.52344,50.13281 -22.04566,25.81863 -31.4319,40.87271 -28.125,45.17578 4.4091,4.3032 8.87212,7.37976 13.28125,9.53125 l -1.75781,4.95508 c -6.6137,3.2274 -6.6137,7.39261 0,12.77149 -4.4092,9.68199 -2.17767,15.12732 6.64062,16.20312 0,24.74293 10.50203,37.16992 31.44532,37.16992 h 36.32808 c 4.409,10.75772 11.1036,22.09614 19.9219,33.92969 -54.01185,0 -94.24836,19.21933 -120.70311,57.94727 -28.65925,24.74289 -71.1274,58.75802 -127.34375,101.78906 -37.4776,1.07577 -101.40978,6.32976 -191.79687,16.01172 -23.14789,-26.89439 -45.26758,-46.7528 -66.21094,-59.66211 -16.53424,-8.60621 -24.57456,-9.47109 -24.02344,-2.47852 0.404,5.1283 2.19929,9.10249 5.27149,11.62696 l -230.66211,-42.125 c 6.85759,-37.51104 23.53233,-73.88165 50,-109.03321 -26.10815,-12.54882 -53.07842,-16.5946 -81.05469,-12.19922 -0.4872,38.98304 -4.99454,75.97389 -13.47656,110.9375 -74.58853,-71.53448 -135.185786,-94.6775 -181.640629,-69.57422 -46.4549546,25.10328 -55.5138,57.75658 -27.148438,97.97657 28.365222,40.21997 95.024257,43.00988 199.804687,8.57812 -8.98099,37.02038 -23.08819,71.75729 -42.1875,104.26758 23.4858,14.11469 50.36904,19.34419 80.46875,15.43945 -7.38009,-34.28498 -4.78879,-72.814 7.8125,-115.51367 11.56319,3.1555 208.69194,54.45461 210.15625,58.32813 0.845,6.68279 3.2038,14.34104 7.0293,22.875 26.45479,10.75769 58.4228,18.82817 95.90039,24.20703 59.52315,7.53039 138.88053,9.70972 238.08594,6.48242 67.23913,-46.25844 116.86192,-92.51114 148.82812,-138.76953 L 925.69727,744.125 c 6.61369,23.66711 17.57584,41.79772 33.00781,54.70703 v 53.37109 c -11.02278,4.30311 -32.71705,15.22626 -65.23438,32.97657 -32.51733,17.75028 -66.94505,32.13087 -103.32031,42.88867 -40.78438,-27.9702 -74.52174,-41.48592 -100.97656,-40.41016 -16.53424,-1.07576 -18.11026,5.90787 -4.88281,20.96875 -12.12511,-3.22739 -34.70497,6.38132 -67.77344,28.97266 -3.3069,-22.59134 -0.61497,-41.3611 8.20312,-56.42188 -14.3297,-4.3032 -27.52333,-4.3032 -39.64843,0 7.71599,15.06078 9.94556,35.56023 6.63867,61.37891 l -89.45117,-8.19726 v 33.92968 l 89.45312,-9.7207 c 3.3069,23.66704 1.07537,43.71694 -6.64062,59.85354 12.1251,4.303 24.66325,4.303 37.89062,0 -7.71599,-17.2124 -9.75221,-36.62312 -6.44531,-58.1387 44.09124,30.12179 74.28608,36.46444 90.82031,19.25196 25.35249,-10e-6 52.39535,-4.16532 81.05469,-12.77149 66.13687,-7.53047 124.03011,-20.40713 173.63281,-38.69531 1.1023,2.1515 0.44699,37.06589 -1.75781,104.83984 -74.95512,13.9851 -190.08613,43.4542 -345.50781,88.6367 -52.9095,21.5156 -77.06538,67.3168 -72.65625,137.2422 -12.12511,95.7442 -22.4151,136.2605 -26.82422,270.7324 -1.1023,31.1976 -8.91252,58.0396 -23.24219,80.6309 -14.32965,22.5913 -64.41267,43.0906 -150.39063,61.3789 -30.06335,9.78 -45.92612,24.438 -47.76171,43.9863 H 179.99996 v 23.7051 59.4395 H 1301.3008 v -83.1446 h -73.5039 l 2.0019,-692.3301 c 0.025,-8.6059 4.463,-12.9609 13.2813,-12.9609 8.818,0 13.2812,4.3551 13.2812,12.9609 v 134.004 h 34.7657 v -146.9649 c 0,-22.59122 -15.4272,-33.73827 -46.2911,-33.73827 -33.0683,-10e-6 -49.6074,11.14705 -49.6074,33.73827 v 12.9609 h -19.9219 c 5.511,-72.07699 9.9721,-147.34723 13.2793,-225.87886 h 56.25 V 689.22656 c 14.3297,-13.98507 19.9432,-31.44033 17.1875,-52.41797 -2.7556,-20.97764 -8.3692,-31.64257 -17.1875,-31.64257 0,-116.18388 -18.7723,-208.68745 -56.25,-277.53711 -4.211,-4.1097 -11.5812,-7.04026 -20.3125,-9.72266 l 3.7129,-20.77734 h 8.2012 c 5.511,-4.3031 5.511,-8.65786 0,-12.96094 h -16.4043 c 12.125,-5.3789 25.0868,-14.53991 38.8652,-27.44922 13.7786,-12.90932 24.9729,-38.43689 33.7911,-76.62695 8.8179,-38.19006 20.8942,-68.07433 36.3261,-89.589847 15.432,-21.515528 25.4737,-37.658216 29.8828,-48.416015 -12.1251,3.227346 -28.664,16.327874 -49.6074,39.457031 -19.0239,21.009411 -34.398,70.872211 -50.6933,129.605471 1.102,-6.1857 -7.3848,-43.11524 -7.3848,-43.11524 0,0 -8.7832,-14.56539 -20.2481,-33.30664 -7.4359,-12.15538 -34.4507,-25.50778 -48.8281,-28.59375 z m -32.4218,125.76758 c 26.4547,0 47.4586,8.07041 62.8906,24.20703 15.4319,16.13665 15.5097,25.06105 15.5097,47.65234 0,23.66704 -2.6753,26.75396 -19.2128,42.89063 -16.5342,16.13669 -36.8827,24.20703 -61.1329,24.20703 -25.3524,0 -46.1611,-8.07041 -62.6953,-24.20703 -16.5342,-16.13667 -15.8593,-25.93257 -15.8593,-49.59961 0,-22.59129 0.6185,-24.80671 16.0468,-40.94336 15.432,-16.13666 36.8962,-24.20703 64.4532,-24.20703 z m -71.2813,171.36133 h 135.5449 l -3.125,16.96484 c -15.1471,-2.7038 -34.2956,-4.19336 -58.0058,-4.19336 -27.7559,0 -51.0847,2.44408 -70.8985,6.67188 z m 70.1152,40.2207 c 16.2587,0 32.8016,1.08874 49.6114,3.24023 33.6196,4.303 57.0851,69.32556 70.3125,195.19141 v 230.83594 h -90.8203 V 456.86523 c 0,-30.12173 -11.1575,-45.17578 -33.2032,-45.17578 -22.0455,0 -33.0078,-4.9958 -33.0078,-14.67773 0,-9.68189 -21.4641,-18.20198 -64.45311,-25.73242 4.4091,-16.13667 22.29591,-26.38639 53.71091,-30.68946 15.7075,-2.15149 31.5911,-3.24025 47.8496,-3.24023 z m -97.84957,56.23242 c 37.13307,1.765 55.85937,19.67557 55.85937,53.5625 h 8.2012 c 5.511,-16.13668 13.1264,-24.20898 23.0469,-24.20898 11.0227,-10e-6 13.0245,11.56419 5.8593,34.69336 -7.165,23.12922 -14.5496,34.6914 -22.2656,34.6914 -4.409,10e-6 -6.6406,-3.26601 -6.6406,-9.7207 v -11.24609 h -8.2031 v 11.24609 c 0,11.83352 4.9229,17.72656 14.8437,17.72656 11.0228,0 19.2933,-9.16103 24.8047,-27.44922 v 113.03711 c -8.818,8.60629 -22.6675,10.14264 -41.4063,4.76367 -12.1243,-11.83348 -19.738,-27.33521 -23.0449,-46.69921 h -46.28905 c -16.53427,3.22735 -24.34448,-3.30671 -23.24218,-19.44336 l 24.80468,-12.96289 c 0,-2.1516 -9.38622,-6.95602 -28.125,-14.48633 l -11.52343,3.24023 6.64062,-9.7207 -6.64062,-3.24024 c -4.4091,-2.15159 -6.87088,-4.77856 -7.42188,-8.00585 -0.551,-3.2274 6.83372,-14.56575 22.26563,-33.92969 4.40919,-6.4547 7.09897,-12.12386 8.20117,-16.96485 1.1023,-4.84099 6.2208,-9.0062 15.03906,-12.77148 8.81829,-3.7652 18.89664,-3.7652 30.4707,0 11.5739,3.7652 22.3061,6.16639 32.2266,7.24219 v -6.48047 c -13.2274,-3.22729 -25.7656,-6.94302 -37.8907,-11.2461 -12.12506,-4.30306 -24.85853,-2.76482 -38.0859,4.76563 2.2045,-6.45469 6.01191,-11.90005 11.52344,-16.20313 6.06259,-0.403 11.68746,-0.44245 16.99219,-0.18945 z m 4.10156,26.49609 c -2.1357,-0.16799 -4.321,-0.0233 -6.25,0.38086 -7.71599,1.6136 -12.86933,4.24057 -15.625,8.00586 -2.7557,3.7652 -6.33311,6.80749 -10.74219,8.95899 v 3.24023 c 5.5114,1.0758 9.97441,2.39011 13.28125,4.00391 3.3069,1.6136 8.69031,1.83792 16.40625,0.76172 7.7159,-1.0758 15.9864,-4.79145 24.8047,-11.2461 h 21.4844 v -4.76562 h -21.4864 c -8.267,-5.6478 -15.466,-8.8356 -21.87301,-9.33985 z m -54.10156,59.28126 c 0,6.45469 4.92321,9.7207 14.84375,9.7207 5.51139,-6.4547 0.58798,-9.7207 -14.84375,-9.7207 z m 145.50777,134.00195 v 117.80078 c -17.6364,30.12172 -36.4089,61.76819 -56.25,95.11719 -18.7387,5.37899 -33.0483,9.28602 -42.96871,11.4375 v -48.41602 c -19.84106,-13.98513 -29.88281,-28.14189 -29.88281,-42.12695 28.65934,-41.95529 41.39272,-74.46654 38.08594,-97.59571 -3.30687,-23.12921 27.08328,-35.14102 91.01558,-36.21679 z M 81.361328,628.23047 c 24.786612,-0.78 62.621972,17.81921 113.476562,56.04101 -80.18095,16.22439 -127.294196,14.63871 -141.601562,-4.95703 -14.306766,-19.59568 -10.016699,-35.42533 13.085938,-47.46289 4.331795,-2.2571 9.319108,-3.44106 15.039062,-3.62109 z M 1147.1816,795.5918 l 9.961,1.71484 c -3.307,79.60746 -6.884,138.73495 -10.7422,177.46289 -3.858,38.72797 -3.3985,87.38197 1.5625,146.01167 4.96,58.63 -24.5442,88.0645 -88.4766,88.0645 H 712.41602 c -31.96621,0 -48.04688,16.5924 -48.04688,49.9414 l -2.01953,240.0449 h -115.625 c 2.2045,-76.38 12.95475,-106.6484 28.38672,-240.0449 -5.5114,-58.0919 17.72402,-94.093 69.53125,-108.0781 136.68286,-40.8796 252.27411,-69.4513 347.07031,-85.5879 2.2046,-87.13793 3.32031,-137.10429 3.32031,-150.01368 23.1479,-7.53044 50.8463,-21.0462 82.8125,-40.41015 23.1479,-20.43969 46.1881,-46.83217 69.3359,-79.10547 z M 682.14258,926.35352 c 1.7568,-0.202 2.13637,0.37034 1.17187,1.71484 -3.85789,5.37889 -4.08834,9.95935 -0.78125,13.72461 3.3069,3.76519 4.19246,7.48085 2.53907,11.24609 -1.6535,3.7652 -0.0775,8.57147 4.88281,14.48828 4.95999,5.9167 -15.15799,-0.20251 -60.35156,-18.49023 29.76159,-14.52296 47.26878,-22.0785 52.53906,-22.68359 z m 491.60152,129.04688 h 19.7266 l -2.0195,380.9023 H 1006.2949 V 1687.541 H 697.11523 l 2.01954,-428.7539 c 0.0506,-10.758 4.463,-16.2012 13.28125,-16.2012 h 345.50778 c 102.5122,0 141.1728,-62.3954 115.8203,-187.1855 z m -132.6836,414.832 150.3907,1.5254 v 215.7832 h -150.3907 z m -494.33589,59.2871 50.53125,1 c 0,0 -15.27839,107.6219 -7.5625,131.2891 7.71599,23.667 -4.55734,35.0052 -36.52344,33.9297 l -180.07812,1.5254 c -30.86387,1.076 -25.48046,-3.7305 16.40625,-14.4883 60.62541,-11.8336 101.7477,-30.1536 123.24218,-54.8965 21.49449,-24.7429 32.88205,-57.4798 33.98438,-98.3594 z m 74.21875,0 h 41.40625 v 185.9961 h -62.88477 c 13.99448,-4.7961 22.66668,-11.7835 24.79883,-21.4941 3.3069,-15.0608 0.84502,-30.9778 -7.42187,-47.6524 -8.26709,-16.6745 -6.92123,-55.5301 4.10156,-116.8496 z" />
</svg>
