<?xml version="1.0" encoding="UTF-8" standalone="no"?>
<svg
   width="1588.1254"
   height="1799.9976"
   version="1.1"
   id="svg1"
   xml:space="preserve"
   xmlns="http://www.w3.org/2000/svg"
   xmlns:svg="http://www.w3.org/2000/svg"><defs
     id="defs1" /><path
     id="path1"
     style="display:inline;fill:#000000;stroke:none;stroke-width:109.494"
     d="m 892.6816,0 c -46.89703,0 -70.34406,33.836218 -70.34406,101.51053 v 78.36162 H 788.5007 c -13.05995,1e-5 -19.59201,9.20046 -19.59201,27.60312 0,18.40266 6.53206,27.60527 19.59201,27.60527 h 33.83684 v 78.07112 c -6.2408,-0.18491 -12.34532,-0.67234 -18.70118,-0.6025 -54.02075,0.59369 -95.27845,37.10253 -123.77291,109.52594 -8.31086,39.17987 -24.04124,75.39155 -47.19299,108.6351 -23.15177,33.24349 -17.51127,49.27111 16.9195,48.08382 -7.12357,11.87276 -5.93692,18.99707 3.5612,21.37155 -8.31085,5.93636 -9.20249,11.27956 -2.67251,16.02866 6.52998,4.74903 9.20269,15.43339 8.0154,32.05516 7.12358,13.05996 6.82641,28.49524 -0.89084,46.3043 -7.71717,17.80905 -17.80928,28.4934 -30.27564,32.05516 -12.46634,3.56184 -19.88567,10.98329 -22.26023,22.26238 -2.37448,11.27907 2.96655,18.10625 16.0265,20.48072 13.05994,2.37454 30.87079,-9.49862 53.42887,-35.61853 22.55815,-26.1199 34.42917,-45.11739 35.61636,-56.99007 h 39.17973 c 16.62171,13.05995 25.52715,40.36841 26.71443,81.92282 -70.04884,-1.18727 -132.38019,10.09149 -186.99455,33.83685 -108.04152,13.05996 -203.0245,29.6819 -284.94604,49.8655 -32.05621,-53.42708 -60.54918,-102.6986 -85.48187,-147.81483 -24.93263,-45.11625 -45.71117,-102.69871 -62.33296,-172.74758 22.55816,-22.55817 32.94743,-45.71002 31.16646,-69.45538 -1.78086,-23.74535 -2.0781,-42.14844 -0.89082,-55.20838 5.93631,-13.05995 5.93631,-21.96534 0,-26.71442 -5.93637,-3.56183 -11.27956,-2.07794 -16.02866,4.45203 -4.74903,6.52999 -7.71681,16.32486 -8.90409,29.38481 0,16.62178 -1.18666,29.08927 -3.56122,37.40019 -1.18728,3.56176 -2.96832,5.3429 -5.34287,5.3429 -2.37457,0 -3.56122,-4.1566 -3.56122,-12.46745 2.37457,-30.86902 7.71559,-53.1293 16.02651,-66.78285 8.31086,-13.65363 18.99737,-32.35389 32.05732,-56.09924 2.37456,-7.12364 0.89066,-11.57525 -4.45205,-13.35614 -5.34269,-1.78095 -9.20206,-1.48371 -11.57662,0.89085 1.18728,-2.37456 6.3e-4,-4.45285 -3.56119,-6.23374 -3.56183,-1.78088 -6.52954,-1.48371 -8.90409,0.89084 -1.18721,-3.56182 -3.26551,-5.93728 -6.23373,-7.12456 -2.96816,-1.18729 -5.6387,-0.59288 -8.01326,1.78167 -3.56183,-5.93636 -7.42119,-8.31183 -11.57661,-7.12455 -4.15543,1.18728 -8.01478,4.74939 -11.57662,10.68577 -3.56174,17.80897 -11.27832,36.5093 -23.15106,56.09922 -11.872681,19.59001 -18.997001,35.32032 -21.371551,47.193 -2.37455,17.80903 -2.37455,32.64993 0,44.5226 2.37455,28.49447 6.53108,51.05406 12.46746,67.67585 h 1.779511 c 9.49815,172.15402 48.67977,314.03303 117.54136,425.6363 100.91787,8.31086 188.77437,5.9354 263.57234,-7.12455 74.79796,-13.05996 119.32064,-10.6845 133.56785,7.12455 14.24724,17.80898 24.33926,41.5531 30.27564,71.23487 33.1431,89.0722 71.0565,232.2256 96.75077,360.3296 L 491.36909,1174.2278 c -42.23152,-38.2368 -79.32714,-57.3558 -111.2861,-57.3558 -89.59929,1.1412 -129.26203,38.2369 -118.98951,111.286 l 47.93751,341.5618 c -67.91285,16.5502 -99.30061,67.6286 -94.16433,153.233 -30.81759,6.2776 -59.0668,15.1238 -84.74812,26.538 -25.11064,10.8428 -50.506981,15.1222 -76.188311,12.8396 C 28.248905,1760.6184 10.272534,1773.1748 0,1799.9976 h 1360.2541 c -27.964,-54.7868 -67.9126,-76.4733 -119.846,-65.0594 -51.3626,11.4138 -86.1747,-11.1297 -104.4369,-67.6284 -17.6916,-55.9282 -47.6527,-67.9133 -89.8844,-35.9542 40.9043,-78.9682 42.1884,-161.8974 3.9163,-248.7832 13.4188,-119.0692 4.6564,-307.3279 19.8781,-379.9238 13.06,-35.61805 24.6359,-61.14322 34.7278,-76.57772 10.0917,-15.43451 46.8977,-15.43451 110.4168,0 63.5187,15.4345 143.3615,17.80781 239.5303,7.1224 68.8616,-110.416 108.0432,-251.70062 117.5413,-423.85463 h 1.7817 c 5.9364,-17.80905 10.0909,-40.9609 12.4654,-69.45537 2.3745,-11.87267 2.3745,-26.11914 0,-42.74093 -2.3745,-11.87276 -9.4988,-27.60521 -21.3716,-47.19513 -11.8723,-19.58994 -19.5889,-38.88251 -23.151,-57.87876 -3.5616,-4.74911 -7.4211,-7.71682 -11.5768,-8.9041 -4.1555,-1.18727 -8.0129,0.59378 -11.5743,5.34288 -2.3745,-2.37454 -5.0474,-2.96895 -8.0154,-1.78167 -2.968,1.18728 -5.0441,3.56274 -6.2316,7.12456 -2.3745,-2.37432 -5.3427,-2.67172 -8.9042,-0.89084 -3.5621,1.78089 -4.751,3.85918 -3.5633,6.23374 -2.3748,-2.37456 -6.2318,-2.37456 -11.5744,0 -5.3425,2.37453 -6.8266,6.52891 -4.452,12.46529 13.0599,23.74535 23.7444,42.74284 32.0551,56.99007 8.311,14.24724 13.6541,36.80469 16.0286,67.67369 0,7.12381 -1.1866,10.98315 -3.5611,11.57661 -2.3739,0.59359 -4.1553,-1.48468 -5.343,-6.23373 -2.3745,-8.31092 -3.5612,-20.77841 -3.5612,-37.40019 -1.1877,-11.87268 -4.157,-21.07315 -8.9062,-27.60312 -4.7494,-6.52999 -10.0926,-8.01388 -16.0287,-4.45206 -5.936,3.56184 -5.342,11.87281 1.7817,24.93276 0,13.05994 -0.8891,31.75811 -2.6703,56.09707 -1.781,24.33903 8.6062,47.19581 31.1643,68.56669 -16.6218,71.23614 -37.3982,129.11586 -62.3309,173.63842 -24.9325,44.52262 -53.4277,93.49691 -85.484,146.92399 -93.7944,-22.55809 -178.6831,-39.18002 -254.6682,-49.8655 -45.1162,-23.74536 -96.7632,-35.61853 -154.9394,-35.61853 v -30.27564 l 65.8942,-48.08383 c 47.4908,-89.04518 58.7696,-163.54678 33.8369,-223.50392 -24.9327,-59.95706 -60.2549,-98.83929 -105.9648,-116.64835 -21.88266,-8.52569 -44.77719,-14.81047 -68.56455,-19.11862 V 103.29222 c 0,-27.307189 5.93766,-40.961417 17.81034,-40.961417 11.87268,0 17.80818,13.654228 17.80818,40.961417 H 961.2482 C 962.4355,34.430623 939.5788,0 892.6816,0 Z m -44.98096,349.83747 c 25.46134,0.74204 51.73541,6.12078 78.81995,16.1384 43.33531,16.02812 75.09331,46.8966 95.27681,92.60644 20.1836,45.70991 16.6235,98.54354 -10.6836,158.50061 -27.3071,59.95706 -53.4289,80.43838 -78.36163,61.4421 -24.93263,-18.99632 -37.99245,-42.14817 -39.17973,-69.45536 26.1199,-39.17985 42.14956,-68.56446 48.08596,-88.1544 5.9364,-19.58999 5.6392,-37.69576 -0.8908,-54.31755 -6.53,-16.6217 -18.99756,-26.41657 -37.40023,-29.38479 -18.40265,-2.96814 -37.10074,2.67012 -56.09708,16.91734 -29.68165,-16.62178 -67.08215,-31.46266 -112.19846,-44.52261 5.93639,-29.68173 28.49592,-48.37983 67.67584,-56.09707 14.69245,-2.89397 29.67617,-4.11834 44.95297,-3.67311 z M 704.7962,439.88328 c 46.30342,8.31087 93.79603,24.33848 142.47409,48.08383 -14.24723,73.61077 -32.35307,118.72782 -54.31755,135.34954 -21.96448,16.62178 -50.16243,25.52715 -84.59318,26.71443 -22.55816,1.18728 -32.35295,-3.26649 -29.38479,-13.3583 2.9682,-10.0918 0.88991,-18.69787 -6.23373,-25.82143 41.55438,1.18726 53.72471,-4.45317 36.50935,-16.9195 -17.21538,-12.46628 -29.38571,-15.73123 -36.50935,-9.79494 3.56181,-17.80904 -5.93589,-27.30675 -28.49397,-28.49396 26.11991,-42.74174 46.30189,-81.3289 60.54913,-115.75967 z m 24.2657,19.14446 c -10.24021,0.2968 -21.88936,2.22652 -34.94932,5.7883 v 17.81034 c 26.11991,-8.31093 47.78572,-8.90534 65.00117,-1.78168 17.21538,7.12358 40.07222,11.87243 68.56668,14.24698 l -8.90625,-10.68578 c -27.30726,-8.31085 -48.38083,-15.43517 -63.22164,-21.37154 -7.42046,-2.96815 -16.25045,-4.30344 -26.49064,-4.00662 z m 161.95207,13.63587 c 2.89396,0.55652 5.52683,1.79973 7.90135,3.72904 9.49813,7.71725 11.8736,19.2931 7.12457,34.72769 -4.74911,15.43451 -24.33876,44.52187 -58.7696,87.26355 10.68547,62.92521 35.02399,100.32362 73.01658,112.19631 l -1.78169,46.30429 c 0,16.62179 -17.21425,24.93275 -51.64502,24.93275 -34.43083,0 -51.64719,-8.31096 -51.64719,-24.93275 0,-46.30352 -12.46534,-81.92078 -37.39805,-106.85341 41.55449,-28.49447 68.26847,-83.10916 80.14115,-163.84349 13.35679,-10.68545 24.37601,-15.19358 33.0579,-13.52398 z m -163.06456,13.52398 c -15.4345,0 -26.12097,5.93547 -32.05731,17.80818 l -17.80819,8.9041 v 8.90624 l 16.02867,1.77951 c 21.37087,14.24724 53.42595,11.87393 96.16764,-7.1224 h 39.17973 V 503.99577 H 788.5007 c -24.93267,-11.87271 -45.11678,-17.80818 -60.55129,-17.80818 z m 17.80819,10.68576 32.05732,12.4653 c -11.87268,4.74904 -22.55919,8.31122 -32.05732,10.68578 7.1236,-7.12358 7.1236,-14.84015 0,-23.15108 z m -26.71228,1.77953 c -3.56183,7.12365 -2.37516,14.84238 3.56121,23.15323 -8.31092,-2.37456 -15.43523,-4.75011 -21.37155,-7.12458 1.18728,-5.93637 7.12495,-11.27955 17.81034,-16.02865 z m 46.30215,290.28894 c 33.24356,21.37081 65.89304,32.05515 97.94933,32.05515 32.0562,0 63.51911,-10.68434 94.3882,-32.05515 L 1060.9793,806.75 c -17.809,45.11624 -55.5067,75.98473 -113.0893,92.60644 -57.58253,16.62179 -110.11899,16.62179 -157.60978,0 C 742.78944,882.73473 699.45344,851.86624 660.27357,806.75 Z m -90.82476,94.3881 c 60.55074,34.43084 106.85229,54.91 138.90858,61.43998 32.0563,6.52998 64.11352,7.42161 96.1698,2.67251 32.05621,-4.7491 77.76551,-21.96545 137.12901,-51.64717 -4.7491,24.93269 -14.8411,60.55205 -30.2756,106.85556 -14.2473,73.6107 -9.1804,237.425 -21.0531,358.5264 l -201.91932,37.8585 C 770.92399,1269.6235 735.6652,1106.5356 704.7962,1004.4303 689.36169,974.74853 679.27183,934.38247 674.52271,883.32992 Z M 374.09027,1218.7419 h 69.33916 l 304.3444,222.5636 -341.15286,101.8784 c 7.98974,-162.6483 -2.85451,-270.7967 -32.5307,-324.442 z m 631.76243,205.4503 c 23.9693,91.8822 9.7008,171.7813 -42.8034,239.694 -79.32673,47.3679 -175.48787,54.7858 -288.4857,22.2559 -112.99785,-33.1003 -220.28896,-26.5376 -321.87286,19.6889 10.27252,-35.9539 94.16299,-94.7357 251.67512,-176.3455 z" /></svg>
