<?xml version="1.0" encoding="UTF-8" standalone="no"?>
<svg
   width="1193.2197"
   height="1799.9219"
   version="1.1"
   id="svg1"
   xmlns="http://www.w3.org/2000/svg"
   xmlns:svg="http://www.w3.org/2000/svg">
  <defs
     id="defs1" />
  <path
     id="path1"
     style="fill:#000000;stroke:none;stroke-width:100.442"
     d="M 87.391974,0 C 25.796647,126.74428 -3.2631583,279.02029 0.29041169,456.69922 L 78.56385,465.52735 c -26.059616,-3.55358 -37.491071,10.7854 -33.9375,42.76758 3.553639,31.98222 11.884323,51.35184 24.914062,58.45898 -18.952403,40.27391 -19.533548,63.52458 -1.765625,69.44727 20.136882,5.92257 35.055023,-6.67109 44.531253,-37.46875 4.73813,-18.95247 7.06249,-31.35281 7.0625,-37.27539 l 39.03906,-1.76563 c 72.25608,66.3335 156.33668,119.61094 252.2832,159.88477 115.7652,-22.46191 231.09766,-127.90625 231.09766,-127.90625 24.87496,48.56559 37.27343,95.44897 37.27343,140.46093 0,56.85728 -0.97081,101.61106 -2.74804,134.18555 -1.77682,32.57443 -10.29846,88.36911 -25.69727,167.73249 l -3.72851,18.0468 c -30.26098,2.8938 -130.88956,1.6283 -164.56695,5.1708 26.05526,13.6705 126.7468,36.5511 155.15093,47.4605 l -41.98242,194.1598 h 16.08594 c -13.02981,24.875 -18.45493,45.2158 -16.08594,61.207 2.36913,15.9912 -1.50564,53.3837 -11.57422,112.0176 -10.06844,58.6344 -25.17946,116.9462 -45.31641,174.9882 -10.6607,23.6905 -21.31577,41.126 -31.97656,52.3789 -10.66072,11.2532 -30.81064,21.9104 -60.42383,31.9786 -29.61311,10.0687 -57.89655,16.2676 -85.14062,18.6367 -27.24413,2.3694 -41.00001,16.7058 -41,42.7656 -2.36904,4.7378 17.19786,7.0625 58.65625,7.0625 24.87508,0 48.3187,-4.4553 70.23242,-13.3398 21.91376,-8.8841 47.87272,-7.7223 78.07812,3.5312 30.2054,11.2531 56.55262,7.3777 79.0586,-11.5742 -5.92259,-47.3812 -1.65962,-88.841 12.55469,-124.377 59.22631,-114.8987 85.5754,-190.6485 79.06054,-227.3691 -6.515,-36.7199 0.26515,-79.3405 20.40235,-127.9062 h 72.78125 c -10e-6,2.3695 4.84416,8.9558 14.32031,19.6171 3.55368,33.1663 13.62765,57.3824 30.21094,72.7813 33.16675,120.8217 50.99222,203.1611 53.36132,246.9883 -3.55366,41.4585 -38.04057,76.3294 -103.18945,104.7578 -33.16676,7.1073 -57.18952,10.789 -71.99609,10.789 -14.80659,0 -22.16797,12.9793 -22.16797,39.0391 h 112.01562 c 28.42865,-15.3989 68.91952,-16.9498 121.63086,-4.5117 52.71144,12.4374 65.49804,-13.9094 38.25391,-79.0586 -5.92255,-24.8748 -6.50368,-52.1935 -1.76562,-81.8066 3.55367,-120.8222 -3.03383,-195.6022 -19.61719,-224.6231 -16.58336,-29.0206 -26.07813,-63.1178 -28.44727,-102.207 l 14.32227,1.7656 c -2.01518,-19.4802 -4.22621,-72.3488 -6.27735,-144.3867 29.08965,2.2329 58.57223,3.9476 89.2598,4.3164 l 9.8086,-76.3125 c -5.0513,26.0008 9.1752,37.6776 42.375,35.1152 33.2,-2.5623 53.37,-9.8209 60.6191,-21.5801 38.8441,20.6056 61.3343,21.6277 67.4844,2.7461 7.3485,-20.05 -4.253,-35.6592 -34.9199,-46.6894 -18.8937,-4.9658 -30.7699,-7.3978 -35.5078,-7.4551 l -1.3731,-37.4687 c -25.3724,-74.52796 -31.3298,-138.50217 -39.8242,-225.21101 -26.3931,-123.2656 -53.2418,-267.93969 -78.8633,-282.6914 -13.02982,-21.32151 -30.85339,-31.97657 -53.35938,-31.97657 v -72.78125 c 0,-71.07158 -33.71053,-128.03089 -101.22851,-170.67382 1.1845,-39.08943 -2.10924,-72.40981 -9.8086,-100.2461 -7.69947,-27.836359 -12.73643,-49.536717 -15.10547,-64.93555 -8.29168,-8.29169 -15.26493,-7.129462 -21.1875,3.53125 3.55352,14.214287 3.16528,36.10557 -0.98046,65.71875 -4.14588,29.61312 -6.85847,46.27652 -8.04297,49.83008 1.18447,-24.875 0.0223,-48.31865 -3.53125,-70.23242 -3.55356,-21.913704 -7.04024,-38.186946 -10.59375,-48.84766 -8.29171,-9.476229 -15.46011,-9.476229 -21.38282,0 -4.73807,50.93463 -10.54911,87.93886 -17.65625,111.03711 -7.10717,23.09823 -14.85675,39.95257 -23.14843,50.61328 -10.66071,2.3691 -18.60322,4.50059 -23.9336,6.27735 -5.3304,1.77682 -11.52965,3.52012 -18.63672,5.29687 -7.10719,1.77683 -16.01897,7.39494 -26.67968,16.8711 L 517.4115,277.19727 v 10.59375 c 1.18451,16.58338 8.15767,28.59796 21.1875,35.70508 23.69055,5.92269 72.31918,19.48326 145.75977,40.80469 -24.87502,37.90488 -38.43558,77.03865 -40.80469,117.3125 C 568.92894,526.62527 500.7334,573.89631 439.13807,623.64649 396.49512,601.14043 315.31819,566.26769 195.68104,518.88672 185.02033,497.56521 162.54798,480.32279 128.19666,467.29297 136.48833,405.69763 122.92774,249.93502 87.391974,0 Z M 74.837287,83.572266 C 85.498066,212.68558 92.085449,332.21801 94.454474,442.37891 82.609217,436.45635 61.880089,431.80749 32.266974,428.25391 27.528854,337.04544 41.670597,222.1618 74.837287,83.572266 Z M 685.33924,239.92383 c 2.99832,-0.11149 6.01484,0.0459 8.82812,0.78516 11.25306,2.96134 22.10099,7.41723 32.76172,13.33984 h 19.61719 v 7.25782 h -21.38281 c -13.02983,-7.10628 -23.68498,-11.56303 -31.97657,-13.33985 -8.29167,-1.77677 -19.52982,1.32162 -33.74414,9.61328 l -3.53125,-5.29687 c 10.66073,-7.99548 20.4328,-12.02619 29.42774,-12.35938 z m 160.66797,8.82813 c 54.48817,45.01187 81.80664,94.80281 81.80664,149.29101 v 83.57032 l -39.03907,-10.78907 c 0,-9.47623 -11.4334,-14.125 -33.93945,-14.125 -20.13695,0 -30.01562,8.33066 -30.01562,24.91407 v 15.89062 112.01758 h -48.0625 v -95.93164 c -10e-6,-60.41084 -8.91178,-112.52415 -26.67969,-156.35156 40.27387,-8.2917 54.41557,-33.28571 42.57031,-74.74414 21.32143,-2.36904 39.14502,-13.60535 53.35938,-33.74219 z m -163.80664,6.27734 c 2.18402,1e-5 4.44894,0.19356 6.66992,0.78516 8.88404,2.36905 17.98861,6.0509 27.46484,10.78906 l 31.97656,1.76563 v 14.125 l -33.74218,-5.29688 c -17.76792,7.10665 -30.74742,9.81971 -39.03907,8.04297 -8.29168,-1.77733 -14.88101,-2.74609 -19.61914,-2.74609 l -1.76562,-5.29688 8.82812,-14.125 c 6.21881,-5.33038 12.67469,-8.04299 19.22657,-8.04297 z m 7.45507,6.27735 c 4.73818,4.73817 5.3192,10.5491 1.76563,17.65624 l 19.61719,-7.0625 z m -14.125,1.76562 -14.32226,14.125 14.32226,1.76562 c -4.73815,-4.73818 -4.73815,-9.96792 0,-15.89062 z m 26.67969,118.88477 c 24.87508,18.95247 28.94279,35.42094 12.35938,49.04296 -16.58337,13.62209 -24.91407,40.55228 -24.91407,80.82618 v 97.69531 h -24.91601 v -97.69531 c 1.18448,-55.6727 13.7802,-99.07146 37.4707,-129.86914 z m 10.59375,115.54687 h 42.57031 v 136.93164 h 87.10157 V 497.50391 h 46.29882 l 39.03907,10.79102 c 0,33.16676 -10.65506,68.23045 -31.97657,105.54296 -21.32142,37.3126 -31.97656,92.71956 -31.97656,166.16016 l -156.35351,80.04102 c 0,-125.5597 -7.74955,-200.72844 -23.14844,-225.60352 h 28.44531 z m 230.90039,76.50977 c 0,0 23.80342,133.28217 63.56053,223.44531 l 32.9571,192.64453 -15.3008,46.10158 c -22.2494,-3.7647 -57.68164,-4.9969 -106.13284,-3.7266 -0.5967,-28.3668 -1.17486,-45.38846 -1.76563,-78.27537 0,-47.38107 -7.55235,-84.77147 -22.95117,-112.01563 10.66072,-28.42862 8.33632,-52.64437 -7.0625,-72.78125 1.18455,-67.518 19.97506,-132.61269 56.69531,-195.39257 z m -74.54883,222.07226 c 11.84528,10.66064 12.42639,27.1268 1.76563,49.63281 l -158.11719,62.1875 c 15.39882,-15.39886 15.39882,-27.21608 0,-35.50781 z m 5.29688,69.25 c 13.02985,18.95241 19.61914,51.49884 19.61914,97.69531 v 70.42775 c -45.02577,1.7642 -99.17918,5.3583 -163.41602,10.791 -11.80527,-38.9977 -17.85156,-78.51762 -17.85156,-118.49218 z m -178.7168,15.69336 c 6.77404,-0.66594 10.3468,2.99072 10.79102,10.98633 0.59261,10.66068 -5.60685,18.41028 -18.63672,23.14844 V 883.1875 c 2.96134,-1.1845 5.58765,-1.9361 7.8457,-2.1582 z m -2.54883,60.61914 c 0,34.81935 5.14313,69.72286 14.51563,104.56256 -10.51108,0.9241 -23.33708,2.3186 -34.33008,3.334 z m 306.42774,126.34186 c -7.26298,12.9432 -12.38048,34.1755 -15.10547,63.7578 -119.95117,-6.5304 -274.39718,-26.17 -376.81548,-59.788 98.66432,-0.067 272.08937,-1.9332 391.92095,-3.9698 z M 662.974,1106.8301 c 24.41544,8.4663 49.84926,15.8405 75.92188,22.3633 21.28978,44.1205 49.6701,88.3276 85.92383,132.4199 H 634.52869 Z m 107.11328,29.8184 c 39.49506,8.5015 80.86164,14.77 123.98438,19.0293 v 105.9355 H 862.0951 c -37.89239,-41.0499 -68.53876,-82.7053 -92.00782,-124.9648 z m -137.32421,137.3242 h 263.07421 l 3.53126,8.8281 h -268.3711 z" />
</svg>
