<?xml version="1.0" encoding="UTF-8" standalone="no"?>
<svg
   width="1477.3889"
   height="1799.9736"
   version="1.1"
   id="svg1"
   xml:space="preserve"
   xmlns="http://www.w3.org/2000/svg"
   xmlns:svg="http://www.w3.org/2000/svg"><defs
     id="defs1" /><path
     id="path1-0"
     style="fill:#000000;stroke:none;stroke-width:107.592"
     d="m 793.54032,0 c -46.08539,0 -69.12988,33.248664 -69.12988,99.748084 v 77.003706 h -33.245 c -12.8322,0 -19.24929,9.04256 -19.24929,27.12528 0,18.08275 6.41709,27.12309 19.24929,27.12309 h 33.245 v 76.22313 c -5.96289,-0.15799 -11.78949,-0.62359 -17.85915,-0.54159 -53.08625,0.5882 -93.63019,36.46232 -121.63291,107.62409 -8.1627,38.5038 -23.62019,74.08848 -46.37234,106.7536 -22.74519,32.6436 -17.20475,48.3927 16.62245,47.24505 -6.96485,11.70608 -5.78204,18.7059 3.54988,21.00122 -8.17706,5.83869 -9.03858,11.08965 -2.58296,15.75199 6.38388,4.66954 9.004,15.16927 7.85633,31.50182 6.87155,12.83223 6.51231,28.00017 -1.0766,45.50189 -7.58175,17.48023 -17.49867,27.97837 -29.7499,31.49306 -12.2153,3.50033 -19.50684,10.79183 -21.8739,21.87388 -2.33117,11.12508 2.91985,17.83543 15.75206,20.13074 12.83218,2.33117 30.33387,-9.33688 52.50517,-35.00129 22.18567,-25.66443 33.85144,-44.33229 34.99912,-56.00251 h 38.4985 c 16.35401,12.83223 25.10498,39.66601 26.25264,80.501 -68.83776,-1.16918 -130.09235,9.9139 -183.75946,33.24716 C 389.37415,791.13561 296.04448,807.46748 215.55094,827.30038 184.04784,774.80234 156.04633,726.38953 131.54388,682.06136 107.04871,637.72604 86.633553,581.14349 70.300983,512.31291 c 22.13537,-22.17125 32.341947,-44.92397 30.620367,-68.25723 -1.864917,-23.33326 -2.222027,-41.41616 -1.074357,-54.24839 5.809997,-12.83938 5.809997,-21.59026 0,-26.2526 -5.83872,-3.5147 -11.08974,-2.04395 -15.75206,4.41161 -4.66241,6.4197 -7.56814,16.045 -8.71581,28.87722 0,16.33256 -1.18281,28.58177 -3.5499,36.74445 -1.14768,3.5147 -2.90404,5.27112 -5.27111,5.27112 -2.3671,0 -3.55205,-4.08107 -3.55205,-12.24375 2.33118,-30.33394 7.58209,-52.21225 15.75198,-65.63262 8.16268,-13.41324 18.66463,-31.78563 31.503987,-55.11888 2.29525,-7.02938 0.82448,-11.40592 -4.41162,-13.1274 -5.28639,-1.64975 -9.077968,-1.29044 -11.373207,1.0766 1.147679,-2.36704 -0.0354,-4.41136 -3.55001,-6.13284 -3.44302,-1.64975 -6.34862,-1.29044 -8.71571,1.07659 -1.14766,-3.51471 -3.19199,-5.84691 -6.13284,-6.99455 -2.86913,-1.21939 -5.48702,-0.64582 -7.85409,1.72122 -3.4932,-5.81002 -7.2848,-8.14002 -11.37333,-6.99237 -4.06697,1.21939 -7.85644,4.73447 -11.371081,10.54445 -3.50038,17.50175 -11.08515,35.87414 -22.7553,55.11888 -11.63444,19.2519 -18.6363395,34.71313 -21.0034195,46.38333 -2.29523,17.49458 -2.29523,32.07756 0,43.74777 2.3599,27.99561 6.44474,50.15959 12.2547005,66.49215 h 1.721219 c 9.33195,169.17148 47.82998,308.58919 115.491328,418.25476 99.17177,8.16987 185.50302,5.83986 258.99602,-6.99237 73.50007,-12.83937 117.2506,-10.50936 131.25203,6.99237 14.02296,17.49458 23.93989,40.82842 29.74988,70.00037 36.71148,98.6521 72.98007,262.2467 97.48083,398.5778 l -13.69526,4.484 c -252.36314,85.372 -535.616208,199.0429 -587.137077,336.8921 -9.84777,23.0938 6.13085,73.7572 27.52214,72.978 563.300447,0 762.375827,-6.3703 829.600527,-19.1199 l 152.99874,13.9036 c 57.9519,0 64.9058,-15.0691 20.8609,-45.206 l -93.88504,-59.1094 c -17.3854,-31.2917 -19.1231,-72.4353 -5.214,-123.433 -4.6361,-41.7222 -21.4417,-53.3176 -50.4179,-34.7755 11.5898,-78.8155 11.5898,-146.0468 0,-201.6735 l -6.1546,-33.359 c 13.8541,-115.1251 30.1297,-241.0974 45.05,-312.23563 12.8322,-35.00346 24.2048,-60.08619 34.11774,-75.24959 9.92,-15.17055 46.0838,-15.17055 108.4946,0 62.4179,15.15622 140.8787,17.48625 235.3811,6.99238 67.6613,-108.50359 106.163,-247.33637 115.5022,-416.50065 h 1.7212 c 5.8028,-17.50173 9.8877,-40.25067 12.2549,-68.24626 2.2951,-11.67022 2.2951,-25.67205 0,-42.00463 -2.3312,-11.66302 -9.3332,-27.12047 -21.0036,-46.37236 -11.6487,-19.25192 -19.2297,-38.20925 -22.7443,-56.87298 -3.5004,-4.66236 -7.2957,-7.56813 -11.3842,-8.7158 -4.0669,-1.14765 -7.8564,0.60879 -11.3711,5.27115 -2.2954,-2.29532 -4.9132,-2.8689 -7.8541,-1.72125 -2.9409,1.14767 -4.9852,3.47988 -6.1329,6.99456 -2.2954,-2.43877 -5.2011,-2.79808 -8.7158,-1.07659 -3.5146,1.7215 -4.6975,3.76579 -3.5498,6.13284 -2.3455,-2.36705 -6.1372,-2.36705 -11.3734,0 -5.3078,2.35987 -6.7785,6.44474 -4.4115,12.25474 12.8321,23.33325 23.3302,42.0011 31.493,56.0025 8.1341,14.00139 13.3848,36.16536 15.752,66.49213 0,6.87159 -1.185,10.66478 -3.552,11.38206 -2.3672,0.57383 -4.1236,-1.4683 -5.2711,-6.13065 -2.2954,-8.16268 -3.4425,-20.41189 -3.4425,-36.74445 -1.1478,-11.69891 -4.0535,-20.73927 -8.7158,-27.12311 -4.684,-6.45554 -9.9312,-7.9263 -15.7411,-4.41159 -5.8819,3.50034 -5.3082,11.66626 1.7211,24.49847 0,12.83223 -0.8591,31.2084 -2.5805,55.12983 -1.7503,23.91425 8.4601,46.3737 30.6312,67.37579 -16.3326,69.99976 -36.7514,126.87397 -61.2539,170.62114 -24.5024,43.74717 -52.5002,91.86829 -83.9961,144.36633 -92.1711,-22.16408 -175.5894,-38.49593 -250.2515,-48.99698 -44.33524,-23.33326 -95.08574,-34.9991 -152.25344,-34.9991 v -29.74988 l 64.749,-47.24506 c 46.6665,-87.50148 57.7533,-160.71136 33.258,-219.62907 -24.5023,-58.91773 -59.2125,-97.1241 -104.1289,-114.61865 -21.66037,-8.50574 -44.32137,-14.76437 -67.88003,-19.0015 V 101.5022 c 0,-26.833585 5.83379,-40.250493 17.50394,-40.250493 11.66308,0 17.4952,13.416908 17.4952,40.250493 h 40.25049 C 862.08326,33.833626 839.62596,0 793.54032,0 Z m -43.89906,343.71121 c 25.01978,0.73016 50.83538,6.0169 77.44659,15.86162 42.58531,15.75157 73.79341,46.08747 93.62631,91.0038 19.8042,44.91633 16.289,96.82906 -10.5446,155.7396 -26.8336,58.91773 -52.4975,79.04496 -76.99264,60.38123 -24.524,-18.6709 -37.35968,-41.42362 -38.50735,-68.25723 25.69313,-38.49663 41.44389,-67.37095 47.25379,-86.62286 5.6665,-19.24473 5.3094,-37.03596 -1.0745,-53.37571 -6.41951,-16.30386 -18.67254,-25.92757 -36.75531,-28.86844 -18.08264,-2.91936 -36.45518,2.6211 -55.1188,16.62248 -29.17195,-16.33256 -65.92272,-30.91336 -110.25096,-43.74557 h 0.24777 c 5.83155,-29.17195 27.99554,-47.55032 66.49214,-55.13202 14.43902,-2.84313 29.16567,-4.04502 44.17756,-3.6069 z m -140.66511,88.48881 c 45.49735,8.16268 92.16291,23.90959 139.9986,47.24285 l 0.0112,0.0548 c -14.00142,72.33811 -31.79488,116.67366 -53.37793,133.00621 -21.58291,16.34692 -49.29118,25.09398 -83.12556,26.24166 -22.19286,1.16916 -31.81801,-3.20738 -28.87715,-13.12741 2.94087,-9.88418 0.89654,-18.34176 -6.13286,-25.37117 40.83492,1.16918 52.79248,-4.37127 35.87175,-16.62249 -16.88492,-12.26555 -28.84235,-15.49273 -35.87175,-9.68274 3.50038,-17.51608 -5.83165,-26.8481 -27.99578,-27.99577 25.6645,-41.99698 45.49838,-79.91167 59.4998,-113.74596 z m 23.78588,18.85022 c -10.06175,0.28691 -21.50905,2.1862 -34.34135,5.70089 v 17.49516 l -0.0329,0.0526 c 25.6645,-8.17705 46.95408,-8.75063 63.86763,-1.72124 16.92062,6.96483 39.37797,11.63085 67.3735,13.99789 l -8.71357,-10.54228 c -26.83361,-8.19137 -47.54201,-15.1934 -62.1244,-21.00339 -7.29118,-2.94087 -15.96726,-4.26657 -26.0289,-3.97966 z m 159.11409,13.37518 c 2.84364,0.54872 5.43121,1.77067 7.76416,3.6661 9.32472,7.5817 11.65477,18.95805 6.99233,34.12862 -4.66949,15.16339 -23.9162,43.74822 -57.7434,85.75238 10.49386,61.82991 34.4067,98.57467 71.74135,110.23772 l -1.72123,45.5019 c 0,16.33255 -16.91299,24.4985 -50.74018,24.4985 -33.83437,0 -50.75106,-8.16595 -50.75106,-24.4985 0,-45.49734 -12.25077,-80.49705 -36.75323,-104.99948 40.83503,-27.99559 67.08375,-81.65939 78.74683,-160.991 l -0.0218,-0.0548 c 13.12631,-10.47414 23.9555,-14.88758 32.48631,-13.24141 z m -160.21046,13.36639 c -15.16693,0 -25.66674,5.83293 -31.50176,17.49954 l -17.49517,8.71579 v 8.71359 l 15.75195,1.81992 c 20.99499,14.00138 52.49484,11.66918 94.49888,-6.99455 h 38.49636 V 495.29135 H 691.16544 C 666.66657,483.62474 646.8326,477.79181 631.66566,477.79181 Z m 17.50619,10.41947 31.49301,12.24376 c -11.66297,4.73409 -22.1611,8.24915 -31.49301,10.54446 v -0.0417 c 6.95766,-7.00071 6.95766,-14.5839 0,-22.74658 z m -26.30744,1.75413 c -3.44301,7.00067 -2.25796,14.58546 3.55203,22.75532 -8.19144,-2.36704 -15.19344,-4.69706 -21.00343,-6.99235 l -0.0525,-0.0112 c 1.16923,-5.8387 7.00291,-11.08966 17.50394,-15.75202 z m 45.55662,285.28143 c 32.66517,21.00208 64.74395,31.50402 96.23987,31.50402 31.50313,0 62.42179,-10.50194 92.75586,-31.50402 l 101.4932,17.49516 c -17.4945,44.33535 -54.5348,74.66905 -111.1212,91.0016 -56.57949,16.33256 -108.20263,16.33256 -154.8692,0 C 646.2531,867.41105 603.66642,837.07735 565.16254,792.742 Z m -89.18825,92.73818 c 59.49562,33.79626 104.99105,53.92152 136.48597,60.37683 31.50311,6.38383 63.00298,7.24529 94.4989,2.58294 31.50301,-4.6695 76.41761,-21.58632 134.74711,-50.7511 -4.6624,24.50244 -14.577,59.50215 -29.7476,104.99949 -14.0015,72.33082 -26.8333,167.99642 -38.4963,286.99382 l -188.99787,56.0004 C 665.55169,1201.02 639.30296,1087.2738 608.97615,986.9473 593.81057,957.78479 583.897,918.12885 579.23278,867.98502 Z m 299.64328,506.05738 v 146.037 c -24.3403,111.271 -85.19081,166.9089 -182.5513,166.9089 -232.96959,-46.3688 -402.77196,-37.0929 -509.40545,27.8183 -33.61593,3.4738 -43.46593,-8.6984 -29.55692,-36.5164 19.70343,-25.4993 60.27283,-52.7319 121.7031,-81.7135 369.7379,-148.3556 569.67487,-222.5343 599.81057,-222.5343 z" /></svg>
