<?xml version="1.0" encoding="UTF-8" standalone="no"?>
<svg
   width="1070.4092"
   height="1800"
   version="1.1"
   id="svg1"
   xmlns="http://www.w3.org/2000/svg"
   xmlns:svg="http://www.w3.org/2000/svg">
  <defs
     id="defs1" />
  <path
     id="path1"
     style="fill:#000000;stroke:none;stroke-width:100.147"
     d="M 734.66706,0.06387882 C 707.72938,1.0434573 693.76968,15.981566 692.79011,44.878332 c -0.97959,28.896834 9.7964,45.795601 32.32617,50.693359 L 695.72956,224.87247 c 16.65243,0 33.30466,4.40867 49.95704,13.22461 l 5.87695,8.81446 c -15.67286,-4.89777 -33.30539,-9.79561 -52.89649,-14.69336 -19.59104,-4.89777 -41.87486,-0.48916 -66.85351,13.22461 -24.97859,13.7137 -42.61118,17.87778 -52.89649,12.49023 -10.28531,-5.38754 -17.38651,-8.57126 -21.30468,-9.55078 -6.85692,-2.93866 -9.79599,-0.001 -8.81641,8.81445 8.816,25.46845 24.24329,38.69237 46.2832,39.67188 22.03999,0.97958 39.91717,-1.95761 53.63086,-8.81446 13.71378,-6.85691 30.36599,-8.08185 49.95703,-3.67382 15.79982,3.55494 25.57368,6.28742 34.36524,8.88671 -29.17155,11.10915 -48.5252,31.83865 -57.87305,62.375 -1.95916,10.77509 -6.61234,21.79573 -13.95898,33.06055 -7.34664,11.26489 -14.44784,24.24416 -21.30469,38.9375 0,8.81595 6.85661,14.20302 20.57031,16.16211 0.97958,2.93866 -0.49002,5.87773 -4.4082,8.81641 -2.93868,3.91825 -2.44944,7.34656 1.46875,10.28515 -1.9591,8.81601 -3.9e-4,13.71378 5.87695,14.69336 -1.95915,5.87728 -2.44833,12.97848 -1.46875,21.30469 0.97957,8.32621 11.75556,12.00106 32.32617,11.02149 h 30.85547 c 6.85685,0 9.79598,8.32607 8.81641,24.97851 -2.93868,7.83643 -7.34734,13.71268 -13.22461,17.63086 -59.75275,-3.91818 -94.52675,4.89909 -104.32227,26.44922 L 500.30769,767.05607 c -58.77325,17.63194 -124.40376,47.01891 -196.89063,88.16015 -10.77509,-9.79553 -26.44695,-16.65401 -47.01757,-20.57226 l 1.57887,-273.90013 v -1.46875 c 0,-88.1598 -13.95964,-148.15675 -41.87696,-179.99219 -27.91726,-31.8355 -71.75122,-47.7539 -131.503906,-47.7539 -17.632013,0 -34.775366,1.46953 -51.427734,4.4082 -9.795518,8.816 -9.795518,18.12245 0,27.91797 16.652368,0.97952 34.284959,1.95793 52.896484,2.9375 47.018566,1.95908 81.058736,14.93842 102.119146,38.9375 21.06033,23.99907 31.58984,75.1807 31.58984,153.54492 v 1.46875 l -1.57887,266.55443 h -42.61133 c -1.95916,12.73418 3.42988,21.54951 16.16407,26.44726 -1e-5,47.01857 8.81532,70.03811 26.44726,69.05859 v 565.69339 c -53.87541,-25.4684 -122.445061,-34.2856 -205.707034,-26.4492 -16.6524346,4.8976 -16.6524346,9.7954 0,14.6933 78.364218,6.8568 131.015384,18.8578 157.953124,36 26.93768,17.1422 41.87579,31.1 44.81446,41.875 0.97958,4.8978 1.95994,13.2238 2.93945,24.9786 1.29482,17.6952 -1.36009,49.2856 -2.93945,64.6503 0.97958,4.8977 1.95994,55.8347 2.93945,152.8106 h 38.20313 c 0,-96.9757 0.9784,-147.9127 2.9375,-152.8106 -2.03998,-15.0729 -2.73537,-43.8408 -2.9375,-64.6503 0.97951,-11.7547 1.95792,-20.0808 2.9375,-24.9786 2.93866,-10.775 17.87676,-24.4882 44.81445,-41.1406 26.93774,-16.6524 79.58891,-28.898 157.95312,-36.7344 16.65243,-4.8976 16.65243,-9.7954 0,-14.6933 -83.26198,-7.8364 -151.82966,0.9808 -205.70507,26.4492 V 922.80411 c 13.7137,-0.97963 34.2834,-11.75367 61.71093,-32.32421 85.22113,-16.65245 153.30153,-36.73292 204.23828,-60.24219 56.81409,-63.67094 92.07725,-106.28184 105.79102,-127.83203 18.61153,49.95723 39.18318,120.48551 61.71289,211.58398 -90.64887,251.64364 -177.39656,505.92614 -225.52539,769.89914 h 95.40648 c -16.65245,45.0594 -58.44554,71.5369 -121.13695,82.3118 -36.24341,4.8979 -53.87599,16.163 -52.89648,33.7949 h 202.76757 c 17.63195,-5.8772 21.54943,-25.9578 11.75391,-60.2421 4.89776,-23.5094 10.77596,-35.2942 17.63281,-55.8646 h 183.66602 c -12.73411,50.9367 -49.46688,72.5173 -110.19922,79.3743 -30.36614,5.8773 -47.01837,18.1211 -49.95703,36.7324 h 208.64453 c 16.65236,-13.7137 17.1416,-37.2226 1.46875,-70.5273 3.91818,-25.4684 1.47372,-23.0497 5.3919,-45.5794 h 15.17841 23.50977 v -60.3274 c 11.54475,-189.3101 19.03012,-670.53501 -5e-5,-741.89791 -0.97951,-24.48886 5.14321,-59.26285 18.36719,-104.32227 13.2239,-45.05947 23.75334,-84.7313 31.58984,-119.01562 12.73419,45.05941 35.75377,100.40311 69.05853,166.0332 -19.59106,38.20256 -30.36506,78.61011 -32.32415,121.2207 -1.9591,42.61052 -7.8373,80.0791 -17.63282,112.4043 -9.79559,6.8569 -13.87903,15.6168 -20.73587,23.4533 -10.41725,4.995 -28.87804,60.582 -18.14954,69.4711 3.31464,2.7463 13.01357,-38.4048 25.22123,-39.3357 17.1258,-1.3059 -20.05316,77.5373 -21.01746,91.0383 4.40797,3.4284 9.55046,4.162 15.42774,2.2031 0.97957,4.8979 4.40782,6.8583 10.28515,5.8789 1.95909,4.8973 5.87656,5.8758 11.75391,2.9375 2.93866,3.9184 7.8365,3.4292 14.69336,-1.4687 l 5.87695,-11.754 c 9.1271,-34.5659 29.1645,-87.8077 7.5,-120.3847 41.1414,-82.28247 66.1215,-165.0544 74.9375,-248.31644 -5.8774,-51.91633 -28.897,-124.40338 -69.0586,-217.46094 -2.93866,-42.12081 -49.46899,-65.14042 -139.58788,-69.05859 42.12081,-7.83643 61.46752,-40.40706 58.03906,-97.71094 -3.42845,-57.30381 -13.22414,-98.93442 -29.38672,-124.89258 -8.93632,-14.35227 -23.07515,-24.58896 -42.04297,-31.00586 8.08812,-2.25219 14.87405,-4.3183 27.34961,-7.19726 19.10125,-4.40803 35.75355,-2.93844 49.95703,4.4082 14.20355,7.3467 32.32525,10.28577 54.36524,8.81641 22.03993,-1.4693 36.97803,-14.93976 44.81443,-40.40821 0.9796,-8.81593 -1.9575,-11.75311 -8.8144,-8.81445 -3.9182,0.97952 -11.0214,4.16324 -21.30667,9.55078 -10.28531,5.38755 -27.91595,1.46811 -52.89454,-11.75586 -24.97865,-13.22397 -47.01984,-17.63068 -66.12109,-13.22266 -19.10131,4.40797 -37.46759,9.05927 -55.09961,13.95704 l 4.4082,-8.81446 c 17.63201,-8.81594 35.26455,-13.22461 52.89649,-13.22461 L 850.00886,95.571691 C 871.55899,90.673933 882.08849,73.775166 881.5987,44.878332 881.10891,15.981566 867.15123,1.0434573 839.7237,0.06387882 812.29623,-0.91569974 794.66365,9.3711068 786.82722,30.921301 778.99086,9.3711068 761.6048,-0.91569974 734.66706,0.06387882 Z m 9.55078,16.89843818 c 23.50922,0.489722 35.26368,26.201855 35.26368,77.138671 V 233.68888 C 748.13586,218.01602 727.07497,210.17911 716.29988,210.17911 L 745.6866,77.938879 c -24.48881,0 -36.73438,-10.284853 -36.73438,-30.855469 0,-20.570615 11.75633,-30.610883 35.26562,-30.121093 z m 85.95508,0 c 23.01957,-0.48979 34.5293,10.039715 34.5293,31.589843 0,19.591104 -12.24356,29.386719 -36.73242,29.386719 l 30.85547,132.240231 c -9.79559,0 -30.85643,7.83691 -63.18164,23.50977 V 94.100988 c 0,-50.936816 11.5098,-76.648949 34.52929,-77.138671 z M 683.4698,247.78458 c 5.23448,0.15306 10.2995,0.84197 15.19726,2.06641 19.5911,4.89775 35.50951,8.81523 47.75391,11.75391 10.70335,2.56881 22.40002,10.30223 34.97461,22.60156 -7.81356,0.38474 -15.22072,1.16561 -22.2207,2.34765 -4.16947,-2.38522 -8.39854,-4.45392 -12.75391,-5.84765 -12.2444,-3.91818 -28.16281,-8.3249 -47.75391,-13.22266 -19.59104,-4.89776 -41.87486,-2.20523 -66.85351,8.08008 -24.97859,10.28531 -45.7949,8.57119 -62.44727,-5.14258 16.65237,5.87734 37.46868,2.69362 62.44727,-9.55078 18.73398,-9.18335 35.95279,-13.54509 51.65625,-13.08594 z m 207.1289,0 c 15.42795,-0.45915 32.51015,3.90259 51.24414,13.08594 24.97859,12.2444 46.28404,15.42812 63.91596,9.55078 -16.65241,13.71377 -37.71321,15.67247 -63.18158,5.87696 -25.46837,-9.79559 -47.75422,-12.48812 -66.85547,-8.08008 -19.10131,4.40797 -35.01776,8.5701 -47.75195,12.48828 -3.60511,1.10927 -7.1105,2.61812 -10.5586,4.35547 -7.71972,-0.83922 -15.78416,-1.40525 -24.55859,-1.41016 12.4165,-11.9703 24.15306,-19.51669 35.11719,-22.04687 12.73419,-2.93868 28.65064,-6.85616 47.75195,-11.75391 4.77531,-1.22444 9.7343,-1.91335 14.87695,-2.06641 z m -98.07812,58.26758 c 11.87709,0.24488 24.67298,1.10294 38.38672,2.57227 27.42746,2.93867 46.52953,26.93661 57.30469,71.99609 9.79552,39.18213 9.79552,75.91686 0,110.20117 -9.79559,34.28439 -32.81513,41.63017 -69.0586,22.03907 -10.77503,-15.67279 -16.16211,-41.63153 -16.16211,-77.875 15.67286,-14.69335 23.99901,-27.91727 24.97852,-39.67188 1.95909,-17.63195 -8.32772,-27.42756 -30.85742,-29.38672 -8.81602,0.97958 -16.65098,3.91865 -23.50782,8.81641 0,-13.71377 -21.55201,-23.99862 -64.65234,-30.85547 13.7137,-22.5297 30.61253,-34.77333 50.69336,-36.73242 10.04045,-0.97958 20.99791,-1.3484 32.875,-1.10352 z m -89.07813,57.67188 c 12.48929,-1.46933 30.48877,3.67309 53.99805,15.42773 0.97959,13.71377 5.38819,20.57031 13.22461,20.57031 6.85685,1.95909 13.95804,-1.22456 21.30469,-9.55078 7.3467,-8.32621 12.98025,-7.5905 16.89844,2.20508 -0.97952,13.7137 -10.77514,27.91603 -29.38672,42.60938 -0.97952,28.40704 5.87703,59.75475 20.57031,94.03906 29.38655,30.36613 60.24306,48.97706 92.56836,55.83398 35.26396,2.93861 40.40639,43.5908 15.42773,121.95508 -24.97858,78.36428 -38.93828,129.29931 -41.87695,152.80859 l -155.74805,71.99805 c 12.73418,-21.55012 7.10064,-65.87514 -16.89843,-132.97461 -23.999,-67.09938 -38.69253,-119.9952 -44.08008,-158.6875 -5.38754,-38.69241 11.51122,-58.52829 50.69336,-59.50781 39.18214,-0.97957 58.77343,-9.30566 58.77343,-24.97852 0,-15.67285 -0.98036,-31.34673 -2.93945,-47.01953 -1.95916,-15.67285 -23.01999,-22.03828 -63.18164,-19.09961 -6.85686,0 -10.77433,-5.87813 -11.75391,-17.63281 11.75462,-1.95909 17.14163,-5.87657 16.16211,-11.75391 -13.71376,-2.93867 -21.05955,-7.34733 -22.03906,-13.22461 6.85685,-10.77509 4.40702,-17.14247 -7.34765,-19.10156 -9.79552,2.93861 -11.7543,-1.71459 -5.87696,-13.95898 5.87734,-12.2444 16.16219,-27.67168 30.85547,-46.28321 2.93865,-1.9591 6.48925,-3.18405 10.65234,-3.67382 z m 1.10352,15.06054 c -8.81597,-0.24487 -15.6745,4.28604 -20.57227,13.5918 11.75469,16.65236 29.38727,17.1416 52.89649,1.46875 -12.73419,-9.79552 -23.50825,-14.81567 -32.32422,-15.06055 z m 152.81055,529.32618 c 24.48887,27.42747 11.42598,497.49994 -7.18555,725.73584 H 520.4073 C 554.78241,1399.2417 643.154,1197.0348 704.54597,978.64005 Z" />
</svg>
