<?xml version="1.0" encoding="UTF-8" standalone="no"?>
<svg
   width="952.26898"
   height="1799.5084"
   version="1.1"
   id="svg1"
   xml:space="preserve"
   xmlns="http://www.w3.org/2000/svg"
   xmlns:svg="http://www.w3.org/2000/svg"><defs
     id="defs1" /><path
     id="path1"
     style="fill:#000000;stroke:none;stroke-width:82.9173"
     d="m 711.98395,0 c -47.06083,0 -70.59034,33.956215 -70.59034,101.8673 v 78.63322 h -33.95738 c -13.10531,0 -19.6575,9.23377 -19.6575,27.70037 0,18.46734 6.55219,27.70038 19.6575,27.70038 h 33.95738 v 75.51765 c -79.21758,9.35464 -124.02839,45.37444 -134.17145,108.2618 -7.14942,23.8312 -10.72492,53.62109 -10.72492,89.36784 -16.68181,32.17212 -25.02319,54.21652 -25.02319,66.13214 0,5.95776 8.34138,9.53172 25.02319,10.72329 l -7.14834,12.51079 c 2.38311,4.76625 5.95706,7.74591 10.7233,8.93742 -2.38315,5.95784 -2.97906,12.51138 -1.78748,19.66074 h 10.72491 c -8.34092,33.36365 4.17027,50.04638 37.53399,50.04638 h 33.95899 c 8.34093,32.17212 23.83179,66.72616 46.47141,103.66448 -1.19158,1.19158 -12.80972,16.08652 -34.85356,44.68392 -22.04384,28.59745 -43.78948,61.96123 -65.23757,100.09114 -21.44806,38.1299 -17.2782,76.25944 12.51077,114.38944 8.34093,120.3474 -9.53201,231.1638 -53.61972,332.4465 L 256.9935,1041.6758 C 235.54545,977.33155 198.60772,945.15959 146.17907,945.15959 V 514.41102 c 21.4481,-46.47084 42.30069,-76.26072 62.55716,-89.36784 13.10718,4.76625 22.63876,5.95814 28.59654,3.57498 5.95783,-2.38311 3.5757,-8.34075 -7.14833,-17.87326 -22.63962,-23.83114 -58.98307,-35.74648 -109.02856,-35.74648 -50.045515,0 -86.983235,11.91534 -110.814435,35.74648 -10.72402977,9.53251 -13.1077297,15.49015 -7.1499497,17.87326 5.95777,2.38316 14.8950697,1.19127 26.8106797,-3.57498 21.44809,13.10712 42.89497,42.897 64.34303,89.36784 v 430.74857 c -70.30204,0 -84.6010697,16.68272 -42.89644,50.04634 -1.19157,38.12997 8.34164,65.53447 28.59816,82.21627 l 1.78749,35.7482 c 117.964435,351.51 175.158785,539.7757 171.584115,564.7987 -3.57468,26.2142 -21.14884,48.5574 -52.72518,67.0267 -31.57634,18.469 -39.62054,36.6391 -24.13025,54.5126 h 711.36121 c 22.6398,-11.9155 22.6398,-28.5967 0,-50.0447 -63.1525,-75.0682 -83.7064,-147.4563 -61.6626,-217.1626 22.0439,-69.7062 41.4075,-236.8224 58.0892,-501.3486 h 67.9181 V 770.00051 c 0,-168.0099 -18.469,-286.86894 -55.4072,-356.57519 -34.7125,-65.5058 -99.27884,-99.82392 -192.91913,-103.77124 v -206.0009 c 0,-27.402505 5.95733,-41.104102 17.87163,-41.104102 11.91432,0 17.87163,13.701597 17.87163,41.104102 h 41.10409 C 781.98179,34.551033 759.0456,0 711.98395,0 Z m -22.45439,340.14487 c 92.94165,0.59574 153.71175,34.55548 182.30905,101.87863 28.5974,67.32309 42.8965,176.64891 42.8965,327.97701 V 995.20593 H 685.9562 V 585.90399 c 7.14941,-10.72402 17.27691,-26.80916 30.38404,-48.25726 13.10718,-21.44806 19.66073,-43.19537 19.66073,-65.23922 0,-22.04389 -14.29899,-33.06606 -42.89644,-33.06606 -19.06495,0 -30.38433,11.32093 -33.95899,33.96062 0,-23.8312 -10.42633,-38.72608 -31.27859,-44.68391 -20.85232,-5.95778 -50.93929,-8.93744 -90.26078,-8.93744 8.34093,-53.62018 58.98173,-80.13164 151.92339,-79.53585 z m -568.37368,58.08925 c 26.21429,0 48.85467,4.16991 67.91962,12.51078 -25.02277,22.63963 -47.66315,53.02376 -67.91962,91.15372 -20.25655,-38.12996 -42.896855,-68.51409 -67.919625,-91.15372 20.25652,-8.34087 42.89683,-12.51078 67.919625,-12.51078 z m 452.64487,49.82153 c 12.80927,0.44685 25.17029,2.60606 37.0859,6.47863 23.83114,7.74513 35.74809,23.53314 35.74809,47.36434 h 30.38403 c 0,-21.44812 5.36173,-32.17152 16.08576,-32.17152 10.72403,0 16.08576,5.95764 16.08576,17.87324 0,11.9156 -7.74381,27.10769 -23.23409,45.57685 -15.49023,18.46918 -28.00147,34.85308 -37.53397,49.15183 v 169.79824 h -5.36245 C 625.18639,725.91297 612.07924,693.741 603.73832,655.61109 h -48.2589 c -17.87337,0 -26.80906,-5.36334 -26.80906,-16.08736 0,-17.87344 8.33973,-28.00094 25.02158,-30.38403 0,-8.34093 -2.38208,-13.1067 -7.14832,-14.29827 h -33.96063 c 7.14936,-13.10713 0.59579,-22.64033 -19.66073,-28.59817 1.19157,-8.34086 10.12882,-28.00164 26.81067,-58.98219 0,-21.4481 4.76582,-39.91694 14.29828,-55.40721 13.70294,-2.9789 26.96028,-4.24505 39.76954,-3.79821 z m -6.70348,16.309 c -15.49027,0 -28.29864,4.17147 -38.42691,12.5124 v 16.08575 c 22.63963,-17.87337 53.61973,-19.06525 92.9412,-3.57497 h 14.29827 v -12.51078 h -14.29827 c -20.85229,-8.34093 -39.02401,-12.5124 -54.51429,-12.5124 z m 4.46792,21.44821 c -23.83121,0 -38.72449,8.93724 -44.6823,26.81067 l 1.78747,7.14832 h 10.7233 c 5.95778,3.57468 13.70321,5.36247 23.23571,5.36247 9.53245,0 29.19316,-5.9577 58.98219,-17.87325 h 14.29827 v -8.93743 l -14.29827,1.78749 c -25.02277,-9.5325 -41.7055,-14.29827 -50.04637,-14.29827 z m 1.78748,10.72492 c 10.72403,1.19158 20.25724,3.57365 28.59816,7.14832 -5.95777,3.57468 -16.08695,7.15024 -30.38564,10.72492 3.57461,-3.57468 5.36244,-6.55433 5.36244,-8.93743 0,-2.3831 -1.19186,-5.36108 -3.57496,-8.93581 z m -17.87325,1.78586 c -1.19152,1.19157 -1.78748,3.57527 -1.78748,7.14995 0,3.57466 2.38374,6.55433 7.14994,8.93743 -5.95777,1.19157 -13.7032,-2.9e-4 -23.23571,-3.57498 7.14936,-7.14934 13.107,-11.32083 17.87325,-12.5124 z m 92.94281,328.87157 v 203.75729 h 191.24488 c 0,72.6851 -6.2565,161.1584 -18.7678,265.4198 -12.5114,104.2615 -28.29936,192.1389 -47.36437,263.6323 -19.06495,71.4936 -6.55375,129.8814 37.53397,175.1608 H 283.80417 c 11.9156,-13.1071 19.95818,-34.8544 24.12864,-65.2393 4.17047,-30.3847 -9.23384,-82.5145 -40.2144,-156.3913 L 133.66667,1107.8079 c -7.14935,-20.2565 6.55371,-30.3857 41.10893,-30.3857 34.55524,0 56.59965,8.3415 66.13215,25.0233 l 225.20546,325.2966 c 35.74679,25.0228 59.57742,12.5115 71.49296,-37.534 42.89616,-98.8994 58.98292,-218.6515 48.2589,-359.2556 C 544.1605,986.86472 565.01309,918.94529 648.42223,827.19521 Z M 88.984355,982.69357 h 66.130515 c 21.44806,0 40.51285,19.66073 57.19472,58.98223 h -73.28047 c -33.36365,0 -50.044765,-19.6607 -50.044765,-58.98223 z" /></svg>
