<?xml version="1.0" encoding="UTF-8" standalone="no"?>
<svg
   width="1165"
   height="1800"
   id="svg2"
   sodipodi:version="0.32"
   inkscape:version="1.2.1 (9c6d41e410, 2022-07-14)"
   sodipodi:docname="US9C20VARA.svg"
   version="1.0"
   xmlns:inkscape="http://www.inkscape.org/namespaces/inkscape"
   xmlns:sodipodi="http://sodipodi.sourceforge.net/DTD/sodipodi-0.dtd"
   xmlns="http://www.w3.org/2000/svg"
   xmlns:svg="http://www.w3.org/2000/svg"
   xmlns:rdf="http://www.w3.org/1999/02/22-rdf-syntax-ns#"
   xmlns:cc="http://creativecommons.org/ns#"
   xmlns:dc="http://purl.org/dc/elements/1.1/">
  <metadata
     id="metadata9">
    <rdf:RDF>
      <cc:Work
         rdf:about="">
        <dc:format>image/svg+xml</dc:format>
        <dc:type
           rdf:resource="http://purl.org/dc/dcmitype/StillImage" />
        <dc:description>Signe de S.T. essai par S. R. : modification des mains, pour réduire les détails. Changement de la barbe.
 </dc:description>
      </cc:Work>
    </rdf:RDF>
  </metadata>
  <defs
     id="defs7" />
  <sodipodi:namedview
     inkscape:window-height="1137"
     inkscape:window-width="1920"
     inkscape:pageshadow="2"
     inkscape:pageopacity="0.0"
     guidetolerance="10.0"
     gridtolerance="10.0"
     objecttolerance="10.0"
     borderopacity="1.0"
     bordercolor="#666666"
     pagecolor="#ffffff"
     id="base"
     width="1800px"
     height="1800px"
     inkscape:zoom="0.31723122"
     inkscape:cx="521.70149"
     inkscape:cy="498.05943"
     inkscape:window-x="-8"
     inkscape:window-y="-8"
     inkscape:current-layer="svg2"
     inkscape:showpageshadow="2"
     inkscape:pagecheckerboard="0"
     inkscape:deskcolor="#d1d1d1"
     showgrid="false"
     inkscape:window-maximized="1" />
  <path
     id="path4"
     style="fill:#000000;stroke:none"
     d="M 160.40837,119.66403 C 92.833188,165.89817 4.7069687,287.63081 4.7069687,287.63081 l 47.2877153,21.95372 c 0,0 117.694046,-132.99125 167.785706,-164.39556 91.06497,-57.09199 195.95227,-102.081317 382.95751,-90.846548 323.84864,19.45595 498.0623,255.179008 501.171,538.687978 2.9297,267.19145 2.0751,1179.079 2.0751,1179.079 H 795.44494 v -77.6348 h -31.6875 c 12.67508,-17.9564 11.08994,-49.6455 -4.75391,-95.0644 V 1105.084 c -1.05624,-64.4315 4.22693,-102.9852 15.84571,-115.66017 21.12509,-62.31893 17.95483,-125.1658 -9.50782,-188.54102 30.63135,-176.39427 36.44219,-294.16619 17.42969,-353.3164 -5.05238,-13.96711 -13.78816,-31.78903 -23.76758,-34.85743 -13.73126,-25.35003 -18.48281,-47.53041 -14.25781,-66.54296 2.11254,-9.50625 6.8641,-16.90034 14.25781,-22.18164 47.53144,-21.12504 71.29883,-58.09358 71.29883,-110.90626 0,-52.81266 -34.06505,-81.85939 -102.19336,-87.14062 -68.12837,-5.28124 -111.43551,3.69603 -129.91992,26.93359 -18.48441,23.23757 -31.42263,46.47533 -38.81641,69.71289 -1.05623,10.56249 -2.64136,19.01207 -4.7539,25.34961 -2.11247,6.33754 -7.39368,15.31677 -15.84375,26.93555 -8.45001,11.61878 -12.14608,19.54063 -11.08985,23.76563 2.11253,5.28124 6.86599,7.92187 14.25977,7.92187 0,4.225 -2.64064,7.39332 -7.92188,9.50586 0,5.28123 1.58325,9.507 4.75196,12.67578 -4.225,8.45001 -2.63987,14.25896 4.7539,17.42774 l 3.16797,19.01171 c -4.31162,27.36957 -33.16444,83.30549 -37.48828,103.58789 l 35.08985,1.44532 32.50195,-93.94141 c 16.90002,-1.05624 29.04763,-2.64143 36.44141,-4.75391 1.05629,16.90003 5.28011,31.16052 12.67382,42.7793 -27.4625,90.83778 -47.53,170.05609 -60.20508,237.65625 h -58.62304 c -24.29381,-27.46257 -49.64445,-41.19336 -76.05078,-41.19336 -0.91584,-64.86787 -4.32235,-111.85677 -4.32235,-172.61808 1.05624,-15.84379 -5.20346,-35.22757 -10.4847,-41.56512 7.39377,-11.61877 18.22107,-27.46246 32.48047,-47.53124 14.2594,-20.0688 17.16485,-37.49761 8.71484,-52.28516 -26.40633,36.96882 -53.71391,58.92574 -65.33269,70.01643 -11.61878,11.09064 -19.2758,23.76599 -22.97266,38.02539 -3.69692,14.25946 -23.55969,51.49089 -60.62629,113.77068 25.35009,-3.16877 52.28392,-30.63035 80.80273,-82.38672 5.28131,-7.39378 8.97738,-12.14724 11.08985,-14.25977 2.11253,-2.11247 3.16992,1.58361 3.16992,11.08985 1.16802,58.81612 -3.96861,117.48476 -7.37459,176.15976 h -41.19336 c -8.45007,4.225 -12.1481,8.97657 -11.0918,14.25781 3.16871,5.28124 8.44998,8.97927 15.84375,11.0918 -5.28124,4.225 -5.28124,7.92106 0,11.08984 -6.33748,6.33753 -5.80784,12.14649 1.58594,17.42774 -5.28131,6.33753 -5.28131,12.14844 0,17.42968 -4.22501,8.45001 -2.64183,16.37185 4.75195,23.76563 9.50624,6.33753 19.54097,10.0336 30.10352,11.08984 v 7.92188 c -12.67508,1.0563 -25.87812,1.0563 -39.60938,0 -7.39378,4.22507 -10.03435,8.97853 -7.92187,14.25976 2.11253,5.28125 6.33825,10.03476 12.67578,14.25977 -4.22501,5.28124 -5.28239,10.56243 -3.16992,15.84375 2.11254,5.28123 2.37734,10.03477 0.79297,14.25976 -1.58439,4.22508 -0.52889,7.65625 3.16797,10.29688 3.69691,2.64062 4.48949,5.81094 2.37695,9.50781 -2.11247,3.69691 -1.31991,7.13005 2.37695,10.29883 3.69686,3.16877 5.54492,7.65747 5.54492,13.4668 0,5.80945 7.92178,10.29809 23.76563,13.46679 v 1.58399 692.37501 c -21.12509,5.2814 -32.21525,20.5973 -33.27149,45.9473 -1.05624,7.3937 2.11215,15.3155 9.50586,23.7656 7.39379,8.4501 5.01796,18.7476 -7.1289,30.8945 -12.14693,12.1469 -7.92312,13.732 12.67382,4.7539 20.59694,-8.9782 24.03014,-28.7827 10.29883,-59.414 1.05629,-14.7875 9.50582,-22.1817 25.34961,-22.1817 14.78756,0 22.70939,7.3942 23.76563,22.1817 -10.56255,30.6313 -7.39417,50.171 9.50586,58.621 16.90008,8.45 21.39062,6.867 13.46875,-4.7519 -7.92193,-11.6187 -9.24219,-21.6534 -3.96094,-30.1035 5.2813,-8.4501 7.39224,-16.3719 6.33594,-23.7656 0,-25.35 -10.56246,-40.6659 -31.6875,-45.9473 V 840.49219 l 114.07617,-14.25977 c 3.16878,34.85629 9.7703,94.27209 19.80469,178.24418 10.0344,83.9722 23.50232,182.9949 40.40234,297.0703 16.90002,114.0753 23.23671,191.1827 19.01172,231.3203 -17.95633,48.5876 -73.93686,91.8948 -167.94336,129.9199 -40.13759,0 -61.79216,10.5624 -64.96094,31.6875 h -64.95898 l -49.11524,77.6348 H 66.630494 l -2.70385,28.5176 1093.957456,1.6964 -1.2009,-30.214 c 0,0 0.7806,-1087.38094 1.8295,-1177.24952 C 1159.5615,504.99129 1112.2895,14.818465 595.49785,4.8491922 338.52502,-0.10799247 271.19002,43.868532 160.40837,119.66403 Z m 514.62446,26.86917 c 36.96888,0 67.86366,3.69809 92.68555,11.0918 24.82195,7.39377 37.23242,26.93346 37.23242,58.62109 0,31.68757 -10.82534,55.19023 -32.47852,70.50586 -21.65311,15.31571 -38.28936,27.19843 -49.9082,35.64844 -17.95633,-11.61878 -30.10392,-27.9921 -36.44141,-49.11719 4.22501,-7.39371 6.33789,-15.31555 6.33789,-23.76562 0,-13.73126 -8.44958,-21.12345 -25.3496,-22.17969 -12.67508,0 -21.12657,6.86444 -25.35157,20.5957 -2.11246,-12.67502 -8.714,-20.85973 -19.80468,-24.55664 -11.09064,-3.69686 -21.38823,-7.13005 -30.89454,-10.29883 20.06886,-44.36258 48.06008,-66.54492 83.97266,-66.54492 z m -104.57031,87.14063 c 9.5063,0 21.65392,1.58519 36.4414,4.7539 19.01257,3.16877 29.04728,11.6183 30.10352,25.34961 7.39377,0 11.08984,2.64064 11.08984,7.92188 -10.56255,6.33754 -15.84375,13.73163 -15.84375,22.18164 0,8.45002 4.75346,12.67578 14.25977,12.67578 5.2813,0 13.20307,-5.2812 23.76562,-15.84375 7.39372,21.12509 23.7652,40.1371 49.11524,57.03711 -1.05624,17.95633 2.64172,35.38507 11.0918,52.28516 -8.45008,8.44995 -22.44569,12.67382 -41.98633,12.67382 -19.54071,0 -33.00856,-3.16837 -40.40235,-9.50586 -15.41912,-16.60524 -9.22085,-40.13415 -24.94726,-49.92187 -9.50631,0 -30.50537,8.20003 -55.85547,10.3125 -6.33748,-1.05624 -9.77068,-3.43199 -10.29883,-7.12891 -0.52815,-3.69685 -1.32071,-7.6578 -2.37695,-11.88281 12.67502,-5.2813 21.65424,-11.0922 26.93555,-17.42969 -10.56255,-6.33753 -19.01403,-11.09099 -25.35157,-14.25976 v -6.33594 c 10.56255,-2.11248 15.84571,-4.7531 15.84571,-7.92187 -2.11247,-5.28131 -5.28275,-7.92188 -9.50782,-7.92188 -3.1687,1.0563 -4.2242,2.63949 -3.16797,4.75195 2.11247,2.11254 -0.26523,3.16993 -7.13085,3.16993 -6.86563,0 -10.29688,-0.52775 -10.29688,-1.58399 0,-2.11254 0.52775,-4.22535 1.58398,-6.33789 14.78756,-22.18127 23.76482,-41.19527 26.9336,-57.03906 z m 96.64844,1.58594 c 11.61877,0 17.42773,4.2238 17.42773,12.67382 0,7.39378 -1.58508,13.73244 -4.75391,19.01368 -3.1687,5.28131 -8.44997,11.61794 -15.84375,19.01171 -7.39378,7.39379 -12.41016,11.35473 -15.05078,11.88282 -2.64062,0.52815 -4.75351,-0.26442 -6.33789,-2.37696 -1.58438,-2.11246 -1.3195,-4.7531 0.79297,-7.92187 l 11.08984,-12.67383 12.67579,-7.92187 c 1.05623,-2.11247 -0.26403,-5.01793 -3.96094,-8.71485 -3.69686,-3.69686 -3.96174,-7.13006 -0.79297,-10.29883 3.16878,-3.16877 6.33715,-3.16877 9.50586,0 3.16883,3.16877 3.69846,7.12966 1.58594,11.88282 -2.11247,4.75308 -7.39564,12.41206 -15.84571,22.97461 h 1.58594 c 10.56255,-9.50625 16.63633,-16.10778 18.2207,-19.80469 1.58433,-3.69687 2.375,-8.7152 2.375,-15.05274 0,-4.225 -4.22387,-6.33789 -12.67382,-6.33789 -5.28131,0 -8.45158,1.0574 -9.50782,3.16992 -1.05629,2.11248 -1.58398,4.7531 -1.58398,7.92188 0,4.225 2.11282,8.44882 6.33789,12.67383 l -9.50586,6.33789 c -3.16877,-8.45001 -3.96139,-16.63477 -2.37695,-24.55664 1.58433,-7.92192 7.13041,-11.88281 16.63672,-11.88281 z m -84.26954,4.35546 c -3.7629,0 -7.36014,0.66016 -10.79296,1.98047 -3.16877,4.22501 -3.16877,7.39528 0,9.50782 10.56255,-6.33754 26.9339,-2.11373 49.11523,12.67382 h 11.08984 v -6.33789 h -11.08984 c -14.25941,-11.88284 -27.03354,-17.8242 -38.32227,-17.82422 z m 2.67383,13.86329 c -5.80939,-0.52809 -9.24259,0.26448 -10.29883,2.37695 -1.05629,2.11253 -1.58398,4.75311 -1.58398,7.92187 0,6.33749 3.16832,9.50586 9.50586,9.50586 7.39377,0 17.4285,-2.11093 30.10352,-6.33593 -12.67502,-8.45002 -21.91717,-12.9406 -27.72657,-13.46875 z m 62.58203,34.06445 c -2.11246,0 -3.16796,1.05745 -3.16796,3.16992 0,2.11254 1.0555,3.16797 3.16796,3.16797 3.16878,0 4.75391,-1.05543 4.75391,-3.16797 0,-2.11247 -1.58513,-3.16992 -4.75391,-3.16992 z m -102.98437,31.6875 22.18164,4.75391 h -14.25977 c -5.28123,-10e-6 -7.92187,-1.58514 -7.92187,-4.75391 z m 26.93555,9.50781 c 0,1.05624 -7.39415,3.16717 -22.18164,6.33594 -2.11253,1.05624 -2.64218,1.05624 -1.58594,0 -1.05624,-3.16877 0.52891,-4.75195 4.7539,-4.75195 l 6.33789,1.58398 z m 160.02148,104.56836 c 32.74381,68.65645 29.04775,191.1819 -11.08984,367.57617 34.85634,68.65646 37.49698,126.22216 7.92187,172.69727 -12.67502,76.05012 -17.42854,192.76672 -14.25976,350.14842 -1.05624,178.5067 -1.05624,271.4577 0,278.8516 15.84378,46.475 14.25864,71.296 -4.75391,74.4648 H 530.85314 c 52.81268,-23.2375 95.59212,-55.9802 128.33594,-98.2304 10.56255,-43.3063 8.97735,-107.7385 -4.75391,-193.295 -13.73131,-85.5565 -32.21555,-216.0038 -55.45312,-391.34177 -23.23757,-175.33797 -5.281,-360.71036 53.86914,-556.11718 20.0688,8.45001 46.47487,6.86487 79.21875,-4.75391 z m -201.2168,282.01953 h 25.34961 l -6.33593,47.53125 h -44.36329 c -29.57511,-26.40633 -54.39799,-39.60937 -74.46679,-39.60937 v -6.33789 c 29.57511,4.225 62.84759,3.69726 99.8164,-1.58399 z M 348.65002,1721.4082 h 415.10742 v 50.7012 H 318.5465 Z"
     sodipodi:nodetypes="sccsssccccccccccscssscssccccccccccccccccscssccsccccccccccccscssssssccccssscscsssccccssccccccccczssssssccsccscsccccsscccscccscccccccssccsssssscccssssccsssssccsssccccccssssscssssssccscccccccccccccccsscccccccccccccc" />
</svg>
