<?xml version="1.0" encoding="UTF-8" standalone="no"?>
<svg
   width="13"
   height="18"
   version="1.1"
   id="svg534"
   sodipodi:docname="US9C155VARA.svg"
   inkscape:version="1.2.1 (9c6d41e410, 2022-07-14)"
   xmlns:inkscape="http://www.inkscape.org/namespaces/inkscape"
   xmlns:sodipodi="http://sodipodi.sourceforge.net/DTD/sodipodi-0.dtd"
   xmlns="http://www.w3.org/2000/svg"
   xmlns:svg="http://www.w3.org/2000/svg">
  <defs
     id="defs538" />
  <sodipodi:namedview
     id="namedview536"
     pagecolor="#ffffff"
     bordercolor="#000000"
     borderopacity="0.25"
     inkscape:showpageshadow="2"
     inkscape:pageopacity="0.0"
     inkscape:pagecheckerboard="0"
     inkscape:deskcolor="#d1d1d1"
     showgrid="false"
     inkscape:zoom="20.862618"
     inkscape:cx="11.887291"
     inkscape:cy="3.0676879"
     inkscape:window-width="1920"
     inkscape:window-height="1017"
     inkscape:window-x="1072"
     inkscape:window-y="-8"
     inkscape:window-maximized="1"
     inkscape:current-layer="svg534" />
  <path
     id="path532"
     style="fill:#000000;stroke:none;stroke-width:0.987904"
     d="m 11.252531,0.01130979 -0.302735,0.003812 -0.0098,0.52494795 -0.30664,0.003812 c 0,0 0.01521,0.51674866 -0.02148,0.52113556 -0.13776,0.01647 -0.416046,0.1886609 -0.50974,0.2935491 -0.1873881,0.2097764 -0.2448105,0.2662532 -0.2448105,0.5567132 0,0.1398509 -0.033595,0.1839425 0.010496,0.2915206 C 9.6914602,1.5183031 9.4948798,1.0580325 9.2799347,0.82673999 9.0649896,0.59544814 8.897279,0.46443818 8.7760284,0.4321647 8.8201191,0.53974274 8.9205367,0.70117411 9.0748566,0.91632954 9.2291764,1.131485 9.3499559,1.4303241 9.4381378,1.8122251 9.5263208,2.1941261 9.6382433,2.4494085 9.7760284,2.5785018 9.9138136,2.707595 10.043449,2.7992002 10.1647,2.8529889 h -0.164062 c -0.066137,0.043031 -0.066137,0.086588 0,0.1296189 h 0.06445 l 0.05469,0.224927 C 10.02638,3.2344862 9.9398386,3.2664136 9.8678253,3.304749 9.7686201,3.4015695 9.699374,3.510801 9.6607941,3.6345148 9.6222141,3.7582293 9.597598,3.847588 9.5865753,3.9013773 9.5094154,4.0519857 9.471341,4.219815 9.471341,4.4026976 9.2508842,4.6608841 9.157022,4.8114269 9.190091,4.8544577 c 0.044091,0.043032 0.088721,0.073793 0.1328124,0.095308 l -0.017578,0.04956 c -0.066137,0.032274 -0.066137,0.073924 0,0.1277128 -0.044092,0.09682 -0.021777,0.1512657 0.066406,0.1620237 0,0.2474295 0.10502,0.3717014 0.3144531,0.3717014 h 0.3632815 c 0.04409,0.1075773 0.111036,0.2209608 0.199219,0.3392964 -0.5401193,0 -0.942484,0.1921932 -1.2070318,0.5794729 C 8.7550604,6.8269621 8.3303801,7.1671123 7.768216,7.5974231 7.3934396,7.6081808 6.754119,7.6607209 5.8502472,7.7575406 5.6187681,7.4885965 5.3975716,7.2900055 5.1881378,7.1609122 5.0227953,7.07485 4.9423922,7.0662064 4.9479034,7.1361322 c 0.00404,0.051283 0.022012,0.091031 0.052734,0.1162757 L 2.6939972,6.8311464 c 0.068576,-0.3751107 0.2353231,-0.738808 0.5,-1.0903239 C 2.9329155,5.6153342 2.6632133,5.5748743 2.3834503,5.6188282 2.3785783,6.008659 2.333505,6.3785773 2.2486847,6.7282138 1.5027987,6.0128683 0.89682732,5.7814319 0.43227842,6.032465 c -0.46455,0.251033 -0.5551382,0.5775664 -0.2714843,0.9797667 0.2836525,0.4022001 0.95024148,0.4300959 1.99804688,0.085778 -0.08981,0.3702042 -0.2308817,0.7175668 -0.421875,1.04267 0.2348582,0.141147 0.5036901,0.1934464 0.8046875,0.154399 -0.073801,-0.3428502 -0.047888,-0.7281363 0.078125,-1.1551334 0.115632,0.031555 2.0869194,0.54455 2.1015625,0.5832852 0.00845,0.066828 0.032057,0.1433997 0.070312,0.2287393 0.2645482,0.107577 0.5842085,0.1882934 0.9589848,0.242082 0.5952321,0.075304 1.3888044,0.097082 2.3808594,0.064809 0.672392,-0.4625849 1.1686189,-0.9251006 1.4882812,-1.387685 L 9.2564972,7.4525549 C 9.3226342,7.6892262 9.4322555,7.8705298 9.5865753,7.999623 V 8.533348 C 9.4763474,8.5763791 9.2594052,8.6856107 8.9342316,8.8631139 8.6090579,9.040617 8.2647814,9.1844219 7.9010284,9.292 7.4931842,9.0122977 7.1558113,8.8771363 6.8912628,8.8878939 6.7259203,8.8771363 6.7101601,8.9469625 6.8424347,9.0975716 6.7211835,9.0652976 6.4953853,9.1613944 6.1647003,9.387308 6.1316313,9.1613944 6.1585503,8.9736923 6.2467313,8.8230844 c -0.1432972,-0.043032 -0.2752332,-0.043032 -0.3964844,0 0.07716,0.1506079 0.099475,0.3555967 0.066406,0.6137838 L 5.0221222,9.3549033 V 9.6942 L 5.9166534,9.596986 c 0.033069,0.2366706 0.010754,0.437168 -0.066406,0.598534 0.1212512,0.04303 0.2466324,0.04303 0.3789062,0 -0.07716,-0.172124 -0.097522,-0.3662226 -0.064453,-0.5813786 0.4409129,0.3012182 0.7428606,0.3646473 0.9082031,0.1925223 0.2535251,-10e-8 0.5239532,-0.041651 0.8105469,-0.1277128 C 8.54482,9.6036461 9.1237512,9.474882 9.6197787,9.292 c 0.011023,0.021515 0.00447,0.3706486 -0.017578,1.048389 -0.7495519,0.139851 -1.9008597,0.434538 -3.4550781,0.886364 -0.5290955,0.215156 -0.7706538,0.673181 -0.7265625,1.372436 -0.1212512,0.957443 -0.2039556,2.109242 -0.2480469,3.453963 -0.011023,0.311976 -0.089125,0.580393 -0.2324218,0.806306 -0.1432966,0.225913 -0.6441259,0.430902 -1.5039063,0.613785 -0.3306843,0.107576 -0.4914914,0.2735 -0.4804687,0.499413 h 2.7792964 c 0.3196624,-0.03228 0.4942748,-0.123878 0.5273438,-0.274487 0.033069,-0.150608 0.00845,-0.309794 -0.074219,-0.47654 -0.082671,-0.166746 -0.069212,-0.555282 0.041016,-1.168477 h 0.4140626 v 1.919504 h 5.6542968 v -7.729482 c 0,-0.08606 0.04463,-0.129619 0.132813,-0.129619 0.08818,0 0.132812,0.04356 0.132812,0.129619 v 1.340031 h 0.347656 v -1.46965 c 0,-0.2259127 -0.154252,-0.3373901 -0.462891,-0.3373901 -0.330684,-10e-8 -0.496093,0.1114774 -0.496093,0.3373901 v 0.129619 h -0.199219 c 0.05511,-0.7207713 0.09974,-1.4734832 0.132812,-2.2588003 h 0.5625 V 6.9035806 C 12.5912,6.7637297 12.647335,6.5891629 12.619778,6.3793863 12.592222,6.1696097 12.536086,6.0629636 12.447903,6.0629636 c 0,-1.1618399 -0.187723,-2.0868728 -0.5625,-2.7753701 -0.04211,-0.041097 -0.115812,-0.07039 -0.203125,-0.097214 l 0.03711,-0.2077716 h 0.08203 c 0.05511,-0.043031 0.05511,-0.086588 0,-0.1296189 H 11.637357 C 11.758607,2.7992 11.888243,2.707595 12.026028,2.5785018 12.163814,2.4494085 12.275737,2.1941261 12.363919,1.8122251 12.452099,1.4303241 12.572881,1.131485 12.7272,0.91632954 12.88152,0.70117411 12.981937,0.53974274 13.026028,0.4321647 12.904777,0.4644382 12.739369,0.59544814 12.529935,0.82673999 12.339696,1.0368343 12.185956,1.5354633 12.023002,2.1227965 c 0.01102,-0.061857 -0.07383,-0.4311584 -0.07383,-0.4311584 0,0 -0.08785,-0.1456586 -0.202499,-0.3330713 -0.07436,-0.1215539 -0.344506,-0.2550644 -0.48828,-0.2859241 z M 10.928312,1.2689772 c 0.264548,0 0.474586,0.080716 0.628906,0.2420824 0.154319,0.1613667 0.155087,0.2506082 0.155087,0.4765214 0,0.2366706 -0.02676,0.2675303 -0.192136,0.4288971 -0.165342,0.1613671 -0.368826,0.2420824 -0.611328,0.2420824 -0.253525,0 -0.461611,-0.080716 -0.626953,-0.2420824 -0.165342,-0.1613668 -0.15859,-0.259319 -0.15859,-0.4959896 0,-0.2259131 0.0062,-0.2480622 0.160483,-0.4094289 0.15432,-0.1613668 0.368961,-0.2420824 0.644531,-0.2420824 z m -0.71283,1.7136306 H 11.57095 L 11.5397,3.1522562 c -0.151471,-0.027038 -0.342975,-0.041936 -0.580078,-0.041936 -0.277559,0 -0.510846,0.024437 -0.708984,0.066715 z m 0.701171,0.4021999 c 0.162587,0 0.327996,0.01089 0.496094,0.032405 0.336197,0.04303 0.570851,0.6932485 0.703125,1.9519083 V 7.6774818 H 11.207669 V 4.5799706 c 0,-0.3012176 -0.111574,-0.4517601 -0.332031,-0.4517601 -0.220456,0 -0.330078,-0.049955 -0.330078,-0.1467744 0,-0.096819 -0.214641,-0.1820272 -0.6445316,-0.2573317 0.044091,-0.1613668 0.2229586,-0.2638612 0.5371096,-0.3068919 0.157075,-0.021515 0.315929,-0.032405 0.478515,-0.032405 z M 9.9381378,3.9471252 c 0.3713312,0.01765 0.5585942,0.1967614 0.5585942,0.5356311 h 0.08203 c 0.05511,-0.161367 0.131263,-0.2420823 0.230468,-0.2420823 0.110228,-1e-7 0.130242,0.1156293 0.05859,0.3469212 -0.07165,0.2312925 -0.145496,0.3469212 -0.222656,0.3469212 -0.04409,1e-7 -0.06641,-0.032667 -0.06641,-0.097214 V 4.7248388 h -0.08203 v 0.1124635 c 0,0.1183353 0.04923,0.1772729 0.148438,0.1772729 0.110228,0 0.192933,-0.091605 0.248047,-0.2744871 v 1.1303533 c -0.08818,0.086063 -0.226676,0.1014437 -0.414064,0.047654 C 10.357902,5.7997604 10.281754,5.6447262 10.248685,5.451086 H 9.7857941 C 9.6204512,5.4833596 9.5423492,5.4180244 9.5533722,5.2566577 l 0.2480469,-0.129619 c 0,-0.021516 -0.093862,-0.069565 -0.28125,-0.1448682 L 9.4049347,5.0145752 9.471341,4.917361 9.4049347,4.8849563 c -0.044091,-0.021516 -0.068709,-0.047786 -0.074219,-0.080059 -0.00551,-0.032274 0.068337,-0.1456571 0.2226562,-0.3392967 0.044092,-0.064547 0.071009,-0.1212384 0.082031,-0.1696483 0.011023,-0.04841 0.062208,-0.09006 0.1503907,-0.1277128 0.088183,-0.037652 0.1889476,-0.037652 0.3046884,0 0.115739,0.037652 0.22306,0.061676 0.322265,0.072434 v -0.06481 C 10.280473,4.1435906 10.155092,4.1064318 10.033841,4.063401 9.9125898,4.0203703 9.7852554,4.0357504 9.6529816,4.111055 9.6750266,4.046508 9.7131006,3.9920621 9.768216,3.9490313 c 0.060626,-0.00403 0.1168745,-0.00443 0.1699218,-0.0019 z m 0.041016,0.2649564 c -0.021357,-0.00168 -0.04321,-2.22e-4 -0.0625,0.00382 -0.07716,0.016136 -0.1286933,0.042406 -0.15625,0.080059 -0.027557,0.037652 -0.063331,0.068075 -0.1074218,0.08959 v 0.032405 c 0.055114,0.010758 0.099744,0.023892 0.1328125,0.04003 0.033069,0.016136 0.086903,0.018382 0.1640625,0.00762 0.077159,-0.010758 0.159864,-0.047917 0.248047,-0.1124635 h 0.214843 v -0.047659 h -0.214844 c -0.08267,-0.056478 -0.154679,-0.088359 -0.2187492,-0.093401 z m -0.541016,0.592816 c 0,0.064547 0.049232,0.097214 0.1484375,0.097214 0.055114,-0.064547 0.00588,-0.097214 -0.1484375,-0.097214 z M 10.893216,6.1449285 V 7.322936 c -0.176365,0.3012175 -0.364089,0.6176838 -0.5625,0.9511741 -0.187388,0.05379 -0.330483,0.092855 -0.4296876,0.1143698 V 7.904315 C 9.7026176,7.7644635 9.6022003,7.6229043 9.6022003,7.4830535 9.888794,7.0635002 10.016128,6.738391 9.9830597,6.5070991 9.949991,6.2758067 10.253892,6.1556862 10.893216,6.1449285 Z M 0.81313782,6.2936091 C 1.0610042,6.2858091 1.4393571,6.471802 1.9479035,6.8540204 1.1460932,7.0162644 0.67496162,7.000418 0.53188782,6.8044604 c -0.1430678,-0.195957 -0.1001672,-0.3542583 0.1308594,-0.474634 0.043318,-0.022571 0.093191,-0.034417 0.1503906,-0.036217 z m 10.65820318,1.6736092 0.09961,0.017155 c -0.03307,0.7960754 -0.06884,1.3873559 -0.107422,1.7746357 -0.03858,0.38728 -0.03398,0.873821 0.01563,1.460119 0.0496,0.5863 -0.245441,0.880647 -0.884765,0.880647 H 7.1236847 c -0.3196624,0 -0.4804687,0.165924 -0.4804687,0.499414 V 15.74626 H 5.486966 C 5.509011,14.982459 5.596318,13.933155 5.7506378,12.599189 5.6955238,12.018269 5.9278775,11.658247 6.4459503,11.518396 7.8127803,11.1096 8.9686904,10.823896 9.9166534,10.66253 9.9386994,9.7911497 9.9498566,9.2914751 9.9498566,9.1623811 10.181336,9.0870766 10.45832,8.9519146 10.777982,8.758275 11.009461,8.5538779 11.239862,8.2899517 11.471341,7.9672183 Z M 6.8209503,9.2748446 c 0.017568,-0.00202 0.021364,0.00371 0.011719,0.017155 -0.038579,0.053789 -0.040881,0.099591 -0.00781,0.1372436 0.033069,0.037652 0.041925,0.074811 0.025391,0.1124635 -0.016535,0.037652 -7.751e-4,0.0857 0.048828,0.1448682 0.0496,0.059167 -0.1515824,-0.00202 -0.6035186,-0.1848974 0.2976162,-0.1452297 0.4726878,-0.220782 0.5253906,-0.2268329 z m 4.9160157,1.2904704 h 0.197266 v 4.212616 H 10.082669 V 17.63336 H 6.9908722 v -5.034171 c 0,-0.107581 0.04463,-0.162024 0.1328125,-0.162024 h 3.4550783 c 1.025123,0 1.411728,-0.623948 1.158203,-1.87185 z m -1.306641,4.551912 1.503907,0.01525 v 2.500883 h -1.503907 z m -4.943359,0.935925 h 0.4453124 c -0.088183,0.645468 -0.092784,1.086204 -0.015625,1.322876 0.07716,0.23667 -0.045573,0.350051 -0.3652343,0.339296 l -1.8007813,0.01525 c -0.308639,0.01076 -0.254805,-0.03729 0.1640625,-0.144868 C 4.520955,17.46737 4.9321771,17.28416 5.1471222,17.036731 5.3620673,16.789302 5.4759427,16.461948 5.486966,16.053152 Z"
     sodipodi:nodetypes="ccccssscscsssccccccscccccccsccccccscccccssccccccccccccsccccccccccccccccccccscccssccccsssccssscccccscccccccssscsccsccssssssssscccsccsscccssscsssccssssccssccccccccccsscsssccsccsscsccssccccsccccsccccscsccsscssssssccccccccscssscsccccccsssccccccccscccscc" />
  <g
     id="g564"
     transform="matrix(1.9264263,0.45610539,-0.452646,1.911815,8.2131816,-9.3498344)" />
</svg>
