<?xml version="1.0" encoding="UTF-8" standalone="no"?>
<svg
   width="875.90198"
   height="1797.2733"
   version="1.1"
   id="svg142"
   sodipodi:docname="US9C119BVARA.svg"
   inkscape:version="1.2.1 (9c6d41e410, 2022-07-14)"
   xmlns:inkscape="http://www.inkscape.org/namespaces/inkscape"
   xmlns:sodipodi="http://sodipodi.sourceforge.net/DTD/sodipodi-0.dtd"
   xmlns="http://www.w3.org/2000/svg"
   xmlns:svg="http://www.w3.org/2000/svg">
  <defs
     id="defs146" />
  <sodipodi:namedview
     id="namedview144"
     pagecolor="#ffffff"
     bordercolor="#000000"
     borderopacity="0.25"
     inkscape:showpageshadow="2"
     inkscape:pageopacity="0.0"
     inkscape:pagecheckerboard="0"
     inkscape:deskcolor="#d1d1d1"
     showgrid="false"
     inkscape:zoom="0.45290156"
     inkscape:cx="438.28509"
     inkscape:cy="896.44204"
     inkscape:window-width="1920"
     inkscape:window-height="1017"
     inkscape:window-x="1072"
     inkscape:window-y="-8"
     inkscape:window-maximized="1"
     inkscape:current-layer="svg142" />
  <path
     style="fill:#000000;stroke:none;stroke-width:100"
     d="m 796.19187,1077.9845 h 39.855 V 859.7306 c 1.26527,-207.49933 -19.9275,-329.9113 -63.5783,-367.2359 -43.65073,-37.3246 -93.6277,-59.15 -149.9309,-65.4762 -56.3032,-6.3262 -93.9441,11.38717 -112.9227,53.1401 45.54867,7.5914 84.1385,23.4069 115.7695,47.4465 30.36573,-12.6524 55.0379,-10.12193 74.0165,7.5914 18.9786,17.7134 23.40693,40.80403 13.285,69.2719 -10.12187,28.46793 -27.8352,56.61953 -53.14,84.4548 -25.3048,27.83527 -37.9572,87.93417 -37.9572,180.2967 v 94.893 h 30.3657 v -92.9951 c 0,-49.3444 24.03957,-73.7003 72.1187,-73.0677 48.07913,0.63267 72.1187,24.35593 72.1187,71.1698 z M 475.45347,567.4602 c 11.3872,-31.631 43.65083,-30.36577 96.7909,3.7957 -59.46627,27.83527 -91.7299,26.57003 -96.7909,-3.7957 z m -36.0593,104.3822 c 13.91767,-5.06093 30.04947,-2.21413 48.3954,8.5404 18.346,10.75453 2.84683,16.1318 -46.4975,16.1318 10.12187,8.85673 13.28497,18.97867 9.4893,30.3658 -3.79573,11.38713 -0.63263,20.2438 9.4893,26.57 63.26193,-1.2652 98.37233,1.8979 105.3312,9.4893 6.9588,7.59147 14.23393,21.5091 21.8254,41.7529 5.06093,-74.64913 24.03953,-128.73813 56.9358,-162.267 32.8962,-33.52887 43.0181,-58.51733 30.3657,-74.9654 -12.6524,-16.44813 -29.73313,-13.91767 -51.2422,7.5914 -40.48767,-34.16147 -89.1994,-53.14007 -146.1352,-56.9358 -6.3262,24.03953 -27.20267,61.3641 -62.6294,111.9737 24.0396,3.79573 32.26367,17.71337 24.6722,41.7529 z m 189.786,-404.2441 c -11.38713,2.53047 -19.6112,8.22403 -24.6722,17.0807 l -75.9144,104.3823 c -13.9176,15.18287 -24.0395,20.24383 -30.3657,15.1829 -7.59147,-5.061 -6.32623,-16.44817 3.7957,-34.1615 l 75.9144,-104.3823 c 6.3262,-7.5914 9.4893,-17.0807 9.4893,-28.4679 -5.061,-8.85667 -12.65247,-15.18287 -22.7744,-18.9786 l -123.3608,-39.8551 c -18.9786,-6.3262 -27.20267,-13.91763 -24.6722,-22.7743 2.53047,-8.85667 13.91763,-11.38713 34.1615,-7.5914 l 123.3608,39.855 c 8.85673,5.061 18.97867,5.061 30.3658,0 5.061,-7.5914 7.5915,-16.44807 7.5915,-26.57 V 30.3658 C 613.36467,10.121934 619.05824,0 629.18017,0 c 8.85667,0 13.91763,10.121934 15.1829,30.3658 v 129.0544 c 0,11.3872 3.1631,20.8765 9.4893,28.4679 10.12193,3.79573 20.24383,3.79573 30.3657,0 l 121.4631,-39.855 c 20.2438,-3.79573 31.63093,-1.26527 34.1614,7.5914 3.7958,8.85667 -3.79563,16.4481 -22.7743,22.7743 l -123.3609,39.8551 c -10.12187,3.79573 -18.3459,10.12193 -24.6721,18.9786 0,10.12193 3.1631,19.61123 9.4893,28.4679 l 75.9143,104.3823 c 11.3872,16.44813 13.28507,27.8353 5.6936,34.1615 -7.5914,5.06093 -17.7133,-3e-5 -30.3657,-15.1829 L 651.95447,284.679 c -5.06093,-8.85667 -12.65237,-14.55023 -22.7743,-17.0807 z m -37.9572,-39.8551 c 0,8.85667 3.4794,17.08073 10.4382,24.6722 6.95887,7.59147 15.49927,11.3872 25.6212,11.3872 12.6524,0 22.14167,-3.79573 28.4678,-11.3872 6.3262,-7.59147 9.4893,-15.81553 9.4893,-24.6722 0,-10.12193 -3.7957,-18.6623 -11.3871,-25.6211 -7.59147,-6.9588 -15.81553,-10.4382 -24.6722,-10.4382 -11.38713,0 -20.56013,3.7957 -27.519,11.3871 -6.9588,7.59147 -10.4382,15.81553 -10.4382,24.6722 z m 7.5914,0 c 0,6.3262 2.8468,12.6524 8.5404,18.9786 5.6936,6.3262 12.33613,9.4893 19.9276,9.4893 10.12187,0 18.0296,-2.8468 23.7232,-8.5404 5.6936,-5.69353 8.5404,-12.33603 8.5404,-19.9275 0,-7.59147 -3.47943,-14.5503 -10.4383,-20.8765 -6.9588,-6.3262 -13.6013,-9.4893 -19.9275,-9.4893 -8.85667,0 -16.1318,3.1631 -21.8254,9.4893 -5.6936,6.3262 -8.5404,13.28503 -8.5404,20.8765 z M 462.16847,474.465 c 1.26527,-1.26527 8.2241,-11.3872 20.8765,-30.3658 26.57,-37.9572 70.8534,-57.2521 132.8502,-57.8847 61.99673,-0.6326 120.83037,19.61123 176.5009,60.7315 55.6706,41.12033 83.5059,157.83873 83.5059,350.1552 v 320.7383 H 756.33677 V 869.2199 c 0,-20.24387 -10.75453,-30.6821 -32.2636,-31.3147 -21.50907,-0.6326 -32.2636,9.80563 -32.2636,31.3147 v 134.7481 l -87.3016,-3.7958 c -39.22247,84.7711 -65.7925,258.7417 -79.7101,521.9116 h -64.5272 l -256.2111,-364.3892 c -39.22247,-60.7315 -77.8123,-78.4448 -115.769502,-53.14 -37.9572,25.3047 -28.151601,82.8731 29.416802,172.7052 57.56847,89.8321 105.3313,227.7432 143.2885,413.7335 l -129.0545,53.1401 h 630.0895 l -47.4465,-30.3658 c 36.69193,-125.2587 55.0379,-281.5159 55.0379,-468.7714 v -129.0545 h 66.4251 c 10.12193,180.9293 -4.42833,375.1437 -43.6508,582.643 l 83.5059,98.6887 H 63.617868 l -9.4893,-74.0165 146.135202,-62.6293 C 163.57184,1513.8597 122.76787,1402.5185 77.851868,1326.6042 32.935802,1250.6898 7.3146685,1191.2235 0.98846854,1148.2053 -5.3377315,1103.9219 18.701835,1069.1278 73.107168,1043.8231 c 54.405332,-25.3048 97.423502,-18.9786 129.054502,18.9785 l 258.109,362.4913 c 20.2438,-232.8042 59.46623,-418.1619 117.6673,-556.073 -21.50913,-53.14007 -53.14013,-79.7101 -94.893,-79.7101 -65.96446,7.89937 -57.69116,-5.46641 -58.8337,-36.0594 2.53053,-24.03953 0.31637,-38.27347 -6.6425,-42.7018 -6.9588,-4.42833 -5.37723,-11.07087 4.7447,-19.9276 -12.6524,-5.06093 -13.28503,-15.18283 -1.8979,-30.3657 -12.6524,-3.79573 -23.40693,-8.22407 -32.2636,-13.285 -8.85667,-5.061 -1.89783,-25.30483 20.8765,-60.7315 22.77427,-35.42673 34.1614,-58.20107 34.1614,-68.323 3.98856,-14.83242 7.50074,-25.68138 18.9786,-43.6508 z"
     id="path140"
     sodipodi:nodetypes="cccssccssssccssscccccscscscsscccccccccccccscccscscscccccccccccccssssssssssssssssssccsssccssscccccssccccscccccccscscccccsccsscc" />
</svg>
