<?xml version="1.0" encoding="UTF-8" standalone="no"?>
<svg
   width="1800"
   height="1771.5752"
   version="1.1"
   id="svg1"
   xml:space="preserve"
   xmlns="http://www.w3.org/2000/svg"
   xmlns:svg="http://www.w3.org/2000/svg"><defs
     id="defs1" /><path
     id="path1"
     style="fill:#000000;stroke:none;stroke-width:98.5701"
     d="m 307.48047,0.06640625 v 0.0546875 C 147.82491,1.3963628 67.894531,86.021106 67.894531,254.20898 H 1.578125 l 66.316406,69.47461 V 356.8418 H 1.578125 l 52.746094,60.27929 c -3.700838,9.88659 -2.541794,19.28811 4.097656,28.14063 -2.648595,7.69354 -4.234861,13.64984 -6.384766,20.52734 H 1.578125 l 39.162109,42.89063 c -4.639206,24.13388 -3.983798,39.6019 3.46875,43.94922 8.461397,4.83508 15.874811,8.58727 23.685547,12.75 v 6.19921 H 0 l 67.894531,67.89454 v 31.57812 l -66.316406,1.57813 66.316406,69.47461 v 34.73632 H 3.1582031 l 64.7363279,82.10547 v 33.15821 H 1.578125 l 66.316406,69.47265 v 33.15821 H 1.578125 l 66.316406,75.79102 v 33.1562 H 1.578125 l 66.316406,72.6309 v 33.1582 H 0 l 67.894531,69.4727 v 31.58 H 1.578125 l 66.316406,69.4727 v 33.1582 H 3.1582031 l 64.7363279,85.2637 0,272.7101 h 58.421879 l 0,-1178.33513 c 18.87897,7.17358 34.96891,11.46649 47.36718,11.94336 50.52608,92.63114 109.9992,173.68286 178.41993,243.15625 89.4733,8.42103 116.86493,59.8879 197.20898,75.83984 66.1206,13.12796 145.06965,34.89134 157.70117,51.20703 12.63155,16.31569 10.35604,15.18631 15.61914,41.50195 33.4027,88.7259 71.25221,236.999 93.43946,361.6211 l -389.32032,172.0254 c -60.42193,26.6264 -90.63476,69.3838 -90.63476,128.2695 0,58.8859 21.50728,90.6527 64.51953,86.793 l 975.46098,5.7851 c -26.6263,-189.1092 -64.0078,-74.401 -112.1407,-64.1601 -48.1326,10.2411 -80.6492,-11.2625 -97.5468,-64.5156 -16.8974,-53.2533 -45.8269,-64.009 -86.7911,-32.2618 38.9159,-74.7592 16.6442,-211.1495 -19.1992,-294.1015 l -1.3847,0.3437 c 9.4561,-99.903 20.4757,-232.0974 33.0722,-301.3789 h 7.8946 l 2.8046,-44.22068 c 7.3684,-12.63146 78.4915,-37.69798 144.9844,-52.51953 66.8417,-14.89937 114.8368,-60.22742 200.0996,-68.64843 77.8941,-66.31547 140.001,-148.4221 186.3164,-246.31641 10.4931,-1.96744 22.3026,-5.60059 34.7364,-10.01953 V 1771.5762 h 60 v -263.6856 l 67.8945,-83.6836 h -67.8945 v -31.5781 l 69.4726,-69.4746 h -69.4726 v -31.5801 l 71.0507,-71.0508 h -71.0507 v -31.58 l 69.4726,-72.6309 h -69.4726 v -33.1582 l 69.4726,-74.209 h -69.4726 v -33.15819 l 69.4726,-69.47461 h -69.4726 v -33.1582 l 67.8945,-83.68164 h -67.8945 v -33.15821 l 69.4726,-67.89453 -69.4726,-1.57812 v -31.58008 l 71.0507,-69.47461 h -71.0507 v -19.30859 c 11.5774,-6.05533 23.6184,-12.69577 36.3144,-20.16407 5.8715,-3.73644 5.2564,-13.54745 -1.5937,-29.19336 l 34.7519,-35.54297 h -54.8574 c -4.4017,-6.91788 -9.0461,-14.06327 -14.6152,-22.07421 v -11.08399 l 69.4726,-75.78906 h -69.4726 v -33.1582 l 69.4726,-69.47461 h -69.4726 c 0,-159.49239 -46.3819,-258.185565 -197.3809,-267.1406281 l -3,-0.3769531 c -232.5709,0 -357.9766,16.7114872 -488.209,135.8027312 l -11.9258,10.90625 c -26.3833,-21.74208 -60.35619,-32.74609 -102.10934,-32.74609 -36.0905,0 -66.25105,7.64452 -90.74609,22.58984 l -0.82032,-0.75 C 706.82872,21.303488 552.63362,0.06640625 307.48047,0.06640625 Z m 0,42.72851575 v 0.271484 c 233.61137,0 377.55048,18.675927 495.31445,124.359374 -24.91368,29.66891 -37.52929,66.29739 -37.5293,110.06836 0,54.68853 20.0454,98.58447 59.75196,131.89258 -29.97918,14.07281 -54.17024,43.62378 -72.38477,89.16016 -7.36835,34.7367 -21.31559,66.84289 -41.84179,96.3164 -20.52626,29.47353 -15.52618,43.6854 15,42.63281 -6.31576,10.52629 -5.26088,16.84007 3.16015,18.94532 -7.36836,5.26311 -8.15861,10.00043 -2.36914,14.21093 5.78942,4.21052 8.15806,14.21054 7.10547,30 6.31569,10.52622 6.05107,23.68522 -0.79102,39.47461 -6.84204,15.7894 -15.78921,25.52477 -26.84179,29.20899 -11.05258,3.68421 -17.63106,10.26271 -19.73633,19.73633 -2.10525,9.47368 2.63206,15.52861 14.21094,18.16015 11.57894,2.63156 27.36727,-7.89596 47.36718,-31.58008 19.9999,-23.68412 30.52553,-40.79018 31.57813,-51.3164 h 34.73828 c 14.7368,11.57888 22.631,35.79087 23.68359,72.63281 -62.10494,0 -117.36824,10.52562 -165.78906,31.57813 C 581.92981,814.87434 501.05122,775.77669 429.47266,767.36719 384.20968,715.78851 343.41916,676.31365 307.10352,648.94531 270.78791,621.57704 233.1562,582.10414 194.20898,530.52539 h 1.58008 c -14.73679,-38.94713 -32.63299,-67.36895 -53.68554,-85.26367 l -15.78711,-8.04883 v -179.8457 c 0,-140.6864 60.45267,-212.136508 181.16406,-214.572268 z m 1201.19333,1.691406 v 0.121094 c 129.4731,0 160.2696,87.498818 160.2696,228.550778 v 172.23438 c -34.8694,25.4341 -57.7015,54.79933 -67.8946,88.29101 -33.6841,53.68401 -67.6334,95.52551 -101.8437,125.52539 -34.2103,29.99982 -76.5774,66.57861 -127.1035,109.73633 -88.7689,13.66872 -179.4704,41.71982 -272.1016,53.28711 V 604.33789 c 0,-105.26267 -27.6297,-166.31615 -82.8926,-183.1582 -2.5225,-0.76872 -4.9344,-1.24451 -7.4414,-1.97266 49.4801,-34.17111 74.5469,-80.77185 74.5469,-140.13281 0,-38.06117 -9.1655,-70.58967 -27.1758,-97.77734 l 12.334,-11.28126 C 1191.8314,58.031441 1313.9165,44.551002 1508.6738,44.486328 Z M 926.31836,157.49609 c 36.84196,0 65.52451,10.78832 86.05074,32.36719 20.5262,21.57884 30.7891,50.78891 30.7891,87.63086 0,36.84193 -11.0532,66.84223 -33.1582,90 -22.10536,23.15781 -49.9976,34.73828 -83.68164,34.73828 -0.21699,0 -0.40846,-0.0538 -0.625,-0.0547 -8.39343,-0.93086 -16.80006,-1.89864 -24.99414,-2.30273 -23.59265,-4.4236 -44.02169,-15.17789 -61.22461,-32.38086 -23.15783,-23.15777 -34.20883,-54.20905 -33.15625,-93.15625 0,-34.73668 10.52556,-62.89577 31.57812,-84.47461 21.05256,-21.57887 50.52734,-32.36719 88.42188,-32.36719 z m -24.17774,272.86133 c 31.38141,-1.77631 63.65084,3.84874 96.8086,16.875 44.21038,17.36834 66.31448,72.89433 66.31448,166.57813 V 980.125 H 938.94727 V 665.91602 c 25.263,-34.73669 40.52785,-61.05262 45.79101,-78.94727 5.26364,-17.89464 5.00028,-34.21048 -0.78906,-48.94727 -5.78949,-14.73679 -16.84252,-23.15841 -33.1582,-25.26367 -16.31576,-2.10526 -32.89435,2.632 -49.73633,14.21094 -26.31574,-14.7368 -59.47292,-27.36824 -99.47266,-37.89453 5.26305,-27.36826 28.42012,-45.52528 69.47266,-54.47266 10.26309,-2.23684 20.62547,-3.65204 31.08593,-4.24414 z m -127.40234,85.5586 c 41.05247,6.31577 83.15869,20.5257 126.31641,42.63086 -12.63154,64.21021 -28.68459,103.94582 -48.15821,119.20898 -19.4736,15.26309 -44.47381,22.89648 -75,22.89648 -19.99989,2.10521 -28.68428,-1.57911 -26.05273,-11.05273 2.63155,-9.47362 0.79037,-17.36782 -5.52539,-23.68359 36.84201,2.10525 47.6323,-2.63207 32.36914,-14.21094 -15.26308,-11.57894 -26.05338,-14.73584 -32.36914,-9.47266 4.21052,-14.7368 -4.21111,-22.6329 -25.26367,-23.68554 23.15782,-38.94715 41.05205,-73.15728 53.68359,-102.63086 z m 21.71094,15.39453 c -9.21049,0.26315 -19.60469,1.97497 -31.1836,5.13281 v 15.78906 c 23.15782,-7.36835 42.36778,-7.89584 57.63086,-1.58008 15.26311,6.31576 35.52606,10.52568 60.78907,12.63086 l -7.89453,-7.89453 c -23.15776,-8.42103 -41.57954,-15.26032 -55.26368,-20.52344 -6.84206,-2.63155 -14.86763,-3.81782 -24.07812,-3.55468 z m 137.22656,13.03125 c 2.18342,-0.2837 4.23778,-0.25165 6.16211,0.0937 2.56577,0.46052 4.90061,1.47965 7.00586,3.05859 8.42103,6.31577 10.5269,16.31783 6.31641,30.00195 -4.21052,13.68414 -21.57935,39.47265 -52.10547,77.36719 v 162.63086 c -17.89472,0 -26.8418,-6.84125 -26.8418,-20.52539 -1.05258,-42.10505 -12.10565,-74.21124 -33.1582,-96.31641 35.78935,-25.26307 58.94644,-73.68503 69.47265,-145.26367 8.88154,-6.51313 16.59818,-10.1958 23.14844,-11.04687 z m -138.41016,11.4414 c -13.68413,-0.26316 -23.15877,4.87024 -28.42187,15.39649 l -14.21094,9.47265 v 7.89454 l 12.63281,1.57812 c 18.94732,12.63153 47.36718,10.00206 85.26172,-7.89258 h 34.73633 v -9.47461 h -36.31445 c -22.10517,-11.05257 -39.99947,-16.71144 -53.6836,-16.97461 z m -7.89648,10.65821 c -3.15793,7.36837 -2.1049,14.21157 3.1582,20.52734 -7.36835,-2.10526 -13.6822,-3.68373 -18.94531,-4.73633 1.05265,-6.31575 6.31348,-11.58049 15.78711,-15.79101 z m 23.68555,0 28.41992,11.05468 c -10.52629,4.21052 -19.99891,6.83997 -28.41992,7.89258 6.31576,-5.26312 6.31576,-11.57889 0,-18.94726 z m 18.94726,257.36914 c 28.42092,18.94731 52.10542,28.41992 71.05274,28.41992 v 80.52734 c -16.84213,-1.05265 -39.99921,-6.84292 -69.47266,-17.36914 -29.4736,-10.52628 -61.57971,-35.78927 -96.31641,-75.78906 z m -82.10547,83.68359 c 53.684,30.52617 90.26273,47.89494 109.73633,52.10547 19.4736,4.21051 33.94826,6.84188 43.42188,7.89453 v 47.36716 h 150.00001 c -12.2078,63.0735 -12.6561,203.5141 -22.1621,308.8809 l -177.42776,44.1601 C 831.32921,1254.3306 800.8698,1101.8713 774.73828,1016.4414 761.05416,990.12576 752.107,953.8097 747.89648,907.49414 Z m 285.19142,466.58206 c 28.6749,77.8316 19.9055,200.5891 -30.2754,265.1074 -74.7594,44.0364 -165.1403,50.6955 -271.13477,19.9726 -105.99446,-30.723 -207.12515,-24.066 -303.39062,19.9708 29.6989,-94.2176 179.22002,-178.7074 448.55859,-253.4668 z" /></svg>
