<?xml version="1.0" encoding="UTF-8" standalone="no"?>
<svg
   width="1078.2244"
   height="1800"
   id="svg2"
   version="1.1"
   xml:space="preserve"
   xmlns="http://www.w3.org/2000/svg"
   xmlns:svg="http://www.w3.org/2000/svg"
   xmlns:rdf="http://www.w3.org/1999/02/22-rdf-syntax-ns#"
   xmlns:cc="http://creativecommons.org/ns#"
   xmlns:dc="http://purl.org/dc/elements/1.1/"><metadata
     id="metadata12"><rdf:RDF><cc:Work
         rdf:about=""><dc:format>image/svg+xml</dc:format><dc:type
           rdf:resource="http://purl.org/dc/dcmitype/StillImage" /><dc:description>sign combination from S. Rosmorduc, using base signs from S. Thomas&#10;</dc:description></cc:Work></rdf:RDF></metadata><defs
     id="defs10" /><path
     id="path4"
     style="fill:#000000;stroke:none;stroke-width:1.06498"
     d="M 847.375 0.63476562 C 839.59916 0.51030185 831.2645 3.0948791 822.36719 8.390625 C 817.28303 11.416745 812.00298 15.325368 806.54883 20.113281 C 787.76443 36.511494 781.3484 71.482203 787.26562 125.02148 L 801.49805 250.66406 C 800.84151 250.67621 800.18361 250.64747 799.52734 250.66797 C 770.76008 250.66797 750.83227 256.03812 739.64844 264.83008 L 713.76172 280.88672 C 694.3406 287.85988 668.18305 303.74192 635.25 328.58594 C 599.25413 347.73231 581.4482 362.85622 581.83203 373.96094 C 582.21477 385.06779 584.70175 391.00545 589.29688 391.76953 C 593.892 392.53539 603.46634 407.85237 618.01758 437.7207 C 618.78344 459.16464 627.59066 471.41898 644.43945 474.48242 C 651.33252 474.48241 661.67362 469.503 675.45898 459.54688 C 680.46014 480.98043 688.83776 496.33497 700.50391 505.77148 L 623.08008 539.83594 C 573.37199 612.32449 555.95409 720.70369 511.42383 802.51953 C 493.83713 815.10611 482.57746 875.38237 427.69141 855.1875 C 372.80527 834.99263 281.33324 829.09714 268.90625 815.63867 C 253.14747 798.75167 232.96308 798.35832 208.33398 786.36914 L 208.93359 438.45508 C 208.23873 381.32862 188.47192 351.69926 149.56055 349.5293 C 159.98324 331.45116 179.75004 307.21591 208.93359 276.84375 C 222.13568 269.61177 232.57348 256.94922 240.2168 238.87109 C 243.03093 225.69289 238.73712 219.10156 227.30469 219.10156 C 221.80021 219.10156 214.64504 220.63748 205.83789 223.69531 C 182.21312 242.49553 153.35608 271.43823 119.30859 310.49023 C 91.514715 332.18251 73.130664 354.57664 64.097656 377.7168 C 62.013114 384.22669 55.748864 398.52867 45.326172 420.58203 C 34.903479 442.639 20.323357 488.3784 1.5625 557.79883 C 2.3395364 578.82434 5.4906782 589.34961 11.046875 589.34961 C 15.427722 589.34961 21.300418 582.78433 28.652344 569.71289 C 34.211138 551.63483 42.225744 526.88695 52.648438 495.43164 C 63.07113 463.97634 79.704826 437.76288 102.63477 416.78906 C 115.83681 405.94289 126.98258 398.704 136.01562 395.08984 C 156.86099 395.08984 167.26562 409.56405 167.26562 438.48828 L 167.26562 769.99609 C 157.61536 766.88362 147.50377 764.0143 136.88086 761.37695 C 129.63175 771.73343 134.29 782.07824 150.85938 792.42773 L 135.31641 842.14844 C 136.32711 859.32645 147.195 871.0608 167.93164 877.39258 L 165.9043 1543.1133 C 167.33458 1563.3615 161.95449 1579.6084 149.79688 1591.9023 C 126.19672 1609.2544 110.08771 1633.1161 101.50586 1663.4883 C 96.499761 1690.9686 98.665876 1728.5822 107.96289 1776.3105 C 113.68411 1780.5177 120.91477 1782.6328 129.66211 1782.6328 C 132.94239 1782.6328 136.43869 1782.3237 140.14453 1781.7344 C 133.70815 1755.702 130.49414 1732.9361 130.49414 1713.4102 C 126.91835 1673.6397 137.64531 1644.6915 162.67578 1626.6133 C 169.11213 1621.5514 177.32376 1619.0254 187.33594 1619.0254 C 198.77844 1619.0254 207.37445 1620.841 213.0957 1624.4512 C 237.41098 1643.2514 247.75546 1672.9137 244.17969 1713.4102 C 244.17969 1732.9361 240.99886 1755.3264 234.5625 1780.6367 C 239.09183 1781.5946 243.28218 1782.1016 247.17578 1782.1016 C 254.96302 1782.1016 261.46644 1780.1677 266.71094 1776.3105 C 276.00797 1728.5822 278.52336 1691.3418 274.23242 1664.5879 C 266.36573 1633.4898 250.99047 1609.2545 228.10547 1591.9023 C 213.80235 1579.6084 207.33921 1563.3282 208.76953 1543.0801 L 208.33398 883.25 C 225.79097 885.59246 243.9263 873.86653 262.71484 876.20898 C 354.84894 899.11049 414.10615 933.13343 487.29297 931.86719 C 513.52778 926.63231 548.69922 875.70313 548.69922 875.70312 C 608.76327 787.68331 619.44058 689.64186 640.15234 644.07031 C 669.40155 690.46587 684.30338 784.90036 685.06641 926.58398 L 587.10547 1296.9434 C 570.0014 1343.6899 563.72955 1388.1592 568.29492 1430.3535 C 540.92831 1518.1502 522.68287 1584.2854 513.55859 1628.7559 C 507.8551 1667.523 495.31391 1692.3254 475.93359 1703.1602 C 456.54678 1713.9948 420.62811 1730.8121 368.17773 1753.6133 C 340.79838 1761.5995 325.40413 1769.2958 321.99609 1776.7031 C 318.57529 1784.1042 325.1304 1790.3773 341.66211 1795.5215 C 358.19393 1800.672 381.8553 1799.2572 412.64258 1791.2773 C 443.42995 1783.272 475.07257 1784.6866 507.57031 1795.5215 C 540.05516 1806.3562 554.59345 1797.5189 551.18555 1769.0078 C 551.18555 1741.6411 573.42005 1686.6244 617.89062 1603.959 C 662.36121 1521.2873 674.90766 1454.8636 655.52734 1404.6895 C 654.38277 1386.4474 661.50671 1366.4949 676.90039 1344.832 C 692.29405 1323.1693 704.55343 1307.2056 713.67773 1296.9434 L 811.16992 1296.9434 C 814.59075 1312.9026 824.85491 1338.5574 841.95898 1373.9102 C 855.63584 1505.039 864.75687 1592.84 869.32227 1637.3105 C 872.74309 1680.6369 867.32586 1709.4301 853.07031 1723.6855 C 838.82121 1737.9346 811.17088 1747.3411 770.12109 1751.9062 C 745.05011 1767.8722 731.93673 1779.8446 730.7793 1787.8242 C 729.64118 1795.8041 737.62441 1799.793 754.72852 1799.793 C 772.97073 1799.793 794.63294 1798.9256 819.7168 1797.1895 C 844.80707 1795.3895 874.74163 1794.8121 909.51562 1795.4551 C 944.29609 1796.0274 955.98457 1783.768 944.58398 1758.6777 C 934.32154 1718.7726 938.02536 1655.2016 955.69531 1567.9707 C 973.37164 1480.7401 964.53577 1416.0316 929.18945 1373.8438 L 929.18945 1295.1582 L 913.79492 1081.3633 C 925.26621 1063.1145 950.31831 1035.918 948.6543 977.00781 C 946.62896 905.30633 919.82422 899.11768 919.82422 882.75 L 918.2207 882.90625 C 922.3667 775.28677 932.20448 697.14698 947.73047 648.49805 L 948.60352 646.76172 L 952.12305 646.89844 C 965.6604 700.98406 986.89304 750.26907 1016.0898 794.56641 C 1007.8052 832.88342 1009.3567 878.4382 1020.748 931.25 C 1032.1396 984.06923 1030.588 1023.6877 1016.0898 1050.0938 C 1001.5917 1076.4995 1000.0383 1110.4059 1011.4297 1151.832 C 1012.0387 1151.888 1012.6252 1151.9336 1013.1934 1151.9336 C 1022.2807 1151.9336 1026.1047 1144.1324 1024.6426 1128.5371 C 1023.0894 1111.9694 1025.9131 1098.4914 1033.1621 1088.1348 C 1043.518 1108.8479 1047.9284 1126.9843 1046.375 1142.5156 C 1044.8216 1158.0539 1039.3888 1174.104 1030.0684 1190.6719 C 1024.8905 1196.9181 1023.8659 1202.5977 1026.9727 1207.7441 C 1029.5617 1212.0741 1034.6582 1214.2343 1042.2812 1214.2344 L 1047.1406 1214.2344 C 1067.8526 1185.2374 1078.2245 1157.8194 1078.2246 1131.9316 C 1078.2246 1107.0732 1075.6156 1072.3582 1070.4375 1027.8301 C 1079.7579 920.12649 1079.7578 847.12756 1070.4375 808.81055 C 1066.2952 761.17317 1048.1929 691.80269 1016.0898 600.67383 C 1015.8411 599.81299 1015.5289 599.07221 1015.2734 598.22461 C 1009.9738 444.27472 994.72848 355.32839 948.86914 315.375 C 908.29737 280.02877 868.22328 258.79161 828.63867 252.60352 C 828.90976 248.01351 823.79172 238.69426 831.86523 233.53906 C 846.27464 224.3382 861.50391 213.07078 883.08984 200.22266 L 894.23438 193.58789 L 852.7207 91.148438 C 848.16048 83.486877 853.10474 73.617631 867.55078 61.556641 C 886.60655 44.160918 888.95273 28.49739 874.59766 14.552734 C 866.44553 5.4342441 857.3725 0.79477838 847.375 0.63476562 z M 843.125 21.53125 C 845.58545 22.418101 853.83122 24.629008 856.63281 27.941406 C 865.27239 36.643437 861.15198 46.457563 844.28711 57.361328 C 827.7975 68.895505 823.35085 83.214067 830.94336 100.33008 L 866.38867 188.23047 C 861.56588 190.09312 856.92994 192.33084 852.49805 194.96875 C 841.41825 201.56355 834.44324 204.97023 823.07617 213.86719 L 811.79492 105.19531 C 806.95923 66.552356 810.15504 42.161627 821.41016 32.005859 C 824.60332 29.1566 827.66423 26.864445 830.58008 25.128906 L 830.60156 25.171875 C 833.87856 23.221382 840.76043 22.099722 843.125 21.53125 z M 792.63281 276.60547 C 801.05724 276.41357 810.63349 277.27677 821.35547 279.19141 C 805.27251 281.48897 794.16591 286.08192 788.03906 292.97461 C 778.84879 288.38037 773.1072 284.17047 770.81055 280.3418 C 776.93698 278.04378 784.20925 276.79737 792.63281 276.60547 z M 833.99023 283.78125 C 927.06851 303.58507 971.18084 384.68419 984.04688 541.06055 C 976.02841 532.96364 967.04046 526.73246 956.89844 522.72266 C 955.52899 516.21079 953.6814 510.58082 951.3418 505.67773 C 951.80747 505.18509 951.6951 504.71698 950.68555 504.28516 C 945.32659 493.83509 937.41774 486.98102 925.89258 483.09766 C 890.66327 471.22673 851.9892 474.86537 809.86719 494.01172 C 767.74518 513.15809 741.32157 557.57837 730.59961 627.27148 L 698.43359 627.27148 C 699.96532 584.38363 713.75195 543.79113 739.79102 505.49805 C 804.12277 471.80043 832.45737 427.76241 824.79883 373.38672 C 847.00861 364.19648 858.11523 347.73174 858.11523 323.99023 C 858.8811 307.90728 850.83904 294.50323 833.99023 283.78125 z M 747.83203 288.375 C 753.95887 288.375 763.53123 293.35247 776.55078 303.30859 C 755.10863 325.51837 744.76912 347.3471 745.5332 368.79102 C 747.06491 387.17152 752.42498 396.36133 761.61523 396.36133 C 771.57135 396.36133 779.2308 390.61672 784.5918 379.12891 C 800.67473 334.71005 811.58991 313.83992 817.33398 316.51953 C 823.07774 319.2002 819.43947 326.66821 806.41992 338.92188 L 813.31055 348.11328 C 827.09592 338.15715 833.99023 328.58285 833.99023 319.39258 C 833.2244 307.90477 827.47976 302.16016 816.75781 302.16016 C 802.20656 302.92601 790.52625 316.5196 781.71875 342.94141 C 772.91161 369.36357 766.59491 380.47019 762.76562 376.25781 C 758.93635 372.04579 758.93635 363.0471 762.76562 349.26172 C 766.59491 335.47634 775.78667 321.88114 790.33789 308.47852 C 804.88914 295.07625 816.95009 290.48134 826.52344 294.69336 C 836.09467 298.90575 840.49844 308.66926 839.73438 323.98633 C 839.73438 344.66441 824.03287 357.30136 792.63281 361.89648 C 802.58894 396.35993 795.69657 424.88952 771.95508 447.48242 C 748.21359 470.07601 731.5558 482.71104 721.98242 485.39062 C 712.40942 488.07093 705.32558 481.75458 700.73047 466.4375 C 696.13533 451.12043 689.81705 443.46094 681.77539 443.46094 C 673.73411 443.46094 666.65024 445.95145 660.52344 450.92969 C 654.39622 455.90686 648.84313 457.81977 643.86523 456.67188 C 638.88701 455.52292 636.39844 450.73688 636.39844 442.3125 C 636.39844 440.01493 650.18474 436.56974 677.75586 431.97461 L 674.30664 422.78125 L 630.65234 426.23242 C 629.88648 418.57386 624.52642 408.61694 614.57031 396.36328 C 614.57031 394.0657 619.93038 389.08825 630.65234 381.42969 L 615.71875 369.94141 C 611.88947 365.34628 632.18551 350.0293 676.60547 323.99023 L 680.05273 338.92383 C 658.61024 355.00677 649.03623 366.49405 651.33203 373.38672 C 652.86409 382.57698 656.11977 390.04498 661.09766 395.78906 C 666.07589 401.53281 675.07617 406.7037 688.0957 411.29883 C 663.588 380.66465 670.48033 357.68626 708.77344 342.36914 C 723.32465 340.83744 730.59961 335.09476 730.59961 325.13867 C 730.59961 312.88677 722.17497 305.60987 705.32617 303.31055 L 705.32617 303.30859 C 726.00424 298.71346 740.1735 293.73596 747.83203 288.375 z M 693.83789 313.65039 L 717.96289 321.69141 L 693.83789 334.32812 C 687.71105 327.43544 687.71105 320.54308 693.83789 313.65039 z M 887.55859 502.56836 C 889.77987 502.53706 892.02712 502.55836 894.30078 502.63086 C 926.84644 503.6584 932.83195 536.5284 932.0957 616.29492 L 924.43555 637.14844 C 901.03215 699.21593 895.18722 790.66224 894.98828 885.19141 L 719.29492 902.47266 C 719.54461 809.66566 708.43852 727.46135 685.85352 655.99023 L 731.74805 655.99023 L 760.4668 655.99414 C 767.35946 603.15017 782.29387 564.09157 805.26953 538.81836 C 826.80919 515.12538 854.23922 503.04044 887.55859 502.56836 z M 683.70898 553.10547 C 676.85568 571.99121 671.79064 590.40162 668.53125 608.33594 C 664.00004 597.49787 659.26678 586.85047 654.13086 576.57812 C 666.61769 564.65775 676.22535 557.44301 683.70898 553.10547 z M 886.41211 917.49219 C 886.41211 917.49219 910.80686 918.73536 910.34766 963.93555 C 909.72908 1024.8254 897.19088 1020.3477 877.81055 1083.0605 L 886.39453 1254.0977 L 638.38867 1254.0977 L 723.49219 956.53711 L 730.32422 932.65039 L 852.06641 920.82812 L 886.41211 917.49219 z " /></svg>
