<?xml version="1.0" encoding="UTF-8" standalone="no"?>
<!-- Created with Inkscape (http://www.inkscape.org/) -->

<svg
   width="1077.752"
   height="1799.5677"
   viewBox="0 0 1077.752 1799.5677"
   version="1.1"
   id="svg10448"
   xmlns="http://www.w3.org/2000/svg"
   xmlns:svg="http://www.w3.org/2000/svg">
  <defs
     id="defs10445" />
  <path
     id="path10589"
     style="fill:#000000;stroke:none;stroke-width:97.3232"
     d="m 937.2715,0.04222085 c -5.3502,-0.2533 -10.1652,0.6331 -14.4453,2.66020005 -8.5604,4.0541003 -14.9815,10.6419001 -19.2617,19.7637001 -2.14,6.0811 -3.209,11.655 -3.209,16.72263 -3.2102,-1.01353 -7.4915,-1.51953 -12.8418,-1.51953 -14.9806,1.01352 -23.0061,11.65523 -24.0762,31.92578 12.8405,-2.02706 20.3306,1.01482 22.4707,9.12304 0,6.08117 -5.0825,14.69697 -15.248,25.845709 -10.1655,11.14882 -15.7835,17.23069 -16.8536,18.24414 -10.7004,-34.459849 -30.4973,-49.157479 -59.3886,-44.089849 -24.6112,7.09469 -35.3117,20.778214 -32.1016,41.048839 0,9.12173 6.4212,16.72349 19.2617,22.80469 -4.2801,12.16225 -24.8803,38.00761 -61.7968,77.53515 -36.9168,39.52755 -63.9378,83.6183 -81.0586,132.26758 21.093,9.73044 46.699,21.6185 61.7812,28.87109 -0.5572,2.76125 -0.2992,7.33466 -2.3926,22.82032 -2.14,7.09463 -4.0121,13.6824 -5.6172,19.76367 -1.6051,6.0811 -6.6876,15.20482 -15.248,27.36719 -8.5604,12.16218 -12.3064,20.77602 -11.2363,25.84375 0,4.054 4.8168,6.08203 14.4472,6.08203 0,4.05401 -2.6751,7.09613 -8.0254,9.12304 -1.07,5.06773 0.5343,9.12165 4.8145,12.16211 -4.2802,9.12173 -3.2094,15.20368 3.2109,18.24414 l 3.209,19.76368 c -0.8491,9.65147 -7.344,30.81906 -16.9531,58.34179 -36.0786,9.08741 -61.7123,26.68739 -76.7402,52.92774 l -24.6426,42.60937 c -15.3332,-15.67209 -39.1559,-35.75262 -71.4649,-60.24023 -32.3089,-24.48768 -63.7967,-19.29744 -94.4629,-63.37514 5.4761,-12.73361 8.7622,-27.91569 9.8575,-45.54688 2.1904,-8.81553 2.7378,-18.61019 1.6425,-29.38476 -1.0952,-7.83598 -5.7507,-18.1218 -13.9648,-30.85547 -8.2141,-12.73354 -13.415,-24.9783 -15.6055,-36.73242 -2.1904,-3.91807 -4.6545,-6.12158 -7.3926,-6.61133 -0.6845,-0.12244 -1.3867,-0.13848 -2.1054,-0.0469 -2.1562,0.27549 -4.4674,1.51681 -6.9317,3.72071 -1.0952,-1.95903 -2.7372,-2.45026 -4.9277,-1.47071 -2.1905,0.97949 -3.2852,2.44917 -3.2852,4.40821 -3.2856,-1.95904 -6.0243,-2.4483 -8.2148,-1.46875 -2.1905,0.97949 -3.2852,2.44922 -3.2852,4.4082 -1.0951,-1.95898 -3.8339,-2.20361 -8.2148,-0.73438 -4.3808,1.46923 -5.4756,4.16207 -3.2852,8.08008 9.857,15.67215 17.2493,28.16153 22.1778,37.4668 1.7792,3.35939 3.2204,7.71348 4.5,12.54102 h -6.3711 c -0.884,-2.70805 -1.8576,-5.25376 -3.0567,-7.39844 -2.738,-4.89758 -6.8462,-5.87799 -12.3222,-2.93946 -2.4454,0.72899 -2.0492,4.72585 -0.2481,10.3379 h -90.1835 v -77.52149 h -25.4317 v 2.70508 73.22266 c -15.4036,-7.05158 -31.1469,-14.11807 -47.2461,-20.02149 l -0.5976,-163.7147 c -0.1235,-25.65549 -8.0117,-49.93879 -24.0333,-72.84571 10.0135,-19.24181 22.2794,-39.39825 36.7989,-60.47265 14.5195,-21.0744 13.2689,-38.02568 -3.7539,-50.85352 -15.0202,32.0697 -33.044,57.49562 -54.0723,76.2793 -21.0282,18.78367 -35.799102,38.25398 -44.3105,58.41211 -8.5115,20.15807 -26.2861,57.72644 -53.3223,112.70312 26.0349,9.16277 46.0632,-9.1627 60.081998,-54.97656 13.017502,-18.3256 23.281002,-30.23672 30.791002,-35.73437 7.5101,-5.49766 13.2681,3.66508 17.2735,27.48828 l 0.5527,153.51353 c -10.8427,-2.26962 -21.86,-3.65092 -33.082,-3.70313 -19.8745,-0.35032 -40.7808,10.44631 -47.3242,30.10547 -9.1804,21.7917 -3.1012,49.85803 15.9687,64.36328 19.132698,13.05174 42.9988,11.04088 64.9082,6.1836 l 1.1875,204.93373 c -28.0376,-1.83262 -40.3054,0.91588 -36.8008,8.24609 3.5047,7.33022 9.2627,10.9961 17.2735,10.9961 -7.3601,15.30632 -8.3127,30.61358 -3.1543,45.91992 3.4712,22.72887 10.3239,34.44531 20.7715,34.44531 l 1.9101,-0.19726 v 666.14263 c -16.0215,5.4977 -26.6358,23.8534 -18.8066,43.4453 14.4104,36.0606 19.0788,16.77 12.7988,-3.5879 1.0013,-15.5768 8.5104,-23.3652 22.5293,-23.3652 14.0189,0 26.8522,11.1967 19.8398,23.3652 -14.9018,25.8591 -1.4261,30.4347 14.8145,4.6836 10.6266,-16.8496 -7.2422,-41.32 -16.6289,-44.541 V 856.36453 l 6.2578,-0.64648 c 18.6187,6.85659 31.8417,-2.47076 61.7156,-13.98852 120.474,17.63068 252.8795,33.81669 295.593,27.93969 l 78.8574,-88.15625 c 24.5946,-3.68649 48.1493,-10.0953 72.2852,-16.16211 -0.9381,45.03663 -5.1799,91.20473 -3.3477,129.77735 v 94.25976 c -59.9226,7.09483 -155.1632,22.80663 -285.709,47.13083 -77.0434,8.1083 -121.452,43.0762 -133.2226,104.9024 0,37.4994 2.1397,95.7811 6.4199,174.8359 4.2803,79.0548 5.351,153.5535 3.2109,223.4863 -33.1715,43.5825 -66.8795,71.2018 -101.1211,82.8575 -34.2414,11.6549 -65.8099,19.0042 -94.7011,22.0449 -26.5103,3.0131 -41.4251,20.0068 -44.8164,50.8906 H 0 v 16.5156 87.5157 H 1077.752 V 1695.5364 H 969.375 V 951.38016 c 0,-7.09466 4.2795,-10.64258 12.8398,-10.64258 8.5605,0 12.8418,3.54792 12.8418,10.64258 v 127.70704 h 35.3106 l -1.6035,-138.34962 c 0,-21.2841 -15.5172,-31.92578 -46.5489,-31.92578 -31.0314,0 -46.5468,10.64168 -46.5468,31.92578 v 28.88672 h -52.9688 c 5.3503,-26.35166 18.9938,-94.00877 40.9297,-202.96289 5.4434,-27.0368 8.2302,-73.44721 32.0703,-84.19727 40.1615,-18.10976 42.986,-77.70706 23.6758,-92.13672 -19.0565,-14.24007 -64.6516,-4.18981 -75.2481,-20.02539 -7.0886,-10.59343 -9.5339,-10.09782 -19.8222,-17.24414 -17.1208,-18.24345 -26.7525,-36.48896 -28.8926,-54.73242 16.0507,-7.09463 28.8911,-19.76435 38.5215,-38.00781 l 52.9687,-13.68359 9.6309,-50.16993 c 2.7114,-14.12416 6.3073,-31.38719 8.6387,-45.01757 3.6601,-21.39941 6.3431,-43.16059 4.2031,-73.56641 -3.2102,-40.54109 -2.6766,-65.37436 1.6035,-74.49609 10.7004,3.04046 19.2614,1.52055 25.6817,-4.56055 11.7706,-10.13527 11.237,-23.31276 -1.6036,-39.5293 -16.0507,-18.24352 -33.7079,-21.79137 -52.9687,-10.64258 0,-25.33816 2.1397,-40.03371 6.4199,-44.08789 7.4904,-5.067565 14.4469,-2.53371 20.8672,7.60157 14.9807,-14.189445 17.6559,-26.859019 8.0254,-38.007819 -3.2102,-4.05411 -6.4208,-6.58804 -9.6309,-7.60157 4.2803,-3.04058 7.4908,-7.60244 9.6309,-13.68359 4.2802,-9.12175 5.0813,-18.24352 2.4062,-27.36522 -2.6752,-9.1219 -10.9682,-16.2174998 -24.8789,-21.2852001 -6.4202,-2.5338 -12.3059,-3.92630005 -17.6562,-4.17970005 z m 0.4023,11.21100015 c 4.0127,0.38 8.6947,1.5843 14.045,3.6113 9.6304,4.0541 15.5161,8.8689 17.6562,14.4434 2.14,5.5743 1.6046,11.90918 -1.6055,19.00387 -3.2101,7.09469 -10.1666,12.16255 -20.8672,15.20313 1.0702,-7.09469 -1.0696,-15.20443 -6.4199,-24.32617 -10.7005,2.02705 -18.7261,6.0829 -24.0761,12.16406 -4.2804,-9.12175 -4.8157,-17.23149 -1.6055,-24.32619 3.2101,-7.0947 7.4915,-11.9096 12.8418,-14.4433 2.6751,-1.267 6.0186,-1.7102 10.0312,-1.3301 z m -45.7461,40.00389 c 1.6051,0.0634 3.3442,0.6017 5.2168,1.61523 9.6305,4.0541 17.1206,15.70979 22.4707,34.9668 17.1209,-10.13527 31.0339,-13.17521 41.7344,-9.1211 7.4902,3.04059 8.0238,8.61444 1.6035,16.72266 -11.7704,-9.12175 -21.9357,-8.61379 -30.4961,1.521484 -7.4903,14.189445 -11.7716,53.718105 -12.8418,118.583995 -1.0699,57.771 -7.8377,107.7312 -17.6543,150.51171 -3.5021,15.26232 -6.8964,31.7446 -11.2363,47.13086 -10.7005,31.41936 -24.6116,52.19675 -41.7324,62.33203 -11.7705,-6.08119 -17.6563,-15.20286 -17.6563,-27.36523 6.42,-11.14882 9.3628,-21.28452 8.8282,-30.40625 -2.7665,-14.87668 -6.1555,-19.15614 -17.9785,-22.68359 -2.1845,-0.69246 -4.3971,-1.26454 -6.629,-1.77735 -3.6846,-0.7927 -6.9005,0.0887 -10.705,0.89649 -2.8338,0.60168 -16.0767,11.33059 -17.5782,9.62109 -25.8848,-4.44668 -40.1268,-5.42655 -68.6386,-13.32617 2.6577,-14.11769 5.9052,-28.11239 9.1718,-42.66602 1.6953,-4.51014 4.2866,-13.20193 7.2227,-21.2832 8.5603,-40.54109 36.9181,-87.16569 85.0703,-139.86914 50.2923,-52.70352 77.5812,-86.65843 81.8613,-101.861339 2.1402,-13.17585 -4.8165,-20.27162 -20.8671,-21.28515 2.4075,-8.36161 6.0188,-12.44785 10.8339,-12.25781 z m 42.1348,1.61523 1.6055,13.68359 -8.0254,1.51954 -4.8164,-7.60157 z m -126.4277,40.4082 c 18.6088,0.55427 30.256,15.464839 34.9375,44.730479 -8.5605,8.10819 -20.3318,20.26979 -35.3125,36.48633 -21.401,22.29756 -42.2687,48.14483 -62.5996,77.53711 -17.1208,26.35164 -35.9405,79.29645 -40.2207,103.62109 -18.4144,-7.10095 -28.7254,-17.46615 -36.8243,-21.52344 14.9808,-34.45982 39.5925,-71.2038 73.834,-110.22461 34.2416,-39.02074 56.1802,-69.17489 65.8106,-90.45898 -16.0507,1.01355 -25.6825,-4.56029 -28.8926,-16.72266 -2.14,-12.16233 4.8165,-19.764105 20.8672,-22.804689 2.9426,-0.50677 5.7419,-0.71981 8.4004,-0.64063 z m 153.7148,61.833989 c 6.9553,0.25339 13.91,3.67385 20.8652,10.26172 9.6305,10.13528 10.7013,18.7509 3.211,25.84571 -7.4904,5.06755 -17.122,3.54763 -28.8926,-4.56055 -4.2801,17.22991 -5.349,45.60917 -3.209,85.13672 1.0701,33.44638 -1.8549,61.66144 -6.4219,85.13867 -4.9422,25.40714 -8.5363,50.82869 -14.4453,76.01562 l -28.8925,9.1211 c 10.5567,-29.88218 18.7639,-62.18367 22.4726,-79.05664 4.0814,-18.56858 8.5609,-37.7539 9.6309,-58.53125 1.07,-20.77729 1.8713,-46.62449 2.4062,-77.53711 0.5351,-30.91256 1.3382,-51.94298 2.4082,-63.0918 6.9553,-6.08109 13.9118,-8.99548 20.8672,-8.74219 z M 709.3477,410.14774 c 10.7005,1.01354 25.1471,3.03945 43.3379,6.08008 18.1908,3.04046 27.8226,11.15026 28.8925,24.32617 7.4905,0 11.2344,2.53401 11.2344,7.60156 -10.7006,7.09464 -16.0508,14.69651 -16.0508,22.80469 0,8.10818 4.2814,12.16211 12.8418,12.16211 6.4203,0 15.5166,-5.06785 27.2871,-15.20313 7.4903,30.40589 18.7264,57.773 33.7071,82.09766 -4.2801,11.14882 -12.8411,17.98955 -25.6817,20.52344 -12.8407,2.53366 -24.6121,3.29471 -35.3125,2.28125 -8.5604,-9.12181 -13.6431,-18.49849 -15.248,-28.12696 -1.6051,-9.62878 -6.6897,-14.1887 -15.25,-13.68164 -8.5605,0.50674 -26.2156,3.29378 -52.9668,8.36133 -7.4903,-5.06755 -11.2364,-11.1495 -11.2364,-18.24414 11.7706,-5.06756 20.3315,-10.64133 25.6817,-16.72266 -9.6304,-7.09464 -18.1913,-12.16249 -25.6817,-15.20312 v -6.08203 c 10.7005,-2.02709 16.0508,-4.56103 16.0508,-7.60157 -2.14,-6.08119 -4.8152,-9.12109 -8.0254,-9.12109 -5.3501,1.01354 -6.9564,3.03944 -4.8164,6.08008 2.1402,2.02708 4e-4,3.547 -6.4199,4.56055 -7.4904,0 -11.2344,-1.01198 -11.2344,-3.03907 0,-2.02692 0.5335,-4.05494 1.6035,-6.08203 14.9807,-21.28408 24.0771,-40.54157 27.2872,-57.77148 z m 102.7265,3.04101 c 11.7706,0 18.1917,3.54599 19.2617,10.64063 -1.07,8.10819 -2.9421,14.69807 -5.6171,19.76562 -2.6752,5.06773 -7.7597,11.14756 -15.25,18.24219 -9.6304,7.09464 -15.7839,11.15052 -18.459,12.16406 -2.6752,1.01354 -4.5471,0.75857 -5.6172,-0.76172 -1.0699,-1.52017 9e-4,-4.30732 3.2109,-8.36132 l 9.6309,-13.68164 12.8398,-7.60157 c 1.0702,-1.01354 10e-4,-3.54738 -3.209,-7.60156 -3.2104,-4.05409 -3.4778,-7.60195 -0.8027,-10.64258 2.675,-3.04046 5.8837,-3.04046 9.6289,0 3.7451,3.04063 4.5483,6.58849 2.4082,10.64258 -2.1401,5.06772 -8.0258,12.66942 -17.6562,22.80469 l 3.2109,1.51953 c 10.7006,-10.13527 16.5863,-16.72312 17.6562,-19.76367 1.0702,-4.05418 1.6055,-8.61587 1.6055,-13.6836 0,-6.08109 -4.2813,-9.12109 -12.8418,-9.12109 -4.2801,0 -7.223,1.26695 -8.8281,3.80078 -1.605,2.53389 -2.4082,5.3207 -2.4082,8.36133 0,4.05418 2.1418,8.10793 6.4219,12.16211 l -8.0254,6.08203 c -4.2801,-8.10818 -5.351,-15.96307 -3.211,-23.56445 2.1401,-7.60152 7.4905,-11.40235 16.0508,-11.40235 z m -89.3848,4.17969 c -4.0795,0 -7.991,0.63346 -11.7363,1.90039 -2.14,4.05418 -2.14,7.09596 0,9.12305 12.8406,-6.08127 30.4977,-2.02734 52.9688,12.16211 h 12.8398 v -6.08203 h -12.8398 c -15.2482,-11.40221 -28.9937,-17.10352 -41.2325,-17.10352 z m 2.709,13.30274 c -6.4203,-0.50681 -10.1643,0.25422 -11.2343,2.28124 -1.0702,2.027 -1.6055,5.06692 -1.6055,9.1211 0,5.06755 3.744,7.60156 11.2344,7.60156 7.4903,0 18.1929,-2.0259 32.1035,-6.08008 -13.9106,-8.1085 -24.0777,-12.41748 -30.4981,-12.92382 z m -611.2226,45.34357 c 9.3275,0.25169 19.0541,1.79374 26.8437,3.64453 l 0.2618,53.86718 c -8.6748,2.03174 -17.5048,3.35423 -26.5294,3.61719 -17.585302,1.59241 -33.4848,-12.635 -33.3281,-30.35156 -3.03,-26.19583 24.5609,-31.34398 32.752,-30.77734 z m 61.4414,15.58402 c 0,0.29036 22.0336,10.18872 32.7695,15.4375 -10.6932,5.0867 -21.5503,10.28836 -32.623,14.92578 z m 617.1953,-28.24009 c -2.1402,0 -3.209,1.52 -3.209,4.56054 0,2.02709 1.0688,3.04102 3.209,3.04102 3.21,0 4.8164,-1.01393 4.8164,-3.04102 0,-3.04054 -1.6064,-4.56055 -4.8164,-4.56054 z m -542.4023,60.33384 h 86.5879 c -0.3153,2.81599 -0.5073,3.98565 -0.8458,7.11328 -1.6427,15.18239 5.2041,30.60923 20.5371,46.28125 l 26.2852,54.36328 c 41.6183,73.46296 89.2621,89.82293 142.9277,128.02358 l -26.2871,39.66992 c -40.523,0 -157.0453,-5.90171 -247.9484,2.91383 -29.5709,-24.50828 -37.6217,-17.35411 -68.2879,-30.08766 0,0 -4.291,-1.05282 -6.2578,-1.63672 v -5.6914 L 175.877,545.37611 c 15.9766,-5.80653 31.5655,-12.70281 46.8769,-20.06445 v 75.90039 h 27.6563 z m 107.7851,0 h 6.5781 c 3.1851,0 -0.8645,5.20448 -2.334,5.64258 -1.6428,0.48975 -3.0122,-0.7334 -4.1074,-3.67188 -0.092,-0.49262 -0.053,-1.45052 -0.1367,-1.9707 z m 325.4707,-28.40806 22.4727,4.5625 h -14.4473 c -5.3502,0 -8.0254,-1.52204 -8.0254,-4.5625 z m 6.4199,10.64257 8.0254,1.52149 12.8418,-1.52149 c 0,1.01355 -7.49,3.0414 -22.4707,6.08204 -3.2101,1.01352 -4.2809,0.50566 -3.2109,-1.52149 -1.07,-3.04064 0.5343,-4.56054 4.8144,-4.56055 z m 65.8106,44.08985 6.4199,27.36523 c -7.2226,6.84115 -15.9967,8.60501 -30.4258,13.64258 -9.386,3.27695 -22.7156,3.14838 -31.707,4.04492 l 15.584,-42.01172 c 16.0507,0 29.4285,-1.01392 40.1289,-3.04101 z m 108.416,52.66211 c 14.4441,-0.61332 23.7682,4.14324 29.8145,14.80664 -23.0758,7.92621 -106.7767,33.4689 -116.584,38.29687 -12.478,6.14271 -58.681,18.77053 -71.8262,23.23047 -13.9702,4.73988 -26.6538,9.46941 -38.5312,14.34375 15.9551,-17.83691 33.3396,-50.17191 41.748,-68.47461 13.8913,-5.47296 34.0965,-8.11062 46.5332,-11.07617 27.5034,-8.08169 35.4152,-8.27886 75.4551,-9.54492 11.7855,1.31629 22.2916,-1.06621 33.3906,-1.58203 z m 39.252,94.33593 c -6.4203,54.73061 -15.7824,97.01404 -28.0879,147.1836 -12.3057,50.16963 -21.1342,100.59503 -26.4844,151.27148 v 38.0059 c 5.3502,71.96 -28.3578,108.9554 -101.1211,110.9824 -207.5892,-6.0816 -325.3018,-3.5466 -353.123,7.6015 -27.8213,11.1491 -36.6498,41.8081 -26.4844,91.9786 10.1654,50.1687 11.2363,96.5422 3.2109,139.1093 -8.0254,42.5689 -19.529,106.4246 -34.5098,191.5606 1.0701,33.446 1.6055,59.0383 1.6055,76.7754 0,17.736 -16.854,23.8186 -50.5605,18.2441 -33.7065,-5.5732 -74.6389,-5.8259 -122.791,-0.7578 -48.1522,5.068 -65.809402,5.828 -52.9688,2.2813 12.8406,-3.5474 41.7338,-13.1769 86.6758,-28.8868 44.942,-15.7092 81.3253,-42.3152 109.1465,-79.8164 10.7004,-85.136 12.3067,-200.177 4.8164,-345.1113 -4.2802,-91.2175 25.1464,-138.3502 88.2793,-141.3906 133.7558,-23.3116 241.3014,-39.5286 322.625,-48.6504 V 890.56766 c -0.017,-24.59257 -0.2911,-72.10063 0,-82.09766 0,-18.66216 1.0972,-36.01664 2.7129,-52.7539 23.4608,-7.02356 53.2369,-9.12819 75.8281,-14.62891 43.4569,-10.58131 89.6523,-42.73023 101.2305,-44.07227 z m -12.8399,303.01558 h 44.9434 v 396.8028 H 755.8965 v 267.5762 l -300.1543,1.5214 1.6055,-474.3398 c -3.2102,-10.1355 0.5359,-15.2031 11.2363,-15.2031 h 314.5976 c 67.4131,0 103.2627,-48.1447 107.543,-144.4297 z m -468.6894,177.877 v 517.6289 h -62.0118 c 9.8439,-5.6523 14.9058,-14.6394 14.6622,-27.3262 -0.5351,-27.8707 -2.4091,-59.0394 -5.6192,-93.5 40.6618,-160.1366 56.9805,-260.7347 48.9551,-301.7832 -8.0253,-41.0469 -6.6868,-72.7215 4.0137,-95.0195 z M 789.6035,1428.761 H 935.668 v 235.6485 H 789.6035 Z M 33.0313,1728.5696 h 1011.6894 v 37.9668 H 33.0313 Z" />
</svg>
