<?xml version="1.0" encoding="UTF-8" standalone="no"?>
<svg
   width="1499.005"
   height="1796.7242"
   version="1.1"
   id="svg1267"
   xmlns="http://www.w3.org/2000/svg"
   xmlns:svg="http://www.w3.org/2000/svg">
  <defs
     id="defs1271" />
  <path
     id="path1265"
     style="fill:#000000;stroke:none;stroke-width:104.534"
     d="M 272.92602,0.0104677 C 255.19416,0.12156778 237.77078,1.1164818 220.6553,2.9928896 83.731677,18.004218 15.268272,106.09832 15.268272,267.27218 v 114.66797 l -9.7464011,-3.26758 c -9.8765756,10.69844 -6.43030165,20.64115 9.7464011,29.86133 v 6.09375 c -13.2607983,44.62871 -14.87011716,70.13596 -4.176081,75.44532 1.492114,0.72561 2.706911,1.20856 4.176081,1.91406 V 1400.237 c 5.306038,8.1056 1.046786,394.1875 1.046786,394.1875 l 50.792381,1.6426 c 0,0 -8.701123,-337.814 0.951624,-327.1113 96.429647,106.9177 225.995987,162.7152 388.255977,188.9922 l -33.49938,121.8027 33.24709,2.2285 c 0,0 185.3377,12.4718 292.83907,14.5801 110.54398,2.168 320.76808,-17.7559 320.76808,-17.7559 l 31.169,-2.9043 -29.3719,-123.9765 c 148.7121,-28.7373 268.71,-84.8374 359.6121,-186.2402 9.1182,-10.1715 0.6396,330.9511 0.6396,330.9511 l 51.0247,-0.2558 c 0,0 -4.4327,-391.2975 -1.2216,-396.1407 h -1.392 V 493.36007 c 2.7896,-2.66681 5.7193,-5.0711 8.3543,-8.02734 11.1398,-5.53042 12.9966,-28.44278 5.5703,-68.73633 7.4262,-10.27083 6.4961,-20.54162 -2.7861,-30.8125 -3.9027,1.58162 -7.4386,3.26444 -11.1385,4.90235 V 279.12375 C 1480.1298,109.25916 1414.2181,17.214146 1282.4,2.9928896 1150.5818,-11.228301 1028.0463,31.041001 914.79423,129.79953 l 3.98354,6.7832 c -4.37537,-6.16514 -9.38322,-11.99924 -15.12418,-17.44922 -24.1357,-22.911909 -58.48279,-34.369136 -103.04096,-34.369136 -45.48649,0 -80.53038,11.457227 -105.13012,34.369136 -2.48978,2.31896 -4.76438,4.74129 -7.00218,7.18164 C 535.01119,41.394144 396.47035,-0.76360567 272.92602,0.0104677 Z M 1213.4537,37.768281 c 14.0551,-0.172827 28.2185,0.481514 42.4911,1.96289 114.1804,11.851033 171.2703,92.438909 171.2703,241.761719 v 139.57422 c -21.3591,16.324 -35.9235,34.53745 -43.164,54.78515 v -1.18555 c -29.7057,41.08349 -59.6437,72.88345 -89.8134,95.4004 -30.1691,22.51687 -67.5347,49.9724 -112.0924,82.36523 -73.3357,-15.01123 -150.8515,-27.65105 -232.54155,-37.92187 V 450.96359 c 0,-79.0068 -24.36698,-124.8316 -73.10242,-137.47266 -1.65344,-0.42887 -3.23169,-0.69302 -4.87763,-1.10546 45.28985,-25.06683 68.23365,-60.16364 68.23365,-105.55469 0,-20.41068 -4.11331,-38.66568 -12.06792,-54.91016 l 6.4976,11.0625 C 1022.011,80.71732 1115.0689,38.978055 1213.4537,37.768281 Z m -921.19643,4 c 109.1472,1.901091 233.5782,41.911391 373.2867,120.029289 l 1.72178,-2.35937 c -5.74327,14.03017 -8.68412,29.41202 -8.68412,46.20898 0,40.01044 17.22157,72.27743 51.13098,97.04102 -27.68513,10.02871 -49.84557,32.95932 -66.44771,68.87305 -6.498,26.0722 -18.79913,50.17109 -36.90087,72.29296 -18.10182,22.12194 -13.69085,32.78813 13.22978,31.99805 -5.56985,7.90065 -4.64234,12.64055 2.78406,14.22071 -6.49809,3.95026 -7.1948,7.50569 -2.08915,10.66601 5.10557,3.16031 7.19575,10.6666 6.26744,22.51758 5.56977,7.90065 5.33692,17.7759 -0.69713,29.62695 -6.0338,11.85105 -13.92396,18.96187 -23.67109,21.33203 -9.74712,2.37017 -15.54925,7.30875 -17.40587,14.81446 -1.85654,7.50565 2.32144,12.24554 12.53267,14.2207 10.21124,1.97523 24.13433,-5.92463 41.77187,-23.70117 17.6377,-17.77653 26.92116,-30.61692 27.84939,-38.51758 h 30.63566 c 12.99608,8.69074 19.95659,26.86327 20.88483,54.51562 -54.76941,-0.78994 -103.50545,7.11174 -146.20709,23.70313 -84.4748,7.90066 -158.27454,18.56685 -221.39864,31.99805 C 310.93404,612.53529 274.96057,582.9057 242.93437,562.36398 210.90823,541.82221 177.72152,512.1945 143.37458,473.48117 h 1.39202 c -12.99616,-29.23251 -28.77624,-50.5649 -47.34219,-63.9961 L 66.788756,399.21359 V 268.45773 c 0,-139.84206 59.876584,-214.901053 179.626794,-225.171871 14.96871,-1.283863 30.24923,-1.789165 45.84172,-1.517578 z m 508.35536,73.810539 c 32.49032,0 58.01767,8.09855 76.5836,24.29493 18.56594,16.19637 27.84938,38.12107 27.84938,65.77343 0,27.65243 -9.97796,50.16919 -29.93632,67.55079 -19.95835,17.38147 -44.79127,26.07226 -74.49666,26.07226 -6.71784,0 -13.12365,-0.58372 -19.36666,-1.47266 -0.70735,-0.0466 -1.43436,-0.13861 -2.14005,-0.18164 -20.4959,-3.26975 -38.39564,-11.40348 -53.68709,-24.41796 -20.42246,-17.3816 -30.63344,-40.68936 -30.63344,-69.92188 0,-26.0722 9.28338,-47.20597 27.84939,-63.40234 18.56586,-16.19638 44.55921,-24.29493 77.97785,-24.29493 z m -4.59657,203.95899 c 21.04962,1.05567 42.54047,5.36103 64.47142,12.91601 38.98848,13.4312 58.48283,54.90956 58.48283,124.43555 V 733.02023 H 807.57497 V 497.18429 c 22.27916,-26.86228 35.73838,-46.81348 40.37985,-59.84961 4.64145,-13.03607 4.41081,-25.08356 -0.69492,-36.14453 -5.10551,-11.06096 -14.85275,-17.57958 -29.24141,-19.55468 -14.38851,-1.97523 -29.01061,1.777 -43.86323,11.25781 -23.20747,-11.06097 -52.44907,-20.54075 -87.72425,-28.44141 4.64147,-20.54177 25.06334,-34.36793 61.26689,-41.47851 9.05087,-1.77767 18.1907,-2.91441 27.41562,-3.40821 6.91868,-0.37034 13.88595,-0.37943 20.90254,-0.0273 z m -133.25614,63.875 c 36.20356,5.53042 73.33518,16.19661 111.39534,31.99805 -11.13962,48.98421 -25.29556,79.20417 -42.46899,90.66015 -17.1735,11.45598 -39.22175,17.18555 -66.1423,17.18555 -17.63762,0.79008 -25.29699,-2.1731 -22.97618,-8.88867 2.32073,-6.71564 0.69657,-12.44319 -4.8732,-17.1836 32.4904,0.79008 42.00678,-2.96404 28.54651,-11.25976 -13.46028,-8.29566 -22.97674,-10.46791 -28.54651,-6.51758 3.71316,-11.85098 -3.71322,-17.77734 -22.27907,-17.77734 20.42247,-29.23259 36.20486,-55.30479 47.3444,-78.2168 z m 19.14534,12.74023 c -8.12255,0.19752 -17.28844,1.48133 -27.49972,3.85157 v 11.85156 c 20.42263,-5.53055 37.36309,-5.92595 50.82337,-1.18555 13.46028,4.74047 31.33047,7.90031 53.60963,9.48047 l -6.96234,-5.92578 c -20.42247,-6.32056 -36.6685,-11.45599 -48.73644,-15.40625 -6.03392,-1.97519 -13.11186,-2.86354 -21.2345,-2.66602 z m 121.02003,9.01172 c 1.92563,-0.23597 3.73612,-0.21526 5.43311,0.0625 2.26273,0.37035 4.32232,1.1966 6.17892,2.48047 7.42638,5.13548 9.28355,12.83849 5.57031,23.10938 -3.71316,10.27089 -19.0319,29.62788 -45.95237,58.07031 v 122.0664 c -15.78108,0 -23.6711,-5.53089 -23.6711,-16.59179 -0.92831,-30.81273 -10.67556,-54.51408 -29.24141,-71.10547 31.56202,-18.96163 51.98395,-55.30663 61.26688,-109.03125 7.83254,-5.33298 14.63884,-8.35265 20.41566,-9.06055 z m -122.06459,9.35742 c -12.06783,-0.19752 -20.4217,3.65403 -25.06313,11.55469 l -12.53267,5.92578 v 7.11133 l 11.14064,1.18359 c 16.70939,8.6908 41.77295,6.71535 75.19159,-5.92578 h 30.63343 v -7.10937 h -32.02547 c -19.49416,-8.2957 -35.27657,-12.54272 -47.34439,-12.74024 z m -6.96235,8 c -2.78485,5.53055 -1.85513,10.66591 2.78626,15.40625 -6.49808,-1.58009 -12.06956,-3.16014 -16.71095,-4.74023 0.92823,-3.95039 5.57007,-7.50571 13.92469,-10.66602 z m 20.88704,0 25.06534,8.29493 c -9.28309,3.16018 -17.63895,5.1357 -25.06534,5.92578 5.56977,-3.95033 5.56977,-8.69016 0,-14.22071 z M 66.788756,514.22531 c 24.218257,9.14001 44.122834,14.48696 58.482824,14.95703 44.55826,69.52599 97.00855,130.3614 157.34773,182.50586 78.90519,6.32056 147.60157,4.93736 206.08414,-4.14844 58.48265,-9.08574 93.29346,-7.50387 104.433,4.74219 11.13954,12.24606 19.02963,28.24439 23.67109,47.99609 25.116,56.78036 45.01263,134.59063 57.4958,198.87696 9.80777,50.5084 21.73811,100.14 20.71221,137.9121 L 464.23344,945.08859 c -34.81727,-27.82095 -65.40154,-41.73047 -91.74984,-41.73047 -73.86913,0.83048 -106.57059,27.82026 -98.10137,80.9707 l 39.52338,248.52148 c -55.99004,12.042 -81.86721,49.2065 -77.6326,111.4922 -25.40738,4.5676 -48.69858,11.0038 -69.87135,19.3086 -20.70219,7.8896 -41.63884,11.0047 -62.81161,9.3437 -15.811825,-0.9301 -28.074443,3.9397 -36.801294,14.5879 -0.765176,-288.2377 0,-582.99221 0,-873.35739 z M 1427.2151,524.23898 v 874.81252 h -247.5242 c -23.0114,-38.7972 -55.6234,-54.1919 -97.9176,-45.9883 -42.3456,8.3048 -71.0482,-8.0985 -86.1043,-49.207 -14.58576,-40.6933 -39.28769,-49.4136 -74.10496,-26.1602 33.87624,-57.718 34.81807,-118.3435 2.82388,-181.875 -3.89188,-41.4538 -10.70899,-139.20642 -8.54912,-164.6035 7.83203,-66.44352 16.66335,-124.66319 26.80261,-172.125 h 6.96234 v -53.33008 c 6.498,-8.6908 39.22094,-8.09854 98.16775,1.77734 58.9468,9.87582 126.0186,11.65449 201.211,5.33399 68.6935,-49.77429 123.4655,-111.40064 164.31,-184.87696 4.8299,-0.89922 9.3381,-2.39908 13.9226,-3.75781 z m -715.72096,91.45508 c 25.06394,14.22115 45.95173,21.33203 62.66112,21.33203 v 60.44141 c -14.85277,-0.79008 -35.27457,-5.13646 -61.26689,-13.03711 -25.99224,-7.90073 -54.3064,-26.86218 -84.94019,-56.88477 z m -72.40753,62.81055 c 47.3431,22.91194 79.60231,35.94906 96.77574,39.10937 17.1735,3.16025 29.93814,5.1357 38.29291,5.92578 v 35.55274 h 132.28239 c -9.85739,42.64724 -18.86377,100.13165 -27.26736,168.14453 -3.6284,39.06954 5.94563,121.93877 2.87258,171.69927 l -127.03738,24.914 C 738.46345,1060.1663 722.77785,990.01807 716.79889,960.20187 705.93758,899.91482 681.76424,813.67649 662.75992,760.27804 650.69207,740.52634 642.79985,713.2676 639.08661,678.50461 Z m -271.5426,298.97265 h 57.16605 l 259.72033,158.83014 -290.06828,77.2343 c 6.587,-118.3429 -2.35176,-197.032 -26.8181,-236.06444 z m 520.8504,149.48634 c 19.76127,66.8532 7.9988,124.9891 -35.28755,174.4023 -65.40016,34.4648 -144.68199,39.862 -237.84184,16.1934 -93.16005,-24.0839 -181.61605,-19.308 -265.36589,14.3262 8.46896,-26.16 77.63469,-68.9297 207.49388,-128.3086 z m -740.84376,325.418 H 1346.4532 c -140.0443,146.8172 -340.3411,166.7686 -600.84224,169.957 -259.57353,-3.1882 -458.94373,-23.1396 -598.06031,-169.957 z m 868.26845,208.9707 16.6866,70.4277 c -61.32953,5.1777 -204.06895,16.3262 -282.34464,14.791 -87.60206,-1.718 -212.8327,-9.6042 -256.50473,-12.4179 l 18.81338,-68.4063 c 72.08003,8.4296 149.87786,12.113 233.83616,12.3066 97.85228,-0.2251 187.63338,-4.9926 269.51323,-16.7011 z" />
</svg>
