<?xml version="1.0" encoding="UTF-8" standalone="no"?>
<svg
   width="1095.1024"
   height="1799.9976"
   version="1.1"
   id="svg1"
   xmlns="http://www.w3.org/2000/svg"
   xmlns:svg="http://www.w3.org/2000/svg">
  <defs
     id="defs1" />
  <path
     id="path3"
     style="color:#000000;fill:#000000;fill-rule:evenodd;stroke-width:1.00804;stroke-linecap:round;stroke-linejoin:round;-inkscape-stroke:none"
     d="m 666.83082,0.1919823 c 0,0 -27.18349,-1.8290611 -59.04467,5.8040589 C 590.97844,10.022744 577.93502,16.882261 563.00945,22.32537 533.04592,8.16158 526.38524,4.016842 495.03817,2.4462719 425.96298,-1.014562 344.41057,25.23996 288.7342,74.272484 215.44443,138.81662 240.08526,152.03961 314.7678,95.39784 355.78689,64.287597 462.74655,14.078226 529.5731,50.268723 c -4.05014,4.739149 -7.67258,9.656256 -10.52526,14.886191 -14.34142,26.292544 -22.70622,46.012556 -25.09645,59.158876 l -5.3788,16.13442 c -14.34142,19.12186 -30.47649,44.22027 -48.40325,75.29329 -8.36577,20.31699 -7.76931,31.67022 1.79162,34.06045 9.56097,2.39024 17.33126,6.57166 23.3068,12.54724 -7.17068,3.5854 -9.86093,7.47053 -8.06819,11.65339 1.79266,4.18294 6.2743,6.27461 13.44501,6.27461 1.1951,-1.19515 -0.89661,0.59825 -6.2746,5.3788 -5.378,4.78043 -4.48125,8.96381 2.6894,12.54921 7.17066,3.58532 10.75561,11.35365 10.75561,23.30484 0,15.53647 7.17174,25.09832 21.51322,28.68363 -17.3158,75.73387 -42.85611,92.69484 -85.75752,138.57878 -15.16803,15.16801 12.31757,40.45051 23.67693,29.09117 52.58774,-55.22817 74.49146,-91.17954 96.14104,-164.08672 13.14631,0 25.69642,-1.19306 37.64764,-3.58323 1.78664,4.16884 3.20649,8.4526 4.43967,12.79333 1.35019,24.75236 -17.37898,54.43241 -24.45265,76.52577 -34.55674,107.93153 -72.90319,219.14825 -71.70809,544.22107 -93.21944,21.51226 -198.12984,21.79306 -313.89956,65.10476 -113.437513,42.439 -139.734928,67.8127 -151.72455,108.0464 -10.6621253,35.7795 -5.4308429,68.297 -3.7958755,76.697 C 3.6234211,1240.2383 0.0902289,1249.0137 0,1258.1587 V 1758.94 c 5.04e-4,20.0785 16.277417,36.3555 36.356082,36.356 20.079431,6e-4 36.357554,-16.2767 36.358057,-36.356 V 1551.8269 H 850.86559 v 211.8146 c 5e-4,20.0787 16.2774,36.3555 36.35608,36.356 20.0795,6e-4 36.3575,-16.2765 36.35801,-36.356 v -505.4828 c 0,-20.0783 -16.27942,-36.3547 -36.35801,-36.3561 H 781.4255 c 16.88635,-11.3074 29.99288,-24.4837 38.27971,-39.8507 35.08273,-65.0576 25.91629,-155.7918 9.18448,-253.79173 V 732.3736 C 829.18141,656.15663 803.3759,524.58128 741.81307,410.0298 l -25.94089,-49.09769 c 65.09023,-18.91622 100.68272,-62.21671 118.87075,-93.46234 30.32462,-52.09558 28.2372,-160.91864 -27.42946,-210.963848 66.59099,-39.286656 176.07072,11.919054 217.68573,43.481215 74.6824,56.641773 99.3214,43.418793 26.0316,-21.125352 C 953.16762,-7.323334 810.38203,-4.615167 772.35523,29.958455 739.65407,9.5738035 705.4454,0.14884861 666.83082,0.1919823 Z M 657.06551,30.46641 c 21.82117,-0.156285 40.4121,5.322679 61.03119,13.970691 69.91729,29.32461 111.24015,80.863109 83.99164,194.548189 -17.3824,72.52274 -125.06854,107.50357 -131.76085,109.24547 0.0282,0.008 0.0544,0.007 0.0826,0.0157 -0.0675,0.0301 -0.0826,-0.0157 -0.0826,-0.0157 -19.63012,4.04452 -44.88696,4.01232 -55.15437,2.37438 -7.31643,-20.36285 -26.66228,-28.12306 -58.47765,-22.8205 -39.43892,6.57314 -56.17244,-4.48182 -50.19684,-33.16464 22.70726,-13.14631 30.77576,-22.10955 24.2026,-26.89005 -6.57315,-4.78045 -19.42349,-7.17238 -38.54541,-7.17238 -1.19507,-9.56092 -10.75293,-17.92581 -28.67968,-25.09645 16.73159,-38.24375 32.86471,-65.13554 48.40128,-80.67208 15.5365,-9.56093 32.86465,-10.45766 51.98649,-2.6894 19.12187,7.76827 38.84376,12.24992 59.16087,13.44502 l -1.79359,-10.75562 c -11.95119,0 -27.18955,-4.48159 -45.71388,-13.44503 -18.52426,-8.96335 -38.54256,-9.26162 -60.05468,-0.8958 l 14.34083,-16.13442 16.13638,-32.268835 c 13.14629,-27.487735 35.55439,-45.714495 67.22509,-54.677858 16.55308,-4.68484 30.80786,-6.806919 43.90058,-6.900687 z M 543.97694,156.1613 c -7.95498,-0.16808 -15.06955,1.76666 -21.34389,5.80012 l -17.92604,14.34083 1.79162,10.75562 h 7.17041 c 22.7072,8.36579 48.40402,6.57436 77.08688,-5.37683 l 26.88806,5.37683 V 174.50866 H 590.75592 C 572.8291,162.55747 557.23525,156.44142 543.97694,156.1613 Z m -8.79666,9.38336 c -3.58534,5.97562 -2.98488,11.35593 1.79555,16.13638 -5.97551,-2.39021 -11.95236,-4.18367 -17.92799,-5.37879 2.39026,-4.7805 7.76663,-8.36734 16.13244,-10.75759 z m 19.7216,1.79359 25.09841,12.54724 c -9.56092,1.19514 -17.92775,1.79555 -25.09841,1.79555 5.97551,-3.58536 5.97551,-8.36719 0,-14.34279 z m -67.05775,99.32657 c 1.38171,-0.0373 2.8178,0.0179 4.31169,0.16735 5.97567,0.59758 12.55091,1.19404 19.7216,1.79162 l 10.75563,0.89778 -39.43729,5.3788 c -8.3658,-1.19515 -10.45946,-2.98855 -6.27657,-5.3788 3.13719,-1.79267 6.77979,-2.74475 10.92494,-2.85675 z m 34.78892,8.23555 c -3.5854,2.3902 -8.06503,5.07839 -13.44306,8.06622 -5.378,2.98781 -9.86165,4.48299 -13.44698,4.48299 -5.97561,0 -9.26225,-0.30019 -9.85982,-0.89778 -0.59757,-0.59751 0.29916,-2.68921 2.6894,-6.27461 z m 132.00108,113.27152 c 20.1819,-0.37066 39.05884,23.30843 53.81381,51.43742 54.62091,104.12812 77.11906,199.84312 76.5215,293.6601 -0.86641,136.01852 -5.40346,187.02453 -2.68742,263.01364 1.44956,75.27305 21.03905,104.82165 -22.13537,179.26435 -21.04993,36.2948 -193.75257,37.7361 -305.81171,39.8369 -100.86552,1.8907 -329.43811,15.4756 -392.396107,-16.599 -38.712629,-47.8563 42.443747,-73.8074 75.624047,-90.3331 136.94532,-66.9141 294.97198,-63.6312 395.95966,-82.7532 -4.40708,-86.9197 -0.50105,-109.65614 9.43455,-270.91834 7.76829,-126.08526 32.4726,-221.44089 57.05618,-309.74143 11.6474,-41.83568 38.92378,-56.57906 54.62086,-56.86734 z M 72.714139,1294.5168 H 850.86559 v 184.5958 H 72.714139 Z" />
</svg>
