<?xml version="1.0" encoding="UTF-8" standalone="no"?>
<svg
   width="1068.4948"
   height="1799.9774"
   version="1.1"
   id="svg1"
   xml:space="preserve"
   xmlns="http://www.w3.org/2000/svg"
   xmlns:svg="http://www.w3.org/2000/svg"><defs
     id="defs1" /><path
     id="path1"
     style="fill:#000000;stroke:none;stroke-width:94.6367"
     d="m 787.23117,0.02277729 c -1.9669,-0.06097293 -3.98756,5.5489e-4 -6.06116,0.18354624 L 613.57341,298.80771 c -5.85488,9.75839 -11.95409,14.6363 -18.29689,14.6363 -22.4438,2.9275 -92.94772,-41.96065 -211.50957,-134.66338 -26.34711,-27.32286 -40.00853,-54.64406 -40.98451,-81.966945 -0.97582,-27.322979 7.19817,-42.936541 24.51893,-46.839432 17.32074,-3.903603 29.03064,-1.342542 35.12956,7.684203 6.09889,9.026334 5.73148,18.052574 -1.09919,27.078282 -6.83075,9.026731 -12.44153,9.026731 -16.83267,0 -4.39119,-9.02599 -9.02506,-13.539141 -13.90417,-13.539141 -9.27034,3.415287 -11.46617,11.466216 -6.58706,24.151843 4.87909,12.68584 14.14893,18.54281 27.8104,17.5648 13.66144,-0.9758 23.17554,-5.61148 28.54252,-13.906248 5.36694,-8.294443 8.05132,-18.052766 8.05132,-29.274651 0,-11.221959 -3.65904,-20.979871 -10.97775,-29.274628 -7.31867,-8.294821 -17.93068,-13.539549 -31.83603,-15.735519 -13.90542,-2.195551 -27.81123,1.463009 -41.71665,10.977743 -13.90537,9.514181 -21.95633,25.127481 -24.15184,46.839433 -2.1956,21.71195 3.78046,45.62027 17.92982,71.72339 14.14938,26.10324 39.64404,52.3285 76.48118,78.67548 36.83713,26.34713 71.84385,51.47445 105.02163,75.38196 0.97586,3.90738 -1.95068,5.36873 -8.78135,4.39069 H 323.02334 c 15.61307,89.28731 46.57733,221.63303 49.99272,258.71403 0.62122,-0.49856 1.25242,-0.91842 1.87465,-1.40858 -5.79171,8.51135 -11.39782,17.57678 -16.63675,27.74648 -8.76209,17.00877 -29.12173,48.70806 -61.07768,95.09569 -17.5242,18.55501 -13.40109,36.59517 12.36979,54.11942 8.24672,21.64756 19.07036,32.98512 32.47125,34.0159 11.33919,24.74011 32.47062,36.33759 63.39574,34.79135 30.92506,-1.54624 59.78893,-3.86574 86.59068,-6.95826 l 13.91652,27.83309 c -25.77089,22.67841 -44.84073,44.06797 -57.21083,64.16912 -12.37002,20.10133 -18.55471,47.67538 -18.55471,82.72397 v 94.3222 l 7.72959,1.5468 c -18.55504,18.5552 -20.61661,42.0059 -6.1849,70.354 14.43171,28.348 29.38054,52.8306 44.8431,73.4475 l 7.72958,261.3165 -270.59506,-340.1755 c -12.20982,-22.9834 -32.10235,-31.2399 -59.32473,-25.4492 V 775.83698 c 22.6472,-49.0689 44.66512,-80.52366 66.05407,-94.36356 13.83997,5.03272 23.90567,6.29044 30.19651,3.77406 6.29091,-2.51636 3.7755,-8.80688 -7.5481,-18.87232 -23.90532,-25.16347 -62.28154,-37.74459 -115.12492,-37.74459 -52.843425,0 -91.846385,12.58112 -117.009915,37.74459 -11.32359283,10.06544 -13.8410208,16.35596 -7.5501558,18.87232 6.290856,2.51638 15.7276958,1.25866 28.3094658,-3.77406 22.64719,13.8399 45.29395,45.29466 67.94111,94.36356 v 367.67042 c -36.42859,24.498 -47.45981,53.6318 -32.83627,87.4487 86.590215,176.273 143.286105,323.6836 170.087855,442.2297 l -114.42375,54.1195 7.73165,72.6721 H 784.24697 L 737.8592,1667.0009 c 27.83258,-120.6079 45.87273,-316.4677 54.11942,-587.5778 h 54.11737 c 0,-227.81488 -26.32797,-323.99496 -68.9867,-455.03884 74.23125,-25.92418 144.88147,-82.16906 211.94887,-168.73497 48.76894,-70.14055 74.22424,-109.19301 76.36774,-117.15634 7.4252,-23.62206 1.3765,-34.85669 -18.1484,-33.70657 -33.1536,8.15703 -57.57854,17.59486 -73.27424,28.31567 14.5086,-14.24284 26.92884,-44.52663 37.26204,-90.85144 2.3721,-20.71196 -2.0122,-34.16869 -13.15354,-40.36993 -14.0121,0.49875 -27.5824,11.25826 -40.7122,32.2774 -5.5501,16.65406 -34.0806,35.39651 -85.59056,56.22709 -51.50992,20.83064 -93.90922,42.51278 -127.19571,65.04562 -16.95171,11.47524 -66.60471,52.73175 -110.34036,95.30397 L 820.69026,19.235359 C 812.1518,6.8544773 800.99934,0.44955884 787.23117,0.02277729 Z m -0.93838,28.72606871 8.78342,3.658551 C 720.69161,186.27668 654.60622,340.69488 578.54492,493.72385 517.79254,486.1889 460.33809,507.40312 399.70661,518.82228 393.36381,463.20067 367.42786,384.44026 359.62129,340.52846 h 261.2713 z M 988.17946,232.83405 c -11.2521,41.80734 -26.0174,73.86202 -44.2965,96.16399 -18.2792,22.302 -53.93965,44.72971 -106.9808,67.2832 -53.04122,22.55354 -95.69766,48.1709 -127.96907,76.84827 -32.27152,28.67742 -55.39336,49.14119 -69.36618,61.39323 -2.83373,-9.30285 -8.32915,-16.65285 -16.48411,-22.05034 1.60749,-5.97246 25.95503,-31.97923 73.0412,-78.01966 47.08616,-46.04049 102.21225,-80.30981 165.3796,-102.80668 63.16746,-22.49684 105.39316,-55.43426 126.67586,-98.81201 z m 48.47504,99.51731 -21.5905,32.61973 c -45.39934,77.45263 -103.28034,139.8023 -173.64328,187.05043 -74.53626,42.9224 -126.21752,66.3764 -155.04531,70.36023 -32.00563,-0.0742 -39.052,-11.57722 -21.13673,-34.51091 63.70004,-66.12181 128.91456,-112.08831 195.64208,-137.89706 42.72438,-11.98621 87.6112,-39.93623 134.6592,-83.85192 -64.1617,36.10697 -112.88564,58.48612 -146.17314,67.14092 -33.28754,8.65478 -84.74991,37.23974 -154.38533,85.75132 24.1165,-34.07493 70.12164,-65.19387 138.0167,-93.35717 67.89504,-28.16328 135.78097,-59.26567 203.65631,-93.30557 z M 578.64597,528.9483 c 4.52805,-0.15786 8.31339,-0.10869 11.13033,0.17942 15.39072,6.27745 28.90729,19.52359 40.54729,39.73679 -9.68411,24.08155 -9.83699,46.45777 -0.45577,67.13062 -10.02394,84.83873 -32.20222,130.56934 -62.09648,182.11118 v 63.39575 c -12.37002,1.03075 -24.22549,-29.37871 -35.56472,-91.22883 19.58587,-8.24669 36.59422,-16.49289 51.02596,-24.73963 0,-4.12329 -2.57749,-10.82387 -7.73167,-20.10144 -26.80173,16.49343 -58.75687,27.833 -95.86697,34.018 -37.11009,6.18502 -64.94209,6.69892 -83.49719,1.54467 -18.55503,-5.15415 -27.83308,-10.82294 -27.83308,-17.00796 13.40085,-4.1233 25.25632,-8.7623 35.56471,-13.91654 6.185,-8.24663 5.15324,-10.82411 -3.09347,-7.73164 -12.37003,6.18501 -29.89426,9.79422 -52.5727,10.82512 -27.83258,-24.74011 -36.85263,-38.91506 -27.0597,-42.52298 9.79293,-3.60794 15.97756,-0.25658 18.55469,10.05174 2.57707,10.3084 7.47413,9.53453 14.68991,-2.32011 7.21588,-11.85457 1.0312,-23.45211 -18.55469,-34.79133 23.70927,-28.86345 43.29502,-56.17957 58.75757,-81.95047 7.21586,-20.61673 26.2858,-37.11123 57.21086,-49.48125 27.05948,-10.82378 95.14864,-22.0962 126.84512,-23.20111 z m -122.2049,66.49746 c -21.64757,0 -31.95743,13.3991 -30.92656,40.20083 h 23.19492 c 15.46257,0 23.19286,-9.27599 23.19286,-27.83101 1.03083,-8.24672 -4.12205,-12.36982 -15.46122,-12.36982 z m 283.45776,54.15243 c 13.2082,2.48745 -1.78328,-10.60075 26.56476,73.41242 28.34798,84.01316 42.0071,191.99408 40.97626,323.94129 h -54.11944 c 0,-102.05295 -40.71719,-153.08004 -122.15332,-153.08004 V 1046.9519 H 601.78724 V 832.02286 c 24.74012,-64.94272 46.79125,-102.92114 60.30023,-172.94418 27.67993,4.2475 53.61646,1.08786 77.81136,-9.48049 z M 127.92986,653.166 c 27.67985,0 51.58637,4.40198 71.71719,13.20916 -26.42174,23.90536 -50.32823,55.98889 -71.71719,96.2506 C 106.54081,722.36405 82.634365,690.28052 56.212635,666.37516 77.601625,657.56798 101.5081,653.166 127.92986,653.166 Z m 370.7661,244.83667 c 7.65075,-1.208 14.69811,4.63195 21.14087,17.51737 -18.55511,10.30839 -30.41058,54.119 -35.56474,131.43186 H 465.7174 v -61.8513 c -1.03086,-36.07921 5.15383,-61.84965 18.55469,-77.3122 5.02533,-5.79843 9.83341,-9.06092 14.42387,-9.78573 z m 72.1668,31.4339 V 1077.8763 H 662.0916 V 929.43657 c 35.04844,1.03086 52.57266,50.51025 52.57266,148.43973 l 32.47125,1.5468 c -8.24664,306.1583 -28.86219,504.0799 -61.849,593.7627 l 23.19285,71.1275 H 198.2158 l 105.14536,-46.3878 c -52.57267,-165.9648 -101.02232,-291.212 -145.34823,-375.7405 -44.326,-84.5286 -52.83017,-131.6883 -25.51298,-141.4812 27.31713,-9.793 63.65332,17.7809 109.01017,82.7236 l 230.39217,298.4282 h 52.57268 c -7.21584,-126.7929 -9.79332,-243.7938 -7.73164,-351.0009 -22.67842,-27.8326 -39.94468,-51.2835 -51.79931,-70.3541 -11.85464,-19.0703 -4.38026,-39.4301 22.42155,-61.0775 v -1.5468 h 40.20287 c -1.03083,-97.92948 13.40009,-147.40887 43.29432,-148.43973 z" /></svg>
