<?xml version="1.0" encoding="UTF-8" standalone="no"?>
<svg
   width="1434.8145"
   height="1793.0553"
   version="1.1"
   id="svg6268"
   sodipodi:docname="US9C26VARA.svg"
   inkscape:version="1.2.1 (9c6d41e410, 2022-07-14)"
   xmlns:inkscape="http://www.inkscape.org/namespaces/inkscape"
   xmlns:sodipodi="http://sodipodi.sourceforge.net/DTD/sodipodi-0.dtd"
   xmlns="http://www.w3.org/2000/svg"
   xmlns:svg="http://www.w3.org/2000/svg">
  <defs
     id="defs6272" />
  <sodipodi:namedview
     id="namedview6270"
     pagecolor="#ffffff"
     bordercolor="#000000"
     borderopacity="0.25"
     inkscape:showpageshadow="2"
     inkscape:pageopacity="0.0"
     inkscape:pagecheckerboard="0"
     inkscape:deskcolor="#d1d1d1"
     showgrid="false"
     inkscape:zoom="0.45290156"
     inkscape:cx="898.65002"
     inkscape:cy="894.23405"
     inkscape:window-width="1920"
     inkscape:window-height="1017"
     inkscape:window-x="1072"
     inkscape:window-y="-8"
     inkscape:window-maximized="1"
     inkscape:current-layer="svg6268" />
  <path
     id="path6266"
     style="fill:#000000;stroke:none;stroke-width:101.447"
     d="m 766.29883,1e-4 c -3.54855,0 -6.80082,2.4354395 -9.75782,7.3045383 -4.73112,52.3427377 -10.64539,90.3839947 -17.74218,114.1208517 -7.0968,23.73671 -14.78487,41.08282 -23.06446,52.0383 -10.64512,2.43455 -18.6285,4.56413 -23.95117,6.38996 -5.32252,1.82598 -11.53407,3.65149 -18.63086,5.4774 -7.09672,1.82592 -15.96809,7.60857 -26.61328,17.34677 l -127.74219,25.56387 v 10.9548 c 1.1828,17.04186 8.28017,29.21503 21.29102,36.51868 23.65591,6.0863 72.15101,20.08513 145.48437,41.99607 -24.83869,38.95271 -38.44104,79.12362 -40.80664,120.51082 -15.63503,9.70553 -29.54946,25.11794 -42.31836,43.63828 -6.37138,0.99019 -15.96111,2.53702 -18.29296,2.83016 -116.38533,14.63073 -230.36897,30.95835 -338.48243,47.05939 -5.21125,-11.90278 -12.08077,-23.42351 -21.14453,-33.38097 -11.08707,-24.50126 -29.10464,-26.33056 -54.04883,-5.48544 -24.94411,20.84513 -36.88272,38.87566 -35.8164,54.08856 0.20932,0.54845 0.39796,1.01698 0.60351,1.5598 -44.666751,6.82708 -93.990607,14.20744 -133.54687,20.29753 l 7.3964839,50.89257 C 57.437014,612.2824 115.91268,603.48673 171.53711,595.04662 l 17.06836,24.7699 c -0.0146,5.75144 2.05686,10.03507 5.41797,13.08947 1.87734,5.37042 5.88296,10.6286 12.75,15.17994 72.1505,68.16717 202.4982,125.21764 298.30468,166.60337 68.44694,-22.72328 137.91407,-263.26087 137.91407,-263.26087 24.83869,49.90812 37.25781,97.99118 37.25781,144.24754 0,58.42913 -0.88791,104.38261 -2.66211,137.85759 -1.7742,33.47506 -10.3483,90.99165 -25.72461,172.54914 l -7.04102,34.8222 -482.15429,-0.3176 c -3.54025,-0.645 -46.54627,-8.8048 -71.416017,-7.7287 C 66.38223,1033.9346 0,1070.917 0,1070.917 c 0,0 65.994841,31.227 90.919922,30.0282 24.925108,-1.1989 70.900388,-8.9005 70.900388,-8.9005 l 472.60156,0.3115 -37.56054,185.7894 h 15.96875 c -13.01079,25.5629 -18.33435,46.5618 -15.96875,62.9951 2.36559,16.4333 -1.47746,54.776 -11.53125,115.0315 -10.05379,60.2546 -25.13468,120.208 -45.24219,179.8535 -10.64519,24.3457 -21.29036,42.3013 -31.93555,53.8655 -10.64519,11.5643 -30.75433,22.5197 -60.32422,32.8664 -29.56989,10.3473 -57.95774,16.7376 -85.16211,19.1719 -27.20429,2.4345 -40.80664,17.041 -40.80664,43.8212 -2.36552,4.8692 17.15095,7.3046 58.54883,7.3046 24.83877,0 48.20032,-4.5649 70.08203,-13.6946 21.88171,-9.1291 47.9031,-7.911 78.06446,3.6523 30.16129,11.5642 70.22056,16.0918 78.95312,-11.8694 -5.91399,-48.6904 -1.77359,-91.2956 12.41992,-127.8133 59.13985,-118.0755 85.45664,-195.9841 78.95117,-233.7191 -6.50532,-37.7356 0.29679,-81.5578 20.4043,-131.4656 h 72.74219 c 0,2.4346 4.73097,9.1289 14.19336,20.0845 3.54832,34.0838 13.60292,59.0377 30.16211,74.8624 33.11828,124.1619 50.86103,208.7658 53.22656,253.8056 -3.54833,42.6041 -37.11796,85.3041 -102.17188,114.5189 -33.11821,7.3037 -57.07055,10.9547 -71.85546,10.9547 -14.78499,0 -22.17774,13.3908 -22.17774,40.171 h 111.77539 c 28.38709,-15.8248 68.89874,-17.3461 121.53321,-4.5648 52.63447,12.7808 65.34891,-14.3039 38.14453,-81.2545 -5.914,-25.562 -7.23706,-60.3501 -2.50586,-90.7821 3.54832,-124.162 -2.95847,-201.1559 -19.51758,-230.9794 -16.55911,-29.8234 -26.02105,-64.8209 -28.38672,-104.9912 l 14.19336,1.8272 c -2.31181,-22.9985 -4.62399,-94.9517 -6.93555,-189.2507 l 43.21485,0.028 c -1.98742,33.8742 7.83368,41.0146 29.60351,21.0996 2.4628,31.6825 17.23982,41.8219 44.33002,30.4162 26.3965,-11.1133 41.0087,-28.2926 44.0235,-51.4374 l 311.9932,2.3548 v -51.4574 l -304.4327,-2.3508 c 3.4108,-11.6065 0.8135,-42.54431 -6.3105,-49.01715 1.5507,-3.7603 2.2959,-8.20498 1.7539,-13.4875 16.5593,-116.8579 21.8827,-202.06857 15.9687,-255.62866 1.6566,-40.91544 -20.6297,-93.56897 -46.8281,-155.30686 l 75.2149,-35.50763 275.3378,-129.71887 c 28.5893,-14.33409 29.2422,-31.8272 29.2422,-31.8272 -10.8755,1.21295 -64.2438,8.48296 -144.0488,19.32868 -79.805,10.84573 -184.1111,25.05732 -290.543,39.4614 -4.60686,0.62348 -13.22362,3.60718 -19.79291,5.38695 -9.25542,-3.6168 -19.89564,-6.23893 -32.27344,-7.61611 v -74.86448 c 0,-73.03641 -33.71149,-131.46499 -101.13086,-175.28681 1.18287,-40.16999 -2.06962,-74.56017 -9.75781,-103.166049 C 829.57931,45.343991 824.5531,23.129074 822.1875,7.3045383 813.90798,-1.2163984 806.81055,0.001343 800.89648,10.956807 c 3.54847,14.607268 3.25315,37.126139 -0.88672,67.557931 -4.13972,30.431862 -6.80157,47.473912 -7.98437,51.125742 1.1828,-25.56277 -4.3e-4,-49.60319 -3.54883,-72.122769 C 784.92816,34.998224 781.3805,18.260002 777.83203,7.3045383 773.6922,2.4354395 769.84731,0 766.29883,0 Z m -79.67188,189.8396 c 2.99398,-0.11412 5.89396,0.21006 8.70313,0.97086 11.23659,3.04319 22.17903,7.60612 32.82422,13.6925 h 19.51562 v 7.30453 H 726.3789 c -13.01064,-7.30365 -23.65595,-11.86859 -31.93554,-13.6945 -8.27959,-1.82592 -19.5154,1.5213 -33.70899,10.04223 l -3.54883,-5.4774 c 10.64518,-8.21659 20.45955,-12.49585 29.44141,-12.83822 z m 160.39844,9.18595 c 54.40865,46.25645 81.61328,97.38273 81.61328,153.37722 v 85.81929 l -39.03125,-10.95481 c 0,-9.7382 -11.23783,-14.60907 -33.71094,-14.60907 -20.10757,0 -30.16211,8.52202 -30.16211,25.56388 v 16.4342 115.0314 h -47.90234 v -98.59921 c 0,-62.08087 -8.87137,-115.64259 -26.61328,-160.68175 40.21508,-8.52085 54.40799,-34.08306 42.58008,-76.6876 21.29023,-2.43455 39.03297,-13.99988 53.22656,-34.69355 z m -163.61524,6.39198 c 2.1808,0 4.3799,0.30393 6.59766,0.91257 8.87092,2.43447 18.03761,6.08569 27.5,10.95479 l 31.93555,1.82714 v 14.60707 l -33.70899,-5.47741 c -17.74191,7.30366 -30.75361,10.04101 -39.0332,8.2151 -8.27952,-1.82584 -14.78436,-2.73769 -19.51563,-2.73769 l -1.77539,-5.47741 8.8711,-14.60907 c 6.20962,-5.47766 12.58658,-8.21509 19.1289,-8.21509 z m 7.48438,6.38996 c 4.73112,4.8691 5.32379,10.95569 1.77539,18.25934 l 19.51562,-7.30455 z m -14.19336,1.82513 -14.19336,14.60907 14.19336,1.82514 c -4.7312,-4.86918 -4.7312,-10.34791 0,-16.43421 z m 26.61328,122.33796 c 24.83877,19.47632 28.97911,36.21458 12.41992,50.21317 -16.55911,13.99866 -24.83984,41.69239 -24.83984,83.07957 V 569.68776 H 666.05664 V 469.26342 c 1.18287,-57.21177 13.6019,-101.64367 37.25781,-133.29274 z m 10.64453,118.68568 h 42.58203 v 140.59528 h 86.93555 V 454.65636 h 46.13086 l 39.03125,10.9548 c 0,34.08354 -10.64518,70.29736 -31.93555,108.64144 -21.29037,38.34408 -31.93554,95.25318 -31.93554,170.72398 L 708.63672,827.1436 c 0,-129.03098 -7.68807,-206.32927 -23.06446,-231.89196 h 28.38672 z m 230.64844,78.51273 c 50.30159,117.48489 86.86338,191.11345 98.69138,208.15522 -11.828,55.99458 -17.7422,116.25075 -17.7422,180.76623 l 8.8711,54.78002 v 1.82509 c -1.2197,6.13671 -0.2859,11.24098 1.8984,15.41921 -18.8689,5.11303 -36.58328,20.91954 -53.18743,47.01514 l -62.56641,-0.042 c -0.85919,-39.3759 -1.71886,-67.94605 -2.57812,-117.17213 0,-48.69092 -7.68814,-87.03603 -23.06445,-115.03342 10.64511,-29.21452 8.27865,-54.16887 -7.09766,-74.86247 1.18273,-69.38459 20.10871,-136.3352 56.77539,-200.85069 z m -373.85938,4.94272 c -31.3364,65.04758 -55.93546,140.83867 -83.64843,175.70893 -41.66395,-22.63024 -120.7001,-57.68811 -235.97071,-104.79218 2.00919,-8.02327 2.88717,-16.95452 2.97071,-26.52469 100.53804,-14.93003 206.59843,-30.08589 314.40429,-43.85939 0.038,-0.10708 1.40433,-0.3471 2.24414,-0.53267 z m 299.3418,223.29898 c 11.82805,10.95548 12.42058,27.99759 1.77539,51.12575 l -157.90625,63.90767 c 15.37639,-15.8245 15.37639,-27.99775 0,-36.51867 z m 5.32227,71.21021 c 13.01071,19.47638 19.51758,52.95278 19.51758,100.42634 v 108.02436 c 0.41894,4.6748 -0.41708,42.6576 0,51.4554 v 147.2727 h -31.93555 c -43.33038,-48.3078 -77.20108,-97.4294 -101.63477,-147.3591 -4.91915,-8.7132 -20.429,-47.3794 -21.61133,-51.4715 -17.10201,-48.02582 -25.78906,-96.77334 -25.78906,-146.26566 z m -178.47266,16.0925 c 6.7641,-0.68475 10.367,3.07992 10.81055,11.2965 0.5914,10.95547 -5.61812,18.86764 -18.62891,23.73674 v -32.8664 c 2.95702,-1.2173 5.56364,-1.9386 7.81836,-2.16684 z m -2.49609,62.42224 c 0,43.27186 7.10276,86.54515 20.75781,129.81736 4.12857,13.0211 16.12066,43.4723 19.68359,51.4735 21.64879,49.1257 51.60133,98.2532 90.84961,147.3792 H 635.89453 l 26.26367,-147.4275 c 1.62668,-8.8311 7.54133,-39.2431 9.16406,-51.4534 z m -60.32227,341.44796 h 262.58203 l 3.54883,9.1297 H 632.3457 Z"
     sodipodi:nodetypes="scsccsccccccccccsccccccccccsscccscsccccsscscscsccccsccccccscccccscccccscccccccccccssccscsccscscssssccccsccscsccsscccscccssccccscccscccccccccsscccccccccccsccccccccccccccccscccccccccccccsccccccccssccsccccccccccccc" />
</svg>
