<?xml version="1.0" encoding="UTF-8" standalone="no"?>
<svg
   width="1591.8396"
   height="1799.994"
   version="1.1"
   id="svg1"
   xml:space="preserve"
   xmlns="http://www.w3.org/2000/svg"
   xmlns:svg="http://www.w3.org/2000/svg"><defs
     id="defs1" /><path
     id="path1"
     style="fill:#000000;stroke:none;stroke-width:77.7164"
     d="M 390.57444,0 C 359.85667,0 344.58113,14.8152 344.58113,44.4738 V 349.572 l -21.40252,0.7588 c -13.49395,0.4834 -23.23639,-4.4091 -27.47332,-6.5275 -8.47387,-2.1185 -11.68146,1.0891 -9.56298,9.5629 14.645,26.0796 24.9036,34.0107 51.15237,37.9481 14.60549,2.1908 6.4423,-3.614 63.59975,8.3492 22.77356,4.7665 40.11044,8.6618 51.76203,11.8395 11.6516,3.1777 20.66301,7.9117 27.01838,14.2671 -45.54707,3.1777 -76.85863,12.1891 -93.80638,27.0184 -16.94774,14.8292 -24.43273,24.452 -22.31424,28.6889 -4.23694,-4.2369 -9.20015,-4.8464 -15.02598,-1.6687 -5.82577,3.1777 -8.1946,8.5231 -7.13539,15.9377 -32.83627,9.5331 -49.33077,40.2333 -49.33077,92.1358 13.77007,-8.4739 26.59855,-11.6814 38.25009,-9.563 14.82929,0 30.94355,23.37 48.42088,69.9763 17.47737,46.6063 37.25948,74.099 59.50343,82.5728 -10.59233,12.7108 -15.78666,29.6657 -15.78666,50.8503 -1.05921,54.021 35.90512,131.3064 111.11075,231.9337 H 253.96302 c -49.82659,0 -67.99855,45.7042 -56.99664,88.5866 -41.96707,4.6091 -109.470867,-27.8899 -125.930031,-46.5773 -19.546776,-22.193 -6.565003,-79.01616 -39.275129,-83.48403 -26.7750484,-3.6572 -34.3446363,28.15763 -31.68878736,67.93683 2.52146936,37.7665 18.60111536,61.0483 63.90180936,97.0224 44.856638,35.9741 96.599018,53.9611 155.223488,53.9611 h 207.8494 c 66.61874,95.0429 145.45217,165.6591 236.4978,211.8481 v 397.048 h 75.94579 v -371.0683 c 60.401,22.6505 133.68152,6.8841 219.84173,-47.2994 86.16025,-54.6272 91.26795,-118.1359 15.3226,-190.5284 h 607.82785 v -54.8157 c 6.2192,-3.8989 9.3567,-15.0984 9.3567,-33.6805 0,-33.8954 -22.0711,-54.2874 -66.0292,-61.1722 -43.9583,-6.8849 -94.4387,-19.3332 -151.6375,-37.3402 -74.1463,-33.8954 -196.4924,-102.628 -367.0291,-206.433 L 911.81969,737.243 865.67532,705.5187 C 778.81813,645.1423 721.0837,587.8664 692.48438,533.8454 655.41123,460.7583 601.49201,424.2524 530.52332,424.2524 c 6.35538,-5.2961 14.98652,-9.3424 26.1085,-11.9906 11.12197,-2.6481 27.31724,-10.5837 50.24248,-15.1788 15.17897,-3.0424 53.75695,-0.9007 65.11745,-2.1255 26.64951,-2.8731 42.83488,-14.9575 52.36801,-41.4384 2.11849,-9.533 -0.93808,-13.1991 -9.41194,-11.0807 -4.23694,2.1185 -11.41592,14.1681 -24.74182,11.9906 l -29.44596,-4.857 V 44.4738 C 660.76004,14.8152 645.33346,0 614.61569,0 596.60873,0 583.93129,4.7359 576.51663,14.269 569.10204,4.7359 556.88306,0 539.93527,0 522.98753,0 510.91955,4.7359 503.50494,14.269 495.03108,4.7359 482.20265,0 465.25485,0 448.30716,0 435.62966,4.7359 427.1558,14.269 419.74113,4.7359 407.52217,0 390.57444,0 Z m 0,19.126 c 19.06618,0 28.6871,8.4 28.6871,25.3478 V 349.572 c -19.06619,-4.2369 -37.70036,-5.3068 -55.70732,-3.1883 V 44.4738 c 0,-16.9478 9.01326,-25.3478 27.02022,-25.3478 z m 74.68041,0 c 19.06624,0 28.6871,8.4 28.6871,25.3478 v 332.1166 c -10.5923,-8.4739 -29.68491,-15.957 -57.22502,-22.3124 V 44.4738 c 0,-16.9478 9.47172,-25.3478 28.53792,-25.3478 z m 74.68042,0 c 18.00701,0 27.01838,8.4 27.01838,25.3478 V 354.278 c -24.36239,6.3554 -42.38518,13.8385 -54.03676,22.3124 V 44.4738 c -10e-6,-16.9478 9.01142,-25.3478 27.01838,-25.3478 z m 74.68042,0 c 18.00696,0 27.01838,8.4 27.01838,25.3478 V 344.715 c -18.00697,-1.0592 -36.48828,0.6201 -55.55447,4.857 V 44.4738 c 0,-16.9478 9.4699,-25.3478 28.53609,-25.3478 z M 305.72322,360.9566 c 68.94645,9.8482 55.98288,-4.5684 116.7266,7.5885 37.28985,7.4629 64.10738,20.6928 81.05512,36.5813 18.00697,-15.8885 45.91698,-25.9873 82.57466,-35.6696 60.2125,-15.9038 64.21593,3.1755 116.1188,-1.5177 -44.47018,22.6093 -30.77962,-0.8115 -94.71627,14.1161 -22.65764,5.29 -41.25659,9.2732 -55.55629,13.5101 -14.29964,4.2369 -30.41393,14.3163 -48.4209,30.2048 -16.94774,-15.8885 -32.60351,-25.9679 -46.90319,-30.2048 -14.29964,-4.2369 -32.78707,-9.5079 -55.70732,-13.5101 -60.72279,-10.6031 -81.53891,1.3128 -95.17121,-21.0986 z m 169.09461,104.5832 c 34.95475,0 54.88608,22.3001 59.65262,66.788 4.76659,44.4878 -30.44029,74.1182 -105.64591,88.9475 12.71079,6.3554 23.02123,16.895 30.96549,31.7243 7.94426,14.8293 12.44904,29.6464 13.50826,44.4757 -11.65158,4.2369 -21.96017,2.4794 -30.96366,-5.4649 -9.00347,-7.9442 -20.38376,-27.8774 -34.15377,-59.6544 -19.06625,-54.0209 -42.89286,-80.4438 -71.49215,-79.3846 h -11.23355 c 2.11844,-11.6516 7.46383,-14.4007 15.93769,-8.0453 4.23694,-7.4146 13.70867,-8.4844 28.53793,-3.1882 -12.71074,-12.7108 -18.97494,-25.8467 -18.97494,-39.6168 7.41459,1.0592 12.15047,-2.1484 14.26895,-9.563 3.17766,1.0592 13.48811,-3.2163 30.9655,-12.7494 17.47737,-9.5331 43.67284,-14.2689 78.62754,-14.2689 z m 77.86684,7.8924 c 38.13242,1.0591 74.63831,34.9688 109.59306,101.7006 34.95471,66.7318 125.29972,143.1004 270.94447,228.8983 145.6447,85.798 292.6585,167.361 440.9507,244.6849 57.1988,14.8292 108.0595,25.827 152.5474,33.242 24.3628,14.8296 24.8209,21.7029 1.5177,20.6437 H 252.44532 c -30.71778,0 -56.27764,-37.8859 1.5177,-53.8857 H 625.84741 C 518.86474,936.4372 465.25485,847.3911 465.25485,781.7186 c 0,-16.9477 9.85011,-32.8327 29.44596,-47.662 19.59584,-14.8293 19.82503,-44.4615 0.75885,-88.9494 78.38328,-39.1916 97.47594,-96.4694 57.22501,-171.675 z m -115.96774,7.2864 c -6.44641,-0.1 -13.35958,0.2288 -20.64182,0.7588 8.47388,5.2962 10.00027,11.5603 4.70413,18.975 -4.23694,-7.415 -10.49916,-11.0826 -18.97309,-11.0826 -14.82927,0 -22.3124,9.4718 -22.3124,28.538 8.47387,6.3554 12.52017,12.3102 11.99056,17.6064 -0.52924,5.2962 -1.97967,9.4206 -4.09816,12.5984 6.35541,5.2961 12.77056,21.7925 19.12597,49.3326 3.17767,0 5.31553,-1.6793 6.37472,-4.857 -1.05923,-27.5401 -0.6008,-46.0232 1.5177,-55.5563 8.47386,-18.007 19.85228,-27.2476 34.15193,-27.7772 14.29968,-0.5296 26.06018,4.4354 35.06365,15.0278 9.00345,10.5923 11.83076,22.3528 8.6531,35.0636 -3.17771,12.7109 -22.72875,26.9165 -58.74273,42.8051 v 3.1864 c 56.13945,-14.8293 81.87455,-40.1842 77.10801,-76.1981 -4.17073,-31.5122 -28.79655,-47.7258 -73.92157,-48.4209 z m -34.91078,15.0278 c 9.53315,0 14.26896,4.2756 14.26896,12.7494 0,8.4739 -4.73582,13.6682 -14.26896,15.7867 -5.29614,-1.0592 -10.64155,-3.197 -15.93769,-6.3747 2.11849,-14.8293 7.46389,-22.1614 15.93769,-22.1614 z m 0,3.1864 c -5.29613,1.0592 -8.04528,4.2669 -8.04528,9.563 0,6.3554 2.74917,9.412 8.04528,9.412 6.35541,0 10.0215,-3.0566 11.08069,-9.412 -1.05922,-5.2961 -4.72528,-8.5038 -11.08069,-9.563 z m 135.82863,692.1651 h 125.91015 v 124.5768 c -43.08011,-21.7623 -85.05064,-63.2874 -125.91015,-124.5768 z m 152.55648,0 h 21.31964 v 150.5581 l -21.31964,-13.9908 z m 49.29946,0 h 95.26515 c 124.79908,77.722 169.65483,134.1248 134.56888,169.2107 -35.53013,34.6417 -112.1409,31.9776 -229.83403,-7.9937 z m -49.29946,221.1735 21.31964,9.3273 v 339.7566 h -21.31964 z" /><path
     d="M 136.38309,391.39307 3.3767764,923.32109 H 280.71397 Z m 1.14546,146.33414 90.80615,346.47907 -174.979762,1.14546 z"
     style="fill:#000000;stroke:none;stroke-width:95.8099"
     id="path1-4" /></svg>
