<?xml version="1.0" encoding="UTF-8" standalone="no"?>
<svg
   width="830"
   height="1800"
   version="1.1"
   id="svg132"
   sodipodi:docname="US9C101VARA.svg"
   xml:space="preserve"
   inkscape:version="1.2.2 (732a01da63, 2022-12-09)"
   xmlns:inkscape="http://www.inkscape.org/namespaces/inkscape"
   xmlns:sodipodi="http://sodipodi.sourceforge.net/DTD/sodipodi-0.dtd"
   xmlns="http://www.w3.org/2000/svg"
   xmlns:svg="http://www.w3.org/2000/svg"><defs
     id="defs136"><inkscape:path-effect
       effect="simplify"
       id="path-effect372"
       is_visible="true"
       lpeversion="1"
       steps="1"
       threshold="0.00172414"
       smooth_angles="360"
       helper_size="0"
       simplify_individual_paths="false"
       simplify_just_coalesce="false" /></defs><sodipodi:namedview
     id="namedview134"
     pagecolor="#ffffff"
     bordercolor="#000000"
     borderopacity="0.25"
     inkscape:showpageshadow="2"
     inkscape:pageopacity="0.0"
     inkscape:pagecheckerboard="0"
     inkscape:deskcolor="#d1d1d1"
     showgrid="false"
     inkscape:zoom="0.20893214"
     inkscape:cx="519.30738"
     inkscape:cy="320.67829"
     inkscape:window-width="1920"
     inkscape:window-height="1017"
     inkscape:window-x="1912"
     inkscape:window-y="-8"
     inkscape:window-maximized="1"
     inkscape:current-layer="svg132" /><path
     id="path3354"
     style="display:inline;fill:#000000;stroke:none;stroke-width:99.4218"
     d="M 798.36133,4.7089844 C 781.23355,3.9808952 762.96379,11.969127 760.0918,22.878906 c -3.222,12.239683 -11.49689,55.207689 -56.86914,97.320314 -74.61343,51.42701 -142.13917,164.83729 -154.18946,219.35156 -5.22759,23.64858 -9.37159,42.89522 -13.99218,68.76563 0.1163,-1.29673 -0.33979,-0.18395 -0.20899,0.9707 0.013,-0.0703 0.0929,-0.31681 0.10352,-0.38086 -0.035,0.19516 -0.069,0.38021 -0.10352,0.57617 -0.014,-0.0671 0.01,-0.12555 0,-0.19531 -0.2279,1.23907 -0.61928,3.01064 -1.77148,6.7207 -2.0136,6.8689 -4.02742,13.24518 -6.04102,19.13281 -2.0136,5.8877 -7.55024,14.47515 -16.61133,25.75977 -9.06109,11.28463 -13.08883,18.88937 -12.08203,22.81445 1.0068,4.90638 5.53751,7.35938 13.5918,7.35938 0,4.90641 -3.01975,7.35937 -9.06055,7.35937 -1.0067,6.86892 0.5022,11.2855 4.5293,13.24805 -4.0271,8.83144 -3.01921,14.71831 3.02148,17.66211 l 1.50977,19.13477 c -1.0068,12.75658 -10.06821,37.77997 -27.18359,75.06836 -18.12219,-0.98133 -27.68659,3.43331 -28.69336,13.24609 -1.00679,9.81272 4.02687,15.21014 15.10156,16.19141 20.13578,2.94382 36.24468,-10.30398 48.32617,-39.74219 l 22.65234,-52.98828 c 15.10189,0.98126 27.68797,0.98126 37.75586,0 L 585.91797,586.75 C 553.7007,626.00093 533.06109,680.95182 524,751.60352 l -158.57031,2.94336 c -29.19495,-12.75663 -54.86823,-26.00441 -77.01758,-39.74219 l 1.50977,-366.50586 c 4.02721,-18.64417 -1.5095,-28.94758 -16.61133,-30.91016 15.10183,-10.794 29.19695,-27.72137 42.28515,-50.78125 13.08822,-23.05994 16.42528,-47.43649 6.35742,-74.91211 -15.26389,28.31441 -44.26373,79.82249 -72.34765,102.96485 -10.33007,1.44128 -103.66211,-88.22461 -103.66211,-88.22461 0,0 44.6634,-43.16831 60.91406,-51.86914 -11.88004,-10.52927 -8.16016,-7.33472 -20.13476,-19.00586 -16.67227,20.07096 -53.22852,50.82617 -53.22852,50.82617 C 107.07471,82.956692 68.325888,54.392257 20.410156,92.832031 -21.817452,137.18255 4.3398357,176.2005 108.35547,208.31055 c 0,0 -37.146276,34.49523 -56.103517,48.93164 13.991016,13.63644 9.956408,9.71126 20.398438,19.88867 14.521801,-17.24644 53.642579,-54.66211 53.642579,-54.66211 0,0 104.03108,96.81861 100.20312,101.22266 -20.13578,22.07866 -20.89185,32.21276 -35.49023,56.2539 -14.59841,24.04123 -19.38158,64.51776 -14.34766,121.43164 14.09501,-1.96253 23.15645,-20.11636 27.1836,-54.46093 4.02713,-34.34457 21.14206,-64.27204 51.3457,-89.78516 l -1.50977,354.73047 c -18.1222,-1.96255 -26.17566,0.001 -24.16211,5.88867 2.01364,5.88764 7.55026,9.8109 16.61133,11.77344 -18.12221,-2.94382 -25.16971,7.60723 -21.14257,31.64844 4.02721,24.04116 13.59158,36.06054 28.69335,36.06054 v 57.4043 c -23.15613,0.98126 -32.97103,4.66074 -29.44726,11.03906 3.52374,6.37827 9.31282,9.56837 17.36719,9.56836 -18.12223,1.96254 -23.1578,13.9839 -15.10352,36.0625 8.05435,22.07869 17.11574,32.13441 27.18359,30.17188 l 3.02149,558.28518 c -20.13578,3.9251 -30.70806,18.1518 -31.71484,42.6836 -1.00678,5.8876 6.17899,16.9056 13.22656,24.7558 23.89987,13.572 27.82321,12.0561 10.9375,-26.2265 1.00678,-13.738 9.06031,-20.6075 24.16211,-20.6075 14.09498,0 21.64549,7.359 22.65234,22.0782 -0.46173,18.8709 -24.9835,49.4258 11.04102,24.3418 9.73033,-6.7753 14.12983,-18.4539 13.12304,-24.3418 0,-24.5318 -10.0693,-39.2498 -30.20507,-44.1563 l -1.50977,-556.81248 c 20.13578,-6.86892 43.79531,-17.66173 70.97851,-32.38086 64.43443,-2.94382 115.27814,-7.84986 152.5293,-14.71875 v 80.95507 c 0,46.11982 4.53071,103.52572 13.5918,172.21482 9.06099,68.6892 21.89583,155.7767 38.50781,261.2637 16.61198,105.4869 19.62516,184.125 15.59797,221.4133 -17.11539,46.1198 -54.60895,63.6097 -119.04328,94.0293 -37.90467,0 -54.18739,8.8758 -56.61935,38.5254 h -39.18501 l -12.43069,35.8595 388.50063,0.2587 -2.18729,-36.5915 -31.16402,-0.6203 c 25.66404,-15.3052 29.49309,-37.9358 6.79667,-96.6049 v -507.2304 c -1.0068,-20.6067 4.52808,-37.7779 16.60937,-51.5157 20.13578,-31.4005 16.61296,-85.3728 -10.57031,-161.91207 14.09518,-34.34457 22.14861,-118.73546 24.16211,-253.16992 -1.0067,-74.57672 -16.10597,-116.27982 -45.30274,-125.11133 h -1.51367 c -13.08829,-17.66288 -20.57765,-38.04477 -20.57765,-38.04477 0,0 13.88536,-23.34644 21.36719,-29.94336 46.72388,-56.41833 91.46077,-237.32094 96.22836,-269.57047 4.2142,-30.73663 10.01573,-68.97413 10.34343,-84.8125 4.0972,-60.286336 24.30368,-98.832096 24.73828,-104.935542 1.7035,-23.955061 -14.28032,-33.3988635 -31.4082,-34.1269536 z M 797.41992,23.96875 c 21.23008,25.865948 -14.35035,42.794392 -21.68164,139.67187 -8.73854,74.13886 -24.3917,144.98172 -39.95566,186.89044 -10.37567,27.93833 -48.34601,120.78021 -64.9669,133.14319 -9.25639,2.36494 -1.86599,0.20598 -8.88799,-9.94378 8.2678,-12.23022 10.12942,-26.56108 9.16602,-34.26758 -4.095,-32.79365 -40.55354,-14.28815 -45.39844,-16.72266 -29.66737,-14.90687 -52.96724,-16.42908 -57.46093,-24.41796 -3.3767,-58.93823 47.29569,-157.83996 114.39453,-221.69336 C 822.06537,43.936666 753.86647,49.16236 797.41992,23.96875 Z M 59.167969,99.255859 C 77.84168,102.95547 89.47682,125.19444 112.67188,188.08984 38.295552,157.54336 12.303368,135.97054 35.488281,109.30273 43.439703,103.62611 52.111211,97.857782 59.167969,99.255859 Z M 543.63281,423.36719 c 8.65949,0 21.24223,1.91114 37.25781,5.49609 8.5599,3.10366 16.78333,7.00331 23.32422,11.9336 3.4164,4.0947 5.43399,9.04133 5.86719,14.95312 7.04759,0 10.06539,1.95969 9.05859,5.88477 -10.06788,7.85018 -15.60257,15.21118 -16.60937,22.08007 0,7.85019 4.53061,11.77539 13.5918,11.77539 5.03389,0.98126 13.59048,-2.94394 25.67187,-11.77539 5.034,29.43822 12.08149,52.49807 21.14258,69.17969 -3.0204,8.83144 -11.57689,15.70102 -25.67188,20.60742 -14.09498,4.90636 -25.17021,4.41693 -33.2246,-1.4707 -5.034,-7.85023 -7.55079,-14.96548 -7.55079,-21.34375 0,-6.37825 -4.02773,-9.56836 -12.08203,-9.56836 -8.05429,0 -25.16933,1.96358 -51.3457,5.88867 -7.04759,-4.90634 -10.06735,-11.28458 -9.06055,-19.13476 12.08149,-3.92509 20.13296,-8.83308 24.16016,-14.72071 -9.06109,-6.86891 -16.6097,-11.77493 -22.65039,-14.71875 l 1.50781,-5.88671 c 9.06109,-1.96256 13.5918,-4.41557 13.5918,-7.35938 -1.0068,-4.90637 -3.52173,-7.85075 -7.54883,-8.83203 -4.0272,0.98128 -5.03498,2.94291 -3.02148,5.88672 2.01359,1.96254 -0.50319,2.94531 -7.55079,2.94531 -7.04739,0 -10.57031,-0.49139 -10.57031,-1.47266 0,-1.96252 0.50102,-4.41555 1.50781,-7.35937 16.10869,-20.60671 26.17799,-38.26914 30.20508,-52.98828 z m 11.61133,5.61133 c -3.9642,-0.0614 -7.83583,0.52143 -11.61133,1.74804 -2.0136,3.92504 -2.0136,6.86753 0,8.83008 12.08149,-4.90628 28.69541,-3e-4 49.83789,14.71875 h 12.07813 v -5.88672 l -12.07813,-1.47265 c -13.59168,-11.7753 -26.33387,-17.75353 -38.22656,-17.9375 z m 85.04102,1.74804 c 11.07469,0 16.61328,3.92522 16.61328,11.77539 -1.0068,6.86892 -3.02072,12.51203 -6.04102,16.92774 -3.0204,4.41572 -8.05602,10.54826 -15.10351,18.39843 -9.06109,6.86892 -14.85009,10.30274 -17.36719,10.30274 -2.5168,0 -4.52877,-0.73708 -6.03906,-2.20898 -1.5102,-1.47191 -0.75673,-4.16867 2.26367,-8.09376 l 12.08008,-10.30468 12.08203,-7.35938 c 1.0068,-1.96254 7.6e-4,-4.90693 -3.01953,-8.83203 -3.0205,-3.92508 -3.27091,-7.35886 -0.75391,-10.30273 2.5169,-2.94383 5.53675,-2.94383 9.06055,0 3.52369,2.94387 4.27727,6.62332 2.26367,11.03906 -2.0135,4.4157 -8.05311,11.53103 -18.1211,21.34375 l 3.02149,1.4707 c 9.06109,-8.83143 14.59783,-14.964 16.61133,-18.39843 2.0136,-3.43448 3.5225,-8.09478 4.52929,-13.98243 0,-4.90641 -4.02578,-7.85082 -12.08007,-8.83203 -4.0271,0 -7.04695,1.22649 -9.06055,3.67969 -2.0136,2.45309 -3.02149,5.64126 -3.02149,9.56641 0,2.94381 2.01382,6.37959 6.04102,10.30468 l -9.06055,5.88868 c -3.02039,-7.85017 -3.52336,-15.45687 -1.50976,-22.81641 2.0136,-7.35953 7.55034,-10.54767 16.61133,-9.56641 z m -90.23243,12.50977 c -1.76189,0.24533 -2.89503,0.7367 -3.39843,1.47265 -1.0068,1.4719 -1.50977,4.17062 -1.50977,8.09571 -1.0068,4.90634 2.0111,7.35937 9.05859,7.35937 7.0476,0.98128 17.62182,4.5e-4 31.7168,-2.94336 -13.08829,-8.83131 -22.65462,-13.4936 -28.69531,-13.98437 -3.0204,-0.24532 -5.40998,-0.24532 -7.17188,0 z m 69.08789,34.59179 c -2.01349,0 -3.01757,1.47026 -3.01757,4.41407 0,1.96254 0.50296,2.94531 1.50976,2.94531 3.0203,0.98128 5.03422,-10e-4 6.04102,-2.94531 -1.0068,-2.94381 -2.51961,-4.41406 -4.53321,-4.41407 z m -104.20117,25.02149 21.14258,5.88672 -15.10351,-1.47071 c -5.0339,0 -7.04587,-1.47219 -6.03907,-4.41601 z m 6.03907,11.77539 6.04101,1.4707 12.08399,-1.4707 c 1.00679,0.98127 -6.0408,2.45348 -21.14258,4.41602 -2.0136,0.98127 -3.02149,0.98127 -3.02149,0 0,-2.94382 2.01197,-4.41602 6.03907,-4.41602 z m 141.48828,72.58398 c 10.63409,0.184 21.86552,2.48468 33.69531,6.9004 -25.16978,5.88764 -42.28471,22.07787 -51.3457,48.57226 -25.16978,55.93254 -49.33221,113.33848 -72.48829,172.21484 l -22.65429,4.41602 c 5.03389,-66.7266 16.10922,-125.60467 33.22461,-176.63086 21.14258,-37.53369 47.66569,-56.0246 79.56836,-55.47266 z m 53.32812,80.49414 c 0,116.77155 -11.5782,209.01298 -34.73437,276.72071 31.21047,75.55787 31.21047,131.00037 0,166.32617 l -1.51172,557.2773 c 10.06799,42.1947 6.0422,74.3804 -12.08008,81.2493 l -173.67383,1.4727 c 50.33945,-25.5133 87.83672,-37.1164 119.04719,-76.3672 9.06109,-40.2322 1.51916,-160.5735 -29.18781,-346.5247 -30.70707,-185.9513 -44.04858,-330.93624 -40.02149,-434.95115 21.14258,-0.98128 43.79601,-4.90454 67.95899,-11.77344 64.43433,-116.77151 99.16913,-187.91654 104.20312,-213.42969 z m -427.38281,129.5293 c 12.08149,1.96255 40.27168,1.96255 84.57031,0 63.42754,13.73787 112.25742,21.58825 146.48828,23.55078 l -160.08008,39.74219 c -27.1832,0.98135 -50.84273,-0.98226 -70.97851,-5.88867 z"
     sodipodi:nodetypes="sscsccccccsscccccccsccccccccccsccccccccccccscsccscsccscscccccscscccccsssccccccccccccccccccccsccscccccscsccscccccccccscssccccccccssccsccccccsccscssccccsssccsccssccscsscccssssccsccccccccscscccccscccccccsccccccccc" /></svg>
