<?xml version="1.0" encoding="UTF-8" standalone="no"?>
<svg
   width="2192.2683"
   height="1795.0645"
   version="1.1"
   id="svg15426"
   xmlns="http://www.w3.org/2000/svg"
   xmlns:svg="http://www.w3.org/2000/svg">
  <defs
     id="defs15430" />
  <path
     id="path15424"
     style="fill:#000000;stroke:none;stroke-width:98.7638"
     d="m 1124.777,0 c -41.6859,0 -62.5293,30.207252 -62.5293,90.619141 v 48.794919 h -32.1582 c -11.9099,0 -32.74017,0.78963 -32.74017,15.89258 0,16.26479 22.18247,24.97759 32.74017,32.90039 l 33.5098,56.79492 -0.8848,55.25586 c -6.6901,0.13594 -13.2489,0.0816 -20.1191,0.48047 -50.02323,2.90444 -86.3508,33.98038 -108.98045,93.23047 -8.33723,33.69129 -22.92654,65.35152 -43.76953,94.97656 -20.84312,29.62511 -15.18717,43.85516 16.97071,42.69336 -7.14627,10.45591 -6.55016,16.84642 1.78711,19.16992 -7.1462,4.64708 -7.74231,9.29431 -1.78711,13.94141 5.95516,4.64707 8.33755,14.52211 7.14648,29.625 7.14616,10.45592 6.84905,23.52705 -0.89258,39.21094 -7.74169,15.68385 -16.97204,25.26857 -27.6914,28.75391 -10.71923,3.48524 -17.27022,9.87385 -19.65235,19.16796 -2.38207,9.29418 2.38261,15.3944 14.29297,18.29883 11.91029,2.90444 27.98881,-7.55287 48.23633,-31.36914 20.24759,-23.81623 30.9672,-40.95229 32.1582,-51.4082 h 35.73047 c 14.29235,12.77952 22.03355,37.17668 23.22455,73.1914 -104.8105,0 -167.9344,19.1695 -189.37299,57.50782 C 749.00573,801.16979 663.25051,862.74511 572.73214,932.45117 496.50613,925.4806 435.76283,919.38028 390.50363,914.15235 345.24446,908.9243 306.53455,898.75924 274.37667,883.65625 257.66741,860.64628 236.66803,843.07776 211.84738,830.35352 V 296.38086 c 0,-140.5738 71.46295,-211.441719 214.38672,-212.603516 V 41.953125 c -186.99195,0 -280.48829,84.229335 -280.48829,252.685545 H 68.923551 l 76.822259,69.70508 v 31.36914 H 68.923551 l 76.822259,76.67578 v 31.36914 H 68.923551 l 76.822259,73.19141 v 33.10937 H 67.136442 l 78.609368,67.96485 v 33.10937 H 68.923551 l 76.822259,67.96485 v 34.85156 H 70.708707 l 59.333983,64.76563 c 0.77816,25.40847 3.63376,43.33512 9.0625,51.99414 H 68.923551 l 76.822259,67.96288 v 33.11133 H 68.923551 l 76.822259,74.9336 v 33.1094 H 68.923551 l 76.822259,71.4492 v 33.1114 H 67.136442 l 78.609368,69.707 v 33.1094 H 68.923551 l 76.822259,67.9648 v 33.1094 H 70.708707 l 75.037103,83.6484 v 78.7891 c -10.06394,4.8422 -20.58363,9.4628 -32.1582,13.5683 -52.405366,18.5885 -85.754464,42.1149 -100.046871,70.5782 -14.29234463,28.4631 -17.2708275,52.2799 -8.933594,71.4492 8.337168,19.1671 18.75974,28.4596 31.265625,27.8808 12.505815,-0.5787 35.432392,-0.8672 68.78125,-0.8672 h 103.62109 c -4.76409,-4.6465 -14.88962,-7.5507 -30.37305,-8.7128 l 0.002,-0.01 c 23.82061,-8.1321 38.11282,-13.9403 42.87695,-17.4258 3.57313,-2.3235 5.95552,-2.3235 7.14648,0 1.19107,2.3229 -0.59723,4.9351 -5.36132,7.8399 -4.7642,2.9042 -8.03769,6.1005 -9.82422,9.5859 -1.78673,3.4855 -1.48949,6.3894 0.89258,8.7129 l 72.58984,0.4531 c 11.76256,-0.7535 6.19994,-26.8567 -2.02149,-35.3027 -5.35963,-5.8089 -8.6351,-12.7797 -9.82617,-20.9121 -1.191,-8.1325 4.46683,-16.5563 16.97266,-25.2696 12.50583,-8.7133 22.92644,-21.4922 31.26367,-38.3379 8.33723,-16.8452 12.50586,-27.3008 12.50586,-31.3671 0,-4.0661 2.38239,-7.8427 7.14648,-11.3282 4.76413,-3.4853 9.52888,-10.7464 14.29297,-21.7832 4.76413,-11.0369 4.16802,-22.9452 -1.78711,-35.7246 l 3.57422,-3.4844 c -7.14623,-19.7493 -16.97272,-31.0776 -29.47851,-33.9824 -12.50583,-2.9023 -23.52255,-3.1926 -33.05078,-0.8691 -14.29243,-8.1325 -29.18064,-10.4543 -44.66407,-6.9688 -15.48339,3.4853 -24.41679,9.2933 -26.79882,17.4258 -3.66087,5.7532 -7.94207,11.2048 -12.50586,16.5176 V 930.30664 c 10.62428,-3.96998 28.86022,-10.72489 26.79882,-10.05469 83.37215,73.19141 196.52155,107.46355 339.44532,102.81645 139.35071,-74.35323 221.53132,-125.47114 246.54297,-153.35355 25.01161,-27.88244 43.77145,-22.36454 56.27734,16.55468 12.50583,38.91922 26.20199,84.80957 41.08984,137.66997 13.07234,46.4139 38.46952,122.4641 57.25782,213.4551 7.55349,36.5813 17.00094,85.2662 25.38467,130.0898 2.1442,8.0105 3.8053,13.8795 6.0157,22.1836 L 754.80441,1187.2266 c -38.59997,-37.0589 -72.50794,-55.5899 -101.71875,-55.5898 h -0.004 c -81.89468,1.1062 -118.14688,37.0601 -108.75781,107.8593 l 43.8164,331.041 c -62.07303,16.0404 -90.76104,65.5458 -86.0664,148.5137 -28.1677,6.0842 -53.98983,14.6583 -77.46289,25.7207 -22.95127,10.5091 -46.16365,14.6577 -69.63672,12.4453 -23.47288,-1.6594 -39.9038,10.5095 -49.29297,36.5059 H 1548.9724 c -25.5594,-53.0993 -62.0735,-74.1189 -109.5411,-63.0567 -46.9461,11.0624 -78.765,-10.7862 -95.457,-65.5449 -16.1703,-54.2056 -43.5563,-65.8203 -82.1562,-34.8457 37.5567,-76.8836 38.6012,-157.6405 3.1308,-242.2676 -12.8722,-67.9659 -22.5497,-185.9042 -15.5682,-245.8802 7.7068,-66.2065 14.1796,-95.7642 26.3592,-166.11197 7.7421,-44.1472 14.2931,-76.09575 19.6524,-95.84571 5.3597,-19.75023 19.6521,-19.45983 42.8769,0.8711 23.2252,20.33093 96.1776,72.31965 218.8535,155.96678 117.9121,-1.1618 244.1637,-38.91843 378.75,-113.27147 l 43.7579,16.41602 -0.8731,622.50585 c -3.9165,-4.8506 -7.5825,-9.8227 -10.7246,-15.0507 -3.5732,-9.2943 -12.8035,-15.3947 -27.6914,-18.2989 -14.888,-2.9048 -29.4791,-0.2907 -43.7715,7.8418 -9.5284,-2.3235 -20.8424,-2.3235 -33.9433,0 -13.1015,2.3236 -23.2269,13.3614 -30.3731,33.1114 l 5.3613,5.2285 c -7.146,11.6177 -8.3382,22.9456 -3.5742,33.9824 4.7645,11.0365 9.8263,18.2957 15.1856,21.7812 5.3593,3.4853 8.039,7.262 8.039,11.3282 0,4.0662 4.1686,14.812 12.5059,32.2382 8.3371,17.4267 18.7596,30.2075 31.2656,38.3399 12.5061,8.1323 18.164,16.5543 16.9727,25.2676 -1.1907,8.7136 -4.4662,15.6844 -9.8262,20.9121 -5.3597,5.2281 -25.3099,10.1655 -59.8496,14.8125 -3.5731,0 -8.9339,2.3238 -16.0801,6.9707 -7.1462,4.6473 -10.7187,9.2945 -10.7187,13.9414 h 16.0781 139.3515 c 2.38,-3.4851 2.6774,-6.9696 0.8907,-10.4551 -1.7867,-3.4855 -5.0622,-6.3913 -9.8262,-8.7148 -4.764,-2.3235 -6.2515,-4.6472 -4.4648,-6.9707 1.7867,-2.3235 4.4657,-2.3235 8.039,0 4.7641,3.4853 18.4602,8.7149 41.0899,15.6855 -15.481,1.1619 -25.6037,4.6467 -30.3672,10.4551 h 132.205 41.9825 c 12.5058,0 22.9283,-9.5848 31.2656,-28.7539 8.3373,-19.1692 5.0618,-42.986 -9.8262,-71.4492 -14.8879,-28.4633 -48.5358,-51.6976 -100.9414,-69.7051 -10.9656,-3.7679 -20.8154,-8.0806 -30.373,-12.5352 v -80.6972 l 75.0351,-83.6485 h -75.0351 v -33.1094 l 76.8222,-67.9648 h -76.8222 v -33.1094 l 78.6074,-69.707 h -78.6074 v -33.1113 l 76.8222,-71.4493 h -76.8222 v -33.1093 l 76.8222,-74.9336 h -76.8222 v -33.11133 l 76.8222,-67.96294 h -76.8222 v -34.85156 l 75.0351,-81.90625 h -75.0351 v -34.85156 l 76.8222,-67.96485 h -76.8222 v -33.10937 l 78.6074,-67.96485 h -78.6074 v -33.10937 l 76.8222,-73.19141 h -76.8222 v -31.36914 l 76.8222,-76.67578 h -76.8222 v -31.36914 l 76.8222,-69.70508 h -76.8222 c 0,-168.45621 -93.4981,-252.685545 -280.4903,-252.685545 v 41.824219 c 142.9238,1.161797 214.3868,72.029716 214.3868,212.603516 l -0.7461,531.50977 h -2.8262 c -32.158,11.61761 -57.7657,31.36954 -76.8223,59.25195 -61.9333,20.91183 -114.9339,31.36719 -159.0019,31.36719 -44.0683,0 -96.4743,4.06681 -157.2168,12.19922 -83.3721,-51.11777 -160.7899,-113.85396 -232.252,-188.20704 -20.2477,-34.85304 -75.6321,-52.86169 -166.1504,-54.02343 v -26.13867 l 58.9571,-41.82422 c 42.8769,-79.00018 52.7017,-147.25619 29.4765,-204.76368 -23.2252,-57.50751 -55.0848,-91.77965 -95.5801,-102.8164 -19.1525,-5.22006 -39.4582,-8.75404 -60.7421,-10.85547 V 90.619141 c 0,-24.397091 5.3587,-36.595703 16.0781,-36.595703 36.4111,0 58.664,4.085331 58.664,28.482422 h 37.5176 C 1229.8903,22.093971 1198.9166,0 1124.777,0 Z m -54.5468,330.90625 c 27.1329,-1.08915 55.4401,3.37823 84.9179,13.39844 39.3042,13.36035 68.1875,40.37134 86.6485,81.0332 18.4611,40.66185 15.1855,87.42283 -9.8262,140.2832 -25.0117,52.86041 -48.8332,70.86907 -71.4629,54.02344 -22.6297,-16.84566 -33.9453,-36.88778 -33.9453,-60.12304 22.6294,-34.85302 36.6244,-60.99333 41.9844,-78.41993 5.3593,-17.42649 5.3593,-33.68998 0,-48.79297 -5.3597,-15.10295 -16.3763,-23.81709 -33.0508,-26.14062 -16.6745,-2.32354 -33.945,2.90418 -51.8106,15.68359 -27.3934,-13.94121 -61.3388,-26.72024 -101.83392,-38.33789 5.95514,-26.72061 26.50112,-43.27627 61.63672,-49.66601 8.7838,-1.59743 17.6978,-2.57836 26.7422,-2.94141 z M 955.05441,409.6543 c 41.68603,6.97058 84.56289,20.91043 128.63079,41.82226 -11.9099,65.05903 -27.9887,105.14119 -48.2363,120.24414 -20.2477,15.10293 -45.8555,22.6543 -76.82223,22.6543 -20.24759,1.16181 -29.18086,-2.90511 -26.79883,-12.19922 2.38213,-9.29418 1.1919,-16.84552 -3.57226,-22.65429 35.73097,1.16169 45.85452,-3.77579 30.37109,-14.8125 -15.48339,-11.03682 -26.20304,-13.65068 -32.1582,-7.8418 3.57307,-16.26475 -5.35839,-24.39649 -26.79687,-24.39649 25.01161,-38.33832 43.47245,-72.61045 55.38281,-102.8164 z m 23.00195,16.33594 c -9.37936,0.14517 -20.02522,1.66981 -31.93555,4.57421 V 446.25 c 23.82065,-6.97057 43.47378,-7.26087 58.95699,-0.87109 15.4835,6.38967 36.3263,10.16418 62.5293,11.32617 l -8.9336,-6.9707 c -23.8203,-8.13242 -42.5785,-14.8111 -56.2754,-20.03907 -6.84824,-2.61405 -14.96238,-3.85025 -24.34174,-3.70507 z m 138.74414,11.55273 c 2.2471,-0.31315 4.3467,-0.27964 6.3008,0.10156 2.6054,0.50827 4.9508,1.6343 7.0351,3.37696 8.3373,6.97057 10.4207,17.13574 6.252,30.49609 -4.1686,13.36035 -21.1405,39.2105 -50.916,77.54883 9.5279,55.76474 30.9673,88.87611 64.3164,99.33203 v 40.08008 c 0,15.10295 -16.6745,22.65429 -50.0235,22.65429 -29.7755,0 -44.664,-7.55134 -44.664,-22.65429 0,-40.66186 -10.7199,-72.02989 -32.1582,-94.10352 35.7307,-25.5588 58.9568,-73.77282 69.6757,-144.64062 9.3795,-7.18845 17.4404,-11.25196 24.1817,-12.19141 z m -139.86133,12.62695 c -13.9946,-0.29043 -23.67159,4.79214 -29.03125,15.24805 l -16.08008,8.71289 v 8.71484 l 14.29297,1.74219 c 19.05645,11.61765 48.23696,9.29405 87.54099,-6.9707 h 33.9453 v -10.45508 h -35.7304 c -22.6297,-11.03678 -40.94289,-16.70175 -54.93753,-16.99219 z m 15.63282,10.02149 28.58391,10.45508 c -10.719,4.64704 -20.2468,7.55109 -28.58391,8.71289 7.14614,-5.80888 7.14614,-12.1974 0,-19.16797 z m -23.22657,1.74218 c -4.76416,5.80888 -4.16805,12.1974 1.78711,19.16797 -7.14616,-2.32349 -13.69718,-4.06482 -19.65234,-5.22656 2.38213,-5.80884 8.337,-10.45607 17.86523,-13.94141 z m 42.87888,254.42774 c 28.5849,19.75009 57.169,29.625 85.7539,29.625 29.7759,0 58.3601,-9.87491 85.7539,-29.625 l 94.6875,15.68359 c -16.6745,40.66186 -53.2992,67.96305 -109.873,81.9043 -56.5743,13.94139 -104.2152,13.65096 -142.9239,-0.87109 -38.70821,-14.52209 -75.33303,-41.53308 -109.87298,-81.03321 z m -96.47458,85.39062 c 54.78738,29.04418 96.47368,46.47046 125.05858,52.2793 28.5849,5.80888 57.169,6.38929 85.7539,1.74219 28.5849,-4.64701 75.6317,-20.33011 141.1387,-47.05078 -11.9103,31.36769 -23.2264,78.12861 -33.9453,140.2832 -10.0786,58.43914 -31.4547,137.90544 -30.2364,236.39454 0.7962,64.3605 10.4274,139.6593 14.4864,206.7559 l -140.8379,33.1875 c -3.537,-11.9962 -6.1397,-20.4097 -9.5391,-31.8789 -1.9231,-0.4952 -37.8258,-124.418 -45.6992,-156.0703 -16.5991,-66.7309 -36.64869,-146.9089 -56.15624,-215.1973 C 950.28967,968.17507 933.61511,894.69332 915.74972,801.75195 Z M 647.60714,1230.3692 h 63.375 l 287.9375,211.5683 -321.58203,102.8809 c 7.30274,-157.6386 -2.60599,-262.4561 -29.73047,-314.4492 z m 577.43556,199.123 c 21.9079,89.052 8.868,166.4895 -39.1211,232.3106 -72.5056,45.9088 -160.4004,53.0998 -263.68165,21.5722 -103.28122,-32.0809 -201.34645,-25.7206 -294.19531,19.0821 9.38927,-34.8465 86.0693,-91.818 230.03711,-170.9141 z m -971.7129,123.4531 c 5.6946,-0.6533 13.89988,1.6334 24.61914,6.8614 17.86552,-2.3235 30.07437,-1.7414 36.625,1.7441 6.55063,3.4853 7.14674,9.5836 1.78711,18.2969 -5.3596,8.7133 -12.80374,17.137 -22.33203,25.2695 -1.191,3.4855 0.59528,5.2285 5.35937,5.2285 10.71929,-6.9706 20.24679,-17.4278 28.58399,-31.3691 3.57289,4.6472 3.87209,11.618 0.89453,20.9121 -2.9776,9.2943 -6.84919,16.2652 -11.61328,20.9121 -4.76413,4.6474 -8.03965,9.5848 -9.82618,14.8125 -1.78649,5.228 -6.2522,15.1028 -13.39843,29.625 -7.1462,14.5221 -15.18638,25.85 -24.11914,33.9824 -8.93269,8.1322 -15.18469,13.9403 -18.75782,17.4258 -3.57303,3.4853 -5.36132,8.7129 -5.36132,15.6836 0,6.9706 1.78829,15.9748 5.36132,27.0117 3.57313,11.0367 6.25254,17.4273 8.03907,19.17 1.78649,1.7424 -1.78606,2.6132 -10.71875,2.6132 -8.93276,0 -10.721,-1.1608 -5.36133,-3.4843 5.35963,-2.3235 1.49003,-11.618 -11.61133,-27.8829 -13.10136,-16.2644 -14.88767,-37.7578 -5.35938,-64.4785 -11.91032,6.9706 -17.86718,20.9127 -17.86718,41.8242 -1.191,16.2647 -11.31458,26.4298 -30.3711,30.4961 -19.05652,4.0662 -32.15852,5.5176 -39.30468,4.3555 4.76429,-13.9412 4.46705,-25.2671 -0.89258,-33.9805 -5.35967,-8.7135 -14.29105,-14.5236 -26.79688,-17.4277 -12.5058,-2.9047 -24.714729,-6.6793 -36.624994,-11.3262 9.528211,9.2943 19.354752,16.8454 29.478514,22.6543 10.12376,5.8089 16.0787,11.3268 17.86523,16.5547 1.7866,5.228 1.19049,11.0389 -1.78711,17.4336 -2.97756,6.3897 -11.61194,9.0039 -25.90429,7.8418 -14.292391,-1.1621 -28.584613,-1.7422 -42.876953,-1.7422 -7.146239,-2.3255 -11.017815,-2.037 -11.613282,0.8672 -0.595529,2.9042 2.680004,4.9375 9.826172,6.0996 13.101348,3.4849 14.590557,6.0991 4.466797,7.8418 -10.12376,1.7421 -16.37771,1.162 -18.759765,-1.7422 -2.382059,-2.9045 -4.465358,-6.6812 -6.251954,-11.3281 -1.786525,-4.6472 -2.085594,-8.1316 -0.894531,-10.4551 1.190996,-2.3241 11.31457,-2.9062 30.371094,-1.7441 19.056504,1.1621 30.968309,-0.2892 35.732422,-4.3555 4.764114,-4.0663 2.084698,-6.6816 -8.039063,-7.8437 -10.12374,-1.164 -19.653173,-0.8737 -28.585937,0.8691 -8.932697,1.7427 -19.35332,0.2895 -31.263672,-4.3574 7.146172,-18.5884 17.863839,-34.8517 32.15625,-48.793 14.292344,-13.9413 28.586522,-24.1083 42.878902,-30.498 14.29236,-6.3897 30.66792,-13.3606 49.12891,-20.9121 18.46099,-7.5515 47.34436,-28.7525 86.64844,-63.6055 2.38203,-8.1323 6.25361,-13.9422 11.61328,-17.4277 1.33988,-0.8713 2.95921,-1.4151 4.85742,-1.6329 z m 1685.6133,0 c 1.9726,0.2179 3.6289,0.7615 4.9687,1.6329 5.3593,3.4853 8.6349,9.2952 9.8262,17.4277 39.3038,34.853 68.1855,56.346 86.6465,64.4785 18.4607,8.1323 34.8383,15.1031 49.1308,20.9121 14.2925,5.8089 28.8817,15.974 43.7696,30.4961 14.8874,14.5221 25.3103,31.0776 31.2656,49.666 -10.7193,3.4855 -20.8428,4.356 -30.3711,2.6133 -9.5283,-1.7428 -19.3547,-1.7428 -29.4785,0 -10.1233,1.7427 -12.5058,4.6466 -7.1465,8.7129 5.3598,4.0662 17.2715,5.229 35.7324,3.4863 18.4609,-1.7447 28.2872,-1.4563 29.4785,0.8672 1.1907,2.3237 1.1907,5.8102 0,10.457 -1.1913,4.6469 -4.4672,8.7138 -9.8261,12.1993 -5.3597,3.4855 -13.1028,5.2265 -23.2266,5.2265 -10.1238,0 -5.6561,-3.4845 13.4004,-10.4551 5.9533,-2.3235 8.6323,-4.6472 8.039,-6.9707 -0.5955,-2.324 -4.4651,-2.9042 -11.6113,-1.7421 -14.2925,1.1614 -28.2875,2.3222 -41.9844,3.4843 -13.6967,1.1616 -22.0344,-1.7423 -25.0117,-8.7129 -2.978,-6.9708 -3.5738,-13.0711 -1.7871,-18.2988 1.7865,-5.2278 7.7417,-10.7457 17.8652,-16.5547 10.1217,-5.8076 19.9465,-12.7762 29.4727,-20.9062 -11.909,3.485 -24.1149,6.6801 -36.6191,9.584 -12.5062,2.9043 -21.4396,8.7125 -26.7989,17.4257 -5.36,8.7134 -6.2526,20.0413 -2.6797,33.9825 -7.1458,2.3235 -20.2484,1.1605 -39.3046,-3.4864 -19.0563,-4.6471 -29.1798,-15.1025 -30.3711,-31.3672 1.1911,-19.7499 -4.1678,-33.6919 -16.0782,-41.8242 8.3373,27.8825 6.252,49.6661 -6.2539,65.3496 -12.5059,15.6841 -16.6745,24.9787 -12.5058,27.8829 4.1686,2.9039 2.0834,4.3554 -6.2539,4.3554 -8.3369,0 -13.0997,-0.5801 -14.291,-1.7422 -1.1913,-1.164 -0.2984,-2.0364 2.6796,-2.6152 2.9775,-0.5808 6.5501,-6.389 10.7188,-17.4258 4.1687,-11.0369 6.2539,-20.0411 6.2539,-27.0117 0,-6.9707 -2.0852,-12.4884 -6.2539,-16.5547 -4.1687,-4.0661 -10.7197,-10.1644 -19.6524,-18.2969 -8.9323,-8.1324 -16.9709,-19.4603 -24.1171,-33.9824 -7.1459,-14.5225 -11.3146,-24.3973 -12.5059,-29.625 -1.1913,-5.2281 -4.4669,-10.1656 -9.8262,-14.8125 -5.3599,-4.6472 -9.5285,-11.3278 -12.5058,-20.041 -2.9773,-8.7134 -2.0843,-15.3941 2.6797,-20.041 7.1458,12.7795 16.674,23.2367 28.5839,31.3691 4.764,-1.1614 6.5521,-3.4852 5.3614,-6.9707 -9.5281,-8.1325 -17.2713,-16.2661 -23.2266,-24.3984 -5.9555,-8.1324 -5.3591,-14.2307 1.7871,-18.2969 7.1463,-4.0663 19.0561,-4.9387 35.7305,-2.6152 11.6128,-5.2283 20.379,-7.5149 26.2969,-6.8614 z m -1677.96486,2.502 c -2.9776,-0.5809 -6.25308,0.2898 -9.82618,2.6133 -8.33716,3.4853 -10.71955,8.713 -7.14648,15.6836 4.76409,6.9711 11.31511,8.714 19.65234,5.2285 7.1462,-3.4853 8.93241,-9.2934 5.35938,-17.4258 -2.3821,-3.4852 -5.0615,-5.5187 -8.03906,-6.0996 z m 1674.44726,0.9805 c -5.3596,-0.6534 -9.3806,1.6333 -12.0606,6.8613 -4.7639,6.9703 -2.9758,12.1981 5.3614,15.6836 8.337,3.4851 14.2919,1.7422 17.8652,-5.2285 3.5729,-6.9704 1.7868,-12.1981 -5.3594,-15.6836 -2.0843,-0.8713 -4.0201,-1.415 -5.8066,-1.6328 z" />
</svg>
