<?xml version="1.0" encoding="UTF-8" standalone="no"?>
<svg
   width="1314.9396"
   height="1799.9998"
   version="1.1"
   id="svg1"
   xmlns="http://www.w3.org/2000/svg"
   xmlns:svg="http://www.w3.org/2000/svg">
  <defs
     id="defs1" />
  <path
     id="path1"
     style="fill:#000000;stroke:none;stroke-width:94.5039"
     d="m 882.23438,0 c 5.17518,10.350294 15.00768,25.87565 29.49804,46.576172 14.49048,20.700523 25.61818,49.6804 33.38086,86.941408 7.76268,37.26091 18.37285,62.1031 31.82813,74.52344 13.45536,12.42027 25.35669,20.70168 35.70699,24.84179 h -15.52535 c -6.2102,4.14012 -6.2102,8.27988 0,12.41992 h 7.76175 l 6.2129,26.39258 c -15.52553,10.35028 -26.39338,23.80678 -32.60356,40.36719 -6.21008,16.56047 -9.83414,27.42646 -10.86914,32.60156 -7.24518,14.49036 -10.86719,30.5354 -10.86719,48.13086 -20.70046,24.84065 -29.49943,39.32863 -26.39453,43.46875 4.1402,4.14011 8.79953,7.24633 13.97461,9.31641 l -3.10742,4.6582 c -6.2101,3.10513 -6.2101,7.24483 0,12.41992 -4.1399,9.31523 -1.54946,14.49032 7.76562,15.52539 0,22.77051 9.31494,34.15625 27.94532,34.15625 h 34.15629 c 7.245,19.66552 15.0069,33.12195 23.2871,40.36719 h 1.5527 c -68.31173,0 -113.33661,21.2182 -135.07227,63.6543 l -23.28711,45.02344 c -14.49046,-16.56047 -37.00396,-37.77868 -67.5371,-63.6543 -30.53334,-25.87571 -60.28884,-62.10157 -89.26954,-108.67774 5.17524,-13.45535 8.27946,-29.50032 9.31446,-48.13085 2.0702,-9.31526 2.58783,-19.66353 1.55273,-31.04883 -1.035,-8.28015 -5.43461,-19.15008 -13.19726,-32.60547 -7.76274,-13.45531 -12.67798,-26.39216 -14.74805,-38.8125 -2.07006,-4.14013 -4.39878,-6.46884 -6.98633,-6.98633 -2.58758,-0.5175 -5.43393,0.77579 -8.53906,3.88086 -1.03501,-2.07006 -2.58815,-2.5878 -4.6582,-1.55273 -2.07006,1.03498 -3.10547,2.58814 -3.10547,4.6582 -3.10506,-2.07006 -5.69361,-2.58779 -7.76368,-1.55274 -2.07004,1.035 -3.10351,2.58815 -3.10351,4.65821 -1.03501,-2.07006 -3.62358,-2.32796 -7.76367,-0.77539 -4.14014,1.55247 -5.17358,4.39698 -3.10352,8.53711 9.31524,16.56046 16.30136,29.75713 20.95899,39.58984 4.65759,9.83274 7.50405,25.61597 8.53906,47.35156 0,4.14011 -0.77561,6.47078 -2.32813,6.98828 -1.55253,0.51749 -2.8478,-0.77581 -3.88281,-3.88086 -1.03505,-6.21018 -1.55273,-14.4896 -1.55273,-24.83984 -1.035,-8.28023 -2.84603,-15.01044 -5.4336,-20.18555 -2.5876,-5.17518 -6.46939,-6.21056 -11.64453,-3.10547 -3.10506,1.03501 -2.58737,6.72784 1.55274,17.07813 -1.03507,8.28025 -2.33025,20.44342 -3.88282,36.48633 -1.55248,16.0429 4.91786,32.34388 19.40821,48.90429 l 24.83984,57.44336 c 39.33094,77.62705 84.35587,136.62424 135.07227,176.99024 l -24.8418,41.91992 c -38.29592,0 -100.39548,4.65748 -186.30273,13.97266 -27.94571,-16.56033 -56.40987,-31.57004 -85.39063,-45.02539 V 633.43945 c 16.5604,-47.61122 33.12124,-77.62855 49.68164,-90.04883 10.35028,4.14012 17.59426,5.17552 21.73438,3.10547 4.14009,-2.07003 2.06932,-8.28058 -6.21094,-18.63086 -17.59545,-23.80563 -46.05769,-35.70898 -85.38867,-35.70898 -38.29602,0 -66.76017,11.90335 -85.39063,35.70898 -8.28024,10.35028 -10.0912,16.56083 -5.43359,18.63086 4.65762,2.07005 11.64374,1.03465 20.95898,-3.10547 16.56049,12.42028 33.63897,42.43761 51.23438,90.04883 v 100.91602 c -11.38527,1.03506 -16.04274,4.65506 -13.97266,10.86523 2.07006,6.21013 6.72749,10.35181 13.97266,12.42188 -17.59541,-3.10506 -24.8414,8.5385 -21.73633,34.93164 3.10507,26.39326 9.8333,39.58984 20.18359,39.58984 l -0.35011,674.05344 c 2.59301,11.8816 8.36866,46.7873 17.64559,45.894 10.75853,-1.036 20.19443,-29.6112 22.7216,-46.143 l 0.35011,-678.46264 c 17.59546,7.24517 43.9888,6.72938 79.17969,-1.55078 113.85297,18.63041 190.962,24.83903 231.32812,18.6289 l 74.52149,-93.15234 c 17.59546,-3.10507 29.4989,-5.6936 35.70898,-7.76367 5.1751,74.52191 6.7282,148.01102 4.6582,220.46289 -70.38196,13.45538 -178.02593,41.91954 -322.92968,85.39064 -50.71629,20.7008 -74.00334,64.6882 -69.86328,131.9648 -11.38531,92.1173 -19.14899,202.866 -23.28907,332.2442 v 1.5527 c 0,19.6775 -2.25889,23.3904 -8.26412,39.5093 0,0 -16.42151,49.8618 -41.41752,61.0669 -24.34454,12.85 -62.04491,24.8699 -113.33594,36.0488 -27.72943,9.243 -42.57226,22.6429 -44.71289,40.1406 H 254.25195 V 1709.3809 1800 H 1314.9395 v -107.9512 h -92.6954 V 954.81445 h 1.5508 c 0,-8.28018 3.624,-12.41992 10.8692,-12.41992 8.2802,0 12.4199,4.13974 12.4199,12.41992 v 128.86325 h 34.1562 V 942.39453 c 0,-21.73559 -15.0096,-32.60351 -45.0254,-32.60351 -31.0507,0 -46.5761,10.86792 -46.5761,32.60351 v 12.41992 h -18.6289 c 6.2102,-69.34683 10.8656,-141.79856 13.9707,-217.35547 h 51.2343 V 636.54297 c 13.4556,-12.42029 19.1483,-28.72127 17.0782,-48.9043 -2.07,-20.18302 -7.7628,-30.27344 -17.0782,-30.27344 0,-170.7794 -27.4267,-266.0044 -82.2832,-285.66992 l 6.209,-26.39258 h 7.7637 c 4.1401,-4.14004 4.1401,-8.2798 0,-12.41992 h -15.5273 c 11.3851,-4.14011 23.5484,-12.42152 36.4863,-24.84179 12.9379,-12.42034 23.5459,-37.26253 31.8262,-74.52344 8.2801,-37.261008 19.6658,-66.240885 34.1562,-86.941408 C 1269.3363,25.87565 1278.6509,10.350294 1282.791,0 c -11.3854,4.1401171 -27.1688,17.078933 -47.3515,38.814453 -20.1831,21.735584 -38.5549,66.240827 -55.1153,133.517577 4.14,-11.3853 6.209,-23.80443 6.209,-37.25976 0,-27.94572 -9.0551,-52.010338 -27.168,-72.193364 -18.1131,-20.183023 -43.7309,-30.27539 -76.8515,-30.27539 -33.1209,0 -58.7366,10.092367 -76.8496,30.27539 -18.11291,20.183026 -27.16996,44.247644 -27.16996,72.193364 0,13.45533 2.0688,25.87446 6.20898,37.25976 C 968.14266,105.05528 950.02874,60.550037 930.36328,38.814453 910.69792,17.078933 894.65464,4.1401171 882.23438,0 Z m 200.27932,54.339844 c 24.8405,-10e-7 44.5057,7.763656 58.9961,23.289062 14.4904,15.525409 21.7363,34.153074 21.7363,55.888674 1.035,23.80556 -6.4705,43.21474 -22.5137,58.22265 -16.0427,15.00785 -35.4483,22.50977 -58.2187,22.50977 -22.7705,0 -42.1777,-7.50192 -58.2207,-22.50977 -16.043,-15.00791 -23.5466,-34.41709 -22.5118,-58.22265 0,-21.7356 7.2461,-40.363265 21.7364,-55.888674 14.4903,-15.525406 34.1554,-23.289062 58.9961,-23.289062 z M 368.2832,113.63672 318.63867,272.25391 C 156.51915,105.40687 51.870021,83.069739 4.6972656,205.24609 -23.496068,333.36311 75.210204,374.6788 300.81445,329.19141 l -49.64648,158.61523 40.66992,12.72852 49.64844,-158.61328 284.69336,89.10937 17.82226,-56.9375 L 355.24023,283.71094 404.88867,125.0957 Z M 102.19727,164.5957 c 44.54339,-1.87296 106.9409,41.38112 187.19335,129.76172 C 104.12585,334.60933 21.428721,308.72382 41.300781,216.70312 55.171563,183.08806 75.47121,165.71949 102.19727,164.5957 Z m 916.66213,80.70703 h 127.3086 l -4.6582,26.39258 h -117.9922 z m 10.8672,52.78516 h 105.5722 c 34.1558,0 57.9627,62.10345 71.418,186.30664 v 223.56641 h -86.9414 V 408.31836 c 0,-27.94575 -10.3524,-41.91797 -31.0527,-41.91797 -19.6657,0 -29.4981,-4.65742 -29.4981,-13.97266 0,-9.31524 -20.1829,-17.59663 -60.54882,-24.84179 4.14002,-19.66553 14.49022,-29.49805 31.05082,-29.49805 z m -28.6504,50.67773 c 35.6598,1.01885 53.4922,18.28197 53.4922,51.79102 h 6.2089 c 5.1751,-16.56045 12.4211,-24.83984 21.7364,-24.83984 10.3503,0 12.1613,11.38566 5.4336,34.15625 -6.7276,22.77056 -13.1961,34.15625 -19.4063,34.15625 -5.1751,0 -7.7637,-3.10623 -7.7637,-9.31641 v -10.86914 h -6.2089 v 10.86914 c 0,11.38537 4.6575,17.07813 13.9726,17.07813 9.3153,0 17.0788,-8.79904 23.2891,-26.39454 v 108.67774 c -8.2803,8.28023 -21.7367,9.83339 -40.3672,4.6582 -10.3503,-11.3853 -17.0785,-26.39295 -20.1836,-45.02344 h -45.02344 c -15.52538,3.10506 -22.25359,-3.1055 -20.18359,-18.63086 l 21.73632,-12.41992 c 0,-3.10509 -8.79731,-7.76254 -26.39257,-13.97265 l -9.31641,3.10547 4.6582,-9.31641 -5.43359,-3.10352 c -3.6231,-2.07005 -5.69364,-4.65855 -6.21094,-7.76367 -0.5175,-3.10506 5.95087,-13.97305 19.40625,-32.60351 5.1754,-6.21018 8.02166,-11.64316 8.53906,-16.30079 0.5174,-4.65762 5.17488,-8.79738 13.97266,-12.41992 8.79758,-3.62262 18.37255,-3.62262 28.72265,0 10.3503,3.62254 20.1847,5.4336 29.5,5.4336 v -4.65821 c -11.3854,-3.1051 -23.0328,-6.72909 -34.9355,-10.86914 -11.90293,-4.14012 -24.06218,-2.58698 -36.48246,4.65821 3.10508,-6.2102 6.727,-11.38528 10.86718,-15.52539 5.8221,-0.51752 11.27887,-0.70219 16.37308,-0.55665 z m 3.3261,25.30079 c -2.0053,-0.19405 -3.9154,-0.16304 -5.72652,0.0957 -7.24538,1.035 -12.16045,3.62357 -14.74805,7.76367 -2.58748,4.14012 -5.95161,7.24442 -10.09179,9.31445 v 3.10547 c 5.17508,1.035 9.57261,2.33026 13.19531,3.88282 3.6225,1.55254 8.79778,1.81046 15.52535,0.77539 6.7278,-1.03499 14.2317,-4.65704 22.5118,-10.86719 h 20.1855 v -6.21094 h -20.1855 c -7.7627,-4.65762 -14.6499,-7.27718 -20.6661,-7.85937 z m -50.74996,57.54101 c 0,6.21018 4.65738,9.31445 13.97266,9.31446 6.21018,-6.21019 1.55282,-9.31446 -13.97266,-9.31446 z m -428.50195,83.83789 c 20.70057,0 37.77908,4.13968 51.23438,12.41992 -18.6305,22.77057 -35.70898,53.82136 -51.23438,93.15235 h -1.55273 c -15.52542,-39.33099 -32.60391,-70.38178 -51.23438,-93.15235 15.52541,-8.28024 33.12164,-12.41992 52.78711,-12.41992 z m 566.67971,45.02344 v 48.12891 c -39.331,14.49034 -78.6631,31.05111 -117.99416,49.68164 16.56046,-20.70058 20.18228,-40.10773 10.86718,-58.22071 -9.31528,-18.11297 18.63128,-29.24073 83.83788,-33.38086 z m 0,135.07227 v 41.91796 h 63.6543 c -3.1051,76.59198 -6.7291,133.26049 -10.8692,170.00391 -4.1403,36.7435 -3.8824,83.57758 0.7754,140.50391 4.6576,56.9266 -23.0289,85.3906 -83.0605,85.3906 H 736.29688 c -30.01586,0 -45.02344,15.5254 -45.02344,46.5762 v 304.2988 H 582.5957 c 2.07006,-73.4866 10.34942,-174.9204 24.83985,-304.2988 -5.1752,-54.8565 17.07848,-89.0114 66.75976,-102.4668 127.30828,-39.3312 235.98584,-66.7597 326.03319,-82.28516 2.0701,-83.83718 1.0346,-170.77884 -3.10545,-260.82617 35.19085,-7.24515 66.76125,-20.18395 94.70705,-38.81445 z m 77.625,290.32617 h 20.1836 v 405.21291 h -175.4375 v 273.248 H 723.875 v -484.3945 c 0,-9.3152 4.14168,-13.9727 12.42188,-13.9727 h 324.48042 c 96.2574,0 132.4835,-60.0305 108.6778,-180.09371 z m -121.0977,437.81641 141.2813,1.5508 v 239.0937 h -141.2813 z m -395.89842,90.0469 h 38.81446 v 178.3183 h -56.83399 c 11.78816,-4.4771 19.2393,-10.7047 21.12305,-19.1816 3.10505,-13.9727 0.77635,-28.9807 -6.98633,-45.0234 -7.76274,-16.043 -6.46748,-53.5642 3.88281,-112.5606 z m -69.86328,1.5527 h 41.91797 c -8.28022,62.1016 -8.79791,104.2801 -1.55273,126.5332 7.24516,22.2532 -4.1405,33.3789 -34.15625,33.3789 l -45.02344,0.4141 -40.36719,0.3691 -83.83789,0.7695 c -28.98076,1.035 -23.80372,-3.6221 15.52735,-13.9726 26.89904,-5.2838 49.54803,-11.9649 68.31054,-19.9238 21.54828,-3.8787 40.36719,-24.1602 40.36719,-24.1602 3.14416,-2.8032 5.99315,-5.7007 8.53711,-8.7012 20.18302,-23.8056 30.27734,-55.3758 30.27734,-94.707 z m -293.67968,211.4297 h 991.36128 v 38.623 H 288.91602 Z" />
</svg>
