<?xml version="1.0" encoding="UTF-8" standalone="no"?>
<svg
   width="1800.3018pt"
   height="666.41602pt"
   id="svg1333"
   version="1.0"
   xmlns="http://www.w3.org/2000/svg"
   xmlns:svg="http://www.w3.org/2000/svg"
   xmlns:rdf="http://www.w3.org/1999/02/22-rdf-syntax-ns#"
   xmlns:cc="http://creativecommons.org/ns#"
   xmlns:dc="http://purl.org/dc/elements/1.1/">
  <metadata
     id="metadata1340">
    <rdf:RDF>
      <cc:Work
         rdf:about="">
        <dc:format>image/svg+xml</dc:format>
        <dc:type
           rdf:resource="http://purl.org/dc/dcmitype/StillImage" />
        <dc:creator>
          <cc:Agent>
            <dc:title>SR &amp; ST</dc:title>
          </cc:Agent>
        </dc:creator>
        <dc:date>17/04/06</dc:date>
        <dc:publisher>
          <cc:Agent>
            <dc:title>Serge Rosmorduc</dc:title>
          </cc:Agent>
        </dc:publisher>
        <dc:description>variante optimisée du signe de Jsesh</dc:description>
        <cc:license
           rdf:resource="http://creativecommons.org/licenses/GPL/2.0/" />
      </cc:Work>
      <cc:License
         rdf:about="http://creativecommons.org/licenses/GPL/2.0/">
        <cc:permits
           rdf:resource="http://web.resource.org/cc/Reproduction" />
        <cc:permits
           rdf:resource="http://web.resource.org/cc/Distribution" />
        <cc:requires
           rdf:resource="http://web.resource.org/cc/Notice" />
        <cc:permits
           rdf:resource="http://web.resource.org/cc/DerivativeWorks" />
        <cc:requires
           rdf:resource="http://web.resource.org/cc/ShareAlike" />
        <cc:requires
           rdf:resource="http://web.resource.org/cc/SourceCode" />
      </cc:License>
    </rdf:RDF>
  </metadata>
  <defs
     id="defs1338" />
  <path
     id="path1335"
     style="fill:#000000;stroke:none;stroke-width:105.652"
     d="m 1857.2188,0 c -8.9602,0 -20.2702,1.88463 -34.4629,6.05664 -41.9017,40.68609 -32.1754,100.73475 -38.502,166.52539 -3.0722,31.94799 -3.314,129.00827 29.5938,171.89453 13.6427,17.77963 27.1003,35.41967 41.7343,52.78516 -18.1627,-3.34159 -32.2553,-6.86178 -37.5117,-10.32422 L 1623.2715,349.83203 1489.4473,442.71485 1313.0332,345.45899 1188.0664,442.71485 1014.4727,345.45899 886.6875,442.71485 715.91406,345.45899 585.30859,442.71485 417.35547,345.45899 283.92969,442.71485 118.79492,345.45899 0,442.71485 v 124.09961 l 118.79492,-90.85157 165.13477,90.85157 133.42578,-90.85157 167.95312,90.85157 130.60547,-90.85157 170.77344,90.85157 127.7852,-90.85157 173.5937,90.85157 124.9668,-90.85157 176.4141,90.85157 122.1445,-90.85157 c 0,0 130.4258,20.57817 196.6562,35.15625 l 16.7071,9.12891 c -40.1289,47.72253 -44.3633,107.63873 -41.0117,174.29687 2.4799,49.32421 -2.2146,125.3937 40.9277,164.63086 25.6773,20.73914 44.2089,29.37891 57.0098,29.37891 16.6682,0 45.5024,-35.57129 68.5996,-93.03906 26.0762,-64.88023 117.2687,-109.12785 181.8652,-122.6543 65.1559,-9.57822 264.385,4.02129 268.0566,-220.59766 C 2399.2788,246.13245 2145.3437,229.96968 2064.0371,225 2018.2852,210.16398 1961.1562,164.9495 1945.9043,116.85742 1931.044,70.00041 1877.5151,0 1857.2188,0 Z m -0.7969,97.386721 c 21.9106,46.605119 78.1593,163.610079 159.8691,183.550779 138.6681,33.84097 128.2616,12.32367 210.752,43.43555 39.1982,10.06396 107.1639,68.21351 109.4882,125.91797 -3.2299,58.54748 -63.5425,111.66206 -118.332,122.72265 -49.3651,13.65358 -106.4814,17.52926 -203.5234,44.48829 -75.9639,21.10329 -111.3634,114.40817 -137.6582,164.4082 -60.0446,-99.57267 13.643,-245.03913 52.8047,-267.0586 42.563,-22.4291 75.3631,-29.27343 115.3379,-29.27343 21.509,0 45.0964,1.98094 73.3984,4.58203 66.4285,2.52245 82.4446,-68.67933 -5.9375,-77.2793 -0.3839,-0.0374 -0.7707,0 -1.1543,0 -28.1651,0 -50.9595,1.20313 -70.623,1.20313 -42.4989,0 -70.3677,-5.62577 -106.1993,-41.20313 -36.4798,-24.15703 -106.3727,-85.79673 -78.2226,-275.494139 z" />
</svg>
