<?xml version="1.0" encoding="UTF-8" standalone="no"?>
<!-- Created with Inkscape (http://www.inkscape.org/) -->

<svg
   width="1220"
   height="1410"
   viewBox="0 0 1220 1410"
   version="1.1"
   id="svg2792"
   inkscape:version="1.2.2 (732a01da63, 2022-12-09)"
   sodipodi:docname="US9D19VARB.svg"
   xmlns:inkscape="http://www.inkscape.org/namespaces/inkscape"
   xmlns:sodipodi="http://sodipodi.sourceforge.net/DTD/sodipodi-0.dtd"
   xmlns="http://www.w3.org/2000/svg"
   xmlns:svg="http://www.w3.org/2000/svg">
  <sodipodi:namedview
     id="namedview2794"
     pagecolor="#ffffff"
     bordercolor="#000000"
     borderopacity="0.25"
     inkscape:showpageshadow="2"
     inkscape:pageopacity="0.0"
     inkscape:pagecheckerboard="0"
     inkscape:deskcolor="#d1d1d1"
     inkscape:document-units="px"
     showgrid="false"
     inkscape:zoom="0.54660447"
     inkscape:cx="399.74061"
     inkscape:cy="687.88315"
     inkscape:window-width="1920"
     inkscape:window-height="1137"
     inkscape:window-x="-8"
     inkscape:window-y="-8"
     inkscape:window-maximized="1"
     inkscape:current-layer="layer1" />
  <defs
     id="defs2789" />
  <g
     inkscape:label="Ebene 1"
     inkscape:groupmode="layer"
     id="layer1">
    <path
       id="path709"
       style="color:#000000;fill:#000000;stroke-width:3.79;stroke-linecap:round;-inkscape-stroke:none"
       d="M 890.31876,6.4420801 C 815.56924,8.3592568 735.6287,17.31166 672.02396,59.493018 621.22559,120.11121 607.91233,204.77553 565.93383,272.02383 473.12165,455.6637 366.6276,632.79623 244.12637,798.1108 163.08498,934.65297 89.341022,1075.63 14.460298,1215.448 c -32.56566,79.7044 33.229081,165.6724 113.078182,178.7989 72.34565,19.7213 147.46681,2.6402 211.68277,-31.7302 99.86234,-10.4627 199.8728,13.0963 300.03637,3.1669 135.7109,-8.2919 273.49766,-13.3565 405.57818,-47.6414 84.9575,-31.4174 99.0676,-131.3073 131.1084,-204.4225 32.6775,-153.96162 32.9747,-312.75269 37.8076,-469.50879 -7.0546,-166.1098 -23.7392,-332.37353 -53.4308,-496.01949 C 1151.9128,64.390673 1064.4276,26.540706 991.13259,15.976246 957.92117,9.6775209 924.1207,6.5029862 890.31876,6.4420801 Z m -0.0803,60.3602029 c 60.69138,1.645589 124.62944,8.495043 178.81854,37.253357 45.103,34.61522 36.0454,102.97857 49.0809,155.5256 21.958,176.13893 44.3613,353.67366 31.1427,531.45337 -7.8975,109.31697 -5.9093,222.00519 -39.2823,327.28749 -25.9236,51.1905 -30.7676,132.056 -97.9583,146.6397 -150.30267,30.9825 -304.60542,39.2989 -457.76728,42.4357 -32.4076,0.034 -66.13616,-3.617 -99.93443,-6.4005 26.26559,-11.5489 52.28772,-23.7938 72.84978,-44.1984 16.83129,-17.3456 24.78097,-42.4991 20.69198,-66.3474 -4.71666,-20.6422 -15.12071,-73.3173 -45.71033,-80.5391 -16.86907,-3.5994 -29.4116,20.6477 -17.89909,32.9211 35.78685,54.7929 30.01741,81.0579 -17.38596,107.9018 -31.82946,16.3591 -66.99368,26.8145 -96.18577,47.9157 -37.65358,2.2531 -74.10323,10.6786 -107.5179,32.2727 -60.36047,19.502 -141.65303,17.3566 -185.403092,-34.7171 C 41.800841,1233.9067 113.02427,1178.0857 132.8324,1121.7907 205.83485,989.90508 270.95624,852.44346 364.71945,733.54366 418.08263,654.72724 469.07137,574.09458 516.79213,491.5956 c 4.41616,13.34562 24.38667,22.82491 37.95257,8.83301 40.59154,-19.85832 83.1537,-38.32675 128.78762,-41.60328 53.80967,-6.97065 109.44291,-9.67395 162.1337,5.74637 56.78657,13.93958 113.22855,29.23706 169.63498,44.63116 34.1766,6.45524 30.673,-42.70274 1.369,-41.2194 -66.5082,-17.66021 -132.68224,-37.04475 -200.14509,-50.76142 -63.09165,-8.08385 -135.82005,-2.50379 -192.18157,11.4418 -32.64538,9.28456 -63.92371,22.95571 -93.79247,39.00038 C 594.68514,354.75219 652.49031,238.30467 701.3452,117.98869 744.87692,74.347615 813.92953,72.717592 872.14152,67.101939 l 9.04455,-0.233046 z M 775.53861,517.72642 c -66.45366,0.29865 -132.58975,12.13684 -196.39638,30.10467 -57.976,23.85664 -98.57519,74.50397 -133.8485,124.25361 9.47445,15.56539 34.76556,2.62749 50.24435,9.54005 90.84669,7.36378 184.85226,18.1712 273.5393,-9.34615 44.47986,-12.32817 86.67124,-31.66821 129.34971,-48.59331 29.89312,-5.23286 59.78644,-10.46477 89.67956,-15.69766 4.35278,-19.9839 5.7417,-47.99638 -22.28427,-47.13617 -67.42796,-20.99555 -129.52197,-43.39815 -190.28377,-43.12504 z m 2.02511,40.00902 c 42.02868,0.91717 88.19998,6.50569 121.50972,20.58813 -86.6894,51.35065 -201.82682,74.94122 -298.55769,70.36638 -27.18679,-1.33776 -54.33515,-3.35575 -81.46931,-5.48981 29.77598,-35.59583 70.93613,-64.48991 118.24675,-68.66047 49.24648,-7.97883 97.74086,-17.73233 140.27053,-16.80423 z"
       sodipodi:nodetypes="cccccccccccccccccccccccccccccccccccccccccccccscccccccssccccs" />
  </g>
</svg>
