<?xml version="1.0" encoding="UTF-8" standalone="no"?>
<svg
   width="15.26"
   height="10.13"
   version="1.1"
   id="svg4"
   sodipodi:docname="US9D417XT.svg"
   inkscape:version="1.2.1 (9c6d41e410, 2022-07-14)"
   xmlns:inkscape="http://www.inkscape.org/namespaces/inkscape"
   xmlns:sodipodi="http://sodipodi.sourceforge.net/DTD/sodipodi-0.dtd"
   xmlns="http://www.w3.org/2000/svg"
   xmlns:svg="http://www.w3.org/2000/svg">
  <defs
     id="defs8" />
  <sodipodi:namedview
     id="namedview6"
     pagecolor="#ffffff"
     bordercolor="#000000"
     borderopacity="0.25"
     inkscape:showpageshadow="2"
     inkscape:pageopacity="0.0"
     inkscape:pagecheckerboard="0"
     inkscape:deskcolor="#d1d1d1"
     showgrid="false"
     inkscape:zoom="52.141779"
     inkscape:cx="6.4439689"
     inkscape:cy="7.8056409"
     inkscape:window-width="1920"
     inkscape:window-height="1017"
     inkscape:window-x="1072"
     inkscape:window-y="-8"
     inkscape:window-maximized="1"
     inkscape:current-layer="svg4" />
  <path
     id="path2"
     style="fill:#000000;stroke:none"
     d="M 6.7226562,0.00195313 C 6.2509901,-0.0063802 5.7867443,0.0406251 5.3300781,0.140625 4.410079,0.3406248 3.4759626,0.93635516 2.5292969,1.9296875 1.5826312,2.9163532 0.73999926,3.443099 0,3.5097656 V 4.2109375 C 1.5399985,4.337604 2.9834128,4.5166669 4.3300781,4.75 L 1.9431443,10.112809 H 11.534666 L 9.109375,4.75 c 0.2333331,-0.033333 0.5666671,-0.1042709 1,-0.2109375 1.979998,-0.4799995 3.24435,-0.7629428 3.791016,-0.8496094 l 1.359375,-0.019531 V 2.8105469 H 13.839844 C 13.206511,2.5905471 12.343332,2.1564316 11.25,1.5097656 10.163334,0.86309961 9.1334886,0.42278623 8.1601562,0.18945312 7.6734901,0.07278658 7.1943224,0.01028645 6.7226562,0.00195313 Z M 6.6308594,0.6796875 C 6.8775258,0.67302084 7.1131773,0.71721364 7.3398438,0.81054688 7.5665102,0.89721345 7.763021,1.0227866 7.9296875,1.1894531 8.096354,1.349453 8.2331772,1.5335679 8.3398438,1.7402344 8.4398436,1.9735675 8.4933333,2.21737 8.5,2.4707031 8.5066667,2.7240362 8.467526,2.9596877 8.3808594,3.1796875 8.2875261,3.3996873 8.1630988,3.5930991 8.0097656,3.7597656 7.8497658,3.9330988 7.653255,4.069922 7.4199219,4.1699219 7.1999221,4.2765884 6.9673695,4.3331771 6.7207031,4.3398438 6.4807034,4.3465104 6.2430987,4.2992186 6.0097656,4.1992188 5.7830992,4.0992188 5.5865884,3.9736457 5.4199219,3.8203125 5.2532554,3.6669793 5.1164322,3.4797654 5.0097656,3.2597656 4.9097657,3.0397658 4.859375,2.8072133 4.859375,2.5605469 4.8460417,2.3138805 4.8871355,2.0762758 4.9804688,1.8496094 5.0671353,1.6229429 5.1896095,1.4264321 5.3496094,1.2597656 5.5162759,1.0864325 5.7096877,0.94960928 5.9296875,0.84960938 6.1496873,0.74294281 6.384193,0.68635416 6.6308594,0.6796875 Z M 8.7792969,1.140625 c 0.3666663,0.013333 0.9848967,0.2819276 1.8515621,0.8085938 0.866666,0.5199994 1.751538,0.9510159 2.658203,1.2910156 -0.659999,0.04 -1.386354,0.1830211 -2.179687,0.4296875 C 10.309376,3.9165883 9.4698429,4.0976043 8.5898438,4.2109375 8.7298436,4.0576043 8.8666668,3.8230986 9,3.5097656 9.1266665,3.1964326 9.1894531,2.8723955 9.1894531,2.5390625 9.1894531,2.1723962 9.1266665,1.8359632 9,1.5292969 8.9466667,1.3826304 8.8726301,1.2539582 8.7792969,1.140625 Z M 4.5097656,1.1992188 C 4.4564323,1.312552 4.3967447,1.4226303 4.3300781,1.5292969 L 4.1601562,2.5390625 c 0,0.333333 0.056589,0.6511722 0.1699219,0.9511719 C 4.4367447,3.7502341 4.5859637,3.9827867 4.7792969,4.1894531 3.5726314,3.9694533 2.486197,3.8140364 1.5195312,3.7207031 2.1261973,3.3473702 2.6025524,2.9399996 2.9492188,2.5 3.3025517,2.0600004 3.8230996,1.625885 4.5097656,1.1992188 Z m 0.4511719,3.6699218 c 0.4533329,0.08 0.929688,0.1272917 1.4296875,0.140625 v 4.484375 l -3.5826764,0.019179 z m 3.5097656,0 2.1819329,4.625 H 7.0507812 V 4.9902344 C 7.5041141,4.9769011 7.9773703,4.9358072 8.4707031,4.8691406 Z"
     sodipodi:nodetypes="sccccccccccccccssscccscccccscccccsccccccscccccccccccccccccccc" />
</svg>
