<?xml version="1.0" encoding="UTF-8" standalone="no"?>
<svg
   width="1799.8571"
   height="1368.2225"
   version="1.1"
   id="svg1794"
   xml:space="preserve"
   xmlns="http://www.w3.org/2000/svg"
   xmlns:svg="http://www.w3.org/2000/svg"><defs
     id="defs1798" /><path
     id="path1792"
     style="fill:#000000;stroke:none;stroke-width:104.969"
     d="M 412.33492,0.04228141 C 295.68057,-2.2756336 206.78369,91.058857 157.08152,193.94364 116.00498,278.97315 105.0186,450.90886 102.3211,559.40031 70.065399,561.5528 38.515591,569.2929 0,575.7276 c 8.3238684,30.53851 30.54747,49.47247 52.658827,50.09247 4.923094,32.66803 12.426234,65.00999 17.793147,91.80162 11.042299,3.05418 21.344396,5.48559 31.297646,7.63773 0.66779,123.00101 5.67231,346.03288 58.43736,437.65238 79.96504,138.8485 145.54456,188.7569 257.93487,188.7569 0.57068,-152.8166 -0.25784,-406.89144 -1.34409,-558.50148 82.3377,28.84178 159.60485,50.45905 206.59968,52.96767 150.4999,-170.34933 188.27379,-376.23686 303.98362,-557.82985 65.8769,-11.4811 160.30044,21.1624 211.05754,40.3494 18.624,159.43115 35.3893,209.64421 125.2609,378.8992 -14.2299,142.79829 -1.707,274.99416 -50.1287,396.47926 -33.8562,42.2272 -58.3996,77.3334 -78.7075,111.7306 -93.3816,1.1136 -288.91069,1.5246 -410.17326,4.6484 -6.21365,0.1601 -71.89033,-37.0762 -77.50963,-36.9105 -2.55949,34.6174 -2.83447,116.4879 -3.09622,133.2678 5.55597,0.1432 74.34598,-36.7719 80.64462,-36.6344 108.85678,2.3757 289.16799,5.5461 373.37509,6.5343 -8.9535,19.9 -17.4927,40.8332 -26.3588,63.8958 29.4288,8.0567 56.5423,-1.7264 68.3201,-20.9031 20.3988,10.4158 38.9446,18.587 57.1337,22.9876 47.3893,-2.4722 87.2863,5.1265 104.855,-28.9022 3.279,-11.1138 6.915,-23.6686 10.4778,-36.1249 32.1014,-0.1795 63.5448,-0.4007 88.5016,-0.9342 35.3957,8.0191 66.4737,23.6126 93.2342,46.7831 26.7644,23.1668 60.0023,34.7513 99.7117,34.7513 39.7132,0 67.1244,-7.5737 82.232,-22.7212 15.1078,-15.1477 39.4938,-24.0592 73.1602,-26.7347 33.664,-2.6712 50.4975,-10.6894 50.5037,-24.0515 -0.011,-15.1441 -11.442,-22.716 -34.3125,-22.716 -22.8802,0 -34.3194,-6.6837 -34.3194,-20.0502 -0.8628,-14.257 10.3596,-21.3856 33.6689,-21.3856 23.3096,0 34.9647,-7.13 34.9647,-21.3909 0,-14.2532 -16.6181,-22.7183 -49.8551,-25.3939 -33.2368,-2.6755 -57.6246,-11.5871 -73.1618,-26.7347 -15.541,-15.1514 -43.1675,-22.7263 -82.8807,-22.7263 -39.7094,0 -72.9473,11.5841 -99.7117,34.7547 -26.7605,23.1704 -57.8385,38.7656 -93.2342,46.7848 -20.0867,-0.4288 -46.4372,-0.519 -71.2313,-0.6955 6.0506,-34.8936 8.0661,-70.1428 0.1341,-101.2835 88.0757,-155.97207 80.1135,-249.68129 94.9426,-393.82027 C 1345.0142,467.12413 1376.3599,339.39857 1239.8615,111.02651 1164.3086,75.075496 1063.0558,78.244068 977.6065,78.949749 932.84745,79.319385 889.5993,85.817727 850.86737,99.598447 688.4808,263.08362 667.6943,488.40252 578.39598,692.9788 523.78703,678.47801 469.12736,665.30522 415.81076,652.6 414.17015,453.45419 412.33492,189.67305 412.33492,0.04228141 Z M 1799.8551,1294.7151 v 0.011 -0.017 0.011 z M 362.46314,65.064248 c 0.17043,196.467612 1.39991,420.885472 2.6647,575.379382 C 313.04375,628.05471 309.60034,618.41982 264.0801,606.24567 225.48769,583.28692 193.98854,570.45579 165.84319,563.99506 168.21927,467.24051 177.58567,307.9908 211.28554,237.0696 250.4812,154.58254 291.7178,77.518233 362.46314,65.064248 Z M 264.0801,715.91076 c 45.80352,20.67963 50.54662,39.48026 102.05329,58.87918 0.97109,125.22826 1.83951,355.31836 1.97925,509.39516 -71.76012,-12.4151 -113.96371,-82.363 -154.0166,-165.0151 -37.21797,-76.8022 -45.84485,-279.33082 -48.06682,-384.83698 71.10068,3.82097 98.05088,-18.42226 98.05088,-18.42226 z M 1592.989,1182.4222 c 28.7054,0 56.655,16.0417 83.8509,48.1238 h -172.2335 c 30.2153,-32.0821 59.677,-48.1238 88.3826,-48.1238 z m -88.3826,89.5596 h 172.2335 c -54.3914,63.2699 -111.8028,63.2699 -172.2335,0 z" /></svg>
