<?xml version="1.0" encoding="UTF-8" standalone="no"?>
<svg
   width="1795.403"
   height="1398.9843"
   version="1.1"
   id="svg4"
   xmlns="http://www.w3.org/2000/svg"
   xmlns:svg="http://www.w3.org/2000/svg">
  <defs
     id="defs8" />
  <path
     id="path2"
     style="fill:#000000;stroke:none;stroke-width:84.2353"
     d="m 1343.6346,0 c -36.2864,0 -64.8629,13.97553 -85.7279,41.92542 -20.8648,27.94982 -32.6571,57.25197 -35.3784,87.9067 -2.7216,30.65468 -23.1325,73.48017 -61.2333,128.47832 -38.101,54.99816 -67.1306,121.26759 -87.088,198.8059 -19.9577,77.53838 -54.4302,116.30702 -103.4171,116.30702 -48.98681,0 -127.91001,8.11549 -236.76965,24.34445 -108.85963,16.22897 -186.87658,7.21278 -234.04908,-27.04835 L 480.91974,538.26143 V 340.80748 c 0,-64.71318 -59.04033,-285.06 -237.254,-285.06 C 65.452046,55.74748 2.7276517,233.78951 0,340.80748 l 2.7205814,631.40628 c 0,73.93194 22.6802636,110.89744 68.0384466,110.89744 H 372.06156 c 70.75878,0 107.04386,-20.7363 108.85818,-62.2104 V 722.18842 c 16.32895,-1.80326 35.38048,-4.05686 57.15245,-6.76163 21.7719,-2.70485 89.80899,-3.15522 204.11163,-1.35196 114.30265,1.80321 203.20563,-3.60645 266.70708,-16.22901 63.5013,-12.62255 109.7663,-31.55563 138.7956,-56.80064 27.215,-43.27722 96.1601,-204.666 206.8341,-484.16469 10.886,0 26.7601,9.91688 47.6249,29.75227 20.8647,19.83538 44.9063,58.1537 72.1211,114.95506 27.215,56.80136 68.943,113.60423 125.1871,170.40559 56.2443,56.80136 70.7591,106.83977 43.5441,150.117 -23.5862,43.27723 -57.1506,117.20997 -100.6946,221.79655 -43.5438,104.5867 -83.0062,172.20714 -118.3857,202.86184 -35.3794,30.6545 -61.2334,63.113 -77.5623,97.374 -16.3289,34.2611 -28.1212,56.8007 -35.3786,67.62 H 833.94656 c -7.18056,0 -211.96715,-118.9963 -211.96715,-112.7862 v 298.9231 c 0,13.4289 203.75641,-102.2861 211.96715,-102.2861 h 438.92904 l -10.8861,32.4581 c 14.5145,9.0157 28.5746,11.2695 42.1819,6.7616 13.6075,-4.5079 24.0405,-11.2706 31.2977,-20.2868 7.2572,5.41 31.2968,8.1156 72.1194,8.1156 40.8223,0 68.4907,-9.0162 83.0052,-27.0485 68.9446,0 139.704,3.6066 212.2771,10.8194 10.8861,-34.261 10.8861,-69.4251 0,-105.4895 -72.5731,5.4096 -131.5384,9.0161 -176.8966,10.8193 l 5.443,-59.5063 c 10.8861,-43.2772 17.6904,-74.3826 20.4118,-93.3164 2.7215,-18.9338 34.4715,-76.18524 95.2515,-171.75574 60.7801,-95.57057 102.0569,-174.46266 123.8288,-236.67364 21.7717,-62.21102 29.0291,-110.44618 21.7719,-144.70733 C 1770.9092,460.72297 1666.5854,318.26726 1479.7096,78.43933 1430.7228,26.146 1385.364,0 1343.6346,0 Z M 243.66574,108.29857 c 125.86487,4.27488 169.2174,182.80416 169.2174,232.50891 v 634.11018 c 5.44299,30.65474 -8.16366,45.98314 -40.82158,45.98314 H 108.86004 c -25.400595,0 -38.101012,-16.2292 -38.101012,-48.68704 V 340.80748 c 0,-73.73125 47.041842,-236.7838 172.906712,-232.50891 z m 526.6989,1130.53673 -1.84664,36.7056 -104.97402,50.2317 v -147.4835 z" />
</svg>
