<?xml version="1.0" encoding="UTF-8" standalone="no"?>
<svg
   width="1800"
   height="1528.6462"
   id="svg1946"
   version="1.1"
   xml:space="preserve"
   xmlns="http://www.w3.org/2000/svg"
   xmlns:svg="http://www.w3.org/2000/svg"
   xmlns:rdf="http://www.w3.org/1999/02/22-rdf-syntax-ns#"
   xmlns:cc="http://creativecommons.org/ns#"
   xmlns:dc="http://purl.org/dc/elements/1.1/"><metadata
     id="metadata1953"><rdf:RDF><cc:Work
         rdf:about=""><dc:format>image/svg+xml</dc:format><dc:type
           rdf:resource="http://purl.org/dc/dcmitype/StillImage" /><dc:creator><cc:Agent><dc:title>SR &amp; ST</dc:title></cc:Agent></dc:creator><dc:publisher><cc:Agent><dc:title>Serge Rosmorduc</dc:title></cc:Agent></dc:publisher><dc:date>30/09/06</dc:date><cc:license
           rdf:resource="http://creativecommons.org/licenses/GPL/2.0/" /><dc:description>variante optimisée du signe Jsesh D33</dc:description></cc:Work><cc:License
         rdf:about="http://creativecommons.org/licenses/GPL/2.0/"><cc:permits
           rdf:resource="http://web.resource.org/cc/Reproduction" /><cc:permits
           rdf:resource="http://web.resource.org/cc/Distribution" /><cc:requires
           rdf:resource="http://web.resource.org/cc/Notice" /><cc:permits
           rdf:resource="http://web.resource.org/cc/DerivativeWorks" /><cc:requires
           rdf:resource="http://web.resource.org/cc/ShareAlike" /><cc:requires
           rdf:resource="http://web.resource.org/cc/SourceCode" /></cc:License></rdf:RDF></metadata><defs
     id="defs1951" /><path
     id="path1948"
     style="fill:#000000;stroke:none;stroke-width:94.2972"
     d="m 601.6203,0 c -55.10384,0 -55.10384,99.480924 0,99.480924 H 751.6031 C 749.65257,290.15007 637.31669,263.28141 582.2128,444.19764 c 56.86776,30.80334 116.45093,48.45986 177.64566,58.71131 37.43355,82.71146 39.18952,233.84712 77.98516,291.48657 -57.42159,13.99461 -148.52424,95.88117 -239.40839,133.57525 -43.80024,-5.96168 -73.86316,-14.51513 -90.19098,-25.66 -16.32781,-11.14467 -48.3776,-5.09741 -96.15228,18.14108 L 26.826743,762.04227 0,833.48785 418.48205,1004.5959 c 35.93797,56.4428 65.81491,68.1928 89.63055,35.249 l 258.3413,96.4595 c -12.46945,26.0612 -10.53999,44.6627 5.78776,55.8074 16.32778,11.1445 43.09487,14.7877 80.30073,10.9293 15.55049,-1.353 28.56619,-7.7589 39.04846,-19.2201 l 527.59595,197.496 c 36.7151,68.9408 91.8918,114.2458 165.5256,135.9168 73.6339,21.6708 145.395,12.4791 215.2861,-27.5766 -25.9451,-78.8756 -72.9263,-135.2117 -140.9447,-169.0059 -68.018,-33.7945 -139.0316,-37.3874 -213.0402,-10.7798 l -532.60794,-198.922 c 58.22866,-59.9834 190.74654,-173.54027 265.41144,-275.49317 -17.4874,-57.60282 -64.6425,-271.24352 -95.3045,-331.36869 61.4493,-12.41845 121.142,-33.04402 179.4526,-59.89 C 1200.5467,262.79377 1111.8817,291.12535 1099.6905,99.480924 h 147.0839 c 55.1041,0 55.1041,-99.480924 0,-99.480924 z m 0,34.136241 h 645.1541 c 10.7283,0 10.7283,31.208453 0,31.208453 H 601.6203 c -10.72821,0 -10.72821,-31.208453 0,-31.208453 z m 210.93781,65.344683 h 225.68879 c 15.4073,154.004136 100.0581,220.327866 150.5962,310.582476 -86.8008,38.0363 -171.1645,54.61479 -255.52723,54.61479 H 922.58796 C 835.29943,463.21525 747.52446,443.71091 656.33487,410.0634 722.32429,301.35232 801.34387,257.19054 812.55811,99.480924 Z M 882.94317,515.0429 c 12.05265,0.54075 24.11992,1.02348 36.23236,1.32629 v 0.48862 c 0.48764,-0.48766 0.48763,-0.48862 0.97526,-0.48862 0.48764,0 1.46191,0.48862 1.46191,0.48862 h 1.95052 c 0.48765,0 0.97526,-0.48862 1.95053,-0.48862 0,0 0.48863,9.6e-4 0.48863,0.48862 v -0.48862 c 5.97188,0.31431 11.9439,0.44451 17.91574,0.62822 28.32618,61.50409 60.00838,233.12487 98.83068,278.03831 -60.64991,98.74367 -92.10206,178.20689 -194.5243,259.45618 -14.39868,7.4583 -26.7959,12.9576 -37.19166,16.4998 L 608.67252,994.79532 C 765.87618,965.13664 891.07461,882.31428 953.4194,852.66805 968.26515,800.4372 916.20703,622.25328 882.94317,515.0429 Z" /></svg>
