<?xml version="1.0" encoding="UTF-8" standalone="no"?>
<!-- Created with Inkscape (http://www.inkscape.org/) -->

<svg
   width="1075"
   height="1270"
   viewBox="0 0 1075 1270"
   version="1.1"
   id="svg1980"
   inkscape:version="1.2.2 (732a01da63, 2022-12-09)"
   sodipodi:docname="US9D20VARA.svg"
   xmlns:inkscape="http://www.inkscape.org/namespaces/inkscape"
   xmlns:sodipodi="http://sodipodi.sourceforge.net/DTD/sodipodi-0.dtd"
   xmlns="http://www.w3.org/2000/svg"
   xmlns:svg="http://www.w3.org/2000/svg">
  <sodipodi:namedview
     id="namedview1982"
     pagecolor="#ffffff"
     bordercolor="#000000"
     borderopacity="0.25"
     inkscape:showpageshadow="2"
     inkscape:pageopacity="0.0"
     inkscape:pagecheckerboard="0"
     inkscape:deskcolor="#d1d1d1"
     inkscape:document-units="px"
     showgrid="false"
     inkscape:zoom="0.41053452"
     inkscape:cx="378.77449"
     inkscape:cy="993.8263"
     inkscape:window-width="1920"
     inkscape:window-height="1137"
     inkscape:window-x="-8"
     inkscape:window-y="-8"
     inkscape:window-maximized="1"
     inkscape:current-layer="layer1" />
  <defs
     id="defs1977" />
  <g
     inkscape:label="Ebene 1"
     inkscape:groupmode="layer"
     id="layer1">
    <path
       id="path979"
       style="color:#000000;fill:#000000;stroke-width:1.03499;stroke-linecap:round;-inkscape-stroke:none"
       d="M 890.22806,2.4792182 C 799.76344,2.5094604 719.04052,55.20082 644.91632,101.94697 589.88364,139.62667 551.62873,197.33356 534.66618,261.41355 447.0926,484.24978 309.50244,682.93903 160.61198,868.71949 116.64321,923.44642 45.837003,954.03839 18.681528,1022.2389 c -30.525369,57.0634 -12.2120532,129.6112 38.05592,169.1735 87.045932,73.5589 211.053652,81.5917 320.673232,74.6416 70.48738,-4.469 141.04202,-85.4301 75.65742,-143.66 -46.12104,-44.8712 -113.36488,-54.2298 -174.3797,-58.9962 -55.70342,-4.3513 -58.61832,32.2131 -4.26121,43.3966 43.29875,8.9083 151.81262,29.5294 126.87345,84.7071 -71.02865,27.1398 -151.62061,15.5978 -223.29807,-4.1703 C 131.0718,1169.9462 71.023705,1141.1687 66.183733,1084.8696 70.970667,1003.5661 158.11669,971.64098 203.18383,915.00678 256.55617,852.05585 303.08862,783.73007 351.779,717.12443 c 42.10673,28.20795 83.88316,57.07392 128.55855,80.96334 52.05256,20.37535 108.33054,27.84821 163.67925,29.88926 99.2934,3.66155 187.32497,1.90693 272.47198,-2.06997 10.36943,-12.87541 6.71265,-18.32684 -7.74822,-27.06727 -48.34959,-29.22356 -87.81208,-70.0705 -137.39026,-96.71253 -70.91966,-38.1104 -135.35685,-85.49314 -204.67639,-86.24338 -62.6369,-0.67791 -121.51564,25.1638 -178.1044,50.07144 33.1171,-49.0032 62.61529,-100.09206 89.99724,-152.38336 17.97694,3.59566 39.92833,-0.64435 56.86558,1.45341 60.02005,1.54436 120.53187,7.93814 177.24927,28.73499 53.96418,16.85443 105.88466,40.73444 152.10444,73.46779 52.03541,33.34709 107.82736,61.60761 167.39476,78.48098 29.3254,11.4036 52.8766,7.54575 30.5259,-16.94988 -17.7414,-17.58096 -69.30413,-47.99379 -90.16902,-60.88826 C 898.38433,572.04428 860.39607,531.40386 782.12668,502.34679 709.74545,473.7161 633.04653,454.41904 554.8969,453.09806 539.82669,452.48437 524.74494,452.25339 509.66279,452.17023 548.18516,373.69673 583.63937,293.50615 621.332,214.71186 659.33897,135.26048 754.9373,105.21665 831.71703,70.292995 877.2099,49.600331 976.69542,74.460492 979.32774,21.284803 963.60649,-1.7710295 931.81726,6.8717179 908.45148,3.1927844 902.33298,2.7093996 896.25905,2.477139 890.22806,2.4792182 Z M 566.76082,679.11702 c 37.76257,0.80565 70.4627,22.6107 103.68247,38.00137 30.28993,16.15719 59.35641,34.57167 90.26809,49.56608 -68.32688,1.52743 -137.28892,1.82667 -204.46817,-12.56131 -27.94488,-5.27852 -56.12397,-12.79754 -79.55239,-29.51932 -11.54816,-5.56832 -35.45338,-17.2356 -10.37208,-23.70967 33.25043,-8.58268 66.01943,-20.23733 100.44208,-21.77715 z"
       sodipodi:nodetypes="scccccscssccccccscssscccccccscccssccscccccsc" />
  </g>
</svg>
