<?xml version="1.0" encoding="UTF-8" standalone="no"?>
<svg
   width="1799.811"
   height="748.26233"
   id="svg2269"
   version="1.0"
   xmlns="http://www.w3.org/2000/svg"
   xmlns:svg="http://www.w3.org/2000/svg"
   xmlns:rdf="http://www.w3.org/1999/02/22-rdf-syntax-ns#"
   xmlns:cc="http://creativecommons.org/ns#"
   xmlns:dc="http://purl.org/dc/elements/1.1/">
  <metadata
     id="metadata2276">
    <rdf:RDF>
      <cc:Work
         rdf:about="">
        <dc:format>image/svg+xml</dc:format>
        <dc:type
           rdf:resource="http://purl.org/dc/dcmitype/StillImage" />
      </cc:Work>
    </rdf:RDF>
  </metadata>
  <defs
     id="defs2274" />
  <path
     style="fill:#000000;stroke:none;stroke-width:102.219"
     d="m 1453.6059,100.28048 c 100.8928,100.60319 157.8923,304.80026 218.5338,415.65992 75.4582,137.94636 -42.4421,79.37557 -90.0335,15.07434 -13.8822,-18.75632 -310.1742,-354.6277 -256.6159,-428.44207 33.1218,-45.64883 98.4465,-31.876168 128.1156,-2.29219 z M 1259.8337,47.628197 C 1174.4472,204.02139 1442.6667,435.19876 1449.0065,469.33257 1300.3971,396.74977 767.80188,301.37949 621.23895,247.63602 552.64579,222.48345 395.71979,295.42997 340.30931,311.08399 152.39273,380.44296 42.156932,475.23289 20.583359,513.65044 c -49.217214,87.64455 3.025867,102.41723 20.519062,101.42739 19.229785,4.05879 60.956739,-11.01847 75.890769,-40.95348 28.42114,-56.96962 97.00553,-118.04078 186.72268,-146.12235 99.70988,-22.61436 190.4209,-43.39772 141.79039,11.56426 -11.53091,20.20006 -169.29392,101.47053 -200.23016,153.67355 -9.92036,16.74004 10.81218,65.48033 44.30772,50.58339 81.66678,-60.19717 270.58049,-189.45984 356.5514,-246.35825 86.78204,41.66908 807.14848,278.30424 987.77758,344.79924 186.5596,28.761 182.4597,-50.01458 146.0731,-148.65379 C 1767.3072,556.94818 1569.8887,88.291319 1519.9451,47.151994 1467.4535,3.9138803 1303.8227,-32.941954 1259.8337,47.628197 Z"
     id="path2271" />
</svg>
