<?xml version="1.0" encoding="UTF-8" standalone="no"?>
<svg
   width="1800"
   height="1339.3167"
   version="1.1"
   id="svg1"
   xmlns="http://www.w3.org/2000/svg"
   xmlns:svg="http://www.w3.org/2000/svg">
  <defs
     id="defs1" />
  <path
     style="fill:#000000;stroke:none;stroke-width:86.2396"
     d="m 1254.4526,599.31771 c 107.0454,-140.57724 196.3572,-246.65498 267.9352,-318.23322 71.5783,-71.57838 135.7407,-108.01239 192.4874,-109.30207 56.7469,-1.28969 85.1202,54.1674 85.1202,166.37121 0,112.20388 -185.0718,334.67696 -555.2155,667.41927 -192.165,51.5878 -437.20784,85.1199 -735.12826,100.5965 l -46.90362,19.346 117.13116,136.294 -51.68769,43.5134 -132.39185,-144.4832 -25.64345,178.4771 -77.41245,-8.1473 31.99703,-179.23 c -45.58318,6.3524 -83.66107,-17.3729 -105.27145,-73.8211 -23.33849,-60.9621 11.35525,-125.60178 54.21658,-153.98278 L 232.95708,772.53021 C 199.37001,780.04243 126.51702,758.17404 111.16722,688.06024 96.805504,622.45971 101.24032,576.18673 139.45945,557.81642 49.180553,501.06972 2.7513904,400.15086 0.17196347,255.05985 -2.4074624,109.96854 24.031358,25.170737 79.488429,0.66644289 140.10435,-7.0717255 205.55659,52.576882 275.84516,179.61227 c 70.28856,127.03536 80.28369,238.27202 29.98541,333.70994 165.88756,61.01865 256.37064,72.59661 435.10924,80.13741 178.49266,7.53042 353.59019,0.69922 513.51279,5.85809 z M 98.833955,72.244715 C 75.619406,170.26192 73.040005,266.98941 91.095763,362.42722 109.15158,457.86513 147.52012,497.52343 206.2014,481.40208 264.88268,465.28063 279.06942,411.4356 248.76161,319.86703 218.45354,228.29837 168.47767,145.75761 98.833955,72.244715 Z M 307.30279,1103.826 c 21,3 192.67613,-51.8239 192.67613,-51.8239 300.49979,-21.925 497.50147,-46.4292 591.00498,-73.51287 93.5027,-27.08378 185.3935,-91.24637 275.6726,-192.4877 90.2794,-101.24133 175.0771,-203.12757 254.393,-305.65871 79.3167,-102.53101 108.9798,-165.72622 88.9893,-189.58562 -19.9903,-23.85945 -62.5502,-3.54671 -127.6798,60.93821 -65.1297,64.48498 -206.0295,232.14592 -422.6991,502.98286 -136.7082,-5.15885 -362.61451,47.17615 -687.61853,140.03433 -21.92488,-56.74656 -139.43155,-54.84935 -193.83739,-10.44868 -24.39916,19.91218 10.46118,116.89958 29.09881,119.56208 z m 91.3861,-412.52559 c 0.64738,9.71009 -81.33879,56.20821 -94.23497,59.05606 l 45.3829,147.31372 c 38.38713,-0.56684 111.02463,18.11288 141.84803,43.18689 5.15882,14.18673 253.56812,-90.38375 518.56485,-130.72939 C 871.89484,819.43683 659.96651,771.84148 398.68889,691.30041 Z M 387.08165,586.83458 C 316.14819,559.75104 257.7893,556.20436 212.00497,576.1946 c -45.78431,19.99033 -59.32611,52.8777 -40.6254,98.66207 18.70061,45.78444 46.75162,61.90576 84.15305,48.36396 37.40113,-13.54198 87.51682,-45.99747 131.36662,-85.97821 443.93019,106.59741 532.41553,119.89734 729.55716,128.6432 l 89.6324,-96.92383 c -127.68,-18.05582 -502.54407,0.75417 -819.00715,-82.12721 z"
     id="path1" />
</svg>
