<?xml version="1.0" encoding="UTF-8" standalone="no"?>
<svg
   width="1800"
   height="668.54401"
   version="1.1"
   id="svg1"
   xmlns="http://www.w3.org/2000/svg"
   xmlns:svg="http://www.w3.org/2000/svg">
  <defs
     id="defs1" />
  <path
     style="fill:#000000;stroke:none;stroke-width:47.7961"
     d="m 42.7295,43.265669 c 67.31091,3.659491 138.27765,6.080178 204.56052,9.760867 0.96353,16.471787 1.13307,32.415177 -1.59507,43.793257 -2.33591,9.742197 -4.58249,15.925737 -10.62449,19.876427 -3.3961,2.22067 -7.99152,3.73588 -14.47598,4.78096 C 164.16675,117.85358 101.95143,88.652936 46.10442,85.121536 39.695621,64.717833 44.560355,67.84644 42.7295,43.265669 Z m 22.705621,84.027871 c 0,0 127.200159,36.22612 159.545299,34.98208 11.27719,-0.43374 20.92576,-5.46907 29.19495,-10.87621 16.60992,-10.86088 27.23277,-27.90175 31.34342,-45.04528 4.80271,-20.03013 4.98148,-30.074622 3.51686,-49.049098 167.21642,7.654673 782.47015,-35.140657 1155.21425,74.473958 222.2043,65.34468 279.6443,273.93027 292.7441,481.85221 -83.8784,-0.19273 -128.7397,-0.42328 -212.6181,-0.61646 C 1514.0788,496.15759 1469.4034,369.58219 1330.7555,312.94906 989.56968,173.58582 395.37616,279.04815 142.05475,196.02695 96.250132,181.01536 87.508467,156.96159 65.435121,127.29354 Z M 0.087022,0 c -1.07283416,54.130205 2.5844532,109.07137 28.626002,156.55817 22.818283,41.60917 33.403068,71.72017 86.033166,90.17058 253.18576,88.75875 848.47905,-28.33049 1191.76451,119.52122 93.842,40.41738 143.9963,157.5753 162.6689,302.29393 l 330.8184,-2.49953 C 1796.6863,404.13145 1695.4835,143.02065 1464.3179,77.131753 1110.9623,-23.584753 510.67369,20.23962 263.41837,13.013319 Z"
     id="path1" />
</svg>
