<?xml version="1.0" encoding="UTF-8" standalone="no"?>
<svg
   width="1799.5897"
   height="1098.9707"
   id="svg1630"
   version="1.1"
   xml:space="preserve"
   xmlns="http://www.w3.org/2000/svg"
   xmlns:svg="http://www.w3.org/2000/svg"
   xmlns:rdf="http://www.w3.org/1999/02/22-rdf-syntax-ns#"
   xmlns:cc="http://creativecommons.org/ns#"
   xmlns:dc="http://purl.org/dc/elements/1.1/"><metadata
     id="metadata1637"><rdf:RDF><cc:Work
         rdf:about=""><dc:format>image/svg+xml</dc:format><dc:type
           rdf:resource="http://purl.org/dc/dcmitype/StillImage" /><dc:date>05/02/2006</dc:date><dc:creator><cc:Agent><dc:title>Serge Thomas</dc:title></cc:Agent></dc:creator><dc:publisher><cc:Agent><dc:title>Serge Rosmorduc</dc:title></cc:Agent></dc:publisher><dc:description>Inévitable suite de D52. On a seulment ajouté l'écoulement à D52 - chapelle blanche Karnak</dc:description><cc:license
           rdf:resource="http://creativecommons.org/licenses/GPL/2.0/" /></cc:Work><cc:License
         rdf:about="http://creativecommons.org/licenses/GPL/2.0/"><cc:permits
           rdf:resource="http://web.resource.org/cc/Reproduction" /><cc:permits
           rdf:resource="http://web.resource.org/cc/Distribution" /><cc:requires
           rdf:resource="http://web.resource.org/cc/Notice" /><cc:permits
           rdf:resource="http://web.resource.org/cc/DerivativeWorks" /><cc:requires
           rdf:resource="http://web.resource.org/cc/ShareAlike" /><cc:requires
           rdf:resource="http://web.resource.org/cc/SourceCode" /></cc:License></rdf:RDF></metadata><defs
     id="defs1635" /><path
     id="path1632"
     style="fill:#000000;stroke:none;stroke-width:77.0316"
     d="m 717.70643,0 c -4.41721,0 -9.37336,5.888566 -14.86914,8.0097657 -16.21112,6.2569263 -33.98668,4.4824223 -53.32617,4.4824223 -3.51635,0 -78.03017,0.114672 -105.48828,2.208984 -35.18342,2.683413 -58.66871,23.835185 -70.57617,52.033203 -7.7617,16.125509 -7.18566,42.775415 -6.81055,58.070305 3.80729,14.02421 15.11888,30.54044 34.02734,46.96094 30.25032,26.21697 63.35792,43.02339 99.32227,50.41797 22.19463,4.56334 40.16877,17.95922 49.49414,12.50781 30.38318,-17.76133 78.39612,-16.30643 189.98633,-16.64258 4.01845,-0.0121 231.8847,4.16211 347.8809,4.16211 120.3291,0 236.2909,1.18384 347.8808,19.33399 -38.317,30.44227 -76.0335,110.14498 -85.5742,175.04883 -7.7631,52.81025 -1.816,88.73324 31.123,112.93359 16.0245,11.773 35.3913,17.66016 58.0977,17.66016 23.9682,0 51.6571,-6.56017 83.0703,-19.67774 26.2113,18.07676 51.8913,27.11719 77.0391,27.11719 12.2596,0 24.3916,-2.14717 36.3984,-6.44336 36.6367,-13.10865 57.6457,-47.22678 63.0234,-102.34961 5.378,-55.12282 -7.5632,-119.65636 -38.8222,-193.60156 -31.2589,-73.9453 -74.4493,-129.63947 -129.5723,-154.175779 -53.653,-23.882154 -128.0027,-35.824219 -223.0508,-35.824219 -2.6039,0 -238.4365,-0.846915 -332.5488,-2.998047 C 956.77128,56.545421 873.24798,51.839514 823.83924,45.117188 774.43039,38.394941 746.69987,34.597046 740.64979,20.816406 736.33504,10.988849 728.68752,1e-7 717.70643,0 Z m -22.83594,48.544922 c -5.37788,47.056095 -24.53549,84.634618 -57.47461,125.640618 -7.4988,1.53383 -14.32024,2.30078 -20.88281,2.30078 -19.32331,0 -36.4138,-11.55376 -62.00586,-24.85156 -34.28376,-17.81411 -43.9987,-27.79735 -38.95703,-52.669916 5.04177,-24.872494 14.75671,-33.37824 38.95703,-38.419922 15.12521,-3.151109 79.35399,-2.3125 83.41211,-2.3125 20.80063,0 37.26398,-5.750031 56.95117,-9.6875 z m 43.15821,20.572266 c 71.25629,14.789049 141.43738,28.76966 223.44922,32.130862 74.55688,3.05562 366.70328,4.59285 420.48048,5.04101 80.6673,0.67199 146.0419,7.22584 196.123,19.66211 50.0812,12.43624 81.9125,37.57663 118.2129,88.33008 36.3006,50.75331 57.1421,110.88769 62.5196,190.21093 5.1952,76.62651 -3.9327,99.3125 -48.8262,99.3125 -1.5794,0 -3.1973,-0.0412 -4.8535,-0.12109 -48.7371,-2.35288 -66.2864,-9.27941 -75.3614,-53.31055 -9.075,-44.03104 -12.0971,-92.9365 -9.0722,-146.71484 3.0251,-53.77834 -23.2909,-89.26956 -56.2305,-96.66406 -32.9393,-7.39456 -74.9557,-13.78234 -126.0449,-19.16016 -51.0896,-5.37785 -463.56064,-11.48828 -510.75392,-11.48828 -84.94759,0 -186.01252,3.48437 -190.95118,3.48437 -34.57163,0 -41.50347,-4.35837 -29.44531,-22.88671 13.78069,-21.17521 24.03147,-46.14792 30.75391,-87.826172 z m -411.91797,7.21289 c -13.56684,0 -28.9553,3.868361 -45.79492,12.97461 -48.32248,28.850172 -26.54363,111.542962 37.34179,111.542962 10.96494,0 23.16738,-2.43531 36.47461,-8 60.62367,-26.13464 37.55718,-116.517572 -28.02148,-116.517572 z m -1.94531,31.035152 c 28.62136,0 48.49366,33.87203 24.93554,52.60547 -9.17432,7.32924 -18.29339,10.34961 -26.56445,10.34961 -28.38336,0 -46.716,-35.57727 -22.66016,-54.66992 8.27646,-5.83948 16.60231,-8.28516 24.28907,-8.28516 z m -129.29688,60.86328 c -3.81345,0.13264 -7.73396,0.61091 -11.74219,1.46875 -13.26652,2.83932 -27.50214,9.83958 -42.06836,22.26953 -41.214569,38.32432 -2.61145,114.62987 59.85938,101.25977 10.72212,-2.29477 22.15146,-7.22976 33.99414,-15.45508 50.44845,-35.85311 17.1584,-111.53269 -40.04297,-109.54297 z m -1.91602,31.5 c 25.90494,-1.66865 48.09793,25.14661 30.18165,46.94141 -7.43728,9.08696 -15.73046,13.95065 -23.81836,15.68164 -27.75482,5.94013 -53.12507,-25.01251 -33.59766,-48.7168 6.87634,-7.44341 14.49909,-11.57685 22.01563,-13.18555 1.74922,-0.37436 3.49175,-0.60946 5.21874,-0.7207 z M 1565.433,262.93554 c 17.4777,0 15.27,0.38747 10.2285,36.6875 -5.0417,36.30051 -3.5294,83.19048 4.5371,140.66602 6.9996,49.86932 -20.8737,72.90726 -46.9883,64.26758 -34.3682,-11.37033 -51.1443,-35.14628 -36.6914,-87.24414 14.4526,-52.09769 33.9574,-85.13734 68.9141,-154.37696 z M 108.3119,315.625 c -3.81342,0.13266 -7.73201,0.61286 -11.740237,1.4707 -13.266386,2.83929 -27.500196,9.83955 -42.066407,22.26953 -41.214691,38.32378 -2.613406,114.6279 59.857424,101.25781 10.72211,-2.29474 22.14951,-7.22979 33.99219,-15.45507 50.44835,-35.85312 17.15842,-111.5327 -40.04297,-109.54297 z m -1.93164,31.5039 c 25.90492,-1.66863 48.09781,25.14862 30.18164,46.94336 -7.44267,9.08814 -15.72849,13.95066 -23.81641,15.68164 -27.754798,5.94013 -53.126772,-25.01395 -33.599609,-48.71875 6.876464,-7.44288 14.499109,-11.57489 22.015629,-13.18359 1.74922,-0.37437 3.49175,-0.61142 5.21875,-0.72266 z M 73.417366,478.4707 c -3.813175,0.1326 -7.732333,0.60903 -11.740235,1.4668 -13.266393,2.8393 -27.505483,9.84321 -42.066406,22.27148 -41.214699,38.32434 -2.61341,114.6279 59.857422,101.25781 10.722117,-2.29475 22.144223,-7.22862 33.992193,-15.45508 50.44832,-35.85309 17.15462,-111.52998 -40.042974,-109.54101 z m -1.931641,31.5 c 25.904902,-1.66863 48.096885,25.14754 30.175785,46.94336 -7.437287,9.08753 -15.722767,13.95069 -23.810551,15.68164 -27.754808,5.94012 -53.126883,-25.01255 -33.599609,-48.7168 6.871075,-7.4423 14.498982,-11.57486 22.015625,-13.18359 1.749222,-0.37437 3.491757,-0.61337 5.21875,-0.72461 z m 0.9375,130.10351 c -3.813173,0.13259 -7.732331,0.60902 -11.740234,1.4668 -13.26652,2.83933 -27.505468,9.84267 -42.066406,22.27149 -41.214697,38.32435 -2.613414,114.62984 59.857421,101.25976 10.722118,-2.29477 22.144234,-7.22866 33.992194,-15.45508 50.44832,-35.8531 17.15462,-111.53188 -40.042975,-109.54297 z m -1.93164,31.50196 c 25.904341,-1.6685 48.093895,25.14861 30.177735,46.94336 -7.437406,9.087 -15.724591,13.94871 -23.812501,15.67968 -27.754811,5.94012 -53.127,-25.0125 -33.59961,-48.71679 6.870945,-7.44226 14.498979,-11.57681 22.015626,-13.18555 1.749222,-0.37436 3.491794,-0.60946 5.21875,-0.7207 z m 0.402343,124.44531 c -3.813425,0.13264 -7.733955,0.61091 -11.742187,1.46875 -13.266397,2.83931 -27.50008,9.8401 -42.066406,22.26953 -41.214697,38.32435 -2.61341,114.62985 59.857421,101.25977 10.722116,-2.29477 22.153514,-7.22926 33.996094,-15.45508 50.44843,-35.85261 17.15645,-111.53269 -40.044922,-109.54297 z m -1.929687,31.50195 c 25.904919,-1.66862 48.093899,25.14666 30.177734,46.94141 -7.437292,9.08755 -15.728621,13.95067 -23.816406,15.68164 -27.754808,5.9401 -53.126764,-25.01203 -33.59961,-48.7168 6.876359,-7.44343 14.498981,-11.57487 22.015626,-13.18359 1.749222,-0.37438 3.495662,-0.61141 5.222656,-0.72266 z m 2.263672,144.89844 c -3.813173,0.1326 -7.732332,0.61095 -11.740235,1.46875 -13.266518,2.83931 -27.505468,9.84072 -42.066406,22.26953 -41.214697,38.32435 -2.613413,114.62785 59.857422,101.25785 10.722108,-2.2948 22.146189,-7.2288 33.994146,-15.4551 50.44833,-35.8532 17.15266,-111.52994 -40.044927,-109.54103 z m -1.929688,31.50193 c 25.904332,-1.6684 48.091925,25.1487 30.175781,46.9434 -7.437416,9.0869 -15.724589,13.9505 -23.8125,15.6816 -27.754809,5.9401 -53.126998,-25.0126 -33.599609,-48.7168 6.870947,-7.4423 14.498981,-11.5768 22.015625,-13.1855 1.749223,-0.3744 3.493749,-0.6114 5.220703,-0.7227 z" /></svg>
