<?xml version="1.0" encoding="UTF-8" standalone="no"?>
<svg
   width="1797.5573"
   height="544.21899"
   version="1.1"
   id="svg1"
   xml:space="preserve"
   xmlns="http://www.w3.org/2000/svg"
   xmlns:svg="http://www.w3.org/2000/svg"><defs
     id="defs1" /><path
     id="path1"
     style="fill:#000000;stroke:none;stroke-width:65.0169"
     d="m 1470.5091,0 c -10.9006,0 -22.6392,11.10968 -35.2168,33.330078 -12.5776,22.2204 -18.4479,56.390012 -17.6094,102.507812 -0.8385,47.7948 20.5441,78.81964 64.1465,93.07422 43.6023,14.25461 43.6023,28.92841 0,44.02148 -43.6024,15.09312 -65.4043,43.6021 -65.4043,85.52735 0.8386,49.4718 7.3378,85.31865 19.4961,107.53906 12.1583,22.22039 23.6873,33.33008 34.5879,33.33008 10.9005,0 29.3481,-21.59042 55.3418,-64.77344 25.9936,-43.18303 100.2012,-80.70712 222.623,-112.57031 33.54,-5.86957 49.891,-29.76616 49.0527,-71.69141 0.8385,-41.9253 -15.5125,-66.66242 -49.0527,-74.20898 C 1626.0521,151.7693 1551.8445,116.34175 1525.8509,69.804688 1499.8572,23.267647 1481.4096,0 1470.5091,0 Z m -1.2578,49.052734 c 4.1925,0 16.3503,15.093077 36.4746,45.279297 20.1238,30.186189 44.6516,51.988239 73.58,65.404299 28.9284,13.41611 65.8216,25.78372 110.6817,37.10351 44.8599,11.31984 67.291,29.13841 67.291,53.45508 0,24.31664 -22.4311,41.92366 -67.291,52.82422 -44.8601,10.90057 -80.9146,24.73769 -108.166,41.50781 -27.2515,16.77012 -51.779,38.77983 -73.5801,66.03125 -21.801,27.25145 -34.7975,40.87696 -38.9902,40.87696 -3.3539,0 -7.9664,-22.00969 -13.836,-66.03125 -5.8695,-44.02154 9.2236,-70.43595 45.2793,-79.24024 36.0558,-8.80428 54.9227,-27.45957 56.5996,-55.96875 -0.8384,-26.83218 -19.4956,-45.07006 -55.9707,-54.71289 -36.4749,-9.64279 -51.7777,-36.47457 -45.9082,-80.49609 5.8696,-44.021575 10.4821,-66.033206 13.836,-66.033206 z M 688.16286,191.04654 c -16.30663,0 -34.80203,4.64783 -55.04493,15.5918 -58.07784,34.67526 -31.90265,134.0664 44.88282,134.0664 13.17973,0 27.85024,-2.9272 43.84179,-9.61328 72.86291,-31.41136 45.14382,-140.04492 -33.67968,-140.04492 z m 232.14305,-11.00552 c -16.30661,0 -34.80007,4.64979 -55.04297,15.59375 -58.07784,34.67527 -31.90461,134.0664 44.88086,134.0664 13.17974,0 27.85222,-2.92916 43.84375,-9.61523 72.86295,-31.41137 45.14196,-140.04492 -33.68164,-140.04492 z m 208.42389,0 c -16.3066,0 -34.8001,4.64979 -55.043,15.59375 -58.0778,34.67528 -31.9046,134.0664 44.8809,134.0664 13.1796,0 27.8503,-2.92915 43.8418,-9.61523 72.8629,-31.41136 45.1437,-140.04492 -33.6797,-140.04492 z m 208.4238,0 c -16.3067,0 -34.8,4.64979 -55.043,15.59375 -58.0776,34.67527 -31.9046,134.0664 44.8809,134.0664 13.1797,0 27.8501,-2.92916 43.8418,-9.61523 72.8628,-31.41136 45.1438,-140.04492 -33.6797,-140.04492 z m -865.47046,46.18747 c -16.30662,0 -34.80202,4.64978 -55.04492,15.59375 -58.07784,34.67526 -31.90265,134.06445 44.88281,134.06445 13.17974,0 27.85025,-2.92721 43.8418,-9.61328 72.86291,-31.41137 45.14381,-140.04492 -33.67969,-140.04492 z m 214.1594,2.12079 c 34.40026,0 58.28513,40.70871 29.97657,63.22461 -11.02914,8.80959 -21.99554,12.4414 -31.93555,12.4414 -34.11255,0 -56.14712,-42.76275 -27.23438,-65.71094 9.95143,-7.01831 19.95187,-9.95507 29.19336,-9.95507 z M 917.98755,217.3457 c 34.40028,0 58.28514,40.70872 29.97656,63.22461 -11.02918,8.8096 -21.99553,12.44141 -31.93554,12.44141 -34.11255,0 -56.14712,-42.76275 -27.23438,-65.71094 9.95134,-7.01831 19.95187,-9.95508 29.19336,-9.95508 z m 208.42385,0 c 34.4005,0 58.2832,40.70871 29.9746,63.22461 -11.0292,8.8096 -21.9936,12.44141 -31.9336,12.44141 -34.1126,0 -56.1472,-42.76275 -27.2343,-65.71094 9.9511,-7.0183 19.9519,-9.95508 29.1933,-9.95508 z m 208.4238,0 c 34.4003,0 58.2831,40.70871 29.9746,63.22461 -11.0291,8.8096 -21.9938,12.44141 -31.9335,12.44141 -34.1128,0 -56.149,-42.76275 -27.2364,-65.71094 9.9514,-7.0183 19.9538,-9.95508 29.1953,-9.95508 z m -865.47237,46.18552 c 34.40026,0 58.28512,40.71066 29.97656,63.22656 -11.02914,8.80959 -21.99553,12.43946 -31.93554,12.43946 -34.11255,0 -56.14712,-42.7608 -27.23438,-65.70899 9.95143,-7.01831 19.95187,-9.95703 29.19336,-9.95703 z m -212.76574,23.25533 c -16.30663,0 -34.80006,4.64979 -55.04297,15.59375 -58.07784,34.67527 -31.90462,134.06446 44.88086,134.06446 13.17972,0 27.85024,-2.9272 43.84179,-9.61328 72.86292,-31.41136 45.14382,-140.04493 -33.67968,-140.04493 z m -2.32032,37.30274 c 34.40025,0 58.28514,40.70871 29.97657,63.22461 -11.02914,8.80959 -21.9936,12.4414 -31.9336,12.4414 -34.11255,0 -56.14907,-42.76078 -27.23632,-65.70898 9.95143,-7.01831 19.95185,-9.95703 29.19335,-9.95703 z M 86.612553,394.56081 c -16.306616,0 -34.800065,4.64978 -55.042969,15.59375 -58.077841,34.67526 -31.9046083,134.06445 44.88086,134.06445 13.17974,0 27.850236,-2.92721 43.841796,-9.61328 72.86291,-31.41137 45.14381,-140.04492 -33.679687,-140.04492 z m -2.320312,37.30273 c 34.400239,0 58.285129,40.71066 29.976559,63.22657 -11.02913,8.80959 -21.995536,12.43945 -31.935544,12.43945 -34.11255,0 -56.147121,-42.7608 -27.234375,-65.70899 9.951436,-7.01831 19.951861,-9.95703 29.19336,-9.95703 z" /></svg>
