<?xml version="1.0" encoding="UTF-8" standalone="no"?>
<svg
   width="17.535"
   height="17.177999"
   version="1.1"
   id="svg517"
   sodipodi:docname="US9D56VARA.svg"
   inkscape:version="1.2.1 (9c6d41e410, 2022-07-14)"
   xmlns:inkscape="http://www.inkscape.org/namespaces/inkscape"
   xmlns:sodipodi="http://sodipodi.sourceforge.net/DTD/sodipodi-0.dtd"
   xmlns="http://www.w3.org/2000/svg"
   xmlns:svg="http://www.w3.org/2000/svg">
  <defs
     id="defs521" />
  <sodipodi:namedview
     id="namedview519"
     pagecolor="#ffffff"
     bordercolor="#000000"
     borderopacity="0.25"
     inkscape:showpageshadow="2"
     inkscape:pageopacity="0.0"
     inkscape:pagecheckerboard="0"
     inkscape:deskcolor="#d1d1d1"
     showgrid="false"
     inkscape:zoom="25.686398"
     inkscape:cx="11.873989"
     inkscape:cy="9.888502"
     inkscape:window-width="1920"
     inkscape:window-height="1017"
     inkscape:window-x="1072"
     inkscape:window-y="-8"
     inkscape:window-maximized="1"
     inkscape:current-layer="svg517" />
  <path
     style="fill:#000000;stroke:none"
     d="m 16.545744,1.6025875 c 0.157177,0.5454509 0.727064,2.8435531 -0.941965,3.1516814 -0.440267,0.08128 -2.347965,0.6882338 -6.4403332,0.3297219 C 2.5660963,4.5060301 2.9513806,4.5190619 2.5555181,5.1908322 2.1464033,5.8850917 2.9497037,6.3537423 3.3097466,6.8330405 c 0.2530469,0.336863 0.7539266,1.120563 1.9310678,2.5605859 1.1771413,1.4400236 1.833653,3.7302016 1.8250738,4.5316946 l -0.019008,1.77575 c 0,0.494495 -0.026184,0.741745 -0.5577691,0.741745 -0.5101502,-0.08248 -1.2878908,-0.09744 -1.7211089,-0.120387 -0.77406,0 -2.0672081,0.05305 -2.8349021,0.167385 -0.015948,4.69e-4 -0.031631,7e-4 -0.047049,7e-4 -0.434834,0 -0.658866,-0.183533 -0.672095,-0.381964 l 0.893855,-0.100504 C 3.6923305,15.84611 4.6912291,15.881164 5.6716656,14.777088 6.6239361,13.70473 4.8919778,11.49009 3.8288928,9.7276918 2.7658079,7.9652932 2.1780689,7.6940507 1.0525006,5.7325266 0.97031254,5.5133596 0.84596033,4.8272909 0.84596033,4.5944259 0.84596033,4.2656739 1.0707342,3.8518335 1.497561,3.4243181 2.2543554,2.6663027 5.3515537,1.6269427 8.8352758,1.1785822 12.318997,0.73022166 16.366032,0.97893419 16.545744,1.6025875 Z M 17.351245,1.2068366 C 17.012304,-0.00366669 11.562991,-0.27572514 7.6292359,0.44519506 3.6954801,1.1661153 1.1501012,2.432588 0.79388363,2.9568685 0.36924664,3.3678085 0.03264099,3.9233805 0.06614701,4.6211735 0.08430294,4.9992869 0.1787369,6.1059163 0.62427619,6.6829886 1.3035992,7.5628627 2.2107917,8.5516489 3.2076481,10.110262 c 0.9968563,1.558612 2.4121242,3.670852 1.9914375,4.112058 -0.6551445,0.6871 -1.7968561,1.123815 -3.1734631,1.189861 l -1.51026311,0.244381 c 0,0.862974 0.44518407,1.408613 1.33555311,1.449707 0.989859,-0.181812 2.1000534,-0.213662 2.6132424,-0.213662 0.7673969,0.101065 1.8308699,0.136139 2.6134508,0.185115 0.520523,-0.0274 0.5651379,-0.486282 0.5651379,-1.376651 C 7.5742536,14.48195 7.811552,13.179775 6.956069,11.115967 6.100586,9.0521589 4.4450625,7.120366 3.6443694,6.2180234 3.3065579,5.8373261 3.1792256,5.7136743 3.3878566,5.43777 c 0.417788,-0.431487 4.792314,0.4804102 7.9219224,0.6328986 3.12961,0.152488 4.706176,-0.3774012 5.1428,-0.7154328 1.591997,-1.2325141 1.078408,-3.506465 0.898666,-4.1483992 z"
     id="path515"
     sodipodi:nodetypes="ssssszsccccsccsscsssssscsssscccccczscsss" />
</svg>
