<?xml version="1.0" encoding="UTF-8" standalone="no"?>
<svg
   width="1770"
   height="1745"
   id="svg2"
   sodipodi:version="0.32"
   inkscape:version="1.2.1 (9c6d41e410, 2022-07-14)"
   sodipodi:docname="US9D19VARA.svg"
   inkscape:output_extension="org.inkscape.output.svg.inkscape"
   version="1.0"
   xmlns:inkscape="http://www.inkscape.org/namespaces/inkscape"
   xmlns:sodipodi="http://sodipodi.sourceforge.net/DTD/sodipodi-0.dtd"
   xmlns="http://www.w3.org/2000/svg"
   xmlns:svg="http://www.w3.org/2000/svg"
   xmlns:rdf="http://www.w3.org/1999/02/22-rdf-syntax-ns#"
   xmlns:cc="http://creativecommons.org/ns#"
   xmlns:dc="http://purl.org/dc/elements/1.1/">
  <metadata
     id="metadata9">
    <rdf:RDF>
      <cc:Work
         rdf:about="">
        <dc:format>image/svg+xml</dc:format>
        <dc:type
           rdf:resource="http://purl.org/dc/dcmitype/StillImage" />
      </cc:Work>
    </rdf:RDF>
  </metadata>
  <defs
     id="defs7">
    <inkscape:perspective
       sodipodi:type="inkscape:persp3d"
       inkscape:vp_x="0 : 1124.1895 : 1"
       inkscape:vp_y="0 : 1000 : 0"
       inkscape:vp_z="5.8304138 : 1124.1895 : 1"
       inkscape:persp3d-origin="2.9152069 : 1123.1585 : 1"
       id="perspective11" />
  </defs>
  <sodipodi:namedview
     inkscape:window-height="1137"
     inkscape:window-width="1920"
     inkscape:pageshadow="2"
     inkscape:pageopacity="0.0"
     guidetolerance="10.0"
     gridtolerance="10.0"
     objecttolerance="10.0"
     borderopacity="1.0"
     bordercolor="#666666"
     pagecolor="#ffffff"
     id="base"
     showgrid="false"
     inkscape:zoom="0.49555556"
     inkscape:cx="898.99103"
     inkscape:cy="900"
     inkscape:window-x="-8"
     inkscape:window-y="-8"
     inkscape:current-layer="svg2"
     inkscape:showpageshadow="2"
     inkscape:pagecheckerboard="0"
     inkscape:deskcolor="#d1d1d1"
     inkscape:window-maximized="1" />
  <path
     style="color:#000000;fill:#000000;stroke-width:70;stroke-dasharray:none;-inkscape-stroke:none"
     d="m 1061.2517,5.9944943 c -17.9349,-0.60587 35.7754,-0.68341 41.6398,8.9690397 6.9854,11.49731 11.5189,24.87392 11.7351,30.40727 -7.3384,110.573936 -19.0601,230.985486 -1.7006,326.602666 25.0686,132.07161 54.1763,201.7244 89.8159,233.03334 35.6396,31.30893 89.5873,39.47169 193.3775,29.14594 104.4041,-4.83988 211.2141,-24.70178 311.1004,-15.27454 41.0295,3.2728 79.1144,39.24712 53.9116,79.77297 -197.1212,293.8106 -290.1441,408.20202 -475.6131,625.05802 -113.0365,132.1658 -197.4756,212.3833 -305.00325,280.2107 -177.14583,111.7415 -412.3941,169.7005 -617.88069,119.7905 l -2.76258,-0.6729 -2.66056,-1.0143 C 264.16161,1686.5301 148.99425,1643.8125 81.71553,1541.0535 17.15093,1443.153 -6.3823098,1344.5196 5.4886302,1254.2001 17.272,1164.5475 63.03063,1085.1593 128.07422,1021.0267 265.70701,866.19768 402.13737,721.45148 429.08661,535.10707 c 19.47806,-134.68364 9.7615,-337.8295 8.5383,-484.171116 4.33787,-43.6601597 28.90743,-44.1526697 66.8187,-44.2665497 121.61307,7.8445997 575.23979,-0.0523 556.80809,-0.67491 z M 1021.196,89.284104 c -54.08305,0.48275 -144.57325,1.93071 -245.25541,3.66273 v 0.19734 c -162.98408,3.09903 -214.72637,3.99297 -247.02653,4.51526 2.52805,138.048236 9.3766,315.335046 -10.18591,450.602676 -32.20677,222.69817 -187.64934,381.15797 -323.86844,534.42719 l -1.05798,1.1899 -1.14034,1.115 c -54.3519,53.1493 -88.59198,114.4069 -97.36862,181.1828 -8.77654,66.776 6.96552,141.1552 61.92471,224.4587 l 0.0471,0.071 0.0472,0.071 c 46.06748,70.3948 137.75547,109.8577 229.13309,144.8002 173.27391,41.0752 388.81542,-9.8564 545.98368,-108.9958 v 0 c 98.58245,-62.1822 174.07235,-133.3709 284.45295,-262.4313 171.038,-199.9828 260.5192,-309.56282 427.6829,-555.40492 -83.2899,2.6223 -169.3977,9.3097 -239.5423,16.2158 -111.5829,11.101 -198.0629,4.8337 -261.8283,-51.1835 -63.7655,-56.01716 -93.0414,-146.58567 -119.251,-284.66874 -17.3843,-102.78724 -13.7834,-202.44765 -2.7488,-299.824876 z"
     id="path5585"
     sodipodi:nodetypes="scccscccssccccscsccsscccsscssscccccsccsccs" />
</svg>
