<?xml version="1.0" encoding="UTF-8" standalone="no"?>
<svg
   width="1800"
   height="1146.2507"
   version="1.1"
   id="svg1"
   xmlns="http://www.w3.org/2000/svg"
   xmlns:svg="http://www.w3.org/2000/svg">
  <defs
     id="defs1" />
  <path
     id="path1"
     style="fill:#000000;stroke:none;stroke-width:114.787"
     d="M 272.28711,0 72.043222,0.5940037 C 94.183865,144.36581 95.882509,272.16316 76.029297,387.28711 c -37.624622,17.5764 -53.751876,33.72521 -47.201172,46.09375 3.203309,6.04847 7.138075,10.01752 11.365234,11.98047 4.417055,2.05114 9.154205,1.91229 13.714844,-0.33399 37.64941,41.29036 54.970997,89.3729 79.329087,145.80274 3.30814,28.68755 5.0464,41.00104 6.54102,96.39844 L 93.306641,686.2832 0.8984375,692.61523 c 0,0 -3.4481144,3.2688 3.1660156,22.16602 18.6528049,38.47165 66.2449199,57.39188 76.5761719,60.16016 -49.747861,86.99853 -2.976174,262.81249 78.641045,262.81249 3.07709,0 -1.57211,1.6781 2.75196,1.8106 0,18.4366 -1.16211,26.6956 -0.16211,45.4687 1.92367,36.113 15.16506,61.2168 52.3277,61.2168 38.1899,0 41.91366,-36.93 43.11457,-65.6641 0,0 0.42447,-24.5197 -1.05078,-37.7089 L 1799.998,1037.7539 V 448.80273 c 0,-84.313 -43.5152,-126.65625 -132.9902,-126.65625 -89.475,0 -120.0464,26.09462 -123.4883,75.99414 -37.8545,325.20712 -61.7508,428.91024 -101.3261,430.63086 v 3.16602 c -244.4458,4.67983 -457.37478,33.91932 -845.42973,53.83008 -125.90757,-2.33234 -189.98437,-7.34175 -189.98437,-19 -64.61095,-95.87472 -99.25132,-164.21938 -173.9237,-179.1598 -2.73959,-80.83735 -5.62619,-57.65509 -2.47852,-94.32421 23.08358,-56.24474 35.20489,-106.82844 71.9237,-147.82849 0.19229,0.0949 0.3847,0.18738 0.57422,0.27539 8.71959,4.04905 14.85634,0.68899 20.99414,-11.36719 6.27159,-12.31856 -8.96455,-27.39973 -46.99023,-45.27148 C 254.41925,273.80294 252.75606,143.60913 272.28711,0 Z M 220.0514,37.01214 c -4.5775,48.721342 -7.26062,90.39584 -5.2656,151.13533 3.00752,91.56549 6.78042,142.37483 19.87786,192.46475 -22.10443,-9.88653 -40.05336,-12.33394 -58.31014,-12.40519 -29.49082,-0.11515 -41.41991,3.49 -54.80446,10.40039 5.70945,-62.0093 13.35067,-124.02542 12.34281,-184.79492 -1.00788,-60.76957 -1.40718,-109.108436 -6.44628,-157.867154 z m 1443.7904,354.7945 c 36.1338,0 53.8298,19.1412 53.8301,56.99609 v 395.80079 h -151.9883 l 56.9961,-417.96485 c 1.6041,-29.46302 13.7845,-34.83203 41.1621,-34.83203 z M 254.01066,438.05748 c -30.6369,16.01475 -72.12294,123.04404 -72.12294,123.04404 -9.55366,-0.0342 -21.99038,-61.79898 -74.57786,-125.6011 30.60842,-14.43895 42.67305,-18.01162 71.52005,-17.87995 35.2516,0.16091 41.43858,0.36823 75.18075,20.43701 z" />
</svg>
