<?xml version="1.0" encoding="UTF-8" standalone="no"?>
<svg
   width="18.239109"
   height="7.21875"
   id="svg4647"
   sodipodi:version="0.32"
   inkscape:version="1.2.1 (9c6d41e410, 2022-07-14)"
   sodipodi:docname="US9D210VARA.svg"
   inkscape:output_extension="org.inkscape.output.svg.inkscape"
   version="1.0"
   xmlns:inkscape="http://www.inkscape.org/namespaces/inkscape"
   xmlns:sodipodi="http://sodipodi.sourceforge.net/DTD/sodipodi-0.dtd"
   xmlns="http://www.w3.org/2000/svg"
   xmlns:svg="http://www.w3.org/2000/svg"
   xmlns:rdf="http://www.w3.org/1999/02/22-rdf-syntax-ns#"
   xmlns:cc="http://creativecommons.org/ns#"
   xmlns:dc="http://purl.org/dc/elements/1.1/">
  <metadata
     id="metadata4654">
    <rdf:RDF>
      <cc:Work
         rdf:about="">
        <dc:format>image/svg+xml</dc:format>
        <dc:type
           rdf:resource="http://purl.org/dc/dcmitype/StillImage" />
      </cc:Work>
    </rdf:RDF>
  </metadata>
  <defs
     id="defs4652">
    <inkscape:perspective
       sodipodi:type="inkscape:persp3d"
       inkscape:vp_x="0 : 2.875 : 1"
       inkscape:vp_y="0 : 1000 : 0"
       inkscape:vp_z="18.145245 : 2.875 : 1"
       inkscape:persp3d-origin="9.0726223 : 1.9166667 : 1"
       id="perspective4656" />
  </defs>
  <sodipodi:namedview
     inkscape:window-height="1137"
     inkscape:window-width="1920"
     inkscape:pageshadow="2"
     inkscape:pageopacity="0.0"
     guidetolerance="10.0"
     gridtolerance="10.0"
     objecttolerance="10.0"
     borderopacity="1.0"
     bordercolor="#666666"
     pagecolor="#ffffff"
     id="base"
     showgrid="false"
     inkscape:zoom="55.953989"
     inkscape:cx="11.965188"
     inkscape:cy="2.895236"
     inkscape:window-x="-8"
     inkscape:window-y="-8"
     inkscape:current-layer="svg4647"
     inkscape:showpageshadow="2"
     inkscape:pagecheckerboard="0"
     inkscape:deskcolor="#d1d1d1"
     inkscape:window-maximized="1" />
  <path
     id="path4649"
     style="fill:#000000;stroke:none"
     d="m 16.590607,0.03574365 c -0.821056,0 -1.301039,0.2444194 -1.598045,0.70231354 C 14.000592,2.2813842 12.901506,4.8971292 12.538347,4.9129179 9.8565496,4.7625574 9.416295,5.1015458 6.7382812,5.375 h -1.0625 c -0.4319997,1e-7 -0.7435192,-0.1650771 -0.96875,-0.25 -0.2252298,-0.084923 -0.5716924,-0.3216924 -1,-0.75 -0.3184845,-0.3184847 -0.8342857,-0.5 -1.59375,-0.5 -0.2618836,0 -0.5606813,0.02463 -0.875,0.0625 H 0.20703125 c -0.009481,-0.00219 -0.024539,0 -0.03125,0 h -0.03125 c -0.13186987,0 -0.17532495,0.095474 -0.125,0.3125 0.05907694,0.2547687 0.27225038,0.4972112 0.65625,0.71875 0,0.8787671 0.0636732,1.4784803 0.21875,1.78125 C 1.0791461,7.0749227 1.6078011,7.21875 2.4570312,7.21875 l 4,-0.28125 7.4417808,0.019307 c 0,0 0.453403,0.00494 0.718828,-0.070896 0.22532,-0.2559603 0.604193,-1.3516572 0.822947,-1.9885626 0.218755,-0.6369053 0.710115,-1.8875538 0.710115,-1.8875538 0.01579,-0.2210524 0.295961,-0.5015382 0.627538,-0.5015382 0.331576,0 0.267665,0.1838817 0.267666,0.53125 l 0.02528,2.1167446 c -0.01802,0.1722939 -0.089,1.3718772 -0.0095,1.7821705 L 18.238281,6.9375 c 0,0 0.125103,-4.744684 -0.268077,-5.8348655 C 17.707719,0.37483736 17.411655,0.03574365 16.590607,0.03574365 Z"
     sodipodi:nodetypes="scccssssccssscccccczcsccccss" />
</svg>
