<?xml version="1.0" encoding="UTF-8" standalone="no"?>
<svg
   width="1410"
   height="1170"
   id="svg2"
   sodipodi:version="0.32"
   inkscape:version="1.2.1 (9c6d41e410, 2022-07-14)"
   sodipodi:docname="US9D75VARA.svg"
   inkscape:output_extension="org.inkscape.output.svg.inkscape"
   version="1.0"
   xmlns:inkscape="http://www.inkscape.org/namespaces/inkscape"
   xmlns:sodipodi="http://sodipodi.sourceforge.net/DTD/sodipodi-0.dtd"
   xmlns="http://www.w3.org/2000/svg"
   xmlns:svg="http://www.w3.org/2000/svg"
   xmlns:rdf="http://www.w3.org/1999/02/22-rdf-syntax-ns#"
   xmlns:cc="http://creativecommons.org/ns#"
   xmlns:dc="http://purl.org/dc/elements/1.1/">
  <metadata
     id="metadata9">
    <rdf:RDF>
      <cc:Work
         rdf:about="">
        <dc:format>image/svg+xml</dc:format>
        <dc:type
           rdf:resource="http://purl.org/dc/dcmitype/StillImage" />
      </cc:Work>
    </rdf:RDF>
  </metadata>
  <defs
     id="defs7">
    <inkscape:perspective
       sodipodi:type="inkscape:persp3d"
       inkscape:vp_x="0 : 549.1895 : 1"
       inkscape:vp_y="0 : 1000 : 0"
       inkscape:vp_z="5.8304138 : 549.1895 : 1"
       inkscape:persp3d-origin="2.9152069 : 548.1585 : 1"
       id="perspective11" />
  </defs>
  <sodipodi:namedview
     inkscape:window-height="1137"
     inkscape:window-width="1920"
     inkscape:pageshadow="2"
     inkscape:pageopacity="0.0"
     guidetolerance="10.0"
     gridtolerance="10.0"
     objecttolerance="10.0"
     borderopacity="1.0"
     bordercolor="#666666"
     pagecolor="#ffffff"
     id="base"
     showgrid="false"
     inkscape:zoom="0.49555556"
     inkscape:cx="898.99103"
     inkscape:cy="577.13004"
     inkscape:window-x="-8"
     inkscape:window-y="-8"
     inkscape:current-layer="svg2"
     inkscape:showpageshadow="2"
     inkscape:pagecheckerboard="0"
     inkscape:deskcolor="#d1d1d1"
     inkscape:window-maximized="1" />
  <path
     id="path4391"
     style="color:#000000;fill:#000000;stroke-width:3.77953;stroke-linejoin:round;-inkscape-stroke:none"
     d="m 46.390848,4.5389911 c -5.66244,0.971716 -10.81817,3.861959 -14.60156,8.1855489 L 10.720928,36.804591 C 0.71517758,48.244087 3.1312776,65.88817 15.843978,74.216699 115.69938,139.61912 225.71469,218.13869 333.79123,301.34953 c -3.08099,12.42531 -4.69204,25.31418 -4.45311,38.67383 -9.22871,37.91077 2.34725,128.02382 24.79298,163.80468 48.33403,151.03601 100.37647,306.91295 146.52537,460.94726 28.93765,67.0682 -70.97488,44.0419 -108.43359,59.5859 -59.94947,13.4341 -112.21105,8.4263 -175.23242,18.1055 -53.47445,-11.3624 -92.33849,36.0665 -57.67383,83.1758 44.81768,51.3799 121.30379,14.2308 180.06838,25.6582 71.76366,6.3985 145.53808,-16.4427 215.47653,6.6934 70.27873,4.1866 132.89224,-75.7276 99.0508,-141.3594 -25.76394,-94.85912 -53.19704,-190.51307 -71.01759,-287.4922 -2.02541,-75.20179 3.80365,-153.38267 -28.81054,-223.7461 -5.58535,-13.35372 -11.49574,-26.61963 -17.40431,-39.89843 130.50002,111.31566 244.64728,221.45646 315.94538,312.06444 9.1926,11.6778 26.4768,12.81899 37.1249,2.45117 l 100.7774,-98.12693 323.69532,187.6328 c 11.5105,6.66652 26.2249,3.16445 33.4981,-7.97265 l 48.1601,-73.73828 c 7.909,-12.11758 3.9241,-28.39748 -8.6875,-35.49218 L 571.7385,293.62297 c 15.09225,-0.40404 30.0664,0.24113 42.76758,0.10544 137.8232,-1.04322 276.2724,-3.36816 412.97662,-22.07814 72.8559,-11.10399 142.6501,-87.93113 116.2129,-163.41994 C 1111.607,35.620163 1017.927,19.210928 946.75998,19.953 858.00828,22.707633 768.27888,30.692074 685.1721,64.429574 596.39572,93.31314 506.73444,122.63725 425.5842,169.60536 c -9.279,8.31342 -18.54251,17.10513 -27.45898,26.3613 L 62.888898,7.3963891 c -5.0082,-2.818318 -10.83374,-3.827301 -16.49805,-2.857398 z M 946.98068,70.443256 c 54.41292,0.278173 140.18622,6.938381 153.43562,71.537124 -4.9814,53.40261 -57.9631,84.37247 -107.69142,84.29885 -138.9091,14.7792 -278.7514,17.71287 -418.34378,17.41013 -19.72909,-1.83886 -46.20994,1.89551 -70.25,11.90627 -23.57231,10.3353 -32.0826,14.87361 -45.03126,32.08788 -0.73527,0.91884 -1.46241,1.84589 -2.15626,2.79493 -7.57417,11.38726 -11.81106,22.28908 -13.74024,32.92384 -4.04194,13.93954 4.7308,48.74033 12.93369,74.90037 2.73442,7.90708 5.45991,15.90029 7.77147,24.16211 31.43422,76.67089 76.01155,153.22371 67.21289,239.44728 -5.69946,95.54604 28.60781,186.90229 50.44921,278.56445 3.87114,46.18806 38.78687,91.29701 26.96292,135.98831 -28.82498,54.4437 -89.54495,13.8604 -135.44141,21.0879 -86.82596,7.3594 -174.12821,0.691 -260.96486,4.8867 -25.71889,-16.4684 61.93832,-11.5931 83.69727,-17.418 68.59184,-0.077 135.34941,-18.8356 203.23827,-25.4531 68.87172,-13.3063 63.72994,-96.1534 42.96291,-130.99611 C 495.18847,777.2752 447.74641,625.90826 396.2796,476.23428 376.84281,432.86866 372.65883,383.84532 379.61747,337.03311 c 2.09809,-19.41993 6.4413,-38.81023 14.35745,-52.37303 4.54579,-8.76378 9.72831,-17.05799 15.4004,-24.94726 11.81699,-18.9628 29.1216,-31.01681 34.83398,-37.82423 25.62489,-22.02013 56.15168,-38.55179 88.72263,-49.16992 80.59529,-34.80843 164.98311,-59.67424 248.83595,-85.374992 53.8838,-13.510148 110.0434,-13.711823 165.2129,-16.900422 z m -735.4492,77.982424 153.93359,86.58792 c -4.24294,6.00821 -8.17644,12.1911 -11.83397,18.50389 -47.37471,-36.18051 -95.05461,-71.41992 -142.09962,-105.09181 z m 293.45508,165.07034 834.37114,469.33789 -20.5665,31.4824 -319.57612,-185.24024 c -9.706,-5.62526 -21.9696,-4.10472 -30.0078,3.72072 l -94.9238,92.42774 C 785.15278,617.53332 648.73734,491.19206 498.54125,368.12297 c -2.85543,-9.79136 -5.35903,-19.69769 -7.33791,-29.77149 2.58882,-10.57228 7.41834,-18.64463 13.78322,-24.85546 z"
     sodipodi:nodetypes="ccccccccccccccccccccccccccccccccccsccccccccccccccccccccccccssccccccccccccc" />
</svg>
