<?xml version="1.0" encoding="UTF-8" standalone="no"?>
<svg
   width="1717.6871"
   height="1801.1903"
   version="1.1"
   id="svg274"
   sodipodi:docname="US9D403VARA.svg"
   xml:space="preserve"
   inkscape:version="1.2.2 (732a01da63, 2022-12-09)"
   xmlns:inkscape="http://www.inkscape.org/namespaces/inkscape"
   xmlns:sodipodi="http://sodipodi.sourceforge.net/DTD/sodipodi-0.dtd"
   xmlns="http://www.w3.org/2000/svg"
   xmlns:svg="http://www.w3.org/2000/svg"><defs
     id="defs278"><inkscape:perspective
       sodipodi:type="inkscape:persp3d"
       inkscape:vp_x="0 : 527.3714 : 1"
       inkscape:vp_y="0 : 1000 : 0"
       inkscape:vp_z="744.09448 : 527.3714 : 1"
       inkscape:persp3d-origin="372.04724 : 351.9777 : 1"
       id="perspective2577" /></defs><sodipodi:namedview
     id="namedview276"
     pagecolor="#ffffff"
     bordercolor="#000000"
     borderopacity="0.25"
     inkscape:showpageshadow="2"
     inkscape:pageopacity="0.0"
     inkscape:pagecheckerboard="0"
     inkscape:deskcolor="#d1d1d1"
     showgrid="false"
     inkscape:zoom="0.49555556"
     inkscape:cx="898.99103"
     inkscape:cy="900"
     inkscape:window-width="1920"
     inkscape:window-height="1137"
     inkscape:window-x="-8"
     inkscape:window-y="-8"
     inkscape:window-maximized="1"
     inkscape:current-layer="svg274" /><path
     id="path298"
     style="fill:#000000;stroke:none;stroke-width:99.2499"
     d="M 860.77124,0 C 528.82065,87.895792 250.61555,164.43802 1.064358,301.90959 c -5.3021,135.64843 9.563032,238.47651 36.608532,357.5713 12.3405,55.89488 26.658181,138.77953 89.08628,275.97583 28.8043,63.30277 52.1224,118.36158 69.5522,170.40288 1.4578,4.3535 2.0977,9.6316 3.4776,13.9105 10.1222,40.7391 19.7453,82.7854 27.8209,132.1492 1.0016,6.0927 5.6476,11.4034 6.9552,17.388 22.1193,101.2737 87.1672,188.6263 194.7462,260.8209 l 62.597,55.6417 c 51.0862,24.6827 88.0718,-1.9587 62.597,-55.6417 -13.1909,-16.2555 -22.0385,-33.8533 -55.6418,-52.1643 -83.2847,-57.716 -179.5218,-150.9904 -128.6716,-219.0894 17.3191,-33.0265 35.2561,-23.2782 59.1194,27.8209 23.8632,51.0991 47.8028,79.2564 66.0746,83.4626 11.2442,2.5885 20.6677,-1.5369 24.3433,-13.9105 3.3073,-11.1354 -9.35,-34.7566 -31.2985,-69.5521 -21.949,-34.7957 -34.4213,-68.2761 -41.7313,-104.3283 -7.3102,-36.0522 -43.5878,-65.5144 -104.3284,-83.4627 l -48.6865,-31.2984 c -7.7142,-41.0681 -13.3059,-82.62112 -20.8657,-125.19408 -13.7921,-77.67199 -11.07746,-156.7717 -10.90396,-239.612 0.16012,-76.45474 25.16194,-173.12724 -40.16976,-293.62779 207.539,-44.01308 273.3793,-53.47137 639.02619,-228.5242 416.13396,182.80249 476.90636,184.58646 667.76366,228.5242 -65.3315,120.50054 -65.7273,251.7308 -81.6972,326.49921 -15.9701,74.76855 2.8881,143.77857 -10.904,221.45056 -7.5593,42.57299 -13.151,84.126 -20.8656,125.1941 l -48.6866,31.2984 c -60.7405,17.9483 -97.0183,47.4105 -104.3283,83.4627 -7.3103,36.0522 -19.7823,69.5325 -41.7313,104.3282 -21.9489,34.7955 -34.6063,58.4168 -31.2985,69.5522 3.6755,12.373 13.0991,16.499 24.3433,13.9105 18.272,-4.2065 42.2114,-32.3635 66.0745,-83.4627 23.8633,-51.099 41.8005,-60.8474 59.1194,-27.8209 50.8505,68.0991 -45.3868,161.3734 -128.6716,219.0895 -33.6031,18.3109 -42.4508,35.9087 -55.6417,52.1642 -25.4748,53.6831 11.5109,80.3244 62.5969,55.6418 l 62.597,-55.6418 c 107.5791,-72.1946 172.627,-159.5472 194.7462,-260.8208 1.3065,-5.9849 5.9582,-11.295 6.9553,-17.3881 8.0759,-49.3638 17.6988,-91.41 27.8209,-132.1491 1.3799,-4.2789 2.0198,-9.5571 3.4775,-13.9105 17.4299,-52.0414 40.7478,-107.1001 69.5523,-170.4029 62.4279,-137.1963 72.7099,-226.13477 85.0504,-282.02965 51.1237,-129.67226 52.6092,-247.17844 49.81,-366.22746 C 1511.3176,180.98987 1199.2052,70.301822 860.77124,0 Z m 0.0246,517.97155 -130.88281,96.73828 130.88281,91.04883 -130.88281,96.74023 133.72852,93.89453 -133.72852,93.89453 130.88281,93.89265 -130.88281,93.8945 133.72852,96.7402 -133.72852,93.8946 130.88281,93.8925 -122.34765,88.2051 h -98.53268 v 250.3828 l 424.80569,-2.018 v -249.916 c -152.1915,0 -16.8007,1.5512 -195.3902,1.5512 l 119.50194,-88.2051 -128.03711,-93.8925 128.03711,-93.8946 -128.03711,-96.7402 128.03711,-93.8945 L 860.79583,990.28795 988.83294,896.39342 860.79583,802.49889 988.83294,705.75866 860.79583,614.70983 988.83294,517.97155 H 860.79583 Z m -135.12859,1086.89455 263.45994,-2.018 v 145.1094 l -263.45994,2.018 z"
     sodipodi:nodetypes="cccssccccccccsscsscccscccssccssssscccccccccscccccccccccccccccccccccccccccccccccccc" /></svg>
