<?xml version="1.0" encoding="UTF-8" standalone="no"?>
<svg
   width="1793.4788"
   height="817.2547"
   id="svg2"
   version="1.0"
   xmlns="http://www.w3.org/2000/svg"
   xmlns:svg="http://www.w3.org/2000/svg"
   xmlns:rdf="http://www.w3.org/1999/02/22-rdf-syntax-ns#"
   xmlns:cc="http://creativecommons.org/ns#"
   xmlns:dc="http://purl.org/dc/elements/1.1/">
  <metadata
     id="metadata9">
    <rdf:RDF>
      <cc:Work
         rdf:about="">
        <dc:format>image/svg+xml</dc:format>
        <dc:type
           rdf:resource="http://purl.org/dc/dcmitype/StillImage" />
      </cc:Work>
    </rdf:RDF>
  </metadata>
  <defs
     id="defs7" />
  <path
     id="path604"
     style="color:#000000;fill:#000000;stroke-width:3.85769;stroke-linecap:round;stroke-linejoin:round;-inkscape-stroke:none"
     d="m 946.24924,0.11465986 c -15.20742,-0.1587055 -30.17362,-0.1475662 -44.80079,0.001953 C 831.23822,0.83410006 768.86562,4.7570793 725.40353,8.5638782 606.56881,18.972427 399.87334,62.55805 301.23166,103.17521 c -40.03841,16.48642 -92.10685,45.9071 -142.0586,75.7832 -74.740311,44.70202 -143.216789,90.21094 -143.216789,90.21094 -16.43283302,10.91904 -20.9015106,33.09064 -9.9824221,49.52344 10.9190271,16.43283 33.0925881,20.90345 49.5253911,9.98437 0,0 67.45037,-44.79913 140.35351,-88.40234 48.72389,-29.14167 192.25608,-88.40774 224.2793,-101.59375 57.96108,50.89265 259.8143,180.84777 478.95703,180.08789 219.14272,-0.75989 433.50732,-111.19563 468.03322,-163.35742 149.9552,46.60888 197.7125,72.59893 371.5644,175.95507 16.9592,10.08071 38.8795,4.50556 48.961,-12.45312 10.0802,-16.9597 4.5043,-38.88011 -12.4551,-48.96094 C 1587.0374,158.09287 1434.0754,87.550087 1266.5578,38.579503 1170.919,10.621291 1052.7013,1.2256598 946.24924,0.11465986 Z M 1739.4973,485.89005 C 1565.6453,589.2462 1517.8861,615.23625 1367.9309,661.84513 1333.405,609.68333 1119.0423,499.24564 899.89963,498.48575 680.7569,497.72588 478.90172,627.68295 420.94064,678.5756 388.91742,665.38958 245.38524,606.12352 196.66134,576.98185 123.75821,533.37863 56.307833,488.5795 56.307833,488.5795 39.87503,477.66043 17.701472,482.12909 6.7824429,498.56193 c -10.9190896,16.43279 -6.44845912,38.60635 9.9843751,49.52539 0,0 68.476483,45.50892 143.216792,90.21093 49.95175,29.8761 102.01823,59.29678 142.05664,75.78321 98.64168,40.61716 305.33911,84.20278 424.17383,94.61133 43.46209,3.80679 105.83274,7.72782 176.04297,8.44531 14.62716,0.14948 29.59532,0.16066 44.80273,0.002 106.45212,-1.111 224.66982,-10.50663 320.30862,-38.46484 167.5176,-48.97059 320.4795,-119.51146 508.6347,-231.3711 43.0251,-25.57455 -3.9482,-80.7666 -36.5058,-61.41411 z" />
</svg>
