<?xml version="1.0" encoding="UTF-8" standalone="no"?>
<!-- Generator: Adobe Illustrator 25.2.3, SVG Export Plug-In . SVG Version: 6.00 Build 0)  -->

<svg
   version="1.1"
   id="Ebene_1"
   x="0px"
   y="0px"
   viewBox="0 0 1800 1080"
   xml:space="preserve"
   sodipodi:docname="US9D34VARA.svg"
   width="1800"
   height="1080"
   inkscape:version="1.2.1 (9c6d41e410, 2022-07-14)"
   xmlns:inkscape="http://www.inkscape.org/namespaces/inkscape"
   xmlns:sodipodi="http://sodipodi.sourceforge.net/DTD/sodipodi-0.dtd"
   xmlns="http://www.w3.org/2000/svg"
   xmlns:svg="http://www.w3.org/2000/svg"><defs
   id="defs723" /><sodipodi:namedview
   id="namedview721"
   pagecolor="#ffffff"
   bordercolor="#000000"
   borderopacity="0.25"
   inkscape:showpageshadow="2"
   inkscape:pageopacity="0.0"
   inkscape:pagecheckerboard="0"
   inkscape:deskcolor="#d1d1d1"
   showgrid="false"
   inkscape:zoom="0.36"
   inkscape:cx="1359.7222"
   inkscape:cy="272.22222"
   inkscape:window-width="1920"
   inkscape:window-height="1137"
   inkscape:window-x="-8"
   inkscape:window-y="-8"
   inkscape:window-maximized="1"
   inkscape:current-layer="Ebene_1" />

<path
   id="path752"
   style="stroke-width:0.860105"
   d="M 283.04102,4.4667969 C 207.19717,4.7506317 129.62776,56.257309 101.92383,97.912109 75.991797,136.90916 61.154166,169.09536 55.744141,268.78125 L 18.710938,792.06641 C 12.121383,885.17871 6.2479037,978.18586 7.4941406,1070.4766 l 559.4003894,3.7949 c -1.95415,-6.9224 -22.16016,-389.19923 -22.16015,-389.19923 23.3174,-9.37514 38.62972,-12.45237 61.18164,-22.11133 74.29566,3.58663 76.10992,8.37695 157.65625,8.37695 41.06208,-2.12365 172.70649,-3.24765 245.15233,-21.70508 48.4152,-113.28407 149.3904,-265.31907 173.4863,-392.51172 0.7997,-30.81747 6.5794,-64.08488 15.7051,-97.6289 5.9948,17.4515 61.2094,74.53954 89.0571,103.61716 30.5984,51.22341 82.8119,81.43729 115.3323,120.79104 31.3853,29.39836 65.3184,75.56836 65.3184,75.56836 -6.7434,76.66095 -46.863,201.90978 -53.6062,278.54492 -4.9975,19.75158 -9.8737,25.08786 -15.5254,33.53906 -7.1187,22.35336 -19.1025,39.55464 -20.2481,63.99415 -0.088,1.86649 0.056,3.753 0.029,5.625 -30.643,-0.823 -99.3073,-2.58414 -99.3086,-2.58204 -19.327,-68.52393 -52.6428,-103.61566 -99.9375,-105.29296 -47.2945,-1.67734 -82.3681,31.00191 -105.2207,98.02539 -10.1783,-1.637 -25.6315,1.01629 -46.3554,7.95898 -20.7239,6.94269 -30.65428,16.18919 -29.78128,27.73828 -0.5435,15.33149 33.72278,23.58531 102.79098,24.75391 0,0 134.3636,5.33721 283.5879,11.5957 0.4509,3.0725 0.8582,6.21398 1.2871,9.26367 3.4765,24.74088 7.3714,49.40672 10.959,74.1836 l 0.5528,3.80078 3.7031,-1.01758 c 19.0538,-5.2668 29.5398,-12.7235 34.875,-23.21289 3.1181,-6.1383 4.4712,-13.31006 4.7422,-21.68555 12.2792,0.2276 31.8509,-1.45409 52.08,-7.58398 15.5751,-4.7116 36.9778,-13.34954 50.793,-26.79883 137.2214,6.08779 229.4189,12.08382 249.8231,14.85742 8.5221,-24.01477 9.4105,-48.94227 2.6445,-74.78125 -24.5125,0.9678 -118.3526,-1.74706 -244.1766,-4.78515 -5.922,-19.25716 -15.7169,-37.73204 -24.7968,-54.91016 -0.1857,-0.34654 -0.3736,-0.69952 -0.5508,-1.04883 -3.4998,-6.65692 -11.6845,-17.0744 -19.6172,-27.14648 1.3004,-9.79145 2.4907,-20.15329 3.3301,-32.1875 l 64.2683,-252.38868 c 1.4019,-18.62985 12.3127,-39.74592 8.8207,-58.10047 -17.0817,-89.83773 -49.6137,-85.2744 -116.0825,-174.79385 -17.2936,-26.11905 -58.0018,-75.51332 -82.6953,-106.23895 -20.5155,-39.64584 -78.7332,-95.271159 -114.2212,-111.269069 -26.6115,-11.998437 -55.2281,-15.765625 -81.5644,-15.765625 -8.4375,0 -16.643,0.387748 -24.4786,1.015625 -21.236,1.703005 -38.1719,6.313385 -51.039,8.498047 l -0.9375,0.154296 -0.7227,0.626954 c -50.2295,43.67602 -55.2453,61.281428 -64.6015,135.396482 -18.0387,118.51569 -61.03332,137.95588 -92.40238,250.875 -2.07135,16.42438 -54.63208,127.36354 -63.74414,140.875 -52.1566,4.02527 -149.05318,4.59545 -201.20118,8.60352 -76.66954,6.45937 -72.04181,13.59803 -148.68554,20.04883 -0.7483,-0.42145 -1.36081,-0.87813 -1.96289,-1.33399 -0.55907,-0.42146 -1.10927,-0.85278 -1.68555,-1.26562 l -22.25,-302.67969 C 509.88487,194.45972 483.74495,149.09824 457.42578,110.08398 429.38641,68.523804 358.60964,4.7592325 283.04102,4.4667969 Z m 0.01,46.9355471 c 59.7255,0.223626 115.67155,55.017596 134.95508,83.607426 21.00373,31.14429 47.92595,90.01802 49.58594,137.56445 L 513.59375,1028.916 54.429688,1023.5312 102.67969,268.78125 c -1.41914,-33.33756 17.9852,-114.81388 38.70508,-145.9668 18.9395,-28.503814 81.82868,-71.18848 141.66601,-71.412106 z"
   sodipodi:nodetypes="ccccccccccccccccccccscscccccccccccccccccccccccsccccccccccccccccccccccc" /></svg>
