<?xml version="1.0" encoding="UTF-8" standalone="no"?>
<svg
   width="18.1875"
   height="17.96875"
   id="svg2452"
   sodipodi:version="0.32"
   inkscape:version="1.2.1 (9c6d41e410, 2022-07-14)"
   sodipodi:docname="US9D178VARA.svg"
   inkscape:output_extension="org.inkscape.output.svg.inkscape"
   version="1.0"
   xmlns:inkscape="http://www.inkscape.org/namespaces/inkscape"
   xmlns:sodipodi="http://sodipodi.sourceforge.net/DTD/sodipodi-0.dtd"
   xmlns="http://www.w3.org/2000/svg"
   xmlns:svg="http://www.w3.org/2000/svg"
   xmlns:rdf="http://www.w3.org/1999/02/22-rdf-syntax-ns#"
   xmlns:cc="http://creativecommons.org/ns#"
   xmlns:dc="http://purl.org/dc/elements/1.1/">
  <metadata
     id="metadata2459">
    <rdf:RDF>
      <cc:Work
         rdf:about="">
        <dc:format>image/svg+xml</dc:format>
        <dc:type
           rdf:resource="http://purl.org/dc/dcmitype/StillImage" />
      </cc:Work>
    </rdf:RDF>
  </metadata>
  <defs
     id="defs2457">
    <inkscape:perspective
       sodipodi:type="inkscape:persp3d"
       inkscape:vp_x="0 : 8.9887915 : 1"
       inkscape:vp_y="0 : 1000 : 0"
       inkscape:vp_z="17.178665 : 8.9887915 : 1"
       inkscape:persp3d-origin="8.5893326 : 5.9925276 : 1"
       id="perspective2461" />
  </defs>
  <sodipodi:namedview
     inkscape:window-height="1017"
     inkscape:window-width="1920"
     inkscape:pageshadow="2"
     inkscape:pageopacity="0.0"
     guidetolerance="10.0"
     gridtolerance="10.0"
     objecttolerance="10.0"
     borderopacity="1.0"
     bordercolor="#666666"
     pagecolor="#ffffff"
     id="base"
     showgrid="true"
     inkscape:zoom="25.698672"
     inkscape:cx="15.876307"
     inkscape:cy="9.0666164"
     inkscape:window-x="1072"
     inkscape:window-y="-8"
     inkscape:current-layer="svg2452"
     showguides="true"
     inkscape:guide-bbox="true"
     inkscape:showpageshadow="2"
     inkscape:pagecheckerboard="0"
     inkscape:deskcolor="#d1d1d1"
     inkscape:window-maximized="1" />
  <g
     id="g451">
    <path
       style="fill:#000000;stroke:none"
       d="M 1.3125,0 C 1.2066454,0 1.0851547,0.058302 0.9375,0.1875 0.35479201,0.97191399 0.04482333,2.105732 0,3.5625 0.17929467,4.7055054 0.59121933,6.3219513 1.21875,8.40625 0.99463202,10.087136 0.83080867,12.376552 0.71875,15.3125 0.6291026,16.298622 0.87246867,16.958645 1.5,17.25 c 1.860182,0.493059 4.7161987,0.71875 7.5625,0.71875 2.868713,0 5.724729,-0.225691 7.5625,-0.71875 0.649946,-0.291355 0.933399,-0.951377 0.84375,-1.9375 -0.11206,-2.935948 -0.27588,-5.225363 -0.5,-6.90625 C 17.596285,6.321951 18.008209,4.7055053 18.1875,3.5625 18.142681,2.1057321 17.832713,0.971914 17.25,0.1875 17.102346,0.05830199 16.949604,0 16.84375,0 c -0.151222,0 -0.246583,0.14258133 -0.3125,0.40625 0.156882,0.44823732 0.303029,0.886676 0.4375,1.3125 0.179294,0.5378841 0.232322,1.0293513 0.1875,1.5 -0.04482,0.762002 -0.117894,1.393146 -0.21875,1.875 -0.100852,0.4818548 -0.279983,0.71875 -0.59375,0.71875 -0.01673,0.00134 -0.04627,0 -0.0625,0 C 15.753906,5.8125 15.5,5.100784 15.5,3.6875 15.5,3.1720286 15.553027,2.5520907 15.6875,1.8125 15.572044,1.6162266 15.445799,1.5 15.3125,1.5 c -0.125456,0 -0.264988,0.1073887 -0.40625,0.28125 -0.06724,0.5378839 -0.102588,1.1313073 -0.125,1.78125 -0.08965,0.9861214 0.158455,2.363304 0.71875,4.15625 -0.201706,2.532537 -0.3125,5.061215 -0.3125,7.59375 -1.524004,0.24653 -3.906228,0.401513 -6.125,0.46875 C 6.8661413,15.714013 4.5240047,15.559031 3,15.3125 3.0000001,12.779965 2.8892067,10.251287 2.6875,7.71875 3.247796,5.9258038 3.495898,4.5486213 3.40625,3.5625 3.383838,2.9125574 3.3172353,2.319134 3.25,1.78125 3.108738,1.6073886 3.0004567,1.5 2.875,1.5 2.741702,1.5 2.6154553,1.6162267 2.5,1.8125 c 0.1344714,0.7395906 0.1875,1.3595287 0.1875,1.875 0,1.4132839 -0.253906,2.125 -0.78125,2.125 -0.016226,0 -0.045775,0.00134 -0.0625,0 -0.313766,0 -0.5241473,-0.2368953 -0.625,-0.71875 C 1.1178966,4.6118961 1.044824,3.980752 1,3.21875 0.95517662,2.7481014 1.039456,2.256634 1.21875,1.71875 1.353222,1.2929261 1.4993673,0.85448733 1.65625,0.40625 1.5903327,0.14258132 1.463722,0 1.3125,0 Z M 5.875,10.1875 4.84375,10.21875 v 4.375 H 5.875 Z m 3.75,-3.541039 -1.03125,0.03125 v 4.375 H 9.625 Z m 3.8125,3.541039 -1.03125,0.03125 v 4.375 h 1.03125 z"
       id="path2454"
       sodipodi:nodetypes="ccccccscccccscscsssscscccccccccscsssscsccccccccccccccccc" />
    <path
       d="m 9.1787623,1.1123259 c -0.4137852,0.00109 -0.8402672,0.018926 -1.2637884,0.0625 -0.8470441,0.087149 -1.6327879,0.2465239 -2.3662421,0.46875 -0.7334559,0.2222274 -1.1024537,0.7760584 -1.1024537,1.65625 0,0.8801917 0.3689978,1.4253083 1.1024537,1.65625 0.7334542,0.230942 1.519198,0.3859592 2.3662421,0.46875 0.8470424,0.08279 1.6925876,0.1096832 2.5006881,0.03125 0.808099,-0.078433 1.582255,-0.237809 2.312463,-0.46875 0.730208,-0.2309423 1.075565,-0.807309 1.075565,-1.6875 0,-0.8714768 -0.345357,-1.4209507 -1.075565,-1.65625 -0.730208,-0.2352985 -1.504364,-0.3859597 -2.312463,-0.46875 -0.404051,-0.041395 -0.8231146,-0.063589 -1.2368997,-0.0625 z m 0.026889,0.4375 c 0.3894447,0 0.7635407,0.050925 1.1562317,0.125 -0.480316,0.3050178 -0.8511655,0.4462148 -1.1562317,0.4375 -0.3440095,0.00871 -0.727844,-0.132482 -1.1562319,-0.4375 0.3861991,-0.074075 0.7667872,-0.125 1.1562319,-0.125 z m -1.9897945,0.1875 c 0.7204743,0.5751746 1.3991374,0.8524649 1.9897945,0.84375 0.5646963,0.01743 1.1664007,-0.2685764 1.8284597,-0.84375 0.389444,-0.017428 0.802019,0.075705 1.236899,0.25 0.129815,0.4618826 0.188224,0.9080112 0.188224,1.34375 0,0.4444529 -0.05841,0.8905822 -0.188224,1.34375 -0.43488,0.1655821 -0.847455,0.2274642 -1.236899,0.21875 -0.662059,-0.5838893 -1.2637634,-0.883715 -1.8284597,-0.875 -0.5906571,0 -1.2693202,0.2998247 -1.9897945,0.875 -0.3894456,0.00872 -0.8020192,-0.075705 -1.2368992,-0.25 -0.1298155,-0.4531674 -0.1882238,-0.908012 -0.1882238,-1.34375 0,-0.4357388 0.058407,-0.8818673 0.1882238,-1.34375 0.4413712,-0.1655792 0.8539449,-0.227465 1.2368992,-0.21875 z m -1.5864577,0.34375 c -0.1298147,0.4444546 -0.1882238,0.844015 -0.1882238,1.21875 0,0.3573051 0.058407,0.7742979 0.1882238,1.21875 -0.240158,-0.1220069 -0.4260465,-0.2995606 -0.5915604,-0.5 -0.1655139,-0.2004387 -0.2420021,-0.4398776 -0.2420021,-0.71875 0,-0.2788732 0.076486,-0.5183096 0.2420021,-0.71875 0.1655139,-0.2004389 0.3514024,-0.3605626 0.5915604,-0.5 z m 6.9911699,0.03125 c 0.240156,0.1394373 0.452936,0.2995605 0.61845,0.5 0.165514,0.2004393 0.242002,0.4398776 0.242002,0.71875 0,0.287588 -0.07649,0.5226687 -0.242002,0.71875 -0.165514,0.1960821 -0.378294,0.3692783 -0.61845,0.5 0.129815,-0.4444531 0.215113,-0.8527299 0.215113,-1.21875 0,-0.374735 -0.0853,-0.7742962 -0.215113,-1.21875 z m -3.4149177,2.375 c 0.3050662,0 0.6759157,0.1724483 1.1562317,0.46875 -0.778891,0.1481527 -1.5335742,0.1481523 -2.3124636,0 0.4283879,-0.3050163 0.8122224,-0.4774641 1.1562319,-0.46875 z"
       style="fill:#000000;stroke:none;stroke-width:0.927605"
       id="path430" />
  </g>
</svg>
