<?xml version="1.0" encoding="UTF-8" standalone="no"?>
<svg
   width="1550"
   height="550"
   version="1.1"
   id="svg4"
   sodipodi:docname="US9D42VARA.svg"
   inkscape:version="1.2.1 (9c6d41e410, 2022-07-14)"
   xmlns:inkscape="http://www.inkscape.org/namespaces/inkscape"
   xmlns:sodipodi="http://sodipodi.sourceforge.net/DTD/sodipodi-0.dtd"
   xmlns="http://www.w3.org/2000/svg"
   xmlns:svg="http://www.w3.org/2000/svg">
  <defs
     id="defs8" />
  <sodipodi:namedview
     id="namedview6"
     pagecolor="#ffffff"
     bordercolor="#000000"
     borderopacity="0.25"
     inkscape:showpageshadow="2"
     inkscape:pageopacity="0.0"
     inkscape:pagecheckerboard="0"
     inkscape:deskcolor="#d1d1d1"
     showgrid="false"
     inkscape:zoom="0.38988115"
     inkscape:cx="1023.3888"
     inkscape:cy="848.97667"
     inkscape:window-width="1920"
     inkscape:window-height="1017"
     inkscape:window-x="-8"
     inkscape:window-y="-8"
     inkscape:window-maximized="1"
     inkscape:current-layer="svg4" />
  <path
     id="path2"
     style="fill:#000000;stroke:none;stroke-width:74.4061"
     d="m 1228.4654,5.1778708 c -46.4913,-7.37925 -134.5285,27.9565202 -117.1796,107.4398392 40.9597,187.65565 81.492,234.90751 60.6711,235.8127 -18.6066,-0.5 -36.6955,-0.73047 -54.3399,-0.73047 -208.72455,0 -355.25004,32.2461 -560.86903,32.2461 -20.81902,0 -42.24392,-0.33032 -64.40039,-1.0586 -80.89351,-4.57581 -160.85058,-15.22053 -241.87304,-19.70703 -0.77315,-0.0111 -1.54793,-0.0156 -2.32227,-0.0156 -115.28181,0 -243.065422,118.00464 -243.134772,136.17964 0,28.5008 4.2528,44.793 37.625,44.793 23.27709,-23.8278 120.664072,-109.27338 189.916022,-111.08398 5.07257,-0.1324 10.01148,-0.1973 14.81641,-0.1973 60.79228,0 100.1477,10.6346 117.76562,32.44728 3.72418,5.7087 13.763,25.209 -31.14258,25.209 -2.04526,0 -4.20343,-0.042 -6.48242,-0.125 -28.22069,-1.0406 -60.09174,-10.7813 -129.25976,-10.7813 -2.26202,0 -4.56338,0.01 -6.90625,0.031 -31.68394,0 -50.16602,17.6264 -50.16602,30.457 0,13.5497 5.50872,25.2539 27.46875,25.2539 1.51447,0 3.10681,-0.055 4.78125,-0.1699 8.4921,-0.5812 31.0342,-3.2793 56.5332,-3.2793 23.3143,0 49.10118,2.2552 68.88282,10.4453 9.91237,1.4983 21.6829,2.0488 32.24609,2.0488 14.35159,0 26.47345,-1.0159 28.66992,-2.0488 33.20851,0 58.75414,-21.3991 98.54102,-62.707 l 704.69133,-3.584 15.457,0.1348 c 0.4115,-0.4023 138.4122,-0.8048 138.8622,-1.205 -7.3418,-46.09378 -17.2553,-86.26154 -33.9332,-139.56187 l -75.5094,-204.127 c -4.4081,-11.91667 -1.9308,-21.87954 17.0792,-21.87954 19.0101,0 36.4355,13.39716 54.0141,47.11297 115.7585,222.02496 105.9229,228.17699 147.7299,320.34634 l 108.0972,-0.8043 c 0,0 -57.0646,-139.28125 -88.812,-207.4859 -21.767,-46.76322 -69.6463,-138.18396 -69.6463,-138.18396 C 1334.3613,43.117331 1274.0902,12.419581 1228.4654,5.1778708 Z"
     sodipodi:nodetypes="sscssccscccscscscsscscsccccccsssccsss" />
</svg>
