<?xml version="1.0" encoding="UTF-8" standalone="no"?>
<svg
   width="1134.7577"
   height="1098.762"
   version="1.1"
   id="svg1"
   xml:space="preserve"
   xmlns="http://www.w3.org/2000/svg"
   xmlns:svg="http://www.w3.org/2000/svg"><defs
     id="defs1" /><path
     id="path1-8"
     style="fill:#000000;stroke:none;stroke-width:165.503"
     d="M 379.24138,7.0241204 C 247.3553,24.60888 162.52733,127.64043 124.84547,316.04886 92.187959,356.24271 55.781471,411.53589 15.587617,481.87493 c -20.0961821,45.21818 -20.7800398,70.97539 -1.939693,77.25622 18.840843,6.28084 35.677446,15.56224 50.749786,28.12258 -17.583845,10.04767 -24.45635,19.65263 -20.68785,28.4458 3.768499,8.79316 10.277726,14.29614 19.071719,16.80894 8.791507,2.51231 7.424456,7.65777 -3.879387,15.19318 -11.305498,7.53534 -9.577649,15.44969 5.494692,24.24355 15.072349,8.7914 21.584057,27.67899 19.071726,56.56834 -2.512338,28.88966 5.042869,48.46038 22.62737,58.50771 0,0 3.84576,0.68231 -6.434302,42.66476 44.634992,10.62543 52.295922,11.60448 93.742022,17.44569 l 6.75748,-44.91778 c 95.45972,0 116.15876,-20.90457 135.40492,59.456 19.30028,80.58664 23.24533,156.69718 56.93737,205.79448 36.24151,52.8122 263.13182,35.6477 294.05151,-27.9429 7.83278,-16.1091 22.07559,-64.37069 22.07559,-64.37069 145.70272,37.20189 450.76483,8.81309 424.53813,-296.93193 C 1110.5658,428.26227 853.42819,103.20461 742.89511,54.218248 630.7395,4.512913 510.44276,-10.469612 379.24138,7.0241204 Z M 659.82131,114.34227 c 248.84193,118.22639 473.94449,632.52571 359.24709,727.1702 -86.20775,71.13581 -304.40769,96.11318 -397.71292,5.95461 C 601.48355,828.26377 568.95414,744.98906 567.69631,645.76063 566.43849,546.53208 586.37066,482.31731 627.82035,453.4283 669.27088,424.53895 680.60232,380.57791 661.76132,321.54306 642.9205,262.50869 585.90047,255.63735 490.44009,300.85521 470.34308,255.63735 386.19862,224.37501 237.98354,206.79018 260.59272,143.98747 312.46843,103.1202 394.1123,84.279311 487.38252,59.174463 568.43929,70.926112 659.82131,114.34227 Z M 215.35484,263.35954 c 115.55722,7.537 202.11257,46.35354 259.89109,116.69241 l 41.37571,3.87938 c 42.70636,-45.21785 67.78135,-55.5065 75.3167,-30.38532 7.53701,25.12117 -7.93254,53.61265 -46.87089,85.01418 -38.93769,31.40134 -58.50774,112.45238 -58.50774,243.08227 0,130.62989 68.52794,263.95882 133.34415,275.59565 51.23503,97.72579 -183.51959,110.30369 -201.85952,34.23711 C 418.189,974.32911 397.76611,699.19355 268.04383,741.7662 180.93157,770.35496 138.7914,733.13191 151.35142,670.32835 201.59394,642.69557 219.11341,622.44112 204.04106,609.88111 188.96839,597.32126 161.16028,589.76606 120.96642,587.25373 123.47859,564.64488 104.5919,544.71454 64.398044,527.12969 102.07989,441.71798 139.85294,382.6472 177.53479,349.99002 c 37.68185,-17.58518 76.13842,-16.90182 115.07628,1.93969 38.93752,18.84051 77.07103,30.53263 114.75288,35.55729 v -22.62738 c -25.12118,-2.51234 -57.06687,-14.20345 -96.00456,-35.55713 -38.93802,-21.35318 -78.43808,-25.81314 -118.63193,-13.25347 0,-25.12118 7.5552,-42.64163 22.62738,-52.68948 z m 15.51589,90.50937 c -12.39616,0.95991 -23.98947,4.63076 -34.58761,10.99104 l -33.61776,33.94099 v 26.50644 l 14.86877,-3.87939 c 47.73019,25.12118 101.65631,25.12118 161.94718,0 l 60.44726,15.19316 v -30.0621 l -56.56837,-7.75712 c -37.68169,-28.26077 -71.0335,-43.16496 -99.88345,-44.93137 -4.3279,-0.26481 -8.4754,-0.31446 -12.60635,0 z m -4.20212,22.30415 c -10.04767,12.56001 -10.04767,25.25987 0,37.81988 -12.56,-5.02301 -23.89331,-10.16849 -33.94099,-15.19316 2.51234,-10.04767 13.84431,-17.60255 33.94099,-22.62722 z m 45.25477,7.75712 44.93137,26.18304 c -17.58484,5.02467 -35.10447,7.75712 -52.68932,7.75712 15.07234,-7.537 17.80645,-18.86865 7.75712,-33.94099 z M 168.16087,521.31045 c -3.76849,1.25781 -5.1372,5.71811 -3.87938,13.25346 1.25783,7.53535 -1.83874,12.68083 -9.37408,15.19316 -7.537,2.51068 -15.0922,-1.25782 -22.62722,-11.31377 -7.53534,-10.04768 -13.72349,-15.19317 -18.74849,-15.19317 -5.02301,0 -8.80144,1.7262 -11.31378,5.4947 -2.512327,3.76851 -2.512327,8.22881 0,13.25348 7.537,-5.02302 16.45926,-1.24129 26.50627,11.31377 10.04768,12.56 21.38099,15.65491 33.941,9.37408 12.56001,-6.28084 17.38243,-14.87706 14.86878,-26.18305 -2.51234,-11.30385 -5.60559,-16.45099 -9.37409,-15.19316 z m -61.74033,83.07464 c 5.96638,-0.62891 12.1446,-0.62891 18.4251,0 12.56001,1.25782 26.98673,2.98237 43.31523,5.4947 16.32851,2.51233 23.19986,4.92205 20.68786,7.43438 h -82.75142 c -22.608678,-2.51233 -28.437687,-5.60558 -17.13219,-9.37408 5.651923,-1.88342 11.48921,-2.92774 17.45542,-3.555 z m 78.54913,20.68785 c -5.02465,2.51234 -13.62253,6.97267 -26.18304,13.25347 -12.56167,6.2808 -22.52676,9.37404 -30.0621,9.37404 -10.04768,2.51243 -16.55922,2.51243 -19.07156,0 -2.51067,-2.51237 0.21516,-7.65783 7.75712,-15.19311 z" /></svg>
