<?xml version="1.0" encoding="UTF-8" standalone="no"?>
<svg
   width="7.5300002"
   height="11.76"
   version="1.1"
   id="svg717"
   sodipodi:docname="US9D20VARA.svg"
   inkscape:version="1.2.1 (9c6d41e410, 2022-07-14)"
   xmlns:inkscape="http://www.inkscape.org/namespaces/inkscape"
   xmlns:sodipodi="http://sodipodi.sourceforge.net/DTD/sodipodi-0.dtd"
   xmlns="http://www.w3.org/2000/svg"
   xmlns:svg="http://www.w3.org/2000/svg">
  <defs
     id="defs721" />
  <sodipodi:namedview
     id="namedview719"
     pagecolor="#ffffff"
     bordercolor="#000000"
     borderopacity="0.25"
     inkscape:showpageshadow="2"
     inkscape:pageopacity="0.0"
     inkscape:pagecheckerboard="0"
     inkscape:deskcolor="#d1d1d1"
     showgrid="false"
     inkscape:zoom="40.129749"
     inkscape:cx="7.3885336"
     inkscape:cy="5.8809239"
     inkscape:window-width="1920"
     inkscape:window-height="1137"
     inkscape:window-x="-8"
     inkscape:window-y="-8"
     inkscape:window-maximized="1"
     inkscape:current-layer="svg717" />
  <path
     style="fill:#000000;stroke:none"
     d="m 2.7008256,1.821525 c -0.373708,0.812663 -0.513679,1.361236 -0.499968,2.376715 0.015424,1.167365 -1.78507181,5.1920803 -1.82172681,5.2819533 -0.560533,1.3744187 -0.223578,1.5418407 -0.223578,1.5418407 0.478885,0.396724 2.06925071,0.713397 2.58703571,0.713397 0.065771,0.02992 0.057317,-0.696824 0.057317,-0.696824 -0.080394,0 -0.7996034,-0.022 -1.0058284,-0.108166 C 0.66266416,10.451937 0.69648727,10.661268 1.2950398,9.0405923 1.4342862,8.7544234 1.543719,8.4497081 1.6537967,8.1779533 1.7290175,7.9828565 2.34046,6.5027048 2.4222931,6.281258 L 7.2446582,6.934468 7.3835074,6.3632318 C 7.3512961,6.3625027 2.5076834,5.8045698 2.5640154,5.632508 2.6203475,5.4604463 2.6667622,5.3126698 2.6994813,5.1998815 c 0.032719,-0.1127884 0.046059,-0.3291466 0.06096,-0.3879595 0.0011,-0.022837 4.6344594,0.7270895 4.6344594,0.7270895 l 0.094541,-0.6051449 c 0,0 -4.7127914,-0.7067743 -4.7082798,-0.728847 0.025934,-0.126879 0.00924,-0.2669461 0.013966,-0.4061236 C 2.8146545,3.223295 3.4614594,0.93912063 3.7632002,0.76465344 4.0667837,0.58912082 5.5181225,0.63028353 5.5181225,0.63028353 v -0.553624 c 0,0 -1.8420015,0.01472118 -2.0502219,0.14595531 C 3.2596801,0.35384897 2.8312886,1.3626935 2.7008256,1.821525 Z"
     id="path715"
     sodipodi:nodetypes="ccccccccccccsscccssscczc" />
</svg>
