<?xml version="1.0" encoding="UTF-8" standalone="no"?>
<!-- Created with Inkscape (http://www.inkscape.org/) -->

<svg
   width="1798.316"
   height="1336.3594"
   viewBox="0 0 1798.316 1336.3594"
   version="1.1"
   id="svg570"
   xmlns="http://www.w3.org/2000/svg"
   xmlns:svg="http://www.w3.org/2000/svg">
  <defs
     id="defs567" />
  <path
     id="path140"
     style="fill:#000000;stroke:none;stroke-width:104.485"
     d="m 1707.2585,0 c -5.9946,0 -12.2758,0.43686 -18.8427,1.25586 -22.7891,2.8421002 -50.3706,9.13525 -80.1088,22.77344 -159.348,200.2507 -273.8487,445.04102 -342.5404,733.80273 -92.1668,17.48088 -305.23188,113.02321 -640.88348,285.92967 -17.4719,6.712 -38.7886,10 -63.8994,10 -1.5316,-0.2005 -2.9552,-0.2422 -4.4586,-0.4004 -49.3564,-24.4648 -99.1173,-49.4608 -153.742,-61.68156 -30.6064,-5.3551 -62.0518,-3.6343 -92.8362,-0.1563 -5.7694,-15.4261 -12.2721,-30.6111 -17.9792,-46.0488 19.926,-38.2475 39.7589,-76.5338 59.7927,-114.7344 C 276.32352,691.15917 202.77452,550.68049 126.27232,411.60742 106.71002,385.45283 64.037315,373.9819 33.960515,391.58398 4.3186158,409.30724 -6.4720842,445.74674 3.7763158,476.08203 34.173515,623.24987 64.562515,770.42084 94.964415,917.58794 c 40.728105,17.1133 81.471605,34.1981 122.208105,51.2949 4.3391,12.774 8.6782,25.54829 13.0174,38.32226 -45.0203,10.7343 -90.727,20.8181 -133.389705,37.8633 -9.3861,8.5158 -3.6486,23.0138 5.752905,29.4668 26.0332,18.2477 59.6752,12.0641 89.2604,5.3632 -4.8956,76.3354 48.892,136.0685 119.4149,169.4141 9.781,29.0154 19.5581,58.0323 29.3419,87.0469 30.7783,-7.7173 61.56,-15.4234 92.3523,-23.0938 -9.5913,-24.1652 -19.1515,-48.3351 -28.5893,-72.5039 54.0254,-8.6128 106.3006,-24.0974 159.433,-36.1562 9.6664,-0.6862 19.8306,-1.9019 30.73,-3.9629 212.4577,-36 398.9367,-84.8734 555.24788,-149.2891 156.3108,-64.41486 262.9429,-132.51576 320.4416,-202.42776 16.7094,-9.493 86.8829,-125.95289 207.1807,-351.72066 C 1797.6645,271.4373 1826.6857,117.19251 1771.2902,34.15039 1763.7863,23.4044 1757.0126,14.63415 1746.428,8.8476602 1735.1268,2.66926 1722.0665,0 1707.2585,0 Z M 69.556415,448.94922 c 12.5802,2.4343 18.2988,14.69441 25.2715,23.35742 20.099905,31.67618 33.201905,66.75574 51.142105,99.54297 l 134.9974,272.48243 c -13.5595,22.8517 -27.1197,45.703 -40.6792,68.5547 -27.0667,-9.4997 -54.1338,-19.0002 -81.2005,-28.5 -30.7964,-135.12108 -63.984005,-269.80585 -93.309605,-405.19338 -1.0709,-10.00678 -3.1492,-21.45775 3.7783,-30.24414 z" />
</svg>
