<?xml version="1.0" encoding="UTF-8" standalone="no"?>
<svg
   width="1799.361"
   height="1054.3541"
   version="1.1"
   id="svg1"
   xmlns="http://www.w3.org/2000/svg"
   xmlns:svg="http://www.w3.org/2000/svg">
  <defs
     id="defs1" />
  <path
     style="fill:#000000;stroke:none;stroke-width:93.4287"
     d="M 420.10045,96.388746 191.53959,539.9785 116.30492,467.60737 Z M 1709.4895,352.47166 c -182.4063,69.29565 -352.3163,339.32079 -473.7347,524.37771 -49.8279,-40.06224 -172.11,-78.73203 -417.63282,-174.96349 -9.74677,-5.15479 -19.21643,-12.97081 -28.45727,-23.3392 C 772.41299,659.19 744.16351,638.26001 711.85355,614.04779 700.1333,605.26482 686.35243,598.69044 670.86752,593.25881 659.09686,589.13 646.34163,585.66155 632.75847,582.38552 L 581.1433,579.95301 458.0702,0 0,503.21446 l 35.917902,28.27141 34.511247,-32.95286 15.279359,13.19575 -37.741927,41.61496 24.705367,20.42019 36.449722,-38.15003 17.55987,17.91376 -35.309464,40.50926 27.632084,23.40585 33.523,-41.1357 20.48648,20.89939 -28.16381,43.01562 28.12617,27.49736 261.98589,-519.10024 92.77993,428.27459 -56.97436,-4.31236 -59.40679,-3.20657 c -4.03998,14.80437 -5.16781,26.30533 -1.55813,36.6756 3.60977,10.37021 13.67265,19.22403 28.77227,25.76495 15.09948,6.54085 21.00838,12.65587 20.48646,20.89946 -2.27735,35.97227 -0.96723,69.02124 4.71354,95.68824 4.51711,21.20483 14.07622,34.30154 28.68182,39.42474 3.76223,1.31968 7.85899,2.11093 12.29119,2.37416 23.1772,1.07065 46.52085,3.03943 69.63102,2.87479 l 9.69212,37.87898 c 1.0169,3.97489 4.27312,6.63651 8.66684,8.17767 15.21638,5.33746 44.07591,-2.76225 40.81971,-16.28701 l -8.55187,-35.51998 c 48.76488,-2.77928 42.25183,-45.96907 87.8607,-28.86915 112.34164,94.30198 222.01065,168.15808 326.90456,220.2947 104.8945,52.13681 189.9282,77.34201 255.6145,75.50891 169.1172,-159.28979 538.9053,-485.46735 501.3104,-668.30619 -9.7501,-50.90255 -51.5728,-36.2112 -87.2063,-33.48305 z"
     id="path1" />
</svg>
