<?xml version="1.0" encoding="UTF-8" standalone="no"?>
<svg
   width="15.96"
   height="7.5279999"
   version="1.1"
   id="svg3434"
   sodipodi:docname="US9D7VARA.svg"
   inkscape:version="1.2.1 (9c6d41e410, 2022-07-14)"
   xmlns:inkscape="http://www.inkscape.org/namespaces/inkscape"
   xmlns:sodipodi="http://sodipodi.sourceforge.net/DTD/sodipodi-0.dtd"
   xmlns="http://www.w3.org/2000/svg"
   xmlns:svg="http://www.w3.org/2000/svg">
  <defs
     id="defs3438" />
  <sodipodi:namedview
     id="namedview3436"
     pagecolor="#ffffff"
     bordercolor="#000000"
     borderopacity="0.25"
     inkscape:showpageshadow="2"
     inkscape:pageopacity="0.0"
     inkscape:pagecheckerboard="0"
     inkscape:deskcolor="#d1d1d1"
     showgrid="false"
     inkscape:zoom="65.778826"
     inkscape:cx="7.9812917"
     inkscape:cy="4.5607381"
     inkscape:window-width="1920"
     inkscape:window-height="1017"
     inkscape:window-x="1072"
     inkscape:window-y="-8"
     inkscape:window-maximized="1"
     inkscape:current-layer="svg3434" />
  <path
     id="path3432"
     style="fill:#000000;stroke:none;stroke-width:0.998095"
     d="M 12.79709,0.01147803 11.986681,1.4592742 C 10.248708,0.78081293 8.2169108,0.44169613 5.8888831,0.44169613 4.6980489,0.45246543 3.4696745,1.0170097 2.2037427,2.1370086 L 0.8702151,0.79017203 0.11017828,1.4104461 1.4955109,2.7346648 C 1.2058485,3.0362032 0.82348622,3.2305422 0.35144407,3.3166961 c -0.21456479,0 -0.32103913,0.2749886 -0.32103913,0.8242187 0,0.5492301 0.09196267,0.8222657 0.27434253,0.8222657 1.51268153,-0.032307 2.68926423,0.057578 3.53143073,0.2675781 0.8421658,0.2099991 1.7351326,0.3144531 2.6792176,0.3144531 1.995451,0 3.9372312,-0.5859215 5.8254012,-1.7597656 1.115736,-0.2907691 2.107921,-0.4375 2.976908,-0.4375 l 0.630168,-0.013234 -0.03069,-1.233298 c -1.008454,0 -2.091125,-0.1366352 -3.142491,-0.3843276 v -0.03125 L 13.492023,0.32988904 Z M 6.5309613,1.2815398 c 0.5793242,0 1.009114,0.1258292 1.2880481,0.3789063 C 8.0979433,1.9135225 8.2373327,2.4066544 8.2373327,3.1389617 8.2158767,4.1297294 7.6418605,4.6252898 6.5153958,4.6252898 5.3674744,4.6145205 4.7934585,4.1141044 4.7934585,3.1233367 c 0,-0.7215379 0.1442269,-1.2098142 0.4338894,-1.4628906 C 5.5170102,1.407369 5.9516364,1.2815398 6.5309613,1.2815398 Z M 8.6887332,1.5237273 C 10.265784,1.7714191 11.541586,2.169809 12.517855,2.7190398 v 0.03125 c -0.976269,0.7646146 -2.289823,1.37872 -3.9419716,1.8417969 0.3325754,-0.4953842 0.4980971,-0.9957996 0.4980971,-1.5019531 0,-0.5169222 -0.1277689,-1.0387141 -0.3852473,-1.5664063 z m -4.329164,0.2089844 c -0.2360214,0.4307689 -0.3541158,0.8952408 -0.3541158,1.390625 0,0.5492301 0.1819793,1.0331254 0.5467394,1.453125 L 1.4137919,4.0276336 V 3.8342742 C 2.851375,2.5527368 3.8338854,1.8511729 4.3595692,1.7327117 Z M 15.930599,4.5432586 C 13.967331,4.5324893 12.550194,4.7695812 11.681207,5.2541961 10.81222,5.7388109 9.8437497,6.087165 8.7762898,6.2971648 7.7088302,6.5071646 6.7166448,6.5853858 5.7993812,6.5315398 4.882117,6.4776939 4.0907875,6.3401996 3.4256372,6.1194305 2.7604863,5.8986613 1.8912339,5.7873992 0.81841011,5.7873992 0.31418362,5.7766299 0.0683189,5.9923453 0.07904721,6.4338836 0.0683189,6.8108065 0.37323054,6.993481 0.99546809,6.9827117 1.9502808,6.9934807 2.6990208,7.0668467 3.2407964,7.2014617 3.7825729,7.3360769 4.5739018,7.4308189 5.6145405,7.4846648 6.6551786,7.5385118 7.7180316,7.4675738 8.8015841,7.2737273 9.8851356,7.0798815 10.860863,6.7524285 11.72985,6.2893523 12.598837,5.8262755 13.999516,5.5940398 15.930599,5.5940398 Z"
     sodipodi:nodetypes="ccccccccscsscsccccccssccsssccccsccscccccsssscccsssscc" />
</svg>
