<?xml version="1.0" encoding="UTF-8" standalone="no"?>
<svg
   width="1794.866"
   height="696.63684"
   version="1.1"
   id="svg1"
   xmlns="http://www.w3.org/2000/svg"
   xmlns:svg="http://www.w3.org/2000/svg">
  <defs
     id="defs1" />
  <path
     id="path1"
     style="fill:#000000;stroke:none;stroke-width:63.3492"
     d="m 982.61706,93.60206 c -33.96895,0 -125.146,-4.805588 -218.19146,14.20309 -93.04578,19.00867 -115.41862,15.38531 -127.97233,15.38531 H 493.45119 c 3.69238,43.86619 13.21336,75.92144 28.35171,96.0268 15.13839,20.10532 57.54982,30.28915 127.33404,30.6547 69.78419,0.36559 148.15933,23.37801 240.46661,14.23922 92.30707,-9.1388 152.11355,9.34054 179.43655,55.40008 C 952.34248,338.37629 802.57659,347.84129 644.63824,296.34886 487.86001,245.23466 254.15976,112.73041 192.42405,25.924486 150.1393,-1.685569 121.74582,-7.266445 107.22764,9.30043 95.129179,23.106148 88.904176,34.23546 88.453205,42.559328 62.237385,20.040733 36.413999,17.665508 10.994689,35.515687 -2.5555812,50.978079 -3.5765719,69.408333 7.9074234,90.887796 -5.461179,86.09458 23.313317,132.25244 53.362797,157.71187 c -3.994043,11.1754 -21.389668,12.34987 -29.075643,21.22835 -29.0499178,33.5571 43.115302,94.01807 68.699528,115.02619 -22.507793,0.0248 -38.261195,6.29945 -47.308327,18.85443 -9.047121,12.55508 -9.400397,25.2351 -1.148374,38.13088 4.716764,14.69864 19.933402,47.26264 50.872833,86.3244 48.959776,61.81285 291.096706,252.01017 580.941076,258.95565 289.8446,6.94554 519.59441,-77.4343 694.60871,-99.36737 l 423.7168,-6.08947 0.1963,-385.71281 c -124.0608,1.46224 -212.8395,5.86108 -290.4064,10.14725 -39.55,2.18545 -114.3535,6.57088 -202.2847,-39.65275 C 1194.6402,119.028 1087.4779,108.95522 982.61706,93.60206 Z m 6.71488,49.36762 c 79.01506,16.08425 173.68416,24.54026 280.76036,79.73854 107.0766,55.19829 174.9168,39.97463 217.1272,42.49942 41.1942,2.464 126.2907,-8.53923 253.3054,-6.3459 l 2.1664,286.97758 -366.1431,-2.65144 C 1205.2264,569.50759 1001.6349,658.9177 760.52863,657.82106 328.55345,655.85626 176.08397,445.25013 102.8963,388.04753 86.909108,369.47545 78.879682,349.09585 78.854568,326.81223 c 19.753829,1.72322 35.106042,6.51795 43.831132,16.29809 131.25763,147.12967 356.81615,261.89962 516.60203,252.78576 V 565.11826 C 463.17919,564.4849 272.78116,453.59746 129.7647,310.61065 103.6636,282.38307 38.520664,212.85661 45.779738,204.57319 58.145603,186.96781 76.71172,174.81438 96.234163,191.58354 225.83269,314.33571 342.56998,465.37231 635.93028,511.44174 V 480.66391 C 380.06213,449.79107 190.20757,235.25355 59.269267,117.56627 39.74687,100.79712 32.00491,80.664504 36.072882,57.057094 55.644085,52.573929 75.702045,58.652579 96.266182,75.348623 211.53437,204.15699 463.67759,427.38611 642.64515,426.98745 V 396.33269 C 481.65731,396.29735 272.4737,195.34782 156.13605,89.12465 141.46973,75.733442 131.15179,61.809086 127.81295,44.422386 c 16.07681,-9.420578 34.4653,-5.274935 55.10332,12.452501 76.36195,102.240753 292.30114,223.493513 436.10795,276.122423 168.68126,61.73221 339.8905,48.17295 559.69238,21.60066 -69.415,-106.00996 -156.5221,-151.64498 -261.383,-137.02286 -115.2229,18.94263 -228.88222,-5.75179 -345.16909,-11.03832 -17.72292,-15.35317 -26.61082,-31.44428 -26.61082,-48.25961 50.09651,1.39352 99.91345,-0.0127 149.8412,-3.44735 160.60988,-24.91076 218.4049,-30.13513 293.93695,-11.86038 z" />
</svg>
