<?xml version="1.0" encoding="UTF-8" standalone="no"?>
<svg
   width="1794.2651"
   height="1797.5129"
   version="1.1"
   id="svg1"
   xmlns="http://www.w3.org/2000/svg"
   xmlns:svg="http://www.w3.org/2000/svg">
  <defs
     id="defs1" />
  <path
     style="fill:#000000;stroke:none;stroke-width:103.097"
     d="m 1556.8969,87.209026 c 139.6714,0.541312 276.5992,296.460794 -10.5495,351.406294 -90.6686,17.3493 -715.75138,54.96429 -830.14011,167.94081 11.29756,111.56442 33.94239,206.18222 32.53029,283.85361 1.4121,117.21326 -16.18375,160.46166 -58.55002,298.85806 -48.01503,129.9232 -60.22117,168.9386 -74.97289,294.0675 l 40.92707,163.4876 c 0,50.9805 -27.40209,76.471 -82.20643,76.471 -2.88443,0 -5.84465,-0.071 -8.88096,-0.2164 -39.91584,-8.554 -89.81017,-12.1951 -143.85584,-12.1951 -79.80254,0 -195.88895,11.2888 -275.03506,23.0764 -1.64418,0.048 -3.26109,0.072 -4.8506,0.072 -44.829662,0 -67.926443,-18.9215 -69.290352,-39.3789 l 92.152892,-10.3615 c 163.35761,-16.6949 203.65538,-96.6544 329.00927,-183.0238 28.24414,-46.6028 35.38155,-88.87 50.91587,-197.6102 25.41973,-281.0289 30.88599,-369.77385 28.06148,-553.36084 -8.47321,-22.59524 -12.70981,-104.90378 -12.70981,-128.91123 0,-33.89303 16.94652,-76.96529 50.83952,-129.21704 C 735.07195,269.04633 1445.2938,86.7765 1556.8969,87.209026 Z M 1570.1909,0 C 1341.4971,0 604.92926,279.12077 548.24141,436.88485 c -43.77836,42.36628 -52.3386,104.00366 -52.3386,176.02623 0,24.00755 2.82451,107.72832 8.47332,133.14786 -7.06101,532.40196 -7.40905,583.80406 -59.91259,698.01326 -143.55981,117.0333 -146.83873,171.9779 -288.76147,178.7869 L 0,1648.0537 c 0,88.9693 45.896713,145.2226 137.69014,149.459 102.05056,-18.744 206.76232,-35.3345 259.67011,-35.3345 18.8434,0 34.56996,1.6795 47.17969,5.389 48.01507,14.1222 141.69764,21.1829 192.53708,21.1829 53.66384,-2.8247 80.49581,-50.1337 80.49581,-141.9272 -7.06102,-125.6865 -44.00343,-83.4278 -25.26687,-250.8691 84.73244,-228.7774 124.21756,-348.7889 124.21756,-505.54406 0,-107.32769 -19.11442,-192.06011 -21.93883,-254.19723 C 880.72924,547.24336 1426.9784,552.82768 1572.2545,513.90104 1965.3592,408.56898 1753.1216,0 1570.1909,0 Z"
     id="path1" />
</svg>
