<?xml version="1.0" encoding="UTF-8" standalone="no"?>
<svg
   width="25.317671"
   height="17.96875"
   version="1.1"
   id="svg650"
   sodipodi:docname="US9D127VARA.svg"
   inkscape:version="1.2.1 (9c6d41e410, 2022-07-14)"
   xmlns:inkscape="http://www.inkscape.org/namespaces/inkscape"
   xmlns:sodipodi="http://sodipodi.sourceforge.net/DTD/sodipodi-0.dtd"
   xmlns="http://www.w3.org/2000/svg"
   xmlns:svg="http://www.w3.org/2000/svg">
  <defs
     id="defs654" />
  <sodipodi:namedview
     id="namedview652"
     pagecolor="#ffffff"
     bordercolor="#000000"
     borderopacity="0.25"
     inkscape:showpageshadow="2"
     inkscape:pageopacity="0.0"
     inkscape:pagecheckerboard="0"
     inkscape:deskcolor="#d1d1d1"
     showgrid="false"
     inkscape:zoom="22.224846"
     inkscape:cx="12.643507"
     inkscape:cy="4.6344528"
     inkscape:window-width="1920"
     inkscape:window-height="1017"
     inkscape:window-x="1072"
     inkscape:window-y="-8"
     inkscape:window-maximized="1"
     inkscape:current-layer="svg650" />
  <path
     id="path648"
     style="fill:#000000;stroke:none"
     d="M 2.09375,0 C 0.86478723,0.04740995 0.1986378,0.87159603 0,1.90625 c 0.03809296,1.2006898 -0.29654323,2.964733 2.46875,3 h 3 L 5.5625,4.9375 c 2.036475,2.7592942 -1.4918325,7.386501 -2.03125,8.9375 -1.4371306,2.789628 0.1615184,4.09375 1.53125,4.09375 0.4461336,0 0.8709923,-0.13699 1.15625,-0.40625 2.1607188,-2.435736 0.212993,-3.823764 -0.78125,-3.875 L 4.875,14.90625 c 0.1582488,-0.07535 0.3348492,-0.04186 0.5,-0.0625 0.7425893,0.08625 1.00128,1.09428 0.03125,1.84375 -0.1047629,0.04716 -0.2019691,0.0625 -0.3125,0.0625 -0.5736954,0 -1.1350637,-0.588018 -0.875,-1.21875 0.2542867,-0.68688 0.5903423,-1.341434 0.90625,-2 C 6.2073549,11.242157 8.3774807,8.4733395 7.0625,4.9375 h 4.71875 c 2.036475,2.7592942 -1.523083,7.386501 -2.0625,8.9375 -1.4371296,2.789628 0.1615184,4.09375 1.53125,4.09375 0.446134,0 0.870991,-0.13699 1.15625,-0.40625 2.160717,-2.435736 0.243111,-3.823764 -0.75,-3.875 L 11.125,14.90625 c 0.137107,-0.07114 0.293382,-0.04191 0.4375,-0.0625 0.74259,0.08625 1.03253,1.09428 0.0625,1.84375 -0.104762,0.04716 -0.20197,0.0625 -0.3125,0.0625 -0.608337,0 -1.229582,-0.670907 -0.84375,-1.34375 l 0.90625,-2 C 12.475564,11.141369 14.541121,8.4091815 13.25,4.9375 h 3.697266 L 14.417969,8.4902344 C 15.54926,7.9397482 17.309839,6.5429887 18.719619,5.3569584 19.503806,6.450692 18.745367,7.535139 18.4375,8.625 l -1.21875,2.90625 c -0.518428,0.986244 -1.011913,1.83888 -1.1875,2.34375 -1.437133,2.789628 0.209308,4.09375 1.59375,4.09375 0.450924,0 0.870991,-0.13699 1.15625,-0.40625 2.160719,-2.435736 0.194491,-3.823764 -0.8125,-3.875 l -0.5625,1.25 c 0.164305,-0.09354 0.357027,-0.06301 0.53125,-0.09375 0.742589,0.08625 0.970029,1.09428 0,1.84375 -0.104763,0.04716 -0.201971,0.0625 -0.3125,0.0625 -1.007791,-0.229338 -1.170519,-0.65021 -0.8125,-1.4375 l 0.90625,-1.96875 C 18.04019,12.694819 18.405222,11.982412 18.78125,11.25 19.784561,9.4730458 20.577929,7.8214818 20.545692,5.9953161 20.527189,4.947169 19.794193,4.5740623 19.737023,4.4624271 20.118987,4.1499909 20.81853,3.5081831 21.166356,3.2520846 L 20.040884,2.253072 21.171875,0.6171875 C 21.098466,0.43797398 20.680239,0.08493282 20.443359,0.02929688 L 17.882812,3.625 H 2.40625 C 0.84397956,3.594928 0.87199616,1.21875 2.03125,1.21875 h 0.021484 c 0.00397,0 0.00777,-4.2e-5 0.00977,0 1.2221778,0.023735 1.51672,1.6362294 0.5,2 L 4.21875,3.25 C 4.6732445,2.271873 4.6627585,0 2.125,0 H 2.11719 Z"
     sodipodi:nodetypes="ccccccscccccscccccscccccscccccccccscccccccccscccccccsscccscc" />
</svg>
