<?xml version="1.0" encoding="UTF-8" standalone="no"?>
<svg
   width="1799.9998"
   height="1219.8334"
   version="1.1"
   id="svg1"
   xmlns="http://www.w3.org/2000/svg"
   xmlns:svg="http://www.w3.org/2000/svg">
  <defs
     id="defs1" />
  <path
     id="path1"
     style="fill:#000000;stroke:none;stroke-width:79.718"
     d="m 688.11434,0 c -24.87549,15.646368 -49.7349,31.317769 -74.61081,46.963487 7.44562,12.176364 14.88511,24.357714 22.32691,36.536424 -43.89889,54.042109 -12.24931,109.254629 19.63861,160.228389 39.83905,59.91253 108.41349,81.6044 139.16411,76.40601 l 92.46147,146.64386 c -40.77095,90.60567 -74.75281,184.97702 -103.56243,279.79552 -138.46159,43.17547 -157.79452,98.61563 -348.04068,183.42843 -0.2182,0.0973 -0.50073,0 -0.77896,0 -2.94754,0 -8.04722,0.46737 -12.61175,0.46737 -0.66246,0 -1.38984,-0.13746 -2.02528,-0.15573 L 36.277372,403.58351 l -0.467364,-0.77895 -0.932932,-0.31158 c -1.149379,-0.3938 -2.520596,-0.62134 -3.892946,-0.62134 -2.0218,0 -4.239626,0.35436 -6.539563,1.08871 -3.481111,1.1107 -7.129451,3.02485 -10.586484,5.29505 -3.45297,2.2675 -6.6231488,4.9013 -9.0322152,7.62828 C 2.162668,418.89769 0.28889615,422.01945 0,424.91409 v 0.77894 l 0.15579134,0.62317 179.05362866,564.25393 0.93474,2.8023 2.80242,-0.6231 133.43429,-34.8752 c -26.13331,16.8178 -54.37452,35.0063 -77.84981,49.82387 l -3.11398,1.8675 2.33504,2.8025 c 12.37912,15.0294 23.00801,21.019 34.56549,21.019 5.98305,0 12.22492,-1.5573 18.99554,-4.3585 22.45159,40.0549 44.29447,60.346 65.54962,66.4826 4.83479,1.3958 9.70937,2.0253 14.47942,2.0253 15.91623,0 31.44983,-7.3985 46.55409,-19.7745 l 32.38624,45.1519 1.86768,2.6467 2.64662,-2.0235 66.17278,-50.6028 2.49083,-1.8677 -1.71188,-2.4908 -44.53063,-61.1911 h 0.1558 C 603.42464,963.02623 731.73803,913.64859 859.51252,863.97247 884.44887,794.31463 930.3734,702.94799 979.84774,610.05621 l 254.34016,392.88829 c -18.1322,11.7432 -36.3711,22.4767 -52.3147,32.5402 l -3.1139,2.0253 2.335,2.6466 c 12.3792,15.0296 23.1638,21.1748 34.7212,21.1748 5.8792,0 11.8948,-1.6491 18.5282,-4.3604 4.4889,10.6717 13.49,27.2348 26.468,42.6612 14.2471,16.9352 33.328,32.3553 56.675,37.5238 l 46.8657,79.875 1.7119,2.8024 2.8043,-1.7137 76.6034,-48.2659 2.8023,-1.7138 -1.8675,-2.6466 -53.4054,-79.2501 c 23.5218,-27.9875 46.6971,-64.4759 68.5079,-96.22197 109.8331,-62.13566 245.288,-132.23678 337.2441,-220.15881 l 1.2463,-1.09052 -0.3115,-1.71371 C 1771.4685,591.288 1707.9855,420.25726 1607.3526,173.86811 l -0.1594,-0.15579 v -0.15578 c -25.3191,-48.39792 -48.7897,-83.080269 -72.7069,-106.810469 -24.1547,-23.96546 -48.839,-36.80336 -76.1378,-41.26086 -3.353,-0.5475 -45.8789,-3.384058 -50.3656,30.232298 -1.6382,12.273998 51.2966,135.432451 51.2966,135.432451 39.7092,144.23432 199.438,482.13929 196.6958,547.26106 -96.7886,72.2881 -178.7717,149.80065 -291.3131,217.66791 -4.3518,0.4974 -8.2287,0.6231 -11.9887,0.6231 -4.917,0 -9.5145,-0.1239 -14.3253,-0.1557 h -1.0888 c -8.3239,0 -17.2815,0.6367 -29.1165,4.0486 L 1024.4291,527.40047 c 73.569,-135.02536 148.2351,-405.00658 162.1325,-458.670789 -51.5387,-13.62445 -103.0776,-27.60564 -154.6164,2.18831 C 995.22347,123.5197 958.50173,323.40204 928.67432,381.19319 l -68.20893,-98.59162 c 9.25907,-6.90022 41.64856,-72.47006 -10.67888,-161.50732 -40.64878,-69.1263 -81.39501,-87.954417 -114.43332,-87.954417 -8.89586,0 -17.23357,1.364113 -24.8594,3.479915 C 703.0316,24.414173 695.58088,12.202904 688.11434,0 Z m -11.70599,49.675325 c 7.30795,11.970076 14.63309,23.928996 21.93562,35.902386 51.87881,-40.137867 94.52836,8.53435 120.4258,52.758529 80.79868,141.3268 -65.24898,192.24998 -133.00677,84.88753 -54.79232,-86.81779 -36.22992,-105.74934 -0.8822,-128.709859 -7.31686,-11.96308 -14.62555,-23.93083 -21.93744,-35.89695 z m 201.73378,318.744885 32.2522,49.00869 c -1.67304,3.43953 -3.25199,6.93472 -4.90377,10.38723 L 868.59727,370.80961 Z M 65.08225,506.03367 374.3004,930.93686 c -5.12285,0.66324 -10.27252,1.41535 -15.25839,2.80242 l -19.15132,-24.44455 -1.24451,-1.55609 -2.02346,0.46555 -133.43428,32.85357 z m 940.53795,56.08627 265.9356,404.07989 -12.3001,8.2514 -259.65705,-401.21765 c 2.00895,-3.72344 4.00905,-7.39472 6.02155,-11.11364 z m -551.60053,478.42986 18.99554,26.7795 -9.96513,7.4744 -17.59525,-24.2889 c 2.7895,-3.2145 5.7221,-6.5109 8.56484,-9.965 z m 920.92283,79.3244 26.0007,39.0816 -22.7309,13.2331 -23.6674,-39.5472 z" />
</svg>
