<?xml version="1.0" encoding="UTF-8" standalone="no"?>
<!-- Created with Inkscape (http://www.inkscape.org/) -->

<svg
   width="1795.6608"
   height="1720.5128"
   viewBox="0 0 1795.6608 1720.5128"
   version="1.1"
   id="svg570"
   xmlns="http://www.w3.org/2000/svg"
   xmlns:svg="http://www.w3.org/2000/svg">
  <defs
     id="defs567" />
  <path
     style="fill:#000000;stroke:none;stroke-width:76.5036"
     d="m 1750.4043,851.00268 c -3.8462,57.34934 -8.8435,131.5874 -10.0917,202.30732 -1.2492,70.7837 13.6445,118.6872 13.6445,135.4202 0,16.733 0.3074,29.2827 0.9224,37.6491 0.6151,8.3665 3.0754,-2.7887 7.3811,-33.4658 4.3057,-30.6771 6.1511,-72.8581 5.5358,-126.5431 -0.6149,-53.6849 20.7439,-127.51982 -17.3921,-215.36772 z m -272.3334,359.40112 c -11.5215,-20.1956 -23.0921,-56.875 -34.0761,-62.7744 -2.5815,3.4984 -13.825,5.2591 -33.0652,8.2438 -15.1808,2.3549 -45.421,154.9282 -49.1114,163.2948 -3.6907,8.3663 -6.7661,20.916 -9.2265,37.6491 -75.0414,71.1151 -109.4867,145.0189 -103.3358,221.7115 8.6114,47.4101 -3.6904,63.4458 -36.9057,48.1073 15.9925,34.8603 8.7869,68.003 -23.198,93.1024 h -118.0979 c 116.8677,-234.2613 187.0368,-423.924 152.5917,-548.0267 l -23.9888,-33.4658 c -30.7547,9.7608 -105.0976,23.7021 -163.5314,27.1882 -58.43395,3.4861 -118.40561,25.4481 -179.91499,65.886 -13.53205,40.4379 -17.83771,70.7664 -12.91696,90.9854 4.9207,20.2189 4.61316,34.8603 -0.92264,43.924 -5.53585,9.0637 -9.53398,30.6771 -11.99438,64.8402 -2.46039,34.1631 1.84528,86.8022 12.91702,157.9172 6.15095,34.8603 -9.22641,46.7128 -46.13211,35.5574 17.2227,36.2549 19.2436,73.6317 4.48131,93.1534 -50.52593,5.2463 -91.03477,1.0124 -133.38713,0.74 56.58864,-82.2703 88.00212,-153.1556 91.07762,-204.7489 3.07549,-51.5933 2.4604,-85.7565 -1.84529,-102.4894 -4.3057,-16.7329 -8.9189,-31.0257 -13.8396,-42.8783 -4.92081,-11.8525 -5.84344,-25.0994 -2.76795,-39.7407 3.0755,-14.6413 -8.91886,-47.7586 -35.98304,-99.3518 -34.44525,-2.7889 -77.50182,-13.247 -129.16971,-31.3744 -43.0566,79.4815 -64.58489,131.7721 -64.58489,156.8716 0,25.0994 -9.53395,47.7586 -28.60184,67.9775 -19.06791,20.2191 -32.9075,63.0973 -41.51881,128.6346 3.69056,27.8882 -8.61135,41.8323 -36.90569,41.8323 7.3811,8.3665 11.68678,29.98 12.91702,64.8403 1.23015,34.8603 -18.45196,61.779 -47.97646,61.779 H 260.18565 c 95.95465,-209.162 150.38955,-333.341 152.23484,-353.56 1.84525,-20.219 10.76413,-42.181 26.75662,-65.8861 15.99247,-23.7049 22.14338,-102.4892 18.45279,-236.3529 C 417.0337,952.43748 389.96959,889.3403 376.43753,874.69889 362.90543,860.05758 351.21863,836.004 341.37714,802.53813 331.53564,769.07224 305.70169,747.11023 263.87529,736.6521 222.0489,726.19401 180.83761,710.50689 140.24142,689.59072 108.25654,704.92929 83.65276,709.11254 66.43011,702.14047 22.14337,668.67453 0,640.78626 0,618.47567 0,591.9818 6.15095,575.24886 18.45284,568.27684 c 12.30185,-6.97207 31.6773,-26.84245 58.12635,-59.61112 26.44905,-32.76873 41.21129,-54.73075 44.28675,-65.88604 3.0755,-11.1553 16.91511,-30.67707 41.51886,-58.5653 C 134.0905,347.95959 117.48296,287.65122 112.56216,203.28929 107.64142,118.9273 87.34332,56.52732 51.66787,16.089343 45.51697,2.1452499 48.59244,-2.7351851 60.89429,1.4480369 99.03015,22.364203 127.01691,75.003288 144.8546,159.3653 c 17.83775,84.36199 36.59812,139.78989 56.2811,166.2837 18.45285,29.28266 70.73584,46.0156 156.84897,50.19883 C 414.57332,354.93166 462.55066,298.45796 501.9167,206.42675 546.20345,92.084864 590.4902,34.913924 634.77694,34.913924 h 11.07172 l 3.69053,16.732967 c 0,4.183223 -9.84147,9.063658 -29.52442,14.641306 -24.6038,15.338573 -49.82267,65.537433 -75.65661,150.596583 -23.37354,93.42564 -58.4339,159.66026 -105.18105,198.70385 l 51.66787,2.09163 c 2.46036,37.64911 -11.07172,63.44574 -40.59621,77.38989 60.27919,52.98769 120.86595,76.6927 181.76029,71.11505 60.89429,-5.57765 127.32443,5.92626 199.29043,34.51171 71.96598,28.58545 141.47163,43.22679 208.51691,43.924 67.0451,0.69721 139.3188,-12.20112 216.8206,-38.69499 77.5018,-26.49381 151.0636,12.05132 230.4108,-3.98451 70.4335,-14.23443 137.3394,-22.76694 210.8527,52.54474 9.3031,9.53067 30.0005,-19.58303 56.4684,-1.65471 53.3901,58.49876 -10.0008,29.53204 6.1961,143.06955 52.8981,112.9475 30.2976,219.22491 30.2976,315.43941 -4.9207,96.2144 -17.2226,147.1104 -36.9055,152.6881 -13.5323,0 -21.5284,-5.5777 -23.9889,-16.733 l 3.6908,-79.4814 c -22.1434,-78.0873 -7.1027,-162.0541 -16.9442,-248.50761 l 16.8007,-135.70272 c -4.7359,-126.52868 28.6188,-81.24519 3.8644,-95.84061 -52.9872,7.0979 -10.7765,29.35103 -32.7102,79.27789 -16.8247,38.2974 -4.315,43.93288 -24.5039,124.6338 -20.8962,83.52801 -42.6954,179.12765 -43.4006,213.10215 -1.2301,59.2626 22.7585,117.4793 71.9659,174.6502 -18.4527,86.4536 -10.4565,181.2737 23.9887,284.4602 15.9925,33.4658 9.2264,49.5016 -20.2981,48.1073 18.4529,43.2267 16.7833,81.2498 -6.5903,107.7437 h -145.7775 c 54.1283,-83.6647 77.0187,-158.9884 70.2527,-219.6453 -6.766,-60.657 -26.4491,-111.2045 -59.049,-151.6425 -32.6,-40.4379 -63.6622,-86.4535 -93.1867,-138.0468 z M 49.82264,645.66672 c 4.92075,9.76087 15.37735,20.21899 31.3698,31.37434 l 18.45277,-4.18328 c 8.6113,-5.5777 18.14527,-11.50395 28.60192,-17.77876 10.45655,-6.27487 25.52635,-12.89834 45.2094,-19.87041 7.3811,0 9.84147,2.09161 7.38112,6.27484 1.23015,5.57765 -4.3057,11.85251 -16.60754,18.82458 33.21507,22.31059 73.81126,39.39214 121.78856,51.24464 47.97734,11.85251 76.88675,34.16313 86.72825,66.93186 9.84151,32.76866 23.06603,60.30831 39.67357,82.61895 16.60756,22.31059 38.44341,72.50941 65.50755,150.59642 27.0641,78.0871 59.04897,124.8 95.95461,140.1385 36.90564,15.3385 78.73204,28.5855 125.47918,39.7408 -4.92075,-36.2547 -20.2981,-74.6011 -46.13204,-115.039 -25.83395,-40.438 -38.75093,-87.84802 -38.75093,-142.23011 0,-54.38211 18.45283,-116.43346 55.35847,-186.15407 l 22.14338,8.36656 c -31.9849,72.5094 -47.97735,136.65234 -47.97735,192.42882 0,55.7765 26.44904,113.6447 79.34713,173.6044 46.74715,69.7206 88.57355,60.6569 125.4792,-27.191 l 25.83396,2.0915 -7.38112,87.8481 c 66.43013,-36.2547 127.32444,-54.7306 182.68287,-55.4279 55.3586,-0.6972 110.9917,-20.9093 161.2531,-28.0527 47.4617,-6.7455 182.6414,27.0197 226.8219,2.9118 -12.3018,-36.2547 -87.9094,-127.89576 -148.1887,-172.51699 l 14.7622,-25.09941 c 76.2717,51.59323 130.7076,107.3697 163.3076,167.3295 32.5999,59.9597 63.3546,65.5374 92.2641,16.733 28.9095,-48.8045 53.2057,-99.0033 72.8887,-150.59653 19.6829,-51.59331 25.6973,-96.13443 34.7673,-138.64156 13.9808,-65.52141 34.35,-89.16731 -19.6957,-148.80066 -44.2867,-46.71282 -107.2777,-14.24948 -178.6287,-1.00255 -71.351,13.24694 -137.2239,-27.73831 -207.3446,-3.33614 -70.1207,24.40223 -144.547,36.60334 -223.2791,36.60334 -79.9623,0 -155.31131,-15.68715 -226.04715,-47.06144 -70.7356,-31.37437 -138.08827,-43.57551 -202.05801,-36.60343 -63.96979,6.97207 -129.78486,-22.31059 -197.44519,-87.848 h -49.82264 c 0,-13.94415 14.14717,-22.31062 42.44152,-25.09941 24.60374,-13.94415 39.98109,-27.8883 46.13204,-41.83244 l -99.64522,25.09941 c -14.76225,-9.76087 -22.75847,-32.76867 -23.98866,-69.02341 -41.8264,-1.39437 -79.96222,-9.76084 -114.40747,-25.09941 -13.53209,20.91616 -26.44905,39.04353 -38.7509,54.3821 51.66783,5.57765 77.50175,16.03576 77.50175,31.37433 1.2302,8.36645 -8.30374,8.71503 -28.60184,1.04574 -20.2981,-7.66923 -37.82826,-10.10944 -52.5905,-7.32065 18.45278,2.78879 30.13955,13.2469 35.06029,31.37433 1.23021,16.73294 -10.45656,25.09941 -35.06029,25.09941 -19.683,0 -27.06414,-16.73294 -22.14337,-50.19883 -20.9132,32.07146 -63.35469,78.08707 -127.32449,138.04683 1.2302,5.57765 3.69057,11.8525 7.38112,18.82457 1.2302,-18.12737 7.0736,-28.23687 17.5302,-30.32851 10.4566,-2.09163 18.76037,4.53184 24.91132,19.87041 2.46035,9.76087 -1.84532,12.54969 -12.91702,8.36647 0,-9.76093 -3.69055,-13.24696 -11.07165,-10.45811 -7.38115,6.97207 -6.76605,19.52179 1.8453,37.64916 z"
     id="path17631" />
</svg>
