<?xml version="1.0" encoding="UTF-8" standalone="no"?>
<!-- Created with Inkscape (http://www.inkscape.org/) -->

<svg
   width="1795.7678"
   height="1153.4845"
   viewBox="0 0 1795.7678 1153.4845"
   version="1.1"
   id="svg10448"
   xmlns="http://www.w3.org/2000/svg"
   xmlns:svg="http://www.w3.org/2000/svg">
  <defs
     id="defs10445" />
  <path
     id="path28957"
     style="display:inline;fill:#000000;stroke:none;stroke-width:66.5401"
     d="M 28.382508,0.04266551 C -5.7935914,15.458556 -4.1882915,12.688376 7.7204082,35.878606 30.135108,72.981196 51.619408,110.63824 74.087608,147.72236 c -14.3265,10.49532 -42.7476,14.50705 -47.3555,31.06445 7.466,24.82704 17.6164,30.39664 42.2012,15.20704 26.112096,-12.76055 27.802196,-11.79248 37.599592,6.25 35.3679,57.60848 70.6542,115.26538 105.9883,172.89457 -27.3841,-11.8476 -54.7683,-23.69536 -82.1523,-35.54301 -29.0298,2.19512 -9.9685,33.13161 5.8144,40.49611 38.3397,28.4181 73.9964,60.4644 111.3184,90.2656 21.3482,16.8065 41.5498,35.6597 63.6074,51.1954 1.3024,0.1921 2.4704,0.2324 3.5937,0.2226 -23.4459,9.4082 -40.7668,18.9237 -51.0703,28.5625 -14.8528,13.8946 -23.7171,29.4664 -26.5918,46.7149 -2.8747,17.2483 -14.8521,31.3824 -35.9336,42.4023 -21.0814,11.0198 -46.476,20.8426 -76.1816,29.4668 -29.705596,8.6242 -50.786892,27.3092 -63.244092,56.0566 -12.4573,28.7474 -15.0911,53.6627 -7.9043,74.7442 7.1868,21.0815 10.7793,39.5268 10.7793,55.3379 0,15.8109 15.8114,25.6337 47.433592,29.4668 15.3319,81.451 61.8078,99.8963 139.4257,55.3379 77.618,-44.5585 133.675,-59.6511 168.1719,-45.2774 59.4113,9.5825 97.2626,2.3956 113.5527,-21.5605 31.6222,20.1231 59.8904,16.7703 84.8047,-10.0606 17.2485,31.6223 29.2259,47.9129 35.9336,48.8711 45.0376,62.2861 58.2131,108.52028 39.5274,138.70508 -18.6858,30.1847 -28.0274,52.9434 -28.0274,68.2754 0,18.2069 33.538,28.2691 100.6153,30.1855 67.0774,1.9165 102.0532,-10.3024 104.9277,-36.6543 2.8747,-26.3517 -1.9158,-74.503 -14.3731,-144.45498 20.1232,10.5406 42.1631,11.0199 66.1192,1.4375 9.5825,41.20458 -2.8762,90.07468 -37.3731,146.61128 0,25.8727 34.4984,39.0482 103.4922,39.5273 68.9937,0.4791 107.0827,-11.2586 114.2696,-35.2148 7.1867,-23.9562 12.4584,-45.996 15.8125,-66.1192 3.3539,-20.1231 2.6349,-57.97438 -2.1563,-113.55268 18.2067,11.4988 72.8279,16.2913 163.8614,14.375 2.8745,9.5824 3.1121,24.1938 0.7168,43.8379 -2.3956,19.64408 -14.1334,43.36118 -35.2149,71.15038 -27.7891,-0.9583 -41.2042,18.6871 -40.2461,58.9336 19.165,17.2484 42.6426,25.8711 70.4317,25.8711 27.7891,0 57.495,-1.9154 89.1171,-5.7481 31.6221,-3.833 52.7035,-39.0483 63.2442,-105.6465 10.5406,-66.59808 14.8519,-104.68888 12.9355,-114.27138 l 63.2442,-4.3125 c 15.332,47.9122 2.8753,88.63898 -37.3711,122.17768 -27.7893,7.666 -41.6836,30.1831 -41.6836,67.5547 9.5825,21.0815 27.0693,31.623 52.4629,31.623 25.3934,0 61.3296,-1.4375 107.8047,-4.3125 46.4748,-2.8747 73.7846,-30.424 81.9296,-82.6484 8.1449,-52.2245 9.8206,-115.22868 5.0293,-189.01368 20.1233,-33.5385 45.9971,-77.6182 77.6192,-132.2383 -19.1649,111.1565 -16.7706,166.2551 7.1855,165.2969 19.1648,-0.9583 30.9045,-28.0283 35.2168,-81.2109 4.3121,-53.1827 3.5932,-108.7625 -2.1562,-166.7363 -5.7495,-57.974 -40.4856,-134.3934 -104.209,-229.2598 -63.7233,-94.86642 -158.3505,-148.52917 -283.8809,-160.98638 -125.5301,-12.45722 -236.9274,-11.25909 -334.1894,3.59375 -97.2621,14.85283 -169.3702,30.4247 -216.3243,46.71484 -46.954,16.29023 -109.7186,28.02799 -188.2949,35.21484 -78.5762,7.18685 -151.4032,26.59275 -218.4805,58.21485 -67.0772,31.6221 -99.1793,65.1601 -96.3046,100.6153 -9.1417,2.9087 -17.3473,5.8344 -25.2051,8.7656 7.7085,-8.3952 3.0337,-29.0791 0.9824,-39.6289 -12.8467,-69.5002 -27.6647,-138.68872 -41.2168,-208.08013 -19.9639,-24.59793 -35.847,15.79833 -31.2969,33.70508 -2.771,15.02142 -2.4963,45.76001 -7.6757,50.79102 L 31.150108,0.94110551 c 0.1661,0.17134999 -1.8489,-1.19656 -2.7676,-0.89844 z M 1183.5056,310.04853 c 35.8444,-0.0898 74.1899,0.76384 115.0352,2.56055 163.3811,7.18685 275.7347,52.94384 337.0624,137.26954 61.3278,84.3257 87.2017,156.1943 77.6192,215.6055 -9.5824,59.4113 -40.2467,118.8226 -91.9922,178.2344 6.7077,90.0752 -2.8754,171.04758 -28.748,242.91598 -23.9561,-19.1652 -40.7261,-17.7291 -50.3086,4.3105 -17.2485,-13.4154 -30.1844,-12.9361 -38.8086,1.4375 -9.5825,-12.4573 -20.6015,-11.4986 -33.0586,2.875 2.8747,-10.5407 13.8936,-22.7577 33.0586,-36.6523 19.1649,-13.8946 34.4972,-37.8514 45.9961,-71.86908 11.4991,-34.0178 6.7084,-68.2747 -14.3731,-102.7715 -96.783,-86.2422 -171.5269,-159.5485 -224.2305,-219.918 h -17.248 l 1.4375,40.2461 c 61.3277,71.8685 121.2188,128.884 179.6719,171.0469 -120.739,26.8308 -239.5626,32.1008 -356.4688,15.8105 -3.8329,-25.8727 4.7916,-53.1823 25.8731,-81.9297 l -38.8086,-11.498 c -23.9559,36.4133 -34.4976,90.5534 -31.6231,162.4219 9.5825,49.82878 4.792,101.09508 -14.373,153.79878 -23.9562,-27.7891 -39.2884,-28.7477 -45.9961,-2.875 -12.4572,-26.8307 -24.914,-27.7874 -37.3711,-2.8731 -9.5825,-21.0814 -24.9147,-23.4776 -45.9961,-7.1875 26.8309,-44.0793 40.2461,-80.972 40.2461,-110.67768 0,-29.7057 -5.9887,-57.9738 -17.9668,-84.8047 -11.9781,-26.831 -27.7895,-51.0274 -47.4336,-72.5879 -19.6443,-21.5605 -30.9048,-47.1927 -33.7793,-76.8984 H 843.613 c 3.833,39.288 15.3312,72.8261 34.4961,100.6152 19.1648,27.7892 30.6629,51.2668 34.4961,70.4317 -20.1232,5.7495 -48.1517,3e-4 -84.0859,-17.2481 -35.9343,-17.2485 -68.7534,-35.9354 -98.459,-56.0586 65.1609,-68.0355 98.4592,-141.821 99.8965,-221.3554 1.4373,-79.5345 -0.957,-124.3311 -7.1856,-134.3926 -6.2286,-10.0617 -9.3437,3.114 -9.3437,39.5273 0,35.4552 -6.2284,79.5348 -18.6856,132.2383 -12.4572,52.7035 -66.5992,108.2813 -162.4238,166.7344 30.6639,-49.8289 54.6207,-97.7405 71.8691,-143.7364 17.2484,-45.9958 23.4768,-84.0867 18.6856,-114.2714 -4.791,-30.1847 -8.8628,-34.9773 -12.2168,-14.375 -3.3539,20.6022 -13.1766,53.663 -29.4668,99.1796 -16.2902,45.5168 -40.9659,86.4812 -74.0254,122.8946 -33.0595,36.4133 -53.9012,52.2249 -62.5254,47.4336 24.9144,-40.2464 44.3203,-87.4392 58.2148,-141.5801 13.8944,-54.1408 15.3304,-85.0449 4.3106,-92.7109 -11.0197,-7.666 -15.5707,-5.0302 -13.6543,7.9062 1.9165,12.9363 -5.2704,44.0781 -21.5606,93.4277 -16.2901,49.3497 -49.8281,97.503 -100.6152,144.4571 31.6221,-54.6201 42.1618,-96.7846 31.6211,-126.4903 -10.5408,-29.7056 -17.0087,-32.8188 -19.4043,-9.3418 -2.3956,23.4771 -12.458,51.5056 -30.1855,84.086 -17.7275,32.5801 -34.4956,47.1934 -50.3067,43.8398 -15.8111,-3.3539 -57.2567,10.7802 -124.334,42.4024 -67.0773,31.622 -105.1662,40.0071 -114.2695,25.1543 -9.1033,-14.8527 -5.7505,-24.1962 10.0605,-28.0293 15.8111,-3.833 30.6641,-15.0915 44.5586,-33.7774 13.8946,-18.6859 35.6948,-28.2689 65.4004,-28.748 29.7057,-0.4791 52.9436,-9.583 69.7129,-27.3106 16.7693,-17.7276 31.8619,-31.8616 45.2774,-42.4023 l -1.4375,-11.4981 c -22.998,6.7077 -42.6415,18.2059 -58.9317,34.4961 -16.2901,16.2901 -39.2884,24.4356 -68.9941,24.4356 -30.6639,0.9583 -54.1415,11.4998 -70.4317,31.623 -16.2901,20.1232 -35.4544,30.1836 -57.4941,30.1836 -27.7892,-1.9165 -40.727,-7.6655 -38.8105,-17.248 1.9164,-9.5825 9e-4,-23.9562 -5.748096,-43.1211 -5.749496,-19.1649 -6.707996,-37.85 -2.875,-56.0567 3.833,-18.2066 17.727496,-29.9464 41.683596,-35.2168 23.9562,-5.2703 50.5469,-14.3742 79.7734,-27.3105 29.2266,-12.9363 49.1116,-36.1723 59.6524,-69.7109 2.8747,-37.3717 41.6825,-59.4115 116.4258,-66.1192 -12.4572,-34.4968 11.9788,-68.2765 73.3066,-101.3359 61.3278,-33.0596 169.1306,-52.9427 323.4082,-59.6504 9.5825,-4.7913 56.0583,-18.6857 139.4258,-41.68364 62.5255,-17.24843 147.5547,-26.00784 255.0879,-26.27735 z M 485.7067,432.63062 c -38.3299,26.8309 -57.9734,60.3689 -58.9316,100.6152 l 14.373,15.8106 94.8672,-1.4375 c 9.5825,-49.8289 -7.1875,-88.1574 -50.3086,-114.9883 z m 4.3125,25.8711 c 16.2902,18.2067 26.3507,39.7672 30.1836,64.6816 -24.9144,0 -47.4334,-1.4358 -67.5566,-4.3105 3.833,-21.0814 16.2916,-41.2061 37.373,-60.3711 z m -109.4199,89.791 c -19.0451,0.6288 -38.6307,5.4363 -58.7539,14.4199 -26.8309,11.9781 -39.7668,28.9857 -38.8086,51.0254 l 15.8106,15.8106 c 2.8747,-25.8727 13.656,-43.8388 32.3418,-53.9004 18.6858,-10.0616 43.3615,-16.0503 74.0254,-17.9668 l -5.75,-8.625 c -6.2286,-0.7187 -12.5169,-0.9733 -18.8653,-0.7637 z m 19.4942,17.0684 c -10.96,-1.1679 -26.5018,1.3032 -46.625,7.4121 -26.8309,8.1451 -43.1216,30.4245 -48.8711,66.8379 l 7.1875,12.9355 c 10.5407,-56.5364 45.0372,-82.8876 103.4902,-79.0547 l -5.75,-5.75 c -2.6352,-1.1978 -5.7783,-1.9915 -9.4316,-2.3808 z m -31.1739,23.7617 c -5.989,0.3593 -12.5768,2.5759 -19.7636,6.6484 -14.3737,8.1451 -17.0077,18.6868 -7.9043,31.6231 9.1033,12.9363 19.8826,12.9363 32.3398,0 12.4572,-12.9363 16.2913,-24.1969 11.5,-33.7793 -4.7912,-3.3539 -10.1828,-4.8516 -16.1719,-4.4922 z m -212.0234,121.5703 c -2.448,0.045 -5.1995,0.308 -8.2539,0.7871 -24.4353,3.833 -37.1316,16.2896 -38.0898,37.3711 21.0814,19.165 38.8098,16.7687 53.1835,-7.1875 12.577,-20.9617 10.2963,-31.2851 -6.8398,-30.9707 z m 580.3496,209.2051 74.7442,30.1855 c 7.6661,50.78708 12.936,104.92698 15.8105,162.42188 -19.165,-23.9561 -31.1424,-24.9127 -35.9336,-2.8731 -11.499,-22.0395 -22.0406,-22.5189 -31.623,-1.4375 -7.666,-18.2068 -20.6019,-20.1236 -38.8086,-5.75 30.6639,-66.119 35.9337,-126.96858 15.8105,-182.54678 z m 664.0664,17.25 c 2.8747,39.288 -6.229,90.55258 -27.3105,153.79678 -19.1649,-10.5407 -33.5387,-4.7896 -43.1211,17.25 -17.2485,-13.4155 -30.1844,-12.9361 -38.8086,1.4375 -10.5408,-12.4573 -22.041,-11.5006 -34.498,2.8731 2.8748,-10.5407 13.8956,-22.5181 33.0605,-35.9336 19.165,-13.4155 31.382,-31.8608 36.6523,-55.3379 5.2705,-23.47708 8.865,-48.15268 10.7813,-74.02538 z" />
</svg>
