<?xml version="1.0" encoding="UTF-8" standalone="no"?>
<svg
   width="1799.4397"
   height="1237.2966"
   id="svg2"
   version="1.0"
   xml:space="preserve"
   xmlns="http://www.w3.org/2000/svg"
   xmlns:svg="http://www.w3.org/2000/svg"
   xmlns:rdf="http://www.w3.org/1999/02/22-rdf-syntax-ns#"
   xmlns:cc="http://creativecommons.org/ns#"
   xmlns:dc="http://purl.org/dc/elements/1.1/"><metadata
     id="metadata9"><rdf:RDF><cc:Work
         rdf:about=""><dc:format>image/svg+xml</dc:format><dc:type
           rdf:resource="http://purl.org/dc/dcmitype/StillImage" /><cc:license
           rdf:resource="" /><dc:creator><cc:Agent><dc:title>S. Thomas, modified by S. Rosmorduc</dc:title></cc:Agent></dc:creator><dc:description>Variant of E10 with lines 60px bold.&#10;</dc:description></cc:Work></rdf:RDF></metadata><defs
     id="defs7" /><path
     id="path3000"
     style="fill:#000000;stroke:none;stroke-width:68.8039"
     d="M 184.65928,1.6729081 C 160.76082,1.528294 148.36088,3.9008839 120.8465,15.472399 71.931733,36.04397 75.968978,48.183467 56.311725,38.5834 36.654369,28.983355 22.706293,23.280226 14.477622,21.451649 2.5917761,17.794505 -1.9705299,23.26945 0.77222112,37.898131 15.401027,80.86982 44.209725,103.29123 87.18151,105.11986 c 42.97158,1.82861 39.61893,-8.714057 66.59053,-18.314112 26.97171,-9.600058 45.87338,-5.127163 83.35934,6.758609 37.48608,11.885813 30.5036,12.729043 65.70377,5.87184 33.45193,-6.516586 61.33096,-0.426679 83.63563,18.241223 -5.0674,1.42213 0.58852,2.15411 10.34018,2.53305 -7.67157,3.45357 -15.13692,6.61948 -23.39702,10.89703 -30.49595,12.93789 -60.99305,28.87964 -91.48974,47.82411 -30.49584,18.94514 -61.91657,44.82082 -94.2613,77.62722 -32.34476,32.80707 -41.12393,66.7695 -26.33798,101.88701 12.01377,25.87576 27.95485,40.6622 47.82406,44.35698 19.86852,3.69613 61.68591,-0.46174 125.45136,-12.47561 l 38.8136,6.93224 c -1.84806,175.58547 37.42823,306.81315 117.8277,393.68147 4.62089,16.63476 2.07978,35.57902 -7.62364,56.83465 -9.70342,21.25492 -21.48663,39.04312 -35.34855,53.36743 -13.86194,14.32431 -24.72141,36.5042 -32.57678,66.5385 -7.85536,30.03502 -27.03144,57.7592 -57.52802,83.1726 -30.49595,25.4142 -45.74387,47.3602 -45.74387,65.8431 -57.29641,41.5855 -96.11,81.3256 -116.44077,119.2145 h 130.30322 c 17.55878,-15.7101 29.10955,-30.0344 34.65509,-42.972 26.79981,10.1655 44.82119,3.6957 54.06297,-19.408 0,-55.4476 15.24782,-100.7291 45.74377,-135.8466 2.77283,-7.393 21.25419,-20.3328 55.44772,-38.81565 29.57192,-38.81369 60.76082,-72.54297 93.56795,-101.19159 32.80629,-28.64779 53.83231,-43.43699 63.07335,-44.35894 16.63476,8.31702 38.35183,29.57203 65.15166,63.76474 12.01387,48.97949 35.11677,79.4766 69.31016,91.48974 12.01323,28.6485 19.40678,66.0756 22.17951,112.2823 -33.26875,38.8136 -61.91725,77.6271 -85.94433,116.4409 h 148.32226 c 15.71069,-18.4828 23.56635,-40.6607 23.56635,-66.5365 19.40683,2.772 32.11362,-3.4662 38.12018,-18.7145 6.00726,-15.2484 1.15617,-34.885 -14.55383,-58.9128 -32.34471,-46.2066 -48.05465,-88.2551 -47.1327,-126.14478 0.92476,-37.88955 -10.16455,-67.69204 -33.26824,-89.40933 -23.10294,-21.71729 -39.73728,-58.91328 -49.90233,-111.5889 46.20662,-0.92477 98.18976,3.23457 155.94791,12.47561 57.75802,9.24105 105.27482,5.72114 116.36472,11.26669 -7.3811,6.39131 -24.0322,33.26023 18.7885,35.86391 3.6961,27.7246 14.3246,46.20606 31.8834,55.44782 -1.848,-40.66175 -6.0839,-41.40435 0.3837,-58.96313 l 151.5975,3.80064 c -1.2634,14.87866 12.4101,32.59253 36.2399,19.812 13.9222,-7.46692 -61.1061,101.93695 -81.4842,134.46378 -24.0277,38.35119 -57.297,76.93369 -99.8067,115.74739 -12.938,28.6485 -24.0266,42.0512 -33.2683,40.2003 -22.1789,3.6969 -50.8267,36.9662 -85.9443,99.8069 h 153.8676 c 2.7728,-17.5581 3.6957,-31.8824 2.7736,-42.972 31.4208,11.0896 49.9021,-4.6205 55.4479,-47.1308 15.7099,-13.862 36.5042,-41.8179 62.3799,-83.8662 25.8757,-42.048 52.2142,-69.07836 79.0142,-81.09223 26.7998,-12.01388 42.7374,-28.41763 47.822,-49.2109 5.0832,-20.79325 9.4742,-40.43078 13.1689,-58.91285 3.6969,-18.48282 12.9391,-32.34559 27.7249,-41.58736 80.4003,66.53755 125.2209,131.22882 134.4619,194.07014 v 95.6462 c -33.2688,38.8136 -61.4559,77.1671 -84.5595,115.056 h 146.9373 c 16.6342,-17.5581 24.4883,-39.2758 23.5665,-65.1516 19.4067,1.848 32.346,-4.6219 38.8136,-19.4079 6.469,-14.786 1.8477,-34.1916 -13.8625,-58.2194 v 0 c -2.7755,-2.772 -5.0813,-57.2963 -6.9322,-163.57144 3.6969,-36.04159 -1.3851,-53.59797 -15.2473,-52.67604 -12.0136,-0.92403 -22.8713,-19.86912 -32.5747,-56.83465 -9.7034,-36.9649 -3.4666,-68.38551 18.7124,-94.26131 22.1796,-25.87579 42.0495,-69.77286 59.6082,-131.69015 2.772,59.14457 -0.925,109.04738 -11.0906,149.70913 -10.1695,40.66174 -11.322,97.49724 -3.4672,170.50375 7.8554,73.0064 25.1828,109.51061 51.9826,109.51061 26.7983,-9.2411 36.5026,-34.42485 29.1096,-75.549 -7.3929,-41.1233 -21.2544,-105.58213 -41.5853,-193.3746 36.0409,-193.14411 11.7815,-314.43738 -72.7773,-363.87841 -84.5579,-49.4418 -169.1164,-72.7764 -253.6743,-70.00361 -84.5586,2.7728 -172.8134,2.07956 -264.765,-2.07621 -91.9509,-4.15848 -179.51253,-12.01416 -262.68485,-23.56635 -83.1721,-11.55148 -149.01614,-35.80968 -197.5331,-72.77526 -48.51724,-36.9656 -88.4874,-65.38167 -119.90801,-85.25085 -20.02544,-12.66284 -39.42206,-22.08536 -58.32141,-28.93023 21.89575,-9.828575 46.30013,-12.41275 73.27288,-7.60936 33.37163,5.94288 68.796,2.9773 106.28217,-8.908505 37.48597,-11.885762 69.71676,-13.026438 96.68834,-3.426349 26.97158,9.600087 61.93982,13.478174 104.91157,11.649584 42.97167,-1.828603 72.23693,-24.250054 87.77985,-67.221722 1.82864,-14.628659 -3.64643,-20.103646 -16.44656,-16.44648 -7.31433,1.828596 -21.03442,7.531673 -41.14878,17.131749 -20.11451,9.600099 -54.3982,4.125081 -102.85577,-16.44648 -48.45747,-20.5715608 -91.44279,-22.6246874 -128.92865,-6.167431 -37.48606,16.457268 -74.96359,16.457238 -112.44954,0 C 555.41227,-5.4840391 507.8646,3.6735391 450.26411,38.41662 391.74952,3.6735496 343.74552,-5.4840704 306.25956,10.973186 268.7737,27.430454 274.61548,29.096554 237.1294,12.639316 220.72928,5.4392985 203.24485,1.7874904 184.65729,1.6749965 Z M 473.84879,133.5345 c 24.76391,-1.15512 50.432,6.35386 77.00116,22.5262 42.50973,25.87578 63.76275,60.06861 63.76275,102.57841 0,38.81365 -19.8686,70.69647 -59.60632,95.64819 -39.73762,24.95174 -111.81969,29.5704 -216.24753,13.86041 v -9.70187 c 89.64116,8.31701 152.25213,3.69562 187.83125,-13.86244 35.57922,-17.55875 52.90461,-45.74583 51.98267,-84.55947 0,-44.35856 -38.35079,-70.23425 -115.05405,-77.62722 0,-11.08913 -11.09129,-23.56484 -33.27024,-37.42676 14.20841,-6.93105 28.74198,-10.74239 43.60031,-11.43545 z m -67.16462,28.06752 c 19.40686,9.24104 29.10976,24.95104 29.10976,47.13067 73.00703,7.39296 109.51059,24.02657 109.51059,49.90234 0,22.17963 -6.0072,37.89097 -18.02095,47.13271 4.62077,-44.35856 -16.17322,-72.08279 -62.38,-83.1726 h -16.63412 c -7.39163,5.5449 -10.6238,18.94488 -9.70186,40.20046 0,19.40683 11.55138,42.50833 34.65508,69.30813 -35.11757,11.08842 -69.77234,14.0951 -103.96526,9.01049 -34.1928,-5.07981 -53.59777,-3.00021 -58.22138,6.24084 -4.62359,9.24175 -5.5445,17.0988 -2.77167,23.56637 -22.17967,5.54629 -42.97313,9.01234 -62.37999,10.39529 -19.40684,1.38572 -32.3461,-3.46401 -38.81358,-14.55383 17.55795,0 37.19546,-1.85062 58.91276,-5.54539 21.71729,-3.69614 34.19301,-10.39783 37.42675,-20.10125 3.23448,-9.70272 -6.92914,-8.77777 -30.49448,2.77372 -23.56609,11.55216 -48.74915,15.94181 -75.54898,13.16901 -5.54493,-3.69614 -10.16768,-14.78544 -13.86245,-33.26823 v -0.004 c 1.85088,-8.317 3.69445,-16.17132 5.54533,-23.56431 44.35861,-50.82749 81.0939,-83.63527 110.20406,-98.4219 29.11028,-14.78597 50.13357,-25.4138 63.07137,-31.88138 12.9379,-6.46619 27.7249,-9.23903 44.35902,-8.31706 z m -16.63412,49.90641 c -25.8758,2.7728 -48.0564,19.40571 -66.53849,49.90237 -11.08984,8.31701 -26.1072,16.40307 -45.0524,24.25773 -18.94312,7.85534 -27.49548,15.47995 -25.64461,22.87292 l 90.10491,-51.28919 c 40.66164,13.86191 71.15676,7.39401 91.48753,-19.40578 v -6.93226 z m 260.60456,22.17952 c 58.22046,59.14452 166.80671,96.1088 325.75817,110.89545 -250.44058,-12.01385 -381.43582,45.0508 -392.98804,171.19517 -11.55148,126.14439 8.54809,224.33458 60.2997,294.56815 -6.46896,10.18513 -22.64185,13.39872 -48.51754,9.70395 -25.8758,-3.69612 -61.68537,-39.27545 -107.4304,-106.73693 -45.7442,-67.46222 -69.08169,-171.42705 -70.00364,-311.89576 66.53755,14.78597 121.98673,5.31279 166.34524,-28.41831 44.3585,-33.73042 66.53651,-80.1672 66.53651,-139.31172 z m -191.29636,9.70186 h 5.54532 c 25.87465,12.93769 39.73459,27.72534 41.58526,44.359 1.85089,16.63472 0.92111,34.19326 -2.77365,52.67605 -26.79983,-33.26943 -41.58411,-65.61506 -44.35693,-97.03505 z M 214.00097,307.1546 c -15.71,2.77279 -23.56431,6.93203 -23.56431,12.47763 0,11.0898 4.15777,17.09694 12.47552,18.01892 24.027,-6.46895 36.03992,-12.47333 36.03992,-18.01892 0,-8.32047 -8.31638,-12.47763 -24.95113,-12.47763 z m 1191.48453,56.31452 c 74.9418,0.34656 139.6173,11.61088 194.0253,33.79033 72.545,29.57184 117.1344,66.53684 133.7683,110.89545 l -9.7037,-12.47561 c -14.7868,-17.55805 -41.1245,-32.80796 -79.0141,-45.74587 l 2.7737,15.24939 c 38.8136,24.02691 57.2986,54.9868 55.4477,92.87646 -1.8486,37.88852 -18.2534,77.62729 -49.211,119.21256 -188.244,275.29279 -116.1621,-6.75936 -377.7387,-4.15852 l 18.0209,24.95314 c 36.0416,-9.24178 72.5437,6.46893 109.5086,47.1307 l -310.0073,-1.1189 c -139.32585,-0.50286 -240.77607,-15.05242 -302.6934,-14.13038 0,-22.18239 -5.54429,-30.0319 -16.63412,-23.56431 0.75477,97.53702 -156.12548,116.64387 -151.09588,-124.75788 0,-73.93128 21.25418,-127.07032 63.76472,-159.41506 42.50983,-32.34474 139.08181,-48.98037 289.71626,-49.90235 124.75792,5.54423 241.66142,3.69635 350.70932,-5.54538 27.2621,-2.31026 53.383,-3.4093 78.3634,-3.29377 z" /></svg>
