<?xml version="1.0" encoding="UTF-8" standalone="no"?>
<svg
   width="1800"
   height="1800"
   version="1.1"
   id="svg588"
   sodipodi:docname="US9E16VARA.svg"
   inkscape:version="1.2.2 (732a01da63, 2022-12-09)"
   xmlns:inkscape="http://www.inkscape.org/namespaces/inkscape"
   xmlns:sodipodi="http://sodipodi.sourceforge.net/DTD/sodipodi-0.dtd"
   xmlns="http://www.w3.org/2000/svg"
   xmlns:svg="http://www.w3.org/2000/svg">
  <defs
     id="defs592" />
  <sodipodi:namedview
     id="namedview590"
     pagecolor="#ffffff"
     bordercolor="#000000"
     borderopacity="0.25"
     inkscape:showpageshadow="2"
     inkscape:pageopacity="0.0"
     inkscape:pagecheckerboard="0"
     inkscape:deskcolor="#d1d1d1"
     showgrid="false"
     inkscape:zoom="0.40778792"
     inkscape:cx="915.91728"
     inkscape:cy="899.97762"
     inkscape:window-width="1920"
     inkscape:window-height="1137"
     inkscape:window-x="-8"
     inkscape:window-y="-8"
     inkscape:window-maximized="1"
     inkscape:current-layer="svg588" />
  <path
     id="path586"
     style="fill:#000000;stroke:none;stroke-width:100"
     d="m 486.81995,3.8162983 -29.29688,3.90625 V 105.3788 c 0,33.88137 -7.1499,54.87652 -21.48437,62.69531 -84.70345,0 -135.59841,8.4499 -152.53906,25.39063 -16.94072,16.94065 -40.6655,29.94057 -71.28907,39.0625 -30.62356,9.12192 -69.81852,19.19685 -117.382812,30.27344 -47.56422,11.07665 -65.43913,26.35152 -53.71094,45.89843 2.6062,10.42506 13.65615,22.77493 33.20313,37.10938 1.30313,37.79076 33.998162,51.96095 97.851562,42.1875 63.85341,-9.7735 108.05306,-8.1485 132.8125,4.8828 24.75951,13.03132 49.32959,21.15627 73.4375,24.41406 24.10791,3.2579 37.75783,24.38267 41.01563,63.47656 3.25786,39.09391 12.68279,71.26866 28.32031,96.6797 15.63758,25.41104 -5.81225,93.53079 -64.45312,204.29688 -39.34486,16.46991 -80.225,25.52463 -122.46094,27.53906 -12.84399,-17.38098 -42.57813,-33.59375 -42.57813,-33.59375 -5.09049,-6.95445 -4.79286,-19.48149 0.97657,-37.69531 5.76936,-18.21383 16.66672,-41.38261 32.61718,-69.53125 15.95047,-28.14859 23.82813,-63.15658 23.82813,-104.88282 0,-44.37557 -13.424,-74.02441 -40.23438,-89.25781 -26.81038,-15.23339 -47.56764,-22.85156 -62.5,-22.85156 -14.93235,0 -61.6456,1.5714 -77.256722,4.8828 -12.21738,3.9739 -19.74602,13.67287 -22.46094,28.90626 -6e-5,12.58417 43.940092,28.37632 69.053602,32.35045 -23.75605,23.18121 -35.54687,40.37547 -35.54687,66.8683 0,60.27126 2.578,119.64556 8.0078,177.92969 2.1458,15.78461 5.6545,28.99808 10.35156,40.03906 -16.61612,-0.53272 -29.518912,-0.38651 -37.109372,0.78125 -31.06964,20.04497 -50.0528,49.54099 -57.22656,88.08594 H 4.0074477 v 138.6719 c 228.0478423,0 367.8623223,41.4699 419.3359423,124.2187 51.47361,82.7488 77.14844,298.6127 77.14844,647.8516 h 553.12497 c 0,-349.2389 26.1951,-565.1028 78.3203,-647.8516 52.1252,-82.7488 191.4193,-124.2187 418.1641,-124.2187 V 928.42568 h 3.9062 c 125.4204,597.36682 93.7335,885.51612 182.3464,865.96932 76.8846,-14.3345 71.4832,-187.1352 32.0747,-506.3802 -32.6375,-264.3933 -60.5256,-493.8184 -128.2883,-594.15944 -67.7628,-100.34103 -131.9825,-154.81092 -192.5781,-163.28125 -60.5956,-8.47039 -140.7403,4.8545 -240.4297,40.03907 -99.6894,35.18449 -189.259,52.92968 -268.74996,52.92968 -79.49091,0 -147.93568,-30.42008 -205.27343,-91.01562 C 675.85489,472.02 621.1033,398.18634 569.04651,311.04286 c 5.04366,-34.40053 7.61719,-62.58355 7.61719,-84.375 C 575.36057,166.72386 545.46082,92.429148 486.81995,3.8162983 Z M 482.9137,62.410048 h 3.90625 c 36.48763,67.762802 54.6875,121.257672 54.6875,160.351562 v 11.71875 c 0,19.54698 -10.39989,44.24678 -31.25,74.21875 28.6689,59.94401 58.89361,112.78889 90.82031,158.39844 31.9267,45.60955 76.64663,92.73414 133.98438,141.60156 57.33767,48.86735 123.18248,73.4375 197.46092,73.4375 75.58154,0 165.15104,-17.22491 268.74994,-51.75781 103.5988,-34.53297 181.7935,-48.70309 234.5703,-42.1875 52.7769,6.5157 102.0467,47.33557 147.6563,122.26562 45.6095,74.93 66.9868,147.9896 98.7503,273.76104 32.1356,127.24504 39.1295,275.38044 60.1138,444.29384 19.5105,157.0501 10.5122,252.2064 1.3903,312.1505 -68.0708,-128.465 -71.2304,-543.8366 -145.8384,-834.33488 l -0.8744,-18.37793 c 0,-62.55028 -5.8993,-99.68155 -37.1745,-114.016 v 39.0625 c 24.7595,24.75951 20.2095,50.30454 -13.6719,76.36719 h -533.5936 c 24.7595,-23.45638 58.4294,-33.20628 100.7812,-29.29688 42.3517,3.9094 81.6764,5.8594 118.1641,5.8594 35.1845,0 82.8293,-0.65 142.7734,-1.9531 v -3.9063 c -61.2471,-9.12186 -100.7671,-29.46702 -118.3594,-60.74219 -17.5922,-31.2751 -8.1672,-72.22479 28.3203,-123.04687 -194.1663,93.8253 -331.51049,138.67495 -412.3046,134.76562 -80.79405,-3.90939 -151.51377,-7.48439 -212.10937,-10.74218 -60.59554,-3.25787 -112.4654,26.51222 -155.46876,89.0625 L 86.038698,891.3163 c -2.60627,-31.27517 32.688742,-43.30007 105.664062,-36.13281 72.97526,7.1672 149.86995,0.797 230.66407,-18.75 14.33438,-20.85005 34.48423,-65.6997 60.54687,-134.76563 26.06257,-69.06593 29.63757,-116.38583 10.74219,-141.79687 -18.89538,-25.41104 -30.92029,-55.96078 -36.13282,-91.79688 -5.21252,-35.83603 -12.03748,-58.91088 -20.50781,-69.33593 -8.47032,-10.42506 -25.69517,-16.275 -51.75781,-17.57813 -26.06257,-1.30313 -52.5827,-8.64837 -79.29688,-21.67969 -26.71417,-13.03125 -65.06382,-15.30626 -115.23437,-6.83594 -50.17048,8.47033 -77.3406,10.09535 -81.25,4.88282 -3.9094,-5.21246 -0.3344,-9.43745 10.74219,-12.69532 11.07659,-3.25779 31.09672,-5.85776 59.76562,-7.8125 28.66884,-1.95466 43.61875,-7.1546 44.92188,-15.625 1.30313,-8.47032 -13.97174,-9.12038 -45.89844,-1.95312 -31.9267,7.16719 -59.09682,11.39218 -81.250002,12.69531 -10.42506,-11.72819 -14.32502,-22.77807 -11.71875,-33.20312 58.640872,-15.63752 105.960782,-28.31242 141.796872,-38.08594 35.8361,-9.77346 58.91095,-21.14837 69.33594,-34.17969 10.42506,-13.03132 56.12001,-19.53125 136.91406,-19.53125 32.57831,0 48.82813,-33.99508 48.82813,-101.75781 36.48763,88.61284 35.18764,141.45772 -3.90625,158.39844 l 13.67188,21.48437 c 22.15317,-24.75944 33.20312,-44.2593 33.20312,-58.59375 0,-41.70016 -14.29991,-96.49501 -42.96875,-164.257812 z M 323.34339,240.33974 c -18.69178,1.3438 -28.125,9.753 -28.125,25.39062 3.9094,15.63752 20.80921,20.83746 50.78125,15.625 29.97197,-5.21253 51.61711,-13.01244 64.64843,-23.4375 -10.42505,-6.51566 -32.39516,-12.04063 -65.625,-16.60156 -8.30745,-1.14025 -15.44909,-1.42451 -21.67968,-0.97656 z M 155.56995,469.24599 c -6.7876,1.3246 -10.40551,5.2909 -10.74219,11.91406 -0.339,6.6233 4.3647,10.58973 13.86719,11.91406 25.11351,0 46.41516,6.3614 64.0625,18.94531 l 1.95312,-1.95312 c -15.61111,-15.23334 -33.54393,-22.85156 -53.90624,-22.85156 2.71492,-7.28553 2.11954,-13.01806 -1.95313,-16.99219 52.94201,15.23345 79.29687,46.33451 79.29687,93.35937 0,33.11615 -10.40423,69.63578 -31.44531,109.375 -21.04107,39.73928 -31.64062,72.92123 -31.64062,99.41407 0,20.63702 6.8347,32.48412 20.3125,35.74219 -17.82272,-1.68068 -29.88473,-2.34845 -43.94531,-3.32032 -2.00326,-2.5625 -4.02479,-5.26207 -5.85938,-8.20312 -14.2536,-22.85007 -21.48438,-90.21608 -21.48438,-202.14844 0,-38.41466 17.03936,-67.12088 50.97657,-86.32812 l -9.17969,-9.96094 h -15.23438 c -17.64733,0 -59.9028,-6.047 -63.975472,-17.96875 4.072502,-7.2855 44.643752,-10.9375 58.897352,-10.9375 z m 3.125,2.9297 c 4.0727,4.6363 4.0727,10.36899 0,16.99218 -3.3935,-5.9608 -3.3935,-11.69372 0,-16.99218 z M 1212.0152,756.35537 c -6.516,28.66884 -4.566,50.76867 5.859,66.40625 -27.3658,10.42506 -73.0607,12.70007 -136.9141,6.8359 -63.8534,-5.8641 -102.20299,10.90604 -115.23431,50 v 11.71878 h -393.9449 l 0.195,-0.195 c 33.47448,-31.51976 64.43063,-45.90106 92.77375,-42.96906 37.79076,3.90939 86.54037,7.35467 146.48437,9.96094 59.94401,2.60626 116.03884,-2.78906 168.16405,-15.82032 52.12514,-13.03132 129.66994,-41.63108 232.61714,-85.93749 z M 45.023068,932.33192 H 1509.0855 v 56.64063 c -213.7134,0 -349.7575,45.36995 -408.3984,135.93755 -58.6409,90.5675 -88.0859,302.5314 -88.0859,636.1328 H 541.50745 c 0,-333.6014 -29.24975,-545.5653 -87.89062,-636.1328 C 394.97595,1034.3425 258.73646,988.97255 45.023068,988.97255 Z"
     sodipodi:nodetypes="ccsccscccssssscccssssscccsccccccsccsccccsssssscccccsscsssssssscccccccssccscssccscssssssssccssccssscccscscscsscccccccsssccssccscccccccsccccsssccccsccscc" />
  <g
     id="g626"
     transform="matrix(0.58048402,0,0,0.56643895,-12.551282,-2.5828639)" />
</svg>
