<?xml version="1.0" encoding="UTF-8" standalone="no"?>
<svg
   width="20.85"
   height="16.08"
   version="1.1"
   id="svg11002"
   sodipodi:docname="US9E1VARA.svg"
   inkscape:version="1.2.1 (9c6d41e410, 2022-07-14)"
   xmlns:inkscape="http://www.inkscape.org/namespaces/inkscape"
   xmlns:sodipodi="http://sodipodi.sourceforge.net/DTD/sodipodi-0.dtd"
   xmlns="http://www.w3.org/2000/svg"
   xmlns:svg="http://www.w3.org/2000/svg">
  <defs
     id="defs11006" />
  <sodipodi:namedview
     id="namedview11004"
     pagecolor="#ffffff"
     bordercolor="#000000"
     borderopacity="0.25"
     inkscape:showpageshadow="2"
     inkscape:pageopacity="0.0"
     inkscape:pagecheckerboard="0"
     inkscape:deskcolor="#d1d1d1"
     showgrid="false"
     inkscape:zoom="36.593554"
     inkscape:cx="3.3202569"
     inkscape:cy="5.3561346"
     inkscape:window-width="1920"
     inkscape:window-height="1137"
     inkscape:window-x="-8"
     inkscape:window-y="-8"
     inkscape:window-maximized="1"
     inkscape:current-layer="svg11002" />
  <path
     style="fill:#000000;stroke:none"
     d="m 5.7458683,5.1530389 c 0.2348947,-0.2231493 0.352342,-0.446299 0.352342,-0.669449 0,-0.1644267 -0.176171,-0.293619 -0.528513,-0.387577 -0.8221307,0 -1.280175,0.088086 -1.374133,0.264257 -0.1879153,0.082213 -0.493278,0.4815337 -0.916088,1.197961 l -0.880855,1.180346 c -0.058723,0.2818733 0.064596,0.487406 0.369959,0.616598 0.904344,-0.3993207 1.51507,-0.598981 1.832178,-0.598981 0.8338753,0 1.49158,0.598981 1.973114,1.796943 0.2466393,0.5402587 0.5872363,1.0335377 1.021791,1.4798371 V 9.3987559 c 0,-1.2684293 0.4345547,-2.2138797 1.303664,-2.836351 -0.42281,1.0922607 -0.5960443,1.94669 -0.519703,2.563288 0.076341,0.616598 0.26132,1.0482161 0.554938,1.2948561 0.4462993,0.199661 1.2126417,0.258385 2.2990287,0.176172 1.086388,-0.08221 1.72354,-0.05579 1.911455,0.07927 0.187917,0.135065 0.560812,0.135065 1.118685,0 0.557876,-0.135062 1.195028,-0.202593 1.911455,-0.202593 -0.587237,-0.7046839 -0.939578,-1.6736248 -1.057025,-2.9068221 0.387577,0.6224713 0.704685,1.127494 0.951324,1.515068 0.246639,0.387578 0.563746,0.7252402 0.951321,1.0129861 0.387576,0.287745 0.76928,0.431618 1.145113,0.431618 0.598983,-0.9160899 0.907281,-1.8292428 0.924894,-2.7394581 0.01762,-0.9102167 -0.296551,-1.347708 -0.942512,-1.312474 L 12.898407,6.4214689 C 10.666908,6.3862349 8.875838,6.0456379 7.5251953,5.3996779 l -0.264257,-0.17617 -0.528513,0.193786 -0.387575,-0.158553 c 0.7281727,-0.5285133 1.1333657,-1.021792 1.215579,-1.479836 -0.5637467,0.281874 -0.84562,0.4756623 -0.84562,0.581365 -0.19966,0.4345547 -0.5226403,0.698811 -0.968941,0.792769 z m -1.902646,0.352342 v -0.035234 c 0.082213,-0.3993213 0.381704,-0.598982 0.898472,-0.598982 0.187916,0.023489 0.281874,0.058724 0.281874,0.105704 v 0.035233 c 0,0.19966 -0.270129,0.4169373 -0.810387,0.651832 -0.1879153,0 -0.311235,-0.052851 -0.369959,-0.158553 z m 15.8906137,1.550303 c -0.08221,1.0570253 -0.270127,2.1903918 -0.56374,3.4000991 0,0.739918 0.276,1.755837 0.827999,3.047758 -0.270129,0.317107 -0.346469,0.786896 -0.229021,1.409367 -0.223147,0.129192 -0.30536,0.276001 -0.246639,0.440427 l 0.17617,0.563748 c -0.03523,0.07047 -0.123317,0.135063 -0.264252,0.193786 H 18.27162 c 0.105704,-0.422809 0.22315,-0.710555 0.352339,-0.863237 l 0.211405,-0.581363 c 0.117449,-0.505024 0.176174,-0.904346 0.176174,-1.197965 -0.01175,-0.763405 -0.346472,-1.327151 -1.004175,-1.691238 -0.939577,1.045279 -1.409366,2.102304 -1.409366,3.171075 -0.258383,0.08221 -0.39932,0.276001 -0.422811,0.581365 0.117448,0.281873 0.07047,0.458044 -0.140937,0.528514 H 14.81867 c 0.105704,-0.375833 0.264258,-0.669451 0.475661,-0.880855 0.657705,-0.904345 0.986557,-2.002478 0.986557,-3.294397 0,-0.352343 -0.117447,-0.601919 -0.352342,-0.748727 -0.234893,-0.146809 -0.760469,-0.08221 -1.576728,0.193789 -0.816259,0.275999 -1.359453,0.322978 -1.629582,0.140937 -0.270127,-0.182044 -0.654767,-0.273066 -1.153918,-0.273066 -0.499151,0 -1.212644,0.111575 -2.1404777,0.334725 v 0.03523 c 0,0.293619 0.076341,1.268431 0.229024,2.924438 l 0.123319,0.651831 C 9.604012,15.271117 9.539416,15.423799 9.5863953,15.59997 l 0.105701,0.440428 h -1.409367 c 0.046979,-0.399322 0.170299,-0.675324 0.369959,-0.828005 0.164426,-0.42281 0.246639,-0.698811 0.246639,-0.828003 0,-0.587235 -0.135064,-1.327153 -0.405192,-2.219753 -0.2114047,-0.352341 -0.4991507,-0.528512 -0.863238,-0.528512 -0.7986413,2.020093 -1.197962,3.141714 -1.197962,3.364863 v 0.03524 c -0.2466393,0.08221 -0.369959,0.205532 -0.369959,0.369959 l 0.070469,0.475661 c 0,0.152681 -0.3171077,0.229021 -0.951323,0.229021 -0.387576,0 -0.581364,-0.07634 -0.581364,-0.229021 0,-0.375833 0.1585537,-0.669451 0.475661,-0.880856 1.0100467,-1.24494 1.4798357,-2.548604 1.409367,-3.910992 0,-1.021792 -0.311235,-2.0024774 -0.933705,-2.9420561 C 5.3641653,7.7251332 5.0176956,7.5137279 4.5126723,7.5137279 3.6670516,7.7603672 3.0387086,7.9424106 2.6276433,8.0598579 2.1226199,7.8719432 1.8701082,7.6253042 1.8701082,7.3199409 1.5060216,7.0733016 1.4766599,6.8237262 1.7820232,6.5712149 2.0873859,6.3187022 2.3516423,5.9516796 2.5747923,5.4701469 2.7979423,4.9886122 3.1900662,4.4253895 3.4484495,4.0495582 2.8421099,3.2445899 2.7965599,2.8131546 2.4021094,2.2716435 1.7365786,1.357987 0.27074767,2.8554599 0.05212058,2.5175883 c 0.023489,-0.1174474 0.058724,-0.176171 0.105703,-0.176171 C 0.31905037,1.9965222 1.5767085,1.0611844 2.6127863,1.7583793 3.1305775,2.10681 3.0711262,2.4981696 3.4732643,2.9861362 c 0.4815333,0.352342 0.8397473,0.528513 1.074642,0.528513 0.481534,-0.011745 0.8632377,-0.1409367 1.145111,-0.387576 0.7281733,-0.5520023 1.8239854,-1.3958468 1.0516015,-2.98345771 0.140936,-0.17617067 0.2525107,-0.182043 0.334724,-0.017617 C 7.413524,0.57200235 7.9526934,1.4141184 7.4124354,2.2479937 6.8721787,3.0818697 6.5738723,3.4324359 6.3272323,3.5851179 l 0.352342,0.264255 c 0.2818733,-0.2701287 0.7046837,-0.487406 1.268431,-0.651832 0.023489,0.2114053 0.023489,0.3905127 0,0.537322 -0.02349,0.1468087 -0.1468097,0.4198733 -0.369959,0.819194 1.3506433,0.798642 3.4294597,1.197963 6.2364497,1.197963 h 5.690321 c 0.270131,0.023489 0.59311,0.322979 0.968936,0.898471 0.105705,0.1996607 0.205538,0.4874063 0.299498,0.863237 0.07047,3.0301401 0.04698,4.8799351 -0.07047,5.5493861 -0.105699,0.223149 -0.23489,0.176169 -0.387575,-0.140938 -0.458045,-1.104004 -0.634214,-2.172774 -0.528509,-3.2063101 0.1057,-1.0335367 0.08808,-1.920264 -0.05286,-2.660182 z"
     id="path11000"
     sodipodi:nodetypes="cscccccsccscscscsccssccccccccccccccssccsccccccccccccccccssscscsccccccsccscccsscccccccscsccscccccccccscsccccccss" />
</svg>
