<?xml version="1.0" encoding="UTF-8" standalone="no"?>
<svg
   width="1797.7501"
   height="1798.463"
   version="1.1"
   id="svg1"
   xmlns="http://www.w3.org/2000/svg"
   xmlns:svg="http://www.w3.org/2000/svg">
  <defs
     id="defs1" />
  <path
     id="path1"
     style="fill:#000000;stroke:none;stroke-width:91.4195"
     d="M 904.03734,0 C 885.68443,70.671103 872.42957,112.70785 864.2727,126.11104 L 819.91984,25.587748 792.39048,27.415443 c -5.09809,45.083297 -12.74512,90.166207 -22.94116,135.249527 0,10.96623 -10.70574,16.44925 -32.11757,16.44925 -46.90199,0 -76.98222,21.32547 -90.23717,63.97178 -38.74511,15.84006 -58.11755,33.50767 -58.11755,53.00319 0,54.83103 6.6274,85.90171 19.88233,93.2125 -5.09802,63.3603 16.82339,90.77557 65.76458,82.24635 29.56863,24.36927 44.35489,73.11002 44.3549,146.21812 -25.49023,92.6035 -37.72745,168.14788 -36.70786,226.6343 -5.098,-3.65534 -21.47032,170.19254 -94.37236,190.29714 -72.90205,20.1047 -133.3134,36.2493 -181.23499,48.434 -67.24803,-69.0051 -105.28402,-55.4194 -99.41362,-40.2093 l -57.68347,-42.8927 c 21.09153,-32.32085 15.07225,-131.99301 4.4607,-190.97121 C 243.07407,748.18082 179.92105,654.2961 151.28061,617.5109 c -28.64054,-36.78502 -53.83444,-53.9672 -75.58,-51.54638 -22.6862,2.7354 -60.004254,63.01013 -68.600913,106.48298 -9.3832665,47.45068 -10.6194531,134.68065 3.355459,206.04378 4.753624,24.27446 20.314527,58.21844 24.472822,77.41668 -0.264154,-0.1952 -0.506224,-0.40649 -0.770791,-0.60118 -7.737015,6.6321 -13.418509,11.46152 -11.37929,16.33536 -7.137239,48.73866 1.786264,87.72936 26.766688,116.97256 24.980424,29.2432 61.431115,35.9448 109.352755,20.1046 38.74511,29.2433 67.29394,54.8309 85.6469,76.7633 18.35297,21.9324 55.31349,38.3839 110.88217,49.3502 55.56869,10.9662 116.87579,17.9431 381.90534,-134.5525 22.43141,43.8649 48.94094,77.3723 79.52926,100.5234 70.35297,253.4411 69.33339,402.7042 -3.05881,447.7879 -49.9609,-6.0922 -84.37235,8.5291 -103.2351,43.8647 -18.86282,35.3357 -23.19615,70.671 -12.99999,106.0062 h 76.47045 c 38.7451,0 77.99975,-0.609 117.7645,-1.8274 l 85.64689,-164.493 c 35.68625,17.0587 42.82355,-23.7598 21.4118,-122.4555 10.19625,-95.0401 17.33325,-167.5408 21.41175,-217.4982 95.8431,87.7301 180.9819,148.655 255.4132,182.772 12.2354,90.1667 32.6274,152.9172 61.1764,188.2527 -68.314,-3.6553 -131.0191,-9.1384 -188.1172,-16.4494 -69.3334,-7.3106 -97.8823,43.255 -85.647,151.6988 h 676.0008 c 20.3924,-369.1955 -42.3134,-614.717 -188.1173,-736.5638 41.8038,-21.9324 104.5095,-39.6025 188.1173,-53.0056 42.8235,-2.4369 62.1977,-21.93226 58.1195,-58.48626 0,-36.55404 -21.4115,-51.78474 -64.2351,-45.6924 -92.7845,13.40318 -180.9815,40.20929 -264.5898,80.41864 -73.4118,-74.32648 -157.0212,-137.0771 -250.825,-188.25272 -16.3138,-79.20039 -50.9802,-141.34415 -104,-186.42743 1.0197,2.43693 5.098,3.04619 12.2354,1.82769 l -45.8824,-49.34779 32.1176,5.4831 h 12.2352 l -39.7644,-47.5201 c 7.137,0 14.7841,-0.60921 22.941,-1.82771 -29.569,-30.46168 -46.9039,-49.34774 -52.0021,-56.65859 l 19.8845,1.82771 16.8236,-3.65538 -52,-47.52011 c 11.2155,-3.65543 25.9999,-3.04615 44.353,1.82769 -10.1961,-15.84007 -26.5116,-30.46159 -48.9434,-43.8647 l 27.5295,7.31079 -7.6472,-14.62157 -27.5292,-23.76005 c 4.0786,-2.43694 13.7668,-3.04615 29.0609,-1.8277 -17.3334,-29.24325 -42.3157,-56.04932 -74.9431,-80.41865 28.549,-30.46171 32.3726,-69.75936 11.47056,-117.88881 C 972.60576,91.689311 948.39026,45.083301 920.86082,0 Z m 9.17644,53.00319 h 3.05882 c 49.96083,97.4774 67.29403,153.22422 51.99989,167.23662 -15.29407,14.01235 -22.9411,29.54768 -22.9411,46.60626 4.07837,0 16.82345,10.96611 38.23521,32.89852 l -29.05878,-3.6554 42.82347,54.83089 -16.82351,-1.82768 27.52942,40.20929 h -16.82355 l -3.05883,16.44927 25.99998,23.76004 c -7.1373,0 -10.706,7.31076 -10.706,21.93237 l 22.9412,23.76005 c -8.1569,0 -12.2352,7.31072 -12.2352,21.93234 l 29.0588,27.41545 c -10.1962,0 -15.2942,5.48308 -15.2942,16.44928 14.2747,17.05855 23.9631,28.63391 29.0609,34.72621 l -13.7667,-3.6554 c -5.0981,0 -9.1769,5.48307 -12.2353,16.44928 78.5098,69.45267 130.5117,155.96555 156.0017,259.53528 96.8628,45.08328 176.3934,101.74155 238.59,169.97574 -45.8827,36.554 -85.3942,90.4732 -118.5313,161.7535 -33.1373,71.2802 -46.1372,151.3935 -38.9999,240.342 -63.2158,-26.8064 -144.2742,-90.7754 -243.1761,-191.908 11.2156,-86.5112 13.7627,-137.0772 7.645,-151.6988 -6.1178,-14.6216 -17.3333,-31.987 -33.64695,-52.0918 -16.31378,-20.1047 -28.29409,7.9222 -35.94116,84.0765 -7.64711,76.1541 -34.41158,90.1664 -80.29398,42.037 -45.88233,-48.1295 -75.45083,-104.1809 -88.70573,-168.15048 -13.25496,-63.96958 5.60771,-128.85239 56.58813,-194.64964 50.98042,-65.79725 93.29379,-98.6956 126.94094,-98.6956 33.64705,0 64.23705,16.44921 91.76645,49.34779 l 12.2355,-12.79387 c -26.51,-40.20949 -59.6489,-60.31397 -99.4137,-60.31397 -39.76476,0 -88.1958,29.54758 -145.29386,88.64326 -57.09817,59.09571 -84.62734,126.41556 -82.58811,201.96042 1.57543,58.36129 7.45916,102.37889 17.55373,132.37949 -62.97951,-150.10553 -68.40688,-305.71343 -16.02432,-466.84786 2.03922,-30.46174 0.25493,-60.01171 -5.35292,-88.64568 -5.60782,-28.634 -21.66655,-64.27386 -48.17639,-106.92025 -40.78431,8.52923 -60.15873,1.82778 -58.11956,-20.10465 17.33333,-7.31079 34.41159,-7.00623 51.2352,0.91386 16.82352,7.92 24.98241,4.56931 24.47255,-10.05233 -0.50977,-14.62163 -7.13922,-18.5816 -19.88434,-11.88004 -12.74512,6.70155 -31.35282,8.22461 -55.82341,4.56924 -12.23527,-10.96626 -18.86269,-35.33536 -19.88234,-73.10784 4.07846,-4.87386 6.11765,-3.04622 6.11765,5.4831 0,7.31081 7.64696,9.74773 22.94114,7.31076 0,-36.55401 -10.196,-50.5663 -30.58818,-42.03701 32.62745,-14.62158 53.01949,-28.02463 61.17636,-40.20931 9.17651,-23.15094 47.92335,-33.50777 116.23712,-31.07081 49.96084,-1.21846 87.68604,-55.44225 113.17626,-162.66739 z m -96.35277,31.070833 h 6.11765 l 27.52935,69.452447 c 1.01964,14.62162 -17.33316,23.1508 -55.05872,25.58775 z m 107.05863,23.760047 c -14.2745,15.84005 -18.86282,56.66082 -13.76468,122.45806 h 15.29411 c -2.03923,-53.61255 1.52939,-87.73177 10.70585,-102.35339 z M 747.57106,244.4992 c -2.6844,0.19991 -5.33247,0.64297 -7.94521,1.32836 -20.90199,5.48314 -28.80385,24.06463 -23.70584,55.74472 -23.45097,15.84013 -21.92161,20.71397 4.58823,14.62157 41.80397,-7.31079 71.37239,-20.71388 88.70572,-40.20931 -22.30391,-22.38942 -42.8518,-32.88466 -61.6429,-31.48534 z M 81.68236,610.96366 c 11.58617,0.24583 27.00579,13.06009 46.2575,38.43979 20.53527,27.07148 80.16168,110.77035 92.17061,160.993 12.00894,50.22264 20.17924,141.24283 1.89021,164.93017 -18.28916,23.68752 -38.47536,37.10058 -60.55973,40.24078 -22.08436,3.1402 -44.18492,-4.6226 -66.302125,-23.28731 C 73.021703,973.61515 60.202048,924.37525 47.051441,873.98505 32.712547,819.04161 27.485369,735.31409 37.961712,700.30894 48.754095,664.24779 69.48448,611.9784 79.41664,611.08243 c 0.73833,-0.0952 1.4933,-0.13515 2.26572,-0.11867 z M 1505.099,1094.7972 c 112.1571,101.133 173.843,244.304 185.0586,429.5111 -35.6863,-52.3941 -73.1567,-127.3317 -112.4115,-224.809 -39.255,-97.4777 -82.3329,-145.6066 -129.2353,-144.3881 14.2746,-23.1508 33.1372,-43.2553 56.5882,-60.314 z m -79.529,107.8342 c 33.6469,0 73.6663,50.2614 120.0586,150.785 46.392,100.5233 80.2937,162.667 101.7055,186.4271 21.4119,23.7604 37.4705,66.4065 48.1764,127.9388 10.7059,61.5328 -12.4899,92.2986 -69.5881,92.2986 -85.647,-7.3107 -147.5877,-39.9045 -185.8232,-97.7815 -38.2353,-57.8774 -57.3549,-148.9594 -57.3549,-273.243 0,-124.2837 14.2765,-186.425 42.8257,-186.425 z" />
</svg>
