<?xml version="1.0" encoding="UTF-8" standalone="no"?>
<svg
   width="1796.553"
   height="1795.3616"
   version="1.1"
   id="svg1"
   xmlns="http://www.w3.org/2000/svg"
   xmlns:svg="http://www.w3.org/2000/svg">
  <defs
     id="defs1" />
  <path
     id="path1"
     style="fill:#000000;stroke:none;stroke-width:116.471"
     d="M 280.8497,0.01001799 C 252.44685,-0.14269991 221.86777,5.8803348 189.16746,18.099862 131.03322,39.823445 90.288015,45.60472 66.925753,35.467049 43.563361,25.329398 26.985013,19.30818 17.205407,17.377205 3.0793057,13.515263 -2.34184,19.296508 0.91787017,34.744393 18.303919,80.122506 52.542236,103.79969 103.61337,105.73072 c 51.07101,1.931 92.62987,-2.16508 124.68521,-12.302734 32.05535,-10.137666 70.36175,-8.932243 114.91309,3.619141 44.55147,12.551403 87.7374,15.200193 129.57225,7.958983 39.75684,-6.881513 72.88945,-0.44966 99.39811,19.26367 l -27.24464,38.99219 c -34.66006,4.03413 -90.52109,34.18202 -167.83983,90.66015 -70.65336,41.68625 -105.70296,75.06798 -105.0364,99.94532 0.66657,24.87724 4.99549,37.55813 12.99403,38.23046 7.99851,0.67204 24.663,27.29234 49.99141,79.73633 1.33314,37.6521 16.6924,59.90724 46.02022,66.63086 21.32938,4.03416 44.04341,-2.72564 68.039,-20.20703 7.99851,9.41301 23.42104,65.65533 16.79869,90.75 l 17.5151,50.15234 c 10.43361,29.00604 14.92188,18.94166 40.40517,95.51172 33.39913,100.35516 53.59447,156.22806 60.70069,167.69727 0,73.11591 -3.11708,174.15531 -9.51268,303.18361 -6.39562,129.028 -14.09143,223.7772 -23.32959,283.9902 -9.23815,60.2132 -18.8159,101.5791 -28.76457,124.5176 -9.94878,22.9377 -40.56596,34.5 -91.73065,34.5 -42.63727,-10e-5 -71.7947,40.1201 -87.42836,120.4043 h 289.91501 c 32.68843,2.8671 47.26723,-28.2142 43.71418,-93.4453 -3.55308,-65.2306 9.98597,-141.28 40.54264,-228.0156 30.55677,-86.7356 64.90866,-168.0248 103.28218,-244.0078 v -4.3418 c 99.48687,8.6015 214.65107,59.4321 345.40537,152.6191 0,106.0896 44.1563,197.2709 132.2732,273.2539 2.8423,18.6369 -15.2735,26.8258 -54.3576,24.6758 -39.084,-2.1501 -100.7408,-8.2437 -184.594,-18.2793 -83.85317,-10.0355 -131.32411,-12.1303 -142.69403,-6.3965 -34.10986,20.071 -51.18607,58.7168 -51.18607,116.0625 -1e-5,22.9379 17.69578,34.2715 53.22685,34.2715 h 599.07995 l 4.3023,-23.5332 c 22.7399,12.9031 68.1317,19.4199 136.351,19.4199 22.7401,0 43.3554,-11.5596 61.8315,-34.498 18.4761,-22.9382 86.2625,-81.7139 74.293,-166.0996 -4.3244,-30.4869 -26.9078,-190.0867 -43.2612,-249.9473 -32.3145,-118.287 -118.0422,-248.1215 -215.3973,-342.02542 -97.355,-93.90377 -193.9812,-163.85967 -289.915,-209.73633 L 1069.6624,663.68775 C 1017.9863,488.12381 961.45555,353.54073 899.92896,260.11158 850.09655,184.44028 789.25174,139.20178 717.44933,124.344 l 11.91747,-6.27735 c 28.12301,-13.3653 59.94622,-17.23632 95.48305,-11.61328 39.66153,6.27568 81.76199,3.14515 126.31359,-9.406243 44.55133,-12.551375 82.85786,-13.756836 114.91316,-3.619141 32.0551,10.137684 73.614,14.233704 124.6852,12.302734 51.0711,-1.93101 85.8533,-25.608234 104.3257,-70.986327 2.1733,-15.447865 -4.3335,-21.229159 -19.5462,-17.367188 -8.6929,1.930995 -24.9995,7.952154 -48.9051,18.089844 -23.9057,10.137701 -64.6508,4.356387 -122.2418,-17.367187 -57.5908,-21.7235749 -108.67973,-23.8905879 -153.23096,-6.511719 -44.55148,17.378888 -89.09278,17.37885 -133.64414,0 C 772.96795,-5.7906968 716.45975,3.8799073 648.00271,40.568612 578.45911,3.8799173 521.40715,-5.7907259 476.8558,11.588143 c -44.55122,17.378888 -89.09266,17.37885 -133.64413,0 C 323.72046,3.9849165 302.94065,0.12880779 280.8497,0.01001799 Z M 652.49863,177.82642 c 14.99716,-0.33619 31.87044,0.76951 50.53356,3.45898 -27.99477,5.37888 -47.4493,13.45515 -58.11389,24.21289 -15.99706,-8.06831 -26.61161,-15.30573 -31.94387,-22.02929 11.33117,-3.36183 24.52697,-5.3064 39.5242,-5.64258 z m 70.56769,11.65039 c 43.99171,13.44716 90.5432,54.0644 139.86717,121.97266 47.02917,64.74857 95.72389,165.24942 148.80871,338.20898 7.2052,61.19899 117.0631,137.86767 193.154,175.83789 79.5896,38.70845 171.4413,104.67101 275.192,197.85746 103.7506,93.1869 261.3981,305.0433 255.7135,570.2676 0,0 0.037,61.2851 -20.8377,88.4199 -14.0491,18.2629 -44.3874,53.3147 -60.0211,61.916 -56.8497,2.867 -99.5464,-1.982 -127.971,-14.168 -28.4247,-12.1856 -46.345,-6.0945 -53.4514,18.2774 H 989.72532 c 0,-8.6013 11.23518,-22.8803 33.97498,-42.9512 -42.63726,0 -63.87225,14.2782 -63.87225,42.9512 h -10.64537 c 0,-28.673 7.07838,-49.4682 21.29075,-62.3711 -32.68852,0 -48.92263,20.7953 -48.92263,62.3711 h -17.21499 c 4.2637,-51.6114 17.80481,-77.4512 40.54458,-77.4512 l 238.72511,25.8184 162.1724,-6.3985 12.6823,-38.6113 c -105.172,-108.957 -157.6417,-206.4244 -157.6417,-292.4434 0,-87.4523 17.6957,-153.4144 53.2268,-197.8574 l -31.936,-32.2148 c -42.6374,65.9478 -64.0969,120.9708 -64.0969,165.414 -119.3843,-84.5852 -221.62707,-126.18 -306.90151,-124.746 l 42.57955,-88.1895 -36.23841,-25.5898 c -49.74353,86.0187 -93.67129,170.0282 -132.04481,252.4628 -38.3735,82.4348 -68.37701,207.0194 -89.69568,373.3223 0,53.0449 -50.39048,75.086 -151.29865,66.4844 l 23.55613,-23.5313 v -13.0234 c -29.84605,8.6014 -44.84687,20.7846 -44.84687,36.5547 h -21.29074 c 9.94869,-20.071 22.02978,-31.4024 36.24228,-34.2695 v -8.6817 c -28.42484,0 -51.96567,14.2782 -70.44184,42.9512 h -6.34114 c 5.68495,-43.0096 33.37876,-62.3322 83.12218,-58.0313 44.05851,4.3012 72.79381,-7.0303 86.29567,-34.2695 13.50174,-27.2392 26.42324,-101.191 38.50379,-221.6172 12.08056,-120.4264 23.73772,-289.5254 35.10766,-507.43947 -1.42128,-21.5048 17.73631,-80.32655 57.53108,-176.38086 L 665.61075,718.11548 C 634.34355,796.96623 617.26529,844.22625 614.42273,859.99634 610.15902,849.96078 593.92488,800.605 565.50011,711.719 548.82599,659.57809 505.90431,607.47405 519.35597,596.59009 c 22.93907,-18.56035 72.89167,-39.26419 95.60504,-56.12109 83.39553,-61.89267 116.03795,-123.11862 92.04237,-191.69922 38.6595,-16.13664 57.93189,-44.96805 57.93189,-86.6543 1.33305,-28.23903 -12.54123,-52.46789 -41.86895,-72.63867 z m -149.97426,10.01172 c 11.9976,0 29.31168,8.73545 51.97411,26.2168 -37.32643,38.9968 -56.12732,76.74538 -56.12732,113.05273 3.9992,32.27325 13.31264,49.08299 27.97653,50.42773 17.33019,-1.34474 31.38433,-12.23554 42.04902,-32.40624 27.99488,-77.9937 47.03148,-114.48192 57.02961,-109.7754 9.99824,4.70648 3.06108,17.80672 -20.93448,39.32227 l 13.89436,18.02539 c 22.66243,-17.48134 34.11243,-34.29304 34.11243,-50.42969 0,-20.17073 -10.14498,-30.21875 -30.14123,-30.21875 -25.32851,0 -45.25262,23.56964 -59.91652,70.63477 -14.66391,47.06506 -25.27838,66.92522 -31.94386,59.5293 -6.66549,-7.39604 -6.66549,-23.31072 0,-47.51563 6.66548,-24.20493 22.67798,-48.01234 48.00679,-71.54492 25.3285,-23.53256 46.31998,-31.6069 62.98351,-24.21094 16.6635,7.39592 24.25406,24.62519 22.92104,51.51953 -1.33315,34.96268 -28.61202,57.03425 -81.93528,66.44727 17.32996,60.51235 5.23051,110.70389 -36.09514,150.37304 -41.32543,39.66923 -81.35566,64.13382 -120.01504,73.54688 -11.99772,-55.13347 -29.31362,-82.65038 -51.97604,-82.65039 -5.33235,1.34469 -13.3387,6.36869 -24.0034,15.10937 -10.66469,8.74066 -19.97415,12.03078 -27.97266,10.01368 -7.99842,-2.01701 -11.91167,-10.33117 -11.91167,-25.12305 0,-4.03417 24.01926,-10.79395 72.0102,-20.20703 l -6.13591,-14.01758 -77.96602,6.00781 c -1.33314,-13.44718 -10.64442,-30.91422 -27.97459,-52.42969 1.33312,-5.37886 11.29794,-14.77155 29.96116,-28.21874 l -25.98996,-18.20313 4.15127,-14.20117 c 0,-5.37889 33.98029,-28.10968 101.96747,-68.45117 l 3.9712,28.21875 c -35.99318,26.89434 -52.65757,46.99223 -49.99141,60.43945 2.66618,16.13659 8.716,29.00106 18.04755,38.41406 9.33157,9.41308 24.51077,18.14659 45.84016,26.21485 -42.65878,-52.44394 -29.90751,-92.82536 38.07976,-121.06446 25.32861,-2.68943 37.89969,-12.7374 37.89969,-30.21875 -1.33303,-20.17078 -15.85891,-32.37605 -43.85358,-36.41015 35.99318,-8.06834 60.01051,-16.8038 72.00825,-26.2168 z m -94.02702,44.42187 41.86896,14.19922 -41.86896,20.02539 c -9.33156,-10.75776 -9.33156,-22.12217 0,-34.22461 z" />
</svg>
