<?xml version="1.0" encoding="UTF-8" standalone="no"?>
<svg
   width="1800"
   height="1077.5813"
   version="1.1"
   id="svg1"
   xml:space="preserve"
   xmlns="http://www.w3.org/2000/svg"
   xmlns:svg="http://www.w3.org/2000/svg"><defs
     id="defs1" /><path
     id="path1"
     style="fill:#000000;stroke:none;stroke-width:99.6098"
     d="m 430.13301,219.39183 c -9.6039,43.90374 -27.43993,85.06469 -53.50782,123.48046 -26.06781,38.41584 -19.89429,56.93837 18.52149,55.56641 -8.23196,13.71992 -6.8607,21.26658 4.11523,22.63867 -9.60397,6.85993 -10.63189,13.37677 -3.08593,19.55078 7.54591,6.17408 10.63159,18.17983 9.25976,36.01563 -4.56971,27.0374 -7.39406,44.26534 -14.70558,71.99082 -4.97584,18.57009 45.69919,27.43892 48.08679,20.74642 11.37101,-29.52283 17.99644,-40.15516 28.35903,-72.15716 l 32.92773,-10.29102 c 16.46397,52.13582 45.27775,97.41234 86.4375,135.82813 -60.36778,87.80741 -87.80841,159.15319 -82.32031,214.0332 5.48785,54.87974 -15.09245,97.7552 -61.74024,128.625 -46.64772,30.8698 -161.88375,38.63063 -253.8073,29.02669 C 135.88098,979.7813 94.925018,973.51444 65.056175,975.11187 62.853597,879.65059 70.671879,836.58655 92.536643,806.0357 115.91976,773.36394 202.53023,725.76919 269.79575,714.87827 227.51463,450.30181 151.48494,183.1305 159.81275,174.16216 195.0471,150.45923 229.8563,120.46705 229.8563,80.748548 h -0.002 c 0,-54.453092 -28.50776,-81.36123544 -85.52344,-80.72070844 C 105.25363,-0.61268744 75.62371,9.7996676 55.444194,31.260266 35.264678,52.721266 21.008818,85.553158 12.680522,129.75636 l 1.914715,865.29887 c -0.623396,0.82867 -1.328775,1.59926 -1.880859,2.47852 -18.5219195,29.49795 -16.8073266,55.22375 5.144531,77.17575 l 622.190111,2.8718 c 89.17958,-4.116 124.50824,-19.5526 105.98633,-46.3067 -18.52191,-26.7538 4.80297,-35.67181 69.97266,-26.7539 65.16984,8.918 104.97285,0.5592 211.30199,-19.33461 106.3294,-19.89406 175.6181,-38.4165 207.8594,-55.5664 32.242,-17.14987 68.6007,-20.92422 109.0742,-11.32032 40.4743,9.60398 64.8269,26.75531 73.0586,51.45117 -26.0675,48.01986 -80.2626,61.05356 -162.582,39.10156 -82.3193,-21.95186 -136.5146,-22.97993 -162.582,-3.0859 -26.0681,19.8938 -27.4411,42.8752 -4.1172,68.9433 h 668.8515 c 45.2761,-39.7878 54.8808,-86.78068 28.8125,-140.97458 -26.0671,-54.19363 -69.9713,-105.64375 -131.7109,-154.34961 -61.7394,-48.70579 -129.6565,-92.95438 -203.7441,-132.74219 43.9031,-38.41564 84.3781,-33.27019 121.4218,15.43555 37.0442,48.70559 64.4862,55.90913 82.3223,21.60937 -52.1356,-93.29538 -106.6751,-136.85747 -163.6133,-130.68359 -56.9372,6.17407 -108.7309,38.07361 -155.3789,95.69727 C 1155.2509,693.97728 1069.828,683.81528 986.82246,612.4719 903.8167,541.12825 849.9656,493.1072 825.26973,468.41136 866.42944,361.39585 872.25963,280.44552 842.76191,225.56565 813.26394,170.68604 774.16114,133.29936 725.45527,113.40549 676.74961,93.511561 625.29929,85.964867 571.10566,90.766823 516.91188,95.568779 474.72308,128.15488 444.53926,188.52268 Z m 167.85547,-87.91407 c 31.64153,-0.90037 65.21266,6.10885 100.71289,21.0293 47.33371,19.89393 80.26317,51.45021 98.78515,94.66797 18.5219,43.21783 24.35218,82.66414 17.49219,118.33594 -4.11594,20.57991 -17.49288,46.99052 -40.13086,79.23242 -22.63791,32.24182 -41.50381,44.93408 -56.5957,38.07422 -15.09193,-6.85999 -28.46889,-19.20899 -40.13086,-37.04492 -11.66198,-17.83606 -11.66198,-34.3007 0,-49.39258 11.66197,-15.09188 23.66786,-33.61259 36.01562,-55.56446 12.34803,-21.95187 13.71915,-43.90549 4.11524,-65.85742 -9.60398,-21.95194 -24.69561,-34.6423 -45.27539,-38.07226 -20.57998,-3.42997 -41.1604,3.08681 -61.74024,19.55078 -32.92769,-19.20795 -74.08863,-35.67266 -123.48047,-49.39258 12.34796,-39.7878 38.76053,-63.79734 79.23438,-72.0293 10.11846,-2.05799 20.45086,-3.23699 30.99805,-3.53711 z M 145.29575,37.506356 c 33.95274,0 50.92969,13.45332 50.92969,40.359382 0,26.906012 -33.8485,50.171532 -67.16073,73.233922 -28.32156,16.31572 -8.65047,28.82795 -2.88477,78.79688 l 92.73495,439.8665 C 172.79072,683.21617 97.877186,719.59531 49.19094,754.82867 L 46.319194,134.56105 C 62.975339,69.858058 95.967878,37.506356 145.29575,37.506356 Z M 456.88691,239.9719 c 49.39171,8.23208 100.84195,26.75454 154.34961,55.56641 l 16.46485,-4.11523 c 16.46372,-15.09195 31.89872,-15.77852 46.30468,-2.0586 14.4059,13.71998 10.97488,32.92928 -10.29101,57.625 -21.26588,24.69592 -32.58514,49.39197 -33.95703,74.08789 -1.37195,24.69585 6.86153,47.6774 24.69726,68.94336 17.83585,21.26589 31.55618,28.46742 41.16016,21.60742 -32.92787,23.32397 -58.99732,46.64877 -78.20508,69.97266 -37.04376,-34.29983 -61.05324,-73.4027 -72.0293,-117.30664 38.4159,-21.95194 59.68081,-65.17071 63.79688,-129.6543 h -8.23047 c -8.23202,57.62372 -28.81249,95.35548 -61.74023,113.19141 -32.92793,17.83586 -59.68377,27.44054 -80.26368,28.8125 -23.32384,4.11606 -33.95643,-0.002 -31.89843,-12.34961 2.05787,-12.3479 0.34343,-22.63712 -5.14454,-30.86914 43.90387,2.74405 56.25092,-3.08818 37.04297,-17.49414 -19.20796,-14.40597 -32.24164,-18.17835 -39.10156,-11.31836 5.4881,-20.57984 -4.80119,-31.55565 -30.86914,-32.92774 28.81186,-49.39171 51.45003,-93.29699 67.91406,-131.71289 z m 23.41016,23.41016 c -8.06046,0.17149 -15.17951,1.97241 -21.35352,5.40234 -12.34777,6.86007 -18.52148,13.72016 -18.52148,20.58008 31.55577,-9.60398 56.93852,-10.63379 76.14648,-3.08789 19.20781,7.54597 43.904,12.6915 74.08789,15.43555 l -10.28906,-10.28906 c -28.81186,-9.60398 -53.16661,-17.49409 -73.06054,-23.66797 -9.94702,-3.08701 -18.94932,-4.54454 -27.00977,-4.37305 z m 1.28516,29.58399 c -17.14996,-0.343 -29.49702,6.00323 -37.04297,19.0371 l -16.46485,12.34766 v 10.28906 l 16.46485,2.0586 c 23.32384,15.09187 58.30917,11.6628 104.95703,-10.28907 l 41.16015,6.17383 4.11719,-16.46484 -47.33594,-2.0586 C 520.68383,300.3399 498.73213,293.309 481.58223,292.96605 Z m 20.58007,12.86328 32.92774,14.40625 c -12.34788,5.4879 -24.01032,8.91703 -34.98633,10.28906 8.23189,-6.85994 8.91858,-15.09134 2.05859,-24.69531 z m -30.86914,2.05664 c -4.11595,8.23195 -2.74474,16.4653 4.11524,24.69726 -9.60397,-2.74399 -17.83532,-4.80188 -24.69532,-6.17383 2.74398,-8.23196 9.60407,-14.40749 20.58008,-18.52343 z m 327.22266,201.68554 c 21.95199,34.2999 71.68749,80.94781 149.20508,139.94336 77.5177,58.99569 155.3941,79.44894 325.5208,67.10091 15.092,1.37209 22.6387,39.10176 22.6387,113.18945 -135.8272,60.36771 -242.8453,93.29713 -321.04884,98.78516 -78.20363,5.48797 -113.54733,7.32976 -197.92512,-0.21614 -84.37746,-7.54597 -127.93949,10.63337 -130.68359,54.53711 -61.73961,-50.76366 -89.86694,-105.9861 -84.37891,-165.66797 5.48791,-59.68173 28.81291,-114.21969 69.97266,-163.61133 27.4399,-34.29984 83.00767,-82.32082 166.69922,-144.06055 z m 618.78638,204.98568 c 61.7398,10.976 117.9936,38.75983 168.7578,83.34961 50.7637,44.58973 87.1203,99.81404 109.0723,165.66992 4.1163,6.86006 -10.9753,10.28906 -45.2754,10.28906 -144.0592,-60.36785 -235.2994,-121.42231 -273.7148,-183.16211 -17.8361,-53.50778 -4.1154,-78.89039 41.1601,-76.14648 z" /></svg>
