<?xml version="1.0" encoding="UTF-8" standalone="no"?>
<!-- Generator: Adobe Illustrator 25.2.3, SVG Export Plug-In . SVG Version: 6.00 Build 0)  -->

<svg
   version="1.1"
   id="Ebene_1"
   x="0px"
   y="0px"
   viewBox="0 0 1800 1440"
   xml:space="preserve"
   sodipodi:docname="US9E6VARA.svg"
   width="1800"
   height="1440"
   inkscape:version="1.2.1 (9c6d41e410, 2022-07-14)"
   xmlns:inkscape="http://www.inkscape.org/namespaces/inkscape"
   xmlns:sodipodi="http://sodipodi.sourceforge.net/DTD/sodipodi-0.dtd"
   xmlns="http://www.w3.org/2000/svg"
   xmlns:svg="http://www.w3.org/2000/svg"><defs
   id="defs723" /><sodipodi:namedview
   id="namedview721"
   pagecolor="#ffffff"
   bordercolor="#000000"
   borderopacity="0.25"
   inkscape:showpageshadow="2"
   inkscape:pageopacity="0.0"
   inkscape:pagecheckerboard="0"
   inkscape:deskcolor="#d1d1d1"
   showgrid="false"
   inkscape:zoom="0.32153204"
   inkscape:cx="975.01948"
   inkscape:cy="898.82178"
   inkscape:window-width="1920"
   inkscape:window-height="1137"
   inkscape:window-x="-8"
   inkscape:window-y="-8"
   inkscape:window-maximized="1"
   inkscape:current-layer="Ebene_1" />

<path
   d="m 1151.7618,944.50823 c -3.2537,-39.0438 -17.3527,-56.9339 -42.2974,-53.68025 -24.7954,3.23375 -53.332,6.4675 -85.6297,9.70125 -0.3781,0.0398 -0.7562,0.199 -1.0447,0.4577 -7.0645,6.3083 -6.4377,12.0992 1.8805,17.38265 0.1294,0.0796 0.2587,0.14925 0.398,0.199 8.8257,3.1243 37.4717,2.07955 85.9481,-3.1442 0.9552,-0.0995 1.8308,0.5572 2,1.4925 5.4227,29.2132 13.4524,43.03375 24.0989,41.4318 10.8553,-1.64175 15.7308,-6.2486 14.6463,-13.84045 z m -601.43765,-752.38915 -37.8299,26.79535 c -0.0398,0.0299 -0.0696,0.0497 -0.10945,0.0796 -61.77955,50.944 -92.94295,75.33145 -93.4902,73.16235 -0.5373,-2.1691 14.91505,-15.9996 46.367,-41.48155 31.45195,-25.48195 45.28245,-42.0288 41.48155,-49.62065 -3.79095,-7.59185 0.8159,-16.26825 13.8305,-26.0292 12.72605,-9.552 22.8651,-4.56705 30.4072,14.93495 0.2985,0.78605 0.0199,1.68155 -0.6567,2.15915 z m -159.7771,128.3749 c -0.9552,0.52735 -2.1691,0.1393 -2.59695,-0.86565 -2.3283,-5.5521 -1.78105,-9.552 1.6517,-11.9997 3.79095,-2.7064 4.60685,-6.23865 2.43775,-10.57685 -2.1691,-4.3382 -1.3532,-7.59185 2.43775,-9.76095 3.79095,-2.1691 7.8605,0.8159 12.1987,8.94505 4.1989,7.83065 -1.18405,15.92 -16.12895,24.2581 z m 156.7125,-185.95555 c 0.5373,0.8159 0.3383,1.9104 -0.44775,2.4875 -48.0386,35.35235 -81.192,65.9088 -99.45025,91.68925 -18.43735,26.0292 -35.5215,43.9193 -51.2425,53.68025 -15.721,9.76095 -21.691,20.8751 -17.8901,33.3524 3.77105,12.38775 6.73615,21.84025 8.90525,28.34755 0.0298,0.0895 0.0497,0.16915 0.0597,0.2587 1.14425,7.4625 7.6416,8.22865 19.502,2.29845 11.93005,-5.96005 21.691,-13.28325 29.28285,-21.95965 7.59185,-8.6764 13.8305,-7.59185 18.706,3.25365 4.8755,10.8455 3.5223,17.08415 -4.06955,18.706 -7.1839,1.54225 -15.8205,7.69135 -25.9098,18.4473 -0.8756,0.92535 -0.5572,2.4477 0.6169,2.95515 17.44235,7.43265 32.6559,5.18395 45.62075,-6.75605 13.5519,-12.46735 27.3824,-24.94465 41.48155,-37.412 14.09915,-12.46735 35.79015,-24.676 65.073,-36.60605 29.28285,-11.93005 43.9193,-23.59145 43.9193,-34.97425 0,-10.73605 -0.96515,-18.8254 -2.89545,-24.2581 -0.20895,-0.597 -0.1194,-1.26365 0.26865,-1.76115 l 9.2336,-11.87035 c 0.7562,-0.9751 2.25865,-0.9353 2.95515,0.0896 14.1887,20.7557 20.48705,37.6906 18.91495,50.81465 -1.6119,13.40265 -8.78585,24.4173 -21.52185,33.0539 -0.28855,0.18905 -0.5174,0.46765 -0.64675,0.78605 -23.8402,56.22745 -56.5757,110.83305 -98.21645,163.8168 -41.68055,53.04345 -47.4217,145.51875 -17.2533,277.43585 0.10945,0.4776 0.01,0.9751 -0.24875,1.38305 -6.0695,9.62165 -5.38295,20.7955 2.03975,33.52155 7.59185,13.0146 22.5069,15.45235 44.7352,7.3232 22.03925,-8.06945 38.4866,0.66665 49.34205,26.17845 0.1791,0.4179 0.50745,0.76615 0.92535,0.9552 92.9728,42.11835 169.21965,66.41625 228.7306,72.9136 59.6204,6.5073 120.8726,4.88545 183.74665,-4.86555 0.05,-0.01 0.1095,-0.0199 0.1592,-0.0299 74.7842,-18.41745 118.9522,-20.8552 132.5041,-7.3033 13.4424,13.44245 22.3477,22.3477 26.7257,26.7257 0.08,0.0796 0.1592,0.1393 0.2487,0.20895 143.0711,99.68906 212.9698,116.19617 209.7261,49.52115 -3.2536,-66.67495 -28.7157,-136.32495 -76.406,-208.95995 -0.04,-0.0597 -0.08,-0.10945 -0.1194,-0.1592 l -14.3778,-17.5717 c -0.1393,-0.16915 -0.2985,-0.30845 -0.4776,-0.4179 -73.6598,-44.3372 -149.4888,-60.2771 -227.4768,-47.8197 -78.0876,12.46735 -143.1606,15.9996 -195.219,10.57685 -52.0584,-5.42275 -91.1022,-32.80515 -117.1314,-82.15715 -26.0292,-49.34205 -28.7356,-104.1168 -8.12915,-164.30435 20.60645,-60.18755 29.28285,-113.3305 26.0292,-159.42885 -3.25365,-46.0884 -26.0292,-82.9631 -68.32665,-110.6241 -41.2925,-27.0043 -68.1177,-40.30745 -80.46565,-39.90945 -0.5572,0.0199 -1.0547,0.3184 -1.38305,0.76615 l -6.8456,9.5918 c -0.46765,0.64675 -0.4577,1.52235 0.0299,2.15915 l 8.00975,10.67635 c 0.54725,0.72635 0.4776,1.7512 -0.16915,2.388 l -8.90525,8.90525 c -0.7363,0.7363 -1.94025,0.70645 -2.6467,-0.0597 L 602.89,145.21478 c -0.56715,-0.6169 -0.6368,-1.5522 -0.16915,-2.23875 2.97505,-4.34815 5.96005,-10.746 8.9351,-19.1836 3.25365,-9.2137 0,-20.60645 -9.76095,-34.158346 -8.6565,-12.0196 -17.7309,-21.2731 -27.2431,-27.75055 -1.36315,-0.92535 -3.15415,0.22885 -2.83575,1.84075 3.87055,19.75075 7.3033,39.949246 10.27835,60.585546 0.14925,1.0348 -0.60695,1.99995 -1.6517,2.0895 l -14.2882,1.2935 c -0.9552,0.0896 -1.80095,-0.5771 -1.96015,-1.52235 -5.3929,-31.979296 -21.89995,-61.650196 -49.5112,-89.002746 -1.3731,-1.3532 -3.63175,0.0796 -3.0049,1.9104 9.0744,26.5665 13.1141,45.58095 12.1191,57.04335 -1.06465,12.278296 3.6417,20.606446 14.129,25.004346 0.32835,0.1393 0.6169,0.36815 0.8159,0.66665 z m -26.6859,54.83445 c -0.01,0.199 0.0199,0.398 0.0696,0.58705 1.1542,4.1193 4.38795,5.6516 9.68135,4.58695 4.2387,-1.06465 6.4078,-3.67155 6.5073,-7.8406 0,-0.18905 -0.0199,-0.38805 -0.0697,-0.56715 -1.1343,-4.12925 -3.8208,-5.66155 -8.0595,-4.5969 -5.2934,1.0547 -8.00975,3.67155 -8.12915,7.83065 z M 642.3517,80.141784 c 23.084,-0.2587 45.9889,4.98495 66.37645,15.8205 6.77595,3.601896 13.2335,7.691346 19.13385,12.158896 20.24825,15.323 40.08855,34.37725 59.51095,57.14285 31.07385,36.42695 49.44155,91.90815 55.1031,166.43365 0.0896,1.194 -0.98505,2.17905 -2.15915,1.94025 -6.29835,-1.3134 -15.0444,3.09445 -26.2481,13.22355 -0.40795,0.36815 -0.62685,0.8955 -0.597,1.44275 0.4776,9.80075 -8.48735,42.3273 -26.91475,97.5896 -18.97465,56.9339 -16.26825,103.3009 8.12915,139.09105 24.3974,35.79015 56.9339,56.3966 97.6095,61.81935 40.66565,5.42275 100.5945,2.1691 179.7567,-9.76095 79.1721,-8.6764 136.3746,-3.79095 171.6275,14.63645 33.9295,17.7508 59.5706,30.4669 76.9135,38.1682 1.0348,0.4577 2.2288,-0.12935 2.5074,-1.2338 15.7608,-61.3915 64.665,-87.2615 146.7028,-77.61 82.9631,9.76095 136.106,75.64985 159.4288,197.65675 23.293,121.87755 51.7301,216.97972 85.3014,285.28642 0.07,0.1393 0.1592,0.2786 0.2686,0.398 30.1784,34.5663 23.3527,47.2526 -20.497,38.0488 -43.9193,-9.2137 -80.5253,-71.8489 -109.8082,-187.89582 -29.2828,-116.04685 -58.8343,-189.249 -88.6644,-219.6164 -29.8202,-30.3674 -61.5507,-40.12835 -95.1718,-29.28285 -33.5912,10.83555 -46.0685,23.29295 -37.4418,37.3722 0.02,0.0299 0.03,0.0597 0.05,0.0896 33.5216,64.8939 57.8792,143.27005 73.0629,235.1185 0.08,0.4577 0.3283,0.8756 0.6965,1.1542 51.9091,38.99407 109.4599,91.45047 172.6723,157.35927 63.4412,66.1575 105.47,103.0322 126.0764,110.6241 20.6065,7.5918 27.1138,17.8901 19.5219,30.9047 -7.4923,12.8454 -4.4178,19.8802 9.2237,21.1039 0.3482,0.03 0.7064,-0.05 1.0149,-0.2089 13.8305,-7.1441 22.8949,1.612 27.1834,26.2779 4.2685,25.6213 -17.2036,54.924 -64.4263,87.8984 -1.0746,0.7463 -2.5671,0.1592 -2.8357,-1.1243 l -12.3878,-58.8543 c -0.04,-0.1791 -0.099,-0.3482 -0.189,-0.5074 -35.7902,-66.068 -89.162,-127.8078 -160.1055,-185.2193 -54.3369,-43.9591 -98.6741,-73.3315 -133.0215,-88.1172 -2.1492,-0.9253 -3.6517,2.199 -1.5821,3.2935 48.4068,25.6909 88.6645,63.9984 120.7831,114.9225 37.9592,60.1875 63.7198,91.9181 77.2717,95.1717 13.5519,3.2537 17.3528,13.2833 11.3828,30.0988 -5.8606,16.517 -3.6119,24.9148 6.756,25.2033 0.3682,0.01 0.7363,-0.1 1.0348,-0.2985 24.5666,-15.8206 36.3374,-7.6615 35.3225,24.487 0,0.1492 -0.03,0.2885 -0.06,0.4278 -9.6515,37.2329 -36.0389,62.4363 -79.1622,75.6101 -1.0945,0.3383 -2.2288,-0.4279 -2.3482,-1.5721 l -6.2585,-61.0035 c -0.02,-0.1593 -0.06,-0.3185 -0.1095,-0.4776 -33.5912,-87.7192 -69.8987,-147.2898 -108.9027,-178.7219 -39.0438,-31.4519 -87.3013,-61.0034 -144.7825,-88.6644 -56.5259,-27.1934 -110.4251,-71.9485 -161.6974,-134.27537 -0.8557,-1.0348 -2.5074,-0.84575 -3.0646,0.3781 -2.1492,4.7561 -10.6764,8.44755 -25.5715,11.07435 -24.5864,4.27852 -41.7999,-8.30825 -51.6404,-37.76025 -0.2488,-0.7562 -0.9751,-1.2736 -1.7711,-1.2537 -55.5111,0.98505 -84.0676,-3.35315 -85.67948,-13.0345 -1.62187,-9.76095 -30.09877,-12.74595 -85.41082,-8.94505 -55.31205,3.79095 -123.6387,-6.5073 -204.97995,-30.9047 -79.45075,-23.83025 -123.2009,-45.34215 -131.2604,-64.5158 -0.32835,-0.796 -1.1741,-1.22385 -2.01985,-1.06465 -47.163,9.0147 -144.6332,-11.0843 -292.4106,-60.3169 -0.34825,-0.1194 -0.72635,-0.12935 -1.08455,-0.0298 -35.51155,9.8306 -61.3517,31.75045 -77.54035,65.73965 -16.20855,34.029 -31.33255,64.02825 -45.38195,89.9878 -0.10945,0.199 -0.24875,0.3781 -0.42785,0.52735 l -14.5469,12.30815 c -1.2935,1.0945 -0.52735,3.2437 1.1741,3.2238 6.37795,-0.0896 10.37785,5.4725 11.9997,16.68615 0.01,0.0597 0.0199,0.1194 0.0199,0.1791 2.0696,27.7008 -25.16355,56.44637 -81.689498,86.23667 -1.26365,0.6667 -2.77605,-0.3184 -2.67655,-1.7512 l 6.2685,-89.33112 c 0.01,-0.0896 0.0199,-0.16915 0.0398,-0.2587 5.42275,-25.95955 12.736,-44.90435 21.939748,-56.8145 9.2137,-11.93005 32.80515,-43.9193 70.7644,-95.9777 37.95925,-52.0584 60.7348,-82.4258 68.32665,-91.1022 9.7112,-11.87035 20.50695,-17.30305 32.36735,-16.2782 0.10945,0.01 0.2189,0.0299 0.3184,0.0497 l 162.83175,41.0935 c 2.01985,0.50745 3.19395,-2.2288 1.42285,-3.33325 -52.30715,-32.5564 -107.4799,-56.4961 -165.5282,-71.8191 -0.3383,-0.0896 -0.68655,-0.0796 -1.0149,0.0199 -32.32755,9.7908 -61.1726,27.6411 -86.5252,53.531 -25.12375,25.66105 -47.35205,49.74005 -66.6849,72.237 -0.4975,0.58705 -1.3134,0.7761 -2.0298,0.50745 -17.880148,-6.6864 -25.730698,-3.3233 -23.531748,10.0694 0.1592,0.96515 1.06465,1.64175 2.0298,1.52235 10.745998,-1.26365 15.601598,5.3332 14.566798,19.7806 -3.19395,27.7207 -35.222998,50.19775 -96.057298,67.4411 -1.38305,0.38805 -2.65665,-0.8955 -2.25865,-2.2686 l 25.074,-86.19685 c 0.0199,-0.0796 0.04975,-0.14925 0.0796,-0.22885 10.8256,-24.88495 21.66115,-42.19795 32.48675,-51.94895 10.8455,-9.76095 40.396998,-36.0588 88.664448,-78.9035 48.26745,-42.8447 76.7344,-67.51075 85.4108,-74.01805 11.8803,-9.72115 23.75065,-10.83555 35.63095,-3.35315 0.10945,0.0697 0.2189,0.1194 0.3383,0.16915 l 180.7517,63.9785 c 1.30345,0.4577 2.6268,-0.64675 2.4079,-2.0099 -13.34295,-85.30135 -1.791,-151.7972 34.6459,-199.4975 35.67075,-46.69535 64.24715,-88.56495 85.7093,-125.6088 0.8159,-1.4129 -0.48755,-3.09445 -2.05965,-2.6865 -31.0241,8.08935 -60.80445,25.3725 -89.34105,51.82955 -29.82015,27.65105 -49.34205,39.5811 -58.5657,35.79015 -9.2137,-3.79095 -20.60645,-6.5073 -34.15835,-8.12915 -13.532,-1.62185 -12.20865,-11.0843 3.98,-28.3774 0.0498,-0.0597 0.10945,-0.10945 0.16915,-0.1592 l 37.83985,-31.53155 c 0.6567,-0.54725 0.84575,-1.46265 0.46765,-2.21885 v 0 c -0.50745,-1.02485 -1.82085,-1.32335 -2.73625,-0.6368 -29.3923,21.9895 -49.14305,35.3822 -59.2423,40.16815 -10.29825,4.8755 -15.1837,2.1691 -14.63645,-8.12915 0.5373,-10.29825 -4.8755,-25.2133 -16.26825,-44.7352 -11.3828,-19.5219 -2.985,-37.95925 25.2133,-55.31205 19.5219,-10.8455 39.0438,-29.5515 58.5657,-56.12795 19.3826,-26.37745 44.64565,-54.09815 75.7792,-83.15215 0.4179,-0.398 0.6368,-0.96515 0.5771,-1.54225 -1.16415,-10.0495 -4.10935,-29.54155 -8.84555,-58.466196 -4.5372,-27.7008 -9.30325,-48.14805 -14.29815,-61.351699 -0.4975,-1.3233505 0.60695,-2.7064005 1.99,-2.4676005 18.59655,3.2039005 39.35225,17.5915995 62.2472,43.1630995 1.26365,1.40295 3.57205,0.20895 3.1442,-1.64175 -2.03975,-8.8953 -4.9551,-18.07915 -8.74605,-27.55155 -0.54725,-1.3731 0.64675,-2.79595 2.09945,-2.47755 18.95475,4.0795 43.2427,25.34265 74.29665,63.55065 0.34825,0.42785 0.88555,0.68655 1.44275,0.6766 z"
   id="path805"
   style="stroke-width:0.995" /></svg>
