<?xml version="1.0" encoding="UTF-8" standalone="no"?>
<svg
   width="1799.5911"
   height="977.58136"
   id="svg1333"
   version="1.1"
   xmlns="http://www.w3.org/2000/svg"
   xmlns:svg="http://www.w3.org/2000/svg"
   xmlns:rdf="http://www.w3.org/1999/02/22-rdf-syntax-ns#"
   xmlns:cc="http://creativecommons.org/ns#"
   xmlns:dc="http://purl.org/dc/elements/1.1/">
  <metadata
     id="metadata1340">
    <rdf:RDF>
      <cc:Work
         rdf:about="">
        <dc:format>image/svg+xml</dc:format>
        <dc:type
           rdf:resource="http://purl.org/dc/dcmitype/StillImage" />
        <dc:date>22/01/2006</dc:date>
        <dc:creator>
          <cc:Agent>
            <dc:title>Serge Thomas</dc:title>
          </cc:Agent>
        </dc:creator>
        <dc:publisher>
          <cc:Agent>
            <dc:title>Serge Rosmorduc</dc:title>
          </cc:Agent>
        </dc:publisher>
        <dc:identifier>US22</dc:identifier>
        <dc:source>KV 57</dc:source>
        <dc:relation>wn</dc:relation>
        <dc:description>reprise et optimisation de E24</dc:description>
        <cc:license
           rdf:resource="http://creativecommons.org/licenses/GPL/2.0/" />
      </cc:Work>
      <cc:License
         rdf:about="http://creativecommons.org/licenses/GPL/2.0/">
        <cc:permits
           rdf:resource="http://web.resource.org/cc/Reproduction" />
        <cc:permits
           rdf:resource="http://web.resource.org/cc/Distribution" />
        <cc:requires
           rdf:resource="http://web.resource.org/cc/Notice" />
        <cc:permits
           rdf:resource="http://web.resource.org/cc/DerivativeWorks" />
        <cc:requires
           rdf:resource="http://web.resource.org/cc/ShareAlike" />
        <cc:requires
           rdf:resource="http://web.resource.org/cc/SourceCode" />
      </cc:License>
    </rdf:RDF>
  </metadata>
  <defs
     id="defs1338" />
  <path
     id="path1335"
     style="fill:#000000;stroke:none;stroke-width:90.5056"
     d="m 1167.0281,0.13452192 c -6.7658,-0.241035 -14.2046,-0.178389 -22.4495,0.353543 C 996.70173,38.787124 834.71004,55.654575 658.64085,50.867192 482.57177,46.079809 347.81346,113.3714 254.19366,252.73725 c -64.89559,42.55446 -104.77847,76.63971 -119.67253,102.1724 -14.89404,25.53265 -17.70608,61.02238 -8.13139,106.76841 -8.01595,21.47138 -14.02735,40.3402 -18.38396,56.91959 L 0,569.68387 l 44.54576,-1.2374 58.33373,-26.86887 c -1.30503,7.29084 -1.96603,13.80817 -2.298,19.79811 l -92.0965835,61.3388 41.7174585,-5.47983 51.793285,-34.29316 c 1.95467,7.93921 5.48242,13.56291 10.95967,16.79305 20.74526,12.23436 51.84338,16.80272 93.33397,13.61121 29.78817,-24.46886 79.68512,-32.37471 149.90001,-23.86383 22.34105,107.45012 107.55427,204.78557 255.43102,292.02219 -221.28323,-13.8302 -349.54167,-13.8302 -384.64908,0 -35.10742,13.83018 -53.20419,39.83277 -54.26805,78.13178 58.5124,13.83023 115.96498,12.77603 172.34967,-3.18185 h 496.36701 c 6.38319,-21.27725 -18.03828,-57.47066 -73.35908,-108.53599 124.47184,34.04348 275.92091,30.88115 454.64961,-9.54553 l 86.2634,38.35885 c -44.6824,18.08572 -106.3514,23.35623 -185.0772,15.9092 -78.7257,-7.4471 -130.38084,17.50144 -154.84969,74.94995 88.30069,13.8303 158.05239,13.3032 209.11789,-1.5914 122.3439,-10.6385 213.1779,-12.39472 272.7542,-5.48016 59.5762,6.91466 129.653,-6.32304 176.7465,-20.53606 121.5272,-36.67743 80.0311,-298.79422 161.991,-440.75301 34.607,-59.94116 -29.3813,-92.38932 -66.7832,-17.72534 -30.0185,59.92481 -53.156,94.48745 -53.156,94.48745 0,0 -47.3534,-50.81487 -81.5851,-108.51647 -26.1375,-44.05786 -73.9107,-47.5304 -73.9107,4.33864 0,20.53803 75.9806,100.09114 105.5276,194.64828 21.9947,70.3878 9.8547,156.0937 -33.6631,194.5879 10.3055,-63.89419 -44.9837,-195.2893 -106.3529,-233.38714 -84.98,-56.59882 -189.9814,-90.3216 -320.8362,-92.44931 -130.855,-2.12773 -223.97415,2.79091 -279.29495,15.02534 -55.32074,12.23438 -109.96135,5.90961 -164.21828,-19.09103 -54.25696,-25.00078 -137.36189,-81.57435 -249.06735,-169.87489 136.17426,53.19308 256.52689,52.8411 360.78527,-0.8836 104.2585,-53.72509 202.29611,-81.83594 294.32021,-84.49553 92.024,-2.65966 145.4354,-29.54126 160.3296,-80.60661 -77.6621,-12.76636 -156.9009,-20.32192 -237.7544,-22.44966 75.5342,-28.72422 127.7163,-65.6199 156.4406,-110.834075 25.1337,-39.56235 13.9491,-60.1818961 -33.4095,-61.86910908 z M 1144.5786,49.983347 C 1045.6394,138.28385 922.82833,165.16545 776.01538,130.58995 629.2025,96.014414 481.26618,130.27487 332.32549,233.46943 422.75377,151.55212 492.50545,107.27758 541.44308,100.36248 c 48.93763,-6.915106 128.8786,-9.023346 240.05213,-6.363686 111.17362,2.65966 232.22849,-12.09962 363.08339,-44.015447 z M 788.74275,184.15094 c 104.25842,23.40491 203.70223,33.41906 298.38595,30.22747 94.6836,-3.19155 127.89,0.32278 99.6975,10.42937 -95.5712,34.26147 -245.22843,-10.93085 -385.35609,82.9046 -59.57632,39.89479 -134.07149,50.61276 -223.43588,31.99516 C 488.66988,321.08999 428.582,300.53309 397.72998,278.19197 421.13496,236.70144 466.11327,204.90113 532.60464,182.56 599.6787,160.0231 684.75438,160.80647 788.74275,184.15094 Z M 310.22938,301.70223 c 20.61231,0.53197 39.19237,10.10818 55.6822,28.4598 32.97976,36.7032 47.56221,73.59892 43.83869,110.83408 -3.7235,37.23518 -14.61658,67.63104 -32.70224,91.03596 -82.98119,-7.44699 -141.48791,-0.0682 -175.53151,22.2729 l -14.49504,-2.65154 c 4.32084,-7.58775 12.60921,-22.89453 16.26274,-30.7578 1.8736,0.12263 3.84792,0.0797 6.18688,0 l 23.15674,-5.12633 c 7.25367,-1.6473 -56.34637,-32.2765 -48.78822,-28.28301 l 3.88896,23.68703 c 0.1605,1.00019 0.60951,2.05728 1.0606,3.00508 l -0.17672,0.17671 c -6.36812,11.35828 -15.28887,26.96392 -18.91467,34.29361 L 156.794,546.35036 c 17.02182,-62.76784 23.17135,-106.34018 18.38396,-130.80897 -8.33714,-42.6121 84.43932,-115.14529 135.05142,-113.83916 z m -1.23738,24.3941 c -14.29587,0.3556 -70.94695,20.36403 -95.10165,49.31853 -11.68213,14.00347 -15.2441,31.68665 -14.67183,45.9599 -1.43234,10.0006 1.97461,22.8129 12.37383,39.94976 32.53537,25.05054 75.88299,5.07011 72.82877,-30.75778 -2.85217,-33.45782 -19.17037,-45.9859 -51.0862,-37.47499 -2.08974,0.55722 -3.88914,1.3081 -5.83343,1.94447 1.2348,-4.36429 2.07044,-8.22222 4.06568,-10.95967 19.88753,-27.28577 64.0038,-42.95471 77.7783,-53.38418 4.25629,-3.22256 3.64931,-4.69557 -0.35345,-4.59593 z m 155.91014,105.35426 c 2.6747,-0.90188 220.11033,208.77636 376.51762,177.12244 257.21954,-52.0564 301.66474,10.41542 323.13384,77.42478 17.5534,54.78893 21.2429,89.04926 11.1361,102.87949 -17.1588,23.48103 -174.4392,46.05841 -346.29014,13.61112 -76.06605,-14.3621 -117.35494,-7.51038 -123.73819,20.68201 -6.38317,28.19224 -42.22479,21.3405 -107.65224,-20.68196 C 450.44518,707.71155 406.90422,591.76195 435.20499,547.94128 c 16.48986,-25.53263 24.74764,-53.9954 24.74764,-85.37937 0,-19.61493 1.62493,-29.98929 4.94951,-31.11132 z m 786.09136,164.74858 c 124.5187,-5.79292 269.8438,160.64275 274.1685,223.78943 2.6598,38.83091 -15.4371,62.72531 -54.2682,71.76815 -74.2183,17.28377 -256.138,-80.10429 -256.138,-289.54741 11.9685,-3.39107 24.0448,-5.44294 36.2377,-6.01017 z" />
</svg>
