<?xml version="1.0" encoding="UTF-8" standalone="no"?>
<svg
   width="29.548"
   height="17.983217"
   version="1.1"
   id="svg687"
   sodipodi:docname="US9E216VARA.svg"
   inkscape:version="1.2.1 (9c6d41e410, 2022-07-14)"
   xmlns:inkscape="http://www.inkscape.org/namespaces/inkscape"
   xmlns:sodipodi="http://sodipodi.sourceforge.net/DTD/sodipodi-0.dtd"
   xmlns="http://www.w3.org/2000/svg"
   xmlns:svg="http://www.w3.org/2000/svg">
  <defs
     id="defs691" />
  <sodipodi:namedview
     id="namedview689"
     pagecolor="#ffffff"
     bordercolor="#000000"
     borderopacity="0.25"
     inkscape:showpageshadow="2"
     inkscape:pageopacity="0.0"
     inkscape:pagecheckerboard="0"
     inkscape:deskcolor="#d1d1d1"
     showgrid="false"
     inkscape:zoom="28.466837"
     inkscape:cx="14.982346"
     inkscape:cy="8.9929206"
     inkscape:window-width="1920"
     inkscape:window-height="1137"
     inkscape:window-x="-8"
     inkscape:window-y="-8"
     inkscape:window-maximized="1"
     inkscape:current-layer="svg687" />
  <path
     id="path685"
     style="fill:#000000;stroke:none"
     d="M 1.0957031 0 C 0.90910731 0.046649283 0.77696734 0.18667678 0.69921875 0.41992188 L 1.75 1.609375 C 1.6411521 1.9048187 1.2822179 2.3406775 0.67578125 2.9160156 C 1.2355694 3.5691017 1.7305869 4.0897733 2.1582031 4.4785156 C 2.5858187 4.8672572 3.1597525 5.3327144 3.8828125 5.8769531 C 4.5942505 6.4124442 5.2407386 6.8264641 5.8242188 7.1210938 C 5.688312 7.2586041 5.534309 7.4068172 5.3417969 7.5800781 C 4.6731608 7.7822239 4.3536664 8.2496342 4.3847656 8.9804688 C 4.307017 9.1826145 4.2991295 9.3837917 4.3613281 9.5859375 C 4.3768781 9.8658319 4.548457 9.9979712 4.875 9.9824219 C 4.8905493 10.52666 5.0542407 10.790941 5.3652344 10.775391 C 5.6295788 10.775391 5.7617188 10.659026 5.7617188 10.425781 C 6.2126596 10.410232 6.4296115 10.285979 6.4140625 10.052734 C 6.4140625 9.8972378 6.5146518 9.812425 6.7167969 9.796875 L 7.5097656 9.4707031 C 7.8985079 9.4240539 8.2337782 9.4812601 8.5136719 9.6445312 C 8.7935663 9.8078038 9.0065743 10.184504 9.1542969 10.775391 C 9.3020187 11.366279 9.3217385 12.218276 9.2128906 13.330078 C 9.1040427 14.44188 8.8082121 15.169626 8.3261719 15.511719 L 2.8691406 16.210938 C 2.480399 16.070987 1.9202884 16 1.1894531 16 C 0.45861853 16 0.062198608 16.660699 0 17.982422 L 5.7617188 17.982422 C 8.6384092 17.982422 10.200424 17.718142 10.449219 17.189453 C 10.651365 16.738512 11.008345 16.316438 11.521484 15.919922 C 12.034623 15.523403 13.006929 15.491853 14.4375 15.826172 C 15.868071 16.160495 16.820657 16.152602 17.294922 15.802734 C 17.769187 15.452867 18.169551 15.269456 18.496094 15.253906 C 18.589393 15.082859 18.916774 15.41813 19.476562 16.257812 C 19.585409 16.475504 19.210701 16.564271 18.355469 16.525391 C 17.500238 16.486517 16.56737 16.393817 15.556641 16.246094 C 14.545911 16.098369 13.971978 16.054988 13.832031 16.117188 C 13.44329 16.272684 13.248047 16.716431 13.248047 17.447266 C 13.248047 17.804908 13.459066 17.982422 13.878906 17.982422 L 23.300781 17.982422 C 24.909291 17.982422 24.995906 16.772745 24.916016 15.779297 C 25.299566 15.574178 25.369177 13.941708 25.34375 12.080078 C 25.731404 12.338102 26.18705 12.615444 26.716797 12.912109 C 27.161513 12.204291 27.516918 11.768387 27.785156 11.603516 L 29.158203 12.398438 C 29.371582 12.276298 29.48318 12.117909 29.492188 11.925781 C 28.105501 11.122064 26.655222 10.294589 25.271484 9.5214844 C 25.231416 8.450673 25.192805 7.474064 25.197266 6.8496094 C 25.47716 6.6630136 25.654672 6.3356315 25.732422 5.8691406 L 26.105469 4.4941406 C 26.121019 4.3075448 26.028318 4.1832927 25.826172 4.1210938 C 25.624026 4.1055444 25.507662 4.1824691 25.476562 4.3535156 L 25.126953 5.7539062 C 24.955907 6.4069929 24.744888 6.3991054 24.496094 5.7304688 L 24.123047 4.3300781 C 24.091949 4.1279373 23.975583 4.0588948 23.773438 4.1210938 C 23.586842 4.183293 23.509916 4.2996573 23.541016 4.4707031 L 23.914062 5.8925781 C 24.116208 6.4212669 24.293722 6.7407615 24.449219 6.8496094 C 24.452988 7.3357923 24.500332 8.1858058 24.554688 9.125 C 23.444568 8.5098018 22.391641 7.9372419 21.474609 7.4570312 L 20.796875 7.2167969 C 20.796875 7.2167969 20.940305 7.8729594 21.208984 8.2773438 C 21.614955 8.7985181 22.503773 9.7497719 23.179688 10.351562 C 23.761726 10.86977 24.261632 11.285214 24.6875 11.611328 C 24.751245 13.01801 24.775864 14.288592 24.65625 14.751953 C 24.611906 14.015306 24.115685 12.985221 23.837891 12.734375 C 23.360095 12.302931 22.644331 11.919616 21.796875 11.453125 C 20.949417 10.986634 19.639851 10.864374 17.867188 11.089844 C 16.094525 11.31532 14.970359 11.358697 14.496094 11.21875 C 14.021829 11.078803 13.649073 10.885514 13.376953 10.636719 C 13.104834 10.387924 12.739966 9.8731863 12.28125 9.0957031 C 11.822535 8.3182192 11.576022 7.6318652 11.544922 7.0332031 C 11.513822 6.4345404 11.288981 5.9316353 10.869141 5.5273438 C 11.522227 5.4340458 12.058675 5.2723076 12.478516 5.0390625 C 12.898356 4.8058174 13.399309 4.3226314 13.982422 3.5917969 C 14.565534 2.8609616 14.965898 2.3718413 15.183594 2.1230469 C 15.214693 1.7809539 15.066777 1.6330385 14.740234 1.6796875 C 13.745055 2.0062305 12.824021 2.3237719 11.976562 2.6347656 C 11.129105 2.9457586 10.340209 3.4900942 9.609375 4.2675781 C 9.0962355 3.6611407 8.4473679 3.140469 7.6621094 2.7050781 C 6.8768509 2.2696873 6.0090772 1.8121176 5.0605469 1.3300781 C 4.7495539 1.2678789 4.5878156 1.4000188 4.5722656 1.7265625 C 4.7433122 2.0064562 5.0647977 2.5507918 5.5390625 3.359375 C 6.013328 4.1679582 6.4649626 4.7044056 6.8925781 4.96875 C 7.1652564 5.1373147 7.4168577 5.2223924 7.6484375 5.2265625 C 7.5417669 5.298198 7.4574475 5.4168499 7.3945312 5.5859375 C 7.2701341 5.9202559 7.0551721 6.1727035 6.7519531 6.34375 C 6.6907815 6.3782571 6.635554 6.4140788 6.5800781 6.4492188 C 5.0085561 4.510861 3.1815663 2.3619335 1.0957031 0 z M 4.9921875 1.5625 C 5.9251679 2.0756388 6.745615 2.5588248 7.453125 3.0097656 C 8.160635 3.4607065 8.7858394 4.0346397 9.3300781 4.734375 L 9.0039062 4.828125 C 8.2419723 3.8484953 6.8574712 2.7834886 4.8515625 1.6328125 L 4.9921875 1.5625 z M 14.787109 1.8886719 L 14.904297 2.0058594 C 12.758442 2.8455418 11.1491 3.8020724 10.076172 4.875 L 11.498047 4.9921875 C 10.907159 5.0388362 10.433815 5.1394247 10.076172 5.2949219 C 10.076172 5.512617 10.145209 5.6210938 10.285156 5.6210938 C 10.720547 5.9787367 10.971004 6.4915202 11.033203 7.1601562 C 11.095402 7.8287923 11.355739 8.5525949 11.814453 9.3300781 C 12.273169 10.107562 12.626205 10.647953 12.875 10.951172 C 13.123795 11.254391 13.575429 11.522614 14.228516 11.755859 C 14.881602 11.989104 16.027477 11.989104 17.667969 11.755859 C 19.308458 11.522614 20.556877 11.587707 21.412109 11.953125 C 22.267342 12.318542 22.855059 12.665644 23.173828 12.992188 C 23.492597 13.31873 23.737156 13.691488 23.908203 14.111328 C 24.499091 15.775143 24.540521 16.755337 24.035156 17.050781 C 23.529792 17.346225 23.084055 17.387655 22.695312 17.177734 C 22.306571 16.967815 21.979188 16.618722 21.714844 16.128906 C 21.450499 15.639092 21.138893 15.254504 20.78125 14.974609 C 20.921197 15.565497 21.34128 16.389888 22.041016 17.447266 L 14.763672 17.447266 C 14.763672 17.353969 14.903699 17.18239 15.183594 16.933594 C 14.670454 16.949144 14.414062 17.120723 14.414062 17.447266 L 14.251953 17.447266 C 14.251953 17.120723 14.344653 16.872219 14.53125 16.701172 C 14.126958 16.701172 13.923828 16.949675 13.923828 17.447266 L 13.714844 17.447266 C 13.777042 16.763079 13.948621 16.419922 14.228516 16.419922 L 17.142578 16.816406 C 19.459479 17.018552 20.634916 16.981067 20.666016 16.701172 C 19.48424 15.395 18.839316 14.367478 18.730469 13.621094 C 18.62162 12.874709 18.954938 12.513789 19.732422 12.537109 C 20.509906 12.560434 21.590688 13.325666 22.974609 14.833984 L 22.951172 14.4375 C 21.769396 12.773685 20.55253 11.937487 19.300781 11.929688 C 18.049032 11.921913 17.749257 12.837014 18.402344 14.671875 C 18.013602 14.734074 17.591528 14.915531 17.132812 15.21875 C 16.674097 15.521968 15.689959 15.506194 14.181641 15.171875 C 12.673322 14.837557 11.635923 14.944043 11.068359 15.488281 C 10.500796 16.03252 10.076769 16.436827 9.796875 16.701172 C 9.3925834 17.074365 8.5050901 17.322869 7.1367188 17.447266 C 5.923844 17.338419 4.0817732 17.338419 1.609375 17.447266 L 1.8886719 17.003906 L 1.8886719 16.839844 C 1.5154802 16.933143 1.3300781 17.136273 1.3300781 17.447266 L 1.0722656 17.447266 C 1.1811128 17.105173 1.3290285 16.909931 1.515625 16.863281 L 1.515625 16.746094 C 1.1579827 16.746094 0.85426383 16.980775 0.60546875 17.447266 L 0.53710938 17.447266 C 0.52156006 16.825278 0.8785404 16.529447 1.609375 16.560547 C 2.1380638 16.607196 2.5502594 16.692009 2.8457031 16.816406 L 8.7460938 16.140625 C 9.3680811 15.518639 9.7309587 14.633098 9.8320312 13.482422 C 9.9331044 12.331746 9.897609 11.428478 9.7265625 10.775391 C 9.555516 10.122304 9.3760496 9.7140531 9.1894531 9.5507812 C 9.0028573 9.3875101 8.8174559 9.2829771 8.6308594 9.2363281 C 9.2528468 9.1741295 9.6689858 9.0262138 9.8789062 8.7929688 C 10.088827 8.5597237 10.169696 8.2421822 10.123047 7.8378906 C 9.8276032 8.428778 9.4154082 8.738432 8.8867188 8.7695312 C 8.35803 8.8006305 7.5494151 8.9958727 6.4609375 9.3535156 C 6.2898917 9.0891712 6.0650507 8.9649195 5.7851562 8.9804688 C 5.6918583 9.3070124 5.4729523 9.5318528 5.1308594 9.65625 C 5.0064625 9.7184486 4.9453125 9.6947854 4.9453125 9.5859375 C 4.8831133 9.3837917 4.8988889 9.1905021 4.9921875 9.0039062 C 4.9766375 8.4752175 5.1541514 8.1636104 5.5273438 8.0703125 C 6.2581783 7.3705765 6.7492518 6.950494 6.9980469 6.8105469 C 7.2468413 6.6706003 7.4519625 6.4497034 7.6152344 6.1464844 C 7.7785062 5.843266 7.9619167 5.667743 8.1640625 5.6210938 C 8.3662076 5.5744445 8.6304876 5.4580802 8.9570312 5.2714844 C 9.2835742 5.0848886 9.6011157 4.8679357 9.9121094 4.6191406 C 10.627394 3.8727561 11.370916 3.3284205 12.140625 2.9863281 C 12.910334 2.6442352 13.79193 2.2774142 14.787109 1.8886719 z M 5.7851562 8.9804688 L 5.9238281 8.8867188 L 5.9003906 8.7929688 C 5.6360462 8.9329159 5.3796544 9.1281581 5.1308594 9.3769531 L 5.2011719 9.4472656 L 5.7851562 8.9804688 z M 5.1542969 1.9589844 C 6.0406287 2.612071 6.6855522 3.095257 7.0898438 3.40625 C 7.4941353 3.7172437 7.9457699 4.1590369 8.4433594 4.734375 L 7.6738281 4.734375 C 6.9274436 4.6255271 6.0872772 3.7005479 5.1542969 1.9589844 z M 2.0996094 2.0527344 C 3.6864763 3.8379597 5.0419941 5.3989761 6.1796875 6.75 C 6.1702219 6.7588227 6.1634369 6.7684848 6.1542969 6.7773438 C 4.4044441 5.7743895 2.8203946 4.488708 1.4003906 2.9160156 C 1.773583 2.5428233 2.0063115 2.2548802 2.0996094 2.0527344 z M 14.554688 2.2617188 C 13.404012 3.8788851 12.447481 4.6796125 11.685547 4.6640625 L 10.939453 4.5722656 C 11.514792 4.0746761 12.019688 3.6960229 12.455078 3.4394531 C 12.890469 3.1828834 13.590607 2.7904075 14.554688 2.2617188 z M 8.21875 6.1132812 C 7.9213625 6.127859 7.6847 6.2511297 7.5097656 6.484375 C 7.5253156 6.6243222 7.4483903 6.7801253 7.2773438 6.9511719 L 7.4179688 7.0449219 L 7.5800781 6.8574219 C 8.2487142 6.8729712 8.5682086 6.6323551 8.5371094 6.1347656 C 8.4243743 6.1153285 8.3178792 6.108422 8.21875 6.1132812 z M 21.636719 8.0371094 C 22.508579 8.5146148 23.514401 9.1110438 24.589844 9.7519531 C 24.611947 10.135405 24.633834 10.499055 24.654297 10.890625 C 23.53396 10.022971 22.502708 9.0393836 21.636719 8.0371094 z M 5.4023438 8.3417969 C 5.307588 8.3476284 5.2006068 8.3969365 5.0839844 8.4902344 L 5.1542969 8.5839844 C 5.309794 8.4906865 5.4005034 8.4946299 5.4238281 8.5957031 C 5.4471528 8.696776 5.3485552 8.7460938 5.1308594 8.7460938 L 5.1308594 8.9101562 C 5.4574023 8.8946063 5.6289813 8.8058493 5.6445312 8.6425781 C 5.6600805 8.4793063 5.6088101 8.3807093 5.4921875 8.3496094 C 5.4630319 8.3418347 5.433929 8.339853 5.4023438 8.3417969 z M 6.1113281 9.1191406 L 6.1582031 9.1191406 L 6.1582031 9.3769531 C 6.1893024 9.7501455 6.1025364 9.9434351 5.9003906 9.9589844 L 5.9003906 9.6328125 L 5.3417969 10.216797 C 5.3262469 9.9369032 5.4465553 9.7258847 5.703125 9.5859375 C 5.9596947 9.4459909 6.0957788 9.2901872 6.1113281 9.1191406 z M 25.294922 10.171875 C 25.940749 10.556977 26.599165 10.949371 27.28125 11.347656 C 27.101423 11.47892 26.866653 11.763775 26.574219 12.203125 C 26.15163 11.951937 25.735389 11.679698 25.328125 11.390625 C 25.318255 10.980723 25.309138 10.578248 25.294922 10.171875 z " />
</svg>
