<?xml version="1.0" encoding="UTF-8" standalone="no"?>
<svg
   width="23.724495"
   height="17.977583"
   version="1.1"
   id="svg25301"
   xmlns="http://www.w3.org/2000/svg"
   xmlns:svg="http://www.w3.org/2000/svg">
  <defs
     id="defs25305" />
  <path
     style="fill:#000000;stroke:none"
     d="M 4.46601,5.904217 4.598476,6.093454 C 4.6615553,5.9925273 4.7687903,5.942064 4.920181,5.942064 5.1220343,5.95468 5.3554273,5.957834 5.62036,5.951526 5.8852927,5.945218 6.0745303,5.62036 6.188073,4.976952 5.1535737,5.279732 4.623708,5.5635887 4.598476,5.828522 Z m 12.18691,5.090494 c 0.857877,0.02523 1.791449,0.362705 2.800716,1.012422 1.009269,0.649717 1.419284,0.400554 1.230045,-0.747488 0.706489,-0.719104 0.984038,-1.6716007 0.832648,-2.85749 -0.15139,-1.18589 -0.536173,-1.85453 -1.15435,-2.00592 V 6.112378 c 0.328011,-0.050463 0.643407,0.037848 0.946188,0.264933 C 21.11893,6.1249943 20.696299,5.976758 20.040274,5.932602 19.38425,5.8884467 18.734534,5.863215 18.091125,5.856907 17.447717,5.850599 16.763308,5.945218 16.037897,6.140764 15.312486,6.33631 14.451454,6.4530067 13.454802,6.490854 12.45815,6.5287013 11.183949,6.307924 9.632199,5.828522 8.0804503,5.3491193 7.0396433,5.109418 6.509778,5.109418 6.3962347,5.626668 6.2479983,5.9483723 6.065069,6.074531 5.882139,6.200689 5.6550537,6.2385363 5.383813,6.188073 5.1125723,6.1376097 4.9044107,6.1565333 4.759328,6.244844 4.614246,6.3331553 4.478626,6.295308 4.352468,6.131302 4.01184,6.3710033 3.67752,6.5350093 3.349508,6.62332 3.5639773,6.951332 3.658596,7.2667283 3.633364,7.569509 H 3.538745 C 3.538745,7.3298077 3.472512,7.134262 3.340046,6.982872 3.2075793,6.8314813 3.0971907,6.686399 3.00888,6.547625 2.9205687,6.4088503 2.8701053,6.2385363 2.85749,6.036683 3.1981173,5.9862197 3.6964433,6.0177593 4.352468,6.131302 L 4.125382,5.77175 4.257849,5.696055 C 4.232617,5.393275 4.13169,5.1724977 3.955068,5.033723 3.6775193,5.1724977 3.3999707,5.1977293 3.122422,5.109418 3.0593427,5.3743507 2.9773397,5.5762043 2.876413,5.714979 3.2548883,5.6266677 3.6712113,5.677131 4.125382,5.866369 V 5.979912 C 3.64598,5.815906 3.166578,5.80329 2.687176,5.942064 2.67456,6.3710033 2.5231697,6.98918 2.233005,7.796594 2.4853217,7.935368 2.5894023,8.083604 2.545247,8.241302 2.5010917,8.3990007 2.4127807,8.4873117 2.280314,8.506235 2.147848,8.525159 2.075307,8.4841577 2.062691,8.383231 2.050075,8.2823037 2.065845,8.2160703 2.110001,8.184531 2.1541563,8.152991 2.160464,8.1182973 2.128924,8.08045 2.0973847,8.0426027 2.0248437,8.093066 1.911301,8.23184 c 0,0.227086 0.164006,0.3847843 0.492018,0.473095 0.2397013,-0.088311 0.422631,-0.088311 0.548789,0 0.2649333,0 0.4100157,-0.246009 0.435247,-0.738027 L 3.557669,7.947984 c 0.30278,0.51725 0.633946,0.8168763 0.993498,0.898879 0.359552,0.082003 0.539328,0.268087 0.539328,0.558251 L 5.733903,9.93498 c 0,0.88311 0.3658593,1.73468 1.097578,2.554709 0.7695673,0.416323 1.545442,0.529866 2.327624,0.340628 0,-0.227085 -0.30278,-0.422631 -0.90834,-0.586637 C 7.6452037,12.079674 7.273036,11.732738 7.134262,11.202872 6.9954873,10.673007 6.9639477,10.165219 7.039643,9.679509 7.1153383,9.193799 7.3234997,8.783784 7.664127,8.449464 8.004755,8.115144 8.2570723,7.5758163 8.421079,6.831481 c 0.2397007,0 0.365859,0.044156 0.378475,0.132467 -0.164006,0.7317187 -0.3973993,1.2363527 -0.70018,1.513902 -0.30278,0.2775487 -0.463632,0.8484157 -0.482556,1.712601 -0.018924,0.864186 0.8484157,1.68737 2.602019,2.469552 0,-0.605561 0.08831,-1.148042 0.264932,-1.627445 l -0.927265,-1.30574 0.302781,-0.132466 0.567713,0.775875 c 0.30278,0.164006 0.45417,0.353244 0.45417,0.567713 l 0.208162,1.589596 c 1.816682,0.176623 3.784754,-0.113542 5.904217,-0.870493 -0.08831,-0.15139 -0.233394,-0.27124 -0.435247,-0.359551 z M 3.141346,6.225921 3.273813,6.434083 3.765831,6.244844 Z m 16.047358,6.680092 c -0.479402,0.365859 -0.826337,0.845261 -1.040806,1.438206 -0.08831,0.30278 -0.296474,0.510941 -0.624485,0.624484 -0.378475,0.883109 -0.561405,1.476054 -0.54879,1.778835 0.01262,0.30278 -0.06939,0.460478 -0.246008,0.473095 -0.176623,0.01262 -0.328014,-0.0063 -0.454172,-0.05677 l -0.246008,0.794798 h -1.835607 c 0.100927,-0.504633 0.340629,-0.914648 0.719104,-1.230043 0.403707,-0.403708 0.728565,-0.816877 0.974574,-1.239508 0.246009,-0.422631 0.438401,-0.911495 0.577174,-1.466593 l -0.07569,-1.627444 c -0.984035,0.252317 -1.476053,0.428939 -1.476053,0.529866 l -0.246009,1.097578 h -0.246009 c -0.151391,-0.529865 -0.227086,-0.927264 -0.227086,-1.192197 -0.693871,0.138775 -1.690523,0.189238 -2.989956,0.151391 0.08831,0.365859 0.186085,0.65287 0.293319,0.861031 0.107235,0.208161 0.148236,0.413169 0.123005,0.615023 -0.02523,0.201853 -0.02839,0.428938 -0.0095,0.681255 0.01892,0.252317 0.205008,0.712795 0.558251,1.381435 0.227085,0.403707 0.08831,0.649717 -0.416323,0.738028 v 0.719103 H 9.93498 c 0.138775,-0.51725 0.384784,-0.939881 0.738027,-1.267893 L 10.483769,15.025475 C 10.218836,14.785774 10.061138,14.495609 10.010675,14.154981 L 9.38619,13.189869 c -0.30278,0.06308 -0.611868,0.264933 -0.927264,0.60556 -0.51725,0.353244 -0.8074147,0.659178 -0.870494,0.917803 -0.063079,0.258625 -0.2460083,0.457325 -0.548789,0.596099 -0.5424813,0.706487 -0.8074143,1.195351 -0.794799,1.466592 0.012616,0.271241 -0.050463,0.394246 -0.189237,0.369015 -0.1387747,-0.02523 -0.2144697,0.04415 -0.227085,0.20816 L 5.487894,17.977583 H 3.727983 C 3.9550683,17.397254 4.2452327,16.9557 4.598476,16.65292 4.7246347,16.261828 4.964336,15.984279 5.31758,15.820273 5.7212873,15.227328 5.9294487,14.820467 5.942064,14.599689 5.95468,14.378912 6.0082973,14.214907 6.102916,14.107672 6.1975347,14.000437 6.3836187,13.694502 6.661168,13.189869 V 12.924936 C 5.7780587,11.991363 5.336504,11.083022 5.336504,10.199913 5.0337233,9.9854437 4.8381773,9.7678203 4.749866,9.547043 4.6615553,9.3262657 4.4817797,9.1780293 4.210539,9.102334 3.9392983,9.0266387 3.721675,8.8815567 3.557669,8.667088 3.4315103,8.9194047 3.2675043,9.051871 3.065651,9.064487 2.1194623,9.064487 1.646368,8.96356 1.646368,8.761706 1.5580573,8.6860113 1.513902,8.5346213 1.513902,8.307536 1.513902,8.0930667 1.6274447,7.891213 1.85453,7.701975 2.1320787,6.894561 2.261391,6.4246207 2.242467,6.292154 2.223543,6.1596873 2.233005,5.9736037 2.270853,5.733903 1.3625117,5.380659 0.756951,4.9107187 0.454171,4.324082 0.15139033,3.7374447 0,3.2548883 0,2.876413 0,2.4853217 0.10092667,2.214081 0.30278,2.062691 0.41632267,1.9996117 0.50463367,2.056383 0.567713,2.233005 0.54248167,3.3684317 1.2868167,4.2136933 2.800718,4.76879 2.8890293,4.6678633 3.0278037,4.6615553 3.217041,4.749866 3.406279,4.8381773 3.5545153,4.8350237 3.66175,4.740405 3.7689847,4.6457857 3.9676843,4.6300157 4.257849,4.693095 5.405891,4.3272357 6.0934543,3.898297 6.320539,3.406279 6.4971617,3.1161143 6.585473,2.737639 6.585473,2.270853 V 1.968072 h 0.246008 c 0.1135427,0 0.2207777,0.3090883 0.321705,0.927265 0,0.51725 -0.2901647,1.1101947 -0.870494,1.778834 L 6.528701,4.598476 v 0.094619 c 0.9209573,0.1261587 2.264545,0.432093 4.030763,0.917803 1.766219,0.48571 3.267505,0.570867 4.503858,0.255471 1.236353,-0.315396 2.62725,-0.4573243 4.172691,-0.425785 1.545442,0.03154 2.55471,0.4888647 3.027804,1.371974 0.473095,0.8831087 0.656025,1.923916 0.54879,3.122422 -0.107235,1.198505 0.110388,2.371779 0.65287,3.519822 0.252317,1.198505 0.321703,2.07846 0.20816,2.639865 -0.113541,0.561405 -0.334318,0.829492 -0.66233,0.804261 -0.239702,0 -0.416324,-0.227085 -0.529866,-0.681256 -0.113543,-0.454171 -0.170314,-1.20166 -0.170314,-2.242467 0,-1.040807 -0.01262,-1.785142 -0.03785,-2.233005 -0.02523,-0.447863 -0.03154,-1.088117 -0.01892,-1.920762 0.01262,-0.832646 -0.107233,-1.5643653 -0.35955,-2.195158 0.214469,0.6055607 0.25547,1.330972 0.123005,2.176234 -0.132467,0.845261 -0.362706,1.450822 -0.690718,1.816682 0.138774,0.555097 0.403707,1.12281 0.794798,1.703139 -0.113543,0.958805 -0.113543,1.759911 0,2.403319 0.113542,0.643409 0.201853,1.059732 0.264933,1.248969 0.06308,0.189238 -0.082,0.283857 -0.435248,0.283857 v 0.719103 h -1.949148 c 0.05046,-0.466787 0.290164,-0.902033 0.719103,-1.30574 0.06308,-1.387743 -0.09462,-2.330778 -0.473093,-2.829104 -0.378475,-0.498326 -0.731719,-0.810568 -1.059732,-0.936726 z M 6.017759,5.222961 C 5.853753,5.235577 5.6708233,5.2860403 5.46897,5.374351 5.2671167,5.4626617 5.0400313,5.601436 4.787714,5.790674 c 0.012616,0.037847 0.116697,0.056771 0.312243,0.056771 0.1955453,0 0.3500893,-0.00315 0.463632,-0.00946 C 5.6771317,5.831676 5.7622887,5.7906743 5.81906,5.714979 5.8758313,5.6392837 5.910525,5.5793583 5.923141,5.535203 5.9357563,5.4910477 5.8979087,5.5194333 5.809598,5.62036 5.7212873,5.7212867 5.5982827,5.7654423 5.440584,5.752827 5.282886,5.740211 5.2545003,5.6897473 5.355427,5.601436 5.4563537,5.5131253 5.677131,5.386967 6.017759,5.222961 Z M 3.61444,0 c 0.7821827,0.025232 1.3908973,0.29647267 1.826144,0.813722 0.4352467,0.51725 0.65287,1.0660393 0.65287,1.646368 0,0.6181767 -0.2176233,1.192198 -0.65287,1.722064 C 5.0053373,4.7120193 4.3966227,4.976952 3.61444,4.976952 2.9205687,4.976952 2.32447,4.7435587 1.826144,4.276772 1.327818,3.809986 1.078655,3.2044253 1.078655,2.46009 1.078655,1.816682 1.2994323,1.245815 1.740987,0.747489 2.1825417,0.249163 2.807026,0 3.61444,0 Z m 0.018924,0.529866 c -0.643408,0 -1.141734,0.18923767 -1.494978,0.567713 -0.3532433,0.3784753 -0.529865,0.826338 -0.529865,1.343588 0,0.5803287 0.1955457,1.0565767 0.586637,1.428744 C 2.5862487,4.242079 3.0656507,4.428163 3.633364,4.428163 4.2136933,4.415547 4.6836337,4.2105393 5.043185,3.81314 5.4027363,3.4157407 5.582512,2.964724 5.582512,2.46009 5.5698967,1.9428407 5.396429,1.4918243 5.062109,1.107041 4.727789,0.72225767 4.2515407,0.529866 3.633364,0.529866 Z"
     id="path25299" />
</svg>
