<?xml version="1.0" encoding="UTF-8" standalone="no"?>
<svg
   width="1800"
   height="1800"
   id="svg2445"
   sodipodi:version="0.32"
   inkscape:version="1.2.2 (732a01da63, 2022-12-09)"
   sodipodi:docname="US9E145VARB.svg"
   inkscape:output_extension="org.inkscape.output.svg.inkscape"
   version="1.1"
   xml:space="preserve"
   xmlns:inkscape="http://www.inkscape.org/namespaces/inkscape"
   xmlns:sodipodi="http://sodipodi.sourceforge.net/DTD/sodipodi-0.dtd"
   xmlns="http://www.w3.org/2000/svg"
   xmlns:svg="http://www.w3.org/2000/svg"
   xmlns:rdf="http://www.w3.org/1999/02/22-rdf-syntax-ns#"
   xmlns:cc="http://creativecommons.org/ns#"
   xmlns:dc="http://purl.org/dc/elements/1.1/"><metadata
     id="metadata2452"><rdf:RDF><cc:Work
         rdf:about=""><dc:format>image/svg+xml</dc:format><dc:type
           rdf:resource="http://purl.org/dc/dcmitype/StillImage" /></cc:Work></rdf:RDF></metadata><defs
     id="defs2450"><inkscape:perspective
       sodipodi:type="inkscape:persp3d"
       inkscape:vp_x="0 : 1791.0084 : 1"
       inkscape:vp_y="0 : 1000 : 0"
       inkscape:vp_z="23.235731 : 1791.0084 : 1"
       inkscape:persp3d-origin="11.617866 : 1788.0112 : 1"
       id="perspective2454" /></defs><sodipodi:namedview
     inkscape:window-height="1137"
     inkscape:window-width="1920"
     inkscape:pageshadow="2"
     inkscape:pageopacity="0.0"
     guidetolerance="10.0"
     gridtolerance="10.0"
     objecttolerance="10.0"
     borderopacity="1.0"
     bordercolor="#666666"
     pagecolor="#ffffff"
     id="base"
     showgrid="false"
     inkscape:showpageshadow="2"
     inkscape:pagecheckerboard="0"
     inkscape:deskcolor="#d1d1d1"
     inkscape:zoom="0.32153204"
     inkscape:cx="418.30979"
     inkscape:cy="513.16815"
     inkscape:window-x="-8"
     inkscape:window-y="-8"
     inkscape:window-maximized="1"
     inkscape:current-layer="svg2445" /><path
     id="path7092"
     style="color:#000000;fill:#000000;stroke-width:1.12567;stroke-linecap:square;stroke-linejoin:round;-inkscape-stroke:none"
     d="M 519.52591,3.11011 491.64963,5.3677789 V 107.55962 c 0,35.58512 -6.58426,57.13638 -19.81401,64.54993 -78.0561,0 -124.66387,8.9315 -139.87833,26.72404 -15.21429,17.79251 -35.31696,31.57974 -60.45369,41.21738 -25.13673,9.63764 -61.17567,19.93007 -108.14174,31.05041 -46.96594,11.12033 -65.158551,27.04347 -54.5745,47.80142 2.64593,10.37897 12.52335,23.0012 29.72212,37.82838 1.32305,38.55049 36.67059,51.56028 106.1273,38.95721 69.4567,-12.60309 109.13696,35.78458 178.83634,20.13753 6.61489,14.63378 12.61266,18.75324 24.51959,63.23462 11.90675,44.48135 25.93531,78.26497 41.81108,101.247 15.87588,22.98199 -2.66233,98.91177 -55.58172,227.90771 -37.97421,15.47595 -75.04935,23.99467 -111.35868,26.86078 -3.50503,-4.14081 -7.84386,-8.0377 -10.9708,-11.49472 -6.57328,-7.5185 -17.33796,-10.88412 -22.39642,-19.10316 -2.89896,-17.54638 5.59264,-34.01559 10.99299,-49.93228 12.41747,-29.76803 30.44455,-57.61112 33.93074,-91.09992 4.99976,-33.59041 6.29076,-70.10704 -7.40557,-101.44095 -11.12101,-23.40509 -33.78373,-34.50215 -54.72092,-43.69632 -7.79025,-3.09108 -16.02082,-5.12197 -24.32213,-4.85848 -21.20059,1.04998 -42.85414,0.18694 -63.58408,5.70882 -12.87457,5.81321 -25.60274,28.59569 -12.77672,41.09554 10.85316,9.26712 24.1098,15.05132 37.3318,18.45918 15.26203,4.20789 -7.49414,16.1181 -8.28857,25.56786 -8.67087,16.29248 -8.65051,35.6361 -7.79825,53.94038 0.66616,51.30423 2.23694,102.785 7.96021,153.69056 3.05185,5.98797 4.45862,14.48847 1.11594,17.71574 -18.92398,-0.91622 -33.2481,-0.76528 -41.59144,0.79318 -25.69556,20.35946 -48.74883,38.67287 -58.37996,89.19366 -70.789161,4.7184 -100.4681226,11.58386 -98.6019208,45.45416 1.5186035,27.56168 -0.6388786,49.10782 71.6780348,56.74682 H 368.73223 614.73786 l 167.41295,-0.9822 -60.1564,116.7698 -7.97352,15.4805 27.62557,17.8748 7.97353,-15.4805 57.22124,-111.0733 v 748.6658 h 59.61285 v -746.6493 l 59.43312,115.3699 7.9736,15.4804 27.62557,-17.8749 -7.97576,-15.4804 -62.89857,-122.1006 h 635.10656 c 83.3481,486.3295 159.9361,724.2076 230.0541,713.8286 64.8264,-7.4136 53.0386,-202.7606 -35.6013,-586.0415 -88.6398,-383.28109 -209.0593,-580.18303 -361.2024,-590.56201 -210.3543,44.48138 -351.2179,66.81258 -422.65896,66.81258 -71.44132,0 -135.02721,-26.60805 -190.59251,-79.98563 -55.56552,-53.3776 -105.12069,-128.33139 -148.77921,-224.70768 3.96899,-37.06782 5.87698,-66.77321 5.87698,-89.01381 0,-62.27393 -27.72408,-138.59111 -83.28939,-229.03654 z m -4.03113,57.774444 h 4.03113 c 33.0745,71.170146 50.22972,126.899986 51.5528,166.933236 v 13.36201 c 0,20.75804 -9.87746,46.58608 -29.72211,77.723 26.45959,54.86033 54.5294,106.1219 84.2966,153.56873 29.76711,47.44675 71.52173,93.27871 125.10269,137.76008 53.58087,44.48134 114.74458,66.81008 183.53974,66.81008 58.21129,-4.44808 200.45987,-26.77684 426.68997,-66.81008 82.0251,2.96534 159.9963,97.14553 234.0831,282.4846 64.8263,197.20049 109.8722,368.85539 135.0086,514.90269 25.1368,146.047 29.6487,230.9059 13.7729,254.6292 -56.8882,-59.3085 -118.923,-307.6679 -186.3951,-745.06801 l -551.795,2.25768 c 14.5529,-25.206 34.4785,-37.82592 59.6152,-37.82592 l 154.8226,8.84421 109.1512,-2.0712 c -76.7332,-50.4122 -115.1968,-106.13956 -115.1968,-166.93075 -150.82,71.17017 -266.21554,110.19947 -346.25599,116.87167 -80.04056,6.67219 -147.7884,8.42315 -203.35371,5.45769 -55.5653,-2.96539 -98.703,22.27671 -129.1316,75.6543 H 150.43205 c -1.32306,-37.06778 31.42507,-51.82844 98.23587,-44.41492 66.81061,7.41358 137.15801,0.62049 211.24514,-20.13752 13.22982,-22.24061 32.11381,-68.8476 56.58895,-140.01773 24.47525,-71.17017 28.11408,-121.2668 10.91533,-150.17974 -17.19882,-28.91281 -31.40651,-60.76158 -42.65191,-95.60532 -11.2453,-34.84376 -23.86596,-56.63686 -29.55351,-74.52298 -9.3595,-29.43331 -38.31435,-10.83783 -73.88711,-8.09328 -28.82622,2.22401 -76.94365,-30.60608 -118.88848,-27.47494 -57.08786,4.26152 -86.20462,14.775 -90.1736,8.84419 -3.96896,-5.93082 -0.67576,-10.39667 9.90812,-13.36202 10.58387,-2.96548 80.58618,-11.66876 90.5086,-11.66876 9.92244,0 15.81505,-4.07824 17.79955,-12.2332 1.98448,-8.15489 -3.90813,-10.09226 -17.79955,-5.64415 -13.8914,4.44819 -91.17153,14.70143 -112.33928,16.1841 -7.93794,-11.86164 -17.77815,-19.35607 -16.45511,-29.73509 -6.77978,-9.03436 107.64228,-32.53166 140.71696,-42.91063 33.07466,-10.37899 51.02425,-22.97477 60.28508,-36.31913 9.26082,-13.34449 50.8469,-19.94854 124.93406,-19.94854 31.75156,0 46.99669,-34.95099 45.67362,-104.63849 34.39758,91.92814 33.70607,146.87801 -2.01446,164.6706 l 11.92258,19.94854 C 546.57073,266.9727 557.14169,246.97374 557.14169,232.14665 555.81863,189.14794 541.95437,132.0547 515.49478,60.884554 Z M 1557.4551,917.18009 c 0,-65.23927 -14.5533,-105.24213 -43.6591,-120.0692 v 42.34372 c 22.4908,26.68878 18.5039,52.51941 -11.9248,77.72548 z M 369.06946,246.82647 c -17.48828,1.39 -26.19682,9.83523 -26.19682,25.40375 3.96898,16.30981 19.55961,21.94049 46.68083,16.751 27.1212,-5.18951 47.2239,-13.73347 60.4537,-25.5952 -9.26102,-5.93083 -29.36351,-11.17159 -60.4537,-15.61969 -7.77238,-1.11205 -14.65465,-1.40323 -20.48401,-0.93986 z M 224.07955,540.61434 c -2.2414,5.25165 4.8166,18.77502 -5.42218,12.76527 -4.85866,-1.8442 -22.23804,-2.93699 -18.66256,-8.8591 7.89645,-2.15812 16.00008,-3.14499 24.08474,-3.90617 z m 52.57113,29.16321 c 2.24388,0.10602 4.52759,0.6211 6.84427,1.64601 10.34502,4.23527 15.94547,15.93329 20.6127,26.30384 8.05857,42.98991 -7.06357,86.0294 -24.73701,123.48306 -13.71179,30.5447 -26.43919,64.23101 -22.96881,99.13354 1.88645,4.19348 4.30399,12.34004 1.21356,13.93638 -1.44551,-0.15063 -2.30699,-0.16697 -3.72275,-0.3108 -0.49761,-0.20186 -1.02728,-0.44478 -1.61291,-0.76333 -14.54165,2.38871 -16.65676,-18.62415 -19.39247,-30.11303 -9.2167,-50.91427 -8.40371,-103.15413 -9.27583,-154.8393 -0.0962,-24.68039 8.49598,-50.20381 26.90011,-64.88063 7.4592,-6.82324 16.41567,-14.05513 26.13914,-13.59574 z m 903.65052,222.81552 c 3.9687,19.27522 17.3061,38.68821 39.7967,57.9634 l -150.9623,-9.03315 c -14.1575,0 -26.8215,1.58309 -38.2858,4.51782 44.5025,-15.4001 92.7824,-32.59373 149.4514,-53.44807 z m -168.0896,59.84812 c -26.04644,12.16286 -42.76878,34.56228 -50.21056,66.99658 v 31.05287 h -376.9853 c 7.93779,-47.44673 57.49337,-67.83562 148.77922,-61.16342 91.28596,6.67217 166.48028,0.45316 225.35303,-18.82219 15.71151,-5.14399 35.23193,-11.9694 53.06361,-18.06384 z"
     sodipodi:nodetypes="ccscsssccscssccccccccccccccccccscccccccccccccccccccscsscsccccscsscccscccccccssccscssssssscsssccsssccccccccccscscssccccsccccccccccscccccccccssc" /></svg>
