<?xml version="1.0" encoding="UTF-8" standalone="no"?>
<svg
   width="1796.7195"
   height="1246.2992"
   id="svg2757"
   version="1.1"
   xmlns="http://www.w3.org/2000/svg"
   xmlns:svg="http://www.w3.org/2000/svg"
   xmlns:rdf="http://www.w3.org/1999/02/22-rdf-syntax-ns#"
   xmlns:cc="http://creativecommons.org/ns#"
   xmlns:dc="http://purl.org/dc/elements/1.1/">
  <metadata
     id="metadata2764">
    <rdf:RDF>
      <cc:Work
         rdf:about="">
        <dc:format>image/svg+xml</dc:format>
        <dc:type
           rdf:resource="http://purl.org/dc/dcmitype/StillImage" />
        <cc:license
           rdf:resource="http://creativecommons.org/licenses/GPL/2.0/" />
        <dc:description>FCD p.220
remplace par ailleurs le même signe déjà créé mais imparfait à mon goût</dc:description>
        <dc:publisher>
          <cc:Agent>
            <dc:title>Serge Rosmorduc</dc:title>
          </cc:Agent>
        </dc:publisher>
        <dc:date>30/09/06</dc:date>
        <dc:creator>
          <cc:Agent>
            <dc:title>Serge Thomas</dc:title>
          </cc:Agent>
        </dc:creator>
      </cc:Work>
      <cc:License
         rdf:about="http://creativecommons.org/licenses/GPL/2.0/">
        <cc:permits
           rdf:resource="http://web.resource.org/cc/Reproduction" />
        <cc:permits
           rdf:resource="http://web.resource.org/cc/Distribution" />
        <cc:requires
           rdf:resource="http://web.resource.org/cc/Notice" />
        <cc:permits
           rdf:resource="http://web.resource.org/cc/DerivativeWorks" />
        <cc:requires
           rdf:resource="http://web.resource.org/cc/ShareAlike" />
        <cc:requires
           rdf:resource="http://web.resource.org/cc/SourceCode" />
      </cc:License>
    </rdf:RDF>
  </metadata>
  <defs
     id="defs2762" />
  <path
     id="path2759"
     style="fill:#000000;stroke:none;stroke-width:79.104"
     d="M 768.0203,0.01396045 C 763.29946,0.28386808 728.93974,3.6137302 722.97656,11.711261 683.1899,38.430462 632.8908,83.139609 618.16728,120.23432 c -33.84707,85.27494 -57.13776,127.49682 -100.92119,163.55311 -23.85272,22.67307 -56.15398,34.55117 -96.90234,35.63086 -19.87727,0 -80.91444,-21.31671 -121.66281,-53.70683 C 215.86476,202.01085 205.2032,154.00117 181.35048,109.73466 154.51618,57.910429 169.55592,42.101265 127.46578,2.5636556 c -3.97546,0 -18.05287,1.1311633 -20.04057,11.9279084 27.35115,48.249877 21.33231,22.331342 48.28609,131.120316 30.70781,123.94071 156.22331,182.69331 177.56333,218.2778 -21.86497,34.5495 -61.01624,91.02573 -79.89963,135.29228 -18.88339,44.2665 -41.24546,78.00777 -67.08594,101.2207 -25.84042,23.21288 -23.35662,46.15501 7.45313,68.82813 0,28.07149 21.36935,50.74478 64.10547,68.01953 34.7852,-10.79675 87.95751,-27.53202 159.51562,-50.20508 42.73611,0 72.05522,19.43462 87.95703,58.30274 41.74229,69.09898 74.04155,123.08299 96.90039,161.95117 8.11335,11.33383 19.34161,12.63211 28.24675,32.83991 7.49934,17.01771 -22.91012,40.29709 -21.95366,48.36535 -38.34532,1.6681 -55.03254,-19.76781 -76.71301,-17.79706 -28.20577,2.5644 -54.10513,2.5644 -77.69531,0 -23.59018,-2.5641 -150.52423,-15.37107 -177.19141,17.96289 -26.66717,33.33406 -52.2942,30.18756 -92.29492,70.70116 -40.00086,40.5135 -66.925,63.0797 -80.77148,67.6954 -13.84639,4.6155 -24.359473,11.5386 -31.539066,20.7695 C 46.66702,1173.4779 22.564578,1206.2984 0,1246.2992 h 144.61719 c 11.28219,-16.4105 15.89895,-34.8735 13.84766,-55.3867 16.41058,10.2565 29.48667,0.5137 39.23046,-29.2305 9.74379,-29.7442 31.25856,-41.8694 54.33594,-66.9981 23.07738,-25.1286 36.42097,-27.9164 65.65234,-52.0195 29.23138,-24.1031 154.37242,-2.9816 171.8086,1.1211 79.99071,9.5831 103.42546,20.4186 129.0979,39.3779 12.5226,16.7275 24.4131,36.0963 44.59327,42.6501 33.83806,10.6497 92.44332,-107.7932 115.03307,-101.2508 113.887,32.9839 179.31186,-17.3931 371.12737,-34.66785 13.9141,62.62095 44.9716,93.93165 93.1738,93.93165 48.2025,0 60.8746,7.0171 38.0156,21.0528 -81.4966,10.7967 -185.3555,16.7349 -311.57617,17.8144 -30.80975,-2.1594 -58.14144,10.258 -81.99414,37.25 -7.95101,10.7966 -0.99395,26.4512 20.8711,46.9649 38.76065,33.4698 62.61381,45.3459 71.55859,35.6289 l 23.85352,-37.2481 c 8.9449,-11.8765 22.8589,-13.4968 41.7422,-4.8594 l 13.416,11.336 v 0 c 43.7299,-20.5137 168.9563,-29.1512 375.6797,-25.9121 39.7544,3.239 65.8441,-1.889 78.2675,-15.3848 12.4233,-13.4959 16.8946,-36.9795 13.4161,-70.4492 -3.4785,-33.4699 14.1631,-58.5717 52.9238,-75.3067 38.7607,-16.7347 65.8433,-55.06251 81.248,-114.98436 15.4046,-59.92174 14.1629,-157.90282 -3.7265,-293.94141 42.7359,-5.39833 60.1284,62.62167 52.1777,204.05859 -7.951,141.43694 7.4543,262.89958 46.2149,364.38868 12.9202,29.1511 23.8521,33.4707 32.7968,12.9571 9.9385,-61.5413 11.926,-231.59136 5.9629,-510.14656 -9.9388,-88.533 -55.6557,-141.43619 -137.1523,-158.71094 l -451.7109,-3.24023 c -237.5333,0 -413.44606,-36.70732 -527.74028,-110.125 18.88339,-36.70886 29.31894,-61.81272 31.30664,-75.30859 1.9877,-13.49588 1.9877,-29.96047 0,-49.39453 -47.70533,15.11537 -83.48516,35.08943 -107.33789,59.92187 l -29.81641,-24.29297 c 20.87119,-14.03574 61.65896,-63.19618 83.66668,-149.69476 16.85452,-66.24456 55.70021,-90.170874 80.64016,-121.457995 11.414,-14.318848 44.30884,-14.87453 45.09823,-43.796494 C 776.84062,3.3878858 772.74115,-0.2559472 768.0203,0.01396045 Z M 675.26953,343.7093 c -6.95702,42.10724 -41.24382,87.45389 -102.86328,136.03907 l 32.79688,14.57617 44.72265,-17.81445 22.36328,16.19531 c 114.29428,59.38193 265.85745,90.69269 454.69144,93.93164 161.9995,9.71706 287.2278,13.4953 375.6816,11.33594 88.454,-2.15931 132.1834,54.79275 131.1895,170.85742 -0.9939,116.06466 -21.1193,184.62406 -60.377,205.67773 -39.2576,21.05357 -66.091,41.83777 -80.5019,62.35157 -14.411,20.5137 -19.3805,44.266 -14.9082,71.2578 4.4724,26.9917 -26.8342,19.1647 -93.9199,-23.4824 -67.0857,-42.647 -101.6235,-94.47125 -103.6114,-155.47267 -1.9875,-61.00137 27.3314,-143.8656 87.9571,-248.59375 -109.325,80.97531 -149.0796,194.87954 -119.2637,341.71492 -27.8281,-56.14308 -71.8069,-82.59465 -131.9356,-79.35555 -60.1288,3.23906 -120.50527,12.41588 -181.13084,27.53125 -60.6257,15.11544 -108.82839,9.71676 -144.60742,-16.19531 -24.84665,-22.67317 -40.50082,-62.35057 -46.96094,-119.0332 -6.46007,-56.68284 8.19944,-135.22919 43.97851,-235.63867 -73.54585,57.22255 -101.37388,159.79201 -83.48437,307.70703 -45.71764,-31.31049 -86.21783,-87.45428 -121.5,-168.42969 -35.28212,-80.97525 -88.20524,-121.46289 -158.76953,-121.46289 -26.8343,0 -78.51554,18.35565 -155.04297,55.06445 -25.84043,-11.87647 -36.27592,-30.77159 -31.30664,-56.68359 l 74.53906,-108.50781 c 35.77907,-65.85993 61.61967,-102.56726 77.52149,-110.125 7.9509,-16.19507 46.7128,-24.29297 116.2832,-24.29297 29.81588,8.63732 44.72265,20.51341 44.72265,35.6289 0,20.51375 -9.93723,41.02727 -29.81445,61.54102 37.76678,-8.63737 65.09845,-32.92908 81.99414,-72.87695 0,-9.71706 23.8513,-27.53319 71.55664,-53.44532 z M 436.74219,444.11946 c -43.72994,0 -69.07222,18.35369 -76.0293,55.0625 v 3.24023 c 4.96934,9.71701 15.40483,14.57618 31.30664,14.57618 45.71769,-21.59343 68.57617,-41.56751 68.57617,-59.92188 v -3.24023 c 0,-4.31869 -7.9517,-7.55748 -23.85351,-9.7168 z m -353.664065,731.40824 41.539065,9.2324 c 12.30799,14.3593 11.28301,25.6403 -3.07617,33.8457 H 53.847657 Z" />
</svg>
