<?xml version="1.0" encoding="UTF-8" standalone="no"?>
<svg
   width="23.9"
   height="17.973"
   id="svg1904"
   sodipodi:version="0.32"
   inkscape:version="1.2.1 (9c6d41e410, 2022-07-14)"
   sodipodi:docname="US9E2VARA.svg"
   version="1.1"
   xmlns:inkscape="http://www.inkscape.org/namespaces/inkscape"
   xmlns:sodipodi="http://sodipodi.sourceforge.net/DTD/sodipodi-0.dtd"
   xmlns="http://www.w3.org/2000/svg"
   xmlns:svg="http://www.w3.org/2000/svg"
   xmlns:rdf="http://www.w3.org/1999/02/22-rdf-syntax-ns#"
   xmlns:cc="http://creativecommons.org/ns#"
   xmlns:dc="http://purl.org/dc/elements/1.1/">
  <metadata
     id="metadata1911">
    <rdf:RDF>
      <cc:Work
         rdf:about="">
        <dc:format>image/svg+xml</dc:format>
        <dc:type
           rdf:resource="http://purl.org/dc/dcmitype/StillImage" />
      </cc:Work>
    </rdf:RDF>
  </metadata>
  <defs
     id="defs1909" />
  <sodipodi:namedview
     inkscape:window-height="1137"
     inkscape:window-width="1920"
     inkscape:pageshadow="2"
     inkscape:pageopacity="0.0"
     guidetolerance="10.0"
     gridtolerance="10.0"
     objecttolerance="10.0"
     borderopacity="1.0"
     bordercolor="#666666"
     pagecolor="#ffffff"
     id="base"
     inkscape:showpageshadow="2"
     inkscape:pagecheckerboard="0"
     inkscape:deskcolor="#d1d1d1"
     showgrid="false"
     inkscape:zoom="14.070138"
     inkscape:cx="4.3709594"
     inkscape:cy="6.680816"
     inkscape:window-x="-8"
     inkscape:window-y="-8"
     inkscape:window-maximized="1"
     inkscape:current-layer="svg1904" />
  <path
     id="path1906"
     style="fill:#000000;stroke:none;stroke-width:0.920438"
     d="M 5.3007812,0.01367188 C 5.6890481,1.4457304 5.5626957,2.30923 4.953125,2.8027344 4.8374073,2.983874 4.5914367,3.0618637 4.2148438,3.0371094 3.8382509,3.0123547 3.4263013,3.051149 2.9765625,3.15625 2.5268246,3.2613508 2.1186835,3.2029859 1.7519531,2.9785156 1.3852218,2.7540469 1.1496259,2.3188107 1.0429688,1.671875 0.93631154,1.0249391 1.0660232,0.50733957 0.98046875,0.11914062 0.16830136,1.3036552 0.29010431,3.2654192 1.2910156,3.7871094 1.6532966,4.0185452 1.6906449,4.455119 1.4003906,5.09375 0.94061626,5.5063648 0.59828835,5.936139 0.37304688,6.3808594 0.12534612,6.6150302 0.09586361,6.8291899 0.28320312,7.0273438 0.44578516,7.6020931 0.72914121,7.9408061 1.1347656,8.0429688 1.3042994,8.2689934 2.105818,8.382056 3.578125,8.3808594 4.2171447,8.4014634 4.7385029,8.1867518 5.3222656,7.9628906 5.4677568,8.5023636 5.6924095,9.1145521 6.1757812,9.4726562 7.1152217,10.168637 7.7128906,10.734974 7.7128906,11.363281 7.2003224,13.231673 6.4087225,14.999945 5.3339844,16.669922 h 0.023437 c -0.330688,0.314155 -0.5364677,0.727668 -0.6191402,1.240234 h 1.8339844 c -0.016535,-0.214948 0.00118,-0.39611 0.050781,-0.544922 0.3472232,0 0.4210699,-0.165405 0.2226562,-0.496093 0.082673,-0.314156 0.251529,-0.831534 0.5078125,-1.550782 C 7.6097994,14.599112 8.241398,13.511673 9.25,12.056641 c 0.5787044,0.06613 0.981862,0.629298 1.205078,1.6875 0.223213,1.058204 0.0455,2.032922 -0.533203,2.925781 -0.3306877,0.314155 -0.5384198,0.727668 -0.6210938,1.240234 h 1.8359378 c -0.01653,-0.214948 0.0012,-0.39611 0.05078,-0.544922 0.347225,0 0.421071,-0.165405 0.222656,-0.496093 l 0.123047,-3.572266 c 0.148811,-0.793655 0.403821,-1.189453 0.767578,-1.189453 0.843257,-0.08267 1.226694,0.02775 1.097657,0.416016 -0.04409,0.13265 -0.06535,0.959246 0.234374,0.960937 0.100541,0.0092 -0.02986,-0.83471 0.19336,-0.892578 0.446428,-0.115766 0.999875,-0.05407 1.304687,-0.123047 0.341979,-0.07738 0.532199,-0.06433 0.714844,0.02734 0.165042,0.205089 0.03623,0.264373 0.300781,0.677734 0.264552,0.413359 0.144925,0.983423 -0.359375,1.710938 -0.504301,0.727515 -1.046293,1.348761 -1.625,1.861328 -0.330687,0.198414 -0.552228,0.585358 -0.667968,1.164062 h 2.05664 c -0.115742,-0.479496 -0.01727,-0.859537 0.296875,-1.140625 0.396827,0.198414 0.604562,0.05072 0.621094,-0.445312 0.281085,-0.760584 0.645367,-1.388734 1.091797,-1.884766 0.446428,-0.496034 0.536036,-0.860314 0.271484,-1.091797 -0.264552,-0.231483 -0.369913,-0.653853 -0.320312,-1.265625 0.611774,0.793652 1.559924,1.01024 2.849609,0.646485 0.181879,0.264551 0.289195,0.795736 0.322266,1.597656 0.03307,0.801919 -0.179615,1.558552 -0.642578,2.269531 -0.56217,0.396826 -0.86146,0.834957 -0.894532,1.314453 h 1.835938 c -0.08267,-0.330687 -0.01768,-0.661499 0.197266,-0.992187 0.462964,0.14881 0.572232,-0.08159 0.324218,-0.69336 0.115741,-1.074738 0.370753,-2.339889 0.767578,-3.794921 -0.479497,-1.19048 -0.314092,-2.8199147 0.496094,-4.8867192 0.181877,0.066138 0.227658,0.8070083 0.136719,2.2207031 -0.09094,1.4136921 -0.0944,2.4095741 -0.01172,2.9882811 0.08267,0.578705 0.112692,1.016834 0.08789,1.314453 -0.02481,0.297621 0.177525,0.876538 0.607422,1.736328 0.248014,-2.000667 0.279538,-3.725109 0.09766,-5.171875 C 23.503662,9.1840877 23.475601,8.0474248 23.599609,7.2207031 23.723616,6.3939815 23.463201,5.7166019 22.818359,5.1875 22.48767,4.625329 21.461769,4.3457031 19.742188,4.3457031 16.236889,5.0401496 13.641589,5.1386112 11.955078,4.6425781 10.268566,4.1465447 8.8714798,3.8984375 7.7636719,3.8984375 7.4886102,3.939118 7.2077401,3.9031628 6.9296875,3.9023438 6.485549,3.7069067 6.0282719,3.5675366 5.9570312,2.9726562 6.6807723,2.0510878 6.0635297,0.81830363 5.3007812,0.01367188 Z m 0.15625,3.56640622 c 0.1375935,-3.931e-4 0.2492363,0.045997 0.3359376,0.140625 0.086702,0.094628 0.1069508,0.2052551 0.056641,0.3300781 -0.038528,0.095593 -0.06021,0.2797904 -0.064453,0.546875 C 5.7460443,4.6588352 5.7096619,4.7279608 5.6738281,4.796875 5.331597,4.5815047 5.1714307,4.3334394 5.2011719,4.0507812 5.2340575,3.7382439 5.3194377,3.5804709 5.4570312,3.5800781 Z m -1.171875,0.2597657 c 0.1047353,-2.774e-4 0.2142682,0.00254 0.3261719,0.00781 -0.00292,0.3982149 0.4691727,0.931664 0.90625,1.3007813 0.1331539,0.1258407 0.5842216,0.2967816 0.5842216,0.2967816 0,0 0.1821032,-0.4157627 0.232146,-0.6913466 0.4200692,-0.042948 0.9353231,0.013401 1.3359757,0.00589 1.2400837,-0.023251 2.3873366,0.1251855 3.4414066,0.4414063 1.405429,0.4216286 2.892117,0.5747257 4.462891,0.4589843 C 17.14499,5.5444153 18.461326,5.428241 19.519531,5.3125 c 1.058203,-0.1157407 1.702113,-0.059608 1.933594,0.171875 0.231482,0.2314826 0.347656,0.6961788 0.347656,1.390625 0,0.4464296 -0.15655,1.1853475 -0.470703,2.21875 -0.314155,1.0334 -0.405713,1.790035 -0.273437,2.269531 C 20.014971,10.88379 19.404535,10.561829 19.222656,10.396484 17.833765,9.8343137 16.881707,8.9984319 16.369141,7.890625 l -0.421875,-0.125 c 0.59524,1.4880983 1.216483,2.366308 1.861328,2.630859 -0.694447,0.578705 -2.126958,0.934131 -4.292969,1.066407 -1.074736,-0.09921 -1.970203,-0.203072 -2.689453,-0.310547 C 10.106924,11.04487 9.5334102,10.288239 9.1035156,8.8828125 9.1696516,7.7088682 9.6304444,6.6760621 10.490234,5.7832031 9.7957893,5.8328058 9.2188249,6.610601 8.7558594,8.1152344 8.3424988,8.6939396 8.3090273,9.3801762 8.65625,10.173828 8.2098214,9.9423477 7.888037,9.4721456 7.3671875,9.1816406 6.8443343,8.9153822 6.591948,8.7150566 6.3496094,8.5859375 5.8449818,8.2611519 5.819842,7.67517 5.9433594,7.0605469 6.0429057,6.7861944 6.3079032,6.8917772 6.3887355,6.5880391 6.2392216,6.6232366 5.8337618,6.5845723 5.5293435,6.875089 5.2288471,7.5071256 4.1953125,7.7441406 4.1953125,7.7441406 4.1200923,7.7569744 3.8638971,7.7700274 3.7988281,7.7714844 3.1439765,7.7918521 2.3655423,7.7115222 1.5039062,7.6035156 1.664131,7.3527063 1.5407634,7.1159024 1.1328125,6.8945312 1.1269944,6.5965101 1.2701267,6.2327509 1.5644531,5.8027344 1.8587803,5.3727187 2.2096404,4.8561431 2.6152344,4.2519531 2.9952012,3.9796531 3.552009,3.8417847 4.2851562,3.8398438 Z m -1.0625,0.9140624 c -0.1712975,0.00576 -0.3061095,0.087384 -0.40625,0.2441407 -0.099457,0.3092505 0.031499,0.5309494 0.3964844,0.6660156 C 3.5651065,5.8498236 3.8588239,5.8494811 4.09375,5.6660156 4.0310335,5.272781 3.8965088,5.0104742 3.6875,4.8769531 3.5112229,4.7900939 3.3558878,4.7494238 3.2226562,4.7539062 Z M 18.478516,10.792969 c 0.214946,1.107808 0.184923,1.598618 -0.08789,1.474609 -0.272817,-0.124008 -0.408203,-0.333239 -0.408203,-0.630859 0,-0.297621 0.165407,-0.579199 0.496093,-0.84375 z m 0.222656,0.148437 c 0.429893,0.396824 0.647969,0.7488 0.65625,1.054688 0.0083,0.305887 -0.07443,0.441274 -0.248047,0.408203 -0.173612,-0.03307 -0.259766,-0.171905 -0.259766,-0.419922 0,-0.248018 -0.04924,-0.596541 -0.148437,-1.042969 z"
     sodipodi:nodetypes="ccsscsccccccccscccccccscsccccccccccccsscccccssccscccccccsccccsccsccccsssccsssccccsscssssccccccscccccccccccccscscccccccsscccssc" />
</svg>
