<?xml version="1.0" encoding="UTF-8" standalone="no"?>
<svg
   width="1120.1488"
   height="1800"
   version="1.1"
   id="svg4618"
   sodipodi:docname="US9E134VARA.svg"
   xml:space="preserve"
   inkscape:version="1.2.2 (732a01da63, 2022-12-09)"
   xmlns:inkscape="http://www.inkscape.org/namespaces/inkscape"
   xmlns:sodipodi="http://sodipodi.sourceforge.net/DTD/sodipodi-0.dtd"
   xmlns="http://www.w3.org/2000/svg"
   xmlns:svg="http://www.w3.org/2000/svg"><defs
     id="defs4622"><clipPath
       clipPathUnits="userSpaceOnUse"
       id="clipEmfPath1"><path
         d="M 0,0 H 145.90992 V 254.16567 H 0 Z"
         id="path4808" /></clipPath><pattern
       id="EMFhbasepattern"
       patternUnits="userSpaceOnUse"
       width="6"
       height="6"
       x="0"
       y="0" /></defs><sodipodi:namedview
     id="namedview4620"
     pagecolor="#ffffff"
     bordercolor="#000000"
     borderopacity="0.25"
     inkscape:showpageshadow="2"
     inkscape:pageopacity="0.0"
     inkscape:pagecheckerboard="0"
     inkscape:deskcolor="#d1d1d1"
     showgrid="false"
     inkscape:zoom="0.25191891"
     inkscape:cx="613.29259"
     inkscape:cy="448.55704"
     inkscape:window-width="1920"
     inkscape:window-height="1137"
     inkscape:window-x="-8"
     inkscape:window-y="-8"
     inkscape:window-maximized="1"
     inkscape:current-layer="svg4618" /><path
     id="path5689"
     style="color:#000000;fill:#000000;stroke-width:0.869965;stroke-linecap:round;stroke-linejoin:round;-inkscape-stroke:none"
     d="m 958.45741,1.2620549 c -4.2961,0.2210522 -7.8131,1.8729691 -10.5519,4.9562055 L 858.50971,106.85461 c -11.8547,34.48681 13.2014,57.43424 15.3402,63.16255 3.1042,5.61879 9.0253,13.97639 15.9745,24.83659 6.9492,10.86019 14.4131,23.17055 14.7161,23.80426 27.4532,57.41604 -0.0614,83.78072 40.5605,242.73758 -19.5117,14.9159 -33.0934,27.59344 -44.3061,39.18483 1.6472,-86.31923 -8.0502,-148.59527 -36.8024,-192.04741 -31.6323,-47.80509 -84.5563,-71.40742 -158.7712,-70.80987 -74.2145,0.59754 -121.0554,18.82266 -140.5217,54.67652 -24.3325,-10.75616 -48.0577,-16.13502 -71.1738,-16.13502 -23.116,0 -40.4525,9.56097 -52.0105,28.68299 -11.558,19.12204 -28.59079,28.983 -51.09851,29.58062 -22.50775,0.59754 -50.49181,-4.48124 -83.94924,-15.23743 -33.45743,-10.75611 -55.3567,-6.2757 -65.69807,13.44389 -10.34143,19.71958 -21.29106,34.06104 -32.84904,43.02449 -11.55802,8.96347 -18.85773,21.81142 -21.89936,38.5432 -3.04155,16.73178 1.52119,30.47645 13.68754,41.23264 -37.71568,-5.9756 -66.30721,-3.88373 -85.77335,6.27482 -19.46611,10.15857 -29.19914,34.35928 -29.19914,72.60341 0,37.04899 13.99202,46.31156 41.97462,27.78708 27.98254,-18.52449 51.09843,-34.95776 69.34797,-49.29932 -6.08313,57.36615 29.80817,84.85386 107.67269,82.46361 77.86459,-2.39027 121.96679,3.28696 132.30819,17.03094 10.3414,13.74392 22.2039,15.83579 35.5869,6.27483 -16.9803,20.85015 -40.0342,50.05326 -60.03724,75.06046 -14.51842,2.3085 -28.93302,9.95445 -44.48446,19.37685 -18.27092,11.0701 -36.86818,24.82806 -51.39509,36.86081 -53.43525,44.26095 -103.37097,86.21483 -126.16559,132.45509 -56.18467,113.9739 -59.95859,195.45628 -80.77253,285.39328 -5.9235,25.5955 -36.80393,40.3912 -60.78296,41.0677 -15.99621,0 -31.99246,22.1106 -47.98864,66.3303 1.33305,31.0732 8.66521,46.6099 21.99536,46.6099 h 135.96665 c 62.89943,-14.4254 64.16168,-106.956 74.92995,-155.7255 5.60603,-25.0134 12.55724,-49.615 22.75483,-72.0443 -0.60087,35.6009 9.07488,79.6081 29.83516,166.4007 10.94975,27.4881 26.15668,53.1841 45.62281,77.0863 38.93226,124.2935 58.39829,201.9778 58.39829,233.0511 0,31.0732 -10.34052,58.2627 -31.02323,81.5677 -20.68282,23.305 -41.36538,34.9562 -62.04819,34.9562 -32.84912,0 -52.31686,18.5252 -58.39999,55.574 0,37.0492 9.12552,55.5743 27.37505,55.5743 h 235.41892 c 23.1161,-14.3415 34.6748,-51.3919 34.6748,-111.1483 0,-59.7563 20.6826,-114.732 62.0483,-164.9273 34.0655,5.9757 63.8741,28.6831 89.4231,68.1221 -7.2996,62.1469 -20.075,94.4149 -38.3247,96.8052 -35.2822,0 -54.7483,18.5252 -58.3982,55.574 1.2166,37.0492 10.3421,55.5743 27.375,55.5743 h 186.1445 c 23.1162,0 34.6748,-37.6471 34.6748,-112.9402 l -9.1256,-157.7581 c -42.582,-29.8784 -54.7484,-77.683 -36.4989,-143.415 12.1664,54.9759 30.4156,118.3188 54.7485,190.0265 24.3325,71.7077 59.6166,146.4032 105.8486,224.0868 h 56.57249 c -68.13159,-266.5134 -106.45459,-470.584 -114.97079,-612.2065 -8.5164,-141.6228 -13.5902,-342.38305 -8.1154,-439.78596 56.5489,-51.34411 179.76669,-185.05012 230.98519,-259.43272 2.7583,-4.00503 3.0123,-9.18699 0.6583,-13.43378 -40.6287,-73.29886 -37.988,-211.16093 -109.2674,-302.11603 -3.083,-26.10687 -6.9437,-53.54843 8.1656,-71.577823 10.5172,-11.839643 8.8651,-41.242468 -19.32609,-79.12915 C 985.27301,3.3212076 967.90891,0.7757509 958.45741,1.2620549 Z m 2.1259,28.8564541 c 29.4957,32.234192 38.1089,55.257257 25.839,69.070248 -9.0595,22.111673 -19.6469,59.614373 -6.7701,76.850623 37.64689,43.13561 68.47499,222.72343 112.01209,302.71218 -111.98296,159.43686 -207.72435,232.6077 -355.97859,338.97196 -5.87199,4.21283 -9.9608,10.24966 -7.2124,16.86254 2.7488,6.61368 10.4354,9.78583 17.1678,7.08486 12.1719,-4.88233 23.8352,-10.01704 35.1394,-15.33846 8.0851,104.01346 8.958,183.49884 7.0409,232.37234 -1.9979,50.7929 -1.0858,107.0377 -5.9523,161.416 -4.8666,54.3782 -13.0792,115.031 -24.6373,181.9581 -11.5577,66.927 4.5634,113.5383 48.3624,139.8312 l 9.1239,145.2069 c 0,10.7561 -1.824,28.3845 -5.474,52.8847 -3.6499,24.5001 -13.9919,36.7513 -31.0249,36.7513 h -69.348 c -14.5995,-7.1711 -17.033,-13.1464 -7.2998,-17.9269 15.8162,-13.1465 15.2069,-21.5123 -1.8257,-25.0976 -15.8162,0 -23.7235,14.3415 -23.7235,43.0245 h -14.5996 c -10.9497,-38.244 4.8665,-57.9643 47.4486,-59.1595 v -30.4765 h -16.4253 c 14.5994,-28.6831 21.901,-65.1335 21.901,-109.3531 -35.2822,-46.6101 -77.866,-77.0863 -127.7479,-91.428 -161.8124,-89.6346 -256.10159,-182.8554 -282.86759,-279.6608 -11.64072,-52.4362 -11.96792,-75.5172 -3.64989,-132.6588 6.08319,-23.9026 0.89429,-52.5871 14.27727,-86.05061 l 22.22166,59.15941 c 8.51646,4.7806 15.81614,5.9756 21.89936,3.5853 3.64985,-5.9755 10.94961,-20.317 21.89935,-43.0244 47.44874,-39.43914 88.20654,-85.45206 122.27224,-138.0377 34.0659,-52.5856 83.34,-118.31885 147.8215,-197.19727 l -12.7754,-10.75612 c -76.6479,78.87837 -135.9588,149.09371 -177.9327,210.64283 -41.97393,61.54906 -76.34487,101.28634 -103.1108,119.21329 -12.16635,-46.61 15.20858,-120.70901 82.1234,-222.29489 h 40.1489 c 96.1141,-119.51272 168.2003,-178.97034 216.2574,-178.37279 48.0569,0.59756 79.082,13.74386 93.0731,39.43911 3.7915,-0.99484 7.2145,-1.48524 10.5023,-2.01415 2.5411,0.2472 5.1498,0.009 7.5603,-1.28325 0.6663,-0.35719 1.1851,-0.68893 1.8396,-1.04413 2.5581,-0.85384 4.9829,-1.93613 6.7734,-3.84808 42.819,-24.34271 58.7007,-44.15962 72.8419,-64.36496 15.0881,-21.55841 29.3005,-43.79202 81.8765,-82.38614 5.1625,-3.79054 6.773,-10.69476 3.8059,-16.31523 -45.3272,-164.88844 -15.0999,-188.70184 -45.0813,-251.40546 -3.1227,-6.53089 -9.2766,-15.66331 -16.2574,-26.57285 -7.0088,-8.26974 -15.8738,-17.63118 -25.1343,-31.60654 -5.1983,-14.67627 -5.8158,-29.96167 5.2374,-42.40476 l 13.1475,-14.799558 c 12.4715,-4.950868 17.0142,-2.793567 13.6292,6.470165 0.3627,15.951723 6.3014,20.171623 17.8157,12.662503 8.7643,-9.86642 3.5412,-22.16411 -15.6693,-36.892819 l 7.8878,-8.880077 c 17.9717,-0.236331 24.4083,6.151937 19.3107,19.161294 3.9488,15.550002 10.3261,19.277922 19.1306,11.183874 9.6407,-10.853092 2.0854,-26.887865 -22.6657,-48.10363 z M 708.87121,267.30204 c 1.1417,0 2.2606,0.0281 3.3894,0.0438 -29.6225,14.07632 -51.45,31.98131 -65.4375,53.73683 -8.5166,3.58537 -26.1586,-1.19513 -52.9243,-14.3415 9.7331,-26.29285 48.0576,-39.43912 114.9724,-39.43912 z m 8.8153,0.1802 c 62.0323,2.2943 103.8161,29.11235 125.3187,80.49157 21.4162,51.17236 28.7029,112.64179 26.7699,189.9861 -1.1776,1.67179 -2.5832,3.55566 -3.7014,5.15323 -12.4752,17.82527 -23.3128,31.57066 -54.318,50.50512 -23.0621,-26.28044 -56.1074,-39.48459 -99.2346,-39.48459 -49.8819,0 -93.6803,16.43331 -131.3962,49.29932 -37.7154,32.86602 -77.2568,78.57889 -118.6223,137.14014 H 413.2282 c 21.89941,-31.0733 54.14081,-71.10896 96.72301,-120.10919 23.1161,-81.26872 54.4447,-143.71495 93.9852,-187.33707 39.5407,-43.62219 67.2192,-64.83595 83.0354,-63.64082 l 29.1992,23.30409 c 33.5446,-41.18945 34.0336,-82.95964 1.5155,-125.3079 z m -6.9912,26.70927 c 10.9498,23.90254 10.3422,45.41633 -1.8241,64.53843 -18.2494,-7.17084 -32.2415,-16.73172 -41.9746,-28.683 9.7331,-16.73178 24.3325,-28.68467 43.7987,-35.85543 z m -203.0534,12.53618 c 27.8496,-0.14006 68.7677,13.60878 122.7558,41.24612 l 18.2494,-7.17075 18.2495,12.54797 c -71.7813,35.85381 -127.746,105.17242 -167.8951,207.95339 -10.9497,21.51229 -22.2048,27.18953 -33.7628,17.03095 -11.558,-10.15857 -52.92323,-13.74391 -124.09632,-10.75613 -71.17306,2.98782 -109.80132,-4.48297 -115.88452,-22.40984 -6.08315,-17.92694 -3.64986,-27.48784 7.29978,-28.68299 10.94974,-1.19511 28.89533,0.89675 53.83636,6.27482 24.94096,5.37806 46.53654,5.0797 64.78602,-0.89593 18.24953,-5.97566 38.62838,-9.26264 61.13613,-9.86019 22.50775,-0.59755 52.61965,-0.29918 90.33525,0.89592 l 5.474,-26.88947 c -21.8994,-8.36591 -45.319,-18.82363 -70.26,-31.37244 -24.94103,-12.54884 -48.05686,-15.53744 -69.34797,-8.96428 -21.29109,6.57323 -39.23675,3.88461 -53.83634,-8.06668 -14.59959,-11.95125 -46.84103,-11.95125 -96.72301,0 -7.2998,-13.14641 -4.25911,-25.99436 9.12387,-38.54319 13.38295,-12.5488 24.63804,-25.39675 33.7628,-38.54319 9.12477,-13.14641 22.50759,-16.43341 40.14881,-9.8602 17.64117,6.57323 55.05285,10.45862 112.23463,11.65372 19.46611,0 38.93211,-13.44636 58.39831,-40.33671 7.2998,-10.0839 19.3058,-15.16686 36.0154,-15.2509 z m -1.3406,16.14851 c -10.9497,0 -19.4661,5.37715 -25.5492,16.13334 -6.0832,10.75611 -14.5996,22.70732 -25.5493,35.85373 42.5821,2.39026 83.34,-4.78046 122.2723,-21.51224 -36.4989,-20.31717 -60.224,-30.47483 -71.1738,-30.47483 z m -231.76903,121.90271 -3.64989,43.02451 -10.94968,-1.79186 -7.29978,-39.44079 z m 9.12388,1.79186 27.37505,8.96427 -10.94968,34.0619 h -12.77548 z m 104.02279,1.79352 -16.42537,35.85374 -14.59957,-1.79185 -3.64989,-19.72039 z m -144.17162,3.58537 v 30.47652 l -7.29978,-3.58536 -5.4757,-23.30578 z m 72.99786,5.37723 16.42538,3.58706 -5.47571,25.09761 h -9.12387 z m 98.54882,0 29.1991,8.96427 c -2.8807,8.4894 -9.1873,14.36086 -18.8889,17.6389 14.566,0.32618 29.9731,1.01475 46.2623,2.0815 l -12.7738,7.17075 c -48.66537,2.39027 -89.11945,4.18212 -121.36021,5.37723 -32.24082,1.19515 -63.26563,3e-5 -93.07312,-3.58538 -29.80757,-3.58535 -51.70679,-1.79188 -65.69807,5.3789 -13.99132,7.17077 -28.89456,16.43168 -44.71076,27.78539 -15.81626,11.35373 -23.72516,8.66511 -23.72516,-8.06668 0,-16.73183 5.47563,-28.08459 16.42537,-34.06021 10.94968,-5.97566 28.2862,-8.3659 52.01055,-7.17074 23.72436,1.19511 47.14567,4.18208 70.26172,8.9626 23.11608,4.78048 52.31509,4.78048 87.59743,0 22.68669,-3.07389 49.42028,-4.40828 80.15535,-4.02324 z m 1.6818,26.45329 0.14229,2.23138 c 3.07673,-0.50372 5.89571,-1.20623 8.48611,-2.0815 -2.9114,-0.0653 -5.78583,-0.11428 -8.6284,-0.14988 z m 58.5406,5.81676 -1.8241,19.71872 -23.7252,-1.79185 c 7.2998,-2.39027 15.8162,-8.36586 25.5493,-17.92687 z m -45.6228,5.37722 3.6499,12.54965 h -12.77552 l 3.64992,-10.75613 z m -69.34971,5.3789 7.29979,10.75611 -23.72344,1.79186 7.29978,-10.75612 z m -74.82195,1.79185 3.6499,16.13502 -21.89935,-5.3789 5.47398,-8.9626 z m 23.72346,1.79352 3.64989,17.92687 -19.65182,-1.75648 c 1.41149,-0.68119 6.7167,-6.03586 16.00193,-16.17039 z m 66.47124,234.6913 c -8.89948,11.21816 -15.09384,18.71611 -24.49662,30.62641 -52.3152,68.12232 -87.79002,130.543 -85.35675,201.05545 l -4.06648,26.61835 c -8.5164,25.09766 -8.16845,24.30276 18.59748,2.79046 -4.08989,9.9301 -7.57697,18.7444 -10.66852,27.0932 -0.28479,0.2467 -0.68491,0.2962 -0.94976,0.5692 -36.26838,37.3945 -51.1337,86.6348 -61.55958,133.1541 -10.74799,69.4229 -12.31697,70.2638 -25.1601,103.6407 -2.04994,5.418 -4.20923,10.5919 -6.65689,15.1733 -0.0291,0.1198 -0.0568,0.2399 -0.0822,0.3604 -8.66322,11.3367 -21.76019,17.0158 -39.30878,17.0158 h -19.99641 c -11.99719,-5.9757 -13.32906,-10.7562 -3.99791,-14.3414 11.99712,-10.7564 11.32951,-17.927 -2.00067,-21.5123 -13.33014,0 -19.32879,11.9511 -17.99574,35.8537 H 79.98056 c -11.99718,-13.1465 -11.3295,-22.1108 2.00068,-26.8911 9.33114,-13.1465 7.99753,-20.3171 -3.99963,-21.5123 -14.66322,0 -21.99536,16.1348 -21.99536,48.4034 H 31.99194 c 5.33204,-43.0247 17.32923,-64.5368 35.99147,-64.5368 30.13151,-9.1945 55.15275,-31.5143 60.48981,-58.3611 15.39519,-77.4421 29.71201,-166.3874 84.77215,-280.13246 18.74006,-38.01532 66.23827,-79.88463 119.44013,-123.95222 12.18881,-10.09613 27.82359,-21.50128 42.99124,-31.11479 z m 10.1765,30.62641 h 21.90108 l -105.84861,188.23466 -1.82409,-1.79352 c 9.73307,-63.34183 38.3229,-125.48964 85.77162,-186.44114 z m 471.22016,13.87332 c -5.7967,100.37259 -3.9331,266.47834 6.0072,402.03344 10.3414,141.0252 48.9697,338.2229 115.8845,591.5901 -43.7987,-63.3417 -80.6029,-142.8181 -110.4106,-238.4282 -29.8075,-95.6102 -45.0143,-186.1426 -45.6227,-271.5943 -0.6083,-85.4516 -3.0416,-153.2767 -7.2999,-203.472 -4.1721,-49.1826 8.20547,-142.53774 2.92258,-257.59099 8.8655,-5.26616 30.17842,-16.95628 38.51892,-22.53805 z M 373.07939,1373.3959 c 49.88202,49.0001 115.58142,95.013 197.09592,138.0378 -43.7987,57.366 -65.6998,115.927 -65.6998,175.6833 0,14.3416 -2.4332,32.8668 -7.2998,55.574 -4.8666,22.7076 -20.0735,34.062 -45.6228,34.062 h -98.54879 c -14.59961,-7.1711 -17.03285,-13.1464 -7.29979,-17.9269 15.81627,-13.1465 15.20879,-21.5123 -1.82408,-25.0976 -15.81628,0 -23.72517,14.3415 -23.72517,43.0245 h -14.59956 c -12.16635,-43.0247 8.51629,-64.5384 62.04817,-64.5384 v -25.0976 c 37.71567,-26.2929 56.57422,-62.7433 56.57422,-109.3531 0,-35.8541 -17.03279,-103.9775 -51.09852,-204.368 z m -62.04818,331.6497 c -25.54926,15.5366 -34.06566,39.4391 -25.54926,71.7074 h -20.07526 c -7.29985,-47.8051 7.90885,-71.7074 45.62452,-71.7074 z m 352.2155,0 c -24.3325,15.5366 -32.8491,39.4391 -25.5492,71.7074 h -20.0736 c -7.2998,-47.8051 7.9073,-71.7074 45.6228,-71.7074 z"
     sodipodi:nodetypes="scccsccccscssssssscssscssccssssccscccccssscscsccccsscccsccscccccssccccsscccssccssccccccccccccccccsccscccsccsccsccsccccccccccccccccscccccsccccsccccsccsscccsssssssccssscssscssscccsccccccccccccccccccccccccccccccsssssssssccccccccccccccccccccccccccccccccccccccccsccccccccccscscccscccscssscccccsscccccccsccccccccccc" /></svg>
