<?xml version="1.0" encoding="UTF-8" standalone="no"?>
<svg
   width="1900"
   height="1800"
   version="1.1"
   id="svg134"
   xmlns="http://www.w3.org/2000/svg"
   xmlns:svg="http://www.w3.org/2000/svg">
  <defs
     id="defs138" />
  <path
     id="path132"
     style="fill:#000000;stroke:none;stroke-width:80.0055"
     d="m 943.48222,1.7539062 c 0,173.3143938 64.70568,259.9726538 194.11328,259.9726538 h 417.6875 c 0,0 84.3589,405.54147 85.8399,495.88267 173.3147,0 259.9726,-60.66023 259.9726,-181.98047 l -85.8418,-449.08774 c 0,-35.818755 -11.265,-65.571311 -33.7969,-89.257817 C 1758.9263,13.596687 1726.2858,1.7539062 1683.535,1.7539062 Z M 1683.535,29.484375 c 32.3524,0 57.1941,8.666584 74.5253,25.998047 17.3314,17.331423 25.9981,40.438492 25.9981,69.324218 1.1557,33.50799 -7.7994,60.08343 -26.8633,79.72656 -19.0655,19.64205 -43.6197,29.46289 -73.6601,29.46289 -28.8856,-1.15483 -52.571,-12.71032 -71.0586,-34.66406 -18.4858,-21.9528 -27.7305,-46.21693 -27.7305,-72.79101 1.1559,-30.04161 10.3991,-53.727175 27.7305,-71.058598 17.3314,-17.331463 41.0172,-25.998047 71.0586,-25.998047 z m -708.85548,3.466797 h 112.65428 c 0,76.258738 58.348,114.386718 175.0469,114.386718 h 292.9023 c 0,20.79787 15.5987,48.52854 46.7949,83.19141 h -478.3476 c -99.367,0 -149.05078,-65.85955 -149.05078,-197.578128 z m 143.84958,0 h 476.6152 C 1568.5705,59.526245 1555.283,87.833464 1555.283,117.875 h -292.9023 c -95.9009,0 -143.8516,-28.308225 -143.8516,-84.923828 z m 679.8837,166.308128 71.4874,376.36946 c 0,99.36632 -66.4379,149.62916 -199.3125,150.78516 l -16.7467,-112.6543 c 77.4137,0 99.3743,-57.15382 99.3743,-173.85263 L 1700.867,261.72656 c 25.4195,0 74.681,-27.60056 97.5458,-62.46726 z m -213.6669,62.46726 h 84.9258 l 52.3464,178.18043 c 0,95.90087 -11.5612,142.65536 -68.1771,142.65536 z M 291.38672,283.33594 c -64.59748,0 -114.55999,19.93396 -149.88672,59.80273 -35.32675,39.86877 -52.990234,85.54147 -52.990234,137.01758 0,59.55084 19.933994,108.00031 59.802734,145.3457 2.49779,2.33971 5.11854,4.38696 7.67773,6.58008 C 82.53136,589.46317 46.055089,532.89896 47.630859,461.98828 42.584171,447.85758 35.519573,443.3166 26.435547,448.36328 10.286192,460.4753 2.2109375,482.17543 2.2109375,513.46484 c 0,30.28007 12.1118505,68.88615 36.3359375,115.82032 24.224033,46.93409 72.673515,84.5335 145.345705,112.79492 -3.02805,19.17734 -3.7855,34.06407 -2.27149,44.66211 1.51403,10.59806 -8.83172,48.1955 -31.03711,112.79297 -18.16803,15.14007 -27.25195,31.29053 -27.25195,48.44922 0,18.16808 3.53233,30.27994 10.59766,36.33593 0,16.14939 37.8506,24.22459 113.55078,24.22459 16.14935,-1.0094 29.26991,-11.60822 39.36328,-31.7949 13.12136,17.15868 30.53365,28.7662 52.23437,34.8223 21.70071,6.056 36.08311,17.9167 43.14844,35.58 7.06539,17.6634 22.70951,35.0738 46.9336,52.2325 0,70.6535 33.11601,220.7212 103.76953,295.4121 v 21.1953 c -22.20545,40.3734 -37.0921,64.8503 -44.66211,73.4297 -7.57,8.5794 -11.85979,21.7019 -12.86914,39.3652 -1.00929,17.6635 -17.66413,50.2136 -49.96289,97.6524 -28.26142,13.1213 -47.43984,35.3277 -57.53321,66.6171 -28.26137,24.2241 -51.47452,59.5512 -69.64257,105.9805 H 439.0625 l 27.25195,-49.9629 c 1.00929,-13.1214 7.06524,-18.6731 18.16797,-16.6543 11.10267,2.0186 16.14802,-7.8227 15.13867,-29.5234 -1.0093,-21.7007 20.18645,-60.8112 63.58789,-117.334 24.22408,-11.1027 38.85961,-27 43.90625,-47.6914 5.04669,-20.6915 28.26175,-45.1682 69.64454,-73.4297 25.23338,-27.252 49.96346,-43.4025 74.1875,-48.4492 l 49.96093,77.2148 c 4.03735,27.2521 16.65558,50.4672 37.85157,69.6446 l 15.13867,134.7461 c -28.26132,26.2427 -47.94219,60.0567 -59.04492,101.4394 h 145.34179 v -57.5332 c 40.37346,-7.0654 51.47471,-26.7462 33.30664,-59.0449 -28.26118,-53.4949 -43.14789,-90.3368 -44.66211,-110.5235 -1.5121,-20.1866 -1.25908,-38.3546 0.75977,-54.5039 2.01861,-16.1494 -1.26244,-32.5511 -9.8418,-49.205 -8.57926,-16.6541 -16.40135,-39.6161 -23.46679,-68.8868 103.96168,3.0279 183.69958,-1.0105 239.21288,-12.1132 0,21.196 6.0559,52.9907 18.168,95.3828 h 19.6816 l 19.6836,-87.8125 c 0,-8.0747 39.3637,-22.2059 118.0918,-42.3926 l 6.0547,130.2051 c -11.1026,44.4107 -26.4937,83.5231 -46.1758,117.3359 -19.6821,33.8127 -45.674,66.8691 -77.9726,99.168 -30.2801,25.2334 -49.4566,58.0368 -57.5313,98.4101 h 146.8594 l 19.6816,-63.5898 c 10.0933,4.0371 22.2051,5.5521 36.336,4.543 14.1303,-1.0093 20.6907,-13.6256 19.6816,-37.8496 -1.0093,-24.2241 13.6262,-71.6629 43.9063,-142.3165 26.2426,-9.084 42.8973,-25.7388 49.9628,-49.9628 17.1587,-47.4388 44.9148,-85.7938 83.2696,-115.0645 26.2427,10.0933 54.5051,35.0746 84.7851,74.9434 30.2801,39.8687 42.8963,115.3167 37.8496,226.3437 -34.3176,32.2987 -53.4942,67.1213 -57.5312,104.4668 h 155.9414 v -57.5332 c 28.2616,0 39.8691,-7.5689 34.8223,-22.709 -5.0467,-15.14 -12.1114,-48.4495 -21.1954,-99.9258 -9.084,-51.476 -9.084,-115.5678 0,-192.2773 -31.2895,-46.4295 -52.4871,-91.851 -63.5898,-136.2617 26.2429,-29.2708 44.6636,-77.7183 55.2617,-145.3438 10.5979,-67.6255 7.3189,-125.6632 -9.8398,-174.1113 20.1864,50.4669 29.7747,109.0089 28.7656,175.625 -1.0097,66.6161 -0.5051,117.8405 1.5137,153.6719 2.0189,35.8314 3.0273,95.3821 3.0273,178.6523 0,83.2702 4.5429,143.0741 13.627,179.4102 9.084,36.336 23.2152,54.5039 42.3925,54.5039 26.2427,2.0186 43.9044,-19.4303 52.9883,-64.3457 9.0841,-44.9154 3.5344,-115.3161 -16.6523,-211.2031 -43.4015,-91.8496 -60.8137,-185.7185 -52.2344,-281.6055 8.5793,-95.887 -6.0562,-179.15715 -43.9062,-249.81056 -37.8502,-70.65351 -118.5967,-107.24226 -242.2403,-109.76563 -123.6436,-2.52331 -234.923,8.83107 -333.8379,34.06446 -98.9148,25.23338 -219.02684,18.42191 -360.33395,-20.4375 C 703.50752,770.77533 598.22452,668.90195 524.54297,658.80859 v -7.57031 l -19.68164,6.05664 c 46.42947,-53.49474 69.64453,-100.93362 69.64453,-142.3164 -8.07473,-49.45746 -16.65426,-74.18555 -25.73828,-74.18555 h -19.68164 v 24.22265 c 0,37.34541 -7.06649,67.62707 -21.19727,90.8418 -11.04072,23.92163 -35.89309,45.9504 -74.14453,66.14453 1.2212,-1.39788 2.55529,-2.62302 3.74414,-4.07031 34.82208,-42.39215 52.23242,-88.31793 52.23242,-137.77539 0,-46.42942 -17.41034,-90.33596 -52.23242,-131.71875 -34.82208,-41.38274 -83.52273,-63.08287 -146.10156,-65.10156 z m 1.51367,42.39258 c 49.45747,0 87.55924,15.39104 114.30664,46.17578 26.7474,30.78474 40.62742,66.86921 41.63672,108.25195 0,40.37344 -14.38434,76.45785 -43.15039,108.25195 -28.76604,31.79408 -66.36349,48.19573 -112.79297,49.20508 -45.42012,0 -83.77509,-14.88862 -115.06445,-44.66406 -31.2894,-29.7754 -46.9336,-67.87723 -46.9336,-114.30664 0,-41.38279 14.12928,-77.21406 42.39063,-107.49414 28.26142,-30.28006 68.1313,-45.41992 119.60742,-45.41992 z m 204.39063,355.79101 c -9.08403,51.47621 -24.22388,77.46613 -45.41993,77.9707 -21.19604,0.50479 -39.86822,0.25349 -56.01757,-0.75585 -12.11208,-10e-6 -20.6916,4.03664 -25.73829,12.11132 l -10.59961,-15.14062 10.59961,-6.05664 c 2.01869,-21.1961 44.41026,-43.90488 127.17579,-68.12891 z m -178.65235,4.54102 c 14.13072,11.10273 22.20592,28.7662 24.22461,52.99023 l -10.59961,6.05664 18.16797,28.76563 c 10.09332,13.12137 20.9454,16.14936 32.55274,9.08398 11.60739,-7.06534 28.26022,-8.57836 49.96093,-4.54101 21.70071,4.03734 39.86852,1.00933 54.50391,-9.08399 14.63533,-10.09338 26.496,-35.83205 35.58008,-77.21484 42.39207,0 123.45134,96.57293 247.59961,134.92773 124.14832,38.35475 226.09059,56.01822 305.82809,52.99024 79.7377,-3.028 148.6253,-12.36504 206.6621,-28.00977 58.0368,-15.64473 112.7934,-23.21365 164.2696,-22.70898 51.4761,0.50467 103.4579,2.52397 155.9433,6.05664 52.4855,3.53271 86.2974,15.39143 101.4375,35.57812 -24.224,-18.16805 -49.4566,-25.23265 -75.6992,-21.19531 v 22.70898 c 49.4575,12.11202 80.2415,65.6068 92.3535,160.48436 12.112,94.8776 -10.0943,171.0831 -66.6172,228.6153 15.1401,91.8496 -17.6631,111.7834 -98.4101,59.8027 -80.7468,-51.9808 -155.4375,-78.9792 -224.0723,-80.9981 l -7.5703,24.2227 c 16.1493,7.0653 27.757,16.6555 34.8223,28.7676 -169.5685,60.5602 -327.0249,83.7733 -472.36917,69.6426 l -16.6543,-127.1758 c 0,-17.1587 -12.1119,-32.2986 -36.33593,-45.42 l -45.41992,-62.0742 -24.22461,10.5977 74.1875,104.4668 c -14.13066,38.3547 -21.19727,81.7569 -21.19727,130.2051 -140.29769,-62.5789 -209.68979,-128.4386 -208.17578,-197.5782 1.51403,-69.1395 14.38338,-114.8122 38.60742,-137.0175 24.22408,-22.2054 42.8962,-62.57966 56.01758,-121.12113 -1.00935,-7.06539 -11.10195,-10.59766 -30.2793,-10.59766 -13.12142,59.55079 -33.30846,102.69989 -60.56054,129.44729 -27.25203,26.7474 -43.90687,59.5508 -49.9629,98.4101 -6.05604,38.8595 -9.81324,85.0736 7.57032,121.8789 17.38456,36.8075 40.87801,70.1483 89.32617,83.2696 48.44807,13.1215 72.67383,28.7655 72.67383,46.9336 -62.57879,15.1399 -124.65313,6.0561 -186.22266,-27.252 -58.54143,-65.6068 -85.60156,-211.1316 -85.60156,-281.7851 l -51.47656,-42.3926 c 0,-23.2147 -14.38234,-38.10339 -43.14844,-44.66409 -28.76609,-6.56069 -55.26229,-30.5313 -79.48633,-71.91406 l -13.625,1.51367 c -2.01865,39.36405 -13.62618,59.04492 -34.82227,59.04492 -10.09332,-7.06529 -24.72883,-7.06529 -43.90625,0 -26.24272,-7.06529 -39.36523,-19.68152 -39.36523,-37.84961 9.08402,-11.10268 14.88879,-15.13942 17.41211,-12.11132 2.52337,3.02789 2.01899,5.80277 -1.51367,8.32617 -3.53273,2.5233 -4.79451,7.82374 -3.78516,15.89844 1.00935,8.07469 6.81217,11.35384 17.41016,9.83984 10.59806,-1.514 17.6646,-8.57863 21.19726,-21.19531 3.53267,-12.61669 -4.79573,-24.47746 -24.98242,-35.58008 23.21473,-64.59749 35.32658,-114.05364 36.33594,-148.37109 38.35474,-11.10266 76.7097,-10.09402 115.06445,3.02734 v -9.08399 c -36.33609,-15.14006 -69.64375,-19.17672 -99.92383,-12.11132 8.07469,-11.10273 14.63496,-27.25317 19.68164,-48.44922 22.2054,7.06539 44.4118,5.04609 66.61719,-6.05664 z m 31.79297,87.8125 c -52.48551,-9.08402 -92.35345,-11.60765 -119.60547,-7.57032 1.00929,16.14936 5.04595,29.77619 12.11133,40.87891 7.06532,11.10268 15.89804,22.71021 26.49609,34.82227 10.598,12.11201 15.89649,27.75619 15.89649,46.93359 h 7.57031 c 2.0187,-24.22409 -5.55223,-49.45649 -22.71094,-75.69922 26.24274,-7.06532 52.99012,-20.18782 80.24219,-39.36523 z m 133.23242,-72.67188 c -13.12136,1.00935 -27.75494,5.04601 -43.90429,12.11133 -16.14937,7.06533 -34.31911,18.16853 -54.50586,33.30859 1.00935,3.02799 9.33768,4.54297 24.98242,4.54297 15.64467,0 28.00776,-0.25324 37.09179,-0.75781 9.08404,-0.50473 15.89745,-3.78382 20.43946,-9.83984 4.542,-6.05605 7.31877,-10.85211 8.32812,-14.38477 1.00929,-3.53267 -2.01866,-1.26022 -9.08398,6.81445 -7.06533,8.07469 -16.9067,11.60696 -29.52344,10.59766 -12.6167,-1.00935 -14.88913,-5.04789 -6.81445,-12.11328 8.07468,-7.06532 25.73816,-17.15793 52.99023,-30.2793 z m -230.12695,80.24219 49.96094,1.51367 -39.36328,15.14063 z" />
</svg>
