<?xml version="1.0" encoding="UTF-8" standalone="no"?>
<svg
   width="19.490582"
   height="17.965691"
   version="1.1"
   id="svg4"
   sodipodi:docname="US9E199B.svg"
   inkscape:version="1.2.1 (9c6d41e410, 2022-07-14)"
   xmlns:inkscape="http://www.inkscape.org/namespaces/inkscape"
   xmlns:sodipodi="http://sodipodi.sourceforge.net/DTD/sodipodi-0.dtd"
   xmlns="http://www.w3.org/2000/svg"
   xmlns:svg="http://www.w3.org/2000/svg">
  <defs
     id="defs8" />
  <sodipodi:namedview
     id="namedview6"
     pagecolor="#ffffff"
     bordercolor="#000000"
     borderopacity="0.25"
     inkscape:showpageshadow="2"
     inkscape:pageopacity="0.0"
     inkscape:pagecheckerboard="0"
     inkscape:deskcolor="#d1d1d1"
     showgrid="false"
     inkscape:zoom="37.154642"
     inkscape:cx="11.277191"
     inkscape:cy="8.3704211"
     inkscape:window-width="1920"
     inkscape:window-height="1137"
     inkscape:window-x="-8"
     inkscape:window-y="-8"
     inkscape:window-maximized="1"
     inkscape:current-layer="svg4" />
  <path
     style="fill:#000000;stroke:none"
     d="M 10.218534,12.356889 V 11.427932 H 9.131828 c 0.4674007,0.607619 1.133446,1.042885 1.998136,1.305798 0.86469,0.262913 1.440176,0.262913 1.726458,0 0.286283,-0.262913 -0.09056,-0.698179 -1.130523,-1.305798 h -0.964012 v 1.174342 z m 0.543353,-0.928957 v 1.928025 l 0.0084,4.609734 h -0.553906 c -0.03957,-0.03878 0.0022,-4.609734 0.0022,-4.609734 v -1.928025 z m 2.418794,0 c 0.642675,0.607619 0.546274,1.130523 -0.289203,1.568711 -0.835477,0.438187 -1.735222,0.464479 -2.699235,0.07887 -0.9640133,-0.385605 -1.72646,-0.9348 -2.28734,-1.647585 H 1.226925 v -0.595936 h 18.263657 v 0.595936 z M 6.064516,2.73429 6.152153,2.87451 C 6.198893,2.8044 6.2690033,2.769345 6.362484,2.769345 6.5143887,2.7810303 6.6808997,2.7839517 6.862017,2.778109 7.0431343,2.7722663 7.1745907,2.54733 7.256386,2.1033 6.5436007,2.31363 6.175523,2.5064327 6.152153,2.681708 Z m 4.802535,7.834794 -0.385605,-0.07011 c -0.05842,0.05842 -0.14022,0.169433 -0.245385,0.333022 h 0.613463 z m 7.116166,0.01753 -0.543352,-0.07011 c -0.05843,0.08179 -0.122693,0.18696 -0.192802,0.315495 h 0.753681 z m 0.105166,-0.297968 C 17.971532,9.3538433 17.942319,8.5709483 18.000744,7.939959 17.720304,7.589409 17.498289,7.1629063 17.3347,6.660451 17.790415,6.029461 17.962768,5.3020697 17.851761,4.478277 17.740753,3.6544843 17.474919,3.1900053 17.05426,3.08484 V 2.892038 C 17.31133,2.8569827 17.54503,2.92125 17.75536,3.08484 17.626825,2.89788 17.112685,2.7897937 16.21294,2.760581 15.313195,2.731369 14.609173,2.786873 14.100876,2.927093 13.592578,3.067313 12.993722,3.1520293 12.304307,3.181242 11.614892,3.210454 10.729753,3.073155 9.64889,2.769345 8.5680273,2.465535 7.840636,2.2727327 7.466716,2.190938 7.419976,2.541488 7.3323387,2.766424 7.203804,2.865746 7.0752687,2.9650687 6.9116783,2.9942813 6.713033,2.953384 6.5143883,2.9124867 6.3654047,2.9241717 6.266082,2.988439 6.1667593,3.0527063 6.070358,3.0205727 5.976878,2.892038 c -0.2337,0.1752747 -0.4615573,0.2921247 -0.683572,0.35055 0.14022,0.2337 0.2044873,0.455715 0.192802,0.666045 h -0.07011 c 0,-0.16359 -0.04674,-0.3008887 -0.14022,-0.411896 C 5.182298,3.385729 5.1063457,3.283485 5.047921,3.190005 4.989496,3.096525 4.954441,2.979675 4.942756,2.839455 5.176456,2.8044 5.5211633,2.82777 5.976878,2.909565 L 5.836658,2.646653 5.906768,2.59407 C 5.8950833,2.38374 5.830816,2.231835 5.713966,2.138355 5.5153207,2.231835 5.3166757,2.2493627 5.118031,2.190938 5.071291,2.3662127 5.0187083,2.5064327 4.960283,2.611598 5.2290383,2.5531727 5.515321,2.5882277 5.819131,2.716763 V 2.8044 C 5.491951,2.68755 5.1589283,2.675865 4.820063,2.769345 4.8083783,3.073155 4.7032133,3.5055003 4.504568,4.066381 4.6798427,4.159861 4.752874,4.2621047 4.723662,4.373112 4.6944493,4.4841193 4.6360243,4.5454653 4.548387,4.55715 4.4607497,4.5688353 4.4110883,4.539623 4.399403,4.469513 4.387718,4.399403 4.396483,4.352663 4.425694,4.329293 4.454907,4.305923 4.457828,4.282553 4.434454,4.259183 4.411084,4.235813 4.358502,4.270868 4.276707,4.364348 c 0.011685,0.1519053 0.1285347,0.262913 0.35055,0.333023 0.1635893,-0.07011 0.2921243,-0.07011 0.385605,0 0.18696,0 0.2862823,-0.175275 0.297967,-0.525825 l 0.21033,-0.017528 c 0.21033,0.3622353 0.4381877,0.5725653 0.683573,0.63099 0.2453853,0.058425 0.368078,0.1928023 0.368078,0.403133 l 0.455714,0.368077 c 0,0.6076207 0.2512277,1.1743433 0.753683,1.700168 0.4790847,0.2921247 0.9932247,0.3739197 1.54242,0.245385 0,-0.1285347 -0.1928027,-0.2512273 -0.578408,-0.368078 C 8.3606183,7.016843 8.1181547,6.771458 8.018832,6.397538 7.9195093,6.023618 7.881533,5.6759893 7.904903,5.354652 7.9282737,5.033314 8.0568087,4.752874 8.290508,4.513332 8.5242087,4.2737893 8.6936413,3.896948 8.798806,3.382808 c 0.1752753,0 0.2687557,0.029212 0.280441,0.087637 C 8.9623963,3.984585 8.7783573,4.3760327 8.52713,4.644788 8.2759027,4.9135433 8.15321,5.2757783 8.159052,5.731493 c 0.00584,0.4557153 0.160669,0.800423 0.464479,1.034123 0.3038107,0.2337 0.543353,0.28044 0.718627,0.14022 0.046741,0 0.1811183,0.25707 0.403133,0.77121 0.32718,0.4557153 0.496613,0.7449193 0.508298,0.867612 0.01168,0.122692 0.105165,0.277518 0.28044,0.464478 l 0.105165,1.279508 0.28044,0.05258 v -0.01753 c 0.04674,-0.105165 0.122692,-0.134377 0.227857,-0.08764 -0.16359,-0.2337 -0.297967,-0.6835727 -0.403132,-1.349618 0.05843,-0.2220147 0.05843,-0.368077 0,-0.438187 C 10.685934,8.378146 10.592454,8.1853433 10.463919,7.869848 10.335384,7.5543533 10.259431,7.034371 10.236061,6.309901 L 9.797873,5.854186 9.587543,5.398471 9.797873,5.310833 10.201006,5.854186 c 0.21033,0.11685 0.315495,0.245385 0.315495,0.385605 l 0.14022,1.034122 c 1.26198,0.1285353 2.629125,-0.070109 4.101436,-0.595934 -0.05843,-0.1051653 -0.157748,-0.1869607 -0.297968,-0.245386 l 0.07011,-0.21033 c 0.42066,0.11685 0.660203,0.2745977 0.718628,0.473243 1.156815,0.49077 1.854994,0.9377213 2.094537,1.340854 0.239543,0.4031327 0.356393,0.803344 0.35055,1.200634 -0.0058,0.39729 -0.01461,0.7069427 -0.02629,0.928958 z M 5.135558,2.962148 5.223196,3.102368 5.573746,2.979675 Z m 13.513703,4.311765 c 0.04674,0.1051653 0.08764,0.5930143 0.122694,1.463547 0.03505,0.8705327 0.105165,1.305799 0.21033,1.305799 0.105165,0 0.154826,-0.2862827 0.148984,-0.858848 -0.0058,-0.5725653 -0.166512,-1.209398 -0.482008,-1.910498 z m -4.609732,3.242588 -0.455714,-0.122693 -0.315496,0.438188 h 0.63099 c 0.07011,-0.163589 0.116851,-0.268754 0.14022,-0.315495 z m 0.105165,-0.192802 c 0.07011,-0.151905 0.175275,-0.222015 0.315495,-0.21033 0.268755,-0.9114307 0.449873,-1.367146 0.543353,-1.367146 0.11685,0 0.192803,-0.035055 0.227858,-0.105164 0,-0.2570707 -0.02921,-0.455716 -0.08764,-0.595936 -0.05842,-0.1402193 -0.11685,-0.4440293 -0.175275,-0.91143 l -0.385605,0.175276 0.08764,1.139287 c -0.07011,0.49077 -0.362235,1.086705 -0.876374,1.787805 z m 1.139288,-3.102368 c -0.03505,0.32718 0.01461,0.5813287 0.148983,0.762446 0.134378,0.1811173 0.23078,0.1606687 0.289205,-0.061346 0.245384,0.1051647 0.341785,0.040897 0.289204,-0.192802 C 15.958791,7.4959283 15.74554,7.3031257 15.371619,7.151221 Z m -7.396606,0.49077 c 0,0.16359 -0.105165,0.39729 -0.315495,0.7011 C 7.3966063,8.5884757 7.3264963,8.7812783 7.361551,8.991609 7.104481,9.4940637 6.9029147,9.7949523 6.756852,9.894275 6.6107893,9.9935977 6.5143883,10.113369 6.467649,10.253589 l 0.315495,0.140219 c 0.07011,-0.210329 0.1460623,-0.315494 0.227857,-0.315494 0.081795,0 0.2862823,-0.338865 0.613463,-1.016595 C 7.8698487,8.9565537 7.9750137,8.7929637 7.939959,8.570949 L 8.676113,7.887376 c -0.2103293,0 -0.4732417,-0.058425 -0.788737,-0.175275 z M 18.17602,3.943688 c 0.140221,0.42066 0.166512,0.9260363 0.07887,1.516129 -0.08764,0.5900927 -0.248307,1.0078313 -0.482008,1.253216 0.09348,0.3856053 0.274599,0.7828953 0.543354,1.19187 -0.08179,0.65436 -0.08179,1.2064767 0,1.65635 0.08179,0.449872 0.146062,0.739076 0.192803,0.867611 0.04674,0.128535 -0.05258,0.192802 -0.297968,0.192802 v 0.508298 h -1.419727 c 0.03505,-0.32718 0.198644,-0.63099 0.49077,-0.91143 0.210329,-1.3671453 -0.140221,-2.2435207 -1.051651,-2.629126 0.105165,0.2453853 0.07887,0.3943693 -0.07887,0.446952 -0.157748,0.052582 -0.274598,0.134377 -0.35055,0.245385 -0.07595,0.1110073 -0.178197,0.096401 -0.306732,-0.043819 l 0.03505,0.508297 c 0,0.11685 -0.111007,0.2161727 -0.333022,0.297968 -0.257069,0.60762 -0.382683,1.016595 -0.376841,1.226925 0.0058,0.210331 -0.05258,0.318417 -0.175275,0.324259 -0.122693,0.0058 -0.230779,-0.0029 -0.324259,-0.02629 l -0.175275,0.56088 h -1.384673 c 0.07011,-0.362235 0.233701,-0.65436 0.490771,-0.876375 0.28044,-0.2687553 0.508297,-0.5491953 0.683572,-0.84132 0.175275,-0.2921253 0.309653,-0.636833 0.403133,-1.034123 l -0.08764,-1.016595 c -0.65436,0.2337 -0.98154,0.3797623 -0.98154,0.438187 L 13.14562,8.378147 h -0.175276 c -0.09348,-0.3622347 -0.140219,-0.6368323 -0.140219,-0.823793 -0.49077,0.09348 -1.1685,0.128535 -2.03319,0.105165 0.05842,0.25707 0.128535,0.455715 0.21033,0.595935 0.08179,0.14022 0.111007,0.28044 0.08764,0.42066 -0.02337,0.14022 -0.02629,0.300889 -0.0088,0.482007 0.01753,0.1811173 0.143141,0.4995337 0.376841,0.955249 0.16359,0.28044 0.07011,0.449872 -0.280439,0.508297 v 0.508298 H 9.797873 c 0.093481,-0.362235 0.262913,-0.65436 0.508298,-0.876375 L 10.165952,9.079247 C 9.9906767,8.9156563 9.8855113,8.7111683 9.850456,8.465783 L 9.412269,7.799738 C 9.2486783,7.846478 9.0558757,7.9866983 8.833861,8.220399 8.483311,8.4657837 8.284666,8.6790347 8.237926,8.860152 8.191186,9.0412693 8.062651,9.184411 7.852321,9.289577 c -0.3856053,0.4907693 -0.5725653,0.829634 -0.56088,1.016594 0.011685,0.186961 -0.032133,0.268756 -0.131456,0.245386 -0.099323,-0.02337 -0.148984,0.02337 -0.148984,0.140219 l -0.245385,0.438188 h -1.26198 c 0.1519047,-0.39729 0.3505497,-0.7011 0.595935,-0.91143 C 6.1813657,9.9380933 6.3449557,9.7394483 6.590341,9.622599 6.870781,9.2136237 7.0168433,8.9331837 7.028528,8.781279 7.0402133,8.6293737 7.081111,8.5154447 7.151221,8.439492 7.221331,8.3635393 7.349866,8.150288 7.536826,7.799738 V 7.624464 C 6.9175207,6.9817887 6.607868,6.3507983 6.607868,5.731493 6.397538,5.5795883 6.2602393,5.4276833 6.195972,5.275778 6.1317047,5.1238733 6.017776,5.0216297 5.854186,4.969047 5.690596,4.9164643 5.550376,4.8142203 5.433526,4.662315 5.340046,4.8609603 5.2290383,4.971968 5.100503,4.995338 4.4110883,4.995338 4.066381,4.9077007 4.066381,4.732426 3.9962703,4.6740007 3.961215,4.5688357 3.961215,4.416931 3.961215,4.2650257 4.0430103,4.1248053 4.206601,3.99627 4.4052457,3.43539 4.4958043,3.10821 4.478277,3.01473 4.460749,2.92125 4.4695127,2.792715 4.504568,2.629125 3.896948,2.372055 3.487973,2.0419537 3.277643,1.638821 3.067313,1.235689 2.962148,0.905588 2.962148,0.648518 c 0,-0.28044 0.07011,-0.47324267 0.21033,-0.578408 0.07011,-0.03505467 0.128535,0.005843 0.175275,0.122693 -0.011685,0.79458 0.5082973,1.37883 1.559948,1.75275 0.058425,-0.058425 0.1548257,-0.058425 0.289203,0 C 5.331282,2.003978 5.433526,2.001056 5.503636,1.936793 5.573746,1.8725217 5.7081233,1.8579153 5.906768,1.89297 6.7013487,1.6475853 7.1804337,1.3554603 7.344023,1.016595 7.4608737,0.81795033 7.519299,0.555038 7.519299,0.227858 V 0 h 0.175274 c 0.081795,0 0.157748,0.21617267 0.227858,0.648518 0,0.3622347 -0.18696,0.7478397 -0.56088,1.156815 L 7.554353,1.700168 7.536826,1.82286 c 0.6660447,0.1285353 1.600845,0.356393 2.804401,0.683573 1.203555,0.32718 2.231834,0.376841 3.084839,0.148983 0.853005,-0.2278573 1.817018,-0.3330223 2.892038,-0.315495 1.075021,0.017528 1.776121,0.3476293 2.1033,0.990304 0.32718,0.6426753 0.432345,1.6884833 0.315496,3.137424 0,0.1752747 0.169432,0.6777293 0.508297,1.507364 0.18696,0.8413207 0.239543,1.4577047 0.157748,1.849152 -0.08179,0.391447 -0.233701,0.581328 -0.455716,0.569643 -0.163589,0 -0.286281,-0.160669 -0.368076,-0.482006 -0.0818,-0.3213373 -0.122694,-0.84132 -0.122694,-1.559948 0,-0.7186273 -0.0088,-1.2327673 -0.02629,-1.54242 -0.01753,-0.309652 -0.02337,-0.756603 -0.01753,-1.340853 0.0058,-0.58425 -0.07303,-1.0925477 -0.236622,-1.524893 z M 5.994406,10.831996 h 0.63099 L 6.713033,10.656721 C 6.502703,10.481446 6.3332707,10.423021 6.204736,10.481446 Z M 7.133693,2.261048 C 7.016843,2.2727327 6.888308,2.310709 6.748088,2.374977 6.607868,2.4392443 6.4501207,2.5356453 6.274846,2.66418 c 0.011685,0.035055 0.087637,0.049662 0.227857,0.043819 0.14022,-0.00584 0.2483063,-0.00876 0.324259,-0.00876 0.075953,0 0.1343777,-0.026291 0.175275,-0.078873 C 7.043134,2.567783 7.066504,2.523964 7.072347,2.488909 7.0781897,2.4538503 7.0518987,2.471378 6.993474,2.541488 6.9350487,2.611598 6.8503323,2.6408103 6.739325,2.629125 6.6283177,2.6174403 6.607869,2.5823853 6.677979,2.52396 6.748089,2.4655353 6.8999937,2.377898 7.133693,2.261048 Z M 4.995338,7.975013 3.961215,7.992541 4.276711,8.360619 C 3.2834857,8.3372483 2.670023,8.436571 2.436323,8.658587 c 0.2337,0.1051647 0.4674,0.216172 0.7011,0.333022 -0.5725653,0.1051647 -0.9581703,0.216172 -1.156815,0.333022 0.2453847,0 0.438187,0.099323 0.578407,0.297968 -0.6894147,0.1519047 -1.1217597,0.3154947 -1.297035,0.49077 0.44403,-0.01168 0.689415,0.08764 0.736155,0.297967 -0.51414,0.105165 -0.853005,0.251228 -1.016595,0.438188 H 4.995338 Z M 0.893903,10.393808 C 0.636833,10.358754 0.38560533,10.265274 0.14022,10.113369 0.42066,9.8913537 0.806265,9.733606 1.297035,9.640126 1.0282803,9.5817007 0.800423,9.4765357 0.613463,9.324631 0.95232767,9.114301 1.390515,9.0032937 1.928025,8.991609 1.694325,8.9448683 1.460625,8.833861 1.226925,8.658587 1.694325,8.436571 2.091615,8.3372483 2.418795,8.360619 2.3136303,8.2788237 2.202623,8.1502883 2.085773,7.975013 2.4012677,7.788053 2.85114,7.7471557 3.43539,7.852321 3.31854,7.7471557 3.2659577,7.5952507 3.277643,7.396606 h 2.225993 v 4.013798 H 1.19187 C 0.67773,11.433774 0.28044,11.322766 0,11.077381 0.25707,10.773571 0.55503767,10.545713 0.893903,10.393808 Z"
     id="path2"
     sodipodi:nodetypes="cccssccccccccccccsscccccccccsccccccccccccccccscccsssscsssccccsscccccccccccssssscccccsccccssssccsssccsccccccsscccccccccccsscccccccsssccccccccscsccccccscscccccsccscccccsccsscccccsscccssccccscccccccssscccccccccscsscccccsscccsscccscscsscccssccscsccccssssccscsssscccccccccsssssssccccccccccccccccccccccccccccc" />
</svg>
