<?xml version="1.0" encoding="UTF-8" standalone="no"?>
<svg
   width="23.235731"
   height="17.983217"
   id="svg2445"
   sodipodi:version="0.32"
   inkscape:version="1.2.1 (9c6d41e410, 2022-07-14)"
   sodipodi:docname="US9E145VARA.svg"
   inkscape:output_extension="org.inkscape.output.svg.inkscape"
   version="1.1"
   xmlns:inkscape="http://www.inkscape.org/namespaces/inkscape"
   xmlns:sodipodi="http://sodipodi.sourceforge.net/DTD/sodipodi-0.dtd"
   xmlns="http://www.w3.org/2000/svg"
   xmlns:svg="http://www.w3.org/2000/svg"
   xmlns:rdf="http://www.w3.org/1999/02/22-rdf-syntax-ns#"
   xmlns:cc="http://creativecommons.org/ns#"
   xmlns:dc="http://purl.org/dc/elements/1.1/">
  <metadata
     id="metadata2452">
    <rdf:RDF>
      <cc:Work
         rdf:about="">
        <dc:format>image/svg+xml</dc:format>
        <dc:type
           rdf:resource="http://purl.org/dc/dcmitype/StillImage" />
      </cc:Work>
    </rdf:RDF>
  </metadata>
  <defs
     id="defs2450">
    <inkscape:perspective
       sodipodi:type="inkscape:persp3d"
       inkscape:vp_x="0 : 8.9916086 : 1"
       inkscape:vp_y="0 : 1000 : 0"
       inkscape:vp_z="23.235731 : 8.9916086 : 1"
       inkscape:persp3d-origin="11.617866 : 5.9944057 : 1"
       id="perspective2454" />
  </defs>
  <sodipodi:namedview
     inkscape:window-height="1137"
     inkscape:window-width="1920"
     inkscape:pageshadow="2"
     inkscape:pageopacity="0.0"
     guidetolerance="10.0"
     gridtolerance="10.0"
     objecttolerance="10.0"
     borderopacity="1.0"
     bordercolor="#666666"
     pagecolor="#ffffff"
     id="base"
     showgrid="false"
     inkscape:showpageshadow="2"
     inkscape:pagecheckerboard="0"
     inkscape:deskcolor="#d1d1d1"
     inkscape:zoom="32.301602"
     inkscape:cx="12.615473"
     inkscape:cy="8.9778828"
     inkscape:window-x="-8"
     inkscape:window-y="-8"
     inkscape:window-maximized="1"
     inkscape:current-layer="svg2445" />
  <path
     style="fill:#000000;stroke:none"
     d="m 22.620098,17.218973 c 0.184654,-0.246205 0.130797,-1.127158 -0.161571,-2.642858 -0.292369,-1.515701 -0.815555,-3.296841 -1.569558,-5.343421 -0.861718,-1.9234787 -1.7696,-2.9006057 -2.723646,-2.931381 -2.631317,0.4154713 -4.285507,0.6462887 -4.962572,0.692452 -0.800167,0 -1.511853,-0.2308173 -2.13506,-0.692452 C 10.444484,5.8396783 9.959768,5.362656 9.613542,4.870246 9.267316,4.3778353 8.9403247,3.8469553 8.632568,3.277606 8.8633853,2.954462 8.978794,2.685175 8.978794,2.469745 V 2.331255 C 8.963406,1.9157837 8.7633643,1.3387403 8.378669,0.600125 H 8.332505 c 0.3077567,0.7386153 0.469329,1.3310467 0.484717,1.777294 0,0.153878 -0.1231027,0.3616133 -0.369308,0.623206 L 8.309424,2.79289 C 8.7248953,2.608236 8.732589,2.0388863 8.332505,1.084841 8.347893,1.808069 8.1709333,2.169683 7.801626,2.169683 c -0.861718,0 -1.3464347,0.069245 -1.45415,0.207736 C 6.239762,2.515909 6.0313101,2.6465619 5.6466141,2.7542766 5.2619188,2.8619913 3.9311035,3.1061903 4.0099608,3.1999501 3.9945728,3.3076654 4.1085483,3.385321 4.200875,3.508423 4.4470803,3.4930357 5.3456258,3.3867538 5.5071978,3.3405898 c 0.1615727,-0.046163 0.230818,-0.026928 0.207736,0.057705 -0.023082,0.084633 -0.092327,0.126949 -0.207736,0.126949 -0.1154087,0 -0.9293211,0.090894 -1.0524238,0.1216702 C 4.331672,3.677689 4.2932027,3.723853 4.339366,3.785404 4.385529,3.846955 4.7255883,3.737304 5.389585,3.693077 5.8774534,3.6605817 6.4369361,4.0022225 6.7722182,3.9791412 7.1859696,3.950658 7.522782,3.7569212 7.6316431,4.062385 7.6977959,4.2480097 7.8439423,4.474009 7.974739,4.835623 8.1055357,5.197237 8.2709547,5.528075 8.470996,5.828137 8.671038,6.1282003 8.6287217,6.6475397 8.344047,7.386155 8.0593723,8.1247703 7.8400957,8.6094863 7.686217,8.840303 6.824499,9.055733 6.0050977,9.1249783 5.228013,9.048039 4.4509277,8.9711003 4.070079,9.1249787 4.085467,9.509674 h 4.477856 c 0.35392,-0.5539613 0.8540243,-0.8155543 1.500313,-0.784779 0.646289,0.030776 1.434914,0.011541 2.365877,-0.057704 0.930963,-0.069245 2.273551,-0.4731757 4.027762,-1.211791 0,0.6309007 0.446247,1.207944 1.338742,1.73113 L 16.526522,9.209612 14.726146,9.117285 c -0.292369,0 -0.523186,0.1307963 -0.692453,0.392389 l 6.416722,-0.023082 c 0.784779,4.539408 1.508007,7.116868 2.169683,7.732381 z M 2.26201,10.040554 C 1.6003333,9.2249993 1.2502603,8.5748637 1.211791,8.090147 1.1733217,7.605431 1.054066,7.363073 0.854024,7.363073 c -0.20004133,0 -0.307756,0.2000417 -0.323144,0.600125 -0.015388,0.4000833 0.11156133,0.792473 0.380848,1.177169 0.2692873,0.3846953 0.7193813,0.6847577 1.350282,0.900187 z m 17.819098,0.53088 -6.553303,-0.03096 0.964407,1.65618 -0.470748,0.271169 -1.166225,-1.876581 -0.289536,-0.0198 0.03096,7.323968 h -0.692451 l -0.06492,-7.293011 -0.28214,-0.0077 -1.087014,1.942529 -0.5435069,-0.189609 0.9114549,-1.799354 -4.213633,0.02321 -3.416092,-4.1e-5 H 2.562072 c -0.507798,0 -1.0579127,-0.230817 -1.650344,-0.692452 C 0.31929733,9.4173473 0.015388,8.7902933 0,7.99782 -0.015388,7.2053473 0.26928667,6.809111 0.854024,6.809111 c 0.538574,0 0.8347897,0.3346853 0.888647,1.004056 0.053857,0.66937 0.3885423,1.342587 1.004055,2.019651 h 10.77917 V 9.509674 c 0.13849,-0.5385733 0.553961,-0.80786 1.246413,-0.80786 L 16.526522,8.79414 C 16.264929,8.5940987 16.11105,8.3940573 16.064886,8.194016 15.033902,8.532548 14.176031,8.8018347 13.491273,9.001876 12.806515,9.2019173 11.933256,9.2673157 10.871496,9.198071 9.809736,9.1288257 9.232693,9.340408 9.140367,9.832818 h -5.58578 c 0,-0.6155127 0.2154293,-1.0309837 0.646288,-1.246413 C 4.385529,8.555629 4.7933063,8.5710167 5.424207,8.632568 6.0551077,8.6941193 6.7090903,8.6017923 7.386155,8.355587 8.0016677,7.0168463 8.217097,6.2282207 8.032443,5.98971 7.847789,5.7511987 7.686217,5.4011257 7.547727,4.939491 7.4092363,4.4778563 7.3392747,4.4353746 7.2623361,4.2835027 6.4516531,4.4458903 5.9897097,3.9431293 5.181849,4.073926 4.3739883,4.2047227 3.962364,4.0700793 3.946976,3.669996 3.7469347,3.5161173 3.631526,3.3853207 3.60075,3.277606 3.4776473,3.0621767 3.68923,2.8967577 4.235498,2.781349 4.781766,2.6659403 5.2010843,2.5582257 5.493453,2.458205 5.785821,2.3581837 6.020485,2.2158463 6.197445,2.031193 6.374405,1.846539 6.916826,1.754212 7.824708,1.754212 7.978586,1.6772727 8.055525,1.454149 8.055525,1.084841 V 0.023082 L 8.378669,0 c 0.6462887,0.93865733 0.969433,1.7311303 0.969433,2.377419 0,0.2308167 -0.023082,0.538573 -0.069246,0.923269 0.5077987,1.0002087 1.084842,1.7772937 1.731131,2.331255 0.646289,0.5539613 1.384904,0.830942 2.215846,0.830942 0.830943,0 2.469746,-0.2308173 4.916409,-0.692452 1.7696,0.1077147 3.169892,2.150448 4.200875,6.1282 1.030984,3.977752 1.169475,6.005098 0.415472,6.082038 -0.815555,0.107714 -1.708048,-2.362032 -2.677481,-7.409237 z M 19.942617,8.240179 c 0.338532,0.153878 0.507798,0.569349 0.507798,1.246413 h -0.646288 c 0.35392,-0.2615927 0.400083,-0.5308793 0.13849,-0.80786 z M 7.570808,2.700563 C 7.41693,2.8236657 7.182266,2.9121457 6.866816,2.966003 6.5513653,3.0198603 6.3705583,2.962156 6.324395,2.79289 c 0,-0.21543 0.180807,-0.300063 0.542421,-0.253899 0.3616133,0.046163 0.5962773,0.1000207 0.703992,0.161572 z"
     id="path2447"
     sodipodi:nodetypes="cscccsscccccscccsssccssssssssssscsccssccccccccsssscccccccccccccccccssssccccccsscccscsscscssssccccscsscsccccccccsssc" />
</svg>
