<?xml version="1.0" encoding="UTF-8" standalone="no"?>
<svg
   width="1740.8519"
   height="1799.9796"
   id="svg2"
   version="1.1"
   xmlns="http://www.w3.org/2000/svg"
   xmlns:svg="http://www.w3.org/2000/svg"
   xmlns:rdf="http://www.w3.org/1999/02/22-rdf-syntax-ns#"
   xmlns:cc="http://creativecommons.org/ns#"
   xmlns:dc="http://purl.org/dc/elements/1.1/">
  <metadata
     id="metadata9">
    <rdf:RDF>
      <cc:Work
         rdf:about="">
        <dc:format>image/svg+xml</dc:format>
        <dc:type
           rdf:resource="http://purl.org/dc/dcmitype/StillImage" />
      </cc:Work>
    </rdf:RDF>
  </metadata>
  <defs
     id="defs7" />
  <path
     id="path4"
     style="fill:#000000;stroke:none;stroke-width:100.067"
     d="M 375.16442,0 C 353.20361,69.542512 337.34289,111.02521 327.5826,124.44567 l -53.07196,-100.655747 -32.9408,1.83136 c -6.10011,45.141619 -15.25222,90.282357 -27.45264,135.423947 0,12.20042 -12.80995,18.30178 -38.43094,18.30178 -56.12202,0 -92.112798,20.74136 -107.973295,62.22282 C 22.571296,257.43047 0,275.12112 0,294.64179 c 0,54.90196 7.9293257,86.01201 23.789922,93.33227 -7.320267,63.44233 18.911026,90.89432 78.693238,82.35399 34.16122,24.40088 51.24256,73.20358 51.24256,146.4062 -51.24187,156.16564 -57.341255,284.57439 -18.29978,385.22805 39.04136,100.6537 84.79349,166.8422 137.25532,198.5634 82.96296,253.7691 81.74234,403.2259 -3.66075,448.3675 -59.78221,-6.1002 -101.26479,8.5397 -124.44566,43.9211 -23.18077,35.3813 -28.67092,70.7623 -16.47041,106.144 h 91.50289 c 46.36164,0 93.33437,-0.6096 140.91607,-1.8295 l 102.48316,-164.7079 c 42.70154,17.0806 51.24217,-23.1794 25.62127,-120.783 12.20042,-96.3835 20.74114,-169.5876 25.6213,-219.6093 114.68415,87.8431 249.7875,156.4244 338.85066,190.5855 26.30002,90.8662 48.36961,129.7961 75.53517,182.6667 -80.52295,-3.6601 -191.11772,-10.8989 -260.66012,-18.219 -81.74301,-7.3203 -115.90373,43.3125 -102.48316,151.8965 h 797.31142 c 3.1078,0.6905 6.2827,1.033 9.4663,1.021 122.4327,-19.0514 204.4006,-61.4958 269.0039,-143.6129 64.6033,-82.1169 108.6142,-199.8386 96.838,-338.5825 -23.5525,-277.4879 -68.1283,-532.30438 -406.5355,-710.78925 -14.2472,-7.51435 -87.62,-47.77613 -109.5427,-22.75549 -21.5949,24.64647 3.3898,64.97282 25.5021,73.4753 358.0972,137.69303 389.156,404.77594 410.2827,653.68484 10.5635,124.4546 -45.9452,234.9463 -94.0917,296.1448 -43.7726,55.6391 -85.3674,78.6853 -178.5544,97.6564 40.102,-454.0278 -219.2513,-707.79894 -634.84298,-909.12122 -19.13524,-76.54094 -59.51069,-137.74196 -120.84997,-183.8022 2.49089,0.64801 6.07152,0.38812 11.04532,-1.03298 l -53.07195,-49.41317 38.43093,5.49014 h 12.81163 l -47.58182,-47.58181 c 8.54034,0 17.69028,-0.60938 27.45068,-1.82939 -35.38129,-29.28107 -56.12263,-48.19243 -62.22284,-56.7327 l 23.7919,1.82938 21.96054,-3.65877 -64.05223,-47.58182 c 13.42058,-3.66016 31.11126,-3.05077 53.07195,1.82938 -12.2003,-15.86053 -31.72114,-29.89123 -58.56208,-42.09167 l 32.9408,5.49012 -9.15088,-14.64101 -31.11141,-23.78992 c 4.88024,-2.44009 15.86221,-3.04947 32.94277,-1.82939 -20.74073,-29.28107 -50.63214,-56.12369 -89.67351,-80.52459 34.16123,-30.50109 39.03988,-69.84716 14.63906,-118.03887 C 458.73688,89.978295 429.45678,43.921608 395.29556,0 Z m 10.98026,51.242564 h 3.66074 c 61.00217,97.603496 82.04818,153.419606 63.13753,167.450066 -18.91065,14.03052 -28.36733,29.58649 -28.36733,46.66714 6.10031,0 21.35161,10.98007 45.75242,32.94079 l -34.77215,-3.65877 51.24255,54.90134 -20.13113,-1.82939 32.9408,40.26032 h -20.12918 l -3.66074,16.4704 31.1114,23.7919 c -8.54042,0 -12.81162,7.32 -12.81162,21.96054 l 27.45264,23.79189 c -9.76039,0 -14.64102,7.32002 -14.64102,21.96053 l 34.7702,27.45067 c -10.98035,0 -16.4704,5.48998 -16.4704,16.4704 15.8606,17.08063 26.84256,29.28136 32.94277,36.60156 l -16.47237,-5.49014 c -6.1002,0 -10.36953,6.09935 -12.80965,18.29979 92.72335,68.32244 154.94543,154.33654 186.66652,258.04024 238.16607,122.45043 556.61134,272.34936 600.26384,677.12576 -41.4815,-52.4618 -100.0052,-122.8298 -147.5871,-220.4333 -47.5816,-97.6035 -107.6683,-143.787 -155.555,-144.5768 -143.46101,-2.366 -177.30526,184.6209 -170.47805,280.0164 -75.64271,-28.061 -204.11685,-110.2139 -322.4611,-211.4775 14.64055,-86.6231 17.99588,-137.2559 10.06558,-151.8963 -7.93021,-14.6407 -21.34967,-32.0248 -40.26033,-52.1553 -18.91075,-20.1308 -24.70733,-7.932 -17.38707,36.5996 7.32027,44.5314 2.8e-4,107.9743 -21.96053,190.3273 -21.9608,82.3528 -56.12153,78.9974 -102.48316,-10.0657 -46.36172,-89.0631 -79.3037,-170.5013 -98.82438,-244.31387 -19.52068,-73.81271 1.22057,-143.65944 62.22284,-209.54176 61.00216,-65.88235 111.63294,-98.82438 151.89436,-98.82438 41.48148,0 78.08355,16.47004 109.80465,49.41119 l 14.64101,-12.80965 c -31.72119,-40.26143 -71.37187,-60.39147 -118.95357,-60.39147 -47.58168,0 -105.53442,29.58476 -173.85686,88.75684 -68.32243,59.17217 -101.26451,126.58149 -98.82438,202.22421 1.8313,56.77219 8.47529,100.13769 19.9281,130.10729 -73.11447,-149.54428 -78.60747,-304.54331 -16.26736,-465.01138 1.22006,-29.28109 -1.52584,-58.56114 -8.23618,-87.84214 -6.71024,-29.28109 -25.315,-65.27372 -55.81603,-107.97527 -48.801765,8.54028 -72.593682,1.82959 -71.373722,-20.13115 21.960805,-7.32028 43.006822,-7.01359 63.137532,0.91667 20.13071,7.93027 29.58542,4.57496 28.36535,-10.06558 -1.21995,-14.64053 -9.45414,-18.60719 -24.70461,-11.89692 -15.25056,6.71025 -37.5172,8.23559 -66.798272,4.57543 -14.640535,-10.98037 -21.960534,-35.38173 -21.960534,-73.2031 3.660183,-4.88013 5.490133,-3.35482 5.490133,4.57545 0,7.93026 9.761348,10.67628 29.282029,8.23617 0,-36.60125 -12.812022,-50.63195 -38.432908,-42.09167 39.041361,-14.64055 63.442712,-28.06186 73.203102,-40.2623 10.98036,-23.18081 57.3417,-33.55149 139.08471,-31.11142 59.7821,-1.22006 104.9248,-55.51084 135.42593,-162.874626 z M 272.68126,82.35398 h 5.49013 l 32.94081,69.54235 c 1.22006,14.64054 -20.13071,23.79051 -64.05223,27.45068 z m 126.27307,23.78992 c -17.08064,15.86063 -22.57061,56.73198 -16.4704,122.6143 h 20.13115 c -3.66008,-53.68195 -8e-5,-87.84268 10.98027,-102.48314 z M 187.96761,242.98524 c -3.23123,0.20017 -6.40893,0.64241 -9.5353,1.32867 -25.01096,5.49019 -34.46764,24.09685 -28.36733,55.81801 -26.84105,15.86055 -25.01091,20.73925 5.49012,14.63904 50.02182,-7.32026 86.01447,-20.73961 107.97527,-40.26032 -27.75599,-22.41829 -52.9443,-32.92653 -75.56276,-31.5254 z m 811.25056,961.20126 c 41.48133,-1.2202 89.67273,48.8013 144.57493,150.0649 54.9017,101.2637 95.164,163.4856 120.7848,186.6666 25.621,23.1805 44.8369,65.5774 57.6474,127.1897 12.8105,61.6122 -14.9462,92.4196 -83.2687,92.4196 -102.4837,-7.3204 -184.7631,-37.6256 -230.5146,-95.5776 -45.75175,-57.9522 -101.27474,-136.3243 -101.27474,-260.7686 0,-123.2244 57.88967,-199.9946 92.05091,-199.9946 z" />
</svg>
