<?xml version="1.0" encoding="UTF-8" standalone="no"?>
<svg
   width="1799.958"
   height="1549.7151"
   id="svg2311"
   version="1.1"
   xmlns="http://www.w3.org/2000/svg"
   xmlns:svg="http://www.w3.org/2000/svg"
   xmlns:rdf="http://www.w3.org/1999/02/22-rdf-syntax-ns#"
   xmlns:cc="http://creativecommons.org/ns#"
   xmlns:dc="http://purl.org/dc/elements/1.1/">
  <metadata
     id="metadata2318">
    <rdf:RDF>
      <cc:Work
         rdf:about="">
        <dc:format>image/svg+xml</dc:format>
        <dc:type
           rdf:resource="http://purl.org/dc/dcmitype/StillImage" />
        <dc:publisher>
          <cc:Agent>
            <dc:title>Serge ROSMORDUC</dc:title>
          </cc:Agent>
        </dc:publisher>
        <dc:creator>
          <cc:Agent>
            <dc:title>Serge THOMAS</dc:title>
          </cc:Agent>
        </dc:creator>
        <dc:description>TT192
phon :saH
il conviendrait de corriger le signe que j'avais exprimé jusqu'ici car dans TT192 il s'agit bien d'un animal mâle.</dc:description>
        <cc:license
           rdf:resource="http://creativecommons.org/licenses/GPL/2.0/" />
      </cc:Work>
      <cc:License
         rdf:about="http://creativecommons.org/licenses/GPL/2.0/">
        <cc:permits
           rdf:resource="http://web.resource.org/cc/Reproduction" />
        <cc:permits
           rdf:resource="http://web.resource.org/cc/Distribution" />
        <cc:requires
           rdf:resource="http://web.resource.org/cc/Notice" />
        <cc:permits
           rdf:resource="http://web.resource.org/cc/DerivativeWorks" />
        <cc:requires
           rdf:resource="http://web.resource.org/cc/ShareAlike" />
        <cc:requires
           rdf:resource="http://web.resource.org/cc/SourceCode" />
      </cc:License>
    </rdf:RDF>
  </metadata>
  <defs
     id="defs2316" />
  <path
     id="path3659-4-7"
     style="color:#000000;display:inline;fill:#000000;stroke-width:0.996446;stroke-linecap:round;stroke-linejoin:round;-inkscape-stroke:none"
     d="M 717.25286,5.9955668e-4 C 689.00835,0.20081416 629.0067,50.590483 578.95297,92.25234 c -33.75087,28.09231 -71.79051,54.23579 -95.72672,68.42484 -60.26113,35.17942 -106.88576,70.45526 -139.87497,105.82567 -32.98918,35.37039 -65.15629,104.87625 -87.79527,176.84624 -0.0422,0.18234 0.037,0.33094 0.007,0.51009 -43.24832,17.52019 -65.32974,47.40774 -80.43493,89.50441 -45.31901,39.62538 -81.933721,78.01531 -109.843181,115.16764 -7.24865,20.20128 1.790768,44.211 27.121391,72.02847 62.92446,33.01865 109.06158,13.5321 183.48843,4.62667 l 37.33956,39.14098 c -19.95322,45.49897 -33.31444,80.00349 -53.95668,119.83307 -37.24846,4.03008 -177.517972,14.0486 -224.651799,9.61425 -19.089256,-2.00271 -32.4451152,16.63441 -34.43382184,35.86006 -1.98841586,19.22566 11.69021684,43.90463 30.77946884,45.90743 96.013932,-4.14817 98.407652,-5.87223 192.494642,-17.27622 -44.65498,63.83046 -54.79047,79.08196 -102.44141,138.22076 -15.67033,11.1604 -19.38979,33.0019 -8.30877,48.7844 11.08126,15.7823 32.76773,19.5304 48.43819,8.3701 66.47804,-63.0454 124.04307,-139.3346 167.79325,-204.36959 32.9287,-4.02593 59.48964,-7.24944 89.90368,-10.85243 12.82859,29.88177 41.48215,82.62082 88.04953,147.85952 -2.48237,61.0893 -13.32631,109.5928 -32.53098,145.5088 -19.20467,35.9154 -37.78859,85.6803 -55.75416,149.2917 l -58.37275,80.0635 c -10.61909,0.7029 -18.76197,34.7417 -28.6845,84.9659 l 143.03246,3.6065 0.15045,-100.2446 -11.1604,-16.2982 53.20536,11.5343 1.98941,-80.0296 c 0.45817,-18.4312 19.27801,-58.2417 56.45892,-119.4268 37.18096,-61.1857 56.42153,-98.5566 57.72231,-112.1133 38.28599,10.6722 81.58156,13.7053 129.88517,9.0991 l 51.25016,90.1092 c 34.74397,75.6174 60.81948,151.0183 78.22624,226.1989 l -19.50771,86.8676 c 69.18006,8.5391 120.12214,-5.2209 152.82356,-41.2818 l -16.2523,-44.0915 19.4691,-27.172 c -41.94475,-57.3563 -70.56111,-98.3627 -85.85063,-123.0151 -15.28967,-24.6524 -27.24373,-96.299 -35.85993,-214.9381 54.56357,14.9654 143.11746,19.6265 265.65816,13.9802 13.2675,9.0707 10.7518,32.7887 -7.5497,71.1543 10.1605,17.7284 21.9835,26.7617 35.4682,27.1017 l 12.137,-22.9903 c 27.1147,-43.9667 63.4883,-72.6559 109.1197,-86.0654 0.07,74.7431 -11.5148,133.663 -34.7529,176.7574 -43.4427,80.4407 -94.946,178.044 -163.0216,241.3627 l -0.8318,33.468 172.0063,-1.9862 1.6639,-66.9361 -5.7067,-3.0549 c 20.2993,-2.4002 30.6897,-13.3017 31.172,-32.703 0.4823,-19.4014 -1.0945,-33.5158 -4.7302,-42.3435 l 134.1921,-241.5903 c 15.0976,12.9996 29.871,19.6811 44.3188,20.0454 14.4477,0.3643 28.5583,-5.1041 42.3323,-16.4049 54.633,89.7083 79.0977,172.2398 77.6509,230.4438 -0.2654,10.6702 -6.7789,20.7002 -19.5415,30.0851 -10.9086,12.3437 -20.0358,49.9703 -27.3823,112.8784 23.8384,10.3078 49.5387,13.6254 77.0975,9.9524 27.5592,-3.6732 42.5433,-15.1876 44.9519,-34.5398 27.2581,-10.9609 41.0189,-21.7754 41.284,-32.4461 -24.5104,-60.7994 -34.6956,-116.7633 -34.8152,-150.7394 l 9.5773,-152.6404 c -27.1602,-31.7465 -47.5916,-62.8376 -61.2918,-93.2735 49.4867,-90.96608 74.9779,-166.52296 76.473,-226.66671 49.6296,-57.9594 75.108,-113.61599 76.4343,-166.96937 l 0.9043,-36.37923 -105.469,-2.6594 1.2989,64.09775 -11.4884,55.03819 c -43.8223,-59.34516 -106.7801,-85.68416 -188.8671,-79.01797 -170.2191,23.85736 -310.9124,32.68649 -422.0752,26.48618 -111.16272,-6.2003 -254.24965,-36.74463 -429.2574,-91.63224 -3.39451,-18.5283 -17.57844,-29.5647 -42.54877,-33.10635 -22.12896,-1.52865 -37.26239,6.3403 -45.40186,23.60709 -41.27201,-6.86467 -73.73196,-19.33167 -97.37738,-37.39991 94.87382,-17.02114 151.48711,-65.09872 169.83855,-144.23084 -88.95829,-17.09203 -146.32152,16.35532 -224.89972,69.7727 26.11486,-51.415 65.49716,-92.3879 118.61064,-120.67688 73.40223,-39.09504 182.95987,-59.25681 256.78006,-80.71471 30.54127,-8.87767 165.08693,-80.44156 146.36813,-111.69507 -14.06426,-23.48213 -102.87407,3.62072 -172.42484,29.69031 -41.03541,15.38123 -85.48797,27.50323 -112.72195,32.99511 -68.38677,13.31377 -123.92191,31.22706 -166.60933,53.73506 -39.9381,21.05834 -80.85763,59.42653 -122.67688,113.74213 12.67597,-38.4311 24.63854,-64.92735 58.64067,-101.68846 C 466.27527,259.56557 563.19384,204.30771 625.93378,159.63933 651.89086,141.1589 755.15861,26.494698 727.29271,3.1589616 724.6756,0.96731606 721.28776,-0.02800334 717.25283,5.9875668e-4 Z M 693.64171,28.287339 l 8.28045,8.46333 C 643.90626,105.38753 583.84087,157.6588 521.72812,193.56231 c -62.11278,35.90346 -108.20725,71.09628 -138.28006,105.57868 -28.7623,32.97976 -48.39166,70.02262 -69.96947,140.31342 -5.75357,-0.79794 -11.80937,-1.78942 -18.0793,-2.5112 22.72686,-67.95371 47.72921,-118.62256 75.25065,-150.17949 30.07279,-34.48239 75.69264,-69.93146 136.8559,-106.34725 61.16319,-36.41578 123.20948,-87.126249 186.13587,-152.129131 z m 187.4909,173.008811 9.54559,11.18162 c -77.16778,45.66032 -150.93897,75.18451 -221.31073,88.57024 -70.37178,13.38567 -125.38079,31.39592 -165.02399,54.02901 -39.64314,22.63308 -82.73692,66.46897 -129.28148,131.507 l -15.31443,-15.56474 c 48.39602,-65.5762 92.41493,-109.68112 132.0581,-132.31421 39.64319,-22.63309 94.28876,-41.04145 163.93053,-55.22493 69.64172,-14.18348 144.7742,-41.57939 225.39641,-82.18399 z M 586.13328,457.82129 c -30.99192,44.84 -84.30668,76.49968 -159.94099,94.97661 l -8.45074,-8.94825 c 54.4699,-58.80802 110.60101,-87.48556 168.39173,-86.02836 z m -295.25427,18.46757 c 24.62236,-0.33468 42.1746,9.18651 52.65601,28.56086 11.97875,22.14208 31.57829,47.87465 58.79914,77.19579 27.2208,29.32107 76.20605,55.55125 146.95071,78.6898 -3.63843,68.82574 -41.81048,155.49268 -123.42705,196.36042 -65.3024,-75.64974 -89.05356,-127.05367 -130.13265,-173.63349 -53.48125,19.03553 -108.60063,26.38103 -165.35582,22.03797 -29.32803,-22.09422 -38.946968,-42.23578 -28.85701,-60.42406 l 99.36744,-100.87058 c 24.09661,-35.69076 51.49823,-67.31034 89.99923,-67.91671 z m 0.0469,51.25747 c -23.11624,-0.58288 -47.84564,5.58949 -74.1891,18.51461 -11.1255,21.0742 -9.96959,32.75181 3.46671,35.03195 45.26939,1.14147 68.84289,-16.70855 70.72239,-53.54656 z m 308.63829,87.86405 c 19.26357,0.48573 34.38187,28.61275 14.65045,74.89471 C 499.42858,959.54699 419.42538,912.68526 41.016562,946.63984 31.161376,947.09518 29.32439,922.3543 37.462798,924.55574 435.28767,904.8743 500.52607,914.65822 578.77118,681.90981 c 4.7024,-53.89261 7.65079,-66.83082 20.79298,-66.49943 z m 1127.3234,70.64965 39.0078,0.98358 c -1.1334,45.59289 -18.0615,86.90547 -50.7864,123.93638 -0.8189,-5.84468 -3.1557,-8.81473 -7.0083,-8.91187 13.1237,-23.93583 19.3869,-62.60616 18.7869,-116.00809 z M 645.86713,671.90579 c 15.21794,8.14906 65.70229,22.52707 151.44862,43.13187 85.74626,20.60485 175.99126,34.77034 270.73195,42.49785 94.7403,7.72756 239.2738,-0.51798 433.5972,-24.73817 46.2806,-0.77434 95.9458,17.46387 148.9918,54.71615 24.3672,27.79319 36.2251,54.78711 35.5741,80.97873 -3.7818,35.81942 -32.0291,105.96774 -84.743,210.44148 16.5657,31.4787 39.7528,67.9787 69.5617,109.4987 l -4.8826,138.1975 c -0.098,42.7072 8.1633,98.6216 29.0381,150.5938 l -14.5194,2.5469 c -18.9127,3.3175 -9.9087,-27.9147 -13.7615,-28.0118 l -7.2235,-0.1822 7.9804,27.8661 c -1.6623,28.1076 -22.2147,40.6923 -61.6566,37.7565 0.9405,-37.8321 16.304,-74.3298 46.0917,-109.4936 2.2655,-52.3587 -6.7404,-117.0296 -31.2755,-176.8595 -24.5345,-59.8292 -49.2744,-111.4134 -74.2195,-154.7514 -21.9589,-47.1462 -68.5769,-71.6182 -139.8519,-73.4154 -22.1532,-0.5586 -79.4522,16.9243 -171.8945,52.449 -35.036,13.6768 -86.7734,20.6227 -155.2076,20.8384 -68.4337,0.2158 -127.98276,-8.0797 -178.64536,-24.8879 C 869.726,952.2527 831.98224,900.33931 787.77252,895.34187 l -0.1809,7.27702 c 10.52259,3.17735 27.75085,27.39335 51.68423,72.64783 24.67957,54.00868 38.36078,123.99968 41.04258,209.97138 2.68176,85.9718 42.53657,169.2427 119.56384,249.809 l -33.15625,-3.7472 4.04547,11.7503 c 12.06316,18.7464 19.86412,34.4749 23.40336,47.1828 -24.51352,16.8543 -51.20741,24.4316 -80.07864,22.7326 l 10.11656,-57.9857 c -18.39407,-74.235 -37.56636,-136.6002 -57.51442,-187.0924 -19.94805,-50.4927 -40.00547,-96.6202 -60.17049,-138.3824 -20.16511,-41.7613 -53.39892,-71.4776 -99.7031,-89.1466 -46.30425,-17.6683 -77.37957,-37.3821 -93.22307,-59.13594 -15.84354,-21.75424 -22.74144,-54.44525 -20.69311,-98.07381 l -30.37621,0.6896 c -2.0497,82.45503 29.84239,137.13385 95.67473,164.03135 42.95722,16.614 72.81484,36.7788 89.5733,60.4976 l -54.90093,-1.3844 c -113.65507,-2.8658 -190.20366,-64.008 -229.64157,-183.42411 42.01953,-23.20733 79.29652,-59.15218 111.8297,-107.83596 32.53307,-48.6838 56.13341,-96.62408 70.79953,-143.81704 z M 331.10622,801.54538 c 7.92993,11.93313 8.76433,15.45833 17.61375,24.82873 -5.68756,8.85302 -21.21068,49.39354 -24.12286,54.95797 -9.7947,0.99137 -17.29608,1.22523 -27.9659,0.88468 7.59402,-20.4711 25.96712,-51.81701 34.47501,-80.67138 z m 44.89883,45.36254 16.22427,25.3566 c -17.87938,3.27781 -20.8763,3.74666 -34.8505,6.48493 3.85627,-6.25086 14.97612,-25.4056 18.62623,-31.84153 z m -79.58891,107.77486 c -38.2059,53.33112 -99.43872,122.02402 -142.4301,167.07072 -7.30446,6.6787 -20.80503,-4.9852 -13.24264,-8.7293 52.01634,-62.8689 82.18586,-97.4707 123.9545,-156.26138 12.32657,-0.81287 20.1094,-2.13715 31.71824,-2.08004 z m 1122.23066,80.05442 c 20.3308,-0.033 37.4578,3.4032 51.3814,10.3063 18.5651,9.2035 34.2891,26.1021 47.1708,50.6931 12.8818,24.5918 12.953,41.0944 0.2144,49.5093 -12.7382,8.4148 -24.7839,8.3544 -36.1372,-0.1825 -11.3533,-8.537 -18.6429,-25.465 -21.8687,-50.784 -6.0671,-27.3312 -26.9079,-41.9319 -62.5216,-43.8006 -10.5951,-0.2671 -39.9785,8.9404 -88.1499,27.6246 -48.172,18.6842 -87.3817,54.8253 -117.6271,108.4205 l -8.5249,-6.0391 c 19.2169,-36.4011 23.2035,-61.0537 11.9587,-73.9561 l 202.7049,-70.6019 c 7.4888,-0.7819 14.6223,-1.1784 21.3992,-1.1896 z m 8.1089,35.4226 21.3804,70.4282 c -28.6063,-12.3694 -35.7331,-35.8464 -21.3804,-70.4282 z m -30.4486,3.6008 c -7.6586,36.6919 -0.1332,63.5756 22.5734,80.6489 l -129.823,240.2449 c -16.6953,30.8957 12.249,50.0569 -4.209,53.0395 -16.4582,2.9823 -22.7564,13.9852 -18.8925,33.0107 3.8634,19.0253 2.8701,29.9209 -2.9813,32.6851 l -105.5451,3.662 26.6258,-27.4909 c 117.8979,-129.0378 175.5023,-275.0094 172.8099,-399.3224 13.7737,-11.3009 26.9204,-16.7935 39.4418,-16.4778 z m -856.46561,24.9969 51.5421,20.2275 c -29.95776,80.7806 -64.09493,155.1484 -102.4078,223.0998 l -0.32617,71.3364 c -24.92211,-5.4819 -40.16629,-2.955 -45.72901,7.5821 -5.56275,10.5371 -4.18941,23.1918 4.11747,37.9613 l 0.71768,65.3221 -78.01947,-1.9673 c 3.4924,-24.1788 6.48249,-44.7572 13.22479,-44.5872 l 56.96271,-81.5565 38.83205,-108.221 c 39.13142,-62.1066 59.49411,-125.1735 61.08565,-189.1972 z" />
</svg>
