<?xml version="1.0" encoding="UTF-8" standalone="no"?>
<!-- Generator: Adobe Illustrator 25.2.3, SVG Export Plug-In . SVG Version: 6.00 Build 0)  -->

<svg
   version="1.1"
   id="Ebene_1"
   x="0px"
   y="0px"
   viewBox="0 0 1800 1800"
   xml:space="preserve"
   sodipodi:docname="US9E298XT.svg"
   width="1800"
   height="1800"
   inkscape:version="1.2.1 (9c6d41e410, 2022-07-14)"
   xmlns:inkscape="http://www.inkscape.org/namespaces/inkscape"
   xmlns:sodipodi="http://sodipodi.sourceforge.net/DTD/sodipodi-0.dtd"
   xmlns="http://www.w3.org/2000/svg"
   xmlns:svg="http://www.w3.org/2000/svg"><defs
   id="defs723" /><sodipodi:namedview
   id="namedview721"
   pagecolor="#ffffff"
   bordercolor="#000000"
   borderopacity="0.25"
   inkscape:showpageshadow="2"
   inkscape:pageopacity="0.0"
   inkscape:pagecheckerboard="0"
   inkscape:deskcolor="#d1d1d1"
   showgrid="false"
   inkscape:zoom="0.32153204"
   inkscape:cx="807.07353"
   inkscape:cy="898.82178"
   inkscape:window-width="1920"
   inkscape:window-height="1137"
   inkscape:window-x="-8"
   inkscape:window-y="-8"
   inkscape:window-maximized="1"
   inkscape:current-layer="Ebene_1" />

<path
   id="path861"
   d="M 174.08371,7.7693911 C 157.39159,11.978245 140.69935,16.187088 124.00723,20.395943 L 237.88614,564.43185 c -26.94319,4.0963 -39.99567,33.3579 -41.36634,45.71789 C 147.27011,522.24961 98.01975,434.34906 48.770064,346.44893 34.180647,356.29485 19.591141,366.141 5.0017246,375.98692 93.103094,533.22776 181.205,690.46946 269.30633,847.71018 c -46.92786,22.08427 -39.62961,80.79246 -7.41775,114.18935 21.8754,18.84301 51.14631,15.4621 79.17437,13.91055 l 35.54209,63.43982 43.77612,-29.5444 -25.43657,-45.39806 c 38.02303,-12.33006 80.74246,-4.53802 121.33557,-8.22219 59.87403,-2.74798 120.23461,-0.74946 179.74128,-8.18801 42.79743,-16.63451 64.95907,-63.91006 92.87897,-101.21717 18.27148,39.10404 50.66391,74.99872 79.69721,102.48829 80.22894,75.78394 178.08118,123.72524 260.19828,196.59474 44.3088,30.4836 -7.0857,113.1171 6.4888,167.2186 -10.6493,69.1637 45.7167,136.7516 17.533,199.3971 -31.3267,46.5514 -31.8902,172.9506 -102.6016,124.9069 -48.5161,-21.5997 -105.39849,46.632 -85.6165,96.4566 11.26579,18.2457 17.39678,45.5468 31.73692,58.3701 47.49408,-1.2742 95.95558,4.4378 142.81948,-3.1673 54.6781,-34.3179 79.0491,-105.5573 120.1015,-156.1405 28.3639,-55.2777 90.137,-105.5725 82.1594,-172.7023 -68.3721,-11.359 -0.2509,-149.9554 32.5901,-72.9973 52.2809,41.018 78.1934,97.3291 80.0392,167.9822 6.4586,38.3271 25.3128,94.2597 -28.8996,62.9984 -41.4344,-9.2466 -57.5481,42.9316 -67.4015,76.7575 -2.9715,37.622 34.0514,55.0991 59.4182,67.7399 53.2287,-8.0132 122.8591,18.4844 162.7076,-27.7572 19.8152,-66.5669 1.9531,-138.5832 6.7202,-207.3996 -7.8374,-62.6414 15.0259,-137.8111 -15.2107,-192.5464 -69.1626,3.6264 -109.0717,-71.6267 -100.9769,-140.5622 12.1585,-46.1291 2.9788,-124.6704 14.8686,-149.872 95.6079,24.3822 215.7288,20.4535 279.0859,-74.57996 59.4058,-83.59198 17.2427,-202.54572 -52.667,-261.04326 -34.8005,-41.60128 -98.1406,-53.89859 -118.9938,-105.8455 17.344,-80.53692 -59.6678,-121.64374 -121.3123,-101.53277 -21.2474,2.33039 -53.3798,0.35022 -21.8239,23.59159 37.2821,26.87934 13.93,89.23579 52.2705,116.30285 48.7145,32.44202 104.8523,44.72677 149.2928,87.488 55.9004,38.77871 114.6963,118.86856 79.6233,194.02442 -45.9222,87.51563 -153.2909,87.76073 -232.0644,66.14216 -60.6018,-5.62918 -58.0691,-89.35361 -102.7998,-123.28581 C 1319.4472,779.57474 1203.5703,749.83931 1135.9125,652.12657 1078.9402,583.84065 1051.4605,495.5712 1024.2839,409.9378 1005.7776,360.9875 978.26194,316.4395 943.7842,279.40879 945.77679,232.05865 928.5399,183.58252 903.45754,145.56517 872.54558,97.440445 822.04684,65.135638 768.09287,62.899639 757.2813,61.868493 746.41958,61.450302 735.56881,61.658322 c -35.79941,1.864285 -75.54438,6.00741 -104.26118,31.845806 -5.31867,4.584325 -8.04099,9.982972 -9.04246,15.661612 -36.29491,17.37906 -76.39699,27.42253 -105.41756,58.65797 -19.21256,21.59001 -37.52931,44.55587 -60.38605,61.70373 -14.02801,13.87016 -28.36815,35.27692 -20.77839,56.95178 5.59319,16.85237 23.37942,22.42093 24.59133,41.20051 5.91736,14.62616 23.61602,18.94917 25.13151,36.48044 4.64973,23.72678 18.38581,48.31757 41.3722,53.84846 22.83326,6.04229 44.81589,-9.42331 58.58639,-28.34157 6.07686,-14.24384 21.37589,-16.16276 31.27454,-5.35552 5.1147,3.41531 7.67324,11.711 10.37168,18.73076 -4.23213,20.29247 -6.55535,41.09327 -6.86589,61.94049 0.49202,31.18728 -1.1142,64.20218 2.15129,95.92553 -9.45619,21.56064 -18.7869,48.62585 -32.69511,67.00181 -16.13492,35.24437 -30.14581,70.95352 -71.10946,47.57772 C 463.35959,663.01374 410.20152,642.1876 355.53134,627.70537 342.86589,591.54522 312.82853,563.64876 287.54289,549.79609 249.72337,369.12113 211.90321,188.44433 174.08371,7.7693911 Z M 772.77444,120.11157 c 61.78861,5.33127 107.0627,67.69295 118.08242,131.08789 9.49012,46.92612 -18.13367,89.15847 -40.48406,126.09702 -33.51598,55.91074 -83.85571,94.80588 -133.37865,131.96883 -6.6675,3.7628 -14.67974,11.06364 -22.23786,18.05043 -2.32959,0.56535 -4.88007,2.74667 -7.69562,6.8742 -6.06741,5.47815 -11.51265,10.08355 -14.50531,10.45746 -2.51059,-66.77685 -5.63608,-139.3944 30.23675,-197.31338 20.36527,-28.11237 39.74259,-66.80557 24.19681,-102.79974 -7.55881,-20.1196 33.4116,-17.29966 42.3069,-35.21991 24.54964,-22.32942 24.51899,-64.31291 3.47862,-89.2028 z m -70.95016,1.65933 c -18.05318,15.74745 3.47145,50.7079 -20.57043,63.43568 -18.78152,1.83842 -29.05032,-18.99208 -16.11821,-34.26875 3.1837,-21.2872 19.84916,-26.75934 36.68864,-29.16693 z m 10.14442,20.15137 c 16.24656,3.71999 37.96562,27.71049 9.69737,33.30461 -10.24303,10.90695 -1.90413,-29.20798 -9.69737,-33.30461 z m -75.92517,8.00455 c 0.66476,0.87505 1.36793,1.87382 1.98224,2.61278 -17.05529,27.34281 7.27126,60.58397 33.37917,64.39547 -13.94095,27.34717 23.07614,51.97301 2.58859,76.98784 -12.77202,17.69027 -23.25285,37.09864 -31.48827,57.5916 -5.58264,-5.63136 -12.0595,-10.134 -19.71931,-12.85053 -18.27417,-8.51355 -41.39289,-7.39891 -55.86576,8.97722 -9.95756,9.09843 -16.02259,24.79893 -29.48265,28.2007 -8.94654,-1.09891 -17.79179,-23.14222 -11.19375,-26.94017 12.89918,-3.86752 19.0436,-18.2518 25.28305,-29.83449 -9.98652,-8.50393 -22.88022,-4.92777 -33.82025,-1.29896 -9.34265,7.46585 -17.00146,-6.52857 -22.4069,-12.64151 0.30915,-6.27784 1.94353,-12.39548 2.83535,-18.60278 -8.0801,-4.36165 -16.87789,-7.48932 -23.83144,-13.98732 7.60488,-13.13118 21.56911,-19.24085 31.08788,-30.47441 10.5264,-9.66595 19.61055,-21.23423 29.14852,-32.17851 -0.29293,6.10366 1.04893,12.35813 4.62904,18.21685 8.27044,9.43576 8.7361,-28.29603 24.56993,-30.72393 13.20893,-6.81151 47.59463,-19.74209 15.47882,-22.63814 18.60013,-9.11919 38.07686,-16.05464 56.82574,-24.81171 z m -47.58119,40.93187 c -22.3485,-1.52304 -38.63695,39.74276 -22.70819,44.42755 8.04557,-12.54017 28.42108,-10.47428 40.44714,-21.82992 4.51691,-3.79599 14.09597,-9.99718 14.17686,-13.50313 -9.00614,-3.10648 -17.73428,-8.17316 -27.37225,-8.19664 -1.53598,-0.50538 -3.05365,-0.79641 -4.54356,-0.89786 z m -37.2348,59.1165 c -15.81184,31.78331 18.07149,56.57591 44.39024,54.19823 13.61986,1.00052 45.10862,-2.02854 45.34056,-10.38276 -25.40315,-11.8582 -54.83276,-7.67082 -79.59224,-20.62269 -5.78145,-6.06467 -7.99184,-15.02563 -10.13856,-23.19278 z m 376.48701,93.91425 c 0.59591,0.37532 0.91968,0.74606 1.54116,1.12194 66.09994,85.01215 69.90698,205.28409 132.43409,293.12371 53.506,91.75072 136.2912,155.12799 222.9285,204.60976 106.3588,59.26545 177.0496,207.51255 128.9361,333.75265 -35.3143,90.1403 -131.0857,136.36 -154.3552,233.0858 1.2354,57.5472 46.6882,94.5433 -9.2523,141.0591 -40.3846,60.7149 -79.9945,122.4498 -122.3987,181.2869 -29.2379,3.7322 -83.9833,15.3696 -83.9122,-17.1375 -21.4083,-12.7105 -3.1013,42.1373 -24.6768,8.5954 -21.40361,-46.7572 50.5944,-29.5781 70.6158,-11.1697 53.2529,14.3164 57.6735,-66.0101 79.9828,-100.7352 16.2095,-46.0564 41.7842,-92.8372 51.4582,-139.4935 -54.1591,-126.7932 -38.0192,-276.9253 8.9279,-403.0665 34.7115,-34.8214 5.7033,-51.4551 -22.2554,-70.42931 -32.6482,41.45061 -33.8576,146.51341 -89.307,68.85311 -95.493,-77.96738 -216.26979,-128.56499 -282.23799,-243.02493 -1.37728,-14.36123 -4.70576,-24.03899 -9.43887,-30.80059 30.83356,-46.00925 59.86676,-93.53171 83.7588,-144.31169 -15.27027,-8.51442 -30.54063,-17.02883 -45.8109,-25.54315 -45.73209,95.16648 -107.28408,179.8259 -170.17415,261.84526 -40.64744,18.92273 -89.78054,7.42807 -133.9266,12.93144 -22.84291,0.61699 -107.30418,3.0201 -92.55052,2.28004 67.52378,-3.82122 135.06816,-7.72444 202.45722,-13.82309 11.07863,-75.78748 61.18136,-141.23675 56.51093,-219.95359 -12.74814,-28.64559 -9.83209,-62.7737 -7.42559,-89.33079 16.21751,-16.12628 36.73013,-28.18727 53.67757,-42.84707 65.63189,-47.16798 120.96324,-112.75463 154.49315,-190.8785 z m 595.14025,211.82969 c 32.9244,-1.23913 14.7481,78.33725 3.9528,25.11867 l -2.2913,-14.40536 z m -877.68722,80.54969 c 0.32228,0.53247 0.58865,1.08504 0.91928,1.61456 8.98973,12.73138 18.0907,25.36897 27.17007,38.02467 -0.57212,17.96645 -7.17942,33.64347 -28.56157,44.23132 -15.91702,39.01164 -75.45225,29.54258 -84.5361,19.58822 16.96634,0.77305 39.89632,10.88554 41.38583,-16.0221 10.99674,-31.22081 28.03472,-58.89373 43.62249,-87.43667 z m 939.16922,11.58563 c -0.9184,7.78866 -3.8206,-0.7393 0,0 z m -1275.34698,4.40872 c 8.12477,10.31387 -1.09948,7.03113 0,0 z m -67.34716,38.41924 c 28.04864,0.95148 28.79141,27.67227 33.34612,51.00099 1.66563,20.00297 26.64441,-0.84216 39.01295,0.40745 28.99042,5.26749 -9.92094,-45.46848 25.50852,-27.23886 85.57846,30.81611 167.81033,75.29695 257.03059,92.23144 24.96803,5.27361 58.90947,-27.65447 36.11352,16.60643 -36.09263,26.74471 -103.24139,9.91822 -150.82418,19.82072 -47.96488,4.02029 -95.84706,8.49792 -139.46906,-17.34662 -26.16362,4.65869 -35.3621,-16.49057 -46.2461,-38.26143 -18.15736,-32.40696 -36.31497,-64.81316 -54.47236,-97.22012 z m 80.88453,188.66027 c 19.00898,11.02936 84.25083,20.07854 45.2725,28.98772 -6.04512,17.70163 -31.82875,16.1313 -52.47262,11.0654 l 4.75153,-17.63459 c -5.38852,2.62042 -8.68625,9.1384 -9.96164,16.34414 -7.45454,-2.11842 -13.87826,-4.54196 -17.79339,-6.45409 -11.05744,-14.81498 21.87806,-26.8242 30.20362,-32.30858 z M 1425.4653,1261.7588 c 7.9683,67.8748 69.2137,113.1913 112.0347,135.5777 -6.5364,101.8258 1.8914,204.164 -1.6694,305.8184 -37.7554,12.0425 -85.5566,-8.3773 -104.133,-5.4196 -25.0364,26.2161 -21.3381,-49.8303 14.6802,-16.7196 19.6062,-4.3959 79.7588,31.139 73.3365,-9.2906 -3.7306,-83.4758 -22.6299,-165.1903 -35.9832,-247.2629 -26.721,-39.5832 -104.0214,-79.7776 -90.7414,-121.8357 11.2742,-13.1795 22.2891,-26.6528 32.4756,-40.8677 z"
   style="stroke-width:1.04238" /></svg>
