<?xml version="1.0" encoding="UTF-8" standalone="no"?>
<svg
   width="785"
   height="1800"
   version="1.1"
   id="svg3679"
   sodipodi:docname="US9F31AVARA.svg"
   inkscape:version="1.2.2 (732a01da63, 2022-12-09)"
   xmlns:inkscape="http://www.inkscape.org/namespaces/inkscape"
   xmlns:sodipodi="http://sodipodi.sourceforge.net/DTD/sodipodi-0.dtd"
   xmlns="http://www.w3.org/2000/svg"
   xmlns:svg="http://www.w3.org/2000/svg">
  <defs
     id="defs3683" />
  <sodipodi:namedview
     id="namedview3681"
     pagecolor="#ffffff"
     bordercolor="#000000"
     borderopacity="0.25"
     inkscape:showpageshadow="2"
     inkscape:pageopacity="0.0"
     inkscape:pagecheckerboard="0"
     inkscape:deskcolor="#d1d1d1"
     showgrid="false"
     inkscape:zoom="0.16"
     inkscape:cx="1371.875"
     inkscape:cy="737.5"
     inkscape:window-width="1920"
     inkscape:window-height="1137"
     inkscape:window-x="-8"
     inkscape:window-y="-8"
     inkscape:window-maximized="1"
     inkscape:current-layer="svg3679" />
  <path
     id="path2909"
     style="fill:#000000;stroke:none;stroke-width:100"
     d="M 400.69939,3.146484 C 332.96439,1.12766 35.357872,35.629543 323.74039,550.37696 L 1.0817917,547.98457 V 657.29121 L 206.53336,657.46876 C 154.73586,705.14124 89.368072,766.4189 79.273562,778.68946 22.753622,847.39325 10.292602,892.40752 8.9552017,1102.0526 l -4.41992,692.7754 H 99.757942 v -715.164 c 0,-239.81698 158.807718,-329.13263 238.408248,-404.91985 l 10.1777,1126.14445 h 103.2109 L 441.40059,675.62501 c 75.6261,77.52926 247.8789,163.547 247.8789,411.78309 v 710.8672 h 95.2246 l -4.42,-688.6133 c -1.3374,-208.38509 -13.7984,-253.12894 -70.3183,-321.4198 -11.0344,-13.3325 -88.4463,-85.22079 -141.1797,-133.20899 l 214.95955,2.39239 V 552.76935 L 463.27949,550.37696 C 754.82579,35.661003 468.43429,5.165309 400.69939,3.146484 Z m 0,88.37695 c 91.7957,4.304201 190.548,78.833226 -7.1895,412.341806 -207.19433,-346.11767 -84.6062,-416.645996 7.1895,-412.341806 z"
     sodipodi:nodetypes="sccccscccsccccscccsccccsscs" />
</svg>
