<?xml version="1.0" encoding="UTF-8" standalone="no"?>
<svg
   width="1800"
   height="1083.7583"
   id="svg3970"
   version="1.1"
   xmlns="http://www.w3.org/2000/svg"
   xmlns:svg="http://www.w3.org/2000/svg"
   xmlns:rdf="http://www.w3.org/1999/02/22-rdf-syntax-ns#"
   xmlns:cc="http://creativecommons.org/ns#"
   xmlns:dc="http://purl.org/dc/elements/1.1/">
  <metadata
     id="metadata3977">
    <rdf:RDF>
      <cc:Work
         rdf:about="">
        <dc:format>image/svg+xml</dc:format>
        <dc:type
           rdf:resource="http://purl.org/dc/dcmitype/StillImage" />
        <dc:date>03/04/06</dc:date>
        <dc:creator>
          <cc:Agent>
            <dc:title>SR &amp; ST</dc:title>
          </cc:Agent>
        </dc:creator>
        <dc:publisher>
          <cc:Agent>
            <dc:title>Serge Rosmorduc</dc:title>
          </cc:Agent>
        </dc:publisher>
        <dc:description>variante optimisée du signe de Jsesh représentant &quot;a waterskin&quot;</dc:description>
        <cc:license
           rdf:resource="http://creativecommons.org/licenses/GPL/2.0/" />
      </cc:Work>
      <cc:License
         rdf:about="http://creativecommons.org/licenses/GPL/2.0/">
        <cc:permits
           rdf:resource="http://web.resource.org/cc/Reproduction" />
        <cc:permits
           rdf:resource="http://web.resource.org/cc/Distribution" />
        <cc:requires
           rdf:resource="http://web.resource.org/cc/Notice" />
        <cc:permits
           rdf:resource="http://web.resource.org/cc/DerivativeWorks" />
        <cc:requires
           rdf:resource="http://web.resource.org/cc/ShareAlike" />
        <cc:requires
           rdf:resource="http://web.resource.org/cc/SourceCode" />
      </cc:License>
    </rdf:RDF>
  </metadata>
  <defs
     id="defs3975">
    <linearGradient
       id="linearGradient3757">
      <stop
         style="stop-color:#000000;stop-opacity:1;"
         offset="0"
         id="stop3755" />
    </linearGradient>
  </defs>
  <path
     id="path3972"
     style="fill:#000000;stroke:none;stroke-width:72.9701"
     d="M 1317.8596,0.25585938 C 1203.8768,7.4129686 1218.1147,162.49484 1233.3101,244.95312 1061.5105,223.67842 846.07244,206.96625 740.5255,206.78711 536.42299,206.4407 481.73541,211.4734 388.65922,241.46484 366.01901,197.72732 329.5414,133.99559 279.22994,50.269531 L 215.08215,85.884766 C 257.84688,147.11728 279.22994,208.97486 279.22994,271.45703 114.45982,198.97776 21.382393,230.84363 0,367.05469 c 21.382393,136.21108 114.45982,167.45356 279.22994,93.72461 0,62.4822 -22.01052,124.3398 -66.03304,185.57226 l 66.03304,35.61524 c 50.31146,-83.72605 86.78907,-149.33389 109.42928,-196.82032 93.07619,33.74036 210.36518,47.17382 351.86628,40.30079 88.98648,-4.32228 320.8761,-30.449 490.9009,-55.87791 5.3423,-0.79899 -28.3359,105.27401 -6.365,337.67478 21.1574,3.73005 75.4088,-10.33216 119.6386,-5.6803 -18.2834,-182.6915 -1.3993,-350.03451 3.8524,-351.37829 45.5717,-11.65987 69.0814,-16.53924 91.371,-27.39063 69.178,177.44933 95.1648,386.04127 87.6181,660.96288 h 158.4813 c 3.7733,-68.7305 5.6617,-140.58394 5.6617,-215.56249 h 105.6528 c 8.8047,-131.21252 -62.9547,-423.98349 -249.7166,-555.55469 -21.5486,-15.18062 -90.4913,-35.48217 -174.615,-49.94921 45.7448,-88.38977 109.8203,-247.378688 -30.6005,-261.82812875 -8.7763,-0.90308947 -16.9468,-1.0845625 -24.5456,-0.60742187 z m 8.8502,38.79296862 c 2.6952,-0.01383 5.4925,0.144478 8.3961,0.484375 92.9179,10.876698 40.9683,155.239087 -14.6436,261.113277 35.3544,5.26965 84.5467,13.30577 121.7414,19.92774 22.1456,3.34271 54.8568,13.21264 73.9378,20.50587 154.2618,84.74437 239.3015,357.87823 228.3693,472.7539 l -52.8263,-1.875 c 2.5154,-93.72321 -41.8347,-307.69559 -187.5336,-454.19253 -15.0808,-2.13555 -11.6038,11.10032 -11.5059,9.74627 173.4728,248.77823 156.9026,421.32983 140.5513,656.26267 h -54.7136 c 15.0935,-234.93284 -15.0958,-445.88809 -90.563,-628.33593 l -14.403,-30.93088 c -9.1183,4.24299 -20.9061,3.67307 -29.5692,6.13596 -32.1919,7.18176 -98.1332,31.28348 -135.3864,39.40625 -17.6001,81.75735 -13.7457,266.97077 -5.3923,344.85156 -13.8089,2.71694 -32.0613,13.56908 -46.3584,8.58261 -12.6388,-142.97607 20.6793,-349.2224 14.0708,-348.17926 -189.7194,29.75457 -379.82869,44.45605 -577.52244,49.22165 -120.11867,1.24966 -258.16319,-18.7442 -414.12882,-59.98242 -42.76474,18.74464 -88.04649,28.74253 -135.8425,29.99219 -47.795844,1.24966 -72.949618,-21.24567 -75.465209,-67.48242 2.515591,-47.48647 27.669365,-70.29246 75.465209,-68.41797 47.79601,1.87449 93.07776,11.55969 135.8425,29.05469 155.96563,-39.98857 244.97471,-71.43081 423.78903,-70.24219 136.95455,0.91037 353.50093,9.2258 568.76293,35.92773 -13.6278,-87.45752 -28.6242,-253.899498 54.9279,-254.328122 z m 5.4553,26.697266 c -65.7413,-5.914178 -68.2767,118.084206 -28.6897,199.666016 67.0996,-67.42829 94.4307,-193.751828 28.6897,-199.666016 z m -7.7966,34.984376 c 1.2576,-0.30722 2.6173,-0.29618 4.0851,0.0703 23.4835,5.864 -1.591,83.59423 -16.6253,110.56836 -2.3564,-29.58599 -6.3233,-106.03034 12.5402,-110.63867 z" />
</svg>
