<?xml version="1.0" encoding="UTF-8" standalone="no"?>
<!-- Created with Inkscape (http://www.inkscape.org/) -->

<svg
   width="1798.3455"
   height="1798.2969"
   viewBox="0 0 1798.3455 1798.2969"
   version="1.1"
   id="svg10448"
   xmlns="http://www.w3.org/2000/svg"
   xmlns:svg="http://www.w3.org/2000/svg">
  <defs
     id="defs10445" />
  <path
     id="path3886"
     style="fill:#000000;stroke:none;stroke-width:82.7327"
     d="m 935.26195,0 v 122.00977 h -130.3808 v 76.16015 h 130.3808 l -5.4687,112.68555 -125.5176,-1.25586 v 74.2168 l 121.8066,1.25586 -11.2715,228.21679 c -150.0125,-0.65971 -300.0246,-1.54254 -450.0371,-3.55468 -52.6956,-19.92376 -97.4578,-61.0287 -135.4882,-103.99415 -38.3091,-43.28031 -69.806,-88.47745 -95.67,-116.14257 l -0.062,-0.0664 -0.07,-0.0625 c -16.0997,-14.04965 -30.9207,-21.30812 -43.6386,-23.4375 -2.7388,-0.4585 -5.3826,-0.67969 -7.9219,-0.67969 -9.439,0 -17.4364,3.05542 -23.5332,8.32813 -15.3111,13.24177 -18.4144,40.34799 -2.8242,67.3457 l 0.076,0.13086 0.096,0.11719 c 75.0796,91.0967 172.9503,167.5874 250.3457,212.87109 -3.6684,51.99066 6.6763,147.57821 3.2168,200.2168 C 251.28785,803.31799 189.39975,773.3854 79.041253,643.38477 l -0.3711,-0.4375 -0.5566,-0.14454 c -9.5014,-2.4828 -18.9859,-3.72851 -27.9024,-3.72851 -12.8843,0 -24.5807,2.60049 -33.4179,7.81836 -15.3151004,9.04276 -22.0696003,25.90759 -12.0742004,50.08008 9.7713004,23.62925 35.7002004,54.65408 85.7441004,93.16015 49.487697,38.07776 122.664197,83.57317 227.316397,136.59375 -7.6468,6.2342 -34.336,28.17679 -63.6777,54.44727 -34.8683,31.21837 -73.4164,68.50667 -88.3086,92.87107 -40.4107,66.113 -70.187496,125.4446 -83.548897,176.2188 -13.4614,51.1561 -10.2589,93.7833 15.351601,125.9179 l 0.4141,0.5215 0.6523,0.1328 c 0.1862,0.037 5.821096,1.1641 14.720696,1.1641 9.4144,0 22.4825,-1.2612 36.6133,-6.4062 27.7264,-10.0963 59.3331,-35.0668 75.5547,-94.0997 32.1341,-116.9395 81.3156,-210.2795 82.9902,-213.4414 15.3242,-22.7331 36.8086,-52.3668 54.4649,-75.20895 8.8233,-11.41469 16.6854,-21.12678 22.3339,-27.42187 2.7191,-3.0301 4.9014,-5.24505 6.3926,-6.43555 l 1.3574,0.0293 c 112.7628,2.4303 226.9579,3.25 341.8809,3.25 54.0435,0 108.5491,-0.51839 162.8418,-0.79882 l -5.9102,119.64649 c -83.4178,33.8687 -129.6993,79.0744 -139.0625,135.8047 -9.3632,56.7304 -13.2258,114.8077 -11.5234,174.0781 1.7024,59.2704 8.3957,121.5094 20.3125,186.707 11.9169,65.1975 43.1384,127.164 93.3594,166.1133 50.2209,38.9492 113.5936,58.4805 150.19535,58.4805 36.6017,0 99.9745,-20.044 150.1953,-59.8399 50.221,-39.7958 81.2472,-101.2497 93.1641,-164.7539 11.9169,-63.5041 18.8054,-125.4237 20.5078,-185.541 1.7024,-60.1171 -2.1603,-118.5137 -11.5235,-175.2441 -9.3631,-56.7303 -56.6767,-101.936 -141.7968,-135.8047 l -4.5645,-120.69532 c 114.3343,-0.8388 228.6712,-1.68164 342.2598,-1.68164 114.9238,0 229.1195,0.8198 341.8847,3.25 l 1.7403,0.0391 0.1152,-1.73437 c 0.01,-0.1048 1.4915,-21.66387 1.1192,-43.24805 -0.187,-10.87309 -0.8464,-21.73537 -2.3985,-29.91406 -0.8,-4.2187 -1.8484,-7.7573 -3.1953,-10.27539 -0.7438,-1.3907 -1.595,-2.50371 -2.5547,-3.28711 -1.0995,-0.8969 -2.351,-1.37696 -3.7012,-1.37696 H 1559.5062 V 702.52148 c 76.6726,0.98246 156.2237,1.96482 232.8496,2.94727 l 1.7832,0.0215 0.061,-1.78125 c 0.9903,-29.70796 -0.9903,-53.47547 0,-83.18359 l 0.062,-1.86133 -1.8594,-0.0215 c -231.3944,-3.10598 -462.7891,-3.80267 -694.1835,-4.58399 l -8.6602,-228.98632 120.6152,-0.62891 v -74.2168 l -123.3496,0.62891 -4.2969,-112.68555 h 124.8145 l 2.5391,-76.16015 H 1074.9105 V 0 Z m -161.8691,694.73438 137.3125,1.69531 -8.5078,172.23828 -131.7754,-1.62695 z m -89.125,2.9707 2.9707,169.33594 -187.1602,-2.97071 -2.9707,-163.39453 z m 417.15435,1.07812 153.2402,1.89258 -2.9707,172.30664 -143.748,-1.77539 z m 221.5683,4.86328 h 145.5703 v 169.33594 l -145.5703,-2.9707 z M 291.29125,1007.6055 c -88.2281,159.6511 -123.9394,287.7929 -123.9394,287.7929 -1.6532,21.49 -14.5465,32.6758 -26.7383,32.6758 -13.6293,0 -26.3831,-13.9805 -21.5781,-43.1797 23.8076,-63.7206 17.5063,-137.2443 172.2558,-277.289 z m 676.7832,120.2148 h 74.02355 c 81.7153,23.7081 126.0028,56.7501 132.8125,99.0859 6.8095,42.3363 9.8355,99.9008 8.9843,172.7188 -0.851,72.818 -13.2757,142.742 -37.1093,209.6328 -23.8337,66.8911 -70.6312,105.439 -140.4297,115.5996 -71.50105,-10.1606 -118.61915,-48.7085 -141.60165,-115.5996 -22.9825,-66.8908 -35.407,-136.3021 -37.1094,-208.2734 -1.7024,-71.9714 0.8076,-129.5358 7.6172,-172.7188 6.8096,-43.1825 51.0972,-76.7372 132.8125,-100.4453 z m 37.69535,82.5723 c -49.79535,0 -99.77915,35.2181 -150.00005,105.4961 v 73.6328 c 100.4418,-142.2492 200.08885,-142.2492 298.82825,0 v -73.6328 c -49.3698,-70.278 -99.0328,-105.4961 -148.8282,-105.4961 z m 0,152.3183 c -17.44965,0 -35.05455,4.6738 -52.92975,13.9883 -35.7504,18.6279 -53.7109,60.1864 -53.7109,124.5371 l 28.125,170.1914 27.9297,-10.1015 -10.3516,-99.086 c -6.8096,-71.1244 3.4257,-107.7665 30.6641,-129.7812 27.23855,-22.0148 34.15965,-22.0148 60.54695,0 26.3872,22.0147 36.1064,57.8245 29.2968,127.2558 l -12.6953,101.6114 33.0078,7.5761 25.3907,-167.666 c -1.7024,-64.3505 -19.4676,-105.9092 -53.5157,-124.5371 -17.024,-9.314 -34.3081,-13.9883 -51.7578,-13.9883 z" />
</svg>
