<?xml version="1.0" encoding="UTF-8" standalone="no"?>
<!-- Created with Inkscape (http://www.inkscape.org/) -->

<svg
   width="562.79999"
   height="1785.8"
   id="svg2715"
   version="1.0"
   xmlns="http://www.w3.org/2000/svg"
   xmlns:svg="http://www.w3.org/2000/svg"
   xmlns:rdf="http://www.w3.org/1999/02/22-rdf-syntax-ns#"
   xmlns:cc="http://creativecommons.org/ns#"
   xmlns:dc="http://purl.org/dc/elements/1.1/">
  <defs
     id="defs2717" />
  <metadata
     id="metadata2720">
    <rdf:RDF>
      <cc:Work
         rdf:about="">
        <dc:format>image/svg+xml</dc:format>
        <dc:type
           rdf:resource="http://purl.org/dc/dcmitype/StillImage" />
      </cc:Work>
    </rdf:RDF>
  </metadata>
  <path
     id="path2490"
     style="fill:#000000;stroke:none;stroke-width:100"
     d="M 3.8554688 3.0527344 C 1.9753652 16.351944 30.739666 54.080046 67.242188 73.216797 C 81.375306 84.603013 119.26588 130.92203 118.74023 165.04492 C 118.21463 199.1678 118.74023 238.74755 118.74023 280.66992 C 118.74023 323.56727 139.18985 378.24933 181.24023 449.41992 C 161.26629 459.16931 151.07026 477.19653 146.86523 502.54492 L 49.990234 574.41992 C 20.554954 587.09415 7.2914834 606.49661 6.2402344 633.79492 C 5.1889354 661.09317 2.0927323 681.47061 -0.009765625 693.16992 C -2.1122635 704.86915 7.090055 712.32021 28.115234 718.16992 C 43.884139 728.89423 57.702025 734.76985 68.740234 733.79492 C 79.778483 732.81992 90.003275 734.48252 99.990234 736.91992 C 109.9772 739.35722 124.84633 732.30652 140.61523 718.16992 C 152.32964 707.66807 190.2543 706.11471 243.74023 708.79492 L 245.74219 1784.3867 L 314.49219 1784.3867 L 312.49023 711.91992 C 356.14798 710.46958 390.98717 699.23658 412.49023 674.41992 C 436.14361 647.12167 446.86523 614.59261 446.86523 577.54492 C 446.86523 540.49723 461.17996 506.99325 490.61523 480.66992 C 520.0506 454.34654 533.83961 428.1806 534.36523 399.41992 C 534.89093 370.65917 535.41641 344.89359 534.36523 324.41992 L 409.36523 415.04492 C 445.1081 368.24787 459.18784 322.09663 465.61523 280.66992 C 470.57714 248.68877 479.425 218.53816 479.36133 178.9375 C 479.30723 145.28571 488.42134 111.581 494.14258 99.017578 C 509.69332 64.869244 554.46397 35.828109 563.5 3.5273438 C 535.43479 -0.39353593 487.64628 43.101982 472.11914 53.580078 C 440.19776 73.212367 422.81642 122.20808 422.81641 176.80469 C 422.81641 338.64459 363.15217 402.54492 290.61523 402.54492 C 217.02702 402.54492 185.06627 323.71458 181.24023 161.91992 C 180.39825 126.31422 172.35006 114.7833 129.57227 54.572266 C 106.45771 22.037839 10.013242 0.6248997 3.8554688 3.0527344 z M 506.24023 383.79492 C 506.24023 413.0431 492.94801 438.52132 465.61523 461.91992 C 438.28246 485.31846 406.5569 504.32055 371.86523 515.04492 L 378.11523 540.04492 L 409.36523 527.54492 L 409.36523 568.16992 C 409.36523 637.3906 380.73577 672.47 321.86523 674.41992 C 318.59465 674.52824 315.73162 674.34172 312.49023 674.41992 C 288.72008 674.99364 265.93999 675.4644 243.74023 674.41992 C 214.47691 673.0431 185.89983 672.35854 159.36523 668.16992 C 139.91693 680.84415 114.78708 708.81293 99.990234 705.66992 C 92.631423 707.57088 85.474057 705.67692 78.115234 702.54492 C 97.037916 679.14634 111.3814 666.99479 118.74023 665.04492 C 126.09907 663.09499 131.24023 658.39458 131.24023 652.54492 C 130.18896 644.74541 105.59189 658.07209 62.490234 693.16992 L 46.865234 690.04492 C 40.557681 678.34563 37.987107 666.19409 40.615234 652.54492 C 43.243412 638.89577 49.903914 630.95721 59.365234 627.54492 C 68.826585 624.13263 69.323428 627.37073 62.490234 640.04492 C 55.657041 652.71909 58.724488 658.10728 71.865234 655.66992 C 85.005971 653.23256 91.637706 645.78151 93.740234 630.66992 C 95.842762 615.5584 92.775316 603.11949 84.365234 596.29492 C 115.90301 566.0718 147.62867 547.64428 178.11523 536.91992 C 182.32026 509.62167 206.3917 487.38138 246.86523 471.29492 C 287.33878 455.20841 308.28523 451.19554 312.49023 461.91992 C 316.69533 472.64423 325.89755 477.54492 340.61523 477.54492 C 356.38422 477.54492 376.36566 473.81931 396.86523 465.04492 C 417.36481 456.27043 453.67719 429.61707 506.24023 383.79492 z M 215.61523 502.54492 C 200.89761 520.09386 199.40704 532.24535 206.24023 540.04492 C 213.07343 547.84443 220.69884 550.19471 234.36523 546.29492 C 248.0316 542.39521 272.62869 540.24512 303.11523 543.16992 C 287.34636 518.7964 270.95789 507.13235 256.24023 505.66992 C 241.52261 504.20755 227.17911 503.51991 215.61523 502.54492 z " />
</svg>
