<?xml version="1.0" encoding="UTF-8" standalone="no"?>
<svg
   width="1800"
   height="708.93384"
   version="1.1"
   id="svg1"
   xmlns="http://www.w3.org/2000/svg"
   xmlns:svg="http://www.w3.org/2000/svg">
  <defs
     id="defs1" />
  <path
     style="fill:#000000;stroke:none;stroke-width:58.4941"
     d="m 201.58381,315.82244 c 23.02538,0 62.2977,9.6522 74.11103,30.82123 33.30899,8.57514 170.36,78.29073 279.36593,60.48328 C 926.13632,346.50723 1722.1249,24.156373 1727.1135,87.147983 V 620.66552 c 1.6398,20.7079 -1151.77121,-2.7514 -1253.5018,12.6782 -25.31992,-20.026 -67.20243,-38.93721 -89.59315,-38.93721 -52.61043,0 -66.08727,47.39161 -98.99278,47.39161 -7.78736,0 -15.43472,-3.1947 -23.32193,-10.2934 -7.49322,-38.97667 29.08232,-66.18391 99.42943,-84.26865 L 331.1123,525.45862 c -51.00705,19.21186 -101.53135,27.25056 -107.9754,108.7395 -1.73472,11.7503 -14.54959,18.9067 -25.51938,18.9067 -8.18104,0 -15.33598,-3.9804 -16.10301,-13.0041 -13.91112,-65.52714 37.97563,-138.03698 101.69772,-163.3549 L 256.6485,462.20256 c -42.37848,-0.24782 -99.83906,80.86056 -110.86959,145.33104 -0.97299,5.68702 -11.01731,13.06722 -19.80803,13.06722 -7.14674,0 -13.46492,-4.8779 -13.40672,-19.50888 C 95.553329,511.04138 168.0889,443.12088 219.99178,425.93083 L 190.94263,411.5582 C 156.53883,412.68006 81.202569,496.14213 84.25438,556.40787 22.175217,535.89225 63.975659,423.34459 116.03497,399.98288 c -2.09076,-52.39624 43.779,-84.16044 85.54884,-84.16044 z m 2.22968,-57.59888 c -70.92042,0 -138.536047,49.96013 -139.108761,115.04046 C -17.177015,452.44186 3.7450239,478.44529 0,516.70004 c 2.1809512,39.25691 21.67398,88.61706 71.835506,88.61706 2.060779,53.22262 22.25531,65.76532 69.246914,61.92042 0,26.3536 47.71501,73.4483 102.23287,10.067 17.37299,59.264 85.75222,-0.4677 114.12005,-4.17 22.96694,0 52.84688,33.9177 114.45119,33.9177 132.50867,-22.9836 1325.75387,1.2411 1325.81607,-17.1381 l 2.2933,-676.435017 c 0.2959,-87.29323 -872.37594,275.966177 -1252.00199,328.359427 -97.12355,13.40429 -223.33279,-53.00882 -259.19813,-61.2904 -28.11142,-7.44152 -30.60284,-14.88304 -84.98229,-22.32457 z"
     id="path1" />
</svg>
