<?xml version="1.0" encoding="UTF-8" standalone="no"?>
<svg
   width="1796.823"
   height="1518.6113"
   version="1.1"
   id="svg1"
   xmlns="http://www.w3.org/2000/svg"
   xmlns:svg="http://www.w3.org/2000/svg">
  <defs
     id="defs1" />
  <path
     id="path1"
     style="fill:#000000;stroke:none;stroke-width:112.558"
     d="M 1796.8231,18.60314 C 1323.029,-55.441496 921.89552,98.186142 639.82056,361.52256 371.7526,611.78283 166.72676,725.56774 22.165206,702.87662 14.611726,701.69104 7.223704,700.13237 0,698.20172 l 189.63587,462.70998 c 84.96424,-43.7668 131.59083,-78.2987 182.77249,-96.6743 11.01405,26.1155 19.48356,50.641 21.01896,74.8058 2.222,34.9704 -3.86738,201.9946 -47.83539,253.2794 -11.816,13.7826 -65.29532,90.5351 -51.51349,102.352 13.78277,11.8172 89.60866,-45.777 101.42579,-59.5598 51.90309,-60.5405 66.82219,-248.4986 63.53463,-300.24 -1.96885,-30.9867 -10.60699,-58.7669 -20.94362,-84.4775 19.99837,-1.4123 42.2639,-0.8216 68.29646,2.0431 7.862,0.8651 15.35931,1.4814 23.10238,2.2651 17.31771,38.5265 32.89961,72.9679 35.04209,106.6873 2.222,34.9704 -3.86739,201.9947 -47.83539,253.2795 -11.816,13.7826 -65.2953,90.535 -51.51346,102.3518 13.78275,11.8174 89.60866,-45.7769 101.42576,-59.5598 51.9031,-60.5404 66.82222,-248.4985 63.53463,-300.2397 -2.26846,-35.7024 -13.36537,-67.1457 -25.75546,-96.0547 C 1213.4249,1104.3495 1427.908,881.97307 1521.8357,683.1381 1620.6501,473.95798 1731.45,241.94868 1796.8231,18.60314 Z m -151.9284,92.71425 c -5.1988,11.88602 -7.5056,15.55781 -12.5899,27.16375 C 1229.7155,182.97885 930.34979,379.23488 714.60599,548.10481 520.59459,699.9641 450.07281,826.74393 553.25443,859.9759 c 15.71822,5.06218 34.7478,9.34061 56.48253,12.75229 183.54244,28.80975 560.05844,-4.14347 765.56294,-147.88826 -152.0185,198.82913 -416.22505,264.37126 -857.02645,225.39309 -22.88042,-6.77697 -42.50775,-11.42199 -60.11062,-14.18508 -68.26655,-10.71539 -106.08513,6.8688 -185.10076,38.13849 L 197.2376,820.74616 C 330.20335,756.50748 388.71043,744.1716 478.46901,673.3937 809.51859,336.17913 1177.6552,64.942857 1644.8947,111.31739 Z m -26.4557,62.45536 C 1540.2397,351.90051 1471.2041,497.05301 1421.7039,604.97597 1273.0065,754.72099 867.25885,839.00486 692.80335,811.62141 663.61712,807.0402 640.90447,799.33376 626.95228,788.28532 520.11456,688.96343 1264.097,207.47992 1618.439,173.77275 Z" />
</svg>
