<?xml version="1.0" encoding="UTF-8" standalone="no"?>
<!-- Created with Inkscape (http://www.inkscape.org/) -->

<svg
   width="1796.8263"
   height="1010.5405"
   viewBox="0 0 1796.8263 1010.5405"
   version="1.1"
   id="svg570"
   xmlns="http://www.w3.org/2000/svg"
   xmlns:svg="http://www.w3.org/2000/svg">
  <defs
     id="defs567" />
  <path
     id="path369"
     style="color:#000000;fill:#000000;stroke-width:1.00415;-inkscape-stroke:none"
     d="M 985.34301,0.00284607 C 888.54787,2.4919861 791.13214,6.5530861 695.22213,18.830656 558.98553,47.108476 437.08338,117.76705 306.53374,162.66532 205.89893,208.42247 144.63387,306.47284 53.436968,365.0388 c -64.146573,45.08302 -70.036244,136.79645 -20.390911,189.85693 -6.563958,56.65726 11.44514,129.48694 74.599313,144.09351 101.15011,38.47507 210.52732,59.91047 318.83917,56.40497 62.36775,2.2526 100.44884,-73.18201 161.13469,-51.36856 64.51964,40.25956 136.3331,67.33376 214.07418,50.63706 77.58786,-6.0395 146.50587,37.9606 215.42359,66.9898 122.5552,61.1085 241.6833,136.1138 379.5412,157.0258 70.1131,15.2901 141.2261,25.80929 212.7247,31.86219 19.3791,-61.71749 61.2374,-132.40239 15.9684,-193.04199 -43.6504,-99.6056 -30.9691,-233.2584 53.0865,-308.04448 25.8117,-40.62449 104.4075,-19.7694 101.2388,-76.51943 3.3833,-43.83255 42.992,-98.7247 -11.0987,-125.00487 C 1705.0458,245.25864 1638.2269,182.33999 1551.813,153.30045 1426.6314,101.83668 1298.4852,56.537916 1168.7397,18.279546 1108.6745,4.4885561 1046.8563,-0.13177393 985.34301,0.00284607 Z M 1025.5013,70.713036 c 94.6074,2.79166 186.1912,30.305504 274.3898,63.798824 106.89,38.55414 218.703,70.718 315.6461,130.94154 38.7056,41.02631 142.2783,86.48022 88.9831,147.08249 -107.8111,40.74128 -169.3167,154.37902 -173.3375,265.65449 -23.8259,85.89343 56.9519,159.76983 36.3945,239.51523 -40.1005,37.1364 -129.6754,-10.726 -188.8821,-15.1976 C 1216.0328,869.39661 1084.4042,757.98981 927.99075,707.08128 855.43956,665.6129 770.48884,698.13772 694.31016,680.74584 641.05693,644.20784 577.93836,622.14456 512.68651,628.92629 471.39266,676.65654 405.43585,696.42956 344.3894,681.9462 265.58444,671.37984 186.13672,656.18122 113.0113,624.03889 94.251706,600.72243 105.65484,564.69433 105.17029,535.20887 l 7.0977,-1.54348 c 33.73141,30.77891 70.89806,57.86444 112.1157,77.75886 47.08315,25.65433 100.81259,41.85127 154.83913,35.92186 41.28463,-3.25324 82.25124,-14.27961 119.22908,-32.8349 31.75964,-20.59803 60.37704,-45.59353 88.83392,-70.43951 -8.93797,-9.9689 -17.87597,-19.9379 -26.81394,-29.9068 -29.1021,24.76144 -57.33847,51.45214 -90.93048,70.09238 -52.58403,21.44934 -112.5552,32.57743 -168.05783,15.90553 -37.44051,-11.78269 -72.5077,-30.50175 -105.55342,-51.41559 -25.18084,-18.00832 -49.07264,-37.88406 -71.94773,-58.73293 -11.64128,2.53096 -23.28235,5.06293 -34.923625,7.59389 -0.587799,-0.42325 -1.02096,-0.92252 -1.649397,-1.32578 -54.412705,-47.32057 37.662932,-91.35967 69.613872,-121.36096 72.88268,-64.89602 139.75695,-146.53697 238.8602,-170.45249 99.62379,-38.69981 197.81336,-90.81155 302.49624,-113.731754 40.14375,28.693914 79.28816,59.119814 113.26106,94.990244 21.00753,23.2053 33.42241,52.52741 47.28526,80.21431 6.85979,14.69658 13.44628,29.5215 19.69467,44.48855 15.47345,-6.37661 30.94692,-12.75323 46.42036,-19.12984 -17.92469,-41.28515 -35.58917,-83.17824 -60.92758,-120.57644 -26.51579,-35.2439 -60.84776,-63.33339 -95.5531,-90.275434 13.78276,-1.01776 27.65646,-1.61095 41.72518,-1.27872 58.09951,-3.7834 116.23313,-7.92241 174.48477,-8.08419 13.63769,-0.66482 27.21557,-0.77145 40.73097,-0.37264 z M 613.08973,219.44883 c -34.17908,0.24496 -67.25779,12.49524 -96.94362,28.66338 -21.60265,12.66225 -36.78945,33.55609 -46.47135,56.27162 9.4005,16.59137 24.02852,29.16452 39.12851,40.45234 32.44745,23.58521 67.17612,46.29948 106.62817,55.89895 44.7299,9.59275 91.41713,2.21245 134.38742,-11.8085 19.42066,-8.48838 24.263,-32.40072 20.52036,-51.38231 -5.14438,-34.76124 -30.10379,-62.52612 -56.79723,-83.50134 -28.98558,-21.01141 -64.38041,-34.64745 -100.45226,-34.59414 z m 0.0588,36.64754 c 28.90356,0.19204 56.27233,12.9411 79.90445,28.69869 17.12907,13.63608 33.31869,30.79467 39.81298,52.1903 2.83325,9.68049 4.47113,22.42347 -9.36487,21.6069 -35.66444,9.01706 -74.20316,14.43144 -110.08779,3.62036 -34.64975,-12.80269 -66.32852,-33.01328 -94.70389,-56.48731 -12.63109,-9.28193 10.13916,-21.52286 18.10608,-27.34543 23.73292,-11.83411 49.39972,-22.22243 76.33304,-22.28351 z m 491.53927,14.53468 c -56.6283,-1.34614 -127.05714,40.63054 -176.82064,67.04074 -54.23581,25.33702 -94.99384,27.53189 -133.33816,75.0327 -7.21165,19.237 5.8502,48.83904 25.79017,58.63101 42.46816,24.55387 92.87864,29.18471 136.27217,51.81182 56.64946,25.36714 119.98106,36.3656 181.64736,27.5102 32.2634,-3.8944 66.7673,-2.77457 95.2863,-20.91855 43.9661,-25.89603 76.9108,-77.0659 67.4467,-129.35098 -4.3421,-49.07563 -33.6281,-99.42545 -82.7561,-114.58878 -36.3824,-12.08541 -75.457,-14.35029 -113.5278,-15.16816 z m 0.3648,76.44092 c 31.6529,0.56436 63.8479,2.44965 94.045,12.74013 22.4452,14.41216 31.8867,47.70907 22.4992,72.04775 -9.3049,21.61092 -30.2466,39.48569 -54.7791,37.81057 -25.07,0.56031 -50.3049,-1.57451 -75.2524,-1.32377 -38.2739,-6.96278 -43.7771,-20.1553 -74.6719,-43.51585 -4.2133,-20.37229 2.2289,-24.59303 14.919,-36.57304 25.2832,-24.45959 39.7962,-40.82196 73.2402,-41.18579 z" />
</svg>
