<?xml version="1.0" encoding="UTF-8" standalone="no"?>
<!-- Created with Inkscape (http://www.inkscape.org/) -->

<svg
   width="891.39648"
   height="1799.5547"
   id="svg2715"
   version="1.0"
   xmlns="http://www.w3.org/2000/svg"
   xmlns:svg="http://www.w3.org/2000/svg"
   xmlns:rdf="http://www.w3.org/1999/02/22-rdf-syntax-ns#"
   xmlns:cc="http://creativecommons.org/ns#"
   xmlns:dc="http://purl.org/dc/elements/1.1/">
  <defs
     id="defs2717" />
  <metadata
     id="metadata2720">
    <rdf:RDF>
      <cc:Work
         rdf:about="">
        <dc:format>image/svg+xml</dc:format>
        <dc:type
           rdf:resource="http://purl.org/dc/dcmitype/StillImage" />
      </cc:Work>
    </rdf:RDF>
  </metadata>
  <path
     id="path2490"
     style="fill:#000000;stroke:none;stroke-width:100"
     d="m 0,0 c 55.74441,73.481259 86.1511,143.7948 91.21875,210.9414 5.06767,67.14667 12.66937,120.67414 22.80469,160.58204 10.13539,39.90796 31.9892,74.74891 65.5625,104.52148 33.57329,29.77257 78.23207,57.96116 133.97657,84.56641 11.5695,0.87525 25.7646,2.2961 41.0273,3.62109 -22.6519,5.42215 -44.5898,14.89819 -56.5312,37.17969 -19.9739,9.74936 -30.17,27.77667 -34.375,53.125 l -96.87502,71.875 c -29.43519,12.67417 -42.69875,32.07675 -43.75,59.375 -1.05129,27.29816 -4.1475,47.67572 -6.25,59.375 -2.10247,11.6992 7.09989,19.15029 28.125,25 15.76887,10.72428 29.58684,16.59993 40.625,15.625 11.03822,-0.975 21.26307,0.6876 31.25,3.125 9.98694,2.43729 24.85615,-4.61346 40.62502,-18.75 11.7144,-10.50182 49.6392,-12.05521 103.125,-9.375 l 5.61075,938.76759 h 68.75 l -5.61075,-935.64259 c 43.6575,-1.45034 78.4969,-12.68343 100,-37.5 23.6533,-27.29819 34.375,-59.82743 34.375,-96.875 0,-37.0476 -4.738,-53.87986 24.6973,-80.20313 29.4351,-26.32329 34.6859,-14.06421 38.2636,-38.46484 -3.4153,-21.83605 -2.8947,-23.73644 -6.4258,-39.14453 0,0 -15.2383,-17.46836 -17.4062,-18.5625 -6.8567,-3.25565 -23.0321,-5.02651 -30.7676,-4.44727 l -45.8613,18.32227 c -21.5237,-1.63929 -37.9603,-3.89069 -52.7676,-6.08203 -0.2409,-0.0865 -0.4779,-0.13172 -0.7187,-0.2168 0.1606,-0.0471 0.338,-0.0792 0.498,-0.12695 38.0076,-20.27065 65.245,-35.15629 81.7148,-44.65821 16.4699,-9.50186 34.2072,-22.48907 53.211,-38.95898 20.8102,-19.20948 37.0416,-40.32617 48.75,-63.32813 70.5441,20.72329 135.3168,59.40882 194.2793,116.17578 l 40.2461,-28.32031 c -65.3438,-62.50772 -138.434,-105.17322 -219.2071,-128.14844 0.1646,-0.62362 0.386,-1.22365 0.545,-1.8496 10.1353,-39.9079 17.4193,-93.43537 21.8535,-160.58204 C 699.02221,143.7948 730.38001,73.481259 788.65821,0 h -5.7012 c -35.4736,36.74063 -65.2469,68.412337 -89.3183,95.017582 -24.0715,26.605298 -44.6584,82.666598 -61.7618,168.183588 -7.4789,37.39448 -18.533,68.97558 -33.1582,94.74219 -101.6128,-16.28563 -168.3208,-44.85611 -199.9062,-85.78711 -32.5251,-42.14852 -37.8214,-81.11196 -15.8887,-116.89258 21.9327,-35.78062 48.0912,-52.23564 78.4746,-49.36133 30.3833,2.87428 50.49,18.0458 60.3184,45.51367 9.8284,27.46782 4.8946,47.95444 -14.8008,61.45899 -19.6308,12.60445 -15.0467,28.94786 -4.416,46.55468 20.7261,-3.92355 37.1594,-14.51193 49.2988,-31.76171 12.1393,-17.24981 15.5659,-42.05083 10.2813,-74.4043 -5.2846,-32.35347 -19.4564,-56.986538 -42.5176,-73.898436 -23.061,-16.911903 -53.9778,-21.410576 -92.7481,-13.496094 -38.7705,7.914512 -67.7683,36.40636 -86.9961,85.47656 -19.2278,49.07017 -9.3369,99.81823 29.6739,152.24024 37.6659,50.61504 104.3694,81.74978 199.9316,93.52734 -13.213,13.33736 -28.1765,23.82892 -44.9199,31.42187 -54.4774,24.70491 -97.5516,45.92526 -129.2246,63.66211 -34.2068,-17.73685 -78.5499,-38.9572 -133.0274,-63.66211 C 207.77447,403.83025 171.98424,348.71808 154.88086,263.20117 137.77748,177.68418 117.19059,121.62288 93.11914,95.017582 69.0477,68.412337 39.90801,36.74063 5.70117,0 Z m 589.71481,584.61133 c 3.5725,14.95781 11.7154,21.38337 -7.2812,29.30078 -33.2111,13.84166 -59.0586,42.40066 -93.75,53.125 l 6.25,25 31.25,-12.5 v 40.625 c 0,69.22047 -28.6297,104.30008 -87.5,106.25 -3.2706,0.10832 -6.1337,-0.0782 -9.375,0 -23.7701,0.57372 -46.5503,1.04448 -68.75,0 -29.2633,-1.37682 -57.8405,-2.06141 -84.375,-6.25 -19.4483,12.67417 -44.5782,40.64298 -59.37502,37.5 -7.35878,1.90095 -14.51619,0.007 -21.875,-3.125 18.92264,-23.39852 33.26619,-35.55014 40.625,-37.5 7.35882,-1.94993 12.5,-6.65037 12.5,-12.5 -1.05126,-7.79949 -25.64846,5.52726 -68.75,40.625 l -15.625,-3.125 c -6.30752,-11.69926 -8.8781,-23.85089 -6.25,-37.5 2.62818,-13.64912 9.28871,-21.58774 18.75,-25 9.46132,-3.41229 9.95818,-0.17416 3.125,12.5 -6.83316,12.67411 -3.76569,18.06235 9.375,15.625 13.14071,-2.43736 19.77249,-9.88847 21.875,-25 2.10253,-15.11149 -0.96493,-27.55046 -9.375,-34.375 31.53769,-30.22303 63.26352,-48.65067 93.75002,-59.375 4.205,-27.29819 28.2766,-49.5386 68.75,-65.625 40.4734,-16.08648 61.42,-20.09935 65.625,-9.375 4.2051,10.72428 13.4073,15.625 28.125,15.625 15.7689,0 35.7504,-3.72564 56.25,-12.5 20.4995,-8.77446 23.4683,13.39622 76.0312,-32.42578 z m -257.2812,69.92578 c -14.7176,17.54888 -16.2082,29.70045 -9.375,37.5 6.8332,7.79948 14.4586,10.14976 28.125,6.25 13.6663,-3.89971 38.2635,-6.0498 68.75,-3.125 -15.7689,-24.37346 -32.1574,-36.03757 -46.875,-37.5 -14.7176,-1.46237 -29.0611,-2.15001 -40.625,-3.125 z" />
</svg>
