<?xml version="1.0" encoding="UTF-8" standalone="no"?>
<!-- Created with Inkscape (http://www.inkscape.org/) -->

<svg
   id="svg2"
   height="1800.483"
   width="1086.9274"
   version="1.1"
   xml:space="preserve"
   xmlns="http://www.w3.org/2000/svg"
   xmlns:svg="http://www.w3.org/2000/svg"
   xmlns:rdf="http://www.w3.org/1999/02/22-rdf-syntax-ns#"
   xmlns:cc="http://creativecommons.org/ns#"
   xmlns:dc="http://purl.org/dc/elements/1.1/"><defs
     id="defs3" /><metadata
     id="metadata4"><rdf:RDF><cc:Work
         rdf:about=""><dc:format>image/svg+xml</dc:format><dc:type
           rdf:resource="http://purl.org/dc/dcmitype/StillImage" /><dc:creator><cc:Agent><dc:title>S. Rosmorduc</dc:title></cc:Agent></dc:creator><cc:license
           rdf:resource="http://creativecommons.org/licenses/by/2.0/" /><dc:description>Signe ms, tiré de la stèle d'Antef (Louvre C26), XVIIIeme dynastie&#10;</dc:description></cc:Work><cc:License
         rdf:about="http://creativecommons.org/licenses/by/2.0/"><cc:permits
           rdf:resource="http://web.resource.org/cc/Reproduction" /><cc:permits
           rdf:resource="http://web.resource.org/cc/Distribution" /><cc:requires
           rdf:resource="http://web.resource.org/cc/Notice" /><cc:requires
           rdf:resource="http://web.resource.org/cc/Attribution" /><cc:permits
           rdf:resource="http://web.resource.org/cc/DerivativeWorks" /><cc:requires
           rdf:resource="http://web.resource.org/cc/ShareAlike" /></cc:License></rdf:RDF></metadata><path
     id="path1"
     style="fill:#000000;stroke:none;stroke-width:131.187"
     d="m 358.26079,0 v 60.732923 l 53.12952,78.445067 c -86.03264,20.244 -147.52004,27.12865 -189.70109,62.5563 L 123.01049,128.34977 H 62.270455 v 356.80112 h 60.740035 l 98.67873,-75.91655 c 38.52988,29.17954 75.01109,25.84076 116.66935,41.05991 -42.34106,21.06456 -128.35498,137.57134 -165.94179,166.40548 -31.51411,24.43483 -62.76205,49.73282 -90.330317,78.49494 -0.59004,11.58223 12.48035,15.30565 21.167157,18.63503 17.75984,7.33004 35.54092,14.66034 53.31622,21.99227 -9.01391,12.34807 -11.32648,28.43257 -17.07028,42.47655 -29.90003,87.66375 -71.964897,170.4474 -107.059207,255.99758 0.18709,9.646 12.33059,12.5431 19.74464,9.1041 12.38237,-2.344 24.79669,-3.4936 37.2417,-3.7839 -2.59814,9.6749 -3.61022,19.9756 -7.93769,29.0765 -21.00618,66.9143 -55.38712,128.4922 -81.33994975,193.4349 -1.59396005,9.1151 9.96358975,13.8003 17.12718975,10.2422 31.72714,-5.2435 63.83778,-9.8042 96.020407,-11.0673 -3.67306,8.9248 -4.39221,18.9373 -7.16952,28.1945 -15.568097,65.7263 -38.264367,130.5817 -40.997167,198.6128 -0.58375,44.2666 4.73859,88.4119 11.80696,132.0389 12.08238,71.7187 31.902187,94.9631 59.871497,162.0327 0.42935,9.9951 15.01681,13.9393 20.11449,5.121 4.08404,-9.0547 5.36631,-19.1892 8.44981,-28.6495 16.10213,-58.0922 29.50756,-70.8673 34.64103,-130.965 5.02185,-51.8578 7.0402,-104.0216 6.68587,-156.1077 -2.15305,-60.9768 -16.67847,-120.5039 -26.06065,-180.5754 -1.61281,-9.0685 -2.80168,-18.3916 -5.14954,-27.3125 30.99361,2.9496 61.4688,9.0413 91.92354,15.3633 9.97413,0.2275 12.19537,-12.9052 7.79544,-19.8298 -26.14504,-68.424 -52.81179,-136.8166 -74.7679,-206.6646 1.0467,0.1957 2.11267,0.3737 3.15801,0.569 26.53048,4.8026 53.14071,11.0024 80.00277,12.5468 8.42043,-6.9766 2.36781,-18.3899 -1.70702,-26.0324 -32.38492,-70.21205 -58.90806,-143.92476 -69.44765,-220.83268 -3.39822,-20.85443 -3.32494,-42.24694 -6.94193,-62.98938 22.84304,9.29234 45.68833,18.56374 68.6226,27.51167 9.98768,-2.40705 10.46362,-14.69039 8.44979,-22.8458 -3.50174,-49.95005 -6.32213,-76.91837 18.91157,-120.35494 11.24777,-20.0988 83.86072,-154.76619 99.09648,-171.83549 3.97935,0.89604 7.85515,1.88766 11.91366,2.71522 17.65049,3.59915 47.60004,98.78563 65.1885,100.9801 -20.44857,42.05474 -38.95495,85.03765 -58.23103,127.63956 -3.00283,7.1504 -6.49615,14.49682 -7.53937,22.13448 6.47704,10.52158 20.17112,6.93236 30.41357,7.08413 9.67834,-0.24481 19.36615,-0.45057 29.04795,-0.68282 -3.27132,10.05527 -4.1673,21.23217 -7.42559,31.18175 -18.65312,77.12878 -37.17055,154.28888 -55.59225,231.4732 2.89412,10.653 15.87301,10.3393 24.75192,9.5879 15.95475,-0.57779 31.91878,-1.10247 47.88218,-1.65017 -4.40714,12.62387 -6.38971,26.25687 -10.66893,38.89177 -20.71422,75.8146 -41.79549,151.6199 -62.02207,227.5187 2.92516,11.1016 16.49032,10.6953 25.63389,9.8723 25.43398,-0.7352 50.88211,-1.4508 76.33267,-2.1622 -1.31809,4.1692 -2.21564,8.5754 -2.9304,12.4613 -15.95066,69.5993 -40.46503,137.8912 -44.12672,209.7371 -0.28249,65.1545 9.35153,129.9902 24.23983,193.2925 12.27766,51.1037 27.82475,54.1994 47.60932,102.8274 1.21933,8.8107 13.87752,12.9888 19.09029,5.1211 4.24126,-7.5556 5.02172,-16.6185 7.9946,-24.7519 21.59676,-74.6593 35.82847,-105.2033 39.76212,-182.8017 2.5822,-41.3261 4.06367,-82.811 2.19069,-124.1864 -4.28451,-59.3907 -17.73191,-117.5034 -27.19867,-176.137 -1.11736,-5.7976 -2.00862,-11.7664 -3.55632,-17.497 26.69719,-0.835 53.40683,-1.6435 80.05968,-2.7313 9.4883,-7.3244 4.2221,-20.1723 1.5649,-29.5601 -22.68456,-81.2973 -45.18298,-162.7078 -68.3951,-243.82074 22.2916,-0.86307 44.59938,-1.64239 66.8586,-2.70284 9.355,-7.34596 4.0878,-20.08377 1.2804,-29.3609 -23.48231,-79.15128 -46.96135,-158.29654 -70.44349,-237.44781 23.93462,-0.62664 47.87764,-1.21623 71.78059,-2.01995 9.0649,-5.98771 4.6414,-18.15724 0.4269,-25.77615 -18.23948,-41.3173 -36.36655,-82.68923 -55.01985,-123.8219 19.55652,-2.15496 26.78223,-97.9038 46.37832,-102.69241 2.5278,-0.61771 5.0395,-1.30771 7.5642,-1.94172 30.2157,33.53207 127.88085,164.1196 141.03045,207.48798 9.8259,33.56703 10.4902,69.09964 7.0558,103.70209 3.4633,9.95968 16.4071,8.35853 23.6423,3.84078 17.795,-7.34315 35.6169,-14.68119 53.4301,-22.0207 -0.1428,0.15459 -0.3144,0.26958 -0.4553,0.42682 -2.6152,69.90445 -16.4838,139.37035 -41.936,204.58744 -11.7279,31.93929 -26.4478,62.66191 -39.2901,94.14281 -0.9991,9.2517 10.9571,13.4436 17.9807,9.3886 23.5471,-3.476 46.9944,-8.1491 70.4719,-12.6321 -4.6886,13.0021 -7.9273,26.5941 -13.1726,39.4041 -20.0145,58.6423 -42.6688,116.3291 -64.4689,174.3161 -2.0434,8.6733 8.398,15.9737 15.9607,11.494 28.4121,-6.3595 57.3306,-11.1982 86.4042,-13.9691 -0.6767,2.7421 -1.1757,5.5092 -1.4793,7.9945 -9.5813,53.8494 -20.1334,107.5882 -26.9142,161.8833 -3.6892,33.8902 -4.3009,68.0365 -2.1339,102.0519 3.0771,85.9783 9.86043,125.6262 32.90043,208.7485 3.8853,14.158 7.6369,28.473 12.2337,42.3628 3.881,7.9377 17.308,6.7275 19.2326,-2.1339 33.1909,-79.0115 59.1155,-115.5165 70.0619,-200.6115 6.0761,-49.3874 9.9911,-99.8877 0.5122,-149.1091 -9.5484,-52.3431 -25.07643,-103.3648 -37.49793,-155.0552 -2.0551,-5.9747 -3.0756,-12.4695 -5.121,-18.4643 14.8713,0.3732 29.71833,1.3854 44.52503,3.3002 20.6503,2.1893 41.0785,6.5039 61.7376,8.336 8.7599,-2.4813 8.0157,-13.9542 3.6985,-20.0576 -28.9056,-69.6019 -66.4806,-136.1621 -84.98163,-209.5948 -0.2471,-1.2104 -0.6291,-2.5853 -0.9388,-3.8978 3.46653,0.033 6.93513,0.1032 10.41293,0.2561 13.1754,0.9632 26.2464,3.6374 39.3469,4.7229 9.2414,-4.0749 7.0018,-16.2187 2.646,-23.1588 -38.3523,-87.22856 -79.91543,-173.33104 -109.59143,-264.04905 -2.7491,-7.10552 -4.7594,-15.00601 -8.8764,-21.28097 -0.2079,-0.17406 -0.4675,-0.26038 -0.6829,-0.42671 24.0044,-10.01112 47.9925,-20.05327 71.80913,-30.38513 5.6173,-9.58885 -3.83053,-18.78487 -10.89653,-24.26831 -61.0647,-55.63105 -200.83395,-197.7346 -275.51415,-233.60727 -0.634,-0.30244 -1.2841,-0.57502 -1.9186,-0.87664 45.3031,-15.2002 90.39227,-11.31636 127.88387,-42.68518 l 97.8538,75.91655 H 1001.087 V 128.34977 h -60.72581 l -98.6931,73.38452 c -42.1722,-35.42765 -108.89751,-42.3123 -194.93891,-62.5563 l 53.1437,-78.445067 V 0 Z m 74.21133,60.732923 h 194.85382 l -43.0171,73.384517 H 475.5035 Z m 96.16089,134.115627 c 106.28797,0 213.50298,11.94501 316.40648,77.73811 l 96.161,-78.44332 v 222.68377 l -96.161,-75.91657 c -102.9033,64.10684 -209.36567,71.90199 -315.65364,71.90199 -104.59126,0 -206.47186,-7.79515 -309.3752,-71.90199 l -96.16087,75.91657 V 194.14334 l 96.16087,78.44332 c 102.90334,-65.7931 204.0311,-77.73811 308.62236,-77.73811 z" /></svg>
