<?xml version="1.0" encoding="UTF-8" standalone="no"?>
<svg
   width="538.89301"
   height="1799.9333"
   id="svg3444"
   version="1.0"
   xmlns="http://www.w3.org/2000/svg"
   xmlns:svg="http://www.w3.org/2000/svg"
   xmlns:rdf="http://www.w3.org/1999/02/22-rdf-syntax-ns#"
   xmlns:cc="http://creativecommons.org/ns#"
   xmlns:dc="http://purl.org/dc/elements/1.1/">
  <metadata
     id="metadata3451">
    <rdf:RDF>
      <cc:Work
         rdf:about="">
        <dc:format>image/svg+xml</dc:format>
        <dc:type
           rdf:resource="http://purl.org/dc/dcmitype/StillImage" />
      </cc:Work>
    </rdf:RDF>
  </metadata>
  <defs
     id="defs3449" />
  <path
     id="path4318"
     style="fill:#000000;stroke:none;stroke-width:134.191"
     d="M 346.53906,0.88867188 307.83008,2.53125 C 225.90539,13.909679 55.817683,176.13034 40.541016,321.56445 c -0.19356,1.84269 -0.18542,4.16002 -0.306641,6.17383 H -93.455078 V 475.90234 H 57.462891 C 107.31229,739.41699 245.38791,1199.058 221.97461,1213.5352 c 0,60.1739 -34.98443,99.6543 -45.70313,99.6543 H 96.947266 C 32.639134,1348.1291 0,1383.8327 0,1412.9492 l 4.4082031,87.793 H 75.849609 v 299.1914 H 267.73242 v -299.1914 h 14.30078 c 51.44657,-5.8228 79.56097,-92.4452 88.13477,-259.3789 32.15434,-5.823 50.85635,-17.4765 57.28711,-35.916 6.43039,-18.4408 -13.21875,-43.8946 -13.21875,-43.8946 z M 295.41992,60.648438 370.60156,1184.373 c 0,0 -46.8818,34.1276 -53.3125,72.9493 -0.55576,131.4786 -12.88799,212.9012 -106.39453,193.9961 v 67.9687 l 1.24219,229.8652 h -79.54883 v -229.8652 -70.4219 H 83.728516 66.101562 c 4.286837,-46.5868 22.751438,-69.8868 48.474608,-71.8281 l 17.62695,-3.9902 h 101.35547 c 15.00529,-44.6452 54.94922,-97.5027 54.94922,-159.6172 -30.21147,-237.732 -136.30009,-604.24503 -169.10903,-787.33818 -15.7927,-0.42211 -48.328997,0.77353 -70.168311,2.34403 H -48.03125 v -55.75782 h 90.035156 c 24.112353,-1.71691 46.161535,2.3126 66.390764,-0.92501 -1.962,-14.61282 1.39604,-12.73697 1.12486,-23.25858 -2.4233,-94.02283 63.01336,-199.09397 185.90039,-287.845702 z" />
</svg>
