<?xml version="1.0" encoding="UTF-8" standalone="no"?>
<svg
   width="538.89301"
   height="1799.9333"
   id="svg3444"
   version="1.0"
   xmlns="http://www.w3.org/2000/svg"
   xmlns:svg="http://www.w3.org/2000/svg"
   xmlns:rdf="http://www.w3.org/1999/02/22-rdf-syntax-ns#"
   xmlns:cc="http://creativecommons.org/ns#"
   xmlns:dc="http://purl.org/dc/elements/1.1/">
  <metadata
     id="metadata3451">
    <rdf:RDF>
      <cc:Work
         rdf:about="">
        <dc:format>image/svg+xml</dc:format>
        <dc:type
           rdf:resource="http://purl.org/dc/dcmitype/StillImage" />
      </cc:Work>
    </rdf:RDF>
  </metadata>
  <defs
     id="defs3449" />
  <path
     id="path4318"
     style="fill:#000000;stroke:none;stroke-width:134.191"
     d="M 319.20881,0.25608541 C 269.63463,2.7540034 95.804512,60.611485 80.527813,206.0459 64.783339,355.93352 251.42978,1195.3228 221.97512,1213.5355 c 0,60.1741 -34.9854,99.6545 -45.70412,99.6545 H 96.947561 C 32.639301,1348.1298 0,1383.833 0,1412.9495 l 4.4078994,87.7918 H 75.84875 v 299.1921 H 267.7316 v -299.1921 h 14.30089 c 51.44667,-5.8228 79.56167,-92.4448 88.13549,-259.3789 32.1544,-5.823 50.85694,-17.4751 57.2877,-35.9148 6.43041,-18.4408 1.78549,-34.1887 -13.21994,-43.8943 L 378.48446,443.59806 H 538.89302 V 295.43469 H 370.94409 L 346.5389,0.88774694 c 0,0 -10.80539,-1.46430379 -27.33009,-0.63166153 z M 304.52267,60.647926 322.91914,340.37379 h 170.55028 v 55.75855 H 328.42106 l 28.52697,797.34426 c -21.43599,3.8817 -33.22914,25.0248 -39.65984,63.8465 -0.55576,131.479 -12.88696,212.9004 -106.39368,193.9951 v 67.9698 l 1.24185,229.864 H 132.5885 v -229.864 -70.422 H 83.729479 66.101628 c 4.286845,-46.587 22.750556,-69.8883 48.473782,-71.8296 l 17.62783,-3.9897 h 101.35547 c 15.00531,-44.6452 54.95004,-97.5031 54.95004,-159.6178 C 253.05539,934.44896 152.82983,389.25766 149.5057,260.28373 147.0824,166.26072 186.22831,106.11699 304.52267,60.647926 Z" />
</svg>
