<?xml version="1.0" encoding="UTF-8" standalone="no"?>
<svg
   width="6.75"
   height="18"
   version="1.1"
   id="svg593"
   sodipodi:docname="US9F11VARB.svg"
   inkscape:version="1.2.1 (9c6d41e410, 2022-07-14)"
   xmlns:inkscape="http://www.inkscape.org/namespaces/inkscape"
   xmlns:sodipodi="http://sodipodi.sourceforge.net/DTD/sodipodi-0.dtd"
   xmlns="http://www.w3.org/2000/svg"
   xmlns:svg="http://www.w3.org/2000/svg">
  <defs
     id="defs597" />
  <sodipodi:namedview
     id="namedview595"
     pagecolor="#ffffff"
     bordercolor="#000000"
     borderopacity="0.25"
     inkscape:showpageshadow="2"
     inkscape:pageopacity="0.0"
     inkscape:pagecheckerboard="0"
     inkscape:deskcolor="#d1d1d1"
     showgrid="false"
     inkscape:zoom="38.926136"
     inkscape:cx="2.5432784"
     inkscape:cy="8.5546635"
     inkscape:window-width="1920"
     inkscape:window-height="1017"
     inkscape:window-x="1072"
     inkscape:window-y="-8"
     inkscape:window-maximized="1"
     inkscape:current-layer="svg593" />
  <g
     id="g681"
     transform="matrix(1.0822411,0,0,1.0433712,-12.477667,-8.330848)">
    <path
       id="path665"
       style="fill:#000000;stroke:none"
       d="m 16.907489,8.0219873 c -0.06293,-0.00441 -0.160619,0.026207 -0.160619,0.026207 -0.372846,0.07543 -0.943821,0.5295464 -1.138768,1.5312443 -0.154335,0.6515684 -0.365466,0.6831574 -0.723686,0.8685784 -0.517315,0.05438 -0.846782,0.02611 -1.335481,-0.04118 C 13.229722,10.136154 12.998397,9.8131454 12.716966,9.1601268 12.435535,8.507105 12.016623,8.1957336 11.663019,8.0912508 c -0.110078,-0.01293 -0.127617,0.032295 -0.05414,0.1347795 0.363265,0.2668164 0.632213,0.7382897 0.804898,1.4133123 0.172683,0.6750204 0.40561,1.1341164 0.700225,1.3796174 -0.163747,0.267825 -0.249543,0.449128 -0.258073,0.544734 -0.0085,0.0956 -0.189246,0.299746 -0.360941,0.610251 -0.171687,0.310503 -0.371088,0.493509 -0.463809,0.570941 -0.09272,0.07743 -0.02678,0.212179 0.01444,0.426802 0.03471,0.180734 0.286137,0.457636 0.711053,0.653306 0.155844,0.02714 0.368186,-0.05901 0.6136,-0.237736 0.357171,0.0957 0.653501,0.215528 1.00522,0.23212 -0.364645,0.456806 -0.447567,1.291323 -0.447567,2.729284 l 0.985369,0.0019 c 0,0 -0.04058,-1.460663 0.238221,-1.761493 0.0045,-0.0049 0.0081,-0.0084 0.01263,-0.0131 h 0.02166 l -0.02166,6.29158 c 0.02415,0.350763 -0.06719,0.633151 -0.272511,0.846116 -0.398552,0.300655 -0.50296,0.713076 -0.647888,1.239222 -0.08454,0.476036 -0.04872,1.127502 0.108282,1.954302 0.132851,0.100185 0.313746,0.131173 0.543216,0.0936 -0.108696,-0.450982 -0.162423,-0.844827 -0.162423,-1.183064 -0.06038,-0.689001 0.120509,-1.189984 0.543215,-1.503166 0.108696,-0.08769 0.247805,-0.131035 0.416887,-0.131035 0.193238,0 0.338315,0.03096 0.434934,0.0936 0.410629,0.325708 0.585555,0.839076 0.525169,1.540604 0,0.338237 -0.05373,0.725891 -0.162424,1.164344 0.229469,0.05012 0.410365,0.02535 0.543216,-0.07488 0.157006,-0.826801 0.198793,-1.472073 0.12633,-1.935583 -0.132851,-0.538672 -0.227124,-0.983494 -0.6136,-1.284148 -0.241546,-0.212965 -0.349001,-0.49348 -0.324847,-0.844244 l -0.04873,-6.304683 0.05595,-0.0019 c 0.0084,0.0042 0.01691,0.0068 0.02527,0.01123 0.270548,0.111231 0.216565,1.776468 0.216565,1.776468 l 1.248855,0.02621 v -1.759621 c 0,-1.133981 -0.205907,-2.079438 -0.904157,-2.704949 -0.162059,-0.206843 -0.587185,-0.399943 -0.97454,-0.526014 0.22687,-0.163249 0.47716,-0.401403 0.48727,-0.746903 -0.227783,-0.135712 -0.835578,-0.0094 -0.835578,-0.0094 0.309929,-0.292922 0.566977,-0.230237 0.629842,-0.9696629 0.08515,-0.7330535 0.350193,-1.3573175 0.54863,-1.5050373 0.186524,-0.1388497 0.270603,-0.2298573 0.281534,-0.2882782 -0.0078,-0.01189 -0.02415,-0.017249 -0.04512,-0.018719 z m -3.367578,2.8584477 c 0.313857,0.06559 0.672572,0.11986 1.026877,0.0599 0.06677,0.291598 0.143869,0.414056 0.283338,0.467984 0.526361,-0.423378 1.014244,-0.316357 1.014244,-0.316357 -0.03009,0.123438 -0.309046,0.31686 -0.494489,0.471728 -0.23387,0.07078 -0.341123,0.162215 -0.319433,0.275175 l 0.420497,-0.08611 c 0.0681,0.04215 0.08318,0.0612 0.14979,0.09734 -0.02366,0.03763 -0.04531,0.161226 -0.06677,0.213401 -0.146,0.719507 -0.298544,0.980122 -0.689397,1.278533 0,0 -0.05773,0.0594 -0.135353,0.12542 -0.02155,-0.0014 -0.04261,-0.0048 -0.06497,-0.0056 -0.422358,-0.0143 -0.790131,-0.08362 -1.104479,-0.207785 0.09272,-0.07743 0.127318,-0.138485 0.108282,-0.181578 0.01421,-0.03808 -0.0065,-0.04998 -0.06858,-0.03744 -0.154871,0.09001 -0.273647,0.167222 -0.351917,0.235864 -0.07827,0.06864 -0.149135,0.134832 -0.212955,0.194682 l -0.149791,0.06552 c -0.151995,-0.06313 -0.2556,-0.129607 -0.312213,-0.200297 -0.100701,-0.132179 -0.125285,-0.234204 -0.07399,-0.303254 0.05781,-0.03516 0.09492,-0.01356 0.110087,0.06552 0.09972,0.01503 0.131557,-0.01497 0.09565,-0.08985 -0.07565,-0.113776 -0.155248,-0.15269 -0.240026,-0.117932 -0.08478,0.03476 -0.120734,0.126235 -0.102868,0.275175 -0.04192,-0.05019 -0.0694,-0.09543 -0.08843,-0.138523 0.445267,-0.594683 0.731066,-1.041137 0.857234,-1.336563 0.01064,0.279483 0.09778,0.402298 0.263487,0.368771 0.207138,-0.04191 0.292657,-0.130486 0.256268,-0.263943 -0.06963,-0.138465 -0.185008,-0.201649 -0.344698,-0.192809 0.119941,-0.04774 0.270159,-0.05938 0.45298,-0.03182 0.182821,0.02756 0.263401,0.0095 0.240026,-0.05616 -0.02387,-0.124251 -0.256559,-0.166368 -0.700225,-0.123548 0.0797,-0.145209 0.160447,-0.312935 0.24183,-0.505423 z m 2.293779,1.074492 c 1.045768,0.369715 1.525924,1.314913 1.514147,2.835984 l -0.01083,1.443263 -0.570287,-0.0131 c -0.07569,-0.579359 -0.06976,-1.454645 -0.400644,-1.793316 -0.195677,-0.200284 -0.464247,-0.189835 -0.723687,-0.185322 -0.259439,0.0045 -0.567414,0.132861 -0.662326,0.2602 -0.268573,0.360326 -0.348308,0.968443 -0.348308,1.718438 l -0.315823,0.0019 c 0,-1.193655 0.182454,-2.078347 0.490879,-2.392336 0.196388,-0.154977 0.235082,-0.201401 0.415082,-0.351924 0.231564,-0.135563 0.611795,-0.847704 0.611795,-1.523756 z" />
  </g>
</svg>
