<?xml version="1.0" encoding="UTF-8" standalone="no"?>
<!-- Created with Inkscape (http://www.inkscape.org/) -->

<svg
   width="610.04584"
   height="1799.7788"
   viewBox="0 0 610.04584 1799.7788"
   version="1.1"
   id="svg570"
   xmlns="http://www.w3.org/2000/svg"
   xmlns:svg="http://www.w3.org/2000/svg">
  <defs
     id="defs567" />
  <path
     style="fill:#000000;stroke:none;stroke-width:100"
     d="m 60.245054,298.22662 c -10.232696,2.55813 -8.314096,12.1513 5.7559,28.7795 42.209906,-2.5582 70.669606,-6.0757 85.379106,-10.5525 14.7095,-4.4768 22.7038,-2.55817 23.9829,5.7559 1.2791,8.31406 -3.5175,11.83156 -14.3897,10.5525 -10.8723,-1.27914 -28.4597,-7e-5 -52.7624,3.8372 -24.302706,3.83726 -35.174906,8.95363 -32.616806,15.3491 2.5582,6.3954 31.977206,6.07563 88.257106,-0.9593 56.2799,-7.035 158.45258,-4.99569 186.59248,7.79518 28.1399,12.79087 57.4756,29.73447 70.0301,60.4369 30.0338,73.44833 -75.5657,53.55663 -86.7109,222.02741 h 73.2918 c 5.4885,-164.44348 97.5834,-163.39065 95.7539,0 h 53.4908 c 2.34132,-191.62476 21.822,-357.29098 -37.016,-399.50091 -2.5582,25.5818 -16.6282,51.80313 -42.2099,78.664 l -13.4305,-11.5118 c 17.9073,-21.74453 26.8609,-47.3263 26.8609,-76.7453 0,-29.419 -15.3491,-83.1407 -46.0472,-161.1651 h -3.8372 c 24.3027,78.0244 36.454,128.54837 36.454,151.5719 0,23.0236 -8.9536,44.7681 -26.8609,65.2335 l -11.5118,-17.2677 c 8.9536,-3.83727 16.3084,-15.66883 22.0643,-35.4947 5.7559,-19.82587 -3.5175,-68.11143 -27.8202,-144.8567 v 92.0944 c 0,14.06993 -5.1163,21.1049 -15.349,21.1049 -81.8617,0 -130.7868,8.95363 -146.7754,26.8609 -15.9886,17.9072 -93.85858,31.53668 -113.68448,39.21122 -19.8259,7.67453 -52.1228,17.2677 -96.890906,28.7795 z M 365.79274,251.3408 c -11.5118,7.67453 -27.5004,13.7502 -47.9658,18.227 -20.4654,4.4768 -30.6981,-1.59887 -30.6981,-18.227 0,-15.34907 10.2327,-21.42473 30.6981,-18.227 20.4654,3.19773 36.454,9.2734 47.9658,18.227 z m 42.2099,-92.0943 c -7.6745,-19.18633 -19.1863,-48.60537 -34.5354,-88.2571 h -3.8372 c 12.7909,39.65173 21.7445,69.07077 26.8608,88.2571 z m -24.9422,0 c -3.8373,-14.07 -10.8723,-37.0936 -21.105,-69.0708 v 69.0708 z m 119.622,531.8864 1.5408,1107.3595 c -15.6502,2.8944 -98.164,0 -98.164,0 l -1.5408,-1107.3595 -116.4027,-2.20848 c -15.7675,-193.235 101.1095,-239.71248 86.4,-260.17788 -14.7095,-20.4654 -28.8686,-19.11857 -46.1363,-32.54904 -17.2677,-13.4304 -120.39978,-15.14995 -189.47048,-6.83588 -69.070706,8.31406 -103.606102,-6.71524 -103.606102,-45.0879 -12.7909,-7.67447 -20.4655,-18.5467 -23.0236,-32.6167 -20.4654004,-25.58174 -15.3491004,-40.29124 15.349,-44.1285 30.698096,-3.83727 61.396296,-11.83157 92.094402,-23.9829 30.6981,-12.15134 116.88218,-29.29835 138.62668,-49.76382 16.6281,-21.74447 40.9308,-32.6167 72.908,-32.6167 V 23.0236 c 0,-14.07 6.3954,-21.105 19.1863,-21.105 7.6745,0 15.3491,7.035 23.0236,21.105 15.3491,21.74447 27.5004,42.8494 36.454,63.3148 V 23.0236 C 409.92124,7.67453 413.75854,0 421.43304,0 c 17.9073,0 30.6982,7.67453 38.3727,23.0236 44.7681,80.58253 67.1521,132.3856 67.1521,155.4092 93.3734,43.489 79.38082,238.04307 83.088,512.7001 z"
     id="path38610" />
</svg>
