<?xml version="1.0" encoding="UTF-8" standalone="no"?>
<!-- Created with Inkscape (http://www.inkscape.org/) -->

<svg
   width="1706.6693"
   height="923.76459"
   viewBox="0 0 1706.6693 923.76459"
   version="1.1"
   id="svg570"
   xmlns="http://www.w3.org/2000/svg"
   xmlns:svg="http://www.w3.org/2000/svg">
  <defs
     id="defs567" />
  <path
     id="path22067-3"
     style="color:#000000;fill:#000000;stroke-width:1.34923;stroke-linejoin:round;-inkscape-stroke:none"
     d="M 1052.2578,0.35405854 C 986.83642,4.0854485 928.01394,36.988389 880.33847,82.422889 818.12026,111.24659 746.74319,60.584859 679.40787,65.451949 599.51835,60.268459 529.57415,113.00222 494.54694,181.8762 461.65354,252.94997 391.71138,291.25069 321.76314,318.29381 267.14504,339.05692 221.08055,375.158 172.4119,405.8887 102.33885,433.6253 7.2433104,461.9539 6.4981304,554.1016 c -10.43283,79.7898 -13.32316,171.9049 30.7056096,242.1481 55.12042,57.0545 142.52816,50.2909 215.26096,54.6545 75.56483,-3.4307 116.64848,-80.6017 185.07182,-99.8434 74.38222,-1.297 146.36821,20.2453 213.45567,51.69 78.05754,34.1115 163.36749,45.8996 243.19172,75.4438 100.77933,37.494 208.90459,40.4795 315.08589,45.3918 91.9513,1.7569 187.9005,-8.9496 268.8166,-55.8906 46.5858,-61.949 71.9963,-138.3845 108.9928,-206.6911 32.6425,-73.0863 78.7357,-139.3082 111.6228,-212.0196 31.6537,-76.133 -38.2029,-129.74858 -83.5497,-177.73263 -62.178,-72.10472 -131.5296,-144.97702 -217.9015,-186.365741 1.7813,-7.70669 2.1465,-15.68148 0.2873,-23.92517 -3.4096,-16.13617 -17.9826,-27.33246 -34.7876,-25.48259 -25.1057,2.4151 -49.9784,6.39389 -74.7403,11.06265 -67.2633,-23.38764 -135.278,-47.03620046 -207.3236,-45.95302046 -9.602,-0.70612 -19.0829,-0.76759 -28.4288,-0.23454 z m 7.65,67.04268046 c 4.1899,0.12143 8.4557,0.46265 12.8047,1.04619 l 73.9285,7.5711 c -24.5172,4.77049 -49.1827,8.82211 -73.3199,15.22368 -42.1571,12.809371 -82.38817,32.029621 -119.60217,55.484591 -28.16964,22.37017 -32.63992,61.00322 -36.3688,94.34361 -8.60987,29.65672 19.77897,48.3702 46.51955,42.55635 56.62922,-1.94088 113.00792,-8.34044 169.54762,-11.74522 40.6813,-4.52493 79.3691,-19.28205 117.0569,-34.46607 42.4602,-24.16061 79.2462,-57.49926 111.4145,-94.11978 110.0981,49.9932 181.8301,161.35835 264.9165,237.79481 33.7411,62.7533 -45.2681,118.5494 -63.0635,176.8473 -44.609,84.1458 -83.2832,171.2734 -127.5923,255.5718 -130.403,63.2499 -280.0573,37.3574 -419.027,28.6238 C 917.28011,817.5441 820.42611,781.6751 720.53053,757.641 640.44387,724.1228 559.53796,683.9823 470.60585,685.4253 390.77393,670.6052 333.73206,738.0787 272.92192,776.359 c -38.22354,5.0067 -96.80232,12.0319 -140.41526,-1.7209 62.27407,-18.5079 112.55585,-58.49044 173.61264,-80.50724 47.154,-17.9371 64.37886,-56.8966 65.84116,-103.1678 -0.63225,-54.2547 75.46541,-50.65956 114.85469,-65.19536 94.94929,-26.1102 192.11577,-45.5737 290.29108,-54.0853 -0.76947,-13.4704 -1.53907,-26.9409 -2.30854,-40.4112 -119.78101,11.2159 -239.26681,34.1445 -353.14639,73.3303 -44.98187,11.4322 -91.20504,27.78616 -90.66858,74.86296 4.72219,52.3241 -37.91201,87.1719 -86.36155,92.7203 C 188.59852,689.12156 145.02689,728.77 88.93056,745.461 84.44975,739.3176 80.74084,732.3812 78.30534,724.2185 66.97325,656.6983 52.25189,569.7933 97.35546,513.9013 c 65.29229,-32.6064 136.40317,-58.4821 187.50138,-101.103 92.18512,-48.7889 207.94837,-80.02882 258.32313,-181.01094 28.73425,-66.03667 94.91164,-117.29235 169.91398,-95.48467 62.18758,7.60186 130.21073,42.6817 190.42396,12.53305 47.91875,-35.19075 93.54096,-83.261281 156.38989,-81.439001 z m 283.6371,18.2859 c 0.4192,0.21548 0.8351,0.43284 1.2412,0.65884 -25.5763,39.183521 -61.3355,70.983641 -99.1398,98.061841 -19.6571,14.68629 -42.4634,19.43937 -65.3878,28.19698 -43.7834,16.2178 -91.0692,12.8412 -136.7154,18.14883 -25.8891,2.06432 -51.77812,4.40808 -77.74964,5.12276 2.99947,-19.0744 6.05822,-42.34532 22.38621,-54.68879 44.48103,-24.67265 91.71753,-46.71105 142.66313,-53.32109 70.9472,-13.75004 141.1783,-31.577481 212.7021,-42.179371 z m -647.47451,101.548401 -2.33216,0.0162 v -0.0135 c -21.30887,0.39668 -42.68047,3.79728 -62.98456,10.21155 -20.32461,10.36481 -32.61317,30.92378 -44.29808,49.65818 -6.20364,11.11404 -12.95791,22.39553 -17.30811,34.23682 15.79468,18.29118 33.64586,36.7398 56.93661,44.96743 13.46956,3.74885 27.63949,0.67259 41.3071,-0.3083 51.77256,-6.32076 104.1964,-26.71606 138.95282,-67.00326 9.20178,-11.17936 19.59885,-22.12353 24.80271,-35.84687 4.51157,-10.00809 -1.94195,-19.12284 -12.59376,-18.28321 -39.68558,-7.959 -79.54871,-17.11936 -120.20304,-17.64016 z m 363.85591,120.9172 c -12.2797,-0.0782 -24.5614,-0.0297 -36.8404,0.0256 1.7913,19.92239 -9.904,53.35026 24.6657,40.42172 49.9551,1.73215 102.5846,-2.41689 149.7149,16.91024 36.1834,70.7324 19.2223,154.5334 0.2056,227.9786 -18.5767,56.9176 -52.9662,108.7589 -92.9733,152.8903 -24.9579,16.6532 -54.1464,33.4458 -18.8208,53.9642 27.4352,8.293 60.4425,-40.3144 80.0897,-63.3034 42.8462,-59.4853 78.106,-126.1227 86.4853,-199.9502 9.3285,-66.3039 14.4813,-141.1506 -25.0792,-199.01486 -35.6019,-29.64902 -86.9896,-24.90942 -130.6175,-29.19823 -12.2733,-0.44296 -24.5503,-0.64684 -36.83,-0.72468 z" />
</svg>
