<?xml version="1.0" encoding="UTF-8" standalone="no"?>
<svg
   width="823.60828"
   height="1800"
   version="1.1"
   id="svg1"
   xml:space="preserve"
   xmlns="http://www.w3.org/2000/svg"
   xmlns:svg="http://www.w3.org/2000/svg"><defs
     id="defs1" /><path
     id="path1"
     style="fill:#000000;stroke:none;stroke-width:112.819"
     d="M 6.5253906,0 C -2.6584882,2.0838535 -2.362505,24.54374 8.7792969,29.363281 62.828809,114.10053 16.9878,174.40944 71.757812,293.14844 99.824691,353.9962 156.31238,439.84506 240.63281,475.98242 c -3.01101,24.09154 -3.76554,42.91141 -2.25976,56.46289 1.50569,13.55149 -12.04559,60.98201 -40.6543,142.29102 -22.58581,19.57443 -33.87695,39.90233 -33.87695,60.98242 1e-5,22.58587 4.51644,38.39736 13.55078,47.43164 0,28.60873 51.94692,42.91211 155.8418,42.91211 19.57445,-3.01145 38.39623,-22.58733 56.46484,-58.72461 h 56.46484 l -15.52344,713.29301 -152.25976,-177.0469 -45.49219,39.123 156.21875,181.6465 c -79.76476,15.9751 -156.69233,55.6422 -206.65039,105.5996 -67.06198,67.0629 -75.87305,95.4298 -75.87305,143.7949 v 25.7461 h 710.5879 v -25.7461 c 0,-48.3651 -3.81795,-76.732 -70.88086,-143.7949 -49.02706,-49.0264 -125.46718,-88.2213 -204.35743,-104.7636 L 698.3296,1342.2767 652.83741,1303.1537 505.2793,1475.793 520.69922,767.33789 c 40.65455,0 76.41398,-20.70196 107.28125,-62.10937 30.86738,-41.40734 46.30078,-118.57662 46.30078,-231.50586 l 33.87891,-103.89454 -70.01563,18.06836 C 716.4421,323.15041 710.45059,258.19155 722.89062,219.18359 743.92548,153.22495 753.53852,89.519362 807.25195,40.833984 824.01709,25.638232 824.37188,6.2467684 810.95508,1.8164062 806.84443,0.45903202 802.81314,-0.09746747 798.86523,0.06054687 739.64662,2.4307607 666.18626,173.08067 652.7168,218.15625 621.51429,322.57552 553.82281,336.7023 452.93945,369.82812 c -28.60872,-6.02282 -48.18255,-4.51683 -58.72265,4.51758 -10.54004,9.0343 -25.97347,9.41037 -46.30078,1.12891 -20.32725,-8.28146 -34.25461,-7.9054 -41.78321,1.12891 C 32.882341,291.89563 144.0848,-0.08582031 6.5253906,0 Z M 423.57812,405.96484 c 18.06868,13.55147 27.85557,35.38559 29.36133,65.5 l -11.29297,6.77539 21.63672,36.78125 c 0.31852,-0.234 0.63057,-0.40902 0.94922,-0.64453 12.04574,18.06873 25.22105,22.58511 39.52539,13.55078 14.30439,-9.03439 34.25621,-10.91463 59.85352,-5.64453 25.59731,5.27006 44.41905,2.63384 56.46484,-7.90625 -3.01143,66.25184 -15.43452,116.69458 -37.26758,151.32617 -21.83289,34.63169 -94.48382,50.44116 -217.95312,47.42969 -1.50569,42.1603 -15.81102,63.24219 -42.91406,63.24219 -13.55149,-7.52863 -31.61923,-7.52863 -54.20508,0 -34.63161,-9.03437 -51.94727,-24.84586 -51.94727,-47.43164 10.54011,-13.55156 17.69074,-18.44595 21.45508,-14.68164 3.7643,3.76433 3.38825,7.15453 -1.12891,10.16601 -4.51718,3.01143 -6.02339,9.41012 -4.51757,19.19727 1.50576,9.78713 9.0364,13.92571 22.58789,12.41992 13.5515,-1.50569 22.20835,-10.16255 25.97265,-25.97265 3.76431,-15.81007 -6.40065,-30.48954 -30.49218,-44.04102 27.10299,-82.81477 42.16236,-146.05669 45.17382,-189.72266 48.18318,-13.55148 96.36573,-12.04727 144.54883,4.51563 V 489.5332 c -45.17165,-19.57439 -87.33169,-24.84494 -126.48047,-15.81054 10.54004,-15.05724 18.81896,-36.13919 24.8418,-63.24219 28.60872,10.54007 57.2194,9.03584 85.82812,-4.51563 z m 39.70508,109.05664 c -0.589,0.43267 -1.16925,0.76393 -1.75781,1.19141 0.95486,0.16759 1.7455,0.2529 2.70703,0.42383 z m -1.75781,1.19141 c -66.33257,-11.64283 -116.73673,-15.32222 -150.87695,-10.86914 3.01144,21.08009 8.65794,38.39579 16.93945,51.94727 8.28149,13.55155 19.19853,28.23294 32.75,44.04296 13.55145,15.81013 20.32617,36.51206 20.32617,62.10938 h 11.29492 c 1.50576,-31.62016 -8.28315,-64.74528 -29.36328,-99.37695 32.25746,-7.33126 65.24431,-23.38853 98.92969,-47.85352 z m 194.6875,-110.24805 c -16.56293,60.22888 -38.02092,90.72017 -64.37109,91.47266 -26.35019,0.75284 -50.06248,0.37678 -71.14258,-1.12891 -16.56291,0 -27.10395,5.27046 -31.6211,15.81055 l -13.55078,-20.32812 13.55078,-9.03321 c 1.50576,-25.59722 57.21703,-51.19567 167.13477,-76.79297 z m -24.84375,15.81055 c -16.563,3.01148 -35.00871,9.03406 -55.33594,18.06836 -20.32723,9.0344 -43.29137,22.58563 -68.88867,40.6543 1.50568,4.51716 12.42268,6.77539 32.75,6.77539 20.32722,0 36.13871,-0.3764 47.43164,-1.12891 11.29286,-0.75249 19.57564,-4.89323 24.84571,-12.42187 5.2701,-7.52862 8.65642,-13.55312 10.1621,-18.07032 1.5058,-4.51713 -2.25866,-1.87894 -11.29296,7.90821 -9.03441,9.78713 -21.45551,13.92754 -37.26563,12.42187 -15.81004,-1.50581 -18.82234,-6.40017 -9.03516,-14.68164 9.78711,-8.28145 31.99726,-21.45671 66.62891,-39.52539 z m -298.13476,101.63672 21.64453,0.69922 c -0.42359,0.56012 -0.92649,0.9087 -1.31641,1.55859 -4.47078,7.45135 -2.25316,13.4166 6.55078,17.91797 l -15.58594,6.92773 z m 45.8496,1.47851 21.53516,0.69532 -21.40625,9.51172 c 2.01671,-4.17497 1.98981,-7.58286 -0.12891,-10.20704 z M 462.2793,1580.125 c 78.26011,0 176.21814,40.2036 223.61914,87.6016 41.47033,41.4742 50.51019,39.7545 47.20312,69.9218 H 191.34375 c -0.0895,-30.1673 8.1526,-28.4476 49.62305,-69.9218 47.40087,-47.398 143.05249,-87.6016 221.3125,-87.6016 z" /></svg>
