<?xml version="1.0" encoding="UTF-8" standalone="no"?>
<svg
   width="1706.775"
   height="1798.338"
   id="svg2864"
   version="1.0"
   xmlns="http://www.w3.org/2000/svg"
   xmlns:svg="http://www.w3.org/2000/svg"
   xmlns:rdf="http://www.w3.org/1999/02/22-rdf-syntax-ns#"
   xmlns:cc="http://creativecommons.org/ns#"
   xmlns:dc="http://purl.org/dc/elements/1.1/">
  <metadata
     id="metadata2871">
    <rdf:RDF>
      <cc:Work
         rdf:about="">
        <dc:format>image/svg+xml</dc:format>
        <dc:type
           rdf:resource="http://purl.org/dc/dcmitype/StillImage" />
      </cc:Work>
    </rdf:RDF>
  </metadata>
  <defs
     id="defs2869" />
  <path
     id="path2866"
     style="fill:#000000;stroke:none;stroke-width:75.7691"
     d="M 981.32603,0.085776 C 946.51249,1.0464326 917.7667,8.8051659 893.47817,24.656089 844.90113,56.357873 816.13519,102.75851 820.68823,163.14437 l 1.69626,22.49708 c -51.81543,-38.42644 -127.6619,-56.80246 -225.89546,-55.8418 v 31.27149 c 100.39253,-5.76402 176.23897,24.02269 225.89546,89.34765 V 397.84067 C 770.56906,360.37487 694.72259,339.7645 596.48903,339.7645 v 33.50585 c 100.39253,-5.76392 176.23897,24.02076 225.89546,89.34571 V 601.10434 C 770.56906,562.67793 694.72259,542.0675 596.48903,543.02817 v 33.50586 c 99.31304,-5.76394 175.1595,24.02272 225.89546,89.34765 v 145.1875 C 770.56906,773.60332 694.72259,755.22739 596.48903,755.22739 v 31.27148 c 99.31304,-5.76406 175.1595,24.02275 225.89546,89.34766 V 1016.5672 C 770.56906,979.10139 694.72259,960.72539 596.48903,960.72539 v 31.2715 c 99.31304,-5.7638 175.1595,24.02081 225.89546,89.34571 l 3.39253,130.1165 C 758.03948,1179.4367 675.80494,1142.6747 569.76128,1097.5411 451.24185,1047.0973 373.87914,936.63303 336.33574,766.95905 298.79235,597.28515 255.57379,485.62737 203.30745,431.90827 151.04111,378.18906 86.163895,315.41942 12.549383,242.04694 H 0 c 123.6724,148.05522 190.49069,288.51931 200.7967,422.16211 10.306,133.64281 26.34073,240.14759 47.68897,319.41602 21.34823,79.26833 68.41611,149.69453 140.55835,209.96483 72.14223,60.2702 143.41229,100.3088 213.34609,120.6172 47.68335,13.8471 80.23528,38.8438 98.68537,73.9492 H 0.45869551 c 1e-8,24.1551 13.75895249,54.6912 41.27601149,91.6074 27.517059,36.9164 67.481613,77.0235 119.895103,120.3204 52.41334,42.8412 132.99877,86.8215 241.75668,131.9414 106.79237,44.2083 252.89619,66.3125 438.3088,66.3125 h 11.79221 11.79439 c 185.41261,0 331.84241,-22.1042 439.28981,-66.3125 110.0682,-45.1199 191.3097,-89.1002 243.7231,-131.9414 52.4135,-43.2969 92.05,-83.404 118.912,-120.3204 26.2065,-36.9162 39.3117,-67.4523 39.3117,-91.6074 h -700.8209 c 18.4501,-35.1056 51.0018,-60.102 98.6854,-73.9492 69.9338,-20.3084 141.2061,-60.347 213.3482,-120.6172 72.1421,-60.2703 119.2078,-130.6964 140.5562,-209.96483 21.3481,-79.26851 37.3848,-185.77321 47.6911,-319.41602 10.3058,-133.64276 77.1242,-274.10689 200.7968,-422.16211 h -12.5516 c -73.6145,73.37247 -135.9789,136.14212 -188.2452,189.86133 -52.2665,53.7191 -97.9955,165.37686 -135.539,335.05078 -37.5434,169.67398 -114.9061,280.13825 -233.4255,330.58205 -108.8152,46.3133 -193.79762,85.877 -261.03726,118.3847 L 870.88796,194.41586 C 870.52904,122.36699 886.73202,74.827723 918.57692,53.693198 950.4219,32.55866 1007.9158,32.247559 1094.2749,51.460777 c 18.3514,6.724583 32.2529,4.826743 37.6503,-6.701172 1.0797,-10.567274 -9.6098,-18.806334 -30.1203,-24.570313 C 1056.4664,6.2597035 1016.1396,-0.87489383 981.32603,0.085776 Z M 208.32677,512.32038 c 48.58561,141.50412 79.91888,252.62566 95.37794,330.58398 15.45903,77.95826 48.1332,148.3845 100.39945,209.96484 52.26635,61.5804 123.23628,104.9255 210.83753,131.7852 83.84319,25.7072 160.32401,66.6283 230.11151,122.8515 v 73.7129 H 765.53866 C 764.0663,1332.7405 719.07319,1295.2016 629.99963,1265.0665 540.9261,1234.9313 463.86565,1185.1208 399.08485,1117.6446 334.30409,1050.168 293.02653,965.85826 276.09519,863.00592 259.16386,760.15338 237.77259,642.03249 208.32677,512.32038 Z m 1290.12183,0 c -29.4457,129.71211 -50.8395,247.833 -67.7707,350.68554 -16.9315,102.85242 -58.2069,187.16208 -122.9875,254.63868 -64.7808,67.4762 -141.8432,117.2867 -230.917,147.4219 -89.07357,30.1349 -134.06462,67.674 -135.5368,116.1523 h -74.49741 v -73.7129 c 68.2178,-56.2232 141.25141,-97.1443 225.09441,-122.8515 87.6015,-26.8597 158.5712,-70.2048 210.8375,-131.7852 52.2662,-61.58034 84.938,-132.0065 100.3973,-209.96484 15.4592,-77.95839 46.7948,-189.07985 95.3802,-330.58398 z M 103.64763,1443.5313 H 717.808 c 0.009,0.08 0.0328,0.149 0.0417,0.2285 h 94.09622 l -182.52569,157.6914 153.30964,142.8789 c -53.72381,0 -107.44731,-4.7846 -161.17112,-14.3554 -54.37888,-9.5709 -109.74066,-23.7006 -166.08508,-42.3867 -56.99966,-18.2303 -118.91384,-49.222 -185.74095,-92.9747 -67.48232,-43.2967 -122.84397,-93.6566 -166.08509,-151.082 z m 885.31965,0 h 616.32652 c -43.2411,57.4254 -98.2747,107.7853 -165.1018,151.082 -66.8271,43.7527 -128.7415,74.7444 -185.741,92.9747 -56.9998,18.6861 -112.3614,32.8158 -166.0851,42.3867 -54.379,9.5708 -108.10252,14.3554 -161.17108,14.3554 L 1080.5045,1601.4512 896.99553,1443.7598 h 91.93005 c 0.009,-0.08 0.0327,-0.149 0.0417,-0.2285 z m -135.47978,27.3457 153.3096,130.5742 v 1.3672 L 853.4875,1742.963 700.17785,1602.8184 v -1.3672 z" />
</svg>
