<?xml version="1.0" encoding="UTF-8" standalone="no"?>
<!-- Created with Inkscape (http://www.inkscape.org/) -->

<svg
   width="1798.2358"
   height="1129.318"
   viewBox="0 0 1798.2358 1129.318"
   version="1.1"
   id="svg10448"
   xmlns="http://www.w3.org/2000/svg"
   xmlns:svg="http://www.w3.org/2000/svg">
  <defs
     id="defs10445" />
  <g
     id="layer1"
     transform="translate(884.84858,616.98)">
    <path
       id="path2945"
       style="color:#000000;fill:#000000;stroke-linecap:square;stroke-linejoin:round;-inkscape-stroke:none"
       d="m 87.97418,-616.98 c -119.65481,3.29712 -238.92572,20.67011 -355.85547,45.44141 -103.59873,35.37402 -199.57212,89.33345 -295.16602,142.125 -54.84495,-15.28148 -102.29614,-55.08818 -161.39648,-52.13086 -62.13376,4.1554 -172.47143,20.24075 -159.32813,105.16016 -3.04759,61.63475 104.45608,85.07205 62.99805,145.76757 -51.83509,45.4155 -1.25007,128.12329 61.49023,110.89258 47.18332,-20.65282 92.09934,-55.62178 143.42188,-63.25586 149.42646,147.43547 294.49425,299.59046 451.26562,439.28516 142.99483,121.7609 315.52717,211.8484 500.05467,249.3574 84.5134,33.0132 138.1511,-63.3666 124.3496,-136.7461 -4.1962,-97.2602 -32.7466,-194.4203 -11.6445,-291.63669 10.5745,-92.36334 23.2017,-149.43646 46.7422,-226.38477 15.7206,0.75892 31.4508,1.31044 47.1699,2.10157 63.9926,16.99439 103.9754,69.38877 164.6836,95.52929 46.1296,19.86306 141.8181,-25.87836 138.752,-92.82617 -12.5463,-67.06804 41.5105,-108.80496 66.3027,-164.01172 16.4295,-71.65248 -100.1187,-135.25517 -149.6699,-98.60547 -79.7001,58.94868 -116.3351,45.90259 -161.2422,41.60938 -9.539,-0.49684 -19.0764,-1.06439 -28.6153,-1.56641 29.8338,-37.31635 77.1459,-61.17174 94.8125,-105.98828 6.5646,-72.07951 -81.5699,-95.56565 -138.6269,-98.31641 -146.3709,-18.39915 -292.7951,-42.65761 -440.49805,-45.80078 z m 38.36715,70.8418 c 38.3997,0.77528 76.7863,3.76688 115.0879,9.63477 110.9625,12.33523 221.8296,25.96125 332.1836,42.91797 36.1048,21.21308 -48.6789,56.44539 -60.1445,87.64453 -11.4982,18.57522 -16.2196,26.59064 -19.5547,34.77929 -309.7445,-16.69039 -619.44876,-34.87048 -929.35938,-48.125 69.85514,-37.38611 141.27085,-71.8762 217.83399,-91.87695 113.44233,-19.68631 228.75406,-37.30044 343.95309,-34.97461 z m -850.5234,124.94727 c 69.26561,5.25137 126.41966,59.44929 198.33203,58.30859 370.28319,13.69729 740.13907,37.53889 1110.11917,56.94531 61.0886,5.65532 133.8175,18.80277 181.4785,-30.6582 40.7107,-48.07173 130.0294,13.49438 59.2207,55.4375 -62.065,36.98221 -6.1405,136.67594 -67.7383,160.04492 -73.0472,15.23152 -123.2476,-68.64387 -192.6152,-83.50195 -260.4596,-17.4323 -521.91972,-21.45276 -782.88284,-30.15235 -139.98923,-1.86008 -280.37705,-10.85408 -420.17383,-5.98242 -51.95001,5.80288 -130.82778,74.06983 -141.6543,60.45313 50.76244,-55.08826 32.33807,-136.57929 -27.90039,-175.39649 -57.44902,-57.01739 49.28952,-60.46967 83.81446,-65.49804 z m 201.67968,239.63671 c 315.7605,6.46484 631.52972,15.01015 947.03512,29.31446 -31.6803,109.8905 -52.7122,223.55158 -54.6425,337.85152 2.0117,82.115 33.3433,165.3762 13.0273,246.9297 -53.1827,14.1161 -121.0763,-20.8566 -176.7754,-36.9707 -176.14772,-63.182 -325.9334,-180.7544 -455.46678,-313.37302 -96.92869,-95.1737 -180.62345,-172.99688 -273.17774,-263.75196 z" />
  </g>
</svg>
