<?xml version="1.0" encoding="UTF-8" standalone="no"?>
<svg
   width="539.30084"
   height="1792.2561"
   version="1.1"
   id="svg701"
   xmlns="http://www.w3.org/2000/svg"
   xmlns:svg="http://www.w3.org/2000/svg">
  <defs
     id="defs705" />
  <path
     id="path699"
     style="fill:#000000;stroke:none;stroke-width:100"
     d="m 514.66335,2.1057756 c -0.67849,-0.025405 -1.39926,0.062808 -2.16016,0.265625 -6.10149,1.6229204 -8.332,8.5206004 -6.6914,20.6933594 4.05819,25.156808 -31.24118,69.993071 -105.90039,134.50781 -74.6522,64.51508 -147.06398,247.01464 -147.88401,351.69927 H 241.07232 C 226.6129,403.92832 221.10396,250.93504 265.46473,196.62277 319.95765,129.9054 334.95219,54.314041 329.27153,18.607774 328.45838,5.624108 325.00963,-0.05578043 318.92583,1.566759 c -6.09792,1.6229213 -8.73642,8.520598 -7.91601,20.693359 4.05816,25.156809 -29.0288,94.528172 -75.17624,148.777032 -66.65725,78.35927 -64.14408,238.41824 -64.14408,345.53742 -29.21306,18.66478 -48.28541,48.28396 -57.21484,88.85937 L 52.398487,651.6898 c -23.53603,7.30367 -37.33247,22.31682 -41.39063,45.03907 -4.0439304,22.72221 -7.4928604,38.54803 -10.34570041,47.47461 -2.83856999,8.92658 3.44916001,17.04205 18.86523041,24.3457 10.55198,10.54878 20.08811,16.0251 28.60743,16.43164 8.5229,0.40295 16.63747,2.02503 24.34374,4.86719 7.70985,2.84036 18.86803,-0.81106 33.474613,-10.95508 14.61017,-10.14403 37.33437,-14.20095 68.16993,-12.17188 30.19208,1.98639 53.72679,-1.70566 70.69531,-11 l 4.0293,628.33015 H 21.869187 v 74.0722 H 249.25786 l 1.84961,334.1328 h 66.06445 l -1.8496,-334.1328 H 536.3731 v -74.0722 H 314.91216 l -4.16992,-653.59382 c -0.33194,-1.66476 -1.29425,-3.06359 -2.68555,-4.25586 50.74763,-16.16981 92.97192,-18.53166 104.00391,-68.15234 6.09902,-27.43277 3.48516,-45.3112 -15.17969,-79.39453 21.9133,-17.85315 48.28698,-32.05368 79.12305,-42.60352 30.83586,-10.54949 51.93558,-53.56085 63.29687,-129.03125 -58.42654,1.62292 -98.59646,16.43446 -120.50977,44.43164 -21.90985,27.99717 -50.71855,48.8938 -86.42578,62.68946 C 316.94923,412.70219 375.15923,232.43465 437.64382,169.13703 500.13202,105.8394 528.53545,55.930354 522.85476,19.412417 522.14321,8.0517088 519.4128,2.2836082 514.66335,2.1057756 Z M 510.06841,435.01598 c -12.17449,47.87901 -30.63629,76.2824 -55.38477,85.20898 -24.75207,8.92657 -51.33069,22.72194 -79.73437,41.38672 -13.79355,-17.04186 -12.17137,-29.41783 4.86719,-37.12695 17.04235,-7.70947 34.49246,-22.1136 52.34765,-43.21289 17.85168,-21.09934 43.81983,-36.518 77.9043,-46.25586 z M 263.68364,539.66246 c 27.92027,0.53244 47.96678,6.4296 60.13868,17.68945 16.23264,15.01279 31.04515,35.3007 44.43554,60.86328 9.65302,13.75387 7.89286,58.89594 -77.34375,63.90625 -39.76156,45.44447 -93.72551,66.13951 -161.89453,62.08204 l -51.126953,20.69336 -17.03711,-6.08594 c 17.03865,-17.04009 28.39738,-25.96817 34.07812,-26.78125 5.680743,-0.81162 8.521493,-4.05594 8.521493,-9.73633 0,-5.68073 -17.853573,3.65092 -53.560553,27.99609 l -13.38867,-3.65429 c -4.0439,-10.54949 -4.23951,-21.30055 -0.58789,-32.25586 3.65523,-10.95601 9.13422,-17.24657 16.4375,-18.86914 7.31399,-1.62287 7.72424,2.43565 1.23047,12.17382 -6.49025,9.73966 -4.4605,14.20176 6.08789,13.38868 10.55197,-0.81164 17.45016,-7.30224 20.69531,-19.47461 3.24867,-12.17277 1.62663,-21.91118 -4.86719,-29.21485 12.98404,-16.23023 38.140983,-30.43306 75.470713,-42.60547 10.55197,-55.18268 37.93971,-84.80189 82.16601,-88.85937 11.05658,-1.01445 21.23817,-1.43334 30.54492,-1.25586 z m -54.2832,52.38086 c -12.17106,12.17238 -16.02529,21.91118 -11.56055,29.21484 4.46131,7.30366 11.56196,10.95508 21.30078,10.95508 10.54832,0 28.40083,-6.49311 53.5586,-19.47656 -13.79643,-14.60434 -25.35963,-21.29992 -34.69141,-20.08399 -9.33224,1.21603 -18.86822,1.01317 -28.60742,-0.60937 z" />
</svg>
