<?xml version="1.0" encoding="UTF-8" standalone="no"?>
<svg
   width="5.5"
   height="17.976999"
   id="svg1333"
   sodipodi:version="0.32"
   inkscape:version="1.2.1 (9c6d41e410, 2022-07-14)"
   sodipodi:docname="US9F35VARA.svg"
   inkscape:output_extension="org.inkscape.output.svg.inkscape"
   version="1.1"
   xmlns:inkscape="http://www.inkscape.org/namespaces/inkscape"
   xmlns:sodipodi="http://sodipodi.sourceforge.net/DTD/sodipodi-0.dtd"
   xmlns="http://www.w3.org/2000/svg"
   xmlns:svg="http://www.w3.org/2000/svg"
   xmlns:rdf="http://www.w3.org/1999/02/22-rdf-syntax-ns#"
   xmlns:cc="http://creativecommons.org/ns#"
   xmlns:dc="http://purl.org/dc/elements/1.1/">
  <metadata
     id="metadata1340">
    <rdf:RDF>
      <cc:Work
         rdf:about="">
        <dc:format>image/svg+xml</dc:format>
        <dc:type
           rdf:resource="http://purl.org/dc/dcmitype/StillImage" />
      </cc:Work>
    </rdf:RDF>
  </metadata>
  <defs
     id="defs1338" />
  <sodipodi:namedview
     inkscape:window-height="1017"
     inkscape:window-width="1920"
     inkscape:pageshadow="2"
     inkscape:pageopacity="0.0"
     borderopacity="1.0"
     bordercolor="#666666"
     pagecolor="#ffffff"
     id="base"
     inkscape:zoom="32.161647"
     inkscape:cx="1.4613679"
     inkscape:cy="4.5084755"
     inkscape:window-x="1072"
     inkscape:window-y="-8"
     inkscape:current-layer="svg1333"
     inkscape:showpageshadow="2"
     inkscape:pagecheckerboard="0"
     inkscape:deskcolor="#d1d1d1"
     showgrid="false"
     inkscape:window-maximized="1" />
  <path
     id="path1335"
     style="fill:#000000;stroke:none;stroke-width:0.995124"
     d="M 2.0499741,0 V 1.2146295 H 0.74616798 V 1.972806 H 2.0499741 L 1.9952866,3.0945976 0.74011858,3.0820914 V 3.8209267 L 1.9581772,3.8334327 1.6163804,10.722781 c -0.83417858,0.337168 -1.29699251,0.787195 -1.39062508,1.351952 -0.0936319,0.564758 -0.13225836,1.142929 -0.11523437,1.732974 0.017024,0.590045 0.0839564,1.209643 0.203125,1.858693 0.11916855,0.649049 0.43138425,1.265931 0.93359375,1.653675 0.5022095,0.387744 1.1359362,0.582172 1.5019531,0.582172 0.366017,0 0.9997437,-0.199538 1.5019532,-0.595711 C 4.7533555,16.910364 5.063618,16.298592 5.1827866,15.6664 5.3019552,15.034209 5.3708407,14.417787 5.3878647,13.819312 5.4048887,13.220838 5.366263,12.639491 5.2726304,12.074733 5.1789984,11.509976 4.705864,11.059949 3.8546616,10.722781 L 3.5929428,3.8334328 4.7990861,3.8271797 V 3.0883445 L 3.5655991,3.0945976 3.5226304,1.972806 H 4.7707745 L 4.7961655,1.2146295 H 3.4464585 V 0 Z m 0.328125,11.227587 h 0.7402344 c 0.8171545,0.236017 1.2600283,0.564943 1.328125,0.986402 0.068096,0.421462 0.098356,0.994524 0.089844,1.719436 -0.00851,0.724913 -0.1327573,1.421012 -0.3710937,2.086919 -0.2383371,0.665909 -0.7063109,1.049655 -1.4042969,1.150805 -0.71501,-0.10115 -1.1861906,-0.484896 -1.4160156,-1.150805 -0.2298245,-0.665907 -0.35406982,-1.356896 -0.37109381,-2.07338 -0.017024,-0.716483 0.008076,-1.289545 0.0761719,-1.719436 0.068096,-0.429888 0.5109705,-0.763924 1.3281247,-0.999941 z m 0.3769531,0.822003 c -0.4979535,0 -0.9977905,0.350603 -1.5,1.050229 v 0.733032 c 1.004419,-1.416108 2.0008863,-1.416108 2.9882813,0 V 13.099819 C 3.749636,12.400193 3.2530057,12.04959 2.7550522,12.04959 Z m 0,1.516352 c -0.1744965,0 -0.3505444,0.04653 -0.5292968,0.139257 -0.357505,0.185443 -0.5371094,0.599154 -0.5371094,1.239773 l 0.28125,1.694292 0.2792968,-0.100574 -0.1035156,-0.986403 c -0.068096,-0.708053 0.034256,-1.072835 0.3066406,-1.291994 0.2723851,-0.21916 0.3415964,-0.21916 0.6054688,0 0.263873,0.219159 0.3610647,0.575654 0.2929688,1.266851 L 3.2238022,16.53869 3.5538804,16.614119 3.8077866,14.94497 C 3.7907626,14.304353 3.6131113,13.890642 3.2726304,13.705199 3.1023899,13.612477 2.9295487,13.565942 2.7550522,13.565942 Z"
     sodipodi:nodetypes="ccccccccccssssssssscccccccccccccssscssscsccccsscccccssccccss" />
</svg>
