<?xml version="1.0" encoding="UTF-8" standalone="no"?>
<svg
   width="1708.4958"
   height="1797.589"
   id="svg2434"
   version="1.1"
   xmlns="http://www.w3.org/2000/svg"
   xmlns:svg="http://www.w3.org/2000/svg"
   xmlns:rdf="http://www.w3.org/1999/02/22-rdf-syntax-ns#"
   xmlns:cc="http://creativecommons.org/ns#"
   xmlns:dc="http://purl.org/dc/elements/1.1/">
  <metadata
     id="metadata2441">
    <rdf:RDF>
      <cc:Work
         rdf:about="">
        <dc:format>image/svg+xml</dc:format>
        <dc:type
           rdf:resource="http://purl.org/dc/dcmitype/StillImage" />
      </cc:Work>
    </rdf:RDF>
  </metadata>
  <defs
     id="defs2439" />
  <path
     id="path2436"
     style="fill:#000000;stroke:none;stroke-width:119.251"
     d="M 1592.9219,0.12261554 C 1582.2877,-0.73018598 1567.6549,2.8296961 1548.5273,11.924869 1304.267,128.07144 1277.8365,183.61414 998.39521,206.31929 c -26.44848,16.27548 -56.99861,-10.0504 -80.02609,-10.0504 -37.41957,0 -65.20652,8.8479 -83.36072,26.54346 -15.24921,14.86402 -34.18059,22.2948 -56.79313,22.2948 -20.87323,0 -44.88312,-6.33194 -72.03033,-18.9973 -28.27866,-13.19297 -52.1064,-19.79056 -71.48232,-19.79056 -19.37602,0 -29.00634,25.71395 -44.77536,19.79056 C 490.80235,188.87499 273.96355,97.856341 168.07613,33.887129 131.62807,11.867943 41.248523,-3.0814492 18.626121,2.9463877 -72.765816,64.721197 188.99872,338.42944 436.97912,408.20786 c 63.57437,31.29547 -39.76353,233.4818 -35.57396,273.06062 4.18919,39.57909 -31.4207,180.30505 -106.82961,422.17632 -67.03041,52.7718 -100.54487,112.1388 -100.54487,178.1038 0,65.9651 12.56841,109.9432 37.70479,131.9315 0,77.9937 127.61947,119.0989 379.48526,124.2906 0.31039,0.9584 0.48546,1.5804 0.81741,2.5952 29.1995,89.264 30.47339,125.4619 63.3491,194.7418 12.84522,27.0691 20.05889,59.9593 45.72839,62.3906 18.00178,1.705 31.26943,-20.9663 39.71301,-36.9562 21.80444,-41.2917 28.1695,-91.2942 20.97765,-138.506 -5.11343,-33.5681 -25.97283,-64.0413 -41.13232,-109.2522 -0.67275,-1.6694 -1.33638,-3.1836 -2.00636,-4.7911 l -6.20302,1.0646 c 32.24806,-26.8946 62.26888,-71.7034 89.9743,-135.1566 l 7.92886,-29.7983 c 717.42975,11.4697 803.33995,-203.9285 783.86805,-827.74789 l 94.2601,-310.03532 -309.7139,75.30369 C 1545.8795,228.28277 1667.3612,6.0922262 1592.9219,0.12261554 Z M 916.70086,311.86335 c 50.27289,39.57872 77.50494,103.34632 81.69435,191.29942 l -31.42194,26.38555 62.84193,105.54406 c 24.3968,31.30102 48.7943,46.95079 73.1915,46.95079 13.3074,0 26.6136,-4.65643 39.921,-13.96839 23.8133,-16.665 55.5651,-24.99781 95.2541,-24.99781 23.1519,0 49.0048,2.83619 77.559,8.50661 25.8346,5.1302 49.2255,7.69664 70.1726,7.69664 41.8937,0 74.0122,-10.26258 96.3556,-30.78469 -12.2344,507.88237 -92.4665,576.77037 -546.8978,583.00497 -55.93529,0 -116.62186,-0.8357 -182.05714,-2.5136 -4.18967,123.1346 -43.988,186.9018 -119.39726,191.2995 -20.56594,-14.3925 -44.87179,-21.5889 -72.91649,-21.5889 -23.37051,0 -49.33862,4.9977 -77.90267,14.992 -96.35574,-21.9883 -144.53255,-68.1639 -144.53255,-138.5264 22.9506,-30.9746 40.12793,-46.4623 51.53198,-46.4623 3.16783,0 5.88989,1.1957 8.16665,3.5854 10.47329,10.994 9.42649,20.8878 -3.14145,29.6832 -12.56843,8.7949 -16.75906,28.5861 -12.5695,59.3697 3.6657,26.9356 20.16115,40.4023 49.48661,40.4023 4.18943,0 8.64212,-0.2744 13.35533,-0.823 37.70432,-4.3979 61.79275,-30.7823 72.26627,-79.1566 10.47331,-48.3742 -17.80575,-92.3506 -84.83577,-131.9297 79.59881,-237.47392 121.49283,-422.17617 125.68201,-554.10581 60.32738,-17.81063 120.65415,-26.71623 180.98151,-26.71623 73.73331,0 147.46827,13.30199 221.20172,39.90808 v -32.98427 c -85.99252,-39.11615 -168.06294,-58.67315 -246.21068,-58.67315 -36.06833,0 -71.30125,4.16643 -105.69826,12.4989 29.32523,-43.97674 54.46055,-103.34554 75.40773,-178.10572 30.16344,10.55438 60.66214,15.83171 91.49579,15.83171 46.251,0 93.25669,-11.87493 141.01583,-35.62226 z M 1029.8152,635.09238 C 906.92689,611.6382 802.65595,599.91041 717.0063,599.91041 c -42.82513,0 -80.99441,2.93156 -114.50954,8.79642 8.37851,57.16935 24.08939,106.6429 47.13099,148.42081 23.04171,41.77754 53.41398,84.65557 91.11867,128.63212 37.70411,43.97697 56.55718,103.34561 56.55718,178.10564 h 31.42004 C 832.91308,971.51404 805.68306,876.96428 747.03117,780.2157 839.1977,753.82993 933.45915,705.45504 1029.8152,635.09238 Z m 534.1482,-323.22903 c -41.8935,175.90648 -100.547,266.0604 -175.9564,270.45793 -25.1368,1.46596 -49.3426,2.19772 -72.6174,2.19772 -46.5482,0 -89.3716,-2.93132 -128.4723,-8.79457 -41.8939,0 -71.2194,15.3924 -87.9772,46.17611 l -37.7048,-52.77296 37.7048,-26.38556 c 4.1893,-74.76017 159.1978,-151.72086 465.0233,-230.87867 z m -69.1267,52.77296 c -41.8936,4.39765 -92.1657,19.78821 -150.8174,46.17424 -58.6517,26.3859 -123.5876,65.96561 -194.8068,118.73777 4.1892,13.19284 34.5615,19.7887 91.1187,19.7887 h 131.9667 c 31.4202,0 54.4619,-12.09277 69.1248,-36.2799 14.6627,-24.18701 25.1361,-42.87738 31.4201,-56.07045 1.8854,-3.95785 2.2625,-5.93736 1.1332,-5.93736 -2.6391,0 -13.4896,10.77607 -32.5514,32.32477 -23.8271,26.93552 -54.0692,40.40223 -90.7267,40.40223 -5.2363,0 -10.6037,-0.27323 -16.1029,-0.82299 -43.9902,-4.39836 -52.3701,-19.79032 -25.139,-46.1761 27.2314,-26.38602 89.0248,-63.76676 185.3807,-112.14091 z M 665.33684,661.47793 h 56.55718 c -8.28932,21.75378 -2.22776,39.20432 18.18732,52.34939 l -43.32446,20.21227 z m 133.84123,0 h 53.11107 l -50.63284,23.62309 c 3.23387,-9.29467 2.40775,-17.16955 -2.47823,-23.62309 z" />
</svg>
