<?xml version="1.0" encoding="UTF-8" standalone="no"?>
<svg
   width="1092.6569"
   height="1800"
   version="1.1"
   id="svg1"
   xml:space="preserve"
   xmlns="http://www.w3.org/2000/svg"
   xmlns:svg="http://www.w3.org/2000/svg"><defs
     id="defs1" /><path
     id="path1"
     style="fill:#000000;stroke:none;stroke-width:110.571"
     d="m 27.655457,2.5917969 c 5.2087,0.3517603 11.4669,1.8367046 18.9668,4.7714843 34.4701,14.4710448 49.45499,16.1957738 82.908253,54.8320308 33.45322,38.636238 62.19262,118.971598 86.22265,241.005858 24.02971,122.03424 73.97488,201.19228 149.83399,237.47266 75.8591,36.28037 135.93416,66.67255 180.22461,91.17383 C 591.04475,607.34638 651.59131,576.9542 727.45043,540.67383 803.30952,504.39345 853.25471,425.23541 877.28441,303.20117 901.31449,181.16691 930.0558,100.83155 963.50902,62.195312 996.96261,23.559055 1028.2557,22.040504 1071.5852,4.875 c 22.7272,-2.2727257 20.6035,22.726563 20.6035,22.726562 -82.6357,81.267848 -119.59103,115.985578 -126.18749,212.105468 -6.59637,96.11955 -18.51176,161.97036 -32.17578,218.98242 -13.66409,57.01206 -43.58269,107.193 -89.75781,150.54102 -46.17513,43.34834 -91.64449,72.32741 -136.40625,86.93359 -42.04923,13.72151 -107.17745,41.79299 -118.82422,84.20508 h 352.80273 v 73.04883 H 592.30785 l 358.76172,400.18363 h 2.46094 v 2.7441 l 0.96484,1.0762 -0.96484,0.3691 v 68.8594 H 584.37426 l 1.16797,473.3437 H 512.4934 l -1.16797,-473.3437 H 144.50512 v -73.0488 H 511.14379 L 510.15551,853.41797 H 151.39769 V 780.36914 H 503.54418 C 491.96784,737.95723 427.42531,709.88554 385.37621,696.16406 340.61448,681.55788 295.14707,652.57881 248.97191,609.23047 202.79678,565.88245 172.8762,515.70151 159.21215,458.68945 145.54809,401.67739 134.40323,324.90214 125.25121,228.99219 120.39393,178.08964 75.803957,103.42087 6.134057,53.193359 c 0,0 -14.9393,-53.06388443 21.5214,-50.6015621 z M 583.50121,973.38672 l 0.69141,280.21488 h 258.62109 z" /></svg>
