<?xml version="1.0" encoding="UTF-8" standalone="no"?>
<!-- Created with Inkscape (http://www.inkscape.org/) -->

<svg
   width="1800"
   height="1149.6305"
   viewBox="0 0 1799.9999 1149.6305"
   version="1.1"
   id="svg1691"
   xmlns="http://www.w3.org/2000/svg"
   xmlns:svg="http://www.w3.org/2000/svg">
  <defs
     id="defs1688" />
  <path
     id="path1015"
     style="color:#000000;fill:#000000;stroke-width:0.989598;-inkscape-stroke:none"
     d="m 998.73246,50.86245 c 8.75074,21.370662 16.22384,94.1717 24.93774,100.40346 62.2854,44.54389 160.3443,207.08158 201.7434,345.94643 l 28.3379,-4.15061 c -32.5131,-134.24141 -19.1003,-283.25706 22.8505,-383.8851 0,0 -23.3162,-71.860411 -22.2577,-96.78103 28.6293,-5.55712 57.5392,-8.932065 86.4695,-12.3956 2.232,1.722038 28.6874,100.38078 28.6874,100.38078 74.0372,60.45255 177.3959,204.87973 218.8026,343.6796 l 182.8541,-27.00445 c 39.6902,29.54885 41.2583,31.0169 10.5788,72.22579 l -174.4224,25.76947 c 38.4024,162.29011 42.6746,327.40973 -15.7104,443.97781 l -17.1911,34.32368 -32.5769,-20.30865 C 1420.3751,897.32049 1326.994,737.16037 1273.3148,563.97157 l -28.7702,4.21393 c 39.0401,162.41458 45.887,326.95203 -7.5623,442.4601 l -16.6749,36.0335 -33.0255,-22.0381 C 1071.547,947.41394 981.27489,787.31258 927.85796,614.57008 l -28.98441,4.24529 c 38.53141,162.31234 43.32121,327.31259 -14.07885,443.67433 l -17.09555,34.6554 -32.66691,-20.6431 C 714.71526,1000.4729 621.96088,840.3264 568.3335,667.22905 l -28.14481,4.12233 c 38.27307,162.27002 42.02479,327.50914 -17.34407,444.28142 l -17.28566,33.9977 -32.48598,-19.9819 C 350.46811,1054.2327 256.45424,894.06139 202.7238,720.77932 L 35.52501,745.71286 C -5.5463885,715.13568 -6.7983135,716.1265 24.946214,673.48708 L 183.18342,649.86613 c -40.05181,-165.8862 -29.28668,-261.95006 29.78901,-385.47305 0,0 -18.36487,-62.46368 -20.76504,-99.08683 16.55169,-5.58909 50.84257,-14.36942 59.83212,-1.93243 18.14962,25.10987 28.72784,84.78888 28.72784,84.78888 113.40079,88.65795 187.68356,175.38007 240.43554,352.19425 l 27.54828,-4.03495 c -32.7795,-134.9236 -6.90862,-273.08878 19.4583,-385.94662 1.51899,-6.50173 -26.85674,-76.52281 -14.35894,-98.74376 22.02833,-0.83123 43.55988,-4.35889 65.18455,-8.23823 10.85364,23.18643 39.33698,89.66694 39.33698,89.66694 66.53583,51.19732 179.77132,214.98828 221.46605,354.7679 l 28.35713,-4.15343 C 875.00439,408.67682 891.7506,272.11953 926.04708,162.87878 c 0,0 -17.94585,-76.298381 -20.68913,-100.201156 27.4392,-5.527733 65.74006,-7.416698 93.37451,-11.815174 z M 973.13137,205.7899 c -31.66085,95.07845 -31.28555,190.26838 2.71136,327.97668 L 1157.4276,507.17015 C 1113.4649,364.96562 1046.7973,277.34104 973.13137,205.7899 Z m -347.9108,47.82173 c -35.07027,95.34675 -40.92365,194.75711 -7.25954,332.57332 L 810.25148,558.02047 C 766.02341,415.35458 701.73646,323.86399 625.22057,253.61163 Z M 1328.9574,154.9209 c -35.929,95.42118 -39.1898,190.11457 -5.6135,327.94773 l 194.9792,-28.5583 C 1466.3138,332.42611 1418.984,239.30284 1328.9574,154.9209 Z M 263.62442,307.54672 c -36.79004,95.49922 -43.95197,194.22344 -10.46412,332.06999 l 197.66994,-28.9524 C 406.47901,467.78606 341.58887,377.155 263.62442,307.54672 Z M 1537.6952,525.2482 1343.3661,553.71126 c 45.047,138.77885 119.9511,265.99753 201.2868,334.72342 29.3157,-93.17141 24.7491,-228.86209 -6.9577,-363.18648 z m -360.8191,52.84859 -180.93845,26.50176 c 44.62125,138.21965 116.91515,265.68995 194.28005,336.01922 25.5652,-92.96487 18.7994,-228.39236 -13.3416,-362.52098 z M 829.63877,628.95608 637.9985,657.02533 c 44.96515,138.67409 119.3476,265.94866 199.88085,334.99381 28.56157,-93.12491 23.55562,-228.77034 -8.24058,-363.06306 z m -359.45179,52.64834 -197.02166,28.85745 c 45.1264,138.8801 120.54751,266.04002 202.68984,334.44753 30.07197,-93.22038 25.94753,-228.95258 -5.66818,-363.30498 z" />
</svg>
