<?xml version="1.0" encoding="UTF-8" standalone="no"?>
<svg
   width="1800"
   height="1394.5298"
   id="svg2501"
   version="1.1"
   xmlns="http://www.w3.org/2000/svg"
   xmlns:svg="http://www.w3.org/2000/svg"
   xmlns:rdf="http://www.w3.org/1999/02/22-rdf-syntax-ns#"
   xmlns:cc="http://creativecommons.org/ns#"
   xmlns:dc="http://purl.org/dc/elements/1.1/">
  <metadata
     id="metadata2508">
    <rdf:RDF>
      <cc:Work
         rdf:about="">
        <dc:format>image/svg+xml</dc:format>
        <dc:type
           rdf:resource="http://purl.org/dc/dcmitype/StillImage" />
      </cc:Work>
    </rdf:RDF>
  </metadata>
  <defs
     id="defs2506" />
  <path
     id="path2503"
     style="fill:#000000;stroke:none;stroke-width:85.6253"
     d="M 545.15743,0.24256665 C 510.62606,1.6520116 474.50823,9.2272016 436.80559,22.969283 361.40036,50.453441 309.95417,57.852833 282.46996,45.167825 254.98582,32.482814 236.31042,24.72959 226.44433,21.910753 209.531,17.682418 202.48545,24.730217 205.30432,43.052951 c 21.14164,60.606099 65.53787,91.966069 133.19126,94.080269 67.65325,2.11414 119.80491,-3.17109 156.45051,-15.85609 36.64553,-12.68497 86.32707,-11.27411 149.04736,4.22974 62.72026,15.50391 119.45178,15.15005 170.19174,-1.05853 37.66052,-12.03046 68.6877,-7.47897 93.14827,13.49024 -18.61582,1.24205 -33.60176,6.11466 -44.52362,15.05074 l -35.93977,44.39927 c -38.05495,14.09446 -58.49294,23.95952 -61.31172,29.59733 -19.73221,18.32272 -38.75915,31.71284 -57.08197,40.16952 -25.37001,5.63777 -74.6999,40.87436 -147.991,105.7088 -39.46441,21.14167 -59.19685,50.73919 -59.19685,88.79416 -5.63778,22.55113 2.81869,32.41842 25.36977,29.59952 0,32.41718 17.61825,49.33003 52.8544,50.73952 -2.61738,41.71415 20.72798,89.86157 44.21374,143.2811 26.77947,-12.96667 31.33221,-18.52463 35.88304,-37.04848 13.85258,-23.67883 20.29467,-71.44006 4.50911,-108.08558 62.01555,-2.81897 72.54701,-5.19415 90.86977,-10.83191 h 57.08195 c 23.96056,1.40949 40.87338,4.93228 50.73953,10.57 95.84227,63.42499 143.76346,126.14717 143.76346,188.16271 0,60.60618 32.4191,164.90558 97.2537,312.89662 l -33.8271,71.8817 C 864.78347,1106.6674 301.9807,1133.838 205.50511,1170.4031 112.8807,1223.982 52.769096,1292.5113 0,1394.5297 h 233.36297 c 4.20537,-29.6432 5.60637,-53.829 4.20793,-72.5517 8.48162,-22.1449 10.09218,-22.3723 22.10687,-30.4223 260.98761,29.9193 523.72985,55.3483 787.06503,77.0827 246.6528,-2.8188 408.7402,-28.8935 486.2595,-78.2243 77.5196,-49.3304 96.1947,-126.4976 56.0258,-231.5012 -40.1693,-105.00359 -34.8838,-236.43649 15.856,-394.2942 -83.1571,-126.84998 -147.9912,-224.10115 -194.503,-291.75446 -46.5114,-67.65333 -85.6248,-117.33705 -117.3374,-149.04955 -31.0026,-31.00262 -94.2269,-58.27512 -189.2146,-81.86898 25.068,-24.20204 57.4099,-30.22385 97.2493,-17.49737 50.7399,16.20858 105.7089,16.56244 164.9056,1.05853 59.1967,-15.50385 107.1178,-16.91471 143.7634,-4.22974 36.6458,12.685 88.795,17.97023 156.4484,15.85609 67.6531,-2.1142 112.0518,-33.47417 133.1935,-94.080269 2.8189,-18.322734 -4.2288,-25.370533 -21.1423,-21.142198 -9.866,2.818833 -28.5415,10.572061 -56.0255,23.257072 -27.4844,12.685008 -78.9303,5.285614 -154.3358,-22.198542 -75.4051,-27.4841604 -142.705,-30.3036904 -201.9017,-8.457317 -59.1967,21.846379 -114.1657,21.846379 -164.9056,0 -50.74,-21.8463734 -115.5761,-9.5133434 -194.5051,36.9983 -77.51949,-46.5116434 -141.64817,-58.8446734 -192.38811,-36.9983 -50.73996,21.846379 -107.47148,21.846379 -170.19174,0 C 612.6333,3.5887786 579.68883,-1.1668784 545.15743,0.24256665 Z M 919.89401,195.2737 l 122.62119,8.45732 c 71.8814,-2.81887 130.7272,11.27447 176.5342,42.28222 45.807,31.00779 89.8517,81.39695 132.1348,151.16441 42.2835,69.76752 102.8891,158.91369 181.8181,267.44105 -47.9211,140.94444 -49.6835,281.53914 -5.286,421.7789 44.3973,140.2397 -91.2615,208.9503 -406.9769,206.1315 -286.57423,-16.001 -573.56819,-48.8335 -860.78227,-49.681 l -7.68033,-29.0102 c 302.95743,-21.947 362.98271,-13.3392 889.6047,-27.0177 11.2757,-93.0232 61.311,-192.3907 150.106,-298.09902 l -16.9125,-80.33686 c -73.2911,83.15727 -115.5757,140.94357 -126.8509,173.36078 -52.1494,-132.48776 -78.2242,-229.03567 -78.2242,-289.64176 0,-60.6061 -59.9026,-128.25973 -179.70542,-202.9603 -81.74779,0 -184.63803,5.63907 -308.66909,16.91463 C 567.53091,504.64823 559.7799,500.42 558.3705,493.3728 l 78.22416,-6.34245 c 12.6851,5.6378 22.55038,5.6378 29.59732,0 7.04697,-5.63782 8.45795,-10.21985 4.22976,-13.74341 -4.22832,-3.52366 -11.98153,-4.22906 -23.25707,-2.11487 -11.27556,2.11417 -31.71125,3.52505 -61.30953,4.22975 -29.59832,0.70475 -44.39928,-5.28596 -44.39928,-17.97098 0,-11.27555 5.63908,-21.14073 16.91464,-29.59732 15.50386,8.45659 27.48311,9.51368 35.93977,3.17122 8.4567,-6.34246 15.50442,-22.90372 21.1422,-49.68319 35.23606,-32.41724 61.3108,-52.85511 78.22416,-61.31172 38.05492,-14.09444 66.24379,-31.71271 84.5666,-52.85439 -7.04693,14.09444 -7.04693,26.77907 0,38.05464 l -114.16393,76.11147 6.34244,6.34244 118.39368,-71.88173 c 39.46442,0 58.49138,-10.57269 57.08197,-31.71438 0,-21.14168 -11.27591,-32.41541 -33.82708,-33.8249 8.45669,0 21.84671,-2.11407 40.16952,-6.34243 14.09439,-32.41719 36.64634,-48.62684 67.65418,-48.62685 z m 84.49449,-24.93672 c -40.86284,-0.0673 -77.49675,15.97849 -87.79456,58.64029 22.92853,10.91795 34.39241,29.47852 34.39241,55.68296 86.25535,8.73452 129.38285,28.38767 129.38285,58.95894 0,26.20444 -7.0947,44.76638 -21.2885,55.68516 5.4593,-52.40806 -19.1102,-85.16416 -73.70204,-98.26636 h -19.65148 c -8.73293,6.55111 -12.55195,22.38355 -11.46265,47.49627 0,22.92847 13.64817,50.22128 40.94429,81.88428 -41.49029,13.10056 -82.43301,16.65149 -122.83076,10.64421 -40.39774,-6.00161 -63.32639,-3.54538 -68.78908,7.3726 -11.48109,22.94825 66.01075,48.76325 104.83579,54.74447 95.47183,14.70799 238.60533,-22.6757 271.14033,-112.91989 16.0996,-44.65668 19.637,-97.73675 -52.1254,-172.89591 -24.9966,-26.17982 -76.74,-46.95083 -123.0512,-47.02702 z m 0.057,23.78742 c 1.4877,-0.0927 1.2806,1.05117 2.5253,1.65872 21.2738,10.38345 52.484,9.92789 79.9506,26.64656 50.2239,30.5713 75.3343,70.97005 75.3344,121.19386 0,45.85692 -24.6929,83.52544 -71.6417,113.00501 -70.2286,44.09759 -228.23889,27.15099 -254.27161,4.91289 105.90766,9.82624 179.88271,4.3643 221.91781,-16.37991 42.0359,-20.74505 62.5057,-54.04633 61.4165,-99.90328 0,-52.40803 -45.3127,-82.97986 -135.9347,-91.71439 0,-13.1014 -13.10185,-27.84292 -39.30532,-44.2203 16.78678,-8.18876 33.95539,-12.69104 51.51007,-13.50988 2.28553,-0.1066 6.01915,-1.53464 8.49865,-1.68928 z m -25.61853,131.48014 h 6.55198 c 30.57015,15.2854 46.94445,32.7571 49.13105,52.40917 2.1867,19.65334 1.0893,40.39818 -3.276,62.23493 -31.66312,-39.30662 -49.1311,-77.52249 -52.40703,-114.6441 z" />
</svg>
