<?xml version="1.0" encoding="UTF-8" standalone="no"?>
<svg
   width="1800"
   height="1422.7682"
   id="svg1818"
   version="1.1"
   xml:space="preserve"
   xmlns="http://www.w3.org/2000/svg"
   xmlns:svg="http://www.w3.org/2000/svg"
   xmlns:rdf="http://www.w3.org/1999/02/22-rdf-syntax-ns#"
   xmlns:cc="http://creativecommons.org/ns#"
   xmlns:dc="http://purl.org/dc/elements/1.1/"><metadata
     id="metadata1825"><rdf:RDF><cc:Work
         rdf:about=""><dc:format>image/svg+xml</dc:format><dc:type
           rdf:resource="http://purl.org/dc/dcmitype/StillImage" /><dc:date>05/02/2006</dc:date><dc:creator><cc:Agent><dc:title>Serge Thomas</dc:title></cc:Agent></dc:creator><dc:publisher><cc:Agent><dc:title>Serge Rosmorduc</dc:title></cc:Agent></dc:publisher><dc:description>optimisation du signe antérieur de Jsesh, une variante sans excavation a été envoyé  je ne sais trop quand</dc:description><cc:license
           rdf:resource="http://creativecommons.org/licenses/GPL/2.0/" /></cc:Work><cc:License
         rdf:about="http://creativecommons.org/licenses/GPL/2.0/"><cc:permits
           rdf:resource="http://web.resource.org/cc/Reproduction" /><cc:permits
           rdf:resource="http://web.resource.org/cc/Distribution" /><cc:requires
           rdf:resource="http://web.resource.org/cc/Notice" /><cc:permits
           rdf:resource="http://web.resource.org/cc/DerivativeWorks" /><cc:requires
           rdf:resource="http://web.resource.org/cc/ShareAlike" /><cc:requires
           rdf:resource="http://web.resource.org/cc/SourceCode" /></cc:License></rdf:RDF></metadata><defs
     id="defs1823" /><path
     id="path1820"
     style="fill:#000000;stroke:none;stroke-width:84.6886"
     d="M 0 0 C 130.40088 175.42021 201.03562 342.30259 211.90234 500.64648 C 222.76906 658.99045 239.45711 785.12336 261.9668 879.04297 C 284.4765 972.96268 333.76487 1055.6271 409.83203 1127.0371 C 485.89919 1198.4471 560.8024 1246.1841 634.54102 1270.2461 C 708.27952 1294.3082 749.02897 1345.1479 756.79102 1422.7676 L 1043.207 1422.7676 C 1050.969 1345.1479 1091.7203 1294.3082 1165.459 1270.2461 C 1239.1976 1246.1841 1314.1006 1198.4471 1390.168 1127.0371 C 1466.2349 1055.6271 1515.5236 972.96268 1538.0332 879.04297 C 1560.5428 785.12336 1577.2307 658.99045 1588.0977 500.64648 C 1598.964 342.30259 1669.5989 175.42021 1800 0 L 1786.0273 0 C 1708.4078 86.93388 1642.0433 162.22495 1586.9336 225.87305 C 1531.8236 289.52103 1484.4765 421.86374 1444.8906 622.89844 C 1405.3046 823.93308 1323.026 954.33259 1198.0586 1014.0996 C 1073.0911 1073.8667 974.12659 1123.9327 901.16406 1164.2949 C 826.64936 1123.9327 726.90694 1073.8667 601.93945 1014.0996 C 476.97192 954.33259 394.69532 823.93308 355.10938 622.89844 C 315.52343 421.86374 268.17632 289.52103 213.06641 225.87305 C 157.95649 162.22495 91.590259 86.93388 13.970703 0 L 0 0 z M 749.01953 162.11914 C 733.71323 162.18708 717.56721 163.67938 700.61914 166.7793 C 634.554 178.86307 594.37114 226.94235 577.93945 284.25781 C 537.10621 426.68875 598.09771 528.6379 666.33008 637.61719 C 709.2388 706.14998 782.70278 775.03231 873.62695 853.07031 C 964.5513 931.10839 1048.5326 974.81178 1125.5703 984.18164 C 1137.2282 930.03044 1123.8693 873.31148 1085.4941 814.02539 C 1047.1191 754.73934 1021.7288 678.59727 1009.3223 585.59961 C 996.91628 492.60184 984.98825 421.29339 973.53906 371.67383 C 962.08994 322.05432 936.80851 273.68373 897.69336 226.5625 C 865.91229 188.2765 815.34684 161.82474 749.01953 162.11914 z M 751.23242 237.02344 C 903.75502 229.81127 925.14147 467.56688 947.18945 635.77344 C 957.84156 719.24347 997.27833 806.15558 1054.1875 907.82227 C 879.4137 785.36791 773.01278 676.20894 723.62891 594.55469 C 675.40898 514.825 637.0692 430.69014 632.48047 371.83594 C 627.89171 312.98173 665.84465 248.66892 736.05859 238.49609 C 741.25602 237.74307 746.31234 237.25609 751.23242 237.02344 z M 218.88672 321.3457 C 270.11565 489.00398 303.88154 619.01738 320.18164 711.38477 C 336.48175 803.75198 372.18702 886.41661 427.29688 959.37891 C 482.40679 1032.3413 556.14446 1084.7346 648.51172 1116.5586 C 740.87893 1148.3827 825.0969 1200.0002 901.16406 1271.4102 C 975.67892 1200.0002 1059.121 1148.3827 1151.4883 1116.5586 C 1243.8556 1084.7346 1317.5933 1032.3413 1372.7031 959.37891 C 1427.8129 886.41661 1463.5182 803.75198 1479.8184 711.38477 C 1496.1185 619.01738 1529.8825 489.00398 1581.1113 321.3457 C 1550.0637 475.03247 1525.6144 612.80712 1507.7617 734.66992 C 1489.9093 856.53249 1446.8305 957.43851 1378.5254 1037.3867 C 1310.2202 1117.3349 1229.1073 1175.1622 1135.1875 1210.8672 C 1041.2676 1246.5722 993.53057 1293.1434 991.97852 1350.582 L 808.01953 1350.582 C 806.46708 1293.1434 758.73217 1246.5722 664.8125 1210.8672 C 570.8929 1175.1622 489.77984 1117.3349 421.47461 1037.3867 C 353.16943 957.43851 310.09079 856.53249 292.23828 734.66992 C 274.38579 612.80712 249.93455 475.03247 218.88672 321.3457 z " /></svg>
