<?xml version="1.0" encoding="UTF-8" standalone="no"?>
<!-- Created with Inkscape (http://www.inkscape.org/) -->

<svg
   width="1420"
   height="1520"
   viewBox="0 0 1420 1520.0001"
   version="1.1"
   id="svg6978"
   inkscape:version="1.2.2 (732a01da63, 2022-12-09)"
   sodipodi:docname="US9F145VARB.svg"
   xmlns:inkscape="http://www.inkscape.org/namespaces/inkscape"
   xmlns:sodipodi="http://sodipodi.sourceforge.net/DTD/sodipodi-0.dtd"
   xmlns="http://www.w3.org/2000/svg"
   xmlns:svg="http://www.w3.org/2000/svg">
  <sodipodi:namedview
     id="namedview6980"
     pagecolor="#ffffff"
     bordercolor="#000000"
     borderopacity="0.25"
     inkscape:showpageshadow="2"
     inkscape:pageopacity="0.0"
     inkscape:pagecheckerboard="0"
     inkscape:deskcolor="#d1d1d1"
     inkscape:document-units="px"
     showgrid="false"
     inkscape:zoom="0.061580177"
     inkscape:cx="479.05026"
     inkscape:cy="568.36471"
     inkscape:window-width="1920"
     inkscape:window-height="1137"
     inkscape:window-x="-8"
     inkscape:window-y="-8"
     inkscape:window-maximized="1"
     inkscape:current-layer="layer1" />
  <defs
     id="defs6975" />
  <g
     inkscape:label="Ebene 1"
     inkscape:groupmode="layer"
     id="layer1">
    <path
       id="path4386"
       style="color:#000000;display:inline;fill:#000000;fill-rule:evenodd;stroke-linejoin:round;-inkscape-stroke:none"
       d="M 426.67132,8.6869854 C 311.44891,10.046715 187.39667,55.630815 121.93497,155.20261 c -52.095105,101.29399 -14.3933,232.95432 67.6211,306.9375 99.93001,78.67816 235.86498,88.96349 357.8926,74.27734 182.06776,-19.47375 368.936,-69.08877 550.83203,-20.71289 71.8022,21.50648 151.5402,37.77979 223.8496,9.33789 17.7202,-43.27408 -42.5943,-72.70233 -59.2617,-108.63476 C 1151.2362,290.40809 1000.9096,209.21797 857.56585,125.1948 711.84312,67.120605 564.10366,7.0651454 426.67132,8.6869854 Z M 413.60296,79.136195 c 207.85238,6.12774 395.7033,107.712855 573.71289,205.416025 82.46435,50.08243 231.23815,161.15595 233.24025,180.66406 3.32,32.34973 -86.672,-21.59843 -141.5156,-28.44922 C 941.14485,419.54186 839.79165,412.31815 703.7807,439.86472 564.98331,459.5677 417.45888,483.57106 282.52484,432.2573 186.48037,390.31475 133.88557,257.64847 197.96237,168.21628 245.77877,100.56856 334.77823,77.735445 413.60296,79.136195 Z M 32.643965,559.27488 A 30.003,30.003 0 0 0 8.8822653,607.58738 C 96.642665,721.46337 207.46667,816.83867 260.53067,932.85497 337.22252,1100.5289 360.56374,1300.5729 412.66351,1491.3101 a 30.003,30.003 0 0 0 28.94141,22.0957 H 1026.687 a 30.003,30.003 0 0 0 29.2285,-23.2403 c 45.134,-195.1405 62.4192,-383.5206 132.2559,-558.67773 44.2137,-110.889 144.3002,-215.2707 221.1718,-324.9961 a 30.003,30.003 0 0 0 -24.5703,-47.21484 z m 63.5391,60 H 1325.3296 c -68.2392,89.18365 -149.8445,182.02839 -192.8907,289.99019 -70.9768,178.01613 -89.6174,361.76123 -129.8008,544.14073 H 464.73578 C 418.27685,1274.7491 394.00758,1080.4268 315.09515,907.89797 263.62907,795.37527 172.84857,708.28087 96.183065,619.27488 Z" />
  </g>
</svg>
