<?xml version="1.0" encoding="UTF-8" standalone="no"?>
<svg
   width="823.60828"
   height="1800"
   version="1.1"
   id="svg1"
   xml:space="preserve"
   xmlns="http://www.w3.org/2000/svg"
   xmlns:svg="http://www.w3.org/2000/svg"><defs
     id="defs1" /><path
     id="path1"
     style="fill:#000000;stroke:none;stroke-width:112.819"
     d="M 798.8655,0.06129371 C 739.64683,2.4315099 666.18658,173.08035 652.7171,218.15598 621.51456,322.57535 553.82294,336.70136 452.93948,369.82722 c -28.60875,-6.02283 -48.18316,-4.51655 -58.72327,4.51787 -10.54005,9.03431 -25.97349,9.41037 -46.30082,1.1289 -20.32727,-8.28147 -34.25437,-7.9054 -41.78298,1.12891 C 32.881665,291.89493 144.084,-0.08579919 6.5244557,2.1208484e-5 -2.6594323,2.0838768 -2.3617713,24.543231 8.7800417,29.362777 62.829608,114.10011 16.987933,174.40891 71.758,293.14803 c 28.066907,60.84782 84.55494,146.69705 168.87546,182.83445 -3.01102,24.09156 -3.76584,42.91172 -2.26006,56.46322 1.50569,13.5515 -12.04531,60.98237 -40.65405,142.29146 -22.58583,19.57445 -33.8784,39.90097 -33.8784,60.98108 1e-5,22.58589 4.51702,38.39768 13.55137,47.43197 0,28.60876 51.94781,42.91189 155.84279,42.91189 19.57447,-3.01145 38.39461,-22.58595 56.46324,-58.72327 h 56.46547 l -16.50944,758.59607 h 74.53468 L 520.6985,767.33883 c 40.65459,0 76.41461,-20.70255 107.28191,-62.11001 30.86741,-41.40738 46.30084,-118.57704 46.30084,-231.5064 l 33.87838,-103.8952 -70.01459,18.06922 C 716.44269,323.1503 710.45004,258.19249 722.89009,219.18449 743.92497,153.22578 753.53849,89.519028 807.25198,40.833602 824.01713,25.637834 824.37234,6.2474911 810.95552,1.8171245 806.84487,0.45974891 802.81341,-0.09672079 798.8655,0.06129371 Z M 423.57897,405.96565 c 18.06869,13.55148 27.85475,35.38452 29.36051,65.49896 l -11.29354,6.77568 21.63667,36.78097 c 0.31852,-0.234 0.63177,-0.40926 0.95042,-0.64477 12.04575,18.06874 25.22079,22.58567 39.52515,13.55134 14.3044,-9.0344 34.25487,-10.91463 59.8522,-5.64452 25.59734,5.27006 44.41965,2.63328 56.46545,-7.90682 -3.01143,66.2519 -15.43425,116.69554 -37.26733,151.32717 -21.83292,34.63172 -94.48339,50.44121 -217.95281,47.42974 -1.50569,42.16034 -15.81104,63.24114 -42.91411,63.24114 -13.5515,-7.52864 -31.61955,-7.52864 -54.20542,0 -34.63164,-9.03438 -51.9476,-24.84616 -51.9476,-47.43196 10.54012,-13.55157 17.69161,-18.44459 21.45595,-14.68028 3.7643,3.76434 3.38825,7.15315 -1.12891,10.16464 -4.51719,3.01143 -6.02369,9.41096 -4.51787,19.19812 1.50577,9.78714 9.03558,13.92602 22.58708,12.42023 13.55152,-1.50569 22.20949,-10.16368 25.9738,-25.9738 3.76431,-15.81008 -6.4001,-30.4893 -30.49166,-44.04079 27.10302,-82.81485 42.16045,-146.05519 45.17192,-189.7212 48.18322,-13.5515 96.36612,-12.0473 144.54927,4.51562 v -11.29129 c -45.1717,-19.57441 -87.33122,-24.84582 -126.48004,-15.81141 10.54005,-15.05725 18.8198,-36.13811 24.84265,-63.24114 28.60875,10.54008 57.21947,9.03585 85.82822,-4.51563 z m 39.70364,109.05561 c -0.589,0.43267 -1.1695,0.76391 -1.75806,1.19139 0.95486,0.16759 1.74695,0.25295 2.70848,0.42388 z m -1.75806,1.19139 C 395.19191,504.56981 344.78829,500.88992 310.64803,505.343 c 3.01145,21.08011 8.6588,38.3961 16.94032,51.94759 8.2815,13.55157 19.198,28.23298 32.74948,44.04302 13.55146,15.81014 20.32703,36.51266 20.32703,62.11 h 11.29355 c 1.50576,-31.62019 -8.28262,-64.74563 -29.36277,-99.37734 32.25749,-7.33126 65.2435,-23.38861 98.92891,-47.85362 z m 194.68749,-110.247 c -16.56295,60.22894 -38.01985,90.72027 -64.37005,91.47276 -26.35021,0.75284 -50.06337,0.37678 -71.14349,-1.12891 -16.56293,0 -27.10343,5.26906 -31.62058,15.80916 l -13.55135,-20.32702 13.55135,-9.03349 c 1.50576,-25.59725 57.21627,-51.19518 167.13412,-76.7925 z m -24.84267,15.80917 c -16.56302,3.01148 -35.00929,9.03491 -55.33654,18.06922 -20.32725,9.03441 -43.29059,22.58538 -68.88791,40.65406 1.50568,4.51717 12.42214,6.77568 32.74948,6.77568 20.32724,0 36.13902,-0.37641 47.43196,-1.12892 11.29287,-0.75249 19.57482,-4.89379 24.84489,-12.42244 5.27011,-7.52862 8.65671,-13.55202 10.1624,-18.06922 1.5058,-4.51714 -2.25923,-1.88033 -11.29354,7.90683 -9.03441,9.78714 -21.45497,13.92812 -37.26511,12.42245 -15.81006,-1.50581 -18.8229,-6.40102 -9.03571,-14.6825 9.78712,-8.28146 31.99839,-21.45646 66.63008,-39.52516 z m -298.13426,101.63739 21.64335,0.69831 c -0.42359,0.56012 -0.92638,0.90961 -1.3163,1.5595 -4.47078,7.45136 -2.25362,13.41613 6.55033,17.91751 l -15.58606,6.92738 z m 45.84793,1.47918 21.53627,0.69386 -21.40687,9.51316 c 2.01671,-4.17497 1.98932,-7.58284 -0.1294,-10.20702 z m 84.0035,991.78021 c -103.68464,0 -215.24647,47.899 -280.62949,113.2812 -67.06205,67.0629 -75.87253,95.4292 -75.87253,143.7944 v 25.7463 h 710.58715 v -25.7463 c 0,-48.3652 -3.81802,-76.7315 -70.881,-143.7944 -65.38301,-65.3822 -179.51945,-113.2812 -283.20413,-113.2812 z m -0.80762,63.453 c 78.26019,0 176.21861,40.204 223.61965,87.602 41.47037,41.4743 50.51001,39.7549 47.20294,69.9223 H 191.34407 c -0.0895,-30.1674 8.1516,-28.448 49.62209,-69.9223 47.40092,-47.398 143.05267,-87.602 221.31276,-87.602 z" /></svg>
