<?xml version="1.0" encoding="UTF-8" standalone="no"?>
<!-- Created with Inkscape (http://www.inkscape.org/) -->

<svg
   id="svg2"
   height="1799.9983"
   width="924.47369"
   version="1.1"
   xmlns="http://www.w3.org/2000/svg"
   xmlns:svg="http://www.w3.org/2000/svg"
   xmlns:rdf="http://www.w3.org/1999/02/22-rdf-syntax-ns#"
   xmlns:cc="http://creativecommons.org/ns#"
   xmlns:dc="http://purl.org/dc/elements/1.1/">
  <defs
     id="defs3" />
  <metadata
     id="metadata4">
    <rdf:RDF>
      <cc:Work
         rdf:about="">
        <dc:format>image/svg+xml</dc:format>
        <dc:type
           rdf:resource="http://purl.org/dc/dcmitype/StillImage" />
        <dc:creator>
          <cc:Agent>
            <dc:title>S. Rosmorduc</dc:title>
          </cc:Agent>
        </dc:creator>
        <cc:license
           rdf:resource="http://creativecommons.org/licenses/by/2.0/" />
        <dc:description>Signe ms, tiré de la stèle d'Antef (Louvre C26), XVIIIeme dynastie&#10;</dc:description>
      </cc:Work>
      <cc:License
         rdf:about="http://creativecommons.org/licenses/by/2.0/">
        <cc:permits
           rdf:resource="http://web.resource.org/cc/Reproduction" />
        <cc:permits
           rdf:resource="http://web.resource.org/cc/Distribution" />
        <cc:requires
           rdf:resource="http://web.resource.org/cc/Notice" />
        <cc:requires
           rdf:resource="http://web.resource.org/cc/Attribution" />
        <cc:permits
           rdf:resource="http://web.resource.org/cc/DerivativeWorks" />
        <cc:requires
           rdf:resource="http://web.resource.org/cc/ShareAlike" />
      </cc:License>
    </rdf:RDF>
  </metadata>
  <path
     id="path10"
     style="color:#000000;fill:#000000;stroke-width:0.964846;-inkscape-stroke:none"
     d="m 364.23815,29.576561 c -8.94996,9.198965 -15.87286,23.378208 -15.87286,38.102028 9.15236,61.368121 19.50405,122.707091 29.44478,184.003081 -4.01525,1.96202 -7.93382,4.08817 -11.79112,6.31107 L 272.14051,127.77422 c -10.75364,-11.52062 -25.52539,-17.2091 -41.01354,-18.32455 -63.13165,-2.32591 -156.461279,88.72301 -143.360776,148.59207 3.06785,14.01995 13.304956,27.93753 26.314676,35.44869 l 154.19837,111.35502 0.59547,-0.59549 c -1.51423,12.47611 -1.5645,20.14389 -1.36056,28.4611 -7.32361,1.27963 -15.5831,3.02022 -25.10111,6.10001 -26.2375,8.48983 -60.59412,25.4788 -94.12345,58.33178 -67.058629,65.70596 -128.709052,191.34563 -128.709052,431.94258 0,184.95667 -19.55699198,802.18987 -19.55699198,802.18987 -1.00266856,32.0082 30.29505398,53.4928 40.80437698,57.9783 32.696971,13.9553 85.338827,14.6925 121.744067,0 11.14554,-4.498 41.37534,-23.2348 41.37534,-57.9783 l 19.56646,-802.18987 c 5.23709,-161.71666 45.60193,-247.24285 81.53898,-292.76906 14.2111,-17.56352 30.65028,-34.19141 50.83912,-44.79002 7.42827,379.32464 3.19605,759.62515 3.19605,1139.74895 0,32.9702 30.35218,53.2772 42.49095,57.9783 35.33297,13.6839 88.73815,13.6069 123.62101,0 12.44676,-4.8551 42.42315,-25.5464 42.42315,-57.9783 l 2.20864,-1139.11388 c 18.73143,10.60177 34.57036,25.11841 49.59726,44.15495 35.94085,45.53112 76.3108,131.01861 81.54085,292.76906 l 19.56603,802.18987 c 0,26.9297 18.53823,49.6475 38.86144,57.9783 35.88737,14.7112 90.39186,13.5092 126.22532,0 40.78585,-15.3762 38.83508,-45.5115 38.83662,-57.9783 0,0 -19.55698,-617.2332 -19.55698,-802.18987 0,-240.59695 -61.65041,-366.23614 -128.70911,-431.9421 -22.26453,-21.81549 -62.89209,-53.89211 -117.00842,-64.04547 0.36248,-13.61907 -0.45116,-22.80096 -1.81661,-32.50893 l 149.13667,-107.51447 0.50316,-0.39575 c 31.78601,-25.01725 22.90199,-62.72401 18.89933,-74.96972 -16.01588,-48.99828 -77.5898,-107.17555 -131.59036,-107.89513 -16.76681,-0.22344 -34.00524,4.62451 -47.23793,17.8572 -31.2866,41.84892 -61.53881,84.69031 -92.12599,127.11857 -2.0002,-1.06505 -4.01269,-2.11054 -6.0529,-3.10748 L 578.34559,67.678589 C 580.72007,52.840554 570.69357,39.015251 561.88289,30.443416 522.73951,-7.6387123 404.95536,-12.273457 364.23815,29.576561 Z M 516.53508,71.963866 495.3499,202.59509 H 431.36096 L 409.92327,70.401643 c 21.12836,-13.111801 83.07652,-12.242646 106.61181,1.562223 z m 176.09778,97.673794 c 26.01477,0.62592 80.23348,53.75051 76.90505,75.23543 l -113.92353,82.1307 -45.24794,-45.24792 z m -464.72268,0.61245 79.21544,109.88134 -45.24793,45.24792 -114.23636,-82.35494 c 4.35882,-23.68021 54.84528,-71.53398 80.26885,-72.77432 z m 235.44525,122.38101 c 76.67778,10e-6 135.24441,60.19292 135.24441,135.24627 0,79.93609 -61.52449,135.24441 -135.24441,135.24441 -74.17717,0 -135.24439,-59.42148 -135.24439,-135.24441 0,-75.05337 60.19103,-135.24628 135.24439,-135.24627 z M 271.77114,493.5812 c 11.70113,20.00408 23.8643,37.85106 37.4745,55.52204 -15.68265,10.94732 -33.7929,26.71677 -51.85109,49.59351 -45.40828,57.52474 -89.06286,159.06584 -94.57572,330.38868 l -19.49859,802.18987 c -0.4409,18.167 -63.291005,11.1977 -82.388875,0 0.679629,-21.4556 19.368548,-616.4012 19.368548,-802.18987 0,-230.31661 57.946407,-337.09525 110.484377,-388.57348 22.55194,-22.78879 50.26917,-38.31394 80.98685,-46.93075 z m 381.54605,0.16961 c 31.18364,7.80382 57.77724,24.61239 80.38197,46.76114 52.53782,51.47823 110.48431,158.25687 110.48431,388.57348 0,188.98727 19.53362,800.85847 19.57588,802.18987 -4.59142,12.8983 -82.50571,12.7895 -82.50571,0 0,-2.3659 -19.57239,-608.6441 -19.57239,-802.18987 0,-10.8815 -1.27081,-212.16487 -94.59311,-330.38868 -17.63468,-22.34032 -35.29478,-37.83708 -50.72035,-48.75115 z M 506.90357,626.90157 V 1731.2753 c -20.1913,11.2001 -70.45058,9.2628 -87.09629,0 V 627.13903 Z" />
</svg>
