<?xml version="1.0" encoding="UTF-8" standalone="no"?>
<!-- Created with Inkscape (http://www.inkscape.org/) -->

<svg
   width="1042.1682"
   height="1420.463"
   viewBox="0 0 1042.1682 1420.463"
   version="1.1"
   id="svg570"
   xmlns="http://www.w3.org/2000/svg"
   xmlns:svg="http://www.w3.org/2000/svg">
  <defs
     id="defs567" />
  <path
     id="rect1830-4"
     style="color:#000000;display:inline;fill:#000000;fill-rule:evenodd"
     d="m 435.26964,0 -0.2735,29.72266 -1.1601,125.51758 h -247.8594 l 0.9238,97.95898 h 247.1446 l 0.8418,199.18945 c -37.8714,3.29659 -75.4726,10.22989 -107.3262,25.04102 -27.9815,13.01052 -60.2676,40.04912 -83.3809,90.38673 -3.7474,8.1614 -7.207,17.1717 -10.5254,26.5937 C 143.20174,551.92292 49.802844,471.51172 49.802844,471.51172 A 30.003,30.003 0 0 0 36.873144,464.84766 30.003,30.003 0 0 0 0.36924356,498.7461 L 85.711044,1036.668 a 30.003,30.003 0 0 0 12.123,19.6601 c 68.253796,49.0479 138.500396,74.1695 166.201196,82.9375 2.3567,6.6049 4.7412,12.981 7.1562,19.0098 18.096,45.1738 48.8652,107.4978 89.9063,160.7851 41.0411,53.2875 93.596,100.8867 159.7539,101.3985 66.28859,0.5127 119.10539,-46.8507 160.18359,-99.9766 41.0782,-53.1259 71.8435,-115.4609 89.9395,-160.6348 2.415,-6.0288 4.7995,-12.4048 7.1562,-19.0097 27.6962,-8.7663 97.9428,-33.8864 166.2012,-82.9375 a 30.003,30.003 0 0 0 12.123,-19.6602 l 85.34377,-537.92184 a 30.003,30.003 0 0 0 -32.8867,-34.51953 30.003,30.003 0 0 0 -16.54887,7.28516 c 0,0 -93.3956,80.41121 -183.8476,122.89843 -3.3185,-9.4222 -6.7799,-18.4322 -10.5274,-26.5937 -23.1128,-50.33673 -55.3997,-77.37596 -83.3808,-90.38677 v 0 c -31.8874,-14.82647 -70.2823,-22.08988 -108.8575,-25.76757 l -0.8456,-200.03516 h 217.6113 l -0.9258,-97.95898 H 604.69743 L 606.13293,0 Z m 59.4492,60 h 50.85549 l -1.4356,155.24024 h 0.6035 l 0.9824,232.45703 h -50.85739 l -1.0742,-254.49805 h -0.3047 z m 24.7109,449.53125 c 59.16909,0.25448 132.90769,6.68627 169.87889,23.87695 16.6698,7.75091 36.0967,21.69473 54.1524,61.01762 18.0443,39.2979 33.1713,104.4483 34.3945,209.3769 -0.084,93.43336 -31.4184,255.94838 -62.5781,333.73438 -3.1924,7.9693 -7.2705,17.0628 -11.4082,26.1816 -34.3962,-29.0139 -98.4094,-70.9375 -181.86529,-70.9375 -83.7245,0 -147.3256,44.031 -181.4472,74.5567 -5.1681,-11.1372 -9.8432,-21.8252 -13.668,-31.3731 -31.1595,-77.7853 -62.492,-240.29902 -62.5762,-333.73238 1.2231,-104.9299 16.3482,-170.0806 34.3926,-209.3789 18.0557,-39.32282 37.4826,-53.26668 54.1524,-61.01758 37.0885,-17.24522 107.2653,-22.5596 166.5722,-22.30469 z M 71.736444,565.66602 c 38.716096,28.6651 91.257096,63.6427 146.158196,87.6992 -7.9514,40.1866 -12.8985,88.6798 -13.584,148.3652 a 30.003,30.003 0 0 0 0,0.3594 c 0.038,75.88896 15.878,179.25766 38.1582,265.24218 -27.9948,-11.5134 -64.0385,-28.7161 -99.5097,-52.7578 z m 898.693286,1.5723 -71.2187,448.90618 c -35.473,24.043 -71.5165,41.2459 -99.5117,52.7598 22.2807,-85.98462 38.1216,-189.35332 38.1601,-265.24218 a 30.003,30.003 0 0 0 0,-0.3594 c -0.6854,-59.6853 -5.6326,-108.1786 -13.584,-148.3652 54.9011,-24.0565 107.4399,-59.0339 146.1563,-87.6992 z M 522.00394,1132.7812 c 77.32999,0 136.71739,43.973 163.67389,68.2676 -14.724,27.9853 -32.3814,57.2185 -52.1094,82.7324 -35.9143,46.4475 -76.8873,76.9533 -112.25199,76.6797 -35.4955,-0.2745 -76.7321,-31.3307 -112.6835,-78.0097 -18.5118,-24.0356 -35.2447,-51.3038 -49.4043,-77.7012 26.5189,-25.4334 85.5164,-71.9688 162.7753,-71.9688 z" />
</svg>
