<?xml version="1.0" encoding="UTF-8" standalone="no"?>
<svg
   width="1799.9727"
   height="1599.123"
   version="1.1"
   id="svg1"
   xmlns="http://www.w3.org/2000/svg"
   xmlns:svg="http://www.w3.org/2000/svg">
  <defs
     id="defs1" />
  <path
     id="path1820"
     style="fill:#000000;stroke:none;stroke-width:84.6875"
     d="M 909.09375,0 C 824.89785,0 759.6457,26.10125 713.3379,78.30273 c -46.30776,52.20148 -69.46094,111.98117 -69.46094,179.33789 0,77.46027 26.10124,140.81761 78.30273,190.07227 9.09823,8.58463 18.61606,16.14597 28.32813,23.23437 l -58.63868,92.32422 c 8.38513,6.19771 17.00539,11.45121 25.78516,16.07032 l -53.57031,83.70312 c 8.70761,6.38559 17.71381,11.79998 26.95508,16.45117 l -52.21485,83.32031 c 7.88703,5.78381 16.04625,10.68402 24.3711,15.04493 l -53.41797,83.46484 c 9.08072,6.51444 18.43944,12.0426 28.02929,16.75195 l -52.02539,83.0195 c 8.43645,6.0523 17.11133,11.1777 25.94727,15.6719 l -53.73242,82.83788 c 8.86315,6.551 17.97522,12.0849 27.2793,16.8281 l -47.90626,73.8574 C 448.18635,1080.3185 387.41185,963.33942 355.10352,799.26367 315.51813,598.23184 268.17164,465.89123 213.0625,402.24414 157.95337,338.59695 91.589164,263.30765 13.970704,176.375 H 0 c 130.39904,175.41773 201.03188,342.29895 211.89844,500.64062 10.86658,158.34173 27.55508,284.4704 50.06446,378.38868 22.50937,93.9183 71.79721,176.5831 147.86328,247.9922 76.06609,71.409 150.96748,119.1453 224.70507,143.207 73.73746,24.0616 114.48808,74.9009 122.25,152.5195 h 286.41205 c 7.762,-77.6186 48.5106,-128.4579 122.2481,-152.5195 73.7376,-24.0617 148.6408,-71.798 224.707,-143.207 76.0658,-71.4091 125.3539,-154.0739 147.8633,-247.9922 22.5092,-93.91828 39.1956,-220.04695 50.0625,-378.38868 10.8663,-158.34167 81.4992,-325.22289 211.8984,-500.64062 h -13.9707 c -77.6185,86.93265 -143.9828,162.22195 -199.0918,225.86914 -55.1092,63.64709 -102.4557,195.9877 -142.041,397.01953 -30.0856,152.78725 -84.8976,264.66453 -164.3008,335.85353 l -41.6425,-64.1973 c 8.9659,-4.6801 17.7612,-10.04 26.3164,-16.3633 l -53.0977,-81.85938 c 9.5226,-4.6899 18.8196,-10.1792 27.8399,-16.6503 l -53.6934,-83.89653 c 8.7972,-4.57773 17.4567,-9.763 25.9082,-15.87695 l -53.4043,-82.33204 c 9.1652,-4.59674 18.146,-9.90809 26.8828,-16.17578 l -53.5996,-83.75 c 8.79,-4.58292 17.422,-9.81885 25.8164,-16.02343 l -52.5527,-82.11329 c 9.3094,-4.6403 18.425,-10.03468 27.2929,-16.39648 l -60.33,-94.26758 c 9.9433,-8.54326 19.4582,-17.74077 28.125,-28.23633 45.8868,-55.56932 68.83,-115.34894 68.83,-179.33789 -0.8418,-61.463 -23.9951,-119.55779 -69.4609,-174.28515 C 1054.333,28.6281 990.76379,0.84196 909.09375,0 Z m 0,40.41406 c 70.72458,0.84197 124.61005,23.36549 161.65625,67.56836 37.0462,44.20289 57.2533,94.08894 60.6211,149.6582 -0.8418,58.93718 -21.6806,111.13767 -62.5156,156.60352 -40.8352,45.4658 -94.08896,68.62094 -159.76175,69.46289 -62.30496,0 -115.55883,-21.26035 -159.76171,-63.7793 -44.20287,-42.51895 -65.88298,-96.61424 -65.04102,-162.28711 0,-56.41122 19.99521,-106.71899 59.98828,-150.92187 39.99307,-44.20288 94.93183,-66.30469 164.81445,-66.30469 z m 150.28905,444.55469 42.9414,66.9375 c -22.733,15.15523 -47.571,21.8909 -74.5137,20.20703 l 2.4922,-78.53516 c 1.3458,-0.69665 2.7163,-1.3552 4.0449,-2.07812 z m -294.26366,5.05273 29.04688,7.57813 2.52539,79.56445 c -26.94269,1.68386 -51.77882,-5.0518 -74.51172,-20.20703 z m -546.23437,7.69336 c 51.2282,167.65593 84.99114,297.66908 101.29102,390.03516 16.29987,92.36592 52.0042,175.029 107.11328,247.9902 55.10914,72.9613 128.84691,125.3541 221.21289,157.1777 92.3659,31.8236 176.58237,83.4407 252.64844,154.8497 74.51379,-71.409 157.9544,-123.0261 250.3203,-154.8497 92.3661,-31.8236 166.1039,-84.2164 221.2129,-157.1777 55.1091,-72.9612 90.8133,-155.62428 107.1133,-247.9902 16.2998,-92.36608 50.0648,-222.37923 101.2929,-390.03516 -31.0471,153.68461 -55.4971,291.45926 -73.3496,413.32028 -17.8522,121.86088 -60.9302,222.76388 -129.2344,302.71098 -68.3042,79.9468 -149.4174,137.7739 -243.3359,173.4785 -93.9186,35.7044 -141.65302,82.2751 -143.20505,139.7129 H 808.00782 C 806.45538,1469.4997 758.72107,1422.929 664.80274,1387.2246 570.88445,1351.52 489.77302,1293.6929 421.46875,1213.7461 353.16454,1133.799 310.08468,1032.896 292.23243,911.03512 274.38018,789.1741 249.93216,651.39945 218.88477,497.71484 Z m 789.01753,5.95313 -4.0879,89.91406 c 10.1063,1.08281 19.9799,1.25392 29.6993,0.82812 l -4.4395,97.68165 c 10.9913,1.37391 21.7299,1.71489 32.2637,1.21289 l -4.4785,98.55859 c 10.1257,1.08491 20.0164,1.25765 29.7539,0.82812 l -4.4961,98.94532 c 11.3376,1.2148 22.4442,1.4005 33.3437,0.668 l -5.5586,97.8418 c 10.9678,1.1546 21.6624,1.3417 32.1465,0.7812 l -5.625,98.99018 c 10.9273,1.1708 21.6031,1.3374 32.0781,0.6993 l -5.5566,97.8105 c 13.1333,1.3586 25.8381,1.4305 38.1797,0.4141 -1.0445,0.5124 -2.0335,1.1167 -3.084,1.6191 -87.1708,41.6905 -160.8799,78.3591 -222.74607,110.6074 l -29.04883,-90.3711 c 10.79415,-2.2071 21.56521,-5.383 32.31054,-9.6406 l -31.5664,-94.6953 c 9.66132,-2.1725 19.33795,-5.0214 29.03906,-8.8652 l -29.91992,-93.084 c 10.84,-2.1027 21.65649,-5.14288 32.44726,-9.21488 l -31.31054,-93.9316 c 9.59458,-2.0637 19.18862,-4.7446 28.7832,-8.3652 l -30.24609,-94.10159 c 10.50303,-2.20258 21.00672,-5.29935 31.50976,-9.46094 l -30.18164,-93.89844 c 9.63957,-2.066 19.2784,-4.76087 28.91797,-8.39844 l -30.0039,-93.3457 c 10.42223,-2.09579 20.84533,-5.02021 31.26757,-8.95312 l -22.10351,-67.16211 c 18.69437,-2.91975 36.26549,-7.55581 52.71284,-13.91211 z m -192.4394,1.96679 c 15.8895,5.72091 32.42248,9.87215 49.59374,12.46875 l -21.63476,66.63868 c 9.63977,3.63764 19.2782,6.33437 28.91797,8.40039 l -30.18164,93.89843 c 10.42159,3.93268 20.84403,6.8554 31.26562,8.95118 l -30.00195,93.3457 c 9.72364,3.85277 19.44628,6.70714 29.16992,8.88086 l -30.43359,94.68167 c 10.76542,4.0624 21.53145,7.093 32.29687,9.1953 l -31.0332,93.1015 c 10.06376,3.7274 20.10249,6.49118 30.125,8.56838 l -30.125,93.7305 c 10.42133,4.2086 20.8669,7.3437 31.33594,9.5488 l -31.33594,94.0117 c 10.02126,3.8972 20.01768,6.7857 29.99805,8.9649 l -29.99805,93.3339 c 9.30026,3.7559 18.62268,6.5391 27.96094,8.6993 l -4.66211,10.7324 c -69.90876,-36.9683 -155.12012,-79.8234 -262.46289,-131.1895 18.44677,3.6031 37.52033,4.3534 57.30078,1.8809 l -4.47852,-98.5273 c 9.73166,0.3251 19.61684,0.021 29.73633,-1.2442 l -5.55469,-97.76948 c 10.87284,0.6894 21.97811,0.4771 33.33985,-0.7403 l -4.49805,-98.9316 c 9.72748,0.3987 19.61483,0.2276 29.75586,-0.8398 l -4.44141,-97.73051 c 10.48656,0.5712 21.20736,0.38061 32.22657,-0.7793 l -5.5586,-98.96093 c 10.04394,0.47246 20.28799,0.29791 30.81836,-0.81055 l -4.44726,-97.81445 c 10.52324,0.64993 21.25062,0.4811 32.23046,-0.69532 z m 118.42578,14.62891 15.61914,49.32227 c -26.10076,9.26152 -52.20203,9.26152 -78.30274,0 l 15.50391,-48.95899 c 7.37175,0.54177 14.79075,0.96875 22.38476,0.96875 8.49783,-0.0876 16.68451,-0.65191 24.79493,-1.33203 z m 150.75392,64.47852 42.9394,66.93554 c -23.5749,15.15524 -48.8327,21.89094 -75.7754,20.20703 l 3.7891,-79.56445 1.9453,-0.50781 c 8.6542,-1.55598 17.1311,-3.80471 25.457,-6.64063 z m -347.30861,3.78906 1.78906,0.46679 c 8.89859,3.28128 17.9952,5.77056 27.27149,7.54102 l 2.51367,79.13477 c -26.94272,1.68392 -51.78077,-5.05172 -74.51367,-20.20703 z m 156.45508,8.05859 c 10.21578,0.95419 20.4307,0.92806 30.64648,0.11719 l 23.80859,76.44141 c -26.10069,8.41961 -52.20003,8.41961 -78.30078,0 z m 218.63863,86.66211 42.9395,66.93555 c -22.7329,15.15531 -47.5709,22.31077 -74.5137,21.46875 l 2.5254,-79.56445 z m -400.40426,5.13281 c 9.45585,3.30318 19.12993,5.89215 29.09961,7.52539 l 2.52539,79.53516 c -26.94264,1.68387 -51.78077,-5.05173 -74.51367,-20.20703 z m 183.17774,11.28516 h 30.31054 l 23.9961,75.77539 c -26.10076,8.41956 -52.20203,8.41956 -78.30274,0 z m 242.48432,83.35352 42.9414,68.19921 c -22.7328,14.31336 -47.9927,20.6273 -75.7773,18.94336 l 3.7891,-79.56445 1.9394,-0.50586 c 8.6597,-1.55666 17.1415,-3.80825 25.4727,-6.64648 z m -453.69721,4.2539 c 9.51991,3.50706 19.32678,6.08051 29.37304,7.87696 l 2.50196,78.80078 c -26.94272,2.52596 -52.20053,-3.78798 -75.77539,-18.94336 z m 209.95117,14.68946 h 3.66015 c 8.50484,0.64226 17.00884,0.64224 25.51368,0 H 924.25 l 23.99414,75.77734 c -26.10069,9.2616 -52.20003,9.2616 -78.30078,0 z m 271.55274,79.5996 42.9179,66.90232 c -21.8908,15.1553 -46.7289,21.891 -74.5136,20.2071 l 3.7793,-79.36723 c 9.4372,-1.8482 18.7266,-4.34966 27.8164,-7.74219 z m -505.54688,5.54688 c 9.17754,3.08161 18.52806,5.54454 28.13672,7.09764 l 2.52343,79.5176 c -26.9427,2.5258 -51.78077,-4.2098 -74.51367,-20.207 z m 265.71679,17.63474 23.84571,76.5567 c -25.25879,8.4195 -50.93831,8.4195 -77.03907,0 l 23.79102,-76.3809 c 9.80053,0.7091 19.60181,0.7396 29.40234,-0.1758 z m 266.33009,76.5567 42.9394,68.19918 c -22.7329,15.1555 -47.9907,21.4692 -75.7754,18.9433 l 3.7891,-79.56438 3.957,-1.0332 c 7.5391,-1.4505 14.9417,-3.3858 22.211,-5.793 z m -560.7461,5.0527 29.04883,7.5781 3.78906,79.56448 c -27.78466,1.6835 -53.04445,-5.052 -75.77735,-20.2071 z m 263.95508,21.46878 h 30.31054 l 22.73242,75.7773 c -26.10069,9.2617 -51.78027,9.2617 -77.03906,0 z m 323.31252,73.2519 42.9414,66.9355 c -21.8911,14.3133 -46.729,20.6293 -74.5137,18.9454 l 3.7676,-79.1328 c 6.1317,-1.17 12.1681,-2.7207 18.1347,-4.5508 z m -612.52541,5.0508 7.44531,1.6191 c 7.1045,2.161 14.28583,4.0062 21.625,5.2051 l 3.76562,79.0566 c -27.78466,2.5257 -53.04249,-4.2098 -75.77539,-20.207 z m 290.47656,23.9961 h 0.33203 c 8.4033,0.6413 16.82202,0.6413 25.25586,0 h 3.45898 l 23.9961,75.7773 c -25.25879,9.2616 -50.93831,9.2616 -77.03907,0 z m -1.26367,103.5605 h 3.21093 c 8.60004,0.6422 17.18446,0.6422 25.75391,0 h 1.3457 l 22.73242,75.7774 c -26.10069,9.2616 -51.78027,9.2616 -77.03906,0 z m 65.04101,95.1504 c -4.85964,2.5569 -8.80112,4.7709 -13.49414,7.2656 l -1.38476,-3.4765 c 4.95465,-1.0663 9.91378,-2.283 14.8789,-3.7891 z m -67.5664,7.1485 h 4.12109 c 8.4033,0.6413 16.82202,0.6413 25.25586,0 h 0.93359 l 3.44336,11.0566 c -8.3217,4.4982 -17.54236,9.3313 -25.27929,13.6113 -3.89481,-2.1097 -9.62947,-4.9271 -13.66211,-7.0898 z" />
</svg>
