<?xml version="1.0" encoding="UTF-8" standalone="no"?>
<svg
   width="528.51599"
   height="1790.2247"
   id="svg1333"
   version="1.1"
   xmlns="http://www.w3.org/2000/svg"
   xmlns:svg="http://www.w3.org/2000/svg"
   xmlns:rdf="http://www.w3.org/1999/02/22-rdf-syntax-ns#"
   xmlns:cc="http://creativecommons.org/ns#"
   xmlns:dc="http://purl.org/dc/elements/1.1/">
  <metadata
     id="metadata1340">
    <rdf:RDF>
      <cc:Work
         rdf:about="">
        <dc:format>image/svg+xml</dc:format>
        <dc:type
           rdf:resource="http://purl.org/dc/dcmitype/StillImage" />
      </cc:Work>
    </rdf:RDF>
  </metadata>
  <defs
     id="defs1338" />
  <path
     id="path1335"
     style="fill:#000000;stroke:none;stroke-width:99.5124"
     d="M 194.33614,0 V 121.46295 H 63.955526 V 197.2806 H 194.33614 l -5.46875,112.17916 -125.516804,-1.25062 v 73.88353 l 121.805864,1.2506 -34.17968,688.93483 C 67.558906,1105.9949 21.277516,1150.9976 11.914256,1207.4733 2.551066,1263.9491 -1.311584,1321.7662 0.39081602,1380.7707 2.093216,1439.7752 8.786456,1501.735 20.703316,1566.64 c 11.91686,64.9049 43.13843,126.5931 93.359384,165.3675 50.22095,38.7744 113.59362,58.2172 150.1953,58.2172 36.60171,0 99.97438,-19.9538 150.19533,-59.5711 50.22095,-39.6172 81.2472,-100.7944 93.16406,-164.0136 11.91686,-63.2191 18.80541,-124.8613 20.50781,-184.7088 1.7024,-59.8474 -2.16017,-117.9821 -11.52343,-174.4579 -9.3632,-56.4757 -56.67664,-101.4784 -141.79688,-135.1952 l -26.17188,-688.93482 120.61433,-0.62531 v -73.88352 l -123.3487,0.62531 -4.29687,-112.17916 h 124.81441 l 2.5391,-75.81765 H 333.98458 V 0 Z m 32.8125,1122.7587 h 74.02344 c 81.71545,23.6017 126.00283,56.4943 132.8125,98.6402 6.8096,42.1462 9.8356,99.4524 8.9844,171.9436 -0.851,72.4913 -13.27573,142.1012 -37.10937,208.6919 -23.83371,66.5909 -70.63109,104.9655 -140.4297,115.0805 -71.50099,-10.115 -118.61905,-48.4896 -141.60155,-115.0805 -22.98245,-66.5907 -35.406984,-135.6896 -37.109384,-207.338 -1.7024,-71.6483 0.8076,-128.9545 7.61719,-171.9436 6.809604,-42.9888 51.097054,-76.3924 132.812474,-99.9941 z m 37.6953,82.2003 c -49.79534,0 -99.77904,35.0603 -149.99999,105.0229 v 73.3032 c 100.4419,-141.6108 200.08863,-141.6108 298.82813,0 v -73.3032 C 364.30233,1240.0193 314.6393,1204.959 264.84394,1204.959 Z m 0,151.6352 c -17.44964,0 -35.05443,4.653 -52.92967,13.9257 -35.7505,18.5443 -53.71094,59.9154 -53.71094,123.9773 l 28.125,169.4292 27.92968,-10.0574 -10.35156,-98.6403 c -6.8096,-70.8053 3.4256,-107.2835 30.66406,-129.1994 27.2385,-21.916 34.15963,-21.916 60.54688,0 26.3873,21.9159 36.10647,57.5654 29.29688,126.6851 l -12.69532,101.1546 33.00782,7.5429 25.39062,-166.9149 c -1.7024,-64.0617 -19.46753,-105.4328 -53.51562,-123.9771 -17.02405,-9.2722 -34.30817,-13.9257 -51.75783,-13.9257 z" />
</svg>
