<?xml version="1.0" encoding="UTF-8" standalone="no"?>
<svg
   width="18"
   height="11.9"
   version="1.1"
   id="svg865"
   sodipodi:docname="US9F21VARA.svg"
   inkscape:version="1.2.1 (9c6d41e410, 2022-07-14)"
   xmlns:inkscape="http://www.inkscape.org/namespaces/inkscape"
   xmlns:sodipodi="http://sodipodi.sourceforge.net/DTD/sodipodi-0.dtd"
   xmlns="http://www.w3.org/2000/svg"
   xmlns:svg="http://www.w3.org/2000/svg">
  <defs
     id="defs869" />
  <sodipodi:namedview
     id="namedview867"
     pagecolor="#ffffff"
     bordercolor="#000000"
     borderopacity="0.25"
     inkscape:showpageshadow="2"
     inkscape:pageopacity="0.0"
     inkscape:pagecheckerboard="0"
     inkscape:deskcolor="#d1d1d1"
     showgrid="false"
     inkscape:zoom="34.055704"
     inkscape:cx="11.451826"
     inkscape:cy="5.4322765"
     inkscape:window-width="1920"
     inkscape:window-height="1017"
     inkscape:window-x="1072"
     inkscape:window-y="-8"
     inkscape:window-maximized="1"
     inkscape:current-layer="svg865" />
  <path
     style="fill:#000000;stroke:none;stroke-width:0.817831"
     d="m 17.987546,1.2483068 c -0.27929,3.0561075 -1.325258,6.3727712 -3.137903,9.9499912 -0.230003,0.396263 -1.018586,0.588966 -2.365748,0.578109 -0.777631,0 -2.9215904,-0.417976 -6.4318791,-1.253927 -0.4545304,-0.09771 -1.0240625,-0.122135 -1.7085962,-0.07328 -0.3176237,0 -0.791321,0.09499 -1.4210921,0.284983 -0.6297709,0.184563 -1.1034683,0.276844 -1.421092,0.276844 -0.95287093,0.01085 -1.42930639,-0.550971 -1.42930639,-1.6854732 0,-1.3842048 0.39702956,-2.0763072 1.19108869,-2.0763072 C 1.2843947,5.4686493 -0.43425261,3.1795234 0.15793576,2.9971198 0.75012413,2.8147162 1.8614218,6.3860892 1.9449349,7.312216 1.9525349,7.396483 2.1222436,7.399458 2.1836483,7.374234 2.6038763,5.3228327 1.1555218,2.9580145 1.5457313,2.8000173 1.9266179,2.645795 2.9837232,4.8070206 2.7770944,7.4899951 c 0.1764883,0.064051 0.2629705,0.084947 0.4820213,0.084947 0.3669101,0 1.2047794,-0.4532594 2.5136079,-1.3597783 C 9.2337287,3.6584559 12.09508,1.8644177 14.356779,0.83304921 15.506796,0.31193675 16.333713,0.05138052 16.83753,0.05138052 c 0.777629,0 1.160968,0.39897676 1.150016,1.19693028 z M 0.80301124,9.3255498 c 0,0.3636931 0.0985728,0.6296779 0.29571856,0.7979542 0.1478593,0.119421 0.4216728,0.179131 0.8214404,0.179131 0.2957187,0 0.7338203,-0.076 1.3143049,-0.227987 0.5804845,-0.1519901 1.0240624,-0.2279851 1.3307336,-0.2279851 0.6626286,0 1.199303,0.043426 1.6100233,0.1302776 0.5147693,0.086853 2.6423003,0.4152615 6.382593,0.9852285 0.82144,0.07057 1.330733,-0.08957 1.527879,-0.480401 C 15.772395,7.1271067 16.769076,4.2067057 17.075747,1.7205649 17.0867,1.4328674 16.982651,1.2130231 16.7636,1.061032 16.539073,0.90904081 16.128352,0.97146574 15.531439,1.2483068 12.366155,2.827929 9.2474193,4.6762498 6.175232,6.7932692 4.8061645,7.7052158 3.9326995,8.1611891 3.5548368,8.1611891 c -0.2080982,0 -0.5175074,-0.029855 -0.9282277,-0.089564 -0.4052439,-0.065139 -0.711915,-0.097708 -0.9200133,-0.097708 -0.6023897,0 -0.90358456,0.4505452 -0.90358456,1.3516355 z M 15.36715,4.1795644 C 15.180957,4.2012774 14.219872,4.4156935 12.483895,4.8228126 10.747917,5.2299317 8.1275222,6.4621455 4.6227095,8.5194538 L 4.5077078,8.2100432 C 8.4834793,5.7890419 12.089603,4.3424121 15.326079,3.8701539 Z M 15.038575,6.9235472 C 11.944482,6.8149822 8.7162212,7.5233693 5.3537915,9.0487086 L 5.2798618,8.7555837 C 8.6532439,7.2193873 11.900672,6.5055716 15.022146,6.6141367 Z m -1.265019,2.3450066 -0.02464,0.3256953 C 11.602219,9.0514232 8.9325375,9.1002774 5.7398725,9.7408116 L 5.6988007,9.431401 C 8.9188469,8.7745824 11.610433,8.7203 13.77356,9.2685538 Z"
     id="path863"
     sodipodi:nodetypes="cccccccsczscscsccsccccssscccccccscscccsccccccccccccccc" />
</svg>
