<?xml version="1.0" encoding="UTF-8" standalone="no"?>
<!-- Created with Inkscape (http://www.inkscape.org/) -->

<svg
   width="1802.4352"
   height="1200.6462"
   viewBox="0 0 1802.4352 1200.6463"
   version="1.1"
   id="svg1691"
   xmlns="http://www.w3.org/2000/svg"
   xmlns:svg="http://www.w3.org/2000/svg">
  <defs
     id="defs1688">
    <clipPath
       clipPathUnits="userSpaceOnUse"
       id="clipEmfPath1">
      <path
         d="M 0,0 H 124.43852 V 129.53846 H 0 Z"
         id="path1068" />
    </clipPath>
    <pattern
       id="EMFhbasepattern"
       patternUnits="userSpaceOnUse"
       width="6"
       height="6"
       x="0"
       y="0" />
  </defs>
  <path
     id="path1"
     style="color:#000000;fill:#000000;stroke-width:1.31584;-inkscape-stroke:none"
     d="M 476.8212,250.168 C 431.73159,160.63855 349.56032,-4.3310937 309.79769,0.0869769 L 492.64387,552.44784 H 0 L 2.4358488,676.22279 H 519.75944 c 0,0 65.45662,193.61001 117.29803,290.2067 44.77349,83.42701 129.38678,232.66221 165.14154,231.10771 L 615.11683,676.22279 h 249.75803 c 0,0 53.5155,180.04492 100.19793,269.99749 48.05311,92.59392 124.72301,254.42602 182.24151,254.42602 L 960.23224,676.22279 h 251.58526 c 0,0 55.0644,166.98436 97.0862,249.78828 51.3734,101.23103 129.3894,269.97153 188.4624,271.52613 L 1307.1748,676.22279 h 495.2603 l -2.4358,-123.77495 h -519.94 c 0,0 -70.4881,-223.30737 -127.3822,-333.20633 C 1112.0353,140.73607 1047.5091,1.5596671 1003.3284,0.0869769 L 1184.702,552.44784 H 933.11662 c 0,0 -68.91237,-212.86764 -122.96154,-318.47943 C 767.52601,150.67144 681.42152,0.0869769 654.9131,0.0869769 L 837.75927,552.44784 H 588.00126 c 0,0 -60.705,-202.05709 -111.18006,-302.27984 z" />
</svg>
