<?xml version="1.0" encoding="UTF-8" standalone="no"?>
<svg
   width="1696.2793"
   height="1799.9999"
   version="1.1"
   id="svg1"
   xmlns="http://www.w3.org/2000/svg"
   xmlns:svg="http://www.w3.org/2000/svg">
  <defs
     id="defs1" />
  <path
     id="path1"
     style="fill:#000000;stroke:none;stroke-width:100.149"
     d="M 912.87465,37.888149 C 847.04241,86.165137 814.12699,156.38561 814.12699,248.55077 V 753.34276 H 621.36223 l 192.76476,339.89254 v 446.1049 C 685.40952,1463.6495 526.28101,1427.5041 433.80264,1302.9434 399.60108,1255.4341 375.58654,1200.8529 358.40539,1146.4887 332.38782,1066.4076 326.75998,986.88251 289.16532,862.16247 248.0092,696.43548 120.89617,582.21634 10.972405,459.21537 H 0 c 80.930411,110.18235 148.02613,231.99921 179.39355,358.37357 24.69725,99.5015 14.74037,143.7649 37.85371,314.48796 14.43054,106.5892 30.54577,173.69 49.6472,219.9193 98.29542,237.8958 354.98168,306.0188 396.14376,341.8821 31.63582,28.4409 46.05904,66.0864 50.14424,106.1216 h 137.42245 132.49193 c 14.36799,-132.1133 154.90086,-149.1588 246.93776,-212.2412 203.1525,-146.3121 227.1342,-294.1923 248.9975,-455.6818 17.0304,-127.4496 14.9395,-248.66754 54.7228,-372.33017 25.1757,-75.26023 72.2902,-177.6823 162.5245,-300.53136 h -10.9725 c -173.7209,194.15868 -199.6741,226.48195 -208.9309,240.56187 -54.3868,82.72383 -90.6282,228.76456 -113.6466,347.54026 -17.1845,88.6721 -42.3283,157.0955 -71.3137,209.6806 -83,152.7909 -262.6621,208.6882 -409.26339,282.3421 V 296.82815 c 0,-109.72039 21.57834,-180.67282 64.73501,-212.857492 43.15665,-32.18466 123.25438,-33.648509 240.28958,-4.389757 24.87,10.240579 40.9608,6.584834 48.2754,-10.970417 1.463,-17.555251 -11.7021,-29.99031 -39.498,-37.304983 -97.0475,-34.6598917 -204.8695,-50.771443 -283.07965,6.582648 z M 206.27485,764.23788 c 48.5925,157.55737 80.13441,278.53992 95.45735,365.36972 12.8388,72.7534 38.83366,142.6385 81.48486,207.4917 32.24864,49.0357 94.42572,129.097 226.82996,174.3358 87.77614,29.9906 166.77412,78.6323 236.99519,145.9275 0.88625,0.8862 0.87193,0.8705 1.0832,0.8636 0.38557,-0.2106 0.2653,-0.017 1.11174,-0.8638 54.19761,-51.9393 131.84161,-110.0003 236.99515,-145.9275 236.0136,-80.6382 295.1055,-296.7023 309.4122,-381.8275 17.34,-103.1716 57.1672,-241.41417 96.5549,-365.36972 -30.8536,151.1813 -53.2079,278.66142 -69.1248,387.31262 -17.9867,122.7776 -80.8271,308.1474 -288.4953,419.6135 -69.3612,35.4663 -193.98529,64.2561 -197.5669,160.8086 H 761.4598 C 759.84831,1672.3447 705.0062,1630.1513 626.5046,1600.3076 525.65286,1561.9665 451.01768,1499.8296 397.1875,1436.824 310.24253,1335.0582 284.20207,1216.3111 274.30213,1151.5494 Z m 605.65726,47.36484 V 979.29026 L 721.44186,811.60272 Z" />
</svg>
