<?xml version="1.0" encoding="UTF-8" standalone="no"?>
<svg
   width="6.357867"
   height="17.977583"
   version="1.1"
   id="svg566"
   sodipodi:docname="US9F12VARA.svg"
   inkscape:version="1.2.1 (9c6d41e410, 2022-07-14)"
   xmlns:inkscape="http://www.inkscape.org/namespaces/inkscape"
   xmlns:sodipodi="http://sodipodi.sourceforge.net/DTD/sodipodi-0.dtd"
   xmlns="http://www.w3.org/2000/svg"
   xmlns:svg="http://www.w3.org/2000/svg">
  <defs
     id="defs570" />
  <sodipodi:namedview
     id="namedview568"
     pagecolor="#ffffff"
     bordercolor="#000000"
     borderopacity="0.25"
     inkscape:showpageshadow="2"
     inkscape:pageopacity="0.0"
     inkscape:pagecheckerboard="0"
     inkscape:deskcolor="#d1d1d1"
     showgrid="false"
     inkscape:zoom="44.738932"
     inkscape:cx="2.0451986"
     inkscape:cy="8.9854626"
     inkscape:window-width="1920"
     inkscape:window-height="1017"
     inkscape:window-x="1072"
     inkscape:window-y="-8"
     inkscape:window-maximized="1"
     inkscape:current-layer="svg566" />
  <path
     style="fill:#000000;stroke:none"
     d="M 0.601971,2.97388 C 0.49964367,2.9994613 0.51883,3.095393 0.65953,3.261675 1.0816287,3.236093 1.3662257,3.200918 1.513321,3.15615 1.6604163,3.111382 1.7403593,3.1305683 1.75315,3.213709 1.7659407,3.2968497 1.717975,3.3320247 1.609253,3.319234 1.5005303,3.3064427 1.3246557,3.3192333 1.081629,3.357606 0.83860233,3.3959787 0.72987967,3.4471423 0.755461,3.511097 0.781043,3.575051 1.0752333,3.5718533 1.638032,3.501504 2.2008307,3.431154 2.6229297,3.4599333 2.904329,3.587842 3.1857283,3.7157507 3.419162,3.917207 3.60463,4.192211 3.790098,4.467215 3.7869003,5.0779797 3.595037,6.024505 H 5.705532 C 5.5520413,4.0419183 5.181106,2.8395753 4.592726,2.417476 4.567144,2.673294 4.4264443,2.9355073 4.170627,3.204116 L 4.036322,3.088998 C 4.2153947,2.8715527 4.304931,2.615735 4.304931,2.321545 c 0,-0.29419 -0.1534907,-0.831407 -0.460472,-1.611651 H 3.806087 c 0.2430267,0.780244 0.36454,1.2854837 0.36454,1.515719 0,0.230236 -0.089536,0.447681 -0.268609,0.652335 L 3.7869,2.705271 C 3.876436,2.6668983 3.9499837,2.5485827 4.007543,2.350324 4.0651017,2.1520653 3.9723677,1.6692097 3.729341,0.901757 v 0.920944 c 0,0.1406993 -0.051163,0.211049 -0.15349,0.211049 -0.8186167,0 -1.307868,0.089536 -1.467754,0.268609 C 1.948211,2.481431 1.7691387,2.6093397 1.57088,2.686085 1.3726213,2.7628303 1.0496517,2.858762 0.601971,2.97388 Z M 3.05782,2.513408 C 2.942702,2.5901533 2.782816,2.65091 2.578162,2.695678 2.373508,2.740446 2.271181,2.6796893 2.271181,2.513408 c 0,-0.1534907 0.102327,-0.2142473 0.306981,-0.18227 0.204654,0.031977 0.36454,0.092734 0.479658,0.18227 z M 3.479919,1.592465 C 3.4031737,1.4006017 3.2880557,1.1064113 3.134565,0.709894 H 3.096193 c 0.1279087,0.3965173 0.2174447,0.6907077 0.268608,0.882571 z m -0.249422,0 C 3.1921243,1.451765 3.1217743,1.221529 3.019447,0.901757 v 0.690708 z m 1.707582,4.930884 0.022352,11.434356 H 4.3080969 L 4.285745,6.523349 H 2.961888 C 3.2432873,5.359379 3.3104397,4.675067 3.163345,4.470413 3.0162497,4.265759 2.8563637,4.0962797 2.683687,3.961975 2.5110097,3.827671 2.0793173,3.8020893 1.38861,3.88523 0.69790267,3.9683707 0.352549,3.8180777 0.352549,3.434351 0.22463967,3.3576063 0.14789433,3.248884 0.122313,3.108184 -0.082341,2.8523667 -0.03117767,2.7052717 0.275803,2.666899 0.58278433,2.6285263 0.88976567,2.5485833 1.196747,2.42707 1.5037277,2.3055567 1.7659407,2.1424727 1.983386,1.937818 2.1496673,1.7203733 2.392694,1.611651 2.712466,1.611651 V 0.230236 c 0,-0.1407 0.063954,-0.21105 0.191863,-0.21105 0.076745,0 0.1534907,0.07035 0.230236,0.21105 0.1534907,0.21744467 0.275004,0.428494 0.36454,0.633148 V 0.230236 C 3.499105,0.07674533 3.5374777,0 3.614223,0 3.7932957,0 3.9212047,0.07674533 3.99795,0.230236 4.4456307,1.0360613 4.669471,1.554092 4.669471,1.784328 5.603205,2.219218 6.1660037,3.7988917 6.357867,6.523349 Z"
     id="path564"
     sodipodi:nodetypes="ccsssscssscccccsccsccscssssccssscccccccccccccccsssccssccssccsscccc" />
</svg>
