<?xml version="1.0" encoding="UTF-8" standalone="no"?>
<svg
   width="11.948"
   height="13.18"
   version="1.1"
   id="svg420"
   sodipodi:docname="US9F113VARE.svg"
   inkscape:version="1.2.1 (9c6d41e410, 2022-07-14)"
   xml:space="preserve"
   xmlns:inkscape="http://www.inkscape.org/namespaces/inkscape"
   xmlns:sodipodi="http://sodipodi.sourceforge.net/DTD/sodipodi-0.dtd"
   xmlns="http://www.w3.org/2000/svg"
   xmlns:svg="http://www.w3.org/2000/svg"><defs
     id="defs424" /><sodipodi:namedview
     id="namedview422"
     pagecolor="#ffffff"
     bordercolor="#000000"
     borderopacity="0.25"
     inkscape:showpageshadow="2"
     inkscape:pageopacity="0.0"
     inkscape:pagecheckerboard="0"
     inkscape:deskcolor="#d1d1d1"
     showgrid="false"
     inkscape:zoom="48.679951"
     inkscape:cx="6.1935149"
     inkscape:cy="6.7995139"
     inkscape:window-width="1920"
     inkscape:window-height="1137"
     inkscape:window-x="-8"
     inkscape:window-y="-8"
     inkscape:window-maximized="1"
     inkscape:current-layer="svg420" /><path
     style="fill:#000000;stroke:none"
     d="M 0.94118113,0.19442942 C 1.630729,-0.29268397 3.1240051,0.73879663 3.6735434,1.4966291 c 0.4853019,0.6692482 3.8050448,3.7205941 4.3399439,4.2264414 0.7807878,0.738381 2.3588887,3.3325605 3.1293987,4.8839175 0.506709,1.020214 0.966151,1.938763 0.556153,2.270485 C 10.960884,13.474701 5.1829649,12.18795 3.3287617,10.6512 1.7143644,9.405449 2.1231585,4.5992201 1.2798303,3.3842529 0.06693023,1.6368504 0.44019325,0.54833943 0.94118113,0.19442942 Z M 1.3318379,0.81058434 C 0.6936035,1.3135376 1.5482877,2.3030376 2.0183747,3.5270379 2.7946687,5.548332 2.3660871,8.9774879 3.8585014,9.9689312 6.8824293,11.977792 10.836535,12.454435 11.015707,12.214938 11.269024,11.959613 8.2429588,6.7108267 6.9467013,5.7439508 5.5272361,4.6851745 4.1747582,2.9057768 2.9723927,1.6953782 2.2787132,1.0731559 1.7301974,0.49666173 1.3318379,0.81058434 Z"
     id="path418"
     sodipodi:nodetypes="ssssscssssscscs" /></svg>
