<?xml version="1.0" encoding="UTF-8" standalone="no"?>
<svg
   width="1272.0159"
   height="1798.9307"
   version="1.1"
   id="svg1"
   xmlns="http://www.w3.org/2000/svg"
   xmlns:svg="http://www.w3.org/2000/svg">
  <defs
     id="defs1" />
  <path
     id="path1"
     style="fill:#000000;stroke:none;stroke-width:100"
     d="M 612.38671,0 C 532.06368,0 451.74099,4.6800917 371.41796,14.041016 210.77185,32.76293 86.966313,74.736202 0,139.96094 c 181.17981,183.59555 272.37416,398.59552 273.58204,645 -3.62361,57.97754 18.72059,75.49242 67.03514,52.54297 48.15774,-51.51756 105.78535,-99.87902 172.63477,-145.16602 19.63828,53.41316 17.97689,123.8916 20.79101,211.45313 7.5912,236.19948 -142.01311,595.09868 -15.93553,767.23438 113.12888,154.4567 444.0592,132.294 565.58197,117.375 121.5229,-14.919 187.7229,-91.2995 188.3223,-171.3809 0.6842,-91.398 -84.0617,-110.7533 -252.2656,-115.1582 -169.01658,-4.426 -280.5189,48.6876 -349.58203,-34.2129 -69.06303,-82.9002 39.40324,-312.0836 19.69336,-522.53121 -11.21017,-119.69356 3.18466,-199.95967 18.25781,-254.95312 67.21914,45.91136 125.97557,94.99659 176.04297,147.33984 47.10675,22.94945 68.84813,5.43457 65.22461,-52.54297 1.20786,-246.40448 92.40218,-461.40445 273.58198,-645 C 1137.2064,74.736202 1014.0035,32.76293 853.35743,14.041016 773.03436,4.6800917 692.70975,0 612.38671,0 Z m -0.22461,86.511719 c 66.28162,0 132.48656,4.530853 198.6172,13.589841 132.26118,18.11799 226.7771,43.48334 283.5468,76.09571 C 954.21375,318.7254 883.55358,496.88562 882.3457,710.67774 702.37382,535.53731 521.79701,535.53731 340.61718,710.67774 339.40938,496.88562 269.35374,318.7254 130.44921,176.19727 186.01103,143.5849 280.2247,118.21955 413.08985,100.10156 479.52244,91.042572 545.88049,86.511719 612.1621,86.511719 Z m 1.79297,696.812501 c 32.82937,290.01338 -94.26582,655.04488 5.32227,754.77538 99.5882,99.7307 321.75776,47.1062 488.52736,46.4453 71.7825,-0.2847 72.1526,73.4981 9.8906,116.3223 -64.515,44.3737 -381.2028,82.454 -508.79687,-38.1524 -127.59417,-120.6063 -9.86584,-492.7061 5.05664,-879.39058 z" />
</svg>
