<?xml version="1.0" encoding="UTF-8" standalone="no"?>
<svg
   width="635"
   height="1800"
   id="svg2"
   sodipodi:version="0.32"
   inkscape:version="1.2.1 (9c6d41e410, 2022-07-14)"
   sodipodi:docname="US9F25VARB.svg"
   inkscape:output_extension="org.inkscape.output.svg.inkscape"
   version="1.0"
   xmlns:inkscape="http://www.inkscape.org/namespaces/inkscape"
   xmlns:sodipodi="http://sodipodi.sourceforge.net/DTD/sodipodi-0.dtd"
   xmlns="http://www.w3.org/2000/svg"
   xmlns:svg="http://www.w3.org/2000/svg"
   xmlns:rdf="http://www.w3.org/1999/02/22-rdf-syntax-ns#"
   xmlns:cc="http://creativecommons.org/ns#"
   xmlns:dc="http://purl.org/dc/elements/1.1/">
  <metadata
     id="metadata9">
    <rdf:RDF>
      <cc:Work
         rdf:about="">
        <dc:format>image/svg+xml</dc:format>
        <dc:type
           rdf:resource="http://purl.org/dc/dcmitype/StillImage" />
      </cc:Work>
    </rdf:RDF>
  </metadata>
  <defs
     id="defs7">
    <inkscape:perspective
       sodipodi:type="inkscape:persp3d"
       inkscape:vp_x="0 : 1179.1895 : 1"
       inkscape:vp_y="0 : 1000 : 0"
       inkscape:vp_z="5.8304138 : 1179.1895 : 1"
       inkscape:persp3d-origin="2.9152069 : 1178.1585 : 1"
       id="perspective11" />
  </defs>
  <sodipodi:namedview
     inkscape:window-height="1137"
     inkscape:window-width="1920"
     inkscape:pageshadow="2"
     inkscape:pageopacity="0.0"
     guidetolerance="10.0"
     gridtolerance="10.0"
     objecttolerance="10.0"
     borderopacity="1.0"
     bordercolor="#666666"
     pagecolor="#ffffff"
     id="base"
     showgrid="false"
     inkscape:zoom="0.49555556"
     inkscape:cx="898.99103"
     inkscape:cy="900"
     inkscape:window-x="-8"
     inkscape:window-y="-8"
     inkscape:current-layer="svg2"
     inkscape:showpageshadow="2"
     inkscape:pagecheckerboard="0"
     inkscape:deskcolor="#d1d1d1"
     inkscape:window-maximized="1" />
  <path
     id="path9288"
     style="color:#000000;fill:#000000;stroke-width:3.79665;stroke-linecap:round;stroke-linejoin:round;-inkscape-stroke:none"
     d="M 441.54894,2.7513431 C 390.08276,40.736844 372.25343,118.71852 331.69258,176.01842 286.166,240.33335 254.85127,316.15101 235.21843,393.01548 c -6.61886,79.42468 23.33874,158.43999 56.80933,229.06707 72.71202,106.89816 115.79543,240.26611 88.69912,369.93307 -23.52839,154.63878 -54.68201,308.66268 -109.67013,455.39028 -21.85905,80.6158 -99.33139,130.2181 -169.58302,165.3008 -113.872517,79.4125 -116.330197,88.1479 -59.823537,138.2122 80.660527,49.612 184.375717,60.2684 273.592217,27.6594 64.38924,-14.8719 142.66153,-52.2908 144.06473,-129.4559 8.0055,-52.139 -9.6339,-145.0428 19.3397,-170.3523 72.4841,33.5646 130.9324,-30.4954 104.2005,-102.6819 -26.911,-130.0182 -25.0637,-264.5543 1.5495,-394.53916 4.0121,-72.64071 50.1571,-145.86632 40.363,-216.55174 -62.0057,-98.51268 -140.3529,-197.19172 -152.846,-317.13549 -11.3895,-120.39514 63.2258,-224.21616 113.3476,-327.093 28.2968,-37.270746 64.9297,-123.5512679 -12.9098,-114.5430254 z m 21.1348,61.1240969 82.8906,2.205386 C 488.32324,182.80625 406.2342,298.71451 410.92591,434.60606 c 4.61605,133.64391 88.20563,245.33499 156.86723,353.49753 -51.3898,187.95066 -87.9415,387.38431 -47.0907,581.30201 16.3107,43.5797 -3.6042,72.6709 -45.9768,42.7669 -94.32739,-22.0029 -62.81633,116.9255 -74.50872,175.3316 -23.91707,27.6307 -99.37296,-6.2098 -133.47859,32.5959 -42.12589,-33.8529 46.25604,-85.8349 60.24571,-148.2838 31.79021,-141.9092 83.37041,-278.7274 105.4633,-422.6037 24.2722,-109.76212 23.7737,-226.81459 -22.02981,-331.13852 C 380.57514,637.64118 319.77936,571.59989 305.04056,484.92076 273.74599,415.2408 315.80458,347.81377 344.03939,285.86026 370.69613,204.93917 439.09694,145.68882 462.68374,63.87544 Z M 208.47862,1619.5502 c 32.77508,12.8363 38.27656,103.9929 75.08504,39.4099 32.45703,-34.7561 165.51408,-33.6438 92.85022,30.2547 -73.99994,37.491 -164.88628,64.1019 -244.74165,35.0213 -39.838527,-3.517 -71.874897,-29.9741 -16.4157,-47.4331 32.42132,-16.859 64.76455,-33.9388 93.22209,-57.2528 z"
     sodipodi:nodetypes="csccccccccccccccccccccccccsccccccccccc" />
</svg>
