<?xml version="1.0" encoding="UTF-8" standalone="no"?>
<svg
   width="648.42395"
   height="1800"
   version="1.1"
   id="svg360"
   xmlns="http://www.w3.org/2000/svg"
   xmlns:svg="http://www.w3.org/2000/svg">
  <defs
     id="defs364" />
  <path
     style="fill:#000000;stroke:none;stroke-width:109.743"
     d="m 366.33203,220.98414 13.18203,19.77309 c 4.39403,-10.25272 14.64674,-15.37908 30.75814,-15.37908 20.50543,1.46463 43.57405,1.83081 69.20588,1.09853 25.63182,-0.73235 46.50345,-30.39201 62.61485,-88.97896 -106.92122,24.89948 -161.11418,49.79892 -162.57887,74.69832 z M 258.67842,436.29117 c 120.10332,2.9294 190.77383,-12.44966 212.01153,-46.13721 21.23787,-33.68749 8.50231,-73.95047 11.43165,-138.39618 -5.37138,1.0863 -13.66809,0.48681 -30.10619,-1.11401 -25.30203,-2.46403 -44.3064,-3.29556 -58.22082,5.49252 -13.9144,8.78803 -26.73028,4.39398 -38.44763,-13.18211 -33.68755,24.89948 -66.64271,41.0109 -98.86549,48.33427 20.50543,33.68755 30.02579,65.91041 28.56109,96.66855 h -10.98507 c 0,-24.89946 -6.59104,-45.03875 -19.77308,-60.41786 -13.18206,-15.37905 -23.80095,-29.65963 -31.85668,-42.84175 -8.05573,-13.18205 -13.54826,-30.02579 -16.4776,-50.53122 33.68755,-4.39405 83.4865,-0.73235 149.39683,10.98507 l -21.97013,-37.34921 10.98507,-6.59107 c -1.4647,-29.29344 -10.98511,-50.53118 -28.56119,-63.71324 -27.82881,13.18206 -55.65762,14.64672 -83.48644,4.39401 -5.85867,26.3641 -13.91437,46.86953 -24.16709,61.51629 38.08153,-8.78809 79.0924,-3.66172 123.03259,15.37907 v 10.98506 c -46.86953,-16.11137 -93.73911,-17.57605 -140.6087,-4.394 -2.92934,42.47557 -17.57608,103.9919 -43.94017,184.54899 23.43477,13.18205 33.3213,27.46259 29.65961,42.84164 -3.6617,15.37911 -12.08355,23.80097 -25.26561,25.2656 -13.18205,1.46471 -20.50543,-2.56312 -21.97013,-12.08348 -1.4647,-9.52036 -4e-5,-15.74521 4.394,-18.67455 4.39405,-2.92941 4.76023,-6.22496 1.09853,-9.88665 -3.66169,-3.6617 -10.61889,1.09853 -20.87161,14.28065 0,21.97006 16.84375,37.34914 50.53124,46.13723 21.97012,-7.32338 39.54622,-7.32338 52.72828,0 26.36417,0 40.27858,-20.50547 41.74321,-61.51641 z m -30.75815,-184.54888 10.98506,26.36415 59.31935,-26.36415 -2.19707,2.19695 z M 517.92581,152.8768 c -16.11145,2.92934 -34.05373,8.788 -53.8268,17.57602 -19.77309,8.78809 -42.10936,21.97017 -67.00883,39.54626 1.46463,4.39405 12.08352,6.59107 31.85667,6.59107 19.77309,0 35.15216,-0.36618 46.13721,-1.09853 10.985,-0.73236 19.0407,-4.76023 24.1671,-12.0836 5.12638,-7.32338 8.4219,-13.18208 9.88653,-17.57612 1.46471,-4.39398 -2.19694,-1.83078 -10.98495,7.68957 -8.78809,9.52038 -20.87168,13.54824 -36.25079,12.08361 -15.37904,-1.46471 -18.30838,-6.22493 -8.78801,-14.28066 9.52036,-8.05565 31.12432,-20.87154 64.81187,-38.44762 z m -250.45928,96.66844 c 7.32331,2.92934 8.78798,8.0557 4.39401,15.37908 -2.92934,7.32337 -8.78806,9.5204 -17.57613,6.59106 -8.78801,-4.39405 -10.98503,-10.25276 -6.59106,-17.57614 4.39404,-7.32337 10.98511,-8.78804 19.77318,-4.394 z m 15.37897,239.47432 c -17.57603,35.15211 -35.88444,54.19284 -54.92523,57.12218 -101.06252,0 -151.593782,-13.91441 -151.593782,-41.74322 -8.78801,-8.78801 -13.18202,-24.16707 -13.18202,-46.13722 0,-20.50542 10.98503,-40.27854 32.95509,-59.31934 27.828812,-79.09238 41.010912,-125.22959 39.546272,-138.41165 -1.4647,-13.18205 -0.73238,-43.23092 2.19696,-66.66568 C -17.664152,130.23903 -10.510896,-18.031679 12.398724,3.9946678 49.988834,40.135519 106.02356,98.563107 201.55612,108.93652 c 7.32338,-8.78801 20.87161,-9.154193 40.64469,-1.09852 19.77315,8.05573 34.78609,7.68959 45.0388,-1.09842 10.25271,-8.788093 29.29348,-10.252803 57.12229,-4.39412 C 516.79701,77.607959 512.28023,20.129885 545.84943,0.74866969 561.87543,-8.5039539 583.45833,70.117999 524.51673,119.92159 l 68.1074,-17.57613 -32.9551,101.06256 c -6.74932,20.69795 -31.91797,33.77868 -32.23608,44.34854 -2.77247,92.11967 14.13252,144.7125 -12.80272,180.84514 -30.02582,40.27855 -64.81181,60.41786 -104.35803,60.41786 v 987.28934 c 133.41423,0 64.44132,-1.6509 238.15175,-1.6509 v 81.2894 l -238.15175,1.3675 2.01794,242.0552 h -72.50136 l -2.01794,-242.0552 H 96.099558 v -81.2894 c 236.446352,0 153.084232,0.2834 241.671282,0.2834 V 489.01956 Z"
     id="path358" />
</svg>
