<?xml version="1.0" encoding="UTF-8" standalone="no"?>
<svg
   width="1796.214"
   height="1617.8185"
   id="svg2434"
   version="1.1"
   xmlns="http://www.w3.org/2000/svg"
   xmlns:svg="http://www.w3.org/2000/svg"
   xmlns:rdf="http://www.w3.org/1999/02/22-rdf-syntax-ns#"
   xmlns:cc="http://creativecommons.org/ns#"
   xmlns:dc="http://purl.org/dc/elements/1.1/">
  <metadata
     id="metadata2441">
    <rdf:RDF>
      <cc:Work
         rdf:about="">
        <dc:format>image/svg+xml</dc:format>
        <dc:type
           rdf:resource="http://purl.org/dc/dcmitype/StillImage" />
      </cc:Work>
    </rdf:RDF>
  </metadata>
  <defs
     id="defs2439" />
  <path
     style="fill:#000000;stroke:none;stroke-width:125.374"
     d="m 1571.5846,383.35715 c -44.0445,4.62344 -96.8982,20.8054 -158.5612,48.54617 -61.6631,27.74062 -129.9327,69.3517 -204.8085,124.83334 4.4043,13.8702 36.3365,20.8053 95.7975,20.8053 h 138.7414 c 33.0333,0 57.2581,-12.71438 72.6739,-38.14335 15.4155,-25.42884 26.4271,-45.07868 33.0337,-58.94913 1.9822,-4.16105 2.3783,-6.24163 1.191,-6.24163 -2.7746,0 -14.1824,11.32758 -34.2228,33.98265 -25.0505,28.31847 -56.8453,42.47778 -95.3848,42.47778 -5.5052,0 -11.1483,-0.28836 -16.9299,-0.86634 -46.2488,-4.62419 -55.0579,-20.80629 -26.4286,-48.54679 28.6295,-27.74076 93.5952,-67.04018 194.8983,-117.898 z m 72.6742,-55.48138 c -44.0444,184.93803 -105.7074,279.71873 -184.9885,284.34204 -26.4275,1.54122 -51.8758,2.31177 -76.3455,2.31177 -48.9382,0 -93.9614,-3.08234 -135.0697,-9.24663 -44.0448,0 -74.8762,16.18198 -92.4944,48.54621 l -39.6401,-55.48155 39.6401,-27.74063 c 4.4044,-78.59858 167.3707,-159.50921 488.8981,-242.73121 z M 896.04614,695.44035 842.8136,720.2753 v 0 c 3.3999,-9.77188 2.53155,-18.05007 -2.60529,-24.83495 z m -137.08896,0 c -8.71492,22.87068 -2.34151,41.21627 19.12175,55.03626 v 0 l -45.54884,21.25027 -33.03332,-76.28653 z m -5.13786,-64.72871 c -45.02389,0 -85.15392,3.08173 -120.38982,9.24771 8.80869,60.1046 25.32568,112.1185 49.5503,156.04141 24.22475,43.92251 56.15703,89.00112 95.79759,135.23555 39.63995,46.23488 59.46079,108.65149 59.46079,187.24999 h 33.03358 c 4.40453,-97.093 -24.22437,-196.49722 -85.88762,-298.21315 96.89863,-27.74049 195.99947,-78.59852 297.30276,-152.57381 -129.1978,-24.65838 -238.82042,-36.9877 -328.86758,-36.9877 z M 963.76561,327.87577 c 52.85399,41.61081 81.48349,108.651 85.88799,201.11988 l -33.034,27.74101 66.0673,110.96268 c 25.6493,32.9081 51.2992,49.36196 76.949,49.36196 13.9907,0 27.9816,-4.89592 41.9723,-14.68598 25.0359,-17.52064 58.417,-26.28083 100.1437,-26.28083 24.3406,0 51.521,2.98147 81.5412,8.94303 27.1611,5.3936 51.7527,8.09046 73.7753,8.09046 44.0447,0 77.8124,-10.78858 101.303,-32.36436 v 0 c -12.8626,533.95858 -97.2139,606.38288 -574.97704,612.93758 -58.80718,0 -122.60833,-0.8777 -191.40324,-2.6417 -4.40479,129.4566 -46.24768,196.4969 -125.52867,201.1203 -21.62185,-15.1314 -47.17507,-22.6972 -76.65967,-22.6972 -24.57042,0 -51.87097,5.2544 -81.90158,15.7619 -101.30292,-23.1173 -151.95449,-71.6636 -151.95449,-145.6388 24.12896,-32.5649 42.18804,-48.8478 54.17761,-48.8478 3.33047,0 6.19263,1.2563 8.58628,3.7687 11.01102,11.5584 9.90998,21.9614 -3.30323,31.2083 -13.21374,9.2465 -17.61815,30.0525 -13.21349,62.4167 3.8539,28.3185 21.19659,42.4781 52.0277,42.4781 4.40453,0 9.08426,-0.2884 14.03945,-0.8651 39.64017,-4.6237 64.96622,-32.3641 75.97748,-83.2221 11.01104,-50.8578 -18.71929,-97.0922 -89.19084,-138.7034 83.68565,-249.66656 127.72988,-443.85134 132.13415,-582.55464 63.42476,-18.72507 126.84938,-28.08766 190.27412,-28.08766 77.519,0 155.03786,13.98578 232.55696,41.95789 v -34.6774 C 919.60532,543.3528 833.32123,522.79062 751.16115,522.79062 c -37.92018,0 -74.96185,4.38021 -111.1249,13.1405 30.83087,-46.23464 57.25795,-108.65124 79.28062,-187.24982 31.71213,11.09627 63.77666,16.64422 96.1934,16.64422 48.62566,0 98.04409,-12.48317 148.25534,-37.44975 z M 1628.0315,12.537103 C 1371.2301,134.64699 1343.4422,193.04209 1049.6536,216.91298 c -27.8064,17.11111 -59.92514,-10.56794 -84.13491,-10.56794 -39.3408,0 -68.55405,9.3019 -87.64034,27.906 -16.03214,15.62718 -35.93524,23.44066 -59.70877,23.44066 -21.94493,0 -47.1881,-6.65778 -75.72913,-19.97342 -29.73057,-13.87033 -54.78105,-20.80543 -75.15178,-20.80543 -20.37085,0 -30.4945,27.03295 -47.07315,20.80543 C 516.00125,198.57168 288.02987,102.88022 176.70588,35.626631 138.38647,12.476915 43.366369,-3.2392723 19.582466,3.0980515 -76.501801,68.04456 198.70203,355.80453 459.41447,429.16558 c 66.83846,32.90228 -41.80517,245.46899 -37.40049,287.07992 4.40427,41.61119 -33.03369,189.56183 -112.31432,443.8514 -70.47194,55.4813 -105.70782,117.8978 -105.70782,187.2496 0,69.352 13.21347,115.5864 39.64042,138.7036 0,87.8456 151.95489,131.7684 455.86451,131.7684 61.66261,-4.6239 116.71861,-62.4168 165.16798,-173.3795 l 8.33503,-31.3284 c 754.26462,12.0585 844.58472,-214.3964 824.11312,-870.2445 l 99.1009,-325.95312 -325.6158,79.16874 c 176.7428,-64.09011 318.3097,-360.041781 157.4335,-283.544617 z"
     id="path2436" />
</svg>
