<?xml version="1.0" encoding="UTF-8" standalone="no"?>
<!-- Created with Inkscape (http://www.inkscape.org/) -->

<svg
   width="1799.542"
   height="1531.7174"
   viewBox="0 0 1799.542 1531.7174"
   version="1.1"
   id="svg10448"
   xmlns="http://www.w3.org/2000/svg"
   xmlns:svg="http://www.w3.org/2000/svg">
  <defs
     id="defs10445" />
  <g
     id="layer1"
     transform="translate(21.765066,23.664041)">
    <path
       id="path11647"
       style="color:#000000;fill:#000000;stroke-width:0.974431;stroke-linecap:square;stroke-linejoin:round;-inkscape-stroke:none"
       d="M 842.17441,-23.315779 C 760.02606,-19.442743 724.53281,66.98618 703.91172,134.39937 672.1177,253.93437 644.09756,374.94683 592.07289,487.90672 572.10232,530.09307 562.21769,567.82107 547.66584,607.09757 466.44851,573.46407 374.34751,544.1279 327.22357,463.64871 298.19456,431.31664 268.65293,386.13583 219.5508,388.5128 151.88302,394.12363 85.802616,428.85995 36.882979,474.4607 -17.383664,520.98387 -45.85923,606.32092 4.3042357,666.43892 44.775428,723.87777 108.50336,770.57559 184.12299,762.78202 c 91.36738,-11.95575 181.52052,-69.02507 273.11295,-19.00523 3.03387,1.21263 5.96824,2.63073 8.98684,3.87489 -48.62294,65.79201 -110.63658,119.7143 -173.5763,171.19542 -44.72672,48.66644 -95.47252,97.4431 -120.26805,159.7211 -22.02467,68.0225 36.31113,127.0737 95.67507,148.694 173.66342,75.2136 366.54631,52.0316 550.38627,50.5772 138.89108,-2.159 278.93003,-8.5933 416.32963,16.0192 27.9178,4.1039 51.5538,6.0443 75.9904,3.0127 13.8106,53.8975 26.2619,108.6285 73.3621,144.9067 95.4767,89.7097 278.347,93.5525 356.7523,-20.621 49.1563,-73.178 58.9053,-198.2063 -31.5414,-244.9115 -70.6305,-37.0788 -154.1336,-10.8174 -227.0369,-41.8644 -0.583,-0.1486 -1.1297,-0.3803 -1.7109,-0.5329 -2.0694,-40.155 -24.0207,-77.7423 -55.8471,-106.5613 C 1309.9566,883.78985 1225.8872,718.69185 1145.8563,554.23276 1082.7882,384.46142 1009.5092,218.47002 951.5962,46.843282 932.23765,5.3075814 889.59094,-27.421645 842.17441,-23.315779 Z m 3.56847,67.709661 c 62.10499,10.137189 56.27115,91.376818 81.28128,136.399458 51.84539,140.57887 111.05954,278.42257 163.95564,418.524 86.93,173.30475 175.6143,349.06855 302.6885,496.95806 -35.2166,-19.9931 -69.1218,-42.9836 -104.9912,-61.4672 C 1060.6496,903.07929 833.00068,770.6269 604.78427,639.25761 656.50521,506.69399 718.2589,377.26908 746.87807,237.15431 772.43151,175.13801 772.12933,68.90667 845.74288,44.393882 Z M 219.05027,446.91399 c 65.58285,26.53194 87.58647,113.14999 153.20459,144.69354 74.64567,42.83775 158.98087,65.38274 230.6719,113.74013 270.3812,156.12461 540.10774,313.51744 810.89814,468.84994 72.3344,27.1856 148.2653,40.6609 225.2422,40.6845 81.1223,0.3819 97.4972,93.0613 65.7342,151.9256 -45.7472,101.359 -195.2991,104.0473 -271.9712,37.6374 -73.7831,-48.0598 -53.9221,-146.9249 -96.8988,-213.0103 -72.8549,-62.3098 -161.5619,-104.4179 -242.2774,-156.225 C 906.94183,925.47921 722.11392,811.97221 530.92541,710.24646 448.8962,669.28874 348.20019,641.65179 261.39236,685.7258 191.47871,718.69983 101.81517,710.58455 58.086379,640.63552 2.5931487,584.35376 70.287901,512.2938 120.9924,483.96331 c 30.40773,-16.9348 62.65582,-34.62991 98.05787,-37.04932 z M 522.7969,773.09348 c 101.9472,49.27875 196.99018,112.7665 296.0768,167.56414 156.7239,93.30108 315.8871,183.00128 468.1134,283.51958 0.5372,1.155 0.8889,2.4105 1.4065,3.576 -77.1797,1.3027 -153.5009,-24.0218 -231.2923,-19.3706 -190.22957,-6.0386 -380.66954,12.1533 -570.70855,1.8119 -84.04003,-12.8421 -179.1658,-21.7237 -244.13884,-82.2063 -18.43886,-62.2126 63.47954,-111.9637 97.30421,-159.58403 C 414.2587,910.08737 471.5019,848.62871 522.7969,773.09348 Z" />
  </g>
</svg>
