<?xml version="1.0" encoding="UTF-8" standalone="no"?>
<svg
   width="852.16443"
   height="1800.3051"
   version="1.1"
   id="svg1"
   xmlns="http://www.w3.org/2000/svg"
   xmlns:svg="http://www.w3.org/2000/svg">
  <defs
     id="defs1" />
  <path
     style="fill:#000000;stroke:none;stroke-width:99.8989"
     d="m 415.15943,1588.3121 h 149.99512 c 0,-61.3314 -24.66588,-91.997 -73.99762,-91.997 -50.665,0 -75.9975,30.6656 -75.9975,91.997 z m 63.99794,-1165.65318 11.99956,17.99941 c 3.99987,-9.33304 13.33291,-13.99956 27.99906,-13.99956 18.66604,1.33328 39.66535,1.66662 62.99794,1.00001 23.33266,-0.66668 42.33206,-27.66578 56.99806,-80.99731 -97.33004,22.66593 -146.66175,45.33182 -147.99506,67.99767 z m -97.99684,195.9935 c 109.32976,2.66663 173.66097,-11.33289 192.99361,-41.99857 19.33279,-30.66567 30.33255,-75.33087 32.99905,-133.9956 -10.66638,9.33304 -27.33252,11.6663 -49.99845,6.99978 -22.66593,-4.66652 -40.33202,-2.9999 -52.99827,4.99985 -12.66625,7.9997 -24.33252,3.99982 -34.99879,-11.99963 -30.6657,22.66593 -60.66471,37.33209 -89.99704,43.99849 18.66605,30.66574 27.33242,59.99815 25.9991,87.99719 h -9.99968 c 0,-22.66592 -5.99981,-40.99866 -17.99938,-54.99822 -11.99958,-13.99948 -21.66594,-26.99906 -28.99906,-38.99874 -7.3331,-11.9996 -12.33296,-27.33244 -14.99952,-45.99851 30.66569,-3.99984 75.99756,-0.6666 135.99558,9.99971 l -19.99935,-33.99888 9.99968,-5.99987 c -1.33333,-26.66569 -9.99972,-45.99835 -25.99919,-57.99795 -25.33251,11.9996 -50.66501,13.33289 -75.99751,3.99985 -5.33313,23.9992 -12.66621,42.66525 -21.99924,55.99813 34.66552,-7.99976 71.99761,-3.33324 111.99628,13.99956 v 9.99961 c -42.66524,-14.6661 -85.33049,-15.99938 -127.99578,-3.99985 -2.66657,38.66544 -15.99946,94.6636 -39.99863,167.99449 21.33261,11.9996 30.33231,24.99915 26.99907,38.99864 -3.33322,13.99962 -10.99962,21.66603 -22.99923,22.99925 -11.99958,1.33335 -18.66603,-2.33315 -19.99935,-10.99953 -1.33332,-8.66636 -3e-5,-14.33282 3.99986,-16.99938 3.99987,-2.66663 4.33321,-5.66657 0.99999,-8.9998 -3.33323,-3.33324 -9.66636,0.99998 -18.99937,12.99964 0,19.9993 15.3328,33.99881 45.99844,41.99858 19.99935,-6.66647 35.99884,-6.66647 47.99844,0 23.99923,0 36.66548,-18.66609 37.99874,-55.99824 z m -27.99907,-167.99438 9.99968,23.99917 53.99827,-23.99917 -1.99998,1.99983 z m 263.99133,-89.99711 c -14.6662,2.66663 -30.999,7.99979 -48.99838,15.99948 -17.9994,7.99976 -38.33204,19.99936 -60.99798,35.9988 1.33325,3.99992 10.9996,5.99987 28.99906,5.99987 17.99938,0 31.99892,-0.33334 41.99861,-1.00001 9.99961,-0.66661 17.33266,-4.33315 21.99929,-10.99962 4.6664,-6.66648 7.6664,-11.99964 8.9996,-15.99949 1.3334,-3.99983 -1.9998,-1.66658 -9.9996,6.99979 -7.99972,8.66637 -18.9994,12.33294 -32.99896,10.99972 -13.9995,-1.33336 -16.66607,-5.66659 -7.9997,-12.99975 8.66636,-7.33301 28.33241,-18.99928 58.99806,-34.99879 z m -227.99247,87.99708 c 6.66639,2.66657 7.99969,7.3331 3.99986,13.99957 -2.66656,6.66647 -7.99973,8.66642 -15.9995,5.99986 -7.9997,-3.99992 -9.99965,-9.3331 -5.99983,-15.99957 3.99988,-6.66642 9.99971,-7.9997 17.99947,-3.99986 z m 13.99945,217.99295 c -15.9994,31.99889 -32.66553,49.33162 -49.99831,51.99819 -91.99698,0 -137.99546,-12.66625 -137.99546,-37.99873 -7.99971,-7.99976 -11.99955,-21.99931 -11.99955,-41.99867 0,-18.66601 9.99965,-36.66541 29.99894,-53.99821 25.3325,-71.99761 37.33212,-113.9962 35.99886,-125.99581 -1.33331,-11.9996 -0.66668,-28.66569 1.99988,-49.99826 C 148.22373,362.0652 141.85224,317.3887 128.94492,256.47944 114.42601,187.96524 30.273535,51.216039 1.0406268,19.23264 -2.5899932,9.115025 3.2794768,2.704147 18.649077,0 76.021149,15.345619 124.77464,107.00911 146.63853,139.36368 c 50.68652,75.00673 76.90141,183.97074 182.52371,181.2986 6.66646,-7.99969 18.99938,-8.33303 36.99877,-1.00001 17.99944,7.33309 31.66568,6.99977 40.99871,-0.99991 9.33301,-7.99975 26.66578,-9.33307 51.99829,-3.99995 89.33033,-29.33232 141.90088,-36.66718 160.47088,-87.07021 30.7035,-83.33521 120.54659,-186.567306 190.36038,-217.988286 30.66181,-13.79991 61.26967,17.061052 27.2343,29.853281 C 784.21488,59.38057 696.07489,183.77923 687.68409,237.34708 c -11.1379,71.10528 -29.5769,95.61593 -64.5314,93.31481 l 61.9979,-15.99948 -29.999,91.99704 c 0,99.99672 -13.6662,168.32781 -40.9988,204.9933 -27.33234,36.66548 -58.99796,54.99821 -94.9968,54.99821 v 757.66654 c 77.33079,30.6656 115.9962,84.6639 115.9962,161.9947 h 111.9963 v 73.9974 h -109.9963 c -26.6657,93.3304 -65.33123,139.9955 -115.99623,139.9955 l 41.9986,-139.9955 H 415.15943 l 37.99873,139.9955 c -50.665,0 -86.66379,-46.6651 -107.9964,-139.9955 H 233.16539 v -73.9974 h 111.99637 c 0,-75.9976 35.9988,-129.9957 107.9964,-161.9947 V 666.65096 Z"
     id="path1" />
</svg>
