<?xml version="1.0" encoding="UTF-8" standalone="no"?>
<svg
   width="1330"
   height="1817.5265"
   id="svg2440"
   sodipodi:version="0.32"
   inkscape:version="1.2.2 (732a01da63, 2022-12-09)"
   sodipodi:docname="US9F5VARA.svg"
   inkscape:output_extension="org.inkscape.output.svg.inkscape"
   version="1.1"
   xmlns:inkscape="http://www.inkscape.org/namespaces/inkscape"
   xmlns:sodipodi="http://sodipodi.sourceforge.net/DTD/sodipodi-0.dtd"
   xmlns="http://www.w3.org/2000/svg"
   xmlns:svg="http://www.w3.org/2000/svg"
   xmlns:rdf="http://www.w3.org/1999/02/22-rdf-syntax-ns#"
   xmlns:cc="http://creativecommons.org/ns#"
   xmlns:dc="http://purl.org/dc/elements/1.1/">
  <metadata
     id="metadata2447">
    <rdf:RDF>
      <cc:Work
         rdf:about="">
        <dc:format>image/svg+xml</dc:format>
        <dc:type
           rdf:resource="http://purl.org/dc/dcmitype/StillImage" />
      </cc:Work>
    </rdf:RDF>
  </metadata>
  <defs
     id="defs2445">
    <inkscape:perspective
       sodipodi:type="inkscape:persp3d"
       inkscape:vp_x="0 : 1808.5377 : 1"
       inkscape:vp_y="0 : 1000 : 0"
       inkscape:vp_z="11.191835 : 1808.5377 : 1"
       inkscape:persp3d-origin="5.5959177 : 1805.5414 : 1"
       id="perspective2449" />
  </defs>
  <sodipodi:namedview
     inkscape:window-height="1137"
     inkscape:window-width="1920"
     inkscape:pageshadow="2"
     inkscape:pageopacity="0.0"
     guidetolerance="10.0"
     gridtolerance="10.0"
     objecttolerance="10.0"
     borderopacity="1.0"
     bordercolor="#666666"
     pagecolor="#ffffff"
     id="base"
     showgrid="false"
     inkscape:zoom="0.24258858"
     inkscape:cx="546.19225"
     inkscape:cy="1492.2384"
     inkscape:window-x="-8"
     inkscape:window-y="-8"
     inkscape:current-layer="svg2440"
     inkscape:showpageshadow="2"
     inkscape:pagecheckerboard="0"
     inkscape:deskcolor="#d1d1d1"
     inkscape:window-maximized="1" />
  <path
     style="fill:#000000;stroke:none;stroke-width:104.543"
     d="m 360.98314,783.18256 3.88712,23.32282 -34.98419,34.98438 c -7.77431,36.27985 -29.80141,66.08121 -66.08133,89.40405 l -69.96857,11.66136 c 0,-67.37694 41.46281,-106.2483 124.38844,-116.6141 z m 361.50391,-62.19411 c -62.19431,-2.59149 -93.29144,18.13988 -93.29144,62.19411 h -54.41988 c 0,-75.15132 36.27995,-114.02269 108.83989,-116.6141 51.82843,-72.5599 108.77173,-98.13848 103.58893,-160.33267 -152.89412,152.89406 -245.08843,186.25756 -273.59404,186.25756 -23.32285,0 -30.53997,-7.25977 -69.84048,-50.69281 -24.2719,-16.02788 -71.1839,-3.5907 -98.33548,0 -27.15158,3.5907 -54.4199,28.65504 -69.96846,59.7522 -31.09708,46.64564 -57.65917,84.2213 -79.68625,112.72698 C 173.7527,842.78539 161.44342,901.09246 158.852,989.20086 94.066339,1072.1265 61.673499,1122.6594 61.673499,1140.7994 l 50.532861,-46.6456 c 31.09709,12.957 42.75849,28.5056 34.98417,46.6456 -7.77423,18.14 -17.49206,19.4357 -29.15349,3.8869 -11.66143,-15.5486 -22.675001,-2.5917 -33.040721,38.8713 2.59152,10.3654 11.6615,20.7315 27.210041,31.0971 20.73137,-12.9571 40.16704,-31.0971 58.30699,-54.4199 18.14003,-23.3229 32.39288,-32.3928 42.75853,-27.2099 10.36575,5.1832 11.01358,11.6614 1.94356,19.4357 -9.06995,7.7738 -18.78778,16.1964 -29.1535,25.2664 -10.36576,9.0702 -19.4357,22.6749 -27.20994,40.8148 18.13996,2.5917 38.87136,-2.5915 62.19422,-15.5484 23.32279,-12.9572 67.37701,-41.463 132.16267,-85.517 67.37702,-7.7739 123.09264,-50.5328 167.14686,-128.27574 h 42.75852 c 103.72736,141.99834 73.06915,493.16154 199.58915,760.40824 l 451.70538,-4.9641 C 1113.3432,1503.6423 813.18675,796.13976 722.48705,720.98845 Z m 38.8712,-50.53287 c 103.6571,88.10845 460.32975,887.34692 576.94385,1143.89812 l -613.59354,0.03 C 662.51425,1697.7697 620.12563,1571.6237 601.98567,1422.6168 583.8457,1273.6099 556.63573,1162.8265 520.35575,1090.2665 c -44.05422,51.8285 -95.88273,77.7428 -155.48549,77.7428 -57.01137,38.8714 -119.20554,73.8557 -186.58256,104.9528 -64.78566,10.3657 -106.248481,-12.9571 -124.388441,-69.9685 -46.6456403,-25.9142 -60.8984801,-57.0114 -42.75852,-93.2914 25.91427,-57.0114 57.01136,-112.7271 93.291281,-167.14703 0,-72.55984 14.25284,-125.68404 42.75851,-159.37261 28.50569,-33.68851 27.81624,-39.34306 43.36479,-67.84874 C 115.40401,562.43977 8.6297787,478.53749 8.6297787,398.20327 8.6297787,317.86914 76.810689,181.86298 102.48846,122.36918 138.59434,38.714118 242.76081,-45.812678 215.0892,38.267309 187.94019,120.75935 103.03748,334.36172 133.43802,389.64159 c 49.34429,89.72687 100.08642,165.05059 151.90311,189.5345 35.56437,16.80452 70.95527,-4.61386 109.4692,-4.61386 55.4683,0 75.77058,9.67151 90.13247,-2.69706 C 524.49289,537.80436 621.93052,461.72165 652.82039,377.19175 682.96216,294.709 596.82786,99.593665 578.34093,30.651076 559.593,-39.264848 649.22187,56.701447 678.84398,107.41512 c 47.59377,81.48162 99.37567,202.36525 92.71917,263.81169 -5.3182,49.09345 -65.0089,125.25278 -108.84676,164.74237 L 814.41445,405.17017 c 18.1399,46.64572 27.2099,93.29139 27.2099,139.93702 -15.9107,52.75845 -36.2119,68.33703 -80.2661,125.34839 z"
     id="path2442"
     sodipodi:nodetypes="ccccccccccccsczcscccssccsssscsccccccccccsccccscscsssssssssscccc" />
</svg>
