<?xml version="1.0" encoding="UTF-8" standalone="no"?>
<svg
   width="768.92084"
   height="1800.975"
   version="1.1"
   id="svg1"
   xmlns="http://www.w3.org/2000/svg"
   xmlns:svg="http://www.w3.org/2000/svg">
  <defs
     id="defs1" />
  <path
     id="path1"
     style="fill:#000000;stroke:none;stroke-width:98.7653"
     d="M 750.00473,0.02284328 C 698.16284,2.0978053 622.16268,162.16931 605.72248,199.93045 c -17.43969,40.05686 -96.45103,76.12558 -184.76758,105.125 -25.045,-5.27258 -42.18106,-3.95394 -51.4082,3.95508 -9.2271,7.90892 -22.73802,8.23814 -40.5332,0.98828 -17.79512,-7.24986 -29.98734,-6.92064 -36.57813,0.98828 C 53.22308,236.83107 126.13566,0.87544828 5.7117147,0.95057828 -2.3281513,2.7748503 -2.0675683,22.436476 7.6863237,26.655657 55.003012,100.83739 49.185198,161.63288 97.132635,265.58084 121.70329,318.84893 161.2787,366.35128 235.09553,397.98709 c -2.63594,21.09051 -3.29673,37.56628 -1.97852,49.42968 1.31812,11.86341 -10.54484,53.38588 -35.58984,124.56641 -19.77233,17.13609 -29.65821,34.93057 -29.65821,53.38477 1e-5,19.7724 3.95435,33.61452 11.86329,41.52343 0,25.04501 45.47675,37.56641 136.42968,37.56641 17.1361,-2.63631 33.61185,-19.77245 49.42969,-51.4082 h 29.78906 v 695.64191 h -287.375 v 65.248 h 287.375 l -1.60706,387.0355 h 65.24805 l 1.60706,-387.0355 h 273.49805 v -65.248 H 460.62873 V 653.04959 c 35.59031,0 86.54028,-18.12366 113.5625,-54.37305 27.02228,-36.24931 40.5332,-103.80606 40.5332,-202.66797 l 29.65821,-90.95312 -61.29297,15.81836 C 651.63388,264.193 656.26371,234.97966 667.15412,200.83084 685.56872,143.08851 710.32404,78.336953 757.34652,35.716203 772.02326,22.41335 772.33422,5.4384353 760.58871,1.5599533 756.99012,0.37166428 753.46085,-0.11548672 750.00473,0.02284328 Z M 395.25178,336.69217 c 15.8179,11.86339 24.38493,30.97672 25.70312,57.33984 l -9.88672,5.93164 18.94141,32.19922 c 0.27884,-0.20485 0.55308,-0.35827 0.83203,-0.56445 10.54523,15.81793 22.07907,19.77221 34.60156,11.86328 12.52252,-7.90901 29.98779,-9.55502 52.39649,-4.94141 22.40872,4.61359 38.88636,2.30527 49.43164,-6.92187 -2.63631,57.99899 -13.51163,102.15893 -32.625,132.47656 -19.11323,30.31768 -82.71372,44.15782 -190.80274,41.52148 -1.31812,36.90849 -13.84148,55.36328 -37.56835,55.36328 -11.86341,-6.5908 -27.68075,-6.5908 -47.45313,0 -30.31763,-7.90898 -45.47656,-21.7511 -45.47656,-41.52343 9.22714,-11.86347 15.48779,-16.14697 18.7832,-12.85157 3.29539,3.29541 2.96618,6.26209 -0.98828,8.89844 -3.95449,2.6363 -5.27331,8.23866 -3.95508,16.80664 1.31819,8.56797 7.91003,12.19127 19.77344,10.87305 11.86342,-1.31812 19.44288,-8.8976 22.73828,-22.73828 3.2954,-13.84063 -5.60284,-26.69128 -26.69336,-38.55469 23.72683,-72.49871 36.90859,-127.8613 39.54492,-166.08789 42.1811,-11.86341 84.36193,-10.54659 126.54297,3.95312 v -9.88476 c -39.54473,-17.13605 -76.45249,-21.75081 -110.72461,-13.8418 9.22711,-13.18159 16.47546,-31.63645 21.74805,-55.36328 25.045,9.22711 50.09172,7.91027 75.13672,-3.95312 z m 34.75781,95.4707 c -0.51562,0.37878 -1.02382,0.66876 -1.53906,1.04297 0.83592,0.14672 1.52933,0.22145 2.37109,0.37109 z m -1.53906,1.04297 c -58.06967,-10.19249 -102.19459,-13.41398 -132.08203,-9.51563 2.6363,18.4542 7.58018,33.61316 14.83007,45.47656 7.24989,11.86347 16.80653,24.71603 28.66993,38.55665 11.86337,13.84069 17.79492,31.96432 17.79492,54.37304 h 9.88672 c 1.31819,-27.68132 -7.25087,-56.68036 -25.70508,-86.99804 28.23922,-6.41802 57.11621,-20.47513 86.60547,-41.89258 z m 170.43554,-96.51367 c -14.49972,52.72631 -33.28376,79.41936 -56.35156,80.07812 -23.06779,0.65906 -43.82704,0.32984 -62.28125,-0.98828 -14.4997,0 -23.72718,4.6127 -27.68164,13.83984 l -11.86328,-17.79492 11.86328,-7.9082 c 1.31818,-22.40863 50.08892,-44.81787 146.31445,-67.22656 z m -21.74804,13.83984 c -14.49979,2.63634 -30.64824,7.90944 -48.44336,15.81836 -17.79511,7.90901 -37.89794,19.77195 -60.30664,35.58984 1.31812,3.95447 10.87474,5.93164 28.66992,5.93164 17.79512,0 31.63724,-0.32952 41.52344,-0.98828 9.88613,-0.65876 17.13641,-4.28419 21.75,-10.875 4.61362,-6.59079 7.57836,-11.86387 8.89648,-15.81836 1.31822,-3.95445 -1.9778,-1.6461 -9.88672,6.92188 -7.90901,8.56797 -18.78235,12.19312 -32.62304,10.875 -13.84063,-1.31823 -16.47817,-5.60366 -7.91016,-12.85352 8.56797,-7.24985 28.0124,-18.78366 58.33008,-34.60156 z m -260.9961,88.97656 18.94727,0.61133 c -0.37083,0.49035 -0.81099,0.7963 -1.15234,1.36523 -3.91386,6.52316 -1.97288,11.74489 5.73437,15.68555 l -13.64453,6.06445 z m 40.13672,1.29492 18.85352,0.60743 -18.74024,8.32812 c 1.76549,-3.6549 1.74151,-6.63826 -0.11328,-8.93555 z" />
</svg>
