<?xml version="1.0" encoding="UTF-8" standalone="no"?>
<svg
   width="1790.4591"
   height="1795.4286"
   id="svg1333"
   version="1.1"
   xmlns="http://www.w3.org/2000/svg"
   xmlns:svg="http://www.w3.org/2000/svg"
   xmlns:rdf="http://www.w3.org/1999/02/22-rdf-syntax-ns#"
   xmlns:cc="http://creativecommons.org/ns#"
   xmlns:dc="http://purl.org/dc/elements/1.1/">
  <metadata
     id="metadata1340">
    <rdf:RDF>
      <cc:Work
         rdf:about="">
        <dc:format>image/svg+xml</dc:format>
        <dc:type
           rdf:resource="http://purl.org/dc/dcmitype/StillImage" />
        <dc:date>18/03/06</dc:date>
        <dc:creator>
          <cc:Agent>
            <dc:title>Serge Thomas</dc:title>
          </cc:Agent>
        </dc:creator>
        <dc:publisher>
          <cc:Agent>
            <dc:title>Serge Rosmorduc</dc:title>
          </cc:Agent>
        </dc:publisher>
        <dc:description>valeur HAt&#10;protome de lion tête empruntée à chapelle de Tout ankh Amon</dc:description>
        <cc:license
           rdf:resource="http://creativecommons.org/licenses/GPL/2.0/" />
      </cc:Work>
      <cc:License
         rdf:about="http://creativecommons.org/licenses/GPL/2.0/">
        <cc:permits
           rdf:resource="http://web.resource.org/cc/Reproduction" />
        <cc:permits
           rdf:resource="http://web.resource.org/cc/Distribution" />
        <cc:requires
           rdf:resource="http://web.resource.org/cc/Notice" />
        <cc:permits
           rdf:resource="http://web.resource.org/cc/DerivativeWorks" />
        <cc:requires
           rdf:resource="http://web.resource.org/cc/ShareAlike" />
        <cc:requires
           rdf:resource="http://web.resource.org/cc/SourceCode" />
      </cc:License>
    </rdf:RDF>
  </metadata>
  <defs
     id="defs1338" />
  <path
     id="path4"
     style="fill:#000000;stroke:none;stroke-width:94.4973"
     d="M 386.16406 0.05078125 C 335.72921 0.05078125 284.64807 23.461503 232.91992 70.285156 C 203.17625 81.991045 172.78492 109.06224 141.74805 151.49609 C 184.4238 195.39325 223.22025 222.46239 258.13672 232.70508 C 262.01631 253.19036 274.30296 281.72382 294.99414 318.30469 C 296.28734 414.87849 307.92568 494.99164 329.91016 558.64258 C 341.67566 592.70679 369.42974 659.89897 410.82617 755.35938 C 392.76871 755.29589 377.34536 755.484 358.15234 755.32031 C 71.92083 677.01329 5.3279947 836.17805 0 893.93359 C 12.388488 945.14554 142.98913 923.96605 213.78516 911.25977 C 282.83929 917.24961 376.91283 920.46587 484.25781 922.00391 C 505.02935 968.62453 526.22616 1016.1259 551.04883 1071.1406 C 613.12247 1217.4645 644.1582 1307.4549 644.1582 1341.1094 C 644.1582 1392.3227 615.70748 1507.1881 558.80664 1685.7031 C 558.80664 1695.9459 520.01019 1703.9929 442.41797 1709.8457 C 326.02969 1714.2355 267.83594 1732.5255 267.83594 1764.7168 C 267.83594 1783.7389 275.5949 1793.25 291.11328 1793.25 L 807.10156 1793.25 C 839.43163 1763.9852 857.53632 1739.1103 861.41602 1718.625 C 892.45278 1733.2574 909.26517 1753.0116 911.85156 1777.8867 C 917.02436 1801.2986 924.78322 1796.0011 935.12891 1791.6113 C 945.4746 1787.2216 950.64844 1792.5191 950.64844 1777.8867 C 941.59605 1738.3793 918.96357 1700.335 882.75391 1663.7539 L 944.82812 1367.4473 C 1070.2688 1363.0576 1179.5455 1340.3769 1272.6562 1299.4062 C 1324.3842 1312.5754 1363.1808 1305.9905 1389.0449 1279.6523 C 1414.9089 1253.314 1409.7351 1212.3433 1373.5254 1156.7402 C 1308.6405 1083.3241 1246.53 1003.6295 1186.8945 918.33398 C 1324.6898 916.52164 1454.6312 914.92773 1557.8398 914.92773 C 1557.8398 808.65744 1571.6385 617.30062 1774.1016 470.60156 C 1806.6997 264.75417 1833.6404 12.125225 1403.9961 2.6777344 C 1299.3671 0.35583673 1254.1469 32.420608 1266.1348 58.988281 C 1227.5072 72.849567 1187.8784 81.802807 1147.252 85.845703 C 1106.6264 89.888599 1071.3292 103.46022 1041.3594 126.5625 C 1011.3895 149.66468 978.08895 170.45767 941.45898 188.93945 C 904.82922 207.42123 883.18538 223.01452 876.52539 235.7207 C 864.5375 255.35768 874.52637 278.45987 906.49414 305.02734 C 906.49414 325.81922 917.15101 343.14653 938.46289 357.00781 C 943.79089 357.00781 949.11917 373.18027 954.44727 405.52344 C 959.77526 437.86651 980.4209 462.12304 1016.3848 478.29492 C 1059.0086 472.51913 1087.647 461.54648 1102.2988 445.375 C 1116.9508 429.20332 1135.2661 422.56132 1157.2441 425.44922 C 1179.2223 428.33692 1195.5393 444.21979 1206.1953 473.09766 C 1196.8713 501.97553 1205.5282 532.58447 1232.168 564.92773 C 1234.8322 589.18481 1222.1789 622.10529 1194.207 663.68945 C 1134.9404 680.36522 1082.8374 694.21615 1031.7168 705.9707 C 947.76124 598.14371 886.13792 531.95767 847.83789 509.25781 C 829.73301 466.82395 808.07294 433.16804 782.85547 408.29297 C 757.63809 383.41799 712.05099 352.69034 646.09766 316.10938 C 644.80446 229.77836 627.02367 155.15361 592.75391 92.234375 C 558.48394 29.315138 489.62036 -1.4125173 386.16406 0.05078125 z M 386.16406 43.947266 C 446.9446 43.947266 495.44073 70.28635 531.65039 122.96289 C 567.86005 175.63954 587.25735 256.84901 589.84375 366.5918 C 684.24756 388.54037 746.96899 436.828 778.00586 511.45312 C 783.17865 561.20338 772.83282 585.34601 746.96875 583.88281 C 721.10468 582.41951 700.73712 574.37067 685.86523 559.73828 C 670.99335 545.106 666.14361 550.5944 671.31641 576.20117 C 676.4892 601.80775 704.93982 632.90146 756.66797 669.48242 C 797.25246 698.18285 808.1371 722.9966 790.21289 744.04102 C 756.24542 747.02927 718.39294 749.15584 678.69336 750.95508 C 656.01767 737.25121 631.62803 716.17642 605.36328 687.04102 C 539.40995 613.87899 504.49288 558.27658 500.61328 520.23242 C 496.73369 482.18826 510.31264 447.07017 541.34961 414.87891 C 572.38648 382.68774 569.15325 377.56509 531.65039 399.51367 C 494.14753 421.46225 474.42613 453.65403 472.48633 496.08789 C 470.54653 538.52185 485.41809 584.97919 517.10156 635.46094 C 537.93888 668.66145 573.40183 708.30957 620.80859 753.21875 C 576.99863 754.51325 528.29381 755.20604 475.4375 755.40625 C 429.13885 658.91491 397.77814 585.75576 383.25391 538.88867 C 365.79562 482.55403 357.71451 430.24193 359.00781 381.95508 C 360.30091 333.66823 351.57179 298.18408 332.82031 275.50391 C 314.06893 252.82373 308.57284 228.31484 316.33203 201.97656 C 324.09122 175.63819 312.45103 150.76344 281.41406 127.35156 L 281.41406 90.039062 C 315.03743 59.310993 349.9544 43.947266 386.16406 43.947266 z M 1396.0039 48.59375 C 1423.9755 48.59375 1443.2893 60.143817 1453.9453 83.246094 L 1453.9453 84.978516 C 1411.3221 68.806932 1387.3454 78.047814 1382.0176 112.70117 C 1378.0213 153.13003 1365.3682 172.47869 1344.0566 170.74609 C 1322.7446 169.0133 1308.0913 160.63953 1300.0996 145.62305 C 1300.0996 135.22706 1316.0848 116.7453 1348.0527 90.177734 C 1362.7045 62.455062 1378.688 48.59375 1396.0039 48.59375 z M 374.52539 63.701172 C 352.54091 63.701172 341.54883 78.332893 341.54883 107.59766 C 341.54883 132.47263 352.54091 144.91016 374.52539 144.91016 C 397.80307 143.44696 409.44141 129.54726 409.44141 103.20898 C 409.44141 76.870718 397.80307 63.701172 374.52539 63.701172 z M 1497.9004 67.652344 C 1758.6295 101.7491 1755.6202 338.23956 1700.1758 449.81055 C 1558.9842 524.89257 1543.8556 703.54068 1479.9199 856.01562 C 1361.6755 863.60979 1254.0529 868.40533 1154.5605 871.41211 C 1152.5641 868.4367 1150.4982 865.61806 1148.5078 862.62891 C 1122.9693 827.08372 1099.3495 795.11521 1076.6152 764.79883 C 1162.6277 748.15078 1223.317 731.69997 1258.1426 724.33398 C 1298.1024 673.50884 1314.0863 614.5978 1306.0938 547.60156 C 1268.798 515.25849 1261.4715 478.87242 1284.1152 438.44336 C 1346.0724 419.89458 1395.0286 332.38236 1399.7051 292.0332 C 1405.1754 244.83045 1386.6805 225.32428 1423.9766 211.46289 C 1510.5556 198.7567 1535.1961 150.82025 1497.9004 67.652344 z M 246.49805 92.234375 L 246.49805 131.74219 L 170.8457 147.10547 C 194.12328 119.3039 219.34087 101.01376 246.49805 92.234375 z M 1302.0977 95.375 C 1274.1255 112.70168 1263.4708 134.64922 1270.1309 161.2168 C 1274.1271 173.92298 1286.7801 183.74118 1308.0918 190.67188 C 1326.7399 198.75767 1334.7324 218.97129 1332.0684 251.31445 C 1334.7324 321.77618 1300.0996 376.64411 1228.1719 415.91797 C 1216.1839 391.66059 1194.5384 378.66619 1163.2363 376.93359 C 1131.9343 375.2009 1109.2904 383.28712 1095.3047 401.19141 C 1081.3186 419.09589 1065.0014 425.16036 1046.3535 419.38477 C 1018.3816 425.16026 1003.7304 409.56513 1002.3984 372.60156 C 1025.0423 371.44646 1040.6937 367.40325 1049.3516 360.47266 C 1058.0096 353.54186 1085.7845 343.78655 1110.1113 337.16016 C 1092.7953 322.14377 1066.3336 322.06488 1050.3496 328.41797 C 1034.3657 334.77106 1017.0504 339.10386 998.40234 341.41406 C 962.43851 335.63847 947.78717 319.46581 954.44727 292.89844 C 933.13529 272.10636 926.4747 254.78121 934.4668 240.91992 C 982.41835 213.19715 1022.378 187.20649 1054.3457 162.94922 C 1086.3137 138.69184 1121.9443 124.25331 1161.2383 119.63281 C 1200.5324 115.01242 1247.4859 106.92608 1302.0977 95.375 z M 1445.8281 101.76367 C 1452.5713 102.4134 1455.9434 106.63653 1455.9434 114.43359 C 1450.6154 157.17265 1429.9692 176.23182 1394.0059 171.61133 L 1394.0059 168.14648 L 1409.9902 140.42383 C 1411.3225 112.70106 1420.6455 99.994392 1437.9609 102.30469 C 1440.9579 101.72711 1443.5804 101.5471 1445.8281 101.76367 z M 1162.2598 131.95508 C 1133.0325 131.84939 1111.0139 136.19749 1091.3086 144.83398 C 1070.1686 154.09958 1065.002 183.16244 1074.3262 213.19531 L 1086.3145 213.19531 C 1087.6466 192.40333 1093.9732 175.94304 1105.2949 163.81445 C 1116.617 151.68577 1146.2003 144.70993 1223.7129 136.99023 C 1199.9284 133.68536 1179.7961 132.01849 1162.2598 131.95508 z M 250.37695 144.91016 C 280.12072 171.24853 285.29456 191.00269 265.89648 204.17188 C 236.15281 192.46589 214.16865 177.10216 199.94336 158.08008 L 250.37695 144.91016 z M 1144.2559 158.61719 C 1117.6158 159.19469 1105.6291 175.65488 1108.293 207.99805 L 1108.293 223.5918 C 1117.6167 224.7469 1122.943 221.86038 1124.2754 214.92969 C 1161.5716 206.844 1203.2816 190.15561 1221.9297 171.67383 C 1205.9455 160.12264 1170.8957 158.03949 1144.2559 158.61719 z M 1091.2207 235.6582 C 1079.2327 249.51979 1072.9946 263.15466 1082.3184 283.36914 C 1091.6425 303.58352 1147.5865 330.49761 1250.1504 325.82031 L 1302.5078 317.15625 C 1128.872 312.16975 1090.2387 291.28593 1102.2266 248.54688 L 1091.2207 235.6582 z M 810.98242 566.32422 C 836.84198 576.07745 887.05934 628.05308 960.85547 720.89648 C 926.75837 727.31653 892.01122 732.84285 854.88867 737.37305 C 845.34936 706.47859 810.02382 669.21524 748.9082 625.58398 C 788.99746 613.8781 809.68922 594.12569 810.98242 566.32422 z M 1004.8281 777.45703 C 1027.0849 806.60315 1050.7034 838.1129 1076.4277 873.26953 C 845.94465 878.08093 666.07237 872.48207 528.55664 864.75781 C 520.58508 848.3998 513.09545 832.82241 504.49219 815.43945 C 503.34508 813.12172 502.49534 811.2669 501.36328 808.97266 C 560.48808 809.19839 620.92775 808.32519 679.98242 806.40625 C 688.26169 813.51881 695.46101 820.1556 704.29297 827.51172 C 733.69656 844.86974 775.1545 835.30871 828.57031 799.04297 C 856.89268 796.92312 882.86654 794.48614 905.49609 791.73438 C 941.32537 787.37749 973.95936 782.48778 1004.8281 777.45703 z M 205.26172 792.57422 C 208.58025 792.68372 211.91025 792.98293 215.24023 793.48828 C 258.79865 801.7488 340.07916 806.61949 434.08789 808.41992 C 441.67259 825.72056 448.47346 841.39525 456.85156 860.33984 C 235.84131 845.79495 139.88856 830.87516 105.89453 867.94336 C 108.39203 832.20702 155.48379 790.93171 205.26172 792.57422 z M 1109.5938 919.25 C 1148.453 973.09814 1189.8279 1031.3053 1235.7988 1097.4805 C 1297.8726 1144.304 1329.5563 1178.6901 1330.8496 1200.6387 C 1329.5563 1221.1238 1319.8568 1233.5612 1301.752 1237.9512 C 1283.6472 1242.3409 1264.2498 1236.4882 1243.5586 1220.3926 C 1171.1392 1259.8996 1100.9829 1280.3842 1033.0898 1281.8477 C 965.19671 1283.311 909.26583 1270.8733 865.29688 1244.5352 C 907.97253 1286.9689 922.844 1331.5983 909.91211 1378.4219 C 896.98002 1425.2456 890.51367 1423.7814 890.51367 1374.0312 C 890.51367 1324.2812 834.25859 1276.7275 721.75 1231.3672 L 721.75 1314.7715 C 708.81791 1376.2274 701.05915 1377.6898 698.47266 1319.1602 C 690.71346 1256.2409 672.28652 1188.567 643.18945 1116.1367 C 622.84161 1065.4854 593.59346 1000.394 556.48633 922.55078 C 728.29408 923.82514 922.32835 921.68733 1109.5938 919.25 z M 754.72656 1308.1855 C 818.0935 1328.6709 849.77734 1352.8157 849.77734 1380.6172 L 785.76367 1650.584 C 780.59088 1682.7752 763.1343 1698.8711 733.39062 1698.8711 L 655.79688 1698.8711 L 655.79688 1694.4824 L 754.72656 1352.084 L 754.72656 1308.1855 z " />
</svg>
