<?xml version="1.0" encoding="UTF-8" standalone="no"?>
<svg
   width="16.156"
   height="17.96875"
   id="svg2999"
   sodipodi:version="0.32"
   inkscape:version="1.2.1 (9c6d41e410, 2022-07-14)"
   sodipodi:docname="US9F72VARA.svg"
   inkscape:output_extension="org.inkscape.output.svg.inkscape"
   version="1.0"
   xmlns:inkscape="http://www.inkscape.org/namespaces/inkscape"
   xmlns:sodipodi="http://sodipodi.sourceforge.net/DTD/sodipodi-0.dtd"
   xmlns="http://www.w3.org/2000/svg"
   xmlns:svg="http://www.w3.org/2000/svg"
   xmlns:rdf="http://www.w3.org/1999/02/22-rdf-syntax-ns#"
   xmlns:cc="http://creativecommons.org/ns#"
   xmlns:dc="http://purl.org/dc/elements/1.1/">
  <metadata
     id="metadata3006">
    <rdf:RDF>
      <cc:Work
         rdf:about="">
        <dc:format>image/svg+xml</dc:format>
        <dc:type
           rdf:resource="http://purl.org/dc/dcmitype/StillImage" />
      </cc:Work>
    </rdf:RDF>
  </metadata>
  <defs
     id="defs3004">
    <inkscape:perspective
       sodipodi:type="inkscape:persp3d"
       inkscape:vp_x="0 : 8.9887915 : 1"
       inkscape:vp_y="0 : 1000 : 0"
       inkscape:vp_z="6.3578668 : 8.9887915 : 1"
       inkscape:persp3d-origin="3.1789334 : 5.9925276 : 1"
       id="perspective3008" />
  </defs>
  <sodipodi:namedview
     inkscape:window-height="1017"
     inkscape:window-width="1920"
     inkscape:pageshadow="2"
     inkscape:pageopacity="0.0"
     guidetolerance="10.0"
     gridtolerance="10.0"
     objecttolerance="10.0"
     borderopacity="1.0"
     bordercolor="#666666"
     pagecolor="#ffffff"
     id="base"
     showgrid="false"
     inkscape:zoom="19.945704"
     inkscape:cx="12.534027"
     inkscape:cy="0.15040833"
     inkscape:window-x="1072"
     inkscape:window-y="-8"
     inkscape:current-layer="svg2999"
     inkscape:showpageshadow="2"
     inkscape:pagecheckerboard="0"
     inkscape:deskcolor="#d1d1d1"
     inkscape:window-maximized="1" />
  <path
     style="fill:#000000;stroke:none"
     d="m 7.5540433,0 c -0.076745,0 -0.125,0.06525934 -0.125,0.21875 L 7.3340298,1.0650271 C 7.2444938,0.86037309 6.9034906,0.43619467 6.75,0.21875 6.6732547,0.07805 6.6079953,0.03125 6.53125,0.03125 c -0.1279087,0 -0.1875,0.04680001 -0.1875,0.1875 V 1.625 c -0.319772,0 -0.5837187,0.095055 -0.75,0.3125 C 5.3763047,2.1421547 5.1194807,2.3159868 4.8125,2.4375 4.5055187,2.5590133 4.2132313,2.6178774 3.90625,2.65625 3.5992693,2.6946227 3.545346,2.8379326 3.75,3.09375 3.775581,3.23445 3.840841,3.3607554 3.96875,3.4375 3.96875,3.8212267 4.3092927,3.9581406 5,3.875 5.6907073,3.791859 6.1398227,3.834446 6.3125,3.96875 c 0.1726767,0.1343047 0.3216546,0.2953458 0.46875,0.5 0.1470947,0.204654 0.093899,0.9985302 -0.1875,2.1625 h 1.2125 v 1.525 C 5.5071808,8.1919061 2.9634092,8.9009096 0,10.28125 2.9634093,11.649792 5.5071809,12.339649 7.80625,12.375 v 5.581975 H 8.6625 V 12.34375 c 2.228732,-0.08786 4.655692,-0.751846 7.49375,-2.0625 C 13.330066,8.9592972 10.901515,8.2761215 8.6625,8.1875 V 6.63125 H 9.96875 C 9.7768867,3.9067927 9.2149842,2.21614 8.28125,1.78125 8.28125,1.551014 8.3767239,1.0245753 7.9290433,0.21875 7.852298,0.06525933 7.733116,0 7.5540433,0 Z M 6.71875,0.71875 H 6.75 c 0.1534907,0.3965173 0.2670047,0.6831366 0.34375,0.875 H 7 C 6.9488367,1.4018867 6.8466586,1.1152673 6.71875,0.71875 Z m 1.0227933,0 h 0.03125 C 8.0797746,1.498994 7.9374998,2.0183101 7.9375,2.3125 c 0,0.29419 -0.1021775,0.5638046 -0.28125,0.78125 l 0.125,0.125 c 0.2558173,-0.2686087 0.4119178,-0.5566819 0.4375,-0.8125 0.58838,0.4220993 0.9715093,1.6424132 1.125,3.625 h -2.125 C 7.4106133,5.0847247 7.404218,4.4625038 7.21875,4.1875 7.033282,3.912496 6.8126493,3.7216587 6.53125,3.59375 6.2498507,3.4658413 5.8127987,3.4296501 5.25,3.5 4.6872013,3.5703493 4.400582,3.563954 4.375,3.5 4.3494187,3.4360453 4.4757233,3.3821227 4.71875,3.34375 4.9617767,3.3053773 5.1100273,3.2997088 5.21875,3.3125 5.327472,3.3252907 5.3877907,3.3018906 5.375,3.21875 5.3622093,3.1356093 5.2720953,3.1114819 5.125,3.15625 4.9779047,3.201018 4.7033487,3.2244181 4.28125,3.25 4.14055,3.083718 4.1164227,2.9943313 4.21875,2.96875 4.6664307,2.853632 4.9892413,2.7642453 5.1875,2.6875 5.3857587,2.6107547 5.5588639,2.4915719 5.71875,2.3125 5.878636,2.1334273 6.3688834,2.0312499 7.1875,2.03125 c 0.1023267,0 0.3146597,-0.2652624 0.3146597,-0.4059614 L 7.6477933,0.90625 C 7.89082,1.6737027 7.6825586,2.1454914 7.625,2.34375 7.5674407,2.5420087 7.495786,2.6803773 7.40625,2.71875 L 7.53125,2.875 C 7.7103227,2.670346 7.882056,2.2617744 7.8820561,2.0315385 7.8820561,1.8013032 7.9845699,1.498994 7.7415433,0.71875 Z M 6.65625,0.90625 c 0.1023273,0.319772 0.1491274,0.5468 0.1875,0.6875 h -0.1875 z m -0.6875,1.4375 C 5.917586,2.374128 5.90625,2.423255 5.90625,2.5 c 0,0.1662813 0.107846,0.232268 0.3125,0.1875 C 6.423404,2.642732 6.5723819,2.5767454 6.6875,2.5 6.572382,2.410464 6.423404,2.3757274 6.21875,2.34375 c -0.102327,-0.015989 -0.1988365,-0.030378 -0.25,0 z M 7.80625,9 v 2.5625 C 5.9758033,11.535806 4.1312055,11.13265 2.0625,10.3125 4.1312055,9.4689153 5.9758035,9.0274562 7.80625,9 Z M 8.6625,9.03125 c 1.758881,0.065349 3.510382,0.4804406 5.4625,1.28125 -1.952118,0.778563 -3.703619,1.155216 -5.4625,1.21875 z"
     id="path3001"
     sodipodi:nodetypes="cccsscccssccssscccccccccccccsccccccccscccccsssssssscssssccsccsccccccsscsccccccccc" />
</svg>
