<?xml version="1.0" encoding="UTF-8" standalone="no"?>
<svg
   width="1799.4402"
   height="1102.5596"
   id="svg3350"
   version="1.0"
   xmlns="http://www.w3.org/2000/svg"
   xmlns:svg="http://www.w3.org/2000/svg"
   xmlns:rdf="http://www.w3.org/1999/02/22-rdf-syntax-ns#"
   xmlns:cc="http://creativecommons.org/ns#"
   xmlns:dc="http://purl.org/dc/elements/1.1/">
  <metadata
     id="metadata3357">
    <rdf:RDF>
      <cc:Work
         rdf:about="">
        <dc:format>image/svg+xml</dc:format>
        <dc:type
           rdf:resource="http://purl.org/dc/dcmitype/StillImage" />
      </cc:Work>
    </rdf:RDF>
  </metadata>
  <defs
     id="defs3355" />
  <path
     id="path3352"
     style="fill:#000000;stroke:none;stroke-width:67.7777"
     d="M 818.61831,0 C 800.77548,0 784.22887,10.17033 772.02065,31.76953 708.16221,147.27816 676.70815,229.33202 676.70815,275.34766 519.47186,409.30163 485.48466,452.32373 501.12472,657.21953 L 0,656.82293 l 0.23733286,90.6634 c 90.19170914,1.0553 515.60876714,0.151 515.60876714,0.151 l 14.08725,17.8585 -145.69964,221.461 43.9082,49.40817 159.26861,-217.03597 c 58.00946,104.9573 219.02976,233.50737 275.12255,283.23047 23.24341,-26.73 51.25844,-26.8866 76.18912,-52.1451 C 826.80384,944.66793 735.34568,901.61903 641.14139,742.02453 l 1158.29881,4.5112 -0.3375,-89.1328 -1007.326,0.5172 c -14.28802,-2.2935 10.79077,-50.2952 34.85534,-66.8568 53.05885,-36.6245 208.49126,-60.5811 303.33976,-48.8427 94.8486,11.7387 144.0293,-4.8162 144.0293,-50.832 18.782,-12.2083 28.9523,-24.7385 31.7696,-36.0078 29.1117,-36.6245 24.6157,-55.7892 -14.8262,-61.4238 -39.442,-5.6346 -82.4752,-16.9849 -127.082,-33.8887 -44.6073,-16.9037 -83.3851,-41.9626 -114.375,-72.01364 -21.5991,-21.59915 -53.29411,-33.42954 -97.43169,-38.125 -10.33006,0 -14.82618,-6.85427 -14.82618,-19.0625 V 31.76953 C 937.22963,10.17033 931.55344,0 920.28432,0 909.9543,0 897.42581,10.17033 884.27846,31.76953 863.6184,62.75965 847.77187,93.73575 835.56362,122.84766 V 31.76953 C 835.56362,10.17033 829.8874,0 818.61831,0 Z m -36.00586,99.54883 h 6.35351 c -34.74645,112.69134 -52.95117,186.93953 -52.95117,220.2773 0,33.3379 13.94753,62.9034 40.24219,91.0762 l 14.82617,-23.2988 c -12.20823,-6.5737 -23.31765,-23.1307 -31.76953,-50.834 -8.45186,-27.7032 6.67569,-96.7552 42.36133,-207.56836 v 131.31836 c 0,18.78185 5.91515,27.53516 19.0625,27.53516 118.32589,1e-5 190.44475,14.419 213.92185,40.24414 23.4775,25.825 48.5471,43.7992 76.25,55.0684 27.7035,11.2691 72.8762,26.6358 137.6739,44.4784 15.9643,2.8174 14.3066,15.8276 -6.3536,40.2442 -61.9799,-4.6954 -103.835,-12.0193 -124.9648,-19.0625 -21.1297,-7.0432 -32.48,-4.2048 -33.8887,8.4726 -1.4084,12.6779 5.6843,18.8216 21.1797,16.9434 15.4951,-1.8782 41.0342,-0.9286 76.25,4.2363 35.2162,5.165 50.8235,13.4383 46.5977,23.2989 -4.226,9.8601 -50.3379,8.4415 -137.6739,-4.2364 -87.3357,-12.6778 -243.27796,15.7741 -305.45889,57.3154 -44.86513,29.9729 -69.85115,64.0482 -74.69193,102.7429 l -112.92255,-0.2878 c -8.1764,-156.1013 -15.47874,-201.2735 86.40739,-301.6806 0,30.0509 18.4437,63.1652 55.06836,101.6679 l 16.94531,-16.9453 c -25.35557,-31.929 -36.00781,-68.8185 -36.00781,-110.1386 0,-41.32012 20.34458,-118.17586 63.54297,-230.8672 z m 101.66601,0 h 6.35352 c -16.90373,57.28472 -29.67316,104.34445 -38.125,141.9082 h -14.82617 c 9.39092,-37.56375 24.99845,-84.62347 46.59765,-141.9082 z m 19.0625,29.65234 v 112.25586 h -33.88867 c 6.57365,-30.05098 18.86319,-67.17931 33.88867,-112.25586 z m 73.72071,202.37896 c -3.1484,0.1082 -6.54071,0.4248 -10.17969,0.9531 -29.11193,4.2259 -52.99085,13.4487 -69.89453,27.5351 16.90368,10.3301 40.78262,19.3138 69.89453,25.418 29.11201,6.1041 42.36132,-2.8797 42.36132,-25.418 0,-19.7209 -10.14289,-29.246 -32.18163,-28.4882 z" />
</svg>
