<?xml version="1.0" encoding="UTF-8" standalone="no"?>
<svg
   width="1527.8688"
   height="1799.9983"
   version="1.1"
   id="svg1"
   xmlns="http://www.w3.org/2000/svg"
   xmlns:svg="http://www.w3.org/2000/svg">
  <defs
     id="defs1" />
  <path
     style="fill:#000000;stroke:none;stroke-width:100.151"
     d="m 359.14448,1004.7497 c 51.3064,186.6983 76.9596,317.1019 76.9596,391.2111 58.43226,66.9833 105.46309,86.9356 141.0925,59.8572 C 464.6076,1290.4976 394.06133,1140.1414 365.55779,1004.7497 Z m 81.23509,72.6841 c 15.67699,64.1328 76.24703,183.1351 181.71006,357.0067 38.47973,5.7006 76.95951,23.5153 115.43935,53.444 V 1274.1081 C 627.79033,1212.8256 528.74053,1147.2673 440.37957,1077.4338 Z m 23.5155,436.1042 -59.85742,205.2252 c 31.35386,-4.2758 64.13292,-0.7129 98.33716,10.6888 28.50349,-15.677 61.28254,-19.2398 98.33716,-10.6888 L 590.0232,1522.0889 C 545.8427,1566.2693 503.8,1563.419 463.89507,1513.538 Z M 1156.5311,96.199426 1030.4029,224.4654 c 78.3846,79.80989 59.8574,204.51283 -55.58201,374.10884 L 850.83055,771.73327 942.7545,876.48374 C 1130.878,614.25123 1220.6641,437.52932 1212.1128,346.31796 1203.5617,255.10661 1185.0345,171.73377 1156.5311,96.199426 Z M 989.78528,262.94516 669.12054,592.16093 812.35072,731.11568 927.79011,575.05884 C 1033.2532,428.26562 1053.9183,324.22772 989.78528,262.94516 Z m -827.31513,44.89305 c -1.42523,17.1021 -13.53923,24.22798 -36.34202,21.37766 -4.27553,14.25178 1.42517,33.49164 17.1021,57.71959 h -36.34201 c 34.20424,0 59.85744,21.73396 76.95959,65.20189 17.1021,43.46787 36.69826,76.9595 58.7885,100.47491 22.09024,23.51547 45.96195,28.50361 71.61512,14.96445 25.65316,-13.53923 25.65316,-43.82425 0,-90.85503 75.53435,-21.37771 108.31343,-60.57006 98.33726,-117.5771 -9.97625,-57.0071 -45.60568,-85.51064 -106.88832,-85.51064 -74.10919,0 -121.85259,11.40142 -143.23022,34.20427 z m 8.55105,40.6175 c 1.42515,28.50354 15.67689,42.75532 42.75522,42.75532 27.07839,-1.42516 41.33016,-15.67693 42.75533,-42.75532 -1.42517,-24.22802 -15.67694,-37.05461 -42.75533,-38.47977 -27.07833,1.42516 -41.33007,14.25175 -42.75522,38.47977 z M 639.19173,534.44135 1171.4955,0 c 57.0069,128.2659 88.0045,243.70523 92.9927,346.31796 4.9883,102.61275 -92.2801,295.72421 -291.80512,579.33442 l 164.60802,309.97592 382.66,470.3084 c 14.2517,15.6768 9.2637,27.0783 -14.9644,34.2043 l -211.6387,47.0309 c -18.5274,5.7007 -89.0736,-60.9265 -211.6387,-199.8812 C 959.14403,1448.336 880.04675,1370.3075 844.41731,1353.2054 l -64.13298,-38.4797 c 0,76.9596 5.70067,161.045 17.10211,252.2563 -37.05461,32.7789 -84.79805,9.2635 -143.23036,-70.5463 l 10.68888,222.3275 c 32.77914,14.2519 74.10925,12.8268 123.99031,-4.2754 49.88127,11.4013 74.10928,39.9048 72.68414,85.5105 -32.77916,-22.8027 -57.36341,-28.5035 -73.75294,-17.1022 -16.38953,11.4015 -36.69826,17.1022 -60.92637,17.1022 H 134.67918 c -31.35393,0 -52.731593,-5.3444 -64.132988,-16.0332 C 59.144798,1773.2764 35.629396,1778.6207 0,1799.9983 c 4.2754755,-47.0309 24.940523,-74.8218 61.995151,-83.3728 49.881179,-8.5511 90.855009,-8.9073 122.921489,-1.0686 32.06647,7.8385 62.70779,7.8385 91.92395,0 29.2161,-7.8385 50.23745,-10.3326 63.06407,-7.4824 l 72.68403,-247.9807 c -17.10216,-2.8505 -20.29151,-17.6895 -20.29151,-37.6418 -11.78594,-104.3136 -10.84,-172.6274 -98.24585,-498.53892 -62.70779,-65.55811 -114.4791,-135.07769 -114.4791,-173.55747 0,-49.88117 9.26362,-96.19943 27.79088,-138.95476 C 171.7337,562.94484 148.57461,518.76435 137.88584,478.85941 127.19699,438.95446 113.30153,419.002 96.199426,419.002 c -14.251769,-2.85038 -29.928739,0.71254 -47.030892,10.68877 0,-64.13295 19.952466,-101.90012 59.857416,-113.30152 -4.27548,-25.65316 7.83852,-38.47975 36.34201,-38.47975 28.50355,-38.47977 95.13058,-58.07598 199.88109,-58.78859 104.75051,-0.71254 176.00936,43.46794 213.77652,132.54145 37.76724,89.07357 64.48929,149.9999 80.16616,182.77899 z M 587.88546,590.0232 C 577.90915,554.3938 554.75,493.8238 518.40797,408.31322 482.06603,322.80258 453.20621,280.04725 431.82852,280.04725 c 55.58187,99.76235 34.20421,173.87154 -64.133,222.32756 0,72.68402 -30.64127,109.02604 -91.92384,109.02604 -18.52733,51.30633 -27.79099,97.6246 -27.79099,138.95476 0,39.90495 40.61756,96.55573 121.85268,169.95238 81.23503,73.39658 275.0591,218.40821 581.47217,435.03521 l 333.49136,380.5222 171.0213,-27.7909 v -4.2754 c -79.8098,-84.0856 -149.6435,-174.5844 -209.501,-271.4963 C 1110.9254,1276.9584 1014.7259,1140.8541 957.71879,1023.9895 900.71172,907.12503 833.37211,816.6263 755.69997,752.49334 678.02782,688.36039 622.08963,634.20368 587.88546,590.0232 Z"
     id="path1" />
</svg>
