<?xml version="1.0" encoding="UTF-8" standalone="no"?>
<svg
   width="1793.915"
   height="1798.2565"
   version="1.1"
   id="svg1"
   xml:space="preserve"
   xmlns="http://www.w3.org/2000/svg"
   xmlns:svg="http://www.w3.org/2000/svg"><defs
     id="defs1" /><path
     id="path1"
     style="fill:#000000;stroke:none;stroke-width:48.9641"
     d="M 758.08008 0 C 642.16697 0 572.55589 36.059243 549.16992 108.1543 L 134.30664 321.58398 C 114.98778 345.29942 120.57465 355.72476 151.07812 352.87891 C 429.67634 241.89051 586.24973 184.00094 620.82031 179.25781 C 533.3771 254.19873 496.82758 336.09512 511.0625 424.79102 C 525.29743 513.48692 610.39076 585.81861 766.4668 641.78711 C 922.54284 697.75561 1039.7724 747.0622 1118.0645 789.75 C 1014.4036 846.85429 924.94373 904.42129 861.67383 926.4375 C 806.01772 945.8044 722.07168 979.99217 576.67188 1016.9883 C 516.68177 1009.3994 486.18085 1019.8247 485.16406 1048.2832 C 505.49971 1039.7454 518.41945 1038.0033 524.01172 1043.2207 C 529.60403 1048.4383 547.64693 1050.6125 578.15039 1049.6641 L 994.61719 1049.6641 C 993.60061 1038.2807 957.9763 1029.6977 887.81836 1024.0059 L 806.91797 999.84375 L 1189.7168 855.21875 C 1226.3209 855.21875 1242.6197 842.4018 1238.5527 816.78906 L 1205.0078 718.53125 C 1282.2832 709.04507 1341.5391 700.36019 1382.7188 692.29688 C 1423.8983 684.23364 1483.0292 710.7301 1560.3047 771.91602 C 1637.5801 833.10193 1703.7053 809.21224 1758.6113 700.12109 C 1726.0742 658.38193 1696.037 623.73449 1668.584 596.22461 C 1709.2551 589.58427 1722.5297 576.76728 1708.2949 557.79492 C 1668.6404 533.13078 1594.136 501.09032 1484.832 461.72266 C 1375.5281 422.35497 1216.1602 378.04498 1006.7031 328.7168 C 892.82363 308.79582 805.39949 307.60097 744.39258 325.15039 C 683.38565 342.69987 652.88477 344.1118 652.88477 329.4082 C 652.88477 314.7046 684.89781 282.2319 748.95508 231.95508 C 813.01234 181.67828 839.90022 127.15813 829.73242 68.34375 C 975.13224 132.84984 1096.2044 165.96996 1192.7988 167.86719 L 1186.6328 61.210938 C 957.85693 48.878885 815.01987 28.45855 758.08008 0 z M 693.70508 32.90625 C 713.12723 32.239246 732.00637 36.276211 750.43555 44.873047 C 779.92222 58.628015 793.6586 80.673471 791.625 111.0293 C 789.59118 141.38512 759.32432 180.05122 700.85938 227.00781 C 642.39437 273.96448 611.42982 307.30169 607.87109 327.22266 C 604.31235 347.14366 610.13303 363.11294 625.38477 374.9707 C 640.63649 386.8284 698.6101 378.46249 799.27148 350.00391 C 708.77791 378.46246 663.49219 413.10976 663.49219 453.90039 C 663.49219 488.05068 701.67695 516.50465 777.93555 539.27148 C 967.057 584.80524 1251.8038 608.04766 1632.0801 608.99609 C 1671.7345 634.60881 1701.1847 665.45442 1720.5039 701.50195 C 1687.967 778.34013 1637.6792 787.57056 1569.5547 729.23047 C 1501.4304 670.89047 1441.9445 645.58875 1391.1055 653.17773 C 1340.2665 660.76664 1277.6295 668.80225 1203.4043 677.33984 C 1196.2868 671.64804 1178.5989 663.61247 1150.1289 653.17773 L 1198.8418 812.53125 C 1201.8921 823.91467 1196.3054 831.95001 1182.0703 836.69336 L 1134.8359 808.27539 C 1161.2722 802.5836 1166.3976 790.19893 1150.1289 771.22656 C 1129.7933 746.56246 1028.0461 702.03739 845.02539 637.53125 C 662.00462 573.02515 564.09839 499.49664 551.38867 416.9668 C 538.67886 334.43695 577.09741 257.97125 666.57422 187.77344 C 666.57422 164.05796 642.71259 150.80873 594.92383 147.96289 L 578.15039 113.79102 C 599.5028 73.94903 626.1589 49.079633 658.1875 39.119141 C 670.19823 35.383954 682.05179 33.306461 693.70508 32.90625 z M 863.40039 54.076172 C 1023.0352 90.123708 1117.5584 103.92042 1147.0449 95.382812 L 1156.1719 130.93555 C 1098.2153 127.14108 1000.6659 101.50713 863.40039 54.076172 z M 649.30859 57.183594 C 639.96689 57.717179 631.53018 63.310451 623.9043 73.982422 C 619.83719 90.108952 624.37555 100.10199 637.59375 103.89648 C 660.9797 107.69094 674.2524 102.47734 677.30273 88.248047 C 680.35307 71.172917 674.17945 61.179829 658.92773 58.333984 C 655.62319 57.385352 652.42248 57.005721 649.30859 57.183594 z M 928.14453 360.70312 C 976.44164 359.28018 1129.7589 393.71235 1388.0215 463.91016 C 1575.1092 527.46764 1669.6345 561.56744 1671.668 566.31055 C 1642.1811 572.00229 1542.0692 573.95978 1371.25 572.0625 C 925.89969 537.91219 703.20117 498.05323 703.20117 452.51953 C 704.21798 435.4444 729.94867 416.21895 780.2793 394.875 C 830.61001 373.53109 879.84737 362.12607 928.14453 360.70312 z M 98.794922 778.00391 C 32.428058 778.00391 -0.54508695 815.11671 0.0078125 889.22656 C 0.56088197 963.33637 29.08998 1022.7823 85.501953 1067.5801 C 141.36086 1112.3781 278.77734 1116.5449 278.77734 1116.5449 L 661.93164 1116.5449 C 744.89046 1234.8995 802.93744 1310.0639 916.31445 1367.582 L 916.31445 1798.2559 L 1010.8965 1798.2559 L 1010.8965 1400.002 C 1086.1124 1428.208 1177.4001 1439.5493 1284.6934 1372.0762 C 1391.9868 1304.05 1358.2273 1206.6935 1263.6543 1116.5449 L 1793.9141 1122.041 L 1793.9141 1064.7578 L 278.77734 1059.2617 C 227.89604 996.76614 201.94219 934.316 200.83594 871.82031 C 200.28291 809.32471 166.26809 778.00391 98.794922 778.00391 z M 100.42188 829.45508 C 129.73396 829.45508 144.41211 852.19412 144.41211 897.54492 C 144.41211 942.89576 173.15572 1003.3834 230.67383 1079.1523 C 167.07209 1058.6892 121.54557 1034.8365 94.587891 1007.0449 C 67.898347 979.52991 55.113116 942.89576 55.666016 897.54492 C 56.219045 852.19412 71.109756 829.45508 100.42188 829.45508 z M 1342.627 846.75 L 1342.627 875.875 L 1450.834 875.875 L 1393.873 1023.0703 L 1343.2715 1023.0703 L 1343.2715 1052.1973 L 1706.8848 1052.1973 L 1706.8848 1023.0703 L 1592.1328 1023.0703 L 1649.1855 875.875 L 1706.2383 875.875 L 1706.2383 846.75 L 1342.627 846.75 z M 1480.6973 875.875 L 1619.4141 875.875 L 1562.3613 1023.0703 L 1423.6445 1023.0703 L 1480.6973 875.875 z M 759.57227 1116.5449 L 916.31445 1116.5449 L 916.31445 1289.9277 C 862.66778 1262.8279 810.45369 1192.867 759.57227 1116.5449 z M 949.5 1116.5449 L 976.08594 1116.5449 L 976.08594 1322.252 L 949.5 1304.8457 L 949.5 1116.5449 z M 1010.8965 1116.5449 L 1129.4805 1116.5449 C 1284.8899 1213.3301 1340.8168 1301.7986 1297.125 1345.4902 C 1252.8803 1388.6287 1157.4569 1385.3202 1010.8965 1335.5449 L 1010.8965 1116.5449 z M 949.5 1379.248 L 976.08594 1390.8203 L 976.08594 1750.1523 L 949.5 1750.1523 L 949.5 1379.248 z " /></svg>
