<?xml version="1.0" encoding="UTF-8" standalone="no"?>
<svg
   width="1801.5837"
   height="1579.3665"
   version="1.1"
   id="svg388"
   xmlns="http://www.w3.org/2000/svg"
   xmlns:svg="http://www.w3.org/2000/svg">
  <defs
     id="defs392" />
  <path
     style="fill:#000000;stroke:none;stroke-width:93.0908"
     d="m 337.61416,73.229536 c 31.64218,0 46.91763,17.189298 45.82655,51.567894 0,29.63668 -17.45781,44.45502 -52.37304,44.45502 -30.551,0 -45.82645,-16.00382 -45.82645,-48.01147 0,-32.007631 17.45772,-48.011444 52.37294,-48.011444 z M 1711.5747,553.75713 C 1577.319,336.17848 1407.1781,94.980508 1259.6375,52.028181 c -23.347,-6.796857 -28.8784,3.151515 -28.8784,3.151515 99.2846,35.829888 307.3736,485.992104 334.2855,517.114624 11.0275,12.75287 88.2862,-8.94481 146.5301,-18.53719 z M 201.77154,83.898773 185.40481,114.12819 c 66.55761,53.34607 123.56805,94.24469 171.03102,122.69589 47.46317,28.45124 83.19681,95.13382 107.20111,200.04774 24.00431,104.9139 62.46585,190.26758 115.38453,256.06102 52.91858,65.79344 137.20647,176.33835 252.86379,331.63466 l 122.74929,49.7897 c 30.55096,-16.5967 69.83075,-25.1913 117.83945,-25.7839 48.0087,-0.5953 86.743,26.3741 116.2029,80.9081 25.0954,52.1605 55.6463,75.2772 91.6528,69.3497 61.1019,8.2985 92.1984,-11.2616 93.2895,-58.6804 -1.0914,-85.3537 -45.2811,-134.5506 -132.5693,-147.59076 -113.9059,-137.44146 -145.7478,-180.42027 -212.1392,-260.51162 38.2652,-59.93299 78.0828,-112.91953 146.3131,-192.33539 -33.231,-52.00965 -85.4256,-143.50046 -71.28,-154.87396 18.5603,-14.9231 116.6379,121.46855 159.3311,185.69127 59.0482,88.82523 104.7841,179.25396 165.3554,247.53238 30.133,33.96718 113.9455,20.3936 176.4464,32.62665 -12.9124,-21.2379 -32.448,-91.0053 -97.6565,-252.20856 C 1435.0018,419.4538 1335.4251,167.46391 1187.8776,78.24234 1026.9722,-19.056804 786.33157,646.996 708.3175,638.69768 630.30343,630.39944 578.20306,597.50272 552.01659,540.00752 525.83002,482.51234 501.28007,374.93112 478.36695,217.26389 455.45363,59.59667 363.25519,15.141641 201.77154,83.898773 Z M 172.31163,46.556559 C 242.14248,3.8797114 307.33603,-9.4568038 367.89229,6.5470199 428.44884,22.550838 469.63809,53.669352 491.46013,99.902599 c 21.82215,46.233231 40.64371,127.141411 56.4647,242.724511 15.82109,115.58313 45.82665,183.74754 90.01627,204.49322 44.18983,20.74568 59.73533,-31.41267 97.26278,-62.91263 C 788.16931,439.74933 858.30994,301.29346 892.79549,243.44235 1051.6339,-23.016167 1263.4319,7.7748652 1263.4319,7.7748652 1384.3921,15.542178 1660.2491,279.7922 1801.5838,606.98461 c -78.1285,24.41944 -177.0565,31.06136 -231.2144,31.93932 60.3745,106.94971 117.4443,268.72231 117.4443,268.72231 -140.5192,11.92152 -277.4007,-4.07931 -316.5955,-67.85465 -75.8368,-123.39679 -126.5054,-209.25731 -165.178,-268.381 -38.7417,42.0922 -86.1203,125.81087 -113.9695,176.76011 51.6838,73.20858 119.5038,150.38887 176.8024,207.04693 108.0195,-4.74169 156.5737,64.01537 145.6627,206.27137 38.1887,21.3384 56.1919,62.8299 54.0097,124.4743 -60.0109,9.4836 -99.8363,-3.5566 -119.4761,-39.1206 -115.6572,30.8222 -188.2158,-5.9272 -217.6756,-110.2484 -26.1866,-27.2658 -53.1915,-37.9352 -81.0147,-32.0078 -27.8232,5.9275 -54.28251,14.8185 -79.37797,26.673 -28.36873,88.9101 -71.46736,165.3729 -129.2959,229.3882 -10.91116,28.4513 -8.72895,69.3499 6.54661,122.6959 -4.3644,24.8947 -16.36658,45.0476 -36.00658,60.4588 0,-60.4588 -7.63774,-98.9866 -22.91312,-115.5833 -7.63777,14.2256 -14.18447,28.1551 -19.63998,41.7879 -5.45551,13.6331 -5.18284,28.7476 0.81801,45.3442 6.00115,16.5965 -0.27267,37.9348 -18.82156,64.0152 -13.09309,-3.5565 -21.2764,-42.6767 -24.54955,-117.3612 15.27545,-55.717 42.82587,-107.5812 82.65115,-155.5927 39.82542,-48.0114 63.55699,-98.6903 71.19478,-152.0363 -10.91108,-16.5965 -29.45991,-27.8584 -55.64645,-33.7858 -26.18655,68.7571 -69.2852,135.1433 -129.29602,199.1587 l 11.45656,103.1356 c 2.18227,24.8949 -9.81993,48.0114 -36.0065,69.3498 2.18226,-41.4913 -3.27335,-80.6118 -16.36664,-117.3612 -8.72875,18.9675 -16.6393,35.2678 -23.73143,48.9006 -7.09223,13.6328 -7.91054,38.8239 -2.45503,75.5736 -3.27325,17.7819 -14.18437,30.8221 -32.73317,39.1201 -13.09328,-16.5963 -19.09433,-42.0838 -18.00325,-76.4624 8.72896,-64.0154 37.916,-128.6234 87.56124,-193.824 49.64533,-65.2008 78.83248,-121.5104 87.56133,-168.9292 1.09108,-77.0555 -48.55425,-173.67109 -148.9361,-289.84702 C 508.37221,712.19669 448.08862,607.28282 423.53867,494.66342 398.98893,382.04393 356.16306,303.50668 295.06116,259.05168 233.95916,214.59661 139.03302,147.32131 10.282541,57.225809 -8.2663554,45.371107 -1.7196626,31.145489 29.922418,14.548926 c 43.644183,0 91.107352,10.669222 142.389212,32.007633 z"
     id="path386" />
</svg>
