<?xml version="1.0" encoding="UTF-8" standalone="no"?>
<svg
   width="19.200001"
   height="17.972734"
   version="1.1"
   id="svg4"
   sodipodi:docname="G127F.svg"
   inkscape:version="1.2.1 (9c6d41e410, 2022-07-14)"
   xmlns:inkscape="http://www.inkscape.org/namespaces/inkscape"
   xmlns:sodipodi="http://sodipodi.sourceforge.net/DTD/sodipodi-0.dtd"
   xmlns="http://www.w3.org/2000/svg"
   xmlns:svg="http://www.w3.org/2000/svg">
  <defs
     id="defs8" />
  <sodipodi:namedview
     id="namedview6"
     pagecolor="#ffffff"
     bordercolor="#000000"
     borderopacity="0.25"
     inkscape:showpageshadow="2"
     inkscape:pageopacity="0.0"
     inkscape:pagecheckerboard="0"
     inkscape:deskcolor="#d1d1d1"
     showgrid="false"
     showguides="false"
     inkscape:zoom="39.79597"
     inkscape:cx="9.9884487"
     inkscape:cy="8.9958858"
     inkscape:window-width="1920"
     inkscape:window-height="1137"
     inkscape:window-x="-8"
     inkscape:window-y="-8"
     inkscape:window-maximized="1"
     inkscape:current-layer="svg4" />
  <path
     id="path2"
     style="fill:#000000;stroke:none"
     d="M 4.4902344,0.01757813 4.5078125,1.4375 H 1.2128906 C 0.83882433,1.4375 0.609171,1.3118726 0.52734375,1.0605469 0.4455165,0.80922113 0.31400032,0.72089308 0.1328125,0.796875 -0.04837599,0.8728576 -0.04445502,1.0927018 0.1425785,1.4550781 0.2127158,1.5953533 0.41097329,1.770057 0.73828163,1.9804688 L 0.7734375,1.9628906 H 1.1425781 4.5078125 L 4.4902344,3.7519531 H 2.2460938 V 11.240234 H 0.44140625 v 0.683594 H 6.2792969 c 0.958545,0.677995 1.8065262,1.145173 2.5429687,1.402344 v 0.246094 4.40039 h 0.6835938 l 0.017578,-4.40039 v -0.07031 c 0.6663066,0.116895 1.3965156,0.0089 2.1914066,-0.324219 0.79489,-0.333152 0.871442,-0.751254 0.228515,-1.253906 h 5.925782 v -0.683594 h -1.261719 l 1.314453,-0.28125 c 0.16365,-0.05845 0.193098,-0.140887 0.08789,-0.246093 L 16.783203,9.328125 C 17.554714,9.8190878 18.125933,10.146894 18.5,10.310547 18.312967,10.100135 18.004779,9.8312139 17.572266,9.5039062 l 0.332031,0.1230469 C 18.032885,9.6035738 18.08588,9.5034688 18.0625,9.328125 16.168791,7.9370664 14.965513,6.7416458 14.451172,5.7421875 13.9565,4.7809483 13.379519,3.9941407 12.722656,3.3789062 l 2.048828,-1.9550781 c 0.142445,-0.1314878 0.301246,-0.1859775 0.476563,-0.1640625 0.16436,0.032872 0.286581,0.1438036 0.363281,0.3300782 l 1.616578,3.8226197 c 0.186275,0.3287186 0.324449,0.4668993 0.412109,0.4121094 0.230101,-0.1314869 0.295886,-0.3786438 0.197266,-0.7402344 0.05479,0.1095729 0.136521,0.2025969 0.246094,0.2792968 0.109572,0.0767 0.207261,0.092658 0.294921,0.048828 0.09862,-0.065744 0.143773,-0.1611005 0.132813,-0.2871094 -0.01096,-0.1260089 -0.0495,-0.2439427 -0.115234,-0.3535156 0.262974,0.2739367 0.508177,0.3463316 0.738281,0.2148437 0.09862,-0.054786 0.05075,-0.2427852 -0.146485,-0.5605469 L 16.300781,1.1953125 15.445312,0.04492187 12.275391,2.9433594 C 11.77003,2.4124806 11.379808,1.8321834 11.109375,1.2011719 10.776222,0.42381532 10.210892,0.03515625 9.4101562,0.03515625 c -0.8007351,0 -1.3071656,0.1511491 -1.5175781,0.45507813 -0.2221028,-0.01169 -0.3163189,0.0825269 -0.28125,0.28125 C 7.3073991,0.86500095 7.15625,1.157476 7.15625,1.6484375 c 0.1285852,-0.070137 0.2463566,-0.09958 0.3515625,-0.087891 0.1285852,0 0.2326259,0.15507 0.3144531,0.4648437 0.081827,0.3097737 0.2565302,0.6513243 0.5253906,1.0253906 l 0.017578,0.017578 C 8.3067862,3.185254 8.2792972,3.3894003 8.2792972,3.68164 c 0,0.292239 0.2453666,0.7024849 0.7363281,1.2285156 0.5026522,1.7417463 0.7480174,3.009797 0.7363281,3.8046876 0,0.1052065 0.06871,0.1699806 0.2089844,0.1933593 l -0.542969,1.8222665 c -0.093517,-0.02338 -0.2446657,-0.0077 -0.4550782,0.04492 -0.2104118,0.05257 -0.4322238,0.04868 -0.6660156,-0.0098 -0.2337911,-0.05845 -0.5321543,-0.05256 -0.8945312,0.01758 -0.2805498,0.05845 -0.421875,0.211551 -0.421875,0.457031 L 6.3671875,11.25778 V 0.01757813 Z m 4.6289062,0.43749999 c 0.4675829,0 0.7404244,0.21984424 0.8164063,0.65820308 0.075983,0.4383589 -0.173305,0.73869 -0.7460938,0.9023438 0.1870331,0.3623769 0.185066,0.5979191 -0.00781,0.703125 C 8.9887628,2.8239566 8.8042494,2.7847041 8.6289062,2.6035156 8.4535624,2.4223271 8.302414,2.1632164 8.1738281,1.8242188 8.045243,1.4852211 7.8509204,1.3144531 7.59375,1.3144531 H 7.875 C 7.7581041,1.12742 7.7109957,0.98215902 7.734375,0.87695312 c 0.1168959,0.0233793 0.1875582,-0.0237291 0.2109375,-0.140625 0.2104118,-0.18703311 0.6010387,-0.28125 1.1738281,-0.28125 z m 0.9472654,0.0351563 c 0.175344,0 0.414822,0.35724921 0.71875,1.07031248 0.303929,0.713064 0.798582,1.3667225 1.482422,1.9628906 0.683839,0.5961687 1.235426,1.3224428 1.65625,2.1757813 0.420825,0.8533384 1.239363,1.7935826 2.455078,2.8222656 C 14.251405,7.4928014 12.916612,6.8568092 12.373047,6.6113281 11.829482,6.3658477 10.944203,5.7985641 9.7167969,4.9101562 9.0271123,4.4075048 8.6816406,3.997259 8.6816406,3.6816406 c 0,-0.2337917 0.023554,-0.4379381 0.070312,-0.6132812 V 3.0507814 C 9.3130526,3.0507815 9.59375,2.770084 9.59375,2.2089846 10.330192,1.8349182 10.487231,1.2617458 10.066406,0.49023442 Z M 5.0351562,0.54296875 H 5.8417969 V 11.240234 H 2.7734375 V 4.2792969 h 2.2617187 z m 3.3652344,0.19335937 c -0.2104118,0 -0.3144531,0.10010563 -0.3144531,0.29882808 0,0.2104125 0.1040413,0.3144532 0.3144531,0.3144532 0.2104125,0 0.3222951,-0.1040407 0.3339844,-0.3144532 C 8.7226857,0.83643378 8.6108031,0.73632813 8.4003906,0.73632812 Z M 16.005859,1.4570312 18.427125,4.3284791 17.425171,4.8714479 Z M 9.5585938,5.5410156 h 0.052734 c 0.2104118,1.005303 0.7246992,2.1104277 1.5429692,3.3144532 -0.257171,0.2104124 -0.596754,0.069087 -1.017578,-0.421875 0,-0.5494095 -0.1923699,-1.5132089 -0.5781252,-2.8925782 z m 0.5781252,0.5429688 c 0.666306,0.5143415 1.396516,0.9991853 2.191406,1.4550781 V 9.0996094 C 12.047575,8.8775069 11.766878,8.7499127 11.486328,8.7148438 10.714817,7.440681 10.265305,6.5632572 10.136719,6.0839844 Z m 0.701172,0.1054687 4.892578,2.4726563 c 0.631237,0.7247526 1.23974,1.4019676 1.824219,2.0332026 v 0.03516 L 16.308594,10.923828 13.888672,8.2578125 C 13.409399,7.8720562 12.392604,7.1830668 10.837891,6.1894531 Z m 1.80664,1.6484375 0.455078,0.28125 c 0.257171,0.1168952 0.830342,0.6861467 1.71875,1.7089844 0.692847,0.797685 1.154749,1.264957 1.392579,1.412109 h -2.988282 c 0.01169,-0.23379 -0.157126,-0.392779 -0.507812,-0.474609 -0.374067,0.12859 -0.684207,0.140362 -0.929688,0.03516 L 11.714846,9.1699259 C 12.13567,9.7660943 12.48703,9.9427514 12.76758,9.6972696 12.68575,9.0075856 12.644533,8.3873048 12.644533,7.8378946 Z m -2.314453,1.4550782 c 0.292239,0.3623763 0.596491,0.380042 0.91211,0.052734 l 0.07031,1.4550782 c -0.257171,-0.05845 -0.484871,-0.03489 -0.683594,0.07031 -0.25717,-0.08183 -0.50449,-0.105383 -0.738281,-0.07031 z M 7.2792969,11.923828 h 1.5429687 v 0.824219 C 8.3546828,12.561014 7.8403963,12.286205 7.2792969,11.923828 Z m 2.2441406,0 h 1.3671875 c 0.876718,0.327308 1.000378,0.598195 0.369141,0.814453 -0.631237,0.216256 -1.210297,0.273175 -1.7363285,0.167969 z"
     sodipodi:nodetypes="ccssccccccccccccccccccccccccccccccscccccccscsccccccssccccsccscccccccccccsscsssccccscssscscscccccccccccssscscccccccccccccccccccccccsccccccscccccccccccccscc" />
</svg>
