<?xml version="1.0" encoding="UTF-8" standalone="no"?>
<!-- Created with Inkscape (http://www.inkscape.org/) -->

<svg
   sodipodi:docname="US9G315XTU.svg"
   inkscape:version="1.2.1 (9c6d41e410, 2022-07-14)"
   sodipodi:version="0.32"
   id="svg1290"
   height="1800.0000px"
   width="1800.0000px"
   version="1.1"
   xmlns:inkscape="http://www.inkscape.org/namespaces/inkscape"
   xmlns:sodipodi="http://sodipodi.sourceforge.net/DTD/sodipodi-0.dtd"
   xmlns="http://www.w3.org/2000/svg"
   xmlns:svg="http://www.w3.org/2000/svg"
   xmlns:rdf="http://www.w3.org/1999/02/22-rdf-syntax-ns#"
   xmlns:cc="http://creativecommons.org/ns#"
   xmlns:dc="http://purl.org/dc/elements/1.1/">
  <defs
     id="defs3" />
  <sodipodi:namedview
     inkscape:window-y="-8"
     inkscape:window-x="-8"
     inkscape:window-height="1137"
     inkscape:window-width="1920"
     inkscape:current-layer="layer1"
     inkscape:document-units="px"
     inkscape:cy="601.84202"
     inkscape:cx="-422.52607"
     inkscape:zoom="0.24258858"
     inkscape:pageshadow="2"
     inkscape:pageopacity="0.0"
     borderopacity="1.0"
     bordercolor="#666666"
     pagecolor="#ffffff"
     id="base"
     inkscape:showpageshadow="2"
     inkscape:pagecheckerboard="0"
     inkscape:deskcolor="#d1d1d1"
     showgrid="false"
     inkscape:window-maximized="1" />
  <metadata
     id="metadata4">
    <rdf:RDF>
      <cc:Work
         rdf:about="">
        <dc:format>image/svg+xml</dc:format>
        <dc:type
           rdf:resource="http://purl.org/dc/dcmitype/StillImage" />
        <cc:license
           rdf:resource="http://creativecommons.org/licenses/by/2.0/" />
        <dc:subject>
          <rdf:Bag>
            <rdf:li>JSesh hieroglyph</rdf:li>
          </rdf:Bag>
        </dc:subject>
        <dc:creator>
          <cc:Agent>
            <dc:title>Serge Rosmorduc</dc:title>
          </cc:Agent>
        </dc:creator>
        <dc:description>Karnak Hypostyle Hall
</dc:description>
      </cc:Work>
      <cc:License
         rdf:about="http://creativecommons.org/licenses/by/2.0/">
        <cc:permits
           rdf:resource="http://web.resource.org/cc/Reproduction" />
        <cc:permits
           rdf:resource="http://web.resource.org/cc/Distribution" />
        <cc:requires
           rdf:resource="http://web.resource.org/cc/Notice" />
        <cc:requires
           rdf:resource="http://web.resource.org/cc/Attribution" />
        <cc:permits
           rdf:resource="http://web.resource.org/cc/DerivativeWorks" />
        <cc:requires
           rdf:resource="http://web.resource.org/cc/ShareAlike" />
      </cc:License>
    </rdf:RDF>
  </metadata>
  <g
     id="layer1"
     inkscape:groupmode="layer"
     inkscape:label="Layer 1">
    <g
       id="g954">
      <path
         id="path1295"
         style="display:inline;fill:#000000;fill-opacity:1;fill-rule:nonzero;stroke:none;stroke-width:60;stroke-linecap:round;stroke-linejoin:round;stroke-miterlimit:4;stroke-opacity:1"
         d="m 704.54102,4.4609375 c -8.12075,0.060865 -16.30842,0.377186 -24.5625,0.90625 h -0.0312 C 609.94795,9.8939355 557.40648,38.280476 537.97852,82.898438 c -4.53435,10.410157 -2.80694,22.501172 4.46875,31.218752 7.27567,8.71758 18.85294,12.56799 29.90625,9.96875 3.76059,-0.88521 1.13862,-0.85957 5.46875,0.15625 2.21652,0.51997 5.92499,1.58938 10.9375,2.875 5.46374,16.93062 9.67051,27.0893 12.0625,33.5 2.70603,7.25237 3.57061,9.83281 4.28125,20.125 -15.59252,55.74286 -9.52545,111.7154 -3.71875,140.125 9.61701,47.05196 38.73673,98.57074 76.8125,147.375 -0.13291,3.62978 0.19728,7.28591 1.40625,10.8125 18.42451,56.40776 39.92568,133.02015 55.28125,204.46875 15.35555,71.4486 23.53736,139.9615 19.375,169.9375 -2.11252,15.20773 7.59711,29.55642 22.5,33.25 0.64045,0.15888 1.24049,0.39232 1.875,0.5625 l -53.15625,176.43746 c -42.65378,-6.2564 -88.75642,6.851 -116.5,0.75 -16.40477,-3.7562 -71.4367,9.3967 -86.25,36.2813 H 411.82227 5.7558594 v 57.625 H 501.60352 659.69727 l 242.53125,352.4062 v 285.6836 h 57.625 v -638.0898 h 455.59378 v -41.25 c 3.3433,3.6357 6.6878,7.2705 10.0312,10.9062 6.8635,7.4622 17.0315,10.9535 27.0313,9.2813 58.5124,-9.811 117.019,-19.6266 175.5312,-29.4375 10.7902,-1.7969 19.7467,-9.3368 23.375,-19.6563 3.6285,-10.3194 1.3537,-21.783 -5.9375,-29.9375 -21.856,-24.4576 -44.0153,-48.4658 -66.1875,-72.31246 l 167.0938,108.81246 c 13.8848,9.0437 32.4875,5.1036 41.5312,-8.7812 9.0436,-13.8847 5.1036,-32.4563 -8.7812,-41.5 l -135.6563,-88.31251 c 2.8672,-2.34106 5.6294,-5.25872 7.6875,-9.1875 4.8726,-9.30093 3.5865,-18.89258 1.9688,-23.875 -1.6177,-4.98244 -3.3829,-7.39314 -4.7813,-9.3125 -5.5941,-7.67743 -8.489,-8.93482 -12.4687,-12 -3.9797,-3.0652 -8.4031,-6.17004 -13.2188,-9.46875 -9.631,-6.59747 -20.7697,-13.84856 -30.3437,-20.25 -9.574,-6.40146 -18.5532,-13.10979 -18.8438,-13.375 -0.9384,-0.85363 -1.9299,-1.64689 -2.9687,-2.375 -79.9752,-56.27794 -160.0014,-112.42312 -239.9375,-168.65625 -0.259,-0.18941 -0.5487,-0.31975 -0.8125,-0.5 C 1248.5145,573.19295 1171.5968,453.61225 1081.916,342.80469 1038.2373,288.83611 987.30984,189.01908 899.10352,151.77344 894.23863,125.34982 883.29917,83.184218 850.32227,51.117188 814.09473,15.889307 761.38612,4.0348813 704.54102,4.4609375 Z m 2.1875,60.1875005 c 27.11287,0.233527 50.9348,4.170122 69.8125,11 -3.15109,22.535237 -17.02782,57.402802 -96.125,77.968752 73.60492,-5.32985 121.6748,-11.35155 146.5,-30.96875 8.969,20.21088 13.83152,43.07465 15.96875,56.15625 1.84042,11.25823 9.90625,20.49879 20.8125,23.84375 63.01401,19.31905 118.39397,112.21251 171.56253,177.90625 95.7523,118.30942 178.6307,250.16383 271.0937,376.5625 -42.6664,-20.93599 -85.2881,-41.88117 -128.1562,-62.78125 C 1059.0142,631.65647 936.67743,582.30979 834.57227,505.02344 775.18194,455.57621 716.3451,404.53637 694.25977,339.42969 c -7.62958,-50.13806 29.92579,-108.26113 77.4375,-128.96875 12.96504,-5.42056 20.43567,-19.10317 17.96875,-32.9375 -2.46696,-13.83436 -14.21047,-24.11365 -28.25,-24.71875 -4.71824,-0.20666 -9.41865,0.70344 -13.71875,2.65625 -38.0002,16.56209 -70.53746,46.18679 -91.1875,82.4375 0.99018,-15.35772 3.18454,-31.05736 7.53125,-45.21875 1.0382,-3.37661 1.47196,-6.91006 1.28125,-10.4375 -1.00944,-18.64685 -4.17812,-31.59707 -8.28125,-42.59375 -4.10315,-10.99668 -8.55274,-20.82708 -15.90625,-46.312502 -1.77749,-6.135725 -5.46695,-11.544006 -10.53125,-15.4375 14.11135,-6.23562 31.8355,-11.271644 53.1875,-12.65625 4.30207,-0.275752 8.41663,-0.304641 12.59375,-0.40625 -11.64539,2.602633 -20.37499,12.979815 -20.375,25.40625 0,14.384922 11.67758,26.031252 26.0625,26.031252 14.38491,0 26.06252,-11.64633 26.0625,-26.031252 0,-12.790252 -9.24824,-23.390199 -21.40625,-25.59375 z M 827.13477,612.61719 c 61.07573,47.01453 126.40711,88.12227 190.46873,129.125 -0.4882,44.2379 0.6014,88.69997 4.7188,133.3125 -20.8544,-13.61984 -43.77362,-23.86345 -70.31253,-30.34375 -39.45605,-64.08827 -82.74668,-123.10257 -109.1875,-185.78125 -5.47886,-12.98774 -10.62623,-29.16407 -15.6875,-46.3125 z m -25.09375,101 c 27.53503,55.28354 62.67734,104.91961 93.65625,154.125 -5.94305,4.0278 -11.30418,8.19367 -15.59375,12.25 -1.111,1.05059 -1.72875,1.75222 -2.75,2.75 -17.02337,-19.57649 -37.80689,-35.46432 -61.875,-45.84375 0.93472,-35.13372 -4.75652,-77.45359 -13.4375,-123.28125 z m 290.59378,4.625 c 19.6939,9.73395 39.2665,19.52639 58.4687,29.625 0.2688,0.13951 0.5397,0.27494 0.8125,0.40625 78.7052,38.37218 157.3399,77.80191 236.9688,115.8125 56.134,67.6132 116.6895,130.37292 175,193.68746 -35.0849,5.8827 -70.1653,11.7735 -105.25,17.6563 -86.1789,-93.71269 -172.3525,-187.41239 -258.5313,-281.12501 -1.2132,-1.3138 -2.5413,-2.5165 -3.9687,-3.59375 -33.6299,-25.49846 -68.4315,-49.327 -103.5,-72.46875 z m -15.0938,62.4375 c 27.6002,18.31648 54.6234,36.95445 80.4688,56.46875 80.795,87.85802 161.5811,175.73326 242.375,263.59376 h -247.7813 c -22.1271,-24.5505 -73.6131,-46.8339 -97.625,-32.2188 -21.204,-1.8356 -45.1581,-0.8381 -69.56248,0.5625 l -8.34375,-151.84371 c 22.64652,11.58617 41.06593,28.41167 63.09373,54.59375 8.7746,10.39878 23.4484,13.59482 35.75,7.78125 12.3017,-5.81358 19.1511,-19.18125 16.6875,-32.5625 -10.1596,-54.82545 -14.2983,-110.28164 -15.0625,-166.375 z M 831.16602,920.89844 c 5.84008,6.65854 11.29599,14.07843 16.3125,22.40625 4.33456,7.18759 11.49403,12.23162 19.71875,13.90625 8.22469,1.67463 16.76258,-0.17326 23.5625,-5.09375 12.59926,-9.12143 20.26346,-17.88483 26.78125,-24.625 l 7.8125,142.56251 c -27.81861,-1.6937 -56.64483,-4.0765 -70,9.5312 -12.70828,-9.7979 -38.17852,-10.7115 -69.09375,-9.5937 z M 729.38477,1158.3672 h 174.1875 v 253.25 z"
         sodipodi:nodetypes="scccscscscsccscsccccccccccccccccccscccsccsscsssccccscssccccccscccccscccccsccccssscccccscccsccccccccccccccccccccsccccscccccccccc" />
      <rect
         style="fill:none;stroke:#ff0000;stroke-width:10;stroke-linecap:round"
         id="zone1"
         width="1145.9731"
         height="1080.0178"
         x="-667.7973"
         y="4.1222057"
         inkscape:label="gravity:te"
         inkscape:highlight-color="#ee3b3b" />
    </g>
  </g>
</svg>
