<?xml version="1.0" encoding="UTF-8" standalone="no"?>
<!-- Created with Inkscape (http://www.inkscape.org/) -->

<svg
   width="1800.3652"
   height="1797.2544"
   id="svg1290"
   version="1.1"
   xmlns="http://www.w3.org/2000/svg"
   xmlns:svg="http://www.w3.org/2000/svg"
   xmlns:rdf="http://www.w3.org/1999/02/22-rdf-syntax-ns#"
   xmlns:cc="http://creativecommons.org/ns#"
   xmlns:dc="http://purl.org/dc/elements/1.1/">
  <defs
     id="defs3" />
  <metadata
     id="metadata4">
    <rdf:RDF>
      <cc:Work
         rdf:about="">
        <dc:format>image/svg+xml</dc:format>
        <dc:type
           rdf:resource="http://purl.org/dc/dcmitype/StillImage" />
        <cc:license
           rdf:resource="http://creativecommons.org/licenses/by/2.0/" />
        <dc:subject>
          <rdf:Bag>
            <rdf:li>JSesh hieroglyph</rdf:li>
          </rdf:Bag>
        </dc:subject>
        <dc:creator>
          <cc:Agent>
            <dc:title>S. Rosmorduc</dc:title>
          </cc:Agent>
        </dc:creator>
        <dc:description>G17 sign from Abydos</dc:description>
      </cc:Work>
      <cc:License
         rdf:about="http://creativecommons.org/licenses/by/2.0/">
        <cc:permits
           rdf:resource="http://web.resource.org/cc/Reproduction" />
        <cc:permits
           rdf:resource="http://web.resource.org/cc/Distribution" />
        <cc:requires
           rdf:resource="http://web.resource.org/cc/Notice" />
        <cc:requires
           rdf:resource="http://web.resource.org/cc/Attribution" />
        <cc:permits
           rdf:resource="http://web.resource.org/cc/DerivativeWorks" />
        <cc:requires
           rdf:resource="http://web.resource.org/cc/ShareAlike" />
      </cc:License>
    </rdf:RDF>
  </metadata>
  <path
     id="path1312"
     style="color:#000000;display:inline;overflow:visible;visibility:visible;opacity:1;fill:#000000;fill-opacity:1;fill-rule:nonzero;stroke:none;stroke-width:7.96081;stroke-linecap:butt;stroke-linejoin:round;stroke-miterlimit:4;stroke-dashoffset:0;stroke-opacity:1;marker:none;marker-start:none;marker-mid:none;marker-end:none"
     d="M 691.625 0 C 658.54977 16.195985 596.99369 32.391324 547.38086 27.330078 C 501.44305 36.44032 448.15379 -9.1110828 407.72852 20.244141 C 357.19692 101.22407 311.25863 191.31468 305.74609 291.52734 C 298.49813 429.45901 299.10386 502.9202 350.69531 591.63867 C 348.13086 591.6122 345.793 591.61719 343.18359 591.61719 C 338.72826 591.61719 244.31747 591.72531 209.52734 593.67383 C 159.27494 596.48824 127.76049 621.09719 114.98438 652.36914 C 113.88206 652.34484 112.78329 652.33203 111.6875 652.33203 C 84.843102 652.33203 59.964078 659.69369 37.050781 674.41602 C 13.202148 689.7393 0.85164445 723.0441 0 774.33008 L 0 1113.0059 L 55.703125 1113.9434 L 55.703125 789.33984 C 51.444385 744.93364 57.194093 715.85143 72.951172 702.0918 C 87.395151 689.47879 92.069445 683.17188 105.86914 683.17188 C 107.12372 683.17188 108.45346 683.22394 109.87305 683.32812 C 107.3179 698.33865 122.22394 719.16716 154.58984 739.80664 C 192.91789 764.19874 234.86574 779.83499 280.43359 786.71484 C 308.55485 790.96056 331.32902 803.42353 343.14453 798.35156 C 367.94581 787.70533 404.72363 784.73248 463.63477 783.70117 C 519.53688 963.82247 597.60071 1303.586 623.63672 1407.0273 C 656.71195 1441.4438 582.2924 1629.7236 551.05469 1676.2871 C 517.0607 1727.9118 371.89767 1681.3474 311.25977 1722.8496 C 285.53459 1741.0701 274.75108 1786.5557 289.45117 1795.666 C 303.23252 1772.3842 332.39167 1763.3395 351.68555 1760.3027 C 333.31042 1781.56 397.62295 1771.4369 411.4043 1776.498 C 466.52967 1777.5103 522.57305 1784.5974 578.61719 1777.5117 C 593.31728 1770.4259 609.85477 1756.2538 596.99219 1782.5723 C 681.51776 1806.8662 800.03815 1791.6829 819.33203 1737.0215 C 846.89472 1681.3477 872.62097 1622.6373 890.99609 1561.9023 C 921.31505 1568.988 961.74046 1597.3312 986.54688 1580.123 C 1012.272 1560.8903 1038.9151 1470.7989 1053.6152 1411.0762 C 1056.3715 1398.9292 1083.0156 1398.9297 1087.6094 1410.0645 C 1115.172 1470.7994 1159.5149 1633.1232 1203.6152 1711.0664 C 1257.8218 1805.2055 1437.8983 1821.4013 1561.0117 1763.7031 C 1620.7309 1735.3602 1664.8313 1741.4332 1651.9688 1704.9922 C 1631.7562 1644.2572 1598.4378 1610.49 1561.6875 1558.8652 C 1614.9753 1595.3062 1668.2629 1632.7602 1721.5508 1669.2012 C 1734.4134 1720.8259 1804.2401 1681.3469 1770.2461 1641.8691 C 1668.5632 1479.993 1537.5278 1262.7266 1403.4023 1061.1289 C 1408.3339 1065.2204 1413.7657 1069.1289 1420.3184 1072.6641 C 1440.6218 1083.6176 1465.1579 1089.0957 1493.9277 1089.0957 C 1524.2958 1089.0957 1559.3802 1082.9936 1599.1816 1070.7891 C 1632.3922 1087.6075 1641.0314 1096.0156 1672.8945 1096.0156 C 1688.4278 1096.0156 1703.8007 1094.0167 1719.0137 1090.0195 C 1765.4333 1077.8233 1792.0517 1046.0827 1798.8652 994.79688 C 1805.6795 943.51098 1789.2837 883.47002 1749.6777 814.67188 C 1710.0719 745.87365 1655.3482 694.05499 1585.5059 671.22656 C 1517.5258 649.00676 1423.3195 637.89648 1302.8906 637.89648 C 1300.8891 637.89648 1194.9186 637.47 1081.4688 636.79492 C 1053.3962 607.41069 1026.1437 581.37956 1000.3281 560.78711 C 963.57786 525.35838 920.39642 498.02642 872.62109 484.86719 C 857.00224 440.32823 861.59576 380.60659 852.4082 329.99414 C 843.22064 229.78148 788.0944 63.771691 691.625 0 z M 683.35547 65.796875 C 737.56209 135.64206 785.33783 216.62114 794.52539 309.74805 C 803.71295 376.55649 806.46869 443.36593 815.65625 509.16211 C 772.47471 505.11311 785.33862 431.21778 793.60742 395.78906 C 800.95747 325.94388 766.96383 261.16126 743.07617 199.41406 C 726.53856 166.00985 710.91904 113.37162 668.65625 112.35938 C 621.79969 121.46962 591.48107 164.996 561.16211 202.44922 C 529.9244 168.03274 496.84755 130.57969 453.66602 116.4082 C 436.20964 109.32246 401.29788 135.64197 425.18555 103.25 C 440.8044 42.515055 501.44192 96.162976 541.86719 87.052734 C 589.64252 90.089482 638.33641 84.017354 683.35547 65.796875 z M 668.65625 142.72656 C 704.48774 152.84905 712.75652 207.51038 730.21289 239.90234 C 752.26304 296.58829 778.90754 358.33574 761.45117 422.10742 C 747.66983 452.4749 765.12462 490.94146 763.28711 513.21094 C 729.29312 539.52941 699.8933 598.23931 651.19922 585.08008 C 610.77395 575.96984 590.56193 533.45592 559.32422 513.21094 C 533.59904 540.54166 519.81675 601.27659 469.28516 584.06836 C 435.29117 575.97037 390.27233 580.01996 380.16602 534.46875 C 362.70963 487.9053 360.8715 436.28043 358.11523 385.66797 C 382.0029 390.72921 383.84217 364.4101 385.67969 342.14062 C 397.62352 292.54041 443.56149 287.47876 476.63672 316.83398 C 492.25557 336.06673 540.03015 351.25167 529.92383 381.61914 C 525.33005 399.83962 519.81722 419.07195 514.30469 438.30469 L 552.89258 494.99023 C 556.5676 465.63501 596.07438 441.34156 573.10547 411.98633 C 569.43044 398.82709 555.64881 381.61858 557.48633 371.49609 C 574.02393 339.10413 596.07365 310.76077 621.79883 286.4668 C 653.03654 253.06258 686.1131 310.76155 713.67578 314.81055 C 734.80717 289.50432 711.83843 279.38189 690.70703 266.22266 C 658.55056 232.81844 609.85641 243.95251 585.96875 282.41797 C 562.99984 297.6017 549.21773 359.34933 525.33008 318.85938 C 493.17361 290.51639 453.66592 258.1236 410.48438 268.24609 C 383.84044 274.31959 359.95392 335.05433 359.03516 332.01758 C 358.11641 284.44187 378.32961 241.9287 390.27344 195.36523 C 401.29852 144.75278 459.17988 129.5681 488.58008 171.07031 C 520.73655 184.22955 542.7861 255.08747 575.86133 229.78125 C 604.34277 196.37702 627.31222 156.89805 668.65625 142.72656 z M 622.71875 310.76172 C 597.91233 323.92097 567.59344 360.3601 613.53125 366.43359 C 635.5814 365.42134 686.11335 340.11572 676.92578 316.83398 C 659.46942 335.05448 641.09388 310.76172 622.71875 310.76172 z M 441.72266 319.87109 C 411.40371 327.96909 395.78529 364.40982 434.37305 372.50781 C 454.58568 374.53231 520.7355 343.15215 469.28516 336.06641 C 461.01634 329.99291 452.74774 319.87109 441.72266 319.87109 z M 787.17578 529.40625 C 800.03837 558.76148 821.17021 542.56674 836.78906 534.46875 C 858.83921 551.67698 935.09523 549.65278 890.07617 586.09375 C 882.27416 597.73986 864.65826 615.0588 841.78516 634.25195 C 714.51454 631.66475 620.66333 627.62747 564.0625 621.97266 C 533.62491 618.93177 509.94887 616.51177 492.49805 613.37695 C 518.71234 610.63556 543.08862 599.3399 556.56836 571.92188 C 567.59343 535.4809 591.4799 601.27734 617.20508 601.27734 C 655.79284 629.62032 706.32441 617.47221 735.72461 581.03125 C 753.18098 563.82302 769.71942 546.61448 787.17578 529.40625 z M 953.4707 604.3125 C 967.02752 612.90091 981.21547 623.60514 995.90039 636.07227 C 971.58167 635.86817 945.95177 635.72836 925.66211 635.48047 C 936.0238 624.66114 945.60521 614.10174 953.4707 604.3125 z M 374.89453 629.42383 C 380.5325 637.42367 386.59568 645.6281 393.08203 654.05469 C 381.6532 685.14111 359.97604 712.67233 327.83203 742.05664 C 318.33084 743.48369 309.68997 744.19727 301.375 744.19727 C 276.89182 744.19727 255.24034 733.44838 222.81445 721.07617 C 179.37604 704.50207 167.06527 695.21158 173.45312 672.07031 C 179.84118 648.92912 192.15204 641.01692 222.81445 636.32617 C 241.97852 633.3944 323.35617 634.17578 328.49805 634.17578 C 345.30401 634.17578 360.0738 631.94999 374.89453 629.42383 z M 459.94141 644.98242 C 548.64989 658.48045 636.30977 671.12123 738.45508 674.19531 C 748.79617 674.50653 771.9694 674.73773 788.16016 675.01562 C 750.84027 701.09706 708.42285 726.64746 667.28906 744.35547 C 623.3544 744.56538 577.82728 745.00226 540.45312 745.64844 C 520.75809 719.2099 500.3639 692.91394 478.47266 667.07227 C 475.4367 663.44863 466.92613 653.26368 459.94141 644.98242 z M 882.43359 676.32617 C 934.87446 676.84238 983.85932 677.23486 1040.2871 677.5918 C 1061.103 698.63783 1082.7526 723.02756 1104.7539 748.99805 C 973.50172 746.88273 867.05875 745.74048 786.89258 745.05078 C 823.30206 723.02226 855.3749 699.57969 882.43359 676.32617 z M 1119.1191 678.03516 C 1177.3586 678.3474 1251.0139 678.7631 1271.2148 678.88672 C 1373.4227 679.51194 1456.2545 685.60909 1519.709 697.17969 C 1583.1628 708.75029 1623.4946 732.1426 1669.4883 779.36328 C 1715.4819 826.5838 1741.8878 882.53023 1748.7012 956.33203 C 1755.2838 1027.6247 1743.719 1048.7324 1686.8379 1048.7324 C 1684.8367 1048.7324 1682.7862 1048.6959 1680.6875 1048.6211 C 1618.9365 1046.432 1620.5998 1039.9858 1609.1016 999.01953 C 1597.6031 958.05331 1569.8724 912.55259 1573.7051 862.51758 C 1577.538 812.48257 1544.1964 779.45985 1502.4609 772.58008 C 1460.7261 765.70023 1407.4934 759.75936 1342.7617 754.75586 C 1323.2067 753.24433 1257.6899 751.71818 1179.9453 750.25781 C 1159.3103 724.5322 1139.0686 700.63611 1119.1191 678.03516 z M 433.1582 702.64453 C 434.95559 704.72629 436.20398 706.46033 438.04883 708.57422 C 442.38165 719.41625 447.0992 732.8098 451.9707 747.25 C 409.98669 747.11864 401.34005 742.9756 416.37109 726.01562 C 422.60604 718.98056 428.06363 711.12756 433.1582 702.64453 z M 583.86523 782.86719 C 583.95294 782.86699 589.37115 782.93152 589.625 782.93359 C 593.05793 810.34078 640.85679 860.40453 659.46875 881.66992 C 802.79472 1023.3847 943.3645 1173.1984 1115.1719 1275.4355 C 1222.6663 1342.244 1335.6747 1401.9672 1439.4941 1475.8613 C 1489.107 1554.8167 1546.3115 1603.7668 1583.9805 1690.8203 C 1546.3115 1702.9673 1509.5604 1720.1763 1470.9727 1730.2988 C 1394.7158 1751.5561 1294.5725 1730.2981 1257.8223 1686.7715 C 1208.2094 1629.0732 1155.5967 1407.0276 1127.1152 1316.9375 C 1113.3338 1282.521 1080.2594 1326.0468 1073.8281 1314.9121 C 1070.153 1265.3119 1004.9218 1262.2761 1009.5156 1316.9375 C 1004.003 1380.7091 992.97674 1444.4815 965.41406 1502.1797 C 952.55148 1539.633 886.40183 1489.0196 845.97656 1477.8848 C 856.56352 1408.7963 781.65713 1087.6372 567.49609 782.9082 C 573.48098 782.89915 577.56567 782.88112 583.86523 782.86719 z M 713.28711 784.36328 C 811.92212 785.49043 934.55598 786.74023 1024.6387 786.74023 C 1062.2374 786.74023 1099.4849 786.81593 1136.4102 787.16992 C 1342.713 1044.1033 1577.8677 1458.1107 1639.7832 1541.6562 C 1501.9697 1445.4925 1365.992 1348.3167 1218.0723 1269.3613 C 1010.4334 1157.0017 833.11365 974.79612 664.0625 804.73828 C 681.07943 798.44764 697.46333 791.59614 713.28711 784.36328 z M 1210.002 788.61719 C 1296.9735 790.61552 1382.2678 794.79634 1465.4102 804.72656 C 1416.8615 833.04985 1392.9732 907.20568 1380.8848 967.5918 C 1376.2701 990.64363 1375.6949 1010.1184 1380.4648 1026.75 C 1323.2374 941.78284 1265.8274 860.83802 1210.002 788.61719 z M 1503.6836 824.62891 C 1525.8285 824.62891 1538.9619 830.93179 1532.5742 864.70508 C 1526.1862 898.47881 1536.0689 936.16187 1546.2891 989.63672 C 1555.1579 1036.0347 1519.8398 1057.47 1486.752 1049.4316 C 1443.2064 1038.8528 1421.9533 1016.7313 1440.2656 968.25977 C 1458.5778 919.78841 1459.3927 889.04907 1503.6836 824.62891 z M 538.19336 845.22852 C 654.87539 977.83314 762.36896 1313.9005 789.93164 1451.5664 C 744.91259 1411.0764 683.35555 1384.7573 669.57422 1359.4512 C 654.87411 1333.1327 614.45012 1077.0335 538.19336 845.22852 z M 724.70117 1476.873 C 754.10136 1496.1057 780.74392 1522.4242 812.90039 1536.5957 C 793.60651 1589.2327 781.66277 1647.9431 742.15625 1689.4453 C 721.02486 1726.8986 674.1678 1691.4691 640.17383 1694.5059 C 665.899 1623.6483 704.48853 1592.2694 724.70117 1476.873 z " />
</svg>
