<?xml version="1.0" encoding="UTF-8" standalone="no"?>
<svg
   width="1691.076"
   height="1799.998"
   version="1.1"
   id="svg1"
   xml:space="preserve"
   xmlns="http://www.w3.org/2000/svg"
   xmlns:svg="http://www.w3.org/2000/svg"><defs
     id="defs1" /><path
     id="path1"
     style="fill:#000000;stroke:none;stroke-width:100.125"
     d="M 615.41352,0 C 578.14645,0 543.00932,11.711725 510.00141,35.136719 484.44691,63.885532 463.68394,82.520872 447.71235,91.039062 336.97613,162.37876 269.36229,234.78274 244.87251,308.25195 c 0,30.87839 9.5841,39.92962 28.75,27.15235 50.04429,-88.37602 119.25288,-145.87484 207.6289,-172.49414 38.33179,11.71248 69.47815,14.64143 93.43555,8.78515 23.95731,-5.85621 43.3881,-6.92202 58.29492,-3.19531 14.9068,3.7267 13.04367,25.55546 -5.58984,65.48438 -18.6335,39.92898 -35.67018,88.64104 -51.10938,146.13867 -15.43919,57.49769 -9.31689,102.21899 18.36719,134.16211 47.91471,45.78519 143.74603,114.99574 287.49023,207.63086 23.42497,22.3602 33.53997,43.12317 30.34567,62.28906 -1.0648,88.37602 -25.55602,185.00469 -73.47067,289.88472 -47.91478,104.88 -101.15243,153.0611 -159.71484,144.543 -75.5988,0 -118.19052,15.971 -127.77344,47.9141 L 314.64062,1264.1545 229.99023,983.05488 372.13867,938.33417 356.16602,890.42011 214.01953,933.54316 C 252.35133,716.32973 210.8254,626.88909 89.44141,665.22089 c -120.319209,37.267 -102.751619,134.6931 52.70507,292.2793 L 0,1000.6232 l 15.9707,49.5117 140.55078,-43.123 81.45508,257.1426 H 0 v 55.9004 l 1131.2144,2.3924 231.5879,335.4043 v 142.1464 h 55.9004 v -533.4511 h -215.5352 c -1.0649,-26.6193 2.9278,-47.3824 11.9784,-62.2891 9.0506,-14.907 10.6489,-31.1442 4.793,-48.7129 -5.8563,-17.5687 -10.1154,-57.7643 -12.7774,-120.5859 -2.6619,-62.82152 -6.6546,-134.16172 -11.9785,-214.01955 h 196.4492 c 20.2307,0 59.629,17.56961 118.1914,52.70703 l 172.4922,-30.3457 c -34.0727,-48.97944 -91.5695,-89.44159 -172.4922,-121.38476 13.8421,3.1943 63.3534,20.23097 148.5352,51.10937 27.6841,-2.12953 37.7992,-18.10241 30.3458,-47.91601 -10.6477,-18.10112 -33.0073,-40.99366 -67.0801,-68.67774 -338.5974,-220.40772 -569.1217,-330.61133 -691.57035,-330.61133 -92.63512,0 -164.24174,16.77025 -214.81836,50.31055 C 664.65911,409.67118 668.11902,355.36773 725.61665,213.2207 783.11434,71.073698 746.38037,0 615.41352,0 Z m -35.73633,44.720703 c 7.5865,-1.064774 16.03872,-9.46e-4 25.35547,3.193359 18.63351,6.388679 25.55323,18.368789 20.76172,35.9375 -4.79142,17.568708 -15.43741,27.950228 -31.94141,31.144528 -16.50391,3.19438 -34.33995,-2.13057 -53.50586,-15.972652 1.06479,-19.165898 7.45359,-34.072998 19.16602,-44.720704 5.85625,-5.323853 12.57756,-8.517257 20.16406,-9.582031 z M 931.65185,360.95703 c 91.57045,5.32382 217.21405,54.57078 376.92965,147.73828 159.7157,93.16758 275.2423,166.90372 346.582,221.20703 -84.117,-29.8136 -158.6505,-44.7207 -223.6016,-44.7207 -195.918,0 -335.4029,-24.22476 -418.4551,-72.67187 -83.05235,-48.44711 -124.31382,-83.3178 -123.78117,-104.61329 0.53233,-21.2954 5.05802,-31.94336 13.57622,-31.94336 79.8579,0 124.04625,-19.16625 132.56435,-57.49804 l -30.3457,-9.58203 c -15.97155,19.16589 -45.51925,28.74804 -88.64255,28.74804 -43.1232,0 -64.68552,22.36163 -64.68552,67.08203 0,43.65563 45.25412,90.23812 135.75972,139.75 90.50555,49.51191 201.24205,74.26758 332.20895,74.26758 78.7932,0 141.3486,11.44725 187.6661,34.33985 46.3175,22.89252 79.0587,43.38905 98.2246,61.49023 l -95.8282,15.97266 c -13.8418,-28.74888 -88.9104,-43.125 -225.2011,-43.125 -80.9227,0 -140.0163,-22.89261 -177.2832,-68.67774 h -30.3457 c 57.4976,48.9795 85.4467,93.43437 83.8496,133.36328 -1.5972,39.92892 -7.1866,40.19536 -16.7696,0.79883 -9.5829,-39.39659 -64.4193,-69.7417 -164.50775,-91.03711 -5.3239,68.1454 -16.5046,62.28758 -33.541,-17.57031 -11.7125,-29.8136 -64.41734,-74.00203 -158.11719,-132.56445 -93.69991,-58.56249 -141.61651,-96.62661 -143.74609,-114.19532 -2.12951,-17.56871 27.95112,-44.72046 90.24023,-81.45507 62.28913,-36.73461 128.03981,-55.10352 197.25005,-55.10352 z M 131.0918,701.85566 c 57.41445,-0.46582 71.21401,75.69742 41.40039,228.49218 C 46.84917,805.76955 23.95656,731.23607 103.81445,706.74628 c 9.98223,-3.19431 19.07528,-4.82408 27.27735,-4.89062 z m 875.6264,91.93145 c 48.9795,13.84209 81.9872,38.86614 99.0235,75.06836 31.9431,87.31128 48.447,166.10393 49.5117,236.37893 1.0648,70.2749 -25.0211,108.0745 -78.2598,113.3984 -88.37605,0 -132.03345,15.971 -130.96875,47.9141 H 794.29633 C 924.19845,1028.038 995.00575,870.4507 1006.7182,793.78711 Z m 191.5781,528.66019 h 166.1035 v 241.1718 z m -917.97655,178.7179 c -78.38478,0 -162.72317,36.2116 -212.15821,85.6406 -50.69943,50.6993 -56.44336,117.4428 -56.44336,167.3887 v 19.4648 h 537.20313 v -19.4648 c 0,-49.9459 -3.79864,-116.6894 -54.49805,-167.3887 -49.42878,-49.429 -135.71877,-85.6406 -214.10351,-85.6406 z m 602.11625,3.8781 134.1055,258.793 h 50.8534 l -134.85735,-258.793 z m -113.0097,0.3769 -50.85356,0.377 134.85746,258.793 50.85535,-0.377 z m -488.06944,46.3192 c 59.0624,0 132.99688,30.3426 168.76953,66.1152 31.30168,31.3018 35.39214,72.7992 36.53906,111.3555 H 77.78459 c 1.16926,-38.5563 5.23373,-80.0537 36.54102,-111.3555 35.77263,-35.7726 107.96332,-66.1152 167.03125,-66.1152 z" /></svg>
