<?xml version="1.0" encoding="UTF-8" standalone="no"?>
<svg
   width="21.29907"
   height="17.982533"
   version="1.1"
   id="svg697"
   sodipodi:docname="US9G213VARA.svg"
   inkscape:version="1.2.1 (9c6d41e410, 2022-07-14)"
   xmlns:inkscape="http://www.inkscape.org/namespaces/inkscape"
   xmlns:sodipodi="http://sodipodi.sourceforge.net/DTD/sodipodi-0.dtd"
   xmlns="http://www.w3.org/2000/svg"
   xmlns:svg="http://www.w3.org/2000/svg">
  <defs
     id="defs701" />
  <sodipodi:namedview
     id="namedview699"
     pagecolor="#ffffff"
     bordercolor="#000000"
     borderopacity="0.25"
     inkscape:showpageshadow="2"
     inkscape:pageopacity="0.0"
     inkscape:pagecheckerboard="0"
     inkscape:deskcolor="#d1d1d1"
     showgrid="false"
     inkscape:zoom="25.679692"
     inkscape:cx="8.3723745"
     inkscape:cy="4.3224817"
     inkscape:window-width="1346"
     inkscape:window-height="1005"
     inkscape:window-x="1398"
     inkscape:window-y="1"
     inkscape:window-maximized="0"
     inkscape:current-layer="svg697" />
  <path
     id="path695"
     style="fill:#000000;stroke:none"
     d="M 4.0527344,0.01953125 C 3.7931023,0.02150593 3.5449629,0.03420168 3.328125,0.0390625 2.5963628,0.05884606 1.5993273,0.66014307 1.2441406,1.191772 0.82821997,1.8143051 0.14280956,3.5605552 0.4609375,4.5957031 0.77906451,5.630853 2.0978718,7.8695533 4.4179688,11.314453 c 0.067259,0.142843 0.1684059,0.170636 0.3046874,0.08203 0.1502324,-0.08121 0.1922595,-0.193095 0.125,-0.335937 C 4.0068223,9.5787028 3.487405,8.4007529 3.2890625,7.5273438 3.8805215,6.1075403 3.7736598,4.9421097 2.96875,4.0332031 2.1638398,3.1242952 2.0970168,2.5891671 2.5097656,1.7089844 2.9022098,0.87210996 5.9099583,1.1456017 6.2817619,2.0952182 6.5306365,2.730864 6.0588225,3.7099498 5.9257812,3.9863281 5.6368435,4.5865636 5.1119447,5.0248591 5.015625,5.8769531 4.9121663,6.7922579 5.095317,7.682923 5.4199219,8.7167969 c 0.4018688,1.2799618 1.7981752,2.3589141 2.1091084,3.2199591 0.3835999,1.062277 1.289572,2.582515 0.9983135,3.4109 -0.00108,0.0031 0.00977,0 0.00977,0 C 8.3047843,15.93781 7.9889834,16.656122 7.296875,17.275391 L 5.8769531,17.132812 c -0.6789092,0.09473 -0.9793336,0.395156 -0.9003906,0.900391 h 9.1660155 c -0.06111,-0.80302 -1.356619,-0.761331 -1.53125,-0.658203 -0.343468,-0.744534 -0.473617,-1.437935 -0.40858,-2.032727 0.07125,-0.651648 0.01015,-0.545296 0.01015,-0.545296 1.132702,0.06696 2.52439,0.0045 3.253811,0.12792 0.670494,0.113442 1.404103,0.161409 2.29891,1.274318 0.846795,1.053195 1.896926,1.012225 3.521484,-0.390625 -0.293394,-0.450646 -0.546563,-0.840754 -0.759765,-1.169922 0.558032,0.117938 0.804564,-0.01067 0.740234,-0.384766 C 20.852898,13.628873 20.00242,12.678226 18.714838,11.402342 17.427259,10.126458 15.448853,8.4606778 12.779297,6.40625 11.299591,5.3926312 8.0761718,4.9101563 8.0761719,4.9101562 8.4113074,3.4559556 8.341879,2.1775022 7.5642378,1.2404904 6.6944676,0.19246851 4.8316307,0.01360721 4.0527344,0.01953125 Z M 1.453125,3.7226562 c 0.2471913,0.0044 0.5830786,0.2071335 1.0097656,0.6074219 0.698195,0.9417028 0.8107909,2.0453279 0.3359375,3.3125 l -0.054687,0.052734 C 1.8450022,6.2897846 1.316121,5.306253 1.15625,4.7480469 0.99637713,4.189842 1.0436194,3.8589835 1.296875,3.7519531 1.34436,3.7318851 1.3960811,3.7216412 1.453125,3.7226562 Z m 0.8359375,1.6132813 c -0.05261,0.00339 -0.1090667,0.01806 -0.1679687,0.044922 C 1.9281716,5.4751878 1.8980591,5.6605316 2.0292969,5.9355469 2.1605336,6.2105639 2.3326101,6.296201 2.546875,6.1953125 2.7685325,6.0804737 2.8126679,5.8891337 2.6777344,5.6210938 2.5765328,5.4200664 2.4468923,5.3257557 2.2890625,5.3359375 Z m 6.5605469,1.0058594 c -0.9874507,0.084826 -1.5828551,0.5395053 -1.78125,1.3652343 -0.2338044,0.9731094 0.068534,1.7419796 0.9042968,2.3085938 2.0626578,1.818952 5.9564678,2.61526 11.8730468,4.537109 l 0.689453,1.160157 c -1.095386,0.864724 -1.897087,0.784842 -2.482422,-0.19336 -0.470781,-0.78676 -1.084183,-1.086028 -1.834088,-1.259926 -0.825713,-0.252114 -1.591685,-0.295306 -2.526531,-0.392786 -0.426766,0.03197 -0.977627,-0.04206 -1.682858,0.03712 -0.02154,-0.02452 -0.660523,-0.459636 -1.134674,-0.801312 C 10.697568,12.975073 9.487747,12.29286 9.140625,11.988281 8.2090997,11.170926 7.9658376,10.993354 7.15625,9.8535156 6.7335912,9.2584436 6.4306646,8.3100052 6.3105469,7.8300781 6.1855943,7.3308323 6.3677598,7.1728497 6.7460938,6.6953125 7.0821139,6.2711838 7.4697039,6.3585656 8.8496094,6.3417969 Z m 0.4433594,0.6660156 c 0.7989712,0.036856 1.5159432,0.067073 2.2128902,0.3457031 0.69695,0.2786297 2.589241,0.8029007 5.802735,3.4667964 2.244529,2.144178 3.3692,3.255644 3.375,3.335938 -1.858238,-0.2815 -8.47291,-2.640965 -10.466797,-3.710938 C 8.5762425,9.5649488 7.3902399,8.912999 7.671875,8.1289062 7.9535111,7.3448147 8.493997,6.9709566 9.2929688,7.0078125 Z m 1.9927052,7.5918925 c 0,0 0.122503,0.611735 0.127322,1.121415 0.004,0.424121 0.174051,0.89609 -0.344592,1.460568 -0.193551,0.210659 -1.1107846,0.252172 -1.1582028,0.0625 -0.1580606,-0.06322 -0.713506,-0.104014 -1.4082031,-0.05664 0.7381218,-0.95892 0.9075923,-1.347681 1.2304688,-1.861328 0.09832,-0.232588 -0.4286604,-1.84337 -0.3582829,-2.044397 0.099626,0.06754 0.851241,0.483339 1.160219,0.746465 0.170825,0.145475 0.751271,0.571417 0.751271,0.571417 z"
     sodipodi:nodetypes="scscccccscsscsssscccccscsscccsccsscccccsccccccccscccscccssssscssccssscscccccsc" />
  <g
     id="g731"
     transform="rotate(27.916481,54.838312,27.940575)" />
</svg>
