<?xml version="1.0" encoding="UTF-8" standalone="no"?>
<svg
   width="1793.91"
   height="1345.8826"
   version="1.1"
   id="svg1"
   xmlns="http://www.w3.org/2000/svg"
   xmlns:svg="http://www.w3.org/2000/svg">
  <defs
     id="defs1" />
  <path
     style="fill:#000000;stroke:none;stroke-width:75.0011"
     d="M 318.68136,55.851448 C 354.26163,13.53974 397.05413,-4.7312209 447.0589,1.0385616 572.07076,16.424632 637.94237,70.516308 644.67376,163.31358 c 6.73145,92.79723 14.42449,168.28515 23.07912,226.46373 8.65467,58.17859 18.03057,98.08624 28.12772,119.72294 14.02537,30.05441 68.5651,1.64531 120.88443,-56.2972 40.61671,-44.98207 85.61815,-99.9446 168.57976,-140.67232 52.70811,-25.87561 295.18941,-77.07309 483.86761,-81.89535 121.6614,-3.10944 213.0058,38.22776 243.2295,33.98905 33.3114,-6.33579 22.7677,7.84163 18.4744,19.09547 -36.8685,66.8444 -87.7546,165.15705 -159.1465,192.28395 -135.8087,51.60347 -316.7114,0.86312 -412.0892,75.95543 -61.1315,48.12971 -76.1676,123.36627 -89.1665,140.58109 228.4818,103.66334 263.2504,195.33852 494.7439,422.48403 22.0525,11.1979 68.2459,-68.8294 117.1344,-46.3843 54.0545,24.817 30.3747,50.0526 54.1765,72.14 27.9877,25.9719 62.4769,67.2401 56.7014,91.3664 -6.882,28.7496 -67.8415,46.038 -107.7031,51.217 -22.1867,2.8823 -49.682,44.2777 -97.284,21.7941 -36.0851,-17.0437 -33.9221,-76.6313 -62.0116,-74.2634 -144.2694,12.1612 -141.7962,15.1871 -141.9697,14.5772 -84.1844,32.4391 -97.171,22.689 -229.0024,3.2799 -4.8083,36.542 -18.7519,51.9283 -41.831,46.1582 -63.4675,-5.7698 -412.19506,21.3509 -488.16381,-17.1143 -75.96897,-38.4637 -129.82023,-58.177 -161.55404,-59.1387 75.00708,66.3525 121.44419,79.3892 127.21398,108.2381 -6.73142,17.3093 -7.58819,12.2566 -17.20447,18.988 -5.89689,-6.4117 -7.7979,-5.0444 -20.29908,-11.7757 -26.92562,-5.7697 -58.31033,-26.0735 -73.68015,-46.587 -11.82535,-15.7828 -18.43441,-5.3958 -49.20654,-19.8203 -75.00709,13.4628 -148.09094,14.4244 -219.25154,2.885 -33.65705,4.808 -52.88963,15.8668 -57.69775,33.1762 -11.53956,-9.6164 -16.3477,-21.1558 -14.42442,-34.6187 2.88484,-19.2326 22.83865,-31.2529 59.86142,-36.0611 37.02273,-4.8083 75.24751,-6.7313 114.67432,-5.7699 39.42682,0.9616 60.58268,-5.2891 63.46758,-18.7516 21.15585,-25.0025 55.05328,-37.7441 101.6923,-38.2249 46.63908,-0.48 385.50986,-44.1897 458.59368,-32.6499 C 876.90735,1094.4114 810.07411,1035.4444 736.99027,933.51163 641.95564,934.08157 398.67221,913.9472 317.86135,967.82751 228.45087,1027.4415 171.82011,1081.9105 72.13749,1182.4318 48.758559,1206.0074 22.499221,1210.368 15.714344,1216.3573 -15.595566,1146.1719 -2.5383276,839.79983 76.859494,716.71632 118.38402,652.34447 223.08561,687.84135 290.80143,668.94145 415.70091,634.08124 486.5136,623.97784 537.86085,571.43532 537.08032,549.33161 548.84761,505.12309 550.91492,471.27543 557.16245,368.98595 546.82796,308.03884 506.92034,287.3638 467.01273,266.68875 405.228,255.3896 321.5662,253.46638 277.33127,265.0059 223.48002,272.69893 160.01246,276.5455 l -1.44242,-11.5396 c 50.00472,-31.73377 87.02745,-58.17856 111.0682,-79.33442 -42.31171,2.8849 -80.77689,-1.92325 -115.39553,-14.42443 50.96633,-22.11752 90.87395,-28.84893 119.72287,-20.19426 C 256.65623,126.05042 215.78696,102.49052 151.35779,80.373049 V 65.948543 c 62.50595,-10.577902 118.28047,-13.9436 167.32357,-10.097095 z m 165.88108,67.794902 c -3.8465,23.07912 -17.30932,32.69541 -40.38844,28.84886 -27.88726,-3.84651 -39.90763,-16.82849 -36.06112,-38.94596 2.88488,-21.155852 16.82851,-31.252969 41.83087,-30.291358 25.96402,6.731398 37.50358,20.194208 34.61869,40.388458 z m -148.5718,79.33441 c 106.74093,4.80817 178.86317,25.96401 216.36671,63.46757 37.50353,37.50358 51.68756,115.3956 42.55208,233.67604 -9.13549,118.2804 12.02037,209.63521 63.46756,274.06444 51.44719,64.42915 85.82546,99.52866 103.13481,105.29844 79.81524,110.58735 158.18807,194.24905 235.11848,250.98525 l -36.06113,-103.8559 c -19.2326,-67.31411 -0.96152,-101.45199 54.81295,-102.41357 50.9663,2.88454 75.9687,13.46277 75.007,31.73378 -47.1198,-8.65468 -75.9687,-9.85672 -86.5466,-3.60605 -10.57798,6.25059 -16.82858,16.82851 -18.75183,31.7337 -1.92301,14.90538 9.37591,48.80264 33.89743,101.69234 24.5215,52.8897 36.1297,71.6067 49.5925,100.4556 4.8083,13.4627 -0.9615,18.7517 -17.3094,15.8668 -27.8872,-5.7698 -352.38473,5.7753 -463.47042,13.6926 103.85603,50.9663 469.89292,31.5387 540.09192,40.1935 -49.0432,-72.1223 -78.8537,-137.513 -89.4316,-196.1725 5.7698,-6.7314 10.0972,-10.0972 12.982,-10.0972 12.5012,1.9232 27.4064,27.647 44.7158,77.1709 17.3093,49.5238 41.1305,70.5274 55.5549,74.3738 120.2037,32.6956 181.6214,24.3691 220.6154,-6.8452 5.4841,12.3987 41.129,-9.757 168.326,-7.735 20.2088,0.3225 52.2764,70.2757 66.7528,77.9472 23.9088,12.6699 36.9987,-10.8677 69.2767,-20.3426 25.4538,-7.4725 55.2826,13.1825 64.6278,-28.586 5.7818,-25.8429 -24.2893,-24.3169 -34.2023,-42.53 -16.1823,-29.7314 -21.1809,-49.6341 -40.2172,-57.8101 -30.9976,-13.3133 -100.9635,62.7296 -117.2386,48.1329 C 1308.7645,947.42285 1291.1362,832.91449 1044.55,734.37124 c -11.5396,66.35279 -37.5036,94.96136 -77.89203,85.82585 -40.38839,-9.1358 -77.41115,-29.0897 -111.06817,-59.86181 92.31639,39.42679 143.04228,27.88728 152.1778,-34.61864 4.4073,-30.15572 47.0584,-133.72532 135.0121,-208.07336 83.841,-70.87153 285.5832,-41.68827 416.8658,-85.19153 60.206,-19.95051 96.8149,-102.00662 116.0368,-132.81727 -15.0599,3.84116 -90.7775,-35.77347 -199.8864,-31.3024 -176.9872,7.25259 -419.6465,60.24105 -468.2791,78.76389 -72.74366,27.70608 -114.78911,80.73734 -179.93805,157.77715 -66.02609,78.07706 -137.22753,89.0101 -158.38338,54.3914 C 648.03952,524.64588 633.37466,471.99666 625.2008,401.31691 617.02692,330.63713 607.89144,257.07248 597.79435,180.62293 587.69726,104.17333 537.93291,60.659593 448.50133,50.08169 408.1129,45.27352 376.37912,60.659593 353.29999,96.239903 367.72445,137.59 361.95466,173.17028 335.99064,202.98076 Z m 96.64383,-85.10419 c -0.96165,5.7698 2.88484,9.6163 11.53953,11.53953 8.65466,0.96166 13.94365,-1.9232 15.86692,-8.65459 0.96161,-7.69308 -3.36573,-12.50124 -12.98202,-14.42451 -8.65466,-0.96161 -13.46282,2.88491 -14.42443,11.53957 z M 315.84606,921.14444 C 397.63094,877.46223 643.7949,890.40867 687.94714,893.91167 663.90639,866.98605 531.39816,699.00409 543.75654,625.93839 512.52647,680.40725 423.90701,676.64239 297.98113,710.048 234.22802,726.96042 136.21257,700.47879 106.11696,751.75134 66.340817,819.51617 28.05505,1077.747 42.20834,1151.1442 86.620244,1070.9541 218.35743,973.21415 315.84606,921.14444 Z m 10.04749,-781.63118 c 6.73142,-41.35008 1.68286,-62.025127 -15.14565,-62.025127 -16.82854,0 -21.39628,5.769759 -13.70322,17.309348 7.69305,11.539569 17.30935,26.444829 28.84887,44.715779 z"
     id="path1" />
</svg>
