<?xml version="1.0" encoding="UTF-8" standalone="no"?>
<svg
   width="1719.1289"
   height="1800"
   version="1.1"
   id="svg1"
   xmlns="http://www.w3.org/2000/svg"
   xmlns:svg="http://www.w3.org/2000/svg">
  <defs
     id="defs1" />
  <path
     style="fill:#000000;stroke:none;stroke-width:100.116"
     d="m 443.3423,941.83667 c 100.69114,164.17043 176.75676,317.94343 228.19686,461.31873 10.9447,20.7951 31.73964,49.2513 62.38481,85.3687 16.41706,-26.2673 26.8145,-61.2903 31.19231,-105.0691 C 724.62094,1252.1188 617.36295,1104.9127 443.3423,941.83667 Z m 336.54933,549.97083 -36.11752,54.1764 -44.32595,-41.0426 c 0,31.7396 -11.49195,102.88 -34.47581,213.4214 55.81791,-4.3781 88.92563,-19.153 99.32318,-44.3259 10.3974,-25.1727 15.5961,-75.5184 15.5961,-151.0367 z m 896.37067,210.1383 13.1335,-13.1338 C 1669.6954,1650.5057 1581.0433,1524.0945 1423.4397,1309.5784 1265.836,1095.0624 1042.5642,864.67659 753.62445,618.42087 707.65669,642.49923 634.87443,654.5384 535.2777,654.5384 c -17.51153,0 -26.26729,11.49191 -26.26729,34.47571 0,40.49541 69.22522,118.20277 207.67566,233.1221 138.45037,114.91929 275.53268,221.35649 411.24693,319.31159 135.7142,97.955 224.3661,158.4245 265.9562,181.4082 65.668,42.6844 159.7925,135.7144 282.3731,279.0898 z M 106.79285,199.78626 c 39.40093,-1.09447 76.06566,3.2834 109.99417,13.13364 l 14.77536,64.02652 c -2.18896,-44.8733 9.30299,-71.14057 34.4758,-78.80187 25.17283,-7.66129 45.42053,-1.64171 60.74311,18.05876 15.32251,19.70047 16.41696,38.03285 3.28331,54.99715 -13.13356,16.96421 -22.43654,38.03273 -27.90888,63.20556 16.41705,30.64516 45.42048,45.42051 87.01029,44.32604 C 476.72356,283.51321 510.10488,206.90032 489.30994,148.89339 468.51501,90.886525 431.02942,56.137123 376.85321,44.645185 322.677,33.153245 272.33139,36.983892 225.8164,56.137123 179.30148,75.290355 139.62696,123.1734 106.79285,199.78626 Z M 72.31703,444.4002 c 2.188941,9.85022 6.84044,17.51151 13.954497,22.98386 7.114058,5.47236 25.993673,3.83065 56.638843,-4.92511 l 90.29371,-32.834 c 28.45623,41.58979 34.74943,83.45326 18.87961,125.59036 -15.86982,42.13704 13.40723,109.99414 87.83115,203.5713 74.42398,93.57714 157.6037,188.24877 249.53914,284.01489 91.93539,95.766 166.90654,209.3173 224.91346,340.6535 l 78.80187,78.8019 c 35.02298,-88.652 47.60936,-166.3594 37.75913,-233.1219 105.06916,65.6681 161.98156,113.2775 170.73716,142.8281 l 170.7374,343.1164 213.4216,-62.385 c -42.6843,-72.2349 -113.2776,-157.0562 -211.78,-254.464 C 704.92048,1000.938 434.03929,764.53257 461.40105,689.01411 c 0,-49.25109 33.38131,-74.42387 100.14394,-75.51834 96.31332,-5.47236 147.20617,-14.77536 152.67852,-27.909 -109.44698,-77.70733 -193.44751,-111.9095 -252.0016,-102.6065 -58.55418,9.303 -87.83125,-11.76556 -87.83125,-63.20567 -22.98389,0 -44.59964,-6.01956 -64.84727,-18.05865 -20.24771,-12.03918 -35.29667,-33.92859 -45.14691,-65.66823 -8.75576,8.75576 -18.05875,9.30301 -27.909,1.6417 -9.85023,-7.6613 -12.03916,-18.05875 -6.56682,-31.1924 h -22.98387 l -8.20853,-55.81789 C 173.5555,237.54548 132.5129,234.26208 75.600442,240.8289 l -13.133545,26.26728 c 18.60593,-10.9447 37.759123,-15.5962 57.459603,-13.9545 19.70046,1.64172 43.23158,7.38768 70.59334,17.23792 l -1.64171,6.56682 -24.62559,-1.6417 c -41.58987,-18.60601 -78.254597,-10.94474 -109.994171,22.98377 -8.755763,19.70048 -19.153231,45.96775 -31.192406,78.80187 3.283412,7.66129 10.671087,6.2932 22.163025,-4.10427 11.491939,-10.39747 25.446403,-6.2932 41.863392,12.31279 l -31.192305,4.92513 v 9.85022 l 59.101295,1.64172 v 9.85022 z m 0,-136.26148 c 2.188941,-32.83403 33.92859,-38.30636 95.21892,-16.41695 -51.44011,32.83404 -83.179746,38.30635 -95.21892,16.41695 z m 29.5507,105.06916 c -43.778748,5.47229 -60.19577,13.13354 -49.251067,22.98378 z M 261.11308,285.15484 c -10.94471,20.79495 -10.94471,32.01326 0,33.65497 10.94469,1.6417 18.87961,-3.0098 23.80473,-13.95449 4.9251,-10.94464 12.03916,-22.71016 21.34216,-35.29658 9.303,-12.5864 9.02938,-25.72004 -0.82085,-39.40093 -9.85023,-13.68088 -21.34218,-15.59621 -34.47582,-5.74597 -13.13365,9.85024 -16.41705,30.09791 -9.85022,60.743 z M 430.20865,416.4913 c -4.37789,21.88933 19.15319,28.45613 70.59324,19.70036 51.4401,-8.75577 116.83468,15.04897 196.18371,71.41419 79.34903,56.36516 133.25166,96.58691 161.70789,120.66527 l 339.83271,-356.24982 100.144,126.41123 372.6669,477.73592 c 22.9839,35.02299 29.5507,56.36516 19.7005,64.02652 -25.1727,15.32258 -52.5346,8.20853 -82.0852,-21.34218 6.5665,12.03918 10.9447,25.17282 13.1335,39.40093 2.1895,14.22805 -1.6419,25.17276 -11.4918,32.83413 -10.9447,6.56671 -22.4368,5.74586 -34.4759,-2.46267 -12.0391,-8.20853 -21.8893,-18.33235 -29.5507,-30.37146 13.1338,40.49534 7.662,68.95158 -16.417,85.36858 -9.8503,5.4724 -25.72,-9.8504 -47.6093,-45.96774 L 1223.1519,446.0419 c -8.7558,-20.79488 -22.4368,-32.83402 -41.0427,-36.11743 -19.7003,-2.18894 -37.2119,4.92512 -52.5345,21.34218 L 906.30286,672.59706 c 53.62899,43.77882 114.91934,101.78574 183.87094,174.02079 113.8248,120.39162 205.4867,226.28155 274.9855,317.66975 69.4987,91.3881 145.8381,197.0045 229.0177,316.8489 83.1797,119.8445 124.7696,193.4476 124.7696,220.8093 2.1885,27.3618 -15.3229,38.8535 -52.5347,34.4756 l -234.7635,-228.1966 116.5609,162.5284 -302.0736,96.8606 -187.1543,-389.0838 -87.01032,-67.3099 c 0,55.818 -20.2477,124.2223 -60.7431,205.213 -20.79487,-16.4171 -40.49534,-31.1923 -59.10141,-44.3259 v 77.1601 c 0,71.1404 -3.83064,124.2222 -11.49183,159.2454 22.98388,21.8892 53.90263,30.645 92.75626,26.2672 38.8537,-4.3782 62.6584,0.8209 71.4141,15.5962 8.7561,14.7752 7.6609,30.3714 -3.2838,46.7884 -16.41701,-15.3225 -29.82423,-17.7851 -40.22171,-7.3875 -10.39746,10.3974 -33.1077,12.8599 -68.13067,7.3875 l -513.85355,1.642 c -18.60599,-1.0946 -35.02305,-6.2933 -49.25116,-15.5963 -14.22805,-9.3029 -32.83402,-4.6513 -55.81789,13.9545 -1.09447,-50.3455 31.73961,-75.5183 98.50223,-75.5183 56.91239,16.417 105.88991,20.5214 146.93256,12.3126 41.04263,-8.2084 67.58354,-19.4266 79.62271,-33.6548 25.17275,-109.4469 35.02294,-196.4573 29.5506,-261.031 C 629.94916,1394.4 586.17051,1292.0669 497.51847,1132.2743 408.86644,972.48177 332.25358,847.71225 267.67989,757.96575 203.10622,668.21925 178.48066,602.82471 193.80324,561.78213 c 15.32251,-41.04263 16.9642,-66.48907 4.92502,-76.3393 L 119.9265,511.71011 C 98.205812,515.32684 75.333049,531.61645 57.54178,492.00965 L 47.691547,454.25042 C 35.652373,448.77807 33.463433,440.56957 41.124725,429.62495 32.368961,419.7747 31.274491,411.56614 37.841314,404.99926 l 3.283411,-11.49185 -31.1924063,4.92512 C -2.1068555,396.24359 -3.2013259,383.38356 6.6489076,359.85245 16.499142,336.32134 27.99108,304.30811 41.124725,263.81278 36.746843,251.7736 38.935784,237.54548 47.691547,221.12843 84.903472,114.96487 134.97545,49.296683 197.90751,24.123865 260.83948,-1.0488875 326.78126,-6.5212065 395.73283,7.7069086 464.68439,21.934957 508.18956,61.06224 526.24832,125.08875 c 18.05875,64.02645 15.59621,119.57079 -7.38768,166.63302 -22.98381,47.06216 -52.53448,88.652 -88.65199,124.76953 z M 1608.9524,867.96003 1265.8361,427.98312 1502.2416,935.26985 Z"
     id="path1" />
</svg>
