<?xml version="1.0" encoding="UTF-8" standalone="no"?>
<svg
   width="1800"
   height="1797.7579"
   version="1.1"
   id="svg5045"
   xmlns="http://www.w3.org/2000/svg"
   xmlns:svg="http://www.w3.org/2000/svg">
  <defs
     id="defs5049" />
  <path
     id="path5043"
     style="fill:#000000;stroke:none;stroke-width:100"
     d="M 441.64258 0 C 401.01529 0 362.18117 13.1434 325.13867 39.431641 C 296.46063 71.694475 273.15816 92.606692 255.23438 102.16602 C 130.9627 183.42053 55.086621 264.6751 27.603516 345.92969 C 27.603516 381.77725 38.356723 391.93438 59.865234 376.40039 C 116.02644 277.22209 193.0986 213.29327 291.08203 184.61523 C 335.29405 196.56442 370.84281 199.2537 397.72852 192.68164 C 424.61416 186.10958 446.42147 184.91351 463.15039 189.0957 C 479.87924 193.2779 477.79002 217.7745 456.87891 262.58398 C 435.96786 307.39347 416.84787 362.35929 399.52148 427.48242 C 382.19517 492.60556 389.06686 542.49385 420.13477 577.14648 C 473.90618 628.52803 581.44957 706.79626 742.76367 811.94922 C 769.05191 837.04253 780.40309 859.74501 776.81836 880.05859 C 775.62343 979.23696 747.84154 1087.6774 693.47266 1205.377 C 639.10384 1323.0766 579.65653 1377.1453 515.13086 1367.5859 C 430.29161 1367.5859 382.49456 1385.5098 371.74023 1421.3574 L 246.27344 1421.3574 C 225.95986 1369.9759 219.98522 1328.7516 228.34961 1297.6836 C 236.71407 1266.6157 268.37936 1232.5601 323.3457 1195.5176 L 165.61523 966.09375 C 152.47111 948.16997 157.84967 924.27141 181.74805 894.39844 C 212.81595 852.57621 208.63347 816.1304 169.20117 785.0625 C 115.42976 739.65561 65.242512 746.82633 18.640625 806.57227 C -12.427277 844.80969 -4.6604805 926.06433 41.941406 1050.3359 L 185.33203 1421.3574 L 111.84375 1421.3574 L 111.84375 1494.8457 L 1149.6328 1494.8457 L 1443.584 1795.9668 L 1443.584 1797.7578 L 1515.2793 1795.9668 L 1515.2793 1421.3574 L 1103.0312 1421.3574 C 1101.8363 1391.4845 1106.3178 1368.483 1116.4746 1352.3516 C 1126.6313 1336.2202 1128.4236 1317.9973 1121.8516 1297.6836 C 1115.2795 1277.3699 1110.499 1232.2622 1107.5117 1162.3594 C 1104.5245 1092.4566 1100.045 1012.097 1094.0703 921.2832 L 1314.5332 921.2832 C 1337.2366 921.2832 1381.4474 940.99928 1447.168 980.43164 L 1640.7461 946.37695 C 1602.5087 891.41061 1537.3858 846.60185 1445.377 811.94922 C 1462.1059 814.33902 1518.2659 832.85902 1613.8594 867.51172 C 1643.7323 865.12185 1655.0855 847.198 1647.916 813.74023 C 1634.7718 793.42659 1609.0811 767.73587 1570.8438 736.66797 C 1192.0543 489.31968 933.94903 365.64648 796.5332 365.64648 C 692.57524 365.64648 612.21766 384.76452 555.45898 423.00195 C 498.70031 461.23938 502.28469 400.29893 566.21289 240.17969 C 630.14109 80.060448 588.6177 0 441.64258 0 z M 1141.8652 2.2265625 C 1141.8652 133.06643 1190.713 198.48828 1288.4062 198.48828 L 1603.7305 198.48828 L 1603.7305 199.79492 C 1538.3105 222.47408 1504.9451 269.35983 1503.6367 340.44922 C 1502.3281 411.53932 1486.8468 445.77455 1457.1895 443.1582 C 1449.3391 440.54122 1448.9027 430.94579 1455.8809 414.37305 C 1462.8593 397.79953 1472.8903 379.26342 1485.9746 358.76562 C 1499.0586 338.26705 1503.4197 319.51492 1499.0586 302.50586 C 1494.6971 285.49608 1486.6288 274.59172 1474.8535 269.79492 C 1463.0775 264.99735 1451.0825 265.21524 1438.8711 270.44922 C 1434.5096 266.0879 1428.4036 264.99715 1420.5527 267.17773 C 1412.7027 269.35846 1405.7245 271.75801 1399.6191 274.375 C 1393.5132 276.99199 1390.4609 281.35327 1390.4609 287.45898 C 1390.4609 296.18161 1394.1685 301.84988 1401.582 304.4668 C 1408.9966 307.08378 1416.6285 307.51979 1424.4785 305.77539 C 1416.6285 316.24249 1413.1401 336.5241 1414.0117 366.61719 C 1414.8843 396.7102 1415.3203 421.78729 1415.3203 441.84961 C 1418.8089 461.03934 1437.3453 469.98072 1470.9277 468.67188 C 1504.5097 467.36388 1522.3914 432.6903 1524.5723 364.6543 C 1526.7529 296.61737 1553.1389 249.95169 1603.7305 224.65625 L 1603.7305 660.35156 C 1734.5704 660.35156 1799.9902 614.55873 1799.9902 522.9707 L 1799.9902 96.431641 C 1799.9902 69.391068 1791.4864 46.930431 1774.4766 29.048828 C 1757.4676 11.167219 1732.8245 2.2265625 1700.5508 2.2265625 L 1141.8652 2.2265625 z M 1700.5508 23.162109 C 1724.9746 23.162109 1743.7286 29.703108 1756.8125 42.787109 C 1769.8965 55.871081 1776.4395 73.31641 1776.4395 95.123047 C 1777.312 120.41916 1770.5501 140.4814 1756.1582 155.31055 C 1741.7651 170.13888 1723.2291 177.55273 1700.5508 177.55273 C 1678.7443 176.68092 1660.8631 167.95826 1646.9062 151.38477 C 1632.9508 134.81199 1625.9727 116.49316 1625.9727 96.431641 C 1626.8454 73.752401 1633.8224 55.871081 1646.9062 42.787109 C 1659.9902 29.703108 1677.8717 23.162109 1700.5508 23.162109 z M 1165.416 25.779297 L 1250.4629 25.779297 C 1250.4629 83.349137 1294.5121 112.13281 1382.6113 112.13281 L 1603.7305 112.13281 C 1603.7305 127.83371 1615.5058 148.76757 1639.0566 174.93555 L 1277.9395 174.93555 C 1202.9245 174.93555 1165.416 125.21731 1165.416 25.779297 z M 1274.0137 25.779297 L 1633.8223 25.779297 C 1613.7608 45.84155 1603.7305 67.21143 1603.7305 89.890625 L 1382.6113 89.890625 C 1310.213 89.890625 1274.0137 68.519991 1274.0137 25.779297 z M 403.33008 50.410156 C 411.84389 49.364591 421.3296 50.784473 431.78516 54.667969 C 452.69627 62.434961 460.46307 75.87738 455.08594 94.996094 C 449.70881 114.11481 437.7596 125.46605 419.23828 129.05078 C 400.71703 132.63558 380.70187 126.66094 359.19336 111.12695 C 360.38829 89.618441 367.55712 72.890594 380.70117 60.941406 C 387.27323 54.966779 394.81627 51.455722 403.33008 50.410156 z M 1776.4395 165.77734 L 1776.4395 522.9707 C 1776.4395 597.98515 1726.2834 635.92812 1625.9727 636.80078 L 1625.9727 551.75586 C 1684.4144 551.75586 1713.6348 507.70659 1713.6348 419.60742 L 1713.6348 198.48828 C 1732.8246 198.48828 1753.7601 187.58397 1776.4395 165.77734 z M 1625.9727 198.48828 L 1690.084 198.48828 L 1690.084 419.60742 C 1690.084 492.00566 1668.7135 528.20508 1625.9727 528.20508 L 1625.9727 198.48828 z M 1423.0078 277.97266 C 1426.6057 277.97273 1429.713 278.95328 1432.3301 280.91602 C 1444.5416 279.17162 1455.444 279.82573 1465.0391 282.87891 C 1474.6335 285.93144 1480.5222 294.218 1482.7031 307.73828 C 1484.8836 321.25862 1481.6135 334.56058 1472.8906 347.64453 C 1464.168 360.72854 1455.8813 376.21099 1448.0312 394.0918 C 1440.1804 411.97339 1436.4721 423.53173 1436.9082 428.76562 C 1437.3446 433.99946 1436.0378 436.83321 1432.9844 437.26953 C 1429.9313 437.70586 1428.4043 433.56248 1428.4043 424.83984 L 1428.4043 371.84961 C 1428.4043 344.37273 1429.4952 326.92753 1431.6758 319.51367 C 1433.8564 312.09912 1437.5629 307.30189 1442.7969 305.12109 C 1448.0308 302.94058 1455.8807 301.84961 1466.3477 301.84961 C 1468.0921 301.84961 1468.0921 297.48818 1466.3477 288.76562 C 1455.0081 286.14934 1442.7969 287.89436 1429.7129 294 C 1427.0959 294.87252 1423.6075 295.30859 1419.2461 295.30859 C 1414.8847 295.30859 1411.8303 292.25617 1410.0859 286.15039 C 1410.9584 281.78907 1414.0121 279.17142 1419.2461 278.29883 C 1420.5543 278.08088 1421.8085 277.97263 1423.0078 277.97266 z M 1424.4785 280.42578 C 1423.17 280.31672 1421.8612 280.47972 1420.5527 280.91602 C 1417.0641 282.66034 1415.3203 284.842 1415.3203 287.45898 C 1417.0647 289.20331 1419.6813 290.29226 1423.1699 290.72852 C 1426.6588 291.16485 1429.0592 290.07596 1430.3672 287.45898 C 1431.6762 284.842 1431.0204 282.87916 1428.4043 281.57031 C 1427.0958 280.91631 1425.787 280.53484 1424.4785 280.42578 z M 798.32617 405.07812 C 901.08927 411.05272 1042.0901 466.31755 1221.3281 570.87305 C 1400.5661 675.42854 1529.6177 758.17827 1608.4824 819.11914 C 1515.2786 785.66137 1432.2319 768.93164 1359.3418 768.93164 C 1139.4766 768.93164 982.94202 741.74772 889.73828 687.37891 C 796.53457 633.01009 749.93164 593.87501 749.93164 569.97656 C 749.93164 546.07819 755.3102 534.12891 766.06445 534.12891 C 855.68343 534.12891 904.6746 512.62061 913.03906 469.60352 L 880.77539 458.84961 C 862.85161 481.55292 829.69311 492.60515 781.29883 492.00781 C 732.90461 491.41035 708.70703 516.20596 708.70703 566.39258 C 708.70703 615.38433 759.49238 667.66282 861.06055 723.22656 C 962.62875 778.79031 1086.8999 806.57227 1233.875 806.57227 C 1322.299 806.57227 1392.5015 819.41665 1444.4805 845.10742 C 1496.4595 870.7982 1533.2024 893.80159 1554.7109 914.11523 L 1447.168 932.03906 C 1431.634 899.77623 1347.393 883.64453 1194.4434 883.64453 C 1103.6295 883.64453 1037.3105 857.95381 995.48828 806.57227 L 961.43359 806.57227 C 1024.7641 861.53854 1055.8314 911.42684 1054.6367 956.23633 C 1053.4418 1001.0456 1047.4671 1001.3428 1036.7129 957.13086 C 1025.9586 912.91877 963.82214 878.86322 850.30469 854.96484 C 845.52503 931.4397 832.97966 924.86898 812.66602 835.25 C 800.71683 801.79223 742.16468 752.20296 637.01172 686.48242 C 531.85882 620.76182 478.08713 578.04235 475.69727 558.32617 C 473.30747 538.60999 507.064 508.14071 576.9668 466.91602 C 646.86959 425.69126 720.65645 405.07812 798.32617 405.07812 z M 108.31641 804.07812 C 118.28652 805.14236 128.42428 810.15722 138.73047 819.11914 C 160.23898 837.04292 156.6546 859.74534 127.97656 887.22852 C 96.908662 917.10149 95.116505 950.55907 122.59961 987.60156 L 257.02734 1186.5566 C 222.37471 1203.2856 197.87811 1230.7684 183.53906 1269.0059 L 81.375 1000.1484 C 47.917233 911.72439 40.74652 855.56251 59.865234 831.66406 C 75.548552 811.49979 91.699548 802.3044 108.31641 804.07812 z M 882.56836 890.8125 C 936.33971 906.34648 973.38167 935.0255 993.69531 976.84766 C 1029.5432 1073.6362 1048.0651 1161.4635 1049.2598 1240.3281 C 1050.4547 1319.1928 1021.1796 1361.6113 961.43359 1367.5859 C 862.25523 1367.5859 812.66602 1385.5098 812.66602 1421.3574 L 644.18164 1421.3574 C 789.96176 1153.6954 869.42417 976.84668 882.56836 890.8125 z M 1239.252 1494.8457 L 1443.584 1494.8457 L 1443.584 1699.1777 L 1239.252 1494.8457 z " />
</svg>
