<?xml version="1.0" encoding="UTF-8" standalone="no"?>
<svg
   width="1800"
   height="1269.9822"
   id="svg2241"
   version="1.1"
   xmlns="http://www.w3.org/2000/svg"
   xmlns:svg="http://www.w3.org/2000/svg"
   xmlns:rdf="http://www.w3.org/1999/02/22-rdf-syntax-ns#"
   xmlns:cc="http://creativecommons.org/ns#"
   xmlns:dc="http://purl.org/dc/elements/1.1/">
  <metadata
     id="metadata2248">
    <rdf:RDF>
      <cc:Work
         rdf:about="">
        <dc:format>image/svg+xml</dc:format>
        <dc:type
           rdf:resource="http://purl.org/dc/dcmitype/StillImage" />
      </cc:Work>
    </rdf:RDF>
  </metadata>
  <defs
     id="defs2246" />
  <path
     id="path2243"
     style="fill:#000000;stroke:none;stroke-width:75.7567"
     d="M 622.42836,0 C 400.04692,0.979627 269.99693,41.881082 232.28025,122.70137 194.5636,203.52161 167.13373,278.7089 149.98979,348.26332 132.84586,417.81768 98.20993,515.09096 59.513596,554.27656 20.817262,593.46211 0.97964031,654.20098 0,736.49065 c 0.97964031,92.08604 39.676462,148.90366 116.08949,170.45571 -0.68092,58.39887 -33.583785,169.30344 1.56768,205.54094 21.5638,-29.9144 36.44043,-146.62434 62.05211,-190.98442 24.49453,42.42513 67.38999,164.45552 71.5725,194.10812 16.65407,-3.9184 20.81806,-29.8785 12.49103,-77.8808 -8.32707,-48.0024 -15.43008,-100.41323 -21.30801,-157.23242 1.95933,-81.30998 -2.93843,-135.43519 -14.6943,-162.37523 -11.75585,-26.94004 -10.0417,-67.35036 5.14291,-121.23061 15.18466,-53.88014 42.71753,-143.80785 69.16818,-183.97307 26.45067,-40.16523 57.79985,-60.00249 94.04707,-59.51271 36.2472,0.4899 107.51634,37.22743 213.80868,110.21052 106.29244,72.98318 161.39856,124.65839 165.31725,155.02721 0,133.23093 -12.24551,256.34431 -36.73673,333.73581 v 0 c 0,16.6538 -25.22647,27.4294 -75.67869,32.3278 -50.45229,4.8982 -90.37393,13.7153 -119.76355,26.4505 -65.63678,0 -99.43394,21.5513 -101.39325,64.6555 22.53209,-17.6337 43.59453,-18.1226 63.18765,-1.4688 l 755.07558,-1.4708 c 0.9799,-11.7556 -43.1116,-26.9398 -56.3373,-45.5529 -13.2251,-18.6129 -36.493,-31.8387 -69.8014,-39.6759 -20.5726,-18.6133 -24.49,-142.70681 -11.7545,-336.67543 100.9045,-17.63353 184.1742,-52.41045 249.8108,-104.33134 85.2301,-13.71494 173.8905,-17.1431 265.9781,-10.28568 59.7585,-21.55196 102.6177,-48.98332 128.5786,-82.29117 25.9612,-33.30773 36.9815,-83.75808 33.0627,-151.3532 C 1201.8938,100.90463 809.54218,0 622.42836,0 Z m -82.29043,54.371819 c -52.90142,3.91856 -78.37246,33.7978 -76.41312,89.637251 0,57.7987 46.53364,120.24962 139.60077,187.35498 93.06721,67.10522 188.33775,111.92416 285.8133,134.45587 97.4754,22.53175 176.09232,30.36847 235.85112,23.51093 59.759,-6.85737 144.5002,-24.24473 254.2214,-52.16469 109.7211,-27.91974 195.9318,-41.88098 258.6299,-41.88098 l 105.8017,-1.46882 c 0,37.22625 -35.7579,72.49236 -107.2724,105.80017 -93.0671,0 -165.3164,0.24622 -216.7484,0.73635 -51.4317,0.48983 -93.3124,14.9383 -125.6409,43.34785 -32.3285,28.40952 -102.8637,51.92155 -211.6054,70.53474 l -24.9821,2.93959 C 929.05925,601.5007 799.50027,544.19019 668.71651,445.24665 537.9327,346.30309 447.31531,297.07732 396.8631,297.56745 c -50.45213,0.48984 -94.78254,29.63333 -132.98903,87.43207 -38.2065,57.79869 -70.14796,156.05235 -82.39365,208.95283 -12.24567,52.90067 -9.79581,94.78038 7.34813,125.63903 17.14393,30.85865 23.75577,81.06426 19.83722,150.61879 -14.69482,3.91825 -28.65434,1.47063 -41.87965,-7.34608 -13.22538,-8.81663 -25.71534,-1.46908 -37.47117,22.04211 C 69.556063,858.45606 39.185228,808.49289 38.205589,735.01988 37.225898,664.48583 57.065457,607.17723 97.721124,563.09341 138.37679,519.00963 175.21607,417.81697 194.80908,345.32373 214.40219,272.83039 242.81237,206.46015 280.03917,146.21231 317.26607,85.964519 403.966,55.351439 540.13793,54.371819 Z m 108.74135,4.40842 c 113.63973,-2.93894 254.95478,18.36789 423.94522,63.921131 168.9902,45.5532 374.4733,109.96479 616.4478,193.23418 36.2469,8.81673 54.3707,23.02067 54.3707,42.61344 h -107.2724 c -103.8433,-0.97958 -226.7906,18.85771 -368.8402,59.51272 -142.0501,40.65505 -269.89465,41.87996 -383.53443,3.674 C 770.35613,383.52979 679.73678,337.48796 612.14061,283.60777 544.5446,229.72758 510.99241,181.23398 511.48179,138.12987 511.97163,95.025719 557.77141,68.576599 648.87928,58.780239 Z M 881.05633,621.58348 c 48.00319,14.6947 92.08886,23.51172 132.25467,26.45053 17.6338,105.80113 26.4509,220.09752 26.4509,307.28529 -6.8576,22.5317 -28.9004,33.0631 -66.12736,31.5934 -37.22696,-1.4694 -66.6172,4.6533 -88.16972,18.3682 h -67.59614 c 1.95916,-65.63574 23.02191,-205.40287 63.18765,-383.69742 z M 95.515911,749.71591 c -19.593064,0.97978 -29.388616,15.67282 -29.388616,44.08227 1.959282,27.42989 12.735136,40.65531 32.328254,39.67579 23.511681,-0.97961 33.307231,-14.20525 29.388621,-39.67579 0.97963,-31.34843 -9.79623,-46.04147 -32.328259,-44.08227 z m 79.406339,338.63119 c -59.55466,14.8422 -43.28221,100.4479 -11.33418,136.0274 18.05011,36.1718 82.39488,71.0194 104.33677,19.7963 19.22756,-55.4416 -20.92375,-111.0449 -61.61031,-145.1001 -9.15911,-6.4245 -20.07165,-10.8121 -31.39228,-10.7236 z m 151.19644,0 c -59.5552,14.8444 -43.27931,100.4451 -11.33224,136.0255 18.04856,36.173 82.39345,71.0208 104.33482,19.7982 19.2276,-55.4416 -20.92372,-111.0449 -61.61028,-145.1001 -9.15913,-6.4245 -20.07166,-10.8121 -31.3923,-10.7236 z m 151.50144,0 c -59.55466,14.8421 -43.28221,100.4479 -11.33418,136.0274 18.0501,36.1718 82.39487,71.0194 104.33676,19.7963 19.22758,-55.4416 -20.92372,-111.0449 -61.6103,-145.1001 -9.15912,-6.4245 -20.07165,-10.8121 -31.39228,-10.7236 z m 159.95851,0 c -59.55521,14.8444 -43.2793,100.4451 -11.33224,136.0255 18.04857,36.173 82.39346,71.0208 104.33483,19.7982 19.22758,-55.4416 -20.92373,-111.0449 -61.6103,-145.1001 -9.15911,-6.4245 -20.07166,-10.8121 -31.39229,-10.7236 z m 151.49949,0 c -59.55465,14.8421 -43.2822,100.4479 -11.33417,136.0274 18.05012,36.1718 82.39489,71.0194 104.33676,19.7963 19.22758,-55.4416 -20.92373,-111.0449 -61.61029,-145.1001 -9.15911,-6.4245 -20.07167,-10.8121 -31.3923,-10.7236 z m 154.11714,0 c -59.5552,14.8444 -43.2793,100.4451 -11.33224,136.0255 18.04856,36.173 82.39337,71.0208 104.33487,19.7982 19.2275,-55.4416 -20.9238,-111.0449 -61.61034,-145.1001 -9.15911,-6.4245 -20.07165,-10.8121 -31.39229,-10.7236 z m 150.04103,0 c -59.5546,14.8422 -43.2821,100.4479 -11.3342,136.0274 18.0498,36.1712 82.3955,71.019 104.3369,19.7963 19.2276,-55.442 -20.9233,-111.0447 -61.6103,-145.1001 -9.1592,-6.4245 -20.0716,-10.8121 -31.3924,-10.7236 z m 151.1964,0 c -59.5551,14.8443 -43.2791,100.4451 -11.332,136.0255 18.0481,36.1725 82.394,71.0203 104.3347,19.7982 19.2278,-55.442 -20.9234,-111.0447 -61.6103,-145.1001 -9.1591,-6.4245 -20.0716,-10.8121 -31.3924,-10.7236 z m -1069.2973,32.9691 c 35.02811,15.4745 60.46702,55.3472 65.03824,93.0478 -5.2918,56.5914 -62.28878,-16.5132 -67.59807,-40.6756 -5.10227,-16.6752 -7.4379,-37.0134 2.55983,-52.3722 z m 151.19644,0 c 35.02813,15.4745 60.46703,55.3472 65.03827,93.0478 -5.29231,56.5917 -62.28672,-16.5136 -67.59616,-40.6756 -5.10295,-16.675 -7.44036,-37.0134 2.55789,-52.3722 z m 151.50144,0 c 35.02811,15.4745 60.46702,55.3472 65.03825,93.0478 -5.29182,56.5914 -62.28879,-16.5132 -67.59809,-40.6756 -5.10226,-16.6752 -7.43789,-37.0134 2.55984,-52.3722 z m 159.95851,0 c 35.02813,15.4745 60.46703,55.3472 65.03826,93.0478 -5.2923,56.5917 -62.28671,-16.5136 -67.59614,-40.6756 -5.10296,-16.675 -7.44037,-37.0133 2.55788,-52.3722 z m 151.4995,0 c 35.02812,15.4745 60.46702,55.3472 65.03825,93.0478 -5.29181,56.5914 -62.28879,-16.5132 -67.59808,-40.6756 -5.10226,-16.6752 -7.43791,-37.0134 2.55983,-52.3722 z m 154.11713,0 c 35.02812,15.4745 60.46708,55.3472 65.03828,93.0478 -5.2924,56.5917 -62.28674,-16.5136 -67.59616,-40.6756 -5.10297,-16.675 -7.44036,-37.0133 2.55788,-52.3722 z m 150.04108,0 c 35.0282,15.4745 60.467,55.3472 65.0383,93.0478 -5.2919,56.5914 -62.2889,-16.5132 -67.5982,-40.6756 -5.1022,-16.6752 -7.4379,-37.0134 2.5599,-52.3722 z m 151.1965,0 c 35.0281,15.4745 60.467,55.3472 65.0382,93.0478 -5.2924,56.5917 -62.2866,-16.5136 -67.5961,-40.6756 -5.1029,-16.675 -7.4404,-37.0133 2.5579,-52.3722 z" />
</svg>
