<?xml version="1.0" encoding="UTF-8" standalone="no"?>
<svg
   width="1603.3828"
   height="1797.7578"
   version="1.1"
   id="svg1"
   xmlns="http://www.w3.org/2000/svg"
   xmlns:svg="http://www.w3.org/2000/svg">
  <defs
     id="defs1" />
  <path
     id="path1"
     style="fill:#000000;stroke:none;stroke-width:100"
     d="M 496.74805,0 C 459.14315,0 423.35827,11.524089 389.39258,34.572266 362.7052,64.898768 341.47682,84.30737 325.70703,92.798828 211.67928,165.58249 141.92737,239.57927 116.45312,314.78906 c 1e-5,31.53957 10.31155,41.24387 30.9336,29.11328 50.94855,-90.97958 121.30575,-150.41987 211.07226,-178.32031 40.03103,12.13059 72.48184,15.16487 97.34961,9.09961 24.86771,-6.06532 44.58001,-7.27982 59.13672,-3.64062 14.55679,3.63919 12.43337,26.08214 -6.36914,67.32617 -18.80238,41.24409 -36.08764,91.28176 -51.85742,150.11523 -15.76985,58.83347 -9.70513,104.62822 18.19531,137.38086 49.73548,46.09629 147.99306,117.06075 294.77344,212.89258 24.26125,24.26125 35.18003,45.48963 32.75391,63.68555 -1.21307,90.97958 -26.68835,190.14606 -76.42383,297.50199 -49.73555,107.3559 -104.32373,156.7883 -163.76367,148.2968 -77.63593,0 -121.30531,16.3763 -131.00977,49.1289 H 0 v 80.0625 h 1184.877 l 338.4453,249.2852 v 171.041 h 80.0605 l -0.3203,-422.1445 v -78.2442 h -504.0293 c -1.2131,-27.9003 3.0338,-49.1287 12.7383,-63.6855 9.7047,-14.5567 11.5243,-31.2366 5.459,-50.0391 -6.0653,-18.8023 -10.6138,-60.0447 -13.6465,-123.7304 -3.0327,-63.6857 -7.5832,-136.77357 -13.6485,-219.26176 h 201.9766 c 21.8351,0 62.4721,18.19613 121.9121,54.58789 l 176.5,-30.93359 c -35.1787,-49.73542 -94.0118,-91.58501 -176.5,-125.55078 13.3437,3.6392 64.2923,20.6207 152.8457,50.94726 27.9004,0 38.2119,-15.76895 30.9336,-47.30859 -12.1306,-19.40898 -35.1788,-43.06447 -69.1445,-70.96484 C 1181.5234,444.58724 944.97475,331.16602 818.81641,331.16602 c -94.61871,0 -167.70462,17.58881 -219.25977,52.76757 -51.55508,35.17877 -48.21913,-20.0147 10.00781,-165.58203 C 667.79139,72.784241 630.18478,0 496.74805,0 Z M 460.8125,44.806641 c 7.88491,-1.061433 16.52843,0.07621 25.92969,3.412109 18.80238,6.67186 25.77609,18.803196 20.92383,36.392578 -4.8522,17.589382 -15.7691,28.202602 -32.75196,31.841792 -16.98285,3.6392 -35.17891,-1.81821 -54.58789,-16.375 0,-19.408976 6.36835,-34.572707 19.10547,-45.490229 6.36856,-5.458761 13.49595,-8.719818 21.38086,-9.78125 z M 820.63672,369.37695 c 94.6187,4.8522 223.50728,55.19551 386.66408,151.02735 163.1567,95.83183 281.1265,171.6484 353.9101,227.44922 -84.9142,-30.3265 -160.7308,-45.49024 -227.4492,-45.49024 -201.3681,0 -344.50949,-24.86796 -429.42381,-74.60351 C 819.42365,578.02429 776.9668,541.93579 776.9668,519.49414 c 0,-22.44158 4.85218,-33.66211 14.55664,-33.66211 82.48819,0 127.37207,-19.41048 134.65039,-58.22851 l -29.11524,-9.09766 c -16.98278,19.40911 -47.61191,28.81175 -91.88867,28.20508 -44.27675,-0.60653 -66.41406,22.13809 -66.41406,68.23437 0,46.09636 46.39809,94.61786 139.19726,145.56641 92.79918,50.94855 206.52408,76.42383 341.17388,76.42383 80.062,0 144.0508,11.52409 191.9668,34.57226 47.9158,23.04818 81.5793,43.66939 100.9882,61.86524 l -98.2578,18.19726 c -14.5568,-30.3265 -91.5859,-45.49023 -231.0879,-45.49023 -82.4881,0 -143.141,-23.04818 -181.959,-69.14453 h -30.93355 c 58.22725,48.52248 86.73285,93.4063 85.51955,134.65039 -1.2131,41.24409 -6.6705,41.84939 -16.375,1.81836 -9.7045,-40.03109 -66.11251,-70.96378 -169.22268,-92.79883 -6.06532,69.14446 -17.58935,62.47256 -34.57226,-20.01563 C 823.06277,730.26334 769.08177,685.07779 673.25,625.03125 577.41817,564.98478 528.28941,526.16562 525.86328,508.57617 c -2.42613,-17.58931 28.50662,-45.18612 92.79883,-82.79101 64.29227,-37.6049 131.61701,-56.40821 201.97461,-56.40821 z m 78.24219,443.98047 c 49.73555,13.34366 83.09527,38.81887 100.07812,76.42383 33.96567,89.76651 51.25097,170.73885 51.85747,242.91605 0.6065,72.1771 -26.383,110.6907 -80.97075,115.5429 -90.97964,0 -135.86346,16.3763 -134.65039,49.1289 H 680.52734 C 812.75101,1053.5439 885.53525,892.20647 898.87891,813.35742 Z m 386.07619,564.07418 h 238.3672 v 171.043 z m -493.14065,114.2657 87.33985,303.873 h 63.68554 L 855.5,1491.6973 Z m 191.05664,0 89.16011,305.6914 h 63.6856 l -89.1602,-305.6914 z m -680.70507,41.8554 c -107.96243,0 -191.66547,43.0642 -251.105473,129.1914 -20.62205,36.392 -36.998318,80.6686 -49.1289064,132.8301 H 606.03711 607.85742 L 582.38281,1711.873 C 532.64733,1592.9932 439.24195,1533.5527 302.16602,1533.5527 Z m 0,61.8672 c 109.17549,0 183.77756,46.0965 223.80859,138.2891 H 83.814453 C 126.27154,1641.5164 199.05579,1595.4199 302.16602,1595.4199 Z" />
</svg>
