<?xml version="1.0" encoding="UTF-8" standalone="no"?>
<svg
   width="18"
   height="11.578"
   version="1.1"
   id="svg584"
   sodipodi:docname="US9G305VARA.svg"
   inkscape:version="1.2.1 (9c6d41e410, 2022-07-14)"
   xmlns:inkscape="http://www.inkscape.org/namespaces/inkscape"
   xmlns:sodipodi="http://sodipodi.sourceforge.net/DTD/sodipodi-0.dtd"
   xmlns="http://www.w3.org/2000/svg"
   xmlns:svg="http://www.w3.org/2000/svg">
  <defs
     id="defs588" />
  <sodipodi:namedview
     id="namedview586"
     pagecolor="#ffffff"
     bordercolor="#000000"
     borderopacity="0.25"
     inkscape:showpageshadow="2"
     inkscape:pageopacity="0.0"
     inkscape:pagecheckerboard="0"
     inkscape:deskcolor="#d1d1d1"
     showgrid="false"
     inkscape:zoom="26.964653"
     inkscape:cx="10.383964"
     inkscape:cy="5.1919822"
     inkscape:window-width="1920"
     inkscape:window-height="1017"
     inkscape:window-x="1072"
     inkscape:window-y="-8"
     inkscape:window-maximized="1"
     inkscape:current-layer="svg584" />
  <path
     id="path582"
     style="fill:#000000;stroke:none;stroke-width:0.638312"
     d="m 7.5706934,0.06452583 c -0.4714253,0 -0.9204805,0.20125759 -1.3456881,0.6046708 C 5.9384522,0.75171293 5.5552679,0.87092023 5.0745983,1.0267843 4.871238,1.1001323 4.7646324,1.243028 4.7553884,1.4539028 L 6.4478262,1.5631657 C 7.0209319,1.590671 7.3304465,1.7588789 7.3766641,2.0660234 7.4228811,2.3731673 7.3273141,2.6651693 6.8928636,3.2794572 6.7127066,3.5341882 6.6732108,3.7088373 6.5084677,3.9466323 5.367945,3.75811 3.9278718,3.5167376 3.2533044,3.5497307 2.5231755,3.5854395 1.7607137,4.4978236 1.154752,5.4107635 0.7616065,6.0030752 0.62090254,6.3261825 0.39168891,6.8386142 0.16247438,7.3510459 -0.00195131,8.5414274 0.06863784,9.0042179 1.269204,8.7254489 3.2213697,7.3931138 3.9542986,6.8041862 5.0869065,6.8660926 5.6398339,6.9873433 6.4415672,6.9257395 6.7362717,7.3733566 7.4078739,7.8165265 7.854853,8.085416 8.5696041,8.5175356 8.9247032,8.6965971 9.775119,9.0725071 9.7381445,10.099375 9.617959,10.755014 9.4145999,11.039238 c -0.3142851,0 -0.8732188,-0.04614 -1.6774165,-0.13782 -0.2588234,0.03667 -0.4329353,0.1171 -0.5207501,0.240875 -0.087813,0.123775 -0.071346,0.241358 0.048819,0.35138 0.083194,-0.08252 0.1642781,-0.103337 0.2428495,-0.06209 0.078571,0.04126 0.2662639,0.06209 0.5620596,0.06209 H 13.22759 c 0.221848,0 0.199217,-0.138406 -0.06885,-0.413461 -0.351257,-0.100853 -0.37514,-0.59564 -0.0701,-1.484981 0.536133,-0.2108761 1.176152,-0.2631252 1.920266,-0.1576862 0.744115,0.1054371 1.248736,0.1009514 1.512178,-0.01366 0.263443,-0.1146069 0.341634,-0.3558865 0.235335,-0.722625 C 16.650117,8.3345194 16.217531,8.05895 15.459551,7.8755798 14.701572,7.6922124 13.9249,6.9724774 13.129945,5.7163958 13.18413,5.6794269 13.422691,5.4730932 13.518005,5.4059901 13.980867,5.0801195 14.432562,5.0717483 14.803607,5.0533687 15.818186,5.0031147 16.761627,4.711788 17.953144,4.1022885 17.685823,3.6371451 17.282381,3.2620761 16.743906,2.9773753 16.205433,2.6926752 15.365897,2.3829863 14.224026,2.0461574 13.082157,1.7093285 12.191698,1.7863693 11.553931,2.2795827 11.066238,2.6567375 10.510443,3.2528609 9.8865297,4.0637957 9.5699583,4.0952977 9.2867658,4.1290585 9.0615909,4.1693338 8.7796616,4.2197609 8.673053,3.9454315 8.742381,3.3448959 8.8117109,2.7443605 8.8462811,2.2242616 8.8462811,1.7841747 8.8647685,0.63811513 8.4395967,0.06452583 7.5706934,0.06452583 Z m -0.09764,0.33027193 c 0.5638624,0 0.8779019,0.31148617 0.9426076,0.93494264 C 8.480366,1.9531971 8.439631,2.6908872 8.2917319,3.5435557 8.1438357,4.3962241 8.2911743,4.7881367 8.7348707,4.7193732 9.0587125,4.6691866 9.3002373,4.6244159 9.5009738,4.5815529 9.429854,4.6749037 9.3584934,4.7795702 9.2919227,4.8720937 9.3951555,4.979906 9.5172494,5.0682698 9.6299096,5.1663583 10.031058,4.7130299 10.296554,4.2764294 10.726488,3.691309 10.970223,3.3595994 11.277915,3.0838833 11.561442,2.8060312 11.948111,2.4270987 12.399137,2.2209121 13.03231,2.2162598 c 0.492467,-0.00362 1.059614,0.1062322 1.701201,0.3290304 1.46648,0.509253 2.371452,0.9755057 2.715161,1.400552 -0.924191,0.4892037 -1.944268,0.7337992 -3.059408,0.7337992 -0.374518,0 -0.962811,0.1885303 -1.172939,0.3302717 -0.18756,0.1265189 -0.607103,0.5599959 -1.555991,1.0764881 l -0.970147,0.5798387 0.346749,0.3153725 c 0.628568,-0.3850758 1.187503,-0.7100305 1.677416,-0.9759167 0.989069,1.3294298 1.765744,2.0462962 2.329606,2.1517343 0.563861,0.1054391 0.970929,0.2826256 1.220508,0.5301735 C 16.5048,8.9534907 16.365259,9.1041217 15.847615,9.1407963 14.738378,8.8657377 13.805311,8.8849417 13.047331,9.1966683 12.853217,9.251684 12.719453,9.4170228 12.645503,9.6920752 12.469872,9.2794959 12.238555,9.0725071 11.952004,9.0725071 11.027637,9.0358325 10.19829,8.8496658 9.4634196,8.5150181 8.7285524,8.1803675 8.0720612,7.8166324 7.4943338,7.4223889 6.9166062,7.0281425 6.6235601,6.4484414 6.6143161,5.6828736 6.6050726,4.9173059 6.7960396,4.2183959 7.1888935,3.585771 7.58175,2.9531461 7.7784928,2.5032533 7.7784928,2.2373675 7.7784928,1.9714818 7.6912446,1.7510249 7.5156143,1.5768236 7.3399841,1.4026224 7.1403526,1.2997493 6.9185041,1.2676593 6.6966572,1.23557 6.6003546,1.0820714 6.6280859,0.80701693 6.8499343,0.5319625 7.1310374,0.39479776 7.4730534,0.39479776 Z M 7.4455128,0.61456513 C 7.2421516,0.63290193 7.1503734,0.72679673 7.168864,0.89641373 7.1873482,1.0660305 7.2927051,1.1435913 7.4868221,1.1298389 7.6809392,1.1160859 7.7755958,1.0250571 7.7709812,0.85544013 7.7663666,0.68582333 7.6581179,0.60539649 7.4455128,0.61456513 Z M 3.3648411,3.9458058 C 4.2158549,3.8585619 5.6415391,4.2690395 6.4065289,4.3992572 6.3104529,4.8776702 6.1563108,5.7526448 6.2387748,6.2602309 6.2574818,6.3753754 6.2317848,6.417136 6.2629788,6.5162144 5.6346159,6.480872 4.9140449,6.4210299 3.9227949,6.3472725 3.1209935,6.9986211 1.3430911,8.3485057 0.40641304,8.5489569 0.42450432,8.0666564 0.56284466,7.0231687 1.3253299,5.825616 2.0401593,4.7029114 2.5564497,4.0286802 3.3648411,3.9458058 Z m 6.6731559,5.2508634 0.374289,0.1229212 -0.4155978,0.6605428 z m 1.324407,0.1576863 c 0.194118,0.00914 0.3534,0.03897 0.47819,0.089397 0.249577,0.1008533 0.414638,0.3898907 0.49321,0.8666535 0.07857,0.476761 0.0066,0.710684 -0.21531,0.701517 h -1.345688 c -0.240336,-0.01835 -0.516913,0.04126 -0.8311975,0.178794 0.07395,-0.641793 0.3188435,-1.2423198 0.7348085,-1.8015965 0.263443,-0.032092 0.49187,-0.043934 0.685987,-0.034765 z"
     sodipodi:nodetypes="sccccsscssscccccccscsssccscsscsscssscsccssscscccsssscssccccscccccccscssscsccsscscscccssccccsssccccs" />
  <g
     id="g622"
     transform="matrix(1.0768069,0,0,1.1399035,-16.176402,-1.6210064)" />
  <g
     id="g684"
     transform="rotate(38.833645,-0.26367418,32.240594)" />
</svg>
