<?xml version="1.0" encoding="UTF-8" standalone="no"?>
<svg
   width="1791.9187"
   height="1798.147"
   id="svg2"
   version="1.1"
   xmlns="http://www.w3.org/2000/svg"
   xmlns:svg="http://www.w3.org/2000/svg"
   xmlns:rdf="http://www.w3.org/1999/02/22-rdf-syntax-ns#"
   xmlns:cc="http://creativecommons.org/ns#"
   xmlns:dc="http://purl.org/dc/elements/1.1/">
  <metadata
     id="metadata9">
    <rdf:RDF>
      <cc:Work
         rdf:about="">
        <dc:format>image/svg+xml</dc:format>
        <dc:type
           rdf:resource="http://purl.org/dc/dcmitype/StillImage" />
      </cc:Work>
    </rdf:RDF>
  </metadata>
  <defs
     id="defs7" />
  <path
     id="path2178"
     style="fill:#000000;stroke:none;stroke-width:100"
     d="M 468.30273,0.02148438 C 458.91022,0.1173299 449.00182,0.54771264 438.57422,1.3144531 383.3692,14.808969 337.36384,65.10774 300.56055,152.20898 c -73.60666,63.79241 -150.89395,138.62556 -231.861331,224.5 -103.049297,116.54389 -90.167134,134.33256 38.644531,53.36524 95.68863,-71.15313 162.24144,-118.69118 199.6582,-142.61328 37.4167,-23.92218 78.82019,-26.06986 124.21094,-6.44141 -71.15306,127.58487 -108.56967,223.274 -112.25,287.06641 -4.24537,36.03456 6.09547,76.17651 11.04102,104.89062 0,18.40171 19.62793,64.40506 58.88476,138.01172 39.25689,73.6066 106.11622,149.05467 200.57813,226.34182 l 163.77539,310.9883 c -73.60666,222.0468 -154.57436,350.859 -242.90235,386.4355 l -126.9707,-16.5625 c -61.33894,11.041 -88.94252,37.4165 -82.80859,79.127 17.17485,-13.4946 34.04395,-17.175 50.60547,-11.0411 16.56151,6.1339 40.17626,1.8405 70.8457,-12.8808 l 77.28711,23.9219 213.45898,-34.9629 c 29.44264,-1.2268 50.29862,4.9077 62.56641,18.4023 9.81426,-9.8142 14.7207,-20.8552 14.7207,-33.123 -12.2678,-24.5356 -49.68433,-36.8047 -112.25,-36.8047 12.26779,-65.0193 42.32362,-138.6262 90.16797,-220.8203 47.84429,-82.1942 71.15446,-139.2385 69.92773,-171.1348 -24.53557,-84.6476 -34.04396,-135.253 -28.52343,-151.8145 5.52046,-16.5614 11.9616,-24.8417 19.32226,-24.8417 19.62845,0 60.11231,25.7624 121.45117,77.2871 61.33888,51.5246 104.88998,94.4628 130.65238,128.8125 22.0819,29.4426 32.5099,104.2758 31.2832,224.5 -1.2269,120.2241 -49.6864,176.0424 -145.37503,167.455 -28.2159,0 -57.04369,-3.6803 -86.48633,-11.041 -29.44264,0 -44.16406,22.6952 -44.16406,68.086 l 58.88477,-14.7207 c 105.50305,15.948 172.97525,19.6285 202.41795,11.041 29.4427,-8.5874 55.205,-12.8809 77.2871,-12.8809 24.5355,8.5874 46.3111,8.5874 65.3262,0 19.0151,-8.5874 34.043,-3.0678 45.084,16.5606 12.2678,-41.7105 -26.3749,-69.9252 -115.9297,-84.6465 -14.7213,-23.3088 -16.256,-86.7963 -4.6016,-190.459 11.6543,-103.6628 11.3478,-165.9221 -0.9199,-186.7774 l -55.2051,-110.4082 c 77.2871,-2.4536 168.9892,6.7463 275.1055,27.6016 106.1163,20.8553 184.3232,38.644 234.6211,53.3652 50.2978,14.7214 96.3033,9.8149 138.0137,-14.7207 40.4836,-90.7815 46.6162,-148.4409 18.4004,-172.9765 -128.8117,-13.4945 -246.8895,-65.6324 -354.2325,-156.41409 C 1312.9596,871.10123 1156.5459,752.41047 951.06055,605.81055 745.57527,459.21062 580.87916,439.27428 456.97461,546.00391 460.65494,457.67592 506.04725,350.33275 593.14844,223.97461 632.4054,169.99639 631.17729,111.11077 589.4668,47.318359 574.43875,15.115417 534.05033,-0.64943427 468.30273,0.02148438 Z M 416.95117,86.767578 c 4.29372,0.07668 9.04793,1.034819 14.26172,2.875 20.85525,6.133864 28.829,19.014132 23.92188,38.642582 -7.36067,22.08197 -22.08209,29.44269 -44.16407,22.08203 -20.85525,-6.13387 -27.60285,-19.62718 -20.24218,-40.48242 4.60044,-15.641442 13.3415,-23.347242 26.22265,-23.117192 z M 643.70508,562.07031 c 75.66967,1.9408 160.94647,37.06861 255.83008,105.38477 168.68194,121.45101 302.09414,216.83355 400.23634,286.14648 98.1422,69.31304 133.1065,110.10334 104.8906,122.37114 -195.0577,2.4536 -350.5518,-20.8547 -466.48241,-69.9258 C 822.2492,956.97571 738.21425,909.43775 686.07617,863.43359 633.93815,817.42944 622.89709,783.69326 652.95312,762.22461 c 30.0561,-21.46865 45.08399,-37.72464 45.08399,-48.76563 0,-9.81419 -9.19985,-20.24221 -27.60156,-31.2832 -60.11207,11.04099 -97.83709,30.3643 -113.17188,57.9668 -15.33471,27.6025 -3.98719,64.09948 34.04297,109.49023 38.03009,45.39076 116.23896,103.0482 234.62305,172.97459 118.38401,69.9265 340.73771,112.2514 667.06051,126.9727 l 206.0996,22.082 c -1.2268,45.3908 -31.8977,65.3252 -92.0097,59.8047 -60.1122,-5.5205 -127.8911,-16.255 -203.3379,-32.2031 -75.4468,-15.9481 -159.1752,-23.0023 -251.1836,-21.1621 -92.0083,1.8401 -223.27282,-44.7764 -393.79493,-139.8516 -170.5221,-95.07531 -283.38678,-211.9268 -338.59179,-350.55273 -9.8142,-26.98911 11.65483,-50.29734 64.40624,-69.92579 47.23094,-38.64349 100.27277,-57.21067 159.12696,-55.70117 z M 71.280568,1049.3076 c -13.717836,0 30.610112,91.0323 55.896492,128.4296 38.16122,56.4387 53.8905,98.4911 51.85937,133.2364 l -4.13086,70.664 H 59.014943 c -1.214309,-0.033 -2.396516,-0.049 -3.546875,-0.049 -20.706209,0 -31.060547,5.3183 -31.060547,15.9512 0,10.6002 11.536555,25.8769 34.607422,45.8301 14.341356,11.8473 42.712797,69.5241 85.113287,173.0312 6.85893,15.5884 16.21141,23.3828 28.05859,23.3828 h 141.23047 c 11.22366,0 20.57813,-7.7944 28.06055,-23.3828 42.4005,-103.5071 70.76993,-161.1839 85.11133,-173.0312 22.4473,-21.2003 33.9839,-36.4771 34.60742,-45.8301 0,-10.6329 -10.35246,-15.9512 -31.0586,-15.9512 -1.15037,0 -2.33452,0.018 -3.54882,0.049 l -118.72461,-1.6621 c 0,0 1.55062,-71.1162 -6.82227,-112.6757 -6.02887,-29.9248 -13.31652,-59.0095 -83.56055,-118.0333 -52.16226,-44.4732 -132.483356,-99.9589 -146.201172,-99.9589 z m 62.660162,64.0175 c 21.97946,35.6949 57.62056,57.806 80.34179,80.6075 24.43448,24.5206 49.83571,46.1889 49.37305,104.705 l -0.65625,83 -47.77148,-1.6621 -0.0508,-70.375 c -0.0535,-74.1626 -19.30433,-89.8686 -81.23633,-196.2754 z m 540.1745,-44.7138 c 39.25684,24.5355 70.53881,41.0981 93.84766,49.6856 l 14.72266,125.1308 c -60.11214,-83.4208 -96.3026,-141.6934 -108.57032,-174.8164 z m -558.04755,360.7275 h 253.46875 l -60.79492,140.2949 c -6.85889,21.8238 -21.82362,32.7364 -44.89453,32.7364 h -41.1543 c -23.6944,0 -38.97115,-11.2244 -45.83008,-33.6719 z" />
</svg>
