<?xml version="1.0" encoding="UTF-8" standalone="no"?>
<svg
   width="1316.5107"
   height="1800"
   version="1.1"
   id="svg1"
   xml:space="preserve"
   xmlns="http://www.w3.org/2000/svg"
   xmlns:svg="http://www.w3.org/2000/svg"><defs
     id="defs1" /><path
     id="path1-1"
     style="fill:#000000;stroke:none;stroke-width:38.0762"
     d="M 332.23602,0.0039977 C 246.85216,0.47573084 192.83825,16.749699 170.19497,48.827636 c -23.58667,-1.886932 -33.96481,8.02062 -31.13441,29.720357 -32.07794,9.434732 -48.116614,40.568987 -48.116614,93.403197 13.208544,-7.54772 25.945364,-10.84961 38.210474,-9.90614 14.15202,0 25.47325,16.51121 33.96447,49.53263 8.49118,33.02133 27.36117,69.34373 56.60868,108.96941 v 1.41601 c -6.60428,13.20859 -9.90611,35.38043 -9.90611,66.51485 0,31.13451 26.88738,74.53304 80.66504,130.19765 53.77775,183.97628 80.19646,318.42095 79.253,403.33315 0,10.37812 7.07626,16.9838 21.22826,19.81423 l -56.60872,192.47042 c -10.37812,-1.887 -26.88933,0 -49.5326,5.66 -22.6432,5.6575 -46.46601,5.4221 -71.46793,-0.7108 -25.00195,-6.1323 -51.65402,-8.726 -79.95803,-7.7831 -28.30406,0.9435 -44.344717,13.6803 -48.118576,38.2106 -18.869399,-1.8872 -28.302392,8.9636 -28.302392,32.5502 H 805.42506 c 0,-23.5866 -30.46652,-34.9102 -54.9967,-33.9664 -19.8128,-33.0211 -45.52178,-42.9268 -77.12801,-29.7183 -31.60618,13.2089 -60.61899,14.624 -87.03609,4.246 l -8.49012,-172.65623 c 46.22994,62.26873 83.49735,80.19583 111.80141,53.77863 -8.4912,-71.70351 -12.73813,-136.80338 -12.73813,-195.29845 l 49.53263,29.72037 c 28.30407,13.20851 89.86483,73.82624 184.68336,181.85338 94.81859,108.0272 149.77759,159.6817 164.87299,154.9649 l 165.5783,-35.3804 c 17.9263,-5.6608 21.2275,-14.6233 9.906,-26.8885 L 1121.2131,985.69356 c 82.0818,51.89074 143.4071,86.79944 183.9763,104.72524 -19.8129,-22.6432 -53.306,-50.948 -100.4791,-84.913 l 35.3784,14.1523 c 13.2087,-2.8304 19.3421,-14.1517 18.3981,-33.96454 C 1055.6411,839.45595 927.32958,714.68158 873.5519,611.3718 819.77417,508.06204 765.52497,429.51754 710.80382,375.73981 L 893.36417,201.66958 c 12.26508,-11.32159 25.94506,-16.03713 41.04054,-14.15021 14.15207,2.83041 24.53013,12.73592 31.13439,29.7184 l 182.5622,427.39143 c 16.0392,28.30408 27.8328,40.57034 35.3806,36.79646 19.8124,-12.26509 25.4734,-33.4938 16.982,-63.6848 4.7175,8.4912 11.7937,16.27527 21.2284,23.35129 9.4345,7.076 17.9242,8.25436 25.4725,3.53705 8.4915,-4.71732 12.266,-12.7367 11.322,-24.05829 -0.9435,-11.32167 -4.2452,-21.69973 -9.906,-31.13441 22.6431,23.58671 43.8717,29.71984 63.6846,18.39823 8.4912,-4.71735 4.2445,-20.75603 -12.7381,-48.11662 L 1024.9777,181.85733 951.38691,82.794041 669.76133,340.36133 C 601.8316,279.03586 549.94115,206.85977 514.08935,123.83457 478.23754,40.809355 417.6199,-0.46773541 332.23602,0.0039977 Z M 300.39461,44.583554 c 50.0038,0 79.01466,23.114938 87.03412,69.344886 8.01949,46.22992 -18.16205,78.3073 -78.54399,96.23324 19.8128,38.68219 19.10496,63.44807 -2.12304,74.29795 -21.22806,10.84987 -40.80389,6.60489 -58.72976,-12.73618 -17.92594,-19.34113 -33.96462,-46.70295 -48.11662,-82.08303 -14.152,-35.38007 -34.91015,-53.06968 -62.27076,-53.06968 h 29.72035 c -12.26508,-19.81281 -16.98257,-35.37902 -14.15216,-46.700612 12.26507,1.886935 19.81191,-2.830512 22.64229,-14.152177 21.69981,-20.756272 63.2141,-31.134397 124.53957,-31.134397 z m 103.30932,4.244082 c 17.92595,0 43.16429,37.504664 75.71395,112.510394 32.54969,75.00575 85.61851,144.3506 159.20906,208.03467 73.59047,63.68414 132.55726,141.04828 176.90025,232.09296 44.3431,91.04473 131.61472,190.81602 261.81331,299.31483 C 849.96465,792.28168 707.03004,724.825 648.53504,698.40788 590.03995,671.99075 495.69204,612.07895 365.49345,518.6756 290.95946,463.95441 253.69204,420.55587 253.69204,388.47795 c 0,-25.47361 2.83129,-47.64545 8.49208,-66.51485 v -1.41601 c 59.43849,0 89.15715,-30.19122 89.15715,-90.57315 79.2514,-38.68222 96.70573,-99.06457 52.36266,-181.146304 z M 225.38767,74.301948 c -22.64321,0 -33.96444,10.378062 -33.96444,31.134392 0,22.64321 11.32123,34.43699 33.96444,35.38046 22.64327,-0.94347 34.43698,-12.73725 35.38045,-35.38046 -0.94347,-20.75633 -12.73718,-31.134392 -35.38045,-31.134392 z m 772.70185,131.613672 253.32118,345.3104 -86.327,46.70259 z m -649.5783,380.69084 h 5.66007 c 21.69976,105.66847 76.42155,222.65879 164.1641,350.97047 -27.36053,21.69972 -63.68484,6.13162 -108.97137,-46.70257 0,-57.55161 -20.28368,-158.9738 -60.8528,-304.2679 z m 62.26879,56.60871 c 69.81662,53.77769 147.18082,104.72501 232.09297,152.84196 V 963.05124 C 612.68206,939.46454 582.96338,925.31203 553.71584,920.59472 470.69064,785.67878 423.04509,693.21906 410.78001,643.21517 Z m 73.59093,11.32017 523.62466,261.81332 c 66.9863,77.36442 131.6136,149.06774 193.8825,215.11084 v 2.83 L 1070.2644,1155.5177 809.86711,872.4781 C 759.8633,831.90896 651.36483,759.26035 484.37094,654.53534 Z m -53.77865,329.74221 c 31.13447,37.73875 63.68436,39.62685 97.64924,5.66205 l 8.4921,152.842 c -28.30403,-6.6045 -53.30716,-3.7751 -75.00695,8.49 -27.36054,-8.4909 -53.30482,-11.3201 -77.83502,-8.49 z M 77.431897,1173.0229 c -2.123479,-0.1445 -4.29766,-0.073 -6.522256,0.216 -16.178874,3.4662 -19.415108,17.9094 -9.707773,43.3285 40.447262,99.3652 113.981812,155.9288 175.496532,188.2802 l -4.01233,8.6668 -118.34919,-29.4632 c -37.443736,0 -75.555893,10.9767 -114.33688,32.9297 0,60.081 46.134934,90.1213 138.40696,90.1213 38.78097,-9.243 66.19676,-8.6662 82.24405,1.732 16.0473,62.3925 35.43638,113.8089 58.17007,154.2482 4.01181,34.6622 15.38006,60.659 34.10191,77.9901 0,27.73 8.69067,41.5945 26.07528,41.5945 17.38458,0 32.76423,2.8897 46.13696,8.6668 13.37275,5.7772 31.426,8.665 54.15967,8.665 21.39643,0 38.78174,-2.8878 52.15448,-8.665 13.3728,-5.7771 28.75045,-8.6668 46.13501,-8.6668 17.38458,0 26.07724,-13.8645 26.07724,-41.5945 18.72189,-15.0201 30.08816,-41.0172 34.09995,-77.9901 22.73347,-40.439 42.79276,-91.8546 60.1772,-154.2462 14.71011,-10.3988 42.12577,-10.9772 82.24407,-1.734 90.93474,0 136.40178,-30.0403 136.40178,-90.1213 -37.44373,-21.953 -74.88801,-32.9297 -112.3317,-32.9297 l -120.35438,29.4632 -2.00519,-8.6668 c 61.5147,-32.3515 119.31787,-88.915 159.76519,-188.2802 8.08937,-25.4185 4.04365,-39.8617 -12.13524,-43.3285 -17.79678,-2.3108 -32.35675,9.2447 -43.68202,34.6637 -58.24405,80.8788 -98.59895,118.9553 -136.0427,132.8202 -50.81644,-33.507 -107.65168,-50.2613 -170.50369,-50.2613 -64.18919,0 -121.69241,16.7543 -172.50888,50.2613 -37.44373,-13.8649 -93.94832,-51.9414 -152.19239,-132.8202 -9.90959,-22.2417 -22.297375,-33.8688 -37.161733,-34.8797 z M 439.2949,1326.8593 c 42.79283,0 87.59192,13.2875 134.3966,39.8622 -9.36095,25.4188 -4.68161,44.4823 14.04022,57.1919 l 32.09478,-6.9325 4.01233,10.3989 h -18.05257 v 13.8636 c 42.79279,0 76.89355,-4.6203 102.30182,-13.8636 -40.11828,21.9527 -71.54543,32.9274 -94.27911,32.9274 v 15.5996 c 46.80462,0 96.28501,-21.3764 148.43878,-64.1266 36.10644,0 61.51453,6.9331 76.22458,20.7981 -22.73369,32.3515 -76.89335,46.7947 -162.47901,43.3285 -40.11825,3.4663 -59.50924,8.0867 -58.17202,13.8637 -12.03546,75.1013 -33.43219,135.1837 -64.18952,180.2447 -14.71016,-32.3517 -37.44452,-46.2162 -68.20187,-41.5943 -30.75734,4.622 -61.51466,4.622 -92.27197,0 -30.75735,-4.6216 -54.15974,9.2428 -70.20706,41.5943 -29.42005,-45.061 -50.81479,-105.1435 -64.18756,-180.2447 1.3373,-5.7772 -18.05373,-10.3975 -58.17202,-13.8637 -84.24834,3.4663 -137.740119,-10.9769 -160.473824,-43.3285 13.372768,-13.865 38.112958,-20.7981 74.219404,-20.7981 52.15375,42.7502 102.30203,64.1266 150.44395,64.1266 v -15.5996 c -24.07095,0 -56.16601,-10.9748 -96.28429,-32.9274 26.74553,9.2432 60.84629,13.8636 102.30182,13.8636 v -13.8636 h -18.05453 l 4.01233,-10.3989 32.09476,6.9325 c 20.05912,-12.7095 24.7404,-31.7731 14.04221,-57.1919 46.80463,-26.5747 92.27169,-39.8622 136.40177,-39.8622 z m 0,53.7256 c -41.45553,0 -80.23562,7.51 -116.34205,22.5303 v 17.3318 c 36.10643,-13.8648 74.88652,-20.7981 116.34205,-20.7981 41.45558,0 79.56768,6.9333 114.33688,20.7981 v -17.3318 c -34.7692,-15.0203 -72.8813,-22.5303 -114.33688,-22.5303 z m -140.41411,48.5271 v 15.5977 c 34.76914,0 59.50935,20.2209 74.2194,60.6602 h 24.07008 c -14.71001,-50.838 -47.47302,-76.2579 -98.28948,-76.2579 z m 278.82305,0 c -50.81647,0 -83.58143,25.4199 -98.29146,76.2579 h 24.07206 c 14.71001,-40.4393 39.45024,-60.6602 74.2194,-60.6602 z m -293.11467,46.1448 c -8.52513,0.1447 -10.44856,3.5374 -5.76809,10.1811 9.3609,13.2872 14.04219,25.4195 14.04219,36.3959 0,10.9765 8.0228,17.0426 24.0701,18.1979 18.72186,-1.1554 28.08437,-8.6656 28.08437,-22.5304 21.39641,15.0202 32.09478,43.328 32.09478,84.9228 h 16.04542 v 0 c 0,0 -19.72449,-105.1426 -63.18596,-117.8523 -21.73073,-6.3541 -36.85767,-9.4578 -45.38281,-9.313 z m 308.91064,0 c -8.52511,-0.1449 -23.8205,2.9603 -45.88557,9.3149 -44.13011,12.7097 -65.52684,51.9941 -64.18951,117.8524 h 18.05452 c 0,-41.5946 10.02851,-69.9027 30.08761,-84.9228 0,13.865 9.36054,21.3752 28.08244,22.5305 17.38423,-1.1556 25.74194,-7.2217 25.07368,-18.1981 -0.66868,-10.9763 4.01261,-23.1086 14.04218,-36.3958 5.01479,-6.6441 3.2598,-10.0383 -5.26535,-10.183 z m -278.57163,35.3116 c 4.01174,0 7.02032,0.579 9.02628,1.7343 2.00596,1.1552 3.00876,2.8876 3.00876,5.1986 0,1.1551 -1.0028,2.3105 -3.00876,3.4661 -2.00589,1.1553 -3.67669,1.7324 -5.01394,1.7324 -2.6745,0 -4.68025,-0.5771 -6.01753,-1.7324 -1.33725,-1.1556 -2.00716,-2.311 -2.00716,-3.4661 0,-2.311 1.33775,-4.622 4.01235,-6.9329 z m 246.72827,0 c 4.01178,2.3109 6.01751,4.6219 6.01751,6.9329 0,1.1551 -1.00285,2.3106 -3.00876,3.4661 -2.00582,1.1554 -3.6786,1.7324 -5.0159,1.7324 -2.67448,0 -4.68022,-0.577 -6.01752,-1.7324 -1.33738,-1.1555 -2.00519,-2.311 -2.00519,-3.4661 0,-2.3104 0.66781,-4.0449 2.00519,-5.2007 1.33724,-1.1551 4.01287,-1.7322 8.02467,-1.7322 z M 395.1651,1658.3159 c 7.355,-0.2888 14.70989,0.7234 22.06488,3.0343 14.71003,4.6218 29.41978,4.6218 44.12983,0 14.71004,-4.622 28.75184,-4.0449 42.12463,1.7322 -18.72187,3.4661 -28.08244,12.7107 -28.08244,27.7309 0,19.6432 9.36057,29.1739 28.08244,28.5951 18.72183,-0.5777 28.08242,-8.376 28.08242,-23.3965 h 8.02468 c 2.67449,27.7296 -2.67462,42.7497 -16.04737,45.0606 -13.37273,2.311 -30.7581,1.1559 -52.15452,-3.4661 -21.3964,-4.6219 -42.79311,-4.6219 -64.18951,0 -21.3964,4.622 -38.78174,5.7771 -52.15449,3.4661 -13.37275,-2.3107 -19.3898,-17.3308 -18.05256,-45.0606 h 8.02465 c 0,15.0194 9.36059,22.8178 28.08245,23.3965 18.72189,0.5776 28.08242,-8.9531 28.08242,-28.5951 0,-15.0202 -9.36053,-24.2649 -28.08242,-27.7309 7.35502,-2.8884 14.70988,-4.4776 22.06491,-4.7665 z m 42.62542,100.9547 c 17.71891,0 35.60566,0.8671 53.65886,2.6002 v 3.4664 c -36.10642,4.622 -71.54498,4.622 -106.31415,0 v -3.4664 c 17.3846,-1.7331 34.93639,-2.6002 52.65529,-2.6002 z" /></svg>
