<?xml version="1.0" encoding="UTF-8" standalone="no"?>
<!-- Created with Inkscape (http://www.inkscape.org/) -->

<svg
   width="1800.1965"
   height="1442.5851"
   viewBox="0 0 1800.1965 1442.5851"
   version="1.1"
   id="svg570"
   inkscape:version="1.2.1 (9c6d41e410, 2022-07-14)"
   sodipodi:docname="US9G47VARA.svg"
   xmlns:inkscape="http://www.inkscape.org/namespaces/inkscape"
   xmlns:sodipodi="http://sodipodi.sourceforge.net/DTD/sodipodi-0.dtd"
   xmlns="http://www.w3.org/2000/svg"
   xmlns:svg="http://www.w3.org/2000/svg">
  <sodipodi:namedview
     id="namedview572"
     pagecolor="#ffffff"
     bordercolor="#000000"
     borderopacity="0.25"
     inkscape:showpageshadow="2"
     inkscape:pageopacity="0.0"
     inkscape:pagecheckerboard="0"
     inkscape:deskcolor="#d1d1d1"
     inkscape:document-units="px"
     showgrid="false"
     inkscape:zoom="0.47888889"
     inkscape:cx="1077.4942"
     inkscape:cy="791.41531"
     inkscape:window-width="1920"
     inkscape:window-height="1017"
     inkscape:window-x="1072"
     inkscape:window-y="-8"
     inkscape:window-maximized="1"
     inkscape:current-layer="svg570" />
  <defs
     id="defs567" />
  <path
     id="path40100"
     style="color:#000000;display:inline;fill:#000000;stroke-width:1.05201;stroke-linejoin:round;-inkscape-stroke:none"
     d="M 517.21627,0.06904765 C 424.49208,-2.9591223 373.85409,94.688505 318.37917,81.88467 248.76262,51.746068 247.90592,64.311587 131.32353,48.246918 50.227918,110.36654 181.48672,126.19181 241.46486,154.88685 c 46.90792,22.44183 105.13093,59.90008 28.63073,77.16121 -47.51544,19.08009 -95.03225,35.96932 -142.54769,55.04941 -54.18957,84.63601 15.41393,63.43457 125.49704,37.286 84.60243,-20.09602 46.75044,-82.69635 200.60498,-20.70711 60.01918,24.18226 125.48654,-20.65021 80.54228,46.51779 -37.49531,64.0685 -75.11147,128.79333 -91.17308,205.1005 -5.85935,31.89843 -2.59484,61.19489 6.11688,88.62773 -61.43058,24.17659 -124.0232,47.43637 -189.07291,52.24657 C 183.5787,694.67407 107.36822,685.93148 31.241496,677.89918 -24.790383,689.74945 8.871275,765.73309 22.800555,805.13828 60.019197,892.06 130.83794,952.44866 203.7354,996.72696 c 111.5068,59.04294 238.96524,66.83174 359.21222,47.14524 64.43796,-12.7101 128.30453,-28.9021 192.14666,-45.03385 56.63459,51.65185 114.37123,98.25075 166.9715,159.39075 43.61463,47.6716 122.23842,101.4514 152.38652,130.9733 -76.0232,-26.4947 -153.22418,-47.9028 -231.55019,-63.3125 -84.37131,-18.8493 -170.01422,-30.4458 -255.70917,-37.374 -58.80894,-3.629 -115.55339,20.2391 -164.68573,55.7452 -47.57248,29.8002 -100.00741,50.0733 -144.61492,85.6004 -20.37996,25.4027 7.09865,82.4229 36.92028,56.366 46.20123,-23.8667 85.84045,-62.602 133.43757,-82.6985 34.4459,-19.1648 68.12494,-42.0286 105.26121,-53.3673 33.352,12.0258 43.06091,57.7392 60.70348,88.555 12.2956,36.1426 52.52054,88.966 83.29587,42.7617 2.71216,-34.1331 -35.89442,-55.8851 -48.37175,-86.2235 -6.45568,-15.6608 -37.62166,-49.4072 -29.03728,-54.0608 108.55949,24.2263 216.38992,52.8371 325.54398,73.3852 73.19345,16.9175 142.74795,52.5471 202.06815,104.6959 18.9103,19.0892 82.011,43.1827 80.734,-4.4541 -6.334,-24.4318 -15.2484,-47.6066 -25.4074,-70.1356 73.0786,23.3521 149.4945,29.3486 225.1418,9.747 116.3363,-38.7289 95.4112,-95.6151 200.4804,-49.4152 51.7503,14.2091 171.8682,71.1648 171.5332,-29.5602 l -1.8159,-139.3111 c -15.5594,-57.5202 -68.8897,-19.0154 -104.5173,-15.6718 -39.8267,9.7644 -79.6547,19.5295 -119.4817,29.2938 -75.9754,-143.5895 -196.5138,-244.89267 -310.7597,-345.51035 -9.0093,-7.43878 -18.2605,-15.13605 -27.348,-22.76569 71.1847,-90.05013 138.0042,-186.81026 181.3128,-298.33197 30.4436,-99.29489 18.4212,-215.99054 -35.0584,-302.2445 -23.4244,-33.21494 -35.2698,-85.785736 -71.1598,-102.300362 -38.8876,10.836894 -58.3638,60.319382 -88.2297,88.830282 -48.3243,56.7809 -93.871,117.08639 -145.4471,169.981 -68.5657,57.14266 -139.95427,110.5533 -215.19357,155.37709 -68.54052,34.60469 -139.37497,62.72833 -210.17349,90.57837 -35.5881,-45.64512 -25.78976,-128.09944 2.88594,-180.00977 56.37452,-90.77552 53.3744,-213.41521 8.99133,-309.523326 C 631.78385,27.414658 572.44888,2.0237077 517.21627,0.06904765 Z M 535.14521,69.953596 C 622.59362,69.54692 642.61248,196.11733 637.9884,274.93081 c -17.97588,83.2389 -72.85741,154.82726 -71.02747,244.99113 11.13308,77.10832 54.99954,154.97609 128.25447,163.56515 129.54226,49.35353 275.33562,-3.91447 398.9301,70.41083 139.0118,99.23372 269.1353,217.13266 382.2205,352.97628 21.1858,47.5687 98.9963,108.2613 21.5052,130.2533 -85.5176,82.7986 -209.1717,70.4953 -308.2918,31.3832 -11.1793,-3.8571 -22.007,-8.416 -32.6864,-13.2763 -7.0147,-12.7449 -14.0594,-25.468 -20.7554,-38.2878 -23.3387,-41.6763 -65.4347,-75.9479 -70.4196,-124.9141 -9.7605,-95.8747 33.4587,-109.74167 -42.1149,-112.11346 -15.0022,-0.47086 -47.22552,52.40716 -31.24621,111.56086 6.48671,24.0134 15.67521,46.7167 25.74481,69.0347 C 965.23194,1113.4087 916.13623,1059.519 865.55784,1010.3026 782.9713,944.0234 710.21246,862.44272 625.91753,799.27081 578.1215,734.51598 508.54804,674.23711 498.83472,584.98475 c 10.12292,-96.2036 77.00326,-161.14644 105.8058,-248.35976 38.97367,-73.79896 -24.45316,-126.70337 -83.98616,-93.3394 -42.14924,6.75478 -112.08742,-28.68625 -123.39152,-55.72534 -19.41301,-48.46229 28.8209,-55.39701 56.41968,-93.211687 24.65158,-16.348285 53.32855,-22.72033 81.46269,-24.394967 z m -31.86755,56.579594 c -15.18017,-0.11228 -30.04449,5.01882 -44.23758,10.80381 -7.95073,4.41059 -8.60803,2.1938 -11.61257,11.88924 19.24237,9.83533 48.28309,17.31361 66.5749,19.07784 17.88389,0.81598 35.52567,-4.72179 52.07453,-12.04557 -6.80334,-11.23193 -48.8593,-28.69534 -62.79928,-29.72532 z m 801.44014,40.16144 c 26.8148,51.47017 63.5113,101.0848 65.9652,163.77437 5.6986,60.15611 1.4953,124.48213 -28.6211,176.1194 -42.7977,85.26383 -96.7908,162.31365 -154.1202,235.25735 -51.6253,-40.97831 -106.0996,-77.0949 -167.7,-89.2244 23.4359,-14.88862 45.7624,-31.58167 63.5951,-55.14412 22.6757,-30.0727 36.8875,-68.53189 40.577,-108.00934 1.5107,-31.44944 -7.4174,-62.24003 -21.7488,-88.96902 73.9832,-70.88717 141.2985,-159.6806 202.0528,-233.80424 z m -234.9864,261.58323 c 8.7973,18.04904 15.3165,37.55239 15.392,58.35425 -3.775,36.66952 -18.4471,72.87991 -43.9461,96.21915 -27.7798,26.04404 -61.09851,42.01158 -92.19508,62.05524 C 876.0503,639.60345 802.36251,642.02472 731.0407,623.59837 813.47438,590.87601 895.59388,556.37413 969.39242,502.22235 1003.173,478.48596 1037.1728,454.4558 1069.7314,428.27786 Z M 477.69388,704.21838 c 27.96283,41.66449 54.67349,82.11107 82.6478,116.65116 -30.92289,12.45585 -63.28771,20.50393 -96.10318,18.3931 -31.43007,-2.10429 -57.26204,-25.9224 -79.35717,-49.53851 -11.68896,-12.93494 -22.49284,-26.91858 -32.4524,-41.65423 42.45457,-11.58638 84.07079,-27.42867 125.26495,-43.85152 z M 66.483916,749.68822 c 87.986814,2.37855 166.899924,23.17602 243.692104,8.38412 23.57879,38.36303 51.44403,73.83662 85.70997,99.74201 25.868,19.96463 57.23741,29.82751 88.36009,27.45527 37.15865,-2.54539 73.38187,-14.15194 107.89217,-29.99165 33.5356,31.47627 71.34704,57.27445 105.39356,88.51321 C 636.749,959.05653 575.97955,974.80842 514.11944,982.54785 412.63415,991.05642 305.80711,980.77273 214.048,926.63763 152.43069,885.03582 89.931737,830.58261 66.483916,749.68822 Z M 1740.0158,1178.3198 c -6.3684,25.5054 18.8275,91.8916 -20.5713,74.6336 -41.3865,-7.0679 -133.9492,-21.0149 -137.2995,-35.9275 52.6234,-12.9018 105.2477,-25.8043 157.8708,-38.7061 z"
     sodipodi:nodetypes="cccsccssccccccccccccccccccccccccccccccccccccccccccccccccccccccssscccccccccccccccccccccccccccccccccccccccccccccccccc" />
</svg>
