<?xml version="1.0" encoding="UTF-8" standalone="no"?>
<svg
   width="1940.1094"
   height="1797.7583"
   version="1.1"
   id="svg4"
   xmlns="http://www.w3.org/2000/svg"
   xmlns:svg="http://www.w3.org/2000/svg">
  <defs
     id="defs8" />
  <path
     id="path2"
     style="fill:#000000;stroke:none;stroke-width:100"
     d="M 435.49414,0 C 361.12394,0 291.04486,36.470162 225.25586,109.41016 182.34997,120.85174 123.71199,138.72966 49.341797,163.04297 17.877495,175.91476 1.4301986,198.79691 0,231.69141 l 261.72656,25.74414 c 90.10238,7.15092 135.86863,37.54343 137.29883,91.17578 1.4302,53.63241 -18.23553,104.4029 -58.99609,152.31445 -40.76063,47.91155 -71.5102,109.05363 -92.24805,183.42383 -20.73785,74.3702 -30.39114,164.47208 -28.96094,270.30664 1.4302,105.83445 46.48212,189.14445 135.1543,249.92775 88.67218,60.7833 229.54657,132.6501 422.62305,215.6015 -5.7208,158.7518 -24.31305,261.0111 -55.77735,306.7774 -48.62668,0 -135.15495,-7.1512 -259.58203,-21.4531 -40.04549,5.7208 -67.2195,17.8781 -81.52148,36.4707 -14.30192,18.5925 -11.44068,37.1847 8.58203,55.7773 12.87179,-12.872 25.38631,-16.0903 37.54297,-9.6543 12.15665,6.436 40.40219,9.6543 84.73828,9.6543 h 800.19532 c 32.8945,0 28.6046,-21.4535 -12.8711,-64.3594 -52.9173,-17.1622 -56.4928,-95.1068 -10.7266,-233.8359 133.0082,-21.453 229.1899,-28.6042 288.543,-21.4531 59.3531,7.1509 151.9572,25.0289 277.8145,53.6328 32.8944,-21.4529 52.9172,-45.0515 60.0683,-70.7949 7.1509,-25.7436 3.8032,-63.3201 -14.0742,-80.4825 -17.8774,-17.1621 -110.9434,-52.4645 -138.1172,-69.6269 60.0681,15.7322 164.7066,35.6935 176.8633,-8.6426 12.1567,-44.336 -36.1137,-80.8063 -144.8086,-109.4101 -42.3584,-11.147 -93.8501,-32.324 -153.9102,-62.9102 59.4854,-20.6167 114.8498,-53.1976 160.1993,-97.0176 28.88,-26.5389 57.7602,-53.07861 86.6406,-79.61717 -13.5326,-14.72654 -27.0651,-29.45314 -40.5977,-44.17968 -37.6886,34.13079 -74.3475,69.43811 -112.8379,102.65425 -49.0988,38.6214 -107.7661,64.279 -168.8711,76.584 -20.9381,-11.1093 -45.7961,-26.1974 -64.0546,-37.3222 55.1118,-20.73 106.2951,-51.85596 148.7089,-92.83988 28.8801,-26.53829 57.7607,-53.07684 86.6407,-79.61524 -13.5326,-14.72654 -27.0651,-29.45314 -40.5977,-44.17968 -37.6883,34.13068 -74.3479,69.4364 -112.8379,102.65234 -43.7179,34.38706 -95.0266,58.47282 -148.8828,72.02926 -44.1478,-28.3923 -90.667,-59.39125 -140.5254,-94.05465 C 1067.2851,758.36224 888.86714,690.7853 757.28906,712.23828 625.71099,733.69119 575.29764,684.70651 606.04688,565.28516 636.79611,445.86375 652.16992,351.82909 652.16992,283.17969 655.03032,94.393809 582.80439,0 435.49414,0 Z m -15.01562,64.359375 c 87.24198,0 135.86758,48.984695 145.8789,146.953125 10.01139,97.96843 -4.64808,221.32212 -43.97851,370.0625 -39.33036,148.74038 20.73816,212.74176 180.20507,192.00391 159.46678,-20.73785 350.75652,46.83909 573.86722,202.73047 223.1106,155.89132 382.8051,239.23202 475.0527,262.11522 92.2476,22.8831 136.1798,61.7126 120.2676,58.6074 -288.8612,-56.3692 -295.3793,-42.2928 -535.5117,-24.2812 -348.8339,26.1649 -581.47334,-72.9736 -689.45316,-158.0703 -107.97976,-85.0966 -134.79663,-136.22444 -80.44922,-153.38675 -22.88311,-34.32477 -48.6265,-41.4759 -77.23047,-21.45313 -31.46424,30.0341 -30.39081,69.72078 3.21875,119.06248 33.60957,49.3419 108.69485,105.1206 225.25586,167.334 116.56103,62.2134 289.61564,95.4652 519.16214,99.7559 229.5464,4.2907 306.8997,-24.9667 369.1133,-19.2461 62.2135,5.7208 190.321,46.0292 243.2382,84.6445 17.1624,38.6151 10.1407,75.4752 -17.0332,78.3359 -200.2274,-58.638 -383.2925,-69.3648 -549.1953,-32.1796 -31.4642,10.0112 -52.2015,36.4711 -62.2129,79.3769 -27.1737,-64.3588 -62.9295,-96.5391 -107.2656,-96.5391 -144.44978,-7.1508 -272.45245,-35.0393 -384.00781,-83.666 -111.55522,-48.6266 -211.66961,-101.5441 -300.3418,-158.7519 -88.67218,-57.2079 -133.00781,-149.4566 -133.00781,-276.74416 0,-127.28741 28.24749,-238.48376 84.74024,-333.5918 56.49274,-95.10803 84.73828,-163.40126 84.73828,-204.87695 0,-41.47569 -13.22886,-75.80091 -39.6875,-102.97461 -26.45865,-27.17377 -56.13676,-44.33534 -89.03125,-51.48633 -32.8945,-7.15092 -48.62551,-28.60441 -47.19532,-64.35937 22.88311,-47.196425 66.50442,-73.654211 130.86329,-79.375005 z m -8.58204,34.324219 c -31.46429,4.290596 -46.12378,19.307276 -43.97851,45.050786 2.14533,25.74357 18.23543,37.54376 48.26953,35.39843 30.0341,-2.14527 44.69358,-16.09048 43.97852,-41.83398 -0.71513,-25.74358 -16.80524,-38.615236 -48.26954,-38.615236 z m 405.46094,1338.664106 57.92383,21.4531 -64.35937,100.8301 z m 203.26758,26.5488 c 29.6766,1.2513 54.1689,5.6321 73.4766,13.1406 38.6152,15.0171 64.3586,59.7099 77.2304,134.0801 12.8717,74.37 1.4307,111.5547 -34.3242,111.5547 H 931.05859 c -37.18509,-2.8603 -80.80639,6.4377 -130.86328,27.8906 12.87179,-100.1137 51.4869,-193.7913 115.84571,-281.0332 40.04549,-5.0058 74.90741,-6.8841 104.58398,-5.6328 z" />
</svg>
