<?xml version="1.0" encoding="UTF-8" standalone="no"?>
<svg
   width="1622.3939"
   height="1795.5494"
   version="1.1"
   id="svg35078"
   sodipodi:docname="US9G26VARA.svg"
   inkscape:version="1.2.1 (9c6d41e410, 2022-07-14)"
   xmlns:inkscape="http://www.inkscape.org/namespaces/inkscape"
   xmlns:sodipodi="http://sodipodi.sourceforge.net/DTD/sodipodi-0.dtd"
   xmlns="http://www.w3.org/2000/svg"
   xmlns:svg="http://www.w3.org/2000/svg">
  <defs
     id="defs35082" />
  <sodipodi:namedview
     id="namedview35080"
     pagecolor="#ffffff"
     bordercolor="#000000"
     borderopacity="0.25"
     inkscape:showpageshadow="2"
     inkscape:pageopacity="0.0"
     inkscape:pagecheckerboard="0"
     inkscape:deskcolor="#d1d1d1"
     showgrid="false"
     inkscape:zoom="0.4527756"
     inkscape:cx="797.30444"
     inkscape:cy="901.10862"
     inkscape:window-width="1920"
     inkscape:window-height="1017"
     inkscape:window-x="1072"
     inkscape:window-y="-8"
     inkscape:window-maximized="1"
     inkscape:current-layer="svg35078" />
  <path
     style="fill:#000000;stroke:none;stroke-width:100"
     d="m 1328.7054,1492.6373 204.3315,204.3315 V 1492.6373 Z M 785.0629,835.2496 c 20.31367,89.61907 32.86033,96.19113 37.64,19.7162 113.51753,23.8984 175.6534,57.95367 186.4077,102.1658 10.7543,44.212 16.7289,43.9133 17.9238,-0.896 1.1947,-44.80953 -29.8733,-94.69747 -93.2038,-149.6638 h 34.0552 c 41.8223,51.3816 108.1404,77.0724 198.9543,77.0724 152.9498,0 237.1917,16.13143 252.7257,48.3943 l 107.5429,-17.9241 c -21.5085,-20.31367 -58.2523,-43.3159 -110.2314,-69.0067 -51.9791,-25.6908 -122.1807,-38.5362 -210.6048,-38.5362 -146.9753,0 -271.24703,-27.7819 -372.8153,-83.3457 C 731.88893,667.662 681.1048,615.3842 681.1048,566.3924 c 0,-50.18667 24.19713,-74.98127 72.5914,-74.3838 48.39433,0.59733 81.5534,-10.45567 99.4772,-33.159 l 32.2629,10.7543 c -8.36447,43.01713 -57.35623,64.5257 -146.9753,64.5257 -10.75427,0 -16.1314,11.9492 -16.1314,35.8476 0,23.89847 46.6019,63.03213 139.8057,117.401 93.2038,54.36887 249.7384,81.5533 469.6038,81.5533 72.8902,0 155.9372,16.7289 249.1411,50.1867 C 1502.0154,758.17727 1372.9639,675.429 1193.7258,570.8734 1014.4877,466.3178 873.487,411.0527 770.7238,405.0781 c -77.6698,0 -151.45613,20.6124 -221.359,61.8372 -69.90287,41.22473 -103.6594,71.6952 -101.2696,91.4114 2.38987,19.7162 56.1613,62.43463 161.3143,128.1553 105.15307,65.7206 163.7042,115.3098 175.6534,148.7676 z m 0,586.1087 c 0,-35.8477 49.58923,-53.7715 148.7677,-53.7715 59.746,-5.9747 89.0215,-48.3944 87.8266,-127.2591 -1.1947,-78.8647 -19.7159,-166.6914 -55.5638,-263.48 -20.31367,-41.8222 -57.3562,-70.5003 -111.1276,-86.0343 -13.1442,86.03425 -92.60643,262.8826 -238.3867,530.5449 z m 819.6692,-2.2086 v 374.6077 l -71.6952,1.792 v -1.792 l -293.9505,-301.1201 -1154.844501,2.2086 v -73.4876 c 0,0 240.129431,6.6258 259.895201,0 10.75433,-35.8477 58.55117,-53.7715 143.3905,-53.7715 64.52573,9.5594 123.97303,-44.5108 178.3419,-162.2105 54.36893,-117.6997 82.15087,-226.13875 83.3458,-325.3172 3.58473,-20.3136 -7.76703,-43.01707 -34.0553,-68.1104 C 553.84573,706.79563 446.30287,628.5283 392.5314,577.1467 361.46347,542.49403 354.59267,492.6061 371.919,427.4829 c 17.3264,-65.1232 36.44513,-120.08957 57.3562,-164.8991 20.91113,-44.80953 23.00227,-69.3054 6.2734,-73.4876 -16.72893,-4.1822 -38.53623,-2.98727 -65.4219,3.5848 -26.88573,6.57207 -62.43463,3.8835 -106.6467,-8.0657 C 165.49647,213.29337 88.424069,277.2216 32.2628,376.4 10.754267,391.934 0,381.7772 0,345.9296 27.483133,264.67493 103.3606,183.4203 227.6324,102.1657 245.5562,92.606368 268.85713,71.695267 297.5352,39.4324 334.57773,13.144133 373.41267,0 414.04,0 561.01527,0 602.53877,80.059701 538.6105,240.1791 474.68223,400.2985 471.09747,461.23947 527.8562,423.002 c 56.75873,-38.23747 137.11713,-57.3562 241.0752,-57.3562 137.41593,0 395.5188,123.67427 774.3087,371.0228 38.2374,31.06793 63.9282,56.75873 77.0724,77.0724 7.1695,33.4578 -4.1823,51.38163 -34.0553,53.7715 -95.5936,-34.65273 -151.7549,-53.174 -168.4838,-55.5638 92.0089,34.65267 157.1321,79.4622 195.3696,134.4286 l -193.5772,34.0552 c -65.7207,-39.4324 -109.9327,-59.1486 -132.6362,-59.1486 h -220.4629 c 5.9747,90.8139 10.4556,171.1723 13.4429,241.0752 2.9873,69.9029 7.767,115.0111 14.3391,135.3248 6.572,20.3137 4.7797,38.5363 -5.377,54.6677 -10.1568,16.1315 -14.6377,39.1337 -13.4428,69.0067 z M 331.5905,111.1276 c 21.50853,15.534 41.52343,21.5086 60.0447,17.9238 18.52133,-3.58473 30.47057,-14.93647 35.8477,-34.0552 5.37713,-19.118733 -2.38987,-32.5616 -23.301,-40.3286 -20.91113,-7.767 -37.93877,-5.675867 -51.0829,6.2734 -13.14407,11.9492 -20.31357,28.678068 -21.5085,50.1866 z"
     id="path35076"
     sodipodi:nodetypes="ccccccssccsccsssssccsssscscssscccscccccccccccccscccsssscccccssssccccccscssscccssssc" />
</svg>
