<?xml version="1.0" encoding="UTF-8" standalone="no"?>
<svg
   width="1799.9941"
   height="1795.194"
   version="1.1"
   id="svg1"
   xml:space="preserve"
   xmlns="http://www.w3.org/2000/svg"
   xmlns:svg="http://www.w3.org/2000/svg"><defs
     id="defs1" /><path
     id="path1"
     style="fill:#000000;stroke:none;stroke-width:90.5297"
     d="M 776.33984,0 V 325.72158 C 699.83347,348.44631 649.59092,401.4698 625.61133,484.79372 H 310.45117 l 1.71094,92.79368 289.46875,1.8938 c 4.56752,60.59913 27.12123,131.29723 67.6582,212.09617 24.97209,49.77483 52.37611,96.59046 81.68164,141.09513 -7.76729,0.0774 -15.01279,0.47075 -22.9082,0.47075 -27.4733,0 -55.75161,-0.43452 -84.98242,-1.54181 -106.75117,-6.67638 -212.26547,-115.29798 -319.19336,-121.84409 -0.98182,-0.0151 -2.06114,-0.0216 -3.04297,-0.0216 C 168.71949,809.73569 0.08836609,981.90766 0,1008.4242 c 0,41.5835 5.5969829,65.3521 49.644531,65.3521 30.723374,-34.765 159.232559,-152.37773 250.626949,-155.01897 6.67687,-0.21712 13.20782,-0.32391 19.55079,-0.32391 80.22045,0 102.17269,19.04365 125.42382,50.86897 4.9095,8.32632 2.2195,26.19783 -31.52343,26.19783 -2.74931,0 -5.59723,-0.0577 -8.54297,-0.21594 -37.24307,-1.51974 -58.8856,-15.73123 -150.16211,-15.73123 -2.94572,0 -5.9908,0.0144 -9.13281,0.0453 -41.80896,0 -66.19922,25.71835 -66.19922,44.43835 0,19.7685 7.32258,34.8539 36.25195,36.8458 105.81803,-32.6756 294.77281,100.4555 382.2207,11.8313 l 261.76953,-1.4727 c 72.81728,75.9328 199.34457,195.7789 380.58787,385.5154 0,29.2306 -1.4657,86.379 -1.7109,115.6077 l -599.49025,-64.3868 c -68.51314,-2.5251 -158.15309,35.666 -268.91601,114.5712 -110.76288,78.9052 -168.99758,125.9323 -174.70703,141.0822 12.56074,25.2497 38.82303,35.3508 78.78906,30.3008 69.65502,-45.4493 146.16188,-95.3186 229.51953,-149.6054 -15.98637,92.1612 -7.42131,138.2425 25.69336,138.2425 41.10786,3.7875 61.66016,-46.0818 61.66016,-149.6052 10.27697,-17.675 27.4071,-26.5111 51.38671,-26.5111 154.13956,14.2015 318.60286,36.7231 680.44927,67.5656 24.1606,2.0594 19.1269,-164.7557 19.1269,-164.7557 117.7503,97.0576 404.6865,189.3926 416.1055,118.6935 5.7095,-27.7746 -2.5691,-84.5863 -24.836,-170.4349 -16.4213,-63.312 -123.3964,-220.1767 -230.789,-389.8968 l 25.291,-0.1425 271.9062,2.6172 V 586.50357 c 0,-64.71745 -30.0966,-96.71948 -92.2109,-96.71948 v 0.0648 c -62.1243,0 -94.5456,19.20517 -96.9414,57.50695 -26.2754,249.62597 -43.4486,338.50346 -70.9316,339.82462 -24.5473,-0.7599 -48.4167,-1.08402 -71.7071,-1.08402 -25.798,0 -50.2567,0.7656 -74.7461,1.51375 -0.4328,-0.75704 -0.9238,-1.53686 -1.3554,-2.29328 C 1261.3558,656.17623 1088.6451,467.75073 873.9707,320.04021 V 0 Z m 40.14454,425.85076 c 18.91247,-0.15782 39.78729,3.70979 62.625,11.60029 75.36447,56.81176 164.71802,142.02995 268.05862,255.6534 54.5049,59.92833 105.1689,126.36095 152.209,198.93248 -148.8111,9.61552 -281.5018,28.26806 -430.88286,36.67739 C 739.30556,761.10308 682.84499,630.14495 699.26367,535.92396 c 21.41034,-72.9084 60.48327,-109.59974 117.22071,-110.0732 z m 888.94332,116.27716 c 25.0873,0 37.8321,15.38137 37.8321,44.43827 V 921.1629 h -113.4864 l 37.8223,-350.28043 c 1.178,-18.49084 12.7448,-28.75455 37.832,-28.75455 z m -305.4765,526.07498 c 5.6818,11.2826 11.4472,22.4247 16.9883,33.9457 76.5062,159.0728 232.4326,363.5785 243.8515,414.0777 17.1282,66.9118 -47.7942,47.7416 -101.4629,25.0167 -79.9319,-30.2995 -278.8461,-188.4909 -466.1152,-357.6635 -38.0987,-39.1016 -73.2507,-76.7197 -105.86134,-113.0553 z" /></svg>
