<?xml version="1.0" encoding="UTF-8" standalone="no"?>
<!-- Created with Inkscape (http://www.inkscape.org/) -->

<svg
   width="1794.759"
   height="1795.6353"
   id="svg2"
   version="1.0"
   xmlns="http://www.w3.org/2000/svg"
   xmlns:svg="http://www.w3.org/2000/svg"
   xmlns:rdf="http://www.w3.org/1999/02/22-rdf-syntax-ns#"
   xmlns:cc="http://creativecommons.org/ns#"
   xmlns:dc="http://purl.org/dc/elements/1.1/">
  <defs
     id="defs4" />
  <metadata
     id="metadata7">
    <rdf:RDF>
      <cc:Work
         rdf:about="">
        <dc:format>image/svg+xml</dc:format>
        <dc:type
           rdf:resource="http://purl.org/dc/dcmitype/StillImage" />
        <dc:creator>
          <cc:Agent>
            <dc:title>S. Rosmorduc</dc:title>
          </cc:Agent>
        </dc:creator>
        <dc:description>G1 sign from Sethy temple in Abydos.</dc:description>
      </cc:Work>
    </rdf:RDF>
  </metadata>
  <path
     id="path4951"
     style="display:inline;fill:#000000;fill-opacity:1;fill-rule:evenodd;stroke:none;stroke-width:63.8701;stroke-linecap:butt;stroke-linejoin:miter;stroke-miterlimit:4;stroke-opacity:1"
     d="m 563.33203,0.072266 c -46.66696,-0.7211 -94.16821,4.179431 -139.36523,5.40625 -67.72109,30.797203 -131.50971,-1.62602 -201.80664,21.0625 -51.14705,21.120732 -68.76914,70.673136 -92.97852,119.697264 125.13145,-36.27687 195.74231,37.60417 303.64844,77.78125 -3.74067,47.57462 -14.43081,101.06161 -21.6875,155.22266 -0.47329,2.86843 -0.70736,5.70126 -1.11719,8.56054 -41.05783,-6.75469 -69.98872,-18.36147 -76.2207,-29.51953 -5.52076,-9.88473 -27.05085,-18.92288 -39.75391,-18.18359 -36.79368,15.11287 -59.49891,23.80628 -94.20117,25.75976 -4.68519,0.27267 -66.85729,8.36408 -101.595703,12.42578 -52.10756,6.09249 -83.478581,33.95479 -94.6992195,73.24024 -11.2206409,39.28537 4.1223765,72.62523 46.0253915,100.02148 41.903015,27.39625 49.350881,41.70795 98.107421,47.66797 16.30299,1.53512 72.36471,8.96551 83.84766,-3.73242 6.07381,-7.18453 81.69926,-13.64587 195.29101,-21.17383 22.75485,69.53812 62.37491,132.74322 111.68555,185.97266 57.70854,184.68781 145.91036,329.80325 207.3125,475.17975 -13.3243,62.1179 -109.02961,368.9742 -140.97656,452.0761 -71.14053,7.8651 -148.33872,7.1414 -219.4961,-4.8086 -41.23702,-9.8611 -103.06701,73.1067 -151.6875,112.9063 l 921.39454,-1.1445 c -16.6944,-97.3309 -209.82932,-116.8367 -256.31446,-114.5743 24.58612,-62.2974 75.73286,-162.4525 89.48828,-251.0586 22.85678,26.9225 48.56188,56.1239 82.99028,61.6211 42.6235,-0.3126 62.275,-31.6479 70.8652,-73.8554 82.3949,186.6321 178.6272,341.2727 373.7989,378.0586 68.2873,1.5195 155.5711,-25.486 180.0781,-105.6739 90.6375,1.262 31.9892,-103.1208 1.4551,-144.6035 -222.7994,-319.0762 -399.5227,-677.30112 -619.2266,-998.38868 -2.5033,-3.25708 -5.1472,-6.22029 -7.6758,-9.42187 125.9169,-4.17179 234.4232,0.45678 358.7324,10.39453 -46.4406,82.2625 -78.2839,153.15771 -95.5293,212.68359 -17.2449,59.52596 -2.971,101.72678 42.8243,126.60157 21.9811,11.93991 47.7587,17.05116 77.332,15.33007 32.0378,-1.86452 68.5314,-11.74735 109.4785,-29.64453 36.3291,19.14125 71.4418,27.72659 105.3379,25.75391 16.1209,-0.9382 31.9661,-4.26427 47.5371,-9.97852 48.3092,-17.72896 74.2559,-58.25551 77.8359,-121.57617 3.5803,-63.32067 -5.6991,-140.43683 -51.9921,-221.50976 -46.2938,-81.07312 -117.0668,-134.90957 -192.375,-158.44922 -45.8124,-14.31994 -102.7312,-20.21473 -169.7266,-20.83203 -40.1974,-0.37039 -84.0232,1.15949 -131.2539,3.9082 -2.7454,0.15978 -187.76,10.48949 -329.76177,17.16601 -46.54915,-36.1213 -96.94791,-68.563 -152.66992,-98.81054 -7.68547,-27.72338 -7.97602,-66.33578 -11.10938,-109.03907 C 751.75772,132.00712 735.6962,54.940646 697.69141,28.396484 655.83234,7.13661 609.99899,0.793365 563.33203,0.072266 Z m 0.41211,61.976562 C 569.58888,113.895 547.26579,171.47945 511.62891,186.20898 l 8.9707,27.29688 c 44.6159,-19.68302 91.02376,-85.38515 101.83008,-146.753907 58.24589,8.467514 70.49446,59.501547 75.28906,117.980467 7.99259,40.32902 -10.38081,135.2779 32.66992,155.26758 126.5221,67.36595 221.54517,141.29169 303.76173,248.26562 138.3831,230.79646 284.2658,455.25548 422.627,686.28908 53.7557,89.8882 102.9021,172.2337 143.1445,234.6035 C 1379.6683,1292.3142 1128.274,1120.0184 882.3125,942.17187 751.6017,847.44026 626.02213,768.51965 640.01367,583.35742 647.53728,483.79088 816.3334,412.96179 810.60742,399.48437 804.52928,385.17825 596.83562,439.6673 584.42969,603.8457 c -3.15495,41.75211 3.81196,81.27323 18.28906,118.72266 -0.25691,-0.0408 -0.51154,-0.0833 -0.77148,-0.1211 C 423.14617,595.86482 470.00695,371.49429 492.36719,172.22461 414.91888,161.32339 354.43698,108.389 282.04492,82.708984 c 57.95446,-3.927011 115.90977,-10.300241 173.875,-12.542968 -10.96557,1.602628 -21.36199,7.914907 -28.67578,17.291015 -5.03144,41.968259 80.41135,44.091829 78.9043,12.427731 -8.18869,-17.340707 -24.82622,-29.3075 -42.50781,-30.048824 28.92466,-2.408327 67.50834,-6.31934 100.10351,-7.78711 z M 262.22852,399.19531 c -3.22771,53.73759 -25.86477,105.16164 -67.91016,154.27344 -37.26765,10.80637 -54.9267,-5.98448 -69.15625,-11.48438 -46.724354,-17.55321 -67.324114,-40.83476 -61.796875,-69.84375 5.527224,-29.00917 24.225855,-47.11828 56.095705,-54.32812 19.39896,-4.38842 77.40286,-9.92429 89.10742,-10.60547 18.20738,-1.05959 34.80502,-3.65487 53.66016,-8.01172 z m 1032.15828,11.64648 c 72.8147,-1.15369 134.6572,2.09812 185.5273,9.75196 67.8264,10.20505 118.2036,30.50536 169.707,84.88281 51.504,54.3774 83.1593,126.35885 94.9668,215.94141 11.4063,86.53704 -6.216,109.78455 -65.0781,127.96875 -1.9903,0.61484 -87.0918,-12.57746 -101.543,-61.84375 -14.4513,-49.26634 -36.4047,-107.66842 -35.8222,-168.51953 0.5822,-60.85124 -30.5477,-106.19057 -74.8145,-112.0293 -44.2662,-5.8388 -100.5442,-10.02258 -168.832,-12.55078 -47.1837,-1.74694 -133.6915,1.06363 -257.5469,6.45703 -23.4773,-26.77073 -48.12974,-51.49466 -74.02347,-74.64063 104.57757,-5.27631 217.85817,-11.10419 250.98637,-12.79492 26.7097,-1.36333 52.2011,-2.23848 76.4727,-2.62305 z m -967.83016,8.01758 c 28.71248,3.37934 53.28034,6.25779 79.68555,9.00196 -1.55482,36.09336 1.76397,71.27427 9.23633,105.1914 -43.16184,2.59536 -97.15811,5.84059 -100.19922,6.01758 -34.00232,1.97883 -37.67356,1.33054 -24.66016,-18.74609 16.48946,-25.43959 28.7458,-54.38146 35.9375,-101.46485 z M 1463.2559,567.02734 c 22.342,-1.30026 28.2807,8.65833 23.9355,50.60352 -4.344,41.94524 0.6946,95.20161 15.1172,159.76953 12.8455,57.50583 -34.6869,76.30955 -41.041,75.80078 -58.0968,-4.65138 -91.0397,-23.74338 -75.625,-83.92773 15.4148,-60.18446 49.8827,-114.74741 77.6133,-202.2461 z M 620.05078,815.8457 c 105.18412,156.65585 188.78155,332.5866 261.70313,510.3555 16.1382,26.5275 -5.89717,47.9528 -22.58985,70.6641 C 817.92752,1189.6319 699.55999,1023.0169 620.05078,815.8457 Z m 135.41797,108.56445 c 254.89485,181.35735 507.05515,364.02625 745.35165,572.13675 55.369,59.0588 103.7815,123.8495 135.3925,183.3516 -26.9615,39.9268 -73.3517,50.7554 -115.4804,50.6679 -213.1277,-25.0013 -279.2152,-264.2148 -379.5625,-439.2441 l -55.0625,-89 2.4394,108.7559 c -0.8016,21.1542 11.8401,129.268 -23.8848,108.0957 l -96.99413,-154.4317 c -12.20492,7.7039 -23.82057,16.6322 -36.34375,23.6914 C 886.9876,1161.8081 817.16403,1041.711 755.46875,924.41015 Z m 38.23242,448.46095 c 13.29382,47.3377 18.31147,96.7719 24.15235,145.8399 29.16236,-22.8255 57.54893,-46.3946 82.24023,-75.1661 -21.34731,88.3856 -70.03224,230.128 -136.02734,225.0079 -39.94361,-3.0989 -41.49112,-88.6002 -8.88868,-179.0254 15.35664,-42.5927 28.11001,-83.4813 38.52344,-116.6563 z" />
</svg>
