<?xml version="1.0" encoding="UTF-8" standalone="no"?>
<svg
   width="2173.1909"
   height="1676.741"
   version="1.1"
   id="svg1"
   xmlns="http://www.w3.org/2000/svg"
   xmlns:svg="http://www.w3.org/2000/svg">
  <defs
     id="defs1" />
  <path
     style="fill:#000000;stroke:none;stroke-width:88.611"
     d="m 1272.0237,1632.3515 c 41.2818,-20.1773 77.7068,-28.9208 109.2752,-26.2304 h 176.6614 c 29.1403,1.3448 38.5502,-32.9568 28.2295,-102.9049 -10.3204,-69.9482 -31.8719,-112.3206 -64.6545,-127.1175 -32.7826,-14.7968 -83.7775,-17.487 -152.9852,-8.0705 -54.6376,82.0547 -86.8129,170.1626 -96.5264,264.3238 z M 944.19829,80.709599 c 27.9259,-1.34518 42.19237,10.42496 42.79939,35.310421 0.60727,24.88546 -11.83794,38.33709 -37.33565,40.35487 -25.49753,2.01768 -39.46046,-9.4162 -41.88882,-34.30166 -2.4285,-24.885453 9.71318,-38.673332 36.42508,-41.363631 z m 335.11051,1374.080601 54.6375,-96.8515 -49.1739,-18.1594 z m 130.8249,-460.45836 -72.7817,21.88256 -43.1297,-54.39029 c 423.7926,-120.94759 772.1918,-262.72589 776.0583,-526.51119 l -892.1733,274.03222 c -56.8431,17.45942 -142.2393,-73.75709 -122.8126,-198.8569 19.4267,-125.09988 24.8904,-233.38528 16.3913,-324.85617 -8.4992,-91.470886 -49.7809,-137.20633 -123.84524,-137.20633 -44.92419,0 -81.95629,20.177393 -111.09634,60.53218 -3.64253,40.35484 9.10622,62.88627 38.24622,67.59427 29.14005,4.70807 55.24467,19.84114 78.31388,45.39918 23.06922,25.55806 34.60382,57.84188 34.60382,96.85148 0,39.00966 -25.80109,104.92251 -77.40324,197.7385 -51.60215,92.81609 -76.79616,195.38456 -75.58203,307.7054 1.21425,112.32082 39.76411,197.40215 115.64961,255.24415 75.88552,57.8419 162.09152,111.312 258.61782,160.4103 96.5265,49.0983 205.4981,76.3377 326.9152,81.7184 37.6389,0 67.9932,30.2661 91.0623,90.7982 9.7135,-40.3545 27.3189,-64.5676 52.8164,-72.6385 99.5619,-45.7356 222.1927,-48.4257 367.8931,-8.0707 67.9936,-5.3808 86.2058,-27.576 54.6376,-66.5853 -32.7827,-36.3193 -86.2654,-61.8687 -160.2704,-77.683 -143.7605,-30.7206 -412.0491,-50.6867 -532.111,-193.10846 z M 1250.1688,1321.6196 C 1138.4652,1266.468 982.494,1169.2123 931.49894,1136.9285 243.83359,1374.9909 135.1842,1133.572 0,942.90101 L 768.77764,749.0027 c 1.21411,-143.93209 32.7558,-162.51298 89.82173,-252.63868 57.06594,-90.12571 82.56349,-157.71997 76.49258,-202.78283 -6.07076,-45.0629 -46.74537,-69.61211 -122.02383,-73.6476 L 590.87524,203.79173 c 1.2142,-30.93868 15.17714,-51.78865 41.88887,-62.54996 C 695.90085,118.37409 746.28885,100.88702 783.92809,88.780585 839.77984,29.593527 898.66698,0 960.58955,0 c 114.13185,0 169.98355,84.072487 167.55525,252.21747 0,64.56765 -4.5531,140.90547 -13.6593,229.01347 -9.1063,88.10799 1.4107,162.01811 38.4923,154.93036 334.9067,-64.01401 673.044,-193.9346 1001.3588,-291.45326 -42.9157,384.80397 -304.4383,498.18035 -679.326,626.10482 106.328,112.36684 422.31,148.36024 521.8717,175.26344 99.5619,26.9031 156.3243,67.2579 170.2873,121.0643 13.9627,53.8065 3.6423,89.1169 -30.9615,105.9313 -34.6036,16.8147 -100.7757,17.4872 -198.5165,2.0175 -97.7405,-15.4692 -181.8217,-7.7349 -252.2436,23.2042 -40.0674,130.4804 -37.0317,203.119 9.1065,217.9156 35.2107,40.3549 38.2464,60.5322 9.1062,60.5322 h -677.5061 c -38.85338,0 -63.44026,-3.0264 -73.76064,-9.0796 -10.32047,-6.0531 -20.94446,-3.0266 -31.87199,9.0796 -15.78415,-16.1417 -17.90899,-33.2925 -6.37456,-51.4523 11.5346,-18.1597 34.30028,-29.9298 68.29699,-35.3104 105.6327,13.4517 179.0899,20.1773 220.3716,20.1773 26.7117,-41.7 42.4958,-137.8789 47.3525,-288.5368 z M 774.90184,827.60592 111.76355,976.81851 c 92.65951,132.02889 237.82495,304.68119 760.45819,109.74089 -94.6296,-87.86403 -91.82153,-181.01303 -97.3199,-258.95348 z"
     id="path1" />
</svg>
