<?xml version="1.0" encoding="UTF-8" standalone="no"?>
<svg
   width="1802.0118"
   height="1798.2747"
   version="1.1"
   id="svg537"
   xmlns="http://www.w3.org/2000/svg"
   xmlns:svg="http://www.w3.org/2000/svg">
  <defs
     id="defs541" />
  <path
     id="path535"
     style="fill:#000000;stroke:none;stroke-width:99.7824"
     d="m 964.09463,0.14549717 c -2.42242,0.2276355 -4.04796,0.7284399 -4.59766,1.55664063 C 922.26173,57.802588 928.37065,160.18164 902.66689,253.0244 892.70781,351.09219 757.29973,385.6854 681.59267,345.97558 613.95215,291.91899 580.41376,205.00841 526.9833,154.93651 c -47.24857,15.9867 -90.13011,24.60713 -89.27734,57.51172 1.2066,46.55736 42.01778,88.70956 71.0996,119.45313 51.94401,54.9121 146.96921,157.79654 128.2168,257.21875 -9.23501,114.06688 46.36692,218.09164 105.92383,310.98437 108.77887,158.60562 257.20481,283.60062 384.44921,426.48442 17.6351,18.2675 33.1664,34.1233 48.1562,48.9082 45.3691,114.8465 133.5465,292.3682 135.8106,310.8496 -232.0381,-28.8475 -758.32657,-84.6297 -984.94726,-84.3906 -148.48359,10.8571 -237.462669,68.6665 -269.748047,74.1015 -58.8995284,9.9154 -57.21823663,55.105 -56.45898433,82.4141 59.93614833,82.7818 13.21793733,-29.8942 50.61132833,-11.8906 12.936525,6.2285 45.84257,4.0317 62.585933,-12.8985 31.86448,-32.2198 93.29401,-59.7073 163.16602,-61.58 75.91483,3.5731 108.90549,15.4239 153.73633,44.0683 24.18963,18.3889 61.85167,66.2132 84.91015,54.6817 48.89947,-24.4548 21.26324,56.0149 41.76172,15.789 30.31364,-59.4868 -38.74984,-58.8835 -111.34375,-122.4062 0.59665,0.021 1.2359,0.049 1.91797,0.094 251.39735,59.3941 812.50799,71.9823 942.91209,126.086 136.8043,28.6638 137.947,-25.246 116.2031,-94.2657 -3.1228,-10.729 -39.7976,-68.313 -80.9238,-131.5253 94.256,53.5965 248.059,120.3603 331.5035,137.5718 62.0014,12.7886 44.4155,-159.8977 35.3363,-230.5465 -93.7144,-325.0409 -283.8224,-615.08413 -511.8808,-861.9375 -86.8118,-93.92876 -159.3061,-178.49163 -251.8262,-266.75195 15.8477,-106.01124 3.7058,-236.08865 7.8555,-325.27539 0.3395,-7.296624 -55.68174,-19.1325112 -72.63867,-17.53906283 z M 856.22744,427.8955 c 14.20944,-0.48632 28.45749,-0.48333 34.30469,0.0664 119.94127,7.38827 179.85427,100.65683 267.35547,166.22852 224.3359,210.05071 414.2186,520.87858 528.6191,803.87508 45.7634,113.2065 53.7978,190.2161 -57.7441,157.9921 -113.7856,-32.872 -241.5535,-104.1573 -308.4063,-175.4941 C 1116.645,1163.189 901.18162,1031.7906 748.00088,716.87206 704.54243,627.52746 714.1903,460.61129 822.15322,430.76659 c 5.69251,-1.40865 19.86478,-2.38478 34.07422,-2.87109 z m 407.61126,1026.1543 c 18.3267,14.6495 38.8099,30.3013 63.3614,48.2852 0.8697,0.6371 2.0005,1.3303 2.8847,1.9707 19.306,33.202 41.6289,69.0633 77.9395,122.2519 49.1817,97.483 -28.3722,83.5033 -39.3184,34.8204 -7.6282,-6.9176 -62.3542,-117.7245 -104.8672,-207.3282 z" />
</svg>
