<?xml version="1.0" encoding="UTF-8" standalone="no"?>
<svg
   width="1431.2"
   height="1797.3"
   version="1.1"
   id="svg134"
   xmlns="http://www.w3.org/2000/svg"
   xmlns:svg="http://www.w3.org/2000/svg">
  <defs
     id="defs138" />
  <path
     id="path132"
     style="fill:#000000;stroke:none;stroke-width:100"
     d="M 544.05664 0.20507812 C 528.52106 0.85241078 512.338 14.121098 495.50781 40.013672 C 491.62395 51.665394 483.53343 64.612597 471.23438 78.853516 C 458.93539 93.094499 441.13345 107.33525 417.83008 121.57617 C 394.52677 135.81709 377.6969 147.14542 367.33984 155.56055 C 356.98279 163.97567 339.50423 179.18855 314.90625 201.19727 C 294.19214 218.02745 279.30458 231.61951 270.24219 241.97656 C 249.52807 229.03024 232.05147 213.17251 217.81055 194.40039 C 203.56956 175.62821 195.80046 158.47308 194.50586 142.9375 C 193.21119 127.40192 194.83013 115.10341 199.36133 106.04102 C 203.89252 96.978627 211.01287 91.477154 220.72266 89.535156 C 230.43238 87.593225 239.81847 89.210144 248.88086 94.388672 C 257.94332 99.567198 261.82787 108.62985 260.5332 121.57617 C 257.94394 133.22783 249.52803 140.34824 235.28711 142.9375 C 226.22465 139.05364 221.04655 139.70233 219.75195 144.88086 C 217.16269 161.71104 223.63629 170.77181 239.17188 172.06641 C 254.70746 173.36107 267.32934 168.82971 277.03906 158.47266 C 286.74879 148.1156 290.95677 130.63899 289.66211 106.04102 C 280.59972 78.853778 266.3589 63.966217 246.93945 61.376953 C 227.52001 58.787689 208.42257 63.317095 189.65039 74.96875 C 170.87821 86.620472 160.52201 104.74578 158.58008 129.34375 C 156.63815 153.94173 165.37743 178.86407 184.79688 204.10938 C 204.21632 229.35468 225.57748 250.39247 248.88086 267.22266 C 230.75601 290.52603 211.9839 319.65434 192.56445 354.60938 L 109.06055 354.60938 C 142.72098 390.85907 162.78859 441.99724 169.26172 508.02344 C 143.36914 506.72877 132.36418 517.73373 136.24805 541.03711 C 99.998348 551.39417 81.873047 585.70253 81.873047 643.96094 C 97.408633 634.89848 111.64938 631.66074 124.5957 634.25 C 140.13129 634.25 152.75512 652.3753 162.46484 688.625 C 172.17457 724.87463 193.21229 765.0079 225.57812 809.02539 L 225.57812 810.96875 C 217.81027 826.5044 213.92578 851.10135 213.92578 884.76172 C 213.92578 918.42215 243.70279 966.97135 303.25586 1030.4082 C 362.80887 1234.96 391.93718 1384.49 390.64258 1478.998 C 390.64258 1490.6497 399.05849 1497.77 415.88867 1500.3594 L 351.80469 1713.9727 C 331.09057 1712.678 307.46373 1715.2669 280.92383 1721.7402 C 254.38385 1728.2139 226.54909 1727.8918 197.41992 1720.7715 C 168.29068 1713.6508 140.1306 1712.6788 112.94336 1717.8574 C 85.756118 1723.0361 66.984009 1724.3315 56.626953 1721.7422 C 22.96652 1729.51 4.1944097 1754.7558 0.31054688 1797.4785 C 33.97098 1778.0591 55.657464 1773.2044 65.367188 1782.9141 C 75.076911 1792.6239 94.17239 1797.4785 122.6543 1797.4785 L 687.76172 1797.4785 C 712.35969 1797.4785 731.77855 1792.3003 746.01953 1781.9434 C 760.26045 1771.5864 782.26842 1776.7645 812.04492 1797.4785 C 813.33959 1756.0504 791.33162 1729.5091 746.01953 1717.8574 C 700.70738 1734.6877 663.16322 1736.6298 633.38672 1723.6836 L 623.67773 1531.4316 C 674.16835 1601.3418 715.59517 1621.4075 747.96094 1591.6309 C 738.89855 1512.6584 734.36719 1440.159 734.36719 1374.1328 L 788.74219 1407.1465 C 819.81336 1421.3874 888.10476 1488.7086 993.61719 1609.1094 C 1099.1297 1729.51 1160.3026 1787.1218 1177.1328 1781.9434 L 1361.6172 1743.1035 C 1381.0366 1736.6304 1384.9212 1726.9209 1373.2695 1713.9746 L 1227.623 1548.9082 C 1318.2473 1607.1666 1386.2153 1646.0063 1431.5273 1665.4258 C 1409.5186 1640.8277 1372.6212 1609.7572 1320.8359 1572.2129 L 1359.6758 1585.8066 C 1375.2114 1583.2174 1381.685 1570.9168 1379.0957 1548.9082 C 1153.8299 1385.7846 1010.7715 1245.3173 949.92383 1127.5059 C 889.07616 1009.6944 817.54889 913.89158 735.33984 840.09766 C 653.13073 766.30366 591.95778 683.44612 551.82422 591.52734 C 527.22624 533.26894 501.98053 493.78247 476.08789 473.06836 L 656.68945 63.318359 L 613.9668 40.013672 L 512.98633 259.45508 L 522.69531 214.78906 C 530.4631 183.71796 538.87902 160.41644 547.94141 144.88086 C 557.00386 129.34527 566.06652 118.34038 575.12891 111.86719 C 594.54835 83.385351 604.25781 61.375428 604.25781 45.839844 C 604.25781 30.304259 598.43095 18.652558 586.7793 10.884766 C 573.83298 3.1169735 559.59223 -0.44225456 544.05664 0.20507812 z M 556.07227 32.246094 C 560.03707 32.246085 563.79915 33.541612 567.35938 36.130859 C 581.60029 43.898652 577.07089 62.670695 553.76758 92.447266 C 529.16954 117.04524 513.95665 137.75966 508.13086 154.58984 C 502.305 171.42003 496.15477 193.75137 489.68164 221.58594 C 483.20845 249.42051 468.9677 289.2323 446.95898 341.01758 L 402.29492 354.60938 L 241.11328 354.60938 C 256.64887 320.94901 274.77417 290.5252 295.48828 263.33789 C 345.9789 216.7312 383.52312 185.66058 408.12109 170.125 C 432.71907 154.58942 452.46136 141.31878 467.34961 130.31445 C 482.23793 119.31006 498.09755 98.272339 514.92773 67.201172 C 530.46332 43.897845 544.17785 32.246119 556.07227 32.246094 z M 1012.3145 349.98828 L 689.31055 645.92383 L 736.22656 685.62305 L 945.54883 487.12891 C 958.78181 472.69299 974.41996 466.67799 992.46484 469.08398 C 1008.1037 472.69298 1020.1337 484.12123 1028.5547 503.36914 L 1237.877 994.19141 C 1254.7188 1026.6723 1267.9502 1040.5072 1277.5742 1035.6953 C 1300.431 1022.4624 1307.0477 998.40249 1297.4238 963.51562 C 1303.4387 973.13952 1311.5598 981.86215 1321.7852 989.68164 C 1332.0106 997.50083 1341.9347 999.0033 1351.5586 994.19141 C 1361.1822 988.17651 1365.3922 978.85414 1364.1895 966.22266 C 1362.9862 953.59127 1359.378 941.86215 1353.3633 931.03516 C 1378.6262 957.50103 1402.6861 964.11765 1425.543 950.88477 C 1435.1669 946.07287 1430.3553 928.02787 1411.1074 896.75 L 1097.125 463.67188 L 1012.3145 349.98828 z M 182.85547 393.44922 L 454.72656 393.44922 L 423.65625 461.41797 C 333.03207 452.35558 262.47499 456.88687 211.98438 475.01172 C 205.51125 430.99423 195.80179 403.80628 182.85547 393.44922 z M 1066.4492 488.93359 L 1355.168 887.72656 L 1257.7246 941.86133 L 1066.4492 488.93359 z M 314.90625 502.19922 C 370.57539 502.19922 402.94152 528.09167 412.00391 579.87695 C 421.06636 631.66217 391.29125 667.26408 322.67578 686.68359 C 345.97909 730.70102 345.97909 758.53584 322.67578 770.1875 C 299.3724 781.83922 277.68592 776.98449 257.61914 755.62305 C 237.55236 734.2616 219.75238 703.83779 204.2168 664.35156 C 188.68121 624.86534 165.37774 605.12109 134.30664 605.12109 L 167.31836 605.12109 C 153.07737 583.11232 147.89927 566.28251 151.7832 554.63086 C 164.72952 555.92552 173.14543 550.10062 177.0293 537.1543 C 201.62727 513.85092 247.58538 502.19922 314.90625 502.19922 z M 429.48242 508.02344 C 448.90187 508.02344 476.7367 549.77565 512.98633 633.2793 C 549.23603 716.78301 608.14134 793.8137 689.70312 864.37109 C 771.26484 934.92849 836.96726 1020.6985 886.81055 1121.6797 C 936.6539 1222.6609 1034.0756 1333.3532 1179.0742 1453.7539 C 925.32655 1333.3532 766.087 1258.9116 701.35547 1230.4297 C 636.62387 1201.9478 531.75842 1135.2734 386.75977 1030.4082 C 303.90338 969.56054 262.47461 921.01135 262.47461 884.76172 C 262.47461 856.27981 265.71047 831.68286 272.18359 810.96875 L 272.18359 809.02539 C 338.20979 809.02539 371.22266 776.01253 371.22266 709.98633 C 460.55223 665.96891 479.97304 598.64761 429.48242 508.02344 z M 231.40234 535.21094 C 206.80437 536.50554 193.85912 548.1573 192.56445 570.16602 C 193.85912 596.05866 206.80437 609.00586 231.40234 609.00586 C 256.00032 609.00586 268.94752 596.05866 270.24219 570.16602 C 268.94752 548.1573 256.00032 536.50554 231.40234 535.21094 z M 367.33984 1104.2031 L 375.10742 1104.2031 C 399.7054 1222.0145 460.55309 1352.1257 557.65039 1494.5352 C 526.57929 1519.1331 486.44602 1502.3013 437.25 1444.043 C 437.25 1379.3114 413.94653 1266.032 367.33984 1104.2031 z M 439.19141 1166.3457 C 515.57466 1227.1934 601.668 1284.8033 697.4707 1339.1777 L 697.4707 1523.6641 C 663.81027 1497.7716 630.15067 1482.2353 596.49023 1477.0566 C 504.57146 1326.8795 452.13773 1223.3094 439.19141 1166.3457 z M 520.75391 1179.9395 L 1101.3965 1473.1719 C 1176.485 1557.3229 1248.3377 1636.9446 1316.9531 1712.0332 L 1316.9531 1713.9746 L 1171.3066 1737.2773 L 881.95508 1424.623 C 826.286 1379.311 705.88619 1297.7509 520.75391 1179.9395 z M 460.55273 1546.9668 C 494.21317 1589.6897 529.81508 1591.6319 567.35938 1552.793 L 577.07031 1723.6836 C 542.11528 1715.9159 511.6914 1719.1535 485.79883 1733.3945 C 454.72766 1723.0372 428.83521 1719.7996 408.12109 1723.6836 L 460.55273 1546.9668 z " />
</svg>
