<?xml version="1.0" encoding="UTF-8" standalone="no"?>
<svg
   width="1802.5219"
   height="1800.3461"
   version="1.1"
   id="svg1"
   xmlns="http://www.w3.org/2000/svg"
   xmlns:svg="http://www.w3.org/2000/svg">
  <defs
     id="defs1" />
  <path
     id="path1"
     style="fill:#000000;stroke:none;stroke-width:100.054"
     d="M 1066.671,0 C 860.91564,92.36376 698.14333,128.28449 578.51658,107.47994 497.44999,83.08408 419.91836,93.059658 345.96907,137.57432 L 243.76542,211.63777 C 184.97497,252.33696 108.0991,292.4749 13.172106,331.81989 1.3103484,337.25113 -2.5606027,346.11467 1.6424378,358.39675 5.8454685,370.6788 14.012501,373.98968 25.874279,368.55848 199.01901,305.19078 305.00176,274.38389 344.01489,276.12574 c 58.02011,17.19011 109.79993,12.91593 155.16194,-12.8976 45.36196,-25.81358 71.44396,-29.54724 78.36265,-11.33425 6.9186,18.213 -26.94035,54.83785 -101.42198,109.82496 -74.48171,54.98704 -110.8593,106.71393 -109.23869,155.55278 1.62061,48.83886 19.96669,102.42293 54.91248,160.43823 34.52546,56.78706 116.35566,148.68749 322.84473,303.03973 88.96097,92.82881 101.37279,329.65491 101.37279,329.65491 6.40029,52.3513 -144.75848,282.9919 -263.27535,420.83 l -151.64442,-9.7713 c -53.22343,6.4905 -68.62106,31.8301 -63.42856,77.2647 14.2795,-14.2794 28.84515,-18.2156 43.77364,-11.725 14.92858,6.4904 36.05466,1.898 63.31545,-13.6793 l 64.29256,25.4043 c 111.63948,-19.4722 176.79055,-39.6938 195.61348,-36.448 18.82294,3.2448 35.63549,17.2011 47.31882,36.6731 10.37207,-6.947 17.15435,-15.5452 17.38188,-27.1725 0.27226,-13.913 -0.38918,-19.9851 -8.25322,-31.7246 -20.9844,-15.0003 -68.09912,-14.2406 -121.67863,-11.689 137.11814,-157.0397 235.24173,-372.9332 367.53344,-542.4145 l 79.3448,13.0567 c 60.4535,84.7671 125.312,200.0007 166.5005,305.514 53.2875,136.5073 127.8988,255.1376 -32.6348,240.7524 -40.7695,3.9618 -80.6081,4.8525 -77.5809,54.7231 14.2794,-14.2795 31.9387,-8.7393 46.8672,-2.2488 13.4237,5.8362 30.7729,1.606 54.173,-10.4083 39.4011,11.4647 66.6686,15.371 82.811,8.9144 25.9627,-10.3856 48.3752,-17.6053 67.8473,-12.4133 33.7515,10.3852 58.9464,9.4009 75.8222,-2.9318 16.8758,-12.3323 29.9967,-6.7556 39.0836,16.6106 10.3849,-46.7325 -29.2431,-59.599 -118.8142,-58.3014 -5.1928,-59.7142 -43.6202,-170.786 -84.0299,-259.7079 -36.8867,-81.1706 -83.8979,-232.7751 -96.9272,-270.8495 -16.4573,-56.1101 3.6904,-81.509 60.3841,-76.2132 117.432,54.4846 230.6637,108.6748 288.684,125.8648 49.2918,3.713 92.3594,-3.3437 129.3668,-21.4959 37.0072,-18.1525 65.6642,-45.4234 84.6665,-82.111 l -222.4877,-81.0786 1.1726,-2.5405 c 74.8603,18.2882 144.0712,45.8417 156.3859,45.7433 29.1222,-3.1056 33.0618,-17.4931 11.9206,-43.1874 -59.8651,-42.6276 -160.4278,-97.9042 -250.5774,-128.79603 -90.1501,-30.89262 -165.7548,-69.37704 -226.8806,-115.6892 C 1134.3508,703.40544 1016.5332,610.29157 918.34859,549.90644 820.16404,489.52128 726.49694,467.35951 637.33741,483.46431 c -89.15957,16.10467 -135.54712,17.25269 -138.94225,3.3221 -3.78274,-11.0539 32.37427,-46.04131 108.26162,-104.9395 75.88732,-58.89827 104.64323,-114.85576 86.5702,-167.66871 71.49767,8.46181 193.91104,3.02657 366.99512,-16.41511 l 6.058,-72.10927 c -207.02092,36.54321 -333.93631,46.37599 -380.86984,29.50813 40.3395,13.63624 161.40301,-11.24855 363.28224,-74.845123 z M 490.96928,139.91934 c 13.28045,0.34319 26.36751,1.77677 39.47444,4.49463 52.42776,10.87158 49.99166,32.58651 -7.42588,65.26961 -57.41751,32.68317 -101.42608,42.59734 -131.9072,29.70355 -54.2374,-6.13625 -95.48352,-2.24226 -123.69963,11.52967 l -3.71294,-11.13883 105.33033,-70.93675 c 41.40302,-20.34263 82.09951,-29.95151 121.94088,-28.92188 z m -67.81008,25.79519 c -12.92897,-0.50629 -28.4308,7.87445 -46.50948,25.20893 l 1.95416,11.72507 c 10.40946,18.39048 26.03874,22.16569 47.09576,11.52967 21.05697,-10.63598 27.12699,-23.20528 17.97846,-37.9111 -5.90349,-6.72653 -12.76151,-10.24877 -20.5189,-10.55257 z m 312.86435,366.40888 c 10.68305,0.39621 17.18985,3.22904 19.54178,8.59834 -38.46207,15.9062 -73.0144,26.84631 -103.96239,32.63486 -30.94811,5.78852 -44.75915,23.78044 -41.23322,54.13081 0.52329,65.67884 78.50231,139.15531 233.91542,220.43159 155.41303,81.27617 300.20856,133.20106 434.21906,155.94369 29.2202,9.209 49.1308,25.7171 59.9933,49.4407 -59.762,21.823 -101.4234,30.3479 -125.0676,25.4045 -23.6441,-4.9426 -40.217,36.8849 -32.1965,61.5513 -41.4464,-44.9842 -155.9711,-53.8449 -262.41209,-94.254 C 812.38032,1005.5959 771.42698,922.8194 668.40889,848.30984 565.39085,773.80029 499.36389,713.86922 470.05955,668.3298 c -29.30437,-45.53943 -23.42737,-71.31989 17.78304,-77.19014 41.21038,-5.8703 94.53204,-19.20822 160.04739,-40.25613 40.94708,-13.15488 70.32845,-19.42008 88.13357,-18.76012 z m 59.21166,21.88682 c 57.46902,-0.45824 158.4399,60.32168 303.09339,182.32506 144.6535,122.00331 225.4458,185.52566 242.3185,190.72803 -11.3107,23.07915 -26.7929,33.92438 -46.5095,32.43939 -22.1731,-0.64438 -91.2984,-18.18715 -207.3386,-52.56745 C 970.75876,872.55507 870.1174,826.04773 784.87805,767.40676 699.63879,708.76585 656.38537,663.95463 655.31588,632.7637 c -0.51845,-13.54296 19.97509,-25.74364 61.55669,-36.54317 41.58169,-10.79948 67.82718,-24.88462 78.36264,-42.2103 z m 575.70169,383.41025 34.0028,15.04719 c -5.6229,15.64463 -16.3069,26.7245 -31.8532,33.41649 l -47.4866,-6.25337 c 25.4049,-5.94962 40.5877,-20.00444 45.337,-42.21031 z m 62.3384,32.04855 36.5431,10.16176 c 5.4639,15.96636 -2.3423,25.49041 -23.2547,28.53101 l -37.7158,-13.87467 c 17.1955,-5.88427 25.3379,-14.15188 24.4274,-24.8181 z m 74.0634,24.03644 c 19.3289,4.36175 32.8211,9.35923 40.2561,15.04723 -5.688,7.435 -13.6277,14.2795 -23.841,20.5189 l -37.7156,-13.8747 c 10.213,-6.2394 17.2613,-13.4487 21.3005,-21.69143 z m 76.6039,25.20903 29.7035,8.4026 c 0.065,8.2103 -6.0872,14.3613 -18.3693,18.5646 l -34.0026,-8.7937 z m 62.9246,21.691 69.8669,38.5709 -86.2819,-26.6503 z m -258.5382,8.2076 345.9415,124.8876 c -22.3646,26.8619 -59.2786,39.3595 -110.6067,37.7156 -31.9987,2.7185 -138.6521,-48.8903 -269.3374,-118.048 l 62.7291,-2.9316 z" />
</svg>
