<?xml version="1.0" encoding="UTF-8" standalone="no"?>
<!-- Created with Inkscape (http://www.inkscape.org/) -->

<svg
   sodipodi:docname="US9G315XT.svg"
   inkscape:version="1.2.1 (9c6d41e410, 2022-07-14)"
   sodipodi:version="0.32"
   id="svg1290"
   height="1800.0000px"
   width="1800.0000px"
   version="1.1"
   xmlns:inkscape="http://www.inkscape.org/namespaces/inkscape"
   xmlns:sodipodi="http://sodipodi.sourceforge.net/DTD/sodipodi-0.dtd"
   xmlns="http://www.w3.org/2000/svg"
   xmlns:svg="http://www.w3.org/2000/svg"
   xmlns:rdf="http://www.w3.org/1999/02/22-rdf-syntax-ns#"
   xmlns:cc="http://creativecommons.org/ns#"
   xmlns:dc="http://purl.org/dc/elements/1.1/">
  <defs
     id="defs3" />
  <sodipodi:namedview
     inkscape:window-y="-8"
     inkscape:window-x="-8"
     inkscape:window-height="1137"
     inkscape:window-width="1920"
     inkscape:current-layer="layer1"
     inkscape:document-units="px"
     inkscape:cy="601.84202"
     inkscape:cx="311.22652"
     inkscape:zoom="0.24258858"
     inkscape:pageshadow="2"
     inkscape:pageopacity="0.0"
     borderopacity="1.0"
     bordercolor="#666666"
     pagecolor="#ffffff"
     id="base"
     inkscape:showpageshadow="2"
     inkscape:pagecheckerboard="0"
     inkscape:deskcolor="#d1d1d1"
     showgrid="false"
     inkscape:window-maximized="1" />
  <metadata
     id="metadata4">
    <rdf:RDF>
      <cc:Work
         rdf:about="">
        <dc:format>image/svg+xml</dc:format>
        <dc:type
           rdf:resource="http://purl.org/dc/dcmitype/StillImage" />
        <cc:license
           rdf:resource="http://creativecommons.org/licenses/by/2.0/" />
        <dc:subject>
          <rdf:Bag>
            <rdf:li>JSesh hieroglyph</rdf:li>
          </rdf:Bag>
        </dc:subject>
        <dc:creator>
          <cc:Agent>
            <dc:title>Serge Rosmorduc</dc:title>
          </cc:Agent>
        </dc:creator>
        <dc:description>Karnak Hypostyle Hall
</dc:description>
      </cc:Work>
      <cc:License
         rdf:about="http://creativecommons.org/licenses/by/2.0/">
        <cc:permits
           rdf:resource="http://web.resource.org/cc/Reproduction" />
        <cc:permits
           rdf:resource="http://web.resource.org/cc/Distribution" />
        <cc:requires
           rdf:resource="http://web.resource.org/cc/Notice" />
        <cc:requires
           rdf:resource="http://web.resource.org/cc/Attribution" />
        <cc:permits
           rdf:resource="http://web.resource.org/cc/DerivativeWorks" />
        <cc:requires
           rdf:resource="http://web.resource.org/cc/ShareAlike" />
      </cc:License>
    </rdf:RDF>
  </metadata>
  <g
     id="layer1"
     inkscape:groupmode="layer"
     inkscape:label="Layer 1">
    <path
       id="path1295"
       style="display:inline;fill:#000000;fill-opacity:1;fill-rule:nonzero;stroke:none;stroke-width:60;stroke-linecap:round;stroke-linejoin:round;stroke-miterlimit:4;stroke-opacity:1"
       d="M 704.54102 4.4609375 C 696.42027 4.5218023 688.2326 4.8381235 679.97852 5.3671875 L 679.94727 5.3671875 C 609.94795 9.8939355 557.40648 38.280476 537.97852 82.898438 C 533.44417 93.308595 535.17158 105.39961 542.44727 114.11719 C 549.72294 122.83477 561.30021 126.68518 572.35352 124.08594 C 576.11411 123.20073 573.49214 123.22637 577.82227 124.24219 C 580.03879 124.76216 583.74726 125.83157 588.75977 127.11719 C 594.22351 144.04781 598.43028 154.20649 600.82227 160.61719 C 603.5283 167.86956 604.39288 170.45 605.10352 180.74219 C 589.511 236.48505 595.57807 292.45759 601.38477 320.86719 C 611.00178 367.91915 640.1215 419.43793 678.19727 468.24219 C 678.06436 471.87197 678.39455 475.5281 679.60352 479.05469 C 698.02803 535.46245 719.5292 612.07484 734.88477 683.52344 C 750.24032 754.97204 758.42213 823.48494 754.25977 853.46094 C 752.14725 868.66867 761.85688 883.01736 776.75977 886.71094 C 777.40022 886.86982 778.00026 887.10326 778.63477 887.27344 L 725.47852 1063.7109 C 682.82474 1057.4545 636.7221 1070.5619 608.97852 1064.4609 C 592.57375 1060.7047 537.54182 1073.8576 522.72852 1100.7422 L 411.82227 1100.7422 L 5.7558594 1100.7422 L 5.7558594 1158.3672 L 501.60352 1158.3672 L 659.69727 1158.3672 L 902.22852 1510.7734 L 902.22852 1796.457 L 959.85352 1796.457 L 959.85352 1158.3672 L 1415.4473 1158.3672 L 1415.4473 1117.1172 C 1418.7906 1120.7529 1422.1351 1124.3877 1425.4785 1128.0234 C 1432.342 1135.4856 1442.51 1138.9769 1452.5098 1137.3047 C 1511.0222 1127.4937 1569.5288 1117.6781 1628.041 1107.8672 C 1638.8312 1106.0703 1647.7877 1098.5304 1651.416 1088.2109 C 1655.0445 1077.8915 1652.7697 1066.4279 1645.4785 1058.2734 C 1623.6225 1033.8158 1601.4632 1009.8076 1579.291 985.96094 L 1746.3848 1094.7734 C 1760.2696 1103.8171 1778.8723 1099.877 1787.916 1085.9922 C 1796.9596 1072.1075 1793.0196 1053.5359 1779.1348 1044.4922 L 1643.4785 956.17969 C 1646.3457 953.83863 1649.1079 950.92097 1651.166 946.99219 C 1656.0386 937.69126 1654.7525 928.09961 1653.1348 923.11719 C 1651.5171 918.13475 1649.7519 915.72405 1648.3535 913.80469 C 1642.7594 906.12726 1639.8645 904.86987 1635.8848 901.80469 C 1631.9051 898.73949 1627.4817 895.63465 1622.666 892.33594 C 1613.035 885.73847 1601.8963 878.48738 1592.3223 872.08594 C 1582.7483 865.68448 1573.7691 858.97615 1573.4785 858.71094 C 1572.5401 857.85731 1571.5486 857.06405 1570.5098 856.33594 C 1490.5346 800.058 1410.5084 743.91282 1330.5723 687.67969 C 1330.3133 687.49028 1330.0236 687.35994 1329.7598 687.17969 C 1248.5145 573.19295 1171.5968 453.61225 1081.916 342.80469 C 1038.2373 288.83611 987.30984 189.01908 899.10352 151.77344 C 894.23863 125.34982 883.29917 83.184218 850.32227 51.117188 C 814.09473 15.889307 761.38612 4.0348813 704.54102 4.4609375 z M 356.375 33.845703 L 342.10352 34.589844 L 23.736328 50.46875 C 16.096755 51.040198 10.04143 58.319186 10.015625 67.488281 L 10.015625 252.00195 C 9.994915 260.69458 15.427433 268.01767 22.630859 269.01562 C 128.27179 283.91302 225.76275 292.4269 338.87109 304.08398 L 341.23438 304.08398 L 336.97656 1075.6973 L 422.28516 1075.6973 L 401.07617 34.876953 L 356.45117 34.876953 L 356.375 33.845703 z M 706.72852 64.648438 C 733.84139 64.881965 757.66332 68.81856 776.54102 75.648438 C 773.38993 98.183675 759.5132 133.05124 680.41602 153.61719 C 754.02094 148.28734 802.09082 142.26564 826.91602 122.64844 C 835.88502 142.85932 840.74754 165.72309 842.88477 178.80469 C 844.72519 190.06292 852.79102 199.30348 863.69727 202.64844 C 926.71128 221.96749 982.09124 314.86095 1035.2598 380.55469 C 1131.0121 498.86411 1213.8905 630.71852 1306.3535 757.11719 C 1263.6871 736.1812 1221.0654 715.23602 1178.1973 694.33594 C 1059.0142 631.65647 936.67743 582.30979 834.57227 505.02344 C 775.18194 455.57621 716.3451 404.53637 694.25977 339.42969 C 686.63019 289.29163 724.18556 231.16856 771.69727 210.46094 C 784.66231 205.04038 792.13294 191.35777 789.66602 177.52344 C 787.19906 163.68908 775.45555 153.40979 761.41602 152.80469 C 756.69778 152.59803 751.99737 153.50813 747.69727 155.46094 C 709.69707 172.02303 677.15981 201.64773 656.50977 237.89844 C 657.49995 222.54072 659.69431 206.84108 664.04102 192.67969 C 665.07922 189.30308 665.51298 185.76963 665.32227 182.24219 C 664.31283 163.59534 661.14415 150.64512 657.04102 139.64844 C 652.93787 128.65176 648.48828 118.82136 641.13477 93.335938 C 639.35728 87.200213 635.66782 81.791932 630.60352 77.898438 C 644.71487 71.662818 662.43902 66.626794 683.79102 65.242188 C 688.09309 64.966436 692.20765 64.937547 696.38477 64.835938 C 684.73938 67.438571 676.00978 77.815753 676.00977 90.242188 C 676.00977 104.62711 687.68735 116.27344 702.07227 116.27344 C 716.45718 116.27344 728.13479 104.62711 728.13477 90.242188 C 728.13477 77.451936 718.88653 66.851989 706.72852 64.648438 z M 342.57617 79.796875 L 341.47266 262.1582 L 341.32812 262.1582 C 232.61231 250.95938 148.10081 242.50519 48.060547 228.78906 L 48.060547 95.015625 L 342.57617 79.796875 z M 827.13477 612.61719 C 888.2105 659.63172 953.54188 700.73946 1017.6035 741.74219 C 1017.1153 785.98009 1018.2049 830.44216 1022.3223 875.05469 C 1001.4679 861.43485 978.54868 851.19124 952.00977 844.71094 C 912.55372 780.62267 869.26309 721.60837 842.82227 658.92969 C 837.34341 645.94195 832.19604 629.76562 827.13477 612.61719 z M 802.04102 713.61719 C 829.57605 768.90073 864.71836 818.5368 895.69727 867.74219 C 889.75422 871.76999 884.39309 875.93586 880.10352 879.99219 C 878.99252 881.04278 878.37477 881.74441 877.35352 882.74219 C 860.33015 863.1657 839.54663 847.27787 815.47852 836.89844 C 816.41324 801.76472 810.722 759.44485 802.04102 713.61719 z M 1092.6348 718.24219 C 1112.3287 727.97614 1131.9013 737.76858 1151.1035 747.86719 C 1151.3723 748.0067 1151.6432 748.14213 1151.916 748.27344 C 1230.6212 786.64562 1309.2559 826.07535 1388.8848 864.08594 C 1445.0188 931.69914 1505.5743 994.45886 1563.8848 1057.7734 C 1528.7999 1063.6561 1493.7195 1069.5469 1458.6348 1075.4297 C 1372.4559 981.71701 1286.2823 888.01731 1200.1035 794.30469 C 1198.8903 792.99089 1197.5622 791.78819 1196.1348 790.71094 C 1162.5049 765.21248 1127.7033 741.38394 1092.6348 718.24219 z M 1077.541 780.67969 C 1105.1412 798.99617 1132.1644 817.63414 1158.0098 837.14844 C 1238.8048 925.00646 1319.5909 1012.8817 1400.3848 1100.7422 L 1152.6035 1100.7422 C 1130.4764 1076.1917 1078.9904 1053.9083 1054.9785 1068.5234 C 1033.7745 1066.6878 1009.8204 1067.6853 985.41602 1069.0859 L 977.07227 917.24219 C 999.71879 928.82836 1018.1382 945.65386 1040.166 971.83594 C 1048.9406 982.23472 1063.6144 985.43076 1075.916 979.61719 C 1088.2177 973.80361 1095.0671 960.43594 1092.6035 947.05469 C 1082.4439 892.22924 1078.3052 836.77305 1077.541 780.67969 z M 831.16602 920.89844 C 837.0061 927.55698 842.46201 934.97687 847.47852 943.30469 C 851.81308 950.49228 858.97255 955.53631 867.19727 957.21094 C 875.42196 958.88557 883.95985 957.03768 890.75977 952.11719 C 903.35903 942.99576 911.02323 934.23236 917.54102 927.49219 L 925.35352 1070.0547 C 897.53491 1068.361 868.70869 1065.9782 855.35352 1079.5859 C 842.64524 1069.788 817.175 1068.8744 786.25977 1069.9922 L 831.16602 920.89844 z M 729.38477 1158.3672 L 903.57227 1158.3672 L 903.57227 1411.6172 L 729.38477 1158.3672 z " />
  </g>
</svg>
