<?xml version="1.0" encoding="UTF-8" standalone="no"?>
<svg
   width="1800"
   height="1797.7583"
   version="1.1"
   id="svg556"
   xmlns="http://www.w3.org/2000/svg"
   xmlns:svg="http://www.w3.org/2000/svg">
  <defs
     id="defs560" />
  <path
     id="path554"
     style="fill:#000000;stroke:none;stroke-width:97.4269"
     d="M 504.75 0 C 434.15786 0 367.63828 36.470162 305.19141 109.41016 C 264.46518 120.85174 143.68588 141.44255 73.09375 165.75586 C 43.22786 178.62765 27.615355 201.51175 26.257812 234.40625 L 152.11133 243.65039 L 154.62891 974.97461 C 135.0399 957.84224 114.19487 918.41801 95.40625 915.50195 C 53.631932 974.77604 7.1101456 1037.1142 2.6875 1112.3438 C -2.4098049 1168.4928 3.1220112 1229.0607 39.103516 1274.9824 C 69.410565 1327.6364 123.2827 1373.2515 185.12305 1372.0664 C 246.9634 1370.8813 299.76618 1324.9431 330.61328 1272.4668 C 369.07541 1220.9931 366.36246 1153.2452 359.42773 1092.6152 C 350.17507 1023.6234 306.66993 966.91178 268.64648 911.06836 C 250.77675 927.20504 222.94619 969.33649 211.01758 969.96289 L 208.53125 247.79297 L 339.80859 257.43555 C 425.3337 264.58647 484.43733 296.72339 497.38672 348.61133 C 511.32265 404.45234 528.29536 455.22321 489.60547 503.13477 C 450.91552 551.04632 421.72732 612.1884 402.04297 686.55859 C 382.35862 760.92879 399.86121 851.03067 401.21875 956.86523 C 402.5763 1062.6997 448.67228 1139.3418 532.83984 1200.125 C 617.00741 1260.9083 645.2554 1337.2341 828.52344 1420.1855 C 823.09326 1578.9373 805.44597 1681.1966 775.58008 1726.9629 C 729.42367 1726.9629 647.29163 1719.8117 529.18555 1705.5098 C 491.1744 1711.2306 465.38207 1723.3879 451.80664 1741.9805 C 438.23127 1760.573 440.94563 1779.1652 459.95117 1797.7578 C 472.16906 1784.8858 484.04685 1781.6675 495.58594 1788.1035 C 507.12503 1794.5395 533.93771 1797.7578 576.02148 1797.7578 L 1335.5664 1797.7578 C 1366.7899 1797.7578 1362.7163 1776.3043 1323.3477 1733.3984 C 1273.1187 1716.2362 1269.7248 1638.2916 1313.166 1499.5625 C 1439.4173 1478.1095 1455.2421 1462.1243 1511.5801 1469.2754 C 1567.918 1476.4263 1597.1204 1494.3024 1716.584 1522.9062 C 1747.8075 1501.4534 1766.8119 1477.8568 1773.5996 1452.1133 C 1780.3872 1426.3697 1775.2974 1404.9163 1758.3281 1387.7539 C 1741.3588 1370.5916 1719.977 1353.428 1694.1836 1336.2656 C 1751.2003 1351.9978 1785.4786 1337.6974 1797.0176 1293.3613 C 1808.5568 1249.0253 1762.7395 1212.555 1659.5664 1183.9512 C 1556.3934 1155.3472 1532.0706 1071.5752 1318.2578 914.96875 C 1104.4451 758.36224 1010.5617 692.99429 885.66797 714.44727 C 760.77417 735.90017 652.12535 669.24752 681.3125 549.82617 C 710.49963 430.40476 710.41797 351.82909 710.41797 283.17969 C 713.13306 94.393809 644.57677 0 504.75 0 z M 490.49609 64.359375 C 573.30611 64.359375 632.04024 106.71711 641.54297 204.68555 C 651.04578 302.65398 649.70937 406.13267 612.37695 554.87305 C 575.04461 703.61344 720.11069 805.15972 871.47656 784.42188 C 1022.8423 763.68403 1091.208 820.21799 1302.9844 976.10938 C 1514.7609 1132.0007 1530.2609 1212.5543 1617.8223 1235.4375 C 1705.3836 1258.3206 1744.0742 1275.8414 1733.8926 1287.998 C 1723.7111 1300.1547 1687.1696 1302.909 1355.9297 1278.5957 C 1024.6897 1254.2824 883.29124 1201.7862 780.79688 1116.6895 C 678.30258 1031.5928 652.84902 980.46309 704.43555 963.30078 C 682.71492 928.97602 658.27977 921.82488 631.12891 941.84766 C 601.26308 971.88176 602.28142 1011.5704 634.18359 1060.9121 C 666.08577 1110.254 737.35647 1166.0327 847.99609 1228.2461 C 958.63572 1290.4595 1047.4272 1321.5023 1265.3125 1325.793 C 1483.1979 1330.0837 1487.4977 1326.2559 1546.5508 1331.9766 C 1605.6038 1337.6974 1660.2458 1359.8652 1710.4746 1398.4805 C 1726.7652 1437.0955 1722.0142 1457.8327 1696.2207 1460.6934 C 1506.1651 1402.0553 1466.5685 1400.1625 1309.0938 1437.3477 C 1279.2279 1447.3589 1259.5438 1473.8188 1250.041 1516.7246 C 1224.2477 1452.3658 1190.3084 1420.1855 1148.2246 1420.1855 C 1011.113 1413.0347 918.96247 1382.9372 813.07422 1334.3105 C 707.18609 1285.6839 688.27889 1230.5184 604.11133 1173.3105 C 519.94376 1116.1027 474.52734 1030.52 474.52734 903.23242 C 474.52734 775.94501 474.67206 664.74671 528.29492 569.63867 C 581.91779 474.53064 564.70522 390.77842 558.41602 349.30273 C 552.20556 308.34637 520.70045 286.75378 495.58594 259.58008 C 470.47141 232.40631 442.30351 215.24474 411.08008 208.09375 C 379.85665 200.94283 364.92371 179.48934 366.28125 143.73438 C 388.00188 96.537955 429.40671 70.080169 490.49609 64.359375 z M 482.35156 98.683594 C 452.48568 102.97419 438.56918 117.99087 440.60547 143.73438 C 442.64182 169.47795 457.91549 181.27814 486.42383 179.13281 C 514.93217 176.98754 528.84671 163.04233 528.16797 137.29883 C 527.48917 111.55525 512.21745 98.683594 482.35156 98.683594 z M 260.03906 994.51953 C 286.11308 1023.0738 305.22662 1057.8614 310.32227 1096.584 C 319.03069 1137.8734 319.94772 1182.4141 299.51562 1220.6387 C 281.21026 1264.0613 253.19118 1314.7535 201.64453 1322.0547 C 157.21434 1329.9604 115.46505 1301.2597 94.775391 1263.3965 C 71.261124 1219.1183 43.044866 1171.0374 53.003906 1118.75 C 57.666792 1077.8853 68.634207 1035.6296 98.904297 1005.832 C 115.69017 976.86634 136.23707 1028.4273 154.86328 1038.0117 C 170.09198 1055.2941 185.28081 1075.2026 201.15625 1047.0352 C 220.53582 1030.645 241.17171 1005.3209 260.03906 994.51953 z M 867.21289 1437.3477 L 922.19531 1458.8008 L 861.10547 1559.6309 L 867.21289 1437.3477 z M 1060.1543 1463.8965 C 1088.3233 1465.1478 1111.5717 1469.5286 1129.8984 1477.0371 C 1166.552 1492.0542 1190.9872 1536.747 1203.2051 1611.1172 C 1215.4229 1685.4872 1204.5636 1722.6719 1170.625 1722.6719 L 975.13867 1722.6719 C 939.84262 1719.8116 898.43779 1729.1096 850.92383 1750.5625 C 863.14173 1650.4488 899.79545 1556.7712 960.88477 1469.5293 C 998.8959 1464.5235 1031.9853 1462.6452 1060.1543 1463.8965 z " />
</svg>
