<?xml version="1.0" encoding="UTF-8" standalone="no"?>
<!-- Created with Inkscape (http://www.inkscape.org/) -->

<svg
   width="2000"
   height="1800"
   id="svg1290"
   sodipodi:version="0.32"
   inkscape:version="1.2.1 (9c6d41e410, 2022-07-14)"
   sodipodi:docname="US9G314XT.svg"
   version="1.1"
   xmlns:inkscape="http://www.inkscape.org/namespaces/inkscape"
   xmlns:sodipodi="http://sodipodi.sourceforge.net/DTD/sodipodi-0.dtd"
   xmlns="http://www.w3.org/2000/svg"
   xmlns:svg="http://www.w3.org/2000/svg"
   xmlns:rdf="http://www.w3.org/1999/02/22-rdf-syntax-ns#"
   xmlns:cc="http://creativecommons.org/ns#"
   xmlns:dc="http://purl.org/dc/elements/1.1/">
  <defs
     id="defs3" />
  <sodipodi:namedview
     id="base"
     pagecolor="#ffffff"
     bordercolor="#666666"
     borderopacity="1.0"
     inkscape:pageopacity="0.0"
     inkscape:pageshadow="2"
     inkscape:zoom="0.48750832"
     inkscape:cx="1652.2795"
     inkscape:cy="918.95868"
     inkscape:document-units="px"
     inkscape:current-layer="svg1290"
     inkscape:window-width="1920"
     inkscape:window-height="1137"
     inkscape:window-x="-8"
     inkscape:window-y="-8"
     inkscape:showpageshadow="2"
     inkscape:pagecheckerboard="0"
     inkscape:deskcolor="#d1d1d1"
     showgrid="false"
     inkscape:window-maximized="1" />
  <metadata
     id="metadata4">
    <rdf:RDF>
      <cc:Work
         rdf:about="">
        <dc:format>image/svg+xml</dc:format>
        <dc:type
           rdf:resource="http://purl.org/dc/dcmitype/StillImage" />
        <cc:license
           rdf:resource="http://creativecommons.org/licenses/by/2.0/" />
        <dc:subject>
          <rdf:Bag>
            <rdf:li>JSesh hieroglyph</rdf:li>
          </rdf:Bag>
        </dc:subject>
        <dc:creator>
          <cc:Agent>
            <dc:title>S. Rosmorduc</dc:title>
          </cc:Agent>
        </dc:creator>
        <dc:description>G17 sign from Abydos</dc:description>
      </cc:Work>
      <cc:License
         rdf:about="http://creativecommons.org/licenses/by/2.0/">
        <cc:permits
           rdf:resource="http://web.resource.org/cc/Reproduction" />
        <cc:permits
           rdf:resource="http://web.resource.org/cc/Distribution" />
        <cc:requires
           rdf:resource="http://web.resource.org/cc/Notice" />
        <cc:requires
           rdf:resource="http://web.resource.org/cc/Attribution" />
        <cc:permits
           rdf:resource="http://web.resource.org/cc/DerivativeWorks" />
        <cc:requires
           rdf:resource="http://web.resource.org/cc/ShareAlike" />
      </cc:License>
    </rdf:RDF>
  </metadata>
  <path
     id="path1312"
     style="color:#000000;display:inline;overflow:visible;visibility:visible;opacity:1;fill:#000000;fill-opacity:1;fill-rule:nonzero;stroke:none;stroke-width:8.21808;stroke-linecap:butt;stroke-linejoin:round;stroke-miterlimit:4;stroke-dashoffset:0;stroke-opacity:1;marker:none;marker-start:none;marker-mid:none;marker-end:none"
     d="M 823.33766,2.7558594 C 787.65836,18.755828 721.2549,34.755849 667.73593,29.755859 c -49.55459,8.999982 -107.03821,-35.9999414 -150.64626,-7 C 462.57962,102.7557 413.02481,191.75606 407.07826,290.75586 c -10.90201,189.99962 -5.94627,256.00032 142.7175,412 15.85898,36.34237 54.4701,154.21522 54.4701,154.21522 0,0 -15.72115,1.38302 -15.5774,2.07775 -102.67614,2.8522 -204.37137,-14.83844 -306.69709,-19.77344 -29.36082,-1.1276 -58.93797,-0.73012 -88.06411,2.98438 -19.99615,4.90848 -28.22071,26.09516 -37.8319,42.14062 -4.69385,8.35768 -9.71693,16.51699 -14.90512,24.57617 9.71703,4.9085 17.41902,-5.30756 25.79166,-8.49804 18.42367,-10.58638 38.76903,-21.34528 60.70449,-18.23438 75.29013,1.2603 149.94958,12.17958 224.81765,19.29688 -15.40484,33.80872 -50.0866,52.39433 -83.08155,64.90429 -58.72554,23.06986 -121.90421,33.92219 -184.76157,34.92379 -34.19401,-2.58686 -61.55234,-27.81343 -80.88254,-54.44527 C 78.969412,913.56609 65.77488,873.47476 53.490054,834.14062 l -1.000776,0.50391 c -14.473994,3.2502 -28.966759,6.4345 -43.4552033,9.625 6.2058533,51.8906 26.2008643,102.28965 59.4114273,142.60547 29.742111,36.5683 71.393578,65.6536 118.532498,72.3066 32.75299,3.1175 65.78466,2.1898 98.60803,0.7969 61.33612,-3.2503 122.6833,-19.9262 174.49639,-53.8476 30.85507,-19.91268 57.68286,-45.6892 80.77608,-74.29106 5.463,-5.10738 13.7521,-1.32574 20.48777,-2.65234 34.27305,-2.77296 51.20815,0.32711 60.95941,-1.55762 52.05986,178.01862 105.88254,385.77642 127.69104,465.12602 35.67929,33.9998 -44.59929,220 -78.29642,266 -36.67039,50.9998 -193.26342,5 -258.67547,46 -27.75058,17.9998 -37.66154,85 -21.80407,94 14.86637,-23 44.59926,-54 65.41219,-57 -19.82183,20.9998 49.55472,11 64.42109,16 59.46551,1 119.92247,8 180.37908,1 15.85746,-7 33.69717,-21 19.82187,5 91.18046,23.9998 219.03178,8.9998 239.84471,-45 29.73276,-55 57.4835,-113.0002 77.3054,-173 32.706,7 76.3142,34.9998 103.0737,18 27.7505,-19 56.4924,-108.0002 72.3499,-167 2.9732,-12 31.715,-12 36.6704,-1 29.7328,59.9998 79.2876,244 126.8599,321 58.4746,92.9998 252.7294,108.9998 385.5355,52 64.4211,-28 111.9936,-22.0002 98.1183,-58 -21.8038,-60 -59.4656,-117.0002 -99.1093,-168 57.4834,35.9998 114.967,73 172.4503,109 13.8753,50.9998 89.1984,11.9998 52.5279,-27 -129.3766,-188.6208 -302.653,-453.396 -473.6905,-678.98442 147.8542,1.30435 334.6921,-0.59083 482.552,-0.10593 v -94.91797 c -11.3966,-0.995 -61.7741,0.0599 -73.1741,-0.93508 -47.6812,-4.2452 -98.1897,-1.63819 -141.9606,-24.23047 -46.4422,-28.27687 -75.1995,-76.26127 -113.0796,-113.99023 -23.2766,13.23958 -46.5358,26.51321 -69.7966,39.77929 34.4209,37.01927 66.9769,75.74403 100.2592,113.80469 1.5054,2.6533 12.55,11.00964 4.4173,9.15234 -81.2154,2.29833 -162.4669,1.8093 -243.7161,0.88868 -107.5321,-136.52466 -212.2366,-252.63442 -302.3475,-318.46094 -39.6437,-34.99994 -86.2252,-62.00002 -137.762,-75 -16.8486,-43.99992 -11.8932,-103.0001 -21.80408,-153 C 986.86816,229.75606 927.40231,65.755734 823.33766,2.7558594 Z m -8.91985,64.9999996 c 58.47442,68.999861 110.01144,149.000181 119.92236,241.000001 9.91092,65.99986 12.88424,132.00012 22.79516,197 -46.58132,-4 -32.70608,-77.00008 -23.78626,-112 7.92873,-68.99986 -28.74178,-133.00012 -54.51016,-194 -17.83965,-32.99994 -34.68838,-85 -80.2786,-86 -50.54568,8.99998 -83.25194,52.00008 -115.95797,89 -33.69714,-33.99994 -69.37667,-71.00002 -115.95798,-85 -18.83074,-6.99998 -56.49229,18.99994 -30.72391,-13 16.84855,-59.99988 82.26087,-7.000019 125.86892,-16.000001 51.53678,2.999994 104.06495,-3.000036 152.62844,-21 z m -15.8575,76.000001 c 38.65258,9.99998 47.57255,64.00006 66.40329,96 23.78621,55.99988 52.52793,117.00012 33.69719,180 -14.86637,29.99994 3.96437,68.00004 1.98219,90 -36.6704,25.99994 -68.38558,83.99998 -120.91345,71 -43.60805,-8.99998 -65.41225,-51.00004 -99.10938,-71 -27.75057,26.99994 -42.61714,86.99996 -97.1272,70 -36.67039,-7.99998 -85.23409,-4.0001 -96.1361,-49 -18.83074,-45.9999 -20.81297,-97.0001 -23.78624,-147 25.76838,4.99998 27.75062,-21.00004 29.73281,-43 12.88419,-48.9999 62.43899,-53.99994 98.11828,-25 16.84856,18.99996 68.38546,34.00006 57.48345,64 -4.95545,17.99996 -10.90206,37.00004 -16.8486,56 l 41.62594,56 c 3.96438,-28.99994 46.58137,-53.00006 21.80407,-82 -3.96438,-12.99998 -18.83079,-30.00002 -16.8486,-40 17.83965,-31.99994 41.626,-60.00004 69.37657,-84 33.69713,-32.99994 69.37663,24 99.10938,28 22.79512,-24.99996 -1.98223,-35.00002 -24.77735,-48 -34.6882,-32.99994 -87.21631,-21.99992 -112.98469,16 -24.77729,14.99996 -39.64381,75.99992 -65.41219,36 -34.68821,-27.99994 -77.30542,-59.99998 -123.88673,-50 -28.74166,5.99998 -54.51016,66 -55.50125,63 -0.99109,-46.9999 20.81298,-89.0001 33.69718,-135 11.89311,-49.9999 74.3321,-64.99992 106.04704,-24 34.68823,12.99998 58.47462,82.99994 94.15392,58 30.72385,-32.99994 55.50135,-72.00002 100.10047,-86 z m -49.55469,166 c -26.75947,12.99998 -59.46553,49.00002 -9.91094,55 23.78622,-1 78.2964,-26.00004 68.38548,-49 -18.83075,17.99996 -38.6527,-6 -58.47454,-6 z m -195.24548,9 c -32.70604,7.99998 -49.55461,44.00002 -7.92875,52 21.80402,2 93.1627,-29.00002 37.66156,-36 -8.91982,-5.99998 -17.83971,-16 -29.73281,-16 z m 372.65128,207 c 13.87529,28.99994 36.67051,12.99998 53.51906,5 23.78622,16.99996 106.04702,15.00008 57.48352,51 -30.7239,41.99992 -194.92627,156.53303 -308.97745,176.73437 -49.24333,8.72225 33.45335,87.26569 60.21282,115.26563 154.61032,139.99974 306.24833,288.00024 491.58263,389.00004 115.9576,65.9998 237.8628,125 349.856,198 53.519,77.9998 116.9492,150 157.5839,236 -40.6347,11.9998 -80.2786,29 -121.9045,39 -82.2606,20.9998 -190.2901,-2e-4 -229.9338,-43 -53.5189,-57 -111.9936,-300.0002 -142.7174,-389 -14.8664,-34 -50.5459,8.9998 -57.4835,-2 -3.9643,-49 -74.332,-52 -69.3765,2 -5.9466,62.9998 -17.8398,126 -47.5725,183 -13.8754,36.9998 -85.2342,-13.0002 -128.84228,-24 12.88418,-77 -91.18125,-471.00068 -396.43753,-801.00004 -11.8931,-12.99998 -68.38543,-72.99998 -49.55469,-59 45.59022,11.99998 108.02929,12.9999 133.79767,-35 11.8931,-35.99992 37.66162,29 65.41219,29 41.62586,27.99994 96.13616,15.99992 127.8511,-20 18.83075,-16.99996 36.67051,-34.00004 55.50126,-51 z m 179.38798,74 c 78.6564,45.63386 176.6182,150.82295 275.6867,274.59961 21.4678,28.45083 44.6242,55.84458 55.1489,70.5293 181.7262,237.95263 355.8925,514.61273 409.5114,580.87113 -148.6637,-94.9998 -295.3461,-191.0002 -454.912,-269 -223.9866,-110.9998 -415.26865,-291.00038 -597.62956,-459.00004 150.64597,-50.9999 258.67566,-137.00012 312.19456,-198 z m -447.97441,238 c 125.86866,130.99974 241.82695,463.00024 271.55971,599.00004 -48.5635,-40 -114.96691,-66.0002 -129.83329,-91 -15.85746,-26 -59.46579,-279.0004 -141.72642,-508.00004 z m 201.19205,624.00004 c 31.71494,18.9998 60.4568,45 95.145,59 -20.81293,51.9998 -33.69727,110 -76.31422,151 -22.79512,36.9998 -73.34102,2 -110.01142,5 27.75057,-70 69.37661,-101.0004 91.18064,-215 z"
     sodipodi:nodetypes="cccccccccccccccccccccccccccccccccccccccccccccccccccccccccccccccccccccccccccccccccccccccccccccccccccccccccccccsccccccccccccccccccccccccccccccccc" />
</svg>
