<?xml version="1.0" encoding="UTF-8" standalone="no"?>
<svg
   width="1800"
   height="1216.9456"
   version="1.1"
   id="svg1238"
   sodipodi:docname="US9G213BVARA.svg"
   inkscape:version="1.2.2 (732a01da63, 2022-12-09)"
   xmlns:inkscape="http://www.inkscape.org/namespaces/inkscape"
   xmlns:sodipodi="http://sodipodi.sourceforge.net/DTD/sodipodi-0.dtd"
   xmlns="http://www.w3.org/2000/svg"
   xmlns:svg="http://www.w3.org/2000/svg">
  <defs
     id="defs1242" />
  <sodipodi:namedview
     id="namedview1240"
     pagecolor="#ffffff"
     bordercolor="#000000"
     borderopacity="0.25"
     inkscape:showpageshadow="2"
     inkscape:pageopacity="0.0"
     inkscape:pagecheckerboard="0"
     inkscape:deskcolor="#d1d1d1"
     showgrid="false"
     inkscape:zoom="0.24725374"
     inkscape:cx="645.08629"
     inkscape:cy="703.7305"
     inkscape:window-width="1920"
     inkscape:window-height="1137"
     inkscape:window-x="-8"
     inkscape:window-y="-8"
     inkscape:window-maximized="1"
     inkscape:current-layer="svg1238" />
  <path
     id="path1236"
     style="display:inline;fill:#000000;stroke:none;stroke-width:77.6033"
     d="M 848.35008,0 C 712.72375,5.23511 591.34476,29.52717 484.19529,72.88631 377.0458,116.24547 275.87585,165.98614 180.73295,222.00653 85.59011,278.02692 27.663957,368.16231 7.1102233,492.40106 -13.443559,616.63983 14.259522,682.91577 43.193555,753.97004 72.127649,825.02481 195.90928,974.75801 413.68936,1207.8738 c 9.37245,10.121 13.51604,11.9648 24.76011,4.5647 10.71861,-7.0532 11.36579,-17.1988 4.37832,-26.9331 C 363.39807,1079.2434 320.06623,995.26851 296.07883,923.78451 317.43248,820.29971 290.80639,736.51915 232.97076,682.30107 175.13513,628.08323 52.584125,564.54967 110.52898,443.55657 c 33.77132,-70.51695 88.65797,-105.4561 168.33855,-103.01468 79.68058,2.44152 166.2641,35.94758 259.52824,100.42792 93.2641,64.48035 195.99029,102.9451 288.81763,92.97189 145.50969,-15.6333 179.9991,38.87438 211.0649,82.47259 9.3448,64.15754 4.5098,120.45817 -5.1333,156.72842 C 898.35178,703.83515 720.97375,634.03624 628.37762,577.46045 532.32626,518.77368 427.59627,536.7968 320.08407,512.94313 c -70.44683,-16.02922 -108.06099,-7.01186 -112.93026,27.0851 25.84671,-8.33727 41.64041,-9.06458 47.40654,-1.97809 5.76875,7.08374 33.45139,-2.68064 93.90726,26.78078 117.03678,8.44925 181.57723,59.03029 83.18793,37.8887 -73.03283,2.08706 -113.32184,6.62324 -120.93202,13.54254 -7.6128,6.91583 -32.08014,7.53355 -73.37446,1.82602 16.64128,27.15139 84.32108,35.6286 128.6318,32.56294 75.22977,-5.21197 212.57461,2.73895 212.57461,2.73895 l 522.37793,225.96274 c 39.3563,31.0857 44.1902,-149.71642 44.991,-205.26852 2.8856,-47.60222 3.4995,-58.75113 5.4351,-85.66807 3.027,-42.09581 23.7032,-124.31758 23.7032,-124.31758 4.2486,-2.37887 6.871,-3.76979 11.0211,-6.08658 9.8326,18.48616 23.0473,45.03761 40.0087,83.38559 32.3592,85.49626 68.5666,186.61673 118.5163,303.26186 45.0179,102.6928 104.3118,186.39389 177.6992,251.06979 19.1547,69.6342 44.7534,97.5649 76.8469,83.6898 -19.4543,-18.0011 -27.4835,-31.4054 -24.0051,-40.1711 3.4756,-8.7658 -7.3063,-44.082 -32.3088,-105.9056 -68.9638,-75.83259 -89.3697,-145.34354 -36.0833,-82.92919 55.3369,44.9746 88.0491,67.09519 98.2855,66.49539 10.2366,-0.5907 28.7137,14.4841 55.4083,45.3447 5.819,-32.0327 -38.2975,-81.86389 -73.0725,-107.73169 -59.0402,-43.9179 -165.923,-131.7736 -165.923,-131.7736 L 1253.4195,421.03639 c 56.4982,-30.87695 105.0555,-56.76362 136.3316,-71.82118 45.2106,-21.76622 115.678,-14.03293 211.5177,23.12886 95.84,37.16134 161.5624,-24.30124 197.1751,-184.42217 -39.1122,-15.25706 -72.6354,-28.22444 -100.7013,-38.64952 40.5021,-19.06291 49.708,-38.2209 27.6288,-57.66996 C 1673.1204,72.71464 1578.0872,53.46486 1440.3281,34.08463 1302.5688,14.70435 1105.2458,3.35952 848.35008,0 Z m 101.30508,49.75747 c 93.31274,0.20235 219.51384,4.27992 378.49754,12.17304 234.0091,29.06996 353.0324,45.84624 357.0589,50.5183 -125.2547,67.72123 -339.431,127.88727 -642.4042,180.31375 C 739.83432,345.189 579.48789,340.81956 561.6461,279.82867 543.80439,218.83773 559.95221,170.81169 610.10951,135.72983 660.26688,100.648 713.04917,75.69169 768.33265,60.71323 795.97436,53.22402 856.34247,49.5555 949.65516,49.75747 Z M 586.10428,87.79833 c -83.71923,57.84234 -110.54516,121.99703 -80.31938,192.63898 30.22574,70.64194 83.40075,104.55125 159.27997,101.49305 209.0822,16.84277 538.04803,-52.04439 987.08303,-206.48586 l 96.0209,41.23632 c -26.872,102.02622 -80.0201,135.30455 -159.582,99.97141 -79.5618,-35.3332 -146.3972,-40.90044 -200.6475,-16.73799 -46.8212,20.85378 -107.9855,53.28569 -181.7754,95.863 -10.366,3.62904 -22.7689,9.79547 -36.5363,18.10747 -13.6854,-22.68158 -19.4736,-42.23241 -36.5363,-32.563 l -6.7938,96.16733 c 1.1047,18.90509 -39.2264,84.35812 -75.6392,53.56154 C 981.55476,472.60546 931.60222,489.32667 839.89541,488.9013 748.18864,488.47573 655.89816,457.00597 563.0049,394.40778 470.11166,331.80964 395.70876,295.23589 339.86195,284.6979 284.01522,274.15986 259.74748,259.45267 267.09138,240.57047 274.4353,221.68829 380.77197,170.7654 586.10428,87.79833 Z M 128.04223,660.69391 c 17.90218,1.79032 42.81843,20.63885 74.73326,56.45262 48.63219,54.57331 126.83296,174.33328 42.87726,235.54908 l -4.07632,3.0433 C 156.67199,860.88271 108.74715,795.92011 97.847003,760.96958 c -10.900147,-34.95044 -8.236052,-64.57517 7.850737,-89.01559 4.0217,-6.11033 9.04187,-9.78398 15.09762,-10.95581 2.27091,-0.43989 4.68947,-0.56054 7.24687,-0.30427 z m 56.16317,122.0351 c -5.45212,-0.047 -11.06686,1.9363 -16.75836,6.0865 -13.79783,10.0606 -13.92863,24.4416 -0.45266,43.2145 13.47564,18.7736 27.7398,23.2587 42.72629,13.3904 13.98829,-11.2585 14.23059,-26.2673 0.75443,-45.0404 -8.42223,-11.7333 -17.18289,-17.5739 -26.26987,-17.651 z"
     sodipodi:nodetypes="csssscccccscssccscccccccccccscccccccccccsccsccccsccccssssccscccssccccscsssccsccssccccccccc" />
</svg>
