<?xml version="1.0" encoding="UTF-8" standalone="no"?>
<svg
   width="13.11"
   height="17.976807"
   version="1.1"
   id="svg7519"
   sodipodi:docname="US9G21VARA.svg"
   inkscape:version="1.2.1 (9c6d41e410, 2022-07-14)"
   xmlns:inkscape="http://www.inkscape.org/namespaces/inkscape"
   xmlns:sodipodi="http://sodipodi.sourceforge.net/DTD/sodipodi-0.dtd"
   xmlns="http://www.w3.org/2000/svg"
   xmlns:svg="http://www.w3.org/2000/svg">
  <defs
     id="defs7523" />
  <sodipodi:namedview
     id="namedview7521"
     pagecolor="#ffffff"
     bordercolor="#000000"
     borderopacity="0.25"
     inkscape:showpageshadow="2"
     inkscape:pageopacity="0.0"
     inkscape:pagecheckerboard="0"
     inkscape:deskcolor="#d1d1d1"
     showgrid="false"
     inkscape:zoom="26.269544"
     inkscape:cx="10.639697"
     inkscape:cy="11.724604"
     inkscape:window-width="1920"
     inkscape:window-height="1137"
     inkscape:window-x="-8"
     inkscape:window-y="-8"
     inkscape:window-maximized="1"
     inkscape:current-layer="svg7519" />
  <path
     id="path7517"
     style="fill:#000000;stroke:none"
     d="M 4.0429688,0 C 3.9765364,-0.00956227 3.9137888,0.03973022 3.8574219,0.1484375 3.7672348,0.32236983 3.7359508,0.56715781 3.7617188,0.8828125 3.7874859,1.1984672 3.6138663,1.5689729 3.2402344,1.9941406 2.4800865,2.0070246 1.9060479,2.2385174 1.5195312,2.6894531 0.41151885,3.0115498 -0.09135238,3.4299582 0.01171875,3.9453125 L 0.1484375,4.6621094 C 0.32881114,4.3528967 0.54701002,4.1726289 0.8046875,4.1210938 1.8096295,4.0180227 2.2513033,4.2096308 2.1289062,4.6992188 2.0065099,5.1888058 1.9552841,5.871944 1.9746094,6.7480469 1.9939354,7.6241504 2.4336555,8.3159146 3.296875,9.5720927 4.1600939,10.82827 4.6206564,11.766476 4.6206564,12.616811 c 0,0.850335 -0.1180165,1.990847 -0.2983908,2.441783 -0.8761029,1.223969 -1.4700843,1.89381 -1.7792968,2.009765 l -1.1972657,-0.05859 c -0.45093571,-0.0773 -0.65779252,0.01381 -0.6191406,0.271484 0,0.270561 0.12239398,0.464123 0.3671875,0.580078 0,-0.103071 0.084463,-0.174241 0.2519531,-0.21289 l 0.65625,0.193359 5.2773438,-0.01953 c 0.2576774,-0.01289 0.3800745,0.03834 0.3671875,0.154296 0.1546066,-0.09019 0.2304687,-0.283749 0.2304687,-0.580078 0,-0.257672 -0.1636488,-0.336864 -0.4921875,-0.240234 -0.3285385,0.09663 -0.5367663,0.0088 -0.6269531,-0.261719 0.2576774,-0.721497 0.4758757,-1.313525 0.65625,-1.777343 0.1417225,-0.566891 0.019004,-0.904335 0.057654,-1.612947 0.1783881,0.191672 0.4872284,0.388838 0.7065965,0.538817 1.0443361,0.714002 1.836522,0.640214 2.348719,0.498439 0.538343,-0.11393 0.536362,-0.18125 1.025702,-0.371552 0.582278,0.131013 1.017453,0.06476 1.308594,-0.197266 C 13.152469,13.71058 13.095095,13.303163 12.6875,12.75 11.799526,11.862022 10.954929,10.886877 10.154297,9.8242188 9.415323,8.9152168 8.6656165,8.1250353 8.0546875,7.5175781 7.961606,7.4025455 7.8685114,7.2950069 7.7714844,7.1933594 7.1529397,6.5039187 6.3476619,6.142996 5.4804688,5.8398438 5.1068364,5.5435149 4.9944138,5.1763331 5.1425781,4.7382812 5.2907462,4.3002302 5.2874194,3.813977 5.1328125,3.2792969 4.9782069,2.7446159 4.7220768,2.3674631 4.3613281,2.1484375 4.8637991,1.9294119 5.1664609,1.6300745 5.2695312,1.25 5.3726023,0.86992609 5.3872675,0.60382512 5.3164062,0.44921875 5.2455451,0.29461238 5.1430936,0.28796511 5.0078125,0.4296875 4.872532,0.57140989 4.7667562,0.79293176 4.6894531,1.0957031 4.61215,1.3984738 4.3094883,1.7044592 3.78125,2.0136719 4.1935339,1.6400398 4.3904196,1.2562398 4.3710938,0.86328125 4.3517678,0.47032336 4.2839237,0.21086966 4.1679688,0.08203125 4.1244858,0.03371685 4.0828281,0.00573736 4.0429688,0 Z M 3.453125,2.5351562 c 0.6570773,1e-7 1.0322771,0.2580833 1.1289062,0.7734376 0.096629,0.5153548 0.068668,0.9783411 -0.085937,1.390625 -0.1546065,0.4122837 -0.1379874,0.7927609 0.048828,1.140625 0.1868163,0.3478645 0.414986,0.5480735 0.6855469,0.5996093 1.0188638,0.2170136 1.6713891,0.8105512 2.3613281,1.4863281 0.3254419,0.3643078 0.7494834,0.7019296 1.6285043,1.9181613 0.2134336,0.2600095 0.7351759,0.9766915 1.0785725,1.2634795 0.267558,0.333713 0.544602,0.679606 0.837891,1.052734 0.698731,0.465825 1.055752,0.808989 1.070312,1.027344 -0.01456,0.203796 -0.124327,0.327425 -0.328125,0.371094 -0.509831,0.002 -0.394344,0.126164 -0.948804,0.215963 -0.490626,0.07554 -1.5467237,0.308861 -2.4309066,-0.309923 C 7.7994017,12.974862 6.711264,12.282155 6.711264,12.282155 6.3140107,11.993329 5.3949355,11.095705 5.2593283,10.954701 3.5844255,8.8675157 2.6921598,7.8016116 2.640625,6.7773438 2.5890899,5.7530758 2.6123556,4.9807807 2.7089844,4.4589844 2.8056135,3.9371874 2.6666007,3.6112602 2.2929688,3.4824219 L 2.1191406,3.0371094 C 2.3510502,2.7021287 2.7960477,2.5351562 3.453125,2.5351562 Z M 3.3769531,2.890625 c -0.024962,0.00181 -0.0527,0.00528 -0.080078,0.011719 C 3.0391976,2.940995 2.9367462,3.089979 2.9882813,3.3476564 3.0269333,3.566682 3.1759163,3.6624861 3.4335939,3.636719 3.6783865,3.5851828 3.7741915,3.4381528 3.7226562,3.1933594 3.6662895,2.979165 3.5516905,2.8779421 3.3769531,2.890625 Z m -1.625,0.1464844 0.076172,0.3867187 -1.37109375,0.40625 C 0.68894069,3.4306782 1.1206438,3.1659477 1.7519531,3.0371094 Z M 1.90625,3.6171875 2.0410156,3.9082031 1.4238281,3.7910156 Z M 4.8140157,11.18517 c 0.4895872,0.515356 0.734375,0.874519 0.734375,1.074219 0,0.199701 -0.1470306,0.434516 -0.4433593,0.705078 0.012884,-0.566889 -0.084873,-1.16087 -0.2910157,-1.779297 z m 1.2382813,1.779297 c 0.528239,0.309213 0.7441675,1.360569 0.7055155,2.172252 l -0.5996094,1.603515 c -0.1159551,0.296329 -0.3294592,0.438662 -0.6386719,0.425782 -0.7987997,0.01288 -1.364238,-0.0403 -1.6992187,-0.15625 0,-0.244794 0.3671819,-0.836821 1.1015625,-1.777344 0.528239,-1.185316 0.9242804,-2.267955 1.130422,-2.267955 z"
     sodipodi:nodetypes="ssccccccsssscccccccccsscccscccccccccccsssscssssscsccccccccsccssccscccccccccccccccsccccccccc" />
</svg>
