<?xml version="1.0" encoding="UTF-8" standalone="no"?>
<svg
   width="1797.064"
   height="1382.3737"
   version="1.1"
   id="svg1"
   xmlns="http://www.w3.org/2000/svg"
   xmlns:svg="http://www.w3.org/2000/svg">
  <defs
     id="defs1" />
  <path
     id="path1"
     style="fill:#000000;stroke:none;stroke-width:72.1272"
     d="M 654.17537,0 C 521.76766,0 442.20564,44.13637 415.49178,132.4082 L 12.835523,358.85352 C -9.2324346,387.89024 -2.8445796,400.66605 31.999585,397.18164 350.2427,261.28953 457.88458,225.32496 497.37459,219.51758 397.48808,311.27383 355.67455,411.45125 371.93514,520.04883 c 16.26057,108.59758 113.53444,197.16076 291.82031,265.6875 178.28581,68.5268 312.14671,128.92523 401.58005,181.1914 -154.47564,3.48436 -265.39638,1.16157 -332.76169,-6.96875 -67.36535,-8.1303 -184.09322,10.45258 -350.1836,55.75002 -68.5268,-9.2918 -103.37367,3.484 -104.53515,38.3281 23.22944,-10.4531 38.03963,-12.4856 44.42773,-6.0976 6.38806,6.3883 27.00348,9.0015 61.84766,7.8398 h 475.625 c -1.16148,-13.9377 -41.81361,-24.3905 -121.95508,-31.3594 l -92.33789,-29.61717 501.75782,52.26567 c 41.813,0 60.396,-15.6813 55.75,-47.0411 l -38.3281,-120.21089 c 88.2717,-11.61468 155.9272,-22.35796 202.9668,-32.23047 47.0395,-9.87247 114.6949,22.64764 202.9668,97.5625 88.2718,74.91496 163.7688,45.5888 226.4883,-87.98047 -37.167,-51.10475 -71.4313,-93.49903 -102.7911,-127.18164 46.4589,-8.13031 61.5594,-23.80967 45.2989,-47.03906 C 1694.2744,652.74894 1609.1957,613.5487 1484.3375,565.34766 1359.4794,517.14661 1177.4169,462.84572 938.15389,402.44922 808.06911,378.05835 708.182,376.60851 638.49373,398.0957 c -69.6883,21.48724 -104.5332,23.2294 -104.5332,5.22657 0,-18.00278 36.58706,-57.78382 109.75976,-119.3418 C 716.89298,222.42251 747.6729,155.63817 736.05818,83.626953 902.14859,162.60698 1040.3648,203.25714 1150.7047,205.58008 L 1143.734,74.916016 C 882.40298,59.816882 719.21775,34.844118 654.17537,0 Z m -73.56836,40.314453 c 22.18594,-0.816666 43.80379,4.038646 64.85547,14.564453 33.68268,16.841339 49.36203,43.846587 47.03906,81.013674 -2.32292,37.1671 -36.87556,84.49745 -103.66015,141.99023 -66.78465,57.49286 -102.21027,98.4353 -106.27539,122.82617 -4.06514,24.39089 2.61308,43.84487 20.03515,58.36329 17.42206,14.51836 83.62761,4.35389 198.61328,-30.49024 -103.37095,34.84413 -155.05859,77.24029 -155.05859,127.18359 0,41.81294 43.55768,76.65792 130.66797,104.53321 216.03372,55.75083 541.24659,84.20593 975.63669,85.36719 45.2975,31.35974 78.981,69.10822 101.0489,113.24414 -37.1671,94.07917 -94.6599,105.40314 -172.4786,33.97265 -77.8186,-71.43044 -145.7664,-102.50073 -203.8398,-93.20898 -58.0735,9.29176 -129.5037,19.16396 -214.291,29.61719 -8.1302,-6.96883 -28.4574,-16.84102 -60.9785,-29.61719 l 55.75,195.1289 c 3.4844,13.93767 -2.9017,23.80987 -19.1621,29.61717 l -54.0098,-34.84373 c 30.1983,-6.96888 36.0053,-22.06943 17.4219,-45.29883 C 1078.6921,914.07912 962.54489,859.48986 753.48006,780.50977 544.4152,701.52973 432.62343,611.51674 418.10506,510.46875 403.58666,409.42076 447.4327,315.92151 549.64217,229.97266 c 0,-29.03678 -27.29561,-45.2988 -81.88477,-48.78321 l -19.16406,-41.8125 c 24.39089,-48.781761 54.87851,-79.2694 91.46484,-91.464841 13.71989,-4.57329 27.23728,-7.107655 40.54883,-7.597656 z m 193.7793,25.890625 c 182.35097,44.135912 290.37009,60.974762 324.05279,50.521482 l 10.4511,43.5586 C 1042.6864,155.6393 931.18491,124.27864 774.38631,66.205078 Z m -244.45313,3.808594 c -10.67103,0.653318 -20.36122,7.513534 -29.07226,20.580078 -4.6459,19.74503 0.57855,31.942 15.67773,36.58789 26.71381,4.64586 41.8144,-1.74396 45.29883,-19.16602 3.48441,-20.906468 -3.48419,-33.099568 -20.90625,-36.583979 -3.77479,-1.161475 -7.44104,-1.635742 -10.99805,-1.417969 z M 848.43123,441.65039 c 55.16988,-1.7422 230.26177,40.36169 525.27537,126.31055 213.7108,77.8186 321.7276,119.63011 324.0508,125.4375 -33.6829,6.96882 -148.0877,9.29368 -343.2148,6.9707 -508.72437,-41.813 -763.08793,-90.59512 -763.08793,-146.3457 1.1615,-20.90647 30.48771,-44.42742 87.98047,-70.56055 57.49285,-26.13309 113.82619,-40.07029 168.99609,-41.8125 z M 554.01521,1107.1562 c -43.58594,3.8725 -74.25832,39.973 -99.5332,72.1192 -14.85783,14.7815 -24.09257,43.3022 -41.38672,50.1328 -17.33775,-13.7961 -15.13388,-39.5913 -24.11328,-58.5879 -11.2732,-35.7655 -46.98618,-66.4444 -85.83398,-61.2754 -24.64267,4.902 -15.41307,34.6415 -17.09375,52.4356 0.18673,67.3431 -0.38425,134.7252 0.29687,202.0449 5.28014,25.1416 35.50344,16.6734 53.87891,17.9863 154.94225,-0.1631 309.9134,0.3378 464.83789,-0.2617 24.58444,-4.6615 17.33545,-33.8773 18.23242,-51.7988 -0.0609,-67.4172 0.1314,-134.8435 -0.11133,-202.2559 -5.38201,-28.5392 -43.43368,-19.753 -60.50586,-7.0918 -27.92993,16.4526 -38.55463,48.6918 -45.37304,78.4922 -3.05199,12.473 -15.24757,43.3422 -25.39063,19.332 -32.27366,-41.3027 -63.75719,-90.4231 -116.11523,-107.625 -7.07804,-2.0642 -14.40704,-3.4596 -21.78907,-3.6465 z m -0.2832,43.2657 c 29.51636,2.623 49.69338,28.477 68.60352,48.6465 19.746,20.7947 32.48432,47.6249 54.30664,66.3925 21.07284,17.2359 51.59635,3.8178 65.06836,-16.6601 20.21807,-23.784 11.39901,-60.5493 34.16992,-83.041 7.35156,-11.6671 2.89698,9.8749 4.10937,15.4726 v 157.4688 H 329.36287 v -181.4746 c 30.14223,24.1289 18.59239,69.6092 45.3457,95.9961 16.78811,21.2721 50.91677,27.9272 71.56641,8.416 36.73864,-30.1746 48.11158,-83.4801 90.91797,-107.2539 5.16349,-2.4226 10.81539,-3.9239 16.53906,-3.9629 z" />
</svg>
