<?xml version="1.0" encoding="UTF-8" standalone="no"?>
<svg
   width="1791.9187"
   height="1798.147"
   id="svg2"
   version="1.1"
   xmlns="http://www.w3.org/2000/svg"
   xmlns:svg="http://www.w3.org/2000/svg"
   xmlns:rdf="http://www.w3.org/1999/02/22-rdf-syntax-ns#"
   xmlns:cc="http://creativecommons.org/ns#"
   xmlns:dc="http://purl.org/dc/elements/1.1/">
  <metadata
     id="metadata9">
    <rdf:RDF>
      <cc:Work
         rdf:about="">
        <dc:format>image/svg+xml</dc:format>
        <dc:type
           rdf:resource="http://purl.org/dc/dcmitype/StillImage" />
      </cc:Work>
    </rdf:RDF>
  </metadata>
  <defs
     id="defs7" />
  <path
     id="path2178"
     style="fill:#000000;stroke:none;stroke-width:100"
     d="M 468.30273 0.021484375 C 458.91022 0.1173299 449.00182 0.54771264 438.57422 1.3144531 C 383.3692 14.808969 337.36384 65.10774 300.56055 152.20898 C 226.95389 216.00139 149.6666 290.83454 68.699219 376.70898 C -34.350078 493.25287 -21.467915 511.04154 107.34375 430.07422 C 203.03238 358.92109 269.58519 311.38304 307.00195 287.46094 C 344.41865 263.53876 385.82214 261.39108 431.21289 281.01953 C 360.05983 408.6044 322.64322 504.29353 318.96289 568.08594 C 213.46 618.38382 160.70898 692.60386 160.70898 790.74609 C 197.51228 853.31176 230.63542 854.5398 260.07812 794.42773 C 258.85133 714.68714 282.15955 674.20336 330.00391 672.97656 C 330.00391 691.37827 349.63184 737.38162 388.88867 810.98828 C 428.14556 884.59488 495.00489 960.04295 589.4668 1037.3301 L 753.24219 1348.3184 C 679.63553 1570.3652 598.66783 1699.1774 510.33984 1734.7539 L 383.36914 1718.1914 C 322.0302 1729.2324 294.42662 1755.6079 300.56055 1797.3184 C 317.7354 1783.8238 334.6045 1780.1434 351.16602 1786.2773 C 367.72753 1792.4112 391.34228 1788.1178 422.01172 1773.3965 L 499.29883 1797.3184 L 712.75781 1762.3555 C 742.20045 1761.1287 763.05643 1767.2632 775.32422 1780.7578 C 785.13848 1770.9436 790.04492 1759.9026 790.04492 1747.6348 C 777.77712 1723.0992 740.36059 1710.8301 677.79492 1710.8301 C 690.06271 1645.8108 720.11854 1572.2039 767.96289 1490.0098 C 815.80718 1407.8156 839.11735 1350.7713 837.89062 1318.875 C 813.35505 1234.2274 803.84666 1183.622 809.36719 1167.0605 C 814.88765 1150.4991 821.32879 1142.2188 828.68945 1142.2188 C 848.3179 1142.2188 888.80176 1167.9812 950.14062 1219.5059 C 1011.4795 1271.0305 1055.0306 1313.9687 1080.793 1348.3184 C 1102.8749 1377.761 1113.3029 1452.5942 1112.0762 1572.8184 C 1110.8493 1693.0425 1062.3898 1748.8608 966.70117 1740.2734 C 938.48527 1740.2734 909.65748 1736.5931 880.21484 1729.2324 C 850.7722 1729.2324 836.05078 1751.9276 836.05078 1797.3184 L 894.93555 1782.5977 C 1000.4386 1798.5457 1067.9108 1802.2262 1097.3535 1793.6387 C 1126.7962 1785.0513 1152.5585 1780.7578 1174.6406 1780.7578 C 1199.1761 1789.3452 1220.9517 1789.3452 1239.9668 1780.7578 C 1258.9819 1772.1704 1274.0098 1777.69 1285.0508 1797.3184 C 1297.3186 1755.6079 1258.6759 1727.3932 1169.1211 1712.6719 C 1154.3998 1689.3631 1152.8651 1625.8756 1164.5195 1522.2129 C 1176.1738 1418.5501 1175.8673 1356.2908 1163.5996 1335.4355 L 1108.3945 1225.0273 C 1185.6816 1222.5737 1277.3837 1231.7736 1383.5 1252.6289 C 1489.6163 1273.4842 1567.8232 1291.2729 1618.1211 1305.9941 C 1668.4189 1320.7155 1714.4244 1315.809 1756.1348 1291.2734 C 1796.6184 1200.4919 1802.751 1142.8325 1774.5352 1118.2969 C 1645.7235 1104.8024 1527.6457 1052.6645 1420.3027 961.88281 C 1312.9596 871.10123 1156.5459 752.41047 951.06055 605.81055 C 745.57527 459.21062 580.87916 439.27428 456.97461 546.00391 C 460.65494 457.67592 506.04725 350.33275 593.14844 223.97461 C 632.4054 169.99639 631.17729 111.11077 589.4668 47.318359 C 574.43875 15.115417 534.05033 -0.64943427 468.30273 0.021484375 z M 416.95117 86.767578 C 421.24489 86.844261 425.9991 87.802397 431.21289 89.642578 C 452.06814 95.776442 460.04189 108.65671 455.13477 128.28516 C 447.7741 150.36713 433.05268 157.72785 410.9707 150.36719 C 390.11545 144.23332 383.36785 130.74001 390.72852 109.88477 C 395.32896 94.243328 404.07002 86.537528 416.95117 86.767578 z M 643.70508 562.07031 C 719.37475 564.01111 804.65155 599.13892 899.53516 667.45508 C 1068.2171 788.90609 1201.6293 884.28863 1299.7715 953.60156 C 1397.9137 1022.9146 1432.878 1063.7049 1404.6621 1075.9727 C 1209.6044 1078.4263 1054.1103 1055.118 938.17969 1006.0469 C 822.2492 956.97571 738.21425 909.43775 686.07617 863.43359 C 633.93815 817.42944 622.89709 783.69326 652.95312 762.22461 C 683.00922 740.75596 698.03711 724.49997 698.03711 713.45898 C 698.03711 703.64479 688.83726 693.21677 670.43555 682.17578 C 610.32348 693.21677 572.59846 712.54008 557.26367 740.14258 C 541.92896 767.74508 553.27648 804.24206 591.30664 849.63281 C 629.33673 895.02357 707.5456 952.68101 825.92969 1022.6074 C 944.3137 1092.5339 1166.6674 1134.8588 1492.9902 1149.5801 L 1699.0898 1171.6621 C 1697.863 1217.0529 1667.1921 1236.9873 1607.0801 1231.4668 C 1546.9679 1225.9463 1479.189 1215.2118 1403.7422 1199.2637 C 1328.2954 1183.3156 1244.567 1176.2614 1152.5586 1178.1016 C 1060.5503 1179.9417 929.28578 1133.3252 758.76367 1038.25 C 588.24157 943.17469 475.37689 826.3232 420.17188 687.69727 C 410.35768 660.70816 431.82671 637.39993 484.57812 617.77148 C 531.80906 579.12799 584.85089 560.56081 643.70508 562.07031 z M 75.154297 1021.2812 C 61.436461 1021.2812 105.76636 1112.3155 131.05273 1149.7129 C 169.21396 1206.1515 184.94126 1248.204 182.91016 1282.9492 L 178.7793 1353.6133 L 62.888672 1353.6133 C 61.674363 1353.5803 60.492156 1353.5645 59.341797 1353.5645 C 38.635588 1353.5645 28.283203 1358.8808 28.283203 1369.5137 C 28.283203 1380.1139 39.817805 1395.3906 62.888672 1415.3438 C 77.230028 1427.191 105.60147 1484.8699 148.00195 1588.377 C 154.86089 1603.9653 164.21337 1611.7598 176.06055 1611.7598 L 317.29297 1611.7598 C 328.51663 1611.7598 337.86915 1603.9653 345.35156 1588.377 C 387.75206 1484.8699 416.12345 1427.191 430.46484 1415.3438 C 452.91215 1394.1435 464.44679 1378.8667 465.07031 1369.5137 C 465.07031 1358.8808 454.71786 1353.5645 434.01172 1353.5645 C 432.86135 1353.5645 431.67915 1353.5823 430.46484 1353.6133 L 311.74023 1351.9512 C 311.74023 1351.9512 313.28891 1280.8349 304.91602 1239.2754 C 298.88714 1209.3506 291.5995 1180.2659 221.35547 1121.2422 C 169.1932 1076.7689 88.872113 1021.2812 75.154297 1021.2812 z M 674.11523 1068.6113 C 713.37207 1093.1468 744.65404 1109.7094 767.96289 1118.2969 L 782.68555 1243.4277 C 722.57341 1160.0069 686.38295 1101.7343 674.11523 1068.6113 z M 137.81445 1085.3008 C 159.79391 1120.9956 195.43501 1143.1067 218.15625 1165.9082 C 242.59073 1190.4289 267.9921 1212.0971 267.5293 1270.6133 L 266.87305 1353.6133 L 219.10352 1351.9512 L 219.05273 1281.5762 C 218.99913 1207.4135 199.74645 1191.7076 137.81445 1085.3008 z M 119.94336 1401.3145 L 373.41016 1401.3145 L 312.61523 1541.6094 C 305.75634 1563.4332 290.79161 1574.3457 267.7207 1574.3457 L 226.56836 1574.3457 C 202.87396 1574.3457 187.5972 1563.1213 180.73828 1540.6738 L 119.94336 1401.3145 z " />
</svg>
