<?xml version="1.0" encoding="UTF-8" standalone="no"?>
<svg
   width="24.006575"
   height="13.154959"
   id="svg2396"
   sodipodi:version="0.32"
   inkscape:version="1.2.1 (9c6d41e410, 2022-07-14)"
   sodipodi:docname="US9G11VARA.svg"
   inkscape:output_extension="org.inkscape.output.svg.inkscape"
   sodipodi:modified="true"
   version="1.1"
   xmlns:inkscape="http://www.inkscape.org/namespaces/inkscape"
   xmlns:sodipodi="http://sodipodi.sourceforge.net/DTD/sodipodi-0.dtd"
   xmlns="http://www.w3.org/2000/svg"
   xmlns:svg="http://www.w3.org/2000/svg"
   xmlns:rdf="http://www.w3.org/1999/02/22-rdf-syntax-ns#"
   xmlns:cc="http://creativecommons.org/ns#"
   xmlns:dc="http://purl.org/dc/elements/1.1/">
  <metadata
     id="metadata2403">
    <rdf:RDF>
      <cc:Work
         rdf:about="">
        <dc:format>image/svg+xml</dc:format>
        <dc:type
           rdf:resource="http://purl.org/dc/dcmitype/StillImage" />
      </cc:Work>
    </rdf:RDF>
  </metadata>
  <defs
     id="defs2401" />
  <sodipodi:namedview
     inkscape:window-height="1017"
     inkscape:window-width="1920"
     inkscape:pageshadow="2"
     inkscape:pageopacity="0.0"
     guidetolerance="10.0"
     gridtolerance="10.0"
     objecttolerance="10.0"
     borderopacity="1.0"
     bordercolor="#666666"
     pagecolor="#ffffff"
     id="base"
     inkscape:zoom="44.850765"
     inkscape:cx="12.017632"
     inkscape:cy="7.4692148"
     inkscape:window-x="1072"
     inkscape:window-y="-8"
     inkscape:current-layer="svg2396"
     inkscape:showpageshadow="2"
     inkscape:pagecheckerboard="0"
     inkscape:deskcolor="#d1d1d1"
     showgrid="false"
     inkscape:window-maximized="1" />
  <path
     id="path2398"
     style="fill:#000000;stroke:none"
     d="M 5.5292969,1.3945312 C 3.9262032,1.4033879 3.3880209,1.7102326 2.9628906,2.3125 2.5200478,2.2770727 2.325765,2.461725 2.3789062,2.8691406 1.7766389,3.0639917 1.4746094,3.6584209 1.4746094,4.6503906 1.7226018,4.4909675 1.9611278,4.4294165 2.1914062,4.4648438 2.4571127,4.4648437 2.670655,4.7697353 2.8300781,5.3808594 2.989502,5.9919835 3.3973257,6.5892747 4.0527344,7.1738281 4.0350204,8.0949432 4.5736228,9.272218 5.671875,10.707031 L 5.0625,11.052734 H 1.2363281 c -0.5491261,0 -0.82421872,0.169299 -0.82421872,0.50586 -0.56684011,1.045111 -0.54953303,1.57604 0.0527344,1.59375 H 23.714844 c 0.194847,0.03543 0.291015,-0.158855 0.291015,-0.583985 0,-1.098252 -0.366442,-1.670563 -1.101562,-1.714843 -0.73512,-0.04428 -1.651747,-0.282811 -2.75,-0.716797 C 19.056046,9.7027319 17.532497,9.0342605 15.583984,8.1308594 14.166885,7.4754507 13.228135,6.9964455 12.767578,6.6953125 L 11.279297,5.6855469 c -0.106283,-0.08414 -0.891758,-0.7346898 -1.0625,-0.8769531 -0.04269,-0.035566 2.209699,1.2245369 2.209699,1.2245369 l 0.646612,-1.1049383 -2.2862,-1.0097173 C 11.15595,3.8437261 11.505043,3.0922885 10.893342,2.7425653 10.219958,2.3575766 9.6957345,3.5559033 9.6523438,4.1445312 9.3933913,4.0291339 9.2367756,3.5978832 9.0507812,3.28125 8.306804,2.0147173 7.1323906,1.3856713 5.5292969,1.3945312 Z M 4.9316406,2.2324219 c 0.9388291,0 1.4841991,0.4328081 1.6347656,1.3007812 C 6.7169734,4.401177 6.0927453,5.1283372 4.6933594,5.7128906 7.049287,5.3231883 7.8726118,4.2593845 7.1640625,2.5234375 c 0.336561,0 0.7886286,0.4963115 1.3554687,1.4882813 0.218034,0.3815601 0.4963802,0.7198847 0.78125,1.0175781 L 5.5859375,9.2832031 c 0,0 -0.8356826,-1.5538759 -0.7109375,-2.4277343 C 4.184164,6.4657658 3.7196045,5.8857816 3.4804688,5.1152344 3.2413337,4.3446864 2.8652613,3.9589844 2.3515625,3.9589844 H 2.9101562 C 2.6798778,3.5869954 2.59139,3.2945957 2.6445312,3.0820312 2.8748097,3.1351719 3.0248479,3.0466847 3.0957031,2.8164062 3.4854054,2.4267039 3.7802478,2.2324219 4.9316406,2.2324219 Z M 3.9980469,2.7890625 c -0.4251303,0 -0.6367188,0.1962352 -0.6367188,0.5859375 0,0.4251303 0.2115885,0.6463485 0.6367188,0.6640625 C 4.4231764,4.0213485 4.6463492,3.8001303 4.6640625,3.375 4.6463492,2.9852977 4.4231764,2.7890625 3.9980469,2.7890625 Z m 5.7597656,2.6816406 c 0.2897495,0.2646073 0.5627845,0.496054 0.7382815,0.6679688 0.433986,0.4251302 1.571833,1.0887871 3.414062,1.9921875 1.84223,0.9034011 3.994822,1.8960246 6.457032,2.9765626 0.956542,0.247993 1.806803,0.424968 2.550781,0.53125 0.407416,0.637694 0.415093,0.947397 0.02539,0.929687 H 1.2363281 c -0.51369879,0 -0.51369879,-0.309706 0,-0.929687 H 5.6992188 L 6.8144531,10.681641 C 6.477892,10.37165 6.2432402,10.167935 5.9941406,9.8535156 c 0,0 3.7505624,-4.3338064 3.7636719,-4.3828125 z"
     sodipodi:nodetypes="cccccscccscccssscccscccscscssccscccsccccsssccscsscccsccccc" />
</svg>
