<?xml version="1.0" encoding="UTF-8" standalone="no"?>
<!-- Created with Inkscape (http://www.inkscape.org/) -->

<svg
   width="1800.1965"
   height="1800"
   viewBox="0 0 1800.1965 1800"
   version="1.1"
   id="svg570"
   xmlns="http://www.w3.org/2000/svg"
   xmlns:svg="http://www.w3.org/2000/svg">
  <defs
     id="defs567" />
  <path
     id="path40100"
     style="color:#000000;display:inline;fill:#000000;stroke-width:1.05201;stroke-linejoin:round"
     d="M 517.2168,0.06835937 C 424.49279,-2.9598045 373.85371,94.688575 318.37891,81.884766 248.7625,51.746224 247.90637,64.310731 131.32422,48.246094 c -81.095452,62.119496 50.1626,77.945646 110.14062,106.640626 46.90784,22.44179 105.13092,59.90102 28.63086,77.16211 -47.51534,19.08005 -95.03153,35.96878 -142.54687,55.04883 -54.189466,84.63583 15.4132,63.43368 125.49609,37.28515 84.60227,-20.09598 46.75123,-82.69615 200.60547,-20.70703 60.01906,24.18222 125.48518,-20.65028 80.54102,46.51758 -37.49525,64.06838 -75.11029,128.79455 -91.17188,205.10156 -5.85933,31.89837 -2.59451,61.19416 6.11719,88.62696 -61.43046,24.17653 -124.02465,47.43786 -189.07422,52.24804 -76.48423,-1.49488 -152.69374,-10.2392 -228.820312,-18.27148 -56.031767,11.85025 -22.3706586,87.83512 -8.441407,127.24023 37.218568,86.92154 108.038229,147.30969 180.935549,191.58789 111.50658,59.04274 238.9642,66.83294 359.21094,47.14644 64.43782,-12.7099 128.30447,-28.9034 192.14648,-45.03511 54.23536,49.46371 109.36255,94.62751 160.14063,152.03121 55.23263,75.6673 82.82865,141.5267 81.9707,197.2911 -9.77369,48.8684 -83.169,105.2048 -138.75714,172.3993 -55.58795,67.1942 -88.26928,133.7772 -98.04297,199.75 -1.2218,35.4296 5.49762,61.697 20.1582,78.8007 20.76918,-8.5517 32.9852,-21.9906 36.65039,-40.3164 -6.10859,-37.8731 -5.19119,-63.8351 2.75,-77.8847 7.9412,-14.0498 16.79858,-30.849 26.57227,-50.3965 14.66059,37.8729 20.76957,78.191 18.32617,120.9512 29.32117,-21.991 42.75981,-45.815 40.31641,-71.4707 L 892.35028,1573.704 c 67.19415,-65.9725 180.77332,-180.7737 210.09452,-251.6333 29.3213,6.1086 43.178,38.4485 55.3952,55.5525 -8.5521,54.9772 -47.7304,90.4465 -92.323,139.926 -44.5926,49.4794 -75.44093,102.929 -92.54492,160.3497 3.6652,76.968 12.8279,117.286 27.48832,120.9511 20.7692,-26.8776 27.7937,-48.8687 21.0742,-65.9726 -6.7192,-17.1041 -7.0246,-32.6829 -0.916,-46.7324 6.1086,-14.0498 13.4402,-28.4038 21.9922,-43.0645 17.104,17.1041 25.6562,56.8098 25.6562,119.1172 21.9908,-15.8823 35.4295,-36.6505 40.3164,-62.3067 -17.104,-54.977 -19.5473,-97.1279 -7.33,-126.4492 64.7507,-65.9725 107.9196,-100.6667 139.6841,-192.2953 15.839,-6.8865 32.2182,-12.6932 49.0273,-17.6387 45.7408,5.2018 92.1174,2.8691 138.2168,-9.0762 116.3361,-38.7287 95.4115,-95.6139 200.4805,-49.414 51.7503,14.2091 171.8682,71.1642 171.5332,-29.5606 l -1.8144,-139.3105 c -15.5594,-57.5202 -68.8902,-19.0155 -104.5176,-15.6719 -39.8267,9.7644 -79.6556,19.5287 -119.4824,29.293 -75.9754,-143.5893 -196.5141,-244.89231 -310.7598,-345.50979 -9.0093,-7.43876 -18.2602,-15.136 -27.3477,-22.76562 71.1847,-90.04995 138.0041,-186.81056 181.3125,-298.33203 30.4436,-99.29469 18.421,-215.99036 -35.0586,-302.24414 -23.4242,-33.21488 -35.2701,-85.786192 -71.1601,-102.300786 -38.8876,10.836874 -58.3628,60.319236 -88.2285,88.830076 -48.3243,56.7808 -93.8712,117.08596 -145.4473,169.98047 -68.5655,57.14254 -139.95421,110.55326 -215.19335,155.37695 -68.54038,34.60463 -139.37545,62.7301 -210.17383,90.58008 C 616.73618,537.73779 626.53334,455.28326 655.20898,403.37305 711.5834,312.59771 708.58416,189.95753 664.20117,93.849609 631.78387,27.415627 572.44929,2.0230156 517.2168,0.06835937 Z M 535.14453,69.953125 c 87.44823,-0.406676 107.46783,126.165195 102.84375,204.978515 -17.97584,83.23874 -72.85728,154.82655 -71.02734,244.99024 11.13306,77.10816 54.99913,154.97541 128.2539,163.56445 129.542,49.35343 275.33548,-3.91305 398.92966,70.41211 139.0116,99.23352 269.1357,217.13322 382.2207,352.97656 21.1858,47.5687 98.9968,108.26 21.5059,130.252 -66.3063,56.5007 -120.4339,51.2866 -189.0684,61.8418 -26.4948,3.055 -50.0312,8.6056 -70.5683,16.6874 -11.8985,-4.6276 -70.7529,-55.6027 -81.3418,-60.4218 -7.0147,-12.7449 -14.0599,-25.4673 -20.7559,-38.2871 -23.3387,-41.6763 -65.4332,-75.9479 -70.4179,-124.9141 -9.7605,-95.8745 33.4581,-109.74149 -42.1153,-112.11328 -15.0022,-0.47086 -47.22535,52.40688 -31.24608,111.56058 6.48671,24.0132 15.67458,46.7152 25.74418,69.0332 C 965.23188,1113.4078 916.13688,1059.5191 865.55859,1010.3027 782.97223,944.0237 710.21272,862.44327 625.91797,799.27148 578.12204,734.51679 508.54728,674.23656 498.83398,584.98438 508.95688,488.78096 575.83814,423.83814 604.64062,336.625 643.61423,262.82618 580.18718,209.92125 520.6543,243.28516 478.50514,250.03992 408.56775,214.59958 397.26367,187.56055 377.8507,139.09836 426.08292,132.16226 453.68164,94.347656 478.33318,77.999405 507.01045,71.627758 535.14453,69.953125 Z M 503.27734,126.5332 c -15.18013,-0.11228 -30.04327,5.01972 -44.23632,10.80469 -7.95073,4.41059 -8.60875,2.19325 -11.61329,11.88867 19.24235,9.83531 48.28245,17.3139 66.57422,19.07813 17.88387,0.81598 35.5254,-4.7231 52.07422,-12.04688 -6.80332,-11.23191 -48.85887,-28.69463 -62.79883,-29.72461 z m 801.44146,40.16211 c 26.8146,51.47007 63.5109,101.08399 65.9648,163.77344 5.6986,60.15599 1.4953,124.48197 -28.6211,176.11914 -42.7977,85.26367 -96.7919,162.31427 -154.1211,235.25781 -51.6251,-40.97823 -106.099,-77.09513 -167.6992,-89.22461 23.4359,-14.88858 45.7612,-31.58212 63.5937,-55.14453 22.6757,-30.07264 36.8887,-68.53044 40.5782,-108.00781 1.5107,-31.44938 -7.4188,-62.24177 -21.75,-88.9707 73.983,-70.88703 141.3004,-159.67924 202.0547,-233.80274 z m -234.9883,261.58203 c 8.7973,18.04902 15.317,37.55365 15.3925,58.35547 -3.7748,36.66946 -18.4463,72.87957 -43.9453,96.21875 -27.7796,26.044 -61.09877,42.01107 -92.19528,62.05469 -72.93178,-5.30303 -146.61975,-2.88228 -217.9414,-21.30859 82.4335,-32.7223 164.55316,-67.22334 238.35156,-121.375 33.78052,-23.73635 67.77932,-47.76742 100.33792,-73.94532 z M 477.69336,704.21875 c 27.96277,41.66441 54.67417,82.11038 82.64844,116.65039 -30.92283,12.45583 -63.28811,20.50341 -96.10352,18.39258 -31.43001,-2.10429 -57.26233,-25.92104 -79.35742,-49.53711 -11.68894,-12.93492 -22.49163,-26.91867 -32.45117,-41.6543 42.45449,-11.58636 84.06959,-27.42875 125.26367,-43.85156 z M 66.484375,749.6875 c 87.986635,2.37855 166.899385,23.17663 243.691405,8.38477 23.57875,38.36295 51.44506,73.83685 85.71094,99.74218 25.86794,19.96459 57.23675,29.82732 88.35937,27.45508 37.15859,-2.54539 73.38236,-14.1525 107.89258,-29.99219 33.53554,31.47621 71.34612,57.27498 105.39258,88.51368 -60.78269,15.26531 -121.55212,31.01643 -183.41211,38.75586 C 412.63405,991.05543 305.80776,980.7717 214.04883,926.63672 152.43164,885.03499 89.93215,830.58173 66.484375,749.6875 Z M 1740.0156,1178.3203 c -6.3684,25.5054 18.8285,91.8908 -20.5703,74.6328 -41.3863,-7.0679 -133.9505,-21.0151 -137.3008,-35.9277 52.6234,-12.9018 105.2482,-25.8033 157.8711,-38.7051 z" />
</svg>
