<?xml version="1.0" encoding="UTF-8" standalone="no"?>
<svg
   width="2199.4575"
   height="1800.0001"
   version="1.1"
   id="svg1"
   xml:space="preserve"
   xmlns="http://www.w3.org/2000/svg"
   xmlns:svg="http://www.w3.org/2000/svg"><defs
     id="defs1" /><path
     id="path1"
     style="fill:#000000;stroke:none;stroke-width:97.4721"
     d="M 777.0762,0.02795009 C 710.47714,-0.65888024 642.04892,11.484622 577.25979,17.505419 502.11288,54.191238 425.99666,26.232914 347.18557,54.870653 290.24433,80.401167 267.97575,185.59724 278.19799,247.53123 c 3.18088,-7.16729 10.65435,-4.69194 14.36495,-7.03559 27.72644,-142.301374 192.99345,-31.98488 313.85896,-1.30077 38.21814,150.23545 71.52911,332.65099 158.26172,465.70117 L 0,812.63237 c 104.74065,507.54813 599.69529,395.21333 980.31645,335.04693 71.73375,68.2768 100.12645,95.6621 230.06175,176.6465 -64.579,90.6613 -53.0034,221.9184 -148.7552,283.2539 -85.30425,28.4343 -127.95895,49.4243 -127.95895,62.9648 0,16.2486 7.4474,35.2045 22.3418,56.8692 14.8945,-1.3541 77.85805,-30.4659 188.88865,-87.336 0,20.3108 7.4492,33.1736 22.3438,38.5899 l 46.7148,-10.1563 c 6.7701,-51.4538 -20.3983,-114.9911 -13.6283,-148.8424 18.9659,-60.8337 30.9695,-141.0982 62.1127,-154.6387 31.1423,8.1243 89.4534,47.2883 107.056,75.7233 0,33.8513 49.5962,124.1725 13.0377,176.9805 -42.3079,44.5263 -231.9483,127.9497 -231.5429,156.3945 0,12.1867 7.7868,20.6495 23.3574,25.3887 15.5717,4.7382 82.9383,-25.3913 202.0937,-90.3848 8.1243,50.0999 19.6347,75.1504 34.5293,75.1504 16.2486,0 30.4648,-10.1559 42.6504,-30.4668 13.5405,-97.4904 -13.252,-211.7945 15.1831,-238.8755 28.4349,-27.081 137.1475,12.074 230.5767,13.4282 17.6019,8.1243 88.0177,94.7845 211.2344,259.9766 139.4658,-86.6581 234.2497,-205.1397 284.3496,-355.4375 -148.9445,-46.0375 -255.9159,-88.6924 -320.9102,-127.959 -51.2405,-90.5655 -143.8543,-202.154 -243.5098,-299.2988 413.8635,-74.73591 602.7365,-253.89637 563.959,-538.70708 L 1244.6894,606.16948 C 1199.4911,583.98731 1100.5297,529.4182 1048.5136,439.32377 961.11135,287.9385 973.96175,268.67053 966.54685,208.66874 c 1.8805,0.0994 78.91575,-6.66775 126.28735,-14.69336 3.0747,0.0715 -9.1784,-68.30331 -10.3262,-69.177 9.833,-2.34355 17.7137,-4.02638 24.7364,-6.56054 C 1102.422,69.278685 1098.2543,36.915565 1088.0256,2.5670125 877.32128,11.33786 877.1257,1.0597737 777.0762,0.02795009 Z M 1060.8088,58.755419 c 2.8848,17.284532 4.5766,15.274689 7.0117,32.304684 -41.0736,8.38045 -165.50602,17.037107 -165.50602,17.037107 1.02437,7.91229 2.47036,29.16289 3.57031,36.92383 41.79006,-3.79905 104.31111,-9.03088 146.12521,-13.72461 2.1199,12.10316 2.2654,26.86606 4.7402,39.77074 l -146.18963,15.28711 c 16.18458,100.90964 40.42188,180.30554 87.60158,277.70387 53.81545,101.16147 141.58745,118.4736 246.01365,195.19336 88.9442,65.3455 313.6933,347.10939 313.6933,347.10939 121.8635,113.7391 213.2754,223.1009 263.375,311.791 50.0992,88.6895 85.9837,153.3455 107.6485,193.9668 -117.013,-21.8418 -414.049,-89.0597 -465.8753,-61.9062 -18.9566,20.9878 -28.7721,28.4351 -29.4492,22.3418 -0.6771,-6.0933 -15.7492,-24.7673 -23.4535,-66.3281 -66.3476,-54.1621 -101.0383,-70.7807 -242.5345,-173.6875 C 854.69877,1004.9884 819.84875,819.7715 818.90823,695.62651 752.89472,539.18873 686.44634,383.14252 670.34182,181.78667 580.3961,176.80791 506.29571,127.71528 420.87698,107.29838 487.13391,98.726871 553.18015,87.666603 619.59573,80.808153 c -12.46184,2.496553 -23.86069,9.742739 -31.45117,19.861327 -2.13757,43.10429 96.23331,38.51855 91.75195,6.41601 C 668.98078,90.085999 648.82251,79.221283 628.43948,79.862841 661.4689,75.128577 705.46791,68.103606 742.7969,64.036669 754.01524,116.33413 733.36236,176.69336 693.68948,194.49565 l 12.67773,27.07031 C 755.92806,198.0141 803.55548,127.49128 810.64456,64.189012 Z M 2132.0234,526.42143 c 30.2044,221.84312 -152.7874,366.49563 -546.4219,434.8711 -34.8255,-34.94993 -67.7734,-72 -100.2285,-109.60547 347.8602,-56.51826 503.1932,-154.96251 483.0391,-302.98829 z m -223.2793,30.40039 c 16.6665,113.63523 -138.9977,196.89257 -461.5976,250.7168 -46.9208,-54.62113 -94.3826,-108.67533 -146.9981,-157.08008 z M 769.34573,762.64018 c 5.4842,52.81892 17.8521,113.90579 53.87695,184.00391 C 641.43455,970.97141 362.87527,1066.3768 299.38672,822.84331 Z m -529.63284,68.32813 c 86.87471,276.45079 387.07492,197.74379 610.1387,161.8125 22.2929,34.98799 50.11431,71.79919 86.79296,111.01569 -313.84734,50.1895 -757.4013,160.4751 -858.615252,-250.81452 z m 1681.05471,549.13089 205.1386,85.3047 c -38.7476,101.2828 -121.3929,177.9037 -203.1074,245.7598 l -140.1445,-178.7344 c 64.9934,20.3109 130.6661,32.4965 197.0136,36.5586 2.708,-55.5153 -16.9259,-118.4793 -58.9003,-188.8887 z" /></svg>
