<?xml version="1.0" encoding="UTF-8" standalone="no"?>
<!-- Created with Inkscape (http://www.inkscape.org/) -->

<svg
   width="1794.4788"
   height="825.211"
   id="svg2"
   sodipodi:version="0.32"
   inkscape:version="1.2.1 (9c6d41e410, 2022-07-14)"
   version="1.0"
   sodipodi:docname="US9G37VARA.svg"
   xmlns:inkscape="http://www.inkscape.org/namespaces/inkscape"
   xmlns:sodipodi="http://sodipodi.sourceforge.net/DTD/sodipodi-0.dtd"
   xmlns="http://www.w3.org/2000/svg"
   xmlns:svg="http://www.w3.org/2000/svg"
   xmlns:rdf="http://www.w3.org/1999/02/22-rdf-syntax-ns#"
   xmlns:cc="http://creativecommons.org/ns#"
   xmlns:dc="http://purl.org/dc/elements/1.1/">
  <defs
     id="defs4" />
  <sodipodi:namedview
     id="base"
     pagecolor="#ffffff"
     bordercolor="#666666"
     borderopacity="1.0"
     inkscape:pageopacity="0.0"
     inkscape:pageshadow="2"
     inkscape:zoom="0.45222222"
     inkscape:cx="895.5774"
     inkscape:cy="-72.972973"
     inkscape:document-units="px"
     inkscape:current-layer="layer2"
     showguides="true"
     inkscape:guide-bbox="true"
     inkscape:window-width="1920"
     inkscape:window-height="1017"
     inkscape:window-x="1072"
     inkscape:window-y="-8"
     inkscape:showpageshadow="2"
     inkscape:pagecheckerboard="0"
     inkscape:deskcolor="#d1d1d1"
     showgrid="false"
     inkscape:window-maximized="1" />
  <metadata
     id="metadata7">
    <rdf:RDF>
      <cc:Work
         rdf:about="">
        <dc:format>image/svg+xml</dc:format>
        <dc:type
           rdf:resource="http://purl.org/dc/dcmitype/StillImage" />
        <dc:creator>
          <cc:Agent>
            <dc:title>Serge Rosmorduc</dc:title>
          </cc:Agent>
        </dc:creator>
        <dc:description>G37 sign from Karnak hypostyle hall</dc:description>
      </cc:Work>
    </rdf:RDF>
  </metadata>
  <g
     inkscape:groupmode="layer"
     id="layer2"
     inkscape:label="dessin"
     transform="translate(-3.6267502,-972.63181)">
    <path
       id="path1319"
       style="fill:#000000;fill-opacity:1;fill-rule:evenodd;stroke:none;stroke-width:60;stroke-linecap:butt;stroke-linejoin:miter;stroke-miterlimit:4;stroke-opacity:1"
       d="m 336.57031,972.67383 v 0.002 c -46.29308,2.09478 -91.35546,14.46851 -135.54297,27.54687 -54.90106,17.2187 -109.566159,36.9674 -159.894528,64.9219 -13.196742,8.2313 -28.327446,15.9561 -36.1874995,29.875 -4.33906277,10.2192 2.5102928,23.2693 13.5312495,25.3125 24.234935,5.6551 48.857945,-7.0605 73.0625,-0.2812 33.631518,7.5631 59.481938,33.0635 80.124998,59.25 32.16991,39.4995 53.37261,86.5981 82.99024,127.9512 22.21239,31.6225 49.79691,58.8048 78.44726,84.5488 93.53519,81.8678 210.53778,132.7553 331.0625,160.25 10.69727,11.7372 22.25681,22.6703 33.625,33.8125 -43.73953,46.6457 -87.47921,93.2917 -131.21875,139.9375 -65.83552,0.5935 -131.81717,-0.3854 -197.51953,3.8965 -15.67057,1.8687 -30.54498,13.5808 -32.35547,29.8535 -3.21549,21.3436 17.95932,41.5804 39.1875,37.8437 70.67972,-2.972 141.45876,-2.425 212.1875,-3.0234 104.7783,-0.4649 209.57868,-0.079 314.34375,-0.01 14.6115,-1.5464 25.11001,-13.697 30.83203,-26.3242 31.78378,-55.9388 64.1664,-111.5842 95.57421,-167.7071 3.679,-8.1872 2.8937,-17.8432 -0.6875,-25.9063 126.1758,-6.1823 252.0086,-17.6455 378.0606,-25.748 9.6315,-0.011 19.6909,-2.3672 29.0527,-0.8242 75.2088,32.4724 171.2836,67.0068 250.1191,90.1269 33.4056,4.144 65.8886,-13.7494 85.7461,-39.584 18.1317,-22.5462 27.3799,-51.3748 26.9785,-80.2441 0.5129,-35.7038 -11.5319,-73.3692 -39.5312,-96.625 -23.9245,-25.975 -55.501,-45.467 -116.8242,-41.3203 -85.2688,6.5391 -181.8693,14.7609 -273.0332,21.998 60.2166,-16.35 118.9379,-38.1436 174.8711,-65.7519 58.2735,-30.1739 118.5604,-67.9722 147.8496,-129.1387 28.0717,-57.3786 4.5857,-133.246 -49.168,-166.6953 -17.2409,-10.2614 -37.4811,-15.1276 -57.4902,-14.5664 -54.9211,1.1724 -112.1194,42.7648 -115.7246,100.3203 -1.3209,22.1851 5.7544,44.5405 18.789,62.4512 13.5195,-9.7468 27.0391,-19.4935 40.5586,-29.2403 -15.1727,-16.8814 -12.2305,-43.2892 3.5996,-58.582 24.1056,-27.6158 73.0469,-35.6461 98.918,-6.1035 22.8415,26.9072 31.764,68.8481 11.4141,99.7578 -32.5346,51.1256 -88.3211,81.0991 -141.3282,106.8691 -85.8397,38.8228 -177.5008,64.8403 -270.7578,78.0332 -98.1734,-45.5116 -196.3198,-91.2104 -295.44724,-134.2421 -97.97164,-40.2846 -203.85037,-56.4511 -303.10743,-92.6152 -58.97282,-34.4518 -104.82507,-86.402 -160.83007,-125.125 -39.1549,-28.75932 -83.80849,-56.16323 -134.27735,-54.90042 z m -4.7539,67.68357 0.99609,0.088 0.13281,0.012 c 44.06616,3.8384 80.74415,31.3124 115.4336,56.5039 31.98156,22.2775 59.79857,49.519 89.9414,74.1836 -22.95522,28.396 -44.40435,60.9297 -46.22265,98.5918 -2.60728,30.8942 4.70044,62.6094 22.41015,88.1582 27.18382,40.3932 71.65835,65.029 116.0625,82.5 80.54633,30.6448 166.90385,42.5761 252.54883,48.2461 110.42609,6.1069 221.13636,2.9263 331.53516,-2.2148 25.2326,-1.2598 50.4553,-2.7015 75.666,-4.3438 2.7032,2.0014 17.9344,6.307 8.916,6.1758 -165.0877,11.4364 -330.70597,29.1615 -496.30271,17.4688 -129.06032,-12.4153 -258.07102,-48.3842 -366.73828,-120.8633 -38.69681,-26.116 -74.69137,-56.459 -105.39648,-91.7324 -30.71217,-36.2205 -52.5709,-79.1526 -77.79102,-119.252 -24.78565,-37.1036 -53.6087,-72.7883 -91.71875,-96.7969 54.8943,-19.6007 112.1876,-33.5893 170.52735,-36.7246 z m -40.27735,6.4121 c -12.27997,0.066 -26.54823,5.308 -30.46875,18.0313 -3.25877,12.4346 8.52778,22.8825 19.46875,25.7812 13.44551,4.7209 30.8857,2.6551 39.28125,-9.9062 5.90218,-7.8021 6.60192,-21.4019 -2.92578,-26.7871 -6.83126,-6.2081 -16.45862,-7.3779 -25.35547,-7.1192 z m 286.03125,153.2813 0.83985,0.541 0.5664,0.3652 c 13.88952,9.2858 29.12051,16.2397 45.15625,21.125 108.27507,37.5087 223.68948,54.4531 327.57813,104.3282 66.36016,29.8853 132.42816,60.4257 198.48436,90.9843 -90.3069,4.5785 -180.91844,8.9617 -271.27538,3.2364 -72.27328,-5.4229 -145.03126,-15.5367 -213.53711,-39.6114 -31.6279,-10.8804 -58.27716,-32.0155 -86.84375,-48.5625 -16.81265,-10.7097 -28.8568,-29.3575 -28.53125,-49.6562 0.21643,-29.6801 14.0536,-57.0712 27.5625,-82.75 z m 1008.78129,252.8496 0.6875,0.025 c 33.0561,1.4593 90.8704,-1.9505 119.8515,16.2812 7.8118,4.537 14.3644,11.2584 16.793,20.2266 9.9087,25.9624 5.4841,60.3781 -18.375,77.4375 -5.5597,4.6635 -13.3351,0.8814 -19.793,0.2988 -26.8921,-6.2182 -73.1503,-18.5611 -99.2812,-27.4375 -52.472,-22.3667 -104.649,-45.2655 -156.6016,-68.7129 52.3897,-4.8507 104.6378,-11.0296 156.7188,-18.1191 z M 776.97656,1571.082 c 1.11458,0.1145 2.22917,0.2292 3.34375,0.3438 55.21074,5.1783 110.72749,6.5828 166.15625,5.6562 2.00444,5.1548 10.77019,9.9756 7.60547,15.3868 l -76.82422,134.3945 c -72.20678,-0.6088 -144.41601,-0.9073 -216.625,-1.0938 37.78992,-40.5046 76.08903,-80.5695 113.5,-121.4062 7.0322,-9.4526 7.70894,-22.7094 2.84375,-33.2813 z" />
  </g>
</svg>
