<?xml version="1.0" encoding="UTF-8" standalone="no"?>
<svg
   width="20.429993"
   height="17.977583"
   version="1.1"
   id="svg4"
   sodipodi:docname="US9G25VARA.svg"
   inkscape:version="1.2.1 (9c6d41e410, 2022-07-14)"
   xmlns:inkscape="http://www.inkscape.org/namespaces/inkscape"
   xmlns:sodipodi="http://sodipodi.sourceforge.net/DTD/sodipodi-0.dtd"
   xmlns="http://www.w3.org/2000/svg"
   xmlns:svg="http://www.w3.org/2000/svg">
  <defs
     id="defs8" />
  <sodipodi:namedview
     id="namedview6"
     pagecolor="#ffffff"
     bordercolor="#000000"
     borderopacity="0.25"
     inkscape:showpageshadow="2"
     inkscape:pageopacity="0.0"
     inkscape:pagecheckerboard="0"
     inkscape:deskcolor="#d1d1d1"
     showgrid="false"
     inkscape:zoom="79.600615"
     inkscape:cx="4.8303647"
     inkscape:cy="13.906928"
     inkscape:window-width="1920"
     inkscape:window-height="1137"
     inkscape:window-x="-8"
     inkscape:window-y="-8"
     inkscape:window-maximized="1"
     inkscape:current-layer="svg4" />
  <path
     style="fill:#000000;stroke:none"
     d="m 9.100265,11.77562 c 0.2837493,0.391845 0.439136,0.824226 0.46616,1.297143 0.027024,0.472917 0.040536,0.878274 0.040536,1.216072 0.324286,-0.581013 0.53372,-1.135001 0.628303,-1.661965 -0.04054,-0.270237 -0.418869,-0.553987 -1.134999,-0.85125 z m 1.722766,0.790447 c -0.270237,0.972857 -0.9188083,2.391606 -1.945713,4.256248 -0.1080947,0.202679 -0.054047,0.310774 0.162143,0.324286 l 2.087588,0.101339 c 0.635059,0 0.952589,-0.641815 0.952589,-1.925445 -0.121607,-1.324166 -0.317529,-2.1011 -0.587767,-2.330803 -0.270238,-0.229702 -0.493185,-0.371577 -0.66884,-0.425625 z m 1.580893,1.31741 c 0,-1.053928 -0.101339,-1.675475 -0.304018,-1.864642 -0.216191,-0.202679 -0.202679,-0.297262 0.04054,-0.28375 0.418869,0.324286 0.871517,0.486429 1.357946,0.486429 0.472917,0 0.915432,-0.05405 1.327545,-0.162143 0.412112,-0.108095 1.496442,0.276994 3.252989,1.155267 0,-0.162143 0.121607,-0.276994 0.364821,-0.344553 0.108095,0.175655 0.243214,0.324285 0.405357,0.445892 0.135119,0.02702 0.314152,0.01351 0.537098,-0.04054 0.222946,-0.05405 0.381711,-0.145254 0.476296,-0.273617 0.09458,-0.128363 0.135118,-0.206056 0.121606,-0.23308 -1.107976,-0.743154 -2.212574,-1.199181 -3.313793,-1.36808 -1.101221,-0.168898 -2.327426,-0.253347 -3.678615,-0.253347 -1.35119,0 -2.590907,-0.351309 -3.719151,-1.053928 C 8.1442977,9.3907707 7.154551,8.64086 6.303301,7.843658 6.046575,7.4247887 6.201962,7.0802353 6.769462,6.809998 7.82339,6.809998 8.6881517,6.661367 9.363747,6.364105 10.039342,6.066843 8.6949073,5.9992837 5.330444,6.161427 4.6413373,6.2424977 4.181933,6.6208307 3.952231,7.296426 3.7225283,7.9720207 4.9115753,8.9651453 7.519372,10.2758 c 2.607797,1.310654 4.060326,2.074076 4.357588,2.290267 0.297262,0.21619 0.472917,0.655327 0.526964,1.31741 z m 6.789729,-2.432142 C 17.423594,10.856812 15.889994,10.086633 14.592852,9.1408 13.29571,8.1949673 12.305963,7.4991047 11.623612,7.053212 10.941261,6.6073193 10.248776,6.5600277 9.546157,6.911337 8.8435383,7.2626463 8.1105177,7.418033 7.347095,7.377497 6.583673,7.3369617 6.9991643,7.850414 8.593569,8.917854 c 1.594404,1.06744 3.067201,1.60116 4.418391,1.60116 1.337677,0 2.496323,0.09458 3.475936,0.28375 0.979613,0.189167 1.881532,0.405357 2.705757,0.648571 z M 6.5908588,0.57369584 C 9.3075974,-1.3184352 11.093299,2.1385184 11.57978,2.8663564 L 10.8218,3.2864282 C 10.12345,2.7838618 8.7703468,-1.0481556 6.8758996,1.1963182 L 6.97214,1.763303 c 0.1486313,0.4594047 -0.202678,1.736279 -1.053928,3.830623 2.8645227,-0.189166 4.752811,0.013513 5.664864,0.608036 0.912053,0.594524 1.827485,1.270119 2.746294,2.026785 0.918809,0.7566667 2.111234,1.428884 3.577275,2.016652 1.466041,0.587767 2.239598,1.070817 2.320669,1.449151 0.108096,0.405357 -0.07431,0.513452 -0.547232,0.324285 -0.05405,0.121607 0.195922,0.324285 0.749911,0.608035 0,0.783691 -0.53372,1.175536 -1.60116,1.175536 -0.499941,0 -1.219449,-0.219568 -2.158526,-0.658705 -0.939077,-0.439137 -1.614673,-0.611414 -2.026786,-0.516831 -0.412113,0.09458 -0.955966,0.128363 -1.631561,0.101339 l -0.202679,3.87116 0.202679,0.709375 c 0.324285,-0.04054 0.591145,0 0.80058,0.121607 0.209435,0.121607 0.239836,0.304018 0.09121,0.547232 H 4.458927 C 4.2697603,17.869487 4.23936,17.690455 4.367722,17.440485 4.399813,17.377995 2.9059651,13.679761 3.1486772,13.570868 c 0.2162051,-0.097 1.6653576,3.745483 1.7438955,3.726904 0.078538,-0.01858 0.5432844,0.02741 0.6318439,-0.02282 0.063444,-0.03599 -1.3556951,-3.715263 -1.1214964,-3.7847 0.2341987,-0.06944 1.6466365,3.751414 1.7091291,3.764114 0.4999359,0.101359 0.3398827,0.02734 1.1235727,-0.148321 0.4188693,-0.01351 0.7972027,-0.391845 1.135,-1.135 C 8.7084193,15.227911 8.9381217,14.525293 9.059729,13.86321 9.1813363,13.201127 9.076619,12.613359 8.745577,12.099906 8.4145357,11.586454 7.451813,10.893969 5.857409,10.022451 4.2630043,9.1509343 3.3948647,8.44156 3.25299,7.894328 3.1111153,7.347096 3.5941657,6.364105 4.702141,4.945355 5.810117,3.5266057 5.6412183,2.810475 4.195445,2.796963 2.9658623,2.823987 2.060565,3.1719187 1.479553,3.840758 0.89854167,4.5095967 0.608036,5.141278 0.608036,5.735802 c 0,0.1621427 -0.10133933,0.24997 -0.304018,0.263482 C 0.10133933,5.97226 0,5.7425577 0,5.310177 0,4.3643437 0.17565467,3.617811 0.526964,3.070579 0.87827333,2.523347 1.5268447,1.993005 2.472678,1.479553 2.715892,1.1012197 3.0199097,0.76004433 3.384731,0.456027 3.7495523,0.152009 4.33732,0 5.148034,0 5.7695813,0 6.0233588,0.07375584 6.5908588,0.57369584 Z M 0.344553,5.310177 C 0.70937433,3.688749 1.4795527,2.742916 2.655088,2.472678 L 2.45241,2.067321 C 1.587648,2.6348203 1.026904,3.1651623 0.770178,3.658347 0.513452,4.151531 0.371577,4.702141 0.344553,5.310177 Z M 5.999284,3.506338 C 6.5667833,1.88491 6.3641047,0.959345 5.391248,0.729643 4.4183913,0.49994033 3.661725,0.74991033 3.121249,1.479553 3.1617843,1.6011603 3.2462337,1.66872 3.374597,1.682232 3.5029603,1.6957433 3.675237,1.6349397 3.891427,1.499821 3.9860103,1.256607 4.0974837,1.104598 4.225847,1.043794 4.3542097,0.98299067 4.4927067,0.97961267 4.641338,1.03366 c 0.21619,0.06756 0.324285,0.202679 0.324285,0.405357 0,0.1891667 -0.091205,0.3445537 -0.273616,0.466161 C 4.5095963,2.0267853 4.2494923,1.9862497 3.911695,1.783571 3.600921,1.8646423 3.448912,1.9659817 3.455668,2.087589 3.462424,2.2091957 3.5806533,2.276755 3.810356,2.290267 h 1.114731 c 0.4323813,0.013512 0.790447,0.418869 1.074197,1.216071 z"
     id="path2"
     sodipodi:nodetypes="csccccccccsccccsscccsscsssccscsssccssssssscccccccssscccssscccsccsssszscsssssscsscsscssccccsccscscscsscsccc" />
</svg>
