<?xml version="1.0" encoding="UTF-8" standalone="no"?>
<svg
   width="1750"
   height="1800"
   version="1.1"
   id="svg16284"
   sodipodi:docname="US9G21BVARA.svg"
   inkscape:version="1.2.2 (732a01da63, 2022-12-09)"
   xmlns:inkscape="http://www.inkscape.org/namespaces/inkscape"
   xmlns:sodipodi="http://sodipodi.sourceforge.net/DTD/sodipodi-0.dtd"
   xmlns="http://www.w3.org/2000/svg"
   xmlns:svg="http://www.w3.org/2000/svg">
  <defs
     id="defs16288" />
  <sodipodi:namedview
     id="namedview16286"
     pagecolor="#ffffff"
     bordercolor="#000000"
     borderopacity="0.25"
     inkscape:showpageshadow="2"
     inkscape:pageopacity="0.0"
     inkscape:pagecheckerboard="0"
     inkscape:deskcolor="#d1d1d1"
     showgrid="false"
     inkscape:zoom="0.49555556"
     inkscape:cx="872.75785"
     inkscape:cy="900"
     inkscape:window-width="1920"
     inkscape:window-height="1137"
     inkscape:window-x="-8"
     inkscape:window-y="-8"
     inkscape:window-maximized="1"
     inkscape:current-layer="svg16284" />
  <path
     id="path16282"
     style="display:inline;fill:#000000;stroke:none;stroke-width:93.2635"
     d="M 720.05353,3.958801 C 633.67971,5.9132793 571.74055,31.647823 534.23617,81.161173 425.13237,118.94763 375.12569,166.50608 384.2177,223.83734 l 15.34239,78.17993 c 15.91097,-33.8775 37.50418,-53.42299 64.78011,-58.63494 96.60227,-11.72683 139.22163,9.773 127.85666,64.49824 -7.76852,37.40749 -13.39122,74.8144 -17.17712,112.22185 -44.95424,57.47762 -131.95401,189.33986 -267.35,376.69549 0,0 -301.6332063,127.67993 -303.5096212,135.70868 -1.8764151,8.02876 18.0424552,65.64067 23.2129302,68.24221 5.170475,2.6015 251.363461,-121.58613 257.132091,-114.97244 5.76862,6.61364 -24.66933,281.53934 -19.85069,288.01204 4.81864,6.4726 57.80318,9.6664 63.68928,5.7702 5.88611,-3.8961 22.61056,-328.02803 22.61056,-328.02803 112.69318,-158.66789 221.35652,-312.10581 222.6881,-313.28561 4.59392,36.33025 14.15185,74.84069 28.78273,115.57797 23.86648,66.45213 68.47486,158.96491 133.82343,277.53591 65.34858,118.57146 98.02282,226.06666 98.02282,322.48726 0,95.1178 -8.5249,168.0846 -25.57237,218.9011 -86.37375,136.8131 -144.90194,211.7345 -175.58738,224.7642 l -117.62842,-5.8613 c -44.32339,-9.1207 -64.21192,0.6509 -59.66597,29.3164 0,31.2717 11.93241,53.4216 35.79889,66.4514 0,-13.0298 7.95612,-20.8473 23.86708,-23.4531 l 64.78012,19.545 516.53898,-1.9552 c 26.1396,-1.3029 38.6408,4.5621 37.5043,17.5919 14.7745,-10.4239 22.1617,-31.9237 22.1617,-64.4982 0,-28.6655 -15.9105,-37.7873 -47.7324,-27.3634 -31.8219,10.4238 -52.8481,0.652 -63.0765,-29.3165 26.1394,-80.7849 47.7327,-147.2367 64.7801,-199.356 14.7745,-63.8461 23.8664,-135.5109 27.2759,-214.9927 100.0114,67.7549 151.7228,194.7955 155.1326,381.122 3.4095,76.8763 56.5411,116.6172 159.3941,119.2231 102.8531,2.6058 151.4378,-18.2418 145.7552,-62.5432 l -40.913,-119.223 c 69.3264,101.6325 122.7423,148.5409 160.2467,140.7231 13.638,-2.6061 23.2969,-13.0298 28.9795,-31.2716 9.092,-31.2716 -7.6716,-80.1342 -50.2904,-146.5863 -42.6186,-66.4521 -91.2033,-150.4951 -145.7552,-252.1276 C 1346.8318,902.04126 1211.8725,666.85359 1145.3874,587.37159 1078.9023,507.88973 1004.7464,457.72477 922.91856,436.87703 884.2777,401.6965 872.62792,359.67504 887.97055,310.81319 903.31326,261.95135 900.75536,198.10401 880.29853,119.27359 859.84152,40.443142 806.42728,2.0043111 720.05353,3.958801 Z m 2.5562,59.612478 c 64.21213,0 101.14878,28.991115 110.80899,86.973881 9.66026,57.9827 7.10242,110.10198 -7.67205,156.35785 -14.77447,46.25587 -13.06979,88.92941 5.11412,128.01893 18.184,39.08943 40.34595,61.8915 66.4854,68.40644 77.28182,19.54474 142.06321,60.26397 194.34201,122.15562 52.279,61.89166 132.402,188.28013 240.3692,379.1671 107.9674,190.887 211.3882,374.2835 310.2635,550.1861 l 28.9812,89.9045 C 1520.1479,1457.1122 1375.8123,1298.8003 1238.2961,1169.8049 1100.78,1040.8095 991.10761,934.6167 909.27972,851.22584 827.45191,767.83501 780.85622,675.97269 769.49125,575.64302 c 0,-18.24177 11.64802,-31.92222 34.94626,-41.04309 23.29818,-9.12089 34.37921,-21.49907 33.2427,-37.13485 -1.1365,-15.63579 -7.95505,-26.7118 -20.45652,-33.22667 -20.45697,-6.51493 -43.18775,-0.65188 -68.19067,17.5899 -25.00294,18.24175 -39.20881,52.11976 -42.61832,101.63309 19.32048,109.45052 74.44105,212.38688 165.36089,308.80753 90.91972,96.4207 276.16841,278.18707 555.74681,545.29837 35.2314,35.1806 65.3495,99.6781 90.3525,193.4928 20.4569,40.3926 0.2839,61.2403 -60.5187,62.5432 -60.8026,1.3028 -96.8861,-29.3165 -108.2511,-91.8597 -7.9555,-122.4804 -31.8221,-212.3862 -71.5995,-269.7175 -81.8277,-100.3297 -139.7889,-157.0098 -173.8838,-170.0395 -14.7745,0 -22.7307,58.6343 -23.8671,175.9027 C 1067.2532,1285.77 1006.4499,1195.2119 897.34619,1066.2167 731.41761,812.13501 642.7713,623.85361 631.40633,501.37327 c 3.40951,-88.60277 9.65927,-162.22182 18.75123,-220.85608 9.09196,-58.63418 -4.54513,-95.1167 -40.91303,-109.4495 l -17.04767,-48.86146 c 22.72993,-39.089513 66.2008,-58.634951 130.41287,-58.634951 z m -0.74563,41.288441 c -4.61702,-0.48861 -9.76691,0.0809 -15.4494,1.70972 -25.00294,3.9089 -35.23078,20.1958 -30.68477,48.86147 4.54601,24.75663 19.88773,35.83264 46.02715,33.22666 22.72993,-5.21187 31.82194,-22.15088 27.27594,-50.81654 -4.26185,-20.52197 -13.31785,-31.51546 -27.16892,-32.98131 z m -167.17142,17.34651 10.22825,41.04306 -136.37963,46.90836 c 22.72993,-45.60439 64.7805,-74.92162 126.15138,-87.95142 z m 15.34238,64.49625 15.34239,31.27157 -61.37127,-11.72658 z m 282.98757,904.92242 c 47.73256,57.3312 71.88365,97.3982 72.45215,120.2005 0.56822,22.8022 -13.92207,49.1891 -43.47095,79.1575 1.13645,-63.846 -8.52427,-130.2998 -28.9812,-199.358 z m 122.74248,199.358 c 51.14239,35.1807 74.44029,98.3739 69.89429,189.5826 l -57.96069,179.8129 c -10.2285,33.8775 -30.68581,49.5122 -61.37133,46.9065 -78.41831,2.606 -134.106,-2.6048 -167.06438,-15.6348 0,-27.3624 35.79906,-94.4664 107.39847,-201.3111 51.14226,-132.9042 87.51021,-199.3561 109.10364,-199.3561 z" />
</svg>
