<?xml version="1.0" encoding="UTF-8"?>
<svg id="svg1333" xmlns="http://www.w3.org/2000/svg" viewBox="0 0 17.61 13.96">
  <defs>
    <style>
      .cls-1 {
        fill: none;
        stroke: red;
        stroke-width: .45px;
      }
    </style>
  </defs>
  <path id="path1335" d="M15.71,12.33h1.69c.22,0,.21.22.21.31,0,.08-.01.3-.18.3h-1.29l.44.3.13.09c.35.24.43.28.28.51-.14.21-.22.11-.62-.09-.13-.07-.52-.29-.52-.29l-.91-.52H0v-.61s6.59,0,6.59,0"/>
  <path id="path1335-2" data-name="path1335" d="M14.95,12.93l-1.06-.61c-.48-.28-1.87-1.16-2.49-1.28-1.12-.22-6.37-.83-7.2-1.64-.23-.22-.3-.29-.34-.44-.04-.16-.05-.24-.04-.44.01-.46.09-.56,0-.91-.05-.21-.15-.36-.25-.5-.72-.99-1.62.02-1.8.23l-.36.42-.61-.44s.39-.51.54-.66c.44-.44.81-.65,1.59-.71.59,0,.97.25,1.35.74.59.76-.05,2.1.53,2.3,2.45.84,5.66,1.15,5.66,1.15.96.16,1.73.31,2.21.58,1.03.59,3.34,2.12,3.49,2.21"/>
  <rect id="zone2" class="cls-1" x="5.65" y=".22" width="9.34" height="7.94"/>
</svg>