<?xml version="1.0" encoding="UTF-8" standalone="no"?>
<svg
   width="19.767664"
   height="13.37"
   id="svg2"
   sodipodi:version="0.32"
   inkscape:version="1.2.1 (9c6d41e410, 2022-07-14)"
   sodipodi:docname="US9I106VARB.svg"
   inkscape:output_extension="org.inkscape.output.svg.inkscape"
   version="1.1"
   xmlns:inkscape="http://www.inkscape.org/namespaces/inkscape"
   xmlns:sodipodi="http://sodipodi.sourceforge.net/DTD/sodipodi-0.dtd"
   xmlns="http://www.w3.org/2000/svg"
   xmlns:svg="http://www.w3.org/2000/svg"
   xmlns:rdf="http://www.w3.org/1999/02/22-rdf-syntax-ns#"
   xmlns:cc="http://creativecommons.org/ns#"
   xmlns:dc="http://purl.org/dc/elements/1.1/">
  <metadata
     id="metadata9">
    <rdf:RDF>
      <cc:Work
         rdf:about="">
        <dc:format>image/svg+xml</dc:format>
        <dc:type
           rdf:resource="http://purl.org/dc/dcmitype/StillImage" />
      </cc:Work>
    </rdf:RDF>
  </metadata>
  <defs
     id="defs7">
    <inkscape:perspective
       sodipodi:type="inkscape:persp3d"
       inkscape:vp_x="0 : 4.3812085 : 1"
       inkscape:vp_y="0 : 1000 : 0"
       inkscape:vp_z="19.767664 : 4.3812085 : 1"
       inkscape:persp3d-origin="9.883832 : 1.3849446 : 1"
       id="perspective11" />
  </defs>
  <sodipodi:namedview
     inkscape:window-height="1137"
     inkscape:window-width="1920"
     inkscape:pageshadow="2"
     inkscape:pageopacity="0.0"
     guidetolerance="10.0"
     gridtolerance="10.0"
     objecttolerance="10.0"
     borderopacity="1.0"
     bordercolor="#666666"
     pagecolor="#ffffff"
     id="base"
     showgrid="false"
     inkscape:zoom="31.648479"
     inkscape:cx="4.1866151"
     inkscape:cy="4.6763701"
     inkscape:window-x="-8"
     inkscape:window-y="-8"
     inkscape:current-layer="svg2"
     inkscape:showpageshadow="2"
     inkscape:pagecheckerboard="0"
     inkscape:deskcolor="#d1d1d1"
     inkscape:window-maximized="1" />
  <path
     id="path4"
     style="fill:#000000;stroke:none;stroke-width:0.992137"
     d="M 3.4980469,3.8753059 C 3.3000368,3.8817751 3.0866308,3.9106539 2.9296875,4.049134 2.3388398,4.0214382 1.795403,3.975087 1.296875,3.9104621 1.0199155,3.7535191 0.77163994,3.6785691 0.5546875,3.6878059 0.33773574,3.6970374 0.19299654,3.8868855 0.11914062,4.2561653 0.06374899,4.6808373 0.22944409,4.9347966 0.6171875,5.017884 c 0.535456,0.156944 0.9284707,0.3061222 1.1777344,0.4492187 0.2492643,0.1430952 0.8632058,0.3494599 1.8417969,0.6171876 0.313888,0.3323517 0.702463,0.4891678 1.1640624,0.4707031 0.055392,0.3785119 0.2077669,0.6546707 0.4570313,0.8300781 0.2492636,0.1754076 0.04734,0.2261997 -0.6035156,0.1523438 -0.6508561,-0.073855 -1.2108091,-0.078296 -1.6816407,-0.013672 -0.4708314,0 -0.5635354,0.3091902 -0.2773437,0.9277343 0.073856,-0.3692798 0.2129121,-0.3692798 0.4160156,0 0.1477126,-0.3600482 0.2936944,-0.3600482 0.4414063,0 0.1107833,-0.3231198 0.296191,-0.4037468 0.5546875,-0.2421873 0.2584951,0.1615601 0.9873404,0.131724 2.1875,-0.089844 0.1846398,-0.083088 0.2951029,-0.3084546 0.3320312,-0.6777344 1.5786714,0 2.4662842,-0.064112 2.6601563,-0.1933594 0.055392,0.064623 0.1658556,0.145251 0.3320312,0.2421878 C 9.7853168,7.587476 9.6196218,7.668103 9.1210938,7.7327277 8.4286944,7.5388557 7.9252156,7.4727913 7.6113281,7.5374153 c -0.3415835,0 -0.4298474,0.3091902 -0.2636719,0.9277343 0.083088,-0.2584958 0.217704,-0.2584958 0.4023438,0 0.147712,-0.3323517 0.2956475,-0.3323517 0.4433594,0 0.1292482,-0.3231203 0.5501452,-0.3739123 1.265625,-0.1523437 0.7154786,0.2215672 1.2265946,-0.00824 1.5312496,-0.6914063 0.18464,0.1846415 0.456359,0.1878369 0.816407,0.00781 0.360046,-0.1800238 1.092088,-0.1292324 2.195312,0.1523438 1.103223,0.2815752 2.162215,0.4009187 3.177735,0.359375 C 18.195207,8.0993869 18.990119,7.9857276 19.5625,7.8010871 19.793303,7.5795192 19.773588,7.3497123 19.505859,7.1096809 18.979636,7.045057 18.123812,6.885045 16.9375,6.6311653 16.495347,6.5365407 16.035491,6.4146247 15.566406,6.2796027 15.62423,6.0540805 15.761456,5.5452972 15.841797,5.4807746 16.072578,5.2954178 16.798169,5.2224603 17.46875,5.4417121 17.648248,3.1477037 17.804143,1.9671044 17.933594,1.9006965 18.245605,1.8263082 18.446286,1.6359006 18.535156,1.330384 18.668718,0.83644988 18.468116,0.47636813 17.933594,0.24835273 17.637871,0.11743276 17.347659,0.07939604 17.064453,0.13507148 16.781248,0.19074324 16.58197,0.43900839 16.466797,0.88116528 L 15.058594,6.1311653 C 14.425312,5.9333207 13.768289,5.7024179 13.087891,5.4338996 11.707707,4.8892121 10.37824,4.5800212 9.0996094,4.5061653 7.8209779,4.4323095 6.9365614,4.3815185 6.4472656,4.3538215 5.9948982,4.1230218 5.5120204,3.95958 5.1601562,3.9104621 4.8082921,3.8613442 4.6460567,3.9274202 4.390625,3.9514777 4.274238,3.9624395 4.1613958,4.0088801 4.0449219,4.0042121 3.8577848,3.996712 3.6852344,3.8691903 3.4980469,3.8753059 Z M 8.1933594,8.4651496 H 7.75 7.3476562 0.5 v 0.5136719 l 6.7363281,0.027344 c 0.7200958,0.867806 1.6851401,1.5039475 2.8945309,1.9101555 v 2.429687 h 0.845703 v -2.234374 c 1.144768,0.304655 2.009472,0.194193 2.595704,-0.332032 0.586231,-0.526223 0.624947,-1.1357255 0.117187,-1.8281241 l 5.794922,0.027344 V 8.4651496 Z M 17.416016,0.56671208 c 0.122817,-0.00313 0.26373,0.029733 0.421875,0.095703 0.256498,0.1165725 0.353845,0.2759335 0.291015,0.48046872 -0.06279,0.204547 -0.245622,0.3441917 -0.546875,0.4160156 -0.187743,0.1750952 -0.356388,1.2512134 -0.507812,3.2304688 -0.449821,-0.1060268 -0.862551,-0.072444 -1.236328,0.099609 l 1.023437,-3.7988281 c 0.09922,-0.34134332 0.284489,-0.51654772 0.554688,-0.52343702 z M 0.7421875,4.0354621 c 0.16617621,0.04616 0.4112554,0.1179071 0.734375,0.2148438 0.3231197,0.096937 0.8443573,0.1267721 1.5644531,0.089844 0.1661757,-0.046156 0.3261877,-0.062676 0.4785156,-0.048828 0.152328,0.013848 0.2837473,0.057004 0.3945313,0.1308594 0.083088,0.055392 0.2354634,0.043316 0.4570313,-0.035156 0.2215677,-0.078471 0.5307588,-0.075276 0.9277343,0.00781 0.3969763,0.083087 0.7480791,0.2576627 1.0527344,0.5253906 1.6986869,0 3.0160774,0.1003401 3.9531255,0.2988282 0.937048,0.1984881 1.8513,0.4790863 2.742187,0.84375 0.890887,0.3646637 1.864811,0.6560951 2.921875,0.8730468 1.057064,0.2169517 2.087463,0.4169231 3.09375,0.6015626 -2.215679,0.193872 -3.847944,0.087848 -4.900391,-0.3183594 C 13.109662,6.8128477 12.074114,6.8039681 11.058594,7.1917121 10.846258,6.9424482 10.683758,6.8662606 10.568359,6.9631965 10.452958,7.0601329 10.357053,7.1871125 10.283203,7.3440559 9.8216035,7.1040244 9.5962388,6.8291086 9.6054688,6.5198371 9.6147009,6.2105651 10.007716,5.9972751 10.783203,5.877259 9.7122917,5.7941709 9.1757812,6.0792094 9.1757812,6.7346809 8.9449813,6.9931773 7.9932561,7.1233527 6.3222656,7.1233527 6.2761055,7.6495759 6.1192905,7.7467201 5.8515625,7.4143684 5.4176589,7.1097131 5.2011719,6.7674897 5.2011719,6.3889777 5.4135077,6.0658582 5.861754,6.001747 6.5449219,6.1956184 6.434138,6.0571386 6.2188949,5.909203 5.9003906,5.752259 5.581887,5.5953157 5.1654291,5.7521306 4.6484375,6.2229621 4.3253178,6.2229621 4.102438,6.1302582 3.9824219,5.9456184 4.1670618,5.8809945 4.2222934,5.8257627 4.1484375,5.7796027 3.7976214,5.6965146 3.428759,5.6235236 3.0410156,5.5588996 2.4686317,5.4758115 2.0159455,5.3126038 1.6835938,5.0725715 1.0650503,4.9433239 0.76473947,4.8461796 0.78320312,4.7815559 1.2817311,4.883108 1.5864817,4.9447328 1.6972656,4.9631965 c 0.110784,0.018464 0.2530365,0.058423 0.4238282,0.1230469 0.1707923,0.064624 0.3885226,0.1319316 0.65625,0.2011719 0.2677279,0.06924 0.6785023,0.1276679 1.2324218,0.1738281 0.1015502,0.00923 0.1345846,0.035872 0.097656,0.082031 -0.036929,0.04616 -0.0039,0.088072 0.097656,0.125 0.1015518,0.036928 0.1701033,0.014729 0.2070313,-0.068359 C 4.4859653,5.4429712 4.3888217,5.3426311 4.1210938,5.3010871 3.8533657,5.2595432 3.6336823,5.2240251 3.4628906,5.1917121 3.292099,5.1594003 3.1384798,5.0590596 3,4.892884 2.8615196,4.7267082 2.7301002,4.7000689 2.6054688,4.8108527 2.4808366,4.9216364 2.3925738,4.9063638 2.3417969,4.767884 2.2910213,4.6294051 2.2103933,4.6072057 2.0996094,4.6995246 1.9888255,4.7918451 1.9094412,4.7696449 1.8632812,4.6311653 1.8171211,4.4926851 1.7308101,4.4507733 1.6015625,4.5061653 1.4723139,4.5615572 1.4050006,4.5494809 1.4003906,4.471009 1.3957745,4.392537 1.3583024,4.329668 1.2890625,4.283509 1.2198226,4.2373488 1.1315584,4.2615022 1.0253906,4.3538215 0.91922272,4.4461418 0.83415505,4.5432853 0.76953125,4.6448371 0.47410749,4.6356056 0.35476459,4.5231891 0.41015625,4.3108527 0.46554853,4.0985168 0.57601194,4.0077667 0.7421875,4.0354621 Z M 0.65625,4.0901496 c -0.0631814,0.00779 -0.0981002,0.037914 -0.1015625,0.089844 -0.004615,0.06924 0.0404929,0.1123958 0.1328125,0.1308593 0.0923203,0.018465 0.16087182,-0.00374 0.20703125,-0.068359 0.0646245,-0.064625 0.009393,-0.1154155 -0.16601563,-0.1523438 -0.027696,-0.00231 -0.0512052,-0.0026 -0.0722656,-5e-7 z m 0.5703125,0.25 c -0.027696,0.1661757 0.00534,0.3032785 0.097656,0.4140625 C 1.1580426,4.7265167 1.0431394,4.6954373 0.97851562,4.658509 1.0246758,4.5477251 1.106547,4.4417014 1.2265625,4.3401496 Z m 2.2480469,0.046875 C 3.3447844,4.3801007 3.2288603,4.4163295 3.125,4.4924934 l 0.041016,0.1386719 c 0.04616,-0.1292486 0.2493275,-0.1622801 0.609375,-0.097656 0.1384805,0.036928 0.2356236,0.059123 0.2910156,0.068359 l 0.013672,-0.095703 C 3.9508306,4.487701 3.7940148,4.454669 3.609375,4.408509 3.563215,4.396969 3.5178844,4.3893326 3.4746094,4.3870246 Z m 0.078125,0.1601563 c -0.073857,0 -0.1931994,0.041912 -0.359375,0.125 v 0.054687 C 3.359535,4.8099568 3.5074705,4.8474333 3.6367188,4.8381965 3.765967,4.8289647 3.9183426,4.7959322 4.09375,4.7405403 L 4.0800781,4.6858527 C 3.803118,4.5843004 3.6265903,4.5379409 3.5527344,4.5471809 Z m 0.029297,0.041016 c 0,0.055392 0.00888,0.1150638 0.027344,0.1796875 L 3.5820312,4.7542121 C 3.5635733,4.7080527 3.5591294,4.6572603 3.5683594,4.6018684 Z m -1.8710937,0.013672 c 0,0.083088 0.037473,0.1846712 0.1113281,0.3046875 C 1.7114817,4.8511639 1.609898,4.8200927 1.5175781,4.8108527 1.5637383,4.7277653 1.6278486,4.6572603 1.7109377,4.6018689 Z m 1.7460937,0.029297 c -0.018463,0.046159 -0.00958,0.081678 0.027344,0.109375 l -0.125,-0.027344 -0.013672,-0.013672 c 0.027695,-0.00923 0.065168,-0.031431 0.111328,-0.068359 z m 0.2636719,0 c 0.055392,0.036928 0.1150636,0.063567 0.1796875,0.082031 -0.1015518,0.018465 -0.1720564,0.031786 -0.2089844,0.041016 0.064624,-0.046159 0.075457,-0.086119 0.029297,-0.123047 z m -1.5097656,0.109375 c -0.027696,0.092319 -0.00106,0.1297917 0.082031,0.1113281 -10e-8,0.064624 0.019712,0.1287356 0.056641,0.1933593 C 2.2111296,5.0175328 2.094273,4.9800596 2.0019531,4.9338996 2.0573454,4.84158 2.1278486,4.7774682 2.2109377,4.7405409 Z M 2.75,4.8792121 C 2.786934,4.9069081 2.800256,4.986292 2.791016,5.1155403 2.6617681,5.0693803 2.5843366,5.036349 2.5566406,5.017884 2.6212652,4.9624916 2.6853761,4.9161401 2.75,4.8792121 Z m 9.984375,4.0722656 c 0.849337,0.7385588 1.154095,1.2763133 0.914063,1.6132803 -0.240032,0.336968 -0.723798,0.401079 -1.453126,0.19336 -0.729328,-0.207721 -1.13566,-0.3347 -1.21875,-0.38086 V 8.9788215 Z m -2.603516,0.027344 V 10.127258 C 9.410764,9.9149235 8.8431749,9.5371805 8.4277344,8.9924934 Z"
     sodipodi:nodetypes="sccccccccssccccscccscccccscsssccscccccccccsscssssccccccccccsccccsccccccscscsssscssscscscsccccccsccccccssscsscssssscssccscscsccccsccccscccccsscccccccccccccccccccccccccccccccccccssccccccc" />
</svg>
