<?xml version="1.0" encoding="UTF-8" standalone="no"?>
<svg
   width="1800"
   height="1273.3828"
   id="svg2441"
   version="1.1"
   xml:space="preserve"
   xmlns="http://www.w3.org/2000/svg"
   xmlns:svg="http://www.w3.org/2000/svg"
   xmlns:rdf="http://www.w3.org/1999/02/22-rdf-syntax-ns#"
   xmlns:cc="http://creativecommons.org/ns#"
   xmlns:dc="http://purl.org/dc/elements/1.1/"><metadata
     id="metadata2448"><rdf:RDF><cc:Work
         rdf:about=""><dc:format>image/svg+xml</dc:format><dc:type
           rdf:resource="http://purl.org/dc/dcmitype/StillImage" /></cc:Work></rdf:RDF></metadata><defs
     id="defs2446" /><path
     id="path2443"
     style="fill:#000000;stroke:none;stroke-width:138.589"
     d="M 181.16805,1.4e-4 C 63.264626,12.94067 2.8728954,61.10985 0,144.50519 c 0,44.57259 19.050757,79.08122 57.153608,103.52382 38.102877,24.4436 134.081182,35.22572 287.931222,32.3529 33.06847,51.76312 30.89803,130.10751 1.07617,237.24547 -44.50849,159.90108 -77.60344,430.18818 110.76941,484.96802 188.36587,54.7777 334.89104,-118.80504 312.59199,-383.17981 -32.38276,-383.92574 -20.67164,-417.9313 115.02918,-417.93129 135.70072,0 165.46342,137.63965 107.18822,416.84968 -52.7034,252.51458 30.369,409.73092 206.8023,420.09732 279.8143,1.8851 228.5055,-415.76545 228.5055,-415.76545 -42.5863,-279.3416 13.3154,-419.01562 78.2792,-419.01562 174.6773,0 199.3442,155.19147 146.6518,465.57111 -52.6929,310.37972 -150.6771,465.93336 -377.3261,466.65546 -226.6492,0.7218 -1036.44112,6.8573 -1092.02107,18.4064 -55.57979,11.5491 -92.752854,51.2487 -111.520094,119.0996 125.595334,-12.9927 989.522464,-19.4881 1254.428564,-19.4881 264.9054,0 387.4326,-196.3363 450.9516,-589.00254 63.5199,-392.66629 -2.6506,-589.00522 -271.1647,-589.00522 -158.7991,0 -262.7046,138.95173 -222.2829,416.8497 13.3218,91.58936 35.7199,409.87742 -84.6679,412.54232 -51.0385,1.1299 -107.7828,-148.1794 -52.8871,-413.62393 57.0232,-275.73263 -33.9285,-413.60214 -272.84862,-413.60214 -238.92017,0 -295.1598,130.72382 -254.43953,409.27026 54.53687,373.05841 -73.62019,400.94531 -125.29765,384.61111 -47.07711,-14.8799 -67.66038,-139.5532 -3.31294,-449.2052 C 515.6133,297.50084 496.05965,194.10835 452.92447,116.46498 409.78937,38.82075 319.20178,0 181.16832,0 Z m 43.13355,62.5453 c 71.89222,0 131.92445,35.94712 180.09188,107.83934 24.79144,31.68016 13.95436,47.45183 -39.89963,47.45183 H 224.3016 c -106.40036,0 -159.601249,-25.16456 -159.601249,-75.48918 C 63.262841,90.58532 116.46271,63.98706 224.3016,62.54544 Z m -36.66571,15.09893 c -41.69759,0 -66.1412,16.53615 -73.32868,49.60686 0,20.13418 16.53626,30.19511 49.60687,30.19511 46.01113,0 69.01587,-14.37907 69.01587,-43.13628 0,-21.56757 -15.09839,-33.79283 -45.29406,-36.66569 z" /></svg>
