<?xml version="1.0" encoding="UTF-8" standalone="no"?>
<svg
   width="1799.9858"
   height="1022.3708"
   id="svg1333"
   version="1.1"
   xmlns="http://www.w3.org/2000/svg"
   xmlns:svg="http://www.w3.org/2000/svg"
   xmlns:rdf="http://www.w3.org/1999/02/22-rdf-syntax-ns#"
   xmlns:cc="http://creativecommons.org/ns#"
   xmlns:dc="http://purl.org/dc/elements/1.1/">
  <metadata
     id="metadata1340">
    <rdf:RDF>
      <cc:Work
         rdf:about="">
        <dc:format>image/svg+xml</dc:format>
        <dc:type
           rdf:resource="http://purl.org/dc/dcmitype/StillImage" />
      </cc:Work>
    </rdf:RDF>
  </metadata>
  <defs
     id="defs1338" />
  <path
     id="path1335"
     style="fill:#000000;stroke:none;stroke-width:93.0229"
     d="M 871.46755,240.59579 C 635.59972,238.9585 639.92346,369.60921 670.66898,524.39438 698.88585,672.6887 806.55697,914.52088 540.75492,870.64147 495.37429,863.1499 524.52561,810.94194 383.93368,774.21976 L 249.1693,0 131.63716,8.354137 197.45573,233.89655 0,321.60854 253.42249,784.89162 C 121.27145,813.10055 104.33157,892.08828 81.715054,923.18686 c -26.802829,36.8549 36.787116,76.5475 112.321716,89.17294 128.4191,21.4644 272.8117,3.1956 407.33838,-7.6215 150.13125,-7.74204 280.32546,-43.82599 206.47579,-438.9341 -30.31735,-162.20291 -31.18783,-204.63359 57.72868,-205.84064 68.10809,-0.92457 121.42023,7.582 99.74005,136.12893 -33.95829,201.34684 -108.11279,552.02111 230.87963,524.77991 158.5228,-12.7388 214.1061,-138.75273 173.4797,-336.2047 -55.1751,-282.13707 -85.4423,-331.879 37.1884,-330.25424 114.4028,1.51575 105.6085,46.32357 81.1054,245.32909 -32.0026,259.91382 48.5209,457.84485 211.6454,402.68655 107.969,-36.50834 168.1959,-119.27706 -28.0725,-76.94164 -52.2716,11.275 -104.7073,-128.2931 -90.3688,-283.28234 17.5903,-195.94285 107.2886,-379.2651 -172.981,-404.95736 -237.4032,-21.76271 -220.3891,138.82604 -178.5023,303.91033 61.3378,255.4845 52.9343,400.80267 -58.5891,387.35612 C 1059.581,915.06773 1017.1685,764.33437 1057.811,519.063 1091.7347,314.33821 1080.4189,242.04624 871.46755,240.59579 Z M 220.76138,276.1522 337.94111,769.00556 295.36322,772.83824 75.147798,341.254 Z m 64.93869,546.55583 c 28.09855,-0.34387 59.37149,6.74926 92.35048,25.10738 76.54146,42.60763 55.36767,76.02029 60.45628,103.22715 -69.71271,14.9328 -268.01256,3.1208 -280.31849,-27.8557 -12.50946,-31.48879 43.21608,-99.44726 127.51173,-100.47883 z m -19.97123,34.66108 c -38.23658,15.56976 -38.23658,30.43113 0,44.5854 l 50.18732,-19.10743 c 0,-7.07709 -16.73028,-15.56997 -50.18732,-25.47797 z" />
</svg>
