<?xml version="1.0" encoding="UTF-8" standalone="no"?>
<svg
   width="18.115845"
   height="8.640625"
   id="svg2441"
   sodipodi:version="0.32"
   inkscape:version="1.2.1 (9c6d41e410, 2022-07-14)"
   sodipodi:docname="US9I86I.svg"
   inkscape:output_extension="org.inkscape.output.svg.inkscape"
   version="1.1"
   xmlns:inkscape="http://www.inkscape.org/namespaces/inkscape"
   xmlns:sodipodi="http://sodipodi.sourceforge.net/DTD/sodipodi-0.dtd"
   xmlns="http://www.w3.org/2000/svg"
   xmlns:svg="http://www.w3.org/2000/svg"
   xmlns:rdf="http://www.w3.org/1999/02/22-rdf-syntax-ns#"
   xmlns:cc="http://creativecommons.org/ns#"
   xmlns:dc="http://purl.org/dc/elements/1.1/">
  <metadata
     id="metadata2448">
    <rdf:RDF>
      <cc:Work
         rdf:about="">
        <dc:format>image/svg+xml</dc:format>
        <dc:type
           rdf:resource="http://purl.org/dc/dcmitype/StillImage" />
      </cc:Work>
    </rdf:RDF>
  </metadata>
  <defs
     id="defs2446">
    <inkscape:perspective
       sodipodi:type="inkscape:persp3d"
       inkscape:vp_x="0 : 4.3203125 : 1"
       inkscape:vp_y="0 : 1000 : 0"
       inkscape:vp_z="18.115845 : 4.3203125 : 1"
       inkscape:persp3d-origin="9.0579224 : 2.8802083 : 1"
       id="perspective2450" />
  </defs>
  <sodipodi:namedview
     inkscape:window-height="1137"
     inkscape:window-width="1920"
     inkscape:pageshadow="2"
     inkscape:pageopacity="0.0"
     guidetolerance="10.0"
     gridtolerance="10.0"
     objecttolerance="10.0"
     borderopacity="1.0"
     bordercolor="#666666"
     pagecolor="#ffffff"
     id="base"
     showgrid="false"
     inkscape:zoom="60.057923"
     inkscape:cx="10.38997"
     inkscape:cy="4.9618766"
     inkscape:window-x="-8"
     inkscape:window-y="-8"
     inkscape:current-layer="svg2441"
     inkscape:showpageshadow="2"
     inkscape:pagecheckerboard="0"
     inkscape:deskcolor="#d1d1d1"
     inkscape:window-maximized="1" />
  <path
     style="fill:#000000;stroke:none"
     d="M 1.015625,5.71875 C 1.171875,5.7291667 1.25,5.8020833 1.25,5.9375 1.25,6.1041667 1.125,6.1927083 0.875,6.203125 0.69791667,6.203125 0.609375,6.145833 0.609375,6.03125 0.6510417,5.8333333 0.78645833,5.7291667 1.015625,5.71875 Z M 16.665484,8.6239744 C 16.467889,8.2509454 16.178962,8.0165419 16.071521,7.6480453 15.96408,7.2795487 15.687667,6.8506438 15.387005,6.7189911 15.086343,6.5873384 14.158854,5.9635417 14.632812,3.953125 15.106771,1.9427083 14.911458,0.9375 14.046875,0.9375 c -0.864583,0 -1.023644,0.5972595 -0.770753,2.7825167 0.176955,1.5290898 -1.370537,3.1763312 -3.012004,3.1586929 C 8.9889182,6.865007 7.9087737,5.7361142 8.289062,3.914062 8.7095536,1.8993866 8.4947917,0.90625 7.515625,0.90625 c -0.9791667,0 -1.2438528,0.2664998 -0.83,3.015625 C 6.9740861,5.8264472 6.2304334,6.9208494 4.421875,6.9375 L 1.96875,6.921875 C 1.0729167,6.9322917 0.52343733,6.872396 0.320312,6.742188 0.11718733,6.6119793 0.01041667,6.4114583 0,6.140625 c 0.01041667,-0.5 0.328125,-0.7916667 0.953125,-0.875 0.78125,0 1.34375,0.1145833 1.6875,0.34375 0.3645833,0.25 0.9583333,0.3541667 1.78125,0.3125 1.28125,0 1.671875,-0.984375 1.171875,-2.953125 C 5.09375,1 5.7057293,0.015625 7.429688,0.015625 9.153646,0.015625 9.809896,1.0104167 9.398438,3 8.9869793,4.9895833 9.5990293,5.8704252 10.302155,5.8756339 11.00528,5.8808419 12.697917,5.002604 12.3125,3.007812 11.927083,1.0130207 12.507813,0.015625 14.054688,0.015625 c 1.546875,0 2.088541,1 1.625,3 -0.463542,2 -0.133914,2.7749793 0.273437,3 0.407351,0.2250207 0.929078,0.913551 1.009382,1.5352912 0.0803,0.6217402 0.226265,1.0958624 -0.297023,1.0730582 z M 3.521875,6.296875 C 2.7168434,6.1883858 2.019198,5.8036428 1.203125,5.625 0.63020833,5.6458333 0.34375,5.8125 0.34375,6.125 0.3541667,6.4375 0.64583333,6.5885417 1.21875,6.578125 L 3.521875,6.5625 c 0.8807982,-0.054964 0.6360206,-0.2703437 0,-0.265625 z"
     id="path2443"
     sodipodi:nodetypes="cssscczzsssssssccsscscssssssszzcccsccc" />
</svg>
