<?xml version="1.0" encoding="UTF-8" standalone="no"?>
<svg
   width="1771.3115"
   height="1568.226"
   version="1.1"
   id="svg142"
   xmlns="http://www.w3.org/2000/svg"
   xmlns:svg="http://www.w3.org/2000/svg">
  <defs
     id="defs146" />
  <path
     style="fill:#000000;stroke:none;stroke-width:100"
     d="m 76.707927,58.971871 c 3.7358,-1.245267 7.7829,0 12.1413,3.7358 4.3584,3.7358 5.292333,8.405533 2.8018,14.0092 -2.490467,5.603667 -6.537533,7.782867 -12.1412,6.5376 -5.603667,-1.245267 -9.650767,-4.358433 -12.1413,-9.3395 -1.245267,-4.981 1.867867,-9.962033 9.3394,-14.9431 z m 255.900793,31.7541 c 8.7168,11.207329 7.47153,16.810999 -3.7358,16.810999 -51.0556,0 -89.96993,4.98107 -116.743,14.9432 -26.77307,9.96207 -50.1217,42.02747 -70.0459,96.1962 -19.92413,54.1688 -29.57487,151.61033 -28.9522,292.3246 0.6226,140.71427 1.55653,257.146 2.8018,349.2952 1.24527,92.14913 158.77053,133.24267 472.5758,123.2806 l -46.6972,-46.6972 c -231.6182,8.7168 -348.67257,-17.43363 -351.1631,-78.4513 -2.49047,-61.01773 21.7921,-150.6764 72.8477,-268.976 31.13147,-67.244 69.11187,-134.488 113.9412,-201.732 44.82933,-67.244 58.8385,-135.1106 42.0275,-203.5998 C 402.65452,115.6312 343.19339,68.933971 241.08212,44.028771 l 3.7358,5.6037 c -21.1694,11.207333 -46.07457,22.414667 -74.7155,33.622 -58.5272,19.924129 -94.328393,21.169399 -107.403593,3.7358 -13.075267,-17.433667 -5.915033,-30.5089 21.4807,-39.2257 21.169393,-3.7358 33.621993,0.3113 37.357793,12.1413 3.73573,11.829933 -1.86793,19.6128 -16.811,23.3486 4.981,-6.226333 8.09413,-11.83 9.3394,-16.811 1.24527,-4.981067 -1.24523,-9.028167 -7.4715,-12.1413 -6.22633,-3.113133 -15.565795,-2.4905 -28.018393,1.8679 -12.4526,4.3584 -17.433633,10.5847 -14.9431,18.6789 2.490533,8.0942 9.9621,13.697867 22.4147,16.811 12.452597,3.113133 39.225663,-2.801867 80.319193,-17.745 l 70.9798,-26.1504 -1.8679,-3.7358 c -47.31987,6.226333 -73.47033,8.094233 -78.4514,5.6037 -18.67887,-13.697867 -41.0935,-16.811033 -67.243893,-9.3395 -19.9242,6.226333 -36.7352,18.0563 -50.433,35.4899 9.962067,28.640999 26.461733,43.272799 49.499,43.895399 23.037263,0.62267 42.027463,-0.9339 56.970593,-4.6697 65.99873,-31.131466 128.2617,-39.225666 186.7889,-24.282599 z m 209.2035,-29.8862 c 3.7358,-1.245267 7.7829,-0.3113 12.1413,2.8019 4.3584,3.113133 5.29233,7.782833 2.8018,14.0091 -2.49053,6.226333 -6.53763,8.716867 -12.1413,7.4716 -5.60367,-1.245267 -9.65073,-3.7358 -12.1412,-7.4716 -1.24527,-6.226267 1.86787,-11.829933 9.3394,-16.811 z m 255.9007,31.7541 c 8.71687,11.207329 7.47163,17.433629 -3.7357,18.678899 -51.05567,-1.24527 -89.97003,3.11313 -116.7431,13.0752 -26.77307,9.96207 -50.12167,42.0275 -70.0458,96.1963 -19.92413,54.16873 -29.5749,151.61023 -28.9523,292.3245 0.62267,140.71433 1.55663,257.4574 2.8019,350.2292 1.24527,92.77174 158.14786,133.55397 470.70778,122.3467 l -41.0935,-46.6972 c -234.10866,8.7168 -352.40825,-17.43363 -354.89878,-78.4513 -2.49053,-61.01773 21.79203,-150.6764 72.8477,-268.976 31.13147,-67.244 69.11187,-134.488 113.9412,-201.732 44.82933,-67.244 58.8385,-135.1106 42.0275,-203.5998 C 867.75882,117.4991 808.29769,70.801871 706.18642,45.896671 l 3.7358,5.6037 c -21.1694,11.207333 -46.69723,22.414667 -76.5835,33.622 -57.28187,19.924129 -92.46043,21.169399 -105.5357,3.7358 -13.0752,-17.433667 -5.91497,-30.5089 21.4807,-39.2257 21.16947,-3.7358 33.62207,0.3113 37.3578,12.1413 3.7358,11.829933 -1.86787,19.6128 -16.811,23.3486 4.98107,-4.981067 8.09423,-10.273433 9.3395,-15.8771 1.24527,-5.603667 -1.24527,-9.962067 -7.4716,-13.0752 -6.22633,-3.113133 -15.56577,-2.4905 -28.0183,1.8679 -12.4526,4.3584 -17.43363,10.5847 -14.9431,18.6789 2.49053,8.0942 9.65077,13.697867 21.4807,16.811 11.82993,3.113133 38.91433,-2.179233 81.2532,-15.8771 l 70.9797,-28.0183 -3.7358,-3.7358 c -44.82927,6.226333 -69.73443,8.094233 -74.7155,5.6037 -19.92413,-14.943133 -42.96143,-18.0563 -69.1119,-9.3395 -19.92413,6.226333 -36.73513,18.0563 -50.433,35.4899 9.96207,28.640999 26.46177,43.272799 49.4991,43.895399 23.03727,0.62267 42.02747,-0.9339 56.9706,-4.6697 65.99873,-31.131466 128.26167,-39.225666 186.7888,-24.282599 z m 214.80728,-31.7541 c 3.736,-1.245267 7.7831,-0.3113 12.1412,2.8019 4.3587,3.113133 5.2927,7.782833 2.802,14.0091 -2.4907,6.226333 -6.5377,8.716867 -12.1412,7.4716 -5.6033,-1.245267 -9.0278,-3.7358 -10.2734,-7.4716 -2.4907,-6.226267 0,-11.829933 7.472,-16.811 z M 1740.9967,1536.4719 c -23.6599,-27.3957 -80.127,-50.7622 -100.0511,-117.3836 -19.9241,-66.6213 8.2132,-161.8658 15.0621,-238.4492 6.8489,-76.5835 -3.1131,-136.9786 -29.8862,-181.18532 -26.773,-44.20667 -117.0543,-65.06474 -270.8438,-62.57421 -153.7895,2.49053 -230.6843,-24.90517 -230.6843,-82.1871 0,-57.28193 25.5278,-145.0727 76.5835,-263.3723 29.8862,-67.244 67.244,-134.488 112.0733,-201.732 44.8293,-67.244 58.8385,-135.1106 42.0275,-203.5998 -16.811,-68.48927 -76.2721,-115.186499 -178.3834,-140.091699 l 3.736,5.6037 c -21.1694,11.207333 -46.6972,22.414667 -76.5834,33.622 -57.2819,19.924129 -92.4605,21.169399 -105.53571,3.7358 -13.07525,-17.433667 -5.91501,-30.5089 21.48071,-39.2257 21.1693,-3.7358 33.6219,0.3113 37.3577,12.1413 3.736,11.829933 -1.8676,19.6128 -16.8109,23.3486 6.226,-4.981067 9.6504,-10.273433 10.2733,-15.8771 0.62,-5.603667 -2.182,-9.962067 -8.406,-13.0752 -6.226,-3.113133 -15.5654,-2.4905 -28.0183,1.8679 -12.4525,4.3584 -17.43351,10.5847 -14.94311,18.6789 2.49051,8.0942 9.65071,13.697867 21.48081,16.811 11.8299,3.113133 39.5369,-2.179233 83.121,-15.8771 l 69.1122,-28.0183 -1.868,-3.7358 c -46.0745,6.226333 -71.6023,8.094233 -76.5834,5.6037 -19.9241,-14.943133 -42.9614,-18.0563 -69.1119,-9.3395 -19.924,6.226333 -36.11241,18.0563 -48.56508,35.4899 9.96213,28.640999 26.15048,43.272799 48.56508,43.895399 22.4147,0.62267 41.0936,-0.9339 56.0367,-4.6697 65.9987,-31.131466 128.2617,-39.225666 186.7888,-24.282599 8.7169,11.207329 8.0942,17.433629 -1.868,18.678899 -52.3009,-1.24527 -91.8379,3.11313 -118.611,13.0752 -26.7731,9.96207 -50.1216,42.0275 -70.0457,96.1963 -19.9242,54.16873 -29.575,151.61023 -28.9524,292.3245 0.62,140.71433 1.554,254.96687 2.802,342.7576 1.2453,87.7908 70.6685,130.75223 208.2696,128.8843 137.6012,-1.86787 224.1467,-2.49047 259.6366,-1.8678 35.4899,0.62267 62.5742,18.99023 81.2531,55.10273 18.6789,36.1125 26.1505,88.7247 22.4148,157.8365 -3.736,69.1119 -28.1376,164.6677 -3.8549,239.3833 24.2825,74.7155 87.9098,92.7896 121.5318,101.5065 z M 292.64297,1018.9756 c -83.72484,-8.7396 -152.27492,-25.25068 -203.793743,-69.95473 -26.610733,-23.09074 -36.4238,-69.42327 -32.688,-135.422 3.735733,-65.99867 3.735733,-175.27013 0,-327.8144 C 52.425427,333.2402 71.726926,220.23294 114.06572,146.76267 87.915259,150.49847 62.076127,145.2061 36.548327,130.88557 11.020527,116.5651 -1.1207396,98.197537 0.12452712,75.782871 -1.1207396,59.594538 6.9734603,45.274071 24.407127,32.821471 40.59546,21.614138 61.453527,12.897338 86.981327,6.6710714 c 25.527793,-6.22633328 45.763263,-8.0942333 60.706393,-5.6037 14.94313,2.4905333 28.01837,8.0942 39.2257,16.8109996 49.81033,-9.9620663 104.2904,-3.113133 163.4402,20.5468 59.1498,23.659867 101.4886,71.290999 127.0164,142.893399 25.52787,71.6024 3.42453,159.08187 -66.31,262.4384 -69.73453,103.35653 -117.677,195.1944 -143.8274,275.5136 -26.15047,80.31913 -26.15047,128.8842 0,145.6952 26.1504,16.81107 111.45063,25.83923 255.9007,27.0845 -3.7358,-16.1884 -4.0471,-49.4991 -0.9339,-99.9321 3.11313,-50.433 2.8018,-151.6103 -0.934,-303.5319 -3.73573,-151.9216 15.5658,-265.24017 57.9046,-339.9557 -26.15047,3.7358 -51.9896,-1.55657 -77.5174,-15.8771 -25.5278,-14.32047 -38.2917,-32.68803 -38.2917,-55.102699 0,-16.188333 8.7168,-30.5088 26.1504,-42.9614 16.18833,-11.207333 37.04643,-19.924167 62.5743,-26.1504996 25.5278,-6.2262666 45.76327,-7.78283328 60.7064,-4.6697 14.94307,3.1131333 28.01827,8.4054996 39.2256,15.8770996 51.05567,-11.2073329 105.84707,-4.981033 164.3742,18.6789 58.5272,23.659867 100.5547,71.602329 126.0825,143.827399 25.52787,72.225 3.42453,160.01577 -66.31,263.3723 -69.73453,103.35647 -117.677,195.1943 -143.8274,275.5135 -26.15047,80.31927 -26.15047,128.8844 0,145.6954 26.1504,16.811 112.6959,25.8391 259.6365,27.0843 -2.49053,-18.6788 -2.17923,-52.9234 0.9339,-102.7338 3.11311,-49.8104 2.80181,-150.6764 -0.9339,-302.598 -3.7358,-151.9216 15.56568,-265.24017 57.90448,-339.9557 -26.1505,3.7358 -51.98961,-1.55657 -77.51728,-15.8771 -25.52787,-14.32047 -38.2918,-32.68803 -38.2918,-55.102699 0,-16.188333 8.7168,-30.5088 26.1504,-42.9614 16.1884,-11.207333 37.35787,-19.924167 63.50828,-26.1504996 26.1504,-6.2262666 46.3859,-7.78283328 60.7064,-4.6697 14.3204,3.1131333 27.7069,8.4054996 40.1595,15.8770996 49.8104,-11.2073329 103.9792,-4.981033 162.5064,18.6789 58.5272,23.659867 100.5547,71.602329 126.0824,143.827399 25.5278,72.225 3.4245,160.01577 -66.31,263.3723 -69.7345,103.35647 -117.677,195.1943 -143.8275,275.5135 -26.1504,80.31927 -25.8404,129.81833 0.93,148.4972 26.7731,18.67887 101.7999,28.64093 225.0806,29.8862 123.2806,1.24527 200.1753,26.15047 230.6841,74.7156 30.5089,48.56513 41.405,113.00723 32.6882,193.32643 -8.7169,80.3193 -39.3448,174.6298 -22.5338,235.6475 16.811,61.0177 70.1649,83.1389 90.7118,113.6477 20.5467,30.5089 11.5186,47.6312 -27.0844,51.367 -39.8483,-4.9813 -109.3906,-26.4799 -139.2768,-111.7799 -29.8863,-85.3003 -10.1544,-177.7429 -10.1544,-230.0438 0,-52.3009 -3.7358,-97.4415 -11.2073,-135.422 -7.4715,-37.9803 -36.0702,-59.3503 -48.4512,-60.6835 -55.1566,-5.9392 -91.3218,3.0509 -126.5912,4.407 -136.2379,5.2384 -159.0068,19.3481 -299.7828,-15.3297 0,0 -113.24663,38.588 -426.99551,-0.3985 0,0 -168.63427,24.1346 -378.41902,0 z"
     id="path140" />
</svg>
