<?xml version="1.0" encoding="UTF-8" standalone="no"?>
<svg
   width="1800"
   height="693.91486"
   id="svg2441"
   version="1.1"
   xmlns="http://www.w3.org/2000/svg"
   xmlns:svg="http://www.w3.org/2000/svg"
   xmlns:rdf="http://www.w3.org/1999/02/22-rdf-syntax-ns#"
   xmlns:cc="http://creativecommons.org/ns#"
   xmlns:dc="http://purl.org/dc/elements/1.1/">
  <metadata
     id="metadata2448">
    <rdf:RDF>
      <cc:Work
         rdf:about="">
        <dc:format>image/svg+xml</dc:format>
        <dc:type
           rdf:resource="http://purl.org/dc/dcmitype/StillImage" />
      </cc:Work>
    </rdf:RDF>
  </metadata>
  <defs
     id="defs2446" />
  <path
     style="fill:#000000;stroke:none;stroke-width:97.8077"
     d="M 1058.2761,0 C 928.73193,0 876.4161,100.52086 905.81258,299.99999 935.20917,499.4792 917.7705,600 852.00193,600 783.24388,598.95833 767.79831,498.95833 807.15973,299.99999 846.52126,101.04167 782.24739,3.125 615.83298,3.125 493.02942,3.125 428.2929,100 465.16316,296.87499 502.03342,493.75 464.36597,593.75 358.73766,593.75 c -36.87027,0 -73.74052,-10.41667 -107.6213,-31.25 -31.88779,-23.95833 -61.44115,-30.94958 -86.69493,-37.5 -24.62377,-3.13145 -44.74455,-3.5028 -71.747535,0 C 31.887789,534.375 0,562.5 0,612.5 c 0,27.08333 9.9649381,49.47914 29.894805,62.5 19.929866,13.0208 72.744025,19.79167 158.442465,18.75 H 358.73766 C 501.05376,698.6365 605.36982,594.79167 570.99077,393.74999 536.61177,192.70833 557.03986,90.625 627.7909,90.625 c 93.67039,0 115.59324,102.08333 71.74753,303.12499 C 655.69272,594.79167 721.53427,692.70833 852.00193,693.75 959.82154,698.6365 1035.8551,594.27086 1004.4654,393.74999 973.07589,193.2292 992.50752,93.75 1058.2761,93.75 c 76.73,0 92.1757,100.5208 50.8212,299.99999 -41.3545,199.47914 32.4953,301.91065 155.4529,300.00001 129.9568,-2.0557 201.2918,-99.4792 170.4004,-300.00001 C 1404.0593,193.22913 1418.0103,93.75 1482.7823,93.75 c 76.73,0 95.1651,97.39586 53.8107,296.87499 -41.3545,199.47921 -7.9717,300.00001 98.6528,300.00001 h 164.4214 c -4.9824,-40.625 -24.9123,-64.06253 -59.7896,-71.875 -34.8772,-7.81253 -70.751,-15.625 -104.6318,-18.75 -37.8667,0 -36.372,-99.47914 2.9895,-300.00001 C 1677.5968,99.4792 1624.2844,0 1482.7823,0 1353.2381,0 1303.9118,99.47919 1333.3083,299.99999 1362.7049,500.52087 1340.2838,600 1264.5502,600 1188.8167,600 1171.378,500 1210.7396,299.99999 1250.1011,100 1199.7782,0 1058.2761,0 Z M 188.33727,656.25 h -71.74753 c -54.807147,1.04167 -82.708958,-12.5 -83.705455,-43.75 -0.996496,-31.25 24.912341,-47.91667 80.715975,-50 36.87026,0 78.22476,11.97914 122.5687,34.375 28.4651,32.00802 218.20503,64.01605 -47.83169,59.375 z M 95.663371,571.875 C 74.737012,572.91667 63.775587,581.25 59.789609,600 c 0,12.5 6.975458,18.75 23.915844,18.75 23.915847,-1.04167 35.873767,-8.33333 35.873767,-25 0,-13.54167 -7.97195,-20.83333 -23.915849,-21.875 z"
     id="path2443" />
</svg>
