<?xml version="1.0" encoding="UTF-8" standalone="no"?>
<svg
   width="18"
   height="13.8"
   id="svg2"
   sodipodi:version="0.32"
   inkscape:version="1.2.1 (9c6d41e410, 2022-07-14)"
   sodipodi:docname="US9I139XT.svg"
   inkscape:output_extension="org.inkscape.output.svg.inkscape"
   version="1.1"
   xmlns:inkscape="http://www.inkscape.org/namespaces/inkscape"
   xmlns:sodipodi="http://sodipodi.sourceforge.net/DTD/sodipodi-0.dtd"
   xmlns="http://www.w3.org/2000/svg"
   xmlns:svg="http://www.w3.org/2000/svg"
   xmlns:rdf="http://www.w3.org/1999/02/22-rdf-syntax-ns#"
   xmlns:cc="http://creativecommons.org/ns#"
   xmlns:dc="http://purl.org/dc/elements/1.1/">
  <metadata
     id="metadata9">
    <rdf:RDF>
      <cc:Work
         rdf:about="">
        <dc:format>image/svg+xml</dc:format>
        <dc:type
           rdf:resource="http://purl.org/dc/dcmitype/StillImage" />
      </cc:Work>
    </rdf:RDF>
  </metadata>
  <defs
     id="defs7">
    <inkscape:perspective
       sodipodi:type="inkscape:persp3d"
       inkscape:vp_x="0 : 4.8112088 : 1"
       inkscape:vp_y="0 : 1000 : 0"
       inkscape:vp_z="19.767664 : 4.8112088 : 1"
       inkscape:persp3d-origin="9.883832 : 1.8149449 : 1"
       id="perspective11" />
  </defs>
  <sodipodi:namedview
     inkscape:window-height="1137"
     inkscape:window-width="1920"
     inkscape:pageshadow="2"
     inkscape:pageopacity="0.0"
     guidetolerance="10.0"
     gridtolerance="10.0"
     objecttolerance="10.0"
     borderopacity="1.0"
     bordercolor="#666666"
     pagecolor="#ffffff"
     id="base"
     showgrid="false"
     inkscape:zoom="23.978948"
     inkscape:cx="8.9453466"
     inkscape:cy="9.0496047"
     inkscape:window-x="-8"
     inkscape:window-y="-8"
     inkscape:current-layer="svg2"
     inkscape:showpageshadow="2"
     inkscape:pagecheckerboard="0"
     inkscape:deskcolor="#d1d1d1"
     inkscape:window-maximized="1" />
  <path
     id="path4"
     style="fill:#000000;stroke:none;stroke-width:0.992137"
     d="M 12.714844 0.052734375 C 12.274176 0.055543122 11.861054 0.075830787 11.476562 0.11328125 C 10.451254 0.21314915 9.5722082 0.34722537 8.8398438 0.51367188 C 8.1074791 0.68011838 7.3768972 1.1557784 6.6445312 1.9414062 C 6.6711632 2.2742993 6.7764708 2.4476222 6.9628906 2.4609375 C 6.1240001 2.647358 5.5255399 3.0394645 5.1660156 3.6386719 C 5.2059629 3.8384077 5.3194389 4.0055147 5.5058594 4.1386719 C 4.7468628 4.2984597 4.226896 4.7173817 3.9472656 5.3964844 C 3.9872129 5.5962208 4.1667511 5.7695438 4.4863281 5.9160156 C 3.5542277 6.1290681 2.8959212 6.6408671 2.5097656 7.453125 C 2.6162915 7.7327547 2.8288605 7.9060776 3.1484375 7.9726562 L 15.152344 7.9726562 L 15.152344 0.18359375 C 14.261854 0.092048008 13.44929 0.04805313 12.714844 0.052734375 z M 12.837891 0.87695312 C 13.369999 0.87414435 13.908845 0.90296993 14.453125 0.96289062 L 14.433594 7.2539062 L 4.3867188 7.2539062 C 4.2668769 7.0142225 4.7930603 6.6737926 5.9648438 6.234375 C 5.6985293 6.0346385 5.4509765 5.7560087 5.2246094 5.3964844 C 5.3444513 4.9836968 6.0439569 4.6432682 7.3222656 4.3769531 C 7.0160039 4.2038493 6.7498046 3.9644648 6.5234375 3.6582031 C 6.683226 3.3918894 7.4157624 3.0864434 8.7207031 2.7402344 C 8.5342826 2.5404986 8.3547445 2.268084 8.1816406 1.921875 C 8.1816406 1.6955072 8.8636547 1.4386315 10.228516 1.1523438 C 11.081555 0.97341395 11.951043 0.88163442 12.837891 0.87695312 z M 0.05078125 8.84375 L 0.05078125 9.3574219 L 6.2246094 9.3847656 C 6.9447045 10.252571 7.9097507 10.888714 9.1191406 11.294922 L 9.1191406 13.724609 L 9.9648438 13.724609 L 9.9648438 11.490234 C 11.10961 11.794889 11.974315 11.684428 12.560547 11.158203 C 13.146777 10.631981 13.185494 10.022476 12.677734 9.3300781 L 17.947266 9.3574219 L 17.947266 8.84375 L 0.05078125 8.84375 z M 11.722656 9.3300781 C 12.571992 10.068637 12.876751 10.606393 12.636719 10.943359 C 12.396687 11.280327 11.912921 11.344438 11.183594 11.136719 C 10.454266 10.928998 10.047933 10.802019 9.9648438 10.755859 L 9.9648438 9.3574219 L 11.722656 9.3300781 z M 9.1191406 9.3574219 L 9.1191406 10.505859 C 8.399046 10.293526 7.8314557 9.9157803 7.4160156 9.3710938 L 9.1191406 9.3574219 z " />
</svg>
