<?xml version="1.0" encoding="UTF-8" standalone="no"?>
<!-- Created with Inkscape (http://www.inkscape.org/) -->

<svg
   width="1798.552"
   height="1692.4911"
   viewBox="0 0 1798.552 1692.4911"
   version="1.1"
   id="svg10448"
   xmlns="http://www.w3.org/2000/svg"
   xmlns:svg="http://www.w3.org/2000/svg">
  <defs
     id="defs10445" />
  <path
     id="path2591"
     style="fill:#000000;stroke:none;stroke-width:97.6634"
     d="M 929.62264,0.47508851 C 1278.8789,10.222949 1530.3501,122.82299 1645.1315,300.43743 c 82.6576,127.90567 121.8199,256.91802 145.9734,521.87821 24.1534,264.96016 -10.4468,477.49776 -103.7976,637.61216 -93.3508,160.1145 -320.8584,234.6168 -682.5218,223.5062 -361.66347,-11.1105 -541.28257,8.4313 -647.14917,7.0862 -101.8309,0.8899 -215.5464,1.1699 -334.541897,1.9708 5.804,-36.0873 126.187797,-34.9377 285.638897,-53.6938 89.701,-10.3561 312.5955,-34.1865 664.74423,-23.2454 352.14874,10.9413 566.69004,-50.2308 643.62284,-183.5157 76.933,-133.2848 102.5878,-331.9909 76.9648,-596.11787 C 1668.4422,571.79146 1612.3275,471.56087 1555.2618,361.29595 1498.1961,251.03102 1176.2288,94.621499 838.37035,103.60703 500.51173,112.59256 398.19753,195.33327 252.87903,314.22325 107.56053,433.11326 60.256733,608.18408 90.681033,869.02613 106.33813,1003.2625 123.73263,1169.3261 215.16623,1192.0002 c 18.4132,6.9611 65.1133,9.0038 83.1989,0.2053 44.5788,-18.518 47.7064,-120.2726 9.0912,-305.84457 -42.8957,-206.14291 7.2298,-309.21465 150.3762,-309.21465 123.0413,0 235.9312,99.5542 200.2651,305.16025 -35.6661,205.60597 4.1657,308.14097 69.2322,307.60417 65.0666,-0.5369 66.2025,-100.9691 40.4859,-308.40937 -26.348,-212.53377 47.78451,-305.73803 182.18664,-307.60415 159.52123,-2.21488 216.16573,101.46126 169.89623,304.38315 -46.2696,202.92177 -50.5865,297.88487 -0.9682,307.63217 76.152,4.2946 131.0973,-6.4419 164.8355,-32.2099 31.8103,-23.6205 83.8637,-35.4308 156.1599,-35.4308 57.8369,8.5893 87.2375,38.6519 88.2014,90.1876 -0.9639,27.9152 -10.8445,48.5832 -29.6414,62.0041 -18.7971,13.4207 -69.6455,19.5942 -152.5451,18.5206 l -227.0103,1.6105 c -125.47668,3.8821 -126.76701,-117.7673 -100.0731,-314.07417 38.2976,-283.3564 13.8037,-310.82515 -76.80757,-310.82515 -68.83069,0 -110.48527,102.36432 -71.57327,310.01985 35.19159,187.80147 -20.08222,310.82517 -138.08593,312.43557 -134.9506,1.818 -208.7638,-101.1929 -171.1698,-308.40937 37.594,-207.21651 -22.6574,-307.57598 -102.6653,-307.57598 -80.0077,0 -98.0819,103.60856 -54.2221,310.82508 36.8162,173.93987 13.7885,274.57817 -68.5966,302.51097 -29.2264,15.1196 -66.5368,10.0787 -82.93,11.6076 C 69.625133,1315.4108 44.808833,1093.5176 11.648133,894.67303 -27.678067,587.61467 32.575033,367.84463 192.40683,235.36547 352.23873,102.88621 481.67503,12.079429 859.26755,0.55359851 c 23.5995,-0.72036 47.07135,-0.72837 70.35509,-0.0785 z M 1416.791,1155.3131 c -75.5187,18.4129 -140.0784,58.069 -214.5753,69.2513 -58.8568,-0.4864 -81.5083,21.7131 0,27.3783 l 213.1294,1.6105 c 53.0172,1.0736 80.0078,-14.4944 80.9718,-46.7043 0,-32.2097 -26.5087,-49.3884 -79.5259,-51.5358 z m 17.3511,9.663 c 21.2069,1.0736 33.7382,11.8102 37.5941,32.2098 0,11.8103 -8.1936,17.7155 -24.5808,17.7155 -23.1348,-1.0737 -34.7022,-10.1999 -34.7022,-27.3784 0,-13.9576 7.2297,-21.4733 21.6889,-22.5469 z" />
</svg>
