<?xml version="1.0" encoding="UTF-8" standalone="no"?>
<svg
   width="1793.3824"
   height="1054.7882"
   id="svg2452"
   version="1.1"
   xmlns="http://www.w3.org/2000/svg"
   xmlns:svg="http://www.w3.org/2000/svg"
   xmlns:rdf="http://www.w3.org/1999/02/22-rdf-syntax-ns#"
   xmlns:cc="http://creativecommons.org/ns#"
   xmlns:dc="http://purl.org/dc/elements/1.1/">
  <metadata
     id="metadata2459">
    <rdf:RDF>
      <cc:Work
         rdf:about="">
        <dc:format>image/svg+xml</dc:format>
        <dc:type
           rdf:resource="http://purl.org/dc/dcmitype/StillImage" />
      </cc:Work>
    </rdf:RDF>
  </metadata>
  <defs
     id="defs2457" />
  <path
     id="path2454"
     style="fill:#000000;stroke:none;stroke-width:100"
     d="M 1483.9365,1.3443164 C 1249.2752,3.5658264 1208.3333,274.41766 1237.5,474.93786 c 29.1667,200.52027 8.3327,300 -56.25,300 -63.5414,0 -70.8333,-100.0006 -25,-300 C 1202.0833,274.93846 1230.2668,1.9276864 986.33911,2.2478164 742.41138,2.5679464 792.9768,295.13263 818.75,474.93786 c 28.7548,200.60606 23.95812,298.95833 -46.875,300 -70.83312,1.04167 -90.62491,-95.83393 -59.375,-293.75 C 743.74991,283.27179 651.01731,3.1512964 397.37219,0.02630637 143.72714,-3.0986836 1.041668,272.85512 0,474.93786 c 0,147.84865 32.34085,264.82273 99.999996,350 0.390374,-0.0615 1.023884,-0.10923 1.425784,-0.16992 10.45668,16.50814 50.20076,48.90541 132.94922,106.41992 21.56304,10.87267 56.22454,26.30025 112.5,43.75 67.18732,20.83327 133.85431,37.50004 196.875,56.25004 63.02062,18.7499 104.68759,27.604 128.125,21.875 23.43747,-5.7292 38.5417,-20.8335 46.875,-46.875 14.5833,-48.95822 -5.20851,-86.45846 -62.5,-112.50004 -74.99978,-23.95827 -114.23515,-26.7363 -153.81836,-14.23633 -40.98062,16.99195 -120.92131,10.60819 -199.30664,-10.76367 -71.98909,-33.90308 -103.98182,-68.71036 -125,-93.75 C 123.3684,710.67055 93.47294,625.6828 90.625,515.56286 81.25003,333.27173 196.33112,66.172186 400.49719,71.901306 604.66326,77.630489 659.02496,358.6566 618.75,562.43786 c -36.25693,183.4511 47.2266,305.20833 150,306.25 144.2673,1.4182 177.7224,-115.44014 156.25,-300 -23.64372,-203.2233 -85.62043,-475.815046 61.33911,-475.815046 146.95959,0 111.57759,274.773976 63.66089,475.815046 -47.9167,201.04107 -1.5627,303.64587 134.375,303.125 123.1688,-0.521 171.5395,-104.75522 156.25,-303.125 -15.6747,-203.36685 -27.5639,-472.275525 143.3115,-476.718539 170.8755,-4.443014 67.626,286.614999 66.0635,511.093539 -1.5625,224.47847 73.1615,321.13971 97.7941,343.19853 33.8477,35.35177 45.375,71.75161 145.5883,105.88231 C 1676.2247,833.07089 1642.1051,823.27243 1643.75,599.93786 1653.125,317.12617 1718.5978,-0.87718363 1483.9365,1.3443164 Z M 286.47461,891.50231 c 1.01154,-0.12371 2.00227,-0.0712 2.93555,0.18946 91.03635,28.7932 151.43732,36.54932 201.21484,26.99609 51.56232,-9.89587 94.79179,-10.41664 131.25,0 54.16652,19.79161 76.04164,45.83342 65.625,75 -9.37497,29.16654 -41.66685,33.33324 -96.875,15.62504 -91.6664,-26.04162 -161.45848,-45.8334 -209.375,-59.37504 -43.50793,-12.29572 -68.83962,-24.63432 -106.33594,-40.36523 -3.61057,-7.67443 4.47975,-17.20431 11.56055,-18.07032 z m 340.67383,41.15039 c -3.0599,-0.0326 -5.79428,0.48831 -8.39844,1.66016 -5.2083,2.34375 -9.89584,8.85419 -12.5,15.625 -4.16667,15.62494 7.29173,26.0417 31.25,34.375 16.66661,5.2083 25,2.0833 28.125,-9.375 2.08333,-19.79161 -7.29173,-33.33336 -28.125,-40.625 -3.90625,-1.04165 -7.29169,-1.62761 -10.35156,-1.66016 z" />
</svg>
