<?xml version="1.0" encoding="UTF-8" standalone="no"?>
<svg
   width="13.5"
   height="12.5"
   version="1.1"
   id="svg4"
   sodipodi:docname="US9I3VARA.svg"
   inkscape:version="1.2.1 (9c6d41e410, 2022-07-14)"
   xmlns:inkscape="http://www.inkscape.org/namespaces/inkscape"
   xmlns:sodipodi="http://sodipodi.sourceforge.net/DTD/sodipodi-0.dtd"
   xmlns="http://www.w3.org/2000/svg"
   xmlns:svg="http://www.w3.org/2000/svg">
  <defs
     id="defs8" />
  <sodipodi:namedview
     id="namedview6"
     pagecolor="#ffffff"
     bordercolor="#000000"
     borderopacity="0.25"
     inkscape:showpageshadow="2"
     inkscape:pageopacity="0.0"
     inkscape:pagecheckerboard="0"
     inkscape:deskcolor="#d1d1d1"
     showgrid="false"
     inkscape:zoom="41.790548"
     inkscape:cx="4.8814866"
     inkscape:cy="3.7089727"
     inkscape:window-width="1920"
     inkscape:window-height="1137"
     inkscape:window-x="-8"
     inkscape:window-y="-8"
     inkscape:window-maximized="1"
     inkscape:current-layer="svg4" />
  <path
     id="path2"
     style="fill:#000000;stroke:none"
     d="M 5.8417969,0.12304688 C 5.696442,0.14072631 5.5750205,0.18175692 5.4785156,0.2265625 5.332683,0.29427089 5.1998697,0.26822835 5.0800781,0.1484375 4.9602872,0.02864598 4.6139302,0.04166726 4.0410156,0.1875 3.4681013,0.33333274 2.947264,0.59635602 2.4785156,0.9765625 2.0097676,1.3567696 1.7753906,2.0156286 1.7753906,2.953125 c 0,0.947913 0.1302095,1.4947921 0.390625,1.640625 0.0625,0.447915 0.2526057,0.8072928 0.5703125,1.078125 C 3.0540356,5.9427072 2.8743462,6.0286451 2.1972656,5.9296875 1.5201851,5.8307292 0.92122188,5.8333337 0.40039062,5.9375 c -0.39583173,0.020833 -0.49999924,0.3593778 -0.3125,1.015625 0.10416627,-0.2604155 0.26041751,-0.2604155 0.46875,0 0.18749928,-0.2499991 0.35416733,-0.2499991 0.49999998,0 C 1.2128902,6.7343758 1.429038,6.6770837 1.7050781,6.78125 c 0.2760408,0.1041663 1.2630277,0.1093746 2.9609375,0.015625 0.2604158,0 0.3854167,-0.3125024 0.375,-0.9375 1.7916595,0.03125 2.7916675,-0.041667 3,-0.21875 0.0625,0.0625 0.184897,0.1510421 0.3671875,0.265625 C 8.5904943,6.0208329 8.4055969,6.1145837 7.8535156,6.1875 7.0722688,5.9687508 6.504556,5.8906254 6.1503906,5.953125 c -0.4062484,0.010417 -0.5104158,0.3437528 -0.3125,1 0.1041663,-0.1979159 0.2604175,-0.1979159 0.46875,0 0.1874992,-0.1770826 0.3489591,-0.1770826 0.484375,0 C 6.9680982,6.7343758 7.4550817,6.7135424 8.2519531,6.890625 9.0488253,7.0677076 9.6191422,6.791663 9.9628906,6.0625 10.162916,6.102505 10.365489,6.115124 10.570312,6.103516 10.872935,6.5820266 10.820785,7.0770482 10.412109,7.587891 9.9363256,8.182619 8.7278084,8.8752577 6.7871094,9.6640625 5.4473976,10.565549 4.7532046,11.247669 4.703125,11.710938 c -0.087647,0.338055 0.036939,0.493786 0.375,0.46875 0.8388838,-0.250415 1.8881592,-0.603545 3.1464844,-1.060547 1.2583258,-0.457006 2.3438026,-1.002472 3.2578126,-1.634766 0.914009,-0.6322936 1.497632,-1.6208271 1.748047,-2.9667969 0.02489,-0.1337819 0.04103,-0.2626129 0.05859,-0.3886719 C 13.374804,5.1741271 13.280104,4.408045 12.554688,3.9375 11.324794,3.1397241 9.6723124,2.8410354 8.2753906,2.8359375 6.8483132,2.8307288 5.8430966,2.9843762 5.2597656,3.296875 4.7389343,3.2760417 4.5305994,3.1354155 4.6347656,2.875 5.062968,2.9253708 5.7692179,2.8643195 5.9453125,2.8554688 7.310063,2.7302615 8.5306421,2.4912042 9.6074219,2.140625 10.070688,2.1656663 10.290667,2.0149912 10.265625,1.6894531 l -0.244141,-0.037109 0.357422,-0.28125 c 0.05008,-0.3130174 0.05008,-0.55207482 0,-0.7148438 0,-0.63855542 -0.4640936,-0.80129863 -1.3906248,-0.48828125 -0.6009926,-0.0626028 -1.3905744,-0.0626028 -2.3671874,0 -0.3418459,-0.2727306 -0.519169,-0.07656107 -0.7792969,-0.0449222 z m 0.7539062,0.42187497 c 0.00257,0.001511 0.00524,0.00238 0.00781,0.003906 l 0.00195,0.001953 c 0,0 0.2851169,0.0718619 0.2949275,0.060547 0.7779429,-0.0345051 1.4868389,0.005064 2.125,0.12109376 0.2159821,-0.0845146 0.3939103,-0.1320171 0.5332032,-0.140625 0.4178784,-0.025824 0.4910752,0.28992941 0.21875,0.94726559 L 9.5136719,0.93945312 9.2324219,1.859375 9.0253906,1.0507812 8.6503906,1.953125 8.5,1.1835938 8.0859375,2.046875 7.9921875,1.3515625 7.6738281,2.1035156 7.5605469,1.4648438 7.2226562,2.2167969 6.9589844,1.7460938 C 6.7925633,1.9354694 6.6305486,2.0791013 6.4707031,2.1777344 6.2899504,2.2670321 6.0578359,2.3352439 5.9179715,2.3763675 5.7154748,2.4359065 4.7440843,2.4212163 4.3769531,2.375 3.8196641,2.1979174 3.5253906,1.8281226 3.4941406,1.265625 3.2753914,1.8489559 3.4837267,2.3333349 4.1191406,2.71875 3.9941411,3.4270805 4.3743525,3.7708333 5.2597656,3.75 6.8430926,3.3541683 8.2259166,3.2447924 9.4082031,3.421875 10.211902,3.542253 11.70536,3.8357735 12.246094,4.3691406 c 0.627938,0.6193849 0.480026,1.1423568 0.488281,1.6035156 0.0059,0.330714 -0.179452,0.7310465 -0.3125,1.1367188 C 12.200886,7.7831827 11.541712,8.7952974 10.646484,9.2773438 9.7512582,9.7593897 8.9324782,10.14211 8.1875,10.423828 7.4425218,10.705543 6.4866892,11.077748 5.3222656,11.541016 5.9107382,10.802292 7.0690258,10.101096 8.796875,9.4375 10.011379,8.899111 10.773321,8.3832359 11.080078,7.8886719 11.386841,7.3941059 11.524832,7.0917959 11.453125,6.5996094 11.362371,5.9766937 11.313524,5.6440521 10.859375,5.4882812 10.611568,5.4032849 10.186023,5.5021828 9.9296875,5.5742188 9.7640233,5.2963366 9.6132459,5.2088614 9.4785156,5.3125 9.3430997,5.4166663 9.2389322,5.5572924 9.1660156,5.734375 8.6451843,5.4739595 8.3873701,5.1666651 8.3925781,4.8125 8.3977868,4.4583349 8.8378942,4.2187496 9.7128906,4.09375 8.5149788,4.0000004 7.9160156,4.3229195 7.9160156,5.0625 7.6868501,5.3229155 6.6295497,5.453125 4.7441406,5.453125 4.6608077,6.0677059 4.2962215,6.1874984 3.6503906,5.8125 3.087893,5.4166683 2.7597652,4.984373 2.6660156,4.515625 3.1764303,4.015627 3.8222688,3.8750008 4.6035156,4.09375 4.478516,3.9375008 4.2207019,3.8151041 3.8300781,3.7265625 3.439455,3.6380216 2.9785136,3.7864599 2.4472656,4.171875 c -0.1249995,-0.1458329 -0.1875,-0.6041698 -0.1875,-1.375 0,-0.7708302 0.1875016,-1.2916678 0.5625,-1.5625 C 3.1972644,0.96354275 3.6087259,0.76302065 4.0566406,0.6328125 4.3365874,0.55143282 4.5786135,0.51342786 4.78125,0.51953125 c 0.1215819,0.003662 0.228516,0.0234376 0.3222656,0.0585938 0.031391,0.001472 0.048177,0.0403646 0.072266,0.0605469 0.051038,0.0517903 0.4003912,0.0235775 0.4698067,0.0283664 0.054245,-0.13988793 0.3672048,-0.2393067 0.4828456,-0.25030104 0.1862289,-0.0177054 0.3112988,0.10840555 0.4672692,0.1281845 z"
     sodipodi:nodetypes="sssscscssccccscccscccccsccsccccsscssccccccccccscccccscccccccccccccsccccsscssccccsscscsccccccscsssscccsc" />
  <g
     id="g265"
     transform="translate(-21.283168,-6.6509616)" />
  <g
     id="g433"
     transform="matrix(-1,0,0,1,43.549589,-2.9569851)" />
  <path
     d="M 6.7228486,0.84351513 C 6.2595813,0.5054558 5.8776989,0.59936146 5.5772016,1.1252321 c 0.313018,-0.050083 0.5008287,-0.00626 0.563432,0.131467 0.1627693,0.1126867 0.306758,0.093906 0.431966,-0.056343 -0.025042,-0.1502487 0.025041,-0.26919564 0.150249,-0.35684097 z"
     style="fill:#000000;stroke:none"
     id="path474" />
</svg>
