<?xml version="1.0" encoding="UTF-8" standalone="no"?>
<svg
   width="1797.577"
   height="857.54736"
   id="svg2"
   version="1.0"
   xmlns="http://www.w3.org/2000/svg"
   xmlns:svg="http://www.w3.org/2000/svg"
   xmlns:rdf="http://www.w3.org/1999/02/22-rdf-syntax-ns#"
   xmlns:cc="http://creativecommons.org/ns#"
   xmlns:dc="http://purl.org/dc/elements/1.1/">
  <metadata
     id="metadata9">
    <rdf:RDF>
      <cc:Work
         rdf:about="">
        <dc:format>image/svg+xml</dc:format>
        <dc:type
           rdf:resource="http://purl.org/dc/dcmitype/StillImage" />
      </cc:Work>
    </rdf:RDF>
  </metadata>
  <defs
     id="defs7">
    <clipPath
       clipPathUnits="userSpaceOnUse"
       id="clipEmfPath1">
      <path
         d="M 0,0 H 312.11629 V 181.55784 H 0 Z"
         id="path1" />
    </clipPath>
    <pattern
       id="EMFhbasepattern"
       patternUnits="userSpaceOnUse"
       width="6"
       height="6"
       x="0"
       y="0" />
  </defs>
  <path
     style="color:#000000;fill:#000000;stroke-linecap:square;stroke-linejoin:bevel;-inkscape-stroke:none"
     d="M 1354.4766,0.07421875 C 1285.3912,5.2152209 1203.2396,-2.1443342 1153.5606,56.04078 1099.9347,90.631359 1033.5627,103.83591 970.42396,94.247578 906.67691,83.550359 826.59925,183.1612 889.99219,229.22266 c 88.86889,40.50446 188.98641,42.85919 285.02151,42.30859 55.7433,40.5903 127.29,37.04282 184.7812,2.55273 48.6133,-15.70185 59.9177,-82.60353 114.2462,-42.07294 92.5435,32.64487 149.5511,157.1224 87.6701,241.55652 -73.9875,107.25822 -211.8079,143.56223 -335.8531,143.05344 -250.0848,8.34708 -500.58909,12.5588 -750.73573,6.38533 C 327.19393,615.95396 179.30739,608.05424 31.417969,600.23437 8.7666518,614.51557 -1.2007886,634.49351 3.6495882,661.12661 L 0,831.36328 c 14.996515,22.18306 35.282946,31.50491 61.746171,25.80929 360.835459,-4.55897 722.575059,-5.87705 1082.632429,-12.70055 169.1329,-6.11285 352.6552,-34.09335 479.7781,-156.40553 89.3642,-77.18668 162.6231,-181.08719 171.5124,-302.01718 C 1814.1578,235.72738 1725.5982,63.091689 1568.7622,31.493424 1495.31,27.726379 1427.3001,2.2200163 1354.4766,0.07421875 Z m -16.418,52.05664025 c 77.3305,1.522786 150.8459,25.175362 228.0861,31.291692 138.009,33.916439 201.3686,198.320049 173.4879,327.930149 -21.1913,125.47295 -117.4708,221.30934 -217.778,291.22168 -154.4254,94.16824 -342.8915,90.01464 -517.7388,93.48151 C 686.6866,799.37059 369.25736,802.6853 51.828125,806 l 3.285156,-153.17773 c 244.890069,12.45566 489.748279,30.1291 735.120169,23.7193 186.13514,-3.74311 373.37975,2.49466 558.50345,-19.50555 126.1777,-23.05295 263.5385,-103.9942 288.5073,-239.36799 16.6025,-117.44901 -79.1568,-229.66408 -193.0786,-249.26521 -62.5169,-11.88112 -64.0611,46.15072 -107.2242,59.77687 -57.5913,48.17573 -112.8198,0.31518 -170.4109,-7.96119 -83.8793,0.28391 -170.20138,-2.22746 -248.86839,-34.57788 29.40365,-79.61373 125.21929,-10.41097 183.36289,-50.84033 76.1767,-12.89175 119.7558,-93.059246 203.2488,-80.945624 11.2427,-0.880127 22.5059,-1.573618 33.7848,-1.723807 z"
     id="path2" />
</svg>
