<?xml version="1.0" encoding="UTF-8" standalone="no"?>
<svg
   width="17.539083"
   height="8.16"
   version="1.1"
   id="svg4"
   sodipodi:docname="US9I24C.svg"
   inkscape:version="1.2.1 (9c6d41e410, 2022-07-14)"
   xmlns:inkscape="http://www.inkscape.org/namespaces/inkscape"
   xmlns:sodipodi="http://sodipodi.sourceforge.net/DTD/sodipodi-0.dtd"
   xmlns="http://www.w3.org/2000/svg"
   xmlns:svg="http://www.w3.org/2000/svg">
  <defs
     id="defs8" />
  <sodipodi:namedview
     id="namedview6"
     pagecolor="#ffffff"
     bordercolor="#000000"
     borderopacity="0.25"
     inkscape:showpageshadow="2"
     inkscape:pageopacity="0.0"
     inkscape:pagecheckerboard="0"
     inkscape:deskcolor="#d1d1d1"
     showgrid="false"
     inkscape:zoom="81.802551"
     inkscape:cx="8.3615975"
     inkscape:cy="4.0952268"
     inkscape:window-width="1920"
     inkscape:window-height="1137"
     inkscape:window-x="-8"
     inkscape:window-y="-8"
     inkscape:window-maximized="1"
     inkscape:current-layer="svg4" />
  <path
     style="fill:#000000;stroke:none"
     d="m 16.064386,4.758361 c 0,0.183518 -0.557108,0.2883857 -1.671325,0.314603 C 13.685205,5.138506 12.708627,5.0991807 11.463326,4.954988 10.218024,4.8107953 8.9202887,4.922217 7.57012,5.289253 5.5776387,5.6300723 4.312675,5.6038553 3.775229,5.210602 2.9625057,4.6207227 2.156337,4.4306507 1.356723,4.640386 0.583325,4.5748433 0.196626,4.3192287 0.196626,3.873542 c 0,-0.4587953 0.22939767,-0.812723 0.688193,-1.061783 0.4587953,-0.24906 0.930699,-0.2982167 1.415711,-0.14747 0.485012,0.1507473 0.9765783,0.3637593 1.474699,0.639036 1.0093493,0.537446 2.2153253,0.629205 3.617928,0.275277 1.83518,-0.380144 3.234505,-0.3735897 4.197975,0.019663 0.96347,0.3932533 2.02853,0.58988 3.195181,0.58988 0.550554,0.1048673 0.976578,0.2949393 1.278073,0.570216 z M 0.845494,3.676916 c -0.0262167,0.24906 0.085205,0.3866983 0.334265,0.412915 0.91759,-0.24906 1.7827467,-0.1048673 2.59547,0.432578 0.799614,0.3801453 1.6549393,0.51123 2.565976,0.393254 0.911036,-0.117976 1.7237587,-0.2457833 2.438168,-0.383422 0.71441,-0.1376387 1.491085,-0.1376387 2.330025,0 0.838939,0.1376387 1.559903,0.206458 2.162891,0.206458 0.629205,0 1.264964,-0.032771 1.907277,-0.098313 C 14.183325,4.5748433 13.455807,4.512578 12.997012,4.45359 12.538217,4.394602 11.961446,4.2504093 11.266699,4.021012 10.571952,3.7916147 9.7985543,3.7359037 8.946507,3.853879 8.0944583,3.971855 7.281735,4.1094937 6.508337,4.266795 5.5645303,4.4372043 4.6534943,4.30612 3.775229,3.873542 2.9100723,3.3492047 2.2415423,3.0968673 1.769639,3.11653 1.297735,3.1361927 0.98968667,3.322988 0.845494,3.676916 Z m 8.7195,-3.68914056 0.012225,0.77641623 L 16.831228,0.727518 V 7.452145 L 9.5662456,7.4500477 9.5763727,8.16 l 7.9627103,0 V 0 Z"
     id="path2"
     sodipodi:nodetypes="ccscccsssccscccccsssscsssccscccccccccc" />
</svg>
