<?xml version="1.0" encoding="UTF-8" standalone="no"?>
<svg
   width="17.953833"
   height="13.92"
   version="1.1"
   id="svg721"
   sodipodi:docname="US9I53VARA.svg"
   inkscape:version="1.2.1 (9c6d41e410, 2022-07-14)"
   xmlns:inkscape="http://www.inkscape.org/namespaces/inkscape"
   xmlns:sodipodi="http://sodipodi.sourceforge.net/DTD/sodipodi-0.dtd"
   xmlns="http://www.w3.org/2000/svg"
   xmlns:svg="http://www.w3.org/2000/svg">
  <defs
     id="defs725" />
  <sodipodi:namedview
     id="namedview723"
     pagecolor="#ffffff"
     bordercolor="#000000"
     borderopacity="0.25"
     inkscape:showpageshadow="2"
     inkscape:pageopacity="0.0"
     inkscape:pagecheckerboard="0"
     inkscape:deskcolor="#d1d1d1"
     showgrid="false"
     inkscape:zoom="13.46"
     inkscape:cx="10.2526"
     inkscape:cy="8.6181278"
     inkscape:window-width="1920"
     inkscape:window-height="1017"
     inkscape:window-x="1072"
     inkscape:window-y="-8"
     inkscape:window-maximized="1"
     inkscape:current-layer="svg721" />
  <path
     id="path719"
     style="fill:#000000;stroke:none"
     d="M 1.3203125,0 C 1.1918614,-0.00275237 1.0350643,0.01845954 0.8515625,0.0625 0.60689341,0.12122061 0.40658784,0.20289231 0.25,0.31054688 0.07383818,0.43777475 -0.00978666,0.58557862 0,0.75195312 -0.00978666,0.9770489 0.10981258,1.1637457 0.359375,1.3105469 0.60893742,1.4573487 0.85689341,1.5059652 1.1015625,1.4570312 0.69051824,2.2008252 0.50382146,3.3307085 0.54296875,4.8476562 c 0.0391467,1.5169478 0.0391467,2.6050184 0,3.265625 C 0.50382146,8.7738879 0.6389826,9.2542387 0.94726562,9.5527344 1.2555486,9.8512308 1.3723465,9.9199727 1.6953125,9.9980469 l -1.5,-0.037109 -0.0273438,2.0703121 3.3644847,0.0059 c 0.7597802,1.034594 1.0036395,1.890367 2.404261,1.873047 l -0.013672,-1.868599 3.1024707,0.02539 c 0.7597801,1.066925 1.1398069,1.857679 2.4688369,1.858834 l -0.01899,-1.865234 2.370344,0.0059 1.696429,0.0039 c 0.824443,1.115422 1.185883,1.864621 2.410993,1.84961 V 9.8691406 h -0.35156 C 17.112225,9.3993764 16.805929,8.8509627 16.683594,8.2246094 16.561259,7.5982567 16.63808,6.6881254 16.912109,5.4941406 17.186139,4.3001558 16.641611,3.703125 15.28125,3.703125 c -1.05697,0 -1.583984,0.8653993 -1.583984,2.5976562 0,1.7224696 -0.28393,2.5839844 -0.851563,2.5839844 -0.567632,0 -0.979918,-0.080706 -1.234375,-0.2421875 -0.254456,-0.1614818 -0.254456,-0.6457171 0,-1.453125 C 11.865785,6.3820452 12.326688,5.4651097 12.992188,4.4375 13.657683,3.4098897 13.867717,2.538652 13.623047,1.8242188 13.378378,1.1097848 12.974849,0.63235389 12.412109,0.39257812 11.849371,0.15280306 11.323323,0.08570548 10.833984,0.19335938 10.726329,0.11506545 10.600892,0.0625631 10.458984,0.03320312 10.317077,0.00384248 10.12261,0.01745126 9.8730469,0.07617187 9.6234844,0.13489249 9.4202597,0.22435566 9.2636719,0.34179688 c -0.1663749,0.11744121 -0.25,0.2632913 -0.25,0.43945312 0,0.21530845 0.122519,0.3961676 0.3671875,0.5429688 0.244669,0.1468018 0.4935904,0.1954183 0.7480466,0.1464843 C 9.717862,2.2144971 9.5331184,3.3463335 9.5722656,4.8632812 9.6114123,6.380229 9.612379,7.3875932 9.578125,7.8867188 9.5438717,8.385843 9.5370673,8.728114 9.5566406,8.9140625 8.1473473,8.8944892 7.3179218,8.8040593 7.0683594,8.6425781 6.8187963,8.4810963 6.8187963,7.996861 7.0683594,7.1894531 7.3179218,6.3820452 7.7788261,5.4651097 8.4492188,4.4375 9.1196121,3.4098897 9.3325597,2.538652 9.0878906,1.8242188 8.8432222,1.1097848 8.4367734,0.63235389 7.8691406,0.39257812 7.3015085,0.15280303 6.7764265,0.08570548 6.296875,0.19335938 6.1892211,0.11506545 6.0657367,0.0625631 5.9238281,0.03320312 5.7819203,0.00384248 5.5855,0.01745126 5.3359375,0.07617187 5.086375,0.13489249 4.8831503,0.22435566 4.7265625,0.34179688 c -0.1761618,0.11744121 -0.2597867,0.2632913 -0.25,0.43945312 0,0.21530845 0.1225184,0.3961676 0.3671875,0.5429688 0.2446691,0.1468018 0.4897059,0.1954183 0.734375,0.1464843 -0.4110443,0.743794 -0.5957879,1.8756304 -0.5566406,3.3925781 0.039147,1.5169478 0.045951,2.5272319 0.021484,3.03125 C 5.0185015,8.39855 5.0214206,8.732063 5.0507812,8.8984375 3.6610613,8.8788642 2.8384401,8.7874689 2.5839844,8.6210938 2.3295286,8.4547192 2.3295286,7.9704832 2.5839844,7.1679688 2.8384401,6.3654543 3.2973913,5.4465662 3.9628906,4.4140625 4.628391,3.3815595 4.8403722,2.5093559 4.5957031,1.7949219 4.3510341,1.0804886 3.9455512,0.60597619 3.3828125,0.37109375 2.8200738,0.13621131 2.299864,0.07203294 1.8203125,0.1796875 1.7126586,0.09160692 1.586255,0.03423293 1.4394531,0.00976563 1.4027528,0.00364896 1.3631295,9.1745783e-4 1.3203125,0 Z M 1.0507812,0.36132812 c 0.1779967,-0.0165153 0.3371012,0.0305236 0.4765626,0.140625 0.048934,0.009787 0.297856,-0.013545 0.7480468,-0.0722656 l 0.015625,0.0429687 -0.6757812,0.27929687 C 1.2041908,0.88896766 0.93970684,0.94342247 0.82226562,0.9140625 0.70482441,0.88470253 0.63676081,0.82732854 0.6171875,0.74414062 0.59761352,0.66095338 0.64623066,0.59969417 0.76367188,0.56054688 0.88111309,0.52140024 0.97154231,0.51751503 1.0351562,0.546875 c 0.063614,0.0293606 0.089865,0.0711734 0.080078,0.125 C 1.1054442,0.7257023 1.0723922,0.77723792 1.0136717,0.82617188 1.160473,0.78702458 1.2129748,0.7072843 1.1738281,0.58984375 1.1346809,0.47240254 1.0180007,0.43350962 0.82226562,0.47265625 0.5482359,0.56073749 0.47433463,0.6900603 0.6015625,0.86132812 0.72879037,1.0325967 1.0710608,1.021907 1.6289062,0.82617188 1.9127227,0.71851731 2.1577595,0.60572246 2.3632812,0.48828125 L 2.3203125,0.44335938 C 3.3185622,0.68802846 3.8971126,1.1498981 4.0585938,1.8300781 4.2200756,2.5102581 4.0839484,3.1870292 3.6484375,3.8574219 3.2129266,4.5278152 2.8482905,5.1997134 2.5546875,5.875 2.0653493,7.0494115 1.8271162,7.9400956 1.8417969,8.546875 1.8564769,9.1536537 2.9892793,9.4181377 5.2402344,9.3398438 L 5.6660156,9.7949219 C 2.6516926,9.9025765 1.1377269,9.4961277 1.1230469,8.5761719 1.1083669,7.6562161 1.09864,6.4942436 1.09375,5.0898438 1.0888567,3.6854432 1.1822051,2.7140534 1.3730469,2.1757812 1.5638887,1.6375098 1.7894791,1.3176049 2.0488281,1.2148438 2.3081772,1.1120829 2.6864221,1.0644288 3.1855469,1.0742188 3.2834148,1.0644321 3.2892528,1.0060921 3.2011719,0.8984375 2.6433264,0.75163632 2.0462956,0.82942347 1.4101562,1.1328125 1.2731417,1.1817465 1.0903301,1.2011929 0.86523438,1.1914062 0.64013927,1.1816196 0.48456562,1.0357695 0.39648438,0.75195312 0.52371225,0.5757913 0.67928589,0.45911057 0.86523438,0.40039062 0.92884831,0.38081698 0.99144902,0.36683324 1.0507812,0.36132812 Z m 4.4921876,0.015625 c 0.1779966,-0.0165153 0.3371011,0.0305236 0.4765624,0.140625 0.039147,0.0195733 0.2822311,-0.005711 0.7324219,-0.0742187 L 6.7675781,0.50195312 6.0917969,0.765625 C 5.69054,0.90264016 5.4318943,0.95709505 5.3144531,0.92773438 5.1970122,0.8983744 5.1260295,0.84391962 5.1015625,0.765625 c -0.024467,-0.0782939 0.02415,-0.1376 0.1464844,-0.18164062 0.1223346,-0.04404 0.2127637,-0.0527975 0.2714843,-0.0234375 0.058721,0.0293606 0.084005,0.0711727 0.074219,0.125 -0.00979,0.0538266 -0.038957,0.10536292 -0.087891,0.15429687 C 5.6526605,0.80069712 5.7051623,0.72290996 5.6660156,0.60546875 5.6268684,0.48802754 5.5043499,0.45301917 5.2988281,0.50195312 5.0345851,0.58024705 4.9665214,0.70568463 5.09375,0.87695312 5.2209772,1.048221 5.5632483,1.0414173 6.1210938,0.85546875 6.4049102,0.7380282 6.6460618,0.61939434 6.8417969,0.50195312 L 6.796875,0.45898438 C 7.7951247,0.70365346 8.3756282,1.1655231 8.5371094,1.8457031 8.6985912,2.5258831 8.5605109,3.2007004 8.125,3.8710938 7.6894891,4.5414864 7.324853,5.2153384 7.03125,5.890625 6.5419118,7.0650365 6.3065986,7.9566867 6.3261719,8.5683594 6.3457459,9.1800315 7.4873051,9.4415962 9.7480469,9.3535156 L 10.144531,9.8242188 C 7.1302083,9.9318733 5.6172119,9.5225053 5.6074219,8.5976562 5.5976349,7.6728072 5.587915,6.5108347 5.578125,5.1113281 5.5683377,3.7118208 5.6616861,2.7404304 5.8574219,2.1972656 6.053157,1.6541002 6.2787474,1.334196 6.5332031,1.2363281 6.7876589,1.1384609 7.1629846,1.0937289 7.6621094,1.1035156 7.7697633,1.0937289 7.78144,1.0315037 7.6933594,0.9140625 7.1355139,0.77704797 6.5326448,0.85871968 5.8867188,1.1621094 5.7497042,1.201256 5.571765,1.219737 5.3515625,1.2148438 5.1313607,1.2099505 4.9709148,1.0650657 4.8730469,0.78125 5.0002747,0.59530152 5.1616868,0.47278311 5.3574219,0.4140625 5.4210358,0.39448885 5.4836365,0.38245824 5.5429688,0.37695312 Z m 4.5351562,0 c 0.177997,-0.0165153 0.337101,0.0305236 0.476563,0.140625 0.04893,0.0195733 0.29397,-0.005711 0.734374,-0.0742187 l 0.0293,0.0585937 L 10.642578,0.765625 C 10.231534,0.90264016 9.96705,0.95709505 9.8496094,0.92773438 9.7321675,0.8983744 9.6611857,0.84391962 9.6367188,0.765625 9.6122515,0.68733108 9.6628211,0.62802503 9.7851562,0.58398438 c 0.1223346,-0.04404 0.2127645,-0.0527975 0.2714848,-0.0234375 0.05872,0.0293607 0.08207,0.0711728 0.07226,0.125 -0.0098,0.0538266 -0.03896,0.10536292 -0.08789,0.15429687 0.146801,-0.0391466 0.201259,-0.11693379 0.162109,-0.234375 C 10.16398,0.48802757 10.04146,0.45301917 9.8359375,0.50195312 9.5716951,0.58024702 9.5036315,0.70568463 9.6308594,0.87695312 9.7580872,1.048221 10.100358,1.0414173 10.658203,0.85546875 10.942019,0.7380282 11.181218,0.61939434 11.376953,0.50195312 l -0.0293,-0.0429687 c 0.988463,0.24466908 1.566047,0.70653868 1.732422,1.38671868 0.166375,0.68018 0.03121,1.3549973 -0.404297,2.0253907 -0.43551,0.6703926 -0.800147,1.3442446 -1.09375,2.0195312 -0.499124,1.1744115 -0.735404,2.0106408 -0.710937,2.5097656 0.02447,0.4991248 0.412435,0.8054209 1.166015,0.9179688 0.753581,0.1125472 1.289353,-0.048864 1.607422,-0.484375 0.318071,-0.4355109 0.478516,-1.3446768 0.478516,-2.7246094 0,-1.3799333 0.385049,-2.0683594 1.158203,-2.0683594 1.135264,0 1.566998,0.5396569 1.292969,1.6210938 C 16.300187,6.7435463 16.223365,7.6692395 16.3457,8.4375 16.468034,9.2057612 16.780168,9.6929157 17.279294,9.8984375 16.496353,9.683129 16.07046,9.1930547 16.00195,8.4296875 15.93344,7.6663196 16.00835,6.7882782 16.228513,5.7949219 16.448714,4.8015656 16.132693,4.3046875 15.281247,4.3046875 c -0.244669,0 -0.442055,0.1419648 -0.59375,0.4257813 -0.151692,0.2838157 -0.210031,1.2007513 -0.175781,2.7519531 0.03425,1.5512017 -0.682376,2.3320069 -2.150391,2.3417969 -1.468013,0.00979 -2.206997,-0.4229131 -2.216797,-1.2988282 -0.0098,-0.8759158 -0.01854,-2.0145559 -0.02344,-3.4140625 -0.0049,-1.3995073 0.08846,-2.3708977 0.279297,-2.9140625 0.190841,-0.5431654 0.413513,-0.8630696 0.667968,-0.9609375 0.254456,-0.097867 0.631735,-0.1426025 1.13086,-0.1328125 0.10765,-0.00979 0.117377,-0.072012 0.0293,-0.18945306 C 11.67067,0.77704797 11.073639,0.85871968 10.4375,1.1621094 10.300485,1.2012563 10.119627,1.2197337 9.8945312,1.2148438 9.6694362,1.2099505 9.511909,1.0650657 9.4238281,0.78125 9.5412687,0.59530152 9.6987961,0.47278311 9.8945312,0.4140625 9.9581454,0.39448885 10.018793,0.38245824 10.078125,0.37695312 Z M 0.79492188,0.58203125 c -0.0207968,-0.00367 -0.0409735,-0.001974 -0.0605469,0.007813 -0.0685073,0.0489333 -0.0937921,0.10338876 -0.0742188,0.16210937 0.0195733,0.0391473 0.0575009,0.0653981 0.11132813,0.0800781 0.0538273,0.01468 0.0927209,-0.008652 0.1171875,-0.0722656 0.0244673,-0.0636139 0.0147438,-0.1122311 -0.0292969,-0.14648437 -0.0220203,-0.017127 -0.0436563,-0.02758 -0.064453,-0.0312505 z m 4.43164062,0.0234375 c -0.068507,0.048934 -0.093792,0.10143631 -0.074219,0.16015625 0.00979,0.0391473 0.041876,0.0673513 0.095703,0.0820313 0.053827,0.0146807 0.09564,-0.007686 0.125,-0.0664063 0.029361,-0.0587206 0.022557,-0.10441791 -0.021484,-0.13867188 -0.044041,-0.034253 -0.085853,-0.0468964 -0.125,-0.0371094 z m 4.5351563,0 c -0.068507,0.048934 -0.09184,0.10143631 -0.072266,0.16015625 0.00979,0.0391473 0.042842,0.0673513 0.1015625,0.0820313 0.05872,0.0146807 0.1005327,-0.007686 0.125,-0.0664063 0.024467,-0.0587206 0.014743,-0.10441791 -0.029297,-0.13867188 -0.044041,-0.034253 -0.085853,-0.0468964 -0.1249995,-0.0371094 z M 15.28125,4.6132812 c 0.616566,0.00979 0.818824,0.4560945 0.603516,1.3417969 -0.215309,0.8857018 -0.285327,1.7112415 -0.207032,2.4746094 0.07829,0.7633672 0.303885,1.243718 0.675782,1.4394531 H 13.931641 C 14.528633,9.5070297 14.834929,8.5395244 14.849609,6.96875 14.864289,5.3979749 15.007221,4.6132812 15.28125,4.6132812 Z m -14.36914062,5.8749998 16.36718762,0.04102 0.0014,0.898152 -1.479888,-0.01729 -14.92773412,-0.05469 z m 8.91636722,1.580345 1.0129634,0.0081 0.02007,0.985226 c -0.294441,0.01732 -1.0330334,-0.993326 -1.0330334,-0.993326 z m -5.5865169,-0.03142 1.0129634,0.0081 0.00275,1.037186 C 4.9285914,13.151772 4.2419597,12.037206 4.2419597,12.037206 Z m 12.0939663,0.0059 1.012964,0.0081 0.03739,0.985226 c -0.398362,-0.01732 -1.050354,-0.993326 -1.050354,-0.993326 z"
     sodipodi:nodetypes="ssccccsssccccccccccccccssssssscsscsscsscsscssssscssccscsscsscsscsssccccscccscccccccsscsccscsscccsccssccccssssscscscccsscsccccsscccsccssccccssssccccscccsscssssssscsssscsccssccccccssccsccsccssscccsssccssccsccccccccccccccccccc" />
</svg>
