<?xml version="1.0" encoding="UTF-8" standalone="no"?>
<svg
   width="1799.9912"
   height="1080.6195"
   id="svg2441"
   version="1.1"
   xmlns="http://www.w3.org/2000/svg"
   xmlns:svg="http://www.w3.org/2000/svg"
   xmlns:rdf="http://www.w3.org/1999/02/22-rdf-syntax-ns#"
   xmlns:cc="http://creativecommons.org/ns#"
   xmlns:dc="http://purl.org/dc/elements/1.1/">
  <metadata
     id="metadata2448">
    <rdf:RDF>
      <cc:Work
         rdf:about="">
        <dc:format>image/svg+xml</dc:format>
        <dc:type
           rdf:resource="http://purl.org/dc/dcmitype/StillImage" />
      </cc:Work>
    </rdf:RDF>
  </metadata>
  <defs
     id="defs2446" />
  <path
     style="fill:#000000;stroke:none;stroke-width:95.5999"
     d="m 1799.9912,331.73229 c -4.953,252.04747 -80.9004,416.67884 -230.0376,495.92514 -149.1373,79.24641 -330.2002,114.15389 -543.7252,107.55004 -63.83733,2.20167 -146.70326,16.51021 -247.96255,41.82501 -37.4219,-64.93804 21.858,-103.30481 179.25006,-116.51253 242.14179,1.10064 425.87769,-32.54895 549.70019,-98.58753 123.8225,-66.03868 188.3699,-203.93895 197.175,-415.26262 8.8052,-211.3236 -82.0015,-297.334444 -271.8625,-259.91257 -189.8612,37.42194 -267.381,162.11402 -236.0126,373.4376 31.3683,211.32367 -48.7768,317.20404 -170.2876,316.67509 -123.96874,-0.55448 -194.4229,-108.88919 -155.35002,-319.66258 39.07289,-210.77327 11.79161,-313.68761 -80.66253,-313.6876 -91.3535,0 -112.6926,104.81546 -59.75,316.67509 43.2551,173.09369 -23.9557,320.25312 -152.8405,319.6626 -128.885,-0.60228 -178.0588,-134.25715 -154.872,-322.65009 26.3264,-213.90504 6.2884,-316.6751 -80.6626,-316.67511 -92.4541,0 -142.2209,98.19696 -149.375,295.7626 -7.1538,197.56557 -19.5763,318.79837 -38.8375,364.4751 -19.2612,45.67674 -20.0475,92.5345 -2.9875,140.41254 17.0599,47.87811 21.5413,82.31383 14.9375,101.57513 -6.6041,19.2614 -20.5984,30.3468 -44.8125,35.8501 -46.226896,8.8046 -82.549796,-11.3218 -104.562596,-59.7502 -17.6102,-63.83731 -20.2048,-116.27717 -11.9501,-155.35006 8.2552,-39.07287 25.1583,-73.19424 53.7752,-104.56252 28.6167,-31.36828 47.721296,-159.51964 53.774896,-382.40011 5.0113,-184.51088 58.6312,-290.885986 161.325,-322.650089 137.2029,-41.576604 298.5551,42.046258 259.9127,307.712579 -30.8181,211.87405 -23.9054,316.67509 44.3345,316.67509 67.1393,0 90.7312,-105.35142 42.3029,-316.67509 -40.3165,-175.92694 -7.5552,-275.257316 98.5876,-304.725079 199.13221,-41.661133 267.14191,125.998489 253.93757,304.725079 -41.66058,210.03937 -22.16941,315.02418 53.77498,316.67509 75.9445,1.65092 109.0607,-41.96879 77.6751,-313.68759 C 1086.9106,217.48009 1177.7817,50.341594 1393.691,9.0822089 1644.9656,-34.256028 1778.5655,78.190788 1799.9912,331.73229 Z M 81.307954,806.17937 c -42.6402,65.68179 -39.8337,114.86447 -37.9673,185.79061 15.4091,46.22702 38.2089,67.45462 65.724996,59.75012 28.6168,-5.5038 35.221,-33.335 20.9126,-80.66262 -24.2141,-67.13923 -42.993696,-72.4391 -23.1822,-118.66622 33.3383,-90.96571 8.3392,-98.3188 -25.488096,-46.21189 z m 0.8703,173.84061 c 9.9057,2.06401 18.947096,11.20327 23.899896,26.88752 4.4024,13.2077 -0.9464,21.6987 -11.949896,23.9 -18.711,1.1004 -29.246,-8.1766 -35.85,-26.8874 -2.2018,-12.10719 2.8307,-20.59828 14.9373,-23.90012 3.8529,-0.82217 5.6607,-0.68832 8.9627,0 z"
     id="path2443" />
</svg>
