<?xml version="1.0" encoding="UTF-8" standalone="no"?>
<svg
   width="1979.291"
   height="1800"
   id="svg2"
   version="1.1"
   xmlns="http://www.w3.org/2000/svg"
   xmlns:svg="http://www.w3.org/2000/svg"
   xmlns:rdf="http://www.w3.org/1999/02/22-rdf-syntax-ns#"
   xmlns:cc="http://creativecommons.org/ns#"
   xmlns:dc="http://purl.org/dc/elements/1.1/">
  <metadata
     id="metadata9">
    <rdf:RDF>
      <cc:Work
         rdf:about="">
        <dc:format>image/svg+xml</dc:format>
        <dc:type
           rdf:resource="http://purl.org/dc/dcmitype/StillImage" />
      </cc:Work>
    </rdf:RDF>
  </metadata>
  <defs
     id="defs7" />
  <path
     id="path4"
     style="fill:#000000;stroke:none;stroke-width:100.123"
     d="m 345.30941,431.69335 c -1.18526,-0.13712 -2.06292,-0.40304 -3.27416,-0.52921 -22.35974,-2.32912 -41.45957,3.49308 -57.29765,17.46788 -59.62594,-2.79493 -114.59427,-7.45267 -164.90366,-13.9743 C 91.884309,418.81963 66.962355,411.3663 45.0684,412.29797 c -21.893887,0.93161 -36.5671051,20.02929 -44.0203471,57.2955 -5.589898,42.85618 11.1810201,68.47813 50.3105051,76.86298 54.036032,15.83814 93.631212,30.97791 118.785872,45.41864 25.15477,14.44057 87.10971,35.16929 185.86512,62.18735 31.67633,33.5396 70.80488,49.37727 117.3876,47.51394 5.58991,38.19787 20.96304,66.14867 46.11778,83.85011 25.15467,17.70144 4.89044,22.82586 -60.79124,15.3726 -65.68174,-7.45325 -122.27897,-7.91986 -169.79336,-1.39829 -47.5144,0 -56.83206,31.21073 -27.95077,93.63171 7.45326,-37.26622 21.4287,-37.26622 41.92508,0 14.90655,-36.33463 29.81299,-36.33463 44.71947,0 11.17979,-32.60793 29.81297,-40.76112 55.89937,-24.45718 26.08628,16.30399 99.68781,13.27728 220.80304,-9.08245 18.63309,-8.38491 29.81298,-31.21131 33.53961,-68.47753 159.31308,0 248.75218,-6.52218 268.31694,-19.5653 5.58991,6.52151 16.76987,14.67475 33.53963,24.45718 16.76981,9.78235 10e-4,17.93339 -50.30835,24.45502 -69.87412,-19.56478 -120.6514,-26.08473 -152.32767,-19.56316 -34.47124,0 -43.32006,31.20861 -26.5503,93.62955 8.38491,-26.08635 21.89367,-26.08635 40.52677,0 14.90649,-33.53956 29.813,-33.53956 44.71949,0 13.04322,-32.60797 55.66501,-37.73024 127.86831,-15.37043 72.20325,22.35966 123.67835,-0.93329 154.42295,-69.87583 18.6331,18.63318 46.1173,18.86648 82.4518,0.69915 36.3345,-18.16728 110.1672,-13.04293 221.5,15.3726 111.3328,28.41543 218.2407,40.52643 320.7228,36.33405 102.482,-4.19245 182.606,-15.6056 240.3683,-34.23878 23.2916,-22.35972 21.4271,-45.65066 -5.5909,-69.87367 -53.1044,-6.52154 -139.5144,-22.59254 -259.2325,-48.21306 -14.8898,-3.18656 -30.3895,-7.28765 -45.5822,-10.92817 l 147.2831,-147.28308 -31.1537,-31.15389 -92.1324,92.13445 29.8717,-269.61843 c 3.5355,-14.84925 -42.548,-19.14823 -43.9622,-2.88478 l -29.8612,269.46998 -56.6286,-110.71019 -39.2231,20.06224 88.742,173.49562 c -99.0963,-25.20615 -204.181,-59.39308 -315.8546,-103.46492 -20.6756,-8.15965 -41.2017,-15.62787 -61.6516,-22.7405 l 127.0853,-127.08528 -31.1539,-31.15393 -92.1324,92.13447 24.384,-257.27476 c 2.4749,-12.37437 -42.1943,-17.02693 -43.9621,-2.88479 l -24.3734,257.12633 -56.6286,-110.71021 -39.223,20.06226 71.0717,138.94921 c -94.4079,-28.01739 -186.41156,-44.88602 -275.89129,-50.05449 -18.33402,-1.05901 -48.78463,-6.78772 -48.78463,-6.78772 L 969.48539,328.41825 933.31407,303.26331 858.92306,410.23573 832.44948,132.69718 c -2.82842,-12.02081 -46.60815,-9.91583 -43.77972,4.93342 l 26.45795,277.39057 -75.31065,-98.95385 -35.05809,26.68105 114.1621,150.00375 C 744.27766,501.76758 674.7112,481.35907 639.69911,479.3772 594.04805,456.08588 550.72617,441.17935 509.73334,434.65772 c -40.99282,-6.52158 -66.84587,-5.12387 -77.55996,4.1927 -10.32572,8.97893 -21.98371,10.6388 -34.90562,5.33934 z M 815.78264,894.42864 H 771.06315 730.53638 2.6048206 v 51.70883 l 716.7516894,2.79441 c 72.66912,87.57562 170.02602,151.85932 292.07279,192.85232 v 85.2462 l -1007.3930227,0 v 82.4519 H 233.29969 v 156.5182 H 4.0362773 v 89.4391 H 233.29969 v 159.3125 H 4.0362773 v 85.2463 l 1974.8622227,0 v -85.2463 h -228.6596 v -159.3125 h 228.6596 v -89.4391 h -228.6596 v -156.5182 h 228.6596 v -82.4519 h -882.2229 v -65.6809 c 115.5252,30.7447 202.8688,19.5648 262.0288,-33.5397 59.1602,-53.1042 63.1202,-114.5948 11.8792,-184.46896 l 606.5074,2.79663 V 894.42864 Z M 63.934571,447.23373 c 16.769827,4.6583 41.458479,11.88032 74.066389,21.66275 32.60792,9.78234 85.24737,12.80906 157.91651,9.08243 16.76975,-4.65829 32.84074,-6.28938 48.21308,-4.89186 15.37231,1.39744 28.64774,5.82406 39.82762,13.27732 8.38491,5.58997 23.75807,4.42548 46.11779,-3.49359 22.35972,-7.91907 53.57055,-7.68576 93.63169,0.69915 40.06123,8.38486 75.46314,26.08476 106.20773,53.10279 171.42454,0 304.41881,10.01542 398.98182,30.04603 94.5632,20.03061 186.7975,48.44589 276.7024,85.24627 89.9045,36.80038 188.1948,66.14896 294.8693,88.04283 106.6746,21.8939 210.787,42.15813 312.3373,60.79124 -223.5971,19.56478 -388.5001,8.84934 -494.7088,-32.14348 -106.2086,-40.99281 -210.5543,-41.92397 -313.0365,-2.79442 -21.4279,-25.15475 -37.9656,-32.84125 -49.6112,-23.0589 -11.6457,9.78243 -21.1947,22.59341 -28.6478,38.43149 -46.58268,-24.22301 -69.40862,-51.94057 -68.47749,-83.15099 0.93165,-31.21045 40.52899,-52.87026 118.78799,-64.9818 -108.07198,-8.3849 -162.1092,20.49491 -162.1092,86.64242 -23.2914,26.08641 -119.25271,39.13062 -287.88224,39.13062 -4.65831,53.1043 -20.49593,62.88648 -47.51393,29.3469 -43.78781,-30.74458 -65.68096,-65.2154 -65.68096,-103.41329 21.42804,-32.60791 66.61209,-39.13002 135.55463,-19.5653 -11.17988,-13.97483 -32.83965,-28.88135 -64.98181,-44.71952 -32.14209,-15.83808 -74.29951,-4.6e-4 -126.47218,47.51393 -32.60792,0 -54.96773,-9.31549 -67.07924,-27.94861 18.6331,-6.52155 24.22197,-12.11257 16.76875,-16.77087 -35.40294,-8.38492 -72.66925,-15.83818 -111.79875,-22.35975 -57.76266,-8.3849 -103.41331,-24.68913 -136.95291,-48.91222 -62.420868,-13.04313 -92.700546,-22.82532 -90.837269,-29.34689 50.309409,10.24819 81.053539,16.30375 92.233419,18.16703 11.17986,1.86335 25.38862,6.05659 42.62421,12.57815 17.23567,6.52165 39.36215,13.27706 66.3801,20.26448 27.01801,6.98738 68.47759,12.80959 124.37689,17.46786 10.24826,0.93167 13.50821,3.72722 9.78157,8.38545 -3.72667,4.65829 -0.46452,8.84937 9.78374,12.576 10.24819,3.72666 17.23483,1.39777 20.96146,-6.98714 7.45322,-15.83816 -2.3289,-25.85362 -29.3469,-30.04606 -27.01803,-4.19239 -49.1445,-7.91898 -66.38009,-11.17986 -17.2356,-3.26079 -32.84213,-13.27628 -46.81692,-30.04604 -13.97489,-16.7698 -27.25033,-19.56529 -39.82763,-8.38544 -12.57738,11.17987 -21.42832,9.78424 -26.55247,-4.19057 -5.12407,-13.97478 -13.27517,-16.3058 -24.45505,-6.9893 -11.17985,9.31659 -19.09974,6.98765 -23.75803,-6.98716 -4.65829,-13.97486 -13.50933,-18.16595 -26.55247,-12.576 -13.04325,5.58992 -19.79674,4.42549 -20.2623,-3.49358 -0.46584,-7.9191 -4.19244,-14.20798 -11.17988,-18.86619 -6.98741,-4.65828 -15.83845,-2.32934 -26.552466,6.98716 -10.714026,9.3166 -19.331753,19.09869 -25.853322,29.34691 -29.812965,-0.93162 -41.9261,-12.11151 -36.336201,-33.53964 5.589965,-21.42804 16.76986,-30.74569 33.53962,-27.95074 z m -1.396141,5.591 c -11.179861,-0.93161 -17.004195,2.09504 -17.47003,9.08245 -0.465767,6.98741 3.960793,11.41403 13.277309,13.27729 9.316586,1.86335 16.303231,-0.46556 20.961455,-6.98714 6.521637,-6.52162 0.932766,-11.64596 -16.768734,-15.3726 z m 50.30835,25.15418 c -2.79494,16.76977 0.46715,30.74521 9.78374,41.92508 -16.76983,-2.79496 -28.416345,-6.05498 -34.937913,-9.78159 4.658292,-11.17986 13.042703,-21.89532 25.154173,-32.14349 z m 226.83074,4.89187 c -13.10142,-0.69872 -24.89345,2.79458 -35.37461,10.48074 l 4.19273,13.97429 c 4.6583,-13.04319 25.15368,-16.30315 61.48822,-9.78157 13.97487,3.72661 23.757,6.05548 29.34689,6.98715 l 1.3983,-9.78158 c -13.04312,-1.86336 -28.88082,-5.12545 -47.51393,-9.78375 -4.65826,-1.16455 -9.17045,-1.86236 -13.5376,-2.09528 z m 7.94659,16.07174 c -7.4533,0 -19.56428,4.19109 -36.33403,12.57602 v 5.59101 c 16.76975,8.38491 31.67625,12.11155 44.71947,11.17987 13.04321,-0.93166 28.41635,-4.19383 46.1178,-9.78374 l -1.3983,-5.58885 C 372.77936,502.6686 355.07732,498.01039 347.62411,498.94252 Z m 2.79443,4.19058 c 0,5.58996 0.93324,11.6476 2.79658,18.16917 l -2.79658,-1.39828 c -1.86308,-4.65823 -2.32729,-9.78268 -1.39613,-15.3726 z m -188.65955,1.39829 c 0,8.38491 3.72663,18.63366 11.17988,30.74518 -11.17986,-5.58996 -21.42861,-8.85207 -30.74519,-9.78373 4.6583,-8.38485 11.1804,-15.37149 19.56531,-20.96145 z m 176.08355,2.79442 c -1.86329,4.65823 -0.9322,8.38486 2.79442,11.17987 l -12.57815,-2.79443 -1.39615,-1.39828 c 2.79495,-0.9316 6.52158,-3.26053 11.17988,-6.98716 z m 26.55246,0 c 5.58996,3.72663 11.64547,6.52217 18.16702,8.38544 -10.24817,1.86335 -17.23697,3.26111 -20.96359,4.19274 6.52157,-4.65823 7.45487,-8.85155 2.79657,-12.57818 z m -152.32548,11.17987 c -2.79495,9.31653 -0.002,13.04315 8.38327,11.17989 0,6.52155 1.8644,13.04374 5.59102,19.56532 -13.9748,-2.79496 -25.62134,-6.52159 -34.93792,-11.17988 5.58999,-9.31652 12.5787,-15.8387 20.96363,-19.56533 z m 54.50106,13.97647 c 3.7266,2.79494 5.12441,10.71268 4.19272,23.75588 -13.04314,-4.6583 -20.96303,-7.91823 -23.75803,-9.78158 6.52164,-5.58991 13.04374,-10.24766 19.56531,-13.9743 z M 1274.1573,943.34084 c 85.7119,74.53216 116.4566,128.80306 92.2335,162.80846 -24.223,34.0053 -73.1357,40.5253 -146.7366,19.5632 -73.6008,-20.9622 -114.5935,-33.7708 -122.9786,-38.4294 V 946.13747 Z m -262.728,2.79663 V 1062.1268 C 938.76025,1040.6988 881.46308,1002.5013 839.53853,947.53353 Z M 318.54595,1309.4823 h 212.68527 v 156.5182 H 318.54595 Z m 297.93153,0 h 207.0284 v 156.5182 h -207.0284 z m 292.27466,0 208.42656,0 v 156.5182 l -208.42656,0 z m 290.87846,0 h 191.454 v 156.5182 h -191.454 z m 275.304,0 h 191.454 v 156.5182 h -191.454 z M 318.54595,1555.4396 h 212.68527 v 159.3125 H 318.54595 Z m 297.93153,0 h 207.0284 v 159.3125 h -207.0284 z m 292.27466,0 208.42656,0 v 159.3125 l -208.42656,0 z m 290.87846,0 h 191.454 v 159.3125 h -191.454 z m 275.304,0 h 191.454 v 159.3125 h -191.454 z" />
  <path
     d="M 428.24801,452.18749 539.20112,292.64365 503.0298,267.48871 428.63879,374.46113 402.16521,96.922576 c -2.82842,-12.02081 -46.60815,-9.91583 -43.77972,4.933424 l 26.45795,277.39057 -75.31065,-98.95385 -35.05809,26.68105 114.1621,150.00375"
     style="fill:#000000;stroke:none;stroke-width:100.123"
     id="path1" />
</svg>
