<?xml version="1.0" encoding="UTF-8" standalone="no"?>
<svg
   width="1800"
   height="835.43188"
   id="svg2441"
   version="1.1"
   xmlns="http://www.w3.org/2000/svg"
   xmlns:svg="http://www.w3.org/2000/svg"
   xmlns:rdf="http://www.w3.org/1999/02/22-rdf-syntax-ns#"
   xmlns:cc="http://creativecommons.org/ns#"
   xmlns:dc="http://purl.org/dc/elements/1.1/">
  <metadata
     id="metadata2448">
    <rdf:RDF>
      <cc:Work
         rdf:about="">
        <dc:format>image/svg+xml</dc:format>
        <dc:type
           rdf:resource="http://purl.org/dc/dcmitype/StillImage" />
      </cc:Work>
    </rdf:RDF>
  </metadata>
  <defs
     id="defs2446" />
  <path
     id="path2443"
     style="fill:#000000;stroke:none;stroke-width:106.487"
     d="M 251.24248,0.77628933 C 12.683477,-8.0380907 -42.503754,284.99479 29.255512,606.82296 55.889579,726.27225 202.095,836.45885 364.4498,835.42465 l 261.2251,-1.664 c 95.39462,1.1095 153.90783,-5.269 175.53805,-19.1343 21.63014,-13.8655 33.00004,-35.2186 34.10929,-64.0589 -1.10925,-53.2436 -34.94155,-84.3027 -101.49593,-93.1767 -83.193,0 -143.09281,12.2019 -179.69771,36.6051 -38.82341,26.6218 -101.97627,35.9156 -189.6788,33.2773 -59.83674,-1.8 -152.77045,-22.818 -213.0887,-147.67673 -12.24464,-25.3464 -97.105853,-451.505 98.78572,-453.72128 88.24931,-0.99845 88.30919,193.90268 167.70756,320.22163 31.13852,49.53983 86.96779,94.34478 157.87876,96.07764 44.6311,1.09064 108.96923,-14.45606 150.45137,-99.02586 51.71573,-105.43305 33.45298,-318.83632 189.96825,-317.27556 149.25154,1.48831 111.72204,205.70036 156.26834,310.12907 22.7972,53.44243 85.3508,102.29324 159.457,106.10803 73.3722,3.77699 134.7585,-42.48368 162.285,-94.67535 69.8073,-132.358 37.5805,-324.31476 132.2626,-321.5832 109.2169,3.15092 226.7812,344.76164 100.8826,470.66017 -165.097,165.09694 -393.5817,138.29334 -580.3189,161.72954 -138.73897,17.9488 -111.36271,45.7902 -6.7241,59.8415 20.2564,2.7201 540.7883,70.2597 690.6895,-151.5172 C 1887.7497,434.58999 1758.9277,2.5586593 1530.0342,0.79987933 1319.1925,-0.82019067 1362.231,250.33568 1299.8855,389.075 c -11.9669,26.63008 -30.6904,44.57821 -61.577,42.98823 -34.929,-1.79804 -57.8582,-20.49281 -65.858,-47.42879 C 1120.7817,210.66298 1142.4847,16.709149 917.58719,0.77844933 687.61677,-15.511611 680.14156,227.4986 613.41674,388.98278 c -7.15542,17.31724 -20.0465,38.40495 -39.58975,38.05456 -27.26893,-0.4889 -33.39622,-17.9908 -50.0554,-47.51673 C 446.56173,242.6777 453.12251,8.2354293 251.24248,0.77628933 Z M 707.20442,695.65985 c 61.00818,2.2185 91.51272,19.9664 91.51272,53.2436 -1.10925,33.2774 -32.16839,49.3615 -93.17659,48.2522 l -245.25325,-1.6638 c -93.79357,-5.853 -64.41949,-33.752 3.30844,-33.2493 85.72541,-11.5529 156.70749,-47.5596 243.60868,-66.5827 z m 19.96642,9.9832 c -16.63861,1.1092 -24.95803,8.874 -24.95803,23.2942 0,17.7478 13.31108,27.1764 39.93283,28.2856 18.85708,0 28.28576,-6.1009 28.28576,-18.3025 -4.43698,-21.0757 -18.85729,-32.1681 -43.26056,-33.2773 z" />
</svg>
