<?xml version="1.0" encoding="UTF-8" standalone="no"?>
<svg
   width="17.36499"
   height="9.7930002"
   id="svg2452"
   sodipodi:version="0.32"
   inkscape:version="1.2.1 (9c6d41e410, 2022-07-14)"
   sodipodi:docname="UC9I86VARB.svg"
   inkscape:output_extension="org.inkscape.output.svg.inkscape"
   version="1.1"
   xmlns:inkscape="http://www.inkscape.org/namespaces/inkscape"
   xmlns:sodipodi="http://sodipodi.sourceforge.net/DTD/sodipodi-0.dtd"
   xmlns="http://www.w3.org/2000/svg"
   xmlns:svg="http://www.w3.org/2000/svg"
   xmlns:rdf="http://www.w3.org/1999/02/22-rdf-syntax-ns#"
   xmlns:cc="http://creativecommons.org/ns#"
   xmlns:dc="http://purl.org/dc/elements/1.1/">
  <metadata
     id="metadata2459">
    <rdf:RDF>
      <cc:Work
         rdf:about="">
        <dc:format>image/svg+xml</dc:format>
        <dc:type
           rdf:resource="http://purl.org/dc/dcmitype/StillImage" />
      </cc:Work>
    </rdf:RDF>
  </metadata>
  <defs
     id="defs2457">
    <inkscape:perspective
       sodipodi:type="inkscape:persp3d"
       inkscape:vp_x="0 : 5.3962717 : 1"
       inkscape:vp_y="0 : 1000 : 0"
       inkscape:vp_z="17.36499 : 5.3962717 : 1"
       inkscape:persp3d-origin="8.6824951 : 3.9306955 : 1"
       id="perspective2461" />
  </defs>
  <sodipodi:namedview
     inkscape:window-height="1137"
     inkscape:window-width="1920"
     inkscape:pageshadow="2"
     inkscape:pageopacity="0.0"
     guidetolerance="10.0"
     gridtolerance="10.0"
     objecttolerance="10.0"
     borderopacity="1.0"
     bordercolor="#666666"
     pagecolor="#ffffff"
     id="base"
     showgrid="false"
     inkscape:zoom="38.562254"
     inkscape:cx="5.7050608"
     inkscape:cy="5.8347212"
     inkscape:window-x="-8"
     inkscape:window-y="-8"
     inkscape:current-layer="svg2452"
     inkscape:showpageshadow="2"
     inkscape:pagecheckerboard="0"
     inkscape:deskcolor="#d1d1d1"
     inkscape:window-maximized="1" />
  <path
     style="fill:#000000;stroke:none"
     d="M 13.343692,0.28525304 C 12.244806,-0.03937233 10.661012,1.1244525 10.952679,3.1296605 11.244346,5.1348692 10.593087,5.9482547 9.9493338,6 7.416253,6.2036106 7.8198597,4.6504518 8.0625,3.0625 8.375,1.0833333 7.2552087,0.0625 4.71875,0.03125 2.182292,0 0.94791665,0.97916667 0.9375,3 c 0,1.478491 0.3493385,3.6077121 1.0259321,4.4594875 -0.6534414,0.4175901 -1.30718925,0.8226707 -1.93750001,1.25 0.05208333,0.1770833 0.14583333,0.3020833 0.28125,0.375 l 0.84375001,-0.5 c 0.1770833,0.083333 0.46875,0.34375 0.875,0.8125 0.5625,-0.34375 0.96875,-0.619792 1.25,-0.84375 0.00864,-0.00688 0.022492,-0.024202 0.03125,-0.03125 0.215631,0.108727 0.5622436,0.2630019 1.125,0.4375 0.6718753,0.2083333 1.3385413,0.375 1.96875,0.5625 0.630208,0.1875 1.0468753,0.2760408 1.28125,0.21875 0.2343753,-0.057292 0.3854167,-0.2083333 0.46875,-0.46875 0.1458333,-0.4895833 -0.052083,-0.8645833 -0.625,-1.125 -0.75,-0.2395833 -1.1423446,-0.267357 -1.5381779,-0.142357 -0.4098074,0.1699201 -1.2092164,0.1060762 -1.9930721,-0.107643 0.1193489,-0.112229 0.2108082,-0.1812411 0.34375,-0.3125 0.411458,-0.40625 0.9791667,-1.15625 1.71875,-2.28125 0.09375,-0.15625 0.1197913,-0.2395833 0.0625,-0.28125 -0.057292,-0.041667 -0.1666667,-0.041667 -0.28125,0.0625 -1.0629115,0.607378 -2.0844808,1.2450358 -3.09375,1.875 C 2.1971146,6.3168126 1.8722294,4.5074527 1.84375,3.40625 1.75,1.5833333 2.7083333,0.69270865 4.75,0.75 6.7916667,0.807292 7.5277508,1.8371814 7.125,3.875 6.7174346,6.9296903 8.1928458,6.9748685 9.9805838,6.96875 11.212279,6.9645346 12.08496,5.7656112 11.932065,3.7819074 c -0.156747,-2.0336745 0.488097,-2.83141945 1.385694,-2.486676 1.131508,0.4345827 0.46436,0.7152945 0.448735,2.9600865 -0.01563,2.2447913 -0.0013,2.0471453 0.24008,2.8251081 0.166698,0.5372318 0.882517,1.2345431 1.259438,1.6290615 0.282956,0.2961662 0.956639,0.6966018 1.365796,0.9527963 C 16.422978,8.7646388 15.692569,8.1039552 15.211401,7.410852 14.473294,6.3476362 14.62859,5.392052 14.703994,4.2759321 14.875541,1.7367111 15.500508,0.92240467 13.343692,0.28525304 Z M 5.0571821,6.0844875 c -0.78125,0.9895833 -1.7291667,1.8645833 -2.84375,2.625 -0.21875,-0.2604167 -0.375,-0.4479167 -0.5,-0.5 1.2916667,-0.8541667 2.3958333,-1.5416667 3.34375,-2.125 z M 3.8575397,8.1270233 c 0.9103662,0.2879329 1.5143657,0.3654968 2.0121424,0.2699642 0.5156247,-0.098959 0.9479167,-0.1041667 1.3125,0 0.5416667,0.1979167 0.7604167,0.4583333 0.65625,0.75 -0.09375,0.2916667 -0.4166667,0.3333333 -0.96875,0.15625 C 5.9530154,9.0428208 5.2550988,8.8449042 4.7759321,8.7094875 4.3408516,8.58653 4.0875395,8.4631545 3.7125754,8.3058448 3.6713115,8.218137 3.7828772,8.1061696 3.8575397,8.1270233 Z m 3.2933924,0.4262142 c -0.052083,0.023437 -0.098958,0.088542 -0.125,0.15625 -0.041667,0.15625 0.072917,0.2604167 0.3125,0.34375 0.1666667,0.052083 0.25,0.020833 0.28125,-0.09375 0.020833,-0.1979167 -0.072917,-0.3333333 -0.28125,-0.40625 -0.078125,-0.020833 -0.1354167,-0.023437 -0.1875,0 z"
     id="path2454"
     sodipodi:nodetypes="ssscsccccccsssssscccscscccscsssssscssscccccscscscccssssc" />
</svg>
