<?xml version="1.0" encoding="UTF-8" standalone="no"?>
<svg
   width="19.767664"
   height="14.278"
   id="svg2"
   sodipodi:version="0.32"
   inkscape:version="1.2.1 (9c6d41e410, 2022-07-14)"
   sodipodi:docname="US9I106VARA.svg"
   inkscape:output_extension="org.inkscape.output.svg.inkscape"
   version="1.1"
   xmlns:inkscape="http://www.inkscape.org/namespaces/inkscape"
   xmlns:sodipodi="http://sodipodi.sourceforge.net/DTD/sodipodi-0.dtd"
   xmlns="http://www.w3.org/2000/svg"
   xmlns:svg="http://www.w3.org/2000/svg"
   xmlns:rdf="http://www.w3.org/1999/02/22-rdf-syntax-ns#"
   xmlns:cc="http://creativecommons.org/ns#"
   xmlns:dc="http://purl.org/dc/elements/1.1/">
  <metadata
     id="metadata9">
    <rdf:RDF>
      <cc:Work
         rdf:about="">
        <dc:format>image/svg+xml</dc:format>
        <dc:type
           rdf:resource="http://purl.org/dc/dcmitype/StillImage" />
      </cc:Work>
    </rdf:RDF>
  </metadata>
  <defs
     id="defs7">
    <inkscape:perspective
       sodipodi:type="inkscape:persp3d"
       inkscape:vp_x="0 : 5.2892085 : 1"
       inkscape:vp_y="0 : 1000 : 0"
       inkscape:vp_z="19.767664 : 5.2892085 : 1"
       inkscape:persp3d-origin="9.883832 : 2.2929446 : 1"
       id="perspective11" />
  </defs>
  <sodipodi:namedview
     inkscape:window-height="1137"
     inkscape:window-width="1920"
     inkscape:pageshadow="2"
     inkscape:pageopacity="0.0"
     guidetolerance="10.0"
     gridtolerance="10.0"
     objecttolerance="10.0"
     borderopacity="1.0"
     bordercolor="#666666"
     pagecolor="#ffffff"
     id="base"
     showgrid="false"
     inkscape:zoom="27.543134"
     inkscape:cx="4.7017162"
     inkscape:cy="1.8879478"
     inkscape:window-x="-8"
     inkscape:window-y="-8"
     inkscape:current-layer="svg2"
     inkscape:showpageshadow="2"
     inkscape:pagecheckerboard="0"
     inkscape:deskcolor="#d1d1d1"
     inkscape:window-maximized="1" />
  <path
     id="path4"
     style="fill:#000000;stroke:none;stroke-width:0.992137"
     d="M 7.0761719,0.07124858 C 6.8361404,0.06201658 6.6152129,0.21883143 6.4121094,0.5419517 l -2.8378906,4.25 C 3.5474429,4.7884166 3.5262431,4.7831701 3.4980469,4.780233 3.276479,4.7571532 3.0866308,4.8155813 2.9296875,4.9540611 2.3388398,4.9263653 1.795403,4.8800141 1.296875,4.8153892 1.0199155,4.6584462 0.77163994,4.5834962 0.5546875,4.592733 0.33773574,4.6019645 0.19299654,4.7918126 0.11914062,5.1610924 0.06374899,5.5857644 0.22944409,5.8397237 0.6171875,5.9228111 c 0.535456,0.156944 0.9284707,0.3061222 1.1777344,0.4492187 0.2492643,0.1430952 0.8632058,0.3494599 1.8417969,0.6171876 0.313888,0.3323517 0.702463,0.4891678 1.1640624,0.4707031 0.055392,0.3785119 0.2077669,0.6546707 0.4570313,0.8300781 0.2492636,0.1754076 0.04734,0.2261997 -0.6035156,0.1523438 -0.6508561,-0.073855 -1.2108091,-0.078296 -1.6816407,-0.013672 -0.4708314,0 -0.5635354,0.3091902 -0.2773437,0.9277343 0.073856,-0.3692798 0.2129121,-0.3692798 0.4160156,0 0.1477126,-0.3600482 0.2936944,-0.3600482 0.4414063,0 0.1107833,-0.3231198 0.296191,-0.4037468 0.5546875,-0.2421873 0.2584951,0.1615601 0.9873404,0.131724 2.1875,-0.089844 0.1846398,-0.083088 0.2951029,-0.3084546 0.3320312,-0.6777344 1.5786714,0 2.4662842,-0.064112 2.6601563,-0.1933594 0.055392,0.064623 0.1658556,0.145251 0.3320312,0.2421878 0.1661762,0.096936 4.812e-4,0.1775627 -0.4980468,0.2421874 C 8.4286944,8.4437828 7.9252156,8.3777184 7.6113281,8.4423424 c -0.3415835,0 -0.4298474,0.3091902 -0.2636719,0.9277343 0.083088,-0.2584958 0.217704,-0.2584958 0.4023438,0 0.147712,-0.3323517 0.2956475,-0.3323517 0.4433594,0 0.1292482,-0.3231203 0.5501452,-0.3739123 1.265625,-0.1523437 0.7154786,0.2215672 1.2265946,-0.00824 1.5312496,-0.6914063 0.18464,0.1846415 0.456359,0.1878369 0.816407,0.00781 0.360046,-0.1800238 1.092088,-0.1292324 2.195312,0.1523438 1.103223,0.2815752 2.162215,0.4009187 3.177735,0.359375 C 18.195207,9.004314 18.990119,8.8906547 19.5625,8.7060142 19.793303,8.4844463 19.773588,8.2546394 19.505859,8.014608 18.979636,7.9499841 18.123812,7.7899721 16.9375,7.5360924 15.751189,7.2822119 14.468074,6.8835142 13.087891,6.3388267 11.707707,5.7941392 10.37824,5.4849483 9.0996094,5.4110924 7.8209779,5.3372366 6.9365614,5.2864456 6.4472656,5.2587486 5.9948982,5.0279489 5.5663639,4.8800142 5.1601562,4.8153892 4.7539486,4.7507657 4.4967936,4.7640849 4.390625,4.8564048 4.2897353,4.9441346 4.1766828,4.9609207 4.0507812,4.9110924 4.298613,4.58338 4.5847054,4.1106165 4.7895246,4.0204957 5.0203239,3.9189439 5.5843889,3.9848092 6.0644531,4.280233 6.7845484,2.5261544 7.2061558,1.6360544 7.3261719,1.608358 c 0.267728,0 0.4753349,-0.1124165 0.6230469,-0.3339844 C 8.1800181,0.91432597 8.1095141,0.59625497 7.7402344,0.31929546 7.5371309,0.16235143 7.3162041,0.08048057 7.0761719,0.07124858 Z M 8.1933594,9.3700767 H 7.75 7.3476562 0.5 v 0.5136719 l 6.7363281,0.027344 c 0.7200958,0.8678064 1.6851401,1.5039484 2.8945309,1.9101564 v 2.429687 h 0.845703 v -2.234374 c 1.144768,0.304655 2.009472,0.194193 2.595704,-0.332032 0.586231,-0.526223 0.624947,-1.135726 0.117187,-1.828125 l 5.794922,0.027344 V 9.3700767 Z M 7.1894531,0.4638267 C 7.3054301,0.4737797 7.4289909,0.527047 7.5605469,0.62398296 7.7359546,0.76246267 7.7734274,0.9059585 7.671875,1.0536705 7.5703239,1.2013824 7.3893558,1.2743736 7.1308594,1.2743736 6.936988,1.375926 6.5306536,2.1841547 5.9121094,3.6982017 5.5797576,3.5320261 5.2439276,3.481234 4.9023438,3.545858 L 6.6738281,0.7763267 c 0.1500197,-0.22502973 0.3223301,-0.32908877 0.515625,-0.3125 z M 0.7421875,4.9403892 c 0.16617621,0.04616 0.4112554,0.1179071 0.734375,0.2148438 0.3231197,0.096937 0.8443573,0.1267721 1.5644531,0.089844 0.1661757,-0.046156 0.3261877,-0.062676 0.4785156,-0.048828 0.152328,0.013848 0.2837473,0.057004 0.3945313,0.1308594 0.083088,0.055392 0.2354634,0.043316 0.4570313,-0.035156 0.2215677,-0.078471 0.5307588,-0.075276 0.9277343,0.00781 0.3969763,0.083087 0.7480791,0.2576627 1.0527344,0.5253906 1.6986869,0 3.0160774,0.1003401 3.9531255,0.2988282 0.937048,0.1984881 1.8513,0.4790863 2.742187,0.84375 0.890887,0.3646637 1.864811,0.6560951 2.921875,0.8730468 1.057064,0.2169517 2.087463,0.4169231 3.09375,0.6015626 -2.215679,0.193872 -3.847944,0.087848 -4.900391,-0.3183594 C 13.109662,7.7177748 12.074114,7.7088952 11.058594,8.0966392 10.846258,7.8473753 10.683758,7.7711877 10.568359,7.8681236 10.452958,7.96506 10.357053,8.0920396 10.283203,8.248983 9.8216035,8.0089515 9.5962388,7.7340357 9.6054688,7.4247642 9.6147009,7.1154922 10.007716,6.9022022 10.783203,6.7821861 9.7122917,6.699098 9.1757812,6.9841365 9.1757812,7.639608 8.9449813,7.8981044 7.9932561,8.0282798 6.3222656,8.0282798 6.2761055,8.554503 6.1192905,8.6516472 5.8515625,8.3192955 5.4176589,8.0146402 5.2011719,7.6724168 5.2011719,7.2939048 5.4135077,6.9707853 5.861754,6.9066741 6.5449219,7.1005455 6.434138,6.9620657 6.2188949,6.8141301 5.9003906,6.6571861 5.581887,6.5002428 5.1654291,6.6570577 4.6484375,7.1278892 4.3253178,7.1278892 4.102438,7.0351853 3.9824219,6.8505455 4.1670618,6.7859216 4.2222934,6.7306898 4.1484375,6.6845298 3.7976214,6.6014417 3.428759,6.5284507 3.0410156,6.4638267 2.4686317,6.3807386 2.0159455,6.2175309 1.6835938,5.9774986 1.0650503,5.848251 0.76473947,5.7511067 0.78320312,5.686483 1.2817311,5.7880351 1.5864817,5.8496599 1.6972656,5.8681236 c 0.110784,0.018464 0.2530365,0.058423 0.4238282,0.1230469 0.1707923,0.064624 0.3885226,0.1319316 0.65625,0.2011719 0.2677279,0.06924 0.6785023,0.1276679 1.2324218,0.1738281 0.1015502,0.00923 0.1345846,0.035872 0.097656,0.082031 -0.036929,0.04616 -0.0039,0.088072 0.097656,0.125 0.1015518,0.036928 0.1701033,0.014729 0.2070313,-0.068359 C 4.4859653,6.3478983 4.3888217,6.2475582 4.1210938,6.2060142 3.8533657,6.1644703 3.6336823,6.1289522 3.4628906,6.0966392 3.292099,6.0643274 3.1384798,5.9639867 3,5.7978111 2.8615196,5.6316353 2.7301002,5.604996 2.6054688,5.7157798 2.4808366,5.8265635 2.3925738,5.8112909 2.3417969,5.6728111 2.2910213,5.5343322 2.2103933,5.5121328 2.0996094,5.6044517 1.9888255,5.6967722 1.9094412,5.674572 1.8632812,5.5360924 1.8171211,5.3976122 1.7308101,5.3557004 1.6015625,5.4110924 1.4723139,5.4664843 1.4050006,5.454408 1.4003906,5.3759361 1.3957745,5.2974641 1.3583024,5.2345951 1.2890625,5.1884361 1.2198226,5.1422759 1.1315584,5.1664293 1.0253906,5.2587486 0.91922272,5.3510689 0.83415505,5.4482124 0.76953125,5.5497642 0.47410749,5.5405327 0.35476459,5.4281162 0.41015625,5.2157798 0.46554853,5.0034439 0.57601194,4.9126938 0.7421875,4.9403892 Z M 0.65625,4.9950767 C 0.5930686,5.0028667 0.5581498,5.0329907 0.5546875,5.0849207 0.5500725,5.1541607 0.5951804,5.1973165 0.6875,5.21578 0.7798203,5.234245 0.84837182,5.21204 0.89453125,5.147421 0.95915575,5.082796 0.90392425,5.0320055 0.72851562,4.9950772 c -0.027696,-0.00231 -0.0512052,-0.0026 -0.0722656,-5e-7 z m 0.5703125,0.25 c -0.027696,0.1661757 0.00534,0.3032785 0.097656,0.4140625 C 1.1580426,5.6314438 1.0431394,5.6003644 0.97851562,5.5634361 1.0246758,5.4526522 1.106547,5.3466285 1.2265625,5.2450767 Z m 2.2480469,0.046875 C 3.3447844,5.2850278 3.2288603,5.3212566 3.125,5.3974205 l 0.041016,0.1386719 c 0.04616,-0.1292486 0.2493275,-0.1622801 0.609375,-0.097656 0.1384805,0.036928 0.2356236,0.059123 0.2910156,0.068359 l 0.013672,-0.095703 C 3.9508306,5.3926281 3.7940148,5.3595961 3.609375,5.3134361 3.563215,5.3018961 3.5178844,5.2942597 3.4746094,5.2919517 Z m 0.078125,0.1601563 c -0.073857,0 -0.1931994,0.041912 -0.359375,0.125 V 5.631795 C 3.359535,5.7148839 3.5074705,5.7523604 3.6367188,5.7431236 3.765967,5.7338918 3.9183426,5.7008593 4.09375,5.6454674 L 4.0800781,5.5907798 C 3.803118,5.4892275 3.6265903,5.442868 3.5527344,5.452108 Z m 0.029297,0.041016 c 0,0.055392 0.00888,0.1150638 0.027344,0.1796875 L 3.5820312,5.6591392 C 3.5635733,5.6129798 3.5591294,5.5621874 3.5683594,5.5067955 Z M 1.7109377,5.506796 c 0,0.083088 0.037473,0.1846712 0.1113281,0.3046875 C 1.7114817,5.756091 1.609898,5.7250198 1.5175781,5.7157798 1.5637383,5.6326924 1.6278486,5.5621874 1.7109377,5.506796 Z m 1.7460937,0.029297 c -0.018463,0.046159 -0.00958,0.081678 0.027344,0.109375 l -0.125,-0.027344 -0.013672,-0.013672 c 0.027695,-0.00923 0.065168,-0.031431 0.111328,-0.068359 z m 0.2636719,0 C 3.7760953,5.573021 3.8357669,5.59966 3.9003908,5.618124 3.798839,5.636589 3.7283344,5.64991 3.6914064,5.65914 3.7560304,5.612981 3.7668634,5.573021 3.7207033,5.536093 Z M 2.2109377,5.645468 c -0.027696,0.092319 -0.00106,0.1297917 0.082031,0.1113281 -10e-8,0.064624 0.019712,0.1287356 0.056641,0.1933593 C 2.2111296,5.9224599 2.094273,5.8849867 2.0019531,5.8388267 2.0573454,5.7465071 2.1278486,5.6823953 2.2109377,5.645468 Z M 2.75,5.7841392 C 2.786934,5.8118352 2.800256,5.8912191 2.791016,6.0204674 2.6617681,5.9743074 2.5843366,5.9412761 2.5566406,5.9228111 2.6212652,5.8674187 2.6853761,5.8210672 2.75,5.7841392 Z m 9.984375,4.0722656 c 0.849337,0.7385592 1.154095,1.2763142 0.914063,1.6132812 -0.240032,0.336968 -0.723798,0.401079 -1.453126,0.19336 -0.729328,-0.207721 -1.13566,-0.3347 -1.21875,-0.38086 V 9.8837486 Z m -2.603516,0.027344 V 11.032186 C 9.410764,10.819851 8.8431749,10.442108 8.4277344,9.8974205 Z"
     sodipodi:nodetypes="sccsccccccccssccccscccscccccscsssccsssccscsccccsccccccccccsccccscsccccscscsssscssscscscsccccccsccccccssscsscssssscssccscscsccccsccccscccccsscccccccccccccccccccccccccccccccccccssccccccc" />
</svg>
