<?xml version="1.0" encoding="UTF-8" standalone="no"?>
<svg
   width="1800.1801"
   height="1296.3358"
   id="svg2441"
   version="1.1"
   xmlns="http://www.w3.org/2000/svg"
   xmlns:svg="http://www.w3.org/2000/svg"
   xmlns:rdf="http://www.w3.org/1999/02/22-rdf-syntax-ns#"
   xmlns:cc="http://creativecommons.org/ns#"
   xmlns:dc="http://purl.org/dc/elements/1.1/">
  <metadata
     id="metadata2448">
    <rdf:RDF>
      <cc:Work
         rdf:about="">
        <dc:format>image/svg+xml</dc:format>
        <dc:type
           rdf:resource="http://purl.org/dc/dcmitype/StillImage" />
      </cc:Work>
    </rdf:RDF>
  </metadata>
  <defs
     id="defs2446" />
  <path
     id="path1508"
     style="fill:#000000;stroke:none;stroke-width:120.034"
     d="M 685.65294,0 C 644.25376,72.52707 644.80722,165.37662 657.56498,253.50774 396.71448,280.15835 75.473947,380.09471 17.01849,652.19266 c -43.080973,200.53291 -2.922237,328.37441 104.05932,403.41874 -33.420027,77.3376 -65.422012,155.478 -91.757654,228.2822 13.148972,12.1549 30.900752,14.6555 51.72498,10.7206 l 24.753204,-70.2174 c 23.09519,-5.6403 68.64782,-3.3609 136.65736,6.8362 18.06911,-41.8656 33.95171,-77.798 45.34933,-108.1627 94.09225,20.4056 208.87475,25.4574 341.33872,18.9642 115.96835,1.1593 187.44015,-6.3762 214.4095,-20.8683 26.96933,-14.4918 45.59104,-39.7431 40.4547,-69.5612 -24.06312,-139.69483 -323.56399,-56.84693 -348.52292,-51.0974 -80.59159,33.6791 -154.8846,26.2243 -215.61245,-3.99793 20.55688,-103.812 32.77996,-223.1516 -17.94765,-312.02113 l -11.65483,0.8647 c -25.84315,55.28111 -57.64229,122.65693 -91.08322,195.45383 -33.17118,-57.4651 -45.73562,-122.48934 -28.90832,-175.46219 69.81329,-219.77423 280.232,-298.31575 514.0669,-316.73632 0.45527,1.98591 0.94085,4.18775 1.3903,6.14788 8.92024,37.3434 31.69024,87.82143 59.38443,151.98799 68.00951,-10.19718 113.56218,-12.47656 136.65736,-6.83625 l 24.75123,70.21743 c 20.82424,3.93489 38.57801,1.43273 51.72696,-10.72234 -24.85084,-68.69932 -54.82717,-142.14761 -86.19252,-215.19284 121.71277,0.83368 257.94028,-0.56775 382.75188,9.68978 2.0416,9.03345 4.1086,18.3123 6.0739,26.88215 8.9202,37.34341 31.6922,87.82143 59.3864,151.988 68.0095,-10.1972 113.5621,-12.47656 136.6574,-6.83626 l 24.7492,70.21574 c 20.8242,3.93486 38.5799,1.43442 51.729,-10.72065 -22.9604,-63.47289 -50.3572,-131.00912 -79.103,-198.52777 103.6092,30.59702 174.7514,83.62724 180.6262,175.74873 41.6376,463.54315 -413.4883,320.68922 -592.7261,470.80815 -21.6838,18.1609 -81.70524,98.7705 -59.96036,116.8775 21.74486,18.107 113.99316,-36.2751 138.70636,-51.3057 206.9476,-125.8693 643.8085,34.9232 677.3233,-507.90911 C 1822.0167,393.8408 1620.2002,302.04758 1383.7913,266.83946 1343.0404,177.07703 1303.4741,93.22903 1272.461,26.88893 l -11.6548,-0.86131 c -37.0094,64.83654 -40.4918,145.92326 -31.7086,225.35566 -151.1796,-9.33568 -300.00184,-4.37747 -400.13952,-5.85964 -5.7739,-0.0713 -12.16151,0.11175 -18.12908,0.11529 C 769.30431,154.04163 728.87456,68.39354 697.30579,0.86471 Z m 13.93452,106.4757 c 49.53072,124.69966 98.70963,234.55377 153.02342,372.29105 -16.05793,-3.10925 -39.82684,-0.99483 -76.5827,4.4473 -41.25623,-132.1224 -73.71155,-253.44127 -76.44072,-376.73836 z m 575.15724,26.02592 c 49.1023,122.34702 100.8637,240.81083 153.0214,372.28937 -16.0579,-3.10927 -39.8247,-0.99143 -76.5807,4.45069 -37.3827,-135.236 -73.7399,-252.92425 -76.4407,-376.74006 z M 287.98647,790.96423 c -1.96585,130.68114 -30.65647,244.92927 -76.44073,376.73847 -36.75584,-5.4422 -60.52476,-7.5566 -76.58271,-4.4474 54.49626,-130.6302 103.16404,-250.93593 153.02344,-372.29107 z m 442.29402,204.98934 c 75.51432,2.3187 110.57656,20.87033 109.22807,55.65143 -1.34847,34.7808 -39.10889,49.8507 -113.27472,48.6913 h -97.09009 c -360.00471,5.1654 -110.75162,-37.7984 -64.72672,-66.0838 54.21674,-33.3196 115.97006,-38.25893 165.86346,-38.25893 z m 24.27203,10.43413 c -21.57544,1.1594 -32.36533,9.2755 -32.36533,24.3474 0,18.5496 16.18477,26.6655 48.548,27.8248 22.92396,0 32.36337,-6.9558 32.36336,-20.8682 -5.39385,-20.8685 -20.22808,-30.1446 -48.54603,-31.304 z" />
</svg>
