<?xml version="1.0" encoding="UTF-8" standalone="no"?>
<!-- Created with Inkscape (http://www.inkscape.org/) -->

<svg
   width="1750"
   height="545"
   id="svg1290"
   sodipodi:version="0.32"
   inkscape:version="1.2.1 (9c6d41e410, 2022-07-14)"
   sodipodi:docname="US9I10VARA.svg"
   version="1.1"
   xmlns:inkscape="http://www.inkscape.org/namespaces/inkscape"
   xmlns:sodipodi="http://sodipodi.sourceforge.net/DTD/sodipodi-0.dtd"
   xmlns="http://www.w3.org/2000/svg"
   xmlns:svg="http://www.w3.org/2000/svg"
   xmlns:rdf="http://www.w3.org/1999/02/22-rdf-syntax-ns#"
   xmlns:cc="http://creativecommons.org/ns#"
   xmlns:dc="http://purl.org/dc/elements/1.1/">
  <defs
     id="defs3" />
  <sodipodi:namedview
     id="base"
     pagecolor="#ffffff"
     bordercolor="#666666"
     borderopacity="1.0"
     inkscape:pageopacity="0.0"
     inkscape:pageshadow="2"
     inkscape:zoom="0.41053452"
     inkscape:cx="924.40461"
     inkscape:cy="548.06598"
     inkscape:document-units="px"
     inkscape:current-layer="layer1"
     inkscape:window-width="1920"
     inkscape:window-height="1137"
     inkscape:window-x="-8"
     inkscape:window-y="-8"
     inkscape:showpageshadow="2"
     inkscape:pagecheckerboard="0"
     inkscape:deskcolor="#d1d1d1"
     showgrid="false"
     inkscape:window-maximized="1" />
  <metadata
     id="metadata4">
    <rdf:RDF>
      <cc:Work
         rdf:about="">
        <dc:format>image/svg+xml</dc:format>
        <dc:type
           rdf:resource="http://purl.org/dc/dcmitype/StillImage" />
        <cc:license
           rdf:resource="http://creativecommons.org/licenses/by/2.0/" />
        <dc:subject>
          <rdf:Bag>
            <rdf:li>JSesh hieroglyph</rdf:li>
          </rdf:Bag>
        </dc:subject>
        <dc:creator>
          <cc:Agent>
            <dc:title>Serge Rosmorduc</dc:title>
          </cc:Agent>
        </dc:creator>
      </cc:Work>
      <cc:License
         rdf:about="http://creativecommons.org/licenses/by/2.0/">
        <cc:permits
           rdf:resource="http://web.resource.org/cc/Reproduction" />
        <cc:permits
           rdf:resource="http://web.resource.org/cc/Distribution" />
        <cc:requires
           rdf:resource="http://web.resource.org/cc/Notice" />
        <cc:requires
           rdf:resource="http://web.resource.org/cc/Attribution" />
        <cc:permits
           rdf:resource="http://web.resource.org/cc/DerivativeWorks" />
        <cc:requires
           rdf:resource="http://web.resource.org/cc/ShareAlike" />
      </cc:License>
    </rdf:RDF>
  </metadata>
  <g
     style="display:inline"
     inkscape:label="Layer 1"
     inkscape:groupmode="layer"
     id="layer1">
    <path
       sodipodi:nodetypes="ssssssscsccsssssssscscssssssssss"
       id="path2070"
       d="M 178.54419,5.6628854 C 125.7661,8.2340885 72.709109,24.457699 27.01199,51.023511 c -47.722676,27.74336 -9.38394,81.527669 22.909445,105.261099 35.469747,26.06783 76.156485,50.12828 122.661145,39.87921 30.31104,-6.68018 97.49785,-22.77815 100.2729,-1.54174 8.45869,64.73121 -60.53313,143.27337 -32.7012,218.07256 22.82142,61.33329 75.06098,117.01829 144.90038,122.05428 191.88251,13.83627 382.1452,-22.34782 573.57113,-25.63179 161.05501,16.80943 788.60101,50.31228 790.38081,-8.80406 1.1473,-38.10662 -356.8398,-107.72764 -395.6675,-117.39141 C 1085.1779,303.90538 649.7602,374.89642 367.58896,344.09499 386.55483,276.55185 422.83212,217.65981 414.38651,147.22368 407.71236,91.561402 346.85641,70.73712 300.56251,58.092804 256.18645,45.97231 226.46727,3.3282047 178.54419,5.6628854 Z m 0,58.5329456 c 36.35572,8.372068 65.02712,38.972749 102.802,49.497849 31.78766,8.8569 83.99532,20.66146 73.08964,67.18863 -14.55276,62.08688 -56.30096,122.17802 -43.21433,187.15874 9.55176,47.42862 69.67244,44.37401 107.52197,44.07678 315.819,-2.48013 653.55403,-27.2912 781.17283,-8.26685 128.7536,22.21174 418.9073,67.57794 421.9462,83.82255 3.0389,16.24462 -496.5998,-23.97987 -530.3155,-24.13716 -207.87448,-26.27692 -596.88881,33.88744 -721.79929,9.95834 -48.01154,-9.19757 -82.26784,-68.3422 -78.04466,-117.40055 5.6004,-65.0568 56.89725,-125.45006 37.64521,-191.14641 C 314.65678,114.81401 250.16909,131.32393 209.9907,133.36908 167.99711,135.50663 127.75724,146.57698 90.266226,113.58056 47.545373,75.981273 172.25731,62.748075 178.54419,64.195831 Z m -8.91254,16.128941 c -19.9586,-0.595983 -72.032444,24.222668 -24.31267,24.437928 16.88436,0.0761 78.45592,11.06468 40.29269,-15.257217 -5.02463,-3.465591 -9.56405,-8.989124 -15.98002,-9.180711 z"
       style="color:#000000;display:inline;overflow:visible;visibility:visible;fill:#000000;fill-opacity:1;fill-rule:evenodd;stroke:none;stroke-width:59.3325;stroke-linecap:butt;stroke-linejoin:round;stroke-miterlimit:4;stroke-dashoffset:0;stroke-opacity:1;marker:none;marker-start:none;marker-mid:none;marker-end:none" />
  </g>
</svg>
