<?xml version="1.0" encoding="UTF-8" standalone="no"?>
<svg
   width="1797.0566"
   height="1074.2726"
   version="1.1"
   id="svg41950"
   xmlns="http://www.w3.org/2000/svg"
   xmlns:svg="http://www.w3.org/2000/svg">
  <defs
     id="defs41954" />
  <path
     id="path41948"
     style="fill:#000000;stroke:none;stroke-width:76.863"
     d="m 605.8711,0 c -18.87436,1.077286 -33.03741,15.481371 -49.42578,23.53125 -68.40769,40.467883 -120.92204,88.72383 -167.53089,154.61101 -24.11541,34.23581 -56.65285,71.71278 -57.55505,113.8636 0.40104,0.011 0.80208,0.0222 1.20312,0.0332 -39.98692,21.8363 -79.14814,47.29925 -115.04101,82.08203 C 167.81708,422.80073 114.78182,469.17434 58.416016,513.24219 19.472357,530.66433 0,549.36927 0,569.35352 c 0,19.98424 8.1983769,37.66268 24.595703,53.03515 -7.686247,16.39737 -11.529297,29.46331 -11.529297,39.19922 0,26.64565 26.389063,52.01216 79.167969,76.0957 54.316185,22.54635 120.931605,38.68792 199.843755,48.42383 2.86131,2.20874 5.98663,4.18151 8.9414,6.30664 33.49542,154.65353 167.57751,238.96614 227.75391,277.18554 10.35126,6.5713 23.65933,6.183 33.6098,-0.9808 9.95047,-7.1635 14.54094,-19.6609 11.59333,-31.5622 L 534.38086,877.31836 c 27.13854,5.29812 56.34365,9.82096 88.20899,12.55273 118.62101,10.16923 228.34705,8.1513 338.96679,0 34.56096,-2.54671 64.19536,-6.77634 91.87496,-13.32812 21.5965,54.64866 68.8511,95.97275 121.959,119.25781 59.2405,27.14162 124.3445,35.54742 187.7402,47.61132 34.8642,12.5984 54.4616,-38.8259 24.4707,-56.04687 -62.0482,-66.73316 -134.4912,-108.43874 -161.6621,-189.66601 59.3668,-37.08497 119.5852,-77.68675 180.6523,-86.91797 108.12,0 205.4818,45.86148 292.0801,137.58398 65.5898,-101.45841 98.3848,-193.18137 98.3848,-275.16796 0,-83.01151 -37.6632,-181.1427 -112.9883,-294.38672 -96.8467,76.86247 -174.2241,122.72588 -232.1269,137.58593 -75.3257,0 -116.9416,-14.14205 -137.584,-27.67187 -50.2914,-32.96287 -95.1321,-67.28577 -140.7266,-92.56055 31.1636,-60.13701 81.1337,-108.12688 129.1621,-155 12.9914,-13.10868 27.5482,-24.73466 39.5567,-38.74804 12.179,-17.871277 -0.8942,-44.541979 -22.4805,-45.861333 -23.4762,2.62564 -46.6635,8.112674 -70.0606,11.75586 -71.7461,13.028621 -146.5024,32.706343 -201.6074,83.246093 -23.098,21.15202 -41.3,47.6534 -52.40227,76.95899 -74.43335,-14.40739 -158.47736,-20.14967 -228.29492,-21.4004 -40.08025,-0.34286 -80.7525,0.30854 -118.01172,4.05664 -28.31115,2.90878 -57.62599,6.0538 -86.83594,9.91602 C 579.2866,157.84883 611.39267,94.319806 632.05469,40.734375 639.66827,22.553817 625.58288,0.62805 605.8711,0 Z m -61.52149,101.41602 c -14.72632,46.29021 -39.20941,89.04323 -47.53515,130.25585 -35.83316,6.96011 -69.89882,16.18693 -100.25782,28.82618 10.98448,-38.63204 46.90175,-78.17393 76.29346,-104.98495 24.70822,-22.69073 43.23836,-36.1182 71.49951,-54.09708 z m 679.00779,33.70117 c -39.7284,40.15821 -77.6622,83.61833 -103.4922,134.14258 -21.8068,-9.72693 -43.7206,-18.04231 -65.7305,-25.10743 17.0895,-40.85905 54.4623,-69.9493 94.7988,-86.25 23.9299,-10.17524 49.0613,-17.2179 74.4239,-22.78515 z m -465.48826,126.7832 c 120.93034,1.53726 210.86094,10.50503 269.78906,26.90234 58.9276,16.39737 124.006,51.49898 195.2324,105.30274 71.2257,54.31612 138.0967,81.47461 200.6113,81.47461 43.0432,33.81945 64.5645,65.07806 64.5645,93.77344 0,29.20774 -13.3217,58.67242 -39.9668,88.39257 -92.7474,11.7856 -179.3489,45.09328 -259.7989,99.92188 -79.4244,54.31611 -166.2798,81.47461 -260.56437,81.47461 -179.73721,5.2958 -295.58548,-0.91058 -465.79101,-32.28321 -57.90312,-16.39731 -94.28442,-30.23274 -109.14454,-41.50585 6.14904,0 16.14129,-3.07369 29.97657,-9.22266 58.9279,-25.10844 88.39257,-78.40076 88.39258,-159.875 h -27.67188 c 0,40.99333 -11.52913,75.32561 -34.58789,102.99609 -22.54634,29.20775 -55.85403,43.8125 -99.92188,43.8125 C 172.17307,720.51817 90.440581,693.35773 63.794922,661.58789 c 32.794657,-7.17381 48.681088,-14.09056 47.656248,-20.75195 1.02484,-11.27318 -2.30595,-18.19181 -9.99218,-20.75391 -7.17385,-1.02484 -23.31542,-15.37249 -48.423834,-43.04297 6.149,-5.12414 13.065707,-9.47953 20.751953,-13.0664 28.695331,32.79462 50.730991,52.26704 66.103521,58.41601 14.86005,6.14904 22.28906,13.57994 22.28906,22.29102 0,8.71107 -7.42901,12.04186 -22.28906,9.99218 -15.37253,-2.56203 -23.06055,1.79324 -23.06055,13.06641 0,11.27318 16.39869,22.29003 49.19336,33.05078 32.79468,10.76076 74.30076,16.14063 124.51758,16.14063 75.3252,0 112.98828,-33.30768 112.98828,-99.92188 0,-16.39731 -2.56135,-38.43108 -7.68555,-66.10156 L 381.24024,554.75 c 4.61171,21.00909 6.91797,39.71206 6.91797,56.10937 0,58.92796 -32.54032,88.39258 -97.61719,88.39258 -54.31619,0 -94.54061,-4.35533 -120.67383,-13.0664 -26.64564,-8.71107 -37.91967,-15.62971 -33.82031,-20.75391 26.13322,4.09936 39.19922,-2.04989 39.19922,-18.44727 0,-15.37247 -9.48006,-27.67104 -28.43946,-36.89453 C 128.35966,600.86635 107.6076,582.93275 84.548828,556.28711 138.86501,520.93033 189.33887,480.70396 235.96875,435.61133 282.08628,390.51864 340.5033,350.54937 411.2168,315.70508 481.41787,281.37314 596.97034,263.43765 757.86914,261.90039 Z m 903.14056,90.69922 c 59.4407,71.73833 89.1602,144.75823 89.1602,219.05859 0,73.78802 -21.5213,140.91766 -64.5645,201.38282 -36.3811,-28.69539 -65.3344,-49.44934 -86.8554,-62.25977 -21.0093,-12.29801 -55.5983,-25.36597 -103.7657,-39.20117 29.2079,-32.79468 43.8125,-67.38212 43.8125,-103.76367 0,-35.35678 -23.3151,-73.78917 -69.9453,-115.29493 69.1761,-19.98424 133.2306,-53.29198 192.1582,-99.92187 z M 269.78907,448.67773 c -12.81043,0 -23.82723,4.86761 -33.05079,14.60352 -9.73591,9.2235 -14.60546,19.98526 -14.60546,32.2832 0,12.81044 4.86955,23.82729 14.60546,33.05078 9.22356,9.73592 20.24036,14.60352 33.05079,14.60352 12.29795,0 23.31487,-4.8676 33.05078,-14.60352 9.22349,-9.22349 13.83593,-20.24034 13.83593,-33.05078 0,-12.29794 -4.61244,-23.0597 -13.83593,-32.2832 -9.73591,-9.73591 -20.75283,-14.60352 -33.05078,-14.60352 z m 0,15.37305 c 8.71107,0 16.14002,3.07362 22.28906,9.22266 6.66139,6.14898 9.99219,13.57994 9.99219,22.29101 0,10.24834 -3.3308,18.44667 -9.99219,24.59571 -6.14904,6.66139 -13.57799,9.99218 -22.28906,9.99218 -8.71114,0 -16.65432,-3.33079 -23.82813,-9.99218 -6.6614,-6.14904 -9.99219,-14.34737 -9.99219,-24.59571 0,-8.71107 3.33079,-16.14203 9.99219,-22.29101 7.17381,-6.14904 15.11699,-9.22266 23.82813,-9.22266 z m 0,3.84375 c -7.6863,0 -14.09267,2.81852 -19.2168,8.45508 -5.1242,5.63655 -7.68555,12.04103 -7.68555,19.21484 0,7.6863 2.56135,14.34776 7.68555,19.98438 5.12413,5.63655 11.5305,8.45508 19.2168,8.45508 7.68623,0 14.34782,-2.81853 19.98437,-8.45508 5.63655,-5.63662 8.45508,-12.29808 8.45508,-19.98438 0,-7.17381 -2.81853,-13.57829 -8.45508,-19.21484 -5.63655,-5.63656 -12.29814,-8.45508 -19.98437,-8.45508 z m 0,9.22266 c 5.12414,0 9.47953,1.79392 13.0664,5.38086 3.58694,4.09929 5.38086,8.45469 5.38086,13.0664 0,6.66146 -1.79392,11.78611 -5.38086,15.37305 -3.58687,3.58694 -7.94226,5.38086 -13.0664,5.38086 -5.1242,0 -9.47947,-1.79392 -13.06641,-5.38086 -4.09936,-3.58694 -6.15039,-8.71159 -6.15039,-15.37305 0,-4.61171 2.05103,-8.96711 6.15039,-13.0664 3.58694,-3.58694 7.94221,-5.38086 13.06641,-5.38086 z m 405.06836,73.78906 c -59.95281,0 -122.7251,8.19839 -188.31446,24.5957 v 92.23633 c 81.47425,21.00909 156.80033,31.51367 225.97656,31.51367 77.88739,0 157.05646,-22.54799 237.50586,-67.64062 C 942.85157,625.46229 919.281,610.34727 879.3125,586.26367 839.85644,562.69255 771.70415,550.90625 674.85743,550.90625 Z m 0,35.35742 c 64.05204,0 128.87353,13.32311 194.46289,39.96875 -41.50576,27.67048 -93.77352,41.50586 -156.80079,41.50586 -46.11746,0 -108.37761,-9.48005 -186.77734,-28.43945 v -36.125 c 49.19198,-11.27317 98.89841,-16.91016 149.11524,-16.91016 z M 1174.1269,828.3418 c 25.8469,52.11995 64.6656,96.72717 105.3672,137.86914 -79.8528,-14.5546 -139.0885,-41.8417 -168.6211,-107.80469 20.5485,-8.09678 41.2581,-18.01362 63.2539,-30.06445 z m -805.11713,2.33007 c 32.39912,13.82182 69.72966,23.20088 99.73828,31.2461 l 28.67188,115.67578 C 445.96482,941.68365 406.91166,893.17206 369.00977,830.67187 Z" />
</svg>
