<?xml version="1.0" encoding="UTF-8" standalone="no"?>
<svg
   width="2327.5261"
   height="1272.3301"
   version="1.1"
   id="svg142"
   xmlns="http://www.w3.org/2000/svg"
   xmlns:svg="http://www.w3.org/2000/svg">
  <defs
     id="defs146" />
  <path
     style="fill:#000000;stroke:none;stroke-width:100"
     d="m 1710,419.33004 c 113.092,-172.81665 198.5574,-260.43198 219.8907,-281.09865 -36,-31.33333 -94.7033,-69.963335 -250.78,-97.637332 C 1526.8522,11.225908 1257.2708,-2.3422841 990.00004,0.33003668 832.00001,2.9967034 695.66667,15.66337 581,38.330037 L 493,262.33004 c -75.33333,29.33333 -145.33333,75.33333 -210,138 -64.66667,63.33333 -133.66667,123.66667 -207,181 -50.666666,22.66667 -76,47 -76,73 0,26 10.666667,49 32,69 -10,21.33333 -15,38.33333 -15,51 0,34.66667 34.333334,67.66667 103,99 70.66667,29.33333 157.33333,50.33333 260,63 38,29.33333 82.33333,53.00003 133,71.00006 72,21.3333 171,42.6667 297,64 101.33333,59.3333 201.6667,106 301,140 62.6667,19.3333 152,39.6667 268,61 l -128,-201 c 40.6667,0 78.502,-8.7107 189.8353,-46.044 86.6667,44 190.6667,83.3333 312,118 120.6667,32.6667 208,49 262,49 0,-32.6667 -9,-67 -27,-103 -18,-38 -83.3333,-118.33334 -196,-241.00006 135.6887,-36.50533 369.184,172.85036 523.0359,207.29206 13.8934,-7.3091 15.7698,-40.6853 8.444,-56.81254 -63.0369,-138.7705 -188.8646,-258.41429 -188.8646,-352.59808 0,-96.73203 122.7765,-245.08159 186.7736,-347.70059 8.1305,-13.03715 0.6191,-41.35348 -5.7694,-48.8149 -213.0816,59.80849 -357.8201,159.55038 -426.4548,205.67805 -98,0 -157.6667,-12 -179,-36 z m -1214,216 c 6,27.33333 9,51.66667 9,73 0,76.66667 -42.33333,115 -127,115 -70.66667,0 -123,-5.66667 -157,-17 -34.66667,-11.33333 -49.33333,-20.33333 -44,-27 34,5.33333 51,-2.66667 51,-24 0,-20 -12.33333,-36 -37,-48 -24,-12 -51,-35.33333 -81,-70 70.66667,-46 136.33333,-98.33333 197,-157 60,-58.66667 136,-110.66667 228,-156 91.33333,-44.66667 241.66667,-68 451,-70 157.3333,2 274.3333,13.66667 351,35 76.6667,21.33333 161.3333,67 254,137 92.6667,70.66667 179.6667,106 261,106 56,44 84,84.66667 84,122 0,38 -17.3333,76.33333 -52,115 -120.6667,15.33333 -271.498,68.62267 -376.1647,139.956 -103.3333,70.66672 -178.1686,96.04406 -300.8353,96.04406 -122.6667,0 -247,-22.00001 -373,-66.00006 l -32,51 v 3 c -26,0 -93,-10 -201,-30 -75.33333,-21.33333 -122.66667,-39.33333 -142,-54 8,0 21,-4 39,-12 76.66667,-32.66667 115,-102 115,-208 h -36 c 0,53.33333 -15,98 -45,134 -29.33333,38 -72.66667,57 -130,57 -178,-29.33333 -284.33333,-64.66667 -319,-106 42.66667,-9.33333 63.33333,-18.33333 62,-27 1.33333,-14.66667 -3,-23.66667 -13,-27 -9.33333,-1.33333 -30.33333,-20 -63,-56 8,-6.66667 17,-12.33333 27,-17 37.33333,42.66667 66,68 86,76 19.33333,8 29,17.66667 29,29 0,11.33333 -9.66667,15.66667 -29,13 -20,-3.33333 -30,2.33333 -30,17 0,14.66667 21.33333,29 64,43 42.66667,14 96.66667,21 162,21 98,0 147,-43.33333 147,-130 0,-21.33333 -3.33333,-50 -10,-86 z m 1160,-253 c -139.3333,-104.66667 -282,-165.66667 -428,-183 -146.6667,-17.33333 -274.33333,-21 -383,-11 -108.66667,10 -200.66667,28 -276,54 l 61,-142 c 80.66667,-20.000002 201.00001,-31.66667 361.00004,-35.000003 288.53676,4.487547 627.31976,19.666214 830.89066,84.901353 -6.6667,9.33333 -79.11,83.93399 -165.8907,232.09865 z m 255,120 c 92.5641,-42.66667 190,-92.41025 274.359,-137.69231 -59.2707,101.00442 -130.2416,184.5084 -130.2416,281.17507 0,96 107.2889,223.45045 176.5467,307.05308 C 2135.5384,898.31561 2021.4721,833.3071 1945,787.33004 c 38,-42.66667 57,-87.66667 57,-135 0,-46 -30.3333,-96 -91,-150 z m -675,233 c -9.3333,-8 -40,-27.66667 -92,-59 -51.3333,-30.66667 -140,-46 -266,-46 -78,0 -159.66667,10.66667 -245,32 v 120 c 106,27.33333 204,41 294,41 101.3333,0 204.3333,-29.33333 309,-88 z m 261.8353,259.956 c 134,-90 213.3333,-135 238,-135 120.6667,129.33339 191,222.00006 211,278.00006 -200,-44.6667 -349.6667,-92.3334 -449,-143.00006 z M 684,745.33004 v -47 c 64,-14.66667 128.66667,-22 194,-22 83.33333,0 167.6667,17.33333 253,52 -54,36 -122,54 -204,54 -60,0 -141,-12.33333 -243,-37 z m 175,275.00006 c 117.33333,34 223.6667,51 319,51 8,6.6667 39,46.6667 93,120 -68.6667,-14.6667 -125,-31 -169,-49 -67.3333,-22.6667 -148.33333,-63.3333 -243,-122 z M 289,558.33004 c 0,16.66667 6.33333,31 19,43 12,12.66667 26.33333,19 43,19 16,0 30.33333,-6.33333 43,-19 12,-12 18,-26.33333 18,-43 0,-16 -6,-30 -18,-42 -12.66667,-12.66667 -27,-19 -43,-19 -16.66667,0 -31,6.33333 -43,19 -12.66667,12 -19,26 -19,42 z m 18,0 c 0,-11.33333 4.33333,-21 13,-29 9.33333,-8 19.66667,-12 31,-12 11.33333,0 21,4 29,12 8.66667,8 13,17.66667 13,29 0,13.33333 -4.33333,24 -13,32 -8,8.66667 -17.66667,13 -29,13 -11.33333,0 -21.66667,-4.33333 -31,-13 -8.66667,-8 -13,-18.66667 -13,-32 z m 9,0 c 0,10 3.33333,18.66667 10,26 6.66667,7.33333 15,11 25,11 10,0 18.66667,-3.66667 26,-11 7.33333,-7.33333 11,-16 11,-26 0,-9.33333 -3.66667,-17.66667 -11,-25 -7.33333,-7.33333 -16,-11 -26,-11 -10,0 -18.33333,3.66667 -25,11 -6.66667,7.33333 -10,15.66667 -10,25 z m 10,0 c 0,-6 2.66667,-11.66667 8,-17 4.66667,-4.66667 10.33333,-7 17,-7 6.66667,0 12.33333,2.33333 17,7 4.66667,5.33333 7,11 7,17 0,8.66667 -2.33333,15.33333 -7,20 -4.66667,4.66667 -10.33333,7 -17,7 -6.66667,0 -12.33333,-2.33333 -17,-7 -5.33333,-4.66667 -8,-11.33333 -8,-20 z"
     id="path140" />
</svg>
