<?xml version="1.0" encoding="UTF-8" standalone="no"?>
<svg
   width="18"
   height="6.4400001"
   version="1.1"
   id="svg4"
   sodipodi:docname="US9K29XT.svg"
   inkscape:version="1.2.1 (9c6d41e410, 2022-07-14)"
   xmlns:inkscape="http://www.inkscape.org/namespaces/inkscape"
   xmlns:sodipodi="http://sodipodi.sourceforge.net/DTD/sodipodi-0.dtd"
   xmlns="http://www.w3.org/2000/svg"
   xmlns:svg="http://www.w3.org/2000/svg">
  <defs
     id="defs8">
    <pattern
       id="EMFhbasepattern"
       patternUnits="userSpaceOnUse"
       width="6"
       height="6"
       x="0"
       y="0" />
  </defs>
  <sodipodi:namedview
     id="namedview6"
     pagecolor="#ffffff"
     bordercolor="#000000"
     borderopacity="0.25"
     inkscape:showpageshadow="2"
     inkscape:pageopacity="0.0"
     inkscape:pagecheckerboard="0"
     inkscape:deskcolor="#d1d1d1"
     showgrid="false"
     inkscape:zoom="54.103124"
     inkscape:cx="11.607463"
     inkscape:cy="5.9146307"
     inkscape:window-width="1920"
     inkscape:window-height="1017"
     inkscape:window-x="1072"
     inkscape:window-y="-8"
     inkscape:window-maximized="1"
     inkscape:current-layer="svg4" />
  <path
     style="color:#000000;fill:#000000;stroke-miterlimit:10;-inkscape-stroke:none"
     d="M 5.893769,0.04254435 C 4.0071398,0.64616225 2.4554385,1.9234284 0.87962897,3.0729998 0.32485754,3.3768708 -0.45495156,4.2579708 0.47775346,4.5425448 1.6986949,5.0368148 3.12382,4.8767278 4.240307,5.6422918 c 0.3801508,0.19546 0.8288641,0.642418 1.1619891,0.755662 0.1974193,-0.73435 0.3037594,-1.0583863 0.00757,-1.7635173 1.4630889,0.393824 2.3162058,0.1723911 3.6934199,-0.1686243 0.6883308,-0.03837 1.0118313,0.86209 1.6347133,1.113608 0.144384,0.08496 0.90307,0.343789 0.631257,-0.05354 -0.168079,-0.690263 -0.630589,-1.36804 -0.08906,-1.265085 1.514728,0.05944 3.1055,0.217326 4.409259,1.063455 0.709806,0.43203 1.429527,0.900152 2.272668,1.005412 -0.295036,-1.096235 -1.051164,-2.021031 -1.919482,-2.72581 -0.333384,-0.570075 0.589263,-1.0750585 0.828415,-1.567478 0.386875,-0.4615669 0.749658,-0.9422779 1.100836,-1.43132445 -1.483785,0.2250361 -2.931655,0.65809265 -4.287538,1.30364605 -0.98786,0.432095 -2.119751,0.4209258 -3.149966,0.1572915 0.328539,-0.7097792 0.893935,-1.27882985 1.203125,-2.00000005 -0.754173,0.1055112 -1.503938,0.310649 -2.1299865,0.7627141 C 8.7264337,1.3831424 8.6669894,1.4576243 7.7724151,1.3083348 6.9220757,1.2487308 6.0664225,1.2971275 5.2238472,1.4214507 5.5091948,0.99111185 5.7175814,0.52544035 5.893769,0.04254435 Z m 4.861328,0.7695313 C 10.441267,1.3203415 9.9937253,1.7851966 9.9093943,2.3999663 c 1.1048207,0.4930515 2.3946927,0.4118405 3.5349847,0.088719 0.96766,-0.3484784 1.881404,-0.8536988 2.904963,-1.0358135 0.374174,-0.1237469 0.594273,-0.1484055 0.239887,0.1887691 -0.366809,0.5995185 -1.098098,1.0676899 -1.128599,1.8167479 0.16136,0.629018 0.879933,0.8552 1.196164,1.396699 0.167622,0.215382 0.704184,0.899665 0.12062,0.523077 -0.957449,-0.448199 -1.830081,-1.122682 -2.90348,-1.283408 -1.08654,-0.239733 -2.201345,-0.356162 -3.314146,-0.32365 -0.245031,0.335362 0.188561,1.157344 0.0043,1.103067 C 10.116147,4.6451308 9.8856156,3.9297968 9.3354653,3.9923418 8.1402431,4.1025648 7.211636,4.540816 5.8007159,4.2013581 5.37883,4.1284591 4.9542652,4.0728951 4.5303449,4.0134881 5.0037218,4.5988861 5.1116592,4.9383498 5.0226715,5.6753598 4.3261487,5.1350228 3.5423402,4.6679048 2.6484861,4.5752238 1.9163637,4.4270988 1.1456814,4.3524508 0.46798758,4.0249238 0.90879737,3.5069858 1.5605526,3.2155498 2.0721814,2.7688788 2.9671163,2.0762872 3.9053179,1.4284453 4.9445503,0.97027875 4.7586741,1.2958756 4.5915131,1.6316498 4.4152534,1.9624663 5.8185678,1.6675248 7.2754988,1.6264061 8.6906441,1.8648103 9.3948152,1.5448552 10.004496,1.016045 10.755097,0.81207565 Z"
     id="path117"
     sodipodi:nodetypes="cccccccccccccccccccccccccccccccccccccccccccc" />
</svg>
