<?xml version="1.0" encoding="UTF-8" standalone="no"?>
<!-- Created with Inkscape (http://www.inkscape.org/) -->

<svg
   width="1795.3679"
   height="1074.2727"
   viewBox="0 0 1795.3679 1074.2727"
   version="1.1"
   id="svg570"
   xmlns="http://www.w3.org/2000/svg"
   xmlns:svg="http://www.w3.org/2000/svg">
  <defs
     id="defs567" />
  <path
     id="path41948"
     style="fill:#000000;stroke:none;stroke-width:76.863"
     d="m 605.87114,0 c -18.8744,1.07729 -33.0374,15.48137 -49.4258,23.53125 -68.4077,40.46788 -120.9221,88.72383 -167.53091,154.61101 -24.11541,34.23581 -56.65285,71.71278 -57.55505,113.8636 0.40104,0.011 0.80208,0.0222 1.20312,0.0332 -39.98692,21.8363 -79.14814,47.29925 -115.04101,82.08203 C 167.81708,422.80073 114.78182,469.17434 58.41602,513.24219 19.47236,530.66433 0,549.36927 0,569.35352 c 0,19.98424 8.19838,37.66268 24.5957,53.03515 -7.68624,16.39736 -11.52929,29.46336 -11.52929,39.19926 0,26.6456 26.38906,52.0121 79.16797,76.0957 54.31618,22.5463 120.9316,38.6879 199.84375,48.4238 2.86131,2.2087 5.98663,4.1815 8.9414,6.3066 33.49542,154.6536 167.57751,238.96617 227.75391,277.18557 10.3513,6.5713 23.6593,6.183 33.6098,-0.9808 9.9505,-7.1635 14.5409,-19.6609 11.5933,-31.5622 l -39.5957,-159.73827 c 27.1386,5.2982 56.3437,9.821 88.209,12.5528 118.621,10.1692 228.3471,8.1513 338.9668,0 34.561,-2.5467 64.19536,-6.7764 91.87496,-13.3282 21.5965,54.6487 68.8511,95.9728 121.959,119.2579 59.2405,27.14157 124.3445,35.54737 187.7402,47.61127 34.8642,12.5984 54.4616,-38.8259 24.4707,-56.04687 -62.0482,-66.7332 -134.4912,-108.4387 -161.6621,-189.666 59.3668,-37.085 119.5852,-77.6868 180.6523,-86.918 48.4555,0 124.2067,3.6708 177.675,43.7377 58.3069,43.6927 173.57,114.99626 210.9682,105.42296 -35.725,-116.34313 -157.954,-223.62951 -150.6999,-305.29455 12.2183,-137.55054 102.1831,-187.36223 150.8329,-286.1423 -160.7409,-50.92591 -295.8292,114.48146 -343.4265,147.89144 -75.3257,0 -116.9416,-14.14205 -137.584,-27.67187 -50.2914,-32.96287 -95.1321,-67.28577 -140.7266,-92.56055 31.1636,-60.13701 81.1337,-108.12688 129.1621,-155 12.9914,-13.10868 27.5482,-24.73466 39.5567,-38.74804 12.179,-17.87128 -0.8942,-44.54198 -22.4805,-45.86133 -23.4762,2.62564 -46.6635,8.11267 -70.0606,11.75586 -71.7461,13.02862 -146.5024,32.70634 -201.6074,83.24609 -23.098,21.15202 -41.3,47.6534 -52.40226,76.95899 -74.4334,-14.40739 -158.4774,-20.14967 -228.2949,-21.4004 -40.0803,-0.34286 -80.7525,0.30854 -118.0117,4.05664 -28.3112,2.90878 -57.626,6.0538 -86.836,9.91602 16.6304,-63.23906 48.7364,-126.76808 69.3985,-180.35351 C 639.66824,22.55382 625.58284,0.62805 605.87114,0 Z m -61.5215,101.41602 c -14.7263,46.29021 -39.2094,89.04323 -47.5352,130.25585 -35.8331,6.96011 -69.8988,16.18693 -100.2578,28.82618 10.98448,-38.63204 46.9018,-78.17393 76.2935,-104.98495 24.7082,-22.69073 43.2383,-36.1182 71.4995,-54.09708 z m 679.00776,33.70117 c -39.7284,40.15821 -77.6622,83.61833 -103.4922,134.14258 -21.8068,-9.72693 -43.7206,-18.04231 -65.7305,-25.10743 17.0895,-40.85905 54.4623,-69.9493 94.7988,-86.25 23.9299,-10.17524 49.0613,-17.2179 74.4239,-22.78515 z m -465.48826,126.7832 c 120.9303,1.53726 210.8609,10.50503 269.78906,26.90234 58.9276,16.39737 124.006,51.49898 195.2324,105.30274 71.2257,54.31612 138.0967,81.47461 200.6113,81.47461 43.0432,33.81945 64.5645,65.07806 64.5645,93.77344 0,29.20774 -13.3217,58.67242 -39.9668,88.39261 -92.7474,11.7856 -179.3489,45.0932 -259.7989,99.9218 -79.4244,54.3162 -166.2798,81.4747 -260.56436,81.4747 -179.7372,5.2957 -295.5855,-0.9106 -465.791,-32.2833 -57.90314,-16.3973 -94.28444,-30.2327 -109.14456,-41.5058 6.14904,0 16.14129,-3.0737 29.97657,-9.2227 58.92789,-25.1084 88.39259,-78.4007 88.39259,-159.87497 h -27.6719 c 0,40.99337 -11.5291,75.32557 -34.58788,102.99607 -22.54634,29.2078 -55.85403,43.8125 -99.92188,43.8125 -136.81521,-22.5463 -218.5477,-49.7067 -245.19336,-81.4765 32.79466,-7.1739 48.68109,-14.0906 47.65625,-20.752 1.02484,-11.27317 -2.30595,-18.1918 -9.99218,-20.7539 -7.17385,-1.02484 -23.31542,-15.37249 -48.42383,-43.04297 6.149,-5.12414 13.0657,-9.47953 20.75195,-13.0664 28.69533,32.79462 50.73099,52.26704 66.10352,58.41601 14.86005,6.14904 22.28906,13.57994 22.28906,22.29106 0,8.711 -7.42901,12.0418 -22.28906,9.9921 -15.37253,-2.562 -23.06055,1.7933 -23.06055,13.0665 0,11.2731 16.39869,22.29 49.19336,33.0507 32.79468,10.7608 74.30076,16.1407 124.51758,16.1407 75.3252,0 112.98828,-33.3077 112.98828,-99.92192 0,-16.39731 -2.56135,-38.43108 -7.68555,-66.10156 L 381.24024,554.75 c 4.61171,21.00909 6.91797,39.71206 6.91797,56.10937 0,58.92796 -32.54032,88.39256 -97.61719,88.39256 -54.31619,0 -94.54061,-4.3553 -120.67383,-13.0664 -26.64564,-8.711 -37.91967,-15.6297 -33.82031,-20.7539 26.13322,4.0994 39.19922,-2.0499 39.19922,-18.4473 0,-15.37243 -9.48006,-27.671 -28.43946,-36.89449 -18.44698,-9.22349 -39.19904,-27.15709 -62.25781,-53.80273 54.31618,-35.35678 104.79004,-75.58315 151.41992,-120.67578 46.11753,-45.09269 104.53455,-85.06196 175.24805,-119.90625 70.20104,-34.33194 185.75354,-52.26743 346.65234,-53.80469 z m 950.54596,53.59937 c -60.1033,77.92164 -110.7668,163.30815 -110.7668,237.60851 0,73.78802 27.9452,124.42886 106.507,226.11606 -62.4139,-52.7614 -135.5939,-111.0887 -209.171,-107.6442 29.2079,-32.7947 43.8125,-67.38217 43.8125,-103.76372 0,-35.35678 -23.3151,-73.78917 -69.9453,-115.29493 69.1761,-32.35086 160.0249,-156.34712 239.5636,-137.02172 z M 269.78907,448.67773 c -12.81043,0 -23.82723,4.86761 -33.05079,14.60352 -9.73591,9.2235 -14.60546,19.98526 -14.60546,32.2832 0,12.81044 4.86955,23.82729 14.60546,33.05078 9.22356,9.73592 20.24036,14.60352 33.05079,14.60352 12.29795,0 23.31487,-4.8676 33.05078,-14.60352 9.22349,-9.22349 13.83593,-20.24034 13.83593,-33.05078 0,-12.29794 -4.61244,-23.0597 -13.83593,-32.2832 -9.73591,-9.73591 -20.75283,-14.60352 -33.05078,-14.60352 z m 0,15.37305 c 8.71107,0 16.14002,3.07362 22.28906,9.22266 6.66139,6.14898 9.99219,13.57994 9.99219,22.29101 0,10.24834 -3.3308,18.44667 -9.99219,24.59571 -6.14904,6.66139 -13.57799,9.99218 -22.28906,9.99218 -8.71114,0 -16.65432,-3.33079 -23.82813,-9.99218 -6.6614,-6.14904 -9.99219,-14.34737 -9.99219,-24.59571 0,-8.71107 3.33079,-16.14203 9.99219,-22.29101 7.17381,-6.14904 15.11699,-9.22266 23.82813,-9.22266 z m 0,3.84375 c -7.6863,0 -14.09267,2.81852 -19.2168,8.45508 -5.1242,5.63655 -7.68555,12.04103 -7.68555,19.21484 0,7.6863 2.56135,14.34776 7.68555,19.98438 5.12413,5.63655 11.5305,8.45508 19.2168,8.45508 7.68623,0 14.34782,-2.81853 19.98437,-8.45508 5.63655,-5.63662 8.45508,-12.29808 8.45508,-19.98438 0,-7.17381 -2.81853,-13.57829 -8.45508,-19.21484 -5.63655,-5.63656 -12.29814,-8.45508 -19.98437,-8.45508 z m 0,9.22266 c 5.12414,0 9.47953,1.79392 13.0664,5.38086 3.58694,4.09929 5.38086,8.45469 5.38086,13.0664 0,6.66146 -1.79392,11.78611 -5.38086,15.37305 -3.58687,3.58694 -7.94226,5.38086 -13.0664,5.38086 -5.1242,0 -9.47947,-1.79392 -13.06641,-5.38086 -4.09936,-3.58694 -6.15039,-8.71159 -6.15039,-15.37305 0,-4.61171 2.05103,-8.96711 6.15039,-13.0664 3.58694,-3.58694 7.94221,-5.38086 13.06641,-5.38086 z m 405.06837,73.78906 c -59.9528,0 -122.7251,8.19839 -188.3145,24.5957 v 92.23638 c 81.4743,21.009 156.8004,31.5136 225.9766,31.5136 77.8874,0 157.0565,-22.548 237.5059,-67.6406 -7.1739,-6.14904 -30.7444,-21.26406 -70.7129,-45.34766 -39.4561,-23.57112 -107.6084,-35.35742 -204.4551,-35.35742 z m 0,35.35742 c 64.052,0 128.8735,13.32311 194.4629,39.96875 -41.5058,27.67051 -93.7735,41.50591 -156.8008,41.50591 -46.1175,0 -108.3776,-9.4801 -186.7773,-28.4395 v -36.125 c 49.1919,-11.27317 98.8984,-16.91016 149.1152,-16.91016 z m 499.26946,242.07816 c 25.8469,52.1199 64.6656,96.7271 105.3672,137.8691 -79.8528,-14.5546 -139.0885,-41.8417 -168.6211,-107.8047 20.5485,-8.0968 41.2581,-18.0136 63.2539,-30.0644 z m -805.11713,2.33 c 32.39912,13.8219 69.72967,23.2009 99.73827,31.2461 l 28.6719,115.6758 c -51.4551,-35.9101 -90.50828,-84.4217 -128.41017,-146.9219 z" />
</svg>
