<?xml version="1.0" encoding="UTF-8" standalone="no"?>
<!-- Created with Inkscape (http://www.inkscape.org/) -->

<svg
   width="1797.6191"
   height="1133.4513"
   viewBox="0 0 1797.6191 1133.4513"
   version="1.1"
   id="svg10448"
   xmlns="http://www.w3.org/2000/svg"
   xmlns:svg="http://www.w3.org/2000/svg">
  <defs
     id="defs10445" />
  <path
     id="path1126"
     style="fill:#000000;stroke:none;stroke-width:86.9402"
     d="m 141.07616,0 c -21.9535,0 -40.1797,18.22617 -40.1797,40.17969 0,21.95351 18.2262,40.17968 40.1797,40.17968 21.9535,0 40.1797,-18.22617 40.1797,-40.17968 C 181.25586,18.22617 163.02966,0 141.07616,0 Z m 123.7988,31.35937 c -14.6845,-0.9655 -23.3728,3.86105 -25.9609,13.51953 -6.6113,23.70528 9.0846,49.46971 -20.2363,50.63086 -1.3281,1.07347 -2.3108,1.07216 -2.9102,2.5293 -4.8696,15.06989 1.4775,35.00996 19.9004,57.1582 28.1269,44.89193 59.0939,75.71855 93.3418,93.75196 18.3174,30.39102 37.494,58.12367 57.0879,81.92577 -2.0354,30.047 -1.4938,52.115 0.7676,68.8652 1.5326,16.3665 14.8307,30.6301 38.1484,42.9082 18.9457,9.9759 31.3875,-2.1441 37.1719,-38.5156 7.0003,4.7233 12.2579,9.567 13.0117,15.1504 30.6695,89.7972 67.4597,152.7355 112.8438,189.0801 38.9566,29.8485 83.717,57.5676 134.7246,84.4257 8.7441,4.6043 18.2185,9.5921 27.6914,14.5801 -41.6552,-76.9104 -62.5709,-133.5659 -66.9629,-170.1094 10.6437,6.6418 21.2868,13.2847 31.4883,18.6563 10.9302,5.7554 21.4181,10.2405 32.6347,15.1094 16.7493,66.9079 34.5447,109.4719 54.2442,125.0312 61.9377,32.6137 127.3133,54.5898 197.29692,67.5821 69.25462,12.6086 109.54222,17.2246 114.90432,13.8242 -8.0154,-4.2207 -29.0665,-28.7897 -57.1934,-73.6817 86.6627,35.2597 156.1484,65.625 207.8848,92.8672 27.6897,14.5801 50.4352,28.6312 67.7929,40.8828 65.3346,103.901 275.5668,308.85591 296.0801,295.27731 -5.7278,-39.8016 -16.0804,-58.0618 -44.9609,-108.5371 -29.6094,-50.85891 -32.485,-95.47591 -66.25,-194.16401 80.2202,-34.5195 124.224,-58.2466 185.9609,-67.2305 61.0083,-9.3676 90.816,-19.7929 94.2422,-35.5117 -14.2633,-18.4163 -247.8384,-87.245 -402.8066,-90.4394 -16.423,0.6881 -40.8873,-8.0455 -72.9493,-24.9278 -32.7904,-17.2661 -87.2042,-57.3288 -164.414,-121.8418 -76.9233,-65.3994 -193.63804,-152.7874 -350.29894,-264.32221 26.7855,-22.20138 74.9384,-44.56139 141.545,-68.61523 C 813.16106,85.8525 693.72826,67.56711 589.51176,99.82422 539.98666,78.93303 499.93256,63.02938 466.74996,54.89258 c -32.8961,-9.02326 -90.7782,-14.60664 -168.9882,-15.33399 -13.1069,-4.95653 -24.076,-7.61992 -32.8868,-8.19922 z m -124.0156,8.60352 c 0,-0.003 0.049,0.0371 0.2168,0.0371 0.336,0 0.1797,-0.15627 0.1797,0.17969 0,0.33595 0.1563,0.17968 -0.1797,0.17968 -0.3359,0 -0.1797,0.15627 -0.1797,-0.17968 0,-0.16798 -0.04,-0.21387 -0.037,-0.2168 z m 127.957,25.8457 c 23.162,10.12146 58.2193,15.09625 101.8145,12.11914 45.0526,-2.20974 129.6602,28.85564 254.5508,93.58008 5.1007,2.68583 10.4871,4.48606 15.5879,7.17188 121.6894,64.07616 257.3252,156.2409 406.46294,275.2246 154.6808,122.9399 241.2082,190.2851 262.3398,201.4121 21.8603,11.5107 42.3938,19.2111 62.043,24.3711 5.7689,50.7532 -4.8054,88.7526 -32.8672,117.5429 -17.6441,-11.3652 -39.217,-23.7631 -63.9922,-36.8085 -66.3098,-34.9158 -159.1155,-77.5584 -278.69922,-127.0411 -165.17912,-69.3417 -283.61572,-122.3695 -351.38282,-158.0527 -61.9378,-32.6136 -113.855,-67.2124 -158.7969,-102.2871 18.4333,-35.9349 14.9742,-59.5383 -11.4141,-75.50779 -24.7751,-13.04544 -46.5854,-14.15653 -67.4609,-2.32812 -8.1712,-6.3772 -17.9539,-15.67886 -26.0195,-30.29883 42.5299,-12.87373 69.8623,-42.04885 83.039,-82.82617 0.4171,-3.92955 -0.181,-7.35587 -3.0957,-8.89063 -1.4573,-0.76738 -3.2015,-0.64838 -4.9453,-0.5293 -7.7039,0.0926 -13.1966,6.53572 -17.9355,18.5625 -10.7796,25.44286 -35.1172,42.71031 -72.1543,49.14063 l -7.1817,-12.08008 c 32.5093,-10.88906 54.3746,-28.42029 63.541,-56.78711 2.2916,-7.0917 0.081,-13.44289 -3.5625,-15.36133 l -0.7285,-0.38281 c -3.6434,-1.91845 -6.5324,1.74706 -9.5527,8.45508 -10.6489,22.39975 -26.7104,37.79898 -45.8672,44.30859 -9.5784,3.25482 -20.9271,1.43005 -32.5859,-4.70898 -11.6589,-6.13903 -23.9145,-15.70578 -37.4981,-29.08203 -27.8958,-27.13622 -40.0468,-44.94447 -36.6094,-55.58203 7.2868,3.83689 11.3475,1.82526 16.2422,-8.04493 4.6083,-8.98372 3.8042,-24.9666 -3.2715,-45.28906 z m 63.1797,18.875 c -2.2155,0.25966 -4.4289,1.17079 -6.9668,2.42774 -4.3469,2.89754 -8.4069,4.90802 -10.4121,11.11328 -1.7187,5.31877 -0.2363,11.28684 1.2461,17.2539 2.4976,5.46431 4.2665,10.54465 9.3672,13.23047 5.1008,2.68582 10.6189,1.44098 16.1367,0.19727 4.347,-2.89757 7.9649,-6.17925 9.6836,-11.49805 2.0052,-6.20524 0.9649,-10.90207 -0.5176,-16.86914 -2.9398,-6.73446 -6.4519,-11.69503 -11.5527,-14.38086 -2.5504,-1.34291 -4.7688,-1.73427 -6.9844,-1.47461 z m -0.6621,11.69531 c 1.1635,0.11019 2.4645,0.53535 3.9219,1.30274 5.1008,2.68583 6.8704,7.7674 4.8652,13.97266 -1.7187,5.31877 -6.0652,8.21513 -11.166,5.52929 -5.8294,-3.06951 -6.5839,-8.65192 -4.8652,-13.9707 1.5039,-4.65393 3.7538,-7.16454 7.2441,-6.83399 z m -256.8496,10.57227 c -21.9535,0 -40.17968,18.22617 -40.17968,40.17969 0,21.95352 18.22618,40.17969 40.17968,40.17968 21.953497,0 40.1797,-18.22616 40.1797,-40.17968 0,-21.95352 -18.226203,-40.17969 -40.1797,-40.17969 z m 628.7852,25.70703 c 46.6553,-0.0368 95.2936,8.26431 145.8476,23.99219 -22.3579,5.86133 -50.7818,19.93835 -83.5273,42.11328 -28.73,-19.27713 -60.9476,-38.31709 -94.4668,-55.9668 -5.1008,-2.68583 -9.4736,-4.98692 -13.8457,-7.28906 15.1088,-1.89868 30.4404,-2.83734 45.9922,-2.84961 z m -629.002,14.25586 c 0,-0.003 0.049,0.0371 0.2168,0.0371 0.336,0 0.1797,-0.15627 0.1797,0.17969 0,0.33595 0.1563,0.17969 -0.1797,0.17968 -0.3359,0 -0.1797,0.15627 -0.1797,-0.17968 0,-0.16798 -0.04,-0.21387 -0.037,-0.2168 z m -30.0527,81.11328 c -21.95354,0 -40.17971,18.22617 -40.17971,40.17969 0,21.95352 18.22617,40.17966 40.17971,40.17966 21.9535,0 40.1797,-18.22614 40.1797,-40.17966 0,-21.95352 -18.2262,-40.17969 -40.1797,-40.17969 z m -0.2168,39.96289 c 0,-0.003 0.049,0.0371 0.2168,0.0371 0.3359,0 0.1797,-0.15627 0.1797,0.17969 0,0.33596 0.1562,0.17969 -0.1797,0.17969 -0.336,0 -0.1797,0.15627 -0.1797,-0.17969 0,-0.16798 -0.04,-0.21387 -0.037,-0.2168 z m 400.2598,39.57036 c 7.4306,-0.2366 14.561,1.4432 21.1191,4.8964 0.7287,0.3837 0.7303,0.3839 1.459,0.7676 11.8146,8.2957 16.9394,16.1812 15.2207,21.5 -2.8645,8.8646 -7.6292,15.6917 -15.0215,20.0976 -14.5987,-12.8734 -29.9257,-26.1308 -45.6953,-40.6581 7.7567,-4.2141 15.4873,-6.367 22.918,-6.6035 z m -37.9942,45.3437 29.0664,28.789 c 6.7139,5.6098 9.082,14.1183 5.6446,24.7559 -3.7239,11.524 -7.6301,15.6918 -11.2735,13.7734 -14.5736,-7.6738 -23.2618,-30.9205 -23.4375,-67.3183 z m -366.084,10.3242 C 18.22617,363.22849 0,381.45459 0,403.40819 c 0,21.9535 18.22617,40.1797 40.17966,40.1797 21.9535,0 40.1797,-18.2262 40.1797,-40.1797 0,-21.9536 -18.2262,-40.1797 -40.1797,-40.1797 z m -0.2168,39.9629 c 0,0 0.049,0.037 0.2168,0.037 0.336,0 0.1797,-0.1563 0.1797,0.1797 0,0.3359 0.1563,0.1797 -0.1797,0.1797 -0.3359,0 -0.1797,0.1562 -0.1797,-0.1797 0,-0.168 -0.04,-0.2139 -0.037,-0.2168 z m 485.4082,50.8086 c 25.8154,17.7424 51.916,34.5973 78.1485,48.4101 12.3875,6.5227 25.0623,12.1606 37.7363,17.7969 8.6083,36.6889 20.1054,69.7127 33.1914,100.4609 -74.1946,-42.1793 -124.4671,-97.696 -149.0762,-166.6679 z m -485.1914,44.4316 C 18.22616,498.43159 0,516.65779 0,538.61129 c 0,21.9535 18.22616,40.1777 40.17966,40.1777 21.9535,0 40.1797,-18.2242 40.1797,-40.1777 0,-21.9535 -18.2262,-40.1797 -40.1797,-40.1797 z m -0.2168,39.9629 c 0,0 0.049,0.037 0.2168,0.037 0.336,0 0.1797,-0.1563 0.1797,0.1797 0,0.336 0.1563,0.1777 -0.1797,0.1777 -0.3359,0 -0.1797,0.1583 -0.1797,-0.1777 0,-0.168 -0.04,-0.2139 -0.037,-0.2168 z m 742.7618,48.0039 226.93754,94.5996 21.332,52.7246 c -80.02914,-16.2072 -150.50564,-40.8698 -213.17194,-73.8672 -18.2421,-14.7918 -29.404,-38.3029 -35.0976,-73.457 z m -742.545,37.1445 C 18.22617,623.54289 0,641.76919 0,663.72259 c 0,21.9536 18.22617,40.1797 40.17966,40.1797 21.9535,0 40.1797,-18.2261 40.1797,-40.1797 0,-21.9534 -18.2262,-40.1797 -40.1797,-40.1797 z m -0.2168,39.9629 c 0,0 0.049,0.037 0.2168,0.037 0.336,0 0.1797,-0.1562 0.1797,0.1797 0,0.336 0.1563,0.1797 -0.1797,0.1797 -0.3359,0 -0.1797,0.1563 -0.1797,-0.1797 0,-0.1679 -0.04,-0.2138 -0.037,-0.2168 z m 1368.42784,15.8379 c 101.5028,7.8057 179.5684,23.797 293.9512,49.795 -97.5226,3.6255 -154.7485,28.689 -228.8028,75.791 22.2369,89.5062 35.2337,152.937 94.2715,247.29871 -95.9945,-101.37381 -144.1291,-156.33741 -199.9961,-226.20891 26.8659,-35.6439 41.8926,-84.7822 40.5762,-146.6758 z M 40.17966,754.70899 C 18.22617,754.70899 0,772.93509 0,794.88869 c 0,21.9534 18.22617,40.1796 40.17966,40.1796 21.9535,0 40.1797,-18.2262 40.1797,-40.1796 0,-21.9536 -18.2262,-40.1797 -40.1797,-40.1797 z m -0.2168,39.9648 c 0,0 0.049,0.035 0.2168,0.035 0.336,0 0.1797,-0.1563 0.1797,0.1797 0,0.3358 0.1563,0.1796 -0.1797,0.1796 -0.3359,0 -0.1797,0.1562 -0.1797,-0.1796 0,-0.168 -0.04,-0.212 -0.037,-0.2149 z" />
</svg>
