<?xml version="1.0" encoding="UTF-8" standalone="no"?>
<svg
   width="2199.8438"
   height="1060.7007"
   version="1.1"
   id="svg1"
   xmlns="http://www.w3.org/2000/svg"
   xmlns:svg="http://www.w3.org/2000/svg">
  <defs
     id="defs1" />
  <path
     id="path1"
     style="fill:#000000;stroke:none;stroke-width:83.1488"
     d="M 563.37508,0 C 176.37766,0.98615 0,164.39143 0,530.25269 0,896.11408 173.52871,1059.7146 560.52613,1060.7007 H 1642.1668 c 386.9974,-0.99 557.6771,-164.58662 557.6771,-530.44801 C 2199.8439,164.39143 2032.0131,0.98615 1645.0157,0 Z m -5.38801,71.65894 H 1639.4324 c 317.8239,0 479.4922,142.53301 479.4922,458.59375 0,316.06069 -158.9339,461.32809 -476.7578,461.32809 H 560.52613 c -317.82397,0 -476.75783,-145.2674 -476.75783,-461.32809 0,-316.06074 156.39481,-458.59375 474.21877,-458.59375 z m 658.78913,178.51563 c -77.039,5.003 -165.9694,38.93376 -266.99226,101.5625 -50.27951,16.31448 -141.46922,26.91455 -273.24218,32.03125 -139.78617,-1.393 -239.63135,6.30598 -299.80469,22.85156 -78.37012,22.79388 -129.40203,49.83353 -153.125,81.25 -15.10189,26.55657 -17.3225,48.31049 -6.44531,65.23438 5.727,20.82937 17.71231,34.94751 35.9375,42.38282 77.03732,44.7848 147.51068,74.6393 211.32812,89.4531 63.81754,14.8137 100.55206,28.3296 110.15625,40.625 67.95243,79.6443 140.11943,113.4356 216.40625,101.1719 -12.90159,-28.8139 -12.30966,-55.7785 1.9531,-80.8594 l 324.21882,-8.984 c 2.314,-0.64 27.2747,13.0106 74.8047,41.0157 47.5299,28.0054 103.8763,43.1485 169.1406,45.1172 21.2076,-76.7777 53.2781,-121.2351 96.0937,-133.0079 23.1436,-6.364 45.1941,-5.215 66.211,3.32 21.0169,8.535 47.8366,13.2732 80.4687,14.2579 -47.9051,-56.5285 -34.4102,-84.3692 40.4297,-83.7892 112.3591,73.6573 222.2422,79.4836 329.6875,17.5781 -17.9356,-19.9617 -54.4677,-38.8619 -109.7656,-56.6406 -55.2977,-17.77878 -86.5545,-39.38588 -93.5547,-64.84375 -3.413,-21.46558 1.644,-38.38546 15.0391,-50.78125 13.3946,-12.39579 38.845,-31.90036 76.3671,-58.39844 37.5221,-26.49807 65.7146,-57.89286 84.375,-94.14062 -105.5916,-8.306 -213.084,31.27837 -322.2656,118.55468 -38.187,10.49799 -69.2327,10.40007 -93.3594,-0.391 -11.0211,-35.55436 -8.194,-70.02325 8.789,-103.32031 -61.967,14.54948 -138.1612,40.38951 -228.7109,77.73437 -45.5641,6.305 -84.4543,2.7689 -116.7969,-10.74218 -18.716,-40.90656 -11.2217,-90.38465 22.6563,-148.24219 z M 488.45582,433.18238 c 7.6975,-0.279 15.25032,-0.196 22.46094,0 28.84247,0.79 114.27242,0.986 256.05468,0.586 141.78236,-0.4 254.81376,5.874 339.25786,18.75 84.4442,12.87578 143.7281,21.08609 177.7343,24.80468 34.0062,3.718 89.6645,9.237 166.9922,16.60157 77.3276,7.365 117.0727,20.09205 119.5313,38.08593 2.14,16.83689 -17.3185,30.89182 -58.3985,42.1875 -41.0799,11.29559 -151.1208,32.60008 -330.4687,63.86718 -179.348,31.2666 -302.25606,46.5872 -368.3594,46.0938 -48.94835,-1.47706 -77.54182,-17.77966 -86.13281,-49.02356 32.51657,-3.962 80.41588,-17.2011 143.94531,-39.6484 63.52934,-22.44719 99.61783,-41.1058 108.00782,-55.85939 15.76676,-10.55909 0.33993,-18.70668 -46.09375,-24.60937 -131.97557,8.90599 -215.54659,-5.35999 -250.78125,-42.96875 -22.68128,26.15137 -30.21293,55.56198 -22.46094,88.28125 7.752,32.71926 9.8883,56.26036 6.4453,70.89846 -18.68898,22.5643 -66.6396,26.5039 -144.14062,11.7187 -144.90575,-33.5953 -214.2861,-59.24133 -208.0078,-77.14841 18.31218,-1.302 40.71722,-2.65594 67.1875,-3.71094 26.47037,-1.055 20.90479,-9.72399 -16.60157,-26.17187 -37.50616,-16.44739 -59.8541,-28.93661 -67.1875,-37.5 -7.33299,-8.563 0.84,-18.21048 24.60938,-29.10157 23.76577,-10.89109 53.95703,-19.98203 90.625,-26.95312 27.50104,-5.22825 52.68876,-8.34161 75.78125,-9.17969 z m -32.42188,36.52344 c -12.23709,-0.37 -21.02929,6.752 -26.36718,21.28906 -6.799,20.53948 -0.44,34.28896 18.94531,41.40625 20.22138,5.642 33.826,-1.7261 40.625,-22.26563 6.278,-17.90708 -0.34,-30.3828 -19.72657,-37.5 -4.846,-1.779 -9.398,-2.8067 -13.47656,-2.92968 z m 1184.57036,40.03906 c 25.2606,-0.65 50.9604,3.8211 76.9531,13.47656 -31.3309,17.32789 -63.8669,25.6667 -97.6562,25 9.229,-16.22898 7.824,-28.26362 -4.297,-36.13281 8.339,-1.359 16.5798,-2.1287 25,-2.3437 z m -250,148.2422 c -38.4481,36.7101 -64.759,70.167 -78.9063,100.1953 -40.9635,-8.651 -83.8207,-28.6871 -128.5156,-59.9609 87.7431,-20.3926 156.9112,-33.8137 207.4219,-40.2344 z" />
</svg>
