<?xml version="1.0" encoding="UTF-8" standalone="no"?>
<svg
   width="18"
   height="7.1999998"
   version="1.1"
   id="svg4"
   sodipodi:docname="US9K28XT2.svg"
   inkscape:version="1.2.1 (9c6d41e410, 2022-07-14)"
   xmlns:inkscape="http://www.inkscape.org/namespaces/inkscape"
   xmlns:sodipodi="http://sodipodi.sourceforge.net/DTD/sodipodi-0.dtd"
   xmlns="http://www.w3.org/2000/svg"
   xmlns:svg="http://www.w3.org/2000/svg">
  <defs
     id="defs8">
    <pattern
       id="EMFhbasepattern"
       patternUnits="userSpaceOnUse"
       width="6"
       height="6"
       x="0"
       y="0" />
  </defs>
  <sodipodi:namedview
     id="namedview6"
     pagecolor="#ffffff"
     bordercolor="#000000"
     borderopacity="0.25"
     inkscape:showpageshadow="2"
     inkscape:pageopacity="0.0"
     inkscape:pagecheckerboard="0"
     inkscape:deskcolor="#d1d1d1"
     showgrid="false"
     inkscape:zoom="63.082361"
     inkscape:cx="5.5483022"
     inkscape:cy="3.6143226"
     inkscape:window-width="1920"
     inkscape:window-height="1017"
     inkscape:window-x="1072"
     inkscape:window-y="-8"
     inkscape:window-maximized="1"
     inkscape:current-layer="svg4" />
  <g
     id="g330">
    <g
       id="g9055"
       transform="translate(-0.02241735,-8.7203488)">
      <g
         id="g9050"
         transform="translate(8.4065059,4.5283045)" />
    </g>
    <path
       id="path324"
       style="fill-rule:evenodd"
       d="M 3.4644866,1.8432337 A 0.28540394,0.2735121 0 0 1 3.1790826,2.1167458 0.28540394,0.2735121 0 0 1 2.8936787,1.8432337 0.28540394,0.2735121 0 0 1 3.1790826,1.5697216 0.28540394,0.2735121 0 0 1 3.4644866,1.8432337 Z M 7.4971139,0.2894168 C 6.9098607,0.4474924 6.1334955,0.7607958 5.7139107,1.3441042 5.3480967,1.2695153 5.0061396,1.1786297 4.6475046,1.1019168 3.8694787,1.0161587 3.0633761,0.9894104 2.3603952,0.9612918 1.999138,0.931221 1.6408316,0.8215513 1.3252388,0.7503543 0.70832213,0.5984679 0.4453046,0.7721278 0.0596139,1.0062136 c 0.37608436,0.6924946 0.9703815,1.1767976 1.4768915,1.6091966 0.1891556,0.154061 0.4246099,0.309042 0.5895154,0.427954 0.099243,0.06087 0.1865095,0.148947 0.2773436,0.224609 -0.2791375,0.132806 -0.5801975,0.268337 -0.8417968,0.494141 -0.3399706,0.293451 -0.60860067,0.700767 -0.5019532,1.167969 l 0.037109,0.158203 c 0.2276653,-0.04115 0.4220057,-0.05403 0.5917969,-0.04492 h 0.00195 c 0.7821939,0.0329 1.4949053,-0.186059 2.1894532,-0.240234 0.2425712,0.249143 0.4975007,0.474508 0.6796874,0.722656 0.4344482,0.591736 0.9808226,0.892553 1.4355469,1.152344 0.4043747,0.231024 0.6854463,0.336362 1.0546875,0.46289 l 0.00977,-0.255859 c 0.02093,-0.262913 0.01531,-0.446589 -0.052734,-0.738281 C 6.9388373,5.8551892 6.748347,5.5093092 6.61235,5.1722722 6.541742,5.0119662 6.523057,4.9711762 6.4756313,4.8656322 c 0.1369262,-0.0062 0.229372,-0.01159 0.3652343,-0.01563 0.3367088,0.322957 0.6697227,0.685535 1.2910157,0.875 0.3761484,0.114703 0.9902344,0.16211 0.9902344,0.16211 l 0.2910156,0.02539 -0.099609,-0.27539 c 0,0 -0.033619,-0.08992 -0.1191406,-0.232422 -0.2117612,-0.311725 -0.382671,-0.53022 -0.5800781,-0.796875 0.15935,-0.05737 0.3205782,-0.1197 0.4257812,-0.140625 0.748604,-0.154633 1.3668561,-0.515726 2.0527341,-0.382812 1.018603,0.144837 2.078917,0.164182 2.996069,0.267672 1.008743,0.191075 2.024696,0.199376 2.96875,0.433593 0.268133,0.07987 0.432317,0.128935 0.640625,0.144532 0.09498,-0.01251 0.178549,-0.06386 0.267578,-0.0957 -0.112961,-0.235598 -0.251681,-0.461894 -0.351539,-0.644668 -0.150544,-0.24488 -0.318233,-0.512864 -0.542969,-0.654297 -0.325816,-0.185272 -0.654452,-0.385079 -0.972656,-0.568359 0.247496,-0.452537 0.554835,-0.768582 0.841797,-1.021484 0.128248,-0.151292 0.248473,-0.308686 0.330078,-0.476563 0.11652,-0.2758149 0.06689,-0.4612223 0.105469,-0.7265624 -0.571653,0.076168 -1.145332,0.2474864 -1.619141,0.3828125 -0.495236,0.1528377 -0.990059,0.3023859 -1.316406,0.3281249 -0.807039,0.07419 -1.621354,0.266819 -2.336031,0.431641 -0.884855,0.207224 -1.741308,0.50759 -2.5937502,0.36914 C 9.2045606,2.1793602 8.869504,2.0830692 8.4951608,1.9202762 8.9714531,1.3144492 9.3054871,0.7356816 9.5850046,0.07262 8.8469304,0.0212749 8.0762502,0.133526 7.4971139,0.2894168 Z M 9.0088327,0.47887 C 8.7933945,0.936604 8.4789608,1.4507722 8.1670358,1.8030892 7.598837,1.6368172 6.6259994,1.5088612 6.0146921,1.4593392 6.5124709,1.0155745 6.9931323,0.7891109 7.6333254,0.6036918 8.0607553,0.4798953 8.5551302,0.4867293 9.0088327,0.47887 Z M 0.96195765,1.0960574 c 0.0961114,-0.00254 0.18903855,0.011594 0.28320305,0.021484 0.351542,0.036924 0.7233202,0.2030118 1.0878907,0.2167978 0.7794759,0.02948 1.5780828,0.0447 2.2421874,0.136718 0.4283101,0.05935 0.8585015,0.194526 1.2226563,0.275391 0.4604252,0.09549 1.901637,0.226031 2.2558594,0.382812 0.3542223,0.156783 0.9196235,0.416067 1.4257057,0.486582 0.9553138,0.133109 1.8806538,-0.158056 2.7110118,-0.365394 0.757399,-0.232465 1.568243,-0.331146 2.279272,-0.423922 0.403958,-0.03186 0.903309,-0.188992 1.398437,-0.341797 0.408663,-0.12612 0.770187,-0.2154816 1.080078,-0.2675784 0.01394,0.2652784 -0.166748,0.3629264 -0.292969,0.4843754 -0.231627,0.273243 -0.414696,0.420475 -0.583984,0.699219 -0.127182,0.132474 -0.285876,0.41519 -0.359375,0.578125 0.0085,0.201388 0.07878,0.22922 0.201172,0.326172 0.21656,0.166039 0.539318,0.28278 0.958984,0.546875 0.211394,0.17437 0.4082,0.449994 0.472655,0.626956 -0.0917,-0.02029 -0.118628,-0.0362 -0.185547,-0.05664 -1.029207,-0.26482 -2.116405,-0.276719 -3.011719,-0.441406 -1.014307,-0.122122 -2.064947,-0.181994 -2.978487,-0.263676 -0.842773,-0.171608 -1.5485002,0.206851 -2.2031251,0.382812 -0.479082,0.128775 -1.2932465,0.327849 -1.9252164,0.374942 -0.3246361,0.01717 -0.7923679,0.0061 -1.1333773,0.01177 -0.19593,-0.0043 -1.3161304,-0.03186 -1.9648438,-0.06836 -0.7916851,0.04624 -1.4387106,0.285105 -2.1699219,0.25 -0.062494,7.45e-4 -0.2111018,0.0081 -0.2675781,0.01172 0.018621,-0.220077 0.073993,-0.435372 0.3027343,-0.632813 0.2888426,-0.249315 0.6906045,-0.454499 0.9941407,-0.582031 L 3.0400827,3.3636352 C 2.8531867,3.0895142 2.5491903,2.9085532 2.3213327,2.7230102 2.1493271,2.6175052 2.0276925,2.5261022 1.8545357,2.3909792 1.382972,1.9736952 0.9764562,1.5958062 0.66312953,1.1741824 0.76654946,1.1178075 0.86584614,1.0985966 0.96195765,1.0960574 Z M 4.3779732,4.7659792 c 0.5999075,0.05109 1.2376724,0.07744 1.6777345,0.07813 0,0 0.084808,0.189673 0.2128905,0.480469 0.145751,0.323808 0.3225598,0.668458 0.3710938,0.90039 0.048534,0.231933 0.028848,0.259628 0.039063,0.351563 C 6.5508497,6.5233712 6.470711,6.5053912 6.2451613,6.3655942 5.6517664,5.9978112 5.244304,5.8233322 4.8623488,5.3030942 4.7146115,5.1018682 4.5458205,4.9310772 4.3779738,4.7659842 Z m 2.9491953,0.02867 c 0,0 0.7970277,-0.0683 0.9336291,-0.109277 0.16521,0.229733 0.3548866,0.55378 0.5058475,0.764248 -0.2056978,-0.02588 -0.3601493,-0.0336 -0.5253906,-0.08398 -0.3755707,-0.126124 -0.6349724,-0.367145 -0.914086,-0.570991 z" />
  </g>
</svg>
