<?xml version="1.0" encoding="UTF-8" standalone="no"?>
<svg
   width="1801.7787"
   height="1800"
   version="1.1"
   id="svg4036"
   xmlns="http://www.w3.org/2000/svg"
   xmlns:svg="http://www.w3.org/2000/svg">
  <defs
     id="defs4040" />
  <path
     id="path4034"
     style="fill:#000000;stroke:none;stroke-width:140.896"
     d="M 773.83914,20.787957 C 764.21761,12.968199 753.96469,5.7547811 741.96398,0 c 26.11195,59.436883 36.02471,114.56632 30.09019,165.70967 h -28.30518 l -19.63513,74.83662 h -30.3452 l -17.85011,84.93361 h -22.95016 c -2.37385,67.73045 -15.53214,140.27352 -39.27025,217.67952 L 42.2394,116.11556 c -115.15778,371.74591 5.299883,694.6851 359.55236,969.31234 14.10072,13.1748 31.55469,25.5901 41.82027,31.7759 19.01322,13.828 38.66879,27.4073 58.90539,40.982 v 0.2965 c -5.34112,10.713 -13.54299,24.5946 -24.22517,41.8728 -11.86915,16.587 -13.8349,28.6281 -6.12004,36.2304 7.71498,7.6025 17.45615,5.3133 29.3252,-7.1272 14.92975,-16.2283 25.98739,-32.9878 33.40521,-50.1876 23.91456,15.3984 47.92069,30.9641 73.44048,46.0305 l -103.27567,134.8246 65.79043,293.7863 23.20514,-8.3154 32.13022,66.5213 21.42014,-18.7091 47.94031,89.0911 24.99016,-35.3396 76.50051,51.9699 v -51.9694 l -35.70024,-30.8847 12.49509,-29.1033 C 662.26977,1667.8211 593.99792,1493.5294 569.07285,1366.3623 l 101.49067,-76.9155 c 23.73819,55.2904 72.52758,97.4821 146.11595,126.5096 15.42975,60.8184 43.28564,91.4669 83.64055,91.4669 40.35491,0 68.80892,-30.6485 85.42554,-91.4669 72.40144,-29.0275 120.59284,-71.2192 144.33094,-126.5096 l 101.4906,76.9155 c -23.7383,127.1671 -92.0101,301.4588 -204.7663,320.8106 l 14.2801,29.1033 -35.7002,30.8847 v 51.9699 l 76.5005,-51.9699 24.9901,35.3395 47.9403,-89.0911 21.4202,18.7092 32.1302,-66.5215 23.2051,8.3156 65.7905,-293.7868 -105.0607,-134.8246 c 26.1118,-15.4158 50.7913,-31.1579 75.2255,-46.9214 7.2659,17.5561 17.4124,34.5335 31.6202,51.0789 13.0559,12.4406 23.3954,14.7298 31.1102,7.1273 7.7149,-7.6024 5.746,-19.6434 -6.1194,-36.2304 -11.1499,-18.0294 -19.4042,-32.1804 -24.7352,-43.0607 25.4393,-17.0899 50.4453,-34.1822 73.9505,-51.6729 9.6994,-9.8498 21.2505,-16.6304 31.8757,-24.9456 349.5831,-273.58093 468.439,-594.99935 354.9623,-964.56089 l -571.4598,427.04391 c -23.7383,-77.406 -37.2396,-149.94907 -40.8003,-217.67952 h -21.4202 l -17.8501,-84.93361 h -30.3452 l -19.6351,-74.83662 h -28.3052 C 1024.4363,114.56632 1034.3491,59.436883 1060.461,0 c -18.5145,8.7076336 -33.7048,20.123367 -46.6653,33.557702 -4.4337,4.8921 -13.5476,16.340767 -14.28004,17.224263 -20.76546,29.630823 -31.62021,67.623285 -31.62021,114.927705 h -21.16514 c 34.42043,49.76099 72.18889,94.04279 113.73069,132.74589 40.3549,37.3209 65.4753,136.33241 74.9705,296.67374 l -49.9803,30.88495 c -2.3739,2.76456 -7.7566,-10.17281 -16.0651,-39.20013 -14.2428,-46.99666 -27.7442,-70.67902 -40.8003,-70.67902 l 12.4951,-10.39392 c 3.5609,-35.93915 -7.2051,-65.59305 -32.1302,-89.09127 l -5.3551,-43.35772 -42.84019,68.30326 c 5.93451,-34.55635 18.49466,-66.30027 37.48525,-95.32759 l 1.78504,-20.78796 c -18.9905,0 -30.95263,10.44804 -35.70024,31.18193 -10.68222,-13.82262 -24.18364,-24.2707 -40.80026,-31.18193 v 27.02434 h -12.49512 v -29.10313 h -21.42014 v 29.10313 H 878.89988 V 325.4799 c -16.61681,6.91123 -30.71623,17.35931 -42.58529,31.18193 -3.56082,-20.73373 -15.52287,-31.18193 -35.70023,-31.18193 l 3.57006,20.78796 c 17.80337,29.02732 30.36378,60.77124 37.48524,95.32759 l -42.84031,-68.30326 -5.35504,43.35772 c -24.92507,23.49822 -35.69085,53.15254 -32.13021,89.09121 l 12.49506,10.39392 c -14.24287,0 -28.34233,23.68236 -42.58528,70.67902 -8.3085,29.02733 -13.0932,41.96469 -14.28009,39.20014 l -49.9803,-30.8849 c 9.49523,-160.34133 34.61566,-259.35284 74.97049,-296.67374 40.35481,-38.7031 78.12355,-82.9849 113.73074,-132.74589 H 832.74456 C 832.74458,122.12595 823.76785,86.491282 806.4794,57.909292 794.98562,41.139412 778.31619,25.879653 773.83914,20.787957 Z M 65.444555,178.18243 173.82026,261.33423 c -57.21013,246.51656 63.87959,476.64894 361.84737,691.05086 -1.256,1.13276 -11.06138,12.72528 -11.9851,18.70909 l 28.77849,-2.73095 c 9.79559,11.7782 -37.14816,40.70017 -27.75849,51.73107 l 2.29499,-2.0788 h 24.48016 l -46.41025,55.8306 h 26.77518 l -27.28518,29.6971 c -12.47297,-8.9454 -23.23866,-16.1186 -34.68023,-24.0547 -8.52886,-7.1849 -27.11384,-20.832 -36.72022,-28.2128 C 98.167413,791.90234 -24.898855,500.834 65.444555,178.18243 Z m 1671.536045,0 c 88.6388,320.12149 -32.3783,609.02392 -361.5925,866.85747 -11.1251,7.9165 -20.7409,16.0364 -31.1113,24.0546 -15.169,11.3408 -31.1857,22.6363 -47.1754,33.8547 l -26.519,-29.1031 h 26.7752 l -46.4104,-55.8305 h 30.3452 c -31.5214,-25.20144 -32.0766,-26.81958 -49.7253,-41.57574 0.2716,-0.18549 0.4936,-0.40749 0.7651,-0.59451 20.1629,7.67255 38.7425,-7.48552 55.3353,-10.69148 0.2233,-0.14353 0.5379,-0.15965 0.7651,-0.29649 l -3.5701,-2.96923 c -5.4794,-4.23306 -11.0612,-7.83926 -16.5751,-11.87882 295.6021,-213.72722 416.1765,-443.07036 360.3173,-688.6751 z M 204.16546,281.8252 300.30109,356.66183 C 264.98415,512.95411 384.1094,684.93186 657.04842,872.49996 624.887,887.29756 594.65105,905.36784 566.52284,926.84561 269.2825,731.04488 148.16565,516.0724 204.16546,281.8252 Z m 1392.30914,0 c 55.9685,234.11774 -64.9663,449.00978 -361.8475,644.72343 -30.8997,-20.18756 -62.3878,-37.40939 -94.3506,-51.67289 C 1416.9044,686.36208 1536.9902,513.629 1500.339,356.66183 Z M 332.4313,381.31039 599.41805,590.97172 592.278,609.3839 c 11.86909,34.55634 51.0889,58.23871 117.55577,70.67903 v 120.27316 c -15.42984,0 -27.39188,11.54416 -35.70024,35.04253 C 416.57457,665.3616 302.75859,514.00685 332.4313,381.31039 Z m 1137.5625,0 c 29.6719,132.69646 -84.7414,284.05121 -343.4874,454.06823 -8.3083,-23.49817 -19.6723,-35.04253 -33.9152,-35.04253 V 680.06293 c 66.4669,-12.44032 105.6867,-36.12269 117.5558,-70.67903 l -7.1401,-18.41218 z m -671.16445,70.67904 c 11.86915,0 18.44843,6.26883 19.63512,18.70916 0,12.4405 -5.98099,19.80547 -17.85011,22.56975 -13.05608,-1.38211 -19.63512,-8.74722 -19.63512,-22.56975 0,-11.05807 5.98099,-17.32704 17.85011,-18.70916 z m 204.76625,0 c 10.6823,1.38212 16.6633,7.6511 17.8502,18.70916 -1.1868,13.8226 -7.7661,21.18775 -19.6352,22.56975 -11.86898,-2.76432 -17.85004,-10.12938 -17.85004,-22.56975 1.18689,-12.44035 7.76607,-18.70916 19.63504,-18.70916 z m -197.62621,62.06688 c 32.04648,5.5291 63.49095,8.3151 94.35063,8.3151 32.04646,0 64.08905,-2.78645 96.13562,-8.3151 v 8.3151 c -32.04657,12.4405 -64.08916,18.70916 -96.13562,18.70916 -30.85968,0 -62.30415,-6.26884 -94.35063,-18.70916 z m -23.20514,43.65468 c 40.35473,9.67596 79.57471,14.55156 117.55577,14.55156 39.16794,0 78.98586,-4.87575 119.34068,-14.55156 32.0465,106.43357 45.5479,173.40419 40.8003,201.04919 -17.8036,41.46755 -71.12288,62.36385 -160.14098,62.36385 -87.83132,0 -141.15066,-20.8963 -160.14105,-62.36385 -3.56079,-27.645 10.53864,-94.61562 42.58528,-201.04919 z M 1059.696,845.47563 c 1.1659,0.21743 2.4132,0.0254 3.5701,0.29649 3.3637,0.79978 6.3969,2.25657 9.4351,3.86068 -4.3183,-1.33803 -8.6682,-2.92284 -13.0051,-4.15762 z m -159.37598,25.24251 c 10.52085,0 20.75689,0.66597 31.11019,1.1875 l -25.75516,27.91564 -24.22516,-28.21222 c 6.32854,-0.20071 12.47417,-0.89101 18.87013,-0.89092 z m 72.42047,4.75152 c 46.61131,5.63936 91.57571,16.5531 134.64081,33.26073 3.1328,13.86458 5.3278,29.72107 6.63,48.10926 4.7477,67.03915 0.5614,148.63705 -12.495,244.70375 -13.0561,96.0663 -74.7487,156.5684 -185.1312,181.4492 V 949.41538 c 1e-5,-17.96922 17.09002,-41.35473 51.51034,-70.38207 1.6435,-1.38668 3.21376,-2.25959 4.84505,-3.56365 z m -143.82094,0.29651 c 1.55628,1.22855 3.02065,1.96568 4.59,3.26662 35.01388,29.02786 52.53035,52.41283 52.53035,70.38205 v 433.57776 c -110.38227,-24.8808 -172.07521,-85.3829 -185.13119,-181.4492 -13.05533,-96.0667 -17.24267,-177.6646 -12.49508,-244.70375 1.24587,-17.59265 3.49439,-32.87557 6.37504,-46.32743 42.7565,-17.4417 87.47707,-28.9229 134.13088,-34.74559 z M 626.95823,1029.3005 c 6.36119,0.1295 13.38535,1.1936 20.65513,3.2666 -2.22188,38.3405 -1.10063,84.5877 3.57006,138.9823 l -14.28014,18.4123 c -26.17373,-15.723 -51.01845,-31.5378 -75.48049,-47.5154 4.09208,-75.9273 25.56656,-113.9601 65.53544,-113.1458 z m 548.50857,0 c 39.7704,-0.8098 61.5415,36.7865 65.7904,111.9579 -25.0688,16.4091 -50.6513,32.5626 -77.5205,48.7033 l -12.4951,-18.4122 c 4.6707,-54.3947 5.7918,-100.6418 3.5701,-138.9823 7.2699,-2.0734 14.2943,-3.1371 20.6551,-3.2667 z m -312.63203,399.1286 h 76.7555 c 0,23.499 -13.15829,35.3395 -39.27025,35.3395 -24.92504,0 -37.48525,-11.8415 -37.48525,-35.3395 z" />
</svg>
