<?xml version="1.0" encoding="UTF-8" standalone="no"?>
<svg
   width="948.39508"
   height="1796.15"
   id="svg2161"
   version="1.1"
   xml:space="preserve"
   xmlns="http://www.w3.org/2000/svg"
   xmlns:svg="http://www.w3.org/2000/svg"
   xmlns:rdf="http://www.w3.org/1999/02/22-rdf-syntax-ns#"
   xmlns:cc="http://creativecommons.org/ns#"
   xmlns:dc="http://purl.org/dc/elements/1.1/"><metadata
     id="metadata2168"><rdf:RDF><cc:Work
         rdf:about=""><dc:format>image/svg+xml</dc:format><dc:type
           rdf:resource="http://purl.org/dc/dcmitype/StillImage" /><dc:date>29/01/2006</dc:date><dc:creator><cc:Agent><dc:title>Serge Thomas</dc:title></cc:Agent></dc:creator><dc:publisher><cc:Agent><dc:title>Serge Rosmorduc</dc:title></cc:Agent></dc:publisher><dc:description>optimisation d'un signe qui ne me convenait pas tout à fait (en fait plein dans Amdouat KV 34.)</dc:description><cc:license
           rdf:resource="http://creativecommons.org/licenses/GPL/2.0/" /></cc:Work><cc:License
         rdf:about="http://creativecommons.org/licenses/GPL/2.0/"><cc:permits
           rdf:resource="http://web.resource.org/cc/Reproduction" /><cc:permits
           rdf:resource="http://web.resource.org/cc/Distribution" /><cc:requires
           rdf:resource="http://web.resource.org/cc/Notice" /><cc:permits
           rdf:resource="http://web.resource.org/cc/DerivativeWorks" /><cc:requires
           rdf:resource="http://web.resource.org/cc/ShareAlike" /><cc:requires
           rdf:resource="http://web.resource.org/cc/SourceCode" /></cc:License></rdf:RDF></metadata><defs
     id="defs2166" /><path
     id="path2163"
     style="fill:#000000;stroke:none;stroke-width:92.3767"
     d="M 280.70117 0 L 223.63281 45.431641 L 166.23633 13.935547 C 159.90442 71.214307 139.07606 84.745679 103.75 54.53125 C 97.007565 116.63368 73.94083 145.03767 34.550781 139.74219 L 0 156.43164 L 117.11523 526.14453 C 138.5478 561.35523 156.91563 574.36901 172.22461 565.18359 C 172.22461 621.82684 180.64646 678.47002 197.48633 735.11328 C 134.71949 750.42228 97.211992 783.71884 84.964844 835.00391 C 72.71764 886.28901 78.075592 967.80883 101.03906 1079.5645 L 121.70703 1081.8613 L 130.89258 1107.1211 L 149.26367 1104.8262 C 143.14009 1051.2448 140.45918 1002.2556 141.22461 957.85938 C 141.99005 913.4634 154.62086 862.94403 179.11523 806.30078 L 204.375 806.30078 C 204.375 898.15472 210.49889 1009.1469 222.74609 1139.2734 L 181.41211 1100.2324 C 123.23799 1130.8504 93.001434 1174.1006 90.705078 1229.9785 C 88.408719 1285.8563 95.68157 1346.7085 112.52148 1412.5371 C 129.36136 1478.3655 159.97893 1537.3068 204.375 1589.3574 C 231.93113 1613.8518 231.16715 1591.6522 202.08008 1522.7617 L 208.9668 1502.0957 C 184.47245 1440.8598 168.39864 1383.8316 160.74414 1331.0156 C 153.08965 1278.1997 163.80746 1231.1252 192.89453 1189.791 L 192.89453 1192.0859 C 249.53779 1309.9654 343.68847 1379.6242 475.3457 1401.0566 C 607.00296 1379.6242 701.15362 1309.2011 757.79688 1189.791 C 785.35302 1231.1252 795.30293 1278.1997 787.64844 1331.0156 C 779.99401 1383.8316 763.92018 1440.8598 739.42578 1502.0957 L 746.31445 1522.7617 C 717.22739 1591.6522 716.4634 1613.8518 744.01953 1589.3574 C 788.4156 1537.3068 819.03312 1478.3655 835.87305 1412.5371 C 852.7129 1346.7085 859.98582 1285.8563 857.68945 1229.9785 C 855.39317 1174.1006 825.92261 1130.8504 769.2793 1100.2324 L 725.64844 1139.2734 C 739.42656 1009.1469 745.55047 898.15472 744.01953 806.30078 L 769.2793 806.30078 C 795.30456 861.41315 808.31641 911.54948 808.31641 956.71094 C 808.31641 1001.8725 806.02039 1050.4806 801.42773 1102.5312 L 819.79883 1104.8262 L 828.98438 1079.5645 L 847.35547 1077.2695 C 870.31896 967.04498 876.05984 886.28901 864.57812 835.00391 C 853.09636 783.71884 815.96995 750.42228 753.20312 735.11328 C 770.04304 678.47002 777.69883 621.82684 776.16797 565.18359 C 793.00784 572.83808 811.3796 559.05828 831.28125 523.84766 L 948.39453 156.43164 L 914.48047 140.8418 C 875.09042 146.13728 852.02173 117.7333 845.2793 55.630859 C 809.95324 85.845289 789.12487 72.313921 782.79297 15.035156 L 722.62695 46.53125 L 665.55664 1.0996094 C 656.14506 21.820822 661.82182 48.54405 682.58398 81.273438 C 778.00974 156.52295 835.86648 220.92946 856.1582 274.49023 C 850.98323 330.58581 828.21794 399.87219 787.64844 482.51367 C 749.37603 450.36482 704.98062 430.4631 654.46094 422.80859 C 660.58456 383.00523 646.80674 350.08971 613.12695 324.06445 L 606.23828 275.8418 L 551.125 353.91797 C 560.31036 314.11468 576.38413 278.13915 599.34766 245.99023 L 603.94141 223.02539 C 579.44706 223.02539 564.13725 234.50723 558.01367 257.4707 C 542.70469 242.16171 524.33492 230.6799 502.90234 223.02539 L 502.90234 252.87891 L 489.12305 252.87891 L 489.12305 220.72852 L 461.56641 220.72852 L 461.56641 252.87891 L 445.49414 252.87891 L 445.49414 223.02539 C 424.06154 230.6799 406.45388 242.16171 392.67578 257.4707 C 386.55217 234.50723 371.24436 223.02539 346.75 223.02539 L 349.04492 248.28516 C 373.53929 278.90316 389.61504 314.11468 397.26953 353.91797 L 342.15625 275.8418 L 335.26758 324.06445 C 303.11874 350.08971 289.34286 383.00523 293.93555 422.80859 C 244.94679 430.4631 200.54748 450.36482 160.74414 482.51367 C 119.40987 399.84521 96.448172 329.80517 91.855469 272.39648 L 90.949219 271.25391 C 111.95265 218.11815 169.50929 154.43073 263.67383 80.175781 C 284.436 47.446385 290.11275 20.721211 280.70117 0 z M 475.3457 438.88477 C 574.85412 449.60106 654.46102 473.32875 714.16602 510.07031 C 740.19128 591.20792 733.3014 676.17275 693.49805 764.96484 C 629.20034 777.21206 582.12599 788.31282 552.27344 798.26367 C 522.42093 808.21452 496.77829 816.25143 475.3457 822.375 C 394.2081 796.34974 319.19316 777.98001 250.30273 767.26367 C 215.09205 676.94068 210.49815 591.20792 236.52344 510.07031 C 310.00655 471.79788 389.6154 448.07018 475.3457 438.88477 z M 276.85352 816.16602 C 333.78383 815.32878 393.05911 835.0033 454.67773 875.18945 L 454.67773 1350.5352 C 382.72553 1326.0409 323.02228 1287.0035 275.56445 1233.4219 C 254.13188 1092.5794 246.47603 954.03113 252.59961 817.78125 C 260.63682 816.82442 268.72064 816.28563 276.85352 816.16602 z M 671.53906 816.16602 C 679.67195 816.28563 687.75772 816.82442 695.79492 817.78125 C 701.91852 952.50019 695.02857 1090.2822 675.12695 1231.125 C 627.66904 1286.2371 567.19992 1326.0409 493.7168 1350.5352 L 493.7168 875.18945 C 555.33554 835.0033 614.6088 815.32878 671.53906 816.16602 z M 350.22461 1437.6152 L 350.22461 1437.6172 C 335.49179 1437.2236 322.30837 1443.0346 310.66797 1455.0527 C 288.24869 1477.6585 290.43362 1505.9804 317.22656 1540.0195 C 388.36161 1626.6356 461.81538 1707.7382 537.58594 1783.3223 C 541.80211 1788.2891 545.68535 1791.8137 549.23828 1793.8965 C 554.82 1797.1686 559.58171 1796.8768 563.51953 1793.0234 L 671.98828 1697.1191 C 681.11554 1687.8034 680.1971 1677.6397 669.23633 1666.6309 C 577.18904 1590.6713 487.03608 1520.8658 398.77539 1457.209 C 394.91421 1454.4466 391.12435 1451.9733 387.4082 1449.7949 L 387.40625 1449.7949 C 374.07668 1441.9806 361.68348 1437.9211 350.22461 1437.6152 z M 389.63281 1510.0879 C 399.80572 1510.5048 411.64276 1518.8437 419.45898 1525.418 C 484.82116 1570.6977 539.05737 1627.1457 602.54297 1680.377 L 554.12305 1726.5059 C 499.80385 1673.0782 441.73903 1619.2454 390.72461 1556.6152 C 373.73262 1536.9064 369.26708 1523.1463 377.32617 1515.3379 C 380.72794 1511.3458 385.00874 1509.8985 389.63281 1510.0879 z " /></svg>
