<?xml version="1.0" encoding="UTF-8" standalone="no"?>
<svg
   width="2369.981"
   height="560.13092"
   version="1.1"
   id="svg1"
   xmlns="http://www.w3.org/2000/svg"
   xmlns:svg="http://www.w3.org/2000/svg">
  <defs
     id="defs1" />
  <path
     id="path1-8"
     style="fill:#000000;stroke:none;stroke-width:108.484"
     d="m 1308.8829,0 -17.0634,20.018803 -27.2873,-8.51531 c -3.2407,9.320378 5.9463,13.129256 16.5965,22.38613 43.8272,13.426407 66.0197,12.694983 78.2252,29.152444 0.1008,25.520685 -7.8053,68.260133 -21.9317,90.248653 -18.5935,-11.58651 -40.1621,-18.75926 -64.7053,-21.51794 2.9749,-14.34514 -3.7198,-26.2061 -20.0819,-35.585614 l -3.3466,-17.381429 -26.775,28.140403 c 4.4624,-14.345265 12.2725,-27.312882 23.4284,-38.899373 l 2.2311,-8.275548 c -11.8995,0 -19.338,4.138521 -22.3129,12.414585 -7.4373,-5.517391 -16.3627,-9.655836 -26.7751,-12.414585 V 70.53019 h -6.6931 V 58.943412 h -13.3862 V 70.53019 h -7.8112 V 59.771219 c -10.4123,2.758749 -18.9634,6.897194 -25.657,12.414585 -2.9748,-8.276064 -10.4132,-12.414585 -22.3129,-12.414585 l 1.1155,9.103356 c 11.8997,11.034747 19.7097,23.7263 23.4285,38.071565 l -26.7751,-28.140403 -3.3465,17.381429 c -15.6184,9.379514 -22.3132,21.240474 -20.0819,35.585614 -23.7996,2.75868 -45.3683,9.93143 -64.7053,21.51794 -13.3945,-20.7491 -17.1671,-71.615021 -16.8943,-84.963811 12.3168,-16.344469 39.2203,-23.312164 82.7933,-36.660756 10.65,-9.256827 18.4668,-8.956939 15.2261,-18.27738 l -27.2873,8.517834 -17.0635,-20.0213256 c -5.3592,20.8022876 -15.1814,22.7517046 -29.4679,5.8476502 -5.7558,22.5728974 -17.2323,29.8329294 -34.4297,21.7778934 -11.46109,6.639988 -12.21621,8.139825 -21.38165,14.75415 -0.4152,20.887532 2.27562,41.209358 6.09752,59.213455 H 92.341947 C 27.931274,102.28564 -2.7840628,121.07406 0.19791315,159.83999 3.1797612,198.60583 20.772537,219.77806 52.978198,223.35653 c -14.313669,17.89202 -16.40069,40.85398 -6.261554,68.88467 10.138747,28.03073 27.134834,38.46711 50.990908,31.31029 -4.771138,20.27759 1.791275,42.94251 19.683138,67.99125 17.89225,25.04867 38.76452,33.39838 62.62059,25.04873 -4.77127,29.81994 9.84162,53.07901 43.83593,69.7781 33.99508,16.69918 59.34287,19.68215 76.04217,8.94688 47.7119,36.97682 89.46038,42.34342 125.24371,16.10187 46.51932,23.85589 79.32052,24.45251 98.40559,1.78938 22.66299,20.27736 54.87041,19.08445 96.61873,-3.57877 28.62708,22.66322 54.27247,20.87329 76.9356,-5.36812 28.62708,32.20535 53.67579,33.39885 75.14622,3.57875 27.43453,28.62719 51.2905,26.24076 71.56748,-7.1575 27.43466,35.7839 49.50295,36.97701 66.20187,3.57875 20.2771,33.39826 41.15027,32.80186 62.62059,-1.78938 20.2103,32.56116 39.88573,36.74502 59.03933,13.29035 -0.074,-0.22414 0.8895,-1.89765 1.5723,-3.17747 29.6576,20.85122 78.3935,42.60291 100.1546,45.91301 16.2993,4.45959 13.0153,0.82694 -1.1155,-24.00136 l 3.3465,-7.44774 c -11.8998,-22.06961 -99.0481,-48.91851 -102.7667,-67.95338 -3.7186,-19.03506 1.489,-36.00305 15.6198,-50.90005 v 0.8278 c 27.5182,42.48396 73.2582,67.58855 137.2192,75.3128 63.961,-7.72425 109.701,-33.10495 137.2192,-76.1406 13.3872,14.897 18.2229,31.86499 14.5043,50.90005 -3.7188,19.03487 -95.9046,46.30279 -107.8043,68.37233 l 3.3466,7.44774 c -14.1311,24.82825 -14.5027,26.03409 -1.1156,24.00137 16.2273,-0.57654 71.5881,-24.5292 104.445,-46.75849 1.0877,1.93725 2.1145,3.79064 2.0191,4.07847 19.1536,23.45467 38.829,19.2708 59.0394,-13.29035 21.4702,34.59122 42.3434,35.18763 62.6205,1.78938 16.6989,33.39825 38.7672,32.20515 66.2018,-3.57876 20.277,33.39826 44.133,35.78469 71.5676,7.15751 21.4704,29.82009 46.5191,28.6266 75.1462,-3.57875 22.6631,26.2414 48.3085,28.03132 76.9355,5.36812 41.7484,22.6632 73.9557,23.85612 96.6188,3.57875 19.085,22.66315 51.8863,22.06652 98.4056,-1.78937 35.7833,26.24155 77.5318,20.87496 125.2436,-16.10186 16.6993,10.73527 42.0471,7.75229 76.0423,-8.94688 33.9943,-16.6991 48.6071,-39.95816 43.8358,-69.7781 23.8561,8.34965 44.7285,-6e-5 62.6207,-25.04873 17.8919,-25.04874 24.4543,-47.71367 19.6831,-67.99125 23.8561,7.1568 40.8521,-3.27956 50.9909,-31.3103 10.1391,-28.03068 8.0521,-50.99264 -6.2616,-68.88466 32.2057,-3.57847 49.7985,-24.75071 52.7803,-63.51655 2.982,-38.76592 -27.7333,-57.55434 -92.144,-56.36155 h -899.5084 c 5.4728,-21.928459 9.8803,-45.30819 9.4566,-63.100116 -14.8399,-10.872655 -9.337,-11.633213 -22.7394,-16.889288 -17.1973,8.054946 -20.7415,4.457129 -26.4975,-18.1158549 C 1324.0643,22.751801 1314.242,20.802286 1308.8829,0 Z M 94.131324,135.68468 H 439.44557 l 7.15751,25.04874 c -157.4492,16.69915 -274.93997,27.43504 -352.471756,32.20624 -39.362302,0 -60.537088,-9.54274 -63.519065,-28.62749 -2.981977,-19.08483 18.192681,-28.62749 63.519065,-28.62749 z m 1836.404476,0.47447 h 345.3144 c 45.3263,0 66.501,9.54267 63.519,28.6275 -2.982,19.08474 -24.1568,28.62748 -63.519,28.62748 -77.5319,-4.77119 -195.0226,-15.5071 -352.4718,-32.20624 z m -744.8371,1.40829 c 48.3426,3.86214 87.0162,12.41269 116.0217,25.65444 12.6436,29.24216 9.2973,59.86559 -10.0397,91.86642 -31.2367,4.4139 -54.1068,8.41437 -68.6095,12.00068 -14.5028,3.5863 -26.9603,6.48253 -37.3725,8.68946 -39.4179,-9.37958 -75.8606,-16.00015 -109.3286,-19.86234 -17.1059,-32.55255 -19.3392,-63.45206 -6.6957,-92.69422 35.6992,-13.79348 74.3752,-22.34403 116.0243,-25.65444 z m -184.4294,4.80532 c 5.5713,16.28698 10.3955,26.64377 10.3955,26.64377 10.4122,12.68997 19.3376,17.37808 26.775,14.06768 0,20.41431 4.0897,40.8308 12.2708,61.24512 -7.1556,1.29473 -13.5737,2.97831 -19.3778,4.98703 0.5781,-0.33713 1.1387,-0.69496 1.8121,-0.9111 H 654.15051 c -72.76103,0 -124.64825,-35.18804 -155.66058,-105.56308 z m 365.8327,0.47448 504.3896,0.46942 c -31.0124,70.37504 -82.8997,105.56308 -155.6606,105.56308 h -377.2177 c -5.4308,-1.80056 -11.3294,-3.35674 -17.9265,-4.55041 8.1811,-20.41432 11.899,-40.83081 11.1552,-61.24512 8.1811,2.75865 17.1066,-2.20556 26.775,-14.89548 0,0 3.7525,-10.35886 8.485,-25.34149 z m -913.34142,33.99056 10.73626,17.89123 C 355.95234,231.70576 249.79142,261.52714 146.01819,284.19026 101.88474,300.8894 78.026507,295.52017 74.448187,268.08588 70.869738,240.6515 83.395221,226.33864 112.02256,225.1459 Z m 1462.46032,0.47448 341.7381,48.3081 c 28.6272,1.19274 41.1527,15.50559 37.5743,42.93998 -3.5783,27.43429 -27.4366,32.80352 -71.57,16.10438 -103.7732,-22.66312 -209.9342,-52.4845 -318.4787,-89.46123 z m -1439.20095,37.09737 17.89123,21.46999 c -87.07431,46.51904 -181.30528,94.82928 -282.69365,144.92683 -31.01246,11.9279 -56.0618,6.85831 -75.14623,-15.20843 -19.08493,-22.06678 -10.7355,-39.06545 25.04875,-50.99343 z m 1415.94155,0.47448 314.8999,100.19496 c 35.7843,11.92798 44.1337,28.92665 25.0488,50.99343 -19.0845,22.06673 -44.1338,27.13631 -75.1463,15.20843 -101.3883,-50.09756 -195.6192,-98.40779 -282.6936,-144.92684 z m -1381.94593,38.88927 23.25936,21.46999 c -48.90418,52.48307 -115.1076,107.35322 -198.60307,164.60745 -33.39862,26.24155 -66.79649,30.11796 -100.19496,11.62968 -33.39784,-18.48836 -27.4325,-38.46745 17.89375,-59.93778 z m 1347.95033,0.47448 257.6449,137.76934 c 45.3263,21.47033 51.2916,41.44941 17.8938,59.93778 -33.3985,18.48827 -66.7964,14.61187 -100.195,-11.62968 -83.4955,-57.25424 -149.6989,-112.1244 -198.6031,-164.60746 z m -817.1795,15.7359 h 12.2707 c 0,33.10442 2.9743,73.10647 8.9242,120.00429 l -20.0794,-14.0702 c -28.2618,11.03481 -42.95252,26.62249 -44.06809,46.76102 -1.11573,20.13843 2.41889,42.07081 10.59999,65.79553 1.2528,3.63318 4.4711,7.71272 8.856,11.98806 -3.7568,5.70819 -8.5089,8.55108 -14.3478,8.27304 -12.52452,-0.59653 -16.40336,-25.34815 -11.63221,-74.2528 0.88182,-30.86032 2.2016,-64.78454 3.73522,-100.20759 1.81455,10.39349 4.35199,21.70618 7.81119,34.195 l 10.0397,0.82782 4.462,9.10335 8.9242,-0.82781 c -2.9749,-19.3109 -4.2762,-36.96671 -3.9043,-52.96704 0.3717,-16.00047 6.5089,-34.20824 18.4086,-54.62267 z m 274.4383,0 h 12.2708 c 12.6438,19.86261 18.9663,37.93241 18.9663,54.20875 0,16.27622 -1.1155,33.79409 -3.3466,52.55316 l 8.9242,0.8278 4.462,-9.10336 8.9243,-0.82781 c 3.26,-11.60914 5.7201,-22.19919 7.5511,-31.99424 1.5152,35.08642 2.8205,68.70885 3.6949,99.30912 4.7712,48.90465 0.8923,73.65627 -11.6323,74.25279 -5.9966,0.28555 -10.8747,-2.63984 -14.6758,-8.66675 4.7743,-4.36361 8.2489,-8.4857 9.4845,-12.06882 8.1809,-23.72472 11.7128,-45.6571 10.5973,-65.79553 -1.1156,-20.13853 -15.4316,-35.72621 -42.9499,-46.76102 l -21.195,14.0702 c 6.6937,-46.89782 9.668,-86.89987 8.9242,-120.00429 z m -226.9555,3.55605 c 27.6576,-0.30173 56.4546,6.78999 86.3898,21.27313 v 171.31571 c -34.9555,-8.82787 -63.9626,-22.89726 -87.0182,-42.20807 -10.4124,-50.75997 -14.1302,-100.69298 -11.1552,-149.79778 3.9046,-0.34479 7.8326,-0.5399 11.7836,-0.58299 z m 191.7434,0 c 3.9512,0.0429 7.8789,0.23808 11.7836,0.58299 2.9749,48.55307 -0.3711,98.21003 -10.0396,148.96997 -23.0558,19.86264 -52.4345,34.20801 -88.1338,43.03588 V 294.81296 c 29.9354,-14.48314 58.7324,-21.57491 86.3898,-21.27313 z m -725.26767,12.43981 32.20623,7.15499 c -28.62759,41.74788 -76.34128,96.61798 -143.13746,164.60745 -16.69956,26.24148 -42.94152,37.57401 -78.72498,33.99562 -35.78397,-3.5784 -30.41481,-22.66385 16.10439,-57.25498 z m 1258.49167,0.47448 173.5518,148.50308 c 46.5192,34.59113 51.8884,53.67658 16.1044,57.25498 -35.7835,3.57839 -62.0255,-7.75416 -78.725,-33.99562 -66.7962,-67.98947 -114.51,-122.85958 -143.1375,-164.60746 z M 646.99553,296.71338 c -9.54189,19.08485 -33.4,58.44893 -71.57,118.08872 -38.1691,59.63983 -69.77846,88.2656 -94.82683,85.87996 -25.04889,-2.38564 -25.64558,-16.6985 -1.78938,-42.93998 63.21785,-72.7607 106.75603,-125.84106 130.61184,-159.23932 z m 80.51182,0 h 35.785 c -34.5909,120.47259 -63.81351,185.18252 -87.66933,194.12837 -23.85516,8.94604 -32.50511,5.06946 -25.94469,-11.62968 6.56043,-16.69912 32.50278,-77.5325 77.82902,-182.49869 z m 116.29936,0 h 35.785 c -22.66339,108.54463 -38.46862,170.87074 -47.41468,186.97339 -8.94594,16.10279 -18.48875,22.06591 -28.6275,17.89124 -10.13887,-4.17477 -10.4357,-21.77003 -0.89343,-52.78281 15.50649,-51.29025 29.22258,-101.9843 41.15061,-152.08182 z m 55.46562,0 h 33.99561 c -13.12072,126.43654 -28.9266,195.61941 -47.41468,207.54743 -18.48873,11.92786 -25.34796,-5.36774 -20.57656,-51.88686 9.54252,-44.13346 20.87477,-96.02071 33.99563,-155.66057 z m 48.30809,0 h 33.99562 c -2.38575,51.29031 -4.77186,96.61767 -7.1575,135.97996 -2.38564,39.36235 -12.525,63.81464 -30.41687,73.35684 -17.89225,9.54261 -22.66194,-9.5431 -14.31248,-57.25498 7.1569,-51.29025 13.12022,-101.9843 17.89123,-152.08182 z m 440.82498,0.47447 h 33.9956 c 4.771,50.09752 10.7343,100.79158 17.8913,152.08183 8.3494,47.71188 3.5797,66.79757 -14.3126,57.25498 -17.8917,-9.54221 -28.0311,-33.99449 -30.4168,-73.35685 -2.3856,-39.36228 -4.7717,-84.68964 -7.1575,-135.97996 z m 48.3081,0 h 33.9957 c 13.1208,59.63987 24.4531,111.52712 33.9956,155.66058 4.7714,46.51912 -2.0879,63.81472 -20.5767,51.88686 -18.4879,-11.92803 -34.2938,-81.1109 -47.4146,-207.54744 z m 53.6763,0 h 35.7849 c 11.9281,50.09752 25.6441,100.79158 41.1506,152.08183 9.5423,31.01277 9.2455,48.60804 -0.8934,52.7828 -10.1387,4.17468 -19.6815,-1.78844 -28.6275,-17.89123 -8.946,-16.10266 -24.7513,-78.42877 -47.4146,-186.9734 z m 116.2993,0 h 35.7851 c 45.3261,104.9662 71.2685,165.79958 77.8289,182.4987 6.5604,16.69913 -2.0895,20.57572 -25.9447,11.62968 -23.8558,-8.94585 -53.0784,-73.6558 -87.6693,-194.12838 z m 116.2968,0 37.5744,1.78937 c 23.8558,33.39828 67.394,86.47863 130.6119,159.23934 23.8561,26.24146 23.2595,40.55433 -1.7894,42.93997 -25.0484,2.38565 -56.6578,-26.24012 -94.8269,-85.87995 -38.1699,-59.63979 -62.0281,-99.00389 -71.57,-118.08873 z m -1052.73101,1.31491 h 37.57185 c -33.39821,77.53182 -56.65673,129.12191 -69.7781,154.76714 -13.12032,25.64509 -31.90661,39.66106 -56.35903,42.04655 -24.45228,2.38566 -31.01482,-5.36982 -19.68313,-23.26188 11.33156,-17.89188 47.41567,-75.7424 108.24841,-173.55181 z m 112.71808,0 h 41.15313 c -29.81993,130.01491 -56.65828,196.81153 -80.51436,200.38992 -23.85633,3.5784 -28.62829,-12.52421 -14.315,-48.30811 28.62721,-76.33907 46.51946,-127.03305 53.67623,-152.08181 z m 762.88243,0.47446 h 41.1531 c 7.1567,25.04876 25.049,75.74276 53.6762,152.08183 14.3133,35.78389 9.5414,51.88651 -14.3149,48.30811 -23.8561,-3.57839 -50.6945,-70.37502 -80.5144,-200.38994 z m 116.2993,0 h 37.5719 c 60.8328,97.80943 96.9168,155.65995 108.2484,173.55182 11.3317,17.89205 4.7691,25.64755 -19.6831,23.26189 -24.4524,-2.38549 -43.2388,-16.40146 -56.3591,-42.04655 -13.1214,-25.64523 -36.3799,-77.23533 -69.7781,-154.76716 z" />
</svg>
