<?xml version="1.0" encoding="UTF-8" standalone="no"?>
<!-- Created with Inkscape (http://www.inkscape.org/) -->

<svg
   width="1797.7578"
   height="1797.63"
   viewBox="0 0 1797.7578 1797.63"
   version="1.1"
   id="svg1691"
   xmlns="http://www.w3.org/2000/svg"
   xmlns:svg="http://www.w3.org/2000/svg">
  <defs
     id="defs1688">
    <clipPath
       clipPathUnits="userSpaceOnUse"
       id="clipEmfPath1">
      <path
         d="M 0,0 H 124.43852 V 129.53846 H 0 Z"
         id="path1068" />
    </clipPath>
    <pattern
       id="EMFhbasepattern"
       patternUnits="userSpaceOnUse"
       width="6"
       height="6"
       x="0"
       y="0" />
  </defs>
  <path
     id="path20"
     style="color:#000000;fill:#000000;stroke-width:1.0015;stroke-linecap:square;-inkscape-stroke:none"
     d="M 886.76758,0 848.36133,65.14558 C 769.38345,199.10871 686.30361,267.29161 598.70703,295.1464 511.11047,323.0012 413.91124,311.43914 303.88086,269.72679 l -79.61328,-30.18186 20.53906,82.84292 c 26.18259,105.60263 35.1385,210.3139 11.66211,301.08208 -23.47637,90.76819 -76.90841,169.47668 -187.519532,232.0166 L 0,894.47201 68.949218,933.4575 c 110.964812,62.73987 158.754372,136.0566 178.326172,222.5429 19.57181,86.4865 7.43919,188.8605 -16.58398,298.1672 l -15.70117,71.4456 70.56836,-18.5181 c 226.06866,-59.3215 447.57779,45.7894 559.81054,227.6461 l 38.81055,62.8889 37.5332,-63.6646 c 107.20971,-181.8502 312.10551,-275.9838 561.38481,-222.9956 l 71.666,15.233 -19.3868,-70.856 c -35.7071,-130.5035 -41.6127,-231.7835 -13.7441,-314.0779 27.8686,-82.2943 89.7343,-151.5767 207.1758,-217.97856 l 68.9492,-38.98548 -68.9492,-38.98352 C 1531.2798,733.63795 1468.0423,518.93848 1521.5351,323.43199 l 20.4551,-74.76021 -74.7754,19.62105 c -114.5374,30.05516 -209.6107,47.3897 -292.8125,25.49796 -83.2016,-21.89173 -162.774,-82.00029 -249.22847,-228.64521 z m 42.32813,226.38065 c 70.0534,84.37389 143.89699,133.2605 222.66209,153.98491 58.9288,15.50512 118.2547,15.62075 178.75,7.8202 L 992.94922,729.87536 C 973.68555,717.26814 952.14099,707.93895 929.09571,702.6633 Z m -87.53321,2.10785 v 474.1748 c -23.80343,5.44942 -46.02274,15.20113 -65.76367,28.44425 C 602.47855,557.2685 509.80303,463.05945 446.24414,396.76802 c 61.18267,6.40466 121.24087,2.2015 179.43165,-16.30255 C 703.69356,355.65663 775.8156,305.42765 841.5625,228.4885 Z m 574.1328,198.2028 c -7.4223,156.51074 48.4003,313.9773 171.4121,425.73141 h -508.6992 c -4.8661,-21.38347 -13.1627,-41.4953 -24.3359,-59.68397 z m -1061.16405,0.98144 c 64.58765,68.55575 184.40994,190.03166 360.875,367.02497 -10.57833,17.67032 -18.46385,37.10502 -23.15625,57.725 H 221.38282 c 62.50988,-60.57297 102.03891,-131.3698 121.46484,-206.4775 18.3385,-70.90327 19.99039,-144.68095 11.68359,-218.27247 z M 885.33008,785.469 c 61.55705,2e-5 110.51953,49.10903 110.51953,110.85033 0,61.7413 -48.96248,110.85227 -110.51953,110.85227 -61.55706,0 -110.52148,-49.11096 -110.52148,-110.85227 0,-61.74131 48.96442,-110.85033 110.52148,-110.85033 z M 224.97657,940.21791 H 692.25 c 3.98696,17.51922 10.26512,34.18861 18.5625,49.64033 L 339.07813,1352.5832 c 9.55318,-73.5114 11.09268,-146.2567 -4.7793,-216.3938 C 318.26611,1065.342 283.03562,998.45037 224.97657,940.21791 Z m 853.43163,0 h 474.3496 c -55.22,51.18825 -93.9062,108.14339 -115.6211,172.26599 -23.9,70.5753 -27.2478,147.2413 -15.9433,231.2546 L 1055.998,996.64411 c 10.196,-17.32495 17.8314,-36.30589 22.4102,-56.4262 z M 768.30664,1056.2438 c 21.64898,16.0102 46.62343,27.6924 73.63672,33.8197 l -6.29492,489.347 C 726.39451,1469.3369 576.00294,1401.7548 414.75391,1401.2264 Z m 227.82227,4.4488 365.18159,347.0827 c -174.6561,-2.3559 -329.2013,62.9252 -438.19526,177.4083 l 6.36914,-495.3004 c 24.16384,-5.5837 46.69769,-15.5879 66.64453,-29.1906 z" />
</svg>
