<?xml version="1.0" encoding="UTF-8" standalone="no"?>
<svg
   width="14.325253"
   height="17.977583"
   id="svg2434"
   sodipodi:version="0.32"
   inkscape:version="1.2.1 (9c6d41e410, 2022-07-14)"
   sodipodi:docname="US9M24VARA.svg"
   inkscape:output_extension="org.inkscape.output.svg.inkscape"
   version="1.1"
   xmlns:inkscape="http://www.inkscape.org/namespaces/inkscape"
   xmlns:sodipodi="http://sodipodi.sourceforge.net/DTD/sodipodi-0.dtd"
   xmlns="http://www.w3.org/2000/svg"
   xmlns:svg="http://www.w3.org/2000/svg"
   xmlns:rdf="http://www.w3.org/1999/02/22-rdf-syntax-ns#"
   xmlns:cc="http://creativecommons.org/ns#"
   xmlns:dc="http://purl.org/dc/elements/1.1/">
  <metadata
     id="metadata2441">
    <rdf:RDF>
      <cc:Work
         rdf:about="">
        <dc:format>image/svg+xml</dc:format>
        <dc:type
           rdf:resource="http://purl.org/dc/dcmitype/StillImage" />
      </cc:Work>
    </rdf:RDF>
  </metadata>
  <defs
     id="defs2439">
    <inkscape:perspective
       sodipodi:type="inkscape:persp3d"
       inkscape:vp_x="0 : 8.9887915 : 1"
       inkscape:vp_y="0 : 1000 : 0"
       inkscape:vp_z="14.325253 : 8.9887915 : 1"
       inkscape:persp3d-origin="7.1626263 : 5.9925276 : 1"
       id="perspective2443" />
  </defs>
  <sodipodi:namedview
     inkscape:window-height="1017"
     inkscape:window-width="1920"
     inkscape:pageshadow="2"
     inkscape:pageopacity="0.0"
     guidetolerance="10.0"
     gridtolerance="10.0"
     objecttolerance="10.0"
     borderopacity="1.0"
     bordercolor="#666666"
     pagecolor="#ffffff"
     id="base"
     showgrid="false"
     inkscape:zoom="31.639149"
     inkscape:cx="5.7839736"
     inkscape:cy="9.6083495"
     inkscape:window-x="1072"
     inkscape:window-y="-8"
     inkscape:current-layer="svg2434"
     inkscape:showpageshadow="2"
     inkscape:pagecheckerboard="0"
     inkscape:deskcolor="#d1d1d1"
     inkscape:window-maximized="1" />
  <path
     style="fill:#000000;stroke:none"
     d="M 5.375,0 C 4.5768987,0 3.8806408,0.27561001 3.3125,0.84375 3.2313373,0.694952 2.9692547,0.73459336 2.46875,0.9375 c -0.5681407,0.229962 -1.0368213,0.229962 -1.375,0 -0.28407,0.0135273 -0.40205398,0.179544 -0.375,0.53125 0.0270547,0.351706 0.1669573,0.6231201 0.4375,0.8125 C 0.66927267,2.7141187 0.43750001,3.2089141 0.4375,3.75 0.978586,3.8987987 1.5036907,3.802733 2.03125,3.4375 c 0.121744,0.311124 0.3493214,0.5100185 0.6875,0.625 0.3381787,0.1149807 0.5438367,0.034071 0.625,-0.25 C 3.1949513,3.43374 3.3222673,2.9937408 3.6875,2.5 4.0527333,2.0062587 4.0872387,1.62782 3.84375,1.34375 4.357782,0.93793533 4.8744962,0.71874999 5.375,0.71875 6.2948467,0.70522267 6.7499999,1.0862292 6.75,1.84375 V 9.5 C 6.492984,9.0671313 5.928238,8.84375 5.0625,8.84375 c -0.8657373,0 -1.4785166,0.2933323 -1.84375,0.875 0,0 -0.8055072,1.172125 -0.5005467,1.415408 C 3.0231638,11.377441 3.8297439,10.189746 3.90625,10.15625 4.2038473,9.7639633 4.5932455,9.5625002 5.09375,9.5625 c 0.5005047,0 0.9143892,0.2259489 1.21875,0.625 0.3043613,0.399051 0.4374999,0.777489 0.4375,1.15625 v 2.75 C 4.77531,14.173927 2.5159949,14.799569 0,16.03125 2.6911795,17.337431 5.0843799,18 7.15625,18 c 2.0718705,0 4.433817,-0.662569 7.125,-1.96875 -2.492094,-1.225104 -4.7114756,-1.851635 -6.6875,-1.9375 v -2.75 c 0,-0.378761 0.1576256,-0.757199 0.46875,-1.15625 0.3111253,-0.3990507 0.7182455,-0.6249998 1.21875,-0.625 0.4869773,0 0.872181,0.2149901 1.15625,0.59375 0,0 0.95929,1.106169 1.197228,0.905617 C 11.972492,10.777174 11.15625,9.6875 11.15625,9.6875 10.77749,9.1193593 10.164711,8.84375 9.3125,8.84375 8.446762,8.84375 7.8642926,9.0671309 7.59375,9.5 V 1.84375 C 7.59375,0.61277933 6.8629869,0 5.375,0 Z M 3.09375,1.15625 C 3.2712938,1.1680862 3.40531,1.2397287 3.5,1.375 3.7029073,1.632016 3.6439152,1.9843408 3.3125,2.4375 2.9810847,2.89066 2.8605327,3.3045439 2.96875,3.65625 c 0.013527,0.067635 -0.074147,0.060872 -0.25,0 C 2.5428973,3.595378 2.4291086,3.45128 2.375,3.1875 2.3208913,2.9237213 2.3621608,2.6606988 2.53125,2.4375 2.7003393,2.214302 2.7551353,2.0811626 2.6875,2 2.6333913,1.9323647 2.4757659,1.9297968 2.21875,2.03125 c -0.257016,0.1014533 -0.5065113,0.1149806 -0.75,0 C 1.2252613,1.9162693 1.1072773,1.7451167 1.09375,1.5625 1.0802227,1.3798833 1.1021413,1.3166953 1.15625,1.34375 1.480902,1.5466573 1.9167047,1.5356981 2.4375,1.3125 2.6978976,1.200901 2.9162062,1.1444138 3.09375,1.15625 Z m -0.9375,1.25 C 1.9803973,2.6091573 1.8927233,2.7928966 1.90625,2.96875 1.649234,3.1716567 1.4148933,3.3208914 1.21875,3.375 1.022606,3.4291087 0.93330401,3.4400674 0.90625,3.40625 0.87919533,3.372432 0.89854605,3.2696034 1,3.09375 1.1014533,2.9178973 1.2919567,2.72063 1.5625,2.53125 1.724826,2.585359 1.9262888,2.541522 2.15625,2.40625 Z m 5,12.4375 c 1.6777649,0 3.463301,0.408017 5.34375,1.21875 -1.880449,0.78821 -3.6659852,1.187499 -5.34375,1.1875 -1.6665041,0 -3.4520426,-0.399291 -5.34375,-1.1875 1.8917074,-0.810732 3.6772458,-1.21875 5.34375,-1.21875 z"
     id="path2436"
     sodipodi:nodetypes="scccccccscsccscsczcsssccsccssscscscssscscssscssscssccsssccscscs" />
</svg>
