<?xml version="1.0" encoding="UTF-8" standalone="no"?>
<svg
   width="18pt"
   height="18pt"
   id="svg1333"
   sodipodi:version="0.32"
   inkscape:version="1.2.1 (9c6d41e410, 2022-07-14)"
   sodipodi:docname="US9M27VARA.svg"
   version="1.0"
   xmlns:inkscape="http://www.inkscape.org/namespaces/inkscape"
   xmlns:sodipodi="http://sodipodi.sourceforge.net/DTD/sodipodi-0.dtd"
   xmlns="http://www.w3.org/2000/svg"
   xmlns:svg="http://www.w3.org/2000/svg"
   xmlns:rdf="http://www.w3.org/1999/02/22-rdf-syntax-ns#"
   xmlns:cc="http://creativecommons.org/ns#"
   xmlns:dc="http://purl.org/dc/elements/1.1/">
  <metadata
     id="metadata1340">
    <rdf:RDF>
      <cc:Work
         rdf:about="">
        <dc:format>image/svg+xml</dc:format>
        <dc:type
           rdf:resource="http://purl.org/dc/dcmitype/StillImage" />
        <dc:date>2/03/06</dc:date>
        <dc:creator>
          <cc:Agent>
            <dc:title>SR &amp; ST</dc:title>
          </cc:Agent>
        </dc:creator>
        <dc:publisher>
          <cc:Agent>
            <dc:title>Serge Rosmorduc</dc:title>
          </cc:Agent>
        </dc:publisher>
        <dc:description>optimisation de signe de Jsesh M23 
valeur : sw</dc:description>
        <cc:license
           rdf:resource="http://creativecommons.org/licenses/GPL/2.0/" />
      </cc:Work>
      <cc:License
         rdf:about="http://creativecommons.org/licenses/GPL/2.0/">
        <cc:permits
           rdf:resource="http://web.resource.org/cc/Reproduction" />
        <cc:permits
           rdf:resource="http://web.resource.org/cc/Distribution" />
        <cc:requires
           rdf:resource="http://web.resource.org/cc/Notice" />
        <cc:permits
           rdf:resource="http://web.resource.org/cc/DerivativeWorks" />
        <cc:requires
           rdf:resource="http://web.resource.org/cc/ShareAlike" />
        <cc:requires
           rdf:resource="http://web.resource.org/cc/SourceCode" />
      </cc:License>
    </rdf:RDF>
  </metadata>
  <defs
     id="defs1338" />
  <sodipodi:namedview
     inkscape:window-height="1017"
     inkscape:window-width="1920"
     inkscape:pageshadow="2"
     inkscape:pageopacity="0.0"
     borderopacity="1.0"
     bordercolor="#666666"
     pagecolor="#ffffff"
     id="base"
     inkscape:zoom="18.343429"
     inkscape:cx="4.4702657"
     inkscape:cy="3.4344724"
     inkscape:window-x="1072"
     inkscape:window-y="-8"
     inkscape:current-layer="svg1333"
     showguides="true"
     inkscape:guide-bbox="true"
     showgrid="false"
     inkscape:showpageshadow="2"
     inkscape:pagecheckerboard="0"
     inkscape:deskcolor="#d1d1d1"
     inkscape:document-units="pt"
     inkscape:window-maximized="1" />
  <path
     id="path1335"
     style="fill:#000000;stroke:none;stroke-width:1.1906"
     d="M 11.341797 0.044921875 C 11.173008 0.045303115 10.856142 0.10105043 10.71875 0.21289062 C 9.9706622 0.8218537 9.8389585 1.3837115 9.6386719 2.0703125 C 8.9385145 2.5863395 8.5099439 3.2204097 8.3535156 3.9707031 C 8.2458376 4.3222156 7.9982579 4.6737355 7.609375 5.0273438 C 7.3908992 5.2504726 7.3742807 5.4071424 7.5605469 5.4980469 C 7.925151 5.5691648 8.3237182 5.5672843 8.7558594 5.4902344 C 9.0889707 6.539886 9.3919911 7.0536882 9.6640625 7.0332031 C 9.9629323 7.114041 10.329388 6.5990385 10.765625 5.4882812 C 11.129628 5.6055503 11.480554 5.6493449 11.818359 5.6191406 C 12.231634 5.5514577 12.328418 5.3673713 12.107422 5.0644531 C 11.726356 4.8180989 11.453605 4.4597141 11.291016 3.9902344 C 11.158229 3.3913237 10.880154 2.7831754 10.457031 2.1679688 C 10.494711 1.4437642 11.074923 0.75038901 11.525391 0.77539062 C 12.451441 0.82678787 12.650735 3.1865997 12.679688 4.4609375 C 12.711077 4.7642674 12.643939 5.4152692 12.662109 5.6582031 C 12.667078 5.6969739 12.646363 8.1036707 12.626953 10.574219 L 9.34375 10.6875 L 8.2070312 10.642578 C 7.3541045 9.8032588 6.5950272 9.3828125 5.9316406 9.3828125 C 5.6947164 9.3680912 5.4499847 9.3545711 5.1972656 9.3398438 C 3.854697 9.5754418 3.049764 9.6933594 2.78125 9.6933594 C 2.5917105 9.6933594 2.4960938 9.8112767 2.4960938 10.046875 C 2.4960938 10.370823 2.7657063 10.533203 3.3027344 10.533203 C 4.3925846 10.371232 5.1822324 10.304538 5.671875 10.333984 C 5.9403891 10.333984 6.1602405 10.436429 6.3339844 10.642578 C 6.0022908 11.025422 5.2279282 11.201322 4.0117188 11.171875 C 2.7955093 11.142425 1.7229169 10.995517 0.79101562 10.730469 C 0.33296281 10.730469 0.10351562 10.981774 0.10351562 11.482422 C 0.15090032 11.938892 1.8640256 12.174726 5.2441406 12.189453 L 7.4960938 11.96875 L 12.617188 11.941406 C 12.611268 12.830471 12.601562 13.913618 12.601562 14.470703 C 11.27461 13.75862 9.7010434 13.557424 8.28125 13.876953 C 7.7235399 14.205083 8.5209371 14.63688 8.8867188 14.529297 C 10.272892 14.697092 11.850635 15.112394 12.554688 16.556641 C 12.785064 17.422499 11.774715 16.406308 11.359375 16.478516 C 10.356559 16.235925 9.2692329 16.192106 8.2734375 16.384766 C 7.7456351 16.775018 8.5221802 17.13178 8.8867188 17.048828 C 10.301578 17.239937 11.868907 17.668562 12.554688 19.115234 C 12.562487 20.723498 12.553387 21.786569 12.591797 23.265625 C 12.558857 24.172808 13.64158 24.170637 13.644531 23.28125 C 13.634731 21.823932 13.540325 20.546374 13.710938 19.132812 C 14.055077 17.546988 16.513301 17.303843 18.039062 16.912109 C 18.421701 16.408274 17.499106 16.267323 17.125 16.320312 C 15.939988 16.21854 14.708767 16.415562 13.644531 17.029297 C 13.608331 16.073438 14.448788 15.522843 15.050781 15.138672 C 16.000887 14.680992 17.046914 14.636145 18.039062 14.390625 C 18.439965 14.000756 17.673008 13.6823 17.308594 13.773438 C 16.050962 13.637898 14.754151 13.845559 13.619141 14.470703 C 13.623596 13.613362 13.626015 12.78221 13.630859 11.9375 L 20.335938 11.902344 L 23.9375 11.945312 L 23.9375 6.5566406 C 23.921705 5.8351201 23.502977 5.4746094 22.681641 5.4746094 C 21.876101 5.4746094 21.44973 5.6882121 21.402344 6.1152344 C 21.07065 8.8982406 20.715016 10.29582 20.335938 10.310547 L 13.638672 10.541016 C 13.647678 8.3890008 13.647787 6.2603486 13.603516 4.1757812 C 13.576 2.8797429 13.340282 1.4751745 12.550781 0.50976562 C 12.256884 0.15038499 11.713131 0.044083206 11.341797 0.044921875 z M 9.9042969 2.546875 C 10.239698 2.7012727 10.506408 3.1414957 10.703125 3.8691406 C 10.775585 4.0624142 11.009173 4.4621732 11.404297 5.0683594 C 10.879622 5.0538087 10.493286 4.8214854 10.246094 4.3710938 C 10.246696 4.3249439 10.210834 4.1948651 10.138672 3.9785156 C 10.06651 3.7621657 9.950486 3.6575519 9.7910156 3.6679688 C 9.6412807 3.6506258 9.5027474 3.8690818 9.375 4.3222656 C 9.107853 4.6841948 8.749838 4.9077174 8.2988281 4.9941406 C 8.6889129 4.5482318 8.9145496 4.1036211 8.9765625 3.6601562 C 9.2473178 3.0213226 9.5561548 2.6509892 9.9042969 2.546875 z M 9.8496094 4.5683594 C 9.8928689 4.8449148 10.059724 5.0842582 10.347656 5.2851562 C 10.218105 5.876792 10.020601 6.2601721 9.7558594 6.4375 C 9.4599964 6.1259096 9.3012845 5.7341987 9.2792969 5.2636719 C 9.4314364 5.0964121 9.6207973 4.8653995 9.8496094 4.5683594 z M 22.658203 6.0703125 C 22.989897 6.0703125 23.15625 6.2326925 23.15625 6.5566406 L 23.15625 10.289062 L 21.640625 10.289062 L 22.136719 6.3574219 C 22.152513 6.1659977 22.326509 6.0703125 22.658203 6.0703125 z " />
  <g
     id="g767"
     transform="translate(9.4444356,-0.99745363)" />
  <g
     id="g821"
     transform="matrix(1.1135931,-0.28968929,0.31273279,1.2021745,10.750349,-1.4118645)" />
  <g
     id="g882"
     transform="matrix(1.1291669,-0.13666694,0.12015653,0.99275496,15.884841,-2.4912522)" />
  <g
     id="g917"
     transform="matrix(1.4397839,-0.71501945,0.69695059,1.4033999,5.4199567,-7.8756285)" />
</svg>
