<?xml version="1.0" encoding="UTF-8" standalone="no"?>
<svg
   width="1799.8529"
   height="1797.7578"
   version="1.1"
   id="svg7594"
   xmlns="http://www.w3.org/2000/svg"
   xmlns:svg="http://www.w3.org/2000/svg">
  <defs
     id="defs7598" />
  <path
     id="path7592"
     style="fill:#000000;stroke:none;stroke-width:100.5"
     d="m 1495.9987,0 v 64.679688 c -62.6021,20.642803 -80.0898,52.979462 -105.2493,103.927732 -19.2745,41.22152 -30.1091,100.74366 -28.0301,186.8086 0.8531,35.31882 7.9639,70.18098 19.2279,102.5371 5.97,21.5778 16.8456,45.97227 30.5256,66.04102 28.729,48.75575 65.7563,84.87743 99.5679,96.81836 -0.1039,9.64559 -0.2632,16.20812 -0.3689,25.71094 l -972.53371,-2.94532 c -36.20132,-1.59312 -121.50235,1.91211 -121.50235,1.91211 L 412.16545,115.76367 C 402.67678,96.989781 388.83715,75.769539 374.3666,61.25 333.21398,22.258773 276.64745,10.568359 228.13451,10.568359 c -28.41399,0 -54.06904,4.028776 -72.22635,8.931641 L 0,1049.5312 c 82.461059,55.9203 309.08588,209.1626 300.04919,342.252 l 1.68468,405.9746 115.11279,-1.5762 -0.18741,-308.1445 1082.24135,-3.1836 c -1.781,101.9059 -3.4655,193.5742 -5.3362,312.6582 h 186.8381 L 1645.539,624.76758 C 1749.432,597.20579 1796.582,447.64467 1799.512,356.375 1805.8049,158.784 1723.7529,99.340015 1655.7773,81.306641 V 0 Z m 57.6817,57.078125 h 44.4468 v 80.070315 c 8.6576,-0.2465 16.3356,-0.44336 23.2266,-0.44336 16.483,0 28.4629,1.12452 38.5741,5.38672 77.7064,27.39349 83.1603,146.15042 80.2789,212.33593 -4.0453,91.36377 -49.9846,197.17864 -119.4824,214.3125 -13.7019,3.9527 -28.9953,6.21875 -44.2969,6.21875 -16.4476,0 -32.9048,-2.61717 -47.4058,-8.5664 -47.8705,-21.29096 -108.09,-128.13388 -108.09,-210.66602 0,-134.03852 21.1866,-189.29727 76.6275,-213.50976 11.0306,-4.4427 22.6596,-5.13282 34.3564,-5.13282 5.2753,0 10.5626,0.13868 15.8171,0.13868 1.9879,0 3.9724,-0.0188 5.9477,-0.0742 z M 245.77043,108.43945 c 37.1201,0 82.57247,14.13103 95.82178,46.47852 L 336.72359,1205.9316 C 317.91038,1163.7336 261.99398,1085.1952 95.823757,987.88086 L 221.95406,118.01953 c 5.917,-6.22423 5.74966,-9.58008 23.81637,-9.58008 z m 1331.00627,542.75196 30.0895,608.88279 -43.7287,-0.1855 z M 416.34757,698.77148 1447.7879,701.37891 416.47184,1019.7617 Z M 1510.429,733.36133 c -1.3085,106.09007 -2.7788,205.12403 -4.3024,300.71097 l -980.62773,2.9336 z m -116.0321,355.43747 -977.76921,326.3985 -0.12428,-323.4629 z m 110.6703,19.3321 c -1.6582,100.0688 -3.4145,218.531 -5.2394,322.3281 l -968.55485,2.8476 z m 56.8216,209.8261 46.6622,0.3086 1.3749,50.2481 -49.1616,0.123 z m 49.7533,107.6348 1.0613,35.7559 -53.9986,0.123 0.8108,-35.6309 z m -54.2175,93.0801 56.9636,0.7734 1.592,53.832 -59.8044,0.7422 z m 60.2422,111.7773 3.4009,109.9531 h -68.6045 l 2.4659,-109.0566 z" />
</svg>
