<?xml version="1.0" encoding="UTF-8" standalone="no"?>
<svg
   width="1805.1484"
   height="1801.9358"
   id="svg3409"
   version="1.0"
   xmlns="http://www.w3.org/2000/svg"
   xmlns:svg="http://www.w3.org/2000/svg"
   xmlns:rdf="http://www.w3.org/1999/02/22-rdf-syntax-ns#"
   xmlns:cc="http://creativecommons.org/ns#"
   xmlns:dc="http://purl.org/dc/elements/1.1/">
  <metadata
     id="metadata3416">
    <rdf:RDF>
      <cc:Work
         rdf:about="">
        <dc:format>image/svg+xml</dc:format>
        <dc:type
           rdf:resource="http://purl.org/dc/dcmitype/StillImage" />
      </cc:Work>
    </rdf:RDF>
  </metadata>
  <defs
     id="defs3414" />
  <path
     id="path3411"
     style="fill:#000000;stroke:none;stroke-width:104.246"
     d="M 908.47228,0 C 813.04682,93.153235 753.15481,197.0168 729.29845,309.48242 709.98622,248.13749 676.59085,197.41794 628.31017,153.11328 580.0294,108.8086 520.70543,84.701171 449.13634,84.701171 c -71.56903,0 -134.00073,20.014079 -185.68945,58.638669 -51.68873,38.62453 -32.24264,67.92653 58.63867,91.21484 90.88136,23.28834 158.80988,109.6772 201.97852,257.35938 43.1686,147.68218 89.67951,250.97568 136.82422,309.48047 47.14472,58.50483 90.96369,90.91631 133.56445,97.73242 18.75392,3.00063 35.17528,5.1622 52.12305,6.51563 l 2.29882,392.89452 H 699.00939 C 692.47051,997.46928 522.6769,778.12648 327.859,645.08008 343.79945,580.0924 318.76006,527.47791 251.31994,487.62695 183.87981,447.77601 134.49371,418.89138 102.61291,402.33789 90.657677,396.13033 79.393243,392.8028 68.819938,392.42578 c -17.622207,-0.62835 -33.326488,6.93955 -47.121094,23.0332 -22.07119871,24.5237 -23.3808246,52.44699 -4.375,83.10156 19.005931,30.65461 50.240987,78.38498 96.222656,142.14649 45.98187,63.76155 96.94242,80.68657 150.89453,52.48437 190.90396,117.38815 357.84453,321.6107 364.56641,605.3457 H 35.884391 c -78.777494,36.6905 -8.451532,131.4511 27.169922,175.293 153.400717,161.6483 369.348997,245.4871 581.287107,298.8809 213.95748,50.1707 440.40578,34.399 647.72658,-36.9727 168.6382,-56.4441 338.6026,-136.1499 458.2148,-271.6367 32.6128,-41.6638 77.3124,-110.0659 41.8262,-159.3437 -7.115,-4.3625 -15.5555,-6.3975 -23.8614,-6.2208 h -591.875 c 7.0284,-282.5558 173.3864,-485.96341 363.6075,-602.93163 53.8148,28.13043 104.6449,11.24773 150.5097,-52.35157 45.8647,-63.59925 77.019,-111.20854 95.9766,-141.78515 18.9574,-30.57656 17.6518,-58.42739 -4.3633,-82.88867 -13.7595,-16.05271 -29.4246,-23.60136 -47.0019,-22.97461 -10.5464,0.37606 -21.7802,3.69496 -33.7051,9.88671 -31.7997,16.51138 -81.0596,45.32079 -148.3281,85.07032 -67.2686,39.74955 -92.2456,92.23239 -76.3457,157.05468 -194.1327,132.57841 -363.3426,351.07018 -370.1758,650.91992 H 969.40978 l -2.29883,-392.89452 v -3.25782 c 17.76973,-1.16235 35.55595,-0.0858 55.38085,-3.25781 42.6005,-6.81614 89.6793,-39.22759 136.8242,-97.73242 47.1445,-58.50479 90.3975,-161.79829 133.5664,-309.48047 43.1684,-147.68218 111.6637,-234.07104 201.9766,-257.35938 90.3133,-23.28831 107.0697,-52.59031 55.3808,-91.21484 -51.6885,-38.62459 -114.1186,-58.638668 -185.6875,-58.638668 -71.5688,0 -128.2032,24.107428 -175.916,68.412108 -47.7126,44.30466 -81.6779,95.02421 -100.9902,156.36914 C 1062.6538,197.01679 1002.7616,93.153299 908.47228,0 Z m 0,97.732421 C 959.59294,147.71715 1013.422,278.49305 1071.359,488.65625 c 37.4885,-122.68989 88.9264,-217.94879 153.1113,-286.67774 64.185,-68.72897 153.3789,-80.29084 270.3887,-32.57812 -129.506,36.3525 -221.2397,157.12245 -276.9043,361.60547 -55.6651,204.48292 -158.3921,309.48243 -309.48242,309.48242 -151.09034,0 -253.24771,-104.99949 -309.48047,-309.48242 C 542.75898,326.52283 447.19954,205.75289 318.8297,169.40039 435.83937,121.68767 528.29129,133.24954 592.47619,201.97851 656.66113,270.70746 708.09891,365.96637 745.58751,488.65625 803.52438,278.49304 857.35152,147.71708 908.47228,97.732421 Z M 58.874626,450.44922 c 31.880586,15.94037 78.651654,40.0204 139.960934,74.35351 61.30896,34.33317 75.3522,64.87359 45.92383,91.84961 -25.74994,35.55936 -58.55913,25.43902 -98.41016,-32.80469 C 106.49831,525.60391 78.493504,481.10379 58.874626,450.44922 Z m 1686.146474,3.03125 c -19.569,30.57657 -47.5024,74.96501 -87.252,133.06054 -39.7495,58.0955 -72.4737,68.18761 -98.1582,32.71875 -29.3534,-26.90738 -15.3463,-57.36945 45.8067,-91.61523 61.1532,-34.24575 107.804,-58.26425 139.6035,-74.16406 z M 95.275016,1358.3692 c 2.846841,-0.3087 6.233474,-0.2829 10.216794,0.1172 H 1726.7379 c -47.8809,119.9502 -168.9241,187.42 -277.1035,245.5097 -238.468,119.3941 -517.20363,174.5819 -779.81837,111.0782 -189.9341,-42.996 -378.41758,-120.5306 -522.90625,-254.0664 -15.36283,-18.1966 -94.337366,-98.0083 -51.634764,-102.6387 z" />
</svg>
