<?xml version="1.0" encoding="UTF-8" standalone="no"?>
<svg
   width="622.72302"
   height="1800.229"
   version="1.1"
   id="svg3114"
   xmlns="http://www.w3.org/2000/svg"
   xmlns:svg="http://www.w3.org/2000/svg">
  <defs
     id="defs3118" />
  <path
     id="path3112"
     style="fill:#000000;stroke:none;stroke-width:100"
     d="m 0.15077,0 75.1914,27.34375 v 241.52344 l 66.07618,18.22851 V 43.292969 l 70.63476,27.341797 V 314.4375 l 63.79883,18.22852 V 84.306641 l 70.63476,25.064449 v 250.63672 l 66.07813,18.22852 V 129.87695 l 70.63281,25.06446 v 301.2832 l 0.53516,61.01172 c 69.87458,9.11409 104.8125,45.57065 104.8125,109.36914 0,63.79856 -31.14045,101.77567 -93.41992,113.92773 85.06464,88.10274 127.59765,192.91457 127.59765,314.4355 -27.34222,41.0136 -73.6727,61.5216 -138.99023,61.5216 l -0.68397,683.7388 H 0 Z m 75.1914,330.38672 -4.02343,319.00391 h 337.22265 l 2.69922,-133.24414 1.32422,-76.39063 z M 483.7328,558.25 v 11.39258 c 34.93731,0 52.40625,19.74788 52.40625,59.24219 0,39.49437 -17.46894,59.24218 -52.40625,59.24218 H 71.31874 v 13.66993 H 483.7328 c 42.53236,0 63.79882,-24.30371 63.79882,-72.91211 0,-47.08937 -21.26646,-70.63477 -63.79882,-70.63477 z m 0,50.12891 v 41.01172 c 19.74719,0 29.62109,-6.45557 29.62109,-19.36719 0,-12.91163 -9.8739,-20.12553 -29.62109,-21.64453 z M 408.54139,740.5332 H 71.31874 l -0.68397,989.0611 h 337.22265 z m 75.19141,45.57032 v 13.66992 c 59.24149,69.87459 88.86132,146.58713 88.86132,230.13276 -19.74718,22.7853 -49.36702,34.1778 -88.86132,34.1778 v 11.3926 c 48.6084,0 81.26742,-13.6714 97.97656,-41.0137 0,-92.65971 -32.65903,-175.44683 -97.97656,-248.35938 z m 0,84.30468 v 154.9414 c 21.26618,0 37.21456,-5.318 47.84765,-15.9512 0,-66.83648 -15.94837,-113.16701 -47.84765,-138.9902 z" />
</svg>
