<?xml version="1.0" encoding="UTF-8" standalone="no"?>
<!-- Created with Inkscape (http://www.inkscape.org/) -->

<svg
   width="816.45508"
   height="1799.8763"
   id="svg3987"
   version="1.1"
   xmlns="http://www.w3.org/2000/svg"
   xmlns:svg="http://www.w3.org/2000/svg"
   xmlns:rdf="http://www.w3.org/1999/02/22-rdf-syntax-ns#"
   xmlns:cc="http://creativecommons.org/ns#"
   xmlns:dc="http://purl.org/dc/elements/1.1/">
  <defs
     id="defs3" />
  <metadata
     id="metadata4">
    <rdf:RDF>
      <cc:Work
         rdf:about="">
        <dc:format>image/svg+xml</dc:format>
        <dc:type
           rdf:resource="http://purl.org/dc/dcmitype/StillImage" />
      </cc:Work>
    </rdf:RDF>
  </metadata>
  <path
     id="path1309"
     style="color:#000000;display:inline;overflow:visible;visibility:visible;fill:#000000;fill-opacity:1;fill-rule:nonzero;stroke:none;stroke-width:601.197;stroke-linecap:butt;stroke-linejoin:round;stroke-miterlimit:4;stroke-dashoffset:0;stroke-opacity:1;marker:none;marker-start:none;marker-mid:none;marker-end:none"
     d="M 414.92188,0.01953125 C 370.15423,-0.90096593 325.02716,31.795722 308.72656,74.353516 296.17587,107.12103 291.42993,152.37694 291.5,195.5625 249.25287,155.07778 169.59892,86.919677 126.04102,74.623047 35.751967,49.133959 -9.629842,119.85013 1.7128906,175.16602 22.508162,276.57975 10.655067,212.52386 35.212891,207.17773 67.705223,200.1043 117.40051,261.75417 143.2793,274.03711 110.53128,310.53551 34.525486,401.40215 21.511719,471.92383 5.315665,559.69071 95.791199,584.8089 142.79297,569.36719 217.48227,544.82913 248.00551,432.84807 260.18555,358.2832 c 6.51045,40.7548 -25.1677,177.59146 74.6914,216.28516 0.44087,105.76767 2.93876,170.73063 -0.30859,250.10742 -9.22454,225.47622 -58.14258,709.17842 -58.14258,800.46482 -3.03937,81.6716 21.25552,169.6202 116.28516,174.7364 97.93496,-1.5639 115.67991,-95.8769 116.28711,-174.7364 0,-86.3677 -49.3145,-584.6804 -58.14258,-800.46482 -3.2798,-80.16785 -0.70639,-145.1417 -0.30859,-252.87695 0.093,-0.0422 0.21639,0.0426 0.30859,0 21.10475,-9.68686 41.51537,-28.37515 50.75976,-55.06641 25.40868,-73.36144 13.33741,-125.39416 38.52149,-160.25 5.54799,34.47438 30.26315,184.16087 117.69336,212.88477 46.98965,15.43774 137.47788,-9.66367 121.2793,-97.44336 -12.43549,-67.38756 -94.24464,-179.06493 -130.09571,-219.54492 38.11568,-41.96224 85.30388,-70.20313 106.03125,-70.20313 19.90055,0 30.48505,65.33546 49.33594,6.43945 C 818.20375,145.4283 844.92469,54.29763 715.4082,55.445312 650.08227,56.024184 553.22152,158.98389 520.56445,182.93359 523.99135,139.76492 519.48643,111.22641 504.99805,74.353516 484.34337,21.787788 449.74116,0.73547349 414.92188,0.01953125 Z M 406.24609,54.339844 c 16.24331,-0.40808 32.69321,12.82881 43.37891,40.933594 9.83918,26.003422 8.37453,97.430192 2.15234,145.203122 -17.64366,15.34153 -31.79771,33.92191 -46.45312,51.99024 -12.58507,-19.41996 -31.53406,-37.62842 -50.75977,-53.83594 -4.19766,-45.21253 -0.35604,-117.21131 9.53711,-143.357422 9.86338,-26.472459 25.90123,-40.525514 42.14453,-40.933594 z m 320.99219,51.078126 c 25.50959,-0.25869 40.51666,8.57014 35.13281,19.97461 -5.348,11.32854 -46.35119,24.7407 -73.19336,40.08008 -37.92206,21.67115 -122.13655,95.21069 -150.86613,120.1296 -28.54271,24.75689 -58.3118,67.07837 -71.84695,102.04256 -9.34967,24.15219 -6.28489,28.37686 -9.97827,73.48165 -2.75483,33.64285 -15.50246,40.37377 -27.7813,55.29931 -1.43093,0.74247 -64.89575,26.63467 -91.06055,-10.46094 C 305.14526,459.88874 313.76675,389.45339 291.85352,330.67578 276.88212,290.51822 124.0507,199.56515 63.84375,165.56641 c -24.851465,-14.03358 1.243599,-41.42425 23.029297,-43.99219 3.112247,-0.36685 6.136912,-0.22632 8.912109,0.53125 47.081224,5.10307 234.013504,164.03756 253.191584,189.85547 l 50.53739,51.16726 c 17.18972,-26.5865 58.77258,-55.71729 69.33939,-67.76492 21.03145,-23.9787 158.18168,-160.62979 203.26171,-178.25781 20.73057,-8.10645 39.8173,-11.53229 55.12305,-11.6875 z M 614.00781,288.64648 c 40.22246,43.30933 106.22625,139.75821 115.93164,192.35157 9.16389,44.82179 -43.16632,45.24911 -56.5039,40.86718 -49.89165,-16.39107 -80.35151,-104.57385 -93.4043,-197.17578 9.14939,-5.83031 23.78567,-30.65339 33.97656,-36.04297 z m -423.99219,8.40235 c 9.59062,5.00109 23.09726,13.59013 31.34376,18.66015 -19.6642,139.59408 -56.63122,193.82285 -94.17188,206.15625 -6.43192,2.11311 -65.76984,9.33436 -56.505859,-40.86718 19.43186,-67.50782 71.415829,-133.36316 119.333979,-183.94922 z m 202.69532,544.85351 c 10.16365,224.02486 57.2207,703.21506 57.2207,783.23826 -0.95232,45.0403 1.67768,114.1508 -57.2207,115.6699 -59.70742,0.3886 -56.70544,-71.3407 -57.21875,-115.6699 0,-78.8488 47.17355,-561.8243 57.21875,-783.23826 z" />
</svg>
