<?xml version="1.0" encoding="UTF-8" standalone="no"?>
<svg
   width="1393.4977"
   height="1251.329"
   version="1.1"
   id="svg1"
   xmlns="http://www.w3.org/2000/svg"
   xmlns:svg="http://www.w3.org/2000/svg">
  <defs
     id="defs1" />
  <path
     id="path1335"
     style="fill:#000000;stroke:none;stroke-width:92.0344"
     d="M 648.13757,0.00948683 C 608.55173,1.0027226 571.45468,28.598368 559.88919,69.891166 548.15114,36.776209 518.16043,8.1441762 480.12288,3.1794713 463.45016,1.0034832 434.17396,2.2854004 404.57522,28.019397 386.85383,44.54259 377.0758,68.398191 375.10045,92.129119 368.779,44.204817 328.79659,7.8071402 285.6669,4.5296122 242.19939,1.2282551 200.27513,30.659932 188.32144,75.044841 177.98996,38.289825 146.18548,7.3150652 106.50704,1.88395 18.557141,-10.154466 -39.644896,92.896642 32.562927,164.6084 c 6.597222,6.55192 13.97816,12.29442 21.811945,17.08864 l -18.607936,2.11924 c 0,163.6837 -1.659591,166.4924 4.219547,295.4939 C 97.536602,1742.0886 1308.9466,1081.7716 1347.4649,1055.7309 c 69.2153,-46.7938 50.3294,-65.68066 8.9669,-78.84054 -35.2205,-11.20578 -566.54689,-91.67134 -586.34261,-276.84269 17.88691,56.91102 295.29991,115.99554 406.42931,-40.09895 l -38.0087,-188.01788 c -58.6303,48.40357 -261.47547,111.32964 -288.95141,16.04565 52.09007,-9.01736 143.57995,-92.40631 139.70981,-182.05672 -1.7475,-40.47776 -10.14431,-72.49416 -38.41015,-89.05778 -93.07358,-45.0209 -142.786,44.95376 -180.76886,113.28053 0.7547,-75.50452 -0.75551,-9.87907 0,-85.75574 C 772.86226,184.32666 750.11236,93.017606 744.71178,78.352513 739.23439,63.478932 732.97745,48.674242 723.55308,35.828628 696.76098,3.4535847 663.38916,-0.21898947 648.13757,0.00948683 Z M 693.73638,60.494812 c 18.44317,22.282821 24.1527,58.833288 -9.0249,89.385498 -17.63476,15.98144 -49.60303,5.95035 -69.69495,-13.9416 -19.71242,-19.5182 -31.04432,-50.175843 -2.60191,-81.879995 31.92229,-27.058555 64.24387,-14.197659 81.32176,6.436097 z M 129.4692,151.03819 C 111.82983,167.02387 79.862522,156.98509 59.774339,137.0966 17.031199,94.774667 50.213991,44.897991 90.437622,40.586392 137.71345,35.518846 182.44359,102.25545 129.4692,151.03819 Z M 512.10892,62.948211 c 18.4434,22.282929 24.15374,58.833269 -9.02386,89.385499 -17.63819,15.98522 -49.60756,5.94724 -69.69599,-13.94159 -19.71242,-19.51809 -31.0442,-50.174828 -2.6019,-81.878909 31.91531,-27.053154 64.23881,-14.204817 81.32175,6.435 z m -189.70426,1.840601 c 18.443,22.282892 24.15252,58.833258 -9.02496,89.385508 -17.63227,15.97984 -49.59798,5.95518 -69.69489,-13.9416 -19.71243,-19.51819 -31.04432,-50.174832 -2.60196,-81.878907 31.93517,-27.069935 64.25657,-14.183265 81.32181,6.434999 z m 53.48776,43.231738 c 4.71684,33.25429 27.04602,58.31029 47.95725,72.31871 -26.93034,0.007 -54.38854,0.0275 -81.89093,0.0633 22.80605,-22.06379 33.13788,-47.63639 33.93368,-72.38206 z m -186.48184,16.11209 c 5.07333,16.30887 14.59809,31.27583 27.06285,43.61188 4.78297,4.73387 9.96557,9.05525 15.43373,12.8995 -26.73073,0.0857 -52.85343,0.19173 -77.88421,0.32334 6.7316,-5.75466 28.05537,-25.98044 35.38763,-56.83472 z m 373.47928,1.85918 c 9.51501,24.54899 28.05015,43.08438 46.6016,54.46978 -24.4988,-0.0367 -51.3251,-0.0702 -79.73245,-0.0928 17.8964,-16.6594 28.50734,-35.42381 33.13085,-54.37693 z m 179.68202,4.41853 c -0.78228,16.82499 -1.64287,33.9438 -2.47857,50.32324 -7.03423,-0.0197 -17.8532,-0.0486 -31.8331,-0.0819 4.13348,-3.39039 25.08077,-21.63423 34.31167,-50.24132 z m -26.20149,85.64586 c -0.6071,12.12989 0.12158,25.21789 0,37.36311 -94.57117,0.68933 -570.63402,0.72688 -621.520596,0 v -37.36311 c 134.619436,-3.35399 307.118766,-0.8667 621.520596,0 z m 0,71.50818 V 415.65234 H 94.849794 V 287.56439 c 0,0 531.752076,0.64921 621.520596,0 z m 219.48745,9.97925 c -0.362,38.62255 -24.09713,165.49288 -165.5526,149.21213 1.88628,-8.38383 66.1728,-158.14501 109.30338,-180.71863 26.62791,-14.02495 56.61627,-7.66737 56.24922,31.5065 z M 716.37039,467.87423 C 664.20111,898.60067 856.67802,912.97953 1247.4111,1019.1349 1150.792,1149.9688 139.34559,1530.3846 94.849794,467.87423 c 200.408346,-6.29758 422.388436,6.39432 621.520596,0 z m 55.46068,44.76323 c 22.58261,45.56432 177.24376,155.46952 325.76673,42.48283 5.2425,17.89535 10.9886,32.74275 19.3184,76.29421 -60.8442,125.60812 -331.14787,70.28354 -346.04526,-3.97705 -6.46108,-47.08138 -0.18249,-67.39845 0.96013,-114.79999 z" />
</svg>
