<?xml version="1.0" encoding="UTF-8" standalone="no"?>
<svg
   width="1551.5985"
   height="1798.79"
   version="1.1"
   id="svg1141"
   xmlns="http://www.w3.org/2000/svg"
   xmlns:svg="http://www.w3.org/2000/svg">
  <defs
     id="defs1145" />
  <path
     id="path1139"
     style="fill:#000000;stroke:none;stroke-width:100.064"
     d="M 129.27586,0.14348374 3.802464,827.12102 v 5.70469 C 162.22738,939.28725 241.43964,1028.0061 241.43964,1098.9805 v 252.845 h -57.9079 l -34.83778,-130.0181 -78.313736,20.9857 29.214247,109.0324 H 0 v 93.1534 h 1273.7384 c -16.4763,82.381 -9.1887,159.6927 21.8626,231.9345 31.0514,72.2417 69.0734,112.1663 114.066,119.7707 44.9927,7.6044 82.6964,-5.3868 113.1139,-38.9728 30.4176,-33.5861 36.7559,-88.7186 19.0124,-165.3963 -17.7437,-76.6777 -69.0732,-146.0669 -153.989,-208.1696 -49.4284,-21.5459 -107.0963,-31.0524 -173.0012,-28.5175 V 93.296926 C 1193.2573,29.926959 1124.8173,-1.123929 1009.4839,0.14348374 L 885.91276,827.12102 v 5.70469 c 157.15754,106.46154 235.73694,195.18039 235.73694,266.15479 v 256.6474 h -113.781 l -35.85714,-133.8205 -78.31572,20.9857 30.23365,112.8348 H 775.64922 V 93.296926 C 752.83607,29.926959 684.39603,-1.123929 570.33002,0.14348374 L 444.85663,832.82571 C 602.0142,939.28725 680.59356,1028.0061 680.59356,1098.9805 v 254.7472 H 554.33829 l -35.34846,-131.9203 -78.31373,20.9857 29.72295,110.9346 H 334.59309 V 93.296926 C 313.04727,28.659546 244.60914,-2.3913417 129.27586,0.14348374 Z M 188.2091,74.286585 c 43.09157,0 70.34139,12.039864 81.74803,36.120435 v 842.18739 h -1.90222 C 189.47613,862.60905 127.37442,805.57599 81.748028,781.49541 Z m 439.15393,3.802463 c 43.09162,0 70.97427,11.405054 83.64827,34.218212 v 840.28715 h -3.80247 C 629.89745,863.87646 567.79575,807.47622 520.90195,783.39565 Z m 441.05617,0 c 43.0915,0 70.3413,11.405054 81.748,34.218212 v 840.28715 h -1.9022 C 1069.6861,863.87646 1007.5825,807.47622 961.9561,783.39565 Z M 1363.0893,1473.4964 c 43.0916,49.4285 71.2925,91.57 84.6004,126.4235 13.3074,34.8535 16.474,64.0039 9.5032,87.4508 -6.9706,23.447 -19.9598,27.8828 -38.9708,13.3076 -19.0109,-14.5749 -33.9046,-39.6059 -44.6775,-75.0933 -10.7731,-35.4872 -14.2577,-86.1839 -10.4553,-152.0886 z" />
</svg>
