<?xml version="1.0" encoding="UTF-8" standalone="no"?>
<svg
   width="1090"
   height="810"
   id="svg2"
   sodipodi:version="0.32"
   inkscape:version="1.2.1 (9c6d41e410, 2022-07-14)"
   sodipodi:docname="US9M36VARA.svg"
   inkscape:output_extension="org.inkscape.output.svg.inkscape"
   version="1.0"
   xmlns:inkscape="http://www.inkscape.org/namespaces/inkscape"
   xmlns:sodipodi="http://sodipodi.sourceforge.net/DTD/sodipodi-0.dtd"
   xmlns="http://www.w3.org/2000/svg"
   xmlns:svg="http://www.w3.org/2000/svg"
   xmlns:rdf="http://www.w3.org/1999/02/22-rdf-syntax-ns#"
   xmlns:cc="http://creativecommons.org/ns#"
   xmlns:dc="http://purl.org/dc/elements/1.1/">
  <metadata
     id="metadata9">
    <rdf:RDF>
      <cc:Work
         rdf:about="">
        <dc:format>image/svg+xml</dc:format>
        <dc:type
           rdf:resource="http://purl.org/dc/dcmitype/StillImage" />
      </cc:Work>
    </rdf:RDF>
  </metadata>
  <defs
     id="defs7">
    <inkscape:perspective
       sodipodi:type="inkscape:persp3d"
       inkscape:vp_x="0 : 189.1895 : 1"
       inkscape:vp_y="0 : 1000 : 0"
       inkscape:vp_z="5.8304138 : 189.1895 : 1"
       inkscape:persp3d-origin="2.9152069 : 188.1585 : 1"
       id="perspective11" />
  </defs>
  <sodipodi:namedview
     inkscape:window-height="1137"
     inkscape:window-width="1920"
     inkscape:pageshadow="2"
     inkscape:pageopacity="0.0"
     guidetolerance="10.0"
     gridtolerance="10.0"
     objecttolerance="10.0"
     borderopacity="1.0"
     bordercolor="#666666"
     pagecolor="#ffffff"
     id="base"
     showgrid="false"
     inkscape:zoom="0.49555556"
     inkscape:cx="898.99103"
     inkscape:cy="900"
     inkscape:window-x="-8"
     inkscape:window-y="-8"
     inkscape:current-layer="svg2"
     inkscape:showpageshadow="2"
     inkscape:pagecheckerboard="0"
     inkscape:deskcolor="#d1d1d1"
     inkscape:window-maximized="1" />
  <path
     id="path2897"
     style="color:#000000;fill:#000000;stroke-width:4.53988;stroke-linecap:round;stroke-linejoin:round"
     d="m 279.35649,2.0394143 a 43.30119,40.117272 0 0 0 -43.30096,40.1173957 43.30119,40.117272 0 0 0 43.30096,40.117396 43.30119,40.117272 0 0 0 43.301,-40.117396 43.30119,40.117272 0 0 0 -43.301,-40.1173957 z m 157.17566,0.166567 A 43.30119,40.117272 0 0 0 393.22891,42.323377 43.30119,40.117272 0 0 0 436.53215,82.440761 43.30119,40.117272 0 0 0 479.83322,42.323377 43.30119,40.117272 0 0 0 436.53215,2.2059813 Z M 724.96688,3.6182998 A 43.30119,40.117272 0 0 0 681.66594,43.733353 43.30119,40.117272 0 0 0 724.96688,83.850737 43.30119,40.117272 0 0 0 768.26782,43.733353 43.30119,40.117272 0 0 0 724.96688,3.6182998 Z M 587.61532,6.0253478 A 43.30119,40.117272 0 0 0 544.31425,46.142743 43.30119,40.117272 0 0 0 587.61532,86.260127 43.30119,40.117272 0 0 0 630.91626,46.142743 43.30119,40.117272 0 0 0 587.61532,6.0253478 Z M 258.88493,104.88071 c -38.42217,7.74244 -35.03157,54.10747 -25.48512,82.93976 12.9862,60.61256 20.84291,122.31648 32.67809,183.25201 15.33871,87.623 30.26555,175.3337 42.95142,263.386 -89.28957,5.05167 -178.77701,3.68497 -268.117924,7.25162 -44.4924387,13.01762 -39.188419,67.73875 -36.5936392,104.14326 10.3732822,49.73432 69.0707402,43.37037 107.6671132,41.94037 103.5656,0.1045 207.27433,4.22153 310.74321,2.35539 61.8899,-6.43842 134.76355,-5.69958 179.58987,-56.03293 44.22501,-53.75718 50.98258,-126.067 70.62072,-190.53422 2.27767,-8.96137 4.54165,-17.92803 6.81764,-26.89036 47.90553,24.22063 94.86261,52.42616 131.48886,92.12225 19.76775,24.32633 33.01155,53.1256 47.99298,80.49283 17.46749,33.82463 33.89477,68.18847 49.35619,102.975 12.34917,30.97856 58.58182,6.40971 43.5473,-20.32846 -27.71845,-61.40951 -56.78474,-122.54335 -92.71347,-179.64388 -20.9509,-29.27025 -48.3657,-52.31361 -78.06465,-72.25589 71.31236,27.04303 140.64267,59.50841 209.41983,92.30051 23.66295,10.83184 47.09615,24.78314 70.43765,33.84409 35.2587,2.42757 32.606,-45.79123 2.8974,-51.17898 -97.14224,-49.01494 -196.11131,-94.9133 -298.57665,-131.747 44.13192,-12.02677 89.57216,-21.51534 131.16755,-41.03228 38.59438,-18.85197 68.45717,-61.48074 60.3168,-105.58851 -4.69251,-34.35146 -37.58346,-58.33671 -71.22131,-58.80837 -34.75097,-1.55572 -70.3734,7.62432 -98.14915,29.08395 -20.64269,13.61557 -40.8288,27.8913 -60.75799,42.52439 15.11271,-60.75045 30.02615,-121.54833 44.50452,-182.43323 1.83672,-33.17542 -38.56122,-38.38435 -63.5028,-35.33614 z m 38.97956,66.66055 398.4009,6.03872 c -39.25695,154.16588 -73.6519,309.8791 -118.7898,462.35418 -10.64145,36.65208 -33.60013,72.97635 -76.24415,73.51797 -100.96903,21.20663 -190.22369,11.19988 -292.41351,13.50157 -39.64977,-3.83932 -107.9205,1.77954 -138.677148,-10.94199 22.932908,-26.27464 72.022958,-12.51805 108.288818,-17.1684 61.66399,-1.34965 116.45922,5.48733 177.68015,-3.20931 43.98268,-28.12985 9.40071,-84.91363 10.17948,-125.77162 -21.05121,-133.06877 -44.71669,-265.7056 -68.42474,-398.32112 z m 579.32559,134.18677 c 9.44208,-0.11411 18.69342,1.49499 27.09684,6.25933 14.21628,19.40175 1.83612,46.15218 -16.15245,58.62771 -25.86636,19.55033 -59.20451,23.99589 -89.24603,34.1045 -32.09854,8.8063 -64.33101,17.46305 -96.92924,24.27684 2.12848,-8.43633 4.23522,-16.87832 6.35782,-25.31622 42.98396,-32.51955 85.31615,-66.46441 132.90589,-92.01426 11.37322,-2.79646 23.82737,-5.79123 35.96717,-5.9379 z" />
</svg>
