<?xml version="1.0" encoding="UTF-8" standalone="no"?>
<!-- Created with Inkscape (http://www.inkscape.org/) -->

<svg
   width="1314.6719"
   height="1796.3574"
   viewBox="0 0 1314.6719 1796.3574"
   version="1.1"
   id="svg10448"
   inkscape:version="1.2.2 (732a01da63, 2022-12-09)"
   sodipodi:docname="US9M300XTAB.svg"
   xmlns:inkscape="http://www.inkscape.org/namespaces/inkscape"
   xmlns:sodipodi="http://sodipodi.sourceforge.net/DTD/sodipodi-0.dtd"
   xmlns="http://www.w3.org/2000/svg"
   xmlns:svg="http://www.w3.org/2000/svg">
  <sodipodi:namedview
     id="namedview10450"
     pagecolor="#ffffff"
     bordercolor="#000000"
     borderopacity="0.25"
     inkscape:showpageshadow="2"
     inkscape:pageopacity="0.0"
     inkscape:pagecheckerboard="0"
     inkscape:deskcolor="#d1d1d1"
     inkscape:document-units="px"
     showgrid="false"
     inkscape:zoom="0.2102413"
     inkscape:cx="225.93087"
     inkscape:cy="556.50341"
     inkscape:window-width="1920"
     inkscape:window-height="1137"
     inkscape:window-x="-8"
     inkscape:window-y="-8"
     inkscape:window-maximized="1"
     inkscape:current-layer="svg10448" />
  <defs
     id="defs10445" />
  <path
     id="path1847"
     style="fill:#000000;stroke:none;stroke-width:62.8973"
     d="M 563.9746,0.0019304 C 497.9204,0.4285304 448.1608,81.46593 427.6679,116.66793 c -43.0109,7.203 -76.292,26.2396 -99.8457,57.1094 -12.2888,13.3769 -30.7211,23.6661 -55.2988,30.8691 -14.3369,5.145 -18.4334,11.8345 -12.289,20.0664 14.3369,11.3189 31.7453,20.0664 52.2265,26.2403 -8.1925,54.5366 -6.1442,84.3784 6.1445,89.5234 11.2648,10.2899 38.4012,-4.633 81.4122,-44.7637 13.3129,13.377 27.6507,23.1523 43.0117,29.3262 19.4574,6.174 27.6503,4e-4 24.5781,-18.5215 -11.2647,-19.5509 -15.3612,-41.6752 -12.2891,-66.3711 7.1685,-29.8407 8.1908,-63.2805 3.0703,-100.3242 41.9869,-67.9135 83.4651,-93.6396 124.4278,-77.1758 40.9628,16.4639 60.4193,68.4283 58.3711,155.8926 V 794.25975 C 583.8397,763.39 523.42,747.95701 459.9277,747.95701 c -28.674,-30.86975 -62.4702,-47.84849 -101.3848,-50.93555 -17.4091,-3.08695 -35.8415,-12.34832 -55.2988,-27.7832 -13.3129,-10.28988 -21.5059,-10.28988 -24.5781,0 -1.0241,18.52182 1.5371,37.55657 7.6816,57.10742 -49.1554,23.66682 -72.1991,42.7056 -69.1269,57.11133 -2.0482,14.40597 25.0902,28.29688 81.414,41.67383 -4.0962,18.52182 -4.6093,36.01657 -1.5371,52.48047 7.1685,19.55073 16.9006,22.63475 29.1895,9.25781 10.2407,-19.55084 26.6227,-34.98384 49.1523,-46.30273 27.6498,-11.3189 55.8143,-28.81181 84.4883,-52.47852 47.1072,10.28988 87.5573,28.03966 121.3516,53.25 33.7943,25.21036 52.2286,47.07779 55.3007,65.59961 2.0483,50.42059 3.5834,85.40584 4.6075,104.95712 -72.7089,-31.89887 -133.1286,-47.8497 -181.2598,-47.8497 -32.7702,-28.81185 -68.6127,-43.21679 -107.5273,-43.21679 -17.4092,-1.02891 -36.8676,-8.74638 -58.3731,-23.15235 -13.3129,-8.23205 -20.9948,-7.20393 -23.0429,3.08594 0,18.52183 4.0964,37.55658 12.289,57.10742 -47.1072,26.75404 -68.6099,47.33638 -64.5137,61.74228 -1.024,15.4349 27.1365,27.2681 84.4844,35.5 -2.0481,17.4929 -1.0241,34.4716 3.0723,50.9355 9.2165,19.5507 19.4559,22.1226 30.7207,7.7168 8.1926,-20.58 23.0434,-37.5586 44.5488,-50.9355 26.6258,-13.3768 52.74,-33.4415 78.3418,-60.1953 37.8905,4.1161 76.0369,20.5807 114.4395,49.3925 38.4026,28.8116 59.1407,52.4781 62.2128,71 1.9957,9.023 1.6721,93.9448 1.6544,229.5293 H 0 v 44.2422 h 93.152299 v 154.8477 H 0 v 45.623 h 93.152299 v 154.8457 H 0 v 44.2442 h 1314.6718 v -44.2442 h -93.1523 v -154.8457 h 93.1523 v -45.623 h -93.1523 v -154.8477 h 93.1523 v -44.2422 h -622.496 c 2.0387,-135.5845 4.85,-220.5063 5.8476,-229.5293 4.0963,-18.5219 22.0174,-39.8735 53.7637,-64.0546 31.7461,-24.1815 72.7111,-40.9051 122.8906,-50.1661 23.5535,22.6378 48.6418,40.6467 75.2676,54.0235 21.5054,13.3769 36.3561,30.3555 44.54882,50.9355 11.26478,14.406 21.50408,11.8341 30.72068,-7.7168 4.096,-16.4639 5.1203,-33.4427 3.0723,-50.9355 57.3481,-8.2321 85.5087,-20.0651 84.4844,-35.5 5.1204,-14.4059 -16.3824,-34.98456 -64.5137,-61.73837 8.1924,-19.55085 12.2851,-38.5895 12.2851,-57.11133 -2.048,-10.28976 -9.7261,-11.31788 -23.039,-3.08594 -21.5055,14.40575 -40.96378,22.12322 -58.3731,23.15235 -38.9146,0 -73.731,14.40505 -104.4531,43.21679 l -1.4726,-1.47656 c -64.9598,1.25305 -124.389,17.66883 -178.254,49.32626 1.0241,-18.52215 2.0484,-53.50751 3.0723,-104.95712 4.0963,-18.52182 24.8344,-40.38925 62.2129,-65.59961 37.3785,-25.21034 75.5267,-41.93211 114.4414,-50.16406 27.6498,20.57987 55.8104,36.53071 84.4844,47.84961 22.5296,11.3189 38.91522,26.75199 49.1562,46.30273 12.2889,13.37694 22.0169,10.28924 29.1856,-9.26172 3.0722,-16.46378 2.5613,-33.44068 -1.5352,-50.93359 56.3238,-14.40586 83.4602,-28.8128 81.4121,-43.21875 3.0722,-14.40586 -19.9678,-33.44256 -69.123,-57.10938 5.1203,-19.55085 7.6777,-38.58549 7.6777,-57.10742 -4.0963,-10.28988 -12.2891,-10.28988 -24.5781,0 -20.4812,15.43487 -38.91378,24.69625 -55.2988,27.78321 -38.9147,3.08705 -72.7069,20.06579 -101.3809,50.93554 -65.5404,1.02902 -125.4508,16.97596 -179.7266,47.84571 V 218.53903 c 0,-82.3194 -14.5933,-139.9433 -43.7792,-172.8711 C 625.6341,16.85613 596.6089,-0.2088696 563.9746,0.0019304 Z M 873.205,962.56834 c 0.4955,-0.0132 0.9766,-0.0576 1.4727,-0.0664 h -1.5391 z M 417.791,144.04883 c 2.7954,-0.1924 5.5804,-0.077 8.3418,0.4023 11.2647,14.4059 13.311,40.132 6.1426,77.1758 -1.0241,10.2899 0.513,33.4423 4.6093,69.457 -22.5295,-12.3479 -34.306,-31.3846 -35.33,-57.1093 3.7527,-12.1166 7.5792,-36.028 -4.6075,-41.6739 -6.1443,-4.1159 -16.8987,2.5716 -32.2597,20.0645 -19.4573,10.2899 -39.938,12.3477 -61.4434,6.1738 26.6257,-11.319 46.0823,-26.2399 58.3711,-44.7617 16.5025,-11.9698 36.6081,-28.3817 56.1758,-29.7285 z m -37.7402,89.9258 c -4.0963,13.3768 -2.05,27.7819 6.1425,43.2168 -18.4332,23.6668 -35.3303,36.5298 -50.6914,38.5878 -6.1443,-20.5798 -4.6073,-41.6743 4.6094,-63.2832 10.2407,-4.1159 23.5543,-10.2896 39.9395,-18.5214 z m 645.164,466.13277 c -5.1203,20.57987 -17.9209,36.01676 -38.4023,46.30664 -22.5296,3.08695 -33.7969,9.25856 -33.7969,18.51953 -1.415,14.69832 18.3054,24.25505 30.7246,24.69727 20.4812,15.43487 29.6983,36.01538 27.6504,61.74023 -27.6501,-23.66659 -45.5711,-37.55958 -53.7637,-41.67578 -35.8424,-14.40584 -56.325,-30.35485 -61.4453,-47.84765 7.1686,-16.4639 27.6511,-29.32692 61.4453,-38.58789 21.5053,0 44.0342,-7.71747 67.5879,-23.15235 z m -715.8281,1.54297 c 22.5295,15.43488 45.0604,23.15234 67.5898,23.15234 33.7943,9.26097 54.2768,22.124 61.4454,38.5879 -6.1445,17.4928 -27.1401,32.92786 -62.9825,46.30468 -8.1926,5.145 -25.6007,19.55194 -52.2265,43.21875 -2.0482,-25.72485 7.1669,-46.30536 27.6484,-61.74023 11.5638,-2.58313 33.8711,-12.28632 30.7246,-24.69727 0,-9.26097 -11.7784,-15.43247 -35.332,-18.51953 -19.4574,-10.28988 -31.747,-25.72677 -36.8672,-46.30664 z m -7.6777,47.84961 c 8.1925,7.20292 19.967,15.43435 35.3281,24.69531 -12.2889,4.11598 -22.5282,13.8913 -30.7207,29.32617 -30.7221,-3.08695 -51.2047,-10.29036 -61.4453,-21.60937 14.3369,-16.46389 33.2842,-27.26723 56.8379,-32.41211 z m 731.1855,0 c 23.5535,4.11598 41.9876,14.40525 55.3008,30.86914 -10.2406,11.3189 -30.2102,18.52243 -59.9082,21.60938 -8.1926,-15.43487 -18.4338,-25.2102 -30.72268,-29.32618 14.33688,-8.23194 26.11338,-15.94942 35.33008,-23.15234 z M 303.2441,930.08787 c 24.5777,13.37672 48.1307,19.0384 70.6602,16.98047 33.7943,6.17401 54.7878,17.49107 62.9804,33.95508 -3.0723,17.49285 -22.0156,34.98578 -56.8339,52.47858 -8.1925,5.1451 -24.5786,20.5818 -49.1563,46.3066 -5.1203,-25.7248 2.0486,-46.8213 21.5059,-63.2851 12.7381,-3.5697 32.1812,-15.8809 29.1855,-29.3243 -1.024,-8.23183 -12.8025,-12.86334 -35.332,-13.89258 -21.5054,-8.23184 -35.8413,-22.63889 -43.0098,-43.21875 z m 725.043,0 c -7.1685,20.57986 -20.9934,34.98691 -41.4746,43.21875 -23.5537,1.02902 -35.8432,5.66042 -36.8672,13.89258 -1.7993,13.8213 17.642,28.756 29.1855,29.3243 19.45772,16.4638 27.1376,37.5603 23.041,63.2851 -25.6017,-25.7249 -42.4988,-41.1616 -50.6914,-46.3066 -33.7942,-17.4928 -52.7395,-34.98573 -56.8359,-52.47858 8.1926,-16.46401 29.699,-27.78107 64.5176,-33.95508 21.5053,2.05804 44.5473,-3.60353 69.125,-16.98047 z m -728.1152,49.39258 c 9.2165,6.1739 22.0152,13.37735 38.4003,21.60945 -12.2888,4.1159 -22.0171,14.4052 -29.1855,30.8691 -29.698,0 -50.6898,-5.1456 -62.9785,-15.4355 13.3128,-17.49293 31.2341,-29.84024 53.7637,-37.04305 z m 731.1855,0 c 23.5538,7.20281 41.4748,19.55012 53.7637,37.04305 -12.2889,10.2899 -33.2804,15.4355 -62.9785,15.4355 -6.1443,-16.4636 -15.8747,-26.7529 -29.18748,-30.8691 16.38498,-8.2321 29.18588,-15.43555 38.40228,-21.60945 z M 151.1523,1396.7969 h 156.4258 v 154.8477 H 151.1523 Z m 212.668,0 h 156.4238 v 154.8477 H 363.8203 Z m 214.4258,0 h 158.1816 v 154.8477 H 578.2461 Z m 214.4238,0 h 158.1816 v 154.8477 H 792.6699 Z m 214.4258,0 h 158.1836 v 154.8477 h -158.1836 z m -855.9434,200.4707 h 154.668 v 154.8457 h -154.668 z m 212.668,0 h 156.4238 v 154.8457 H 363.8203 Z m 214.4258,0 h 158.1816 v 154.8457 H 578.2461 Z m 212.666,0 h 158.1816 v 154.8457 H 790.9121 Z m 216.1836,0 h 156.4238 v 154.8457 h -156.4238 z" />
</svg>
