<?xml version="1.0" encoding="UTF-8" standalone="no"?>
<svg
   width="1057.0919pt"
   height="1800pt"
   id="svg1333"
   version="1.0"
   xmlns="http://www.w3.org/2000/svg"
   xmlns:svg="http://www.w3.org/2000/svg"
   xmlns:rdf="http://www.w3.org/1999/02/22-rdf-syntax-ns#"
   xmlns:cc="http://creativecommons.org/ns#"
   xmlns:dc="http://purl.org/dc/elements/1.1/">
  <metadata
     id="metadata1340">
    <rdf:RDF>
      <cc:Work
         rdf:about="">
        <dc:format>image/svg+xml</dc:format>
        <dc:type
           rdf:resource="http://purl.org/dc/dcmitype/StillImage" />
      </cc:Work>
    </rdf:RDF>
  </metadata>
  <defs
     id="defs1338" />
  <path
     id="path1335"
     style="fill:#000000;stroke:none;stroke-width:135.873"
     d="m 284.8309,164.38814 c -67.34079,24.80555 -112.78178,34.70594 -162.40136,15.2129 v 0.002 c -30.126175,-24.8254 -55.379085,-36.78713 -75.758455,-35.88517 -20.37947,0.88571 -34.55607,10.63031 -42.5307098,29.23761 -7.97454,18.60733 -4.4294,33.67128 10.6336798,45.19014 15.06309,11.51887 42.08852,23.48058 81.07529,35.88516 69.112875,24.81097 125.819685,28.35528 170.122865,10.63369 -10.63278,56.70855 -3.54443,112.53212 21.26536,167.46744 14.177,40.75931 27.46835,67.78409 39.8733,81.0753 12.40484,13.28578 27.46889,15.49873 45.19014,6.64155 17.72168,-8.8608 27.02519,-23.47978 27.9109,-43.85943 0.886,-20.37961 -12.84798,-44.74718 -41.20201,-73.101 -21.26545,-49.61921 -13.69722,-104.483 11.11256,-187.77304 31.64003,-106.22059 217.70892,-140.963514 295.65122,-94.00745 116.8925,70.42138 74.4809,457.35328 76.597,525.06443 1.9842,63.49093 -4.4164,995.55183 -4.4164,995.55183 -100.3158,-41.0137 -182.599,-95.2866 -516.92607,-57.2447 -63.74613,42.0824 30.09388,80.4874 74.12158,71.5422 170.88177,20.6078 359.97839,66.9329 442.80449,222.933 0.9456,173.4246 -0.052,288.0396 4.5865,447.531 -3.9788,97.825 126.6833,97.6067 127.0399,1.699 -1.1823,-157.1475 -12.3995,-295.0861 8.2063,-447.515 41.564,-171.0057 338.26872,-197.2481 522.54502,-239.49 72.4291,-85.1501 -303.2267,-104.4123 -530.75132,12.7369 -10.8635,-256.1373 5.1618,-856.67306 -11.6343,-1410.30324 C 848.97498,129.74644 811.04658,62.233578 703.04098,21.320659 598.37498,-18.327154 401.10827,-18.931908 284.8309,164.38814 Z" />
</svg>
