<?xml version="1.0" encoding="UTF-8" standalone="no"?>
<!-- Created with Inkscape (http://www.inkscape.org/) -->

<svg
   width="1800"
   height="1800"
   viewBox="0 0 1800 1800"
   version="1.1"
   id="svg1691"
   xmlns="http://www.w3.org/2000/svg"
   xmlns:svg="http://www.w3.org/2000/svg">
  <defs
     id="defs1688">
    <clipPath
       clipPathUnits="userSpaceOnUse"
       id="clipEmfPath1">
      <path
         d="M 0,0 L 124.43852,0 L 124.43852,129.53846 L 0,129.53846 z"
         id="path1068" />
    </clipPath>
    <pattern
       id="EMFhbasepattern"
       patternUnits="userSpaceOnUse"
       width="6"
       height="6"
       x="0"
       y="0" />
  </defs>
  <path
     id="path1"
     style="color:#000000;fill:#000000;stroke-width:1.00225;stroke-linecap:square;-inkscape-stroke:none"
     d="M 408.71778,103.40052 C 328.13994,281.58637 470.59773,462.6814 581.837,594.90257 478.23207,514.32346 366.29402,434.76847 233.07538,417.13623 68.70691,401.75746 -24.819997,561.00193 5.752451,677.58824 c 11.219793,42.78607 37.79276,77.39196 69.06518,103.61547 84.265109,67.40437 191.667569,93.93315 296.000649,112.74339 -169.13368,3.85639 -237.0577,45.03609 -262.02196,60.26423 -167.846279,102.38557 -132.30347,378.38407 61.81852,395.04527 155.37678,13.3356 340.99588,-92.7592 455.45117,-173.7703 -101.80729,86.5979 -244.65284,224.728 -273.30789,380.9562 -35.9858,196.1955 203.41496,321.932 355.52882,187.8142 86.38126,-76.162 150.4302,-220.3672 198.01098,-394.4658 50.56833,197.4716 114.36138,324.3195 188.40558,392.1149 144.4803,132.2864 392.9308,18.7295 354.7066,-185.8197 -23.9037,-127.9158 -149.006,-270.0921 -272.7022,-383.3745 150.2971,99.3007 325.6861,189.8755 453.3559,179.0309 196.0367,-16.6518 230.2104,-294.2189 61.8616,-393.95282 -37.2417,-22.0629 -103.9676,-53.7345 -254.235,-55.93223 203.2934,-33.29721 268.6824,-93.10976 293.9296,-115.13745 147.7013,-128.86666 36.9579,-381.94104 -151.1069,-375.79694 -97.87,3.19742 -217.7653,63.97712 -360.3384,181.91238 112.814,-131.3106 258.3425,-300.07089 187.9846,-482.62472 C 1374.6964,48.171058 1297.6437,2.6843305 1221.1848,1.8208513 1001.4869,19.943148 937.8706,266.97122 899.32327,449.86401 801.92744,-189.86216 463.66926,12.851768 408.71778,103.40052 Z m 201.42889,21.39568 c 90.53598,2.24491 149.41469,237.48254 163.33816,483.01759 C 699.10231,500.41987 457.05331,334.15287 517.72815,169.55491 536.26618,139.00808 591.31187,124.3292 610.14667,124.7962 Z m 598.84473,2.07497 c 17.5477,-0.092 69.054,15.13121 85.0933,44.86833 30.6653,172.12415 -189.3682,334.94407 -290.2806,441.94157 29.8174,-252.6328 118.818,-486.35703 205.1873,-486.8099 z m 389.2255,411.35922 c 48.6822,1.11225 113.8754,93.27152 47.1332,154.58932 -86.0111,79.0207 -319.3787,96.75553 -436.9053,95.63225 69.0977,-70.77487 255.6734,-253.28507 389.7721,-250.22157 z M 221.00338,546.18185 C 355.22406,558.7398 545.8498,741.06959 591.62909,783.94576 526.42709,780.65149 259.96506,767.31291 158.09642,681.89086 93.027421,627.32722 146.89578,539.24815 221.00338,546.18185 Z m 677.43313,178.06194 c 96.63336,-4e-5 173.58129,76.94584 173.58129,173.5792 0,96.63336 -76.94793,173.58111 -173.58129,173.58111 -96.63329,0 -173.58107,-76.94777 -173.58107,-173.58111 0,-96.63334 76.94778,-173.5792 173.58107,-173.5792 z M 590.13102,1036.6327 c -40.09263,28.0904 -285.67686,196.128 -408.6128,185.5769 -68.55454,-5.8841 -74.64641,-115.3564 -6.31699,-159.1386 107.44736,-65.54255 346.98913,-36.3948 414.92979,-26.4383 z m 1036.76158,30.8427 c 80.6322,47.806 49.8541,152.3138 -7.6558,157.2144 -119.3073,10.166 -353.5882,-145.4643 -400.9491,-177.8819 68.4078,-10.7816 303.2,-41.8256 408.6049,20.6675 z m -834.99753,144.1672 c -33.03357,172.1659 -85.24842,361.2666 -169.32401,435.3959 -78.77137,69.4521 -153.35173,-7.1196 -142.32938,-67.2135 26.95171,-146.9423 269.48771,-335.0141 311.65339,-368.1824 z m 228.68043,0.3029 c 139.6088,110.8519 282.0205,264.0774 301.4314,367.95 11.4004,61.0067 -63.5829,136.1802 -139.7767,66.4167 -106.8021,-97.7877 -150.7158,-375.6538 -161.6547,-434.3667 z" />
</svg>
