<?xml version="1.0" encoding="UTF-8" standalone="no"?>
<svg
   width="8.1000004pt"
   height="18pt"
   id="svg1333"
   sodipodi:version="0.32"
   inkscape:version="1.2.1 (9c6d41e410, 2022-07-14)"
   sodipodi:docname="US9M23VARB.svg"
   version="1.0"
   xmlns:inkscape="http://www.inkscape.org/namespaces/inkscape"
   xmlns:sodipodi="http://sodipodi.sourceforge.net/DTD/sodipodi-0.dtd"
   xmlns="http://www.w3.org/2000/svg"
   xmlns:svg="http://www.w3.org/2000/svg"
   xmlns:rdf="http://www.w3.org/1999/02/22-rdf-syntax-ns#"
   xmlns:cc="http://creativecommons.org/ns#"
   xmlns:dc="http://purl.org/dc/elements/1.1/">
  <metadata
     id="metadata1340">
    <rdf:RDF>
      <cc:Work
         rdf:about="">
        <dc:format>image/svg+xml</dc:format>
        <dc:type
           rdf:resource="http://purl.org/dc/dcmitype/StillImage" />
        <dc:date>2/03/06</dc:date>
        <dc:creator>
          <cc:Agent>
            <dc:title>SR &amp; ST</dc:title>
          </cc:Agent>
        </dc:creator>
        <dc:publisher>
          <cc:Agent>
            <dc:title>Serge Rosmorduc</dc:title>
          </cc:Agent>
        </dc:publisher>
        <dc:description>optimisation de signe de Jsesh M23 
valeur : sw</dc:description>
        <cc:license
           rdf:resource="http://creativecommons.org/licenses/GPL/2.0/" />
      </cc:Work>
      <cc:License
         rdf:about="http://creativecommons.org/licenses/GPL/2.0/">
        <cc:permits
           rdf:resource="http://web.resource.org/cc/Reproduction" />
        <cc:permits
           rdf:resource="http://web.resource.org/cc/Distribution" />
        <cc:requires
           rdf:resource="http://web.resource.org/cc/Notice" />
        <cc:permits
           rdf:resource="http://web.resource.org/cc/DerivativeWorks" />
        <cc:requires
           rdf:resource="http://web.resource.org/cc/ShareAlike" />
        <cc:requires
           rdf:resource="http://web.resource.org/cc/SourceCode" />
      </cc:License>
    </rdf:RDF>
  </metadata>
  <defs
     id="defs1338" />
  <sodipodi:namedview
     inkscape:window-height="1017"
     inkscape:window-width="1920"
     inkscape:pageshadow="2"
     inkscape:pageopacity="0.0"
     borderopacity="1.0"
     bordercolor="#666666"
     pagecolor="#ffffff"
     id="base"
     inkscape:zoom="18.343429"
     inkscape:cx="4.4702657"
     inkscape:cy="3.4344724"
     inkscape:window-x="1072"
     inkscape:window-y="-8"
     inkscape:current-layer="svg1333"
     showguides="true"
     inkscape:guide-bbox="true"
     showgrid="false"
     inkscape:showpageshadow="2"
     inkscape:pagecheckerboard="0"
     inkscape:deskcolor="#d1d1d1"
     inkscape:document-units="pt"
     inkscape:window-maximized="1" />
  <path
     id="path1335"
     style="fill:#000000;stroke:none;stroke-width:1.1906"
     d="M 3.9277344,0.04492187 C 3.7589459,0.04530311 3.4425556,0.10013076 3.3051641,0.21197107 2.5570753,0.82093475 2.4248962,1.3837108 2.2246094,2.0703125 1.5244513,2.58634 1.0958816,3.2204089 0.93945312,3.9707031 0.83177502,4.3222159 0.58419575,4.6737352 0.1953125,5.0273438 -0.02316349,5.2504729 -0.03978208,5.4071423 0.14648438,5.4980469 0.51108888,5.5691653 0.90965524,5.5672871 1.3417969,5.4902344 1.6749086,6.5398871 1.9779283,7.0536882 2.25,7.0332031 2.5488701,7.1140407 2.9153258,6.5990396 3.3515625,5.4882812 3.7155662,5.6055504 4.0664908,5.6493449 4.4042969,5.6191406 4.8175718,5.5514579 4.9143553,5.3673716 4.6933594,5.0644531 4.3122934,4.8181011 4.0395426,4.4597146 3.8769531,3.9902344 3.7441662,3.3913231 3.4660922,2.7831761 3.0429688,2.1679688 3.080644,1.4437635 3.6605989,0.74997967 4.1110665,0.77498131 5.0371177,0.82637859 5.2366721,3.1865984 5.265625,4.4609375 5.297018,4.7642677 5.2298719,5.4152689 5.2480469,5.6582031 5.2559769,5.7198511 5.1875,12.158043 5.1875,14.470703 3.8605457,13.758619 2.2869823,13.557424 0.8671875,13.876953 c -0.55771078,0.32813 0.2396867,0.759927 0.6054687,0.652344 1.3861747,0.167795 2.9639155,0.583096 3.6679688,2.027344 0.2303767,0.865859 -0.7799722,-0.150338 -1.1953125,-0.07813 -1.0028172,-0.242591 -2.0901411,-0.28641 -3.0859375,-0.09375 -0.52780296,0.390253 0.2487423,0.747014 0.6132812,0.664062 1.4148607,0.191109 2.9821876,0.619732 3.6679688,2.066406 0.00783,1.608265 -0.0013,2.671334 0.037109,4.150391 -0.032943,0.907184 1.049784,0.905018 1.0527344,0.01563 -0.00979,-1.457319 -0.1042031,-2.734875 0.066406,-4.148438 0.3441404,-1.585826 2.8023614,-1.828969 4.328125,-2.220703 0.382639,-0.503836 -0.539956,-0.644787 -0.9140625,-0.591797 -1.185013,-0.101773 -2.4162317,0.09525 -3.4804687,0.708985 -0.036195,-0.95586 0.8042552,-1.506453 1.40625,-1.890625 C 8.5868246,14.680992 9.6328505,14.636145 10.625,14.390625 11.025903,14.000756 10.258946,13.6823 9.8945312,13.773438 8.6368975,13.637898 7.3400899,13.845559 6.2050781,14.470703 6.2234254,10.939532 6.2604639,7.5198573 6.1894531,4.1757812 6.161932,2.8797416 5.9262206,1.4751755 5.1367188,0.50976562 4.8428208,0.15038463 4.2990688,0.0440832 3.9277344,0.04492187 Z M 2.4902344,2.546875 C 2.8256362,2.7012729 3.0923458,3.1414949 3.2890625,3.8691406 3.3615253,4.0624144 3.5951106,4.4621726 3.9902344,5.0683594 3.4655597,5.0538087 3.0792231,4.8214859 2.8320312,4.3710938 2.8326325,4.3249439 2.796772,4.1948653 2.7246094,3.9785156 2.6524477,3.7621655 2.5364236,3.6575519 2.3769531,3.6679688 2.227218,3.6506258 2.088685,3.8690813 1.9609375,4.3222656 1.6937902,4.6841951 1.335776,4.9077173 0.88476562,4.9941406 1.2748509,4.5482313 1.500487,4.1036215 1.5625,3.6601562 1.8332556,3.0213219 2.142092,2.6509893 2.4902344,2.546875 Z M 2.4355469,4.5683594 C 2.4788065,4.8449151 2.6456608,5.0842579 2.9335938,5.2851562 2.8040424,5.8767925 2.6065389,6.2601719 2.3417969,6.4375 2.0459336,6.1259093 1.887222,5.7341992 1.8652344,5.2636719 2.0173741,5.096412 2.2067346,4.8653998 2.4355469,4.5683594 Z"
     sodipodi:nodetypes="sscccccccccccsccccccccccccccccccccsssccccccccccccccc" />
  <g
     id="g767"
     transform="translate(9.4444356,-0.99745363)" />
  <g
     id="g821"
     transform="matrix(1.1135931,-0.28968929,0.31273279,1.2021745,10.750349,-1.4118645)" />
  <g
     id="g882"
     transform="matrix(1.1291669,-0.13666694,0.12015653,0.99275496,15.884841,-2.4912522)" />
  <g
     id="g917"
     transform="matrix(1.4397839,-0.71501945,0.69695059,1.4033999,5.4199567,-7.8756285)" />
</svg>
