<?xml version="1.0" encoding="UTF-8" standalone="no"?>
<svg
   width="661.5625"
   height="1799.7189"
   id="svg1333"
   version="1.0"
   xmlns="http://www.w3.org/2000/svg"
   xmlns:svg="http://www.w3.org/2000/svg"
   xmlns:rdf="http://www.w3.org/1999/02/22-rdf-syntax-ns#"
   xmlns:cc="http://creativecommons.org/ns#"
   xmlns:dc="http://purl.org/dc/elements/1.1/">
  <metadata
     id="metadata1340">
    <rdf:RDF>
      <cc:Work
         rdf:about="">
        <dc:format>image/svg+xml</dc:format>
        <dc:type
           rdf:resource="http://purl.org/dc/dcmitype/StillImage" />
        <dc:date>optimisation du signe de Jsesh
02/03/06</dc:date>
        <dc:creator>
          <cc:Agent>
            <dc:title>SR &amp; ST</dc:title>
          </cc:Agent>
        </dc:creator>
        <dc:publisher>
          <cc:Agent>
            <dc:title>Serge Rosmorduc</dc:title>
          </cc:Agent>
        </dc:publisher>
        <dc:description>optimisation du signe sw de Jsesh (SR) combiné avec O49 (ST)</dc:description>
        <cc:license
           rdf:resource="http://creativecommons.org/licenses/GPL/2.0/" />
      </cc:Work>
      <cc:License
         rdf:about="http://creativecommons.org/licenses/GPL/2.0/">
        <cc:permits
           rdf:resource="http://web.resource.org/cc/Reproduction" />
        <cc:permits
           rdf:resource="http://web.resource.org/cc/Distribution" />
        <cc:requires
           rdf:resource="http://web.resource.org/cc/Notice" />
        <cc:permits
           rdf:resource="http://web.resource.org/cc/DerivativeWorks" />
        <cc:requires
           rdf:resource="http://web.resource.org/cc/ShareAlike" />
        <cc:requires
           rdf:resource="http://web.resource.org/cc/SourceCode" />
      </cc:License>
    </rdf:RDF>
  </metadata>
  <defs
     id="defs1338" />
  <path
     style="fill:#000000;stroke:none"
     d="M 125.1875,8.4002515e-5 C 100.49492,-0.014466 75.854408,1.8622663 51.96875,4.843834 c -34.999411,8.843818 -13.462131,51.041504 19.1875,45.34375 61.53822,7.082414 137.29341,11.027087 183.78125,45.90625 61.66952,67.217476 33.97635,206.906736 41.15625,273.218746 0.51477,3.57059 0.71875,267.8961 0.71875,401.84375 -0.98543,33.10142 -2.77952,87.02419 -3.09375,120.84375 14.94484,50.14985 -50.61886,-8.74524 -77.5625,-4.5625 -65.05399,-14.05104 -135.495198,-16.50253 -200.09375,-5.34375 -34.239235,22.60328 16.164401,43.21078 39.8125,38.40625 91.78377,11.06886 193.35627,35.9594 237.84375,119.75002 0.38503,70.6362 0.16514,76.9556 1.125,113.0312 -85.11148,7.4262 -153.64224,40.4062 -205.59375,98.9063 -59.505251,67.0058 -89.25,140.4929 -89.25,220.5 0,90.0079 34.743865,166.7756 104.25,230.2813 69.50621,63.5057 144.77403,95.7499 225.78125,96.75 98.00868,-1.0002 177.77582,-34.7442 239.28125,-101.25 61.50551,-66.5061 92.25,-141.7739 92.25,-225.7813 l -1.5,3 c 1.00006,-76.0067 -29.24448,-148.9937 -90.75,-219 -54.90946,-62.4986 -123.59099,-97.11 -206,-103.8125 -1.46154,-38.5232 -2.89396,-49.5936 5.5,-111.6875 22.32481,-91.85046 181.7092,-105.9674 280.6875,-128.65627 24.82222,-29.182 -35.04375,-37.25672 -59.3125,-34.1875 -76.8733,-5.89486 -195.28455,5.4842 -225.78125,41.03125 0.58819,-59.72873 -4.62175,-87.96585 -1.53125,-148.21875 1.21683,-209.09848 4.59469,-411.48066 -1.40625,-609.28125 C 356.65005,100.7151 321.40208,44.571057 262.125,26.281334 219.63515,6.9522167 172.32789,0.0278623 125.1875,8.4002515e-5 Z M 332.28125,1201.1563 c 39.00346,0 78.74643,8.4985 119.25,25.5 l -115.5,117.0313 -118.5,-117.0313 c 37.50334,-17.0015 75.74654,-25.4999 114.75,-25.5 z M 172.5,1261.1876 l 160.53125,160.5 160.5,-160.5 c 24.00215,11.001 43.03004,29.9976 57.03125,57 l -159.03125,160.5 157.53125,157.5313 c -13.00117,26.0022 -32.52896,44.9989 -58.53125,57 l -157.5,-157.5313 -154.5,154.5313 c -26.00227,-16.0015 -45.03014,-35.4981 -57.03125,-58.5 L 276.03125,1478.6876 114,1316.6876 c 11.00099,-26.0023 30.49749,-44.499 58.5,-55.5 z m -93,93 117.03125,117 -117.03125,117 c -34.003022,-81.0073 -34.00302,-158.9934 0,-234 z m 505.5625,6 c 34.00306,81.0072 34.00303,159.0247 0,234.0313 L 468.03125,1477.1876 Z m -249.03125,249.0313 117,117 c -76.00674,34.003 -153.99292,34.0029 -234,0 z"
     id="path1335" />
</svg>
