<?xml version="1.0" encoding="UTF-8" standalone="no"?>
<svg
   width="805"
   height="1800"
   version="1.1"
   id="svg1179"
   sodipodi:docname="US9M18VARA.svg"
   inkscape:version="1.2.2 (732a01da63, 2022-12-09)"
   xmlns:inkscape="http://www.inkscape.org/namespaces/inkscape"
   xmlns:sodipodi="http://sodipodi.sourceforge.net/DTD/sodipodi-0.dtd"
   xmlns="http://www.w3.org/2000/svg"
   xmlns:svg="http://www.w3.org/2000/svg">
  <defs
     id="defs1183" />
  <sodipodi:namedview
     id="namedview1181"
     pagecolor="#ffffff"
     bordercolor="#000000"
     borderopacity="0.25"
     inkscape:showpageshadow="2"
     inkscape:pageopacity="0.0"
     inkscape:pagecheckerboard="0"
     inkscape:deskcolor="#d1d1d1"
     showgrid="false"
     inkscape:zoom="0.2799099"
     inkscape:cx="473.36661"
     inkscape:cy="939.58807"
     inkscape:window-width="1920"
     inkscape:window-height="1137"
     inkscape:window-x="-8"
     inkscape:window-y="-8"
     inkscape:window-maximized="1"
     inkscape:current-layer="svg1179" />
  <path
     id="path1177"
     style="fill:#000000;stroke:none;stroke-width:59.584"
     d="M 455.39223,5.2069624 C 418.79058,0.17732508 400.41569,11.62 399.99069,11.280486 363.60964,254.08281 287.86349,761.91556 251.48244,1004.7179 c 86.57822,62.9057 217.46294,80.0145 253.3036,186.4081 5.68072,100.1867 4.58652,43.0772 6.08549,143.5406 -60.02976,110.8709 -138.71853,210.0567 -228.40966,298.2854 -36.70439,53.8863 -101.37132,78.4988 -156.3784,110.1917 -27.871789,12.2583 -162.641144,15.7331 -106.221993,57.3116 77.265914,11.5079 153.009863,-25.7381 228.844183,-0.7926 79.8634,1.3282 68.5361,-106.1709 117.75497,-145.4931 64.40682,-51.4563 105.96418,-99.3686 137.77677,-163.48 48.15116,-76.769 53.96687,-10.5571 84.99156,30.8919 36.4254,48.6644 107.22531,117.3287 71.18701,175.7557 -32.99584,53.4944 -98.30617,57.4472 -152.36957,79.1973 -18.79742,36.4732 33.7216,16.6041 52.86961,21.5569 37.06642,-0.8254 75.21148,5.763 108.24089,-15.3277 41.05338,-16.9274 145.52261,55.4603 126.01188,-30.7228 -59.82798,-87.277 -78.54169,-195.1183 -136.81963,-282.8826 -34.63401,-70.5936 -28.44063,-82.112 -57.5283,-149.4815 L 596.47919,166.58492 C 596.20014,92.472728 515.11946,3.5477951 455.39223,5.2069624 Z m 85.74,186.7918676 c -1.16424,253.35981 -4.88031,632.7806 -6.04455,886.14037 -38.08319,-75.674 -141.16607,-77.2989 -211.0392,-120.58836 31.84399,-221.83132 94.82044,-648.32034 126.66443,-870.151663 3.4112,-46.432604 98.28856,40.468773 90.41932,104.599653 z"
     sodipodi:nodetypes="cccccscscscssssscscsccsccc" />
</svg>
