<?xml version="1.0" encoding="UTF-8" standalone="no"?>
<svg
   width="539.45648"
   height="1801.061"
   id="svg2"
   version="1.0"
   xmlns="http://www.w3.org/2000/svg"
   xmlns:svg="http://www.w3.org/2000/svg"
   xmlns:rdf="http://www.w3.org/1999/02/22-rdf-syntax-ns#"
   xmlns:cc="http://creativecommons.org/ns#"
   xmlns:dc="http://purl.org/dc/elements/1.1/">
  <metadata
     id="metadata9">
    <rdf:RDF>
      <cc:Work
         rdf:about="">
        <dc:format>image/svg+xml</dc:format>
        <dc:type
           rdf:resource="http://purl.org/dc/dcmitype/StillImage" />
      </cc:Work>
    </rdf:RDF>
  </metadata>
  <defs
     id="defs7" />
  <path
     id="path2"
     style="color:#000000;fill:#000000;stroke-width:3.68941;stroke-linecap:square;stroke-linejoin:bevel;-inkscape-stroke:none"
     d="m 307.27902,0 -76.5805,1.92941 -27.8502,22.78353 c 0,0 -116.337401,511.76246 -144.721901,663.76396 -28.3843,152.0016 -48.5411001,431.574 -52.0569001,494.7312 -1.6426,29.5091 -6.39649996,73.5089 -6.05169996,119.0089 0.3451,45.4999 4.99119996,93.2164 27.39400006,133.0327 48.3348,85.9051 118.482301,168.4637 136.630001,189.3479 l -3.1947,146.731 11.1491,29.447 190.1498,0.285 16.4634,-31.6613 -3.1967,-146.7387 c 18.1565,-20.895 88.2926,-103.4438 136.6224,-189.3402 22.4027,-39.8162 27.0582,-87.5309 27.4035,-133.0308 0.3455,-45.5 -4.409,-89.5014 -6.0517,-119.0107 -3.4067,-61.1979 -20.4804,-346.0818 -52.2019,-495.436 C 449.46352,536.4886 336.65012,22.98542 336.65012,22.98542 Z m -22.7564,59.10155 c 0.1137,0.5178 1.6243,7.41371 1.7767,8.10813 l -3.9963,-4.23977 -14.779,-2.46081 -15.428,12.49836 c 0.3073,-1.35576 2.7478,-12.26154 2.9524,-13.165 z m -34.3866,22.6483 c -0.5602,13.331943 -10.2654,243.85885 -14.8916,296.95535 -4.7073,54.0251 -31.6864,192.4844 -39.2092,287.5825 -7.6,96.0749 15.1393,143.9546 24.5885,198.1797 9.9974,57.3709 24.3281,112.7233 21.972,171.5088 -2.4041,59.9839 -14.737,131.2156 -24.1648,166.4995 -5.9571,22.2946 -6.0429,54.8708 -4.4792,91.0788 1.5639,36.2082 5.2914,75.2088 9.0232,106.2457 3.2075,26.6759 1.4867,120.105 -1.542,203.7794 -0.087,2.392 -0.1773,3.9817 -0.2654,6.3597 l -5.6165,-15.2963 c 0,0 -86.4681,-98.1987 -137.019401,-188.0432 -13.6897,-24.3306 -19.575,-63.7636 -19.8861,-104.8209 -0.311,-41.0574 4.1605,-83.0294 5.9582,-115.3233 3.365,-60.4489 24.5218,-344.6323 51.154201,-487.2516 25.593,-137.0529 119.1062,-550.0317 134.3781,-617.45415 z m 49.4423,46.04321 c 24.8416,113.17024 97.8214,445.72564 124.2557,570.18624 30.1358,141.8884 47.5371,424.1386 51.0111,486.5469 1.7977,32.2936 6.2774,74.266 5.9658,115.3233 -0.3118,41.0573 -6.2039,80.4901 -19.8937,104.821 -50.5514,89.8446 -137.0194,188.045 -137.0194,188.045 l -3.3837,9.2223 c -0.9196,-52.6897 -1.8073,-107.5679 -1.8073,-159.6237 0,-78.1204 -14.2683,-139.3948 -5.1433,-191.7591 9.9277,-56.9711 16.5089,-109.2738 24.8061,-205.3127 7.7235,-89.3984 -20.6903,-167.0049 -28.6783,-222.0374 -12.1209,-83.5059 -20.2428,-101.1694 -10.611,-168.4576 10.0464,-70.1853 9.81,-136.8166 14.6492,-192.3572 5.1266,-58.8384 -2.4084,-128.1449 -2.4084,-175.8647 0,-36.5868 -6.7819,-108.80978 -11.7428,-158.73234 z m -24.5102,54.69037 c 3.6055,41.28719 6.9391,83.91907 6.9391,104.04197 0,50.6454 7.2468,119.0499 2.5173,173.3315 -5.0169,57.5794 -4.7965,123.2332 -14.4623,190.7592 -10.0805,70.4231 -1.3234,94.511 10.6187,176.7847 8.7774,60.4713 35.5443,133.6004 28.4836,215.3274 -8.2617,95.6288 -14.6972,146.6609 -24.4816,202.8099 -10.5873,60.7555 4.71,122.4305 4.71,196.776 0,103.5206 3.221,215.8108 3.6433,300.3932 h -48.3507 c 0.8168,-15.9263 3.4189,-65.708 6.0383,-138.0763 3.0388,-83.9531 5.5415,-173.5198 1.357,-208.322 -3.6603,-30.4414 -7.3276,-68.9086 -8.8438,-104.0153 -1.5162,-35.1067 -0.3799,-67.689 3.5192,-82.2813 10.2843,-38.4899 22.6008,-109.8962 25.1247,-172.8687 2.572,-64.1711 -12.6675,-121.9385 -22.3823,-177.6875 -10.263,-58.895 -31.4215,-100.0469 -24.2374,-190.8658 7.2616,-91.7959 34.0335,-228.2553 39.1825,-287.3502 3.0145,-34.5982 7.2018,-122.3168 10.6244,-198.75677 z" />
</svg>
