<?xml version="1.0" encoding="UTF-8" standalone="no"?>
<svg
   width="18"
   height="11.34"
   id="svg1333"
   sodipodi:version="0.32"
   inkscape:version="1.2.1 (9c6d41e410, 2022-07-14)"
   sodipodi:docname="US9M9VARA.svg"
   version="1.1"
   xmlns:inkscape="http://www.inkscape.org/namespaces/inkscape"
   xmlns:sodipodi="http://sodipodi.sourceforge.net/DTD/sodipodi-0.dtd"
   xmlns="http://www.w3.org/2000/svg"
   xmlns:svg="http://www.w3.org/2000/svg"
   xmlns:rdf="http://www.w3.org/1999/02/22-rdf-syntax-ns#"
   xmlns:cc="http://creativecommons.org/ns#"
   xmlns:dc="http://purl.org/dc/elements/1.1/">
  <metadata
     id="metadata1340">
    <rdf:RDF>
      <cc:Work
         rdf:about="">
        <dc:format>image/svg+xml</dc:format>
        <dc:type
           rdf:resource="http://purl.org/dc/dcmitype/StillImage" />
      </cc:Work>
    </rdf:RDF>
  </metadata>
  <defs
     id="defs1338" />
  <sodipodi:namedview
     inkscape:window-height="1017"
     inkscape:window-width="1920"
     inkscape:pageshadow="2"
     inkscape:pageopacity="0.0"
     borderopacity="1.0"
     bordercolor="#666666"
     pagecolor="#ffffff"
     id="base"
     inkscape:zoom="39.243368"
     inkscape:cx="10.473107"
     inkscape:cy="7.1094816"
     inkscape:window-x="1072"
     inkscape:window-y="-8"
     inkscape:current-layer="svg1333"
     inkscape:showpageshadow="2"
     inkscape:pagecheckerboard="0"
     inkscape:deskcolor="#d1d1d1"
     showgrid="false"
     inkscape:window-maximized="1" />
  <path
     id="path1335"
     style="fill:#000000;stroke:none"
     d="m 0.79492188,0.00976563 c -0.20800383,0.00751438 -0.23702378,0.0669188 -0.2578125,0.12109375 -0.046292,0.12063387 0.14962796,0.29334925 0.61718752,0.546875 0.4116096,0.22318777 1.5278096,0.99070742 1.5097656,1.05273442 -0.011159,0.038354 -0.5149944,0.076525 -1.2597656,0.095703 -1.19866783,0.030865 -1.24330679,0.037155 -1.26171878,0.1660156 -0.027616,0.1932828 0.0595933,0.2421777 0.95898438,0.5371094 1.039996,0.3410376 1.1855787,0.4942179 0.5449219,0.5507812 -1.48063995,0.1307252 -1.58007815,0.2964681 -1.58007815,0.375 0,0.1748499 0.22909897,0.2910157 0.57226563,0.2910157 0.24070175,0 1.32540242,0.2296983 1.38085932,0.2851562 0.015465,0.015463 -1.3612245,0.7135344 -1.53710932,0.7714844 -0.47626853,0.1569258 -0.64281617,0.504854 -0.3046875,0.578125 0.0967359,0.020961 2.10889412,0.055865 2.07421872,0.080078 L 0.11132812,6.9550781 C -0.05741174,7.0729019 0.0242553,7.4570313 0.328125,7.4570312 c 0.13753586,0 8.5095673,-2.2731535 8.6582031,-2.2734374 0.5323915,-0.00102 1.5519719,-0.6306229 1.7031249,-0.7207032 0.124915,-0.074444 0.14939,-0.09986 0.488281,-0.1152344 1.495158,-0.067829 5.798841,-0.538475 5.839616,1.5469132 C 17.05813,7.9799576 15.274427,8.075954 14.037499,8.0018006 12.800572,7.9276471 11.748214,7.7000824 11.095703,7.6464844 10.443192,7.5928864 8.422628,7.5852709 7.0234375,7.6074219 5.6337919,7.6294209 4.9922187,7.8392695 4.1953125,8.5703125 3.3984063,9.3013588 2.9853283,9.9428704 2.9589844,10.496094 c -0.026344,0.553223 0.063412,0.830078 0.2675781,0.830078 0.2041653,0 0.5028645,-0.408715 0.7070313,-0.988281 C 4.1377595,9.7583213 4.6358735,9.3014971 5.6171875,8.7285156 6.4069252,8.2673938 8.0897452,8.5363977 9.5800781,8.5 11.070411,8.4636023 13.191977,8.9758382 14.378906,8.9648438 16.601774,8.9436588 17.944755,7.8410883 17.945312,6.0800781 17.94587,4.3190682 16.587503,3.717665 15.380859,3.4375 13.930777,3.1008123 11.984544,3.4488628 11.238281,3.2890625 10.959238,3.2293096 10.89231,3.260348 10.796875,3.140625 10.721267,3.0457754 9.7760258,2.4044113 9.1328125,2.2890625 8.1295055,2.1091374 2.1972195,0.18927225 1.4003906,0.06445312 1.1095161,0.01888914 0.91972417,0.005257 0.79492188,0.00976563 Z M 2.3574219,0.859375 c 0.093985,0 5.0039075,1.5309053 4.9472656,1.5351562 l -2.5058594,0.1875 C 4.7985991,2.5820492 2.2959959,0.859375 2.3574219,0.859375 Z M 3.1738281,2.2578125 4.0722656,2.7070312 3.0175781,2.8652344 1.6953125,2.3125 Z m 5.8710938,0.453125 c 0.3435496,0 1.1455121,0.3470926 1.4062501,0.7070313 0.221554,0.3058426 0.0815,0.4975849 -0.0059,0.6210937 C 10.102523,4.5239277 8.9533952,4.7355251 8.9414062,4.7050781 8.8823813,4.5551593 8.7801509,4.4391184 8.7792969,3.6738281 8.7783909,2.8609459 8.921763,2.7109375 9.0449219,2.7109375 Z m -0.7460938,0.060547 0.00391,1.9824218 c -0.00123,9e-4 -0.00453,0.00195 -0.00977,0.00195 -0.2576858,0 -5.2717096,-1.0720977 -5.7207032,-1.1347656 C 1.9259933,3.5308868 1.9389235,3.4316219 2.6074219,3.359375 2.8456236,3.33363 8.2988281,2.7714844 8.2988281,2.7714845 Z m -5.5605469,1.470703 c 0.1492139,0 1.3574219,0.1503148 1.3574219,0.1992187 0,0.087586 -0.8445024,0.4162212 -1.1113281,0.4863282 C 2.8799041,4.9551864 1.5569098,4.9185444 1.4980469,4.9140624 1.1793972,4.8897834 2.6976253,4.2421874 2.7382812,4.2421875 Z m 1.9355469,0.4550781 2.7109375,0.3828125 c 0,0 -6.0017641,1.5195313 -6.0019531,1.5195313 z"
     sodipodi:nodetypes="scsccccssscccccscssczzscsscszcssssssssccscccccscccssccscccssccscccc" />
</svg>
