<?xml version="1.0" encoding="UTF-8" standalone="no"?>
<svg
   width="1304.3247"
   height="1797.8577"
   version="1.1"
   id="svg6268"
   sodipodi:docname="US9M19VARA.svg"
   inkscape:version="1.2.2 (732a01da63, 2022-12-09)"
   xmlns:inkscape="http://www.inkscape.org/namespaces/inkscape"
   xmlns:sodipodi="http://sodipodi.sourceforge.net/DTD/sodipodi-0.dtd"
   xmlns="http://www.w3.org/2000/svg"
   xmlns:svg="http://www.w3.org/2000/svg">
  <defs
     id="defs6272" />
  <sodipodi:namedview
     id="namedview6270"
     pagecolor="#ffffff"
     bordercolor="#000000"
     borderopacity="0.25"
     inkscape:showpageshadow="2"
     inkscape:pageopacity="0.0"
     inkscape:pagecheckerboard="0"
     inkscape:deskcolor="#d1d1d1"
     showgrid="false"
     inkscape:zoom="0.12865202"
     inkscape:cx="998.81835"
     inkscape:cy="1352.4856"
     inkscape:window-width="1920"
     inkscape:window-height="1137"
     inkscape:window-x="-8"
     inkscape:window-y="-8"
     inkscape:window-maximized="1"
     inkscape:current-layer="svg6268" />
  <path
     id="path6266"
     style="fill:#000000;stroke:none;stroke-width:100"
     d="M 155.75391,0.11547718 0,1020.9632 v 7.5058 c 195.16174,131.3589 292.74219,240.8259 292.74219,328.3985 v 440.9902 h 114.4707 v -26.6836 l 581.76563,-1.6621 c 2.61188,18.7932 15.62068,28.3457 39.37498,28.3457 h 225.1856 c 30.0251,-1.2511 43.1615,-16.2632 39.4082,-45.0371 -35.0291,-137.614 -51.293,-276.4795 -48.791,-416.5957 -1.251,-98.8319 16.8908,-400.33223 54.4218,-904.50005 8.7573,-91.32571 7.5054,-185.78043 -3.7539,-283.36133 -10.0083,-88.823574 -61.3001,-133.23437 -153.8769,-133.23437 -87.5725,0 -139.4904,44.410796 -155.75394,133.23437 l -5.63086,41.28516 H 407.21289 v -75.0625 C 379.69005,35.77086 295.87004,-2.3865869 155.75391,0.11547718 Z M 1140.9473,86.437743 c 56.2963,16.263507 85.069,43.786267 86.3203,82.568357 10.0082,83.81952 11.2601,171.39304 3.7539,262.71875 -36.2805,504.16782 -55.0462,805.66815 -56.2969,904.50005 -1.2511,140.1162 12.5094,270.8486 41.2832,392.1992 h -150.123 c 28.7741,-121.3506 42.5345,-252.083 41.2832,-392.1992 -2.5021,-98.8319 -23.1436,-400.33223 -61.9258,-904.50005 -5.0041,-91.32571 -1.8766,-178.89923 9.3828,-262.71875 1.2511,-38.78209 30.0256,-66.30485 86.3223,-82.568357 z m -913.8848,9.382813 c 53.79462,0 87.5726,13.760354 101.33399,41.283204 V 1174.8401 h -1.875 C 228.94065,1064.7489 152.00175,994.69122 95.705078,964.66626 Z M 975.81055,260.95727 c -3.75313,93.82778 -4.0717,174.47507 4.68555,287.06836 l -477.57813,6.68555 z m -570.47461,3.75391 h 452.25 l -452.25,258.09961 z M 899.80274,600.5686 407.21289,904.61548 V 607.25415 Z m 91.95117,28.14844 19.71099,309.67773 H 482.27539 Z M 407.21289,1011.5804 h 471.01563 l -471.01563,240.1992 z m 615.50981,5.6289 16.8906,283.3613 h -9.875 c -186.15798,3.0271 -382.09825,0.094 -543.71095,0 z m -615.50981,354.6699 h 479.9668 l -479.9668,248.6367 z m 634.27541,0 c -1.0877,101.1541 -14.5011,210.3676 -40.1758,327.5976 -198.03321,0.565 -396.06641,1.1314 -594.09961,1.6973 v -1.8223 c 0,0 623.01831,-323.6253 634.27541,-327.4726 z"
     sodipodi:nodetypes="cccsccccscccccsccccccccccccccccccccccccccccccccccccccccccccccccccccccc" />
</svg>
