<?xml version="1.0" encoding="UTF-8" standalone="no"?>
<svg
   width="699.54584"
   height="1798.3185"
   version="1.1"
   id="svg150"
   xmlns="http://www.w3.org/2000/svg"
   xmlns:svg="http://www.w3.org/2000/svg">
  <defs
     id="defs154" />
  <path
     style="fill:#000000;stroke:none;stroke-width:100"
     d="M 43.40294,4.3571133 217.52651,161.72063 c 0,0 -63.11538,-160.1561892 -23.24943,-158.4597656 28.8392,1.6964237 111.77833,185.9786856 111.77833,185.9786856 0,0 1.46857,-185.3487225 42.18274,-185.3487225 35.6249,0.8482118 30.72557,176.0258625 30.72557,176.0258625 0,0 76.75556,-175.8857623 131.88933,-176.7339741 C 554.11185,4.0309277 489.84184,148.57652 489.84184,148.57652 L 671.40082,6.7587971 C 697.3603,-13.518443 709.63506,23.644616 687.28272,62.467016 651.98966,124.81814 478.54702,211.6398 464.42975,330.45987 c 62.35113,117.6436 91.76207,280.58003 88.2328,488.8093 -1.17647,219.99353 -80.45388,411.46123 -171.94558,612.17663 61.16611,103.5286 114.30015,154.8597 260.17828,252.5039 51.7632,39.9989 69.11563,71.7626 52.0573,95.2913 -17.05833,23.5288 -44.41047,25.2935 -82.0564,5.294 -167.054,-111.7615 -225.03678,-188.8397 -285.36245,-277.8658 -25.8816,44.7046 -29.33428,52.5783 -58.74515,78.4599 -49.41033,17.6466 -71.76263,2.9411 -67.05689,-44.1164 9.41146,-30.5873 32.54347,-52.9944 66.66013,-100.0519 -71.7626,-235.2873 -110.7765,-450.52025 -114.30584,-612.86843 0,-199.99413 29.99914,-365.28343 89.99741,-495.8679 C 226.78969,212.228 47.520506,124.94184 6.3452402,62.590713 -8.9484298,23.768313 3.4041902,4.4182967 43.40294,4.3571133 Z M 300.31695,349.87107 c 3.52933,28.23447 19.99943,44.11637 49.4103,47.6457 29.41093,-3.52933 45.29283,-19.99947 47.6457,-49.4104 0,-28.23447 -15.8819,-44.11633 -47.6457,-47.6456 -29.41087,3.52927 -45.88097,19.99937 -49.4103,49.4103 z m 121.7611,74.1155 c -16.47007,25.88153 -40.587,39.99877 -72.3508,42.3517 -32.9402,-2.35293 -54.70427,-16.47017 -65.2922,-42.3517 -43.52813,109.40853 -63.52756,243.52227 -59.99829,402.3412 3.52933,148.23091 29.41093,318.81413 77.64479,511.74973 31.7638,57.6453 26.59327,31.8461 58.35707,-28.1519 59.99827,-189.4065 126.93173,-336.54332 126.93173,-490.65643 2.35287,-154.1132 -19.41123,-285.87407 -65.2923,-395.2826 z"
     id="path148" />
</svg>
