<?xml version="1.0" encoding="UTF-8" standalone="no"?>
<!-- Created with Inkscape (http://www.inkscape.org/) -->

<svg
   width="1290"
   height="1800"
   viewBox="0 0 1290 1800"
   version="1.1"
   id="svg10448"
   inkscape:version="1.2.2 (732a01da63, 2022-12-09)"
   sodipodi:docname="US9M300TXB.svg"
   xmlns:inkscape="http://www.inkscape.org/namespaces/inkscape"
   xmlns:sodipodi="http://sodipodi.sourceforge.net/DTD/sodipodi-0.dtd"
   xmlns="http://www.w3.org/2000/svg"
   xmlns:svg="http://www.w3.org/2000/svg">
  <sodipodi:namedview
     id="namedview10450"
     pagecolor="#ffffff"
     bordercolor="#000000"
     borderopacity="0.25"
     inkscape:showpageshadow="2"
     inkscape:pageopacity="0.0"
     inkscape:pagecheckerboard="0"
     inkscape:deskcolor="#d1d1d1"
     inkscape:document-units="px"
     showgrid="false"
     inkscape:zoom="0.49555556"
     inkscape:cx="898.99103"
     inkscape:cy="900"
     inkscape:window-width="1920"
     inkscape:window-height="1137"
     inkscape:window-x="-8"
     inkscape:window-y="-8"
     inkscape:window-maximized="1"
     inkscape:current-layer="svg10448" />
  <defs
     id="defs10445" />
  <path
     id="path1335"
     style="fill:#000000;stroke:none;stroke-width:70.5722"
     d="m 459.24738,5.7531445 c -26.05124,-0.385384 -52.12478,1.4914085 -77.32243,4.6368035 -33.84503,8.552069 -13.01799,49.357212 18.55477,43.847365 59.50843,6.848853 132.76992,10.6382 177.72443,44.366972 59.6354,65.000315 32.84115,200.079775 39.78427,264.204575 0.49753,3.45282 0.70679,259.06044 0.70679,388.58995 -83.2419,-39.8831 -182.02141,-51.15343 -271.08732,-33.2569 -34.98608,18.37805 15.1464,42.58094 38.09256,36.5553 86.95681,9.39803 185.8294,32.69547 229.99563,113.58623 14.45187,48.4957 -48.92895,-8.45555 -74.98378,-4.41085 -62.90835,-13.58742 -131.04217,-15.97985 -193.50999,-5.18903 -33.10989,21.85765 15.63001,41.80395 38.49807,37.1578 88.75638,10.70381 186.9756,34.76671 229.99563,115.79344 0.49125,90.0771 -0.0285,149.6061 2.38114,232.4464 -0.0471,1.1495 0.12165,2.1356 0.14492,3.2329 H 3.9738753 v 54.9767 H 95.02895 v 192.4151 H 3.9738753 v 56.6935 H 95.02895 v 192.415 H 3.9738753 v 54.9768 H 1289.0346 v -54.9768 h -91.0531 v -192.415 h 91.0531 v -56.6935 h -91.0531 v -192.4151 h 91.0531 v -54.9767 H 683.84935 c 0.0405,-0.8071 0.20934,-1.5133 0.21241,-2.3484 -0.61403,-81.6228 -6.4405,-153.2685 4.26212,-232.4406 21.58839,-88.8208 175.6983,-102.45244 271.41181,-124.39299 24.00342,-28.21953 -33.8722,-36.04714 -57.34053,-33.07921 -74.33773,-5.70011 -151.5721,5.32093 -218.3334,39.69538 -2.27063,-53.53674 50.45224,-84.34044 88.21628,-105.85754 59.60165,-25.63406 125.21854,-28.15159 187.45765,-41.90279 25.14902,-21.83528 -22.96855,-39.75178 -45.82876,-34.6473 -78.89344,-7.59142 -160.14281,4.04462 -231.34376,39.05816 C 683.7399,549.19722 687.01428,353.50907 681.2113,162.23275 676.5516,103.09003 642.47627,48.807595 585.15454,31.121155 546.02268,13.319645 502.66634,6.3954512 459.24738,5.7531445 Z M 151.7226,1302.2908 h 152.90116 v 192.4151 H 151.72267 Z m 207.87791,0 h 152.90117 v 192.4151 H 359.60051 Z m 209.59466,0 h 154.61987 v 192.4151 H 569.19517 Z m 209.59483,0 h 154.62002 v 192.4151 H 778.79 Z m 209.59675,0 h 154.61795 v 192.4151 H 988.38675 Z M 151.7226,1551.3994 h 151.18231 v 192.415 H 151.7226 Z m 207.87791,0 h 152.90117 v 192.415 H 359.60051 Z m 209.59466,0 h 154.61987 v 192.415 H 569.19517 Z m 207.87807,0 h 154.61792 v 192.415 H 777.07324 Z m 211.31351,0 h 152.90105 v 192.415 H 988.38675 Z" />
</svg>
