<?xml version="1.0" encoding="UTF-8" standalone="no"?>
<svg
   width="17.921429"
   height="17.977583"
   version="1.1"
   id="svg602"
   sodipodi:docname="US9M159VARA.svg"
   inkscape:version="1.2.1 (9c6d41e410, 2022-07-14)"
   xmlns:inkscape="http://www.inkscape.org/namespaces/inkscape"
   xmlns:sodipodi="http://sodipodi.sourceforge.net/DTD/sodipodi-0.dtd"
   xmlns="http://www.w3.org/2000/svg"
   xmlns:svg="http://www.w3.org/2000/svg">
  <defs
     id="defs606" />
  <sodipodi:namedview
     id="namedview604"
     pagecolor="#ffffff"
     bordercolor="#000000"
     borderopacity="0.25"
     inkscape:showpageshadow="2"
     inkscape:pageopacity="0.0"
     inkscape:pagecheckerboard="0"
     inkscape:deskcolor="#d1d1d1"
     showgrid="false"
     inkscape:zoom="47.948604"
     inkscape:cx="8.9679358"
     inkscape:cy="8.9887915"
     inkscape:window-width="1080"
     inkscape:window-height="1857"
     inkscape:window-x="-8"
     inkscape:window-y="-8"
     inkscape:window-maximized="1"
     inkscape:current-layer="svg602" />
  <path
     id="path600"
     style="fill:#000000;stroke:none"
     d="M 8.1992188,0 C 7.8792888,0 7.6013018,0.06414947 7.359375,0.18359375 6.8985868,0.38715333 6.7209121,0.48347578 6.3002196,0.98397299 6.1071698,1.213644 5.8474966,1.4322023 5.6121578,1.4322023 5.226218,1.4176606 4.7162235,1.3162668 4.3925781,1.171875 4.2171798,1.134846 4.1316897,1.3437546 4.0605471,1.390625 c -0.05897,0.1376009 -0.04889,0.2273181 0.0625,0.3125 0.3291569,0.3760124 0.4043518,0.4246512 0.8900891,0.5984859 0.1685181,0.060309 0.965264,0.011734 1.1100449,-0.046181 C 6.0445511,2.6747855 5.92912,2.7654897 6.0083074,3.192595 6.1131463,3.4940067 6.3457653,3.7942905 6.4375002,3.8925764 6.567572,4.0859054 6.7555933,4.0322684 6.9206845,4.0398234 7.4851521,3.789014 7.0615227,3.5088702 6.9648438,3.0644531 6.8161129,2.6977005 6.8448455,2.2235004 7.0507812,1.640625 c 0.2059368,-0.5828744 0.6801709,-0.875 1.4238282,-0.875 0.7436562,0 1.1152344,0.6891305 1.1152344,2.0644531 0,1.3753226 -0.022946,1.6668426 -0.028666,3.0880092 -0.00303,0.7530622 -0.00708,1.5089999 -0.011719,2.2675781 L 6.9264099,8.2872279 6.0709412,8.2344936 C 5.4296178,7.5575442 4.8664654,7.2188685 4.3795349,7.2188686 4.2013891,7.2069926 4.0111212,7.1955883 3.8092224,7.1837123 2.8116114,7.3737321 2.20659,7.4688686 1.9928162,7.4688686 c -0.1425169,0 -0.2148438,0.095135 -0.2148438,0.2851562 0,0.2731567 0.2073743,0.4101562 0.6230469,0.4101562 0.6922093,-0.1221548 1.2243824,-0.1835937 1.59375,-0.1835937 0.061569,0 0.1173219,5.113e-4 0.1699219,0.00391 0.2137738,0 0.3812361,0.083731 0.5,0.25 -0.2316048,0.2867497 -0.748785,0.4296875 -1.5488281,0.4296874 -0.06148,0 -0.1246192,-2.571e-4 -0.1894532,-0.00195 C 2.0178698,8.6384749 1.2150048,8.520532 0.51430059,8.3067592 c -0.35628964,0 -0.53515625,0.2016731 -0.53515625,0.6054686 0.04750495,0.368167 1.34127796,0.556483 3.88281246,0.56836 L 5.5377381,9.3028528 9.5416443,9.2813688 C 9.5394443,9.5911788 9.55715,11.005681 9.55469,11.316406 9.057407,10.875987 8.5093985,10.65625 7.9082031,10.65625 c -0.1318818,0 -0.267426,0.01004 -0.4042969,0.03125 -0.7608182,0.117885 -1.3089777,0.442174 -1.6464843,0.972656 -0.3375057,0.530481 -0.5058594,1.083831 -0.5058594,1.660156 0.8580661,-1.126453 1.6176787,-1.7184 2.28125,-1.777343 0.091877,-0.0082 0.1805451,-0.01172 0.265625,-0.01172 0.5294045,0 0.9272246,0.156685 1.1933594,0.472656 0.3089027,0.366754 0.4628906,0.617064 0.4628906,0.748047 v 0.568359 c -0.2173758,-0.327457 -0.5253507,-0.556517 -0.9257813,-0.6875 -0.1906768,-0.06237 -0.3966197,-0.09375 -0.6171874,-0.09375 -0.2426378,0 -0.5025763,0.03781 -0.78125,0.113282 -0.5320005,0.144083 -0.9815487,0.452289 -1.3476563,0.923828 -0.3661086,0.471538 -0.5488281,0.936089 -0.5488281,1.394531 0.9152701,-0.825195 1.5927295,-1.296177 2.0332031,-1.414062 0.2202378,-0.05894 0.4178492,-0.08789 0.59375,-0.08789 0.1758998,0 0.3293676,0.02895 0.4609375,0.08789 0.2631397,0.117885 0.507372,0.324428 0.7304688,0.61914 0.2230987,0.294712 0.3339843,0.6576 0.3339843,1.089844 v 2.712891 h 0.9609379 v -2.712891 c 0,-0.432244 0.104612,-0.795132 0.310546,-1.089844 0.205936,-0.294712 0.439985,-0.501255 0.703126,-0.61914 0.13157,-0.05894 0.285036,-0.08789 0.460937,-0.08789 0.175903,0 0.373512,0.02895 0.59375,0.08789 0.440474,0.117885 1.117933,0.588867 2.033203,1.414062 0,-0.458442 -0.182722,-0.922992 -0.548828,-1.394531 -0.366109,-0.471541 -0.815655,-0.779745 -1.347656,-0.923828 -0.278674,-0.07547 -0.538269,-0.113282 -0.779297,-0.113282 -0.219105,0 -0.421423,0.03138 -0.609375,0.09375 -0.394711,0.130984 -0.690271,0.360043 -0.884766,0.6875 v -0.568359 c 0,-0.130983 0.151895,-0.381293 0.455078,-0.748047 0.261205,-0.315971 0.65844,-0.472656 1.191407,-0.472656 0.08565,0 0.174909,0.0036 0.267578,0.01172 0.669291,0.05894 1.432948,0.65089 2.291015,1.777343 0,-0.576325 -0.172398,-1.129674 -0.515625,-1.660156 -0.343226,-0.530483 -0.891386,-0.854772 -1.646484,-0.972656 -0.135842,-0.02121 -0.269363,-0.03125 -0.400391,-0.03125 -0.597312,0 -1.145297,0.219737 -1.642578,0.660156 -0.0025,-0.312003 -0.02456,-1.7275552 -0.02676,-2.0389442 l 4.839844,-0.02734 2.708984,0.03516 V 4.9395717 c 0,-0.5819414 -0.308214,-0.8730469 -0.925781,-0.8730469 -0.617573,0 -0.939135,0.1712113 -0.962891,0.515625 -0.261276,2.2446268 -0.529577,3.3728896 -0.802734,3.3847656 l -4.865235,0.1894532 c -0.0046,-0.7506343 -0.0087,-1.5009987 -0.01172,-2.2480469 -0.0046,-1.158146 -0.02437,-1.0725961 0.0072,-2.0665248 C 10.378659,2.618134 10.487077,1.7106488 10.062567,0.81786465 9.9029524,0.4821805 9.4312333,0.193772 8.9921875,0.09570312 8.7305394,0.01644943 8.445992,0.02931959 8.1992188,0 Z m 8.7564872,4.5469936 c 0.249401,0 0.375001,0.1312983 0.375,0.3925781 v 3.0097656 h -1.140624 l 0.375,-3.1523437 c 0.01188,-0.1662689 0.141222,-0.25 0.390624,-0.25 z"
     sodipodi:nodetypes="ccsccccscccccsssscccccsscsccscccccccscscsscscsscscsssssccssssscsssscsssscsssccccsscccsssccsccccs" />
</svg>
