<?xml version="1.0" encoding="UTF-8" standalone="no"?>
<svg
   width="1794.5071"
   height="1139.6837"
   version="1.1"
   id="svg2478"
   xmlns="http://www.w3.org/2000/svg"
   xmlns:svg="http://www.w3.org/2000/svg">
  <defs
     id="defs2482" />
  <path
     id="path2476"
     style="fill:#000000;stroke:none;stroke-width:86.1104"
     d="m 891.50622,0 c -31.16441,0 -74.31667,5.69429 -129.45367,17.08127 -55.13695,11.38699 -82.70444,32.66264 -82.70444,63.82704 0,14.38355 4.19453,26.3696 12.58493,35.95867 38.35615,0 65.9253,27.8688 82.70617,83.60509 16.78076,55.73627 43.74899,83.60336 80.90659,83.60336 v 469.0485 H 723.83694 L 661.78495,505.37167 c 26.16358,-49.47221 26.60554,-91.73892 1.32601,-126.80165 -25.27952,-35.06267 -45.681,-64.19294 -61.20604,-87.38848 -15.52498,-23.19551 -34.06357,-31.11057 -55.61445,-23.74743 -20.41656,6.97558 -29.95226,24.48195 -28.60541,52.52161 1.3468,28.03972 2.75024,63.66089 4.21047,106.86172 1.46026,43.20089 28.24189,76.1681 80.34175,98.90056 l 58.67155,227.40593 H 500.84466 L 324.82128,462.99644 c 39.82562,-30.46286 31.74805,-89.67042 22.67285,-117.65053 -18.56253,-54.98913 -12.10319,-93.43967 19.37681,-115.35328 2.39161,-13.34844 -0.5219,-25.92569 -8.73953,-37.7307 -8.90241,-12.78873 -22.04829,-19.6113 -39.439,-20.46687 -17.3907,-0.85557 -39.02606,4.25576 -64.90505,15.33337 -51.75806,22.1552 -90.42669,42.13549 -116.00423,59.94031 -26.56125,18.48962 -59.215226,48.15736 -97.962031,89.00379 -38.7468927,40.84642 -49.2172049,74.05841 -31.4123926,99.63589 8.2176346,11.80498 19.0007746,18.90354 32.3492026,21.29519 31.479911,-21.91358 70.026801,-14.7913 115.642591,21.3658 41.20954,25.41203 89.26628,39.75902 120.97585,17.65301 l 160.5402,257.10151 h -21.57417 c -133.04795,0 -199.57314,64.12671 -199.57314,192.38003 0,129.45224 65.92422,194.17974 197.77356,194.17974 h 964.1596 c 131.8494,0 198.3728,-64.7275 199.5715,-194.17974 0,-128.25332 -67.1228,-192.38003 -201.3693,-192.38003 h -23.3737 l 164.5043,-262.68599 c 34.4312,23.96802 74.4543,17.8738 120.0701,-18.28328 45.6157,-36.1571 84.1643,-43.27939 115.6443,-21.36581 13.3484,-2.39164 24.1316,-9.49019 32.3492,-21.29519 17.8047,-25.57749 7.3327,-58.78947 -31.4141,-99.63589 -38.7469,-40.84645 -71.4008,-70.51418 -97.9621,-89.0038 -25.5776,-17.80481 -64.2461,-37.78508 -116.0042,-59.94031 -51.7579,-22.15518 -86.5392,-20.44396 -104.344,5.13352 -8.2177,11.80499 -11.1312,24.38052 -8.7396,37.72896 31.4799,21.91361 37.9394,60.36589 19.3768,115.35501 -18.5627,54.98909 -12.5958,93.09872 17.901,114.32692 l 1.4758,1.02808 -175.7857,298.63778 h -167.6238 l 70.2986,-213.46774 c 51.883,-23.09945 78.6536,-56.04944 80.3108,-98.85063 1.6573,-42.80109 4.0355,-77.99764 7.1346,-105.58739 3.0991,-27.58968 -6.0434,-45.30503 -27.424,-53.14844 -21.3808,-7.84336 -40.0913,-0.34521 -56.1312,22.49721 -16.0399,22.84245 -36.9857,51.22754 -62.8368,85.15322 -25.8512,33.92575 -25.8955,76.68039 -0.1326,128.2637 l -74.1475,235.14007 H 918.47566 v -469.0485 c 43.15064,0 73.11488,-27.86709 89.89574,-83.60336 16.7807,-55.73629 44.3499,-83.60509 82.7062,-83.60509 9.589,-9.58907 14.3844,-21.57512 14.3844,-35.95867 0,-31.1644 -27.8688,-52.44005 -83.605,-63.82704 C 966.12069,5.69429 922.67063,0 891.50622,0 Z m 0,48.54533 c 63.52741,0 113.87028,8.9883 151.02768,26.96771 -40.7534,27.56854 -65.32641,60.53237 -73.71678,98.88852 -8.39047,38.35612 -23.37254,60.53063 -44.9479,66.5238 -21.57537,5.99316 -43.15064,5.99316 -64.72601,0 -21.57537,-5.99317 -36.25963,-28.16768 -44.05071,-66.5238 -7.79109,-38.35615 -32.66203,-71.31998 -74.61412,-98.88852 38.35613,-17.97941 88.69899,-26.96771 151.02784,-26.96771 z m 598.12158,167.99982 c 41.752,7.15737 88.2059,28.54113 139.3608,64.15078 52.1387,36.29444 88.3201,72.43346 108.5441,108.41849 -49.1978,-0.65698 -88.1964,12.35823 -116.996,39.04463 -28.8,26.6863 -53.7668,36.32475 -74.8983,28.9171 -21.1316,-7.40765 -38.8392,-19.73298 -53.1227,-36.97814 -14.2835,-17.24513 -13.6646,-43.83368 1.8547,-79.76486 15.5192,-35.93112 13.9382,-77.19369 -4.7426,-123.788 z m -1184.74816,6.21476 c -18.68079,46.59429 -20.26178,87.85686 -4.7426,123.78801 15.51927,35.93117 15.76798,62.22107 1.85295,79.76485 -13.85005,17.46188 -20.95492,35.09028 -53.12261,36.97986 -22.35369,1.3131 -46.09665,-2.23253 -74.89654,-28.91883 -28.7998,-26.68639 -67.79989,-39.69988 -116.997861,-39.0429 20.2242,-35.98503 56.407121,-72.12576 108.545911,-108.42021 51.15491,-35.60965 97.60884,-56.99341 139.36075,-64.15078 z m 254.19896,82.10353 c 16.85308,23.3751 37.92069,52.59446 63.2002,87.65713 25.27958,35.0627 25.13847,67.09291 -0.42018,96.09186 -37.95964,-7.29715 -57.66901,-32.54462 -59.12922,-75.74553 -1.46017,-43.20086 -2.67727,-79.20291 -3.6508,-108.00346 z m 680.5986,14.34115 c -2.7428,28.35883 -4.9436,63.93832 -6.6007,106.73945 -1.6574,42.80114 -21.7482,67.98813 -60.2744,75.55954 -24.4906,-30.68877 -23.8106,-62.99614 2.0406,-96.9219 25.8512,-33.92571 47.463,-62.38477 64.8345,-85.37709 z M 414.5428,837.62794 h 962.3618 c 80.3082,0 120.4627,35.95824 120.4627,107.87602 0,71.91784 -39.5553,108.47704 -118.6649,109.67574 H 414.5428 c -77.91098,0 -116.86525,-36.5592 -116.86525,-109.67574 0,-71.91778 38.95427,-107.87602 116.86525,-107.87602 z" />
</svg>
