<?xml version="1.0" encoding="UTF-8" standalone="no"?>
<svg
   width="630"
   height="1800"
   version="1.1"
   id="svg4"
   sodipodi:docname="US9M12VARA.svg"
   inkscape:version="1.2.2 (732a01da63, 2022-12-09)"
   xmlns:inkscape="http://www.inkscape.org/namespaces/inkscape"
   xmlns:sodipodi="http://sodipodi.sourceforge.net/DTD/sodipodi-0.dtd"
   xmlns="http://www.w3.org/2000/svg"
   xmlns:svg="http://www.w3.org/2000/svg">
  <defs
     id="defs8" />
  <sodipodi:namedview
     id="namedview6"
     pagecolor="#ffffff"
     bordercolor="#000000"
     borderopacity="0.25"
     inkscape:showpageshadow="2"
     inkscape:pageopacity="0.0"
     inkscape:pagecheckerboard="0"
     inkscape:deskcolor="#d1d1d1"
     showgrid="false"
     inkscape:zoom="0.41986485"
     inkscape:cx="398.9379"
     inkscape:cy="909.81658"
     inkscape:window-width="1920"
     inkscape:window-height="1137"
     inkscape:window-x="-8"
     inkscape:window-y="-8"
     inkscape:window-maximized="1"
     inkscape:current-layer="svg4" />
  <path
     id="path2"
     style="fill:#000000;stroke:none;stroke-width:99.816"
     d="M 315.12761,5.925917 C 218.59176,7.1878558 143.19237,22.962451 88.930352,53.248183 34.668376,83.533983 6.2764274,135.90316 3.7526164,210.3556 c 2.523811,75.71441 30.6013466,128.7142 84.2324256,159 50.074558,28.2774 119.497398,45.90036 207.537108,53.26954 25.12769,60.77853 91.3379,130.70895 81.47265,191.71093 -34.3444,151.98314 -70.14578,163.76231 -111.48633,313.32422 -14.14599,51.17741 -53.77024,106.98221 -41.30273,215.44531 10.19643,88.7056 65.70776,221.7889 78.07226,311.0098 -0.0232,-0.035 -0.055,-0.064 -0.0781,-0.1 l -156.48242,-147.6914 -52.999998,53 187.392578,172.2519 c -100.95258,49.2145 -151.42969,138.8107 -151.42969,268.7872 h 459.9668 c 1.26184,-129.9765 -48.58457,-219.5727 -149.53711,-268.7872 l 187.39453,-174.1445 -53,-54.8926 -149.11719,145.7676 C 371.30959,1361.2866 329.97712,1232.5983 316.57097,1187.6642 269.77342,1030.8105 362.87352,916.73336 436.61394,743.65834 507.45106,577.3976 424.80747,486.5178 409.35222,421.86732 472.09635,403.48191 548.19748,353.06889 598.11199,318.24821 L 459.9323,210.3556 598.11199,102.46303 C 505.99286,36.84381 411.66357,4.6639782 315.12761,5.925917 Z m 12.54102,80.625 c 56.31258,-0.276011 101.03115,10.075487 134.15625,31.054683 l -141.96484,92.75 140.07226,94.64258 c -37.85725,26.50007 -89.59569,39.75 -155.21484,39.75 -140.07168,-6.30949 -210.107418,-50.47603 -210.107418,-132.5 0,-71.92871 69.405098,-113.572501 208.214838,-124.929685 8.51787,-0.473209 16.7991,-0.728147 24.84375,-0.767578 z M 359.61004,1588.3615 c 84.54778,0 135.02501,48.5851 151.42968,145.752 H 206.28777 c 18.92861,-97.1669 70.03643,-145.752 153.32227,-145.752 z"
     sodipodi:nodetypes="sccsccsscccccccccccssccccssccccscssccs" />
</svg>
