<?xml version="1.0" encoding="UTF-8" standalone="no"?>
<!-- Created with Inkscape (http://www.inkscape.org/) -->

<svg
   width="812.35132"
   height="1799.9984"
   id="svg3987"
   version="1.1"
   xmlns="http://www.w3.org/2000/svg"
   xmlns:svg="http://www.w3.org/2000/svg"
   xmlns:rdf="http://www.w3.org/1999/02/22-rdf-syntax-ns#"
   xmlns:cc="http://creativecommons.org/ns#"
   xmlns:dc="http://purl.org/dc/elements/1.1/">
  <defs
     id="defs3" />
  <metadata
     id="metadata4">
    <rdf:RDF>
      <cc:Work
         rdf:about="">
        <dc:format>image/svg+xml</dc:format>
        <dc:type
           rdf:resource="http://purl.org/dc/dcmitype/StillImage" />
      </cc:Work>
    </rdf:RDF>
  </metadata>
  <path
     id="path1"
     style="color:#000000;fill:#000000;fill-rule:evenodd;stroke-width:1.06287;stroke-linejoin:round;-inkscape-stroke:none"
     d="M 332.48708,37.525707 C 308.18122,69.566951 299.19827,74.612542 298.6629,114.34013 l -178.77068,34.9297 C 63.808289,162.2442 83.971736,233.30209 86.082638,275.36729 88.509648,336.82496 80.474908,430.71774 1.6758875,577.12599 -10.188072,599.17554 44.002478,652.14365 67.859688,635.34353 150.73652,567.57813 242.98272,518.33137 260.63447,397.23943 l 78.95874,137.92186 c -21.80637,121.48479 -49.8707,422.86753 -59.49033,702.53491 -7.61637,221.4294 2.78368,418.1404 51.01478,506.645 40.06176,73.5134 115.3039,74.9026 155.4531,0 42.23063,-78.7857 59.13727,-245.7082 51.23879,-506.645 -8.50835,-281.08072 -53.27894,-589.15643 -66.74478,-702.53491 27.6456,-47.80675 52.60913,-89.85039 79.87475,-137.92186 22.43233,111.11478 113.26993,172.52408 193.473,238.1041 23.01759,16.85276 78.47742,-35.36937 66.18176,-58.21754 -78.79897,-146.40825 -86.83372,-240.30103 -84.40675,-301.7587 1.14275,-45.91282 24.23063,-108.04488 -33.72447,-126.0828 L 498.46793,111.74 C 500.0145,72.210428 494.83387,70.059514 474.35153,37.909423 442.58273,-11.956494 360.96092,-0.0099537 332.48708,37.525707 Z m 108.17859,26.133312 c 20.49067,27.906286 16.55327,40.613071 14.54149,62.712951 -17.78242,10.10668 -32.14898,23.62569 -42.75716,35.96344 -24.60837,-22.70431 -48.46365,-37.81916 -71.62792,-45.42033 0.15237,-24.433929 4.84274,-27.620494 24.44458,-52.452961 19.51945,-24.728425 57.75971,-24.826112 75.39901,-0.8031 z M 315.29722,154.81604 c 30.2981,4.83062 60.81886,31.4589 73.12809,43.31297 l -32.54524,95.98473 c -27.33859,3.84182 -53.92747,8.48219 -78.50436,16.49694 l -29.62075,-19.25265 c -14.06353,-12.90566 -36.59083,-1.78857 -35.07101,17.44808 11.68244,147.8669 -59.87062,206.47699 -157.436662,281.64131 l -8.76313,-7.88843 C 120.988,438.62672 130.70969,338.72256 128.1395,273.63948 c -1.67679,-42.46098 -7.89435,-73.66491 -3.80407,-80.0397 61.41585,-16.33612 128.00903,-26.48466 190.96179,-38.78374 z m 372.6384,38.78373 c 4.06866,6.34151 -2.14373,38.04593 -3.80204,80.0397 -2.57019,65.08308 7.15149,164.98724 81.65453,308.91951 l -8.7631,7.88843 C 660.27167,510.60955 590.66099,439.83159 599.58919,308.80612 c 1.30719,-19.25541 -21.00962,-30.35751 -35.07313,-17.44808 l -30.14067,19.25264 c 0,0 -100.30948,-22.71902 -132.84642,-20.9444 15.53053,-45.57258 37.92106,-137.94436 99.49614,-134.83912 62.30302,12.92643 124.60692,25.84885 186.91051,38.77261 z M 516.0473,355.63763 441.48923,503.17979 H 370.32997 L 295.01778,355.63763 c 60.19824,-32.08081 159.62613,-32.20511 221.02952,0 z m -136.722,196.00514 h 51.11547 c 0,0 57.05974,413.89526 65.29798,686.05343 2.78368,91.9621 9.82871,381.5714 -46.09684,485.9079 -25.0825,46.7936 -57.6167,44.2616 -81.73714,0 -48.93841,-89.8013 -51.39442,-321.4962 -45.7393,-485.9079 9.28427,-269.9189 57.15983,-686.05343 57.15983,-686.05343 z" />
</svg>
