<?xml version="1.0" encoding="UTF-8" standalone="no"?>
<!-- Created with Inkscape (http://www.inkscape.org/) -->

<svg
   width="1800.000000px"
   height="1800.000000px"
   id="svg1290"
   sodipodi:version="0.32"
   inkscape:version="1.2.2 (732a01da63, 2022-12-09)"
   sodipodi:docname="US9M121VARA.svg"
   version="1.1"
   xmlns:inkscape="http://www.inkscape.org/namespaces/inkscape"
   xmlns:sodipodi="http://sodipodi.sourceforge.net/DTD/sodipodi-0.dtd"
   xmlns="http://www.w3.org/2000/svg"
   xmlns:svg="http://www.w3.org/2000/svg"
   xmlns:rdf="http://www.w3.org/1999/02/22-rdf-syntax-ns#"
   xmlns:cc="http://creativecommons.org/ns#"
   xmlns:dc="http://purl.org/dc/elements/1.1/">
  <defs
     id="defs3" />
  <sodipodi:namedview
     id="base"
     pagecolor="#ffffff"
     bordercolor="#666666"
     borderopacity="1.0"
     inkscape:pageopacity="0.0"
     inkscape:pageshadow="2"
     inkscape:zoom="0.12311444"
     inkscape:cx="2042.8148"
     inkscape:cy="877.23259"
     inkscape:document-units="px"
     inkscape:current-layer="svg1290"
     inkscape:window-width="1920"
     inkscape:window-height="1137"
     inkscape:window-x="-8"
     inkscape:window-y="-8"
     inkscape:showpageshadow="2"
     inkscape:pagecheckerboard="0"
     inkscape:deskcolor="#d1d1d1"
     showgrid="false"
     inkscape:window-maximized="1" />
  <metadata
     id="metadata4">
    <rdf:RDF>
      <cc:Work
         rdf:about="">
        <dc:format>image/svg+xml</dc:format>
        <dc:type
           rdf:resource="http://purl.org/dc/dcmitype/StillImage" />
        <cc:license
           rdf:resource="http://creativecommons.org/licenses/by/2.0/" />
        <dc:subject>
          <rdf:Bag>
            <rdf:li>JSesh hieroglyph</rdf:li>
          </rdf:Bag>
        </dc:subject>
        <dc:creator>
          <cc:Agent>
            <dc:title>Serge Rosmorduc</dc:title>
          </cc:Agent>
        </dc:creator>
      </cc:Work>
      <cc:License
         rdf:about="http://creativecommons.org/licenses/by/2.0/">
        <cc:permits
           rdf:resource="http://web.resource.org/cc/Reproduction" />
        <cc:permits
           rdf:resource="http://web.resource.org/cc/Distribution" />
        <cc:requires
           rdf:resource="http://web.resource.org/cc/Notice" />
        <cc:requires
           rdf:resource="http://web.resource.org/cc/Attribution" />
        <cc:permits
           rdf:resource="http://web.resource.org/cc/DerivativeWorks" />
        <cc:requires
           rdf:resource="http://web.resource.org/cc/ShareAlike" />
      </cc:License>
    </rdf:RDF>
  </metadata>
  <path
     id="path2070"
     style="color:#000000;display:inline;overflow:visible;visibility:visible;fill:#000000;fill-opacity:1;fill-rule:evenodd;stroke:none;stroke-width:59.3325;stroke-linecap:butt;stroke-linejoin:round;stroke-miterlimit:4;stroke-dashoffset:0;stroke-opacity:1;marker:none;marker-start:none;marker-mid:none;marker-end:none"
     d="M 1186.3105,1.3886719 C 1175.4967,1.0312456 1164.6129,1.120698 1153.75,1.59375 1070.575,-0.32567484 985.65542,21.446813 944.30469,94.583984 900.16709,19.260642 812.57707,-1.3724461 726.20898,2.3886719 642.82406,0.46440031 557.66594,22.330234 516.43164,95.912109 603.62471,192.07319 653.11248,214.77738 687.4082,337.4043 c -0.023,2.28189 -0.11466,4.75035 -0.14453,7.05078 -122.59914,4.26471 -236.19483,6.21068 -321.27148,-3.07617 18.96585,-67.54308 55.24443,-126.43504 46.79883,-196.8711 C 406.11687,88.845591 345.26065,68.021256 298.9668,55.376953 254.59078,43.256471 224.8703,0.61258725 176.94727,2.9472656 124.16923,5.5184662 71.113089,21.742808 25.416016,48.308594 c -47.722629,27.743332 -9.38515,81.526356 22.908203,105.259766 35.469711,26.0678 76.157491,50.12797 122.662111,39.87891 30.31101,-6.68018 97.49839,-22.77741 100.27344,-1.54102 8.45868,64.73115 -60.53308,143.27315 -32.70118,218.07227 22.8214,61.33322 75.06106,117.0187 144.90039,122.05468 81.06925,5.84575 186.85231,1.89101 296.19727,-4.68554 -3.71286,61.77395 -8.19316,125.75107 -13.26172,191.51953 -162.01559,4.32972 -315.15651,8.76481 -397.01172,-0.21289 14.00036,-50.09666 40.77944,-93.77714 34.54492,-146.01953 -4.92677,-41.28465 -49.84983,-56.72915 -84.02343,-66.10743 -32.75779,-8.98974 -54.69608,-40.61834 -90.07227,-38.88672 -38.960173,1.90706 -78.126321,13.93875 -111.859374,33.64258 -35.228329,20.57721 -6.926397,60.46922 16.91211,78.07227 26.183347,19.33448 56.21776,37.17985 90.546874,29.57812 22.37526,-4.95468 71.971,-16.89359 74.01953,-1.14257 6.24409,48.01105 -44.68386,106.26567 -24.13867,161.74414 16.84648,45.49082 55.4083,86.79214 106.96289,90.52734 71.62868,5.18957 222.96474,0.94136 373.57031,-4.83789 -12.73557,164.39019 -24.2596,327.16179 -23.06836,458.81639 2.15123,137.5376 -7.36134,278.8307 39.77344,410.7402 2.53616,60.3387 84.33094,107.5561 109.97656,36.3594 44.27765,-99.2287 53.98286,-208.8984 52.94336,-316.1953 5.84116,-199.1451 -8.24963,-397.9839 -29.72265,-595.86522 88.40167,-3.71575 168.63801,-7.0437 213.69335,-7.82031 22.7894,-0.39003 44.1443,0.72347 64.7539,2.54687 -13.0618,168.00586 -25.0939,334.93746 -23.8769,469.43746 2.1512,137.5376 -7.3594,278.8307 39.7754,410.7403 2.5361,60.3386 84.329,107.556 109.9746,36.3594 44.2776,-99.2288 53.9848,-208.8985 52.9453,-316.1954 5.5158,-188.0535 -6.6841,-375.8426 -26.1387,-562.8027 93.5724,41.45228 145.5322,106.49045 162.0449,153.4355 25.274,71.8534 43.5048,147.1165 37.1055,223.6211 -7.6996,92.0513 -21.1658,184.9281 -13.6621,277.0254 6.619,81.2384 34.7058,160.0339 53.8887,238.8321 9.3781,38.5238 55.9927,36.7381 54.3125,-5.3692 -3.9838,-101.522 -27.2392,-188.2793 -24.5704,-281.9258 2.2936,-80.4834 22.8075,-157.961 27.5313,-238.6855 5.4769,-93.5993 31.408,-408.84652 -222.7109,-500.61914 -23.1154,-8.3479 -53.0276,-14.68625 -87.6211,-19.57422 -3.8735,-64.67346 -7.356,-142.17437 -10.0079,-219.36524 240.917,30.61784 365.6375,166.32248 396.8457,254.62696 34.2378,96.87661 58.9346,198.35235 50.2657,301.50004 -10.4304,124.1084 -28.6729,249.3293 -18.5078,373.5 8.9665,109.5299 47.0136,215.7678 73,322.0078 12.7044,51.9399 75.8522,49.5313 73.5761,-7.2403 -5.3968,-136.8774 -36.8985,-253.8482 -33.2832,-380.1074 3.1072,-108.5122 30.896,-212.9732 37.295,-321.8105 7.4193,-126.19575 42.5454,-551.22807 -301.7012,-674.96097 -72.9295,-26.21312 -171.623,-37.75966 -281.5,-41.89453 35.0095,-121.51352 76.7727,-143.55289 163.5293,-239.205081 C 1334.3214,28.222351 1262.0077,3.8906559 1186.3105,1.3886719 Z M 1158.752,46.634766 c 47.2627,7.822292 180.0248,24.500032 113.2714,89.416014 -49.4082,86.44432 -79.8447,78.2713 -109.5058,172.875 -35.5348,-109.8913 -80.9728,-117.51773 -145.1817,-214.521483 42.2981,-27.074533 91.583,-42.203867 141.4161,-47.769531 z M 731.21094,47.429688 C 778.47371,55.251979 911.23381,71.929723 844.48047,136.8457 795.07219,223.29003 764.6358,215.117 734.97461,309.7207 699.4399,199.8294 654.00377,192.20492 589.79492,95.201172 632.09305,68.126636 681.37788,52.995344 731.21094,47.429688 Z M 176.94727,61.480469 c 36.35568,8.372059 65.02789,38.972961 102.80273,49.498051 31.78763,8.85689 83.99551,20.66037 73.08984,67.1875 -14.55274,62.08681 -56.30146,122.1795 -43.21484,187.16015 9.55175,47.42857 69.67199,44.3734 107.52148,44.07617 94.76898,-0.74422 183.3172,-2.87174 268.66797,-5.20507 -0.66382,19.66221 -1.61572,40.11779 -2.62304,60.72461 -142.72674,8.53337 -265.88276,15.27429 -315.03907,5.85742 -48.01149,-9.19756 -82.26809,-68.34209 -78.04492,-117.40039 5.6004,-65.05674 56.89655,-125.4502 37.64453,-191.14649 C 313.06049,112.09873 248.57288,128.60915 208.39453,130.6543 166.40098,132.79184 126.16089,143.86162 88.669922,110.86523 45.949112,73.265986 170.66039,60.032714 176.94727,61.480469 Z m -8.91211,16.128906 c -19.95858,-0.595982 -72.032226,24.222245 -24.3125,24.437505 16.88434,0.0762 78.45616,11.06405 40.29296,-15.257818 -5.02462,-3.465587 -9.5645,-8.9881 -15.98046,-9.179687 z m 776.91796,18.550781 c 85.50808,94.056594 134.61808,117.915104 168.72848,236.250004 -107.7729,-0.29441 -222.01946,4.32355 -332.10543,8.7207 -0.006,-1.49166 -0.0933,-4.08728 -0.0957,-5.52734 35.00952,-121.85974 76.74687,-143.86669 163.47265,-239.443364 z m 93.22458,300.029294 c 25.9372,-0.13219 50.9015,0.0402 75.4375,0.38086 -0.537,16.91349 -1.1855,34.12696 -1.9882,51.76953 -98.8437,-1.32919 -215.02389,4.11835 -327.68169,10.62305 -0.62604,-21.46834 -0.9503,-38.61581 -1.33593,-57.45117 90.56846,-2.57946 177.35731,-4.92365 255.56832,-5.32227 z m 171.9571,3.42188 c 202.1599,10.49888 346.879,48.48575 426.1933,155.77929 165.2774,223.58124 108.7105,447.22078 67.5977,729.52348 11.507,-166.572 66.7567,-428.96745 -104.4805,-655.58988 C 1527.1,533.57944 1404.4667,493.35921 1291.623,464.89453 c -22.0766,-5.5688 -49.6754,-9.3189 -80.3125,-12.01562 -0.5732,-20.06601 -0.8177,-35.59246 -1.1757,-53.26758 z m -114.1719,102.82031 c 4.331,-0.0738 8.3175,0.21066 12.5898,0.19922 -3.8547,68.60302 -8.8356,140.38827 -14.5351,214.37891 -90.2576,-4.08804 -194.44537,-3.3972 -299.21096,-1.25586 -3.38216,-59.14929 -6.37503,-126.95204 -8.79492,-195.30469 114.03351,-7.97514 225.79768,-16.5739 309.95118,-18.01758 z m 64.2344,8.49219 c 5.6842,45.85515 12.2441,124.7141 18.8691,212.17969 -14.1988,-1.37911 -28.9601,-2.56852 -44.2773,-3.58594 4.5811,-74.00299 11.7841,-156.99937 25.4082,-208.59375 z m -1030.36527,0.1289 c 26.83732,6.20956 48.00182,28.90644 75.88672,36.71289 23.46534,6.56915 62.00546,15.32484 53.95508,49.83399 -10.7427,46.04975 -41.56076,90.62028 -31.90039,138.81641 7.05094,35.17774 51.4311,32.91185 79.37109,32.6914 117.31259,-0.92564 238.39234,-4.50282 355.87109,-6.80273 -1.19274,15.26719 -2.35991,30.43671 -3.55859,45.74609 -178.3463,6.91841 -345.57849,14.8379 -388.48047,6.58008 -35.44145,-6.82182 -60.72888,-50.68965 -57.61133,-87.07617 4.13413,-48.25254 42.00063,-93.04654 27.78907,-141.77344 -10.84504,-37.18413 -58.45022,-24.93875 -88.10938,-23.42187 -30.99924,1.58541 -60.703503,9.79566 -88.378904,-14.67774 -31.536067,-27.88734 60.525084,-37.7027 65.166014,-36.62891 z m -6.58008,11.96289 c -14.73319,-0.44202 -53.173378,17.9673 -17.94726,18.12696 12.46389,0.0565 57.91568,8.2065 29.74414,-11.31641 -3.70919,-2.57044 -7.06066,-6.66844 -11.79688,-6.81055 z m 610.72071,1 c 5.22821,44.97964 11.07158,114.69853 17.03125,192.80079 -15.10301,0.35864 -28.61522,0.6691 -43.61329,1.05664 4.26106,-68.04183 10.89038,-142.1777 22.58985,-193.61328 1.33772,-0.0884 2.65432,-0.15525 3.99219,-0.24415 z m 98.43554,236.28907 c 92.38474,-0.0616 179.2599,2.34472 257.5508,8.90429 -0.8958,11.4515 -1.7674,22.815 -2.666,34.28907 -73.2889,-4.75021 -177.35139,-3.37442 -286.5723,-0.16407 -0.23414,-2.05285 -0.4422,-4.10947 -0.67773,-6.1621 -0.77975,-9.4851 -1.55628,-24.88663 -2.34375,-36.45704 11.40657,-0.0689 23.44238,-0.40264 34.70898,-0.41015 z m -78.13476,0.92187 c 1.07288,14.69591 2.134,28.28921 3.20117,43.49024 -18.43298,0.61472 -36.55862,1.07637 -55.00586,1.75781 0.64271,-14.11347 1.43199,-27.45617 2.32617,-44.66406 16.68822,-0.27626 32.99892,-0.39227 49.47852,-0.58399 z m 377.35356,11.79492 c 17.9274,1.96848 34.8902,4.40938 51.6269,6.96094 0.9697,13.52347 1.9338,25.47511 2.8965,39.36914 -7.4479,-2.02555 -14.9099,-4.06682 -22.2754,-5.93359 -9.3508,-2.36996 -20.8023,-4.35037 -33.9453,-6.00977 0.5212,-11.46643 1.0149,-20.70383 1.6973,-34.38672 z m 95.3769,14.30079 c 89.8851,18.02041 157.4034,47.10629 191.3281,93.21679 122.0059,165.83004 80.2494,331.70424 49.9004,541.08794 8.4944,-123.5463 49.2785,-318.1663 -77.1269,-486.252 -39.0711,-51.95425 -98.0466,-81.75701 -159.4903,-102.33789 -1.3496,-12.21999 -2.628,-24.4498 -4.0293,-36.66211 -0.1936,-2.35527 -0.3876,-6.55941 -0.582,-9.05273 z m -99.0605,62.03515 c 21.859,3.7307 42.2809,8.64534 61.3789,14.54297 9.4188,140.83501 18.1326,292.07261 23.5918,406.23241 3.363,134.323 2.678,271.8575 -33.9375,402.1817 -22.097,86.456 -46.9905,-47.6006 -52.4922,-80.8028 -34.9747,-245.0027 -11.326,-496.5919 1.459,-742.15428 z m -367.0684,1.56055 c 9.77931,144.7319 18.85785,302.06343 24.49805,420.00973 3.36295,134.323 2.67805,271.8575 -33.9375,402.1817 -22.09697,86.456 -46.9905,-47.5986 -52.49219,-80.8008 -34.82094,-243.926 -11.55109,-494.3667 1.27148,-738.90235 20.99947,-0.84404 40.24974,-1.63759 60.66016,-2.48828 z" />
</svg>
