<?xml version="1.0" encoding="UTF-8" standalone="no"?>
<svg
   width="1799.5281"
   height="803.50342"
   version="1.1"
   id="svg533"
   xmlns="http://www.w3.org/2000/svg"
   xmlns:svg="http://www.w3.org/2000/svg">
  <defs
     id="defs537" />
  <path
     style="fill:#000000;stroke:none;stroke-width:100"
     d="M 123.27169,1.1818033 1686.3881,0.02034632 c 75.4266,-1.12580002 113.14,44.46786568 113.14,136.78100368 0,82.1812 -37.7134,123.21575 -113.14,123.2718 L 123.27169,261.2346 C 41.090588,261.29567 0,217.89247 0,131.2082 0,43.398136 41.090565,0.05600332 123.27169,1.1818033 Z M 70.923395,131.2082 c 0,38.27614 24.766934,57.4142 74.300795,57.4142 l 1504.01371,0.52725 c 51.7853,0 77.678,-18.5752 77.678,-55.7256 0,-41.653471 -25.3299,-62.519325 -75.9894,-62.480204 L 146.91289,72.105303 C 96.253244,72.144424 70.923395,91.806269 70.923395,131.2082 Z M 630.6256,365.29689 c 0,14.635 5.62883,27.2999 16.8865,37.9947 11.25773,10.6948 25.32987,16.0422 42.2164,16.0422 16.88653,0 30.95863,-5.3474 42.2163,-16.0422 11.25773,-10.6948 16.8866,-23.3597 16.8866,-37.9947 0,-14.635 -5.62887,-27.01847 -16.8866,-37.1504 -11.25767,-10.13193 -25.32977,-15.1979 -42.2163,-15.1979 -16.88653,0 -30.95867,5.06597 -42.2164,15.1979 -11.25767,10.13193 -16.8865,22.5154 -16.8865,37.1504 z m 192.5066,0 c 0,14.635 5.62883,27.01847 16.8865,37.1504 11.25767,10.13193 25.3298,15.1979 42.21641,15.1979 16.88653,0 31.24009,-5.06597 43.06069,-15.1979 11.8206,-10.13193 17.7309,-22.5154 17.7309,-37.1504 0,-14.635 -5.9103,-27.2999 -17.7309,-37.9947 -11.8206,-10.6948 -26.17416,-16.0422 -43.06069,-16.0422 -16.88661,0 -30.95874,5.3474 -42.21641,16.0422 -11.25767,10.6948 -16.8865,23.3597 -16.8865,37.9947 z m 194.1952,0 c 0,14.635 5.6289,27.2999 16.8866,37.9947 11.2577,10.6948 25.3298,16.0422 42.2164,16.0422 16.8865,0 31.24,-5.3474 43.0606,-16.0422 11.8206,-10.6948 17.7309,-23.3597 17.7309,-37.9947 0,-14.635 -5.9103,-27.01847 -17.7309,-37.1504 -11.8206,-10.13193 -26.1741,-15.1979 -43.0606,-15.1979 -16.8866,0 -30.9587,5.06597 -42.2164,15.1979 -11.2577,10.13193 -16.8866,22.5154 -16.8866,37.1504 z"
     id="path531" />
  <path
     d="m 383.05617,325.50384 c 34.8021,20.88968 39.1386,55.28394 13.0097,103.1828 -38.3427,75.52707 -104.2491,197.21787 -197.7192,365.07237 -10.7116,11.7785 -24.4092,12.8791 -41.0929,3.3018 L 23.06713,719.57521 C 5.5158703,710.71541 0.15233024,699.81221 6.9765903,686.86571 130.94449,534.69541 221.23417,425.71037 277.84547,359.91077 c 35.1882,-42.24267 70.2584,-53.71165 105.2107,-34.40693 z m -220.344,401.30917 c 3.5868,4.3379 6.8319,3.8459 9.7351,-1.4761 5.0553,-2.7194 57.7302,-94.4795 158.0246,-275.28045 15.5676,-37.70536 18.8969,-60.17859 9.9878,-67.41977 -10.6441,-5.80647 -29.0721,7.23977 -55.2838,39.13865 C 151.21367,586.59171 83.2148,671.30231 81.17923,675.90701 c -3.77083,6.0395 -2.12758,9.7935 4.92966,11.2619 z"
     style="fill:#000000;stroke:none;stroke-width:100"
     id="path547" />
  <path
     d="m 1680.449,324.72808 c 34.8021,20.88968 39.1386,55.28394 13.0097,103.1828 -38.3427,75.52707 -104.2491,197.21791 -197.7192,365.07241 -10.7116,11.7785 -24.4092,12.8791 -41.0929,3.3018 l -134.1867,-77.4856 c -17.5512,-8.8598 -22.9148,-19.763 -16.0905,-32.7095 123.9679,-152.17034 214.2576,-261.15538 270.8689,-326.95498 35.1882,-42.24267 70.2584,-53.71165 105.2107,-34.40693 z m -220.344,401.30921 c 3.5868,4.3379 6.8319,3.8459 9.7351,-1.4761 5.0553,-2.7194 57.7302,-94.4795 158.0246,-275.28049 15.5676,-37.70536 18.8969,-60.17859 9.9878,-67.41977 -10.6441,-5.80647 -29.0721,7.23977 -55.2838,39.13865 -133.9622,164.81637 -201.9611,249.52701 -203.9967,254.13171 -3.7708,6.0395 -2.1275,9.7935 4.9297,11.2619 z"
     style="fill:#000000;stroke:none;stroke-width:100"
     id="path547-6" />
</svg>
