<?xml version="1.0" encoding="UTF-8" standalone="no"?>
<svg
   width="17.945471"
   height="14.8"
   version="1.1"
   id="svg4"
   sodipodi:docname="US9NU9VARA.svg"
   inkscape:version="1.2.1 (9c6d41e410, 2022-07-14)"
   xmlns:inkscape="http://www.inkscape.org/namespaces/inkscape"
   xmlns:sodipodi="http://sodipodi.sourceforge.net/DTD/sodipodi-0.dtd"
   xmlns="http://www.w3.org/2000/svg"
   xmlns:svg="http://www.w3.org/2000/svg">
  <defs
     id="defs8" />
  <sodipodi:namedview
     id="namedview6"
     pagecolor="#ffffff"
     bordercolor="#000000"
     borderopacity="0.25"
     inkscape:showpageshadow="2"
     inkscape:pageopacity="0.0"
     inkscape:pagecheckerboard="0"
     inkscape:deskcolor="#d1d1d1"
     showgrid="false"
     inkscape:zoom="42.635148"
     inkscape:cx="9.7689352"
     inkscape:cy="8.9831985"
     inkscape:window-width="1920"
     inkscape:window-height="1137"
     inkscape:window-x="-8"
     inkscape:window-y="-8"
     inkscape:window-maximized="1"
     inkscape:current-layer="svg4" />
  <path
     id="path2"
     style="fill:#000000;stroke:none"
     d="m 10.619141,0.06445312 c -0.186667,0 -0.175417,0.26791752 0.03125,0.78125 0.213332,0.51333248 0.213332,1.01125048 0,1.53124998 -0.206667,0.5199995 -0.217917,0.78125 -0.03125,0.78125 0.193332,0 0.436667,-0.045 0.75,-0.125 0.319999,-0.08 0.937084,-0.09375 1.84375,-0.09375 4.023542,-0.1293378 4.656249,-0.5458337 4.65625,-1.3125 0,-0.7866662 -0.622021,-1.21916707 -4.65625,-1.31249998 -0.906666,0 -1.523751,-0.0450001 -1.84375,-0.125 -0.313333,-0.0799999 -0.556668,-0.125 -0.75,-0.125 z m -3.2500004,0.03125 c -0.193333,0 -0.4366673,0.04500008 -0.75,0.125 -0.3199997,0.0799999 -0.9370839,0.125 -1.84375,0.125 -4.03422968,0.0933299 -4.65624997,0.52583378 -4.65624998,1.31249998 0,0.7666663 0.63270709,1.1831622 4.65624998,1.3125 0.9066663,0 1.5237503,0.045 1.84375,0.125 0.3133327,0.08 0.5566672,0.125 0.75,0.125 0.1866666,0 0.1754168,-0.2612505 -0.03125,-0.78125 -0.2133328,-0.5199995 -0.2133328,-1.0491675 0,-1.56249998 0.2066668,-0.51333248 0.2179168,-0.78125 0.03125,-0.78125 z m 1.65625,0.0625 c -0.939999,0.04 -1.4579166,0.52208394 -1.53125,1.46874998 0.04,0.9466661 0.5400006,1.4420831 1.5,1.46875 0.9333326,-0.04 1.4512504,-0.5354179 1.5312504,-1.46875 -0.04,-0.95999902 -0.5400008,-1.442083 -1.5000004,-1.46874998 z m 0,0.5625 c 0.5799999,0.01333 0.8795831,0.32625058 0.90625,0.90624998 -0.04,0.5666665 -0.3575011,0.861667 -0.9375,0.875 -0.5799994,-0.01333 -0.8795834,-0.3083335 -0.90625,-0.875 0.04,-0.5799994 0.3575007,-0.89291699 0.9375,-0.90624998 z m 2.3750004,0.125 c 1.206665,0 2.456669,0.0404201 3.75,0.09375 1.299998,0.0533299 1.9375,0.28083338 1.9375,0.68749998 0,0.3933326 -0.637502,0.6275001 -1.9375,0.6875 -1.293331,0.06 -2.543335,0.09375 -3.75,0.09375 0.206666,-0.5133325 0.206666,-1.0491675 0,-1.56249998 z m -4.8125004,0.0625 c -0.206667,0.51333248 -0.2066668,1.01791748 0,1.53124998 -1.206666,0 -2.4566683,-0.03375 -3.75,-0.09375 -1.2999987,-0.06 -1.93749998,-0.2941674 -1.93749998,-0.6875 0,-0.4066666 0.63750128,-0.634167 1.93749998,-0.68749998 1.2933317,-0.0533299 2.5433342,-0.0625 3.75,-0.0625 z M 1.4433594,3.6503906 c -0.87088112,0 -1.09252235,0.7315879 -0.66796878,2.1933594 H 0.0234375 V 6.5742188 H 0.59570312 L 1.1835938,7.7480469 H 3.09375 L 3.6816406,6.5742188 h 1.2890625 l 3.6738281,3.6347652 v 0.519532 H 0.0234375 v 0.693359 h 2.2363281 v 0.947266 H 0.0234375 v 0.710937 h 2.2363281 v 0.949219 H 0.0234375 v 0.710937 H 17.96875 V 14.029297 H 15.732422 V 13.080078 H 17.96875 V 12.369141 H 15.732422 V 11.421875 H 17.96875 V 10.728516 H 9.3300781 v -0.326172 c 1.0777139,0 1.5087339,-0.353352 1.2910159,-1.058594 1.23012,-0.3590316 1.506964,-0.9421788 0.832031,-1.75 L 10.621094,6.5742188 h 7.332031 V 5.84375 H 3.0605469 C 2.6033343,4.3819775 2.0638618,3.6503906 1.4433594,3.6503906 Z m 0,0.6152344 c 0.3810096,0 0.7244882,0.5266761 1.0292968,1.578125 H 1.3632812 C 0.97138467,4.7923001 0.99703285,4.265625 1.4433594,4.265625 Z M 1.1835938,6.5742188 H 3.09375 L 2.8164062,7.1328125 H 1.4609375 Z m 4.71875,0 h 2.7421874 v 2.6542968 z m 3.7871093,0 H 9.96875 l 1.142578,1.3847656 c 0.304808,0.3975016 0.09738,0.6991351 -0.621094,0.9042968 z M 9.3300781,6.9785156 10.130859,9.3046875 C 10.26149,9.7278321 9.9941255,9.9394531 9.3300781,9.9394531 Z M 2.9296875,11.421875 h 2.53125 v 0.947266 h -2.53125 z m 3.1835937,0 h 2.53125 v 0.947266 h -2.53125 z m 3.2167969,0 h 2.5488279 v 0.947266 H 9.3300781 Z m 3.2011719,0 h 2.53125 v 0.947266 h -2.53125 z m -9.6015625,1.658203 h 2.53125 v 0.949219 h -2.53125 z m 3.1835937,0 h 2.53125 v 0.949219 h -2.53125 z m 3.2167969,0 h 2.5488279 v 0.949219 H 9.3300781 Z m 3.2011719,0 h 2.53125 v 0.949219 h -2.53125 z" />
</svg>
