<?xml version="1.0" encoding="UTF-8" standalone="no"?>
<!-- Created with Inkscape (http://www.inkscape.org/) -->

<svg
   width="1246.3427"
   height="1791.134"
   viewBox="0 0 1246.3427 1791.134"
   version="1.1"
   id="svg10448"
   xmlns="http://www.w3.org/2000/svg"
   xmlns:svg="http://www.w3.org/2000/svg">
  <defs
     id="defs10445" />
  <path
     style="fill:#000000;stroke:none;stroke-width:143.517"
     d="M 3.1101,833.56534 0,390.30758 c 5.9119,-76.85351 27.5884,-115.28027 65.0298,-115.28027 35.4709,0 56.1622,38.42676 62.074,115.28027 l 3.1101,443.25776 c -1.9707,39.4119 9.853,75.86798 35.471,109.36821 39.412,13.79429 77.8386,13.79429 115.2798,0 L 762.77775,786.27056 c 74.8827,-17.73527 118.236,-8.86753 130.0597,26.6032 11.8236,33.50034 -18.7207,65.02999 -91.6331,94.58896 L 322.3474,1061.1697 c -39.412,11.8235 -70.9415,35.4707 -94.5885,70.9416 -1.9707,41.3826 9.8528,77.8388 35.4705,109.3685 l 298.5464,407.9153 c 39.4122,67.0002 44.3386,111.3388 14.7794,133.0154 -27.5884,21.6766 -67.0004,2.956 -118.2361,-56.1619 L 162.729,1318.3335 C 41.882,1151.5642 3.8231,935.19029 3.1101,833.56534 Z M 17.8896,0 c 171.4423,0 316.126,31.39539 440.4295,78.3315 124.7379,47.1001 243.28603,91.8193 355.20834,186.01279 111.92231,94.19349 236.13786,196.19258 312.99136,343.00237 76.8535,146.81016 116.7582,260.61258 119.714,341.40726 2.9555,80.79458 -53.6993,25.61754 -169.9641,-165.53077 C 960.00281,592.07453 821.16758,481.18934 724.85004,392.92615 628.5325,304.66296 530.1422,268.00864 412.5026,233.51641 299.8932,200.49905 173.5673,162.57475 17.8896,162.57475 -0.7711,137.69387 2.3391,18.66066 17.8896,0 Z"
     id="path2719" />
</svg>
