<?xml version="1.0" encoding="UTF-8" standalone="no"?>
<svg
   id="svg2"
   version="1.1"
   inkscape:version="1.3.2 (091e20e, 2023-11-25, custom)"
   width="1800"
   height="1800"
   sodipodi:docname="US9No90VARB.svg"
   xmlns:inkscape="http://www.inkscape.org/namespaces/inkscape"
   xmlns:sodipodi="http://sodipodi.sourceforge.net/DTD/sodipodi-0.dtd"
   xmlns="http://www.w3.org/2000/svg"
   xmlns:svg="http://www.w3.org/2000/svg"
   xmlns:rdf="http://www.w3.org/1999/02/22-rdf-syntax-ns#"
   xmlns:cc="http://creativecommons.org/ns#"
   xmlns:dc="http://purl.org/dc/elements/1.1/">
  <metadata
     id="metadata18">
    <rdf:RDF>
      <cc:Work
         rdf:about="">
        <dc:format>image/svg+xml</dc:format>
        <dc:type
           rdf:resource="http://purl.org/dc/dcmitype/StillImage" />
      </cc:Work>
    </rdf:RDF>
  </metadata>
  <defs
     id="defs16" />
  <sodipodi:namedview
     pagecolor="#ffffff"
     bordercolor="#666666"
     borderopacity="1"
     objecttolerance="10"
     gridtolerance="10"
     guidetolerance="10"
     inkscape:pageopacity="0"
     inkscape:pageshadow="2"
     inkscape:window-width="1920"
     inkscape:window-height="1009"
     id="namedview14"
     showgrid="false"
     inkscape:zoom="0.069622013"
     inkscape:cx="876.15967"
     inkscape:cy="524.25948"
     inkscape:window-x="-8"
     inkscape:window-y="-8"
     inkscape:window-maximized="1"
     inkscape:current-layer="svg2"
     inkscape:showpageshadow="2"
     inkscape:pagecheckerboard="0"
     inkscape:deskcolor="#d1d1d1" />
  <path
     id="path4"
     style="fill:#000000;stroke:none;stroke-width:0.994387"
     d="M 220.71954,0 C 161.67178,0.510091 100.21134,18.255103 57.89453,61.013011 19.857787,98.7692 2.1760341,154.06006 5.3105007,207.23643 V 504.34056 H 62.643115 C 63.106253,395.00228 61.649302,285.63882 63.482129,176.31721 67.047151,135.28685 92.791042,96.627511 129.671,78.463335 172.58765,55.75617 223.47715,53.442341 270.62533,61.030491 c 40.83789,7.539478 81.48334,29.294022 101.80035,66.748219 15.32294,27.35707 17.02016,59.69245 15.69267,90.45812 v 286.10373 h 57.33261 C 444.96773,393.77039 446.52563,283.16979 444.5498,172.61934 439.13832,111.30961 401.07852,53.966223 345.72485,26.62898 307.43474,6.7201718 263.61061,-0.41515848 220.71954,0 Z M 716.29707,0 C 658.76608,0.54360452 598.89358,17.265285 556.75431,57.862825 516.12618,95.936002 497.50894,153.244 500.88803,208.19974 v 296.14082 h 57.33261 c 0.46314,-109.33828 -0.99382,-218.70174 0.83902,-328.02335 3.65137,-41.91403 30.32754,-81.154997 68.55054,-99.03471 44.40259,-22.548249 97.11188,-24.115461 145.33585,-14.884727 40.84044,8.936083 80.73907,33.152815 98.55888,72.215407 12.80141,27.02198 13.14156,57.56658 12.19095,86.88648 v 282.8409 h 57.33261 C 940.54574,393.73928 942.10244,283.10785 940.12733,172.52611 934.7609,111.56291 896.79672,54.324135 842.11808,27.034892 803.63562,6.8394898 759.48265,-0.4228093 716.29707,0 Z m 495.57753,0 c -57.4843,0.51293326 -117.2833,17.29781 -159.4748,57.736584 -40.2062,37.806401 -59.1981,94.665756 -55.90312,149.375546 0,99.07605 -10e-5,198.15238 0,297.22843 h 57.33252 c 0.4629,-109.50401 -0.9933,-219.0332 0.8391,-328.52054 3.9233,-42.04714 30.7415,-81.229302 69.3604,-98.970622 43.9796,-21.982915 95.5781,-23.552126 143.1975,-14.706048 40.8417,8.532579 81.3192,32.607875 99.3687,71.53176 13.1483,26.86262 13.6497,57.42987 12.6785,86.83017 0,94.61166 10e-5,189.22362 0,283.83528 h 57.3326 c -0.4834,-110.55978 1.0751,-221.15025 -0.9012,-331.69015 C 1430.3902,111.9705 1392.9523,55.067658 1338.5657,27.469936 1299.8827,6.9616522 1255.3946,-0.41528775 1211.8746,0 Z M 220.71954,658.50159 C 161.67178,659.01168 100.21134,676.75669 57.89453,719.5146 19.857787,757.27078 2.1760341,812.56165 5.3105007,865.73802 V 1162.8422 H 62.643115 c 0.463138,-109.3383 -0.993813,-218.70179 0.839014,-328.02339 3.687359,-41.80637 30.0378,-80.79843 68.146571,-98.84827 43.61551,-22.27261 95.06939,-24.17336 142.57993,-15.70626 43.2955,8.55201 86.15722,34.48915 103.34436,76.64353 10.99858,25.42125 11.50543,53.56922 10.56536,80.825 v 285.10939 h 57.33261 C 444.96773,1052.272 446.52563,941.67139 444.5498,831.12093 439.13832,769.81121 401.07852,712.46782 345.72485,685.13058 307.43474,665.22177 263.61061,658.08644 220.71954,658.50159 Z m 495.57753,0 c -57.53099,0.54361 -117.40349,17.26528 -159.54276,57.86283 -40.62813,38.07317 -59.24537,95.38117 -55.86628,150.33691 v 296.14087 h 57.33261 c 0.46314,-109.3383 -0.99382,-218.70179 0.83902,-328.02339 3.5926,-41.4206 29.80469,-80.42181 67.25123,-98.3569 44.11266,-22.9287 96.36875,-24.73766 144.49101,-16.02866 40.11631,8.32692 79.61415,31.0613 98.75504,68.67484 14.34684,27.56792 15.28476,59.43779 14.13894,89.89878 v 283.83533 h 57.33261 c -0.48275,-110.6013 1.07395,-221.23275 -0.90116,-331.81449 -5.36643,-60.9632 -43.33061,-118.20199 -98.00925,-145.49122 -38.48246,-20.1954 -82.63543,-27.45771 -125.82101,-27.0349 z m 495.57753,0 c -57.4843,0.51294 -117.2833,17.29781 -159.4748,57.73659 -40.2062,37.8064 -59.1981,94.66575 -55.90312,149.37554 0,99.07605 -10e-5,198.15238 0,297.22848 h 57.33252 c 0.4629,-109.5041 -0.9933,-219.03325 0.8391,-328.52059 3.9233,-42.04714 30.7415,-81.22929 69.3604,-98.97062 43.9796,-21.98291 95.5781,-23.55213 143.1975,-14.70605 40.8417,8.53258 81.3192,32.60789 99.3687,71.53177 13.1483,26.86261 13.6497,57.42986 12.6785,86.83016 0,94.61166 10e-5,189.22363 0,283.83533 h 57.3326 c -0.4834,-110.5598 1.0751,-221.1503 -0.9012,-331.6902 -5.3146,-60.67991 -42.7525,-117.58275 -97.1391,-145.18047 -38.683,-20.50828 -83.1711,-27.88522 -126.6911,-27.46994 z M 220.71954,1317.0031 c -59.04776,0.5102 -120.5082,18.2552 -162.82501,61.0131 -38.036743,37.7562 -55.7184959,93.0471 -52.5840293,146.2234 v 297.1042 c 19.1108523,-1e-4 38.2217623,-1e-4 57.3326143,0 0.463138,-109.3383 -0.993813,-218.7019 0.839014,-328.0234 3.566351,-41.2015 29.602604,-80.2035 66.878341,-98.1685 44.96147,-23.4359 98.54394,-25.1836 147.69169,-15.5956 41.06992,9.0805 81.07925,33.842 98.50644,73.4292 11.91999,26.3104 12.60272,55.9857 11.55975,84.5229 v 283.8354 c 19.11085,-1e-4 38.22176,0 57.33261,0 -0.48323,-110.5702 1.07467,-221.1708 -0.90116,-331.7213 -5.39133,-60.9604 -43.03295,-118.0337 -97.91603,-145.5223 -38.4458,-20.2458 -82.68171,-27.4974 -125.91423,-27.0971 z m 495.57753,0 c -57.53099,0.5437 -117.40349,17.2654 -159.54276,57.8629 -40.62813,38.0732 -59.24537,95.3812 -55.86628,150.3369 v 296.1409 c 19.11085,-1e-4 38.22176,0 57.33261,0 0.46283,-109.3591 -0.99338,-218.7429 0.83902,-328.0856 3.73424,-42.2904 30.70244,-81.5613 69.35848,-99.4076 43.60949,-21.785 94.94951,-23.5561 142.36045,-14.8866 41.71818,8.4515 83.07308,33.2417 100.95357,73.1826 12.75785,27.1775 12.8293,57.8466 11.96372,87.3506 v 281.8466 c 19.11085,-1e-4 38.22176,0 57.33261,0 -0.48298,-110.5806 1.07432,-221.1914 -0.90116,-331.7523 -5.43478,-62.0105 -44.39708,-119.7901 -100.52823,-146.8586 -37.88058,-19.1852 -81.03437,-26.155 -123.30203,-25.7298 z m 495.57753,0 c -57.4843,0.513 -117.2833,17.2979 -159.4748,57.7367 -40.2062,37.8063 -59.1981,94.6657 -55.90312,149.3755 0,99.076 -10e-5,198.1523 0,297.2285 19.11072,-1e-4 38.22172,0 57.33252,0 0.4629,-109.5144 -0.9934,-219.054 0.8391,-328.5517 3.8643,-41.6168 30.4135,-80.7253 68.4379,-98.4695 44.4098,-22.5555 96.8168,-24.0999 145.0756,-15.0149 40.1578,8.7446 79.6903,32.2493 97.9782,70.3529 14.1776,28.329 13.9434,60.7849 13.1134,91.8254 0,93.286 10e-5,186.5718 0,279.8578 19.1109,-1e-4 38.2218,0 57.3326,0 -0.4834,-110.5598 1.0751,-221.1503 -0.9012,-331.6903 -5.3146,-60.6798 -42.7525,-117.5826 -97.1391,-145.1804 -38.6686,-20.5175 -83.1606,-27.8761 -126.6911,-27.47 z" />
</svg>
