<?xml version="1.0" encoding="UTF-8" standalone="no"?>
<svg
   id="svg2"
   version="1.1"
   inkscape:version="1.3.2 (091e20e, 2023-11-25, custom)"
   width="1800"
   height="1800"
   sodipodi:docname="US9No2VARV.svg"
   xmlns:inkscape="http://www.inkscape.org/namespaces/inkscape"
   xmlns:sodipodi="http://sodipodi.sourceforge.net/DTD/sodipodi-0.dtd"
   xmlns="http://www.w3.org/2000/svg"
   xmlns:svg="http://www.w3.org/2000/svg"
   xmlns:rdf="http://www.w3.org/1999/02/22-rdf-syntax-ns#"
   xmlns:cc="http://creativecommons.org/ns#"
   xmlns:dc="http://purl.org/dc/elements/1.1/">
  <metadata
     id="metadata12">
    <rdf:RDF>
      <cc:Work
         rdf:about="">
        <dc:format>image/svg+xml</dc:format>
        <dc:type
           rdf:resource="http://purl.org/dc/dcmitype/StillImage" />
      </cc:Work>
    </rdf:RDF>
  </metadata>
  <defs
     id="defs10" />
  <sodipodi:namedview
     pagecolor="#ffffff"
     bordercolor="#666666"
     borderopacity="1"
     objecttolerance="10"
     gridtolerance="10"
     guidetolerance="10"
     inkscape:pageopacity="0"
     inkscape:pageshadow="2"
     inkscape:window-width="1920"
     inkscape:window-height="1009"
     id="namedview8"
     showgrid="true"
     inkscape:zoom="0.13586451"
     inkscape:cx="375.37397"
     inkscape:cy="526.25958"
     inkscape:window-x="-8"
     inkscape:window-y="-8"
     inkscape:window-maximized="1"
     inkscape:current-layer="svg2"
     inkscape:showpageshadow="2"
     inkscape:pagecheckerboard="0"
     inkscape:deskcolor="#d1d1d1">
    <inkscape:grid
       type="xygrid"
       id="grid2989"
       empspacing="45"
       visible="true"
       enabled="true"
       snapvisiblegridlinesonly="true"
       spacingx="10px"
       spacingy="10px"
       originx="0"
       originy="0"
       units="px" />
  </sodipodi:namedview>
  <path
     id="path4"
     style="fill:#000000;stroke:none"
     d="M 215.24219 375.68164 C 196.54886 375.91575 176.7827 377.96125 155.96484 382.04688 C -109.46617 523.24842 -8.5505162 852.04238 252.20508 815.66406 C 534.39098 776.21478 495.64216 372.17005 215.24219 375.68164 z M 204.42578 450 C 402.09534 469.68327 420.39116 707.23259 251.79883 740.51562 C 66.404889 777.19336 -1.4417533 524.25108 204.42578 450 z M 215.24219 1024.4141 C 196.54886 1024.6482 176.7827 1026.6937 155.96484 1030.7793 C -109.46617 1171.9808 -8.5505164 1500.7746 252.20508 1464.3965 C 534.39098 1424.9481 495.64216 1020.9026 215.24219 1024.4141 z M 204.42578 1098.7324 C 402.09534 1118.4158 420.39116 1355.9669 251.79883 1389.25 C 66.404889 1425.9268 -1.4417533 1172.9835 204.42578 1098.7324 z " />
</svg>
