<?xml version="1.0" encoding="UTF-8" standalone="no"?>
<svg
   width="1800"
   height="1800"
   version="1.1"
   id="svg4"
   sodipodi:docname="US9No600000VARD.svg"
   inkscape:version="1.2.1 (9c6d41e410, 2022-07-14)"
   xmlns:inkscape="http://www.inkscape.org/namespaces/inkscape"
   xmlns:sodipodi="http://sodipodi.sourceforge.net/DTD/sodipodi-0.dtd"
   xmlns="http://www.w3.org/2000/svg"
   xmlns:svg="http://www.w3.org/2000/svg">
  <defs
     id="defs8" />
  <sodipodi:namedview
     id="namedview6"
     pagecolor="#ffffff"
     bordercolor="#666666"
     borderopacity="1.0"
     inkscape:showpageshadow="2"
     inkscape:pageopacity="0.0"
     inkscape:pagecheckerboard="0"
     inkscape:deskcolor="#d1d1d1"
     showgrid="false"
     inkscape:zoom="0.29006991"
     inkscape:cx="6.8948895"
     inkscape:cy="765.33273"
     inkscape:window-width="1920"
     inkscape:window-height="1017"
     inkscape:window-x="-8"
     inkscape:window-y="-8"
     inkscape:window-maximized="1"
     inkscape:current-layer="svg4" />
  <g
     id="g436"
     transform="scale(1.2286324)">
    <path
       style="fill:#000000;stroke:none;stroke-width:34.6828"
       d="m 102.96468,23.844454 c 19.78844,2.300963 43.92159,16.662191 71.53336,43.35355 29.91273,28.532151 53.74915,44.630986 72.6172,48.772746 108.60623,64.88761 172.51125,140.13876 191.83947,224.35463 5.98254,23.00978 11.81905,45.8957 17.34142,69.36568 l 15.17374,122.47379 -31.43132,-106.21621 c -15.18648,-51.08175 -33.48313,-90.19977 -54.19194,-115.97074 -9.20393,-11.5049 -17.10495,-17.34143 -24.92829,-17.34143 -3.68156,0 -7.22344,3.37846 -9.75456,8.67071 -2.53114,5.29226 -0.23584,12.01265 7.58688,21.67678 7.8233,9.66409 12.54586,15.96083 13.00606,17.34142 -3.92908,5.67533 -14.15265,8.63482 -29.26364,9.75454 -0.14428,-0.0298 -0.29585,-0.0417 -0.4513,-0.0417 -0.4165,0 -0.86228,0.0763 -1.28028,0.0763 -0.14983,0 -0.2962,-0.01 -0.4361,-0.0382 -7.90252,-1.53208 -16.06784,-2.66564 -24.92829,-3.24804 -12.31148,0.74775 -24.21275,2.82977 -34.68285,5.41919 -1.24101,0.0112 -2.43955,0.0175 -3.59393,0.0175 -10.34236,0 -17.1403,-0.49665 -19.16667,-2.18536 -0.92039,-0.4601 4.84945,-2.75472 18.42525,-7.58676 13.5758,-4.83206 20.59294,-9.65141 20.59294,-15.17375 0,-1.8408 -6.95049,-9.71168 -21.67678,-21.67678 -11.50488,-40.03703 -13.07907,-72.85834 -4.33535,-98.62933 -8.28355,0 -16.3179,10.09889 -22.76062,30.3475 -6.44275,20.24863 -8.5739,38.38183 -6.50303,53.1081 2.07087,14.72625 3.87519,24.03802 4.33535,28.1798 -2.76117,6.90293 -10.49877,10.37822 -23.84445,10.83839 -11.50488,-4.60197 -22.68761,-13.29009 -31.43132,-27.09597 -8.74373,-13.80592 -15.85769,-27.0531 -22.76062,-39.01819 C 161.09205,251.40771 153.68133,232.7175 146.31824,208.09698 138.9551,183.4765 132.33151,165.40994 126.80914,153.90504 117.14504,134.11668 105.76872,118.18126 91.042458,106.2162 55.147174,87.808352 36.850519,77.219161 36.850519,72.617199 v 0 c 19.328226,2.300963 36.050662,3.414976 49.856583,4.335354 C 95.910992,71.89042 96.698085,66.217348 88.87478,60.694972 79.21065,57.933802 70.389242,56.589738 63.946488,56.359617 57.503769,56.129531 53.865054,53.671453 52.024261,47.688906 63.989356,37.564604 80.875287,29.366794 102.96468,23.844454 Z M 315.39709,378.25973 c 56.35961,5.05791 86.3458,36.12798 91.04246,92.1263 -5.7805,55.27579 -35.76669,85.26194 -91.04246,91.04246 -55.27578,-5.78052 -86.34582,-35.76667 -92.1263,-91.04246 5.0579,-55.99832 36.12798,-87.06839 92.1263,-92.1263 z M 107.30004,0 C 98.556322,0 89.311195,2.5913631 78.036393,6.5030326 66.761591,10.414702 51.776731,16.348035 33.599003,26.012131 15.421274,35.676262 4.1417555,48.136385 0,62.86265 c 3.6815489,22.089397 31.913659,45.27203 83.455586,68.28184 15.186472,12.42527 23.250924,27.11342 26.012134,45.52123 5.06213,32.67391 18.14593,66.11888 37.93435,99.71317 19.32824,28.07198 38.5754,56.63095 57.44346,85.62327 3.42084,5.59774 13.93016,9.02343 31.43133,10.83838 -26.78244,20.44124 -41.73297,53.02625 -44.43739,97.54549 4.69664,63.5852 32.51516,101.15834 84.53942,114.88691 h -84.53942 v 36.85052 H 436.78703 V 585.27294 H 352.2476 c 46.16509,-12.18248 73.47415,-43.93646 82.37175,-95.37781 7.44013,25.99878 9.23923,30.71159 20.59294,70.44952 4.60196,23.46995 10.4385,41.9301 17.34142,55.27578 6.62751,5.24675 11.35568,7.91196 14.42556,7.91196 2.04594,0 3.35557,-1.18409 3.9997,-3.57661 1.61067,-5.98254 2.16768,-11.35887 2.16768,-17.34141 -2.30086,-91.579 -9.87515,-166.99362 -22.76062,-225.43848 -17.02726,-77.7731 -37.15832,-129.77497 -61.77881,-157.15662 -24.62048,-27.38165 -46.9494,-50.49765 -67.198,-69.36568 C 321.16061,131.78553 287.55221,110.80075 240.61221,87.790942 210.69947,62.480201 186.63294,41.265229 167.99501,24.928292 149.35707,8.5913559 128.46903,0 107.30004,0 Z"
       id="path2" />
    <path
       style="fill:#000000;stroke:none;stroke-width:34.6828"
       d="m 1066.4444,29.243166 c 19.7885,2.30097 43.9216,16.66219 71.5334,43.35355 29.9127,28.532154 53.7491,44.630984 72.6172,48.772744 108.6062,64.88761 172.5112,140.13876 191.8395,224.35463 5.9825,23.00978 11.819,45.8957 17.3414,69.36568 l 15.1737,122.47379 -31.4313,-106.21621 c -15.1865,-51.08175 -33.4831,-90.19977 -54.1919,-115.97074 -9.204,-11.5049 -17.105,-17.34143 -24.9283,-17.34143 -3.6816,0 -7.2235,3.37846 -9.7546,8.67071 -2.5311,5.29226 -0.2358,12.01265 7.5869,21.67678 7.8233,9.66409 12.5458,15.96083 13.006,17.34142 -3.929,5.67533 -14.1526,8.63482 -29.2636,9.75454 -0.1443,-0.0298 -0.2958,-0.0417 -0.4513,-0.0417 -0.4165,0 -0.8623,0.0763 -1.2803,0.0763 -0.1498,0 -0.2962,-0.01 -0.4361,-0.0382 -7.9025,-1.53208 -16.0678,-2.66564 -24.9283,-3.24804 -12.3114,0.74775 -24.2127,2.82977 -34.6828,5.41919 -1.241,0.0112 -2.4396,0.0175 -3.5939,0.0175 -10.3424,0 -17.1403,-0.49665 -19.1667,-2.18536 -0.9204,-0.4601 4.8494,-2.75472 18.4252,-7.58676 13.5758,-4.83206 20.593,-9.65141 20.593,-15.17375 0,-1.8408 -6.9505,-9.71168 -21.6768,-21.67678 -11.5049,-40.03703 -13.0791,-72.85834 -4.3354,-98.62933 -8.2835,0 -16.3179,10.09889 -22.7606,30.3475 -6.4427,20.24863 -8.5739,38.38183 -6.503,53.1081 2.0709,14.72625 3.8752,24.03802 4.3353,28.1798 -2.7611,6.90293 -10.4987,10.37822 -23.8444,10.83839 -11.5049,-4.60197 -22.6876,-13.29009 -31.4313,-27.09597 -8.7438,-13.80592 -15.8577,-27.0531 -22.7606,-39.01819 -6.903,-11.96491 -14.3137,-30.65512 -21.6768,-55.27564 -7.3632,-24.62048 -13.9867,-42.68704 -19.5091,-54.19194 -9.6641,-19.78836 -21.0404,-35.72378 -35.7667,-47.68884 -35.8953,-18.407844 -54.1919,-28.997034 -54.1919,-33.598994 v 0 c 19.3282,2.30096 36.0506,3.41497 49.8565,4.33535 9.2039,-5.06213 9.991,-10.7352 2.1677,-16.25758 -9.6641,-2.76117 -18.4855,-4.10523 -24.9283,-4.33535 -6.4427,-0.23009 -10.0814,-2.68817 -11.9222,-8.67071 11.9651,-10.12431 28.851,-18.32212 50.9404,-23.84446 z m 212.4324,354.415274 c 56.3596,5.05791 86.3458,36.12798 91.0425,92.1263 -5.7805,55.27579 -35.7667,85.26195 -91.0425,91.04245 -55.2757,-5.7805 -86.3458,-35.76666 -92.1263,-91.04245 5.0579,-55.99832 36.128,-87.06839 92.1263,-92.1263 z M 1070.7798,5.3987155 c -8.7437,0 -17.9889,2.59136 -29.2637,6.5030305 -11.2748,3.91167 -26.2596,9.845 -44.43738,19.5091 -18.17769,9.66413 -29.45719,22.12425 -33.59899,36.85052 3.6816,22.0894 31.91369,45.272024 83.45557,68.281834 15.1865,12.42527 23.251,27.11342 26.0122,45.52123 5.0621,32.67391 18.1459,66.11888 37.9343,99.71317 19.3283,28.07198 38.5754,56.63095 57.4435,85.62327 3.4208,5.59774 13.9301,9.02343 31.4313,10.83838 -26.7824,20.44124 -41.733,53.02625 -44.4374,97.54549 4.6967,63.5852 32.5152,101.15835 84.5394,114.88695 h -84.5394 v 36.8505 h 244.9476 v -36.8505 h -84.5395 c 46.1651,-12.1825 73.4742,-43.9365 82.3718,-95.37785 7.4401,25.99878 9.2392,30.71159 20.5929,70.44955 4.602,23.4699 10.4385,41.9301 17.3415,55.2758 6.6275,5.2467 11.3556,7.9119 14.4255,7.9119 2.046,0 3.3556,-1.1841 3.9997,-3.5766 1.6107,-5.9825 2.1677,-11.3589 2.1677,-17.3414 -2.3009,-91.57901 -9.8752,-166.99363 -22.7606,-225.43849 -17.0273,-77.7731 -37.1583,-129.77497 -61.7788,-157.15662 -24.6205,-27.38165 -46.9494,-50.49765 -67.198,-69.36568 -20.2486,-18.86806 -53.857,-39.85284 -100.797,-62.862644 -29.9128,-25.31074 -53.9793,-46.52571 -72.6172,-62.86265 -18.638,-16.33693 -39.526,-24.9282905 -60.695,-24.9282905 z"
       id="path2-5" />
    <path
       style="fill:#000000;stroke:none;stroke-width:34.6828"
       d="m 583.80219,25.795721 c 19.78844,2.30097 43.92159,16.66219 71.53336,43.35355 29.91273,28.53215 53.74915,44.630989 72.6172,48.772749 108.60623,64.88761 172.51125,140.13876 191.83947,224.35463 5.98254,23.00978 11.81905,45.8957 17.34142,69.36568 l 15.17374,122.47379 -31.43132,-106.21621 c -15.18648,-51.08175 -33.48313,-90.19977 -54.19194,-115.97074 -9.20393,-11.5049 -17.10495,-17.34143 -24.92829,-17.34143 -3.68156,0 -7.22344,3.37846 -9.75456,8.67071 -2.53114,5.29226 -0.23584,12.01265 7.58688,21.67678 7.8233,9.66409 12.54586,15.96083 13.00606,17.34142 -3.92908,5.67533 -14.15265,8.63482 -29.26364,9.75454 -0.14428,-0.0298 -0.29585,-0.0417 -0.4513,-0.0417 -0.4165,0 -0.86228,0.0763 -1.28028,0.0763 -0.14983,0 -0.2962,-0.01 -0.4361,-0.0382 -7.90252,-1.53208 -16.06784,-2.66564 -24.92829,-3.24804 -12.31148,0.74775 -24.21275,2.82977 -34.68285,5.41919 -1.24101,0.0112 -2.43955,0.0175 -3.59393,0.0175 -10.34236,0 -17.1403,-0.49665 -19.16667,-2.18536 -0.92039,-0.4601 4.84945,-2.75472 18.42525,-7.58676 13.5758,-4.83206 20.59294,-9.65141 20.59294,-15.17375 0,-1.8408 -6.95049,-9.71168 -21.67678,-21.67678 -11.50488,-40.03703 -13.07907,-72.85834 -4.33535,-98.62933 -8.28355,0 -16.3179,10.09889 -22.76062,30.3475 -6.44275,20.24863 -8.5739,38.38183 -6.50303,53.1081 2.07087,14.72625 3.87519,24.03802 4.33535,28.1798 -2.76117,6.90293 -10.49877,10.37822 -23.84445,10.83839 -11.50488,-4.60197 -22.68761,-13.29009 -31.43132,-27.09597 -8.74373,-13.80592 -15.85769,-27.0531 -22.76062,-39.01819 -6.90296,-11.96491 -14.31368,-30.65512 -21.67677,-55.27564 -7.36314,-24.62048 -13.98673,-42.68704 -19.5091,-54.19194 -9.6641,-19.78836 -21.04042,-35.72378 -35.76668,-47.68884 C 535.98468,89.759621 517.68803,79.170431 517.68803,74.568471 v 0 c 19.32822,2.30096 36.05066,3.41497 49.85658,4.33535 9.20389,-5.06213 9.99098,-10.7352 2.16768,-16.25758 -9.66413,-2.76117 -18.48554,-4.10523 -24.92829,-4.33535 -6.44272,-0.23009 -10.08144,-2.68817 -11.92223,-8.67071 11.9651,-10.12431 28.85103,-18.32212 50.94042,-23.84446 z M 796.2346,380.211 c 56.35961,5.05791 86.3458,36.12798 91.04246,92.1263 -5.7805,55.27579 -35.76669,85.26195 -91.04246,91.04245 -55.27578,-5.7805 -86.34582,-35.76666 -92.1263,-91.04245 5.0579,-55.99832 36.12798,-87.06839 92.1263,-92.1263 z M 588.13755,1.9512708 c -8.74372,0 -17.98885,2.59136 -29.26365,6.50303 -11.2748,3.9116702 -26.25966,9.8450002 -44.43739,19.5091002 -18.17773,9.66413 -29.45724,22.12425 -33.599,36.85052 3.68155,22.0894 31.91366,45.272029 83.45559,68.281839 15.18647,12.42527 23.25092,27.11342 26.01213,45.52123 5.06213,32.67391 18.14593,66.11888 37.93435,99.71317 19.32824,28.07198 38.5754,56.63095 57.44346,85.62327 3.42084,5.59774 13.93016,9.02343 31.43133,10.83838 -26.78244,20.44124 -41.73297,53.02625 -44.43739,97.54549 4.69664,63.5852 32.51516,101.15835 84.53942,114.88695 h -84.53942 v 36.8505 h 244.94756 v -36.8505 h -84.53943 c 46.16509,-12.1825 73.47415,-43.9365 82.37175,-95.37785 7.44013,25.99878 9.23923,30.71159 20.59294,70.44955 4.60196,23.4699 10.4385,41.9301 17.34142,55.2758 6.62751,5.2467 11.35568,7.9119 14.42556,7.9119 2.04594,0 3.35557,-1.1841 3.9997,-3.5766 1.61067,-5.9825 2.16768,-11.3589 2.16768,-17.3414 -2.30086,-91.57901 -9.87515,-166.99363 -22.76062,-225.43849 -17.02726,-77.7731 -37.15832,-129.77497 -61.77881,-157.15662 -24.62048,-27.38165 -46.9494,-50.49765 -67.198,-69.36568 C 801.99812,133.7368 768.38972,112.75202 721.44972,89.742211 691.53698,64.431471 667.47045,43.216501 648.83252,26.879561 630.19458,10.542631 609.30654,1.9512708 588.13755,1.9512708 Z"
       id="path2-7" />
    <path
       style="fill:#000000;stroke:none;stroke-width:34.6828"
       d="m 108.95724,685.00576 c 19.7884,2.30097 43.9216,16.6622 71.5333,43.35355 29.9128,28.53215 53.7492,44.63099 72.6172,48.77275 108.6063,64.88761 172.5113,140.13876 191.8395,224.35464 5.9826,23.0098 11.8191,45.8957 17.3414,69.3657 l 15.1738,122.4738 -31.4314,-106.2162 c -15.1864,-51.0818 -33.4831,-90.19982 -54.1919,-115.97079 -9.2039,-11.5049 -17.1049,-17.34143 -24.9283,-17.34143 -3.6815,0 -7.2234,3.37846 -9.7545,8.67071 -2.5312,5.29226 -0.2359,12.01265 7.5868,21.67678 7.8233,9.66409 12.5459,15.96083 13.0061,17.34143 -3.9291,5.6753 -14.1526,8.6348 -29.2636,9.7545 -0.1443,-0.03 -0.2959,-0.042 -0.4513,-0.042 -0.4165,0 -0.8623,0.076 -1.2803,0.076 -0.1498,0 -0.2962,-0.01 -0.4361,-0.038 -7.9025,-1.532 -16.0679,-2.6656 -24.9283,-3.248 -12.3115,0.7477 -24.2128,2.8298 -34.6829,5.4192 -1.241,0.011 -2.4395,0.017 -3.5939,0.017 -10.3424,0 -17.1403,-0.4967 -19.1667,-2.1854 -0.9204,-0.4601 4.8495,-2.7547 18.4253,-7.5867 13.5758,-4.8321 20.5929,-9.65145 20.5929,-15.17379 0,-1.8408 -6.9505,-9.71168 -21.6768,-21.67678 -11.5048,-40.03703 -13.079,-72.85834 -4.3353,-98.62933 -8.2836,0 -16.3179,10.09889 -22.7606,30.3475 -6.4428,20.24863 -8.5739,38.38183 -6.5031,53.1081 2.0709,14.72625 3.8752,24.03802 4.3354,28.1798 -2.7612,6.90293 -10.4988,10.37822 -23.8445,10.83839 -11.5048,-4.60197 -22.6876,-13.29009 -31.4313,-27.09597 -8.7437,-13.80592 -15.8577,-27.0531 -22.7606,-39.01819 -6.9029,-11.96491 -14.3137,-30.65512 -21.6768,-55.27564 -7.3631,-24.62048 -13.9867,-42.68704 -19.5091,-54.19194 -9.6641,-19.78836 -21.0404,-35.72378 -35.766601,-47.68884 -35.8953,-18.40785 -54.192,-28.99704 -54.192,-33.599 v 0 c 19.3282,2.30096 36.0507,3.41497 49.8566,4.33535 9.203901,-5.06213 9.991001,-10.7352 2.1677,-16.25758 -9.6641,-2.76117 -18.4856,-4.10523 -24.9283,-4.33535 -6.4427,-0.23009 -10.0814,-2.68817 -11.9222,-8.67071 11.9651,-10.12431 28.851,-18.32212 50.940401,-23.84446 z m 212.4324,354.41524 c 56.3596,5.0579 86.3458,36.128 91.0425,92.1263 -5.7806,55.2758 -35.7667,85.262 -91.0425,91.0425 -55.2758,-5.7805 -86.3458,-35.7667 -92.1263,-91.0425 5.0579,-55.9983 36.128,-87.0684 92.1263,-92.1263 z M 113.29254,661.16131 c -8.7437,0 -17.988801,2.59136 -29.263601,6.50303 -11.2748,3.91167 -26.2597,9.845 -44.4374,19.5091 -18.1777,9.66413 -29.4572,22.12426 -33.5990004,36.85052 3.6815,22.0894 31.9137004,45.27203 83.4556004,68.28184 15.186501,12.42527 23.250901,27.11342 26.012101,45.52123 5.0622,32.67391 18.1459,66.11888 37.9344,99.71317 19.3282,28.07198 38.5754,56.63095 57.4434,85.6233 3.4209,5.5977 13.9302,9.0234 31.4314,10.8384 -26.7825,20.4412 -41.733,53.0262 -44.4374,97.5454 4.6966,63.5852 32.5151,101.1584 84.5394,114.887 h -84.5394 v 36.8505 h 244.9475 v -36.8505 h -84.5394 c 46.1651,-12.1825 73.4742,-43.9365 82.3718,-95.3779 7.4401,25.9988 9.2392,30.7116 20.5929,70.4496 4.602,23.4699 10.4385,41.9301 17.3414,55.2757 6.6275,5.2468 11.3557,7.912 14.4256,7.912 2.0459,0 3.3555,-1.1841 3.9997,-3.5766 1.6106,-5.9825 2.1677,-11.3589 2.1677,-17.3414 -2.3009,-91.579 -9.8752,-166.9936 -22.7607,-225.4385 -17.0272,-77.7731 -37.1583,-129.77497 -61.7788,-157.15662 -24.6205,-27.38165 -46.9494,-50.49765 -67.198,-69.36568 -20.2486,-18.86806 -53.857,-39.85284 -100.797,-62.86265 -29.9127,-25.31074 -53.9793,-46.52571 -72.6172,-62.86265 -18.6379,-16.33693 -39.526,-24.92829 -60.695,-24.92829 z"
       id="path2-2" />
    <path
       style="fill:#000000;stroke:none;stroke-width:34.6828"
       d="m 1072.4369,690.40448 c 19.7885,2.30097 43.9216,16.66219 71.5334,43.35355 29.9127,28.53215 53.7491,44.63098 72.6172,48.77274 108.6062,64.88761 172.5112,140.13876 191.8395,224.35463 5.9825,23.0098 11.819,45.8957 17.3414,69.3657 l 15.1737,122.4738 -31.4313,-106.2162 c -15.1865,-51.0818 -33.4831,-90.1998 -54.1919,-115.97078 -9.204,-11.5049 -17.105,-17.34143 -24.9283,-17.34143 -3.6816,0 -7.2235,3.37846 -9.7546,8.67071 -2.5311,5.29226 -0.2358,12.01265 7.5869,21.67678 7.8233,9.66409 12.5458,15.96082 13.006,17.34142 -3.929,5.6753 -14.1526,8.6348 -29.2636,9.7545 -0.1443,-0.03 -0.2958,-0.042 -0.4513,-0.042 -0.4165,0 -0.8623,0.076 -1.2803,0.076 -0.1498,0 -0.2962,-0.01 -0.4361,-0.038 -7.9025,-1.532 -16.0678,-2.6656 -24.9283,-3.248 -12.3114,0.7478 -24.2127,2.8298 -34.6828,5.4192 -1.241,0.011 -2.4396,0.018 -3.5939,0.018 -10.3424,0 -17.1403,-0.4967 -19.1667,-2.1854 -0.9204,-0.4601 4.8494,-2.7547 18.4252,-7.5867 13.5758,-4.8321 20.593,-9.65144 20.593,-15.17378 0,-1.8408 -6.9505,-9.71168 -21.6768,-21.67678 -11.5049,-40.03703 -13.0791,-72.85834 -4.3354,-98.62933 -8.2835,0 -16.3179,10.09889 -22.7606,30.3475 -6.4427,20.24863 -8.5739,38.38183 -6.503,53.1081 2.0709,14.72625 3.8752,24.03802 4.3353,28.1798 -2.7611,6.90293 -10.4987,10.37822 -23.8444,10.83839 -11.5049,-4.60197 -22.6876,-13.29009 -31.4313,-27.09597 -8.7438,-13.80592 -15.8577,-27.0531 -22.7606,-39.01819 -6.903,-11.96491 -14.3137,-30.65512 -21.6768,-55.27564 -7.3632,-24.62048 -13.9867,-42.68704 -19.5091,-54.19194 -9.6641,-19.78836 -21.0404,-35.72378 -35.7667,-47.68884 -35.8953,-18.40784 -54.1919,-28.99703 -54.1919,-33.59899 v 0 c 19.3282,2.30096 36.0506,3.41497 49.8565,4.33535 9.2039,-5.06213 9.991,-10.7352 2.1677,-16.25758 -9.6641,-2.76117 -18.4855,-4.10523 -24.9283,-4.33535 -6.4427,-0.23009 -10.0814,-2.68817 -11.9222,-8.67071 11.9651,-10.12431 28.851,-18.32212 50.9404,-23.84446 z m 212.4324,354.41532 c 56.3596,5.0579 86.3458,36.1279 91.0425,92.1263 -5.7805,55.2757 -35.7667,85.2619 -91.0425,91.0424 -55.2757,-5.7805 -86.3458,-35.7667 -92.1263,-91.0424 5.0579,-55.9984 36.128,-87.0684 92.1263,-92.1263 z m -208.097,-378.25977 c -8.7437,0 -17.9889,2.59136 -29.2637,6.50303 -11.2748,3.91167 -26.2596,9.845 -44.4374,19.5091 -18.17766,9.66413 -29.45716,22.12425 -33.59896,36.85052 3.6816,22.0894 31.91366,45.27202 83.45556,68.28183 15.1865,12.42527 23.251,27.11342 26.0122,45.52123 5.0621,32.67391 18.1459,66.11888 37.9343,99.71317 19.3283,28.07198 38.5754,56.63095 57.4435,85.62329 3.4208,5.5977 13.9301,9.0234 31.4313,10.8384 -26.7824,20.4412 -41.733,53.0262 -44.4374,97.5455 4.6967,63.5852 32.5152,101.1583 84.5394,114.8869 h -84.5394 v 36.8505 h 244.9476 v -36.8505 h -84.5395 c 46.1651,-12.1825 73.4742,-43.9365 82.3718,-95.3778 7.4401,25.9987 9.2392,30.7115 20.5929,70.4495 4.602,23.4699 10.4385,41.9301 17.3415,55.2758 6.6275,5.2467 11.3556,7.9119 14.4255,7.9119 2.046,0 3.3556,-1.1841 3.9997,-3.5766 1.6107,-5.9825 2.1677,-11.3589 2.1677,-17.3414 -2.3009,-91.579 -9.8752,-166.9936 -22.7606,-225.4385 -17.0273,-77.77309 -37.1583,-129.77496 -61.7788,-157.15661 -24.6205,-27.38165 -46.9494,-50.49765 -67.198,-69.36568 -20.2486,-18.86806 -53.857,-39.85284 -100.797,-62.86264 -29.9128,-25.31074 -53.9793,-46.52571 -72.6172,-62.86265 -18.638,-16.33693 -39.526,-24.92829 -60.695,-24.92829 z"
       id="path2-5-5" />
    <path
       style="fill:#000000;stroke:none;stroke-width:34.6828"
       d="m 589.79474,686.95703 c 19.7884,2.30097 43.9216,16.66219 71.5333,43.35355 29.9128,28.53215 53.7492,44.63099 72.6173,48.77275 108.6062,64.88761 172.5112,140.13876 191.8394,224.35467 5.9826,23.0097 11.8191,45.8957 17.3414,69.3656 l 15.1738,122.4738 -31.4313,-106.2162 c -15.1865,-51.0817 -33.4832,-90.19975 -54.192,-115.97072 -9.2039,-11.5049 -17.1049,-17.34143 -24.9283,-17.34143 -3.6815,0 -7.2234,3.37846 -9.7545,8.67071 -2.5312,5.29226 -0.2359,12.01265 7.5869,21.67678 7.8233,9.66409 12.5458,15.96086 13.006,17.34146 -3.9291,5.6753 -14.1526,8.6348 -29.2636,9.7545 -0.1443,-0.03 -0.2959,-0.042 -0.4513,-0.042 -0.4165,0 -0.8623,0.076 -1.2803,0.076 -0.1498,0 -0.2962,-0.01 -0.4361,-0.038 -7.9025,-1.5321 -16.0678,-2.6656 -24.9283,-3.248 -12.3115,0.7477 -24.2127,2.8297 -34.6828,5.4192 -1.2411,0.011 -2.4396,0.018 -3.594,0.018 -10.3423,0 -17.1403,-0.4967 -19.1666,-2.1854 -0.9204,-0.4601 4.8494,-2.7547 18.4252,-7.5868 13.5758,-4.832 20.5929,-9.65138 20.5929,-15.17372 0,-1.8408 -6.9504,-9.71168 -21.6767,-21.67678 -11.5049,-40.03703 -13.0791,-72.85834 -4.3354,-98.62933 -8.2835,0 -16.3179,10.09889 -22.7606,30.3475 -6.4428,20.24863 -8.5739,38.38183 -6.503,53.1081 2.0708,14.72625 3.8752,24.03802 4.3353,28.1798 -2.7612,6.90293 -10.4988,10.37822 -23.8444,10.83839 -11.5049,-4.60197 -22.6876,-13.29009 -31.4314,-27.09597 -8.7437,-13.80592 -15.8576,-27.0531 -22.7606,-39.01819 -6.9029,-11.96491 -14.3137,-30.65512 -21.6767,-55.27564 -7.3632,-24.62048 -13.9868,-42.68704 -19.5091,-54.19194 -9.6641,-19.78836 -21.0405,-35.72378 -35.7667,-47.68884 -35.8953,-18.40785 -54.192,-28.99704 -54.192,-33.599 v 0 c 19.3283,2.30096 36.0507,3.41497 49.8566,4.33535 9.2039,-5.06213 9.991,-10.7352 2.1677,-16.25758 -9.6641,-2.76117 -18.4856,-4.10523 -24.9283,-4.33535 -6.4427,-0.23009 -10.0814,-2.68817 -11.9222,-8.67071 11.9651,-10.12431 28.851,-18.32212 50.9404,-23.84446 z m 212.4324,354.41527 c 56.3596,5.0579 86.3458,36.128 91.0425,92.1263 -5.7805,55.2758 -35.7667,85.262 -91.0425,91.0425 -55.2758,-5.7805 -86.3458,-35.7667 -92.1263,-91.0425 5.0579,-55.9983 36.128,-87.0684 92.1263,-92.1263 z m -208.097,-378.25972 c -8.7438,0 -17.9889,2.59136 -29.2637,6.50303 -11.2748,3.91167 -26.2597,9.845 -44.4374,19.5091 -18.1777,9.66413 -29.4572,22.12425 -33.599,36.85052 3.6816,22.0894 31.9137,45.27203 83.4556,68.28184 15.1865,12.42527 23.2509,27.11342 26.0121,45.52123 5.0622,32.67391 18.146,66.11888 37.9344,99.71317 19.3282,28.07198 38.5754,56.63095 57.4434,85.62323 3.4209,5.5978 13.9302,9.0235 31.4314,10.8384 -26.7825,20.4413 -41.733,53.0263 -44.4374,97.5455 4.6966,63.5852 32.5151,101.1584 84.5394,114.887 h -84.5394 v 36.8505 h 244.9475 v -36.8505 h -84.5394 c 46.1651,-12.1825 73.4742,-43.9365 82.3718,-95.3779 7.4401,25.9988 9.2392,30.7116 20.5929,70.4496 4.602,23.4699 10.4385,41.9301 17.3414,55.2758 6.6275,5.2467 11.3557,7.9119 14.4256,7.9119 2.0459,0 3.3556,-1.1841 3.9997,-3.5766 1.6106,-5.9825 2.1677,-11.3589 2.1677,-17.3414 -2.3009,-91.579 -9.8752,-166.9937 -22.7607,-225.4385 -17.0272,-77.77313 -37.1583,-129.775 -61.7788,-157.15665 -24.6205,-27.38165 -46.9494,-50.49765 -67.198,-69.36568 -20.2486,-18.86806 -53.857,-39.85284 -100.797,-62.86265 -29.9127,-25.31074 -53.9793,-46.52571 -72.6172,-62.86265 -18.6379,-16.33693 -39.526,-24.92829 -60.6949,-24.92829 z"
       id="path2-7-6" />
  </g>
</svg>
