<?xml version="1.0" encoding="UTF-8" standalone="no"?>
<svg
   version="1.1"
   id="svg2"
   sodipodi:docname="US9No20VARK.svg"
   inkscape:version="1.3 (0e150ed6c4, 2023-07-21)"
   width="1800"
   height="1800"
   xmlns:inkscape="http://www.inkscape.org/namespaces/inkscape"
   xmlns:sodipodi="http://sodipodi.sourceforge.net/DTD/sodipodi-0.dtd"
   xmlns="http://www.w3.org/2000/svg"
   xmlns:svg="http://www.w3.org/2000/svg">
  <defs
     id="defs2" />
  <sodipodi:namedview
     id="namedview2"
     pagecolor="#ffffff"
     bordercolor="#666666"
     borderopacity="1.0"
     inkscape:showpageshadow="2"
     inkscape:pageopacity="0.0"
     inkscape:pagecheckerboard="0"
     inkscape:deskcolor="#d1d1d1"
     inkscape:zoom="0.33852737"
     inkscape:cx="669.0744"
     inkscape:cy="799.04912"
     inkscape:window-width="1920"
     inkscape:window-height="1017"
     inkscape:window-x="-8"
     inkscape:window-y="-8"
     inkscape:window-maximized="1"
     inkscape:current-layer="svg2" />
  <path
     d="M 317.56483,6.1089125 C 215.57767,6.1089125 131.91156,49.468726 78.169807,117.25661 24.428065,183.21239 1.2214035,270.54274 0,365.81213 v 6.10706 C 1.2214035,467.18865 24.428065,554.51894 78.169807,620.47478 131.91156,688.2626 215.57767,731.62244 317.56483,731.62244 H 835.43986 V 660.78109 H 319.39695 c -84.27683,0 -144.12559,-31.75653 -186.26399,-84.27683 C 92.826647,525.81601 70.841387,454.36391 70.841387,373.7513 v -9.77121 c 0,-80.00194 21.98526,-152.06474 62.291573,-202.75297 C 175.27136,108.70678 235.12012,76.9503 319.39695,76.9503 H 835.43986 V 6.1089125 Z"
     style="fill:#000000;stroke:none;stroke-width:61.0132"
     id="path1" />
  <path
     d="m 1275.0311,6.1089125 c -101.9871,0 -185.6532,43.3598135 -239.395,111.1476975 -53.74176,65.95578 -76.94838,153.28613 -78.1698,248.55552 v 6.10706 c 1.22148,95.26946 24.42804,182.59975 78.1698,248.55559 53.7418,67.78782 137.4079,111.14766 239.395,111.14766 h 517.8751 v -70.84135 h -516.043 c -84.2768,0 -144.1255,-31.75653 -186.2639,-84.27683 -40.3063,-50.68825 -62.2916,-122.14035 -62.2916,-202.75296 v -9.77121 c 0,-80.00194 21.9853,-152.06474 62.2916,-202.75297 42.1384,-52.52034 101.9871,-84.27682 186.2639,-84.27682 h 516.043 V 6.1089125 Z"
     style="fill:#000000;stroke:none;stroke-width:61.0132"
     id="path2" />
</svg>
