<?xml version="1.0" encoding="UTF-8" standalone="no"?>
<svg
   width="1167.4719"
   height="1658.9218"
   version="1.1"
   id="svg1"
   xmlns="http://www.w3.org/2000/svg"
   xmlns:svg="http://www.w3.org/2000/svg">
  <defs
     id="defs1" />
  <path
     id="path1"
     style="fill:#000000;stroke:none;stroke-width:100"
     d="m 711.2168,0.01780965 c 122.67364,0 217.8445,41.62046735 285.50976,124.86328035 67.66524,83.24283 99.79604,128.41419 102.71684,220.90625 0,13.02979 -0.6883,26.8107 -1.8516,40.97656 0,0 16.8473,331.16736 30.0772,442.28964 3.5901,30.15438 45.1759,138.18932 39.2203,147.12261 -18.8759,-7.53697 -57.1783,-24.74761 -84.9256,-103.03334 -9.7582,-27.53159 -40.6961,-279.46875 -40.6961,-279.46875 -12.1296,24.05725 -26.1672,46.61367 -42.35158,66.44531 -69.12566,84.70323 -165.02558,127.05664 -287.69922,127.05664 -108.0696,0 -201.29315,-36.99855 -279.668,-110.99218 -20.4614,-19.31764 -38.1852,-40.16498 -53.3047,-62.46875 v 265.26953 c 0,1.21978 -0.094,2.33397 -0.1016,3.54492 29.9847,10.13652 55.64334,32.73563 61.39852,65.24414 15.86644,64.89553 3.21738,134.20683 -22.16602,195.01363 -16.8283,37.9832 -41.1683,72.1727 -68.9493,102.8926 49.6157,-6.2054 99.23199,-12.4073 148.84774,-18.6113 -2.4572,21.9496 7.10334,58.7101 -4.23633,72.8672 -46.61725,-5.344 -92.78711,-13.8768 -139.28131,-20.1211 0.274,125.5351 4.3661,251.0169 7.1758,376.5097 -22.8662,0.4507 -69.8131,13.9858 -55.1562,-25.4961 2.9441,-117.003 7.6373,-233.9846 7.7734,-351.041 -47.7933,7.0457 -95.5873,14.0869 -143.3809,21.1309 -1.7966,-24.155 -0.202,-48.3775 -0.625,-72.5625 48.1619,8.4383 99.3796,12.1415 146.8867,17.084 -23.8378,-28.9193 -60.9571,-83.7683 -74.5,-119.0528 -0.8178,-2.1312 -1.4622,-4.3221 -2.2382,-6.4687 -24.9828,7.652 -53.1385,11.7168 -84.8887,11.7168 -80.8088,0 -128.0297,-47.2211 -141.6602,-141.66018 C 6.3273,904.29808 2.9199,817.16036 2.9199,728.56273 2.9199,689.61875 19.9571,652.62208 54.0332,617.5725 18.0099,612.7045 0,601.02016 0,582.52172 2.9208,559.15528 14.6031,544.55284 35.0488,538.71117 27.26,506.58236 30.182,466.66374 43.8125,418.95726 57.4426,371.25081 74.4803,334.49595 94.9257,308.69554 c 20.4457,-25.80038 37.4849,-46.97613 51.1153,-63.52734 13.6305,-16.55121 22.149,-31.88474 25.5566,-46.00195 3.4076,-14.11717 5.5988,-29.69441 6.5723,-46.73242 0.9737,-17.03804 6.3284,-29.69514 16.0644,-37.97071 9.7361,-8.27564 21.1748,-12.41406 34.3184,-12.41406 13.1437,0 25.0718,3.40746 35.7812,10.22266 10.7096,6.81524 18.0099,16.30854 21.9043,28.47851 3.8947,12.17004 1.7057,25.79979 -6.5703,40.89063 -8.2756,15.09074 -14.605,29.69526 -18.9863,43.8125 -4.3813,14.11721 -5.1121,31.39814 -2.1914,51.84375 2.9207,20.44554 6.0861,47.21978 9.4941,80.32226 3.4073,33.10241 -1.704,73.50827 -15.3339,121.21485 -13.6305,47.70635 -30.6697,80.32086 -51.1153,97.8457 28.2345,15.57754 42.3516,55.98355 42.3516,121.21484 0,61.33672 -11.197,112.69419 -33.5899,154.07227 -22.3926,41.37798 -37.97,75.21081 -46.7324,101.49805 -8.7625,26.28711 -9.4932,44.78674 -2.1914,55.49602 5.8889,8.6373 25.7471,5.7999 58.2324,-7.4101 0.4348,-19.43421 2.7414,-38.83593 7.0879,-57.92577 11.2362,-39.58993 49.917,-65.72777 90.2129,-66.60742 V 441.44359 c -1.87,-17.15164 -2.9199,-34.76199 -2.9199,-52.95898 0,-102.22803 34.564,-192.77314 103.6894,-271.63477 C 486.80146,37.988215 584.64879,-0.95578735 711.2168,0.01780965 Z m 2.91992,75.93945335 c -99.30717,0 -177.92422,31.643717 -235.85351,94.927737 -57.92911,63.28399 -86.89461,135.81718 -86.89461,217.59961 -0.9733,96.38637 30.1812,175.00545 93.46492,235.85547 63.28399,60.85002 140.19934,91.27539 230.74414,91.27539 93.46566,0 167.4608,-33.10185 221.98242,-99.30664 54.52158,-66.20482 82.75582,-142.14742 84.70312,-227.82422 1.9471,-80.80883 -23.61069,-153.09835 -76.67187,-216.86914 C 892.55008,107.84465 815.39115,75.957263 714.13672,75.957263 Z M 230.8808,138.87914 c -2.1602,-0.0913 -4.3966,0.0451 -6.709,0.41016 -9.2492,1.46044 -14.604,14.36116 -16.0644,38.70117 -1.4607,24.33991 -6.0845,42.59552 -13.8731,54.76562 -7.7888,12.16997 -26.0443,35.77849 -54.7656,70.82813 -28.7213,35.04955 -49.8969,76.67208 -63.5273,124.86523 -13.6305,48.19335 -16.0653,83.00068 -7.3028,104.41992 36.9969,1.9473 71.0733,10.22233 102.2286,24.82617 19.4718,-10.70964 36.024,-40.16231 49.6542,-88.35546 13.6305,-48.19328 17.5253,-94.6831 11.6836,-139.46875 -5.8413,-44.78559 -8.7636,-74.48002 -8.7636,-89.08399 0,-14.60401 5.8421,-32.61597 17.5254,-54.03515 11.6829,-21.41921 14.1179,-35.04906 7.3027,-40.89063 -5.1114,-4.38123 -10.9081,-6.70858 -17.3887,-6.98242 z m 477.41608,178.04492 c 43.81198,2.92087 67.66415,26.2876 71.55859,70.09961 -2.92087,46.73278 -26.77301,71.07431 -71.55859,73.02148 -44.78561,-1.94717 -68.63975,-26.2887 -71.56055,-73.02148 1.9472,-43.81201 25.80134,-67.17874 71.56055,-70.09961 z M 71.5605,559.15648 c -20.4456,0 -37.9707,4.30039 -37.9707,16.06446 0,18.18838 19.9578,26.2871 45.2715,26.2871 h 21.9062 l 14.6036,14.60352 c -48.6802,28.23441 -73.0196,70.10048 -73.0196,125.5957 0,165.51212 10.2223,265.06304 30.668,298.65234 20.4456,33.5893 48.1947,50.3828 83.2441,50.3828 20.7252,0 43.8544,-7.328 69.3516,-21.8828 l 35.8965,-24.252 c 15.7708,-12.0364 32.2305,-26.175 49.5547,-42.9492 -18.3369,9.5352 -35.3062,17.8574 -50.9414,24.9981 l -38.5176,16.0488 c -27.5368,10.4041 -49.545,15.9082 -65.3438,15.9082 -27.2606,0 -40.8925,-18.4974 -40.8925,-55.4941 0,-37.97048 15.0917,-86.16408 45.2734,-144.5801 30.1817,-58.41605 45.2715,-111.96456 45.2715,-160.64454 0,-70.09929 -38.4567,-115.86005 -115.3711,-137.27929 5.8413,5.84127 6.8159,14.11825 2.9219,24.82812 30.1814,0 55.9811,10.70967 77.4004,32.12891 l -2.92,4.38086 c -24.3398,-18.49844 -55.0092,-27.74805 -92.0058,-27.74805 -13.6305,-1.9473 -20.2036,-7.78952 -19.7168,-17.52539 0.4867,-9.73607 5.5998,-15.57634 15.3359,-17.52344 z m 4.3809,4.38086 c -4.868,7.78887 -4.868,15.57842 0,23.36719 5.8413,-8.76237 5.8413,-16.55189 0,-23.36719 z m 233.4668,360.58008 c -24.3309,8.03281 -41.9394,31.26773 -46.9844,56.73828 23.0686,-14.64828 38.5836,-33.64485 46.9844,-56.73828 z m 65.7402,9.75 c -9.6732,83.72798 -42.8773,140.84878 -99.6055,171.37108 12.559,35.78 31.7894,69.507 54.4571,99.4258 27.2431,-16.0772 36.2985,-50.9418 51.373,-77.2676 23.3695,-54.6522 37.2353,-121.0329 10.0059,-176.71678 -4.2756,-6.78208 -9.8921,-12.31217 -16.2305,-16.8125 z" />
</svg>
