<?xml version="1.0" encoding="UTF-8" standalone="no"?>
<svg
   width="1799.9994"
   height="1800.9086"
   version="1.1"
   id="svg1"
   xml:space="preserve"
   xmlns="http://www.w3.org/2000/svg"
   xmlns:svg="http://www.w3.org/2000/svg"><defs
     id="defs1" /><path
     id="path2091"
     style="fill:#000000;fill-opacity:1;fill-rule:nonzero;stroke:none;stroke-width:46.4742;stroke-linecap:square;stroke-linejoin:round;stroke-miterlimit:4;stroke-opacity:1"
     d="M 567.08594 0 L 543.97461 1.0214844 L 28.382812 22.472656 C 16.010927 22.933617 6.2075241 33.074432 6.1660156 45.455078 L 6.1660156 294.69727 C 6.1363667 306.44021 14.929974 316.33276 26.595703 317.67969 C 197.67954 337.80739 355.56308 349.30915 538.74023 365.05078 L 542.57031 365.43359 L 535.73633 1398.4824 L 0 1398.4824 L 0 1467.9355 L 224.39453 1467.9355 L 224.39453 1563.0664 L 0 1563.0664 L 0 1634.4219 L 224.39453 1634.4219 L 224.39453 1729.5527 L 0 1729.5527 L 0 1800.9082 L 1800 1800.9082 L 1800 1729.5527 L 1575.6348 1729.5527 L 1575.6348 1634.4219 L 1800 1634.4219 L 1800 1563.0664 L 1575.6348 1563.0664 L 1575.6348 1467.9355 L 1800 1467.9355 L 1800 1398.4824 L 1577.6035 1398.4824 L 1543.4824 1.7871094 L 1471.2129 1.7871094 L 1471.0859 0 L 1447.9746 1.0214844 L 932.38281 22.472656 C 920.01093 22.933617 910.20753 33.074432 910.16602 45.455078 L 910.16602 294.69727 C 910.13642 306.44021 918.92997 316.33276 930.5957 317.67969 C 1101.6795 337.80739 1259.5631 349.30915 1442.7402 365.05078 L 1446.5703 365.43359 L 1439.7363 1398.4824 L 933.58789 1398.4824 L 864.78906 1398.4824 L 673.60352 1398.4824 L 639.48242 1.7871094 L 567.21289 1.7871094 L 567.08594 0 z M 544.74023 47.115234 L 542.95312 319.08398 L 542.69727 319.08398 C 366.63397 303.95358 214.40249 292.53471 52.388672 274.01172 L 52.388672 67.673828 L 544.74023 47.115234 z M 1448.7402 47.115234 L 1446.9531 319.08398 L 1446.6973 319.08398 C 1270.6339 303.95358 1118.4025 292.53471 956.38867 274.01172 L 956.38867 67.673828 L 1448.7402 47.115234 z M 291.53906 1467.9355 L 545.41992 1467.9355 L 545.41992 1563.0664 L 291.53906 1563.0664 L 291.53906 1467.9355 z M 610.91016 1467.9355 L 864.78906 1467.9355 L 864.78906 1563.0664 L 610.91016 1563.0664 L 610.91016 1467.9355 z M 933.58789 1467.9355 L 1189.0898 1467.9355 L 1189.0898 1563.0664 L 933.58789 1563.0664 L 933.58789 1467.9355 z M 1254.6113 1467.9355 L 1508.4609 1467.9355 L 1508.4609 1563.0664 L 1254.6113 1563.0664 L 1254.6113 1467.9355 z M 291.53906 1634.4219 L 545.41992 1634.4219 L 545.41992 1729.5527 L 291.53906 1729.5527 L 291.53906 1634.4219 z M 610.91016 1634.4219 L 864.78906 1634.4219 L 864.78906 1729.5527 L 610.91016 1729.5527 L 610.91016 1634.4219 z M 933.58789 1634.4219 L 1189.0898 1634.4219 L 1189.0898 1729.5527 L 933.58789 1729.5527 L 933.58789 1634.4219 z M 1254.6113 1634.4219 L 1508.4609 1634.4219 L 1508.4609 1729.5527 L 1254.6113 1729.5527 L 1254.6113 1634.4219 z " /></svg>
