<?xml version="1.0" encoding="UTF-8" standalone="no"?>
<svg
   width="1799.9963"
   height="1800"
   version="1.1"
   id="svg1"
   xmlns="http://www.w3.org/2000/svg"
   xmlns:svg="http://www.w3.org/2000/svg">
  <defs
     id="defs1" />
  <path
     id="path1"
     style="fill:#000000;stroke:none;stroke-width:87.8266"
     d="M 136.22656 0.013671875 C 68.113146 -0.84698214 0 37.232827 0 117.68945 L 0 655.91406 L 810.70312 655.91406 L 498.1582 1797.2949 L 1311.1172 1797.2949 L 1002.1094 655.91406 L 1799.9883 655.91406 L 1799.9883 117.68945 C 1801.7006 -40.472346 1538.4247 -33.302745 1531.5762 117.41211 L 1531.5762 371.03516 C 1531.5762 338.31487 1324.8888 249.61133 1097.8359 249.61133 L 1174.5508 99.466797 C 998.96502 23.697523 814.69703 20.146566 625.4375 99.466797 L 702.15234 249.61133 C 436.81914 249.61133 272.45312 350.81273 272.45312 371.03516 L 272.45312 115.97461 C 272.45312 40.675188 204.33998 0.87432589 136.22656 0.013671875 z M 1674.4004 84.478516 C 1703.9766 87.326428 1733.5527 137.41776 1733.5527 227.95312 L 1733.5527 570.53516 L 66.435547 570.53516 L 66.435547 227.95312 C 66.435547 63.0081 187.29297 56.106375 187.29297 225.63477 L 187.29297 509.70703 C 187.29297 441.6804 553.06995 319.48633 736.08789 319.48633 L 1066.8809 319.48633 C 1238.8861 319.48633 1615.248 450.17703 1615.248 509.70703 L 1615.248 224.46094 C 1615.248 126.02547 1644.8242 81.630603 1674.4004 84.478516 z M 903.76758 121.86133 C 955.61042 121.33627 1006.869 132.22131 1057.4609 156.08984 L 996.89648 249.61133 L 803.0918 249.61133 L 746.56445 156.08984 C 799.49661 134.32154 851.92474 122.38638 903.76758 121.86133 z M 901.26953 655.91406 L 913.36719 655.91406 L 1204.9395 1730.2617 L 1060.1523 1730.2617 L 907.31836 1153.791 L 757.16797 1730.2617 L 609.69922 1730.2617 L 901.26953 655.91406 z M 907.31836 1373.6543 L 990.4375 1730.2617 L 824.19922 1730.2617 L 907.31836 1373.6543 z " />
</svg>
