<?xml version="1.0" encoding="UTF-8" standalone="no"?>
<svg
   width="1800"
   height="480"
   version="1.1"
   id="svg158"
   xmlns="http://www.w3.org/2000/svg"
   xmlns:svg="http://www.w3.org/2000/svg">
  <defs
     id="defs162" />
  <path
     id="path156"
     style="fill:#000000;stroke:none;stroke-width:96.6723"
     d="M 72.134766 0 C 24.045284 33.768766 0 82.81323 0 147.13477 C -9.4738937e-15 214.67243 24.045284 266.13138 72.134766 301.50781 L 1733.4805 301.50781 C 1777.0617 266.13138 1798.8516 214.67243 1798.8516 147.13477 C 1798.8516 82.81323 1777.0617 33.768766 1733.4805 0 L 72.134766 0 z M 135.25195 77.185547 L 1661.3457 77.185547 C 1682.3855 77.185547 1698.1643 83.215136 1708.6836 95.275391 C 1719.2032 107.33578 1724.4629 124.62226 1724.4629 147.13477 C 1724.4629 169.64714 1719.5787 188.14083 1709.8105 202.61328 C 1700.0425 217.08574 1683.8881 224.32227 1661.3457 224.32227 L 135.25195 224.32227 C 115.71556 224.32227 100.31209 217.08574 89.041016 202.61328 C 77.770057 188.14083 72.134766 169.64714 72.134766 147.13477 C 72.134766 124.62226 77.770057 107.33578 89.041016 95.275391 C 100.31209 83.215136 115.71556 77.185547 135.25195 77.185547 z M 1037.5762 375.20703 A 52.827026 52.149754 0 0 0 984.75 427.35742 A 52.827026 52.149754 0 0 0 1037.5762 479.50781 A 52.827026 52.149754 0 0 0 1090.4043 427.35742 A 52.827026 52.149754 0 0 0 1037.5762 375.20703 z M 759.89648 375.88477 A 52.827026 52.149754 0 0 0 707.07031 428.03516 A 52.827026 52.149754 0 0 0 759.89648 480.18359 A 52.827026 52.149754 0 0 0 812.72266 428.03516 A 52.827026 52.149754 0 0 0 759.89648 375.88477 z " />
</svg>
