<?xml version="1.0" encoding="UTF-8" standalone="no"?>
<svg
   id="svg2"
   version="1.1"
   inkscape:version="1.2.1 (9c6d41e410, 2022-07-14)"
   width="1800"
   height="1800"
   sodipodi:docname="US9No9VARC.svg"
   viewBox="0 0 1687.5 1687.5"
   xmlns:inkscape="http://www.inkscape.org/namespaces/inkscape"
   xmlns:sodipodi="http://sodipodi.sourceforge.net/DTD/sodipodi-0.dtd"
   xmlns="http://www.w3.org/2000/svg"
   xmlns:svg="http://www.w3.org/2000/svg"
   xmlns:rdf="http://www.w3.org/1999/02/22-rdf-syntax-ns#"
   xmlns:cc="http://creativecommons.org/ns#"
   xmlns:dc="http://purl.org/dc/elements/1.1/">
  <metadata
     id="metadata18">
    <rdf:RDF>
      <cc:Work
         rdf:about="">
        <dc:format>image/svg+xml</dc:format>
        <dc:type
           rdf:resource="http://purl.org/dc/dcmitype/StillImage" />
      </cc:Work>
    </rdf:RDF>
  </metadata>
  <defs
     id="defs16" />
  <sodipodi:namedview
     pagecolor="#ffffff"
     bordercolor="#666666"
     borderopacity="1"
     objecttolerance="10"
     gridtolerance="10"
     guidetolerance="10"
     inkscape:pageopacity="0"
     inkscape:pageshadow="2"
     inkscape:window-width="1920"
     inkscape:window-height="1017"
     id="namedview14"
     showgrid="false"
     inkscape:zoom="0.27480694"
     inkscape:cx="334.78048"
     inkscape:cy="644.08854"
     inkscape:window-x="-8"
     inkscape:window-y="-8"
     inkscape:window-maximized="1"
     inkscape:current-layer="svg2"
     inkscape:showpageshadow="2"
     inkscape:pagecheckerboard="0"
     inkscape:deskcolor="#d1d1d1" />
  <g
     id="g315"
     transform="matrix(0.98263345,0,0,0.98263345,19.215103,29.328841)">
    <path
       style="fill:#000000;stroke:none"
       d="m -13.10929,491.43623 c 0,181.4375 0,362.875 0,544.31247 36.03125,0 72.0625,0 108.09375,0 0,-182.10414 0,-364.2083 0,-546.31247 -36.03125,0 -72.0625,0 -108.09375,0 v 1 z"
       id="path4"
       inkscape:connector-curvature="0" />
    <path
       style="fill:#000000;stroke:none"
       d="m 284.14071,491.43623 c 0,181.4375 0,362.875 0,544.31247 36.02083,0 72.04167,0 108.0625,0 0,-182.10414 0,-364.2083 0,-546.31247 -36.02083,0 -72.04167,0 -108.0625,0 v 1 z"
       id="path6"
       inkscape:connector-curvature="0" />
    <path
       style="fill:#000000;stroke:none"
       d="m 581.35946,491.43623 c 0,181.4375 0,362.875 0,544.31247 36.03125,0 72.0625,0 108.09375,0 0,-182.10414 0,-364.2083 0,-546.31247 -36.03125,0 -72.0625,0 -108.09375,0 v 1 z"
       id="path8"
       inkscape:connector-curvature="0" />
    <path
       style="fill:#000000;stroke:none"
       d="m 481.89071,1144.4987 c 0,181.4375 0,362.8751 0,544.3126 36.03125,0 72.0625,-10e-5 108.09375,0 0,-182.1042 0,-364.2084 0,-546.3126 -36.03125,0 -72.0625,0 -108.09375,0 v 1 z"
       id="path4-1"
       inkscape:connector-curvature="0" />
    <path
       style="fill:#000000;stroke:none"
       d="m 779.14071,1144.4987 c 0,181.4375 0,362.8751 0,544.3126 36.02083,0 72.04167,-10e-5 108.0625,0 0,-182.1042 0,-364.2084 0,-546.3126 -36.02083,0 -72.04167,0 -108.0625,0 v 1 z"
       id="path6-8"
       inkscape:connector-curvature="0" />
    <path
       style="fill:#000000;stroke:none"
       d="m 1076.3595,1144.4987 c 0,181.4375 0,362.8751 0,544.3126 36.0312,0 72.0625,-10e-5 108.0937,0 0,-182.1042 0,-364.2084 0,-546.3126 -36.0312,0 -72.0625,0 -108.0937,0 v 1 z"
       id="path8-7"
       inkscape:connector-curvature="0" />
    <path
       style="fill:#000000;stroke:none"
       d="m 993.2,496.46229 c 0,181.4375 0,362.875 0,544.31251 36.0313,0 72.0626,0 108.0938,0 0,-182.10421 0,-364.20831 0,-546.31251 -36.0312,0 -72.0625,0 -108.0938,0 v 1 z"
       id="path4-1-6"
       inkscape:connector-curvature="0" />
    <path
       style="fill:#000000;stroke:none"
       d="m 1290.4501,496.46229 c 0,181.4375 0,362.875 0,544.31251 36.0208,0 72.0416,0 108.0625,0 0,-182.10421 0,-364.20831 0,-546.31251 -36.0209,0 -72.0417,0 -108.0625,0 v 1 z"
       id="path6-8-1"
       inkscape:connector-curvature="0" />
    <path
       style="fill:#000000;stroke:none"
       d="m 1587.6688,496.46229 c 0,181.4375 0,362.875 0,544.31251 36.0313,0 72.0625,0 108.0938,0 0,-182.10421 0,-364.20831 0,-546.31251 -36.0313,0 -72.0625,0 -108.0938,0 v 1 z"
       id="path8-7-2"
       inkscape:connector-curvature="0" />
  </g>
</svg>
