<?xml version="1.0" encoding="UTF-8" standalone="no"?>
<svg
   width="1800"
   height="1237.7617"
   id="svg2774"
   version="1.1"
   xmlns="http://www.w3.org/2000/svg"
   xmlns:svg="http://www.w3.org/2000/svg"
   xmlns:rdf="http://www.w3.org/1999/02/22-rdf-syntax-ns#"
   xmlns:cc="http://creativecommons.org/ns#"
   xmlns:dc="http://purl.org/dc/elements/1.1/">
  <metadata
     id="metadata2781">
    <rdf:RDF>
      <cc:Work
         rdf:about="">
        <dc:format>image/svg+xml</dc:format>
        <dc:type
           rdf:resource="http://purl.org/dc/dcmitype/StillImage" />
        <cc:license
           rdf:resource="http://creativecommons.org/licenses/by-nc-nd/2.5/" />
        <dc:description>variant ede N40 combinaisonde N37A et de D54</dc:description>
        <dc:date>30/09/06</dc:date>
        <dc:creator>
          <cc:Agent>
            <dc:title>ST</dc:title>
          </cc:Agent>
        </dc:creator>
        <dc:publisher>
          <cc:Agent>
            <dc:title>Serge Rosmorduc</dc:title>
          </cc:Agent>
        </dc:publisher>
      </cc:Work>
      <cc:License
         rdf:about="http://creativecommons.org/licenses/by-nc-nd/2.5/">
        <cc:permits
           rdf:resource="http://web.resource.org/cc/Reproduction" />
        <cc:permits
           rdf:resource="http://web.resource.org/cc/Distribution" />
        <cc:requires
           rdf:resource="http://web.resource.org/cc/Notice" />
        <cc:requires
           rdf:resource="http://web.resource.org/cc/Attribution" />
        <cc:prohibits
           rdf:resource="http://web.resource.org/cc/CommercialUse" />
      </cc:License>
    </rdf:RDF>
  </metadata>
  <defs
     id="defs2779" />
  <path
     id="path2776"
     style="fill:#000000;stroke:none;stroke-width:101.124"
     d="M 0,0 V 478.32227 H 876.92188 C 703.49567,685.31491 558.04103,876.92285 440.55859,1053.1465 c -55.94395,43.3564 -104.19451,70.6295 -144.7539,81.8183 -16.78319,8.3916 -72.0282,16.7841 -165.73438,25.1758 C 48.951542,1165.7349 8.3925781,1179.0208 8.3925781,1200 v 2.0977 l 2.0976559,2.0976 c 0,15.3844 88.811417,25.1751 266.433596,29.3711 20.97897,-6.9931 47.551,-10.4902 79.71875,-10.4902 h 20.98047 c 18.8811,3.4965 34.7895,6.1189 47.72656,7.8672 12.93706,1.7482 22.90152,2.623 29.89453,2.623 h 2.09766 c 7.34266,0 14.20481,-0.5253 20.58593,-1.5742 19.14337,-3.1469 33.95976,-11.0142 44.44922,-23.6016 13.98603,0 24.47575,-32.8673 31.46875,-98.6015 0,-16.7831 54.19652,-86.3627 162.58789,-208.74027 108.39145,-122.37747 170.27943,-212.93661 185.66407,-271.67774 0,-23.77618 19.57939,-35.66406 58.74023,-35.66406 43.35661,1.39861 88.81281,31.46779 136.36521,90.20899 107.6922,128.67102 202.7971,262.93677 285.3145,402.79688 0,5.5944 -10.4897,9.7908 -31.4688,12.5879 -50.3495,32.168 -90.9085,51.0484 -121.6777,56.6426 -109.0908,18.1817 -163.6367,37.7632 -163.6367,58.7421 v 4.1954 c 0,9.7903 62.2374,16.0837 186.7129,18.8808 l 138.4609,-12.5879 142.6582,12.5879 c 32.1677,-4.1959 48.252,-17.4819 48.252,-39.8594 0,-25.1748 -11.189,-52.4477 -33.5664,-81.8183 -44.7552,-55.9441 -89.5104,-129.37024 -134.2657,-220.27931 -100.699,-208.39118 -222.378,-347.55244 -365.0351,-417.48242 H 1800 V 0 Z M 65.035156,62.9375 H 460.44727 L 708,413.28711 H 65.035156 Z m 481.425784,0 H 707.10547 L 954.6582,413.28711 H 791.91602 Z m 246.6582,0 H 954.6582 l 247.5527,350.34961 H 1039.4688 L 933.90234,263.88281 Z m 245.45506,0 h 696.3906 V 413.28711 H 1286.127 Z" />
</svg>
