<?xml version="1.0" encoding="UTF-8" standalone="no"?>
<svg
   width="1800"
   height="1800"
   version="1.1"
   id="svg4"
   sodipodi:docname="US9No400000VARB.svg"
   inkscape:version="1.2.1 (9c6d41e410, 2022-07-14)"
   xmlns:inkscape="http://www.inkscape.org/namespaces/inkscape"
   xmlns:sodipodi="http://sodipodi.sourceforge.net/DTD/sodipodi-0.dtd"
   xmlns="http://www.w3.org/2000/svg"
   xmlns:svg="http://www.w3.org/2000/svg">
  <defs
     id="defs8" />
  <sodipodi:namedview
     id="namedview6"
     pagecolor="#ffffff"
     bordercolor="#666666"
     borderopacity="1.0"
     inkscape:showpageshadow="2"
     inkscape:pageopacity="0.0"
     inkscape:pagecheckerboard="0"
     inkscape:deskcolor="#d1d1d1"
     showgrid="false"
     inkscape:zoom="0.20511846"
     inkscape:cx="706.90858"
     inkscape:cy="882.41692"
     inkscape:window-width="1280"
     inkscape:window-height="961"
     inkscape:window-x="1912"
     inkscape:window-y="57"
     inkscape:window-maximized="1"
     inkscape:current-layer="svg4" />
  <g
     id="g322">
    <path
       style="fill:#000000;stroke:none;stroke-width:59.3927"
       d="m 845.19807,1030.787 q 0,15.3672 -4.13732,30.7345 -4.13727,15.3671 -32.50767,-7.0926 -17.73145,-34.2808 -29.55242,-94.56774 Q 710.43913,719.89593 697.43613,674.97634 673.79419,640.69551 594.59384,640.69551 H 455.10663 q -92.20342,0 -105.20645,-21.27765 Q 301.43425,544.94589 251.78628,472.83803 200.95617,386.54512 187.95315,302.61634 180.86052,255.33256 141.8514,223.416 9.4567442,164.31122 0,107.57064 10.638837,69.743607 57.331599,44.919593 104.02437,20.095641 132.98573,10.04782 161.94704,0 184.40686,0 q 54.37634,0 102.25119,41.964391 47.87486,41.964392 124.71108,106.979569 120.57373,59.10477 172.58588,107.5707 52.01216,48.46587 115.25428,118.80055 63.24206,70.33468 106.97962,270.10876 33.09862,150.12606 39.00916,385.36303 z M 807.37099,910.21323 781.36489,700.98239 Q 767.17975,640.69551 751.81252,581.59083 702.16447,365.26739 423.19007,198.59199 374.72413,187.95315 297.88797,114.6632 226.96227,46.101687 176.13215,40.191222 119.39163,54.376397 88.657159,80.382444 q 4.728364,15.367267 21.277671,15.95828 16.54937,0.591107 41.37338,7.683646 20.09557,14.18516 -3.54628,27.18819 -35.46292,-2.36418 -85.110881,-8.27465 0,11.82093 92.203431,59.10477 37.82703,30.73442 62.65099,81.56454 14.18518,29.55238 33.09872,92.79444 18.91349,63.24213 36.64494,93.97654 17.7314,30.73448 40.19122,66.1974 22.45983,35.46284 52.01222,47.28377 34.28076,-1.18209 41.37331,-18.91348 -1.18209,-10.6389 -6.50153,-48.46594 -5.31946,-37.82703 11.22991,-89.83925 16.5493,-52.01214 37.82703,-52.01214 -22.45983,66.19732 7.09256,169.03959 37.82709,30.73448 37.82709,35.46285 0,14.18512 -34.87183,26.59713 -34.87183,12.41203 -32.50765,13.59411 7.09263,5.91013 53.19425,4.13727 46.10174,-1.77346 88.65721,-4.13727 42.55543,-2.36447 53.19425,-17.73141 -1.1819,-3.54634 -21.27771,-28.37029 -20.09562,-24.82402 -13.59412,-38.41812 6.50161,-13.59403 15.9583,-13.59403 20.09562,0 43.73756,29.55232 53.1943,66.1973 92.20341,197.40987 z"
       id="path2" />
    <path
       style="fill:#000000;stroke:none;stroke-width:59.3927"
       d="m 849.9754,1766.0051 q 0,15.3672 -4.13733,30.7345 -4.13727,15.3671 -32.50767,-7.0927 -17.73145,-34.2807 -29.55242,-94.5677 -68.56153,-239.9652 -81.56452,-284.8848 -23.64194,-34.2808 -102.84229,-34.2808 H 459.88392 q -92.20341,0 -105.20641,-21.2777 -48.46596,-74.472 -98.11395,-146.5798 -50.83007,-86.2929 -63.83313,-170.2217 Q 185.6378,990.55059 146.6287,958.634 14.23404,899.52927 4.7772998,842.78865 15.416125,804.96163 62.108873,780.13761 q 46.692807,-24.82397 75.654157,-34.87178 28.96129,-10.04781 51.42115,-10.04781 54.37633,0 102.25116,41.9644 47.87489,41.96441 124.71107,106.97956 120.57375,59.10479 172.58591,107.5707 52.01218,48.46592 115.25429,118.80062 63.24206,70.3346 106.97962,270.1088 33.09862,150.126 39.00917,385.363 z M 812.14832,1645.4313 786.14221,1436.2005 Q 771.95707,1375.9136 756.58985,1316.8089 706.9418,1100.4854 427.96738,933.81003 379.50142,923.17115 302.66529,849.88122 231.7396,781.31969 180.90946,775.40927 q -56.7405,14.18514 -87.475006,40.19119 4.728399,15.36728 21.277646,15.95829 16.54937,0.59113 41.3734,7.68365 20.09556,14.18513 -3.54626,27.18819 -35.46291,-2.36417 -85.110895,-8.27466 0,11.82091 92.203405,59.10479 37.82708,30.73439 62.65105,81.56453 14.18514,29.55235 33.09868,92.79445 18.91353,63.2421 36.64493,93.9765 17.73145,30.7345 40.19125,66.1974 22.45985,35.4629 52.01222,47.2838 34.28076,-1.1821 41.37333,-18.9135 -1.18214,-10.6389 -6.50156,-48.4659 -5.31947,-37.8271 11.2299,-89.8393 16.54931,-52.0121 37.82702,-52.0121 -22.45979,66.1973 7.09257,169.0396 37.82708,30.7345 37.82708,35.4629 0,14.185 -34.87178,26.5971 -34.87183,12.412 -32.50766,13.5941 7.09262,5.9101 53.19424,4.1373 46.10173,-1.7735 88.65721,-4.1373 42.55544,-2.3644 53.19427,-17.7314 -1.18191,-3.5464 -21.27771,-28.3703 -20.09562,-24.824 -13.59413,-38.4181 6.50162,-13.5941 15.9583,-13.5941 20.09562,0 43.73756,29.5523 53.19431,66.1974 92.20341,197.41 z"
       id="path2-5" />
    <path
       style="fill:#000000;stroke:none;stroke-width:59.3927"
       d="m 1796.0239,1031.2136 q 0,15.3672 -4.1374,30.7345 -4.1372,15.3671 -32.5076,-7.0926 -17.7315,-34.2808 -29.5525,-94.56766 -68.5615,-239.9653 -81.5645,-284.8849 -23.6419,-34.2808 -102.8423,-34.2808 h -139.4872 q -92.2034,0 -105.2064,-21.2776 -48.466,-74.472 -98.114,-146.5799 -50.8301,-86.2929 -63.8331,-170.2217 -7.0926,-47.2837 -46.1017,-79.2003 -132.3947,-59.1048 -141.85144,-115.8454 10.63884,-37.827005 57.33164,-62.651005 46.6927,-24.824 75.6541,-34.8718 28.9613,-10.04779955 51.4211,-10.04779955 54.3764,0 102.2512,41.96439955 47.8749,41.9644 124.7111,106.979605 120.5737,59.1047 172.5859,107.5707 52.0122,48.4658 115.2543,118.8005 63.242,70.3347 106.9796,270.1088 33.0986,150.126 39.0092,385.36296 z m -37.8271,-120.57376 -26.0061,-209.2308 q -14.1852,-60.2869 -29.5524,-119.3916 -49.648,-216.3234 -328.6224,-382.9988 -48.466,-10.6388 -125.3022,-83.9288 -70.9257,-68.561505 -121.7558,-74.472005 -56.7405,14.1852 -87.475,40.1912 4.7284,15.3673 21.2777,15.9583 16.5494,0.5911 41.3734,7.683705 20.0955,14.1851 -3.5463,27.1882 -35.4629,-2.3642 -85.1109,-8.2747 0,11.8209 92.2034,59.1048 37.8271,30.7344 62.651,81.5645 14.1852,29.5524 33.0988,92.7945 18.9134,63.2421 36.6449,93.9765 17.7314,30.7345 40.1912,66.1974 22.4599,35.4628 52.0123,47.2838 34.2807,-1.1821 41.3733,-18.9135 -1.1821,-10.6389 -6.5016,-48.4659 -5.3194,-37.8271 11.2299,-89.8393 16.5493,-52.0121 37.8271,-52.0121 -22.4599,66.1973 7.0925,169.0396 37.8271,30.7344 37.8271,35.4628 0,14.1851 -34.8718,26.5971 -34.8718,12.4121 -32.5077,13.5941 7.0927,5.9102 53.1943,4.1373 46.1017,-1.7735 88.6572,-4.1373 42.5554,-2.3644 53.1943,-17.7314 -1.1819,-3.5463 -21.2778,-28.3703 -20.0956,-24.824 -13.5941,-38.4181 6.5016,-13.594 15.9583,-13.594 20.0956,0 43.7376,29.5523 53.1943,66.1973 92.2034,197.4099 z"
       id="path2-2" />
    <path
       style="fill:#000000;stroke:none;stroke-width:59.3927"
       d="m 1800.8012,1766.4317 q 0,15.3672 -4.1373,30.7345 -4.1373,15.3671 -32.5077,-7.0927 -17.7315,-34.2807 -29.5524,-94.5677 -68.5616,-239.9652 -81.5646,-284.8848 -23.6419,-34.2808 -102.8422,-34.2808 h -139.4873 q -92.2034,0 -105.2064,-21.2777 -48.466,-74.472 -98.114,-146.5798 -50.83,-86.2929 -63.8331,-170.2217 -7.0926,-47.28376 -46.1017,-79.20036 -132.3947,-59.1047 -141.85144,-115.8453 10.63882,-37.8271 57.33154,-62.6511 46.6928,-24.824 75.6542,-34.8718 28.9613,-10.0478 51.4211,-10.0478 54.3764,0 102.2512,41.9644 47.8749,41.9644 124.7111,106.9796 120.5737,59.1048 172.5859,107.5707 52.0122,48.46586 115.2543,118.80056 63.2421,70.3346 106.9796,270.1088 33.0986,150.126 39.0092,385.363 z m -37.8271,-120.5738 -26.0061,-209.2308 q -14.1851,-60.2869 -29.5524,-119.3916 -49.648,-216.3235 -328.6224,-382.99886 -48.466,-10.6388 -125.3021,-83.9288 -70.9257,-68.5615 -121.7559,-74.4719 -56.7405,14.1851 -87.475,40.1912 4.7284,15.3672 21.2777,15.9583 16.5493,0.5911 41.3734,7.6836 20.0955,14.1851 -3.5463,27.1882 -35.4629,-2.3642 -85.1109,-8.2747 0,11.8209 92.2034,59.1048 37.8271,30.7344 62.6511,81.5646 14.1851,29.55226 33.0986,92.79436 18.9136,63.2421 36.645,93.9765 17.7314,30.7345 40.1912,66.1974 22.4599,35.4629 52.0123,47.2838 34.2807,-1.1821 41.3733,-18.9135 -1.1821,-10.6389 -6.5016,-48.4659 -5.3194,-37.8271 11.2299,-89.8393 16.5493,-52.0121 37.8271,-52.0121 -22.4598,66.1973 7.0925,169.0396 37.8271,30.7345 37.8271,35.4629 0,14.185 -34.8718,26.5971 -34.8718,12.412 -32.5076,13.5941 7.0926,5.9101 53.1942,4.1373 46.1017,-1.7735 88.6572,-4.1373 42.5555,-2.3644 53.1943,-17.7314 -1.1819,-3.5464 -21.2777,-28.3703 -20.0956,-24.824 -13.5942,-38.4181 6.5017,-13.5941 15.9583,-13.5941 20.0957,0 43.7376,29.5523 53.1943,66.1974 92.2034,197.41 z"
       id="path2-5-4" />
  </g>
</svg>
