<?xml version="1.0" encoding="UTF-8" standalone="no"?>
<svg
   width="1499.4758"
   height="1800"
   id="svg2466"
   version="1.1"
   xmlns="http://www.w3.org/2000/svg"
   xmlns:svg="http://www.w3.org/2000/svg"
   xmlns:rdf="http://www.w3.org/1999/02/22-rdf-syntax-ns#"
   xmlns:cc="http://creativecommons.org/ns#"
   xmlns:dc="http://purl.org/dc/elements/1.1/">
  <metadata
     id="metadata2473">
    <rdf:RDF>
      <cc:Work
         rdf:about="">
        <dc:format>image/svg+xml</dc:format>
        <dc:type
           rdf:resource="http://purl.org/dc/dcmitype/StillImage" />
      </cc:Work>
    </rdf:RDF>
  </metadata>
  <defs
     id="defs2471" />
  <path
     id="path2468"
     style="fill:#000000;stroke:none;stroke-width:100.173"
     d="m 751.30273,0 c -59.60099,0 -97.40946,100.10552 -115.82617,294.25977 0,0 -0.24814,47.65398 0.92135,66.65962 1.80474,29.32902 14.731,74.20952 14.731,74.20952 0,0 -38.53277,-36.85364 -58.37279,-53.40138 -19.11495,-15.94299 -57.45339,-43.64159 -57.45339,-43.64159 -18.2685,-10.75743 -36.00714,-15.65235 -50.08593,-15.65235 -35.38339,0 -52.17606,28.32427 -53.2168,84.52149 v 190.95703 h 241.04297 l -72,231.65234 c -1.37302,4.22077 -3.71289,13.19141 -3.71289,13.19141 l 43.66406,0.51562 66.48242,-207.79492 v 356.86914 178.4355 97.043 c -28.17873,11.1249 -46.70026,35.4352 -53.21679,72 -9.36635,52.5552 -20.38635,113.3991 -34.43555,181.5645 -14.04935,68.165 -82.75671,103.3047 -203.47656,103.3047 C 295.62775,1624.6931 230.04934,1589.5537 216,1521.3887 201.95071,1453.2233 187.79982,1393.9485 178.43359,1342.9551 169.06744,1291.9609 110.31299,1264.6934 0,1264.6934 v 535.3046 h 1499.4766 v -535.3046 c -110.313,0 -169.5897,27.2675 -178.4356,78.2617 -8.8464,50.9934 -19.8638,110.7884 -34.4336,178.4336 -14.5698,67.6447 -82.7585,100.1738 -203.4785,100.1738 -119.67909,1.041 -185.77796,-32.0088 -200.34765,-100.1738 -14.56967,-68.1654 -28.19825,-129.0094 -37.56445,-181.5645 -6.20736,-34.8295 -23.76863,-57.1222 -50.08789,-68.8691 V 1148.8672 976.69336 635.47656 l 63.14648,207.48047 c 11.27252,0.34704 43.2832,-0.61914 43.2832,-0.61914 0,0 -1.04313,-6.37363 -3.125,-12.77344 L 829.56445,597.91211 H 1070.6074 V 406.95508 c -1.0407,-56.19719 -17.8356,-84.52149 -53.2187,-84.52149 -15.09,0 -33.31367,6.425 -53.21682,18.78321 0,0 -36.50701,26.44943 -55.24173,41.98387 -19.34522,16.04064 -57.45359,51.92824 -57.45359,51.92824 0,0 14.12661,-46.50695 16.75807,-70.52667 2.66739,-24.34756 -1.10572,-73.47138 -1.10572,-73.47138 C 847.61081,99.251301 810.55358,0 751.30273,0 Z m 0,68.869141 c 36.42406,0 57.40586,99.668709 62.60938,300.521479 0,43.70898 -20.98189,73.07393 -62.60938,84.52149 C 710.71587,442.46454 688.6953,413.0996 688.69531,369.39062 692.85802,168.53784 714.8786,68.869141 751.30273,68.869141 Z M 494.60742,369.39062 c 15.09001,-0.52031 47.60338,22.55848 93.91406,68.86915 46.31067,46.31065 100.33998,68.86913 162.78125,68.86914 61.40063,0 115.95219,-22.5585 162.78321,-68.86914 46.83096,-46.31066 75.69127,-69.38945 90.78126,-68.86915 15.0901,0.51989 25.0449,13.62856 25.0449,37.56446 V 557.2168 H 472.69531 V 406.95508 c 0,-23.93588 6.82217,-37.04415 21.91211,-37.56446 z m 247.30469,228.52149 h 18.7832 l -0.002,663.65239 c -4.25107,-0.3607 -7.95683,0 -12.52148,0 -2.43965,0 -3.9111,-0.1103 -6.25977,0 z M 346.22656,882.85938 c -81.45066,0 -169.12753,37.65091 -220.49023,89.01367 C 73.054423,1024.5547 67.052734,1093.91 67.052734,1145.8086 v 20.1738 H 625.25977 v -20.1738 c 0,-51.8987 -3.88694,-121.2539 -56.56836,-173.93555 -51.36275,-51.36276 -141.01399,-89.01368 -222.46485,-89.01367 z m 852.00004,0 c -81.4509,0 -169.1277,37.65091 -220.49027,89.01367 -52.68191,52.68165 -58.6836,122.03695 -58.6836,173.93555 v 20.1738 h 558.20707 v -20.1738 c 0,-51.8987 -3.8868,-121.2539 -56.5684,-173.93555 -51.3626,-51.36276 -141.014,-89.01368 -222.4648,-89.01367 z m -852.00004,38.36914 c 68.65819,0 154.63953,35.29775 196.22461,76.88281 36.38261,36.38267 41.12939,84.67897 42.46289,129.49997 H 109.51367 c 1.33393,-44.8209 6.08034,-93.1173 42.46289,-129.49997 41.58508,-41.58506 125.59171,-76.88281 194.25,-76.88281 z m 852.00004,0 c 68.6581,0 154.6394,35.29775 196.2246,76.88281 36.3824,36.38267 41.1294,84.67897 42.4629,129.49997 H 961.51367 c 1.33393,-44.8209 6.08024,-93.1173 42.46293,-129.49997 41.5849,-41.58506 125.5915,-76.88281 194.25,-76.88281 z M 745.04297,1324.1719 h 12.52148 c 15.02496,7.5121 25.84106,24.988 31.30469,53.2168 6.24407,32.2611 16.21273,89.4473 31.30274,175.3047 15.08995,85.8567 102.69105,130.4378 262.95702,131.4785 161.3065,0 248.3853,-44.5812 262.9551,-131.4785 14.5698,-86.8981 28.7205,-144.6048 37.5664,-175.3047 8.8463,-30.7005 26.1682,-46.9551 56.3476,-46.9551 v 410.0859 H 59.478516 v -410.0859 c 29.139236,0 50.632654,16.2546 59.478514,46.9551 8.84588,30.6999 19.86401,88.4066 34.43359,175.3047 14.56966,86.8973 101.65028,131.4785 262.95704,131.4785 160.26601,-1.0407 247.86512,-45.6218 262.95507,-131.4785 15.09002,-85.8574 27.67117,-143.0437 34.43555,-175.3047 5.91905,-28.2288 16.22279,-45.7042 31.30469,-53.2168 z" />
</svg>
