<?xml version="1.0" encoding="UTF-8" standalone="no"?>
<svg
   width="1800"
   height="1800"
   version="1.1"
   id="svg4"
   sodipodi:docname="US9No700000VARB.svg"
   inkscape:version="1.2.1 (9c6d41e410, 2022-07-14)"
   xmlns:inkscape="http://www.inkscape.org/namespaces/inkscape"
   xmlns:sodipodi="http://sodipodi.sourceforge.net/DTD/sodipodi-0.dtd"
   xmlns="http://www.w3.org/2000/svg"
   xmlns:svg="http://www.w3.org/2000/svg">
  <defs
     id="defs8" />
  <sodipodi:namedview
     id="namedview6"
     pagecolor="#ffffff"
     bordercolor="#666666"
     borderopacity="1.0"
     inkscape:showpageshadow="2"
     inkscape:pageopacity="0.0"
     inkscape:pagecheckerboard="0"
     inkscape:deskcolor="#d1d1d1"
     showgrid="false"
     inkscape:zoom="0.41023692"
     inkscape:cx="650.84342"
     inkscape:cy="777.59944"
     inkscape:window-width="1920"
     inkscape:window-height="1017"
     inkscape:window-x="-8"
     inkscape:window-y="-8"
     inkscape:window-maximized="1"
     inkscape:current-layer="svg4" />
  <g
     id="g500">
    <path
       style="fill:#000000;stroke:none;stroke-width:37.0693"
       d="m 527.52131,653.62778 q 0,9.59127 -2.58227,19.18262 -2.58222,9.5912 -20.28932,-4.42677 -11.06688,-21.396 -18.44481,-59.02344 -42.79195,-149.77173 -50.90764,-177.80781 -14.75585,-21.39601 -64.18791,-21.39601 h -87.05944 q -57.54778,0 -65.66348,-13.28022 Q 188.13696,350.39527 157.14971,305.38992 125.42463,251.53113 117.30894,199.14788 112.88216,169.63622 88.535029,149.71584 5.9023254,112.82623 0,77.4122 6.640116,53.802862 35.782902,38.309222 64.925694,22.815618 83.001617,16.544379 q 18.075893,-6.27124 32.093953,-6.27124 33.93841,0 63.81897,26.191624 29.88059,26.191625 77.83709,66.770147 75.2548,36.88961 107.71763,67.1391 32.46283,30.24945 71.93471,74.14809 39.47187,43.89863 66.77019,168.58549 20.65815,93.69957 24.34715,240.52019 z M 503.91194,578.37296 487.68051,447.78377 q -8.8535,-37.6274 -18.4448,-74.51695 Q 438.24842,238.25086 264.12954,134.2222 233.88005,127.58208 185.92358,81.838945 141.65607,39.047012 109.93099,35.358059 q -35.413985,8.853524 -54.596575,25.08492 2.951157,9.591314 13.280229,9.960189 10.329113,0.368933 25.822752,4.795665 12.542434,8.853516 -2.213373,16.969218 -22.133801,-1.475578 -53.121044,-5.164534 0,7.377906 57.547783,36.889603 23.609338,19.18256 39.102948,50.90763 8.85352,18.44481 20.6582,57.91665 11.80466,39.4719 22.87155,58.65447 11.06686,19.18259 25.08492,41.3164 14.01806,22.13374 32.46286,29.51165 21.39597,-0.7378 25.82272,-11.80465 -0.7378,-6.64016 -4.05786,-30.2495 -3.32009,-23.60933 7.00902,-56.07221 10.32907,-32.46281 23.60933,-32.46281 -14.01805,41.31635 4.42676,105.50425 23.60937,19.18259 23.60937,22.13375 0,8.8535 -21.76487,16.60032 -21.76489,7.74684 -20.28931,8.48462 4.42678,3.68874 33.20061,2.58223 28.77391,-1.10689 55.33445,-2.58223 26.56053,-1.47577 33.20063,-11.06687 -0.73768,-2.21342 -13.28026,-17.70701 -12.54247,-15.49366 -8.48463,-23.97827 4.05792,-8.48456 9.9602,-8.48456 12.54247,0 27.29833,18.44477 33.20066,41.31633 57.54778,123.21125 z"
       id="path2" />
    <path
       style="fill:#000000;stroke:none;stroke-width:37.0693"
       d="m 958.48116,644.09117 q 0,9.59127 -2.58227,19.18262 -2.58222,9.5912 -20.28932,-4.42677 -11.06688,-21.396 -18.44481,-59.02344 -42.79195,-149.77173 -50.90764,-177.80781 -14.75585,-21.39601 -64.18791,-21.39601 h -87.05944 q -57.54778,0 -65.66348,-13.28022 -30.24948,-46.48088 -61.23673,-91.48623 -31.72508,-53.85879 -39.84077,-106.24204 -4.42678,-29.51166 -28.77391,-49.43204 -82.6327,-36.88961 -88.53503,-72.303644 6.64012,-23.60934 35.7829,-39.10298 29.14279,-15.4936 47.21872,-21.7648402 18.07589,-6.27123998 32.09395,-6.27123998 33.93841,0 63.81897,26.19162018 29.88059,26.19163 77.83709,66.77015 75.2548,36.889614 107.71763,67.139104 32.46283,30.24945 71.93471,74.14809 39.47187,43.89863 66.77019,168.58549 20.65815,93.69957 24.34715,240.52019 z M 934.87179,568.83635 918.64036,438.24716 q -8.8535,-37.6274 -18.4448,-74.51695 -30.98729,-135.01596 -205.10617,-239.04462 -30.24949,-6.64012 -78.20596,-52.383254 -44.26751,-42.79194 -75.99259,-46.48089 -35.41399,8.85352 -54.59658,25.08492 2.95116,9.59131 13.28023,9.96019 10.32912,0.36893 25.82276,4.79566 12.54243,8.85352 -2.21338,16.96922 -22.1338,-1.47558 -53.12104,-5.16453 0,7.3779 57.54778,36.889604 23.60934,19.18256 39.10295,50.90763 8.85352,18.44481 20.6582,57.91665 11.80466,39.4719 22.87155,58.65447 11.06686,19.18259 25.08492,41.3164 14.01806,22.13374 32.46286,29.51165 21.39597,-0.7378 25.82272,-11.80465 -0.7378,-6.64016 -4.05786,-30.2495 -3.32009,-23.60933 7.00902,-56.07221 10.32907,-32.46281 23.60933,-32.46281 -14.01805,41.31635 4.42676,105.50425 23.60937,19.18259 23.60937,22.13375 0,8.8535 -21.76487,16.60032 -21.76489,7.74684 -20.28931,8.48462 4.42678,3.68874 33.20061,2.58223 28.77391,-1.10689 55.33445,-2.58223 26.56053,-1.47577 33.20063,-11.06687 -0.73768,-2.21342 -13.28026,-17.70701 -12.54247,-15.49366 -8.48463,-23.97827 4.05792,-8.48456 9.9602,-8.48456 12.54247,0 27.29833,18.44477 33.20066,41.31633 57.54778,123.21125 z"
       id="path2-5" />
    <path
       style="fill:#000000;stroke:none;stroke-width:37.0693"
       d="m 1387.5015,646.52879 q 0,9.59127 -2.5823,19.18262 -2.5822,9.5912 -20.2893,-4.42677 -11.0669,-21.396 -18.4448,-59.02344 -42.7919,-149.77173 -50.9076,-177.80781 -14.7559,-21.39601 -64.1879,-21.39601 h -87.0595 q -57.5478,0 -65.6635,-13.28022 -30.2494,-46.48088 -61.2367,-91.48623 -31.72506,-53.85879 -39.84076,-106.24204 -4.4267,-29.51166 -28.7739,-49.43204 -82.6327,-36.88961 -88.535,-72.303644 6.6401,-23.60934 35.7829,-39.10298 29.1428,-15.4936 47.2187,-21.7648396 18.0759,-6.27124 32.094,-6.27124 33.93836,0 63.81886,26.1916196 29.8806,26.19163 77.8371,66.77015 75.2548,36.889614 107.7177,67.139104 32.4628,30.24945 71.9347,74.14809 39.4718,43.89863 66.7702,168.58549 20.6581,93.69957 24.3471,240.52019 z m -23.6094,-75.25482 -16.2314,-130.58919 q -8.8535,-37.6274 -18.4448,-74.51695 -30.9873,-135.01596 -205.1062,-239.04462 -30.2494,-6.64012 -78.2059,-52.383264 -44.2675,-42.79193 -75.99256,-46.48088 -35.414,8.85352 -54.5966,25.08492 2.9512,9.59131 13.2802,9.96019 10.3292,0.36893 25.8228,4.79566 12.5424,8.85352 -2.2134,16.96922 -22.1338,-1.47558 -53.121,-5.16453 0,7.3779 57.5478,36.889604 23.6093,19.18256 39.1029,50.90763 8.85346,18.44481 20.65816,57.91665 11.8047,39.4719 22.8716,58.65447 11.0668,19.18259 25.0849,41.3164 14.018,22.13374 32.4628,29.51165 21.396,-0.7378 25.8228,-11.80465 -0.7378,-6.64016 -4.0579,-30.2495 -3.3201,-23.60933 7.009,-56.07221 10.3291,-32.46281 23.6094,-32.46281 -14.0181,41.31635 4.4267,105.50425 23.6094,19.18259 23.6094,22.13375 0,8.8535 -21.7649,16.60032 -21.7649,7.74684 -20.2893,8.48462 4.4268,3.68874 33.2006,2.58223 28.7739,-1.10689 55.3345,-2.58223 26.5605,-1.47577 33.2006,-11.06687 -0.7377,-2.21342 -13.2803,-17.70701 -12.5424,-15.49366 -8.4846,-23.97827 4.0579,-8.48456 9.9602,-8.48456 12.5425,0 27.2983,18.44477 33.2007,41.31633 57.5478,123.21125 z"
       id="path2-1" />
    <path
       style="fill:#000000;stroke:none;stroke-width:37.0693"
       d="m 1799.4587,646.52875 q 0,9.5913 -2.5823,19.1827 -2.5822,9.5912 -20.2893,-4.4268 -11.0669,-21.396 -18.4448,-59.0235 -42.792,-149.77168 -50.9077,-177.80776 -14.7558,-21.39601 -64.1879,-21.39601 h -87.0594 q -57.5478,0 -65.6635,-13.28022 -30.2495,-46.48088 -61.2367,-91.48623 -31.7251,-53.85879 -39.8408,-106.24204 -4.4268,-29.51166 -28.7739,-49.43204 -82.6327,-36.88961 -88.5351,-72.303644 6.6402,-23.60934 35.7829,-39.10298 29.1428,-15.4936 47.2188,-21.7648395 18.0759,-6.27124 32.0939,-6.27124 33.9384,0 63.819,26.1916195 29.8806,26.19163 77.8371,66.77015 75.2548,36.889614 107.7176,67.139104 32.4628,30.24945 71.9347,74.14809 39.4719,43.89863 66.7702,168.58549 20.6582,93.69957 24.3472,240.52015 z m -23.6094,-75.25478 -16.2314,-130.58919 q -8.8535,-37.6274 -18.4448,-74.51695 -30.9873,-135.01596 -205.1062,-239.04462 -30.2495,-6.64012 -78.206,-52.383254 -44.2675,-42.79194 -75.9926,-46.48089 -35.4139,8.85352 -54.5965,25.08492 2.9511,9.59131 13.2802,9.96019 10.3291,0.36893 25.8227,4.79566 12.5425,8.85352 -2.2133,16.96922 -22.1338,-1.47558 -53.1211,-5.16453 0,7.3779 57.5478,36.889604 23.6093,19.18256 39.103,50.90763 8.8535,18.44481 20.6582,57.91665 11.8046,39.4719 22.8715,58.65447 11.0669,19.18259 25.0849,41.3164 14.0181,22.13374 32.4629,29.51165 21.396,-0.7378 25.8227,-11.80465 -0.7378,-6.64016 -4.0579,-30.2495 -3.32,-23.60933 7.0091,-56.07221 10.329,-32.46281 23.6093,-32.46281 -14.0181,41.31635 4.4268,105.50425 23.6093,19.18259 23.6093,22.13375 0,8.8535 -21.7648,16.60032 -21.7649,7.74684 -20.2894,8.48462 4.4268,3.68874 33.2007,2.58223 28.7739,-1.10689 55.3344,-2.58223 26.5605,-1.47577 33.2006,-11.06687 -0.7376,-2.21342 -13.2802,-17.70701 -12.5425,-15.49366 -8.4847,-23.97827 4.058,-8.48456 9.9602,-8.48456 12.5425,0 27.2984,18.44477 33.2006,41.31633 57.5478,123.21125 z"
       id="path2-8" />
    <path
       style="fill:#000000;stroke:none;stroke-width:37.0693"
       d="m 718.53521,1355.875 q 0,9.5913 -2.5823,19.1827 -2.5822,9.5912 -20.2893,-4.4268 -11.0669,-21.396 -18.4448,-59.0235 -42.7919,-149.7717 -50.90764,-177.8078 -14.75585,-21.396 -64.18791,-21.396 h -87.05944 q -57.54778,0 -65.66348,-13.2802 -30.24948,-46.4809 -61.23673,-91.4862 -31.72508,-53.85886 -39.84077,-106.24216 -4.42678,-29.5116 -28.77391,-49.432 -82.6327,-36.8896 -88.53503,-72.3036 6.64012,-23.6094 35.7829,-39.103 29.14279,-15.4936 47.21872,-21.7649 18.07589,-6.2712 32.09395,-6.2712 33.93841,0 63.81897,26.1916 29.88059,26.1916 77.83709,66.7702 75.2548,36.8896 107.71763,67.1391 32.46283,30.2494 71.93471,74.1481 39.47184,43.89862 66.77024,168.58546 20.6581,93.6996 24.3471,240.5202 z m -23.6094,-75.2548 -16.2314,-130.5892 q -8.8535,-37.6274 -18.4448,-74.5169 -30.98729,-135.01606 -205.10617,-239.04466 -30.24949,-6.6402 -78.20596,-52.3833 -44.26751,-42.7919 -75.99259,-46.4809 -35.41398,8.8535 -54.59657,25.0849 2.95115,9.5913 13.28022,9.9602 10.32912,0.369 25.82276,4.7957 12.54243,8.8535 -2.21338,16.9692 -22.1338,-1.4756 -53.12104,-5.1645 0,7.3779 57.54778,36.8896 23.60934,19.1825 39.10295,50.9076 8.85352,18.4448 20.6582,57.9167 11.80466,39.47192 22.87155,58.65442 11.06686,19.18264 25.08492,41.31644 14.01806,22.1338 32.46286,29.5117 21.39597,-0.7378 25.82272,-11.8047 -0.7378,-6.6401 -4.05786,-30.2495 -3.32009,-23.60934 7.00902,-56.07224 10.32907,-32.46282 23.60933,-32.46282 -14.01805,41.31642 4.42676,105.50436 23.60937,19.1825 23.60937,22.1337 0,8.8535 -21.76487,16.6003 -21.76489,7.7469 -20.28931,8.4846 4.42678,3.6888 33.20061,2.5823 28.77391,-1.1069 55.33445,-2.5823 26.56053,-1.4757 33.20063,-11.0668 -0.73768,-2.2134 -13.28026,-17.707 -12.54247,-15.4937 -8.48463,-23.9783 4.05792,-8.4846 9.9602,-8.4846 12.54247,0 27.29833,18.4448 33.20068,41.3163 57.54778,123.2113 z"
       id="path2-0" />
    <path
       style="fill:#000000;stroke:none;stroke-width:37.0693"
       d="m 1176.807,1363.1878 q 0,9.5913 -2.5823,19.1827 -2.5822,9.5912 -20.2893,-4.4268 -11.0669,-21.396 -18.4448,-59.0235 -42.7919,-149.7717 -50.9077,-177.8078 -14.7558,-21.396 -64.1879,-21.396 h -87.05941 q -57.5478,0 -65.6635,-13.2802 -30.24948,-46.4809 -61.23668,-91.4863 -31.7251,-53.85868 -39.8408,-106.24198 -4.4268,-29.5117 -28.7739,-49.432 -82.6327,-36.88964 -88.535,-72.30367 6.6401,-23.60934 35.7829,-39.10298 29.1427,-15.4936 47.2187,-21.76484 18.0759,-6.27124 32.0939,-6.27124 33.9384,0 63.819,26.19162 29.8806,26.19163 77.83708,66.77015 75.25481,36.88956 107.71761,67.13906 32.4628,30.2495 71.9347,74.1481 39.4719,43.8987 66.7703,168.58548 20.6581,93.6996 24.3471,240.5202 z m -23.6094,-75.2548 -16.2314,-130.5892 q -8.8535,-37.6274 -18.4448,-74.517 -30.9873,-135.01588 -205.10621,-239.04455 -30.2495,-6.64012 -78.20598,-52.38326 -44.2675,-42.79193 -75.9926,-46.48088 -35.4139,8.85352 -54.5965,25.08492 2.9511,9.59131 13.2802,9.96019 10.3291,0.36893 25.8228,4.79566 12.5424,8.85352 -2.2134,16.96922 -22.1338,-1.47558 -53.1211,-5.16453 0,7.3779 57.5478,36.8896 23.6094,19.18255 39.103,50.90765 8.8535,18.4448 20.6582,57.9166 11.8046,39.4719 22.8715,58.65448 11.0669,19.1826 25.0849,41.3164 14.01808,22.1337 32.46288,29.5116 21.396,-0.7378 25.8227,-11.8046 -0.7378,-6.6402 -4.0578,-30.2495 -3.3201,-23.6093 7.009,-56.07218 10.329,-32.4628 23.60931,-32.4628 -14.01801,41.3163 4.4268,105.50418 23.6093,19.1826 23.6093,22.1338 0,8.8535 -21.7648,16.6003 -21.76491,7.7468 -20.28931,8.4846 4.4267,3.6888 33.20061,2.5822 28.7739,-1.1068 55.3344,-2.5822 26.5605,-1.4758 33.2006,-11.0669 -0.7376,-2.2134 -13.2802,-17.707 -12.5425,-15.4936 -8.4846,-23.9782 4.0579,-8.4846 9.9602,-8.4846 12.5424,0 27.2983,18.4448 33.2007,41.3163 57.5478,123.2112 z"
       id="path2-50" />
    <path
       style="fill:#000000;stroke:none;stroke-width:37.0693"
       d="m 1644.8292,1355.875 q 0,9.5913 -2.5823,19.1827 -2.5822,9.5912 -20.2893,-4.4268 -11.0669,-21.396 -18.4448,-59.0235 -42.7919,-149.7717 -50.9077,-177.8078 -14.7558,-21.396 -64.1879,-21.396 h -87.0594 q -57.5478,0 -65.6635,-13.2802 -30.2495,-46.4809 -61.2367,-91.4862 -31.7251,-53.85884 -39.8408,-106.24214 -4.4268,-29.5116 -28.7739,-49.432 -82.6327,-36.88963 -88.5351,-72.30366 6.6402,-23.60934 35.7829,-39.10298 29.1428,-15.4936 47.2188,-21.76484 18.0759,-6.27124 32.0939,-6.27124 33.9384,0 63.819,26.19162 29.8806,26.19163 77.8371,66.77015 75.2548,36.88965 107.7176,67.13905 32.4628,30.2495 71.9347,74.1481 39.4719,43.8987 66.7703,168.58554 20.6581,93.6996 24.3471,240.5202 z m -23.6094,-75.2548 -16.2314,-130.5892 q -8.8535,-37.6274 -18.4448,-74.5169 -30.9873,-135.01604 -205.1062,-239.04474 -30.2495,-6.6401 -78.206,-52.38322 -44.2675,-42.79193 -75.9926,-46.48088 -35.4139,8.85352 -54.5965,25.08492 2.9511,9.59131 13.2802,9.96019 10.3291,0.36893 25.8227,4.79566 12.5425,8.85352 -2.2133,16.96922 -22.1338,-1.47558 -53.1211,-5.16453 0,7.3779 57.5478,36.88964 23.6093,19.1825 39.103,50.9076 8.8535,18.4448 20.6582,57.9166 11.8046,39.4719 22.8715,58.6545 11.0669,19.18264 25.0849,41.31644 14.0181,22.1337 32.4629,29.5117 21.396,-0.7378 25.8227,-11.8047 -0.7378,-6.6402 -4.0579,-30.2495 -3.32,-23.60934 7.0091,-56.07224 10.329,-32.4628 23.6093,-32.4628 -14.0181,41.3163 4.4268,105.50424 23.6093,19.1826 23.6093,22.1338 0,8.8535 -21.7648,16.6003 -21.7649,7.7468 -20.2894,8.4846 4.4268,3.6888 33.2007,2.5823 28.7739,-1.1069 55.3344,-2.5823 26.5605,-1.4757 33.2006,-11.0668 -0.7376,-2.2135 -13.2802,-17.7071 -12.5425,-15.4936 -8.4847,-23.9782 4.058,-8.4846 9.9602,-8.4846 12.5425,0 27.2984,18.4448 33.2007,41.3163 57.5478,123.2112 z"
       id="path2-9" />
  </g>
</svg>
