<?xml version="1.0" encoding="UTF-8" standalone="no"?>
<svg
   width="1800"
   height="1800"
   version="1.1"
   id="svg4"
   sodipodi:docname="US9No100000VARA.svg"
   inkscape:version="1.2.1 (9c6d41e410, 2022-07-14)"
   xmlns:inkscape="http://www.inkscape.org/namespaces/inkscape"
   xmlns:sodipodi="http://sodipodi.sourceforge.net/DTD/sodipodi-0.dtd"
   xmlns="http://www.w3.org/2000/svg"
   xmlns:svg="http://www.w3.org/2000/svg">
  <defs
     id="defs8" />
  <sodipodi:namedview
     id="namedview6"
     pagecolor="#ffffff"
     bordercolor="#666666"
     borderopacity="1.0"
     inkscape:showpageshadow="2"
     inkscape:pageopacity="0.0"
     inkscape:pagecheckerboard="0"
     inkscape:deskcolor="#d1d1d1"
     showgrid="false"
     inkscape:zoom="0.2900813"
     inkscape:cx="6.8946188"
     inkscape:cy="989.3778"
     inkscape:window-width="1920"
     inkscape:window-height="1017"
     inkscape:window-x="-8"
     inkscape:window-y="-8"
     inkscape:window-maximized="1"
     inkscape:current-layer="svg4" />
  <path
     style="fill:#000000;stroke:none;stroke-width:100.279"
     d="m 1427.0447,1740.3959 q 0,25.9462 -6.9854,51.8925 -6.9855,25.9462 -54.8864,-11.9753 -29.9381,-57.8802 -49.8968,-159.6694 -115.7602,-405.1609 -137.7148,-481.0037 -39.9173,-57.8803 -173.6404,-57.8803 H 768.40872 q -155.67765,0 -177.63212,-35.9255 Q 508.94602,920.0946 425.11963,798.34667 339.29733,652.64846 317.34284,510.94186 305.36756,431.10725 239.50398,377.21883 15.966905,277.42548 0,181.62385 17.962768,117.75613 96.799512,75.8429 175.63626,33.929773 224.53505,16.964887 273.43375,0 311.35525,0 q 91.8098,0 172.64239,70.853291 80.83262,70.853289 210.56401,180.625869 203.57847,99.79335 291.39655,181.62394 87.8181,81.8305 194.597,200.58461 106.7788,118.75407 180.626,456.05559 55.8841,253.475 65.8635,650.6526 z M 1363.177,1536.8173 1319.2679,1183.549 Q 1295.3175,1081.7597 1269.3713,981.96646 1185.5448,616.72281 714.52029,335.30561 632.68971,317.34284 502.95839,193.59902 383.20642,77.838763 297.38411,67.859447 201.58258,91.809904 149.69003,135.71889 q 7.98346,25.94632 35.92554,26.94421 27.94219,0.99798 69.85541,12.97316 33.92967,23.95045 -5.98759,45.90495 -59.87609,-3.99173 -143.70244,-13.97104 0,19.95863 155.67762,99.79335 63.86772,51.89244 105.78085,137.71474 23.95045,49.89671 55.88436,156.67553 31.9338,106.77891 61.87187,158.67138 29.93795,51.89251 67.85945,111.76861 37.9215,59.87602 87.81816,79.83465 57.88013,-1.99589 69.85533,-31.93383 -1.99589,-17.96287 -10.97732,-81.83058 -8.98143,-63.86772 18.96075,-151.68592 27.9421,-87.81808 63.86771,-87.81808 -37.9215,111.76857 11.97521,285.40896 63.86779,51.89251 63.86779,59.87598 0,23.95037 -58.8781,44.90696 -58.87809,20.95668 -54.8864,22.95248 11.97529,9.9788 89.81397,6.9855 77.83884,-2.9944 149.69011,-6.9855 71.85119,-3.9921 89.81399,-29.93794 -1.9956,-5.9877 -35.9256,-47.90081 -33.9298,-41.91324 -22.9526,-64.86572 10.9774,-22.95236 26.9443,-22.95236 33.9297,0 73.8471,49.89658 89.814,111.76855 155.6776,333.30975 z"
     id="path2" />
</svg>
