<?xml version="1.0" encoding="UTF-8" standalone="no"?>
<svg
   id="svg2"
   version="1.1"
   inkscape:version="1.3 (0e150ed6c4, 2023-07-21)"
   width="1920"
   height="1920"
   sodipodi:docname="US9No9VARB.svg"
   viewBox="0 0 1800 1800"
   xmlns:inkscape="http://www.inkscape.org/namespaces/inkscape"
   xmlns:sodipodi="http://sodipodi.sourceforge.net/DTD/sodipodi-0.dtd"
   xmlns="http://www.w3.org/2000/svg"
   xmlns:svg="http://www.w3.org/2000/svg"
   xmlns:rdf="http://www.w3.org/1999/02/22-rdf-syntax-ns#"
   xmlns:cc="http://creativecommons.org/ns#"
   xmlns:dc="http://purl.org/dc/elements/1.1/">
  <metadata
     id="metadata18">
    <rdf:RDF>
      <cc:Work
         rdf:about="">
        <dc:format>image/svg+xml</dc:format>
        <dc:type
           rdf:resource="http://purl.org/dc/dcmitype/StillImage" />
      </cc:Work>
    </rdf:RDF>
  </metadata>
  <defs
     id="defs16" />
  <sodipodi:namedview
     pagecolor="#ffffff"
     bordercolor="#666666"
     borderopacity="1"
     objecttolerance="10"
     gridtolerance="10"
     guidetolerance="10"
     inkscape:pageopacity="0"
     inkscape:pageshadow="2"
     inkscape:window-width="1920"
     inkscape:window-height="1017"
     id="namedview14"
     showgrid="false"
     inkscape:zoom="0.097158925"
     inkscape:cx="370.52695"
     inkscape:cy="1003.5105"
     inkscape:window-x="-8"
     inkscape:window-y="-8"
     inkscape:window-maximized="1"
     inkscape:current-layer="svg2"
     inkscape:showpageshadow="2"
     inkscape:pagecheckerboard="0"
     inkscape:deskcolor="#d1d1d1" />
  <path
     style="fill:#000000;stroke:none;stroke-width:0.974551"
     d="m 3.1803893,9.7161313 c 0,176.8201587 0,353.6403187 0,530.4604787 35.1143027,0 70.2286057,0 105.3429107,0 0,-177.46986 0,-354.93972 0,-532.4095814 -35.114305,0 -70.228608,0 -105.3429107,0 v 0.974551 z"
     id="path4"
     inkscape:connector-curvature="0" />
  <path
     style="fill:#000000;stroke:none;stroke-width:0.974551"
     d="m 292.86578,9.7161313 c 0,176.8201587 0,353.6403187 0,530.4604787 35.10415,0 70.2083,0 105.31245,0 0,-177.46986 0,-354.93972 0,-532.4095814 -35.10415,0 -70.2083,0 -105.31245,0 v 0.974551 z"
     id="path6"
     inkscape:connector-curvature="0" />
  <path
     style="fill:#000000;stroke:none;stroke-width:0.974551"
     d="m 582.52071,9.7161313 c 0,176.8201587 0,353.6403187 0,530.4604787 35.1143,0 70.2286,0 105.3429,0 0,-177.46986 0,-354.93972 0,-532.4095814 -35.1143,0 -70.2286,0 -105.3429,0 v 0.974551 z"
     id="path8"
     inkscape:connector-curvature="0" />
  <path
     style="fill:#000000;stroke:none;stroke-width:0.974551"
     d="m 3.1803893,646.15907 c 0,176.82016 0,353.64036 0,530.46053 35.1143027,0 70.2286057,-10e-5 105.3429107,0 0,-177.4699 0,-354.93977 0,-532.40964 -35.114305,0 -70.228608,0 -105.3429107,0 v 0.97456 z"
     id="path4-1"
     inkscape:connector-curvature="0" />
  <path
     style="fill:#000000;stroke:none;stroke-width:0.974551"
     d="m 292.86578,646.15907 c 0,176.82016 0,353.64036 0,530.46053 35.10415,0 70.2083,-10e-5 105.31245,0 0,-177.4699 0,-354.93977 0,-532.40964 -35.10415,0 -70.2083,0 -105.31245,0 v 0.97456 z"
     id="path6-8"
     inkscape:connector-curvature="0" />
  <path
     style="fill:#000000;stroke:none;stroke-width:0.974551"
     d="m 582.52071,646.15907 c 0,176.82016 0,353.64036 0,530.46053 35.1143,0 70.2286,-10e-5 105.3429,0 0,-177.4699 0,-354.93977 0,-532.40964 -35.1143,0 -70.2286,0 -105.3429,0 v 0.97456 z"
     id="path8-7"
     inkscape:connector-curvature="0" />
  <path
     style="fill:#000000;stroke:none;stroke-width:0.974551"
     d="m 3.1803893,1268.0142 c 0,176.8202 0,353.6404 0,530.4605 35.1143027,0 70.2286057,0 105.3429107,0 0,-177.4699 0,-354.9397 0,-532.4096 -35.114305,0 -70.228608,0 -105.3429107,0 v 0.9746 z"
     id="path4-1-6"
     inkscape:connector-curvature="0" />
  <path
     style="fill:#000000;stroke:none;stroke-width:0.974551"
     d="m 292.86578,1268.0142 c 0,176.8202 0,353.6404 0,530.4605 35.10415,0 70.2083,0 105.31245,0 0,-177.4699 0,-354.9397 0,-532.4096 -35.10415,0 -70.2083,0 -105.31245,0 v 0.9746 z"
     id="path6-8-1"
     inkscape:connector-curvature="0" />
  <path
     style="fill:#000000;stroke:none;stroke-width:0.974551"
     d="m 582.52071,1268.0142 c 0,176.8202 0,353.6404 0,530.4605 35.1143,0 70.2286,0 105.3429,0 0,-177.4699 0,-354.9397 0,-532.4096 -35.1143,0 -70.2286,0 -105.3429,0 v 0.9746 z"
     id="path8-7-2"
     inkscape:connector-curvature="0" />
</svg>
