<?xml version="1.0" encoding="UTF-8" standalone="no"?>
<svg
   id="svg2"
   version="1.1"
   inkscape:version="1.3.2 (091e20e, 2023-11-25, custom)"
   width="1800"
   height="1800"
   sodipodi:docname="US9No40VARA.svg"
   xmlns:inkscape="http://www.inkscape.org/namespaces/inkscape"
   xmlns:sodipodi="http://sodipodi.sourceforge.net/DTD/sodipodi-0.dtd"
   xmlns="http://www.w3.org/2000/svg"
   xmlns:svg="http://www.w3.org/2000/svg"
   xmlns:rdf="http://www.w3.org/1999/02/22-rdf-syntax-ns#"
   xmlns:cc="http://creativecommons.org/ns#"
   xmlns:dc="http://purl.org/dc/elements/1.1/">
  <metadata
     id="metadata18">
    <rdf:RDF>
      <cc:Work
         rdf:about="">
        <dc:format>image/svg+xml</dc:format>
        <dc:type
           rdf:resource="http://purl.org/dc/dcmitype/StillImage" />
      </cc:Work>
    </rdf:RDF>
  </metadata>
  <defs
     id="defs16" />
  <sodipodi:namedview
     pagecolor="#ffffff"
     bordercolor="#666666"
     borderopacity="1"
     objecttolerance="10"
     gridtolerance="10"
     guidetolerance="10"
     inkscape:pageopacity="0"
     inkscape:pageshadow="2"
     inkscape:window-width="1920"
     inkscape:window-height="1009"
     id="namedview14"
     showgrid="false"
     inkscape:zoom="0.27848805"
     inkscape:cx="1177.7884"
     inkscape:cy="1276.5359"
     inkscape:window-x="-8"
     inkscape:window-y="-8"
     inkscape:window-maximized="1"
     inkscape:current-layer="svg2"
     inkscape:showpageshadow="2"
     inkscape:pagecheckerboard="0"
     inkscape:deskcolor="#d1d1d1" />
  <path
     id="path4"
     style="fill:#000000;stroke:none;stroke-width:0.923564"
     d="M 205.35234,28.486096 C 150.51011,28.959857 93.427035,45.441025 54.124136,85.153607 18.796467,120.2207 2.3740529,171.57361 5.2852748,220.96262 V 496.90625 H 58.534516 c 0.430152,-101.55093 -0.923031,-203.12526 0.779257,-304.6607 3.311112,-38.10807 27.221458,-74.014 61.474737,-90.88448 39.86002,-21.0899 87.12503,-23.238932 130.9152,-16.191229 37.92931,7.002498 75.67989,27.207629 94.54988,61.994239 14.23159,25.40863 15.80793,55.44101 14.57499,84.01547 v 265.7267 h 53.24924 C 413.62901,394.21116 415.07595,291.48782 413.24084,188.81105 408.21478,131.86796 372.8657,78.608708 321.45445,53.218493 285.89146,34.72764 245.1886,28.100506 205.35234,28.486096 Z m 460.28125,0 C 612.2001,28.990984 556.59187,44.521704 517.45386,82.227784 479.71937,117.58929 462.4281,170.81567 465.56652,221.85732 v 275.04893 h 53.24924 c 0.43015,-101.55093 -0.92304,-203.12526 0.77926,-304.6607 3.39131,-38.92881 28.16754,-75.37493 63.6682,-91.98121 41.24013,-20.942304 90.19532,-22.397896 134.98466,-13.824598 37.93168,8.299632 74.98863,30.791588 91.53926,67.072038 11.88967,25.09741 12.2056,53.46655 11.32269,80.69821 v 262.69626 h 53.24924 C 873.9107,394.18227 875.35653,291.43029 873.52209,188.72446 868.53787,132.10322 833.27759,78.941129 782.4933,53.595494 746.75166,34.83846 705.74338,28.0934 665.63359,28.486096 Z m 460.28121,0 c -53.3901,0.476401 -108.9301,16.065816 -148.11656,53.624439 -37.34265,35.113735 -54.98187,87.923425 -51.92157,138.736645 0,92.0196 -9e-5,184.03947 0,276.05907 h 53.2492 c 0.42992,-101.70486 -0.92264,-203.43311 0.7793,-305.12248 3.64383,-39.05244 28.55203,-75.44395 64.42033,-91.921684 40.8473,-20.417237 88.7708,-21.874684 132.9987,-13.658646 37.9328,7.924866 75.5274,30.28546 92.2914,66.43709 12.2118,24.94939 12.6775,53.33956 11.7754,80.6459 0,87.87318 10e-5,175.74664 0,263.61982 h 53.2493 c -0.449,-102.68544 0.9985,-205.39938 -0.837,-308.06634 -4.9361,-56.35813 -39.7075,-109.208213 -90.2206,-134.840356 -35.9279,-19.047632 -77.2474,-25.899168 -117.6679,-25.513458 z m 460.2813,0 c -53.3902,0.476402 -108.9302,16.065813 -148.1166,53.624439 -37.3427,35.113735 -54.9818,87.923425 -51.9216,138.736645 0,92.0196 -10e-5,184.03947 0,276.05907 h 53.2492 c 0.4299,-101.70486 -0.9226,-203.43311 0.7793,-305.12248 3.6438,-39.05244 28.552,-75.44394 64.4204,-91.921684 40.8473,-20.417238 88.7707,-21.874683 132.9986,-13.658646 37.9329,7.924864 75.5274,30.28546 92.2914,66.43709 12.2119,24.94939 12.6775,53.33956 11.7755,80.6459 0,87.87318 10e-5,175.74664 0,263.61982 h 53.2493 C 1794.4725,394.22081 1795.92,291.50687 1794.0845,188.83991 1789.1485,132.48178 1754.377,79.6317 1703.864,53.999554 1667.936,34.951922 1626.6165,28.100388 1586.1961,28.486096 Z" />
</svg>
