<?xml version="1.0" encoding="UTF-8" standalone="no"?>
<!-- Created with Inkscape (http://www.inkscape.org/) -->

<svg
   width="1598.3105"
   height="941.00537"
   viewBox="0 0 1598.3106 941.00538"
   version="1.1"
   id="svg570"
   xmlns="http://www.w3.org/2000/svg"
   xmlns:svg="http://www.w3.org/2000/svg">
  <defs
     id="defs567" />
  <path
     id="path777-8"
     style="color:#000000;fill:#000000;stroke-width:0.990805;stroke-linejoin:round"
     d="M 1155.346,227.06912 C 1015.4927,176.35987 904.04652,91.717632 798.63752,5.7280295 786.41396,-1.6488125 762.23932,-3.6674563 760.3559,10.48481 619.35619,144.02444 601.41977,171.97584 441.08639,228.84907 280.753,285.72231 163.88879,257.92187 30.623696,258.95193 12.587176,259.01133 -9.1950181,293.17052 4.0933659,305.36635 L 262.1782,550.37896 c -2.01124,2.08207 -4.17952,4.15593 -6.14805,6.239 C 104.04766,651.71588 2.0851859,901.6286 2.0851859,901.6286 c -6.623232,19.2991 7.71986,39.38124 28.1238101,39.37678 L 1551.7859,940.50037 c 21.1084,-0.01 35.482,-21.4014 27.5142,-40.9482 0,0 -103.7673,-220.83942 -257.6758,-320.42823 l 273.3922,-268.14019 c 11.8963,-12.4135 -10.9706,-43.84566 -28.1577,-44.31887 -141.0258,0.75285 -271.6595,11.11349 -411.5128,-39.59576 z m 381.0814,87.754 -250.924,231.58843 C 1155.2243,451.81452 1021.277,400.44714 782.22173,395.86419 510.70173,390.65885 413.30957,449.73862 305.0749,519.60962 L 66.883666,309.18441 C 187.94044,335.07047 345.26328,315.77693 461.21694,281.25081 577.1706,246.72468 722.74016,140.93158 781.50995,55.192581 863.51447,133.81476 991.64042,222.0228 1116.5041,271.45118 c 124.8637,49.42837 265.2828,69.69157 419.9233,43.37194 z M 777.89929,460.10685 c 460.34411,5.6139 666.12651,309.1352 726.41511,420.96066 L 75.133896,881.54161 C 95.865996,837.81489 137.28335,763.57247 208.13979,688.59387 318.23342,572.09578 496.0037,456.66905 777.89929,460.10685 Z" />
</svg>
