<?xml version="1.0" encoding="UTF-8" standalone="no"?>
<svg
   id="svg2"
   version="1.1"
   inkscape:version="1.2.1 (9c6d41e410, 2022-07-14)"
   width="1800"
   height="1800"
   sodipodi:docname="US9No800VARB.svg"
   viewBox="0 0 1687.5 1687.5"
   xmlns:inkscape="http://www.inkscape.org/namespaces/inkscape"
   xmlns:sodipodi="http://sodipodi.sourceforge.net/DTD/sodipodi-0.dtd"
   xmlns="http://www.w3.org/2000/svg"
   xmlns:svg="http://www.w3.org/2000/svg"
   xmlns:rdf="http://www.w3.org/1999/02/22-rdf-syntax-ns#"
   xmlns:cc="http://creativecommons.org/ns#"
   xmlns:dc="http://purl.org/dc/elements/1.1/">
  <metadata
     id="metadata18">
    <rdf:RDF>
      <cc:Work
         rdf:about="">
        <dc:format>image/svg+xml</dc:format>
        <dc:type
           rdf:resource="http://purl.org/dc/dcmitype/StillImage" />
      </cc:Work>
    </rdf:RDF>
  </metadata>
  <defs
     id="defs16" />
  <sodipodi:namedview
     pagecolor="#ffffff"
     bordercolor="#666666"
     borderopacity="1"
     objecttolerance="10"
     gridtolerance="10"
     guidetolerance="10"
     inkscape:pageopacity="0"
     inkscape:pageshadow="2"
     inkscape:window-width="1920"
     inkscape:window-height="1017"
     id="namedview14"
     showgrid="false"
     inkscape:zoom="0.16177356"
     inkscape:cx="1291.9293"
     inkscape:cy="958.12938"
     inkscape:window-x="-8"
     inkscape:window-y="-8"
     inkscape:window-maximized="1"
     inkscape:current-layer="svg2"
     inkscape:showpageshadow="2"
     inkscape:pagecheckerboard="0"
     inkscape:deskcolor="#d1d1d1" />
  <g
     id="g716">
    <path
       d="m 137.50651,1.49533 c -18.36625,0 -37.718333,3.7760579 -58.056238,11.326814 C 37.179376,28.516522 13.835745,67.137657 9.419398,128.68512 c 1.892732,58.47008 26.182724,113.55486 72.869968,165.2547 37.223644,44.92967 60.251804,74.16449 69.084494,87.70492 23.3437,33.85112 37.22372,66.77922 41.64006,98.78383 h 40.69364 C 227.39848,434.88352 208.78665,390.56933 177.87208,347.48607 150.74303,312.4041 121.72121,277.32204 90.806662,242.23998 57.999379,191.15556 45.223482,146.07216 52.478956,106.9893 59.734403,67.90689 81.816219,46.365278 118.7244,42.364919 c 6.31324,-0.682851 12.2942,-1.02654 17.9429,-1.02654 27.3744,0 46.94527,8.035534 58.71255,24.106612 14.19546,19.387228 17.19226,41.236799 8.99043,65.547819 -6.96714,20.65164 -20.08021,30.97723 -39.3392,30.97723 -3.41297,0 -7.01902,-0.31656 -10.81805,-0.97228 -25.23637,-4.30968 -35.01545,-19.38722 -29.33727,-45.23716 l -20.82,-38.775348 C 87.652105,94.218544 80.238919,112.37482 81.8162,131.45452 c 1.577276,19.07972 10.252256,36.00549 26.02499,50.77689 13.7653,12.89104 31.49501,19.33702 53.18912,19.33702 3.16373,0 6.41173,-0.13566 9.74407,-0.40699 26.18273,-2.15258 46.37181,-13.07918 60.56725,-32.77392 14.19543,-19.69518 19.8736,-46.00683 17.03455,-78.934948 C 245.53708,56.525356 227.24071,31.598417 193.4871,14.673091 175.97344,5.8909295 157.31325,1.499849 137.50651,1.499849 Z"
       style="fill:#000000;stroke:none;stroke-width:0.611504"
       id="path4"
       inkscape:connector-curvature="0" />
    <path
       d="m 469.84132,1.49533 c -18.36625,0 -37.71833,3.7760579 -58.05624,11.326814 -42.2709,15.694378 -65.61453,54.315513 -70.03088,115.862976 1.89273,58.47008 26.18273,113.55486 72.86998,165.2547 37.22363,44.92967 60.2518,74.16449 69.08448,87.70492 23.34369,33.85112 37.22374,66.77922 41.64006,98.78383 h 40.69366 c -6.3091,-45.54505 -24.92093,-89.85924 -55.83548,-132.9425 -27.12907,-35.08197 -56.15089,-70.16403 -87.06543,-105.24609 -32.80728,-51.08442 -45.58318,-96.16782 -38.3277,-135.25068 7.25544,-39.08241 29.33726,-60.624022 66.24543,-64.624381 6.31324,-0.682851 12.29421,-1.02654 17.94291,-1.02654 27.37439,0 46.94528,8.035534 58.71254,24.106612 14.19548,19.387228 17.19226,41.236799 8.99045,65.547819 -6.96713,20.65164 -20.08021,30.97723 -39.33922,30.97723 -3.41275,0 -7.019,-0.31656 -10.81804,-0.97228 -25.23638,-4.30968 -35.01546,-19.38722 -29.33727,-45.23716 l -20.82,-38.774895 c -16.40366,17.233286 -23.81685,35.389565 -22.23955,54.469275 1.57726,19.07972 10.25224,36.00549 26.02498,50.77688 13.7653,12.89105 31.49501,19.33703 53.18909,19.33703 3.16382,0 6.41178,-0.13568 9.7441,-0.40701 26.18269,-2.15257 46.3718,-13.07916 60.56725,-32.7739 C 577.87187,148.6928 583.55004,122.38114 580.711,89.453031 577.87167,56.525812 559.57554,31.598865 525.82193,14.673538 508.30824,5.8913858 489.64806,1.5003053 469.84132,1.5003053 Z"
       style="fill:#000000;stroke:none;stroke-width:0.611504"
       id="path6"
       inkscape:connector-curvature="0" />
    <path
       d="m 802.17616,1.49533 c -18.36632,0 -37.71836,3.7760579 -58.05623,11.326814 -42.27097,15.694378 -65.61456,54.315513 -70.0309,115.862976 1.89272,58.47008 26.18271,113.55486 72.86996,165.2547 37.22362,44.92967 60.25177,74.16449 69.08451,87.70492 23.34365,33.85112 37.22368,66.77922 41.64008,98.78383 h 40.69357 C 892.06808,434.88352 873.45627,390.56933 842.54172,347.48607 815.41261,312.4041 786.39078,277.32204 755.47628,242.23998 722.669,191.15556 709.89312,146.07216 717.14858,106.9893 c 7.25546,-39.08241 29.33727,-60.624022 66.24539,-64.624381 6.31327,-0.682851 12.2942,-1.02654 17.94291,-1.02654 27.37446,0 46.9453,8.035534 58.71263,24.106612 14.19541,19.387228 17.19222,41.236799 8.99036,65.547819 -6.96713,20.65164 -20.08018,30.97723 -39.33917,30.97723 -3.41323,0 -7.01901,-0.31656 -10.81808,-0.97228 -25.23638,-4.30968 -35.01539,-19.38722 -29.33722,-45.23716 L 768.72536,76.985705 c -16.40364,17.233286 -23.81685,35.389565 -22.23957,54.469275 1.57753,19.07972 10.25227,36.00549 26.02502,50.77688 13.76531,12.8915 31.49499,19.33703 53.18911,19.33703 3.16385,0 6.41172,-0.13568 9.74403,-0.40701 26.18277,-2.15257 46.37187,-13.07872 60.56728,-32.7739 C 910.2067,148.6928 915.88481,122.38114 913.04576,89.453478 910.20695,56.525812 891.91033,31.598865 858.15672,14.673538 840.64305,5.8913858 821.98282,1.5003053 802.17616,1.5003053 Z"
       style="fill:#000000;stroke:none;stroke-width:0.611504"
       id="path8"
       inkscape:connector-curvature="0" />
    <path
       d="m 137.50651,613.78567 c -18.36625,0 -37.718333,3.77607 -58.056238,11.32682 -42.270896,15.69437 -65.614527,54.3155 -70.030874,115.86297 1.892732,58.47008 26.182724,113.55487 72.869968,165.25472 37.223644,44.92962 60.251804,74.16445 69.084494,87.70491 23.3437,33.85111 37.22372,66.77921 41.64006,98.78381 h 40.69364 c -6.30908,-45.545 -24.92091,-89.8592 -55.83548,-132.94251 -27.12905,-35.08194 -56.15087,-70.164 -87.065418,-105.24606 -32.807283,-51.08446 -45.58318,-96.16785 -38.327706,-135.25072 7.255447,-39.08239 29.337263,-60.62399 66.245444,-64.62438 6.31324,-0.6828 12.2942,-1.02652 17.9429,-1.02652 27.3744,0 46.94527,8.03556 58.71255,24.10663 14.19546,19.38721 17.19226,41.23678 8.99043,65.5478 -6.96714,20.65164 -20.08021,30.97725 -39.3392,30.97725 -3.41297,0 -7.01902,-0.31655 -10.81805,-0.97229 -25.23637,-4.30968 -35.01545,-19.38721 -29.33727,-45.23716 l -20.82,-38.77533 c -16.403655,17.23324 -23.816841,35.38955 -22.23956,54.46927 1.577276,19.07967 10.252256,36.00549 26.02499,50.77685 13.7653,12.89107 31.49501,19.33702 53.18912,19.33702 3.16373,0 6.41173,-0.13565 9.74407,-0.40696 26.18273,-2.15257 46.37181,-13.0792 60.56725,-32.77396 14.19543,-19.69517 19.8736,-46.00681 17.03455,-78.93491 -2.8391,-32.92725 -21.13547,-57.85414 -54.88908,-74.77948 -17.51366,-8.7822 -36.17385,-13.17324 -55.98059,-13.17324 z"
       style="fill:#000000;stroke:none;stroke-width:0.611504"
       id="path4-8"
       inkscape:connector-curvature="0" />
    <path
       d="m 469.84132,613.78567 c -18.36625,0 -37.71833,3.77607 -58.05624,11.32682 -42.2709,15.69437 -65.61453,54.3155 -70.03088,115.86297 1.89273,58.47008 26.18273,113.55487 72.86998,165.25472 37.22363,44.92962 60.2518,74.16445 69.08448,87.70491 23.34369,33.85111 37.22374,66.77921 41.64006,98.78381 h 40.69366 c -6.3091,-45.545 -24.92093,-89.8592 -55.83548,-132.94251 -27.12907,-35.08194 -56.15089,-70.164 -87.06543,-105.24606 -32.80728,-51.08446 -45.58318,-96.16785 -38.3277,-135.25072 7.25544,-39.08239 29.33726,-60.62399 66.24543,-64.62438 6.31324,-0.6828 12.29421,-1.02652 17.94291,-1.02652 27.37439,0 46.94528,8.03556 58.71254,24.10663 14.19548,19.38721 17.19226,41.23678 8.99045,65.5478 -6.96713,20.65164 -20.08021,30.97725 -39.33922,30.97725 -3.41275,0 -7.019,-0.31655 -10.81804,-0.97229 -25.23638,-4.30968 -35.01546,-19.38721 -29.33727,-45.23716 l -20.82,-38.77491 c -16.40366,17.23331 -23.81685,35.38955 -22.23955,54.46927 1.57726,19.07973 10.25224,36.00549 26.02498,50.77692 13.7653,12.891 31.49501,19.33702 53.18909,19.33702 3.16382,0 6.41178,-0.13572 9.7441,-0.40702 26.18269,-2.15258 46.3718,-13.07915 60.56725,-32.7739 14.19543,-19.69518 19.8736,-46.00682 17.03456,-78.93497 -2.83933,-32.92719 -21.13546,-57.85415 -54.88907,-74.77948 -17.51369,-8.78215 -36.17387,-13.17325 -55.98061,-13.17325 z"
       style="fill:#000000;stroke:none;stroke-width:0.611504"
       id="path6-3"
       inkscape:connector-curvature="0" />
    <path
       d="m 321.09415,1212.8913 c -18.36626,0 -37.71836,3.7761 -58.05629,11.3268 -42.27091,15.6944 -65.61451,54.3155 -70.03086,115.863 1.89273,58.4701 26.18273,113.5549 72.86998,165.2547 37.22362,44.9296 60.25177,74.1645 69.08451,87.7049 23.34365,33.8511 37.22374,66.7792 41.64002,98.7838 h 40.69369 c -6.30913,-45.545 -24.92094,-89.8592 -55.83549,-132.9425 -27.12905,-35.0819 -56.15088,-70.164 -87.06544,-105.246 -32.80728,-51.0845 -45.58316,-96.1679 -38.3277,-135.2508 7.25546,-39.0823 29.33727,-60.6239 66.24545,-64.6243 6.31321,-0.6828 12.2942,-1.0266 17.94291,-1.0266 27.37434,0 46.94524,8.0356 58.7125,24.1067 14.19547,19.3872 17.19229,41.2368 8.9905,65.5478 -6.96714,20.6516 -20.08025,30.9772 -39.33924,30.9772 -3.41273,0 -7.01901,-0.3165 -10.81802,-0.9723 -25.23638,-4.3096 -35.01551,-19.3872 -29.33728,-45.2371 l -20.82004,-38.7749 c -16.40364,17.2333 -23.81685,35.3895 -22.23951,54.4692 1.57722,19.0798 10.25221,36.0055 26.02496,50.777 13.76531,12.891 31.49499,19.337 53.18911,19.337 3.16379,0 6.41178,-0.1357 9.74409,-0.407 26.18265,-2.1526 46.37181,-13.0792 60.56722,-32.7739 14.19547,-19.6952 19.87364,-46.0069 17.03459,-78.935 -2.83931,-32.9272 -21.13549,-57.8542 -54.8891,-74.7795 -17.51367,-8.7821 -36.17384,-13.1732 -55.98056,-13.1732 z"
       style="fill:#000000;stroke:none;stroke-width:0.611504"
       id="path6-3-8"
       inkscape:connector-curvature="0" />
    <path
       d="m 669.5731,1215.1129 c -18.36626,0 -37.71836,3.7761 -58.05629,11.3268 -42.27091,15.6944 -65.61451,54.3155 -70.03086,115.863 1.89273,58.4701 26.18273,113.5549 72.86998,165.2547 37.22362,44.9296 60.25177,74.1645 69.08451,87.7049 23.34365,33.8511 37.22374,66.7792 41.64002,98.7838 h 40.69369 c -6.30913,-45.545 -24.92094,-89.8592 -55.83549,-132.9425 -27.12905,-35.0819 -56.15088,-70.164 -87.06544,-105.246 -32.80728,-51.0845 -45.58316,-96.1679 -38.3277,-135.2508 7.25546,-39.0823 29.33727,-60.6239 66.24545,-64.6243 6.31321,-0.6828 12.2942,-1.0266 17.94291,-1.0266 27.37434,0 46.94524,8.0356 58.7125,24.1067 14.19547,19.3872 17.19229,41.2368 8.9905,65.5478 -6.96714,20.6516 -20.08025,30.9772 -39.33924,30.9772 -3.41273,0 -7.01901,-0.3165 -10.81802,-0.9723 -25.23638,-4.3096 -35.01551,-19.3872 -29.33728,-45.2371 l -20.82004,-38.7749 c -16.40364,17.2333 -23.81685,35.3895 -22.23951,54.4692 1.57722,19.0798 10.25221,36.0055 26.02496,50.777 13.76531,12.891 31.49499,19.337 53.18911,19.337 3.16379,0 6.41178,-0.1357 9.74409,-0.407 26.18265,-2.1526 46.37181,-13.0792 60.56722,-32.7739 14.19547,-19.6952 19.87364,-46.0069 17.03459,-78.935 -2.83931,-32.9272 -21.13549,-57.8542 -54.8891,-74.7795 -17.51367,-8.7821 -36.17384,-13.1732 -55.98056,-13.1732 z"
       style="fill:#000000;stroke:none;stroke-width:0.611504"
       id="path6-3-8-3"
       inkscape:connector-curvature="0" />
    <path
       d="m 802.17616,613.78567 c -18.36632,0 -37.71836,3.77607 -58.05623,11.32682 -42.27097,15.69437 -65.61456,54.3155 -70.0309,115.86297 1.89272,58.47008 26.18271,113.55487 72.86996,165.25472 37.22362,44.92962 60.25177,74.16445 69.08451,87.70491 23.34365,33.85111 37.22368,66.77921 41.64008,98.78381 h 40.69357 c -6.30907,-45.545 -24.92088,-89.8592 -55.83543,-132.94251 -27.12911,-35.08194 -56.15094,-70.164 -87.06544,-105.24606 -32.80728,-51.08446 -45.58316,-96.16785 -38.3277,-135.25072 7.25546,-39.08239 29.33727,-60.62399 66.24539,-64.62438 6.31327,-0.6828 12.2942,-1.02652 17.94291,-1.02652 27.37446,0 46.9453,8.03556 58.71263,24.10663 14.19541,19.38721 17.19222,41.23678 8.99036,65.5478 -6.96713,20.65164 -20.08018,30.97725 -39.33917,30.97725 -3.41323,0 -7.01901,-0.31655 -10.81808,-0.97229 -25.23638,-4.30968 -35.01539,-19.38721 -29.33722,-45.23716 l -20.82004,-38.77491 c -16.40364,17.23331 -23.81685,35.38955 -22.23957,54.46927 1.57753,19.07973 10.25227,36.00549 26.02502,50.77692 13.76531,12.89149 31.49499,19.33702 53.18911,19.33702 3.16385,0 6.41172,-0.13572 9.74403,-0.40702 26.18277,-2.15258 46.37187,-13.07872 60.56728,-32.7739 14.19547,-19.69518 19.87358,-46.00682 17.03453,-78.93449 -2.83881,-32.92767 -21.13543,-57.85463 -54.88904,-74.77996 -17.51367,-8.78215 -36.1739,-13.17325 -55.98056,-13.17325 z"
       style="fill:#000000;stroke:none;stroke-width:0.611504"
       id="path8-5"
       inkscape:connector-curvature="0" />
  </g>
</svg>
