<?xml version="1.0" encoding="UTF-8" standalone="no"?>
<svg
   width="1203.7611"
   height="1666.2968"
   version="1.1"
   id="svg1"
   xmlns="http://www.w3.org/2000/svg"
   xmlns:svg="http://www.w3.org/2000/svg">
  <defs
     id="defs1" />
  <path
     id="path1"
     style="fill:#000000;stroke:none;stroke-width:100"
     d="m 722.2016,0.01780965 c -122.67364,0 -217.8445,41.62046735 -285.50976,124.86328035 -67.66522,83.24283 -99.796,128.41419 -102.7168,220.90625 0,13.02979 0.6883,26.8107 1.85156,40.97656 l -3.55273,487.83985 c 0,3.20364 -0.37538,6.18478 -0.56641,9.27539 -0.22004,-0.002 -0.44013,-0.0108 -0.66016,-0.0137 -43.49465,-0.6347 -90.82095,25.61235 -98.90625,71.2832 -3.51679,14.38417 -5.55847,28.99075 -6.44531,43.66798 -26.13894,9.51158 -42.24386,10.92268 -47.49414,3.57228 -7.30197,-10.22288 -6.81659,-28.72211 1.45898,-55.49612 8.2756,-26.77391 23.85477,-60.85056 46.73438,-102.22851 22.87967,-41.37808 34.31836,-92.24821 34.31836,-152.61133 0,-65.23132 -17.52458,-108.55733 -52.57422,-129.97657 L 336.40473,103.40453 C 326.66869,90.747759 316.44633,88.800359 305.73676,97.562729 L 217.14301,344.12914 c -27.26081,0 -80.32197,-35.53652 -159.183597,-106.60938 -18.49841,-21.41918 -27.991718,-42.8386 -28.478515,-64.25781 -0.4868,-21.41921 4.868086,-33.83266 16.064453,-37.24023 11.196431,-3.4076 18.986002,-1.70385 23.367187,5.11132 4.381188,6.8152 4.624857,13.87372 0.730469,21.17579 -3.894388,7.30197 -7.545537,7.30197 -10.953125,0 -3.407591,-7.30207 -6.571397,-10.95313 -9.492188,-10.95313 -7.788843,3.89447 -10.223525,11.92769 -7.302734,24.09766 2.920858,12.16997 10.952142,18.01219 24.095703,17.52539 13.143628,-0.48673 21.907875,-5.11256 26.289063,-13.875 4.381185,-8.76237 6.570314,-18.01201 6.570314,-27.74805 0,-10.70957 -3.651148,-20.68826 -10.953127,-29.9375 C 80.594867,112.16896 71.103515,106.81415 59.420351,105.35375 47.737117,103.89342 35.323677,108.27551 22.180116,118.49828 9.0364881,128.72112 1.7342621,142.8383 0.27386635,160.84984 -1.1865292,178.86145 3.1936757,198.08978 13.416444,218.53539 c 10.222837,20.44561 28.234765,41.13396 54.035157,62.06641 25.800388,20.93231 51.845569,42.1081 78.132809,63.52734 H 11.226991 l 34.806641,187.2793 c -17.524816,6.81517 -27.747178,21.41966 -30.667969,43.8125 0,19.47204 18.011997,31.64179 54.035156,36.50976 -34.075965,35.04961 -51.115234,71.55892 -51.115234,109.5293 0,88.59763 3.894818,175.73723 11.683594,261.41406 12.656828,95.41274 59.390389,143.11914 140.199221,143.11914 26.4999,0 50.52665,-2.8159 72.28125,-8.2168 3.56811,11.0519 7.43114,21.9826 11.85742,32.5859 16.82824,37.9832 41.17026,72.1727 68.95117,102.8926 -49.61555,-6.2054 -99.23188,-12.4073 -148.84766,-18.6113 2.4572,21.9496 -7.10529,58.7101 4.23438,72.8672 46.61725,-5.344 92.7872,-13.8768 139.28125,-20.1211 -0.274,125.5351 -4.36608,251.0169 -7.17578,376.5097 22.86614,0.4507 69.81309,13.9858 55.15625,-25.4961 -2.9441,-117.003 -7.63734,-233.9846 -7.77344,-351.041 47.79315,7.0457 95.58741,14.0869 143.38086,21.1309 1.7966,-24.155 0.202,-48.3775 0.625,-72.5625 -48.16175,8.4383 -99.37751,12.1415 -146.88476,17.084 23.83801,-28.9193 60.9552,-83.7683 74.49804,-119.0528 22.28484,-58.0605 29.0725,-121.9934 15.23633,-182.76167 -7.69055,-27.09712 -28.26377,-47.86612 -53.38477,-58.59765 0.2291,-6.3664 0.54688,-12.63265 0.54688,-19.25977 V 593.67406 c 12.12959,24.05725 26.16714,46.61367 42.35156,66.44531 69.12566,84.70323 165.02558,127.05664 287.69922,127.05664 108.0696,0 201.29315,-36.99855 279.668,-110.99218 20.4614,-19.31764 38.1852,-40.16498 53.3047,-62.46875 0,0 33.7956,206.64948 40.1915,246.29021 9.1011,56.40735 76.0112,161.98361 108.3953,150.91381 -3.3492,-18.97935 -40.9478,-87.83847 -49.2903,-135.01772 -25.2814,-142.97342 -37.9586,-434.45779 -37.9586,-434.45779 1.87,-17.15164 2.9199,-34.76199 2.9199,-52.95898 0,-102.22803 -34.564,-192.77314 -103.6894,-271.63477 C 946.61694,37.988215 848.76961,-0.95578735 722.2016,0.01780965 Z M 719.28168,75.957263 c 99.30717,0 177.92422,31.643717 235.85351,94.927737 57.92911,63.28399 86.89461,135.81718 86.89461,217.59961 0.9733,96.38637 -30.1812,175.00545 -93.46492,235.85547 -63.28399,60.85002 -140.19934,91.27539 -230.74414,91.27539 -93.46566,0 -167.4608,-33.10185 -221.98242,-99.30664 -54.52158,-66.20482 -82.75586,-142.14742 -84.70313,-227.82422 -1.9471,-80.80883 23.6107,-153.09835 76.67188,-216.86914 53.06125,-63.77082 130.22018,-95.658207 231.47461,-95.658207 z m 5.83984,240.966797 c -43.81198,2.92087 -67.66415,26.2876 -71.55859,70.09961 2.92087,46.73278 26.77301,71.07431 71.55859,73.02148 44.78561,-1.94717 68.63975,-26.2887 71.56055,-73.02148 -1.9472,-43.81201 -25.80134,-67.17874 -71.56055,-70.09961 z M 59.420351,377.71898 H 212.76215 L 174.54926,546.01195 C 147.28845,533.35518 117.10677,528.0003 84.004335,529.9475 Z M 86.92621,551.85375 c -9.736037,2.9207 -14.849138,9.25026 -15.335938,18.98633 -0.486797,9.73607 6.086372,15.57626 19.716797,17.52343 36.996811,0 67.665851,8.76227 92.005861,26.28711 l 4.38086,-2.91992 c -22.39281,-21.41904 -48.67975,-32.12891 -78.86133,-32.1289 4.868,-11.68327 4.38066,-19.95818 -1.46094,-24.82618 75.94079,21.41924 113.91016,67.17806 113.91016,137.27735 0,47.70635 -15.08991,100.76767 -45.27149,159.18359 -30.18164,58.41602 -45.27343,107.09699 -45.27343,146.04106 0,36.02298 13.63171,54.03508 40.89258,54.03508 13.69939,0 32.04511,-4.1185 54.57031,-11.9414 l 39.16211,-15.7969 c 18.53791,-8.1276 38.40504,-17.4328 61.07031,-29.21868 -6.49055,17.76518 -26.50785,49.58498 -73.08079,69.35308 -21.67977,9.2021 -64.10074,19.7328 -81.72194,19.7328 -35.04964,0 -62.79854,-16.5519 -83.244146,-49.6543 C 67.93959,1000.685 57.717226,901.37756 57.717226,735.86547 c 0,-55.49515 24.339539,-97.84863 73.019534,-127.05664 L 117.59418,595.66625 H 94.226991 c -25.313589,0 -40.403499,-9.24961 -45.271484,-27.74805 4.867985,-10.70957 17.525096,-16.06445 37.970703,-16.06445 z m 4.380859,4.38086 c 6.815171,7.78877 6.815171,16.06565 0,24.82812 -4.867985,-8.76247 -4.867985,-17.03935 0,-24.82812 z M 319.41449,930.7307 c -9.85656,19.09228 -25.47208,34.7751 -46.89258,47.02344 2.09715,-6.68168 4.63654,-13.26832 7.78125,-19.69922 8.91305,-14.13835 23.29271,-23.27171 39.11133,-27.32422 z m 67.02149,15.43555 c 15.419,14.67787 24.69457,36.5206 24.34765,58.02345 7.01417,75.183 -24.42993,148.8906 -69.09961,207.8496 -27.24331,-16.0772 -36.30053,-50.9418 -51.375,-77.2676 -4.13239,-9.6642 -7.79284,-19.7811 -11.15625,-30.0547 58.58972,-26.867 94.34662,-79.7234 107.28321,-158.55075 z" />
</svg>
