<?xml version="1.0" encoding="UTF-8" standalone="no"?>
<svg
   width="1289.381"
   height="902.19769"
   id="svg2"
   version="1.1"
   xmlns="http://www.w3.org/2000/svg"
   xmlns:svg="http://www.w3.org/2000/svg"
   xmlns:rdf="http://www.w3.org/1999/02/22-rdf-syntax-ns#"
   xmlns:cc="http://creativecommons.org/ns#"
   xmlns:dc="http://purl.org/dc/elements/1.1/">
  <metadata
     id="metadata9">
    <rdf:RDF>
      <cc:Work
         rdf:about="">
        <dc:format>image/svg+xml</dc:format>
        <dc:type
           rdf:resource="http://purl.org/dc/dcmitype/StillImage" />
      </cc:Work>
    </rdf:RDF>
  </metadata>
  <defs
     id="defs7" />
  <path
     id="path4"
     style="fill:#000000;stroke:none;stroke-width:142.509"
     d="M 10.15625 0 L 0.8828125 1.84375 C -2.8129544 288.26569 3.2455921 416.53316 54.986328 544.03711 C 109.21916 682.90177 222.36282 795.62901 361.25586 849.67188 C 596.50021 943.33515 884.16886 911.96564 1084.6582 753.69531 C 1216.6496 651.24109 1282.0829 483.4607 1286.8984 319.58984 C 1291.7849 213.02686 1287.9497 106.55743 1287.957 0 L 1190.2949 0 L 1187 161.30859 L 1079.3867 161.40039 L 1079.3867 0.90820312 L 1001.0566 1.0253906 L 1001.0566 161.4668 L 885.40039 161.56445 L 885.40039 0.9140625 L 807.07031 1.03125 L 807.07031 161.63086 L 688.76562 161.73047 L 688.76562 1.6894531 L 612.10156 1.8066406 L 612.10156 161.79688 L 495.23633 161.89453 L 495.23633 0.84179688 L 416.90625 0.95898438 L 416.90625 161.96094 L 305.23828 162.05664 L 305.23828 0.8984375 L 228.57422 1.0136719 L 228.57422 162.12109 L 97.359375 162.23242 L 91.876953 0 L 10.15625 0 z M 98.675781 270.23633 L 1190.0098 270.23633 C 1199.9378 438.89177 1126.0374 613.22236 986.58008 711.88086 C 768.54069 870.2019 433.94484 857.72993 241.26367 663.86133 C 153.40241 565.24666 93.530918 407.45584 98.675781 270.23633 z " />
</svg>
