<?xml version="1.0" encoding="UTF-8" standalone="no"?>
<!-- Created with Inkscape (http://www.inkscape.org/) -->

<svg
   width="1801.4139"
   height="986.33539"
   viewBox="0 0 1801.4139 986.3354"
   version="1.1"
   id="svg570"
   xmlns="http://www.w3.org/2000/svg"
   xmlns:svg="http://www.w3.org/2000/svg">
  <defs
     id="defs567" />
  <path
     id="path777-79"
     style="color:#000000;fill:#000000;stroke-width:0.962873;stroke-linejoin:round;-inkscape-stroke:none"
     d="m 1106.8769,0 c 0,0 -26.5324,38.971509 -64.7212,77.819676 -38.1888,38.848264 -88.236,74.811084 -126.65173,74.889744 -38.49817,0.0789 -86.52212,-35.18741 -122.97688,-73.471724 -36.45485,-38.284498 -61.291,-76.749633 -61.291,-76.749633 l -34.61826,4.844406 c 0,0 -12.7417,41.912894 -36.07577,87.316777 -23.33416,45.403994 -58.19257,91.917784 -93.01313,103.779694 -34.19673,11.64922 -94.07412,-5.07126 -143.71446,-28.2581 -49.64024,-23.18685 -88.73856,-50.11263 -88.73856,-50.11263 l -30.00697,18.52404 c 0,0 5.25353,37.76445 2.50492,83.44642 -2.74853,45.68215 -14.64655,97.46662 -42.10499,124.61683 -26.07103,25.77852 -89.12149,38.45994 -145.44648,40.76043 -56.324787,2.30031 -104.68421,-3.44718 -104.68421,-3.44718 L 0,417.23805 301.36226,695.04189 c -2.03821,2.10803 -4.23173,4.20786 -6.22487,6.31694 C 179.67843,823.53468 136.8821,948.06871 136.8821,948.06871 c -6.43632,18.75429 7.50107,38.26959 27.32903,38.26669 l 1478.68307,-0.4927 c 20.5121,-0.01 34.48,-20.7967 26.7387,-39.79188 0,0 -49.8993,-120.11031 -172.7041,-240.77465 l 304.4856,-283.65445 -17.4013,-32.36909 c 0,0 -69.2479,5.94458 -120.9023,6.01988 -51.6542,0.0751 -108.4397,-10.27279 -132.8558,-37.07436 -25.6707,-28.17915 -34.731,-81.6912 -34.827,-128.64511 -0.096,-46.95402 7.3759,-85.63743 7.3759,-85.63743 l -30.701,-18.89071 c 0,0 -37.8922,29.30514 -86.1434,54.34966 -48.251,25.04451 -105.9848,42.66047 -139.3457,29.72869 -33.9836,-13.17306 -62.8982,-61.81807 -80.3529,-109.585044 C 1148.8063,51.751046 1141.828,7.825267 1141.828,7.825267 Z M 720.74983,53.986741 c 11.2529,14.803495 26.15577,33.190805 43.88399,51.808919 39.31679,41.29011 91.54139,85.55029 150.9492,85.42869 59.49033,-0.12181 113.07318,-44.73151 154.03898,-86.40475 17.367,-17.666984 31.6836,-34.654284 43.2747,-49.110279 4.1556,16.648935 9.5006,35.987755 17.1888,57.027689 18.9315,51.80873 48.4413,111.28239 102.6061,132.27842 54.7877,21.23741 119.1764,-4.55228 171.0116,-31.45696 21.5672,-11.19436 40.1632,-22.73218 55.6359,-32.85428 -1.3339,14.45484 -2.4635,30.61454 -2.426,48.9278 0.1045,51.09764 7.1046,113.0485 44.8695,154.50355 39.0197,42.83224 105.5659,49.73315 161.3846,49.65188 17.1916,-0.0251 57.7923,1.49939 72.2377,0.28964 l -266.6064,244.8762 C 1345.7197,568.26793 1159.4148,464.49056 891.52804,461.22362 627.82768,458.00773 446.48531,558.07188 328.89436,668.0363 L 66.156107,425.83997 c 16.683217,0.57878 35.020743,0.88248 55.438553,0.0492 59.83909,-2.44397 129.76879,-11.13207 170.95501,-51.8559 39.7991,-39.35234 50.46676,-99.78407 53.46958,-149.69102 1.18173,-19.64155 0.84867,-36.96623 0.19181,-51.92937 16.44961,9.75737 37.34396,21.46407 61.30226,32.65497 52.97524,24.74458 117.89599,48.39803 172.43512,29.81902 53.91492,-18.36661 89.71337,-73.72342 114.84888,-122.63284 11.10886,-21.615534 19.54035,-41.759704 25.95251,-58.266911 z m 170.073,465.005499 c 447.36297,5.45564 647.34547,300.41817 705.93637,409.09311 L 207.87145,928.548 C 228.01899,886.05393 268.2688,813.90441 337.12769,741.03977 444.1176,627.82586 616.87442,515.65136 890.82283,518.99224 Z" />
</svg>
