<?xml version="1.0" encoding="UTF-8" standalone="no"?>
<svg
   width="1801.5046"
   height="660.8208"
   version="1.1"
   id="svg2160"
   xmlns="http://www.w3.org/2000/svg"
   xmlns:svg="http://www.w3.org/2000/svg">
  <defs
     id="defs2164" />
  <path
     id="path2158"
     style="fill:#000000;stroke:none;stroke-width:100"
     d="M 125.83984 0.021484375 C 43.658796 -1.1043145 2.5683594 42.236902 2.5683594 130.04688 C 2.5683594 216.73106 43.658804 260.03787 125.83984 260.07422 L 1688.3652 260.76562 C 1763.7919 260.79898 1801.5039 219.67526 1801.5039 137.49414 C 1801.5039 45.1811 1763.7919 -0.41290825 1688.3652 0.71289062 L 125.83984 0.021484375 z M 149.48047 70.945312 L 1652.9023 71.636719 C 1703.5619 71.660008 1728.8926 92.46181 1728.8926 134.11523 C 1728.8926 171.2656 1703.0002 189.8418 1651.2148 189.8418 L 147.79297 187.46289 C 98.259152 187.46289 73.492188 168.32298 73.492188 130.04688 C 73.492188 90.644986 98.820858 70.922023 149.48047 70.945312 z M 500.62109 329.98633 C 328.89692 399.14984 162.12157 487.90979 80.541016 521.74414 C 29.756773 542.80616 -0.23331584 557.75325 0.001953125 597.68164 C 1.7009966 638.23618 29.830574 658.49477 84.392578 658.45898 C 169.05945 660.91197 307.45066 661.23988 499.56641 659.44141 C 515.03365 655.66834 522.5538 644.16592 522.12305 624.93359 L 521.65039 359.76172 C 522.26467 340.11065 515.25471 330.18581 500.62109 329.98633 z M 1300.2422 330.22461 C 1285.6085 330.42409 1278.5987 340.34893 1279.2129 360 L 1278.7422 625.17188 C 1278.3114 644.40421 1285.8297 655.90662 1301.2969 659.67969 C 1493.4127 661.47817 1631.8038 661.15025 1716.4707 658.69727 C 1771.0326 658.73306 1799.1623 638.47446 1800.8613 597.91992 C 1801.0966 557.99153 1771.1065 543.04444 1720.3223 521.98242 C 1638.7417 488.14808 1471.9663 399.38812 1300.2422 330.22461 z M 454.6582 404.32812 C 461.76561 403.90536 464.27542 407.14496 462.18945 414.04492 L 457.82031 596.12695 C 459.91425 601.35184 457.92955 603.96673 451.86719 603.9707 C 447.06106 607.10958 341.2826 609.47707 134.5332 611.07617 C 93.974626 606.71279 73.494352 603.97683 71.396484 592.68945 C 71.388584 580.56458 94.134355 575.62074 131.36328 557.77148 C 258.38722 496.87041 449.64072 403.91327 454.6582 404.32812 z M 1346.2051 404.56641 C 1351.2226 404.15155 1542.476 497.10869 1669.5 558.00977 C 1706.7289 575.85902 1729.4768 580.80286 1729.4668 592.92773 C 1727.369 604.21511 1706.8886 606.95107 1666.3301 611.31445 C 1459.5807 609.71535 1353.8022 607.34786 1348.9961 604.20898 C 1342.9337 604.20501 1340.9491 601.59012 1343.043 596.36523 L 1338.6738 414.2832 C 1336.5879 407.38324 1339.0977 404.14364 1346.2051 404.56641 z M 903.23633 407.64844 C 886.34975 407.64844 872.27719 412.99662 861.01953 423.69141 C 849.76187 434.3862 844.13281 447.05056 844.13281 461.68555 C 844.13281 476.32053 849.76187 488.70402 861.01953 498.83594 C 872.27719 508.96786 886.34975 514.0332 903.23633 514.0332 C 920.12284 514.0332 934.47629 508.96786 946.29688 498.83594 C 958.11746 488.70402 964.02734 476.32053 964.02734 461.68555 C 964.02734 447.05056 958.11746 434.3862 946.29688 423.69141 C 934.47629 412.99662 920.12284 407.64844 903.23633 407.64844 z M 710.72852 409.33789 C 693.842 409.33789 679.76944 414.40324 668.51172 424.53516 C 657.25406 434.66708 651.62695 447.05056 651.62695 461.68555 C 651.62695 476.32053 657.25406 488.9849 668.51172 499.67969 C 679.76944 510.37448 693.842 515.72266 710.72852 515.72266 C 727.61503 515.72266 741.68765 510.37448 752.94531 499.67969 C 764.20303 488.9849 769.83203 476.32053 769.83203 461.68555 C 769.83203 447.05056 764.20303 434.66708 752.94531 424.53516 C 741.68765 414.40324 727.61503 409.33789 710.72852 409.33789 z M 1097.4316 409.33789 C 1080.5451 409.33789 1066.4725 414.40324 1055.2148 424.53516 C 1043.9572 434.66708 1038.3281 447.05056 1038.3281 461.68555 C 1038.3281 476.32053 1043.9572 488.9849 1055.2148 499.67969 C 1066.4725 510.37448 1080.5451 515.72266 1097.4316 515.72266 C 1114.3181 515.72266 1128.6716 510.37448 1140.4922 499.67969 C 1152.3128 488.9849 1158.2227 476.32053 1158.2227 461.68555 C 1158.2227 447.05056 1152.3128 434.66708 1140.4922 424.53516 C 1128.6716 414.40324 1114.3181 409.33789 1097.4316 409.33789 z " />
</svg>
