<?xml version="1.0" encoding="UTF-8" standalone="no"?>
<svg
   version="1.1"
   id="svg3"
   sodipodi:docname="US9No30VARB.svg"
   inkscape:version="1.3 (0e150ed6c4, 2023-07-21)"
   width="1800"
   height="1800"
   xmlns:inkscape="http://www.inkscape.org/namespaces/inkscape"
   xmlns:sodipodi="http://sodipodi.sourceforge.net/DTD/sodipodi-0.dtd"
   xmlns="http://www.w3.org/2000/svg"
   xmlns:svg="http://www.w3.org/2000/svg">
  <defs
     id="defs3" />
  <sodipodi:namedview
     id="namedview3"
     pagecolor="#ffffff"
     bordercolor="#666666"
     borderopacity="1.0"
     inkscape:showpageshadow="2"
     inkscape:pageopacity="0.0"
     inkscape:pagecheckerboard="0"
     inkscape:deskcolor="#d1d1d1"
     inkscape:zoom="0.239375"
     inkscape:cx="148.30287"
     inkscape:cy="749.86945"
     inkscape:window-width="1920"
     inkscape:window-height="1017"
     inkscape:window-x="-8"
     inkscape:window-y="-8"
     inkscape:window-maximized="1"
     inkscape:current-layer="svg3" />
  <path
     d="M 465.00769,0 C 372.82989,1.1817671 288.33357,23.635337 224.51816,75.633073 158.33922,128.2217 116.38649,209.7636 116.97738,309.62289 v 498.7056 h 68.54247 V 309.03202 c 0,-81.54192 30.72593,-139.44849 81.54191,-180.21944 49.04332,-38.998305 118.17668,-60.27011 196.1733,-60.27011 h 9.45413 c 77.40572,0 147.12998,21.271805 196.1733,60.27011 50.81597,40.77095 81.54193,98.67752 81.54193,180.21944 v 499.29647 h 68.54246 V 309.62289 C 819.53774,209.7636 777.58501,128.2217 711.40609,75.633073 647.59064,23.635337 563.09435,1.1817671 470.91652,0 Z"
     style="fill:#000000;stroke:none;stroke-width:99.1848"
     id="path1" />
  <path
     d="M 1335.6436,0 C 1243.4658,1.1817671 1158.9695,23.635337 1095.154,75.633073 1028.9751,128.2217 987.02238,209.7636 987.61325,309.62289 v 498.7056 h 68.54245 V 309.03202 c 0,-81.54192 30.726,-139.44849 81.542,-180.21944 49.0433,-38.998305 118.1767,-60.27011 196.1733,-60.27011 h 9.4543 c 77.4058,0 147.13,21.271805 196.1733,60.27011 50.8159,40.77095 81.5419,98.67752 81.5419,180.21944 v 499.29647 h 68.5425 V 309.62289 C 1690.1736,209.7636 1648.221,128.2217 1582.042,75.633073 1518.2266,23.635337 1433.7303,1.1817671 1341.5525,0 Z"
     style="fill:#000000;stroke:none;stroke-width:99.1848"
     id="path2" />
  <path
     d="m 900.32561,976.99492 c -92.17778,1.18179 -176.67411,23.63528 -240.48951,75.63308 -66.17894,52.5886 -108.13166,134.1305 -107.54078,233.9898 v 498.7056 h 68.54247 v -499.2965 c 0,-81.5419 30.72594,-139.4485 81.54191,-180.2194 49.04331,-38.9983 118.17669,-60.2701 196.1733,-60.2701 h 9.45406 c 77.40575,0 147.13004,21.2718 196.17334,60.2701 50.816,40.7709 81.542,98.6775 81.542,180.2194 v 499.2965 h 68.5424 v -498.7056 c 0.5952,-99.8593 -41.3618,-181.4012 -107.5407,-233.9898 -63.8155,-51.9978 -148.31181,-74.45129 -240.48964,-75.63308 z"
     style="fill:#000000;stroke:none;stroke-width:99.1848"
     id="path3" />
</svg>
