<?xml version="1.0" encoding="UTF-8" standalone="no"?>
<svg
   width="1798.907"
   height="1454.0686"
   version="1.1"
   id="svg280"
   xmlns="http://www.w3.org/2000/svg"
   xmlns:svg="http://www.w3.org/2000/svg">
  <defs
     id="defs284" />
  <path
     id="path278"
     style="fill:#000000;stroke:none;stroke-width:91.9569"
     d="M 827.61133,0 V 488.52148 H 339.0918 V 359.20703 c 0.49932,0.0135 0.99513,0.0195 1.49023,0.0195 34.6642,0 59.61059,-33.07346 78.9707,-100.59765 19.63662,-68.48865 55.55904,-103.45118 103.45313,-103.45118 10.53668,-11.49457 14.36719,-25.86358 14.36719,-43.10546 0,-45.020455 -35.91985,-75.673663 -106.32422,-89.083989 C 360.64447,9.5780166 308.43838,5.7480469 270.12305,5.7480469 c -38.31533,0 -93.39446,3.8299097 -163.79883,17.2402341 C 35.919855,36.398607 0,67.051815 0,112.07227 c 0,17.24188 6.7055098,31.61089 17.242188,43.10546 46.936275,0 77.587599,34.96253 97.703122,103.45118 19.83231,67.52419 46.18316,100.59765 79.05078,100.59765 0.46898,0 0.94009,-0.005 1.41211,-0.0195 v 129.31445 h -2.87304 L 1.0984481,489.8145 0.18849433,549.4547 183.91406,548.86719 h 11.49414 v 295.98633 h -8.62109 L 1.0158407,843.0869 -0.08260637,902.72519 195.4082,905.20117 V 1454.0684 H 339.0918 V 905.20117 h 488.51953 v 186.78713 c -33.52587,0 -57.95136,34.9625 -77.58789,103.4512 -19.63662,68.4886 -52.68404,103.4511 -100.57813,103.4511 -9.57885,10.5367 -17.24218,22.9906 -17.24219,40.2324 0,45.9784 35.9219,78.5467 106.32618,91.9571 70.40436,13.4103 126.4414,17.2422 163.79882,17.2422 39.27317,0 90.99837,-3.8321 160.92388,-17.2422 69.9254,-13.4104 106.3242,-45.9787 106.3242,-91.9571 0,-17.2418 -3.8308,-29.6957 -14.3672,-40.2324 -46.9364,0 -83.3356,-34.9625 -103.4512,-103.4511 -20.1155,-68.4887 -45.9791,-103.4512 -80.46288,-103.4512 V 905.20117 H 1459.8164 V 1451.1953 H 1597.752 V 905.20117 l 201.7124,-1.29493 1.2637,-59.63828 -202.9761,0.58556 V 548.86719 l 201.4413,1.76857 -0.9099,-60.82129 -200.5314,-1.29299 v -132.1875 c 34.4836,0 63.2203,-32.08949 83.3359,-100.57812 20.1156,-68.48863 53.6418,-103.45313 100.5781,-103.45313 10.5366,-10.53668 17.2402,-25.86163 17.2402,-43.10351 0,-45.978366 -36.3985,-72.800613 -106.3242,-86.210939 C 1622.6565,9.5779566 1568.0563,2.8730469 1528.7832,2.8730469 c -37.3575,0 -90.5196,6.7049097 -160.9238,20.1152341 -70.4045,13.410326 -106.3262,40.232573 -106.3262,86.210939 0,17.24188 3.8329,32.56683 14.3691,43.10351 46.9364,0 83.3356,34.9645 103.4512,103.45313 20.1156,68.48854 46.937,100.57812 80.4629,100.57812 v 132.1875 H 971.29492 V 0 Z m 48.85351,51.726562 h 48.85157 V 844.85352 h -48.85157 z m 652.31836,17.240235 c 76.6304,0 136.9776,12.45311 183.9141,34.484373 -50.7677,33.52587 -79.0263,74.71575 -89.084,126.44141 -10.0578,51.72566 -25.8631,80.46289 -45.9785,80.46289 -16.2839,0 -25.8614,15.3251 -25.8614,51.72461 h 2.8731 v 482.77344 h -48.8516 v -479.9004 c 0,-37.35742 -8.6219,-54.59765 -22.9902,-54.59765 -21.0735,0 -35.9208,-28.73723 -45.9785,-80.46289 -10.0578,-51.72566 -41.1893,-92.91554 -91.9571,-126.44141 45.9784,-22.031263 107.2836,-34.484373 183.9141,-34.484373 z m -1258.66015,2.875 c 76.63056,0 137.93571,9.57811 183.91406,31.609373 -50.76774,34.48378 -81.89926,78.06782 -91.95703,129.31445 -10.05776,51.24675 -25.86299,77.58985 -45.97852,77.58985 -15.32614,0 -22.98828,20.11524 -22.98828,57.47265 v 477.0254 h -51.72656 v -477.0254 c 0,-37.35741 -5.74699,-57.47265 -20.11524,-57.47265 -21.07343,0 -36.39966,-26.3431 -45.97851,-77.58985 C 165.71411,181.51899 135.0616,137.93495 83.335938,103.45117 130.27221,81.419907 193.49246,71.841797 270.12305,71.841797 Z M 339.0918,548.86719 H 827.61133 V 844.85352 H 339.0918 Z m 632.20312,0 H 1459.8164 V 844.85352 H 971.29492 Z m -729.9082,356.33398 h 51.72656 v 497.14263 h -51.72656 z m 635.07812,0 h 48.85157 v 181.03903 c 0,36.3996 6.70457,57.4746 22.98828,57.4746 20.11553,0 35.92084,22.9892 45.97851,74.7149 10.0578,51.7256 41.1893,95.7887 91.957,129.3144 -46.9362,22.0313 -107.2815,31.6094 -183.91208,31.6094 -76.63057,0 -137.93568,-9.5781 -183.91406,-31.6094 50.76775,-33.5257 79.02435,-77.5888 89.08203,-129.3144 10.05776,-51.7257 27.78007,-74.7149 48.85352,-74.7149 14.36825,0 20.11523,-20.1171 20.11523,-57.4746 z m 629.33006,0 h 48.8516 v 497.14263 h -48.8516 z" />
</svg>
