<?xml version="1.0" encoding="UTF-8" standalone="no"?>
<svg
   width="1800"
   height="1800"
   version="1.1"
   id="svg1672"
   xmlns="http://www.w3.org/2000/svg"
   xmlns:svg="http://www.w3.org/2000/svg">
  <defs
     id="defs1676" />
  <path
     id="path1670"
     style="fill:#000000;stroke:none;stroke-width:100.136"
     d="m 0,0 v 499.21793 l 260.46246,-157.36107 535.41237,-2.5208 v 370.79691 h 135.658 V 1502.37 c -45.43787,16.907 -71.88177,51.4202 -79.35387,103.5149 H 678.27792 v 60.2166 H 851.6556 c 3.13024,20.6097 9.55022,45.2404 20.18786,75.0259 12.05844,37.3809 34.36668,56.0708 66.92437,56.0708 -15.11233,-58.0631 -24.45784,-100.8396 -29.07727,-131.0967 h 118.07714 c -4.3487,30.257 -13.1844,73.0337 -27.5013,131.0967 33.7635,0 56.0717,-18.0864 66.9244,-54.2616 9.9827,-30.6613 15.9344,-55.8716 18.749,-76.8351 h 190.9193 v -60.2166 h -190.639 c -5.0862,-52.0947 -31.92,-86.6079 -80.5279,-103.5149 V 618.67699 l -3.0922,-99.40877 -78.85507,0.49308 -0.0894,98.91569 H 868.22693 V 339.33606 l 669.23247,5.49795 260.4625,157.36107 V 2.9771485 Z M 81.394396,81.394396 1716.5275,84.371545 V 371.96482 L 1537.4594,263.43961 260.46246,260.46246 81.394396,368.98767 Z M 967.70783,1554.8243 c 33.92867,0 54.01247,17.2022 60.68907,51.0606 H 909.27108 c 7.15833,-33.8583 26.50415,-51.0606 58.43675,-51.0606 z" />
</svg>
