<?xml version="1.0" encoding="UTF-8" standalone="no"?>
<svg
   id="svg2"
   version="1.1"
   inkscape:version="1.2.1 (9c6d41e410, 2022-07-14)"
   width="1800"
   height="1800"
   sodipodi:docname="US9No80000VARB.svg"
   viewBox="0 0 1687.5 1687.5"
   xmlns:inkscape="http://www.inkscape.org/namespaces/inkscape"
   xmlns:sodipodi="http://sodipodi.sourceforge.net/DTD/sodipodi-0.dtd"
   xmlns="http://www.w3.org/2000/svg"
   xmlns:svg="http://www.w3.org/2000/svg"
   xmlns:rdf="http://www.w3.org/1999/02/22-rdf-syntax-ns#"
   xmlns:cc="http://creativecommons.org/ns#"
   xmlns:dc="http://purl.org/dc/elements/1.1/">
  <metadata
     id="metadata12">
    <rdf:RDF>
      <cc:Work
         rdf:about="">
        <dc:format>image/svg+xml</dc:format>
        <dc:type
           rdf:resource="http://purl.org/dc/dcmitype/StillImage" />
      </cc:Work>
    </rdf:RDF>
  </metadata>
  <defs
     id="defs10" />
  <sodipodi:namedview
     pagecolor="#ffffff"
     bordercolor="#666666"
     borderopacity="1"
     objecttolerance="10"
     gridtolerance="10"
     guidetolerance="10"
     inkscape:pageopacity="0"
     inkscape:pageshadow="2"
     inkscape:window-width="1920"
     inkscape:window-height="1032"
     id="namedview8"
     showgrid="false"
     inkscape:zoom="0.28057602"
     inkscape:cx="1361.4849"
     inkscape:cy="618.37074"
     inkscape:window-x="0"
     inkscape:window-y="0"
     inkscape:window-maximized="0"
     inkscape:current-layer="svg2"
     inkscape:snap-grids="true"
     inkscape:showpageshadow="2"
     inkscape:pagecheckerboard="0"
     inkscape:deskcolor="#d1d1d1">
    <inkscape:grid
       type="xygrid"
       id="grid3065"
       empspacing="45"
       visible="true"
       enabled="true"
       snapvisiblegridlinesonly="true"
       spacingx="10.666667"
       spacingy="10.666667"
       empcolor="#ff0000"
       empopacity="0.83137255"
       dotted="false"
       originx="0"
       originy="0" />
  </sodipodi:namedview>
  <g
     id="g473"
     transform="matrix(0.91013568,0,0,0.91013568,-0.26604605,-0.39195219)">
    <g
       id="g462">
      <path
         d="M 81.9088,30.178212 Q 91.7774,67.6787 118.4225,97.284533 L 95.7249,112.08696 Q 72.0404,89.389386 59.2112,43.007342 Z M 36.5137,57.810257 q 12.829,45.395143 57.2374,90.790293 l 35.5268,-26.64466 q 23.6844,28.61845 69.0798,77.96116 V 814.72687 H 133.2253 V 231.49624 Q 3.9475,121.95589 36.5137,57.810257 Z M 94.7379,-4.3615965 Q 20.724,6.4937455 0,67.185254 -20.7238,127.87676 103.6196,248.2729 V 845.31955 H 227.9632 V 181.16707 Q 136.1858,96.297637 94.7379,-4.3615965 Z"
         style="fill:#000000;stroke:none"
         id="path6-7"
         inkscape:connector-curvature="0" />
      <path
         d="m 544.9503,30.178208 q 9.8686,37.500488 36.5137,67.106322 l -22.6976,14.80243 Q 535.0819,89.389382 522.2527,43.007338 Z m -45.3951,27.632045 q 12.829,45.395147 57.2374,90.790297 l 35.5268,-26.64466 q 23.6844,28.61845 69.0798,77.96116 V 814.72687 H 596.2668 V 231.49624 Q 466.989,121.95589 499.5552,57.810253 Z M 557.7794,-4.3616 Q 483.7655,6.493742 463.0415,67.18525 442.3177,127.87676 566.6611,248.2729 V 845.31955 H 691.0047 V 181.16707 Q 599.2273,96.29763 557.7794,-4.3616 Z"
         style="fill:#000000;stroke:none"
         id="path6-7-4"
         inkscape:connector-curvature="0" />
      <path
         d="m 313.42955,30.178208 q 9.8686,37.500488 36.5137,67.106322 l -22.6976,14.80243 q -23.6845,-22.697578 -36.5137,-69.079622 z m -45.3951,27.632045 q 12.829,45.395147 57.2374,90.790297 l 35.5268,-26.64466 q 23.6844,28.61845 69.0798,77.96116 v 614.80982 h -65.1324 V 231.49624 Q 235.46825,121.95589 268.03445,57.810253 Z M 326.25865,-4.3616 q -74.0139,10.855342 -94.7379,71.54685 -20.7238,60.69151 103.6196,181.08765 v 597.04665 h 124.3436 V 181.16707 Q 367.70655,96.29763 326.25865,-4.3616 Z"
         style="fill:#000000;stroke:none"
         id="path6-7-00"
         inkscape:connector-curvature="0" />
      <path
         d="m 776.4711,30.178208 q 9.8686,37.500488 36.5137,67.106322 l -22.6976,14.80243 Q 766.6027,89.389382 753.7735,43.007338 Z M 731.076,57.810253 q 12.829,45.395147 57.2374,90.790297 l 35.5268,-26.64466 q 23.6844,28.61845 69.0798,77.96116 V 814.72687 H 827.7876 V 231.49624 Q 698.5098,121.95589 731.076,57.810253 Z M 789.3002,-4.3616 Q 715.2863,6.493742 694.5623,67.18525 673.8385,127.87676 798.1819,248.2729 V 845.31955 H 922.5255 V 181.16707 Q 830.7481,96.29763 789.3002,-4.3616 Z"
         style="fill:#000000;stroke:none"
         id="path6-7-4-6"
         inkscape:connector-curvature="0" />
      <path
         d="m 1006.8581,35.684522 q 9.8686,37.5005 36.5137,67.106298 l -22.6976,14.8024 Q 996.9897,94.895622 984.1605,48.513622 Z m -45.3951,27.632 q 12.829,45.395198 57.2374,90.790298 l 35.5268,-26.6446 q 23.6844,28.6184 69.0798,77.9611 v 614.8098 h -65.1324 V 237.00252 Q 928.8968,127.46222 961.463,63.316522 Z M 1019.6872,1.1446817 Q 945.6733,12.000032 924.9493,72.691522 904.2255,133.38302 1028.5689,253.77922 v 597.0466 h 124.3436 V 186.67332 Q 1061.1351,101.80392 1019.6872,1.1446817 Z"
         style="fill:#000000;stroke:none"
         id="path6-7-9"
         inkscape:connector-curvature="0" />
      <path
         d="m 1469.8996,35.684522 q 9.8686,37.5005 36.5137,67.106298 l -22.6976,14.8024 Q 1460.0312,94.895622 1447.202,48.513622 Z m -45.3951,27.632 q 12.829,45.395198 57.2374,90.790298 l 35.5268,-26.6446 q 23.6844,28.6184 69.0798,77.9611 v 614.8098 h -65.1324 V 237.00252 Q 1391.9383,127.46222 1424.5045,63.316522 Z m 58.2242,-62.1718403 q -74.0139,10.8553403 -94.7379,71.5468403 -20.7238,60.691498 103.6196,181.087698 v 597.0466 H 1615.954 V 186.67332 Q 1524.1766,101.80392 1482.7287,1.1446817 Z"
         style="fill:#000000;stroke:none"
         id="path6-7-4-8"
         inkscape:connector-curvature="0" />
      <path
         d="m 1238.3788,35.684522 q 9.8686,37.5005 36.5137,67.106298 l -22.6976,14.8024 q -23.6845,-22.697598 -36.5137,-69.079598 z m -45.3951,27.632 q 12.829,45.395198 57.2374,90.790298 l 35.5268,-26.6446 q 23.6844,28.6184 69.0798,77.9611 v 614.8098 h -65.1324 V 237.00252 Q 1160.4175,127.46222 1192.9837,63.316522 Z M 1251.2079,1.1446817 Q 1177.194,12.000022 1156.47,72.691522 1135.7462,133.38302 1260.0896,253.77922 v 597.0466 h 124.3436 V 186.67332 Q 1292.6558,101.80392 1251.2079,1.1446817 Z"
         style="fill:#000000;stroke:none"
         id="path6-7-00-1"
         inkscape:connector-curvature="0" />
      <path
         d="m 1701.4204,35.684522 q 9.8686,37.5005 36.5137,67.106298 l -22.6976,14.8024 Q 1691.552,94.895622 1678.7228,48.513622 Z m -45.3951,27.632 q 12.829,45.395198 57.2374,90.790298 l 35.5268,-26.6446 q 23.6844,28.6184 69.0798,77.9611 v 614.8098 h -65.1324 V 237.00252 Q 1623.4591,127.46222 1656.0253,63.316522 Z m 58.2242,-62.1718403 q -74.0139,10.8553403 -94.7379,71.5468403 -20.7238,60.691498 103.6196,181.087698 v 597.0466 h 124.3436 V 186.67332 Q 1755.6974,101.80392 1714.2495,1.1446817 Z"
         style="fill:#000000;stroke:none"
         id="path6-7-4-6-1"
         inkscape:connector-curvature="0" />
    </g>
  </g>
</svg>
