<?xml version="1.0" encoding="UTF-8" standalone="no"?>
<svg
   version="1.1"
   id="svg2"
   sodipodi:docname="US9NoV20VARB.svg"
   inkscape:version="1.3.2 (091e20e, 2023-11-25, custom)"
   width="1800"
   height="1800"
   xmlns:inkscape="http://www.inkscape.org/namespaces/inkscape"
   xmlns:sodipodi="http://sodipodi.sourceforge.net/DTD/sodipodi-0.dtd"
   xmlns="http://www.w3.org/2000/svg"
   xmlns:svg="http://www.w3.org/2000/svg">
  <defs
     id="defs2" />
  <sodipodi:namedview
     id="namedview2"
     pagecolor="#ffffff"
     bordercolor="#000000"
     borderopacity="0.25"
     inkscape:showpageshadow="2"
     inkscape:pageopacity="0.0"
     inkscape:pagecheckerboard="0"
     inkscape:deskcolor="#d1d1d1"
     inkscape:zoom="0.28458333"
     inkscape:cx="33.382138"
     inkscape:cy="479.64861"
     inkscape:window-width="1920"
     inkscape:window-height="1009"
     inkscape:window-x="-8"
     inkscape:window-y="-8"
     inkscape:window-maximized="1"
     inkscape:current-layer="svg2" />
  <path
     id="path1"
     style="fill:#000000;stroke:none;stroke-width:100"
     d="M 361.13281 0 C 265.48652 1.2262348 177.81042 24.524192 111.59375 78.478516 C 42.924604 133.04597 -0.60725801 217.65662 0.005859375 321.27344 L 0.005859375 838.74609 L 71.128906 838.74609 L 71.128906 320.66016 C 71.128906 236.04995 103.01018 175.96523 155.73828 133.66016 C 206.62701 93.194404 278.36147 71.121094 359.29297 71.121094 L 369.10352 71.121094 C 449.42189 71.121094 521.76947 93.194404 572.6582 133.66016 C 625.38628 175.96523 657.26953 236.04995 657.26953 320.66016 L 657.26953 838.74609 L 728.39062 838.74609 L 728.39062 321.27344 C 729.00375 217.65662 685.47187 133.04597 616.80273 78.478516 C 550.58601 24.524192 462.91 1.2262348 367.26367 0 L 361.13281 0 z M 361.13281 961.25391 C 265.48652 962.48014 177.81042 985.7801 111.59375 1039.7344 C 42.924604 1094.3018 -0.60725801 1178.9125 0.005859375 1282.5293 L 0.005859375 1800 L 71.128906 1800 L 71.128906 1281.916 C 71.128906 1197.3059 103.01018 1137.2191 155.73828 1094.9141 C 206.62701 1054.4483 278.36147 1032.377 359.29297 1032.377 L 369.10352 1032.377 C 449.42189 1032.377 521.76947 1054.4483 572.6582 1094.9141 C 625.38628 1137.2191 657.26953 1197.3059 657.26953 1281.916 L 657.26953 1800 L 728.39062 1800 L 728.39062 1282.5293 C 729.00375 1178.9125 685.47187 1094.3018 616.80273 1039.7344 C 550.58601 985.7801 462.91 962.48014 367.26367 961.25391 L 361.13281 961.25391 z " />
</svg>
