<?xml version="1.0" encoding="UTF-8" standalone="no"?>
<!-- Created with Inkscape (http://www.inkscape.org/) -->

<svg
   width="1299.266"
   height="1071.0422"
   id="svg2"
   version="1.0"
   xmlns="http://www.w3.org/2000/svg"
   xmlns:svg="http://www.w3.org/2000/svg"
   xmlns:rdf="http://www.w3.org/1999/02/22-rdf-syntax-ns#"
   xmlns:cc="http://creativecommons.org/ns#"
   xmlns:dc="http://purl.org/dc/elements/1.1/">
  <path
     id="path1"
     style="fill:#000000;fill-opacity:1;stroke:none;stroke-width:61.8645;stroke-linecap:round;stroke-linejoin:miter;stroke-miterlimit:4;stroke-dasharray:none;stroke-opacity:1"
     d="m 1290.658,0.09246143 c -38.8118,1.02825887 -77.7105,0.1561476 -116.5562,0.4451626 0,69.81797897 0,139.63594597 0,209.45393597 -92.384,0 -184.76794,0 -277.15193,0 0,-69.81799 0,-139.635957 0,-209.45393597 -41.74986,0 -83.49971,0 -125.24956,0 0,69.81797897 0,139.63594597 0,209.45393597 -82.83882,0 -165.67765,0 -248.51647,0 0,-69.81799 0,-139.635957 0,-209.45393597 -41.74985,0 -83.49971,0 -125.24956,0 0,69.81797897 0,139.63594597 0,209.45393597 -90.24709,0 -180.49418,0 -270.74127,0 0,-69.81799 0,-139.635957 0,-209.45393597 -42.235541,0 -84.471086,0 -126.70662954,0 C 2.4560611,143.77154 -3.5791624,287.30566 3.7415628,430.3447 33.58293,712.47824 240.30776,974.14014 515.42329,1052.3671 c 128.4578,36.9946 268.68824,17.6897 385.46681,-46.0778 243.1104,-124.7718 406.3518,-393.71813 397.846,-667.7957 1.9686,-110.71327 -2.3993,-221.8156 0.5239,-332.2355999 -0.3092,-4.2531578 -4.7569,-6.78388967 -8.602,-6.16553867 z M 132.13099,320.93708 c 348.59242,0.0523 697.18485,0.0271 1045.77731,0.0294 8.5738,273.1879 -171.9021,553.39278 -440.41669,627.65904 C 592.73605,983.50076 441.37539,918.14963 339.83343,815.26054 209.08546,691.36314 118.10364,516.40007 119.56863,334.06022 c 0.67463,-6.3627 5.4445,-13.50448 12.56236,-13.12314 z" />
  <defs
     id="defs4" />
  <metadata
     id="metadata7">
    <rdf:RDF>
      <cc:Work
         rdf:about="">
        <dc:format>image/svg+xml</dc:format>
        <dc:type
           rdf:resource="http://purl.org/dc/dcmitype/StillImage" />
        <dc:creator>
          <cc:Agent>
            <dc:title>Serge Rosmorduc</dc:title>
          </cc:Agent>
        </dc:creator>
        <dc:description>N104 sign, from Nefertari's tomb.&#10;</dc:description>
      </cc:Work>
    </rdf:RDF>
  </metadata>
</svg>
