<?xml version="1.0" encoding="UTF-8" standalone="no"?>
<svg
   width="17.999001"
   height="6"
   version="1.1"
   id="svg536"
   sodipodi:docname="US9N16VARA.svg"
   inkscape:version="1.2.1 (9c6d41e410, 2022-07-14)"
   xmlns:inkscape="http://www.inkscape.org/namespaces/inkscape"
   xmlns:sodipodi="http://sodipodi.sourceforge.net/DTD/sodipodi-0.dtd"
   xmlns="http://www.w3.org/2000/svg"
   xmlns:svg="http://www.w3.org/2000/svg">
  <defs
     id="defs540" />
  <sodipodi:namedview
     id="namedview538"
     pagecolor="#ffffff"
     bordercolor="#000000"
     borderopacity="0.25"
     inkscape:showpageshadow="2"
     inkscape:pageopacity="0.0"
     inkscape:pagecheckerboard="0"
     inkscape:deskcolor="#d1d1d1"
     showgrid="false"
     inkscape:zoom="24.230867"
     inkscape:cx="9.7190085"
     inkscape:cy="3.0126863"
     inkscape:window-width="1920"
     inkscape:window-height="1137"
     inkscape:window-x="-8"
     inkscape:window-y="-8"
     inkscape:window-maximized="1"
     inkscape:current-layer="svg536" />
  <path
     id="path534"
     style="fill:#000000;stroke:none"
     d="M 1.2792969,0.01757813 C 0.4574864,0.00632014 0.046875,0.43830648 0.046875,1.3164062 c 0,0.8668419 0.41061152,1.300325 1.2324219,1.3007813 L 16.851562,2.625 c 0.754267,4.189e-4 1.13086,-0.4106107 1.13086,-1.2324219 0,-0.92313034 -0.376593,-1.37844546 -1.13086,-1.36718747 z M 1.515625,0.7265625 16.496094,0.734375 c 0.506595,2.9241e-4 0.759765,0.20846579 0.759765,0.625 0,0.3715036 -0.257538,0.5566406 -0.77539,0.5566406 L 1.4980469,1.890625 c -0.4953382,0 -0.74218752,-0.1914578 -0.74218752,-0.5742188 0,-0.39401887 0.25316962,-0.5901361 0.75976562,-0.5898437 z M 0.40246834,3.1445312 c -0.14634255,0.00146 -0.21636749,0.1022965 -0.2109375,0.2988282 l -0.001953,2.1660156 c -0.005007,0.1923061 0.0700753,0.30936 0.22460938,0.3476562 1.9210793,0.024969 3.3036382,0.025356 4.1503906,0.00391 C 5.1101929,5.9632799 5.3918158,5.7629028 5.4102808,5.3574219 5.4140855,4.9581492 5.1464332,4.7026805 4.6075465,4.59375 3.7595926,4.2946637 1.1740851,3.1716678 0.40246834,3.1445312 Z M 17.629031,3.1601562 c -0.771616,0.027137 -3.357124,1.1501325 -4.205078,1.4492188 -0.538886,0.1089305 -0.806539,0.362446 -0.802734,0.7617188 0.01847,0.4054808 0.30204,0.6078111 0.847656,0.6054687 0.846752,0.02145 2.229311,0.01911 4.150391,-0.00586 0.154533,-0.038296 0.229616,-0.153397 0.224609,-0.3457031 l -0.002,-2.1679688 c 0.0054,-0.1965317 -0.06655,-0.2954125 -0.212891,-0.296875 z M 0.8282496,3.7460938 c 0.00745,-5.884e-4 0.0145553,-5.613e-4 0.0234375,0 0.0501895,-0.00397 1.7627916,0.6604851 3.1855468,1.1347656 C 4.4289114,5.0114263 4.705723,5.1326586 4.7052027,5.2539062 4.7147874,5.5215711 4.47032,5.4441692 4.0645777,5.4863281 1.9971557,5.4628171 0.94064967,5.4339067 0.89270272,5.4023438 0.83208178,5.4020828 0.81102687,5.3763917 0.83215584,5.3242188 L 0.77746834,3.84375 c -0.0180328,-0.060441 -0.001368,-0.093538 0.0507813,-0.097656 z m 16.3535164,0.015625 c 0.07106,-0.00449 0.09483,0.026627 0.07422,0.095703 l -0.05664,1.4824219 c 0.02113,0.052173 0.002,0.077864 -0.05859,0.078125 C 17.0928,5.4495317 16.034345,5.476489 13.966922,5.5 13.56118,5.457841 13.316712,5.535243 13.326297,5.2675781 13.325777,5.1463304 13.604542,5.0250982 13.996219,4.8945312 15.418974,4.4202508 17.131576,3.7577526 17.181766,3.7617188 Z M 9.0352808,4.8671875 c -0.1688658,0 -0.3092984,0.055161 -0.421875,0.1621094 -0.1125766,0.1069479 -0.1679687,0.2325564 -0.1679687,0.3789062 0,0.1463499 0.055392,0.2697746 0.1679687,0.3710938 0.1125766,0.1013192 0.2530092,0.1523437 0.421875,0.1523437 0.1688652,0 0.3134348,-0.051025 0.4316407,-0.1523437 C 9.5851273,5.6779777 9.6427027,5.554553 9.6427027,5.4082031 9.6427027,5.2618533 9.5851273,5.1362448 9.4669215,5.0292969 9.3487156,4.922349 9.204146,4.8671875 9.0352808,4.8671875 Z m -1.9238281,0.017578 c -0.1688651,0 -0.3112509,0.051025 -0.4238281,0.1523438 -0.1125766,0.1013192 -0.1679688,0.2247439 -0.1679688,0.3710937 0,0.1463499 0.055392,0.2739115 0.1679688,0.3808594 0.1125772,0.1069479 0.254963,0.1601563 0.4238281,0.1601563 0.1688651,0 0.3092984,-0.053208 0.421875,-0.1601563 C 7.6459049,5.6821146 7.7012965,5.554553 7.7012965,5.4082031 7.7012965,5.2618533 7.6459046,5.1384286 7.5333277,5.0371094 7.4207511,4.9357902 7.2803178,4.8847656 7.1114527,4.8847656 Z m 3.8652343,0 c -0.168865,0 -0.309298,0.051025 -0.421875,0.1523438 -0.112577,0.1013192 -0.167968,0.2247439 -0.167968,0.3710937 0,0.1463499 0.05539,0.2739115 0.167968,0.3808594 0.112577,0.1069479 0.25301,0.1601563 0.421875,0.1601563 0.168865,0 0.313435,-0.053208 0.431641,-0.1601563 0.118206,-0.1069479 0.177734,-0.2345095 0.177734,-0.3808594 0,-0.1463498 -0.05953,-0.2697745 -0.177734,-0.3710937 C 11.290122,4.9357902 11.145552,4.8847656 10.976687,4.8847656 Z"
     sodipodi:nodetypes="csccsccccsccscccccccccccccccccscscccccsccccccscsssssssssssssssssssssssssss" />
</svg>
