<?xml version="1.0" encoding="UTF-8" standalone="no"?>
<svg
   id="svg2"
   version="1.1"
   inkscape:version="1.2.1 (9c6d41e410, 2022-07-14)"
   width="1800"
   height="1800"
   sodipodi:docname="US9No80VARB.svg"
   viewBox="0 0 1687.5 1687.5"
   xmlns:inkscape="http://www.inkscape.org/namespaces/inkscape"
   xmlns:sodipodi="http://sodipodi.sourceforge.net/DTD/sodipodi-0.dtd"
   xmlns="http://www.w3.org/2000/svg"
   xmlns:svg="http://www.w3.org/2000/svg"
   xmlns:rdf="http://www.w3.org/1999/02/22-rdf-syntax-ns#"
   xmlns:cc="http://creativecommons.org/ns#"
   xmlns:dc="http://purl.org/dc/elements/1.1/">
  <metadata
     id="metadata18">
    <rdf:RDF>
      <cc:Work
         rdf:about="">
        <dc:format>image/svg+xml</dc:format>
        <dc:type
           rdf:resource="http://purl.org/dc/dcmitype/StillImage" />
      </cc:Work>
    </rdf:RDF>
  </metadata>
  <defs
     id="defs16" />
  <sodipodi:namedview
     pagecolor="#ffffff"
     bordercolor="#666666"
     borderopacity="1"
     objecttolerance="10"
     gridtolerance="10"
     guidetolerance="10"
     inkscape:pageopacity="0"
     inkscape:pageshadow="2"
     inkscape:window-width="1920"
     inkscape:window-height="1017"
     id="namedview14"
     showgrid="false"
     inkscape:zoom="0.13924403"
     inkscape:cx="983.88422"
     inkscape:cy="402.17165"
     inkscape:window-x="-8"
     inkscape:window-y="-8"
     inkscape:window-maximized="1"
     inkscape:current-layer="svg2"
     inkscape:showpageshadow="2"
     inkscape:pagecheckerboard="0"
     inkscape:deskcolor="#d1d1d1" />
  <g
     id="g907">
    <path
       style="fill:#000000;stroke:none;stroke-width:0.926484"
       d="M 205.98583,-10.282532 C 150.97018,-9.8072727 93.706531,6.7258305 54.279349,46.563992 18.839966,81.741978 2.3658865,133.25726 5.2863144,182.80245 c 0,92.27198 0,184.54396 0,276.81594 17.8058576,0 35.6117146,0 53.4175726,0 0.431511,-101.87206 -0.925951,-203.76727 0.78172,-305.62379 3.321583,-38.22858 27.307477,-74.247957 61.669063,-91.171782 39.98607,-21.156594 87.40041,-23.312406 131.32906,-16.242416 38.04925,7.024641 75.91911,27.293601 94.84876,62.190218 14.27661,25.48898 15.85791,55.61623 14.62107,84.28105 0,88.85558 0,177.71115 0,266.56672 17.80586,0 35.61172,0 53.41758,0 -0.45024,-103.01983 1.00127,-206.0677 -0.83963,-309.06915 C 409.48955,93.426083 374.02884,39.999345 322.45502,14.52884 286.77957,-4.0204841 245.94806,-10.669341 205.98583,-10.282532 Z"
       id="path4"
       inkscape:connector-curvature="0" />
    <path
       style="fill:#000000;stroke:none;stroke-width:0.926484"
       d="M 667.72212,-10.282532 C 614.11966,-9.7760477 558.33537,5.8030774 519.07361,43.628392 481.21979,79.101721 463.87426,132.49692 467.0226,183.69998 c 0,91.9728 0,183.94561 0,275.91841 17.80586,0 35.61171,0 53.41757,0 0.43151,-101.87206 -0.92595,-203.76727 0.78172,-305.62379 3.40203,-39.05191 28.25655,-75.613195 63.86947,-92.271981 41.37053,-21.00853 90.4804,-22.46871 135.41137,-13.868302 38.05163,8.325877 75.226,30.888374 91.82897,67.283553 11.92727,25.17677 12.24385,53.63605 11.35815,80.95383 0,87.84223 0,175.68446 0,263.52669 17.80585,0 35.61171,0 53.41757,0 -0.44979,-103.04881 1.00061,-206.12541 -0.83963,-309.15601 C 871.26781,93.662086 835.89612,40.332024 784.95125,14.906242 749.09658,-3.9101056 707.95874,-10.676469 667.72212,-10.282532 Z"
       id="path6"
       inkscape:connector-curvature="0" />
    <path
       style="fill:#000000;stroke:none;stroke-width:0.926484"
       d="m 1129.4584,-10.282532 c -53.559,0.4779075 -109.2745,16.1165658 -148.58481,53.793956 -37.4607,35.22477 -55.15564,88.201306 -52.08571,139.175216 0,92.31059 -9e-5,184.62116 0,276.93175 17.80581,0 35.61172,0 53.41753,0 0.43128,-102.02647 -0.92556,-204.0761 0.78176,-306.08703 3.65545,-39.17593 28.64253,-75.683131 64.62423,-92.212975 40.9765,-20.481799 89.0514,-21.94239 133.4192,-13.700371 38.0528,7.949927 75.7658,30.381158 92.5828,66.647106 12.2504,25.02829 12.7176,53.50741 11.8127,80.9001 0,88.15105 1e-4,176.30211 0,264.45317 17.8059,0 35.6118,0 53.4176,0 -0.4505,-103.01015 1.0016,-206.04858 -0.8397,-309.0402 -4.9517,-56.536348 -39.8329,-109.553414 -90.5057,-135.266611 -36.0416,-19.1078645 -77.4917,-25.98104 -118.0399,-25.594111 z"
       id="path8"
       inkscape:connector-curvature="0" />
    <path
       style="fill:#000000;stroke:none;stroke-width:0.926484"
       d="M 205.98583,603.25231 C 150.97018,603.72756 93.706531,620.26066 54.279349,660.09883 18.839966,695.27681 2.3658865,746.7921 5.2863144,796.33729 c 0,92.27198 0,184.54391 0,276.81591 17.8058576,0 35.6117146,0 53.4175726,0 0.431511,-101.87204 -0.925951,-203.76725 0.78172,-305.62376 3.435566,-38.9516 27.986589,-75.28097 63.493083,-92.09827 40.63719,-20.75171 88.57758,-22.52254 132.84383,-14.63361 40.33905,7.96803 80.27364,32.13385 96.28715,71.40969 10.24754,23.68535 10.71977,49.91114 9.84389,75.30575 0,88.54674 0,177.0935 0,265.6402 17.80586,0 35.61172,0 53.41758,0 -0.45024,-103.01977 1.00127,-206.06767 -0.83963,-309.06912 -5.04196,-57.12316 -40.50267,-110.54989 -92.07649,-136.0204 -35.67545,-18.54933 -76.50696,-25.19818 -116.46919,-24.81137 z"
       id="path4-5"
       inkscape:connector-curvature="0" />
    <path
       style="fill:#000000;stroke:none;stroke-width:0.926484"
       d="m 667.72212,603.25231 c -53.60246,0.50648 -109.38675,16.08561 -148.64851,53.91092 -37.85382,35.47333 -55.19935,88.86852 -52.05101,140.07159 0,91.9728 0,183.94564 0,275.91838 17.80586,0 35.61171,0 53.41757,0 0.43151,-101.87204 -0.92595,-203.76725 0.78172,-305.62376 3.34728,-38.59217 27.76904,-74.9296 62.65853,-91.63998 41.10039,-21.363 89.78838,-23.0489 134.62458,-14.93459 37.37695,7.75831 74.17756,28.94019 92.01141,63.98527 13.36715,25.68544 14.24102,55.37897 13.17344,83.75991 0,88.15106 0,176.30215 0,264.45315 17.80585,0 35.61171,0 53.41757,0 -0.44979,-103.04876 1.00061,-206.12538 -0.83963,-309.15598 -4.99998,-56.8003 -40.37167,-110.13036 -91.31654,-135.55614 -35.85467,-18.81635 -76.99251,-25.58271 -117.22913,-25.18877 z"
       id="path6-9"
       inkscape:connector-curvature="0" />
    <path
       style="fill:#000000;stroke:none;stroke-width:0.926484"
       d="m 1129.4584,603.25231 c -53.559,0.4779 -109.2745,16.11656 -148.58481,53.79395 -37.4607,35.22477 -55.15564,88.20131 -52.08571,139.17522 0,92.31058 -9e-5,184.62118 0,276.93172 17.80581,0 35.61172,0 53.41753,0 0.43128,-102.02648 -0.92556,-204.07607 0.78176,-306.08701 3.65545,-39.17592 28.64253,-75.68312 64.62423,-92.21297 40.9765,-20.4818 89.0514,-21.94239 133.4192,-13.70037 38.0528,7.94993 75.7658,30.38116 92.5828,66.64711 12.2504,25.02828 12.7176,53.50741 11.8127,80.90009 0,88.15106 1e-4,176.30215 0,264.45315 17.8059,0 35.6118,0 53.4176,0 -0.4505,-103.01013 1.0016,-206.04855 -0.8397,-309.04017 -4.9517,-56.53635 -39.8329,-109.55341 -90.5057,-135.26661 -36.0416,-19.10787 -77.4917,-25.98104 -118.0399,-25.59411 z"
       id="path8-54"
       inkscape:connector-curvature="0" />
    <path
       style="fill:#000000;stroke:none;stroke-width:0.926484"
       d="m 430.02426,1216.7871 c -55.01566,0.4753 -112.2793,17.0084 -151.70648,56.8465 -35.43939,35.1781 -51.91346,86.6933 -48.99304,136.2385 0,92.272 0,184.544 0,276.816 17.80586,-10e-5 35.61172,0 53.41757,0 0.43151,-101.8721 -0.92595,-203.7673 0.78172,-305.6238 3.32283,-38.388 27.58114,-74.7274 62.31149,-91.4656 41.89125,-21.8355 91.81464,-23.4633 137.60631,-14.5299 38.26544,8.4603 75.54261,31.5309 91.77979,68.4149 11.10602,24.5138 11.74212,52.1625 10.77037,78.7511 0,88.1512 0,176.3022 0,264.4533 17.80586,-10e-5 35.61171,0 53.41757,0 -0.45023,-103.0199 1.00128,-206.0677 -0.83962,-309.0692 -5.02319,-56.7977 -40.09433,-109.9736 -91.22969,-135.5851 -35.82052,-18.8634 -77.03563,-25.6198 -117.31599,-25.2467 z"
       id="path4-5-8"
       inkscape:connector-curvature="0" />
    <path
       style="fill:#000000;stroke:none;stroke-width:0.926484"
       d="m 891.76054,1216.7871 c -53.60246,0.5065 -109.38674,16.0857 -148.64851,53.911 -37.85381,35.4733 -55.19935,88.8685 -52.05101,140.0715 0,91.9729 0,183.9456 0,275.9185 17.80586,-10e-5 35.61172,0 53.41758,0 0.43122,-101.8914 -0.92555,-203.8056 0.78172,-305.6818 3.47924,-39.4026 28.60584,-75.9917 64.62223,-92.6193 40.63159,-20.2974 88.46536,-21.9475 132.63883,-13.8701 38.86942,7.8744 77.40062,30.9717 94.06012,68.1852 11.8867,25.3216 11.9532,53.8964 11.1467,81.3857 0,87.5334 0,175.0669 0,262.6003 17.8059,-10e-5 35.6117,0 53.4176,0 -0.4499,-103.0295 1.001,-206.0868 -0.8396,-309.0981 -5.0636,-57.776 -41.3651,-111.6099 -93.6633,-136.83 -35.29389,-17.8752 -75.50097,-24.3692 -114.88236,-23.9729 z"
       id="path6-9-3"
       inkscape:connector-curvature="0" />
  </g>
</svg>
