<?xml version="1.0" encoding="UTF-8" standalone="no"?>
<svg
   id="svg2"
   version="1.1"
   inkscape:version="1.2.2 (732a01da63, 2022-12-09)"
   width="2048"
   height="2048"
   sodipodi:docname="US9No70VARB.svg"
   viewBox="0 0 1920 1920"
   xmlns:inkscape="http://www.inkscape.org/namespaces/inkscape"
   xmlns:sodipodi="http://sodipodi.sourceforge.net/DTD/sodipodi-0.dtd"
   xmlns="http://www.w3.org/2000/svg"
   xmlns:svg="http://www.w3.org/2000/svg"
   xmlns:rdf="http://www.w3.org/1999/02/22-rdf-syntax-ns#"
   xmlns:cc="http://creativecommons.org/ns#"
   xmlns:dc="http://purl.org/dc/elements/1.1/">
  <metadata
     id="metadata18">
    <rdf:RDF>
      <cc:Work
         rdf:about="">
        <dc:format>image/svg+xml</dc:format>
        <dc:type
           rdf:resource="http://purl.org/dc/dcmitype/StillImage" />
      </cc:Work>
    </rdf:RDF>
  </metadata>
  <defs
     id="defs16" />
  <sodipodi:namedview
     pagecolor="#ffffff"
     bordercolor="#666666"
     borderopacity="1"
     objecttolerance="10"
     gridtolerance="10"
     guidetolerance="10"
     inkscape:pageopacity="0"
     inkscape:pageshadow="2"
     inkscape:window-width="1920"
     inkscape:window-height="1017"
     id="namedview14"
     showgrid="false"
     inkscape:zoom="0.069622013"
     inkscape:cx="-1299.8762"
     inkscape:cy="531.44111"
     inkscape:window-x="-8"
     inkscape:window-y="-8"
     inkscape:window-maximized="1"
     inkscape:current-layer="svg2"
     inkscape:showpageshadow="2"
     inkscape:pagecheckerboard="0"
     inkscape:deskcolor="#d1d1d1" />
  <path
     d="m 731.44928,1031.7968 c -87.48557,1.1205 -167.68066,22.432 -228.2476,71.7828 -62.81015,49.9116 -102.6273,127.3028 -102.0665,222.0789 v 473.3196 h 65.05337 v -473.8804 c 0,-77.3912 29.16186,-132.3498 77.39108,-171.0457 46.54681,-37.0128 112.161,-57.202 186.18725,-57.202 h 8.97288 c 73.46543,0 139.64043,20.1892 186.18725,57.202 48.22918,38.6959 77.39109,93.6545 77.39109,171.0457 v 473.8804 h 65.0534 v -473.3196 c 0.5608,-94.7761 -39.2564,-172.1673 -102.06654,-222.0789 -60.56697,-49.3508 -140.76204,-70.6611 -228.24763,-71.7828 z"
     style="fill:#000000;stroke:none"
     id="path4-9"
     inkscape:connector-curvature="0" />
  <path
     d="m 1509.7419,1031.7968 c -87.4855,1.1205 -167.6806,22.432 -228.2475,71.7828 -62.8102,49.9116 -102.6273,127.3028 -102.0665,222.0789 v 473.3196 h 65.0533 v -473.8804 c 0,-77.3912 29.1619,-132.3498 77.3911,-171.0457 46.5469,-37.0128 112.161,-57.202 186.1873,-57.202 h 8.9728 c 73.4654,0 139.6405,20.1892 186.1873,57.202 48.2292,38.6959 77.3911,93.6545 77.3911,171.0457 v 473.8804 h 65.0533 v -473.3196 c 0.5609,-94.7761 -39.2563,-172.1673 -102.0664,-222.0789 -60.567,-49.3508 -140.7621,-70.6611 -228.2477,-71.7828 z"
     style="fill:#000000;stroke:none"
     id="path6-3"
     inkscape:connector-curvature="0" />
  <path
     d="m 2288.0347,1031.7968 c -87.4856,1.1205 -167.6808,22.432 -228.2477,71.7828 -62.8101,49.9116 -102.6272,127.3028 -102.0665,222.0789 v 473.3196 h 65.0534 v -473.8804 c 0,-77.3912 29.1619,-132.3498 77.391,-171.0457 46.5469,-37.0128 112.161,-57.202 186.1873,-57.202 h 8.9728 c 73.4656,0 139.6406,20.1892 186.1873,57.202 48.2293,38.6959 77.3912,93.6545 77.3912,171.0457 v 473.8804 h 65.0533 v -473.3196 c 0.5609,-94.7761 -39.2563,-172.1673 -102.0664,-222.0789 -60.5671,-49.3508 -140.7621,-70.6611 -228.2477,-71.7828 z"
     style="fill:#000000;stroke:none"
     id="path8-8"
     inkscape:connector-curvature="0" />
  <path
     d="M 343.64088,-2.3588676 C 256.15531,-1.238302 175.96022,20.073148 115.39328,69.423914 52.583127,119.33551 12.765978,196.72671 13.326782,291.50289 V 764.82244 H 78.380155 V 290.94206 c 0,-77.3912 29.161855,-132.34983 77.391075,-171.04571 46.54681,-37.012786 112.161,-57.201985 186.18725,-57.201985 h 8.97288 c 73.46543,0 139.64043,20.189199 186.18725,57.201985 48.22918,38.69588 77.39108,93.65451 77.39108,171.04571 v 473.88038 h 65.0534 V 291.50289 C 680.12392,196.72671 640.30669,119.33551 577.49656,69.423914 516.92959,20.073148 436.73452,-1.2371843 349.24893,-2.3588676 Z"
     style="fill:#000000;stroke:none"
     id="path4"
     inkscape:connector-curvature="0" />
  <path
     d="M 1121.9335,-2.3588676 C 1034.448,-1.238302 954.25288,20.073148 893.68595,69.423914 830.87582,119.33551 791.05865,196.72671 791.61948,291.50289 v 473.31955 h 65.05335 V 290.94206 c 0,-77.3912 29.16183,-132.34983 77.39108,-171.04571 46.54684,-37.012786 112.16099,-57.201985 186.18729,-57.201985 h 8.9728 c 73.4654,0 139.6405,20.189199 186.1873,57.201985 48.2292,38.69588 77.3911,93.65451 77.3911,171.04571 v 473.88038 h 65.0533 V 291.50289 c 0.5609,-94.77618 -39.2563,-172.16738 -102.0664,-222.078976 -60.567,-49.350766 -140.7621,-70.6610983 -228.2477,-71.7827816 z"
     style="fill:#000000;stroke:none"
     id="path6"
     inkscape:connector-curvature="0" />
  <path
     d="M 1900.2263,-2.3588676 C 1812.7407,-1.238302 1732.5455,20.073148 1671.9786,69.423914 1609.1685,119.33551 1569.3514,196.72671 1569.9121,291.50289 v 473.31955 h 65.0534 V 290.94206 c 0,-77.3912 29.1619,-132.34983 77.391,-171.04571 46.5469,-37.012786 112.161,-57.201985 186.1873,-57.201985 h 8.9728 c 73.4656,0 139.6406,20.189199 186.1873,57.201985 48.2293,38.69588 77.3912,93.65451 77.3912,171.04571 v 473.88038 h 65.0533 V 291.50289 C 2236.7093,196.72671 2196.8921,119.33551 2134.082,69.423914 2073.5149,20.073148 1993.3199,-1.2371843 1905.8343,-2.3588676 Z"
     style="fill:#000000;stroke:none"
     id="path8"
     inkscape:connector-curvature="0" />
  <path
     d="m 2675.8431,-2.3589 c -87.4856,1.1205656 -167.6808,22.432016 -228.2477,71.782782 -62.8101,49.911598 -102.6272,127.302798 -102.0665,222.078978 v 473.31955 h 65.0534 V 290.94203 c 0,-77.3912 29.1619,-132.34983 77.391,-171.04571 46.5469,-37.012788 112.161,-57.201987 186.1873,-57.201987 h 8.9728 c 73.4656,0 139.6406,20.189199 186.1873,57.201987 48.2293,38.69588 77.3912,93.65451 77.3912,171.04571 v 473.88038 h 65.0533 V 291.50286 C 3012.3261,196.72668 2972.5089,119.33548 2909.6988,69.423882 2849.1317,20.073116 2768.9367,-1.2372167 2681.4511,-2.3589 Z"
     style="fill:#000000;stroke:none"
     id="path8-5"
     inkscape:connector-curvature="0" />
</svg>
