<?xml version="1.0" encoding="UTF-8" standalone="no"?>
<svg
   width="1116.7366"
   height="1799.9893"
   version="1.1"
   id="svg1"
   xmlns="http://www.w3.org/2000/svg"
   xmlns:svg="http://www.w3.org/2000/svg">
  <defs
     id="defs1" />
  <path
     id="path2"
     style="stroke-width:80.5507"
     d="M 546.42773 1.1113281 C 464.28469 0.26705342 378.53844 29.970543 325.61914 95.054688 C 264.69492 163.08366 241.2041 259.22303 257.13477 348.38477 C 272.08914 449.50462 349.06523 533.4039 443.41797 568.77148 L 394.33008 580.76953 C 317.98156 587.95285 233.47919 713.15152 182.27148 804.50195 C 18.911708 1095.9227 64.712891 1691.1866 64.712891 1796.3145 L 151.16602 1796.3145 C 151.16602 1685.6531 100.54949 1096.8296 251.90039 834.21289 C 299.00944 752.47151 359.13872 658.09655 450.14453 655.9707 L 503.625 652.91016 L 500.81641 1799.9883 L 587.27148 1799.9883 L 590.07812 652.13477 L 686.24219 656.125 C 739.34855 649.89012 787.85119 702.07352 839.65039 797.15234 C 983.46932 1061.1359 961.89453 1678.8208 961.89453 1796.3145 L 1048.3477 1796.3145 C 1048.3477 1686.5309 1091.1936 1022.864 901.87891 748.96484 C 840.87578 660.70593 788.23527 592.28952 711.17578 580.92383 C 690.38228 577.85695 673.85069 575.41819 648.79492 571.72266 C 659.81309 568.05839 670.69743 564.03836 681.22461 559.32227 C 757.4038 522.2669 810.1235 446.91003 833.83398 367.10352 C 859.81319 279.04477 834.16065 182.20319 778.4375 111.00195 C 733.62034 46.657658 658.3557 7.8304985 580.75195 2.59375 C 569.34213 1.5733055 557.88332 1.0635311 546.42773 1.1113281 z M 550.73438 62.904297 C 618.66999 62.316524 690.22854 88.322377 729.74023 146.10938 C 776.89755 207.7812 796.97241 292.96335 768.62305 367.02148 C 740.7886 446.14026 671.00606 513.09907 585.66016 523.04102 C 499.34615 537.18227 407.14887 499.98686 356.39844 428.4043 C 311.07606 364.87706 304.5511 277.79798 331.53125 205.62695 C 359.19903 135.66593 422.12538 78.596847 497.82812 67.410156 C 515.27297 64.256877 533.01674 62.923654 550.73438 62.904297 z M 548.82031 221.40039 C 515.76921 221.56511 483.01523 245.15243 480.48242 279.66406 C 474.92209 314.71948 496.76656 354.3128 533.69336 359.98242 C 570.96789 369.62124 613.30875 343.27223 618.31445 304.32617 C 627.93878 265.51419 596.40746 224.52804 556.69531 222.22852 C 554.08575 222.28952 551.44862 221.13358 548.82031 221.40039 z " />
</svg>
