<?xml version="1.0" encoding="UTF-8" standalone="no"?>
<svg
   width="1799.5281"
   height="803.50342"
   version="1.1"
   id="svg533"
   xmlns="http://www.w3.org/2000/svg"
   xmlns:svg="http://www.w3.org/2000/svg">
  <defs
     id="defs537" />
  <path
     id="path531"
     style="fill:#000000;stroke:none;stroke-width:100"
     d="M 1686.3887 0.01953125 L 123.27148 1.1816406 C 41.090442 0.055841771 0 43.399008 0 131.20898 C -1.8947787e-14 217.89317 41.090465 261.29544 123.27148 261.23438 L 1686.3887 260.07227 C 1761.8152 260.01622 1799.5273 218.9819 1799.5273 136.80078 C 1799.5273 44.487736 1761.8152 -1.1062676 1686.3887 0.01953125 z M 1650.9258 70.943359 C 1701.5852 70.904238 1726.916 91.770399 1726.916 133.42383 C 1726.916 170.57419 1701.0235 189.15039 1649.2383 189.15039 L 145.22461 188.62305 C 95.690798 188.62305 70.923828 169.48509 70.923828 131.20898 C 70.923828 91.807093 96.252514 72.14459 146.91211 72.105469 L 1650.9258 70.943359 z M 882.23438 311.25977 C 865.34778 311.25977 851.27719 316.60795 840.01953 327.30273 C 828.76187 337.99752 823.13281 350.66189 823.13281 365.29688 C 823.13281 379.93186 828.76187 392.31535 840.01953 402.44727 C 851.27719 412.57919 865.34778 417.64453 882.23438 417.64453 C 899.12089 417.64453 913.47433 412.57919 925.29492 402.44727 C 937.11551 392.31535 943.02734 379.93186 943.02734 365.29688 C 943.02734 350.66189 937.11551 337.99752 925.29492 327.30273 C 913.47433 316.60795 899.12089 311.25977 882.23438 311.25977 z M 689.72852 312.94922 C 672.842 312.94922 658.76944 318.01456 647.51172 328.14648 C 636.25406 338.2784 630.625 350.66189 630.625 365.29688 C 630.625 379.93186 636.25406 392.59623 647.51172 403.29102 C 658.76944 413.9858 672.842 419.33398 689.72852 419.33398 C 706.61503 419.33398 720.68765 413.9858 731.94531 403.29102 C 743.20303 392.59623 748.83203 379.93186 748.83203 365.29688 C 748.83203 350.66189 743.20303 338.2784 731.94531 328.14648 C 720.68765 318.01456 706.61503 312.94922 689.72852 312.94922 z M 1076.4297 312.94922 C 1059.5431 312.94922 1045.4725 318.01456 1034.2148 328.14648 C 1022.9572 338.2784 1017.3281 350.66189 1017.3281 365.29688 C 1017.3281 379.93186 1022.9572 392.59623 1034.2148 403.29102 C 1045.4725 413.9858 1059.5431 419.33398 1076.4297 419.33398 C 1093.3162 419.33398 1107.6696 413.9858 1119.4902 403.29102 C 1131.3108 392.59623 1137.2227 379.93186 1137.2227 365.29688 C 1137.2227 350.66189 1131.3108 338.2784 1119.4902 328.14648 C 1107.6696 318.01456 1093.3162 312.94922 1076.4297 312.94922 z M 350.25391 316.42188 C 326.17356 316.37295 302.03757 330.86835 277.8457 359.91016 C 221.23446 425.70969 130.94434 534.69509 6.9765625 686.86523 C 0.15230926 699.81172 5.5151641 710.71638 23.066406 719.57617 L 157.25391 797.06055 C 173.93759 806.63784 187.63411 805.53825 198.3457 793.75977 C 291.81571 625.90543 357.72374 504.21449 396.06641 428.6875 C 422.19528 380.78869 417.85871 346.39357 383.05664 325.50391 C 372.13406 319.47119 361.19952 316.44411 350.25391 316.42188 z M 1624.334 319.4375 L 1624.334 804.44336 L 1757.0723 804.44336 L 1757.0723 319.4375 L 1624.334 319.4375 z M 336.10352 381.34375 C 337.67727 381.48041 339.12847 381.91091 340.45898 382.63672 C 349.36808 389.87789 346.04024 412.35132 330.47266 450.05664 C 230.17836 630.85741 177.50256 722.61654 172.44727 725.33594 C 169.54407 730.65793 166.29969 731.1504 162.71289 726.8125 L 86.109375 687.16797 C 79.052142 685.69957 77.408861 681.94574 81.179688 675.90625 C 83.215255 671.30155 151.21372 586.5916 285.17578 421.77539 C 308.111 393.8639 325.08721 380.38712 336.10352 381.34375 z " />
</svg>
