<?xml version="1.0" encoding="UTF-8" standalone="no"?>
<svg
   width="1798"
   height="1798"
   id="svg1333"
   sodipodi:version="0.32"
   inkscape:version="1.2.1 (9c6d41e410, 2022-07-14)"
   sodipodi:docname="US9NU15VARA.svg"
   inkscape:output_extension="org.inkscape.output.svg.inkscape"
   version="1.0"
   xmlns:inkscape="http://www.inkscape.org/namespaces/inkscape"
   xmlns:sodipodi="http://sodipodi.sourceforge.net/DTD/sodipodi-0.dtd"
   xmlns="http://www.w3.org/2000/svg"
   xmlns:svg="http://www.w3.org/2000/svg"
   xmlns:rdf="http://www.w3.org/1999/02/22-rdf-syntax-ns#"
   xmlns:cc="http://creativecommons.org/ns#"
   xmlns:dc="http://purl.org/dc/elements/1.1/">
  <metadata
     id="metadata1340">
    <rdf:RDF>
      <cc:Work
         rdf:about="">
        <dc:format>image/svg+xml</dc:format>
        <dc:type
           rdf:resource="http://purl.org/dc/dcmitype/StillImage" />
      </cc:Work>
    </rdf:RDF>
  </metadata>
  <defs
     id="defs1338">
    <inkscape:perspective
       sodipodi:type="inkscape:persp3d"
       inkscape:vp_x="0 : 8.9884033 : 1"
       inkscape:vp_y="0 : 1000 : 0"
       inkscape:vp_z="16.559208 : 8.9884033 : 1"
       inkscape:persp3d-origin="8.279604 : 5.9922689 : 1"
       id="perspective13" />
  </defs>
  <sodipodi:namedview
     inkscape:window-height="1137"
     inkscape:window-width="1920"
     inkscape:pageshadow="2"
     inkscape:pageopacity="0.0"
     borderopacity="1.0"
     bordercolor="#666666"
     pagecolor="#ffffff"
     id="base"
     inkscape:zoom="0.13"
     inkscape:cx="265.38462"
     inkscape:cy="346.15385"
     inkscape:window-x="-8"
     inkscape:window-y="-8"
     inkscape:current-layer="svg1333"
     showgrid="false"
     inkscape:showpageshadow="2"
     inkscape:pagecheckerboard="0"
     inkscape:deskcolor="#d1d1d1"
     inkscape:window-maximized="1" />
  <path
     id="path1335"
     style="fill:#000000;stroke:none;stroke-width:1.03856"
     d="m 1169.1485,7.4980469 c -3.6795,0.06065 -7.5128,0.2359568 -11.5678,0.4785156 C 1032.3301,38.051247 896.45999,53.089844 749.98377,53.089844 c -18.30986,0 -36.79788,-0.246815 -55.43922,-0.716797 -5.57169,-0.140432 -11.09223,-0.205078 -16.5774,-0.205078 -159.6766,0 -282.63795,59.515521 -368.88269,178.544921 -61.83687,37.59333 -99.85269,67.67435 -114.04474,90.23047 -14.19208,22.55594 -16.74951,54.01697 -7.62616,94.42969 -7.61923,18.92103 -13.49588,35.71704 -17.64549,50.33789 l -102.774059,44.97851 42.398909,-1.09179 55.47713,-23.66797 c -1.25529,6.46425 -2.03285,12.34544 -2.35736,17.65625 l -87.414309,53.92578 39.637059,-4.81445 49.17606,-30.08789 c 1.86777,6.97357 5.40882,11.87539 10.60922,14.71874 14.84756,8.11782 35.26,12.37694 61.25994,12.80665 l 48.07218,94.39648 -1.21555,-39.30859 -27.48156,-55.39454 c 2.71896,-0.13189 5.47027,-0.31269 8.28977,-0.51367 3.92413,-2.98829 8.23245,-5.69513 12.89284,-8.12695 l 40.96214,80.46094 -1.17972,-39.3086 -23.79698,-47.94922 c 18.00149,-6.10168 40.053,-9.15234 66.12215,-9.15234 14.7007,2e-5 30.69666,0.99725 47.96262,2.9375 21.28805,94.92329 102.36085,180.916 243.26809,257.98242 -105.42693,-6.10895 -188.67577,-9.1875 -249.75243,-9.1875 -61.07666,0 -99.97287,3.07855 -116.69916,9.1875 -33.45274,12.21769 -50.66717,35.22054 -51.6809,69.05469 25.88606,5.67258 51.53913,8.53711 76.98837,8.53711 29.3639,0 58.44647,-3.78582 87.22889,-11.33789 H 868.6337 c 6.08235,-18.7969 -17.20277,-50.75108 -69.91627,-95.86328 54.21939,13.74833 113.81838,20.62695 178.8418,20.62695 77.21587,0 162.05357,-9.71018 254.50517,-29.09766 l 82.1096,33.84571 c -30.1585,11.31706 -68.4599,16.97265 -114.8938,16.97265 -19.1197,0 -39.6021,-0.94997 -61.4812,-2.86914 -8.6087,-0.75494 -16.8635,-1.12695 -24.7911,-1.12695 -61.1546,0 -102.0615,22.45367 -122.70119,67.38086 40.51119,5.88272 76.89639,8.8125 109.18259,8.8125 34.7696,0 64.7626,-3.38846 89.9928,-10.21094 70.653,-5.69585 130.34,-8.57226 179.0251,-8.57226 31.6441,0 58.64,1.21267 81.0036,3.61914 27.3501,2.94316 56.1785,7.27539 82.1456,7.27539 27.9296,0 52.5605,-4.99396 68.4058,-22.0625 68.5602,-73.85289 69.7737,-131.36955 59.4544,-142.27735 l 51.4978,-161.53711 -34.9202,-11.71484 -46.4522,138.11133 1.9909,-144.94141 -44.4993,0.24024 -1.5485,201.83594 c -21.2537,-66.84976 -47.4922,-105.91556 -108.7043,-158.87305 -79.0702,-52.63083 -180.9467,-79.88009 -305.634,-81.75977 -18.4722,-0.27837 -36.1511,-0.41015 -53.0439,-0.41015 -97.1322,4e-5 -168.15852,4.58978 -213.06265,13.79687 -17.31982,3.55117 -34.58156,5.32813 -51.79256,5.32813 -35.16939,-3e-5 -70.12599,-7.4033 -104.83859,-22.23243 -51.69977,-22.0861 -130.74992,-72.12459 -237.19034,-150.13086 64.55547,23.37913 125.35133,35.07422 182.37892,35.07422 57.59809,0 111.35068,-11.94209 161.27004,-35.79101 99.34456,-47.46158 192.86078,-72.37511 280.54768,-74.72461 87.6864,-2.3496 138.6069,-26.05989 152.7992,-71.17188 -74.0015,-11.27801 -149.5029,-17.86064 -226.5453,-19.74023 71.9734,-25.37554 121.6329,-58.03941 149.0028,-97.982422 25.0162,-36.506872 12.3738,-54.7441411 -37.9769,-54.7441411 -1.1848,0 -2.4202,-0.02022 -3.6467,0 z M 1157.5807,51.65625 c -67.7481,56.05632 -147.2859,84.08203 -238.59119,84.08203 -35.75181,0 -73.31969,-4.2822 -112.68384,-12.87695 -35.10807,-7.66565 -70.26434,-11.50781 -105.50009,-11.50781 -105.16592,0 -210.93402,34.13507 -317.23758,102.41992 86.16612,-72.3671 152.58217,-111.57668 199.21332,-117.685549 33.67777,-4.41208 82.81017,-6.626954 147.42079,-6.626953 24.85039,0 52.02004,0.339556 81.44608,0.992187 8.14885,0.180715 16.34607,0.271484 24.60594,0.271484 99.11661,0 206.23097,-13.042321 321.32657,-39.068359 z M 680.1033,154.21289 c 41.40745,0 87.53252,5.30216 138.35999,15.88086 87.42305,18.19519 171.30954,27.28711 251.66741,27.28711 10.9582,10e-6 21.8477,-0.17337 32.6744,-0.51172 21.6529,-0.67657 39.9403,-1.02539 54.8493,-1.02539 47.2116,0 60.6057,3.3921 40.1892,10.17773 -26.8634,8.92846 -80.57,14.58996 -161.1606,16.93946 -80.59074,2.34957 -149.26003,21.14091 -206.0284,56.38476 -38.70557,24.02972 -84.02637,36.0293 -135.92677,36.0293 -24.2207,-10e-6 -49.89417,-2.58736 -76.98837,-7.82031 -85.15238,-16.44727 -142.40765,-34.56414 -171.8055,-54.30078 22.30178,-36.65326 65.1285,-64.82399 128.48599,-84.56055 30.94182,-9.63874 66.15819,-14.48047 105.68335,-14.48047 z M 360.72956,274.05273 c 20.34784,0 38.596,8.33721 54.77771,25.03321 31.42525,32.42428 45.39283,65.08629 41.84485,97.98047 -3.54809,32.89423 -13.96652,59.68292 -31.19983,80.35937 -19.76742,-1.64484 -38.07016,-2.49219 -54.92308,-2.49219 -50.55955,1e-5 -87.9859,7.42998 -112.31516,22.23243 l -13.73973,-2.28907 c 4.11333,-6.69949 11.98307,-20.3022 15.47141,-27.25195 1.0913,0.0649 2.2822,0.10156 3.53499,0.10156 0.7741,3e-5 1.55635,-0.007 2.39528,-0.0332 l 22.06531,-4.64453 c 6.48762,-1.36604 -46.5053,-25.16992 -47.07782,-25.16992 -0.0378,3e-5 0.1477,0.0901 0.58985,0.30664 l 3.60875,20.79883 c 0.16103,0.93051 0.45134,1.85537 0.92271,2.73242 -6.05039,10.00775 -14.59083,23.88943 -18.0879,30.42773 l -12.26714,-2.04883 c 16.21954,-55.45015 22.05975,-93.98735 17.49801,-115.60351 -4.56185,-21.61614 16.70061,-47.69778 63.83853,-78.24219 22.86546,-14.81648 43.89499,-22.19727 63.06326,-22.19727 z m 0.88479,21.51563 c -13.00716,-10e-6 -67.61592,17.80179 -90.83973,43.61133 -10.84248,12.04946 -14.50382,27.12069 -14.18214,39.54687 -1.74305,8.9464 1.62257,20.69316 11.86269,36.33789 9.58283,6.84052 20.17571,9.8711 30.13175,9.8711 22.25262,3e-5 41.38855,-15.18726 39.37793,-37.05469 -2.16835,-23.58149 -12.48111,-35.38281 -32.0109,-35.38281 -4.94896,1e-5 -10.50081,0.73388 -16.64904,2.2539 -1.88438,0.46595 -3.69157,0.97573 -5.45207,1.50391 1.13705,-3.76229 1.89362,-7.16015 3.7562,-9.5293 18.95005,-24.10466 60.95377,-37.8822 74.07905,-47.0957 3.92508,-2.75526 3.41903,-4.0625 -0.0738,-4.0625 z m 148.96707,92.96094 c 1.81236,0 4.0814,2.35142 6.8151,7.10351 130.92173,101.5622 237.19618,152.35157 318.82181,152.35157 11.28167,0 22.07566,-0.96427 32.41537,-2.9043 60.31638,-11.31714 112.25011,-16.97266 155.7822,-16.97266 17.9246,-2e-5 34.4297,0.95049 49.5088,2.86914 51.6999,6.57905 85.9002,34.0753 102.6267,82.47656 16.7269,48.40148 20.2776,78.7273 10.6471,90.94532 -9.6302,12.21791 -48.9084,20.42884 -117.841,24.6582 -17.2335,1.05734 -34.5587,1.57031 -52.0137,1.57031 -52.36487,0 -105.73196,-4.75979 -160.09245,-14.27539 -24.46223,-4.28202 -45.13433,-6.41992 -62.0331,-6.41992 -33.17254,0 -51.77812,8.2595 -55.80787,24.75977 -2.44231,9.99973 -9.41135,14.99218 -20.92348,14.99218 -17.15999,-1.1e-4 -44.42713,-11.11406 -81.73893,-33.33203 C 574.40438,679.22814 529.05588,638.14138 500.67164,593.0293 472.28773,547.91764 465.95267,514.05195 481.66523,491.49609 c 15.71268,-22.55594 23.57578,-47.68114 23.57578,-75.40625 0,-18.37972 1.77664,-27.56054 5.34041,-27.56054 z M 1266.028,534.04883 c 48.1891,-2e-5 98.1944,21.29784 150.0353,63.89844 66.9059,54.98025 101.6412,99.63939 104.175,133.94335 2.5342,34.30387 -14.7179,55.43126 -51.7188,63.41993 -7.6706,1.65633 -15.4609,2.49218 -23.3925,2.49218 -30.3297,0 -62.5809,-12.12372 -96.7323,-36.33593 -43.0831,-30.54465 -74.4977,-62.96187 -94.2651,-97.26563 -19.7672,-34.30396 -29.6536,-75.88452 -29.6536,-124.75586 13.6953,-3.59763 27.5486,-5.39648 41.552,-5.39648 z M 194.61416,966.4043 l -31.02497,46.4062 c -43.0276,66.4456 -53.96993,75.6803 -97.031262,142.1153 l -14.988978,20.6894 c 21.392556,7.0892 42.785026,14.1766 64.17769,21.2657 6.6535,-9.9669 13.3866,-19.9072 19.8259,-29.9414 26.83826,-42.0895 21.68968,-27.0261 48.56302,-69.1387 4.01032,-6.2821 8.0199,-12.566 12.03122,-18.8477 18.58152,22.7321 37.25466,45.4261 55.74468,68.1953 10.04355,13.8676 20.08607,27.7361 30.12963,41.6036 10.51297,-14.5013 20.95835,-29.0275 31.59168,-43.4864 18.93116,-23.3438 37.86442,-46.6867 56.7938,-70.0312 18.66243,24.7937 37.40218,49.5603 55.94481,74.3965 9.44475,13.0402 18.89002,26.0808 28.33475,39.1211 11.22822,-15.4878 22.38645,-31.001 33.75522,-46.4395 16.84154,-22.3594 33.68548,-44.7185 50.52645,-67.0781 19.42205,23.971 38.91247,47.9136 58.25585,71.914 10.04355,13.8676 20.08607,27.7361 30.12963,41.6036 10.64157,-14.6773 21.2156,-29.3794 31.9793,-44.0137 17.5542,-22.3758 35.10897,-44.751 52.66262,-67.127 29.20646,37.2303 58.41373,74.4594 87.62075,111.6895 11.36542,-15.6701 22.65206,-31.3669 34.15548,-46.9883 16.9631,-22.5221 33.92547,-45.0443 50.88881,-67.5664 18.63796,24.7285 37.20294,49.4812 55.9448,74.1719 10.55912,13.4609 21.11882,26.9218 31.67804,40.3828 11.39739,-15.7164 22.72102,-31.4571 34.25662,-47.125 16.9292,-22.4766 33.8584,-44.9531 50.7877,-67.4297 18.6378,24.7285 37.2052,49.4812 55.9469,74.1719 10.5585,13.4609 21.1155,26.9218 31.6738,40.3828 11.3655,-15.6701 22.6519,-31.3669 34.1554,-46.9883 16.9633,-22.5205 33.9239,-45.0425 50.8889,-67.5625 18.8168,25.0008 37.7132,49.9728 56.4061,75.0176 9.5459,13.1779 19.0923,26.3552 28.6382,39.5332 12.2404,-15.624 24.5567,-31.2195 36.6646,-46.8926 16.9865,-22.5528 33.9699,-45.106 50.9584,-67.6582 18.8166,25.0008 37.713,49.9728 56.4061,75.0176 9.5459,13.1779 19.0923,26.3552 28.638,39.5332 12.2402,-15.624 24.557,-31.2195 36.6645,-46.8926 16.9275,-22.4765 33.8554,-44.9535 50.7835,-67.4297 22.3127,28.5799 44.5321,57.1943 66.9818,85.7227 7.2008,9.1162 14.4032,18.2314 21.6039,27.3476 11.5316,-13.4908 61.5043,-9.4824 61.5043,-9.4824 l -62.2268,-94.6269 c 0,0 -38.9442,-50.0086 -58.5446,-74.9649 L 1572.7892,970.25 c -9.5579,13.77499 -19.0517,27.57162 -28.7098,41.3125 -19.0396,23.4772 -38.0803,46.9538 -57.1181,70.4316 -18.6616,-24.7934 -37.4047,-49.5587 -55.9469,-74.3945 -9.4448,-13.04087 -18.8902,-26.0802 -28.3347,-39.12108 -11.2294,15.48858 -22.3872,31.00163 -33.7554,46.44138 -16.8416,22.3584 -33.6834,44.7157 -50.5244,67.0742 -19.4223,-23.9702 -38.9129,-47.9119 -58.2557,-71.9121 -10.0436,-13.86814 -20.0883,-27.7354 -30.1318,-41.60348 -10.5103,14.50308 -20.9621,29.02545 -31.5916,43.48628 -18.9305,23.3433 -37.8651,46.6855 -56.7939,70.0293 -18.6613,-24.7934 -37.4023,-49.5587 -55.9448,-74.3945 -9.4448,-13.04087 -18.8899,-26.0802 -28.3347,-39.12108 -11.2292,15.48858 -22.3869,31.00163 -33.7553,46.44138 -16.8415,22.3584 -33.68342,44.7157 -50.52429,67.0742 -19.42225,-23.9702 -38.91513,-47.9119 -58.25794,-71.9121 -10.04356,-13.86814 -20.08608,-27.7354 -30.12963,-41.60348 -10.62684,14.65448 -21.18494,29.33143 -31.92663,43.94528 -17.57132,22.3985 -35.14232,44.7968 -52.71318,67.1953 -29.20659,-37.2307 -58.41584,-74.4608 -87.62287,-111.69137 -11.36643,15.67049 -22.64996,31.36956 -34.15338,46.99027 -16.9631,22.5216 -33.92769,45.0448 -50.8909,67.5664 -18.63695,-24.7285 -37.1989,-49.4838 -55.94692,-74.1719 -10.55844,-13.46148 -21.11749,-26.92338 -31.67593,-40.38477 -11.36656,15.67039 -22.65197,31.36956 -34.15549,46.99027 -16.96334,22.52 -33.92404,45.043 -50.88881,67.5625 -18.78076,-24.955 -37.64406,-49.8815 -56.30505,-74.8789 -9.57938,-13.22471 -19.15985,-26.44928 -28.73923,-39.67387 -12.23967,15.62469 -24.55638,31.22106 -36.66455,46.89457 -16.98554,22.5538 -33.97019,45.1084 -50.95621,67.6621 -29.14255,-38.693 -58.28447,-77.3871 -87.42693,-116.0801 z m 1594.53034,320.9219 -1762.796641,2.0625 -18.1679498,5.1875 -2.629128,28.1562 v 33.9063 l 37.0774478,-1.9063 c 20.140294,-1.0412 27.397673,8.9892 30.807988,15.0938 116.994823,209.4216 281.722003,69.5095 303.967663,-6.1875 l 280.57514,2.9375 243.56512,248.6562 0.0127,188.1114 h 68.96405 l -0.316,-161.7051 97.17651,-2.5313 -32.4595,-80.0312 89.3566,-38.4375 -97.2103,-152.4375 752.3014,-8.5 z m -1482.39002,73.8437 c 9.22506,43.9332 -135.22964,110.1958 -162.90483,3.4063 z m 452.17633,2.4063 h 138.23145 l 3.64034,135.4687 v 20.4063 z m 226.81285,5.0937 h 0.87638 l 82.61536,127.7188 -42.8077,19.0937 c -13.1,-24.9322 -20.4097,-78.9947 -40.68404,-146.8125 z m -24.43741,31.75 44.52665,191.4688 -35.62805,-1.0625 -7.04473,-113.5938 z" />
</svg>
