<?xml version="1.0" encoding="UTF-8" standalone="no"?>
<svg
   width="1783.459"
   height="1800.584"
   id="svg2"
   version="1.0"
   xmlns="http://www.w3.org/2000/svg"
   xmlns:svg="http://www.w3.org/2000/svg"
   xmlns:rdf="http://www.w3.org/1999/02/22-rdf-syntax-ns#"
   xmlns:cc="http://creativecommons.org/ns#"
   xmlns:dc="http://purl.org/dc/elements/1.1/">
  <metadata
     id="metadata9">
    <rdf:RDF>
      <cc:Work
         rdf:about="">
        <dc:format>image/svg+xml</dc:format>
        <dc:type
           rdf:resource="http://purl.org/dc/dcmitype/StillImage" />
      </cc:Work>
    </rdf:RDF>
  </metadata>
  <defs
     id="defs7" />
  <path
     id="path2442"
     style="fill:#000000;stroke:none"
     d="M 0,0 V 510.81445 L 280.67578,349.21094 h 575.71875 l -1.76562,838.71096 H 632.79688 v 70 h 221.68359 l -0.0352,16.9863 c -93.55827,0 -130.68778,45.7047 -181.36523,142.2949 H 522.9961 v 234.045 h 148.13476 c 51.97691,97.8284 104.04977,149.3359 226.19531,149.3359 122.14553,0 178.10723,-51.5075 230.08393,-149.3359 h 148.1328 v -234.045 h -150.082 c -53.2762,-96.5902 -96.2439,-142.2949 -191.10152,-142.2949 h -1.94922 v -16.9863 H 1142.498 v -70 H 932.41016 V 349.21094 H 1502.7832 L 1783.459,510.81445 V 0 Z M 87.71094,83.587891 H 1695.748 V 377.07422 L 1502.7832,265.62305 H 280.67578 L 87.71094,377.07422 Z M 897.32617,1341.7793 c 27.28788,0 53.77747,4.1566 77.96485,15.7891 55.58428,26.7323 74.30458,89.9007 75.65228,93.0312 10.3953,24.1476 17.9922,57.62 17.9922,83.625 0,27.2434 -3.9992,65.8253 -14.3945,89.3535 -10.317,23.351 -29.3844,75.2737 -79.24998,93.418 -24.99905,9.0962 -50.67697,14.8594 -77.96485,14.8594 -27.28787,0 -54.54521,-2.2415 -77.96484,-14.8594 -48.62352,-26.197 -70.40802,-79.9852 -75.58789,-91.0195 -11.0451,-23.5284 -14.16797,-64.5086 -14.16797,-91.752 0,-26.005 3.12287,-64.2762 14.16797,-88.4238 11.22501,-24.5409 40.37421,-67.9751 75.58789,-88.2324 23.26432,-13.3832 50.67697,-15.7891 77.96484,-15.7891 z M 579.52149,1478.5 h 68.21875 v 113.3086 h -68.21875 z m 573.22651,0 h 68.2188 v 113.3086 h -68.2188 z" />
</svg>
