<?xml version="1.0" encoding="UTF-8" standalone="no"?>
<svg
   id="svg2"
   version="1.1"
   inkscape:version="1.3.2 (091e20e, 2023-11-25, custom)"
   width="1800"
   height="1800"
   sodipodi:docname="US9No400VARA.svg"
   xmlns:inkscape="http://www.inkscape.org/namespaces/inkscape"
   xmlns:sodipodi="http://sodipodi.sourceforge.net/DTD/sodipodi-0.dtd"
   xmlns="http://www.w3.org/2000/svg"
   xmlns:svg="http://www.w3.org/2000/svg"
   xmlns:rdf="http://www.w3.org/1999/02/22-rdf-syntax-ns#"
   xmlns:cc="http://creativecommons.org/ns#"
   xmlns:dc="http://purl.org/dc/elements/1.1/">
  <metadata
     id="metadata18">
    <rdf:RDF>
      <cc:Work
         rdf:about="">
        <dc:format>image/svg+xml</dc:format>
        <dc:type
           rdf:resource="http://purl.org/dc/dcmitype/StillImage" />
      </cc:Work>
    </rdf:RDF>
  </metadata>
  <defs
     id="defs16" />
  <sodipodi:namedview
     pagecolor="#ffffff"
     bordercolor="#666666"
     borderopacity="1"
     objecttolerance="10"
     gridtolerance="10"
     guidetolerance="10"
     inkscape:pageopacity="0"
     inkscape:pageshadow="2"
     inkscape:window-width="1920"
     inkscape:window-height="1009"
     id="namedview14"
     showgrid="false"
     inkscape:zoom="0.22878236"
     inkscape:cx="1429.306"
     inkscape:cy="330.00796"
     inkscape:window-x="-8"
     inkscape:window-y="-8"
     inkscape:window-maximized="1"
     inkscape:current-layer="svg2"
     inkscape:showpageshadow="2"
     inkscape:pagecheckerboard="0"
     inkscape:deskcolor="#d1d1d1" />
  <path
     id="path4"
     style="fill:#000000;stroke:none;stroke-width:0.888737"
     d="m 193.28483,1.4960938 c -26.36422,0 -54.14361,5.5546852 -83.33808,16.6653892 C 49.268127,41.255276 15.759459,98.086304 9.4199219,188.65149 12.136882,274.68842 47.00411,355.74557 114.02228,431.8203 c 53.43343,66.11261 86.48926,109.12978 99.16832,129.05411 33.50919,49.81087 53.43484,98.26518 59.77436,145.35899 h 58.41307 C 322.32153,639.21526 295.60579,574.00667 251.22883,510.61099 212.28588,458.98894 170.62576,407.36601 126.24885,355.74383 79.154957,280.57468 60.815637,214.23577 71.230657,156.72654 81.64564,99.21798 113.34284,67.520152 166.32345,61.633748 c 9.06247,-1.004794 17.64744,-1.510227 25.75598,-1.510227 39.29515,0 67.38882,11.824842 84.28041,35.472934 20.37715,28.527715 24.67933,60.676995 12.90583,96.449915 -10.00112,30.38825 -28.82284,45.58241 -56.46857,45.58241 -4.89923,0 -10.07758,-0.46462 -15.53098,-1.4295 -36.22606,-6.34156 -50.26322,-28.52813 -42.11236,-66.56552 l -29.88579,-57.05734 c -23.54697,25.35826 -34.18909,52.07541 -31.92495,80.15059 2.26413,28.07522 14.71629,52.98092 37.35759,74.71657 19.75969,18.96877 45.2108,28.45351 76.35206,28.45351 4.54143,0 9.20387,-0.19927 13.98734,-0.59853 37.58455,-3.16744 66.566,-19.24685 86.94314,-48.22704 20.37712,-28.98086 28.52854,-67.69696 24.45315,-116.14967 C 348.36087,82.470468 322.09653,45.791946 273.64421,20.886851 248.50387,7.9641712 221.71683,1.5016615 193.28483,1.5016614 Z m 477.05773,0 c -26.36422,0 -54.14361,5.5546852 -83.33809,16.6653892 -60.67862,23.093793 -94.18729,79.924821 -100.52683,170.490007 2.71696,86.03693 37.58558,167.09408 104.60375,243.16881 53.43343,66.11261 86.48926,109.12978 99.16832,129.05411 33.50924,49.81087 53.43343,98.26518 59.77297,145.35899 h 58.41447 C 799.38059,639.21526 772.66346,574.00667 728.28655,510.61099 689.34362,458.98894 647.68348,407.36601 603.30657,355.74383 556.21268,280.57468 537.87336,214.23577 548.28838,156.72654 c 10.41497,-57.50856 42.11221,-89.206388 95.09279,-95.092792 9.06247,-1.004794 17.64882,-1.510227 25.75738,-1.510227 39.29512,0 67.38884,11.824842 84.28038,35.472934 20.37723,28.527715 24.67785,60.676995 12.90449,96.449915 -10.00111,30.38825 -28.82425,45.58241 -56.46999,45.58241 -4.89891,0 -10.07478,-0.46462 -15.52819,-1.4295 -36.22608,-6.34156 -50.26463,-28.52813 -42.11376,-66.56552 l -29.88579,-57.05595 c -23.54697,25.35824 -34.18911,52.074 -31.92494,80.1492 2.26411,28.07522 14.71628,52.98094 37.35758,74.71657 19.75969,18.96879 45.21084,28.4549 76.35206,28.4549 4.54157,0 9.2039,-0.19926 13.98733,-0.59852 37.58448,-3.16745 66.56601,-19.24546 86.94317,-48.22566 20.37702,-28.98085 28.52714,-67.69976 24.45173,-116.15245 C 825.41684,82.470461 799.15282,45.791947 750.70056,20.886851 725.56012,7.9641855 698.77455,1.5030534 670.34256,1.5030534 Z m 483.00954,0 c -26.3642,0 -54.1437,5.5546873 -83.3381,16.6653892 -60.6786,23.093798 -94.18725,79.924814 -100.52679,170.490007 2.71694,86.03694 37.58409,167.09406 104.60229,243.16881 53.4334,66.11262 86.4893,109.12972 99.1684,129.05411 33.5091,49.81083 53.4362,98.26518 59.7757,145.35899 h 58.4131 c -9.0565,-67.01813 -35.7722,-132.22673 -80.1492,-195.62241 -38.9429,-51.62205 -80.6044,-103.24496 -124.9814,-154.86716 -47.0939,-75.1691 -65.4332,-141.50804 -55.0182,-199.01729 10.4151,-57.50856 42.1135,-89.20639 95.0942,-95.092792 9.0625,-1.0048 17.6475,-1.510227 25.756,-1.510227 39.2952,0 67.3888,11.824842 84.2804,35.472934 20.3772,28.527715 24.6793,60.676985 12.9059,96.449915 -10.0012,30.38829 -28.8243,45.58241 -56.47,45.58241 -4.8992,0 -10.0762,-0.46463 -15.5296,-1.4295 -36.2261,-6.3416 -50.2647,-28.52803 -42.1138,-66.56552 l -29.8844,-57.05734 c -23.5469,25.35826 -34.1904,52.07538 -31.9263,80.15059 2.2642,28.07522 14.7177,52.98096 37.359,74.71657 19.7596,18.96878 45.2107,28.45351 76.352,28.45351 4.5415,0 9.2025,-0.19929 13.986,-0.59853 37.5845,-3.16748 66.5674,-19.24689 86.9445,-48.22704 20.3771,-28.98086 28.5272,-67.69693 24.4517,-116.14967 -4.0754,-48.451382 -30.3397,-85.129906 -78.792,-110.034999 C 1208.5711,7.9641698 1181.7841,1.5016614 1153.3521,1.5016614 Z m 477.0591,0 c -26.3642,0 -54.1435,5.5546873 -83.3381,16.6653892 -60.6786,23.093798 -94.1886,79.924814 -100.5282,170.490007 2.717,86.03694 37.5857,167.09406 104.6038,243.16881 53.4334,66.11262 86.4892,109.12972 99.1683,129.05411 33.5092,49.81083 53.4334,98.26518 59.773,145.35899 h 58.4158 c -9.0566,-67.01813 -35.775,-132.22673 -80.152,-195.62241 -38.9429,-51.62205 -80.603,-103.24496 -124.9799,-154.86716 -47.094,-75.1691 -65.4333,-141.50804 -55.0182,-199.01729 10.415,-57.50856 42.1122,-89.20639 95.0928,-95.092792 9.0625,-1.0048 17.6488,-1.510227 25.7573,-1.510227 39.2952,0 67.3902,11.824842 84.2818,35.472934 20.3772,28.527715 24.6765,60.676985 12.9031,96.449915 -10.0012,30.38829 -28.8229,45.58241 -56.4686,45.58241 -4.8989,0 -10.0762,-0.46463 -15.5296,-1.4295 -36.2261,-6.3416 -50.2646,-28.52803 -42.1138,-66.56552 l -29.8857,-57.05595 c -23.547,25.35824 -34.1891,52.07399 -31.925,80.1492 2.2641,28.07522 14.7177,52.98096 37.359,74.71657 19.7597,18.96885 45.2095,28.4549 76.3506,28.4549 4.5416,0 9.204,-0.19929 13.9874,-0.59852 37.5844,-3.16749 66.566,-19.24544 86.9431,-48.22566 20.3771,-28.98086 28.5286,-67.69971 24.4532,-116.15245 -4.0758,-48.451389 -30.3398,-85.129906 -78.7921,-110.034999 -25.1404,-12.922667 -51.926,-19.3837976 -80.358,-19.3837976 z" />
</svg>
