<?xml version="1.0" encoding="UTF-8" standalone="no"?>
<svg
   width="2199.9988"
   height="1800.1801"
   version="1.1"
   id="svg1"
   xml:space="preserve"
   xmlns="http://www.w3.org/2000/svg"
   xmlns:svg="http://www.w3.org/2000/svg"><defs
     id="defs1" /><path
     id="path1"
     style="fill:#000000;stroke:none;stroke-width:99.6755"
     d="M 940.94727 0 L 940.94727 114.08203 L 1058.7266 254.44531 L 1058.7266 1245.6992 C 1018.8105 1245.6992 993.94971 1275.7665 983.9707 1335.6406 C 975.19962 1363.6543 950.16581 1431.3556 941.91992 1456.5859 C 916.00499 1535.8791 844.24078 1579.2324 699.54492 1579.2324 C 554.84905 1579.2324 341.01117 1536.5808 314.55664 1456.5859 C 301.34095 1416.6235 274.18968 1366.4357 262.92383 1340.3125 C 238.35811 1283.3497 161.60473 1249.3984 0 1249.3984 L 0 1800.1797 L 2199.998 1800.1797 L 2199.998 1249.3984 C 2036.8685 1249.3984 1948.8438 1279.8149 1935.8848 1340.3125 C 1922.9258 1400.8105 1904.7955 1428.5495 1885.4414 1455.6113 C 1836.78 1523.6523 1645.149 1577.985 1500.4531 1579.2324 C 1355.7574 1579.2324 1291.8377 1532.8702 1258.0781 1456.5859 C 1240.9058 1417.7829 1235.1272 1384.884 1226.4453 1368.2578 C 1221.8772 1359.5098 1218.2047 1351.1875 1216.0273 1338.3652 C 1205.5205 1276.4935 1179.2403 1245.6992 1139.3242 1245.6992 L 1139.3242 237.70312 L 940.94727 0 z M 1670.7285 686.51562 C 1566.6745 688.72962 1462.5479 729.8042 1387.4258 802.26562 C 1327.4269 861.08747 1309.8562 949.01256 1311.7188 1030.1465 C 1311.4115 1045.1165 1306.3192 1065.3625 1329.4453 1057.0215 C 1564.4491 1057.0215 1799.4532 1057.0214 2034.457 1057.0215 C 2036.0503 978.71525 2032.4691 893.77017 1983.8223 828.45703 C 1929.078 757.8898 1844.2932 716.56026 1758.8164 696.36328 C 1729.9291 689.90909 1700.3467 686.33813 1670.7285 686.51562 z M 547.10742 689.33398 C 443.05347 691.54798 338.92878 732.6206 263.80664 805.08203 C 203.80775 863.90387 186.23504 951.83094 188.09766 1032.9648 C 187.79037 1047.9348 182.69814 1068.1808 205.82422 1059.8398 C 440.82802 1059.8398 675.83213 1059.8397 910.83594 1059.8398 C 912.42928 981.53364 908.848 896.58853 860.20117 831.27539 C 805.45693 760.70816 720.67218 719.37667 635.19531 699.17969 C 606.30802 692.72549 576.72564 689.15648 547.10742 689.33398 z M 1673.1816 743.63672 C 1756.3264 745.82362 1838.8591 775.68376 1904.9414 826.00781 C 1953.4764 861.82688 1972.0437 923.57859 1973.8301 981.51953 C 1983.431 1004.7627 1963.2727 999.74583 1948.6719 999.89062 L 1374.2246 999.89062 C 1375.0223 939.67729 1387.2764 873.24719 1436.0371 832.67383 C 1499.6878 779.45518 1581.7896 748.48886 1664.457 743.78906 L 1668.4121 743.68555 L 1673.1816 743.63867 L 1673.1816 743.63672 z M 549.56055 746.45508 C 632.70525 748.64198 715.23991 778.50017 781.32227 828.82422 C 829.8572 864.64328 848.42458 926.39695 850.21094 984.33789 C 859.8118 1007.581 839.65162 1002.5642 825.05078 1002.709 L 250.60352 1002.709 C 251.40125 942.49566 263.65532 876.06555 312.41602 835.49219 C 376.06681 782.27354 458.17043 751.30526 540.83789 746.60547 L 544.79102 746.50391 L 549.56055 746.45508 z M 1100 1313.0566 C 1122.4529 1319.2935 1132.1824 1343.1637 1144.9707 1380.416 C 1156.1379 1412.9463 1172.6012 1469.1172 1183.3223 1495.9102 C 1222.1395 1592.9182 1307.1094 1650.9909 1500.4531 1652.2383 C 1693.7967 1652.2383 1930.9142 1592.2637 1975.8594 1495.9102 C 1993.5204 1458.0485 2014.2948 1418.1863 2027.2539 1381.3887 C 2040.2128 1344.591 2068.0834 1326.1016 2110.7715 1326.1016 L 2110.7715 1731.791 L 89.228516 1731.791 L 89.228516 1326.1016 C 131.91659 1326.1016 153.77751 1347.2966 172.74414 1381.3887 C 185.70302 1404.6819 204.02432 1438.4057 224.14062 1495.9102 C 259.24776 1596.2673 506.20133 1652.2383 699.54492 1652.2383 C 892.88849 1650.9911 986.32572 1595.8908 1016.6777 1495.9102 C 1035.9924 1432.287 1047.545 1403.1249 1055.0293 1380.416 C 1067.3578 1343.0089 1077.5471 1319.2934 1100 1313.0566 z " /></svg>
