<?xml version="1.0" encoding="UTF-8" standalone="no"?>
<svg
   id="svg2"
   version="1.1"
   inkscape:version="1.3.2 (091e20e, 2023-11-25, custom)"
   width="1800"
   height="1800"
   sodipodi:docname="US9No50VARB.svg"
   xmlns:inkscape="http://www.inkscape.org/namespaces/inkscape"
   xmlns:sodipodi="http://sodipodi.sourceforge.net/DTD/sodipodi-0.dtd"
   xmlns="http://www.w3.org/2000/svg"
   xmlns:svg="http://www.w3.org/2000/svg"
   xmlns:rdf="http://www.w3.org/1999/02/22-rdf-syntax-ns#"
   xmlns:cc="http://creativecommons.org/ns#"
   xmlns:dc="http://purl.org/dc/elements/1.1/">
  <metadata
     id="metadata18">
    <rdf:RDF>
      <cc:Work
         rdf:about="">
        <dc:format>image/svg+xml</dc:format>
        <dc:type
           rdf:resource="http://purl.org/dc/dcmitype/StillImage" />
      </cc:Work>
    </rdf:RDF>
  </metadata>
  <defs
     id="defs16" />
  <sodipodi:namedview
     pagecolor="#ffffff"
     bordercolor="#666666"
     borderopacity="1"
     objecttolerance="10"
     gridtolerance="10"
     guidetolerance="10"
     inkscape:pageopacity="0"
     inkscape:pageshadow="2"
     inkscape:window-width="1920"
     inkscape:window-height="1009"
     id="namedview14"
     showgrid="false"
     inkscape:zoom="0.069622013"
     inkscape:cx="3188.6467"
     inkscape:cy="524.25948"
     inkscape:window-x="-8"
     inkscape:window-y="-8"
     inkscape:window-maximized="1"
     inkscape:current-layer="svg2"
     inkscape:showpageshadow="2"
     inkscape:pagecheckerboard="0"
     inkscape:deskcolor="#d1d1d1" />
  <path
     id="path4"
     style="fill:#000000;stroke:none;stroke-width:0.797792"
     d="M 276.84725,15.48455 C 207.05202,16.37853 143.07254,33.38101 94.752764,72.75263 44.643368,112.57166 12.877585,174.31319 13.32499,249.9248 V 627.53601 H 65.225105 V 249.4776 c 0,-61.74203 23.264775,-105.58705 61.741625,-136.45829 37.13465,-29.52848 89.48142,-45.63464 148.53892,-45.63464 h 7.15832 c 58.61008,0 111.40427,16.10616 148.53891,45.63464 38.47682,30.87124 61.74164,74.71626 61.74164,136.45829 v 378.05841 h 51.89855 V 249.9248 C 545.2905,174.31319 513.52467,112.57166 463.41529,72.75263 415.09549,33.38101 351.11605,16.37942 281.32081,15.48455 Z m 620.91599,0 c -69.79516,0.89398 -133.77472,17.89646 -182.09449,57.26808 -50.10938,39.81903 -81.8752,101.56056 -81.42778,177.17217 v 377.61121 h 51.89857 V 249.4776 c 0,-61.74203 23.2663,-105.58705 61.74318,-136.45829 37.13467,-29.52848 89.48136,-45.63464 148.53895,-45.63464 h 7.15827 c 58.61004,0 111.40436,16.10616 148.53896,45.63464 38.4768,30.87124 61.7416,74.71626 61.7416,136.45829 v 378.05841 h 51.8986 V 249.9248 C 1166.2066,174.31319 1134.4406,112.57166 1084.3313,72.75263 1036.0114,33.38101 972.03202,16.37942 902.23678,15.48455 Z m 620.91596,0 c -69.7953,0.89398 -133.7747,17.89646 -182.0945,57.26808 -50.1093,39.81903 -81.8751,101.56056 -81.4277,177.17217 v 377.61121 h 51.8985 V 249.4776 c 0,-61.74203 23.2665,-105.58705 61.7432,-136.45829 37.1347,-29.52848 89.4798,-45.63464 148.5374,-45.63464 h 7.1583 c 58.6102,0 111.4044,16.10616 148.5389,45.63464 38.4769,30.87124 61.7432,74.71626 61.7432,136.45829 v 378.05841 h 51.8985 V 249.9248 C 1787.1225,174.31319 1755.3566,112.57166 1705.2472,72.75263 1656.9274,33.38101 1592.948,16.37942 1523.1528,15.48455 Z M 587.30524,831.054 c -69.79514,0.8939 -133.77461,17.8965 -182.09449,57.2681 -50.10934,39.819 -81.87523,101.5606 -81.42777,177.1722 v 377.6112 h 51.89856 v -378.0584 c 0,-61.742 23.26627,-105.5886 61.74319,-136.4599 37.13464,-29.5284 89.4814,-45.6346 148.53892,-45.6346 h 7.1583 c 58.61005,0 111.40428,16.1062 148.53892,45.6346 38.47679,30.8713 61.7416,74.7179 61.7416,136.4599 v 378.0584 h 51.89861 V 1065.4943 C 855.74856,989.8827 823.98263,928.1411 773.87329,888.3221 725.55354,848.9505 661.57407,831.9488 591.7788,831.054 Z m 620.91596,0 c -69.795,0.8939 -133.7747,17.8965 -182.0945,57.2681 -50.10947,39.819 -81.87508,101.5606 -81.42775,177.1722 v 377.6112 h 51.89861 v -378.0584 c 0,-61.742 23.26624,-105.5886 61.74314,-136.4599 37.1347,-29.5284 89.4799,-45.6346 148.5374,-45.6346 h 7.1598 c 58.6102,0 111.4028,16.1062 148.5374,45.6346 38.4768,30.8713 61.7432,74.7179 61.7432,136.4599 v 378.0584 h 51.8986 v -377.6112 c 0.4475,-75.6116 -31.3183,-137.3532 -81.4279,-177.1722 -48.3197,-39.3716 -112.2992,-56.3733 -182.0944,-57.2681 z" />
</svg>
