<?xml version="1.0" encoding="UTF-8" standalone="no"?>
<svg
   id="svg2"
   version="1.1"
   inkscape:version="1.3 (0e150ed6c4, 2023-07-21)"
   width="1800"
   height="1800"
   sodipodi:docname="US9No60VARB.svg"
   viewBox="0 0 1687.5 1687.5"
   xmlns:inkscape="http://www.inkscape.org/namespaces/inkscape"
   xmlns:sodipodi="http://sodipodi.sourceforge.net/DTD/sodipodi-0.dtd"
   xmlns="http://www.w3.org/2000/svg"
   xmlns:svg="http://www.w3.org/2000/svg"
   xmlns:rdf="http://www.w3.org/1999/02/22-rdf-syntax-ns#"
   xmlns:cc="http://creativecommons.org/ns#"
   xmlns:dc="http://purl.org/dc/elements/1.1/">
  <metadata
     id="metadata18">
    <rdf:RDF>
      <cc:Work
         rdf:about="">
        <dc:format>image/svg+xml</dc:format>
        <dc:type
           rdf:resource="http://purl.org/dc/dcmitype/StillImage" />
      </cc:Work>
    </rdf:RDF>
  </metadata>
  <defs
     id="defs16" />
  <sodipodi:namedview
     pagecolor="#ffffff"
     bordercolor="#666666"
     borderopacity="1"
     objecttolerance="10"
     gridtolerance="10"
     guidetolerance="10"
     inkscape:pageopacity="0"
     inkscape:pageshadow="2"
     inkscape:window-width="1920"
     inkscape:window-height="1017"
     id="namedview14"
     showgrid="false"
     inkscape:zoom="0.069622013"
     inkscape:cx="3203.0099"
     inkscape:cy="538.62275"
     inkscape:window-x="-8"
     inkscape:window-y="-8"
     inkscape:window-maximized="1"
     inkscape:current-layer="svg2"
     inkscape:showpageshadow="2"
     inkscape:pagecheckerboard="0"
     inkscape:deskcolor="#d1d1d1" />
  <path
     d="M 264.62498,-2.3588676 C 198.06685,-1.5063527 137.05524,14.707181 90.976533,52.25274 43.19121,90.224972 12.898729,149.10341 13.325383,221.20816 V 581.30484 H 62.817325 V 220.78148 c 0,-58.87843 22.186041,-100.6904 58.878335,-130.129827 C 157.108,62.492704 207.02661,47.132967 263.34502,47.132967 h 6.82648 c 55.89175,0 106.23701,15.359737 141.64936,43.518686 36.69226,29.439427 58.87834,71.251397 58.87834,130.129827 v 360.52336 h 49.49196 V 221.20816 C 520.61784,149.10341 490.32529,90.224972 442.53999,52.25274 396.46126,14.707181 335.44967,-1.5055024 268.89152,-2.3588676 Z"
     style="fill:#000000;stroke:none;stroke-width:0.76079"
     id="path4"
     inkscape:connector-curvature="0" />
  <path
     d="m 856.74205,-2.3588676 c -66.55807,0.8525149 -127.5697,17.0660486 -173.6484,54.6116076 -47.78531,37.972232 -78.0778,96.85067 -77.65113,168.95542 v 360.09668 h 49.49192 V 220.78148 c 0,-58.87843 22.18603,-100.6904 58.87835,-130.129827 35.41236,-28.158949 85.33093,-43.518686 141.64939,-43.518686 h 6.82641 c 55.89173,0 106.23707,15.359737 141.64941,43.518686 36.6923,29.439427 58.8783,71.251397 58.8783,130.129827 v 360.52336 h 49.4919 V 221.20816 C 1112.735,149.10341 1082.4424,90.224972 1034.6572,52.25274 988.5784,14.707181 927.56679,-1.5055024 861.00864,-2.3588676 Z"
     style="fill:#000000;stroke:none;stroke-width:0.76079"
     id="path6"
     inkscape:connector-curvature="0" />
  <path
     d="m 1448.8593,-2.3588676 c -66.5582,0.8525149 -127.5699,17.0660486 -173.6486,54.6116076 -47.7852,37.972232 -78.0777,96.85067 -77.6511,168.95542 v 360.09668 h 49.492 V 220.78148 c 0,-58.87843 22.186,-100.6904 58.8782,-130.129827 35.4124,-28.158949 85.331,-43.518686 141.6494,-43.518686 h 6.8265 c 55.8918,0 106.2371,15.359737 141.6493,43.518686 36.6924,29.439427 58.8785,71.251397 58.8785,130.129827 v 360.52336 h 49.4919 V 221.20816 C 1704.8521,149.10341 1674.5596,90.224972 1626.7743,52.25274 1580.6955,14.707181 1519.6839,-1.5055024 1453.1258,-2.3588676 Z"
     style="fill:#000000;stroke:none;stroke-width:0.76079"
     id="path8"
     inkscape:connector-curvature="0" />
  <path
     d="m 264.62498,784.4162 c -66.55813,0.85247 -127.56974,17.06604 -173.648447,54.61162 -47.785323,37.97224 -78.077804,96.85067 -77.65115,168.95538 v 360.0967 h 49.491942 v -360.5234 c 0,-58.8784 22.186041,-100.69034 58.878335,-130.12979 35.41234,-28.15896 85.33095,-43.5187 141.64936,-43.5187 h 6.82648 c 55.89175,0 106.23701,15.35974 141.64936,43.5187 36.69226,29.43945 58.87834,71.25139 58.87834,130.12979 v 360.5234 h 49.49196 V 1007.9832 C 520.61784,935.87849 490.32529,877.00006 442.53999,839.02782 396.46126,801.48224 335.44967,785.26958 268.89152,784.4162 Z"
     style="fill:#000000;stroke:none;stroke-width:0.76079"
     id="path4-9"
     inkscape:connector-curvature="0" />
  <path
     d="m 856.74205,784.4162 c -66.55807,0.85247 -127.5697,17.06604 -173.6484,54.61162 -47.78531,37.97224 -78.0778,96.85067 -77.65113,168.95538 v 360.0967 h 49.49192 v -360.5234 c 0,-58.8784 22.18603,-100.69034 58.87835,-130.12979 35.41236,-28.15896 85.33093,-43.5187 141.64939,-43.5187 h 6.82641 c 55.89173,0 106.23707,15.35974 141.64941,43.5187 36.6923,29.43945 58.8783,71.25139 58.8783,130.12979 v 360.5234 h 49.4919 v -360.0967 c 0.4268,-72.10471 -29.8658,-130.98314 -77.651,-168.95538 C 988.5784,801.48224 927.56679,785.26958 861.00864,784.4162 Z"
     style="fill:#000000;stroke:none;stroke-width:0.76079"
     id="path6-3"
     inkscape:connector-curvature="0" />
  <path
     d="m 1448.8593,784.4162 c -66.5582,0.85247 -127.5699,17.06604 -173.6486,54.61162 -47.7852,37.97224 -78.0777,96.85067 -77.6511,168.95538 v 360.0967 h 49.492 v -360.5234 c 0,-58.8784 22.186,-100.69034 58.8782,-130.12979 35.4124,-28.15896 85.331,-43.5187 141.6494,-43.5187 h 6.8265 c 55.8918,0 106.2371,15.35974 141.6493,43.5187 36.6924,29.43945 58.8785,71.25139 58.8785,130.12979 v 360.5234 h 49.4919 v -360.0967 c 0.4267,-72.10471 -29.8658,-130.98314 -77.6511,-168.95538 -46.0788,-37.54558 -107.0904,-53.75824 -173.6485,-54.61162 z"
     style="fill:#000000;stroke:none;stroke-width:0.76079"
     id="path8-8"
     inkscape:connector-curvature="0" />
</svg>
