<?xml version="1.0" encoding="UTF-8" standalone="no"?>
<svg
   id="svg2"
   version="1.1"
   inkscape:version="1.3.2 (091e20e, 2023-11-25, custom)"
   width="1800"
   height="1800"
   sodipodi:docname="US9No200VARA.svg"
   xmlns:inkscape="http://www.inkscape.org/namespaces/inkscape"
   xmlns:sodipodi="http://sodipodi.sourceforge.net/DTD/sodipodi-0.dtd"
   xmlns="http://www.w3.org/2000/svg"
   xmlns:svg="http://www.w3.org/2000/svg"
   xmlns:rdf="http://www.w3.org/1999/02/22-rdf-syntax-ns#"
   xmlns:cc="http://creativecommons.org/ns#"
   xmlns:dc="http://purl.org/dc/elements/1.1/">
  <metadata
     id="metadata18">
    <rdf:RDF>
      <cc:Work
         rdf:about="">
        <dc:format>image/svg+xml</dc:format>
        <dc:type
           rdf:resource="http://purl.org/dc/dcmitype/StillImage" />
      </cc:Work>
    </rdf:RDF>
  </metadata>
  <defs
     id="defs16" />
  <sodipodi:namedview
     pagecolor="#ffffff"
     bordercolor="#666666"
     borderopacity="1"
     objecttolerance="10"
     gridtolerance="10"
     guidetolerance="10"
     inkscape:pageopacity="0"
     inkscape:pageshadow="2"
     inkscape:window-width="1920"
     inkscape:window-height="1009"
     id="namedview14"
     showgrid="false"
     inkscape:zoom="0.22878236"
     inkscape:cx="1429.306"
     inkscape:cy="334.37892"
     inkscape:window-x="-8"
     inkscape:window-y="-8"
     inkscape:window-maximized="1"
     inkscape:current-layer="svg2"
     inkscape:showpageshadow="2"
     inkscape:pagecheckerboard="0"
     inkscape:deskcolor="#d1d1d1" />
  <path
     id="path4"
     style="fill:#000000;stroke:none;stroke-width:1.24707"
     d="m 267.41719,1.4960938 c -36.99414,0 -75.97404,7.7945082 -116.93957,23.3849912 C 65.333683,57.286178 18.315528,137.03081 9.4199219,264.11142 13.232347,384.838 62.15706,498.57613 156.19661,605.3238 c 74.97753,92.76888 121.3618,153.13043 139.15299,181.08815 47.01993,69.89436 74.97959,137.88472 83.87517,203.96652 h 81.96561 C 448.48234,896.33896 410.99468,804.83838 348.72515,715.88188 294.08061,643.44609 235.62302,571.01109 173.35356,498.57512 107.27165,393.09816 81.537851,300.011 96.152153,219.31435 110.7664,138.61863 155.24405,94.140098 229.58617,85.880326 c 12.71641,-1.409922 24.7628,-2.119043 36.14066,-2.119043 55.13875,0 94.55996,16.592727 118.26215,49.775607 28.59312,40.02994 34.62981,85.14235 18.1093,135.33872 -14.03352,42.64064 -40.4453,63.96104 -79.23764,63.96104 -6.87457,0 -14.13987,-0.65309 -21.79205,-2.00701 -50.83223,-8.89844 -70.52935,-40.0297 -59.09211,-93.40357 l -41.93515,-80.06333 c -33.04098,35.58258 -47.9741,73.0727 -44.79707,112.46766 3.17701,39.395 20.65061,74.34218 52.42076,104.84153 27.7267,26.61689 63.43869,39.92572 107.13595,39.92572 6.37251,0 12.91458,-0.28007 19.62673,-0.84031 52.73844,-4.44455 93.40538,-27.00572 121.99848,-67.67057 28.59307,-40.6658 40.03002,-94.99269 34.31147,-162.98129 C 485.01902,115.11875 448.16518,63.65181 380.17714,28.705107 344.90033,10.572069 307.31282,1.5034008 267.41719,1.5034008 Z m 669.40603,0 c -36.99413,0 -75.97403,7.7945082 -116.93957,23.3849912 -85.14394,32.405093 -132.16453,112.149725 -141.06014,239.230335 3.81243,120.72658 52.73957,234.46471 146.77912,341.21238 74.97752,92.76888 121.36181,153.13043 139.15301,181.08815 47.01996,69.89436 74.97716,137.88472 83.87276,203.96652 h 81.968 C 1117.8883,896.33896 1080.3982,804.83838 1018.1287,715.88188 963.48418,643.44609 905.0266,571.01109 842.75715,498.57512 776.67524,393.09816 750.94144,300.011 765.55575,219.31435 780.16998,138.61863 824.64767,94.140098 898.98976,85.880326 c 12.71641,-1.409922 24.76522,-2.119043 36.1431,-2.119043 55.13871,0 94.55994,16.592727 118.26214,49.775607 28.5932,40.02994 34.6273,85.14235 18.1069,135.33872 -14.0335,42.64064 -40.4453,63.96104 -79.23766,63.96104 -6.87413,0 -14.13742,-0.65309 -21.78963,-2.00701 -50.83225,-8.89844 -70.5318,-40.0297 -59.09454,-93.40357 l -41.93514,-80.06088 c -33.04099,35.58256 -47.97414,73.07022 -44.79708,112.46521 3.177,39.395 20.6506,74.3422 52.42076,104.84153 27.7267,26.61691 63.43875,39.92816 107.13595,39.92816 6.3727,0 12.91462,-0.28008 19.62674,-0.84032 52.7383,-4.44454 93.4054,-27.0057 121.9985,-67.67057 28.593,-40.66578 40.03,-94.99514 34.3114,-162.98372 C 1154.4221,115.11874 1117.5687,63.651811 1049.5807,28.705107 1014.3038,10.572089 976.71885,1.5058364 936.82322,1.5058364 Z"
     sodipodi:nodetypes="cccccccccccsccscccscscccccccccccccccscsssscccscscccccc" />
</svg>
