<?xml version="1.0" encoding="UTF-8" standalone="no"?>
<!-- Created with Inkscape (http://www.inkscape.org/) -->

<svg
   width="1798.179"
   height="997.42627"
   viewBox="0 0 1798.1789 997.42625"
   version="1.1"
   id="svg570"
   xmlns="http://www.w3.org/2000/svg"
   xmlns:svg="http://www.w3.org/2000/svg">
  <defs
     id="defs567" />
  <path
     id="path777-7"
     style="color:#000000;fill:#000000;stroke-width:0.991481;stroke-linejoin:round;-inkscape-stroke:none"
     d="M 886.07567,0.02355789 C 878.39556,-0.35023041 871.19165,3.7490468 867.59,10.542575 c 0,0 -24.65822,46.459206 -61.71383,95.397115 -37.0558,48.93801 -87.62212,98.11952 -128.86545,106.69851 -41.73747,8.6816 -106.24748,-14.70882 -158.42783,-43.0384 -52.18015,-28.32979 -91.99078,-59.30305 -91.99078,-59.30305 -13.68838,-10.658017 -33.49738,0.15636 -31.93461,17.4342 0,0 4.03266,44.85657 -1.46402,98.70271 C 387.69691,280.2799 371.48551,341.36057 338.22638,372.71 306.94407,402.19605 226.70155,417.09246 155.271,419.90796 83.840648,422.72347 21.911068,416.3894 21.911068,416.3894 2.9227225,414.44441 -7.5822153,437.81906 6.4791643,450.72716 L 275.72243,697.74141 c -2.01201,2.08291 -4.18107,4.15748 -6.15035,6.24138 -118.88936,125.80563 -162.9591,254.0398 -162.9591,254.0398 -6.627547,19.31147 7.72393,39.40677 28.14101,39.40367 l 1522.61631,-0.5055 c 21.1226,-0.01 35.506,-21.41598 27.5329,-40.97602 0,0 -50.7469,-122.13091 -175.4688,-245.58712 l 283.2342,-266.4242 c 5.986,-6.2491 7.2289,-15.65786 3.071,-23.24695 -4.1578,-7.58899 -12.7563,-11.60597 -21.2449,-9.92502 0,0 -94.0466,17.88602 -164.8859,19.24534 -70.8393,1.35932 -150.0344,-10.31487 -185.283,-45.93154 -24.9843,-25.24509 -40.7326,-90.46687 -46.0303,-148.62526 -5.2977,-58.15848 -2.6781,-108.46652 -2.6781,-108.46652 0.8625,-16.44182 -17.5276,-26.71347 -31.0748,-17.35667 0,0 -46.1727,31.87344 -104.6729,60.71076 -58.5002,28.83732 -129.8411,52.11233 -170.5967,42.42259 C 1028.1727,202.98841 984.20421,154.41011 953.202,106.10427 922.19998,57.798535 903.45176,12.29125 903.45176,12.29125 900.52798,5.1790601 893.75627,0.39813939 886.07567,0.02355789 Z M 883.19422,62.546935 c 9.01227,18.088081 21.19955,40.933085 36.63056,64.976795 33.19487,51.72248 79.01375,109.25584 140.27512,123.82089 61.6061,14.64705 135.8309,-15.13268 197.3047,-45.4358 30.7901,-15.17769 58.2321,-31.10791 77.9764,-43.24166 0.069,20.52742 0.7646,47.25289 3.4179,76.38081 5.5925,61.39458 17.0513,132.21557 57.3394,172.92428 51.2166,51.75133 139.3541,59.12279 214.2296,57.68604 29.6652,-0.56931 90.7879,-8.81139 113.6426,-11.4181 L 1480.6117,683.1152 C 1353.9052,568.31559 1161.3103,460.10051 883.68024,456.7148 611.94479,453.40098 425.13929,556.59004 304.06293,669.91997 L 74.459554,459.27292 c 23.551635,0.91772 51.410866,1.48366 82.372326,0.26334 74.67041,-2.94321 160.3996,-12.53747 208.59627,-57.96682 46.21976,-43.56567 61.29613,-113.08296 67.21933,-171.10789 2.53621,-24.84522 3.00151,-46.95128 2.90474,-65.19948 16.992,11.48243 38.82332,25.4643 64.10925,39.19245 55.40415,30.08003 124.2156,59.74405 185.42437,47.01215 61.70303,-12.83482 113.16851,-69.76516 152.40726,-121.58619 18.86332,-24.91204 34.39854,-48.868602 45.70112,-67.333545 z m -0.23825,453.650875 c 460.65823,5.61772 666.58063,309.34797 726.91043,421.24967 L 179.7114,937.9219 C 200.45764,894.16527 241.90322,819.87213 312.80808,744.8426 422.97667,628.26508 600.86827,512.75767 882.95597,516.19781 Z" />
</svg>
