<?xml version="1.0" encoding="UTF-8" standalone="no"?>
<svg
   width="1800.382"
   height="1523.8048"
   version="1.1"
   id="svg142"
   xmlns="http://www.w3.org/2000/svg"
   xmlns:svg="http://www.w3.org/2000/svg">
  <defs
     id="defs146" />
  <path
     id="path140"
     style="fill:#000000;stroke:none;stroke-width:95.2117"
     d="M 440.22558,0 68.427797,0.993019 214.77109,391.7067 l 0.0781,80.52079 H 0 v 83.31019 H 214.47541 V 945.31042 H 0 v 86.28558 h 886.50046 l 0.78662,101.4004 -138.59619,390.8084 372.82091,-0.7504 -150.41247,-392.6913 -0.86281,-98.7671 H 1797.4064 V 945.31042 H 1633.7465 V 555.53768 h 166.6352 v -83.31019 h -166.6352 v -79.31392 l 140.5837,-391.8039713 -371.7996,0.991172 147.3868,392.7969993 0.074,77.32972 H 298.60011 v -82.505 z M 167.97232,65.234857 h 176.8259 L 262.72094,297.38579 h -13.10277 z m 1335.14438,3.19107 h 176.826 l -82.0773,232.150933 h -13.1028 z M 298.60011,555.53768 H 880.95699 V 945.31042 H 298.60011 Z m 667.48014,0 h 583.99335 l 0.3403,389.77274 H 969.48331 Z m -29.09533,669.41232 83.44418,231.5111 -176.82037,1.3706 80.27346,-232.7795 z" />
</svg>
