<?xml version="1.0" encoding="UTF-8" standalone="no"?>
<svg
   id="svg2"
   version="1.1"
   inkscape:version="1.3.2 (091e20e, 2023-11-25, custom)"
   width="1800"
   height="1800"
   sodipodi:docname="US9No80VARB.svg"
   xmlns:inkscape="http://www.inkscape.org/namespaces/inkscape"
   xmlns:sodipodi="http://sodipodi.sourceforge.net/DTD/sodipodi-0.dtd"
   xmlns="http://www.w3.org/2000/svg"
   xmlns:svg="http://www.w3.org/2000/svg"
   xmlns:rdf="http://www.w3.org/1999/02/22-rdf-syntax-ns#"
   xmlns:cc="http://creativecommons.org/ns#"
   xmlns:dc="http://purl.org/dc/elements/1.1/">
  <metadata
     id="metadata18">
    <rdf:RDF>
      <cc:Work
         rdf:about="">
        <dc:format>image/svg+xml</dc:format>
        <dc:type
           rdf:resource="http://purl.org/dc/dcmitype/StillImage" />
      </cc:Work>
    </rdf:RDF>
  </metadata>
  <defs
     id="defs16" />
  <sodipodi:namedview
     pagecolor="#ffffff"
     bordercolor="#666666"
     borderopacity="1"
     objecttolerance="10"
     gridtolerance="10"
     guidetolerance="10"
     inkscape:pageopacity="0"
     inkscape:pageshadow="2"
     inkscape:window-width="1920"
     inkscape:window-height="1009"
     id="namedview14"
     showgrid="false"
     inkscape:zoom="0.069622013"
     inkscape:cx="876.15967"
     inkscape:cy="524.25948"
     inkscape:window-x="-8"
     inkscape:window-y="-8"
     inkscape:window-maximized="1"
     inkscape:current-layer="svg2"
     inkscape:showpageshadow="2"
     inkscape:pagecheckerboard="0"
     inkscape:deskcolor="#d1d1d1" />
  <path
     id="path4"
     style="fill:#000000;stroke:none;stroke-width:0.591425"
     d="M 208.68006,1.095072 C 156.93895,1.757802 109.50921,14.362212 73.68843,43.549462 36.540963,73.068402 12.992117,118.83909 13.323791,174.89204 V 454.82556 H 51.798768 V 174.56053 c 0,-45.77106 17.246815,-78.274578 45.770758,-101.160268 27.528934,-21.89027 66.335034,-33.83021 110.115964,-33.83021 h 5.30666 c 43.44926,0 82.58704,11.93994 110.11597,33.83021 28.52392,22.88569 45.77076,55.389208 45.77076,101.160268 V 454.82556 H 407.3527 V 174.89204 C 407.68439,118.83909 384.13551,73.068402 346.98806,43.549462 311.16727,14.362212 263.73756,1.758462 211.99643,1.095072 Z m 460.30203,0 c -51.74107,0.66273 -99.17087,13.26714 -134.99164,42.45439 -37.14745,29.51894 -60.69633,75.289628 -60.36464,131.342578 v 279.93352 h 38.47383 V 174.56053 c 0,-45.77106 17.24795,-78.274578 45.77191,-101.160268 27.52895,-21.89027 66.33498,-33.83021 110.116,-33.83021 h 5.30662 c 43.44922,0 82.58708,11.93994 110.11596,33.83021 28.52397,22.88569 45.77075,55.389208 45.77075,101.160268 v 280.26503 h 38.47386 V 174.89204 C 867.98647,118.83909 844.43752,73.068402 807.29011,43.549462 771.46926,14.362212 724.03957,1.758462 672.29844,1.095072 Z m 460.30201,0 c -51.7412,0.66273 -99.1709,13.26714 -134.99164,42.45439 -37.14741,29.51894 -60.69624,75.289628 -60.36463,131.342578 v 279.93352 h 38.4738 V 174.56053 c 0,-45.77106 17.24809,-78.274578 45.77197,-101.160268 27.529,-21.89027 66.3338,-33.83021 110.1148,-33.83021 h 5.3066 c 43.4494,0 82.5872,11.93994 110.116,33.83021 28.524,22.88569 45.7719,55.389208 45.7719,101.160268 v 280.26503 h 38.4738 V 174.89204 c 0.3317,-56.05295 -23.2172,-101.823638 -60.3646,-131.342578 -35.8209,-29.18725 -83.2505,-41.791 -134.9916,-42.45439 z m 458.7195,0 c -51.7412,0.66273 -99.1709,13.26714 -134.9916,42.45439 -37.1475,29.51895 -60.6963,75.289628 -60.3647,131.342578 v 279.93352 h 38.4738 V 174.56053 c 0,-45.77106 17.2469,-78.274578 45.7708,-101.160268 27.529,-21.89027 66.335,-33.83137 110.116,-33.83137 h 5.3066 c 43.4494,0 82.5872,11.9411 110.116,33.83137 28.524,22.88569 45.7707,55.389208 45.7707,101.160268 v 280.26503 h 38.475 V 174.89204 c 0.3317,-56.05295 -23.2171,-101.823628 -60.3646,-131.342578 -35.8209,-29.18725 -83.2505,-41.791 -134.9916,-42.45439 z M 208.68006,612.72106 c -51.74111,0.6628 -99.17085,13.2671 -134.99163,42.4544 -37.147467,29.5189 -60.696313,75.2896 -60.364639,131.3426 V 1066.4516 H 51.798768 V 786.18656 c 0,-45.7711 17.246815,-78.2746 45.770758,-101.1603 27.528934,-21.8903 66.335034,-33.8314 110.115964,-33.8314 h 5.30666 c 43.44926,0 82.58704,11.9411 110.11597,33.8314 28.52392,22.8857 45.77076,55.3892 45.77076,101.1603 V 1066.4516 H 407.3527 V 786.51806 c 0.33169,-56.053 -23.21719,-101.8237 -60.36464,-131.3426 -35.82079,-29.1873 -83.2505,-41.791 -134.99163,-42.4544 z m 460.30203,0 c -51.74107,0.6628 -99.17087,13.2671 -134.99164,42.4544 -37.14745,29.5189 -60.69633,75.2896 -60.36464,131.3426 v 279.93354 h 38.47383 V 786.18656 c 0,-45.7711 17.24795,-78.2746 45.77191,-101.1603 27.52895,-21.8903 66.33498,-33.8314 110.116,-33.8314 h 5.30662 c 43.44922,0 82.58708,11.9411 110.11596,33.8314 28.52397,22.8857 45.77075,55.3892 45.77075,101.1603 v 280.26504 h 38.47386 V 786.51806 c 0.33173,-56.053 -23.21722,-101.8237 -60.36463,-131.3426 -35.82085,-29.1873 -83.25054,-41.791 -134.99167,-42.4544 z m 460.30201,0 c -51.7412,0.6628 -99.1709,13.2671 -134.99164,42.4544 -37.14741,29.5189 -60.69624,75.2896 -60.36463,131.3426 v 279.93354 h 38.4738 V 786.18656 c 0,-45.7711 17.24809,-78.2746 45.77197,-101.1603 27.529,-21.8903 66.3338,-33.8314 110.1148,-33.8314 h 5.3066 c 43.4494,0 82.5872,11.9411 110.116,33.8314 28.524,22.8857 45.7719,55.3892 45.7719,101.1603 v 280.26504 h 38.4738 V 786.51806 c 0.3317,-56.053 -23.2172,-101.8237 -60.3646,-131.3426 -35.8209,-29.1873 -83.2505,-41.791 -134.9916,-42.4544 z m 458.7195,0 c -51.7412,0.6627 -99.1709,13.2671 -134.9916,42.4544 -37.1475,29.5189 -60.6963,75.2897 -60.3647,131.3426 v 279.93354 h 38.4738 V 786.18656 c 0,-45.7711 17.2469,-78.2746 45.7708,-101.1603 27.529,-21.8903 66.335,-33.8314 110.116,-33.8314 h 5.3066 c 43.4494,0 82.5872,11.9411 110.116,33.8314 28.524,22.8857 45.7707,55.3892 45.7707,101.1603 v 280.26504 h 38.475 V 786.51806 c 0.3317,-56.0529 -23.2171,-101.8237 -60.3646,-131.3426 -35.8209,-29.1873 -83.2505,-41.791 -134.9916,-42.4544 z" />
</svg>
