<?xml version="1.0" encoding="UTF-8" standalone="no"?>
<svg
   width="974.4942"
   height="1799.9354"
   version="1.1"
   id="svg1"
   xmlns="http://www.w3.org/2000/svg"
   xmlns:svg="http://www.w3.org/2000/svg">
  <defs
     id="defs1" />
  <path
     id="path2"
     style="stroke-width:79.7407"
     d="M 477.46058,0.01748751 C 396.96145,-0.82678465 312.93052,28.876897 261.07026,93.960847 201.36528,161.98961 178.34437,258.12943 193.95622,347.29093 c 4.25843,29.38295 15.29577,61.62725 32.24973,92.35546 C 149.94922,452.96784 36.53285,488.73318 19.226985,588.34366 -7.7017538,743.34231 1.5259075,1799.9354 1.5259075,1799.9354 H 89.880089 c 0,0 -17.905724,-886.21042 1.659476,-1163.40424 7.622547,-107.99339 120.951565,-130.397 172.995115,-124.16211 l 16.07031,-1.9668 c 39.88992,37.69066 92.13546,68.01667 154.90932,67.15626 v 74.25781 l -2.7524,1147.07808 h 84.72516 l 2.75048,-1147.85347 -0.17801,-76.78125 c 27.22334,-2.02031 89.675,-9.76348 155.00619,-64.60274 12.34668,-2.58393 19.32097,1.5064 34.89377,1.7043 52.39694,0.66587 165.3726,16.16875 172.99512,124.16211 19.5652,277.19382 1.65947,1163.40235 1.65947,1163.40235 h 88.35418 c 0,0 9.22769,-1056.59118 -17.70108,-1211.58985 C 936.9135,481.69404 809.91152,447.52572 734.39418,436.16007 c -1.60655,-0.2418 -3.19867,-0.48257 -4.81956,-0.72657 12.33387,-22.00907 22.49744,-45.23077 29.54135,-69.42382 25.45932,-88.05851 0.31996,-184.90054 -54.28802,-256.10157 C 660.90768,45.564018 587.14869,6.7366423 511.09799,1.4999094 499.9165,0.47946796 488.68692,-0.03030937 477.46058,0.01748751 Z m 4.22047,61.79296849 c 66.57607,-0.587773 136.70307,25.418259 175.42404,83.205074 46.2136,61.67164 65.88681,146.85422 38.10479,220.91211 C 667.93244,445.04621 599.54589,512.00526 515.90799,521.94718 431.32131,536.08837 340.96847,498.89281 291.23368,427.31046 246.8183,363.7834 240.42387,276.70393 266.86407,204.53311 293.97815,134.5723 355.64569,77.502973 429.83342,66.316315 c 17.09576,-3.15327 34.48457,-4.486502 51.84763,-4.505859 z m -1.87576,158.496094 c -32.38968,0.16472 -64.48836,23.75216 -66.97049,58.26367 -5.44904,35.05533 15.95842,74.64877 52.14622,80.31836 36.52857,9.63879 78.02235,-16.71031 82.92786,-55.65625 9.43172,-38.81186 -21.46876,-79.79816 -60.38617,-82.09765 -2.55734,0.061 -5.14171,-1.09494 -7.71742,-0.82813 z" />
</svg>
