<?xml version="1.0" encoding="UTF-8" standalone="no"?>
<svg
   width="1165.0796"
   height="1053.3828"
   id="svg1333"
   version="1.0"
   xmlns="http://www.w3.org/2000/svg"
   xmlns:svg="http://www.w3.org/2000/svg"
   xmlns:rdf="http://www.w3.org/1999/02/22-rdf-syntax-ns#"
   xmlns:cc="http://creativecommons.org/ns#"
   xmlns:dc="http://purl.org/dc/elements/1.1/">
  <metadata
     id="metadata1340">
    <rdf:RDF>
      <cc:Work
         rdf:about="">
        <dc:format>image/svg+xml</dc:format>
        <dc:type
           rdf:resource="http://purl.org/dc/dcmitype/StillImage" />
        <dc:date>02/03/06</dc:date>
        <dc:creator>
          <cc:Agent>
            <dc:title>Serge Thomas</dc:title>
          </cc:Agent>
        </dc:creator>
        <dc:publisher>
          <cc:Agent>
            <dc:title>Serge Rosmorduc</dc:title>
          </cc:Agent>
        </dc:publisher>
        <dc:description>signe de la classification de Bob Richmond</dc:description>
        <cc:license
           rdf:resource="http://creativecommons.org/licenses/GPL/2.0/" />
      </cc:Work>
      <cc:License
         rdf:about="http://creativecommons.org/licenses/GPL/2.0/">
        <cc:permits
           rdf:resource="http://web.resource.org/cc/Reproduction" />
        <cc:permits
           rdf:resource="http://web.resource.org/cc/Distribution" />
        <cc:requires
           rdf:resource="http://web.resource.org/cc/Notice" />
        <cc:permits
           rdf:resource="http://web.resource.org/cc/DerivativeWorks" />
        <cc:requires
           rdf:resource="http://web.resource.org/cc/ShareAlike" />
        <cc:requires
           rdf:resource="http://web.resource.org/cc/SourceCode" />
      </cc:License>
    </rdf:RDF>
  </metadata>
  <defs
     id="defs1338" />
  <path
     id="path1335"
     style="fill:#000000;stroke:none;stroke-width:100"
     d="M 592.72074,0 C 534.29,0 479.39901,11.06636 428.05082,33.19922 376.70263,55.33207 332.43711,85.43351 295.25395,123.50195 258.07078,161.57047 228.4122,205.836 206.27934,256.29883 c -22.13278,50.46291 -33.19922,104.91113 -33.19922,163.34179 0,58.43066 11.06644,112.87694 33.19922,163.33985 22.13286,50.46291 51.79144,94.28558 88.97461,131.46875 37.18316,37.18316 81.44868,66.84175 132.79687,88.97461 51.34819,22.13277 106.23918,33.19921 164.66992,33.19921 58.43067,0 112.87702,-11.06644 163.33985,-33.19921 50.46291,-22.13286 94.72842,-51.79145 132.79692,-88.97461 38.0684,-37.18317 68.1698,-81.00584 90.3027,-131.46875 22.13289,-50.46291 33.19919,-104.90918 33.19919,-163.33985 0,-58.43066 -11.0663,-112.87888 -33.19919,-163.34179 C 957.02731,205.836 926.92591,161.57047 888.85751,123.50195 850.78901,85.43351 806.5235,55.33207 756.06059,33.19922 705.59776,11.06636 651.15141,0 592.72074,0 Z m 5.3106,90.30273 c 47.80699,0 92.07244,8.8523 132.79688,26.5586 40.72435,17.70631 76.58047,42.05309 107.56639,73.03906 30.9859,30.98597 55.3327,66.3992 73.039,106.23828 17.7063,39.83908 26.5586,81.89053 26.5586,126.15625 0,46.03627 -8.852,88.97529 -26.5586,128.81445 -17.7063,39.83904 -42.0531,74.80947 -73.039,104.91016 -30.98597,30.10061 -66.84209,53.55984 -107.56644,70.38086 -40.72444,16.82094 -84.98989,25.23242 -132.79688,25.23242 -47.80691,0 -92.51528,-8.4115 -134.125,-25.23242 -41.6098,-16.82102 -77.46384,-40.28025 -107.56445,-70.38086 -30.10069,-30.10069 -54.00472,-65.07108 -71.71094,-104.91016 -17.7063,-39.83916 -26.56055,-82.77822 -26.56055,-128.81445 0,-44.26572 8.8543,-86.31717 26.56055,-126.15625 17.70622,-39.83908 41.61025,-75.25231 71.71094,-106.23828 30.10061,-30.98597 65.95465,-55.33275 107.56445,-73.03906 41.60972,-17.70631 86.31809,-26.5586 134.12505,-26.5586 z m -7.9668,223.09961 c -67.28385,5.3118 -104.46828,38.95385 -111.55078,100.92578 8.8531,67.28386 46.03757,102.69701 111.55078,106.23828 65.51317,-3.54127 100.04079,-38.95442 103.58198,-106.23828 -5.31183,-61.97193 -39.83945,-95.61398 -103.58198,-100.92578 z m 530.23056,133.53711 c -19.5936,0.0691 -40.0732,11.1548 -61.4395,33.25781 -54.655,58.94148 -46.7493,139.3915 -205.83799,270.96875 C 691.94122,884.38722 408.89553,851.63384 300.21684,728.95117 191.53816,606.26851 166.8072,539.67456 112.15238,481.80469 83.21754,449.65485 66.39719,440.54686 37.99809,454.47851 9.59898,468.4101 -3.19437,499.30564 0.67582,561.67383 c 4.7426,76.42595 36.57237,190.44742 141.75391,321.95312 92.86922,116.11196 255.53323,165.46915 443.07422,169.75585 187.54094,-4.2867 356.44636,-31.749 458.38085,-165.7871 97.3122,-127.95997 118.9698,-246.39756 119.041,-328.88476 0.054,-62.48817 10.8644,-90.56966 -16.4629,-105.03711 -8.54,-4.52106 -17.2618,-6.76578 -26.1678,-6.73438 z m -13.4629,89.82813 c 1.847,-0.0486 3.016,0.67605 2.92,2.65429 -4.6498,96.85095 -89.5848,337.75395 -255.15649,395.08789 C 689.02386,991.84341 493.95844,990.09435 331.6016,932.22461 169.2447,874.3548 46.54564,603.71321 77.54496,537.9414 c 16.02034,17.17453 139.92329,263.46728 284.13672,325.83789 141.80903,61.33074 291.02422,73.17877 456.52933,0 143.7024,-63.53864 201.47079,-145.75371 269.32609,-318.43359 0,0 13.2622,-8.41929 19.2951,-8.57812 z" />
</svg>
