<?xml version="1.0" encoding="UTF-8" standalone="no"?>
<svg
   width="1800"
   height="1800"
   version="1.1"
   id="svg4"
   sodipodi:docname="US9No200000VARA.svg"
   inkscape:version="1.2.1 (9c6d41e410, 2022-07-14)"
   xmlns:inkscape="http://www.inkscape.org/namespaces/inkscape"
   xmlns:sodipodi="http://sodipodi.sourceforge.net/DTD/sodipodi-0.dtd"
   xmlns="http://www.w3.org/2000/svg"
   xmlns:svg="http://www.w3.org/2000/svg">
  <defs
     id="defs8" />
  <sodipodi:namedview
     id="namedview6"
     pagecolor="#ffffff"
     bordercolor="#666666"
     borderopacity="1.0"
     inkscape:showpageshadow="2"
     inkscape:pageopacity="0.0"
     inkscape:pagecheckerboard="0"
     inkscape:deskcolor="#d1d1d1"
     showgrid="false"
     inkscape:zoom="0.20511846"
     inkscape:cx="58.502781"
     inkscape:cy="1662.454"
     inkscape:window-width="1920"
     inkscape:window-height="1017"
     inkscape:window-x="-8"
     inkscape:window-y="-8"
     inkscape:window-maximized="1"
     inkscape:current-layer="svg4" />
  <g
     id="g344"
     transform="scale(0.59231603)">
    <path
       style="fill:#000000;stroke:none;stroke-width:100.272"
       d="m 1426.9377,1740.2653 q 0,25.9442 -6.985,51.8886 -6.9849,25.9442 -54.8823,-11.9744 -29.9358,-57.8758 -49.893,-159.6575 -115.7516,-405.1304 -137.7044,-480.9676 -39.9144,-57.8759 -173.6274,-57.8759 H 768.35103 q -155.66593,0 -177.61878,-35.9228 Q 508.90781,920.02556 425.08774,798.28674 339.27187,652.59946 317.31903,510.90351 305.34464,431.07488 239.48601,377.19053 15.965707,277.40465 0,181.61022 17.96142,117.74729 96.792247,75.837207 175.62308,33.927228 224.5182,16.963613 273.41323,0 311.33188,0 q 91.80292,0 172.62945,70.847974 80.82655,70.847976 210.54821,180.612316 203.56317,99.78587 291.37465,181.61031 87.81151,81.82435 194.58241,200.56954 106.7708,118.74519 180.6124,456.02136 55.88,253.456 65.8587,650.6038 z m -63.863,-203.5633 -43.9058,-353.2419 Q 1295.2203,1081.6785 1269.276,981.89277 1185.4558,616.67652 714.46669,335.28045 632.64223,317.31903 502.92067,193.58449 383.17766,77.832921 297.36179,67.854354 q -95.79434,23.94866 -147.68298,67.854356 7.98284,25.94437 35.92283,26.94217 27.9401,0.99796 69.85018,12.9722 33.92711,23.94865 -5.98714,45.9015 -59.87161,-3.99142 -143.69167,-13.96999 0,19.95713 155.66593,99.78587 63.86293,51.88854 105.77292,137.70442 23.94866,49.89293 55.88017,156.66374 31.93142,106.77092 61.86721,158.65946 29.93571,51.88865 67.85435,111.76026 37.91866,59.87149 87.8116,79.82863 57.87579,-1.99572 69.85006,-31.93141 -1.99571,-17.96153 -10.97646,-81.82446 -8.98077,-63.86292 18.95932,-151.67451 27.93999,-87.81148 63.86293,-87.81148 -37.91866,111.76014 11.97428,285.38751 63.86302,51.88865 63.86302,59.87149 0,23.94857 -58.87369,44.90361 -58.87369,20.95508 -54.88227,22.95078 11.97439,9.978 89.8072,6.9849 77.83302,-2.9941 149.67891,-6.9849 71.84581,-3.9919 89.80721,-29.93573 -1.9954,-5.98724 -35.9229,-47.89722 -33.9272,-41.91008 -22.9508,-64.86084 10.9766,-22.95064 26.9422,-22.95064 33.9272,0 73.8416,49.89282 89.8073,111.76011 155.6659,333.28471 z"
       id="path2" />
    <path
       style="fill:#000000;stroke:none;stroke-width:100.272"
       d="m 1435.0032,2981.5251 q 0,25.9442 -6.985,51.8886 -6.9849,25.9442 -54.8823,-11.9744 -29.9358,-57.8758 -49.893,-159.6575 -115.7516,-405.1304 -137.7044,-480.9676 -39.9144,-57.8759 -173.6274,-57.8759 H 776.41646 q -155.6659,0 -177.6187,-35.9228 -81.8245,-125.7302 -165.6446,-247.469 -85.8158,-145.6873 -107.7687,-287.3833 -11.9744,-79.8286 -77.833,-133.713 Q 24.031158,1518.6644 8.0654576,1422.8699 26.026858,1359.007 104.85766,1317.0969 q 78.8309,-41.91 127.726,-58.8736 48.895,-16.9636 86.8137,-16.9636 91.8029,0 172.6294,70.848 80.8266,70.848 210.5482,180.6123 203.5632,99.7859 291.3747,181.6103 87.81154,81.8244 194.58244,200.5696 106.7708,118.7451 180.6124,456.0214 55.88,253.456 65.8587,650.6038 z m -63.863,-203.5633 -43.9058,-353.2419 q -23.9486,-101.7816 -49.8929,-201.5674 -83.8202,-365.2163 -554.80934,-646.6123 -81.8245,-17.9615 -211.546,-141.696 -119.743,-115.7516 -205.5589,-125.7301 -95.7943,23.9486 -147.683,67.8543 7.9829,25.9444 35.9228,26.9422 27.9401,0.998 69.8502,12.9722 33.9271,23.9486 -5.9871,45.9015 -59.8716,-3.9914 -143.6917,-13.97 0,19.9571 155.6659,99.7859 63.863,51.8885 105.773,137.7044 23.9486,49.8929 55.8801,156.6637 31.9315,106.771 61.8672,158.6595 29.9358,51.8887 67.8544,111.7603 37.9187,59.8715 87.8116,79.8286 57.8758,-1.9957 69.8501,-31.9314 -1.9958,-17.9615 -10.9765,-81.8245 -8.9808,-63.8629 18.9593,-151.6745 27.94,-87.8115 63.8629,-87.8115 -37.9186,111.7602 11.9743,285.3876 63.863,51.8886 63.863,59.8715 0,23.9485 -58.8736,44.9036 -58.8737,20.9551 -54.8823,22.9508 11.9744,9.978 89.8072,6.9849 77.833,-2.9941 149.6789,-6.9849 71.84584,-3.9919 89.80724,-29.9358 -1.9954,-5.9872 -35.9229,-47.8972 -33.9272,-41.9101 -22.9508,-64.8608 10.9766,-22.9507 26.9422,-22.9507 33.9272,0 73.8416,49.8928 89.8073,111.7602 155.6659,333.2848 z"
       id="path2-5" />
  </g>
</svg>
