<?xml version="1.0" encoding="UTF-8" standalone="no"?>
<svg
   id="svg2"
   version="1.1"
   inkscape:version="1.3.2 (091e20e, 2023-11-25, custom)"
   width="1800"
   height="1800"
   sodipodi:docname="US9No9VARV.svg"
   xmlns:inkscape="http://www.inkscape.org/namespaces/inkscape"
   xmlns:sodipodi="http://sodipodi.sourceforge.net/DTD/sodipodi-0.dtd"
   xmlns="http://www.w3.org/2000/svg"
   xmlns:svg="http://www.w3.org/2000/svg"
   xmlns:rdf="http://www.w3.org/1999/02/22-rdf-syntax-ns#"
   xmlns:cc="http://creativecommons.org/ns#"
   xmlns:dc="http://purl.org/dc/elements/1.1/">
  <metadata
     id="metadata12">
    <rdf:RDF>
      <cc:Work
         rdf:about="">
        <dc:format>image/svg+xml</dc:format>
        <dc:type
           rdf:resource="http://purl.org/dc/dcmitype/StillImage" />
      </cc:Work>
    </rdf:RDF>
  </metadata>
  <defs
     id="defs10" />
  <sodipodi:namedview
     pagecolor="#ffffff"
     bordercolor="#666666"
     borderopacity="1"
     objecttolerance="10"
     gridtolerance="10"
     guidetolerance="10"
     inkscape:pageopacity="0"
     inkscape:pageshadow="2"
     inkscape:window-width="1920"
     inkscape:window-height="1009"
     id="namedview8"
     showgrid="true"
     inkscape:zoom="0.24247495"
     inkscape:cx="1389.8343"
     inkscape:cy="859.88264"
     inkscape:window-x="-8"
     inkscape:window-y="-8"
     inkscape:window-maximized="1"
     inkscape:current-layer="svg2"
     inkscape:showpageshadow="2"
     inkscape:pagecheckerboard="0"
     inkscape:deskcolor="#d1d1d1">
    <inkscape:grid
       type="xygrid"
       id="grid2989"
       empspacing="45"
       visible="true"
       enabled="true"
       snapvisiblegridlinesonly="true"
       spacingx="10px"
       spacingy="10px"
       originx="0"
       originy="0"
       units="px" />
  </sodipodi:namedview>
  <path
     id="path4"
     style="fill:#000000;stroke:none"
     d="M 215.03906 -6.3652344 C 196.34573 -6.1311283 176.57957 -4.0856209 155.76172 0 C -109.6693 141.20155 -8.7536407 469.9975 252.00195 433.61914 C 534.18786 394.16984 495.43904 -9.8768257 215.03906 -6.3652344 z M 838.14062 -6.3652344 C 819.44729 -6.1311342 799.67918 -4.0856215 778.86133 0 C 513.43029 141.20146 614.34788 469.9973 875.10352 433.61914 C 1157.2894 394.17077 1118.5406 -9.8767365 838.14062 -6.3652344 z M 1461.2402 -6.3652344 C 1442.5469 -6.1311342 1422.7788 -4.0856215 1401.9609 0 C 1136.5299 141.20146 1237.4475 469.9973 1498.2031 433.61914 C 1780.389 394.17077 1741.6402 -9.8767365 1461.2402 -6.3652344 z M 204.22266 67.953125 C 401.89222 87.636395 420.18999 325.18578 251.59766 358.46875 C 66.203718 395.14651 -1.6448778 142.2042 204.22266 67.953125 z M 827.32422 67.953125 C 1024.9939 87.636505 1043.2896 325.18764 874.69727 358.4707 C 689.30335 395.14747 621.45672 142.20425 827.32422 67.953125 z M 1450.4238 67.953125 C 1648.0934 87.636505 1666.3892 325.18764 1497.7969 358.4707 C 1312.403 395.14747 1244.5563 142.20425 1450.4238 67.953125 z M 215.03906 676.82617 C 196.34573 677.06028 176.57957 679.10579 155.76172 683.19141 C -109.6693 824.39296 -8.7536411 1153.187 252.00195 1116.8086 C 534.18786 1077.3593 495.43904 673.31458 215.03906 676.82617 z M 838.14062 676.82617 C 819.44729 677.06027 799.67918 679.10578 778.86133 683.19141 C 513.43029 824.39287 614.34788 1153.1868 875.10352 1116.8086 C 1157.2894 1077.3602 1118.5406 673.31467 838.14062 676.82617 z M 1461.2402 676.82617 C 1442.5469 677.06027 1422.7788 679.10578 1401.9609 683.19141 C 1136.5299 824.39287 1237.4475 1153.1868 1498.2031 1116.8086 C 1780.389 1077.3602 1741.6402 673.31467 1461.2402 676.82617 z M 204.22266 751.14453 C 401.89222 770.8278 420.18999 1008.3772 251.59766 1041.6602 C 66.203717 1078.3379 -1.6448782 825.39561 204.22266 751.14453 z M 827.32422 751.14453 C 1024.9939 770.82791 1043.2896 1008.379 874.69727 1041.6621 C 689.30335 1078.3389 621.45672 825.39566 827.32422 751.14453 z M 1450.4238 751.14453 C 1648.0934 770.82791 1666.3892 1008.379 1497.7969 1041.6621 C 1312.403 1078.3389 1244.5563 825.39566 1450.4238 751.14453 z M 215.03906 1360.0156 C 196.34573 1360.2497 176.57957 1362.2952 155.76172 1366.3809 C -109.6693 1507.5823 -8.7536407 1836.3784 252.00195 1800 C 534.18786 1760.5507 495.43904 1356.504 215.03906 1360.0156 z M 838.14062 1360.0156 C 819.44729 1360.2497 799.67918 1362.2952 778.86133 1366.3809 C 513.43029 1507.5824 614.34788 1836.3782 875.10352 1800 C 1157.2894 1760.5516 1118.5406 1356.5041 838.14062 1360.0156 z M 1461.2402 1360.0156 C 1442.5469 1360.2497 1422.7788 1362.2952 1401.9609 1366.3809 C 1136.5299 1507.5824 1237.4475 1836.3782 1498.2031 1800 C 1780.389 1760.5516 1741.6402 1356.5041 1461.2402 1360.0156 z M 204.22266 1434.3359 C 401.89222 1454.0192 420.18999 1691.5686 251.59766 1724.8516 C 66.203718 1761.5293 -1.6448778 1508.5871 204.22266 1434.3359 z M 827.32422 1434.3359 C 1024.9939 1454.0194 1043.2896 1691.5685 874.69727 1724.8516 C 689.30335 1761.5283 621.45672 1508.5871 827.32422 1434.3359 z M 1450.4238 1434.3359 C 1648.0934 1454.0194 1666.3892 1691.5685 1497.7969 1724.8516 C 1312.403 1761.5283 1244.5563 1508.5871 1450.4238 1434.3359 z " />
</svg>
