<?xml version="1.0" encoding="UTF-8" standalone="no"?>
<svg
   width="1800"
   height="1800"
   version="1.1"
   id="svg4"
   sodipodi:docname="US9No2000000VARD.svg"
   inkscape:version="1.2.1 (9c6d41e410, 2022-07-14)"
   xmlns:inkscape="http://www.inkscape.org/namespaces/inkscape"
   xmlns:sodipodi="http://sodipodi.sourceforge.net/DTD/sodipodi-0.dtd"
   xmlns="http://www.w3.org/2000/svg"
   xmlns:svg="http://www.w3.org/2000/svg">
  <defs
     id="defs8" />
  <sodipodi:namedview
     id="namedview6"
     pagecolor="#ffffff"
     bordercolor="#666666"
     borderopacity="1.0"
     inkscape:showpageshadow="2"
     inkscape:pageopacity="0.0"
     inkscape:pagecheckerboard="0"
     inkscape:deskcolor="#d1d1d1"
     showgrid="false"
     inkscape:zoom="0.20216557"
     inkscape:cx="766.69829"
     inkscape:cy="464.96542"
     inkscape:window-width="1280"
     inkscape:window-height="961"
     inkscape:window-x="1912"
     inkscape:window-y="57"
     inkscape:window-maximized="1"
     inkscape:current-layer="svg4" />
  <path
     style="fill:#000000;stroke:none;stroke-width:48.232"
     d="m 346.51104,169.75111 q 72.75128,22.90319 82.18197,41.76464 18.86144,-16.16697 38.39645,-7.40988 19.5351,8.75709 2.69452,43.11185 -16.84056,34.35476 -8.75709,51.19529 8.08349,16.84058 33.68116,12.79884 43.1118,-17.51419 41.09097,-86.89732 -2.02091,-69.38312 -76.11939,-89.59179 -74.09848,-20.20865 -113.16859,35.02837 z m -24.25039,52.54255 q 12.12521,-32.33384 66.01499,1.34727 -53.88978,21.55592 -66.01499,-1.34727 z M 452.94342,379.92135 Q 431.3875,272.14173 447.55445,249.9122 q 16.16692,-22.22954 6.06263,-28.96575 -10.10438,-6.73627 -27.61859,13.47244 -71.40396,-52.54255 -97.00163,-37.7229 -47.15355,60.62608 -26.94488,61.9733 17.51419,0 18.86144,32.33388 1.34723,26.94488 13.47244,21.55593 56.58429,-5.389 56.58429,17.51419 l -1.3472,36.37556 q 4.04169,32.33397 63.32047,13.4725 z M 283.19054,435.15838 Q 133.64638,447.28362 32.602973,423.03315 -11.856093,328.72603 4.3108267,231.72441 20.477795,134.72274 19.130531,92.28455 17.783268,49.846309 74.367558,1.3455017 89.187264,-2.6962403 94.57627,5.3872435 99.965225,13.470679 91.881743,18.859685 74.367558,30.984863 62.91599,51.867179 51.464419,72.749498 52.811635,119.90304 85.145522,91.610897 87.166391,68.707755 89.187264,45.804567 105.35423,49.846309 98.617962,132.02827 54.158898,172.44559 q 0,66.01499 10.777962,111.82138 10.777964,45.80632 18.861446,88.91817 75.445694,-2.69454 130.682764,-9.43075 60.62603,-21.55592 111.82133,6.73621 v 0 q 43.11183,-5.38895 45.80631,-21.55593 2.69449,-16.1669 -12.79883,-16.84053 -15.4933,-0.67365 -32.33388,2.02089 -16.84058,2.69449 -22.22953,-13.47249 -5.38897,-16.16693 -6.06263,-33.68111 -0.6736,-17.51418 -19.53499,-17.51418 -20.20871,-13.47244 28.29208,-76.79295 0,-13.47244 35.70202,-55.91068 35.702,-42.438247 124.62017,-22.22953 88.91817,20.20865 88.91817,118.55753 0,98.34887 -83.52917,98.34887 4.04169,33.68116 64.66773,40.41739 51.19532,-29.63941 111.82136,-6.73623 56.58429,6.73623 132.03,9.43069 6.7362,-43.11185 18.18778,-88.91811 11.45155,-45.80639 11.45155,-113.16864 Q 765.50428,133.37548 758.768,51.193572 774.93503,47.15183 777.62946,70.054971 780.32417,92.95816 811.31054,121.2503 812.65766,74.096714 801.87985,53.214442 791.1019,32.332126 773.58777,20.2069 q -9.43074,-5.388957 -4.04185,-13.4724411 5.38906,-8.0834358 20.20875,-4.0417421 56.5843,47.1535922 55.23704,90.2654432 -1.34712,43.11185 15.49327,140.11346 16.84061,97.00167 -28.96582,191.30881 -101.04335,24.25039 -250.58751,10.77795 z"
     id="path2" />
  <path
     style="fill:#000000;stroke:none;stroke-width:48.232"
     d="m 1279.2228,172.35682 q 72.7513,22.90319 82.182,41.76464 18.8614,-16.16697 38.3964,-7.4099 19.5351,8.7571 2.6945,43.1119 -16.8405,34.3547 -8.757,51.1953 8.0834,16.8405 33.6811,12.7988 43.1118,-17.5142 41.091,-86.8973 -2.0209,-69.38314 -76.1194,-89.59181 -74.0985,-20.20865 -113.1686,35.02837 z m -24.2504,52.54254 q 12.1252,-32.33383 66.015,1.3473 -53.8898,21.5559 -66.015,-1.3473 z m 130.6828,157.6277 q -21.5559,-107.7796 -5.389,-130.0091 16.1669,-22.2296 6.0626,-28.9658 -10.1043,-6.7363 -27.6185,13.4724 -71.404,-52.54251 -97.0017,-37.72286 -47.1535,60.62606 -26.9449,61.97326 17.5142,0 18.8615,32.3339 1.3472,26.9449 13.4724,21.556 56.5843,-5.389 56.5843,17.5141 l -1.3472,36.3756 q 4.0417,32.334 63.3205,13.4725 z m -169.7529,55.237 q -149.5442,12.1253 -250.58757,-12.1252 -44.45906,-94.3071 -28.29214,-191.3087 16.16697,-97.00171 14.8197,-139.439896 -1.34726,-42.43824 55.23701,-90.9390502 14.8197,-4.04174002 20.2087,4.04174 5.389,8.0834402 -2.6945,13.4724502 -17.5142,12.12517 -28.96575,33.00749 -11.45157,20.88232 -10.10435,68.035856 32.3339,-28.292136 34.3548,-51.195276 2.0208,-22.90319 18.1878,-18.86145 -6.7363,82.181956 -51.19534,122.599276 0,66.01496 10.77796,111.82136 10.77798,45.8063 18.86148,88.9182 75.4457,-2.6945 130.6827,-9.4308 60.6261,-21.5559 111.8214,6.7363 v 0 q 43.1118,-5.389 45.8063,-21.556 2.6945,-16.1669 -12.7989,-16.8405 -15.4933,-0.6737 -32.3338,2.0209 -16.8406,2.6945 -22.2296,-13.4725 -5.3889,-16.1669 -6.0626,-33.6811 -0.6736,-17.5142 -19.535,-17.5142 -20.2087,-13.4724 28.2921,-76.79295 0,-13.47244 35.702,-55.91068 35.702,-42.438246 124.6202,-22.22953 88.9182,20.20865 88.9182,118.55756 0,98.3488 -83.5292,98.3488 4.0417,33.6812 64.6677,40.4174 51.1953,-29.6394 111.8214,-6.7362 56.5843,6.7362 132.03,9.4307 6.7362,-43.1119 18.1878,-88.9181 11.4515,-45.8064 11.4515,-113.16866 -45.8063,-39.07011 -52.5425,-121.252016 16.167,-4.04174 18.8614,18.8614 2.6947,22.90319 33.6811,51.195326 1.3471,-47.153586 -9.4307,-68.035856 -10.7779,-20.88231 -28.2921,-33.00754 -9.4307,-5.38896 -4.0418,-13.4724402 5.389,-8.08344 20.2087,-4.04174 56.5843,47.1535902 55.2371,90.2654402 -1.3471,43.111846 15.4932,140.113486 16.8407,97.0016 -28.9658,191.3088 -101.0433,24.2504 -250.5875,10.7779 z"
     id="path2-1" />
</svg>
