<?xml version="1.0" encoding="UTF-8" standalone="no"?>
<svg
   width="1800"
   height="1800"
   id="svg2"
   sodipodi:version="0.32"
   inkscape:version="1.2.1 (9c6d41e410, 2022-07-14)"
   sodipodi:docname="NU16VARB.svg"
   inkscape:output_extension="org.inkscape.output.svg.inkscape"
   version="1.0"
   xmlns:inkscape="http://www.inkscape.org/namespaces/inkscape"
   xmlns:sodipodi="http://sodipodi.sourceforge.net/DTD/sodipodi-0.dtd"
   xmlns="http://www.w3.org/2000/svg"
   xmlns:svg="http://www.w3.org/2000/svg"
   xmlns:rdf="http://www.w3.org/1999/02/22-rdf-syntax-ns#"
   xmlns:cc="http://creativecommons.org/ns#"
   xmlns:dc="http://purl.org/dc/elements/1.1/">
  <metadata
     id="metadata9">
    <rdf:RDF>
      <cc:Work
         rdf:about="">
        <dc:format>image/svg+xml</dc:format>
        <dc:type
           rdf:resource="http://purl.org/dc/dcmitype/StillImage" />
      </cc:Work>
    </rdf:RDF>
  </metadata>
  <defs
     id="defs7">
    <inkscape:perspective
       sodipodi:type="inkscape:persp3d"
       inkscape:vp_x="0 : 1179.1895 : 1"
       inkscape:vp_y="0 : 1000 : 0"
       inkscape:vp_z="5.8304138 : 1179.1895 : 1"
       inkscape:persp3d-origin="2.9152069 : 1178.1585 : 1"
       id="perspective11" />
  </defs>
  <sodipodi:namedview
     inkscape:window-height="1137"
     inkscape:window-width="1920"
     inkscape:pageshadow="2"
     inkscape:pageopacity="0.0"
     guidetolerance="10.0"
     gridtolerance="10.0"
     objecttolerance="10.0"
     borderopacity="1.0"
     bordercolor="#666666"
     pagecolor="#ffffff"
     id="base"
     showgrid="false"
     inkscape:zoom="0.49555556"
     inkscape:cx="898.99103"
     inkscape:cy="900"
     inkscape:window-x="-8"
     inkscape:window-y="-8"
     inkscape:current-layer="svg2"
     inkscape:showpageshadow="2"
     inkscape:pagecheckerboard="0"
     inkscape:deskcolor="#d1d1d1"
     inkscape:window-maximized="1" />
  <path
     id="path8146"
     style="fill:#000000;stroke:none;stroke-width:0.999999"
     d="M 1006.8616,2.4414112 C 819.06085,59.031161 692.07105,170.81821 625.93205,337.81055 c -34.2395,58.08607 -74.364,117.92208 -120.4102,179.48046 -64.8654,87.46356 -105.7499,162.68232 -122.5703,225.63673 16.6797,18.66622 34.0828,32.80982 52.1601,42.43163 18.0774,9.62192 53.7538,-1.58782 107.0176,-33.64649 25.4333,-20.76922 50.1515,-25.63007 74.211,-14.56638 29.4047,52.26974 63.3694,102.31601 101.8535,150.1211 38.4839,47.80502 58.2541,92.37234 59.2773,133.6855 l 1.6035,-0.039 c -7.3845,51.0611 -27.5195,101.1125 -60.3613,150.1543 -32.8417,49.0419 -86.698,110.504 -161.6289,184.4375 -18.0693,9.4194 -31.8997,22.4201 -41.4981,38.9903 h -216.9941 l 83.9766,-282.4707 h -26.7637 c 5.1059,-22.0904 5.7412,-43.7565 1.9199,-64.9981 -3.8212,-21.2399 -16.082,-61.13476 -16.082,-61.13476 l -39.5078,6.37501 c 0,0 3.5528,32.24675 0.1543,53.48825 -3.3335,21.2399 -4.6334,43.3307 -3.8203,66.2715 h -25.4903 c 4.2766,-22.0903 4.6993,-43.7565 1.3008,-64.9981 -3.3985,-21.2398 -14.8125,-61.13473 -14.8125,-61.13473 l -39.5098,6.375 c 0,0 3.7558,32.45883 -0.4882,54.12303 -4.3092,21.666 -5.5115,43.5464 -3.8204,65.6368 h -24.2148 c 5.1059,-22.0904 5.7412,-43.7566 1.9199,-64.9981 -3.8213,-21.2399 -15.4492,-61.13477 -15.4492,-61.13477 l -38.8711,6.37304 c 0,0 3.1054,32.46073 -1.1387,54.12503 -4.244,21.6659 -5.1057,43.5444 -2.5527,65.6348 h -28.03711 c 1.6911,-22.0904 0.84381,-43.7566 -2.55469,-64.9981 -3.39853,-21.2399 -12.894533,-61.1328 -12.894533,-61.1328 l -40.78125,7.00781 c 0,0 4.39836,32.88509 0.15428,54.12499 -4.30913,21.2415 -5.5134,42.9077 -3.82227,64.9981 l -40.7987904,-0 81.4335904,282.4707 H 0.59606664 v 69.5624 H 225.34605 v 95.2813 H 0.59606664 v 71.4687 H 225.34605 v 95.2813 H 0.59606664 v 71.4687 H 1803.4398 v -71.4687 H 1578.721 v -95.2813 h 224.7188 v -71.4687 H 1578.721 v -95.2813 h 224.7188 v -69.5624 h -154.4981 c -0.6178,-15.6294 3.97,-31.3978 13.9473,-47.2872 30.4898,8.7845 37.6702,-6.2152 21.5722,-45.0351 -1.9415,-78.3891 5.483,-150.6548 22.2247,-216.7871 -0.4461,-18.0083 -29.0703,-38.4962 -85.8594,-61.4688 l -0.041,-1.6016 c 40.2499,-77.31417 55.0802,-134.39913 44.4375,-171.23433 24.2693,19.53823 42.3552,51.69789 54.2754,96.4512 11.9196,44.75301 16.5561,101.60403 13.9394,170.56633 6.9815,19.9665 20.6936,27.0376 41.0918,21.2325 11.549,-57.5241 9.5651,-126.1005 -5.9218,-205.74416 -15.4871,-79.64352 -42.7865,-144.42754 -81.8633,-194.3379 -23.6612,-38.63256 -49.3734,-62.35382 -77.1621,-71.20505 -27.7886,-8.85151 -69.8647,-16.30655 -126.2344,-22.33009 -56.3694,-6.02359 -110.1005,-4.69229 -161.2403,3.99412 -51.1398,8.68638 -131.3538,12.7973 -240.5624,12.32229 -109.20875,-0.4749 -211.01655,-30.26382 -305.46095,-89.40235 -4.8993,-23.19787 10.6283,-40.57859 46.5625,-52.06836 35.9342,-11.48965 62.3652,-44.99792 79.3692,-100.53713 -50.175,-17.83654 -86.1759,-21.68795 -108.0899,-11.60546 -21.914,10.08235 -31.4866,7.10858 -28.6387,-8.86133 10.9671,-37.37033 44.9512,-84.30846 101.9336,-140.83788 56.9823,-56.52942 137.70805,-114.70176 242.17965,-174.527349 20.3196,-8.98292 25.0121,-17.05358 14.0235,-24.20117 -159.30965,28.32503 -301.11975,130.401259 -425.42185,306.253909 9.6505,-46.87733 29.8073,-94.01482 60.5273,-141.41406 30.7201,-47.39928 116.3243,-115.7724 256.82415,-205.109379 20.2671,-11.1016298 17.466,-16.8622698 -8.4921,-17.2792998 z M 831.04725,434.1211 c 22.3344,-0.61168 28.7245,5.42268 19.1074,18.18165 -10.9909,14.58168 -26.1508,25.82562 -45.416,33.72264 -19.2653,7.89684 -39.9591,23.77565 -62.0722,47.64257 l -14.1426,-47.30857 c 30.5733,-31.4962 61.2563,-48.70855 91.998,-51.58983 3.8427,-0.36057 7.3348,-0.56119 10.5254,-0.64846 z m -205.5019,26.65236 c 8.9679,0.27175 19.3513,3.28483 31.2011,9.0488 19.6982,9.58174 27.6949,25.538 23.9238,47.89065 -2.087,46.68998 16.8169,79.37371 56.7403,97.99412 39.9235,18.62052 99.1552,41.80521 177.6855,69.53908 78.5302,27.73375 182.24915,34.94721 311.11905,21.68553 128.8698,-13.2615 235.0382,-14.55742 318.5508,-3.90626 35.8927,8.65055 57.1149,35.15048 63.6192,79.50785 17.0425,76.95511 0.5744,154.18889 -49.4004,231.74407 -68.753,-25.85616 -111.0594,-63.74109 -126.8926,-113.69722 -15.8329,-49.95602 -42.2407,-78.6971 -79.1875,-86.26171 29.746,66.04094 17.5442,108.43745 -36.5879,127.26758 -54.1321,18.83017 -100.6942,25.81202 -139.7363,20.9492 -39.0421,-4.8627 -78.9754,-2.54022 -119.8242,6.9512 -40.849,9.49145 -67.49225,3.82749 -79.90235,-17.06446 -12.4102,-20.89183 -28.4151,-34.27827 -48.0214,-40.15234 7.1914,28.4408 7.9404,47.19636 2.2206,56.34766 -5.7196,9.15141 -22.4739,0.0302 -50.1816,-27.37111 -27.7076,-27.40275 -27.7443,-96.02627 -0.1935,-205.88478 -25.5382,16.53203 -44.4559,38.98613 -56.7266,67.37892 -12.2706,28.39295 -22.8603,59.13729 -31.7714,92.21681 -20.923,-15.38124 -40.3777,-37.67573 -58.4004,-66.90822 -18.0225,-29.23257 -37.206,-61.61159 -57.5469,-97.14648 -20.341,-35.5349 -44.3708,-54.55329 -72.002,-57.04884 -27.6314,-2.49547 -55.1632,9.59906 -82.6132,36.24805 -27.45,26.64896 -48.071,34.02728 -61.879,22.17971 -13.8079,-11.84757 -14.8215,-31.68329 -3.0781,-59.53323 11.7436,-27.84983 37.1968,-68.25218 76.4297,-121.16209 39.2329,-52.90995 64.7263,-82.14527 76.4805,-87.73633 3.6732,-1.74716 7.7678,-2.75785 12.2168,-3.02343 1.2234,-0.0729 2.4767,-0.0915 3.7578,-0.0529 z m -33.2579,52.57028 c -8.923,0.37077 -17.2217,5.41304 -24.8867,15.1426 -12.5461,17.2701 -9.9953,32.02893 7.6074,44.31251 16.5486,13.36955 32.161,10.85949 46.8418,-7.52345 12.5724,-16.21078 10.0197,-30.9696 -7.6094,-44.31251 -7.7011,-5.37407 -15.013,-7.90692 -21.9531,-7.61915 z m 706.75775,488.03516 c 22.3675,-0.6194 38.5667,7.8324 48.5782,25.3223 15.2558,26.6512 31.8666,52.9688 49.8105,79.0234 17.9438,26.0547 11.0174,62.8357 -20.7832,110.2618 -31.8006,47.426 -66.1668,88.5421 -103.1445,123.3769 -17.3752,9.932 -29.8238,28.298 -37.4531,54.8867 11.4804,0.082 23.065,0.1576 34.2812,0.246 h -34.3574 c 0.023,-0.084 0.052,-0.1617 0.076,-0.246 -69.6338,-0.4954 -142.7004,-0.8377 -217.8965,-0.9238 0.08,0.3913 0.1455,0.7767 0.2306,1.1699 h -82.72855 -23.1054 c 0.2226,-0.3834 0.5124,-0.7635 0.7441,-1.1465 -57.2451,0.1455 -113.354,0.564 -168.2715,1.1465 h -121.1816 c 0.617,-15.452 6.5106,-25.98 17.7637,-31.5137 38.8191,-4.1414 59.4213,-23.7709 61.7968,-58.8086 56.0378,-94.6647 109.4266,-165.4012 160.1621,-212.2363 50.4064,70.829 80.6182,124.6731 90.7208,161.5215 10.1024,36.8484 8.5327,71.3219 -4.7266,103.4492 -16.7591,11.9466 -28.7969,24.0968 -36.2637,36.4414 34.9638,-0.089 69.9679,-0.063 104.85935,-0.023 -3.9498,-19.3147 -2.0885,-36.3223 5.666,-50.9843 28.806,-15.5531 31.4689,-38.3948 8.0176,-68.5528 -74.98585,-146.5376 -99.81275,-232.2846 -74.48435,-257.291 50.01745,11.4807 93.82105,11.9783 131.40235,1.5078 37.5811,-10.4705 64.3185,-10.5898 80.248,-0.3848 15.9297,10.2051 45.8821,7.5855 89.8281,-7.8124 15.1065,-5.2931 28.4947,-8.1054 40.211,-8.4297 z m 156.8946,44.1133 c 53.7053,29.4087 96.8022,45.5347 129.3086,48.4394 32.5067,2.9047 50.2316,30.0347 53.1249,81.3712 2.8934,51.3365 -9.5929,103.3222 -37.4804,155.9511 -34.2595,19.1204 -55.8285,40.1966 -64.7695,63.2422 h -188.2012 c -3.1444,-23.1627 3.8772,-42.3358 21.1836,-57.5 26.2205,11.0101 39.5125,1.1453 39.832,-29.6016 17.1615,-49.1833 39.8905,-90.3082 68.2637,-123.3398 28.373,-33.0317 33.4908,-56.4769 15.3086,-70.3359 -18.1825,-13.8593 -30.3801,-36.5811 -36.5703,-68.2266 z M 75.445677,1163.0078 H 309.94375 l -48.4297,180.9727 h -135.0899 z m 217.150373,301.0508 h 254.2813 v 95.2813 h -254.2813 z m 319.875,0 h 254.2813 v 95.2813 h -254.2813 z m 323.1875,0 h 255.90625 v 95.2813 H 935.65855 Z m 321.53125,0 h 254.25 v 95.2813 h -254.25 z m -964.59375,166.75 h 254.2813 v 95.2813 h -254.2813 z m 319.875,0 h 254.2813 v 95.2813 h -254.2813 z m 323.1875,0 h 255.90625 v 95.2813 H 935.65855 Z m 321.53125,0 h 254.25 v 95.2813 h -254.25 z"
     sodipodi:nodetypes="ccccsccsccsccccccccccccccccccccccccccccccccccccccccccccccccccccccccccccscsssscscscscccscccsccccccccssscccscsssscsccsccsssssssscccccccsssscccccccccccccccsccccccsssscsscccccsscccccccccccccccccccccccccccccccccccccccccccccc" />
</svg>
