<?xml version="1.0" encoding="UTF-8" standalone="no"?>
<svg
   width="1800"
   height="1800"
   version="1.1"
   id="svg4"
   sodipodi:docname="US9NU19VARA.svg"
   inkscape:version="1.2.1 (9c6d41e410, 2022-07-14)"
   xmlns:inkscape="http://www.inkscape.org/namespaces/inkscape"
   xmlns:sodipodi="http://sodipodi.sourceforge.net/DTD/sodipodi-0.dtd"
   xmlns="http://www.w3.org/2000/svg"
   xmlns:svg="http://www.w3.org/2000/svg">
  <defs
     id="defs8" />
  <sodipodi:namedview
     id="namedview6"
     pagecolor="#ffffff"
     bordercolor="#000000"
     borderopacity="0.25"
     inkscape:showpageshadow="2"
     inkscape:pageopacity="0.0"
     inkscape:pagecheckerboard="0"
     inkscape:deskcolor="#d1d1d1"
     showgrid="false"
     inkscape:zoom="0.38254353"
     inkscape:cx="908.39336"
     inkscape:cy="899.24408"
     inkscape:window-width="1920"
     inkscape:window-height="1137"
     inkscape:window-x="-8"
     inkscape:window-y="-8"
     inkscape:window-maximized="1"
     inkscape:current-layer="svg4" />
  <path
     id="path2"
     style="fill:#000000;stroke:none;stroke-width:99.9079"
     d="m 309.19265,0 c -15.31923,67.937419 -40.29688,117.89078 -74.93164,149.86133 -35.30081,31.97055 -60.27846,65.27343 -74.93164,99.9082 -14.65317,34.63476 -44.29242,103.23836 -88.917963,205.81055 36.632913,15.31921 61.610583,4.66222 74.931633,-31.9707 13.32107,-35.96688 26.97383,-58.27881 40.96094,-66.9375 13.98711,-8.6587 29.30765,-27.30893 45.95899,-55.94922 17.31738,-28.64028 25.97656,-15.65152 25.97656,38.96484 v 740.3184 c -43.29346,11.3228 -64.94141,40.9621 -64.94141,88.9179 0,16.6514 4.32959,38.2994 12.98828,64.9414 8.65871,25.9761 30.63864,38.9629 65.93946,38.9629 -13.98713,-52.6181 -20.98047,-85.9211 -20.98047,-99.9082 0,-25.9761 14.65264,-38.9629 43.95898,-38.9629 32.6366,0 48.95508,12.9868 48.95508,38.9629 0,13.9871 -6.99334,47.2901 -20.98047,99.9082 35.96688,0 57.94681,-12.9868 65.93945,-38.9629 8.65869,-26.642 12.98829,-48.29 12.98829,-64.9414 0,-47.9558 -21.64796,-77.5951 -64.94141,-88.9179 V 339.6875 c 0,-85.2548 -20.98006,-127.88281 -62.94141,-127.88281 21.97976,-26.64213 43.62577,-62.27483 64.93946,-106.90039 C 361.14311,59.612686 351.154,24.643966 309.19265,0 Z m 13.98633,1272.8281 H 272.22586 14.290313 v 79.9278 h 66.9375 l 62.943357,122.8867 h 225.79102 l 62.94335,-122.8867 H 725.345 l 413.6191,333.6914 v 109.9004 h 83.9219 v -443.5918 h 564.7734 v -79.9278 h -170.8066 -50.9531 -435.2149 c 6.1026,-0.8355 11.9735,-2.403 17.4102,-5.084 26.4659,-16.5116 40.9265,-47.769 47.375,-77.5214 5.3414,-38.8158 -19.8467,-73.4056 -19.3809,-111.9786 -3.0101,-42.1689 -8.8853,-84.83858 -10.7676,-127.05074 1.8574,-264.98562 -2.0082,-774.33746 -7.3203,-904.429688 l -1.6386,-43.7031251 -144.8965,1.5214843 c 3.3863,18.6806748 1.9547,36.6632708 2.2559,55.1015628 4.9079,297.277186 10.1663,580.451286 15.0742,877.728516 -78.81027,60.26054 -157.61451,121.23669 -236.87503,180.88669 -44.35056,28.8809 -94.66159,46.4914 -146.43164,55.9883 -30.57297,-0.3056 -62.50563,-19.835 -92.5957,-6.4609 -17.78209,13.655 -23.79548,64.7831 0,76.2304 58.41764,31.3314 128.0549,29.3393 191.65234,17.2286 57.19504,-9.7142 114.83809,-13.4189 172.27344,-21.5352 39.31366,-3.4168 82.10961,-11.2022 118.43749,8.6133 20.2349,8.9729 48.8011,21.7554 75.5742,24.4648 z m 1242.72072,0 c -13.987,-52.6181 -20.9824,-85.9211 -20.9824,-99.9082 0,-25.9761 14.6546,-38.9629 43.9609,-38.9629 32.6366,0 48.9551,12.9868 48.9551,38.9629 0,13.9871 -6.9933,47.2901 -20.9805,99.9082 35.967,0 57.9469,-12.9868 65.9395,-38.9629 8.6586,-26.642 12.9863,-48.29 12.9863,-64.9414 0,-47.9558 -21.646,-77.5951 -64.9395,-88.9179 V 339.6875 c 0,-85.2548 -20.98,-127.88281 -62.9414,-127.88281 21.9798,-26.64213 43.6259,-62.27483 64.9395,-106.90039 C 1654.817,59.612686 1644.8259,24.643966 1602.8645,0 c -15.3192,67.937419 -40.2969,117.89078 -74.9316,149.86133 -35.3008,31.97055 -60.2765,65.27343 -74.9297,99.9082 -14.6532,34.63476 -44.2924,103.23836 -88.918,205.81055 36.633,15.31921 61.6086,4.66222 74.9297,-31.9707 13.3211,-35.96688 26.9758,-58.27881 40.9629,-66.9375 13.9872,-8.6587 29.3057,-27.30893 45.957,-55.94922 17.3174,-28.64028 25.9766,-15.65152 25.9766,38.96484 v 740.3184 c -43.2934,11.3228 -64.9395,40.9621 -64.9395,88.9179 0,16.6514 4.3297,38.2994 12.9883,64.9414 7.9927,25.9761 29.9727,38.9629 65.9395,38.9629 z M 1110.1946,48.486328 c -2.0742,301.944732 -4.5911,611.537462 -6.459,913.474612 4.3949,48.90326 14.1229,97.67966 19.8106,146.43166 3.3266,26.082 20.9376,50.8437 17.2265,77.5234 -6.7628,22.011 -22.7219,58.5715 -51.6816,40.9141 -34.1678,-13.1525 -67.2706,-34.8025 -105.51563,-32.3008 -69.67173,-0.817 -137.65244,14.7968 -206.72657,21.5332 -38.34036,5.4581 -77.34539,13.6786 -116.28515,12.9199 67.32923,-15.2318 134.30441,-40.8688 187.34765,-86.1347 72.21073,-56.1308 150.16442,-111.656 222.2305,-167.96684 9.7764,-12.02889 -3.7461,-632.90886 -8.6133,-924.240235 20.8163,-0.717849 27.8497,-1.436458 48.666,-2.154297 z m -884.92577,165.316402 18.98242,11.99024 -62.94141,87.91797 c 6.66052,-21.97976 11.65606,-40.96199 14.98633,-56.94727 3.99632,-15.98527 13.65343,-30.30593 28.97266,-42.96094 z m 1293.67377,0 18.9825,11.99024 -62.9434,87.91797 c 5.9945,-21.97976 10.99,-40.96199 14.9863,-56.94727 3.9964,-15.98527 13.6555,-30.30593 28.9746,-42.96094 z M 158.1575,1352.7559 h 202.81445 l -25.97656,57.9453 H 184.13406 Z m 711.05469,0 h 269.75191 v 222.7949 z" />
</svg>
