<?xml version="1.0" encoding="UTF-8" standalone="no"?>
<!-- Created with Inkscape (http://www.inkscape.org/) -->

<svg
   width="1800.132"
   height="950.13763"
   viewBox="0 0 1800.132 950.13764"
   version="1.1"
   id="svg570"
   xmlns="http://www.w3.org/2000/svg"
   xmlns:svg="http://www.w3.org/2000/svg">
  <defs
     id="defs567" />
  <path
     id="path777-8"
     style="color:#000000;fill:#000000;stroke-width:0.990805;stroke-linejoin:round"
     d="m 1179.0983,0.42960064 c -3.1605,0.66661376 -6.1101,2.09555296 -8.5922,4.16247196 0,0 -41.4804,34.5399674 -97.989,69.8711914 C 1016.0087,109.79429 944.11328,144.77814 890.02126,147.43449 836.92648,150.04189 748.40269,118.23694 676.09045,84.429278 603.77841,50.621814 546.50788,16.059851 546.50788,16.059851 c -12.22356,-7.3768424 -28.00134,0.200935 -29.88476,14.353201 0,0 -6.47739,48.596522 -24.55345,106.697338 -18.07605,58.10073 -48.52439,124.49122 -90.49222,158.44948 -39.96532,32.3379 -137.35692,54.08132 -222.71638,63.83531 -85.359463,9.75408 -159.068736,9.99901 -159.068736,9.99901 -18.0365203,0.0594 -26.6236313,22.22306 -13.3352484,34.41889 L 275.51878,650.65517 c -2.01124,2.08207 -4.17952,4.15593 -6.14805,6.239 -118.80855,125.72001 -162.84816,253.8667 -162.84816,253.8667 -6.623232,19.2991 7.71986,39.38124 28.12381,39.37678 l 1521.57692,-0.50501 c 21.1084,-0.01 35.482,-21.4014 27.5142,-40.9482 0,0 -50.7125,-122.04769 -175.3493,-245.41969 l 286.1985,-269.96967 c 11.8963,-12.4135 3.4241,-33.04969 -13.763,-33.5229 0,0 -107.1723,7.68389 -190.3322,-3.59514 -83.16,-11.27913 -179.2001,-33.69966 -223.6608,-66.5833 C 1320.8586,255.59218 1278.0009,186.22828 1248.476,125.55552 1218.9511,64.882672 1202.0068,13.60414 1202.0068,13.60414 1198.8403,4.0191886 1188.9753,-1.6540629 1179.0983,0.42960064 Z m -5.192,51.83536436 c 8.1337,21.613228 20.9763,53.729885 38.9336,90.631535 30.7632,63.21744 73.8352,136.70764 130.4244,178.56173 58.1006,42.97182 156.3813,62.39379 241.9017,73.99294 44.7428,6.06849 121.7447,-0.21044 150.8316,1.68328 L 1479.5852,636.04079 C 1352.965,521.31951 1160.5014,413.17807 883.06045,409.79467 611.51075,406.4831 424.83383,509.60225 303.83996,622.85456 L 69.247388,407.63114 c 29.838499,-1.31509 70.425052,-3.86671 114.114912,-8.85918 87.84301,-10.03785 187.54576,-27.41509 243.14391,-72.4023 53.59582,-43.36696 84.26035,-115.948 103.40568,-177.48573 10.52137,-33.81816 17.06118,-63.627725 21.06036,-84.559081 23.836,13.492489 62.07861,34.382825 108.33257,56.007641 74.42969,34.79738 163.27014,70.09343 232.65931,66.68585 68.39172,-3.35863 142.59587,-42.0793 201.56497,-78.94904 34.3788,-21.494928 62.1031,-41.817434 80.3772,-55.804335 z M 882.33667,469.23912 c 460.34413,5.6139 666.12653,309.1352 726.41513,420.96066 l -1429.18052,0.4741 C 200.30338,846.94716 241.72073,772.70474 312.57717,697.72614 422.6708,581.22805 600.44108,465.80132 882.33667,469.23912 Z" />
</svg>
