<?xml version="1.0" encoding="UTF-8" standalone="no"?>
<svg
   id="svg2"
   version="1.1"
   inkscape:version="1.2.1 (9c6d41e410, 2022-07-14)"
   width="1800"
   height="1800"
   sodipodi:docname="US9No300VARB.svg"
   xmlns:inkscape="http://www.inkscape.org/namespaces/inkscape"
   xmlns:sodipodi="http://sodipodi.sourceforge.net/DTD/sodipodi-0.dtd"
   xmlns="http://www.w3.org/2000/svg"
   xmlns:svg="http://www.w3.org/2000/svg"
   xmlns:rdf="http://www.w3.org/1999/02/22-rdf-syntax-ns#"
   xmlns:cc="http://creativecommons.org/ns#"
   xmlns:dc="http://purl.org/dc/elements/1.1/">
  <metadata
     id="metadata18">
    <rdf:RDF>
      <cc:Work
         rdf:about="">
        <dc:format>image/svg+xml</dc:format>
        <dc:type
           rdf:resource="http://purl.org/dc/dcmitype/StillImage" />
        <dc:title />
      </cc:Work>
    </rdf:RDF>
  </metadata>
  <defs
     id="defs16" />
  <sodipodi:namedview
     pagecolor="#ffffff"
     bordercolor="#666666"
     borderopacity="1"
     objecttolerance="10"
     gridtolerance="10"
     guidetolerance="10"
     inkscape:pageopacity="0"
     inkscape:pageshadow="2"
     inkscape:window-width="1920"
     inkscape:window-height="1017"
     id="namedview14"
     showgrid="false"
     inkscape:zoom="0.19788373"
     inkscape:cx="1035.9619"
     inkscape:cy="838.87645"
     inkscape:window-x="-8"
     inkscape:window-y="-8"
     inkscape:window-maximized="1"
     inkscape:current-layer="svg2"
     inkscape:showpageshadow="2"
     inkscape:pagecheckerboard="0"
     inkscape:deskcolor="#d1d1d1" />
  <path
     style="fill:#000000;stroke:none"
     d="M 131.59375,-4.375 C 98.369113,-2.4230995 63.243385,7.2803092 39.59375,31.75 15.111237,58.003426 5.3282736,94.662406 3.7693461,129.84368 3.605729,168.02615 15.22157,205.51567 32.78125,239.0625 c 14.740948,28.61007 35.43743,53.39604 55.90625,78.03125 35.2619,44.09351 73.77807,88.44214 90.47818,143.30057 3.28108,10.86359 5.61901,22.13608 6.83432,33.44943 17.46875,0 34.9375,0 52.40625,0 C 231.54574,428.80134 199.86397,369.03695 158.32917,319.5893 136.74095,291.20689 112.62271,264.88254 91.251112,236.43835 69.300828,199.82901 51.727071,157.67295 57.21875,114.21875 60.11086,90.529458 71.836938,64.864352 95.03125,55.15625 117.6431,45.870608 143.83908,45.7039 166.96875,53 c 24.51691,9.87006 37.29558,38.135848 33.40625,63.4375 -1.98488,13.53606 -6.97224,28.24624 -18.3125,36.78125 -13.67649,8.4822 -32.56353,6.30999 -45.5625,-2.53125 -8.67015,-7.25912 -9.7757,-19.86153 -7.0625,-30.25 0.10976,-10.61412 -8.4205,-18.38073 -11.91456,-27.866251 C 113.21818,84.38371 108.95817,76.172516 104.625,68 c -19.404483,17.600099 -33.304901,44.04662 -29,70.875 5.227469,36.46028 36.58415,68.79412 74,71.28125 32.71498,3.92524 68.68066,-9.35994 86.1875,-38.1875 C 254.2376,143.35216 256.11656,106.78612 249.5,74.125 243.67779,49.06202 226.00577,28.07842 204.34375,15 182.77274,1.5483705 157.09576,-5.4966173 131.59375,-4.375 z"
     id="path4"
     inkscape:connector-curvature="0" />
  <path
     style="fill:#000000;stroke:none"
     d="M 131.6875,647.75 C 99.738745,649.50548 66.4138,658.6125 42.59375,680.8125 16.176684,706.7619 5.6375984,744.66866 3.7895176,780.81224 3.3245068,818.99964 14.922899,856.70489 32.3125,890.28125 c 14.583036,28.56983 35.049747,53.306 55.480745,77.79346 35.317415,44.27159 74.035535,88.48539 91.091185,143.47589 3.4465,11.2475 5.84313,22.6947 7.17807,34.3869 17.44792,0 34.89583,0 52.34375,0 C 231.58603,1080.6189 199.4528,1020.5288 157.711,970.86569 136.45894,943.0984 112.85989,917.07946 91.665673,889.24949 69.502406,852.40384 51.6483,809.93091 57.21875,766.125 60.236709,741.45623 73.087191,714.81167 97.875,706.0625 c 21.97129,-7.97309 47.00855,-7.98827 69.09375,-0.96875 24.71452,9.94188 37.56123,38.70304 33.29851,64.27154 -2.16122,13.35903 -7.10118,27.71611 -18.32976,36.04096 -13.87452,8.43778 -32.78881,6.20926 -45.65625,-2.84375 -8.75011,-7.30104 -9.23236,-19.46551 -7,-29.78125 1.48009,-8.8514 -6.258,-15.18578 -9.03451,-22.92079 -5.21208,-9.91968 -10.38165,-19.86184 -15.62174,-29.76671 -20.375451,18.3037 -34.688599,47.08331 -28.25,74.90625 6.860915,36.0521 39.32843,66.50089 76.65393,67.56802 30.64103,2.52436 63.50242,-9.57962 80.90857,-35.69302 20.04917,-28.76251 22.39349,-66.64083 15.65625,-100.25 -5.853,-25.73262 -24.0874,-46.98992 -46.41416,-60.24285 C 181.90174,653.43104 156.696,646.63639 131.6875,647.75 z"
     id="path4-3"
     inkscape:connector-curvature="0" />
  <path
     style="fill:#000000;stroke:none"
     d="m 131.59375,1304.8125 c -33.224637,1.9519 -68.350365,11.6553 -92,36.125 -24.482513,26.2534 -34.2654764,62.9124 -35.8244039,98.0937 -0.1636171,38.1824 11.4522239,75.672 29.0119039,109.2188 14.740948,28.6101 35.43743,53.396 55.90625,78.0312 35.2619,44.0936 73.77807,88.4422 90.47818,143.3006 3.28108,10.8636 5.61901,22.1361 6.83432,33.4494 17.46875,0 34.9375,0 52.40625,0 -6.86051,-65.0424 -38.54228,-124.8067 -80.07708,-174.2544 -21.41932,-28.0739 -45.18657,-54.2982 -66.557596,-82.2971 -21.600432,-35.8874 -39.250289,-77.0807 -34.884855,-119.9429 2.300886,-25.8153 15.131997,-54.3121 41.08086,-63.3567 21.929171,-8.0749 46.861671,-8.0055 69.001171,-0.9926 24.51691,9.8701 37.29558,38.1358 33.40625,63.4375 -1.92774,13.3597 -6.85855,27.707 -17.75,36.4062 -13.80463,8.9906 -32.91556,6.7536 -46.09375,-2.1562 -8.7367,-7.1469 -9.78586,-19.9672 -7.15625,-30.4375 0.22837,-10.5605 -8.44365,-18.1978 -11.85555,-27.6686 -4.30382,-8.1908 -8.561,-16.4062 -12.89445,-24.5814 -19.404483,17.6001 -33.304901,44.0466 -29,70.875 5.227469,36.4603 36.58415,68.7941 74,71.2813 32.71498,3.9252 68.68066,-9.36 86.1875,-38.1876 18.4251,-28.6165 20.30406,-65.1826 13.6875,-97.8437 -5.82221,-25.063 -23.49423,-46.0466 -45.15625,-59.125 -21.57101,-13.4516 -47.24799,-20.4966 -72.75,-19.375 z"
     id="path4-3-5"
     inkscape:connector-curvature="0" />
</svg>
