<?xml version="1.0" encoding="UTF-8" standalone="no"?>
<svg
   width="1800pt"
   height="1797.7419pt"
   id="svg1369"
   version="1.0"
   viewBox="0 0 1800 1797.7419"
   xmlns="http://www.w3.org/2000/svg"
   xmlns:svg="http://www.w3.org/2000/svg"
   xmlns:rdf="http://www.w3.org/1999/02/22-rdf-syntax-ns#"
   xmlns:cc="http://creativecommons.org/ns#"
   xmlns:dc="http://purl.org/dc/elements/1.1/">
  <metadata
     id="metadata1376">
    <rdf:RDF>
      <cc:Work
         rdf:about="">
        <dc:format>image/svg+xml</dc:format>
        <dc:type
           rdf:resource="http://purl.org/dc/dcmitype/StillImage" />
        <dc:creator>
          <cc:Agent>
            <dc:title>SR &amp; ST</dc:title>
          </cc:Agent>
        </dc:creator>
        <dc:date>03/04/06</dc:date>
        <dc:publisher>
          <cc:Agent>
            <dc:title>Serge Rosmorduc</dc:title>
          </cc:Agent>
        </dc:publisher>
        <dc:description>optimisation de signes de Jsesh
valeur : HwtaAt</dc:description>
        <cc:license
           rdf:resource="http://creativecommons.org/licenses/GPL/2.0/" />
      </cc:Work>
      <cc:License
         rdf:about="http://creativecommons.org/licenses/GPL/2.0/">
        <cc:permits
           rdf:resource="http://web.resource.org/cc/Reproduction" />
        <cc:permits
           rdf:resource="http://web.resource.org/cc/Distribution" />
        <cc:requires
           rdf:resource="http://web.resource.org/cc/Notice" />
        <cc:permits
           rdf:resource="http://web.resource.org/cc/DerivativeWorks" />
        <cc:requires
           rdf:resource="http://web.resource.org/cc/ShareAlike" />
        <cc:requires
           rdf:resource="http://web.resource.org/cc/SourceCode" />
      </cc:License>
    </rdf:RDF>
  </metadata>
  <defs
     id="defs1374" />
  <path
     id="path1371"
     style="fill:#000000;stroke:none;stroke-width:96.5462"
     d="m 597.50244,0 v 705.5625 c -34.1466,-0.23555 -69.62875,-0.66318 -107.36572,-0.94482 -0.19388,0.0125 -0.45394,0.019 -0.77739,0.019 -8.91997,0 -65.41948,-4.6883 -84.8291,-10.30078 -21.73365,-6.2868 -51.0104,-18.92992 -72.92871,-24.14942 l 0.58723,-52.62158 -78.51709,-0.646 -1.32715,51.68701 c -25.92463,3.0697 -57.81555,8.6792 -82.21143,11.60888 l -2.14014,0.255 -2.13725,0.576 C 41.741688,714.4938 28.49825,745.42327 12.861549,769.87835 L 2.2227195e-4,789.92474 13.119362,809.84368 c 15.47498,23.48178 43.071279,57.76011 152.934088,85.40479 l 1.89993,0.48 1.99221,0.233 27.06446,3.1626 52.15869,5.3936 -0.82306,72.40137 h 86.87549 l 0.99755,-70.21436 c 21.48413,-4.9122 48.96272,-10.72166 70.44433,-15.76025 25.51311,-5.9849 79.21234,-10.88672 80.98243,-10.88672 h 0.0161 c 40.9848,-1.22 77.28056,-1.8553 109.84131,-2.0435 V 1797.7412 H 1241.7964 V 909.00586 c 38.9211,1.5004 77.14,2.7026 113.9883,3.5054 32.9831,0.718 64.898,1.1089 95.2983,1.1089 112.2085,0 203.7858,-5.3336 252.3106,-19.25977 29.6501,-10.32369 51.4994,-24.06477 66.9829,-40.16015 17.9903,-18.70663 27.7486,-41.15276 28.3329,-63.86284 0.6059,-23.45877 -8.5225,-46.44526 -26.6147,-65.10644 -15.3638,-15.84899 -37.559,-28.94999 -66.3149,-37.54688 -58.4669,-16.31698 -199.899,-25.78711 -358.4707,-25.78711 -34.5834,0 -69.9815,0.453 -105.5127,1.3814 V 0 Z m 78.50684,78.414551 H 1163.2896 V 666.11865 c -108.1593,5.03815 -212.84995,14.73305 -294.5186,29.86524 -66.5137,6.72912 -128.43075,9.06342 -192.76172,9.61084 z M 1350.5361,731.7334 c 151.3946,0 285.1954,8.6714 338.2895,23.48584 17.8226,5.3365 30.5207,12.62273 38.0978,20.44482 4.8479,5.0097 6.7103,8.9782 6.6133,12.74121 -0.1118,4.5115 -2.7395,9.5523 -8.5475,15.58448 -8.32,8.6431 -21.6899,16.89166 -40.1323,23.33935 -41.4618,11.86139 -125.1109,16.41211 -229.0459,16.41211 -31.2718,0 -64.3803,-0.412 -98.7276,-1.1602 -37.2363,-0.811 -75.8996,-2.033 -115.2876,-3.5625 V 733.20117 c 36.6722,-0.98896 73.1917,-1.46777 108.7403,-1.46777 z m -187.2465,4.37988 v 99.5127 C 1067.173,831.08162 969.4977,825.13475 879.87451,819.1626 821.07442,815.24356 763.79718,810.12686 676.00928,808.51611 v -33.02343 c 66.64105,-0.54418 130.99021,-2.95548 200.18115,-10.00635 l 1.24512,-0.127 1.23337,-0.229 c 78.34439,-14.61245 179.70128,-24.02515 284.62068,-29.01705 z m -912.47613,4.5527 -0.13515,93.9038 -46.58203,-4.9761 -25.0796,-2.9297 c -53.67405,-13.6716 -80.897657,-27.5601 -95.505946,-38.64689 13.502147,-10.35049 40.021976,-23.301 96.095216,-38.55908 24.40221,-2.9306 46.80559,-5.8614 71.20751,-8.79203 z m 84.4878,4.3242 c 19.14723,4.8118 33.0983,11.33685 52.22754,16.86915 24.9131,7.2073 92.88554,12.65478 103.51025,12.65478 0.39708,0 0.71493,-0.008 0.94629,-0.0234 36.90462,0.297 71.80469,0.724 105.51708,0.959 v 32.62113 c -32.70506,0.19284 -69.09018,0.83425 -110.09179,2.0625 h -0.022 c -2.18656,0 -64.53135,5.4184 -94.62011,12.47461 -20.7006,4.8556 -37.40349,10.48763 -58.10156,15.24902 z m 340.70801,133.48394 c 86.51435,1.61759 142.40111,6.67177 199.76806,10.49414 90.97635,6.06268 190.07156,12.08837 287.51226,16.66846 V 1028.1108 H 838.43555 v 685.4078 H 676.00928 Z M 916.94239,1112.335 h 246.34721 v 601.1836 H 916.94239 Z" />
</svg>
