<?xml version="1.0" encoding="UTF-8" standalone="no"?>
<svg
   width="1795.5648"
   height="1797.7445"
   version="1.1"
   id="svg1"
   sodipodi:docname="US9O354VARA.svg"
   inkscape:version="1.3 (0e150ed6c4, 2023-07-21)"
   xmlns:inkscape="http://www.inkscape.org/namespaces/inkscape"
   xmlns:sodipodi="http://sodipodi.sourceforge.net/DTD/sodipodi-0.dtd"
   xmlns="http://www.w3.org/2000/svg"
   xmlns:svg="http://www.w3.org/2000/svg">
  <defs
     id="defs1" />
  <sodipodi:namedview
     id="namedview1"
     pagecolor="#ffffff"
     bordercolor="#000000"
     borderopacity="0.25"
     inkscape:showpageshadow="2"
     inkscape:pageopacity="0.0"
     inkscape:pagecheckerboard="0"
     inkscape:deskcolor="#d1d1d1"
     inkscape:zoom="0.22507243"
     inkscape:cx="848.61572"
     inkscape:cy="899.71038"
     inkscape:window-width="1920"
     inkscape:window-height="1137"
     inkscape:window-x="-8"
     inkscape:window-y="-8"
     inkscape:window-maximized="1"
     inkscape:current-layer="svg1" />
  <path
     id="path1"
     style="fill:#000000;stroke:none;stroke-width:100"
     d="M 505.04297 0 L 505.04297 105.4668 L 612.9082 105.4668 L 612.9082 282.8457 L 505.04297 282.8457 L 505.04297 388.3125 L 612.9082 388.3125 L 612.9082 565.68945 L 505.04297 565.68945 L 505.04297 668.76172 L 612.9082 668.76172 L 612.9082 846.13867 L 505.04297 846.13867 L 505.04297 951.60547 L 612.9082 951.60547 L 612.9082 992.04297 C 518.13241 992.69802 437.97246 989.46793 386.42578 979.25586 C 376.81869 967.72697 284.02983 832.50055 225.02148 817.85156 C 220.38089 816.69946 206.52432 815.40732 189.24023 814.04492 C 179.61334 732.2468 169.90752 650.44977 160.24023 568.65625 C 178.74872 545.89847 219.77557 552.09238 230.66406 520.54102 C 241.82045 505.75863 234.2442 481.02551 214.04102 480.47461 C 198.68763 474.35322 154.80477 473.60181 149.39258 474.13281 C 118.65481 479.79881 77.734183 498.5109 83.080078 536.28906 L 83.080078 807.43945 C 22.848732 804.26886 18.378782 805.31939 0 804.40039 C 0 838.50296 12.243722 875.53376 57.841797 881.27539 C 58.802496 958.13271 72.257483 1052.2514 86.667969 1100.2871 C 86.753969 1100.2221 86.843788 1100.1782 86.929688 1100.1133 L 98.214844 1226.043 C 98.214844 1256.755 213.99805 1238.291 213.99805 1238.291 L 208.70508 1111.8359 C 322.38181 1112.7206 463.87008 1114.7999 612.9082 1117.3633 L 612.9082 1128.9844 L 505.04297 1128.9844 L 505.04297 1234.4512 L 612.9082 1234.4512 L 612.9082 1411.8281 L 505.04297 1411.8281 L 505.04297 1514.8984 L 612.9082 1514.8984 L 612.9082 1692.2773 L 505.04297 1692.2773 L 505.04297 1797.7441 L 1293.6543 1797.7441 L 1293.6543 1692.2773 L 1185.7891 1692.2773 L 1185.7891 1514.8984 L 1293.6543 1514.8984 L 1293.6543 1411.8281 L 1185.7891 1411.8281 L 1185.7891 1234.4512 L 1293.6543 1234.4512 L 1293.6543 1130.9395 C 1500.9573 1135.5281 1725.3911 1140.6602 1742.9004 1140.6602 C 1767.0617 1140.6602 1783.1855 1114.7484 1783.1855 1078.7227 L 1795.5645 535.98242 L 1498.4746 532.91992 L 1474.3301 956.24805 C 1397.4189 956.46953 1295.6491 961.20753 1185.7891 967.09961 L 1185.7891 951.60547 L 1293.6543 951.60547 L 1293.6543 846.13867 L 1185.7891 846.13867 L 1185.7891 668.76172 L 1293.6543 668.76172 L 1293.6543 565.68945 L 1185.7891 565.68945 L 1185.7891 388.3125 L 1293.6543 388.3125 L 1293.6543 282.8457 L 1185.7891 282.8457 L 1185.7891 105.4668 L 1293.6543 105.4668 L 1293.6543 0 L 505.04297 0 z M 692.00977 105.4668 L 1109.0859 105.4668 L 1109.0859 971.24414 C 968.85016 979.03007 822.45387 987.39471 692.00977 990.70312 L 692.00977 105.4668 z M 1557.2637 594.81445 C 1669.444 600.28215 1721.0596 601.86702 1733.6719 600.98242 L 1721.293 1086.8145 C 1641.4352 1054.2797 1592.2158 1021.3105 1536.1797 977.06836 L 1557.2637 594.81445 z M 692.00977 1118.7871 C 831.20208 1121.3061 973.94694 1124.1571 1109.0859 1127.0117 L 1109.0859 1694.6738 L 692.00977 1694.6738 L 692.00977 1118.7871 z M 1185.7891 1128.6055 C 1194.7436 1128.7987 1194.4303 1128.7928 1203.2637 1128.9844 L 1185.7891 1128.9844 L 1185.7891 1128.6055 z " />
</svg>
