<?xml version="1.0" encoding="UTF-8" standalone="no"?>
<svg
   width="1796.7201"
   height="1795.0096"
   version="1.1"
   id="svg2937"
   xmlns="http://www.w3.org/2000/svg"
   xmlns:svg="http://www.w3.org/2000/svg">
  <defs
     id="defs2941" />
  <path
     id="path2935"
     style="fill:#000000;stroke:none;stroke-width:100"
     d="M 899.45403,0 C 649.05938,0 99.833144,74.18176 3.6816407,263.00968 L 0,1794.5097 l 1795.8998,0.5 0.8203,-1536.99612 C 1700.5685,69.185666 1148.847,0 899.45403,0 Z m 0,102.9961 c 224.35347,0 715.57987,49.44527 796.70747,198.79092 L 1695.394,1698.2109 98.298828,1697.9257 101.74024,306.78312 C 184.87125,157.43736 676.10206,102.9961 899.45403,102.9961 Z m 203.41677,158.18164 c -183.16365,26.01767 -331.84555,39.54719 -474.42181,40.58789 v 220.10938 c 218.54758,1.04069 346.03432,44.75059 382.45891,131.1289 l -0.9316,961.26169 h 92.7109 l 0.3223,-1293.76755 z m -90.4023,71.80859 V 557.7793 C 980.20676,509.90685 870.93402,485.97071 684.64821,485.97071 V 337.66993 c 98.8668,-1.0406 208.13943,-2.6022 327.82029,-4.6836 z" />
</svg>
