<?xml version="1.0" encoding="UTF-8" standalone="no"?>
<svg
   width="1800"
   height="1800"
   version="1.1"
   id="svg1"
   xmlns="http://www.w3.org/2000/svg"
   xmlns:svg="http://www.w3.org/2000/svg">
  <defs
     id="defs1" />
  <path
     id="path1"
     style="display:inline;fill:#000000;stroke:none;stroke-width:96.2934"
     d="M 142.7832 0 L 142.7832 154.45312 L 0 154.45312 L 0 249.32812 L 142.7832 249.32812 L 142.7832 375.0957 L 0 375.0957 L 0 469.9707 L 142.7832 469.9707 L 142.7832 595.74023 L 0 595.74023 L 0 692.82031 L 142.7832 692.82031 L 142.7832 816.38281 L 0 816.38281 L 0 913.4668 L 142.7832 913.4668 L 142.7832 1037.0273 L 0 1037.0273 L 0 1134.1113 L 142.7832 1134.1113 L 142.7832 1266.8496 L 0 1266.8496 L 0 1363.9336 L 142.7832 1364.2871 L 142.7832 1477.9609 L 0 1477.9609 L 0 1575.0469 L 142.7832 1575.3984 L 142.7832 1701.1641 L 0 1701.1641 L 0 1796.9453 L 232.5293 1796.9453 L 232.5293 249.32812 L 1572.6387 249.32812 L 1572.6387 1701.1641 L 960.7168 1701.1641 L 957.88867 1097.3105 L 872.19922 1097.3105 L 874.72852 1796.9453 L 1799.998 1796.9453 L 1799.998 1699.8652 L 1662.3867 1699.8652 L 1662.3867 1575.3984 L 1799.998 1575.3984 L 1799.998 1480.5215 L 1662.3867 1477.9609 L 1662.3867 1364.2871 L 1799.998 1364.2871 L 1799.998 1269.4102 L 1662.3867 1266.8496 L 1662.3867 1134.1113 L 1799.998 1134.1113 L 1799.998 1037.0273 L 1662.3867 1037.0273 L 1662.3867 913.4668 L 1799.998 913.4668 L 1799.998 816.38281 L 1662.3867 816.38281 L 1662.3867 692.82031 L 1799.998 692.82031 L 1799.998 595.74023 L 1662.3867 595.74023 L 1662.3867 469.9707 L 1799.998 469.9707 L 1799.998 375.0957 L 1662.3867 375.0957 L 1662.3867 249.32812 L 1799.998 249.32812 L 1799.998 154.45312 L 1662.3867 154.45312 L 1662.3867 0 L 1572.6387 0 L 1572.6387 154.45312 L 1458.4121 154.45312 L 1458.4121 0 L 1368.666 0 L 1368.666 154.45312 L 1254.4395 154.45312 L 1254.4395 0 L 1164.6895 0 L 1164.6895 154.45312 L 1050.4648 154.45312 L 1050.4648 0 L 960.7168 0 L 960.7168 154.45312 L 844.45312 154.45312 L 844.45312 0 L 756.74219 0 L 756.74219 154.45312 L 640.47852 154.45312 L 640.47852 0 L 550.73047 0 L 550.73047 154.45312 L 436.50391 154.45312 L 436.50391 0 L 346.75586 0 L 346.75586 154.45312 L 232.5293 154.45312 L 232.5293 0 L 142.7832 0 z M 554.88867 453.04688 C 579.31899 536.0904 603.74937 619.1342 628.17969 702.17773 L 701.77539 952.44727 L 1096.3848 952.44727 C 1145.3325 785.97639 1194.2947 619.50922 1243.2715 453.04688 C 1013.8107 453.04687 784.34938 453.04688 554.88867 453.04688 z M 666.77734 535.27344 L 669.45117 535.27344 L 1131.3828 535.27344 C 1098.5371 646.92164 1065.6963 758.57164 1032.8535 870.2207 L 765.30664 870.2207 C 732.46386 758.57164 699.62305 646.92164 666.77734 535.27344 z " />
</svg>
