<?xml version="1.0" encoding="UTF-8" standalone="no"?>
<svg
   width="1347.812"
   height="1799.9929"
   version="1.1"
   id="svg1"
   xmlns="http://www.w3.org/2000/svg"
   xmlns:svg="http://www.w3.org/2000/svg">
  <defs
     id="defs1" />
  <path
     id="path1"
     style="fill:#000000;stroke:none;stroke-width:97.3127"
     d="m 1169.78,198.20088 h 25.717 c 13.9095,0 20.864,9.73081 20.864,29.19406 0,20.96044 -6.9545,31.44192 -20.864,31.44192 h -30.3483 c 0,0 -26.1238,21.40783 -26.1238,65.69013 26.9492,25.45193 23.9557,50.15433 -8.9821,74.10907 l 98.7452,1199.23704 h 119.024 v 202.1198 H 0 V 1597.8731 H 121.26968 L 209.27811,398.63606 c -32.93768,-23.95474 -35.18288,-48.65714 -6.73648,-74.10907 0,-54.98714 -27.4977,-65.69013 -27.4977,-65.69013 h -28.45105 c -12.64508,0 -18.6501,-10.10615 -18.01782,-30.31799 0.63226,-20.21184 7.27029,-30.31799 19.91525,-30.31799 h 28.11681 c 221.38,-221.373311 689.215,-303.95587 993.17288,0 z M 673.40615,72.8515 C 534.4235,72.791557 395.50562,114.64265 285.57662,198.20088 H 1060.7965 C 951.09152,114.84883 812.33262,72.911423 673.40615,72.8515 Z M 1077.5314,258.83686 H 264.21497 c 4.34483,8.02139 7.94468,26.23116 7.94468,65.69013 h 797.24725 c 0,-39.4589 3.6815,-57.66872 8.1245,-65.69013 z m -26.0911,139.7992 -761.31427,2.24551 v -2.24551 l -90.254,1199.23704 H 327.88058 L 391.18603,515.41696 h 556.94889 l 65.05998,1082.45614 h 134.745 z M 887.49892,576.05059 H 454.06746 L 397.49861,1597.8731 H 945.8224 Z M 1280.4395,1669.7364 H 69.61803 v 56.145 H 1280.4395 Z" />
</svg>
