<?xml version="1.0" encoding="UTF-8" standalone="no"?>
<svg
   width="1799.998"
   height="1799.0588"
   version="1.1"
   id="svg1"
   xmlns="http://www.w3.org/2000/svg"
   xmlns:svg="http://www.w3.org/2000/svg">
  <defs
     id="defs1" />
  <path
     id="path1"
     style="fill:#000000;stroke:none;stroke-width:80.7974"
     d="M 1554.4648 0 L 1554.4648 39.289062 L 1552.4863 345.11133 L 1442.6289 346.44531 L 1413.2773 380.11133 L 1392.8613 1635.459 L 1798.3477 1635.459 L 1771.0488 380.57617 L 1743.5938 346.44531 L 1631.0684 345.11133 L 1633.0469 39.289062 L 1633.0469 0 L 1554.4648 0 z M 1507.291 411.10742 L 1677.5957 415.11133 L 1700.8965 440.5332 L 1728.3477 1565.459 L 1462.8613 1565.459 L 1482.752 444.66211 L 1507.291 411.10742 z M 0 472.36133 L 0 1799.0586 L 1799.998 1799.0586 C 1799.998 1777.2328 1799.3985 1721.8882 1798.1992 1700.6934 C 1797.8803 1695.0579 1151.1387 1706.2989 1151.1387 1700.6934 C 1151.1387 1459.9919 1052.2048 1282.626 881.81641 1125.543 C 707.76231 965.08053 442.78536 878.77281 92.412109 866.62109 C 90.573011 866.55729 94.256108 473.71985 92.412109 473.66016 C 63.140939 472.71251 30.49537 472.27932 0 472.36133 z M 85.650391 957.36914 C 395.81058 957.36914 638.81419 1037.4737 814.6582 1197.6816 C 990.50213 1357.8897 1049.0996 1495.0206 1049.0996 1702.916 L 765.01953 1702.916 C 765.01953 1549.6735 705.32382 1445.9586 585.93164 1340.9395 C 466.53946 1235.9202 299.77768 1183.4102 85.650391 1183.4102 L 85.650391 957.36914 z M 85.650391 1274.0352 C 282.90719 1274.0352 431.49968 1318.0798 531.42578 1413.9902 C 631.35188 1509.9004 659.81055 1577.5357 659.81055 1702.916 L 85.650391 1702.916 L 85.650391 1274.0352 z " />
</svg>
