<?xml version="1.0" encoding="UTF-8" standalone="no"?>
<svg
   width="1799.998"
   height="600.75977"
   version="1.1"
   id="svg1"
   xmlns="http://www.w3.org/2000/svg"
   xmlns:svg="http://www.w3.org/2000/svg">
  <defs
     id="defs1" />
  <path
     id="path1"
     style="display:inline;fill:#000000;stroke:none;stroke-width:108.834"
     d="M 299.23828,0 C 99.746723,0 0,101.2694 0,303.80664 0,501.77533 100.50909,600.75977 301.52344,600.75977 H 1500.7598 C 1700.2513,599.23697 1799.998,497.20521 1799.998,294.66797 1799.998,98.222068 1699.4909,0 1498.4766,0 Z m 0,68.527344 H 560.67969 L 758.31445,532.23242 H 299.23828 c -147.71515,0 -221.574217,-76.14219 -221.574218,-228.42578 0,-9.61291 0.290176,-18.93304 0.867188,-27.95703 C 87.186434,140.48967 160.75534,71.382645 299.23828,68.527344 Z m 354.9707,0 H 768.27734 L 963.74414,532.23242 H 847.50195 Z m 203.21875,0 H 984.9707 l 195.4668,463.705076 h -125.375 z m 216.69337,0 h 426.6387 c 147.7151,0 221.5742,76.142196 221.5742,228.425776 0,153.80648 -73.8591,232.23365 -221.5742,235.2793 h -229.0039 z" />
</svg>
