<?xml version="1.0" encoding="UTF-8" standalone="no"?>
<svg
   width="892.33185"
   height="1799.9064"
   version="1.1"
   id="svg1"
   xmlns="http://www.w3.org/2000/svg"
   xmlns:svg="http://www.w3.org/2000/svg">
  <defs
     id="defs1" />
  <path
     style="fill:#000000;stroke:none;stroke-width:84.9896"
     d="m 544.77083,1748.6531 c 0,0 86.25182,-309.9277 198.80606,-484.9031 l -613.3892,-1.212 c 65.19574,102.8534 232.25218,483.6792 232.25218,483.6792 z M 445.12925,1.0806338 c 89.43053,0.058595 358.86714,-2.931445 447.20258,90.1207472 0,18.951199 -74.81099,276.585429 -137.35008,665.085539 -30.34694,188.51878 -55.41343,336.98318 -75.19946,444.43578 -0.81176,4.4086 170.00338,2.0734 170.00338,2.0734 -12.54682,48.3224 -98.58718,183.5061 -149.73886,315.7223 -55.13391,142.5096 -90.89133,281.3879 -90.89133,281.3879 H 294.7232 c 0,0 -37.52846,-117.3617 -95.2561,-250.1735 -60.46918,-139.1192 -141.488762,-284.8239 -151.837885,-340.7165 -0.74944,-4.0475 162.798595,-4.1264 162.033565,-8.2936 C 190.00468,1093.6455 165.20931,942.23217 135.27667,756.28692 72.737638,367.78681 0,110.15258 0,91.201381 110.61992,-16.435032 355.69872,1.0220387 445.12925,1.0806338 Z M 441.33896,1200.7227 c -41.69272,-97.2829 -50.85248,-170.9065 -27.47926,-213.23085 23.37317,-42.32453 23.37317,-83.38547 0,-123.1829 -23.37322,-39.79763 -23.68909,-82.12204 -0.94763,-126.97326 22.74154,-44.85123 22.42568,-86.22808 -0.94754,-124.13054 -23.37316,-37.9024 -23.37316,-75.80484 0,-113.70731 23.37322,-37.90245 24.63664,-75.80491 3.79028,-113.70733 -20.84636,-37.90245 -15.47686,-78.0159 16.1085,-120.34032 31.58542,-42.32436 10.10738,-52.74755 -64.43409,-31.26955 -27.79517,2.52686 -61.90739,-8.84385 -102.33665,-34.11217 l -13.26586,-24.63654 c 31.58537,-36.63906 73.27807,-54.9586 125.07808,-54.9586 61.90733,0 107.39026,27.79515 136.44884,83.38541 6.31704,11.3707 9.79142,27.47923 10.42311,48.3256 0.63176,20.84635 -8.84384,39.16588 -28.42679,54.95859 -19.58291,15.79266 -19.58291,42.00853 0,78.64758 19.58295,36.63903 18.31955,74.22561 -3.7902,112.75979 -22.10982,38.53416 -22.10982,76.75245 0,114.65485 22.10975,37.90246 21.79388,79.27931 -0.94764,124.13054 -22.74145,44.85122 -22.74145,87.17563 0,126.97326 22.74152,39.79743 21.16226,81.17427 -4.73775,124.13052 -25.9,42.95613 -22.42563,116.26393 10.42313,212.28323 h 115.6025 L 818.24376,122.59305 C 754.74731,75.296397 532.80971,67.409911 445.12925,67.409911 c -87.68046,0 -338.64584,-2.480547 -368.967786,53.109729 L 280.25354,1200.7227 Z"
     id="path1" />
</svg>
