<?xml version="1.0" encoding="UTF-8" standalone="no"?>
<!-- Created with Inkscape (http://www.inkscape.org/) -->

<svg
   id="svg1290"
   height="995.33246"
   width="1799.9844"
   version="1.1"
   xml:space="preserve"
   xmlns="http://www.w3.org/2000/svg"
   xmlns:svg="http://www.w3.org/2000/svg"
   xmlns:rdf="http://www.w3.org/1999/02/22-rdf-syntax-ns#"
   xmlns:cc="http://creativecommons.org/ns#"
   xmlns:dc="http://purl.org/dc/elements/1.1/"><path
     id="path2135"
     style="display:inline;opacity:1;fill:#000000;fill-opacity:1;fill-rule:nonzero;stroke:none;stroke-width:96.3203;stroke-linecap:butt;stroke-linejoin:miter;stroke-miterlimit:4;stroke-opacity:1"
     d="M 0 0 L 0 995.33203 L 641.13086 995.33203 L 641.13086 899.01172 L 96.320312 899.01172 L 96.320312 96.320312 L 1703.6641 96.320312 L 1703.6641 899.01172 L 1216.043 899.01172 L 1216.043 995.33203 L 1799.9844 995.33203 L 1799.9844 0 L 0 0 z M 460.49023 179.35352 C 451.38688 179.49202 441.69639 180.14815 431.41797 181.32227 C 334.90349 191.62772 291.73627 242.94871 301.91602 335.28516 C 313.41811 439.48384 396.27354 482.98704 550.48242 465.79688 C 871.34073 411.90201 1169.1218 531.60578 1443.8223 824.9043 L 1508.8574 757.32227 L 1306.8691 587.28711 C 1343.7269 556.10009 1396.6998 520.5673 1465.7852 480.68945 C 1334.3945 347.67267 1181.9354 265.41752 1008.4121 233.92383 C 873.44938 209.42871 725.74332 215.64243 565.29297 252.5625 C 559.14957 202.78656 524.21374 178.38396 460.49023 179.35352 z M 445.23828 241.4375 C 489.46022 240.62373 514.67073 268.01685 520.86914 323.62109 C 681.61908 272.61859 831.33951 259.24521 970.0293 283.49609 C 1108.7192 307.74699 1236.3803 369.62463 1353.0098 469.12891 C 1311.9954 490.46909 1271.9776 518.21221 1232.957 552.35938 C 978.62391 406.63776 860.72462 366.46258 543.54102 403.51953 C 436.78082 415.42053 379.6278 389.55926 372.08203 325.93359 C 366.53041 275.11493 387.8834 247.12942 436.14062 241.97656 C 439.25774 241.67157 442.29015 241.49175 445.23828 241.4375 z " /><defs
     id="defs3" /><metadata
     id="metadata4"><rdf:RDF><cc:Work
         rdf:about=""><dc:format>image/svg+xml</dc:format><dc:type
           rdf:resource="http://purl.org/dc/dcmitype/StillImage" /><cc:license
           rdf:resource="http://creativecommons.org/licenses/by/2.0/" /><dc:subject><rdf:Bag><rdf:li>JSesh hieroglyph</rdf:li></rdf:Bag></dc:subject><dc:creator><cc:Agent><dc:title>Serge Rosmorduc</dc:title></cc:Agent></dc:creator><dc:description>Sign from Hypostyle Hall, Karnak
</dc:description></cc:Work><cc:License
         rdf:about="http://creativecommons.org/licenses/by/2.0/"><cc:permits
           rdf:resource="http://web.resource.org/cc/Reproduction" /><cc:permits
           rdf:resource="http://web.resource.org/cc/Distribution" /><cc:requires
           rdf:resource="http://web.resource.org/cc/Notice" /><cc:requires
           rdf:resource="http://web.resource.org/cc/Attribution" /><cc:permits
           rdf:resource="http://web.resource.org/cc/DerivativeWorks" /><cc:requires
           rdf:resource="http://web.resource.org/cc/ShareAlike" /></cc:License></rdf:RDF></metadata></svg>
