<?xml version="1.0" encoding="UTF-8" standalone="no"?>
<svg
   width="1794.7402"
   height="1795.2949"
   id="svg2"
   version="1.0"
   xmlns="http://www.w3.org/2000/svg"
   xmlns:svg="http://www.w3.org/2000/svg"
   xmlns:rdf="http://www.w3.org/1999/02/22-rdf-syntax-ns#"
   xmlns:cc="http://creativecommons.org/ns#"
   xmlns:dc="http://purl.org/dc/elements/1.1/">
  <metadata
     id="metadata9">
    <rdf:RDF>
      <cc:Work
         rdf:about="">
        <dc:format>image/svg+xml</dc:format>
        <dc:type
           rdf:resource="http://purl.org/dc/dcmitype/StillImage" />
      </cc:Work>
    </rdf:RDF>
  </metadata>
  <defs
     id="defs7" />
  <path
     id="path4"
     style="fill:#000000;stroke:none;stroke-width:110.98"
     d="M 468.53906,0.17720223 C 334.7161,2.3227843 262.91953,24.427076 135.79492,89.333452 75.583247,105.93681 0.3546206,68.040579 0.97265625,88.413531 1.2497397,97.54732 37.968691,123.62485 58.460938,130.31001 c 14.587043,4.75871 27.768732,13.16211 62.955082,13.16211 -0.0762,13.32048 0.17887,31.16836 0.48828,48.79492 l -0.6211,-5.125 c -1.3201,5.47795 -46.757088,27.43382 -59.517575,70.30274 -12.986187,43.62722 -7.426439,75.37265 -18.111328,115.75976 -7.925592,29.95723 -20.457031,62.66016 -20.457031,62.66016 0,0 16.288591,10.94203 23.646484,11.17187 6.039494,0.18866 28.645159,-22.51174 34.626953,-45.78906 7.535893,-29.3246 1.649045,-60.27899 21.044917,-101.40429 8.9099,-18.89213 16.6803,-26.38035 22.30274,-29.24024 6.4e-4,0.009 0.001,0.022 0.002,0.0312 V 1376.2514 l 1.05274,26.5254 H 0 l 0.13476562,1.1425 C 19.97172,1483.4011 102.36565,1549.1112 179.75586,1609.4057 c 90.69225,60.8951 200.99458,110.2506 319.83984,145.2578 185.16711,46.3018 389.53619,45.7525 584.4336,33.7558 132.8204,-9.1608 261.1723,-39.9122 369.2246,-90.9433 145.1975,-60.3179 263.9359,-149.3128 326.9043,-253.5176 13.3217,-21.8842 29.0332,-54.1862 -29.2949,-41.1816 h -67.5098 l 1.0156,-26.5254 V 270.63423 c 4.9751,0 15.6005,3.19823 28.67,30.91016 19.3958,41.12531 13.509,72.07969 21.0449,101.40429 5.9818,23.27732 28.5874,45.97968 34.6269,45.79102 7.3579,-0.22984 23.6485,-11.17383 23.6485,-11.17383 0,0 -12.5315,-32.70097 -20.4571,-62.6582 -10.6848,-40.38711 -5.1271,-72.13449 -18.1132,-115.76172 -12.7605,-42.86892 -58.1956,-64.82479 -59.5157,-70.30273 -6.0087,-24.93316 2.5798,-13.58022 -6.5,-45.3711 28.0968,5.9543 49.8238,2.92953 71.9375,-11.17187 16.3878,-10.45005 36.6069,-30.69697 34.9317,-47.685548 -1.552,-15.73885 -45.683,36.410828 -127.752,10.265625 C 1522.7404,20.701614 1455.0895,-3.1207393 1279.1582,0.41157723 1209.9208,9.831098 1149.4801,25.433667 1097.8359,47.216265 1046.1915,68.998939 981.7785,84.599485 904.5957,94.018999 826.2778,84.599485 761.57872,68.998939 710.50195,47.216265 659.42502,25.433667 599.26869,9.831098 530.03125,0.41157723 508.03982,-0.02996234 487.65663,-0.12930951 468.53906,0.17720223 Z M 530.03125,58.694781 c 63.5623,12.951837 120.59814,27.964267 171.10742,45.037109 50.5093,17.07291 80.87244,36.79661 91.08789,59.16797 0.3287,7.52131 0.71778,17.18567 1.10742,25.70507 -6.22843,7.11916 -46.78699,28.91685 -58.73046,69.04102 -12.98619,43.62723 -7.42644,75.37461 -18.11133,115.76172 -7.92559,29.95723 -20.45703,62.66015 -20.45703,62.66015 0,0 16.28859,10.94204 23.64648,11.17188 6.03949,0.18866 28.64516,-22.5137 34.62695,-45.79102 7.5359,-29.3246 1.64905,-60.27703 21.04493,-101.40234 7.7909,-16.51947 14.70123,-24.29342 20.07617,-27.90625 -0.006,5.88151 0.33834,12.35028 0.20117,17.92187 V 1376.2514 H 184.41016 V 270.63423 c 2.46318,-43.14443 -3.24324,-98.53057 1.70312,-127.16211 C 256.48584,86.955007 371.1255,58.694781 530.03125,58.694781 Z m 749.12695,0 c 158.9057,0 272.9794,28.260226 342.2168,84.777339 1.5854,41.00401 4.402,86.63931 3.4043,127.16211 V 1376.2514 H 1013.5586 V 290.06196 c 0.432,-5.86679 0.5086,-12.15134 0.7246,-18.2832 5.3351,3.69294 12.1423,11.4821 19.8008,27.7207 19.3959,41.12531 13.509,72.0797 21.0449,101.4043 5.9818,23.27732 28.5875,45.97968 34.627,45.79102 7.3579,-0.22984 23.6464,-11.17383 23.6464,-11.17383 0,0 -12.5314,-32.70293 -20.457,-62.66016 -10.6849,-40.38711 -5.1251,-72.13254 -18.1113,-115.75976 -12.5487,-42.15723 -56.6669,-64.07767 -59.3848,-70.00391 0.2752,-8.74448 0.6636,-17.11182 1.5156,-24.19726 10.2153,-22.37136 40.2926,-42.09506 90.2344,-59.16797 49.9418,-17.072842 107.2617,-32.085272 171.959,-45.037109 z M 904.5957,141.70454 c 19.29563,0 34.61835,7.06604 45.96875,21.19532 4.73762,36.27558 -3.4787,81.9109 3.4043,127.1621 V 1376.2514 H 855.2207 V 290.06196 c 2.39578,-47.80057 -2.19204,-95.244 1.70313,-127.1621 12.48538,-14.12928 28.3761,-21.19532 47.67187,-21.19532 z M 95.990234,1443.9916 c 259.711836,0.084 519.424586,0.011 779.136716,0.035 -67.73345,54.3766 -135.46874,108.7526 -203.20312,163.1289 56.94537,49.316 112.19968,88.4971 169.14648,137.8125 -170.48892,1.8624 -339.53467,-24.7826 -478.09961,-88.2793 -113.03757,-55.3507 -214.41808,-124.2271 -275.697262,-207.5645 0.09081,-2.9369 4.473624,-5.1672 8.716796,-5.1328 z m 825.330076,0.035 h 4.38672 c 151.98577,-10e-5 303.97127,0 455.95707,0 l 300.0918,0.457 0.017,-0.457 h 33.0313 c -83.4209,106.878 -218.7677,197.9198 -383.1465,253.3711 -117.2538,36.2634 -247.6592,50.1164 -378.58398,47.6093 56.95248,-49.3271 115.60318,-88.5143 172.55858,-137.8398 -68.1036,-54.3803 -136.20942,-108.7602 -204.31249,-163.1406 z m -22.48633,24.4043 c 57.38011,45.4123 114.76082,90.8237 172.14062,136.2363 -22.2187,32.4093 -67.0877,59.1022 -98.16796,89.2754 -34.24268,17.7437 -70.17589,80.9642 -104.41797,31.0254 -48.07181,-42.4744 -100.5968,-73.4747 -144.84179,-116.7832 23.51053,-27.2057 62.83434,-50.7668 92.25976,-76.6094 27.53049,-20.2053 55.55485,-47.21 83.02734,-63.1445 z" />
</svg>
