<?xml version="1.0" encoding="UTF-8" standalone="no"?>
<svg
   width="1800"
   height="1800"
   version="1.1"
   id="svg815"
   xmlns="http://www.w3.org/2000/svg"
   xmlns:svg="http://www.w3.org/2000/svg">
  <defs
     id="defs819" />
  <path
     id="path813"
     style="fill:#000000;stroke:none;stroke-width:98.5285"
     d="M 166.66602,3.1132812 V 1593.7637 l -166.39648875,2.1972 v 202.168 H 1798.6348 v -202.168 l -149.3301,-2.1992 V 3.1132812 H 1448.7754 L 1445.1868,301.74316 C 1350.3994,252.3444 1259.0981,176.85569 1164.1133,153.48354 l 0.914,-149.8906327 H 659.3457 V 151.67689 C 561.35471,174.95484 459.67346,250.96755 361.47391,301.74316 L 365.0625,3.1132812 Z m 49.0664,50.5410158 H 318.13086 V 1593.7617 H 215.73242 Z m 1282.10938,0 h 102.3965 V 1593.7617 h -102.3965 z m -788.4961,-0.06139 h 405.375 l -0.5391,88.531253 C 979.43453,115.4465 844.48977,114.98351 709.3457,140.64565 Z M 907.98633,174.37025 c 323.31227,7.93994 380.50017,95.04243 537.20047,175.71861 H 361.47391 C 483.33508,304.22349 584.67407,166.43031 907.98633,174.37025 Z M 361.47391,400.62988 H 1445.1868 V 499.5166 H 361.47391 Z m 0,149.42969 H 1445.1868 l 3.5886,1043.70413 H 365.0625 Z M 66.402344,1657.4902 H 1726.1035 v 79.1094 H 66.402344 Z" />
</svg>
