<?xml version="1.0" encoding="UTF-8" standalone="no"?>
<svg
   width="1799.9937"
   height="1497.9478"
   version="1.1"
   id="svg1"
   xmlns="http://www.w3.org/2000/svg"
   xmlns:svg="http://www.w3.org/2000/svg">
  <defs
     id="defs1" />
  <path
     id="path1"
     style="fill:#000000;stroke:none;stroke-width:99.9389"
     d="M 1387.9238 0.375 C 1373.6528 1.4478208 1357.0438 4.7774729 1337.4375 9.8046875 C 1253.3136 31.375621 1196.352 85.193872 1218.5391 186.69922 L 1422.916 971.95117 L 1422.8652 971.96484 L 1448.1133 1069.6152 L 924.18555 1069.6152 L 922.37109 1063.1074 L 843.45312 764.81055 C 873.88683 702.75977 935.3518 651.6181 1007.0527 616.72266 L 845.32227 239.73438 C 837.00571 213.51665 836.90942 205.2705 835.87891 197.24414 C 879.23144 162.42893 888.68457 120.87734 871.0918 71.404297 C 846.25407 1.5596135 815.81946 -5.5359658 737.37695 14.578125 C 653.25212 36.149286 596.26021 89.975145 618.44727 191.48047 L 852.50977 1069.6152 L 351.91016 1069.6152 L 279.98828 762.79492 C 310.42207 700.74412 371.8869 649.60259 443.58789 614.70703 L 281.85938 237.7168 C 273.54237 211.4992 273.44184 203.25351 272.41406 195.22656 C 315.76665 160.41135 325.21972 118.85975 307.62695 69.386719 C 292.28949 -3.4288263 223.3656 -0.11967513 173.91406 12.560547 C 89.789245 34.131705 32.797312 87.957558 54.984375 189.46289 L 280.32812 1069.6152 L 0 1069.6152 L 0 1497.9473 L 191.35156 1497.9473 L 191.35156 1442.2012 L 58.246094 1442.2012 L 58.246094 1126.7363 L 296.79492 1126.7363 L 335.19531 1275.252 L 402.76562 1256.9688 L 366.42383 1126.7363 L 580.89453 1126.7363 L 580.89453 1442.2012 L 436.79492 1442.2012 L 436.79492 1497.9473 L 779.05469 1497.9473 L 779.05469 1442.2012 L 641.98242 1442.2012 L 641.98242 1126.7363 L 870.44727 1126.7363 L 908.21875 1272.8184 L 975.78906 1254.5352 L 940.12695 1126.7363 L 1165.6309 1126.7363 L 1165.6309 1442.2012 L 1024.5293 1442.2012 L 1024.5293 1497.9473 L 1363.166 1497.9473 L 1363.166 1442.2012 L 1226.0625 1442.2012 L 1226.0625 1126.7363 L 1462.8828 1126.7363 L 1500.6719 1272.8848 L 1568.2422 1254.6016 L 1532.5605 1126.7363 L 1746.7441 1126.7363 L 1746.7441 1442.2012 L 1608.6426 1442.2012 L 1608.6426 1497.9473 L 1799.9941 1497.9473 L 1799.9941 1069.6152 L 1516.6211 1069.6152 L 1503.5918 1022.9258 L 1443.5137 760.03711 C 1473.9473 697.98645 1535.4123 646.84488 1607.1133 611.94922 L 1445.3828 234.96094 C 1437.0662 208.74334 1436.9982 200.4894 1435.9688 192.46289 C 1479.3211 157.64773 1488.745 116.10401 1471.1523 66.630859 C 1452.5203 14.237009 1430.7369 -2.8434624 1387.9238 0.375 z M 1378.6797 51.320312 C 1401.5322 50.687662 1420.2906 59.386524 1426.2031 81.574219 C 1454.9297 141.63471 1357.8567 149.77442 1400.4609 245.48047 L 1543.1895 584.07422 C 1481.7373 622.55284 1446.3275 658.03161 1415.3184 696.72461 L 1296.4414 253.74219 C 1271.1799 178.53538 1262.3276 84.345166 1354.7871 54.910156 C 1362.9903 52.779937 1371.0622 51.531196 1378.6797 51.320312 z M 215.14844 54.052734 C 238.00318 53.428601 256.76531 62.142385 262.67773 84.330078 C 291.40456 144.39053 194.33138 152.53025 236.93555 248.23633 L 379.66406 586.83008 C 318.21223 625.30882 282.80229 660.78744 251.79297 699.48047 L 132.88672 256.50781 C 107.63609 181.31332 98.815753 87.076304 191.25391 57.636719 C 199.45714 55.506493 207.53019 54.260779 215.14844 54.052734 z M 778.61328 56.068359 C 801.468 55.444233 820.23024 64.159938 826.14258 86.347656 C 854.86949 146.40808 757.796 154.54789 800.40039 250.25391 L 943.12891 588.84766 C 881.67696 627.32645 846.26506 662.80497 815.25586 701.49805 L 696.34961 258.52344 C 671.09626 183.30941 662.25696 89.087972 754.71875 59.652344 C 762.92197 57.522122 770.99504 56.276401 778.61328 56.068359 z " />
</svg>
