<?xml version="1.0" encoding="UTF-8" standalone="no"?>
<svg
   width="8.817758"
   height="17.977583"
   version="1.1"
   id="svg12"
   sodipodi:docname="US9O44VARA.svg"
   inkscape:version="1.2.1 (9c6d41e410, 2022-07-14)"
   xmlns:inkscape="http://www.inkscape.org/namespaces/inkscape"
   xmlns:sodipodi="http://sodipodi.sourceforge.net/DTD/sodipodi-0.dtd"
   xmlns="http://www.w3.org/2000/svg"
   xmlns:svg="http://www.w3.org/2000/svg">
  <defs
     id="defs16" />
  <sodipodi:namedview
     id="namedview14"
     pagecolor="#ffffff"
     bordercolor="#000000"
     borderopacity="0.25"
     inkscape:showpageshadow="2"
     inkscape:pageopacity="0.0"
     inkscape:pagecheckerboard="0"
     inkscape:deskcolor="#d1d1d1"
     showgrid="false"
     inkscape:zoom="48.980047"
     inkscape:cx="4.409959"
     inkscape:cy="8.9832498"
     inkscape:window-width="1920"
     inkscape:window-height="1137"
     inkscape:window-x="-8"
     inkscape:window-y="-8"
     inkscape:window-maximized="1"
     inkscape:current-layer="svg12" />
  <path
     id="path10"
     style="fill:#000000;stroke:none"
     d="M 0,0 C 0.55744411,0.7348126 0.86143276,1.437909 0.91210938,2.109375 0.96278599,2.7808416 1.0392718,3.3157648 1.140625,3.7148438 1.2419789,4.1139234 1.4591889,4.4620399 1.7949219,4.7597656 2.1306548,5.0574913 3.1489829,5.7273294 3.8085093,5.7483841 3.8279181,7.6424961 3.6835938,11.255102 3.6835938,14.183594 2.9628895,14.503906 2.6035156,15.045897 2.6035156,15.806641 H 1.4824219 v 0.740234 h 1.1210937 c 0.2135418,0.934246 0.5729157,1.400391 1.0800782,1.400391 L 3.3027344,16.546875 h 1.4824218 l -0.4199218,1.400391 c 0.5071625,0 0.8932285,-0.466145 1.1601562,-1.400391 H 6.6269531 V 15.806641 H 5.5058594 c 0,-0.77409 -0.3880192,-1.316081 -1.1621094,-1.623047 C 4.360936,13.988971 4.4724549,6.3774222 4.426175,5.7688006 4.9522019,5.6304899 5.4340165,5.5204477 5.8460406,5.1237492 6.8571286,5.4839364 7.5749749,6.0532594 8.2851565,6.9550778 L 8.8183594,6.7265625 C 8.0870854,5.8040326 7.2947638,5.1960587 6.2388012,4.7780463 6.5367529,4.486381 6.6310646,4.0908654 6.7265625,3.7148438 6.8279157,3.3157648 6.9009705,2.7808416 6.9453125,2.109375 6.9896552,1.437909 7.3039366,0.7348126 7.8867188,0 H 7.8300781 C 7.4753412,0.3674063 7.1762613,0.68316635 6.9355469,0.94921875 6.6948324,1.2152718 6.4893932,1.7776427 6.3183594,2.6328125 6.1192832,3.528497 5.8413482,3.9630525 5.2950764,4.3884892 4.4207849,4.0418099 3.6690577,3.6098156 3.4199219,3.1738281 3.1158615,2.641722 3.129586,2.201918 3.4589844,1.8535156 3.7883833,1.5051133 4.1296381,1.377637 4.484375,1.4726562 4.8391119,1.5676749 5.0479822,1.776545 5.1113281,2.0996094 5.1746741,2.4226731 5.0780778,2.6384059 4.8183594,2.7460938 4.5586416,2.8537816 4.3649738,2.7042417 4.2382812,2.2988281 H 3.78125 c 0,0.2787224 0.091687,0.5081784 0.2753906,0.6855469 C 4.2403431,3.1617435 4.4477355,3.25 4.6757812,3.25 4.9291643,3.25 5.1429434,3.1666523 5.3203125,3.0019531 5.4976803,2.8372533 5.5878906,2.5724845 5.5878906,2.2050781 5.5878906,1.8376718 5.467277,1.5371141 5.2265625,1.3027344 4.9858487,1.0683546 4.627438,0.95264938 4.1523438,0.95898438 3.6772495,0.96531904 3.2781425,1.2202703 2.9550781,1.7207031 2.6320137,2.2211353 2.6506471,2.800187 3.0117188,3.4589844 3.2780507,3.9449233 4.1759147,4.4010127 4.8868451,4.7077338 4.6870326,4.8067521 4.6139881,4.9231 4.1368733,4.921875 3.5293132,4.9203151 3.1474051,4.7159536 2.6230469,4.2851562 2.160854,3.905432 1.719862,3.4879816 1.5488281,2.6328125 1.3777943,1.7776427 1.1723551,1.2152718 0.93164062,0.94921875 0.6909262,0.68316635 0.39870895,0.3674063 0.05664062,0 Z m 4.0644531,14.904297 c 0.4938165,0 0.7402344,0.307941 0.7402344,0.921875 H 3.3027344 c 0,-0.613934 0.2545562,-0.921875 0.7617187,-0.921875 z"
     sodipodi:nodetypes="csssccccccccccccccccccccssccsccsssssccsscssssscssscccsccs" />
  <g
     id="g188"
     transform="translate(-18.002827,-1.0512756)" />
</svg>
