<?xml version="1.0" encoding="UTF-8" standalone="no"?>
<svg
   width="1584.8588"
   height="1799.635"
   version="1.1"
   id="svg1"
   xmlns="http://www.w3.org/2000/svg"
   xmlns:svg="http://www.w3.org/2000/svg">
  <defs
     id="defs1" />
  <path
     id="path1"
     style="fill:#000000;stroke:none;stroke-width:110.575"
     d="m 0,0 v 215.08487 h 254.61035 v 127.9624 H 1.5243725 V 544.51882 H 254.61035 v 242.3115 H 1.5243725 V 982.85699 H 254.61035 V 1214.2789 H 1.5243725 v 198.7478 H 254.61035 v 182.4136 H 0 v 204.1949 h 1584.8588 v -204.1949 h -252.2919 v -182.4136 h 250.7416 V 1214.2789 H 1332.5669 V 982.85699 h 250.7416 V 786.83032 h -250.7416 v -242.3115 h 250.7416 V 343.04727 h -250.7416 v -127.9624 h 252.2919 V 0 Z M 51.555297,59.895823 H 1533.3036 V 152.46545 H 51.555297 Z M 306.16562,215.08487 h 74.98771 V 1595.4403 h -74.98771 z m 126.541,0 H 1154.4686 V 1595.4403 H 432.70662 Z m 773.31728,0 h 74.9876 V 1595.4403 h -74.9876 z m -281.20683,40.83996 c -139.04053,27.22588 -267.14446,41.74608 -384.3134,43.56122 v 204.19514 c 179.65905,1.81504 284.32934,48.09901 314.01219,138.85213 v 917.51408 h 70.30121 z m -70.30121,76.2327 v 206.9164 C 827.95757,488.25221 738.12905,462.84123 585.02823,462.84123 V 337.60241 c 81.23714,-1.81506 171.06564,-3.62981 269.48763,-5.44488 z M 53.079661,405.66669 H 254.61035 v 78.9563 H 53.079661 Z m 1279.487239,0 h 196.8442 v 78.9563 H 1332.5669 Z M 53.079661,846.72613 H 254.61035 v 73.51145 H 53.079661 Z m 1279.487239,0 h 196.8442 v 73.51145 H 1332.5669 Z M 53.079661,1274.1748 H 254.61035 v 78.9562 H 53.079661 Z m 1279.487239,0 h 196.8442 v 78.9562 H 1332.5669 Z M 51.555297,1655.3385 H 1533.3036 v 84.401 H 51.555297 Z" />
</svg>
