<?xml version="1.0" encoding="UTF-8" standalone="no"?>
<svg
   width="2003.4739"
   height="1800"
   version="1.1"
   id="svg1"
   xmlns="http://www.w3.org/2000/svg"
   xmlns:svg="http://www.w3.org/2000/svg">
  <defs
     id="defs1" />
  <path
     id="path1"
     style="fill:#000000;stroke:none;stroke-width:100.125"
     d="M 1863.4277,-0.25585938 1752.7715,0.13867188 1753.7266,144 H 1659.127 V 0 h -103.3047 v 144 h -97.043 V 0 H 1355.4746 V 144 H 1255.3008 V 0 H 1151.998 v 144 h -97.0429 V 0 H 951.65039 V 144 H 857.73828 V 0 H 751.30273 V 144 H 654.25977 V 0 H 550.95508 V 144 H 453.91211 V 0 H 350.60742 V 144 H 243.40039 L 243.55469,1.2480469 146.03906,2.015625 144,144 0.86914062,144.66016 2.015625,239.34375 144,240.69531 V 347.47656 H 0 v 103.30469 h 144 v 97.04297 H 0 v 103.30469 h 144 v 97.04297 H 0 V 851.47656 H 144 V 951.65039 H 0 v 103.30471 h 144 v 97.0429 H 0 v 103.3028 h 144 v 97.0449 H 0 v 103.3027 h 144 v 97.043 H 0 v 103.3047 h 144 v 144 H 247.30469 V 247.30469 H 1756.1699 V 1696.6914 h -507.3418 l 0.9297,-851.35546 h -103.3047 v 100.17383 h -144 v 103.30473 h 144 l 0.7051,3.0097 h -1.6328 v 100.1738 h -144 v 103.3028 h 144 v 97.0449 h -144 v 103.3027 h 144 v 97.043 h -144 v 103.3047 h 144 v 144 h 717.0781 v -144 h 140.8711 v -103.3047 h -140.8711 v -97.043 h 140.8711 v -103.3027 h -140.8711 v -97.0449 h 140.8711 V 1151.998 h -140.8711 v -97.0429 h 140.8711 V 951.65039 H 1862.6035 V 851.47656 h 140.8711 V 748.17188 h -140.8711 v -97.04297 h 140.8711 V 547.82422 h -140.8711 v -97.04297 h 140.8711 V 347.47656 H 1862.6035 V 244.59961 l 139.836,-2.01758 0.3652,-95.29687 L 1862.6035,144 Z M 331.82617,494.60742 488.34766,961.04102 h 281.73828 l 147.1289,-466.4336 z m 118.95508,84.52149 H 804.51953 L 707.47656,876.51953 H 547.82422 Z" />
</svg>
