<?xml version="1.0" encoding="UTF-8" standalone="no"?>
<svg
   width="1427.5385"
   height="1796.406"
   version="1.1"
   id="svg1"
   xmlns="http://www.w3.org/2000/svg"
   xmlns:svg="http://www.w3.org/2000/svg">
  <defs
     id="defs1" />
  <path
     id="path1"
     style="fill:#000000;stroke:none;stroke-width:92.4025"
     d="M 229.33654,0 V 204.09689 H 0 v 166.75043 h 229.33654 v 99.20635 H 1.373056 V 626.25 H 229.33654 V 814.10861 H 1.373056 V 966.08367 H 229.33654 V 1145.4998 H 1.373056 v 154.0848 H 229.33654 v 141.421 H 0 v 158.3077 h 236.29199 v 197.0928 h 160.4194 v -197.0928 h 92.87353 v 195.6299 H 645.78125 V 1599.3133 H 797.7563 v 195.6299 h 156.19637 v -195.6299 h 92.87343 v 197.0928 h 160.4195 v -197.0928 h 220.2928 v -158.3077 h -227.2483 v -141.421 h 225.8518 V 1145.4998 H 1200.2901 V 966.08367 h 225.8518 V 814.10861 H 1200.2901 V 626.25 h 225.8518 V 470.05367 h -225.8518 v -99.20635 h 227.2483 V 204.09689 H 1200.2901 V 0 H 1039.8707 V 204.09689 H 946.99715 V 1.4628968 H 790.80084 V 204.09689 H 638.82579 V 1.4628968 H 482.62948 V 204.09689 H 389.75414 V 0 Z m 46.43766,46.437674 h 67.54407 V 204.09689 H 275.7742 Z m 810.5342,0 h 67.544 V 204.09689 h -67.544 z m -557.24306,3.572633 h 63.32278 V 204.09689 h -63.32278 z m 308.17137,0 h 63.32458 V 204.09689 H 837.23671 Z M 46.437679,250.53276 H 1381.1008 V 322.2999 H 46.437679 Z M 275.7742,370.84732 h 67.54407 V 1441.0056 H 275.7742 Z m 113.97994,0 H 1039.8707 V 1441.0056 H 389.75414 Z m 696.55426,0 h 67.544 V 1441.0056 h -67.544 z m -253.29297,31.66229 c -125.23872,21.10761 -240.62646,32.3648 -346.16467,33.77203 v 158.30787 c 161.82525,1.40716 256.10549,37.29008 282.84188,107.64891 v 711.32788 h 63.32279 z m -63.32279,59.1015 v 160.4176 C 745.77065,582.62777 664.85892,562.92721 526.9556,562.92721 v -97.09482 c 73.17317,-1.40717 154.08488,-2.81411 242.73704,-4.22128 z M 47.810727,518.60108 H 229.33654 v 61.21304 H 47.810727 Z m 1152.479373,0 h 177.3045 v 61.21304 H 1200.2901 Z M 47.810727,860.54447 H 229.33654 v 56.99176 H 47.810727 Z m 1152.479373,0 h 177.3045 v 56.99176 H 1200.2901 Z M 47.810727,1191.9357 H 229.33654 v 61.2129 H 47.810727 Z m 1152.479373,0 h 177.3045 v 61.2129 H 1200.2901 Z M 46.437679,1487.4433 H 1381.1008 v 65.4342 H 46.437679 Z m 236.291971,111.87 h 67.54407 v 150.6551 h -67.54407 z m 253.29114,0 h 63.32279 v 147.0825 h -63.32279 z m 308.17318,0 h 63.32284 v 147.0825 h -63.32284 z m 249.06983,0 h 67.5441 v 150.6551 h -67.5441 z" />
</svg>
