<?xml version="1.0" encoding="UTF-8" standalone="no"?>
<svg
   width="1791.3552"
   height="1798.981"
   version="1.1"
   id="svg191"
   sodipodi:docname="US9O13VARA.svg"
   xml:space="preserve"
   inkscape:version="1.2.2 (732a01da63, 2022-12-09)"
   xmlns:inkscape="http://www.inkscape.org/namespaces/inkscape"
   xmlns:sodipodi="http://sodipodi.sourceforge.net/DTD/sodipodi-0.dtd"
   xmlns="http://www.w3.org/2000/svg"
   xmlns:svg="http://www.w3.org/2000/svg"><defs
     id="defs195" /><sodipodi:namedview
     id="namedview193"
     pagecolor="#ffffff"
     bordercolor="#666666"
     borderopacity="1.0"
     inkscape:showpageshadow="2"
     inkscape:pageopacity="0.0"
     inkscape:pagecheckerboard="0"
     inkscape:deskcolor="#d1d1d1"
     showgrid="false"
     inkscape:zoom="0.2799099"
     inkscape:cx="919.93889"
     inkscape:cy="900.28971"
     inkscape:window-width="1920"
     inkscape:window-height="1137"
     inkscape:window-x="-8"
     inkscape:window-y="-8"
     inkscape:window-maximized="1"
     inkscape:current-layer="svg191" /><path
     id="path439"
     style="fill:#000000;stroke:none;stroke-width:101.779"
     d="M 139.41034,0.04909425 C 77.565996,1.7059971 47.499483,15.903256 48.951521,42.413806 c 0,20.198449 18.195349,33.670324 54.591099,40.403381 C 77.987443,98.302708 65.1935,125.55423 65.1935,164.60462 c 1.222102,29.75064 13.174813,54.6176 36.0933,74.72664 H 0 V 1797.0189 H 105.79845 V 329.16014 H 1685.5569 V 1705.0326 H 964.14208 V 605.11915 H 863.30643 v 172.20471 c -27.14034,27.23442 -59.58252,30.65485 -97.22629,10.19892 -42.59089,-30.29761 -76.63473,-45.50284 -102.18915,-45.50284 -54.20647,0 -81.20991,29.90673 -81.20991,89.82888 0,61.26865 16.20199,91.06335 48.72596,89.04434 23.23132,0 38.72602,-15.51259 46.47012,-46.48351 17.81071,21.5453 49.15417,32.36194 94.06813,32.36194 36.93873,-1.14707 67.34542,-13.2506 91.36114,-35.89233 v 153.76824 c -27.12005,26.87 -59.6284,31.0361 -97.22629,12.3563 -42.59089,-30.2977 -76.63473,-45.50278 -102.18915,-45.50278 -54.20647,0 -81.20991,29.90688 -81.20991,89.82888 0,61.2688 16.20199,90.8677 48.72596,88.8482 23.23132,0 38.72605,-15.3164 46.47012,-46.2873 17.81071,21.5453 49.15417,32.1658 94.06813,32.1658 36.92815,-1.1468 67.34861,-13.0672 91.36114,-35.6963 l -0.22521,155.9257 c -27.09985,27.0509 -59.44964,30.6046 -97.00108,10.1989 -42.59089,-30.2975 -76.63473,-45.5028 -102.18915,-45.5028 -54.20647,0 -81.20991,29.9069 -81.20991,89.8288 0,61.2688 16.20199,91.9864 48.72596,91.9864 23.23132,-2.0194 38.72605,-18.6505 46.47012,-49.6216 17.81071,21.5452 49.15417,32.362 94.06813,32.362 36.83872,0 67.14997,-11.786 91.13556,-35.1079 v 157.6909 c -27.09243,25.6627 -59.46517,29.0381 -97.00071,9.8071 -42.59089,-29.6245 -76.63473,-44.5222 -102.18915,-44.5222 -54.20647,0 -81.20991,29.5993 -81.20991,88.8481 0,61.2687 16.20199,91.3717 48.72596,90.0252 23.23132,0 38.72605,-15.82 46.47012,-47.4642 17.81071,22.2188 49.15417,33.3426 94.06813,33.3426 36.83872,-1.1439 67.14997,-13.4725 91.13556,-36.4808 v 177.3041 l 928.27435,-1.9612 V 239.33126 h -137.6055 c -21.0136,-21.55429 -21.36,-46.66007 -0.9024,-75.11892 34.8469,-37.03057 52.3353,-66.629945 52.3353,-88.848203 0,-47.129756 -34.3973,-70.6078526 -103.3171,-70.6078526 -70.4684,0 -104.5118,14.0867936 -102.1892,42.3647116 0,20.198449 17.6164,33.670324 53.2376,40.403382 -24.7804,15.485522 -36.9955,42.737042 -36.9955,81.787432 1.1318,27.47405 11.4586,50.76784 30.6793,70.01945 h -177.0828 c -21.0022,-21.55429 -22.3134,-46.66007 -3.6092,-75.11892 34.8469,-37.03057 52.3352,-66.629945 52.3352,-88.848203 0,-47.129756 -34.3976,-70.6078526 -103.3172,-70.6078526 -70.4683,0 -104.5117,14.0867936 -102.189,42.3647116 0,20.198449 17.8417,33.670324 53.4632,40.403382 -24.7804,15.485522 -37.2212,42.737042 -37.2212,81.787432 1.1318,27.47405 11.4586,50.76784 30.6793,70.01945 h -179.5643 c -21.0204,-21.55593 -21.362,-46.6569 -0.9022,-75.11892 34.8469,-37.03057 52.1098,-66.629945 52.1098,-88.848203 0,-47.129756 -34.3976,-70.6078526 -103.3172,-70.6078526 -70.46841,0 -105.79847,14.0867936 -105.79847,42.3647116 2.32325,20.198449 21.45102,33.670324 57.07248,40.403382 -24.78032,15.485522 -37.22117,42.737042 -37.22117,81.787432 0,27.47405 10.04052,50.76784 29.77695,70.01945 H 790.89427 c -19.98325,-21.55593 -20.41853,-46.6569 -1.12792,-75.11892 34.07274,-37.03057 51.20737,-66.629945 51.20737,-88.848203 0,-47.129756 -34.0438,-70.6078526 -102.18915,-70.6078526 -70.46836,0 -104.86587,14.0867936 -103.31704,42.3647116 0,20.198449 18.19534,33.670324 54.5911,40.403382 -25.55518,15.485522 -38.34911,42.737042 -38.34911,81.787432 1.12842,27.47405 11.49892,50.76784 31.13045,70.01945 H 498.31302 c -25.81399,-22.59052 -27.59587,-49.28228 -5.63957,-79.82611 34.8469,-37.03057 52.10967,-66.629948 52.10967,-88.848204 0,-47.129757 -34.39751,-70.60785175 -103.31703,-70.60785175 -70.46848,0 -105.79847,14.08679175 -105.79847,42.36471175 2.32324,20.198449 21.45107,33.670324 57.07252,40.403381 -24.7803,15.485521 -37.22122,42.737043 -37.22122,81.787433 0,29.75064 11.59695,54.6176 34.7398,74.72664 H 209.1155 c -24.5239,-22.58976 -26.56567,-49.28388 -5.86516,-79.82611 34.07274,-37.03057 51.20737,-66.629948 51.20737,-88.848204 0,-47.129757 -34.0438,-70.60785175 -102.18915,-70.60785175 -4.4043,0 -8.73526,-0.11046206 -12.85822,0 z M 152.26856,23.192779 c 43.36516,0 64.96794,15.819932 64.96794,47.464167 0,12.792398 -18.19546,41.162224 -54.59111,84.925554 -17.14321,29.80962 -17.06632,57.68165 0.22523,83.74876 h -2.02989 c -40.48432,-28.38161 -60.907428,-53.25907 -60.907428,-74.72664 0,-39.05039 23.595958,-69.767971 70.833088,-91.986344 0,-10.771989 -10.09445,-16.0829 -30.22815,-16.0829 C 110.33738,55.188763 92.495409,50.493293 87.075065,42.413806 94.044462,29.621959 115.87282,23.192779 152.26856,23.192779 Z m 289.19753,0 c 43.36502,0 64.96792,15.819932 64.96792,47.464167 0,12.792398 -18.19548,41.162224 -54.59111,84.925554 -18.63352,29.80962 -19.26625,57.68165 -2.03024,83.74876 h -1.80468 c -38.3318,-28.38916 -57.74926,-53.25448 -57.74926,-74.72664 0,-39.05039 22.53536,-69.767971 67.44934,-91.986344 0,-10.771989 -8.80802,-16.0829 -26.61881,-16.0829 -30.97517,-1.346613 -49.17076,-6.042083 -54.5911,-14.12157 6.96929,-12.791847 28.57219,-19.221027 64.96794,-19.221027 z m 297.31848,4.70719 c 43.36516,0 64.96794,15.819932 64.96794,47.464168 0,12.792396 -18.19536,41.162233 -54.59111,84.925553 -16.10411,28.00279 -16.76456,54.34136 -2.48141,79.04157 h -6.09075 c -35.93001,-26.36032 -54.13994,-49.7954 -54.13994,-70.01945 0,-39.05039 23.59598,-69.571838 70.8331,-91.790212 0,-10.771988 -10.09435,-16.279032 -30.22815,-16.279032 -30.20075,-1.346612 -47.81726,-6.042082 -53.2376,-14.12157 6.96942,-12.791845 28.57218,-19.221027 64.96792,-19.221027 z m 289.19753,0 c 43.3651,0 64.9679,15.819932 64.9679,47.464168 0,12.792396 -18.1953,41.162233 -54.5911,84.925553 -17.4889,27.9787 -19.0723,54.35977 -4.9629,79.04157 h -5.4135 c -34.01695,-26.3658 -51.20778,-49.79199 -51.20778,-70.01945 0,-39.05039 22.53543,-69.571838 67.44938,-91.790212 0,-10.771988 -8.8081,-16.279032 -26.6188,-16.279032 -30.9752,-1.346612 -49.1708,-6.042082 -54.59113,-14.12157 6.96939,-12.791845 28.57221,-19.221027 64.96793,-19.221027 z m 286.9416,0 c 43.3653,0 64.968,15.819932 64.968,47.464168 0,12.792396 -18.1952,41.162233 -54.5911,84.925553 -16.0983,27.99552 -16.4832,54.34691 -1.5789,79.04157 h -5.8649 c -35.93,-26.36032 -54.14,-49.7954 -54.14,-70.01945 0,-39.05039 23.2425,-69.571838 69.7052,-91.790212 0,-10.771988 -9.5159,-16.279032 -28.8746,-16.279032 -30.9752,-1.346613 -49.1697,-6.042084 -54.5912,-14.12157 9.293,-12.791845 30.8954,-19.221027 64.9678,-19.221027 z m 286.9418,0 c 43.3653,0 64.9679,15.819932 64.9679,47.464168 0,12.792396 -18.1952,41.162233 -54.591,84.925553 -16.0981,27.99304 -17.514,54.3488 -4.5114,79.04157 h -5.865 c -34.0172,-26.3658 -51.2078,-49.79199 -51.2078,-70.01945 0,-39.05039 23.2423,-69.571838 69.7052,-91.790212 0,-10.771988 -9.7412,-16.279032 -29.1003,-16.279032 -30.9751,-1.346613 -49.1707,-6.042084 -54.5911,-14.12157 6.9691,-12.791845 28.7978,-19.221027 65.1935,-19.221027 z M 663.89099,775.36253 c 14.71324,0 47.34292,15.81983 97.67749,47.46418 35.62144,15.4854 68.95828,15.4854 99.93329,0 -34.07252,35.68396 -64.00206,53.54427 -89.55648,53.54427 -44.91396,0 -80.01833,-20.20805 -105.57288,-60.60506 -12.38944,0 -18.72339,8.46902 -18.72339,25.30115 -1.54885,26.93129 -6.94933,42.75125 -16.24198,47.46415 -14.71259,-6.05954 -22.10715,-25.03817 -22.10715,-56.6824 0,-37.70389 18.19535,-56.48629 54.5911,-56.48629 z m 0,249.48107 c 14.71324,0 47.34292,15.8199 97.67749,47.4641 35.62144,15.4844 68.95828,14.5632 99.93329,-2.9423 -34.07252,37.7037 -64.00206,56.4864 -89.55648,56.4864 -44.91396,0 -80.01833,-20.2084 -105.57288,-60.6052 -12.38944,0 -18.72339,8.4694 -18.72339,25.3012 -1.54885,26.9313 -6.94933,42.7504 -16.24198,47.4641 -14.71259,-8.0798 -22.10715,-27.058 -22.10715,-56.6824 0,-37.7037 18.19535,-56.4863 54.5911,-56.4863 z m 0,249.4811 c 14.71324,0 47.34292,15.8201 97.67749,47.4641 35.62144,16.8322 68.95828,16.8322 99.93329,0 -34.07252,35.6839 -64.00206,53.5443 -89.55648,53.5443 -44.91396,0 -80.01833,-19.5932 -105.57288,-58.6437 -12.38944,0 -18.72339,7.8538 -18.72339,23.3398 -1.54885,26.9314 -6.94933,42.7515 -16.24198,47.4642 -14.71259,-6.0594 -22.10715,-25.0381 -22.10715,-56.6825 0,-37.7036 18.19535,-56.4862 54.5911,-56.4862 z m 0,251.4424 c 14.71324,0 47.34292,15.82 97.67749,47.4642 35.62144,15.4858 68.95828,14.8707 99.93329,-1.9612 -34.07252,37.7038 -64.00206,56.4863 -89.55648,56.4863 -44.91396,0 -80.01833,-20.5155 -105.57288,-61.5858 -12.38944,0 -18.72339,8.7768 -18.72339,26.2819 -1.54885,26.258 -6.94933,41.7708 -16.24198,46.4835 -14.71259,-6.0594 -22.10715,-25.0382 -22.10715,-56.6825 0,-37.7037 18.19535,-56.4862 54.5911,-56.4862 z" /></svg>
