<?xml version="1.0" encoding="UTF-8" standalone="no"?>
<svg
   width="1824.5875"
   height="1800"
   version="1.1"
   id="svg1"
   xml:space="preserve"
   xmlns="http://www.w3.org/2000/svg"
   xmlns:svg="http://www.w3.org/2000/svg"><defs
     id="defs1" /><path
     id="path1"
     style="fill:#000000;stroke:none;stroke-width:98.4305"
     d="M 912.40207,0 C 716.28619,0 534.64425,21.333477 393.22979,63.999893 251.81542,106.66638 140.47947,154.94844 59.224805,208.84287 H 0.6269 v 87.57728 h 70.31633 c 40.62735,29.94138 60.94275,87.58082 60.94275,172.91368 H 21.720837 c -14.063331,0 -21.093937,15.71828 -21.093937,47.1567 0,31.43844 7.030606,47.15862 21.093937,47.15862 H 97.51808 V 605.4443 C 17.506128,620.89674 0,643.11024 0,672.08358 c 0,11.58931 3.871357,21.24736 11.614466,28.9736 33.553382,0 35.142619,24.86804 49.76844,74.60558 14.625866,49.73761 33.553214,74.60751 56.782484,74.60751 3.56614,44.03497 -71.25739,338.14853 -45.847596,679.16823 5.821516,78.1292 12.258064,130.2249 32.996936,160.5234 H 1.9264727 V 1799.998 H 1824.1643 v -110.0361 l -112.0025,-1.6964 c 22.8955,-30.8091 33.0137,-85.5666 39.0058,-169.6406 24.1541,-338.901 -50.3244,-621.04194 -46.4926,-668.35463 24.0897,0 43.4465,-24.8699 58.0724,-74.60751 14.6257,-49.73754 15.812,-74.60558 50.2256,-74.60558 7.7431,-7.72624 11.6145,-17.38429 11.6145,-28.9736 0,-28.97334 -16.2402,-51.18684 -95.3918,-66.63928 v -41.79515 h 73.8874 c 14.0635,0 21.0941,-15.72018 21.0941,-47.15862 0,-31.43842 -7.0306,-47.1567 -21.0941,-47.1567 H 1692.92 c 0,-85.33286 20.3158,-142.9723 60.9428,-172.91368 h 70.3144 v -87.57728 h -58.596 C 1684.3265,154.94845 1572.9907,106.66638 1431.5761,63.999893 1290.1616,21.333477 1108.5179,0 912.40207,0 Z m 0,56.13948 c 193.12153,0 363.69453,17.21747 486.35793,51.65001 122.6633,34.43258 213.6878,68.11792 273.066,101.05338 H 152.9799 C 212.35833,175.90741 303.38073,142.22207 426.04407,107.78949 548.70739,73.35695 719.28034,56.13948 912.40207,56.13948 Z M 37.241446,244.56992 H 1787.5647 V 260.6931 H 37.241446 Z M 141.26149,296.42015 H 1683.5445 c -32.8145,29.94138 -49.2224,87.58082 -49.2224,172.91368 H 190.48196 c 0,-85.33286 -16.40607,-142.9723 -49.22047,-172.91368 z M 45.854595,502.82385 H 1778.9514 c 6.3485,0 9.5238,4.18142 9.5238,12.54431 0,8.3629 -3.1753,12.54625 -9.5238,12.54625 H 45.854595 c -6.348323,0 -9.523748,-4.18335 -9.523748,-12.54625 0,-8.36289 3.175425,-12.54431 9.523748,-12.54431 z m 188.457395,60.8253 H 588.8309 v 38.7611 c -80.01189,15.45241 -120.01808,37.66598 -120.01808,66.63928 0,11.5893 3.87138,21.24737 11.61446,28.9736 33.5534,0 57.64264,24.8681 72.26845,74.60558 14.62588,49.73757 33.55317,74.6075 56.78247,74.6075 0.70393,8.692 -16.25794,114.95927 -29.94389,197.89449 l -34.27494,-0.3157 v 77.2411 l -297.51038,0.2868 c -16.20508,-108.059 -38.71982,-262.63877 -37.95579,-272.07263 24.0896,0 43.44651,-24.8699 58.07233,-74.60751 14.62584,-49.73754 39.1465,-74.60558 73.56023,-74.60558 7.74311,-7.72624 11.61447,-17.38429 11.61447,-28.9736 0,-28.97334 -39.57663,-51.18684 -118.72824,-66.63928 z m 491.31282,0 h 408.98979 v 33.46693 c -80.0119,15.4524 -120.018,37.66598 -120.018,66.63928 0,11.5893 3.8712,21.24736 11.6144,28.9736 33.5534,0 57.6426,24.86809 72.2685,74.60557 14.6258,49.73756 33.5531,74.6075 56.7825,74.6075 0.744,9.1873 -14.2457,109.70138 -27.4528,203.86637 l -104.2892,0.4254 v 56.1396 c 37.4269,19.4618 56.1395,38.1768 56.1395,56.1414 -11.9765,11.9765 -11.9765,25.45 0,40.4205 v 491.0266 H 769.81344 v -491.0266 c 11.97658,-14.9705 11.97658,-28.444 0,-40.4205 0,-17.9646 18.7128,-36.6796 56.13949,-56.1414 v -56.1396 l -99.69281,-0.3619 c -12.55361,-83.75461 -25.86042,-189.91466 -25.1541,-198.63569 24.0896,0 43.44654,-24.86993 58.07234,-74.6075 14.62579,-49.73748 39.14652,-74.60557 73.56022,-74.60558 7.74309,-7.72623 11.61446,-17.3843 11.61446,-28.9736 0,-28.9733 -39.57672,-51.18494 -118.72823,-66.63735 z m 439.96179,0 h 74.8501 v 33.46693 h -74.8501 z m 105.8218,0 H 1592.4 v 41.79515 c -80.0122,15.45244 -120.0183,37.66594 -120.0183,66.63928 0,11.58931 3.8714,21.24736 11.6145,28.9736 33.5535,0 57.6427,24.86804 72.2685,74.60558 14.626,49.73761 33.5552,74.60751 56.7845,74.60751 0.7742,9.56033 -17.8743,164.95443 -34.516,275.80173 l -274.3195,0.2734 v -81.5304 l -30.7357,0.2561 c -12.9944,-93.71425 -27.3305,-193.96415 -26.5883,-203.12907 24.0896,0 43.4466,-24.86994 58.0724,-74.6075 14.6258,-49.73748 39.1465,-74.60557 73.5602,-74.60557 7.7432,-7.72624 11.6144,-17.3843 11.6144,-28.9736 0,-28.9733 -39.5767,-51.18688 -118.7283,-66.63928 z m -651.60558,1.09543 h 74.85008 v 37.66567 h -74.85008 z m -491.31281,3.03405 h 74.85007 v 37.66567 h -74.85007 z m 1494.88179,0 h 74.8501 v 37.66567 h -74.8501 z m -421.65,71.35012 c 55.9221,0 100.2294,7.72454 132.9223,23.17696 -36.1343,21.2471 -57.8575,49.01449 -65.1703,83.29959 -7.313,34.28505 -20.4343,54.08311 -39.3618,59.39492 -18.9275,5.31174 -37.8551,5.31174 -56.7826,0 -18.9275,-5.31182 -32.0469,-25.10988 -39.3597,-59.39492 -7.3129,-34.2851 -28.6064,-62.05249 -63.8805,-83.29959 32.693,-15.45241 76.5706,-23.17696 131.6326,-23.17696 z m -545.78187,5.29419 c 55.92219,0 100.22748,7.72452 132.92048,23.17696 -36.1344,21.24708 -57.85753,49.01448 -65.17039,83.29958 -7.31295,34.28505 -20.43424,54.0831 -39.36174,59.39492 -18.9275,5.31173 -37.85508,5.31173 -56.78248,0 -18.9276,-5.31183 -32.04697,-25.10988 -39.35982,-59.39492 -7.31294,-34.2851 -28.60643,-62.0525 -63.88053,-83.29958 32.69309,-15.45243 76.57248,-23.17696 131.63448,-23.17696 z m -491.31474,3.03404 c 55.92229,0 100.22935,7.72643 132.92241,23.17889 -36.13445,21.2471 -57.85751,49.01254 -65.1704,83.29765 -7.31293,34.28509 -20.4342,54.0831 -39.36174,59.39492 -18.92755,5.31173 -37.85493,5.31173 -56.78248,0 -18.9276,-5.31182 -32.04694,-25.10983 -39.35982,-59.39492 C 89.56022,719.64841 90.76671,691.88297 55.492626,670.63587 88.18571,655.18341 109.5632,647.45698 164.62519,647.45698 Z m 1494.88171,0 c 55.9224,0 76.8949,7.72643 109.588,23.17889 -36.1345,21.2471 -34.5231,49.01254 -41.8359,83.29765 -7.313,34.28509 -20.4322,54.0831 -39.3597,59.39492 -18.9275,5.31173 -37.857,5.31173 -56.7845,0 -18.9276,-5.31182 -32.047,-25.10983 -39.3597,-59.39492 -7.3131,-34.28511 -28.6066,-62.05055 -63.8806,-83.29765 32.693,-15.45246 76.5705,-23.17889 131.6324,-23.17889 z M 655.93993,861.13392 c 22.5007,38.97239 28.71837,155.30548 31.4763,184.54158 l -66.45253,-0.3368 c 3.96183,-28.7166 12.13668,-144.6455 34.97623,-184.20478 z m 545.78187,1.12621 c 23.1128,40.03256 28.6857,152.18707 31.6496,183.01497 l -63.511,0.3196 c 2.9043,-30.9038 8.5855,-143.01951 31.8614,-183.33457 z M 164.62519,873.96894 c 56.27308,255.50536 53.39998,481.62996 53.39998,604.76666 0,123.1367 -19.81618,209.0354 -53.46737,209.0354 -34.33173,0 -54.63401,-85.8987 -54.63401,-209.0354 0,-121.5869 -0.89954,-353.5985 54.7014,-604.76666 z m 1494.88171,0 c 56.2731,255.50536 53.4001,470.81636 53.4001,593.95306 0,123.1367 -19.8161,215.5046 -51.7711,215.5046 -32.6353,0 -56.3285,-92.3679 -56.3285,-215.5046 0,-121.5869 -0.9014,-342.7849 54.6995,-593.95306 z M 581.18856,1102.3734 h 186.37822 c -23.95307,19.4618 -35.92919,37.4272 -35.92919,53.8947 H 581.18856 Z m 500.71764,0 h 186.3782 v 53.8947 h -150.449 c 0,-16.4675 -11.976,-34.4329 -35.9292,-53.8947 z m -832.24879,76.1302 h 292.23486 v 32.2676 H 249.98276 c 0,-16.4674 -0.32535,-32.2676 -0.32535,-32.2676 z m 1057.57489,4.016 h 272.3594 c -1.4192,10.6641 -2.8745,21.2075 -4.1177,32.2674 h -267.9183 c 0,-16.4673 -0.3234,-32.2674 -0.3234,-32.2674 z m -726.04375,16.4157 h 150.44904 v 491.0266 H 581.18856 Z m 536.64685,0 h 150.449 v 491.0266 h -150.449 z m -866.73606,54.5032 h 290.79292 v 57.5563 H 255.52335 c -1.25204,-19.5373 -2.72108,-38.7162 -4.42401,-57.5563 z m 1056.45636,4.0158 h 263.6732 c -1.686,18.9066 -3.1332,38.1046 -4.3392,57.5564 h -259.334 z m -1049.90504,91.7164 h 284.2416 v 340.7912 H 225.4357 c 20.67334,-30.2985 25.28164,-82.3943 30.85003,-160.5234 5.56222,-78.0426 5.90814,-86.6346 1.36493,-180.2678 z m 1050.41714,4.0159 h 256.8582 c -4.005,87.97 -3.3669,89.7389 2.2735,165.4383 6.2647,84.0743 11.4267,142.2244 34.3823,173.0334 l -294.005,-1.6964 z M 37.855665,1725.8929 H 1788.2353 v 38.174 H 37.855665 Z" /></svg>
