<?xml version="1.0" encoding="UTF-8" standalone="no"?>
<svg
   width="1271.432"
   height="1800"
   version="1.1"
   id="svg403"
   sodipodi:docname="US9O44VARA.svg"
   inkscape:version="1.2.2 (732a01da63, 2022-12-09)"
   xmlns:inkscape="http://www.inkscape.org/namespaces/inkscape"
   xmlns:sodipodi="http://sodipodi.sourceforge.net/DTD/sodipodi-0.dtd"
   xmlns="http://www.w3.org/2000/svg"
   xmlns:svg="http://www.w3.org/2000/svg">
  <defs
     id="defs407" />
  <sodipodi:namedview
     id="namedview405"
     pagecolor="#ffffff"
     bordercolor="#000000"
     borderopacity="0.25"
     inkscape:showpageshadow="2"
     inkscape:pageopacity="0.0"
     inkscape:pagecheckerboard="0"
     inkscape:deskcolor="#d1d1d1"
     showgrid="false"
     inkscape:zoom="0.24258858"
     inkscape:cx="830.62443"
     inkscape:cy="915.12965"
     inkscape:window-width="1920"
     inkscape:window-height="1137"
     inkscape:window-x="-8"
     inkscape:window-y="-8"
     inkscape:window-maximized="1"
     inkscape:current-layer="svg403"
     showguides="true" />
  <path
     id="path401"
     style="fill:#000000;stroke:none;stroke-width:83.0033"
     d="M 607.9416,7.1056753 C 536.81353,8.0041253 477.03544,46.231741 428.66831,121.16771 c -48.38193,74.93597 -63.42459,173.77773 8.53571,260.29654 34.57215,41.56657 129.52376,148.63386 176.16755,174.77738 C 410.12845,534.39656 227.61616,502.8131 114.50297,321.83467 90.394358,283.26146 73.266755,133.85544 23.988275,148.00164 -16.872922,159.73153 4.5828723,301.5288 15.054741,324.70423 123.59993,564.92709 341.77667,625.2271 567.97803,639.36468 l -0.30308,1161.40892 114.24495,0 0.98879,-1161.32889 c 0,0 51.46977,-1.3083 75.97857,-3.21324 89.33005,37.24595 176.23352,77.0146 237.76379,147.90823 100.20795,115.45702 110.96255,334.7084 180.70455,421.538 l 94.0763,-0.057 c -71.987,-96.702 -82.1055,-342.47296 -193.7835,-469.8802 C 1027.951,679.04382 963.88846,643.45234 894.92181,613.65164 1052.6187,571.25663 1163.9592,475.9363 1243.3531,324.47353 c 11.807,-22.52459 36.64,-167.32895 -4.221,-179.05884 -40.5099,1.80066 -70.9711,137.35439 -95.2272,176.18928 -96.4311,161.05397 -241.1002,218.53832 -401.07916,231.48561 -80.73228,-32.79894 -181.12887,-147.457 -244.4947,-214.32503 -63.12083,-66.60946 -43.4724,-145.53716 5.83799,-197.70767 49.32551,-52.172007 100.4195,-71.25963 153.54846,-57.03102 53.11387,14.2256 84.3952,45.5073 93.8739,93.88331 9.43394,48.37602 -4.94196,80.68031 -43.86023,96.80466 -38.90327,16.12576 -67.8935,-6.25957 -86.86596,-66.97443 h -68.43391 c 0,41.73641 13.77813,76.09831 41.22607,102.65677 27.50783,26.55999 58.56403,39.776 92.72042,39.776 37.94489,0 69.94595,-12.47402 96.5104,-37.14419 26.56445,-24.66268 40.07026,-64.31001 40.07026,-119.32564 0,-55.01713 -18.05941,-100.024357 -54.10264,-135.12116 C 732.79758,23.484364 679.12921,6.1577972 607.98633,7.1056753 Z"
     sodipodi:nodetypes="ccscssscccccsccscscccscccccccscsccc" />
</svg>
