<?xml version="1.0" encoding="UTF-8" standalone="no"?>
<svg
   width="1488.052"
   height="1800.1244"
   version="1.1"
   id="svg2486"
   xmlns="http://www.w3.org/2000/svg"
   xmlns:svg="http://www.w3.org/2000/svg">
  <defs
     id="defs2490" />
  <path
     id="path2484"
     style="fill:#000000;stroke:none;stroke-width:77.258"
     d="m 1301.7292,0 c 57.8868,4.8239252 93.4628,27.737228 106.7285,68.740358 -13.2657,33.767312 -36.7829,50.048192 -70.5503,48.842222 24.1197,38.59123 36.1801,78.99144 36.1801,121.20059 0,31.35533 -13.9492,137.88608 -46.5106,203.00873 h 162.8068 v 531.83649 h -159.5122 l -2.3316,826.49601 H 168.07392 l 2.3316,-826.49601 H 2.3316062 V 439.98198 c 71.2347588,0 111.5819238,0.20129 161.0860338,0.26983 -30.69428,-62.30813 -48.6866,-167.87406 -48.6866,-199.488 0,-41.00315 12.06047,-80.80126 36.1801,-119.39252 -32.56135,1.206 -55.476203,-15.67697 -68.742208,-50.650296 C 95.434937,29.717874 130.40876,7.4066362 187.08938,3.788723 c 74.7707,0 112.15653,41.606284 112.15653,124.818587 -8.44181,48.239 -23.21475,86.52912 -44.31929,114.86954 -21.10445,28.34044 -30.45113,57.58602 -28.03914,87.73537 3.27506,24.01838 11.48517,99.03599 19.70217,109.21764 40.56333,0.10414 101.20075,0.14451 131.32032,0.27902 -31.46306,-62.30516 -49.72004,-167.93763 -49.72004,-199.94507 0,-41.00315 12.05878,-80.80126 36.17832,-119.39252 -32.56155,1.206 -55.47471,-15.67697 -68.74034,-50.650296 13.26563,-41.00312 48.23936,-63.3143578 104.92045,-66.932271 74.77052,0 112.15644,41.606284 112.15644,124.818587 -7.23591,48.239 -21.40651,86.52912 -42.51114,114.86954 -21.10464,28.34044 -31.05498,57.58602 -29.84907,87.73537 3.32195,24.3606 11.64154,99.54609 20.04718,109.67288 31.57462,0.15983 99.18112,0.17925 134.82827,0.3194 -31.63958,-62.56473 -49.95501,-168.34362 -49.95501,-200.44069 0,-41.00315 12.06065,-80.80126 36.1801,-119.39252 -33.76735,1.206 -57.28454,-15.67697 -70.55027,-50.650296 13.26573,-41.00312 48.84188,-63.3143578 106.72857,-66.932271 73.56436,0 110.34839,41.606284 110.34839,124.818587 -7.23597,48.239 -21.40677,86.52912 -42.51116,114.86954 -21.10457,28.34044 -31.0533,57.58602 -29.84721,87.73537 4.49928,24.74603 12.96986,100.12675 20.61624,110.18502 54.17588,0.13489 40.50863,0.39466 132.17289,0.39466 8.44196,-10.85386 12.74265,-87.837 17.56653,-114.36841 1.20592,-30.14934 -8.74269,-59.39493 -29.8472,-87.73536 C 775.01747,211.3477 760.84654,173.05759 753.61075,124.81859 753.61075,41.606295 790.39305,0 863.95731,0 c 57.8869,4.8239252 93.46467,27.737228 106.7304,68.740358 -13.26573,33.767312 -36.78297,50.048192 -70.55031,48.842222 24.11954,38.59123 36.18011,78.99144 36.18011,121.20059 0,31.35533 -13.94924,137.88608 -46.51061,203.00873 h 133.8627 c 8.4418,-10.85386 12.7426,-87.837 17.5665,-114.36841 1.2059,-30.14934 -8.7426,-59.39493 -29.8472,-87.73536 C 990.28428,211.3477 976.11358,173.05759 968.87777,124.81859 968.87777,41.606295 1005.6598,0 1079.2244,0 c 57.8868,4.8239252 93.4646,27.737228 106.7304,68.740358 -13.2658,33.767312 -36.7832,50.048192 -70.5504,48.842222 24.1196,38.59123 36.1801,78.99144 36.1801,121.20059 0,31.35533 -13.9493,137.88608 -46.5105,203.00873 h 141.0986 c 8.4418,-10.85386 12.7428,-87.837 17.5666,-114.36841 1.2059,-30.14934 -8.7427,-59.39493 -29.8473,-87.73536 -21.1044,-28.34043 -35.2752,-66.63054 -42.5111,-114.86954 C 1191.3808,41.606295 1228.1647,0 1301.7292,0 Z m 0,32.562091 c -50.651,0 -77.1842,30.751737 -79.5962,92.256499 2.412,31.35534 15.6786,62.71107 39.7981,94.06644 24.1196,31.35539 35.5761,67.53541 34.3702,108.53846 -2.412,28.94341 -3.6986,105.92656 -8.5225,114.36841 l 12.664,-23.51615 c 26.5313,-57.8869 37.4646,-156.57912 37.4646,-179.49258 1.206,-55.47485 -21.1051,-95.87509 -66.9322,-121.20059 l -19.8981,-23.516151 c 34.9732,-6.029863 65.1229,-8.441963 90.4483,-7.23602 16.8838,2.411935 25.3261,-3.618378 25.3261,-18.090051 -1.2059,-24.119521 -22.9131,-36.178267 -65.1223,-36.178267 z m -222.5048,0 c -50.651,0 -77.1826,30.751737 -79.59447,92.256499 2.41187,31.35534 15.67857,62.71107 39.79807,94.06644 24.1195,31.35539 35.5763,67.53541 34.3702,108.53846 -2.4119,28.94341 -3.0946,104.11651 -6.7125,108.94047 l 10.8541,-18.08821 c 26.5313,-57.8869 37.4646,-156.57912 37.4646,-179.49258 1.206,-55.47485 -21.1052,-95.87509 -66.9323,-121.20059 l -19.898,-23.516151 c 34.9732,-6.029863 65.1228,-8.441963 90.4484,-7.23602 16.8836,2.411935 25.326,-3.618378 25.326,-18.090051 0,-24.119521 -21.709,-36.178267 -65.1241,-36.178267 z m -215.26709,0 c -50.65095,0 -77.18245,30.751737 -79.5944,92.256499 2.41195,31.35534 15.67847,62.71107 39.79812,94.06644 24.11935,31.35539 35.57613,67.53541 34.37018,108.53846 L 851.8187,441.7919 c 2.41205,-1.20595 6.02836,-9.04449 10.8522,-23.51615 26.5315,-57.8869 37.4665,-156.57912 37.4665,-179.49258 1.20595,-55.47485 -21.10532,-95.87509 -66.93226,-121.20059 L 813.30699,94.066429 c 34.97332,-6.029863 65.12291,-8.441963 90.44842,-7.23602 16.88366,2.411935 25.32608,-3.618378 25.32608,-18.090051 0,-24.119521 -21.70903,-36.178267 -65.12418,-36.178267 z m -246.33388,1.978801 c -43.41506,0 -65.12231,12.060634 -65.12231,36.180102 0,14.471728 8.44256,20.500139 25.326,18.088216 25.32553,0 55.47521,3.016058 90.44846,9.045942 l -19.89815,23.516138 c -45.82712,25.32551 -68.13821,65.12365 -66.9323,119.39252 0,24.11948 15.59641,122.80995 42.12792,179.49074 2.0052,7.01805 7.6612,14.03641 15.56424,21.05458 0.3389,9.4e-4 0.81468,7.7e-4 1.15461,0.002 -7.68392,-9.57943 -15.1271,-84.73664 -17.24053,-110.09874 -1.20591,-41.00307 10.25085,-77.48508 34.37018,-109.44344 24.11942,-31.95839 37.38592,-63.01212 39.7981,-93.16146 -2.41218,-62.71076 -28.94543,-94.066477 -79.59622,-94.066477 z m -217.07507,0 c -42.20927,0 -63.91634,12.060634 -65.12234,36.180102 1.20572,14.471728 10.25025,20.500139 27.13417,18.088216 24.11925,0 53.66514,3.016058 88.63849,9.045942 l -18.09009,23.516138 c -47.0329,25.32551 -69.3424,65.12365 -66.9304,119.39252 0,24.11948 15.59649,122.80995 42.12784,179.49074 l 8.40346,16.80696 c -3.80126,-10.18472 -8.93933,-84.29994 -10.73507,-105.84929 -1.20572,-41.00307 10.55297,-77.48508 35.27514,-109.44343 24.72253,-31.9584 37.68722,-63.01212 38.89313,-93.16148 -2.412,-62.710701 -28.94364,-94.066418 -79.59433,-94.066418 z m -213.45898,0 c -42.20889,0 -63.91643,12.060634 -65.12234,36.180102 0,14.471728 8.44238,20.500139 25.32611,18.088216 25.32554,0 55.47507,3.016058 90.44843,9.045942 l -19.90004,23.516138 c -45.82699,25.32551 -67.53415,65.12365 -65.12233,119.39252 0,24.11948 15.59836,122.80995 42.12971,179.49074 l 5.73631,20.07619 c 0.28882,5.4e-4 0.5343,9.5e-4 0.82236,0.002 -2.18625,-15.60871 -6.70402,-90.53746 -8.89028,-109.12036 -1.2059,-41.00307 10.55298,-77.48508 35.27514,-109.44344 24.72264,-31.95839 37.68536,-63.01212 38.89135,-93.16146 -2.41199,-62.71075 -28.94325,-94.066467 -79.59442,-94.066467 z m 1136.34612,7.970269 c 10.2508,0 16.281,6.934397 18.0899,20.8031 h -61.5043 c 18.6926,-13.868703 33.1635,-20.8031 43.4144,-20.8031 z m -222.5031,0 c 10.2508,0 16.281,6.934397 18.0901,20.8031 h -61.5045 c 18.6927,-13.868703 33.1636,-20.8031 43.4144,-20.8031 z m -213.91051,0 c 9.94928,0 15.52755,6.934397 16.73352,20.8031 h -59.69625 c 18.6926,-13.868703 33.01345,-20.8031 42.96273,-20.8031 z m -291.10468,3.788723 c 10.25081,0 24.72167,6.934409 43.41428,20.8031 h -61.50437 c 1.80901,-13.868691 7.83919,-20.8031 18.09009,-20.8031 z m -217.07695,0 c 10.2508,0 24.72375,6.934409 43.41611,20.8031 h -61.50612 c 1.80899,-13.868691 7.83919,-20.8031 18.09001,-20.8031 z m -213.45889,0 c 10.25072,0 24.72338,6.934409 43.41611,20.8031 h -61.50433 c 1.8089,-13.868691 7.8374,-20.8031 18.08822,-20.8031 z M 1432.4974,497.87014 H 60.219722 v 417.87191 l 110.185798,1.8081 V 599.01178 H 1330.8715 v 316.73027 h 101.6259 z M 1274.7951,642.42606 H 228.29364 l -2.3316,1099.81014 H 1272.4635 Z" />
</svg>
