<?xml version="1.0" encoding="UTF-8" standalone="no"?>
<svg
   width="1952.0924"
   height="1800"
   version="1.1"
   id="svg1"
   xml:space="preserve"
   xmlns="http://www.w3.org/2000/svg"
   xmlns:svg="http://www.w3.org/2000/svg"><defs
     id="defs1" /><path
     id="path2091"
     style="fill:#000000;fill-opacity:1;fill-rule:nonzero;stroke:none;stroke-width:42.2371;stroke-linecap:square;stroke-linejoin:round;stroke-miterlimit:4;stroke-opacity:1"
     d="M 154.53125,0 V 154.53125 H 0 v 94.92578 H 154.53125 V 375.28906 H 0 v 94.92383 H 154.53125 V 596.04492 H 0 v 97.13477 H 154.53125 V 816.80273 H 0 v 97.13282 H 154.53125 V 1037.5605 H 0 v 97.1329 h 154.53125 v 123.625 H 0 v 97.1328 h 154.53125 v 125.832 H 0 v 94.9258 h 154.53125 v 125.832 H 0 v 97.1328 h 1370.1914 v 0.4473 h 93.9922 l 152.918,0.8242 v -97.1348 l -152.9184,-2.2377 V 1579.688 h 152.918 v -97.1328 h -152.918 v -123.625 h 152.918 v -97.1328 h -152.918 v -123.625 h 152.918 v -97.1328 h -152.918 V 915.20703 h 152.918 V 820.2793 h -152.918 V 694.44922 h 152.918 v -97.13477 h -152.918 v -123.625 h 152.918 v -97.13281 h -152.918 v -123.625 h 152.918 v -97.13281 h -152.918 V 0.44726562 h -0.5254 V 0 H 1366.525 V 154.53125 H 1206.9023 V 0 h -97.1347 V 154.53125 H 963.93555 V 0 H 869.01172 V 154.53125 H 725.17969 V 0 H 628.04492 V 154.53125 H 488.42188 V 0 h -97.13282 v 154.53125 h -139.625 V 0 Z m 97.13281,249.45703 H 1367.2305 l 2.7734,1451.84957 c -0.9497,0 -2.0023,0.01 -2.9531,0.01 -356.0834,0.537 -895.6477,2.5595 -1115.38674,2.7812 z m 728.9668,90.99219 -21.00391,0.92969 -468.58203,19.49414 c -11.24386,0.41894 -20.15366,9.63678 -20.1914,20.88867 V 608.2793 c -0.0264,10.6723 7.96416,19.66259 18.5664,20.88672 155.48574,18.29259 298.97295,28.74631 465.44922,43.05273 l 3.48242,0.34766 -6.26562,947.26369 H 1077.6445 L 1046.4277,342.07422 h -65.67965 z m -20.30664,42.82031 -1.625,247.17383 H 958.4668 C 798.4557,616.69242 660.10391,606.31274 512.86133,589.47852 v -187.5254 z" /></svg>
