<?xml version="1.0" encoding="UTF-8" standalone="no"?>
<svg
   width="1800"
   height="1800"
   version="1.1"
   id="svg1"
   xmlns="http://www.w3.org/2000/svg"
   xmlns:svg="http://www.w3.org/2000/svg">
  <defs
     id="defs1" />
  <path
     id="path1"
     style="display:inline;fill:#000000;stroke:none;stroke-width:96.2934"
     d="M 142.7832,0 V 154.45254 H 0 v 94.87512 H 142.7832 V 375.09541 H 0 v 94.87512 H 142.7832 V 595.74039 H 0 v 97.08083 H 142.7832 V 816.38325 H 0 v 97.08295 h 142.7832 v 123.562 H 0 v 97.083 h 142.7832 v 132.7377 H 0 v 97.0851 l 142.7832,0.3527 v 113.6745 H 0 v 97.085 l 142.7832,0.3528 v 125.7656 H 0 v 95.7815 H 232.5293 V 249.32766 H 1572.6387 V 1701.1646 H 960.7168 l -2.82843,-603.8549 h 265.54493 v -93.1489 H 826.76923 v 93.1489 h 45.42968 l 2.52961,699.6364 H 1799.998 v -97.0808 H 1662.3867 V 1575.399 h 137.6113 v -94.8772 l -137.6113,-2.5606 v -113.6745 h 137.6113 v -94.8771 l -137.6113,-2.5607 v -132.7377 h 137.6113 v -97.083 H 1662.3867 V 913.4662 H 1799.998 V 816.38325 H 1662.3867 V 692.82122 H 1799.998 V 595.74039 H 1662.3867 V 469.97053 H 1799.998 V 375.09541 H 1662.3867 V 249.32766 H 1799.998 V 154.45254 H 1662.3867 V 0 h -89.748 V 154.45254 H 1458.4121 V 0 H 1368.666 V 154.45254 H 1254.4395 V 0 h -89.75 V 154.45254 H 1050.4648 V 0 h -89.748 V 154.45254 H 844.45312 V 0 H 756.74219 V 154.45254 H 640.47852 V 0 H 550.73047 V 154.45254 H 436.50391 V 0 H 346.75586 V 154.45254 H 232.5293 V 0 Z" />
</svg>
