<?xml version="1.0" encoding="UTF-8" standalone="no"?>
<svg
   width="842.01172"
   height="1799.0179"
   version="1.1"
   id="svg1"
   xmlns="http://www.w3.org/2000/svg"
   xmlns:svg="http://www.w3.org/2000/svg">
  <defs
     id="defs1" />
  <path
     id="path1"
     style="fill:#000000;stroke:none;stroke-width:100.172"
     d="M 391.38086,0 C 363.56522,71.11282 315.66141,126.51378 247.66797,166.20463 v 24.8077 c 31.1204,0 85.89918,58.51214 109.17383,128.07193 21.2746,63.58234 15.73649,136.13194 14.80273,198.7302 L 220.49609,434.05659 145.30469,1693.6468 H 0 v 105.371 H 842.01172 V 1691.3597 H 696.70703 L 623.79492,434.05659 468.85547,518.65132 h -0.0586 c -1.28257,-61.71359 -10.71417,-135.58873 6.60938,-198.59889 19.74283,-71.80968 71.09623,-129.0401 101.41211,-129.0401 v -24.8077 C 511.91537,126.51378 467.10183,71.11282 442.37695,0 Z m 23.17969,96.745767 32.45312,49.613463 H 382.10938 Z M 391.38086,198.45386 h 50.99609 l -18.54297,89.30424 h -13.9082 z m -104.80859,340.77583 79.84179,57.15887 V 1693.6468 H 225.05273 Z m 271.14453,0 61.52148,1154.41711 H 479.69141 V 596.38856 Z" />
</svg>
