<?xml version="1.0" encoding="UTF-8" standalone="no"?>
<!-- Created with Inkscape (http://www.inkscape.org/) -->

<svg
   width="1263.6855"
   height="1796.6639"
   viewBox="0 0 1263.6855 1796.6639"
   version="1.1"
   id="svg10448"
   xmlns="http://www.w3.org/2000/svg"
   xmlns:svg="http://www.w3.org/2000/svg">
  <defs
     id="defs10445" />
  <path
     id="path36192"
     style="fill:#000000;stroke:none;stroke-width:100"
     d="M 620.28711,0 C 525.62094,0 444.43534,58.851 414.04102,141.1895 321.84758,155.1092 175.70794,188.9854 86.351562,314.8867 24.05672,402.6589 0,613.65615 0,712.64258 V 1795.9414 H 121.06836 V 714.92578 c 0,-74.62044 21.83463,-274.16488 96.45508,-354.87698 35.13706,-37.911 114.74349,-64.1051 193.87109,-83.1562 22.87094,70.2357 82.29578,124.665 156.22461,142.4922 L 568.5332,1796.664 H 689.60156 L 688.68359,414.9531 c 67.24747,-21.5593 120.34862,-73.9556 141.13282,-140.0879 82.91319,22.0441 181.36789,61.5987 218.78909,102.7618 76.1432,80.712 93.0878,267.09631 93.0878,341.71675 l 0.9239,1077.32025 h 121.0683 l -0.9238,-1079.6054 c -0.085,-98.98639 -9.4458,-310.6932 -77.9746,-393.6895 C 1134.779,262.8037 1034.9464,182.2001 828.16992,145.873 799.16572,61.097 716.73453,0 620.28711,0 Z m 0,40 c 99.45942,0 179.04688,77.4905 179.04688,172.8281 0,95.3377 -79.58746,172.8262 -179.04688,172.8262 -99.45942,0 -179.04687,-77.4885 -179.04688,-172.8262 C 441.24024,117.4905 520.82769,40 620.28711,40 Z M 402.66016,188.8984 c -0.90896,7.8586 -1.41992,15.8346 -1.41993,23.9297 0,5.2299 0.2634,10.3966 0.64649,15.5313 -85.32205,19.9572 -170.8908,50.367 -212.74219,93.3808 C 106.90962,406.2595 82.236328,620.50801 82.236328,714.92578 V 1757.1074 H 38.833984 V 712.64258 c 0,-88.32637 21.277193,-297.36908 88.634766,-384.05078 66.59283,-85.6975 182.16244,-121.8594 275.19141,-139.6934 z m 435.54492,2.2559 c 140.18732,18.4676 258.08832,90.7374 304.32222,145.9199 70.8139,84.5191 81.4004,291.65803 81.4004,379.9844 l 0.9239,1040.7714 h -45.6856 l -0.9238,-1038.48625 c 1.5229,-94.41777 -17.7067,-292.60575 -99.9414,-377.12505 -45.7066,-46.9762 -143.59012,-91.859 -239.66994,-113.121 0.42037,-5.3759 0.70313,-10.7888 0.70313,-16.2696 0,-7.3174 -0.38424,-14.5477 -1.12891,-21.6738 z m -188.3418,232.5019 0.90625,1331.8906 h -45.6875 L 604.17578,425.0156 c 5.32797,0.3796 10.68806,0.6387 16.11133,0.6387 10.03056,0 19.89207,-0.719 29.57617,-1.9981 z" />
</svg>
