<?xml version="1.0" encoding="UTF-8" standalone="no"?>
<svg
   width="2221.7808"
   height="1518.5645"
   version="1.1"
   id="svg1"
   xmlns="http://www.w3.org/2000/svg"
   xmlns:svg="http://www.w3.org/2000/svg">
  <defs
     id="defs1" />
  <path
     id="path1"
     style="fill:#000000;stroke:none;stroke-width:100"
     d="m 1108.2787,0 c -24.3928,0 -36.5234,13.98536 -36.5234,41.99218 l -52.8301,83.93164 -596.98043,845.41017 C 348.26414,930.65939 232.95069,883.15219 185.11273,835.58589 91.357985,742.36369 112.7001,517.84866 126.90961,398.08593 135.96574,321.75787 172.40728,245.89655 151.7143,174.84375 124.61084,155.87134 109.59007,174.52536 84.526799,194.96093 61.751787,213.53081 48.467595,226.677 40.388127,257.46093 31.788959,290.22479 10.9922,321.00598 7.3803143,396.91406 -0.09175679,553.94732 -22.209273,792.68249 77.888127,924.64839 150.76259,1020.7244 510.79598,1184.9255 569.48773,1205.7031 c 116.63696,41.2915 200.38461,53.3924 243.75,61.5235 H 13.237736 l 7.175781,251.3379 H 2221.7807 l -7.1738,-251.3379 h -796.877 c 40.6553,-9.035 161.1063,-34.6622 238.4766,-62.3047 76.6473,-27.3843 129.9865,-55.8618 221.875,-101.9531 l 73.6328,-44.7266 c 37.47,-23.6484 77.778,-50.5234 119.7266,-79.49221 23.1785,-17.9742 46.8128,-41.761 63.4785,-64.8437 100.0974,-131.9668 77.9796,-370.70131 70.5078,-527.73442 -3.612,-75.90794 -24.4086,-106.49392 -33.0078,-139.25781 -8.079,-30.78389 -21.3656,-44.12555 -44.1407,-62.69531 -17.2307,-14.04947 -29.6154,-27.24661 -44.5332,-27.92969 -6.781,-0.31 -14.1863,2.07895 -22.6562,8.00781 -20.6931,71.05271 15.9438,146.91425 25,223.24219 14.2097,119.76266 30.9354,371.87233 -33.4727,438.91993 -13.196,17.8611 -36.9387,39.0983 -53.9375,51.4473 -39.6274,28.7879 -78.697,53.0396 -118.0566,71.9375 l -48.4395,22.6562 -39.5117,18.0859 -594.8398,-868.56832 -48.9278,-80.02539 C 1148.9037,13.98536 1135.3824,0 1108.2787,0 Z m -37.791,134.12695 -2.3652,790.32614 v 33.0117 182.42191 c -67.7585,0 -157.69915,-12.46 -269.72656,-37.3047 -112.02777,-24.8525 -278.1297,-79.9501 -333.67774,-113.66991 z m 77.1485,2.73437 597.5742,870.13088 c 6.185,8.956 -210.7535,71.974 -321.4258,96.3672 -110.6723,24.3932 -203.0659,36.5235 -277.1484,36.5234 l -0.3887,-182.22651 v -33.1993 z m 938.2597,64.93555 c 19.3925,-1.5869 43.9035,33.97831 53.1211,57.22656 15.3115,38.61746 31.4566,80.56411 31.4453,137.30469 -0.034,167.97464 27.4106,364.76777 -52.205,476.95507 -16.5477,25.4741 -45.1733,51.4452 -70.4532,72.0684 -43.4676,26.8102 -85.9504,51.9659 -126.8203,74.58981 -15.645,8.9427 -33.2962,19.1287 -50.7168,26.9727 -114.8981,60.1747 -203.8435,98.2738 -312.3047,128.3203 -145.0687,40.1874 -317.2914,67.7735 -446.4843,67.7734 -128.28941,10e-5 -366.60257,-18.3054 -528.32034,-83.3984 C 530.59073,1138.4495 183.66371,984.53819 118.51313,903.74999 15.231045,775.67819 42.373895,580.46376 42.339299,407.07031 c -0.011,-56.74065 16.133972,-98.88254 31.445312,-137.5 8.603964,-21.70048 30.385719,-54.10236 49.023439,-57.03125 2.66246,-0.418 5.328,-0.31806 7.8125,0.58594 -0.72,43.265 -35.051755,107.77712 -42.578127,185.54687 -7.050268,72.85127 -48.747912,336.83982 66.212887,462.10942 75.76196,82.5555 443.07494,241.53641 534.375,269.72651 168.12054,51.9098 311.72579,63.6719 422.84959,63.6719 112.9309,-0.9 254.8341,-22.443 425.586,-64.4531 93.7487,-23.0653 198.9589,-62.8269 315.039,-118.1641 17.9299,-9.3649 37.0751,-16.49181 54.4029,-26.96811 41.3439,-20.7473 74.7363,-45.7953 116.7827,-73.6803 32.5742,-21.6036 52.6582,-55.1054 61.1679,-67.7559 77.3163,-101.8793 47.175,-384.25731 40.3067,-455.22851 -7.526,-77.76964 -41.8584,-142.08654 -42.5782,-185.35156 1.2414,-0.45177 2.4168,-0.67518 3.709,-0.78125 z M 59.333439,1313.3203 H 2168.5131 l 7.1738,157.9785 H 66.505314 Z" />
  <path
     style="fill:#000000;stroke:none;stroke-width:43.711"
     d="m 2175.3126,1214.4615 c 16.1479,-28.5062 21.1256,-57.3756 14.933,-86.6079 -6.1926,-29.2325 -17.3551,-55.5706 -33.4878,-79.0144 -16.1325,-23.4438 -40.0277,-44.084 -71.6855,-61.92071 l -10.2027,5.1689 c -8.0193,37.93831 -9.0641,71.21371 -3.1341,99.82641 5.9298,28.6128 17.0924,54.9509 33.4877,79.0143 16.3952,24.0636 39.7585,38.5747 70.0894,43.5334 z m 14.971,35.3241 c -41.5012,-5.3218 -74.2615,-23.7291 -98.2808,-55.222 -24.0193,-31.4927 -39.4535,-62.6299 -46.3028,-93.4117 -6.8492,-30.7817 -4.681,-71.9661 6.5046,-123.55281 L 1859.5296,554.662 c -9.9806,-23.54939 -5.0517,-40.34937 14.7869,-50.40011 19.2717,-9.7636 33.8979,-2.87075 43.8786,20.67864 l 171.4193,433.70566 c 42.6619,24.3063 72.5189,49.26571 89.5708,74.87861 17.052,25.6127 28.9436,58.5448 35.6749,98.7961 6.7316,40.2512 -1.4607,79.4062 -24.5765,117.4647 z"
     id="path2447" />
</svg>
