<?xml version="1.0" encoding="UTF-8" standalone="no"?>
<svg
   width="1803.7422"
   height="814.09717"
   id="svg2666"
   version="1.0"
   xmlns="http://www.w3.org/2000/svg"
   xmlns:svg="http://www.w3.org/2000/svg"
   xmlns:rdf="http://www.w3.org/1999/02/22-rdf-syntax-ns#"
   xmlns:cc="http://creativecommons.org/ns#"
   xmlns:dc="http://purl.org/dc/elements/1.1/">
  <metadata
     id="metadata2673">
    <rdf:RDF>
      <cc:Work
         rdf:about="">
        <dc:format>image/svg+xml</dc:format>
        <dc:type
           rdf:resource="http://purl.org/dc/dcmitype/StillImage" />
      </cc:Work>
    </rdf:RDF>
  </metadata>
  <defs
     id="defs2671" />
  <path
     id="path2668"
     style="fill:#000000;stroke:none"
     d="m 780.4082,0.06788601 c -43.7124,-0.87654 -92.59765,5.45680999 -92.59765,95.90040999 0,0 -34.42501,-15.7089 -39.3086,-2.2227 -4.85083,13.452504 40.88282,23.160204 40.88282,23.160204 l 1.25586,442.2519 C 658.98311,554.065 627.35443,547.6186 595.92578,539.2476 485.53843,514.0322 320.88036,463.8139 223.38086,410.021 222.83867,336.7948 335.31333,248.8891 394.73438,123.0894 366.07845,106.0649 353.05066,97.734596 324.95703,91.167496 260.00636,141.4996 112.22871,288.2615 3.0546875,418.9507 195.81225,559.0362 420.2583,652.7186 608.5332,696.4253 H 0 V 814.0972 H 1803.7422 V 696.4253 h -6.7226 c -3.362,-28.0172 -17.9313,-61.9189 -43.7071,-101.7031 -25.7756,-39.7843 -73.9652,-56.3139 -144.5683,-49.5899 l -15.1289,-15.1289 c 49.3101,-26.8963 140.4972,-68.6769 202.1347,-114.625 -84.174,-136.0463 -190.8791,-284.5925 -250.4726,-313.4961 -32.9235,5.2065 -48.0713,8.7063 -110.8496,26.5645 57.6353,95.4427 154.0392,169.0637 182.0683,258.3613 l -118.6992,40.6524 -159.6992,-169.7832 v -85.7325 c 0,-8.9654 -7.8436,-13.4492 -23.5332,-13.4492 -15.6895,0 -23.5352,4.4838 -23.5352,13.4492 v 35.3008 l -35.3007,-38.664 c -6.7241,-11.2068 -16.2507,-11.2068 -28.5782,0 -12.3275,13.4481 -14.0084,24.0946 -5.0429,31.9394 l 68.9218,73.9649 v 237.0253 c -25.7757,8.9654 -61.6378,17.931 -107.5859,26.8965 -40.8641,8.5314 -83.794,15.9037 -127.9531,21.7481 l -1.252,-443.25 c 0,0 -37.6022,-23.522504 -61.92775,-35.230504 C 919.54994,46.645396 847.06577,1.470836 780.4082,0.10304601 Z M 329.73242,133.7476 c 5.29068,-0.087 9.04797,7.9597 22.97656,12.8769 -83.75603,105.4919 -139.2672,162.3387 -193.31835,272.3262 226.37808,132.2407 495.64993,200.1465 739.95898,200.1465 243.18839,0 536.90119,-83.9781 763.27929,-216.2188 -20.1227,-90.3446 -82.7749,-172.1911 -173.6738,-254.4687 15.8193,-3.4227 51.0674,-11.7299 57.7813,-2.5195 70.3447,62.6966 157.5815,174.55 175.9922,264.1308 -251.0333,171.4646 -560.0183,267.9121 -823.37899,267.9121 -264.48132,0 -568.66607,-96.4475 -819.69922,-267.9121 57.69642,-57.438 162.78671,-201.4333 243.8457,-273.0586 2.53797,-2.2533 4.47277,-3.1859 6.23633,-3.2148 z m 645.03711,15.4922 1.25195,419.4785 c -36.47372,2.8928 -73.59819,4.4621 -111.12695,4.332 -1.69918,-0.017 -3.24037,-0.01 -4.9375,-0.025 -29.75841,-0.2207 -59.75698,-1.6392 -89.84375,-4.1699 l -1.25781,-419.1836 z m 363.32817,175.6777 117.6719,124.3965 c -38.1032,19.0517 -77.3272,34.7409 -117.6719,47.0683 z m 213.4922,228.6191 23.5332,25.2168 c -5.6034,45.948 2.2422,85.172 23.5351,117.6719 h -406.8086 c 122.1546,-28.0172 242.0685,-75.6476 359.7403,-142.8887 z m 104.4863,34.6329 c 18.036,1.357 34.7586,10.2645 50.168,26.7246 24.6551,26.336 40.3442,53.514 47.0683,81.5312 h -99.1816 c -34.7411,-38.1032 -45.3876,-72.2845 -31.9395,-102.543 11.7672,-4.6228 23.0632,-6.5271 33.8848,-5.7128 z M 35.302734,731.7261 H 1768.4414 v 47.0684 H 35.302734 Z" />
</svg>
