<?xml version="1.0" encoding="UTF-8" standalone="no"?>
<svg
   width="1796.6547"
   height="1682.2584"
   version="1.1"
   id="svg1"
   xmlns="http://www.w3.org/2000/svg"
   xmlns:svg="http://www.w3.org/2000/svg">
  <defs
     id="defs1" />
  <path
     id="path2"
     style="display:inline;fill:#000000;stroke:none;stroke-width:78.8988"
     d="m 47.978,0 c 143.7421,37.670301 241.3898,104.09346 292.9391,199.26042 34.6965,23.79177 57.4974,45.60075 68.402,65.42722 0,5.94795 12.1439,17.84559 36.4306,35.68939 24.2878,17.8438 37.9197,29.24235 40.8937,34.19899 2.9744,4.95657 6.9388,12.63816 11.8951,23.04707 4.9566,10.40886 2.9737,20.57177 -5.9475,30.48502 -9.9133,12.88723 -21.3146,18.33898 -34.2009,16.3563 -28.7487,-6.93942 -53.7794,-10.65646 -75.0929,-11.15193 -21.3138,-0.49565 -35.9359,-3.7176 -43.8665,-9.66555 12.8873,68.40126 64.2621,171.86917 90.7078,212.63995 26.4457,40.77078 41.3619,74.20299 117.3478,124.7863 28.875,-34.72371 83.8262,-75.67151 114.3343,-103.9306 30.508,-28.25909 151.96353,-61.00311 190.6251,-63.97704 -1.98268,-1.98262 -7.18892,-6.19674 -15.61512,-12.64033 -8.42624,-6.44365 -20.56938,0.74287 -36.43058,21.56067 -10.9046,10.90457 -16.3563,16.85337 -16.3563,17.8447 l -23.7924,7.43595 c 5.948,-39.65289 33.2109,-68.40088 81.78566,-86.24469 l -17.8447,-56.50887 C 798.41784,414.87328 779.0862,402.48257 766.199,407.4392 c -21.8091,8.92195 -41.6356,11.3993 -59.4797,7.43395 -17.844,-3.96521 -27.7573,-2.47807 -29.7398,4.46117 -2.974,3.96528 -4.4632,9.41902 -4.4632,16.35832 -20.817,-9.91326 -29.739,-22.30601 -26.7651,-37.1758 -9.9128,-2.974 -12.3903,-8.92079 -7.4339,-17.84268 -8.9219,-14.86984 -5.9476,-38.4156 8.9223,-70.63359 14.87,-32.21794 42.1305,-51.54963 81.7836,-57.99326 39.6524,-6.44357 83.52048,-13.38263 131.59965,-20.81747 48.07914,-7.43496 104.09185,15.61578 168.03225,69.14719 63.9402,53.53147 116.7311,93.68001 158.3666,120.44569 l 193.3089,26.76703 c 9.9132,1.98269 10.4084,5.94727 1.4864,11.89514 l -84.7583,90.70587 c -3.9653,3.96529 -63.9447,-13.87924 -179.9293,-53.53209 0,6.93922 -5.6973,10.16124 -17.0976,9.66555 -11.4002,-0.49566 -21.068,-4.2127 -28.9986,-11.15195 -7.9306,-6.93933 -7.681,-2.97276 0.7452,11.89714 8.4263,14.86978 15.1177,27.75561 20.0743,38.66017 -11.8958,4.95657 -28.7502,7.43596 -50.5593,7.43596 v 4.46118 c 29.7397,11.89588 126.5122,46.50856 172.1469,78.64345 45.6347,32.13488 69.6093,57.50334 109.4388,111.35078 5.7821,7.81715 72.8756,-45.89368 105.036,-78.47089 l -63.9408,-38.66018 c -5.9479,-3.96528 -6.9401,-9.41897 -2.9748,-16.3583 5.9479,-8.92189 10.9027,-10.40914 14.8679,-4.46118 l 68.404,41.63696 c 28.7484,-33.70499 45.1057,-53.53377 49.0709,-59.48165 l -87.735,-52.0437 c -5.948,-3.96527 -6.9382,-9.417 -2.9728,-16.35629 5.9479,-7.93055 10.9045,-9.41774 14.8699,-4.46118 l 90.7079,55.01848 c 19.8264,-26.7657 32.7142,-47.58458 38.6621,-62.45444 6.5592,-7.02445 10.7118,-16.62962 13.3815,-20.81748 6.9393,-12.8872 15.613,-33.70606 26.0219,-62.45442 10.4089,-28.74836 26.5207,-39.1569 48.3297,-31.22623 21.8091,7.93057 27.2609,27.75743 16.3563,59.47966 -10.9046,31.72236 -20.3229,55.51566 -28.2534,71.37678 l -10.4088,22.30387 c -6.9393,15.86119 -18.8349,37.6702 -35.6873,65.42721 l 32.7126,19.33309 c 35.6875,-11.8959 66.6694,-6.44411 92.9394,16.3563 26.2701,22.80045 40.8926,51.05334 43.8665,84.7583 -30.731,10.90456 -61.7127,9.16979 -92.9394,-5.20437 -31.2267,-14.3742 -50.3108,-39.40707 -57.2501,-75.09476 l -31.2242,-19.32909 c -6.9392,10.90455 -20.3241,32.21847 -40.1505,63.94083 l 43.1233,25.27664 c 35.6876,-11.89583 66.6673,-6.44013 92.9375,16.36031 26.27,22.8004 40.8925,50.55827 43.8665,83.27192 -30.731,11.89589 -61.7108,10.6562 -92.9374,-3.71798 -31.2267,-14.37409 -50.3109,-39.40708 -57.2501,-75.09476 l -43.1214,-26.76504 c -54.3341,79.94178 -184.8896,152.08635 -274.1628,182.31317 -14.8096,5.01436 -34.8601,10.83342 -34.8601,10.83342 l 594.3215,-3.33135 v 101.4732 h -536.2511 v 571.2668 h 536.4202 v 98.1419 L 0,1682.2584 v -98.1419 l 616.8378,-1.8519 V 1010.9978 H 1.6826 v -98.14185 h 737.3267 c 0,0 -38.1003,-6.10437 -58.9408,-14.69963 -40.0111,-16.5019 -102.7672,-50.35254 -151.5779,-83.79074 l -56.3665,60.00449 -22.4262,-21.06587 53.5943,-57.05376 c -7.3497,-5.66505 -14.1086,-11.22676 -20.0142,-16.58266 l -61.7213,63.30379 -22.0313,-21.47853 52.4603,-53.80853 C 360.4194,736.39222 242.0976,710.65249 213.3741,717.62199 l 0.1422,1.83896 c -6.3211,17.01559 -19.9474,25.71814 -40.8798,26.114 -30.4345,1.87556 -45.8837,-1.7281 -46.3445,-10.8174 -3.2471,-3.69335 -5.649,-21.88236 -7.2056,-54.56173 L 98.4391,619.28386 99.2083,562.62475 C 38.0237,530.63996 7.7416,494.89222 8.3663,455.38429 c 0.6248,-39.50792 4.9511,-64.75523 12.9748,-75.73779 10.7287,-1.57476 16.3095,9.15057 16.7449,32.17574 0.4353,23.02516 7.8156,45.75807 22.1397,68.19567 14.3239,22.43738 34.9613,34.08602 61.9095,34.94819 7.084,-7.21011 18.5272,-9.08468 34.3333,-5.62904 12.6072,-9.11962 27.129,-12.71704 43.5561,-10.78935 27.3964,-25.06788 41.1608,-49.44588 41.2904,-73.13161 0.3367,-24.19502 -7.3346,-49.86447 -23.0112,-77.00582 -0.8113,-5.67015 1.4314,-8.77813 6.737,-8.77813 1.7686,0 3.8753,0.18594 6.3221,0.73519 17.1109,7.54688 28.8798,20.93336 35.3087,40.16258 6.4291,19.2293 9.53,40.07654 9.305,62.53656 -0.5292,21.74365 -8.0063,44.52005 -22.4281,68.33189 13.2947,-6.37286 33.968,-7.51456 51.7794,-10.89752 -15.8128,-45.31821 -28.3118,-93.13641 -37.2761,-143.61896 -19.8265,-20.81778 -28.7475,-48.08057 -26.7649,-81.78552 -6.9394,-6.93921 -19.3319,-5.45205 -37.1758,4.46118 -17.8441,9.91321 -42.6253,-1.48731 -74.3477,-34.201 l -13.3833,-14.87192 c 22.8005,-20.8178 47.3366,-27.75472 73.6062,-20.81547 26.27,6.93928 41.3879,9.41662 45.3529,7.43396 C 194.695,163.5717 127.7501,119.42998 19.696,69.863848 -2.1126,54.993973 1.3564,48.053024 30.1047,49.044366 141.133,87.705942 214.5215,124.41361 265.0791,173.97977 238.3134,123.4223 164.4559,71.871163 43.5149,19.331085 21.7055,4.461252 23.1135,0 47.976,0 Z m 275.0963,218.59151 c -7.9306,1.9825 -15.3663,2.23022 -22.3057,0.7432 -6.9395,-1.48697 -9.9139,1.98249 -8.9224,10.40874 0.9913,8.42617 -4.9575,15.11761 -17.8447,20.07428 -7.9311,14.86977 -9.9132,33.20933 -5.9476,55.01847 4.9567,20.8177 18.3394,33.95307 40.1485,39.40536 21.8093,5.45225 36.4316,11.40114 43.8666,17.84471 7.4348,6.44358 19.5798,10.16059 36.4326,11.15193 16.8525,0.99133 35.1939,3.96565 55.0205,8.92235 6.9384,0 8.1788,-0.74257 3.718,-2.2296 -4.4609,-1.48697 -8.677,-3.71877 -12.6424,-6.69275 l 2.9748,-5.94757 c 3.9655,1.98263 9.912,4.95707 17.8427,8.92235 7.9309,3.96534 14.3748,5.4525 19.3311,4.46118 4.958,-0.99135 7.6846,-5.70039 8.1791,-14.12671 0.4956,-8.42557 -4.2129,-16.60551 -14.1247,-24.53547 -2.9739,1.98268 -3.7166,3.96491 -2.2296,5.94757 1.487,1.98261 3.222,3.46984 5.2044,4.46117 1.9815,0.99128 2.2281,2.97363 0.7412,5.94756 -1.4866,2.97402 -4.7085,3.471 -9.6655,1.4884 -10.9048,-10.90458 -12.3921,-19.82783 -4.4611,-26.76704 l -63.9408,-46.09613 c -11.8961,-30.73102 -35.687,-53.53215 -71.375,-68.402 z m -158.9255,6.32016 c -9.046,0.7435 -16.0449,3.59314 -21.0018,8.54975 24.7834,26.76574 45.3522,36.67911 61.7093,29.73982 16.3569,-6.93921 28.502,-8.42643 36.4327,-4.46117 l 4.4611,-14.87191 c -5.9479,-2.97397 -22.0574,-7.92859 -48.3278,-14.86792 -13.134,-3.46963 -24.2276,-4.83206 -33.2735,-4.08857 z m 708.5695,28.50784 c -5.46006,-0.17038 -10.73293,0.11389 -15.81344,0.85739 -40.64422,5.94795 -78.31356,11.40174 -113.00976,16.3583 -34.6965,4.95665 -54.0298,11.40053 -57.9952,19.33108 44.6089,1.98267 59.4809,29.74048 44.6117,83.27192 0.9915,-35.68758 -8.4269,-56.25894 -28.2534,-61.71123 -19.8267,-5.45226 -34.6961,2.23127 -44.6098,23.04905 -8.9219,19.82649 -11.4015,36.18372 -7.436,49.07091 3.9657,3.96526 4.4623,7.9298 1.4884,11.89514 3.9653,2.97388 10.9041,3.966 20.8176,2.97477 l -4.4613,11.89714 c 4.9567,-11.89591 16.8524,-16.35751 35.6874,-13.38353 18.8355,2.97389 40.644,-1.98274 65.4273,-14.8699 16.8526,-0.99135 31.22943,5.94764 43.12535,20.81747 l -11.89714,-35.68739 c -3.96551,-17.84383 -2.23058,-35.44075 5.20438,-52.78888 7.4349,-17.34815 24.04176,-32.96278 49.8161,-46.84134 -24.7818,31.72237 -36.92702,54.27595 -36.43258,67.6588 0.496,13.38288 1.7335,22.05658 3.71597,26.02185 L 928.28167,678.0744 c 39.65284,-19.82648 35.68626,-100.12757 -11.89714,-240.89538 l -31.22421,-93.68065 28.25143,-5.94956 28.25343,90.70787 c 52.5401,163.56826 51.54989,257.74732 -2.97279,282.53033 l 19.32908,50.5573 c 76.33183,-37.67025 81.78553,-154.64852 16.35832,-350.93033 l 26.76501,-16.3563 c 6.9393,20.81772 11.8959,36.1829 14.87,46.09612 17.8437,6.9393 35.1931,7.68184 52.0456,2.22959 16.8525,-5.45233 26.0234,-7.18698 27.5103,-5.20437 1.487,1.98267 -6.1966,6.6898 -23.0491,14.12472 -16.8525,7.43498 -34.2018,11.15393 -52.0457,11.15393 7.9306,29.73969 13.3825,52.04574 16.3563,66.91561 9.9132,0 19.3316,-1.48723 28.2535,-4.46117 -18.8352,-22.80045 -22.5522,-36.9279 -11.152,-42.38016 11.4003,-5.4523 19.5789,-3.71554 24.5355,5.20638 17.8438,8.92187 26.765,1.48586 26.765,-22.30588 l 178.441,53.53209 50.5593,-49.07091 -160.5963,-23.79227 C 1132.994,417.35295 1080.2031,376.70541 1015.2715,324.16528 958.45634,278.19269 910.93842,254.61211 872.7183,253.41951 Z m -506.6608,16.6588 c 7.5279,1.11527 13.5219,7.24922 17.9829,18.40158 -7.9306,1.98266 -14.1267,4.95501 -18.5878,8.92036 -4.4611,3.96521 -16.1097,2.97511 -34.9443,-2.97279 l -7.434,1.48639 c 11.8961,-13.87855 23.5423,-22.30466 34.9423,-25.27865 2.8501,-0.7435 5.5316,-0.92865 8.0409,-0.55689 z m 300.7916,79.08918 c 1.7969,0.18588 3.6865,0.77358 5.6693,1.76483 9.9132,3.9653 12.8877,10.90424 8.9223,20.81748 -4.9563,7.93055 -11.8955,9.91278 -20.8176,5.94756 -8.922,-3.96533 -11.4014,-10.40711 -7.436,-19.32908 3.7175,-6.69138 8.2714,-9.75843 13.662,-9.20079 z m -375.0029,16.63475 c 17.8439,92.19299 51.0531,178.19342 99.6282,257.99488 48.5744,79.80147 115.9881,145.97509 202.2332,198.51523 86.2457,52.54136 198.2665,79.05951 336.06045,79.55393 137.79395,0.49564 255.02165,-19.08354 351.67555,-58.73645 96.654,-39.653 172.7409,-99.13311 228.255,-178.43895 55.5141,-79.30579 90.4604,-139.53065 104.8346,-180.67053 14.3742,-41.1399 18.0912,-62.95088 11.152,-65.42922 -6.9394,-2.47833 -17.8447,16.11076 -32.7147,55.76367 -14.8697,39.6529 -49.5686,96.40829 -104.0913,170.2618 -54.5229,73.85357 -127.8809,130.11184 -220.0739,168.77341 -92.1931,38.66157 -204.2146,57.25066 -336.06046,55.76367 C 800.89888,867.66671 692.5922,843.62389 607.8344,797.0317 523.0764,750.43956 456.9032,688.72755 409.3191,611.89999 361.7352,535.07251 329.0212,456.01307 311.1772,374.72459 Z M 187.9631,519.46335 c -7.6565,-0.14383 -14.4834,1.68118 -20.4769,5.4768 -5.9934,3.79589 -18.0252,5.28866 -36.0921,4.4752 0.7468,12.76605 -2.2689,23.11148 -9.0505,31.03791 l -0.8894,50.38303 c 8.2309,-11.49174 20.8698,-17.04029 37.9169,-16.64076 l 27.3881,4.89787 -1.8871,9.02651 -29.223,-4.75365 c -12.1457,-0.78056 -23.2114,5.99838 -33.1934,20.33871 14.9278,33.36513 22.1279,60.92118 21.6007,82.66493 3.391,-3.963 7.3791,-5.01578 11.9633,-3.15306 4.5841,1.86279 6.6809,5.83245 6.2902,11.90515 -0.3903,6.07267 -2.688,10.62816 -6.8911,13.66797 11.3337,-0.14223 17.1615,-10.83141 17.482,-32.06556 l 7.8068,0.50481 -2.2939,27.55231 c 9.5987,-0.25382 17.9832,-11.38794 25.1485,-33.40172 46.4235,-4.53925 165.6824,19.17652 233.3532,41.34047 -25.4354,-28.73845 -47.8394,-59.30398 -67.0017,-91.82165 -21.3982,-36.31184 -39.7445,-74.92631 -55.3931,-115.57386 -33.7093,7.76108 -64.7747,8.09647 -88.5043,36.30839 -9.0414,10.56848 -14.0329,27.23388 -14.9741,49.9964 19.388,1.94372 36.0065,-3.17101 49.8562,-15.34668 l -5.3946,-21.77701 21.178,-8.30736 5.016,7.37785 -17.1937,7.25768 7.2338,21.63478 c -17.5432,15.42262 -41.8282,21.87508 -72.8512,19.35714 0.4807,-31.85157 7.1613,-58.51277 20.0401,-79.98462 -14.0701,-3.34427 -24.3907,-10.80524 -30.9637,-22.37798 z m 683.81368,72.36236 c -34.69636,5.94787 -129.63898,21.1393 -172.78248,52.08192 -43.1435,30.94262 -86.4901,60.59191 -108.9638,103.00958 45.4707,35.60739 166.0076,63.00342 205.1651,70.93397 39.15732,7.93056 87.73399,12.63976 145.72639,14.12673 57.9924,1.48723 105.57501,-0.99239 142.74951,-7.43596 37.1748,-6.44343 90.4346,-9.02708 198.1497,-51.78942 -34.5293,-51.3395 -74.445,-80.80148 -101.8387,-101.53616 -27.3938,-20.73468 -118.3659,-48.16285 -131.2532,-57.08479 12.8873,87.23644 -21.8096,152.66566 -104.08935,196.28365 z m -718.32708,21.3283 40.2327,8.33541 1.0497,3.9884 c -21.4113,13.2574 -37.2982,19.85656 -47.6608,19.79984 -10.3616,-0.0571 -15.6875,-1.92244 -15.9737,-5.599 0.3039,-18.27361 7.7553,-27.11507 22.3521,-26.52465 z m -3.105,5.07415 v 0 c 0,0 -4.0036,0.0406 -5.3327,0.39064 -5.3165,1.40062 -8.3651,8.17391 -9.1467,20.31867 l 3.8202,1.5525 5.5168,-0.42869 c -4.4726,-3.59766 -6.0574,-8.09766 -4.7516,-13.50173 1.306,-5.40406 4.9934,-7.9107 11.0659,-7.52008 6.0726,0.39029 9.3772,3.21443 9.9099,8.47564 0.5325,5.26074 -0.8413,9.00588 -4.1207,11.23405 l 25.3368,-11.96123 -0.1442,-1.83495 c -14.7542,-4.21543 -25.4669,-6.72482 -32.1516,-6.72482 z m 1498.0169,34.0087 c -8.674,-0.6196 -16.7298,1.54787 -24.1648,6.50445 -2.9739,17.84391 5.9493,33.21095 26.767,46.09813 20.8178,12.88716 43.6189,17.34884 68.402,13.38353 -8.9219,-24.78308 -23.2969,-43.37214 -43.1233,-55.76368 -9.9133,-6.19575 -19.2068,-9.60287 -27.8809,-10.22243 z m -1497.42,59.3935 v 0 c 0,0 -1.855,1.00552 -1.855,2.11341 v 0.002 c 0,6.26871 0.3626,8.6058 3.3294,7.14148 2.9684,-1.46416 4.0258,-3.70421 3.1751,-6.7208 -0.4255,-1.50796 -1.1792,-2.29581 -2.2636,-2.36582 v -0.002 c -0.3529,-0.4131 -1.4121,-0.48131 -2.3839,-0.16827 z m 1455.7851,31.31436 c -8.6741,-0.61958 -16.7299,1.54587 -24.1649,6.50246 -2.9738,17.84384 5.9473,33.21298 26.7651,46.10013 20.8177,12.88729 43.619,17.34684 68.4019,13.38152 -8.9219,-24.78306 -23.2947,-43.37213 -43.1213,-55.76368 -9.9132,-6.19574 -19.2068,-9.60085 -27.8808,-10.22043 z M 1763.7709,939.621 H 29.9361 v 43.1233 h 1005.4097 71.3768 657.0483 z m -530.3035,71.3768 h -19.3331 v 571.2668 h 19.3331 z m -44.6097,0 h -106.1351 v 571.2668 h 106.1351 z m -132.9001,0 h -19.3331 v 571.2668 h 19.3331 z m -44.6118,0 H 879.21275 v 571.2668 h 132.13305 z m -158.9001,0 h -19.33309 v 571.2668 h 19.33309 z m -44.60974,0 H 689.7008 v 571.2647 h 118.13517 z m -144.90016,0 h -19.3331 v 571.2668 h 19.3331 z m 1101.0043,598.0318 -1735.6869,1.8519 v 43.1234 l 1735.6869,-1.8519 z" />
</svg>
