<?xml version="1.0" encoding="UTF-8" standalone="no"?>
<!-- Created with Inkscape (http://www.inkscape.org/) -->

<svg
   width="2963.3108"
   height="1801.2473"
   viewBox="0 0 2963.3108 1801.2474"
   version="1.1"
   id="svg10448"
   xmlns="http://www.w3.org/2000/svg"
   xmlns:svg="http://www.w3.org/2000/svg">
  <defs
     id="defs10445">
    <clipPath
       clipPathUnits="userSpaceOnUse"
       id="clipEmfPath1">
      <path
         d="M 0,0 H 175.43792 V 100.9788 H 0 Z"
         id="path1413" />
    </clipPath>
    <pattern
       id="EMFhbasepattern"
       patternUnits="userSpaceOnUse"
       width="6"
       height="6"
       x="0"
       y="0" />
    <clipPath
       clipPathUnits="userSpaceOnUse"
       id="clipEmfPath1-7">
      <path
         d="M 0,0 H 186.65778 V 126.4785 H 0 Z"
         id="path20607" />
    </clipPath>
    <pattern
       id="EMFhbasepattern-1"
       patternUnits="userSpaceOnUse"
       width="6"
       height="6"
       x="0"
       y="0" />
  </defs>
  <path
     id="path1429"
     style="color:#000000;fill:#000000;stroke-width:0.89237;stroke-linecap:square;-inkscape-stroke:none"
     d="M 220.96608,0.03721549 C 189.17267,1.3606044 161.7021,32.752171 166.51757,64.664311 c 4.16866,35.0526 17.04315,62.181699 41.66078,85.250949 12.84805,11.62996 26.59128,22.52386 42.16621,30.29003 -7.0405,35.79463 -25.15007,55.13949 -34.07911,90.50756 -7.53224,-0.15372 -15.06458,-0.30814 -22.59683,-0.46187 C 189.2509,229.99261 184.01123,189.80983 175.67656,150.24815 164.81195,109.99167 136.39645,75.641789 101.46173,53.542803 87.490722,44.998734 71.65714,38.621811 55.105552,38.26097 26.593999,36.753775 -2.575466,61.716934 0.18123569,91.344777 2.5426358,119.12581 25.736318,138.84691 48.316919,151.92832 c 27.702478,15.51442 57.365591,28.74666 88.844831,34.09655 4.72616,27.64015 8.32073,55.44807 11.47531,83.3076 -9.5145,-0.19418 -52.43548,-2.24241 -61.949982,-2.43659 1.74675,233.43669 1.385062,468.74814 1.681908,702.1783 -8.361818,114.82742 -24.230346,228.95112 -39.253815,343.05512 114.581219,-0.025 266.281169,-0.036 380.862389,-0.054 -10.47735,-44.4582 -21.09256,-88.9517 -31.33926,-133.5261 32.08895,11.6329 75.65282,27.2317 125.18625,44.3414 94.94678,32.7963 203.87994,68.6387 268.64166,82.0196 11.42461,2.3606 25.35686,4.6533 38.56013,6.9682 H 473.81523 v 31.2329 458.136 L 826.3658,1586.296 h 1542.8673 l 281.6908,214.9513 v -489.3689 h -806.2142 c 93.8914,-21.0041 173.1103,-44.0592 222.9757,-60.6254 113.6096,-37.7433 320.543,-121.2356 444.6825,-169.4091 105.6649,-41.0044 328.1266,-164.90294 415.4957,-213.95612 v -0.002 c 18.2627,-9.6168 34.3395,-26.13094 35.4473,-42.67515 -1.552,-25.27329 -17.8574,-35.83664 -37.246,-43.49431 l -0.8679,-0.34335 -0.8889,-0.28932 C 2807.0449,747.87472 2735.6467,670.27669 2656.937,582.26142 c -19.9654,-22.32582 -67.6781,-88.38619 -62.6802,-180.01469 2.4768,-45.40881 14.4879,-63.16438 27.4857,-73.32771 12.9978,-10.16333 32.2554,-14.12571 54.6105,-15.93542 32.1175,-2.6 89.0157,20.97941 89.0157,20.97941 l 43.1527,20.41819 6.4906,-217.2816 -42.6229,14.50275 c 0,0 -77.5838,26.21429 -165.2418,34.58456 -51.8819,4.95407 -97.1091,36.29614 -129.7352,78.8231 -32.6261,42.52695 -53.5708,97.25603 -55.2433,155.08237 -3.3869,117.10794 77.8202,220.59336 100.9145,260.18332 27.4837,42.91859 56.8093,78.85241 86.3595,114.26691 -117.1237,49.3384 -240.9046,113.64705 -351.3044,148.80259 -101.2855,32.25292 -295.408,75.664 -531.7497,116.2591 -2.3564,1.3281 -10.7809,3.0392 -20.0904,4.6484 -8.3603,-252.59678 -14.541,-505.31094 -26.7851,-757.74226 -7.534,-66.15612 -10.4972,-136.6463 -44.1775,-195.74795 -46.5424,-59.763554 -124.8182,-80.801152 -195.7131,-95.987274 -22.2232,-2.667755 -42.573,-7.2417871 -62.4641,-7.4003948 -40.0916,-0.1439824 -47.9,68.8471728 -12.2092,84.2278598 47.6192,13.708969 109.1504,12.297819 139.7413,58.424079 12.4353,33.09376 19.725,67.23294 24.1898,101.88877 -22.4587,-29.79292 -46.1553,-58.71229 -71.1281,-86.31065 -23.5124,-25.72567 -116.7363,-44.16654 -117.3745,-41.70085 -28.8636,15.82204 -1.8066,57.54059 4.0035,81.6344 22.0203,52.00419 65.725,90.09439 101.6029,132.42629 7.6945,7.1088 15.3645,16.43771 23.0744,25.39595 l -83.2152,3.932 13.1398,494.93409 70.4414,-3.35509 c 0.6281,34.53446 1.2559,69.06935 1.8841,103.60371 28.2322,-1.34427 56.4647,-2.6888 84.6967,-4.03307 1.4043,41.89909 2.8121,83.79819 4.2231,125.69689 -136.8614,14.749 -281.9174,18.3378 -402.2653,19.8779 -64.2056,0.2145 -131.3885,-4.3497 -281.71184,-13.2164 -77.95414,-7.777 -190.22129,-32.9862 -292.24762,-58.7414 1.17974,-49.52898 2.35841,-99.05899 3.5381,-148.58821 -48.36742,-13.639 -96.02556,-31.9103 -138.5195,-59.02359 -36.07481,-26.87236 -67.16322,-59.74769 -95.84086,-94.44132 0.98895,-108.28787 4.32945,-216.59266 6.27272,-324.83132 1.08591,-43.82472 2.27982,-87.64715 3.58343,-131.46595 -5.65803,-0.11547 -11.31617,-0.23136 -16.9742,-0.34684 20.39219,-21.35089 41.06931,-42.42783 62.28637,-62.96261 30.95507,14.96798 65.94323,19.51868 99.98027,20.61339 30.6229,0.35688 65.61445,-7.90441 83.39475,-35.08651 15.04821,-22.93729 13.78205,-58.19368 -10.02173,-74.97127 -14.2529,-10.99693 -32.87347,-14.21472 -50.45898,-14.135 -47.08388,1.27448 -93.76978,19.12254 -129.88861,49.31564 -14.76102,13.27304 -32.53722,27.95095 -44.25248,41.9954 -24.18116,24.25571 -47.86974,48.99584 -71.27281,74.00222 -5.3077,-0.10833 -10.61551,-0.21586 -15.92322,-0.32418 11.27617,-43.72818 23.53584,-79.23745 28.22642,-105.12535 8.09804,-44.58461 9.55665,-91.975171 -15.72279,-129.3152 C 268.57965,17.06317 246.85214,-0.92903953 220.96608,0.03721549 Z m 2.08626,44.41979851 c 12.65302,2.557923 20.42204,14.945184 27.02382,25.097901 10.77517,18.8455 4.09716,40.221735 5.77077,61.836695 C 236.19467,116.3552 230.61835,98.908932 217.42623,77.83548 213.27241,58.743899 205.92351,47.889123 223.05234,44.457014 Z M 1396.8795,53.75021 c 68.6826,8.827606 140.7192,27.034905 194.3588,73.10984 35.9016,55.51332 36.8681,125.17436 44.2856,188.98545 0.6021,13.18896 1.0534,26.38447 1.6296,39.57451 l -57.1935,2.70151 c -0.8863,-23.06302 -1.6706,-46.13094 -2.604,-69.19178 -5.3008,-54.35414 -10.9894,-110.70507 -33.8298,-160.82002 C 1513.0565,77.616773 1451.45,61.823395 1396.8795,53.75021 Z M 52.979203,82.846346 c 19.128097,1.326556 34.974761,14.51345 48.194937,27.374144 7.69947,7.8666 14.59015,16.54709 20.33628,25.94146 C 99.237271,128.33473 77.057527,118.81548 58.038869,104.64318 52.305676,99.200202 35.267053,85.376168 52.979203,82.846346 Z M 536.32469,151.20153 c 12.3117,0.21337 28.36144,6.85089 18.57768,20.79291 -18.26977,17.1031 -45.56944,15.16349 -68.73339,12.88708 -11.23747,-1.8862 -33.51368,-3.08407 -36.56625,-8.52458 24.8042,-14.19831 52.95652,-24.29463 81.7599,-24.85563 1.51994,-0.22911 3.20325,-0.33027 4.96206,-0.29978 z m 824.15411,5.13635 c 35.1258,8.11972 75.3656,15.94772 96.5084,48.50866 25.8819,31.11764 50.8635,62.99622 74.7499,95.67181 -0.6845,2.877 0.2738,5.34614 2.2082,7.3028 1.0201,17.41895 1.6525,34.89632 2.1317,52.37443 l -31.5764,1.49194 c -42.2271,-46.61786 -87.0631,-91.43653 -123.581,-142.74606 -8.6247,-17.58256 -27.147,-50.70726 -20.4408,-62.60358 z m 1389.4703,66.8528 -1.1172,37.44293 c -56.079,-15.73783 -121.7944,-2.39835 -163.1346,28.79112 -28.9617,22.64606 -57.0082,52.58595 -53.8071,109.42162 5.1724,91.83207 45.9565,172.21596 87.9943,227.36782 45.5872,59.80859 99.8794,114.0265 161.8902,157.52244 27.7698,19.1679 60.2352,33.74567 88.6722,44.55575 -98.6385,54.96686 -294.8301,162.00336 -380.6775,195.31744 -124.9791,48.4991 -332.8657,132.1822 -441.7789,168.3651 -110.9871,36.8718 -376.9767,109.5212 -627.3692,108.9963 -165.818,-0.3475 -477.67419,-28.7516 -615.51551,-57.2319 -56.27982,-11.6282 -166.7217,-47.3634 -260.88746,-79.8897 -79.30707,-27.3941 -137.40634,-48.7557 -157.09368,-56.0241 l -13.90146,-67.6581 c 100.75223,29.4081 345.13874,97.658 496.8269,112.7907 183.92851,18.3489 512.83831,23.1134 780.66851,-17.5145 7.6766,-0.5808 15.3293,-2.0607 23.1755,-3.193 268.2986,-43.9346 476.4045,-85.6032 602.9248,-129.296 126.5202,-43.69327 296.0919,-122.47646 433.6725,-186.216 -25.385,-29.14163 -51.9789,-60.43266 -71.5847,-84.51717 -23.8284,-29.32724 -51.2448,-65.21038 -61.8664,-83.41915 -28.9604,-49.64652 -94.9128,-141.11673 -92.4318,-226.90246 1.2616,-43.62052 11.3284,-88.46803 35.8918,-120.48561 24.5633,-32.0176 61.0872,-57.47427 90.966,-60.32734 54.1801,-5.17352 105.1231,-9.04055 138.4828,-17.89619 z m -2603.92118,109.3275 152.8044,2.36164 c -2.86329,128.87279 -6.83134,239.69168 -7.99822,386.73251 -1.58242,199.4064 24.65649,384.30337 59.79227,528.01457 -64.35489,0.01 -165.82774,0.015 -230.18262,0.024 14.28679,-122.3202 35.61446,-244.7064 30.34407,-368.30822 -1.49686,-191.17134 -3.26765,-385.22109 -4.7599,-548.82487 z m 1492.96268,67.48198 14.4714,405.43916 -211.0856,10.05137 -10.7712,-405.69189 z M 352.93398,797.3801 c 20.02006,21.44897 41.31331,41.64487 64.64104,59.53083 37.86424,26.51875 81.06454,44.40909 124.55182,59.45418 -0.82884,34.82304 -1.65807,69.6467 -2.48714,104.46999 -93.91009,-24.53882 -160.40507,-44.0794 -181.27132,-50.27075 -0.87097,-6.15378 -1.86221,-12.28802 -2.65969,-18.45394 -1.95844,-51.56264 -2.69081,-103.14353 -2.77471,-154.73031 z m 1301.93972,52.66203 c 2.287,73.52842 4.581,147.05809 6.9804,220.58097 -18.7781,3.0318 -37.7793,5.8679 -57.1501,8.3607 -2.6257,-75.3927 -5.0963,-150.79301 -7.5573,-226.19311 z m -102.3455,4.87317 c 0.8626,25.58862 1.7214,51.17783 2.5796,76.76645 -19.1784,0.91342 -38.3571,1.82819 -57.5352,2.74162 -0.4651,-25.60798 -0.931,-51.21606 -1.3961,-76.82398 z M 536.28112,1374.346 H 2588.4581 l 4.7773,319.0571 -226.3918,-169.5712 H 821.58848 l -285.30736,181.5136 z" />
</svg>
