<?xml version="1.0" encoding="UTF-8" standalone="no"?>
<!-- Created with Inkscape (http://www.inkscape.org/) -->

<svg
   width="1820.4752"
   height="1677.7269"
   id="svg1290"
   version="1.1"
   xmlns="http://www.w3.org/2000/svg"
   xmlns:svg="http://www.w3.org/2000/svg"
   xmlns:rdf="http://www.w3.org/1999/02/22-rdf-syntax-ns#"
   xmlns:cc="http://creativecommons.org/ns#"
   xmlns:dc="http://purl.org/dc/elements/1.1/">
  <defs
     id="defs3" />
  <metadata
     id="metadata4">
    <rdf:RDF>
      <cc:Work
         rdf:about="">
        <dc:format>image/svg+xml</dc:format>
        <dc:type
           rdf:resource="http://purl.org/dc/dcmitype/StillImage" />
        <cc:license
           rdf:resource="http://creativecommons.org/licenses/by/2.0/" />
        <dc:subject>
          <rdf:Bag>
            <rdf:li>JSesh hieroglyph</rdf:li>
          </rdf:Bag>
        </dc:subject>
        <dc:creator>
          <cc:Agent>
            <dc:title>Serge Rosmorduc</dc:title>
          </cc:Agent>
        </dc:creator>
        <dc:description>det. of msktt in a Ramses III text
</dc:description>
      </cc:Work>
      <cc:License
         rdf:about="http://creativecommons.org/licenses/by/2.0/">
        <cc:permits
           rdf:resource="http://web.resource.org/cc/Reproduction" />
        <cc:permits
           rdf:resource="http://web.resource.org/cc/Distribution" />
        <cc:requires
           rdf:resource="http://web.resource.org/cc/Notice" />
        <cc:requires
           rdf:resource="http://web.resource.org/cc/Attribution" />
        <cc:permits
           rdf:resource="http://web.resource.org/cc/DerivativeWorks" />
        <cc:requires
           rdf:resource="http://web.resource.org/cc/ShareAlike" />
      </cc:License>
    </rdf:RDF>
  </metadata>
  <path
     id="rect1898"
     style="fill:#000000;fill-opacity:1;stroke:none;stroke-width:60;stroke-linejoin:miter;stroke-miterlimit:4;stroke-dasharray:none;stroke-opacity:1"
     d="M 614.05258,0 V 775.9375 C 436.5458,728.97535 251.94378,637.78783 150.61508,563.5 194.47709,508.80725 255.83383,461.80602 255.83383,385.8125 255.83383,282.44286 150.57868,203.44571 70.55258,136.625 L 30.08383,101.28125 5.6775793,247.59375 c 26.4873817,0.79631 37.9415837,3.44984 59.9375007,17.71875 32.894003,23.98608 113,74.89759 113,118.96875 1e-5,77.73952 -178.31250065,93.58133 -178.31250065,175.53125 0,61.70584 250.54602065,275.50506 482.81250065,381.03125 l -463.826274,0.062 c 0,0 -19.97506065,15.7208 -19.27060155,54.6275 0.5964852,32.94345 19.03622655,51.75155 19.03622655,51.75155 l 508.923929,-0.057 -75.63589,518.0179 -448.2773472,0.3247 3.0117187,111.8555 c 604.9674785,-0.4352 1208.4308585,0.631 1813.3983585,0.1933 l -1.5058,-113.3632 -522.6367,0.3789 -84.0536,-517.4828 589.8033,-1.2516 c 13.1622,-4.7862 16.9709,-34.9502 17.6066,-52.71255 0.6025,-16.8321 -4.0226,-47.9751 -18.3813,-51.5648 -15.2697,0.9915 -29.0021,0.4349 -45.3349,3.3825 -11.6265,-33.2824 -28.9308,-74.84794 -45.5418,-94.0169 -23.2623,-26.84457 -82.6197,-56.19801 -116.625,-62.25 l -2.9723,-4.11375 c 104.1043,-56.58364 209.625,-127.27877 209.625,-193.6875 0,-81.51932 -263.125,-142.56657 -263.125,-211.25 0,-74.26282 95.7688,-77.46875 156.1876,-77.46875 v -111.375 c -98.5554,5.70871 -255.0532,77.8555 -252.5938,186.65625 2.137,94.53621 116.0021,148.27337 169,223.25 -39.649,23.78428 -80.9382,45.49947 -123.5,65.15625 L 1354.5525,516 V 313.3125 h -60 v 134.46875 l -132.1562,-150.25 -30.0626,26.40625 162.2188,184.40625 V 738.375 c -97.8021,29.48527 -137.1657,48.10006 -237.7871,58.62695 l -0.2188,-513.35351 26.6309,-1.14844 v -45.125 c -159.13519,0 -160.60661,-57.59374 -276.06242,-57.59375 -33.00493,0 -88.93753,20.35033 -88.9375,90.5 l 3.1875,0.0937 -2.03125,2.03125 0.25,526 c -14.99949,-2.34125 -30.20359,-5.1111 -45.53125,-8.2812 V 0 Z m 382.49414,300.87695 0.21875,501.28321 c -51.72093,3.12369 -165.42408,6.85539 -217.18164,3.30859 l -0.25,-503.09375 z M 1615.4587,508.5 c 40.0811,28.26407 99.935,42.15594 116.5313,85.875 3.6762,47.66685 -85.867,103.54135 -177.0937,149.375 l -34.3126,-39 c 56.7824,-29.84557 108.0766,-64.62169 150.8438,-104.96875 27.1607,-25.62367 -20.7659,-61.89578 -55.9688,-91.28125 z M 107.08383,521.90625 c -25.506458,30.49127 -26.05248,50.91323 -2.5625,82.3125 152.45053,116.41678 468.27709,262.9375 715.90625,262.9375 226.19212,6.42147 458.10572,-47.4745 663.09372,-144 l 34.125,38.78125 c -54.8575,26.05697 -105.7061,47.46506 -131.7813,60.03125 -152.3358,68.4324 -322.1464,118.7502 -461.90617,118.75 v 0.062 l -218.28125,0.031 v -0.094 C 466.03984,907.49215 61.77133,647.22006 61.77133,561.40625 c 0,-24.40748 29.526656,-27.22271 45.3125,-39.5 z m 1247.46867,54.65625 93.5312,106.34375 c -30.6442,13.04909 -61.8665,25.07551 -93.5312,36.0625 z m 199.9688,227.3125 12.566,15.0207 c 1.9672,18.82538 8.6905,43.76642 17.8437,66.75005 l 19.481,55.0468 -336.5783,0.058 c 49.4713,-17.4398 97.5899,-38.7665 142.625,-64.0625 28.8307,-16.19408 84.0487,-41.70513 144.0626,-72.8125 z m -465.2562,243.2853 84.0594,517.5256 -595.04735,0.5098 75.63199,-517.9749 z" />
</svg>
