<?xml version="1.0" encoding="UTF-8" standalone="no"?>
<svg
   width="25.870001"
   height="12.48"
   version="1.1"
   id="svg1001"
   sodipodi:docname="US9P29VARA.svg"
   inkscape:version="1.2.1 (9c6d41e410, 2022-07-14)"
   xmlns:inkscape="http://www.inkscape.org/namespaces/inkscape"
   xmlns:sodipodi="http://sodipodi.sourceforge.net/DTD/sodipodi-0.dtd"
   xmlns="http://www.w3.org/2000/svg"
   xmlns:svg="http://www.w3.org/2000/svg">
  <defs
     id="defs1005" />
  <sodipodi:namedview
     id="namedview1003"
     pagecolor="#ffffff"
     bordercolor="#000000"
     borderopacity="0.25"
     inkscape:showpageshadow="2"
     inkscape:pageopacity="0.0"
     inkscape:pagecheckerboard="0"
     inkscape:deskcolor="#d1d1d1"
     showgrid="false"
     inkscape:zoom="28.662774"
     inkscape:cx="6.9602476"
     inkscape:cy="6.2450342"
     inkscape:window-width="1920"
     inkscape:window-height="1137"
     inkscape:window-x="-8"
     inkscape:window-y="-8"
     inkscape:window-maximized="1"
     inkscape:current-layer="svg1001" />
  <path
     id="path999"
     style="fill:#000000;stroke:none"
     d="M 4.9453125 1.0332031 C 4.8753803 1.0331778 4.8016119 1.035315 4.7226562 1.0371094 C 3.9761684 1.0801757 4.2336927 1.0031231 3.9609375 1.3476562 L 3.1679688 4.8066406 C 3.1679688 4.8066406 0.087912823 6.982255 -0.013671875 7.0605469 C 1.3061453 8.0734264 1.3021048 8.1939069 3.09375 9.2558594 C 4.0080327 9.9300272 5.3103058 10.423312 6.9921875 10.738281 L 3.8476562 10.738281 L 3.8476562 12.480469 L 19.578125 12.480469 L 19.578125 10.738281 L 17.308594 10.738281 C 18.412804 10.520202 19.344396 10.216797 20.103516 9.8261719 L 20.591797 10.191406 C 20.730464 10.988736 21.159575 11.587664 21.878906 11.986328 C 22.598239 12.384995 23.322785 12.479484 24.050781 12.271484 C 23.981448 11.526154 23.65183 10.868872 23.0625 10.296875 C 22.473169 9.7248768 21.753627 9.5420006 20.904297 9.75 L 20.595703 9.5449219 C 20.730324 9.4598798 20.861305 9.3730438 20.982422 9.28125 C 21.450419 8.9172512 21.822279 8.5795772 22.099609 8.2675781 L 22.4375 8.5019531 C 22.576167 9.3166174 23.002224 9.9235993 23.712891 10.322266 C 24.423555 10.72093 25.14114 10.815422 25.869141 10.607422 C 25.81714 9.8620905 25.497536 9.2048107 24.908203 8.6328125 C 24.318872 8.0608143 23.59933 7.8779381 22.75 8.0859375 L 22.4375 7.8515625 C 23.096164 7.0542316 23.789063 6.2760857 23.789062 5.3574219 C 23.811772 4.9582721 23.700674 3.7867044 23.714844 3.7421875 L 22.800781 3.7851562 C 22.47853 4.7301861 22.106931 5.4399587 21.857422 5.765625 C 21.687342 6.1737702 21.189685 6.4558241 20.929688 6.7851562 L 16.484375 3.640625 L 16.484375 2.2109375 C 16.484375 2.0722708 16.361803 2.0019531 16.119141 2.0019531 C 15.876474 2.0019531 15.755859 2.0722712 15.755859 2.2109375 L 15.755859 3.1191406 L 13.988281 1.8710938 C 13.884281 1.7497608 13.771724 1.767829 13.650391 1.9238281 C 13.546391 2.0971611 13.554451 2.2277867 13.675781 2.3144531 L 15.755859 3.7695312 L 15.755859 6.109375 L 12.142578 3.5625 C 12.038578 3.4238336 11.926018 3.4318908 11.804688 3.5878906 C 11.700688 3.7612236 11.716799 3.8918492 11.855469 3.9785156 L 15.755859 6.734375 L 15.755859 8.8652344 L 15.287109 8.8652344 L 12.337891 8.8652344 L 12.337891 8.3105469 C 12.337891 7.9585557 12.226211 7.6800791 12 7.4726562 C 11.773787 7.2652324 11.093948 7.1601562 9.9628906 7.1601562 C 9.4306282 7.1601563 9.0617205 6.9006072 8.8554688 6.3789062 C 8.649217 5.8572049 8.3340137 5.5957031 7.9082031 5.5957031 C 7.3892476 5.5957031 7.1289062 5.872652 7.1289062 6.4257812 L 7.1289062 8.5898438 C 6.5388584 8.4372189 5.829204 8.2268358 4.9667969 7.9433594 C 4.0233183 7.6209966 3.2422304 7.0825586 2.7792969 6.8691406 L 5.0175781 5.5605469 L 6.1542969 1.3671875 C 5.7272195 1.0908438 5.4348381 1.0333806 4.9453125 1.0332031 z M 4.9082031 1.5136719 C 5.000808 1.5045219 5.0989244 1.567431 5.4003906 1.6894531 L 4.5664062 5.1679688 L 1.59375 7.0507812 C 2.4612795 7.5213423 3.3081325 8.0559497 4.4453125 8.4257812 C 6.3866399 9.1711124 7.8000805 9.4375 8.5800781 9.4375 L 12.298828 9.4375 L 15.287109 9.4375 C 16.588122 9.4375 17.746018 9.2505196 18.767578 8.8847656 L 19.490234 9.3925781 C 17.888085 10.149935 15.492614 10.529297 12.298828 10.529297 C 8.4161733 10.529297 5.5822029 9.9876269 3.796875 8.9042969 C 2.3766771 8.2348179 1.9936715 7.8751756 0.90234375 7.0644531 L 3.5371094 5.2011719 C 3.5539188 5.1741613 4.4492187 1.7695313 4.4492188 1.7695312 C 4.7291516 1.6044423 4.8155982 1.5228244 4.9082031 1.5136719 z M 16.484375 4.2890625 L 20.591797 7.2011719 C 20.366464 7.4265043 20.036846 7.6616308 19.603516 7.9042969 C 19.347947 8.0483442 19.086385 8.1747424 18.818359 8.2851562 L 16.484375 6.6308594 L 16.484375 4.2890625 z M 23.164062 4.7597656 C 23.305795 5.1773905 23.400147 5.3762378 23.263672 5.6894531 C 22.920829 6.8460894 21.930482 7.7559044 20.396484 8.8652344 C 20.272646 8.9547896 20.139032 9.0407213 20 9.1230469 L 19.339844 8.6542969 C 19.592007 8.5407522 19.839065 8.4196154 20.072266 8.28125 C 21.372259 7.5099191 22.210791 6.6753228 22.666016 5.6835938 C 22.740357 5.5216393 23.083706 5.0746216 23.164062 4.7597656 z M 7.9082031 5.9726562 C 8.1610279 5.9726562 8.3863387 6.2306782 8.5859375 6.7460938 C 8.7855353 7.2615093 9.2443363 7.5195312 9.9628906 7.5195312 C 10.920964 7.5195313 11.484059 7.5728329 11.650391 7.6796875 C 11.816718 7.7865422 11.900391 7.991262 11.900391 8.2929688 L 11.900391 8.8652344 L 8.6582031 8.8652344 C 8.407217 8.8652344 8.0323365 8.806685 7.5488281 8.6953125 L 7.5488281 6.4257812 C 7.5488281 6.1240744 7.6686854 5.9726562 7.9082031 5.9726562 z M 16.484375 7.2792969 L 18.21875 8.5 C 17.66513 8.6713295 17.087699 8.7773256 16.484375 8.8144531 L 16.484375 7.2792969 z M 23.492188 8.5253906 C 23.742029 8.5260677 24.009792 8.6257558 24.296875 8.8261719 C 24.756208 9.1468377 25.080821 9.5940166 25.271484 10.166016 C 24.682154 10.183346 24.153543 10.026598 23.685547 9.6972656 C 23.217546 9.3679335 23.0105 9.0141446 23.0625 8.6328125 C 23.199 8.5613126 23.342281 8.5249844 23.492188 8.5253906 z M 21.646484 10.189453 C 21.896328 10.19013 22.164088 10.28982 22.451172 10.490234 C 22.910502 10.810901 23.235113 11.258081 23.425781 11.830078 C 22.83645 11.864748 22.307841 11.718005 21.839844 11.388672 C 21.371844 11.059339 21.164797 10.695542 21.216797 10.296875 C 21.353296 10.225375 21.49658 10.189047 21.646484 10.189453 z M 4.4199219 11.205078 L 19.058594 11.205078 L 19.058594 12.011719 L 4.4199219 12.011719 L 4.4199219 11.205078 z " />
  <g
     id="g1054"
     transform="translate(10.813413,-0.14756421)" />
  <g
     id="g1142"
     transform="translate(25.014396,14.261037)" />
</svg>
