<?xml version="1.0" encoding="UTF-8" standalone="no"?>
<svg
   width="2231.1814"
   height="1388.8054"
   version="1.1"
   id="svg1172"
   xmlns="http://www.w3.org/2000/svg"
   xmlns:svg="http://www.w3.org/2000/svg">
  <defs
     id="defs1176" />
  <path
     id="path1170"
     style="fill:#000000;stroke:none;stroke-width:100"
     d="M 254.50041,6.7227225e-4 C 242.00606,0.08697227 245.1767,8.6923623 263.86173,25.779962 406.07952,112.49787 490.69998,189.88407 517.63126,257.85418 461.66255,187.40768 366.74152,118.56955 232.95158,51.598322 c -34.2263,-6.01775 -39.06626,1.78405 -14.20899,23.3125 126.81944,79.859298 210.93912,157.269658 252.01367,232.154298 -3.70939,1.42337 -21.73183,-4.31244 -53.75585,-17.34571 -32.02417,-13.03338 -64.35578,-8.14642 -97.29297,14.70508 l 15.94726,20.01172 c 34.82065,47.49477 63.9189,66.36098 87.375,56.50977 23.45618,-9.85134 39.12213,-10.04898 47.10156,-0.34375 -7.04859,39.30294 -3.08544,69.97445 11.73047,91.95117 -44.96232,7.03864 -78.9202,22.33399 -101.75976,45.99219 4.34818,-15.28626 -8.24298,-46.7712 -38.04297,-94.49024 l -34.81641,109.08399 c -7.95741,-37.37526 -32.01589,-66.45287 -71.93554,-87.3086 -37.46521,-22.22312 -58.26298,-40.76217 -62.70118,-55.65625 0.75079,-11.35272 -0.19847,-17.00076 -2.70898,-16.88867 l -7.60938,0.33985 -1.5039,5.73828 c -7.49709,29.26126 12.69661,61.10336 60.76367,95.42968 21.03577,20.44129 32.36413,34.91428 34.01172,43.64454 4.93964,7.67829 19.91783,25.23949 13.42578,46.71289 l -15.46875,34.51367 c -10.35236,12.4691 -12.13821,36.57754 -43.64258,34.01172 -23.80284,-2.60691 -44.92221,-4.18762 -63.95703,-4.96485 -0.94566,-0.0387 -1.60265,0.14739 -2.53711,0.11328 -51.133754,-1.8677 -85.208413,2.69084 -101.02539,14.28711 -6.051672,5.30116 -5.240107,7.85975 2.291015,7.52344 27.333777,-7.50916 62.598405,-4.7894 105.947265,8.36719 38.57527,11.70758 69.95216,14.27356 94.81641,8.66992 4.68571,-2.43566 9.31885,0.44411 10.58008,0.50391 16.71981,7.76794 30.55643,35.96407 52.30468,59.25 13.43172,25.73927 27.75363,42.54707 36.3086,55.66211 51.88299,-10.81773 66.9423,-27.6834 71.85156,-41.5293 -3.63601,-14.77268 -5.99632,-30.87849 -7.51367,-41.30664 l -6.4961,-18.47852 c 11.2002,-4.12956 17.56059,-11.37166 24.32227,-15.75 20.8288,-12.01692 34.06479,-32.65995 54.16602,-39.17383 8.75487,-2.837 14.34903,0.82715 22.93359,1.32227 0.43011,19.76342 7.99879,38.70397 11.9707,57.92187 8.4761,35.61813 15.68182,59.38636 27.00781,96.93946 4.33312,13.1649 11.23374,33.56836 13.08594,39.10351 l 8.61133,22.09771 c -177.28211,-3.5372 -341.35753,-9.1919 -527.134766,-14.1934 -56.651255,-1.2434 -48.905169,13.5848 22.898437,44.3359 14.987924,2.8297 520.941409,6.8438 520.941409,6.8438 l 10.46289,24.1679 c 0,0 -321.03234,8.6541 -525.675783,14.0899 -55.284112,1.211 -46.574295,15.1016 26.316406,42.0312 19.060057,1.6446 519.968747,-19.3086 519.968747,-19.3086 l 12.32813,22.129 c 0,0 -325.08558,26.0861 -526.373049,42.27341 -55.173198,3.7218 -45.790186,17.0818 28.187499,40.1894 17.3105,1.2869 522.2168,-47.75971 522.2168,-47.75971 l 16.23047,21.95511 c 0,0 -331.26157,43.6102 -519.53711,68.3613 -56.315089,6.2874 -46.454616,19.1247 29.86523,38.3555 17.88457,-1.1396 515.57032,-74.0508 515.57032,-74.0508 l 17.98437,21.875 c 0,0 -318.42868,59.9527 -512.60742,96.5976 -56.20303,8.7973 -46.17705,20.9296 29.97461,36.3946 18.3391,-1.5896 512.4414,-100.3086 512.4414,-100.3086 21.44998,19.1128 28.15411,34.3807 53.08399,50.4199 70.6383,60.9868 139.16199,102.0529 205.49609,122.9863 9.23111,3.1578 18.61731,5.7814 27.93551,8.6485 6e-4,0.3362 0,0.6357 -0.01,1.1328 H 0.80503424 v 97.4043 H 2231.1814 v -97.4043 h -576.6205 l 0.01,-0.4278 c 40.5581,-16.1747 79.7732,-32.1523 119.4727,-59.2929 49.0851,-27.3463 104.7461,-77.5544 166.8769,-150.7598 l 42.7071,28.2012 c 4.4724,43.8202 23.7477,74.154 57.8222,90.8691 34.0749,16.7152 69.066,16.7073 104.793,0.014 -0.5388,-40.2215 -14.6365,-74.2339 -42.2851,-101.9258 -27.6464,-27.6927 -61.8308,-33.0541 -102.5801,-16.1426 l -40.8633,-26.3281 c 22.6719,-27.4236 44.1806,-55.4403 64.2851,-84.00591 l 40.67,26.336 c 4.4722,43.81811 23.7465,74.15591 57.8222,90.87111 34.0757,16.714 69.063,16.7023 104.7911,0.01 -0.5389,-40.2214 -14.6357,-74.2332 -42.2833,-101.92571 -27.6484,-27.6918 -61.8028,-32.3579 -102.4941,-14.1915 l -40.8711,-26.5214 c 17.7071,-25.9447 32.9549,-51.0854 45.6973,-75.5508 29.9997,-60.45087 32.1361,-97.58629 6.3594,-111.52736 -6.443,-3.48462 -12.9828,-4.80617 -19.6211,-3.96289 v 0 c -19.9179,2.53517 -40.7221,24.55603 -62.4473,66.08398 -12.7424,24.46527 -29.4361,48.47107 -49.7656,72.01757 l -87.461,-58.4609 c -5.3012,-6.0519 -10.9172,-4.4066 -16.8008,4.6601 -7.0831,10.3778 -6.7758,17.2524 0.9239,20.6817 l 83.7441,58.4316 c -20.3286,23.5463 -44.8471,49.1039 -73.7949,76.8067 l -81.8242,-54.8028 c -5.2453,-4.7968 -10.1432,-2.6804 -14.7715,6.3301 -7.1392,9.1218 -7.5272,16.0289 -1.0274,20.7695 l 73.8829,47.72851 c -55.5524,51.5302 -109.2373,87.8705 -161.1153,109.0528 -12.7601,8.0552 -22.5774,13.5343 -30.1679,17.3203 l -1.6504,-614.89065 -1.7149,0.004 c -39.52,-88.29857 -126.5254,-127.45055 -150.7246,-137.23047 -20.3497,-8.22414 -54.4134,-12.75774 -58.9883,-18.96094 -27.1106,-48.83327 -25.8729,-90.98192 -56.4082,-131.72656 -25.1582,-33.56969 -55.3078,-52.50699 -90.2636,-56.90039 41.8104,-9.36096 71.3027,-44.01261 71.4043,-83.896488 0,-47.78196 -41.773,-86.51731 -93.3028,-86.51757 -51.5293,3.1e-4 -93.3027,38.73565 -93.3027,86.51757 0.1137,40.934158 31.15,76.192838 74.3769,84.496098 -34.6088,3.89571 -56.8904,13.84078 -66.7461,29.97656 -12.9313,-0.32384 -18.2139,5.93003 -15.7285,18.81055 -18.4463,5.3976 -27.0507,22.73029 -25.9511,51.93359 7.7925,-4.07743 15.3856,-5.91346 22.6992,-5.48633 7.8446,-1.26817 14.7325,9.31109 20.7636,31.67969 6.0316,22.369 20.4237,43.20519 43.2579,62.45508 5.7331,6.12881 12.2441,11.55859 12.2441,11.55859 0,0 -49.8424,9.86875 -125.0859,53.21485 -44.209,25.46773 -91.4948,94.26346 -95.795,90.83593 l 6.4024,0.66211 -8.918,0.0195 -1.2324,36.07421 4.4707,580.52547 c -45.73216,-19.2294 -96.83727,-47.0022 -153.64279,-84.03 C 774.49849,997.25129 702.9439,915.14019 655.69962,814.74871 608.45515,714.35698 581.52466,620.96479 575.14689,534.46941 c 9.1786,8.39388 27.02248,14.48649 53.60547,18.33008 26.58317,3.84371 57.81499,12.43487 93.63281,25.92774 15.28625,4.34808 30.73857,-0.63818 46.43945,-15.17383 10.84825,-10.54592 14.43671,-22.93594 10.6543,-37.23047 -3.7826,-14.29454 -6.99458,-24.68005 -9.78516,-30.84375 -2.79067,-6.16385 -17.98798,-22.35996 -45.58007,-48.79687 -27.59184,-26.43693 -40.96045,-44.10889 -40.09766,-52.95118 -9.9633,-25.96642 -35.30421,-56.88293 -75.89648,-92.80078 C 558.41504,173.60831 446.45325,74.180712 272.2172,2.7272323 264.58807,0.86695227 258.66529,-0.02810773 254.50041,6.7227225e-4 Z M 1249.9808,207.18817 c 29.2034,-1.09916 46.69,11.13633 52.2168,36.60546 5.5262,25.46816 -12.1664,48.12278 -52.8261,67.97852 68.8532,-14.75438 91.4401,-47.73785 67.455,-99 11.2362,-0.20654 29.725,17.70054 55.6778,53.75195 25.5663,35.5144 15.4609,66.28204 36.7988,102.17578 -46.838,-3.80438 -96.4331,-4.39903 -139.3418,10.41016 1.2699,-5.87965 -3.3514,-9.5452 -7.9004,-18.65039 -29.034,-20.25984 -47.2763,-41.78406 -55.0039,-64.68359 -7.7274,-22.89973 -19.7908,-33.69486 -36.0625,-32.27149 l 17.6817,-2.85937 c -8.0513,-9.96787 -11.504,-18.06711 -10.4942,-24.26758 6.2003,1.00963 10.2969,-1.91814 12.4199,-8.70117 12.1425,-12.02545 31.8716,-18.85816 59.3789,-20.48828 z m -29.2773,8.92578 c -12.3494,0.78902 -18.1565,7.53941 -17.3672,19.88867 0.7892,12.34944 7.154,18.92543 18.9727,19.83203 13.4628,-1.37151 19.4829,-8.79949 18.1113,-22.26172 -0.052,-2.80915 -0.4279,-5.36274 -1.2754,-7.49023 -2.5409,-6.38124 -8.7424,-9.72575 -18.4414,-9.96875 z m -838.20505,89.02539 c 11.65952,0.57982 25.32384,4.15129 41.33594,10.66797 32.02421,13.03327 51.38279,21.80432 57.88281,26.54492 l -8.60742,17.39453 c -9.06661,-5.88359 -24.59568,-6.04208 -46.36523,-0.66797 -21.76951,5.37413 -46.07812,-10.26051 -72.86329,-46.79492 7.30701,-5.35711 16.9578,-7.72443 28.61719,-7.14453 z m 165.4336,13.92383 c 1.57079,-0.0308 3.25618,0.47569 5.33789,1.32617 8.32693,3.40112 18.19297,4.16011 29.43359,2.40039 41.34283,24.56522 67.26825,57.35018 77.9043,98.3789 l 72.85351,68.49805 c -11.0164,6.7805 -10.50971,18.1383 1.51563,33.95117 6.44411,3.48532 10.58563,3.45544 12.32812,0.23047 1.74261,-3.22215 1.61984,-5.96235 -0.375,-8.38867 l -5.99804,-7.35742 c -1.99485,-2.42625 -0.53467,-4.38775 4.42968,-5.86719 10.60197,12.10347 14.8959,23.29176 12.83399,33.44531 -2.06198,10.15355 -6.12626,15.32715 -12.40235,15.60742 -5.02071,0.22421 -12.39698,-2.89188 -22.11914,-9.375 -9.72175,-6.48184 -17.15442,-10.79412 -22.28711,-13.08007 l -3.64843,5.83203 c 3.98967,4.85266 8.65542,8.78537 13.8164,11.69922 5.16094,2.91368 3.27571,3.15365 -5.62304,1.0332 -23.03987,-9.02806 -45.03463,-15.28765 -65.94141,-18.75586 -20.90666,-3.46844 -35.3291,-10.06243 -43.30859,-19.76758 -7.97945,-9.70514 -25.49748,-19.75862 -52.38868,-30.50586 -26.89145,-10.74715 -41.50324,-29.40996 -43.93554,-55.71289 -1.23312,-27.61391 4.13503,-50.41772 15.90234,-68.55078 16.14909,-4.49429 24.24731,-12.09396 24.39844,-22.79101 0.11319,-8.02285 2.56126,-12.1575 7.27344,-12.25 z m 70.01171,74.88085 c -14.9781,2.55544 -30.97377,11.00969 -47.92968,25.60157 l 9.36523,-0.41797 c 23.15374,11.54296 37.78555,15.0309 43.86524,10.35742 6.07987,-4.67327 14.24753,-7.28401 24.28906,-7.73242 -4.71853,-21.17007 -14.61169,-30.36387 -29.58985,-27.8086 z m 736.50194,1.93555 c 31.7093,0.1521 61.9341,4.68308 90.5625,11.75781 65.3371,16.14643 145.4341,46.16768 169.5351,119.31836 l -546.4296,1.25 c 28.6041,-40.50872 63.0623,-69.71726 156.9043,-107.28711 45.4367,-18.19078 88.6586,-25.23461 129.4277,-25.03906 z M 347.95353,472.86395 c 14.17724,35.83972 16.17813,61.60596 6.18164,77.14453 -9.99632,15.53853 -10.39911,25.54149 -1.38867,30.16992 l 19.67187,-23.55664 c 39.96367,-34.48428 79.90854,-54.34131 119.90625,-59.90039 0.25809,33.94584 3.77072,70.13193 10.5293,108.81836 -20.13898,-0.35828 -38.91909,7.21548 -56.47461,22.46289 -17.55553,15.24738 -41.83361,27.1673 -72.87695,36.09961 6.08575,23.62425 12.91685,49.17408 20.42578,76.50781 -10.79212,11.80112 -26.87881,18.20924 -48.2168,19.16211 -20.67749,-40.58031 -35.91268,-68.8505 -45.42773,-84.77539 -12.1934,-19.57845 -22.77395,-32.88472 -31.89649,-40.02344 9.31277,-16.76593 19.71915,-38.59642 31.09375,-65.51562 l 24.72071,6.32617 3.89843,-39.66602 z m 170.95703,28.14453 23.39063,15.96289 c 8.47385,105.26714 36.41356,209.99521 83.82617,314.15232 47.41255,104.1572 120.28737,192.40131 218.47265,264.73641 54.80765,40.3774 114.94221,72.526 179.81829,97.3691 l 0.3536,45.9922 C 950.81363,1212.1572 883.50804,1174.6823 823.27384,1126.1374 723.46859,1045.6905 649.47418,951.46779 601.26603,843.57289 553.05768,735.67837 525.54667,621.44995 518.91056,501.00848 Z m 551.53514,60.74804 1.9433,725.37498 h -21.3378 l -2.8497,-724.96677 z m 557.2344,0.95508 1.039,724.4199 h -19.8144 l -2.8496,-723.53709 z m -132.3106,0.73047 c 46.0201,0.0339 78.4866,0.21678 83.25,0.64649 l 0.9063,215.22461 h -483.168 l 0.9062,-214.72461 c 0,0 260.0456,-1.24807 398.1055,-1.14649 z m 581.9102,221.38867 c 1.2486,-0.30003 2.3564,-0.19656 3.3222,0.31055 7.7277,4.05681 -0.9101,30.80003 -25.7382,80.3301 -24.829,49.529 -78.5618,119.4684 -161.3028,209.94331 -70.5587,77.1555 -141.73,129.0751 -239.0586,164.3594 l -0.1289,-47.8262 c 83.3536,-34.2228 155.5789,-82.2522 216.2305,-144.6386 81.1663,-83.48811 134.396,-149.10811 159.9355,-196.78321 22.3473,-41.71524 38,-63.59509 46.7403,-65.69535 z m -980.9219,25.48438 h 112.791 l 1.9434,476.81638 h -112.791 z m 138.7012,0 h 19.8144 l 1.9434,476.81638 h -19.8145 z m 47.25,0 h 111.2656 l 1.9434,476.81638 h -111.2657 z m 138.7011,0 h 19.8145 l 1.9434,476.81638 h -19.8145 z m 45.7247,0 h 112.791 l 1.9433,476.81638 h -112.791 z m 663.5136,175.93167 c 12.1233,0.3995 24.1532,4.5857 36.1563,12.8535 24.0058,16.53611 36.8616,41.81631 38.375,75.70701 -31.0988,7.677 -59.0648,2.8877 -83.7266,-14.248 -24.6608,-17.1345 -33.7014,-38.4463 -27.291,-63.88481 12.2426,-7.4646 24.3637,-10.8293 36.4863,-10.4277 z m -83.0117,111.23631 c 11.9664,0.4066 24.2301,4.5821 36.5469,12.8359 24.6336,16.508 37.6428,41.7821 39.1562,75.6719 -31.0998,7.677 -59.2165,2.8947 -84.5058,-14.2129 -25.2884,-17.1076 -34.177,-38.4234 -26.5118,-63.9199 11.6163,-7.4356 23.348,-10.7836 35.3145,-10.375 z" />
</svg>
