<?xml version="1.0" encoding="UTF-8" standalone="no"?>
<svg
   width="1795.1947"
   height="1215.6934"
   version="1.1"
   id="svg4120"
   xmlns="http://www.w3.org/2000/svg"
   xmlns:svg="http://www.w3.org/2000/svg">
  <defs
     id="defs4124" />
  <path
     style="fill:#000000;stroke:none;stroke-width:76.2694"
     d="m 92.824694,821.87874 c 261.543886,171.6627 530.093326,257.49416 805.648366,257.49416 274.38754,0 542.35314,-85.83146 803.89704,-257.49416 -138.284,-70.0672 -214.6467,-121.50237 -214.6467,-305.82958 0,-51.68417 2.4121,-76.8727 40.8475,-114.20173 32.1695,-31.24344 -128.7012,-41.82425 -97.2585,0 29.8455,39.69943 25.6492,61.00743 25.1373,114.20173 -1.8041,187.46831 30.1056,254.15143 175.864,305.82958 -235.8566,132.3935 -480.4701,198.59036 -733.84064,198.59036 -254.53814,0 -499.73543,-66.19686 -735.59191,-198.59036 190.55782,-81.91817 185.47299,-124.32746 191.51182,-309.69424 1.76194,-54.08397 9.70454,-75.54762 41.44304,-104.83421 44.59859,-41.15319 -129.16302,-42.22678 -97.26697,-1.41421 25.94177,33.19377 24.28167,54.56064 24.55001,106.24842 0.94574,182.16988 -81.86792,237.15297 -230.294356,309.69424 z M 1617.9061,1180.3509 v -47.123 H 193.97526 v 47.123 z M 1145.4218,167.20413 V 155.42339 H 616.49618 v 11.78074 z m -31.5254,117.80776 v -10.0978 H 648.02152 v 10.0978 z m -14.0113,-30.29341 c 0,-31.41542 15.1791,-56.65993 45.5367,-75.73353 H 616.49618 c 31.52534,19.0736 47.28801,44.31811 47.28801,75.73353 z M 1085.8738,135.22778 737.34343,40.981513 C 643.93492,10.688102 605.40392,42.103524 621.7504,135.22778 Z m 64.8024,811.19063 -64.8024,-641.21091 -408.07828,-1.68294 -64.80212,642.89385 113.84158,15.14671 V 572.79945 h 297.73952 v 388.76567 z m -388.81309,16.82965 c 78.22962,7.85391 154.12402,8.41487 227.68326,1.68295 V 606.45882 H 761.86311 Z M 1537.7375,821.87874 C 1447.6404,775.8674 1414.8603,697.306 1414.8603,516.04916 c 0,-32.76872 -0.4631,-113.95803 -72.455,-142.23831 -36.2494,-60.33214 316.9775,-47.99302 267.0327,0 -73.0982,22.92782 -82.704,107.82071 -82.704,142.23831 0,183.4199 114.4066,233.38141 268.4607,305.82958 -199.6606,140.24734 -396.9861,232.24966 -591.9764,276.00686 h 453.2187 v 117.8078 H 157.1957 V 1097.8856 H 595.47928 C 399.32144,1054.1284 200.82835,962.12608 0,821.87874 232.43288,719.26029 283.24891,675.62527 283.24891,512.1845 c 0,-34.41751 -7.27438,-111.35712 -80.3725,-134.285 -26.69718,-64.52603 327.61657,-61.65964 281.74986,0 -71.99189,28.28035 -88.4023,101.57504 -90.36316,134.285 -10.90308,181.87884 -18.99375,243.35702 -136.80593,309.69424 101.58181,53.85497 205.49876,93.12427 311.75098,117.80782 l 63.05079,-636.162 c -9.34093,0 -14.01143,-7.85386 -14.01143,-23.56157 0,-16.82968 3.50288,-25.24451 10.50844,-25.24451 0,-22.43958 -18.68164,-47.68409 -56.04502,-75.73353 v -43.75717 c 1.35141,-17.65843 0.30762,-19.31545 15.76267,-21.87862 C 569.79187,6.7611617 633.42648,-24.654236 779.37722,19.102963 L 1189.207,135.22778 v 43.75717 c -38.5309,28.04944 -57.7963,53.29395 -57.7963,75.73353 8.173,0 12.2597,8.41483 12.2597,25.24451 0,15.70771 -4.0863,23.56157 -12.2597,23.56157 l 61.2993,636.162 c 122.1955,-25.27716 249.6455,-68.4684 345.0275,-117.80782 z"
     id="path4118" />
</svg>
