<?xml version="1.0" encoding="UTF-8" standalone="no"?>
<svg
   width="1800"
   height="1800"
   version="1.1"
   id="svg10623"
   sodipodi:docname="US9P122XT.svg"
   inkscape:version="1.2.1 (9c6d41e410, 2022-07-14)"
   xmlns:inkscape="http://www.inkscape.org/namespaces/inkscape"
   xmlns:sodipodi="http://sodipodi.sourceforge.net/DTD/sodipodi-0.dtd"
   xmlns="http://www.w3.org/2000/svg"
   xmlns:svg="http://www.w3.org/2000/svg">
  <defs
     id="defs10627" />
  <sodipodi:namedview
     id="namedview10625"
     pagecolor="#ffffff"
     bordercolor="#000000"
     borderopacity="0.25"
     inkscape:showpageshadow="2"
     inkscape:pageopacity="0.0"
     inkscape:pagecheckerboard="0"
     inkscape:deskcolor="#d1d1d1"
     showgrid="false"
     inkscape:zoom="0.35455254"
     inkscape:cx="949.08361"
     inkscape:cy="425.88893"
     inkscape:window-width="1920"
     inkscape:window-height="1137"
     inkscape:window-x="-8"
     inkscape:window-y="-8"
     inkscape:window-maximized="1"
     inkscape:current-layer="svg10623" />
  <path
     id="path12702"
     style="color:#000000;fill:#000000;stroke-width:0.994465"
     d="M 1459.2246 5.125 C 1434.9775 3.2387453 1436.197 15.681556 1455.9531 38.552734 C 1494.9523 81.901681 1483.7197 138.65156 1461.7695 187.19922 C 1491.6311 232.33789 1548.0963 266.19337 1592.7852 302.78516 C 1661.0513 349.9209 1580.7411 381.14709 1548.5996 416.0332 C 1449.7627 509.785 1315.6991 545.6962 1187.2246 576.06055 C 1030.7825 614.33295 868.45454 617.20124 709.10352 598.47266 C 569.99836 581.54236 424.38508 568.62184 298.86914 500.7168 C 265.73743 475.29905 153.98957 409.2841 212.09375 379.35938 C 264.4243 344.57943 337.01341 319.06765 356.41797 252.99023 C 364.46155 197.71081 392.23288 145.54715 447.47266 127.05078 C 489.81598 113.44169 407.95212 80.537218 399.19141 64.007812 C 342.35582 17.112414 269.97183 55.057692 210.25781 74.841797 C 232.93424 111.80604 266.94992 149.61007 253.58594 196.40625 C 195.60823 242.99665 119.64003 259.55806 50.414062 283.07031 C -6.3452293 280.00771 5.9194626 338.91742 18.996094 376.87695 C 72.234929 480.90186 150.8533 574.43598 247.60938 639.61719 C 452.548 749.05152 689.82291 775.92843 918.48242 771.61719 C 1199.5572 765.18406 1477.1294 658.47856 1687.5742 469.32031 C 1741.7069 428.40772 1787.8248 355.27856 1800.3809 322.17188 C 1794.1809 310.44132 1772.1587 278.03947 1737.8398 258.56836 C 1670.7174 220.48573 1621.1099 178.01077 1587.7754 127.70508 C 1601.146 86.173516 1621.5805 47.481962 1640.2637 8.2207031 L 1471.1953 6.8222656 C 1466.6717 5.9565812 1462.6885 5.394465 1459.2246 5.125 z M 822.21484 47.267578 L 819.92188 47.359375 L 818.05078 47.435547 C 734.67134 47.937204 674.66201 114.23302 617.14258 165.5918 C 563.01012 184.6795 505.71536 204.08228 467.13867 249.06055 C 448.11659 283.3127 375.27041 272.02861 395.38672 321.21094 C 401.44367 336.90446 379.96783 370.49768 416.65625 370.39844 C 487.28179 406.20629 563.69845 436.56224 643.94727 437.63672 C 698.2039 478.55123 759.72471 521.59603 830.27734 521.625 C 833.78036 493.97396 771.00743 425.34939 835.1582 438.375 C 903.80519 437.12306 971.62991 423.9741 1038.0508 407.38477 C 1099.1867 434.92028 1165.3088 459.81499 1233.5312 449.95898 C 1267.032 442.41698 1206.0191 417.39707 1207.625 396.68359 C 1183.0889 360.80264 1253.1761 388.86932 1268.2109 391.55859 C 1323.3152 418.80984 1377.0856 450.08207 1432.377 476.07031 C 1437.5045 445.29283 1391.1825 411.46138 1370.9512 383.31055 C 1332.983 353.38248 1360.3967 314.04925 1389.6152 290.39648 C 1409.3343 276.11782 1441.543 220.45116 1420.7734 215.8418 C 1354.124 252.83734 1279.0479 272.12198 1205.0293 288.2168 C 1135.3697 289.29724 1066.9699 269.27415 1000.5996 249.70703 C 928.69777 225.53891 857.80263 198.04791 784.05859 179.69922 C 784.38303 133.47314 792.08948 84.104219 822.21484 47.267578 z M 1525.1484 51.558594 C 1533.3435 51.56088 1545.2131 53.567489 1562.1094 57.576172 L 1560.041 62.119141 C 1517.1116 118.35817 1563.4719 181.02923 1611.8535 219.00391 C 1647.6478 280.91025 1788.0203 300.25039 1709.9121 376.8418 C 1527.3357 569.53066 1273.4293 688.90378 1011.3184 715.04883 C 797.86485 732.88352 577.16744 718.59122 374.9043 642.66797 C 279.66613 615.37768 203.09377 548.05788 142.20117 471.43359 C 118.95688 431.11871 14.589296 342.25926 93.292969 322.48438 C 159.25694 298.24696 233.03972 282.96586 286.42188 234.37891 C 349.95315 188.14958 219.11202 86.571271 339.74023 90.808594 C 402.03444 101.2244 359.29548 124.22391 336.99609 152.72656 C 328.22287 227.78186 317.25008 270.39697 225.33789 314.19336 C 199.15828 340.09858 126.24757 334.79608 130.89453 377.46484 C 148.80553 461.00057 226.5226 515.30214 295.19922 556.23047 C 435.61872 622.56695 593.26494 636.01072 745.49609 651.98242 C 943.63707 674.69279 1144.9461 649.66694 1334.3652 588.30078 C 1459.4327 555.24386 1567.513 478.44951 1655.4805 384.48438 C 1692.8848 356.92821 1707.3598 327.6559 1660.9902 301.01367 C 1610.9365 246.82618 1521.7826 213.63278 1515.8809 164.91602 C 1523.1498 89.200336 1489.6366 51.548685 1525.1484 51.558594 z M 769.5332 103.35742 C 756.91255 129.60611 778.32469 192.35186 732.83984 169.48438 C 712.61059 164.6811 673.23587 167.42969 707.56055 145.21875 C 724.65349 130.44211 753.38527 105.48437 769.5332 103.35742 z M 641.98438 196.06445 C 762.09783 196.80922 875.79167 240.07377 987.69922 278.81836 C 1067.6685 302.30229 1152.0549 326.56486 1235.9238 311.81641 C 1250.0324 342.70018 1233.5822 365.08301 1200.4258 353.74805 C 1139.5993 352.11199 1077.6066 353.70969 1020.0293 375.55859 C 930.89581 401.59204 837.48589 412.20394 744.92969 403.0293 C 698.33868 399.52931 651.44902 397.52581 605.00391 402.36914 C 579.08322 399.72805 638.46195 382.13766 642.23438 364.91797 C 678.90329 341.8787 626.90511 244.8955 607.62109 296.25781 C 650.08093 323.97271 615.96074 370.05686 578.87891 379.84961 C 545.45303 405.51917 510.33648 373.33225 477.72852 361.89062 C 457.98673 348.65247 414.1123 350.42488 443.51367 328.14453 C 396.29761 305.32874 485.95564 297.56492 495.82031 267.1582 C 534.20893 228.42465 589.17665 206.07241 641.98438 196.06445 z M 530.6582 255.19336 C 472.03214 264.69796 544.99954 332.57803 551.34766 276.45312 C 550.45759 265.75924 542.58874 254.28731 530.6582 255.19336 z M 1372.0605 269.66406 C 1351.3096 294.08699 1307.2432 319.75446 1321.5508 357.33008 C 1325.5294 378.82719 1382.2465 426.24843 1336.6465 398.52344 C 1312.5072 376.49323 1247.3787 378.71341 1264.0625 335.43555 C 1243.5656 288.63126 1305.2246 298.34962 1334.4043 282.38477 C 1346.4482 278.57825 1363.9684 272.17331 1372.0605 269.66406 z M 661.71875 292.2832 C 660.7469 324.84223 644.04295 382.27834 695.89062 374.10156 C 750.15762 382.71073 807.50522 376.79699 854.44141 346.26562 C 892.49322 329.87564 816.32964 323.33932 802.75586 313.92578 C 756.9781 300.63071 709.50298 292.06936 661.71875 292.2832 z M 688.40625 323.27344 C 725.41442 323.68987 762.24069 330.42064 797.30664 342.15234 C 761.88227 353.72556 720.30005 352.88642 685.99219 343.33984 C 687.58688 337.87809 682.77985 324.44592 688.40625 323.27344 z M 1159.4434 379.625 C 1163.5703 379.56735 1167.6646 379.60464 1171.7168 379.75586 C 1173.9644 402.97308 1211.4437 438.88813 1166.4141 423.03516 C 1133.1345 416.32601 1101.2711 403.66464 1071.0039 388.52734 C 1100.0534 385.09828 1130.5548 380.02852 1159.4434 379.625 z M 717.65625 436.75977 C 737.17853 437.58975 756.70038 438.42 776.22266 439.25 C 775.24649 461.58745 813.80088 503.9981 772.71289 475.12109 C 758.04784 465.21062 705.30476 441.38099 717.65625 436.75977 z " />
</svg>
