<?xml version="1.0" encoding="UTF-8" standalone="no"?>
<!-- Created with Inkscape (http://www.inkscape.org/) -->

<svg
   width="1801.2418"
   height="639.8772"
   viewBox="0 0 1801.2418 639.8772"
   version="1.1"
   id="svg10448"
   xmlns="http://www.w3.org/2000/svg"
   xmlns:svg="http://www.w3.org/2000/svg">
  <defs
     id="defs10445" />
  <path
     id="rect4336"
     style="color:#000000;fill:#000000;stroke-width:0.980998;stroke-linecap:square;-inkscape-stroke:none"
     d="m 49.14843,639.87706 c -6.146,0.0132 -12.3055,-1.10326 -18.1216,-3.48139 C 15.51723,630.05398 4.0559305,614.70195 1.0872305,598.05818 -4.8502695,564.77063 13.54053,530.57263 56.03273,492.60088 134.13373,422.80846 356.17543,271.1578 521.68113,209.876 H 283.71623 V 181.0803 0 H 1522.9774 v 209.876 h -278.134 c 44.3453,14.7611 82.979,30.5979 108.6437,44.143 61.1196,32.2578 278.7965,155.21189 344.6617,200.57011 31.1128,21.42578 55.8482,46.02621 73.4638,69.89229 17.6156,23.86609 29.6292,45.31909 29.6292,70.98633 0,10.6431 -6.6916,24.90798 -16.3436,31.47624 -9.6518,6.56828 -18.4469,7.30264 -25.7933,7.37283 -14.6929,0.14036 -27.3826,-3.56082 -41.4339,-8.28292 -28.1021,-9.44424 -59.1359,-24.66342 -82.1336,-37.9313 C 1617.8742,577.9123 1521.3905,528.34161 1401.4372,478.33809 1281.4837,428.33456 1135.5119,376.74273 1014.2379,357.71938 769.26613,319.2924 578.61673,371.95084 473.43783,414.14402 c -97.3227,39.04162 -302.3488,154.6843 -395.3538,216.87532 -8.4909,5.67777 -18.6922,8.83587 -28.9356,8.85772 z M 1729.8148,567.7392 c -1.6776,-2.71908 -3.4807,-5.48652 -5.5603,-8.30398 -13.363,-18.1046 -33.8066,-38.68203 -59.4903,-56.36908 -56.1563,-38.67213 -281.5876,-166.82328 -338.7509,-196.99294 -52.3245,-27.6156 -207.3539,-79.2333 -310.0107,-85.3621 -109.23309,-6.5214 -295.67957,-12.2114 -446.28897,34.8542 -147.9159,46.2237 -403.0362,217.09803 -474.4602,280.92375 -13.7019,12.24426 -22.1017,22.7448 -27.4009,31.07005 103.4637,-66.65956 283.4605,-167.844 383.6719,-208.04442 112.3118,-45.05468 314.1023,-100.37278 571.83377,-59.94438 130.0777,20.4044 278.4737,73.47733 400.7262,124.43927 122.2526,50.96194 215.8156,98.6578 240.8657,113.10985 17.8739,10.31183 43.7451,22.81606 64.8647,30.61978 z M 341.30963,152.2846 H 1465.386 V 57.591404 H 341.30963 Z" />
</svg>
