<?xml version="1.0" encoding="UTF-8" standalone="no"?>
<!-- Created with Inkscape (http://www.inkscape.org/) -->

<svg
   width="3320.7207"
   height="1796.356"
   viewBox="0 0 3320.7207 1796.356"
   version="1.1"
   id="svg10448"
   xmlns="http://www.w3.org/2000/svg"
   xmlns:svg="http://www.w3.org/2000/svg">
  <defs
     id="defs10445">
    <clipPath
       clipPathUnits="userSpaceOnUse"
       id="clipEmfPath1">
      <path
         d="M 0,0 H 175.43792 V 100.9788 H 0 Z"
         id="path1413" />
    </clipPath>
    <pattern
       id="EMFhbasepattern"
       patternUnits="userSpaceOnUse"
       width="6"
       height="6"
       x="0"
       y="0" />
  </defs>
  <g
     id="layer1"
     transform="translate(-73.947294,4.1773897)">
    <path
       id="path1429"
       style="color:#000000;fill:#000000;stroke-linecap:square;-inkscape-stroke:none"
       d="m 321.56389,-4.1356851 c -35.62822,1.483011 -66.41192,36.6606181 -61.01563,72.4218761 4.67148,39.280509 19.09895,69.681429 46.68587,95.533199 14.39773,13.03273 29.79846,25.24046 47.25196,33.94336 -7.88968,40.11204 -28.18318,61.78825 -38.18921,101.42228 -8.44076,-0.17226 -16.88152,-0.34531 -25.32227,-0.51758 C 286.02405,253.55325 280.15246,208.52432 270.8125,164.19089 258.63744,119.07881 226.7949,80.586228 187.64648,55.821751 171.99034,46.247128 154.2472,39.101114 135.69922,38.696751 103.74872,37.007763 71.061187,64.981646 74.150391,98.18308 c 2.646224,31.13187 28.637219,53.23136 53.941409,67.89062 31.04385,17.38568 64.28439,32.21384 99.56054,38.20899 5.2962,30.974 9.32431,62.13563 12.85938,93.35547 -10.6621,-0.2176 -74.9129,3.68746 -85.575,3.46986 1.95743,261.59291 -4.13889,516.54583 -3.80624,778.13138 -9.37039,128.6774 -27.15273,256.5646 -43.98828,384.4316 128.40156,-0.028 320.24139,2.4995 448.64296,2.4785 -11.74111,-49.8204 -23.63653,-99.6802 -35.11914,-149.6308 35.95938,13.036 84.77721,30.516 140.28515,49.6894 106.39891,36.7521 228.46995,76.9173 301.04297,91.9121 12.8026,2.6453 28.41509,5.2145 43.21096,7.8086 H 604.91016 v 35 291.25 H 2739.4941 v -326.25 h -598.3437 c 105.2162,-23.5375 193.9894,-49.3733 249.8691,-67.9375 127.3129,-42.2956 359.2038,-135.8577 498.3164,-189.8418 118.4098,-45.95 367.7022,-184.7919 465.6094,-239.76174 v -0.002 c 20.4656,-10.77674 38.4812,-29.28257 39.7227,-47.82226 -1.7392,-28.32165 -20.0112,-40.15893 -41.7383,-48.74024 l -0.9727,-0.38476 -0.9961,-0.32422 c -131.4069,-37.21467 -211.4157,-124.1714 -299.6191,-222.80274 -22.3736,-25.01869 -75.8409,-99.04619 -70.2402,-201.72656 2.7756,-50.88584 16.2353,-70.78266 30.8007,-82.17187 14.5655,-11.38921 36.1457,-15.82943 61.1973,-17.85742 35.9914,-2.91362 99.752,23.50976 99.752,23.50976 l 48.3574,22.88086 7.2734,-243.48828 -47.7636,16.25195 c 0,0 -86.9409,29.376 -185.1719,38.75586 -58.1399,5.55163 -108.8216,40.67369 -145.3828,88.33008 -36.5614,47.65639 -60.032,108.986 -61.9063,173.78711 -3.7955,131.23306 87.2063,247.19932 113.086,291.56445 30.7986,48.09527 63.6611,88.36277 96.7753,128.04883 -131.2505,55.28943 -269.9599,127.35429 -393.6757,166.75009 -123.7159,39.3958 -368.0189,93.8085 -666.0235,142.6074 -2.7018,0.4424 -5.6583,0.715 -8.375,1.1484 V 183.94089 c 3.1014,-14.64863 -3.6986,-31.31692 -4.8092,-30.94726 -59.2936,-21.47054 -159.4497,-50.3641 -213.1712,-64.65625 -99.6922,-26.335596 -214.0075,-52.922637 -297.1192,-53.970708 -5.5408,-0.06987 -10.9436,-0.02612 -16.1933,0.138672 -130.7194,4.103178 -201.7516,81.339486 -227.4708,100.628906 -48.9642,36.72322 -40.58,97.30469 -40.58,97.30469 l 5.1367,28.86914 h 154.4746 v 969.99422 c -89.5932,-2.2657 -171.1241,-6.802 -234.4277,-13.1172 -87.35671,-8.7149 -213.16376,-36.9647 -327.49613,-65.8262 1.32204,-55.5032 2.64286,-111.0066 3.96485,-166.50984 C 678.1522,970.56493 624.74635,950.09011 577.12695,919.70652 536.70094,889.59292 501.86319,852.7527 469.72656,813.87448 c 1.10823,-121.34915 4.85164,-242.71578 7.0293,-364.00976 1.21688,-49.11069 2.55478,-98.21824 4.01562,-147.32227 -6.34049,-0.1294 -12.68099,-0.25927 -19.02148,-0.38867 22.85183,-23.92618 46.02266,-47.54504 69.79883,-70.55664 34.68877,16.77336 73.8966,21.87286 112.03906,23.09961 34.31653,0.39992 73.52823,-8.85766 93.45313,-39.31836 16.86325,-25.70391 15.44442,-65.21243 -11.23047,-84.01367 -15.97204,-12.32333 -36.83832,-15.92918 -56.54493,-15.83984 -52.76297,1.42823 -105.07934,21.42881 -145.55468,55.26367 -16.54144,14.87401 -36.46155,31.3221 -49.58985,47.06054 -27.09781,27.18133 -53.64328,54.90518 -79.86914,82.92774 -5.9479,-0.12139 -11.89584,-0.24189 -17.84375,-0.36328 12.63626,-49.0025 26.37427,-88.79274 31.63062,-117.80315 C 417.11361,132.64907 418.74791,79.542137 390.41936,37.6983 374.92016,14.943707 350.57223,-5.2184861 321.56389,-4.1356851 Z m 2.33789,49.7773441 c 14.17917,2.866449 22.88514,16.747702 30.2832,28.125 12.07483,21.11857 4.59165,45.072821 6.46712,69.294921 -22.02264,-16.85006 -28.27172,-36.40039 -43.05501,-60.015624 -4.65486,-21.394332 -12.89016,-33.558221 6.30469,-37.404297 z M 133.31641,88.65964 c 21.43525,1.48656 39.19308,16.26386 54.00781,30.67578 8.62815,8.81545 16.34985,18.54283 22.78906,29.07032 -24.95963,-8.7713 -49.81432,-19.43863 -71.12695,-35.32032 -6.42469,-6.0995 -25.51844,-21.59082 -5.66992,-24.42578 z m 1280.40629,15.75391 c 58.5569,1.12938 153.8727,19.89494 242.0273,41.76758 h -365.4375 v 45.12695 h -77.2266 c 0.076,-0.0577 0.1185,-0.1162 0.1953,-0.17383 41.9716,-31.4787 81.6778,-83.33712 187.668,-86.66406 4.0296,-0.12649 8.2936,-0.14304 12.7735,-0.0566 z m -738.76372,60.8457 c 13.79668,0.23911 31.78219,7.67711 20.81836,23.30078 -20.4734,19.16601 -51.06555,16.99239 -77.02343,14.44141 -12.59291,-2.1137 -37.55582,-3.45604 -40.97657,-9.55274 27.79599,-15.91087 59.34356,-27.22485 91.6211,-27.85351 1.70328,-0.25674 3.58959,-0.3701 5.56054,-0.33594 z m 685.35352,50.92188 h 499.7324 v 990.12697 c -17.4557,2.2301 -34.6602,4.5423 -52.4941,6.4571 v -899.379 l -391.4453,2.53321 v 916.71879 c -18.7006,0.058 -37.5728,0.2199 -55.793,0.053 z m 1795.2598,29.75 -1.252,41.95898 c -62.843,-17.63607 -136.4841,-2.68777 -182.8105,32.26367 -32.4551,25.37752 -63.8843,58.92815 -60.2969,122.61914 5.7963,102.90848 51.4992,192.98697 98.6074,254.79102 51.0858,67.02248 111.9258,127.77923 181.416,176.52148 31.1194,21.47985 67.5001,37.81575 99.3672,49.92969 -110.5361,61.59675 -330.3899,181.54289 -426.5918,218.87509 -140.0535,54.349 -373.0126,148.1247 -495.0625,188.6718 -124.374,41.3192 -422.4434,122.7308 -703.0371,122.1426 -185.8184,-0.3895 -535.2867,-32.2191 -689.7539,-64.1348 -63.06806,-13.0308 -186.82985,-53.0756 -292.35351,-89.5254 -88.87277,-30.6981 -153.97906,-54.6361 -176.04102,-62.7812 l -15.57812,-75.8184 c 112.90457,32.9553 386.76577,109.4367 556.74995,126.3946 206.1132,20.562 574.6913,25.9011 874.8262,-19.627 h 6.2832 v -0.8652 c 6.4486,-0.9966 13.3069,-1.6681 19.6875,-2.7129 300.6598,-49.2339 533.8639,-95.9275 675.6446,-144.8906 141.7806,-48.9632 331.8033,-137.2483 485.9785,-208.67586 -28.4469,-32.6566 -58.2482,-67.72143 -80.2188,-94.71093 -26.7024,-32.86456 -57.4252,-73.07543 -69.3281,-93.48047 -32.4535,-55.63467 -106.3604,-158.13665 -103.5801,-254.26953 1.4138,-48.88187 12.6945,-99.13815 40.2207,-135.01758 27.5262,-35.87944 68.4549,-64.40634 101.9375,-67.60352 60.7152,-5.79755 117.8021,-10.13091 155.1856,-20.05468 z M 1757.5508,363.71042 v 853.70708 c -96.3921,8.7132 -195.6942,13.7303 -291.4453,15.1074 V 365.59714 Z m -1541.80704,2.19686 193.07851,5.184 c -3.20866,144.41691 -7.90096,296.45071 -8.96289,433.37696 -0.76872,99.12006 -9.87139,199.58646 5.62304,282.80086 12.54707,104.2413 38.60228,206.5193 61.38086,308.8984 -72.11712,0.01 -207.67232,-2.5185 -279.78944,-2.5085 16.01001,-137.0739 39.90997,-274.2205 34.0039,-412.73054 -1.6774,-214.23022 -3.66174,-431.68348 -5.33398,-615.02118 z m 253.70546,523.4672 c 22.43483,24.03606 46.29609,46.66764 72.4375,66.71094 42.4313,29.71734 90.84168,49.76538 139.57422,66.62508 -0.92882,39.0233 -1.85803,78.0469 -2.78711,117.0703 -105.23715,-27.4985 -179.75171,-49.3959 -203.13477,-56.334 -7.20782,-64.4069 -5.96894,-137.05504 -6.08984,-194.07232 z M 674.91016,1535.9292 H 2669.4941 v 186.25 H 674.91016 Z" />
  </g>
</svg>
