<?xml version="1.0" encoding="UTF-8" standalone="no"?>
<svg
   width="19"
   height="17.977583"
   version="1.1"
   id="svg7987"
   sodipodi:docname="US9P112VARA.svg"
   inkscape:version="1.2.1 (9c6d41e410, 2022-07-14)"
   xmlns:inkscape="http://www.inkscape.org/namespaces/inkscape"
   xmlns:sodipodi="http://sodipodi.sourceforge.net/DTD/sodipodi-0.dtd"
   xmlns="http://www.w3.org/2000/svg"
   xmlns:svg="http://www.w3.org/2000/svg">
  <defs
     id="defs7991" />
  <sodipodi:namedview
     id="namedview7989"
     pagecolor="#ffffff"
     bordercolor="#000000"
     borderopacity="0.25"
     inkscape:showpageshadow="2"
     inkscape:pageopacity="0.0"
     inkscape:pagecheckerboard="0"
     inkscape:deskcolor="#d1d1d1"
     showgrid="false"
     inkscape:zoom="32.329593"
     inkscape:cx="10.532146"
     inkscape:cy="6.2481454"
     inkscape:window-width="1920"
     inkscape:window-height="1137"
     inkscape:window-x="-8"
     inkscape:window-y="-8"
     inkscape:window-maximized="1"
     inkscape:current-layer="svg7987" />
  <path
     id="path7985"
     style="fill:#000000;stroke:none"
     d="M 8.9328318,0.03112519 8.6906443,0.04284395 3.2980662,0.26745332 C 3.1686886,0.27227332 3.0660781,0.37821789 3.0656443,0.50768767 V 3.1131565 c -3.141e-4,0.122801 0.092849,0.226149 0.2148437,0.2402343 1.7890962,0.210484 3.4399074,0.3314769 5.3554688,0.4960938 l 0.039063,0.00391 0.1771388,11.3481004 C 6.6576355,15.09311 3.8801147,14.389712 0.49728489,12.914381 0.17543621,12.71514 0.01486301,12.690805 0.01486301,12.844069 c 0,0.613044 0.60888768,1.324113 2.38671879,2.320312 1.7778304,0.9962 3.1801807,1.494141 4.2070312,1.494141 H 2.9406443 v 1.289063 l 12.8007807,0.01563 -0.01563,-1.289063 -3.691406,-0.01563 c 0.740484,0 1.959981,-0.434906 3.646484,-1.294922 0.03812,0.274652 0.36228,0.704859 0.97461,1.294922 0.253738,0.168709 1.086268,0.777283 1.345703,0.332031 0.251653,-0.657264 -0.388367,-1.072121 -0.72461,-1.492187 -0.248282,-0.306892 -0.464178,-0.516424 -0.65039,-0.638672 1.516862,-0.85586 2.28125,-1.560574 2.28125,-2.109375 0,-0.15326 -0.160572,-0.128925 -0.482422,0.07031 -1.106807,0.484888 -2.135286,0.884986 -3.089844,1.203126 L 14.079311,12.681958 V 10.65852 c 0,-0.09196 -0.06714,-0.136719 -0.205078,-0.136719 -0.137934,0 -0.207032,0.04476 -0.207032,0.136719 v 1.564453 l -1.380854,-1.472654 c -0.04598,-0.107278 -0.129344,-0.103229 -0.251953,0.01172 -0.12261,0.114946 -0.144988,0.210479 -0.06836,0.287109 l 1.701171,1.816406 v 1.65625 c -1.344477,0.396268 -2.767375,0.619328 -3.8376126,0.675782 L 9.6886914,0.05065645 H 8.9328318 Z M 8.6984568,0.52526577 8.6789258,3.3690158 h -0.00195 C 6.8358009,3.2107909 5.2442662,3.0920155 3.5500193,2.8983127 V 0.74010957 Z m 5.3808592,12.77778723 0.800781,0.867188 c -0.272551,0.08537 -0.541306,0.165281 -0.800781,0.236328 z m 2.990234,0.574219 v 0.0918 c 0,0.06573 -0.38889,0.302642 -1.132812,0.697266 L 15.739472,14.4554 c 0.440241,-0.175724 0.883538,-0.36754 1.330078,-0.578125 z m -15.2167964,0.09375 c 2.6973987,1.272069 5.0012437,1.814453 7.46875,1.814453 1.9234174,0 3.9173644,-0.387224 5.9804684,-1.160156 l 0.232422,0.251953 c -0.20529,0.106378 -0.4031,0.209037 -0.650391,0.333985 -1.455981,0.735653 -3.309559,1.103515 -5.5624994,1.103515 -2.3142452,0 -4.1840451,-0.367862 -5.609375,-1.103515 -1.4253297,-0.735656 -1.859375,-1.056478 -1.859375,-1.148438 z m 14.4335934,1.289063 c 0.192774,0.01844 1.150484,0.760241 1.333984,1.376953 -0.08581,0.203812 -0.281897,0.06004 -0.455078,-0.06055 -0.858263,-0.781632 -1.085201,-1.158939 -0.947265,-1.296875 0.01724,-0.01533 0.04082,-0.02217 0.06836,-0.01953 z m -12.8398434,1.8125 11.8027344,0.02539 v 0.460938 L 3.4465036,17.533522 Z"
     sodipodi:nodetypes="ccccccccccsscccccccccccscccsssccsccccccccccccccccccsccccscccssscccccccccccc" />
</svg>
