<?xml version="1.0" encoding="UTF-8" standalone="no"?>
<svg
   width="1799.9995"
   height="642.61096"
   id="svg1329"
   version="1.0"
   xmlns="http://www.w3.org/2000/svg"
   xmlns:svg="http://www.w3.org/2000/svg"
   xmlns:rdf="http://www.w3.org/1999/02/22-rdf-syntax-ns#"
   xmlns:cc="http://creativecommons.org/ns#"
   xmlns:dc="http://purl.org/dc/elements/1.1/">
  <metadata
     id="metadata1336">
    <rdf:RDF>
      <cc:Work
         rdf:about="">
        <dc:format>image/svg+xml</dc:format>
        <dc:type
           rdf:resource="http://purl.org/dc/dcmitype/StillImage" />
      </cc:Work>
    </rdf:RDF>
  </metadata>
  <defs
     id="defs1334" />
  <path
     id="path1331"
     style="fill:#000000;stroke:none;stroke-width:1.01165"
     d="M 1399.7109 0.08984375 L 1399.7109 20.089844 L 1399.7109 208.86914 C 1338.2953 147.46116 1276.8756 86.057142 1215.4609 24.648438 C 1193.576 18.145844 1174.914 45.952965 1193.3633 60.53125 C 1255.5863 122.74868 1317.8214 184.96245 1380.0449 247.17969 C 1285.9624 295.35544 1190.7392 336.0933 1116.5098 347.20898 L 1116.5098 122.20898 C 1126.431 29.60908 1096.2985 -2.9897062 1036.5996 0.21289062 C 996.6434 2.3561885 962.62316 24.887097 929.28906 53.480469 C 868.60351 121.0372 790.16655 171.42334 693.98438 204.62891 C 642.45818 232.10888 621.28112 284.77424 630.44141 362.63477 C 454.10849 324.8489 270.90144 268.18676 80.828125 192.61523 C -3.2907591 167.09986 -31.30489 244.06907 43.048828 287.07812 C 216.38841 388.35042 375.78243 458.26649 573.75586 489.75586 L 2.3125 489.75586 L 2.3125 642.61133 L 1800 642.61133 L 1797.957 489.75586 L 1740.0547 489.75586 C 1730.3707 460.79649 1712.5811 432.38966 1696.334 416.14258 C 1653.571 372.70652 1595.9213 343.68825 1537.0195 319.60938 C 1616.6095 273.59592 1694.5616 228.39885 1774.3047 182.30859 C 1789.5081 134.73304 1756.5056 68.396305 1703.9004 63.787109 C 1647.088 94.852161 1547.1871 156.87319 1439.7109 215.33203 L 1439.7109 20.089844 L 1439.7109 0.08984375 L 1399.7109 0.08984375 z M 1020.2754 79.025391 C 1034.7668 78.757191 1041.6357 92.561134 1040.9199 120.4707 L 1040.9199 367.78906 C 933.2882 381.52855 818.80471 381.52865 697.43164 367.78906 C 693.99701 311.68262 708.86471 274.47798 742.07031 256.1582 C 924.15075 191.62227 977.0779 79.82329 1020.2754 79.025391 z M 1691.8867 118.76367 C 1715.9317 124.48837 1724.5225 139.9528 1717.6523 165.14258 C 1626.1791 219.70532 1550.5175 264.36909 1490.2832 299.43945 C 1476.8149 285.97237 1463.349 272.50214 1449.8809 259.03516 L 1691.8867 118.76367 z M 65.369141 221.82617 C 305.82316 324.87857 493.0262 387.85118 626.99414 410.75195 C 803.32703 425.63684 944.45716 426.47979 1050.3711 413.3125 C 1188.0414 400.32741 1297.0833 347.62683 1413.1758 280.3125 C 1426.6488 293.78449 1440.1071 307.27441 1453.5801 320.74609 C 1317.6351 401.46851 1165.9257 470.23183 1006.5859 479.44922 C 863.71534 481.54192 720.21009 478.45636 578.91016 455.39258 C 432.34823 430.2017 256.01404 363.7898 49.910156 256.1582 L 65.369141 221.82617 z M 1517.9453 355.47266 C 1518.5791 355.19018 1519.4645 355.28519 1520.623 355.79688 C 1566.1378 374.47086 1625.3764 405.87387 1659.3105 439.80664 C 1697.5297 478.0244 1720.1963 516.82313 1699.0566 540.94141 C 1681.3182 561.17949 1613.0097 520.78133 1588.248 489.75586 C 1555.6016 448.85099 1508.4392 359.70974 1517.9453 355.47266 z M 1470.334 358.25 C 1488.572 403.12706 1507.9502 447.5897 1531.6523 489.75586 L 1204.0801 489.75586 C 1299.6725 461.62569 1384.7248 408.13965 1470.334 358.25 z M 53.84375 537.8418 L 1571.7676 537.8418 C 1616.6736 576.53036 1684.5727 607.39299 1731.1699 577.07422 C 1739.3407 568.43613 1744.0345 558.28796 1746.2695 547.32617 L 1746.7617 599.67969 L 53.84375 599.67969 L 53.84375 537.8418 z " />
</svg>
