<?xml version="1.0" encoding="UTF-8" standalone="no"?>
<svg
   width="2235.9773"
   height="1409.2268"
   id="svg2434"
   version="1.1"
   xmlns="http://www.w3.org/2000/svg"
   xmlns:svg="http://www.w3.org/2000/svg"
   xmlns:rdf="http://www.w3.org/1999/02/22-rdf-syntax-ns#"
   xmlns:cc="http://creativecommons.org/ns#"
   xmlns:dc="http://purl.org/dc/elements/1.1/">
  <metadata
     id="metadata2441">
    <rdf:RDF>
      <cc:Work
         rdf:about="">
        <dc:format>image/svg+xml</dc:format>
        <dc:type
           rdf:resource="http://purl.org/dc/dcmitype/StillImage" />
      </cc:Work>
    </rdf:RDF>
  </metadata>
  <defs
     id="defs2439" />
  <path
     id="path2436"
     style="fill:#000000;stroke:none;stroke-width:100"
     d="m 299.45386,0 c 125.9998,37.999923 221.9584,130.58361 290.625,281.25 26.6667,24.66661 48.9583,47.62503 65.625,65.625 16.6667,17.33328 27.9167,41.66671 31.25,75 56.6665,73.99986 74.25,126.91671 56.25,156.25 -17.3333,29.99995 -39.4168,28.66662 -68.75,0 -30,-27.99995 -59.9582,-49.1667 -90.625,-62.5 -19.7044,-8.13878 -37.8244,-18.43231 -53.125,-31.25 79.4772,194.33841 176.7508,336.20411 264.5137,393.68945 55.98,36.66739 122.551,57.03427 262.95114,71.83397 l 49.9707,-713.06638 c 17.7374,-90.79834 364.0859,-154.484485 411.4199,23.59179 l 33.3828,691.60739 c 247.9304,-8.28209 320.3125,-39.38685 399.7442,-90.84958 79.1666,-62.33889 111.5749,-81.40526 160.1621,-198.44921 9.0531,-13.66525 43.7934,-94.17655 53.3691,-111.34766 6.7631,-5.6409 69.7598,29.97266 69.7598,29.97266 0,0 -10.4136,45.49558 -13.7539,50.125 -66.7505,222.39152 -82.4817,251.14833 -185.1621,373.44917 -55.7272,66.7305 -150.4084,115.2955 -284.375,146.875 -3.8992,1.1312 -9.3845,2.0728 -14.2266,3.0918 118.9395,0.9092 237.8782,1.7659 356.8262,1.1641 -4.9161,15.0163 12.0343,51.8988 -13.0411,46.7558 -419.5336,0.3499 -839.0829,-0.7038 -1258.60734,0.5313 -87.7294,4.8859 -190.9864,11.9427 -251.084,84.5683 -43.9482,57.2508 -44.9169,79.1681 18.7969,75.3106 401.7759,-1.0045 803.64914,-8.1081 1205.35734,0.062 h 301.3809 c -4.0013,16.4019 11.6598,52.4656 -16.3008,44.9082 H 487.98506 c -1.3447,-54.9014 26.5998,-133.6928 74.3633,-172.4551 93.7637,-82.291 193.7339,-77.2125 313.1114,-77.8535 29.1783,-0.568 58.3601,-0.9763 87.541,-1.4316 -127.2394,-18.1163 -184.4247,-70.8819 -251.1231,-125.5332 -80.6921,-66.11757 -125.3331,-176.89877 -171.7988,-277.80079 l -161.959,200.30082 c -61.9998,-19.99996 -80.9166,-33.95844 -56.25,-40.62504 l 205.709,-184.67578 c -4.035,-9.17299 -8.558,-18.70146 -12.5,-28.125 l -221.334,194.05078 c -61.9998,-25.99995 -82.2499,-43.54168 -56.25,-46.875 l 268.209,-169.05078 c -3.87,-9.61729 -8.723,-18.2571 -12.5,-28.125 l -271.6777,165.86523 c -68,-39.33325 -86.9167,-58.70835 -56.25,-59.375 L 480.70386,612.5 c -2.524,-7.01009 -3.77,-14.74595 -6.25,-21.875 l -323.0078,131.89257 c -51.3904,-33.28373 -68.510297,-64.55082 -37.8438,-66.55078 L 461.95386,556.25 c -2.095,-6.36559 -4.189,-12.29443 -6.25,-18.75 l -329.0781,84.49414 C 47.959163,577.99422 28.584163,557.03578 67.250763,556.36914 L 443.20386,500 c -1.296,-4.3131 -1.843,-8.14892 -3.125,-12.5 L 82.592563,526.45117 c -83.33320004,-52.66657 -102.5,-78.79166 -62.5,-78.125 L 471.32886,443.75 c -5.576,-6.35279 -9.223,-15.38988 -12.5,-25 -2.9805,-13.46233 -9.3239,-31.50165 -9.375,-56.25 -57.9999,-15.99997 -94.0418,-59.70849 -109.375,-134.375 75.3331,-12.66665 130.2916,2.66679 165.625,50 -65.9998,-81.33317 -135.8335,-138.33343 -212.5,-175 -77.3331,-36.666595 -112.25,-62.541695 -106.25,-71.875 159.9996,30.666595 281.1668,113.54194 362.5,246.875 C 486.12076,166.12522 426.66196,95.166605 371.32886,62.500005 316.66226,29.833398 292.12046,9.333311 299.45386,0 Z M 1324.907,201.55079 c -72.9316,-1.86962 -147.2698,28.46222 -154.2676,72.78125 -10.0109,61.52123 -31.9176,406.43394 -41.6464,673.43358 l 361.4198,2.07231 c -1.8513,-337.92361 -16.8568,-509.77884 -30.2285,-676.9141 -22.6779,-48.98418 -78.5528,-69.9189 -135.2773,-71.37304 z m -915.97264,58.34764 c -14.7852,-0.19524 -17.9806,6.85184 -9.4805,21.35157 11.3333,19.33328 39.5,44.54174 87.5,71.875 -6,50.66656 2.542,73.41662 21.875,68.75 19.3333,-4.66671 32.4167,3.66664 43.75,25 11.3333,21.99995 30.25,38.00002 56.25,50 26,11.3333 59.5416,35.20837 96.875,71.875 22.6667,-11.33331 18.625,-36.12509 -9.375,-78.125 -27.3333,-41.99991 -42.2084,-70.83337 -46.875,-87.5 -4.667,-15.99997 -21.3334,-37.8334 -50,-62.5 -28,-23.99996 -51.875,-31.20832 -71.875,-21.875 -20,9.33328 -35.0833,4.37496 -43.75,-15.625 -8,-19.99997 -26.25,-34.62502 -56.25,-40.625 -7.5,-1.66667 -13.7162,-2.53649 -18.6445,-2.60157 z m 151.6484,98.78907 c 2.6601,-0.54166 6.2461,-0.3125 10.7461,0.6875 18,4 34.875,16.62504 46.875,40.625 -23.3333,9.33328 -43.5833,5.04165 -56.25,-15.625 -9,-15.49999 -9.3516,-24.06252 -1.3711,-25.6875 z m -89.6914,109.75 c -1.6771,0.61459 -2.6875,2.89585 -2.6875,6.5625 32.3046,97.21545 67.9295,182.80516 106.25,259.375 46.2968,92.50779 94.1942,202.12117 177.3535,264.60542 106.0804,79.70678 135.2337,121.60748 425.87894,134.07618 h 262.5 c 290.5723,-12.4687 478.7085,-69.0003 565.625,-168.74998 99.9997,-113.99971 115.6206,-136.90798 188.2871,-351.57419 0,-3.6667 -1.4583,-5.91671 -3.125,-6.25 -1.6667,-0.33301 -2.9168,0.125 -6.25,3.125 -71.7826,151.13077 -114.062,229.10505 -212.3106,291.29491 -96.8647,61.31388 -298.1439,107.15426 -663.4765,107.15426 -365.33254,0 -475.73254,-32.26518 -565.73244,-104.9316 -90.6665,-73.33318 -179.6252,-217.91709 -265.625,-431.25 -2.6665,-3 -5.0104,-4.05209 -6.6875,-3.4375 z" />
</svg>
