<?xml version="1.0" encoding="UTF-8" standalone="no"?>
<svg
   width="19"
   height="8.1000004"
   version="1.1"
   id="svg770"
   sodipodi:docname="US9P34VARB.svg"
   inkscape:version="1.2.1 (9c6d41e410, 2022-07-14)"
   xmlns:inkscape="http://www.inkscape.org/namespaces/inkscape"
   xmlns:sodipodi="http://sodipodi.sourceforge.net/DTD/sodipodi-0.dtd"
   xmlns="http://www.w3.org/2000/svg"
   xmlns:svg="http://www.w3.org/2000/svg">
  <defs
     id="defs774" />
  <sodipodi:namedview
     id="namedview772"
     pagecolor="#ffffff"
     bordercolor="#000000"
     borderopacity="0.25"
     inkscape:showpageshadow="2"
     inkscape:pageopacity="0.0"
     inkscape:pagecheckerboard="0"
     inkscape:deskcolor="#d1d1d1"
     showgrid="false"
     inkscape:zoom="41.361353"
     inkscape:cx="8.0389054"
     inkscape:cy="6.9630218"
     inkscape:window-width="1920"
     inkscape:window-height="1137"
     inkscape:window-x="-8"
     inkscape:window-y="-8"
     inkscape:window-maximized="1"
     inkscape:current-layer="svg770" />
  <path
     id="path768"
     style="fill:#000000;stroke:none;stroke-width:0.843966"
     d="M -7.3965909e-4,0.07649327 C 0.12029938,1.6277191 1.1725308,3.1835194 1.698479,3.66829 2.6286588,4.5266866 3.6610507,5.34606 4.667229,6.07454 v 1.9687498 h 9.517578 V 6.0511026 h 0.01563 c 0,0 1.430536,-1.0225279 2.408203,-1.671875 1.089224,-0.7165507 2.421287,-2.7688167 2.346917,-4.30421365 l -1.198484,0.0034324 c 0.168604,0.7296754 -1.897118,3.05694885 -2.701172,3.32617185 -0.661363,0.2380937 -1.591797,0.6230468 -1.591797,0.6230468 0,1e-7 -2.326763,0.025915 -2.376953,0.025391 L 11.056641,1.6674819 H 7.8867188 l 0.03051,2.3855738 c 0.00811,0.059032 -2.5039058,-0.013672 -2.5039058,-0.013672 0,0 -1.3758497,-0.5610576 -2.0175781,-0.9882812 C 2.8174401,2.7766194 1.1727502,1.1652278 1.2473072,0.07844637 Z m 0.47656249909,0.40625 h 0.41015625 c 0,1.45742283 1.91917771,2.75082673 2.49609371,3.07031243 0.8327505,0.461162 1.7480469,1.0390625 1.7480469,1.0390625 h 8.4746093 c 0,0 0.978416,-0.4997623 1.859375,-0.8613282 0.965206,-0.3961427 2.639144,-2.5149084 2.652344,-3.24804673 0.05831,0.011121 0.388672,0 0.388672,0 0,1.42298183 -1.441804,3.04043213 -2.458985,3.60546863 C 15.228438,4.5424369 14.512021,5.2492034 14.030511,5.38704 13.999181,5.40337 4.7902759,5.451493 4.7902759,5.451493 4.8125971,5.488913 2.7446187,4.0606197 2.0910572,3.38704 1.0148663,2.2778866 0.67844363,1.6207113 0.47582284,0.48274327 Z M 8.3613281,2.1440444 h 2.2207029 l 0.03051,1.95198 H 8.3918384 Z M 5.2082447,6.058915 H 13.643792 V 7.5237588 H 5.2082447 Z"
     sodipodi:nodetypes="ccccccccccccccccccccccsccsccsccsccccccccccc" />
</svg>
