<?xml version="1.0" encoding="UTF-8" standalone="no"?>
<svg
   width="637.12604"
   height="1799.2185"
   version="1.1"
   id="svg2922"
   xmlns="http://www.w3.org/2000/svg"
   xmlns:svg="http://www.w3.org/2000/svg">
  <defs
     id="defs2926">
    <clipPath
       clipPathUnits="userSpaceOnUse"
       id="clipEmfPath1">
      <path
         d="M 0,0 H 58.834646 V 128.25953 H 0 Z"
         id="path3045" />
    </clipPath>
    <pattern
       id="EMFhbasepattern"
       patternUnits="userSpaceOnUse"
       width="6"
       height="6"
       x="0"
       y="0" />
  </defs>
  <path
     style="color:#000000;display:inline;fill:#000000;stroke-width:1.09373;-inkscape-stroke:none"
     d="m 583.58993,0 c 26.61949,0 53.53613,0.76437599 53.53613,0.76437599 0,0 -42.87782,124.36810401 -53.86316,158.64467401 -34.02459,107.48612 -32.00345,222.33133 -41.71882,333.73631 -22.47516,403.93225 19.114,808.32064 1.08493,1212.20924 -2.21003,90.0786 -126.23424,123.5472 -184.94764,63.8249 -49.29359,-45.1972 -27.1942,-117.5147 -34.01752,-175.9764 C 317.87743,1297.138 327.20149,996.49716 258.50339,706.36947 223.54524,568.55568 114.93826,469.55279 21.350358,369.18489 -0.72100824,349.9933 -14.342183,334.45706 25.024434,341.84218 86.722843,340.54322 154.79586,352.19682 209.90866,319.74744 255.67976,259.24933 187.68569,186.94302 163.60906,130.04872 139.87358,89.441511 125.51151,44.665948 111.71558,0 Z m -48.86352,76.561503 h -311.3088 c 37.96865,77.858977 102.06727,162.142277 70.83868,252.781007 -20.7522,50.13801 -72.51998,81.65134 -125.55117,85.17266 81.56861,86.59985 151.02412,188.58903 172.83038,307.68154 68.3977,324.07799 37.61106,610.37719 49.40357,939.09809 0,59.7284 79.13524,79.1772 79.13524,-8.6868 0,-582.1743 -30.67008,-1350.62662 64.6521,-1576.046497 z"
     id="path3061" />
</svg>
