<?xml version="1.0" encoding="UTF-8" standalone="no"?>
<svg
   width="25.469999"
   height="13.1"
   version="1.1"
   id="svg1234"
   sodipodi:docname="US9P38VARB.svg"
   inkscape:version="1.2.1 (9c6d41e410, 2022-07-14)"
   xmlns:inkscape="http://www.inkscape.org/namespaces/inkscape"
   xmlns:sodipodi="http://sodipodi.sourceforge.net/DTD/sodipodi-0.dtd"
   xmlns="http://www.w3.org/2000/svg"
   xmlns:svg="http://www.w3.org/2000/svg">
  <defs
     id="defs1238" />
  <sodipodi:namedview
     id="namedview1236"
     pagecolor="#ffffff"
     bordercolor="#000000"
     borderopacity="0.25"
     inkscape:showpageshadow="2"
     inkscape:pageopacity="0.0"
     inkscape:pagecheckerboard="0"
     inkscape:deskcolor="#d1d1d1"
     showgrid="false"
     inkscape:zoom="43.417543"
     inkscape:cx="11.113019"
     inkscape:cy="6.2417166"
     inkscape:window-width="1920"
     inkscape:window-height="1137"
     inkscape:window-x="-8"
     inkscape:window-y="-8"
     inkscape:window-maximized="1"
     inkscape:current-layer="svg1234" />
  <path
     id="path1232"
     style="fill:#000000;stroke:none"
     d="M 4.4268773,0.01003056 C 4.2271376,0.6555465 3.8208157,0.81448468 3.2022679,1.0881556 2.9783629,1.1872212 2.4285675,1.5524066 2.1944554,1.7229212 1.8886868,1.9456257 1.3224896,2.6246184 1.079221,2.9944055 0.38005133,3.989888 0.11578684,4.4106699 0.06359602,5.7346399 c 0,1.4733273 0.85822555,2.8420934 2.57421878,4.1074219 0.9142818,0.6741672 2.2165575,1.1674532 3.8984375,1.4824212 H 3.391721 v 1.742188 H 19.12219 v -1.742188 h -2.269531 c 1.104209,-0.218079 2.035802,-0.521484 2.794922,-0.912109 l 0.488281,0.365234 c 0.138667,0.797329 0.567779,1.396259 1.287109,1.794922 0.719333,0.398667 1.44388,0.493156 2.171875,0.285156 -0.06933,-0.745329 -0.398952,-1.402613 -0.988281,-1.974609 -0.58933,-0.571997 -1.308874,-0.754874 -2.158203,-0.546875 l -0.308594,-0.205078 c 0.134621,-0.08504 0.265602,-0.1718779 0.386719,-0.2636716 0.467996,-0.3639984 0.839858,-0.7016731 1.117187,-1.0136719 l 0.337891,0.234375 c 0.138667,0.8146635 0.564724,1.4216465 1.275391,1.8203125 0.710663,0.398663 1.428249,0.493156 2.15625,0.285156 -0.052,-0.74533 -0.371605,-1.4026115 -0.960938,-1.9746091 -0.58933,-0.5719976 -1.308874,-0.7548742 -2.158203,-0.546875 l -0.3125,-0.234375 C 22.88225,7.2537076 22.849187,6.3994969 22.751096,5.2815149 22.587377,3.4155369 22.27386,1.9831652 20.616331,1.1545618 19.997981,1.1376228 19.58981,0.82268958 19.389768,0.20924932 18.675086,0.74524764 18.312287,1.3750404 18.301877,2.0979212 c -0.01064,0.7389454 0.333094,1.3462306 1.033204,1.8222656 0.210097,-0.6161298 0.606906,-0.9612203 1.189453,-1.0351563 0.485181,0.2857179 0.746672,1.3635378 0.791015,2.1738281 0.008,0.8575147 -0.245008,1.5519463 -0.841796,2.3125 L 16.02844,4.2268274 V 2.7971399 c 0,-0.1386666 -0.122573,-0.2089844 -0.365234,-0.2089844 -0.242667,0 -0.363282,0.070318 -0.363282,0.2089844 V 3.705343 L 13.532346,2.4572962 c -0.104,-0.1213329 -0.216557,-0.103264 -0.33789,0.052734 -0.104,0.1733329 -0.09594,0.3039587 0.02539,0.390625 l 2.080078,1.4550781 v 2.3398441 l -3.613281,-2.546875 c -0.104,-0.1386663 -0.216561,-0.1306098 -0.33789,0.025391 -0.104,0.1733329 -0.08789,0.3039587 0.05078,0.390625 l 3.90039,2.7558594 v 2.1308594 h -0.46875 -2.988281 -0.910156 l 0.0091,-1.7577937 -3.9142572,-0.074818 0.015032,1.7577937 C 6.0522885,9.2153937 5.4615637,8.9145715 4.5108579,8.5295622 3.0766248,7.8325333 1.7530878,6.9294169 1.6221898,5.642843 1.5335861,4.0664571 2.387722,3.595742 2.6651586,3.1838586 2.8530639,2.9048935 3.0802025,2.8404129 3.2471898,2.8108118 3.8537518,2.8172118 4.2647152,3.1206826 4.4796117,3.720968 5.1786995,3.1647887 5.5230445,2.5239265 5.5128148,1.8010462 5.5023578,1.0621005 5.1402867,0.46588486 4.4268773,0.01003056 Z M 4.5596898,0.87526494 C 4.8205793,1.1447165 4.9548518,1.4647773 4.9600804,1.8342493 4.9655404,2.2197862 4.8406483,2.5349643 4.5870336,2.7795618 4.2931067,2.4463092 3.8364711,2.2788389 3.2178929,2.2795618 2.7948611,2.4194925 2.2862508,2.9575026 2.047971,3.2287805 1.8378112,3.468045 1.2822005,4.0582356 1.1182836,5.080343 c -0.010244,0.2181639 0.00821,0.4581076 0.011719,0.6542969 0,1.3693277 0.9707837,2.4265445 2.9121094,3.171875 1.9413228,0.7453317 3.1640635,1.0064323 3.9438379,1.0250584 l 3.8569431,0.092129 h 2.988281 c 1.301012,0 2.45891,-0.18698 3.480469,-0.5527337 l 0.722656,0.5078125 c -1.602147,0.7573552 -3.997623,1.1367182 -7.191406,1.1367182 -3.8826509,0 -6.7166271,-0.541671 -8.5019532,-1.6249994 C 2.0585009,8.7123204 1.1572531,7.8180808 0.79601787,6.8654993 0.54922587,6.1431981 0.55145857,5.6628961 0.61828357,4.9416712 0.76451127,3.9653625 1.2930955,3.403671 1.5870336,3.0666712 1.8612776,2.7522496 2.5303703,1.8375062 3.3116429,1.5354212 3.9289708,1.4463496 4.2762203,1.2809574 4.5596898,0.87526494 Z M 19.182737,1.2190149 c 0.145675,0.1428302 0.950319,0.4518209 1.425781,0.4648437 1.232746,0.6284205 1.586452,2.2106822 1.662109,3.4121094 0.0041,0.064599 0.05508,0.7334087 0.03083,0.9532216 0,1.2133285 -0.826916,2.2929183 -2.360913,3.4022472 -0.12388,0.089558 -0.257447,0.175487 -0.396479,0.2578125 l -0.660156,-0.46875 c 0.252162,-0.1135446 0.499221,-0.2346816 0.732422,-0.3730469 1.299991,-0.7713301 1.821528,-1.7249375 2.019371,-2.7895749 0.07054,-0.3796017 0.127101,-0.7235115 0.111488,-1.1049563 -0.0596,-1.4561527 -0.640805,-2.5373982 -1.148437,-2.625 -0.619622,0.07141 -1.076159,0.3056886 -1.371094,0.703125 -0.253092,-0.2767896 -0.376413,-0.6012308 -0.371094,-0.9707032 0.005,-0.3475982 0.114038,-0.6343577 0.326172,-0.8613281 z m -3.154297,3.65625 4.107422,2.9121094 C 19.910529,8.0127064 19.58091,8.2478334 19.147581,8.4904993 18.892012,8.6345464 18.63045,8.760945 18.362424,8.8713586 L 16.02844,7.2170618 Z m 0,2.9902344 1.734375,1.2207031 C 17.209196,9.2575317 16.631763,9.3635281 16.02844,9.4006555 Z m 7.007813,1.2460937 c 0.24984,6.771e-4 0.517604,0.1003654 0.804687,0.3007813 0.459333,0.3206655 0.783947,0.7678447 0.974609,1.3398437 -0.589329,0.01733 -1.117942,-0.139418 -1.585937,-0.46875 -0.468001,-0.3293317 -0.675047,-0.6831214 -0.623047,-1.0644531 0.1365,-0.0715 0.279781,-0.1078281 0.429688,-0.1074219 z m -1.845704,1.664062 c 0.249844,6.77e-4 0.517604,0.100368 0.804688,0.300781 0.459329,0.320667 0.783941,0.767848 0.974609,1.339844 -0.58933,0.03467 -1.117941,-0.112073 -1.585937,-0.441406 -0.468,-0.329333 -0.675047,-0.69313 -0.623047,-1.091797 0.136499,-0.0715 0.279784,-0.107828 0.429687,-0.107422 z M 3.9639867,11.79128 H 18.602659 v 0.806641 H 3.9639867 Z"
     sodipodi:nodetypes="cccccsccccccccscscccccscsccsccscccccssscccccccccccccccccccsccscccccscccscsccsscccccccscccccssccccccccccccccsscscssccscsccccc" />
  <g
     id="g1270"
     transform="translate(11.154137,-5.7872855)" />
  <g
     id="g1327"
     transform="translate(-5.6594913,-8.9825393)" />
</svg>
