<?xml version="1.0" encoding="UTF-8" standalone="no"?>
<svg
   width="19.200001"
   height="17.98"
   version="1.1"
   id="svg410"
   sodipodi:docname="US9P61VARA.svg"
   inkscape:version="1.2.1 (9c6d41e410, 2022-07-14)"
   xmlns:inkscape="http://www.inkscape.org/namespaces/inkscape"
   xmlns:sodipodi="http://sodipodi.sourceforge.net/DTD/sodipodi-0.dtd"
   xmlns="http://www.w3.org/2000/svg"
   xmlns:svg="http://www.w3.org/2000/svg">
  <defs
     id="defs414" />
  <sodipodi:namedview
     id="namedview412"
     pagecolor="#ffffff"
     bordercolor="#000000"
     borderopacity="0.25"
     inkscape:showpageshadow="2"
     inkscape:pageopacity="0.0"
     inkscape:pagecheckerboard="0"
     inkscape:deskcolor="#d1d1d1"
     showgrid="false"
     inkscape:zoom="29.511834"
     inkscape:cx="11.961304"
     inkscape:cy="10.436492"
     inkscape:window-width="1920"
     inkscape:window-height="1017"
     inkscape:window-x="1072"
     inkscape:window-y="-8"
     inkscape:window-maximized="1"
     inkscape:current-layer="svg410" />
  <path
     id="path408"
     style="fill:#000000;stroke:none"
     d="m 0.6176099,0 c 1.646666,0.4333329 2.766043,1.1926313 3.359375,2.2792969 0.406667,0.273333 0.667917,0.5233335 0.78125,0.75 0.01333,0.066667 0.156355,0.2034897 0.429688,0.4101562 0.28,0.2066665 0.432314,0.3372921 0.458984,0.390625 0.03333,0.06 0.07753,0.1464325 0.13086,0.2597657 0.06,0.1199998 0.04255,0.2362761 -0.05078,0.3496093 -0.126666,0.1466669 -0.255339,0.2114063 -0.388671,0.1914063 -0.326667,-0.08 -0.617762,-0.1210938 -0.871094,-0.1210938 -0.246667,0 -0.416436,-0.039141 -0.509766,-0.1191406 0.16,0.7866659 0.510782,1.599454 1.050781,2.4394531 0.54,0.8399992 1.159376,1.4295316 1.859375,1.7695313 0.406667,0.1999998 0.719454,0.3368233 0.939454,0.4101562 0,-0.6599993 0.229453,-1.2638807 0.689453,-1.8105468 0.459999,-0.5466662 0.9115629,-0.8358077 1.3515619,-0.8691407 -0.03333,-0.02 -0.101172,-0.067292 -0.201172,-0.140625 -0.09333,-0.073333 -0.227058,0.01 -0.4003899,0.25 L 9.0472999,6.640625 8.7875339,6.720703 C 8.8608649,6.2673703 9.1736529,5.9402342 9.7269848,5.7402344 L 9.5082348,5.0898438 C 9.2149029,4.7498441 8.9947459,4.606823 8.8480789,4.6601562 c -0.24,0.1066666 -0.463255,0.1365105 -0.669922,0.089844 -0.2,-0.046667 -0.321328,-0.029219 -0.361328,0.050781 -0.0333,0.046667 -0.04263,0.1094533 -0.0293,0.1894532 -0.24,-0.1133332 -0.346982,-0.2563544 -0.320312,-0.4296875 -0.113327,-0.033333 -0.143171,-0.101172 -0.08984,-0.2011719 -0.08667,-0.1733331 -0.04753,-0.4419274 0.119141,-0.8085938 0.173331,-0.3666663 0.484973,-0.5868233 0.931639,-0.6601562 0.446667,-0.08 0.9466679,-0.1602345 1.4999999,-0.2402344 0.5466672,-0.086667 1.1865902,0.1757298 1.9199222,0.7890625 0.733332,0.6133327 1.335261,1.074193 1.808594,1.3808594 l 2.220703,0.2988281 c 0.12,0.026667 0.123099,0.073958 0.0098,0.140625 l -0.970703,1.0410156 c -0.03333,0.046667 -0.718595,-0.1579952 -2.058594,-0.6113281 0,0.086667 -0.06474,0.1277605 -0.191406,0.1210938 -0.133334,-0.013333 -0.241459,-0.060625 -0.328125,-0.140625 -0.09333,-0.08 -0.09023,-0.032708 0.0098,0.140625 0.106627,0.1666665 0.178711,0.3127865 0.218711,0.4394531 -0.133333,0.053333 -0.323646,0.080078 -0.570312,0.080078 l 0.01172,0.050781 c 0.339998,0.1400002 0.709374,0.4291414 1.109373,0.869141 0.393333,0.4466663 0.589844,1.0834904 0.589844,1.9101562 0.253333,-0.06 0.663802,-0.2092189 1.230469,-0.4492187 0.566666,-0.2466665 1.042422,-0.6129084 1.478515,-1.0507813 0.2518,-0.2528267 0.481871,-0.5252868 0.708722,-0.7983022 L 16.50118,5.3887595 c -0.04149,-0.078763 -0.07061,-0.2024458 0.0031,-0.2618064 0.05333,-0.08667 0.109922,-0.04552 0.169922,0.00781 l 0.664061,1.4355494 c 0.226667,-0.3066664 0.365379,-0.5515144 0.458985,-0.7109375 0.188216,-0.3205582 0.328299,-0.6870576 0.439453,-0.9589844 0.126666,-0.3266666 0.31388,-0.4429423 0.560547,-0.3496094 0.253333,0.086667 0.31302,0.3130212 0.179687,0.6796876 -0.126666,0.3599996 -0.227965,0.6378337 -0.310547,0.8300781 -0.154669,0.3600576 -0.377949,0.7167739 -0.529297,0.9902343 -0.109722,0.1707899 -0.214895,0.3695649 -0.30664,0.5273438 l 0.228515,0.4160156 c 0.475094,0.025503 0.785452,0.2584637 0.933594,0.6972656 0.148142,0.438802 0.135102,0.8948389 -0.04101,1.3671878 C 18.541296,10.0435 18.205321,9.8622263 17.945735,9.515625 17.689737,9.1611307 17.637109,8.7263816 17.785579,8.2128906 L 17.609798,7.8945312 C 17.53569,8.0166587 17.454238,8.11658 17.36761,8.2402344 16.800944,9.0202336 16.124979,9.5675264 15.338313,9.8808594 14.551647,10.194192 13.71326,10.429844 12.826595,10.589844 h 2.03125 v 0.339844 c 0,0 1.217081,0.0038 1.529296,0 l 2.286483,-0.02752 c 0.359973,-0.0043 0.539062,0.177917 0.539062,0.53125 0,0.353332 -0.193417,0.527178 -0.580078,0.529296 l -5.024763,0.02752 v 0.419922 h 1.058593 v 0.490235 h -0.439453 c -0.273333,0.173332 -0.410156,0.402786 -0.410156,0.689453 l 0.509766,4.390625 H 13.746516 L 13.557063,16.289062 H 7.5277669 l -0.169922,1.691407 h -0.570313 l 0.509766,-4.390625 c 0,-0.286667 -0.136824,-0.516121 -0.410156,-0.689453 h -0.429688 v -0.490235 h 1.109375 v -0.419922 l -4.428945,0.01436 c -0.34,0 -0.509766,-0.177917 -0.509766,-0.53125 0,-0.36 0.184135,-0.535178 0.550781,-0.539062 l 3.198477,-0.03388 v -0.310548 h 2.470703 C 7.9280799,10.376521 7.2110209,10.096677 6.6976879,9.75001 5.6776899,9.0966774 4.8834959,8.2931861 4.3168289,7.3398538 c -0.566666,-0.9533324 -0.959688,-2.036668 -1.179687,-3.25 -0.05333,-0.06 -0.09951,-0.1245491 -0.138565,-0.1936645 -0.0098,-0.017279 -0.491241,-0.017908 -0.542546,0.104897 -0.182459,0.4367366 -0.179898,3.6417747 -0.141608,4.7396405 0.03836,1.099911 0.0015,6.3789892 -0.01709,6.4489852 -0.04056,0.152893 -0.355646,0.245518 -0.368,-0.02071 -0.0023,-0.04883 -0.02403,-2.781974 -0.02019,-5.5602354 0.0038,-2.7782611 0.0333,-5.6016397 0.133456,-5.8309401 0.155924,-0.3569582 0.817492,-0.2638137 0.806768,-0.3512625 -0.01072,-0.087449 -0.0144,-0.1794978 -0.01107,-0.2761644 -0.08,-0.08 -0.221876,-0.064505 -0.421876,0.048828 -0.199999,0.1133331 -0.479844,-0.015339 -0.839843,-0.3886719 L 1.4066729,2.640625 c 0.26,-0.2399998 0.544896,-0.3202343 0.851562,-0.2402344 0.306667,0.08 0.476436,0.1098438 0.509766,0.089844 C 2.3146679,1.8769017 1.4607859,1.2873693 0.2074539,0.72070312 -0.0258791,0.54737 0.0132619,0.46713546 0.3265949,0.48046875 1.5999259,0.92046831 2.5340439,1.4297662 3.1273759,2.0097656 2.8073759,1.4164329 1.9534949,0.82070252 0.5668289,0.22070312 0.3268289,0.05403662 0.3442779,-0.01999998 0.6176089,0 Z m 3.150391,2.5 c -0.08667,0.026667 -0.17,0.029766 -0.25,0.00977 -0.08,-0.013333 -0.114895,0.027761 -0.101563,0.1210938 0.0067,0.093333 -0.06232,0.1685157 -0.208984,0.2285156 -0.08,0.1733331 -0.09745,0.3841929 -0.05078,0.6308594 0.05333,0.2399997 0.207605,0.3892188 0.460937,0.4492187 0.246667,0.06 0.413333,0.1309376 0.5,0.2109375 0.08667,0.08 0.22349,0.1222363 0.410157,0.1289063 0.186666,0.00667 0.392473,0.041562 0.61914,0.1015625 0.08,0 0.09435,-0.01125 0.04102,-0.03125 -0.04667,-0.02 -0.08776,-0.046745 -0.121094,-0.080078 l 0.0098,-0.070312 c 0.04667,0.026667 0.120703,0.064661 0.220703,0.1113281 0.09333,0.04667 0.164267,0.062161 0.210937,0.048828 0.05333,-0.013333 0.08314,-0.066823 0.08984,-0.1601562 0.0067,-0.1 -0.04062,-0.19263 -0.140625,-0.2792969 -0.0467,0.02 -0.06102,0.040547 -0.04102,0.060547 0.01333,0.026667 0.03078,0.042158 0.05078,0.048828 0.0267,0.013333 0.03286,0.036979 0.01953,0.070312 -0.01333,0.033333 -0.04628,0.039531 -0.09961,0.019531 -0.13333,-0.1266665 -0.148828,-0.2285938 -0.04883,-0.3085937 l -0.75,-0.5214844 C 4.4549809,2.9357296 4.1813339,2.6733331 3.7680009,2.5 Z m -1.8125,0.072266 c -0.101667,0.00833 -0.178516,0.04099 -0.228516,0.097656 0.286667,0.3066667 0.524271,0.4198436 0.710938,0.3398437 0.186667,-0.08 0.320391,-0.095495 0.400391,-0.048828 l 0.04883,-0.171875 c -0.06,-0.033333 -0.242162,-0.089922 -0.548828,-0.1699219 -0.153334,-0.04 -0.281146,-0.055208 -0.382813,-0.046875 z m 8.1230471,0.328125 c -0.0626,-0.00219 -0.1233072,0.00143 -0.1816412,0.00977 -0.466666,0.066667 -0.8988279,0.1294532 -1.2988279,0.1894532 -0.406666,0.053333 -0.626823,0.1273699 -0.660156,0.2207031 0.513332,0.02 0.68,0.3358861 0.5,0.9492187 0.02,-0.3933329 -0.08698,-0.6227864 -0.320313,-0.6894531 -0.233332,-0.073333 -0.406198,0.01 -0.519531,0.25 -0.1,0.2266665 -0.123645,0.4138803 -0.07031,0.5605469 0.04667,0.046667 0.04667,0.092005 0,0.1386719 0.04667,0.03333 0.133098,0.044583 0.259765,0.03125 l -0.07031,0.1386719 c 0.059996,-0.1266717 0.199918,-0.1751093 0.419918,-0.1484424 0.219999,0.033333 0.466901,-0.023255 0.740234,-0.1699218 0.193333,-0.013333 0.363099,0.061849 0.5097659,0.2285156 L 9.2367509,4.1992188 c -0.03333,-0.1866666 -0.0097,-0.3800784 0.07031,-0.5800782 0.086669,-0.1999998 0.2769819,-0.3852606 0.5703149,-0.5585937 -0.293333,0.3666663 -0.433252,0.6259637 -0.419922,0.7792969 0.01333,0.1533331 0.03078,0.2572139 0.05078,0.3105468 l 1.1894532,3.609375 c 0.466667,-0.2266664 0.422474,-1.1433349 -0.130859,-2.75 l -0.359374,-1.0800781 0.320313,-0.070312 0.320312,1.0410156 c 0.606667,1.8733315 0.603567,2.953568 -0.0098,3.2402344 l 0.21875,0.5800781 c 0.873367,-0.4333328 0.929956,-1.7748199 0.169956,-4.0214843 l 0.310547,-0.1894532 c 0.07333,0.2399998 0.129922,0.4159637 0.169922,0.5292969 0.2,0.08 0.39961,0.088151 0.59961,0.021484 0.199999,-0.06 0.306978,-0.077448 0.320312,-0.050781 0.02,0.02 -0.06953,0.07349 -0.269531,0.1601563 -0.2,0.08 -0.396511,0.1191406 -0.589844,0.1191406 0.08,0.3466664 0.136592,0.6048178 0.169922,0.7714844 0.113333,0 0.226511,-0.017448 0.339844,-0.050781 -0.21333,-0.2599997 -0.257527,-0.4235674 -0.13086,-0.4902344 0.126667,-0.06 0.224349,-0.039453 0.291016,0.060547 0.193332,0.1066666 0.289062,0.023333 0.289062,-0.25 L 14.787532,5.9394531 15.348079,5.3808594 13.508235,5.109375 C 13.041569,4.7893753 12.440786,4.3273692 11.707454,3.7207031 11.059955,3.1898703 10.516777,2.9157031 10.078548,2.900391 Z M 4.2758139,3.0957035 c 0.09125,0.015 0.160935,0.089609 0.210937,0.2246094 -0.09333,0.013333 -0.165417,0.040078 -0.21875,0.080078 -0.04667,0.046667 -0.183489,0.035417 -0.410156,-0.03125 l -0.07031,0.021484 c 0.126664,-0.1599997 0.257289,-0.2576826 0.390622,-0.2910155 0.035,-0.00833 0.06724,-0.00891 0.09766,-0.00391 z m 3.445312,0.9023434 c 0.02083,0.0025 0.04307,0.00982 0.06641,0.021484 0.1,0.046667 0.129844,0.1269012 0.08984,0.2402344 -0.04667,0.086667 -0.123802,0.1072136 -0.230469,0.060547 -0.1,-0.033333 -0.126745,-0.1073699 -0.08008,-0.2207031 0.04,-0.075 0.0918,-0.1090625 0.154297,-0.1015625 z m -4.292969,0.1914062 c 0.193333,1.0533323 0.568907,2.0378395 1.128907,2.9511719 0.566666,0.9133324 1.343412,1.6695319 2.330078,2.2695312 0.986666,0.6066668 2.266512,0.9132218 3.8398431,0.9199218 1.566666,0 2.906199,-0.226355 4.019531,-0.6796874 1.113333,-0.4533328 1.987761,-1.1343498 2.621094,-2.0410156 0.626666,-0.9066658 1.022787,-1.5969797 1.189453,-2.0703125 0.16,-0.4733328 0.204193,-0.723333 0.13086,-0.75 -0.07333,-0.026667 -0.194662,0.1872922 -0.361328,0.640625 -0.173334,0.4533328 -0.572553,1.104506 -1.199219,1.9511719 C 16.494043,8.2275252 15.651411,8.8705473 14.598079,9.3105469 13.544747,9.7572131 12.259848,9.9692187 10.746517,9.9492188 9.2398509,9.9358858 8.0010989,9.6591401 7.0277669,9.1191406 6.0611009,8.5858079 5.3049019,7.8830981 4.7582349,7.0097656 4.2115689,6.1297665 3.8402399,5.2223949 3.6469069,4.2890625 Z M 10.066829,6.7792969 C 9.6601628,6.8459639 9.2733398,7.089766 8.9066729,7.5097656 c -0.373333,0.4199996 -0.558594,0.9765893 -0.558594,1.6699219 0.113333,0.033333 0.393177,0.093021 0.839844,0.1796875 0.4533319,0.093333 1.0068241,0.1499219 1.6601561,0.1699219 0.659999,0.013333 1.20224,-0.016511 1.628906,-0.089844 0.426666,-0.073333 0.649922,-0.115573 0.669922,-0.128906 0,-0.7933325 -0.139922,-1.3468233 -0.419922,-1.6601563 -0.286666,-0.313333 -0.503723,-0.5210938 -0.65039,-0.6210937 0.146667,0.999999 -0.249454,1.7500005 -1.189453,2.25 z m 8.130859,1.5917969 c -0.0389,-5.17e-5 -0.07965,0.00606 -0.121093,0.017578 -0.136849,0.2330424 -0.133407,0.4881564 0.01172,0.763672 0.145106,0.275556 0.367562,0.4476791 0.667968,0.5175781 0.06109,-0.3722547 0.02013,-0.6951876 -0.125,-0.9707031 -0.120829,-0.2174469 -0.265009,-0.3279011 -0.433594,-0.328125 z m 0.475936,2.7810792 -3.758751,0.02752 0.04871,0.51749 3.66902,-0.01376 c 0.193333,0 0.291015,-0.09149 0.291015,-0.271485 0,-0.17333 -0.08333,-0.259765 -0.249999,-0.259765 z m -3.975936,0.02752 -8.1019781,-0.01284 0.0029,0.544088 h 8.0990781 z m -8.3991371,-0.02567 -3.141136,0.05955 c -0.17333,-1e-6 -0.2567,0.08953 -0.25,0.269531 0.0067,0.17333 0.09,0.261719 0.25,0.261719 l 3.130117,-0.03388 z m 7.0397621,0.836221 h -0.511718 v 0.419922 h 0.511718 z m -0.78125,0 H 8.6566729 v 0.419922 h 3.9003901 z m -4.1894531,0 h -0.529296 v 0.419922 h 0.529296 z m 5.4296881,0.910152 H 7.3070639 c 0.173329,0.186666 0.259765,0.376979 0.259765,0.570312 h 5.9707031 c 0,-0.193333 0.08643,-0.383646 0.259766,-0.570312 z m -0.480469,1.199218 h -2.259765 v 1.310547 h 2.40039 z m -2.529297,0 h -0.460937 v 1.310547 h 0.460937 z m -0.740234,0 H 7.7875319 l -0.140625,1.310547 h 2.4003911 z m 3.460937,1.59961 H 7.5980789 l -0.0098,0.339843 h 5.9394871 z"
     sodipodi:nodetypes="ccccccccscsccsccccccccccccccccsccccccccccccccscccccscccscccscccccscccsssscccccccccccccccccccssccccscsssssssscsccscccccccsccccssccccccccccsccccsssccsssscccccccccccccccsccccccccccccccccccccccccsscccccssccccscccccccsccccccccccccsscccccsccscsscscsccccscccsccccccccccccccccccccccccccccccccccccccccccccccc" />
</svg>
