<?xml version="1.0" encoding="UTF-8" standalone="no"?>
<svg
   width="1792.9562"
   height="798.86328"
   id="svg1329"
   version="1.0"
   xmlns="http://www.w3.org/2000/svg"
   xmlns:svg="http://www.w3.org/2000/svg"
   xmlns:rdf="http://www.w3.org/1999/02/22-rdf-syntax-ns#"
   xmlns:cc="http://creativecommons.org/ns#"
   xmlns:dc="http://purl.org/dc/elements/1.1/">
  <metadata
     id="metadata1336">
    <rdf:RDF>
      <cc:Work
         rdf:about="">
        <dc:format>image/svg+xml</dc:format>
        <dc:type
           rdf:resource="http://purl.org/dc/dcmitype/StillImage" />
      </cc:Work>
    </rdf:RDF>
  </metadata>
  <defs
     id="defs1334" />
  <path
     id="path1331"
     style="fill:#000000;stroke:none"
     d="m 1235.5332,0 v 189.99808 c -28.5762,-20.5039 -58.7538,-42.8808 -82.3457,-59.7071 l -32.9512,46.1973 106.5898,76.0215 c 2.0259,1.4856 6.4147,4.5582 8.7071,6.2226 v 204.8789 c -74.7211,27.8507 -152.2421,51.0411 -197.1485,57.7657 l -5.5449,-297.4278 c 6.791,-63.3822 -5.6519,-101.8866 -37.34371,-115.4687 -14.66125,-4.297 -28.47933,-5.8294 -41.64453,-5.1231 -24.68485,1.3242 -129.69097,-7.2985 -213.01758,-7.0507 -49.99596,0.1486 -92.18866,3.4908 -104.54492,14.0898 -10.96149,104.9132 -27.21951,265.6883 -12.02344,411.7168 -81.59334,-17.4844 -164.73614,-39.225 -249.30664,-64.8906 V 169.70118 H 185.50585 v 197.8887 c -0.49892,11.1591 -0.50977,19.3827 -0.25195,26.0644 -34.54702,-12.6247 -69.25088,-25.6804 -104.269525,-39.6035 -83.1496139,-25.2215 -110.840719,50.8613 -37.34375,93.375 171.342275,100.1054 328.901495,169.2172 524.593745,200.3438 H 0 v 151.0937 h 1789.7851 v -151.0937 h -598.4883 c 89.3216,-26.2849 169.3356,-75.0272 249.3028,-121.9376 36.7508,-21.2194 56.9228,-32.7491 83.5566,-48.5917 3.0135,-1.7936 6.4841,-4.044 9.5586,-5.8946 l 21,14.0254 c 0,0 66.9565,95.9581 96.1934,117.0117 30.2597,21.7902 67.2126,39.301 104.4961,39.9395 10.9212,0.187 32.1894,-19.0176 32.1894,-19.0176 0,0 8.1581,-37.4695 4.3496,-48.7109 -11.9215,-35.1885 -41.7961,-63.7459 -72.5097,-84.6504 -26.1166,-17.7755 -120.7559,-42.9141 -120.7559,-42.9141 l -3.6601,-1.6152 c -3.321,-2.0318 -6.2387,-4.0884 -9.3145,-6.1328 69.0781,-43.7773 143.6341,-94.8247 196.6914,-135.666 15.0283,-47.0276 -17.5948,-112.6002 -69.5937,-117.1563 -49.466,27.048 -150.3145,105.0115 -248.3516,165.832 l -178.916,-127.6074 V 0 Z M 737.11329,161.55468 c 68.38873,-1.0894 194.15543,5.3125 200.60155,5.1934 14.3246,-0.2651 21.11396,27.8944 20.40625,55.4824 l 3.47266,307.0508 c -114.68499,3.2143 -151.13485,11.5071 -271.10938,-2.0743 -6.70423,-85.4157 -8.15931,-337.8129 3.91017,-361.5468 3.50157,-2.5466 19.92249,-3.7424 42.71875,-4.1055 z m -494.86328,64.8906 h 75.96484 v 212.9727 c -22.21108,-7.1633 -44.52434,-14.607 -66.9375,-22.3262 -3.4828,-1.6326 -6.95195,-3.4123 -10.39844,-5.418 z m 1458.67579,14.3575 c 23.7676,5.6583 32.2597,20.944 25.4687,45.8437 -51.6756,40.5195 -119.7638,86.6827 -178.2305,125.4512 -6.0958,-4.547 -12.4578,-9.1984 -19.5703,-14.0586 l -30.0664,-21.4453 z m -415.3926,53.6621 c 37.4339,26.4978 83.3505,58.7428 126.0312,88.8867 -2.8733,1.5754 -5.8564,3.4301 -8.705,4.9492 -9.4226,5.0977 -24.1915,14.676 -37.625,19.6875 -23.1712,11.865 -50.5431,24.1729 -79.7012,36.1387 z M 65.703125,382.92578 c 237.683335,101.865 422.731965,164.113 555.156245,186.75 174.30109,14.7135 313.8063,15.5468 418.50003,2.5312 123.9425,-11.6898 224.1761,-56.3719 328.0527,-114.0214 30.2267,-16.7753 53.7243,-30.6895 81.1719,-48.5547 18.5421,13.1773 35.1467,25.0777 49.5468,35.5332 -19.2623,12.2041 -56.9273,34.312 -99.1972,58.0781 -124.1524,69.7238 -260.4195,126.1006 -402.85547,134.3398 -141.22437,2.0686 -283.07821,-0.983 -422.75,-23.7812 -144.87316,-24.9007 -319.17721,-90.5461 -522.906255,-196.9375 z m 1543.800775,107.957 c 0,0 83.1308,29.6922 100.5547,43.0625 19.6469,15.0763 53.6111,44.5568 38.0429,63.8164 -17.2,21.2791 -57.67,-7.7301 -77.7519,-26.3144 -14.7502,-13.6502 -60.8457,-80.5645 -60.8457,-80.5645 z M 50.9375,695.30078 h 1686.2226 v 61.125 H 50.9375 Z" />
</svg>
