<?xml version="1.0" encoding="UTF-8" standalone="no"?>
<!-- Created with Inkscape (http://www.inkscape.org/) -->

<svg
   width="1800"
   height="890"
   viewBox="0 0 1800 890"
   version="1.1"
   id="svg4771"
   inkscape:version="1.2.2 (732a01da63, 2022-12-09)"
   sodipodi:docname="US9P1VARA.svg"
   xmlns:inkscape="http://www.inkscape.org/namespaces/inkscape"
   xmlns:sodipodi="http://sodipodi.sourceforge.net/DTD/sodipodi-0.dtd"
   xmlns="http://www.w3.org/2000/svg"
   xmlns:svg="http://www.w3.org/2000/svg">
  <sodipodi:namedview
     id="namedview4773"
     pagecolor="#ffffff"
     bordercolor="#000000"
     borderopacity="0.25"
     inkscape:showpageshadow="2"
     inkscape:pageopacity="0.0"
     inkscape:pagecheckerboard="0"
     inkscape:deskcolor="#d1d1d1"
     inkscape:document-units="px"
     showgrid="false"
     inkscape:zoom="0.49555556"
     inkscape:cx="898.99103"
     inkscape:cy="900"
     inkscape:window-width="1920"
     inkscape:window-height="1137"
     inkscape:window-x="-8"
     inkscape:window-y="-8"
     inkscape:window-maximized="1"
     inkscape:current-layer="svg4771" />
  <defs
     id="defs4768" />
  <path
     id="path2447"
     style="display:inline;fill:#000000;stroke:none;stroke-width:49.5643;stroke-dasharray:none"
     d="m 1088.635,2.8362904 c -4.0334,0.513 -7.5284,3.0077 -11.5801,6.5069004 -16.9103,14.6051002 65.9216,103.6336992 65.9216,110.0055992 0,0 5.3106,432.07556 0,438.42976 -5.3106,6.3541 -155.08189,74.0093 -215.89929,83.2612 v -187.6626 c 5.6402,-53.4812 -4.7009,-85.95196 -31.0228,-97.41226 -41.3629,-12.4153 -82.2552,0.9544 -122.6782,40.11036 -49.8235,56.3462 -114.2191,98.3676 -193.1849,126.0633 -42.3031,22.9206 -59.6937,66.8524 -52.1732,131.794 -144.7705,-31.5159 -295.1828,-78.7902 -451.233997,-141.8216 -31.0222,-9.5501 -52.6433,-5.7293 -64.8642,11.4611 -15.0410995,26.7407 -3.7594995,49.1842 33.8432,67.3297 105.287597,59.2115 187.307597,99.7991 246.061897,121.7646 58.7542,21.9656 121.9741,37.7242 189.6589,47.2745 h -124.0892 v 127.4951 H 1192.1765 V 759.94085 H 998.99161 c 40.42289,-10.5052 94.00789,-35.8145 160.75269,-75.9256 105.6524,-61.7102 301.9135,-179.3491 304.5975,-178.8518 2.684,0.4973 91.8935,110.058 91.8935,110.058 4.6233,54.0072 11.5504,101.9743 28.1687,132.2056 16.6181,30.2316 43.0706,58.0955 79.3553,83.5898 36.2849,25.494 110.1044,41.5986 127.2864,26.7587 17.1822,-14.8397 13.2746,-91.3274 -5.934,-131.57 -19.2087,-40.2425 -42.1614,-71.1275 -68.8575,-92.655 -26.6959,-21.5274 -67.7185,-38.2756 -123.0673,-50.2445 L 1260.8296,187.09729 C 1133.7327,35.583691 1106.1142,0.61319038 1088.635,2.8362904 Z m 99.8378,171.2219996 c 0,-7.9439 22.6834,27.4325 36.2974,44.1834 l 165.0928,197.72426 c -48.958,28.3929 -121.9727,73.8174 -201.3902,117.5074 z M 848.06651,417.36355 c 11.8977,-0.224 17.5527,11.3032 16.9652,34.5819 v 206.2841 c -88.3665,11.4602 -182.3728,11.4602 -282.02,0 -2.8202,-46.7962 9.4016,-77.8331 36.6636,-93.1135 74.2653,-26.7407 141.009,-71.6278 200.2333,-134.6593 11.6333,-8.5952 21.0192,-12.959 28.1579,-13.0932 z m 551.39519,33.1484 c 19.7416,4.775 26.7926,17.6681 21.1521,38.6785 -160.7515,97.4126 -262.7495,157.5797 -305.9925,180.5002 -125.02909,56.3464 -217.62599,83.5643 -277.79019,81.6543 h -139.6007 c -102.4674,-5.73 -172.9722,-12.415 -211.5149,-20.0551 -120.3287,-21.0106 -265.0994,-76.4015 -434.311597,-166.1738 l 12.6892,-28.651 c 197.414297,85.9521 351.116697,138.4774 461.104597,157.5778 144.7704,12.4154 260.6333,13.1331 347.5896,2.1503 86.9563,-10.9827 165.21709,-35.5759 234.78209,-73.7769 z m 196.7108,164.0233 c 41.0148,8.6709 74.0362,22.7745 99.0664,42.3113 25.0301,19.5369 45.2593,43.7092 60.6876,72.5185 15.4282,28.8097 18.0901,60.8068 7.9868,95.9898 -35.8063,4.4683 -66.4621,-3.3511 -91.9681,-23.4567 -25.506,-20.1057 -45.7355,-44.2778 -60.6878,-72.5185 -14.9522,-28.2409 -23.3398,-63.6206 -25.1633,-106.1401 z M 399.69911,800.05105 h 748.76349 v 51.5716 H 399.69911 Z"
     sodipodi:nodetypes="ssszcccccccccsccccccczcsssssccsscccsscccccscccccccccscccsscssccccccc" />
</svg>
