<?xml version="1.0" encoding="UTF-8" standalone="no"?>
<svg
   width="1799.9995"
   height="642.61096"
   id="svg1329"
   version="1.0"
   xmlns="http://www.w3.org/2000/svg"
   xmlns:svg="http://www.w3.org/2000/svg"
   xmlns:rdf="http://www.w3.org/1999/02/22-rdf-syntax-ns#"
   xmlns:cc="http://creativecommons.org/ns#"
   xmlns:dc="http://purl.org/dc/elements/1.1/">
  <metadata
     id="metadata1336">
    <rdf:RDF>
      <cc:Work
         rdf:about="">
        <dc:format>image/svg+xml</dc:format>
        <dc:type
           rdf:resource="http://purl.org/dc/dcmitype/StillImage" />
      </cc:Work>
    </rdf:RDF>
  </metadata>
  <defs
     id="defs1334" />
  <path
     id="path1331"
     style="fill:#000000;stroke:none;stroke-width:1.01165"
     d="M 1036.6,0.2127427 C 996.64375,2.3560427 962.62366,24.887343 929.28953,53.480743 868.60392,121.03754 790.16741,171.42244 693.98514,204.62804 c -51.52625,27.48 -72.70481,80.1471 -63.54451,158.0077 -176.33309,-37.7859 -359.53909,-94.4495 -549.612598,-170.0211 -84.1189682,-25.5154 -112.132743,51.4541 -37.778951,94.4632 173.339759,101.2724 332.733689,171.1892 530.707319,202.6786 H 2.3122286 v 152.8545 H 1799.9995 l -2.043,-152.8545 h -57.9014 c -9.684,-28.9594 -27.4734,-57.3666 -43.7205,-73.6137 -42.763,-43.4361 -100.4139,-72.4551 -159.3157,-96.534 79.59,-46.0135 157.543,-91.21 237.2862,-137.3003 15.2034,-47.5756 -17.7995,-113.912397 -70.4048,-118.521597 -60.6693,33.174 -170.0363,101.749397 -285.7921,163.476997 -67.5469,-67.5405 -135.1003,-135.074997 -202.6471,-202.615297 -21.885,-6.5026 -40.5475,21.3037 -22.0982,35.882 62.2231,62.217497 124.4582,124.432797 186.6818,186.650097 -94.0826,48.1758 -189.3064,88.9117 -263.5359,100.0274 V 122.20984 C 1126.43,29.609843 1096.299,-2.9898573 1036.6,0.2127427 Z m -16.3247,78.8122003 c 14.4914,-0.2682 21.3598,13.5366 20.644,41.446197 v 247.3177 c -107.63183,13.7395 -222.11502,13.7396 -343.48821,0 -3.43463,-56.1065 11.43359,-93.3099 44.63923,-111.6297 182.08062,-64.536 235.00745,-176.336297 278.20498,-177.134197 z m 671.6116,39.738997 c 24.045,5.7247 32.6357,21.1882 25.7655,46.378 -91.4733,54.5628 -167.1347,99.2267 -227.3691,134.2971 -13.4683,-13.4671 -26.9347,-26.936 -40.4029,-40.403 z M 65.368695,221.82614 c 240.454255,103.0525 427.657925,166.0256 561.625995,188.9264 176.33307,14.8849 317.46317,15.728 423.37721,2.5607 137.6704,-12.9851 246.7119,-65.6865 362.8045,-133.0009 13.473,13.472 26.9298,26.9628 40.4028,40.4345 -135.9451,80.7225 -287.6531,149.4858 -446.993,158.7032 -142.87074,2.0927 -286.3766,-0.9945 -427.67668,-24.0583 C 432.34745,430.20084 256.01345,363.79084 49.909359,256.15914 Z M 1520.623,355.79714 c 45.5148,18.674 104.7533,50.076 138.6875,84.0088 38.2192,38.2178 60.8867,77.0178 39.747,101.1361 -17.7385,20.2381 -86.0479,-20.1601 -110.8096,-51.1856 -34.8229,-43.6319 -86.1617,-142.1462 -67.6249,-133.9593 z m -50.2883,2.4521 c 18.238,44.8771 37.6155,89.341 61.3177,131.5072 H 1204.08 c 95.5925,-28.1302 180.6454,-81.6175 266.2547,-131.5072 z M 53.843349,537.84154 H 1571.7669 c 44.9061,38.6886 112.8053,69.5519 159.4026,39.2331 8.1708,-8.6381 12.8647,-18.7871 15.0997,-29.7489 l 0.492,52.3531 H 53.843349 Z" />
</svg>
