<?xml version="1.0" encoding="UTF-8" standalone="no"?>
<!-- Created with Inkscape (http://www.inkscape.org/) -->

<svg
   width="3320.7207"
   height="1796.3557"
   viewBox="0 0 3320.7207 1796.3558"
   version="1.1"
   id="svg10448"
   xmlns="http://www.w3.org/2000/svg"
   xmlns:svg="http://www.w3.org/2000/svg">
  <defs
     id="defs10445">
    <clipPath
       clipPathUnits="userSpaceOnUse"
       id="clipEmfPath1">
      <path
         d="M 0,0 H 175.43792 V 100.9788 H 0 Z"
         id="path1413" />
    </clipPath>
    <pattern
       id="EMFhbasepattern"
       patternUnits="userSpaceOnUse"
       width="6"
       height="6"
       x="0"
       y="0" />
  </defs>
  <g
     id="layer1"
     transform="translate(-73.947323,4.1780786)">
    <path
       id="path1429"
       style="color:#000000;fill:#000000;stroke-linecap:square;-inkscape-stroke:none"
       d="m 321.56448,-4.1363741 c -35.62818,1.4830095 -66.41191,36.6606531 -61.01562,72.4218751 4.67147,39.280469 19.09865,69.681459 46.68554,95.533199 14.39772,13.03272 29.79847,25.24047 47.25196,33.94336 -7.88968,40.112 -28.18344,61.78984 -38.18946,101.42383 -8.44075,-0.17226 -16.88152,-0.34531 -25.32226,-0.51758 -4.95056,-45.11415 -10.82216,-90.14317 -20.16211,-134.47656 -12.17505,-45.11203 -44.01764,-83.604687 -83.16602,-108.36914 -15.65612,-9.574613 -33.3993,-16.720637 -51.94726,-17.125 -31.95047,-1.688986 -64.638032,26.284928 -61.548831,59.486328 2.646221,31.131842 28.637241,53.231382 53.941411,67.890622 31.04381,17.38567 64.28443,32.21384 99.56054,38.20899 5.2962,30.97397 9.32431,62.13566 12.85938,93.35547 -10.66209,-0.2176 -58.7593,-2.51448 -69.42139,-2.73208 1.95743,261.59265 1.55086,525.28548 1.88351,786.87076 -9.37038,128.6773 -27.15275,256.5648 -43.98828,384.4316 128.40143,-0.028 298.39815,-0.04 426.79959,-0.061 -11.74109,-49.8204 -23.63654,-99.6803 -35.11914,-149.6309 35.95935,13.036 84.77728,30.5161 140.28516,49.6895 106.3988,36.752 228.47002,76.9173 301.04297,91.9121 12.80259,2.6453 28.41508,5.2145 43.21093,7.8086 H 604.91018 v 35 291.25 H 2739.4942 v -326.25 h -598.3438 c 105.2161,-23.5375 193.9895,-49.3733 249.8692,-67.9375 127.3127,-42.2956 359.2039,-135.8578 498.3164,-189.8418 118.4096,-45.95 367.7022,-184.792 465.6093,-239.76174 v -0.002 c 20.4656,-10.77673 38.4812,-29.28259 39.7227,-47.82227 -1.7392,-28.32162 -20.0112,-40.15893 -41.7383,-48.74023 l -0.9726,-0.38477 -0.9961,-0.32421 c -131.4068,-37.21464 -211.4159,-124.1715 -299.6192,-222.80274 -22.3736,-25.01866 -75.8409,-99.04629 -70.2402,-201.72656 2.7756,-50.88579 16.2354,-70.78268 30.8008,-82.17188 14.5655,-11.38919 36.1457,-15.82943 61.1972,-17.85742 35.9914,-2.91361 99.752,23.50977 99.752,23.50977 l 48.3574,22.88086 7.2735,-243.48828 -47.7637,16.25195 c 0,0 -86.941,29.37601 -185.1719,38.75586 -58.1398,5.55162 -108.8216,40.67373 -145.3828,88.33008 -36.5614,47.65634 -60.032,108.98606 -61.9063,173.78711 -3.7955,131.23292 87.2063,247.19936 113.086,291.56445 30.7985,48.09522 63.6612,88.36281 96.7754,128.04883 -131.2504,55.28937 -269.9601,127.35429 -393.6758,166.75009 -113.5019,36.1432 -331.0368,84.7897 -595.8848,130.2812 V 933.34214 h 127.0723 c -41.9848,-104.95147 -58.4063,-218.46221 -57.834,-331.04492 -3.8182,-59.30952 -40.9833,-126.46066 -106.2637,-131.34766 -11.6521,-1.75019 -23.4428,-1.3904 -35.1797,-1.625 -60.4637,-0.7554 -116.8625,48.24116 -117.9101,109.92188 -5.2431,44.43245 3.6761,95.39483 -27.2168,132.45703 -51.0452,20.98319 -107.9867,4.42787 -160.875,18.08008 -107.8006,13.72158 -225.5056,55.79574 -281.3828,155.90234 -48.5568,88.63083 -31.4066,192.22821 -34.3516,289.04691 v 55.5547 c 0,0 -255.4563,-11.787 -258.7324,-12.1016 -87.35663,-8.7149 -213.16384,-36.9647 -327.4961,-65.8262 1.32204,-55.5031 2.64286,-111.0066 3.96484,-166.50975 -54.20126,-15.28411 -107.60721,-35.75901 -155.22656,-66.14257 -40.42597,-30.11357 -75.26379,-66.95385 -107.40039,-105.83204 1.10823,-121.34902 4.85164,-242.7159 7.0293,-364.00976 1.21688,-49.11064 2.55478,-98.21829 4.01562,-147.32227 -6.34048,-0.1294 -12.681,-0.25927 -19.02148,-0.38867 22.85181,-23.92615 46.02268,-47.54506 69.79883,-70.55664 34.68873,16.77334 73.89664,21.87286 112.03906,23.09961 34.31649,0.39992 73.52824,-8.85769 93.45312,-39.31836 16.86324,-25.70388 15.4444,-65.21245 -11.23046,-84.01367 -15.97203,-12.32332 -36.83834,-15.92918 -56.54493,-15.83984 -52.76291,1.42822 -105.07938,21.42884 -145.55468,55.26367 -16.54143,14.87399 -36.46156,31.32212 -49.58985,47.06054 -27.09778,27.18131 -53.6433,54.90521 -79.86914,82.92774 -5.94789,-0.12139 -11.89584,-0.24189 -17.84375,-0.36328 12.63625,-49.00245 26.37452,-88.79431 31.63086,-117.80469 C 417.11387,132.64844 418.74847,79.541405 390.41995,37.69761 374.92077,14.94304 350.57279,-5.219174 321.56448,-4.1363741 Z m 2.33789,49.7773441 c 14.17916,2.866446 22.88515,16.747713 30.28321,28.125 12.07481,21.118549 4.59132,45.07285 6.46679,69.29492 C 338.62975,126.21085 332.38096,106.66048 317.59768,83.045267 312.94283,61.650956 304.70754,49.487042 323.90237,45.64097 Z M 133.31643,88.660501 c 21.43523,1.486558 39.1931,16.263879 54.00782,30.675779 8.62814,8.81544 16.34986,18.54284 22.78906,29.07031 -24.95961,-8.77129 -49.81434,-19.43863 -71.12695,-35.32031 -6.42469,-6.09949 -25.51843,-21.590822 -5.66993,-24.425779 z m 541.64258,76.599609 c 13.79667,0.23911 31.78218,7.67713 20.81836,23.30078 -20.47338,19.16599 -51.06558,16.99239 -77.02344,14.44141 -12.59289,-2.1137 -37.55581,-3.45604 -40.97656,-9.55274 27.79596,-15.91085 59.34359,-27.22485 91.6211,-27.85351 1.70327,-0.25674 3.58959,-0.3701 5.56054,-0.33594 z m 2480.61329,80.67188 -1.252,41.95898 c -62.8429,-17.63605 -136.4842,-2.68773 -182.8105,32.26367 -32.4551,25.3775 -63.8843,58.92822 -60.2969,122.61914 5.7963,102.90838 51.4993,192.98703 98.6074,254.79102 51.0858,67.02241 111.9259,127.77928 181.4161,176.52148 31.1193,21.47983 67.5001,37.81576 99.3671,49.92969 -110.5359,61.59669 -330.3899,181.54283 -426.5918,218.87503 -140.0533,54.3489 -373.0127,148.1248 -495.0625,188.6718 -124.3738,41.3192 -422.4436,122.7308 -703.0371,122.1426 -185.8182,-0.3895 -535.2868,-32.2191 -689.75387,-64.1347 -63.068,-13.0308 -186.82996,-53.0757 -292.35351,-89.5254 -88.87269,-30.6981 -153.97908,-54.6362 -176.04102,-62.7813 l -15.57812,-75.8183 c 112.90445,32.9552 386.76599,109.4366 556.75002,126.3945 206.113,20.562 574.6915,25.9011 874.8261,-19.627 8.6026,-0.6508 17.1782,-2.3092 25.9708,-3.5781 300.6594,-49.2338 533.8639,-95.9276 675.6445,-144.8906 141.7804,-48.9632 331.8035,-137.24831 485.9785,-208.6758 -28.4469,-32.65656 -58.2482,-67.72146 -80.2188,-94.71093 -26.7023,-32.86453 -57.4252,-73.07545 -69.3281,-93.48047 -32.4534,-55.63462 -106.3604,-158.13675 -103.5801,-254.26953 1.4138,-48.88182 12.6946,-99.13819 40.2207,-135.01758 27.5262,-35.87941 68.455,-64.40634 101.9375,-67.60352 60.7152,-5.79754 117.8021,-10.13092 155.1856,-20.05468 z m -2917.98515,122.51367 171.23514,2.64648 c -3.20865,144.41677 -7.65528,268.6008 -8.96289,433.37695 -1.77328,223.45771 27.63023,430.65421 67.00391,591.69921 -72.11705,0.01 -185.82903,0.017 -257.94608,0.027 16.00999,-137.0738 39.90997,-274.2206 34.0039,-412.73051 -1.67739,-214.22946 -3.66175,-431.68226 -5.33398,-615.01913 z M 1953.3047,525.68199 c 51.9768,1.52311 71.8592,62.02088 69.2715,105.98242 1.3283,82.75566 9.7191,166.42941 36.2871,245.2207 h -50.3086 v -242.875 h -58.4258 v 559.48439 c -186.2911,31.5765 -405.369,37.2854 -578.5547,39.5019 0.1995,-86.9408 -4.9782,-174.2226 5.1778,-260.63473 17.6586,-88.90396 98.0361,-151.40051 183.0019,-171.51172 75.3497,-22.01275 154.4335,-21.53184 232.1016,-25.43554 58.4888,-10.15578 84.6363,-76.54445 80.9551,-129.98828 -2.2737,-47.85772 11.8295,-120.36431 72.9219,-119.49414 l 5.6699,-0.22852 z M 469.44925,889.37534 c 22.4348,24.03604 46.29611,46.66766 72.4375,66.71094 42.43125,29.71731 90.84172,49.76532 139.57422,66.62502 -0.92882,39.0232 -1.85803,78.0469 -2.78711,117.0703 -105.23705,-27.4985 -179.75173,-49.3959 -203.13477,-56.334 -0.97601,-6.896 -2.08681,-13.7701 -2.98047,-20.6797 -2.19465,-57.782 -3.01535,-115.58365 -3.10937,-173.39256 z M 674.91018,1535.93 H 2669.4942 v 186.25 H 674.91018 Z" />
  </g>
</svg>
