<?xml version="1.0" encoding="UTF-8" standalone="no"?>
<svg
   width="1798.2937"
   height="1616.4867"
   version="1.1"
   id="svg312"
   xmlns="http://www.w3.org/2000/svg"
   xmlns:svg="http://www.w3.org/2000/svg">
  <defs
     id="defs316" />
  <path
     id="path310"
     style="fill:#000000;stroke:none;stroke-width:92.6784"
     d="M 0.24042382,1.3397168 V 120.65417 L 66.112075,119.31445 c 5.681612,8.52245 34.090105,44.38782 85.224615,107.59571 23.00675,28.43891 42.97837,47.84731 60.23437,59.17773 C 70.939938,365.42701 -2.4664875,430.70918 0.06324693,481.51758 1.3685859,507.73464 28.72731,485.21411 38.053491,482.94205 L 839.43641,1534.1984 v 73.1353 c 35.23901,12.1757 67.34892,12.2321 104.98832,0 v -73.1353 L 1770.2183,485.40286 c 5.6108,-0.0152 26.8665,16.66823 26.8665,-2.54556 0,-56.81613 -102.4795,-132.72845 -267.2462,-225.05457 C 1365.072,165.47656 1235.1033,119.31445 1139.9362,119.31445 h 658.3575 V 0 Z M 44.982612,39.691279 1751.4206,38.351562 V 80.962891 L 44.982612,82.302608 Z M 119.3777,119.31445 h 29.82813 c 79.54251,72.44051 112.92229,115.05232 100.13867,127.83594 -12.78368,11.36322 -56.1059,-30.53818 -129.9668,-125.70508 z m 89.48438,0 h 428.25195 c -68.65191,0 -181.75953,40.41301 -338.15039,120.17578 -3.43191,-25.44652 -33.23677,-65.37878 -90.10156,-120.17578 z m 679.66406,31.95899 c 214.48066,0 387.76966,34.09025 519.86716,102.26953 132.0973,68.17928 218.2423,107.87 218.2423,116.39245 v 8.52149 C 1376.6447,260.56351 1117.2108,200.27734 888.52614,200.27734 c -178.25609,0 -363.01728,35.98771 -554.21875,107.61914 l -21.60742,-23.38281 c 19.04065,-9.86686 37.27794,-19.37956 60.21875,-30.9707 C 507.85689,185.36369 679.72701,151.27344 888.52614,151.27344 Z M 839.43641,253.54297 V 1456.621 L 85.920678,461.17642 C 181.91904,419.63372 248.0061,391.64357 331.44411,363.85742 L 447.49098,487.9082 v 187.49414 c 0,8.5224 6.39217,12.78321 19.17579,12.78321 12.78361,0 19.17382,-4.26081 19.17382,-12.78321 V 530.52148 l 127.83789,136.35743 c 4.26123,9.94277 12.07233,9.58854 23.43555,-1.06446 11.36316,-10.653 13.49452,-19.53081 6.39258,-26.63281 L 485.84059,470.86328 V 317.46094 c 134.93818,-39.77122 248.48603,-61.07713 353.59582,-63.91797 z m 38.43543,0 h 29.83008 V 1577.2902 c -10.09571,7.458 -20.51779,7.7255 -29.83008,0 z m 66.55289,0 c 204.60857,7.00713 460.40057,74.1125 777.00837,211.09427 L 944.42473,1456.621 Z m -669.02164,50.41015 18.35352,19.61915 c -40.7992,16.28525 -81.86109,34.02904 -123.24414,53.54492 v -8.52149 c 0,-6.08991 35.98917,-28.091 104.89062,-64.64258 z m 172.08789,24.16016 v 102.26953 l -74.06054,-80.14843 c 25.13906,-7.86962 50.12219,-15.56654 74.06054,-22.1211 z" />
</svg>
