<?xml version="1.0" encoding="UTF-8" standalone="no"?>
<svg
   width="1792.9563"
   height="1536.5293"
   id="svg1329"
   version="1.0"
   sodipodi:docname="US9P2AVARA.svg"
   inkscape:version="1.2.1 (9c6d41e410, 2022-07-14)"
   xmlns:inkscape="http://www.inkscape.org/namespaces/inkscape"
   xmlns:sodipodi="http://sodipodi.sourceforge.net/DTD/sodipodi-0.dtd"
   xmlns="http://www.w3.org/2000/svg"
   xmlns:svg="http://www.w3.org/2000/svg"
   xmlns:rdf="http://www.w3.org/1999/02/22-rdf-syntax-ns#"
   xmlns:cc="http://creativecommons.org/ns#"
   xmlns:dc="http://purl.org/dc/elements/1.1/">
  <sodipodi:namedview
     id="namedview1837"
     pagecolor="#ffffff"
     bordercolor="#000000"
     borderopacity="0.25"
     inkscape:showpageshadow="2"
     inkscape:pageopacity="0.0"
     inkscape:pagecheckerboard="0"
     inkscape:deskcolor="#d1d1d1"
     showgrid="false"
     inkscape:zoom="0.31723122"
     inkscape:cx="408.2196"
     inkscape:cy="709.26185"
     inkscape:window-width="1920"
     inkscape:window-height="1017"
     inkscape:window-x="1072"
     inkscape:window-y="-8"
     inkscape:window-maximized="1"
     inkscape:current-layer="svg1329" />
  <metadata
     id="metadata1336">
    <rdf:RDF>
      <cc:Work
         rdf:about="">
        <dc:format>image/svg+xml</dc:format>
        <dc:type
           rdf:resource="http://purl.org/dc/dcmitype/StillImage" />
      </cc:Work>
    </rdf:RDF>
  </metadata>
  <defs
     id="defs1334" />
  <path
     id="path1331"
     style="fill:#000000;stroke:none"
     d="m 755.09375,0 c -24.39267,0 -36.58984,14.00489 -36.58984,42.01172 v 59.62695 c -59.62752,0 -118.12725,0.452 -175.49609,1.35547 -57.36895,0.90335 -105.93008,1.80748 -145.68164,2.71094 -80.40679,7.22759 -118.80325,22.13448 -115.18946,44.7207 1.8069,14.45519 23.48832,18.51951 65.04688,12.19531 -20.77928,37.94476 -37.71837,86.27987 -50.81836,145.00391 -13.09999,58.72414 -13.09999,117.44979 0,176.17383 13.09999,58.72404 30.03908,106.60707 50.81836,143.64843 -41.55856,-6.32409 -63.23998,-1.80585 -65.04688,13.55274 -3.61379,21.68278 34.78267,35.68567 115.18946,42.00976 115.6411,5.4207 205.98722,9.93894 271.03515,13.55274 h -1.35547 c 16.64542,0.4472 52.19922,3.2207 52.19922,3.2207 l -6.92773,567.1777 c -36.2861,-1.5483 -67.23683,-3.9202 -88.01172,-7.1816 -82.43592,-12.9415 -164.73623,-39.2251 -249.30664,-64.8907 V 907.36723 H 185.50586 v 197.88857 c -0.49892,11.1591 -0.50977,19.3828 -0.25195,26.0645 -34.54699,-12.6247 -69.25093,-25.6804 -104.269535,-39.6035 -83.1495309,-25.2215 -110.840646,50.8613 -37.34375,93.375 171.342105,100.1053 328.901695,169.2171 524.593755,200.3437 H 0 v 151.0938 h 1789.7852 v -151.0938 h -598.4883 c 89.3215,-26.2849 169.3356,-75.0271 249.3028,-121.9375 36.7507,-21.2194 56.9228,-32.7492 83.5566,-48.5918 3.0135,-1.7936 6.4841,-4.0439 9.5586,-5.8945 l 21,14.0254 c 0,0 66.9565,95.9581 96.1933,117.0117 30.2597,21.7902 67.2127,39.301 104.4961,39.9395 10.9212,0.1869 32.1895,-19.0176 32.1895,-19.0176 0,0 8.1581,-37.4696 4.3496,-48.711 -11.9215,-35.1884 -41.7962,-63.7459 -72.5098,-84.6504 -26.1165,-17.7754 -120.7558,-42.914 -120.7558,-42.914 l -3.6602,-1.6153 c -3.321,-2.0318 -6.2386,-4.0884 -9.3144,-6.1328 69.078,-43.7772 143.6341,-94.8247 196.6914,-135.666 15.0283,-47.02747 -17.5949,-112.60007 -69.5938,-117.15617 -49.4659,27.0479 -150.3145,105.01157 -248.3515,165.83197 L 1285.5332,962.34963 V 737.66601 h -50 v 189.99802 c -28.5761,-20.5038 -58.7538,-42.8807 -82.3457,-59.707 l -32.9511,46.1973 106.5898,76.0214 c 2.0259,1.4856 6.4146,4.5583 8.707,6.2227 v 204.87887 c -74.721,27.8507 -151.9223,53.715 -197.1484,57.7656 -81.4662,7.2964 -170.49932,10.1787 -247.60355,9.7481 l 4.99805,-543.27733 -0.0312,-30.03516 c 0,0 16.10967,-1.25562 50.14453,-2.98242 92.15141,-0.9035 199.21237,-4.06563 321.17777,-9.48633 78.6,-6.32409 116.0925,-20.32698 112.4785,-42.00976 -1.8069,-15.35859 -24.3923,-22.13502 -67.7578,-20.32813 -33.4277,-37.94476 -56.467,-85.14979 -69.1153,-141.61523 -12.6499,-56.46544 -12.8763,-112.48102 -0.6797,-168.04297 12.1966,-55.56194 35.4618,-102.31696 69.793,-140.26172 43.3654,0.9034 65.9511,-5.87098 67.7578,-20.32617 3.6137,-22.58622 -33.8807,-37.49311 -112.4804,-44.7207 -39.7518,-0.90346 -88.0869,-1.80759 -145.004,-2.71094 -56.91694,-0.90347 -132.35599,-1.35547 -226.3144,-1.35547 V 42.01172 C 795.7481,14.00489 782.19748,0 755.0938,0 Z M 621.09961,151.61133 c 30.1528,-0.11285 62.62161,-0.056 97.4043,0.16992 v 493.2832 L 412.23243,632.86914 C 386.03248,586.79339 365.70519,535.52208 351.25,479.05664 c -14.45518,-56.46544 -14.45518,-112.25489 0,-167.36523 14.45519,-55.11025 34.78248,-106.60759 60.98243,-154.49024 48.78611,-3.38797 118.4088,-5.25129 208.86718,-5.58984 z m 291.95508,0 c 107.90601,0.33855 187.60881,2.20187 239.10551,5.58984 -32.5243,41.55846 -53.9819,91.47375 -64.3711,149.74609 -10.3898,58.27235 -10.1637,116.99809 0.6777,176.17383 10.8414,59.17574 32.0725,109.09299 63.6934,149.74805 l -355.05668,12.19531 -1.35547,-493.2832 c 42.23621,-0.22588 81.33798,-0.28277 117.30664,-0.16992 z m -670.80469,812.5 h 75.96485 V 1177.084 c -22.21106,-7.1633 -44.52436,-14.607 -66.9375,-22.3262 -3.4828,-1.6326 -6.95195,-3.4123 -10.39844,-5.418 z m 1458.6758,14.3574 c 23.7676,5.6583 32.2598,20.9441 25.4688,45.84377 -51.6756,40.5194 -119.7639,86.6827 -178.2305,125.4511 -6.0958,-4.547 -12.4578,-9.1984 -19.5703,-14.0586 l -30.0664,-21.4453 z m -415.3926,53.66207 c 37.4339,26.4978 83.3506,58.7429 126.0313,88.8867 -2.8733,1.5754 -5.8565,3.4302 -8.7051,4.9493 -9.4226,5.0977 -24.1915,14.676 -37.625,19.6875 -23.1712,11.865 -50.5431,24.1728 -79.7012,36.1386 z m -1219.830075,88.461 c 237.683095,101.8649 422.732105,164.113 555.156255,186.75 174.30091,14.7135 313.80634,15.5468 418.50002,2.5312 123.9424,-11.6898 224.1763,-56.372 328.0528,-114.0215 30.2266,-16.7753 53.7243,-30.6895 81.1718,-48.5547 18.5421,13.1773 35.1468,25.0778 49.5469,35.5332 -19.2623,12.2041 -56.9274,34.3121 -99.1973,58.0782 -124.1522,69.7237 -260.4196,126.1006 -402.85547,134.3398 -141.22423,2.0686 -283.07835,-0.9831 -422.75,-23.7812 -144.87302,-24.9007 -319.17741,-90.5462 -522.906255,-196.9375 z m 1543.800775,107.957 c 0,0 83.1309,29.6922 100.5547,43.0625 19.6469,15.0763 53.6112,44.5568 38.043,63.8164 -17.2,21.2791 -57.6701,-7.7302 -77.7519,-26.3144 -14.7502,-13.6502 -60.8458,-80.5645 -60.8458,-80.5645 z M 50.9375,1432.9668 h 1686.2227 v 61.125 H 50.9375 Z" />
</svg>
