<?xml version="1.0" encoding="UTF-8" standalone="no"?>
<svg
   width="1800"
   height="1797.8"
   version="1.1"
   id="svg301"
   xmlns="http://www.w3.org/2000/svg"
   xmlns:svg="http://www.w3.org/2000/svg">
  <defs
     id="defs305" />
  <path
     id="path299"
     style="fill:#000000;stroke:none;stroke-width:100.374"
     d="M 926.62336,1.1640625 866.1732,1.2675781 863.76268,131.59961 802.05313,64.224609 754.58637,101.41992 851.39321,203.70508 c 0,0 -533.92827,-2.05664 -796.596231,-2.05664 h -0.131841 c -71.393304,0 -72.729351,62 -1.288896,62 0.470605,0 0.943786,-0.003 1.420737,-0.008 24.306886,-0.27595 49.064211,-0.36914 71.270991,-0.36914 44.41349,0 78.62457,0.36914 78.62457,0.36914 C 133.25782,351.13834 95.394225,472.0287 95.394224,555 c 0,75.4284 29.767646,162.30833 90.563086,260.36523 H 51.674114 c -0.128558,-4e-4 -0.25753,0 -0.385684,0 -70.929757,0 -73.042464,65.0918 0.385684,65.0918 161.121756,1.64424 380.806276,1.339 558.130956,0.81055 l 235.07086,394.47262 v 522.1934 H 957.29711 V 1272.2969 L 1189.6938,882.3125 c 173.4193,-0.89177 388.7083,-1.85547 554.5594,-1.85547 68.8778,0 70.0994,-67.59381 0,-68.19141 h -143.6518 c -65.3549,-95.0397 -96.8068,-175.638 -96.8068,-251.0664 0,-70.90275 38.0295,-197.60168 115.544,-298.67578 l 118.6688,1.11718 c 3.0437,0.232 5.9591,0.34376 8.7449,0.34376 65.8466,0 59.9743,-62.26074 -8.7449,-62.33594 h -792.576 c 0,0 62.4648,-72.7791 88.3355,-100.22852 L 986.3002,64.224609 930.17522,127.61719 Z M 288.57698,263.64062 H 861.3187 l -10.15375,548.84571 -234.86621,1.10351 z m 645.41769,0 h 577.54903 l -326.9307,548.625 H 949.40434 Z m 624.37233,0 h 11.0078 c -72.9549,90.51415 -109.3004,214.5873 -109.3004,297.5586 0,75.4284 29.7679,154.5181 90.5631,251.0664 H 1231.4342 Z M 249.06595,275.91016 569.60728,813.81055 239.04405,815.36523 C 173.68891,715.79973 139.11433,630.4284 139.11433,555 c 0,-66.67381 36.98392,-179.36161 109.95162,-279.08984 z M 844.87593,880.45703 V 1197.166 L 656.53195,881.10547 c 81.00629,-0.28776 188.34398,-0.64844 188.34398,-0.64844 z m 297.84497,2.10742 -185.42379,311.16015 V 883.55664 c 0,0 105.27219,-0.56026 185.42379,-0.99219 z" />
</svg>
