<?xml version="1.0" encoding="UTF-8" standalone="no"?>
<svg
   width="1800"
   height="1040"
   version="1.1"
   id="svg10623"
   sodipodi:docname="US9P18VARA.svg"
   inkscape:version="1.2.1 (9c6d41e410, 2022-07-14)"
   xmlns:inkscape="http://www.inkscape.org/namespaces/inkscape"
   xmlns:sodipodi="http://sodipodi.sourceforge.net/DTD/sodipodi-0.dtd"
   xmlns="http://www.w3.org/2000/svg"
   xmlns:svg="http://www.w3.org/2000/svg">
  <defs
     id="defs10627" />
  <sodipodi:namedview
     id="namedview10625"
     pagecolor="#ffffff"
     bordercolor="#000000"
     borderopacity="0.25"
     inkscape:showpageshadow="2"
     inkscape:pageopacity="0.0"
     inkscape:pagecheckerboard="0"
     inkscape:deskcolor="#d1d1d1"
     showgrid="false"
     inkscape:zoom="0.49555556"
     inkscape:cx="898.99103"
     inkscape:cy="900"
     inkscape:window-width="1920"
     inkscape:window-height="1137"
     inkscape:window-x="-8"
     inkscape:window-y="-8"
     inkscape:window-maximized="1"
     inkscape:current-layer="svg10623" />
  <path
     id="path1294"
     style="color:#000000;display:inline;fill:#000000;stroke-width:4.17683;-inkscape-stroke:none"
     d="m 1342.0056,4.1768848 c -13.3916,-0.20542 -26.6491,0.97897 -38.795,4.44925 -15.0323,5.2967502 -23.8227,16.7286802 -25.1972,33.8573902 1.9999,15.77381 20.3376,28.99658 33.8301,38.22074 14.7615,10.17768 34.411,22.849295 56.7558,37.894495 44.4211,29.90941 99.2371,69.17943 142.6934,112.61916 39.4542,53.88186 71.7315,79.85666 96.7129,158.4629 -12.4687,14.66231 -38.9355,19.86751 -55.5879,28.69726 -42.4205,15.73406 -78.5006,28.10912 -114.1152,42.33984 -75.5003,30.16837 -194.7357,32.32072 -280.0352,36.1836 -0.169,0.008 0.042,-0.002 -0.1269,0.004 0.042,-0.001 209.9634,-12.28023 -0.1,0.004 -0.047,0.003 0.013,-8e-4 -0.033,0.002 -86.3079,3.90857 -0.4166,0.021 -0.057,0.004 -217.32299,12.70872 -420.25519,21.39526 -632.55863,29.41015 l -231.7265,-249.9629 c 16.10473,-5.48818 32.68883,-12.42415 47.47854,-20.70706 13.59974,-7.61663 25.90976,-15.73696 35.06248,-29.07615 12.30802,-18.27718 9.96429,-39.3807 -5.80274,-56.58789 -33.79773,-26.82713 -79.62251,-22.15506 -120.46484,-16.01562 -40.84247,6.13949 -77.0176,17.38188 -90.72267,22.27928 -70.281101,25.1146 -126.396871,92.01524 -144.496071,166.25783 -16.4596197,67.51745 -18.7269097,141.65926 28.40622,199.66602 54.2606,73.37689 128.331501,125.13818 199.646521,172.40037 l -163.851581,-0.29094 -0.0957,55.45899 74.312521,0.1329 4.62109,209.41798 -74.720711,-0.10942 -0.0978,55.45704 1349.611371,2.4551 0.1035,-55.45707 -122.3066,-0.2247 0.01,-209.47458 144.1152,0.25783 0.098,-55.46482 -216.9356,-4.37308 c 160.5105,-17.6537 246.4669,-66.00698 410.1479,-149.1918 24.4131,-13.77745 66.7112,-33.44554 100.5332,-61.541 16.911,-14.04781 32.6139,-30.36213 41.2344,-51.49415 7.9751,-19.54979 10.0717,-55.22339 -2.7793,-75.60743 C 1722.5662,272.68741 1652.6735,168.3063 1558.4172,84.262825 1520.7307,45.695885 1459.6894,24.287045 1405.55,12.651495 1387.017,8.7239748 1364.3263,4.5196848 1342.007,4.1768848 Z m 23.6289,52.4609302 c 8.9324,1.16554 19.4255,2.84806 29.5586,4.91212 41.2434,9.22457 93.1234,26.79443 129.3398,59.257805 l 0.7403,0.66213 c 86.5942,77.12935 151.2263,178.3847 218.4531,278.20505 12.2846,29.28049 -5.3655,44.80016 -26.9864,63.37503 -26.1901,22.50043 -65.6979,40.97108 -93.2109,56.49805 -126.9972,71.6706 -239.2893,116.0831 -373.2324,135.84765 l -0.5918,0.0897 -0.584,0.11528 c -129.093,25.48549 -264.84348,14.54917 -402.35937,22.8535 -161.05782,3.49832 -371.40833,4.56709 -478.92965,4.82618 -29.39611,0.15217 -69.84594,6.87304 -94.92578,-8.56249 C 199.64866,629.6312 130.97097,577.66776 82.372789,511.62992 l -0.35539,-0.50001 -0.39076,-0.4746 c -33.67035,-41.31723 -33.50118,-95.5416 -18.71093,-156.21095 13.8446,-56.7902 62.071041,-112.89723 112.888651,-131.05665 9.76807,-3.49043 45.36539,-14.53726 81.45899,-19.96288 27.24039,-4.09484 54.62377,-3.04447 70.8164,1.1133 -3.031,2.32855 -6.58531,4.907 -11.05468,7.41016 -20.30926,11.37428 -51.96401,21.97576 -71.47656,26.00586 -29.4133,6.0751 -58.12631,18.53023 -82.75584,33.1289 -24.62969,14.59864 -44.94549,30.54257 -58.04103,48.70899 -9.996381,13.867 -16.882761,32.56688 -21.091791,56.86717 -4.20886,24.30045 -4.54806,53.41405 8.84177,80.48827 18.771321,37.95554 56.232341,74.08237 98.828151,91.72073 21.73324,8.99932 52.66988,14.62982 88.16212,20.00389 32.34725,4.84416 70.04186,13.28909 107.59764,12.6504 227.98349,-3.87717 501.82967,-20.35633 773.41407,-34.6758 83.2322,-4.60365 200.1744,-4.08503 289.1914,-39.65429 29.8381,-11.92267 73.9997,-24.87521 119.875,-41.8906 22.9377,-8.50778 43.8427,-17.34708 60.5429,-29.0352 19.4772,-13.63152 34.2459,-31.41825 26.627,-57.57809 -17.383,-59.68532 -64.09,-124.99571 -109.5781,-182.11718 -42.1781,-52.96502 -105.37,-88.83201 -150.9844,-119.544915 -12.373,-8.33095 -20.4266,-13.68891 -30.543,-20.38869 z M 250.28292,288.1691 472.88252,528.28237 c -28.98188,1.07397 -65.16833,4.35505 -98.0996,1.79882 C 312.57855,458.46479 248.5957,385.6292 187.95483,314.1769 c 18.96561,-11.24152 41.4204,-20.94191 62.32809,-26.0078 z m -94.9902,49.95312 161.02536,185.38864 c -36.33323,-4.69919 -67.633,-9.53283 -106.1172,-20.88669 -28.1118,-11.6407 -61.68173,-44.32338 -73.27927,-67.77343 -11.59691,-24.62339 -3.91722,-60.90407 7.99022,-85.66995 2.12617,-2.94943 5.71751,-6.79298 10.38089,-11.05857 z m 48.53709,431.83005 1051.45699,1.92383 -0.01,209.47072 -1046.82611,-1.9746 z" />
</svg>
