<?xml version="1.0" encoding="UTF-8" standalone="no"?>
<svg
   width="19"
   height="10"
   version="1.1"
   id="svg770"
   sodipodi:docname="US9P34VARA.svg"
   inkscape:version="1.2.1 (9c6d41e410, 2022-07-14)"
   xmlns:inkscape="http://www.inkscape.org/namespaces/inkscape"
   xmlns:sodipodi="http://sodipodi.sourceforge.net/DTD/sodipodi-0.dtd"
   xmlns="http://www.w3.org/2000/svg"
   xmlns:svg="http://www.w3.org/2000/svg">
  <defs
     id="defs774" />
  <sodipodi:namedview
     id="namedview772"
     pagecolor="#ffffff"
     bordercolor="#000000"
     borderopacity="0.25"
     inkscape:showpageshadow="2"
     inkscape:pageopacity="0.0"
     inkscape:pagecheckerboard="0"
     inkscape:deskcolor="#d1d1d1"
     showgrid="false"
     inkscape:zoom="29.259915"
     inkscape:cx="12.764904"
     inkscape:cy="3.3492921"
     inkscape:window-width="1920"
     inkscape:window-height="1137"
     inkscape:window-x="-8"
     inkscape:window-y="-8"
     inkscape:window-maximized="1"
     inkscape:current-layer="svg770" />
  <path
     style="fill:#000000;stroke:none;stroke-width:0.843966"
     d="m 14.054154,9.2067076 c 0.481512,-0.137837 1.199328,-0.8451764 2.017027,-1.2994022 1.017183,-0.5650377 2.45855,-2.1808979 2.45855,-3.6038826 C 18.026519,3.3799053 17.639901,2.708876 17.484965,2.1873726 17.3242,1.6462491 17.041809,1.1312491 17.044345,0.75638783 16.945628,0.642507 16.838489,0.62910824 16.565317,0.62910824 c -0.273173,0 -0.366472,0.0564039 -0.539003,0.27285343 0.244419,0.24530933 0.722522,0.66026543 0.962627,1.29623343 0.188494,0.4992677 0.635007,1.1817102 1.152597,2.1052277 -0.07773,1.0428597 -1.687437,2.8505976 -2.652645,3.2467411 -0.880961,0.3615665 -1.859365,0.8611727 -1.859365,0.8611727 l -8.4747159,2e-6 c 0,0 -0.9163651,-0.5767225 -1.7491172,-1.0378855 C 2.8287777,7.0539668 0.91012559,5.7608487 0.91012559,4.3034228 1.4277149,3.3799053 1.9507244,2.6650337 2.2822267,2.2169323 2.6976596,1.6553795 2.9627017,1.2790757 3.2071189,1.0337663 3.0345892,0.81731695 2.9068177,0.76307146 2.6206412,0.73500264 2.3172038,0.70524082 2.276229,0.92918604 2.2611967,1.02939 2.2367934,1.2526405 2.0448164,1.6772114 1.7862037,2.2061098 1.5418054,2.7059373 1.0179567,3.3799053 0.50036733,4.3034228 0.70298852,5.4413933 1.0384642,6.0985692 2.1146573,7.207725 c 0.6535629,0.6735809 2.7224656,2.1021256 2.7001444,2.0647056 0,0 9.2080223,-0.04939 9.2393523,-0.06572 z M 10.636492,7.915766 10.582745,4.5860157 H 8.361427 L 8.415172,7.915766 Z M 0.04554492,4.4604991 C 0.52247158,3.4584434 0.859595,2.9351632 1.1928148,2.4024551 1.5510628,1.8297354 2.1102329,0.78150031 1.8948799,0.41253811 2.0854807,0.32912473 2.7335108,0.28005956 2.9115741,0.33457131 3.2427827,0.43596651 3.4385036,0.34439554 3.8410731,0.9648839 3.3809937,1.1524734 3.1849747,1.6851183 2.6704187,2.2061098 2.3722041,2.6766599 1.8446619,3.3799053 1.3845826,4.3034228 1.3325791,5.2097796 2.842525,6.5975846 3.4208308,6.8720682 c 0.6417298,0.4272246 2.0175794,0.9874545 2.0175794,0.9874545 0,0 2.5104103,0.071985 2.5023044,0.012953 L 7.8869699,4.1098269 h 3.1702351 l 0.05374,3.762649 c 0.05019,5.248e-4 2.376991,-0.024039 2.376991,-0.024039 0,0 0.929828,-0.3848538 1.591193,-0.6229481 C 15.883185,6.9562654 17.814114,5.0330986 17.64551,4.3034218 17.421225,3.7937612 16.892915,2.9048063 16.675438,2.4096047 16.428173,1.8465738 15.812151,1.1502205 15.366448,0.96263094 c 0.402568,-0.62048816 0.568801,-0.78462209 1.100768,-0.78462209 0.307017,0 0.80318,0.10457955 0.922541,0.35510689 0.01535,0.39185304 0.370135,1.02550386 0.472609,1.65425686 0.08741,0.5363468 0.581092,1.1925327 1.141814,2.1160502 C 19.056,5.4328624 17.721122,7.48296 16.631896,8.1995121 15.654227,8.8488606 14.224585,9.8719456 14.224585,9.8719456 l -9.5939681,0.0219 c 0,0 -1.8180608,-1.4011351 -2.9070938,-2.4049046 C 1.1975737,7.0041696 0.3244578,6.0117282 0.04554492,4.4604991 Z"
     id="path768"
     sodipodi:nodetypes="cscscscscsccscscscscscccccccccscssccccccccccccsccccccssc" />
</svg>
