<?xml version="1.0" encoding="UTF-8" standalone="no"?>
<svg
   width="1799.976"
   height="1794.8719"
   version="1.1"
   id="svg1"
   xml:space="preserve"
   xmlns="http://www.w3.org/2000/svg"
   xmlns:svg="http://www.w3.org/2000/svg"><defs
     id="defs1" /><path
     id="path1"
     style="fill:#000000;stroke:none;stroke-width:98.3739"
     d="M 1092.6365,0.05993393 C 1044.1814,-0.69959527 988.76664,5.2862949 956.02517,45.454465 c 9.18419,15.271475 -31.80268,-9.849831 -23.21289,20.611329 -32.22727,3.556886 -55.18457,79.588966 -32.0918,79.880866 41.25446,-15.27067 60.26504,38.61016 76.57813,66.51367 22.14368,30.86126 23.61979,57.00236 -7.07617,81.76758 -25.10328,49.79636 -13.37673,107.33537 -16.10743,161.10742 -5.44509,21.39075 23.26068,8.63153 35.78907,12.04883 -2.3632,109.41258 -6.50381,218.77715 -10.25391,328.14843 -71.15763,-96.07842 -140.1111,-193.91574 -212.67383,-288.87304 -33.62396,-37.6681 -107.97779,-52.28371 -138.50586,-3.72266 -14.73818,66.24299 21.9965,130.15836 50.40821,187.84766 45.23155,83.56357 74.10243,174.91398 95.34961,267.21875 -30.28987,27.54707 -100.86378,34.2988 -102.64258,76.5625 -0.15688,2.1083 0.041,3.825 0.11133,5.6817 l -58.97852,-0.2656 C 477.6186,840.61103 350.38921,740.92517 231.02908,740.92517 c -31.47961,0 -66.23949,11.14922 -104.27735,33.44727 -38.037847,21.64223 -54.434095,38.03847 -49.187498,49.1875 -46.563572,39.3495 -69.8437501,63.28675 -69.8437501,71.8125 -12.4606748,11.14904 -9.8381329,22.29823 7.8691411,33.44726 7.214075,15.08396 17.051044,27.87204 29.511718,38.36524 -3.934949,29.51202 9.836808,43.94426 41.316407,43.28516 17.707272,-19.01895 30.823852,-16.06785 39.349612,8.8536 -24.92135,64.9266 -22.62542,110.5072 6.88672,136.7402 29.51212,25.5772 43.95731,58.335 46.33398,104.2754 l 10.72266,83.3808 c -5.90242,32.7914 -4.59021,60.9918 3.93554,84.6016 7.21404,16.3956 12.13254,37.0533 14.75586,61.9746 2.62333,36.7263 0.98446,44.2136 -4.91796,72.4141 -6.55826,28.2004 -16.72377,48.5314 -30.4961,60.9922 -13.77231,12.461 -27.54409,18.6914 -41.3164,18.6914 -21.64223,0 -34.758837,10.4921 -39.349615,31.4785 -5.246597,20.3307 -3.936307,39.3493 3.933593,57.0566 -2.6233,4.5907 5.574832,25.9054 24.593752,63.9434 h 74.76367 l 22.62695,-41.3164 c 41.31698,-13.7724 64.27053,-27.2175 68.86133,-40.334 3.93495,-13.1165 5.24717,-37.3823 3.93555,-72.7969 9.18155,7.8699 17.05109,8.1982 23.60937,0.9844 7.21409,-6.5583 6.23034,-27.5444 -2.95117,-62.959 v -125.5371 c 1.31164,-1.3116 5.90159,-9.5078 13.77149,-24.5918 7.21403,-15.084 12.13448,-31.1517 14.75781,-48.2031 2.62331,-17.7073 13.44398,-31.2428 32.46289,-176.836 h 993.57622 c 0,118.0485 25.2494,136.5027 75.748,191.5918 49.8426,55.0895 74.7637,98.3739 74.7637,129.8535 0,32.1354 -4.9185,37.3269 -14.7559,65.5274 -10.4932,27.5447 -39.3496,41.3164 -39.3496,41.3164 0,0 -43.9394,10.8227 -59.0234,32.4648 -15.0835,21.6424 -17.3799,41.9713 -6.8867,60.9903 -3.9349,6.5582 4.2632,29.8402 24.5937,69.8457 h 121.9844 l 16.7226,-43.2832 c 51.1543,-6.5584 76.7325,-38.0384 76.7325,-94.4395 0,-56.4008 7.5411,-87.5525 22.625,-93.4551 15.0841,-6.558 11.4777,-22.8988 -10.8203,-98.9746 v -80.6679 c -38.6937,-43.9403 -58.3662,-22.0588 -59.0254,-70.5899 -0.6559,-47.8752 10.8219,-125.9197 34.4316,-234.1308 66.2382,-45.252 116.0803,-95.09395 149.5273,-149.52742 32.7913,-54.43347 35.0873,-123.95131 6.8868,-208.55274 -28.2005,-84.60141 -95.4224,-138.05155 -201.666,-160.3496 -26.2331,-15.08394 -56.0727,-19.34734 -89.5196,-12.78907 -32.7913,5.90244 -50.4993,19.67419 -53.123,41.31641 -1.3116,23.6097 13.7724,38.69367 45.2519,45.25195 30.8238,7.21408 60.0079,4.59155 87.5528,-7.86914 83.9454,9.83738 137.0672,43.94018 159.3652,102.30859 21.6422,58.36843 24.5933,111.81856 8.8535,160.34961 -15.084,49.18687 -74.7629,99.35738 -179.039,150.51181 l -73.7813,3.9355 -214.8848,-0.9707 c -15.7164,-36.2924 -40.4306,-71.78551 -28.9121,-110.47075 30.2325,-152.51925 37.3617,-308.49005 38.4981,-463.62695 34.4663,-4.80106 96.4789,16.7786 78.1836,-39.16211 -4.4884,-111.41043 -11.8011,-230.27361 -72.8535,-327.17773 -28.5111,-46.109492 -71.2821,-86.156261 -126.5333,-95.1718822 -21.2849,-5.3090652 -43.2464,-7.67794347 -65.1738,-7.27734387 z M 1070.8064,32.681028 c 63.6225,-3.704176 88.0499,93.624802 40.4864,128.867192 -15.4061,22.93969 -80.0231,25.48799 -75.5957,38.81641 32.4321,16.02815 55.2754,107.6978 -2.1953,66.66015 -38.5362,-41.4777 -36.19891,-115.66095 -93.08796,-140.20508 -23.97797,8.73931 -41.45252,-18.14211 -10.37695,-13.43945 19.93608,-9.49891 28.98051,-0.27357 12.04883,-24.890628 -10.12059,-39.040991 60.38518,-41.731622 91.44528,-53.78125 12.3649,-1.492009 24.8271,-2.015054 37.2754,-2.027344 z m 80.0879,11.255859 c 0.3895,-0.05704 0.8853,-1.28e-4 1.502,0.183594 55.9049,8.010852 86.5826,63.124529 114.4922,106.470709 48.9079,87.59711 56.7425,191.00527 57.5879,289.33203 h -46.8789 c 2.0782,-58.52502 -19.8629,-130.58051 -84.2149,-145.86914 -29.0897,-12.07391 -52.3345,-8.28125 -43.3652,25.3789 v 120.49024 c -14.2216,-1.8237 -39.9385,7.84706 -32.5996,-15.53711 V 223.87439 c 48.2686,-31.78159 61.7781,-96.30998 43.0976,-148.736331 2.7636,-3.998199 -15.4625,-30.345567 -9.6211,-31.201172 z m -126.3047,6.583985 c -16.4826,-1.12505 2.456,37.645075 -22.7714,10.046875 -32.6429,-7.179023 -31.83338,30.773885 -16.4278,46.843753 -4.16249,15.1733 22.8409,90.08863 17.2754,35.8125 -11.29546,-41.99671 34.7159,-86.934187 72.875,-55.671878 40.8023,31.936238 -1.8183,76.822918 -38.9199,85.634768 39.9967,-7.83204 86.9739,-44.59172 65.9512,-89.658206 -12.2992,-28.220962 -47.1031,-32.697609 -74.1914,-32.21875 -1.4373,-0.461112 -2.6922,-0.714059 -3.7911,-0.789062 z m -29.58591,12.1875 c 47.88631,9.12591 -21.96539,59.542748 -16.90039,14.841796 2.19379,-7.414012 8.42319,-15.134666 16.90039,-14.841796 z m -0.46875,8.298828 c -29.66517,20.631049 30.86946,16.131834 0,0 z m 25.45316,227.69141 c 47.0045,4.46599 -21.20489,42.78783 -9.8711,74.64453 -10.94919,23.29747 14.6698,76.89928 -25.65824,66.58008 5.8545,-43.84314 -15.28072,-120.89534 35.52934,-141.22461 z m 63.1074,20.63281 c 19.194,1.67662 5.7012,32.50978 9.7227,47.72071 v 100.33203 h 84.6601 V 320.43103 c 59.4202,2.59004 50.4102,85.16133 55.2363,128.51172 -3.9764,144.81707 -11.5874,290.19743 -34.4804,433.42578 -14.3305,50.31335 -25.4579,96.80306 10.164,141.78517 9.2221,18.0249 -29.2715,5.4773 -42.3789,9.1953 -145.4736,-0.4115 -291.02395,0.8247 -436.44921,-0.6211 28.81827,-23.907 102.60968,-23.3973 98.89649,-62.96288 C 801.7236,857.71001 769.12807,745.02538 708.09353,646.26306 c -26.74757,-31.27341 -38.40681,-121.79772 26.54492,-97.56054 43.09106,35.05252 67.39573,87.92038 103.4043,129.82617 45.03325,60.69627 90.06841,121.39356 135.10156,182.08984 H 1020.24 c 4.9922,-150.67272 7.5501,-301.49193 14.0703,-452.06836 4.9423,-31.75055 7.8903,-84.84007 48.7852,-89.21875 z M 204.46658,775.35681 c -7.21407,11.14903 -5.24669,24.92077 5.90234,41.31641 l 5.9043,-3.93359 c -6.55829,-15.08397 -5.9031,-25.90655 1.96679,-32.46485 l 12.78907,21.64258 h 9.83593 c 0,-7.8699 -4.58997,-16.068 -13.77148,-24.59375 h 1.9668 c 15.08394,0 22.62695,11.14922 22.62695,33.44727 -15.08396,15.08366 -29.18428,20.33102 -42.30078,15.74023 -13.11647,-3.93497 -19.67578,-15.41272 -19.67578,-34.43164 0,-11.14899 4.91849,-16.72266 14.75586,-16.72266 z m -29.51172,8.85352 c -3.93495,21.64221 -0.98387,38.69361 8.85351,51.1543 9.18154,12.461 22.62672,16.72401 40.33399,12.78906 0,65.58251 -27.21691,119.03263 -81.65039,160.34961 -9.83736,-26.23303 -21.64174,-39.34961 -35.41407,-39.34961 -12.460666,0 -23.609885,5.57364 -33.447262,16.72265 -7.8699,-3.93495 -11.149538,-9.50859 -9.83789,-16.72265 9.18155,-9.18151 18.691923,-13.77344 28.529297,-13.77344 v -22.625 c -6.55825,0 -19.674859,4.58996 -39.34961,13.77149 l -13.773437,-22.625 17.707031,-20.65821 v -7.87109 l -28.527344,7.87109 56.072266,-53.12305 c 1.311651,3.93497 6.230132,5.90235 14.755859,5.90235 -8.525727,16.39564 -8.525727,33.44704 0,51.1543 7.86989,18.36311 9.83729,34.43078 5.90235,48.20312 h 15.74023 c 0.65586,-16.39564 -2.29523,-33.11848 -8.85352,-50.16992 -7.21403,-17.70728 -6.55896,-31.80758 1.9668,-42.30078 7.8699,-11.14902 18.03541,-19.67569 30.49609,-25.57813 v -7.86914 c -15.73981,-3.93495 -30.82379,-4.59013 -45.25195,-1.9668 17.70727,-15.08398 42.9568,-29.51285 75.74805,-43.28515 z m 114.11328,18.69141 c 70.17326,0 160.02214,79.02627 269.54492,237.08016 H 370.71853 c -28.85628,0 -58.04059,15.4125 -87.55273,46.2363 -29.51212,30.8238 -18.68951,75.0921 32.46484,132.8047 -5.90243,135.0999 -9.51065,141.4209 -10.82227,155.1933 -1.31164,13.7723 -6.88527,29.183 -16.72265,46.2344 -9.18121,17.0514 -12.46123,61.2663 -9.83789,182.5938 l -10.82032,14.7558 c -2.62332,31.4798 -5.24775,55.0885 -7.87109,70.8281 -2.6233,15.7398 -19.67469,30.4972 -51.1543,44.2696 h -39.34961 c -7.21404,-3.935 -9.18143,-7.8697 -5.90234,-11.8047 24.26554,-9.8373 24.26554,-15.4133 0,-16.7246 -9.83737,0 -14.75586,9.5103 -14.75586,28.5293 H 137.574 c -7.86989,-40.0055 8.19779,-60.0078 48.20312,-60.0078 v -9.8379 c 19.01892,-11.1491 33.77438,-33.7762 44.26758,-67.8789 11.14898,-33.4472 16.72266,-51.7551 16.72266,-104.877 -2.62331,-22.2981 -7.21321,-43.6129 -13.77149,-63.9434 -11.14899,-24.9213 -11.80417,-51.8096 -1.96679,-80.666 l -5.90235,-87.3144 c -9.83737,-61.6476 -24.59479,-100.9975 -44.26953,-118.0488 -20.33058,-16.3957 -20.98572,-47.8759 -1.9668,-94.4395 59.02426,-47.87524 88.53711,-109.85013 88.53711,-185.92582 14.42818,-3.93495 21.96885,-13.11676 22.625,-27.54493 0.65585,-14.42814 0.32724,-24.26515 -0.98437,-29.51171 z m 81.65039,276.42976 H 1562.0271 c -13.7722,102.9646 -18.3625,182.9763 -13.7714,240.0332 3.9349,57.0566 25.9048,39.4384 65.9101,83.3789 v 74.7636 c 21.6422,55.0893 27.2179,60.9377 16.7246,67.4961 -11.1488,5.9024 -16.7246,14.1005 -16.7246,24.5938 -1.9675,55.745 -4.263,92.4705 -6.8867,110.1777 -2.6232,17.7074 -18.3626,31.4811 -47.2188,41.3184 h -73.7812 c -9.8372,-4.5911 -11.4767,-8.854 -4.918,-12.7891 30.8238,-16.3956 32.4626,-25.9057 4.918,-28.5293 -11.149,0 -19.0182,13.7737 -23.6094,41.3184 h -13.7715 c 0,-42.6287 19.3474,-64.6008 58.0411,-65.9121 22.9539,-12.4607 36.7253,-33.4469 41.3164,-62.959 5.2462,-29.5123 7.8691,-35.3588 7.8691,-67.4942 0,-50.4985 -23.6087,-102.6382 -70.8281,-156.416 -47.8752,-53.7775 -71.8125,-77.8033 -71.8125,-208.3125 H 370.71853 c -49.18687,0 -68.20565,-13.4452 -57.05664,-40.334 11.14903,-26.8887 30.16782,-40.3339 57.05664,-40.3339 z m 1100.80467,570.9316 c -24.9212,15.7398 -37.3808,39.3505 -37.3808,70.8301 h -12.7891 c 0,-47.2195 16.7229,-70.8301 50.1699,-70.8301 z m -1330.01561,16.7246 c -16.39567,16.3957 -22.29782,38.3654 -17.70703,65.9102 H 111.0115 c -5.24661,-43.9404 4.9189,-65.9102 30.49609,-65.9102 z" /></svg>
