<?xml version="1.0" encoding="UTF-8" standalone="no"?>
<svg
   width="1799.1416"
   height="1794.54"
   version="1.1"
   id="svg1"
   xml:space="preserve"
   xmlns="http://www.w3.org/2000/svg"
   xmlns:svg="http://www.w3.org/2000/svg"><defs
     id="defs1" /><path
     id="path1"
     style="fill:#000000;stroke:none;stroke-width:98.3284"
     d="m 1058.0392,0 c -3.588,0 -7.0693,2.112259 -10.446,6.3334305 -5.066,50.6540175 -11.3982,87.1662235 -18.9964,109.5385195 -7.5983,22.37232 -16.0414,39.04538 -25.3279,50.02066 -10.97527,1.68938 -19.20513,3.5895 -24.69277,5.69833 -5.48763,2.10884 -12.2427,4.00698 -20.26269,5.69639 -8.02057,1.68881 -17.51641,6.75518 -28.49166,15.1975 l -135.5015,26.59418 v 8.86406 l 21.52898,35.45825 c 25.32702,5.90941 75.13795,17.72945 149.43075,35.45824 22.32513,8.94509 80.58169,33.47478 24.81162,138.32242 -7.61802,14.32086 -22.28097,132.67863 -22.28097,132.67863 l 0.002,-0.002 C 959.37031,634.86495 953.46331,725.5445 950.08451,811.6567 L 771.52695,571.04876 c -32.92523,-26.17112 -63.10637,-31.44885 -90.54409,-15.83065 -27.43776,15.61879 -42.63391,32.5046 -45.58861,50.65575 -2.95481,18.15114 12.66328,58.88589 46.85491,122.20343 34.19165,63.31811 63.10641,143.94271 86.74519,241.87429 l -96.24242,41.78982 3.56901,28.5462 -63.88562,-0.2883 C 477.39787,840.7206 350.22661,741.08118 230.92168,741.08118 c -31.46505,0 -66.20761,11.14443 -104.22788,33.43217 -38.020265,21.63221 -54.409585,38.01962 -49.165416,49.16347 -46.542037,39.33131 -69.811888,63.25769 -69.811888,71.77952 -12.4549122,11.14387 -9.832463,22.28832 7.866623,33.43217 7.210739,15.07701 17.041997,27.85902 29.49691,38.34734 -3.933129,29.49841 9.833752,43.92335 41.298793,43.26455 17.699088,-19.01024 30.809358,-16.05947 39.331168,8.8504 -24.90983,64.8966 -22.61568,110.4554 6.8828,136.6763 29.49848,25.5653 42.9371,60.3078 40.31498,104.2278 l 16.71511,83.3399 c -5.8997,32.7761 -4.5885,60.9644 3.93331,84.5633 7.21071,16.3881 12.12729,37.0373 14.74943,61.9471 2.62212,36.7092 0.98452,44.192 -4.91517,72.3796 -6.55521,28.1874 -16.71671,48.5084 -30.48268,60.9634 -13.76597,12.4551 -27.53283,18.6827 -41.29879,18.6827 -21.63223,0 -34.742511,10.4877 -39.331165,31.4646 -5.244171,20.3212 -3.93295,39.3331 3.93331,57.0321 -2.622086,4.5886 5.571615,25.8924 24.581735,63.9128 h 74.73097 l 22.6141,-41.2988 c 41.29786,-13.7659 64.24135,-27.2026 68.83002,-40.313 3.93313,-13.1105 5.24434,-37.3653 3.93331,-72.7633 9.17732,7.8662 17.04461,8.1921 23.59987,0.9819 7.21073,-6.5552 6.22777,-27.5308 -2.94949,-62.9292 v -125.4782 c 1.31103,-1.311 5.89935,-9.5048 13.76561,-24.5817 7.21072,-15.077 12.12733,-31.1382 14.74943,-48.1816 2.62212,-17.6991 13.43823,-31.226 32.44836,-176.7516 h 993.11526 c 0,117.9937 25.2375,136.437 75.7129,191.501 49.8196,55.0636 74.7289,98.3283 74.7289,129.7934 0,32.1207 -4.9164,37.3112 -14.7494,65.4987 -10.4883,27.5318 -39.3311,41.2969 -39.3311,41.2969 0,0 -43.9188,10.8158 -58.9958,32.4483 -15.0767,21.6322 -17.3713,41.9532 -6.8828,60.9633 -3.9333,6.5553 4.2606,29.8269 24.5817,69.8139 h 121.9268 l 16.7151,-43.2645 c 51.1307,-6.5552 76.6967,-38.0207 76.6967,-94.3955 0,-56.3748 7.5389,-87.5121 22.616,-93.4118 15.0768,-6.5554 11.4717,-22.8883 -10.8161,-98.9289 v -80.63 c -38.6758,-43.9198 -58.339,-22.0494 -58.9977,-70.5579 -0.6556,-47.8531 10.8173,-125.8603 34.4159,-234.0214 66.2077,-45.2309 116.0264,-95.04979 149.4581,-149.45808 32.7759,-54.4083 35.0701,-123.89344 6.8828,-208.45574 -28.1874,-84.56227 -95.3786,-137.98835 -201.5729,-160.2761 -26.221,-15.07695 -56.0468,-19.33705 -89.4785,-12.7818 -32.7761,5.89968 -50.4744,19.66463 -53.0968,41.29684 -1.311,23.59879 13.7652,38.67686 45.2302,45.23211 30.8096,7.21073 59.9808,4.5883 87.5128,-7.86662 83.9069,9.83284 137.0047,43.9188 159.2923,102.26024 21.6324,58.34143 24.581,111.76749 8.8485,160.2761 -15.077,49.16412 -74.7291,99.3111 -178.957,150.44195 l -73.7471,3.9332 H 1217.234 l -54.402,-57.51908 c 21.1064,-93.71043 32.0809,-232.51022 32.9256,-386.1617 h 55.719 c 0,-144.36444 -2.1079,-242.29565 -6.3314,-293.79438 -4.2212,-51.49814 -37.9896,-107.39405 -101.3076,-152.13868 0.8441,-32.92522 -3.6894,-55.013456 -8.9674,-83.404118 -6.6272,-35.631759 -14.2479,-49.388562 -17.6268,-64.5850075 -9.2865,-7.5953015 -16.8859,-5.9056055 -22.7953,5.0690815 3.3729,12.663507 3.1651,33.768572 -0.6331,63.316762 -3.8006,29.548192 -6.9652,46.430312 -9.4993,50.653802 0.8448,-25.32702 -0.42,-48.753782 -3.7989,-70.281394 C 1077.1399,33.559592 1073.3437,17.3087 1069.1203,6.3334305 1065.3211,2.112259 1061.6271,0 1058.0392,0 Z m -81.83591,185.24551 c 2.84933,-0.13194 5.54032,-0.0394 8.07312,0.27664 10.13057,1.26646 21.10629,4.43097 32.92569,9.49917 h 20.2607 v 6.33148 h -21.527 c -13.5077,-5.91172 -24.90495,-9.50134 -34.19199,-10.76547 -9.28645,-1.26588 -20.26213,1.05717 -32.92564,6.96658 l -2.5326,-5.06713 c 11.39689,-4.43293 21.36971,-6.84542 29.91772,-7.24127 z m 167.63231,8.20171 c 32.4504,14.88302 72.0621,80.2956 76.2856,118.70846 4.2228,38.41286 6.3314,127.26927 6.3314,266.569 h -46.551 V 420.42985 c 0,-30.39231 -3.9858,-45.81399 -25.9356,-46.22176 -21.9506,-0.42236 -36.4207,9.91841 -36.4207,31.02426 v 98.52175 h -47.1588 v -63.06351 c 0.8442,-53.18696 1.9551,-101.63054 -27.8604,-144.36362 42.214,-7.59821 56.9877,-31.65934 44.3243,-72.18278 22.794,-3.37648 41.7886,-11.27937 56.9852,-30.69697 z m -174.87553,2.79948 c 2.29526,-0.0794 4.65627,0.1449 7.08347,0.67212 9.70878,2.11058 19.20715,6.11982 28.49356,12.02981 l 34.1901,1.26434 v 12.66492 l -34.1901,-3.79888 c -20.26167,5.90883 -33.76927,8.44247 -40.52338,7.59777 -6.75411,-0.8447 -14.77512,-1.68788 -24.06157,-2.53259 l -1.26631,-5.06324 11.39668,-13.93121 c 5.69865,-5.69736 11.99176,-8.66491 18.87755,-8.90304 z m 12.7818,7.6348 c 4.22318,5.90956 3.37914,10.97651 -2.53259,15.19751 l 20.26069,-6.33344 z m -26.59417,3.79888 -8.86408,11.39863 h 11.39667 c -3.37879,-2.5341 -4.222,-6.33334 -2.53259,-11.39863 z m 91.1792,207.68429 v 111.18276 h 93.7098 V 419.16356 h 12.6629 c 3.3771,292.95062 -9.7087,498.44582 -39.2571,586.24634 l 31.6593,21.529 H 733.2322 l 87.68225,-39.25723 C 792.21038,861.8901 760.12961,769.44609 724.67203,710.34914 689.21385,651.25278 681.19296,614.95002 700.61045,601.44182 c 19.41738,-13.50762 41.78866,-3e-5 67.11566,40.52343 l 174.75863,235.5428 h 43.05601 c 5.90942,-304.77001 38.80175,-464.0425 60.78615,-462.14338 z m -841.95459,360.1325 c -7.21076,11.14384 -5.24292,24.9088 5.90095,41.29684 l 5.89899,-3.93331 c -6.55525,-15.07698 -5.90058,-25.8931 1.96568,-32.44836 l 12.78375,21.63224 h 9.8323 c 0,-7.86624 -4.58836,-16.05992 -13.76561,-24.58173 h 1.96567 c 15.07697,0 22.61606,11.14445 22.61606,33.43217 -15.07699,15.07669 -29.17023,20.31998 -42.28066,15.73129 -13.1104,-3.93314 -19.66656,-15.40389 -19.66656,-34.41403 0,-11.14381 4.9166,-16.71511 14.74943,-16.71511 z m -29.49886,8.84849 c -3.93311,21.63219 -0.98238,38.67619 8.85044,51.13109 9.17731,12.45524 22.6159,16.71492 40.31498,12.7818 0,65.55217 -27.20545,118.97825 -81.61377,160.27625 -9.83281,-26.22091 -21.63189,-39.33131 -35.39785,-39.33131 -12.454912,0 -23.59935,5.57125 -33.432176,16.71511 -7.86626,-3.93316 -11.143343,-9.50469 -9.832304,-16.71511 9.177304,-9.17723 18.682218,-13.76562 28.515045,-13.76562 v -22.61605 c -6.555219,0 -19.665513,4.58832 -39.331164,13.76561 L 39.181037,923.97138 56.879963,903.32296 v -7.86662 l -28.515045,7.86662 56.046274,-53.09678 c 1.311043,3.93312 6.227644,5.89899 14.74943,5.89899 -8.521786,16.38804 -8.521786,33.43203 0,51.1311 7.866258,18.35462 9.834078,34.41566 5.900948,48.1816 h 15.73129 c 0.65555,-16.38805 -2.29326,-33.10371 -8.84849,-50.14728 -7.2107,-17.69908 -6.55613,-31.79426 1.96568,-42.28261 7.86626,-11.14388 18.02776,-19.66586 30.48268,-25.56555 v -7.86467 c -15.73254,-3.93314 -30.81062,-4.58974 -45.232108,-1.96763 17.699088,-15.07698 42.936758,-29.49852 75.712828,-43.26447 z m 114.06213,18.68274 c 70.14083,0 159.94703,78.99007 269.41915,236.9709 H 370.5474 c -28.84294,0 -58.01429,15.4043 -87.51276,46.2139 -29.49848,30.8095 -18.68235,75.059 32.44835,132.7449 -5.89969,135.0373 -9.50511,141.3534 -10.81612,155.1193 -1.31106,13.766 -6.88227,29.1707 -16.7151,46.2141 -9.17699,17.0435 -12.45444,61.2368 -9.83231,182.5083 l -10.81611,14.7494 c -2.62215,31.4651 -5.2445,55.0634 -7.86663,70.7957 -2.6221,15.7326 -19.66607,30.4823 -51.1311,44.2483 h -39.33116 c -7.21069,-3.933 -9.17658,-7.8668 -5.89899,-11.7999 24.2543,-9.8329 24.2543,-15.4045 0,-16.7151 -9.83282,0 -14.74943,9.505 -14.74943,28.515 h -10.81612 c -7.86626,-39.9868 8.19283,-59.9796 48.17965,-59.9796 v -9.8342 c 19.01013,-11.1437 33.75994,-33.7591 44.24829,-67.8463 11.14384,-33.4316 16.71511,-51.7306 16.71511,-104.8279 -2.62207,-22.2876 -7.21034,-43.5933 -13.76561,-63.9148 -11.14384,-24.9098 -11.79849,-51.7849 -1.96568,-80.628 l -5.89899,-87.2732 c -9.83282,-61.6191 -24.58264,-100.9519 -44.24829,-117.9953 -20.32118,-16.3883 -20.97776,-47.8536 -1.96764,-94.3957 58.99696,-47.85294 88.49659,-109.7992 88.49659,-185.83971 14.42148,-3.93312 21.96019,-13.10975 22.61605,-27.53123 0.65555,-14.42149 0.3272,-24.25472 -0.98382,-29.49886 z m 81.61182,276.302 h 1190.7569 c -13.766,102.917 -18.3546,182.8917 -13.7656,239.9223 3.933,57.0303 25.8916,39.4198 65.8786,83.3398 v 74.729 c 21.6321,55.064 27.2053,60.9089 16.717,67.4644 -11.1438,5.8997 -16.717,14.0932 -16.717,24.5817 -1.9667,55.7192 -4.2604,92.4297 -6.8829,110.1288 -2.6221,17.6989 -18.3548,31.464 -47.1978,41.2969 h -73.7452 c -9.8328,-4.5891 -11.4727,-8.8488 -4.9171,-12.7819 30.8096,-16.388 32.449,-25.8927 4.9171,-28.515 -11.1439,0 -19.0109,13.7648 -23.5998,41.2969 h -13.7656 c 0,-42.6089 19.3381,-64.5677 58.0139,-65.8786 22.9431,-12.455 36.7098,-33.4326 41.2988,-62.931 5.2437,-29.4986 7.8666,-35.3437 7.8666,-67.4644 0,-50.475 -23.6001,-102.588 -70.7977,-156.3408 -47.853,-53.753 -71.7795,-77.7693 -71.7795,-208.2181 H 370.5474 c -49.16412,0 -68.17394,-13.4385 -57.03009,-40.315 11.14387,-26.8764 30.15371,-40.315 57.03009,-40.315 z m 1100.2946,570.6672 c -24.91,15.7325 -37.3655,39.3307 -37.3655,70.7957 h -12.7818 c 0,-47.1975 16.7155,-70.7957 50.1473,-70.7957 z m -1329.39877,16.715 c -16.38806,16.3882 -22.28761,38.3488 -17.69892,65.8806 h -12.78375 c -5.24417,-43.92 4.91732,-65.8806 30.48267,-65.8806 z" /></svg>
