<?xml version="1.0" encoding="UTF-8" standalone="no"?>
<svg
   width="1800"
   height="1310.3439"
   version="1.1"
   id="svg474"
   xmlns="http://www.w3.org/2000/svg"
   xmlns:svg="http://www.w3.org/2000/svg">
  <defs
     id="defs478" />
  <path
     id="path472"
     style="fill:#000000;stroke:none;stroke-width:84.4335"
     d="M 394.23835,0 C 180.52745,0 92.047446,37.06788 128.79667,261.2351 l 0.0321,14.59063 H 16.563668 c 0,0 -16.563668,15.05504 -16.563668,45.39244 0,30.33738 16.563668,45.39243 16.563668,45.39243 H 127.26574 l 30.3048,137.65649 H 84.952368 c 0,0 -19.829253,-1.26045 -19.829253,37.00922 0,38.26967 19.829253,37.00922 19.829253,37.00922 H 157.8747 l 13.53271,377.45203 3.17771,354.60634 H 300.94648 V 1024.6691 H 1527.2497 v 285.6748 h 128.9045 l -1.3671,-354.60634 0.6207,-377.45203 h 54.91 c 0,0 19.7489,-6.35987 19.7489,-37.00922 0,-30.64935 -19.7489,-37.00922 -19.7489,-37.00922 h -54.91 L 1706.607,366.6106 h 72.8065 c 0,0 19.1119,-5.63387 19.1119,-45.39243 0,-39.75857 -19.1119,-45.39244 -19.1119,-45.39244 H 1706.607 V 244.8729 Z M 382.36598,75.65656 1488.055,275.82573 H 215.29793 C 200.59824,152.53375 209.6441,145.14867 242.43573,117.68818 275.22733,89.66727 321.8711,75.65656 382.36598,75.65656 Z M 215.29793,366.6106 H 1620.9524 L 1569.753,504.26709 H 245.18369 Z m 29.88576,211.67493 H 1569.753 l 0.7465,377.45203 H 258.54327 Z" />
</svg>
