<?xml version="1.0" encoding="UTF-8" standalone="no"?>
<svg
   width="1800"
   height="1800"
   version="1.1"
   id="svg1"
   xmlns="http://www.w3.org/2000/svg"
   xmlns:svg="http://www.w3.org/2000/svg">
  <defs
     id="defs1" />
  <path
     id="path1"
     style="fill:#000000;stroke:none;stroke-width:101.237"
     d="M 841.74805,0 V 77.953125 C 761.43324,114.3985 723.94236,193.72901 721.27539,315.85938 c -2.19847,100.67595 53.19629,168.13762 102.42503,193.59064 21.59726,32.39588 33.0701,75.25404 34.41993,128.57226 l -16.3723,631.49332 H 463.20312 l 208.54883,530.4824 h 481.80665 l 207.5371,-530.4824 H 1001.7031 L 988.71605,638.02228 c 0,-53.31822 10.4623,-96.17638 31.38475,-128.57226 49.0551,-32.04844 101.0633,-91.38983 101.0633,-195.61408 0,-122.1595 -41.8457,-201.46283 -125.53519,-237.908206 V 0 Z m 57.70507,54.667969 h 38.47071 V 130.5957 c 68.84117,0 108.66227,61.08074 119.46097,183.24024 -2.0247,77.61513 -15.3506,84.25333 -44.3718,116.64923 -28.34647,33.0708 -58.71744,49.60742 -91.11336,49.60742 -31.72097,0 -62.42877,-16.53662 -92.125,-49.60742 -29.69623,-32.3959 -46.74339,-39.0341 -46.74339,-116.64923 8.77388,-122.1595 47.58061,-183.24024 116.42187,-183.24024 z m 20.42113,585.379701 h 4.05078 l 19.0613,618.33123 H 897.42969 Z M 593.79883,1342.4062 H 1230.5 l -143.7578,384.7012 H 735.53125 Z" />
  <path
     id="path1-1"
     style="fill:#000000;stroke:none;stroke-width:101.237"
     d="m 1557.5332,2.8730469 -34.1757,32.8730471 54.7617,137.994136 -26.8281,46.4668 -49.4375,-120.892577 -34.1758,32.873047 55.7734,136.24023 -27.8398,48.22071 -48.4258,-122.64649 -35.1895,34.62696 55.7754,136.24023 -26.3222,45.5918 -49.9454,-120.01758 -33.6699,31.99609 55.7754,136.24219 -432.27596,825.41306 c 15.25151,-1.2375 57.41436,1.4798 94.26076,-2.2999 l 402.0172,-786.16199 148.5058,-18.30078 9.1211,-46.16797 -129.7871,16.24805 26.3223,-45.5918 148.5058,-18.29883 10.6387,-48.79882 -131.3047,18.87695 27.8399,-48.21875 148.5058,-18.30078 9.627,-47.04688 -130.293,17.125 26.8281,-46.46679 149.5196,-20.05274 9.6269,-47.04687 -131.3047,18.8789 27.8399,-48.2207 -64.002,-36.951172 -27.8398,48.220702 z" />
  <path
     id="path2"
     style="fill:#000000;stroke:none;stroke-width:101.237"
     d="M 243.73437,3.9628906 194.43164,127.11523 166.58984,78.894531 102.58789,115.8457 130.42968,164.06641 0,144.68164 l 11.38086,46.03516 146.88867,21.57031 26.82812,46.46875 -129.417962,-17.63281 11.380859,46.03515 145.876953,19.81836 27.83984,48.22071 -130.42773,-19.38477 12.39257,47.78711 145.875,19.81836 26.32227,45.58984 -128.91016,-16.7539 10.875,45.15625 145.875,19.81836 441.51633,776.35778 c 18.70311,-0.326 59.97797,-1.8855 90.31187,-0.7854 L 386.78125,460.27734 445.18554,322.51758 409.76367,291.5332 358.9414,412.05664 332.61914,366.46484 391.02344,228.70508 354.08203,195.0918 304.77929,318.24414 276.93945,270.02344 335.34375,132.26367 299.41406,100.4043 249.09961,221.80273 222.27148,175.33594 279.66406,35.822266 Z" />
</svg>
