<?xml version="1.0" encoding="UTF-8" standalone="no"?>
<svg
   width="1800"
   height="1128"
   version="1.1"
   id="svg1786"
   xmlns="http://www.w3.org/2000/svg"
   xmlns:svg="http://www.w3.org/2000/svg">
  <defs
     id="defs1790" />
  <path
     style="fill:#000000;stroke:none;stroke-width:100.243"
     d="M 118.38616,322.66584 H 1679.9494 c -134.6522,-102.66667 -264.28,-170.33333 -388.8835,-203 C 1166.4624,86.332505 1036.8346,69.665838 902.18239,69.665838 768.20012,68.332505 638.23733,84.665839 512.29401,118.66584 c -126.61324,33.33333 -257.91586,101.33333 -393.90785,204 z m 1601.75794,535 v -470 H 78.191474 v 468 z m -250.0867,81 V 1126.6658 H 1318.1899 V 938.66584 l -810.92023,-2 V 1126.6658 H 357.27004 V 933.9614 L 3.017471,932.9935 0.81671723,-1.3341618 H 78.191474 V 263.66584 C 231.60116,155.66584 365.24847,85.665839 479.13339,53.665838 606.41655,16.999171 746.76296,-1.3341618 900.17265,-1.3341618 c 153.40965,0 294.09105,17.9999998 422.04415,53.9999998 127.2831,36.666668 259.9256,107.000002 397.9273,211.000002 V -1.3341618 h 77.3747 V 936.68876 l -77.3747,-0.0229 z"
     id="path1784" />
</svg>
