<?xml version="1.0" encoding="UTF-8" standalone="no"?>
<svg
   width="1800"
   height="1800"
   version="1.1"
   id="svg1"
   xml:space="preserve"
   xmlns="http://www.w3.org/2000/svg"
   xmlns:svg="http://www.w3.org/2000/svg"><defs
     id="defs1" /><path
     id="path1"
     style="fill:#000000;stroke:none;stroke-width:98.3403"
     d="M 1116.7402 3.8671875 C 1053.9539 2.6856937 980.21203 27.77775 958.84375 93.007812 C 958.62585 130.91833 939.80691 160.16847 918.55273 191.07422 C 894.90346 226.83791 948.04348 238.69868 944.11719 273.20703 C 964.60327 291.22244 957.66913 338.37336 997.83789 314.16992 C 1041.0932 286.07834 1059.2866 342.82722 1055.4004 377.27539 C 1039.8668 507.52215 1018.3327 637.17058 999.52344 767.05469 C 997.02494 791.73778 994.84693 817.69566 976.12305 782.17578 C 916.48761 709.49177 859.79288 634.00581 798.21094 563.16016 C 755.96708 532.80868 675.39796 552.31628 670.85156 609.85938 C 693.32724 669.73072 724.9825 726.874 747.48438 787.23242 C 772.02665 848.08573 793.80425 910.09861 811.48633 973.30273 C 767.61387 994.34081 712.65696 1001.0165 675.9668 1031.582 C 671.25432 1045.866 676.56825 1050.1978 685.08008 1051.252 L 612.51172 1051.252 C 477.45795 851.94912 350.26856 752.29688 230.94922 752.29688 C 199.48037 752.29688 164.73383 763.44199 126.70898 785.73242 C 88.684136 807.36725 72.294255 823.75712 77.539062 834.90234 C 30.991407 874.2384 7.7167969 898.16859 7.7167969 906.69141 C -4.7396185 917.83662 -2.1152837 928.98173 15.585938 940.12695 C 22.797547 955.20577 32.631476 967.99086 45.087891 978.48047 C 41.154286 1007.9825 54.919832 1022.4056 86.388672 1021.75 C 104.0899 1002.7376 117.20376 1005.6889 125.72656 1030.6016 C 100.81374 1095.5062 103.10734 1141.069 132.60938 1167.293 C 162.11141 1192.8614 175.55209 1227.61 172.92969 1271.5352 L 189.64648 1364.1738 C 183.74609 1396.9539 185.05922 1425.1445 193.58203 1448.7461 C 200.79363 1465.1362 205.70963 1485.7865 208.33203 1510.6992 C 210.95444 1547.4128 209.31446 1539.9615 203.41406 1568.1523 C 196.85804 1596.3431 186.69731 1616.6666 172.92969 1629.123 C 159.16208 1641.5793 145.39457 1647.8086 131.62695 1647.8086 C 109.99212 1647.8086 96.878268 1658.2982 92.289062 1679.2773 C 87.044255 1699.601 88.3574 1718.6132 96.224609 1736.3145 C 93.602205 1740.9036 101.79617 1762.2095 120.80859 1800.2344 L 195.54688 1800.2344 L 218.16602 1758.9316 C 259.46887 1745.1642 282.41468 1731.7254 287.00391 1718.6133 C 290.93749 1705.5013 292.2487 1681.2444 290.9375 1645.8418 C 300.11591 1653.7091 307.985 1654.0357 314.54102 1646.8242 C 321.75263 1640.2681 320.76825 1619.2891 311.58984 1583.8867 L 311.58984 1473.332 C 312.90105 1472.0207 317.49021 1463.8248 325.35742 1448.7461 C 332.56902 1433.6673 337.48502 1417.6042 340.10742 1400.5586 C 342.72983 1382.8574 353.54617 1360.0413 372.55859 1214.498 L 1365.7969 1214.498 C 1365.7969 1332.5062 1391.0383 1360.24 1441.5195 1415.3105 C 1491.3452 1470.381 1516.2598 1513.6504 1516.2598 1545.1191 C 1516.2598 1577.2436 1511.3398 1567.4967 1501.5059 1595.6875 C 1491.0163 1623.2228 1462.1699 1636.9922 1462.1699 1636.9922 C 1462.1699 1636.9922 1418.2449 1647.8085 1403.166 1669.4434 C 1388.0874 1691.0781 1385.7937 1711.4017 1396.2832 1730.4141 C 1392.3496 1736.9701 1400.5435 1760.2428 1420.8672 1800.2344 L 1542.8105 1800.2344 L 1559.5273 1756.9668 C 1610.6642 1750.4108 1636.2344 1718.9403 1636.2344 1662.5586 C 1636.2344 1606.1771 1643.7727 1575.0371 1658.8516 1569.1367 C 1673.9303 1562.5807 1670.3256 1561.1824 1648.0352 1485.1328 L 1648.0352 1404.4922 C 1609.3546 1360.5668 1589.6849 1373.1512 1589.0293 1324.6367 C 1588.3738 1276.778 1599.8476 1198.762 1623.4492 1090.5879 C 1689.665 1045.3514 1739.4903 995.52425 1772.9258 941.10938 C 1805.7058 886.69451 1808.0012 817.20141 1779.8105 732.62891 C 1751.6198 648.0564 1684.4203 594.6244 1578.2129 572.33398 C 1551.9889 557.25516 1522.1582 552.99479 1488.7227 559.55078 C 1455.9425 565.45119 1438.2415 579.21869 1435.6191 600.85352 C 1434.3078 624.45516 1449.3866 639.53383 1480.8555 646.08984 C 1511.6687 653.30146 1540.8435 650.67907 1568.3789 638.22266 C 1652.2956 648.05668 1705.399 682.14763 1727.6895 740.49609 C 1749.3242 798.84458 1752.2753 852.27654 1736.541 900.79102 C 1721.4621 949.96107 1661.801 1000.1151 1557.5605 1051.252 L 698.49805 1051.252 C 705.0172 1050.7839 711.61418 1050.1802 716.5957 1051.0762 L 1273.1719 1051.0762 C 1229.4598 1020.3447 1237.5021 976.64958 1248.4512 930.71875 C 1262.5311 834.17706 1270.2714 736.69206 1271.0977 639.125 C 1315.3536 651.16533 1342.0427 618.57957 1330.1172 577.12305 C 1329.9997 444.75614 1332.3605 311.58081 1315.8125 180.03516 C 1304.3959 105.21227 1258.8127 24.990133 1178.916 9.5703125 C 1158.5492 4.9633051 1137.5791 3.5601448 1116.7402 3.8671875 z M 1123.0137 44.185547 C 1172.4824 41.48713 1226.2206 61.538561 1248.3066 108.85938 C 1292.5515 190.85287 1281.642 287.40771 1287.8906 377.01953 C 1289.8655 449.49867 1290.3046 522.01656 1289.5938 594.51758 C 1275.986 592.76571 1251.3618 602.02908 1258.3672 579.66406 L 1258.3672 321.13281 C 1203.7951 321.53006 1156.4889 276.25696 1150.6113 222.69727 C 1175.1009 192.91986 1218.8462 139.03249 1170.5996 109.50195 C 1129.4713 119.42755 1094.4734 103.1135 1055.9355 90.597656 C 1036.9288 86.259901 996.34016 86.577367 1029.9141 64.474609 C 1055.8404 42.898321 1091.4806 45.411586 1123.0137 44.185547 z M 997.5625 111.13477 C 1040.5028 115.47444 1081.1876 132.50912 1113.8184 159.45117 C 1130.0069 151.45532 1155.2606 119.82999 1162.1387 159.34766 C 1163.0927 202.06562 1091.2973 219.44678 1131.4629 264.58398 C 1150.6474 304.02619 1186.7371 341.55217 1232.3398 346.33203 C 1230.2085 550.7506 1238.9753 756.81059 1203.3242 959.13477 C 1194.7572 989.07564 1191.0636 1028.1078 1212.9941 1045.5742 L 744.82422 1045.5742 C 755.32301 1030.7638 821.5441 1018.1657 850.98047 999.375 C 860.20616 953.26595 828.52059 906.05134 818.2207 860.50781 C 788.14953 773.91697 751.21119 689.87661 711.51953 607.32617 C 765.87648 552.37579 805.91108 638.78519 837.58984 674.18945 C 889.59319 738.59877 941.02539 803.46988 993.30273 867.6582 C 1047.1855 884.33354 1026.8184 795.83727 1040.7617 764.1875 C 1060.1196 631.98864 1084.8817 500.14196 1095.584 366.94531 C 1093.5014 327.34119 1077.7001 285.12475 1045.8379 260.40039 C 1028.1016 260.59486 971.62721 288.46602 983.12109 251.44336 C 1020.6484 246.24776 963.74769 241.99912 974.01758 216.30469 C 944.05591 197.46173 979.04978 168.44308 1004.3711 186.82617 C 1029.4569 189.66947 1084.1619 174.89609 1037.5645 156.10352 C 1015.5228 141.50784 965.86277 185.22155 993.71094 142.06055 C 999.62913 134.74306 991.92011 113.55024 997.5625 111.13477 z M 204.39844 786.71484 C 197.18683 797.86005 199.15361 811.62951 210.29883 828.01953 L 216.19922 824.08594 C 209.64323 809.00712 210.2988 798.18883 218.16602 791.63281 L 230.94922 813.26953 L 240.7832 813.26953 C 240.7832 805.40233 236.196 797.20641 227.01758 788.68359 L 228.98438 788.68359 C 244.06321 788.68359 251.60156 799.82871 251.60156 822.11914 C 236.52273 837.19795 222.42647 842.44076 209.31445 837.85156 C 196.20244 833.91795 189.64648 822.44601 189.64648 803.43359 C 189.64649 792.28838 194.56443 786.71484 204.39844 786.71484 z M 174.89648 795.56641 C 170.96288 817.20123 173.91207 834.24867 183.74609 846.70508 C 192.92451 859.1615 206.36518 863.42189 224.06641 859.48828 C 224.06641 925.04837 196.86018 978.48027 142.44531 1019.7832 C 132.61131 993.55911 120.80862 980.44531 107.04102 980.44531 C 94.584593 980.44531 83.43948 986.02082 73.605469 997.16602 C 65.738259 993.23242 62.460283 987.65692 63.771484 980.44531 C 72.949896 971.26688 82.455049 966.67969 92.289062 966.67969 L 92.289062 944.06055 C 85.733054 944.06055 72.621148 948.64971 52.953125 957.82812 L 39.1875 935.20898 L 56.888672 914.55859 L 56.888672 906.69141 L 28.369141 914.55859 L 84.423828 861.45508 C 85.735032 865.38869 90.651017 867.35547 99.173828 867.35547 C 90.651017 883.74549 90.651017 900.79097 99.173828 918.49219 C 107.04104 936.84901 109.00782 952.91206 105.07422 966.67969 L 120.80859 966.67969 C 121.46419 950.28966 118.515 933.57099 111.95898 916.52539 C 104.74738 898.82415 105.40296 884.7279 113.92578 874.23828 C 121.79298 863.09306 131.95374 854.57034 144.41016 848.66992 L 144.41016 840.80273 C 128.67574 836.86914 113.59705 836.21354 99.173828 838.83594 C 116.87505 823.75712 142.11645 809.33402 174.89648 795.56641 z M 288.9707 814.25 C 359.11999 814.25 448.9385 893.25218 558.42383 1051.252 L 370.59375 1051.252 C 341.74731 1051.252 312.57234 1066.6573 283.07031 1097.4707 C 253.56828 1128.2838 264.38463 1172.5375 315.52148 1230.2305 C 309.62107 1365.2841 306.01628 1380.8906 304.70508 1394.6582 C 303.39387 1408.4258 297.82034 1423.8313 287.98633 1440.877 C 278.80791 1457.9225 275.5319 1487.1864 278.1543 1608.4727 L 267.33594 1623.2227 C 264.71353 1654.6914 262.09115 1678.295 259.46875 1694.0293 C 256.84635 1709.7639 239.80088 1724.5137 208.33203 1738.2812 L 168.99609 1738.2812 C 161.78449 1734.3477 159.81771 1730.4141 163.0957 1726.4805 C 187.35293 1716.6466 187.35293 1711.0729 163.0957 1709.7617 C 153.26169 1709.7617 148.3457 1719.2689 148.3457 1738.2812 L 137.52734 1738.2812 C 129.66014 1698.2897 145.72125 1678.2949 185.71289 1678.2949 L 185.71289 1668.459 C 204.72531 1657.314 219.47719 1634.6967 229.9668 1600.6055 C 241.11202 1567.1697 246.68359 1563.8029 246.68359 1510.6992 C 244.06119 1488.4087 239.47398 1467.101 232.91797 1446.7773 C 221.77276 1421.8647 221.1152 1394.9851 230.94922 1366.1387 L 225.04883 1269.5664 C 215.21482 1207.94 200.46489 1168.606 180.79688 1151.5605 C 160.47325 1135.1706 159.81766 1103.6999 178.83008 1057.1523 C 237.83416 1009.2934 267.33594 947.33877 267.33594 871.28906 C 281.75914 867.35547 289.29948 858.17711 289.95508 843.75391 C 290.61067 829.33068 290.28191 819.4948 288.9707 814.25 z M 370.59375 1090.5879 L 1561.4961 1090.5879 C 1547.7285 1193.5172 1543.1373 1273.4998 1547.7266 1330.5371 C 1551.6602 1387.5744 1573.6236 1379.2504 1613.6152 1423.1758 L 1613.6152 1497.9141 C 1635.25 1552.9845 1640.8236 1543.8952 1630.334 1550.4512 C 1619.1888 1556.3516 1613.6152 1564.5476 1613.6152 1575.0371 C 1611.6483 1630.7632 1609.3547 1667.4764 1606.7324 1685.1777 C 1604.1099 1702.8789 1588.3739 1716.6466 1559.5273 1726.4805 L 1485.7734 1726.4805 C 1475.9393 1721.8913 1474.2994 1717.6289 1480.8555 1713.6953 C 1511.6687 1697.3054 1513.3086 1687.8 1485.7734 1685.1777 C 1474.6281 1685.1777 1466.7592 1698.9453 1462.1699 1726.4805 L 1448.4023 1726.4805 C 1448.4023 1683.8664 1467.7435 1661.9049 1506.4238 1660.5938 C 1529.37 1648.1373 1543.1373 1627.1583 1547.7266 1597.6562 C 1552.9713 1568.1542 1555.5937 1577.2436 1555.5938 1545.1191 C 1555.5938 1494.638 1531.9922 1442.5171 1484.7891 1388.7578 C 1436.9301 1334.9985 1413.002 1301.691 1413.002 1171.2266 L 370.59375 1171.2266 C 321.42369 1171.2266 302.41142 1157.7858 313.55664 1130.9062 C 324.70184 1104.0266 343.71412 1090.5879 370.59375 1090.5879 z M 1471.0234 1655.6758 C 1446.1106 1671.4104 1433.6523 1695.0117 1433.6523 1726.4805 L 1420.8672 1726.4805 C 1420.8672 1679.2772 1437.5878 1655.6758 1471.0234 1655.6758 z M 141.46094 1672.3945 C 125.07091 1688.7846 119.17055 1710.7461 123.75977 1738.2812 L 110.97461 1738.2812 C 105.7298 1694.3562 115.8925 1672.3945 141.46094 1672.3945 z " /></svg>
