<?xml version="1.0" encoding="UTF-8" standalone="no"?>
<!-- Created with Inkscape (http://www.inkscape.org/) -->

<svg
   width="819.9668"
   height="1799.897"
   viewBox="0 0 819.9668 1799.897"
   version="1.1"
   id="svg10448"
   xmlns="http://www.w3.org/2000/svg"
   xmlns:svg="http://www.w3.org/2000/svg">
  <defs
     id="defs10445" />
  <g
     id="layer1"
     transform="translate(595.48454,-197.90036)">
    <path
       id="path21978"
       style="color:#000000;fill:#000000;stroke-width:1.00216;stroke-linecap:square;-inkscape-stroke:none"
       d="m -349.16618,198.03698 c 58.46871,-1.61723 122.30783,10.71392 161.01563,58.97613 56.59853,65.07074 97.29981,148.41115 95.3789,236.38314 9.9238,275.71527 -4.35669,551.49825 -7.5,827.21735 -0.26265,13.5758 -0.52069,27.152 -0.78125,40.7278 48.49141,21.9056 88.20959,60.045 112.25,107.4834 l 213.28516,-38.825 v 298.0779 L 7.68538,1685.9572 c -20.79427,37.9149 -51.80547,69.4131 -89.24414,90.7966 l 16.92969,221.0437 H -331.6154 l 23.58399,-219.9295 c -32.94858,-18.4021 -60.99521,-44.6224 -81.66211,-76.1397 l -205.79102,42.2283 v -312.9152 l 194.5332,34.3371 c 25.03005,-47.423 65.84916,-85.2426 115.37891,-106.2418 10.18266,-282.8582 21.87729,-565.83348 19.29688,-848.9162 -2.56925,-56.91844 -2.11422,-131.09981 -58.08008,-163.30341 -41.62954,-18.53029 -89.06409,-24.745 -134.28907,-22.14597 -40.16535,0.88729 -90.85618,77.43042 -117.33984,14.28013 0.45294,-49.34573 46.39852,-86.70684 81.98242,-115.41989 45.2948,-19.75282 95.95252,-24.23555 144.83594,-25.59438 z m -69.14648,66.41435 c 68.63454,4.21005 148.9492,22.01961 181.78711,90.37866 41.57007,84.34533 28.32577,181.76299 31.23046,272.69546 -2.53036,238.52362 -10.66558,476.94545 -19.61132,715.30485 21.77763,-2.7326 43.93013,-2.2819 64.13281,0.7493 3.95679,-242.2292 12.74785,-484.41154 11.16601,-726.6897 -3.11041,-67.08851 2.9316,-136.18254 -14.58203,-201.52237 -23.08312,-58.4307 -55.2432,-123.56826 -115.65039,-149.85696 -63.73823,-18.40085 -117.37638,-14.14123 -138.47265,-1.05924 z m 222.55468,1136.72727 c -73.94393,0 -136.62157,46.2889 -161.08789,111.7185 -4.08524,22.574 -10.74577,36.4984 -11.00781,61.1202 -3e-5,95.8127 76.6948,172.8385 172.0957,172.8385 95.40092,-10e-5 172.09573,-77.0258 172.09571,-172.8385 -2e-5,-95.8128 -76.69483,-172.8386 -172.09571,-172.8387 z m 360.24024,100.9849 -133.05078,24.2194 c 6.90949,34.6854 5.93581,70.4427 -1.66602,102.4892 l 134.7168,26.1711 z m -699.9668,0.6513 v 167.3244 l 118.95117,-24.4095 c -12.36822,-42.8625 -14.55362,-82.2707 -5.59375,-122.9071 z m 395.54688,297.4206 c -37.80987,8.7578 -74.90678,8.7374 -110.18165,0.3394 l -14.6875,136.9637 h 135.38477 z" />
  </g>
</svg>
