<?xml version="1.0" encoding="UTF-8" standalone="no"?>
<svg
   width="578.07843"
   height="1797.8899"
   version="1.1"
   id="svg881"
   xmlns="http://www.w3.org/2000/svg"
   xmlns:svg="http://www.w3.org/2000/svg">
  <defs
     id="defs885" />
  <path
     style="fill:#000000;stroke:none;stroke-width:100"
     d="m 101.07843,920.88991 h 425 c 0,-46 -22.33333,-89.33333 -67,-130 -44.66667,-40.66667 -93.66667,-61 -147,-61 -53.33333,0 -102,20.33333 -146,61 -43.33333,40.66667 -65,84 -65,130 z m 25,-774 c 24.66667,-33.33333 32,-60.666669 22,-82.000002 -10.66667,-21.333333 -29,-26 -54.999999,-14 -42.666667,18.666667 -52.666667,53.666672 -30,105.000002 l 175.999999,390 c 15.33333,-44.66667 43.66667,-80.66667 85,-108 z m 223,827 v 823.99999 h -72 V 973.88991 l -139.57816,0.49086 0.3997,220.27863 -63.631958,0.5911 0.16239,-221.06466 -26.351971,-0.29593 v -23 c 0,-75.33333 22,-135.66667 65.999999,-181 43.33333,-46 89,-74.33333 137,-85 l -230.999999,-512 c -21.3333333,-46 -25.6666665,-81.000001 -12.9999996,-105.000002 13.3333326,-23.333333 35.6666666,-42 66.9999996,-56 53.999999,-24 91.999999,-11.66666667 113.999999,37 14,32 9.66667,64.333332 -13,97.000002 l 224,308 c -66,39.33333 -101.66667,76 -107,110 -4.66667,33.33333 2.33333,71 21,113 l -1,2 c 74,0 137,26.66667 189,80 51.33333,52.66667 77,116.66667 77,192 v 23 H 552.4464 l -2.34565,221.36059 -63.51672,-0.034 0.005,-220.51525 z"
     id="path879" />
</svg>
