<?xml version="1.0" encoding="UTF-8" standalone="no"?>
<svg
   width="1800.1191"
   height="1800"
   version="1.1"
   id="svg12874"
   xmlns="http://www.w3.org/2000/svg"
   xmlns:svg="http://www.w3.org/2000/svg">
  <defs
     id="defs12878" />
  <path
     id="path12872"
     style="fill:#000000;stroke:none;stroke-width:96.4472"
     d="M 632.85938,0.04829468 C 453.78335,0.11587029 279.69921,0.23096 257.14258,0.23096 c -81.08603,0 -150.04297,61.925927 -150.04297,140.9357 0,79.00978 68.95694,140.93375 150.04297,140.93375 45.80398,0 716.87551,-0.36648 782.72462,-0.93488 35.4458,-0.30596 72.1396,-7.87621 102.8262,-28.73196 30.6864,-20.85577 53.3917,-57.08762 55.8222,-102.47782 0.031,-0.5698 0.014,-1.12526 0.037,-1.693 1.8951,-46.17973 -19.9291,-85.558792 -50.6367,-110.335942 C 1116.8308,12.845054 1077.4455,0.32498261 1038.5292,0.1504324 996.00464,-0.04034803 811.93531,-0.01930104 632.85928,0.04829468 Z M 1652.1934,22.369635 c -62.2857,0 -102.0609,11.396727 -119.3282,34.190041 -17.8839,23.463709 -31.8396,201.300714 -50.957,295.825934 -19.1174,95.19562 -54.886,165.92236 -107.3047,212.17937 -46.9981,41.58561 -86.0459,70.62425 -118.0312,88.51936 -4.203,0.11323 -119.6267,0.63766 -156.0098,0.86812 66.9345,-9.69222 118.4355,-69.03272 118.4355,-139.51572 0,-77.11578 -61.6391,-140.93375 -137.7031,-140.93375 -76.064,-1e-5 -137.70115,63.81796 -137.70115,140.93375 0,71.02863 52.30299,130.7322 119.99415,139.72194 -106.48738,0.63304 -199.10551,1.21283 -389.70704,2.17027 66.21117,-10.34751 116.94531,-69.35925 116.94531,-139.32128 0,-77.11577 -61.63909,-140.93375 -137.70312,-140.93375 -76.06405,0 -137.70313,63.81798 -137.70313,140.93375 0,70.56631 51.62372,129.96111 118.67383,139.54714 -185.58058,0.93472 -280.01513,1.58792 -394.49609,2.30382 66.07465,-10.46918 116.66405,-69.41608 116.66406,-139.28003 0,-77.11576 -61.63714,-140.93375 -137.70117,-140.93375 -76.06405,0 -137.703128,63.81799 -137.703128,140.93375 6e-6,70.48165 51.499028,129.82179 118.431638,139.51572 -43.32111,0.29006 -162.540071,0.82582 -171.537107,1.00166 C 9.2512731,660.09598 0,686.2414 0,738.53195 c 0,51.62016 9.2512731,77.43039 27.751953,77.43039 H 131.35547 c 26.51764,24.80449 39.77539,58.65951 39.77539,101.56449 L 37.925781,1799.0936 H 236.80859 l 49.58529,-307.7104 H 1490.7903 l -3.3333,307.7104 h 189.6328 V 660.09598 h 123.0293 V 600.7662 c -35.1512,-81.11739 -52.7265,-166.25763 -52.7265,-255.41971 0,-136.0895 -34.7637,-322.976855 -95.1992,-322.976855 z M 633.50195,63.023333 c 179.16214,-0.06687 363.05699,-0.08687 404.74805,0.100167 25.1454,0.112787 52.1607,9.141109 70.4746,23.918105 18.3139,14.776985 28.6849,32.913425 27.2598,59.528145 -1.5068,28.14036 -11.6767,42.35206 -28.3574,53.68904 -16.6809,11.33698 -41.8461,17.70925 -68.2989,17.93759 -62.33451,0.53806 -736.72777,0.93293 -782.18552,0.93293 -50.06225,0 -87.42188,-36.07834 -87.42188,-77.96265 0,-41.884312 37.35963,-77.964594 87.42188,-77.964594 22.76629,0 197.19724,-0.111902 376.35937,-0.178733 z M 1637.3945,81.699411 c 33.3012,0 54.4961,167.110689 54.4961,263.647079 0,126.03363 14.8012,211.17386 44.4024,255.41971 h -59.2032 V 446.91102 h -56.4277 v 213.18496 h -272.8848 c 98.6703,-64.3576 158.1805,-146.14586 178.5313,-245.36382 20.3508,-99.88835 32.1486,-279.40136 44.4824,-300.85389 11.7172,-21.452533 33.919,-32.178859 66.6035,-32.178859 z M 1081.2949,433.83836 c 42.9008,0 77.7031,35.36558 77.7031,80.59838 0,45.23281 -34.8023,80.59839 -77.7031,80.59839 -42.9007,10e-6 -77.7011,-35.36557 -77.7011,-80.59839 0,-45.23281 34.8004,-80.59839 77.7011,-80.59838 z m -428.17185,2.57093 c 42.90072,0 77.70312,35.36558 77.70312,80.59838 0,45.23281 -34.8024,80.59839 -77.70312,80.59839 -42.90074,0 -77.70313,-35.36558 -77.70313,-80.59839 0,-45.2328 34.80239,-80.59838 77.70313,-80.59838 z m -434.5625,2.57093 c 42.90072,0 77.70117,35.36558 77.70117,80.59838 -1e-5,45.23281 -34.80045,80.59839 -77.70117,80.59839 -42.90073,0 -77.70312,-35.36558 -77.70313,-80.59839 0,-45.2328 34.80239,-80.59838 77.70313,-80.59838 z M 75.853516,720.43134 H 1620.6621 v 36.20122 H 75.853516 Z m 124.878904,95.531 H 1620.6621 v 920.78476 h -75.8516 V 949.70569 H 306.1875 L 254.94271,1342.556 H 1490.7903 v 87.4863 H 238.29231 L 187.7832,1745.7974 H 103.60352 L 228.48438,917.52683 c 5.55019,-39.55305 -3.70107,-73.40805 -27.75196,-101.56449 z M 355.21289,1009.0355 H 1487.457 l 3.3333,273.1851 H 324.32161 Z" />
</svg>
