<?xml version="1.0" encoding="UTF-8" standalone="no"?>
<!-- Created with Inkscape (http://www.inkscape.org/) -->

<svg
   width="1800"
   height="419.60547"
   viewBox="0 0 1800 419.60547"
   version="1.1"
   id="svg1"
   xmlns="http://www.w3.org/2000/svg"
   xmlns:svg="http://www.w3.org/2000/svg">
  <defs
     id="defs1" />
  <path
     id="path1"
     style="color:#000000;fill:#000000;stroke-linecap:round;stroke-linejoin:round;-inkscape-stroke:none"
     d="M 900,0 C 784.48462,0 690.19727,94.287351 690.19727,209.80274 690.19726,325.31813 784.48461,419.60547 900,419.60547 c 115.5154,-2e-5 209.8027,-94.28735 209.8027,-209.80273 C 1109.8027,94.287365 1015.5154,1.9273664e-5 900,0 Z m 484.75,7.140625 c 34.572,192.749405 15.5332,326.042915 3.5469,405.324225 H 1800 C 1705.9896,267.48146 1651.9012,189.72733 1384.75,7.140625 Z m -969.5,0.1875 C 164.62111,169.46031 72.949724,300.14882 0,412.65235 H 411.70313 C 380.9688,273.11846 396.93429,146.94019 415.25,7.328125 Z M 900,60 c 83.08904,1.4e-5 149.8027,66.7137 149.8027,149.80274 0,83.08904 -66.71366,149.80271 -149.8027,149.80273 -83.08904,0 -149.80274,-66.71368 -149.80273,-149.80273 C 750.19727,126.71369 816.91096,60 900,60 Z m 564.6172,79.16016 c 81.4999,60.67736 156.0412,128.41451 218.1367,210.95312 h -222.3848 c 12.7715,-98.5809 10.4701,-156.39018 4.2481,-210.95312 z m -1129.23439,0.1875 c -6.22201,54.56293 -8.52343,112.37222 4.24805,210.95312 H 117.24609 C 179.34164,267.76211 253.88287,200.02505 335.38281,139.34766 Z" />
</svg>
