<?xml version="1.0" encoding="UTF-8" standalone="no"?>
<!-- Generator: Adobe Illustrator 25.2.3, SVG Export Plug-In . SVG Version: 6.00 Build 0)  -->

<svg
   version="1.1"
   id="Ebene_1"
   x="0px"
   y="0px"
   viewBox="0 0 1800 1650"
   xml:space="preserve"
   sodipodi:docname="US9R3VARA.svg"
   width="1800"
   height="1650"
   inkscape:version="1.2.1 (9c6d41e410, 2022-07-14)"
   xmlns:inkscape="http://www.inkscape.org/namespaces/inkscape"
   xmlns:sodipodi="http://sodipodi.sourceforge.net/DTD/sodipodi-0.dtd"
   xmlns="http://www.w3.org/2000/svg"
   xmlns:svg="http://www.w3.org/2000/svg"><defs
   id="defs1030" /><sodipodi:namedview
   id="namedview1028"
   pagecolor="#ffffff"
   bordercolor="#000000"
   borderopacity="0.25"
   inkscape:showpageshadow="2"
   inkscape:pageopacity="0.0"
   inkscape:pagecheckerboard="0"
   inkscape:deskcolor="#d1d1d1"
   showgrid="false"
   inkscape:zoom="0.32163554"
   inkscape:cx="943.61463"
   inkscape:cy="898.53255"
   inkscape:window-width="1920"
   inkscape:window-height="1137"
   inkscape:window-x="-8"
   inkscape:window-y="-8"
   inkscape:window-maximized="1"
   inkscape:current-layer="Ebene_1" />

<path
   d="m 899.56708,253.55504 c -44.16805,0 -69.0132,63.82925 -74.5255,191.4977 -5.52225,127.66842 8.9749,316.40997 43.47155,566.21466 h 62.1079 c 35.88965,-249.81464 50.7251,-438.55619 44.50635,-566.21466 -6.21875,-127.6585 -31.39225,-191.4977 -75.5603,-191.4977 z m 66.2471,1043.41666 c -17.93985,-74.5255 -29.6709,-149.0609 -35.19315,-223.5864 h -62.1079 c -4.1392,74.5255 -15.87025,149.0609 -35.19315,223.5864 z m 532.06632,-285.6943 h 173.9061 l 126.2854,627.2878 H 1688.3434 L 1634.5139,1357.01 H 177.04783 l -57.9687,281.5552 H 5.2113257 L 129.42713,1011.2774 h 136.6334 m 61.2522,1.4129 c -8.2784,-99.37069 -22.77555,-198.40304 -43.47155,-297.08714 -20.696,-98.6841 -29.6709,-193.5673 -26.91475,-284.65952 2.75615,-91.09225 26.91475,-156.6528 72.4559,-196.6717 26.2282,-19.3229 41.40195,-63.49095 45.54115,-132.49419 L 221.73328,45.878646 c -16.56675,-12.4176 -16.56675,-24.1586 0,-35.19315 h 393.35335 c 15.1837,11.0445 14.4872,22.77555 -2.0696,35.19315 l -153.2101,55.899104 c 4.1392,69.01319 19.3229,113.17129 45.54115,132.49419 45.54115,40.02885 69.3515,105.57945 71.4211,196.6717 2.0696,91.09222 -7.2436,185.97542 -27.94955,284.65952 -20.70595,98.6841 -35.0439,196.02495 -41.93925,295.40554 l 303.6541,0.2687 c -8.2784,-99.37069 -22.77555,-198.40304 -43.47155,-297.08714 -20.70595,-98.6841 -29.6709,-193.5673 -26.91475,-284.65952 2.75615,-91.09225 26.91475,-156.6528 72.4559,-196.6717 26.2282,-19.3229 41.40195,-63.49095 45.54115,-132.49419 L 704.96498,44.455796 c -16.56675,-12.4176 -16.56675,-24.14865 0,-35.1931501 h 393.35342 c 15.1837,11.0445001 14.4872,22.7755501 -2.0696,35.1931501 L 943.04858,100.3549 c 4.1392,69.01319 19.31295,113.18124 45.54115,132.49419 45.54117,40.02885 69.35157,105.57945 71.42117,196.6717 2.0696,91.09222 -7.2436,185.97542 -27.9496,284.65952 -20.7059,98.6841 -34.50662,197.7065 -41.40197,297.08709 H 1239.091 m 167.6973,-757.71236 c -44.1681,0 -69.0132,63.82925 -74.5255,191.4977 -5.5123,127.66842 8.9749,316.40997 43.4715,566.21466 h 62.1079 c 35.8797,-249.81464 50.7251,-438.55619 44.5064,-566.21466 -6.2188,-127.6585 -31.4022,-191.4977 -75.5603,-191.4977 z M 1237.0711,1298.4742 c 51.1032,-75.9683 77.819,-151.1306 80.5851,-224.3327 l -326.99687,-0.7562 c 1.38305,73.1524 27.60137,147.6779 78.67467,223.5864 h 552.7623 l -39.3323,-223.5864 -80.1771,0.7562 c -0.01,-0.07 22.9944,148.4938 74.018,224.3327 l 25.7705,-0.7562 m -129.2903,0.7562 c -17.9398,-74.5255 -29.6709,-149.061 -35.1931,-223.5865 h -62.1079 c -4.1392,74.5255 -15.8703,149.051 -35.1932,223.5865 z m -155.3195,-287.1968 c -8.2784,-99.37069 -22.7755,-198.40304 -43.4715,-297.08714 -20.696,-98.6841 -29.6709,-193.5673 -26.9148,-284.65952 2.7562,-91.09225 26.9148,-156.6528 72.4559,-196.6717 26.2282,-19.3229 41.402,-63.49095 45.5412,-132.49419 L 1212.1762,44.465746 c -16.5667,-12.4176 -16.5667,-24.14865 0,-35.1931501 h 393.3534 c 15.1837,11.0445001 14.4872,22.7755501 -2.0696,35.1931501 l -153.2002,55.899104 c 4.1392,69.01319 19.3229,113.17129 45.5412,132.49419 45.5411,40.02885 69.3515,105.57945 71.4211,196.6717 2.0696,91.09222 -7.2436,185.97542 -27.9496,284.65952 -20.7059,98.6841 -34.5066,197.7065 -41.4019,297.08714 M 416.33538,254.97789 c -44.16805,0 -69.0132,63.82925 -74.5255,191.4977 -5.52225,127.66842 8.9749,316.40997 43.47155,566.21471 h 62.1079 c 35.8797,-249.81469 50.7251,-438.55624 44.50635,-566.21471 -6.2088,-127.66845 -31.39225,-191.4977 -75.5603,-191.4977 z M 246.56848,1298.3946 c 51.0634,-75.9086 77.97815,-150.444 80.74425,-223.5865 l -1.10445,-1.4228 h -99.4801 l -43.47155,223.5864 h 546.5535 c 51.0634,-75.9085 77.97815,-150.444 80.74425,-223.5864 h -300.2114 c 0,0 24.68595,149.1007 75.74935,225.0093 m -103.50985,0 c -17.93985,-74.5255 -29.6709,-149.061 -35.19315,-223.5865 h -62.1079 c -4.1392,74.5255 -15.87025,149.061 -35.19315,223.5865 z"
   id="path1056"
   style="stroke-width:0.995" /></svg>
