<?xml version="1.0" encoding="UTF-8" standalone="no"?>
<svg
   width="602.97784"
   height="1797.8899"
   version="1.1"
   id="svg881"
   xmlns="http://www.w3.org/2000/svg"
   xmlns:svg="http://www.w3.org/2000/svg">
  <defs
     id="defs885" />
  <path
     id="path879"
     style="fill:#000000;stroke:none;stroke-width:100"
     d="M 128.07812 0.21875 C 112.32814 -0.99999881 94.328104 2.890634 74.078125 11.890625 C 42.744823 25.890611 20.411444 44.557315 7.078125 67.890625 C -5.5885292 91.890602 -1.2551868 126.89067 20.078125 172.89062 L 251.07812 684.89062 C 203.07817 695.55728 157.41141 723.89067 114.07812 769.89062 C 70.07817 815.22391 48.078125 875.55737 48.078125 950.89062 L 48.078125 973.89062 L 74.429688 974.18555 L 74.267578 1195.25 L 137.90039 1194.6602 L 137.5 974.38086 L 277.07812 973.89062 L 277.07812 1797.8906 L 349.07812 1797.8906 L 349.07812 973.89062 L 486.58984 974.70117 L 486.58398 1195.2168 L 550.10156 1195.25 L 552.44727 973.89062 L 578.07812 973.89062 L 578.07812 950.89062 C 578.07812 875.55737 552.4114 811.55724 501.07812 758.89062 C 449.07818 705.55735 386.07805 678.89062 312.07812 678.89062 L 313.07812 676.89062 C 294.41147 634.89067 287.41146 597.22392 292.07812 563.89062 C 297.41145 529.89066 333.07819 493.22392 399.07812 453.89062 L 175.07812 145.89062 C 197.74477 113.22399 202.07811 80.890593 188.07812 48.890625 C 174.32814 18.473989 154.3281 2.249998 128.07812 0.21875 z M 119.09375 44.421875 C 131.74999 44.734375 141.41146 51.557305 148.07812 64.890625 C 158.07811 86.223937 150.74477 113.55733 126.07812 146.89062 L 324.07812 437.89062 C 282.74484 465.22393 254.41144 501.224 239.07812 545.89062 L 63.078125 155.89062 C 40.411481 104.55735 50.411501 69.557273 93.078125 50.890625 C 102.82811 46.39063 111.50001 44.234375 119.09375 44.421875 z M 547.75977 556.32031 A 55.217747 55.217747 0 0 0 492.54297 611.53906 A 55.217747 55.217747 0 0 0 547.75977 666.75586 A 55.217747 55.217747 0 0 0 602.97852 611.53906 A 55.217747 55.217747 0 0 0 547.75977 556.32031 z M 57.425781 556.5957 A 55.217747 55.217747 0 0 0 2.2089844 611.8125 A 55.217747 55.217747 0 0 0 57.425781 667.03125 A 55.217747 55.217747 0 0 0 112.64453 611.8125 A 55.217747 55.217747 0 0 0 57.425781 556.5957 z M 312.07812 729.89062 C 365.4114 729.89062 414.4115 750.224 459.07812 790.89062 C 503.74475 831.55725 526.07812 874.89067 526.07812 920.89062 L 101.07812 920.89062 C 101.07813 874.89067 122.74484 831.55725 166.07812 790.89062 C 210.07808 750.224 258.74485 729.89062 312.07812 729.89062 z " />
</svg>
