<?xml version="1.0" encoding="UTF-8" standalone="no"?>
<svg
   width="1799.9989"
   height="1473.3823"
   version="1.1"
   id="svg1"
   xml:space="preserve"
   xmlns="http://www.w3.org/2000/svg"
   xmlns:svg="http://www.w3.org/2000/svg"><defs
     id="defs1" /><path
     id="path1"
     style="display:inline;fill:#000000;stroke:none;stroke-width:94.5908"
     d="m 1526.9534,99.874567 c -3.4334,-0.0136 -6.8491,0.06 -10.2425,0.213723 -27.1476,1.22967 -55.9439,4.09299 -80.4503,16.77198 -24.5067,12.67899 -43.3977,37.72366 -45.0948,73.6613 -7.4773,158.3217 -82.6632,192.05361 -235.5729,332.83372 l -8.5826,7.90363 h -49.3313 c 29.0077,-10.08967 45.0877,-41.62104 48.2406,-94.59182 -4.4141,-88.28465 -51.3931,-134.31908 -140.9389,-138.1027 -86.3929,3.78362 -131.7969,49.81805 -136.21121,138.1027 3.15296,47.29533 18.28837,78.82671 45.40441,94.59182 H 762.82858 c 30.26902,-10.08967 46.0327,-41.62104 47.29392,-94.59182 -2.52242,-88.28465 -48.55685,-134.31908 -138.10271,-138.1027 -86.39282,3.78362 -131.79495,49.81805 -136.20919,138.1027 3.15302,47.29533 17.65609,78.82671 43.51088,94.59182 H 432.70595 c 28.37721,-14.50391 43.51259,-46.98173 45.4044,-97.43009 -3.15302,-87.65405 -49.18745,-133.68848 -138.1027,-138.1027 -88.28463,4.41422 -133.68877,50.44865 -136.2112,138.1027 1.26121,49.18716 15.45013,81.66498 42.56613,97.43009 H 28.376748 C 9.458648,531.25892 0,555.85101 0,605.03807 0,653.5945 9.458648,677.87446 28.376748,677.87446 H 134.31967 c 27.11591,23.33233 40.6726,55.17795 40.6726,95.53657 L 38.783086,1473.3823 H 242.15211 l 47.29591,-242.1521 H 1510.5511 l 47.2958,242.1521 h 203.3689 L 1625.0067,773.41103 c 0,-40.35862 13.5566,-72.20424 40.6727,-95.53657 h 105.9428 c 18.9181,0 28.3767,-24.27996 28.3767,-72.83639 0,-49.18706 -9.4586,-73.77915 -28.3767,-73.77915 h -126.1983 l 1.6537,-323.21037 c 0.1784,-46.36645 -20.2293,-77.14332 -47.2219,-92.34476 -23.9792,-11.34927 -48.8679,-15.733873 -72.9023,-15.829223 z m -3.2158,60.908043 c 17.1929,-0.0888 32.4151,2.16121 44.7893,9.13002 14.142,7.96435 24.1998,20.61421 24.0863,50.09222 l -5.3989,274.85584 h -323.8548 c 124.3443,-122.66544 174.087,-165.16474 179.8519,-287.22559 0.9841,-20.83773 8.6639,-29.67454 21.6676,-36.40221 20.2847,-7.76761 41.6658,-10.36148 58.8586,-10.45028 z M 340.00765,354.37312 c 50.44836,4.41423 77.56357,30.89914 81.34721,79.45571 -3.78364,50.44836 -30.89885,77.87971 -81.34721,82.29395 -49.18716,-4.41424 -75.98822,-31.84559 -80.40244,-82.29395 4.41422,-48.55657 31.21528,-75.04148 80.40244,-79.45571 z m 334.85041,0 c 51.7096,4.41423 78.1945,31.84561 79.45569,82.29398 -1.26119,51.70957 -27.74609,78.19447 -79.45569,79.45568 -50.44834,-1.26121 -77.87972,-27.74611 -82.29396,-79.45568 4.41424,-50.44837 31.84562,-77.87975 82.29396,-82.29398 z m 332.01414,0 c 52.3402,4.41423 79.7716,31.84561 82.2939,82.29398 -2.5223,51.70957 -29.9537,78.19447 -82.2939,79.45568 -50.44835,-1.26121 -76.93319,-27.74611 -79.45568,-79.45568 2.52249,-50.44837 29.00733,-77.87975 79.45568,-82.29398 z M 77.564176,588.01241 H 1722.4368 V 622.0657 H 77.564176 Z M 205.26253,677.87446 H 1594.7384 c -24.5935,26.48532 -34.0521,58.33098 -28.3767,95.53657 L 1694.06,1423.25 h -86.0788 l -48.2407,-249.7201 H 240.26059 L 192.01991,1423.25 H 105.94093 L 233.63928,773.41103 c 5.67546,-37.20559 -3.78319,-69.05125 -28.37675,-95.53657 z M 313.09498,803.6793 257.28625,1091.2358 H 1542.7128 L 1486.904,803.6793 Z m 50.13418,55.80872 H 819.15663 V 1034.4802 H 328.2291 Z m 511.73622,0 h 50.06826 v 174.99218 h -50.06826 z m 105.877,0 h 455.92742 l 35.0001,174.99218 H 980.84238 Z" /><path
     d="M 512.69543,1.16334 C 432.53158,4.503501 389.1088,46.017443 382.42848,125.70409 c 3.34012,82.07247 46.04674,124.30103 128.1192,126.68687 81.11815,-4.2945 124.54093,-46.52306 130.26694,-126.68687 C 637.4745,43.631616 594.76789,2.117673 512.69543,1.16334 Z M 827.62495,0 C 747.93831,3.340151 705.23169,46.017443 699.50576,125.70409 702.84588,207.77656 745.55249,250.00512 827.62495,252.39096 907.7888,248.09646 951.21001,205.8679 957.89033,125.70409 953.11862,43.631616 909.69741,0.954324 827.62495,0 Z M 512.69543,51.26515 c 49.62516,0 75.62995,24.813726 78.01576,74.43894 -3.81731,50.10238 -30.53835,75.63073 -80.16351,76.58506 -49.62525,-0.95433 -75.6316,-26.48268 -78.01741,-76.58506 3.34011,-49.625214 30.06279,-74.43894 80.16516,-74.43894 z m 314.92952,0 c 0,0 80.16352,-4.095389 80.16352,74.43894 -3.34012,50.10238 -30.06115,75.63073 -80.16352,76.58506 -49.62524,-0.95433 -75.6316,-26.48268 -78.01741,-76.58506 2.38581,-49.625214 28.39217,-74.43894 78.01741,-74.43894 z"
     style="display:inline;fill:#000000;stroke:none;stroke-width:71.5749"
     id="path1-1" /></svg>
