<?xml version="1.0" encoding="UTF-8" standalone="no"?>
<svg
   width="1799.9961"
   height="714.5025"
   id="svg1389"
   version="1.1"
   xmlns="http://www.w3.org/2000/svg"
   xmlns:svg="http://www.w3.org/2000/svg"
   xmlns:rdf="http://www.w3.org/1999/02/22-rdf-syntax-ns#"
   xmlns:cc="http://creativecommons.org/ns#"
   xmlns:dc="http://purl.org/dc/elements/1.1/">
  <metadata
     id="metadata1396">
    <rdf:RDF>
      <cc:Work
         rdf:about="">
        <dc:format>image/svg+xml</dc:format>
        <dc:type
           rdf:resource="http://purl.org/dc/dcmitype/StillImage" />
        <dc:date>7/01/2006</dc:date>
        <dc:creator>
          <cc:Agent>
            <dc:title>Serge Thomas</dc:title>
          </cc:Agent>
        </dc:creator>
        <dc:publisher>
          <cc:Agent>
            <dc:title>Serge Rosmorduc</dc:title>
          </cc:Agent>
        </dc:publisher>
        <dc:identifier>US22</dc:identifier>
        <dc:description>optimisation simple du signe R24</dc:description>
        <cc:license
           rdf:resource="http://creativecommons.org/licenses/GPL/2.0/" />
      </cc:Work>
      <cc:License
         rdf:about="http://creativecommons.org/licenses/GPL/2.0/">
        <cc:permits
           rdf:resource="http://web.resource.org/cc/Reproduction" />
        <cc:permits
           rdf:resource="http://web.resource.org/cc/Distribution" />
        <cc:requires
           rdf:resource="http://web.resource.org/cc/Notice" />
        <cc:permits
           rdf:resource="http://web.resource.org/cc/DerivativeWorks" />
        <cc:requires
           rdf:resource="http://web.resource.org/cc/ShareAlike" />
        <cc:requires
           rdf:resource="http://web.resource.org/cc/SourceCode" />
      </cc:License>
    </rdf:RDF>
  </metadata>
  <defs
     id="defs1394" />
  <path
     id="path1391"
     style="fill:#000000;stroke:none;stroke-width:115.521"
     d="M 134.41544,0 C 120.78854,0 103.95689,2.1865924 81.645811,27.380626 -39.754824,148.47682 -10.490034,271.86982 127.95413,357.41136 -67.451221,466.47475 -7.1313463,615.96591 98.079422,699.91243 c 21.261018,16.96393 40.733968,14.46 54.047808,14.46 10.89317,0 21.18066,-7.26123 30.8635,-21.78555 C -36.859391,508.2578 111.37262,416.85229 294.28987,389.94085 c 431.46664,163.97289 708.92773,175.05422 1166.09053,5.989 383.2728,36.41123 288.1238,208.77898 155.0712,296.65703 9.6829,14.52432 19.97,21.78555 30.8635,21.78555 12.1032,0 46.6842,1.77479 67.4226,-16.51797 104.5278,-92.20133 140.5508,-239.01806 -45.3959,-340.4431 156.9113,-83.94473 150.6974,-208.75371 47.7634,-335.850925 C 1698.2277,0.2204809 1676.1253,0 1663.7375,0 1652.588,0 1642.0589,7.4342892 1632.1484,22.300016 1865.1763,249.11244 1543.5343,332.88695 1495.1388,315.43395 1275.374,236.20664 1085.1963,193.93492 892.6443,192.61704 546.36569,190.24705 296.67451,321.61773 263.11284,314.50147 122.94846,283.03592 7.3895685,224.64297 166.00646,22.300016 156.09592,7.4342892 145.56475,0 134.41544,0 Z M 892.2946,263.02409 c 154.9445,1.08564 308.41,31.07267 482.6701,87.43555 C 990.88606,484.46212 755.05753,478.10722 394.79471,350.35676 577.61312,290.31359 735.79233,261.92713 892.2946,263.02369 Z" />
</svg>
