<?xml version="1.0" encoding="UTF-8" standalone="no"?>
<svg
   width="892"
   height="1798"
   version="1.1"
   id="svg20658"
   xmlns="http://www.w3.org/2000/svg"
   xmlns:svg="http://www.w3.org/2000/svg">
  <defs
     id="defs20662" />
  <path
     id="path20656"
     style="fill:#000000;stroke:none;stroke-width:100"
     d="M 512,0 C 446.66673,11.999988 348.66654,18 218,18 H 0 v 291 h 218 c 85.33325,0 146.6667,9.00002 184,27 36.66663,17.33332 67.33336,42.6667 92,76 v 858 H 248 c -16.66665,0 -25,12 -25,36 0,26 8.33335,39 25,39 h 82 l -137,412 c 87.99991,27.3333 204.33348,41 349,41 145.33319,0 262.00009,-13.6667 350,-41 L 758,1345 h 82 c 14.66665,0 22,-13 22,-39 0,-24 -7.33335,-36 -22,-36 H 594 V 0 Z M 77,82 H 512 V 319 C 478.6667,270.33338 380.6665,246 218,246 H 77 Z m 317,1263 h 298 l 120,359 c -47.99995,18.6666 -85.738,26.9633 -183.07124,26.9633 L 542.29841,1609.142 458.83206,1733.0367 C 360.16549,1733.0367 321.66662,1722.6666 273,1704 Z" />
</svg>
