<?xml version="1.0" encoding="UTF-8" standalone="no"?>
<svg
   width="6.5700002"
   height="17.98"
   version="1.1"
   id="svg299"
   sodipodi:docname="USR17VARA.svg"
   inkscape:version="1.2.1 (9c6d41e410, 2022-07-14)"
   xmlns:inkscape="http://www.inkscape.org/namespaces/inkscape"
   xmlns:sodipodi="http://sodipodi.sourceforge.net/DTD/sodipodi-0.dtd"
   xmlns="http://www.w3.org/2000/svg"
   xmlns:svg="http://www.w3.org/2000/svg">
  <defs
     id="defs303" />
  <sodipodi:namedview
     id="namedview301"
     pagecolor="#ffffff"
     bordercolor="#000000"
     borderopacity="0.25"
     inkscape:showpageshadow="2"
     inkscape:pageopacity="0.0"
     inkscape:pagecheckerboard="0"
     inkscape:deskcolor="#d1d1d1"
     showgrid="false"
     inkscape:zoom="42.639608"
     inkscape:cx="5.0070817"
     inkscape:cy="8.6773781"
     inkscape:window-width="1920"
     inkscape:window-height="1137"
     inkscape:window-x="-8"
     inkscape:window-y="-8"
     inkscape:window-maximized="1"
     inkscape:current-layer="svg299" />
  <path
     style="fill:#000000;stroke:none"
     d="M 5.7083295,8.23 5.508746,13.217121 c 0,0.246667 0.09,0.37 0.27,0.37 0.1866666,-0.01333 0.28,-0.13 0.28,-0.35 C 6.0637723,11.566519 5.7083295,8.23 5.7083295,8.23 Z M 4.127681,11.00564 C 4.1721562,10.00691 4.2424001,9.6374582 4.0266838,8.1164779 3.9556045,7.6153093 3.5390147,6.7122279 2.8990147,6.5922279 v -0.59 L 2.9231927,5.4418114 2.2597061,5.4595835 2.2943014,6.02 V 6.61 C 1.6409681,6.73 1.1616644,7.4193915 1.07,7.9387573 0.88111749,9.0089553 0.80399478,10.213502 0.96401098,10.975019 Z M 2.33,2.05 C 2.33,0.97666667 1.99,0.44 1.31,0.44 0.93,0.44 0.74,0.65666667 0.74,1.09 0.74,1.4966667 1.0466667,1.7 1.66,1.7 L 0.85,5 H 2.33 Z M 4.32,5 3.51,1.7 c 0.6,0 0.9,-0.2033333 0.9,-0.61 0,-0.43333333 -0.1833333,-0.65 -0.55,-0.65 -0.7,0 -1.05,0.53666667 -1.05,1.61 V 5 Z m 0.3476814,5.82564 v 0.64 l -1.7857994,-0.01021 0.081707,5.634213 1.4564294,-0.01565 0.028203,0.898706 -3.73407177,0.0082 0.0214574,-0.888314 1.38933977,-0.02767 0.1869357,-5.609484 -1.88787148,-0.02041 v -0.64 C 0.39880563,9.7435684 0.37228419,9.306223 0.60554411,7.9787573 0.74462298,7.1872693 1.1076348,6.4266667 1.7743014,6.28 L 1.7713724,5.4750023 0.24499772,5.4491625 0.35,5 1.07,2.09 C 0.53,2.0033333 0.26666667,1.6333333 0.28,0.98 0.3,0.32666667 0.64333333,0 1.31,0 1.9633333,0 2.3833333,0.29 2.57,0.87 2.7633333,0.29 3.1933333,0 3.86,0 4.5133333,0 4.85,0.32666667 4.87,0.98 4.8833333,1.6333333 4.6266667,2.0033333 4.1,2.09 L 4.8,5 4.8641693,5.469579 3.4319437,5.4572302 3.4290147,6.2622279 c 0.4911397,0.3154926 0.6284472,0.4611409 0.9616604,0.9300012 0.46,0.066667 0.7459336,0.095341 1.1605743,0.3677709 0.2556297,0.1679556 0.5137468,0.6033333 0.5270801,0.95 l 0.4204165,4.707121 c 0,0.466667 -0.25,0.7 -0.75,0.7 -0.46,0 -0.6766667,-0.233333 -0.65,-0.7 L 5.3783295,8.51 C 5.3783295,8.0166667 4.8266667,7.7633333 4.54,7.75 4.672695,9.1926767 4.7045659,9.8724636 4.6676814,10.82564 Z"
     id="path297"
     sodipodi:nodetypes="ccccccsccccccsccssscccsccsssccccccccccccccsccccccscscccccccsccscccc" />
</svg>
