<?xml version="1.0" encoding="UTF-8" standalone="no"?>
<!-- Created with Inkscape (http://www.inkscape.org/) -->

<svg
   width="880.02032"
   height="1794.9796"
   viewBox="0 0 880.02032 1794.9796"
   version="1.1"
   id="svg9515"
   xml:space="preserve"
   inkscape:version="1.2.2 (732a01da63, 2022-12-09)"
   sodipodi:docname="US9R7VARB.svg"
   xmlns:inkscape="http://www.inkscape.org/namespaces/inkscape"
   xmlns:sodipodi="http://sodipodi.sourceforge.net/DTD/sodipodi-0.dtd"
   xmlns="http://www.w3.org/2000/svg"
   xmlns:svg="http://www.w3.org/2000/svg"><sodipodi:namedview
     id="namedview9517"
     pagecolor="#ffffff"
     bordercolor="#000000"
     borderopacity="0.25"
     inkscape:showpageshadow="2"
     inkscape:pageopacity="0.0"
     inkscape:pagecheckerboard="0"
     inkscape:deskcolor="#d1d1d1"
     inkscape:document-units="px"
     showgrid="false"
     showguides="true"
     inkscape:zoom="0.17727627"
     inkscape:cx="329.99341"
     inkscape:cy="112.81826"
     inkscape:window-width="1920"
     inkscape:window-height="1137"
     inkscape:window-x="-8"
     inkscape:window-y="-8"
     inkscape:window-maximized="1"
     inkscape:current-layer="svg9515" /><defs
     id="defs9512" /><path
     id="path9656"
     style="color:#000000;fill:#000000;stroke-width:1.02892;stroke-linecap:square;-inkscape-stroke:none"
     d="M 297.11415,0 C 230.91461,2.7538189 141.39628,-4.5060575 87.92034,52.348531 62.706951,79.15492 0.83375608,161.26438 26.358085,205.61358 c 23.693214,37.96908 76.151685,-53.03777 118.363665,-66.00629 61.02317,-18.74775 131.89324,-23.93007 192.80758,3.39825 46.62858,21.09821 43.56316,77.43175 44.56501,120.34724 -6.21724,283.70774 -23.23215,567.06528 -37.06717,850.49922 L 0,1114.2801 l 23.397833,38.92 c 0,0 64.109476,106.6715 128.309297,237.9494 64.19983,131.2781 127.08654,289.5937 127.56575,378.246 l 0.13865,25.5842 h 317.42324 l 0.2753,-25.4476 c 0.95972,-89.2523 64.7031,-247.7938 129.60349,-379.1845 64.90038,-131.3904 129.57734,-238.0398 129.57734,-238.0398 l 23.72942,-39.1189 -348.86951,0.432 C 529.51146,812.73829 527.47086,511.82715 526.99092,210.97039 527.52432,159.64101 515.17973,105.74948 476.13182,69.632832 442.19997,34.879639 400.47714,3.2222997 349.6573,2.8596688 332.20825,0.9838185 314.6568,0.2081645 297.11415,0 Z m -1.10492,44.136721 c 47.54472,2.804444 100.41846,11.764209 132.03876,52.276113 37.43157,29.072646 49.49433,75.490676 47.17348,120.791366 1.06308,298.28172 2.79261,596.59057 4.48142,894.8814 l -83.06302,0.3376 C 409.98536,829.29589 427.70376,546.27208 433.54225,262.87449 432.9971,208.02186 432.10425,141.82908 379.36731,109.25019 315.28013,61.198338 220.47885,74.714248 149.28043,94.350071 113.52922,104.2099 24.27695,179.60579 124.48702,76.26453 156.52115,43.229456 238.93016,40.76989 296.00923,44.136721 Z M 789.4434,1164.7474 c -24.63312,42.5531 -65.74533,115.5414 -108.8543,202.8154 -61.13429,123.7661 -123.61712,267.15 -133.48805,375.971 h -217.7066 c -9.35826,-108.38 -71.03861,-251.4071 -131.47242,-374.9843 -42.70948,-87.3339 -83.50414,-160.4216 -107.893708,-202.936 z"
     sodipodi:nodetypes="cscscccccsscccscccccccsccccccssscsccscc" /></svg>
