<?xml version="1.0" encoding="UTF-8" standalone="no"?>
<svg
   width="26.059999"
   height="7.6599998"
   version="1.1"
   id="svg4"
   sodipodi:docname="US9R42VARA.svg"
   inkscape:version="1.2.1 (9c6d41e410, 2022-07-14)"
   xmlns:inkscape="http://www.inkscape.org/namespaces/inkscape"
   xmlns:sodipodi="http://sodipodi.sourceforge.net/DTD/sodipodi-0.dtd"
   xmlns="http://www.w3.org/2000/svg"
   xmlns:svg="http://www.w3.org/2000/svg">
  <defs
     id="defs8" />
  <sodipodi:namedview
     id="namedview6"
     pagecolor="#ffffff"
     bordercolor="#000000"
     borderopacity="0.25"
     inkscape:showpageshadow="2"
     inkscape:pageopacity="0.0"
     inkscape:pagecheckerboard="0"
     inkscape:deskcolor="#d1d1d1"
     showgrid="false"
     inkscape:zoom="29.194602"
     inkscape:cx="20.945653"
     inkscape:cy="4.3158663"
     inkscape:window-width="1920"
     inkscape:window-height="1137"
     inkscape:window-x="-8"
     inkscape:window-y="-8"
     inkscape:window-maximized="1"
     inkscape:current-layer="svg4" />
  <path
     style="fill:#000000;stroke:none"
     d="m 5.5542529,3.9796541 v 2.22 l 1.28,-0.81 H 18.594253 l -0.01,-0.45 H 6.8342529 Z m 5.8600001,0.03 v 0.48 l 3.08,0.02 v -0.49 z m 10.68,-1.89 c -0.0067,0.1 -0.06667,0.1433333 -0.18,0.13 0.0067,0.1066667 0.08,0.23 0.22,0.37 -0.166667,-0.053333 -0.266667,-0.04 -0.3,0.04 -0.08667,-0.08 -0.14,-0.063333 -0.16,0.05 h 0.11 c 0.28,-0.00667 0.51,0.25 0.69,0.77 0.04,0.3066667 0.1,0.5 0.18,0.58 0.08667,0.08 0.19,0.096667 0.31,0.05 -0.02,-0.14 -0.04333,-0.2833333 -0.07,-0.43 -0.03333,-0.1533333 -0.11,-0.2566667 -0.23,-0.31 0.733333,-0.14 1.073333,-0.44 1.02,-0.9 -0.04667,-0.46 -0.236667,-0.69 -0.57,-0.69 -0.34,0 -0.573333,0.053333 -0.7,0.16 -0.133333,0.1066667 -0.24,0.1666667 -0.32,0.18 z m -3.03,4.89 c 3.106667,0.00667 4.973333,-0.2733333 5.6,-0.84 0.62,-0.5666667 0.926667,-1.2366667 0.92,-2.01 -0.0067,-0.78 -0.183333,-1.3633333 -0.53,-1.75 -0.346667,-0.3866667 -0.723333,-0.58 -1.13,-0.58 0.346667,0.8 0.146667,1.3933333 -0.6,1.78 0.14,0.5 0.08667,0.8733333 -0.16,1.12 -0.246667,0.2466667 -0.65,0.37 -1.21,0.37 -0.566667,0 -1.043333,-0.11 -1.43,-0.33 -0.393333,-0.22 -0.873333,-0.5466667 -1.44,-0.98 z m 3.18,-4.51 c -0.04,0.013333 -0.06333,0.00667 -0.07,-0.02 0,-0.033333 0.01667,-0.07 0.05,-0.11 0,-0.1466667 0.07667,-0.2466667 0.23,-0.3 0.193333,-0.08 0.42,-0.11 0.68,-0.09 0.266667,0.026667 0.413333,0.2 0.44,0.52 0.03333,0.32 -0.226667,0.56 -0.78,0.72 v -0.04 c 0.393333,-0.1333333 0.576667,-0.32 0.55,-0.56 -0.03333,-0.2466667 -0.136667,-0.3533333 -0.31,-0.32 -0.166667,0.033333 -0.28,0.1133333 -0.34,0.24 -0.06,0.1266667 -0.08,0.3266667 -0.06,0.6 l -0.06,0.04 c -0.04667,-0.1866667 -0.12,-0.33 -0.22,-0.43 0.06667,-0.06 0.06667,-0.12 0,-0.18 -0.04,-0.00667 -0.07667,-0.03 -0.11,-0.07 z m 0.23,-0.35 c -0.126667,0 -0.19,0.066667 -0.19,0.2 0,0.1266667 0.06333,0.19 0.19,0.19 0.14,0 0.21,-0.063333 0.21,-0.19 0,-0.1333333 -0.07,-0.2 -0.21,-0.2 z m 0.13,0.2 c 0,0.086667 -0.04333,0.13 -0.13,0.13 -0.08,0 -0.12,-0.043333 -0.12,-0.13 0,-0.08 0.04,-0.12 0.12,-0.12 0.08667,0 0.13,0.04 0.13,0.12 z m 1.9,-0.86 c 0.36,0.1066667 0.713333,0.34 1.06,0.7 0.346667,0.3666667 0.523333,1.0166667 0.53,1.95 0,0.94 -0.376667,1.74 -1.13,2.4 -0.76,0.66 -2.886667,0.99 -6.38,0.99 l 0.01,-1.71 H 6.8342529 l -1.28,0.96 h -0.46 v -1.13 c -1.8,0 -2.9633333,-0.053333 -3.49,-0.16 -0.5333333,-0.1 -1.02333332,-0.2933333 -1.46999999,-0.58 -0.1,-0.066667 -0.12666667,-0.26 -0.08,-0.58 0.04666667,-0.3133333 0.27,-0.2933333 0.67,0.06 0.40666669,0.36 1.25999999,0.5433333 2.55999999,0.55 0,-0.2 -0.2633333,-0.33 -0.79,-0.39 -0.52,-0.053333 -0.81,-0.12 -0.87,-0.2 -0.066667,-0.08 -0.09,-0.2333333 -0.07,-0.46 0.34,0.00667 0.7066667,0.026667 1.1,0.06 0.3933333,0.04 0.75,0.1233333 1.07,0.25 0.32,0.1266667 0.7766667,0.29 1.37,0.49 v -1.29 h 0.42 l 1.32,1.09 h 4.2100001 v -0.84 h 3.82 v 0.84 h 3.72 l 0.01,-1.71 c 0.993333,0.7133333 1.756667,1.24 2.29,1.58 0.533333,0.34 1.106667,0.3666667 1.72,0.08 -0.206667,-0.086667 -0.373333,-0.3533333 -0.5,-0.8 -0.12,-0.4533333 -0.25,-0.68 -0.39,-0.68 -0.106667,-0.013333 -0.226667,0.02 -0.36,0.1 0,-0.5133333 0.16,-0.8166667 0.48,-0.91 0.02667,-0.14 0.09667,-0.1833333 0.21,-0.13 -0.02,-0.046667 0.04,-0.14 0.18,-0.28 0.133333,-0.14 0.3,-0.2333333 0.5,-0.28 0.536302,-0.2056705 1.355239,-0.054042 1.78,0.03 z m -22.7800001,3.44 h 1.38 l 0.49,-1.71 h -2.38 z m -0.13,-2.22 c -0.02,-0.2066667 0.023333,-0.4133333 0.13,-0.62 0.1066667,-0.2066667 0.1766667,-0.48 0.21,-0.82 0.026667,-0.34666673 0.3433333,-0.73333333 0.95,-1.16000003 0.1266667,-0.0733333 0.2133333,-0.1 0.26,-0.08 0.046667,0.02 0.023333,0.08 -0.07,0.18 -0.3466667,0.4466667 -0.4166667,0.79333333 -0.21,1.04000003 0.2066667,0.24 0.31,0.7266667 0.31,1.46 h 1.17 l -0.87,2.7 h -2.14 l -0.81999999,-2.7 z m 0.37,0 h 0.8 c 0.02,-0.2133333 0.013333,-0.4233333 -0.02,-0.63 -0.04,-0.2066667 -0.1833333,-0.46 -0.43,-0.76 -0.013333,0.4133333 -0.076667,0.6933333 -0.19,0.84 -0.1066667,0.1533333 -0.16,0.3366667 -0.16,0.55 z m -0.44,-0.3 c 0.053333,-0.2533333 -0.046667,-0.4466667 -0.3,-0.58 -0.27999999,-0.06 -0.46333332,0.033333 -0.54999999,0.28 -0.0733333,0.2733333 0.02,0.4666667 0.28,0.58 0.28666669,0.04 0.47666669,-0.053333 0.56999999,-0.28 z m 2.59,0.03 c 0.14,-0.3 0.036667,-0.4933333 -0.31,-0.58 -0.2733333,-0.053333 -0.46,0.04 -0.56,0.28 -0.093333,0.2533333 0.00333,0.44 0.29,0.56 0.2866667,0.053333 0.48,-0.033333 0.58,-0.26 z"
     id="path2"
     sodipodi:nodetypes="ccccccccccccccccccccccccscccccsccsscccccccccccccscccccsssssssssscccccccccccccccccccsccccccccccscccccccccccccccsccscccccccccccccccccccccccc" />
</svg>
