<?xml version="1.0" encoding="UTF-8" standalone="no"?>
<svg
   width="1000.0961"
   height="1800"
   version="1.1"
   id="svg1"
   xmlns="http://www.w3.org/2000/svg"
   xmlns:svg="http://www.w3.org/2000/svg">
  <defs
     id="defs1" />
  <path
     style="fill:#000000;stroke:none;stroke-width:109.096"
     d="m 69.805264,449.4772 v 27.27409 c 0,29.81967 14.909844,44.72952 44.729526,44.72952 32.00161,0 48.00242,-14.90985 48.00242,-44.72952 V 449.4772 Z M 849.39676,1726.7327 c -84.8361,-41.897 -196.52858,-104.6616 -213.25795,-167.0961 -48.75197,-181.9451 -98.998,-377.2917 -98.998,-1110.1594 h -74.18555 c 0,725.4276 -45.01145,941.8967 -106.37097,1121.6222 -17.8756,52.3587 -120.54996,113.4901 -205.88488,155.6333 z M 840.3366,449.4772 v 27.27409 c 0,29.81967 16.00086,44.72952 48.00243,44.72952 31.27431,0 46.1842,-14.90985 44.72956,-44.72952 V 449.4772 Z m 92.73199,-64.3669 V 116.73315 c 0,-32.728917 -7.6368,-50.184343 -22.91026,-52.366271 -31.27431,0 -55.63922,44.729521 -73.09457,134.188581 -17.45538,89.45906 -47.63873,134.18857 -90.54996,134.18857 H 256.3601 c -42.91123,0 -73.09457,-44.72951 -90.55,-134.18857 C 148.35466,109.0964 123.98981,64.366879 92.715508,64.366879 77.442008,66.548807 69.805264,84.004233 69.805264,116.73315 V 385.1103 Z M 0,1799.9993 2.7777778,1710.7915 C 4.5833217,1652.8068 264.35495,1609.8076 289.55059,1543.6527 357.6376,1364.8801 398.58837,1162.3595 398.58837,449.4772 H 226.90409 v 27.27409 c 0,73.45825 -37.09279,110.55103 -111.27833,111.27834 C 42.167504,588.75692 5.4383808,551.66415 5.4383808,476.75129 V 116.73315 C 5.4383808,38.911051 34.530761,0 92.715508,0 155.26412,0 195.26612,45.456836 212.72156,136.37051 c 17.45542,91.64098 47.63876,137.46146 90.55,137.46146 h 398.51269 c 41.45657,0 70.91267,-45.82048 88.36804,-137.46146 C 807.60766,45.456836 847.60971,0 910.15833,0 c 58.18468,0 87.27709,38.911051 87.27709,116.73315 v 360.01814 c 0,74.91286 -37.09277,112.00563 -111.2783,111.27834 C 812.69885,587.30232 775.96977,550.20954 775.96977,476.75129 V 449.4772 H 601.5077 c 0,712.526 44.63481,916.0578 114.66311,1095.4528 25.51388,65.3602 283.92529,106.2099 283.92529,152.5886 v 102.4807 z"
     id="path1" />
</svg>
