<?xml version="1.0" encoding="UTF-8" standalone="no"?>
<svg
   width="10.2"
   height="17.98"
   version="1.1"
   id="svg383"
   sodipodi:docname="US9R50VARA.svg"
   inkscape:version="1.2.1 (9c6d41e410, 2022-07-14)"
   xmlns:inkscape="http://www.inkscape.org/namespaces/inkscape"
   xmlns:sodipodi="http://sodipodi.sourceforge.net/DTD/sodipodi-0.dtd"
   xmlns="http://www.w3.org/2000/svg"
   xmlns:svg="http://www.w3.org/2000/svg">
  <defs
     id="defs387" />
  <sodipodi:namedview
     id="namedview385"
     pagecolor="#ffffff"
     bordercolor="#000000"
     borderopacity="0.25"
     inkscape:showpageshadow="2"
     inkscape:pageopacity="0.0"
     inkscape:pagecheckerboard="0"
     inkscape:deskcolor="#d1d1d1"
     showgrid="false"
     inkscape:zoom="37.116052"
     inkscape:cx="3.0579761"
     inkscape:cy="10.399813"
     inkscape:window-width="1920"
     inkscape:window-height="1137"
     inkscape:window-x="-8"
     inkscape:window-y="-8"
     inkscape:window-maximized="1"
     inkscape:current-layer="svg383" />
  <path
     style="fill:#000000;stroke:none"
     d="m 4.7303758,12.16 -1.5,4.59 h 2.5170801 v -4.57 z m 2.1070801,0.02 v 4.57 h 2.5404119 l -1.54,-4.59 z M 1.197456,0.89 v 1.79 h 1.5599999 c 1.7533333,0 2.8166667,0.2666667 3.19,0.8 V 0.89 Z m 1.2329198,15.86 0.3723941,-1.095633 c 0,0 -2.92521121,-3.577581 -2.7524626,-3.831008 0.17274861,-0.253427 3.0400685,2.954141 3.0400685,2.954141 l 0.3914434,-1.190879 c 0,0 -3.19417109,-3.460502 -3.0333142,-3.748646 C 0.60936189,9.549831 3.7503758,12.805 3.7503758,12.805 l 0.44,-1.315 H 5.7474559 V 4.48 c -0.2733333,-0.3533333 -0.6133333,-0.6266667 -1.02,-0.82 -0.4066667,-0.1933333 -1.0733333,-0.29 -2,-0.29 H 0.36745595 V 0.2 H 2.7574559 c 1.4133333,0 2.4766667,-0.0666667 3.19,-0.2 h 0.89 v 11.49 h 1.6204119 l 1.5900002,5.26 0.118611,0.02514 v 1.23 l -7.8697333,-0.0061 v -1.23 z m 0.7511581,0.380951 v 0.4 L 9.4910717,17.55 v -0.4 z"
     id="path381"
     sodipodi:nodetypes="ccccccccccccsccccczcczccccssccsccccccccccccccc" />
</svg>
