<?xml version="1.0" encoding="UTF-8" standalone="no"?>
<svg
   width="1715.8488"
   height="1800"
   version="1.1"
   id="svg1"
   xml:space="preserve"
   xmlns="http://www.w3.org/2000/svg"
   xmlns:svg="http://www.w3.org/2000/svg"><defs
     id="defs1" /><path
     id="path1"
     style="fill:#000000;stroke:none;stroke-width:100.097"
     d="M 722.95117 4.9042969 C 709.53196 3.8407694 694.18855 7.1878185 676.92188 14.945312 C 650.89674 26.956915 632.21149 42.972849 620.86719 62.992188 C 609.5229 83.678838 612.52686 114.0414 629.87695 154.08008 L 804.04492 557.47266 C 763.33893 566.14771 724.30107 590.16964 686.93164 629.54102 C 648.8949 668.91238 629.87695 720.9622 629.87695 785.69141 L 629.87695 804.70898 L 821.97461 804.70898 L 819.29297 1381.3262 C 786.60215 1386.6119 755.53542 1398.2672 729.38086 1421.9727 C 658.39451 1472.2189 612.78398 1561.2216 523.48242 1582.8848 C 451.03169 1584.3816 400.36242 1520.8759 353.75977 1473.7812 C 304.4025 1419.4518 236.53356 1373.891 160.36133 1376.5117 C 94.995245 1373.1025 8.9612731 1401.7448 5.1542969 1478.7695 C 3.2690788 1591.435 4.7814014 1685.3556 4.2949219 1798.0645 C 574.91088 1798.7299 1145.5285 1799.3951 1716.1445 1800.0605 C 1714.9321 1684.0968 1718.6189 1586.7349 1714.2227 1470.9297 C 1705.3439 1398.7513 1623.7543 1374.3747 1561.4355 1376.5273 C 1461.8531 1372.1656 1388.9716 1449.5005 1326.7695 1516.4102 C 1283.7463 1558.1397 1218.2461 1608.2468 1157.8477 1568.6465 C 1065.5024 1518.1594 1015.2823 1405.6005 908.75977 1378.8887 C 901.21291 1378.3903 893.60016 1378.001 885.9668 1377.752 L 885.03516 804.70898 L 1084.3164 804.70898 L 1084.3164 785.69141 C 1084.3164 720.9622 1061.9618 665.57573 1017.252 619.53125 C 973.20945 574.15409 919.49027 551.46484 856.0957 551.46484 L 858.09766 551.46484 C 841.41487 514.76273 835.40889 481.73084 840.08008 452.36914 C 844.08394 423.67475 874.1119 392.64487 930.16602 359.2793 L 764.00586 129.05664 C 783.35789 102.36419 786.69454 75.00559 774.01562 46.978516 C 762.33768 20.703133 745.31654 6.6768426 722.95117 4.9042969 z M 716.58398 43.160156 C 727.84486 43.368691 735.97953 49.312287 740.98438 60.990234 C 748.99211 79.674952 742.65345 103.03152 721.9668 131.05859 L 867.10742 344.26367 C 830.4053 368.28688 805.71406 399.65142 793.03516 438.35547 L 668.91406 139.06641 C 648.22741 95.023852 656.23539 64.993987 692.9375 48.978516 C 701.94621 44.974648 709.82746 43.035035 716.58398 43.160156 z M 856.0957 596.50977 C 902.14018 596.50977 944.18199 613.52572 982.21875 647.55859 C 1019.5882 682.25877 1038.2734 719.62734 1038.2734 759.66602 L 674.91992 759.66602 C 674.91992 719.62734 693.93982 682.25877 731.97656 647.55859 C 769.34601 613.52572 810.71854 596.50977 856.0957 596.50977 z M 427.64844 1082.8809 C 364.82826 1082.8809 297.22904 1111.9031 257.61523 1151.5176 C 216.983 1192.1493 212.38086 1245.6404 212.38086 1285.668 L 212.38086 1301.2656 L 642.91211 1301.2656 L 642.91211 1285.668 C 642.91211 1245.6404 639.86851 1192.1493 599.23633 1151.5176 C 559.62241 1111.9031 490.4686 1082.8809 427.64844 1082.8809 z M 1246.3164 1085.2383 C 1183.4964 1085.2383 1115.8989 1114.2586 1076.2852 1153.873 C 1035.6529 1194.5048 1031.0488 1247.9959 1031.0488 1288.0234 L 1031.0488 1303.623 L 1461.582 1303.623 L 1461.582 1288.0234 C 1461.582 1247.9959 1458.5385 1194.5048 1417.9062 1153.873 C 1378.2923 1114.2586 1309.1365 1085.2383 1246.3164 1085.2383 z M 429.75586 1127.0996 C 473.22173 1127.0996 527.6326 1149.4299 553.95898 1175.7578 C 576.99487 1198.7918 580.00561 1229.3323 580.84961 1257.709 L 279.93945 1257.709 C 280.79989 1229.3323 283.79203 1198.7918 306.83203 1175.7578 C 333.1583 1149.4299 386.28569 1127.0996 429.75586 1127.0996 z M 1248.4258 1129.457 C 1291.8916 1129.457 1346.3006 1151.7854 1372.627 1178.1133 C 1395.6629 1201.1473 1398.6755 1231.6878 1399.5195 1260.0645 L 1098.6094 1260.0645 C 1099.4698 1231.6878 1102.462 1201.1473 1125.502 1178.1133 C 1151.8282 1151.7854 1204.9555 1129.457 1248.4258 1129.457 z M 1577.7383 1428.207 C 1592.3704 1428.1705 1606.9351 1430.7437 1621.1094 1436.6191 C 1670.4928 1458.0454 1652.3373 1518.0568 1655.7656 1560.6211 L 1655.7656 1743.6523 L 64.673828 1748.3633 C 65.787657 1652.9574 62.430406 1576.1111 66.382812 1480.8887 C 73.180306 1442.7256 132.3581 1429.5611 165.39453 1430.5371 C 276.71176 1441.559 325.2318 1560.4695 416.97852 1608.3066 C 500.21695 1659.5501 611.50136 1631.2442 674.11914 1560.457 C 731.45773 1499.6317 799.58666 1418.6424 893.13477 1436.6719 C 1004.6492 1467.5553 1045.6606 1604.3484 1161.0684 1629.0664 C 1258.4089 1655.2145 1350.608 1591.0247 1410.0684 1519.5312 C 1449.6648 1477.5445 1514.3324 1428.3653 1577.7383 1428.207 z " /></svg>
