<?xml version="1.0" encoding="UTF-8" standalone="no"?>
<svg
   width="849"
   height="1798"
   version="1.1"
   id="svg2979"
   xmlns="http://www.w3.org/2000/svg"
   xmlns:svg="http://www.w3.org/2000/svg">
  <defs
     id="defs2983" />
  <path
     id="path2977"
     style="fill:#000000;stroke:none;stroke-width:100"
     d="m 420,0 c -81.33298,0 -133.66675,136.00109 -157,408 -7.99996,103.33293 19.66694,188.33361 83,255 H 139 0 V 833 L 368.02997,832.6341 367,1798 H 483 L 480.79951,832.6341 849,833 V 663 H 727.04883 c 42.85701,-7.60167 65.58291,-35.85796 67.95117,-85 -2.66663,-55.3331 -31.0002,-84.33333 -85,-87 -56.66643,2.66667 -85.66666,31.6669 -87,87 1.18416,49.14226 24.31241,77.39848 69.14063,85 H 497 C 561.66643,596.33361 589.33333,511.33293 580,408 556.66678,136.00109 504.33302,0 423,0 Z M 139,663 c 53.9998,-1.33333 82.33337,-30.33354 85,-87 -2.66663,-53.99976 -31.0002,-83 -85,-87 -56.66643,4 -85.666671,33.00024 -87,87 1.333329,56.66646 30.33357,85.66667 87,87 z M 420,90.999999 h 3 C 470.99984,91 497.66671,224.33442 503,491 503,547.66646 475.33313,584.33341 420,601 366.6669,584.33341 340,547.66646 340,491 345.33333,224.33442 372.0002,90.999999 420,90.999999 Z M 139,538 c 23.33325,2 35.6667,14.66678 37,38 -1.3333,24.66658 -13.66675,37.66667 -37,39 -25.33321,-1.33333 -38,-14.33342 -38,-39 0,-23.33322 12.66679,-36 38,-38 z m 571,3 c 23.99992,1.33333 36.6667,13.66678 38,37 -1.3333,24.66658 -14.00008,37.66667 -38,39 -23.33322,-1.33333 -35.66666,-14.33342 -37,-39 1.33334,-23.33322 13.66678,-35.66667 37,-37 z M 56,712 h 735 v 65 H 56 Z m 356,121 h 25 v 913 h -25 z" />
</svg>
