<?xml version="1.0" encoding="UTF-8" standalone="no"?>
<!-- Created with Inkscape (http://www.inkscape.org/) -->

<svg
   width="1278.9127"
   height="1779.6447"
   viewBox="0 0 1278.9127 1779.6448"
   version="1.1"
   id="svg6175"
   xmlns="http://www.w3.org/2000/svg"
   xmlns:svg="http://www.w3.org/2000/svg">
  <defs
     id="defs6172" />
  <path
     id="path6161"
     style="color:#000000;font-style:normal;font-variant:normal;font-weight:normal;font-stretch:normal;font-size:medium;line-height:normal;font-family:Sans;-inkscape-font-specification:Sans;text-indent:0;text-align:start;text-decoration:none;text-decoration-line:none;letter-spacing:normal;word-spacing:normal;text-transform:none;writing-mode:lr-tb;direction:ltr;baseline-shift:baseline;text-anchor:start;display:inline;overflow:visible;visibility:visible;fill:#000000;fill-opacity:1;stroke:none;stroke-width:95.0298;marker:none;enable-background:accumulate"
     d="M 615.72028,0.61241686 C 361.38846,-0.93413404 140.26698,252.37407 180.00429,505.02307 c 19.13723,154.69536 123.32698,296.28736 266.53041,358.02587 26.7245,15.38037 94.31943,34.95032 24.85305,30.97476 C 337.96714,896.50378 133.43899,895.54783 0,896.26674 c 126.32113,219.77996 313.63744,458.44736 322.76633,716.60456 9.20177,53.4849 -16.68132,127.5126 13.32125,166.7733 199.21057,-0.6998 398.42114,-1.3997 597.63171,-2.0995 -16.35654,-346.7219 211.98911,-606.9577 345.19341,-880.73295 -148.8621,-4.03304 -376.78592,5.83622 -525.22886,-7.83108 C 938.16978,823.62728 1083.5142,642.5002 1076.2964,441.89979 1075.569,202.35299 856.98637,-12.999594 615.72028,0.61241686 Z M 619.13625,85.528645 C 842.90035,73.333593 1036.9928,306.72794 983.5459,524.95508 944.68686,727.00363 714.05139,867.46296 517.70662,798.96107 331.23709,742.13124 211.40139,521.39658 280.1339,335.34616 327.2986,193.17466 468.36656,85.713935 619.13625,85.528645 Z M 150.31076,983.95524 c 277.33584,0.81685 704.25316,0.15445 981.58894,0.9716 -126.4375,189.77516 -245.01248,414.04286 -269.17359,644.93836 -3.02376,28.8965 0.41256,71.9693 0.41256,71.9693 0,0 -29.28624,0.4378 -54.71786,1.2501 -137.85641,0.907 -275.72374,-0.5176 -413.58377,0.2979 25.56014,-313.9537 -130.97742,-539.7813 -244.52628,-719.42726 z" />
</svg>
