<?xml version="1.0" encoding="UTF-8" standalone="no"?>
<!-- Created with Inkscape (http://www.inkscape.org/) -->

<svg
   width="1188.0638"
   height="1799.7391"
   id="svg1290"
   version="1.1"
   xmlns="http://www.w3.org/2000/svg"
   xmlns:svg="http://www.w3.org/2000/svg"
   xmlns:rdf="http://www.w3.org/1999/02/22-rdf-syntax-ns#"
   xmlns:cc="http://creativecommons.org/ns#"
   xmlns:dc="http://purl.org/dc/elements/1.1/">
  <defs
     id="defs3" />
  <metadata
     id="metadata4">
    <rdf:RDF>
      <cc:Work
         rdf:about="">
        <dc:format>image/svg+xml</dc:format>
        <dc:type
           rdf:resource="http://purl.org/dc/dcmitype/StillImage" />
        <cc:license
           rdf:resource="http://creativecommons.org/licenses/by/2.0/" />
        <dc:subject>
          <rdf:Bag>
            <rdf:li>JSesh hieroglyph</rdf:li>
          </rdf:Bag>
        </dc:subject>
        <dc:creator>
          <cc:Agent>
            <dc:title>Serge Rosmorduc</dc:title>
          </cc:Agent>
        </dc:creator>
        <dc:description>Karnak Hypostyle walls.</dc:description>
      </cc:Work>
      <cc:License
         rdf:about="http://creativecommons.org/licenses/by/2.0/">
        <cc:permits
           rdf:resource="http://web.resource.org/cc/Reproduction" />
        <cc:permits
           rdf:resource="http://web.resource.org/cc/Distribution" />
        <cc:requires
           rdf:resource="http://web.resource.org/cc/Notice" />
        <cc:requires
           rdf:resource="http://web.resource.org/cc/Attribution" />
        <cc:permits
           rdf:resource="http://web.resource.org/cc/DerivativeWorks" />
        <cc:requires
           rdf:resource="http://web.resource.org/cc/ShareAlike" />
      </cc:License>
    </rdf:RDF>
  </metadata>
  <path
     id="path2091"
     style="fill:#000000;fill-opacity:1;fill-rule:nonzero;stroke:none;stroke-width:59.7073;stroke-linecap:square;stroke-linejoin:round;stroke-miterlimit:4;stroke-opacity:1"
     d="M 724.1699,0 694.332,1.306641 28.6836,28.730469 C 12.7109,29.319795 0.0535,42.286903 0,58.115234 V 376.76171 c -0.039,15.01305 11.314,27.6608 26.375,29.38282 220.8761,25.73272 424.7102,40.43725 661.1992,60.5625 l 4.9453,0.49023 -2.0195,302.20313 h -77.6152 l -272.1055,0.31054 0.6348,91.61524 255.9785,-0.38672 -254.6719,663.05265 H 685.459 l -1.8418,275.7461 h 178.3633 l -6.8028,-275.7461 H 1188 l -258.9531,-663.99601 259.0176,1.86914 -0.9961,-92.07813 -276.7071,-0.38671 H 836.5625 L 817.6367,2.285156 H 724.334 Z m -28.8476,60.236328 -2.3086,347.705082 h -0.3301 C 465.3788,388.59759 268.8401,373.99756 59.6738,350.31641 V 86.517578 Z M 667.293,861.60937 h 22.5918 l -4.0254,602.41793 H 432.8535 Z m 171.5429,0 h 18.5938 l 235.916,602.41793 H 853.6992 Z" />
</svg>
