<?xml version="1.0" encoding="UTF-8" standalone="no"?>
<svg
   width="1799.3477"
   height="883.66797"
   version="1.1"
   id="svg2264"
   xmlns="http://www.w3.org/2000/svg"
   xmlns:svg="http://www.w3.org/2000/svg">
  <defs
     id="defs2268" />
  <path
     id="path2262"
     style="fill:#000000;stroke:none;stroke-width:100"
     d="m 1307.2773,0 c -19.6171,0 -39.5278,4.9335 -59.7324,14.80078 -40.4089,19.26486 -60.1449,54.73975 -59.2051,106.42578 v 342.64062 c -0.9398,45.57769 18.7962,78.23409 59.2051,97.96875 7.753,3.8765 15.4488,6.77314 23.1153,9.16211 14.7084,5.958 54.8415,5.65984 72.5371,0 7.3887,-2.38897 14.7487,-5.28562 22.0507,-9.16211 37.5899,-19.73466 56.3848,-52.39106 56.3848,-97.96875 V 123.34179 c 0,-53.09563 -18.7949,-89.27615 -56.3848,-108.54101 C 1346.2183,4.9335 1326.8945,0 1307.2773,0 Z M 549.05859,1.04101 c -19.61721,0 -39.52789,4.93344 -59.73242,14.80078 -40.40907,19.26479 -60.14488,54.73977 -59.20508,106.42578 V 464.9082 c -0.9398,45.57767 18.79601,78.23409 59.20508,97.96875 7.75298,3.87649 15.44872,6.77313 23.11523,9.16211 14.70855,5.958 54.84151,5.65984 72.53711,0 7.38869,-2.38898 14.74859,-5.28562 22.05078,-9.16211 37.58983,-19.73466 56.38477,-52.39108 56.38477,-97.96875 V 124.38281 c 0,-53.09565 -18.79494,-89.27623 -56.38477,-108.54102 C 587.99939,5.97445 568.67581,1.04101 549.05859,1.04101 Z M 914.55273,4.26953 C 876.73171,5.7263 836.32177,18.2374 812.75781,49.67968 c -17.91976,23.76693 -26.10099,53.9011 -27.27149,83.30469 2.1053,38.36836 14.89535,79.83487 48.08399,102.48242 29.51034,19.90479 67.0809,25.08933 101.86914,20.76367 35.11222,-3.98004 70.55935,-20.55698 89.70315,-51.35156 14.7037,-23.09914 21.5585,-50.68291 22.75,-77.82226 -1.6065,-36.8452 -13.5602,-76.56428 -44.8965,-98.90821 C 977.61596,9.72963 945.26757,4.24713 914.55273,4.26953 Z m 739.06247,0 c -37.8209,1.45677 -78.2309,13.96787 -101.7949,45.41015 -17.9198,23.76693 -26.101,53.9011 -27.2715,83.30469 2.1053,38.36836 14.8953,79.83487 48.084,102.48242 29.5104,19.90479 67.081,25.08933 101.8691,20.76367 35.1123,-3.98004 70.5594,-20.55698 89.7032,-51.35156 14.7037,-23.09914 21.5585,-50.68291 22.75,-77.82226 -1.6065,-36.8452 -13.5602,-76.56428 -44.8965,-98.90821 -25.3802,-18.4188 -57.7285,-23.9013 -88.4434,-23.8789 z M 141.58984,5.22461 C 103.76882,6.68136 63.358874,19.19248 39.794922,50.63476 c -17.919764,23.76693 -26.10294,53.9011 -27.273438,83.30469 2.105296,38.36836 14.895351,79.83485 48.083985,102.48242 29.51034,19.90479 67.080901,25.08933 101.869141,20.76367 35.11222,-3.98004 70.55936,-20.55698 89.70312,-51.35156 14.70368,-23.09914 21.56047,-50.6829 22.75195,-77.82227 C 273.3232,91.16653 261.36749,51.44744 230.03125,29.10351 204.65109,10.68471 172.30468,5.20221 141.58984,5.22461 Z M 1308.1582,40.17382 c 45.5777,1.4096 70.9505,24.19914 76.1191,68.36719 v 360.25977 c -5.1686,44.16806 -30.5414,66.72236 -76.1191,67.66211 -48.3971,-0.93975 -74.7106,-23.49405 -78.9395,-67.66211 V 108.54101 c 4.2289,-44.16805 30.5424,-66.95759 78.9395,-68.36719 z m -758.21875,1.04102 c 45.57764,1.40962 70.95056,24.19912 76.11914,68.36719 v 360.25976 c -5.16858,44.16808 -30.5415,66.72236 -76.11914,67.66211 C 501.54248,536.56415 475.22885,514.00987 471,469.84179 V 109.58203 c 4.22885,-44.16807 30.54248,-66.95757 78.93945,-68.36719 z m 366.5332,5.5 c 28.90304,0.45813 60.48236,11.58792 75.13672,38.18555 12.31423,21.94796 15.71123,48.8565 7.65433,72.875 -6.72072,26.33046 -28.89536,47.35485 -55.5137,52.75195 -31.06884,7.0565 -68.20941,3.47523 -91.35157,-20.50781 -14.16936,-15.05258 -19.92101,-35.94217 -21.32031,-56.125 -4.72818,-5.12983 1.29265,-19.82633 2.53125,-28.20508 6.5291,-26.60331 28.00701,-48.67124 54.81055,-54.93945 9.13878,-2.50068 18.59705,-3.68948 28.05273,-4.03516 z m 739.06255,0 c 28.9029,0.45813 60.4823,11.58792 75.1367,38.18555 12.3143,21.94796 15.7112,48.8565 7.6543,72.875 -6.7207,26.33046 -28.8953,47.35485 -55.5137,52.75195 -31.0689,7.0565 -68.2094,3.47523 -91.3516,-20.50781 -14.1694,-15.05258 -19.921,-35.94217 -21.3203,-56.125 -4.7282,-5.12983 1.2927,-19.82633 2.5313,-28.20508 6.5291,-26.60331 28.0069,-48.67124 54.8105,-54.93945 9.1388,-2.50068 18.5971,-3.68948 28.0528,-4.03516 z M 143.50976,47.66992 c 28.90304,0.45813 60.48039,11.58598 75.13477,38.18359 12.31428,21.94798 15.71119,48.85847 7.65429,72.87695 -6.72068,26.33048 -28.89531,47.35486 -55.51367,52.75196 -31.06884,7.0565 -68.20941,3.47523 -91.351556,-20.50781 -14.169372,-15.05258 -19.919062,-35.94219 -21.31836,-56.125 -4.72819,-5.12983 1.290699,-19.82827 2.529297,-28.20704 6.529088,-26.60331 28.006999,-48.66927 54.810549,-54.9375 9.13878,-2.50066 18.599,-3.68947 28.05468,-4.03515 z m 769.48047,273.16015 c -37.8211,1.45677 -78.23102,13.96788 -101.79492,45.41016 -17.91976,23.76693 -26.10105,53.89914 -27.27149,83.30273 2.10529,38.36838 14.89541,79.83681 48.08399,102.48438 29.51039,19.90479 67.07895,25.08932 101.86719,20.76367 35.11226,-3.98005 70.5612,-20.55698 89.7051,-51.35156 14.7037,-23.09914 21.5584,-50.6829 22.75,-77.82227 -1.6066,-36.84518 -13.5622,-76.56427 -44.8985,-98.9082 -25.38006,-18.4188 -57.72661,-23.90131 -88.44137,-23.87891 z m 739.06247,0 c -37.821,1.45677 -78.231,13.96788 -101.7949,45.41016 -17.9198,23.76693 -26.1011,53.89914 -27.2715,83.30273 2.1053,38.36838 14.8954,79.83681 48.084,102.48438 29.5105,19.90479 67.0789,25.08932 101.8672,20.76367 35.1124,-3.98005 70.5612,-20.55698 89.7051,-51.35156 14.7037,-23.09914 21.5585,-50.6829 22.75,-77.82227 -1.6065,-36.84518 -13.5622,-76.56427 -44.8985,-98.9082 -25.38,-18.4188 -57.7266,-23.90131 -88.4414,-23.87891 z m -1512.02731,0.95508 c -37.8211,1.45677 -78.23103,13.96788 -101.794921,45.41016 -17.919764,23.76691 -26.101047,53.89914 -27.271485,83.30273 2.105284,38.36836 14.895405,79.83681 48.083985,102.48438 29.510383,19.90479 67.078961,25.08932 101.867181,20.76367 35.11228,-3.98005 70.56129,-20.55894 89.70508,-51.35352 14.7037,-23.09913 21.55845,-50.68096 22.75,-77.82031 -1.60651,-36.84518 -13.56216,-76.56624 -44.89844,-98.91015 -25.38012,-18.41882 -57.72664,-23.89936 -88.4414,-23.87696 z m 774.88476,41.49024 c 28.90305,0.45813 60.48039,11.58598 75.13477,38.18359 12.31418,21.94798 15.71128,48.8565 7.6543,72.875 -6.7207,26.33046 -28.8953,47.35682 -55.51368,52.75391 -31.06884,7.0565 -68.20748,3.47524 -91.34961,-20.50782 -14.16942,-15.05256 -19.92099,-35.94217 -21.32031,-56.125 -4.72818,-5.12981 1.29271,-19.82828 2.53125,-28.20703 6.52914,-26.60331 28.00514,-48.66927 54.8086,-54.9375 9.13884,-2.50066 18.59901,-3.68947 28.05468,-4.03515 z m 739.06255,0 c 28.9029,0.45813 60.4803,11.58598 75.1347,38.18359 12.3142,21.94798 15.7113,48.8565 7.6543,72.875 -6.7207,26.33046 -28.8953,47.35682 -55.5137,52.75391 -31.0687,7.0565 -68.2074,3.47524 -91.3496,-20.50782 -14.1695,-15.05256 -19.921,-35.94217 -21.3203,-56.125 -4.7282,-5.12981 1.2928,-19.82828 2.5313,-28.20703 6.5291,-26.60331 28.0051,-48.66927 54.8086,-54.9375 9.1389,-2.50066 18.599,-3.68947 28.0547,-4.03515 z m -1512.02739,0.95507 c 28.90305,0.45813 60.48039,11.58597 75.13477,38.1836 12.31421,21.94798 15.71319,48.8565 7.65624,72.875 -6.72068,26.33046 -28.89726,47.35486 -55.51562,52.75195 -31.06884,7.05651 -68.20748,3.4772 -91.349606,-20.50586 -14.169429,-15.05256 -19.920996,-35.94217 -21.320313,-56.125 -4.728184,-5.12981 1.29271,-19.82828 2.53125,-28.20703 6.52913,-26.60331 28.005149,-48.66929 54.808589,-54.9375 9.13884,-2.50068 18.59902,-3.68948 28.05469,-4.03516 z M 1799.3477,618.61328 0,618.66796 v 265 l 1799.3477,-0.0547 z m -59,62 v 143 L 59,823.66796 v -143 z" />
</svg>
