<?xml version="1.0" encoding="UTF-8" standalone="no"?>
<svg
   width="849"
   height="1798"
   version="1.1"
   id="svg142"
   xmlns="http://www.w3.org/2000/svg"
   xmlns:svg="http://www.w3.org/2000/svg">
  <defs
     id="defs146" />
  <path
     id="path140"
     style="fill:#000000;stroke:none;stroke-width:100"
     d="M 420 0 C 338.66707 0 286.33323 136.00135 263 408 C 255.00005 511.33283 282.66697 596.33368 346 663 L 139 663 L 0 663 L 0 833 L 151.48438 832.53906 L 151.48438 1069.082 L 219.60156 1069.082 L 219.60156 832.33008 L 366.44922 831.88281 L 367 884 L 367 1249 L 367 1311 L 367 1798 L 483 1798 L 483 1311 L 483 1249 L 481 884 L 480.55078 833 L 637.42969 833 L 637.42969 1069.082 L 705.54688 1069.082 L 705.54688 833 L 849 833 L 849 663 L 727.04883 663 C 769.90579 655.39834 792.6317 627.14199 795 578 C 792.33334 522.66696 763.99975 493.66666 710 491 C 653.33363 493.66666 624.33333 522.66696 623 578 C 624.18415 627.1422 647.31249 655.39849 692.14062 663 L 497 663 C 561.66636 596.33368 589.33328 511.33283 580 408 C 556.66677 136.00135 504.33293 0 423 0 L 420 0 z M 139 663 C 192.99975 661.66667 221.33334 632.66637 224 576 C 221.33334 522.00025 192.99975 493 139 489 C 82.333619 493 53.333328 522.00025 52 576 C 53.333328 632.66637 82.333619 661.66667 139 663 z M 420 91 L 423 91 C 470.99975 91 497.66671 224.33468 503 491 C 503 547.66637 475.33304 584.33343 420 601 C 366.66692 584.33343 340 547.66637 340 491 C 345.33329 224.33468 372.00025 91 420 91 z M 139 538 C 162.33323 540 174.66667 552.66677 176 576 C 174.66667 600.66656 162.33323 613.66667 139 615 C 113.66681 613.66667 101 600.66656 101 576 C 101 552.66677 113.66681 540 139 538 z M 710 541 C 733.9999 542.33333 746.66667 554.66677 748 578 C 746.66667 602.66656 733.9999 615.66667 710 617 C 686.66677 615.66667 674.33333 602.66656 673 578 C 674.33333 554.66677 686.66677 542.33333 710 541 z M 56 712 L 791 712 L 791 777 L 56 777 L 56 712 z M 412 833 L 437 833 L 437 1746 L 412 1746 L 412 833 z " />
</svg>
