<?xml version="1.0" encoding="UTF-8" standalone="no"?>
<!-- Created with Inkscape (http://www.inkscape.org/) -->

<svg
   width="1800"
   height="1800"
   viewBox="0 0 1800 1800"
   version="1.1"
   id="svg10448"
   xmlns="http://www.w3.org/2000/svg"
   xmlns:svg="http://www.w3.org/2000/svg">
  <defs
     id="defs10445" />
  <path
     id="path715-8"
     style="display:inline;fill:#000000;stroke:none;stroke-width:100"
     d="m 562.92377,2.9898184 c -71.333,13.3332996 -177.6671,19.9999996 -319,19.9999996 H 4.9237728 V 339.98982 H 240.92377 c 92.6664,0 159.3335,9.6667 200,29 40.6665,19.3333 74.6668,46.6668 102,82 v 701.00008 h -162.9863 l -174.7813,574.7168 -16.6914,71.8476 814.97663,0.4258 -17.82819,-73.0644 -160.2187,-574.7188 -173.4707,0.793 V 2.9898184 Z M 87.923773,91.989818 H 562.92377 V 350.98982 c -37.3332,-53.3331 -143.6672,-80 -319,-80 H 87.923773 Z M 433.93747,1218.9899 c 8.377,0.1451 20.03601,0.095 30.38761,0.2011 l 97.16162,180.1122 1.91557,327.5929 c -124.3834,0.1963 -252.3118,0.3142 -278.2461,-0.1894 z m 84.78991,0.5097 c 52.8179,0.246 106.55706,-0.2385 157.10106,-0.268 l -79.2362,143.017 z m 241.21793,0.4219 153.4941,505.9942 c -22.849,0.2185 -152.1922,0.6227 -280.0371,0.9082 l -1.91557,-327.5207 99.0702,-180.0833 c 9.83518,-0.1264 19.76593,0.66 29.38837,0.7016 z" />
</svg>
