<?xml version="1.0" encoding="UTF-8" standalone="no"?>
<svg
   width="1140"
   height="1798"
   version="1.1"
   id="svg717"
   xmlns="http://www.w3.org/2000/svg"
   xmlns:svg="http://www.w3.org/2000/svg">
  <defs
     id="defs721" />
  <path
     id="path715"
     style="fill:#000000;stroke:none;stroke-width:100"
     d="M 556.07812 2.9433594 C 484.74503 16.276653 378.41103 22.943359 237.07812 22.943359 L -1.921875 22.943359 L -1.921875 339.94336 L 234.07812 339.94336 C 326.74452 339.94336 393.4116 349.61009 434.07812 368.94336 C 474.74467 388.27663 508.74488 415.61012 536.07812 450.94336 L 536.07812 1151.9434 L 373.0918 1151.9434 L 198.31055 1726.6602 L 181.61914 1798.5078 L 996.5957 1798.9336 L 978.76758 1725.8691 L 818.54883 1151.1504 L 645.07812 1151.9434 L 645.07812 2.9433594 L 556.07812 2.9433594 z M 81.078125 91.943359 L 556.07812 91.943359 L 556.07812 350.94336 C 518.74491 297.61018 412.41094 270.94336 237.07812 270.94336 L 81.078125 270.94336 L 81.078125 91.943359 z M 427.0918 1218.9434 C 457.77414 1219.4751 508.40878 1219.5671 556.58008 1219.6797 L 556.58008 1726.8516 C 432.18452 1727.0479 304.24706 1727.1658 278.31055 1726.6621 L 427.0918 1218.9434 z M 753.09961 1219.875 L 906.59375 1725.8691 C 883.74671 1726.0877 754.41255 1726.4938 626.58008 1726.7793 L 626.58008 1219.9023 C 676.5199 1219.9016 727.68832 1219.8502 753.09961 1219.875 z " />
</svg>
