<?xml version="1.0" encoding="UTF-8" standalone="no"?>
<svg
   width="1800"
   height="1800"
   version="1.1"
   id="svg4"
   sodipodi:docname="US9R118VARA.svg"
   inkscape:version="1.2.1 (9c6d41e410, 2022-07-14)"
   xmlns:inkscape="http://www.inkscape.org/namespaces/inkscape"
   xmlns:sodipodi="http://sodipodi.sourceforge.net/DTD/sodipodi-0.dtd"
   xmlns="http://www.w3.org/2000/svg"
   xmlns:svg="http://www.w3.org/2000/svg">
  <defs
     id="defs8" />
  <sodipodi:namedview
     id="namedview6"
     pagecolor="#ffffff"
     bordercolor="#666666"
     borderopacity="1.0"
     inkscape:showpageshadow="2"
     inkscape:pageopacity="0.0"
     inkscape:pagecheckerboard="0"
     inkscape:deskcolor="#d1d1d1"
     showgrid="false"
     inkscape:zoom="0.27935607"
     inkscape:cx="89.491524"
     inkscape:cy="622.86101"
     inkscape:window-width="1920"
     inkscape:window-height="1017"
     inkscape:window-x="-8"
     inkscape:window-y="-8"
     inkscape:window-maximized="1"
     inkscape:current-layer="svg4" />
  <path
     id="path2"
     style="fill:#000000;stroke:none;stroke-width:100.263"
     d="M 1191.1387 0 C 1175.765 0 1165.4039 11.697076 1160.0566 35.091797 C 1154.0408 59.154937 1151.0332 98.59186 1151.0332 153.40234 C 1145.0174 75.197139 1102.2373 35.426684 1022.6953 34.089844 C 944.49012 38.100367 901.37652 77.870821 893.35547 153.40234 C 893.35547 99.9287 890.34782 61.160796 884.33203 37.097656 C 878.98467 13.702936 868.95916 2.0058594 854.25391 2.0058594 C 840.21707 2.0058594 820.83313 9.6927327 796.10156 25.066406 C 772.03842 41.108499 663.41963 49.128906 470.24609 49.128906 C 321.1883 59.155215 246.6582 96.253498 246.6582 160.42188 C 246.6582 224.59024 321.1883 261.68659 470.24609 271.71289 C 663.41963 271.71289 772.03842 279.39976 796.10156 294.77344 C 820.83313 310.81553 840.21707 318.83789 854.25391 318.83789 C 868.95916 318.83789 879.3182 307.13887 885.33398 283.74414 C 890.68134 261.01784 893.35547 220.91386 893.35547 163.42969 C 898.03441 242.30332 941.14801 283.07632 1022.6953 285.75 C 1102.2373 282.40789 1145.0174 241.63489 1151.0332 163.42969 L 1151.0332 204.53711 C 1151.0332 233.27919 1154.0408 259.01394 1160.0566 281.74023 C 1165.4039 306.4718 1175.765 318.83789 1191.1387 318.83789 C 1204.5071 318.83789 1223.891 310.81553 1249.291 294.77344 C 1274.0226 279.39976 1382.6414 271.71289 1575.1465 271.71289 C 1723.5358 260.34975 1797.7305 222.58439 1797.7305 158.41602 C 1797.7305 94.247643 1723.5358 57.149354 1575.1465 47.123047 C 1382.6414 47.123047 1274.0226 39.436174 1249.291 24.0625 C 1223.891 8.0204067 1204.5071 0 1191.1387 0 z M 1022.6953 84.220703 C 1072.1585 84.889124 1098.2267 110.29034 1100.9004 160.42188 L 1101.9043 160.42188 C 1098.5622 208.54816 1072.1585 233.2784 1022.6953 234.61523 C 972.56379 233.2784 946.16197 208.54816 943.48828 160.42188 C 947.49881 110.29034 973.90063 84.889124 1022.6953 84.220703 z M 793.09375 93.244141 C 824.50953 93.244141 840.88581 115.6377 842.22266 160.42188 C 840.88581 203.86921 824.50953 225.5918 793.09375 225.5918 C 761.67799 225.5918 673.77923 224.58925 529.40039 222.58398 C 385.68996 219.91031 313.83398 199.19027 313.83398 160.42188 C 313.83398 121.65348 385.68996 100.59797 529.40039 97.255859 C 673.77923 94.582177 761.67799 93.244141 793.09375 93.244141 z M 1253.3008 93.244141 C 1284.7165 93.244141 1372.2798 94.246692 1515.9902 96.251953 C 1660.3691 98.925639 1732.5586 119.64762 1732.5586 158.41602 C 1732.5586 197.18442 1660.3691 218.23994 1515.9902 221.58203 C 1372.2798 224.25572 1284.7165 225.5918 1253.3008 225.5918 C 1221.8851 225.5918 1205.5088 203.2002 1204.1719 158.41602 C 1205.5088 114.96868 1221.8851 93.244141 1253.3008 93.244141 z M 179.80859 255.93945 C 65.667638 267.48161 6.6723236 330.96445 2.8261719 446.38672 L 2.8261719 529.10547 L 79.775391 529.10547 L 158.64648 675.30664 L 414.5 675.30664 L 491.44922 529.10547 L 718.44531 529.10547 L 1066.6367 1035.0391 L 1066.6367 1519.416 L 1149.3555 1519.416 L 1149.3555 529.10547 L 1803.416 529.10547 L 1803.416 446.38672 L 362.56055 446.38672 C 353.58323 330.96445 292.66604 267.48161 179.80859 255.93945 z M 179.80859 332.88867 C 245.21538 341.86598 279.19959 379.69866 281.76367 446.38672 L 79.775391 446.38672 C 79.775391 379.69866 113.12059 341.86598 179.80859 332.88867 z M 158.64648 529.10547 L 414.5 529.10547 L 376.02539 596.43555 L 195.19727 596.43555 L 158.64648 529.10547 z M 818.47852 529.10547 L 1068.5586 529.10547 L 1068.5586 892.68555 L 818.47852 529.10547 z M 515.01562 1210.7051 C 426.01324 1210.7051 330.24679 1251.8221 274.12305 1307.9473 C 216.55387 1365.5137 210.03125 1441.2992 210.03125 1498.0098 L 210.03125 1520.1094 L 820 1520.1094 L 820 1498.0098 C 820 1441.2992 815.69024 1365.5137 758.12109 1307.9473 C 701.99735 1251.8221 604.01803 1210.7051 515.01562 1210.7051 z M 1540.8945 1213.6406 L 1540.0039 1214.0859 L 1699.4277 1519.5723 L 1759.5449 1519.5723 L 1600.1211 1213.6406 L 1540.8945 1213.6406 z M 1407.2988 1214.0859 L 1347.1816 1214.5312 L 1506.6055 1520.4629 L 1566.7227 1520.0176 L 1407.2988 1214.0859 z M 515.01562 1252.6953 C 590.04179 1252.6953 683.94987 1291.2352 729.39258 1336.6758 C 769.14664 1376.4319 774.34414 1429.142 775.80273 1478.1191 L 256.44141 1478.1191 C 257.90006 1429.142 263.09755 1376.4319 302.85156 1336.6758 C 348.29423 1291.2352 439.99611 1252.6953 515.01562 1252.6953 z " />
</svg>
