<?xml version="1.0" encoding="UTF-8" standalone="no"?>
<svg
   width="1800"
   height="1798.3217"
   version="1.1"
   id="svg1503"
   xmlns="http://www.w3.org/2000/svg"
   xmlns:svg="http://www.w3.org/2000/svg">
  <defs
     id="defs1507" />
  <path
     id="path1501"
     style="fill:#000000;stroke:none;stroke-width:99.7972"
     d="M 841.86914,0.79882812 403.125,19.052734 c -10.52796,0.392257 -18.87098,9.023219 -18.90625,19.558594 V 250.70312 c -0.0256,9.99273 7.45771,18.41242 17.38477,19.5586 145.58466,17.12777 279.93697,26.91513 435.8125,40.31055 l 3.25976,0.32617 -5.59766,845.97656 c -26.51666,9.9832 -43.86243,38.3828 -51.73437,85.8066 -11.21734,63.8235 -25.23849,136.7203 -42.06445,218.6895 -16.82592,81.9693 -97.52873,122.9551 -242.10742,122.9551 -144.57871,0 -225.28151,-40.9858 -242.10743,-122.9551 -16.82596,-81.9692 -30.84906,-153.3013 -42.0664,-213.9961 C 203.78071,1186.6802 132.11498,1156.332 0,1156.332 v 641.9903 H 1798.5117 V 1156.332 c -133.3613,0 -205.3395,30.3482 -215.9336,91.043 -10.5941,60.6948 -24.3029,131.7132 -41.1289,213.0566 -16.826,81.3437 -97.5288,122.6431 -242.1074,123.8946 -144.5787,0 -225.2814,-40.9858 -242.1074,-122.9551 -16.826,-81.9692 -30.849,-153.9267 -42.0664,-215.8731 -9.963,-55.019 -31.29466,-85.4685 -63.87112,-91.621 L 923.14258,1.4511719 Z M 842.52148,58.841987 842.03711,245.32723 C 700.22879,232.58717 567.27167,220.13852 451.20855,206.97371 L 450.1734,76.336127 Z M 899.25586,1220.1562 c 22.43467,6.2574 37.39098,28.7835 44.86914,67.5782 7.47816,38.7944 20.25374,109.8128 38.32617,213.0566 18.07233,103.2437 123.70353,155.4927 316.89063,156.7442 193.187,0 298.5059,-52.249 315.9551,-156.7442 17.4491,-104.4952 31.4702,-175.2017 42.0644,-212.1191 10.5942,-36.9175 33.3401,-55.377 68.2383,-55.377 v 489.9395 H 72.912109 v -489.9395 c 34.898341,0 57.646091,18.4595 68.240231,55.377 10.59414,36.9174 24.61534,107.6239 42.06446,212.1191 17.44916,104.4952 122.76804,156.7442 315.95508,156.7442 193.18702,-1.2514 298.81636,-53.5003 316.88867,-156.7442 18.07236,-103.2438 30.84795,-174.2622 38.32617,-213.0566 7.47815,-38.7947 22.43446,-61.3209 44.86914,-67.5782 z" />
</svg>
