<?xml version="1.0" encoding="UTF-8" standalone="no"?>
<svg
   width="26.059999"
   height="7.6599998"
   version="1.1"
   id="svg4"
   xmlns="http://www.w3.org/2000/svg"
   xmlns:svg="http://www.w3.org/2000/svg">
  <defs
     id="defs8" />
  <path
     id="path2"
     style="fill:#000000;stroke:none"
     d="M 3.1015625 0.0234375 C 3.0516285 0.025959487 2.9797654 0.054375185 2.8847656 0.109375 C 2.2781007 0.53604041 1.9602605 0.92286567 1.9335938 1.2695312 C 1.9002605 1.6095303 1.8312758 1.8831777 1.7246094 2.0898438 C 1.6179427 2.2965096 1.57375 2.5023183 1.59375 2.7089844 L 0.51367188 2.7089844 L 1.09375 4.6171875 C 0.94576175 4.5513839 0.82168886 4.4765642 0.72460938 4.390625 C 0.32461055 4.0372929 0.10135402 4.0167457 0.0546875 4.3300781 C 0.0080209767 4.6500772 0.034765925 4.8434895 0.13476562 4.9101562 C 0.58143097 5.1968223 1.0701841 5.3902347 1.6035156 5.4902344 C 2.1301808 5.5969011 3.2937554 5.6503906 5.09375 5.6503906 L 5.09375 6.7792969 L 5.5546875 6.7792969 L 6.8339844 5.8203125 L 18.59375 5.8203125 L 18.59375 5.8242188 C 21.456698 5.8242187 24.277112 6.0682012 25.037109 5.4082031 C 25.790441 4.7482051 26.167969 3.9497628 26.167969 3.0097656 C 26.161302 2.0764278 25.985338 1.4252593 25.638672 1.0585938 C 25.292005 0.69859476 24.938125 0.46604137 24.578125 0.359375 C 24.31265 0.3068489 23.892563 0.22815889 23.484375 0.2265625 C 23.239462 0.22560467 22.999941 0.25295198 22.798828 0.33007812 C 22.598828 0.37674468 22.432161 0.46937542 22.298828 0.609375 C 22.158828 0.74937458 22.097188 0.84200501 22.117188 0.88867188 C 22.003858 0.83533883 21.934873 0.87953207 21.908203 1.0195312 C 21.588203 1.1128642 21.427734 1.4163556 21.427734 1.9296875 C 21.561067 1.8496876 21.682397 1.8167443 21.789062 1.8300781 C 21.929062 1.8300781 22.057734 2.0564337 22.177734 2.5097656 C 22.304401 2.956431 22.471069 3.2219269 22.677734 3.3085938 C 22.064404 3.5952596 21.363837 3.9808279 20.738281 4.0742188 C 19.819553 4.2113778 18.566406 4.3789063 18.566406 4.3789062 L 18.568359 4.4902344 L 16.304688 4.4902344 C 16.372426 4.3982574 16.330078 2.4609375 16.330078 2.4609375 C 16.330078 2.4006616 16.138779 2.3574219 16.060547 2.3574219 C 15.982317 2.3574219 15.910156 2.3889468 15.910156 2.4492188 L 15.910156 2.7636719 C 15.869686 2.7313829 15.779306 2.6568898 15.722656 2.6289062 C 15.550005 2.5277354 15.31348 2.4492188 15.041016 2.4492188 L 11.484375 2.4492188 C 10.729028 2.4492188 10.371374 3.0274709 10.363281 3.46875 C 10.368512 3.9170933 10.707586 4.4513505 11.417969 4.4902344 L 6.8339844 4.4902344 L 5.5136719 3.4003906 L 5.09375 3.4003906 L 5.09375 4.6894531 C 4.5641143 4.5109243 4.1614486 4.3661893 3.8496094 4.2460938 L 4.34375 2.7089844 L 3.1738281 2.7089844 C 3.1738281 1.9756532 3.0699473 1.4899994 2.8632812 1.25 C 2.6566154 1.0033339 2.727553 0.65564973 3.0742188 0.20898438 C 3.1675517 0.10898467 3.1911986 0.049296805 3.1445312 0.029296875 C 3.1328643 0.02429688 3.1182068 0.022596881 3.1015625 0.0234375 z M 23.1875 0.6484375 C 23.520833 0.6484375 23.711144 0.87984506 23.757812 1.3398438 C 23.811142 1.7998426 23.471613 2.0982817 22.738281 2.2382812 C 22.858281 2.2916142 22.93542 2.3954953 22.96875 2.5488281 C 22.99542 2.6954944 23.017109 2.8385161 23.037109 2.9785156 C 22.917109 3.0251826 22.815186 3.0096874 22.728516 2.9296875 C 22.648516 2.8496876 22.588828 2.6562752 22.548828 2.3496094 C 22.368828 1.8296109 22.137421 1.5734081 21.857422 1.5800781 L 21.748047 1.5800781 C 21.768047 1.4667454 21.821537 1.4492967 21.908203 1.5292969 C 21.941533 1.449297 22.042319 1.4349483 22.208984 1.4882812 C 22.068986 1.3482817 21.994981 1.225807 21.988281 1.1191406 C 22.101611 1.1324736 22.161269 1.0882815 22.167969 0.98828125 C 22.247969 0.97494776 22.354948 0.91526014 22.488281 0.80859375 C 22.614947 0.70192708 22.847501 0.6484375 23.1875 0.6484375 z M 23.998047 0.69921875 C 24.404711 0.69921875 24.782241 0.89263126 25.128906 1.2792969 C 25.475573 1.6659625 25.651503 2.2492993 25.658203 3.0292969 C 25.664903 3.8026279 25.358281 4.4723975 24.738281 5.0390625 C 24.111617 5.6057274 22.180877 5.3113575 19.074219 5.3046875 L 19.111328 4.7929688 C 19.111328 4.7929688 20.334844 4.6831314 20.800781 4.5742188 C 21.233976 4.4729598 21.442697 4.4460151 21.972656 4.2441406 C 22.495974 4.044797 22.991614 3.8462753 23.238281 3.5996094 C 23.484951 3.3529434 23.538436 2.9785141 23.398438 2.4785156 C 24.145103 2.0918501 24.344713 1.4992164 23.998047 0.69921875 z M 23.019531 0.84375 C 22.837031 0.8475 22.672343 0.87945338 22.527344 0.93945312 C 22.374014 0.99278617 22.298828 1.091615 22.298828 1.2382812 C 22.265498 1.2782812 22.248047 1.3162762 22.248047 1.3496094 C 22.254747 1.3762793 22.278359 1.3824736 22.318359 1.3691406 C 22.351689 1.4091406 22.387739 1.4327841 22.427734 1.4394531 C 22.494404 1.4994531 22.494404 1.5591408 22.427734 1.6191406 C 22.527734 1.7191405 22.601768 1.862162 22.648438 2.0488281 L 22.708984 2.0097656 C 22.688984 1.7364331 22.707588 1.5348694 22.767578 1.4082031 C 22.827578 1.2815369 22.940755 1.2032547 23.107422 1.1699219 C 23.280755 1.1365889 23.384639 1.2416152 23.417969 1.4882812 C 23.444639 1.7282806 23.260519 1.9154953 22.867188 2.0488281 L 22.867188 2.0898438 C 23.42052 1.9298451 23.681766 1.6891397 23.648438 1.3691406 C 23.621768 1.0491415 23.475651 0.8762763 23.208984 0.84960938 C 23.143984 0.84460938 23.080364 0.84250038 23.019531 0.84375 z M 22.548828 1.0195312 C 22.688828 1.0195312 22.757813 1.0854173 22.757812 1.21875 C 22.757812 1.3454167 22.688832 1.4082031 22.548828 1.4082031 C 22.422158 1.4082031 22.357422 1.345416 22.357422 1.21875 C 22.357422 1.0854174 22.422162 1.0195313 22.548828 1.0195312 z M 22.548828 1.0996094 C 22.468828 1.0996094 22.427734 1.1387505 22.427734 1.21875 C 22.427734 1.3054169 22.468824 1.3496094 22.548828 1.3496094 C 22.635498 1.3496094 22.677734 1.3054163 22.677734 1.21875 C 22.677734 1.1387501 22.635494 1.0996094 22.548828 1.0996094 z M 2.3144531 1.3203125 C 2.5611192 1.6203116 2.7041409 1.873412 2.7441406 2.0800781 C 2.7774736 2.2867442 2.7836719 2.4956517 2.7636719 2.7089844 L 1.9648438 2.7089844 C 1.9648437 2.4956517 2.0183336 2.3134892 2.125 2.1601562 C 2.2383327 2.0134901 2.3011201 1.7336446 2.3144531 1.3203125 z M 11.445312 2.8554688 L 14.994141 2.8554688 C 15.707018 2.8394568 15.702321 3.1345661 15.695312 3.6171875 C 15.690713 3.9318728 15.474973 3.9359294 15.021484 4.0566406 L 11.457031 4.0566406 C 10.963358 4.0566406 10.816406 3.8303841 10.816406 3.46875 C 10.892316 2.9626791 10.951493 3.0326823 11.445312 2.8554688 z M 1.2148438 3.21875 L 3.59375 3.21875 L 3.3476562 4.078125 C 3.1302054 4.0191411 2.9004738 3.9742536 2.6542969 3.9492188 C 2.2609648 3.9158858 1.8946866 3.897295 1.5546875 3.890625 C 1.5346875 4.1172911 1.5583381 4.2696097 1.625 4.3496094 C 1.6849999 4.4296093 1.9741421 4.4954954 2.4941406 4.5488281 C 2.8131947 4.5851761 3.0343855 4.6486012 3.1601562 4.7363281 L 3.1035156 4.9296875 L 2.8183594 4.9296875 C 2.3795024 4.9109145 2.0025654 4.865791 1.6855469 4.7988281 L 1.2148438 3.21875 z M 5.5546875 3.9804688 L 6.8339844 4.9394531 L 18.576172 4.9394531 L 18.585938 5.390625 L 6.8339844 5.390625 L 5.5546875 6.1992188 L 5.5546875 3.9804688 z M 15.910156 4.1738281 L 15.910156 4.4902344 L 15.101562 4.4902344 C 15.404309 4.4706155 15.68254 4.3231641 15.910156 4.1738281 z " />
</svg>
