<?xml version="1.0" encoding="UTF-8" standalone="no"?>
<!-- Created with Inkscape (http://www.inkscape.org/) -->

<svg
   sodipodi:docname="US9R15VARA.svg"
   inkscape:version="1.2.1 (9c6d41e410, 2022-07-14)"
   sodipodi:version="0.32"
   id="svg1290"
   height="18"
   width="12.4"
   version="1.1"
   xmlns:inkscape="http://www.inkscape.org/namespaces/inkscape"
   xmlns:sodipodi="http://sodipodi.sourceforge.net/DTD/sodipodi-0.dtd"
   xmlns="http://www.w3.org/2000/svg"
   xmlns:svg="http://www.w3.org/2000/svg"
   xmlns:rdf="http://www.w3.org/1999/02/22-rdf-syntax-ns#"
   xmlns:cc="http://creativecommons.org/ns#"
   xmlns:dc="http://purl.org/dc/elements/1.1/">
  <defs
     id="defs3" />
  <sodipodi:namedview
     inkscape:window-y="-8"
     inkscape:window-x="-8"
     inkscape:window-height="1137"
     inkscape:window-width="1920"
     inkscape:current-layer="layer1"
     inkscape:document-units="px"
     inkscape:cy="4.7994797"
     inkscape:cx="9.7479087"
     inkscape:zoom="30.211608"
     inkscape:pageshadow="2"
     inkscape:pageopacity="0.0"
     borderopacity="1.0"
     bordercolor="#666666"
     pagecolor="#ffffff"
     id="base"
     inkscape:showpageshadow="2"
     inkscape:pagecheckerboard="0"
     inkscape:deskcolor="#d1d1d1"
     showgrid="false"
     inkscape:window-maximized="1" />
  <metadata
     id="metadata4">
    <rdf:RDF>
      <cc:Work
         rdf:about="">
        <dc:format>image/svg+xml</dc:format>
        <dc:type
           rdf:resource="http://purl.org/dc/dcmitype/StillImage" />
        <cc:license
           rdf:resource="http://creativecommons.org/licenses/by/2.0/" />
        <dc:subject>
          <rdf:Bag>
            <rdf:li>JSesh hieroglyph</rdf:li>
          </rdf:Bag>
        </dc:subject>
        <dc:creator>
          <cc:Agent>
            <dc:title>Serge Rosmorduc</dc:title>
          </cc:Agent>
        </dc:creator>
        <dc:description>Sign from Karnak Hypostyle Hall
</dc:description>
      </cc:Work>
      <cc:License
         rdf:about="http://creativecommons.org/licenses/by/2.0/">
        <cc:permits
           rdf:resource="http://web.resource.org/cc/Reproduction" />
        <cc:permits
           rdf:resource="http://web.resource.org/cc/Distribution" />
        <cc:requires
           rdf:resource="http://web.resource.org/cc/Notice" />
        <cc:requires
           rdf:resource="http://web.resource.org/cc/Attribution" />
        <cc:permits
           rdf:resource="http://web.resource.org/cc/DerivativeWorks" />
        <cc:requires
           rdf:resource="http://web.resource.org/cc/ShareAlike" />
      </cc:License>
    </rdf:RDF>
  </metadata>
  <g
     id="layer1"
     inkscape:groupmode="layer"
     inkscape:label="Layer 1">
    <path
       id="path2143"
       style="display:inline;opacity:0.994152;fill:#000000;fill-opacity:1;fill-rule:nonzero;stroke:none;stroke-width:0.573976;stroke-linecap:butt;stroke-linejoin:round;stroke-miterlimit:4;stroke-opacity:1"
       d="m 3.051935,0.03125 c -0.5333318,0 -0.7948281,0.35699183 -0.7988281,1.0703125 L 2.2238099,6.2460938 H 6.5949037 L 6.757013,13.382812 c -1.0701266,0.85529 -2.1327445,1.723689 -3.2089843,2.570313 -0.6022148,0.409911 -1.2970381,0.665992 -2,0.800781 -0.4151348,-0.0043 -0.83751403,-0.299196 -1.24609383,-0.109375 -0.2414544,0.193809 -0.3250598,0.724244 -0.00195,0.886719 0.79322523,0.444694 1.73409723,0.439469 2.59765623,0.267578 0.7766243,-0.137876 1.5619093,-0.218789 2.3417969,-0.333984 0.5338217,-0.0485 1.1102358,-0.15234 1.6035157,0.128906 0.4109745,0.190493 0.8783164,0.510259 1.3339843,0.275391 0.3593669,-0.234355 0.5667349,-0.671469 0.6542969,-1.09375 0.07253,-0.55092 -0.283668,-1.038463 -0.277344,-1.585938 -0.04087,-0.598512 -0.105298,-1.195795 -0.130859,-1.794922 0.01363,-2.032677 0.04145,-4.7805086 0.05273,-7.1484372 h 3.8769531 l -0.0293,-5.1445313 C 12.319425,0.38824183 12.057924,0.03125 11.524591,0.03125 c -0.573331,0 -0.681798,0.38737153 -0.841796,1.2207031 -0.16,0.8399984 -0.07899,3.3774863 -0.458985,3.3789063 l -1.7421871,0.00586 C 8.4820079,2.7546992 8.4625529,1.3798443 8.3956829,1.3847662 7.9117397,1.4013992 7.1905371,1.3939062 6.708183,1.4257822 6.450306,1.5037932 6.4953967,1.8049379 6.4991987,2.0214854 l 0.058594,2.6230468 -2.1835937,0.00781 C 3.9808723,4.6538122 4.0537315,2.1505451 3.8937319,1.3105469 3.7337323,0.47721523 3.625267,0.03125 3.051935,0.03125 Z m 0,0.58984375 c 0.2866664,0 0.5253721,1.60449275 0.5761719,3.34179685 0.024418,0.8351058 0.1535558,1.2317156 0.546875,1.2285156 -0.00278,-0.032409 6.1541861,-0.066934 6.2265681,-0.050777 0.393318,-0.0032 0.510129,-0.3950847 0.568359,-1.2285156 0.138159,-1.977551 0.268022,-3.29101565 0.554687,-3.29101565 0.14,0.02 0.207085,0.18047536 0.208985,0.48046875 l 0.0293,4.5625 -8.9492304,0.029285 0.029297,-4.5917969 C 2.8448325,0.80156901 2.9119354,0.64109371 3.051935,0.62109375 Z M 7.8976381,1.9648438 c -0.00625,0.9511878 -0.00957,1.822028 -0.011719,2.6738281 l -0.78125,0.00391 C 7.083044,3.7126035 7.0622961,2.7665547 7.0499819,1.9960938 Z m -0.7558593,4.28125 h 0.7421875 c -0.00201,2.3413498 4.926e-4,4.5563112 -0.015625,7.2792972 0.059677,0.694092 0.094644,1.392039 0.171875,2.083984 0.04517,0.370189 0.2769526,0.715079 0.2265625,1.09375 -0.091829,0.312407 -0.3118494,0.84241 -0.7050781,0.591797 -0.4639475,-0.186678 -0.9064694,-0.502304 -1.4257813,-0.466797 -0.9460388,-0.0116 -1.8745748,0.209077 -2.8125,0.304687 -0.520606,0.07747 -1.0396152,0.204128 -1.5683594,0.19336 0.914232,-0.21619 1.8188138,-0.582142 2.5390625,-1.22461 0.9805149,-0.796675 1.9628563,-1.589441 2.9414063,-2.388671 0.093446,-0.120181 -0.00446,-3.8391031 -0.09375,-7.4667972 z"
       sodipodi:nodetypes="sccccccccccccccccccscccccccccscscccccccccccccccccccccccccc" />
  </g>
</svg>
