<?xml version="1.0" encoding="UTF-8" standalone="no"?>
<svg
   width="4.27"
   height="17.98"
   version="1.1"
   id="svg528"
   sodipodi:docname="US9R14VARA.svg"
   inkscape:version="1.2.1 (9c6d41e410, 2022-07-14)"
   xmlns:inkscape="http://www.inkscape.org/namespaces/inkscape"
   xmlns:sodipodi="http://sodipodi.sourceforge.net/DTD/sodipodi-0.dtd"
   xmlns="http://www.w3.org/2000/svg"
   xmlns:svg="http://www.w3.org/2000/svg">
  <defs
     id="defs532" />
  <sodipodi:namedview
     id="namedview530"
     pagecolor="#ffffff"
     bordercolor="#000000"
     borderopacity="0.25"
     inkscape:showpageshadow="2"
     inkscape:pageopacity="0.0"
     inkscape:pagecheckerboard="0"
     inkscape:deskcolor="#d1d1d1"
     showgrid="false"
     inkscape:zoom="30.146296"
     inkscape:cx="3.2673998"
     inkscape:cy="3.715216"
     inkscape:window-width="1920"
     inkscape:window-height="1137"
     inkscape:window-x="-8"
     inkscape:window-y="-8"
     inkscape:window-maximized="1"
     inkscape:current-layer="svg528" />
  <path
     id="path526"
     style="fill:#000000;stroke:none"
     d="M 2.2167969 0.0625 C 2.0764898 0.058672051 1.920703 0.090885483 1.7519531 0.16796875 C 1.4386204 0.29463532 0.84616889 0.80667029 0.71679688 1.0488281 C 0.58613436 1.2934016 0.26597313 1.575418 0.20117188 2.7734375 C 0.14594201 3.7945047 0.82119663 6.0958094 1.0234375 6.7578125 C 0.63176954 7.0319945 0.32831597 7.5151934 0.23046875 8.296875 L 0.03125 11.607422 L 1.7910156 11.607422 L 1.5390625 17.300781 C 1.5390625 17.754114 1.7324743 17.980469 2.1191406 17.980469 C 2.5258069 17.980469 2.7304688 17.754114 2.7304688 17.300781 L 2.5410156 11.607422 L 4.3007812 11.607422 L 4.1015625 8.296875 C 4.0166853 6.8921584 3.0623721 6.5332968 2.1972656 6.4667969 C 1.9875732 6.4506779 1.7749438 6.4645006 1.5703125 6.5136719 C 1.4832494 6.2265222 1.454727 5.9582272 1.4882812 5.7089844 C 1.5416142 5.3689847 1.8935427 5.0027075 2.546875 4.609375 C 2.546875 4.609375 2.0028978 2.9671797 2.1328125 2.3164062 C 2.2627273 1.6656328 3.0628164 0.94711841 2.8828125 0.53710938 C 2.7590598 0.25522813 2.5254724 0.070921487 2.2167969 0.0625 z M 2.1621094 0.47460938 C 2.3127863 0.46515626 2.4234376 0.53625015 2.4921875 0.6875 C 2.5921874 0.91416647 1.8543749 1.4306528 1.734375 2.2539062 C 1.6143751 3.0771597 2.1230469 4.4492188 2.1230469 4.4492188 C 1.7097143 4.7158852 1.3798833 5.0582648 1.0839844 5.4121094 C 1.0839844 5.4121094 0.37836604 3.4269171 0.58007812 2.3046875 C 0.78179021 1.182458 1.511641 0.73044248 1.9316406 0.53710938 C 2.0170571 0.49960941 2.0936199 0.47890625 2.1621094 0.47460938 z M 2.1503906 7.1171875 C 2.9837231 7.1171875 3.4271358 7.5040112 3.4804688 8.2773438 L 3.6816406 10.988281 L 0.671875 10.988281 L 0.8515625 8.2773438 C 0.90489578 7.5040112 1.3370581 7.1171875 2.1503906 7.1171875 z " />
</svg>
