<?xml version="1.0" encoding="UTF-8" standalone="no"?>
<!-- Generator: Adobe Illustrator 25.2.3, SVG Export Plug-In . SVG Version: 6.00 Build 0)  -->

<svg
   version="1.1"
   id="Ebene_1"
   x="0px"
   y="0px"
   viewBox="0 0 1800 760"
   xml:space="preserve"
   sodipodi:docname="US9S105VARA.svg"
   width="1800"
   height="760"
   inkscape:version="1.2.1 (9c6d41e410, 2022-07-14)"
   xmlns:inkscape="http://www.inkscape.org/namespaces/inkscape"
   xmlns:sodipodi="http://sodipodi.sourceforge.net/DTD/sodipodi-0.dtd"
   xmlns="http://www.w3.org/2000/svg"
   xmlns:svg="http://www.w3.org/2000/svg"><defs
   id="defs1030" /><sodipodi:namedview
   id="namedview1028"
   pagecolor="#ffffff"
   bordercolor="#000000"
   borderopacity="0.25"
   inkscape:showpageshadow="2"
   inkscape:pageopacity="0.0"
   inkscape:pagecheckerboard="0"
   inkscape:deskcolor="#d1d1d1"
   showgrid="false"
   inkscape:zoom="0.33589188"
   inkscape:cx="826.15871"
   inkscape:cy="253.05762"
   inkscape:window-width="1920"
   inkscape:window-height="1137"
   inkscape:window-x="-8"
   inkscape:window-y="-8"
   inkscape:window-maximized="1"
   inkscape:current-layer="Ebene_1" />

<path
   id="path1104"
   d="m 1559.1182,6.2268271 c 46.3056,-0.970734 98.6823,26.1432489 114.0703,66.5058009 18.601,48.790192 -10.0043,94.865502 -32.3278,114.633462 -27.6029,24.44295 -91.5901,59.06591 -131.5898,65.24081 21.5982,10.3441 63.0421,32.01893 82.8982,44.38853 79.4299,49.48 146.4414,115.6902 204.8613,202.4102 l -43.1309,29.0507 c -97.2019,-144.2884 -219.6001,-228.4349 -393.1289,-269.1601 v 10.8203 c 71.5438,32.0424 148.7023,92.0935 219.1094,170.8594 76.5699,85.6799 141.5698,189.7396 183.0098,293.0195 l -48.2598,19.3594 c -73.3383,-182.7796 -217.7577,-354.6117 -353.8594,-425.4863 l -3.6958,73.73355 -1078.32866,-1.84789 4.05346,-147.70754 c -87.94423,-16.11617 -200.351356,8.25438 -189.391356,132.26428 10.959996,118.0299 56.563866,276.83661 3.77387,276.83661 h -7.4707 C 31.941415,654.17754 38.441762,594.55895 20.511762,485.98905 2.5817614,376.91925 -0.5660756,309.64002 51.733824,250.87002 c 41.8301,-46.8099 62.667476,-69.44654 148.304086,-73.91447 66.20431,-3.45409 59.85189,1.7385 84.25189,5.2285 l -3.04409,-148.470256 1078.32869,1.847885 1.1962,95.297051 c 33.8626,-27.533 96.5939,-91.6755 121.3226,-99.817545 22.2842,-7.337155 56.7725,-24.3881579 77.025,-24.8143579 z m 3.5488,51.9863009 c -14.32,0 -41.7804,5.466041 -64.1029,18.006589 -23.1755,13.019745 -91.1147,78.766413 -125.9946,113.996413 3.38,0.86 6.8411,1.7502 10.371,2.6602 86.75,22.3199 160.5738,11.53939 208.4673,-31.70726 14.1584,-12.78466 45.6271,-43.23084 32.2397,-72.616042 -10.5999,-23.266826 -40.4364,-30.216533 -60.9805,-30.3399 z m -267.3426,41.588751 -949.83849,-1.847885 -2.49957,238.300196 949.83846,1.84789 z"
   sodipodi:nodetypes="cssccccccccccccccscccsccccsccsccsscccccc" /></svg>
