<?xml version="1.0" encoding="UTF-8" standalone="no"?>
<svg
   width="1800"
   height="587.74042"
   version="1.1"
   id="svg1"
   xml:space="preserve"
   xmlns="http://www.w3.org/2000/svg"
   xmlns:svg="http://www.w3.org/2000/svg"><defs
     id="defs1" /><path
     id="path1-7"
     style="fill:#000000;stroke:none;stroke-width:81.9829"
     d="M 1470.5605 0 L 1470.5605 3.0527344 L 329.43359 3.0527344 C 329.17181 36.462071 328.7834 69.878782 328.44336 103.29297 C 264.77571 102.76429 198.39709 115.79231 152.67188 163.18164 C 104.83994 214.59453 89.277872 295.22147 87.074219 409.30664 L 87.285156 409.31055 C 77.309748 419.746 69.198207 435.45835 62.964844 456.49609 C 52.062096 493.29299 34.070604 511.69336 8.9941406 511.69336 C 2.9974874 517.6899 0 525.04925 0 533.77148 C 0 555.03188 18.127055 569.33988 54.378906 576.69922 C 90.630554 584.05868 119.11278 587.74023 139.82812 587.74023 C 159.99837 587.74023 188.20897 584.05868 224.46094 576.69922 C 260.71237 569.33988 278.83984 555.03188 278.83984 533.77148 C 278.83984 525.04925 275.8404 517.6899 269.84375 511.69336 C 244.76731 511.69336 226.77988 493.29299 215.87695 456.49609 C 208.69705 432.26308 198.42102 415.11084 185.09375 404.94531 C 186.88042 305.5138 211.07916 256.44314 238.5293 231.5332 C 265.45781 207.09629 298.58492 202.95564 328.07031 202.63086 C 328.21942 229.84163 328.5702 257.05263 329.43359 284.25586 L 1472.2734 284.25586 L 1472.2734 199.58594 C 1501.6718 199.93946 1534.6396 204.13521 1561.4629 228.47656 C 1588.9129 253.38643 1613.1116 302.45911 1614.8984 401.89062 C 1601.5712 412.05615 1591.2973 429.20839 1584.1172 453.44141 C 1573.2144 490.23829 1555.225 508.63867 1530.1484 508.63867 C 1524.1518 514.63522 1521.1562 521.99261 1521.1562 530.71484 C 1521.1562 551.97524 1539.2797 566.28521 1575.5312 573.64453 C 1611.7831 581.00398 1639.9939 584.68555 1660.1641 584.68555 C 1680.8793 584.68555 1709.3617 581.00398 1745.6133 573.64453 C 1781.8651 566.28521 1799.9922 551.97524 1799.9922 530.71484 C 1799.9922 521.99261 1796.9967 514.63522 1791 508.63867 C 1765.9237 508.63867 1747.9301 490.23829 1737.0273 453.44141 C 1730.7939 432.40367 1722.6825 416.69131 1712.707 406.25586 L 1712.918 406.25195 C 1710.7143 292.16675 1695.152 211.53981 1647.3203 160.12695 C 1600.188 109.46567 1525.9925 99.621732 1472.2734 100.23242 L 1472.2734 3.0527344 L 1470.5898 3.0527344 C 1470.5828 2.0351554 1470.5705 1.017569 1470.5605 0 z M 1416.0527 47.558594 C 1421.6297 99.598053 1415.5561 178.34276 1417.7676 230.56836 L 1360 230.56836 L 1360 47.886719 L 1416.0527 47.558594 z M 1320 48.119141 L 1320 230.56836 L 1286 230.56836 L 1286 48.318359 L 1320 48.119141 z M 1246 48.550781 L 1246 230.56836 L 1020 230.56836 L 1020 49.871094 L 1246 48.550781 z M 980 50.103516 L 980 230.56836 L 924.85742 230.56836 L 924.85742 50.425781 L 980 50.103516 z M 884.85742 50.658203 L 884.85742 230.56836 L 829.71484 230.56836 L 829.71484 50.980469 L 884.85742 50.658203 z M 789.71484 51.212891 L 789.71484 230.56836 L 540 230.56836 L 540 52.671875 L 789.71484 51.212891 z M 500 52.904297 L 500 230.56836 L 464 230.56836 L 464 53.115234 L 500 52.904297 z M 424 53.347656 L 424 230.56836 L 387.93945 230.56836 L 387.93945 53.558594 L 424 53.347656 z M 1472.4727 140.75586 L 1472.4707 140.75781 C 1543.4599 140.87292 1588.3578 156.35238 1617.5977 187.78125 C 1651.8823 224.63306 1668.5451 290.00908 1671.8945 391.70508 L 1681.4258 426.45898 C 1695.5994 430.54753 1705.4099 445.12865 1710.8613 470.20508 C 1716.3127 495.28149 1732.3957 517.08833 1759.1074 535.62305 C 1734.5763 547.61611 1701.5965 553.61133 1660.166 553.61133 C 1619.2806 553.61133 1586.2971 547.61611 1561.2207 535.62305 C 1588.4776 517.08833 1604.832 495.28149 1610.2832 470.20508 C 1615.7347 445.12865 1625.4135 430.54753 1639.3145 426.45898 L 1655.2891 391.70508 C 1652.007 291.44505 1625.8875 232.10903 1588.75 198.4082 C 1551.1229 164.26291 1505.491 159.34623 1472.2734 158.98633 L 1472.2734 140.75977 C 1472.3409 140.75777 1472.4077 140.75586 1472.4727 140.75586 z M 328.04297 143.82031 C 328.00967 149.89094 328.07103 155.96075 328.05273 162.03125 C 294.80916 162.36344 248.99321 167.21057 211.24609 201.46484 C 174.10873 235.16562 147.98905 294.49979 144.70703 394.75977 L 160.68164 429.51367 C 174.58271 433.60224 184.25946 448.1853 189.71094 473.26172 C 195.16201 498.33812 211.51841 520.14302 238.77539 538.67773 C 213.69892 550.6708 180.71541 556.66602 139.83008 556.66602 C 98.399404 556.66602 65.418006 550.6708 40.886719 538.67773 C 67.598615 520.14302 83.681438 498.33812 89.132812 473.26172 C 94.584288 448.1853 104.39671 433.60224 118.57031 429.51367 L 128.10156 394.75977 C 131.451 293.06371 148.11569 227.68773 182.40039 190.83594 C 194.23044 178.12017 226.57848 143.88161 328.04297 143.82031 z " /></svg>
