<?xml version="1.0" encoding="UTF-8" standalone="no"?>
<svg
   width="885"
   height="1789"
   version="1.1"
   id="svg6103"
   xmlns="http://www.w3.org/2000/svg"
   xmlns:svg="http://www.w3.org/2000/svg">
  <defs
     id="defs6107" />
  <path
     style="fill:#000000;stroke:none;stroke-width:100"
     d="M 64,413 C 73.333333,180.33333 214.04968,57.438139 455.17924,62 696.30881,66.561861 813.88312,215.65251 819,413 Z m 821,57 C 883.66667,156.66667 736.33333,0 443,0 147.66667,0 0,156.66667 0,470 l 133.95827,0.39132 -0.22026,199.52273 89.30454,1.60868 1.59694,-202.47907 L 397,472 v -2 l -9,1243 c 0,50.6667 18.33333,76 55,76 36,0 54,-25.3333 54,-76 L 488,470 v 2 l 181.95713,0.0993 0.26106,197.81479 h 77.82645 L 747.82437,472 Z"
     id="path6101" />
</svg>
