<?xml version="1.0" encoding="UTF-8" standalone="no"?>
<svg
   width="1098.0095"
   height="1797.7578"
   id="svg2034"
   version="1.1"
   xml:space="preserve"
   xmlns="http://www.w3.org/2000/svg"
   xmlns:svg="http://www.w3.org/2000/svg"
   xmlns:rdf="http://www.w3.org/1999/02/22-rdf-syntax-ns#"
   xmlns:cc="http://creativecommons.org/ns#"
   xmlns:dc="http://purl.org/dc/elements/1.1/"><metadata
     id="metadata2041"><rdf:RDF><cc:Work
         rdf:about=""><dc:format>image/svg+xml</dc:format><dc:type
           rdf:resource="http://purl.org/dc/dcmitype/StillImage" /></cc:Work></rdf:RDF></metadata><defs
     id="defs2039" /><path
     id="path2036"
     style="display:inline;fill:#000000;stroke:none;stroke-width:63.2475"
     d="m 1035.5485,0.04296766 c -3.6718,-0.1138729 -7.4454,-0.00168 -11.3164,0.3398438 L 711.36101,557.81641 c -17.20723,27.13182 -542.40625,25.95898 -542.40625,25.95898 18.16838,103.90037 31.37853,186.58306 40.69922,252.61524 -20.83828,-1.99631 -99.42695,10.8702 -99.17245,-9.20253 0.18769,-14.80364 37.59912,-42.32384 47.65056,-67.40685 10.05144,-25.08301 5.2518,-33.86634 6.1543,-55.17969 0.9024,-21.31372 -3.19445,-41.38323 -12.27344,-60.18359 -4.92354,-8.19937 -24.13705,-37.16606 -53.7793,-44.50586 -8.451792,-2.09277 -18.342371,-3.02053 -29.69336,-2.83398 -14.577572,0.24041 -26.561837,6.17116 -34.285156,10.94726 -11.510987,7.11931 -20.281052,14.94684 -26.2480456,23.50196 -5.967194,8.55454 -8.59183702,17.25089 -7.89843702,26.08789 5.10279402,5.5539 11.12424662,8.41602 18.05663962,8.57617 6.932594,0.16005 19.406677,-0.8584 37.380859,-3.0332 -9.68309,20.67482 -14.081691,44.39172 -14.593032,68.20905 -0.492844,22.95575 -11.586457,79.5516 11.97372,131.3931 17.510983,36.31994 124.894782,24.07806 163.514252,23.69277 2.33649,18.78894 4.46253,36.6734 5.79882,51.18164 71.95618,-5.46501 143.91109,13.20815 215.86719,56.01758 13.66256,-18.21682 28.46466,-27.32422 44.4043,-27.32422 15.93964,0 24.13848,8.65313 24.59375,25.95898 -27.80005,44.39039 -68.55648,87.48529 -82.66016,137.99219 l 168.625,88.0195 c 3.20536,1.4023 7.49347,-0.5208 12.09375,-4.2051 29.99874,-6.8956 161.555,-76.0995 165.2793,-50.7676 30.02265,204.2077 12.09474,408.063 8.07617,613.2129 l -0.41602,21.2188 236.47071,-0.07 c -85.73869,-321.9386 -74.44503,-406.6383 -203.03125,-675.1074 -15.52906,-32.4224 -142.9933,17.6234 -166.3418,24.3593 L 1098.0095,35.904296 C 1082.0699,12.791748 1061.2511,0.83987986 1035.5485,0.04296766 Z m -1.75,53.62500034 16.3946,6.832031 L 584.37468,1167.1758 c -8.33546,-5.412 -81.09379,-39.7893 -96.33984,-57.6036 0,-11.8411 8.37999,-19.9002 32.73242,-52.3886 25.6091,-34.1651 52.86461,-69.66907 21.85937,-115.45704 C 519.38973,907.41083 482.14201,888.22825 428.5446,925.33008 385.73527,899.8267 344.302,887.07422 276.90007,887.07422 265.05933,783.23875 251.85047,717.67849 237.27702,635.70313 h 487.7461 z M 812.34929,1205.5254 c 78.29735,165.1943 105.50133,367.8475 141.96289,547.3847 l -134.90039,3.2129 c 2.05112,-172.4229 17.90205,-375.5621 -7.0625,-550.5976 z" /></svg>
