<?xml version="1.0" encoding="UTF-8" standalone="no"?>
<svg
   width="14.97"
   height="17.98"
   version="1.1"
   id="svg3574"
   sodipodi:docname="US9S46VARA.svg"
   inkscape:version="1.2.1 (9c6d41e410, 2022-07-14)"
   xmlns:inkscape="http://www.inkscape.org/namespaces/inkscape"
   xmlns:sodipodi="http://sodipodi.sourceforge.net/DTD/sodipodi-0.dtd"
   xmlns="http://www.w3.org/2000/svg"
   xmlns:svg="http://www.w3.org/2000/svg">
  <defs
     id="defs3578" />
  <sodipodi:namedview
     id="namedview3576"
     pagecolor="#ffffff"
     bordercolor="#000000"
     borderopacity="0.25"
     inkscape:showpageshadow="2"
     inkscape:pageopacity="0.0"
     inkscape:pagecheckerboard="0"
     inkscape:deskcolor="#d1d1d1"
     showgrid="false"
     inkscape:zoom="22.607389"
     inkscape:cx="4.6002658"
     inkscape:cy="11.854531"
     inkscape:window-width="1920"
     inkscape:window-height="1017"
     inkscape:window-x="1072"
     inkscape:window-y="-8"
     inkscape:window-maximized="1"
     inkscape:current-layer="svg3574" />
  <path
     id="path3572"
     style="fill:#000000;stroke:none;stroke-width:0.991593"
     d="M 11.845703,0 C 11.009698,0.05269078 10.428627,0.72788014 10.103516,2.0253906 9.9310057,2.6181618 9.6617977,3.0566307 9.296875,3.3398438 8.9253169,3.6230567 8.6683189,4.0118155 7.6881013,4.8775992 6.288124,5.8260331 5.2132428,6.8964078 4.463492,8.0885367 3.01707,7.4299018 2.1386165,6.9036395 1.8267732,6.5084585 1.508295,6.1132776 1.3959931,5.6493747 1.4888826,5.1158804 1.6083118,4.3189324 2.0262128,3.9702102 2.7427888,4.0690054 3.4593649,4.1678006 3.7774865,4.4764183 3.697867,4.9967398 3.6248823,5.5170613 3.4014561,5.7537819 3.0298982,5.7076773 2.6583403,5.6615728 2.5065172,5.3962385 2.572867,4.9088492 L 2.0455232,4.8775992 C 1.9327288,5.7206516 2.244589,6.1960458 2.9810701,6.3014273 3.7241858,6.4068089 4.1577403,6.0020858 4.2838044,5.0865835 4.4165038,4.1710814 3.9070382,3.6301484 2.7525544,3.4654898 1.6047058,3.2942448 0.94459475,3.8109695 0.77208567,5.0162711 0.66592627,5.7012513 0.81774916,6.3045434 1.2291169,6.8248648 1.6471196,7.3451863 2.609699,7.9484784 4.1158357,8.6334585 3.3620314,9.8719925 3.3248073,11.911722 3.1971612,13.84375 H 0.28320312 c -0.13506008,0 -0.24412771,0.08461 -0.24414062,0.189453 0,0.937408 1.0640517,1.889186 2.4960937,2.634766 1.4320412,0.74558 3.265661,1.28125 4.9492188,1.28125 1.6835578,0 3.515224,-0.53567 4.947266,-1.28125 1.432041,-0.74558 2.498046,-1.697358 2.498047,-2.634766 0,-0.104834 -0.109082,-0.189443 -0.244141,-0.189453 l -1.018684,0.0065 C 13.104135,12.740416 11.850248,11.281409 10.173828,10.71875 10.697992,8.9206774 11.034895,7.1655753 11.1875,5.453125 11.340105,4.5837271 11.497011,3.9982845 11.65625,3.6953125 11.815489,3.3923405 12.16687,3.0626941 12.710938,2.7070312 13.248364,2.3579549 13.447929,1.8074843 13.308594,1.0566406 13.16926,0.29921069 12.681708,-0.05269078 11.845703,0 Z m 0.203125,0.49609375 c 0.409295,0.0144076 0.666985,0.24169544 0.771484,0.67968745 C 12.946377,1.68293 12.75308,2.087653 12.242188,2.390625 11.73793,2.693597 11.350159,3.1384245 11.078125,3.7246094 10.812726,4.3173806 10.651512,4.8932855 10.591797,5.453125 10.372843,6.9811577 9.9944635,8.6643621 9.4570312,10.501953 9.1483911,11.557258 8.7757098,12.675489 8.3554688,13.84375 H 5.4648438 L 4.0066598,13.823 c 0,0 -0.021004,-3.44095 0.7751915,-4.8438423 C 5.5780469,7.5762697 6.5707554,6.4225069 7.7584138,5.5201773 8.7386317,4.756161 9.077802,4.2808347 9.6152344,3.8922402 10.152665,3.5036457 10.521653,2.7632893 10.720703,2.0058594 c 0.245494,-0.9484341 0.627005,-1.44926237 1.144531,-1.50195315 0.06469,-0.006586 0.125123,-0.009871 0.183594,-0.007813 z M 9.984375,11.332031 c 1.594333,1.551628 1.210119,1.627639 1.430642,2.533839 L 9.171875,13.84375 c 0.32007,-0.887963 0.5922487,-1.725893 0.8125,-2.511719 z m 1.292969,0.484375 c 0.939368,0.632408 1.223512,1.130833 1.854331,2.049464 h -1.072127 c -0.08918,-0.50963 0.0066,-0.960291 -0.782204,-2.049464 z M 0.71040782,14.312422 c 1.77734378,0 3.41106108,0.01795 5.18840488,0.01795 1.0507812,0 2.0836092,0.05386 3.1343904,0.05386 l 5.2590929,-0.05386 c -0.144607,0.668697 -1.089135,1.213755 -2.329626,1.859606 -1.479599,0.666539 -2.8271309,1.22469 -4.4342007,1.146937 C 5.8765926,17.256998 4.2201691,16.825054 2.8624537,16.118169 1.6219634,15.472318 0.85501435,14.981119 0.71040782,14.312422 Z"
     sodipodi:nodetypes="sccccccscscccccccccscssssccccsccssccccscccscscsscccccccccccccssc" />
</svg>
