<?xml version="1.0" encoding="UTF-8" standalone="no"?>
<!-- Created with Inkscape (http://www.inkscape.org/) -->

<svg
   width="7.8000002"
   height="18"
   id="svg1290"
   sodipodi:version="0.32"
   inkscape:version="1.2.1 (9c6d41e410, 2022-07-14)"
   sodipodi:docname="US9S33VARA.svg"
   version="1.1"
   xmlns:inkscape="http://www.inkscape.org/namespaces/inkscape"
   xmlns:sodipodi="http://sodipodi.sourceforge.net/DTD/sodipodi-0.dtd"
   xmlns="http://www.w3.org/2000/svg"
   xmlns:svg="http://www.w3.org/2000/svg"
   xmlns:rdf="http://www.w3.org/1999/02/22-rdf-syntax-ns#"
   xmlns:cc="http://creativecommons.org/ns#"
   xmlns:dc="http://purl.org/dc/elements/1.1/">
  <defs
     id="defs3" />
  <sodipodi:namedview
     id="base"
     pagecolor="#ffffff"
     bordercolor="#666666"
     borderopacity="1.0"
     inkscape:pageopacity="0.0"
     inkscape:pageshadow="2"
     inkscape:zoom="35.582879"
     inkscape:cx="8.5012795"
     inkscape:cy="11.044638"
     inkscape:document-units="px"
     inkscape:current-layer="layer1"
     inkscape:window-width="1920"
     inkscape:window-height="1137"
     inkscape:window-x="-8"
     inkscape:window-y="-8"
     inkscape:showpageshadow="2"
     inkscape:pagecheckerboard="0"
     inkscape:deskcolor="#d1d1d1"
     showgrid="false"
     inkscape:window-maximized="1" />
  <metadata
     id="metadata4">
    <rdf:RDF>
      <cc:Work
         rdf:about="">
        <dc:format>image/svg+xml</dc:format>
        <dc:type
           rdf:resource="http://purl.org/dc/dcmitype/StillImage" />
        <cc:license
           rdf:resource="http://creativecommons.org/licenses/by/2.0/" />
        <dc:subject>
          <rdf:Bag>
            <rdf:li>JSesh hieroglyph</rdf:li>
          </rdf:Bag>
        </dc:subject>
        <dc:creator>
          <cc:Agent>
            <dc:title>Serge Rosmorduc</dc:title>
          </cc:Agent>
        </dc:creator>
        <dc:description>Sign from Karnak Hypostyle Hall
</dc:description>
      </cc:Work>
      <cc:License
         rdf:about="http://creativecommons.org/licenses/by/2.0/">
        <cc:permits
           rdf:resource="http://web.resource.org/cc/Reproduction" />
        <cc:permits
           rdf:resource="http://web.resource.org/cc/Distribution" />
        <cc:requires
           rdf:resource="http://web.resource.org/cc/Notice" />
        <cc:requires
           rdf:resource="http://web.resource.org/cc/Attribution" />
        <cc:permits
           rdf:resource="http://web.resource.org/cc/DerivativeWorks" />
        <cc:requires
           rdf:resource="http://web.resource.org/cc/ShareAlike" />
      </cc:License>
    </rdf:RDF>
  </metadata>
  <g
     inkscape:label="Layer 1"
     inkscape:groupmode="layer"
     id="layer1">
    <path
       id="path1429"
       style="color:#000000;display:inline;overflow:visible;visibility:visible;fill:#000000;fill-opacity:1;fill-rule:nonzero;stroke:none;stroke-width:31.0592;stroke-linecap:square;stroke-linejoin:round;stroke-miterlimit:4;stroke-dashoffset:0;stroke-opacity:1;marker:none;marker-start:none;marker-mid:none;marker-end:none"
       d="m 3.5991166,0.02929688 c -1.2844425,0 -2.7578125,0.73341775 -2.75781251,2.24023432 C 0.76772217,3.1893033 0.86184724,4.1157939 0.95849159,5.03125 1.225463,7.1178853 1.9732728,9.0921523 2.6459916,11.078125 L 0.94481972,10.103516 -0.01221153,10.427734 2.8998979,12.34375 c -3.19511519,3.809943 -0.720702,5.644531 0.8515625,5.644531 1.98242,0 4.0291452,-2.018025 0.9433593,-5.701172 L 7.7436479,10.433594 6.7866166,10.109375 4.8413041,11.134766 C 5.226669,10.033229 6.5452999,6.1696916 6.6245073,3.8925781 6.6949184,2.8975019 6.7928302,1.7785064 6.120601,0.9453125 5.700959,0.37326996 4.8715709,0.02929688 3.5991166,0.02929688 Z M 3.5913041,0.6875 c 0.6782852,0 1.4334466,0.12242974 1.8164063,0.5507812 C 5.9329396,1.7561529 6.1019842,2.409942 6.0522416,3.109375 6.0426816,4.7171803 5.6641282,6.2892615 5.1889604,7.8242188 4.82358,9.0654378 4.4769987,10.30611 4.0795854,11.537109 l -0.1367188,0.07031 -0.34375,0.01367 -0.1582031,-0.08984 C 3.3357724,11.205962 1.6638369,6.1466216 1.4467729,3.6464844 1.4319623,2.8589808 1.407944,2.0599625 1.9526323,1.4042969 2.2894445,0.94687452 2.9010401,0.6875 3.5913041,0.6875 Z M 3.918433,12.874013 c 3.1209114,3.027543 1.0634951,4.434581 -0.1669726,4.434581 v -0.02148 c -1.2304678,0 -3.01929723,-1.165995 -0.1484201,-4.413096 z"
       sodipodi:nodetypes="sccccccsccccccsscccccccccsccccc" />
  </g>
</svg>
