<?xml version="1.0" encoding="UTF-8" standalone="no"?>
<svg
   width="1800.7388"
   height="1208.4913"
   version="1.1"
   id="svg1370"
   xmlns="http://www.w3.org/2000/svg"
   xmlns:svg="http://www.w3.org/2000/svg">
  <defs
     id="defs1374" />
  <path
     id="path1368"
     style="fill:#000000;stroke:none;stroke-width:95.0645"
     d="M 1028.6965,0 C 857.58114,0 723.43549,38.86712 604.28851,160.54919 525.59994,241.90674 495.72615,304.71264 454.90414,425.44741 c -19.14845,50.39508 -30.06111,155.0124 -25.24698,228.77373 3.90964,97.30669 26.24758,164.8269 80.47859,247.84154 -45.17934,26.97059 -136.84105,39.70159 -231.95077,30.46569 -40.02656,-0.7388 -70.28765,-40.85548 -47.24444,-77.21385 32.30747,-88.98956 77.63644,-140.37141 116.36621,-226.44584 47.25542,-87.90352 71.1868,-194.56534 37.8364,-291.34477 C 363.6833,274.88669 314.8677,223.41123 253.39344,198.61465 227.97412,185.67916 199.60712,179.40584 171.09953,180.1922 109.82147,182.95904 38.002676,198.2616 3.8881798,254.76768 -11.935911,282.76355 24.056518,308.67231 48.692885,315.83175 78.625305,327.18716 109.19219,336.75824 139.73013,346.32851 79.61697,392.96986 47.905704,467.33119 42.671511,541.96638 31.503726,654.61245 30.730785,768.10053 32.609906,881.18317 c 2.63724,72.4312 39.575921,145.95113 106.295824,178.99413 45.22033,24.1184 96.61539,33.5011 147.30724,36.7762 216.33389,12.9178 298.97318,-4.5673 356.18856,-31.6613 117.12139,112.2255 210.80662,143.1992 376.87727,143.1992 168.5805,0 291.4365,-54.8653 415.6538,-174.0124 107.7621,-103.91373 168.4657,-228.85026 182.2638,-374.73781 49.8099,88.40394 2.4213,124.11415 22.7769,321.51918 102.0352,-14.5765 132.3771,-32.1118 160.7655,-49.7774 -26.3561,-117.42621 67.5302,-356.48755 -182.0291,-383.33115 -1.2841,-20.1989 -3.39,-39.99171 -6.3871,-59.34288 h 0.3806 c 84.6827,0 98.5026,12.4404 186.5956,56.16991 V 308.2683 c -87.7847,41.05026 -116.5986,70.10252 -214.5358,71.18864 C 1554.2084,294.61455 1503.9746,219.50866 1433.9819,154.18198 1310.3985,38.83753 1197.2768,0 1028.6965,0 Z m 1.7292,94.532126 c 148.9337,0 239.991,32.472514 351.533,143.380654 60.5782,68.40667 91.5969,131.13816 105.143,189.10425 17.7325,51.72759 37.0571,137.45883 28.7762,220.98389 -11.4748,130.14349 -63.8497,218.73324 -165.6267,315.44985 -100.8308,91.78593 -181.0607,136.49703 -323.023,136.49703 -155.27134,0 -228.31652,-24.1069 -321.36983,-119.23386 C 610.74929,883.48544 547.1825,786.23489 534.88565,656.79832 528.45964,542.85344 548.23826,368.8119 680.97749,228.04953 790.61805,117.1414 875.15431,94.532126 1030.4257,94.532126 Z M 167.47521,220.75057 c 49.23439,-1.56232 97.24925,24.97388 123.99601,65.49608 C 236.39607,298.43442 178.42342,309.6383 121.718,301.82645 87.958992,300.4141 44.263546,256.01878 93.072395,237.06935 116.15221,226.4116 142.12297,221.23876 167.47521,220.75057 Z m -4.28719,16.48589 c -28.02392,0.18088 -49.12762,43.55383 -9.26878,39.63371 -5.96092,-19.10872 17.32534,-46.87924 19.79272,-13.89204 0.66302,30.79457 58.5781,1.19308 19.84842,-15.41085 -6.92487,-5.65689 -15.5384,-10.07057 -24.69077,-9.76453 -1.91375,-0.39867 -3.81332,-0.57835 -5.68159,-0.56629 z m 119.08869,128.12165 c 40.35446,6.58822 47.03469,55.46513 45.70335,89.00412 -9.87064,82.30989 -49.16142,157.237 -84.34001,231.12737 -37.83152,76.86447 -71.36442,127.70015 -82.25442,213.89806 -6.74218,36.05151 20.93712,66.96941 54.24247,75.80641 28.1477,9.7675 70.17911,22.2188 99.76672,24.2287 169.93309,-1.9574 179.78986,-15.8555 231.50935,-37.4726 23.49777,34.4277 22.41073,28.8454 54.68499,60.78023 -78.75107,26.8204 -236.83573,27.6479 -338.66884,17.4258 -55.9268,-6.1239 -122.5924,-19.1159 -151.62784,-73.09013 C 79.614869,880.06657 85.288405,784.82895 92.922003,694.0714 101.12698,614.718 111.28256,534.42619 137.43334,458.75154 c 22.26787,-58.04973 84.22733,-93.55197 144.84337,-93.39343 z m 1468.53919,16.10984 v 85.55803 c -55.7312,-22.16576 -79.1015,-20.05673 -147.3482,-23.84241 -1.2691,-5.42542 -2.6154,-10.81273 -4.0291,-16.16654 52.0629,-2.83037 110.6916,-16.75658 151.3773,-45.54908 z m -130.6098,215.48611 c 174.7993,27.64719 116.7043,176.05351 126.3377,312.0082 l -70.5523,17.16891 c -7.3284,-120.8602 49.0412,-227.05904 -56.0638,-314.42168 0.1191,-4.90657 0.2593,-9.80421 0.2784,-14.75543 z" />
</svg>
