<?xml version="1.0" encoding="UTF-8" standalone="no"?>
<svg
   width="1800"
   height="1181.7671"
   id="svg1333"
   version="1.1"
   xmlns="http://www.w3.org/2000/svg"
   xmlns:svg="http://www.w3.org/2000/svg"
   xmlns:rdf="http://www.w3.org/1999/02/22-rdf-syntax-ns#"
   xmlns:cc="http://creativecommons.org/ns#"
   xmlns:dc="http://purl.org/dc/elements/1.1/">
  <metadata
     id="metadata1340">
    <rdf:RDF>
      <cc:Work
         rdf:about="">
        <dc:format>image/svg+xml</dc:format>
        <dc:type
           rdf:resource="http://purl.org/dc/dcmitype/StillImage" />
        <dc:date>10/01/2006</dc:date>
        <dc:creator>
          <cc:Agent>
            <dc:title>Serge Thomas</dc:title>
          </cc:Agent>
        </dc:creator>
        <dc:publisher>
          <cc:Agent>
            <dc:title>Serge Rosmorduc</dc:title>
          </cc:Agent>
        </dc:publisher>
        <dc:identifier>US22</dc:identifier>
        <dc:description>réfection de V29 d'origine pour l'harmoniser avec les autres signes et réduire les nodes.</dc:description>
      </cc:Work>
    </rdf:RDF>
  </metadata>
  <defs
     id="defs1338" />
  <path
     id="path1335"
     style="fill:#000000;stroke:none;stroke-width:100.248"
     d="M 434.96875,1.0332031 C 419.13945,1.5958919 401.56228,7.8817944 382.23633,19.892578 L 10.818359,821.53125 c -19.2233179,47.48185 -12.8278017,76.13054 19.183594,85.94531 32.011328,9.81477 55.41394,-4.14569 70.210937,-41.88086 -13.502405,37.56697 -4.247712,61.25952 27.76367,71.07422 32.01127,9.81471 55.41577,-4.14564 70.21289,-41.88086 -12.03869,38.68695 -0.5122,62.95514 34.57617,72.80664 35.57648,10.22484 58.67911,-9.37287 69.3086,-58.79492 L 466.23828,128.20312 681.60156,485.8457 c -87.31417,63.01414 -135.53515,166.7936 -135.53515,289.52149 0,176.81207 84.03656,264.38181 162.66211,293.75191 l 13.21093,9.5235 H 546.06641 v 103.125 h 711.32809 v -103.125 h -179.4121 l 9.959,-7.1797 c 73.5101,-27.9239 169.4531,-112.35245 169.4531,-296.09571 2.0394,-179.03558 -97.7551,-351.25125 -354.87888,-354.6875 C 842.449,420.5397 789.0331,431.43541 742.91602,451.25391 L 499.54688,45.917969 C 482.87735,15.056774 461.35092,0.09538868 434.96875,1.0332031 Z M 414.90234,70.021484 c 12.0947,-1.899548 20.50873,11.418493 25.24219,39.955076 L 380.55859,388.27734 269.52148,354.88672 401.58203,76.992188 c 4.84949,-4.014977 9.28876,-6.337519 13.32031,-6.970704 z M 252.81055,393.08984 277.38281,399.72266 77.158203,840.42383 C 67.312321,865.72381 56.356524,875.88128 44.291016,870.89844 32.169228,865.48631 30.666243,852.363 39.78125,831.52539 Z m 43.79492,12.65039 24.57226,6.63282 -144.10156,456.99023 c -7.25662,24.96347 -18.85925,35.20649 -34.80859,30.72852 -16.00565,-4.90733 -20.35206,-19.628 -13.03906,-44.16211 z m 47.84961,13.4336 26.51172,6.38086 -97.85547,473.25195 c -5.28571,29.94798 -16.39131,42.31051 -33.31641,37.08594 -16.49357,-5.28073 -20.71788,-22.41977 -12.67383,-51.41602 z m 823.43362,356.19336 c -0.9357,95.59325 -37.4871,170.70127 -100.6914,215.98633 C 972.56739,837.93674 851.09609,637.25399 790.48828,530.48828 c 32.98051,-12.52585 70.54553,-19.18359 112.02734,-19.18359 179.54448,7.07893 260.66438,123.6776 265.37308,264.0625 z M 729.04297,564.63086 c 25.29208,46.70384 134.46068,223.29245 276.08793,458.48824 -30.68499,10.6404 -65.03889,16.3106 -102.61528,16.3106 -173.1795,-2.0134 -263.29685,-115.32591 -265.37304,-264.06251 -0.60062,-92.03698 32.76762,-165.01772 91.90039,-210.73633 z" />
</svg>
