<?xml version="1.0" encoding="UTF-8" standalone="no"?>
<!-- Created with Inkscape (http://www.inkscape.org/) -->

<svg
   width="1794.3282"
   height="939.16504"
   viewBox="0 0 1794.3282 939.16504"
   version="1.1"
   id="svg10448"
   xmlns="http://www.w3.org/2000/svg"
   xmlns:svg="http://www.w3.org/2000/svg">
  <defs
     id="defs10445" />
  <path
     id="path489"
     style="color:#000000;fill:#000000;stroke-width:0.979475;stroke-linecap:square;-inkscape-stroke:none"
     d="m 1563.2947,21.39341 c -66.3649,10e-6 -126.282,28.22782 -168.4773,73.250143 L 425.65447,0 l -1.7772,100.66005 c -124.7375,3.38329 -255.6571,39.53473 -345.878798,129.16051 -78.2141,91.2124 -92.2576,223.8692 -65.686,337.6565 22.7005,98.3648 96.335098,192.2575 189.102298,237.6979 177.2602,86.8278 412.8652,130.8389 611.6735,133.871 175.3549,1.7407 351.71003,-15.5089 521.96783,-58.1505 69.3744,-18.6389 103.8125,-94.0027 97.6797,-161.3895 5.2589,-108.1263 -94.8165,-200.5154 -200.7751,-198.707 -263.81663,-15.6985 -552.81893,7.1209 -815.86373,23.0024 -83.6597,-6.0021 -118.7395,-36.7815 -132.3324,-88.9423 -14.1961,-54.476 56.8828,-84.1987 97.0079,-98.9234 4.5781,-3.7737 30.9858,-6.6316 37.2413,-7.5547 l -1.4768,100.702 25.4893,-0.4208 939.57203,-53.8671 c 42.348,53.9088 108.0513,88.6634 181.6964,88.6634 127.3058,10e-5 231.0335,-103.7277 231.0335,-231.0335 10e-5,-127.30563 -103.7277,-231.03159 -231.0335,-231.03155 z m 0,48.97371 c 100.8384,-3e-5 182.0598,81.21952 182.0597,182.05784 0,100.8384 -81.2213,182.0598 -182.0597,182.0598 -100.8385,0 -182.0598,-81.2214 -182.0599,-182.0598 0,-100.83832 81.2214,-182.05782 182.0599,-182.05784 z M 473.39807,52.50137 1360.995,141.05571 c -18.2869,33.05915 -28.7339,71.02155 -28.7339,111.36925 10e-5,33.3715 7.1853,65.0916 19.9971,93.779 l -885.55573,53.0694 z m -62.8929,117.35509 c -0.8424,37.9119 -1.6848,75.8238 -2.5271,113.7358 -61.5477,13.9723 -131.8969,23.9858 -176.8009,72.3663 -31.8669,50.4866 -39.9825,126.819 0.8303,178.8777 64.1094,81.7746 119.4597,115.9779 266.7231,116.7359 209.299,1.0773 367.4042,-21.0636 576.55433,-3.52 135.0335,11.3266 197.0373,-10.5887 197.5746,68.965 0.5374,79.5539 -156.5318,69.6377 -337.17633,82.603 -164.5582,11.8107 -306.4061,-7.332 -473.3195,-23.0541 -135.2178,-12.7365 -236.6746,-84.3083 -316.9881,-143.864 -94.191498,-96.0418 -101.477298,-212.5811 -37.3329,-328.4529 50.7029,-79.2332 148.9607,-109.9516 236.677,-127.0332 21.7682,-3.6745 43.742,-6.1451 65.7855,-7.3595 z" />
</svg>
