<?xml version="1.0" encoding="UTF-8" standalone="no"?>
<svg
   width="20.9"
   height="17.98"
   version="1.1"
   id="svg4"
   sodipodi:docname="US9S23VARA.svg"
   inkscape:version="1.2.1 (9c6d41e410, 2022-07-14)"
   xmlns:inkscape="http://www.inkscape.org/namespaces/inkscape"
   xmlns:sodipodi="http://sodipodi.sourceforge.net/DTD/sodipodi-0.dtd"
   xmlns="http://www.w3.org/2000/svg"
   xmlns:svg="http://www.w3.org/2000/svg">
  <defs
     id="defs8" />
  <sodipodi:namedview
     id="namedview6"
     pagecolor="#ffffff"
     bordercolor="#000000"
     borderopacity="0.25"
     inkscape:showpageshadow="2"
     inkscape:pageopacity="0.0"
     inkscape:pagecheckerboard="0"
     inkscape:deskcolor="#d1d1d1"
     showgrid="false"
     inkscape:zoom="38.93753"
     inkscape:cx="12.545737"
     inkscape:cy="7.7816955"
     inkscape:window-width="1920"
     inkscape:window-height="1017"
     inkscape:window-x="1072"
     inkscape:window-y="-8"
     inkscape:window-maximized="1"
     inkscape:current-layer="svg4" />
  <path
     id="path2"
     style="fill:#000000;stroke:none"
     d="m 6.8171396,0.02929688 c -0.2118488,0.0042969 -0.4483078,0.0666668 -0.7128907,0.1875 L 0.30151466,9.1992188 c -0.3866666,0.6866663 -0.3475259,1.1382292 0.1191406,1.3515622 0.4666665,0.213333 0.85039084,0.04667 1.15039054,-0.5 -0.2799997,0.546667 -0.1854165,0.925339 0.28125,1.138672 0.4666666,0.213333 0.8484378,0.04667 1.1484375,-0.5 -0.2599997,0.566667 -0.1324731,0.959688 0.3808594,1.179688 0.5199992,0.226666 0.9099222,-0.02644 1.1699219,-0.759766 L 7.1628427,2.0371094 8.3034677,8.5390625 C 6.9402602,9.2237299 6.2000438,10.530342 6.0827646,12.460938 6.253452,14.771783 7.2838701,16.176849 9.1745615,16.675781 H 6.0827646 v 1.300781 H 15.00464 v -1.300781 h -3.091797 c 1.890691,-0.498932 2.921109,-1.903998 3.091797,-4.214843 -0.120674,-1.977183 -0.898838,-3.2994792 -2.332031,-3.9707036 l 1.130859,-6.4414063 2.585938,9.0468749 c 0.259999,0.733329 0.649922,0.986433 1.169921,0.759766 0.513333,-0.22 0.640859,-0.613021 0.38086,-1.179688 0.299999,0.54667 0.681771,0.713333 1.148437,0.5 0.466667,-0.213333 0.56125,-0.592005 0.28125,-1.138672 0.3,0.54667 0.683724,0.713333 1.150391,0.5 0.466666,-0.213332 0.505807,-0.6648961 0.119141,-1.3515621 L 14.864015,0.22851562 C 14.017349,-0.15815066 13.440212,0.05270914 13.133546,0.859375 L 11.795655,8.1796875 C 11.415093,8.0832197 11.001394,8.0196755 10.553468,7.9902344 10.053049,8.0206337 9.5951766,8.094875 9.1784677,8.2089844 L 7.8327646,0.84765625 C 7.6219312,0.2930735 7.2832068,0.01984377 6.8171396,0.02929688 Z M 6.4987802,1.046875 c 0.1874997,-0.005 0.2896875,0.2151569 0.3046875,0.6601562 L 5.3425302,5.8359375 3.7233896,5.1074219 6.2839365,1.1269531 C 6.3656025,1.0752861 6.4362803,1.0485411 6.4987802,1.046875 Z M 14.46753,1.058594 c 0.0625,0.00167 0.133178,0.028412 0.214844,0.080078 L 17.242921,5.1191407 15.62378,5.8496095 14.162843,1.7187501 c 0.015,-0.4449993 0.117188,-0.6651562 0.304687,-0.6601561 z m -11.0742185,4.5976562 0.359375,0.1503906 -2.4804688,3.8125 C 1.0722179,9.9858068 0.88500376,10.119531 0.71167086,10.019531 0.53833806,9.9128644 0.54143666,9.7101559 0.72143686,9.4101562 Z m 14.1796875,0.011719 2.646485,3.7285156 c 0.179999,0.2999997 0.183098,0.5027076 0.0098,0.6093742 -0.173333,0.1 -0.360547,-0.033724 -0.560547,-0.4003898 L 17.213624,5.8183594 Z M 4.0339365,5.9375 4.3933115,6.0859375 2.7312021,10.259766 c -0.1599999,0.366666 -0.356511,0.50039 -0.5898438,0.40039 C 1.9080256,10.553489 1.8719835,10.320937 2.0319833,9.9609375 Z m 12.8984375,0.011719 1.976563,3.9980468 c 0.16,0.3600002 0.123958,0.5925512 -0.109375,0.6992182 -0.233333,0.1 -0.429844,-0.03372 -0.589844,-0.40039 L 16.572999,6.0996094 Z M 4.7331552,6.2363281 5.1237802,6.3867188 4.1315927,10.900391 c -0.1399998,0.446666 -0.3334114,0.613333 -0.5800781,0.5 C 3.3115151,11.287058 3.2816713,11.01651 3.4616708,10.589844 Z m 11.5000008,0.011719 1.246093,4.3281249 c 0.18,0.426666 0.150156,0.697214 -0.08984,0.810547 -0.246667,0.113333 -0.440079,-0.05333 -0.580079,-0.5 l -0.9668,-4.4882815 z m -5.679688,2.8847654 c 0.376365,0.033776 0.720232,0.099029 1.033203,0.1953125 L 10.485109,15.351562 9.3913583,9.3730469 C 9.7377911,9.2522666 10.124959,9.1715165 10.553468,9.1328125 Z m 1.902344,0.59375 c 0.843755,0.5483765 1.318854,1.4594755 1.425781,2.7343755 -0.17742,1.696572 -0.998571,2.750483 -2.458984,3.164062 z M 8.5280771,9.8183594 9.5397958,15.582031 C 8.1686811,15.14111 7.3968963,14.101419 7.2253427,12.460938 7.3343188,11.254416 7.7684205,10.374201 8.5280771,9.8183594 Z" />
</svg>
