<?xml version="1.0" encoding="UTF-8" standalone="no"?>
<svg
   width="1799.9727"
   height="1802.1719"
   version="1.1"
   id="svg1"
   xml:space="preserve"
   xmlns="http://www.w3.org/2000/svg"
   xmlns:svg="http://www.w3.org/2000/svg"><defs
     id="defs1" /><path
     id="path1"
     style="fill:#000000;stroke:none;stroke-width:98.1871"
     d="m 1663.9571,600.93772 c -29.523,9.60306 -51.3349,44.4826 -53.127,70.4648 -26.2808,225.77603 -43.4523,306.16101 -70.9277,307.35551 -24.5535,-0.6598 -48.4234,-0.9629 -71.7071,-0.9629 -275.4354,0 -468.79172,42.55267 -740.12892,42.55267 -27.47295,0 -55.74442,-0.4354 -84.98239,-1.3965 -106.74799,-6.0383 -212.2596,-20.08737 -319.17773,-26.00777 -1.02027,-0.014 -2.04262,-0.019 -3.06446,-0.019 -152.12714,0 -320.75029,155.72117 -320.8418,179.70507 0,37.6097 5.61012,59.1074 49.64844,59.1074 30.71672,-31.4434 159.22959,-144.1966 250.61524,-146.5859 6.6938,-0.1768 13.21016,-0.2637 19.55078,-0.2637 80.22218,0 132.15542,14.0342 155.4043,42.8184 4.91439,7.5327 18.16409,33.2636 -41.09376,33.2636 -2.69899,0 -5.54729,-0.052 -8.55468,-0.166 -37.24035,-1.3735 -79.29738,-14.2285 -170.57227,-14.2285 -2.98498,0 -6.02156,0.015 -9.11328,0.043 -41.81046,0 -66.19922,23.2601 -66.19922,40.1914 0,17.8804 7.2674,33.3243 36.2461,33.3243 1.99849,0 4.10095,-0.072 6.31054,-0.2246 11.20628,-0.7659 40.95084,-4.3262 74.59961,-4.3262 30.7658,0 64.79631,2.9757 90.90039,13.7832 13.08048,1.9775 28.6134,2.7031 42.55274,2.7031 18.93848,0 34.93363,-1.3403 37.83203,-2.7031 43.82235,0 77.53191,-28.2396 130.03515,-82.7501 l 929.91799,-4.7285 271.8926,2.3653 V 706.86742 c 0,-58.5346 -0.1637,-84.21311 -17.207,-94.4785 -21.8789,-13.17791 -90.094,-20.79129 -118.8086,-11.4512 z m 41.4453,65.7363 c 25.0859,0 37.8281,13.9125 37.8281,40.1934 v 302.62688 h -113.4863 l 37.83,-316.81438 c 1.1948,-16.7242 12.7421,-26.0059 37.8282,-26.0059 z M 1058.7392,0 C 797.56192,0 666.97357,144.98992 666.97357,434.96875 H 830.94623 V 1802.1718 H 936.00678 V 434.96875 H 1182.456 V 1247.957 h 105.0606 V 434.96875 h 162.9902 C 1449.1976,144.98992 1318.6073,0 1058.7392,0 Z m 0,78.548828 c 197.0285,1.309158 300.1267,96.878892 309.291,286.707022 H 749.45014 C 757.3051,175.42772 860.40158,79.857986 1058.7392,78.548828 Z" /></svg>
