<?xml version="1.0" encoding="UTF-8" standalone="no"?>
<svg
   width="1803.735"
   height="1799.9989"
   version="1.1"
   id="svg1"
   xmlns="http://www.w3.org/2000/svg"
   xmlns:svg="http://www.w3.org/2000/svg">
  <defs
     id="defs1" />
  <path
     id="path1"
     style="display:inline;fill:#000000;stroke:none;stroke-width:88.7395"
     d="m 335.66774,0 c 4.75389,12.368302 16.04533,31.510507 33.87247,57.425043 17.82715,25.32557 31.79064,60.367677 41.89268,105.129157 10.10204,44.17248 23.17554,73.91594 39.21994,89.22907 16.63868,14.72418 31.1975,24.73733 43.67648,30.03802 h -18.71906 c -7.72507,4.71173 -7.72507,10.3064 0,16.78503 h 9.80598 l 5.34746,28.27004 -40.11086,22.08701 c -23.76951,16.49107 -35.65431,36.51542 -35.65431,60.07408 -6.53661,-4.71173 -7.72529,-13.8408 -3.56563,-27.38704 3.56543,-12.95726 3.26876,-23.26446 -0.89091,-30.92101 -4.75389,-7.06759 -17.23204,-8.83383 -37.43613,-5.30004 -3.56544,0 -18.12425,5.59467 -43.67648,16.78505 -11.29052,5.30069 -17.53059,11.4854 -18.71905,18.55299 l 1.78182,15.01902 13.3716,-8.83404 c 19.01561,2.35588 32.97911,2.35588 41.89267,0 8.91357,-2.35586 11.29092,1.47063 7.13126,11.48305 -3.56543,10.01245 -2.67343,20.61564 2.67471,31.80602 7.13086,11.19036 14.55762,16.78502 22.28271,16.78502 v 15.01902 c -4.75391,14.72414 -5.34725,29.15384 -1.78183,43.28902 -15.45017,28.85938 -23.17559,48.29564 -23.17559,58.30807 0,4.71175 7.13009,7.6561 21.39179,8.83401 l -3.56561,11.48501 c 2.37695,3.53381 4.75428,5.89008 7.13124,7.06801 -2.37696,2.94482 -2.97029,6.18322 -1.78183,9.71704 7.72511,3.53378 10.99249,5.30002 9.804,5.30002 -6.53661,28.85935 4.75483,43.28904 33.87249,43.28904 h 30.30684 c 1.18848,18.84693 11.28929,43.28975 30.30489,73.32705 0,2.35588 -8.9141,14.72528 -26.74123,37.10602 -17.82714,21.79177 -35.05998,48.00082 -51.69864,78.62708 -17.23291,30.62628 -16.93425,55.95126 0.89287,75.97611 v 110.72223 c -80.22594,3.045 -174.39009,20.8883 -255.0991,70.4534 -156.280034,95.975 -310.50937,421.6786 56.1276,598.2694 138.59086,66.7526 328.36641,90.6306 556.82928,104.8284 0,0 609.48334,15.4117 792.66334,-57.7748 45.7697,-18.2867 92.9783,-54.2295 92.9783,-114.0512 0,-114.2959 -170.5913,-145.0128 -296.6943,-158.0882 -161.2231,-16.717 -366.6285,-13.8138 -553.55714,-13.5012 -241.3182,0.4041 -429.45792,-56.3538 -462.30958,-107.6764 -15.49193,-24.2024 18.05501,-53.4151 69.0616,-81.4267 v 85.5525 l 897.59602,-88.3439 c 6.5366,14.1351 19.9067,30.3309 40.1108,48.589 50.5103,50.0621 111.7183,75.0929 183.6211,75.0929 70.7143,0 131.3268,-24.4408 181.8371,-73.325 50.5103,-49.4732 75.7651,-110.1384 75.7651,-181.9922 0,-71.2649 -25.2548,-131.92802 -75.7651,-181.99019 -50.5103,-50.06218 -111.1228,-75.09309 -181.8371,-75.09309 -71.9028,0 -133.1108,25.03091 -183.6211,75.09309 -20.2041,20.02485 -33.5742,36.5148 -40.1108,49.47208 L 778.67286,949.71001 c 31.4946,-106.01402 50.5095,-205.54957 57.04612,-298.60633 l 47.24211,-40.64 -15.15345,-19.43407 -18.71708,13.25102 c 2.37695,-13.54624 -0.29708,-24.73751 -8.02216,-33.572 -3.56544,-4.71176 -8.02345,-8.54019 -13.3716,-11.48501 -2.37695,-42.40562 -7.42833,-74.79742 -15.15343,-97.17813 8.91357,-17.66903 13.3716,-41.52374 13.3716,-71.56106 0,-30.03731 -15.15414,-55.06822 -45.46027,-75.09308 l -50.80577,33.57202 C 715.38722,337.773 694.58834,329.23204 667.2534,323.34237 l 7.13125,-24.73605 h 8.02217 c 5.94238,-6.47863 5.94238,-12.0733 0,-16.78503 h -16.93723 c 12.47901,-5.30069 26.74114,-15.31384 42.78558,-30.03802 16.63866,-15.31313 29.71213,-45.05659 39.21993,-89.22907 9.50782,-44.76148 23.17464,-79.803587 41.00176,-105.129157 C 805.70978,31.510507 817.59455,12.368302 824.13117,0 809.27522,5.3007005 789.66699,21.202557 765.30324,47.706058 741.53371,74.798525 719.54615,128.39475 699.34208,208.49423 c 4.75388,-13.54624 7.13125,-28.564 7.13125,-45.05508 0,-32.39316 -10.99476,-61.25252 -32.98157,-86.578088 -21.9868,-24.736601 -53.18314,-37.106013 -93.59133,-37.106013 -40.40815,0 -71.6065,12.369412 -93.59328,37.106013 -21.98682,25.325568 -32.9796,54.184928 -32.9796,86.578088 0,16.49108 2.37734,31.50884 7.13125,45.05508 C 440.2547,128.39475 417.97047,74.798525 393.60673,47.706058 368.64873,21.202557 349.33521,5.3007005 335.66774,0 Z m 244.23269,65.376054 c 30.30616,0 54.37239,9.423104 72.19955,28.270038 17.23288,18.846948 25.84834,41.521578 25.84834,68.025098 1.78271,28.85934 -7.12941,52.12405 -26.73926,69.79305 -19.60986,18.25796 -43.37943,27.38704 -71.30863,27.38704 -27.92918,0 -51.69877,-9.12908 -71.30861,-27.38704 -19.60986,-17.669 -28.82062,-40.93371 -27.63214,-69.79305 0,-26.50352 8.9141,-49.17815 26.74123,-68.025098 17.82715,-18.846934 41.89339,-28.270038 72.19952,-28.270038 z M 502.35148,298.60632 h 155.09595 l -7.12929,20.31904 c -46.9448,-3.53381 -95.0793,-3.53381 -144.40104,0 z m 37.43811,35.33804 h 24.95744 c 21.39256,61.25253 35.95137,109.84219 43.67646,145.76916 7.7251,35.92695 -5.0517,73.91537 -38.32902,113.96512 l 21.39377,165.20518 c 36.2485,-6.47863 73.68493,-15.90174 112.31036,-28.27004 38.62547,-12.95729 51.10362,-54.48008 37.43615,-124.56711 l -21.39178,-100.71216 53.48243,63.60808 c -6.53661,6.47865 -9.80595,14.72361 -9.80595,24.73605 0,12.36831 3.26934,22.96955 9.80595,31.80404 8.91358,10.01245 19.60969,15.60905 32.08869,16.78697 l -18.71905,13.25106 15.15342,18.55299 c -4.15967,76.56569 -23.76987,167.26624 -58.82991,272.10231 L 568.31265,929.39098 V 565.40859 c 12.47898,-11.19035 20.79775,-25.32598 24.95741,-42.40601 3.56543,-17.08005 4.16075,-32.68786 1.78381,-46.82305 -2.37694,-14.72418 -7.42834,-23.2632 -15.15344,-25.61906 z m 57.04611,0 c 32.68308,0 55.56066,2.06222 68.63389,6.18499 36.24852,179.04587 54.67004,281.81986 55.26428,308.32335 0.59424,27.09248 -11.29053,45.64463 -35.65431,55.65706 -24.95798,10.01245 -48.13224,15.60906 -69.52481,16.787 L 600.40132,593.67864 c 25.55223,-31.8042 38.32903,-63.01983 38.32903,-93.64609 0,-30.62628 -13.96547,-85.98872 -41.89465,-166.08819 z m -72.19954,1.76798 40.11087,114.84813 H 549.59359 L 509.48273,340.12935 c 5.34815,-4.12277 10.39952,-5.59495 15.15343,-4.41701 z m 254.0367,6.18303 c 19.01561,10.01244 28.52305,27.38648 28.52305,52.12306 0,25.32557 -3.26736,43.58369 -9.80398,54.77406 l -32.08869,-13.25103 c 4.15966,-10.01244 4.15966,-23.26398 0,-39.75504 -3.56542,-15.90212 -10.40081,-27.09339 -20.50285,-33.57201 z m -274.53757,1.76799 37.43612,106.89711 h -1.78182 L 502.35148,345.42936 Z m 187.18462,7.06604 c 35.65426,14.13519 54.96584,33.2774 57.93703,57.42503 2.97118,24.7366 -8.61498,45.64504 -34.76143,62.72507 z m -321.1667,2.20948 c 1.37419,-0.14725 2.35839,-2.3e-4 2.95264,0.4415 11.29051,0 16.33992,3.53441 15.15146,10.60198 0,8.83451 -3.56407,13.5451 -10.69493,14.13405 -7.72508,0.58897 -15.4505,1.7671 -23.1756,3.534 -7.72507,2.35588 -16.04384,2.9459 -24.95741,1.76799 l 19.608,-4.41701 c 17.23288,-1.17795 25.8503,-2.94611 25.8503,-5.30198 0,-1.17793 -1.18868,-1.76602 -3.56562,-1.76602 h -6.24036 c -3.56541,0 -5.94081,0.58809 -7.12927,1.76602 l 1.78184,1.76797 c 5.34812,-1.17793 8.91417,-1.47391 10.69687,-0.88497 1.78271,0.58898 -5.34936,1.47306 -21.39376,2.651 l -6.23839,-8.83402 v -4.41703 c 1.18849,4.12278 2.97051,6.47709 5.34746,7.06606 1.78274,0.58897 2.67471,0.29492 2.67471,-0.88302 0,-2.94482 -1.18867,-5.59513 -3.56564,-7.95099 11.14198,-5.74244 18.77517,-8.83381 22.8977,-9.27553 z m 1.16884,2.20753 c -3.56544,0 -5.34746,2.35627 -5.34746,7.068 0,4.12274 1.78202,6.18498 5.34746,6.18498 4.15964,0 6.83369,-2.06224 8.02217,-6.18498 -1.18848,-4.71173 -3.86253,-7.068 -8.02217,-7.068 z m 115.876,0 33.87249,95.41406 c -29.11765,-21.20279 -62.69332,-23.55907 -100.72456,-7.068 -22.58104,-5.3007 -33.57383,-16.19598 -32.97957,-32.68706 0.5942,-15.90207 2.37624,-26.79933 5.34744,-32.689 2.37695,-5.3007 3.56561,-11.77946 3.56561,-19.43601 8.91357,0 10.10223,8.83501 3.56563,26.50402 -6.5366,17.08003 -1.48525,30.62562 15.15343,40.63805 h 20.50089 c 0,-33.57109 17.23285,-57.12985 51.69864,-70.67606 z m 269.19012,98.94805 25.85032,11.48502 c 13.07324,23.55867 19.60997,53.00608 19.60997,88.34411 -6.53663,0 -11.588,1.17813 -15.15342,3.53401 l -23.17559,-30.03803 c 6.53661,-1.17793 16.63937,0.88429 30.30685,6.18499 5.34813,-25.32557 -8.022,-50.35648 -40.11085,-75.09309 z m -280.55519,3.09055 c 5.19959,0.44172 10.1768,1.47283 14.93071,3.09249 19.01561,5.88967 28.52304,18.84718 28.52304,38.87204 h 20.50286 c 0,-17.08003 5.04942,-25.61904 15.15147,-25.61904 10.10204,0 13.96472,11.48336 11.58778,34.45306 -2.37696,22.96969 -12.47773,41.52383 -30.30488,55.65902 l 1.78183,132.51617 -20.50088,2.65099 c -5.34813,-6.47863 -10.39953,-15.0196 -15.15343,-25.621 -5.34813,-10.60141 -8.61552,-24.73508 -9.80401,-42.40408 H 448.871 c -16.04442,0 -24.06652,-4.41848 -24.06652,-13.25298 2.37697,-15.90211 9.80374,-23.85304 22.28272,-23.85304 0,-7.65656 -2.37735,-12.0731 -7.13126,-13.25103 l -28.52305,-1.76796 c 4.75391,-10.01245 -0.89083,-17.66738 -16.93525,-22.96808 0,-6.47864 7.42874,-23.26458 22.28467,-50.35706 v -21.20399 l 6.23839,6.185 c 11.29051,-6.47864 20.50128,-9.71899 27.63213,-9.71899 7.72509,0 19.31321,1.76819 34.7634,5.30198 h 24.0665 v -8.83402 h -24.0665 c -14.26171,-6.47864 -26.44318,-9.719 -36.54523,-9.719 -8.91355,0 -19.01632,4.41652 -30.30685,13.25104 0,-4.71173 1.48536,-8.54018 4.45655,-11.48501 19.60983,-9.27623 37.21355,-13.25169 52.81228,-11.92651 z m 270.7512,8.39447 c 8.91358,5.3007 17.23234,12.95562 24.95743,22.96805 -7.72509,-1.76689 -15.45052,0.001 -23.1756,5.302 15.4502,1.17792 26.1463,3.53419 32.08869,7.068 -11.29052,-2.35587 -21.39131,-1.47375 -30.30488,2.64901 24.36374,2.35587 36.54522,5.89027 36.54522,10.60199 -11.88476,-4.71172 -24.06623,-5.88986 -36.54522,-3.53398 l 36.54522,11.485 c -16.63865,-2.35585 -29.41545,-2.35585 -38.32903,0 -11.29052,-15.31313 -18.71729,-28.56469 -22.28271,-39.75504 7.13086,-3.53381 13.96427,-9.12846 20.50088,-16.78503 z M 449.70672,485.6211 c -2.93405,-0.11043 -5.88669,-0.0172 -8.85789,0.27741 -11.88475,1.7669 -20.50216,12.66218 -25.85031,32.68703 8.91359,4.71177 18.42101,6.47797 28.52306,5.30003 13.66746,0 23.77024,-6.7728 30.30686,-20.31903 h 35.65429 v -11.48502 h -33.87248 c -8.46789,-3.97551 -17.10137,-6.12913 -25.90353,-6.46042 z m -2.61952,6.46042 c 7.7251,1.17795 14.85715,2.94613 21.39377,5.302 -2.97119,8.83451 -8.02256,15.01725 -15.15342,18.55105 2.37696,-3.5338 3.26698,-7.65629 2.67274,-12.36803 -0.59423,-5.3007 -3.56495,-9.12914 -8.91309,-11.48502 z m -13.36964,3.53401 c -3.5654,5.30071 -5.05076,9.71918 -4.45653,13.25299 0.59424,3.53381 4.15829,6.77219 10.69491,9.71702 l -16.93524,-4.41701 c 1.18846,-8.8345 4.7545,-15.01919 10.69686,-18.553 z m 371.69653,70.06854 c 2.07983,-0.0367 4.15853,0.16583 6.23838,0.60754 8.31933,1.76691 15.15275,5.00726 20.50086,9.71899 4.7539,7.65655 7.13127,17.66777 7.13127,30.03607 l -11.5878,-12.36803 c 0,-4.12276 -1.18868,-7.9512 -3.56563,-11.48501 -2.37694,-4.12277 -6.833,-6.77308 -13.36962,-7.951 -5.94238,-1.17794 -11.58712,1.47237 -16.93525,7.951 -4.7539,3.53381 -8.02328,8.24634 -9.80597,14.13601 -1.18848,5.30069 0.89219,10.60131 6.24032,15.90201 2.37696,3.53379 4.75432,5.30003 7.13128,5.30003 l 11.58778,13.25298 c -2.37696,0 -5.94299,-0.29601 -10.69688,-0.88497 -4.15966,-0.58897 -10.10305,-4.71146 -17.82813,-12.36801 -4.75391,-7.65658 -6.8326,-15.31345 -6.2384,-22.97003 0.59427,-8.24555 4.75364,-15.60642 12.47874,-22.08506 6.23949,-4.41723 12.47956,-6.68211 18.71905,-6.79252 z m 3.56562,17.39454 c 3.56543,0.58894 6.83282,2.06111 9.80401,4.417 2.37695,2.35586 3.56563,6.18431 3.56563,11.485 0,3.53381 -1.78203,6.77222 -5.34747,9.71705 -4.15965,2.35585 -8.02236,3.53399 -11.58779,3.53399 -4.15968,0 -8.02236,-2.06221 -11.58779,-6.18498 -1.18848,-2.35586 -1.48516,-5.30022 -0.89093,-8.83404 0.59424,-4.12276 2.0796,-7.9512 4.45656,-11.485 4.15966,-2.35585 8.02237,-3.23798 11.58778,-2.64902 z m 57.04612,17.66804 5.34745,7.95101 -18.71708,12.36803 -5.34943,-5.30006 z m -38.32903,1.766 21.39376,26.50402 -4.45653,1.76799 -18.71906,-24.73799 z m -7.13127,9.719 18.71907,22.08701 -3.56562,1.76601 -16.93526,-22.08699 z m -11.58582,5.30003 h 1.78184 l 21.39178,24.73797 -2.67273,1.76603 z m 8.02217,22.97001 7.12929,7.068 -18.71708,13.25104 -6.24034,-5.30002 z M 536.22396,767.7198 v 156.36919 l -64.17737,-6.18301 C 439.36352,895.52522 460.75576,845.4634 536.22396,767.7198 Z M 1547.9142,946.17601 c 49.3219,0 92.4049,18.84619 129.2476,56.53999 37.4369,37.694 56.1552,81.5732 56.1552,131.6353 0,51.24 -18.7183,94.5289 -56.1552,129.8671 -36.8427,35.927 -79.9257,53.8911 -129.2476,53.8911 -52.8872,0 -93.5929,-14.1358 -122.1165,-42.4062 -28.5233,-28.2704 -47.2415,-55.3635 -56.1551,-81.278 l -870.85677,83.9289 V 992.99905 l 869.07487,83.04415 c 8.9138,-26.5036 27.9284,-54.7749 57.0461,-84.81212 29.1178,-30.03731 70.1202,-45.05507 123.0074,-45.05507 z M 424.80448,1085.2601 v 102.9821 10.4166 c -68.36762,31.3867 -174.34669,96.4393 -120.19062,181.0446 85.84705,134.1141 488.1246,135.5827 513.54109,135.5402 187.45215,-0.3137 392.01215,-2.9097 547.15545,13.1769 123.4986,12.8055 240.7054,40.2807 242.4426,98.3989 -0.3462,31.0104 -31.4837,47.7506 -56.5569,59.0095 -243.9742,73.9958 -990.68615,102.4597 -1298.89783,-45.9908 -325.12209,-156.5956 -166.132917,-422.388 -50.70129,-493.2772 67.28425,-41.3207 151.02779,-58.087 223.2075,-61.3008 z" />
</svg>
