<?xml version="1.0" encoding="UTF-8" standalone="no"?>
<svg
   width="1800"
   height="1181.7671"
   id="svg1333"
   version="1.1"
   xmlns="http://www.w3.org/2000/svg"
   xmlns:svg="http://www.w3.org/2000/svg"
   xmlns:rdf="http://www.w3.org/1999/02/22-rdf-syntax-ns#"
   xmlns:cc="http://creativecommons.org/ns#"
   xmlns:dc="http://purl.org/dc/elements/1.1/">
  <metadata
     id="metadata1340">
    <rdf:RDF>
      <cc:Work
         rdf:about="">
        <dc:format>image/svg+xml</dc:format>
        <dc:type
           rdf:resource="http://purl.org/dc/dcmitype/StillImage" />
        <dc:date>10/01/2006</dc:date>
        <dc:creator>
          <cc:Agent>
            <dc:title>Serge Thomas</dc:title>
          </cc:Agent>
        </dc:creator>
        <dc:publisher>
          <cc:Agent>
            <dc:title>Serge Rosmorduc</dc:title>
          </cc:Agent>
        </dc:publisher>
        <dc:identifier>US22</dc:identifier>
        <dc:description>réfection de V29 d'origine pour l'harmoniser avec les autres signes et réduire les nodes.</dc:description>
      </cc:Work>
    </rdf:RDF>
  </metadata>
  <defs
     id="defs1338" />
  <path
     id="path1335"
     style="fill:#000000;stroke:none;stroke-width:100.248"
     d="M 1363.5801 0.041015625 C 1337.1978 -0.89727146 1315.6715 14.064525 1299.002 44.925781 L 1056.1738 449.36133 C 1011.5219 430.97767 960.12251 420.81394 902.51562 420.67969 C 842.44886 420.5397 789.0332 431.43537 742.91602 451.25391 L 499.54688 45.917969 C 472.8756 -3.4600419 433.7723 -12.136243 382.23633 19.892578 L 10.818359 821.53125 C -8.4049981 869.0132 -2.0095069 897.66177 30.001953 907.47656 C 62.013345 917.29135 85.415863 903.33093 100.21289 865.5957 C 86.710457 903.16273 95.965108 926.8552 127.97656 936.66992 C 159.98789 946.48465 183.39229 932.52436 198.18945 894.78906 C 186.15072 933.47609 197.67717 957.74418 232.76562 967.5957 C 268.34216 977.82056 291.44471 958.22293 302.07422 908.80078 L 466.23828 128.20312 L 681.60156 485.8457 C 594.28721 548.85996 546.06641 652.63906 546.06641 775.36719 C 546.06641 952.17962 630.10283 1039.7488 708.72852 1069.1191 L 721.93945 1078.6426 L 546.06641 1078.6426 L 546.06641 1181.7676 L 1257.3945 1181.7676 L 1257.3945 1078.6426 L 1077.9824 1078.6426 L 1087.9414 1071.4629 C 1161.4517 1043.539 1257.3945 959.11083 1257.3945 775.36719 C 1257.3945 650.70511 1207.9742 545.69972 1118.0527 483.02148 L 1332.3105 127.21289 L 1496.4746 907.80859 C 1507.1041 957.23074 1530.2067 976.83033 1565.7832 966.60547 C 1600.8717 956.75395 1612.3962 932.4839 1600.3574 893.79688 C 1615.1546 931.53217 1638.559 945.49246 1670.5703 935.67773 C 1702.5818 925.86301 1711.8364 902.1725 1698.334 864.60547 C 1713.131 902.3407 1736.5355 916.30112 1768.5469 906.48633 C 1800.5583 896.67154 1806.9538 868.02297 1787.7305 820.54102 L 1416.3125 18.902344 C 1396.9865 6.8915358 1379.4095 0.60398787 1363.5801 0.041015625 z M 1383.6445 69.029297 C 1387.6761 69.662481 1392.1173 71.986969 1396.9668 76.001953 L 1529.0273 353.89648 L 1417.9902 387.28516 L 1358.4023 108.98438 C 1363.1358 80.447727 1371.5498 67.129744 1383.6445 69.029297 z M 414.90234 70.021484 C 426.99706 68.121932 435.41105 81.439915 440.14453 109.97656 L 380.55859 388.27734 L 269.52148 354.88672 L 401.58203 76.992188 C 406.43152 72.977203 410.87077 70.654669 414.90234 70.021484 z M 1545.7363 392.09766 L 1758.7676 830.5332 C 1767.8826 851.37085 1766.3776 864.49608 1754.2559 869.9082 C 1742.1903 874.89106 1731.2346 864.73168 1721.3887 839.43164 L 1521.166 398.73047 L 1545.7363 392.09766 z M 252.81055 393.08984 L 277.38281 399.72266 L 77.158203 840.42383 C 67.312301 865.72387 56.356548 875.8813 44.291016 870.89844 C 32.169204 865.48631 30.666225 852.36304 39.78125 831.52539 L 252.81055 393.08984 z M 1501.9414 404.74805 L 1669.3203 854.9375 C 1676.6332 879.47168 1672.2869 894.19228 1656.2812 899.09961 C 1640.3319 903.5776 1628.7274 893.3346 1621.4707 868.37109 L 1477.3711 411.38086 L 1501.9414 404.74805 z M 296.60547 405.74023 L 321.17773 412.37305 L 177.07617 869.36328 C 169.81953 894.32679 158.21696 904.56979 142.26758 900.0918 C 126.26191 895.18447 121.91552 880.46386 129.22852 855.92969 L 296.60547 405.74023 z M 1454.0938 418.18164 L 1571.4277 883.48633 C 1579.4718 912.48263 1575.2475 929.62162 1558.7539 934.90234 C 1541.8287 940.12694 1530.7232 927.76444 1525.4375 897.81641 L 1427.5801 424.5625 L 1454.0938 418.18164 z M 344.45508 419.17383 L 370.9668 425.55469 L 273.11133 898.80664 C 267.82562 928.75468 256.72006 941.11717 239.79492 935.89258 C 223.30131 930.61185 219.07702 913.47287 227.12109 884.47656 L 344.45508 419.17383 z M 902.51562 511.30469 C 941.56186 511.30469 977.14102 517.24122 1008.7305 528.38086 L 898.97656 711.17773 L 790.48828 530.48828 C 823.46885 517.96241 861.03371 511.30469 902.51562 511.30469 z M 1071.1621 560.89062 C 1133.5038 606.32217 1168.8143 680.80077 1167.8887 775.36719 C 1166.953 870.96064 1130.4018 946.06838 1067.1973 991.35352 L 939.75977 779.10352 L 1071.1621 560.89062 z M 729.04297 564.63086 L 858.19336 779.10352 L 732.91016 987.76562 C 672.57363 942.1658 637.75056 868.53485 637.14258 775.36719 C 636.54196 683.33003 669.91008 610.34957 729.04297 564.63086 z M 898.97656 846.83203 L 1005.1309 1023.1191 C 974.44593 1033.7595 940.09207 1039.4297 902.51562 1039.4297 C 862.57146 1039.4297 826.1918 1033.0848 794.0332 1021.1055 L 898.97656 846.83203 z " />
</svg>
