<?xml version="1.0" encoding="UTF-8" standalone="no"?>
<svg
   width="18.07"
   height="14.18"
   version="1.1"
   id="svg474"
   sodipodi:docname="US9S18VARA.svg"
   inkscape:version="1.2.1 (9c6d41e410, 2022-07-14)"
   xmlns:inkscape="http://www.inkscape.org/namespaces/inkscape"
   xmlns:sodipodi="http://sodipodi.sourceforge.net/DTD/sodipodi-0.dtd"
   xmlns="http://www.w3.org/2000/svg"
   xmlns:svg="http://www.w3.org/2000/svg">
  <defs
     id="defs478" />
  <sodipodi:namedview
     id="namedview476"
     pagecolor="#ffffff"
     bordercolor="#000000"
     borderopacity="0.25"
     inkscape:showpageshadow="2"
     inkscape:pageopacity="0.0"
     inkscape:pagecheckerboard="0"
     inkscape:deskcolor="#d1d1d1"
     showgrid="false"
     inkscape:zoom="32.310932"
     inkscape:cx="9.547852"
     inkscape:cy="6.4683989"
     inkscape:window-width="1920"
     inkscape:window-height="1137"
     inkscape:window-x="-8"
     inkscape:window-y="-8"
     inkscape:window-maximized="1"
     inkscape:current-layer="svg474" />
  <path
     id="path472"
     style="fill:#000000;stroke:none;stroke-width:0.797103"
     d="m 4.1171931,0.09284777 c -0.9072869,0 -1.6132503,0.3088435 -2.1185059,0.92737363 C 1.4879988,1.6387515 1.1124258,2.3437857 0.87338011,3.1338411 0.53654309,3.2481914 0.30343624,3.5032494 0.17304754,3.8982772 0.04265909,4.2933048 0.00917017,4.943031 0.07436436,5.8474366 0.13955895,6.7518424 0.36508929,7.2323344 0.7508219,7.2895104 c 0.3803,0.057175 0.7634492,-0.327829 1.149182,-1.154268 C 2.2803039,5.3140006 2.4764626,4.694791 2.4873283,4.2789723 2.498194,3.8683517 2.384166,3.5682795 2.1451203,3.3759633 2.4710917,1.8530278 3.1233621,1.0902694 4.1012765,1.0902694 c 0.9833465,0 1.5578975,0.8265648 2.065981,1.3324331 0.3432123,0.3417161 1.9084062,1.7176968 1.9084062,1.7176968 -0.7729603,0.6971455 -1.559613,1.5406524 -1.9704812,2.3450821 -0.9201468,1.801537 -1.1077987,3.31455 -1.1077987,4.3125156 0,1.00316 0.303544,1.759566 0.912024,2.268943 0.6139125,0.509377 1.2879788,0.825469 2.0214143,0.950216 0.7388682,0.124745 1.4757953,0.124745 2.2092319,0 0.738868,-0.124747 1.41134,-0.440839 2.019823,-0.950216 0.608479,-0.509377 0.913615,-1.265783 0.913615,-2.268943 0,-0.9979656 -0.235294,-2.4832726 -1.09984,-4.3125156 -0.538631,-1.1396558 -1.06645,-1.5236207 -2.0039063,-2.2567608 0,0 1.6044343,-1.4511114 1.8686143,-1.7542435 0.713326,-0.8184986 1.147891,-1.3842077 2.131239,-1.3842077 0.983348,0 1.63562,0.7627584 1.956156,2.2856939 -0.239043,0.1923162 -0.35307,0.4923884 -0.342208,0.903009 0.01086,0.4158187 0.212074,1.0350283 0.603242,1.8562701 0.391163,0.826439 0.771788,1.211443 1.141224,1.154268 0.380298,-0.05718 0.601712,-0.537668 0.666907,-1.4420738 C 18.06555,4.943031 18.03365,4.2933048 17.89783,3.8982772 17.767439,3.5032494 17.534334,3.2481914 17.197495,3.1338411 16.958452,2.3437856 16.585401,1.6387515 16.080147,1.0202214 15.569456,0.40169127 14.863496,0.09284777 13.961641,0.09284777 c -0.901854,0 -1.551598,0.2045826 -1.948198,0.6152035 C 11.552685,1.0918706 8.9940546,3.4810351 8.9940546,3.4810351 c 0,0 -1.8916657,-1.6149656 -2.9286637,-2.77298383 C 5.6687925,0.29743037 5.0190472,0.09284777 4.1171931,0.09284777 Z m 0.049342,0.3121701 c 0.7714653,0 1.2274589,0.1932317 1.6457815,0.5847479 C 6.7239711,1.8430009 8.6900468,3.7490446 8.6900468,3.7490446 L 8.405138,3.9424379 c 0,0 -1.7174757,-1.493714 -2.0118641,-1.8334283 C 5.7896629,1.4124637 5.3120396,0.74764367 4.1331097,0.74764367 c -1.1789294,0 -1.9528048,0.81895973 -2.322239,2.45624543 C 1.6261535,3.1103299 1.4517903,3.0686256 1.2888046,3.0790211 1.500686,2.3565365 1.8402445,1.7300781 2.3074701,1.1999095 2.7746956,0.66974067 3.3950689,0.40501787 4.1665351,0.40501787 Z m 9.7378059,0 c 0.771465,0 1.390249,0.2647228 1.857472,0.79489163 0.467228,0.5301686 0.810905,1.156627 1.028216,1.8791116 -0.168419,-0.010395 -0.342781,0.031308 -0.522066,0.124868 -0.369432,-1.6372857 -1.143311,-2.45624543 -2.322239,-2.45624543 -1.178931,0 -1.79724,0.71267843 -2.511647,1.57912363 C 11.214038,2.5936333 9.8754757,3.7630082 9.6174746,4.0109629 9.3489218,4.2690587 9.0914227,4.4714387 8.7823629,4.691646 7.9454251,5.2879695 7.5361768,5.6881206 7.1413564,6.4595944 6.19528,8.3082164 5.7550162,9.8023874 5.7550162,10.743176 c 0,0.935593 0.2523769,1.578072 0.7576325,1.926319 0.5106886,0.348249 1.0606247,0.587285 1.6473731,0.717229 0.5867489,0.124746 1.1720399,0.124746 1.7587904,0 0.5867478,-0.129944 1.1341608,-0.36898 1.6394148,-0.717229 0.51069,-0.348247 0.76559,-0.990726 0.76559,-1.926319 0,-0.9407886 -0.330149,-2.4350546 -1.217623,-4.2592166 -0.44815,-0.9211524 -1.740342,-1.74936 -1.740342,-1.74936 l 0.3317183,-0.247006 c 0,0 1.5002057,1.1257937 1.9259157,2.122756 0.773005,1.81029 1.074373,3.19687 1.074373,4.1480556 0,0.951182 -0.284275,1.645033 -0.854724,2.081641 -0.565019,0.441809 -1.173694,0.724965 -1.82564,0.849712 -0.6519413,0.129944 -1.3016885,0.129944 -1.948198,0 C 7.4227872,13.565011 6.8115817,13.281855 6.2356991,12.840046 5.6598163,12.403438 5.371425,11.709587 5.371425,10.758405 5.371425,9.8072194 5.5805228,8.3619234 6.4553488,6.6103494 6.9501747,5.6196112 7.6132316,5.003643 8.4799463,4.4236365 8.8698825,4.1626909 9.2275523,3.8790325 9.3569521,3.7795004 9.6441791,3.5585692 11.219819,1.9486742 12.266515,0.98976597 c 0.32054,-0.38983 0.866357,-0.5847478 1.637824,-0.5847478 z M 1.3047213,3.5526059 c 0.034465,0.0011 0.069969,0.00329 0.1066416,0.00913 0.6084798,0.093566 0.7199822,0.671071 0.3342495,1.7314087 C 1.3544468,6.3586794 1.0442599,6.8760444 0.81608026,6.8448574 0.57703423,6.8084734 0.47217451,6.2285524 0.4993389,5.1058425 0.51971221,4.0533015 0.78775114,3.5361605 1.3047213,3.5526059 Z m 15.4614327,0 c 0.517291,-0.016446 0.787874,0.5006955 0.813341,1.5532364 0.02173,1.1227101 -0.08725,1.7026321 -0.326291,1.7390151 -0.228181,0.03119 -0.534248,-0.486178 -0.919983,-1.551713 -0.391163,-1.0603377 -0.282187,-1.6378429 0.326292,-1.7314017 0.03667,-0.00585 0.07215,-0.00804 0.106641,-0.00913 z M 9.0131542,4.9611781 c 0,0 1.5842378,1.2208533 1.8068918,1.6979013 0.849369,1.819816 1.12018,3.161195 1.12018,3.9668436 0,0.805648 -0.179412,1.37832 -0.537982,1.716174 -0.358566,0.33785 -0.841525,0.570534 -1.4500074,0.700479 -0.608479,0.124746 -1.2196849,0.124746 -1.8335981,0 C 7.5101589,12.912631 7.0272001,12.679947 6.6686319,12.342097 6.3100633,12.004243 6.1306492,11.431571 6.1306492,10.625923 c 0,-0.8056486 0.4749725,-2.2249046 1.3895234,-4.0155736 C 7.9705798,5.7284641 8.20273,5.6607284 8.8746792,5.0830006 Z"
     sodipodi:nodetypes="sccssccccsscsscccsssccsccccccccscccsssccssccssccccssssssccccssccssccccsssscsccccccccccccccssccsssccc" />
</svg>
