<?xml version="1.0" encoding="UTF-8" standalone="no"?>
<!-- Created with Inkscape (http://www.inkscape.org/) -->

<svg
   id="svg1290"
   height="997.37018"
   width="1799.5273"
   version="1.1"
   xmlns="http://www.w3.org/2000/svg"
   xmlns:svg="http://www.w3.org/2000/svg"
   xmlns:rdf="http://www.w3.org/1999/02/22-rdf-syntax-ns#"
   xmlns:cc="http://creativecommons.org/ns#"
   xmlns:dc="http://purl.org/dc/elements/1.1/">
  <defs
     id="defs3" />
  <metadata
     id="metadata4">
    <rdf:RDF>
      <cc:Work
         rdf:about="">
        <dc:format>image/svg+xml</dc:format>
        <dc:type
           rdf:resource="http://purl.org/dc/dcmitype/StillImage" />
        <cc:license
           rdf:resource="http://creativecommons.org/licenses/by/2.0/" />
        <dc:subject>
          <rdf:Bag>
            <rdf:li>JSesh hieroglyph</rdf:li>
          </rdf:Bag>
        </dc:subject>
        <dc:creator>
          <cc:Agent>
            <dc:title>Serge Rosmorduc</dc:title>
          </cc:Agent>
        </dc:creator>
        <dc:description>Sign from a Sethy the Ist relief in the Louvre.
</dc:description>
      </cc:Work>
      <cc:License
         rdf:about="http://creativecommons.org/licenses/by/2.0/">
        <cc:permits
           rdf:resource="http://web.resource.org/cc/Reproduction" />
        <cc:permits
           rdf:resource="http://web.resource.org/cc/Distribution" />
        <cc:requires
           rdf:resource="http://web.resource.org/cc/Notice" />
        <cc:requires
           rdf:resource="http://web.resource.org/cc/Attribution" />
        <cc:permits
           rdf:resource="http://web.resource.org/cc/DerivativeWorks" />
        <cc:requires
           rdf:resource="http://web.resource.org/cc/ShareAlike" />
      </cc:License>
    </rdf:RDF>
  </metadata>
  <path
     id="path4390"
     style="color:#000000;display:inline;overflow:visible;visibility:visible;fill:#000000;fill-opacity:1;fill-rule:evenodd;stroke:none;stroke-width:59.5528;stroke-linecap:butt;stroke-linejoin:round;stroke-miterlimit:4;stroke-dashoffset:0;stroke-opacity:1;marker:none;marker-start:none;marker-mid:none;marker-end:none"
     d="m 1589.3907,0.01080576 c -11.9172,-0.10249 -23.8516,0.51905 -35.67,2.08008004 -58.2577,5.86519 -110.3135,43.4594102 -136.8085,95.3125002 -38.8929,63.277594 -100.8937,106.123104 -161.9395,145.826204 -67.6005,41.7233 -141.717,71.1741 -213.2812,105.2656 H 750.89844 C 679.97059,314.81679 606.6163,285.54609 539.66211,244.22179 478.61627,204.51869 416.61559,161.67317 377.72266,98.395576 351.22759,46.542486 299.17179,8.9482558 240.91407,3.0830758 229.09563,1.5220458 217.16332,0.90049576 205.2461,1.0029958 162.89373,1.4369858 111.98841,4.4571358 85.966797,43.235416 53.939363,38.499006 61.71159,75.538176 36.902344,83.272526 17.9159,103.571 14.497495,133.39478 15.523437,159.95613 c 24.63553,-18.24482 59.966338,-7.99929 61.527344,27.05856 4.122221,41.544 48.047049,64.8914 57.923829,99.8477 4.79211,18.2641 7.34928,46.866 19.89258,61.6328 H 29.554687 c -16.321771,0 -29.5530546,13.4321 -29.554687,30 0,148.1485 128.70348,298.5117 301.76368,416.3437 173.0602,117.8322 394.52865,202.5313 597.98437,202.5313 203.45575,0 424.95555,-84.6991 598.01565,-202.5313 173.0602,-117.832 301.7637,-268.1952 301.7637,-416.3437 0,-16.5679 -13.2328,-29.9983 -29.5547,-30 h -131.0586 c 13.2975,-14.4441 15.8477,-43.9485 20.7481,-62.625 9.8767,-34.9563 53.7995,-58.3037 57.9218,-99.8477 1.561,-35.05787 36.8918,-45.30337 61.5274,-27.05855 1.0259,-26.56134 -2.3926,-56.38512 -21.3789,-76.683594 -24.8093,-7.73436 -17.0352,-44.77353 -49.0625,-40.03711 C 1682.6483,3.4649558 1631.743,0.44479576 1589.3907,0.01080576 Z m 20.0097,46.49610024 c 1.9688,-0.0245 3.9367,0.0336 5.9004,0.17773 32.5126,-1.12364 72.4341,3.77361 88.7266,35.97071 25.0128,1.81877 8.1081,26.827754 0.031,40.539064 8.1467,5.362 -13.9814,17.09301 -18.1464,33.12109 -10.7767,31.52209 -23.5172,64.54929 -51.8106,84.70699 -31.4463,8.9369 -15.0938,42.2359 -25.4883,65.6329 0.2793,12.2537 -13.8489,30.8711 -16.8398,41.8398 H 1140.91 c 51.5733,-24.4549 103.0385,-49.2025 152.8906,-77.0313 46.235,-23.3525 84.2651,-58.7874 120.9785,-94.65034 36.3303,-32.18581 48.9489,-83.275654 87.5039,-113.095704 3.2957,9.67359 -13.155,49.635114 -0.6132,70.460934 17.7555,46.92321 71.2472,63.14971 116.1465,71.82621 38.9903,5.7969 -7.3697,-14.485 -20.959,-21.4395 -31.5963,-16.08583 -63.2835,-49.67691 -51.2754,-87.984364 4.9803,-30.60414 34.2861,-49.70651 63.8183,-50.07422 z m -1424.16407,0.99219 c 29.53224,0.36771 58.83801,19.47007 63.81836,50.07421 12.0081,38.307464 -19.67909,71.898574 -51.27539,87.984384 -13.58929,6.9545 -59.95129,27.2363 -20.96094,21.4395 44.89923,-8.6765 98.39096,-24.903 116.14649,-71.82622 12.54186,-20.82582 -3.907,-60.787354 -0.61133,-70.460944 38.55503,29.82005 51.17363,80.909904 87.50391,113.095714 36.71347,35.86285 74.74357,71.29785 120.97851,94.65035 49.17809,27.4525 99.92424,51.906 150.79688,76.0391 H 202.59375 c -3.53538,-11.0766 -16.84307,-28.9637 -16.57226,-40.8477 -10.39444,-23.3969 5.95996,-56.6959 -25.48633,-65.6328 -28.29335,-20.1577 -41.03584,-53.1849 -51.8125,-84.707 -4.16515,-16.02808 -26.291199,-27.75909 -18.144535,-33.12109 -8.076915,-13.71131 -24.983508,-38.720294 0.0293,-40.539074 16.292525,-32.19709 56.213985,-37.09434 88.726565,-35.9707 1.96369,-0.14416 3.93353,-0.20225 5.90234,-0.17773 z m 1482.24617,16.92773 c -2.1294,-0.22219 -4.3904,-0.21055 -6.7832,0.0664 -6.8026,-0.1414 -13.8096,0.51143 -20.0762,3.36328 -34.7371,16.96654 -9.1267,74.651444 27.4219,61.179694 33.4845,-5.24117 31.3775,-61.276574 -0.5625,-64.609384 z m -1540.3282,0.99219 c -31.940077,3.33281 -34.047081,59.368214 -0.5625,64.609374 36.54854,13.47176 62.15701,-44.213144 27.41992,-61.179684 -6.2666,-2.85185 -13.2717,-3.50469 -20.07422,-3.36329 -2.39281,-0.27695 -4.65386,-0.28859 -6.7832,-0.0664 z M 61.695312,408.49519 H 1737.8008 c -17.4755,105.6813 -123.0668,234.4292 -272.9785,336.5 -164.4204,111.9496 -378.0337,192.375 -565.07425,192.375 -187.04045,0 -400.65375,-80.4254 -565.07422,-192.375 -149.91154,-102.0708 -255.503021,-230.8187 -272.978518,-336.5 z" />
</svg>
