<?xml version="1.0" encoding="UTF-8" standalone="no"?>
<!-- Created with Inkscape (http://www.inkscape.org/) -->

<svg
   width="1573.7391"
   height="1474.827"
   viewBox="0 0 1573.7391 1474.827"
   version="1.1"
   id="svg570"
   xmlns="http://www.w3.org/2000/svg"
   xmlns:svg="http://www.w3.org/2000/svg">
  <defs
     id="defs567" />
  <path
     id="path2635"
     style="fill:#000000;stroke:none;stroke-width:91.9401"
     d="M 697.2769,9.1648835 C 639.19904,0.86615352 575.11219,-1.7972265 505.01634,1.1766835 334.89432,11.099624 208.89641,64.954114 127.02376,162.74 45.151121,260.52589 3.780651,360.96502 2.911851,464.05787 c -3.55395997,20.25341 -5.25679,60.02376 3.29743,79.93906 228.528479,-11.59578 345.917379,46.04102 352.166669,172.91042 l 222.67678,-10.1402 -5.57312,-114.6067 c -4.26854,-47.80438 8.63271,-72.78926 38.70354,-74.95608 37.23852,-2.74996 53.6414,32.51808 49.20881,105.80608 -4.4326,73.2882 0.79692,154.889 15.68832,244.8016 14.89138,89.9125 52.4686,153.13355 112.73324,189.66285 60.26456,36.5294 157.7016,31.9622 292.31098,-13.7044 l 2.0994,0.2489 351.395,430.8077 136.1202,-160.1499 -392.6128,-334.65005 c 74.0733,-49.9794 107.9012,-137.6977 101.4842,-263.1536 -5.0169,-125.2902 -38.4086,-241.76434 -100.1757,-349.41903 C 1120.6676,259.79981 1039.0524,169.85765 937.59132,97.627104 874.17823,52.482984 794.07334,22.996114 697.2769,9.1648835 Z M 671.43005,79.951514 c 79.34823,9.91434 144.49711,32.001866 195.44767,66.262056 81.52082,54.81629 151.42628,120.79612 209.71348,197.93939 58.2871,77.14321 97.949,188.62657 118.987,334.44929 21.0381,145.8227 -33.6893,242.1704 -164.1825,289.0417 -130.49303,46.87175 -214.79041,30.4235 -252.89065,-49.3421 -38.10034,-79.7655 -56.00342,-177.2012 -53.70984,-292.308 2.29355,-115.10669 -36.51443,-170.94973 -116.4239,-167.52723 -64.34177,3.83551 -95.07361,47.4899 -92.19565,130.96123 l 4.21352,54.2475 -92.06106,4.1314 C 422.24648,519.52381 309.22588,460.97113 89.265151,472.14969 83.133851,368.22664 117.99646,277.76495 193.85467,200.76487 269.71287,123.76481 376.18359,81.927904 513.26718,75.253164 c 57.83211,-2.8159 110.55393,-1.25025 158.16287,4.69835 z" />
</svg>
