<?xml version="1.0" encoding="UTF-8" standalone="no"?>
<!-- Created with Inkscape (http://www.inkscape.org/) -->

<svg
   width="1799.5078"
   height="1800.9127"
   viewBox="0 0 1799.5078 1800.9127"
   version="1.1"
   id="svg570"
   xmlns="http://www.w3.org/2000/svg"
   xmlns:svg="http://www.w3.org/2000/svg">
  <defs
     id="defs567" />
  <path
     id="path25441"
     style="fill:#000000;stroke:none;stroke-width:102.885"
     d="m 703.51172,0.10416708 c -12.51496,-1.04167 -22.96174,5.72918002 -31.3418,20.31249992 -14.11377,22.66664 -9.52797,43.66668 13.75977,63 57.1608,42.666633 102.67771,98.000063 136.55078,166.000003 H 442.4668 c 33.87306,-67.99994 79.38997,-123.33337 136.55078,-166.000003 23.28772,-17.99999 27.87549,-38.66669 13.76172,-62 -13.40809,-23.9999799 -32.10814,-27.6666499 -56.10157,-11 C 462.5804,75.749937 405.06668,150.41675 364.13672,234.41667 324.61814,150.41675 266.75152,75.749937 190.53711,10.416667 c -21.87635,-16.6666499 -39.87255,-12.9999799 -53.98633,11 -13.4081,23.3333 -8.46742,44.00001 14.82031,62 C 208.5319,126.0833 253.6959,181.41673 286.86328,249.41667 H 0 v 492 h 45.51758 l 232.87695,-229 59.11328,-0.14258 -105.13476,156.52734 h 72.74218 l 62.34961,-93.45312 62.34961,93.45312 h 72.74219 l -105.23242,-156.67187 471.83203,-1.14063 -106,157.8125 h 72.74219 l 62.34961,-93.45312 62.34961,93.45312 h 72.74214 l -106.09371,-157.95312 477.83011,-1.15625 -108.584,161.66211 h 72.7402 l 62.3516,-93.45313 62.3496,93.45313 h 72.7402 l -108.6679,-161.78907 60.9902,-0.14843 243.4629,232 h 37.0488 v -492 h -288.9785 c 35.2845,-67.99994 81.1542,-123.33337 137.6094,-166.000003 23.9933,-19.33332 28.932,-40.33336 14.8183,-63 -14.1138,-23.3333099 -32.8138,-26.6666499 -56.1015,-10 -74.8031,65.33326 -132.6697,139.333413 -173.5996,222.000003 -40.93,-82.66659 -98.4437,-156.666743 -172.5411,-222.000003 -21.8763,-16.6666499 -39.8725,-13.3333099 -53.9863,10 -14.1138,22.66664 -9.1731,43.66668 14.8203,63 56.4551,42.666633 101.6191,98.000063 135.4922,166.000003 H 978.08594 c 33.16746,-67.99994 78.33136,-123.33337 135.49216,-166.000003 23.2877,-19.33332 28.2284,-40.33336 14.8203,-63 -14.1136,-23.3333099 -32.1099,-26.6666499 -53.9863,-10 C 998.1977,75.749937 939.62526,149.75008 898.69531,232.41667 859.17672,149.75008 802.36882,75.749937 728.27148,10.416667 719.27395,4.1666671 711.02069,0.72915708 703.51172,0.10416708 Z M 69.86328,306.41667 H 1729.6445 v 324 l -171.4824,-168 H 241.3457 l -171.48242,174 z M 369.54297,691.14909 236.5293,892.27608 h 70.66406 l 62.34961,-93.45316 64.42969,93.45316 h 70.66211 z m 530.7832,0 -133.01367,201.12699 h 70.66406 l 62.34961,-93.45316 64.42969,93.45316 h 70.66214 z m 533.33593,2.55273 -133.0137,201.12496 h 70.6621 l 62.3516,-93.45113 64.4277,93.45113 h 70.6641 z M 367.46484,922.74868 232.37305,1123.8757 h 72.74218 l 62.34961,-93.4531 62.34961,93.4531 h 72.74219 z m 530.78321,0 -135.0918,201.12702 h 72.74219 l 62.34961,-93.4531 62.34961,93.4531 h 72.74214 z m 533.33595,2.5528 -135.0918,201.12692 h 72.7402 l 62.3516,-93.4531 62.3496,93.4531 h 72.7402 z M 367.46484,1144.1921 230.29492,1345.3191 h 72.74219 l 64.42773,-93.4532 60.27149,93.4532 h 72.74219 z m 530.78321,0 -137.16993,201.127 h 72.74219 l 64.42774,-93.4532 60.27148,93.4532 h 72.74217 z m 533.33595,2.5527 -137.1699,201.125 h 72.7402 l 64.4297,-93.4511 60.2715,93.4511 h 72.7402 z m -1062.04103,220.9219 -135.0918,199.0938 h 72.74219 l 62.34961,-91.42 62.34961,91.42 h 72.74219 z m 530.7832,0 -135.09179,199.0938 h 72.74218 l 62.34961,-91.42 62.34961,91.42 h 72.74222 z m 533.33593,2.5508 -135.0918,199.0957 h 72.7402 l 62.3516,-91.4219 62.3496,91.4219 h 72.7422 z M 367.46484,1599.2663 230.29492,1798.362 h 72.74219 l 64.42773,-91.4218 60.27149,91.4218 h 72.74219 z m 530.78321,0 -137.16993,199.0957 h 72.74219 l 64.42774,-91.4218 60.27148,91.4218 h 72.74217 z m 533.33595,2.5528 -137.1699,199.0937 h 72.7402 l 64.4297,-91.4199 60.2715,91.4199 h 72.7402 z" />
</svg>
