<?xml version="1.0" encoding="UTF-8" standalone="no"?>
<svg
   width="1800"
   height="330"
   id="svg2"
   sodipodi:version="0.32"
   inkscape:version="1.2.1 (9c6d41e410, 2022-07-14)"
   sodipodi:docname="US9T10VARA.svg"
   inkscape:output_extension="org.inkscape.output.svg.inkscape"
   version="1.0"
   xmlns:inkscape="http://www.inkscape.org/namespaces/inkscape"
   xmlns:sodipodi="http://sodipodi.sourceforge.net/DTD/sodipodi-0.dtd"
   xmlns="http://www.w3.org/2000/svg"
   xmlns:svg="http://www.w3.org/2000/svg"
   xmlns:rdf="http://www.w3.org/1999/02/22-rdf-syntax-ns#"
   xmlns:cc="http://creativecommons.org/ns#"
   xmlns:dc="http://purl.org/dc/elements/1.1/">
  <metadata
     id="metadata9">
    <rdf:RDF>
      <cc:Work
         rdf:about="">
        <dc:format>image/svg+xml</dc:format>
        <dc:type
           rdf:resource="http://purl.org/dc/dcmitype/StillImage" />
      </cc:Work>
    </rdf:RDF>
  </metadata>
  <defs
     id="defs7">
    <inkscape:perspective
       sodipodi:type="inkscape:persp3d"
       inkscape:vp_x="0 : -290.8105 : 1"
       inkscape:vp_y="0 : 1000 : 0"
       inkscape:vp_z="5.8304138 : -290.8105 : 1"
       inkscape:persp3d-origin="2.9152069 : -291.8415 : 1"
       id="perspective11" />
  </defs>
  <sodipodi:namedview
     inkscape:window-height="1137"
     inkscape:window-width="1920"
     inkscape:pageshadow="2"
     inkscape:pageopacity="0.0"
     guidetolerance="10.0"
     gridtolerance="10.0"
     objecttolerance="10.0"
     borderopacity="1.0"
     bordercolor="#666666"
     pagecolor="#ffffff"
     id="base"
     showgrid="false"
     inkscape:zoom="0.49555556"
     inkscape:cx="898.99103"
     inkscape:cy="900"
     inkscape:window-x="-8"
     inkscape:window-y="-8"
     inkscape:current-layer="svg2"
     inkscape:showpageshadow="2"
     inkscape:pagecheckerboard="0"
     inkscape:deskcolor="#d1d1d1"
     inkscape:window-maximized="1" />
  <path
     id="path2520"
     style="color:#000000;display:inline;fill:#000000;stroke-width:3.79234;-inkscape-stroke:none"
     d="m 1633.6551,6.2441578 c -20.1092,1.22966 -38.445,7.5173602 -54.7167,17.3476502 h -470.4708 c 0,0 0.9246,-9.99893 -5.469,-12.44141 -6.3937,0.97701 -309.90651,1.53105 -336.00508,0.97701 -2.70595,1.91387 -7.17883,11.4644 -7.17883,11.4644 -51.21158,1.90942 -493.19733,-3.64947 -503.26193,-0.46647 C 213.56113,-1.3971822 159.55237,4.9673578 110.73663,21.230468 73.588924,24.851338 -17.080142,70.332088 9.4458793,104.91798 c 32.0294787,47.7329 54.7039967,1.00396 91.2562507,-18.646492 53.45323,-12.64327 133.31601,-37.55289 157.02022,32.119152 26.67617,63.09267 68.78988,116.94909 124.79903,157.30273 89.18184,48.97436 197.33245,56.16038 297.10977,43.71681 81.39824,-8.38435 146.12329,-63.05654 223.91882,-81.71289 131.30403,-21.40003 239.01393,79.63321 367.11533,84.11913 105.9945,6.9089 230.7251,-34.01466 277.8628,-135.71093 14.7965,-55.82952 48.3661,-139.914602 122.9073,-114.662102 43.1443,-2.97801 83.6329,81.659222 112.1334,31.671872 50.9455,-34.346422 -35.3824,-58.086162 -60.2325,-77.695332 -27.7552,-13.49254 -58.8256,-19.9644902 -89.6812,-19.1757702 z M 305.27556,73.640648 H 760.16868 V 229.65041 c -23.43198,10.64284 -47.36594,19.83122 -72.86265,24.03908 -85.8551,19.85987 -180.18266,10.9711 -260.79458,-23.72463 -53.60886,-34.05672 -91.48931,-83.80667 -114.87256,-141.941402 -1.8825,-5.07353 -4.01569,-9.85739 -6.36333,-14.38281 z m 505.28186,0 h 48.04089 c 0.0232,58.315512 0.19522,89.880002 0.37171,105.916012 0.0342,3.02925 0.0654,4.99733 0.0987,7.08983 l -48.51077,23.80668 z m 98.43748,0 h 49.1382 c 0.0262,54.289632 0.18605,84.644532 0.35389,100.617192 -7.77053,-0.2332 -15.61334,-0.13909 -23.5535,0.38672 -8.73563,-0.66607 -17.25642,-0.5935 -25.61219,0.0548 -0.15988,-16.59269 -0.30636,-47.04276 -0.3265,-101.058592 z m 99.5269,0 h 50.5402 V 193.4219 l -38.5275,-10.36717 c -3.8453,-0.93343 -7.707,-1.79131 -11.5801,-2.59964 -0.023,-1.68374 -0.048,-2.94236 -0.072,-5.18747 -0.1689,-15.34194 -0.3322,-45.97709 -0.36,-101.626972 z m 100.1818,0 h 419.9443 c -13.6488,20.89176 -23.3504,44.535652 -28.3632,67.884782 -27.4484,88.61227 -132.8043,122.31912 -217.471,119.67383 -60.9583,-2.4446 -117.0408,-26.26197 -173.4573,-48.37111 z"
     sodipodi:nodetypes="ccccccccccccccccccccccccccccccccccccccsccccccssccccccc" />
</svg>
