<?xml version="1.0" encoding="UTF-8" standalone="no"?>
<svg
   width="8.89"
   height="17.98"
   version="1.1"
   id="svg733"
   sodipodi:docname="US9T75VARA.svg"
   inkscape:version="1.2.1 (9c6d41e410, 2022-07-14)"
   xmlns:inkscape="http://www.inkscape.org/namespaces/inkscape"
   xmlns:sodipodi="http://sodipodi.sourceforge.net/DTD/sodipodi-0.dtd"
   xmlns="http://www.w3.org/2000/svg"
   xmlns:svg="http://www.w3.org/2000/svg">
  <defs
     id="defs737" />
  <sodipodi:namedview
     id="namedview735"
     pagecolor="#ffffff"
     bordercolor="#000000"
     borderopacity="0.25"
     inkscape:showpageshadow="2"
     inkscape:pageopacity="0.0"
     inkscape:pagecheckerboard="0"
     inkscape:deskcolor="#d1d1d1"
     showgrid="false"
     inkscape:zoom="24.492116"
     inkscape:cx="6.0631756"
     inkscape:cy="6.1652493"
     inkscape:window-width="1920"
     inkscape:window-height="1137"
     inkscape:window-x="-8"
     inkscape:window-y="-8"
     inkscape:window-maximized="1"
     inkscape:current-layer="svg733" />
  <path
     id="path731"
     style="fill:#000000;stroke:none"
     d="M 3.0429688,0.01953125 C 2.6984822,0.01249917 2.3702999,0.05274687 2.109375,0.16992188 3.090888,0.47959087 3.1280212,0.60029012 3.9564737,1.1392043 4.5369066,1.5167799 4.7052807,2.4519736 4.6463837,2.9420897 4.4462127,4.6078288 1.1367188,12.939453 1.1367188,12.939453 h 3.7832031 c -0.9933323,1.473332 -1.8235684,2.767528 -2.4902344,3.880859 -0.313333,0.266667 -0.5788283,0.436436 -0.7988281,0.509766 -0.093333,0.06 -0.4080735,0.119688 -0.94140628,0.179688 C 0.22945359,17.536433 0,17.616667 0,17.75 v 0.0293 c 0,0.08667 0.50309996,0.148308 1.5097656,0.181641 0.1199999,-0.04667 0.2711721,-0.07031 0.4511719,-0.07031 0.2999997,0.04667 0.4852608,0.07031 0.5585937,0.07031 h 0.019531 c 0.1599998,0 0.2813282,-0.05349 0.3613281,-0.160157 0.086667,0 0.1432552,-0.207761 0.1699219,-0.621093 0,-0.12 0.3096881,-0.563412 0.9296875,-1.330079 0.6133327,-0.766666 0.9672137,-1.332552 1.0605469,-1.699218 0,-0.106667 0.163568,-0.183802 0.4902343,-0.230469 0.046857,0.986477 0.4916101,2.082926 0.9628907,3.074219 0,0.02667 -0.067839,0.05651 -0.2011719,0.08984 -0.2799997,0.206667 -0.5032553,0.327999 -0.6699219,0.361328 -0.6199994,0.1 -0.9296875,0.222475 -0.9296875,0.369141 v 0.03125 c 0,0.06 0.350782,0.09605 1.0507813,0.109375 l 0.7695312,-0.07031 0.8300781,0.07031 c 0.1799999,-0.03333 0.2695313,-0.116666 0.2695313,-0.25 0,-0.146666 -0.065886,-0.316432 -0.1992187,-0.509766 C 6.90141,16.238457 6.4006979,14.309067 6.2109375,12.939453 L 6.234375,2.4628906 C 6.2369534,1.3881208 5.6653533,0.66302688 4.9707031,0.40234375 4.6326838,0.27549439 3.8008392,0.03500183 3.0429688,0.01953125 Z M 4.658534,0.90472852 C 5.3617814,1.100848 5.8268937,2.1610301 5.8085938,3.3769531 5.79863,4.0389854 5.7614452,4.9554716 5.7128906,5.9492188 L 4.4257812,5.7265625 C 4.6726234,4.9942085 4.8992744,4.3089982 5.0585938,3.7871094 5.2922198,3.021811 5.4902319,2.3220874 4.658534,0.90472852 Z M 4.2773438,6.1679688 5.6875,6.4121094 C 5.6774908,6.6075167 5.6649532,6.8018493 5.6542969,7 L 4.0800781,6.7363281 C 4.1456425,6.5456532 4.213996,6.3540435 4.2773438,6.1679688 Z M 3.9277344,7.1777344 5.6289062,7.4648438 C 5.4909831,9.9491138 5.328125,12.400391 5.328125,12.400391 h -3.25 c 0,0 0.9684009,-2.6765295 1.8496094,-5.2226566 z"
     sodipodi:nodetypes="scsscccccssccssccccccccsscccscccsscsccsccccccccccc" />
</svg>
