<?xml version="1.0" encoding="UTF-8" standalone="no"?>
<!-- Created with Inkscape (http://www.inkscape.org/) -->

<svg
   width="1800"
   height="1800"
   viewBox="0 0 1800 1800"
   version="1.1"
   id="svg5"
   xml:space="preserve"
   xmlns="http://www.w3.org/2000/svg"
   xmlns:svg="http://www.w3.org/2000/svg"><defs
     id="defs2" /><g
     id="layer1"><path
       id="rect408"
       style="color:#000000;fill:#000000;fill-rule:evenodd"
       d="M 1.6308594 198.54102 L 1.6308594 233.30859 L 1.6308594 563.71289 L 448.58984 563.71289 C 450.21408 587.92898 452.04751 626.84735 448.95312 684.38086 C 444.4746 767.64968 427.97866 869.4965 387.16992 940.85352 C 299.55436 1094.0555 107.95703 1311.8496 107.95703 1311.8496 L 77.199219 1346.6211 L 119.21875 1366.3535 C 119.21875 1366.3535 509.45291 1550.9828 913.51953 1551.6504 C 1317.9225 1552.3186 1683.8418 1362.6191 1683.8418 1362.6191 L 1721.5352 1343.2129 L 1695.123 1310.0488 C 1695.123 1310.0488 1518.2627 1087.1352 1434.0488 935.18359 C 1367.3731 814.87652 1339.7952 627.68083 1331.8438 563.71289 L 1799.6133 563.71289 L 1799.6133 198.54102 L 1.6308594 198.54102 z M 71.166016 268.07617 L 1730.0781 268.07617 L 1730.0781 494.17773 L 71.166016 494.17773 L 71.166016 268.07617 z M 518.32812 563.71289 L 1261.4824 563.71289 C 1267.0391 618.20397 1292.0227 822.36251 1373.2305 968.89062 C 1442.4532 1093.7929 1561.4894 1251.4662 1613.7344 1318.875 C 1512.2654 1364.7712 1221.7125 1482.6243 913.63477 1482.1152 C 603.86316 1481.6034 298.16771 1366.1812 191.44922 1321.6777 C 249.91922 1253.1769 376.17313 1100.1444 447.5293 975.37305 C 498.02272 887.08167 513.60988 776.93048 518.38672 688.11523 C 521.21651 635.50116 519.87943 592.1171 518.32812 563.71289 z " /></g></svg>
