<?xml version="1.0" encoding="UTF-8" standalone="no"?>
<svg
   width="1799.9827"
   height="1563.5337"
   id="svg2509"
   version="1.0"
   xmlns="http://www.w3.org/2000/svg"
   xmlns:svg="http://www.w3.org/2000/svg"
   xmlns:rdf="http://www.w3.org/1999/02/22-rdf-syntax-ns#"
   xmlns:cc="http://creativecommons.org/ns#"
   xmlns:dc="http://purl.org/dc/elements/1.1/">
  <metadata
     id="metadata2516">
    <rdf:RDF>
      <cc:Work
         rdf:about="">
        <dc:format>image/svg+xml</dc:format>
        <dc:type
           rdf:resource="http://purl.org/dc/dcmitype/StillImage" />
      </cc:Work>
    </rdf:RDF>
  </metadata>
  <defs
     id="defs2514" />
  <path
     id="path2511"
     style="fill:#000000;stroke:none;stroke-width:127.631"
     d="M 446.8076,0 192.99047,423.57355 C 148.24887,498.74274 65.142229,549.55363 38.935782,628.9949 24.816823,673.70489 -6.0240054,792.24377 1.0354712,894.60604 8.0949565,996.96834 32.508162,1051.3848 74.276661,1057.8561 c 41.180209,6.4712 82.654509,-37.0625 124.423019,-130.60046 41.1802,-92.9496 81.50372,-207.50218 73.92325,-273.95928 -9.42607,-82.63724 -25.0581,-147.68565 10.60343,-212.4858 l 175.54699,-273.29693 358.9605,374.91541 -155.5496,223.35324 c -77.61034,118.45795 -124.1699,252.08232 -135.60727,386.87942 -11.43736,134.7972 14.31767,240.8413 83.75855,311.0991 69.44089,70.2579 158.66784,101.3457 263.23792,99.7118 104.56976,1.6338 190.62475,-29.4539 259.24875,-99.7118 68.6238,-70.2578 98.3661,-176.3019 87.746,-311.0991 C 1209.948,1017.8644 1157.2674,899.92284 1092.9374,773.75886 1025.0786,640.67354 952.25692,550.71719 969.29602,550.40563 l 370.92618,-386.87942 148.957,268.81733 c 32.5514,66.62988 2.4433,137.31271 3.8206,215.83229 1.0984,62.61559 25.2403,136.7896 67.5973,229.73926 42.3567,93.53807 125.2834,174.80761 165.2872,168.33641 41.1801,-6.4712 65.2994,-60.88766 72.3589,-163.25 7.6477,-102.36231 -30.1907,-205.89201 -44.8978,-250.602 C 1711.402,540.25131 1644.3209,489.78448 1581.2352,414.18754 L 1352.1863,0 897.50322,474.62541 Z m 438.72988,622.19842 c 83.32908,127.44463 134.64422,242.08953 175.49202,327.05232 40.8476,84.96316 54.4941,188.55636 43.8738,311.09926 -10.6205,122.5424 -87.5466,190.3396 -231.32985,203.4108 -143.78381,-11.4373 -220.71118,-80.051 -231.33157,-203.4108 -10.62037,-123.3597 3.02629,-226.1361 43.87386,-311.09926 39.99957,-83.19891 114.21318,-194.84943 195.4343,-319.07573 1.72196,-2.63368 2.25744,-5.33075 3.98744,-7.97659 z m 720.54862,-59.02419 c 50.0229,-1.66231 132.6375,136.61951 135.1002,243.00655 2.1015,113.47949 -3.2903,160.68378 -26.4065,164.36128 -22.0654,-6.46602 -72.4143,-43.96741 -109.7151,-151.66784 -24.4828,-69.36704 -86.9537,-252.77642 1.0214,-255.69999 z m -1431.23845,9.49669 c 3.22587,0.10726 6.55484,0.44571 9.98728,1.01777 30.29507,9.1532 30.44468,139.46551 -5.65952,243.20163 C 142.56266,921.13484 113.57761,971.73204 92.220204,968.68104 69.845784,965.12134 59.930515,908.42154 62.473038,798.58357 64.38,695.61024 126.45976,571.06195 174.84765,572.67092 Z" />
</svg>
