<?xml version="1.0" encoding="UTF-8" standalone="no"?>
<svg
   width="1779.676"
   height="1799.3738"
   version="1.1"
   id="svg1"
   sodipodi:docname="US9T84BVARA.svg"
   xml:space="preserve"
   inkscape:version="1.3 (0e150ed6c4, 2023-07-21)"
   xmlns:inkscape="http://www.inkscape.org/namespaces/inkscape"
   xmlns:sodipodi="http://sodipodi.sourceforge.net/DTD/sodipodi-0.dtd"
   xmlns="http://www.w3.org/2000/svg"
   xmlns:svg="http://www.w3.org/2000/svg"><defs
     id="defs1"><inkscape:perspective
       sodipodi:type="inkscape:persp3d"
       inkscape:vp_x="0 : 1.1737793 : 1"
       inkscape:vp_y="0 : 1000 : 0"
       inkscape:vp_z="21.120001 : 1.1737793 : 1"
       inkscape:persp3d-origin="10.56 : 0.5737793 : 1"
       id="perspective2443" /></defs><sodipodi:namedview
     id="namedview1"
     pagecolor="#ffffff"
     bordercolor="#000000"
     borderopacity="0.25"
     inkscape:showpageshadow="2"
     inkscape:pageopacity="0.0"
     inkscape:pagecheckerboard="0"
     inkscape:deskcolor="#d1d1d1"
     inkscape:zoom="0.16163972"
     inkscape:cx="1237.3196"
     inkscape:cy="213.43764"
     inkscape:window-width="1920"
     inkscape:window-height="1137"
     inkscape:window-x="-8"
     inkscape:window-y="-8"
     inkscape:window-maximized="1"
     inkscape:current-layer="svg1" /><path
     id="path1"
     style="fill:#000000;stroke:none;stroke-width:76.2799"
     d="M 1672.418 4.0214844 C 1644.0887 4.5915138 1620.4841 11.502578 1607.1328 25.558594 C 1592.0724 38.423501 1584.0962 60.793029 1579.4043 86.470703 L 1597.3613 453.4707 C 1493.905 462.4669 1462.0371 544.09875 1460.1738 636.33203 L 1547.0312 636.33203 L 1490.6504 697.83789 L 1530.2246 734.11133 L 1584.6895 674.69531 L 1589.2109 674.71094 L 1593.3086 1024.625 L 1648.2969 1024.625 L 1644.1992 674.9082 L 1648.9727 674.92578 L 1703.2266 734.11133 L 1742.7969 697.83789 L 1686.4199 636.33203 L 1779.7344 636.33203 C 1785.1714 532.12334 1724.3874 456.32803 1625.0508 449.67578 C 1631.6519 449.70608 1638.6403 449.5883 1634.6582 449.50586 C 1634.3574 419.33286 1637.3735 424.47779 1650.0723 408.44336 C 1666.2098 388.20355 1708.3167 364.22483 1757.6211 355.41992 C 1718.1863 199.95633 1694.9989 113.71345 1700.5508 107.93359 C 1737.1041 89.734056 1736.0272 13.310716 1677.9492 4.828125 L 1676.1035 4.5605469 L 1672.418 4.0214844 z M 670.28125 4.4570312 L 670.28125 181.9043 L 663.40234 181.9043 C 619.98268 173.03611 576.64355 163.57614 534.36914 150.80859 C 494.68824 138.83464 469.44213 123.17704 456.2207 102.02539 C 442.99916 80.874178 445.21463 62.896264 463.01367 47.328125 C 480.81259 31.759878 498.00114 25.689948 513.98438 29.587891 C 529.96773 33.485942 539.9895 41.675112 546.25781 56.199219 C 552.53159 70.723432 547.91923 82.882024 532.66992 90.199219 C 517.42583 97.516521 497.33234 90.358042 498.69141 79.849609 C 505.00325 62.223724 473.99873 56.193316 469.8125 68.023438 C 464.27279 77.675168 472.5332 93.596934 481.69922 102.02539 C 490.86513 110.45427 502.577 115.678 517.38086 116.80859 C 532.1842 117.94165 546.92718 112.74619 559.84961 102.02539 C 572.76139 91.304482 577.9272 79.631195 576.83984 65.066406 C 575.76338 50.50151 567.2393 35.221597 551.35938 20.71875 C 541.57363 12.210871 514.25395 1.4603906 490.19727 5.9355469 C 464.9287 10.448904 444.56903 24.248766 429.03711 47.328125 C 413.49945 70.407915 418.09388 97.923114 442.62891 128.63477 C 479.61137 159.36907 510.60425 171.44464 558.37695 181.9043 L 118.52148 179.12695 L 118.52148 235.92578 L 279.01758 238.70312 L 619.64453 919.19922 C 497.03023 906.55361 460.60653 894.62369 348.79688 842.40234 C 190.72745 768.57527 242.65996 847.61662 307.19336 877.27539 C 401.81623 933.55022 508.85005 966.41175 616.47461 970.09766 C 882.04468 979.19268 1010.8964 931.07148 1167.9844 842.65625 C 1221.4151 812.58322 1318.298 702.95312 1286.1348 702.95312 C 1268.7902 702.95312 1181.8821 775.48731 1143.8203 798.28125 L 858.02344 238.70312 L 1242.0078 238.70312 L 1242.0078 240.61719 L 1132.2734 286.71289 L 1151.1934 322.10742 L 1398.0938 213.45312 L 1151.1934 104.79883 L 1132.2734 136.90234 L 1237.5254 181.9043 L 765.28711 181.9043 L 765.28711 28.111328 L 765.28711 4.4570312 L 671.96875 4.4570312 L 670.28125 4.4570312 z M 700.72852 28.111328 L 736.40234 28.111328 L 736.40234 181.9043 L 700.72852 181.9043 L 700.72852 28.111328 z M 1660.5801 39.953125 L 1667.0332 40.896484 C 1691.0018 44.397241 1704.4771 74.61225 1662.2578 92.925781 L 1714.623 327.48633 C 1682.1816 336.87112 1665.2777 349.46491 1630.9512 371.75586 L 1615.7598 88.958984 C 1625.8895 51.835601 1643.5825 40.295145 1660.5801 39.953125 z M 326.31445 238.70312 L 452.58398 238.70312 L 789.66406 914.44141 C 743.59185 923.85164 711.86559 925.58753 672.87695 923.38281 L 326.31445 238.70312 z M 498.9375 238.70312 L 644.39258 238.70312 L 965.13672 875.24609 C 925.81459 890.30684 874.16331 901.74514 833.48633 910.2207 L 498.9375 238.70312 z M 694.53125 238.70312 L 813.5625 238.70312 L 1100.7383 815.12109 C 1069.5937 834.4785 1037.5183 845.52294 1009.3398 858.42773 L 694.53125 238.70312 z M 1616.6934 491.92773 C 1687.4987 496.58595 1717.3103 523.60485 1730.3535 593.47852 L 1509.5547 593.47852 C 1519.8027 523.60485 1545.8883 496.58595 1616.6934 491.92773 z M 53.029297 797.68555 C 50.976865 797.63435 48.576149 798.1761 45.771484 799.36914 C 17.999963 815.98678 4.194369 848.07411 4.5507812 895.8418 C 5.0973632 969.09217 15.543159 990.4191 71.300781 1034.6973 C 126.51193 1078.9754 206.10289 1096.5703 278.25977 1096.5703 L 572.51172 1096.5703 C 654.50824 1213.5522 751.53957 1300.4693 863.60156 1357.3203 L 860.85742 1799.373 L 954.33594 1799.373 L 957.08008 1389.2988 C 1031.4236 1417.1775 1121.6209 1397.7727 1227.6699 1331.082 C 1333.7189 1263.8448 1340.0038 1185.6733 1246.5273 1096.5703 L 1779.6758 1102.0586 L 1779.6758 1027.4414 L 1608.4883 1027.4414 L 278.25977 1021.9531 C 182.21244 1019.2089 120.49625 1004.5504 74.152344 941.57422 C 19.485834 867.28858 83.815779 798.45352 53.029297 797.68555 z M 708.625 1096.5703 L 863.60156 1096.5703 L 863.60156 1249.9043 C 810.57711 1223.1188 758.91636 1172.007 708.625 1096.5703 z M 896.40039 1096.5703 L 922.63867 1096.5703 L 922.63867 1281.8848 L 896.40039 1264.666 L 896.40039 1096.5703 z M 957.08008 1096.5703 L 1074.332 1096.5703 C 1227.9391 1192.233 1283.1537 1261.659 1239.9688 1304.8438 C 1196.2371 1347.4821 1101.9408 1344.2022 957.08008 1295.0039 L 957.08008 1096.5703 z M 896.40039 1368.8008 L 922.63867 1380.2812 L 919.89453 1751.8125 L 893.65625 1751.8125 L 896.40039 1368.8008 z " /></svg>
