<?xml version="1.0" encoding="UTF-8" standalone="no"?>
<svg
   width="5.0050001"
   height="17.972717"
   id="svg2569"
   sodipodi:version="0.32"
   inkscape:version="1.2.1 (9c6d41e410, 2022-07-14)"
   sodipodi:docname="US9T8VARA.svg"
   version="1.1"
   xmlns:inkscape="http://www.inkscape.org/namespaces/inkscape"
   xmlns:sodipodi="http://sodipodi.sourceforge.net/DTD/sodipodi-0.dtd"
   xmlns="http://www.w3.org/2000/svg"
   xmlns:svg="http://www.w3.org/2000/svg"
   xmlns:rdf="http://www.w3.org/1999/02/22-rdf-syntax-ns#"
   xmlns:cc="http://creativecommons.org/ns#"
   xmlns:dc="http://purl.org/dc/elements/1.1/">
  <metadata
     id="metadata2576">
    <rdf:RDF>
      <cc:Work
         rdf:about="">
        <dc:format>image/svg+xml</dc:format>
        <dc:type
           rdf:resource="http://purl.org/dc/dcmitype/StillImage" />
        <dc:date>30/09/06</dc:date>
        <dc:description>variante optimisée du signe Jsesh</dc:description>
        <dc:creator>
          <cc:Agent>
            <dc:title />
          </cc:Agent>
        </dc:creator>
        <dc:publisher>
          <cc:Agent>
            <dc:title>Serge Rosmorduc</dc:title>
          </cc:Agent>
        </dc:publisher>
        <cc:license
           rdf:resource="http://creativecommons.org/licenses/GPL/2.0/" />
      </cc:Work>
      <cc:License
         rdf:about="http://creativecommons.org/licenses/GPL/2.0/">
        <cc:permits
           rdf:resource="http://web.resource.org/cc/Reproduction" />
        <cc:permits
           rdf:resource="http://web.resource.org/cc/Distribution" />
        <cc:requires
           rdf:resource="http://web.resource.org/cc/Notice" />
        <cc:permits
           rdf:resource="http://web.resource.org/cc/DerivativeWorks" />
        <cc:requires
           rdf:resource="http://web.resource.org/cc/ShareAlike" />
        <cc:requires
           rdf:resource="http://web.resource.org/cc/SourceCode" />
      </cc:License>
    </rdf:RDF>
  </metadata>
  <defs
     id="defs2574" />
  <sodipodi:namedview
     inkscape:window-height="1017"
     inkscape:window-width="1920"
     inkscape:pageshadow="2"
     inkscape:pageopacity="0.0"
     guidetolerance="10.0"
     gridtolerance="10.0"
     objecttolerance="10.0"
     borderopacity="1.0"
     bordercolor="#666666"
     pagecolor="#ffffff"
     id="base"
     inkscape:zoom="34.04"
     inkscape:cx="1.9682726"
     inkscape:cy="5.9635723"
     inkscape:window-x="1072"
     inkscape:window-y="-8"
     inkscape:current-layer="svg2569"
     inkscape:showpageshadow="2"
     inkscape:pagecheckerboard="0"
     inkscape:deskcolor="#d1d1d1"
     showgrid="false"
     inkscape:window-maximized="1" />
  <path
     style="fill:#000000;stroke:none"
     d="M 2.6265412,17.335104 C 2.8177077,17.067114 4.3243891,5.2514328 4.3759912,4.9461711 4.2970565,4.9252242 3.2688419,6.0110347 2.5788766,6.4876799 1.8412468,6.0110347 0.7380224,5.0597877 0.7380224,5.0597877 0.8557612,5.398069 2.4184039,17.008686 2.6265412,17.335104 Z M 4.2951948,1.501093 c 0,-0.2922393 -0.1195523,-0.3420987 -0.358657,-0.574562 C 3.6974325,0.69406833 2.9191712,0.577837 2.5073799,0.577837 c -0.3985087,0 -0.9699993,0.0209023 -1.4474266,0.348694 -0.2391047,0.2324633 -0.358657,0.2823227 -0.358657,0.574562 z M 2.5073799,0 c 0.6243293,0 1.5686356,0.18929133 1.9272929,0.567874 0.3586573,0.37858267 0.537986,0.727323 0.537986,1.471205 H 2.9828557 l -5e-7,3.3464542 C 3.2274303,5.2108938 4.7390217,3.7580866 4.9914104,3.9042059 5.0199304,4.2113028 3.1828918,17.285852 3.1828918,17.285852 c 0,0 -0.2170843,0.696954 -0.5563509,0.686865 C 2.2206201,17.894126 2.1656464,17.517172 2.0796601,17.309685 1.9655776,16.941646 0.0757963,4.4257932 0.0566521,4.1425285 0.3223241,3.9964092 1.8102959,5.2109361 2.0892513,5.3379112 L 2.0415867,2.0152893 0.0238323,2.039079 c 0,-0.743882 0.2984899,-1.14028685 0.6571473,-1.51886952 C 1.0396369,0.14162681 1.8963339,0 2.5073799,0 Z"
     id="path2571"
     sodipodi:nodetypes="cccccccscccsscccccccccccss" />
</svg>
