<?xml version="1.0" encoding="UTF-8" standalone="no"?>
<!-- Created with Inkscape (http://www.inkscape.org/) -->

<svg
   width="1173.8922"
   height="1800.002"
   viewBox="0 0 1173.8922 1800.002"
   version="1.1"
   id="svg1691"
   xmlns="http://www.w3.org/2000/svg"
   xmlns:svg="http://www.w3.org/2000/svg">
  <defs
     id="defs1688">
    <clipPath
       clipPathUnits="userSpaceOnUse"
       id="clipEmfPath1">
      <path
         d="M 0,0 H 124.43852 V 129.53846 H 0 Z"
         id="path1068" />
    </clipPath>
    <pattern
       id="EMFhbasepattern"
       patternUnits="userSpaceOnUse"
       width="6"
       height="6"
       x="0"
       y="0" />
  </defs>
  <path
     id="path1"
     style="color:#000000;fill:#000000;stroke-linecap:round;stroke-linejoin:round;-inkscape-stroke:none"
     d="m 436.65,0 50.64453,287.76758 c -11.65346,8.71026 -22.14033,18.88965 -31.2461,30.22265 L 166.78476,267.08398 V 571.43359 L 421.44882,524.67578 C 296.63769,813.61977 143.64106,1063.4332 101.19797,1366.0502 l -0.39062,2.7851 c -24.731888,25.3292 -60.440223,65.3109 -63.180683,121.1627 -1.742825,35.5196 16.102589,49.6812 22.027546,65.1745 L 0,1800.002 h 303.72461 l -9.52149,-190.6055 c 7.37365,-4.9193 14.25297,-10.5205 20.5625,-16.7051 l 550.10313,-1.9848 c 4.70521,4.612 9.72535,8.9011 15.03515,12.8223 l -10.4375,194.4883 h 304.4258 l -80.3555,-223.9321 c 9.597,-18.9645 25.3044,-60.8677 25.3044,-83.4801 0,-40.9901 -25.488,-90.996 -53.7337,-116.7082 l -0.8848,-4.1758 C 1001.3988,1072.9159 849.44769,810.35176 738.12461,520.39648 l 273.95119,50.29883 V 266.3457 l -289.84377,51.00977 c -9.7441,-12.01199 -21.08426,-22.66797 -33.68164,-31.67969 L 740.99961,0 Z m 66.03906,55.431641 H 674.46445 L 640.14218,242.37109 H 535.5875 Z m 86.70117,248.232419 c 67.21822,0 121.17383,53.95561 121.17383,121.17383 0,67.21822 -53.95561,121.17579 -121.17383,121.17578 -67.21821,0 -121.17578,-53.95757 -121.17578,-121.17578 0,-67.21821 53.95757,-121.17382 121.17578,-121.17383 z m 367.25391,28.71875 V 504.16016 L 769.70468,469.83789 V 365.28125 Z m -734.42774,0.73828 186.93946,32.89844 V 470.57617 L 222.2164,504.89648 Z M 467.27304,544.3457 c 19.33729,19.7542 43.38541,34.86935 70.30274,43.47266 -54.36913,279.51044 -157.32172,505.59404 -239.26335,765.89874 -10.82229,-5.5642 -23.02311,-12.0078 -39.90625,-16.791 -21.12439,-5.9849 -67.8764,-14.1327 -101.72383,-4.7744 43.1419,-282.2655 192.92228,-515.42981 310.59069,-787.806 z m 231.0918,12.13868 c 101.68598,267.11266 247.82274,508.60272 307.65856,780.28742 -57.17755,-15.0101 -94.71017,-3.9167 -125.51989,11.9312 -82.2689,-264.2385 -199.56017,-495.29736 -243.11328,-759.74011 22.59004,-6.63923 43.28116,-17.79811 60.97461,-32.47851 z m -111.53125,39.34374 c 40.02723,280.83678 173.55697,528.29048 253.08985,790.69128 l -499.45672,-0.607 C 426.72406,1115.7035 531.10138,882.42472 586.83359,595.82812 Z M 198.53348,1381.4026 c 86.53595,0 108.59544,60.936 108.59543,111.1872 10e-6,50.2514 -63.52762,87.8633 -113.77895,87.8633 -50.25133,0 -105.842445,-40.2037 -105.842425,-90.4551 -2e-5,-50.2512 60.774615,-108.5954 111.025945,-108.5954 z m 779.97566,3.1988 c 50.25126,0 90.45306,55.7523 90.45306,106.0036 0,50.2514 -40.2018,90.4551 -90.45306,90.4551 -45.00038,0 -97.46814,-32.2491 -104.69703,-75.0742 -0.65007,-14.6095 0.56861,-45.2128 3.71875,-60.8708 12.26015,-35.3661 61.24234,-60.5137 100.97828,-60.5137 z m -618.31363,46.0064 467.91738,5.7905 c -8.45231,28.9609 -5.42362,75.1779 0.004,104.4294 l -467.5915,1.9848 c 15.76995,-31.4715 9.4501,-81.4542 -0.32988,-112.2047 z M 94.828041,1607.5221 c 38.370849,36.0813 112.883729,30.3015 150.461019,22.4427 l 6.00196,120.1563 H 69.119141 Z m 956.760459,4.632 51.9756,135.9822 H 922.09531 l 6.51953,-121.4863 c 17.88633,4.5396 72.76746,26.4723 122.97366,-14.4959 z" />
</svg>
