<?xml version="1.0" encoding="UTF-8" standalone="no"?>
<!-- Created with Inkscape (http://www.inkscape.org/) -->

<svg
   width="841.84039"
   height="1797.969"
   id="svg2"
   version="1.0"
   xmlns="http://www.w3.org/2000/svg"
   xmlns:svg="http://www.w3.org/2000/svg"
   xmlns:rdf="http://www.w3.org/1999/02/22-rdf-syntax-ns#"
   xmlns:cc="http://creativecommons.org/ns#"
   xmlns:dc="http://purl.org/dc/elements/1.1/">
  <defs
     id="defs4" />
  <metadata
     id="metadata7">
    <rdf:RDF>
      <cc:Work
         rdf:about="">
        <dc:format>image/svg+xml</dc:format>
        <dc:type
           rdf:resource="http://purl.org/dc/dcmitype/StillImage" />
        <dc:creator>
          <cc:Agent>
            <dc:title>S. Rosmorduc</dc:title>
          </cc:Agent>
        </dc:creator>
        <dc:description>T36 shield, loosely inpired by a Karnak version and the Manuel de codage.</dc:description>
      </cc:Work>
    </rdf:RDF>
  </metadata>
  <path
     id="path2758"
     style="fill:#000000;fill-opacity:1;fill-rule:evenodd;stroke:none;stroke-width:49.1221;stroke-linecap:butt;stroke-linejoin:miter;stroke-miterlimit:4;stroke-dasharray:none;stroke-opacity:1"
     d="m 669.74506,0.0286079 c -3.21743,-0.04069509 -6.42878,-0.036093 -9.62891,0.0019036 C 589.54186,0.11286535 516.15682,19.139186 463.42084,66.855215 406.34134,117.23029 379.68893,195.0649 386.97357,269.04078 c 0.99624,12.53414 2.86387,24.98413 5.33789,37.3207 C 264.60102,316.32063 129.69561,353.15385 46.641544,453.25704 -7.7141247,516.42571 0.48027086,600.75742 0.39154426,677.38689 V 1797.9695 H 841.70599 C 841.17532,1388.7311 842.7691,979.43982 840.90912,570.23358 833.95817,450.68625 721.37251,370.63177 612.63959,338.60305 571.77397,325.47241 529.5856,316.6547 486.96771,310.87142 c 31.2188,-13.49537 66.5701,-19.15781 99.79688,-25.01691 55.64915,-9.57245 116.7723,-14.83584 161.26367,-52.58099 40.69351,-35.60285 50.53929,-93.24261 45.375,-144.001894 C 789.69657,55.904704 768.79676,23.794868 735.87592,11.530939 715.05423,2.8123343 692.26707,0.31347321 669.74506,0.0286079 Z m -9.66797,49.0781391 c 25.82221,0.881813 57.14788,0.111224 74.97656,21.582578 15.62834,25.760301 8.77485,57.074245 4.77539,84.976755 -6.0273,27.90452 -28.69572,50.22171 -56.20312,58.93756 -61.85538,23.45508 -130.26275,20.2557 -192.73829,41.77544 -17.93485,3.43075 -40.58804,20.32365 -52.86132,21.19612 -10.1477,-65.86503 11.98908,-138.37801 66.41015,-180.880934 43.1659,-34.928978 100.52001,-48.089135 155.64063,-47.587519 z M 424.53216,356.7532 c 119.0488,7.97324 252.51359,34.69611 330.25782,130.8909 48.71912,64.23067 29.07523,146.46849 33.16015,220.6308 V 1745.5731 H 54.147403 C 54.557671,1355.3098 53.32641,965.00692 54.762638,574.76827 61.314875,473.01957 161.81824,410.99115 253.21185,385.31485 308.71511,368.82946 366.59813,359.20523 424.53216,356.7532 Z m -5.14257,213.20625 c -88.16993,-2.22662 -155.66921,96.6028 -118.95313,174.95081 33.19853,91.44156 179.11511,108.25804 230.70508,24.52765 42.84943,-65.72589 16.1753,-168.20228 -64.21289,-192.02727 -15.23021,-5.19476 -31.41314,-7.62847 -47.53906,-7.45119 z m 1.66406,36.22606 c 75.14855,-3.96905 121.7049,92.17863 73.31836,146.8632 -39.94889,54.57867 -136.57794,41.32289 -159.59961,-21.75012 -25.81837,-57.40956 21.62039,-127.05716 86.28125,-125.11308 z" />
</svg>
