<?xml version="1.0" encoding="UTF-8" standalone="no"?>
<!-- Created with Inkscape (http://www.inkscape.org/) -->

<svg
   width="1800"
   height="1114.3749"
   viewBox="0 0 1800 1114.3749"
   version="1.1"
   id="svg1691"
   xmlns="http://www.w3.org/2000/svg"
   xmlns:svg="http://www.w3.org/2000/svg">
  <defs
     id="defs1688">
    <clipPath
       clipPathUnits="userSpaceOnUse"
       id="clipEmfPath1">
      <path
         d="M 0,0 H 124.43852 V 129.53846 H 0 Z"
         id="path1068" />
    </clipPath>
    <pattern
       id="EMFhbasepattern"
       patternUnits="userSpaceOnUse"
       width="6"
       height="6"
       x="0"
       y="0" />
  </defs>
  <path
     id="path1"
     style="color:#000000;fill:#000000;stroke-width:1.05362;-inkscape-stroke:none"
     d="M 1729.3574 0 L 1729.3574 181.28711 C 1327.337 205.63516 1036.5541 350.73946 841.19727 526.92188 C 663.97049 686.75371 564.80898 870.33044 528.9043 1015.7246 L 525.74805 1015.7246 L 360.9707 959.13867 L 354.52539 727.13281 L 289.54883 728.9375 L 295.97266 960.17188 C 290.85144 961.91808 284.7141 964.05506 279.18945 965.94922 L 187.08594 734.01172 L 126.67578 758 L 217.66406 987.125 C 150.28884 1010.4964 86.673828 1032.7109 86.673828 1032.7109 L 0 1032.7109 L 0 1114.375 L 1799.998 1114.375 L 1799.998 0 L 1729.3574 0 z M 1729.3574 251.6875 L 1729.3574 419.68164 C 1710.741 417.78069 1691.6495 416.66466 1672.0586 416.50977 C 1521.5958 415.32013 1345.3056 464.95832 1187.9883 555.11719 C 1009.5945 657.35501 854.89251 814.22349 802.63086 1015.7246 L 601.5 1015.7246 C 637.32674 888.93834 728.40924 722.89981 888.07617 578.9043 C 1071.3524 413.61677 1344.3622 275.89611 1729.3574 251.6875 z M 1671.873 486.92773 C 1691.8503 486.96879 1711.0417 488.05936 1729.3574 490.12109 L 1729.3574 1015.7246 L 875.31055 1015.7246 C 926.04052 845.687 1061.5494 708.25976 1222.7949 615.84961 C 1369.8366 531.57971 1537.6034 486.65178 1671.873 486.92773 z " />
</svg>
