<?xml version="1.0" encoding="UTF-8" standalone="no"?>
<svg
   width="14.75"
   height="15.68"
   version="1.1"
   id="svg4"
   sodipodi:docname="US9T103VARA.svg"
   inkscape:version="1.2.1 (9c6d41e410, 2022-07-14)"
   xmlns:inkscape="http://www.inkscape.org/namespaces/inkscape"
   xmlns:sodipodi="http://sodipodi.sourceforge.net/DTD/sodipodi-0.dtd"
   xmlns="http://www.w3.org/2000/svg"
   xmlns:svg="http://www.w3.org/2000/svg">
  <defs
     id="defs8" />
  <sodipodi:namedview
     id="namedview6"
     pagecolor="#ffffff"
     bordercolor="#000000"
     borderopacity="0.25"
     inkscape:showpageshadow="2"
     inkscape:pageopacity="0.0"
     inkscape:pagecheckerboard="0"
     inkscape:deskcolor="#d1d1d1"
     showgrid="false"
     inkscape:zoom="38.944797"
     inkscape:cx="6.8815354"
     inkscape:cy="9.0127572"
     inkscape:window-width="1920"
     inkscape:window-height="1017"
     inkscape:window-x="1072"
     inkscape:window-y="-8"
     inkscape:window-maximized="1"
     inkscape:current-layer="svg4" />
  <g
     id="g302"
     transform="translate(0.20541897,-2.3879956)">
    <path
       style="fill:#000000;stroke:none"
       d="M 9.1831446,8.6851411 0.22759247,3.6285921 C 0.04839875,3.543866 -0.0252071,3.3711622 0.00677486,3.1104805 0.03875688,2.8497989 0.21945619,2.7110226 0.54887296,2.6941517 L 14.150579,6.0507721 C 14.501197,6.6059498 14.427073,7.0711677 13.928204,7.4464259 12.558645,7.0697169 11.624048,6.9192513 11.124413,6.9950297 10.622834,7.0644312 10.180755,7.3631156 9.7981817,7.8910822 Z M 0.87539166,3.284563 8.9720412,7.7876805 C 9.3368912,7.293002 9.7194147,6.8905123 10.119612,6.5802113 10.51981,6.2699102 11.752046,6.3678948 13.816326,6.8741644 l 0.12287,-0.3511446 z"
       id="path2"
       sodipodi:nodetypes="ccsccccccccsccc" />
    <path
       d="m 10.102485,17.393344 -10e-4,-0.399999 -0.3597975,0.08091 8.06e-4,0.319999 z m -0.0026,-1.039997 -0.0045,-1.779994 c -0.1199663,0.01364 -0.2398985,0.0406 -0.3597975,0.08091 l 0.0045,1.779994 z m -0.0061,-2.419993 -0.0043,-1.699994 -0.3597475,0.100907 0.0042,1.679995 z M 5.7193565,8.224365 c -1.219996,0.00308 -2.249245,0.3023383 -3.087747,0.897787 -0.8385014,0.5954487 -1.2564084,1.426505 -1.2537194,2.493167 l 0.360251,0.09909 c -0.0025,-0.986663 0.3822384,-1.7576347 1.1541734,-2.3129155 0.771936,-0.5552807 1.714569,-0.834325 2.827899,-0.8371316 1.106663,-0.00279 2.050691,0.2714981 2.832083,0.822863 0.781393,0.5513649 1.173349,1.3270461 1.17587,2.3270421 L 10.087864,11.593362 C 10.085175,10.526699 9.6630835,9.6977607 8.8215905,9.1065472 7.9800965,8.5153337 6.9460195,8.2212727 5.7193565,8.224365 Z m -3.493401,6.588827 0.0045,1.779994 c 2.327634,0.3808 4.67096,0.374893 7.029978,-0.01772 l -0.0045,-1.779995 c -2.359051,0.379282 -4.702376,0.385189 -7.029977,0.01772 z m 3.49214,-7.0888254 c 1.359996,-0.00343 2.507525,0.3370127 3.442586,1.0213246 0.9350615,0.684312 1.4040045,1.5864648 1.4068275,2.7064608 l 0.799393,-0.242016 0.0016,0.639998 -0.799392,0.242016 0.0043,1.699995 0.799443,-0.222017 0.0015,0.599999 -0.799342,0.262016 0.0045,1.779994 0.799392,-0.242016 0.0016,0.639998 -0.799393,0.242016 0.0026,1.039997 -1.3199965,0.0033 -0.0017,-0.679998 c -2.359051,0.379281 -4.702377,0.385189 -7.029977,0.01772 l 0.0017,0.679998 -1.31999642,0.0033 -0.0026,-1.039997 -0.800602,-0.237983 -0.0016,-0.639998 0.800603,0.237983 -0.0045,-1.779994 -0.800652,-0.257983 -0.02151,-0.599948 0.820552,0.217932 -0.0043,-1.699994 -0.800602,-0.237983 -0.02161,-0.639947 0.820602,0.237932 C 0.89472108,10.356476 1.3590861,9.45197 2.2906855,8.7629523 3.2222845,8.0739345 4.3647495,7.7277203 5.7180775,7.7243086 Z m 0.0033,1.3199958 c -0.97333,0.00245 -1.799415,0.234537 -2.478253,0.6962498 -0.685505,0.4617288 -1.027081,1.1592598 -1.024728,2.0925888 2.340968,0.380767 4.684293,0.374859 7.029978,-0.01772 C 9.2460725,10.882149 8.9009795,10.18635 8.2131545,9.728083 7.5253305,9.2698156 6.6947535,9.0419087 5.7214235,9.0443624 Z m -3.501367,3.4288366 0.0043,1.699995 c 2.327601,0.367466 4.670927,0.361559 7.029978,-0.01772 l -0.0043,-1.699995 c -2.345718,0.379248 -4.689044,0.385156 -7.029978,0.01772 z m -0.4760664,1.561205 -0.0042,-1.679995 -0.36015,-0.05909 0.0042,1.659995 z m 0.0061,2.419993 -0.0045,-1.779995 c -0.133433,-0.03966 -0.2535,-0.06603 -0.3602,-0.07909 l 0.0045,1.779994 z m 0.0024,0.959997 -8.07e-4,-0.319999 -0.3602,-0.07909 0.001,0.399999 z m 0.6415104,0.598384 z"
       style="fill:#000000;stroke:none"
       id="path218" />
  </g>
</svg>
