<?xml version="1.0" encoding="UTF-8" standalone="no"?>
<svg
   width="12.439"
   height="12.48"
   version="1.1"
   id="svg433"
   sodipodi:docname="US9T12VARA.svg"
   inkscape:version="1.2.1 (9c6d41e410, 2022-07-14)"
   xmlns:inkscape="http://www.inkscape.org/namespaces/inkscape"
   xmlns:sodipodi="http://sodipodi.sourceforge.net/DTD/sodipodi-0.dtd"
   xmlns="http://www.w3.org/2000/svg"
   xmlns:svg="http://www.w3.org/2000/svg">
  <defs
     id="defs437">
    <pattern
       id="EMFhbasepattern"
       patternUnits="userSpaceOnUse"
       width="6"
       height="6"
       x="0"
       y="0" />
  </defs>
  <sodipodi:namedview
     id="namedview435"
     pagecolor="#ffffff"
     bordercolor="#000000"
     borderopacity="0.25"
     inkscape:showpageshadow="2"
     inkscape:pageopacity="0.0"
     inkscape:pagecheckerboard="0"
     inkscape:deskcolor="#d1d1d1"
     showgrid="false"
     inkscape:zoom="46.549016"
     inkscape:cx="12.234415"
     inkscape:cy="6.2299921"
     inkscape:window-width="1920"
     inkscape:window-height="1137"
     inkscape:window-x="-8"
     inkscape:window-y="-8"
     inkscape:window-maximized="1"
     inkscape:current-layer="svg433" />
  <path
     style="fill:#000000;fill-opacity:1;fill-rule:nonzero;stroke:none;stroke-width:0.55408"
     d="m 2.3727673,12.330793 c 0.761904,0.143778 1.123935,-0.139302 1.459585,-0.379774 0.672988,-0.482154 0.883781,-1.206433 0.755967,-2.022069 C 4.4390443,8.9763631 4.2162653,8.4064721 3.8498023,7.8966222 4.4185443,7.5585189 5.5969833,7.0992288 6.6972503,6.8656599 6.9527513,6.811421 8.2460083,6.5335236 8.4306373,6.5335236 l 1.112276,1.409304 c 0.4854557,0.6150947 1.6920637,2.7251514 2.2459517,3.6489374 l 0.553888,-0.184758 C 12.158124,10.852736 10.549631,8.1669572 10.05436,7.4896078 9.9001933,7.2787631 9.4410323,6.680309 9.1866043,6.3313159 c 0.08082,-0.00353 0.8545027,-0.2476644 1.0976437,-0.3346147 0.530359,-0.1896628 0.7661,-0.132408 0.58147,-1.056193 C 10.57857,3.0283108 9.2188033,1.3763906 7.9116483,0.50633619 7.4972053,0.23047891 7.3179473,0.47371929 7.1731313,0.69109319 6.9441093,1.0348642 6.8552603,1.6311323 6.9885013,2.1691502 c 0.218674,0.8829929 0.355774,1.992614 0.738518,2.771358 0.154314,0.3139725 0.269514,0.707201 0.369258,0.923785 -0.184629,0 -1.134868,0.2670333 -1.315548,0.305019 -1.404319,0.2952399 -2.173269,0.5714561 -3.300186,1.173038 C 3.0771443,6.6907395 2.6814373,6.0748053 2.2055883,5.4947792 2.7594763,5.3100222 3.4519593,5.067868 3.7524213,4.4734845 3.9476123,4.0873521 3.5713573,2.4282677 3.2959143,1.9843932 2.9989603,1.5058542 2.7579683,1.1610169 2.3084003,0.71113686 2.1237713,0.5263798 1.6024713,-0.00488408 1.0360383,0.13682217 0.85692926,0.18163047 0.52647326,0.50633619 0.34184426,0.87585016 c -0.369259,0.92378604 -0.369259,1.84757204 0,2.77135804 0.425894,1.0809106 1.31012804,2.2007519 1.84629404,2.956114 l 0.738517,1.108543 c -0.553888,0.369514 -0.843441,0.7911215 -1.107776,1.108543 -0.668581,0.8028516 -0.706144,1.9395518 -0.369259,2.7713568 0.157458,0.388782 0.536754,0.666112 0.923147,0.739028 z m 0.958046,-4.0020474 c 0.622398,0.9278171 0.862871,2.2986734 0.306777,2.9458534 -0.433933,0.50501 -0.983981,0.60496 -1.344754,0.369515 -0.776504,-0.506757 -0.346749,-1.803309 -0.104698,-2.2694348 0.240745,-0.463611 0.773416,-0.8611766 1.142675,-1.0459336 z m 4.396206,-7.0833804 c 0.125765,-0.2281698 1.019224,0.7387857 1.477035,1.2933 C 9.6280763,3.0522535 10.301895,4.4108751 10.301698,5.149904 10.301624,5.425297 9.3349293,5.5544162 8.8347953,5.6795362 8.7323453,5.3450282 8.3826113,4.7942683 8.2554313,4.4784423 8.0361743,3.9339585 7.7968183,2.7076796 7.7444693,2.5006936 7.6921203,2.2937076 7.6012543,1.473535 7.7270193,1.2453652 Z M 1.2006233,0.89589386 c 0.511676,-0.033163 1.100853,0.79985274 1.541403,1.45801434 0.229772,0.3432687 0.6028,1.3249631 0.341676,1.847571 -0.116746,0.2336525 -0.895564,0.554272 -1.264823,0.739029 C 1.4496203,4.3862362 0.95340626,3.6441921 0.87992426,3.2820571 0.68444726,2.3186999 0.48068426,1.3161908 1.2006233,0.89589386 Z"
     id="path442"
     sodipodi:nodetypes="ssscscsccscscsssscsccssssccccssscsssczsscszzcsscsc" />
</svg>
