<?xml version="1.0" encoding="UTF-8" standalone="no"?>
<svg
   width="21.125"
   height="5.8125"
   id="svg2434"
   sodipodi:version="0.32"
   inkscape:version="1.2.1 (9c6d41e410, 2022-07-14)"
   sodipodi:docname="US9T21DVARA.svg"
   inkscape:output_extension="org.inkscape.output.svg.inkscape"
   version="1.0"
   xmlns:inkscape="http://www.inkscape.org/namespaces/inkscape"
   xmlns:sodipodi="http://sodipodi.sourceforge.net/DTD/sodipodi-0.dtd"
   xmlns="http://www.w3.org/2000/svg"
   xmlns:svg="http://www.w3.org/2000/svg"
   xmlns:rdf="http://www.w3.org/1999/02/22-rdf-syntax-ns#"
   xmlns:cc="http://creativecommons.org/ns#"
   xmlns:dc="http://purl.org/dc/elements/1.1/">
  <metadata
     id="metadata2441">
    <rdf:RDF>
      <cc:Work
         rdf:about="">
        <dc:format>image/svg+xml</dc:format>
        <dc:type
           rdf:resource="http://purl.org/dc/dcmitype/StillImage" />
      </cc:Work>
    </rdf:RDF>
  </metadata>
  <defs
     id="defs2439">
    <inkscape:perspective
       sodipodi:type="inkscape:persp3d"
       inkscape:vp_x="0 : 1.8 : 1"
       inkscape:vp_y="0 : 1000 : 0"
       inkscape:vp_z="21.120001 : 1.8 : 1"
       inkscape:persp3d-origin="10.56 : 1.2 : 1"
       id="perspective2443" />
  </defs>
  <sodipodi:namedview
     inkscape:window-height="1017"
     inkscape:window-width="1920"
     inkscape:pageshadow="2"
     inkscape:pageopacity="0.0"
     guidetolerance="10.0"
     gridtolerance="10.0"
     objecttolerance="10.0"
     borderopacity="1.0"
     bordercolor="#666666"
     pagecolor="#ffffff"
     id="base"
     showgrid="false"
     showguides="true"
     inkscape:guide-bbox="true"
     showborder="true"
     inkscape:zoom="54.017383"
     inkscape:cx="10.570671"
     inkscape:cy="3.3692858"
     inkscape:window-x="1072"
     inkscape:window-y="-8"
     inkscape:current-layer="svg2434"
     inkscape:showpageshadow="2"
     inkscape:pagecheckerboard="0"
     inkscape:deskcolor="#d1d1d1"
     inkscape:window-maximized="1" />
  <path
     id="path3330"
     style="fill:#000000;stroke:none"
     d="M 14.394531 0.017578125 L 14.394531 0.51757812 L 14.394531 3.7988281 L 13.873047 3.7988281 C 12.937809 3.5406822 10.932999 2.5811639 10.640625 2.2050781 C 10.324032 1.7978368 10.313868 1.4148579 10.611328 1.0410156 C 10.908793 0.66717408 11.221658 0.49461788 11.541016 0.53320312 C 11.860372 0.5717892 12.076946 0.7167051 12.240234 1.0039062 C 12.403527 1.2911072 12.350508 1.5577204 12.078125 1.7519531 C 11.805747 1.9461851 11.397343 1.8505867 11.392578 1.6269531 C 11.462636 1.2409512 10.848378 1.1981487 10.802734 1.4570312 C 10.724226 1.6740027 10.929607 1.9849257 11.130859 2.1367188 C 11.332113 2.288512 11.572792 2.3657391 11.861328 2.3496094 C 12.149862 2.3334798 12.419004 2.1850254 12.636719 1.9257812 C 12.854438 1.6665369 12.918879 1.4094412 12.855469 1.1074219 C 12.792051 0.80540244 12.582765 0.50698482 12.234375 0.24609375 C 12.020966 0.094304465 11.464163 -0.056917253 11.013672 0.1015625 C 10.540037 0.26406083 10.188883 0.6078026 9.9570312 1.1328125 C 9.7251852 1.6578201 9.8925637 2.221881 10.455078 2.7988281 C 11.143455 3.2653562 11.729659 3.6301874 12.484375 3.7949219 L 4.0625 3.78125 L 5.0625 2.40625 L 0 4.125 L 5.0625 5.8125 L 4.0625 4.4375 L 21.154297 4.4375 L 21.146484 3.78125 C 21.146484 3.78125 16.172812 3.7865651 16.144531 3.7988281 L 16.144531 0.017578125 L 16.113281 0.017578125 L 14.394531 0.017578125 z M 14.925781 0.51757812 L 15.582031 0.51757812 L 15.582031 3.7988281 L 14.925781 3.7988281 L 14.925781 0.51757812 z " />
  <g
     id="g590"
     transform="matrix(1.0475416,-0.1463333,0.13834878,0.99038357,-12.069132,6.6474682)" />
</svg>
