<?xml version="1.0" encoding="UTF-8" standalone="no"?>
<svg
   width="1125.3048"
   height="1799.9572"
   version="1.1"
   id="svg1"
   xmlns="http://www.w3.org/2000/svg"
   xmlns:svg="http://www.w3.org/2000/svg">
  <defs
     id="defs1" />
  <path
     id="path1"
     style="fill:#000000;stroke:none;stroke-width:97.6624"
     d="M 600.40198,0 241.88671,137.03816 c 59.64266,82.3363 124.63505,154.07461 177.78486,193.03585 -15.49966,8.1535 -20.75391,23.12516 -20.75391,42.05771 0,28.8478 9.25131,44.29755 27.59639,47.23905 -43.59875,63.23233 -109.02023,147.52351 -149.55986,248.33914 -49.4822,123.05441 -121.34482,241.56497 -140.22618,360.71279 -18.88136,119.148 -18.55632,251.6444 0.97613,397.4868 h -33.20586 c -40.367053,0 -60.551077,17.5795 -60.551077,52.738 0,33.205 19.533922,49.8079 58.598797,49.8079 h 7.81293 C 73.24729,1581.1929 36.460568,1671.694 0,1799.9572 H 385.76723 C 351.25993,1671.694 314.47319,1581.1929 275.4083,1528.4554 h 32.74348 c 23.30638,0 58.50392,-12.1311 57.68926,-49.8079 -0.81465,-37.6768 -21.0336,-52.738 -56.43151,-52.738 h -41.81415 c 41.6692,-47.529 87.89593,-194.4219 138.68028,-337.0088 50.78436,-142.58684 142.07892,-416.94236 162.23732,-480.94944 58.40881,98.38872 120.17744,351.02599 168.35749,490.35724 48.18003,139.3315 81.44796,281.0283 125.72151,326.6042 h -32.43524 c -28.84465,0 -70.04229,3.4485 -70.04229,52.3974 0,48.949 38.4928,50.1485 70.04229,50.1485 h 19.7397 c -37.11163,52.7375 -73.89836,143.2386 -110.35893,271.5018 h 385.76729 c -34.5072,-128.2632 -71.2941,-218.7643 -110.359,-271.5018 h 8.7891 c 37.1116,0 55.6685,-17.5799 55.6685,-52.7382 0,-33.2053 -17.9068,-49.8077 -53.7162,-49.8077 H 990.52902 C 1009.4104,1277.768 1007.1456,1142.0298 988.9153,1022.8819 970.03394,903.73399 910.532,799.17904 861.04979,676.12465 820.63485,575.61905 750.16319,481.59808 706.7079,419.31369 c 17.44579,-3.17928 26.21687,-18.86028 26.21687,-47.18197 0,-31.49248 -15.68141,-47.39259 -53.93145,-47.39259 104.14389,-20.44855 218.02787,110.71716 276.12589,182.6878 L 1067.2363,407.1776 C 925.43406,181.90462 677.57534,132.54162 597.53824,267.89792 610.83953,200.55983 611.82868,111.32058 600.40198,0 Z m -62.30739,88.640304 c 14.40806,85.105796 10.93029,161.714706 -10.43309,229.824676 -8.11732,4.27697 -14.33841,4.83504 -23.24277,4.83504 C 444.19395,287.03978 391.84975,233.14691 347.43154,161.51966 Z M 997.6374,402.59564 957.59476,438.39883 C 829.92325,304.37181 744.98604,247.72619 596.50302,309.05347 743.02672,171.18379 892.9167,259.82436 997.6374,402.59564 Z M 455.56228,357.48202 h 221.69401 c 9.7662,0 14.6497,3.90638 14.6497,11.71938 0,7.16189 -4.8835,10.74324 -14.6497,10.74324 H 455.56228 c -11.06835,0 -16.60197,-3.58135 -16.60197,-10.74324 0,-7.813 5.53362,-11.71938 16.60197,-11.71938 z m 42.09389,62.50336 h 68.26506 68.4287 c 49.66788,59.50546 125.69409,156.34272 171.0314,264.92832 52.73758,126.9609 112.56459,228.58651 128.84163,337.9682 16.27702,109.3817 18.54373,245.1199 1.61561,402.0308 H 921.18888 C 867.14909,1348.7359 829.32276,1194.9931 781.79381,1062.1723 734.26484,930.0029 700.33039,795.73631 621.77578,602.95335 L 565.92122,435.53593 516.22631,600.36159 c -71.43042,189.55269 -110.27535,331.30168 -157.8043,464.12231 -48.18004,132.8207 -97.98809,287.853 -149.42353,361.4256 h -18.55617 c -15.62597,-155.6086 -15.3009,-288.105 0.97614,-397.4868 C 207.04439,919.04109 278.58196,803.78681 330.6685,677.47699 376.13197,568.02791 447.35407,480.56462 497.65617,419.98538 Z M 102.54601,1459.1152 h 206.01297 c 3.21968,0 27.06932,0.5574 27.06932,19.5323 0,18.9749 -23.72556,16.6021 -26.52892,16.6021 H 102.54601 c -15.625945,0 -23.438762,-5.5336 -23.438762,-16.6021 0,-13.0215 7.812817,-19.5323 23.438762,-19.5323 z m 727.61074,-0.9968 h 193.57815 c 16.277,0 24.4149,6.5108 24.4149,19.5323 0,11.0685 -8.1379,16.6021 -24.4149,16.6021 H 830.15674 c -32.22624,0 -42.71743,-0.8765 -43.20892,-16.9427 -0.49149,-16.0663 10.41977,-19.1917 43.20893,-19.1917 z m -648.5054,70.337 h 22.46263 c 43.62245,55.3418 74.55053,126.311 92.7808,212.9049 H 91.802775 c 16.928105,-86.5939 46.877195,-157.5631 89.848575,-212.9049 z m 739.53753,-0.9968 h 23.43875 c 42.9714,55.3418 73.57247,125.6589 91.80277,210.9508 H 831.3403 c 16.92811,-85.2919 46.87719,-155.609 89.84858,-210.9508 z" />
</svg>
