<?xml version="1.0" encoding="UTF-8" standalone="no"?>
<svg
   width="857.75391"
   height="1793.9476"
   version="1.1"
   id="svg1025"
   xmlns="http://www.w3.org/2000/svg"
   xmlns:svg="http://www.w3.org/2000/svg">
  <defs
     id="defs1029">
    <clipPath
       clipPathUnits="userSpaceOnUse"
       id="clipEmfPath1">
      <path
         d="M 0,0 H 155.03816 V 70.379164 H 0 Z"
         id="path1148" />
    </clipPath>
    <pattern
       id="EMFhbasepattern"
       patternUnits="userSpaceOnUse"
       width="6"
       height="6"
       x="0"
       y="0" />
  </defs>
  <path
     id="path1218"
     style="fill:#000000;stroke:#000000;stroke-width:1;stroke-linecap:square;stroke-dasharray:none"
     d="M 44.321091,0.61810212 0.57890054,134.60248 c 0,0 128.74797946,110.46432 255.34374946,225.98047 l -4.50781,1428.19335 c 40.16488,6.694 76.84353,4.8447 117.60156,2.6914 2.20397,-32.4036 -5.09015,-814.21888 -6.04882,-1330.86131 28.50563,27.37189 55.32565,53.65927 76.6582,76.13086 104.62817,110.21469 323.31055,425.95117 323.31055,425.95117 l 77.56054,-87.94922 c 0,0 -268.6346,-371.60267 -386.95312,-473.25 -29.29045,-25.1634 -59.39942,-50.77217 -90.79688,-77.61523 0.0352,-48.85028 0.36763,-83.26274 0.60157,-122.66407 48.48659,17.62548 98.13561,37.03083 142.61914,57.49414 137.90768,63.44027 323.39257,231.86719 323.39257,231.86719 L 857.2,393.57514 c 0,0 -114.22289,-136.2399 -324.33789,-225.95117 -48.11449,-20.5431 -107.91647,-42.63488 -168.92969,-63.94922 0.72704,-50.49466 1.8068,-83.001585 3.35156,-90.68946 L 257.03203,9.3095079 256.84844,67.428649 C 141.55323,29.544991 44.321091,0.61810222 44.321091,0.61810212 Z M 130.61992,125.88959 c 0,0 53.44391,14.95826 125.92187,38.51367 l -0.21484,68.50196 C 185.50475,172.54923 130.61992,125.88959 130.61992,125.88959 Z" />
</svg>
