<?xml version="1.0" encoding="UTF-8" standalone="no"?>
<!-- Generator: Adobe Illustrator 25.2.3, SVG Export Plug-In . SVG Version: 6.00 Build 0)  -->

<svg
   version="1.1"
   id="Ebene_1"
   x="0px"
   y="0px"
   viewBox="0 0 610 1800"
   xml:space="preserve"
   sodipodi:docname="US9T8VARC.svg"
   width="610"
   height="1800"
   inkscape:version="1.2.1 (9c6d41e410, 2022-07-14)"
   xmlns:inkscape="http://www.inkscape.org/namespaces/inkscape"
   xmlns:sodipodi="http://sodipodi.sourceforge.net/DTD/sodipodi-0.dtd"
   xmlns="http://www.w3.org/2000/svg"
   xmlns:svg="http://www.w3.org/2000/svg"><defs
   id="defs1030" /><sodipodi:namedview
   id="namedview1028"
   pagecolor="#ffffff"
   bordercolor="#000000"
   borderopacity="0.25"
   inkscape:showpageshadow="2"
   inkscape:pageopacity="0.0"
   inkscape:pagecheckerboard="0"
   inkscape:deskcolor="#d1d1d1"
   showgrid="false"
   inkscape:zoom="0.44785584"
   inkscape:cx="280.2241"
   inkscape:cy="948.96609"
   inkscape:window-width="1920"
   inkscape:window-height="1137"
   inkscape:window-x="-8"
   inkscape:window-y="-8"
   inkscape:window-maximized="1"
   inkscape:current-layer="Ebene_1" />

<path
   id="path13833"
   style="color:#000000;fill:#000000;stroke-width:3.93222;-inkscape-stroke:none"
   d="M 309.85786,9.0761719 C 173.64616,5.4448052 71.345808,95.550797 10.998047,245.57227 c 2.9307,24.40072 -3.0792831,60.62413 12.623876,62.16665 58.207221,6.43251 134.450087,3.05796 183.018457,7.46635 52.27229,50.44682 44.66631,134.37852 16.35571,191.68731 -15.47407,14.31794 -48.05977,2.70755 -70.51757,6.44336 -32.87568,-0.0157 -65.751286,-0.0292 -98.626958,-0.0449 60.906408,317.33475 121.815458,634.67126 182.722658,952.00586 -96.78909,54.5233 -114.15584,201.8532 -32.96875,277.3906 75.75662,81.6375 223.486,63.4863 277.76758,-33.5703 54.33135,-83.9578 18.78127,-208.0601 -71.7461,-250.7656 49.78673,-314.9455 99.5746,-629.89233 149.36133,-944.83791 -53.33399,-0.0236 -106.66797,-0.0486 -160.00195,-0.0723 -40.35969,-64.7808 -24.74509,-159.09628 40.33789,-201.85157 51.35397,-10.46848 128.87295,4.70882 160.79101,-15.99609 C 604.28195,172.75087 516.15882,71.418763 424.30317,28.3125 387.61893,15.439529 348.71688,9.0694511 309.85786,9.0761719 Z m 0,52.0253901 c 112.66154,-3.649793 211.77516,78.854198 242.7398,197.156248 -163.21373,2.21948 -326.44553,2.94008 -489.669926,4 C 107.67479,147.1537 187.26285,62.388924 297.00825,61.365234 Z m 54.81597,251.308598 c -59.27785,49.56443 -26.86352,156.97146 -35.64063,197.06836 l -57.10547,-5.75196 c 23.27361,-43.81751 31.52033,-125.02141 3.10547,-190.62695 27.22062,-0.22944 62.41999,-0.45998 89.64063,-0.68945 z M 116.8125,565.33984 498.09961,565.5 l -138.50586,876.1934 -5.66378,49.5657 c 92.54198,18.1272 134.24554,151.287 64.49588,214.8776 -64.82675,71.1469 -197.7675,31.7383 -212.47461,-63.6758 -15.56511,-63.9288 34.76435,-142.8835 83.88628,-148.8069 l -6.75745,-48.5368 z"
   sodipodi:nodetypes="cccccccccccccccccccccccccccccccccccc" /></svg>
