<?xml version="1.0" encoding="UTF-8" standalone="no"?>
<svg
   width="1794.9102"
   height="1057.6073"
   version="1.1"
   id="svg1"
   xmlns="http://www.w3.org/2000/svg"
   xmlns:svg="http://www.w3.org/2000/svg">
  <defs
     id="defs1" />
  <path
     id="path1"
     style="fill:#000000;stroke:none;stroke-width:101.483"
     d="M 650.78778,0 441.68164,648.11709 C 302.64917,688.03121 155.49128,744.72789 0,818.63857 c 338.04789,159.31318 637.20062,238.96873 897.45508,238.96873 260.25452,0 559.40722,-79.65555 897.45512,-238.96873 C 1640.7754,745.06485 1494.5946,688.54063 1356.1758,648.6542 L 1116.0867,0 Z m 66,72.59961 h 144.98828 l 1.72784,505.6581 c -102.69211,2.69685 -211.22248,17.45217 -325.7207,44.53516 1.44499,-9.34092 3.1368,-18.66562 5.83203,-27.79883 z m 204.98828,0 h 129.96104 l 198.0774,522.39443 c 2.9543,10.19525 5.0583,18.69794 7.3476,27.57422 -117.199,-27.63856 -228.3705,-42.35631 -333.6582,-44.46289 z m -24.32098,599.77334 c 210.74962,0 434.23032,49.44214 670.43952,148.32617 -236.2092,96.13724 -459.6899,144.20508 -670.43952,144.20508 -209.33511,0 -432.81584,-48.06784 -670.43946,-144.20508 237.62362,-98.88403 461.10435,-148.32617 670.43946,-148.32617 z" />
</svg>
