<?xml version="1.0" encoding="UTF-8" standalone="no"?>
<!-- Created with Inkscape (http://www.inkscape.org/) -->

<svg
   width="1799.9844"
   height="1799.598"
   id="svg2451"
   version="1.0"
   xml:space="preserve"
   xmlns="http://www.w3.org/2000/svg"
   xmlns:svg="http://www.w3.org/2000/svg"
   xmlns:rdf="http://www.w3.org/1999/02/22-rdf-syntax-ns#"
   xmlns:cc="http://creativecommons.org/ns#"
   xmlns:dc="http://purl.org/dc/elements/1.1/"><defs
     id="defs2453" /><metadata
     id="metadata2456"><rdf:RDF><cc:Work
         rdf:about=""><dc:format>image/svg+xml</dc:format><dc:type
           rdf:resource="http://purl.org/dc/dcmitype/StillImage" /></cc:Work></rdf:RDF></metadata><path
     id="path2442"
     style="fill:#000000;stroke:none;stroke-width:0.997643"
     d="M 1076.2266,0 15.361328,208.98243 c -14.6059715,12.20838 -13.1500551,23.77121 4.371094,34.6875 0,0 465.014578,157.9331 695.976558,157.85742 l 1065.71292,-0.34961 c 15.9019,-40.36686 18.3596,-99.61564 -0.4903,-129.03711 l -345.4921,2.91992 z m -31.2832,65.546875 350.2597,254.515635 321.6328,-3.33985 c 7.3543,5.7851 16.7058,25.37751 5.7403,37.49609 0,0 -635.183,-1.39795 -1000.69143,-3.6582 C 558.7439,349.5517 176.81641,228.82032 176.81641,228.82032 Z M 0,498.6504 v 73.23437 h 495.89062 l 368.22461,364.35746 -2.735,863.35577 h 68.74415 l 2.735,-844.09017 c 108.01442,0 151.10812,-35.3461 129.28712,-106.02931 123.2894,-35.98419 151.1044,-94.46517 83.459,-175.42969 l -83.459,-102.16406 h 737.8379 V 498.6504 Z m 589.16992,73.23437 h 274.94531 v 266.02734 z m 379.69727,0 h 27.80859 L 1111.25,710.68165 c 30.5495,39.83974 9.8125,70.03518 -62.1973,90.59765 z m -36.00781,40.49805 80.18552,233.25976 c 13.0926,42.40996 -13.631,63.59976 -80.18552,63.59961 z" /></svg>
