<?xml version="1.0" encoding="UTF-8" standalone="no"?>
<svg
   width="6.3000002"
   height="17.98"
   version="1.1"
   id="svg714"
   sodipodi:docname="US9T3VARB.svg"
   inkscape:version="1.2.1 (9c6d41e410, 2022-07-14)"
   xmlns:inkscape="http://www.inkscape.org/namespaces/inkscape"
   xmlns:sodipodi="http://sodipodi.sourceforge.net/DTD/sodipodi-0.dtd"
   xmlns="http://www.w3.org/2000/svg"
   xmlns:svg="http://www.w3.org/2000/svg">
  <defs
     id="defs718" />
  <sodipodi:namedview
     id="namedview716"
     pagecolor="#ffffff"
     bordercolor="#000000"
     borderopacity="0.25"
     inkscape:showpageshadow="2"
     inkscape:pageopacity="0.0"
     inkscape:pagecheckerboard="0"
     inkscape:deskcolor="#d1d1d1"
     showgrid="false"
     inkscape:zoom="23.960287"
     inkscape:cx="3.4223296"
     inkscape:cy="4.88308"
     inkscape:window-width="1920"
     inkscape:window-height="1017"
     inkscape:window-x="1072"
     inkscape:window-y="-8"
     inkscape:window-maximized="1"
     inkscape:current-layer="svg714" />
  <path
     id="path712"
     style="fill:#000000;stroke:none;stroke-width:0.997139"
     d="M 1.7441406 0.076171875 C 0.65747832 0.076171875 0.11523438 0.55016486 0.11523438 1.4980469 C 0.11523437 2.4050095 0.80042363 3.2847508 1.6210938 3.6445312 A 2.3966942 2.3008265 0 0 0 1.4785156 4.4101562 A 2.3966942 2.3008265 0 0 0 3.2910156 6.6367188 L 2.9414062 16.652344 C 2.9266593 17.931227 3.0942686 17.944021 3.8417969 17.955078 C 4.6200554 17.966578 4.7207031 17.975226 4.7207031 16.652344 L 4.3730469 6.6542969 A 2.3966942 2.3008265 0 0 0 6.2714844 4.4101562 A 2.3966942 2.3008265 0 0 0 4.5234375 2.1953125 L 4.7207031 0.25585938 C 4.3940378 0.13654554 4.098697 0.076171875 3.8320312 0.076171875 C 3.5653656 0.076171875 3.2773686 0.13654554 2.9707031 0.25585938 L 3.1621094 2.2167969 A 2.3966942 2.3008265 0 0 0 1.921875 3.0859375 C 1.1763403 2.8434892 0.62890625 2.0417481 0.62890625 1.5449219 C 0.62890625 1.1628058 0.87895473 0.94107009 1.2480469 0.84375 C 1.3398858 1.0282829 1.5324995 1.1456935 1.7441406 1.1464844 C 2.0489896 1.1463397 2.2962234 0.9083047 2.296875 0.61328125 C 2.2973308 0.31749945 2.0497728 0.076317235 1.7441406 0.076171875 z M 3.8320312 0.51367188 C 4.098697 0.51367188 4.232422 0.58973093 4.2324219 0.7421875 L 4.0742188 2.1171875 A 2.3966942 2.3008265 0 0 0 3.875 2.109375 A 2.3966942 2.3008265 0 0 0 3.6074219 2.1269531 L 3.4316406 0.7421875 C 3.4316406 0.58973099 3.5653656 0.51367188 3.8320312 0.51367188 z M 3.9160156 2.6601562 A 1.8643711 1.7542037 0 0 1 5.7792969 4.4160156 A 1.8643711 1.7542037 0 0 1 3.9160156 6.1699219 A 1.8643711 1.7542037 0 0 1 2.0507812 4.4160156 A 1.8643711 1.7542037 0 0 1 3.9160156 2.6601562 z M 3.7324219 6.7265625 C 3.8057548 6.7597055 3.8809379 6.7597055 3.9609375 6.7265625 L 4.2617188 16.652344 C 4.2617188 17.269592 4.1217959 17.359375 3.8417969 17.359375 C 3.5684646 17.359375 3.4316406 17.342904 3.4316406 16.652344 L 3.7324219 6.7265625 z " />
</svg>
