<?xml version="1.0" encoding="UTF-8" standalone="no"?>
<svg
   width="1796.8926"
   height="1339.2542"
   version="1.1"
   id="svg1368"
   sodipodi:docname="US9T58VARA.svg"
   inkscape:version="1.2.1 (9c6d41e410, 2022-07-14)"
   xmlns:inkscape="http://www.inkscape.org/namespaces/inkscape"
   xmlns:sodipodi="http://sodipodi.sourceforge.net/DTD/sodipodi-0.dtd"
   xmlns="http://www.w3.org/2000/svg"
   xmlns:svg="http://www.w3.org/2000/svg">
  <defs
     id="defs1372" />
  <sodipodi:namedview
     id="namedview1370"
     pagecolor="#ffffff"
     bordercolor="#000000"
     borderopacity="0.25"
     inkscape:showpageshadow="2"
     inkscape:pageopacity="0.0"
     inkscape:pagecheckerboard="0"
     inkscape:deskcolor="#d1d1d1"
     showgrid="false"
     showguides="true"
     inkscape:zoom="0.097470288"
     inkscape:cx="892.5797"
     inkscape:cy="666.86989"
     inkscape:window-width="1920"
     inkscape:window-height="1017"
     inkscape:window-x="1072"
     inkscape:window-y="-8"
     inkscape:window-maximized="1"
     inkscape:current-layer="svg1368" />
  <path
     id="path1366"
     style="fill:#000000;stroke:none;stroke-width:74.7149"
     d="m 898.11328,0.00210927 c -31.37941,0.18218 -53.48572,10.27283973 -66.32031,30.27148973 -12.83164,20.49674 -19.69285,39.9615 -20.58203,58.39648 -1.38437,18.935991 2.49275,43.073151 11.62891,72.408211 9.13907,29.83313 27.49702,33.87006 50.63166,72.08972 L 225.95785,640.94352 c -37.35718,-22.91239 -35.43543,-38.85063 -65.32113,-47.81641 -29.3876,-8.9657 -53.54506,-12.70133 -72.472658,-11.20703 -18.429511,1.99239 -37.8574,10.20951 -58.279297,24.6543 C 9.9609682,620.52107 -9.9999998e-8,641.94074 0,670.83024 c 0,31.37999 9.9609682,53.54568 29.884765,66.49609 20.421897,12.9505 39.849786,19.92381 58.279297,20.91992 18.927598,1.49429 43.085058,-2.24133 72.472658,-11.20703 29.8857,-8.9657 28.46198,-24.90597 66.81527,-47.81836 9.33606,10.50434 632.46209,396.03404 644.28239,406.86524 -23.13466,38.2199 -39.27108,42.2566 -48.41016,72.0898 -9.13618,29.3352 -13.0133,53.4721 -11.6289,72.4082 0.8891,18.435 7.75035,37.8996 20.58203,58.3965 12.83456,19.9987 34.94077,30.0894 66.32031,30.2715 28.88914,0.1678 50.36567,-9.6693 64.42773,-29.5117 14.56328,-20.3377 22.89485,-39.7153 24.99415,-58.1328 1.60418,-18.9187 -1.99213,-43.0979 -10.78711,-72.5372 -8.792,-29.9371 -24.53533,-33.6606 -47.23047,-71.1503 12.74847,-8.8536 627.27904,-401.4738 640.93284,-412.0315 37.8547,22.91239 35.9314,42.18492 65.3192,51.15062 29.3871,8.9657 53.5469,12.70132 72.4746,11.20703 18.9269,-0.99611 38.3534,-7.96942 58.2773,-20.91992 19.924,-12.95041 29.8867,-35.1161 29.8867,-66.49609 0,-28.8895 -9.7147,-50.30917 -29.1406,-64.25586 -19.9239,-14.44479 -39.0996,-22.66191 -57.5293,-24.6543 -18.9277,-1.4943 -43.0849,2.24133 -72.4727,11.20703 -29.8851,8.96578 -28.4624,21.57176 -66.8152,44.48415 L 931.73909,231.33403 c 22.69512,-37.4895 36.21702,-41.21299 45.00896,-71.15028 8.79496,-29.43915 12.39131,-53.61851 10.78711,-72.537101 -2.0993,-18.41767 -10.43101,-37.79516 -24.99414,-58.13282 C 948.47889,9.6712893 927.00234,-0.16563073 898.11328,0.00210927 Z m 0.24415,41.83789973 c 10.95787,-0.0636 21.6992,5.35477 32.22265,16.25195 11.02442,11.39238 14.3875,33.03979 10.08985,64.943361 -4.29485,32.40168 -15.81574,37.85701 -39.0031,76.34558 -24.12507,-37.2177 -40.49313,-41.76269 -44.66292,-73.61707 -4.66786,-31.851531 -1.55842,-53.787011 9.33008,-65.804681 10.8885,-12.01771 21.56362,-18.05848 32.02344,-18.11914 z m 3.67072,219.554571 c 0,0 637.98175,403.54422 639.76595,406.1034 -10.3668,12.1072 -629.04829,398.08422 -641.50308,410.36162 -13.24456,-7.8648 -632.60941,-394.54158 -644.44841,-407.02936 z m 229.50905,312.09972 -38.8516,67.24219 -498.24777,-0.11054 110.80995,-117.89703 v -18.67774 l -283.17543,168.2732 284.14734,173.60389 v -18.67969 l -113.59358,-128.5031 500.05949,1.0164 38.8516,67.24414 18.6796,-6.72461 -33.6211,-60.51953 h 35.1153 l 38.8515,67.24414 20.1739,-6.72461 -35.1172,-60.51953 h 35.1172 l 38.8515,67.24414 18.6778,-6.72461 -33.6211,-60.51953 h 23.1621 l 50.8047,67.24414 18.6797,-6.72461 -33.6211,-60.51953 h 23.1601 V 640.73649 H 1293.67 l 33.6211,-59.02344 -18.6797,-8.21875 -38.8516,67.24219 h -35.1152 l 33.6211,-59.02344 -18.6778,-8.21875 -38.8515,67.24219 h -35.1172 l 35.1172,-59.02344 -20.1739,-8.21875 -38.8515,67.24219 h -35.1153 l 33.6211,-59.02344 z M 101.28516,627.07438 c 6.69313,0.15566 14.02464,0.79529 21.99414,1.91602 32.37619,4.48281 32.19829,18.42935 70.55159,41.83984 -37.3571,23.90859 -36.43131,37.85513 -68.3094,41.83984 -31.878097,4.48289 -53.795725,1.2452 -65.750006,-9.71289 -11.954279,-10.95809 -17.93164,-21.66695 -17.93164,-32.12695 0,-10.9581 5.479403,-21.66695 16.4375,-32.12695 8.592136,-8.21862 22.928359,-12.09588 43.007816,-11.62891 z m 1594.64844,0 c 20.3598,-0.46697 34.8356,3.41029 43.4278,11.62891 11.4562,10.46 16.9356,21.16885 16.4375,32.12695 0.4981,10.46 -5.2313,21.16886 -17.1856,32.12695 -11.9544,10.95809 -34.1198,14.19578 -66.4961,9.71289 -31.8776,-3.98471 -30.7028,-21.26351 -67.5613,-45.1721 37.8547,-23.41049 37.1772,-34.02477 69.0555,-38.50758 8.0941,-1.12073 15.5356,-1.76036 22.3222,-1.91602 z M 899.92969,1139.8732 c 23.18746,38.4888 36.92971,43.9439 41.22461,76.3457 4.2976,31.9035 0.93464,53.5511 -10.08984,64.9433 -10.52348,10.8972 -21.26478,16.316 -32.22266,16.252 -10.45988,-0.061 -21.13486,-6.1015 -32.02344,-18.1191 -10.88848,-12.0177 -13.99786,-33.9532 -9.33008,-65.8047 4.1698,-31.8545 18.31637,-36.3993 42.44141,-73.6172 z"
     sodipodi:nodetypes="sccccccccsccccccccscccccscssccccccccssccccsscccccccccccccccccccccccccccccccccccccccccccccccscccsscssccscccscccsscc" />
</svg>
