<?xml version="1.0" encoding="UTF-8" standalone="no"?>
<svg
   width="1264.793"
   height="1800"
   version="1.1"
   id="svg1"
   xml:space="preserve"
   xmlns="http://www.w3.org/2000/svg"
   xmlns:svg="http://www.w3.org/2000/svg"><defs
     id="defs1" /><path
     id="path1611"
     style="display:inline;fill:#000000;stroke:none;stroke-width:103.347"
     d="M 982.11884,0 552.74144,867.65264 H 377.4656 L 170.64881,1625.4572 H 0 v 174.4859 H 1264.7929 V 1625.4572 H 1091.9948 L 858.33771,867.65264 H 643.8658 L 1038.6388,453.95438 956.15469,330.1605 1077.642,67.058447 C 1066.9714,49.027789 1007.9885,2.3153457 982.11884,0 Z m 23.99496,63.701972 18.0694,17.125997 -125.93935,247.771601 71.2797,111.99612 -359.4355,405.0782 z m -581.40534,867.732078 391.81476,1.94382 -150.8752,232.68773 129.59632,456.2278 H 464.43211 l 114.2494,-456.2278 z m -15.03633,71.46435 109.32706,163.1672 -112.54391,456.2278 -162.50054,-3.8046 z m 427.31328,1.9438 182.45929,615.5904 -166.22221,1.8608 L 725.3303,1166.0656 Z M 64.923083,1682.6051 H 1199.8699 v 60.1901 H 64.923083 Z" /></svg>
