<?xml version="1.0" encoding="UTF-8" standalone="no"?>
<svg
   width="1740.625"
   height="1225.9941"
   id="svg2509"
   version="1.0"
   xmlns="http://www.w3.org/2000/svg"
   xmlns:svg="http://www.w3.org/2000/svg"
   xmlns:rdf="http://www.w3.org/1999/02/22-rdf-syntax-ns#"
   xmlns:cc="http://creativecommons.org/ns#"
   xmlns:dc="http://purl.org/dc/elements/1.1/">
  <metadata
     id="metadata2516">
    <rdf:RDF>
      <cc:Work
         rdf:about="">
        <dc:format>image/svg+xml</dc:format>
        <dc:type
           rdf:resource="http://purl.org/dc/dcmitype/StillImage" />
      </cc:Work>
    </rdf:RDF>
  </metadata>
  <defs
     id="defs2514" />
  <path
     id="path2511"
     style="fill:#000000;stroke:none;stroke-width:100"
     d="M 515.625,0 0,796.875 c 17.145722,38.33312 24.399334,57.23807 65.625,50 L 525,131.25 787.61133,405.53321 c -190.00649,37.52453 -333.89844,205.48873 -333.89844,406.2871 0,109.82989 43.64713,215.20379 121.3086,292.86519 77.66145,77.6614 183.03535,121.3086 292.86523,121.3086 109.82988,0 215.20378,-43.6472 292.86518,-121.3086 77.6614,-77.6614 121.3086,-183.0353 121.3086,-292.86519 0,-109.82988 -43.6472,-215.20378 -121.3086,-292.86523 -58.154,-58.15409 -131.8492,-97.22729 -211.31635,-113.19141 L 1215.625,128.125 l 456.25,718.75 c 41.2254,7.23806 51.6042,-11.66688 68.75,-50 L 1225,0 868.75,371.875 Z m 352.26172,478.82617 c 88.33088,0 173.00338,35.0719 235.46288,97.53125 62.4593,62.45938 97.5312,147.13201 97.5312,235.46289 0,88.33091 -35.0719,173.00348 -97.5312,235.46289 -62.4595,62.4593 -147.132,97.5312 -235.46288,97.5312 -88.33088,0 -173.00352,-35.0719 -235.46289,-97.5312 -62.45937,-62.45941 -97.53125,-147.13198 -97.53125,-235.46289 0,-184.38783 148.6063,-332.99414 332.99414,-332.99414 z" />
</svg>
