<?xml version="1.0" encoding="UTF-8" standalone="no"?>
<svg
   width="1799.999"
   height="383.39963"
   version="1.1"
   id="svg1"
   xmlns="http://www.w3.org/2000/svg"
   xmlns:svg="http://www.w3.org/2000/svg">
  <defs
     id="defs1" />
  <path
     id="path1"
     style="fill:#000000;stroke:none;stroke-width:84.4666"
     d="M 447.79853,191.70002 C 330.67174,268.28293 255.50275,306.52181 222.2793,306.52181 c -94.60242,0 -142.042481,-26.4201 -142.042481,-79.35241 0,-52.9323 17.548889,-82.8235 52.461671,-89.5808 19.70885,0 29.53033,7.72744 29.53033,22.93138 0,15.20395 -10.345,23.55165 -31.18007,25.24098 l -35.469362,38.93382 c 6.757332,8.44667 18.576082,12.53802 35.469362,12.53802 60.81584,0 91.23055,-27.46715 91.23055,-82.65189 0,-54.62163 -34.40929,-78.947678 -103.10867,-72.753463 C 50.471281,88.021637 11.543892,123.21621 2.5341402,187.4107 -6.4756138,251.60519 8.552462,300.35407 47.407025,333.57752 86.261582,366.80099 145.35546,383.39963 224.7539,383.39963 312.03589,371.01122 432.74443,326.5187 587.03645,249.93578 741.32849,173.35289 845.6033,135.114 899.66191,135.11399 c 54.62161,0 158.99319,38.2389 313.28529,114.82179 154.2921,76.58292 275.1655,121.07544 362.4476,133.46385 79.3985,0 138.4922,-16.59864 177.3467,-49.82211 38.8548,-33.22345 53.7178,-81.97233 44.708,-146.16682 -9.0098,-64.19449 -47.7721,-99.389055 -116.4715,-105.583253 -68.6994,-6.194189 -103.1086,18.131833 -103.1086,72.753463 0,55.18474 30.4146,82.65189 91.2305,82.65189 16.8932,0 28.7121,-4.0914 35.4694,-12.53802 l -35.4694,-38.93382 c -20.8352,-1.68933 -31.18,-10.03703 -31.18,-25.24098 0,-15.20396 9.8214,-22.93138 29.5302,-22.93138 34.9129,6.75732 52.2968,36.6485 52.2968,89.5808 0,52.93231 -47.2753,79.35241 -141.8775,79.35241 -32.0973,0 -106.481,-38.23888 -223.0447,-114.82179 C 1216.5805,92.03484 1070.1331,15.828654 899.66191,0 727.5463,6.9304007 587.73697,100.60193 447.79853,191.70002 Z M 899.66191,45.533236 c 94.60243,0 215.57269,49.010616 363.10739,146.991704 73.7674,48.99051 136.8073,85.70724 188.8952,110.20251 -49.9544,-21.0313 -112.7019,-50.13069 -189.72,-88.261 C 1090.196,130.00001 969.48742,87.766539 899.66191,87.766539 c -69.26254,0 -189.87426,42.233471 -361.62269,126.699911 -76.8167,38.03054 -139.33086,67.07509 -189.225,88.09599 C 400.84078,278.06728 463.59502,241.41713 537.21436,192.5249 684.74907,94.543819 805.62255,45.533202 899.66191,45.533236 Z M 1528.0472,331.76284 c 17.795,4.83766 33.8342,7.75379 47.3476,7.75379 v 2.47461 c -10.3522,0 -26.5539,-3.6313 -47.3476,-10.2284 z m -1256.44072,0.16494 c -20.63053,6.52816 -36.55471,10.06341 -46.85258,10.06341 v -2.47461 c 13.39007,0 29.25866,-2.83901 46.85258,-7.5888 z" />
</svg>
