<?xml version="1.0" encoding="UTF-8" standalone="no"?>
<!-- Created with Inkscape (http://www.inkscape.org/) -->

<svg
   width="479.74936"
   height="1802.1965"
   viewBox="0 0 479.74936 1802.1966"
   version="1.1"
   id="svg570"
   xmlns="http://www.w3.org/2000/svg"
   xmlns:svg="http://www.w3.org/2000/svg">
  <defs
     id="defs567" />
  <path
     id="path7492"
     style="color:#000000;display:inline;overflow:visible;visibility:visible;fill:#000000;fill-opacity:1;fill-rule:nonzero;stroke:none;stroke-width:1632.38;stroke-linecap:butt;stroke-linejoin:miter;stroke-miterlimit:4;stroke-dashoffset:0;stroke-opacity:1;marker:none;marker-start:none;marker-mid:none;marker-end:none"
     d="m 364.49376,0 0.47694,130 -363.3257885,-0.004 -0.3341112,95.02747 366.3493597,1.33972 1.67578,60.47071 H 0 v 98.24023 H 369.33594 V 1039.4473 C 248.74554,945.32451 151.47811,906.34784 103.53781,815.49117 83.66683,785.0882 70.783569,727.34431 85.486559,692.00034 c 8.38999,-36.02495 56.977881,-36.96682 57.031251,6.0586 0.0256,20.64964 -7.59513,46.17071 -7.59513,46.17071 0,0 32.68704,21.77323 45.09903,29.41522 30.83895,-47.60395 32.57512,-125.07752 -20.50781,-157.8125 -35.31697,-21.65298 -77.979431,-6.3624 -108.007812,22.07032 -36.488138,34.54921 -29.993934,77.03903 -27.74024,107.02734 6.081891,80.92741 43.232323,147.42711 115.776242,205.31095 62.70297,50.03162 151.27811,108.22532 215.92471,174.36252 -12.03855,-3.9646 -334.913203,0.01 -334.913203,0.01 l 309.549983,677.583 149.64578,-0.6024 -0.44858,-1801.59 z m -251.60118,1183.3926 259.03379,-2.6364 c -0.6,186.8779 -0.2731,560.7441 -0.2731,560.7441 0,0 -185.98877,-403.5955 -258.76069,-558.1077 z" />
</svg>
