<?xml version="1.0" encoding="UTF-8" standalone="no"?>
<svg
   width="540.73633"
   height="1248.0436"
   id="svg2214"
   version="1.1"
   xmlns="http://www.w3.org/2000/svg"
   xmlns:svg="http://www.w3.org/2000/svg"
   xmlns:rdf="http://www.w3.org/1999/02/22-rdf-syntax-ns#"
   xmlns:cc="http://creativecommons.org/ns#"
   xmlns:dc="http://purl.org/dc/elements/1.1/">
  <metadata
     id="metadata2221">
    <rdf:RDF>
      <cc:Work
         rdf:about="">
        <dc:format>image/svg+xml</dc:format>
        <dc:type
           rdf:resource="http://purl.org/dc/dcmitype/StillImage" />
      </cc:Work>
    </rdf:RDF>
  </metadata>
  <defs
     id="defs2219" />
  <path
     style="fill:#000000;stroke:none;stroke-width:100"
     d="m 601.67488,176.84794 c 0,164.66105 -100.72311,164.81065 -173.88384,181.04015 -17.29252,18.62273 50.96383,698.49021 48.95685,888.66121 L 1.6704035,1248.0435 4.0384572e-4,269.44469 C -0.15898205,176.04655 46.889773,109.48872 88.790903,64.927188 130.69203,20.365658 253.15208,-1.2500115 334.29395,0.08018848 452.68134,-1.2500115 601.67488,12.186887 601.67488,176.84794 Z M 394.92239,1151.0385 354.29045,486.44354 C 347.91689,382.1946 342.48137,306.15857 358.4437,300.83784 427.61382,252.95077 531.83958,276.21185 531.83958,170.86214 531.83958,65.512426 380.66681,71.155025 310.17273,72.092918 184.30269,73.767564 68.380005,164.10137 69.835603,279.42109 l 10.995899,871.14971 c 31.454108,-3.52 280.626928,4.5774 314.090888,0.4677 z"
     id="path2216" />
</svg>
