<?xml version="1.0" encoding="UTF-8" standalone="no"?>
<svg
   width="18"
   height="8"
   version="1.1"
   id="svg1054"
   sodipodi:docname="US9U13VARB.svg"
   inkscape:version="1.2.1 (9c6d41e410, 2022-07-14)"
   xmlns:inkscape="http://www.inkscape.org/namespaces/inkscape"
   xmlns:sodipodi="http://sodipodi.sourceforge.net/DTD/sodipodi-0.dtd"
   xmlns="http://www.w3.org/2000/svg"
   xmlns:svg="http://www.w3.org/2000/svg">
  <defs
     id="defs1058" />
  <sodipodi:namedview
     id="namedview1056"
     pagecolor="#ffffff"
     bordercolor="#000000"
     borderopacity="0.25"
     inkscape:showpageshadow="2"
     inkscape:pageopacity="0.0"
     inkscape:pagecheckerboard="0"
     inkscape:deskcolor="#d1d1d1"
     showgrid="false"
     inkscape:zoom="39.291215"
     inkscape:cx="14.023491"
     inkscape:cy="5.573765"
     inkscape:window-width="1920"
     inkscape:window-height="1017"
     inkscape:window-x="1072"
     inkscape:window-y="-8"
     inkscape:window-maximized="1"
     inkscape:current-layer="svg1054" />
  <path
     style="fill:#000000;stroke:none;stroke-width:0.71066"
     d="M 4.424682,5.5739784 C 5.3945001,4.9533867 7.7207613,3.9478872 7.7207613,3.9478872 8.088383,4.5309033 8.5180601,5.9483841 8.7845973,6.7593258 7.2476715,6.6864705 5.7335038,6.1527232 4.424682,5.5739784 Z m 3.0731997,-2.7782873 -0.012923,0.00616 C 7.313686,2.8912588 7.2005766,2.945008 7.1280445,3.2609389 5.8487933,3.6521053 4.6578912,4.4409871 3.4377444,5.0836977 3.2343162,5.0271929 2.3504879,4.2646422 2.0971381,3.9702279 L 1.570613,4.338367 C 1.8938719,4.6949076 2.7796432,5.4426358 2.7796432,5.4426358 2.1039854,5.8162291 1.2277699,6.4052305 0.55850739,6.9935698 -0.16329301,7.5953668 -0.0631467,7.5985892 0.64807014,7.7990666 1.8130347,6.8697266 3.4613695,6.0379949 3.5324469,6.0041334 4.0267602,6.3222125 4.8381346,6.6626314 5.6032424,6.8862998 6.3014855,7.0904212 6.9220057,7.3418474 8.8452528,7.4963977 9.2366613,7.8414168 9.5454432,7.9600566 9.7651372,7.8553932 9.8685227,7.8061402 9.9463849,7.7065178 10.008376,7.5597451 c 2.262803,0.051687 2.78514,0.1788008 4.879605,0.065619 0.399161,-0.02157 0.983909,-0.058962 1.16031,-0.099089 0,0 -0.84602,-0.7988559 -0.875856,-0.8215623 -1.558799,0.2070206 -2.649009,-0.00706 -5.4535751,0.125382 C 9.1326762,6.1323548 8.3567021,3.7465303 8.3567021,3.7465303 v 0 c 0,0 5.0199749,-1.8964752 9.2881489,-2.7250257 C 18.162665,0.60286279 18.048297,0.28218037 17.324238,0.07218874 12.608749,1.201696 8.1517525,2.8671685 8.1517525,2.8671685 7.8849304,2.7363555 7.6658741,2.7156348 7.4978817,2.7956911 Z"
     id="path1052"
     sodipodi:nodetypes="ccccscccccccccscscscccsccccs" />
</svg>
