<?xml version="1.0" encoding="UTF-8" standalone="no"?>
<svg
   width="1796.2728"
   height="1739.1719"
   version="1.1"
   id="svg1351"
   xmlns="http://www.w3.org/2000/svg"
   xmlns:svg="http://www.w3.org/2000/svg">
  <defs
     id="defs1355" />
  <path
     id="path1349"
     style="fill:#000000;stroke:none;stroke-width:91.4932"
     d="M 64.296875 0 L 64.810547 662.41211 L 0.42578125 662.41211 L 0.001953125 701.21484 L -2.640625 943.40625 L 252.76367 943.40625 C 253.46652 1045.4996 254.55516 1149.7418 256.68164 1255.1719 L 135.30078 1255.1719 L 135.30078 1290.1719 L 161.25195 1336.1719 C 151.20677 1339.1719 142.83465 1355.1719 135.30078 1384.1719 C 128.60401 1375.1719 105.16586 1371.1719 65.822266 1371.1719 L 65.822266 1435.1719 C 106.84004 1467.1715 128.60431 1494.1719 129.44141 1518.1719 L 148.69531 1640.1719 C 157.06628 1706.1715 199.75771 1739.1719 275.93359 1739.1719 C 351.27242 1739.1719 393.12866 1706.1715 403.17383 1640.1719 L 419.91602 1518.1719 C 423.26438 1494.1719 444.19157 1467.1715 483.53516 1435.1719 L 483.53516 1371.1719 C 444.19157 1371.1719 420.75341 1375.1719 414.05664 1384.1719 C 406.52277 1355.1719 398.15064 1339.1719 388.10547 1336.1719 L 414.05664 1290.1719 L 414.05664 1255.1719 L 295.1875 1255.1719 L 295.67969 943.40625 L 1793.6367 943.40625 L 1796.7031 662.41211 L 1743.9434 662.41211 L 1743.373 0.81054688 L 1289.6641 0.81054688 L 483.58594 624.77734 L 485.77539 0.90039062 L 64.296875 0 z M 1323.9844 80.810547 L 1676.4043 81.810547 L 1676.4043 662.41211 L 584.11914 662.41211 L 1323.9844 80.810547 z M 413.7168 80.900391 L 411.7207 662.41211 L 296.12305 662.41211 L 297.03711 83.109375 L 413.7168 80.900391 z M 135.60352 83.109375 L 258.5293 83.109375 C 258.5293 83.109375 252.89835 330.26924 252.06445 662.41211 L 134.27539 662.41211 L 135.60352 83.109375 z M 78.035156 740.875 L 252.0293 740.875 C 252.02645 781.69141 252.07713 822.31375 252.25195 864.94531 L 76.681641 864.94531 L 78.035156 740.875 z M 296 740.875 L 1717.3809 740.875 L 1716.0273 864.94531 L 295.80273 864.94531 L 296 740.875 z M 173.80859 1292.1719 L 375.54883 1292.1719 L 357.13281 1318.1719 C 330.3457 1310.1719 302.72188 1305.1719 275.09766 1305.1719 C 248.31051 1305.1719 220.68477 1310.1719 193.06055 1318.1719 L 173.80859 1292.1719 z M 275.93359 1338.1719 C 341.22724 1338.1719 378.89781 1367.1719 390.61719 1425.1719 C 381.40911 1568.1711 371.36312 1643.1719 358.80664 1648.1719 C 347.92436 1564.172 320.2998 1521.1719 275.93359 1521.1719 C 232.40453 1521.1719 203.94437 1564.172 190.55078 1648.1719 C 177.99431 1643.1719 167.94911 1568.1711 159.57812 1425.1719 C 171.29747 1367.1719 210.63998 1338.1719 275.93359 1338.1719 z M 275.93359 1399.1719 C 226.54483 1399.1719 191.38802 1420.1719 172.13477 1463.1719 C 172.13477 1480.1716 177.99273 1491.1719 188.875 1496.1719 C 211.47666 1455.1719 240.77551 1435.1719 275.93359 1435.1719 C 309.41752 1435.1719 337.88076 1455.1719 360.48242 1496.1719 C 373.03889 1491.1719 379.73438 1480.1716 379.73438 1463.1719 C 359.64406 1420.1719 325.32236 1399.1719 275.93359 1399.1719 z M 95.121094 1402.1719 C 113.53724 1409.1719 125.25591 1417.1719 129.44141 1428.1719 L 129.44141 1443.1719 L 95.121094 1412.1719 L 95.121094 1402.1719 z M 455.91211 1402.1719 L 455.91211 1412.1719 L 419.91602 1443.1719 L 419.91602 1428.1719 C 424.10148 1417.1719 436.65886 1409.1719 455.91211 1402.1719 z M 275.93359 1548.1719 C 304.39495 1548.1719 324.48649 1590.172 337.04297 1673.1719 C 326.99779 1692.1716 306.90621 1701.1719 275.93359 1701.1719 C 244.96097 1701.1719 223.19673 1692.1716 212.31445 1673.1719 C 225.70804 1590.172 247.47228 1548.1719 275.93359 1548.1719 z " />
</svg>
