<?xml version="1.0" encoding="UTF-8" standalone="no"?>
<svg
   width="1800"
   height="1800"
   id="svg2"
   sodipodi:version="0.32"
   inkscape:version="1.2.1 (9c6d41e410, 2022-07-14)"
   sodipodi:docname="US9U24VARA.svg"
   inkscape:output_extension="org.inkscape.output.svg.inkscape"
   version="1.0"
   xmlns:inkscape="http://www.inkscape.org/namespaces/inkscape"
   xmlns:sodipodi="http://sodipodi.sourceforge.net/DTD/sodipodi-0.dtd"
   xmlns="http://www.w3.org/2000/svg"
   xmlns:svg="http://www.w3.org/2000/svg"
   xmlns:rdf="http://www.w3.org/1999/02/22-rdf-syntax-ns#"
   xmlns:cc="http://creativecommons.org/ns#"
   xmlns:dc="http://purl.org/dc/elements/1.1/">
  <metadata
     id="metadata9">
    <rdf:RDF>
      <cc:Work
         rdf:about="">
        <dc:format>image/svg+xml</dc:format>
        <dc:type
           rdf:resource="http://purl.org/dc/dcmitype/StillImage" />
      </cc:Work>
    </rdf:RDF>
  </metadata>
  <defs
     id="defs7">
    <inkscape:perspective
       sodipodi:type="inkscape:persp3d"
       inkscape:vp_x="0 : 1179.1895 : 1"
       inkscape:vp_y="0 : 1000 : 0"
       inkscape:vp_z="5.8304138 : 1179.1895 : 1"
       inkscape:persp3d-origin="2.9152069 : 1178.1585 : 1"
       id="perspective11" />
  </defs>
  <sodipodi:namedview
     inkscape:window-height="1137"
     inkscape:window-width="1920"
     inkscape:pageshadow="2"
     inkscape:pageopacity="0.0"
     guidetolerance="10.0"
     gridtolerance="10.0"
     objecttolerance="10.0"
     borderopacity="1.0"
     bordercolor="#666666"
     pagecolor="#ffffff"
     id="base"
     showgrid="false"
     inkscape:zoom="0.33589188"
     inkscape:cx="881.23596"
     inkscape:cy="1044.9791"
     inkscape:window-x="-8"
     inkscape:window-y="-8"
     inkscape:current-layer="svg2"
     inkscape:showpageshadow="2"
     inkscape:pagecheckerboard="0"
     inkscape:deskcolor="#d1d1d1"
     inkscape:window-maximized="1" />
  <path
     id="path299"
     style="color:#000000;fill:#000000;stroke-width:1.03315;-inkscape-stroke:none"
     d="M 939.67129,2.277561 C 848.648,0.33183684 775.47296,15.385946 716.57363,80.918626 658.78767,145.21256 638.48415,206.71821 633.67461,316.2489 l -1.08789,24.77521 c 0,0 112.39888,4.78527 162.13476,5.26192 l 0.8502,338.51057 c -58.61675,2.67278 -117.23465,5.24119 -175.84961,8.15555 -128.82694,6.40549 -223.02407,13.0607 -343.96094,83.28173 l -1.51562,0.88184 -1.39063,1.0945 C 220.94271,819.12516 165.69096,851.27674 116.90176,918.32649 79.397118,969.86814 33.448857,1043.2613 15.960351,1145.1393 5.1098112,1215.848 3.8121765,1295.195 -1.1646485,1366.6005 58.22739,1368.9998 117.41946,1363.667 168.82558,1366.2566 l 2.54297,-24.9879 c 12.05581,-118.4052 14.39653,-253.6025 73.6875,-316.7574 51.11972,-54.45098 111.91348,-103.81794 179.29297,-125.08101 118.70864,-37.46112 203.37571,-25.1183 333.17774,-35.02594 13.6286,-0.3788 23.72769,-0.84194 36.85156,-1.23209 l -2.91406,435.36944 102.16797,-0.4253 c 0.35205,37.1981 1.94314,197.2635 3.71874,314.4205 l -446.76757,0.5941 0.91015,27.9898 c 1.32822,40.7737 0.25391,124.1013 0.25391,124.1013 l -0.36914,27.4416 1029.30278,1.2529 -0.7363,-177.5751 -481.42195,-3.6483 -3.71875,-312.7672 98.3829,-3.7192 -8.3907,-444.16505 c 137.5453,-6.57692 255.1234,-13.94301 384.3516,-22.06502 109.4547,-8.36951 218.5466,-21.2439 327.8574,-31.40055 -5.5626,-55.62838 4.5151,-102.87163 0.3887,-155.71231 l -23.9629,1.04237 c -230.5795,10.02873 -461.2894,18.89717 -692.0293,28.43396 l -8.8716,-332.82545 c 59.104,-0.83083 105.1642,-1.4782 160.0195,-2.24946 l -2.8203,-29.44504 c -4.4786,-46.74036 -10.2427,-77.20917 -24.2573,-123.31023 C 1191.4575,138.40896 1167.1788,81.047268 1132.9303,61.591201 1088.2374,36.201823 1030.6946,4.2232841 939.67129,2.277561 Z m -7.73828,56.098629 c 55.06675,-1.631533 151.41309,24.758036 178.92969,54.09309 47.1471,50.26291 56.0523,106.13625 64.9311,171.42425 -57.2346,0.80529 -155.0273,2.18065 -155.0273,2.18065 l 20.6783,957.88872 -198.87122,0.2001 3.25332,-951.44471 c 0,0 -107.36394,-1.01623 -159.80469,-1.68239 6.03865,-88.66574 24.8934,-125.58039 67.17051,-172.61881 41.687,-46.381869 118.20347,-58.247305 178.74024,-60.0409 z m 817.06259,640.00674 c -1.3056,15.64704 -3.7147,32.59391 -4.375,51.61432 -52.2995,5.19496 -231.1739,23.68452 -278.4141,26.65358 -128.9281,8.10315 -245.8356,15.43043 -382.4199,21.97329 l -1.377,-72.88923 c 222.1302,-9.19473 444.3454,-17.77652 666.586,-27.35196 z m -953.78134,39.88342 -0.47852,71.45075 c -13.80999,0.4118 -24.47324,0.89952 -38.84766,1.2988 l -0.57421,0.0146 -0.57227,0.0459 c -125.41941,9.64715 -214.46307,-3.93454 -344.58203,37.12737 -79.51587,25.09299 -146.09606,80.59704 -200.45313,138.49641 -76.03885,80.99412 -76.97881,214.54642 -85.97656,323.98952 -30.280087,-1.3431 -55.740479,-2.4096 -74.48242,-3.1521 2.603797,-33.9963 8.723872,-110.7371 15.939453,-152.7707 15.468458,-90.1107 55.676867,-154.80114 91.238277,-203.67228 41.78195,-57.41984 89.93476,-85.87223 144.33594,-128.52921 108.37613,-62.50755 193.92646,-69.92125 321.29102,-76.25401 57.70522,-2.86915 115.43786,-5.40848 173.16211,-8.04507 z m -58.84961,928.40735 c 228.45843,0.011 445.80715,1.5774 693.05865,3.4503 l 0.2871,69.5662 -926.98833,-1.13 c 0.18781,-19.9512 0.28558,-42.9005 -0.0391,-71.332 80.14105,-0.3889 157.52882,-0.5579 233.68164,-0.5545 z"
     sodipodi:nodetypes="ssscccscccsccccssccccccccccccccccccsccccsssssccccccsssccscccsccccssccsscscsccccssc" />
</svg>
