<?xml version="1.0" encoding="UTF-8" standalone="no"?>
<svg
   width="1796.9821"
   height="1798.8104"
   version="1.1"
   id="svg1351"
   xmlns="http://www.w3.org/2000/svg"
   xmlns:svg="http://www.w3.org/2000/svg">
  <defs
     id="defs1355" />
  <path
     style="fill:#000000;stroke:none;stroke-width:94.6275"
     d="m 207.76921,83.11011 -1.97789,865.70025 H 74.298553 l 1.97788,-865.70025 z m 1139.70369,-2.29975 376.9787,1 v 867 H 246.9814 L 248.95929,83.11011 373.77038,80.901265 371.13686,857.9403 Z M 332.94331,1351.8104 l -19.69961,26 c -28.65396,-8 -58.20337,-13 -87.75278,-13 -28.65396,0 -58.20337,5 -87.75278,13 l -20.59504,-26 z m -299.971244,110 c 19.699604,7 32.235715,15 36.712898,26 v 15 l -36.712898,-31 z m 385.933154,0 v 10 l -38.50377,31 v -15 c 4.47718,-11 17.90873,-19 38.50377,-26 z m -192.51886,-3 c -52.83075,0 -90.43909,21 -111.03413,64 0,17 6.26806,28 17.90873,33 24.17679,-41 55.51707,-61 93.1254,-61 35.81746,0 66.2623,20 90.43909,61 13.43155,-5 20.59504,-16 20.59504,-33 -21.49048,-43 -58.20337,-64 -111.03413,-64 z m 0,-61 c 69.84405,0 110.13869,29 122.67481,87 -9.84981,143 -20.59504,218 -34.02659,223 -11.64068,-84 -41.19008,-127 -88.64822,-127 -46.5627,0 -77.00754,43 -91.33453,127 -13.43154,-5 -24.17678,-80 -33.13115,-223 12.53611,-58 54.62163,-87 124.46568,-87 z m 0,210 c 30.44484,0 51.93532,42 65.36687,125 -10.74524,19 -32.23572,28 -65.36687,28 -33.13115,0 -56.4125,-9 -68.05318,-28 14.32699,-83 37.60834,-125 68.05318,-125 z M 1310.76,0.8103601 448.50755,684.41671 450.84971,0.9012648 0,0 0.8070254,1029.8471 205.79132,1028.8104 v 286 H 75.95302 v 35 l 27.75854,46 c -10.745245,3 -19.699612,19 -27.75854,48 -7.163493,-9 -32.235716,-13 -74.3212325,-13 v 64 c 43.8763895,32 67.1577395,59 68.0531765,83 l 20.595041,122 c 8.954363,66 54.621635,99 136.106355,99 80.58929,0 125.36112,-33 136.10635,-99 l 17.90874,-122 c 3.58174,-24 25.96765,-51 68.05317,-83 v -64 c -42.08552,0 -67.15774,4 -74.32123,13 -8.05893,-29 -17.01329,-45 -27.75853,-48 l 27.75853,-46 v -35 H 246.9814 v -286 H 1796.982 L 1796.0866,0.8103601 Z"
     id="path1349" />
</svg>
