<?xml version="1.0" encoding="UTF-8" standalone="no"?>
<!-- Created with Inkscape (http://www.inkscape.org/) -->

<svg
   width="1796.1091"
   height="1298.6989"
   id="svg2"
   version="1.0"
   xmlns="http://www.w3.org/2000/svg"
   xmlns:svg="http://www.w3.org/2000/svg"
   xmlns:rdf="http://www.w3.org/1999/02/22-rdf-syntax-ns#"
   xmlns:cc="http://creativecommons.org/ns#"
   xmlns:dc="http://purl.org/dc/elements/1.1/">
  <path
     id="path1883"
     style="display:inline;opacity:1;fill:#000000;fill-opacity:1;fill-rule:evenodd;stroke:none;stroke-width:43.2646;stroke-linecap:butt;stroke-linejoin:miter;stroke-miterlimit:4;stroke-dasharray:none;stroke-opacity:1"
     d="m 1188.8771,0 c 16.8622,152.7004 -22.3096,316.4057 -67.2223,461.12503 87.8389,1.88159 152.1936,5.4135 221.6008,17.75075 32.0012,5.68827 146.2309,23.17566 160.1192,39.3871 -60.5224,112.28 -203.0284,380.56462 -467.9237,508.10002 -152.3517,73.3506 -448.87663,134.1667 -587.81473,155.1704 -81.81094,12.3676 -234.7637,28.4387 -293.86923,34.6742 -38.33393,7.2203 -125.285997,-3.061 -126.094127,51.0126 11.43617,34.4717 74.624717,29.1539 103.192407,29.0538 57.41325,-0.3712 236.76113,3.7309 324.02578,-4.416 183.66132,-17.1464 572.631,-99.462 765.6206,-215.4538 294.5734,-177.04632 479.7181,-406.70166 575.5974,-738.78353 -165.2271,35.50681 -328.5387,34.83172 -489.5577,-16.00874 C 1302.544,216.75512 1330.631,119.93214 1366.9042,23.05887 1301.5401,29.89224 1250.4284,19.20128 1188.8771,0 Z m 47.2181,59.05048 c 23.5794,5.72135 43.9658,8.11955 68.548,8.53201 -31.4383,91.17041 -45.9451,186.70618 -39.8086,282.9708 153.7151,72.33768 307.0955,60.43692 470.1134,40.9312 -100.4742,312.04401 -333.1982,534.95842 -581.0438,673.41831 -217.62913,121.5794 -693.57216,191.2013 -802.17894,186.8149 -3.38343,-0.1367 -6.60264,-7.9739 -9.92408,-7.4503 14.03737,-2.7606 169.34247,-22.0706 183.66133,-25.7426 48.57529,-12.4571 353.87564,-70.1627 529.14059,-153.3638 233.2368,-86.30462 490.0475,-474.20925 507.6714,-570.31713 -21.0265,-24.54298 -168.1885,-47.53488 -204.5369,-56.7421 -42.5038,-10.7664 -117.8115,-19.49138 -175.1463,-29.13426 33.7098,-114.88634 57.4709,-236.88155 53.5039,-349.91703 z m -608.96514,8.383066 c -20.71727,-0.10262 -41.41155,1.28524 -61.96931,3.79449 -74.46523,9.32657 -146.15434,33.265664 -215.8374,60.352734 -86.12089,33.52906 -175.63864,61.74151 -268.331656,68.43569 -23.563915,1.2021 -58.025068,-6.72369 -64.214593,22.36284 -6.7992284,40.62633 37.542511,32.10058 63.40629,35.9018 107.726229,10.64076 212.320289,39.75883 316.470179,68.07645 50.08697,13.84476 100.49252,26.59244 151.06145,38.48385 69.77452,14.84691 142.29238,6.38226 210.85286,-10.35067 71.92542,-21.59505 147.39714,-29.09319 222.41598,-28.11073 26.12854,-2.17542 52.44564,5.00349 78.40484,-0.15717 10.986,-2.16932 19.0826,-12.91355 18.1867,-24.02434 -3.1253,-29.73618 -29.5824,-29.29458 -52.5169,-34.93633 -28.53514,-7.71544 -58.55536,-16.74326 -79.93146,-38.4165 C 930.76183,210.89054 915.60549,193.43588 898.60515,177.8557 789.88352,76.826246 666.24434,67.627236 627.13006,67.433546 Z m 71.87096,70.636034 c 65.73778,9.68122 128.02208,49.1967 175.89419,93.02135 15.60115,18.32286 31.52753,37.14807 52.38199,49.79998 -25.33195,-0.18493 -50.68185,-2.0352 -76.00232,-0.42658 -56.99649,7.13432 -113.00915,20.663 -169.94409,28.04337 20.39991,-14.40713 37.18673,-34.93101 44.20926,-59.16276 11.3948,-38.09151 -0.90143,-80.38617 -25.95526,-110.30989 -0.78704,-0.69053 -0.85537,-0.93816 -0.58377,-0.96547 z m -164.73514,4.69261 c -23.84068,17.60345 -43.82345,43.33183 -46.90359,73.62225 -3.35368,29.80201 10.76993,58.64342 30.15392,80.38051 -28.85074,-6.26497 -57.78014,-12.21917 -86.51009,-19.0174 C 359.17,256.99873 285.25934,245.02972 211.66613,232.41564 c 44.22761,-10.85313 87.73615,-24.61825 130.29276,-40.77403 49.06234,-22.18433 104.71515,-37.55288 192.30699,-48.87942 z m 76.78704,400.19143 c -20.71727,-0.10259 -41.41155,1.28527 -61.96932,3.7945 -74.46522,9.32656 -146.15433,33.26568 -215.83738,60.35272 -86.12088,33.5293 -175.63867,61.7415 -268.331673,68.4359 -23.563918,1.2018 -58.0250704,-6.7239 -64.21459603,22.3627 -6.79922817,40.6263 37.54251903,32.1004 63.40630303,35.9017 107.726226,10.6407 212.320266,39.7589 316.470166,68.0764 50.08698,13.8449 100.49254,26.5927 151.06147,38.484 69.77451,14.847 142.29238,6.3823 210.85286,-10.3507 71.92547,-21.5951 147.39713,-29.0932 222.41612,-28.1109 26.12805,-2.1752 52.44543,5.0038 78.40453,-0.1572 10.9862,-2.1692 19.0827,-12.9133 18.1868,-24.0243 -3.1254,-29.7362 -29.5822,-29.2946 -52.5168,-34.9363 -28.53515,-7.7154 -58.55546,-16.7432 -79.93135,-38.4165 -14.36528,-17.9552 -29.5217,-35.4098 -46.52205,-50.9899 C 773.8063,552.34632 650.16721,543.14731 611.05292,542.95362 Z m 71.87095,70.63592 c 65.73772,9.6813 128.02201,49.1967 175.89419,93.0216 15.60115,18.3228 31.52747,37.1479 52.38207,49.8 -25.33201,-0.185 -50.68185,-2.0353 -76.00239,-0.4269 -56.99648,7.1343 -113.00914,20.6632 -169.94411,28.0435 20.39994,-14.4072 37.18674,-34.931 44.20928,-59.1627 11.3948,-38.0915 -0.90143,-80.386 -25.95527,-110.3099 -0.78703,-0.6906 -0.85536,-0.9382 -0.58377,-0.9656 z m -164.73513,4.6927 c -23.84067,17.6034 -43.82345,43.3319 -46.9036,73.6222 -3.35366,29.802 10.76994,58.6437 30.15391,80.3806 -28.85072,-6.265 -57.78012,-12.2192 -86.51008,-19.0175 -71.83611,-20.7487 -145.74676,-32.7178 -219.33998,-45.3318 44.2276,-10.8531 87.73615,-24.6182 130.29276,-40.7742 49.06235,-22.1842 104.71513,-37.5527 192.30699,-48.8793 z" />
  <defs
     id="defs4" />
  <metadata
     id="metadata7">
    <rdf:RDF>
      <cc:Work
         rdf:about="">
        <dc:format>image/svg+xml</dc:format>
        <dc:type
           rdf:resource="http://purl.org/dc/dcmitype/StillImage" />
        <dc:creator>
          <cc:Agent>
            <dc:title>Serge Rosmorduc</dc:title>
          </cc:Agent>
        </dc:creator>
        <dc:description>U1 sign from a Sethi the 1st relief in the Louvre.&#10;</dc:description>
      </cc:Work>
    </rdf:RDF>
  </metadata>
</svg>
