<?xml version="1.0" encoding="UTF-8" standalone="no"?>
<svg
   width="1077.655"
   height="950.14526"
   id="svg4518"
   sodipodi:version="0.32"
   inkscape:version="1.2.2 (732a01da63, 2022-12-09)"
   sodipodi:docname="US9U9VARA.svg"
   version="1.1"
   xmlns:inkscape="http://www.inkscape.org/namespaces/inkscape"
   xmlns:sodipodi="http://sodipodi.sourceforge.net/DTD/sodipodi-0.dtd"
   xmlns="http://www.w3.org/2000/svg"
   xmlns:svg="http://www.w3.org/2000/svg"
   xmlns:rdf="http://www.w3.org/1999/02/22-rdf-syntax-ns#"
   xmlns:cc="http://creativecommons.org/ns#"
   xmlns:dc="http://purl.org/dc/elements/1.1/">
  <metadata
     id="metadata4525">
    <rdf:RDF>
      <cc:Work
         rdf:about="">
        <dc:format>image/svg+xml</dc:format>
        <dc:type
           rdf:resource="http://purl.org/dc/dcmitype/StillImage" />
        <cc:license
           rdf:resource="http://creativecommons.org/licenses/GPL/2.0/" />
        <dc:date>6/12/06</dc:date>
        <dc:creator>
          <cc:Agent>
            <dc:title>Serge Thomas</dc:title>
          </cc:Agent>
        </dc:creator>
        <dc:publisher>
          <cc:Agent>
            <dc:title>Serge Rosmorduc</dc:title>
          </cc:Agent>
        </dc:publisher>
        <dc:description>US22U9
FCD p. 86 ( bdt )

U9 d'abord redessiné sous Inkscape seul mais repris pour optimisation car jugé médiocre gabarit pour U10, U11, U12 </dc:description>
      </cc:Work>
      <cc:License
         rdf:about="http://creativecommons.org/licenses/GPL/2.0/">
        <cc:permits
           rdf:resource="http://web.resource.org/cc/Reproduction" />
        <cc:permits
           rdf:resource="http://web.resource.org/cc/Distribution" />
        <cc:requires
           rdf:resource="http://web.resource.org/cc/Notice" />
        <cc:permits
           rdf:resource="http://web.resource.org/cc/DerivativeWorks" />
        <cc:requires
           rdf:resource="http://web.resource.org/cc/ShareAlike" />
        <cc:requires
           rdf:resource="http://web.resource.org/cc/SourceCode" />
      </cc:License>
    </rdf:RDF>
  </metadata>
  <defs
     id="defs4523" />
  <sodipodi:namedview
     inkscape:window-height="1137"
     inkscape:window-width="1920"
     inkscape:pageshadow="2"
     inkscape:pageopacity="0.0"
     guidetolerance="10.0"
     gridtolerance="10.0"
     objecttolerance="10.0"
     borderopacity="1.0"
     bordercolor="#666666"
     pagecolor="#ffffff"
     id="base"
     inkscape:zoom="0.54565796"
     inkscape:cx="820.11083"
     inkscape:cy="575.45207"
     inkscape:window-x="-8"
     inkscape:window-y="-8"
     inkscape:current-layer="svg4518"
     inkscape:showpageshadow="2"
     inkscape:pagecheckerboard="0"
     inkscape:deskcolor="#d1d1d1"
     showgrid="false"
     inkscape:window-maximized="1" />
  <path
     id="path4520"
     style="fill:#000000;stroke:none;stroke-width:73.9091"
     d="M 664.52091,0.00268559 C 695.06617,26.180928 718.78649,64.414029 745.33537,96.442138 878.41813,277.82799 990.01703,475.53335 1074.2084,684.2273 c 18.9609,50.33674 -45.05,66.09059 -76.49999,87.66211 -100.9137,56.83457 -200.23397,116.55935 -301.30273,173.04492 -44.39954,22.72691 -66.89502,-34.54335 -87.31055,-63 C 473.36762,689.93318 372.47344,526.20583 296.93498,327.60034 c -3.93733,2.48272 -8.07798,3.30201 -11.46289,0.86294 -19.17747,-1.64127 -39.30939,-16.14132 -60.41407,-39.4938 -21.60366,-23.90953 -32.4082,-45.65768 -32.4082,-65.24609 1.7478,-15.55545 10.37421,-23.04472 25.92969,-22.46875 20.44235,7.84646 28.016,17.75573 40.473,26.70933 7.72836,-5.5293 19.88253,-10.54312 37.20473,-22.04722 117.459,-65.4727 232.86877,-134.779538 350.02539,-200.7382831 5.74565,-2.4068036 11.84108,-5.27864121 18.23828,-5.17578131 z M 642.0092,73.053466 640.47404,73.944091 C 537.61299,134.40245 432.88026,193.00846 330.59709,253.61206 416.01248,471.77431 535.89408,665.08598 680.96818,875.50659 789.78957,814.02058 897.96677,751.41596 1005.7592,688.14527 912.49715,468.03803 786.68315,262.95487 642.0092,73.053466 Z M 221.93693,228.82691 c -18.8944,7.54977 11.06012,38.49535 21.26172,49.34176 8.24137,9.22397 27.62853,26.42869 38.5664,26.96485 -7.21398,-13.39249 -15.0309,-27.77219 -20.95898,-39.0586 -10.66185,-15.86052 -23.0054,-35.87294 -38.86914,-37.24801 z m -77.43555,63.82812 c 18.71776,-0.42131 40.09352,8.14366 64.13086,25.69727 25.63586,18.72427 40.18348,37.88034 43.64258,57.46875 1.1381,11.52251 -3.73908,18.72485 -14.69336,21.60547 -19.01036,3.45902 -41.91103,-3.60272 -68.70117,-21.17383 -26.79024,-17.57194 -42.78051,-35.86256 -47.96289,-54.875 0.70243,-17.66394 9.55627,-28.39003 23.58398,-28.72266 z m 11.09961,24.93945 c -2.7781,0.0371 -5.40993,0.43328 -7.89453,1.18946 0.5691,13.82715 12.38498,27.94258 35.43164,42.3457 23.04256,14.40313 38.88782,19.5896 47.5293,15.55664 1.1381,-9.7942 -9.07212,-22.90266 -30.67578,-39.32226 -17.55628,-13.34093 -32.35225,-19.93048 -44.39063,-19.76954 z m -58.423831,72.59376 c 16.042681,-0.21633 34.758331,5.07594 56.146491,15.8789 28.51764,14.40313 46.2325,30.8237 53.14648,49.25977 2.8859,10.94654 -0.56926,18.72507 -10.36914,23.33398 -18.43726,6.91357 -42.34517,4.03145 -71.72851,-8.64258 -29.379341,-12.67482 -48.393781,-27.94262 -57.035181,-45.80273 -4.6094,-15.55507 0.4062,-26.21337 14.68947,-31.97461 4.75358,-1.29633 9.80281,-1.98064 15.15039,-2.05273 z m 12.585941,23.13085 c -6.10348,-0.29705 -11.315521,0.74254 -15.636721,3.11915 2.8859,13.82675 16.853261,25.78089 41.916021,35.86328 25.05864,10.08198 41.33302,12.53057 48.82422,7.3457 -0.5691,-9.7942 -12.9632,-21.02829 -37.16016,-33.70313 -15.12306,-7.92176 -27.77098,-12.12991 -37.94336,-12.625 z M 73.161499,480.5437 c 14.1555,0.29247 30.507711,4.12983 49.052771,11.51172 29.66784,11.81038 48.53514,26.6457 56.60352,44.50586 4.60938,10.37018 2.03288,18.43597 -7.7793,24.19727 -17.86006,8.06548 -41.91091,7.05814 -72.160151,-3.02344 -30.24504,-10.08208 -50.55274,-23.76702 -60.92584,-41.05078 -5.7596,-14.40308 -1.7468,-25.34833 12.1016,-32.83789 7.7846,-1.73314 15.9394,-3.35932 23.1074,-3.30274 z m 6.53712,22.50196 c -6.22472,0.162 -11.49662,1.54021 -15.81642,4.13281 4.024,13.25068 19.0093,24.05257 44.933641,32.40625 25.92854,8.35368 42.63577,9.36347 50.12695,3.02539 -1.7478,-9.79378 -15.12496,-19.87591 -40.1875,-30.24609 -15.66168,-6.4814 -28.681951,-9.58826 -39.056671,-9.31836 z m -25.26952,68.84179 c 14.1872,0.1225 30.667,3.75948 49.435561,10.91016 30.03004,11.44108 49.46953,25.98293 58.31641,43.62891 3.9832,10.41598 1.23189,18.35935 -8.30469,23.86523 -17.63806,8.86118 -41.89068,8.29291 -72.742181,-1.66797 -30.8482,-9.96308 -51.2019,-23.47759 -61.0547,-40.54297 -6.3018,-14.43176 -2.5558,-25.29734 11.2871,-32.61914 6.8627,-2.4572 14.5502,-3.64772 23.0625,-3.57422 z m 6.9785,22.42579 c -6.1457,0.33228 -11.2745,1.93524 -15.3867,4.81054 4.151,12.99628 19.3186,23.31471 45.48244,30.96289 26.167541,7.64618 42.580351,8.54319 49.240231,2.69141 -1.3365,-9.26658 -14.71723,-19.11042 -40.13867,-29.5293 -15.888481,-6.51168 -28.954501,-9.48934 -39.197301,-8.93554 z m -2.1641,86.99218 c 30.47093,0.26369 70.406951,7.74139 89.289131,29.29492 6.7879,9.46698 6.16074,18.1955 -1.93554,26.2129 -14.82458,12.57256 -38.33313,17.93042 -70.503891,16.11132 -32.1795,-1.8331 -55.3112,-9.72576 -69.3886998,-23.68164 -9.843,-12.38708 -8.844,-24.00927 2.9707,-34.84375 12.1395998,-8.53158 28.6663998,-13.27463 49.5682998,-13.09375 z m 5.7266,20.78906 c -17.0181,-0.0518 -29.0931,3.77863 -36.2305,11.41211 7.4516,11.76108 24.845,18.11467 52.16999,19.07227 27.319321,0.9562 43.731921,-2.49579 49.232421,-10.35547 -16.64479,-17.01174 -43.959911,-20.06438 -65.171911,-20.12891 z m 83.646521,94.03516 c 8.02038,8.08488 8.92456,16.59974 2.70508,25.54492 -12.58568,15.29798 -34.86911,24.80734 -66.839851,28.55274 -31.97335,3.73268 -56.21995,-9.7e-4 -72.73245,-11.21875 C -0.09110082,827.77457 -1.0808008,815.96707 8.4661992,803.76441 22.423499,789.68133 45.442699,781.59473 77.538499,779.948 c 23.126431,-1.18654 54.819811,3.29911 71.078121,16.18164 z m -65.974611,3.96094 c -27.45841,1.11996 -44.61091,7.35079 -51.46291,18.66797 9.47,10.59578 27.6506,13.98649 54.55666,10.16211 26.904741,-3.8188 42.314621,-9.87338 46.232421,-18.16016 -14.90422,-11.78599 -33.604231,-11.31118 -49.326171,-10.66992 z m 65.791011,93.28516 c 8.0204,8.08488 8.92458,16.59974 2.70508,25.54492 -12.58568,15.29796 -34.8691,24.80733 -66.839841,28.55273 -31.97336,3.7327 -56.21996,-9.7e-4 -72.73246,-11.21875 C -0.27460082,925.02066 -1.2645008,913.21318 8.2825992,901.0105 22.239899,886.92742 45.259099,878.84081 77.354899,877.19409 c 23.126431,-1.18654 54.819821,3.29911 71.078121,16.18165 z m -65.974611,3.96093 c -27.45841,1.11992 -44.61091,7.35079 -51.46291,18.66797 9.47,10.59578 27.6506,13.98651 54.55666,10.16211 26.904761,-3.8188 42.314631,-9.87336 46.232431,-18.16016 -14.90425,-11.78602 -33.604241,-11.31116 -49.326181,-10.66992 z"
     sodipodi:nodetypes="cccccccccccccccccccccccccccccccccscccssscccccsssccsssccccccccsccssscccccsscccssscscccsssscccscccccscscscscccccscscscs" />
</svg>
