<?xml version="1.0" encoding="UTF-8" standalone="no"?>
<svg
   width="18"
   height="17.98"
   version="1.1"
   id="svg528"
   sodipodi:docname="US9U68VARA.svg"
   inkscape:version="1.2.1 (9c6d41e410, 2022-07-14)"
   xmlns:inkscape="http://www.inkscape.org/namespaces/inkscape"
   xmlns:sodipodi="http://sodipodi.sourceforge.net/DTD/sodipodi-0.dtd"
   xmlns="http://www.w3.org/2000/svg"
   xmlns:svg="http://www.w3.org/2000/svg">
  <defs
     id="defs532" />
  <sodipodi:namedview
     id="namedview530"
     pagecolor="#ffffff"
     bordercolor="#000000"
     borderopacity="0.25"
     inkscape:showpageshadow="2"
     inkscape:pageopacity="0.0"
     inkscape:pagecheckerboard="0"
     inkscape:deskcolor="#d1d1d1"
     showgrid="false"
     inkscape:zoom="29.502503"
     inkscape:cx="9.6940927"
     inkscape:cy="8.8128115"
     inkscape:window-width="1920"
     inkscape:window-height="1017"
     inkscape:window-x="1072"
     inkscape:window-y="-8"
     inkscape:window-maximized="1"
     inkscape:current-layer="svg528" />
  <path
     id="path526"
     style="fill:#000000;stroke:none;stroke-width:0.997705"
     d="M 9.1484375 0.02734375 C 7.9841765 0.02734375 6.7705205 0.72258329 6.6171875 1.7578125 L 5.4882812 1.7578125 L 5.4882812 3.4785156 L 6.5273438 3.4785156 C 6.5740107 4.5203811 6.7122979 5.2463376 7.0917969 6.2421875 C 7.2366206 6.6222219 7.3867656 7.1289022 7.5390625 7.6582031 C 6.9442937 7.4855374 6.3671768 7.1727593 5.9238281 6.7109375 C 5.2988297 6.0598969 5.1380212 6.0989562 4.8046875 3.953125 L 1.3515625 3.953125 L 1.3515625 6.828125 L 0.04296875 6.828125 L 0.04296875 10.34375 L 0.98046875 10.34375 L 0.98046875 8.140625 L 2.4824219 8.1152344 L 2.5078125 5.125 L 3.8515625 5.125 C 4.0911463 6.9999981 4.4257823 7.121746 5.4882812 8.0332031 C 6.0011572 8.4731703 6.8366533 8.7835224 7.9238281 8.9824219 C 8.0487629 9.4029458 8.1761262 9.8065695 8.3046875 10.146484 L 6.265625 10.146484 L 6.265625 11.056641 L 8.2597656 11.056641 C 8.2275117 11.176213 8.1867066 11.301047 8.1269531 11.4375 C 8.1069911 11.49607 8.0809799 11.569186 8.0605469 11.628906 L 6.3046875 11.628906 L 6.3046875 12.539062 L 7.8496094 12.539062 C 7.2045306 14.395106 6.6114882 15.238349 5.2578125 17.953125 L 6.5488281 17.953125 C 7.7626315 15.668116 8.5470846 14.448736 9.2207031 12.546875 L 9.2617188 12.539062 L 9.2929688 12.539062 C 9.8705954 14.54038 10.318217 15.634426 11.701172 17.953125 L 13.011719 17.953125 C 11.515049 15.189662 11.189414 14.189012 10.623047 12.539062 L 11.947266 12.539062 L 11.947266 11.628906 L 10.310547 11.628906 C 10.292707 11.576726 10.248612 11.447838 10.232422 11.400391 C 10.172882 11.281848 10.137852 11.167226 10.111328 11.056641 L 11.910156 11.056641 L 11.910156 10.146484 L 10.164062 10.146484 C 10.288216 9.9121636 10.403546 9.594645 10.513672 9.2382812 C 11.050041 9.2581334 11.615847 9.2643966 12.208984 9.2558594 C 13.778111 9.2332748 14.858203 9.5176788 15.287109 9.8730469 C 15.75267 10.258783 16.070312 12.065104 16.070312 12.335938 L 17.976562 12.335938 C 17.684896 11.638021 17.173375 9.5927021 16.755859 9.0839844 C 16.368602 8.6121335 15.380858 8.2265624 14.052734 8.1328125 C 13.358886 8.083835 12.072333 8.0198362 10.861328 7.9570312 C 11.015586 7.3371438 11.159673 6.7251861 11.298828 6.2929688 C 11.625913 5.2770354 11.807995 4.5203811 11.861328 3.4785156 L 12.871094 3.4785156 L 12.871094 1.7578125 L 11.761719 1.7578125 C 11.595052 0.72258329 10.312699 0.02734375 9.1484375 0.02734375 z M 9.1484375 0.98242188 C 9.6751031 0.98242188 10.677292 1.4595972 10.890625 2.3554688 C 11.097292 3.2579763 10.632565 5.8517482 10.005859 7.8359375 L 8.5722656 7.7675781 C 7.6199576 5.2579756 7.2672659 3.2579763 7.4472656 2.3554688 C 7.6272652 1.4595972 8.561772 0.98242188 9.1484375 0.98242188 z M 5.9082031 2.1757812 L 6.5488281 2.1757812 C 6.5088282 2.467769 6.5006768 2.755664 6.5273438 3.0410156 L 5.9082031 3.0410156 L 5.9082031 2.1757812 z M 11.822266 2.1757812 L 12.451172 2.1757812 L 12.451172 3.0410156 L 11.861328 3.0410156 C 11.881328 2.755664 11.868926 2.467769 11.822266 2.1757812 z " />
</svg>
