<?xml version="1.0" encoding="UTF-8" standalone="no"?>
<svg
   width="1696"
   height="1587.127"
   version="1.1"
   id="svg1"
   xmlns="http://www.w3.org/2000/svg"
   xmlns:svg="http://www.w3.org/2000/svg">
  <defs
     id="defs1" />
  <path
     id="path1"
     style="fill:#000000;stroke:none;stroke-width:100"
     d="m 251.34375,0 c -22.9088,0 -40.44885,10.38146 -52.61915,31.14258 -59.41971,106.66913 -89.12889,171.81669 -89.12889,195.4414 -19.329315,0 -39.017315,12.52748 -59.062505,37.58399 -19.32931,25.7724 -28.99414,64.43174 -28.99414,115.97656 0,50.82889 16.46701,89.12994 49.39844,114.90234 8.62831,6.7526 17.12717,12.67163 25.50976,17.85157 l -0.62695,-0.0176 c -76.33048,217.45539 -68.10427,460.32106 33.828115,600.60746 -2.86146,3.6015 -5.81369,6.9674 -8.64842,10.6386 C 40.333415,1229.4601 0,1332.7937 0,1434.1269 c 0,101.9999 49.666765,153 149,153 99.33323,0 149,-68.6668 149,-206 0,-48.1979 7.57243,-99.267 22.37304,-153.0761 14.03963,1.8585 28.47462,3.0761 43.62696,3.0761 h 1332 v -79 h -176 v -254 h 176 v -79 H 527 c -271.77479,0 -295.19583,-150.74162 -226.69727,-281.46481 64.31955,-36.22894 143.56663,-47.22283 237.75977,-32.95117 94.49883,14.31797 141.74805,-3.22202 141.74805,-52.61914 17.18161,-11.45444 27.20483,-26.12984 30.06836,-44.02735 26.4883,-33.64731 19.68615,-52.97698 -20.40431,-57.98828 -40.09037,-5.0113 -80.18098,-15.39081 -120.27148,-31.14063 -40.80631,-15.0339 -75.5261,-37.22816 -104.1621,-66.58007 -20.7611,-27.92012 -52.97657,-41.87891 -96.64648,-41.87891 V 31.14258 C 368.39454,10.38146 360.16102,0 343.69531,0 c -8.5908,0 -18.61395,10.38146 -30.06836,31.14258 -20.7611,27.20421 -36.86786,54.05075 -48.32227,80.53906 V 31.14258 C 265.30468,10.38146 260.65046,0 251.34375,0 Z m -32.21484,92.35156 h 6.44336 c -32.21552,102.37374 -48.32422,165.37334 -48.32422,188.99805 0,21.47701 8.59183,41.16499 25.77344,59.0625 l 16.10742,-22.55078 c -12.17031,-5.7272 -20.40382,-15.03372 -24.69923,-27.91993 -4.29539,-13.6021 9.66535,-70.87446 41.88086,-171.8164 v 121.3457 c 0,10.0226 6.44192,15.0332 19.32813,15.0332 108.81683,0 173.60609,13.60244 194.36718,40.80664 21.47701,27.20421 45.10259,45.81725 70.875,55.83985 25.05659,10.0226 66.93688,23.26672 125.64063,39.73242 15.0339,2.86361 12.88595,15.39108 -6.44336,37.58399 -55.84022,-3.5795 -93.42461,-8.5901 -112.75391,-15.03321 -20.04513,-6.4431 -30.78491,-4.29515 -32.21679,6.44336 -1.43177,11.45444 5.37039,16.82336 20.40429,16.10742 14.31808,-0.71594 37.58528,1.07374 69.80079,5.36914 32.21551,4.2954 46.5327,10.73928 42.95312,19.33008 -3.57947,8.59081 -43.3118,7.87413 -119.19727,-2.14844 C 433.89886,448.51258 366.6033,452.09182 307.18359,469.27344 248.47976,487.17098 195.145,485.02301 147.17968,462.83008 99.930265,441.35307 76.306645,413.07521 76.306645,377.99609 c 0,-37.22681 4.29591,-62.28371 12.88671,-75.16992 8.59081,-12.88621 16.107675,-19.32813 22.550785,-19.32813 4.2954,33.64732 20.40215,62.64181 48.32226,86.98243 l 19.33008,-15.03516 C 166.51028,342.5591 157.20376,318.21884 151.47656,282.42383 146.46525,246.62882 169.01588,183.2709 219.12891,92.35156 Z M 328.6621,118.125 v 92.35156 h -28.99414 c 5.7272,-18.6134 15.39203,-49.39754 28.99414,-92.35156 z m 67.55079,187.15234 c -2.97546,0.0671 -6.16393,0.32405 -9.56446,0.77149 -27.2042,3.5795 -47.96519,12.16937 -62.2832,25.77148 14.31801,8.5908 35.07899,15.75131 62.2832,21.47852 27.20421,5.72719 40.80664,-1.43331 40.80664,-21.47852 0,-18.16597 -10.41396,-27.01277 -31.24218,-26.54297 z m -222.62891,300.3711 h 11 C 171.35681,750.18883 214.00018,884.79362 398,894.12692 329.58272,925.90792 266.09517,970.53642 207.32227,1027.4512 127.42185,895.30162 117.57677,693.79206 173.58398,605.64844 Z M 480,898.12692 H 619 V 1152.1269 H 404 c -19.66638,0 -38.09157,-2.8768 -55.53321,-7.7656 C 378.72006,1067.436 422.44962,985.40112 480,898.12692 Z m 219,0 H 866 V 1152.1269 H 699 Z m 249.00003,0 H 1197 V 1152.1269 H 948.00003 Z m 330.99997,0 h 160 v 253.99998 h -160 z m -916.99999,82 c -30.78981,46.74658 -55.93756,91.43418 -76.34766,134.39258 -12.40403,-8.713 -24.01935,-18.719 -34.83594,-29.8496 31.98499,-34.334 68.83679,-69.1611 111.1836,-104.54298 z M 181.76368,1169.0156 c 19.89113,16.3069 42.04326,29.6888 66.41015,39.8516 -15.17404,48.472 -23.17382,94.3257 -23.17382,137.2597 0,103.3332 -23.33338,155 -70,155 -47.33329,0 -71.000005,-25.6667 -71.000005,-77 0,-53.3332 21.000045,-119.6667 63.000005,-199 9.89437,-18.5323 21.5764,-37.246 34.76367,-56.1113 z" />
</svg>
