<?xml version="1.0" encoding="UTF-8" standalone="no"?>
<!-- Created with Inkscape (http://www.inkscape.org/) -->

<svg
   width="1058.0659"
   height="1799.6758"
   viewBox="0 0 1058.0659 1799.6758"
   version="1.1"
   id="svg1691"
   xml:space="preserve"
   xmlns="http://www.w3.org/2000/svg"
   xmlns:svg="http://www.w3.org/2000/svg"><defs
     id="defs1688"><clipPath
       clipPathUnits="userSpaceOnUse"
       id="clipEmfPath1"><path
         d="M 0,0 H 124.43852 V 129.53846 H 0 Z"
         id="path1068" /></clipPath><pattern
       id="EMFhbasepattern"
       patternUnits="userSpaceOnUse"
       width="6"
       height="6"
       x="0"
       y="0" /></defs><path
     id="rect6"
     style="color:#000000;fill:#000000;stroke-linecap:round;-inkscape-stroke:none"
     d="M 812.20471,0 V 39.289062 250.70312 C 709.84487,253.57256 716.75825,247.73977 684.98522,225.0012 651.91851,201.33693 615.9277,141.51498 604.90514,73.436749 337.13001,116.23245 187.08154,145.03423 178.00475,136.60667 154.0153,100.94685 121.9222,83.118389 81.723493,83.118389 c -55.111363,0 -82.34357968,28.850801 -81.69531068,86.556641 -0.648269,39.54949 9.88740398,69.53601 31.60742168,89.95899 21.720519,20.42298 54.949939,34.84978 99.687506,43.27734 l 680.8816,-0.9641 V 509.32812 H 672.99573 v 35 L 652.581,1799.6758 h 405.4849 L 1029.9957,509.32812 H 890.78675 V 39.289062 0 Z M 78.805523,117.14573 c 27.231317,0 52.518187,16.85923 75.859377,50.57422 2.59309,7.7988 29.17507,8.75833 79.74805,2.92383 L 559.24498,124.9348 v -0.0117 c 13.61566,46.68535 38.25426,94.66298 73.91406,143.94141 H 136.18639 C 70.701193,252.00447 37.957869,218.61731 37.957869,168.69066 c 0,-34.36337 13.616354,-51.54493 40.847654,-51.54493 z M 742.99573,579.32812 H 959.99572 L 988.06598,1729.6758 H 722.581 Z" /></svg>
