<?xml version="1.0" encoding="UTF-8" standalone="no"?>
<svg
   width="8.07"
   height="17.98"
   version="1.1"
   id="svg1082"
   sodipodi:docname="US9U22VARA.svg"
   inkscape:version="1.2.1 (9c6d41e410, 2022-07-14)"
   xmlns:inkscape="http://www.inkscape.org/namespaces/inkscape"
   xmlns:sodipodi="http://sodipodi.sourceforge.net/DTD/sodipodi-0.dtd"
   xmlns="http://www.w3.org/2000/svg"
   xmlns:svg="http://www.w3.org/2000/svg">
  <defs
     id="defs1086" />
  <sodipodi:namedview
     id="namedview1084"
     pagecolor="#ffffff"
     bordercolor="#000000"
     borderopacity="0.25"
     inkscape:showpageshadow="2"
     inkscape:pageopacity="0.0"
     inkscape:pagecheckerboard="0"
     inkscape:deskcolor="#d1d1d1"
     showgrid="false"
     inkscape:zoom="29.511834"
     inkscape:cx="4.0322808"
     inkscape:cy="4.5405515"
     inkscape:window-width="1920"
     inkscape:window-height="1017"
     inkscape:window-x="1072"
     inkscape:window-y="-8"
     inkscape:window-maximized="1"
     inkscape:current-layer="svg1082" />
  <path
     style="fill:#000000;stroke:none"
     d="M 4.3372923,0.73 V 2.35 H 3.7327077 V 0.73 Z m 0.27,2.09 c 0.25,0.05 0.2607385,0.371959 0.3427077,0.58 0.3682397,0.9346071 0.6117313,1.2827328 1.0892822,2.0631248 0.3295401,0.5385195 0.9188737,1.0925571 1.5088737,1.3025571 -0.02,0.12 -0.08,0.14 -0.19,0.14 h -0.18 C 7.1700814,6.9183982 5.0098153,7.0670435 4.1383154,7.0720771 3.0124829,7.0437594 1.8597848,6.9936995 0.74815593,6.9156819 c -0.11,0 -0.17,-0.03 -0.19,-0.15 C 1.1481559,6.5556819 1.8307568,6.0784701 2.1220677,5.5281629 2.8378204,4.1760546 2.5734088,4.6512108 3.12,3.41 3.2101184,3.2053572 3.2127077,2.87 3.4627077,2.83 Z M 4.3681559,7.6189571 c 0.2034033,0.5669561 0.4562402,1.2026518 0.5069397,2.2267638 0.036687,0.7410641 0.052328,1.4831161 -0.00106,2.0013491 -0.039864,0.386925 -0.5338888,5.247045 -0.8267973,5.257045 C 3.7743298,17.074115 3.401225,12.650539 3.3487881,12.002318 3.3043303,11.452735 3.225084,10.786305 3.2751,9.8457209 3.3396948,8.6308889 3.6082983,8.1042116 3.7481559,7.6189571 Z M 4.8553997,0 H 3.1637815 l 0.038926,2.35 C 2.8427077,2.51 2.7669433,2.8687574 2.63,3.21 2.0739147,4.5956824 2.4059651,3.8658576 1.6620677,5.2581629 1.3855943,5.7756205 0.78815593,6.1556819 0.30815593,6.2956819 c -0.31,0.11 -0.34,0.53 -0.24,0.79 0.12,0.24 0.40529425,0.2984871 0.76,0.36 C 1.542,7.5694764 2.4206766,7.5734917 3.2181559,7.6189571 v 0 c 0,0 -0.3730603,0.3967636 -0.4730603,2.1967638 -0.06,0.9600001 0.030971,2.2152211 0.1439608,2.8873331 C 2.9931876,13.322498 3.42,17.89 4.03,17.97 v 0 0 c -0.03,0 -0.02,0.01 0,0.01 v -0.01 0 0 h 0.01 v 0 C 4.65,17.94 5.1244054,13.562666 5.2511348,12.966623 5.3934075,12.297475 5.4550956,10.775721 5.4050956,9.8157209 5.2950956,8.0157207 4.8981559,7.6189571 4.8981559,7.6189571 v 0 c 0.7929645,-0.064714 1.6958743,-0.1016687 2.38,-0.1832752 0.3574658,-0.042641 0.64,-0.11 0.76,-0.35 0.1,-0.27 0.07,-0.68 -0.24,-0.8 -0.47,-0.14 -1.0068353,-0.583745 -1.2988737,-1.0825571 C 5.958927,4.2801787 5.7847706,4.0146482 5.45,3.21 5.3072515,2.8668923 5.2272923,2.5 4.8672923,2.35 Z"
     id="path1080"
     sodipodi:nodetypes="ccccccsscsccccsscccsscsscccccssccscscsscscccccsscscsccsscc" />
</svg>
