<?xml version="1.0" encoding="UTF-8" standalone="no"?>
<svg
   width="1800"
   height="1798"
   version="1.1"
   id="svg1314"
   xmlns="http://www.w3.org/2000/svg"
   xmlns:svg="http://www.w3.org/2000/svg">
  <defs
     id="defs1318" />
  <path
     style="fill:#000000;stroke:none;stroke-width:98.971"
     d="m 1110.7818,49 274.2672,49 c 9.7952,-29 25.4676,-43 45.0581,-43 17.6315,0 30.3653,4 35.2629,18 4.8977,14 0.9796,29 -5.8771,46 -6.8567,17 -33.3039,27 -80.3211,27 h -316.3867 c 28.4062,-25 44.0786,-58 47.9967,-97 z m -84.2392,134 v 79 h -92.07534 v -79 z m 24.4882,356 c 9.7952,0 22.5291,1 41.1401,3 -0.9796,6 -10.7748,10 -32.3244,10 h -8.8157 -9.7953 c -20.57,0 -33.3038,-4 -35.2629,-10 17.6315,-2 33.3039,-3 45.0582,-3 z m 0,49 c 9.7952,0 18.611,8 29.3857,24 -10.7747,-10 -20.57,-15 -31.3448,-15 -10.7747,0 -20.57,5 -31.3448,15 10.7748,-16 22.5291,-24 33.3039,-24 z m -76.403,-6 h 0.97952 c 5.87716,1 5.87716,6 2.93858,15 1.95905,10 0,16 -4.89763,16 0,0 0,-1 -0.97952,-1 -4.89763,0 -5.87715,-4 -8.81573,-9 -1.95905,-4 -1.95905,-7 0,-12 2.93858,-5 5.87715,-9 10.77478,-9 z m 151.8264,0 c 4.8977,0 8.8158,4 10.7748,9 1.9591,5 1.9591,8 0,12 -2.9386,5 -6.8567,9 -11.7543,9 -0.9795,0 -0.9795,1 -0.9795,1 -3.9181,0 -3.9181,-6 -1.9591,-16 -2.9385,-9 -2.9385,-14 2.9386,-15 z m -75.4234,-3 c -13.7134,0 -28.4063,8 -42.1196,27 v 22 c 13.7133,-12 27.4267,-18 42.1196,-18 13.7133,0 27.4267,6 41.1401,18 v -22 c -13.7134,-19 -28.4063,-27 -41.1401,-27 z m 0,43 c -4.8976,0 -10.7748,0 -15.6724,3 -9.7953,6 -14.6929,17 -14.6929,33 l 8.8157,49 5.8772,-3 -2.9386,-28 c -1.9591,-19 -0.9795,-33 5.8772,-39 3.9181,-3 7.8362,-5 12.7338,-5 3.9181,0 7.8362,2 11.7543,5 6.8567,6 7.8362,20 5.8771,39 l -2.9385,28 5.8771,3 5.8772,-49 c 0,-16 -2.9386,-27 -11.7543,-33 -4.8977,-3 -10.7748,-3 -14.6929,-3 z m 12.7338,-62 c 1.9591,0 4.8976,0 7.8362,1 22.5291,14 34.2834,40 32.3244,76 -0.9796,35 -6.8567,58 -17.6315,70 -10.7748,12 -22.5291,18 -35.2629,18 -12.7338,0 -25.4677,-5 -36.2425,-18 -10.7747,-13 -15.67237,-38 -17.63142,-73 -2.93857,-35 5.87712,-59 29.38572,-73 2.9386,-1 5.8772,-1 8.8158,-1 5.8771,0 10.7748,1 15.6724,1 3.9181,0 7.8362,-1 12.7338,-1 z M 244.88136,530 379.07634,1479.9779 H 107.7478 Z m 1306.68694,0 135.1745,949.9779 h -269.3695 z m -688.6064,817 v 372 H 724.84882 c 32.32433,-122 51.91484,-245 59.75105,-372 z m 148.8879,0 c 7.8362,127 26.4472,250 59.751,372 H 934.46726 V 1347 Z M 1077.478,0 c -6.8567,61 -22.5291,99 -45.0582,113 -10.7748,7 -24.4881,11 -44.07865,15 H 934.46726 V 46 c 0,-27 -12.73383,-40 -36.24244,-40 C 874.71621,6 862.9619,17 862.9619,43 V 262 H 119.5021 c -32.324337,29 -32.324337,57 0,85 h 95.01397 v 86 c 0,12 -0.97953,26 -5.87715,42 L 56.812475,1458.9779 c -2.938577,6 -12.733831,16 -30.365288,27 -16.6519327,11 -26.447187,22 -26.447187,34 0,12 10.77478,21 33.303864,30 H 453.52027 c 22.52909,-9 33.30387,-18 33.30387,-30 0,-12 -11.75431,-24 -30.36529,-34 -18.61098,-10 -26.44719,-20 -26.44719,-27 L 277.2057,475 c -4.89763,-16 -8.81573,-30 -8.81573,-42 V 347 H 862.9619 v 905 c 0,14 -20.57003,23 -59.75105,31 -40.16054,7 -62.68963,17 -65.6282,24 -6.85668,58 -17.63146,141 -36.24244,250 -13.71336,56 -40.16055,136 -74.44394,241 h 542.65713 c -34.2834,-107 -60.7306,-186 -74.444,-241 -19.5905,-108 -32.3243,-190 -38.2015,-250 -2.9385,-7 -22.5291,-17 -62.68959,-24 -41.14007,-8 -59.75105,-17 -59.75105,-31 V 347 h 95.01394 v 180 c -17.6314,0 -32.32432,5 -44.07862,12 2.93857,8 9.79525,13 17.63142,16 v 6 l -14.69285,15 c -5.87715,-2 -10.77477,-2 -14.69288,-2 -13.71335,0 -20.57003,8 -21.54956,23 0,17 3.91811,26 15.67241,26 1.95905,0 4.89763,0 7.8362,-1 l 5.87716,39 c 1.95905,20 6.85667,39 18.61102,55 11.7543,16 28.4062,24 50.9353,24 21.5495,0 39.181,-8 49.9558,-24 11.7543,-16 16.6519,-35 18.611,-55 l 2.9385,-39 c 2.9386,1 5.8772,1 8.8158,1 11.7543,0 17.6314,-9 17.6314,-26 0,-15 -7.8362,-23 -23.5086,-23 -3.9181,0 -9.7952,0 -14.6929,2 l -12.7338,-15 v -6 c 7.8362,-3 14.6929,-8 18.611,-16 -13.7134,-7 -29.3858,-12 -45.0582,-12 V 347 h 453.5203 v 86 c 0,12 -3.9181,26 -8.8157,42 l -148.8879,983.9779 c -3.9181,6 -15.6724,16 -33.3039,27 -17.6314,11 -23.5086,22 -23.5086,34 0,12 9.7953,21 32.3244,30 h 421.1959 c 22.5291,-9 32.3243,-18 32.3243,-30 0,-12 -7.8362,-24 -26.4472,-34 -18.6109,-10 -28.4062,-20 -30.3652,-27 L 1587.8107,475 c -4.8976,-16 -5.8771,-30 -5.8771,-42 v -86 h 95.0139 c 32.3244,-28 32.3244,-56 0,-85 h -605.3467 v -79 h 307.571 c 64.6487,0 101.8706,-15 113.6249,-43 11.7544,-28 14.6929,-56 5.8772,-82 -8.8157,-25 -33.3039,-37 -68.5668,-37 -35.2629,0 -56.8125,12 -65.6282,40 z"
     id="path1312" />
</svg>
