<?xml version="1.0" encoding="UTF-8" standalone="no"?>
<svg
   width="757"
   height="1798"
   version="1.1"
   id="svg6236"
   xmlns="http://www.w3.org/2000/svg"
   xmlns:svg="http://www.w3.org/2000/svg">
  <defs
     id="defs6240" />
  <path
     id="path6234"
     style="fill:#000000;stroke:none;stroke-width:100"
     d="m 190,0 c 0,0 -30.64707,22.37675 -30.81568,38.924566 -0.18425,18.082796 32.80045,43.212547 32.80045,43.212547 0,0 99.13536,17.564481 127.21328,83.502727 C 363.07749,268.68641 345,466.81014 345,466.81014 l -150,-154 H 131 V 1673 H 0 v 125 H 757 V 1673 H 626 V 312.81014 h -64 l -149,154 c 0,0 18.13847,-228.83871 -27.78672,-340.06366 C 345.00298,29.362262 190,0 190,0 Z m 5,405.81014 184,181 183,-181 V 1714 h 152 v 41 H 41 v -39 h 154 z" />
</svg>
