<?xml version="1.0" encoding="UTF-8" standalone="no"?>
<svg
   width="899.61328"
   height="1799.4191"
   version="1.1"
   id="svg2569"
   xmlns="http://www.w3.org/2000/svg"
   xmlns:svg="http://www.w3.org/2000/svg">
  <defs
     id="defs2573" />
  <path
     id="path859"
     style="color:#000000;fill:#000000"
     d="M 469.1719,0.01872468 C 401.479,-0.71582932 343.3938,20.200869 299.25,55.837083 255.1061,91.473298 224.9652,140.00144 203.8847,192.92692 174.8595,265.79879 162.1302,348.12301 156.8066,426.74138 L 0,418.59685 55.757781,896.40658 258.9238,897.38981 c 51.5314,99.29042 98.8425,183.45419 142.1231,274.24419 -81.53672,162.5325 -180.13196,360.9797 -239.35886,480.3835 -32.09057,64.6959 -72.956423,145.9281 -72.956423,145.9281 l 100.998883,0.1728 c 0,0 139.9741,-282.6133 260.0664,-522.6504 105.5212,227.9874 235.3613,523.9511 235.3613,523.9511 l 92.59799,-0.077 c 0,0 -28.68136,-78.3022 -57.46372,-143.2898 -54.77816,-123.6828 -146.74598,-329.696 -219.04837,-483.4222 45.5107,-91.6072 97.1379,-192.43535 143.7227,-276.85357 l 193.02639,0.4964 61.62011,-480.13898 -133.7813,6.94922 C 761.8044,355.58273 751.3511,280.81392 727.5996,211.9152 708.681,157.03618 681.0219,105.21924 638.5429,65.673021 596.064,26.126797 537.9504,0.76507368 469.1719,0.01872468 Z M 468.1953,90.014818 c 48.5442,0.526776 81.3037,15.725172 109.0234,41.531242 27.7199,25.80609 49.5865,64.13392 65.295,109.70118 31.4168,91.1345 36.952,208.52371 35.1523,289.50781 C 674.2387,684.98473 605.1043,773.9869 515.3945,946.08317 500.3436,974.95614 477.4391,1020.0437 452.0449,1070.302 356.8211,879.15938 242.7793,711.32249 243.2676,530.24528 c 0.2701,-100.20138 9.9821,-218.03521 44.2285,-304.01562 17.1232,-42.99021 39.8166,-77.37977 68.2871,-100.36328 28.4705,-22.98353 62.7816,-36.390118 112.4121,-35.851562 z M 840.10194,477.0561 788.38526,836.88798 675.72609,838.21502 c 53.8273,-99.92014 89.11751,-179.41728 91.91841,-305.45997 0.4058,-18.26114 -0.60315,-31.30071 -0.99955,-52.48536 z m -779.560122,3.49344 93.741382,5.4043 c -0.5842,18.16689 -0.9692,26.81619 -1.0156,44.04925 -0.3118,115.61877 25.90298,210.86412 73.25468,311.31137 l -121.038,-1.22935 z" />
</svg>
