<?xml version="1.0" encoding="UTF-8" standalone="no"?>
<svg
   width="1799.9941"
   height="1589.6614"
   version="1.1"
   id="svg2569"
   xml:space="preserve"
   xmlns="http://www.w3.org/2000/svg"
   xmlns:svg="http://www.w3.org/2000/svg"><defs
     id="defs2573" /><path
     id="path859"
     style="color:#000000;fill:#000000;stroke-width:0.853286"
     d="m 721.85434,2e-4 49.08209,149.68012 c -2.79856,1.89714 -5.68063,3.70827 -8.36405,5.72149 -73.91501,53.43161 -95.76314,110.37468 -116.90352,186.93283 l -138.79426,-6.70124 11.33778,436.90049 170.65148,-0.40708 c 34.5551,61.87683 85.99143,155.44891 126.63714,231.38699 H 65.603207 C 21.867663,1003.5138 0,1029.4074 0,1081.1947 c 0,51.7875 21.867663,77.681 65.603207,77.681 H 806.76783 c -59.94259,111.4667 -124.89094,232.5947 -165.95457,309.5321 -28.40405,53.218 -64.57516,120.041 -64.57516,120.041 l 89.3965,0.1432 c 0,0 123.8167,-232.3272 230.0778,-429.7163 h 0.21734 c 93.38084,187.5127 208.21976,430.7857 208.21976,430.7857 l 81.9605,-0.064 c 0,0 -25.3862,-64.4097 -50.8622,-117.8677 -38.5698,-80.9342 -97.1614,-202.1983 -151.96384,-312.8542 h 755.20534 c 41.0029,0 61.5048,-25.8935 61.5048,-77.681 0,-51.7873 -20.5019,-77.6809 -61.5048,-77.6809 H 980.15328 c 42.92362,-78.48118 97.05562,-175.78297 128.90362,-229.41888 l 170.8533,0.40881 13.211,-441.6112 -128.9001,5.71633 c -18.4034,-60.72029 -57.325,-135.90043 -101.3311,-175.11553 -11.3321,-9.80438 -24.0635,-18.38589 -37.7892,-25.83559 L 1075.668,0 Z m 73.30317,53.10801 h 204.42508 l -23.81229,64.82355 c -19.53501,-5.22793 -40.516,-8.21871 -62.79506,-8.44339 -34.49077,-0.34784 -66.04445,5.36829 -94.1676,15.73628 z m 116.95357,130.40778 c 42.96746,0.43331 71.9626,12.93734 96.49792,34.16514 24.5355,21.22784 43.8906,52.75511 57.7945,90.23827 27.8078,74.96631 32.7085,171.53022 31.1156,238.1469 -3.0336,126.86777 -64.2267,200.08169 -143.63087,341.6462 -13.32179,23.75082 -33.59626,60.83942 -56.07313,102.18152 C 813.53042,832.66205 712.58891,694.59941 713.02111,545.64715 c 0.23908,-82.42464 8.83617,-179.35491 39.14839,-250.0815 15.15611,-35.36331 35.24245,-63.6513 60.4423,-82.55728 25.19985,-18.90602 55.5702,-29.93538 99.49928,-29.49238 z m 328.33512,199.4884 -4.4434,342.64837 -99.7182,1.09187 c 24.048,-57.8281 39.7577,-130.1298 40.8767,-179.03277 0.7615,-33.28235 1.2386,-134.89084 -12.221,-162.0632 z m -679.98406,3.59124 76.42007,4.4468 c -8.38231,30.78129 -12.65767,110.99239 -12.69873,154.40635 2.34575,59.77731 18.99494,136.90639 36.00042,180.54897 l -97.95719,0.20698 z M 114.80604,1063.932 H 1689.2882 c 16.4008,0 24.6005,5.7545 24.6005,17.2627 0,11.5084 -8.1997,17.2628 -24.6005,17.2628 H 114.80604 c -19.1343,0 -28.702369,-5.7544 -28.702369,-17.2628 0,-11.5082 9.568069,-17.2627 28.702369,-17.2627 z" /></svg>
