<?xml version="1.0" encoding="UTF-8" standalone="no"?>
<svg
   width="16.226168"
   height="17.977417"
   version="1.1"
   id="svg4"
   sodipodi:docname="US9V4VARA.svg"
   inkscape:version="1.2.1 (9c6d41e410, 2022-07-14)"
   xmlns:inkscape="http://www.inkscape.org/namespaces/inkscape"
   xmlns:sodipodi="http://sodipodi.sourceforge.net/DTD/sodipodi-0.dtd"
   xmlns="http://www.w3.org/2000/svg"
   xmlns:svg="http://www.w3.org/2000/svg">
  <defs
     id="defs8" />
  <sodipodi:namedview
     id="namedview6"
     pagecolor="#ffffff"
     bordercolor="#000000"
     borderopacity="0.25"
     inkscape:showpageshadow="2"
     inkscape:pageopacity="0.0"
     inkscape:pagecheckerboard="0"
     inkscape:deskcolor="#d1d1d1"
     showgrid="false"
     inkscape:zoom="30.148988"
     inkscape:cx="8.7730973"
     inkscape:cy="8.9886932"
     inkscape:window-width="1920"
     inkscape:window-height="1137"
     inkscape:window-x="-8"
     inkscape:window-y="-8"
     inkscape:window-maximized="1"
     inkscape:current-layer="svg4" />
  <path
     style="fill:#000000;stroke:none"
     d="m 8.322132,9.794651 c 0,-0.6371013 -0.8428317,-0.6371013 -2.528495,0 1.6723907,0.663647 2.5152223,0.663647 2.528495,0 z M 5.01717,10.49148 c 0.4247347,0.876014 0.7532403,1.632571 0.985517,2.269672 0.232276,0.637101 0.3749597,1.280839 0.428051,1.931213 0.013273,0.809649 -0.136047,1.423522 -0.447961,1.84162 -0.311914,0.418097 -0.8594227,0.627146 -1.642526,0.627146 -0.7963767,0 -1.350522,-0.209049 -1.662436,-0.627146 C 2.365901,16.115887 2.2165807,15.502014 2.229854,14.692365 2.282945,14.041991 2.4256293,13.398253 2.657906,12.761152 2.890182,12.124051 3.3049613,11.294493 3.902244,10.272476 H 3.922153 C 3.0328663,9.728286 1.725482,9.5491013 0,9.734922 V 8.81909 C 1.6856633,8.6863607 2.9996843,8.759362 3.942063,9.038094 V 6.330414 C 4.061519,4.5651133 4.3236593,3.2411377 4.728484,2.358487 5.1333087,1.4758363 5.773728,0.84537167 6.649742,0.467093 7.525756,0.08881433 8.471453,-0.060506 9.486833,0.019132 c 1.015379,0.07963733 1.871484,0.36168733 2.568313,0.84615 0.696829,0.484462 1.237701,1.3306117 1.622617,2.538449 0.384915,1.2078373 0.498889,2.8899568 0.617191,5.03708 0.09289,1.685855 0.205674,3.437828 0.27204,4.526209 0.212367,1.446751 0.676976,3.132277 1.659174,4.393206 l -0.69683,0.617191 c -0.255504,-0.301959 -1.712994,-2.556628 -1.626795,-4.490189 -0.308111,1.193222 -1.091894,3.10122 -1.091894,3.10122 l -0.822343,-0.31935 c 0,0 1.290961,-2.885522 1.437327,-3.773089 0.32829,-1.990775 0.04972,-3.3052773 -0.03656,-5.389128 C 13.302802,5.0230297 12.957706,3.490005 12.353787,2.507807 11.749868,1.5256097 10.940219,0.97146467 9.924839,0.845372 8.9094597,0.71927933 7.8542613,0.93496467 6.759244,1.492428 5.6642267,2.0498913 5.076899,3.689099 4.997261,6.410051 v 2.70768 C 7.7314863,8.069169 9.1716,8.294809 9.317602,9.794651 9.1716,11.294493 7.7381227,11.526769 5.01717,10.49148 Z m -0.676919,5.614452 c 0.8627407,0 1.234383,-0.570736 1.114927,-1.712209 C 5.202992,12.9337 4.8313497,12.07096 4.340251,11.805501 3.835879,12.07096 3.4576003,12.9337 3.205415,14.393723 c -0.1194567,1.141473 0.258822,1.712209 1.134836,1.712209 z"
     id="path2"
     sodipodi:nodetypes="ccccscssscsccccccssssssccccccsssssccccscccs" />
</svg>
