<?xml version="1.0" encoding="UTF-8" standalone="no"?>
<svg
   width="888.28711"
   height="1795.9746"
   version="1.1"
   id="svg2569"
   xmlns="http://www.w3.org/2000/svg"
   xmlns:svg="http://www.w3.org/2000/svg">
  <defs
     id="defs2573" />
  <path
     id="path859"
     style="color:#000000;fill:#000000;stroke-width:0.96403"
     d="m 242.87891,0 55.45312,169.10547 c -3.16179,2.14337 -6.41753,4.19034 -9.44922,6.46484 -83.50816,60.3663 -108.19204,124.69902 -132.07617,211.19336 L 0,379.19336 12.808594,872.79688 205.60742,872.33594 c 44.35129,79.41858 115.73282,208.87536 162.81836,297.97076 H 178.46875 v 74.3496 h 194.99219 c -77.67784,144.1274 -167.17437,311.3426 -222.14063,414.3281 -32.09051,60.1251 -72.955076,135.6191 -72.955076,135.6191 l 100.998046,0.1621 c 0,0 139.97435,-262.6479 260.06641,-485.7265 105.52098,211.8802 235.36133,486.9355 235.36133,486.9355 l 92.59765,-0.072 c 0,0 -28.68059,-72.7698 -57.46289,-133.1661 -51.04131,-107.1037 -133.86477,-279.3252 -203.48828,-418.08 h 200.26367 v -74.3477 H 514.55078 c 49.76708,-91.669 125.0464,-227.14112 165.78516,-295.75 l 193.02734,0.46269 14.92383,-498.92578 -145.62891,6.45898 C 721.86628,313.95393 677.89341,229.01757 628.17578,184.71289 615.37302,173.63605 600.98956,163.94 585.48242,155.52344 L 642.61328,0 Z m 82.81836,60 H 556.65234 L 529.75,133.23633 c -22.07031,-5.90643 -45.77472,-9.28522 -70.94531,-9.53906 -38.96717,-0.39297 -74.61552,6.06569 -106.38867,17.7793 z m 132.13085,147.33399 c 48.54411,0.48956 81.3038,14.61475 109.02344,38.59765 27.71984,23.98291 49.58646,59.60321 65.29492,101.95117 31.41674,84.69593 36.95204,193.79207 35.15235,269.05469 -3.4273,143.33348 -72.56187,226.04856 -162.27149,385.9863 -15.05086,26.8332 -37.95545,68.7358 -63.34961,115.4434 -95.2236,-177.6385 -209.26564,-333.62007 -208.77734,-501.90431 0.2701,-93.12222 9.98219,-202.63115 44.22852,-282.53711 17.12317,-39.95299 39.81666,-71.91371 68.28711,-93.27343 28.47044,-21.35976 62.7817,-33.81887 112.4121,-33.31836 z m 370.94922,225.3789 -5.02148,387.11719 -112.66016,1.23438 c 27.16916,-65.33341 44.91749,-147.01765 46.18164,-202.26758 0.86036,-37.60194 1.39979,-152.3987 -13.80664,-183.09766 z m -768.236324,4.05664 86.337894,5.02344 c -9.47021,34.77626 -14.29931,125.3968 -14.34571,174.44531 2.6502,67.53558 21.4593,154.67562 40.67188,203.98243 l -110.669924,0.23437 z" />
</svg>
