<?xml version="1.0" encoding="UTF-8" standalone="no"?>
<svg
   width="783.13837"
   height="1798"
   version="1.1"
   id="svg900"
   xmlns="http://www.w3.org/2000/svg"
   xmlns:svg="http://www.w3.org/2000/svg">
  <defs
     id="defs904" />
  <path
     id="path898"
     style="fill:#000000;stroke:none;stroke-width:100"
     d="M 408.6516,0 C 279.48698,0 141.74529,134.06478 110.53246,376.37305 39.115324,375.57035 -0.23661726,389.86482 0.00107047,495.7867 0.2387582,601.70858 36.175949,604.16822 114.29027,605.20117 c 17.07257,126.62213 66.95979,200.27901 95.04297,322.52344 33.99991,148.66649 80.6517,288.94249 81.31836,424.27539 0.66667,135.333 15.20092,284.0006 -68.79883,446 l 382.37109,-2.4434 C 520.89079,1633.5571 525.6516,1487.333 525.6516,1352 c 0,-135.3329 39.42001,-280.7828 73.41992,-429.44922 C 626.906,803.71895 668.49447,716.8939 683.8059,595.26144 749.12675,594.82772 782.31518,593.00006 783.12504,488.31428 783.93491,383.6285 747.72043,379.49783 681.69457,377.89453 678.47626,188.74273 555.31783,0 408.6516,0 Z m 0,46 c 114.66632,0 233.08789,140.77753 233.08789,417.44336 0.25563,17.63681 1.48378,76.30056 0,95 0,98.66637 -55.66807,216.10786 -89.66797,364.10742 C 518.07161,1071.2172 478.6516,1195.3336 478.6516,1288 c -3.1473,36.413 -1.63993,80.9262 0,115 0,79.333 4.23085,242.2044 39.57226,339.5566 L 305.85277,1745 c 37.78494,-58.2557 29.79883,-262.667 29.79883,-342 0.76952,-34.7892 0.91606,-94.8545 0,-115 0,-92.6664 -46.31846,-211.6089 -80.31836,-360.27539 C 221.33332,779.72506 153.01488,657.10973 153.01488,558.44336 c -3.62476,-23.2141 1.80858,-78.14806 0,-95 C 153.01488,186.77753 291.98529,46 408.6516,46 Z m 0,64 c -79.33309,0 -199.63672,119.44405 -199.63672,353.44336 -0.82947,20.38837 -1.45007,77.1544 0,95 0,163.33285 112.99894,407.82491 192.33203,645.82424 77.99977,-237.99933 185.39258,-482.49139 185.39258,-645.82424 1.83657,-19.79789 2.20748,-77.19173 0,-95 C 586.73949,229.44405 486.65137,110 408.6516,110 Z m 0,44 c 46.66653,0 131.08789,108.44399 131.08789,320.44336 0,213.3327 -91.72605,430.82461 -138.39258,564.82424 C 352.68039,905.26797 255.01488,687.77606 255.01488,474.44336 256.34821,262.44399 361.31842,154 408.6516,154 Z" />
</svg>
