<?xml version="1.0" encoding="UTF-8" standalone="no"?>
<svg
   width="989.5697"
   height="1796.8888"
   version="1.1"
   id="svg1"
   xmlns="http://www.w3.org/2000/svg"
   xmlns:svg="http://www.w3.org/2000/svg">
  <defs
     id="defs1" />
  <path
     id="path1"
     style="fill:#000000;stroke:none;stroke-width:91.9955"
     d="M 108.89566,0 77.79456,1571.3753 H 0 v 225.5135 h 796.82652 v -225.5135 h -61.5592 L 690.30717,696.05596 c 103.56818,75.4544 126.16924,77.92217 183.34792,310.51264 40.4781,19.6257 79.1165,19.6257 115.9146,0 C 941.18773,737.94203 873.78643,696.51025 790.58057,658.33667 c 63.17,-26.98531 87.04536,-55.4475 129.97656,-116.16447 42.3179,-60.71699 32.11434,-127.62219 -26.76296,-169.94007 -58.2637,-41.70461 -110.0874,-34.95923 -155.4717,20.23803 -45.9978,55.19725 -41.8825,112.84728 -49.8556,172.95096 V 0 h -73.5963 L 408.29856,324.6671 182.49207,0 Z m 73.59641,109.47356 225.80649,317.30918 206.57201,-317.30918 v 468.8277 l -444.81894,6.22022 z m 644.8631,263.33235 c 16.8466,-0.91996 33.7809,4.71591 50.8,16.90529 45.9978,31.89175 60.99574,86.67179 18.06464,141.25575 -42.9313,54.58395 -60.86714,78.30567 -89.07914,94.25154 -28.8252,16.55919 -92.92471,23.44996 -192.2701,24.83918 l -444.81894,6.22022 v -25.75811 l 444.81894,-6.22022 c 93.82612,-1.31204 153.3256,-6.13413 178.4711,-18.40019 25.1452,-12.87935 39.40094,-32.00155 78.03884,-80.45247 38.0249,-47.83762 27.01296,-95.56449 -6.10544,-120.09661 -33.7316,-24.53211 -70.2221,-11.03918 -109.4736,40.47825 -39.2513,52.13075 -17.07096,103.56323 -22.59076,158.14717 h -19.319 c 5.5197,-54.58394 -14.20924,-110.61809 29.94856,-171.94837 27.5986,-37.94812 55.4371,-57.68817 83.5149,-59.22143 z m 1.1801,51.46012 c 5.4812,0.26832 10.6743,2.24362 15.5806,5.92344 19.6259,14.71927 28.18634,53.24495 -1.25226,92.49632 -29.4386,39.25138 -34.2168,54.30404 -76.5346,72.08983 4.2931,-45.9977 -23.71364,-87.00432 5.11146,-126.869 21.6191,-29.89853 40.6504,-44.44554 57.0948,-43.64059 z m -81.1921,242.3518 c 101.15888,53.82187 154.4439,68.51232 196.22832,314.19276 h -29.4381 C 855.11481,745.81032 822.84911,744.87505 721.58527,674.89685 Z m -577.29154,31.05723 444.81894,-6.22022 46.65165,879.92046 H 151.39097 Z M 77.31099,1643.8725 h 642.20443 v 85.6049 H 77.31099 Z" />
</svg>
