<?xml version="1.0" encoding="UTF-8" standalone="no"?>
<svg
   width="907.505"
   height="1799.9971"
   version="1.1"
   id="svg1"
   xmlns="http://www.w3.org/2000/svg"
   xmlns:svg="http://www.w3.org/2000/svg">
  <defs
     id="defs1" />
  <path
     id="path1"
     style="fill:#000000;stroke:none;stroke-width:74.6579"
     d="m 263.74937,0 78.27328,209.32938 C 263.26297,243.43641 215.86336,318.92969 199.69473,435.06258 L 0,372.75879 v 415.82608 l 206.80286,-77.32806 c 25.80342,122.68279 78.48156,205.82931 199.39827,415.89369 l -281.71672,612.5423 c 8.40623,26.1302 42.49781,43.3015 64.35415,52.2605 l 266.00508,-573.1987 290.80411,581.2425 c 22.41669,-8.959 56.50908,-26.1301 63.7945,-52.2603 L 511.29651,1121.6675 C 628.7155,943.14475 673.82811,825.97383 699.7636,703.7207 L 905.29529,781.95575 907.505,372.75879 711.46083,433.92238 C 694.87331,315.70895 645.79539,240.02758 564.1053,207.20461 L 628.75216,0 Z m 85.69494,59.447464 H 547.93144 L 506.58061,191.98048 c -16.0249,-2.39942 -32.72369,-3.91059 -50.57208,-3.91059 -20.0905,0 -38.90051,1.70198 -56.69801,4.74189 z M 456.75389,269.44801 c 120.94562,0 181.41927,88.09579 181.41927,264.28808 0,141.10307 -81.20664,347.04333 -182.16463,510.81091 C 363.57225,885.96294 275.33461,674.83916 275.33461,533.73609 c 0,-176.19229 60.47377,-264.28808 181.41928,-264.28808 z M 59.447463,453.57952 194.12153,495.59674 c -0.53289,11.9166 -0.91026,24.03806 -0.91026,36.64615 0,22.75792 1.4076,96.35591 3.96621,119.14615 L 59.447463,702.88992 Z m 788.610077,0 -4.41942,240.47157 -134.13524,-50.15642 c 2.65814,-23.23896 8.5528,-88.44646 8.5528,-111.65178 0,-13.00996 -0.36595,-25.54041 -0.9288,-37.81418 z" />
</svg>
