<?xml version="1.0" encoding="UTF-8" standalone="no"?>
<svg
   width="676.44434"
   height="1800"
   version="1.1"
   id="svg1"
   xmlns="http://www.w3.org/2000/svg"
   xmlns:svg="http://www.w3.org/2000/svg">
  <defs
     id="defs1" />
  <path
     id="path1"
     style="fill:#000000;stroke:none;stroke-width:101.173"
     d="M 305.8596,0.0077378 V 273.37177 c -13.61275,2.46444 -35.46927,7.36661 -53.89673,15.46809 C 199.10104,212.91701 106.35722,152.14595 50.765876,78.215807 L 0,114.41902 203.50135,325.18598 c -81.30315,70.92837 -75.61622,209.23524 18.61449,386.92745 -86.15375,129.23071 -89.51982,266.53813 -10.0968,411.92257 -92.88458,118.4615 -85.48007,266.5397 22.21218,444.2317 41.54291,78.9094 140.88114,159.7693 207.72842,203.9429 53.84613,36.3458 76.05959,37.0185 66.63653,2.0185 -37.6923,-87.4998 -137.0574,-156.826 -128.98048,-207.9798 84.80767,-154.8077 99.61663,-302.2131 44.42437,-442.2133 C 506.15542,986.72849 511.53873,851.44035 440.19258,718.17112 546.53871,547.20972 559.37419,413.10379 467.8123,323.63093 L 676.44434,114.41902 626.52002,75.212766 C 566.28769,146.11523 470.92064,215.88966 411.27457,287.28481 400.49198,281.47406 391.59756,276.46519 366.83542,273.40353 367.17539,182.60212 366.20045,91.792419 367.1391,0.99419579 346.72506,-0.1533246 326.29475,0.0077378 305.8596,0.0077378 Z M 337.21189,334.51631 c 65.96151,9.42307 108.36521,37.69222 127.21144,84.8076 18.84607,47.1154 -8.75063,148.07675 -82.78906,302.88435 60.57695,160.19225 52.50003,298.84834 -24.23074,415.96374 40.38459,133.2691 33.65451,269.9042 -20.19164,409.9042 4.03848,75.3831 61.07626,119.6315 47.6147,120.306 -13.46155,0.6732 -92.86443,-81.9608 -116.81025,-145.5668 -63.00911,-167.368 -58.68827,-268.2023 12.65781,-398.7794 C 217.40493,973.26694 222.11578,838.65117 294.8081,720.18967 219.42352,569.42051 191.82675,469.804 212.01904,421.34248 c 20.19229,-48.46153 61.92365,-77.4031 125.19285,-86.82617 z" />
</svg>
