<?xml version="1.0" encoding="UTF-8" standalone="no"?>
<svg
   width="18.235804"
   height="7.92"
   version="1.1"
   id="svg4"
   sodipodi:docname="US9V13VARA.svg"
   inkscape:version="1.2.1 (9c6d41e410, 2022-07-14)"
   xmlns:inkscape="http://www.inkscape.org/namespaces/inkscape"
   xmlns:sodipodi="http://sodipodi.sourceforge.net/DTD/sodipodi-0.dtd"
   xmlns="http://www.w3.org/2000/svg"
   xmlns:svg="http://www.w3.org/2000/svg">
  <defs
     id="defs8" />
  <sodipodi:namedview
     id="namedview6"
     pagecolor="#ffffff"
     bordercolor="#000000"
     borderopacity="0.25"
     inkscape:showpageshadow="2"
     inkscape:pageopacity="0.0"
     inkscape:pagecheckerboard="0"
     inkscape:deskcolor="#d1d1d1"
     showgrid="false"
     inkscape:zoom="28.774737"
     inkscape:cx="14.491879"
     inkscape:cy="3.9618085"
     inkscape:window-width="1920"
     inkscape:window-height="1017"
     inkscape:window-x="1072"
     inkscape:window-y="-8"
     inkscape:window-maximized="1"
     inkscape:current-layer="svg4" />
  <path
     id="path2"
     style="fill:#000000;stroke:none"
     d="M 16.919922,0.01953125 C 16.666689,0.02582257 16.45098,0.14456071 16.271484,0.375 c -0.28649,0.36780059 -0.603263,0.8837079 -0.579807,1.6933594 -0.203723,0.00328 -0.539579,0.00272 -0.920193,0.00977 H 3.9609375 C 2.8125386,1.5765255 1.8839337,1.3388344 1.1777344,1.3652344 0.47153508,1.3916343 0.07919992,1.8207453 0,2.6523438 0.10559989,3.5499436 0.49160379,3.9936687 1.1582031,3.9804688 1.8248025,3.9672688 2.7597387,3.7295784 3.9609375,3.2675781 H 15.404297 c 0.9372,0.079201 1.409417,0.5146421 1.416015,1.3066407 0.0066,0.7919992 -0.465616,1.2737139 -1.416015,1.4453124 H 3.9609375 C 2.8125386,5.5179325 1.8839337,5.2802414 1.1777344,5.3066406 0.47153508,5.3330406 0.07919992,5.7621495 0,6.59375 0.10559989,7.4913491 0.49160379,7.9331219 1.1582031,7.9199219 1.8248025,7.9067219 2.7597387,7.6690308 3.9609375,7.2070312 H 14.771484 c 1.412398,0.026401 2.378993,-0.3963776 2.900391,-1.2675781 0.521401,-0.8711991 0.648766,-1.59377 0.384766,-2.1679687 C 17.817123,3.2505344 17.551655,2.8526535 17.257812,2.5761719 17.571314,2.3390007 17.818301,2.1018972 17.996094,1.8652344 18.368172,1.3699564 18.299203,0.86002998 17.791016,0.3359375 17.464046,0.11808083 17.173155,0.01323993 16.919922,0.01953125 Z m 0.411929,0.71925152 c 0.313883,0.2522554 0.02054,0.74346933 -0.172647,0.94185913 -0.193202,0.198407 -0.511736,0.3912549 -0.704819,0.5387372 -0.231935,-0.084891 0.01004,-0.036144 -0.0801,-0.069618 0.04558,-0.4054729 -0.03135,-0.7273003 0.182129,-1.0116796 0.155476,-0.26290487 0.417089,-0.60661938 0.775437,-0.39929873 z M 1.2910156,2.015625 c 0.060431,-0.00289 0.1240595,-0.00104 0.1933594,0.00391 0.5543994,0.0396 1.1622663,0.2500136 1.8222656,0.6328126 C 2.6466413,3.0615433 2.0387744,3.283405 1.484375,3.3164062 0.92997555,3.3494055 0.66062814,3.127544 0.67382812,2.6523438 0.66227814,2.2480948 0.8679973,2.0358374 1.2910156,2.015625 Z m 0,3.9414062 c 0.060431,-0.00289 0.1240595,-0.003 0.1933594,0.00195 C 2.0387744,5.9985823 2.6466413,6.2109491 3.3066406,6.59375 2.6466413,7.0029496 2.0387744,7.2228587 1.484375,7.2558594 0.92997555,7.2888586 0.66062814,7.0689495 0.67382812,6.59375 0.66227814,6.1895004 0.8679973,5.9772432 1.2910156,5.9570312 Z"
     sodipodi:nodetypes="sscccscsccsccscsccsscscscsccccscccssccccsc" />
  <g
     id="g239"
     transform="matrix(-0.55168298,0.68019081,-0.66363856,-0.56544287,32.241497,-11.543901)" />
</svg>
