<?xml version="1.0" encoding="UTF-8" standalone="no"?>
<svg
   width="899.61328"
   height="1799.4191"
   version="1.1"
   id="svg2569"
   xmlns="http://www.w3.org/2000/svg"
   xmlns:svg="http://www.w3.org/2000/svg">
  <defs
     id="defs2573" />
  <path
     id="path859"
     style="color:#000000;fill:#000000"
     d="M 469.17188 0.01953125 C 401.47904 -0.71502202 343.39376 20.201712 299.25 55.837891 C 215.74175 120.79318 191.05798 190.01442 167.17383 283.08398 L 10.367188 274.93945 L 23.175781 806.06445 L 215.97461 805.56836 C 260.32594 891.02425 331.70738 1030.3232 378.79297 1126.1914 L 188.83594 1126.1914 L 188.83594 1206.1914 L 383.82812 1206.1914 C 306.1502 1361.2752 216.65381 1541.2033 161.6875 1652.0176 C 129.59696 1716.7134 88.732422 1797.9453 88.732422 1797.9453 L 189.73047 1798.1191 C 189.73047 1798.1191 329.7047 1515.5056 449.79688 1275.4688 C 555.31797 1503.4559 685.1582 1799.4199 685.1582 1799.4199 L 777.75586 1799.3418 C 777.75586 1799.3418 749.0753 1721.0403 720.29297 1656.0527 C 669.25161 1540.8072 586.42827 1355.4942 516.80469 1206.1914 L 717.06836 1206.1914 L 717.06836 1126.1914 L 524.91797 1126.1914 C 574.6851 1027.5539 649.96432 881.7854 690.70312 807.96094 L 883.73047 808.45898 L 898.6543 271.60547 L 753.02539 278.55469 C 732.23345 204.73961 688.26065 113.34651 638.54297 65.673828 C 596.06411 26.127644 537.95031 0.7658795 469.17188 0.01953125 z M 468.19531 90.015625 C 516.73946 90.5424 549.49908 105.74083 577.21875 131.54688 C 604.93862 157.35294 626.80519 195.68083 642.51367 241.24805 C 673.93044 332.38246 679.46571 449.77184 677.66602 530.75586 C 674.23872 684.98539 605.10424 773.98789 515.39453 946.08398 C 500.34365 974.95693 477.4391 1020.0445 452.04492 1070.3027 C 356.82122 879.16031 242.77928 711.32312 243.26758 530.24609 C 243.53768 430.04481 253.24973 312.21079 287.49609 226.23047 C 304.61928 183.2403 327.31273 148.85067 355.7832 125.86719 C 384.25367 102.88368 418.56486 89.47707 468.19531 90.015625 z M 839.14453 332.52734 L 834.12305 749.07227 L 721.46289 750.40039 C 748.63207 680.10041 766.38037 592.20584 767.64453 532.75586 C 768.50489 492.29546 769.04433 368.77289 753.83789 335.74023 L 839.14453 332.52734 z M 70.908203 336.89258 L 157.24609 342.29688 C 147.77587 379.71679 142.94679 477.22679 142.90039 530.00391 C 145.55059 602.67346 164.35967 696.43714 183.57227 749.49219 L 72.902344 749.74414 L 70.908203 336.89258 z " />
</svg>
