<?xml version="1.0" encoding="UTF-8" standalone="no"?>
<!-- Created with Inkscape (http://www.inkscape.org/) -->

<svg
   width="1798.1743"
   height="1066.3759"
   viewBox="0 0 1798.1744 1066.3759"
   version="1.1"
   id="svg1691"
   xmlns="http://www.w3.org/2000/svg"
   xmlns:svg="http://www.w3.org/2000/svg">
  <defs
     id="defs1688">
    <clipPath
       clipPathUnits="userSpaceOnUse"
       id="clipEmfPath1">
      <path
         d="M 0,0 H 124.43852 V 129.53846 H 0 Z"
         id="path1068" />
    </clipPath>
    <pattern
       id="EMFhbasepattern"
       patternUnits="userSpaceOnUse"
       width="6"
       height="6"
       x="0"
       y="0" />
  </defs>
  <path
     id="path3"
     style="color:#000000;fill:#000000;stroke-width:1.36244;stroke-linecap:round;stroke-linejoin:round;-inkscape-stroke:none"
     d="M 144.34062,0.04362733 C 102.01473,1.1049073 62.25829,21.507327 28.945775,58.748237 -37.679258,133.23007 21.626725,277.64649 96.615348,308.79036 359.00831,417.76598 1173.7911,246.48209 1454.0836,612.69133 c 84.0262,109.78246 159.1297,240.06881 212.8373,390.61067 53.6868,110.2468 160.1448,67.3347 109.2143,-61.8754 -63.7203,-161.65776 -63.4808,-211.8218 -161.6281,-368.79887 51.1976,21.79601 121.1446,84.43933 170.4404,31.11292 19.9996,-25.28496 17.005,-61.73995 -6.855,-83.42017 -114.7783,-103.93583 -230.029,-161.35213 -342.201,-203.46635 -142.2298,-57.8177 -738.19337,-111.45168 -1095.06432,-115.2334 0,0 21.50344,-64.00156 -65.67648,-144.240253 C 231.56075,17.261127 186.66649,-1.0176627 144.34062,0.04362733 Z M 129.35874,99.600067 c 16.48832,-6.88565 37.16432,-10.705555 62.21641,3.785943 29.8748,17.28121 82.25897,55.9396 50.17417,94.03049 -13.09959,3.40492 -99.81237,4.52339 -121.84755,-40.64153 -10.17094,-20.84709 -1.37285,-52.65227 9.45697,-57.174903 z" />
</svg>
