<?xml version="1.0" encoding="UTF-8" standalone="no"?>
<!-- Created with Inkscape (http://www.inkscape.org/) -->

<svg
   width="1260.2043"
   height="1408.576"
   viewBox="0 0 1260.2043 1408.5761"
   version="1.1"
   id="svg570"
   xml:space="preserve"
   xmlns="http://www.w3.org/2000/svg"
   xmlns:svg="http://www.w3.org/2000/svg"><defs
     id="defs567" /><path
     id="path705"
     style="color:#000000;fill:#000000;-inkscape-stroke:none"
     d="m 1108.0106,0.009606 c -133.73086,4.05545 -244.76196,89.57973 -339.76756,175.664064 -23.2568,32.3361 -91.97721,60.84268 -105.7988,93.94336 C 565.24018,198.95116 468.15418,128.0987 369.80362,59.214676 313.13839,26.360616 248.81088,2.830196 182.66104,2.683426 86.40071,-2.700924 -16.54149,79.468366 2.23526,182.34554 c 18.83257,106.39612 100.48877,188.8025 191.13671,240.89453 51.64349,34.686 103.04116,69.73774 154.37696,104.87696 -118.61842,134.6369 -206.25427,313.3225 -187.98633,496.62887 40.14299,206.2683 235.69,364.225 442.9668,377.75 120.07339,7.7787 248.59764,18.1847 358.86914,-40.5137 126.86466,-64.7385 249.03006,-170.1785 283.30656,-313.9472 30.1936,-157.01457 -31.9735,-322.39317 -136.5488,-439.48437 -35.3004,-32.80579 -72.5234,-63.34097 -110.60936,-92.83985 66.87736,-66.64217 135.06206,-132.18926 207.55076,-192.40235 68.8147,-81.09712 79.679,-224.092804 -6.3281,-297.166014 -26.0192,-19.26551 -59.0614,-26.44315 -90.959,-26.13281 z m -2.9414,67.55468 c 57.4038,0.17994 98.1883,60.493394 83.543,121.078134 -2.0924,68.05369 -58.8392,108.51415 -106.0235,148.12304 -48.0784,44.36395 -94.74976,90.21758 -141.15426,136.32422 -56.3787,-41.62277 -113.8179,-81.94301 -169.5898,-124.13281 -16.8836,-12.12847 -33.655,-24.43405 -50.50001,-36.62305 2.93811,-3.44213 5.93741,-7.62027 9.03121,-12.92187 106.8928,-83.92983 201.5718,-197.97705 341.33786,-225.380864 11.5238,-4.47123 22.7252,-6.50012 33.3555,-6.4668 z m -930.47652,4.8418 c 122.8246,-2.78496 214.39103,89.046334 308.45117,154.109374 189.44268,138.95728 384.23039,271.29994 565.51555,420.90037 101.1497,108.477 164.3249,271.0818 118.7832,417.67777 -57.6814,130.3491 -182.74806,226.327 -318.93936,263.5195 -93.816,16.4801 -191.20354,10.9583 -285.30666,-1.5801 C 398.98613,1299.7827 255.3119,1162.6864 227.15518,997.93933 222.86076,813.32043 324.6468,640.32043 457.12588,518.17367 358.58827,449.00011 256.6879,384.32555 159.32315,313.74593 112.03591,266.81013 55.95515,201.86373 75.75088,130.37875 93.28527,93.628966 135.22056,73.514256 174.59268,72.406086 Z" /></svg>
