<?xml version="1.0" encoding="UTF-8" standalone="no"?>
<!-- Created with Inkscape (http://www.inkscape.org/) -->

<svg
   width="1791.8625"
   height="1043.8409"
   viewBox="0 0 1791.8625 1043.8409"
   version="1.1"
   id="svg5"
   inkscape:version="1.2.2 (732a01da63, 2022-12-09)"
   xml:space="preserve"
   sodipodi:docname="US9V12VARA.svg"
   xmlns:inkscape="http://www.inkscape.org/namespaces/inkscape"
   xmlns:sodipodi="http://sodipodi.sourceforge.net/DTD/sodipodi-0.dtd"
   xmlns="http://www.w3.org/2000/svg"
   xmlns:svg="http://www.w3.org/2000/svg"><sodipodi:namedview
     id="namedview7"
     pagecolor="#ffffff"
     bordercolor="#666666"
     borderopacity="1.0"
     inkscape:showpageshadow="2"
     inkscape:pageopacity="0.0"
     inkscape:pagecheckerboard="0"
     inkscape:deskcolor="#d1d1d1"
     inkscape:document-units="px"
     showgrid="false"
     inkscape:zoom="0.38254353"
     inkscape:cx="866.56806"
     inkscape:cy="572.48387"
     inkscape:window-width="1920"
     inkscape:window-height="1137"
     inkscape:window-x="-8"
     inkscape:window-y="-8"
     inkscape:window-maximized="1"
     inkscape:current-layer="svg5" /><defs
     id="defs2" /><path
     id="path189"
     style="fill:#000000;stroke:none;stroke-width:81.3642"
     d="M 258.21312,0.0208595 C 208.12593,0.3878574 159.60931,5.5986212 112.66566,15.657231 37.555795,31.750996 0,86.743156 0,180.63185 c 0,92.54886 37.555795,147.20326 112.66566,163.96423 75.10984,16.76643 154.24439,20.45652 237.40169,11.06713 83.15784,-9.38939 175.03348,-50.96685 275.62656,-124.73136 6.18015,-3.09021 -6.62251,1.96439 5.87403,0.0612 52.08701,86.44311 92.3389,129.24572 115.2771,203.8671 57.1164,185.80818 26.73643,431.08 47.66397,581.21494 l 75.52453,-16.59476 c -32.4175,-188.74074 9.3376,-430.91741 -60.96009,-629.75678 -20.2494,-57.2761 -66.16507,-90.72738 -100.35765,-152.13037 102.92486,-0.54308 254.41443,6.08884 374.7608,42.44862 99.3787,30.02491 218.6799,56.35183 277.1055,142.16603 120.9559,177.65733 29.3522,524.27357 63.5535,641.63306 l 92.2211,-21.9236 c -52.9792,-147.53722 53.6947,-469.47648 -64.7084,-653.64661 -52.9289,-82.32832 -229.8356,-139.72447 -253.8237,-147.60849 -2.0476,-1.99019 -1.967,-2.13968 -5.123,-5.08513 36.2137,-14.7703 289.4252,13.05667 378.6521,109.50191 163.379,176.59622 42.7944,480.13602 146.0704,706.80522 l 74.4384,-44.23045 C 1722.1178,857.55258 1827.1243,468.75967 1662.3608,306.84441 1412.2672,61.074149 964.25424,182.23224 625.69391,128.32289 525.10083,54.552834 433.22519,13.309338 350.06735,4.5925139 318.88336,1.3237327 288.26544,-0.1993365 258.21312,0.0208595 Z M 244.69457,73.98365 c 41.07578,-0.671263 84.24668,4.02312 129.51356,14.081715 72.4091,16.089695 134.09249,46.926935 185.0525,92.509695 -50.95991,44.24342 -112.64362,74.41109 -185.0525,90.50071 -72.42702,16.11547 -139.48798,18.47621 -201.18579,7.07991 -61.69726,-11.40183 -92.547557,-43.92915 -92.547557,-97.58062 0,-54.99128 30.850297,-88.187854 92.547557,-99.589598 23.13667,-4.2655 47.02676,-6.599062 71.67223,-7.001812 z"
     sodipodi:nodetypes="ssscsccaccacaaccaccaccacsssccccscs" /></svg>
