<?xml version="1.0" encoding="UTF-8" standalone="no"?>
<svg
   width="1800.9141"
   height="1399.918"
   version="1.1"
   id="svg2538"
   xmlns="http://www.w3.org/2000/svg"
   xmlns:svg="http://www.w3.org/2000/svg">
  <defs
     id="defs2542" />
  <path
     id="path2536"
     style="fill:#000000;stroke:none;stroke-width:106.075"
     d="m 1714.5645,0 -96.4864,165.19922 c -42.795,-13.79562 -93.0085,-20.00752 -150.8867,-18.38476 H 394.78516 C 280.86686,97.056987 188.88131,73.488587 118.82812,76.107417 48.774939,78.726257 9.1658215,121.2809 0,203.77344 c 11.784658,89.03959 50.412535,133.23288 115.88281,132.57812 65.47028,-0.65462 157.78356,-24.55082 276.93946,-71.68945 H 1530.043 c 92.9677,7.85644 139.7789,51.39427 140.4336,130.61328 0.6547,79.21894 -46.1565,126.68361 -140.4336,142.39649 H 394.78516 C 280.86686,489.22393 188.88131,465.98312 118.82812,467.94727 48.774939,469.91134 9.1658215,512.79378 0,596.5957 c 11.784658,87.73022 50.412535,131.26798 115.88281,130.61329 65.47028,-0.65477 157.78356,-23.89746 276.93946,-69.72657 H 866.17188 C 703.80564,873.53428 567.6268,1063.4004 457.63672,1227.0762 c -53.68562,41.901 -98.86008,67.4339 -135.52344,76.5996 -15.7128,9.1659 -67.43385,17.0214 -155.16406,23.5683 -75.945482,5.2376 -113.91797,18.3327 -113.91797,39.2832 l 1.962891,1.9649 c 0,14.4038 83.148899,24.2237 249.443359,29.4609 19.64109,-7.8564 44.52034,-11.7851 74.63672,-11.7851 48.44794,6.5469 79.21846,9.8203 92.3125,9.8203 h 1.96289 c 27.49747,0 47.79456,-7.8555 60.88867,-23.5684 13.09404,0 22.91389,-30.7724 29.46094,-92.3144 0,-15.713 50.7398,-80.855 152.21875,-195.4278 101.47873,-114.57308 159.42059,-199.35848 173.82422,-254.35348 0,-14.40343 28.15271,-24.8788 84.45703,-31.42578 14.40356,0 59.25018,44.19343 134.54098,132.57812 75.2908,88.38484 152.2188,197.39394 230.7832,327.02534 0,5.2378 -9.8217,9.1646 -29.4629,11.7832 -47.1386,31.4257 -85.7645,49.103 -115.8808,53.0313 -100.824,17.0222 -151.2363,36.0085 -151.2363,56.959 v 3.9297 c 0,7.8563 57.6143,13.094 172.8418,15.7129 l 129.6308,-11.7852 135.5235,11.7852 c 30.1163,-3.9282 45.1738,-16.3679 45.1738,-37.3184 0,-22.2599 -10.4755,-47.7947 -31.4258,-76.6016 -41.901,-52.3762 -84.4555,-121.119 -127.666,-206.2304 -92.9679,-193.79197 -185.2812,-312.29344 -276.9395,-355.50393 -37.9727,-43.21034 -66.7807,-66.12537 -86.4218,-68.74414 h 463.5312 c 140.1063,1.30938 236.0189,-40.91948 287.7402,-126.68554 51.7215,-85.76614 51.7215,-171.86057 0,-258.28126 -13.329,-22.27133 -29.6487,-41.48296 -48.8476,-57.7539 L 1800.9141,50.433597 Z M 129.96875,140.61524 c 5.99462,-0.28644 12.42836,-0.18439 19.30273,0.30664 54.99508,3.92822 114.57356,24.87882 178.73438,62.85156 -65.47028,40.59158 -125.37454,62.5253 -179.71484,65.79883 -54.340315,3.27353 -80.856262,-18.6602 -79.546879,-65.79883 -1.14571,-40.10053 19.262273,-61.15318 61.224609,-63.1582 z m 0,390.88867 c 5.99462,-0.3069 12.42836,-0.21563 19.30273,0.27539 54.99508,3.92822 114.57356,25.53421 178.73438,64.8164 -65.47028,39.28227 -125.37454,60.56053 -179.71484,63.83399 -54.340315,3.27352 -80.856262,-18.00474 -79.546879,-63.83399 -1.14571,-41.24624 19.262273,-62.9435 61.224609,-65.09179 z" />
</svg>
