<?xml version="1.0" encoding="UTF-8" standalone="no"?>
<!-- Created with Inkscape (http://www.inkscape.org/) -->

<svg
   width="1249.5129"
   height="1797.52"
   viewBox="0 0 1249.5129 1797.52"
   version="1.1"
   id="svg10448"
   xmlns="http://www.w3.org/2000/svg"
   xmlns:svg="http://www.w3.org/2000/svg">
  <defs
     id="defs10445" />
  <path
     id="path356"
     style="color:#000000;fill:#000000;stroke-width:1.00768;stroke-linecap:square;-inkscape-stroke:none"
     d="M 601.9273,0.04818864 C 472.55446,1.6654353 377.4743,43.943398 308.14119,98.499758 234.18587,156.69322 189.01265,228.28865 158.14242,277.82754 123.73551,333.04189 87.988253,422.01102 73.002071,500.68532 61.007297,563.65543 55.324815,608.95631 53.007885,628.38522 c -8.821709,2.40582 -7.202363,8.89397 -14.37334,14.70509 -11.384433,9.22557 -17.773388,24.1729 -16.875383,44.73135 l 0.02166,-3.52492 C 16.465292,778.53711 -2.7724386,1127.331 0.33809996,1262.8136 4.6303053,1449.7656 92.312118,1620.583 202.81891,1699.9502 c 102.73419,73.7848 242.69665,97.5698 423.63913,97.5698 184.05004,0 349.94096,-46.1728 441.97426,-121.6873 86.8031,-71.2229 164.5299,-233.4804 178.4539,-413.1706 10.3713,-133.8437 -12.7563,-484.07453 -21.0589,-577.44034 -2e-4,-0.003 0,-0.005 0,-0.008 -1.543,-20.81318 -13.6325,-34.29569 -24.3045,-42.38753 -5.4765,-4.15253 -3.8246,-7.81644 -9.8034,-10.26574 -3.8092,-34.7069 -32.2969,-211.29159 -110.7856,-365.25075 C 1037.8101,182.72068 988.66922,116.81388 917.43961,71.925932 846.21,27.038166 754.46314,3.9766413 628.26084,0.27452378 619.3286,0.0124966 610.55217,-0.05963318 601.9273,0.04818864 Z m 0.49991,41.84826836 c 8.04078,-0.0919 16.24285,-0.01905 24.60748,0.226335 121.71925,3.570605 205.08138,25.518079 268.08439,65.221718 63.00301,39.70364 107.21922,97.97235 148.51672,178.97943 65.9935,129.44905 97.744,285.04337 105.2414,341.11364 l -44.2179,0.0413 C 1100.4957,590.6038 1074.64,443.75968 1010.1856,314.6295 973.61639,241.36555 931.96805,184.29455 871.49371,145.37066 811.01937,106.44677 733.0666,86.432703 625.94237,83.223139 618.35704,82.995867 610.90321,82.932655 603.57857,83.026329 493.70902,84.431348 412.93018,121.11957 354.09299,168.40561 291.33332,218.84404 253.04116,280.84376 226.85364,323.76555 197.70815,371.5354 165.22746,448.36582 152.5183,516.511 c -10.00493,53.64541 -14.77216,92.08953 -16.83339,109.63053 l -40.173387,-0.0729 c 2.8664,-23.06569 8.114387,-62.41435 18.616507,-117.54831 14.63986,-76.85619 52.379,-164.95696 79.54498,-208.55147 30.70267,-49.27 73.02292,-115.58471 140.3569,-168.56803 63.12562,-49.671849 147.78564,-88.126521 268.3973,-89.504464 z m 1.59024,77.008833 c 6.81357,-0.0793 13.762,-0.0175 20.85033,0.19484 103.19879,3.09196 173.79935,22.08047 227.20047,56.45176 53.40112,34.37129 90.95244,84.88971 126.00138,155.10803 58.01977,116.23855 84.79227,252.28335 90.26007,295.97663 l -896.44504,-0.74102 c 2.39919,-19.79398 6.88901,-54.38947 15.9182,-102.8031 12.42391,-66.61569 46.60107,-142.78764 69.69057,-180.63164 26.04737,-42.69208 61.98117,-100.18653 119.08344,-146.07825 53.53338,-43.02348 125.23719,-76.28708 227.44058,-77.47725 z M 91.676846,698.15432 1156.2441,700.1008 c 1.3146,15.64113 3.2292,45.33822 4.9952,71.37606 L 87.872448,769.5658 c 1.369035,-25.85977 2.903995,-55.31843 3.804398,-71.41148 z m -5.951614,111.7128 1078.334368,1.92287 c 8.9513,144.31128 19.0514,360.86891 12.4996,445.42241 -12.4999,161.3113 -93.7784,315.6039 -152.8703,364.0895 -69.19254,56.7732 -225.75728,105.6805 -397.23088,105.6805 -174.58109,0 -298.92719,-24.3076 -382.49152,-84.3243 C 159.69625,1582.1342 74.643598,1426.0794 70.858004,1261.1938 68.72675,1168.3649 78.380339,953.89889 85.725232,809.86712 Z" />
</svg>
