<?xml version="1.0" encoding="UTF-8" standalone="no"?>
<svg
   width="759.25366"
   height="1800.049"
   version="1.1"
   id="svg8433"
   xmlns="http://www.w3.org/2000/svg"
   xmlns:svg="http://www.w3.org/2000/svg">
  <defs
     id="defs8437" />
  <path
     id="path8431"
     style="fill:#000000;stroke:none;stroke-width:87.1868"
     d="M 25.610708,168.38028 0,219.58181 255.53993,378.82443 c -32.80336,39.31576 -55.35794,117.2685 -57.2904,125.41605 -17.54924,73.99041 -1.95974,175.24714 38.88641,244.54326 14.57577,24.72802 17.42638,33.77004 18.88225,59.28329 1.39773,24.49443 -0.26117,34.27798 -11.97011,58.16858 -21.95433,45.70377 -30.73621,100.75646 -32.93165,156.84749 -2.92722,269.0287 109.04041,448.7297 227.59376,605.5765 67.32657,89.33 202.71319,171.3896 268.57617,171.3896 3.65903,0 7.31884,0 10.24609,-1.0387 60.74028,-10.3873 46.8353,-27.0069 10.97656,-64.401 -35.85871,-38.4328 -160.26751,-142.3056 -209.29882,-246.1777 -49.03134,-103.8722 -61.95618,-169.9075 -2.67952,-303.9028 24.88155,-56.0908 11.93207,-164.1103 -12.21766,-242.01429 -13.90441,-41.54887 -21.44803,-87.95545 -24.14912,-128.96769 -2.40137,-36.46156 16.31535,-51.04405 32.45826,-81.78293 35.89142,-68.34345 42.60683,-154.60351 25.18566,-237.63083 -0.78395,-3.73622 -11.77912,-77.76981 -61.44162,-123.76142 64.03528,-74.44409 143.71383,-109.68967 264.06504,-169.11271 L 711.16199,150.0576 c -135.39168,67.52917 -237.29912,138.56676 -282.54928,186.32858 -10.33637,-5.46255 -16.91095,-7.00393 -31.83605,-11.91966 -0.36425,-7.86232 4.97545,-98.5184 17.78557,-171.30399 C 421.50749,113.70036 455.32414,40.613493 461.4664,9.9436185 456.46972,6.3575906 423.50539,0 421.80936,0 418.156,0.07007234 375.68251,86.946616 367.55893,152.56984 c -7.03252,56.80948 -16.53991,172.1844 -20.54946,171.71073 -11.38223,-1.34466 -35.43389,0.96982 -54.3589,15.3856 z M 369.92112,381.15116 c 37.32237,0 68.78957,18.69717 95.13477,57.12987 26.34517,37.39396 40.25,83.09812 40.25,135.03421 0,51.93608 -13.90483,97.64023 -40.25,133.99549 -28.07074,42.01909 -38.57606,45.34734 -35.28563,130.56617 3.29043,85.21884 77.27733,187.5182 46.51041,310.2968 -68.05839,154.7696 -52.9375,259.2378 3.41194,377.6521 30.73605,65.4394 93.67143,138.1505 137.58008,185.9317 -46.8359,-27.0068 -109.03899,-84.1366 -146.36133,-132.9567 -119.28513,-178.66 -216.07356,-299.0333 -211.49414,-551.5628 3.10652,-141.8612 42.63055,-127.74004 43.60518,-199.70902 0.97464,-71.96898 -3.45183,-88.93909 -26.04268,-120.21825 -26.3452,-36.35526 -40.25,-82.05941 -40.25,-133.99549 0,-51.93609 13.9048,-97.64025 40.25,-135.03421 26.34518,-38.4327 57.0827,-57.12987 92.9414,-57.12987 z" />
</svg>
