<?xml version="1.0" encoding="UTF-8" standalone="no"?>
<svg
   width="1091.9698"
   height="1798.4023"
   version="1.1"
   id="svg1"
   xmlns="http://www.w3.org/2000/svg"
   xmlns:svg="http://www.w3.org/2000/svg">
  <defs
     id="defs1" />
  <path
     id="path1"
     style="fill:#000000;stroke:none;stroke-width:92.4359"
     d="m 754.67687,0 2.82618,134.17188 -90.73829,2.23437 c -39.42724,0.97041 -59.16015,16.94482 -59.16015,50.83789 0,33.89304 19.72097,50.83984 59.16015,50.83984 h 79.49415 c 20.95203,40.05542 31.42773,79.80301 31.42773,119.24219 -80.72708,9.24355 -126.32865,37.90029 -136.80469,85.9668 -4.92987,22.18454 -13.55806,12.32405 -25.88281,-29.58008 -12.32475,-41.90414 -70.55904,-62.85547 -174.70312,-62.85547 -14.78971,-2.46495 -29.88899,3.69661 -45.29493,18.48633 -15.40592,15.40591 -34.50979,23.10742 -57.31054,23.10742 -22.8008,0 -41.90265,8.9377 -57.3086,26.8086 -14.78967,18.48712 -18.17903,37.58899 -10.16797,57.30859 7.39489,19.10334 4.93022,38.82433 -7.39453,59.16016 -12.32475,20.33583 -29.58107,31.73622 -51.76562,34.20117 -21.56829,2.46495 -37.89797,14.17294 -48.99024,35.125 -11.09228,20.95207 -12.32457,40.05592 -3.69726,57.31054 9.24356,17.8709 9.24356,37.59185 0,59.16016 -8.62731,21.56831 -23.72664,35.43334 -45.29492,41.5957 -21.568325,6.77861 -35.740929,21.25883 -42.51954,43.44336 -6.16237,22.18453 -2.155875,40.9808 12.017578,56.38672 14.173449,15.40593 18.177992,34.20217 12.015626,56.38672 -6.778608,22.18458 -20.336047,38.2067 -40.671876,48.06641 -19.71959,9.85983 -31.119985,27.42348 -34.201171,52.6895 -2.46495,25.2654 5.546086,44.677 24.033203,58.2343 17.870877,13.5573 26.191459,31.7343 24.958984,54.5352 -1.232475,22.8008 -11.402506,39.7494 -30.505859,50.8418 -18.487117,11.0922 -27.728516,28.3447 -27.728516,51.7617 0,22.1845 9.241399,39.1316 27.728516,50.8398 19.103353,11.7086 29.273384,30.8122 30.505859,57.3106 1.232475,25.882 -7.088107,44.9858 -24.958984,57.3105 -18.487117,12.3248 -26.498153,31.1208 -24.033203,56.3868 3.081186,25.2654 14.481581,43.1354 34.201171,53.6113 20.335829,10.4763 29.888725,27.4247 28.65625,50.8418 -1.232472,23.417 -16.024184,45.6006 -44.371093,66.5527 -27.730676,20.9522 -40.3614334,44.0626 -37.89648476,69.3281 3.08118596,25.2657 12.63212976,42.2107 28.65429676,50.8379 16.022166,8.6274 26.805426,24.0363 32.351563,46.2207 h 84.11719 c -3.0812,-22.1844 -14.17399,-38.5161 -33.27734,-48.9922 -19.719602,-10.4758 -30.812401,-28.3477 -33.27735,-53.6132 -2.46495,-25.8821 10.169721,-47.4485 37.90039,-64.7032 27.73069,-17.8707 41.90329,-39.7489 42.51954,-65.6308 1.23245,-25.8821 -8.01284,-44.3688 -27.73243,-55.461 -19.71959,-11.092 -30.81043,-29.2732 -33.275391,-54.539 -2.464951,-25.2658 4.928931,-44.0601 22.183601,-56.3848 17.87086,-12.941 26.49906,-31.4273 25.88281,-55.4609 -0.61623,-24.0331 -10.47476,-41.9067 -29.57813,-53.6153 -19.10335,-11.7082 -28.963839,-28.9631 -29.580078,-51.7636 -0.616235,-22.8008 8.93471,-39.7457 28.654298,-50.8379 19.71959,-11.0924 29.88768,-26.8067 30.50391,-47.1426 0.61625,-20.9521 -8.01195,-37.8991 -25.88281,-50.8398 -17.25467,-12.9411 -24.958095,-32.6619 -23.109382,-59.1602 1.848712,-25.882 12.943462,-43.75356 33.279302,-53.61328 20.33582,-9.85983 33.58374,-23.72487 39.74609,-41.5957 6.77864,-18.48713 2.46453,-35.4339 -12.9414,-50.83985 -14.78971,-15.40591 -18.48663,-34.50977 -11.0918,-57.31055 6.77862,-22.80075 20.6456,-37.281 41.59766,-43.44335 20.95205,-5.54615 35.12468,-17.25413 42.51953,-35.125 6.77862,-17.25467 4.62156,-34.81859 -6.47071,-52.68946 -11.09227,-17.87087 -9.85997,-37.28231 3.69727,-58.23437 14.17346,-21.56832 32.04497,-33.58586 53.61328,-36.05078 22.18454,-3.0812 38.51614,-12.6341 48.99219,-28.65625 10.47603,-16.02219 12.01399,-33.58414 4.61914,-52.6875 -8.01108,-19.10335 -1.23043,-39.4395 20.33789,-61.00782 21.5683,-20.95204 38.20751,-29.58026 49.91602,-25.88281 11.70851,3.69742 23.4165,3.69742 35.125,0 67.16986,0 104.14327,29.27389 110.92187,87.81641 6.77859,58.54253 34.20109,87.8125 82.26758,87.8125 6.16236,46.83402 30.19547,147.59011 72.09961,302.26562 20.7845,77.02497 36.86058,147.89469 46.10937,212.99999 4.32367,31.8237 -3.15919,89.0283 -25.5,104.0274 -14.32432,8.6458 -33.33161,13.9052 -54.79883,17.9492 -0.2264,20.4545 0.9724,40.5071 1.2754,59.4219 h 86.31445 c -41.17261,9.1621 -79.33513,32.559 -114.40821,70.5546 -45.60154,51.1478 -68.40039,108.4591 -68.40039,171.9317 0,70.2509 27.11295,130.0273 81.3418,179.3261 54.22888,49.9153 113.08225,74.8711 176.55469,74.8711 75.79719,0 137.72864,-26.1899 185.79484,-78.5703 48.0668,-51.7638 72.1016,-110.3058 72.1016,-175.6269 0,-58.5428 -24.0348,-115.2369 -72.1016,-170.0821 -33.89277,-38.8228 -73.0234,-62.8562 -117.3925,-72.0996 -0.19227,-0.1311 -0.28277,-0.1753 -0.47265,-0.3046 h 97.55859 c 0.042,-21.5688 -0.0115,-40.5854 1.08976,-60.3204 -19.61342,-3.9316 -37.01567,-9.0146 -50.32999,-17.0507 -35.77047,-37.7117 -38.6311,-75.9658 -29.97657,-111.1289 16.84871,-68.4558 28.6029,-147.07815 51.45703,-232.70513 46.21773,-173.16265 69.32613,-285.01153 69.32613,-335.54297 0,-120.16624 -49.29846,-182.71462 -147.89644,-187.64453 0,-39.43918 11.09282,-79.18677 33.27735,-119.24219 h 77.64449 c 40.6718,0 60.7001,-16.9468 60.084,-50.83984 -1.2326,-33.89307 -21.2609,-50.83789 -60.084,-50.83789 L 920.40734,134.17188 924.79016,0 Z m 46.85743,40.9375 h 76.32226 l 1.23047,93.23438 H 798.81359 Z M 666.76476,173.37891 h 337.38864 c 14.1735,0 21.2617,4.00454 21.2617,12.01562 0,7.39484 -7.0882,11.0918 -21.2617,11.0918 H 666.76476 c -14.78968,0 -22.1875,-3.69696 -22.1875,-11.0918 0,-8.01108 7.39782,-12.01562 22.1875,-12.01562 z m 124.78711,64.70507 h 87.81446 c -15.40596,38.82298 -23.10938,77.02868 -23.10938,114.61914 -14.78968,-1.23245 -28.65471,-1.23245 -41.5957,0 0,-37.59046 -7.70344,-75.79616 -23.10938,-114.61914 z M 470.79992,382.28516 c 77.02963,0 118.6267,21.8741 124.78906,65.62695 5.54616,43.75284 16.94651,65.63086 34.20118,65.63086 v 52.68945 c -27.7307,0 -45.91174,-27.11684 -54.53907,-81.3457 -8.01108,-54.22889 -42.82744,-81.3418 -104.45117,-81.3418 z m 365.12305,12.01562 c 105.99278,0 158.98828,41.59507 158.98828,124.78711 0,72.71599 -23.10837,194.42538 -69.32617,365.12305 -21.58359,79.71537 -41.93848,151.40316 -49.54492,216.84376 -5.0575,43.5113 -1.40451,122.0939 50.80666,157.8242 0.7574,0 0.91036,0.7578 1.28906,0.7578 H 749.72961 c 0.7575,0 0.75654,-0.7578 1.21094,-0.7578 36.68709,-44.8145 53.23629,-92.2604 46.70117,-141.4961 -10.3474,-69.1821 -28.88516,-146.6684 -52.30664,-233.17186 -46.21774,-170.6977 -69.32813,-292.40706 -69.32813,-365.12305 0,-83.19204 53.30696,-124.78711 159.91602,-124.78711 z m 0.22851,936.37502 c 30.65782,0 62.01035,6.7807 94.05469,20.3379 l -91.51172,91.5117 -92.43554,-91.5117 c 29.27126,-13.5572 59.23477,-20.3379 89.89257,-20.3379 z m -125.01757,48.0683 124.78906,124.7891 125.71094,-124.7891 c 17.87082,7.395 32.66071,22.1846 44.36909,44.3692 l -124.78706,124.7871 122.93746,122.9414 c -10.47603,19.7197 -25.26382,34.817 -44.36715,45.293 l -123.86328,-122.9375 -121.0918,121.0879 c -20.33582,-12.9411 -34.5104,-28.6535 -42.52148,-47.1407 L 791.55187,1547.9004 664.91516,1421.2656 c 8.62731,-20.9521 24.03421,-35.1265 46.21875,-42.5215 z m -73.94922,72.0997 91.50976,91.5117 -91.50976,91.5117 c -25.88197,-63.4723 -25.88197,-124.481 0,-183.0234 z m 396.55071,3.6972 c 25.8821,63.4727 25.8821,124.7906 0,183.9492 l -91.51165,-92.4375 z m -195.04095,195.041 91.51172,91.5118 c -59.77503,27.7304 -121.09109,27.7304 -183.94726,0 z" />
</svg>
