<?xml version="1.0" encoding="UTF-8" standalone="no"?>
<svg
   width="10"
   height="9.3199997"
   version="1.1"
   id="svg4"
   sodipodi:docname="US9W11VARA.svg"
   inkscape:version="1.2.1 (9c6d41e410, 2022-07-14)"
   xmlns:inkscape="http://www.inkscape.org/namespaces/inkscape"
   xmlns:sodipodi="http://sodipodi.sourceforge.net/DTD/sodipodi-0.dtd"
   xmlns="http://www.w3.org/2000/svg"
   xmlns:svg="http://www.w3.org/2000/svg">
  <defs
     id="defs8" />
  <sodipodi:namedview
     id="namedview6"
     pagecolor="#ffffff"
     bordercolor="#000000"
     borderopacity="0.25"
     inkscape:showpageshadow="2"
     inkscape:pageopacity="0.0"
     inkscape:pagecheckerboard="0"
     inkscape:deskcolor="#d1d1d1"
     showgrid="false"
     inkscape:zoom="37.597813"
     inkscape:cx="4.8274084"
     inkscape:cy="4.4417477"
     inkscape:window-width="1920"
     inkscape:window-height="1137"
     inkscape:window-x="-8"
     inkscape:window-y="-8"
     inkscape:window-maximized="1"
     inkscape:current-layer="svg4" />
  <path
     id="path2"
     style="fill:#000000;stroke:none"
     d="m 0.99569521,1.7820185 c -0.31222506,0.00491 -0.46875,0.1434458 -0.46875,0.4296875 0,0.286241 0.15648631,0.4296875 0.46875,0.4296875 C 1.0737605,2.7064485 1.1976465,2.778172 1.366789,2.8562373 1.2627017,4.75584 0.66471065,6.8886296 0.05319459,9.2566279 l 0.93043396,0.0046 C 1.4910567,7.3486158 2.0615298,4.7882047 2.1656171,2.6413935 h 5.5429687 c 0.1040873,2.1468112 0.9158885,4.7072223 1.4233174,6.6198364 l 0.8486889,0.021995 C 9.3690767,6.9152269 8.613455,4.75584 8.5093671,2.8562373 8.6785096,2.778172 8.8023956,2.7064487 8.8804608,2.6413935 c 0.3122644,0 0.4667969,-0.1434465 0.4667969,-0.4296875 0,-0.2862417 -0.1545439,-0.4270212 -0.4667969,-0.4296875 L 5.7655858,1.7554212 C 5.832079,1.1702809 6.0478497,0.57323147 6.1786337,0.25143415 5.9902502,-0.04376588 4.3072235,0.01607802 3.9273809,0.26597291 4.2581846,0.76576269 4.3233484,1.27667 4.376543,1.7288239 Z m 3.94140619,2.54211 -2.0488281,4.4882812 c 0.6375381,0.2862417 1.3202135,0.4296875 2.0488281,0.4296875 0.7286153,0 1.4112908,-0.1434458 2.0488282,-0.4296875 z m 0,1.7167968 0.9375,2.1875 c -0.624528,0.2081758 -1.2485201,0.2081758 -1.8730468,0 z"
     sodipodi:nodetypes="ssccccccccccssccccsccscccccc" />
</svg>
