<?xml version="1.0" encoding="UTF-8" standalone="no"?>
<svg
   width="895.18896"
   height="1271.505"
   version="1.1"
   id="svg852"
   xmlns="http://www.w3.org/2000/svg"
   xmlns:svg="http://www.w3.org/2000/svg">
  <defs
     id="defs856" />
  <path
     id="path850"
     style="fill:#000000;stroke:none;stroke-width:100"
     d="m 384.86267,0 0.41183,98.875525 c 0,0 -153.30515,1.349265 -207.12495,1.574835 0.54726,3.88264 -8.58329,73.71096 6.17753,82.20619 12.8579,7.40005 45.74869,7.78798 67.30329,11.61992 46.2991,8.23091 69.44922,29.83675 69.44922,64.81836 0,43.2125 -24.69236,88.48257 -74.07812,135.81054 -72.0208,76.13632 -112.14793,136.84109 -120.37891,182.11133 -86.425027,0 -128.608508,28.80715 -126.55077881,86.42383 0,63.78986 42.18348081,96.7137 126.55077881,98.77148 41.15478,148.1573 83.33826,317.92339 126.55078,509.29299 h 385.82813 c 55.55895,-209.8894 98.77064,-380.68366 129.63671,-512.37892 84.36737,0 126.55078,-31.89569 126.55079,-95.68555 -1e-5,-57.61668 -42.18342,-86.42383 -126.55079,-86.42383 -8.23098,-45.27024 -47.32789,-105.97501 -117.29101,-182.11133 -51.4435,-45.27024 -77.16602,-90.54031 -77.16602,-135.81054 0,-34.98161 23.15013,-56.58739 69.44922,-64.81836 23.80688,-4.23235 51.45853,-5.68488 64.65628,-14.81385 12.46898,-8.62488 11.19164,-75.59135 11.43863,-79.484116 C 696.35642,99.578678 512.25657,99.129945 512.25657,99.129945 L 511.99783,0.361146 Z m 62.7677,401.0792 c 94.65588,32.9238 161.53381,91.57026 200.63086,175.9375 8.68555,24.83762 10.86179,75.14647 9.85983,87.97151 2.05773,92.59829 -21.17781,168.73158 -43.81295,243.83904 -22.6351,75.10751 -50.41409,163.07515 -83.3379,263.90435 H 358.11865 c -14.40416,-49.3858 -36.52419,-124.493 -66.36133,-225.32232 -29.83727,-100.82907 -50.14017,-200.7486 -48.08244,-293.34689 -4.54857,-15.51222 3.40863,-64.22065 6.41255,-77.04569 C 287.12683,492.64946 352.9744,434.003 447.6304,401.0792 Z" />
</svg>
