<?xml version="1.0" encoding="UTF-8" standalone="no"?>
<svg
   width="1798.2924"
   height="1623.861"
   version="1.1"
   id="svg1"
   xmlns="http://www.w3.org/2000/svg"
   xmlns:svg="http://www.w3.org/2000/svg">
  <defs
     id="defs1" />
  <path
     id="path1"
     style="fill:#000000;stroke:none;stroke-width:100"
     d="m 1189.0527,0 c -85.8295,0 -168.4529,2.8596755 -232.77145,33.669922 -29.41882,14.09237 -54.06856,35.167241 -72.46484,63.041016 V 81.748047 c 0,-20.788975 -62.34961,-20.788925 -62.34961,0 v 87.705073 c -2.0848,-1.73627 -4.23951,-3.35425 -6.09571,-7.0664 -11.48309,-22.96656 -29.64931,-36.92866 -42.81445,-42.95117 -13.16514,-6.02251 -24.32261,-7.51977 -27.57226,-9.14453 -14.74223,-7.37113 -33.30496,-9.31029 -49.04688,-6.09766 -15.74191,3.21266 -25.57943,11.43496 -33.66992,18.28906 -16.18091,13.70825 -28.20312,28.20509 -21.47461,21.47656 -14.53415,14.53424 -16.65221,28.58637 -18.28906,39.76563 -1.6369,11.17922 -0.724,21.9216 0,30.61914 1.44884,17.39513 4.1501,32.12206 6.0957,39.9043 -0.162,0.236 0.243,2.71694 0,3.04883 -1.1074,-0.0871 -1.85663,0.13095 -3.04883,0 -10.06748,-1.10427 -22.11539,-5.49565 -24.52344,-6.09766 -22.42253,-5.60571 -46.16961,-13.93932 -67.33789,-24.52344 -16.49188,-8.24597 -35.70078,-15.95256 -61.3789,-12.33203 -12.83904,1.8103 -27.30529,7.89578 -39.76563,21.47656 -12.46034,13.58084 -18.42773,33.28602 -18.42773,49.04883 -10e-5,37.46322 10.37179,63.55623 18.42773,79.66797 7.35504,14.71001 12.74714,25.35549 18.42774,36.7168 -10.20074,-0.65077 -22.80614,-2.61755 -24.52344,-3.04688 -20.90568,-5.22638 -55.04802,-16.08329 -76.6211,-21.47656 -20.32123,-5.08031 -52.67852,8.66707 -64.28906,24.52344 -11.61054,15.85622 -14.10843,29.1008 -15.24218,39.76562 -2.26749,21.32957 -0.59992,34.45343 3.04882,49.04883 7.0332,28.13222 18.60508,47.78765 24.38672,58.19141 -14.29008,-0.0717 -30.26338,-3.04688 -39.76562,-3.04688 -24.65798,-3e-5 -47.56793,7.07636 -64.28907,18.28906 -16.72108,11.21264 -23.02552,19.97666 -27.57226,24.52344 -18.02928,18.02932 -19.52706,46.92503 -15.38086,61.24219 4.14619,14.31713 9.92016,23.06229 15.38086,30.61914 10.92124,15.11361 26.41208,29.46103 24.52344,27.57226 6.55954,6.5596 9.27504,10.24926 15.24218,15.38086 -13.26238,3.8011 -28.40442,6.09095 -33.66992,9.14454 -8.18474,4.74665 -6.0622,3.04687 -6.0957,3.04687 -50.3097,0 -76.270395,42.60239 -76.621095,42.95313 -11.582328,11.58233 -21.148691,29.77635 -21.337891,48.9082 -0.188995,19.1321 30.016415,33.44877 37.572266,42.95312 15.11168,19.0086 28.30476,26.41309 36.7168,30.61914 4.59724,2.2987 10.76266,10.40991 15.3789,15.38086 -12.81388,3.2034 -22.23111,4.29788 -36.71679,9.14453 -14.48573,4.8465 -30.146449,14.76752 -42.951176,27.57227 -4.527271,4.5273 -1.844582,-2.22527 -21.476562,15.24023 -9.81604,8.7328 -18.908903,25.49217 -21.337891,36.85547 -2.428982,11.363 -3.046875,18.4896 -3.046875,30.6211 0,36.0721 20.181402,48.5865 30.619141,58.1934 10.437735,9.6065 20.615049,17.5663 18.289062,15.2402 11.697533,11.6977 18.53434,21.5831 27.572261,30.6211 -33.713271,8.429 -54.725252,27.2916 -70.384761,42.9512 -8.449547,8.4495 -18.230124,14.8888 -27.572265,33.6699 -9.3421451,18.781 -10.52317713,43.53 -6.0957034,61.2402 6.2639634,25.0558 17.7552054,27.9953 24.3847654,33.668 6.629663,5.673 12.664066,8.5408 18.427735,12.332 5.763664,3.791 11.68993,6.8025 15.378906,9.1445 18.429387,18.4293 24.018231,19.1263 30.621094,21.4766 -6.831762,2.366 -14.978743,5.8944 -27.572266,12.1914 -14.375615,7.188 -29.872849,12.9873 -42.951172,30.6211 -13.0784214,17.6334 -14.8161832,32.1084 -18.2890624,46 -4.08827543,16.3531 -6.5256076,29.7543 -3.0488281,48.9102 3.4767785,19.1552 16.1994585,37.8146 27.4335935,49.0488 13.374521,13.3745 25.598489,20.0152 33.806641,24.5234 7.001058,3.845 36.452232,42.971 60.384763,51.1172 l 83.80078,-29.1699 c -6.72185,-13.4448 -32.29367,-53.9489 -40.13086,-61.8516 -7.83725,-7.9028 -15.12296,-11.9355 -21.47656,-18.289 -13.20478,-13.205 -25.74919,-23.2235 -33.66797,-27.5723 -6.05555,-3.326 -9.74646,-4.0588 -12.193356,-6.0957 0.104,-0.21 -1.94709,-1.4952 0,-9.2832 1.225696,-4.9029 2.067426,-6.0728 3.048826,-8.1758 1.5116,-1.178 1.97775,-1.9586 6.0957,-4.0176 2.8078,-1.404 13.87204,-3.5675 27.57227,-9.1445 13.70034,-5.577 36.01169,-13.8302 49.04883,-39.9043 4.74055,-9.481 9.94526,-22.9944 12.19336,-42.8125 2.248,-19.8173 -2.78011,-48.9188 -21.33789,-67.4766 -25.97678,-25.9764 -44.69517,-32.3631 -42.95117,-30.6191 -10.62034,-10.6203 -13.83146,-9.2754 -18.42774,-12.1934 -1.2869,-0.82 -1.75623,-2.2358 -3.04883,-3.0488 6.42478,-5.15 17.08837,-11.233 21.47657,-12.3301 17.43888,-4.36 57.02933,-9.7292 79.66796,-55.0058 3.68479,-7.37 6.37814,-13.7471 9.14454,-24.5254 2.76634,-10.7783 3.67581,-29.8594 -3.04883,-42.9512 -13.44934,-26.184 -22.4378,-25.4885 -30.61914,-33.6699 -16.00734,-16.0073 -20.70961,-20.7097 -36.7168,-36.7168 -7.47614,-7.4762 -11.31596,-9.1762 -15.38086,-12.3301 5.0359,-3.823 3.00309,0.043 9.14453,-6.0976 5.3007,-5.301 3.55673,-5.1997 6.23633,-6.0957 2.6795,-0.9 13.88266,-1.9117 30.61914,-6.0957 -7.27224,1.818 10.19313,0.2211 27.57227,-3.0469 8.68954,-1.635 17.74955,-4.5746 30.62109,-12.33205 12.87134,-7.75915 30.62118,-29.1905 30.62109,-52.09765 0,-31.35775 -12.60084,-64.55796 -33.66992,-85.62696 -4.70084,-4.70085 -43.97258,-17.17501 -56.13672,-27.57226 16.02104,-3.5424 33.69676,-8.73206 39.9043,-12.33203 4.128,-2.394 4.95351,-3.00345 4.84961,-3.18555 12.52214,-0.256 25.43168,-3.05384 41.01172,-5.95898 8.15224,-1.5202 14.94309,-2.47511 24.52344,-6.09571 4.79014,-1.81033 11.65199,-4.53084 18.42773,-9.2832 6.77564,-4.75239 16.85162,-12.12157 21.47656,-30.62109 1.051,-4.20425 1.84503,-7.96679 3.04883,-15.24024 1.2037,-7.27349 1.02087,-22.13277 -3.04883,-33.66797 -8.13934,-23.0703 -17.21232,-26.49547 -27.57226,-36.85547 -14.89174,-14.89156 -27.07023,-24.92574 -36.85547,-33.66992 7.62804,0.221 20.62333,3.19863 36.85547,3.04883 10.13384,-0.0935 20.26095,-1.77463 30.62109,-3.04883 5.18009,-0.637 11.10902,-0.75173 18.28906,-3.04687 7.18,-2.2953 21.62136,-3.20348 33.80664,-27.57422 9.97134,-19.94257 24.75091,-57.60158 3.04883,-101.00586 -4.72254,-9.44514 -8.39033,-16.47506 -12.33203,-24.52344 8.60754,2.1519 17.88574,4.43626 24.52344,6.0957 11.05304,2.7632 25.01394,4.95326 42.95312,6.09766 8.96954,0.572 19.8593,1.3532 30.61914,0 10.75994,-1.35312 22.72775,-1.25129 39.76563,-18.28906 -0.8788,0.87882 16.15368,-12.25438 27.57226,-30.6211 11.41854,-18.36668 17.11267,-51.54032 3.04883,-79.66796 -7.24044,-14.48088 -13.61622,-27.23258 -21.47656,-42.95313 17.05678,6.813 34.08462,13.92449 52.09766,18.42774 9.93144,2.48285 27.23304,7.66773 46,9.14453 9.38344,0.738 18.66269,-1.30388 30.61914,-3.04688 11.95638,-1.7429 31.62869,-2.15606 45.86133,-30.62109 0.97695,-1.9537 7.10958,-8.83207 15.38085,-24.52539 8.27135,-15.69329 15.32388,-42.61846 9.14454,-67.33594 -1.26793,-5.07158 -2.38442,-16.54814 -3.04883,-24.52539 3.74374,1.4055 10.27086,5.21817 12.19336,6.09766 1.1616,0.53095 0.52836,0.006 0.69336,0 14.64708,26.10457 37.72591,49.33772 69.83007,58.1914 6.1353,1.7812 12.29087,2.08159 18.28907,1.52539 v 103.08399 c 0,20.79061 62.34961,20.79061 62.34961,0 v -16.9043 c 15.50792,24.3124 35.60771,43.6143 59.06054,57.7832 L 719.22656,1198.3125 c -45.33884,7e-4 -90.67868,0 -136.01758,0 3.6918,76.1018 52.29498,140.5804 96.3711,199.3242 61.44708,78.8698 146.53526,136.937 235.51953,180.5879 126.37859,51.5482 267.06109,51.1892 400.87109,38.5781 90.0166,-9.3444 176.7914,-41.8677 250.127,-95.0039 97.0469,-61.8283 175.521,-153.3834 219.6308,-259.7226 5.5438,-18.9258 17.5567,-45.9116 10.2949,-63.7989 -39.3958,0.01 -78.7935,0 -118.1894,0 L 1426.7891,414.97656 c 59.421,-33.20345 99.2265,-96.53998 99.2265,-188.30078 10e-5,-97.7226 -43.0982,-161.679193 -107.2402,-193.005858 C 1354.6332,2.343238 1275.1232,0 1189.0527,0 Z m 0,58.193359 c 83.9193,3e-5 154.8144,4.453511 202.1504,27.572266 47.3364,23.118785 76.6192,58.172985 76.6192,140.910155 0,80.62823 -29.12,117.29739 -76.6192,140.91016 -47.4988,23.61272 -118.4554,30.62109 -202.1504,30.62109 -83.9356,0 -157.8756,-7.53936 -205.19918,-30.62109 -47.32372,-23.08175 -73.4336,-58.01309 -73.4336,-140.91016 0,-84.9958 26.27388,-118.31941 73.4336,-140.910155 C 1031.0131,63.17493 1104.8931,58.193359 1189.0527,58.193359 Z M 995.40659,440.75653 1160.9883,456.9784 v 738.9982 l -362.50146,-4e-4 z m 228.32781,16.22187 145.2349,-14.93622 234.9526,753.93442 h -382.9336 z m -556.79885,805.672 c 161.80511,0.283 323.61321,0.7983 485.41795,1.2266 -41.6904,51.7759 -83.3807,103.5547 -125.0723,155.33 35.1712,47.123 70.346,94.2451 105.5176,141.3672 -128.3301,-4.5115 -255.38443,-56.9829 -347.60153,-146.8027 -47.68062,-43.1271 -87.92013,-94.4322 -118.26172,-151.1211 z m 1049.33785,0 c -55.2845,101.7285 -141.0986,188.2755 -244.2968,241.1191 -69.1191,32.4906 -143.9874,55.6639 -220.8731,56.7989 35.1724,-47.1216 70.3456,-94.2434 105.5176,-141.3653 -41.913,-51.7752 -83.8275,-103.5512 -125.7402,-155.3261 161.7964,-0.2455 323.5958,-1.2265 485.3925,-1.2266 z m -525.3672,30.1426 c 34.6476,42.4208 69.2958,84.8429 103.9434,127.2636 l -103.9434,136.5957 c -34.6473,-45.5314 -69.2955,-91.064 -103.9433,-136.5957 34.6478,-42.4207 69.296,-84.8429 103.9433,-127.2636 z" />
  <g
     id="path2" />
</svg>
