<?xml version="1.0" encoding="UTF-8" standalone="no"?>
<!-- Created with Inkscape (http://www.inkscape.org/) -->

<svg
   id="svg1290"
   height="1797.752"
   width="1800"
   version="1.1"
   xmlns="http://www.w3.org/2000/svg"
   xmlns:svg="http://www.w3.org/2000/svg"
   xmlns:rdf="http://www.w3.org/1999/02/22-rdf-syntax-ns#"
   xmlns:cc="http://creativecommons.org/ns#"
   xmlns:dc="http://purl.org/dc/elements/1.1/">
  <defs
     id="defs3" />
  <metadata
     id="metadata4">
    <rdf:RDF>
      <cc:Work
         rdf:about="">
        <dc:format>image/svg+xml</dc:format>
        <dc:type
           rdf:resource="http://purl.org/dc/dcmitype/StillImage" />
        <cc:license
           rdf:resource="http://creativecommons.org/licenses/by/2.0/" />
        <dc:subject>
          <rdf:Bag>
            <rdf:li>JSesh hieroglyph</rdf:li>
          </rdf:Bag>
        </dc:subject>
      </cc:Work>
      <cc:License
         rdf:about="http://creativecommons.org/licenses/by/2.0/">
        <cc:permits
           rdf:resource="http://web.resource.org/cc/Reproduction" />
        <cc:permits
           rdf:resource="http://web.resource.org/cc/Distribution" />
        <cc:requires
           rdf:resource="http://web.resource.org/cc/Notice" />
        <cc:requires
           rdf:resource="http://web.resource.org/cc/Attribution" />
        <cc:permits
           rdf:resource="http://web.resource.org/cc/DerivativeWorks" />
        <cc:requires
           rdf:resource="http://web.resource.org/cc/ShareAlike" />
      </cc:License>
    </rdf:RDF>
  </metadata>
  <path
     id="path3502"
     style="display:inline;opacity:0.994152;fill:#000000;fill-opacity:1;fill-rule:nonzero;stroke:none;stroke-width:47.7802;stroke-linecap:butt;stroke-linejoin:round;stroke-miterlimit:4;stroke-opacity:1"
     d="m 209.40046,4.3964185 c -21.56888,7.7875785 -17.76261,35.3786685 -17.76261,35.3786685 3.8e-4,16.105619 7.80452,29.367838 17.72629,30.124331 l 117.34498,8.827311 V 189.49165 c -28.81163,40.95271 -72.99832,78.46516 -92.58485,148.52175 -11.36771,40.65951 -16.76798,86.89603 -18.19342,133.5385 -4.60007,-0.40551 -10.83435,-0.82493 -18.61653,-0.88114 -16.21577,-0.11709 -38.23339,1.27889 -61.43797,7.32679 C 89.467205,490.09337 34.45224,525.19602 18.74005,600.32109 10.73379,638.60181 6.9799,711.34446 4.21098,804.6379 1.44205,897.93134 0.3276,1009.6943 0.06418,1117.35 c -0.52682,215.3114 2.36249,414.2021 2.36249,414.2021 l 0.37141,25.5729 49.005259,-0.7753 -0.371412,-25.5728 c 0,0 -2.882207,-198.5437 -2.356737,-413.297 0.26273,-107.3767 1.37983,-218.80439 4.123813,-311.25756 2.743985,-92.45317 7.783799,-168.01508 13.426335,-194.99399 11.585518,-55.39415 45.465382,-74.31113 81.126612,-83.60566 33.91759,-8.8401 65.06154,-5.08405 68.1138,-4.68739 0.67437,22.78106 2.1305,45.22247 4.28847,66.66835 25.1633,250.07419 81.9521,491.55245 110.0029,734.13115 8.91435,77.0896 11.81578,161.254 3.17805,233.1504 -5.77751,48.0898 -23.58802,108.7386 -42.09969,128.1039 -30.64336,32.0564 -86.89678,31.9538 -138.73176,52.0527 -9.13974,3.6037 -15.18258,17.7036 -14.07726,32.8496 1.10531,15.146 9.00946,26.5704 18.4155,26.6158 h 337.12295 c 1.55684,0.7285 3.16729,1.2364 4.85514,1.2448 h 444.34793 356.81152 342.5007 c 9.4885,-0.061 17.4568,-11.4887 18.5669,-26.6298 1.11,-15.1411 -4.9856,-29.2336 -14.2056,-32.8356 -52.3094,-20.0989 -109.0792,-19.9945 -140.003,-52.0508 -18.681,-19.3652 -36.635,-80.014 -42.4653,-128.1039 -8.7168,-71.8963 -5.8084,-156.0607 3.1876,-233.1503 28.3074,-242.5788 85.6354,-484.05899 111.0291,-734.13317 2.1937,-21.60454 3.6636,-44.22094 4.3343,-67.17586 l 0.1,-0.014 c 0,0 33.5878,-4.72304 69.2491,4.5715 35.6612,9.29453 69.5411,28.21152 81.1266,83.60567 5.6425,26.9789 10.6824,102.54081 13.4263,194.99398 2.7441,92.45317 3.8611,203.88098 4.1238,311.25758 0.5255,214.7532 -2.3566,413.297 -2.3567,413.297 l -0.3714,25.5728 49.0053,0.7753 0.3714,-25.5728 c 0,0 2.8893,-198.8908 2.3624,-414.2022 -0.2634,-107.6557 -1.3778,-219.41869 -4.1467,-312.71212 -2.7689,-93.29343 -6.5247,-166.03609 -14.531,-204.3168 -15.7122,-75.12508 -70.7252,-110.22973 -117.1344,-122.32554 -23.2046,-6.04791 -45.2222,-7.44189 -61.4379,-7.3248 -8.6508,0.0625 -15.2318,0.52684 -19.8802,0.97306 -1.4703,-46.45718 -6.9292,-92.4902 -18.3561,-132.99105 -19.7657,-70.05661 -64.3576,-107.57103 -93.433,-148.52374 V 80.035403 l 122.269,-8.889244 c 10.028,-0.723982 17.928,-13.997495 17.9292,-30.126328 0,0 8.8813,-27.589062 -16.4938,-36.6745693 -77.8358,-0.0087 -1342.43594,0.5123904 -1385.34564,0.05116 z M 549.14632,70.906431 c 0.3359,0.05719 0.65235,0.213131 0.99361,0.239759 l 114.65895,8.827311 V 190.73643 c -28.15244,40.95271 -71.32902,78.46715 -90.46742,148.52374 -20.66705,75.65177 -21.61337,170.57905 -13.64842,251.58826 24.5876,250.07415 80.07633,491.55437 107.48535,734.13317 8.71039,77.0896 11.54541,161.254 3.10531,233.1503 -5.64533,48.0899 -23.04665,108.7387 -41.13479,128.1039 -17.60537,18.8484 -44.16485,26.5748 -73.10871,33.8307 -31.59053,-7.6425 -60.81851,-15.1708 -79.84774,-35.0774 -18.51167,-19.3653 -36.3011,-80.0141 -42.07862,-128.1039 -8.63773,-71.8964 -5.75737,-156.0608 3.15699,-233.1504 28.05078,-242.5787 84.85875,-484.05697 110.02205,-734.13115 8.15144,-81.0092 7.16363,-175.9385 -13.98728,-251.59025 C 514.7091,267.95679 470.52048,230.44436 441.70884,189.49165 V 78.790666 Z m 341.14529,0.635371 115.67749,8.431699 V 190.73643 c -29.73456,40.95271 -75.33648,78.46715 -95.55043,148.52374 -21.8284,75.65177 -22.82873,170.57905 -14.41613,251.58826 25.96928,250.07422 84.57625,491.55437 113.52556,734.13317 9.1999,77.0896 12.1939,161.254 3.2795,233.1503 -5.9625,48.0899 -24.34283,108.7387 -43.44746,128.1039 -19.33955,19.6034 -48.89707,27.195 -80.91793,34.7198 -30.31697,-7.5248 -58.30175,-15.1165 -76.61224,-34.7198 -18.08812,-19.3652 -35.47028,-80.014 -41.11564,-128.1039 -8.44011,-71.8963 -5.62618,-156.0607 3.08426,-233.1503 C 801.20761,1082.4028 856.7155,840.92258 881.30306,590.84843 889.268,509.83923 888.3025,414.91193 867.63551,339.26017 848.49713,269.20356 805.32058,231.68914 777.16809,190.73643 V 80.035433 Z m 352.68579,0.08194 112.0113,8.349778 v 110.76293 c -29.0753,40.95271 -73.6672,78.46715 -93.4331,148.52374 -21.3444,75.65177 -22.3224,170.57905 -14.0963,251.58826 25.3935,250.07419 82.7004,491.55435 111.008,734.13315 8.9959,77.0896 11.9236,161.254 3.2068,233.1503 -5.8304,48.0899 -23.8034,108.7387 -42.4846,128.1039 -18.7004,19.3854 -47.1771,27.0183 -78.0787,34.462 -31.6019,-7.4436 -60.7235,-15.0769 -79.8477,-34.462 -19.1047,-19.3652 -37.4658,-80.014 -43.4283,-128.1039 -8.9145,-71.8963 -5.9396,-156.0607 3.2603,-233.1503 28.9493,-242.5788 87.5753,-484.05893 113.5447,-734.13315 8.4124,-81.0092 7.3931,-175.9365 -14.4352,-251.58826 -20.2138,-70.05661 -65.816,-107.57103 -95.5504,-148.52374 V 80.035454 Z M 363.90578,75.81162 h 40.60638 c 0.003,8.173803 2.05108,142.93231 5.67648,148.61165 34.48348,54.05006 77.3441,92.40697 90.22236,138.46965 16.24997,58.12223 18.42967,144.75396 11.15958,217.00431 -24.33133,241.80592 -80.97819,482.89277 -109.86697,732.71857 -9.53266,82.4366 -13.06887,172.9778 -3.11871,255.798 7.04563,58.6451 23.46905,130.7039 58.4303,167.2773 0.17125,0.1792 0.35098,0.3238 0.52266,0.5015 H 310.88009 c 0.17167,-0.1777 0.35332,-0.3223 0.52458,-0.5015 34.9612,-36.5735 51.38468,-108.6322 58.4303,-167.2773 9.95015,-82.8201 6.41204,-173.3614 -3.12062,-255.798 -28.8888,-249.8258 -85.51461,-490.91265 -109.84591,-732.71857 -7.27011,-72.25035 -5.11147,-158.8821 11.13851,-217.00431 12.87827,-46.06268 55.73889,-84.41958 90.22237,-138.46965 3.62538,-5.67934 5.67393,-140.437847 5.67646,-148.61165 z m 337.23974,1.244777 h 39.67785 c 0,8.173803 2.00381,142.932313 5.54628,148.611653 33.69454,54.05006 75.57302,92.40896 88.15663,138.47165 15.87821,58.12222 18.00866,144.75196 10.90494,217.00231 -23.77466,241.8059 -79.12544,482.89279 -107.35323,732.71849 -9.31462,82.4367 -12.77038,172.9798 -3.04788,255.8002 6.88441,58.6451 22.93258,130.7018 57.09399,167.2752 0.16727,0.1791 0.34341,0.3258 0.51117,0.5035 H 649.33361 c 0.16773,-0.1777 0.34384,-0.3244 0.51117,-0.5035 34.16133,-36.5735 50.20958,-108.6301 57.09399,-167.2752 9.7225,-82.8203 6.26671,-173.3635 -3.04787,-255.8002 -28.22785,-249.8257 -83.55947,-490.91259 -107.3341,-732.71849 -7.10378,-72.25035 -4.9943,-158.88011 10.88389,-217.00231 12.58361,-46.06269 54.46402,-84.42158 88.15854,-138.47165 3.54244,-5.67934 5.54382,-140.43785 5.54629,-148.611653 z m 343.21298,0 h 41.9063 c 0,8.173803 2.1167,142.932313 5.8583,148.611653 35.5881,54.05006 79.8206,92.40896 93.1113,138.47165 16.7705,58.12222 19.0206,144.75196 11.5176,217.00231 -25.1107,241.80597 -83.5716,482.89279 -113.3858,732.71849 -9.8379,82.4367 -13.489,172.9798 -3.2201,255.8002 7.2712,58.6451 24.2217,130.7018 60.3026,167.2752 0.1767,0.1791 0.3628,0.3258 0.5399,0.5035 H 989.63461 c 0.17719,-0.1777 0.36322,-0.3244 0.53989,-0.5035 36.081,-36.5735 53.0295,-108.6301 60.3008,-167.2752 10.2688,-82.8203 6.6198,-173.3635 -3.2183,-255.8002 -29.8141,-249.8257 -88.25595,-490.91252 -113.36666,-732.71849 -7.50301,-72.25035 -5.27397,-158.88011 11.49653,-217.00231 13.29073,-46.06269 57.52523,-84.42158 93.11323,-138.47165 3.7415,-5.67934 5.8557,-140.43785 5.8584,-148.611653 z m 348.1656,0 h 40.9798 c 0,8.173803 2.0695,142.932313 5.7281,148.611653 34.7991,54.05006 78.0514,92.40896 91.0475,138.47165 16.3987,58.12222 18.5978,144.75196 11.2611,217.00231 -24.554,241.80592 -81.7189,482.89279 -110.8721,732.71849 -9.62,82.4367 -13.1886,172.9798 -3.1474,255.8002 7.1101,58.6451 23.6833,130.7018 58.9645,167.2752 0.1728,0.1791 0.355,0.3258 0.5283,0.5035 h -147.9998 c 0.1732,-0.1777 0.3557,-0.3244 0.5284,-0.5035 35.2811,-36.5735 51.8544,-108.6301 58.9645,-167.2752 10.0411,-82.8203 6.4725,-173.3635 -3.1475,-255.8002 -29.1531,-249.8257 -86.2989,-490.91257 -110.8529,-732.71849 -7.3366,-72.25035 -5.1568,-158.88011 11.2419,-217.00231 12.9961,-46.06269 56.2484,-84.42158 91.0475,-138.47165 3.6585,-5.67934 5.7256,-140.43785 5.7281,-148.611653 z" />
</svg>
