<?xml version="1.0" encoding="UTF-8" standalone="no"?>
<svg
   width="858.02551"
   height="1799.507"
   version="1.1"
   id="svg11131"
   xmlns="http://www.w3.org/2000/svg"
   xmlns:svg="http://www.w3.org/2000/svg">
  <defs
     id="defs11135" />
  <path
     style="fill:#000000;stroke:none;stroke-width:87.8162"
     d="m 222.8368,1479.8753 h 412.352 C 606.49395,1619.1399 593.42021,1721.5499 430.86954,1723.216 268.31887,1724.8821 240.7158,1574.7146 222.8368,1479.8753 Z m -10.413,-69.0588 c -8.3303,-72.8063 -8.3303,-116.1689 0,-130.0878 h 433.1779 c 6.942,13.9189 6.942,57.2815 0,130.0878 z m 0,-200.7527 c 15.27233,-26.7669 46.85823,-67.4529 94.7577,-122.0575 47.89947,-54.6047 75.32017,-103.85608 82.2621,-147.75407 h 77.0557 c 6.942,43.89799 34.70983,93.14937 83.3035,147.75407 48.59367,54.6046 80.52663,95.2906 95.7989,122.0575 z M 356.1223,867.98131 c -11.10713,10.70682 -25.68523,16.06025 -43.7343,16.06025 h -58.3124 c -45.81693,0 -68.7254,9.1007 -68.7254,27.30241 0,19.27217 22.21427,28.90826 66.6428,28.90826 18.04907,5.35364 27.0736,18.73704 27.0736,40.15068 -4.1652,28.90849 -30.54463,65.57919 -79.1383,110.01239 -48.59367,44.4332 -75.66727,84.3161 -81.2208,119.6485 H 37.4866 C 12.49553,1210.0638 0,1221.8413 0,1245.3963 c 0,23.555 12.49553,35.3324 37.4866,35.3324 h 79.1383 c -6.942,13.9189 -6.2478,57.2815 2.0826,130.0878 H 39.5692 C 13.18973,1410.8165 0,1422.5939 0,1446.1489 c 0,22.4844 12.49553,33.7264 37.4866,33.7264 h 81.2209 c 49.79416,160.7207 63.0095,316.5865 313.79866,319.5982 250.78916,3.0118 275.45071,-199.5644 306.81194,-319.5982 h 79.1383 c 26.3794,0 39.5691,-11.242 39.5691,-33.7264 0,-23.555 -13.1897,-35.3324 -39.5691,-35.3324 h -79.1383 c 6.9419,-72.8063 6.9419,-116.1689 0,-130.0878 h 79.1383 c 26.3794,0 39.5691,-11.7774 39.5691,-35.3324 0,-23.555 -13.1897,-35.3325 -39.5691,-35.3325 h -79.1383 c -5.5536,-35.3324 -32.62723,-75.2153 -81.2209,-119.6485 -48.59367,-44.4332 -75.66727,-81.1039 -81.2208,-110.01239 0,-21.41375 9.0245,-34.79726 27.0736,-40.15068 44.42853,0 66.6428,-9.63656 66.6428,-28.90826 0,-18.20162 -22.21427,-27.30241 -66.6428,-27.30241 h -58.3124 c -19.43747,0 -34.01557,-5.35344 -43.7343,-16.06025 l -2.0826,-1.60603 C 483.16003,682.21827 466.87883,181.47659 479.67616,142.13885 493.71631,98.980838 499.62901,88.491808 608.75301,91.352187 717.87702,94.212576 796.02471,247.46752 841.02848,241.60182 856.30075,231.96569 802.07354,112.21146 785.41287,102.57537 753.29953,53.083235 675.3527,20.895814 595.15812,4.1197212 514.96355,-12.656372 425.52387,23.943823 403.77175,75.118601 363.71648,169.35396 342.5674,657.09991 343.95573,891.57893 Z"
     id="path11129" />
</svg>
