<?xml version="1.0" encoding="UTF-8" standalone="no"?>
<svg
   width="1001.7805"
   height="1798.6978"
   version="1.1"
   id="svg6964"
   xmlns="http://www.w3.org/2000/svg"
   xmlns:svg="http://www.w3.org/2000/svg">
  <defs
     id="defs6968" />
  <path
     style="fill:#000000;stroke:none;stroke-width:100.746"
     d="m 39.9015,1797.7123 c 0,0 284.31325,-159.3538 287.11082,-362.3183 C 329.80989,1232.4295 203.43067,635.32059 187,568.25452 173.59999,513.55888 148.33333,456.94575 85,402.81383 c -56.66666,0 -85,-28.75758 -85,-86.27276 0,-57.51517 28.33334,-86.27275 85,-86.27275 h 58 C 191.66667,111.85473 215.12765,51.611255 292.58111,27.404287 c 132,-36.5390493 263.66667,-36.5390493 395,0 82.52855,19.836181 121.19943,89.100883 171.19943,207.514473 h 57.99999 c 56.6667,0 84.99997,28.75758 84.99997,86.27276 0,57.51517 -28.33327,86.27275 -84.99997,86.27275 -64.66669,54.13192 -89.42789,110.64313 -101.99999,165.4407 -14.8983,64.93656 -153.24321,661.89843 -147.05279,863.14113 6.19041,201.2427 259.94078,362.6516 259.94078,362.6516 z m 703.44265,-72.4518 c 0,0 -138.14908,-93.1682 -142.11332,-291.8553 -3.96423,-198.6871 120.71901,-807.83012 138.54969,-865.5751 17.40172,-56.35579 26.66667,-112.32375 66.00002,-160.36583 L 197,402.81383 c 38.66667,48.04208 48.23196,103.33717 63,160.36582 14.29742,55.21128 135.06296,681.30095 138.21776,874.82265 3.15479,193.5216 -152.15528,287.2582 -152.15528,287.2582 z M 916.78053,341.49099 c 16.6665,0.0932 25,-6.76649 25,-20.29947 0,-14.88628 -8.3335,-22.23624 -25,-22.32942 L 85,294.21165 c -15.99975,-0.0894 -24,7.44314 -24,22.32942 0,13.53298 8.00025,20.21001 24,20.29947 z M 773.78052,234.91876 C 723.78052,116.50517 661.07641,79.643459 489.58111,81.197891 318.08581,82.752323 276.66667,111.85473 228,230.26832 Z"
     id="path6962" />
</svg>
