<?xml version="1.0" encoding="UTF-8" standalone="no"?>
<svg
   width="1406.9692"
   height="1800"
   version="1.1"
   id="svg1"
   xmlns="http://www.w3.org/2000/svg"
   xmlns:svg="http://www.w3.org/2000/svg">
  <defs
     id="defs1" />
  <path
     style="fill:#000000;stroke:none;stroke-width:100.17"
     d="M 826.96322,1716.0081 949.09203,802.45454 c 7.3415,-39.42259 4.4634,-193.11538 -121.29288,-281.68462 -91.43504,-83.5224 -125.83885,-74.42613 -125.83885,-153.93948 0,-147.66762 56.72973,-238.87411 170.18916,-273.619425 H 388.61182 c 113.45951,34.745315 170.18926,125.951805 170.18926,273.619425 0,79.51335 -22.47051,97.20384 -123.68254,168.53495 -92.87971,65.45874 -151.4329,97.83213 -149.92285,205.85343 l 144.7216,974.78928 z M 260.48715,55.124794 c -133.57752,0 -204.21779,-2.285203 -202.41933,184.796346 1.58141,164.50359 112.57577,398.34263 156.27287,411.22951 l 22.16065,-62.50941 C 215.9085,581.28271 99.51608,380.86362 97.11123,237.91659 94.73604,96.732901 147.60599,93.211015 260.48715,93.211015 Z M 194.31843,701.2641 C 127.40388,676.01839 2.2520704,416.409 0.00324739,233.90752 -0.66416161,14.076521 101.5481,0 302.53392,0 h 729.79358 c 257.4206,0 430.1575,328.08475 358.2365,392.06959 -5.8771,5.22857 -25.7723,4.78525 -27.3312,4.50346 -30.8974,-5.58524 -96.5949,-232.44151 -358.9364,-248.23723 -145.2326,-8.74453 -218.24259,72.83154 -218.24259,218.49462 0,68.82248 34.07004,50.70578 124.83762,126.87823 120.59227,81.34245 127.51027,222.46107 120.29197,322.77764 L 895.03879,1798.1943 358.83826,1798.1603 203.1044,793.00669 c -7.9689,-51.28784 -6.9199,-40.63443 -8.78597,-91.74259 z m 82.22744,-158.72723 61.17875,-53.5742 C 425.7844,411.84874 468.96594,420.32419 474.70758,366.83044 490.25254,222.00113 463.04576,148.33582 295.52612,148.33582 c -111.53745,0 -149.02664,-12.11034 -150.36144,103.61253 -2.24883,87.05381 96.20108,281.80291 131.38119,290.58852 z"
     id="path1" />
</svg>
