<?xml version="1.0" encoding="UTF-8" standalone="no"?>
<!-- Created with Inkscape (http://www.inkscape.org/) -->

<svg
   width="1046.7272"
   height="1364.0117"
   viewBox="0 0 1046.7272 1364.0117"
   version="1.1"
   id="svg570"
   xml:space="preserve"
   xmlns="http://www.w3.org/2000/svg"
   xmlns:svg="http://www.w3.org/2000/svg"><defs
     id="defs567" /><path
     id="path12344"
     style="color:#000000;display:inline;fill:#000000;stroke-width:1.57266;-inkscape-stroke:none"
     d="m 880.7758,0 -20.1406,103.61328 c -29.0262,0.0357 -94.8921,14.18521 -34.4121,28.43554 91.926,16.7279 153.9154,99.53365 190.1562,179.74805 36.4483,117.48134 36.6977,244.63704 18.4551,365.50194 -45.4877,230.5787 -103.8467,458.39239 -159.3281,686.71289 H 325.9321 C 272.4701,1173.0764 213.9416,983.28251 170.0044,789.87491 c -7.8001,-49.6025 -14.5814,-99.6802 -19.1875,-149.9335 -21.0301,-0.2631 -42.0373,-3.4047 -59.3927,-15.75 -27.4373,-20.5745 -42.3394,-59.7194 -27.875,-92.1895 C 75.0088,492.01011 84.4806,451.15763 88.3774,409.68163 90.2608,388.76333 78.598,369.04334 65.6157,353.57227 53.9406,338.78092 -5.0359001,323.61562 0.34619992,315.36133 8.9891999,289.43334 18.9199,258.35768 27.5629,232.42968 c 30.3916,8.5812 61.7013,16.74499 88.625,33.7754 24.5841,19.52938 40.4008,47.86645 50.1758,77.55469 C 197.087,263.20052 239.6753,180.8306 321.9652,145.20312 354.0663,131.38184 448.5238,119.42519 369.2563,109.46094 331.0088,100.22817 329.0662,51.19353 323.8637,18.59375 311.4731,-9.53917 348.3134,5.1781 364.0726,1.54687 536.3066,1.03129 708.5419,0.51558 880.7758,0 Z M 736.6625,70.43164 468.2836,71.23242 c 54.7574,56.45219 -18.3297,123.88185 -78.0352,127.1836 -70.8781,6.60895 -112.8914,70.91955 -139.2792,130.15624 -33.3469,51.90175 -37.8587,113.73237 -36.3067,173.82815 0.4152,143.1006 19.395,286.1467 61.1309,423.1972 32.9939,123.16089 67.7278,245.84839 102.8516,368.41609 h 442.0683 c 52.7535,-220.0083 110.034,-439.29029 150.2988,-662.00789 9.088,-103.019 10.0421,-210.99702 -26.1738,-309.27143 C 913.3801,264.71207 865.951,206.59876 796.9692,195.88281 751.3683,182.7256 685.6171,126.9124 728.1821,78.21679 Z" /></svg>
