<?xml version="1.0" encoding="UTF-8" standalone="no"?>
<!-- Created with Inkscape (http://www.inkscape.org/) -->

<svg
   sodipodi:docname="US9W15VARA.svg"
   inkscape:version="1.2.1 (9c6d41e410, 2022-07-14)"
   sodipodi:version="0.32"
   id="svg1290"
   height="18"
   width="10.55"
   version="1.1"
   xmlns:inkscape="http://www.inkscape.org/namespaces/inkscape"
   xmlns:sodipodi="http://sodipodi.sourceforge.net/DTD/sodipodi-0.dtd"
   xmlns="http://www.w3.org/2000/svg"
   xmlns:svg="http://www.w3.org/2000/svg"
   xmlns:rdf="http://www.w3.org/1999/02/22-rdf-syntax-ns#"
   xmlns:cc="http://creativecommons.org/ns#"
   xmlns:dc="http://purl.org/dc/elements/1.1/">
  <defs
     id="defs3" />
  <sodipodi:namedview
     inkscape:guide-bbox="true"
     showguides="true"
     inkscape:window-y="-8"
     inkscape:window-x="1072"
     inkscape:window-height="1017"
     inkscape:window-width="1920"
     inkscape:current-layer="layer1"
     inkscape:document-units="px"
     inkscape:cy="12.148867"
     inkscape:cx="5.983317"
     inkscape:zoom="32.924881"
     inkscape:pageshadow="2"
     inkscape:pageopacity="0.0"
     borderopacity="1.0"
     bordercolor="#666666"
     pagecolor="#ffffff"
     id="base"
     inkscape:showpageshadow="2"
     inkscape:pagecheckerboard="0"
     inkscape:deskcolor="#d1d1d1"
     showgrid="false"
     inkscape:window-maximized="1" />
  <metadata
     id="metadata4">
    <rdf:RDF>
      <cc:Work
         rdf:about="">
        <dc:format>image/svg+xml</dc:format>
        <dc:type
           rdf:resource="http://purl.org/dc/dcmitype/StillImage" />
        <cc:license
           rdf:resource="http://creativecommons.org/licenses/by/2.0/" />
        <dc:subject>
          <rdf:Bag>
            <rdf:li>JSesh hieroglyph</rdf:li>
          </rdf:Bag>
        </dc:subject>
      </cc:Work>
      <cc:License
         rdf:about="http://creativecommons.org/licenses/by/2.0/">
        <cc:permits
           rdf:resource="http://web.resource.org/cc/Reproduction" />
        <cc:permits
           rdf:resource="http://web.resource.org/cc/Distribution" />
        <cc:requires
           rdf:resource="http://web.resource.org/cc/Notice" />
        <cc:requires
           rdf:resource="http://web.resource.org/cc/Attribution" />
        <cc:permits
           rdf:resource="http://web.resource.org/cc/DerivativeWorks" />
        <cc:requires
           rdf:resource="http://web.resource.org/cc/ShareAlike" />
      </cc:License>
    </rdf:RDF>
  </metadata>
  <g
     id="layer1"
     inkscape:groupmode="layer"
     inkscape:label="Layer 1">
    <path
       id="path3502"
       style="display:inline;opacity:0.994152;fill:#000000;fill-opacity:1;fill-rule:nonzero;stroke:none;stroke-width:19.1233;stroke-linecap:butt;stroke-linejoin:round;stroke-miterlimit:4;stroke-opacity:1"
       d="m 6.5722656,0.03320312 c -0.1133331,0 -0.2265103,0.02617193 -0.3398437,0.07617188 C 6.0057561,0.2093749 5.8421874,0.52836002 5.7421875,1.0683594 5.6421876,1.608359 5.4158336,1.8789062 5.0625,1.8789062 4.7158343,1.8789063 4.5410156,2.2719275 4.5410156,3.0585938 h 1.140625 v 0.21875 C 5.3015797,3.5900049 4.7548642,3.883363 4.4003906,4.3398438 4.057075,3.7147684 3.4992132,3.2402447 2.7890625,2.7519531 2.7415123,2.7189647 2.6841514,2.6994433 2.625,2.6972656 L 2.607422,2.7578126 C 2.3029043,2.7609445 1.9507315,2.9373451 1.6953125,3.0546875 1.4321899,3.175569 1.1348364,3.2982208 1.015625,3.6328125 c -0.0730885,0.2051379 0.0087,0.3773896 0.083984,0.4980469 0.075279,0.1206573 0.1645798,0.2218719 0.2480468,0.3164062 0.083467,0.094534 0.1620725,0.1833496 0.2070313,0.25 0.029374,0.043546 0.037312,0.071421 0.041016,0.080078 -0.00294,-0.01259 -0.078313,0.112278 -0.2460937,0.2617189 -0.1726369,0.1537662 -0.42362568,0.3194579 -0.48828128,0.6582031 -0.0639976,0.3352968 0.13813133,0.5321968 0.24999998,0.6894532 0.054179,0.07616 0.098509,0.1407004 0.1210938,0.1835937 -0.042787,0.031504 -0.117445,0.075481 -0.203125,0.1230469 -0.0876032,0.048634 -0.18646953,0.1006208 -0.28320315,0.1738281 -0.0967336,0.073207 -0.22167367,0.1821929 -0.2421875,0.3789063 -0.0210988,0.2023299 0.0859964,0.3283783 0.16796875,0.4160156 0.0819723,0.087637 0.16898646,0.1549446 0.24609375,0.2167968 0.0613472,0.04921 0.10419405,0.088703 0.14062505,0.1230469 -0.038976,0.035873 -0.0895634,0.078281 -0.15820318,0.1308594 -0.0812496,0.062239 -0.17418744,0.1306906 -0.26171874,0.21875 -0.0875313,0.088059 -0.18487247,0.2031628 -0.20507813,0.3808594 -0.0201238,0.1769705 0.0550675,0.3076361 0.12304687,0.4042969 0.0679793,0.096661 0.14164066,0.1718826 0.20703126,0.2402343 0.0599832,0.062699 0.1077381,0.1162958 0.13671874,0.1542969 -0.0343545,0.03207 -0.0877226,0.07622 -0.15625,0.1269531 C 0.6690484,9.7137961 0.58363277,9.7731699 0.5,9.8535156 0.41636728,9.9338605 0.31937307,10.040185 0.29296875,10.208984 c -0.0274869,0.175727 0.0510985,0.304507 0.11523437,0.390625 0.0641358,0.08612 0.13263601,0.149085 0.18945313,0.205079 0.0410272,0.04043 0.0628623,0.06751 0.0859375,0.09375 -0.0427707,0.05026 -0.12486929,0.153002 -0.23632813,0.255859 -0.0842522,0.07775 -0.17302256,0.160564 -0.25390624,0.261719 -0.0808837,0.101157 -0.17756838,0.239595 -0.14843751,0.439453 0.03233663,0.221858 0.17807135,0.384792 0.31835938,0.498047 0.0319501,0.02579 0.0649833,0.04514 0.0976563,0.06836 -0.0353894,0.03662 -0.066006,0.06325 -0.1015625,0.103516 -0.0943529,0.106859 -0.18546483,0.220611 -0.25195312,0.359375 -0.03324415,0.06939 -0.0637661,0.146772 -0.06640626,0.248046 -0.0026402,0.101275 0.0393545,0.237035 0.13671876,0.328126 0.10940469,0.102355 0.29658307,0.33002 0.42773437,0.490234 -0.0540472,0.0759 -0.11356155,0.157318 -0.17578125,0.248047 -0.11204713,0.163388 -0.23289061,0.358213 -0.24609375,0.609375 -0.0155882,0.296537 0.1193449,0.522689 0.21875,0.71289 0.0994051,0.190201 0.16748299,0.34656 0.16992187,0.435547 0.0104011,0.379497 -0.19439549,0.853498 -0.31054687,1.384766 l 0.671875,0.128906 C 1.0297306,17.030975 1.2756367,16.520484 1.2597656,15.941406 1.2517556,15.649034 1.1168907,15.424569 1.0195312,15.238281 0.9221721,15.051994 0.86561479,14.906915 0.86914062,14.839844 c 0.003065,-0.0583 0.0483937,-0.163278 0.13867188,-0.294922 0.090278,-0.131644 0.217509,-0.281307 0.3203125,-0.466797 0.059783,-0.108574 0.048154,-0.239573 -0.029297,-0.337891 0,0 -0.2875421,-0.373047 -0.53906248,-0.632812 0.0290232,-0.04641 0.0719918,-0.107418 0.12890626,-0.171875 C 1.0360908,12.768591 1.21875,12.611328 1.21875,12.611328 1.2964599,12.545078 1.3375168,12.449673 1.3300781,12.351562 1.3226381,12.253453 1.2666149,12.164695 1.1796875,12.109375 1.025113,12.011035 0.89078776,11.928435 0.8125,11.865234 c -0.037648,-0.03039 -0.056328,-0.04917 -0.0683594,-0.06445 0.0341408,-0.04269 0.10316678,-0.111478 0.18554688,-0.1875 0.16476022,-0.15204 0.41176562,-0.302753 0.46679692,-0.648437 0.027574,-0.17321 -0.047123,-0.304367 -0.1113282,-0.392578 -0.064205,-0.08821 -0.1318064,-0.152175 -0.1894531,-0.208985 -0.035906,-0.03538 -0.052914,-0.0568 -0.076172,-0.08203 0.037821,-0.03315 0.085451,-0.07107 0.1503907,-0.119141 0.076385,-0.05655 0.1626738,-0.12 0.2460937,-0.2031246 0.08342,-0.083125 0.180828,-0.196129 0.1972656,-0.3691406 C 1.6300716,9.413125 1.5525721,9.2830239 1.484375,9.1875 1.4161779,9.0919759 1.3422983,9.0171148 1.2773438,8.9492188 1.2161348,8.8852378 1.1662295,8.8302357 1.1386719,8.7929688 c 0.00205,-0.00221 0.00152,-0.0015 0.00391,-0.00391 0.03947,-0.039709 0.1118895,-0.095797 0.1933594,-0.1582031 C 1.4174074,8.5684524 1.5072909,8.500313 1.59375,8.4121094 1.6802109,8.3239065 1.7822546,8.2039554 1.7910156,8.0195312 1.8002873,7.8243408 1.6961888,7.7004295 1.6132812,7.6113281 1.5303736,7.5222265 1.4428422,7.4528788 1.3652344,7.390625 1.3242898,7.3577807 1.3048213,7.337538 1.2734375,7.3105469 1.3093999,7.2889009 1.3318499,7.2722174 1.3789062,7.2460938 1.4668165,7.1972898 1.5671663,7.1443941 1.6660156,7.0703125 1.764865,6.996231 1.8821066,6.8943977 1.9238281,6.7148438 1.9634799,6.544196 1.9093737,6.4065327 1.8554688,6.3007812 1.8015637,6.1950297 1.7371003,6.1092108 1.6816406,6.03125 1.5984511,5.9143085 1.5632624,5.8160797 1.546875,5.7988281 1.5597097,5.7807029 1.6565286,5.6515271 1.8222656,5.5039062 1.9990217,5.3464711 2.2601945,5.1705731 2.2851562,4.8144531 2.2988724,4.6187494 2.2158547,4.4737286 2.1347656,4.3535156 2.0536766,4.2333027 1.9592186,4.1302828 1.8769531,4.0371094 1.7969832,3.9465358 1.7303843,3.8659782 1.6972656,3.8144531 1.7301093,3.78972 1.8178055,3.7136642 1.9980469,3.6308594 2.2059031,3.5353681 2.2788348,3.5014591 2.4023438,3.4960938 L 2.390625,3.5410156 C 2.6941447,3.7872399 3.0817629,4.3026825 3.3691406,4.8105469 3.6565183,5.3184111 3.90625,5.9224206 3.90625,6.0800781 c -2.55e-5,0.00508 0.00186,0.00882 0.00195,0.013672 -6.522e-4,0.2948747 0.026206,0.5879668 0.074219,0.8632812 0.4008027,2.2982628 1.3070211,4.5182177 1.7539062,6.7480467 0.1420353,0.708712 0.1884451,1.481435 0.050781,2.142578 -0.092099,0.44232 -0.3761462,1.001187 -0.671875,1.179688 -0.4889133,0.295104 -1.3855948,0.293866 -2.2109375,0.478515 -0.1449612,0.03253 -0.2399779,0.160306 -0.2226563,0.298829 0.017322,0.138522 0.1419427,0.243788 0.2910156,0.24414 h 7.244141 c 0.149251,8.8e-5 0.275393,-0.105479 0.292969,-0.24414 0.01758,-0.138662 -0.07948,-0.266258 -0.22461,-0.298829 C 9.4598116,17.321211 8.5631321,17.322448 8.0742188,17.027344 7.7784896,16.848843 7.4963963,16.289976 7.4042969,15.847656 7.2666325,15.186513 7.313043,14.41379 7.4550781,13.705078 7.9019636,11.475249 8.8062287,9.2552937 9.2070312,6.9570312 9.336837,6.2127101 9.3210539,5.3393514 8.984375,4.6445312 8.6717882,3.9994268 7.9688472,3.6553514 7.5097656,3.2773438 v -0.21875 h 1.1113282 c 0,-0.7866663 -0.1821615,-1.1796876 -0.5488282,-1.1796876 -0.3466666,0 -0.569922,-0.2705472 -0.6699218,-0.8105468 C 7.2956769,0.52836002 7.1321092,0.2093749 6.9121094,0.109375 6.798776,0.05937505 6.6855988,0.03320312 6.5722656,0.03320312 Z m -0.00391,0.484375 c 0.055,0 0.110729,0.0205469 0.1640625,0.0605469 0.1133339,0.0799999 0.2028613,0.3176046 0.2695312,0.71093748 0.073334,0.3933328 0.2039582,0.65263 0.390625,0.7792969 0.1799998,0.1333298 0.3416154,0.1992187 0.4882813,0.1992187 0.1466698,0 0.2207031,0.124427 0.2207031,0.3710938 H 7.5097656 c 0,0 -1.8073439,0.013538 -1.828125,0 H 5.0625 c 0,-0.2466668 0.065886,-0.3710938 0.1992188,-0.3710938 0.1466668,0 0.3133341,-0.065886 0.5,-0.1992187 C 5.9483856,1.9416925 6.0759082,1.6823953 6.1425781,1.2890625 6.2092451,0.8957296 6.2956769,0.65812492 6.4023438,0.578125 6.4590098,0.538125 6.5133594,0.5175781 6.5683594,0.5175781 Z M 6.9199219,3.4003906 c -1.02e-5,0.074896 0.032161,0.147287 0.089844,0.1992188 0.5489992,0.4965059 1.2319403,0.8492115 1.4375,1.2734375 C 8.706375,5.4077837 8.7408561,6.202854 8.625,6.8671875 8.2373652,9.0899426 7.3351484,11.307508 6.875,13.603516 c -0.1518213,0.757542 -0.2072652,1.588705 -0.048828,2.349609 0.1121702,0.538711 0.373606,1.199508 0.9296875,1.535156 0.00541,0.0033 0.01214,0.0066 0.017578,0.0098 H 5.4179688 c 0.00545,-0.0032 0.010198,-0.0065 0.015625,-0.0098 0.5560809,-0.335648 0.8194705,-0.996445 0.9316406,-1.535156 0.1584366,-0.760904 0.10104,-1.592067 -0.050781,-2.349609 C 5.8543046,11.307508 4.9520875,9.0899426 4.5644531,6.8671875 4.4485969,6.202854 4.4830782,5.4077832 4.7421875,4.8730469 c 0.2055593,-0.4242255 0.8885012,-0.7769317 1.4375,-1.2734375 0.057683,-0.051932 0.089854,-0.1243236 0.089844,-0.1992188 -0.027614,-0.3113055 0.6730152,-0.2730954 0.6503904,0 z"
       sodipodi:nodetypes="sssscccccccssssscssscssssscssssscssssccsssccscsscssssccsssscccscscsccsscccssssccscssscssssscscsscsccsccsssscsccscssssscccsccsccccsccccscccsccssssccccsssscccc" />
  </g>
</svg>
