<?xml version="1.0" encoding="UTF-8" standalone="no"?>
<svg
   width="1800"
   height="1798.0869"
   version="1.1"
   id="svg559"
   xmlns="http://www.w3.org/2000/svg"
   xmlns:svg="http://www.w3.org/2000/svg">
  <defs
     id="defs563" />
  <path
     id="path557"
     style="fill:#000000;stroke:none;stroke-width:101.188"
     d="m 904.58031,0 c -11.60417,0 -23.20845,2.6666721 -34.81262,8 -22.5258,9.99999 -39.24954,42.333388 -50.17114,97 -10.239,54.66662 -34.13006,82 -71.67305,82 -35.4952,0 -53.24284,38.33341 -53.24284,115 h 126.96369 l 3.0717,46 c -94.19877,0 -141.2983,75.66682 -141.2983,227 0,58.66661 23.89106,191.33354 71.67305,398 47.78199,206.6665 71.67305,371.0001 71.67305,493 0,56.6666 -42.66261,141.6668 -127.98759,255 -14.3346,0 -21.50192,11 -21.50192,33 0,29.3333 18.43026,44 55.29065,44 h 341.98281 c 37.5431,0 56.3145,-14.6667 56.3145,-44 0,-22 -7.5085,-33 -22.5258,-33 -83.2771,-113.3332 -124.91583,-198.3334 -124.91583,-255 0,-121.9999 23.20843,-286.3335 69.62523,-493 47.0994,-206.66646 70.6491,-339.33339 70.6491,-398 0,-151.33318 -46.0756,-227 -138.22653,-227 v -46 h 126.96363 c 0,-76.66659 -17.7476,-115 -53.2428,-115 -37.543,0 -61.09275,-27.33338 -70.64913,-82 C 978.9838,50.333388 962.60139,17.99999 939.39294,8 927.78876,2.6666721 916.18449,0 904.58031,0 Z m 492.24029,0 c -11.4336,0 -22.9525,2.6666721 -34.5567,8 -23.2084,9.99999 -39.9321,42.000054 -50.1711,96 -10.9217,53.33328 -34.13,80 -69.6253,80 -36.1778,0 -54.2667,39.33341 -54.2667,118 h 127.9876 v 46 c -92.151,0 -138.2266,75.00015 -138.2266,225 0,59.99994 23.2084,193.33354 69.6252,400 47.0995,206.6665 70.6492,370.3334 70.6492,491 0,56.6666 -41.6388,141.6668 -124.9159,255 -15.0173,0 -22.5258,11.6667 -22.5258,35 0,29.3333 18.7714,44 56.3145,44 h 341.9829 c 36.8604,0 55.2906,-14.6667 55.2906,-44 0,-23.3333 -7.5086,-35 -22.5258,-35 -84.6424,-113.3332 -126.9637,-198.3334 -126.9637,-255 0,-120.6666 23.891,-284.3335 71.673,-491 25.0943,-108.53736 43.1935,-195.60303 55.1087,-263.6875 149.4292,-13.57917 102.7268,-172.65497 194.8351,-168.00195 l 1.4759,-93.67188 c -146.6612,-4.16397 -136.1722,112.40909 -180.8285,150.40039 0.6958,-9.37587 1.0819,-17.79885 1.0819,-25.03906 0,-149.99985 -47.0995,-225 -141.2983,-225 v -46 h 130.0354 c 0,-78.66659 -18.7715,-118 -56.3146,-118 -35.4952,0 -58.7036,-26.66672 -69.6252,-80 -10.239,-53.999946 -26.9627,-86.00001 -50.1711,-96 -11.263,-5.3333279 -22.6112,-8 -34.0447,-8 z M 411.06015,2.5 c -11.60419,0 -23.20843,2.500005 -34.81263,7.5 -23.2084,9.99999 -39.93213,42.000054 -50.17113,96 -10.239,53.99995 -33.44747,81 -69.62525,81 -35.4952,0 -53.24284,39.33341 -53.24284,118 h 126.96369 v 45 c -92.15097,0 -138.89921,57.29088 -142.75016,127.80664 -2.6287,48.13487 -3.37572,87.24947 -2.69175,123.17969 C 135.69408,566.44208 150.58383,443.70122 0,447.97656 l 1.4758505,93.67188 C 93.122749,537.01873 47.877742,694.08882 194.61114,709.04297 c 2.25675,11.71344 4.77354,23.35295 7.87723,35 17.01337,63.84538 37.80857,133.11786 60.10617,230.95703 46.41678,206.6665 69.62525,370.3334 69.62525,491 0,56.6666 -41.63871,141.6668 -124.91589,255 -15.0172,0 -22.52582,11.6667 -22.52582,35 0,29.3333 18.77156,43.3333 56.31455,42 h 341.98285 c 36.86038,1.3333 55.29064,-12.6667 55.29064,-42 0,-23.3333 -7.16732,-35 -21.50192,-35 -85.32498,-113.3332 -127.98759,-198.3334 -127.98759,-255 0,-120.6666 23.89106,-284.3335 71.67305,-491 47.78199,-206.66646 71.67305,-340.00006 71.67305,-400 0,-149.99985 -47.09952,-225 -141.2983,-225 V 305 H 620.9598 c 0,-78.66659 -18.77155,-118 -56.31454,-118 -35.4952,0 -58.36235,-27.00005 -68.60135,-81 C 485.12231,52.000054 468.39857,19.99999 445.87278,10 434.26858,5.000005 422.66435,2.5 411.06015,2.5 Z M 1396.8206,49 c 5.6314,0 11.1776,2.000004 16.6383,6 10.9217,7.999992 20.1368,31.666706 27.6454,71 7.5085,38.66663 20.478,64.66668 38.9082,78 19.1128,13.33332 35.8365,20 50.1711,20 15.0173,0 22.5258,12.33335 22.5258,37 h -115.7007 v 87 h -78.8404 v -87 h -115.7008 c 0,-24.66665 6.8261,-37 20.478,-37 14.3346,0 31.3997,-6.66668 51.1951,-20 19.1128,-13.33332 32.0822,-39.33337 38.9082,-78 6.826,-39.333294 15.6998,-63.000008 26.6214,-71 5.8021,-3.999996 11.5189,-6 17.1504,-6 z m -986.01642,2 c 5.63144,0 11.17758,2.000004 16.63838,6 11.6042,7.999992 20.81932,31.666706 27.64532,71 7.50859,39.33329 20.81933,65.33334 39.93213,78 18.43019,13.33332 35.15393,20 50.17114,20 15.0172,0 22.52581,12.33335 22.52581,37 H 450.99228 v 87 H 373.17582 V 263 H 256.45114 c 0,-24.66665 6.82602,-37 20.47801,-37 15.01721,0 32.08224,-6.66668 51.19504,-20 19.1128,-12.66666 32.08223,-38.66671 38.90823,-78 6.826,-39.333294 15.69982,-63.000008 26.62142,-71 5.80209,-3.999996 11.51889,-6 17.15034,-6 z m 493.77613,0 c 5.46077,0 10.92164,2.000004 16.38241,6 10.23901,7.999992 19.11285,31.666706 26.62142,71 7.50857,39.33329 20.81928,65.33334 39.93213,78 19.11283,13.33332 35.49523,20 49.14723,20 15.0172,0 22.5258,11.66669 22.5258,35 H 942.46464 v 87 H 864.64818 V 261 H 747.9235 c 0,-23.33331 7.50861,-35 22.52581,-35 15.01721,0 31.74095,-6.66668 50.17114,-20 19.1128,-12.66666 32.42354,-38.66671 39.93213,-78 6.82601,-39.333294 16.04114,-63.000008 27.64532,-71 5.46077,-3.999996 10.92164,-6 16.38241,-6 z m 0,341 c 107.16819,0 160.75239,50.0001 160.75239,150 0,87.33324 -23.2085,232.66687 -69.62522,436 -47.09944,203.3331 -70.64915,366.0001 -70.64915,488 0,69.9999 42.3213,161.0001 126.96367,273 H 757.1386 c 83.27718,-111.9999 124.91589,-203.0001 124.91589,-273 0,-121.9999 -23.20847,-284.6669 -69.62525,-488 -47.09938,-203.33313 -70.64915,-348.66676 -70.64915,-436 0,-99.9999 54.26685,-150 162.80022,-150 z m 492.49619,0 c 108.5334,0 162.8002,49.33343 162.8002,148 0,88.66658 -23.5497,234.66687 -70.6491,438 -47.0994,203.3331 -70.6492,366.0001 -70.6492,488 0,69.9999 41.9801,161.0001 125.9398,273 h -295.9073 c 85.3249,-111.9999 127.9876,-203.0001 127.9876,-273 0,-121.9999 -23.5497,-284.6669 -70.6491,-488 -47.0995,-203.33313 -70.6492,-349.33342 -70.6492,-438 0,-98.66657 53.9256,-148 161.7763,-148 z m -986.01635,2 c 108.53337,0 162.80022,49.33343 162.80022,148 0,89.33324 -23.54977,235.33353 -70.64915,438 -46.41678,203.3331 -69.62525,366.0001 -69.62525,488 0,69.9999 41.63871,161.0001 124.91589,273 H 263.61844 c 84.64239,-111.9999 126.9637,-203.0001 126.9637,-273 0,-121.9999 -23.54977,-284.6669 -70.64916,-488 -46.41678,-202.66647 -69.62525,-348.66676 -69.62525,-438 0,-98.66657 53.58424,-148 160.75242,-148 z" />
</svg>
