<?xml version="1.0" encoding="UTF-8" standalone="no"?>
<svg
   width="4.4000001"
   height="17.98"
   version="1.1"
   id="svg3657"
   sodipodi:docname="US9W17VARB.svg"
   inkscape:version="1.2.1 (9c6d41e410, 2022-07-14)"
   xmlns:inkscape="http://www.inkscape.org/namespaces/inkscape"
   xmlns:sodipodi="http://sodipodi.sourceforge.net/DTD/sodipodi-0.dtd"
   xmlns="http://www.w3.org/2000/svg"
   xmlns:svg="http://www.w3.org/2000/svg">
  <defs
     id="defs3661" />
  <sodipodi:namedview
     id="namedview3659"
     pagecolor="#ffffff"
     bordercolor="#000000"
     borderopacity="0.25"
     inkscape:showpageshadow="2"
     inkscape:pageopacity="0.0"
     inkscape:pagecheckerboard="0"
     inkscape:deskcolor="#d1d1d1"
     showgrid="false"
     inkscape:zoom="36.332305"
     inkscape:cx="3.770749"
     inkscape:cy="8.2020671"
     inkscape:window-width="1920"
     inkscape:window-height="1017"
     inkscape:window-x="1072"
     inkscape:window-y="-8"
     inkscape:window-maximized="1"
     inkscape:current-layer="svg3657" />
  <path
     style="fill:#000000;stroke:none"
     d="m 2.5935792,3.4836941 v -0.87 h 1.14 c 0,-0.2466667 -0.073333,-0.37 -0.22,-0.37 -0.1466667,0 -0.31,-0.066667 -0.49,-0.2 -0.1866667,-0.1266667 -0.3166667,-0.3866667 -0.39,-0.78 -0.066667,-0.39333326 -0.1566667,-0.62999993 -0.27,-0.70999993 -0.1066667,-0.08 -0.2166667,-0.08 -0.33,0 -0.1066667,0.08 -0.1933333,0.31666667 -0.26,0.70999993 -0.066667,0.3933333 -0.1933333,0.6533333 -0.38,0.78 -0.1866667,0.1333333 -0.3533333,0.2 -0.50000004,0.2 -0.1333333,0 -0.2,0.1233333 -0.2,0.37 H 1.8335792 v 0.87 z m 0.39,0 c 0.92,0 1.38,0.75 1.38,2.25 0,0.6 -0.2333333,1.9333333 -0.7,4 -0.4666667,2.0666669 -0.7,3.7033329 -0.7,4.9099999 0,0.566667 0.4166667,1.416667 1.25,2.55 0.14,0 0.21,0.116667 0.21,0.35 0,0.293333 -0.18,0.433333 -0.54,0.42 H 0.54357916 c -0.3666667,0.01333 -0.55,-0.126667 -0.55,-0.42 0,-0.233333 0.073333,-0.35 0.22,-0.35 0.81333334,-1.133333 1.22000004,-1.983333 1.22000004,-2.55 0,-1.206667 -0.2266667,-2.843333 -0.68000004,-4.9099999 -0.46,-2.0666667 -0.69,-3.4 -0.69,-4 0,-1.5 0.45,-2.25 1.35000004,-2.25 v -0.45 H 0.17357916 c 0,-0.7866667 0.1733333,-1.18 0.52,-1.18 0.35333334,0 0.58000004,-0.27 0.68000004,-0.81 0.1,-0.53999993 0.2633333,-0.85999993 0.49,-0.95999993 0.2266667,-0.1 0.4533333,-0.1 0.68,0 0.22,0.1 0.3833333,0.42 0.49,0.95999993 0.1,0.54 0.3233333,0.81 0.67,0.81 0.3666667,0 0.55,0.3933333 0.55,1.18 h -1.27 z m 0.66,13.9099999 c -0.8133333,-1.12 -1.22,-2.03 -1.22,-2.73 0,-1.22 0.2266667,-2.846667 0.68,-4.8799999 0.46,-2.0266667 0.69,-3.4866667 0.69,-4.38 0,-0.9866667 -0.53,-1.48 -1.59,-1.48 -1.0466667,0 -1.57000004,0.4933333 -1.57000004,1.48 0,0.8933333 0.2266667,2.3533333 0.68000004,4.38 0.46,2.0333329 0.69,3.6599999 0.69,4.8799999 0,0.7 -0.4133333,1.61 -1.24000004,2.73 z"
     id="path3655"
     sodipodi:nodetypes="cccsccccscscccccssscsccscscscccsssccsccccscssscscc" />
</svg>
