<?xml version="1.0" encoding="UTF-8" standalone="no"?>
<!-- Created with Inkscape (http://www.inkscape.org/) -->

<svg
   width="700.45166"
   height="1800"
   id="svg1290"
   version="1.1"
   xml:space="preserve"
   xmlns="http://www.w3.org/2000/svg"
   xmlns:svg="http://www.w3.org/2000/svg"
   xmlns:rdf="http://www.w3.org/1999/02/22-rdf-syntax-ns#"
   xmlns:cc="http://creativecommons.org/ns#"
   xmlns:dc="http://purl.org/dc/elements/1.1/"><defs
     id="defs3" /><metadata
     id="metadata4"><rdf:RDF><cc:Work
         rdf:about=""><dc:format>image/svg+xml</dc:format><dc:type
           rdf:resource="http://purl.org/dc/dcmitype/StillImage" /><cc:license
           rdf:resource="http://creativecommons.org/licenses/by/2.0/" /><dc:subject><rdf:Bag><rdf:li>JSesh hieroglyph</rdf:li></rdf:Bag></dc:subject><dc:creator><cc:Agent><dc:title>Serge Rosmorduc</dc:title></cc:Agent></dc:creator><dc:description>Sign from Karnak Hypostyle Hall&#10;</dc:description></cc:Work><cc:License
         rdf:about="http://creativecommons.org/licenses/by/2.0/"><cc:permits
           rdf:resource="http://web.resource.org/cc/Reproduction" /><cc:permits
           rdf:resource="http://web.resource.org/cc/Distribution" /><cc:requires
           rdf:resource="http://web.resource.org/cc/Notice" /><cc:requires
           rdf:resource="http://web.resource.org/cc/Attribution" /><cc:permits
           rdf:resource="http://web.resource.org/cc/DerivativeWorks" /><cc:requires
           rdf:resource="http://web.resource.org/cc/ShareAlike" /></cc:License></rdf:RDF></metadata><path
     id="path1429"
     style="color:#000000;display:inline;overflow:visible;visibility:visible;fill:#000000;fill-opacity:1;fill-rule:nonzero;stroke:none;stroke-width:3178.05;stroke-linecap:square;stroke-linejoin:round;stroke-miterlimit:4;stroke-dashoffset:0;stroke-opacity:1;marker:none;marker-start:none;marker-mid:none;marker-end:none"
     d="M 362.30664,0 C 231.54327,0 81.564453,75.393674 81.564453,230.35742 c -7.491048,94.59102 1.926692,189.8509 11.765625,283.99805 28.919012,228.3303 113.452792,443.70135 184.998042,661.22263 h -0.44726 -41.98242 c -32.98644,0 -49.48047,6.4935 -49.48047,19.4824 0,7.2345 -4.76216,64.2392 6.0906,65.3146 24.02778,2.3808 49.72426,2.6263 73.95463,3.099 0.21637,3.3266 -23.70841,25.1325 -31.97372,32.7604 -40.94463,47.8446 -70.26897,78.7437 -80.82346,143.4471 H 78.205994 c -17.992682,0 -26.990234,8.4057 -26.990234,25.2149 0,16.8089 8.997552,25.2129 26.990234,25.2129 h 70.267966 c -1.30594,12.1479 -0.80554,40.8769 5.19206,92.832 H 79.704041 c -18.992321,0 -28.488281,8.4039 -28.488281,25.2129 0,16.0451 8.997552,24.0684 26.990234,24.0684 h 75.460026 c 30.38018,95.5465 82.34357,168.1893 209.52539,167.6035 127.18181,-0.5858 187.64182,-81.9466 210.2207,-167.6035 l 69.52955,0.7384 c 18.99121,0.2017 28.49024,-8.0233 28.49024,-24.0684 0,-16.809 -9.49903,-25.0112 -28.49024,-25.2129 l -69.52955,-0.7384 c 4.99799,-51.9551 2.78276,-80.6841 3.69206,-92.832 l 65.83749,0.7384 c 18.99109,0.213 28.49024,-8.404 28.49024,-25.2129 0,-16.8092 -9.49903,-25.0132 -28.49024,-25.2149 l -69.52955,-0.7384 c -9.39159,-62.9427 -45.25526,-107.1716 -77.94105,-138.2949 -10.31444,-9.8213 -26.89438,-27.6208 -32.29366,-34.2801 8.5309,0 49.99907,2.584 64.19798,-4.337 14.11968,-6.8821 8.40001,-58.685 8.40001,-67.7091 0,-12.9888 -15.9936,-19.4824 -47.98047,-19.4824 H 445.8125 438.56445 C 455.72929,1126.1382 621.77,658.29523 630.67383,399.71875 637.84187,297.38374 647.88389,182.22428 579.44727,96.537109 536.72537,37.707229 491.84956,0 362.30664,0 Z m -3.14258,60.636719 c 69.05338,0 115.71374,10.187787 154.70117,54.240231 53.47094,53.25887 63.71059,132.36397 58.64649,204.29493 C 571.53838,484.52145 542.3297,648.5191 493.95508,806.37695 457.77427,930.53602 414.83917,1052.5771 374.99219,1175.5781 H 343.32812 C 325.32198,1124.4289 151.38197,637.36664 143.04492,372.08594 141.53712,291.09766 129.88756,199.44158 185.33984,132.01172 219.62917,84.969589 288.89144,60.636719 359.16406,60.636719 Z M 334.00115,1264.943 h 55.47852 c 25.25803,35.207 116.57038,91.9806 116.45978,174.7386 H 221.13672 c 8.33889,-88.8518 81.32073,-131.2828 112.86443,-174.7386 z m -116.64716,224.5359 292.36819,2.5219 c 1.84572,9.3022 1.21527,38.9855 -3.78273,90.9406 H 221.13672 c -5.9975,-51.9551 -5.36705,-83.5298 -3.78273,-93.4625 z m 11.28078,142.7438 h 269.80859 c -20.65938,80.2352 -61.00281,108.0782 -136.42969,106.2226 -75.42687,-1.8556 -120.50665,-38.5447 -133.3789,-106.2226 z" /></svg>
