<?xml version="1.0" encoding="UTF-8" standalone="no"?>
<!-- Created with Inkscape (http://www.inkscape.org/) -->

<svg
   id="svg1342"
   sodipodi:version="0.32"
   inkscape:version="1.2.1 (9c6d41e410, 2022-07-14)"
   width="18"
   height="18"
   sodipodi:docname="US9W14VARA.svg"
   version="1.1"
   xmlns:inkscape="http://www.inkscape.org/namespaces/inkscape"
   xmlns:sodipodi="http://sodipodi.sourceforge.net/DTD/sodipodi-0.dtd"
   xmlns="http://www.w3.org/2000/svg"
   xmlns:svg="http://www.w3.org/2000/svg"
   xmlns:rdf="http://www.w3.org/1999/02/22-rdf-syntax-ns#"
   xmlns:cc="http://creativecommons.org/ns#"
   xmlns:dc="http://purl.org/dc/elements/1.1/">
  <metadata
     id="metadata1347">
    <rdf:RDF>
      <cc:Work
         rdf:about="">
        <dc:format>image/svg+xml</dc:format>
        <dc:type
           rdf:resource="http://purl.org/dc/dcmitype/StillImage" />
        <dc:date>05/02/2006</dc:date>
        <dc:creator>
          <cc:Agent>
            <dc:title>Serge Thomas</dc:title>
          </cc:Agent>
        </dc:creator>
        <dc:publisher>
          <cc:Agent>
            <dc:title>Serge Rosmorduc</dc:title>
          </cc:Agent>
        </dc:publisher>
        <dc:description>valeur : mr orientation différente de U6</dc:description>
        <cc:license
           rdf:resource="http://creativecommons.org/licenses/GPL/2.0/" />
      </cc:Work>
      <cc:License
         rdf:about="http://creativecommons.org/licenses/GPL/2.0/">
        <cc:permits
           rdf:resource="http://web.resource.org/cc/Reproduction" />
        <cc:permits
           rdf:resource="http://web.resource.org/cc/Distribution" />
        <cc:requires
           rdf:resource="http://web.resource.org/cc/Notice" />
        <cc:permits
           rdf:resource="http://web.resource.org/cc/DerivativeWorks" />
        <cc:requires
           rdf:resource="http://web.resource.org/cc/ShareAlike" />
        <cc:requires
           rdf:resource="http://web.resource.org/cc/SourceCode" />
      </cc:License>
    </rdf:RDF>
  </metadata>
  <defs
     id="defs1345" />
  <sodipodi:namedview
     inkscape:window-height="1017"
     inkscape:window-width="1920"
     inkscape:pageshadow="2"
     inkscape:pageopacity="0.0"
     borderopacity="1.0"
     bordercolor="#666666"
     pagecolor="#ffffff"
     id="base"
     inkscape:zoom="21.310474"
     inkscape:cx="9.7135336"
     inkscape:cy="10.464338"
     inkscape:window-x="1072"
     inkscape:window-y="-8"
     inkscape:current-layer="svg1342"
     inkscape:showpageshadow="2"
     inkscape:pagecheckerboard="0"
     inkscape:deskcolor="#d1d1d1"
     inkscape:document-units="px"
     showgrid="false"
     inkscape:window-maximized="1" />
  <path
     id="path1335"
     style="fill:#000000;stroke:none;stroke-width:0.92786"
     d="M 6.2675781,0.04296875 C 6.1053386,0.04298886 5.9726722,0.17510443 5.9726562,0.33789062 V 0.8359375 c 5.3e-6,0.15742169 0.1245289,0.2875278 0.28125,0.2949219 l 1.8535157,0.085937 V 2.2988281 C 7.6523284,2.6991133 6.9539103,3.0671969 6.6445312,3.7519531 6.6221675,3.8014515 6.6035437,3.8532073 6.5839844,3.9042969 5.4894781,3.8439893 4.3470879,3.7840823 3.2910156,3.7207031 2.6900766,2.8146635 2.3261719,1.6503906 2.3261719,1.6503906 c -0.1249293,-0.1459163 -0.850085,-0.1229624 -1,-0.017578 0,0 0.4255459,1.4858546 0.8261719,2.0019531 L 0.32675882,3.5399611 C -0.02257271,3.5316072 -0.00108687,4.3028245 0.20851683,4.4980469 L 2.6054688,4.6640625 c 0,0 0.992794,1.1815875 1.4589843,1.5664063 0.3773292,0.3114674 1.3042399,0.9059389 2.7265625,1.7539062 0.4418927,1.8216174 0.9060646,2.815066 1.241111,4.608004 0.1408065,0.7535 0.1852613,1.576557 0.048828,2.279297 -0.091251,0.470045 -0.2141483,1.022612 -0.4763095,1.251953 -0.4407045,0.385532 -1.4304188,1.1057 -2.2491764,1.302152 -0.1443665,0.03523 -0.240116,0.174223 -0.2226563,0.322266 0.017464,0.148042 0.1424425,0.259324 0.2910156,0.259765 h 7.183594 c 0.148517,-5.91e-4 0.271686,-0.113723 0.289062,-0.261718 0.01737,-0.147994 -0.07639,-0.285103 -0.220703,-0.320313 -0.818757,-0.196452 -1.736253,-0.916621 -2.133636,-1.302152 -0.249999,-0.242543 -0.488102,-0.781907 -0.5793603,-1.251953 -0.1364373,-0.70274 -0.090029,-1.525797 0.050781,-2.279297 0.213544,-1.142752 0.387428,-1.488937 0.705184,-2.6373009 2.354437,0.8887219 4.644709,1.5370859 6.867188,1.9355469 0,0 0.372068,0.01992 0.392578,-0.599609 0.02051,-0.619532 -0.346092,-0.577089 -0.949219,-0.667969 -1.622229,-0.136536 -3.647409,-0.6674417 -6.0625,-1.576172 0.251444,-0.9364444 0.48509,-1.8794399 0.640625,-2.8359375 0.05253,-0.3230488 0.07767,-0.669318 0.07031,-1.015625 L 14.59375,5.3847656 C 15.403362,5.1870892 15.464726,4.7786757 14.775391,4.1601562 L 11.492188,4.0273438 C 11.460836,3.9331689 11.425092,3.8412081 11.384766,3.7519531 11.075382,3.0671967 10.378921,2.6991134 9.9238281,2.2988281 V 1.2167969 l 1.9140629,-0.085937 c 0.156958,-0.00709 0.279275,-0.13727327 0.279297,-0.2949219 V 0.33789062 C 12.117166,0.17510443 11.986456,0.04298489 11.824219,0.04296875 Z M 8.6953125,1.1894531 h 0.640625 c 4.03e-5,0.079893 0.032579,1.3956604 0.089844,1.4511719 0.5446814,0.5283032 1.2204105,0.9032836 1.4238275,1.3535156 0.167245,0.2593596 0.253755,0.684647 0.234375,1.1621094 0.01196,0.3236217 -0.0071,0.6540278 -0.05664,0.9589844 -0.147401,0.9064765 -0.615235,2.7226562 -0.615235,2.7226562 l -0.248047,0.90625 c 0,0 -0.5053305,1.5439614 -0.728621,2.7388634 -0.1505719,0.805762 -0.2059999,1.690489 -0.048828,2.5 0.1112927,0.573217 0.1386142,1.681703 1.629532,2.414664 -0.32626,-0.0077 -3.4705539,-0.03743 -3.866378,-0.03743 1.3324442,-0.699082 1.4424766,-1.54399 1.5940123,-2.391678 C 8.8888918,14.156805 8.7588656,13.288766 8.6082961,12.483004 8.3236329,11.090209 8.0992262,10.588316 7.7910156,9.46875 7.6937058,9.1147586 7.5058594,8.4082031 7.5058594,8.4082031 L 7.2148438,7.1972656 c 0,0 -0.1523132,-0.7215077 -0.2109376,-1.0820312 C 6.9381414,5.7108066 6.922988,5.2616394 6.96875,4.84375 6.9665955,4.7143539 7.0769287,4.1573195 7.2070312,3.9394531 7.4380675,3.5129522 8.0828497,3.1475289 8.6054688,2.640625 8.6627326,2.5851135 8.6952856,1.2693466 8.6953125,1.1894531 Z m -4.875,3.484375 L 6.3769531,4.8125 c -0.048578,0.4709763 -0.0251,0.9558119 0.046875,1.3984375 0.030278,0.1861994 0.063956,0.3713745 0.099609,0.5566406 C 5.5302829,6.1226819 4.6284129,5.4245827 3.8203125,4.6738281 Z"
     sodipodi:nodetypes="ccccccsccccccccscscsccccccsscccsccscccccccccccccccccsccssccsccccsccccccscc" />
</svg>
