<?xml version="1.0" encoding="UTF-8" standalone="no"?>
<svg
   width="15.93"
   height="17.98"
   version="1.1"
   id="svg373"
   sodipodi:docname="US9W17VARB.svg"
   inkscape:version="1.2.1 (9c6d41e410, 2022-07-14)"
   xmlns:inkscape="http://www.inkscape.org/namespaces/inkscape"
   xmlns:sodipodi="http://sodipodi.sourceforge.net/DTD/sodipodi-0.dtd"
   xmlns="http://www.w3.org/2000/svg"
   xmlns:svg="http://www.w3.org/2000/svg">
  <defs
     id="defs377" />
  <sodipodi:namedview
     id="namedview375"
     pagecolor="#ffffff"
     bordercolor="#000000"
     borderopacity="0.25"
     inkscape:showpageshadow="2"
     inkscape:pageopacity="0.0"
     inkscape:pagecheckerboard="0"
     inkscape:deskcolor="#d1d1d1"
     showgrid="false"
     showguides="true"
     inkscape:zoom="34.634185"
     inkscape:cx="7.867949"
     inkscape:cy="11.607029"
     inkscape:window-width="1920"
     inkscape:window-height="1137"
     inkscape:window-x="-8"
     inkscape:window-y="-8"
     inkscape:window-maximized="1"
     inkscape:current-layer="svg373" />
  <path
     id="path371"
     style="fill:#000000;stroke:none"
     d="m 3.5820312,0.05273437 0.00977,2.18359373 H 1.6972656 v 1.5351563 h 1.9003906 l 0.011719,2.6484375 c -2.91999124,0 -3.60203119,2.262815 -3.58203125,3.1328125 L 0,17.984375 l 1.3046875,0.0059 c 0,0 0.1209403,-6.985777 0.1347656,-7.982422 C 1.462911,8.3167411 3.5507813,7.9492188 3.5507812,7.9492188 V 17.964844 c 0.3152082,-0.0449 1.0744942,0.0129 1.6289063,-0.02148 L 5.1308594,7.9707031 h 1.96875 l 0.080476,9.9988409 c 0.043193,0.0019 1.5480337,0.01598 1.5480337,0.01598 L 8.7402303,7.9491778 h 1.9707037 l -0.01953,9.9941402 1.529825,0.0289 0.115236,-10.0331601 c 0,0 2.189332,-0.010889 2.176676,2.2962651 -0.0144,2.624699 -0.02734,7.760375 -0.02734,7.760375 l 1.375,-0.01915 0.03692,-8.6668188 c 0.0051,-0.8399783 -0.971803,-2.9116939 -3.621794,-2.9116939 l -0.01172,-2.6484375 h 1.566407 V 2.2144465 H 12.258348 L 12.248548,0.03085273 10.72849,0.05273437 10.72259,2.2363281 H 8.7011719 V 0.05273437 H 7.0996094 V 2.2363281 H 5.0097656 L 4.9941406,0.05273437 Z M 5.0214844,3.7714844 h 2.078125 V 6.359375 H 5.0390625 Z m 3.6777344,0 H 10.71875 l -0.0078,2.6289062 H 8.6992188 Z"
     sodipodi:nodetypes="cccccccccsccccccccccccscccccccccccccccccccccccccccc" />
</svg>
