<?xml version="1.0" encoding="UTF-8" standalone="no"?>
<svg
   width="1791.196"
   height="1800.8997"
   version="1.1"
   id="svg1"
   xmlns="http://www.w3.org/2000/svg"
   xmlns:svg="http://www.w3.org/2000/svg">
  <defs
     id="defs1" />
  <path
     id="path1"
     style="fill:#000000;stroke:none;stroke-width:100"
     d="m 1539.1963,0 c -117.9999,0 -198,43.000082 -240,128 l -28,-75 h -40 v 87 c -17,1.99999 -32,4 -44,4 -11,0 -20,-1.00001 -28,-4 -6,-3 -13,-4 -20,-4 -9,0 -19,2 -29,7 -18,7.99999 -30,20.00002 -35,41 -4,19.99998 -13,36.00001 -31,46 -7,3.99999 -15,6 -22,6 -9,0 -19,-3.00001 -26.99991,-9 -8,-5 -16.00001,-8 -24,-8 -9,0 -17.00001,3 -26,8 -17.99999,9.99999 -29.00001,23.00002 -31,44 -3,19.99998 -12.00002,37.00001 -28,49 -9.99999,7.99999 -20.00001,11 -30,11 -7,0 -13.00001,-2.00001 -20,-4 -5,-2 -10.00001,-3 -15,-3 -11.99999,0 -24.00002,6.00001 -35,18 -15.99999,16.99998 -22,38.00002 -22,59 0,20.99997 -7.00002,38.00001 -21,53 -11.99999,12.99998 -27.00002,20 -41,20 -3,0 -6.00001,-1 -9,-1 -3,-1 -7.00001,-1 -10,-1 -12.99999,0 -25.00002,6.00001 -37,19 -13.99999,16.99998 -19.00004,36.00002 -15,56 2.99999,20.99997 2e-5,38.00001 -13,56 -11.99999,18.99998 -26.00002,28 -43,28 -17.99999,0 -33.00002,10.00001 -44,28 -10.99999,18.99998 -15,37.00001 -9,56 5.99999,19.99998 5.99999,39.00002 -3,59 -9.99999,19.99998 -23.00002,34 -41,38 -16.99999,3.99999 -28.00001,13.00002 -37,34 -9,20.99997 -9.99999,41.00001 0,59 9.99999,17.99998 12.99999,38.00002 6,59 -6,21.99997 -20.00002,37 -37,44 -16.99999,7 -26.00001,19 -31,40 -5,22 -1.99999,43 9,59 10.99998,16 14.99999,34 12,56 -0.0302,0.3472 -0.11792,0.6282 -0.1504,0.9727 -8.3745,14.2975 -48.1081,25.2913 -53.54696,40.928 -10.79904,31.0472 6.94345,61.0993 6.94345,61.0993 -31.91182,26.1034 -106.4534,64.6866 -98.06945,81.4972 H 0 c 44.471602,151.1279 88.91611,302.2647 133.35545,453.4024 h 358.11134 c 44.43934,-151.1377 88.88784,-302.2744 133.35938,-453.4024 H 363.97264 c 20.94203,-21.9947 100.16363,-46.044 108.10461,-76.4308 0,0 -19.52858,-34.518 6.11914,-52.0664 14.99998,-9 23,-24 25,-43 2,-19 -2,-38 -12,-53 -10.99999,-15 -15,-33 -10,-56 5,-23 15.00001,-37 31.00001,-44 16.99998,-6 26,-20 32,-37 4.99999,-16.99999 5.99999,-35.00002 -4,-53 -9,-17.99999 -11,-37.00003 -3,-59 7.99999,-21.99998 20.00001,-34.00001 38,-37 16.99998,-4 32,-13.00002 40,-28 7.99999,-15.99999 6.99999,-34.00002 0,-53 -6,-19.99998 -1.99999,-39.00002 9,-59 11.00001,-18.99999 25.00001,-28 41,-28 h 3 3 c 15.99998,0 28,-8.00002 37,-22 9.99999,-14.99999 12.99999,-32.00003 10,-53 -4,-19.99998 1.00001,-39.00002 15,-56 11.99998,-12.99999 24.00001,-20 37,-20 2.99999,0 7,1 10,1 3.99999,0.99999 8,2 11,2 12.99998,0 23,-5.00001 32,-14 11.99998,-11.99999 19,-29.00003 19,-50 0,-19.99998 9.00001,-36.00002 25,-50 9.99999,-9 20.00001,-13 30,-13 4.99999,0 11,1 17,4 6.99999,2.99999 14,5 21,5 8.99999,0 18,-3.00001 25,-8 13.99998,-9 22,-26.00003 25,-47 2.99999,-20.99998 12.99995,-36.00001 30.9999,-46 10,-5 19,-8 27,-8 8,0 16,2 23,8 9,5.99999 17,10 26,10 6,0 11,-1.00001 18,-4 16,-8 27,-23.00003 31,-44 3,-20.99998 17,-36.00001 37,-40 3,-1 6,-1 9,-1 16,0 29,11.00001 41,29 h 3 v 90 h 40 l 28,-71 c 42,82.99991 122.0001,124 240,124 167.9998,0 252,-65.00014 252,-196 0,-132.99987 -84.0002,-199 -252,-199 z m 0,62 c 124.9999,0 186,43.00008 186,131 0,92.9999 -61.0001,140 -186,140 -94.9999,0 -159,-38.00008 -190,-115 h -59 v -47 h 59 c 31,-70.99993 95.0001,-109 190,-109 z M 81.99023,1404.1496 H 542.125 c -33.348,113.3666 -66.695,226.7346 -100.04298,340.1015 H 182.03319 C 148.68541,1630.8842 115.33821,1517.5162 81.99023,1404.1496 Z" />
</svg>
