<?xml version="1.0" encoding="UTF-8" standalone="no"?>
<svg
   width="1799.8564"
   height="1796.713"
   version="1.1"
   id="svg1"
   xmlns="http://www.w3.org/2000/svg"
   xmlns:svg="http://www.w3.org/2000/svg">
  <defs
     id="defs1" />
  <path
     id="path1"
     style="fill:#000000;stroke:none;stroke-width:96.3191"
     d="M 896.85009,0 C 886.32766,0 875.80418,2.6647647 865.28173,7.9940009 844.85581,17.986311 829.69107,50.29581 819.78759,104.92047 c -9.2845,54.62463 -30.94903,81.93483 -64.99219,81.93483 -32.18627,0 -48.2793,38.30577 -48.2793,114.91351 h 115.12891 l 2.78516,45.96497 c -80.2016,0 -122.73951,66.67714 -127.63672,199.99086 C 691.85522,415.73922 649.31364,349.73071 569.15868,349.73071 V 304.7684 h 117.91407 c 0,-78.60623 -17.02129,-117.9131 -51.06446,-117.9131 -32.18623,0 -52.92255,-26.97789 -62.20703,-80.93636 -9.9035,-53.958503 -25.06825,-85.935704 -45.49414,-95.9280154 -21.04484,-9.99231573 -42.08989,-9.99231573 -63.13476,0 -21.04486,9.9923114 -36.20967,41.9695124 -45.49415,95.9280154 -9.28452,53.95847 -30.32952,80.93636 -63.13476,80.93636 -32.18626,0 -48.2793,39.30687 -48.2793,117.9131 H 423.3911 v 44.96231 c -57.15149,0 -95.71518,43.3053 -105.1582,82.49817 -2.25118,9.34353 -70.53194,-4.48604 -72.24023,6.04963 -0.50634,3.12283 -2.60807,12.60925 -3.92578,18.87198 -30.11452,8.68323 -174.647389,77.46558 -184.11329,150.19809 -9.269095,79.90273 105.44557,110.2676 62.84766,152.73734 -33.256385,30.16033 -85.062634,50.40822 -87.638676,104.20788 1.654446,66.55632 96.474616,91.34423 96.474616,118.47013 0,34.88437 -117.595709,49.54067 -117.595709,126.55877 0,77.259 118.566409,92.689 118.566409,127.6075 0,39.6979 -126.3417999,54.0957 -126.3417999,135.9737 5.2544473,82.0067 116.6249999,88.8306 116.6249999,125.5141 0,37.5132 -111.093284,50.9838 -120.30468742,126.2854 -8.01438778,65.5162 68.74533142,107.3704 70.10351542,146.8244 0.497113,14.4321 11.769895,25.6991 25.179688,25.1633 13.409064,-0.5348 23.877494,-12.668 23.380864,-27.0993 -2.33297,-67.7703 -74.81294,-102.6937 -70.486333,-138.0631 5.103703,-41.7214 116.497233,-49.0035 120.718753,-133.1107 0,-76.4837 -116.62305,-91.1685 -116.62305,-125.5141 0,-41.5471 121.70046,-48.1269 126.3418,-135.9737 0,-77.5552 -118.568362,-92.1868 -118.568363,-127.6075 0,-38.6779 105.748173,-36.0439 117.597663,-126.55877 0,-64.60765 -96.472663,-91.92767 -96.472663,-118.47013 0,-28.11575 86.408313,-47.66938 97.437503,-113.65859 8.13961,-66.54006 -77.25875,-104.2251 -73.11914,-136.03254 2.68173,-20.60505 56.93842,-62.75019 124.06445,-96.9517 -0.69834,4.36952 -1.60631,9.39572 -1.76757,12.06983 -0.43431,7.20211 19.15254,8.75129 38.1264,17.2144 9.90111,13.40574 16.00381,211.96846 21.07695,215.76269 9.32732,6.97597 25.83219,15.32604 36.15495,19.19669 5.5797,25.47283 20.30777,104.96702 38.38193,192.36035 42.08972,206.50777 63.13477,370.05137 63.13477,490.62527 0,56.6233 -37.7576,141.5572 -113.27149,254.8032 -13.61731,0 -20.42383,11.6582 -20.42383,34.9735 0,29.3111 17.02127,43.301 51.06446,41.9691 h 310.10351 c 22.4355,0.8943 37.15722,-5.2833 44.53321,-18.1952 7.68318,12.0766 22.16077,18.1952 43.61523,18.1952 h 310.10358 c 20.4757,0 34.6716,-5.4076 42.832,-16.0112 8.1602,10.6037 22.3561,16.0112 42.832,16.0112 h 310.1035 c 33.4244,0 50.1368,-14.6552 50.1368,-43.966 0,-23.3157 -6.8108,-34.9756 -20.4278,-34.9756 -76.7523,-113.2459 -115.1269,-198.1805 -115.1269,-254.8032 0,-120.5739 22.4103,-283.9372 64.9902,-490.62529 28.1025,-136.41299 30.2236,-172.63371 33.607,-188.89213 0,0 26.0903,-0.28983 40.4696,-12.12403 7.0991,-11.07272 17.5177,-159.61285 26.7043,-214.24022 0.7527,-4.47583 24.3489,-15.70729 27.4123,-19.13489 3.4368,-3.84524 2.3825,-32.13826 2.3464,-32.38389 69.1254,34.57141 134.1899,88.07286 136.9291,109.12192 4.1398,31.80744 -81.259,69.49249 -73.1191,136.03254 11.0291,65.98921 97.4375,85.54283 97.4375,113.65859 0,26.54245 -96.4726,53.86248 -96.4726,118.47013 11.8493,90.51487 117.5957,87.88087 117.5957,126.55877 0,35.4207 -118.5665,50.0523 -118.5665,127.6075 4.6411,87.8468 126.3399,94.4266 126.3399,135.9737 0,34.3456 -116.6211,49.0304 -116.6211,125.5141 4.2215,84.1072 115.6149,91.3893 120.7188,133.1107 4.3262,35.3694 -68.1535,70.2928 -70.4864,138.0631 -0.4966,14.4313 9.97,26.5645 23.3789,27.0993 13.41,0.5358 24.6845,-10.7312 25.1817,-25.1633 1.3583,-39.454 78.116,-81.3082 70.1015,-146.8244 -9.2114,-75.3016 -120.3027,-88.7722 -120.3027,-126.2854 0,-36.6835 111.3707,-43.5074 116.625,-125.5141 0,-81.878 -126.3438,-96.2758 -126.3438,-135.9737 0,-34.9185 118.5684,-50.3485 118.5684,-127.6075 0,-77.0181 -117.5957,-91.6744 -117.5957,-126.55877 0,-27.12591 94.8183,-51.91382 96.4727,-118.47013 -2.5761,-53.79967 -54.3823,-74.04755 -87.6387,-104.20788 -42.5981,-42.46974 72.1167,-72.83462 62.8476,-152.73734 -10.0287,-77.05644 -166.8614,-149.00401 -183.3875,-150.40605 -1.736,-8.15823 -0.6303,-16.42842 -1.2447,-20.2177 l -81.0885,5.35624 c -18.6501,-68.76478 -55.1633,-94.34729 -113.0019,-94.34729 v -45.96497 h 117.9121 c 0,-78.6062 -17.0213,-117.911 -51.0645,-117.911 -32.1865,0 -53.2314,-26.64555 -63.1347,-79.9379 -9.2847,-53.958499 -24.4492,-85.933597 -45.4942,-95.9259091 -20.4256,-10.658469 -41.1622,-10.658469 -62.207,0 -21.045,9.9923121 -36.2094,41.9674101 -45.4941,95.9259091 -9.9035,53.29235 -30.9482,79.9379 -63.1348,79.9379 -32.8055,0 -49.207,39.3048 -49.207,117.911 h 116.0566 v 45.96497 c -74.4687,0 -115.5364,59.91959 -123.6387,178.9622 -8.3461,-119.09473 -49.42,-178.9622 -123.57615,-178.9622 v -45.96497 h 115.12695 c 0,-76.60774 -16.0928,-114.91351 -48.2793,-114.91351 -34.043,0 -55.39735,-27.3102 -64.0625,-81.93483 C 964.31742,50.29581 949.46136,17.986311 928.4165,7.9940009 917.89408,2.6647647 907.37251,0 896.85009,0 Z m 393.67771,48.962468 c 5.1061,0 10.1366,1.99805 15.0879,5.994974 9.904,7.993852 18.2579,31.642337 25.0664,70.945448 6.8087,38.63695 18.5712,64.61787 35.2832,77.94098 17.3313,13.32306 32.4957,19.98395 45.4942,19.98395 13.6174,0 20.4277,12.32482 20.4277,36.97252 h -104.9179 v 86.93344 h -71.4903 v -86.93344 h -104.916 c 0,-24.6477 6.1908,-36.97252 18.5703,-36.97252 12.9983,0 28.472,-6.66086 46.4219,-19.98395 17.3311,-13.32311 29.0912,-39.30403 35.2812,-77.94098 6.1898,-39.303111 14.2366,-62.951596 24.1407,-70.945448 5.2607,-3.996924 10.4441,-5.994974 15.5507,-5.994974 z m -794.01951,1.999024 c 5.10648,0 10.13613,1.998051 15.08789,5.994976 10.5224,7.993855 18.87676,31.642353 25.06641,70.945452 6.80864,39.3031 18.87989,65.28408 36.21094,77.94098 16.71207,13.3231 31.87686,19.98395 45.49414,19.98395 13.61726,0 20.42578,12.3248 20.42578,36.97251 H 532.9497 v 86.93135 H 462.3872 V 262.79936 H 356.54345 c 0,-24.64771 6.18906,-36.97251 18.56836,-36.97251 13.61727,0 29.09282,-6.66085 46.42383,-19.98395 17.33107,-12.6569 29.09157,-38.63788 35.28125,-77.94098 6.18965,-39.303099 14.23521,-62.951597 24.13867,-70.945452 5.26119,-3.996925 10.44627,-5.994975 15.55273,-5.994976 z m 400.3418,0 c 4.95169,0 9.90371,1.998051 14.85547,5.994976 9.28451,7.993855 17.33005,31.642353 24.13867,70.945452 6.80861,39.3031 18.87793,65.28408 36.20898,77.94098 17.33108,13.32308 32.18719,19.98395 44.56639,19.98395 13.6176,0 20.4258,11.65812 20.4258,34.97349 H 931.20165 v 86.93344 h -70.5625 V 260.80034 H 754.7954 c 0,-23.31537 6.80856,-34.97349 20.42578,-34.97349 13.6173,0 28.78202,-6.66085 45.49414,-19.98395 17.33105,-12.6569 29.40231,-38.63788 36.21094,-77.94098 6.18963,-39.303099 14.54399,-62.951597 25.06641,-70.945452 4.9517,-3.996925 9.90569,-5.994975 14.85742,-5.994976 z m 0,340.738238 c 97.17783,0 145.76561,49.96384 145.76561,149.887 0,87.26622 -21.0451,232.48861 -63.13475,435.66569 -42.7087,203.17698 -64.0625,365.72158 -64.0625,487.62778 0,69.9464 38.37527,160.8763 115.12695,272.7903 H 763.15282 c 75.51387,-111.914 113.26954,-202.8439 113.26954,-272.7903 0,-121.9062 -21.0431,-284.4508 -63.13282,-487.62778 -42.70864,-203.17708 -64.06445,-348.39947 -64.06445,-435.66569 0,-99.92316 49.20935,-149.88699 147.625,-149.887 z m 393.91021,0 c 98.4158,0 147.625,49.29716 147.625,147.88797 0,88.59852 -21.3559,234.48764 -64.0645,437.66472 -42.7086,203.17698 -64.0625,365.72158 -64.0625,487.62778 0,69.9464 38.0664,160.8763 114.1992,272.7903 h -268.3222 c 77.3709,-111.914 116.0547,-202.8439 116.0547,-272.7903 0,-121.9062 -21.3544,-284.4508 -64.0625,-487.62778 -42.7091,-203.17708 -64.0625,-349.0662 -64.0625,-437.66472 0,-98.59081 48.8986,-147.88797 146.6953,-147.88797 z m -794.01959,1.99904 c 98.41565,0 147.62305,49.29714 147.62305,147.88796 0,89.26467 -21.35384,235.15382 -64.0625,437.66472 -42.0897,203.17705 -63.13476,365.72135 -63.13476,487.62775 0,69.9459 37.75565,160.8765 113.26953,272.7903 H 363.04345 c 76.75185,-111.9138 115.12694,-202.8444 115.12695,-272.7903 -10e-6,-121.9064 -21.35381,-284.4507 -64.0625,-487.62775 -42.08972,-202.5109 -63.13476,-348.40005 -63.13476,-437.66472 0,-98.59082 48.58987,-147.88796 145.76757,-147.88796 z m -227.61718,71.41629 37.49218,5.56827 -10.95312,55.06885 -38.49609,-13.72623 z m 1252.52067,7.73864 0.6355,41.48552 -34.4207,9.14042 -4.3902,-46.34645 z M 696.79931,586.99888 c 2.4854,63.52325 23.81558,191.36598 64.49609,385.25703 43.32763,206.50789 64.99024,370.71809 64.99024,492.62429 0,56.6233 -38.68393,141.5572 -116.05469,254.8032 -5.88372,0 -10.36549,2.3736 -13.58594,6.8778 -3.20122,-4.4938 -7.58059,-6.8778 -13.28711,-6.8778 -77.37078,-113.246 -116.05469,-198.1799 -116.05469,-254.8032 0,-120.5739 21.66255,-284.1175 64.99024,-490.62527 40.72821,-194.11838 62.06235,-322.63414 64.50586,-387.25605 z m 397.05859,20.34129 c 5.6217,70.00943 25.941,191.19696 61.3477,364.91574 42.7085,206.50789 64.0625,370.05139 64.0625,490.62529 0,56.6227 -37.7553,141.5573 -113.2696,254.8032 -5.4923,0 -9.8224,1.9936 -13.0996,5.7869 -3.0278,-2.4485 -6.7426,-3.7879 -11.2871,-3.7879 -75.5135,-113.246 -113.27148,-198.1799 -113.27148,-254.8032 0,-121.9062 21.04492,-286.1164 63.13478,-492.62429 36.1615,-174.85075 56.8393,-296.08546 62.3828,-364.91574 z" />
</svg>
