<?xml version="1.0" encoding="UTF-8" standalone="no"?>
<!-- Created with Inkscape (http://www.inkscape.org/) -->

<svg
   id="svg1290"
   height="17.97266"
   width="7.786809"
   version="1.1"
   xmlns="http://www.w3.org/2000/svg"
   xmlns:svg="http://www.w3.org/2000/svg"
   xmlns:rdf="http://www.w3.org/1999/02/22-rdf-syntax-ns#"
   xmlns:cc="http://creativecommons.org/ns#"
   xmlns:dc="http://purl.org/dc/elements/1.1/">
  <defs
     id="defs3" />
  <metadata
     id="metadata4">
    <rdf:RDF>
      <cc:Work
         rdf:about="">
        <dc:format>image/svg+xml</dc:format>
        <dc:type
           rdf:resource="http://purl.org/dc/dcmitype/StillImage" />
        <cc:license
           rdf:resource="http://creativecommons.org/licenses/by/2.0/" />
        <dc:subject>
          <rdf:Bag>
            <rdf:li>JSesh hieroglyph</rdf:li>
          </rdf:Bag>
        </dc:subject>
      </cc:Work>
      <cc:License
         rdf:about="http://creativecommons.org/licenses/by/2.0/">
        <cc:permits
           rdf:resource="http://web.resource.org/cc/Reproduction" />
        <cc:permits
           rdf:resource="http://web.resource.org/cc/Distribution" />
        <cc:requires
           rdf:resource="http://web.resource.org/cc/Notice" />
        <cc:requires
           rdf:resource="http://web.resource.org/cc/Attribution" />
        <cc:permits
           rdf:resource="http://web.resource.org/cc/DerivativeWorks" />
        <cc:requires
           rdf:resource="http://web.resource.org/cc/ShareAlike" />
      </cc:License>
    </rdf:RDF>
  </metadata>
  <g
     id="layer1"
     transform="translate(-1.9302008,-0.03320312)">
    <path
       id="path3502"
       style="display:inline;opacity:0.994152;fill:#000000;fill-opacity:1;fill-rule:nonzero;stroke:none;stroke-width:19.1233;stroke-linecap:butt;stroke-linejoin:round;stroke-miterlimit:4;stroke-opacity:1"
       d="m 6.5722656,0.03320312 c -0.1133331,0 -0.2265103,0.02617193 -0.3398437,0.07617188 C 6.0057561,0.2093749 5.8421874,0.52836002 5.7421875,1.0683594 5.6421876,1.608359 5.4158336,1.8789062 5.0625,1.8789062 4.7158343,1.8789063 4.5410156,2.2719275 4.5410156,3.0585938 h 1.140625 v 0.21875 C 5.3351575,3.5623817 4.8501664,3.8313768 4.4985964,4.2225495 4.4645256,4.2604582 4.0511815,4.3820916 3.9629876,6.0779453 3.8580232,5.4932246 3.9086823,4.4192338 3.1458913,4.0181197 2.8331567,3.8536681 2.0050257,3.7584191 1.9458743,3.7562414 1.926156,3.9222849 1.9343585,4.35059 1.9302008,4.5999914 c 0.1999243,0.073565 0.6220743,0.013477 0.909452,0.5213419 0.2873777,0.5078642 0.226323,1.1694267 0.226323,1.3270842 -0.075874,0.9236096 0.5157411,1.1776579 1.0974212,1.4062815 0.4489466,1.9812777 1.1844729,3.912098 1.5729282,5.850379 0.1420346,0.708712 0.1884451,1.481435 0.050781,2.142578 -0.092099,0.44232 -0.3761462,1.001187 -0.671875,1.179688 -0.4889133,0.295104 -0.6552325,0.229422 -1.4805752,0.414071 -0.1449612,0.03253 -0.2399779,0.160306 -0.2226563,0.298829 0.017322,0.138522 0.1419427,0.243788 0.2910156,0.24414 l 5.7189727,0.02148 c 0.149251,8.8e-5 0.275393,-0.105479 0.292969,-0.24414 0.01758,-0.138662 -0.07948,-0.266258 -0.22461,-0.298829 C 8.6650056,17.278249 8.5631321,17.322448 8.0742188,17.027344 7.7784896,16.848843 7.4963963,16.289976 7.4042969,15.847656 7.2666325,15.186513 7.313043,14.41379 7.4550781,13.705078 7.9019636,11.475249 8.8062287,9.2552937 9.2070312,6.9570312 9.336837,6.2127101 9.3210539,5.3393514 8.984375,4.6445312 8.6717882,3.9994268 7.9688472,3.6553514 7.5097656,3.2773438 v -0.21875 h 1.1113282 c 0,-0.7866663 -0.1821615,-1.1796876 -0.5488282,-1.1796876 -0.3466666,0 -0.569922,-0.2705472 -0.6699218,-0.8105468 C 7.2956769,0.52836002 7.1321092,0.2093749 6.9121094,0.109375 6.798776,0.05937505 6.6855988,0.03320312 6.5722656,0.03320312 Z m -0.00391,0.484375 c 0.055,0 0.110729,0.0205469 0.1640625,0.0605469 0.1133339,0.0799999 0.2028613,0.3176046 0.2695312,0.71093748 0.073334,0.3933328 0.2039582,0.65263 0.390625,0.7792969 0.1799998,0.1333298 0.3416154,0.1992187 0.4882813,0.1992187 0.1466698,0 0.2207031,0.124427 0.2207031,0.3710938 H 7.5097656 c 0,0 -1.8073439,0.013538 -1.828125,0 H 5.0625 c 0,-0.2466668 0.065886,-0.3710938 0.1992188,-0.3710938 0.1466668,0 0.3133341,-0.065886 0.5,-0.1992187 C 5.9483856,1.9416925 6.0759082,1.6823953 6.1425781,1.2890625 6.2092451,0.8957296 6.2956769,0.65812492 6.4023438,0.578125 6.4590098,0.538125 6.5133594,0.5175781 6.5683594,0.5175781 Z M 6.9199219,3.4003906 c -1.02e-5,0.074896 0.032161,0.147287 0.089844,0.1992188 0.5489992,0.4965059 1.2319403,0.8492115 1.4375,1.2734375 C 8.706375,5.4077837 8.7408561,6.202854 8.625,6.8671875 8.2373652,9.0899426 7.3351484,11.307508 6.875,13.603516 c -0.1518213,0.757542 -0.2072652,1.588705 -0.048828,2.349609 0.1121702,0.538711 0.373606,1.199508 0.9296875,1.535156 0.00541,0.0033 0.01214,0.0066 0.017578,0.0098 H 5.4179688 c 0.00545,-0.0032 0.010198,-0.0065 0.015625,-0.0098 0.5560809,-0.335648 0.8194705,-0.996445 0.9316406,-1.535156 0.1584366,-0.760904 0.10104,-1.592067 -0.050781,-2.349609 C 5.8543046,11.307508 4.9520875,9.0899426 4.5644531,6.8671875 4.4485969,6.202854 4.4830782,5.4077832 4.7421875,4.8730469 c 0.2055593,-0.4242255 0.8885012,-0.7769317 1.4375,-1.2734375 0.057683,-0.051932 0.089854,-0.1243236 0.089844,-0.1992188 -0.027614,-0.3113055 0.6730152,-0.2730954 0.6503904,0 z" />
  </g>
</svg>
