<?xml version="1.0" encoding="UTF-8" standalone="no"?>
<svg
   width="8.580255"
   height="17.972717"
   version="1.1"
   id="svg11131"
   sodipodi:docname="US9W20VARA.svg"
   inkscape:version="1.2.1 (9c6d41e410, 2022-07-14)"
   xmlns:inkscape="http://www.inkscape.org/namespaces/inkscape"
   xmlns:sodipodi="http://sodipodi.sourceforge.net/DTD/sodipodi-0.dtd"
   xmlns="http://www.w3.org/2000/svg"
   xmlns:svg="http://www.w3.org/2000/svg">
  <defs
     id="defs11135" />
  <sodipodi:namedview
     id="namedview11133"
     pagecolor="#ffffff"
     bordercolor="#000000"
     borderopacity="0.25"
     inkscape:showpageshadow="2"
     inkscape:pageopacity="0.0"
     inkscape:pagecheckerboard="0"
     inkscape:deskcolor="#d1d1d1"
     showgrid="false"
     inkscape:zoom="32.753397"
     inkscape:cx="5.4192852"
     inkscape:cy="9.5867919"
     inkscape:window-width="1920"
     inkscape:window-height="1137"
     inkscape:window-x="-8"
     inkscape:window-y="-8"
     inkscape:window-maximized="1"
     inkscape:current-layer="svg11131" />
  <path
     style="fill:#000000;stroke:none;stroke-width:0.876147"
     d="m 2.228368,14.791382 h 4.12352 C 6.0649395,16.177646 5.9342021,17.197052 4.3086954,17.213637 2.6831887,17.230222 2.407158,15.735429 2.228368,14.791382 Z m -0.10413,-0.687423 c -0.083303,-0.724726 -0.083303,-1.156365 0,-1.294916 h 4.331779 c 0.06942,0.138551 0.06942,0.57019 0,1.294916 z m 0,-1.998327 C 2.2769613,11.83919 2.5928203,11.434195 3.071815,10.890651 3.5508097,10.347106 3.8250167,9.8568503 3.894436,9.4198822 h 0.770557 c 0.06942,0.4369681 0.3470983,0.9272238 0.833035,1.4707688 0.4859367,0.543544 0.8052663,0.948539 0.957989,1.214981 z M 3.561223,8.7004851 C 3.4501517,8.8070626 3.3043707,8.8603515 3.12388,8.8603515 H 2.540756 c -0.4581693,0 -0.687254,0.09059 -0.687254,0.2717729 0,0.1918385 0.2221427,0.2877578 0.666428,0.2877578 0.1804907,0.053291 0.270736,0.1865117 0.270736,0.3996667 C 2.749014,10.107308 2.4852197,10.472335 1.999283,10.914631 1.5133463,11.356926 1.2426103,11.753927 1.187075,12.105632 H 0.374866 C 0.1249553,12.105632 0,12.222867 0,12.457338 c 0,0.23447 0.1249553,0.351705 0.374866,0.351705 h 0.791383 c -0.06942,0.138551 -0.062478,0.57019 0.020826,1.294916 H 0.395692 C 0.1318973,14.103959 0,14.221193 0,14.455664 c 0,0.223813 0.1249553,0.335718 0.374866,0.335718 h 0.812209 c 0.4979416,1.599841 0.630095,3.151356 3.1379866,3.181335 2.5078916,0.02998 2.7545071,-1.986498 3.0681194,-3.181335 h 0.791383 c 0.263794,0 0.395691,-0.111905 0.395691,-0.335718 0,-0.234471 -0.131897,-0.351705 -0.395691,-0.351705 H 7.393181 c 0.069419,-0.724726 0.069419,-1.156365 0,-1.294916 h 0.791383 c 0.263794,0 0.395691,-0.117235 0.395691,-0.351705 0,-0.234471 -0.131897,-0.351706 -0.395691,-0.351706 H 7.393181 C 7.337645,11.753927 7.0669087,11.356926 6.580972,10.914631 6.0950353,10.472335 5.8242993,10.107308 5.768764,9.8195489 c 0,-0.2131561 0.090245,-0.3463779 0.270736,-0.3996667 0.4442853,0 0.666428,-0.095924 0.666428,-0.2877578 0,-0.181182 -0.2221427,-0.2717729 -0.666428,-0.2717729 H 5.456376 c -0.1943747,0 -0.3401557,-0.053289 -0.437343,-0.1598664 L 4.998207,8.6844984 C 4.8316003,6.851368 4.6687883,1.8668995 4.7967616,1.4753249 4.9371631,1.0457227 4.9962901,0.94131313 6.0875301,0.96978586 7.1787702,0.99825859 7.9602471,2.5237846 8.4102848,2.4653964 8.5630075,2.3694767 8.0207354,1.1774226 7.8541287,1.0815033 7.5329953,0.58885013 6.753527,0.26845099 5.9515812,0.10145889 5.1496355,-0.06553321 4.2552387,0.29879144 4.0377175,0.80819392 3.6371648,1.7462288 3.425674,6.6013355 3.4395573,8.9353798 Z"
     id="path11129"
     sodipodi:nodetypes="cczcccccccsccscccsssccscsssccsssczcsssccssscsccsssccszcczscc" />
</svg>
