<?xml version="1.0" encoding="UTF-8" standalone="no"?>
<svg
   width="18.93"
   height="17.98"
   version="1.1"
   id="svg373"
   sodipodi:docname="US9W17VARA.svg"
   inkscape:version="1.2.1 (9c6d41e410, 2022-07-14)"
   xmlns:inkscape="http://www.inkscape.org/namespaces/inkscape"
   xmlns:sodipodi="http://sodipodi.sourceforge.net/DTD/sodipodi-0.dtd"
   xmlns="http://www.w3.org/2000/svg"
   xmlns:svg="http://www.w3.org/2000/svg">
  <defs
     id="defs377" />
  <sodipodi:namedview
     id="namedview375"
     pagecolor="#ffffff"
     bordercolor="#000000"
     borderopacity="0.25"
     inkscape:showpageshadow="2"
     inkscape:pageopacity="0.0"
     inkscape:pagecheckerboard="0"
     inkscape:deskcolor="#d1d1d1"
     showgrid="false"
     showguides="true"
     inkscape:zoom="37.115515"
     inkscape:cx="10.197892"
     inkscape:cy="6.627956"
     inkscape:window-width="1920"
     inkscape:window-height="1137"
     inkscape:window-x="-8"
     inkscape:window-y="-8"
     inkscape:window-maximized="1"
     inkscape:current-layer="svg373" />
  <path
     id="path371"
     style="fill:#000000;stroke:none"
     d="M 3.5820312 0.052734375 L 3.5917969 2.2363281 L 1.6972656 2.2363281 L 1.6972656 3.7714844 L 3.5976562 3.7714844 L 3.609375 6.4199219 C 0.68938376 6.4199219 0.00734381 8.6827369 0.02734375 9.5527344 L 0 17.984375 L 1.3046875 17.990234 C 1.3046875 17.990234 1.4256278 11.004457 1.4394531 10.007812 C 1.462911 8.3167411 3.5507813 7.9492188 3.5507812 7.9492188 L 3.5507812 17.964844 C 3.8659894 17.919944 4.6252754 17.977749 5.1796875 17.943359 L 5.1308594 7.9707031 L 7.0996094 7.9707031 L 7.1582031 17.925781 C 7.7046741 17.905761 8.1859793 17.929822 8.75 17.919922 L 8.7402344 7.9492188 L 10.710938 7.9492188 L 10.691406 17.943359 C 11.176938 17.945459 11.66095 17.951358 12.140625 17.960938 L 12.140625 7.9492188 L 14.220703 7.9609375 L 14.296875 17.988281 C 14.821622 18.011061 15.14128 17.962291 15.634766 17.994141 L 15.75 7.9609375 C 15.75 7.9609375 17.567344 7.6479236 17.554688 9.9550781 C 17.540288 12.579777 17.527344 18.017578 17.527344 18.017578 L 18.902344 17.962891 L 18.957031 9.0117188 C 18.962131 8.1717405 18.339444 6.4199219 15.689453 6.4199219 L 15.677734 3.7714844 L 17.244141 3.7714844 L 17.244141 2.2363281 L 15.671875 2.2363281 L 15.662109 0.052734375 L 14.232422 0.052734375 L 14.242188 2.2363281 L 12.113281 2.2363281 L 12.119141 0.052734375 L 10.728516 0.052734375 L 10.722656 2.2363281 L 8.7011719 2.2363281 L 8.7011719 0.052734375 L 7.0996094 0.052734375 L 7.0996094 2.2363281 L 5.0097656 2.2363281 L 4.9941406 0.052734375 L 3.5820312 0.052734375 z M 5.0214844 3.7714844 L 7.0996094 3.7714844 L 7.0996094 6.359375 L 5.0390625 6.359375 L 5.0214844 3.7714844 z M 8.6992188 3.7714844 L 10.71875 3.7714844 L 10.710938 6.4003906 L 8.6992188 6.4003906 L 8.6992188 3.7714844 z M 12.107422 3.7714844 L 14.248047 3.7714844 L 14.259766 6.359375 L 12.099609 6.3808594 L 12.107422 3.7714844 z " />
</svg>
