<?xml version="1.0" encoding="UTF-8" standalone="no"?>
<svg
   width="995"
   height="1345"
   id="svg2"
   sodipodi:version="0.32"
   inkscape:version="1.2.1 (9c6d41e410, 2022-07-14)"
   sodipodi:docname="US9W56VARA.svg"
   inkscape:output_extension="org.inkscape.output.svg.inkscape"
   version="1.0"
   xmlns:inkscape="http://www.inkscape.org/namespaces/inkscape"
   xmlns:sodipodi="http://sodipodi.sourceforge.net/DTD/sodipodi-0.dtd"
   xmlns="http://www.w3.org/2000/svg"
   xmlns:svg="http://www.w3.org/2000/svg"
   xmlns:rdf="http://www.w3.org/1999/02/22-rdf-syntax-ns#"
   xmlns:cc="http://creativecommons.org/ns#"
   xmlns:dc="http://purl.org/dc/elements/1.1/">
  <metadata
     id="metadata9">
    <rdf:RDF>
      <cc:Work
         rdf:about="">
        <dc:format>image/svg+xml</dc:format>
        <dc:type
           rdf:resource="http://purl.org/dc/dcmitype/StillImage" />
      </cc:Work>
    </rdf:RDF>
  </metadata>
  <defs
     id="defs7">
    <inkscape:perspective
       sodipodi:type="inkscape:persp3d"
       inkscape:vp_x="0 : 724.1895 : 1"
       inkscape:vp_y="0 : 1000 : 0"
       inkscape:vp_z="5.8304138 : 724.1895 : 1"
       inkscape:persp3d-origin="2.9152069 : 723.1585 : 1"
       id="perspective11" />
  </defs>
  <sodipodi:namedview
     inkscape:window-height="1137"
     inkscape:window-width="1920"
     inkscape:pageshadow="2"
     inkscape:pageopacity="0.0"
     guidetolerance="10.0"
     gridtolerance="10.0"
     objecttolerance="10.0"
     borderopacity="1.0"
     bordercolor="#666666"
     pagecolor="#ffffff"
     id="base"
     showgrid="false"
     inkscape:zoom="0.49555556"
     inkscape:cx="898.99103"
     inkscape:cy="900"
     inkscape:window-x="-8"
     inkscape:window-y="-8"
     inkscape:current-layer="svg2"
     inkscape:showpageshadow="2"
     inkscape:pagecheckerboard="0"
     inkscape:deskcolor="#d1d1d1"
     inkscape:window-maximized="1" />
  <path
     id="path9061"
     style="color:#000000;fill:#000000;stroke-width:3.77953;stroke-linecap:round;stroke-linejoin:round;-inkscape-stroke:none"
     d="m 525.89244,4.5808526 c -55.8644,-2.76105 -104.2313,49.7532154 -93.5178,105.4556274 -1.5833,41.96999 18.4131,111.65926 -48.391,93.82583 -47.7055,7.59087 -147.6212,-28.31301 -134.8178,53.78101 2.1011,27.65911 -4.8238,57.00745 4.7569,83.30721 47.8111,39.09026 135.8283,3.44002 179.7934,34.1895 -10.7661,37.23757 24.3039,113.71185 -29.4782,114.86438 -61.3475,7.95156 -117.5743,46.83568 -138.4265,106.42703 -29.6325,37.42266 -14.9005,121.74664 -55.9492,134.34275 -62.3935,1.44415 -125.372305,-2.97026 -187.377605,2.35755 -49.6407,36.69789 14.2272,68.23506 51.6123,57.64245 49.664305,0 99.328505,0 148.992705,0 -2.9161,40.72123 36.8525,107.66245 19.0515,130.62304 -67.987,1.45833 -136.5641,-2.98961 -204.162405,2.35756 -49.6407,36.69792 14.2273,68.23506 51.6124,57.64244 60.071105,0 120.142305,0 180.213405,0 37.3189,119.64447 86.5896,235.47697 135.2352,350.69757 25.0385,19.9404 60.1988,7.0169 90.1319,10.0792 47.1761,-1.4973 94.6741,0.5544 141.6375,-3.287 40.424,-38.3279 41.7494,-105.7761 65.7762,-155.9021 22.12,-67.2556 43.9634,-134.5864 66.852,-201.58767 64.5429,-1.45599 129.6753,2.98658 193.8297,-2.35756 49.64066,-36.69789 -14.2273,-68.2351 -51.6124,-57.64244 -41.1635,0 -82.3271,0 -123.4907,0 19.9995,-38.84852 13.6782,-106.49681 39.2747,-130.62304 48.9182,-1.39718 98.406,2.90592 146.9378,-2.35756 49.64056,-36.69789 -14.2273,-68.23506 -51.6124,-57.64244 -35.2658,0 -70.5316,0 -105.7974,0 -11.9475,-78.65798 -34.9016,-165.24515 -98.9948,-217.54572 -36.4002,-34.39695 -122.1714,-5.98484 -100.5698,-77.16563 -5.2576,-44.42404 -4.4392,-85.29793 51.8442,-72.74994 54.8159,-6.011 153.7317,4.95632 138.8922,-79.44106 19.6386,-89.83861 -75.8378,-82.07149 -134.8918,-78.25356 -43.3174,6.22333 -74.155,-2.38734 -60.2474,-50.87683 -0.3024,-46.11084 13.3185,-105.551735 -34.8349,-133.68393 -15.2927,-10.548775 -33.6799,-16.4237074 -52.2719,-16.4766674 z m 1.9844,60.1542864 c 66.3632,34.013556 -12.0836,144.468731 42.6191,190.651311 57.1457,15.53911 118.0216,8.70285 176.8146,10.33501 5.8017,59.03066 -86.6729,26.63505 -123.7499,40.79448 -84.6015,-13.89362 -65.4408,85.14334 -66.0158,138.74287 9.847,34.91179 -35.8129,14.27803 -56.1565,18.98815 -21.7787,-25.06639 1.023,-89.32486 -9.1775,-128.87512 -31.7056,-44.4915 -99.3069,-25.10283 -147.4519,-34.79316 -42.8682,21.74766 -52.6908,-55.11938 -6.7288,-36.67741 56.4549,-1.81753 159.5982,16.36498 153.9908,-69.9363 12.809,-38.79507 -27.7112,-128.41368 35.8559,-129.229831 z m 233.1191,227.871081 c 3.1471,0.82329 -4.8978,1.33583 0,0 z m -14.4902,12.8301 -0.3885,2.2713 z m -225.8184,232.75192 c 57.03,0.88604 117.9128,1.03835 169.1777,28.98138 68.8701,82.83115 82.3763,201.29008 50.1977,302.24784 -40.3114,138.44704 -88.1932,274.65234 -134.2857,411.30104 -52.4479,0.6888 -104.8958,1.3776 -157.3437,2.0664 -64.5955,-162.7139 -138.6072,-324.54378 -164.9755,-498.90786 2.339,-72.90735 21.5959,-149.14976 66.0575,-207.92225 49.6682,-32.14499 113.324,-36.57694 171.172,-37.76655 z" />
</svg>
