<?xml version="1.0" encoding="UTF-8" standalone="no"?>
<svg
   width="1098.3661"
   height="1797.244"
   id="svg2"
   version="1.1"
   xmlns="http://www.w3.org/2000/svg"
   xmlns:svg="http://www.w3.org/2000/svg"
   xmlns:rdf="http://www.w3.org/1999/02/22-rdf-syntax-ns#"
   xmlns:cc="http://creativecommons.org/ns#"
   xmlns:dc="http://purl.org/dc/elements/1.1/">
  <metadata
     id="metadata10">
    <rdf:RDF>
      <cc:Work
         rdf:about="">
        <dc:format>image/svg+xml</dc:format>
        <dc:type
           rdf:resource="http://purl.org/dc/dcmitype/StillImage" />
      </cc:Work>
    </rdf:RDF>
  </metadata>
  <defs
     id="defs8" />
  <path
     id="path2987"
     style="color:#000000;font-style:normal;font-variant:normal;font-weight:normal;font-stretch:normal;font-size:medium;line-height:normal;font-family:Sans;-inkscape-font-specification:Sans;text-indent:0;text-align:start;text-decoration:none;text-decoration-line:none;letter-spacing:normal;word-spacing:normal;text-transform:none;writing-mode:lr-tb;direction:ltr;baseline-shift:baseline;text-anchor:start;display:inline;overflow:visible;visibility:visible;fill:#000000;fill-opacity:1;stroke:none;stroke-width:74.9003;marker:none;enable-background:accumulate"
     d="M 548.35156 0 C 387.73466 0 263.25535 49.790546 174.91602 149.37305 C 86.576689 248.95555 42.408203 362.99472 42.408203 491.48828 C 42.408203 639.25588 92.198768 760.12115 191.78125 854.08203 C 271.32588 929.13633 363.20735 974.12033 467.34766 989.22266 L 0 989.22266 C 78.175656 1258.5525 156.30683 1527.8977 234.42578 1797.2441 L 863.94141 1797.2441 C 942.06029 1527.8977 1020.1896 1258.5525 1098.3652 989.22266 L 629.35547 989.22266 C 733.49577 974.12033 825.37718 929.13633 904.92188 854.08203 C 1004.5043 760.12115 1054.2949 639.25588 1054.2949 491.48828 C 1054.2949 362.99472 1010.1244 248.95555 921.78516 149.37305 C 833.44582 49.790546 708.96852 0 548.35156 0 z M 548.35156 84.324219 C 667.2081 84.324219 751.53102 114.03852 801.32227 173.4668 C 738.68166 240.92596 654.35874 274.65625 548.35156 274.65625 C 442.34438 274.65625 358.01951 240.92596 295.37891 173.4668 C 346.77635 114.03852 431.10123 84.324219 548.35156 84.324219 z M 239.9668 228.87891 C 281.72723 277.06402 306.62348 366.20694 314.6543 496.30664 C 313.04816 589.46445 287.34795 681.01735 237.55664 770.96289 C 171.70369 708.32227 138.77734 615.96731 138.77734 493.89844 C 138.77734 391.1036 172.50764 302.76275 239.9668 228.87891 z M 856.73633 228.87891 C 924.19541 302.76275 957.92578 391.1036 957.92578 493.89844 C 957.92578 615.96731 924.99747 708.32227 859.14453 770.96289 C 809.35307 681.01735 783.65483 589.46445 782.04883 496.30664 C 790.07971 366.20694 814.9759 277.06402 856.73633 228.87891 z M 333.92773 277.06445 C 383.71898 307.58166 455.19375 322.83984 548.35156 322.83984 C 641.50937 322.83984 712.98415 307.58166 762.77539 277.06445 C 743.50142 342.91741 733.06129 415.99819 731.45508 496.30664 C 731.45508 581.43364 746.71327 659.33248 777.23047 730.00391 C 719.40841 689.84968 643.11557 670.57739 548.35156 672.18359 C 453.58761 670.57739 377.29479 689.84968 319.47266 730.00391 C 349.98986 659.33248 365.24805 581.43364 365.24805 496.30664 C 363.64191 415.99819 353.20178 342.91741 333.92773 277.06445 z M 548.35156 730.00391 C 654.35874 730.00391 740.28964 760.52217 806.14258 821.55664 C 743.50197 884.19725 657.57107 915.51758 548.35156 915.51758 C 439.13204 915.51758 353.20115 884.19725 290.56055 821.55664 C 356.41349 760.52217 442.34438 730.00391 548.35156 730.00391 z M 99.396484 1064.6387 L 998.9707 1064.6387 C 935.40808 1283.7019 871.84584 1502.7651 808.2832 1721.8281 L 290.08398 1721.8281 C 226.52135 1502.7651 162.95912 1283.7019 99.396484 1064.6387 z " />
</svg>
