<?xml version="1.0" encoding="UTF-8" standalone="no"?>
<svg
   width="1800.7791"
   height="552"
   version="1.1"
   id="svg1"
   sodipodi:docname="US9X4VARB.svg"
   inkscape:version="1.3 (0e150ed6c4, 2023-07-21)"
   xmlns:inkscape="http://www.inkscape.org/namespaces/inkscape"
   xmlns:sodipodi="http://sodipodi.sourceforge.net/DTD/sodipodi-0.dtd"
   xmlns="http://www.w3.org/2000/svg"
   xmlns:svg="http://www.w3.org/2000/svg">
  <defs
     id="defs1" />
  <sodipodi:namedview
     id="namedview1"
     pagecolor="#ffffff"
     bordercolor="#000000"
     borderopacity="0.25"
     inkscape:showpageshadow="2"
     inkscape:pageopacity="0.0"
     inkscape:pagecheckerboard="0"
     inkscape:deskcolor="#d1d1d1"
     inkscape:zoom="0.53414474"
     inkscape:cx="765.71007"
     inkscape:cy="274.27023"
     inkscape:window-width="1920"
     inkscape:window-height="1137"
     inkscape:window-x="-8"
     inkscape:window-y="-8"
     inkscape:window-maximized="1"
     inkscape:current-layer="svg1" />
  <path
     id="path1"
     style="fill:#000000;stroke:none;stroke-width:95.4554"
     d="M 359.63477,0 C 119.87903,1.9067276 0,94.383566 0,277.42969 0,460.47572 119.87903,552 359.63477,552 H 1441.1445 c 239.7558,0 359.6348,-91.52428 359.6348,-274.57031 C 1800.7793,94.383566 1680.9003,1.9067276 1441.1445,0 Z m 0,80.082031 H 1441.1445 c 184.1602,0 276.2422,64.830669 276.2422,194.488279 0,131.56441 -92.082,197.34766 -276.2422,197.34766 H 359.63477 c -184.16023,0 -276.242192,-65.78325 -276.242192,-197.34766 0,-129.65761 92.081962,-194.488279 276.242192,-194.488279 z M 495.25,224.05469 c -16.88651,0 -30.95908,5.06538 -42.2168,15.19726 -11.25766,10.13192 -16.88476,22.51541 -16.88476,37.15039 0,14.63499 5.62707,27.29935 16.88476,37.99414 11.25772,10.69479 25.33029,16.04297 42.2168,16.04297 16.88651,0 30.95914,-5.34818 42.2168,-16.04297 11.25772,-10.69479 16.88672,-23.35915 16.88672,-37.99414 0,-14.63498 -5.629,-27.01847 -16.88672,-37.15039 -11.25766,-10.13192 -25.33029,-15.19726 -42.2168,-15.19726 z m 263.11133,2.54883 c -16.88658,0 -30.95914,5.34818 -42.2168,16.04296 -11.25766,10.69478 -16.88672,23.35916 -16.88672,37.99414 0,14.63499 5.62903,27.01847 16.88672,37.1504 11.25766,10.13192 25.33022,15.19726 42.2168,15.19726 16.88651,0 31.23996,-5.06537 43.06055,-15.19726 11.82058,-10.13193 17.73046,-22.51541 17.73046,-37.1504 0,-14.63498 -5.90988,-27.29936 -17.73046,-37.99414 -11.82059,-10.69478 -26.17404,-16.04296 -43.06055,-16.04296 z m 266.19527,1.6875 c -16.8865,0 -30.95907,5.06733 -42.21676,15.19921 -11.25768,10.13192 -16.88671,22.51541 -16.88672,37.15039 0,14.63499 5.62914,27.29935 16.88672,37.99415 11.25769,10.69478 25.33026,16.04296 42.21676,16.04296 16.8865,0 31.24,-5.34818 43.0606,-16.04296 11.8206,-10.6948 17.7305,-23.35916 17.7305,-37.99415 0,-14.63498 -5.9096,-27.01847 -17.7305,-37.15039 -11.8206,-10.13192 -26.1741,-15.19921 -43.0606,-15.19921 z m 275.6524,0.60546 c -16.8865,0 -30.959,5.06539 -42.2168,15.19727 -11.2576,10.13192 -16.8867,22.51541 -16.8867,37.15039 0,14.63499 5.629,27.3013 16.8867,37.99609 11.2578,10.69479 25.3303,16.04102 42.2168,16.04102 16.8866,0 30.9572,-5.34623 42.2148,-16.04102 11.2578,-10.69479 16.8867,-23.3611 16.8867,-37.99609 0,-14.63498 -5.6289,-27.01847 -16.8867,-37.15039 -11.2576,-10.13192 -25.3282,-15.19727 -42.2148,-15.19727 z"
     sodipodi:nodetypes="cssssccsssssssssssssssssssssssssssssssssssssssssss" />
</svg>
