<?xml version="1.0" encoding="UTF-8" standalone="no"?>
<!-- Created with Inkscape (http://www.inkscape.org/) -->

<svg
   width="1149.8457"
   height="1796.5226"
   viewBox="0 0 1149.8457 1796.5226"
   version="1.1"
   id="svg5"
   xml:space="preserve"
   xmlns="http://www.w3.org/2000/svg"
   xmlns:svg="http://www.w3.org/2000/svg"><defs
     id="defs2" /><path
     id="path1124"
     style="color:#000000;fill:#000000;stroke-width:1.86158;-inkscape-stroke:none"
     d="M 570.44531,0.10845182 C 515.95885,-1.2064555 460.51234,9.4231573 413.27734,32.667045 318.80726,79.154876 276.41825,174.39855 243.88281,283.21001 211.34737,392.02154 185.5,528.2888 211.65625,712.10259 229.06008,834.4085 269.03971,976.55279 315.83594,1124.6671 162.95817,1123.724 32.49911,1123.2502 0,1124.9034 c 74.481265,223.322 180.57484,324.8703 208.72851,670 l 732.38867,1.6192 c 8.7146,-349.9856 134.29282,-446.6629 208.72852,-670 -18.0442,2.5264 -157.44873,2.2434 -321.70703,1.3632 C 875.61718,978.83832 914.56465,835.88063 926.70703,712.08892 945.19844,523.56996 899.58381,385.31472 866.65234,281.7061 850.18663,229.90178 836.06305,183.25601 815.19336,141.84282 794.32372,100.42966 765.24752,63.730105 721.85351,39.206108 678.45931,14.682037 624.93181,1.4233596 570.44531,0.10845182 Z M 552.24023,76.340873 c 5.49211,-0.113934 10.99432,-0.100042 16.48047,0.03906 43.88924,1.112859 86.75232,10.256041 115.21875,26.343747 28.46659,16.08782 46.7239,38.21154 63.47656,71.45508 16.75268,33.24352 30.54414,77.08843 47.11719,129.23047 33.14613,104.28398 74.0931,227.73337 57.0293,401.69922 -16.82321,171.51272 -24.13723,190.23579 -101.81836,418.56255 -1.14284,1.2991 -2.50015,2.5149 -3.83594,3.7402 -106.78861,-0.6902 -203.17992,-1.1699 -311.95703,-1.9512 -4.5769,-3.701 -8.02682,-7.6236 -9.8457,-11.8027 C 363.0542,989.50393 310.90421,874.02368 286.42968,702.02837 261.86857,529.42433 285.48637,406.99618 316.36328,303.73149 347.24023,200.46669 382.20641,130.26637 447.3457,98.211967 475.84417,84.18813 513.79549,77.138414 552.24023,76.340873 Z M 97.15625,1194.9034 c 32.96737,1.21 904.65375,-1.6821 947.33205,1.6192 0,0 -176.65627,252.3134 -176.65627,530 l -594.01953,-1.6192 c -4.8717,-263.0714 -176.65625,-530 -176.65625,-530 z" /></svg>
