<?xml version="1.0" encoding="UTF-8" standalone="no"?>
<!-- Created with Inkscape (http://www.inkscape.org/) -->

<svg
   sodipodi:docname="US9X4VARA.svg"
   inkscape:version="1.2.1 (9c6d41e410, 2022-07-14)"
   sodipodi:version="0.32"
   id="svg1290"
   height="530"
   width="1800"
   version="1.1"
   xmlns:inkscape="http://www.inkscape.org/namespaces/inkscape"
   xmlns:sodipodi="http://sodipodi.sourceforge.net/DTD/sodipodi-0.dtd"
   xmlns="http://www.w3.org/2000/svg"
   xmlns:svg="http://www.w3.org/2000/svg"
   xmlns:rdf="http://www.w3.org/1999/02/22-rdf-syntax-ns#"
   xmlns:cc="http://creativecommons.org/ns#"
   xmlns:dc="http://purl.org/dc/elements/1.1/">
  <defs
     id="defs3" />
  <sodipodi:namedview
     inkscape:guide-bbox="true"
     showguides="true"
     inkscape:window-y="-8"
     inkscape:window-x="-8"
     inkscape:window-height="1137"
     inkscape:window-width="1920"
     inkscape:current-layer="layer2"
     inkscape:document-units="px"
     inkscape:cy="341.41171"
     inkscape:cx="1076.0951"
     inkscape:zoom="0.23139218"
     inkscape:pageshadow="2"
     inkscape:pageopacity="0.0"
     borderopacity="1.0"
     bordercolor="#666666"
     pagecolor="#ffffff"
     id="base"
     inkscape:showpageshadow="2"
     inkscape:pagecheckerboard="0"
     inkscape:deskcolor="#d1d1d1"
     showgrid="false"
     inkscape:window-maximized="1" />
  <metadata
     id="metadata4">
    <rdf:RDF>
      <cc:Work
         rdf:about="">
        <dc:format>image/svg+xml</dc:format>
        <dc:type
           rdf:resource="http://purl.org/dc/dcmitype/StillImage" />
        <cc:license
           rdf:resource="http://creativecommons.org/licenses/by/2.0/" />
        <dc:subject>
          <rdf:Bag>
            <rdf:li>JSesh hieroglyph</rdf:li>
          </rdf:Bag>
        </dc:subject>
        <dc:creator>
          <cc:Agent>
            <dc:title>Serge Rosmorduc</dc:title>
          </cc:Agent>
        </dc:creator>
        <dc:description>Sign from a Sethy the Ist relief in the Louvre.
</dc:description>
      </cc:Work>
      <cc:License
         rdf:about="http://creativecommons.org/licenses/by/2.0/">
        <cc:permits
           rdf:resource="http://web.resource.org/cc/Reproduction" />
        <cc:permits
           rdf:resource="http://web.resource.org/cc/Distribution" />
        <cc:requires
           rdf:resource="http://web.resource.org/cc/Notice" />
        <cc:requires
           rdf:resource="http://web.resource.org/cc/Attribution" />
        <cc:permits
           rdf:resource="http://web.resource.org/cc/DerivativeWorks" />
        <cc:requires
           rdf:resource="http://web.resource.org/cc/ShareAlike" />
      </cc:License>
    </rdf:RDF>
  </metadata>
  <g
     id="layer1"
     inkscape:groupmode="layer"
     inkscape:label="Layer 1" />
  <g
     style="display:inline"
     inkscape:label="dessin"
     id="layer2"
     inkscape:groupmode="layer">
    <path
       id="path4390"
       style="color:#000000;display:inline;overflow:visible;visibility:visible;fill:#000000;fill-opacity:1;fill-rule:evenodd;stroke:none;stroke-width:53.0527;stroke-linecap:butt;stroke-linejoin:round;stroke-miterlimit:4;stroke-dashoffset:0;stroke-opacity:1;marker:none;marker-start:none;marker-mid:none;marker-end:none"
       d="M 30.154297,4.5390625 C -36.756005,29.200959 22.899911,122.67291 49.238648,162.90197 159.90939,302.37573 325.59194,384.55669 488.75091,446.85252 701.74677,526.01206 937.81089,549.62924 1159.2311,492.09858 1356.1361,442.42063 1550.848,358.49755 1700.9555,218.7299 1752.2701,166.63453 1807.3013,87.512032 1796.725,10.154166 1779.7119,-1.0274773 1636.3207,6.0617751 1549.9197,4.5315354 1043.3313,4.5355707 536.74271,4.5214407 30.154297,4.5390625 Z M 627.64062,56.240234 c -33.01601,60.115976 -0.61865,160.155406 77.69649,158.093746 157.21457,-0.74684 314.55829,1.49688 471.69189,-1.12571 79.5459,-7.80192 77.6819,-116.450975 69.8271,-156.967816 h 486.597 C 1700.2283,163.60046 1601.8047,232.99553 1511.8302,291.5569 1309.8513,410.65527 1073.9614,474.41027 837.95681,461.03368 613.68799,441.52064 392.13325,372.80934 210.45942,238.92412 149.87915,190.4461 86.621694,133.78085 65.501953,56.240234 Z m 76.31641,9.148438 c 156.28895,0.843977 301.42037,-1.66956 457.54637,1.224039 50.5354,34.907929 42.6493,97.621749 -41.3892,90.631109 -141.79274,0.34339 -283.76613,1.82462 -425.44651,-1.17968 -31.8099,-14.5642 -31.23176,-88.449901 9.28934,-90.675468 z"
       sodipodi:nodetypes="ccccccccccccccccccccccc" />
  </g>
</svg>
