<?xml version="1.0" encoding="UTF-8" standalone="no"?>
<svg
   width="809.40375"
   height="1799.5031"
   id="svg2"
   version="1.1"
   xml:space="preserve"
   xmlns="http://www.w3.org/2000/svg"
   xmlns:svg="http://www.w3.org/2000/svg"
   xmlns:rdf="http://www.w3.org/1999/02/22-rdf-syntax-ns#"
   xmlns:cc="http://creativecommons.org/ns#"
   xmlns:dc="http://purl.org/dc/elements/1.1/"><metadata
     id="metadata9"><rdf:RDF><cc:Work
         rdf:about=""><dc:format>image/svg+xml</dc:format><dc:type
           rdf:resource="http://purl.org/dc/dcmitype/StillImage" /></cc:Work></rdf:RDF></metadata><defs
     id="defs7" /><path
     id="path1"
     style="display:inline;fill:#000000;stroke:none;stroke-width:35.3725"
     d="m 127.51343,50.444284 c 0,0 -40.96678,5.814177 -60.50944,16.758055 C 22.33505,92.216972 0,129.14435 0,177.98242 c 0,57.17629 45.039745,113.65462 102.95367,203.68995 28.92222,44.96365 89.26526,152.94011 89.26526,152.94011 l -41.7057,0.4306 2.44289,28.41473 c 0,0 77.02802,38.53266 79.34767,83.68863 -8.37341,3.87917 -17.27948,7.78181 -28.38611,11.56098 -49.05072,20.94959 -76.42953,71.75812 -81.79903,115.28162 -30.61006,78.39131 40.9438,457.08036 40.9438,457.08036 h 182.53352 c 5.43295,189.4468 1.38357,378.9573 -0.2364,568.4338 h 112.9123 c -5.91,-190.2757 -6.63225,-378.4315 -0.4924,-568.4338 h 182.9942 c 0,0 64.8505,-304.18306 35.5861,-457.08036 -5.4615,-43.15209 -32.6496,-93.21454 -80.6922,-114.17653 -6.4704,-2.43363 -11.7899,-4.74589 -17.1907,-7.06122 2.20137,-51.88332 82.96681,-87.78852 82.96681,-87.78852 l 2.50988,-29.846 -47.47711,0.77793 c 0,0 46.97191,-94.95759 79.4053,-140.63647 61.9771,-87.28798 113.52202,-160.09952 113.52202,-217.27581 0,-48.83807 -22.03719,-85.765468 -66.1107,-110.780081 C 720.5381,54.287399 672.18285,51.978283 672.17076,50.842929 L 671.62945,0 H 129.84134 Z m 17.21351,54.279666 c 57.17632,0 85.76565,24.4204 85.76565,73.25847 0,39.3087 -15.48535,58.96302 -46.45579,58.96302 -34.54399,0 -51.22176,-10.72098 -50.03057,-32.16214 4.76466,-10.72051 10.7213,-12.50829 17.86842,-5.36123 20.24981,0 30.37566,-7.14556 30.37565,-21.43965 0,-17.86756 -10.72103,-26.80266 -32.16212,-26.80266 -40.49981,0 -62.53724,18.46375 -66.11075,55.39004 4.76469,35.7352 18.76172,58.96321 41.98958,69.68372 23.22783,10.72058 62.83429,11.3159 118.81926,1.78649 l 39.695,257.4511 -52.21729,-0.18034 -130.41813,-228.68162 c 0,2.38231 -10.12571,-11.31707 -30.37562,-41.09634 C 51.2203,235.7535 41.09636,207.16587 41.09636,179.7689 c 0,-50.02923 34.54265,-75.04495 103.63058,-75.04495 z m 521.73463,0 c 69.0881,0 103.6324,25.01572 103.6324,75.04495 0,27.39697 -10.1238,55.9846 -30.3739,85.76391 -20.2499,29.77927 -30.3754,43.47865 -30.3754,41.09634 l -133.22246,228.31949 -49.50644,1.12978 39.7883,-258.03841 c 55.9851,9.52941 95.2936,8.93409 117.926,-1.78649 22.6321,-10.72051 36.3298,-33.94852 41.0946,-69.68372 -2.3825,-36.92629 -23.8224,-55.39004 -64.3225,-55.39004 -21.4412,0 -32.162,8.9351 -32.162,26.80266 0,14.29409 10.1255,21.43965 30.3756,21.43965 7.147,-7.14706 13.1018,-5.35928 17.8666,5.36123 1.1911,21.44116 -16.0801,32.16214 -51.8154,32.16214 -30.9703,0 -46.4557,-19.65432 -46.4557,-58.96302 0,-48.83806 29.1828,-73.25847 87.5503,-73.25847 z M 270.45544,63.319902 537.59328,64.673221 478.85246,536.05205 334.35395,534.55322 c 0,0 -52.85533,-426.05664 -63.89851,-471.233318 z M 399.79257,646.72806 c 158.5669,0 235.4177,68.78156 244.9541,142.07191 l 4.8745,66.73424 c -7.8459,-1.62441 -5.3915,-5.04282 -34.3622,1.57078 0,-50.67648 -39.9736,-94.59586 -69.7367,-120.72052 -29.7916,-26.14961 -77.6167,-51.8506 -145.7297,-51.8506 -68.6573,0 -122.9812,25.13821 -154.7362,51.28923 -30.75602,25.32834 -61.47742,65.46715 -58.6629,116.06541 -27.68426,-8.49713 -32.90643,-3.81438 -42.47037,0.12356 l 9.80867,-63.2121 C 165.07,715.73061 240.67757,646.72806 399.79257,646.72806 Z m 0,69.19826 c 124.7831,0 185.6168,104.31694 185.6168,171.3407 26.4724,-12.87248 82.6457,-22.45883 79.7123,12.38541 -2.9332,34.84423 -68.361,27.71776 -81.7796,6.15383 -18.489,49.35098 -62.0261,143.25664 -105.0674,177.69054 -35.9401,28.7529 -58.8889,36.0617 -78.6127,36.0617 -19.5184,0 -41.6916,-8.2613 -78.3532,-36.0617 -41.8396,-31.7271 -80.0904,-130.49591 -96.72114,-176.77962 -20.89914,8.4399 -81.11416,28.38901 -82.5775,-11.25029 -1.23438,-33.43708 38.76009,-20.08431 72.65121,-15.92485 -10.16874,-66.2479 59.25573,-163.61572 185.13123,-163.61572 z m 58.2835,62.92261 c -5.3343,0 -10.3958,0.88462 -15.1748,2.65679 -16.8898,6.26655 -26.8619,15.91844 -30.951,27.63412 -4.0856,11.71567 -6.6323,34.89266 -6.6323,63.22798 0,27.79025 5.123,48.26443 15.4766,60.79719 10.3529,12.53277 15.4746,22.21727 15.4746,29.84604 -3.9543,-2.12942 -7.6549,-3.24817 -11.1003,-3.24817 -2.7236,0 -5.2843,0.69636 -7.6896,2.13956 -5.4509,3.26841 -6.0405,10.08839 -3.3241,19.89677 -4.6302,2.17891 -9.3649,3.26936 -14.1648,3.26936 -4.8036,0 -9.67,-1.09045 -14.5762,-3.26936 2.1931,-9.80838 -4e-4,-16.6273 -5.5254,-19.89677 -2.4053,-1.4432 -4.7497,-2.13956 -7.1334,-2.13956 -3.0069,0 -6.1001,1.11521 -9.4498,3.24817 0,-7.62877 5.1227,-17.31327 15.4763,-29.84604 10.3535,-12.53276 15.4748,-33.00694 15.4748,-60.79719 0,-28.33532 -2.2638,-51.51231 -6.6323,-63.22798 -4.3579,-11.71568 -15.1641,-21.36757 -32.0544,-27.63412 -4.2236,-1.56702 -8.6343,-2.02446 -13.2646,-2.21192 -0.672,-0.0268 -1.3441,-0.0353 -2.0161,-0.0353 -13.4233,0 -28.7859,5.33766 -45.5199,16.62215 -23.4309,15.80222 -43.3606,24.31886 -60.79556,24.31886 v 24.53953 c 11.98766,0 30.20506,-7.95627 55.26996,-23.21377 17.6369,-10.73477 33.703,-16.1667 48.0358,-16.1667 6.0382,0 11.7717,0.96552 17.18,2.90394 18.2559,6.53892 27.6358,24.178 27.6358,53.05807 0,32.1495 -6.2419,55.169 -17.6848,67.42944 -11.4425,12.26035 -16.5832,25.62589 -16.5832,39.79354 0,9.26331 6.2749,15.24985 19.8967,18.79169 13.625,3.54181 23.8696,5.52718 30.9511,5.52718 6.5403,0 16.785,-1.98466 30.951,-5.52718 14.1703,-3.54184 22.1071,-9.52838 22.1071,-18.79169 0,-14.16765 -6.2419,-27.53319 -17.685,-39.79354 -11.4429,-12.26044 -16.5797,-35.27994 -16.5797,-67.42944 0,-28.88007 8.2733,-46.51915 26.529,-53.05807 5.4121,-1.93842 11.142,-2.90394 17.18,-2.90394 14.3329,0 30.4026,5.43193 48.0359,16.1667 25.0683,15.2575 43.2821,23.21377 55.2699,23.21377 v -24.53955 c -17.4349,0 -37.363,-8.51664 -60.7937,-24.31886 -16.8053,-11.33437 -32.0907,-17.02638 -45.6242,-17.02638 z m 10.2475,54.82161 v 0.009 c -17.4386,0 -28.2413,12.54804 -32.0581,39.79355 l 3.3261,6.63225 c 2.5466,-0.45982 6.0271,-0.62844 10.4946,-0.62844 6.1015,0 14.0176,0.31717 23.7699,0.62844 0.9197,0.0294 1.8041,0.0353 2.6887,0.0353 15.7725,0 29.656,-4.54199 41.5164,-13.30865 19.0728,1.63415 33.8934,3.90788 46.4258,6.63226 v -14.36961 c -29.9669,-2.17893 -49.8954,-6.74086 -60.7937,-14.36959 -10.8971,-7.62803 -22.8386,-11.0537 -35.3697,-11.05436 z m -138.1724,0.009 c -11.9872,0 -23.3662,3.42456 -34.2645,11.05435 -10.8983,7.62875 -31.3864,12.18996 -61.90229,14.36961 v 14.36951 c 13.07729,-2.72361 28.44269,-4.99769 46.42589,-6.63224 12.3767,8.76666 26.5448,13.30864 42.5791,13.30864 0.9197,0 1.84,-0.0145 2.7592,-0.0353 9.9113,-0.31836 18.1709,-0.63022 24.5342,-0.63022 4.6621,0 8.3046,0.17744 10.8371,0.63022 l 2.1928,-6.63226 c -4.358,-27.24552 -15.7229,-39.79355 -33.1615,-39.79355 z m 273.1831,108.77115 c 23.7908,9.61834 29.9752,7.80222 41.7896,4.87441 l -39.8504,237.5146 h -136.8952 c 5.8117,-23.8411 11.7148,-48.1393 16.9541,-69.1188 11.2817,-9.43 22.8682,-20.4406 34.946,-33.329 l 24.3189,-32.0562 c 8.0118,-12.3708 51.4824,-93.73429 58.737,-107.88501 z m -397.08639,0.40779 c 0,-30.43566 33.44789,81.23402 48.73649,107.47722 l 24.319,33.4278 c 13.2329,14.1006 25.8513,25.7955 38.1201,35.631 5.8658,20.3803 11.7324,42.4062 17.5981,65.4452 H 200.77702 L 159.02433,947.86818 c 7.51853,2.92752 12.52875,7.4816 47.22355,-5.00967 z m 176.96309,55.5242 c -2.7236,9.26332 -15.2577,13.26452 -38.6885,13.26452 -4.9061,0 -7.739,5.0907 -7.739,13.2645 0,11.9881 3.9866,17.6866 12.1612,17.6866 15.3729,15.2307 22.8051,21.5774 50.8479,21.5774 27.4952,0 32.9924,-4.2831 49.7409,-21.5774 8.7194,0 13.2648,-5.6985 13.2648,-17.6866 0,-8.1738 -2.299,-13.2645 -7.7357,-13.2645 -23.4307,0 -37.0698,-4.0012 -39.7936,-13.26452 -2.7235,10.35312 -7.8501,15.47472 -15.4764,15.47472 -8.1746,0 -13.8543,-5.1216 -16.5816,-15.47472 z" /></svg>
