<?xml version="1.0" encoding="UTF-8" standalone="no"?>
<svg
   width="18.297001"
   height="12.24"
   id="svg5536"
   sodipodi:version="0.32"
   inkscape:version="1.2.1 (9c6d41e410, 2022-07-14)"
   sodipodi:docname="US9Z16VARA.svg"
   version="1.1"
   xmlns:inkscape="http://www.inkscape.org/namespaces/inkscape"
   xmlns:sodipodi="http://sodipodi.sourceforge.net/DTD/sodipodi-0.dtd"
   xmlns="http://www.w3.org/2000/svg"
   xmlns:svg="http://www.w3.org/2000/svg"
   xmlns:rdf="http://www.w3.org/1999/02/22-rdf-syntax-ns#"
   xmlns:cc="http://creativecommons.org/ns#"
   xmlns:dc="http://purl.org/dc/elements/1.1/">
  <defs
     id="defs5540" />
  <metadata
     id="metadata5539">
    <rdf:RDF>
      <cc:Work
         rdf:about="">
        <dc:format>image/svg+xml</dc:format>
        <dc:type
           rdf:resource="http://purl.org/dc/dcmitype/StillImage" />
      </cc:Work>
    </rdf:RDF>
  </metadata>
  <sodipodi:namedview
     id="base"
     pagecolor="#ffffff"
     bordercolor="#666666"
     borderopacity="1.0"
     inkscape:pageopacity="0.0"
     inkscape:pageshadow="2"
     inkscape:zoom="53.921369"
     inkscape:cx="7.4645731"
     inkscape:cy="4.8960181"
     inkscape:window-width="1920"
     inkscape:window-height="1137"
     inkscape:window-x="-8"
     inkscape:window-y="-8"
     inkscape:current-layer="svg5536"
     showgrid="false"
     inkscape:grid-bbox="false"
     showguides="false"
     inkscape:guide-bbox="false"
     inkscape:showpageshadow="2"
     inkscape:pagecheckerboard="0"
     inkscape:deskcolor="#d1d1d1"
     inkscape:window-maximized="1" />
  <path
     id="path5537"
     style="fill:#000000;stroke:none"
     d="m 13.808594,0.02929688 -9.2910159,0.01171874 -0.035138,4.52522568 -4.49609375,0.00391 0.0331848,3.0023014 4.59374995,-0.00977 -0.027344,4.7068473 9.3691409,-0.002 -0.0293,-4.7244256 4.368191,-0.00391 0.0039,-3.0394107 -4.41994,0.014635 z M 13.126953,0.734375 13.203123,11.59375 11.75781,11.58785 V 0.73828125 Z m -2.166015,0.003906 v 10.845703 l -1.4101568,-0.0039 V 0.7421875 Z M 8.7714844,0.74414 v 10.832032 l -1.390625,-0.0059 V 0.74804688 Z M 6.6582031,0.748046 V 11.568359 L 5.3632812,11.5625 5.2753906,0.75195312 Z M 17.645499,5.2234587 17.626949,6.7814333 13.87109,6.8068243 13.88964,5.2254122 Z M 4.4511902,5.2068663 4.4882812,6.871277 0.74414062,6.8966676 0.7090027,5.2088194 Z"
     sodipodi:nodetypes="ccccccccccccccccccccccccccccccccccccccccccc" />
</svg>
